<svg id="svg1040" xmlns="http://www.w3.org/2000/svg" xmlns:xlink="http://www.w3.org/1999/xlink" viewBox="0 0 708.66144 708.66144"><defs><style>.cls-1{fill:url(#linear-gradient);}.cls-2{fill:url(#linear-gradient-2);}.cls-14,.cls-3,.cls-4,.cls-5,.cls-7{opacity:0.8;}.cls-10,.cls-11,.cls-13,.cls-14,.cls-3,.cls-4,.cls-5,.cls-7,.cls-8,.cls-9{isolation:isolate;}.cls-3{fill:url(#linear-gradient-3);}.cls-4{fill:url(#linear-gradient-4);}.cls-5{fill:url(#linear-gradient-5);}.cls-6{fill:url(#linear-gradient-6);}.cls-7{fill:url(#linear-gradient-7);}.cls-10,.cls-11,.cls-13,.cls-8,.cls-9{opacity:0.3;}.cls-8{fill:url(#linear-gradient-8);}.cls-9{fill:url(#linear-gradient-9);}.cls-10{fill:url(#linear-gradient-10);}.cls-11{fill:url(#linear-gradient-11);}.cls-12{fill:url(#linear-gradient-12);}.cls-13{fill:url(#linear-gradient-13);}.cls-14{fill:url(#linear-gradient-14);}.cls-15{fill:url(#linear-gradient-15);}.cls-16{fill:url(#linear-gradient-16);}.cls-17{fill:#fff;}</style><linearGradient id="linear-gradient" x1="199.86683" y1="531.21027" x2="23.45235" y2="595.41989" gradientTransform="matrix(3.41033, 0.93835, -0.93835, 3.41033, 514.36588, -1627.91893)" gradientUnits="userSpaceOnUse"><stop offset="0.2986" stop-color="#0097ce"/><stop offset="0.3791" stop-color="#0999c5"/><stop offset="0.5119" stop-color="#229dad"/><stop offset="0.6469" stop-color="#42a38f"/><stop offset="0.7352" stop-color="#5dad82"/><stop offset="0.9239" stop-color="#a1c661"/><stop offset="1" stop-color="#bed153"/></linearGradient><linearGradient id="linear-gradient-2" x1="-2.30704" y1="536.36647" x2="185.48338" y2="536.36647" gradientTransform="matrix(3.41033, 0.93835, -0.93835, 3.41033, 514.36588, -1627.91893)" gradientUnits="userSpaceOnUse"><stop offset="0.08199" stop-color="#3d65af"/><stop offset="0.2305" stop-color="#2372b8"/><stop offset="0.5058" stop-color="#00b8bb"/></linearGradient><linearGradient id="linear-gradient-3" x1="-2.38391" y1="515.50102" x2="99.62639" y2="515.50102" gradientTransform="matrix(3.41033, 0.93835, -0.93835, 3.41033, 514.36588, -1627.91893)" gradientUnits="userSpaceOnUse"><stop offset="0.1297"/><stop offset="0.3277" stop-color="#00334b"/><stop offset="0.5276" stop-color="#006190"/><stop offset="0.6723" stop-color="#007fbb"/><stop offset="0.7457" stop-color="#008acc"/></linearGradient><linearGradient id="linear-gradient-4" x1="-2.38391" y1="511.90716" x2="99.62639" y2="511.90716" xlink:href="#linear-gradient-3"/><linearGradient id="linear-gradient-5" x1="-2.38391" y1="512.3049" x2="99.62639" y2="512.3049" xlink:href="#linear-gradient-3"/><linearGradient id="linear-gradient-6" x1="12.9109" y1="532.48553" x2="99.54641" y2="532.48553" gradientTransform="matrix(3.41033, 0.93835, -0.93835, 3.41033, 514.36588, -1627.91893)" gradientUnits="userSpaceOnUse"><stop offset="0.1297" stop-color="#2483c5"/><stop offset="0.1672" stop-color="#2486c7"/><stop offset="0.676" stop-color="#29b1df"/><stop offset="0.9352" stop-color="#2bc2e8"/></linearGradient><linearGradient id="linear-gradient-7" x1="-2.38391" y1="520.22272" x2="99.62639" y2="520.22272" xlink:href="#linear-gradient-3"/><linearGradient id="linear-gradient-8" x1="-2.08882" y1="516.06624" x2="-2.08872" y2="516.06624" gradientTransform="matrix(3.41033, 0.93835, -0.93835, 3.41033, 514.36588, -1627.91893)" gradientUnits="userSpaceOnUse"><stop offset="0" stop-color="#682c90"/><stop offset="0.496" stop-color="#817cb9"/><stop offset="1" stop-color="#fff"/></linearGradient><linearGradient id="linear-gradient-9" x1="84.38078" y1="511.65202" x2="32.71159" y2="511.65202" xlink:href="#linear-gradient-8"/><linearGradient id="linear-gradient-10" x1="84.38078" y1="517.77031" x2="32.71159" y2="517.77031" xlink:href="#linear-gradient-8"/><linearGradient id="linear-gradient-11" x1="84.38078" y1="512.60302" x2="32.71159" y2="512.60302" xlink:href="#linear-gradient-8"/><linearGradient id="linear-gradient-12" x1="0.80929" y1="550.39684" x2="83.56198" y2="550.39684" gradientTransform="matrix(3.41033, 0.93835, -0.93835, 3.41033, 514.36588, -1627.91893)" gradientUnits="userSpaceOnUse"><stop offset="0.1297" stop-color="#3b67ad"/><stop offset="0.5697" stop-color="#227caa"/><stop offset="0.9352" stop-color="#118aa8"/></linearGradient><linearGradient id="linear-gradient-13" x1="84.38078" y1="512.10877" x2="32.71159" y2="512.10877" xlink:href="#linear-gradient-8"/><linearGradient id="linear-gradient-14" x1="-2.38811" y1="532.0582" x2="99.62219" y2="532.0582" xlink:href="#linear-gradient-3"/><linearGradient id="linear-gradient-15" x1="-2.38811" y1="532.0582" x2="80.61028" y2="532.0582" gradientTransform="matrix(3.41033, 0.93835, -0.93835, 3.41033, 514.36588, -1627.91893)" gradientUnits="userSpaceOnUse"><stop offset="0.1297" stop-color="#3a67b0"/><stop offset="0.5622" stop-color="#357fbd"/><stop offset="0.9352" stop-color="#3290c6"/></linearGradient><linearGradient id="linear-gradient-16" x1="99.66398" y1="520.4417" x2="185.50788" y2="520.4417" gradientTransform="matrix(3.41033, 0.93835, -0.93835, 3.41033, 514.36588, -1627.91893)" gradientUnits="userSpaceOnUse"><stop offset="0.1724" stop-color="#4e5ca8"/><stop offset="0.9937" stop-color="#1fc3f3"/></linearGradient></defs><g id="layer1"><g id="g5463"><g id="g5461"><path id="path5273" class="cls-1" d="M683.82836,220.61131c-15.2089-2.12216-48.80994-2.82955-115.30459,10.96455a92.7002,92.7002,0,0,1-24.05128,2.47587c-8.48866-.70739-17.68476-3.18326-25.81976-5.65912-36.43061-12.37933-66.4947-8.48869-84.17946.70739h0c-9.90348,5.30543-17.68476,12.02565-26.17345,23.34388-10.96454,14.8552-33.95473,60.12818-65.4336,72.15381h0c-17.68476,11.31823-36.78431,22.99018-53.408,39.61384-10.61085,10.96455-13.44043,36.78431-41.38232,61.89666h0c-31.12519,45.273-66.84841,78.16665-103.279,102.21791-52.70058,36.78433-96.91248,48.10256-96.91248,48.10256s117.0731,32.18628,245.46445-27.9419c97.61986-45.98037,148.19828-135.46526,159.87023-155.27218l63.66513-108.23072c5.65915-9.90346,15.91629-22.63649,25.466-27.58822,3.18323-1.76847,6.0128-2.82955,6.72018-3.537,7.0739-3.53695,14.50153-6.36651,21.92909-9.19607,44.56561-15.91628,90.89965-17.33106,112.47507-19.80692,2.82958-.70739,2.47586-3.89064.35372-4.24434Z"/><path id="path5283" class="cls-2" d="M683.82836,220.61131c-15.2089-2.12216-48.80994-2.82955-115.30459,10.96455a92.7002,92.7002,0,0,1-24.05128,2.47587c-8.48866-.70739-17.68476-3.18326-25.81976-5.65912-37.49171-12.37933-66.141-9.19607-84.17946.70739-9.90348,5.30543-17.68476,12.02565-26.17345,23.34388-10.96454,14.8552-33.95473,60.12818-65.4336,72.15381h0c-35.36952-33.24734-66.49471-61.18927-96.5588-85.94793-16.97735-13.44041-33.601-26.17343-47.74884-35.36951-36.0769-24.75867-72.50751-47.04146-108.93811-64.37252-16.27-7.4276-33.24735-14.14781-51.99319-21.22171-8.135-2.47587-12.733,1.41478-14.14781,7.78129-.70739,2.12218-1.41478,7.7813,2.12218,17.68476,8.135,21.9291,20.16062,47.04146,34.66212,72.50751h0c5.30543,9.54977,11.31825,19.45323,17.68476,29.35669,29.3567,45.98037,66.141,92.31444,103.63268,128.74505,8.135,7.78128,15.91628,14.85519,24.405,21.5754a352.04752,352.04752,0,0,0,31.83256,23.69756c1.06109.70738,6.36652,3.89065,9.90347,6.01281,7.0739,3.89064,16.62366,8.48869,22.6365,10.96455,29.7104,13.08671,55.53013,16.97737,78.16662,16.62366,39.26016,1.06109,71.09273-11.31824,86.65532-32.18626a284.23751,284.23751,0,0,0,18.03847-27.58823l63.66513-108.23072c5.65915-9.90346,15.91629-22.63649,25.466-27.58822,3.18323-1.76847,6.0128-2.82955,6.72018-3.537,6.72019-3.18326,6.72019-2.12216,13.79409-4.95174,45.273-15.91628,99.38836-21.5754,120.96374-24.05126a1.9595,1.9595,0,0,0,0-3.89065Z"/><path id="path5297" class="cls-3" d="M22.77208,129.358c0-1.06109.3537-2.12217,0-2.82956A3.87444,3.87444,0,0,1,22.77208,129.358Z"/><path id="path5311" class="cls-4" d="M52.48248,122.63775h0a3.18858,3.18858,0,0,0-1.76848-.3537c1.06108.3537,2.12217,1.06109,3.18326,1.41478C53.89726,123.34514,53.18986,122.99144,52.48248,122.63775Z"/><path id="path5325" class="cls-5" d="M63.447,127.23579c-.3537,0-1.06108-.3537-1.41478-.3537,1.06108.3537,2.12217,1.06109,2.82956,1.06109C64.15441,127.58948,63.80072,127.23579,63.447,127.23579Z"/><path id="path5337" class="cls-6" d="M271.06609,330.96421c25.11235,3.18326,49.51732,1.41479,71.44644-7.0739h0c-21.22171-19.80693-41.38233-37.84539-60.12818-54.11536h0c-9.54979-8.135-18.74586-16.27-27.58824-23.69758-.35369-.3537-1.06109-.70739-1.06109-1.0611-2.47586-2.12216-4.598-3.89064-6.72019-5.65911-.70741-.35369-1.06109-1.06109-1.41478-1.06109-16.97738-13.44041-33.60105-25.81974-47.04147-35.36951-36.0769-24.405-72.15381-47.04146-108.58441-64.37253-3.18326-1.76847-6.36651-2.82956-9.90347-4.598-1.06108-.3537-2.12217-1.06109-2.82955-1.06109C218.01181,208.93938,262.93111,277.90993,271.06609,330.96421Z"/><path id="path5351" class="cls-7" d="M28.07751,149.87228h0c-1.06108-2.12217-1.76847-4.598-2.82956-7.0739C26.309,144.92055,27.01643,147.39641,28.07751,149.87228Z"/><path id="path5375" class="cls-8" d="M22.77208,130.419c0-.35369,0-.35369.3537-.70739C23.12578,130.06535,23.12578,130.06535,22.77208,130.419Z"/><path id="path5385" class="cls-9" d="M37.981,117.33232c4.598,1.76848,8.84238,3.18326,13.08672,4.95173C46.46966,120.51558,42.22532,118.7471,37.981,117.33232Z"/><path id="path5395" class="cls-10" d="M22.77208,130.419A41.64014,41.64014,0,0,0,25.248,142.79838h0A41.64046,41.64046,0,0,1,22.77208,130.419Z"/><path id="path5405" class="cls-11" d="M75.119,132.18752l2.12218,1.06109h0c-3.89065-1.76848-8.135-3.537-12.37934-5.30543,1.41478.70739,2.47587,1.06108,3.89065,1.76847A47.23574,47.23574,0,0,1,75.119,132.18752Z"/><path id="path5415" class="cls-12" d="M116.855,256.68822C79.00961,226.27043,43.2864,183.827,28.07751,150.226,63.447,239.71085,155.40778,366.68742,237.46505,419.03431c1.41478,1.0611,6.36652,3.89064,10.25716,6.01281,10.61086-16.27,30.06409-49.871,23.34388-94.08291C220.48769,324.244,166.01863,296.65578,116.855,256.68822Z"/><path id="path5425" class="cls-13" d="M62.03225,126.88209l-7.4276-3.18325c.3537,0,.70739.35369,1.06108.35369C57.43421,124.75992,59.55638,125.821,62.03225,126.88209Z"/><path id="path5439" class="cls-14" d="M116.855,256.68822c49.16363,39.96756,103.63269,67.20209,154.21109,73.9223-8.135-52.70059-53.05428-122.02485-193.82495-197.36191a11.77472,11.77472,0,0,1-2.12217-1.06109c-2.12217-1.06109-4.24434-1.76848-6.01282-2.82956-1.41478-.70739-2.47587-1.06108-3.89065-1.76848-1.06108-.35369-2.12217-1.06108-2.82955-1.06108a37.71244,37.71244,0,0,0-6.72021-2.47587c-.3537,0-.70739-.35369-1.06109-.35369-1.06108-.3537-2.12217-1.06109-3.18326-1.41479-4.24434-1.41477-8.48868-3.53695-13.08672-4.95173-8.135-2.47586-12.733,1.41478-14.5015,7.4276a12.5068,12.5068,0,0,0-.3537,2.12218c-.35369.70739,0,1.76847,0,2.82956,0,.35369,0,.35369-.35369.70739h0a41.64038,41.64038,0,0,0,2.47586,12.37933h0a63.76658,63.76658,0,0,0,2.82956,7.4276C43.2864,183.827,79.3633,226.27045,116.855,256.68822Z"/><path id="path5449" class="cls-15" d="M116.855,256.68822c49.16363,39.96756,103.63269,67.20209,154.21109,73.9223-8.135-52.70059-53.05428-122.02485-193.82495-197.36191a11.77472,11.77472,0,0,1-2.12217-1.06109c-2.12217-1.06109-4.24434-1.76848-6.01282-2.82956-1.41478-.70739-2.47587-1.06108-3.89065-1.76848-1.06108-.35369-2.12217-1.06108-2.82955-1.06108a37.71244,37.71244,0,0,0-6.72021-2.47587c-.3537,0-.70739-.35369-1.06109-.35369-1.06108-.3537-2.12217-1.06109-3.18326-1.41479-4.24434-1.41477-8.48868-3.53695-13.08672-4.95173-8.135-2.47586-12.733,1.41478-14.5015,7.4276a12.5068,12.5068,0,0,0-.3537,2.12218c-.35369.70739,0,1.76847,0,2.82956,0,.35369,0,.35369-.35369.70739h0a41.64038,41.64038,0,0,0,2.47586,12.37933h0a63.76658,63.76658,0,0,0,2.82956,7.4276C43.2864,183.827,79.3633,226.27045,116.855,256.68822Z"/><path id="path5457" class="cls-16" d="M683.82836,220.61131c-15.2089-2.12216-48.80994-2.82955-115.30459,10.96455a92.7002,92.7002,0,0,1-24.05128,2.47587c-8.48866-.70739-17.68476-3.18326-25.81976-5.65912-21.22171-7.0739-39.26019-9.19607-53.76165-8.135a71.60382,71.60382,0,0,0-35.01583,12.02564,76.83166,76.83166,0,0,0-21.22171,20.51431c-10.96455,14.8552-33.95473,60.12818-65.43361,72.15382h0c24.75866,23.34388,62.95773,42.79711,98.681,31.12519,34.30842-11.31824,55.53013-41.736,62.25037-51.63949,14.14781-20.868,21.92909-28.6493,22.63647-29.7104,1.76848-1.76848,14.85519-16.97737,42.0897-26.17345,40.32123-13.44041,101.15684-21.5754,115.65831-22.99018,1.76848-1.41479,1.41476-4.598-.70738-4.95174Z"/><circle id="circle5459" class="cls-17" cx="485.97008" cy="259.243" r="10.6112"/></g></g></g></svg>