<svg xmlns="http://www.w3.org/2000/svg" width="24" height="24" viewBox="0 0 24 24"><path fill-rule="evenodd" d="M22 11h-8v-1a1 1 0 0 0-1-1h-2a1 1 0 0 0-1 1v1H2V6.5a.5.5 0 0 1 .5-.5h19a.5.5 0 0 1 .5.5V11zm-11 2h2v-3h-2v3zm11 7.5a.5.5 0 0 1-.5.5h-19a.5.5 0 0 1-.5-.5V12h8v1a1 1 0 0 0 1 1h2a1 1 0 0 0 1-1v-1h8v8.5zM9 3.5a.5.5 0 0 1 .5-.5h5a.5.5 0 0 1 .5.5V5H9V3.5zM21.5 5H16V3.5A1.5 1.5 0 0 0 14.5 2h-5A1.5 1.5 0 0 0 8 3.5V5H2.5A1.5 1.5 0 0 0 1 6.5v14A1.5 1.5 0 0 0 2.5 22h19a1.5 1.5 0 0 0 1.5-1.5v-14A1.5 1.5 0 0 0 21.5 5z"/></svg>