<svg width="268" height="230" viewBox="0 0 268 230" fill="none" xmlns="http://www.w3.org/2000/svg">
<g clip-path="url(#clip0_12956_17917)">
<path d="M66.6819 159.282C66.4512 158.486 65.896 157.807 65.1354 157.389C64.7567 157.184 64.3383 157.051 63.9045 156.998C63.4706 156.945 63.0298 156.972 62.6073 157.079C62.1848 157.185 61.7891 157.369 61.4428 157.619C61.0965 157.869 60.8064 158.18 60.5894 158.535L60.0823 159.369L59.5761 158.535C59.1299 157.822 58.4012 157.302 57.5478 157.088C56.6944 156.873 55.7848 156.981 55.016 157.389V157.389C54.252 157.805 53.6954 158.486 53.4679 159.285C53.2404 160.083 53.3605 160.933 53.802 161.649L56.2422 165.598L47.2294 180.147H40.6689C39.785 180.147 38.9372 180.475 38.3121 181.059C37.6871 181.643 37.3359 182.435 37.3359 183.261C37.3359 184.087 37.6871 184.879 38.3121 185.463C38.9372 186.047 39.785 186.375 40.6689 186.375H65.989L62.1358 180.147H54.9226L66.3485 161.651C66.5732 161.298 66.7186 160.905 66.7759 160.498C66.8332 160.091 66.8013 159.677 66.6819 159.282V159.282Z" fill="url(#paint0_linear_12956_17917)"/>
<path d="M79.4675 180.147H72.908L65.4547 168.088L61.6016 174.317L73.1741 193.039C73.3904 193.396 73.6814 193.708 74.0298 193.957C74.3781 194.206 74.7767 194.386 75.2015 194.488C75.4836 194.562 75.7752 194.599 76.0682 194.599C76.6541 194.6 77.2295 194.454 77.7342 194.176C78.4971 193.762 79.0533 193.083 79.2809 192.287C79.5085 191.49 79.3888 190.642 78.9482 189.928L76.7611 186.374H79.4693C80.3533 186.374 81.2011 186.046 81.8261 185.462C82.4512 184.878 82.8023 184.086 82.8023 183.26C82.8023 182.434 82.4512 181.642 81.8261 181.058C81.2011 180.474 80.3533 180.146 79.4693 180.146L79.4675 180.147Z" fill="url(#paint1_linear_12956_17917)"/>
<path d="M41.8422 188.866L41.1885 189.925C40.9694 190.278 40.8273 190.669 40.7704 191.075C40.7135 191.48 40.7429 191.892 40.8569 192.287C40.9709 192.682 41.1674 193.051 41.4348 193.375C41.7023 193.699 42.0356 193.97 42.4156 194.173C42.9213 194.447 43.4968 194.589 44.0816 194.584C44.6678 194.584 45.2439 194.44 45.752 194.167C46.26 193.894 46.6824 193.501 46.9766 193.027L49.5364 188.866H41.8422Z" fill="url(#paint2_linear_12956_17917)"/>
</g>
<mask id="path-5-inside-1_12956_17917" fill="white">
<rect x="23.6934" y="141.928" width="72.4433" height="67.8364" rx="1"/>
</mask>
<rect x="23.6934" y="141.928" width="72.4433" height="67.8364" rx="1" stroke="url(#paint3_linear_12956_17917)" stroke-width="4" mask="url(#path-5-inside-1_12956_17917)"/>
<g clip-path="url(#clip1_12956_17917)">
<path d="M143.315 159.283C143.084 158.487 142.529 157.808 141.768 157.39C141.389 157.185 140.971 157.052 140.537 156.999C140.103 156.946 139.663 156.973 139.24 157.08C138.818 157.186 138.422 157.37 138.076 157.62C137.729 157.87 137.439 158.181 137.222 158.536L136.715 159.37L136.209 158.536C135.763 157.823 135.034 157.303 134.181 157.089C133.327 156.874 132.418 156.982 131.649 157.39V157.39C130.885 157.806 130.328 158.487 130.101 159.286C129.873 160.084 129.993 160.934 130.435 161.65L132.875 165.599L123.862 180.148H117.302C116.418 180.148 115.57 180.476 114.945 181.06C114.32 181.644 113.969 182.436 113.969 183.262C113.969 184.088 114.32 184.88 114.945 185.464C115.57 186.048 116.418 186.376 117.302 186.376H142.622L138.769 180.148H131.555L142.981 161.652C143.206 161.299 143.351 160.906 143.409 160.499C143.466 160.092 143.434 159.678 143.315 159.283V159.283Z" fill="url(#paint4_linear_12956_17917)"/>
<path d="M156.1 180.148H149.541L142.088 168.089L138.234 174.318L149.807 193.04C150.023 193.397 150.314 193.709 150.663 193.958C151.011 194.206 151.41 194.387 151.834 194.489C152.116 194.563 152.408 194.6 152.701 194.6C153.287 194.601 153.862 194.455 154.367 194.177C155.13 193.763 155.686 193.084 155.914 192.288C156.141 191.491 156.022 190.643 155.581 189.929L153.394 186.375H156.102C156.986 186.375 157.834 186.047 158.459 185.463C159.084 184.879 159.435 184.087 159.435 183.261C159.435 182.435 159.084 181.643 158.459 181.059C157.834 180.475 156.986 180.147 156.102 180.147L156.1 180.148Z" fill="url(#paint5_linear_12956_17917)"/>
<path d="M118.475 188.867L117.821 189.925C117.602 190.279 117.46 190.67 117.403 191.076C117.346 191.481 117.376 191.893 117.49 192.288C117.604 192.683 117.8 193.052 118.068 193.376C118.335 193.7 118.668 193.971 119.048 194.174C119.554 194.448 120.13 194.59 120.714 194.585C121.301 194.585 121.877 194.441 122.385 194.168C122.893 193.895 123.315 193.502 123.609 193.028L126.169 188.867H118.475Z" fill="url(#paint6_linear_12956_17917)"/>
</g>
<mask id="path-10-inside-2_12956_17917" fill="white">
<rect x="100.629" y="141.928" width="72.4433" height="67.8364" rx="1"/>
</mask>
<rect x="100.629" y="141.928" width="72.4433" height="67.8364" rx="1" stroke="url(#paint7_linear_12956_17917)" stroke-width="4" mask="url(#path-10-inside-2_12956_17917)"/>
<g clip-path="url(#clip2_12956_17917)">
<path d="M220.559 159.282C220.328 158.486 219.773 157.807 219.012 157.389C218.634 157.184 218.215 157.051 217.781 156.998C217.348 156.945 216.907 156.972 216.484 157.079C216.062 157.185 215.666 157.369 215.32 157.619C214.973 157.869 214.683 158.18 214.466 158.535L213.959 159.369L213.453 158.535C213.007 157.822 212.278 157.302 211.425 157.088C210.571 156.873 209.662 156.981 208.893 157.389V157.389C208.129 157.805 207.572 158.486 207.345 159.285C207.117 160.083 207.237 160.933 207.679 161.649L210.119 165.598L201.106 180.147H194.546C193.662 180.147 192.814 180.475 192.189 181.059C191.564 181.643 191.213 182.435 191.213 183.261C191.213 184.087 191.564 184.879 192.189 185.463C192.814 186.047 193.662 186.375 194.546 186.375H219.866L216.013 180.147H208.8L220.226 161.651C220.45 161.298 220.596 160.905 220.653 160.498C220.71 160.091 220.678 159.677 220.559 159.282V159.282Z" fill="url(#paint8_linear_12956_17917)"/>
<path d="M233.344 180.147H226.785L219.332 168.088L215.479 174.317L227.051 193.039C227.267 193.396 227.558 193.708 227.907 193.957C228.255 194.206 228.654 194.386 229.078 194.488C229.361 194.562 229.652 194.599 229.945 194.599C230.531 194.6 231.106 194.454 231.611 194.176C232.374 193.762 232.93 193.083 233.158 192.287C233.385 191.49 233.266 190.642 232.825 189.928L230.638 186.374H233.346C234.23 186.374 235.078 186.046 235.703 185.462C236.328 184.878 236.679 184.086 236.679 183.26C236.679 182.434 236.328 181.642 235.703 181.058C235.078 180.474 234.23 180.146 233.346 180.146L233.344 180.147Z" fill="url(#paint9_linear_12956_17917)"/>
<path d="M195.719 188.866L195.065 189.925C194.846 190.278 194.704 190.669 194.647 191.075C194.59 191.48 194.62 191.892 194.734 192.287C194.848 192.682 195.044 193.051 195.312 193.375C195.579 193.699 195.913 193.97 196.293 194.173C196.798 194.447 197.374 194.589 197.959 194.584C198.545 194.584 199.121 194.44 199.629 194.167C200.137 193.894 200.559 193.501 200.854 193.027L203.413 188.866H195.719Z" fill="url(#paint10_linear_12956_17917)"/>
</g>
<mask id="path-15-inside-3_12956_17917" fill="white">
<rect x="177.574" y="141.928" width="72.4433" height="67.8364" rx="1"/>
</mask>
<rect x="177.574" y="141.928" width="72.4433" height="67.8364" rx="1" stroke="url(#paint11_linear_12956_17917)" stroke-width="4" mask="url(#path-15-inside-3_12956_17917)"/>
<rect x="6.06055" y="211.728" width="254.916" height="4.25752" rx="2.12876" fill="url(#paint12_linear_12956_17917)"/>
<rect y="223.934" width="267.04" height="5.67669" rx="2.83835" fill="url(#paint13_linear_12956_17917)"/>
<rect x="27.8848" y="223.934" width="7.94737" height="4.54665" transform="rotate(-90 27.8848 223.934)" fill="url(#paint14_linear_12956_17917)"/>
<rect x="137.004" y="223.934" width="8.2312" height="4.54665" transform="rotate(-90 137.004 223.934)" fill="url(#paint15_linear_12956_17917)"/>
<rect x="241.271" y="223.934" width="7.94737" height="4.54665" transform="rotate(-90 241.271 223.934)" fill="url(#paint16_linear_12956_17917)"/>
<defs>
<linearGradient id="paint0_linear_12956_17917" x1="52.0698" y1="156.972" x2="52.0698" y2="186.375" gradientUnits="userSpaceOnUse">
<stop stop-color="#00B39F"/>
<stop offset="1" stop-color="#00D3A9" stop-opacity="0.75"/>
</linearGradient>
<linearGradient id="paint1_linear_12956_17917" x1="72.2019" y1="168.088" x2="72.2019" y2="194.599" gradientUnits="userSpaceOnUse">
<stop stop-color="#00B39F"/>
<stop offset="1" stop-color="#00D3A9" stop-opacity="0.75"/>
</linearGradient>
<linearGradient id="paint2_linear_12956_17917" x1="45.1393" y1="188.866" x2="45.1393" y2="194.584" gradientUnits="userSpaceOnUse">
<stop stop-color="#00B39F"/>
<stop offset="1" stop-color="#00D3A9" stop-opacity="0.75"/>
</linearGradient>
<linearGradient id="paint3_linear_12956_17917" x1="59.915" y1="141.928" x2="59.915" y2="209.765" gradientUnits="userSpaceOnUse">
<stop stop-color="#00B39F"/>
<stop offset="1" stop-color="#00D3A9" stop-opacity="0.75"/>
</linearGradient>
<linearGradient id="paint4_linear_12956_17917" x1="128.703" y1="156.973" x2="128.703" y2="186.376" gradientUnits="userSpaceOnUse">
<stop stop-color="#00B39F"/>
<stop offset="1" stop-color="#00D3A9" stop-opacity="0.75"/>
</linearGradient>
<linearGradient id="paint5_linear_12956_17917" x1="148.835" y1="168.089" x2="148.835" y2="194.6" gradientUnits="userSpaceOnUse">
<stop stop-color="#00B39F"/>
<stop offset="1" stop-color="#00D3A9" stop-opacity="0.75"/>
</linearGradient>
<linearGradient id="paint6_linear_12956_17917" x1="121.772" y1="188.867" x2="121.772" y2="194.585" gradientUnits="userSpaceOnUse">
<stop stop-color="#00B39F"/>
<stop offset="1" stop-color="#00D3A9" stop-opacity="0.75"/>
</linearGradient>
<linearGradient id="paint7_linear_12956_17917" x1="136.851" y1="141.928" x2="136.851" y2="209.765" gradientUnits="userSpaceOnUse">
<stop stop-color="#00B39F"/>
<stop offset="1" stop-color="#00D3A9" stop-opacity="0.75"/>
</linearGradient>
<linearGradient id="paint8_linear_12956_17917" x1="205.947" y1="156.972" x2="205.947" y2="186.375" gradientUnits="userSpaceOnUse">
<stop stop-color="#00B39F"/>
<stop offset="1" stop-color="#00D3A9" stop-opacity="0.75"/>
</linearGradient>
<linearGradient id="paint9_linear_12956_17917" x1="226.079" y1="168.088" x2="226.079" y2="194.599" gradientUnits="userSpaceOnUse">
<stop stop-color="#00B39F"/>
<stop offset="1" stop-color="#00D3A9" stop-opacity="0.75"/>
</linearGradient>
<linearGradient id="paint10_linear_12956_17917" x1="199.016" y1="188.866" x2="199.016" y2="194.584" gradientUnits="userSpaceOnUse">
<stop stop-color="#00B39F"/>
<stop offset="1" stop-color="#00D3A9" stop-opacity="0.75"/>
</linearGradient>
<linearGradient id="paint11_linear_12956_17917" x1="213.796" y1="141.928" x2="213.796" y2="209.765" gradientUnits="userSpaceOnUse">
<stop stop-color="#00B39F"/>
<stop offset="1" stop-color="#00D3A9" stop-opacity="0.75"/>
</linearGradient>
<linearGradient id="paint12_linear_12956_17917" x1="133.518" y1="211.728" x2="133.518" y2="215.986" gradientUnits="userSpaceOnUse">
<stop stop-color="#00B39F"/>
<stop offset="1" stop-color="#00D3A9" stop-opacity="0.75"/>
</linearGradient>
<linearGradient id="paint13_linear_12956_17917" x1="133.52" y1="223.934" x2="133.52" y2="229.61" gradientUnits="userSpaceOnUse">
<stop stop-color="#00B39F"/>
<stop offset="1" stop-color="#00D3A9" stop-opacity="0.75"/>
</linearGradient>
<linearGradient id="paint14_linear_12956_17917" x1="31.8584" y1="223.934" x2="31.8584" y2="228.48" gradientUnits="userSpaceOnUse">
<stop stop-color="#00B39F"/>
<stop offset="1" stop-color="#00D3A9" stop-opacity="0.75"/>
</linearGradient>
<linearGradient id="paint15_linear_12956_17917" x1="141.12" y1="223.934" x2="141.12" y2="228.48" gradientUnits="userSpaceOnUse">
<stop stop-color="#00B39F"/>
<stop offset="1" stop-color="#00D3A9" stop-opacity="0.75"/>
</linearGradient>
<linearGradient id="paint16_linear_12956_17917" x1="245.245" y1="223.934" x2="245.245" y2="228.48" gradientUnits="userSpaceOnUse">
<stop stop-color="#00B39F"/>
<stop offset="1" stop-color="#00D3A9" stop-opacity="0.75"/>
</linearGradient>
<clipPath id="clip0_12956_17917">
<rect x="37.3359" y="156.971" width="45.4665" height="37.6246" rx="1" fill="white"/>
</clipPath>
<clipPath id="clip1_12956_17917">
<rect x="113.969" y="156.972" width="45.4665" height="37.6246" rx="1" fill="white"/>
</clipPath>
<clipPath id="clip2_12956_17917">
<rect x="191.213" y="156.971" width="45.4665" height="37.6246" rx="1" fill="white"/>
</clipPath>
</defs>
</svg>
