<svg width="236" height="223" viewBox="0 0 236 223" fill="none" xmlns="http://www.w3.org/2000/svg">
<path d="M218.912 133.95L182.488 97.525C178.375 100.267 173.969 102.323 169.269 103.694C164.569 105.065 159.575 105.75 154.287 105.75C139.796 105.75 127.458 100.611 117.275 90.334C107.092 80.0488 102 67.5625 102 52.875C102 38.1875 107.143 25.7012 117.428 15.416C127.705 5.13867 140.188 0 154.875 0C169.563 0 182.049 5.13867 192.334 15.416C202.611 25.7012 207.75 38.1875 207.75 52.875C207.75 58.1625 206.967 63.2542 205.4 68.15C203.833 73.0458 201.875 77.55 199.525 81.6625L235.363 117.5L218.912 133.95ZM154.875 82.25C163.1 82.25 170.052 79.4104 175.731 73.7312C181.41 68.0521 184.25 61.1 184.25 52.875C184.25 44.65 181.41 37.6979 175.731 32.0188C170.052 26.3396 163.1 23.5 154.875 23.5C146.65 23.5 139.698 26.3396 134.019 32.0188C128.34 37.6979 125.5 44.65 125.5 52.875C125.5 61.1 128.34 68.0521 134.019 73.7312C139.698 79.4104 146.65 82.25 154.875 82.25Z" fill="url(#paint0_linear_12880_17783)"/>
<path d="M218.912 133.95L182.488 97.525C178.375 100.267 173.969 102.323 169.269 103.694C164.569 105.065 159.575 105.75 154.287 105.75C139.796 105.75 127.458 100.611 117.275 90.334C107.092 80.0488 102 67.5625 102 52.875C102 38.1875 107.143 25.7012 117.428 15.416C127.705 5.13867 140.188 0 154.875 0C169.563 0 182.049 5.13867 192.334 15.416C202.611 25.7012 207.75 38.1875 207.75 52.875C207.75 58.1625 206.967 63.2542 205.4 68.15C203.833 73.0458 201.875 77.55 199.525 81.6625L235.363 117.5L218.912 133.95ZM154.875 82.25C163.1 82.25 170.052 79.4104 175.731 73.7312C181.41 68.0521 184.25 61.1 184.25 52.875C184.25 44.65 181.41 37.6979 175.731 32.0188C170.052 26.3396 163.1 23.5 154.875 23.5C146.65 23.5 139.698 26.3396 134.019 32.0188C128.34 37.6979 125.5 44.65 125.5 52.875C125.5 61.1 128.34 68.0521 134.019 73.7312C139.698 79.4104 146.65 82.25 154.875 82.25Z" fill="url(#paint1_linear_12880_17783)"/>
<defs>
<linearGradient id="paint0_linear_12880_17783" x1="168.681" y1="0" x2="168.681" y2="133.95" gradientUnits="userSpaceOnUse">
<stop stop-color="#00B39F"/>
<stop offset="1" stop-color="#00D3A9" stop-opacity="0.75"/>
</linearGradient>
<linearGradient id="paint1_linear_12880_17783" x1="168.681" y1="0" x2="168.681" y2="133.95" gradientUnits="userSpaceOnUse">
<stop stop-color="#00B39F"/>
<stop offset="1" stop-color="#00D3A9" stop-opacity="0.75"/>
</linearGradient>
</defs>
</svg>
