<svg width="326" height="163" viewBox="0 0 326 163" fill="none" xmlns="http://www.w3.org/2000/svg">
<path fill-rule="evenodd" clip-rule="evenodd" d="M215.176 145.653C213.442 145.653 211.779 146.343 210.552 147.57C209.326 148.798 208.637 150.462 208.637 152.198C208.637 153.934 209.326 155.599 210.552 156.826C211.779 158.054 213.442 158.744 215.176 158.744C216.036 158.745 216.888 158.577 217.682 158.249C218.477 157.92 219.199 157.439 219.808 156.831C220.416 156.223 220.899 155.501 221.229 154.706C221.558 153.911 221.728 153.059 221.728 152.198C221.728 151.338 221.558 150.486 221.229 149.691C220.899 148.896 220.416 148.174 219.808 147.566C219.199 146.958 218.477 146.476 217.682 146.148C216.888 145.82 216.036 145.651 215.176 145.653Z" fill="url(#paint0_linear_12956_18087)"/>
<path fill-rule="evenodd" clip-rule="evenodd" d="M110.462 145.653C109.602 145.651 108.75 145.82 107.956 146.148C107.161 146.476 106.438 146.958 105.83 147.566C105.221 148.174 104.739 148.896 104.409 149.691C104.08 150.486 103.91 151.338 103.91 152.198C103.91 153.059 104.08 153.911 104.409 154.706C104.739 155.501 105.221 156.223 105.83 156.831C106.438 157.439 107.161 157.92 107.956 158.249C108.75 158.577 109.602 158.745 110.462 158.744C112.196 158.744 113.859 158.054 115.086 156.826C116.312 155.599 117.001 153.934 117.001 152.198C117.001 150.462 116.312 148.798 115.086 147.57C113.859 146.343 112.196 145.653 110.462 145.653Z" fill="url(#paint1_linear_12956_18087)"/>
<path fill-rule="evenodd" clip-rule="evenodd" d="M198.361 108.032C196.787 108.144 195.306 108.82 194.191 109.936C192.963 111.164 192.273 112.828 192.273 114.564C192.273 116.299 192.963 117.964 194.191 119.191C195.418 120.418 197.083 121.108 198.819 121.108C200.555 121.108 202.22 120.418 203.447 119.191C204.675 117.964 205.364 116.299 205.364 114.564C205.364 112.828 204.675 111.164 203.447 109.936C202.785 109.273 201.988 108.761 201.111 108.432C200.233 108.104 199.296 107.967 198.361 108.032Z" fill="url(#paint2_linear_12956_18087)"/>
<path fill-rule="evenodd" clip-rule="evenodd" d="M126.349 108.033C124.779 108.147 123.303 108.823 122.191 109.937C120.963 111.164 120.273 112.829 120.273 114.564C120.273 116.299 120.963 117.964 122.191 119.191C123.418 120.418 125.083 121.108 126.819 121.108C128.555 121.108 130.22 120.418 131.447 119.191C132.675 117.964 133.364 116.299 133.364 114.564C133.364 112.829 132.675 111.164 131.447 109.937C130.784 109.273 129.985 108.759 129.105 108.43C128.226 108.102 127.286 107.966 126.349 108.033Z" fill="url(#paint3_linear_12956_18087)"/>
<path fill-rule="evenodd" clip-rule="evenodd" d="M162.819 93.2891C161.083 93.2892 159.418 93.979 158.191 95.2064C156.963 96.4339 156.274 98.0986 156.273 99.8345C156.274 101.57 156.963 103.235 158.191 104.463C159.418 105.69 161.083 106.38 162.819 106.38C164.555 106.38 166.22 105.69 167.447 104.463C168.674 103.235 169.364 101.57 169.364 99.8345C169.364 98.0986 168.674 96.4339 167.447 95.2064C166.22 93.979 164.555 93.2892 162.819 93.2891Z" fill="url(#paint4_linear_12956_18087)"/>
<path d="M252.818 158.744C252.818 134.874 243.336 111.982 226.458 95.104C209.58 78.2258 186.688 68.7437 162.818 68.7437C138.949 68.7437 116.057 78.2258 99.1788 95.104C82.3005 111.982 72.8184 134.874 72.8184 158.744L82.6365 158.744C82.6365 139.488 91.112 117.541 104.727 103.925C118.343 90.31 141.109 79.38 160.364 79.38C179.619 79.38 203.203 87.0373 216.818 100.653C230.434 114.268 243.818 139.488 243.818 158.744L252.818 158.744Z" fill="url(#paint5_linear_12956_18087)"/>
<path d="M164.357 113.868C163.973 113.47 163.34 113.459 162.943 113.842L156.462 120.087C156.064 120.47 156.053 121.103 156.436 121.501C156.819 121.898 157.452 121.91 157.85 121.527L163.61 115.976L169.162 121.736C169.545 122.134 170.178 122.146 170.575 121.763C170.973 121.379 170.985 120.746 170.602 120.349L164.357 113.868ZM163.818 158.762L164.636 114.58L162.637 114.543L161.819 158.725L163.818 158.762Z" fill="#00D3A9"/>
<path d="M185.091 137.471C185.091 136.919 184.643 136.471 184.091 136.471H175.091C174.539 136.471 174.091 136.919 174.091 137.471C174.091 138.023 174.539 138.471 175.091 138.471H183.091V146.471C183.091 147.023 183.539 147.471 184.091 147.471C184.643 147.471 185.091 147.023 185.091 146.471V137.471ZM163.525 159.451L184.798 138.178L183.384 136.764L162.111 158.037L163.525 159.451Z" fill="#00D3A9"/>
<circle cx="162.818" cy="158.743" r="3.27273" fill="url(#paint6_linear_12956_18087)"/>
<defs>
<linearGradient id="paint0_linear_12956_18087" x1="215.182" y1="145.653" x2="215.182" y2="158.744" gradientUnits="userSpaceOnUse">
<stop stop-color="#00B39F"/>
<stop offset="1" stop-color="#00D3A9" stop-opacity="0.75"/>
</linearGradient>
<linearGradient id="paint1_linear_12956_18087" x1="110.456" y1="145.653" x2="110.456" y2="158.744" gradientUnits="userSpaceOnUse">
<stop stop-color="#00B39F"/>
<stop offset="1" stop-color="#00D3A9" stop-opacity="0.75"/>
</linearGradient>
<linearGradient id="paint2_linear_12956_18087" x1="198.819" y1="108.017" x2="198.819" y2="121.108" gradientUnits="userSpaceOnUse">
<stop stop-color="#00B39F"/>
<stop offset="1" stop-color="#00D3A9" stop-opacity="0.75"/>
</linearGradient>
<linearGradient id="paint3_linear_12956_18087" x1="126.819" y1="108.017" x2="126.819" y2="121.108" gradientUnits="userSpaceOnUse">
<stop stop-color="#00B39F"/>
<stop offset="1" stop-color="#00D3A9" stop-opacity="0.75"/>
</linearGradient>
<linearGradient id="paint4_linear_12956_18087" x1="162.819" y1="93.2891" x2="162.819" y2="106.38" gradientUnits="userSpaceOnUse">
<stop stop-color="#00B39F"/>
<stop offset="1" stop-color="#00D3A9" stop-opacity="0.75"/>
</linearGradient>
<linearGradient id="paint5_linear_12956_18087" x1="162.818" y1="68.7437" x2="162.818" y2="158.744" gradientUnits="userSpaceOnUse">
<stop stop-color="#00B39F"/>
<stop offset="1" stop-color="#00D3A9" stop-opacity="0.75"/>
</linearGradient>
<linearGradient id="paint6_linear_12956_18087" x1="162.818" y1="155.471" x2="162.818" y2="162.016" gradientUnits="userSpaceOnUse">
<stop stop-color="#00B39F"/>
<stop offset="1" stop-color="#00D3A9" stop-opacity="0.75"/>
</linearGradient>
</defs>
</svg>
