<svg width="608" height="856" viewBox="0 0 608 856" fill="none" xmlns="http://www.w3.org/2000/svg">
<path d="M30.5475 3.5H577.556C590.814 3.5 600.585 15.8942 597.49 28.7855L403.513 836.786C401.301 846.002 393.058 852.5 383.58 852.5H305.5H227.356C217.903 852.5 209.675 846.036 207.438 836.851L10.6298 28.8514C7.48572 15.9433 17.262 3.5 30.5475 3.5Z" stroke="url(#paint0_linear_12862_17991)" stroke-width="7"/>
<path d="M154.56 64H152.53H149.52C148.68 64 148.12 64.35 147.77 65.12L133.14 97.32L118.51 65.12C118.16 64.35 117.6 64 116.76 64H115.22H111.72C110.74 64 110.25 64.56 110.25 65.54V111.53C110.25 112.51 110.74 113 111.72 113H115.22C116.2 113 116.69 112.51 116.69 111.53V74.78L129.85 103.62C130.2 104.46 130.76 104.74 131.53 104.74H134.75C135.59 104.74 136.08 104.46 136.43 103.62L149.59 74.78V111.53C149.59 112.51 150.15 113 151.06 113H154.56C155.54 113 156.1 112.51 156.1 111.53V65.54C156.1 64.56 155.54 64 154.56 64ZM191.778 78H188.628C187.718 78 187.158 78.56 187.158 79.54V97.95C187.158 105.51 182.818 108.1 178.408 108.1C174.278 108.1 171.198 105.51 171.198 100.54V79.54C171.198 78.56 170.638 78 169.658 78H166.578C165.598 78 165.108 78.56 165.108 79.54V100.75C165.108 108.94 170.288 113.91 176.798 113.91C180.998 113.91 184.638 112.51 187.158 108.73V111.53C187.158 112.51 187.648 113 188.628 113H191.778C192.688 113 193.248 112.51 193.248 111.53V79.54C193.248 78.56 192.688 78 191.778 78ZM204.059 113H207.209C208.119 113 208.679 112.51 208.679 111.53V64.14C208.679 63.16 208.119 62.6 207.209 62.6H204.059C203.079 62.6 202.589 63.16 202.589 64.14V111.53C202.589 112.51 203.079 113 204.059 113ZM233.02 78H227.63V68.34C227.63 67.36 227.14 66.8 226.16 66.8H223.01C222.1 66.8 221.54 67.36 221.54 68.34V78H216.15C215.17 78 214.61 78.56 214.61 79.54V82.41C214.61 83.39 215.17 83.88 216.15 83.88H221.54V111.53C221.54 112.51 222.1 113 223.01 113H226.16C227.14 113 227.63 112.51 227.63 111.53V83.88H233.02C234 83.88 234.49 83.39 234.49 82.41V79.54C234.49 78.56 234 78 233.02 78ZM241.93 71.7H245.08C245.99 71.7 246.55 71.21 246.55 70.23V65.54C246.55 64.56 245.99 64 245.08 64H241.93C240.95 64 240.46 64.56 240.46 65.54V70.23C240.46 71.21 240.95 71.7 241.93 71.7ZM241.93 113H245.08C245.99 113 246.55 112.51 246.55 111.53V79.54C246.55 78.56 245.99 78 245.08 78H241.93C240.95 78 240.46 78.56 240.46 79.54V111.53C240.46 112.51 240.95 113 241.93 113ZM296.931 113.91C307.431 113.91 316.461 107.61 319.681 98.51C320.031 97.6 319.471 96.9 318.421 96.9H314.501C313.731 96.9 313.171 97.32 312.751 98.09C310.161 103.83 304.001 107.61 296.931 107.61C285.521 107.61 277.821 99.28 277.821 88.5C277.821 77.79 285.521 69.46 296.931 69.46C304.001 69.46 310.161 73.24 312.751 78.98C313.171 79.75 313.731 80.1 314.501 80.1H318.421C319.471 80.1 319.961 79.47 319.681 78.42C316.391 69.39 307.361 63.16 296.931 63.16C281.951 63.16 271.311 74.43 271.311 88.5C271.311 102.64 281.951 113.91 296.931 113.91ZM328.063 113H331.213C332.123 113 332.683 112.51 332.683 111.53V64.14C332.683 63.16 332.123 62.6 331.213 62.6H328.063C327.083 62.6 326.593 63.16 326.593 64.14V111.53C326.593 112.51 327.083 113 328.063 113ZM367.804 78H364.654C363.744 78 363.184 78.56 363.184 79.54V97.95C363.184 105.51 358.844 108.1 354.434 108.1C350.304 108.1 347.224 105.51 347.224 100.54V79.54C347.224 78.56 346.664 78 345.684 78H342.604C341.624 78 341.134 78.56 341.134 79.54V100.75C341.134 108.94 346.314 113.91 352.824 113.91C357.024 113.91 360.664 112.51 363.184 108.73V111.53C363.184 112.51 363.674 113 364.654 113H367.804C368.714 113 369.274 112.51 369.274 111.53V79.54C369.274 78.56 368.714 78 367.804 78ZM383.654 87.52C383.654 84.23 386.874 82.76 390.304 82.76C393.244 82.76 396.114 83.95 396.744 87.1C397.024 88.01 397.444 88.5 398.284 88.5H401.364C402.344 88.5 402.974 88.01 402.834 86.96C402.134 80.66 396.884 77.16 390.304 77.16C383.164 77.16 377.564 81.22 377.564 87.52C377.564 100.75 397.584 95.57 397.584 103.55C397.584 106.84 394.364 108.24 390.304 108.24C386.804 108.24 383.794 107.12 383.164 103.9C382.884 103.06 382.464 102.57 381.554 102.57H378.474C377.564 102.57 376.934 103.06 377.004 104.11C377.774 110.34 383.094 113.91 390.304 113.91C398.074 113.91 403.674 109.85 403.674 103.55C403.674 90.32 383.654 95.5 383.654 87.52ZM425.588 78H420.198V68.34C420.198 67.36 419.708 66.8 418.728 66.8H415.578C414.668 66.8 414.108 67.36 414.108 68.34V78H408.718C407.738 78 407.178 78.56 407.178 79.54V82.41C407.178 83.39 407.738 83.88 408.718 83.88H414.108V111.53C414.108 112.51 414.668 113 415.578 113H418.728C419.708 113 420.198 112.51 420.198 111.53V83.88H425.588C426.568 83.88 427.058 83.39 427.058 82.41V79.54C427.058 78.56 426.568 78 425.588 78ZM447.898 77.16C436.978 77.16 429.768 85.21 429.768 95.5C429.768 106.07 437.048 113.91 447.968 113.91C455.108 113.91 460.848 110.34 463.298 104.81C463.718 103.9 463.158 103.27 462.038 103.27H458.678C457.838 103.27 457.348 103.62 456.858 104.25C455.248 106.7 452.098 108.45 448.038 108.45C441.878 108.45 437.118 104.74 436.068 98.3H458.888H463.438C464.348 98.3 464.978 97.88 465.048 96.9C465.048 96.48 465.048 96.06 465.048 95.64C465.048 85.77 458.468 77.16 447.898 77.16ZM436.068 92.98C436.978 86.89 441.388 82.83 447.898 82.83C453.148 82.83 457.978 86.12 458.888 92.98H436.068ZM486.908 77.51C483.268 77.86 479.978 79.47 477.878 83.32V79.54C477.878 78.56 477.318 78.07 476.408 78.07H473.258C472.278 78.07 471.788 78.56 471.788 79.54V111.53C471.788 112.51 472.278 113.07 473.258 113.07H476.408C477.318 113.07 477.878 112.51 477.878 111.53V94.31C477.878 86.75 482.498 83.95 487.398 83.74C488.028 83.74 488.448 83.18 488.448 82.27V78.98C488.448 78 487.888 77.44 486.908 77.51Z" fill="#666666"/>
<path d="M226.195 237.845C235.945 237.845 244.33 231.995 247.32 223.545C247.645 222.7 247.125 222.05 246.15 222.05H242.51C241.795 222.05 241.275 222.44 240.885 223.155C238.48 228.485 232.76 231.995 226.195 231.995C215.6 231.995 208.45 224.26 208.45 214.25C208.45 204.305 215.6 196.57 226.195 196.57C232.76 196.57 238.48 200.08 240.885 205.41C241.275 206.125 241.795 206.45 242.51 206.45H246.15C247.125 206.45 247.58 205.865 247.32 204.89C244.265 196.505 235.88 190.72 226.195 190.72C212.285 190.72 202.405 201.185 202.405 214.25C202.405 227.38 212.285 237.845 226.195 237.845ZM255.103 237H258.028C258.873 237 259.393 236.545 259.393 235.635V191.63C259.393 190.72 258.873 190.2 258.028 190.2H255.103C254.193 190.2 253.738 190.72 253.738 191.63V235.635C253.738 236.545 254.193 237 255.103 237ZM292.005 204.5H289.08C288.235 204.5 287.715 205.02 287.715 205.93V223.025C287.715 230.045 283.685 232.45 279.59 232.45C275.755 232.45 272.895 230.045 272.895 225.43V205.93C272.895 205.02 272.375 204.5 271.465 204.5H268.605C267.695 204.5 267.24 205.02 267.24 205.93V225.625C267.24 233.23 272.05 237.845 278.095 237.845C281.995 237.845 285.375 236.545 287.715 233.035V235.635C287.715 236.545 288.17 237 289.08 237H292.005C292.85 237 293.37 236.545 293.37 235.635V205.93C293.37 205.02 292.85 204.5 292.005 204.5ZM306.724 213.34C306.724 210.285 309.714 208.92 312.899 208.92C315.629 208.92 318.294 210.025 318.879 212.95C319.139 213.795 319.529 214.25 320.309 214.25H323.169C324.079 214.25 324.664 213.795 324.534 212.82C323.884 206.97 319.009 203.72 312.899 203.72C306.269 203.72 301.069 207.49 301.069 213.34C301.069 225.625 319.659 220.815 319.659 228.225C319.659 231.28 316.669 232.58 312.899 232.58C309.649 232.58 306.854 231.54 306.269 228.55C306.009 227.77 305.619 227.315 304.774 227.315H301.914C301.069 227.315 300.484 227.77 300.549 228.745C301.264 234.53 306.204 237.845 312.899 237.845C320.114 237.845 325.314 234.075 325.314 228.225C325.314 215.94 306.724 220.75 306.724 213.34ZM345.662 204.5H340.657V195.53C340.657 194.62 340.202 194.1 339.292 194.1H336.367C335.522 194.1 335.002 194.62 335.002 195.53V204.5H329.997C329.087 204.5 328.567 205.02 328.567 205.93V208.595C328.567 209.505 329.087 209.96 329.997 209.96H335.002V235.635C335.002 236.545 335.522 237 336.367 237H339.292C340.202 237 340.657 236.545 340.657 235.635V209.96H345.662C346.572 209.96 347.027 209.505 347.027 208.595V205.93C347.027 205.02 346.572 204.5 345.662 204.5ZM366.379 203.72C356.239 203.72 349.544 211.195 349.544 220.75C349.544 230.565 356.304 237.845 366.444 237.845C373.074 237.845 378.404 234.53 380.679 229.395C381.069 228.55 380.549 227.965 379.509 227.965H376.389C375.609 227.965 375.154 228.29 374.699 228.875C373.204 231.15 370.279 232.775 366.509 232.775C360.789 232.775 356.369 229.33 355.394 223.35H376.584H380.809C381.654 223.35 382.239 222.96 382.304 222.05C382.304 221.66 382.304 221.27 382.304 220.88C382.304 211.715 376.194 203.72 366.379 203.72ZM355.394 218.41C356.239 212.755 360.334 208.985 366.379 208.985C371.254 208.985 375.739 212.04 376.584 218.41H355.394ZM402.602 204.045C399.222 204.37 396.167 205.865 394.217 209.44V205.93C394.217 205.02 393.697 204.565 392.852 204.565H389.927C389.017 204.565 388.562 205.02 388.562 205.93V235.635C388.562 236.545 389.017 237.065 389.927 237.065H392.852C393.697 237.065 394.217 236.545 394.217 235.635V219.645C394.217 212.625 398.507 210.025 403.057 209.83C403.642 209.83 404.032 209.31 404.032 208.465V205.41C404.032 204.5 403.512 203.98 402.602 204.045Z" fill="#666666"/>
<path d="M245.02 310.32V340.08L226.48 309.84C226.18 309.3 225.64 309 224.98 309H222.76C221.92 309 221.5 309.48 221.5 310.32V349.74C221.5 350.58 221.92 351 222.76 351H225.76C226.6 351 227.02 350.58 227.02 349.74V319.98L245.56 350.22C245.86 350.76 246.4 351 247.12 351H249.28C250.12 351 250.6 350.58 250.6 349.74V310.32C250.6 309.48 250.12 309 249.28 309H246.28C245.5 309 245.02 309.48 245.02 310.32ZM273.146 351.78C281.906 351.78 288.926 344.94 288.926 336C288.926 327.12 281.906 320.28 273.146 320.28C264.326 320.28 257.306 327.12 257.306 336C257.306 344.94 264.326 351.78 273.146 351.78ZM273.146 346.68C267.146 346.68 262.526 342.06 262.526 336C262.526 329.94 267.146 325.32 273.146 325.32C279.086 325.32 283.706 329.94 283.706 336C283.706 342.06 279.086 346.68 273.146 346.68ZM323.88 309H321.18C320.4 309 319.92 309.48 319.92 310.32V326.1C317.52 322.5 313.68 320.28 308.58 320.28C300.3 320.28 293.4 327.12 293.4 336C293.4 344.94 300.3 351.78 308.58 351.78C313.68 351.78 317.52 349.56 319.92 345.96V349.74C319.92 350.58 320.4 351 321.18 351H323.88C324.72 351 325.14 350.58 325.14 349.74V310.32C325.14 309.48 324.72 309 323.88 309ZM309.3 346.74C303.24 346.74 298.62 342.12 298.62 336C298.62 329.88 303.24 325.26 309.3 325.26C315.3 325.26 319.92 329.88 319.92 336C319.92 342.12 315.3 346.74 309.3 346.74ZM346.908 320.28C337.548 320.28 331.368 327.18 331.368 336C331.368 345.06 337.608 351.78 346.968 351.78C353.088 351.78 358.008 348.72 360.108 343.98C360.468 343.2 359.988 342.66 359.028 342.66H356.148C355.428 342.66 355.008 342.96 354.588 343.5C353.208 345.6 350.508 347.1 347.028 347.1C341.748 347.1 337.668 343.92 336.768 338.4H356.328H360.228C361.008 338.4 361.548 338.04 361.608 337.2C361.608 336.84 361.608 336.48 361.608 336.12C361.608 327.66 355.968 320.28 346.908 320.28ZM336.768 333.84C337.548 328.62 341.328 325.14 346.908 325.14C351.408 325.14 355.548 327.96 356.328 333.84H336.768ZM371.706 329.16C371.706 326.34 374.466 325.08 377.406 325.08C379.926 325.08 382.386 326.1 382.926 328.8C383.166 329.58 383.526 330 384.246 330H386.886C387.726 330 388.266 329.58 388.146 328.68C387.546 323.28 383.046 320.28 377.406 320.28C371.286 320.28 366.486 323.76 366.486 329.16C366.486 340.5 383.646 336.06 383.646 342.9C383.646 345.72 380.886 346.92 377.406 346.92C374.406 346.92 371.826 345.96 371.286 343.2C371.046 342.48 370.686 342.06 369.906 342.06H367.266C366.486 342.06 365.946 342.48 366.006 343.38C366.666 348.72 371.226 351.78 377.406 351.78C384.066 351.78 388.866 348.3 388.866 342.9C388.866 331.56 371.706 336 371.706 329.16Z" fill="#666666"/>
<path d="M175.685 426.71V453.99L158.69 426.27C158.415 425.775 157.92 425.5 157.315 425.5H155.28C154.51 425.5 154.125 425.94 154.125 426.71V462.845C154.125 463.615 154.51 464 155.28 464H158.03C158.8 464 159.185 463.615 159.185 462.845V435.565L176.18 463.285C176.455 463.78 176.95 464 177.61 464H179.59C180.36 464 180.8 463.615 180.8 462.845V426.71C180.8 425.94 180.36 425.5 179.59 425.5H176.84C176.125 425.5 175.685 425.94 175.685 426.71ZM198.827 435.84C193.107 435.84 188.817 439.085 188.157 444.09C188.102 444.915 188.597 445.3 189.312 445.3H191.732C192.447 445.3 192.777 444.915 192.997 444.255C193.492 441.67 195.967 440.35 198.827 440.35C202.017 440.35 204.767 442.055 204.767 446.4V450.305C203.007 448.325 200.092 447.115 196.627 447.115C191.622 447.115 186.947 450.03 186.947 455.915C186.947 461.8 191.622 464.715 196.627 464.715C200.092 464.715 203.007 463.56 204.767 461.195V462.845C204.767 463.615 205.207 464 205.922 464H208.342C209.112 464 209.497 463.615 209.497 462.845V446.29C209.497 439.635 204.932 435.84 198.827 435.84ZM198.002 460.7C193.712 460.7 191.732 458.665 191.732 455.915C191.732 453.165 193.712 451.13 198.002 451.13C201.962 451.13 204.767 453 204.767 455.915C204.767 458.665 201.962 460.7 198.002 460.7ZM243.1 435.84C240.02 435.84 237.215 436.94 235.18 440.13C233.695 437.325 231 435.84 228.03 435.84C225.39 435.84 222.805 436.83 220.935 439.525V437.71C220.935 436.94 220.495 436.5 219.78 436.5H217.305C216.535 436.5 216.15 436.94 216.15 437.71V462.845C216.15 463.615 216.535 464 217.305 464H219.78C220.495 464 220.935 463.615 220.935 462.845V447.28C220.935 441.89 224.29 440.35 226.765 440.35C229.35 440.35 231.55 441.835 231.55 445.685V462.845C231.55 463.615 231.99 464 232.705 464H235.18C235.95 464 236.335 463.615 236.335 462.845V447.28C236.335 441.89 239.69 440.35 242.165 440.35C244.75 440.35 246.95 441.835 246.95 445.685V462.845C246.95 463.615 247.39 464 248.16 464H250.58C251.35 464 251.735 463.615 251.735 462.845V445.465C251.735 439.14 247.94 435.84 243.1 435.84ZM271.016 435.84C262.436 435.84 256.771 442.165 256.771 450.25C256.771 458.555 262.491 464.715 271.071 464.715C276.681 464.715 281.191 461.91 283.116 457.565C283.446 456.85 283.006 456.355 282.126 456.355H279.486C278.826 456.355 278.441 456.63 278.056 457.125C276.791 459.05 274.316 460.425 271.126 460.425C266.286 460.425 262.546 457.51 261.721 452.45H279.651H283.226C283.941 452.45 284.436 452.12 284.491 451.35C284.491 451.02 284.491 450.69 284.491 450.36C284.491 442.605 279.321 435.84 271.016 435.84ZM261.721 448.27C262.436 443.485 265.901 440.295 271.016 440.295C275.141 440.295 278.936 442.88 279.651 448.27H261.721ZM293.747 443.98C293.747 441.395 296.277 440.24 298.972 440.24C301.282 440.24 303.537 441.175 304.032 443.65C304.252 444.365 304.582 444.75 305.242 444.75H307.662C308.432 444.75 308.927 444.365 308.817 443.54C308.267 438.59 304.142 435.84 298.972 435.84C293.362 435.84 288.962 439.03 288.962 443.98C288.962 454.375 304.692 450.305 304.692 456.575C304.692 459.16 302.162 460.26 298.972 460.26C296.222 460.26 293.857 459.38 293.362 456.85C293.142 456.19 292.812 455.805 292.097 455.805H289.677C288.962 455.805 288.467 456.19 288.522 457.015C289.127 461.91 293.307 464.715 298.972 464.715C305.077 464.715 309.477 461.525 309.477 456.575C309.477 446.18 293.747 450.25 293.747 443.98ZM330.641 435.84C325.966 435.84 322.446 437.875 320.246 441.175V437.71C320.246 436.94 319.806 436.5 319.091 436.5H316.616C315.846 436.5 315.461 436.94 315.461 437.71V473.845C315.461 474.615 315.846 475 316.616 475H319.091C319.806 475 320.246 474.615 320.246 473.845V459.38C322.446 462.68 325.966 464.715 330.641 464.715C338.231 464.715 344.556 458.445 344.556 450.25C344.556 442.11 338.231 435.84 330.641 435.84ZM329.981 460.095C324.481 460.095 320.246 455.86 320.246 450.25C320.246 444.64 324.481 440.405 329.981 440.405C335.536 440.405 339.771 444.64 339.771 450.25C339.771 455.86 335.536 460.095 329.981 460.095ZM359.96 435.84C354.24 435.84 349.95 439.085 349.29 444.09C349.235 444.915 349.73 445.3 350.445 445.3H352.865C353.58 445.3 353.91 444.915 354.13 444.255C354.625 441.67 357.1 440.35 359.96 440.35C363.15 440.35 365.9 442.055 365.9 446.4V450.305C364.14 448.325 361.225 447.115 357.76 447.115C352.755 447.115 348.08 450.03 348.08 455.915C348.08 461.8 352.755 464.715 357.76 464.715C361.225 464.715 364.14 463.56 365.9 461.195V462.845C365.9 463.615 366.34 464 367.055 464H369.475C370.245 464 370.63 463.615 370.63 462.845V446.29C370.63 439.635 366.065 435.84 359.96 435.84ZM359.135 460.7C354.845 460.7 352.865 458.665 352.865 455.915C352.865 453.165 354.845 451.13 359.135 451.13C363.095 451.13 365.9 453 365.9 455.915C365.9 458.665 363.095 460.7 359.135 460.7ZM402.197 454.815H399.502C398.842 454.815 398.402 455.09 398.072 455.695C396.642 458.335 393.672 460.04 390.207 460.04C384.707 460.04 380.472 455.805 380.472 450.25C380.472 444.75 384.707 440.515 390.207 440.515C393.672 440.515 396.587 442.165 398.072 444.86C398.402 445.465 398.842 445.74 399.502 445.74H402.197C403.022 445.74 403.462 445.19 403.132 444.42C401.207 439.305 396.147 435.84 390.207 435.84C381.847 435.84 375.687 442.11 375.687 450.25C375.687 458.445 381.847 464.715 390.207 464.715C396.147 464.715 401.262 461.25 403.132 456.135C403.462 455.31 403.022 454.815 402.197 454.815ZM421.353 435.84C412.773 435.84 407.108 442.165 407.108 450.25C407.108 458.555 412.828 464.715 421.408 464.715C427.018 464.715 431.528 461.91 433.453 457.565C433.783 456.85 433.343 456.355 432.463 456.355H429.823C429.163 456.355 428.778 456.63 428.393 457.125C427.128 459.05 424.653 460.425 421.463 460.425C416.623 460.425 412.883 457.51 412.058 452.45H429.988H433.563C434.278 452.45 434.773 452.12 434.828 451.35C434.828 451.02 434.828 450.69 434.828 450.36C434.828 442.605 429.658 435.84 421.353 435.84ZM412.058 448.27C412.773 443.485 416.238 440.295 421.353 440.295C425.478 440.295 429.273 442.88 429.988 448.27H412.058ZM444.084 443.98C444.084 441.395 446.614 440.24 449.309 440.24C451.619 440.24 453.874 441.175 454.369 443.65C454.589 444.365 454.919 444.75 455.579 444.75H457.999C458.769 444.75 459.264 444.365 459.154 443.54C458.604 438.59 454.479 435.84 449.309 435.84C443.699 435.84 439.299 439.03 439.299 443.98C439.299 454.375 455.029 450.305 455.029 456.575C455.029 459.16 452.499 460.26 449.309 460.26C446.559 460.26 444.194 459.38 443.699 456.85C443.479 456.19 443.149 455.805 442.434 455.805H440.014C439.299 455.805 438.804 456.19 438.859 457.015C439.464 461.91 443.644 464.715 449.309 464.715C455.414 464.715 459.814 461.525 459.814 456.575C459.814 446.18 444.084 450.25 444.084 443.98Z" fill="#666666"/>
<path d="M231.85 542H229.35C228.75 542 228.35 542.35 228.2 542.95L219.6 571.75L211 542.95C210.85 542.35 210.4 542 209.8 542H207.6C206.85 542 206.5 542.5 206.7 543.25L209.6 552.8L203.85 571.75L195.25 542.95C195.1 542.35 194.7 542 194.1 542H191.6C190.85 542 190.5 542.5 190.7 543.25L200.7 576.1C200.85 576.7 201.25 577 201.85 577H205.65C206.2 577 206.65 576.7 206.8 576.1L211.75 559.9L216.65 576.1C216.8 576.7 217.25 577 217.85 577H221.6C222.2 577 222.6 576.7 222.8 576.1L232.75 543.25C232.95 542.5 232.6 542 231.85 542ZM245.821 577.65C253.121 577.65 258.971 571.95 258.971 564.5C258.971 557.1 253.121 551.4 245.821 551.4C238.471 551.4 232.621 557.1 232.621 564.5C232.621 571.95 238.471 577.65 245.821 577.65ZM245.821 573.4C240.821 573.4 236.971 569.55 236.971 564.5C236.971 559.45 240.821 555.6 245.821 555.6C250.771 555.6 254.621 559.45 254.621 564.5C254.621 569.55 250.771 573.4 245.821 573.4ZM274.95 551.65C272.35 551.9 270 553.05 268.5 555.8V553.1C268.5 552.4 268.1 552.05 267.45 552.05H265.2C264.5 552.05 264.15 552.4 264.15 553.1V575.95C264.15 576.65 264.5 577.05 265.2 577.05H267.45C268.1 577.05 268.5 576.65 268.5 575.95V563.65C268.5 558.25 271.8 556.25 275.3 556.1C275.75 556.1 276.05 555.7 276.05 555.05V552.7C276.05 552 275.65 551.6 274.95 551.65ZM300.013 575.7L288.963 564.15L299.513 553.35C300.163 552.65 299.913 552 298.963 552H296.113C295.563 552 295.213 552.2 294.863 552.6L284.613 563.1V543.1C284.613 542.4 284.213 542 283.563 542H281.313C280.613 542 280.263 542.4 280.263 543.1V575.95C280.263 576.65 280.613 577 281.313 577H283.563C284.213 577 284.613 576.65 284.613 575.95V565.2L295.363 576.45C295.713 576.85 296.063 577 296.613 577H299.463C300.413 577 300.663 576.35 300.013 575.7ZM306.411 577H308.661C309.311 577 309.711 576.65 309.711 575.95V542.1C309.711 541.4 309.311 541 308.661 541H306.411C305.711 541 305.361 541.4 305.361 542.1V575.95C305.361 576.65 305.711 577 306.411 577ZM328.097 577.65C335.397 577.65 341.247 571.95 341.247 564.5C341.247 557.1 335.397 551.4 328.097 551.4C320.747 551.4 314.897 557.1 314.897 564.5C314.897 571.95 320.747 577.65 328.097 577.65ZM328.097 573.4C323.097 573.4 319.247 569.55 319.247 564.5C319.247 559.45 323.097 555.6 328.097 555.6C333.047 555.6 336.897 559.45 336.897 564.5C336.897 569.55 333.047 573.4 328.097 573.4ZM355.238 551.4C350.038 551.4 346.138 554.35 345.538 558.9C345.488 559.65 345.938 560 346.588 560H348.788C349.438 560 349.738 559.65 349.938 559.05C350.388 556.7 352.638 555.5 355.238 555.5C358.138 555.5 360.638 557.05 360.638 561V564.55C359.038 562.75 356.388 561.65 353.238 561.65C348.688 561.65 344.438 564.3 344.438 569.65C344.438 575 348.688 577.65 353.238 577.65C356.388 577.65 359.038 576.6 360.638 574.45V575.95C360.638 576.65 361.038 577 361.688 577H363.888C364.588 577 364.938 576.65 364.938 575.95V560.9C364.938 554.85 360.788 551.4 355.238 551.4ZM354.488 574C350.588 574 348.788 572.15 348.788 569.65C348.788 567.15 350.588 565.3 354.488 565.3C358.088 565.3 360.638 567 360.638 569.65C360.638 572.15 358.088 574 354.488 574ZM394.936 542H392.686C392.036 542 391.636 542.4 391.636 543.1V556.25C389.636 553.25 386.436 551.4 382.186 551.4C375.286 551.4 369.536 557.1 369.536 564.5C369.536 571.95 375.286 577.65 382.186 577.65C386.436 577.65 389.636 575.8 391.636 572.8V575.95C391.636 576.65 392.036 577 392.686 577H394.936C395.636 577 395.986 576.65 395.986 575.95V543.1C395.986 542.4 395.636 542 394.936 542ZM382.786 573.45C377.736 573.45 373.886 569.6 373.886 564.5C373.886 559.4 377.736 555.55 382.786 555.55C387.786 555.55 391.636 559.4 391.636 564.5C391.636 569.6 387.786 573.45 382.786 573.45ZM406.226 558.8C406.226 556.45 408.526 555.4 410.976 555.4C413.076 555.4 415.126 556.25 415.576 558.5C415.776 559.15 416.076 559.5 416.676 559.5H418.876C419.576 559.5 420.026 559.15 419.926 558.4C419.426 553.9 415.676 551.4 410.976 551.4C405.876 551.4 401.876 554.3 401.876 558.8C401.876 568.25 416.176 564.55 416.176 570.25C416.176 572.6 413.876 573.6 410.976 573.6C408.476 573.6 406.326 572.8 405.876 570.5C405.676 569.9 405.376 569.55 404.726 569.55H402.526C401.876 569.55 401.426 569.9 401.476 570.65C402.026 575.1 405.826 577.65 410.976 577.65C416.526 577.65 420.526 574.75 420.526 570.25C420.526 560.8 406.226 564.5 406.226 558.8Z" fill="#666666"/>
<path d="M235.735 690.585C241.225 690.585 246.085 687.345 246.085 681.855C246.085 675.735 240.505 674.025 235.825 672.27C232.315 670.92 229.525 669.66 229.525 666.51C229.525 663.675 231.91 662.01 235.105 662.01C238.255 662.01 240.595 663.495 241 666.42C241.045 667.005 241.36 667.32 241.945 667.32H244.24C244.87 667.32 245.185 667.005 245.14 666.33C244.69 660.84 240.145 657.96 235.105 657.96C230.065 657.96 225.34 661.02 225.34 666.51C225.34 672.81 230.695 674.475 235.375 676.23C238.885 677.49 241.945 678.795 241.945 681.855C241.945 684.69 239.38 686.535 235.735 686.535C231.91 686.535 229.21 684.825 228.76 681.63C228.715 681 228.4 680.685 227.815 680.685H225.52C224.89 680.685 224.575 681.045 224.62 681.675C225.07 687.525 230.02 690.585 235.735 690.585ZM261.017 666.96C253.997 666.96 249.362 672.135 249.362 678.75C249.362 685.545 254.042 690.585 261.062 690.585C265.652 690.585 269.342 688.29 270.917 684.735C271.187 684.15 270.827 683.745 270.107 683.745H267.947C267.407 683.745 267.092 683.97 266.777 684.375C265.742 685.95 263.717 687.075 261.107 687.075C257.147 687.075 254.087 684.69 253.412 680.55H268.082H271.007C271.592 680.55 271.997 680.28 272.042 679.65C272.042 679.38 272.042 679.11 272.042 678.84C272.042 672.495 267.812 666.96 261.017 666.96ZM253.412 677.13C253.997 673.215 256.832 670.605 261.017 670.605C264.392 670.605 267.497 672.72 268.082 677.13H253.412ZM286.095 667.185C283.755 667.41 281.64 668.445 280.29 670.92V668.49C280.29 667.86 279.93 667.545 279.345 667.545H277.32C276.69 667.545 276.375 667.86 276.375 668.49V689.055C276.375 689.685 276.69 690.045 277.32 690.045H279.345C279.93 690.045 280.29 689.685 280.29 689.055V677.985C280.29 673.125 283.26 671.325 286.41 671.19C286.815 671.19 287.085 670.83 287.085 670.245V668.13C287.085 667.5 286.725 667.14 286.095 667.185ZM307.977 667.5H305.817C305.277 667.5 304.917 667.77 304.737 668.31L298.707 685.545L292.677 668.31C292.497 667.77 292.092 667.5 291.552 667.5H289.437C288.762 667.5 288.402 667.95 288.627 668.625L296.232 689.235C296.412 689.73 296.772 690 297.312 690H298.302H300.057C300.597 690 300.957 689.775 301.182 689.235L308.742 668.625C308.967 667.95 308.652 667.5 307.977 667.5ZM313.443 663.45H315.468C316.053 663.45 316.413 663.135 316.413 662.505V659.49C316.413 658.86 316.053 658.5 315.468 658.5H313.443C312.813 658.5 312.498 658.86 312.498 659.49V662.505C312.498 663.135 312.813 663.45 313.443 663.45ZM313.443 690H315.468C316.053 690 316.413 689.685 316.413 689.055V668.49C316.413 667.86 316.053 667.5 315.468 667.5H313.443C312.813 667.5 312.498 667.86 312.498 668.49V689.055C312.498 689.685 312.813 690 313.443 690ZM342.771 682.485H340.566C340.026 682.485 339.666 682.71 339.396 683.205C338.226 685.365 335.796 686.76 332.961 686.76C328.461 686.76 324.996 683.295 324.996 678.75C324.996 674.25 328.461 670.785 332.961 670.785C335.796 670.785 338.181 672.135 339.396 674.34C339.666 674.835 340.026 675.06 340.566 675.06H342.771C343.446 675.06 343.806 674.61 343.536 673.98C341.961 669.795 337.821 666.96 332.961 666.96C326.121 666.96 321.081 672.09 321.081 678.75C321.081 685.455 326.121 690.585 332.961 690.585C337.821 690.585 342.006 687.75 343.536 683.565C343.806 682.89 343.446 682.485 342.771 682.485ZM358.444 666.96C351.424 666.96 346.789 672.135 346.789 678.75C346.789 685.545 351.469 690.585 358.489 690.585C363.079 690.585 366.769 688.29 368.344 684.735C368.614 684.15 368.254 683.745 367.534 683.745H365.374C364.834 683.745 364.519 683.97 364.204 684.375C363.169 685.95 361.144 687.075 358.534 687.075C354.574 687.075 351.514 684.69 350.839 680.55H365.509H368.434C369.019 680.55 369.424 680.28 369.469 679.65C369.469 679.38 369.469 679.11 369.469 678.84C369.469 672.495 365.239 666.96 358.444 666.96ZM350.839 677.13C351.424 673.215 354.259 670.605 358.444 670.605C361.819 670.605 364.924 672.72 365.509 677.13H350.839ZM377.042 673.62C377.042 671.505 379.112 670.56 381.317 670.56C383.207 670.56 385.052 671.325 385.457 673.35C385.637 673.935 385.907 674.25 386.447 674.25H388.427C389.057 674.25 389.462 673.935 389.372 673.26C388.922 669.21 385.547 666.96 381.317 666.96C376.727 666.96 373.127 669.57 373.127 673.62C373.127 682.125 385.997 678.795 385.997 683.925C385.997 686.04 383.927 686.94 381.317 686.94C379.067 686.94 377.132 686.22 376.727 684.15C376.547 683.61 376.277 683.295 375.692 683.295H373.712C373.127 683.295 372.722 683.61 372.767 684.285C373.262 688.29 376.682 690.585 381.317 690.585C386.312 690.585 389.912 687.975 389.912 683.925C389.912 675.42 377.042 678.75 377.042 673.62Z" fill="#666666"/>
<defs>
<linearGradient id="paint0_linear_12862_17991" x1="304" y1="0" x2="304" y2="856" gradientUnits="userSpaceOnUse">
<stop stop-color="#00B39F"/>
<stop offset="0.262918" stop-color="#17A29C"/>
<stop offset="0.523335" stop-color="#477E96"/>
<stop offset="0.856668" stop-color="#215B62" stop-opacity="0.642582"/>
<stop offset="1" stop-color="#477E96" stop-opacity="0"/>
</linearGradient>
</defs>
</svg>
