<svg width="24" height="24" viewBox="0 0 24 24" fill="none" xmlns="http://www.w3.org/2000/svg">
<path fill-rule="evenodd" clip-rule="evenodd" d="M9 3C6.23858 3 4 5.23858 4 8C4 10.7614 6.23858 13 9 13C11.7614 13 14 10.7614 14 8C14 5.23858 11.7614 3 9 3ZM5.5 8C5.5 6.067 7.067 4.5 9 4.5C10.933 4.5 12.5 6.067 12.5 8C12.5 9.933 10.933 11.5 9 11.5C7.067 11.5 5.5 9.933 5.5 8Z" fill="#727274"/>
<path d="M4.75 14.5C2.12665 14.5 0 16.6266 0 19.25V20.25C0 20.6642 0.335786 21 0.75 21C1.16421 21 1.5 20.6642 1.5 20.25V19.25C1.5 17.4551 2.95507 16 4.75 16H13.25C15.0449 16 16.5 17.4551 16.5 19.25V20.25C16.5 20.6642 16.8358 21 17.25 21C17.6642 21 18 20.6642 18 20.25V19.25C18 16.6266 15.8734 14.5 13.25 14.5H4.75Z" fill="#727274"/>
<path d="M18.25 15.25C18.25 14.8358 18.5858 14.5 19 14.5H19.25C21.8734 14.5 24 16.6266 24 19.25V20.25C24 20.6642 23.6642 21 23.25 21C22.8358 21 22.5 20.6642 22.5 20.25V19.25C22.5 17.4551 21.0449 16 19.25 16H19C18.5858 16 18.25 15.6642 18.25 15.25Z" fill="#727274"/>
<path d="M15 3C14.5858 3 14.25 3.33579 14.25 3.75C14.25 4.16421 14.5858 4.5 15 4.5C16.933 4.5 18.5 6.067 18.5 8C18.5 9.933 16.933 11.5 15 11.5C14.5858 11.5 14.25 11.8358 14.25 12.25C14.25 12.6642 14.5858 13 15 13C17.7614 13 20 10.7614 20 8C20 5.23858 17.7614 3 15 3Z" fill="#727274"/>
</svg>
