<svg width="1273" height="106" viewBox="0 0 1273 106" fill="none" xmlns="http://www.w3.org/2000/svg">
<path d="M21.1846 0.179199H0V105.842H100.378V84.7151H21.1672L21.1846 0.179199Z" fill="#3C494F"/>
<path d="M155.843 0.179199L113.584 105.842H137.683L166.412 31.8867L186.886 84.7151H151.767L143.881 105.842H219.247L176.97 0.179199H155.843Z" fill="#3C494F"/>
<path d="M248.311 37.1828L221.899 0.179199H195.477L237.742 63.5768V105.842H258.874V63.5768L301.139 0.179199H275.057L248.311 37.1828Z" fill="#3C494F"/>
<path d="M311.703 16.8193V105.859H412.087V84.7151H332.876V63.5768H393.741V42.4443H332.888V21.3175H412.099V0.179199H311.703V16.8193Z" fill="#3C494F"/>
<path d="M445.899 20.323H500.162V42.2939H451.762L451.964 62.4493H466.482L504.833 105.813H530.938L492.593 62.4493H507.626C509.782 62.4516 511.918 62.0291 513.911 61.2061C515.904 60.383 517.715 59.1754 519.242 57.6522C520.768 56.129 521.98 54.3202 522.807 52.3288C523.634 50.3375 524.061 48.2027 524.064 46.0463V16.5938C524.061 12.2403 522.329 8.06609 519.25 4.98826C516.171 1.91043 511.997 0.180731 507.643 0.179199L425.281 0.179199V105.83H446.437L445.899 20.323Z" fill="#3C494F"/>
<path d="M649.824 0.179199H607.559V21.3117H649.824V0.179199Z" fill="#00B39F"/>
<path d="M655.08 68.8614V60.3911C655.08 50.6371 646.945 42.7334 636.844 42.7334H569.012V37.1829H544.15V61.3104H630.218V68.8614H655.08Z" fill="#00B39F"/>
<path d="M568.989 29.2386V19.6639H602.258V0.179199H544.145V29.2386H568.989Z" fill="#00D3A9"/>
<path d="M630.282 74.146V85.8021H596.984V105.842H638.035C642.479 105.914 646.774 104.236 649.992 101.17C651.575 99.6639 652.844 97.8587 653.725 95.8589C654.607 93.8592 655.083 91.7047 655.126 89.5198V74.146H630.282Z" fill="#00D3A9"/>
<path d="M566.908 74.146V85.091H589.052V105.842H560.576C558.432 105.865 556.305 105.448 554.328 104.617C552.351 103.785 550.566 102.557 549.082 101.008C545.967 97.7568 544.202 93.4441 544.145 88.9417V74.146H566.908Z" fill="#00B39F"/>
<path d="M21.1846 0.179199H0V105.842H100.378V84.7151H21.1672L21.1846 0.179199Z" fill="#3C494F"/>
<path d="M155.843 0.179199L113.584 105.842H137.683L166.412 31.8867L186.886 84.7151H151.767L143.881 105.842H219.247L176.97 0.179199H155.843Z" fill="#3C494F"/>
<path d="M248.311 37.1828L221.899 0.179199H195.477L237.742 63.5768V105.842H258.874V63.5768L301.139 0.179199H275.057L248.311 37.1828Z" fill="#3C494F"/>
<path d="M311.703 16.8193V105.859H412.087V84.7151H332.876V63.5768H393.741V42.4443H332.888V21.3175H412.099V0.179199H311.703V16.8193Z" fill="#3C494F"/>
<path d="M445.899 20.323H500.162V42.2939H451.762L451.964 62.4493H466.482L504.833 105.813H530.938L492.593 62.4493H507.626C509.782 62.4516 511.918 62.0291 513.911 61.2061C515.904 60.383 517.715 59.1754 519.242 57.6522C520.768 56.129 521.98 54.3202 522.807 52.3288C523.634 50.3375 524.061 48.2027 524.064 46.0463V16.5938C524.061 12.2403 522.329 8.06609 519.25 4.98826C516.171 1.91043 511.997 0.180731 507.643 0.179199L425.281 0.179199V105.83H446.437L445.899 20.323Z" fill="#3C494F"/>
<path d="M649.824 0.179199H607.559V21.3117H649.824V0.179199Z" fill="#00B39F"/>
<path d="M655.08 68.8614V60.3911C655.08 50.6371 646.945 42.7334 636.844 42.7334H569.012V37.1829H544.15V61.3104H630.218V68.8614H655.08Z" fill="#00B39F"/>
<path d="M568.989 29.2386V19.6639H602.258V0.179199H544.145V29.2386H568.989Z" fill="#00D3A9"/>
<path d="M630.282 74.146V85.8021H596.984V105.842H638.035C642.479 105.914 646.774 104.236 649.992 101.17C651.575 99.6639 652.844 97.8587 653.725 95.8589C654.607 93.8592 655.083 91.7047 655.126 89.5198V74.146H630.282Z" fill="#00D3A9"/>
<path d="M566.908 74.146V85.091H589.052V105.842H560.576C558.432 105.865 556.305 105.448 554.328 104.617C552.351 103.785 550.566 102.557 549.082 101.008C545.967 97.7568 544.202 93.4441 544.145 88.9417V74.146H566.908Z" fill="#00B39F"/>
<path d="M833.835 0.179199H812.514V105.859H914.293V84.5655H833.835V0.179199Z" fill="#3C494F"/>
<path d="M711.941 87.7197H797.629V105.465H711.941" fill="#3C494F"/>
<path d="M689.816 87.7197C692.23 98.3666 701.483 105.859 712.345 105.465V87.7197H689.816Z" fill="#3C494F"/>
<path d="M718.781 0.179199C714.758 0.179199 711.138 0.573528 707.517 2.15084C704.299 3.33383 701.08 4.91114 698.264 6.88278C695.851 8.85442 693.839 11.2204 692.23 13.9807C690.621 17.1353 689.816 20.6843 689.816 24.2332V77.8619H713.149V23.0502C713.149 22.2616 713.149 21.8673 713.552 21.0786C713.954 20.2899 714.356 19.8956 714.758 19.5013C715.563 19.107 715.965 18.7126 716.77 18.3183C717.574 17.924 718.379 17.924 719.184 17.924H798.033V0.179199H718.781Z" fill="#3C494F"/>
<path d="M944.466 47.8929V26.2048C944.466 23.0502 946.88 20.6842 950.098 20.6842H1008.03C1011.25 20.6842 1013.66 23.0502 1013.66 26.2048V47.8929H1032.97V18.7126C1032.97 8.46005 1024.52 0.573486 1014.06 0.573486H944.064C933.604 0.573486 925.559 8.85438 925.156 18.7126V47.8929H944.466Z" fill="#3C494F"/>
<path d="M1013.66 58.1453V79.8333C1013.66 82.988 1011.25 85.3539 1008.03 85.3539H950.098C946.88 85.3539 944.466 82.988 944.466 79.8333V58.1453H925.156V87.3256C925.156 97.5781 933.604 105.465 944.064 105.465H1014.06C1024.52 105.465 1032.57 97.1838 1032.97 87.3256V58.1453H1013.66Z" fill="#3C494F"/>
<path d="M1135.96 0.179199H1135.55V79.4392C1135.55 82.5938 1133.14 84.9598 1129.92 84.9598H1071.99C1068.77 84.9598 1066.36 82.5938 1066.36 79.4392V0.179199H1065.96C1055.5 0.179199 1047.45 8.4601 1047.05 18.3183V86.9314C1047.05 97.184 1055.5 105.071 1065.96 105.071H1135.96C1146.42 105.071 1154.46 96.7897 1154.86 86.9314V18.7126C1154.46 8.4601 1146.01 0.179199 1135.96 0.179199Z" fill="#3C494F"/>
<path d="M1253.02 0.179199H1183.02C1172.57 0.179199 1164.52 8.4601 1164.52 18.3183V105.465H1253.43C1263.89 105.465 1272.33 97.184 1272.33 87.3258V18.7126C1271.53 8.46009 1263.08 0.179199 1253.02 0.179199ZM1252.62 79.8335C1252.62 82.9882 1250.21 85.3541 1246.99 85.3541H1183.43V26.5992C1183.43 23.4446 1185.84 21.0786 1189.06 21.0786H1246.99C1250.21 21.0786 1252.62 23.4446 1252.62 26.5992V79.8335Z" fill="#3C494F"/>
</svg>
