<svg xmlns="http://www.w3.org/2000/svg" xmlns:xlink="http://www.w3.org/1999/xlink" id="Layer_1" x="0" y="0" version="1.1" viewBox="0 0 24 24" xml:space="preserve" style="enable-background:new 0 0 24 24"><style type="text/css">.st0{fill:#fff}</style><path d="M21.5,20h-19C2.2,20,2,19.8,2,19.5V5.7l9.7,8.7c0.2,0.2,0.5,0.2,0.7,0L22,5.7v13.8C22,19.8,21.8,20,21.5,20z M21.3,5L12,13.3L2.7,5C2.7,5,21.3,5,21.3,5z M21.5,4h-19C1.7,4,1,4.7,1,5.5v14C1,20.3,1.7,21,2.5,21h19c0.8,0,1.5-0.7,1.5-1.5v-14	C23,4.7,22.3,4,21.5,4z" class="st0"/></svg>