<svg xmlns="http://www.w3.org/2000/svg" width="41" height="40" fill="none" viewBox="0 0 41 40"><path fill="#00B39F" d="M20.54 0C31.9 0 40.5 9.31397 40.5 19.97C40.5 32.3285 30.42 40 20.5 40C17.22 40 13.58 39.1187 10.66 37.3961C9.64 36.7752 8.78 36.3145 7.68 36.675L3.64 37.8768C2.62 38.1973 1.7 37.3961 2 36.3145L3.34 31.8277C3.56 31.2068 3.52 30.5458 3.2 30.025C1.48 26.8603 0.5 23.3951 0.5 20.03C0.5 9.49424 8.92 0 20.54 0ZM29.68 17.4862C28.26 17.4862 27.12 18.6279 27.12 20.0501C27.12 21.4522 28.26 22.6139 29.68 22.6139C31.1 22.6139 32.24 21.4522 32.24 20.0501C32.24 18.6279 31.1 17.4862 29.68 17.4862ZM20.46 17.4862C19.06 17.4662 17.9 18.6279 17.9 20.03C17.9 21.4522 19.04 22.5939 20.46 22.6139C21.88 22.6139 23.02 21.4522 23.02 20.0501C23.02 18.6279 21.88 17.4862 20.46 17.4862ZM11.24 17.4862C9.82 17.4862 8.68 18.6279 8.68 20.0501C8.68 21.4522 9.84 22.6139 11.24 22.6139C12.66 22.5939 13.8 21.4522 13.8 20.0501C13.8 18.6279 12.66 17.4862 11.24 17.4862Z"/></svg>