<svg xmlns="http://www.w3.org/2000/svg" xmlns:xlink="http://www.w3.org/1999/xlink" id="Layer_1" x="0" y="0" version="1.1" viewBox="0 0 24 24" xml:space="preserve" style="enable-background:new 0 0 24 24"><style type="text/css">.st0{fill:#fff}</style><path d="M22,11h-8v-1c0-0.6-0.4-1-1-1h-2c-0.6,0-1,0.4-1,1v1H2V6.5C2,6.2,2.2,6,2.5,6h19C21.8,6,22,6.2,22,6.5V11z M11,13h2v-3h-2V13z M22,20.5c0,0.3-0.2,0.5-0.5,0.5h-19C2.2,21,2,20.8,2,20.5V12h8v1c0,0.6,0.4,1,1,1h2c0.6,0,1-0.4,1-1v-1h8V20.5z M9,3.5C9,3.2,9.2,3,9.5,3h5C14.8,3,15,3.2,15,3.5V5H9V3.5z M21.5,5H16V3.5C16,2.7,15.3,2,14.5,2h-5C8.7,2,8,2.7,8,3.5V5H2.5	C1.7,5,1,5.7,1,6.5v14C1,21.3,1.7,22,2.5,22h19c0.8,0,1.5-0.7,1.5-1.5v-14C23,5.7,22.3,5,21.5,5z" class="st0"/></svg>