<svg xmlns="http://www.w3.org/2000/svg" width="41" height="33" fill="none" viewBox="0 0 41 33"><path fill="#00B39F" d="M33.8327 17.3333C33.6661 17.5 31.9994 19.8333 31.4994 20.5C30.8327 21.3333 30.1661 22 29.6661 22.5L18.8327 30.5C18.3327 30.8333 17.4994 30.8333 17.1661 30.3333C16.8327 29.8333 16.8327 29 17.3327 28.6667L23.8327 23.8333L23.9994 23.6667L24.8327 23L25.1661 22.8333L25.3327 22.6667C25.6661 22.3333 25.8327 21.8333 25.4994 21.5C25.1661 21.1667 24.6661 21 24.3327 21.3333L23.8327 21.8333L23.4994 22.1667L23.3327 22.3333L16.4994 27.3333L14.3327 29C13.8327 29.3333 12.9994 29.3333 12.6661 28.6667C12.3327 28.1667 12.3327 27.3333 12.9994 27L17.4994 23.6667L20.4994 21.5V21L20.8327 20.8333L21.1661 20.6667C21.3327 20.6667 21.3327 20.5 21.4994 20.5C21.8327 20.1667 21.9994 19.6667 21.6661 19.3333C21.3327 19 20.8327 18.8333 20.4994 19.1667L20.3327 19.3333C20.1661 19.5 19.9994 19.5 19.6661 19.8333L11.8327 25.6667L9.83274 27.1667C9.33274 27.5 8.4994 27.5 8.16607 27C7.83274 26.5 7.83274 25.6667 8.4994 25.3333L9.9994 24.3333C10.3327 24.1667 10.4994 24.1667 10.8327 23.8333L18.1661 18.3333L19.4994 17.3333C19.4994 17.3333 19.4994 17.3333 19.6661 17.1667L19.8327 17V16.8333V16.6667V16.5V16.3333V16.1667V16C19.8327 16 19.6661 16 19.6661 15.8333C19.6661 15.8333 19.6661 15.8333 19.4994 15.6667H19.3327H19.1661H18.9994H18.8327H18.6661H18.4994L9.33274 22.5C8.83274 22.5 8.4994 22.3333 8.16607 22C7.83274 21.5 7.83274 20.6667 8.4994 20.3333L17.1661 13.6667C17.8327 13.1667 18.4994 12.8333 19.1661 12.5C19.8327 12.1667 20.6661 11.8333 21.4994 11.5C22.1661 11.3333 22.6661 11.1667 23.1661 11.3333C24.6661 11.5 26.1661 11.5 27.6661 11.6667L28.4994 11.8333C30.1661 12 31.6661 10.8333 31.8327 9.16668C31.9994 7.33335 30.8327 5.66668 28.9994 5.50001H28.8327C27.9994 5.50001 27.1661 5.33335 26.4994 5.33335C25.9994 5.33335 25.4994 5.16668 24.9994 5.16668C25.6661 5.16668 26.6661 5.00001 27.8327 5.00001C28.1661 5.00001 28.1661 5.00001 28.4994 5.00001C29.3327 5.00001 30.1661 4.83335 30.8327 4.83335L31.8327 4.66668H31.9994L38.6661 13.6667C36.3327 14.3333 35.1661 15.5 33.8327 17.3333ZM33.4994 21.8333C33.1661 22.1667 32.8327 22.3333 32.3327 22.3333H32.1661C32.3327 22.1667 32.4994 21.8333 32.6661 21.6667C32.8327 21.5 33.1661 21 33.4994 20.6667C33.8327 21 33.8327 21.5 33.4994 21.8333ZM33.1661 26.6667C32.8327 27.1667 31.9994 27.3333 31.4994 27L28.9994 25.1667L30.6661 24C30.8327 24 30.8327 23.8333 30.9994 23.6667C31.1661 23.8333 31.4994 24 31.6661 24L32.9994 25C33.4994 25.3333 33.6661 26.1667 33.1661 26.6667ZM28.6661 28.5C28.3327 29 27.4994 29.1667 26.9994 28.8333L25.4994 27.6667L27.4994 26.1667L28.3327 26.8333C28.9994 27.1667 28.9994 28 28.6661 28.5ZM23.9994 30.1667C23.6661 30.6667 22.8327 30.8333 22.3327 30.5L21.9994 30.3333L23.9994 28.8333C24.3327 29.1667 24.3327 29.8333 23.9994 30.1667ZM3.33274 13.1667L9.9994 4.16668C9.9994 4.16668 9.9994 4.16668 10.1661 4.16668L11.1661 4.33335C12.1661 4.33335 13.1661 4.50001 14.1661 4.50001C15.9994 4.66668 17.3327 4.66668 17.8327 4.66668C18.3327 4.66668 19.1661 4.83335 20.3327 5.33335L20.8327 5.50001C22.6661 6.16668 22.9994 6.16668 23.4994 6.33335C23.9994 6.33335 24.4994 6.50001 25.1661 6.50001C25.9994 6.66668 26.8327 6.66668 27.6661 6.66668C28.4994 6.66668 29.1661 7.50001 29.1661 8.50001C28.9994 9.16668 28.4994 9.66668 27.8327 9.66668C26.8327 9.50001 25.8327 9.50001 24.6661 9.33335C23.9994 9.33335 23.1661 9.16668 22.4994 9.16668H22.3327C21.6661 9.16668 20.8327 9.16668 20.1661 9.50001C19.3327 9.83335 18.3327 10.1667 17.4994 10.6667C16.8327 11.1667 16.1661 11.6667 15.4994 12.1667L7.83274 18C5.9994 15.6667 4.83274 14.3333 3.33274 13.1667ZM40.3327 14L30.9994 1.50001C30.6661 1.16668 30.1661 1.00001 29.8327 1.33335C29.4994 1.66668 29.3327 2.16668 29.6661 2.50001L29.8327 2.66668C28.9994 2.66668 28.1661 2.83335 27.4994 2.83335C27.1661 2.83335 27.1661 2.83335 26.8327 2.83335C24.9994 3.00001 23.8327 3.00001 23.1661 3.00001C22.4994 3.00001 21.6661 3.16668 20.6661 3.50001C19.6661 3.16668 18.8327 3.00001 18.1661 3.00001C17.4994 3.00001 16.3327 2.83335 14.4994 2.83335C14.1661 2.83335 14.1661 2.83335 13.8327 2.83335C12.8327 2.66668 12.1661 2.66668 11.3327 2.50001L11.4994 2.33335C11.8327 2.00001 11.6661 1.33335 11.3327 1.16668C10.8327 0.833347 10.1661 1.00001 9.9994 1.33335L0.66607 13.8333C0.332737 14.3333 0.499403 14.8333 0.832737 15.1667C1.16607 15.5 1.83274 15.3333 1.9994 15L2.16607 14.6667C3.4994 15.6667 4.4994 16.8333 6.16607 19.1667C5.16607 20.1667 4.9994 21.8333 5.9994 23C6.16607 23.3333 6.4994 23.5 6.83274 23.6667C5.4994 24.6667 5.33274 26.5 6.33274 27.8333C7.33274 29 9.16607 29.3333 10.4994 28.3333C10.8327 30 12.3327 31 13.9994 30.6667C14.4994 30.5 14.8327 30.3333 15.1661 30.1667C15.3327 30.5 15.3327 31 15.6661 31.3333C16.6661 32.6667 18.4994 33 19.8327 32L20.4994 31.5L21.3327 32C22.6661 33 24.4994 32.6667 25.4994 31.3333C25.8327 31 25.9994 30.6667 25.9994 30.1667C27.3327 31.1667 29.1661 30.8333 30.1661 29.5C30.4994 29.1667 30.6661 28.8333 30.6661 28.3333C31.9994 29.1667 33.8327 29 34.6661 27.6667C35.6661 26.3333 35.3327 24.6667 34.1661 23.6667C35.4994 22.8333 35.9994 21 34.9994 19.5C34.8327 19.3333 34.8327 19.1667 34.6661 19C34.8327 18.8333 34.9994 18.5 35.1661 18.3333C36.4994 16.6667 37.4994 15.5 38.6661 14.6667L38.8327 15C39.1661 15.3333 39.6661 15.5 39.9994 15.1667C40.4994 14.8333 40.6661 14.3333 40.3327 14Z"/></svg>