<svg xmlns="http://www.w3.org/2000/svg" width="38" height="38" fill="none" viewBox="0 0 38 38"><path fill="#00B39F" d="M29.666 31.8333L24.8327 27C25.666 26.3333 26.4993 25.6666 26.9993 24.8333L31.8327 29.6666C31.166 30.5 30.4993 31.1666 29.666 31.8333ZM9.66601 32.8333L14.4993 28C15.8327 28.6666 17.3327 29 18.8327 29C20.3327 29 21.8327 28.6666 23.166 28L27.9993 32.8333C25.4993 34.6666 22.3327 35.6666 18.9993 35.6666C15.666 35.6666 12.4993 34.6666 9.66601 32.8333ZM6.16602 29.6666L10.8327 24.8333C11.4993 25.6666 12.166 26.5 12.9993 27L8.33268 31.8333C7.49935 31.1666 6.83268 30.5 6.16602 29.6666ZM5.16602 9.66663L9.99935 14.5C9.33268 16 8.99935 17.5 8.99935 19C8.99935 20.5 9.33268 22 9.99935 23.3333L5.16602 28.1666C3.33268 25.5 2.33268 22.3333 2.33268 19C2.33268 15.5 3.33268 12.3333 5.16602 9.66663ZM8.33268 6.16663L12.9993 10.8333C12.3327 11.5 11.4993 12.3333 10.9993 13.1666L6.16602 8.33329C6.83268 7.49996 7.49935 6.83329 8.33268 6.16663ZM28.3327 5.16663L23.4993 9.99996C20.666 8.66663 17.3327 8.66663 14.666 9.99996L9.66601 5.16663C12.4993 3.33329 15.666 2.33329 18.9993 2.33329C22.4993 2.33329 25.666 3.33329 28.3327 5.16663ZM31.8327 8.33329L26.9993 13C26.3327 12.1666 25.666 11.3333 24.8327 10.8333L29.666 6.16663C30.4993 6.83329 31.166 7.49996 31.8327 8.33329ZM27.9993 14.6666L32.8327 9.83329C34.666 12.5 35.666 15.6666 35.666 19C35.666 22.3333 34.666 25.5 32.8327 28.3333L27.9993 23.5C28.666 22.1666 28.9993 20.6666 28.9993 19.1666C28.9993 17.5 28.666 16 27.9993 14.6666ZM18.9993 27.3333C14.3327 27.3333 10.666 23.6666 10.666 19C10.666 14.3333 14.3327 10.6666 18.9993 10.6666C23.666 10.6666 27.3327 14.3333 27.3327 19C27.3327 23.6666 23.666 27.3333 18.9993 27.3333ZM18.9993 0.666626C8.83268 0.666626 0.666016 8.83329 0.666016 19C0.666016 29.1666 8.83268 37.3333 18.9993 37.3333C29.166 37.3333 37.3327 29.1666 37.3327 19C37.3327 8.83329 29.166 0.666626 18.9993 0.666626Z"/></svg>