<svg width="139" height="203" viewBox="0 0 139 203" fill="none" xmlns="http://www.w3.org/2000/svg">
<circle cx="31.5915" cy="6.31817" r="6.31817" fill="#00D3A9" fill-opacity="0.1"/>
<circle cx="31.5915" cy="27.3788" r="6.31817" fill="#00D3A9" fill-opacity="0.1"/>
<circle cx="31.5915" cy="48.4394" r="6.31817" fill="#00D3A9" fill-opacity="0.1"/>
<circle cx="31.5915" cy="69.5" r="6.31817" fill="#00D3A9" fill-opacity="0.1"/>
<circle cx="31.5915" cy="90.5606" r="6.31817" fill="#00D3A9" fill-opacity="0.1"/>
<circle cx="31.5915" cy="111.621" r="6.31817" fill="#00D3A9" fill-opacity="0.1"/>
<circle cx="31.5915" cy="132.681" r="6.31817" fill="#00D3A9" fill-opacity="0.1"/>
<circle cx="31.5915" cy="153.742" r="6.31817" fill="#00D3A9" fill-opacity="0.1"/>
<circle cx="31.5915" cy="174.803" r="6.31817" fill="#00D3A9" fill-opacity="0.1"/>
<circle cx="31.5915" cy="195.863" r="6.31817" fill="#00D3A9" fill-opacity="0.1"/>
<circle cx="82.1362" cy="6.31817" r="6.31817" fill="#00D3A9" fill-opacity="0.1"/>
<circle cx="82.1362" cy="27.3788" r="6.31817" fill="#00D3A9" fill-opacity="0.1"/>
<circle cx="82.1362" cy="48.4394" r="6.31817" fill="#00D3A9" fill-opacity="0.1"/>
<circle cx="82.1362" cy="69.5" r="6.31817" fill="#00D3A9" fill-opacity="0.1"/>
<circle cx="82.1362" cy="90.5606" r="6.31817" fill="#00D3A9" fill-opacity="0.1"/>
<circle cx="82.1362" cy="111.621" r="6.31817" fill="#00D3A9" fill-opacity="0.1"/>
<circle cx="82.1362" cy="132.681" r="6.31817" fill="#00D3A9" fill-opacity="0.1"/>
<circle cx="82.1362" cy="153.742" r="6.31817" fill="#00D3A9" fill-opacity="0.1"/>
<circle cx="82.1362" cy="174.803" r="6.31817" fill="#00D3A9" fill-opacity="0.1"/>
<circle cx="82.1362" cy="195.863" r="6.31817" fill="#00D3A9" fill-opacity="0.1"/>
<circle cx="107.409" cy="6.31817" r="6.31817" fill="#00D3A9" fill-opacity="0.1"/>
<circle cx="107.409" cy="27.3788" r="6.31817" fill="#00D3A9" fill-opacity="0.1"/>
<circle cx="107.409" cy="48.4394" r="6.31817" fill="#00D3A9" fill-opacity="0.1"/>
<circle cx="107.409" cy="69.5" r="6.31817" fill="#00D3A9" fill-opacity="0.1"/>
<circle cx="107.409" cy="90.5606" r="6.31817" fill="#00D3A9" fill-opacity="0.1"/>
<circle cx="107.409" cy="111.621" r="6.31817" fill="#00D3A9" fill-opacity="0.1"/>
<circle cx="107.409" cy="132.681" r="6.31817" fill="#00D3A9" fill-opacity="0.1"/>
<circle cx="107.409" cy="153.742" r="6.31817" fill="#00D3A9" fill-opacity="0.1"/>
<circle cx="107.409" cy="174.803" r="6.31817" fill="#00D3A9" fill-opacity="0.1"/>
<circle cx="107.409" cy="195.863" r="6.31817" fill="#00D3A9" fill-opacity="0.1"/>
<circle cx="132.682" cy="6.31817" r="6.31817" fill="#00D3A9" fill-opacity="0.1"/>
<circle cx="132.682" cy="27.3788" r="6.31817" fill="#00D3A9" fill-opacity="0.1"/>
<circle cx="132.682" cy="48.4394" r="6.31817" fill="#00D3A9" fill-opacity="0.1"/>
<circle cx="132.682" cy="69.5" r="6.31817" fill="#00D3A9" fill-opacity="0.1"/>
<circle cx="132.682" cy="90.5606" r="6.31817" fill="#00D3A9" fill-opacity="0.1"/>
<circle cx="132.682" cy="111.621" r="6.31817" fill="#00D3A9" fill-opacity="0.1"/>
<circle cx="132.682" cy="132.681" r="6.31817" fill="#00D3A9" fill-opacity="0.1"/>
<circle cx="132.682" cy="153.742" r="6.31817" fill="#00D3A9" fill-opacity="0.1"/>
<circle cx="132.682" cy="174.803" r="6.31817" fill="#00D3A9" fill-opacity="0.1"/>
<circle cx="132.682" cy="195.863" r="6.31817" fill="#00D3A9" fill-opacity="0.1"/>
<circle cx="6.31817" cy="6.31817" r="6.31817" fill="#00D3A9" fill-opacity="0.1"/>
<circle cx="6.31817" cy="27.3788" r="6.31817" fill="#00D3A9" fill-opacity="0.1"/>
<circle cx="6.31817" cy="48.4394" r="6.31817" fill="#00D3A9" fill-opacity="0.1"/>
<circle cx="6.31817" cy="69.5" r="6.31817" fill="#00D3A9" fill-opacity="0.1"/>
<circle cx="6.31817" cy="90.5606" r="6.31817" fill="#00D3A9" fill-opacity="0.1"/>
<circle cx="6.31817" cy="111.621" r="6.31817" fill="#00D3A9" fill-opacity="0.1"/>
<circle cx="6.31817" cy="132.681" r="6.31817" fill="#00D3A9" fill-opacity="0.1"/>
<circle cx="6.31817" cy="153.742" r="6.31817" fill="#00D3A9" fill-opacity="0.1"/>
<circle cx="6.31817" cy="174.803" r="6.31817" fill="#00D3A9" fill-opacity="0.1"/>
<circle cx="6.31817" cy="195.863" r="6.31817" fill="#00D3A9" fill-opacity="0.1"/>
<circle cx="56.8638" cy="6.31817" r="6.31817" fill="#00D3A9" fill-opacity="0.1"/>
<circle cx="56.8638" cy="27.3788" r="6.31817" fill="#00D3A9" fill-opacity="0.1"/>
<circle cx="56.8638" cy="48.4394" r="6.31817" fill="#00D3A9" fill-opacity="0.1"/>
<circle cx="56.8638" cy="69.5" r="6.31817" fill="#00D3A9" fill-opacity="0.1"/>
<circle cx="56.8638" cy="90.5606" r="6.31817" fill="#00D3A9" fill-opacity="0.1"/>
<circle cx="56.8638" cy="111.621" r="6.31817" fill="#00D3A9" fill-opacity="0.1"/>
<circle cx="56.8638" cy="132.681" r="6.31817" fill="#00D3A9" fill-opacity="0.1"/>
<circle cx="56.8638" cy="153.742" r="6.31817" fill="#00D3A9" fill-opacity="0.1"/>
<circle cx="56.8638" cy="174.803" r="6.31817" fill="#00D3A9" fill-opacity="0.1"/>
<circle cx="56.8638" cy="195.863" r="6.31817" fill="#00D3A9" fill-opacity="0.1"/>
</svg>
