<svg id="master-artboard" viewBox="0 0 1035.734130859375 450.15863037109375" version="1.1" xmlns="http://www.w3.org/2000/svg" x="0px" y="0px" style="enable-background:new 0 0 1400 980;" width="1035.734130859375px" height="450.15863037109375px"><defs><style id="ee-google-fonts">@import url(https://fonts.googleapis.com/css?family=Rubik:300,300italic,400,400italic,500,500italic,700,700italic,900,900italic);</style><style id="style-1">@import url(https://fonts.googleapis.com/css?family=Anton:400|Roboto+Slab:100,300,400,700);</style></defs><rect id="ee-background" x="0" y="0" width="1035.734130859375" height="450.15863037109375" style="fill: white; fill-opacity: 1; pointer-events: none;"/>
<g transform="matrix(0.7347965240478516, 0, 0, 0.7347965240478516, -1.4415364265441895, -1.0052900314331055)"><linearGradient id="gradient-1" x1="1014.604" x2="395.396" y1="843.399" y2="-229.102" gradientUnits="userSpaceOnUse"><stop offset="0" style="stop-color:#62accd"/><stop offset=".307" style="stop-color:#53869c"/><stop offset=".615" style="stop-color:#476572"/><stop offset=".856" style="stop-color:#3f5158"/><stop offset="1" style="stop-color:#3c494e"/></linearGradient><path d="M -1.4 0 H 1411.400049 V 614.299988 H -1.4 V 0 Z" class="st0" style="fill: url('#gradient-1');"/><g>
<path d="M878.2,201.5c-39.6,0.1-72.1-32-72.1-71.6c-0.1-39.6,32-71.9,71.6-72c39.6-0.1,72.1,32.1,72.2,71.5 C950,169,917.8,201.4,878.2,201.5z M826,129.8c0.1,28.8,23.6,52.1,52.2,51.9c28.9-0.3,51.9-23.5,51.8-52.4 c-0.1-28.4-23.4-51.5-52-51.6C849.2,77.7,825.9,101,826,129.8z" class="st1" style="fill: rgb(0, 179, 159);"/>
<path d="M877.9,412.8c39.6-0.1,72,32.2,72,71.7c0.1,39.5-32.2,71.8-71.9,71.9c-39.7,0-72-32.1-72-71.7 C806,445.1,838.2,412.9,877.9,412.8z M878.1,536.6c28.8-0.1,52-23.4,51.9-52.2c-0.1-28.5-23.4-51.6-51.9-51.8 c-28.9-0.1-52.2,23.4-52.1,52.5C826.1,513.6,849.5,536.7,878.1,536.6z" class="st2" style="fill: rgb(179, 39, 0);"/><path d="M1076.5,121.9c-24.6,0-49.3,0-73.9,0c-7.6,0-12.3-3.6-12.8-9.8c-0.5-5.9,3.3-10.8,9.2-11.7 c1.5-0.2,3-0.2,4.5-0.2c48.8,0,97.6,0,146.4,0c2.1,0,4.4,0.1,6.4,0.6c4.8,1.3,7.8,5.6,7.7,10.4c-0.1,4.8-3.3,8.9-8.1,10.1 c-1.9,0.5-4,0.5-5.9,0.5C1125.4,121.9,1101,121.9,1076.5,121.9z" class="st1" style="fill: rgb(0, 179, 159);"/><path d="M1077.1,476.8c-24.8,0-49.6,0-74.4,0c-7.9,0-12.6-3.8-12.9-10.2c-0.3-5.9,3.7-10.6,9.6-11.3 c1.5-0.2,3-0.1,4.5-0.1c48.6,0,97.2,0,145.8,0c1.7,0,3.4-0.1,5,0.1c5.4,0.8,9.3,5.4,9.3,10.7c0,5.2-3.7,9.5-9,10.4 c-1.8,0.3-3.6,0.3-5.5,0.3C1125.4,476.8,1101.2,476.8,1077.1,476.8z" class="st2" style="fill: rgb(179, 39, 0);"/><path d="M1077,277.9c25.1,0,50.3-0.1,75.4,0c9.3,0,14.6,8.7,10.1,16.1c-2.5,4.1-6.4,5.3-11.1,5.2 c-38-0.1-75.9,0-113.9,0c-11.8,0-23.6,0-35.5,0c-7.6,0-12.3-4.1-12.3-10.7c0-6.6,4.6-10.6,12.3-10.6 C1027,277.9,1052,277.9,1077,277.9z" class="st1" style="fill: rgb(234, 179, 8); stroke: rgb(234, 179, 8);"/><path d="M1067,137.5c21.5,0,42.9,0,64.4,0c6.8,0,11.1,2.8,12.5,7.8c1.7,6.2-2.1,12.3-8.5,13.6 c-1.1,0.2-2.3,0.2-3.5,0.2c-43.4,0-86.9,0-130.3,0c-9.7,0-15.3-8.3-11-16c2.5-4.4,6.6-5.6,11.4-5.6 C1023.8,137.5,1045.4,137.5,1067,137.5z" class="st3" style="fill: rgb(0, 211, 169);"/><path d="M1066.5,514c-21.6,0-43.3,0.1-64.9,0c-9.2,0-14.8-7.7-11.2-15.2c2.4-5,6.7-6.4,12-6.4c22,0.1,43.9,0,65.9,0 c21.1,0,42.3,0,63.4,0c7.4,0,11.9,3.5,12.6,9.4c0.8,7.2-4.1,12.2-12.3,12.2C1110.1,514,1088.3,514,1066.5,514z" class="st4" style="fill: rgb(211, 42, 0);"/><path d="M1066.9,336.4c-22,0-44,0.1-66,0c-8.7,0-13.9-7.4-10.7-14.8c2-4.6,5.8-6.5,10.8-6.5c13.2,0.1,26.3,0,39.5,0 c30.5,0,61,0,91.5,0c6.7,0,10.9,3,12,8.3c1.5,7.2-3.3,13-11.2,13C1110.9,336.4,1088.9,336.4,1066.9,336.4z" class="st3" style="fill: rgb(250, 204, 21); stroke: rgb(250, 204, 21);"/><path d="M868.9,311.3c-4-4.5-6.9-8.2-10.2-11.4c-4.5-4.4-10.6-4.3-14.7-0.1c-4.2,4.1-4.3,10.3,0,14.7 c5.8,6,11.7,11.9,17.7,17.7c4.7,4.5,10.4,4.5,15.1-0.1c11.7-11.6,23.4-23.2,34.9-35c1.6-1.7,2.9-4.2,3.3-6.4 c0.8-4.8-1.5-8.5-5.8-10.6c-4.3-2.1-8.5-1.4-11.9,2.1C888.1,291.4,879.1,300.7,868.9,311.3z" class="st5" style="fill: rgb(255, 255, 255);"/><path d="M868.9,311.3c10.3-10.6,19.3-20,28.4-29.2c3.4-3.5,7.6-4.2,11.9-2.1c4.3,2.1,6.6,5.8,5.8,10.6 c-0.4,2.3-1.7,4.8-3.3,6.4c-11.5,11.8-23.2,23.4-34.9,35c-4.7,4.6-10.4,4.7-15.1,0.1c-6-5.8-11.9-11.7-17.7-17.7 c-4.3-4.5-4.2-10.6,0-14.7c4.2-4.1,10.2-4.3,14.7,0.1C862,303.1,864.9,306.8,868.9,311.3z" class="st3" style="fill: rgb(250, 204, 21);"/><path d="M868.9,133.5c9.6-9.8,18.2-18.7,26.8-27.4c5.7-5.7,11.4-6.2,16.1-1.6c4.7,4.6,4.3,10.6-1.2,16.1 c-11,11.1-22.1,22.1-33.2,33.2c-5.8,5.8-11.1,5.8-16.8,0.1c-5.4-5.4-10.9-10.8-16.2-16.2c-4.8-4.9-4.9-11.1-0.4-15.4 c4.4-4.2,10.2-4,15.1,0.7C862.3,126,865.2,129.4,868.9,133.5z" class="st3" style="fill: rgb(0, 211, 169);"/><path d="M877.9,498.6c-5.1,5.6-9.2,10.3-13.5,14.6c-5.1,5.1-11.3,5.2-15.8,0.5c-4.4-4.5-4.2-10.5,0.6-15.5 c4.1-4.3,8.4-8.6,12.5-12.9c0.1-0.1,0.1-0.3,0.5-1c-4-4-8.1-8.3-12.3-12.5c-5.4-5.6-5.9-11.5-1.3-16.3c4.7-4.9,11-4.5,16.6,1.2 c4.1,4.1,7.9,8.5,13,14.1c4.1-4.8,7.3-8.8,10.9-12.4c7.1-7.2,12.8-8.1,18-3c5.1,5.1,4.3,11.1-2.7,18c-3.7,3.6-7.7,6.8-12.7,11.2 c5.7,5.2,10.4,9.2,14.7,13.5c5.1,5,5.2,11.4,0.6,15.9c-4.6,4.6-10.6,4.4-15.8-0.9C887.1,508.8,883.1,504.2,877.9,498.6z" class="st4" style="fill: rgb(211, 42, 0);"/><path d="M806.1,307c0.1-39.5,32.5-71.8,72-71.8c39.4,0.1,71.9,32.6,71.8,72.1c-0.1,39.4-32.7,71.9-72.1,71.8 C838.3,379,806,346.5,806.1,307z M878,359.1c28.8,0,52-23.4,52-52.2c0-28.7-23.5-51.9-52.3-51.8c-28.5,0.1-51.6,23.3-51.7,51.9 C826,335.9,849.2,359.2,878,359.1z" class="st1" style="fill: rgb(234, 179, 8);"/><path d="M 912.3701782226562 365.839111328125 L 912.3701782226562 365.839111328125" style="fill: rgb(234, 179, 8); fill-opacity: 1; stroke: rgb(0, 0, 0); stroke-opacity: 1; stroke-width: 0; paint-order: fill;"/></g><path d="M385.8,401.4l-94.2-94.2l151.5-151.5c-11.7,2-22.7-5.8-24.7-17.5c-0.4-2.1-0.4-4.3-0.1-6.4L264.8,285.4&#9;c11.8-1.5,22.6,6.9,24,18.7c1.5,11.8-6.9,22.6-18.7,24c-2.2,0.3-4.5,0.2-6.7-0.2l98.6,98.6v-25.1H385.8z" class="st6" style="fill: rgb(188, 237, 196);"/><path d="M546.4,176.8L438,285.3c0.6,0,1.1-0.1,1.7-0.1c11.9,0,21.5,9.6,21.5,21.5c0,1.6-0.2,3.1-0.5,4.6l110.2-110.2&#9;C561,194.9,552.6,186.7,546.4,176.8z" class="st6" style="fill: rgb(188, 237, 196);"/><path d="M590.3,306.7c0-1.2,0.1-2.4,0.3-3.6l-98.3,98.3h24.8v23.9l97.2-97.2c-11.7,1.4-22.4-6.9-23.9-18.7&#9;C590.3,308.5,590.3,307.6,590.3,306.7z" class="st6" style="fill: rgb(188, 237, 196);"/><path d="M 289 134.5 A 21.5 21.5 0 0 1 267.5 156 A 21.5 21.5 0 0 1 246 134.5 A 21.5 21.5 0 0 1 267.5 113 A 21.5 21.5 0 0 1 289 134.5 Z" class="st7" style="fill: rgb(66, 167, 182);"/><path d="M439.6,156.1c11.8-0.1,21.4-9.7,21.3-21.5c-0.1-11.8-9.7-21.4-21.5-21.3c-11.7,0.1-21.2,9.6-21.3,21.3&#9;C418.1,146.4,427.8,156,439.6,156.1z" class="st7" style="fill: rgb(66, 167, 182);"/><path d="M288.7,310.2c1.9-11.7-6-22.7-17.7-24.6c-11.7-1.9-22.7,6-24.6,17.7c-1.9,11.7,6,22.7,17.7,24.6&#9;c1.1,0.2,2.2,0.3,3.4,0.3C278,328.2,286.9,320.6,288.7,310.2z" class="st7" style="fill: rgb(66, 167, 182);"/><path d="M439.6,285.2c-0.6,0-1.1,0-1.7,0.1c-11.7,1.1-20.3,11.4-19.3,23.1s11.4,20.3,23.1,19.3&#9;c11.7-1.1,20.3-11.4,19.3-23.1C460.1,293.5,450.7,285.1,439.6,285.2L439.6,285.2z" class="st7" style="fill: rgb(66, 167, 182);"/><path d="M611.8,285.2c-11.9,0-21.5,9.6-21.5,21.5c0,11.9,9.6,21.5,21.5,21.5c11.9,0,21.5-9.6,21.5-21.5&#9;C633.4,294.8,623.7,285.2,611.8,285.2C611.8,285.2,611.8,285.2,611.8,285.2z" class="st7" style="fill: rgb(66, 167, 182);"/><path d="M 633.299988 478.899994 A 21.5 21.5 0 0 1 611.799988 500.399994 A 21.5 21.5 0 0 1 590.299988 478.899994 A 21.5 21.5 0 0 1 611.799988 457.399994 A 21.5 21.5 0 0 1 633.299988 478.899994 Z" class="st7" style="fill: rgb(66, 167, 182);"/><path d="M 289 478.899994 A 21.5 21.5 0 0 1 267.5 500.399994 A 21.5 21.5 0 0 1 246 478.899994 A 21.5 21.5 0 0 1 267.5 457.399994 A 21.5 21.5 0 0 1 289 478.899994 Z" class="st7" style="fill: rgb(66, 167, 182);"/><path d="M492.3,401.4H362.2v155h155v-155H492.3z M456.9,491.8c-7.1,9.4-20.5,11.3-30,4.2c-9.4-7.1-11.3-20.5-4.2-30&#9;c7.1-9.4,20.5-11.3,30-4.2c5.4,4,8.5,10.4,8.5,17.1C461.1,483.5,459.6,488.1,456.9,491.8L456.9,491.8z" class="st8" style="fill: rgb(42, 45, 222);"/><path d="M611.8,57.9c-42.8,0-77.5,34.7-77.5,77.5s34.7,77.5,77.5,77.5s77.5-34.7,77.5-77.5&#9;C689.3,92.6,654.6,58,611.8,57.9z M611.8,156.9c-11.9,0-21.5-9.6-21.5-21.5c0-11.9,9.6-21.5,21.5-21.5c11.9,0,21.5,9.6,21.5,21.5&#9;c0,0,0,0,0,0C633.3,147.3,623.7,156.9,611.8,156.9z" class="st9" style="fill: rgb(251, 129, 67);"/></g></svg>