<svg xmlns="http://www.w3.org/2000/svg" width="122" height="33" viewBox="9.5 29.85 221 60.3" fill="none" aria-label="Exoscale logo"><path d="M40.734 29.4L10 82.6h4.264l26.47-45.588v7.5L18.676 82.6h4.412l17.646-30.44v7.646L27.5 82.6h4.412l8.824-15.146v7.5L36.324 82.6h35.146z" fill="black" /><path d="M72.526 55.06H86.4v2.964h-10.552v4.84h9.396v2.964h-9.396v4.986h10.696v2.964h-14zm35.196 0l-6.504 9.106 6.794 9.54h-3.9L99.2 66.552l-4.914 7.154h-3.76l6.72-9.54-6.504-9.2h3.9l4.626 6.72 4.7-6.72h3.76zm2.964 9.396c0-5.348 4.048-9.684 9.828-9.684 5.71 0 9.756 4.336 9.756 9.612s-4.048 9.684-9.828 9.684c-5.71 0-9.756-4.336-9.756-9.612zm16.116 0c0-3.686-2.674-6.648-6.36-6.648s-6.288 2.964-6.288 6.576 2.674 6.648 6.36 6.648 6.288-2.964 6.288-6.576zm7.516 6.576l1.952-2.384c1.806 1.52 3.614 2.46 5.926 2.46 2.024 0 3.324-.94 3.324-2.384v-.072c0-1.3-.72-2.024-4.192-2.89-3.974-.94-6.216-2.168-6.216-5.564v-.072c0-3.2 2.674-5.4 6.36-5.4 2.746 0 4.914.794 6.794 2.384l-1.734 2.46c-1.66-1.228-3.396-1.952-5.06-1.952-1.952 0-3.036 1.012-3.036 2.24v.072c0 1.446.868 2.096 4.48 2.964 3.974.94 6 2.384 6 5.492v.072c0 3.468-2.746 5.564-6.648 5.564a11.92 11.92 0 0 1-7.95-2.964zm19.006-6.576c0-5.348 3.974-9.684 9.612-9.684 3.468 0 5.564 1.228 7.372 2.89l-2.096 2.46c-1.52-1.374-3.108-2.312-5.276-2.312-3.54 0-6.14 2.89-6.14 6.576s2.6 6.648 6.14 6.648c2.312 0 3.76-.94 5.348-2.384l2.096 2.46c-1.952 2.024-4.12 3.324-7.588 3.324-5.4-.072-9.468-4.336-9.468-9.684zm28.69-9.54h3.036l8.24 18.79h-3.54l-1.88-4.48h-8.8l-1.952 4.48h-3.396zm4.7 11.4l-3.252-7.444-3.2 7.444zm11.274-11.274h3.252v15.68h9.828v2.964h-13.08zm17.996 0h13.876v2.964h-10.552v4.84h9.396v2.964h-9.396v4.986H230v2.964h-13.876z" fill="black" /></svg>