<svg xmlns="http://www.w3.org/2000/svg" width="60" height="60" fill="none" viewBox="0 0 60 60"><g clip-path="url(#clip0)"><path fill="#000" d="M45.0397 31.1003C45.0397 24.8656 45.0397 18.6676 45.0397 12.4329C44.9403 12.4329 44.8607 12.4329 44.7612 12.4329C43.8063 12.4329 42.8514 12.4329 41.8965 12.4329C41.3992 12.4329 41.3991 12.4329 41.2599 13.3131C40.8023 16.5038 40.3647 19.6578 39.927 22.8485C39.8673 23.2886 39.8275 23.7654 39.7678 24.2421C39.7082 24.1688 39.6883 24.0955 39.6883 23.9854C39.1909 20.2813 38.6737 16.5771 38.1962 12.873C38.1564 12.5429 38.0968 12.4329 37.8978 12.4329C36.8434 12.4329 35.7891 12.4329 34.7148 12.4329C34.6352 12.4329 34.5556 12.4329 34.4761 12.4695C34.4761 18.7043 34.4761 24.8656 34.4761 31.1003C35.3912 31.1003 36.2665 31.1003 37.1816 31.1003C37.1816 27.1395 37.1816 23.2153 37.1816 19.3644C37.679 23.2519 38.1962 27.1761 38.6936 31.137C39.37 31.137 40.0265 31.137 40.683 31.137C40.7427 31.137 40.8222 30.9536 40.8421 30.8069C41.2997 27.2862 41.7373 23.7287 42.175 20.2079C42.2148 19.8412 42.2745 19.4377 42.3143 19.071H42.3342C42.3342 23.0686 42.3342 27.1028 42.3342 31.137C43.2692 31.1003 44.1445 31.1003 45.0397 31.1003Z"/><path fill="#000" d="M20.5702 12.4695C20.5702 12.6895 20.5702 12.8729 20.5702 13.0563C20.5702 16.5771 20.5702 20.0978 20.5702 23.6186C20.5702 23.9487 20.5702 24.2788 20.5503 24.6455C20.4906 25.9291 20.232 26.6626 19.6551 26.846C19.3169 26.956 18.9389 26.9194 18.6007 26.846C18.163 26.736 17.8646 26.1859 17.7851 25.379C17.7254 24.9022 17.7055 24.3888 17.7055 23.912C17.7055 20.2812 17.7055 16.6504 17.7055 13.0563C17.7055 12.8729 17.7055 12.7262 17.7055 12.5428C16.6909 12.5428 15.7161 12.5428 14.7214 12.5428C14.7214 12.6162 14.7015 12.6895 14.7015 12.7262C14.7015 16.9438 14.6816 21.1614 14.7214 25.3423C14.7612 28.1663 15.6564 30.2568 17.1087 31.137C18.2824 31.8338 19.476 31.8705 20.6697 31.3937C22.5198 30.6602 23.5344 28.4597 23.5742 24.9756C23.614 20.9047 23.5941 16.8338 23.5941 12.7262C23.5941 12.6529 23.5742 12.5795 23.5742 12.5062C22.5795 12.4695 21.5848 12.4695 20.5702 12.4695Z"/><path fill="#000" d="M32.8647 16.9072C32.8647 16.7238 32.8846 16.5771 32.8846 16.4304C32.8846 15.2568 32.8846 14.0832 32.8846 12.9096C32.8846 12.5062 32.8051 12.4329 32.6061 12.4329C30.2785 12.4329 27.951 12.4329 25.6433 12.4329C25.4244 12.4329 25.3647 12.5429 25.3647 12.9463C25.3647 18.851 25.3647 24.7556 25.3647 30.6236C25.3647 30.7703 25.3647 30.917 25.3846 31.0637C25.4642 31.0637 25.5239 31.1004 25.5836 31.1004C28.0106 31.1004 30.4178 31.1004 32.8449 31.1004C33.0239 31.1004 33.0836 30.9903 33.0637 30.6603C33.0637 29.4133 33.0637 28.203 33.0637 26.9561C33.0637 26.8461 33.0438 26.6994 33.0438 26.516C31.4921 26.516 29.9403 26.516 28.4085 26.516C28.4085 25.5258 28.4085 24.6089 28.4085 23.6187C29.6817 23.6187 30.935 23.6187 32.1685 23.6187C32.1685 22.1884 32.1685 20.7947 32.1685 19.3644C30.9151 19.3644 29.6618 19.3644 28.4085 19.3644C28.4085 18.4842 28.4085 17.714 28.4085 16.8705C29.8807 16.9072 31.3528 16.9072 32.8647 16.9072Z"/><path fill="#000" d="M31.6511 46.3206C31.7506 46.3206 31.8302 46.3206 31.9296 46.3573C32.6856 46.6874 33.4416 46.9441 34.1776 47.3475C35.2121 47.9343 36.2068 48.6678 37.2413 49.2546C38.9721 50.2448 40.7426 50.6849 42.553 50.0248C43.1697 49.8047 43.7665 49.438 44.3235 48.9245C44.2439 48.8879 44.1445 48.8879 44.0649 48.8879C42.6723 48.8879 41.2996 48.7412 39.927 48.2644C38.7532 47.861 37.6591 47.0908 36.5251 46.3573C34.6153 45.1103 32.6458 44.4869 30.6166 45.257C30.3779 45.3304 30.1193 45.4771 29.9004 45.3671C28.2095 44.6702 26.5185 44.7803 24.8474 45.6605C23.8726 46.1739 22.9177 46.8341 21.9628 47.4209C20.0729 48.5578 18.1034 48.8512 16.1339 48.8512C16.0543 48.8512 15.9548 48.8512 15.8752 48.8512C15.915 48.9612 15.9548 48.9979 15.9946 49.0346C17.049 49.8781 18.163 50.2815 19.3169 50.3182C20.8885 50.3548 22.3805 49.6213 23.8726 48.7412C25.0463 48.0077 26.2201 47.3108 27.4137 46.614C27.5331 46.5407 27.6723 46.504 27.8116 46.4673C27.9309 46.4306 28.0702 46.394 28.1896 46.3573C28.3089 46.3206 28.4482 46.3206 28.5676 46.2839C26.6975 47.8976 24.8474 49.438 23.3554 52.1152C23.614 52.1519 23.8726 52.1152 24.1113 52.1886C24.5291 52.2619 24.8076 52.0052 25.1259 51.4918C26.2996 49.5113 27.6922 48.2644 29.1644 47.2742C30.1193 46.614 30.1193 46.614 31.0941 47.2742C32.7055 48.3744 34.2174 49.7681 35.4508 52.0052C35.4906 52.0786 35.5503 52.1519 35.5901 52.1519C36.0278 52.1519 36.4654 52.1519 36.8832 52.1519C35.3713 49.4747 33.5012 47.8976 31.6511 46.3206Z"/><path fill="#000" d="M4.11794 16.5403C4.09805 16.6503 4.07816 16.7237 4.05826 16.797C3.73996 19.621 3.91901 22.2982 4.71476 24.8288C5.51052 27.286 6.64447 29.1198 7.95747 30.6234H7.97736C8.07683 29.6699 8.1763 28.7163 8.31556 27.7995C8.45481 26.8826 8.63386 25.9657 8.8328 25.0488C9.17099 23.3618 9.54898 21.7114 9.72802 19.9144C9.78771 19.2909 9.82749 18.6674 9.88717 17.9706C8.13651 20.0244 7.14182 22.775 7.06224 26.5525C6.52511 22.7383 5.29168 19.6943 4.11794 16.5403Z"/><path fill="#000" d="M50.3912 18.0443L50.3713 18.081C50.3713 18.191 50.3713 18.3011 50.3713 18.3744C50.4509 19.9147 50.6499 21.3817 50.9284 22.8121C51.2666 24.5358 51.6048 26.2228 51.9231 27.9465C52.0822 28.8267 52.122 29.7436 52.2215 30.6238C53.1366 29.7803 54.5093 27.4331 55.2056 25.636C55.9814 23.5822 56.3594 21.3451 56.2798 18.8512C56.26 18.1177 56.1804 17.3475 56.1406 16.614C56.1207 16.614 56.1008 16.614 56.061 16.614C54.8873 19.7314 53.6538 22.7754 53.1565 26.5896C53.057 22.7754 52.0623 20.0248 50.3912 18.0443Z"/><path fill="#000" d="M6.60482 8.14166C6.58493 8.14166 6.54514 8.10498 6.52525 8.10498C6.46556 8.17833 6.38599 8.28835 6.32631 8.3617C5.55044 9.5353 5.19235 11.0756 5.11278 12.8727C4.99341 15.9167 5.59023 18.5573 6.56503 20.9412C6.64461 21.1245 6.72418 21.3079 6.82365 21.5646C7.38068 20.0243 8.11676 18.814 8.85283 17.6771C9.2706 17.017 9.70827 16.3935 10.1061 15.6967C10.3648 15.2199 10.6035 14.7064 10.7825 14.1196C11.0412 13.3495 11.0809 12.506 10.9417 11.5891C9.48944 12.726 8.27591 14.4864 7.06238 16.3568C7.02259 16.0267 6.96291 15.8067 6.94302 15.55C6.88334 14.1197 6.82365 12.726 6.74408 11.2957C6.72418 10.3055 6.6645 9.20523 6.60482 8.14166Z"/><path fill="#000" d="M53.1763 16.357C53.1366 16.357 53.1167 16.357 53.0769 16.3937C51.9031 14.56 50.6896 12.7996 49.2374 11.6627C49.0384 13.0563 49.2573 14.1932 49.7546 15.1101C50.1525 15.8803 50.61 16.6138 51.0477 17.3106C51.8832 18.5942 52.7188 19.8412 53.3355 21.5282C53.3355 21.5282 53.3554 21.5282 53.3952 21.5649C54.5092 18.9976 55.2055 16.1737 55.0663 12.7996C55.0066 11.4059 54.748 10.1223 54.2307 9.05876C54.0517 8.69201 53.8527 8.39861 53.6339 8.03186C53.5941 8.50863 53.5344 8.87538 53.5145 9.24213C53.4549 10.7091 53.435 12.1761 53.3554 13.6431C53.3355 14.4866 53.236 15.4402 53.1763 16.357Z"/><path fill="#000" d="M48.541 37.8115C50.411 36.9313 52.1418 35.7577 53.6538 33.6306C54.6484 32.237 55.4243 30.5132 55.862 28.3494C56.0012 27.6526 56.1007 26.9191 56.2201 26.1856C56.2002 26.1489 56.1803 26.1489 56.1604 26.1123C54.4296 28.9729 52.6591 31.7602 50.7492 34.3274C51.0079 31.3201 51.2267 28.3494 50.232 25.5621C50.1126 26.0022 50.0132 26.3323 49.9336 26.6991C49.6352 28.0927 49.5755 29.5597 49.4959 30.99C49.3965 33.3372 49.2572 35.6477 48.541 37.8115Z"/><path fill="#000" d="M11.6379 37.8118C11.0809 36.0881 10.862 34.3277 10.7626 32.4939C10.683 31.1003 10.6034 29.67 10.4841 28.2763C10.4045 27.3595 10.2453 26.4793 9.92704 25.6357C8.95223 28.3864 9.17107 31.3203 9.42969 34.3643C7.51987 31.7604 5.74932 28.9732 3.97876 26.0392C3.99865 26.2592 3.99865 26.4059 4.01855 26.5526C4.21749 28.2397 4.59547 29.7433 5.17239 31.1003C6.80369 34.9145 9.13128 36.6015 11.6379 37.8118Z"/><path fill="#000" d="M54.0317 35.5747C51.3858 37.4818 48.74 39.4256 46.0941 41.3327C46.0742 41.296 46.0742 41.2593 46.0543 41.2227C46.1537 41.0026 46.2731 40.7459 46.3726 40.5258C47.049 39.0222 47.6259 37.4085 47.785 35.428C47.8646 34.4011 47.8248 33.4109 47.5662 32.384C47.5065 32.5674 47.4667 32.6774 47.427 32.7875C46.9694 34.2544 46.5118 35.7214 46.0543 37.2251C45.3978 39.3156 44.7612 41.406 43.7864 43.0564C43.7864 43.0564 43.7864 43.0931 43.7864 43.2031C47.7652 43.1664 51.3461 41.4794 54.0317 35.5747Z"/><path fill="#000" d="M6.08765 35.5381C7.38075 38.3987 8.95237 40.3425 10.7826 41.5894C12.593 42.7997 14.4829 43.2031 16.4723 43.1664C15.5969 41.6994 15.0001 40.0124 14.4431 38.252C13.9855 36.8217 13.5678 35.3547 13.1102 33.9244C12.951 33.4109 12.7919 32.9342 12.593 32.384C12.5532 32.6041 12.5134 32.7141 12.4935 32.8608C12.2945 34.0344 12.2945 35.208 12.4736 36.3816C12.7521 38.142 13.3091 39.609 13.9457 40.9659C14.0054 41.076 14.0452 41.186 14.1049 41.296C14.085 41.3327 14.085 41.3694 14.0651 41.406C11.4391 39.4256 8.79322 37.5185 6.08765 35.5381Z"/><path fill="#000" d="M43.9654 38.8022C41.976 41.5529 39.8474 43.7534 37.48 45.367C37.659 45.4771 37.7585 45.5504 37.8779 45.5871C39.0715 46.2472 40.3248 46.5406 41.5582 46.6873C43.3288 46.8707 45.0993 46.724 46.85 45.9538C47.7651 45.5504 48.6604 44.9636 49.3964 43.8634C49.5755 43.6067 49.7147 43.2766 49.8739 42.9832C49.854 42.9465 49.854 42.9098 49.8341 42.8732C47.0092 44.7802 44.0649 44.8169 41.1604 44.6702C41.6975 44.0834 42.2545 43.4966 42.7917 42.8365C43.2293 42.2864 43.5874 41.5529 43.8261 40.636C43.9654 40.0492 44.045 39.4991 43.9654 38.8022Z"/><path fill="#000" d="M22.6393 45.4398C22.6393 45.4032 22.6393 45.3665 22.6393 45.3298C20.3316 43.7528 18.2029 41.5523 16.1738 38.765C16.1937 39.2051 16.1738 39.4985 16.2135 39.7919C16.313 40.8555 16.6512 41.6257 17.069 42.3225C17.5862 43.2027 18.183 43.8628 18.8395 44.3763C18.9191 44.4496 18.9788 44.523 19.0584 44.5596C16.1141 44.7797 13.1698 44.743 10.325 42.9093C10.5637 43.4227 10.8223 43.8995 11.1207 44.2662C11.8568 45.1831 12.6923 45.6966 13.5478 46.0266C16.1141 47.0169 18.6804 46.9802 21.2467 46.0633C21.7043 45.9166 22.1618 45.6599 22.6393 45.4398Z"/><path fill="#000" d="M7.73872 13.4596C7.7984 13.4229 7.8183 13.3862 7.85808 13.3862C8.99204 12.286 10.126 11.2224 11.24 10.0488C11.7772 9.4987 12.2745 8.83855 12.7321 8.10505C12.9708 7.73831 13.1499 7.22486 13.309 6.71141C13.4085 6.34466 13.4085 5.90457 13.4682 5.39112C13.2891 5.42779 13.1896 5.42779 13.0902 5.50114C12.7719 5.72119 12.4536 5.90457 12.1353 6.19796C10.9018 7.33488 9.78779 8.7652 8.71352 10.3055C8.63395 10.4156 8.55437 10.5256 8.47479 10.6356C8.63394 9.93879 8.83288 9.352 9.03182 8.72853C9.37002 7.59161 9.68832 6.41801 9.82758 5.13439C9.90715 4.4009 9.92705 3.70408 9.78779 2.97058C8.69363 3.6674 7.95755 4.91435 7.63925 6.96814C7.30106 9.13195 7.4801 11.2958 7.73872 13.4596Z"/><path fill="#000" d="M50.3714 3.0072C50.3515 3.19058 50.3316 3.33728 50.3117 3.48397C50.2123 4.40085 50.2918 5.31772 50.4908 6.16124C50.829 7.55488 51.2269 8.87517 51.6048 10.2321C51.6446 10.3788 51.6844 10.5255 51.7242 10.6722C51.6048 10.5989 51.5452 10.4889 51.4656 10.4155C50.7693 9.49864 50.0929 8.50842 49.3568 7.70158C48.6804 6.93141 47.9643 6.34461 47.2481 5.68446C47.1088 5.57444 46.9298 5.53776 46.7507 5.46441C46.7507 5.79449 46.7507 6.01454 46.7706 6.27126C46.8502 7.04143 47.0889 7.6649 47.4072 8.14168C47.7852 8.72847 48.1831 9.31527 48.6208 9.75537C49.8542 11.039 51.1274 12.2493 52.3807 13.4595C52.4006 13.4595 52.4205 13.4595 52.4603 13.4595C52.699 11.5524 52.8383 9.68202 52.6592 7.73825C52.4205 5.31772 51.6645 3.77737 50.3714 3.0072Z"/><path fill="#000" d="M57.4138 25.489C57.3541 25.9658 57.2944 26.4059 57.2148 26.846C57.1552 27.1394 57.1949 27.2861 57.3541 27.4328C57.7321 27.8362 58.1101 28.2763 58.488 28.6797C58.0504 28.7531 57.6326 28.7897 57.2148 28.7531C56.9761 28.7164 56.8965 28.8998 56.8567 29.3032C56.817 29.7066 56.7374 30.11 56.6379 30.5135C56.3594 31.577 56.0809 32.6406 55.7825 33.7042C56.5384 34.401 57.2745 35.0611 58.0305 35.7213C58.3289 34.5844 58.6273 33.4841 58.9257 32.3472C58.7268 32.1638 58.5676 32.0171 58.3886 31.8704C58.2095 32.5673 58.0305 33.2274 57.8315 33.9242C57.7122 33.8142 57.5928 33.7042 57.4933 33.5941C57.6525 33.0073 57.7719 32.4939 57.931 31.9438C57.752 31.7971 57.5928 31.6504 57.4337 31.5037C57.2745 32.0905 57.1353 32.6039 56.996 33.154C56.8766 33.044 56.7971 32.9707 56.6976 32.8607C56.8766 32.1638 57.0557 31.5037 57.2347 30.8069C57.8315 31.1003 58.4682 31.3937 59.1246 31.7237C59.1843 31.2836 59.244 30.8802 59.3037 30.4768C58.866 30.2567 58.4483 30.0367 58.0106 29.8166C58.4085 29.7433 58.8063 29.7066 59.2042 29.7433C59.4429 29.78 59.4429 29.4499 59.4827 29.1932C59.5225 28.9364 59.5623 28.7164 59.3833 28.5697C58.9854 28.203 58.6074 27.7629 58.2095 27.3594C58.2095 27.3228 58.2294 27.3228 58.2294 27.2861C58.7069 27.5061 59.1644 27.7629 59.6618 27.9829C59.7215 27.5428 59.7811 27.1394 59.8408 26.6993C59.0252 26.2592 58.2294 25.8924 57.4138 25.489Z"/><path fill="#000" d="M2.60616 24.719C1.85019 25.4525 1.11412 26.186 0.397935 26.9195C0.358147 26.9562 0.318359 27.0295 0.318359 27.0662C0.358147 27.5063 0.358147 27.9464 0.437723 28.3498C0.457617 28.4598 0.656556 28.4965 0.775919 28.5332C0.954964 28.6065 1.13401 28.6432 1.31305 28.6799C1.8303 28.8266 2.34754 28.9733 2.84488 29.12C2.84488 29.1566 2.84488 29.1933 2.84488 29.1933C2.18839 29.7434 1.4921 30.2569 0.795813 30.7703C1.05443 31.9439 1.31305 33.1175 1.57167 34.2544C1.77061 34.1078 1.92976 33.9611 2.1287 33.8144C1.96955 33.0809 1.8303 32.384 1.67114 31.6872C1.79051 31.6139 1.90987 31.5038 2.02923 31.4305C2.16849 32.0173 2.28786 32.5674 2.40722 33.1542C2.58626 33.0075 2.74541 32.8975 2.92446 32.7508C2.8051 32.164 2.68573 31.6139 2.56637 31.0271C2.66584 30.9537 2.76531 30.8804 2.88467 30.807C3.04382 31.5038 3.18308 32.164 3.34223 32.8241C3.54117 32.6774 3.70032 32.5307 3.85947 32.4207C3.60085 30.7703 3.10351 29.3767 2.90457 27.7263C2.38732 27.6163 1.87008 27.543 1.35284 27.4329C1.35284 27.3963 1.35284 27.3596 1.35284 27.3596C1.8303 26.9562 2.30775 26.5527 2.7852 26.1493C2.70563 25.6725 2.66584 25.2324 2.60616 24.719Z"/><path fill="#000" d="M15.1394 0.0731201C14.284 0.219819 13.4683 0.623242 12.7123 1.28339C11.6182 2.23693 10.8224 3.70393 10.4245 5.83107C10.3649 6.12446 10.3251 6.45454 10.2654 6.85796C12.1752 5.17092 13.9259 3.3005 15.1394 0.0731201Z"/><path fill="#000" d="M49.8938 6.85814C49.8739 6.67476 49.8739 6.56474 49.8739 6.49139C49.6352 4.8777 49.1975 3.5574 48.4813 2.49383C47.7651 1.43026 46.9495 0.806792 46.0742 0.403369C45.736 0.25667 45.3978 0.146646 45.0596 0.0366211C45.0397 0.0732959 45.0397 0.146646 45.0198 0.18332C46.2532 3.30068 48.0039 5.1711 49.8938 6.85814Z"/><path fill="#000" d="M8.79299 43.8633C8.81288 43.8633 8.83277 43.9 8.85267 43.9C8.7532 45.367 8.93224 46.9807 8.17628 48.1543C8.4349 48.4844 8.63384 48.7411 8.83277 48.9978C9.05161 48.521 9.21076 47.9343 9.44948 47.6042C9.68821 47.2374 10.0264 47.0541 10.3248 46.7973C10.3845 46.724 10.4641 46.6873 10.5238 46.614C10.6829 46.4673 10.8222 46.3572 11.0012 46.1739C10.8023 45.9171 10.6232 45.6971 10.4641 45.477C10.3447 45.3303 10.2651 45.2937 10.1458 45.4404C9.94683 45.6604 9.728 45.8438 9.46938 46.1005C9.50917 45.5871 9.52906 45.147 9.56885 44.7435C9.60864 44.4868 9.54895 44.3034 9.42959 44.1567C9.25055 43.9367 9.0715 43.7166 8.91235 43.4599C8.35532 42.5797 7.81819 41.6995 7.26116 40.8193C7.1219 41.1494 6.98264 41.4061 6.84338 41.7362C7.02243 42.0296 7.20147 42.323 7.38052 42.6164C6.96275 43.4966 6.58476 44.3401 6.16699 45.1836C6.38583 45.5137 6.56487 45.8071 6.76381 46.1372C7.18158 45.257 7.57946 44.4135 7.97734 43.5699C8.17628 43.8633 8.33543 44.1201 8.51447 44.4135C8.61394 44.1934 8.69352 44.0467 8.79299 43.8633Z"/><path fill="#000" d="M48.8198 48.7411C48.8397 48.7411 48.8596 48.7044 48.8795 48.7044C49.0983 49.4379 49.337 50.1714 49.5757 50.9416C49.7946 50.7215 49.9935 50.5015 50.1925 50.2814C49.7747 48.9245 49.3569 47.6409 48.9391 46.3206C48.7004 46.5773 48.5015 46.7973 48.2826 47.0174C48.1434 47.1641 48.1036 47.3108 48.1434 47.6042C48.2627 48.411 48.3622 49.2179 48.4816 50.0247C48.4617 50.0614 48.4418 50.0614 48.4219 50.0981C48.0638 49.4012 47.7057 48.7044 47.3277 48.0076C47.0492 48.301 46.7707 48.5944 46.4922 48.9245C46.91 50.2814 47.3277 51.5651 47.7455 52.8854C47.9643 52.6653 48.1633 52.4453 48.3622 52.2252C48.1235 51.455 47.8848 50.7215 47.6659 49.988C47.9842 50.5015 48.2826 51.0516 48.6009 51.6017C48.6606 51.6751 48.7601 51.7484 48.8198 51.7118C48.959 51.6017 49.0784 51.455 49.1978 51.3083C49.0784 50.4281 48.9391 49.5846 48.8198 48.7411Z"/><path fill="#000" d="M52.301 41.6994C52.5995 42.3595 52.8581 42.9463 53.1764 43.6431C52.679 43.313 52.2414 43.0563 51.8037 42.7996C51.7241 42.7629 51.6247 42.7629 51.565 42.8363C51.3859 43.0563 51.2268 43.313 51.0676 43.6064C51.6048 44.78 52.122 45.9536 52.6591 47.1272C52.8581 46.8338 53.0371 46.5404 53.2361 46.247C52.9377 45.6236 52.679 45.0001 52.3607 44.3033C52.8581 44.5967 53.2758 44.8901 53.7135 45.1468C53.7931 45.1835 53.8926 45.2201 53.9522 45.1468C54.1313 44.9267 54.2904 44.6333 54.4695 44.3766C53.9323 43.1663 53.3952 42.0294 52.8581 40.8558C52.679 41.0759 52.5 41.3693 52.301 41.6994Z"/><path fill="#000" d="M58.6272 18.3008C58.6272 18.3374 58.6272 18.3374 58.6471 18.3741C58.289 18.8876 57.9309 19.401 57.5927 19.9145C57.533 19.9878 57.4734 20.1712 57.4734 20.2812C57.4734 20.6846 57.533 21.0514 57.5529 21.4915C58.3885 21.3081 59.1842 21.1247 60.0198 20.9413C59.98 20.4646 59.9601 20.0245 59.9203 19.5844C59.4826 19.6944 59.0649 19.7678 58.6471 19.8411C58.9853 19.2543 59.3434 18.7409 59.7015 18.2274C59.7612 18.1541 59.8208 18.0074 59.8208 17.8973C59.8009 17.4939 59.7611 17.0905 59.7413 16.6504C58.9057 16.8338 58.0901 17.0171 57.2744 17.2005C57.3142 17.6773 57.3341 18.1174 57.3739 18.5942C57.7917 18.4841 58.2094 18.4108 58.6272 18.3008Z"/><path fill="#000" d="M20.6299 56.0392C20.4907 55.0856 20.3514 54.2788 20.232 53.4719C20.2122 53.3619 20.1724 53.1785 20.1127 53.1418C19.9137 52.9951 19.6949 52.9218 19.4562 52.8118C19.2374 54.3154 19.0185 55.7458 18.8196 57.2494C19.0782 57.3594 19.297 57.4695 19.5358 57.6162C19.6551 56.8093 19.7745 56.0758 19.8939 55.1956C20.0331 56.1492 20.1525 56.9193 20.2917 57.7262C20.3116 57.8729 20.3912 58.0196 20.4708 58.0929C20.6697 58.2396 20.8687 58.2763 21.0875 58.3863C21.3063 56.8827 21.5252 55.4524 21.7241 53.9487C21.4655 53.8387 21.2466 53.7286 20.988 53.5819C20.8687 54.3888 20.7692 55.159 20.6299 56.0392Z"/><path fill="#000" d="M27.4734 55.3056C27.4336 56.1491 27.3939 56.9559 27.3342 57.8361C27.1153 56.9926 26.9164 56.2224 26.6976 55.4522C26.6578 55.3422 26.5981 55.1588 26.5583 55.1588C26.3395 55.0855 26.1008 55.0855 25.8819 55.0488C25.8023 56.5892 25.7427 58.0928 25.6631 59.6332C25.9416 59.6699 26.1604 59.7065 26.4191 59.7432C26.4588 58.8997 26.4986 58.0928 26.5384 57.2493C26.7572 58.0562 26.9562 58.863 27.175 59.5965C27.2148 59.7065 27.2745 59.8532 27.3541 59.8899C27.553 59.9633 27.7718 59.9633 28.0106 59.9999C28.0901 58.4596 28.1498 56.9559 28.2294 55.4156C27.9509 55.3789 27.7321 55.3422 27.4734 55.3056Z"/><path fill="#000" d="M39.6089 58.0928C39.4497 56.5524 39.2906 55.0855 39.1314 53.5818C38.8728 53.6918 38.6341 53.7652 38.3953 53.8385C38.4749 54.6454 38.5545 55.4155 38.6341 56.1857C38.2959 55.5989 37.9975 54.9754 37.6792 54.352C37.6394 54.2419 37.5399 54.1319 37.4802 54.1686C37.2614 54.2053 37.0426 54.3153 36.8237 54.3886C36.9829 55.929 37.142 57.396 37.3012 58.8996C37.5598 58.7896 37.7985 58.7163 38.0373 58.6429C37.9577 57.8361 37.8781 57.0659 37.7985 56.2957C38.1367 56.8825 38.455 57.506 38.7534 58.1295C38.7932 58.2395 38.8927 58.3128 38.9524 58.3128C39.1513 58.2762 39.3702 58.1661 39.6089 58.0928Z"/><path fill="#000" d="M0.0199656 22.5548C0.835616 22.6282 1.63137 22.7015 2.48681 22.8115C2.48681 22.3348 2.48681 21.8947 2.48681 21.4179C2.04914 21.3812 1.63137 21.3079 1.15392 21.2712C1.61148 20.8311 2.00936 20.4277 2.40723 20.0242C2.46692 19.9509 2.56638 19.8409 2.56638 19.6942C2.60617 19.2907 2.60617 18.924 2.62607 18.4839C1.79052 18.4105 0.974873 18.3372 0.119435 18.2272C0.119435 18.7406 0.119435 19.144 0.119435 19.6208C0.557101 19.6575 0.974873 19.6942 1.45233 19.7675C1.13402 20.0976 0.875403 20.4277 0.596889 20.611C0.0796473 20.9044 -0.0795039 21.5646 0.0199656 22.5548Z"/><path fill="#000" d="M41.4391 55.6355C41.3794 56.1489 41.2203 56.3323 41.0015 56.4057C40.7826 56.479 40.6036 56.2956 40.5439 55.9289C40.4643 55.5255 40.4046 55.0487 40.4046 54.6086C40.4046 54.3885 40.524 54.0951 40.6434 53.9118C40.7826 53.7284 40.9617 53.7651 41.1009 53.9851C41.1606 54.0585 41.2203 54.1318 41.28 54.1318C41.4789 54.0585 41.6779 53.9484 41.8967 53.8384C41.8768 53.7284 41.8768 53.6917 41.8569 53.6184C41.6381 52.8115 41.2004 52.4815 40.6633 52.7015C40.0465 52.9582 39.6089 53.6917 39.6089 54.6453C39.6089 55.1587 39.6487 55.7088 39.7481 56.1856C40.0267 57.5426 40.7428 57.9827 41.4192 57.2492C41.5386 57.1025 41.658 56.9191 41.7574 56.7357C41.9365 57.2125 42.1354 56.7724 42.3542 56.7724C42.2349 55.9289 42.1155 55.122 41.9962 54.3152C41.6381 54.4986 41.2999 54.6453 40.9418 54.8286C40.9816 55.1587 41.0412 55.4521 41.081 55.7455C41.2004 55.7088 41.2999 55.6722 41.4391 55.6355Z"/><path fill="#000" d="M56.4788 34.8046C56.3594 34.7313 56.2599 34.6579 56.1406 34.6213C55.504 34.4379 54.8276 35.6115 54.8077 36.9318C54.7878 38.0687 55.3249 39.2056 56.0411 39.4624C56.4788 39.6091 56.8169 39.3523 57.0955 38.7289C57.2944 38.2521 57.3939 37.7386 57.374 37.1518C57.7122 37.2985 57.6724 36.7117 57.8514 36.4917C57.4536 36.0149 57.0955 35.5381 56.7175 35.0614C56.5185 35.6115 56.3196 36.1616 56.1008 36.7117C56.2599 36.8951 56.3992 37.0785 56.5185 37.2252C56.5981 37.0418 56.6777 36.8951 56.7374 36.7117C56.8965 37.1518 56.8169 37.4819 56.6976 37.7753C56.5782 38.0687 56.3992 38.2154 56.2201 38.032C55.9814 37.7753 55.7427 37.5186 55.5636 37.1518C55.3448 36.6751 55.5437 35.9782 55.9018 35.9049C55.9814 35.9049 56.0809 35.7949 56.1406 35.6482C56.2599 35.4281 56.3594 35.1347 56.4788 34.8046Z"/><path fill="#000" d="M24.171 56.3694C24.2307 55.6726 24.0914 55.1225 23.8129 54.719C22.9973 53.6188 21.9827 54.2789 21.7439 56.076C21.724 56.2961 21.7041 56.5528 21.6843 56.7728C21.6445 57.9464 22.0225 58.8266 22.6591 58.9733C22.8978 59.01 23.1365 58.9366 23.3752 58.9C23.415 59.1934 23.4747 59.23 23.8925 59.3034C23.992 58.4965 24.0715 57.7264 24.171 56.8829C23.8129 56.7362 23.4747 56.6261 23.1166 56.4794C23.0768 56.8095 23.037 57.1029 22.9973 57.3963C23.1166 57.4697 23.2161 57.5063 23.3355 57.5797C23.1763 58.0198 22.9774 58.0198 22.7585 57.9098C22.5596 57.7997 22.4402 57.5063 22.4601 57.1396C22.48 56.6995 22.5397 56.2227 22.6392 55.7826C22.6988 55.4892 22.858 55.3058 23.037 55.3425C23.2161 55.3792 23.3553 55.5259 23.415 55.856C23.4349 55.966 23.4946 56.076 23.5543 56.1127C23.7731 56.2227 23.9721 56.2961 24.171 56.3694Z"/><path fill="#000" d="M2.88449 16.8702C2.78502 16.8335 2.72533 16.7601 2.64576 16.7235C2.22799 16.5034 1.81022 16.32 1.39244 16.0633C1.13382 15.9166 1.07414 15.6599 1.13382 15.1831C1.2134 14.7063 1.35266 14.5596 1.65106 14.7063C2.12852 14.9631 2.60597 15.2198 3.10332 15.4765C3.18289 14.9997 3.24258 14.5596 3.32215 14.0829C2.8248 13.8261 2.34735 13.5694 1.8699 13.3127C1.25319 12.9826 0.875202 13.3494 0.636476 14.4129C0.576794 14.6697 0.537006 14.9264 0.497218 15.2198C0.357961 16.4667 0.596688 17.1636 1.25319 17.5303C1.65106 17.7504 2.02905 17.9337 2.42693 18.1538C2.5065 18.1904 2.58608 18.2271 2.68555 18.2638C2.74523 17.787 2.80491 17.3469 2.88449 16.8702Z"/><path fill="#000" d="M30.5372 55.4521C29.8807 55.4521 29.2242 55.4521 28.5479 55.4521C28.5479 56.9558 28.5479 58.4595 28.5479 59.9998C29.2242 59.9998 29.8807 59.9998 30.5372 59.9998C30.5372 59.6331 30.5372 59.303 30.5372 58.8996C30.1195 58.8996 29.7216 58.8996 29.3436 58.8996C29.3436 58.6429 29.3436 58.4228 29.3436 58.2028C29.6818 58.2028 30.0001 58.2028 30.3383 58.2028C30.3383 57.8727 30.3383 57.5426 30.3383 57.1392C30.02 57.1392 29.7017 57.1392 29.3635 57.1392C29.3635 56.9191 29.3635 56.7358 29.3635 56.5157C29.7614 56.5157 30.1394 56.5157 30.5372 56.5157C30.5372 56.149 30.5372 55.8556 30.5372 55.4521Z"/><path fill="#000" d="M18.6606 54.2052C18.3423 54.0219 18.024 53.8385 17.7057 53.6551C17.7455 53.4351 17.7654 53.2517 17.8052 53.0683C18.2031 53.2884 18.5611 53.4717 18.9391 53.6918C18.9988 53.325 19.0585 52.995 19.0983 52.6649C18.4418 52.2981 17.8251 51.9681 17.1885 51.6013C16.9497 53.105 16.711 54.5353 16.4524 56.0023C17.1288 56.369 17.7654 56.7358 18.402 57.1025C18.4617 56.7358 18.5214 56.4057 18.581 56.039C18.1832 55.8189 17.8052 55.5989 17.4073 55.3422C17.4471 55.0854 17.4869 54.9021 17.5068 54.6453C17.845 54.8287 18.1434 55.0121 18.4816 55.1588C18.5611 54.8654 18.6009 54.5353 18.6606 54.2052Z"/><path fill="#000" d="M31.6313 56.4423C31.87 56.4056 32.0889 56.369 32.2878 56.369C32.825 56.3323 32.8249 56.3323 32.7653 55.3421C32.7653 55.3054 32.7454 55.3054 32.7255 55.2321C32.0889 55.3054 31.4324 55.3788 30.7759 55.4154C30.8157 56.9558 30.8555 58.4594 30.9151 59.9998C31.6114 59.9264 32.2679 59.8531 32.9642 59.8164C32.9443 59.413 32.9443 59.0829 32.9244 58.7895C32.5066 58.7895 32.1088 58.7895 31.691 58.7895C31.691 58.5695 31.691 58.3494 31.691 58.1294C32.0292 58.0927 32.3475 58.056 32.6857 58.0193C32.6658 57.6526 32.6459 57.3592 32.626 56.9924C32.2878 57.0291 31.9695 57.0291 31.6313 57.0658C31.6512 56.8457 31.6313 56.6624 31.6313 56.4423Z"/><path fill="#000" d="M58.0902 21.6381C57.8913 21.6381 57.7122 21.6381 57.4934 21.6381C57.4934 22.8483 57.4934 24.0586 57.4934 25.2689C58.2892 25.3055 59.1048 25.3789 59.9602 25.4156C59.9602 24.132 59.9602 22.9217 59.9602 21.6747C59.7812 21.6747 59.6022 21.6747 59.3833 21.6747C59.3833 22.4449 59.3833 23.1417 59.3833 23.9119C59.2242 23.8752 59.1048 23.8752 58.9854 23.8752C58.9854 23.2518 58.9854 22.665 58.9854 22.0782C58.7865 22.0782 58.6274 22.0782 58.4284 22.0782C58.4284 22.7016 58.4284 23.2884 58.4284 23.8752C58.2892 23.8752 58.2096 23.8386 58.1101 23.8386C58.0902 23.1051 58.0902 22.4082 58.0902 21.6381Z"/><path fill="#000" d="M3.79987 38.3253C3.58104 38.6921 3.50146 39.0955 3.50146 39.6089C3.52136 40.4158 3.97892 41.5527 4.39669 41.8461C4.71499 42.0662 4.97361 41.8828 5.21234 41.4794C5.43117 41.1126 5.47096 40.6358 5.37149 40.1591C5.29192 39.719 5.19245 39.2789 5.11287 38.8388C5.09298 38.6921 5.13276 38.5087 5.15266 38.362C5.23223 38.4353 5.37149 38.4353 5.41128 38.5454C5.47096 38.6921 5.47096 38.9488 5.49086 39.1322C5.51075 39.2422 5.49086 39.3522 5.53064 39.4622C5.65001 39.7556 5.76937 40.049 5.90863 40.3791C6.14735 39.9757 6.22693 39.4989 6.14735 38.9488C6.04788 38.2153 5.80916 37.6652 5.47096 37.2618C5.23223 36.9684 4.97361 36.9317 4.6951 37.1884C4.3768 37.5185 4.25743 38.0686 4.3569 38.6921C4.43648 39.1688 4.55584 39.6089 4.63542 40.0857C4.65531 40.1957 4.61552 40.3791 4.59563 40.5258C4.51605 40.4891 4.39669 40.4891 4.33701 40.4158C4.21765 40.1957 4.11818 39.9757 4.19775 39.6089C4.21765 39.5356 4.21765 39.3889 4.19775 39.3155C4.07839 38.9855 3.93913 38.6554 3.79987 38.3253Z"/><path fill="#000" d="M14.3237 49.4744C13.9855 50.9047 13.6871 52.2983 13.3489 53.692C13.6075 53.8753 13.8263 54.0587 14.0651 54.2788C14.1844 53.7653 14.3038 53.2885 14.4231 52.8118C14.7017 53.0318 14.9404 53.2152 15.2189 53.3986C15.2985 53.0318 15.3781 52.7384 15.4377 52.4083C15.1592 52.1883 14.9006 51.9683 14.642 51.7482C14.7017 51.4915 14.7415 51.3081 14.8011 51.0881C15.1393 51.3448 15.4576 51.6015 15.7958 51.8582C15.8754 51.4915 15.955 51.1614 16.0346 50.7947C15.4576 50.3912 14.9006 49.9511 14.3237 49.4744Z"/><path fill="#000" d="M56.4988 13.2397C56.7574 14.56 57.016 15.807 57.2547 17.0906C57.4736 16.9439 57.6526 16.7972 57.8516 16.6872C57.772 16.2471 57.6924 15.8803 57.6128 15.4402C58.1898 15.0368 58.7667 14.67 59.3436 14.2666C59.2441 13.7898 59.1646 13.3498 59.0651 12.9097C58.4882 13.3131 57.9112 13.6798 57.3343 14.0466C57.2548 13.6431 57.1752 13.2397 57.0757 12.8363C56.8967 12.983 56.7176 13.1297 56.4988 13.2397Z"/><path fill="#000" d="M6.60467 39.6819C6.00785 40.7455 5.43093 41.7723 4.854 42.7992C5.05294 43.166 5.23199 43.4961 5.43093 43.8628C6.00785 42.8359 6.60467 41.7723 7.20148 40.7088C7.00254 40.342 6.8036 40.0486 6.60467 39.6819Z"/><path fill="#000" d="M35.5901 54.7187C35.7293 56.259 35.8487 57.7627 35.988 59.2664C36.2665 59.193 36.5251 59.083 36.7837 59.0097C36.6445 57.4693 36.5251 56.0023 36.3858 54.4987C36.1272 54.572 35.8885 54.6087 35.5901 54.7187Z"/><path fill="#000" d="M2.60611 24.462C2.56632 23.9485 2.54643 23.4718 2.50664 22.995C1.67109 23.1417 0.875339 23.2884 0.0397949 23.4718C0.0596888 23.9852 0.0994766 24.462 0.119371 24.9388C0.954914 24.7921 1.77056 24.6087 2.60611 24.462Z"/><path fill="#000" d="M25.1659 59.4868C25.2653 57.9464 25.3648 56.4428 25.4643 54.9391C25.1858 54.8658 24.9271 54.8291 24.6685 54.7557C24.5691 56.2961 24.4696 57.7997 24.3701 59.3034C24.6486 59.3768 24.8874 59.4501 25.1659 59.4868Z"/><path fill="#000" d="M45.0399 31.1004C44.1446 31.1004 43.2693 31.1004 42.3542 31.1004C42.3542 27.0662 42.3542 23.0686 42.3542 19.0344H42.3343C42.2945 19.4011 42.2348 19.8046 42.195 20.1713C41.7574 23.6921 41.2998 27.2495 40.8621 30.7703C40.8422 30.917 40.7627 31.1004 40.703 31.1004C40.0465 31.1371 39.39 31.1004 38.7136 31.1004C38.1964 27.1395 37.699 23.2153 37.2017 19.3278C37.2017 23.1786 37.2017 27.1028 37.2017 31.0637C36.2865 31.0637 35.3913 31.0637 34.4961 31.0637C34.4961 24.8657 34.4961 18.6676 34.4961 12.4329C34.5956 12.4329 34.6552 12.3962 34.7348 12.3962C35.7892 12.3962 36.8436 12.3962 37.9178 12.3962C38.1168 12.3962 38.1765 12.5063 38.2163 12.8363C38.7136 16.5405 39.211 20.2447 39.7083 23.9488C39.7282 24.0222 39.7282 24.0955 39.7879 24.2055C39.8277 23.7288 39.8674 23.2887 39.947 22.8119C40.3847 19.6212 40.8422 16.4671 41.2799 13.2764C41.3993 12.3962 41.3993 12.3962 41.9165 12.3962C42.8714 12.3962 43.8263 12.3962 44.7812 12.3962C44.8608 12.3962 44.9603 12.3962 45.0598 12.3962C45.0399 18.7043 45.0399 24.9024 45.0399 31.1004Z"/><path fill="#000" d="M20.5703 12.4695C21.5849 12.4695 22.5597 12.4695 23.5544 12.4695C23.5544 12.5428 23.5743 12.6162 23.5743 12.6895C23.5743 16.7604 23.5942 20.8313 23.5544 24.9389C23.5146 28.423 22.5 30.6235 20.6499 31.357C19.4563 31.8338 18.2626 31.7971 17.0889 31.1003C15.6366 30.2201 14.7215 28.1296 14.7016 25.3057C14.6618 21.0881 14.6817 16.8705 14.6817 12.6895C14.6817 12.6162 14.7016 12.5795 14.7016 12.5062C15.6963 12.5062 16.6711 12.5062 17.6857 12.5062C17.6857 12.6895 17.6857 12.8729 17.6857 13.0196C17.6857 16.6504 17.6857 20.2812 17.6857 23.8753C17.6857 24.3521 17.7255 24.8656 17.7653 25.3423C17.8648 26.1492 18.1433 26.6993 18.5809 26.8093C18.939 26.8827 19.2971 26.9194 19.6353 26.8093C20.2122 26.626 20.4709 25.8925 20.5305 24.6088C20.5504 24.2788 20.5504 23.9487 20.5504 23.582C20.5504 20.0612 20.5504 16.5404 20.5504 13.0196C20.5703 12.9096 20.5703 12.7262 20.5703 12.4695Z"/><path fill="#000" d="M32.8647 16.9071C31.3727 16.9071 29.9006 16.9071 28.4085 16.9071C28.4085 17.7507 28.4085 18.5575 28.4085 19.401C29.6618 19.401 30.9151 19.401 32.1685 19.401C32.1685 20.8313 32.1685 22.225 32.1685 23.6553C30.9151 23.6553 29.6618 23.6553 28.4085 23.6553C28.4085 24.6455 28.4085 25.5991 28.4085 26.5526C29.9403 26.5526 31.4921 26.5526 33.0438 26.5526C33.0438 26.736 33.0637 26.846 33.0637 26.9927C33.0637 28.2396 33.0637 29.4499 33.0637 30.6969C33.0637 31.0269 33.0239 31.137 32.8449 31.137C30.4178 31.137 28.0106 31.137 25.5836 31.137C25.5239 31.137 25.4642 31.1003 25.3846 31.1003C25.3846 30.9536 25.3647 30.8069 25.3647 30.6602C25.3647 24.7555 25.3647 18.8509 25.3647 12.9829C25.3647 12.5795 25.4244 12.4695 25.6433 12.4695C27.9708 12.4695 30.2984 12.4695 32.6061 12.4695C32.8051 12.4695 32.8846 12.5428 32.8846 12.9463C32.8647 14.1198 32.8846 15.2934 32.8846 16.467C32.8647 16.5771 32.8647 16.7238 32.8647 16.9071Z"/><path fill="#000" d="M31.6512 46.3202C33.5014 47.8972 35.3714 49.4742 36.8634 52.1881C36.4258 52.1881 35.9881 52.1881 35.5703 52.1881C35.5305 52.1881 35.4709 52.1148 35.4311 52.0414C34.1976 49.7676 32.6857 48.4106 31.0743 47.3104C30.0995 46.6502 30.0995 46.6502 29.1446 47.3104C27.6724 48.3006 26.26 49.5476 25.1061 51.528C24.8077 52.0414 24.5093 52.2982 24.0915 52.2248C23.8528 52.1881 23.5942 52.2248 23.3356 52.1515C24.8276 49.4742 26.6976 47.9339 28.5478 46.3202C28.4284 46.3568 28.2892 46.3568 28.1698 46.3935C28.0504 46.4302 27.9112 46.4669 27.7918 46.5035C27.6526 46.5402 27.5133 46.5769 27.3939 46.6502C26.2202 47.3471 25.0465 48.0439 23.8528 48.7774C22.3807 49.6943 20.8687 50.3911 19.2971 50.3544C18.1433 50.3544 17.0491 49.9143 15.9748 49.0708C15.935 49.0341 15.8953 48.9974 15.8555 48.8874C15.935 48.8874 16.0345 48.8874 16.1141 48.8874C18.1035 48.8874 20.0531 48.594 21.943 47.4571C22.9178 46.8703 23.8727 46.2101 24.8276 45.6967C26.4987 44.7798 28.1698 44.6698 29.8807 45.4033C30.0995 45.5133 30.378 45.3666 30.5968 45.2933C32.626 44.5231 34.5756 45.1466 36.5053 46.3935C37.6194 47.127 38.7335 47.8972 39.9072 48.3006C41.2799 48.7774 42.6526 48.9241 44.0451 48.9241C44.1247 48.9241 44.2043 48.9241 44.3037 48.9608C43.7467 49.4742 43.1499 49.8043 42.5332 50.061C40.7228 50.7578 38.9523 50.281 37.2215 49.2908C36.187 48.704 35.1923 47.9705 34.1579 47.3837C33.4218 46.9803 32.6658 46.6869 31.9098 46.3935C31.8303 46.3202 31.7308 46.3202 31.6512 46.3202Z"/><path fill="#000" d="M4.11806 16.5403C5.3117 19.6943 6.54512 22.7383 7.04246 26.5525C7.12204 22.775 8.11673 20.0244 9.8674 17.9706C9.80771 18.6674 9.76793 19.3276 9.70825 19.9144C9.5292 21.7114 9.15122 23.3618 8.81302 25.0488C8.63398 25.9657 8.43504 26.8459 8.29578 27.7995C8.15652 28.7163 8.07695 29.6699 7.95758 30.6234C7.97748 30.6234 7.95758 30.6234 7.93769 30.6234C6.64459 29.1198 5.49074 27.286 4.69499 24.8288C3.89923 22.3349 3.72019 19.621 4.03849 16.797C4.05838 16.7237 4.07828 16.687 4.11806 16.5403Z"/><path fill="#000" d="M50.3912 18.0443C52.0822 20.0248 53.0768 22.7754 53.1564 26.5896C53.6737 22.7754 54.8872 19.7314 56.0609 16.614C56.0808 16.614 56.1007 16.614 56.1405 16.614C56.2002 17.3475 56.2599 18.1177 56.2798 18.8512C56.3593 21.3451 55.9615 23.5822 55.2055 25.636C54.5291 27.4331 53.1365 29.7803 52.2214 30.6238C52.1219 29.7436 52.0623 28.8267 51.923 27.9465C51.6246 26.2228 51.2665 24.5358 50.9283 22.8121C50.6498 21.3817 50.4509 19.9147 50.3713 18.3744C50.3713 18.2644 50.3713 18.1544 50.3713 18.081C50.3514 18.0443 50.3713 18.0443 50.3912 18.0443Z"/><path fill="#000" d="M6.60481 8.14198C6.66449 9.20555 6.70428 10.3058 6.76396 11.3694C6.82364 12.7997 6.88332 14.1933 6.9629 15.6236C6.98279 15.8804 7.02258 16.1004 7.08226 16.4305C8.27589 14.5601 9.50932 12.7997 10.9616 11.6628C11.1008 12.5796 11.061 13.4232 10.8024 14.1933C10.6035 14.7434 10.3846 15.2936 10.126 15.7703C9.72815 16.4672 9.29048 17.0906 8.87271 17.7508C8.11674 18.8877 7.40056 20.0613 6.84353 21.6383C6.74406 21.4183 6.66449 21.2349 6.58491 21.0148C5.63 18.631 5.01329 15.9904 5.13266 12.9464C5.21223 11.1493 5.57032 9.60897 6.34618 8.43538C6.40587 8.32536 6.48544 8.25201 6.54512 8.17866C6.54512 8.10531 6.58491 8.14198 6.60481 8.14198Z"/><path fill="#000" d="M53.1765 16.3568C53.2361 15.4399 53.3356 14.523 53.3754 13.5695C53.4351 12.1025 53.4749 10.6355 53.5346 9.16852C53.5544 8.80177 53.5942 8.4717 53.6539 7.95825C53.8728 8.36167 54.0916 8.65507 54.2507 8.98515C54.768 10.0487 55.0266 11.3323 55.0863 12.726C55.2255 16.1001 54.5094 18.924 53.4152 21.4913C53.3754 21.4913 53.3555 21.4913 53.3555 21.4546C52.7388 19.8042 51.9033 18.5206 51.0677 17.237C50.6102 16.5402 50.1725 15.8433 49.7746 15.0365C49.2773 14.0829 49.0584 12.9827 49.2574 11.5891C50.7096 12.726 51.9232 14.4497 53.0969 16.3201C53.1168 16.3568 53.1367 16.3568 53.1765 16.3568Z"/><path fill="#000" d="M48.541 37.8115C49.2572 35.6477 49.3766 33.3372 49.4959 30.99C49.5755 29.523 49.6352 28.056 49.9336 26.6991C50.0132 26.3323 50.1126 26.0022 50.232 25.5621C51.2267 28.3494 51.0079 31.2834 50.7492 34.3274C52.6591 31.7602 54.4296 28.9729 56.1604 26.1123C56.1803 26.1489 56.2002 26.1489 56.2201 26.1856C56.1007 26.9191 56.0012 27.6526 55.862 28.3494C55.4044 30.5132 54.6286 32.237 53.6538 33.6306C52.1418 35.7577 50.411 36.9313 48.541 37.8115Z"/><path fill="#000" d="M11.6379 37.8121C9.13128 36.6018 6.80369 34.9148 5.17239 31.1006C4.59547 29.7436 4.21749 28.24 4.01855 26.5529C3.99865 26.4062 3.99865 26.2595 3.97876 26.0395C5.74932 28.9368 7.51987 31.7607 9.42969 34.328C9.17107 31.284 8.95223 28.35 9.92704 25.5994C10.2453 26.4429 10.4045 27.3231 10.4841 28.24C10.6034 29.6336 10.683 31.0639 10.7626 32.4576C10.862 34.328 11.0809 36.0884 11.6379 37.8121Z"/><path fill="#000" d="M54.0319 35.5743C51.3462 41.4423 47.7454 43.166 43.7666 43.166C43.7666 43.0927 43.7666 43.056 43.7666 43.0193C44.7414 41.3689 45.3979 39.2785 46.0345 37.188C46.4921 35.721 46.9496 34.254 47.4072 32.7503C47.447 32.6403 47.4868 32.5303 47.5464 32.3469C47.7852 33.3738 47.8449 34.364 47.7653 35.3909C47.6061 37.3714 47.0491 38.9851 46.3528 40.4887C46.2533 40.7088 46.134 40.9655 46.0345 41.1856C46.0544 41.2222 46.0544 41.2589 46.0743 41.2956C48.7401 39.4252 51.386 37.5181 54.0319 35.5743Z"/><path fill="#000" d="M6.08765 35.5376C8.79322 37.5181 11.4391 39.4252 14.0651 41.3689C14.085 41.3323 14.085 41.2956 14.1049 41.2589C14.0452 41.1489 14.0054 41.0389 13.9457 40.9288C13.2892 39.5719 12.7322 38.1415 12.4736 36.3445C12.2945 35.1709 12.2746 33.9973 12.4935 32.8237C12.5134 32.677 12.5532 32.567 12.593 32.3469C12.772 32.897 12.951 33.4105 13.1102 33.8873C13.5479 35.3176 13.9855 36.7846 14.4431 38.2149C15.0001 39.9753 15.5969 41.6623 16.4723 43.1293C14.4829 43.166 12.6128 42.7626 10.7826 41.5523C8.95237 40.3787 7.38075 38.3983 6.08765 35.5376Z"/><path fill="#000" d="M43.9654 38.8022C44.045 39.4991 43.9654 40.0492 43.8261 40.5993C43.5874 41.5162 43.2293 42.2497 42.7917 42.7998C42.2545 43.4599 41.6975 44.0467 41.1604 44.6335C44.0649 44.7802 47.0092 44.7436 49.8341 42.8365C49.854 42.8732 49.854 42.9098 49.8739 42.9465C49.7147 43.2399 49.5755 43.57 49.3964 43.8267C48.6604 44.9636 47.7651 45.5137 46.85 45.9172C45.1192 46.6873 43.3487 46.834 41.5582 46.6507C40.3049 46.5406 39.0715 46.2106 37.8779 45.5504C37.7784 45.4771 37.659 45.4404 37.48 45.3304C39.8474 43.7533 41.976 41.5529 43.9654 38.8022Z"/><path fill="#000" d="M22.6393 45.4404C22.1817 45.6604 21.7242 45.9172 21.2467 46.1005C18.6804 46.9807 16.1141 47.0541 13.5478 46.0639C12.6923 45.7338 11.8568 45.2204 11.1207 44.3035C10.8223 43.9367 10.5637 43.46 10.325 42.9465C13.1698 44.7803 16.1141 44.8169 19.0584 44.5969C18.9788 44.5235 18.9191 44.4502 18.8395 44.4135C18.2029 43.8634 17.5862 43.2399 17.069 42.3597C16.6512 41.6629 16.313 40.8927 16.2135 39.8291C16.1937 39.5357 16.1937 39.2423 16.1738 38.8022C18.2029 41.5895 20.3316 43.79 22.6393 45.367C22.6393 45.367 22.6393 45.4037 22.6393 45.4404Z"/><path fill="#000" d="M7.73868 13.4596C7.48006 11.2591 7.30101 9.13195 7.61931 6.93146C7.93762 4.87767 8.69358 3.63073 9.78775 2.97058C9.9469 3.70408 9.90711 4.43757 9.82754 5.13439C9.68828 6.41801 9.36998 7.59161 9.03178 8.72853C8.85274 9.352 8.6538 9.97547 8.47475 10.6356C8.55433 10.5256 8.6339 10.4156 8.71348 10.3055C9.80764 8.7652 10.9217 7.29821 12.1352 6.19796C12.4336 5.90457 12.7718 5.72119 13.0901 5.50114C13.1896 5.42779 13.2891 5.42779 13.4681 5.39112C13.4084 5.90457 13.4084 6.34466 13.309 6.71141C13.1697 7.22486 12.9708 7.73831 12.732 8.10505C12.2546 8.80188 11.7572 9.4987 11.24 10.0488C10.1259 11.2224 8.99199 12.286 7.85804 13.3862C7.83815 13.4229 7.79836 13.4229 7.73868 13.4596Z"/><path fill="#000" d="M50.3713 3.0072C51.6644 3.77737 52.4204 5.31772 52.6392 7.73825C52.8182 9.68202 52.679 11.5524 52.4403 13.4595C52.4005 13.4595 52.3806 13.4595 52.3607 13.4595C51.1074 12.2126 49.8541 11.0023 48.6007 9.75537C48.1631 9.31527 47.7652 8.72847 47.3872 8.14168C47.0689 7.6649 46.8302 7.04143 46.7506 6.27126C46.7307 6.05121 46.7307 5.83116 46.7307 5.46441C46.9297 5.53776 47.0888 5.57444 47.2281 5.68446C47.9442 6.34461 48.6604 6.93141 49.3368 7.70158C50.0729 8.50842 50.7493 9.49864 51.4456 10.4155C51.5251 10.5255 51.5848 10.6356 51.7042 10.6722C51.6644 10.5255 51.6246 10.3788 51.5848 10.2321C51.2068 8.87517 50.809 7.55488 50.4708 6.16124C50.2718 5.31772 50.1923 4.43752 50.2917 3.48397C50.3315 3.33728 50.3514 3.19058 50.3713 3.0072Z"/><path fill="#000" d="M57.4136 25.489C58.2293 25.8924 59.0052 26.2959 59.8208 26.6626C59.7611 27.1027 59.7014 27.5061 59.6418 27.9462C59.1444 27.6895 58.6869 27.4695 58.2094 27.2494C58.2094 27.2861 58.1895 27.2861 58.1895 27.3228C58.5874 27.7262 58.9654 28.1663 59.3632 28.533C59.5622 28.7164 59.5224 28.8998 59.4627 29.1565C59.4229 29.4132 59.4428 29.7433 59.1842 29.7066C58.7863 29.6699 58.3884 29.7066 57.9906 29.78C58.4083 30 58.846 30.2201 59.2837 30.4401C59.224 30.8802 59.1643 31.247 59.1046 31.6871C58.4481 31.357 57.8314 31.0636 57.2147 30.7702C57.0357 31.467 56.8566 32.1272 56.6776 32.824C56.777 32.8973 56.8566 33.0074 56.976 33.1174C57.1152 32.5673 57.2744 32.0171 57.4136 31.467C57.5728 31.6137 57.732 31.7604 57.911 31.9071C57.7717 32.4572 57.6325 33.0074 57.4733 33.5575C57.5927 33.6675 57.6922 33.7775 57.8115 33.8875C57.9906 33.1907 58.1696 32.5306 58.3686 31.8338C58.5476 31.9805 58.7068 32.1272 58.9057 32.3105C58.6073 33.4474 58.3089 34.5477 58.0105 35.6846C57.2545 35.0245 56.5184 34.3643 55.7625 33.6675C56.041 32.6039 56.3394 31.5404 56.6179 30.4768C56.7174 30.11 56.777 29.7066 56.8367 29.2665C56.8765 28.8631 56.976 28.7164 57.1948 28.7164C57.6126 28.7531 58.0304 28.7164 58.468 28.643C58.09 28.2396 57.7121 27.7995 57.3341 27.3961C57.1948 27.2494 57.155 27.1027 57.1948 26.8093C57.2943 26.4059 57.354 25.9658 57.4136 25.489Z"/><path fill="#000" d="M2.60604 24.719C2.66572 25.2324 2.70551 25.6725 2.7453 26.186C2.26784 26.5894 1.79039 26.9928 1.31294 27.3963C1.31294 27.4329 1.31294 27.4696 1.31294 27.4696C1.83018 27.5796 2.34742 27.653 2.86466 27.763C3.0636 29.4134 3.56095 30.807 3.81957 32.4574C3.66042 32.5674 3.48137 32.7141 3.30233 32.8608C3.14317 32.164 3.00392 31.5038 2.84477 30.8437C2.7254 30.917 2.64583 30.9904 2.52646 31.0637C2.64583 31.6505 2.76519 32.2007 2.88455 32.7875C2.70551 32.9342 2.54636 33.0442 2.36731 33.1909C2.22806 32.6041 2.10869 32.054 1.98933 31.4672C1.86997 31.5405 1.7506 31.6139 1.63124 31.7239C1.79039 32.4207 1.92965 33.1175 2.0888 33.851C1.90975 33.9977 1.73071 34.1077 1.53177 34.2911C1.27315 33.1175 1.03442 31.9806 0.755907 30.807C1.45219 30.2936 2.14848 29.7801 2.82487 29.2667C2.82487 29.23 2.82487 29.1933 2.82487 29.1933C2.30763 29.0466 1.79039 28.8999 1.29304 28.7532C1.15378 28.6432 0.97474 28.6065 0.795694 28.5699C0.676331 28.5332 0.477392 28.4965 0.457498 28.3865C0.377923 27.9831 0.358029 27.543 0.338135 27.1029C0.338135 27.0662 0.377923 26.9928 0.41771 26.9562C1.114 26.186 1.85007 25.4525 2.60604 24.719Z"/><path fill="#000" d="M15.1394 0.0731201C13.9259 3.3005 12.1752 5.17092 10.2654 6.85796C10.3251 6.41786 10.3649 6.12446 10.4245 5.83107C10.8224 3.70393 11.6182 2.23693 12.7123 1.28339C13.4683 0.623242 14.284 0.219819 15.1394 0.0731201Z"/><path fill="#000" d="M49.8938 6.85819C48.0039 5.17115 46.2532 3.30073 45.0198 0.146699C45.0397 0.110024 45.0397 0.0366748 45.0596 0C45.3978 0.110024 45.736 0.220049 46.0742 0.366748C46.9495 0.770171 47.785 1.39364 48.4813 2.45721C49.1776 3.52078 49.6352 4.87775 49.8739 6.45477C49.8739 6.56479 49.8739 6.63814 49.8938 6.85819Z"/><path fill="#000" d="M8.79299 43.8628C8.71341 44.0462 8.61394 44.1929 8.51447 44.3762C8.33543 44.1195 8.17628 43.8261 7.97734 43.5327C7.57946 44.3762 7.18158 45.2198 6.76381 46.1C6.56487 45.7699 6.36593 45.4765 6.16699 45.1464C6.56487 44.3029 6.96275 43.4594 7.38052 42.5792C7.20147 42.2858 7.02243 41.9924 6.84338 41.699C6.98264 41.4056 7.1219 41.1122 7.26116 40.7821C7.81819 41.6623 8.35532 42.5425 8.91235 43.4227C9.0715 43.6794 9.25055 43.9361 9.42959 44.1195C9.54895 44.2662 9.58874 44.4129 9.56885 44.7063C9.52906 45.1097 9.50917 45.5498 9.46938 46.0633C9.728 45.8066 9.94683 45.6232 10.1458 45.4031C10.2651 45.2564 10.3646 45.2931 10.4641 45.4398C10.6232 45.6599 10.8023 45.8799 11.0012 46.1366C10.8222 46.2833 10.663 46.43 10.5238 46.5767C10.4641 46.6501 10.4044 46.6868 10.3248 46.7601C10.0264 47.0168 9.70811 47.2002 9.44948 47.5669C9.21076 47.9337 9.03171 48.4838 8.83277 48.9606C8.63384 48.7039 8.415 48.4471 8.17628 48.1171C8.93224 46.9435 8.7532 45.3298 8.85267 43.8628C8.83277 43.8995 8.81288 43.8628 8.79299 43.8628Z"/><path fill="#000" d="M48.8196 48.7411C48.939 49.5846 49.0783 50.4281 49.2175 51.3083C49.0982 51.455 48.9788 51.6017 48.8395 51.7118C48.7799 51.7484 48.6804 51.6751 48.6207 51.6017C48.3223 51.0883 48.0239 50.5382 47.6857 49.988C47.9045 50.7215 48.1433 51.455 48.382 52.2252C48.183 52.4453 47.9841 52.6653 47.7653 52.8854C47.3475 51.5651 46.9496 50.2448 46.512 48.9245C46.7905 48.6311 47.069 48.3377 47.3475 48.0076C47.7056 48.7044 48.0836 49.4012 48.4417 50.0981C48.4616 50.0614 48.4815 50.0614 48.5013 50.0247C48.382 49.2179 48.2825 48.411 48.1632 47.6042C48.1234 47.3108 48.1433 47.1641 48.3024 47.0174C48.5212 46.7973 48.7202 46.5773 48.9589 46.3206C49.3767 47.6409 49.7745 48.9611 50.2122 50.2814C49.9934 50.5015 49.8143 50.7215 49.5955 50.9416C49.3568 50.1714 49.1379 49.4379 48.8992 48.7044C48.8594 48.7044 48.8395 48.7411 48.8196 48.7411Z"/><path fill="#000" d="M52.3009 41.6995C52.4999 41.3695 52.6789 41.1127 52.8779 40.8193C53.415 41.9929 53.9322 43.1298 54.4893 44.3401C54.3102 44.5968 54.1511 44.8902 53.972 45.1103C53.9123 45.1836 53.8129 45.147 53.7333 45.1103C53.2956 44.8536 52.8779 44.5968 52.3805 44.2668C52.6988 44.9636 52.9773 45.5504 53.2558 46.2105C53.0569 46.5039 52.8779 46.7973 52.6789 47.0907C52.1418 45.9171 51.6245 44.7435 51.0874 43.5699C51.2664 43.3132 51.4256 43.0198 51.5848 42.7998C51.6444 42.7264 51.7439 42.7264 51.8235 42.7631C52.2611 43.0198 52.6988 43.3132 53.1962 43.6066C52.858 42.9465 52.5794 42.323 52.3009 41.6995Z"/><path fill="#000" d="M58.6273 18.3008C58.2096 18.4108 57.7918 18.4841 57.3541 18.5942C57.3143 18.1541 57.2944 17.714 57.2546 17.2005C58.0902 17.0171 58.8859 16.8338 59.7215 16.6504C59.7613 17.0905 59.8011 17.4939 59.8011 17.8973C59.8011 18.0074 59.7414 18.1541 59.6817 18.2274C59.3236 18.7409 58.9655 19.2543 58.6273 19.8411C59.0451 19.7678 59.4629 19.6577 59.9005 19.5844C59.9403 20.0245 59.9602 20.4646 60 20.9413C59.1645 21.1247 58.3687 21.3081 57.5332 21.4915C57.4934 21.0514 57.4536 20.6846 57.4536 20.2812C57.4536 20.1712 57.5133 19.9878 57.5729 19.9145C57.931 19.401 58.2891 18.8876 58.6273 18.3741C58.6273 18.3741 58.6273 18.3374 58.6273 18.3008Z"/><path fill="#000" d="M20.6299 56.0392C20.7692 55.159 20.8687 54.3888 20.988 53.5819C21.2267 53.692 21.4655 53.802 21.7241 53.9487C21.5053 55.4524 21.3063 56.8827 21.0875 58.3863C20.8687 58.2763 20.6697 58.203 20.4708 58.0929C20.3912 58.0563 20.3315 57.8729 20.2917 57.7262C20.1525 56.9193 20.0331 56.1125 19.8939 55.1956C19.7546 56.0758 19.6551 56.846 19.5358 57.6162C19.297 57.5061 19.0583 57.3961 18.8196 57.2494C19.0384 55.7824 19.2374 54.3154 19.4562 52.8118C19.675 52.9218 19.8939 52.9951 20.1127 53.1418C20.1724 53.1785 20.2122 53.3619 20.232 53.4719C20.3514 54.2788 20.4907 55.0856 20.6299 56.0392Z"/><path fill="#000" d="M27.4734 55.3056C27.7321 55.3422 27.9509 55.3789 28.2294 55.4156C28.1498 56.9559 28.0901 58.4229 28.0106 59.9999C27.7718 59.9633 27.553 59.9633 27.3541 59.8899C27.2944 59.8532 27.2148 59.7065 27.175 59.5965C26.9562 58.8263 26.7572 58.0562 26.5384 57.2493C26.4986 58.0928 26.4588 58.8997 26.4191 59.7432C26.1803 59.7065 25.9416 59.6699 25.6631 59.6332C25.7427 58.0928 25.8023 56.6258 25.8819 55.0488C26.1206 55.0855 26.3395 55.0855 26.5583 55.1588C26.618 55.1588 26.6777 55.3422 26.6976 55.4522C26.8965 56.2224 27.0954 56.9559 27.3342 57.8361C27.3939 56.9559 27.4336 56.1491 27.4734 55.3056Z"/><path fill="#000" d="M39.6089 58.0928C39.3702 58.1661 39.1712 58.2762 38.9524 58.3128C38.8927 58.3128 38.8131 58.2395 38.7534 58.1295C38.4351 57.506 38.1367 56.8825 37.7985 56.2957C37.8781 57.0659 37.9577 57.7994 38.0373 58.6429C37.7985 58.7163 37.5598 58.8263 37.3012 58.8996C37.142 57.396 36.9829 55.929 36.8237 54.3886C37.0625 54.3153 37.2614 54.2053 37.4802 54.1686C37.5399 54.1686 37.6195 54.2786 37.6792 54.352C37.9776 54.9754 38.2959 55.5989 38.6341 56.1857C38.5545 55.4155 38.4749 54.6454 38.3953 53.8385C38.6341 53.7652 38.8728 53.6551 39.1314 53.5818C39.2906 55.0855 39.4298 56.5524 39.6089 58.0928Z"/><path fill="#000" d="M0.0199656 22.5548C-0.0795039 21.5646 0.0796473 20.9044 0.596889 20.611C0.875403 20.4277 1.13402 20.0976 1.45233 19.7675C0.974873 19.7308 0.557101 19.6575 0.119435 19.6208C0.119435 19.1807 0.119435 18.7406 0.119435 18.2272C0.954979 18.3005 1.79052 18.3739 2.62607 18.4839C2.60617 18.924 2.60617 19.3274 2.56638 19.6942C2.54649 19.8042 2.46692 19.9509 2.40723 20.0242C2.00936 20.4277 1.61148 20.7944 1.15392 21.2712C1.63137 21.3079 2.06904 21.3812 2.48681 21.4179C2.48681 21.8947 2.48681 22.3348 2.48681 22.8115C1.65127 22.7382 0.835616 22.6282 0.0199656 22.5548Z"/><path fill="#000" d="M41.4391 55.6355C41.2999 55.6722 41.2004 55.7088 41.081 55.7455C41.0412 55.4521 41.0015 55.1587 40.9418 54.8286C41.2999 54.6453 41.6381 54.4986 41.9962 54.3152C42.1155 55.122 42.2349 55.8922 42.3542 56.7724C42.1354 56.7724 41.9564 57.2125 41.7574 56.7357C41.6381 56.9191 41.5386 57.1025 41.4192 57.2492C40.7428 57.9827 40.0267 57.5426 39.7481 56.1856C39.6487 55.7088 39.6089 55.1587 39.6089 54.6453C39.6089 53.6917 40.0465 52.9215 40.6633 52.7015C41.2004 52.4815 41.6381 52.8115 41.8569 53.6184C41.8768 53.655 41.8768 53.7284 41.8967 53.8384C41.6779 53.9484 41.4789 54.0585 41.28 54.1318C41.2203 54.1685 41.1407 54.0585 41.1009 53.9851C40.9617 53.7651 40.7826 53.6917 40.6434 53.9118C40.524 54.0585 40.4046 54.3519 40.4046 54.6086C40.4046 55.0487 40.4643 55.4888 40.5439 55.9289C40.6036 56.2956 40.7826 56.479 41.0015 56.4057C41.2004 56.3323 41.3794 56.1489 41.4391 55.6355Z"/><path fill="#000" d="M56.4786 34.8043C56.3593 35.1344 56.2598 35.4278 56.1603 35.6845C56.1006 35.7946 56.0012 35.9046 55.9216 35.9413C55.5834 36.0146 55.3646 36.7114 55.5834 37.1882C55.7625 37.555 56.0012 37.8484 56.2399 38.0684C56.4189 38.2518 56.598 38.1051 56.7174 37.8117C56.8367 37.5183 56.9163 37.1882 56.7571 36.7481C56.6776 36.9315 56.6179 37.0782 56.5383 37.2616C56.3991 37.1149 56.2797 36.9315 56.1205 36.7481C56.3195 36.198 56.5184 35.6479 56.7373 35.0977C57.1152 35.5745 57.4932 36.0146 57.8712 36.5281C57.6921 36.7848 57.7319 37.3349 57.3937 37.1882C57.4136 37.775 57.3142 38.3251 57.1152 38.7652C56.8367 39.3887 56.4985 39.6454 56.0609 39.4987C55.3447 39.242 54.7877 38.1418 54.8274 36.9682C54.8672 35.6479 55.5237 34.4743 56.1603 34.6576C56.2399 34.6576 56.3593 34.731 56.4786 34.8043Z"/><path fill="#000" d="M24.1711 56.3693C23.9523 56.2959 23.7732 56.2226 23.5743 56.1493C23.5146 56.1126 23.4549 56.0025 23.435 55.8925C23.3555 55.5624 23.2361 55.4158 23.0571 55.3791C22.8581 55.3424 22.7189 55.5258 22.6592 55.8192C22.5796 56.2593 22.5199 56.6994 22.4801 57.1761C22.4602 57.5429 22.5796 57.8363 22.7785 57.9463C22.9775 58.0563 23.1963 58.0563 23.3555 57.6162C23.2361 57.5429 23.1366 57.5062 23.0173 57.4329C23.0571 57.1395 23.0968 56.8461 23.1366 56.516C23.4947 56.6627 23.8329 56.7727 24.191 56.9194C24.0915 57.7629 24.012 58.5331 23.9125 59.34C23.4947 59.3033 23.435 59.2299 23.3953 58.9365C23.1366 58.9732 22.8979 59.0466 22.6791 59.0099C22.0425 58.8632 21.6645 57.983 21.7043 56.8094C21.7043 56.5893 21.7242 56.3326 21.764 56.1126C22.0027 54.3155 23.0173 53.6187 23.8329 54.7556C24.1114 55.1224 24.2308 55.6725 24.1711 56.3693Z"/><path fill="#000" d="M13.7468 50.1346C13.7468 51.4916 13.1301 52.7752 12.4736 52.8119C11.7574 52.8119 11.0811 51.675 11.0811 50.4647C11.0811 49.1077 11.6978 47.8608 12.3543 47.8241C13.0704 47.8241 13.7468 48.9243 13.7468 50.1346ZM12.9909 50.0979C13.0108 49.5478 12.9113 49.3278 12.7322 49.1444C12.5532 48.961 12.3543 48.961 12.2349 49.2544C12.0758 49.6578 11.9564 50.0979 11.8569 50.538C11.7972 50.8681 11.8967 51.1615 12.0559 51.3449C12.215 51.5283 12.4139 51.6016 12.5731 51.3449C12.8118 51.0148 12.9511 50.5014 12.9909 50.0979Z"/><path fill="#000" d="M2.88449 16.8702C2.80491 17.3103 2.74523 17.7504 2.68555 18.2272C2.58608 18.1905 2.5065 18.1538 2.42693 18.1171C2.02905 17.8971 1.65106 17.7137 1.25319 17.4937C0.596688 17.1269 0.357961 16.4301 0.497218 15.1832C0.537006 14.9264 0.576794 14.633 0.636476 14.3763C0.875202 13.3128 1.27308 12.946 1.8699 13.2761C2.34735 13.5328 2.8248 13.7895 3.32215 14.0462C3.24258 14.523 3.18289 14.9631 3.10332 15.4399C2.60597 15.1832 2.12852 14.9264 1.65106 14.6697C1.35266 14.523 1.2134 14.6697 1.13382 15.1465C1.05425 15.6233 1.13382 15.88 1.39244 16.0267C1.81022 16.2834 2.22799 16.4668 2.64576 16.7235C2.72533 16.7969 2.78502 16.8335 2.88449 16.8702Z"/><path fill="#000" d="M30.5372 55.4521C30.5372 55.8556 30.5372 56.149 30.5372 56.5157C30.1394 56.5157 29.7614 56.5157 29.3635 56.5157C29.3635 56.7358 29.3635 56.9191 29.3635 57.1392C29.6818 57.1392 30.0001 57.1392 30.3383 57.1392C30.3383 57.5059 30.3383 57.836 30.3383 58.2028C30.0001 58.2028 29.6818 58.2028 29.3436 58.2028C29.3436 58.4228 29.3436 58.6429 29.3436 58.8996C29.7415 58.8996 30.1195 58.8996 30.5372 58.8996C30.5372 59.303 30.5372 59.6331 30.5372 59.9998C29.8807 59.9998 29.2044 59.9998 28.5479 59.9998C28.5479 58.4595 28.5479 56.9558 28.5479 55.4521C29.2242 55.4521 29.8807 55.4521 30.5372 55.4521Z"/><path fill="#000" d="M18.6605 54.2057C18.6008 54.5357 18.561 54.8658 18.5013 55.1959C18.183 55.0125 17.8647 54.8658 17.5265 54.6824C17.4868 54.9025 17.4669 55.1225 17.4271 55.3793C17.825 55.5993 18.2228 55.8194 18.6008 56.0761C18.5411 56.4428 18.4815 56.7362 18.4218 57.1397C17.7852 56.7729 17.1486 56.4062 16.4722 56.0394C16.7109 54.5724 16.9496 53.1421 17.2082 51.6384C17.8448 52.0052 18.4616 52.3352 19.1181 52.702C19.0584 53.0687 18.9987 53.3988 18.9589 53.7289C18.5809 53.5088 18.2029 53.3255 17.825 53.1054C17.7852 53.2888 17.7653 53.4722 17.7255 53.6922C18.0438 53.8389 18.3422 54.0223 18.6605 54.2057Z"/><path fill="#000" d="M31.6312 56.4423C31.6312 56.6624 31.6511 56.8457 31.6511 57.0658C31.9893 57.0291 32.2877 57.0291 32.6458 56.9924C32.6657 57.3225 32.6856 57.6526 32.7055 58.0193C32.3673 58.056 32.049 58.0927 31.7108 58.1294C31.7108 58.3494 31.7108 58.5695 31.7108 58.7895C32.1285 58.7895 32.5264 58.7895 32.9442 58.7895C32.9641 59.1196 32.9641 59.4497 32.984 59.8164C32.2877 59.8898 31.6312 59.9264 30.9349 59.9998C30.8951 58.4594 30.8553 56.9558 30.7957 55.4154C31.4522 55.3421 32.1087 55.2687 32.7453 55.2321C32.7651 55.2687 32.785 55.3054 32.785 55.3421C32.8447 56.3323 32.8447 56.3323 32.3076 56.369C32.0888 56.369 31.8699 56.4056 31.6312 56.4423Z"/><path fill="#000" d="M58.0901 21.6381C58.0901 22.4082 58.0901 23.1051 58.0901 23.8386C58.1896 23.8386 58.289 23.8386 58.4084 23.8752C58.4084 23.2518 58.4084 22.665 58.4084 22.0782C58.6073 22.0782 58.7864 22.0782 58.9654 22.0782C58.9654 22.665 58.9654 23.2518 58.9654 23.8752C59.0848 23.8752 59.2042 23.9119 59.3633 23.9119C59.3633 23.1417 59.3633 22.4449 59.3633 21.6747C59.5821 21.6747 59.7612 21.6747 59.9402 21.6747C59.9402 22.9217 59.9402 24.132 59.9402 25.4156C59.0848 25.3422 58.2691 25.3055 57.4734 25.2689C57.4734 24.0586 57.4734 22.8483 57.4734 21.6381C57.7121 21.6381 57.8912 21.6381 58.0901 21.6381Z"/><path fill="#000" d="M3.79987 38.3253C3.93913 38.6554 4.07839 38.9855 4.19775 39.3155C4.21765 39.3889 4.21765 39.4989 4.19775 39.6089C4.11818 39.9757 4.21765 40.2324 4.33701 40.4158C4.39669 40.5258 4.49616 40.4891 4.59563 40.5258C4.61552 40.3791 4.65531 40.1957 4.63542 40.0857C4.55584 39.6089 4.43648 39.1688 4.3569 38.6921C4.25743 38.0319 4.3768 37.4818 4.6951 37.1884C4.95372 36.9317 5.21234 36.9684 5.47096 37.2618C5.80916 37.6652 6.02799 38.252 6.14735 38.9488C6.22693 39.4989 6.12746 39.939 5.90863 40.3791C5.76937 40.049 5.65001 39.7556 5.53064 39.4622C5.49086 39.3889 5.51075 39.2422 5.49086 39.1322C5.47096 38.9121 5.47096 38.6921 5.41128 38.5454C5.37149 38.4353 5.25213 38.3987 5.15266 38.362C5.13277 38.5087 5.09298 38.6921 5.11287 38.8388C5.19245 39.2789 5.29192 39.719 5.37149 40.1591C5.45107 40.6725 5.43117 41.1126 5.21234 41.4794C4.97361 41.8828 4.71499 42.0295 4.39669 41.8461C3.97892 41.5527 3.52136 40.4525 3.50146 39.6089C3.50146 39.0955 3.58104 38.6921 3.79987 38.3253Z"/><path fill="#000" d="M14.3236 49.4744C14.9204 49.9511 15.4774 50.3912 16.0543 50.8313C15.9747 51.1981 15.8952 51.5282 15.8156 51.8949C15.4774 51.6382 15.1591 51.3815 14.8209 51.1247C14.7612 51.3448 14.7214 51.5282 14.6618 51.7849C14.9204 52.0049 15.179 52.1883 15.4575 52.445C15.3779 52.7751 15.3182 53.1052 15.2387 53.4352C14.9602 53.2152 14.7214 53.0318 14.4429 52.8485C14.3236 53.3252 14.2042 53.802 14.0848 54.3154C13.8461 54.1321 13.6074 53.9487 13.3687 53.7286C13.6671 52.2983 13.9854 50.9047 14.3236 49.4744Z"/><path fill="#000" d="M56.4988 13.2397C56.7176 13.093 56.8967 12.983 57.0956 12.8363C57.1752 13.2397 57.2547 13.6431 57.3542 14.0466C57.9311 13.6431 58.5081 13.2764 59.085 12.9097C59.1845 13.3864 59.264 13.7898 59.3635 14.2666C58.7866 14.67 58.2097 15.0368 57.6327 15.4402C57.7123 15.8803 57.7919 16.2471 57.8715 16.6872C57.6725 16.8339 57.4736 16.9439 57.2746 17.0906C57.016 15.8436 56.7574 14.56 56.4988 13.2397Z"/><path fill="#000" d="M6.60467 39.6819C6.8036 40.0486 7.00254 40.342 7.20148 40.7088C6.60467 41.7723 6.00785 42.8359 5.43093 43.8628C5.23199 43.5327 5.05294 43.2027 4.854 42.7992C5.43093 41.7723 6.00785 40.7455 6.60467 39.6819Z"/><path fill="#000" d="M35.5901 54.7187C35.8686 54.6454 36.1272 54.572 36.3858 54.4987C36.5251 56.0023 36.6445 57.4693 36.7837 59.0097C36.5251 59.083 36.2665 59.1564 35.988 59.2664C35.8686 57.726 35.7293 56.259 35.5901 54.7187Z"/><path fill="#000" d="M2.60611 24.462C1.77056 24.6087 0.954914 24.7921 0.119371 24.9388C0.0994766 24.4253 0.0596888 23.9485 0.0397949 23.4718C0.875339 23.3251 1.69099 23.1417 2.50664 22.995C2.54643 23.4718 2.56632 23.9485 2.60611 24.462Z"/><path fill="#000" d="M25.1659 59.4868C24.8874 59.4134 24.6486 59.3768 24.3701 59.3034C24.4696 57.7997 24.5691 56.2961 24.6685 54.7557C24.947 54.8291 25.1858 54.8658 25.4643 54.9391C25.3648 56.4795 25.2653 57.9464 25.1659 59.4868Z"/><path fill="#000" d="M2.50658 37.2982C2.62594 37.1515 2.7453 36.9681 2.86467 36.8214C3.18297 36.4547 3.20286 36.308 3.00392 35.7212C2.96414 35.6111 2.92435 35.4644 2.86467 35.3177C2.62594 35.5745 2.38721 35.8312 2.12859 36.1246C1.98933 35.7212 1.86997 35.3177 1.73071 34.8776C2.44689 34.0708 3.14318 33.3006 3.87925 32.4938C4.15777 33.4106 4.43628 34.2908 4.6949 35.2444C4.81427 35.6845 4.77448 36.1613 4.55565 36.528C4.31692 36.9314 4.03841 37.1148 3.70021 36.7481C3.77979 37.885 3.16307 37.885 2.94424 38.6185C2.78509 38.1784 2.64583 37.7749 2.50658 37.2982ZM3.34212 34.841C3.44159 35.1344 3.52116 35.4278 3.64053 35.6478C3.70021 35.7578 3.83947 35.7578 3.91904 35.6845C3.97872 35.6478 4.01851 35.3544 3.99862 35.2444C3.93894 34.951 3.83947 34.6943 3.75989 34.4009C3.62063 34.5476 3.50127 34.6576 3.34212 34.841Z"/><path fill="#000" d="M34.138 59.6697C33.8794 59.7064 33.6407 59.743 33.3621 59.8164C33.2826 58.276 33.2229 56.809 33.1433 55.1954C33.7401 55.1587 34.317 55.0853 34.894 55.0853C35.1327 55.0853 35.3316 55.3787 35.3913 55.8188C35.451 56.2956 35.4709 56.7357 35.272 57.1391C35.2322 57.2125 35.1924 57.2858 35.1526 57.3958C35.7295 57.7259 35.451 58.7528 35.6897 59.4496C35.451 59.4863 35.2521 59.523 35.0531 59.5597C34.894 59.5963 34.8542 59.4496 34.8343 59.2296C34.8343 59.1562 34.8343 59.1196 34.8144 59.0462C34.7547 58.0193 34.6751 57.9093 34.0783 58.1293C34.0982 58.6061 34.1181 59.1196 34.138 59.6697ZM34.0186 57.0658C34.2176 57.0291 34.3767 57.0291 34.516 56.9557C34.5956 56.9191 34.695 56.6623 34.695 56.5523C34.695 56.4056 34.5757 56.1856 34.4961 56.1856C34.3369 56.1489 34.1579 56.1856 33.9789 56.2222C33.9789 56.5156 33.9987 56.7724 34.0186 57.0658Z"/><path fill="#000" d="M43.8264 52.995C43.7468 52.8849 43.6871 52.8483 43.6473 52.7382C43.4285 52.4082 43.3688 51.8214 43.4882 51.3813C43.6871 50.6845 44.3635 50.2444 44.7415 50.5744C45.0598 50.8312 45.2189 51.638 45.0598 52.2248C45.02 52.3715 44.9802 52.4815 44.9404 52.6282C45.0399 52.7016 45.1195 52.7749 45.2189 52.8849C45.2985 52.1514 45.6367 52.2248 45.9351 51.9314C45.8754 52.4448 45.8158 52.8849 45.7561 53.325C45.9749 53.5084 46.1937 53.7285 46.4723 53.9852C46.0744 54.1319 45.8158 54.7187 45.4179 54.3153C45.199 54.9021 44.9205 55.3055 44.5425 55.4522C44.2044 55.5989 43.9258 55.4522 43.7468 55.0121C43.5479 54.462 43.528 53.8752 43.7269 53.325C43.7269 53.215 43.7667 53.1417 43.8264 52.995ZM44.8609 53.9852C44.8609 53.9485 44.841 53.8752 44.841 53.8385C44.7017 53.7285 44.5425 53.5818 44.3436 53.3984C44.3038 53.6918 44.264 53.9118 44.264 54.1319C44.264 54.2419 44.4033 54.3886 44.4431 54.3886C44.5823 54.2786 44.7216 54.1319 44.8609 53.9852ZM44.2441 52.2981C44.2839 52.2981 44.3038 52.2981 44.3436 52.2981C44.4033 52.1148 44.5028 51.9314 44.5028 51.748C44.5028 51.6013 44.3635 51.3446 44.3038 51.3446C44.2044 51.3446 44.0452 51.6013 44.0452 51.7113C44.0651 51.9314 44.1646 52.1148 44.2441 52.2981Z"/><path fill="#000" d="M52.4802 47.384C52.3409 47.5674 52.2216 47.7141 52.1022 47.8608C51.8436 48.1908 51.8436 48.1908 51.5651 47.8241C51.386 48.0441 51.1672 48.2642 51.008 48.5576C50.9483 48.6676 50.9881 48.9977 50.9682 49.3278C50.829 49.5111 50.6101 49.7679 50.3913 50.0613C50.3714 49.9512 50.3316 49.8412 50.3316 49.7679C50.1327 48.4109 49.9337 47.0539 49.7149 45.697C49.6751 45.4769 49.695 45.3302 49.8144 45.1835C50.3117 44.4867 50.3117 44.4867 50.829 45.1835C51.3661 45.8803 51.9033 46.6138 52.4802 47.384ZM50.7295 47.7141C50.8887 47.494 51.008 47.3473 51.1473 47.164C50.9086 46.8339 50.7096 46.5038 50.5107 46.2104C50.4908 46.2471 50.4908 46.2471 50.4709 46.2838C50.5505 46.7239 50.6499 47.2006 50.7295 47.7141Z"/><path fill="#000" d="M56.3394 40.4154C56.2001 40.7088 56.1007 40.9288 56.0012 41.1489C55.9017 41.4056 55.8022 41.5523 55.6232 41.3322C55.5834 41.2956 55.4839 41.3322 55.4442 41.4056C55.285 41.699 55.1457 42.0291 55.0065 42.3591C55.0662 42.5425 55.1258 42.7259 55.1855 42.9092C55.0264 43.2393 54.8672 43.6061 54.6882 43.9728C54.6285 43.7894 54.5887 43.6427 54.529 43.496C54.1709 42.3591 53.8327 41.1855 53.4746 40.0486C53.3951 39.7919 53.415 39.6452 53.5144 39.4618C53.9123 38.6183 53.9123 38.6183 54.4693 39.0217C55.0662 39.4985 55.6829 39.9386 56.3394 40.4154ZM54.2903 40.1953C54.2704 40.232 54.2704 40.232 54.2505 40.2687C54.3898 40.6721 54.529 41.0755 54.6882 41.5523C54.8075 41.2956 54.907 41.0755 55.0264 40.8555C54.7678 40.5987 54.529 40.3787 54.2903 40.1953Z"/></g><defs><clipPath id="clip0"><rect width="60" height="60" fill="#fff"/></clipPath></defs></svg>