<svg width="1999.9999999999995" height="399.99999999999994" xmlns="http://www.w3.org/2000/svg">
 <!-- Created with ImageBot - http://www.imagebot.com/ -->
 <g id="imagebot_1">
  <title>Layer 1</title>
  <line y2="186" x2="98" y1="186" x1="22" transform="translate(1 4)" stroke-width="20" stroke-linejoin="round" stroke-linecap="round" stroke="#000000" fill="none" id="imagebot_3"/>
  <line y2="186" x2="98" y1="186" x1="22" transform="translate(122) translate(1 4)" stroke-width="20" stroke-linejoin="round" stroke-linecap="round" stroke="#000000" fill="none" id="imagebot_5"/>
  <line y2="186" x2="98" y1="186" x1="22" transform="translate(-3) matrix(1 0 0 1 247 4)" stroke-width="20" stroke-linejoin="round" stroke-linecap="round" stroke="#000000" fill="none" id="imagebot_6"/>
  <line y2="186" x2="98" y1="186" x1="22" transform="translate(-10 -46) matrix(1 0 0 1 372 50)" stroke-width="20" stroke-linejoin="round" stroke-linecap="round" stroke="#000000" fill="none" id="imagebot_7"/>
  <line y2="186" x2="98" y1="186" x1="22" transform="translate(479) translate(1 4)" stroke-width="20" stroke-linejoin="round" stroke-linecap="round" stroke="#000000" fill="none" id="imagebot_8"/>
  <line y2="186" x2="98" y1="186" x1="22" transform="translate(596) translate(1 4)" stroke-width="20" stroke-linejoin="round" stroke-linecap="round" stroke="#000000" fill="none" id="imagebot_9"/>
  <line y2="186" x2="98" y1="186" x1="22" transform="translate(712) translate(1 4)" stroke-width="20" stroke-linejoin="round" stroke-linecap="round" stroke="#000000" fill="none" id="imagebot_10"/>
  <line y2="186" x2="98" y1="186" x1="22" transform="translate(2) matrix(1 0 0 1 828 4)" stroke-width="20" stroke-linejoin="round" stroke-linecap="round" stroke="#000000" fill="none" id="imagebot_11"/>
  <line y2="186" x2="98" y1="186" x1="22" transform="translate(0 -1) matrix(1 0 0 1 947 5)" stroke-width="20" stroke-linejoin="round" stroke-linecap="round" stroke="#000000" fill="none" id="imagebot_12"/>
  <line y2="186" x2="98" y1="186" x1="22" transform="translate(-1 -1) matrix(1 0 0 1 1066 5)" stroke-width="20" stroke-linejoin="round" stroke-linecap="round" stroke="#000000" fill="none" id="imagebot_13"/>
  <line y2="186" x2="98" y1="186" x1="22" transform="translate(352) matrix(1 0 0 1 830 4)" stroke-width="20" stroke-linejoin="round" stroke-linecap="round" stroke="#000000" fill="none" id="imagebot_14"/>
  <line y2="186" x2="98" y1="186" x1="22" transform="translate(469) matrix(1 0 0 1 830 4)" stroke-width="20" stroke-linejoin="round" stroke-linecap="round" stroke="#000000" fill="none" id="imagebot_15"/>
  <line y2="186" x2="98" y1="186" x1="22" transform="translate(116) matrix(1 0 0 1 1299 4)" stroke-width="20" stroke-linejoin="round" stroke-linecap="round" stroke="#000000" fill="none" id="imagebot_16"/>
  <line y2="186" x2="98" y1="186" x1="22" transform="translate(229) matrix(1 0 0 1 1299 4)" stroke-width="20" stroke-linejoin="round" stroke-linecap="round" stroke="#000000" fill="none" id="imagebot_17"/>
  <line y2="186" x2="98" y1="186" x1="22" transform="translate(340) matrix(1 0 0 1 1299 4)" stroke-width="20" stroke-linejoin="round" stroke-linecap="round" stroke="#000000" fill="none" id="imagebot_18"/>
  <line y2="186" x2="98" y1="186" x1="22" transform="translate(456) matrix(1 0 0 1 1299 4)" stroke-width="20" stroke-linejoin="round" stroke-linecap="round" stroke="#000000" fill="none" id="imagebot_19"/>
  <line y2="186" x2="98" y1="186" x1="22" transform="translate(0 -1) matrix(1 0 0 1 1875 5)" stroke-width="20" stroke-linejoin="round" stroke-linecap="round" stroke="#000000" fill="none" id="imagebot_20"/>
 </g>
</svg>