<svg width="766" height="181" viewBox="0 0 766 181" fill="none" xmlns="http://www.w3.org/2000/svg">
<rect y="0.777832" width="180" height="180" rx="90" fill="#E75225"/>
<path d="M90.099 40.7778C117.764 40.7836 140.471 63.3214 140.436 90.7388C140.401 118.573 117.787 140.798 89.5205 140.778C61.8861 140.758 39.5431 118.197 39.5625 90.3323C39.5814 63.0846 62.3364 40.7721 90.099 40.7778ZM74.8066 58.3256C75.4408 61.4452 74.8248 64.3547 73.8869 67.2167C73.2374 69.1983 72.3397 71.1067 71.8037 73.1153C70.9203 76.425 69.9181 79.7543 69.5506 83.1392C69.022 88.0069 70.9364 92.2942 74.2121 96.5576L59.1544 93.3896C59.1807 93.8651 59.1527 94.0452 59.2046 94.1976C60.6318 98.3873 63.1435 101.917 65.9587 105.245C66.2566 105.597 66.9348 105.777 67.437 105.778C82.4508 105.806 97.4648 105.805 112.479 105.785C112.944 105.784 113.566 105.696 113.851 105.396C117.069 102.016 119.53 98.1659 121.068 93.3156L105.128 96.4347C106.179 94.3754 107.38 92.5647 108.07 90.5751C110.43 83.7688 109.452 77.1885 106.064 70.9822C103.345 66.0016 100.838 61.0428 102.194 55.0404C99.3231 57.8735 98.2207 61.4801 97.521 65.197C96.8318 68.858 96.4257 72.5728 95.8922 76.2871C95.8164 76.1748 95.7181 76.0921 95.7028 75.9957C95.6411 75.6061 95.5834 75.2133 95.5624 74.8196C95.2384 68.7356 94.0491 62.8738 91.5393 57.2752C90.0619 53.9796 88.4329 50.6102 89.9557 46.6791C88.925 47.2221 87.9936 47.762 87.3259 48.5326C85.3331 50.8328 84.5091 53.5955 84.2969 56.6201C84.1159 59.2042 83.8674 61.8007 83.388 64.3418C82.8841 67.0121 82.0851 69.6296 80.2897 72.0841C79.5643 66.8414 79.4837 61.6565 74.8066 58.3256ZM113.518 110.373H66.4279V118.547H113.518V110.373ZM75.7646 122.77C75.7256 129.577 82.6641 134.648 91.2392 134.28C98.3455 133.975 104.635 128.389 104.094 122.77H75.7646Z" fill="white"/>
<rect x="293" y="1" width="180" height="180" rx="90" fill="black"/>
<g clip-path="url(#clip0_33970_170759)">
<path d="M433 91.1953C433 114.633 416.574 134.262 394.719 139.535L388.742 120.551H377.258L371.477 139.535C349.621 134.262 333 114.633 333 91.1953C333 63.715 355.52 41 383 41C410.48 41 433 63.715 433 91.1953Z" fill="white"/>
<path d="M433 91.1953C433 114.633 416.574 134.262 394.719 139.535L388.742 120.551H383V41C410.48 41 433 63.715 433 91.1953Z" fill="white"/>
<path d="M368.406 124.996C367.219 124.996 366.06 124.826 364.924 124.492C361.969 123.619 359.568 121.651 357.786 118.65C356.974 117.279 356.127 116.329 355.129 115.66C354.147 114.999 353.363 114.747 352.536 114.807L352.021 108.971C354.193 108.785 356.27 109.374 358.387 110.791C360.112 111.943 361.563 113.537 362.825 115.657C363.861 117.399 365.053 118.421 366.584 118.873C368.304 119.379 370.089 119.168 372.372 118.195L374.678 123.579C372.472 124.523 370.395 124.996 368.406 124.996Z" fill="black"/>
<path d="M411.301 97.1135C409.249 102.562 404.094 109.477 391.027 111.41C392.726 113.929 394.777 115.278 394.719 120.551V139.535C390.969 140.473 387.043 141 383 141C378.957 141 375.226 140.473 371.476 139.535V120.316C371.476 115.101 373.449 113.637 374.972 111.41C361.906 109.476 356.75 102.562 354.699 97.1135C351.945 89.8473 353.41 80.824 358.215 75.0821C358.332 74.9646 358.508 74.6717 358.449 74.4962C356.222 67.8167 358.918 62.2502 359.035 61.6643C361.554 62.4257 361.965 60.9021 370.109 65.8826L371.515 66.7035C372.101 67.0545 371.926 66.8203 372.512 66.8203C375.91 65.8826 379.484 65.3554 383 65.3554C386.574 65.3554 390.09 65.8826 393.663 66.8203L394.074 66.879C394.074 66.879 394.191 66.879 394.484 66.7035C404.621 60.5504 404.269 62.5432 407.022 61.6643C407.081 62.2502 409.777 67.8746 407.55 74.4962C407.257 75.3751 416.339 83.6949 411.301 97.1135Z" fill="black"/>
<path d="M411.301 97.1135C409.25 102.562 404.094 109.477 391.028 111.41C392.727 113.929 394.777 115.278 394.719 120.551V139.535C390.969 140.473 387.043 141 383 141V65.3554C386.574 65.3554 390.09 65.8826 393.664 66.8203L394.074 66.879C394.074 66.879 394.192 66.879 394.485 66.7035C404.621 60.5504 404.269 62.5432 407.023 61.6643C407.082 62.2502 409.778 67.8746 407.551 74.4962C407.258 75.3751 416.34 83.6949 411.301 97.1135Z" fill="black"/>
</g>
<g clip-path="url(#clip1_33970_170759)">
<path d="M766 1H586V181H766V1Z" fill="#ED7100"/>
<path fill-rule="evenodd" clip-rule="evenodd" d="M703.234 122.5L703 63.766L644.5 64V122.734L703.234 122.5ZM707.5 64H716.5V68.5H707.5V77.5H716.5V82H707.5V91H716.5V95.5H707.5V104.5H716.5V109H707.5V118H716.5V122.5H707.5V122.734C707.5 125.088 705.583 127 703.234 127H703V136H698.5V127H689.5V136H685V127H676V136H671.5V127H662.5V136H658V127H649V136H644.5V127H644.266C641.917 127 640 125.088 640 122.734V122.5H631V118H640V109H631V104.5H640V95.5H631V91H640V82H631V77.5H640V68.5H631V64H640V63.766C640 61.4125 641.917 59.5 644.266 59.5H644.5V50.5H649V59.5H658V50.5H662.5V59.5H671.5V50.5H676V59.5H685V50.5H689.5V59.5H698.5V50.5H703V59.5H703.234C705.583 59.5 707.5 61.4125 707.5 63.766V64ZM680.5 149.5H617.5V86.5H626.5V82H617.779C615.146 82 613 84.1465 613 86.779V149.221C613 151.853 615.146 154 617.779 154H680.225C682.858 154 685 151.853 685 149.221V140.5H680.5V149.5ZM739 32.779V95.221C739 97.8535 736.858 100 734.225 100H721V95.5H734.5V32.5H671.5V46H667V32.779C667 30.1465 669.147 28 671.779 28H734.225C736.858 28 739 30.1465 739 32.779Z" fill="white"/>
</g>
<defs>
<clipPath id="clip0_33970_170759">
<rect width="100" height="100" fill="white" transform="translate(333 41)"/>
</clipPath>
<clipPath id="clip1_33970_170759">
<rect width="180" height="180" fill="white" transform="translate(586 1)"/>
</clipPath>
</defs>
</svg>
