<svg width="411" height="180" viewBox="0 0 411 180" fill="none" xmlns="http://www.w3.org/2000/svg">
<path d="M72.6795 30C80.3775 16.6666 99.6225 16.6667 107.321 30L150.622 105C158.32 118.333 148.697 135 133.301 135H46.6987C31.3027 135 21.6802 118.333 29.3782 105L72.6795 30Z" fill="#326CE5"/>
<path d="M321 0L398.942 135H243.058L321 0Z" fill="#326CE5"/>
<path d="M347.787 59.9392L343.062 55.2148L335.004 63.2734C328.692 59.2131 320.192 59.9446 314.668 65.4679L305.278 74.8583L328.333 97.9132L337.723 88.5228C343.313 82.9325 343.995 74.2923 339.768 67.9583L347.787 59.9392Z" fill="white"/>
<path d="M347.222 60.5093L342.497 55.785L335.006 63.2758C328.694 59.2128 320.191 59.9435 314.667 65.4679L305.277 74.8583L328.331 97.9132L337.722 88.5228C343.311 82.9336 343.993 74.2957 339.769 67.9621L347.222 60.5093Z" fill="white"/>
<path d="M282.939 124.785L278.215 120.061L285.705 112.571C281.645 106.259 282.377 97.7592 287.9 92.2363L297.29 82.8459L300.312 85.8676L305.635 80.545L310.359 85.2693L305.037 90.592L312.597 98.1521L317.92 92.8284L322.645 97.5528L317.321 102.876L320.345 105.901L310.955 115.291C305.364 120.882 296.723 121.563 290.389 117.335L282.939 124.785Z" fill="white"/>
<g clip-path="url(#clip0_34005_170810)">
<path fill-rule="evenodd" clip-rule="evenodd" d="M78.1944 46.4998C77.0898 46.4998 76.1944 47.3952 76.1944 48.4998V70.9501C76.1944 72.0547 77.0898 72.9501 78.1944 72.9501H86.7826V84.7188H61.5123H59.1742V87.0568V97.0497H50C48.8954 97.0497 48 97.9452 48 99.0497V121.5C48 122.605 48.8954 123.5 50 123.5H72.4336C73.5381 123.5 74.4336 122.605 74.4336 121.5V99.0497C74.4336 97.9452 73.5381 97.0497 72.4336 97.0497H63.8503V89.3948H89.1206H116.447V97.0497H107.566C106.462 97.0497 105.566 97.9452 105.566 99.0497V121.5C105.566 122.605 106.462 123.5 107.566 123.5H130C131.105 123.5 132 122.605 132 121.5V99.0497C132 97.9452 131.105 97.0497 130 97.0497H121.123V87.0568V84.7188H118.785H91.4587V72.9501H100.628C101.733 72.9501 102.628 72.0547 102.628 70.9501V48.4998C102.628 47.3952 101.733 46.4998 100.628 46.4998H78.1944Z" fill="white"/>
</g>
<defs>
<clipPath id="clip0_34005_170810">
<rect width="80" height="80" fill="white" transform="translate(50 45)"/>
</clipPath>
</defs>
</svg>
