<svg width="440" height="180" viewBox="0 0 440 180" fill="none" xmlns="http://www.w3.org/2000/svg">
<rect width="180" height="180" rx="30" fill="#326CE5"/>
<path d="M260 0H440V150C440 166.569 426.569 180 410 180H290C273.431 180 260 166.569 260 150V0Z" fill="#326CE5"/>
<g clip-path="url(#clip0_34008_170838)">
<path fill-rule="evenodd" clip-rule="evenodd" d="M90.0081 89.8834C101.149 89.8834 110.18 80.8521 110.18 69.7113C110.18 58.5706 101.149 49.5393 90.0081 49.5393C78.8674 49.5393 69.8361 58.5706 69.8361 69.7113C69.8361 80.8521 78.8674 89.8834 90.0081 89.8834ZM75.3872 90.9445C75.7929 90.8853 76.203 90.9909 76.5499 91.2094C80.1824 93.4982 84.8427 94.8736 89.9246 94.8736C95.0356 94.8736 99.7202 93.4824 103.362 91.17C103.701 90.9544 104.102 90.8472 104.501 90.8984C114.251 92.1504 121.786 100.482 121.786 110.573V118.387C121.786 125.055 116.38 130.461 109.712 130.461H70.5121C63.8435 130.461 58.4375 125.055 58.4375 118.387V110.573C58.4375 100.598 65.8 92.3424 75.3872 90.9445Z" fill="white"/>
</g>
<path fill-rule="evenodd" clip-rule="evenodd" d="M324.017 46C319.588 46 315.998 49.5902 315.998 54.019V126.054C315.998 130.482 319.588 134.073 324.017 134.073H375.139C379.568 134.073 383.158 130.482 383.158 126.054V54.019C383.158 49.5902 379.568 46 375.139 46H324.017ZM337.998 56.3965C337.998 55.073 339.071 54 340.395 54H357.451C358.775 54 359.848 55.073 359.848 56.3965C359.848 57.7201 358.775 58.7931 357.451 58.7931H340.395C339.071 58.7931 337.998 57.7201 337.998 56.3965ZM349.426 98.3815C356.988 98.3815 363.117 92.252 363.117 84.6908C363.117 77.1296 356.988 71 349.426 71C341.865 71 335.736 77.1296 335.736 84.6908C335.736 92.252 341.865 98.3815 349.426 98.3815ZM339.503 99.1018C339.778 99.0616 340.057 99.1333 340.292 99.2816C342.758 100.835 345.92 101.768 349.37 101.768C352.838 101.768 356.018 100.824 358.489 99.2548C358.72 99.1085 358.992 99.0358 359.262 99.0705C365.88 99.9202 370.994 105.575 370.994 112.424V117.727C370.994 122.253 367.325 125.922 362.799 125.922H336.194C331.668 125.922 327.999 122.253 327.999 117.727V112.424C327.999 105.654 332.996 100.051 339.503 99.1018Z" fill="white"/>
<defs>
<clipPath id="clip0_34008_170838">
<rect width="90" height="90" fill="white" transform="translate(45 45)"/>
</clipPath>
</defs>
</svg>
