<svg width="1.83364in" height="1.91434in" viewBox="0 0 69 101" fill="none" xmlns="http://www.w3.org/2000/svg">
<path fill-rule="evenodd" clip-rule="evenodd" d="M3.24558 39.6241C2.26663 40.7459 2.04786 40.4468 0.764282 40.9988C0.688126 42.4638 1.00175 42.7715 1.51546 43.6667C0.688126 44.1548 -0.0623567 44.4084 0.00410664 45.5658C0.0892629 47.094 -0.186283 45.8009 0.498428 46.5604L1.68646 47.4378C1.37284 54.4111 2.71318 53.7958 9.42391 53.7688C16.8664 53.7418 15.9539 53.8775 19.2529 58.1915C21.3444 60.9225 23.0551 63.5185 24.8323 66.6837L29.509 75.9631C34.6516 74.1635 44.2895 71.7031 45.868 64.1516C42.5788 62.0628 37.8072 55.216 35.6783 51.5443C34.7562 54.3663 33.872 56.8622 30.7448 58.0742C27.1516 59.4667 23.9385 56.7357 22.7983 54.4473C20.9352 50.7393 20.8023 41.0081 30.7635 41.7313C29.1857 40.1754 24.3283 33.8181 21.5431 31.0686C13.15 33.7911 13.9102 35.1204 11.8664 38.2223C11.4386 38.8738 11.9045 38.4035 11.3624 38.7921L9.43291 33.6554C15.2976 33.33 14.518 32.5613 18.0731 31.1141C19.5942 30.4988 19.8981 30.5983 20.7061 29.929L16.172 24.5934C14.4994 22.6396 13.159 20.9487 11.3908 19.1853C6.18174 24.241 9.6226 25.1362 7.04715 26.258C4.80401 23.5717 10.3738 19.2215 10.4596 18.2631C10.7165 15.4411 7.19946 19.294 5.7165 23.4723C4.08122 28.0484 7.32269 30.2189 4.16707 33.1587C0.706818 36.3786 -0.909073 35.2838 2.5131 38.7302C2.98804 39.2098 2.8648 38.9476 3.2262 39.6162L3.24558 39.6254V39.6241Z" fill="white"/>
<path fill-rule="evenodd" clip-rule="evenodd" d="M36.6756 47.0841C38.8523 46.9577 38.6148 46.8398 40.0403 45.6554C40.9528 44.8959 41.7608 44.3261 42.6733 43.6838C45.905 41.3869 45.8289 41.2782 43.367 38.6466C37.7591 32.6595 30.2688 25.8042 24.6984 19.8803L15.3637 10.5014C12.8353 8.03255 12.0842 9.68726 9.94557 11.4329C7.2178 13.6574 9.25186 14.9419 10.9626 16.9319C18.4342 25.5868 30.1158 38.8818 36.6652 47.0934L36.6749 47.0841H36.6756Z" fill="#FF1493"/>
<path fill-rule="evenodd" clip-rule="evenodd" d="M36.6756 47.0841C38.8523 46.9577 38.6148 46.8398 40.0403 45.6554C40.9528 44.8959 41.7608 44.3261 42.6733 43.6838C45.905 41.3869 45.8289 41.2782 43.367 38.6466C37.7591 32.6595 30.2688 25.8042 24.6984 19.8803L15.3637 10.5014C12.8353 8.03255 12.0842 9.68726 9.94557 11.4329C7.2178 13.6574 9.25186 14.9419 10.9626 16.9319C18.4342 25.5868 30.1158 38.8818 36.6652 47.0934L36.6749 47.0841H36.6756Z" fill="#B70569"/>
<path d="M15.4901 10.147L9.08331 15.5189L8.49414 14.8858L14.2259 10.0653L13.8548 9.65823L14.5298 9.09766L15.4901 10.1286L15.4804 10.1378L15.4901 10.147Z" fill="#FEFEFE"/>
<path d="M13.2572 13.8463C12.5254 14.4701 12.0692 15.1848 11.8982 15.999C11.7272 16.7948 11.8885 17.4548 12.3641 17.9706C12.8488 18.4864 13.5141 18.7215 14.3698 18.6583C15.2442 18.595 16.0425 18.2512 16.7749 17.6366C17.5164 17.0214 17.9727 16.3073 18.1437 15.4931C18.3147 14.6974 18.1534 14.0374 17.6687 13.5216C17.1938 13.0058 16.5278 12.7799 15.6728 12.8339C14.7984 12.8971 14.0001 13.2317 13.2586 13.847L13.2572 13.8463ZM12.6868 13.2311C13.5992 12.4716 14.5976 12.0645 15.6908 12.0098C16.8026 11.9558 17.6777 12.272 18.3237 12.9683C18.9703 13.6645 19.1981 14.5327 18.9987 15.5728C18.8083 16.5945 18.2572 17.4904 17.3447 18.2499C16.4419 19.0186 15.4436 19.4257 14.3504 19.4711C13.2475 19.5344 12.3634 19.209 11.7175 18.5127C11.0709 17.8164 10.8528 16.9482 11.0425 15.9173C11.2329 14.8957 11.784 13.9998 12.6868 13.2311Z" fill="#FEFEFE"/>
<path d="M18.3315 19.2604C17.5997 19.8842 17.1434 20.5989 16.9724 21.4131C16.8014 22.2088 16.9627 22.8689 17.4384 23.3846C17.923 23.9004 18.5883 24.1356 19.444 24.0724C20.3184 24.0091 21.1167 23.6653 21.8492 23.0507C22.5907 22.4354 23.0469 21.7214 23.2179 20.9072C23.3889 20.1115 23.2276 19.4514 22.743 18.9356C22.268 18.4199 21.602 18.1939 20.747 18.2479C19.8726 18.3112 19.0743 18.6458 18.3329 19.2611L18.3315 19.2604ZM17.761 18.6451C18.6735 17.8856 19.6718 17.4785 20.765 17.4239C21.8769 17.3699 22.752 17.686 23.3979 18.3823C24.0446 19.0786 24.2723 19.9468 24.0729 20.9869C23.8826 22.0086 23.3315 22.9044 22.419 23.6639C21.5162 24.4327 20.5178 24.8398 19.4247 24.8852C18.3218 24.9485 17.4377 24.623 16.7917 23.9268C16.1451 23.2305 15.927 22.3623 16.1167 21.3314C16.3071 20.3097 16.8582 19.4139 17.761 18.6451Z" fill="#FEFEFE"/>
<path d="M23.4018 24.6705C22.67 25.2944 22.2137 26.0091 22.0427 26.8232C21.8717 27.619 22.033 28.279 22.5087 28.7948C22.9933 29.3106 23.6586 29.5457 24.5143 29.4825C25.3888 29.4193 26.187 29.0754 26.9195 28.4608C27.661 27.8456 28.1172 27.1315 28.2882 26.3173C28.4592 25.5216 28.2979 24.8616 27.8133 24.3458C27.3384 23.83 26.6723 23.6041 25.8173 23.6581C24.9429 23.7213 24.1446 24.056 23.4032 24.6712L23.4018 24.6705ZM22.8313 24.0553C23.7438 23.2958 24.7421 22.8887 25.8353 22.834C26.9472 22.78 27.8223 23.0962 28.4682 23.7925C29.1149 24.4887 29.3426 25.3569 29.1433 26.397C28.9529 27.4187 28.4018 28.3146 27.4893 29.0741C26.5865 29.8428 25.5882 30.2499 24.495 30.2954C23.3921 30.3586 22.508 30.0332 21.862 29.3369C21.2154 28.6407 20.9973 27.7725 21.187 26.7416C21.3774 25.7199 21.9285 24.824 22.8313 24.0553Z" fill="#FEFEFE"/>
<path d="M32.0702 27.8338L25.6641 33.2149L25.0742 32.5734L30.8157 27.762L30.4356 27.355L31.1106 26.7852L32.0702 27.8161L32.0612 27.8253L32.0702 27.8338Z" fill="#FEFEFE"/>
<path d="M33.4315 29.2876L27.0247 34.6595L26.4355 34.0265L32.177 29.2059L31.7962 28.7989L32.4713 28.2383L33.4315 29.2692L33.4218 29.2784L33.4315 29.2876Z" fill="#FEFEFE"/>
<path d="M31.1908 32.987C30.459 33.6108 30.0028 34.3255 29.8318 35.1397C29.6608 35.9354 29.8221 36.5954 30.2977 37.1112C30.7824 37.627 31.4477 37.8622 32.3034 37.7989C33.1778 37.7357 33.9761 37.3918 34.7086 36.7772C35.45 36.162 35.9063 35.4479 36.0773 34.6338C36.2483 33.838 36.087 33.178 35.6024 32.6622C35.1274 32.1464 34.4614 31.9205 33.6064 31.9745C32.732 32.0377 31.9337 32.3724 31.1922 32.9876L31.1908 32.987ZM30.6204 32.3717C31.5329 31.6122 32.5312 31.2051 33.6244 31.1504C34.7363 31.0964 35.6114 31.4126 36.2573 32.1089C36.9039 32.8051 37.1317 33.6733 36.9323 34.7135C36.7419 35.7351 36.1908 36.631 35.2783 37.3905C34.3755 38.1592 33.3772 38.5663 32.284 38.6118C31.1811 38.675 30.297 38.3496 29.6511 37.6533C29.0045 36.9571 28.7864 36.0889 28.9761 35.058C29.1665 34.0363 29.7176 33.1404 30.6204 32.3717Z" fill="#FEFEFE"/>
<path d="M36.2677 38.3971C35.5359 39.0209 35.0797 39.7356 34.9087 40.5498C34.7377 41.3456 34.899 42.0056 35.3746 42.5214C35.8592 43.0371 36.5246 43.2723 37.3803 43.2091C38.2547 43.1458 39.0529 42.802 39.7847 42.1874C40.5262 41.5721 40.9825 40.8581 41.1535 40.0439C41.3245 39.2482 41.1632 38.5881 40.6785 38.0724C40.2036 37.5566 39.5376 37.3306 38.6825 37.3847C37.8081 37.4479 37.0099 37.7825 36.2684 38.3978L36.2677 38.3971ZM35.6972 37.7819C36.6097 37.0224 37.6074 36.6153 38.7005 36.5606C39.8124 36.5066 40.6875 36.8228 41.3335 37.519C41.9801 38.2153 42.2079 39.0835 42.0085 40.1236C41.8181 41.1453 41.267 42.0412 40.3545 42.8007C39.4517 43.5694 38.4534 43.9765 37.3602 44.0219C36.2573 44.0852 35.3732 43.7598 34.7273 43.0635C34.0806 42.3672 33.8626 41.499 34.0523 40.4681C34.2426 39.4465 34.7937 38.5506 35.6965 37.7819H35.6972Z" fill="#FEFEFE"/>
<path d="M44.9296 41.565L38.5228 46.946L37.9336 46.3038L43.6744 41.4833L43.2943 41.0769L43.9693 40.5156L44.9296 41.5472L44.9199 41.5557L44.9296 41.565Z" fill="#FEFEFE"/>
<path fill-rule="evenodd" clip-rule="evenodd" d="M16.0806 9.81565L36.2038 30.1649C38.1049 32.091 41.9923 35.2298 42.9623 37.1466C43.989 36.5768 47.1827 33.5922 48.2094 32.5705C50.2054 30.5897 52.4015 29.6583 52.5157 26.7553L25.5585 8.98369C22.5171 7.01213 21.1103 4.60648 16.0723 9.81565H16.082H16.0806Z" fill="#FF1493"/>
<path fill-rule="evenodd" clip-rule="evenodd" d="M16.0806 9.81565L36.2038 30.1649C38.1049 32.091 41.9923 35.2298 42.9623 37.1466C43.989 36.5768 47.1827 33.5922 48.2094 32.5705C50.2054 30.5897 52.4015 29.6583 52.5157 26.7553L25.5585 8.98369C22.5171 7.01213 21.1103 4.60648 16.0723 9.81565H16.082H16.0806Z" fill="#B70569"/>
<path d="M35.5731 15.7628L29.2231 22.6273L28.4629 21.9943L34.1663 15.8445L33.681 15.4459L34.347 14.7227L35.5731 15.7443L35.5634 15.7536L35.5731 15.7628Z" fill="#FEFEFE"/>
<path d="M33.6315 20.1979C32.9087 20.9936 32.5002 21.8526 32.4338 22.7847C32.3673 23.6983 32.6332 24.4124 33.2514 24.919C33.869 25.4347 34.6388 25.6067 35.5894 25.4255C36.5497 25.2358 37.3957 24.747 38.1178 23.9605C38.8496 23.1733 39.2587 22.3144 39.3342 21.3829C39.4006 20.4693 39.1348 19.7553 38.5165 19.2395C37.908 18.7237 37.1291 18.561 36.1876 18.7421C35.2273 18.9319 34.3813 19.4114 33.6398 20.1979H33.6308H33.6315ZM32.8997 19.5827C33.8025 18.615 34.8576 18.0268 36.0747 17.8193C37.3008 17.6111 38.3275 17.8463 39.1542 18.534C39.9815 19.2303 40.3616 20.1617 40.2854 21.3467C40.2287 22.5133 39.7433 23.5804 38.8406 24.5481C37.9468 25.525 36.8924 26.1126 35.6849 26.3207C34.4588 26.5381 33.4321 26.2937 32.6055 25.606C31.7878 24.9183 31.4078 23.9783 31.4742 22.7933C31.531 21.6267 32.0163 20.5503 32.9094 19.5827H32.8997Z" fill="#FEFEFE"/>
<path d="M40.0788 25.5768C39.356 26.3726 38.9475 27.2315 38.881 28.1636C38.8146 29.0773 39.0804 29.7913 39.689 30.2979C40.3066 30.8137 41.0764 30.9764 42.027 30.8044C42.9872 30.6147 43.8333 30.1259 44.5554 29.3394C45.2872 28.5523 45.6963 27.6933 45.7718 26.7619C45.8382 25.8482 45.5724 25.1342 44.9541 24.6184C44.3456 24.1026 43.5667 23.9399 42.6252 24.1211C41.6649 24.3108 40.8189 24.7903 40.0774 25.5768H40.0788ZM39.347 24.9616C40.2498 23.9939 41.3049 23.4057 42.522 23.1982C43.7481 22.99 44.7748 23.2252 45.6015 23.9129C46.4288 24.6092 46.8089 25.5406 46.7327 26.7256C46.676 27.8922 46.1906 28.9594 45.2878 29.927C44.3941 30.9039 43.3389 31.4915 42.1322 31.6996C40.9061 31.917 39.8794 31.6726 39.0527 30.9849C38.2351 30.2972 37.855 29.3572 37.9215 28.1722C37.9783 27.0056 38.4636 25.9292 39.3567 24.9616H39.347Z" fill="#FEFEFE"/>
<path d="M50.2091 27.9627L43.8501 34.8187L43.0996 34.1857L48.7926 28.0352L48.308 27.6373L48.983 26.9141L50.2091 27.9357L50.1994 27.9542L50.2091 27.9627Z" fill="#FEFEFE"/>
<path fill-rule="evenodd" clip-rule="evenodd" d="M24.3664 6.84711C24.813 7.40768 36.6947 15.3756 37.8543 15.9276C39.7652 16.8412 50.4872 18.6678 54.0707 19.509C55.6007 19.8707 55.5253 19.5993 56.0196 20.6308C54.0139 21.3996 44.4134 18.1435 41.2384 18.1349L52.6833 25.6595C54.1566 26.2023 56.8276 26.7536 58.4815 26.6094C59.2895 25.1259 60.8673 16.9591 61.3048 14.454C61.9224 10.8996 58.8907 11.6591 50.2691 10.0406L30.3931 6.5856C27.8454 6.1515 25.6784 5.08437 24.3574 6.84777H24.3671L24.3664 6.84711Z" fill="#FF1493"/>
<path fill-rule="evenodd" clip-rule="evenodd" d="M24.3664 6.84711C24.813 7.40768 36.6947 15.3756 37.8543 15.9276C39.7652 16.8412 50.4872 18.6678 54.0707 19.509C55.6007 19.8707 55.5253 19.5993 56.0196 20.6308C54.0139 21.3996 44.4134 18.1435 41.2384 18.1349L52.6833 25.6595C54.1566 26.2023 56.8276 26.7536 58.4815 26.6094C59.2895 25.1259 60.8673 16.9591 61.3048 14.454C61.9224 10.8996 58.8907 11.6591 50.2691 10.0406L30.3931 6.5856C27.8454 6.1515 25.6784 5.08437 24.3574 6.84777H24.3671L24.3664 6.84711Z" fill="#B70569"/>
<path d="M34.0214 10.8262C33.822 11.7037 33.9071 12.5086 34.2588 13.2319C34.6105 13.9374 35.1236 14.3623 35.7986 14.498C36.4833 14.6429 37.1389 14.4525 37.7662 13.9466C38.4031 13.4223 38.8213 12.7253 39.0117 11.8486C39.2111 10.9712 39.1349 10.1662 38.7832 9.44293C38.4315 8.73744 37.9185 8.31256 37.2338 8.16764C36.5491 8.03195 35.9031 8.2131 35.2759 8.71899C34.6389 9.24334 34.2208 9.94026 34.0214 10.817V10.8262ZM33.2037 10.6635C33.4509 9.57797 33.9833 8.72822 34.8009 8.09519C35.6186 7.45293 36.493 7.21777 37.4055 7.40748C38.3276 7.59719 39.0214 8.1492 39.4873 9.05362C39.9532 9.94883 40.0668 10.9349 39.8106 12.0198C39.5731 13.1054 39.0407 13.9644 38.2328 14.5974C37.4152 15.2397 36.5407 15.4748 35.6283 15.2851C34.7158 15.0954 34.0221 14.5434 33.5464 13.639C33.0805 12.7438 32.967 11.7577 33.2044 10.6728V10.6635H33.2037Z" fill="#FEFEFE"/>
<path d="M42.6172 8.58281L40.887 16.2246L40.041 16.0527L41.5905 9.20661L41.058 9.09792L41.2388 8.29297L42.6075 8.57358L42.5978 8.58281H42.6172Z" fill="#FEFEFE"/>
<path d="M43.1112 12.67C42.9118 13.5474 42.997 14.3524 43.3487 15.0756C43.7004 15.7811 44.2134 16.206 44.8884 16.3417C45.5731 16.4866 46.2288 16.2962 46.856 15.7904C47.4929 15.266 47.9111 14.5691 48.1015 13.6923C48.3009 12.8149 48.2247 12.01 47.873 11.2867C47.5213 10.5812 47.0083 10.1563 46.3236 10.0114C45.6389 9.8757 44.993 10.0568 44.3657 10.5627C43.7288 11.0871 43.3106 11.784 43.1112 12.6608V12.67ZM42.2936 12.5073C42.5407 11.4217 43.0731 10.572 43.8908 9.93894C44.7084 9.29668 45.5828 9.06152 46.4953 9.25123C47.4175 9.44094 48.1112 9.99295 48.5771 10.8974C49.0431 11.7926 49.1566 12.7787 48.9004 13.8636C48.663 14.9492 48.1306 15.8081 47.3226 16.4412C46.505 17.0834 45.6306 17.3186 44.7181 17.1289C43.8056 16.9392 43.1119 16.3872 42.6363 15.4827C42.1703 14.5875 42.0568 13.6014 42.2943 12.5165V12.5073H42.2936Z" fill="#FEFEFE"/>
<path d="M50.2772 14.1231C50.0778 15.0005 50.163 15.8055 50.5147 16.5288C50.8664 17.2343 51.3794 17.6591 52.0544 17.7948C52.7392 17.9397 53.3948 17.7494 54.022 17.2435C54.659 16.7191 55.0771 16.0222 55.2675 15.1455C55.4669 14.268 55.3908 13.4631 55.0391 12.7398C54.6874 12.0343 54.1743 11.6094 53.4896 11.4645C52.8049 11.3288 52.159 11.51 51.5317 12.0159C50.8948 12.5402 50.4766 13.2371 50.2772 14.1139V14.1231ZM49.4596 13.9604C49.7068 12.8748 50.2392 12.0251 51.0568 11.3921C51.8744 10.7498 52.7488 10.5146 53.6613 10.7044C54.5835 10.8941 55.2772 11.4461 55.7432 12.3505C56.2091 13.2457 56.3226 14.2318 56.0665 15.3167C55.829 16.4023 55.2966 17.2613 54.4887 17.8943C53.671 18.5365 52.7966 18.7717 51.8841 18.582C50.9716 18.3923 50.2779 17.8403 49.8023 16.9359C49.3364 16.0407 49.2228 15.0545 49.4603 13.9696V13.9604H49.4596Z" fill="#FEFEFE"/>
<path d="M58.8645 11.8843L57.1344 19.5261L56.2891 19.3457L57.8475 12.4989L57.3061 12.3909L57.4861 11.5859L58.8555 11.8659V11.8751L58.8645 11.8843Z" fill="#FEFEFE"/>
<path d="M60.7891 12.2789L59.059 19.9213L58.2227 19.7494L59.7721 12.8941L59.23 12.7854L59.4107 11.9805L60.7794 12.2611V12.2789H60.7891Z" fill="#FEFEFE"/>
<path fill-rule="evenodd" clip-rule="evenodd" d="M28.8516 4.97772L29.431 5.27612C29.8589 5.43882 29.8686 5.46583 30.3435 5.59296L58.6126 10.4405C58.2609 8.64086 56.5211 4.82423 55.7132 2.67154C54.4773 -0.602306 54.0973 0.184206 47.7763 0.835681C44.3638 1.18875 40.9894 1.60441 37.5202 1.92125C35.7049 2.08396 34.0412 2.2381 32.2543 2.41859C29.6692 2.68998 29.3362 2.66297 28.8703 4.96915L28.8516 4.97837V4.97772Z" fill="#FF1493"/>
<path fill-rule="evenodd" clip-rule="evenodd" d="M28.8516 4.97772L29.431 5.27612C29.8589 5.43882 29.8686 5.46583 30.3435 5.59296L58.6126 10.4405C58.2609 8.64086 56.5211 4.82423 55.7132 2.67154C54.4773 -0.602306 54.0973 0.184206 47.7763 0.835681C44.3638 1.18875 40.9894 1.60441 37.5202 1.92125C35.7049 2.08396 34.0412 2.2381 32.2543 2.41859C29.6692 2.68998 29.3362 2.66297 28.8703 4.96915L28.8516 4.97837V4.97772Z" fill="#B70569"/>
<path d="M32.4316 3.27491C32.3084 4.07064 32.4316 4.78536 32.793 5.40916C33.1447 6.02441 33.639 6.3676 34.2476 6.45851C34.8652 6.53953 35.4453 6.34125 35.968 5.85248C36.5004 5.34593 36.8327 4.70367 36.947 3.90794C37.0702 3.1122 36.9567 2.39749 36.5953 1.77368C36.2436 1.15844 35.7493 0.806021 35.1317 0.72434C34.5141 0.643317 33.9437 0.841592 33.421 1.33036C32.8886 1.83692 32.5562 2.47917 32.4323 3.27491H32.4316ZM31.6901 3.17544C31.8425 2.19856 32.2696 1.3936 32.9543 0.787577C33.648 0.163768 34.4089 -0.0898392 35.2452 0.0280719C36.0816 0.145324 36.7379 0.597866 37.2031 1.38438C37.6781 2.16233 37.8401 3.03909 37.6781 4.01597C37.5258 5.00207 37.1076 5.79781 36.4236 6.40383C35.7299 7.02764 34.969 7.28125 34.1327 7.16334C33.3053 7.04609 32.6497 6.59354 32.1748 5.80703C31.6998 5.0383 31.5378 4.15232 31.6901 3.17544Z" fill="#FEFEFE"/>
<path d="M39.9585 0.770333L38.8937 7.6981L38.1328 7.58941L39.0841 1.38558L38.5987 1.32234L38.713 0.589844L39.9488 0.761111V0.770333H39.9585Z" fill="#FEFEFE"/>
<path d="M41.698 1.01002L40.6332 7.92856L39.873 7.82909L40.8236 1.61605L40.339 1.55281L40.4532 0.820312L41.6883 0.99158V1.0008L41.698 1.01002Z" fill="#FEFEFE"/>
<path d="M42.3984 4.62647C42.2752 5.4222 42.3984 6.13691 42.7598 6.76072C43.1115 7.37597 43.6058 7.71916 44.2144 7.81006C44.8319 7.89109 45.4121 7.69281 45.9348 7.20404C46.4672 6.69748 46.7995 6.05523 46.9138 5.2595C47.037 4.46376 46.9235 3.74905 46.5621 3.12524C46.2104 2.51 45.716 2.15758 45.0985 2.0759C44.4809 1.99488 43.9105 2.19315 43.3878 2.68192C42.8554 3.18848 42.523 3.83073 42.3991 4.62647H42.3984ZM41.6569 4.527C41.8092 3.55012 42.2364 2.74516 42.9211 2.13914C43.6148 1.51533 44.3757 1.26172 45.212 1.37963C46.0484 1.49689 46.7047 1.94943 47.1699 2.73594C47.6449 3.51389 47.8069 4.39065 47.6449 5.36753C47.4926 6.35363 47.0744 7.14937 46.3904 7.75539C45.6967 8.3792 44.9358 8.6328 44.0995 8.51489C43.2721 8.39764 42.6165 7.9451 42.1416 7.15859C41.6666 6.38986 41.5046 5.50388 41.6569 4.527Z" fill="#FEFEFE"/>
<path d="M49.9304 2.12646L48.8656 9.05422L48.1055 8.95476L49.056 2.74105L48.5714 2.67781L48.6856 1.94531L49.9207 2.11724V2.12646H49.9304Z" fill="#FEFEFE"/>
<path d="M50.623 5.74756C50.4998 6.54329 50.623 7.25801 50.9844 7.88181C51.3361 8.49706 51.8304 8.84025 52.439 8.93116C53.0566 9.01218 53.6367 8.8139 54.1594 8.32513C54.6918 7.81858 55.0242 7.17633 55.1384 6.38059C55.2616 5.58486 55.1481 4.87015 54.7867 4.24634C54.435 3.63109 53.9407 3.27868 53.3231 3.197C52.7055 3.11597 52.1351 3.31425 51.6124 3.80302C51.08 4.30957 50.7476 4.95183 50.6237 5.74756H50.623ZM49.8815 5.64809C50.0339 4.67121 50.461 3.86626 51.1457 3.26023C51.8394 2.63642 52.6003 2.38282 53.4366 2.50073C54.273 2.61798 54.9293 3.07052 55.3945 3.85703C55.8695 4.63498 56.0315 5.51174 55.8695 6.48862C55.7172 7.47473 55.299 8.27046 54.615 8.87648C53.9213 9.50029 53.1604 9.7539 52.3241 9.63599C51.4967 9.51873 50.8411 9.06619 50.3662 8.27968C49.8912 7.51096 49.7292 6.62498 49.8815 5.64809Z" fill="#FEFEFE"/>
<path d="M58.1647 3.24755L57.0999 10.1753L56.3301 10.0759L57.2903 3.8628L56.8057 3.79956L56.9192 3.06641L58.1551 3.23833V3.24755H58.1647Z" fill="#FEFEFE"/>
<path fill-rule="evenodd" clip-rule="evenodd" d="M32.4178 44.733C33.9007 55.0881 24.5855 54.4011 24.8132 47.0577C24.861 45.4662 25.1746 45.5472 24.5564 44.625C21.6188 51.535 24.0524 57.2593 28.9859 57.115C32.7979 56.9977 35.2307 52.2675 34.195 48.0622C33.8239 46.561 33.5864 45.982 32.6455 44.9511C32.5978 44.8971 32.4932 44.7976 32.4171 44.7251V44.7343L32.4178 44.733Z" fill="white"/>
<path fill-rule="evenodd" clip-rule="evenodd" d="M28.317 42.8978C24.1153 44.7607 26.4921 52.5658 29.3818 51.2273C32.5569 49.7531 31.4921 41.496 28.317 42.8978Z" fill="white"/>
<path fill-rule="evenodd" clip-rule="evenodd" d="M2.10811 36.6249C4.13248 36.8871 4.9598 35.2594 5.60575 33.6133C3.98986 34.2285 4.94042 34.0836 3.55231 35.1329C2.61144 35.8384 2.53528 35.3319 2.10742 36.6249H2.10811Z" fill="#EEEEF0"/>
<path fill-rule="evenodd" clip-rule="evenodd" d="M1.50148 41.168C2.11903 41.9275 0.550908 41.1317 2.32881 42.2621C2.8799 42.6152 3.29807 42.6692 3.97309 42.8951C3.49815 41.3939 3.55492 41.2852 1.50148 41.168Z" fill="#EEEEF0"/>
<path fill-rule="evenodd" clip-rule="evenodd" d="M1.14559 44.6322C1.67799 45.0393 -0.279917 45.6453 2.24847 44.9669C3.4275 44.65 2.45755 44.9306 2.82794 44.1797L1.14559 44.6408V44.6316V44.6322Z" fill="#EEEEF0"/>
<path d="M22.8696 6.50491L17.594 12.1936L16.9668 11.6686L21.6912 6.56815L21.2918 6.23352L21.8526 5.63672L22.8696 6.48647L22.8599 6.49569L22.8696 6.50491Z" fill="#FEFEFE"/>
<path d="M21.242 10.177C20.6431 10.8371 20.3108 11.5518 20.2436 12.3205C20.1868 13.08 20.4146 13.6682 20.9186 14.0931C21.4317 14.518 22.0686 14.6629 22.8578 14.5094C23.6561 14.3559 24.3595 13.9489 24.9584 13.2882C25.5669 12.6367 25.8992 11.9226 25.9657 11.1539C26.0225 10.3944 25.7947 9.80616 25.2907 9.38128C24.7867 8.95641 24.1407 8.82071 23.3515 8.96497C22.5532 9.11845 21.8498 9.52554 21.2413 10.177H21.242ZM20.6334 9.67046C21.3846 8.8655 22.259 8.37739 23.2663 8.20547C24.2833 8.03354 25.1391 8.22325 25.8141 8.80227C26.4988 9.38128 26.8124 10.1586 26.755 11.1355C26.7072 12.1031 26.3084 12.9898 25.5572 13.7947C24.8157 14.5997 23.9413 15.097 22.934 15.2597C21.917 15.4409 21.0613 15.2419 20.3772 14.6629C19.6925 14.0931 19.3789 13.3152 19.4364 12.3297C19.4841 11.3621 19.8829 10.4669 20.6341 9.6619V9.67112L20.6334 9.67046Z" fill="#FEFEFE"/>
<path d="M26.6013 14.638C26.0025 15.298 25.6701 16.0127 25.603 16.7814C25.5462 17.5409 25.774 18.1292 26.278 18.554C26.791 18.9789 27.428 19.1238 28.2172 18.9704C29.0155 18.8169 29.7189 18.4098 30.3177 17.7491C30.9263 17.0976 31.2586 16.3836 31.3251 15.6148C31.3819 14.8553 31.1541 14.2671 30.6501 13.8422C30.146 13.4173 29.5001 13.2816 28.7108 13.4259C27.9126 13.5794 27.2092 13.9865 26.6006 14.638H26.6013ZM25.9928 14.1314C26.7439 13.3264 27.6184 12.8383 28.6257 12.6664C29.6427 12.4945 30.4984 12.6842 31.1735 13.2632C31.8582 13.8422 32.1718 14.6195 32.1143 15.5964C32.0666 16.564 31.6678 17.4507 30.9166 18.2556C30.1751 19.0606 29.3007 19.5579 28.2934 19.7206C27.2763 19.9018 26.4206 19.7029 25.7366 19.1238C25.0519 18.554 24.7383 17.7761 24.7957 16.7906C24.8435 15.823 25.2423 14.9278 25.9935 14.1228V14.1321L25.9928 14.1314Z" fill="#FEFEFE"/>
<path d="M33.5723 77.1233C33.8569 77.0442 33.8354 77.2366 33.5432 78.0738C34.3422 77.8545 35.1896 77.6061 36.0855 77.315C36.1464 76.5871 36.0024 76.0647 35.6618 75.7762C35.3488 75.5107 34.8787 75.4916 34.1227 75.79C33.3757 76.0851 32.8682 76.371 32.4501 76.7406C32.0312 77.1101 31.6601 77.5785 31.2523 78.2121C30.65 79.1482 30.9429 79.5283 31.4226 79.7773C31.9841 80.0684 32.7277 80.2002 32.5041 80.8319C32.3677 81.2153 32.214 81.4623 31.8055 81.5031C31.2994 81.5538 31.5154 81.0558 31.7764 80.4564C30.9726 80.5394 30.2498 80.5914 29.6067 80.6204C29.1927 81.2535 28.9088 81.8154 29.0369 82.2191C29.1698 82.6394 29.8268 82.9266 31.2869 82.8199C33.1008 82.6875 34.2397 82.2771 34.8905 81.8035C35.5545 81.3206 35.6929 80.7792 35.7476 80.185C35.8432 79.1535 34.8822 78.9611 34.0528 78.7793C33.3286 78.6206 32.7041 78.469 32.9568 77.8749C33.1832 77.344 33.3245 77.1931 33.573 77.1239L33.5723 77.1233ZM40.3488 72.7316C40.578 73.1532 40.8065 73.5767 41.0356 73.999C41.2641 74.4205 41.4932 74.8434 41.7196 75.2663C41.118 75.6313 40.4998 75.9791 39.876 76.3131C39.732 75.8546 39.5886 75.3981 39.4446 74.9409C39.3006 74.4838 39.1573 74.026 39.0133 73.5688C38.3362 73.9397 37.6667 74.3079 37.0042 74.628C37.0263 75.8039 37.0464 76.9764 37.0672 78.1522C37.088 79.3267 37.1087 80.5005 37.1302 81.6764C38.4449 81.2745 39.7721 80.7752 41.0965 80.2114C40.9602 79.7773 40.8224 79.3438 40.6874 78.9097C40.5524 78.4763 40.4174 78.0389 40.281 77.6068C40.9871 77.2451 41.6857 76.8651 42.3628 76.4599C42.5823 76.8598 42.799 77.2616 43.0157 77.6634C43.2324 78.0653 43.4491 78.4651 43.6658 78.8649C44.8586 78.1291 45.9671 77.3413 47.0069 76.5429C46.2031 75.6767 45.3973 74.8125 44.5935 73.945C43.7918 73.0794 42.9866 72.2125 42.1828 71.347C41.5964 71.8206 40.9802 72.2817 40.3467 72.7309L40.3488 72.7316ZM45.4042 70.0493C45.8549 69.436 46.2516 68.8306 46.5777 68.2299C46.1104 68.0231 45.6424 67.8162 45.173 67.6094C44.9272 68.1489 44.6239 68.693 44.2307 69.2127C43.8202 69.7555 43.3251 70.2706 42.801 70.7897C43.6803 71.596 44.563 72.3976 45.443 73.2039C46.3208 74.0082 47.2036 74.8151 48.0828 75.6194C48.9835 74.773 49.8289 73.9608 50.5565 73.1222C51.2378 72.337 51.8082 71.5314 52.3898 70.7923C51.9225 70.5855 51.4524 70.3786 50.9851 70.1718C50.4471 70.9017 49.8676 71.6618 49.2418 72.4543C48.7841 72.1677 48.3286 71.8812 47.871 71.5946C48.2774 71.0749 48.6554 70.5664 49.0133 70.0677C48.5626 69.8517 48.1147 69.6323 47.6667 69.4149C47.3524 69.878 47.0139 70.3497 46.6462 70.8266C46.2322 70.5677 45.821 70.3068 45.4042 70.0493Z" fill="white"/>
<path d="M27.1736 88.0744C26.8925 88.0625 26.7727 87.9834 26.8343 87.6989C26.8967 87.4123 27.1445 86.9137 27.6111 86.0488C28.0674 85.2043 28.3512 84.701 28.5776 84.4112C28.8068 84.1187 28.9716 84.0384 29.1869 84.0397C29.5774 84.0417 29.4749 84.4428 29.216 85.006C29.7996 85.0021 30.4088 84.9988 31.0582 84.9527C31.2736 84.2986 31.2715 83.7696 31.0693 83.4073C30.8658 83.0424 30.4926 82.8178 29.8508 82.8217C29.0664 82.827 28.5139 83.0529 27.9538 83.5516C27.4014 84.0436 26.8295 84.8117 26.0901 85.9447C25.3272 87.1139 24.8758 87.8952 24.8972 88.4195C24.9194 88.9485 25.4538 89.2271 26.6807 89.2956C27.6644 89.3503 28.4883 89.1217 29.11 88.7265C29.7317 88.3312 30.1312 87.7615 30.3465 87.1073C29.6099 87.1423 28.9093 87.1423 28.2384 87.139C27.9718 87.7213 27.6838 88.0954 27.1729 88.0744H27.1736ZM31.4889 86.3854C32.1528 86.6607 32.8576 86.9512 33.6413 87.1614C34.4638 87.382 35.3555 87.5349 36.2895 87.6771C36.286 87.2707 36.286 86.8643 36.2825 86.4572C35.17 86.3017 34.1342 86.1061 33.1747 85.8729C34.2249 85.3387 35.2614 84.7656 36.2756 84.1859C36.2756 83.7795 36.2756 83.3711 36.2756 82.964C35.5459 83.4462 34.801 83.9409 34.0283 84.4C33.2654 84.8539 32.4706 85.2557 31.6862 85.6601C31.6246 85.9025 31.5546 86.1443 31.4896 86.3847L31.4889 86.3854ZM39.9083 81.0089C39.6895 82.1828 39.4347 83.3599 39.0657 84.5146C38.687 85.7016 38.1864 86.8873 37.654 88.0572C38.4384 87.8728 39.2229 87.6343 40.0142 87.3899C40.4337 86.2036 40.8214 85.0232 41.0755 83.8157C41.3213 82.6458 41.4549 81.4799 41.5498 80.3212C41.0028 80.5669 40.4552 80.7889 39.9083 81.0089ZM48.1712 79.7982C47.2518 79.9754 46.3552 80.1493 45.4573 80.2843C44.5752 80.4167 43.6953 80.5116 42.8306 80.5748C43.0057 80.9391 43.1809 81.3027 43.3561 81.665C44.5199 81.5135 45.6906 81.3047 46.8655 81.059C46.1032 81.9568 45.2565 82.8369 44.3371 83.7018C44.5122 84.066 44.6874 84.4296 44.8626 84.7919C45.6213 84.0581 46.3504 83.3447 46.9894 82.5833C47.6056 81.8494 48.1456 81.0939 48.66 80.364C48.4993 80.1756 48.3318 79.9886 48.1712 79.7982ZM53.734 75.836C52.4498 75.0192 51.5484 74.5739 50.7903 74.5146C50.0425 74.456 49.4319 74.7972 48.6198 75.5606C48.0964 76.052 47.5183 76.5197 46.9305 77.0059C47.7039 77.8095 48.473 78.6145 49.2436 79.4194C50.0128 80.2237 50.7868 81.0274 51.556 81.831C52.4172 81.2342 53.2854 80.673 54.0698 80.0584C55.2821 79.1085 55.7799 78.3977 55.6642 77.7555C55.55 77.1225 54.8037 76.5151 53.5194 75.6983C53.5921 75.7424 53.6613 75.7886 53.7347 75.8353L53.734 75.836ZM52.0669 77.0243C53.0043 77.7245 53.4481 78.1277 53.5187 78.4623C53.59 78.7982 53.2923 79.0723 52.7343 79.5228C52.1687 79.0387 51.6003 78.5539 51.0347 78.0704C50.4662 77.5855 49.8999 77.1001 49.335 76.6139C49.7691 76.222 50.0308 76.0152 50.415 76.0764C50.8083 76.139 51.3268 76.4664 52.2608 77.1705C52.1991 77.1205 52.1334 77.0724 52.0676 77.0243H52.0669ZM53.1469 72.8533C53.4896 72.4284 53.8143 72.0068 54.1245 71.5892C53.6177 71.3652 53.1103 71.1419 52.6035 70.918C52.078 71.6939 51.4833 72.4818 50.8193 73.2874C51.9208 73.9487 53.023 74.6088 54.1245 75.2688C55.226 75.9289 56.3316 76.5902 57.4366 77.2483C58.4689 76.2464 59.4651 75.2873 60.4205 74.367C59.9137 74.1431 59.4028 73.9198 58.896 73.6958C58.4474 74.1576 57.9877 74.6272 57.5169 75.1061C56.9956 74.838 56.477 74.5686 55.9523 74.3005C56.2548 73.9718 56.5539 73.6484 56.8426 73.3282C56.3462 73.101 55.8539 72.8737 55.3575 72.6445C55.1021 72.9547 54.8321 73.267 54.5586 73.5832C54.092 73.3394 53.6177 73.097 53.1469 72.8533Z" fill="white"/>
<path d="M32.5057 97.8976C32.5915 97.3153 32.6719 96.7344 32.7598 96.1547C32.8477 95.5717 32.9315 94.992 33.0173 94.4091C33.6778 94.3504 34.3535 94.2773 35.0445 94.1732C35.0971 93.612 35.149 93.0574 35.1975 92.4961C34.5363 92.6068 33.8945 92.6753 33.2638 92.7366C33.3496 92.1562 33.4355 91.5693 33.5179 90.9864C34.3618 90.8941 35.2314 90.767 36.128 90.5971C36.1619 90.0378 36.2027 89.4766 36.2401 88.918C34.6311 89.2151 33.1039 89.3896 31.6403 89.5596C31.3454 90.9626 31.0449 92.3637 30.7479 93.7622C30.4516 95.16 30.1546 96.5618 29.8555 97.9602C30.7105 97.9675 31.5953 97.9464 32.5064 97.8963L32.5057 97.8976ZM40.9846 93.089C41.6306 93.2728 41.8667 93.8037 41.9892 94.3742C42.1131 94.9519 42.1159 95.5743 42.3139 95.938C43.4562 95.5368 44.6138 95.1099 45.779 94.6528C45.4501 94.2944 45.3269 93.5415 45.0583 92.8769C44.7897 92.2116 44.3673 91.6247 43.4791 91.5535C44.3078 90.9047 44.4511 90.1195 44.2483 89.1953C44.0627 88.3488 43.6425 87.8462 42.8892 87.6816C42.1602 87.5215 41.1065 87.6987 39.6 88.1275C38.7692 88.364 37.946 88.5754 37.136 88.7408C37.0875 90.1722 37.0335 91.6042 36.983 93.0376C36.9324 94.469 36.8819 95.903 36.8334 97.3344C37.8865 97.1269 38.954 96.872 40.0479 96.6125C40.0216 96.0769 39.9918 95.546 39.9655 95.0111C39.9392 94.4802 39.906 93.9473 39.8797 93.4144C40.2452 93.3057 40.6149 93.1997 40.9846 93.089ZM39.6817 89.6577C40.9846 89.2803 41.2948 89.5543 41.3993 90.4877C41.5039 91.4198 41.2311 91.7399 39.8125 92.1549C39.7938 91.7373 39.771 91.3203 39.7488 90.9073C39.7267 90.4923 39.7038 90.0747 39.6817 89.6571V89.6577ZM44.935 86.2047C45.2971 87.5136 45.6558 88.8251 46.0178 90.1313C46.3799 91.4402 46.7386 92.7491 47.0965 94.0606C48.2728 93.5277 49.4303 92.9118 50.5837 92.2847C50.0832 91.0608 49.5792 89.8362 49.0752 88.615C48.5711 87.393 48.0706 86.1672 47.5666 84.9426C46.6963 85.3978 45.8157 85.8108 44.9344 86.2047H44.935ZM55.8184 87.1572C55.3511 87.5129 55.0333 87.6493 54.6948 87.4754C54.3576 87.3028 53.9907 86.816 53.414 85.9399C52.8483 85.0803 52.5465 84.5441 52.4807 84.1548C52.4156 83.7681 52.5936 83.5237 52.9924 83.247C53.684 82.7668 54.116 83.0303 54.5342 83.5514C55.4342 82.8294 56.3072 82.1173 57.1588 81.4026C56.6139 80.9 55.9472 80.6715 55.1427 80.7446C54.3452 80.817 53.4064 81.2123 52.2495 81.9922C50.6883 83.0448 49.8651 83.8353 49.5951 84.7351C49.3202 85.6487 49.5916 86.65 50.2223 87.9945C50.8752 89.3857 51.4568 90.215 52.4212 90.3224C53.405 90.4317 54.8083 89.8217 56.8604 88.1954C58.3406 87.0222 59.1139 85.9307 59.3991 85.0631C59.6733 84.2299 59.4739 83.5659 58.9284 83.0633C58.0138 83.8722 57.0764 84.6903 56.1057 85.5137C56.5391 86.0466 56.6312 86.5393 55.8184 87.1572ZM57.6663 77.8581C58.2824 78.8205 58.8917 79.8276 59.4435 80.8954C60.0084 81.9902 60.5041 83.1575 60.997 84.3695C61.7925 83.5066 62.5652 82.6621 63.3191 81.8387C63.1135 81.5489 62.9044 81.261 62.6995 80.9712C63.2485 80.3698 63.7373 79.7565 64.2191 79.1525C64.5847 79.2348 64.9544 79.3152 65.3282 79.3883C65.9181 78.6169 66.4969 77.8719 67.057 77.1526C65.7464 77.0676 64.4524 76.9714 63.1744 76.8107C61.9026 76.6506 60.6391 76.4306 59.3735 76.1836C58.8363 76.7376 58.2644 77.2896 57.6676 77.8581H57.6663ZM60.3843 78.1505C60.8025 78.2803 61.2241 78.4008 61.6423 78.5207C62.0563 78.6393 62.4786 78.7519 62.9002 78.8554C62.5901 79.2302 62.273 79.6076 61.9372 79.9851C61.6873 79.6715 61.436 79.3599 61.1715 79.0536C60.9098 78.7493 60.6453 78.4476 60.3836 78.1505H60.3843Z" fill="white"/>
<path fill-rule="evenodd" clip-rule="evenodd" d="M21.7983 94.1846C21.8578 94.2268 21.8273 94.1813 21.8779 94.2604C21.9208 94.3282 21.9077 94.3243 21.9305 94.4079L22.341 94.3849C22.3791 94.3677 22.3134 94.3875 22.4297 94.3519C22.4428 94.348 22.5037 94.3322 22.5162 94.3295C22.6207 94.3071 22.6637 94.3025 22.7758 94.2953C22.7468 94.2373 23.239 94.2953 23.3186 94.2973C23.4868 94.2123 23.2971 94.2123 23.5215 94.18C23.9604 94.1161 23.8205 94.3414 24.0026 94.4283C24.1356 94.4922 24.292 94.4395 24.4201 94.4922C24.679 94.5989 24.47 94.9415 24.4166 95.1654L24.2976 95.4191C24.5953 95.4362 25.0356 95.4197 25.2779 95.3835L26.387 95.3479L27.1866 95.3249L28.9043 95.2814C28.8295 95.3664 28.86 95.3473 28.6627 95.398C28.5678 95.4224 28.4751 95.4632 28.3961 95.4889C28.2168 95.5475 28.0611 95.5877 27.8824 95.6562C27.3223 95.8703 25.0017 96.5376 24.7427 96.6858C24.6984 96.9111 24.7933 96.9638 24.751 97.1489C24.7143 97.3102 24.0102 97.8359 24.3716 98.3899C24.598 98.7364 24.38 99.5591 24.6278 99.8951L24.724 100.054L25.5922 99.9603L24.8092 100.255C24.7441 100.774 24.6105 100.472 24.9068 100.852C25.2481 100.929 25.0702 100.863 25.3063 100.768C25.5438 100.725 25.7508 101.024 26.468 100.386C26.6279 100.244 26.7463 100.118 26.8979 99.9919C27.2261 99.7172 27.0378 99.7666 27.1728 99.407C27.3251 99.2798 27.492 99.3352 27.5633 99.1369C27.6076 99.013 27.627 98.6363 27.6332 98.5038C27.9177 98.3853 28.4439 97.9927 28.6239 97.7852C28.7928 97.5909 28.6336 97.583 28.608 97.3985C28.59 97.2694 28.6177 97.0955 28.5983 96.9321C28.3006 96.8709 27.708 97.0151 27.3618 96.9809L28.5201 96.6008C28.5464 95.9171 28.4875 96.2411 28.8198 95.9151C28.9348 95.8024 28.9472 95.7866 29.0518 95.6542C29.1992 95.4671 29.4035 95.3235 29.6486 95.2708L29.8666 95.1035C29.9463 95.0423 29.8694 95.0904 29.9608 95.037C29.9857 94.846 30.3797 94.3737 30.4821 94.1247L26.0699 94.2307C26.4216 94.0456 29.0608 93.5898 29.4907 93.3718C29.4568 93.1834 29.1411 93.1096 29.121 92.796C29.0102 92.7354 28.9112 92.464 28.8642 92.3033C28.7721 91.9898 28.9375 91.9608 28.7395 91.6973C28.4155 91.6946 23.5402 92.6221 22.609 92.6603C22.8215 92.5246 26.306 91.4404 26.9014 91.2289C27.0406 91.1795 28.1711 90.8093 28.2992 90.7165L28.1698 90.3443C27.9413 90.3232 27.7495 90.3318 27.5176 90.2942C27.1472 90.2343 27.2593 90.2837 27.0364 90.0768C26.3863 89.8911 26.4874 90.2639 26.4715 90.4227C26.3136 90.37 26.2478 90.3528 26.0838 90.3034C25.8871 90.2442 26.027 90.1862 25.9356 90.0307C25.6642 89.9978 25.7009 90.0479 25.4731 89.9326C25.3284 89.8595 25.1969 89.9128 25.0134 89.9444C24.7337 89.9938 24.3211 90.0907 24.0476 90.0973L25.4143 89.5597L25.3997 89.2383C25.1325 89.2429 24.9248 89.3015 24.6714 89.2791C23.7575 89.1988 23.9569 89.3766 23.6011 89.4148C23.1857 89.4583 23.1871 89.2844 22.9406 89.563C22.7315 89.7995 22.7807 89.7244 22.6879 89.762C22.4262 89.8687 22.5024 90.005 22.3563 90.2705C22.2054 90.5465 22.0745 90.4167 21.8758 90.644C21.8142 90.7145 21.7519 90.8166 21.6799 90.8647C21.5497 90.9516 21.4833 90.8884 21.4071 91.0287C21.4064 91.0293 21.2063 91.7065 21.2015 91.7335L22.3424 91.5491L21.1599 91.9772C21.1302 92.1274 21.1184 92.2921 21.0824 92.437C20.9841 92.8336 20.6518 92.6379 21.1897 93.3303C21.351 93.5378 21.2901 93.8638 21.4424 93.9297C21.5843 93.9916 22.7239 93.7578 23.0022 93.7558L21.7574 94.0845C21.8336 94.178 21.7886 94.1062 21.801 94.182L21.7983 94.1846Z" fill="#B70569"/>
<path d="M19.9275 88.6901C20.4453 88.748 20.5062 89.163 19.8652 90.0787C18.6273 91.846 17.388 93.614 16.1515 95.3794C15.5741 96.2028 15.0403 97.1355 14.8638 97.9346C14.6845 98.7441 14.8659 99.4285 15.6939 99.7394C15.9037 99.8178 16.1127 99.8956 16.3218 99.9739C16.5309 100.052 16.7407 100.131 16.9512 100.208C17.5237 99.2895 18.0976 98.3673 18.6716 97.4458C18.502 97.3951 18.3317 97.3417 18.162 97.2883C17.7155 97.148 17.7411 96.4531 18.2867 95.6165C19.4553 93.8254 20.6246 92.0364 21.7926 90.246C22.5555 89.0754 22.685 88.3541 22.523 87.9477C23.1772 87.6091 23.9346 86.9629 24.7114 85.7726C25.8787 83.9848 27.0473 82.1944 28.2153 80.404C28.7629 79.5648 29.4587 78.9258 29.8492 78.858C29.9994 78.8316 30.1476 78.8073 30.2978 78.7809C30.8718 77.8594 31.4457 76.9372 32.0203 76.0156C31.8424 76.0591 31.6652 76.1065 31.4872 76.1513C31.3107 76.1955 31.1341 76.2416 30.9555 76.287C30.2549 76.4662 29.4823 77.0801 28.7366 77.8376C27.9938 78.5919 27.271 79.5042 26.6949 80.3269C25.4571 82.095 24.2185 83.8636 22.9813 85.6296C22.343 86.5413 21.7573 86.8997 21.2463 86.8687C20.806 87.476 20.3678 88.0854 19.9275 88.6901Z" fill="white"/>
<path d="M60.5908 69.5868C60.172 69.903 60.2855 70.2376 61.198 70.5663C62.9586 71.2006 64.7199 71.8357 66.4791 72.4687C67.2995 72.7644 68.1268 73.1623 68.5962 73.6511C69.0718 74.1464 69.1902 74.7413 68.608 75.4053C68.4605 75.5732 68.313 75.7405 68.1663 75.9079C68.0188 76.0758 67.872 76.2432 67.7232 76.4111C66.8688 76.0429 66.0111 75.6747 65.154 75.3058C65.2786 75.1793 65.4025 75.0502 65.5257 74.9218C65.8504 74.5838 65.552 74.0905 64.7531 73.769C63.0424 73.0806 61.3316 72.3942 59.6216 71.7052C58.5041 71.2547 58.1061 70.7975 58.0818 70.4154C57.3888 70.5143 56.4853 70.4431 55.3485 69.986C53.6399 69.2989 51.9298 68.6112 50.2198 67.9228C49.418 67.6001 48.5699 67.5019 48.2099 67.6587C48.0715 67.7186 47.9351 67.7792 47.7966 67.8392C46.9395 67.4703 46.0824 67.1021 45.2246 66.7332C45.3942 66.6706 45.5632 66.612 45.7335 66.5507C45.9017 66.4901 46.0706 66.4295 46.2409 66.3689C46.9097 66.1298 47.8139 66.1693 48.7513 66.3274C49.686 66.4849 50.6656 66.7688 51.4853 67.0639C53.2466 67.6989 55.0079 68.3339 56.7671 68.9682C57.6747 69.2956 58.3172 69.2482 58.7402 68.9551C59.3578 69.1652 59.9747 69.378 60.5908 69.5868Z" fill="white"/>
</svg>
