<svg xmlns="http://www.w3.org/2000/svg" role="img" viewBox="8.95 3.95 195.86 210.86"><style>svg {enable-background:new 0 0 216 216}</style><path fill="#fff" d="M199.3 138.8l-41.1-29.5 41.1-29.5c.9-.6 1.5-1.8 1.5-3.1s-.6-2.5-1.5-3.1L108.4 8.5c-.9-.6-2-.6-2.9 0L14.6 73.7c-.9.6-1.5 1.8-1.5 3.1V142c0 1.3.6 2.5 1.5 3.1l90.9 65.2c.5.3 1 .5 1.5.5s1-.2 1.5-.5l90.9-65.2c.9-.6 1.5-1.8 1.5-3.1-.1-1.3-.7-2.5-1.6-3.2zm-57.9-25.7l-12.7-9.3 34.7-26.1.9-.8.3-.2-17.8-13 13.1-9.9 31.9 22.8-7.3 5.5-43.1 31zM90.1 27.9l12.8 9.3L53 74.6 39.2 64.5l3.8-2.9 47.1-33.7zm66 23.1L143 60.9 94 25.1l13-9.3L156.1 51zm-45.3 39.8L143 66.6l13.9 10.1-32.2 24.2-13.9-10.1zm10 13l-13.7 10.3-50.2-36.7L106.7 40l32.5 23.7-36 27.1 17.6 13zM35.3 67.4l13.9 10.1-12.9 9.7-14-10 13-9.8zM40.2 90L53 80.4l50.3 36.7-12.3 9.3L40.2 90zm84.6 16.7l12.6 9.2-30.4 21.9-12-8.6 29.8-22.5zM18.9 83l36.7 26.3-36.7 26.3V83zM107 203l-85.1-61 39.6-28.4 44 31.5c.5.3 1 .5 1.5.5h.1l.4.3 2.1-1.6 42.9-30.8 39.6 28.4L107 203z"/></svg>