<svg xmlns="http://www.w3.org/2000/svg" xmlns:xlink="http://www.w3.org/1999/xlink" width="80" height="80" viewBox="0 0 80 80">
  <defs>
    <clipPath id="clip-path">
      <rect id="Rectangle_101" data-name="Rectangle 101" width="80" height="80" rx="10" transform="translate(479 966)" fill="#fff"/>
    </clipPath>
  </defs>
  <g id="Mask_Group_1" data-name="Mask Group 1" transform="translate(-479 -966)" clip-path="url(#clip-path)">
    <g id="bitcoin_1_" data-name="bitcoin (1)" transform="translate(482.167 966)">
      <path id="Path_22186" data-name="Path 22186" d="M36.833,80a36.826,36.826,0,0,1,0-73.652,1.27,1.27,0,0,1,1.27,1.27v5.075a1.27,1.27,0,1,1-2.54,0V8.911A34.286,34.286,0,1,0,71.1,44.444H67.31a1.27,1.27,0,0,1,0-2.54h5.079a1.269,1.269,0,0,1,1.27,1.269A36.869,36.869,0,0,1,36.833,80Zm0,0" fill="#fff"/>
      <path id="Path_22187" data-name="Path 22187" d="M36.833,74.921a31.747,31.747,0,1,1,16.1-59.113,1.27,1.27,0,1,1-1.29,2.187A29.162,29.162,0,1,0,64.19,32.922a1.27,1.27,0,0,1,2.379-.89A31.767,31.767,0,0,1,36.833,74.921Zm0,0" fill="#fff"/>
      <path id="Path_22188" data-name="Path 22188" d="M29.011,30.928a.378.378,0,0,1,.4-.4h9.653c5.487,0,8.21,2.8,8.21,7.169,0,3.165-1.522,5.087-3.644,5.928V43.7a6.284,6.284,0,0,1,4.125,6.288c0,5.087-3.2,7.771-8.892,7.771H29.411a.378.378,0,0,1-.4-.4ZM38.984,42.3c3,0,4.765-1.721,4.765-4.245,0-2.6-1.762-4.286-4.765-4.286H32.814a.213.213,0,0,0-.24.241v8.05a.212.212,0,0,0,.24.24ZM32.815,54.519h6.369c3.244,0,5.006-1.763,5.006-4.485,0-2.684-1.763-4.487-5.006-4.487H32.815a.212.212,0,0,0-.24.241v8.491a.212.212,0,0,0,.24.241Zm0,0" fill="#fff"/>
      <path id="Path_22189" data-name="Path 22189" d="M34.293,31.746a1.269,1.269,0,0,1-1.269-1.27v-3.81a1.27,1.27,0,1,1,2.54,0v3.81A1.27,1.27,0,0,1,34.293,31.746Zm0,0" fill="#fff"/>
      <path id="Path_22190" data-name="Path 22190" d="M38.1,31.746a1.27,1.27,0,0,1-1.27-1.27v-3.81a1.27,1.27,0,1,1,2.54,0v3.81A1.27,1.27,0,0,1,38.1,31.746Zm0,0" fill="#fff"/>
      <path id="Path_22191" data-name="Path 22191" d="M34.293,62.222a1.269,1.269,0,0,1-1.269-1.27v-3.81a1.27,1.27,0,0,1,2.54,0v3.81A1.27,1.27,0,0,1,34.293,62.222Zm0,0" fill="#fff"/>
      <path id="Path_22192" data-name="Path 22192" d="M38.1,62.222a1.27,1.27,0,0,1-1.27-1.27v-3.81a1.27,1.27,0,0,1,2.54,0v3.81A1.27,1.27,0,0,1,38.1,62.222Zm0,0" fill="#fff"/>
      <path id="Path_22193" data-name="Path 22193" d="M58.421,45.714a1.27,1.27,0,0,1-1.27-1.27V29.205H48.262a1.269,1.269,0,0,1-1.167-1.769L58.524.769a1.269,1.269,0,0,1,2.436.5V17.777H72.39A1.269,1.269,0,0,1,73.5,19.658l-13.968,25.4a1.27,1.27,0,0,1-1.112.659ZM50.187,26.666h8.233a1.27,1.27,0,0,1,1.27,1.27V39.5L70.242,20.317H59.691a1.27,1.27,0,0,1-1.27-1.27V7.455Zm0,0" fill="#fff"/>
    </g>
  </g>
</svg>
