<svg xmlns="http://www.w3.org/2000/svg" xmlns:xlink="http://www.w3.org/1999/xlink" width="80" height="80" viewBox="0 0 80 80">
  <defs>
    <clipPath id="clip-path">
      <rect id="Rectangle_101" data-name="Rectangle 101" width="80" height="80" rx="10" transform="translate(479 966)" fill="#fff"/>
    </clipPath>
  </defs>
  <g id="Mask_Group_4" data-name="Mask Group 4" transform="translate(-479 -966)" clip-path="url(#clip-path)">
    <g id="network" transform="translate(479 966)">
      <path id="Path_22220" data-name="Path 22220" d="M40,24.137a1.378,1.378,0,0,1-1.379-1.38V15.178a1.379,1.379,0,1,1,2.758,0v7.579A1.379,1.379,0,0,1,40,24.137Zm0,0" fill="#fff"/>
      <path id="Path_22221" data-name="Path 22221" d="M33.1,9.655H15.172a1.379,1.379,0,1,1,0-2.758H33.1a1.379,1.379,0,1,1,0,2.758Zm0,0" fill="#fff"/>
      <path id="Path_22222" data-name="Path 22222" d="M8.276,34.476A1.38,1.38,0,0,1,6.9,33.1V15.174a1.379,1.379,0,1,1,2.758,0V33.1A1.379,1.379,0,0,1,8.276,34.476Zm0,0" fill="#fff"/>
      <path id="Path_22223" data-name="Path 22223" d="M22.706,41.38H15.173a1.379,1.379,0,1,1,0-2.758h7.533a1.379,1.379,0,1,1,0,2.758Zm0,0" fill="#fff"/>
      <path id="Path_22224" data-name="Path 22224" d="M8.276,16.552a8.276,8.276,0,1,1,8.276-8.276A8.285,8.285,0,0,1,8.276,16.552Zm0-13.794a5.517,5.517,0,1,0,5.517,5.518A5.523,5.523,0,0,0,8.276,2.758Zm0,0" fill="#fff"/>
      <path id="Path_22225" data-name="Path 22225" d="M40,16.552a8.276,8.276,0,1,1,8.276-8.276A8.285,8.285,0,0,1,40,16.552ZM40,2.758a5.517,5.517,0,1,0,5.518,5.518A5.523,5.523,0,0,0,40,2.758Zm0,0" fill="#fff"/>
      <path id="Path_22226" data-name="Path 22226" d="M8.276,48.276A8.276,8.276,0,1,1,16.552,40a8.285,8.285,0,0,1-8.276,8.276Zm0-13.793A5.517,5.517,0,1,0,13.793,40,5.523,5.523,0,0,0,8.276,34.483Zm0,0" fill="#fff"/>
      <path id="Path_22227" data-name="Path 22227" d="M64.828,41.38H56.552a1.379,1.379,0,1,1,0-2.758h8.275a1.379,1.379,0,1,1,0,2.758Zm0,0" fill="#fff"/>
      <path id="Path_22228" data-name="Path 22228" d="M40,66.2a1.378,1.378,0,0,1-1.379-1.379V56.555a1.379,1.379,0,0,1,2.758,0v8.266A1.378,1.378,0,0,1,40,66.2Zm0,0" fill="#fff"/>
      <path id="Path_22229" data-name="Path 22229" d="M64.828,73.1H46.9a1.379,1.379,0,0,1,0-2.758H64.828a1.379,1.379,0,1,1,0,2.758Zm0,0" fill="#fff"/>
      <path id="Path_22230" data-name="Path 22230" d="M71.725,66.206a1.378,1.378,0,0,1-1.38-1.379V46.9a1.379,1.379,0,1,1,2.758,0V64.827A1.378,1.378,0,0,1,71.725,66.206Zm0,0" fill="#fff"/>
      <path id="Path_22231" data-name="Path 22231" d="M71.725,48.276A8.276,8.276,0,1,1,80,40a8.285,8.285,0,0,1-8.275,8.276Zm0-13.793A5.517,5.517,0,1,0,77.242,40,5.523,5.523,0,0,0,71.725,34.483Zm0,0" fill="#fff"/>
      <path id="Path_22232" data-name="Path 22232" d="M40,80a8.276,8.276,0,1,1,8.276-8.275A8.285,8.285,0,0,1,40,80Zm0-13.793a5.517,5.517,0,1,0,5.518,5.518A5.523,5.523,0,0,0,40,66.207Zm0,0" fill="#fff"/>
      <path id="Path_22233" data-name="Path 22233" d="M71.725,80A8.276,8.276,0,1,1,80,71.725,8.285,8.285,0,0,1,71.725,80Zm0-13.793a5.517,5.517,0,1,0,5.517,5.518A5.523,5.523,0,0,0,71.725,66.207Zm0,0" fill="#fff"/>
      <path id="Path_22234" data-name="Path 22234" d="M40,57.931A17.931,17.931,0,1,1,57.931,40,17.951,17.951,0,0,1,40,57.931Zm0-33.1A15.173,15.173,0,1,0,55.173,40,15.19,15.19,0,0,0,40,24.827Zm0,0" fill="#fff"/>
      <path id="Path_22235" data-name="Path 22235" d="M35.538,32.377a.228.228,0,0,1,.242-.241h6.1c3.473,0,5.113,1.736,5.113,4.365a3.65,3.65,0,0,1-1.9,3.473v.048a3.871,3.871,0,0,1,2.194,3.691c0,3.255-2.05,4.823-5.644,4.823h-5.86a.228.228,0,0,1-.242-.241Zm6.271,6.584a2.166,2.166,0,1,0,0-4.317H38.528a.128.128,0,0,0-.144.144v4.029a.128.128,0,0,0,.144.144Zm-3.281,7.068h3.425a2.288,2.288,0,1,0,0-4.559H38.528a.128.128,0,0,0-.144.145v4.269a.128.128,0,0,0,.144.145Zm0,0" fill="#fff"/>
      <path id="Path_22236" data-name="Path 22236" d="M40,34.483a1.378,1.378,0,0,1-1.379-1.38V30.345a1.379,1.379,0,1,1,2.758,0V33.1A1.379,1.379,0,0,1,40,34.483Zm0,0" fill="#fff"/>
      <path id="Path_22237" data-name="Path 22237" d="M40,51.035a1.378,1.378,0,0,1-1.379-1.379v-1.38a1.379,1.379,0,1,1,2.758,0v1.38A1.378,1.378,0,0,1,40,51.035Zm0,0" fill="#fff"/>
    </g>
  </g>
</svg>
