<svg xmlns="http://www.w3.org/2000/svg" xmlns:xlink="http://www.w3.org/1999/xlink" width="80" height="80" viewBox="0 0 80 80">
  <defs>
    <clipPath id="clip-path">
      <rect id="Rectangle_101" data-name="Rectangle 101" width="80" height="80" rx="10" transform="translate(479 966)" fill="#fff"/>
    </clipPath>
  </defs>
  <g id="Mask_Group_3" data-name="Mask Group 3" transform="translate(-479 -966)" clip-path="url(#clip-path)">
    <g id="bitcoin" transform="translate(484.672 966)">
      <path id="Path_22210" data-name="Path 22210" d="M12.42,65.652l-1.981-3.3a4.654,4.654,0,0,1,7.978-4.793l3.919,6.524-2.178,1.307L16.24,58.869a2.115,2.115,0,1,0-3.624,2.179l1.981,3.3Zm0,0" fill="#fff"/>
      <path id="Path_22211" data-name="Path 22211" d="M34.774,76.939c-5.995,0-8.564-.951-9.411-1.377L10.723,73.628,2.467,69.185a4.671,4.671,0,0,1-2.045-6.03L.413,63.15l.142-.267.009.005a4.682,4.682,0,0,1,6.147-1.66l5.416,2.858,12.329-.225,1.8-1.132c-2.337-1.346-5.775-3.708-6.341-6.223a3.214,3.214,0,0,1,.662-2.807c2.991-3.711,16.265,2.963,22.154,6.2l13.841.031-.006,2.54-14.491-.033-.286-.158C29.536,55.509,23.153,54.554,22.555,55.3a.688.688,0,0,0-.161.653c.379,1.692,4.291,4.262,6.948,5.545l2.064,1-6.194,3.9-13.691.249L5.526,63.475a2.134,2.134,0,0,0-2.8.743,2.128,2.128,0,0,0,.942,2.731l7.846,4.221,14.7,1.944.241.156c.03.016,5.92,3.221,29.312-1.34l.486,2.493a115.153,115.153,0,0,1-21.48,2.516Zm0,0" fill="#fff"/>
      <path id="Path_22212" data-name="Path 22212" d="M34.291,27.937A13.968,13.968,0,1,1,48.26,13.968,13.984,13.984,0,0,1,34.291,27.937Zm0-25.4A11.429,11.429,0,1,0,45.719,13.969,11.441,11.441,0,0,0,34.291,2.54Zm0,0" fill="#fff"/>
      <path id="Path_22213" data-name="Path 22213" d="M43.815,39.365H24.767a4.444,4.444,0,0,1,0-8.889H43.815a4.444,4.444,0,1,1,0,8.889ZM24.767,33.016a1.9,1.9,0,0,0,0,3.81H43.815a1.9,1.9,0,0,0,0-3.81Zm0,0" fill="#fff"/>
      <path id="Path_22214" data-name="Path 22214" d="M43.815,52.064H24.767a4.445,4.445,0,0,1,0-8.889H43.815a4.445,4.445,0,0,1,0,8.889ZM24.767,45.715a1.9,1.9,0,0,0,0,3.809H43.815a1.9,1.9,0,0,0,0-3.809Zm0,0" fill="#fff"/>
      <path id="Path_22215" data-name="Path 22215" d="M43.815,45.715H24.767a4.445,4.445,0,0,1,0-8.889H43.815a4.445,4.445,0,1,1,0,8.889Zm-19.048-6.35a1.9,1.9,0,0,0,0,3.81H43.815a1.9,1.9,0,0,0,0-3.81Zm0,0" fill="#fff"/>
      <path id="Path_22216" data-name="Path 22216" d="M30.63,8.046a.165.165,0,0,1,.174-.175h4.417c2.513,0,3.7,1.256,3.7,3.16a2.643,2.643,0,0,1-1.379,2.513v.035a2.8,2.8,0,0,1,1.589,2.671c0,2.357-1.484,3.492-4.086,3.492H30.8a.165.165,0,0,1-.174-.175Zm4.538,4.765a1.568,1.568,0,1,0,0-3.125H32.794a.093.093,0,0,0-.105.1v2.917a.092.092,0,0,0,.105.1Zm-2.374,5.116h2.478a1.656,1.656,0,1,0,0-3.3H32.794a.093.093,0,0,0-.105.105v3.089a.093.093,0,0,0,.105.106Zm0,0" fill="#fff"/>
      <path id="Path_22217" data-name="Path 22217" d="M34.925,8.889a.634.634,0,0,1-.634-.634V6.984a.635.635,0,1,1,1.269,0v1.27A.635.635,0,0,1,34.925,8.889Zm0,0" fill="#fff"/>
      <path id="Path_22218" data-name="Path 22218" d="M34.925,21.588a.635.635,0,0,1-.634-.635v-1.27a.635.635,0,1,1,1.269,0v1.27A.635.635,0,0,1,34.925,21.588Zm0,0" fill="#fff"/>
      <path id="Path_22219" data-name="Path 22219" d="M67.379,80H55.957a1.269,1.269,0,0,1-1.27-1.269V57.121a1.27,1.27,0,0,1,1.27-1.27H67.379a1.269,1.269,0,0,1,1.269,1.27V78.731A1.269,1.269,0,0,1,67.379,80Zm-10.152-2.54h8.882V58.391H57.227Zm0,0" fill="#fff"/>
    </g>
  </g>
</svg>
