<svg width="49" height="48" viewBox="0 0 49 48" fill="none" xmlns="http://www.w3.org/2000/svg">
<path d="M24.4869 4C33.8122 4 41.5 11.4358 41.5 20.6355C41.5 25.2714 39.814 29.5753 37.039 33.2232C33.9776 37.247 30.2043 40.7529 25.9571 43.5049C24.985 44.1408 24.1077 44.1888 23.0409 43.5049C18.7695 40.7529 14.9962 37.247 11.961 33.2232C9.18397 29.5753 7.5 25.2714 7.5 20.6355C7.5 11.4358 15.1878 4 24.4869 4ZM24.4869 15.5537C21.4033 15.5537 18.8885 18.0956 18.8885 21.1535C18.8885 24.2354 21.4033 26.6593 24.4869 26.6593C27.5725 26.6593 30.1115 24.2354 30.1115 21.1535C30.1115 18.0956 27.5725 15.5537 24.4869 15.5537Z" fill="#00B39F"/>
</svg>
