<svg xmlns="http://www.w3.org/2000/svg" viewBox="0 0 130.21 130.01"><defs><linearGradient id="a" x1="333.48" x2="477" y1="702.6" y2="563.73" gradientTransform="translate(94.038 276.06) scale(.99206)" gradientUnits="userSpaceOnUse"><stop stop-color="#F69923" offset="0"/><stop stop-color="#F79A23" offset=".11"/><stop stop-color="#E97826" offset=".945"/></linearGradient><linearGradient id="b" x1="333.48" x2="477" y1="702.6" y2="563.73" gradientTransform="translate(94.038 276.06) scale(.99206)" gradientUnits="userSpaceOnUse"><stop stop-color="#F69923" offset="0"/><stop stop-color="#F79A23" offset=".08"/><stop stop-color="#E97826" offset=".419"/></linearGradient><linearGradient id="c" x1="633.55" x2="566.47" y1="814.6" y2="909.12" gradientTransform="translate(-85.421 56.236)" gradientUnits="userSpaceOnUse"><stop stop-color="#f6e423" offset="0"/><stop stop-color="#F79A23" offset=".412"/><stop stop-color="#E97826" offset=".733"/></linearGradient></defs><g transform="translate(-437.89 -835.29)"><circle cx="503.1" cy="900.29" r="62.52" fill="url(#a)" stroke="url(#b)" stroke-linejoin="round" stroke-width="4.96"/><path d="M487.89 873.64a89.53 89.53 0 0 0-2.688.031c-1.043.031-2.445.362-4.062.906 27.309 20.737 37.127 58.146 20.25 90.656.573.015 1.142.063 1.719.063 30.844 0 56.62-21.493 63.28-50.312-19.572-22.943-46.117-41.294-78.5-41.344z" fill="url(#c)" opacity=".75"/><path d="M481.14 874.58c-9.068 3.052-26.368 13.802-43 28.156 1.263 34.195 28.961 61.607 63.25 62.5 16.877-32.51 7.06-69.919-20.25-90.656z" fill="#28170b" opacity=".75"/><path d="M504.889 862.546c-.472-.032-.932.028-1.375.25-5.6 2.801 0 14 0 14-16.807 14.009-13.236 37.938-32.844 37.938-10.689 0-21.322-12.293-32.531-19.812-.144 1.773-.25 3.564-.25 5.375 0 24.515 13.51 45.863 33.469 57.063 5.583-.703 11.158-2.114 15.344-4.906 21.992-14.662 27.452-42.557 36.438-56.031 5.596-8.407 31.824-7.677 33.594-11.22 2.804-5.601-5.602-14-8.406-14h-22.406c-1.566 0-4.025-2.78-5.594-2.78h-8.406s-3.725-5.65-7.031-5.875z" fill="#fff"/></g></svg>
<defs xmlns="http://www.w3.org/2000/svg"><linearGradient id="a" x1="333.48" x2="477" y1="702.6" y2="563.73" gradientTransform="translate(94.038 276.06) scale(.99206)" gradientUnits="userSpaceOnUse"><stop stop-color="#F69923" offset="0"/><stop stop-color="#F79A23" offset=".11"/><stop stop-color="#E97826" offset=".945"/></linearGradient><linearGradient id="b" x1="333.48" x2="477" y1="702.6" y2="563.73" gradientTransform="translate(94.038 276.06) scale(.99206)" gradientUnits="userSpaceOnUse"><stop stop-color="#F69923" offset="0"/><stop stop-color="#F79A23" offset=".08"/><stop stop-color="#E97826" offset=".419"/></linearGradient><linearGradient id="c" x1="633.55" x2="566.47" y1="814.6" y2="909.12" gradientTransform="translate(-85.421 56.236)" gradientUnits="userSpaceOnUse"><stop stop-color="#f6e423" offset="0"/><stop stop-color="#F79A23" offset=".412"/><stop stop-color="#E97826" offset=".733"/></linearGradient></defs>
<g xmlns="http://www.w3.org/2000/svg" transform="translate(-437.89 -835.29)"><circle cx="503.1" cy="900.29" r="62.52" fill="url(#a)" stroke="url(#b)" stroke-linejoin="round" stroke-width="4.96"/><path d="M487.89 873.64a89.53 89.53 0 0 0-2.688.031c-1.043.031-2.445.362-4.062.906 27.309 20.737 37.127 58.146 20.25 90.656.573.015 1.142.063 1.719.063 30.844 0 56.62-21.493 63.28-50.312-19.572-22.943-46.117-41.294-78.5-41.344z" fill="url(#c)" opacity=".75"/><path d="M481.14 874.58c-9.068 3.052-26.368 13.802-43 28.156 1.263 34.195 28.961 61.607 63.25 62.5 16.877-32.51 7.06-69.919-20.25-90.656z" fill="#28170b" opacity=".75"/><path d="M504.889 862.546c-.472-.032-.932.028-1.375.25-5.6 2.801 0 14 0 14-16.807 14.009-13.236 37.938-32.844 37.938-10.689 0-21.322-12.293-32.531-19.812-.144 1.773-.25 3.564-.25 5.375 0 24.515 13.51 45.863 33.469 57.063 5.583-.703 11.158-2.114 15.344-4.906 21.992-14.662 27.452-42.557 36.438-56.031 5.596-8.407 31.824-7.677 33.594-11.22 2.804-5.601-5.602-14-8.406-14h-22.406c-1.566 0-4.025-2.78-5.594-2.78h-8.406s-3.725-5.65-7.031-5.875z" fill="#fff"/></g>
<circle xmlns="http://www.w3.org/2000/svg" cx="503.1" cy="900.29" r="62.52" fill="url(#a)" stroke="url(#b)" stroke-linejoin="round" stroke-width="4.96"/>
<path xmlns="http://www.w3.org/2000/svg" d="M487.89 873.64a89.53 89.53 0 0 0-2.688.031c-1.043.031-2.445.362-4.062.906 27.309 20.737 37.127 58.146 20.25 90.656.573.015 1.142.063 1.719.063 30.844 0 56.62-21.493 63.28-50.312-19.572-22.943-46.117-41.294-78.5-41.344z" fill="url(#c)" opacity=".75"/>
<path xmlns="http://www.w3.org/2000/svg" d="M481.14 874.58c-9.068 3.052-26.368 13.802-43 28.156 1.263 34.195 28.961 61.607 63.25 62.5 16.877-32.51 7.06-69.919-20.25-90.656z" fill="#28170b" opacity=".75"/>
<path xmlns="http://www.w3.org/2000/svg" d="M504.889 862.546c-.472-.032-.932.028-1.375.25-5.6 2.801 0 14 0 14-16.807 14.009-13.236 37.938-32.844 37.938-10.689 0-21.322-12.293-32.531-19.812-.144 1.773-.25 3.564-.25 5.375 0 24.515 13.51 45.863 33.469 57.063 5.583-.703 11.158-2.114 15.344-4.906 21.992-14.662 27.452-42.557 36.438-56.031 5.596-8.407 31.824-7.677 33.594-11.22 2.804-5.601-5.602-14-8.406-14h-22.406c-1.566 0-4.025-2.78-5.594-2.78h-8.406s-3.725-5.65-7.031-5.875z" fill="#fff"/>
<g xmlns="http://www.w3.org/2000/svg" transform="translate(-437.89 -835.29)"><circle cx="503.1" cy="900.29" r="62.52" fill="url(#a)" stroke="url(#b)" stroke-linejoin="round" stroke-width="4.96"/><path d="M487.89 873.64a89.53 89.53 0 0 0-2.688.031c-1.043.031-2.445.362-4.062.906 27.309 20.737 37.127 58.146 20.25 90.656.573.015 1.142.063 1.719.063 30.844 0 56.62-21.493 63.28-50.312-19.572-22.943-46.117-41.294-78.5-41.344z" fill="url(#c)" opacity=".75"/><path d="M481.14 874.58c-9.068 3.052-26.368 13.802-43 28.156 1.263 34.195 28.961 61.607 63.25 62.5 16.877-32.51 7.06-69.919-20.25-90.656z" fill="#28170b" opacity=".75"/><path d="M504.889 862.546c-.472-.032-.932.028-1.375.25-5.6 2.801 0 14 0 14-16.807 14.009-13.236 37.938-32.844 37.938-10.689 0-21.322-12.293-32.531-19.812-.144 1.773-.25 3.564-.25 5.375 0 24.515 13.51 45.863 33.469 57.063 5.583-.703 11.158-2.114 15.344-4.906 21.992-14.662 27.452-42.557 36.438-56.031 5.596-8.407 31.824-7.677 33.594-11.22 2.804-5.601-5.602-14-8.406-14h-22.406c-1.566 0-4.025-2.78-5.594-2.78h-8.406s-3.725-5.65-7.031-5.875z" fill="#fff"/></g>
<svg xmlns="http://www.w3.org/2000/svg" viewBox="0 0 130.21 130.01"><defs><linearGradient id="a" x1="333.48" x2="477" y1="702.6" y2="563.73" gradientTransform="translate(94.038 276.06) scale(.99206)" gradientUnits="userSpaceOnUse"><stop stop-color="#F69923" offset="0"/><stop stop-color="#F79A23" offset=".11"/><stop stop-color="#E97826" offset=".945"/></linearGradient><linearGradient id="b" x1="333.48" x2="477" y1="702.6" y2="563.73" gradientTransform="translate(94.038 276.06) scale(.99206)" gradientUnits="userSpaceOnUse"><stop stop-color="#F69923" offset="0"/><stop stop-color="#F79A23" offset=".08"/><stop stop-color="#E97826" offset=".419"/></linearGradient><linearGradient id="c" x1="633.55" x2="566.47" y1="814.6" y2="909.12" gradientTransform="translate(-85.421 56.236)" gradientUnits="userSpaceOnUse"><stop stop-color="#f6e423" offset="0"/><stop stop-color="#F79A23" offset=".412"/><stop stop-color="#E97826" offset=".733"/></linearGradient></defs><g transform="translate(-437.89 -835.29)"><circle cx="503.1" cy="900.29" r="62.52" fill="url(#a)" stroke="url(#b)" stroke-linejoin="round" stroke-width="4.96"/><path d="M487.89 873.64a89.53 89.53 0 0 0-2.688.031c-1.043.031-2.445.362-4.062.906 27.309 20.737 37.127 58.146 20.25 90.656.573.015 1.142.063 1.719.063 30.844 0 56.62-21.493 63.28-50.312-19.572-22.943-46.117-41.294-78.5-41.344z" fill="url(#c)" opacity=".75"/><path d="M481.14 874.58c-9.068 3.052-26.368 13.802-43 28.156 1.263 34.195 28.961 61.607 63.25 62.5 16.877-32.51 7.06-69.919-20.25-90.656z" fill="#28170b" opacity=".75"/><path d="M504.889 862.546c-.472-.032-.932.028-1.375.25-5.6 2.801 0 14 0 14-16.807 14.009-13.236 37.938-32.844 37.938-10.689 0-21.322-12.293-32.531-19.812-.144 1.773-.25 3.564-.25 5.375 0 24.515 13.51 45.863 33.469 57.063 5.583-.703 11.158-2.114 15.344-4.906 21.992-14.662 27.452-42.557 36.438-56.031 5.596-8.407 31.824-7.677 33.594-11.22 2.804-5.601-5.602-14-8.406-14h-22.406c-1.566 0-4.025-2.78-5.594-2.78h-8.406s-3.725-5.65-7.031-5.875z" fill="#fff"/></g></svg>