<svg xmlns="http://www.w3.org/2000/svg" xmlns:xlink="http://www.w3.org/1999/xlink" id="Layer_1" x="0" y="0" version="1.1" viewBox="0 0 49.1 94.2" xml:space="preserve" style="enable-background:new 0 0 49.1 94.2"><style type="text/css">.st0{fill:#00b39f}.st1{fill:#00d3a9}</style><g><path d="M14.2,90c-0.2-1.6-0.4-3.1-0.5-4.6c-0.2-2.1-0.3-4.1-0.4-6.2c-0.2-3.3-0.4-6.5-0.6-9.8c-0.2-2.4,0.8-4.5,1.7-6.6 c1.3-2.8,2.5-5.7,3.8-8.5c0.7-1.6-0.3-2.8-0.7-4.1c-1.5-4.4-3.2-8.6-4.7-13c-1.1-3.4-2.4-6.9-2.4-10.6c0-0.3-0.1-0.5-0.1-0.8 c-3.1,0.9-5.8,2.7-8,5.1c-0.2,0.6-0.1,1.3,0.3,1.8c1.5,2,3.2,3.9,4.8,5.8c1.5,1.7,2.9,3.6,4.7,4.9c2.2,1.5,2.2,3.9,3.1,5.9 c0.4,0.9,0.5,1.8,0.6,2.8c0,0.5-0.2,1.1-0.5,1.5c-0.7,1.1-2.4,1.8-3.2,1.4c-1.1-0.7-1.7-2-1.4-3.3c0.3-1.4,0.6-2.9,0.7-4.3 c0-0.9-0.3-1.7-0.9-2.4c-2.1-2.4-4.4-4.7-6.5-7.2c-1.3-1.5-2.4-3-3.5-4.6C-0.3,32.1,0,30.6,1,29.7c3.5-3.4,7.9-5.7,12.7-6.6 c0.7-0.2,1.3-0.5,1.9-0.8c3.3-1.2,6.9-1.7,10.5-1.5c2.7,0.1,5.4-0.1,8-0.2c1.2,0,2.3,0.6,3.1,1.5c1.8,1.6,3.7,3,5.7,4.3 c1.8,1.1,3.7,2,5.6,2.9c0.8,0.4,0.9,1.2,0.1,2.1c-1.7,1.8-3.5,3.5-5.4,5.1c-2.6,2.1-5.5,3.9-8.1,5.9c-1.5,1.1-3,2.4-4.1,3.4 c0,1.8,0.1,3.4,0.1,4.9c-0.1,0.4-0.3,0.8-0.5,1.1c-0.9,1.2-2.2,1.6-3.3,0.9c-1.1-0.7-0.7-2-0.5-2.9c0.4-1.4,0.9-2.7,1.5-3.9 c0.4-0.7,1-1.3,1.7-1.8c1.7-1.3,3.4-2.7,5.2-3.9c1.7-1.2,3.5-2.1,5.1-3.3c2-1.6,3.8-3.3,5.7-5c0.2-0.2,0.4-0.4,0.5-0.7l-9.8-6.6 c-2.6,4.3-5.1,8.7-7.8,12.9c-2.7,4.5-5,9.1-6.9,14c-0.1,0.2-0.1,0.4-0.1,0.7c1,5.9,2,11.8,3,17.6c0.4,2.7,0.6,5.5,0.9,8.2 c0.3,3.2,0.5,6.3,0.9,9.5c0.2,1.7,1.9,1.9,3.1,2.7c0.4,0.2,0.8,0.5,1,0.9c0.3,0.8-0.2,1.6-0.9,1.9c-0.2,0.1-0.4,0.1-0.7,0.1 c-1.9,0.1-3.9,0.1-5.8,0c-0.8-0.1-1.6-0.5-2.1-1.2c-0.5-1.1,0.5-1.7,1.4-2.1c2.1-1,2.2-1,2.1-3.3c-0.6-7.4-0.9-14.8-2.7-22 c-0.7-2.6-0.8-5.4-1.2-8c-0.1-0.5-0.2-1-0.3-1.6H20c-0.5,0.9-1,1.9-1.4,2.8c-1.1,2.3-2.2,4.6-3.3,6.8c-1.5,3.1-0.9,6.3-0.8,9.5 c0.1,2.6,0.3,5.3,0.5,7.9c0.3,3.1,0.6,6.1,0.9,9.1c0.2,0.7,0.2,1.3,0.2,2c-0.1,0.6-0.6,1-1.1,1.2c-2.1-0.1-4.2-0.3-6.3-0.6 C8,93.5,6.9,93,7.3,92.1c0.4-0.8,1-1.4,1.9-1.7c1.3-0.3,2.5-0.4,3.8-0.4C13.4,90.1,13.6,90.1,14.2,90z M19.8,50.7h0.4 c0.8-2.1,1.7-4.2,2.7-6.2c2.4-4.3,5.1-8.4,7.6-12.7c1.3-2.3,2.5-4.7,3.5-7.2c0.6-1.5,0.3-1.8-1.3-1.8c-3.8,0.1-7.7,0.3-11.5,0.3 c-2.7,0-5.4,0.9-7.7,2.3c-0.8,0.3-1.3,1.2-1.2,2.1c0.6,2.6,1.1,5.3,2,7.9c1.4,4.2,3.1,8.3,4.6,12.4C19.2,48.8,19.5,49.8,19.8,50.7z M12.8,53.3c1.5-0.9,1.5-1.5,0-3.9V53.3z"/><path d="M14.2,9.5c0-3,1.7-5.7,4.3-7.1c3.7-2,7.6-3.1,11.7-2c2.7,0.7,5.5,1.8,6.9,4.7c2.8,5.9,1.7,9.9-4.7,13c-3.6,2-8,2-11.7,0.2 c-2.7-1.4-4.8-3.7-6.1-6.4C14.4,11,14.3,10.2,14.2,9.5z M16.2,9.2c0.4,2.9,2.2,4.8,4.4,6.4c2.3,1.7,4.9,1.9,7.6,1.6 c2.5-0.3,4.8-1.3,6.7-2.9c2.4-1.9,1.9-4.4,1.2-6.8c-0.6-2-2.2-3.6-4.3-4.2c-1.8-0.4-3.6-0.7-5.5-0.8c-0.3,0-0.6,0-1,0.1 c-2.4,0.8-4.9,1.3-7,2.8C17.1,6.2,16.3,7.7,16.2,9.2z"/></g><g><polygon id="XMLID_6_" points="22.9 27.3 26.1 27.3 26.2 25.8 23 25.8" class="st0"/><path id="XMLID_5_" d="M26,30.9l0.1-0.6c0.1-0.7-0.5-1.3-1.2-1.3h-1.2h-3.9v-0.4h-1.9l-0.2,1.8h6.5V31H26L26,30.9 L26,30.9z" class="st0"/><polygon id="XMLID_4_" points="19.8 28 19.9 27.3 22.4 27.3 22.5 25.8 18.2 25.8 18 28" class="st1"/><path id="XMLID_3_" d="M24.1,31.4L24,32.3h-2.5l-0.1,1.5h3h0.1l0,0c0.7,0,1.3-0.6,1.4-1.2l0.1-1.2H24.1z" class="st1"/><path id="XMLID_1_" d="M19.4,31.4l-0.1,0.8H21l-0.1,1.5h-2.1h-0.1l0,0c-0.7,0-1.2-0.6-1.2-1.2l0.1-1.1 C17.6,31.4,19.4,31.4,19.4,31.4z" class="st0"/></g></svg>