<svg xmlns="http://www.w3.org/2000/svg" xmlns:xlink="http://www.w3.org/1999/xlink" id="Capa_1" width="493.356" height="493.356" x="0" style="enable-background:new 0 0 493.356 493.356" y="0" version="1.1" viewBox="0 0 493.356 493.356" xml:space="preserve"><g><path fill="#00d3a9" d="M490.498,239.278l-109.632-99.929c-3.046-2.474-6.376-2.95-9.993-1.427c-3.613,1.525-5.427,4.283-5.427,8.282v63.954H9.136 c-2.666,0-4.856,0.855-6.567,2.568C0.859,214.438,0,216.628,0,219.292v54.816c0,2.663,0.855,4.853,2.568,6.563 c1.715,1.712,3.905,2.567,6.567,2.567h356.313v63.953c0,3.812,1.817,6.57,5.428,8.278c3.62,1.529,6.95,0.951,9.996-1.708 l109.632-101.077c1.903-1.902,2.852-4.182,2.852-6.849C493.356,243.367,492.401,241.181,490.498,239.278z"/></g></svg>