<svg xmlns="http://www.w3.org/2000/svg" viewBox="0 0 30 38.21"><defs><style>.cls-1{fill:#00b39f;}.cls-2{isolation:isolate;font-size:5.46px;font-family:Poppins-Regular, Poppins;}</style></defs><title>meshery-ui</title><g id="Layer_2" data-name="Layer 2"><g id="Layer_1-2" data-name="Layer 1"><path class="cls-1" d="M27.4,0H2.5A2.48,2.48,0,0,0,0,2.5V19.9a2.48,2.48,0,0,0,2.5,2.5h8.7a5.31,5.31,0,0,1-.9,3.3,1.22,1.22,0,0,1-.9.4.6.6,0,1,0,0,1.2H20.6a.6.6,0,0,0,0-1.2,1,1,0,0,1-.9-.4,5.31,5.31,0,0,1-.9-3.3h8.7A2.48,2.48,0,0,0,30,19.9V2.5A2.7,2.7,0,0,0,27.4,0ZM14.9,21.2A1.22,1.22,0,0,1,13.7,20a1.29,1.29,0,0,1,1.2-1.2A1.29,1.29,0,0,1,16.1,20,1.22,1.22,0,0,1,14.9,21.2ZM2.5,17.5V2.5H27.4V17.4l-24.9.1Z"/><text class="cls-2" transform="translate(0.32 35.08)">Meshery UI</text></g></g></svg>