<svg xmlns="http://www.w3.org/2000/svg" viewBox="0 0 32.31 35.43"><defs><style>.cls-1{fill:#00b39f}.cls-2{fill:#477e96}.cls-3{fill:#00d3a9}.cls-4{fill:#9fbfcd}.cls-5{fill:none;stroke:#00b39f;stroke-miterlimit:10;stroke-width:2px}.cls-6{isolation:isolate;font-size:5.46px;font-family:Poppins-Regular,Poppins}</style></defs><title>meshery-script</title><g id="Layer_2" data-name="Layer 2"><g id="Layer_1-2" data-name="Layer 1"><g id="Layer_2-2" data-name="Layer 2"><g id="Developer_productivity" data-name="Developer productivity"><g id="v2"><path d="M2.91,1h26.5a1.9,1.9,0,0,1,1.9,1.9V5.4H.91V2.9A2,2,0,0,1,2.91,1Z" class="cls-1"/><circle cx="4.31" cy="3.4" r=".7" class="cls-2"/><circle cx="7.41" cy="3.4" r=".7" class="cls-3"/><circle cx="10.41" cy="3.4" r=".7" class="cls-4"/><path d="M22.41,16.6V13.8h-1.8a6.89,6.89,0,0,0-.3-.8l1.3-1.3-2-2L18.31,11c-.3-.1-.5-.3-.8-.3V8.9h-2.8v1.8a6.89,6.89,0,0,0-.8.3l-1.3-1.3-2,2,1.3,1.3c-.1.3-.3.5-.3.8H9.81v2.8h1.7a6.89,6.89,0,0,0,.3.8l-1.3,1.3,2,2,1.3-1.3c.3.1.5.3.8.3v1.8h2.8V19.7a6.89,6.89,0,0,0,.8-.3l1.3,1.3,2-2-1.3-1.3c.1-.3.3-.5.3-.8Zm-4-1.4a2.26,2.26,0,0,1-2.3,2.3h0a2.3,2.3,0,1,1,0-4.6h0a2.33,2.33,0,0,1,2.3,2.3Z" class="cls-3"/></g></g></g><path d="M2.91,1h26.5a1.9,1.9,0,0,1,1.9,1.9V23.2a1.9,1.9,0,0,1-1.9,1.9H2.91A1.9,1.9,0,0,1,1,23.2V2.9A1.84,1.84,0,0,1,2.91,1Z" class="cls-5"/><text class="cls-6" transform="translate(8.48 32.31)">script</text></g></g></svg>