<svg xmlns="http://www.w3.org/2000/svg" viewBox="0 0 31.5 36.87"><defs><style>.cls-1{fill:#00d3a9;}.cls-2{fill:#00b39f;}.cls-3{isolation:isolate;font-size:5.46px;font-family:Poppins-Regular, Poppins;}</style></defs><title>mesheryctl</title><g id="Layer_2" data-name="Layer 2"><g id="Layer_1-2" data-name="Layer 1"><path class="cls-1" d="M9.2,18a1,1,0,1,0,1.4,1.4h0l3.3-3.3a1,1,0,0,0,0-1.4h0l-3.3-3.3a1,1,0,0,0-1.4,1.4l2.4,2.4a.45.45,0,0,1,0,.5h0A26.08,26.08,0,0,0,9.2,18Zm7.2.3h5.2a1,1,0,0,0,0-2H16.4a1,1,0,0,0-1,1A1.07,1.07,0,0,0,16.4,18.3Z"/><path class="cls-2" d="M31.5,3.9A3.9,3.9,0,0,0,27.6,0H3.9A3.9,3.9,0,0,0,0,3.9v19a3.9,3.9,0,0,0,3.9,3.9H27.5a3.9,3.9,0,0,0,3.9-3.9C31.5,22.9,31.5,3.9,31.5,3.9ZM12.6,2.6a1.28,1.28,0,0,1,1.7-.5,1.21,1.21,0,0,1,.5.5,1.45,1.45,0,0,1,.2.7,1.85,1.85,0,0,1-.2.7,1.28,1.28,0,0,1-1.7.5,1.21,1.21,0,0,1-.5-.5,1.45,1.45,0,0,1-.2-.7A6.37,6.37,0,0,1,12.6,2.6Zm-4.5,0a1.28,1.28,0,0,1,1.7-.5,1.21,1.21,0,0,1,.5.5,1.45,1.45,0,0,1,.2.7,1.85,1.85,0,0,1-.2.7,1.28,1.28,0,0,1-1.7.5A1.21,1.21,0,0,1,8.1,4a1.45,1.45,0,0,1-.2-.7A.84.84,0,0,1,8.1,2.6Zm-4.7.1a1.3,1.3,0,0,1,1.2-.8,1.23,1.23,0,0,1,1.1.7,1.45,1.45,0,0,1,.2.7,1.85,1.85,0,0,1-.2.7A1.28,1.28,0,0,1,4,4.5,1.21,1.21,0,0,1,3.5,4a1.45,1.45,0,0,1-.2-.7,1.27,1.27,0,0,1,.1-.6ZM28.8,22.9a1.32,1.32,0,0,1-1.3,1.3H3.9a1.32,1.32,0,0,1-1.3-1.3h0V6.9a.27.27,0,0,1,.3-.3H28.5a.27.27,0,0,1,.3.3v16Z"/><text class="cls-3" transform="translate(0.4 33.74)">mesheryctl</text></g></g></svg>