<svg id="Layer_1" data-name="Layer 1" xmlns="http://www.w3.org/2000/svg" viewBox="0 0 950.33 200"><defs><style>.cls-1{fill:#fff;}.cls-2{opacity:0.8;}</style></defs><title>meshmaster-text-side-white</title><polygon class="cls-1" points="291.35 80.03 291.35 82.55 291.35 94.42 291.35 108.88 291.35 130 347.59 130 347.59 118.14 303.22 118.14 303.22 108.88 303.22 106.28 337.31 106.28 337.31 94.42 303.22 94.42 303.22 82.55 347.59 82.55 347.59 70.69 291.35 70.69 291.35 80.03"/><path class="cls-1" d="M425.45,114.5a14.79,14.79,0,0,1-1.23,6,15.34,15.34,0,0,1-3.36,4.94,16.25,16.25,0,0,1-4.95,3.32,15.08,15.08,0,0,1-6.05,1.23H354.34V117.51h55.52a3,3,0,0,0,3-3v-4.82a3,3,0,0,0-3-3H369.92a15,15,0,0,1-6-1.22,15.7,15.7,0,0,1-8.35-8.35,14.78,14.78,0,0,1-1.22-6V86.27a15.11,15.11,0,0,1,1.22-6,16,16,0,0,1,3.36-4.94,15.56,15.56,0,0,1,5-3.36,14.79,14.79,0,0,1,6-1.23h55.53V83.26H369.92a3,3,0,0,0-3,3v4.82a3,3,0,0,0,3,3h39.94a15.25,15.25,0,0,1,6.05,1.22,15.92,15.92,0,0,1,8.31,8.31,15.08,15.08,0,0,1,1.23,6.05Z"/><path class="cls-1" d="M500.28,130H489V106.67H444.84V130H433.53V94.1H489V70.69h11.32ZM444.84,88.53H433.53V70.69h11.31Z"/><path class="cls-1" d="M282.23,130H269.65V86.74a3.22,3.22,0,0,0-.28-1.34,3.51,3.51,0,0,0-.75-1.11,3.62,3.62,0,0,0-1.11-.75,3.38,3.38,0,0,0-1.34-.27H208V70.69h58.14A15.37,15.37,0,0,1,272.38,72,15.91,15.91,0,0,1,281,80.54a15.36,15.36,0,0,1,1.27,6.2Zm-61.62,0H208V83.27h12.58Zm30.77,0H238.8V89.85h12.58Z"/><path class="cls-1" d="M583.06,130H570.48V86.74a3.38,3.38,0,0,0-.27-1.34,3.52,3.52,0,0,0-1.86-1.86,3.43,3.43,0,0,0-1.35-.27H508.86V70.69H567A15.37,15.37,0,0,1,573.21,72a15.91,15.91,0,0,1,8.58,8.58,15.36,15.36,0,0,1,1.27,6.2Zm-61.62,0H508.86V83.27h12.58Zm30.77,0H539.63V89.85h12.58Z"/><polygon class="cls-1" points="614.34 70.69 590.61 130 604.14 130 620.27 88.48 631.77 118.14 612.05 118.14 607.62 130 649.93 130 626.2 70.69 614.34 70.69"/><polygon class="cls-1" points="798.52 80.03 798.52 82.55 798.52 94.42 798.52 108.88 798.52 130 854.76 130 854.76 118.14 810.39 118.14 810.39 108.88 810.39 106.28 844.48 106.28 844.48 94.42 810.39 94.42 810.39 82.55 854.76 82.55 854.76 70.69 798.52 70.69 798.52 80.03"/><path class="cls-1" d="M769.92,70.69h23.41V83.27H734V70.69h35.92"/><rect class="cls-1" x="757.38" y="88.53" width="12.58" height="41.47"/><path class="cls-1" d="M875.25,81.42l30.42.31,0,4.11,0,4.11,0,4.12-27.14-.28V105.1l8.14.09,21.27,24.56,14.64.15-21.27-24.57,7.61.08h.79a9.22,9.22,0,0,0,9.3-9.12l.06-6.21L919,86l.06-6.21a9.21,9.21,0,0,0-9.11-9.31h-.79l-33.9-.34h-.31L863.75,70l-.6,59.31,11.86.11Z"/><path class="cls-1" d="M726.59,114.5a14.79,14.79,0,0,1-1.23,6,15.34,15.34,0,0,1-3.36,4.94,16.25,16.25,0,0,1-5,3.32,15.08,15.08,0,0,1-6,1.23H655.47V117.51H711a3,3,0,0,0,3-3v-4.82a3,3,0,0,0-3-3h-40a15,15,0,0,1-6-1.22,15.73,15.73,0,0,1-8.34-8.35,14.79,14.79,0,0,1-1.23-6V86.27a15.12,15.12,0,0,1,1.23-6,16,16,0,0,1,3.36-4.94,15.63,15.63,0,0,1,5-3.36,14.86,14.86,0,0,1,6-1.23h55.54V83.26H671.05a2.87,2.87,0,0,0-2.13.88,2.9,2.9,0,0,0-.87,2.13v4.82a3,3,0,0,0,3,3h40a15.25,15.25,0,0,1,6,1.22,15.92,15.92,0,0,1,8.31,8.31,15.08,15.08,0,0,1,1.23,6.05Z"/><path class="cls-1" d="M74.67,167.5c-3.9.81-6.52-1.32-8.54-4.87C62.84,156.85,59.5,151.1,56,145.48c-1.88-3-2-5.59-.26-8.68,6.4-11.16,12.63-22.42,19-33.63,2.15-3.82,3.53-3.86,6-.26,3.12,4.63,2.85,9.15-.05,13.88-4.06,6.63-7.74,13.49-11.74,20.16-1.75,2.93-1.51,5.45.26,8.28,3.32,5.26,6.43,10.65,9.57,16C82,167,81.82,167.31,74.67,167.5Z"/><path class="cls-1" d="M142,129c-6.38,0-12.75,0-19.13,0-4.27,0-5-1.3-3.05-5.18,2.44-4.88,6.51-6.71,11.84-6.6,7.5.16,15,0,22.52.19,4.22.13,6.79-1.5,8.7-5.3,2.86-5.68,6.2-11.13,9.41-16.63,2.12-3.63,3.29-3.54,5.67-.15,3.12,4.42,3.56,8.46.19,13.19a98.75,98.75,0,0,0-8.46,14.71c-2.1,4.38-5.28,5.84-9.84,5.73-5.94-.16-11.9,0-17.85,0Z"/><path class="cls-1" d="M159.1,63.54a43,43,0,0,1-1.93,4.54q-9.51,16.55-19.11,33c-2.3,4-3.68,3.9-6.18,0-2.82-4.42-2.57-8.7.16-13.12,4.15-6.73,8.05-13.62,12.19-20.36a7.12,7.12,0,0,0,0-8.27c-3.56-5.77-6.9-11.68-10.24-17.58-2.11-3.73-1.53-4.47,2.64-5,5.34-.69,8.82,1.16,11.24,6.09,2.68,5.43,6,10.53,9,15.82C157.76,60.22,158.38,61.93,159.1,63.54Z"/><path class="cls-1" d="M62.74,48.46C64,40,67,37.33,74.4,37.18c6.09-.13,12.17-.26,18.24-.49,3.88-.15,6.67,1.14,8.74,4.67,6.43,11,13.1,21.81,19.66,32.72a31.71,31.71,0,0,1,1.4,3c-4.8,3.95-11.46,2.57-15.25-3.25-2.38-3.66-4.34-7.6-6.54-11.39-8.29-14.24-8.3-14.22-24.89-13.95C71.45,48.52,67.14,48.46,62.74,48.46Z"/><path class="cls-1" d="M128.69,167.23c-18.5.17-14,1.89-23-12.89-4.92-8.1-9.64-16.32-14.38-24.52-2-3.57-1.38-4.68,2.69-5.1,5.93-.62,9.54,2.44,12.23,7.3,3.7,6.67,7.61,13.23,11.29,19.92,1.64,3,3.89,4.09,7.25,4,6.93-.22,13.87-.21,20.8-.12,3.75,0,4,1,2.71,4.43-2.09,5.46-6,7.44-11.57,7C134.08,167.06,131.38,167.23,128.69,167.23Z"/><g class="cls-2"><path class="cls-1" d="M46.49,139.06a10.49,10.49,0,0,1-10.27-8.48c-.9-4.79,2.06-9.37,6.71-11.51a13.05,13.05,0,0,0,5.42-4.69c3.65-5.89,6.8-12.08,10.29-18.07.72-1.23,2.13-2.93,3.15-2.88s2.37,1.73,3.18,3a10.12,10.12,0,0,1,.1,11.59c-1.77,2.89-3.54,5.8-5.24,8.73-2.12,3.64-4,7.06-3.09,11.85C57.76,134.16,52.37,139.07,46.49,139.06Zm-.15-5.12c3.44-.33,5.27-2.06,5.46-5.19a5.06,5.06,0,0,0-5.62-5c-3.12.29-5,2.07-4.85,5.28S43.54,133.71,46.34,133.94Z"/></g><g class="cls-2"><path class="cls-1" d="M145.28,102.28c.95-2.18,1.73-4.44,2.87-6.5,2-3.59,4.5-6.91,6.25-10.6a23.91,23.91,0,0,0,2.15-8.31,10.76,10.76,0,0,1,10-10.23,10.5,10.5,0,0,1,10.78,8.89,10,10,0,0,1-7.63,11.15,8.22,8.22,0,0,0-6.05,4.62c-3.11,5.72-6.44,11.32-9.72,17-2.41,4.11-4.15,4.09-6.41-.19A54.49,54.49,0,0,1,145.28,102.28Zm27-25.21c-.2-3.11-1.73-5-4.89-5.31a5.16,5.16,0,0,0-5.61,5,5.25,5.25,0,0,0,5.32,5.35C170.2,81.93,172,80.17,172.3,77.07Z"/></g><g class="cls-2"><path class="cls-1" d="M80.67,134.52c5,.45,8.43,2.57,10.61,7A96,96,0,0,0,97.77,153a15.78,15.78,0,0,0,5.14,4.64c4.55,2.62,6.71,7.89,4.77,12.67a10.2,10.2,0,0,1-12.39,6.31C90,175.17,86.24,170,88,165c1.38-4,.06-6.73-1.81-9.79q-4.42-7.26-8.57-14.67c-.73-1.29-1.77-3.44-1.25-4.15C77.13,135.3,79.16,135.1,80.67,134.52Zm22.55,32.1c-.25-3.27-2.19-4.83-5.19-5.05a5.3,5.3,0,0,0-5.36,5.28,5.12,5.12,0,0,0,5.65,5C101.47,171.53,103.06,169.7,103.22,166.62Z"/></g><g class="cls-2"><path class="cls-1" d="M133.41,69.44c-6-.19-9.46-2.28-11.57-6.78a104.46,104.46,0,0,0-6.3-11.52,14,14,0,0,0-4.69-4.52c-4.79-2.72-7.13-8.09-5.19-12.9a10.34,10.34,0,0,1,13.2-6.11,9.93,9.93,0,0,1,6.39,12.6,7.56,7.56,0,0,0,.89,7.08q4.87,8.2,9.47,16.57c.7,1.28,1.65,3.44,1.12,4.13C135.88,69.08,133.87,69.27,133.41,69.44ZM120.66,37.23a5.17,5.17,0,0,0-5.22-5.06c-3.18.1-5,1.86-5.2,5a5,5,0,0,0,5.37,5.28C118.7,42.2,120.49,40.43,120.66,37.23Z"/></g><g class="cls-2"><path class="cls-1" d="M139.36,135.34c5.13-.21,10.14.19,15-3,4.44-3,10.13-.88,12.94,3.48a10.08,10.08,0,0,1-1.85,13.42,10,10,0,0,1-13.83-.44c-2.15-2.29-4.34-2.67-7.1-2.63q-10,.15-19.92.06c-4.61,0-5.19-1.29-2.85-5.36s5.76-6.09,10.45-5.89C134.56,135.07,137,135.21,139.36,135.34Zm24.44,6.55c0-3.34-2.11-5.61-5-5.59-3.17,0-5.07,1.7-5.39,4.84a5,5,0,0,0,5.29,5.36C161.8,146.37,163.58,144.65,163.8,141.89Z"/></g><g class="cls-2"><path class="cls-1" d="M73.68,69.4c-4.68.18-9.21-.37-13.59,3s-10.38,1.34-13.41-3.1a10.26,10.26,0,0,1,15.24-13.5c2.28,2.09,4.56,2.42,7.31,2.34,6.09-.17,12.18-.3,18.27-.28,4.49,0,5.2,1.48,3,5.47s-5.66,6.2-10.4,6.06C77.93,69.35,75.8,69.4,73.68,69.4Zm-18.55-11A5.29,5.29,0,0,0,50,63.51a5.1,5.1,0,0,0,5.42,5.16c3.16-.14,4.9-1.93,5.14-5C60.74,60.86,58.08,58.39,55.13,58.43Z"/></g><path class="cls-1" d="M35.93,114.25c-6.79-5.42-7.64-9.33-4-15.94,2.95-5.4,5.9-10.81,8.76-16.27,1.82-3.48,4.36-5.28,8.51-5.31,12.88-.11,25.76-.52,38.64-.78a32.35,32.35,0,0,1,3.31.27C92.18,82.43,87.61,87.57,80.59,88c-4.42.24-8.87,0-13.3,0-16.68.1-16.67.12-24.8,14.82C40.38,106.62,38.15,110.38,35.93,114.25Z"/></svg>