<svg id="Layer_1" data-name="Layer 1" xmlns="http://www.w3.org/2000/svg" viewBox="0 0 580 580"><defs><style>.cls-1{fill:#fff;}.cls-2{opacity:0.8;}</style></defs><title>meshmaster-icon-white</title><path class="cls-1" d="M172.37,515c-13.61,2.81-22.75-4.61-29.78-17-11.45-20.13-23.08-40.18-35.41-59.77-6.53-10.37-7.06-19.48-.89-30.24,22.31-38.9,44-78.15,66.06-117.2,7.52-13.31,12.31-13.47,20.75-.92,10.85,16.13,9.92,31.88-.18,48.38-14.14,23.1-27,47-40.9,70.24-6.11,10.21-5.29,19,.9,28.86,11.56,18.34,22.4,37.13,33.35,55.85C198,513.26,197.29,514.34,172.37,515Z"/><path class="cls-1" d="M407,380.87c-22.22,0-44.44.14-66.66-.05-14.88-.13-17.38-4.54-10.63-18.05,8.51-17,22.69-23.41,41.24-23,26.15.56,52.34-.15,78.49.65,14.72.45,23.67-5.22,30.33-18.46,10-19.81,21.6-38.79,32.79-58,7.37-12.64,11.47-12.31,19.77-.52,10.86,15.43,12.39,29.51.64,46-11.42,16-20.94,33.54-29.46,51.29-7.32,15.26-18.42,20.35-34.3,19.95-20.72-.54-41.47-.13-62.21-.13Z"/><path class="cls-1" d="M466.59,152.74c-2.52,6-4.1,11.22-6.73,15.81q-33.11,57.63-66.59,115.06c-8,13.78-12.82,13.62-21.53,0-9.84-15.41-9-30.32.54-45.74,14.48-23.45,28.07-47.45,42.49-70.94,6.11-9.95,6.16-18.73,0-28.81-12.38-20.12-24-40.7-35.67-61.27-7.35-13-5.34-15.57,9.21-17.46,18.6-2.41,30.72,4,39.17,21.21,9.33,19,21,36.72,31.44,55.15C461.93,141.16,464.07,147.12,466.59,152.74Z"/><path class="cls-1" d="M130.77,100.17c4.53-29.56,14.74-38.79,40.66-39.32,21.2-.43,42.39-.88,63.57-1.7,13.51-.52,23.24,4,30.44,16.28,22.4,38.27,45.67,76,68.51,114,2,3.3,3.32,7,4.88,10.31-16.74,13.78-39.93,9-53.12-11.31-8.32-12.77-15.14-26.51-22.83-39.71C234,99.15,234,99.22,176.15,100.14,161.14,100.37,146.11,100.17,130.77,100.17Z"/><path class="cls-1" d="M360.62,514.09c-64.48.58-48.73,6.59-80-44.94-17.14-28.21-33.57-56.87-50.08-85.46-7.18-12.41-4.82-16.29,9.36-17.77,20.66-2.16,33.23,8.52,42.61,25.45,12.89,23.27,26.52,46.12,39.36,69.42,5.69,10.32,13.54,14.27,25.27,13.91,24.14-.75,48.32-.73,72.48-.44,13.06.17,14,3.48,9.45,15.45-7.3,19.05-20.84,25.93-40.33,24.48C379.4,513.5,370,514.07,360.62,514.09Z"/><g class="cls-2"><path class="cls-1" d="M74.16,415.92a36.59,36.59,0,0,1-35.8-29.57c-3.13-16.69,7.17-32.64,23.41-40.1a45.82,45.82,0,0,0,18.88-16.34c12.71-20.52,23.68-42.11,35.86-63,2.51-4.29,7.42-10.21,11-10.05,3.89.18,8.26,6.05,11.07,10.33,8.66,13.18,8.64,26.81.35,40.37-6.17,10.1-12.32,20.21-18.27,30.44-7.39,12.7-13.81,24.6-10.77,41.28C113.41,398.83,94.65,416,74.16,415.92Zm-.53-17.87c12-1.12,18.37-7.17,19-18.07.61-10-9-18.53-19.59-17.53-10.88,1-17.41,7.21-16.9,18.41S63.87,397.28,73.63,398.05Z"/></g><g class="cls-2"><path class="cls-1" d="M418.45,287.73c3.3-7.6,6-15.48,10-22.65,6.95-12.49,15.65-24.09,21.76-36.94a82.82,82.82,0,0,0,7.49-28.94c1.41-19.09,15.67-34.6,35-35.69,18.2-1,34.85,12.72,37.58,31,2.56,17.21-8.94,35.19-26.62,38.84-10.3,2.13-16.24,7.25-21.07,16.11-10.84,19.93-22.44,39.45-33.88,59-8.37,14.34-14.45,14.25-22.34-.64C423.2,301.91,421.34,295.23,418.45,287.73Zm94.14-87.84c-.69-10.85-6-17.52-17-18.51A18,18,0,0,0,476,198.85c-.29,10,8.47,19.26,18.53,18.64C505.27,216.83,511.36,210.68,512.59,199.89Z"/></g><g class="cls-2"><path class="cls-1" d="M193.28,400.08c17.5,1.56,29.37,9,36.95,24.53a334.64,334.64,0,0,0,22.63,39.84,55.07,55.07,0,0,0,17.93,16.19c15.84,9.11,23.36,27.49,16.6,44.14-7.3,18-24.93,27-43.16,22s-31.55-23.07-25.59-40.44c4.82-14,.21-23.43-6.3-34.12q-15.42-25.26-29.88-51.1c-2.53-4.5-6.17-12-4.34-14.47C180.92,402.8,188,402.11,193.28,400.08ZM271.85,512c-.86-11.4-7.64-16.84-18.08-17.6-9.87-.72-19,8.73-18.67,18.39A17.84,17.84,0,0,0,254.79,530C265.75,529.08,271.29,522.68,271.85,512Z"/></g><g class="cls-2"><path class="cls-1" d="M377.05,173.3c-21-.68-32.94-8-40.3-23.64a362.41,362.41,0,0,0-22-40.15,48.73,48.73,0,0,0-16.31-15.75c-16.69-9.48-24.85-28.18-18.12-45,7.54-18.78,27.13-27.84,46-21.27,18.07,6.29,28.71,25.25,22.27,43.92-3.37,9.76-1.67,16.64,3.1,24.65q17,28.57,33,57.75c2.44,4.45,5.77,12,3.9,14.41C385.69,172,378.68,172.69,377.05,173.3ZM332.64,61c-.17-9.68-8.36-17.92-18.19-17.63-11.1.33-17.41,6.48-18.12,17.48a17.33,17.33,0,0,0,18.72,18.42C325.8,78.36,332,72.2,332.64,61Z"/></g><g class="cls-2"><path class="cls-1" d="M397.81,403c17.88-.73,35.32.66,52.12-10.55,15.48-10.34,35.3-3.06,45.11,12.14,10.09,15.62,7.44,34.83-6.46,46.76s-35.07,12.37-48.19-1.54c-7.49-8-15.14-9.31-24.76-9.16q-34.71.52-69.42.22c-16-.14-18.06-4.5-9.9-18.7s20-21.22,36.41-20.5C381.08,402,389.44,402.5,397.81,403ZM483,425.77c.13-11.62-7.38-19.54-17.58-19.48-11.05.06-17.66,5.94-18.78,16.88-1,10.15,7.85,19.14,18.42,18.68C476,441.37,482.19,435.37,483,425.77Z"/></g><g class="cls-2"><path class="cls-1" d="M168.9,173.16c-16.3.62-32.1-1.31-47.34,10.52s-36.19,4.65-46.75-10.83C64.69,158,66.57,139.52,79.48,126.9s34.25-14.13,48.45-1.09c7.94,7.3,15.87,8.44,25.46,8.17,21.22-.59,42.45-1,63.68-1,15.66,0,18.13,5.16,10.27,19.08-8,14.16-19.72,21.59-36.23,21.12C183.71,173,176.3,173.16,168.9,173.16Zm-64.65-38.23c-9.61.13-17.82,8.2-18,17.68a17.74,17.74,0,0,0,18.88,18c11-.5,17.07-6.73,17.9-17.45C123.83,143.38,114.56,134.8,104.25,134.93Z"/></g><path class="cls-1" d="M37.37,329.43c-23.69-18.88-26.65-32.5-14-55.53,10.3-18.83,20.59-37.67,30.55-56.69,6.35-12.13,15.2-18.41,29.64-18.53,44.9-.39,89.79-1.79,134.68-2.7,3.9-.07,7.81.61,11.52.92,3.66,21.64-12.26,39.59-36.71,41-15.42.86-30.92-.07-46.39,0-58.12.37-58.08.43-86.41,51.67C52.85,302.86,45.1,316,37.37,329.43Z"/></svg>