<svg id="Layer_1" data-name="Layer 1" xmlns="http://www.w3.org/2000/svg" viewBox="0 0 800 700"><defs><style>.cls-1{fill:#fff;}.cls-2{opacity:0.8;}</style></defs><title>meshmaster-full-white</title><path class="cls-1" d="M294.05,523.65c-13.61,2.81-22.75-4.61-29.78-17-11.45-20.13-23.08-40.18-35.41-59.78-6.53-10.37-7.06-19.47-.89-30.23,22.31-38.9,44-78.15,66.06-117.2,7.52-13.32,12.31-13.47,20.75-.93,10.85,16.14,9.92,31.89-.18,48.39-14.14,23.1-27,47-40.9,70.24-6.11,10.21-5.29,19,.9,28.86,11.56,18.34,22.4,37.13,33.35,55.85C319.66,521.87,319,523,294.05,523.65Z"/><path class="cls-1" d="M528.68,389.48c-22.22,0-44.44.14-66.66-.05-14.88-.12-17.38-4.53-10.63-18,8.51-17,22.69-23.41,41.24-23,26.15.57,52.34-.14,78.49.66,14.72.44,23.67-5.23,30.33-18.46,10-19.81,21.6-38.8,32.79-58,7.37-12.65,11.47-12.31,19.77-.52,10.86,15.43,12.39,29.51.64,46-11.42,16-20.94,33.54-29.46,51.29-7.32,15.25-18.42,20.35-34.3,19.94-20.72-.53-41.47-.13-62.21-.13Z"/><path class="cls-1" d="M588.27,161.36c-2.52,6-4.1,11.22-6.73,15.81Q548.44,234.8,515,292.23c-8,13.77-12.82,13.61-21.53,0-9.84-15.4-9-30.32.54-45.73C508.44,223,522,199,536.45,175.53c6.11-10,6.16-18.74-.05-28.82-12.38-20.11-24-40.7-35.67-61.26-7.35-13-5.34-15.58,9.21-17.46,18.6-2.41,30.72,4,39.17,21.21,9.33,19,21,36.71,31.44,55.15C583.61,149.78,585.75,155.73,588.27,161.36Z"/><path class="cls-1" d="M252.45,108.79C257,79.22,267.19,70,293.11,69.47c21.2-.43,42.39-.88,63.57-1.7,13.51-.52,23.24,4,30.44,16.28,22.4,38.26,45.67,76,68.51,114,2,3.3,3.32,7,4.88,10.31-16.74,13.78-39.93,9-53.12-11.31-8.32-12.78-15.14-26.52-22.83-39.71-28.88-49.61-28.91-49.54-86.73-48.62C282.82,109,267.79,108.79,252.45,108.79Z"/><path class="cls-1" d="M482.3,522.7c-64.48.59-48.73,6.59-80-44.93-17.14-28.22-33.57-56.87-50.08-85.46-7.18-12.41-4.82-16.29,9.36-17.77,20.66-2.16,33.23,8.52,42.61,25.44,12.89,23.27,26.52,46.13,39.36,69.43,5.69,10.32,13.54,14.27,25.27,13.9,24.14-.74,48.32-.73,72.48-.43,13.06.16,14,3.48,9.45,15.44-7.3,19.06-20.84,25.94-40.33,24.49C501.08,522.11,491.67,522.69,482.3,522.7Z"/><g class="cls-2"><path class="cls-1" d="M195.84,424.54A36.59,36.59,0,0,1,160,395c-3.13-16.69,7.17-32.64,23.41-40.11a45.74,45.74,0,0,0,18.88-16.34c12.71-20.51,23.68-42.1,35.86-63,2.51-4.29,7.42-10.21,11-10.05,3.89.18,8.26,6.05,11.07,10.32,8.66,13.19,8.64,26.81.35,40.38-6.17,10.1-12.32,20.21-18.27,30.44-7.39,12.7-13.81,24.6-10.77,41.28C235.09,407.44,216.33,424.57,195.84,424.54Zm-.53-17.87c12-1.12,18.37-7.18,19-18.07.61-10-9-18.53-19.59-17.53-10.88,1-17.41,7.21-16.9,18.41S185.55,405.9,195.31,406.67Z"/></g><g class="cls-2"><path class="cls-1" d="M540.13,296.35c3.3-7.6,6-15.48,10-22.65,7-12.49,15.65-24.09,21.76-36.94a82.82,82.82,0,0,0,7.49-28.94c1.41-19.09,15.67-34.6,35-35.69,18.2-1,34.85,12.72,37.58,31,2.56,17.21-8.94,35.19-26.62,38.84-10.3,2.13-16.24,7.24-21.07,16.11-10.84,19.93-22.44,39.45-33.88,59-8.37,14.34-14.45,14.25-22.34-.64C544.88,310.53,543,303.85,540.13,296.35Zm94.14-87.84c-.69-10.86-6-17.52-17-18.51a18,18,0,0,0-19.55,17.46c-.29,10,8.47,19.27,18.53,18.65C627,225.44,633,219.29,634.27,208.51Z"/></g><g class="cls-2"><path class="cls-1" d="M315,408.7c17.5,1.56,29.37,9,37,24.53a334.64,334.64,0,0,0,22.63,39.84,55.07,55.07,0,0,0,17.93,16.19c15.84,9.11,23.36,27.49,16.6,44.14-7.3,18-24.93,27-43.16,22S334.36,532.32,340.32,515c4.82-14,.21-23.43-6.3-34.12q-15.42-25.27-29.88-51.1c-2.53-4.5-6.17-12-4.34-14.48C302.6,411.42,309.69,410.73,315,408.7Zm78.57,111.87c-.86-11.4-7.64-16.84-18.08-17.6-9.87-.72-19,8.73-18.67,18.39a17.83,17.83,0,0,0,19.69,17.25C387.43,537.69,393,531.3,393.53,520.57Z"/></g><g class="cls-2"><path class="cls-1" d="M498.73,181.92c-21-.68-32.94-8-40.3-23.64a361.51,361.51,0,0,0-22-40.15,48.73,48.73,0,0,0-16.31-15.75c-16.69-9.48-24.85-28.18-18.12-45,7.54-18.79,27.13-27.84,46-21.27,18.07,6.29,28.71,25.25,22.27,43.92-3.37,9.76-1.67,16.64,3.1,24.65q17,28.58,33,57.75c2.44,4.45,5.77,12,3.9,14.41C507.37,180.66,500.36,181.31,498.73,181.92ZM454.32,69.65C454.15,60,446,51.74,436.13,52,425,52.36,418.72,58.51,418,69.5a17.33,17.33,0,0,0,18.72,18.42C447.48,87,453.72,80.81,454.32,69.65Z"/></g><g class="cls-2"><path class="cls-1" d="M519.49,411.58c17.88-.73,35.32.66,52.12-10.55,15.48-10.34,35.3-3.06,45.11,12.13,10.09,15.63,7.44,34.84-6.46,46.76s-35.07,12.38-48.19-1.53c-7.49-8-15.14-9.31-24.76-9.16q-34.71.52-69.42.22c-16.05-.15-18.06-4.5-9.9-18.7s20-21.22,36.41-20.5C502.76,410.62,511.12,411.12,519.49,411.58Zm85.18,22.81c.13-11.63-7.38-19.54-17.58-19.48-11.05.06-17.66,5.94-18.78,16.88-1,10.15,7.85,19.14,18.42,18.68C597.67,450,603.87,444,604.67,434.39Z"/></g><g class="cls-2"><path class="cls-1" d="M290.58,181.78c-16.3.62-32.1-1.31-47.34,10.51s-36.19,4.66-46.75-10.82c-10.12-14.83-8.24-33.33,4.67-45.95s34.25-14.13,48.45-1.09c7.94,7.3,15.87,8.44,25.46,8.17,21.22-.59,42.45-1,63.68-1,15.66,0,18.13,5.16,10.27,19.08-8,14.16-19.72,21.59-36.23,21.12C305.39,181.61,298,181.78,290.58,181.78Zm-64.65-38.23c-9.61.12-17.82,8.2-18,17.68a17.73,17.73,0,0,0,18.88,18c11-.49,17.07-6.73,17.9-17.44C245.51,152,236.24,143.41,225.93,143.55Z"/></g><path class="cls-1" d="M159.05,338.05c-23.69-18.88-26.65-32.5-14-55.53,10.3-18.83,20.59-37.68,30.55-56.69,6.35-12.13,15.2-18.41,29.64-18.53,44.9-.39,89.79-1.79,134.68-2.7,3.9-.08,7.81.61,11.52.92,3.66,21.64-12.26,39.58-36.71,40.95-15.42.87-30.92-.07-46.39,0-58.12.37-58.08.43-86.41,51.67C174.53,311.48,166.78,324.57,159.05,338.05Z"/><polygon class="cls-1" points="106.19 612.39 106.19 615.1 106.19 627.82 106.19 643.34 106.19 665.99 166.52 665.99 166.52 653.27 118.92 653.27 118.92 643.34 118.92 640.54 155.49 640.54 155.49 627.82 118.92 627.82 118.92 615.1 166.52 615.1 166.52 602.37 106.19 602.37 106.19 612.39"/><path class="cls-1" d="M250,649.37a15.82,15.82,0,0,1-1.31,6.44,16.34,16.34,0,0,1-3.61,5.3,17.48,17.48,0,0,1-5.3,3.57,16.19,16.19,0,0,1-6.49,1.31H173.75v-13.4h59.57a3.18,3.18,0,0,0,3.22-3.22v-5.18a3.18,3.18,0,0,0-3.22-3.22H190.46a15.86,15.86,0,0,1-6.44-1.32,16.83,16.83,0,0,1-9-8.94,15.9,15.9,0,0,1-1.32-6.45v-5.18a16.2,16.2,0,0,1,1.32-6.49,16.94,16.94,0,0,1,9-8.9,15.86,15.86,0,0,1,6.44-1.32H250v13.49H190.46a3.19,3.19,0,0,0-3.22,3.22v5.18a3.19,3.19,0,0,0,3.22,3.22h42.86a16.36,16.36,0,0,1,6.49,1.31,17.42,17.42,0,0,1,5.3,3.61,17.25,17.25,0,0,1,3.61,5.3,16.19,16.19,0,0,1,1.31,6.49Z"/><path class="cls-1" d="M330.31,666H318.17V641H270.84v25H258.71V627.48h59.46V602.37h12.14Zm-59.47-44.48H258.71V602.37h12.13Z"/><path class="cls-1" d="M96.4,666H82.91v-46.4a3.51,3.51,0,0,0-.3-1.44A3.92,3.92,0,0,0,81.8,617a3.68,3.68,0,0,0-1.18-.8,3.59,3.59,0,0,0-1.45-.3H16.8V602.37H79.17a16.5,16.5,0,0,1,6.66,1.36,17.7,17.7,0,0,1,5.52,3.69A18.13,18.13,0,0,1,95,612.93a16.5,16.5,0,0,1,1.36,6.66Zm-66.1,0H16.8V615.86H30.3Zm33,0H49.81V622.93H63.3Z"/><path class="cls-1" d="M419.11,666H405.62v-46.4a3.51,3.51,0,0,0-.3-1.44,3.89,3.89,0,0,0-.8-1.19,3.72,3.72,0,0,0-1.19-.8,3.57,3.57,0,0,0-1.44-.3H339.52V602.37h62.37a16.57,16.57,0,0,1,6.66,1.36,17.09,17.09,0,0,1,9.2,9.2,16.5,16.5,0,0,1,1.36,6.66ZM353,666H339.52V615.86H353Zm33,0H372.53V622.93H386Z"/><polygon class="cls-1" points="452.67 602.37 427.21 665.99 441.73 665.99 459.03 621.46 471.36 653.27 450.21 653.27 445.46 665.99 490.85 665.99 465.39 602.37 452.67 602.37"/><polygon class="cls-1" points="650.25 612.39 650.25 615.1 650.25 627.82 650.25 643.34 650.25 665.99 710.58 665.99 710.58 653.27 662.98 653.27 662.98 643.34 662.98 640.54 699.55 640.54 699.55 627.82 662.98 627.82 662.98 615.1 710.58 615.1 710.58 602.37 650.25 602.37 650.25 612.39"/><path class="cls-1" d="M619.56,602.37h25.11v13.49H581V602.37h38.53"/><rect class="cls-1" x="606.11" y="621.51" width="13.49" height="44.49"/><path class="cls-1" d="M732.55,613.89l32.64.32-.05,4.41,0,4.42-.05,4.41-29.1-.3v12.14l8.73.08,22.81,26.36,15.71.16-22.82-26.36,8.17.08h.84a9.88,9.88,0,0,0,10-9.78l.06-6.66.05-4.41.07-6.66a9.88,9.88,0,0,0-9.79-10h-.84l-36.37-.37h-.33l-12-.12-.63,63.62,12.72.13Z"/><path class="cls-1" d="M573.08,649.37a15.82,15.82,0,0,1-1.32,6.44,16.34,16.34,0,0,1-3.61,5.3,17.24,17.24,0,0,1-5.3,3.57,16.19,16.19,0,0,1-6.49,1.31H496.79v-13.4h59.57a3.11,3.11,0,0,0,2.29-.93,3.14,3.14,0,0,0,.93-2.29v-5.18a3.18,3.18,0,0,0-3.22-3.22H513.51a15.9,15.9,0,0,1-6.45-1.32,16.83,16.83,0,0,1-8.95-8.94,15.9,15.9,0,0,1-1.32-6.45v-5.18a16.2,16.2,0,0,1,1.32-6.49,17.1,17.1,0,0,1,3.6-5.3,16.81,16.81,0,0,1,5.35-3.6,15.9,15.9,0,0,1,6.45-1.32h59.57v13.49H513.51a3.11,3.11,0,0,0-2.29.93,3.15,3.15,0,0,0-.94,2.29v5.18a3.19,3.19,0,0,0,3.23,3.22h42.85a16.36,16.36,0,0,1,6.49,1.31,17.21,17.21,0,0,1,8.91,8.91,16.2,16.2,0,0,1,1.32,6.49Z"/></svg>