<svg id="Layer_1" data-name="Layer 1" xmlns="http://www.w3.org/2000/svg" viewBox="0 0 580 580"><defs><style>.cls-1{fill:#00b39f;}.cls-2{fill:#00d3a9;}.cls-3{fill:none;}</style></defs><title>meshmaster-icon</title><path class="cls-1" d="M183.8,518.27c-13.61,2.81-22.74-4.61-29.78-17-11.45-20.13-23.08-40.18-35.41-59.77-6.52-10.37-7.06-19.48-.89-30.24,22.32-38.9,44-78.15,66.06-117.2,7.52-13.31,12.32-13.47,20.76-.92,10.85,16.13,9.91,31.88-.18,48.38-14.14,23.11-27,47-40.9,70.25-6.12,10.21-5.3,19,.9,28.85,11.55,18.34,22.39,37.14,33.35,55.85C209.42,516.5,208.73,517.58,183.8,518.27Z"/><path class="cls-1" d="M418.43,384.11c-22.22,0-44.44.14-66.66-.05-14.88-.13-17.38-4.54-10.62-18.05,8.5-17,22.69-23.4,41.23-23,26.16.57,52.34-.14,78.49.65,14.73.45,23.68-5.22,30.33-18.46,10-19.81,21.6-38.79,32.79-58,7.38-12.65,11.47-12.32,19.77-.52,10.86,15.42,12.4,29.5.64,46-11.41,16-20.94,33.54-29.46,51.29-7.32,15.26-18.41,20.36-34.29,20-20.73-.53-41.48-.13-62.22-.13Z"/><path class="cls-1" d="M478,156c-2.53,6-4.1,11.21-6.74,15.8q-33.1,57.65-66.58,115.06c-8,13.78-12.82,13.62-21.54,0-9.84-15.41-9-30.32.54-45.73,14.48-23.46,28.08-47.45,42.49-70.95,6.11-10,6.16-18.73,0-28.81-12.39-20.12-24-40.7-35.68-61.27-7.35-13-5.33-15.57,9.22-17.46,18.59-2.41,30.71,4,39.16,21.21,9.33,19,21,36.72,31.44,55.16C473.37,144.4,475.5,150.36,478,156Z"/><path class="cls-1" d="M142.2,103.41c4.53-29.56,14.74-38.79,40.67-39.32,21.19-.42,42.38-.88,63.56-1.69,13.52-.52,23.24,4,30.45,16.27,22.4,38.27,45.66,76,68.5,114,2,3.3,3.32,7,4.88,10.32-16.73,13.78-39.93,9-53.12-11.32C288.82,178.93,282,165.19,274.32,152c-28.89-49.6-28.92-49.53-86.73-48.61C172.57,103.62,157.55,103.41,142.2,103.41Z"/><path class="cls-1" d="M372.05,517.33c-64.48.59-48.73,6.59-80-44.93-17.13-28.22-33.56-56.87-50.08-85.46-7.17-12.41-4.82-16.29,9.36-17.78,20.66-2.16,33.23,8.52,42.61,25.45,12.89,23.27,26.52,46.13,39.36,69.42,5.69,10.32,13.54,14.27,25.27,13.91,24.15-.75,48.32-.73,72.48-.43,13.06.16,14,3.48,9.45,15.44-7.3,19.06-20.84,25.93-40.32,24.48C390.83,516.74,381.42,517.31,372.05,517.33Z"/><path class="cls-2" d="M85.6,419.16a36.57,36.57,0,0,1-35.8-29.57C46.66,372.91,57,357,73.2,349.49a45.69,45.69,0,0,0,18.88-16.34c12.71-20.52,23.69-42.11,35.86-63,2.51-4.3,7.42-10.22,11-10.06,3.88.18,8.25,6.05,11.06,10.33,8.66,13.19,8.65,26.81.35,40.37-6.17,10.1-12.32,20.22-18.27,30.44-7.39,12.7-13.8,24.61-10.77,41.29C124.85,402.07,106.08,419.19,85.6,419.16Zm-.53-17.87c12-1.12,18.36-7.17,19-18.07.61-10-9-18.53-19.59-17.53-10.89,1-17.42,7.21-16.91,18.41S75.3,400.52,85.07,401.29Z"/><path class="cls-2" d="M429.88,291c3.3-7.6,6-15.48,10-22.65,6.95-12.49,15.65-24.09,21.76-36.94a83.05,83.05,0,0,0,7.5-28.94c1.4-19.09,15.66-34.59,35-35.68,18.2-1,34.85,12.72,37.58,31,2.56,17.21-8.94,35.2-26.61,38.84-10.31,2.13-16.25,7.25-21.08,16.12-10.84,19.92-22.44,39.44-33.88,59-8.37,14.34-14.44,14.25-22.33-.64C434.63,305.15,432.77,298.48,429.88,291ZM524,203.14c-.69-10.86-6-17.52-17-18.52a18,18,0,0,0-19.55,17.47c-.3,10,8.46,19.26,18.52,18.64C516.7,220.07,522.79,213.92,524,203.14Z"/><path class="cls-2" d="M204.71,403.32c17.5,1.56,29.38,9,37,24.53a331.89,331.89,0,0,0,22.63,39.84,54.82,54.82,0,0,0,17.92,16.19c15.85,9.11,23.36,27.49,16.6,44.15-7.3,18-24.93,27-43.16,22S224.11,527,230.08,509.57c4.81-14,.2-23.43-6.31-34.12q-15.4-25.26-29.88-51.09c-2.52-4.51-6.16-12-4.34-14.48C192.36,406.05,199.44,405.35,204.71,403.32Zm78.57,111.87c-.85-11.4-7.64-16.83-18.07-17.59-9.88-.72-19,8.72-18.67,18.38a17.83,17.83,0,0,0,19.68,17.26C277.18,532.32,282.73,525.92,283.28,515.19Z"/><path class="cls-2" d="M388.48,176.54c-21-.68-32.94-8-40.3-23.64a363.84,363.84,0,0,0-22-40.14A48.67,48.67,0,0,0,309.89,97C293.2,87.53,285,68.82,291.78,52c7.53-18.78,27.12-27.84,46-21.27,18.07,6.29,28.71,25.25,22.27,43.92-3.37,9.77-1.66,16.64,3.11,24.66q17,28.57,33,57.74c2.45,4.45,5.78,12,3.91,14.41C397.12,175.29,390.12,175.93,388.48,176.54ZM344.07,64.28c-.16-9.68-8.36-17.92-18.19-17.63-11.09.33-17.41,6.48-18.12,17.48a17.33,17.33,0,0,0,18.72,18.42C337.23,81.6,343.48,75.44,344.07,64.28Z"/><path class="cls-2" d="M409.24,406.2c17.89-.73,35.33.66,52.12-10.55,15.49-10.34,35.3-3.06,45.12,12.14,10.08,15.62,7.43,34.83-6.47,46.76s-35.07,12.38-48.18-1.54c-7.5-8-15.15-9.3-24.77-9.16q-34.71.52-69.42.23c-16.05-.15-18.06-4.5-9.9-18.7s20-21.23,36.42-20.51C392.52,405.24,400.87,405.75,409.24,406.2ZM494.42,429c.13-11.62-7.38-19.53-17.58-19.48-11,.07-17.65,5.94-18.78,16.88-1,10.16,7.86,19.14,18.42,18.68C487.42,444.61,493.63,438.62,494.42,429Z"/><path class="cls-2" d="M180.33,176.4c-16.29.62-32.1-1.3-47.34,10.52S96.8,191.57,86.24,176.1c-10.11-14.84-8.23-33.33,4.68-45.95s34.25-14.13,48.44-1.09c7.95,7.29,15.88,8.43,25.46,8.16,21.22-.59,42.46-1,63.68-1,15.67,0,18.13,5.16,10.28,19.08-8,14.16-19.73,21.59-36.24,21.12C195.14,176.23,187.73,176.4,180.33,176.4Zm-64.64-38.23c-9.62.13-17.82,8.2-18,17.69a17.75,17.75,0,0,0,18.88,18c11-.49,17.07-6.73,17.9-17.45C135.26,146.62,126,138,115.69,138.17Z"/><path class="cls-3" d="M85.07,401.29c-9.77-.77-16.95-6-17.47-17.19s6-17.38,16.91-18.41c10.55-1,20.2,7.51,19.59,17.53C103.43,394.12,97.05,400.17,85.07,401.29Z"/><path class="cls-3" d="M524,203.14c-1.23,10.78-7.32,16.93-18,17.59-10.06.62-18.82-8.62-18.52-18.64A18,18,0,0,1,507,184.62C518,185.62,523.33,192.28,524,203.14Z"/><path class="cls-3" d="M283.28,515.19c-.55,10.73-6.1,17.13-17.06,18A17.83,17.83,0,0,1,246.54,516c-.3-9.66,8.79-19.1,18.67-18.38C275.64,498.36,282.43,503.79,283.28,515.19Z"/><path class="cls-3" d="M494.42,429c-.79,9.61-7,15.6-17.94,16.08-10.56.46-19.46-8.52-18.42-18.68,1.13-10.94,7.73-16.81,18.78-16.88C487,409.48,494.55,417.39,494.42,429Z"/><path class="cls-3" d="M115.69,138.17c10.3-.13,19.57,8.45,18.81,18.22-.83,10.72-6.9,17-17.9,17.45a17.75,17.75,0,0,1-18.88-18C97.87,146.37,106.07,138.3,115.69,138.17Z"/><path class="cls-1" d="M48.8,332.68c-23.68-18.89-26.64-32.51-14-55.54,10.31-18.83,20.59-37.67,30.55-56.68C71.67,208.32,80.51,202,95,201.92c44.9-.38,89.79-1.79,134.68-2.69,3.9-.08,7.81.6,11.52.91,3.67,21.64-12.25,39.59-36.71,41-15.41.86-30.92-.07-46.38,0-58.13.36-58.08.42-86.42,51.67C64.28,306.11,56.53,319.2,48.8,332.68Z"/></svg>