<svg id="Layer_1" data-name="Layer 1" xmlns="http://www.w3.org/2000/svg" viewBox="0 0 950.33 200"><defs><style>.cls-1{fill:#fff;}.cls-2{fill:#00b39f;}.cls-3{fill:#00d3a9;}.cls-4{fill:none;}</style></defs><title>meshmaster-text-side-color</title><polygon class="cls-1" points="291.35 80.03 291.35 82.55 291.35 94.42 291.35 108.88 291.35 130 347.59 130 347.59 118.14 303.22 118.14 303.22 108.88 303.22 106.28 337.31 106.28 337.31 94.42 303.22 94.42 303.22 82.55 347.59 82.55 347.59 70.69 291.35 70.69 291.35 80.03"/><path class="cls-1" d="M425.44,114.5a14.78,14.78,0,0,1-1.22,6,15.34,15.34,0,0,1-3.36,4.94,16.25,16.25,0,0,1-4.95,3.32,15.08,15.08,0,0,1-6.05,1.23H354.33V117.51h55.53a3,3,0,0,0,3-3v-4.82a3,3,0,0,0-3-3H369.91a15,15,0,0,1-6-1.22,15.85,15.85,0,0,1-5-3.36,16,16,0,0,1-3.36-5,14.79,14.79,0,0,1-1.23-6V86.27a15.12,15.12,0,0,1,1.23-6,16,16,0,0,1,3.36-4.94,15.52,15.52,0,0,1,5-3.36,14.86,14.86,0,0,1,6-1.23h55.53V83.26H369.91a2.87,2.87,0,0,0-2.13.88,2.9,2.9,0,0,0-.87,2.13v4.82a3,3,0,0,0,3,3h39.95a15.25,15.25,0,0,1,6.05,1.22,15.92,15.92,0,0,1,8.31,8.31,15.07,15.07,0,0,1,1.22,6.05Z"/><path class="cls-1" d="M500.27,130H489V106.67H444.84V130H433.53V94.1H489V70.69h11.31ZM444.84,88.53H433.53V70.69h11.31Z"/><path class="cls-1" d="M282.23,130H269.65V86.74a3.22,3.22,0,0,0-.28-1.34,3.51,3.51,0,0,0-.75-1.11,3.88,3.88,0,0,0-1.11-.75,3.38,3.38,0,0,0-1.34-.27H208V70.69h58.14A15.37,15.37,0,0,1,272.38,72,15.91,15.91,0,0,1,281,80.54a15.52,15.52,0,0,1,1.27,6.2Zm-61.62,0H208V83.27h12.58Zm30.77,0H238.8V89.85h12.58Z"/><path class="cls-1" d="M583.06,130H570.48V86.74a3.22,3.22,0,0,0-.28-1.34,3.51,3.51,0,0,0-.75-1.11,3.7,3.7,0,0,0-1.1-.75,3.46,3.46,0,0,0-1.35-.27H508.86V70.69H567A15.37,15.37,0,0,1,573.21,72a15.91,15.91,0,0,1,8.58,8.58,15.36,15.36,0,0,1,1.27,6.2Zm-61.62,0H508.86V83.27h12.58Zm30.77,0H539.63V89.85h12.58Z"/><polygon class="cls-1" points="614.34 70.69 590.61 130 604.14 130 620.27 88.48 631.76 118.14 612.05 118.14 607.62 130 649.93 130 626.2 70.69 614.34 70.69"/><polygon class="cls-1" points="798.52 80.03 798.52 82.55 798.52 94.42 798.52 108.88 798.52 130 854.76 130 854.76 118.14 810.39 118.14 810.39 108.88 810.39 106.28 844.48 106.28 844.48 94.42 810.39 94.42 810.39 82.55 854.76 82.55 854.76 70.69 798.52 70.69 798.52 80.03"/><path class="cls-1" d="M769.91,70.69h23.42V83.27H734V70.69h35.91"/><rect class="cls-1" x="757.38" y="88.53" width="12.58" height="41.47"/><path class="cls-1" d="M875.25,81.42l30.42.31,0,4.11,0,4.11-.05,4.12-27.13-.28V105.1l8.14.09,21.27,24.56,14.64.15-21.27-24.57,7.61.08h.78a9.22,9.22,0,0,0,9.31-9.12l.06-6.21L919,86l.06-6.21a9.21,9.21,0,0,0-9.11-9.31h-.79l-33.9-.34h-.31L863.75,70l-.6,59.31,11.86.11Z"/><path class="cls-1" d="M726.58,114.5a15,15,0,0,1-1.22,6,15.34,15.34,0,0,1-3.36,4.94,16.25,16.25,0,0,1-5,3.32,15.08,15.08,0,0,1-6,1.23H655.47V117.51H711a3,3,0,0,0,3-3v-4.82a3,3,0,0,0-3-3h-40a15,15,0,0,1-6-1.22,15.85,15.85,0,0,1-5-3.36,16,16,0,0,1-3.36-5,14.79,14.79,0,0,1-1.23-6V86.27a15.12,15.12,0,0,1,1.23-6,16,16,0,0,1,3.36-4.94,15.52,15.52,0,0,1,5-3.36,14.82,14.82,0,0,1,6-1.23h55.53V83.26H671.05a2.87,2.87,0,0,0-2.13.88,2.9,2.9,0,0,0-.87,2.13v4.82a3,3,0,0,0,3,3h40a15.25,15.25,0,0,1,6,1.22,15.92,15.92,0,0,1,8.31,8.31,15.25,15.25,0,0,1,1.22,6.05Z"/><path class="cls-2" d="M72.75,165.5c-3.91.81-6.53-1.32-8.55-4.87-3.28-5.78-6.62-11.53-10.16-17.15-1.87-3-2-5.59-.25-8.68,6.4-11.16,12.63-22.42,18.95-33.63,2.16-3.82,3.54-3.86,6-.26,3.11,4.63,2.84,9.15,0,13.88-4.06,6.63-7.75,13.49-11.74,20.16-1.75,2.93-1.52,5.45.26,8.28,3.31,5.26,6.43,10.65,9.57,16C80.1,165,79.9,165.31,72.75,165.5Z"/><path class="cls-2" d="M140.08,127c-6.38,0-12.76,0-19.13,0-4.27,0-5-1.3-3-5.18,2.44-4.88,6.51-6.71,11.83-6.6,7.51.16,15,0,22.52.19,4.23.13,6.8-1.5,8.71-5.3,2.86-5.68,6.2-11.13,9.41-16.63,2.11-3.63,3.29-3.54,5.67-.15,3.12,4.42,3.56,8.46.18,13.19a98.7,98.7,0,0,0-8.45,14.71c-2.1,4.38-5.29,5.84-9.84,5.73-6-.16-11.9,0-17.85,0Z"/><path class="cls-2" d="M157.18,61.54a43,43,0,0,1-1.94,4.54q-9.5,16.55-19.1,33c-2.31,4-3.68,3.9-6.18,0-2.83-4.42-2.58-8.7.15-13.12,4.16-6.73,8.06-13.62,12.2-20.36a7.12,7.12,0,0,0,0-8.27c-3.55-5.77-6.89-11.68-10.23-17.58-2.11-3.73-1.54-4.47,2.64-5,5.33-.69,8.81,1.16,11.24,6.09,2.68,5.43,6,10.53,9,15.82C155.84,58.22,156.45,59.93,157.18,61.54Z"/><path class="cls-2" d="M60.81,46.46C62.11,38,65,35.33,72.48,35.18c6.08-.13,12.16-.26,18.24-.49,3.88-.15,6.67,1.14,8.74,4.67,6.42,11,13.1,21.81,19.65,32.72a29.36,29.36,0,0,1,1.4,3c-4.8,3.95-11.45,2.57-15.24-3.25-2.39-3.66-4.34-7.6-6.55-11.39-8.29-14.24-8.3-14.22-24.89-13.95C69.53,46.52,65.21,46.46,60.81,46.46Z"/><path class="cls-2" d="M126.77,165.23c-18.51.17-14,1.89-23-12.89-4.92-8.1-9.63-16.32-14.37-24.52-2.06-3.57-1.38-4.68,2.69-5.1,5.93-.62,9.53,2.44,12.22,7.3,3.7,6.67,7.61,13.23,11.3,19.92,1.63,3,3.88,4.09,7.25,4,6.93-.22,13.87-.21,20.8-.12,3.75,0,4,1,2.71,4.43-2.09,5.46-6,7.44-11.57,7C132.16,165.06,129.46,165.23,126.77,165.23Z"/><path class="cls-3" d="M44.57,137.06a10.48,10.48,0,0,1-10.27-8.48c-.9-4.79,2.05-9.37,6.71-11.51a13.12,13.12,0,0,0,5.42-4.69c3.65-5.89,6.8-12.08,10.29-18.07.72-1.23,2.13-2.93,3.15-2.88s2.37,1.73,3.17,3a10.11,10.11,0,0,1,.1,11.59c-1.77,2.89-3.53,5.8-5.24,8.73-2.12,3.64-4,7.06-3.09,11.85C55.83,132.16,50.45,137.07,44.57,137.06Zm-.15-5.12c3.43-.33,5.27-2.06,5.46-5.19a5.07,5.07,0,0,0-5.62-5c-3.13.29-5,2.07-4.85,5.28S41.61,131.71,44.42,131.94Z"/><path class="cls-3" d="M143.36,100.28c.95-2.18,1.73-4.44,2.87-6.5,2-3.59,4.49-6.91,6.24-10.6a23.47,23.47,0,0,0,2.15-8.31,10.78,10.78,0,0,1,10-10.23,10.5,10.5,0,0,1,10.78,8.89,10,10,0,0,1-7.64,11.15,8.23,8.23,0,0,0-6.05,4.62c-3.11,5.72-6.44,11.32-9.72,17-2.4,4.11-4.14,4.09-6.41-.19A54.55,54.55,0,0,1,143.36,100.28Zm27-25.21c-.2-3.11-1.73-5-4.89-5.31a5.16,5.16,0,0,0-5.61,5,5.24,5.24,0,0,0,5.32,5.35C168.27,79.93,170,78.17,170.38,75.07Z"/><path class="cls-3" d="M78.75,132.52c5,.45,8.43,2.57,10.6,7A96.11,96.11,0,0,0,95.85,151a15.68,15.68,0,0,0,5.14,4.64c4.55,2.62,6.7,7.89,4.76,12.67a10.19,10.19,0,0,1-12.38,6.31C88.1,173.17,84.32,168,86,163c1.38-4,.06-6.73-1.81-9.79q-4.43-7.26-8.58-14.67c-.72-1.29-1.77-3.44-1.24-4.15C75.2,133.3,77.24,133.1,78.75,132.52Zm22.54,32.1c-.24-3.27-2.19-4.83-5.18-5.05a5.3,5.3,0,0,0-5.36,5.28,5.12,5.12,0,0,0,5.65,5C99.54,169.53,101.13,167.7,101.29,164.62Z"/><path class="cls-3" d="M131.48,67.44c-6-.19-9.45-2.28-11.56-6.78a104.53,104.53,0,0,0-6.31-11.52,14,14,0,0,0-4.68-4.52c-4.79-2.72-7.13-8.09-5.2-12.9a10.34,10.34,0,0,1,13.2-6.11,9.92,9.92,0,0,1,6.39,12.6,7.62,7.62,0,0,0,.89,7.08q4.89,8.2,9.47,16.57c.7,1.28,1.66,3.44,1.12,4.13C134,67.08,132,67.27,131.48,67.44ZM118.74,35.23a5.17,5.17,0,0,0-5.22-5.06c-3.19.1-5,1.86-5.2,5a5,5,0,0,0,5.37,5.28C116.78,40.2,118.57,38.43,118.74,35.23Z"/><path class="cls-3" d="M137.44,133.34c5.13-.21,10.13.19,14.95-3,4.45-3,10.13-.88,13,3.48a10.1,10.1,0,0,1-1.85,13.42,10,10,0,0,1-13.83-.44c-2.15-2.29-4.35-2.67-7.11-2.63q-10,.15-19.92.06c-4.6,0-5.18-1.29-2.84-5.36s5.75-6.09,10.45-5.89C132.64,133.07,135,133.21,137.44,133.34Zm24.44,6.55c0-3.34-2.12-5.61-5-5.59-3.17,0-5.07,1.7-5.39,4.84a5,5,0,0,0,5.28,5.36C159.87,144.37,161.65,142.65,161.88,139.89Z"/><path class="cls-3" d="M71.75,67.4c-4.67.18-9.21-.37-13.58,3s-10.39,1.34-13.42-3.1A10.26,10.26,0,0,1,60,53.82c2.28,2.09,4.55,2.42,7.3,2.34,6.09-.17,12.18-.3,18.28-.28,4.49,0,5.2,1.48,2.94,5.47s-5.66,6.2-10.4,6.06C76,67.35,73.88,67.4,71.75,67.4Zm-18.55-11a5.28,5.28,0,0,0-5.15,5.08,5.09,5.09,0,0,0,5.41,5.16c3.16-.14,4.9-1.93,5.14-5C58.82,58.86,56.16,56.39,53.2,56.43Z"/><path class="cls-4" d="M44.42,131.94c-2.81-.23-4.87-1.73-5-4.94s1.72-5,4.85-5.28a5.07,5.07,0,0,1,5.62,5C49.69,129.88,47.85,131.61,44.42,131.94Z"/><path class="cls-4" d="M170.38,75.07c-.36,3.1-2.11,4.86-5.18,5.05a5.24,5.24,0,0,1-5.32-5.35,5.16,5.16,0,0,1,5.61-5C168.65,70.05,170.18,72,170.38,75.07Z"/><path class="cls-4" d="M101.29,164.62c-.16,3.08-1.75,4.91-4.89,5.18a5.12,5.12,0,0,1-5.65-5,5.3,5.3,0,0,1,5.36-5.28C99.1,159.79,101.05,161.35,101.29,164.62Z"/><path class="cls-4" d="M161.88,139.89c-.23,2.76-2,4.48-5.15,4.61a5,5,0,0,1-5.28-5.36c.32-3.14,2.22-4.82,5.39-4.84C159.76,134.28,161.92,136.55,161.88,139.89Z"/><path class="cls-4" d="M53.2,56.43c3,0,5.62,2.43,5.4,5.23-.24,3.08-2,4.87-5.14,5a5.09,5.09,0,0,1-5.41-5.16A5.28,5.28,0,0,1,53.2,56.43Z"/><path class="cls-2" d="M34,112.25c-6.8-5.42-7.65-9.33-4-15.94,3-5.4,5.91-10.81,8.77-16.27,1.82-3.48,4.36-5.28,8.5-5.31C60.14,74.62,73,74.21,85.9,74a31.93,31.93,0,0,1,3.3.27C90.26,80.43,85.69,85.57,78.67,86c-4.42.24-8.87,0-13.31,0-16.68.1-16.67.12-24.8,14.82C38.45,104.62,36.23,108.38,34,112.25Z"/></svg>