<svg id="Layer_1" data-name="Layer 1" xmlns="http://www.w3.org/2000/svg" viewBox="0 0 540 540"><defs><style>.cls-1{fill:#fff;}.cls-2{opacity:0.8;}</style></defs><title>meshmaster-icon-white-no-trim</title><path class="cls-1" d="M163.8,498.27c-13.61,2.81-22.74-4.61-29.78-17-11.45-20.13-23.08-40.18-35.41-59.77-6.52-10.37-7.06-19.48-.89-30.24,22.32-38.9,44-78.15,66.06-117.2,7.52-13.31,12.32-13.47,20.76-.92,10.85,16.13,9.91,31.88-.18,48.38-14.14,23.11-27,47-40.9,70.25-6.12,10.21-5.3,19,.9,28.85,11.55,18.34,22.39,37.14,33.35,55.85C189.42,496.5,188.73,497.58,163.8,498.27Z"/><path class="cls-1" d="M398.43,364.11c-22.22,0-44.44.14-66.66-.05-14.88-.13-17.38-4.54-10.62-18.05,8.5-17,22.69-23.4,41.23-23,26.16.57,52.34-.14,78.49.65,14.73.45,23.68-5.22,30.33-18.46,10-19.81,21.6-38.79,32.79-58,7.38-12.65,11.47-12.32,19.77-.52,10.86,15.42,12.4,29.5.64,46-11.41,16-20.94,33.54-29.46,51.29-7.32,15.26-18.41,20.36-34.29,20-20.73-.53-41.48-.13-62.22-.13Z"/><path class="cls-1" d="M458,136c-2.53,6-4.1,11.21-6.74,15.8q-33.1,57.65-66.58,115.06c-8,13.78-12.82,13.62-21.54,0-9.84-15.41-9-30.32.54-45.73,14.48-23.46,28.08-47.45,42.49-70.95,6.11-10,6.16-18.73,0-28.81-12.39-20.12-24-40.7-35.68-61.27-7.35-13-5.33-15.57,9.22-17.46,18.59-2.41,30.71,4,39.16,21.21,9.33,18.95,21,36.72,31.44,55.16C453.37,124.4,455.5,130.36,458,136Z"/><path class="cls-1" d="M122.2,83.41c4.53-29.56,14.74-38.79,40.67-39.32,21.19-.42,42.38-.88,63.56-1.69,13.52-.52,23.24,4,30.45,16.27,22.4,38.27,45.66,76,68.5,114,2,3.3,3.32,7,4.88,10.32-16.73,13.78-39.93,9-53.12-11.32C268.82,158.93,262,145.19,254.32,132c-28.89-49.6-28.92-49.53-86.73-48.61C152.57,83.62,137.55,83.41,122.2,83.41Z"/><path class="cls-1" d="M352.05,497.33c-64.48.59-48.73,6.59-80-44.93-17.13-28.22-33.56-56.87-50.08-85.46-7.17-12.41-4.82-16.29,9.36-17.78,20.66-2.16,33.23,8.52,42.61,25.45,12.89,23.27,26.52,46.13,39.36,69.42,5.69,10.32,13.54,14.27,25.27,13.91,24.15-.75,48.32-.73,72.48-.43,13.06.16,14,3.48,9.45,15.44-7.3,19.06-20.84,25.93-40.32,24.48C370.83,496.74,361.42,497.31,352.05,497.33Z"/><g class="cls-2"><path class="cls-1" d="M65.6,399.16a36.57,36.57,0,0,1-35.8-29.57C26.66,352.91,37,337,53.2,329.49a45.69,45.69,0,0,0,18.88-16.34c12.71-20.52,23.69-42.11,35.86-63,2.51-4.3,7.42-10.22,11-10.06,3.88.18,8.25,6,11.06,10.33,8.66,13.19,8.65,26.81.35,40.37-6.17,10.1-12.32,20.22-18.27,30.44-7.39,12.7-13.8,24.61-10.77,41.29C104.85,382.07,86.08,399.19,65.6,399.16Zm-.53-17.87c12-1.12,18.36-7.17,19-18.07.61-10-9-18.53-19.59-17.53-10.89,1-17.42,7.21-16.91,18.41S55.3,380.52,65.07,381.29Z"/></g><g class="cls-2"><path class="cls-1" d="M409.88,271c3.3-7.6,6-15.48,10-22.65,6.95-12.49,15.65-24.09,21.76-36.94a83.05,83.05,0,0,0,7.5-28.94c1.4-19.09,15.66-34.59,35-35.68,18.2-1,34.85,12.72,37.58,31,2.56,17.21-8.94,35.2-26.61,38.84-10.31,2.13-16.25,7.25-21.08,16.12-10.84,19.92-22.44,39.44-33.88,59-8.37,14.34-14.44,14.25-22.33-.64C414.63,285.15,412.77,278.48,409.88,271ZM504,183.14c-.69-10.86-6-17.52-17-18.52a18,18,0,0,0-19.55,17.47c-.3,10,8.46,19.26,18.52,18.64C496.7,200.07,502.79,193.92,504,183.14Z"/></g><g class="cls-2"><path class="cls-1" d="M184.71,383.32c17.5,1.56,29.38,9,37,24.53a331.89,331.89,0,0,0,22.63,39.84,54.82,54.82,0,0,0,17.92,16.19c15.85,9.11,23.36,27.49,16.6,44.15-7.3,18-24.93,27-43.16,22S204.11,507,210.08,489.57c4.81-14,.2-23.43-6.31-34.12q-15.4-25.26-29.88-51.09c-2.52-4.51-6.16-12-4.34-14.48C172.36,386.05,179.44,385.35,184.71,383.32Zm78.57,111.87c-.85-11.4-7.64-16.83-18.07-17.59-9.88-.72-19,8.72-18.67,18.38a17.83,17.83,0,0,0,19.68,17.26C257.18,512.32,262.73,505.92,263.28,495.19Z"/></g><g class="cls-2"><path class="cls-1" d="M368.48,156.54c-21-.68-32.94-8-40.3-23.64a363.84,363.84,0,0,0-22-40.14A48.67,48.67,0,0,0,289.89,77C273.2,67.53,265,48.82,271.78,32c7.53-18.78,27.12-27.84,46-21.27,18.07,6.29,28.71,25.25,22.27,43.92-3.37,9.77-1.66,16.64,3.11,24.66q17,28.57,33,57.74c2.45,4.45,5.78,12,3.91,14.41C377.12,155.29,370.12,155.93,368.48,156.54ZM324.07,44.28c-.16-9.68-8.36-17.92-18.19-17.63-11.09.33-17.41,6.48-18.12,17.48a17.33,17.33,0,0,0,18.72,18.42C317.23,61.6,323.48,55.44,324.07,44.28Z"/></g><g class="cls-2"><path class="cls-1" d="M389.24,386.2c17.89-.73,35.33.66,52.12-10.55,15.49-10.34,35.3-3.06,45.12,12.14,10.08,15.62,7.43,34.83-6.47,46.76s-35.07,12.38-48.18-1.54c-7.5-8-15.15-9.3-24.77-9.16q-34.71.52-69.42.23c-16.05-.15-18.06-4.5-9.9-18.7s20-21.23,36.42-20.51C372.52,385.24,380.87,385.75,389.24,386.2ZM474.42,409c.13-11.62-7.38-19.53-17.58-19.48-11,.07-17.65,5.94-18.78,16.88-1,10.16,7.86,19.14,18.42,18.68C467.42,424.61,473.63,418.62,474.42,409Z"/></g><g class="cls-2"><path class="cls-1" d="M160.33,156.4c-16.29.62-32.1-1.3-47.34,10.52S76.8,171.57,66.24,156.1c-10.11-14.84-8.23-33.33,4.68-45.95s34.25-14.13,48.44-1.09c8,7.29,15.88,8.43,25.46,8.16,21.22-.59,42.46-1,63.68-1,15.67,0,18.13,5.16,10.28,19.08-8,14.16-19.73,21.59-36.24,21.12C175.14,156.23,167.73,156.4,160.33,156.4ZM95.69,118.17c-9.62.13-17.82,8.2-18,17.69a17.75,17.75,0,0,0,18.88,18c11-.49,17.07-6.73,17.9-17.45C115.26,126.62,106,118,95.69,118.17Z"/></g><path class="cls-1" d="M28.8,312.68c-23.68-18.89-26.64-32.51-14-55.54,10.31-18.83,20.59-37.67,30.55-56.68C51.67,188.32,60.51,182,75,181.92c44.9-.38,89.79-1.79,134.68-2.69,3.9-.08,7.81.6,11.52.91,3.67,21.64-12.25,39.59-36.71,41-15.41.86-30.92-.07-46.38,0-58.13.36-58.08.42-86.42,51.67C44.28,286.11,36.53,299.2,28.8,312.68Z"/></svg>