<svg id="Layer_1" data-name="Layer 1" xmlns="http://www.w3.org/2000/svg" viewBox="0 0 714.43 60"><defs><style>.cls-1{fill:#fff;}</style></defs><title>meshmaster-text-white-no-trim</title><polygon class="cls-1" points="83.32 10.03 83.32 12.55 83.32 24.41 83.32 38.88 83.32 60 139.56 60 139.56 48.14 95.19 48.14 95.19 38.88 95.19 36.28 129.28 36.28 129.28 24.41 95.19 24.41 95.19 12.55 139.56 12.55 139.56 0.69 83.32 0.69 83.32 10.03"/><path class="cls-1" d="M217.42,44.5a14.79,14.79,0,0,1-1.23,6,15.34,15.34,0,0,1-3.36,4.94,16.25,16.25,0,0,1-5,3.32,15.08,15.08,0,0,1-6,1.23H146.3V47.51h55.53a3,3,0,0,0,3-3V39.68a3,3,0,0,0-3-3h-40a14.94,14.94,0,0,1-6-1.22,15.7,15.7,0,0,1-8.35-8.35,14.79,14.79,0,0,1-1.23-6V16.27a15.12,15.12,0,0,1,1.23-6,16,16,0,0,1,3.36-4.94,15.56,15.56,0,0,1,5-3.36,14.77,14.77,0,0,1,6-1.23h55.54V13.26H161.88a2.87,2.87,0,0,0-2.13.88,2.9,2.9,0,0,0-.87,2.13v4.82a3,3,0,0,0,3,3h40a15.25,15.25,0,0,1,6,1.22,15.92,15.92,0,0,1,8.31,8.31,15.08,15.08,0,0,1,1.23,6Z"/><path class="cls-1" d="M292.25,60H280.93V36.67H236.81V60H225.5V24.1h55.43V.69h11.32ZM236.81,18.53H225.5V.69h11.31Z"/><path class="cls-1" d="M74.2,60H61.62V16.74a3.22,3.22,0,0,0-.28-1.34,3.51,3.51,0,0,0-.75-1.11,3.74,3.74,0,0,0-1.11-.75,3.38,3.38,0,0,0-1.34-.27H0V.69H58.14A15.37,15.37,0,0,1,64.35,2,16.74,16.74,0,0,1,69.49,5.4a16.62,16.62,0,0,1,3.44,5.14,15.52,15.52,0,0,1,1.27,6.2ZM12.58,60H0V13.27H12.58Zm30.77,0H30.77V19.85H43.35Z"/><path class="cls-1" d="M375,60H362.45V16.74a3.22,3.22,0,0,0-.28-1.34,3.51,3.51,0,0,0-.75-1.11,3.7,3.7,0,0,0-1.1-.75,3.43,3.43,0,0,0-1.35-.27H300.83V.69H359A15.37,15.37,0,0,1,365.18,2a16.62,16.62,0,0,1,5.14,3.44,16.62,16.62,0,0,1,3.44,5.14,15.36,15.36,0,0,1,1.27,6.2Zm-61.62,0H300.83V13.27h12.58Zm30.77,0H331.6V19.85h12.58Z"/><polygon class="cls-1" points="406.31 0.69 382.58 60 396.11 60 412.24 18.48 423.74 48.14 404.02 48.14 399.59 60 441.9 60 418.17 0.69 406.31 0.69"/><polygon class="cls-1" points="590.5 10.03 590.5 12.55 590.5 24.41 590.5 38.88 590.5 60 646.74 60 646.74 48.14 602.36 48.14 602.36 38.88 602.36 36.28 636.45 36.28 636.45 24.41 602.36 24.41 602.36 12.55 646.74 12.55 646.74 0.69 590.5 0.69 590.5 10.03"/><path class="cls-1" d="M561.88.69H585.3V13.27H526V.69h35.91"/><rect class="cls-1" x="549.35" y="18.53" width="12.58" height="41.47"/><path class="cls-1" d="M667.22,11.42l30.42.31,0,4.11,0,4.11,0,4.12-27.14-.28V35.1l8.14.09,21.27,24.56,14.64.15L693.16,35.33l7.61.08h.79a9.22,9.22,0,0,0,9.3-9.12l.06-6.21L711,16,711,9.77A9.21,9.21,0,0,0,701.91.46h-.79L667.22.12h-.31L655.72,0l-.6,59.31,11.86.11Z"/><path class="cls-1" d="M518.55,44.5a14.78,14.78,0,0,1-1.22,6A15.34,15.34,0,0,1,514,55.45a16.25,16.25,0,0,1-5,3.32A15.08,15.08,0,0,1,503,60H447.44V47.51H503a3,3,0,0,0,3-3V39.68a3,3,0,0,0-3-3H463a15,15,0,0,1-6-1.22,15.73,15.73,0,0,1-8.34-8.35,14.79,14.79,0,0,1-1.23-6V16.27a15.12,15.12,0,0,1,1.23-6A16,16,0,0,1,452,5.28a15.63,15.63,0,0,1,5-3.36,14.86,14.86,0,0,1,6-1.23h55.53V13.26H463a2.87,2.87,0,0,0-2.13.88,2.9,2.9,0,0,0-.87,2.13v4.82a3,3,0,0,0,3,3h40a15.25,15.25,0,0,1,6,1.22,15.92,15.92,0,0,1,8.31,8.31,15.07,15.07,0,0,1,1.22,6Z"/></svg>