<svg id="Layer_1" data-name="Layer 1" xmlns="http://www.w3.org/2000/svg" viewBox="0 0 530 530"><defs><style>.cls-1{fill:#00b39f;}.cls-2{fill:#00d3a9;}.cls-3{fill:none;}</style></defs><title>meshmaster-icon-no-trim</title><path class="cls-1" d="M158.8,493.27c-13.61,2.81-22.74-4.61-29.78-17-11.45-20.13-23.08-40.18-35.41-59.77-6.52-10.37-7.06-19.48-.89-30.24,22.32-38.9,44-78.15,66.06-117.2,7.52-13.31,12.32-13.47,20.76-.92,10.85,16.13,9.91,31.88-.18,48.38-14.14,23.11-27,47-40.9,70.25-6.12,10.21-5.3,19,.9,28.85,11.55,18.34,22.39,37.14,33.35,55.85C184.42,491.5,183.73,492.58,158.8,493.27Z"/><path class="cls-1" d="M393.43,359.11c-22.22,0-44.44.14-66.66-.05-14.88-.13-17.38-4.54-10.62-18.05,8.5-17,22.69-23.4,41.23-23,26.16.57,52.34-.14,78.49.65,14.73.45,23.68-5.22,30.33-18.46,10-19.81,21.6-38.79,32.79-58,7.38-12.65,11.47-12.32,19.77-.52,10.86,15.42,12.4,29.5.64,46-11.41,16-20.94,33.54-29.46,51.29-7.32,15.26-18.41,20.36-34.29,20-20.73-.53-41.48-.13-62.22-.13Z"/><path class="cls-1" d="M453,131c-2.53,6-4.1,11.21-6.74,15.8q-33.1,57.65-66.58,115.06c-8,13.78-12.82,13.62-21.54,0-9.84-15.41-9-30.32.54-45.73,14.48-23.46,28.08-47.45,42.49-70.95,6.11-10,6.16-18.73,0-28.81-12.39-20.12-24-40.7-35.68-61.27-7.35-13-5.33-15.57,9.22-17.46,18.59-2.41,30.71,4,39.16,21.21,9.33,18.95,21,36.72,31.44,55.16C448.37,119.4,450.5,125.36,453,131Z"/><path class="cls-1" d="M117.2,78.41c4.53-29.56,14.74-38.79,40.67-39.32,21.19-.42,42.38-.88,63.56-1.69,13.52-.52,23.24,4,30.45,16.27,22.4,38.27,45.66,76,68.5,114,2,3.3,3.32,7,4.88,10.32-16.73,13.78-39.93,9-53.12-11.32C263.82,153.93,257,140.19,249.32,127c-28.89-49.6-28.92-49.53-86.73-48.61C147.57,78.62,132.55,78.41,117.2,78.41Z"/><path class="cls-1" d="M347.05,492.33c-64.48.59-48.73,6.59-80-44.93-17.13-28.22-33.56-56.87-50.08-85.46-7.17-12.41-4.82-16.29,9.36-17.78,20.66-2.16,33.23,8.52,42.61,25.45,12.89,23.27,26.52,46.13,39.36,69.42,5.69,10.32,13.54,14.27,25.27,13.91,24.15-.75,48.32-.73,72.48-.43,13.06.16,14,3.48,9.45,15.44-7.3,19.06-20.84,25.93-40.32,24.48C365.83,491.74,356.42,492.31,347.05,492.33Z"/><path class="cls-2" d="M60.6,394.16a36.57,36.57,0,0,1-35.8-29.57C21.66,347.91,32,332,48.2,324.49a45.69,45.69,0,0,0,18.88-16.34c12.71-20.52,23.69-42.11,35.86-63,2.51-4.3,7.42-10.22,11-10.06,3.88.18,8.25,6,11.06,10.33,8.66,13.19,8.65,26.81.35,40.37-6.17,10.1-12.32,20.22-18.27,30.44-7.39,12.7-13.8,24.61-10.77,41.29C99.85,377.07,81.08,394.19,60.6,394.16Zm-.53-17.87c12-1.12,18.36-7.17,19-18.07.61-10-9-18.53-19.59-17.53-10.89,1-17.42,7.21-16.91,18.41S50.3,375.52,60.07,376.29Z"/><path class="cls-2" d="M404.88,266c3.3-7.6,6-15.48,10-22.65,6.95-12.49,15.65-24.09,21.76-36.94a83.05,83.05,0,0,0,7.5-28.94c1.4-19.09,15.66-34.59,35-35.68,18.2-1,34.85,12.72,37.58,31,2.56,17.21-8.94,35.2-26.61,38.84-10.31,2.13-16.25,7.25-21.08,16.12-10.84,19.92-22.44,39.44-33.88,59-8.37,14.34-14.44,14.25-22.33-.64C409.63,280.15,407.77,273.48,404.88,266ZM499,178.14c-.69-10.86-6-17.52-17-18.52a18,18,0,0,0-19.55,17.47c-.3,10,8.46,19.26,18.52,18.64C491.7,195.07,497.79,188.92,499,178.14Z"/><path class="cls-2" d="M179.71,378.32c17.5,1.56,29.38,9,37,24.53a331.89,331.89,0,0,0,22.63,39.84,54.82,54.82,0,0,0,17.92,16.19c15.85,9.11,23.36,27.49,16.6,44.15-7.3,18-24.93,27-43.16,22S199.11,502,205.08,484.57c4.81-14,.2-23.43-6.31-34.12q-15.4-25.26-29.88-51.09c-2.52-4.51-6.16-12-4.34-14.48C167.36,381.05,174.44,380.35,179.71,378.32Zm78.57,111.87c-.85-11.4-7.64-16.83-18.07-17.59-9.88-.72-19,8.72-18.67,18.38a17.83,17.83,0,0,0,19.68,17.26C252.18,507.32,257.73,500.92,258.28,490.19Z"/><path class="cls-2" d="M363.48,151.54c-21-.68-32.94-8-40.3-23.64a363.84,363.84,0,0,0-22-40.14A48.67,48.67,0,0,0,284.89,72C268.2,62.53,260,43.82,266.78,27c7.53-18.78,27.12-27.84,46-21.27,18.07,6.29,28.71,25.25,22.27,43.92-3.37,9.77-1.66,16.64,3.11,24.66q17,28.57,33,57.74c2.45,4.45,5.78,12,3.91,14.41C372.12,150.29,365.12,150.93,363.48,151.54ZM319.07,39.28c-.16-9.68-8.36-17.92-18.19-17.63-11.09.33-17.41,6.48-18.12,17.48a17.33,17.33,0,0,0,18.72,18.42C312.23,56.6,318.48,50.44,319.07,39.28Z"/><path class="cls-2" d="M384.24,381.2c17.89-.73,35.33.66,52.12-10.55,15.49-10.34,35.3-3.06,45.12,12.14,10.08,15.62,7.43,34.83-6.47,46.76s-35.07,12.38-48.18-1.54c-7.5-8-15.15-9.3-24.77-9.16q-34.71.52-69.42.23c-16.05-.15-18.06-4.5-9.9-18.7s20-21.23,36.42-20.51C367.52,380.24,375.87,380.75,384.24,381.2ZM469.42,404c.13-11.62-7.38-19.53-17.58-19.48-11,.07-17.65,5.94-18.78,16.88-1,10.16,7.86,19.14,18.42,18.68C462.42,419.61,468.63,413.62,469.42,404Z"/><path class="cls-2" d="M155.33,151.4c-16.29.62-32.1-1.3-47.34,10.52S71.8,166.57,61.24,151.1c-10.11-14.84-8.23-33.33,4.68-45.95s34.25-14.13,48.44-1.09c8,7.29,15.88,8.43,25.46,8.16,21.22-.59,42.46-1,63.68-1,15.67,0,18.13,5.16,10.28,19.08-8,14.16-19.73,21.59-36.24,21.12C170.14,151.23,162.73,151.4,155.33,151.4ZM90.69,113.17c-9.62.13-17.82,8.2-18,17.69a17.75,17.75,0,0,0,18.88,18c11-.49,17.07-6.73,17.9-17.45C110.26,121.62,101,113,90.69,113.17Z"/><path class="cls-3" d="M60.07,376.29c-9.77-.77-17-6-17.47-17.19s6-17.38,16.91-18.41c10.55-1,20.2,7.51,19.59,17.53C78.43,369.12,72.05,375.17,60.07,376.29Z"/><path class="cls-3" d="M499,178.14c-1.23,10.78-7.32,16.93-18,17.59-10.06.62-18.82-8.62-18.52-18.64A18,18,0,0,1,482,159.62C493,160.62,498.33,167.28,499,178.14Z"/><path class="cls-3" d="M258.28,490.19c-.55,10.73-6.1,17.13-17.06,18.05A17.83,17.83,0,0,1,221.54,491c-.3-9.66,8.79-19.1,18.67-18.38C250.64,473.36,257.43,478.79,258.28,490.19Z"/><path class="cls-3" d="M469.42,404c-.79,9.61-7,15.6-17.94,16.08-10.56.46-19.46-8.52-18.42-18.68,1.13-10.94,7.73-16.81,18.78-16.88C462,384.48,469.55,392.39,469.42,404Z"/><path class="cls-3" d="M90.69,113.17c10.3-.13,19.57,8.45,18.81,18.22-.83,10.72-6.9,17-17.9,17.45a17.75,17.75,0,0,1-18.88-18C72.87,121.37,81.07,113.3,90.69,113.17Z"/><path class="cls-1" d="M23.8,307.68c-23.68-18.89-26.64-32.51-14-55.54,10.31-18.83,20.59-37.67,30.55-56.68C46.67,183.32,55.51,177,70,176.92c44.9-.38,89.79-1.79,134.68-2.69,3.9-.08,7.81.6,11.52.91,3.67,21.64-12.25,39.59-36.71,41-15.41.86-30.92-.07-46.38,0-58.13.36-58.08.42-86.42,51.67C39.28,281.11,31.53,294.2,23.8,307.68Z"/></svg>