<svg id="Layer_1" data-name="Layer 1" xmlns="http://www.w3.org/2000/svg" viewBox="0 0 785 129"><defs><style>.cls-1{fill:#fff;}</style></defs><title>meshmaster-text-white</title><polygon class="cls-1" points="108.36 44.03 108.36 46.55 108.36 58.41 108.36 72.88 108.36 94 164.6 94 164.6 82.14 120.22 82.14 120.22 72.88 120.22 70.28 154.31 70.28 154.31 58.41 120.22 58.41 120.22 46.55 164.6 46.55 164.6 34.69 108.36 34.69 108.36 44.03"/><path class="cls-1" d="M242.45,78.5a14.79,14.79,0,0,1-1.23,6,15,15,0,0,1-3.36,4.94,16.08,16.08,0,0,1-4.94,3.32,15.12,15.12,0,0,1-6,1.23H171.34V81.51h55.53a3,3,0,0,0,3-3V73.68a3,3,0,0,0-3-3h-40a15,15,0,0,1-6-1.22,15.79,15.79,0,0,1-8.35-8.35,15,15,0,0,1-1.22-6V50.27a15.28,15.28,0,0,1,1.22-6.05,15.88,15.88,0,0,1,3.37-4.94,15.52,15.52,0,0,1,5-3.36,14.82,14.82,0,0,1,6-1.23h55.53V47.26H186.92a2.85,2.85,0,0,0-2.13.88,2.91,2.91,0,0,0-.88,2.13v4.82a2.91,2.91,0,0,0,.88,2.14,2.88,2.88,0,0,0,2.13.87h40a15.28,15.28,0,0,1,6,1.22,16,16,0,0,1,4.94,3.36,15.84,15.84,0,0,1,3.36,4.95,15.08,15.08,0,0,1,1.23,6.05Z"/><path class="cls-1" d="M317.28,94H306V70.67H261.85V94H250.53V58.1H306V34.69h11.31ZM261.85,52.53H250.53V34.69h11.32Z"/><path class="cls-1" d="M99.23,94H86.65V50.74a3.38,3.38,0,0,0-.27-1.34,3.52,3.52,0,0,0-1.86-1.86,3.39,3.39,0,0,0-1.35-.27H25V34.69H83.17A15.37,15.37,0,0,1,89.38,36,15.83,15.83,0,0,1,98,44.54a15.36,15.36,0,0,1,1.27,6.2ZM37.61,94H25V47.27H37.61Zm30.77,0H55.8V53.85H68.38Z"/><path class="cls-1" d="M400.06,94H387.49V50.74a3.39,3.39,0,0,0-.28-1.34,3.52,3.52,0,0,0-1.86-1.86,3.38,3.38,0,0,0-1.34-.27H325.87V34.69H384A15.44,15.44,0,0,1,390.22,36a15.91,15.91,0,0,1,8.58,8.58,15.52,15.52,0,0,1,1.26,6.2Zm-61.62,0H325.87V47.27h12.57Zm30.77,0H356.64V53.85h12.57Z"/><polygon class="cls-1" points="431.34 34.69 407.61 94 421.15 94 437.27 52.48 448.77 82.14 429.05 82.14 424.62 94 466.94 94 443.21 34.69 431.34 34.69"/><polygon class="cls-1" points="615.53 44.03 615.53 46.55 615.53 58.41 615.53 72.88 615.53 94 671.77 94 671.77 82.14 627.39 82.14 627.39 72.88 627.39 70.28 661.49 70.28 661.49 58.41 627.39 58.41 627.39 46.55 671.77 46.55 671.77 34.69 615.53 34.69 615.53 44.03"/><path class="cls-1" d="M586.92,34.69h23.41V47.27H551V34.69h35.91"/><rect class="cls-1" x="574.38" y="52.53" width="12.58" height="41.47"/><path class="cls-1" d="M692.25,45.42l30.42.31,0,4.11,0,4.11,0,4.12-27.13-.28V69.1l8.13.09,21.27,24.56,14.64.15L718.19,69.33l7.62.08h.78a9.21,9.21,0,0,0,9.3-9.12l.06-6.21L736,50l.06-6.21a9.21,9.21,0,0,0-9.12-9.31h-.78l-33.91-.34H692L680.75,34l-.59,59.31,11.86.11Z"/><path class="cls-1" d="M543.59,78.5a14.79,14.79,0,0,1-1.23,6A15,15,0,0,1,539,89.45a16.08,16.08,0,0,1-4.94,3.32A15.12,15.12,0,0,1,528,94H472.48V81.51H528a3,3,0,0,0,3-3V73.68a3,3,0,0,0-3-3H488.06a15,15,0,0,1-6-1.22,15.79,15.79,0,0,1-8.35-8.35,15,15,0,0,1-1.22-6V50.27a15.28,15.28,0,0,1,1.22-6.05,15.88,15.88,0,0,1,3.37-4.94,15.52,15.52,0,0,1,5-3.36,14.82,14.82,0,0,1,6-1.23h55.53V47.26H488.06a3,3,0,0,0-3,3v4.82a3,3,0,0,0,3,3H528a15.28,15.28,0,0,1,6,1.22A16,16,0,0,1,539,62.68a15.84,15.84,0,0,1,3.36,4.95,15.08,15.08,0,0,1,1.23,6.05Z"/></svg>