<svg xmlns="http://www.w3.org/2000/svg" viewBox="0 0 392.29 392.42"><title>Asset 2</title><g id="Layer_2" data-name="Layer 2"><g id="Layer_1-2" data-name="Layer 1"><path d="M300.27,360.63a161.09,161.09,0,0,1-53.06,24.5c-22.37,5.61-45.08,9.43-68.06,4.57-44-9.31-72.47-53.44-62.51-97.3,1.58-6.95,5.31-15.15,10.72-19.18,19.74-14.7,34.91-32.05,41-58.21a1.24,1.24,0,0,1,2.11-.58c4.62,5,8.64,8.76,11.81,13.19,14,19.54,20,41.11,14.61,65-3,13.19.81,24.49,8.92,34.54,23.59,29.24,53.64,41.47,91,33.94C297.94,360.86,299.11,360.78,300.27,360.63Z" style="fill:#00b39f;stroke:#fff;stroke-miterlimit:10"/><path d="M215.33,223.56a1.25,1.25,0,0,1-.28-1.93c20.84-21.94,45.54-31.8,74.85-26.55,17.19,3.09,30.45-1.65,42.79-12.92,25.65-23.39,34.81-51.75,28.65-86.37a1.23,1.23,0,0,1,2.2-1c.31.42.59.82.84,1.23,19,32,28.75,66.6,27.26,103.82-2,50.35-50.82,87.17-100,76.07-8.62-1.95-16.14-6.06-21.1-13.6-12.94-19.65-30.82-32.17-53.55-38A6.84,6.84,0,0,1,215.33,223.56Z" style="fill:#00b39f;stroke:#fff;stroke-miterlimit:10"/><path d="M162.75,190.11a1.24,1.24,0,0,1,1.88,1c1.27,29.12-7.7,53.55-30.45,68.87-24.6,16.56-26.94,38.56-23.46,63.47,3.57,25.57,17.37,45.26,38.66,59.73l1,.72a1.23,1.23,0,0,1-.91,2.22c-.63-.1-1.17-.21-1.71-.35-36.14-9.63-68.11-26.79-92.93-55-33.35-38-25.5-94.8,16.65-122.69,6.09-4,14.94-7.26,21.77-6.17C117.53,205.74,140.22,203.46,162.75,190.11Z" style="fill:#00d3a9;stroke:#fff;stroke-miterlimit:10"/><path d="M201.1,164.82c.19.77-.39,1.67-1.17,1.54-28.63-4.55-48.85-12.2-68.46-32.09-16.3-25.38-38.75-27.49-63.89-24.19S23,126.57,8.64,147.32c-.3.43-.63.85-1,1.31a1.24,1.24,0,0,1-2.16-1.09A187.6,187.6,0,0,1,40.24,77.29c12.53-16,26.51-30.07,46.1-37.95,35.08-14.11,82.65,2.17,99.8,35.76A39.53,39.53,0,0,1,189.88,99c-3.51,22.66-1.32,43.89,10.56,63.8A7,7,0,0,1,201.1,164.82Z" style="fill:#00d3a9;stroke:#fff;stroke-miterlimit:10"/><path d="M228.24,201.57a1.23,1.23,0,0,1-1.19-1.37c1-8.61,1.22-17.18,3.25-25.3,5-20.07,16.14-36.28,33.81-47.48,11.66-7.39,17-18.42,18.28-31.52,3.53-37.05-9.21-66.75-40.65-87.69l0,0a1.23,1.23,0,0,1,1-2.21c3.44.83,6.88,1.61,10.24,2.66,30.86,9.66,58.12,25.44,81,48.41,37,37.15,31,97.62-12.56,127-7.3,4.93-15.27,8-24.27,6.22-23.76-4.61-46.15-1.31-67,11.25C229.83,201.68,229.42,201.61,228.24,201.57Z" style="fill:#00d3a9;stroke:#fff;stroke-miterlimit:10"/><path d="M177.21,168.88a1.26,1.26,0,0,1,0,1.75c-20.76,21.89-45.66,31.33-75.07,26.16-15.57-2.74-28.22.73-39.81,10.85C35.46,231.15,25.79,257,29.73,294.28a1.24,1.24,0,0,1-2.31.72c-3.46-6.25-7-12.48-9.89-19a194.15,194.15,0,0,1-17-77c-.77-58.43,54-95.83,104-81.35A32.25,32.25,0,0,1,120.74,129c14,19.78,32,33.29,55.53,39.17C176.55,168.23,176.79,168.47,177.21,168.88Z" style="fill:#00b39f;stroke:#fff;stroke-miterlimit:10"/><path d="M223.74,176.8a1.24,1.24,0,0,1-1.93.3C201,157.22,189.76,133.65,195.06,106c4.8-25-5.25-41.51-22.47-56C150.42,31.21,124.87,24.69,96.3,30.82l-.46.08a1.24,1.24,0,0,1-1-2.18,8.87,8.87,0,0,1,1.25-.9C128.05,9.36,162.28-.65,199.34.61,249.77,2.32,287,50.87,276,100.15c-2,8.9-6,16.61-13.8,21.82-19.28,12.88-32.05,30.35-37.58,53A8.21,8.21,0,0,1,223.74,176.8Z" style="fill:#00b39f;stroke:#fff;stroke-miterlimit:10"/><path d="M190.56,229.23a1.25,1.25,0,0,1,1.13-1.47c20.78-1.36,39.22,4.19,55.23,16.83a87,87,0,0,1,17.84,19.3c7.93,11.75,18.77,17.22,32.25,18.41,37.45,3.34,67.17-9.69,87.68-41.9a6,6,0,0,1,.91-1,1.23,1.23,0,0,1,1.31-.27l.21.08a1.22,1.22,0,0,1,.7,1.58C382.64,254.54,378.1,268.62,372,282a175.84,175.84,0,0,1-37.07,52.14c-36.7,36.18-98,30-126.6-12.86-5.21-7.81-7.93-16.28-6.14-25.8,4.3-23,1.25-44.67-11.19-64.75A4.09,4.09,0,0,1,190.56,229.23Z" style="fill:#00d3a9;stroke:#fff;stroke-miterlimit:10"/></g></g></svg>