<svg xmlns="http://www.w3.org/2000/svg" viewBox="0 0 229 180.37"><title>Asset 3</title><g id="Layer_2" data-name="Layer 2"><g id="Layer_1-2" data-name="Layer 1"><rect x="-7.32" y="51.95" width="80.54" height="3.45" rx="1.59" ry="1.59" transform="translate(47.61 -7.58) rotate(45)" style="fill:none;stroke:#00d3a9;stroke-width:7px"/><rect x="-23.28" y="29.28" width="54.91" height="2.35" rx="1.08" ry="1.08" transform="translate(-26.28 34.63) rotate(-90)" style="fill:#00b39f;stroke:#00b39f;stroke-width:6px"/><rect x="14.48" y="89.31" width="99.75" height="3.99" rx="1.83" ry="1.83" transform="translate(-26.94 155.66) rotate(-90)" style="fill:#00b39f;stroke:#00b39f;stroke-width:8px"/><rect x="37.2" y="110.45" width="99.35" height="5.05" rx="2.28" ry="2.28" transform="translate(-26.1 199.86) rotate(-90)" style="fill:none;stroke:#00d3a9;stroke-width:10px"/><rect x="75.35" y="132.58" width="78.85" height="4.73" rx="2.17" ry="2.17" transform="translate(-20.16 249.72) rotate(-90)" style="fill:#00b39f;stroke:#00b39f;stroke-width:12px"/><rect x="93.01" y="110.45" width="99.35" height="5.05" rx="2.28" ry="2.28" transform="translate(29.7 255.66) rotate(-90)" style="fill:none;stroke:#00d3a9;stroke-width:10px"/><rect x="156.06" y="51.95" width="80.54" height="3.45" rx="1.59" ry="1.59" transform="translate(373.12 -47.2) rotate(135)" style="fill:none;stroke:#00d3a9;stroke-width:7px"/><rect x="115.33" y="89.31" width="99.75" height="3.99" rx="1.83" ry="1.83" transform="translate(73.9 256.5) rotate(-90)" style="fill:#00b39f;stroke:#00b39f;stroke-width:8px"/><rect x="197.37" y="29.28" width="54.91" height="2.35" rx="1.08" ry="1.08" transform="translate(194.37 255.28) rotate(-90)" style="fill:#00b39f;stroke:#00b39f;stroke-width:6px"/></g></g></svg>