<svg xmlns="http://www.w3.org/2000/svg" width="40" height="40" fill="none" viewBox="0 0 40 40"><path fill="#EBC017" d="M15 9.99997H25.625C26.1223 10.0032 26.6005 9.80876 26.9544 9.45942C27.3083 9.11007 27.509 8.63444 27.5122 8.13716C27.5154 7.63988 27.321 7.16168 26.9716 6.80777C26.6223 6.45385 26.1467 6.25321 25.6494 6.24997L24.9813 6.3056C24.8314 6.31953 24.6817 6.27834 24.56 6.18974C24.4384 6.10115 24.3533 5.97123 24.3206 5.82435C24.2645 5.56614 24.1535 5.32303 23.9951 5.11154C23.8367 4.90006 23.6346 4.72517 23.4026 4.59875C23.1705 4.47233 22.914 4.39734 22.6504 4.3789C22.3868 4.36045 22.1224 4.39898 21.875 4.49185C21.721 4.54664 21.5517 4.53891 21.4033 4.47033C21.2549 4.40175 21.1393 4.27778 21.0812 4.12497C20.891 3.61165 20.5368 3.17538 20.0735 2.88373C19.6102 2.59208 19.0636 2.46133 18.5185 2.51173C17.9734 2.56213 17.4601 2.79086 17.0581 3.16251C16.6561 3.53415 16.3879 4.02797 16.295 4.56747C16.2801 4.65033 16.2487 4.72934 16.2026 4.79975C16.1564 4.87016 16.0965 4.93052 16.0265 4.97722C15.9565 5.02391 15.8777 5.05598 15.795 5.07149C15.7122 5.087 15.6272 5.08563 15.545 5.06747C15.3665 5.02452 15.1836 5.00187 15 4.99997C14.337 4.99997 13.7011 5.26337 13.2322 5.73221C12.7634 6.20105 12.5 6.83693 12.5 7.49997C12.5 8.16301 12.7634 8.7989 13.2322 9.26774C13.7011 9.73658 14.337 9.99997 15 9.99997Z"/><path fill="#EBC017" d="M27.5 11.25H12.5V14.375H27.5V11.25ZM17.5 13.75H13.75V12.5H17.5V13.75ZM19.375 13.75H18.125V12.5H19.375V13.75ZM21.25 13.75H20V12.5H21.25V13.75Z"/><path fill="#EBC017" d="M27.5 15.625H12.5V18.75H27.5V15.625ZM17.5 18.125H13.75V16.875H17.5V18.125ZM19.375 18.125H18.125V16.875H19.375V18.125ZM21.25 18.125H20V16.875H21.25V18.125Z"/><path fill="#EBC017" d="M6.875 25.625H17.5887C17.7011 26.0545 17.9257 26.4464 18.2397 26.7603C18.5536 27.0743 18.9455 27.2989 19.375 27.4113V30H20.625V27.4113C21.0545 27.2989 21.4464 27.0743 21.7603 26.7603C22.0743 26.4464 22.2989 26.0545 22.4113 25.625H33.125V30H34.375V25C34.375 24.8342 34.3092 24.6753 34.1919 24.5581C34.0747 24.4408 33.9158 24.375 33.75 24.375H22.4113C22.2989 23.9455 22.0743 23.5536 21.7603 23.2397C21.4464 22.9257 21.0545 22.7011 20.625 22.5887V19.375H19.375V22.5887C18.9455 22.7011 18.5536 22.9257 18.2397 23.2397C17.9257 23.5536 17.7011 23.9455 17.5887 24.375H6.25C6.08424 24.375 5.92527 24.4408 5.80806 24.5581C5.69085 24.6753 5.625 24.8342 5.625 25V30H6.875V25.625Z"/><path fill="#EBC017" d="M10.625 31.875H5.625L4.875 30.875C4.81678 30.7974 4.74129 30.7344 4.65451 30.691C4.56772 30.6476 4.47203 30.625 4.375 30.625H1.875C1.70924 30.625 1.55027 30.6908 1.43306 30.8081C1.31585 30.9253 1.25 31.0842 1.25 31.25V38.125C1.25 38.2908 1.31585 38.4497 1.43306 38.5669C1.55027 38.6842 1.70924 38.75 1.875 38.75H10.625C10.7908 38.75 10.9497 38.6842 11.0669 38.5669C11.1842 38.4497 11.25 38.2908 11.25 38.125V32.5C11.25 32.3342 11.1842 32.1753 11.0669 32.0581C10.9497 31.9408 10.7908 31.875 10.625 31.875ZM9.375 35H8.125V33.75H9.375V35Z"/><path fill="#EBC017" d="M24.375 31.875H19.375L18.625 30.875C18.5668 30.7974 18.4913 30.7344 18.4045 30.691C18.3177 30.6476 18.222 30.625 18.125 30.625H15.625C15.4592 30.625 15.3003 30.6908 15.1831 30.8081C15.0658 30.9253 15 31.0842 15 31.25V38.125C15 38.2908 15.0658 38.4497 15.1831 38.5669C15.3003 38.6842 15.4592 38.75 15.625 38.75H24.375C24.5408 38.75 24.6997 38.6842 24.8169 38.5669C24.9342 38.4497 25 38.2908 25 38.125V32.5C25 32.3342 24.9342 32.1753 24.8169 32.0581C24.6997 31.9408 24.5408 31.875 24.375 31.875ZM23.125 35H21.875V33.75H23.125V35Z"/><path fill="#EBC017" d="M38.125 31.875H33.125L32.375 30.875C32.3168 30.7974 32.2413 30.7344 32.1545 30.691C32.0677 30.6476 31.972 30.625 31.875 30.625H29.375C29.2092 30.625 29.0503 30.6908 28.9331 30.8081C28.8158 30.9253 28.75 31.0842 28.75 31.25V38.125C28.75 38.2908 28.8158 38.4497 28.9331 38.5669C29.0503 38.6842 29.2092 38.75 29.375 38.75H38.125C38.2908 38.75 38.4497 38.6842 38.5669 38.5669C38.6842 38.4497 38.75 38.2908 38.75 38.125V32.5C38.75 32.3342 38.6842 32.1753 38.5669 32.0581C38.4497 31.9408 38.2908 31.875 38.125 31.875ZM36.875 35H35.625V33.75H36.875V35Z"/></svg>