<svg xmlns="http://www.w3.org/2000/svg" xmlns:xlink="http://www.w3.org/1999/xlink" id="Layer_1" x="0" y="0" version="1.1" viewBox="0 0 40 40" xml:space="preserve" style="enable-background:new 0 0 40 40"><style type="text/css">.st0{fill:#00b39f}</style><path d="M25,17.5H15c-0.2,0-0.3,0.1-0.4,0.2c-0.1,0.1-0.2,0.3-0.2,0.4v7.5c0,0.2,0.1,0.3,0.2,0.4	c0.1,0.1,0.3,0.2,0.4,0.2h10c0.2,0,0.3-0.1,0.4-0.2c0.1-0.1,0.2-0.3,0.2-0.4v-7.5c0-0.2-0.1-0.3-0.2-0.4	C25.3,17.6,25.2,17.5,25,17.5z M15.6,18.8h1.2V20h-1.2V18.8z M21.9,25.6h-5.6c-0.2,0-0.3-0.1-0.4-0.2c-0.1-0.1-0.2-0.3-0.2-0.4v-3.8	h1.2v3.1h5V25.6z M24.4,25.6h-1.2v-1.2h1.2V25.6z M24.4,23.1h-1.2V20h-5v-1.2h5.6c0.2,0,0.3,0.1,0.4,0.2c0.1,0.1,0.2,0.3,0.2,0.4	V23.1z" class="st0"/><path d="M28.1,27.5V16.2c0-0.3-0.1-0.6-0.4-0.9c-0.2-0.2-0.6-0.4-0.9-0.4H13.1c-0.3,0-0.6,0.1-0.9,0.4	c-0.2,0.2-0.4,0.6-0.4,0.9v11.2c0,0.3,0.1,0.6,0.4,0.9c0.2,0.2,0.6,0.4,0.9,0.4h13.8c0.3,0,0.6-0.1,0.9-0.4S28.1,27.8,28.1,27.5z M25,27.5H15c-0.5,0-1-0.2-1.3-0.5c-0.4-0.4-0.5-0.8-0.5-1.3v-7.5c0-0.5,0.2-1,0.5-1.3c0.4-0.4,0.8-0.5,1.3-0.5h10	c0.5,0,1,0.2,1.3,0.5c0.4,0.4,0.5,0.8,0.5,1.3v7.5c0,0.5-0.2,1-0.5,1.3C26,27.3,25.5,27.5,25,27.5z" class="st0"/><path d="M38.8,35.6H22.4c-0.1-0.4-0.3-0.8-0.7-1.1c-0.3-0.3-0.7-0.5-1.1-0.7v-4.5h-1.2v4.5c-0.4,0.1-0.8,0.3-1.1,0.7	c-0.3,0.3-0.5,0.7-0.7,1.1H1.2v1.2h16.3c0.1,0.5,0.4,1,0.9,1.4c0.4,0.3,1,0.5,1.5,0.5s1.1-0.2,1.5-0.5c0.4-0.3,0.7-0.8,0.9-1.4h16.3	V35.6z M20,37.5c-0.2,0-0.5-0.1-0.7-0.2c-0.2-0.1-0.4-0.3-0.5-0.6c-0.1-0.2-0.1-0.5-0.1-0.7c0-0.2,0.2-0.5,0.3-0.6	c0.2-0.2,0.4-0.3,0.6-0.3c0.2,0,0.5,0,0.7,0.1c0.2,0.1,0.4,0.3,0.6,0.5c0.1,0.2,0.2,0.4,0.2,0.7c0,0.3-0.1,0.6-0.4,0.9	C20.6,37.4,20.3,37.5,20,37.5z" class="st0"/><path d="M14.4,29.4h-1.2v2.5h1.2V29.4z" class="st0"/><path d="M16.9,29.4h-1.2v2.5h1.2V29.4z" class="st0"/><path d="M24.4,29.4h-1.2v2.5h1.2V29.4z" class="st0"/><path d="M26.9,29.4h-1.2v2.5h1.2V29.4z" class="st0"/><path d="M5.6,19.4h3.1V20h2.5v-1.2h-0.6v-1.2h0.6v-1.2h-0.6c0-0.7,0.3-1.3,0.7-1.8c0.5-0.5,1.1-0.7,1.8-0.7v-1.9h1.2	v1.9h1.2v-1.9h1.2v1.9h1.2v-1.9h1.2v1.9h1.2v-1.9h1.2v1.9h1.2v-1.9h1.2v1.9h1.2v-1.9h1.2v1.9c0.7,0,1.3,0.3,1.8,0.7	c0.5,0.5,0.7,1.1,0.7,1.8h-0.6v1.2h0.6v1.2h-0.6V20h2.5v-0.6c1.7,0,3.2-0.7,4.4-1.8s1.8-2.8,1.8-4.4s-0.7-3.2-1.8-4.4	s-2.8-1.8-4.4-1.8h-0.4c-0.1,0-0.3,0-0.4-0.1c-0.1-0.1-0.2-0.2-0.2-0.3c-0.4-1.1-1.1-2.1-2.1-2.8C27.3,3,26.1,2.6,25,2.5	c-1.2-0.1-2.3,0.2-3.4,0.9c-1,0.6-1.8,1.5-2.3,2.6c0,0.1-0.1,0.2-0.2,0.2c-0.1,0.1-0.2,0.1-0.3,0.1c-0.1,0-0.2,0-0.3,0	c-0.1,0-0.2-0.1-0.3-0.2c-0.8-0.8-1.9-1.4-3-1.6c-1.2-0.2-2.4-0.1-3.4,0.3C10.7,5.3,9.8,6,9.1,7c-0.7,1-1,2.1-1,3.3v2.2	c0,0.2-0.1,0.3-0.2,0.4c-0.1,0.1-0.3,0.2-0.4,0.2H5.6c-0.8,0-1.6,0.3-2.2,0.9c-0.6,0.6-0.9,1.4-0.9,2.2s0.3,1.6,0.9,2.2	C4,19,4.8,19.4,5.6,19.4z M35,15h-1.2v-1.2H35V15z M31.2,8.8c1,0,1.9,0.4,2.7,1.1c0.7,0.7,1.1,1.7,1.1,2.7h-1.2	c0-0.7-0.3-1.3-0.7-1.8c-0.5-0.5-1.1-0.7-1.8-0.7V8.8z" class="st0"/><path d="M31.2,21.2h-2.5v1.2h2.5V21.2z" class="st0"/><path d="M31.2,23.8h-2.5V25h2.5V23.8z" class="st0"/><path d="M31.2,26.2h-2.5v1.2h2.5V26.2z" class="st0"/><path d="M11.2,21.2H8.8v1.2h2.5V21.2z" class="st0"/><path d="M11.2,23.8H8.8V25h2.5V23.8z" class="st0"/><path d="M11.2,26.2H8.8v1.2h2.5V26.2z" class="st0"/></svg>