<svg xmlns="http://www.w3.org/2000/svg" xmlns:xlink="http://www.w3.org/1999/xlink" id="Layer_1" x="0" y="0" version="1.1" viewBox="0 0 507.8 376.2" xml:space="preserve" style="enable-background:new 0 0 507.8 376.2"><style type="text/css">.st0{fill:none}.st1{fill:#fefefe}.st2{opacity:.8}.st2,.st3{fill:#00b39f}</style><g><path d="M215,209.2c22.1,22.1,44.3,44.3,66.4,66.4l49.4-49.4l47.1,47.1v-69.2c-55.5,0-111.1,0-166.6,0 C211.4,206.6,213.5,207.7,215,209.2z" class="st0"/><path d="M279.8,105.1c-22.1,22.1-44.2,44.1-66.2,66.2c-1.1,1.1-2.3,2-2.2,3.7c55.5,0,111.1,0,166.6,0V109l-47.1,47.1 L279.8,105.1z" class="st0"/><polygon points="211.3 175.1 211.3 175.1 211.3 175.1" class="st1"/><path d="M215,209.2c-1.5-1.5-3.6-2.6-3.7-5.1c55.5,0,111.1,0,166.6,0v-29c-55.5,0-111.1,0-166.6,0c0,0,0,0,0,0v0h0 c0-1.7,1.2-2.7,2.2-3.7c22.1-22.1,44.2-44.1,66.2-66.2l-21-21c-29.1,29.1-58.2,58.2-87.3,87.4c-2.6,2.6-5.1,3.6-8.7,3.6 c-21.5-0.2-43-0.2-64.5,0c-3.7,0-5.5-1.4-6.6-4.5c-3-8.3-8.8-14.4-15.5-19.7c-15.5-12.3-42-12.3-58.2,1.5 C3.6,164.9-2.1,180.1,0.7,198.2c3.5,22.7,27.1,42.8,53,39c17.8-2.6,30.1-12.2,37.8-27.9c1.6-3.3,3.2-4.3,6.7-4.3 c21.5,0.1,43,0.2,64.5,0c4.3,0,7.4,1.2,10.5,4.3c29,29.2,58.1,58.3,87.2,87.4l21-21C259.2,253.5,237.1,231.4,215,209.2z" class="st2"/><path d="M451.3,204.1C451.3,204.1,451.3,204.1,451.3,204.1C451.3,204.1,451.3,204.1,451.3,204.1c0,2.3-1.9,3.4-3.3,4.8 c-10.7,10.7-21.4,21.4-32.1,32.2c-1.6,1.6-3.1,3.5-4.4,5.4c-4.1,6.1-2.8,14.3,3,19.3c5.4,4.7,14,4.6,19.1-0.5 c24.2-24.1,48.3-48.3,72.5-72.4c1.9-1.9,2.3-3.1,0.2-5.3c-23.7-23.6-47.3-47.4-71.2-70.9c-3.9-3.8-8.8-6.7-14.8-4.7 c-12.2,3.9-15.2,16.4-6.2,25.5c10.9,11,21.9,21.9,32.8,32.9c1.4,1.4,3.3,2.5,3.3,4.8c0,0,0,0,0,0l0,0c0,0,0,0,0,0 c-24.1,0-48.3,0-72.4,0v29C402.4,204.1,426.9,204.1,451.3,204.1z" class="st3"/><polygon points="450.3 175.1 450.3 175.1 450.3 175.1" class="st1"/><path d="M327.4,57.6c0.9-0.9,1.6-2.6,3.2-1.8c1.4,0.7,0.7,2.4,0.7,3.7c0,14.7,0,29.3,0,44c0,9.2,6.9,16.7,15,16.7 c8.2,0,15-7.5,15-16.7c0-32.7-0.1-65.3,0.1-98c0-4.1-1.1-5.4-5.3-5.4c-33.3,0.2-66.7,0.1-100,0.1c-8.8,0-14.9,6.2-14.8,15.2 c0,7.9,6.4,13.8,15,13.8c19,0,38,0,57,0c0,0.3,0,0.7,0,1c-1.5,1.3-3,2.6-4.4,4c-16.7,16.7-33.4,33.4-50.1,50.1l21,21 C295.7,89.3,311.5,73.4,327.4,57.6z" class="st3"/><path d="M309.3,345.1c0,0.3,0,0.7,0,1c-15.6,0-31.3,0-46.9,0c-2.8,0-5.6,0.2-8.4,0.8c-9.2,2-13.4,7.2-12.7,16.5 c0.5,7.2,7.1,12.7,15.3,12.7c33.3,0,66.6,0,99.9,0.1c3.7,0,4.9-1,4.8-4.8c-0.1-33.1,0-66.3-0.1-99.4c0-9-6.7-15.9-15-15.9 c-8.2,0-14.9,7.2-14.9,16.1c0,17.6,0,35.3,0,52.9c-0.3,0-0.7,0-1,0c-1.3-1.5-2.6-3-4-4.4c-15-15-30-30-45-45l-21,21 c14.8,14.8,29.7,29.7,44.5,44.5C306.3,342.5,307.8,343.8,309.3,345.1z" class="st3"/></g></svg>