<svg id="Layer_1" data-name="Layer 1" xmlns="http://www.w3.org/2000/svg" viewBox="0 0 332.94 168.05"><title>nighthawk 8 copy</title><polygon points="264.22 115.05 263.94 115.26 264.61 115.36 264.22 115.05" style="fill:none"/><polygon points="69.57 115.19 69.87 115.15 69.75 115.05 69.57 115.19" style="fill:none"/><polygon points="332.94 126.5 332.13 125.88 332.94 131.87 332.94 126.5" style="fill:#00d3a9"/><polygon points="0 126.5 0 131.87 0.82 125.88 0 126.5" style="fill:#00d3a9"/><polygon points="332.94 167.28 332.94 131.87 332.13 125.88 330.01 124.28 264.61 115.36 332.94 167.28" style="fill:#00d3a9"/><polygon points="124.78 96.28 111.61 109.45 166.47 101.97 124.78 96.28" style="fill:#00b39f"/><polygon points="208.17 96.28 166.47 101.97 221.34 109.45 208.17 96.28" style="fill:#00b39f"/><polygon points="69.57 115.19 2.93 124.28 0.82 125.88 0 131.87 0 168.05 69.57 115.19" style="fill:#00d3a9"/><polygon points="166.47 101.97 111.61 109.45 90.35 130.71 115.56 149.87 134.57 135.42 166.98 160.05 199.39 135.42 218.41 149.87 243.04 131.15 221.34 109.45 166.47 101.97" style="fill:#00b39f"/><polyline points="264.61 115.36 332.94 126.5 166.47 0 0 126.5 69.87 115.15 69.75 115.05 69.87 115.15 111.61 109.45 124.78 96.28 166.47 101.97 208.17 96.28 221.34 109.45 263.94 115.26" style="fill:#00b39f"/></svg>