<?xml version="1.0" encoding="UTF-8"?>
<svg id="Layer_2" data-name="Layer 2" xmlns="http://www.w3.org/2000/svg" xmlns:xlink="http://www.w3.org/1999/xlink" viewBox="0 0 557.47 713.56">
  <defs>
    <style>
      .cls-1 {
        fill: none;
      }

      .cls-2 {
        fill: #00b39f;
      }

      .cls-3 {
        stroke: #fff;
        stroke-width: 9.56px;
      }

      .cls-3, .cls-4 {
        fill: #252e31;
      }

      .cls-5 {
        fill: url(#linear-gradient);
      }

      .cls-6 {
        fill: #00d3a9;
      }

      .cls-7 {
        clip-path: url(#clippath-1);
      }

      .cls-8, .cls-9 {
        fill: #fff;
      }

      .cls-9 {
        font-family: QanelasSoft-SemiBold, 'Qanelas Soft';
        font-size: 60px;
        font-weight: 600;
      }

      .cls-10 {
        fill: #a20e30;
      }

      .cls-11 {
        letter-spacing: -.02em;
      }

      .cls-12 {
        fill: #1a1a1a;
      }

      .cls-13 {
        clip-path: url(#clippath);
      }
    </style>
    <clipPath id="clippath">
      <rect class="cls-1" width="557.47" height="713.56"/>
    </clipPath>
    <linearGradient id="linear-gradient" x1="277.89" y1="-2116.67" x2="277.89" y2="-2830.22" gradientTransform="translate(0 -2116.67) scale(1 -1)" gradientUnits="userSpaceOnUse">
      <stop offset="0" stop-color="#000"/>
      <stop offset="1" stop-color="#00b39f"/>
    </linearGradient>
    <clipPath id="clippath-1">
      <rect class="cls-1" x="191.69" y="81.13" width="174.38" height="151.78"/>
    </clipPath>
  </defs>
  <g id="Layer_1-2" data-name="Layer 1">
    <g id="Meshery_Operator" data-name="Meshery Operator">
      <g class="cls-13">
        <g>
          <path class="cls-12" d="M461.95,538.78v16.86l32.66-16.86h-32.66Z"/>
          <path class="cls-12" d="M95.51,555.63v-16.86h-32.66l32.66,16.86Z"/>
          <path class="cls-4" d="M557.47,478.35H0l30.56,38.64L0,555.62h95.51l-32.66-16.86h32.66v-19.01h366.44v19.01h32.66l-32.66,16.86h95.51l-30.56-38.64,30.56-38.64Z"/>
          <path class="cls-5" d="M498.99,210.99l-24.94,342.73-189.33,157.36c-3.92,3.3-9.75,3.3-13.67,0l-189.29-157.36-24.98-342.73c-1.69-22.44,16.06-41.57,38.57-41.57h26.1c-.33-4.09-.49-8.22-.49-12.4C120.95,70.29,191.23,0,277.87,0s156.92,70.29,156.92,157.03c0,4.17-.17,8.31-.49,12.4h26.14c22.51,0,40.26,19.13,38.57,41.57Z"/>
          <path class="cls-3" d="M278.88,281.63c68.78,0,124.53-55.79,124.53-124.61s-55.75-124.61-124.53-124.61-124.53,55.79-124.53,124.61,55.75,124.61,124.53,124.61Z"/>
          <path class="cls-10" d="M95.51,519.74v19.01h366.44v-19.01H95.51Z"/>
          <path class="cls-12" d="M494.61,539.17H62.85v-77.27h431.77v77.27Z"/>
          <path class="cls-8" d="M159.98,482.28h-8.04v38.68h38.1v-7.73h-30.06v-30.95Z"/>
          <path class="cls-8" d="M210.15,482.28l-16.07,38.68h9.17l10.93-27.07,7.79,19.34h-13.36l-3,7.73h28.66l-16.08-38.68h-8.03Z"/>
          <path class="cls-8" d="M245.61,495.82l-10.05-13.54h-10.05l16.07,23.21v15.47h8.04v-15.47l16.07-23.21h-9.92l-10.17,13.54Z"/>
          <path class="cls-8" d="M269.17,488.37v32.59h38.1v-7.73h-30.06v-7.74h23.09v-7.74h-23.09v-7.73h30.06v-7.74h-38.1v6.09Z"/>
          <path class="cls-8" d="M320.31,489.66h20.62v8.05h-18.39l.08,7.38h5.51l14.57,15.89h9.92l-14.57-15.89h5.71c.82,0,1.63-.15,2.39-.46s1.45-.74,2.03-1.3c.58-.56,1.04-1.22,1.35-1.95.31-.73.47-1.51.47-2.3v-10.79c0-1.59-.66-3.12-1.83-4.25-1.17-1.13-2.76-1.76-4.42-1.76h-31.28v38.68h8.04l-.21-31.3Z"/>
          <path class="cls-2" d="M397.71,482.46h-15.83v7.34h15.83v-7.34Z"/>
          <path class="cls-2" d="M399.15,507.18v-3.04c0-3.5-3.06-6.34-6.86-6.34h-25.51v-2h-9.35v8.66h32.37v2.71h9.35Z"/>
          <path class="cls-6" d="M366.78,493.4v-3.6h12.52v-7.34h-21.87v10.94h9.35Z"/>
          <path class="cls-6" d="M389.8,509.53v4.27h-12.52v7.34h15.43c1.68.03,3.29-.59,4.49-1.71,1.21-1.12,1.9-2.65,1.93-4.27v-5.63h-9.33Z"/>
          <path class="cls-2" d="M366.04,509.93v3.87h8.66v7.34h-11.14c-1.68.03-3.29-.59-4.5-1.71-1.2-1.12-1.9-2.66-1.93-4.27v-5.23h8.9Z"/>
          <text class="cls-9" transform="translate(141.12 372.96)"><tspan x="0" y="0">MeshMa</tspan><tspan class="cls-11" x="222" y="0">t</tspan><tspan x="240.78" y="0">e</tspan></text>
          <g class="cls-7">
            <g>
              <path class="cls-2" d="M243.63,230.66c-4.53.94-7.55-1.53-9.9-5.64-3.8-6.7-7.65-13.36-11.76-19.87-1.07-1.44-1.68-3.18-1.73-4.98-.05-1.8.44-3.57,1.43-5.07,7.43-12.93,14.63-25.96,21.94-38.95,2.51-4.41,4.08-4.47,6.9-.31,3.61,5.37,3.29,10.6,0,16.09-4.69,7.68-8.96,15.6-13.57,23.34-.97,1.42-1.46,3.12-1.41,4.84s.64,3.38,1.69,4.74c3.84,6.13,7.45,12.25,11.08,18.56,3.82,6.64,3.59,7-4.67,7.23Z"/>
              <path class="cls-2" d="M321.54,186.08h-22.14c-4.94,0-5.78-1.49-3.53-5.98,2.82-5.66,7.53-7.78,13.69-7.66,8.69.2,17.39,0,26.06.22,2.12.21,4.25-.27,6.07-1.37,1.82-1.11,3.23-2.77,4.01-4.75,3.31-6.6,7.16-12.89,10.88-19.28,2.45-4.08,3.82-4.08,6.57-.16,3.61,5.13,4.08,9.8.21,15.28-3.74,5.39-7.01,11.09-9.78,17.03-2.43,5.09-6.12,6.78-11.39,6.64-6.88-.18-13.77,0-20.65,0v.04Z"/>
              <path class="cls-6" d="M341.32,110.27c-.64,1.8-1.38,3.56-2.22,5.27-7.35,12.77-14.72,25.51-22.12,38.23-2.65,4.57-4.24,4.51-7.14,0-1.54-2.25-2.35-4.92-2.31-7.64.04-2.73.92-5.37,2.53-7.57,4.8-7.78,9.31-15.77,14.1-23.57,1.01-1.39,1.55-3.07,1.55-4.79s-.54-3.4-1.55-4.79c-4.08-6.68-7.98-13.52-11.84-20.42-2.45-4.31-1.78-5.17,3.06-5.8,6.12-.8,10.2,1.35,13,7.05,3.1,6.29,6.98,12.25,10.45,18.38.94,1.82,1.65,3.8,2.49,5.66Z"/>
              <path class="cls-2" d="M229.81,92.81c1.49-9.82,4.9-12.89,13.49-13.07,7.04-.14,14.08-.29,21.12-.57,2.05-.24,4.12.16,5.94,1.12,1.82.97,3.31,2.46,4.26,4.29,7.35,12.72,15.02,25.26,22.65,37.9.6,1.11,1.14,2.26,1.61,3.43-5.55,4.57-13.24,2.96-17.63-3.78-2.75-4.23-5.02-8.8-7.59-13.19q-9.59-16.48-28.8-16.15c-4.98.08-9.98.02-15.06.02Z"/>
              <path class="cls-6" d="M306.13,230.35c-21.41.2-16.18,2.18-26.53-14.93-5.69-9.37-11.16-18.91-16.63-28.41-2.39-4.08-1.61-5.41,3.1-5.9,6.86-.71,11.04,2.84,14.14,8.45,4.29,7.74,8.82,15.34,13.08,23.08.73,1.55,1.94,2.84,3.45,3.67s3.24,1.16,4.94.95c8.02-.25,16.04-.25,24.06-.14,4.35,0,4.67,1.16,3.14,5.13-2.43,6.33-6.92,8.62-13.39,8.17-3.14-.2-6.27-.06-9.37-.06Z"/>
              <path class="cls-6" d="M198.79,168.94c-7.86-6.13-8.86-10.76-4.65-18.38,3.41-6.27,6.84-12.52,10.2-18.85.83-1.9,2.21-3.5,3.96-4.6,1.76-1.09,3.8-1.63,5.87-1.53,14.9-.14,29.82-.59,44.71-.9,1.31,0,2.59.2,3.84.31,1.2,7.19-4.08,13.15-12.24,13.6-5.1.29-10.2,0-15.39,0q-19.31.12-28.69,17.15c-2.47,4.41-5.04,8.76-7.61,13.19Z"/>
            </g>
          </g>
        </g>
      </g>
    </g>
  </g>
</svg>