<svg id="Layer_1" data-name="Layer 1" xmlns="http://www.w3.org/2000/svg" viewBox="0 0 390 360.12">
    <title>meshmate-stack</title>
    <defs>
        <style>
            .colorMode1 {
                fill: #FFFFFF
            }
        </style>
    </defs>
    <path
        d="M148,246.05c-6,1.25-10-2-13.16-7.5-5.06-8.89-10.2-17.75-15.65-26.41-2.89-4.58-3.13-8.61-.4-13.36,9.87-17.19,19.46-34.53,29.2-51.79,3.32-5.88,5.44-6,9.17-.41,4.8,7.13,4.39,14.09-.08,21.38-6.25,10.21-11.92,20.77-18.07,31-2.7,4.51-2.34,8.41.39,12.75,5.11,8.11,9.9,16.41,14.75,24.68C159.33,245.27,159,245.75,148,246.05Z"
        style="fill:#00b39f" />
    <path
        d="M251.72,186.77c-9.82,0-19.65.06-29.47,0-6.58-.06-7.68-2-4.69-8,3.76-7.51,10-10.34,18.22-10.16,11.56.25,23.14-.06,34.69.29,6.51.2,10.47-2.31,13.41-8.16,4.41-8.75,9.55-17.14,14.49-25.62,3.26-5.59,5.07-5.44,8.74-.23,4.8,6.82,5.48,13,.29,20.31a152.88,152.88,0,0,0-13,22.67c-3.23,6.74-8.14,9-15.15,8.81-9.16-.23-18.34-.06-27.5-.06Z"
        style="fill:#00b39f" />
    <path
        d="M278.06,86a64.44,64.44,0,0,1-3,7q-14.64,25.47-29.43,50.85c-3.55,6.08-5.67,6-9.52,0-4.35-6.8-4-13.39.24-20.2,6.4-10.37,12.41-21,18.78-31.35,2.7-4.4,2.72-8.28,0-12.73-5.47-8.89-10.62-18-15.77-27.08-3.25-5.74-2.36-6.88,4.08-7.71,8.21-1.07,13.57,1.79,17.31,9.37,4.12,8.37,9.3,16.23,13.89,24.37C276,80.85,276.94,83.48,278.06,86Z"
        style="fill:#00d3a9" />
    <path
        d="M129.62,62.74c2-13.07,6.52-17.14,18-17.38,9.36-.19,18.73-.39,28.09-.75,6-.23,10.27,1.76,13.46,7.2,9.9,16.9,20.18,33.59,30.28,50.38a45.78,45.78,0,0,1,2.15,4.56c-7.39,6.09-17.64,4-23.48-5C194.43,96.11,191.41,90,188,84.2c-12.77-21.91-12.78-21.88-38.34-21.48C143,62.83,136.4,62.74,129.62,62.74Z"
        style="fill:#00b39f" />
    <path
        d="M231.22,245.64c-28.5.26-21.54,2.91-35.38-19.86C188.27,213.31,181,200.65,173.71,188c-3.17-5.48-2.13-7.2,4.13-7.85,9.14-1,14.69,3.76,18.84,11.24,5.69,10.28,11.72,20.38,17.4,30.68,2.51,4.56,6,6.3,11.17,6.14,10.67-.33,21.35-.32,32-.19,5.77.07,6.2,1.54,4.18,6.82-3.23,8.43-9.21,11.46-17.83,10.82C239.52,245.38,235.36,245.63,231.22,245.64Z"
        style="fill:#00d3a9" />
    <path
        d="M88.34,164c-10.47-8.34-11.78-14.36-6.21-24.54,4.56-8.32,9.1-16.64,13.51-25,2.8-5.36,6.72-8.14,13.1-8.19,19.84-.17,39.68-.79,59.53-1.19a46.82,46.82,0,0,1,5.09.4c1.62,9.56-5.42,17.49-16.23,18.1-6.81.38-13.66,0-20.5,0-25.69.16-25.67.19-38.19,22.83C95.18,152.3,91.76,158.09,88.34,164Z"
        style="fill:#00d3a9" />
    <polygon
        points="69.16 283.6 69.16 285.22 69.16 292.82 69.16 302.09 69.16 315.63 105.2 315.63 105.2 308.02 76.76 308.02 76.76 302.09 76.76 300.42 98.61 300.42 98.61 292.82 76.76 292.82 76.76 285.22 105.2 285.22 105.2 277.62 69.16 277.62 69.16 283.6"
        class="colorMode1" />
    <path
        d="M155.1,305.69a9.54,9.54,0,0,1-.79,3.85,9.72,9.72,0,0,1-2.15,3.17,10.4,10.4,0,0,1-3.17,2.13,9.79,9.79,0,0,1-3.88.79H109.52v-8h35.59a1.89,1.89,0,0,0,1.37-.56,1.86,1.86,0,0,0,.55-1.37V302.6a1.88,1.88,0,0,0-1.92-1.92h-25.6a9.62,9.62,0,0,1-3.86-.79,10,10,0,0,1-5.34-5.35,9.41,9.41,0,0,1-.79-3.85V287.6a9.62,9.62,0,0,1,.79-3.88,10.28,10.28,0,0,1,2.15-3.17,10.14,10.14,0,0,1,3.19-2.15,9.61,9.61,0,0,1,3.86-.78H155.1v8.05H119.51a1.91,1.91,0,0,0-1.93,1.93v3.09a1.91,1.91,0,0,0,1.93,1.93h25.6a9.78,9.78,0,0,1,3.88.78,10.31,10.31,0,0,1,3.17,2.16,10.12,10.12,0,0,1,2.15,3.16,9.79,9.79,0,0,1,.79,3.88Z"
        class="colorMode1" />
    <path d="M203.05,315.63H195.8V300.68H167.53v14.95h-7.25v-23H195.8v-15h7.25Zm-35.52-26.58h-7.25V277.61h7.25Z"
        class="colorMode1" />
    <path
        d="M63.31,315.63H55.25V287.9a2.11,2.11,0,0,0-.18-.86,2.34,2.34,0,0,0-.48-.71,2.47,2.47,0,0,0-.71-.48,2.11,2.11,0,0,0-.86-.18H15.75v-8.06H53a9.81,9.81,0,0,1,4,.82,10.73,10.73,0,0,1,3.29,2.2,10.94,10.94,0,0,1,2.21,3.29,9.94,9.94,0,0,1,.81,4Zm-39.5,0H15.75v-30h8.06Zm19.73,0H35.47V289.89h8.07Z"
        class="colorMode1" />
    <path
        d="M256.11,315.63h-8.06V287.9a2.11,2.11,0,0,0-.18-.86,2.26,2.26,0,0,0-1.19-1.19,2.11,2.11,0,0,0-.86-.18H208.56v-8.06h37.26a9.78,9.78,0,0,1,4,.82,10.61,10.61,0,0,1,3.29,2.2,10.76,10.76,0,0,1,2.21,3.29,9.94,9.94,0,0,1,.81,4Zm-39.49,0h-8.06v-30h8.06Zm19.72,0h-8.06V289.89h8.06Z"
        class="colorMode1" />
    <polygon
        points="276.16 277.62 260.95 315.63 269.62 315.63 279.96 289.02 287.33 308.02 274.69 308.02 271.85 315.63 298.97 315.63 283.76 277.62 276.16 277.62"
        class="colorMode1" />
    <polygon
        points="338.2 283.6 338.2 285.22 338.2 292.82 338.2 302.09 338.2 315.63 374.25 315.63 374.25 308.02 345.81 308.02 345.81 302.09 345.81 300.42 367.65 300.42 367.65 292.82 345.81 292.82 345.81 285.22 374.25 285.22 374.25 277.62 338.2 277.62 338.2 283.6"
        class="colorMode1" />
    <path d="M319.87,277.61h15v8.06h-38v-8.06h23" class="colorMode1" />
    <rect x="311.83" y="289.05" width="8.06" height="26.58" class="colorMode1" />
</svg>