<svg id="Layer_1" data-name="Layer 1" xmlns="http://www.w3.org/2000/svg" viewBox="0 0 370 300"><title>getnighthawk-full</title><polygon points="276.2 233 266.06 258.33 271.84 258.33 278.73 240.6 283.64 253.26 275.66 253.26 273.77 258.33 291.4 258.33 281.27 233 276.2 233" style="fill:#3c494f"/><path d="M84.4,233h10v5.37H69.06V233H84.4" style="fill:#3c494f"/><rect x="79.04" y="240.62" width="5.37" height="17.71" style="fill:#3c494f"/><polygon points="42.66 236.99 42.66 238.07 42.66 243.13 42.66 249.31 42.66 258.33 66.68 258.33 66.68 253.26 47.73 253.26 47.73 249.31 47.73 248.2 62.28 248.2 62.28 243.13 47.73 243.13 47.73 238.07 66.68 238.07 66.68 233 42.66 233 42.66 236.99" style="fill:#3c494f"/><rect x="132.17" y="233" width="5.57" height="25.33" style="fill:#3c494f"/><path d="M200.69,258.33h-4.82v-10H179.21v10h-4.82V243h21.48V233h4.82Zm-21.48-17.71h-4.82V233h4.82Z" style="fill:#3c494f"/><path d="M39.27,233v4.29H20.66a1.91,1.91,0,0,0-.58.1,1.62,1.62,0,0,0-.47.25,1.27,1.27,0,0,0-.32.38,1,1,0,0,0-.12.46v19.85h0a5.41,5.41,0,0,1-5.41-5.41V238.73a5,5,0,0,1,2-4.12A7.54,7.54,0,0,1,18,233.43a8.12,8.12,0,0,1,2.67-.43Z" style="fill:#3c494f"/><rect x="27.56" y="243.53" width="11.71" height="4.29" style="fill:#3c494f"/><rect x="34.98" y="243.53" width="4.29" height="8.56" style="fill:#3c494f"/><path d="M39.27,254v2.17a2.12,2.12,0,0,1-2.12,2.13h-18V254Z" style="fill:#3c494f"/><path d="M220.39,233h10v5.37H205.05V233h15.34" style="fill:#3c494f"/><rect x="215.03" y="240.62" width="5.37" height="17.71" style="fill:#3c494f"/><path d="M261.9,258.33h-4.82v-10H240.42v10H235.6V243h21.48V233h4.82Zm-21.48-17.71H235.6V233h4.82Z" style="fill:#3c494f"/><path d="M128.34,258.33H123V239.86a1.4,1.4,0,0,0-.12-.58,1.5,1.5,0,0,0-.8-.79,1.39,1.39,0,0,0-.57-.12H96.66V233h24.82a6.61,6.61,0,0,1,2.65.54,7.19,7.19,0,0,1,2.2,1.47,7.33,7.33,0,0,1,1.47,2.19,6.66,6.66,0,0,1,.54,2.66Zm-23.73,0H99.24V241.18h5.37Z" style="fill:#3c494f"/><polygon points="295.5 233 290.79 233 296.28 258.33 300.94 258.33 295.5 233" style="fill:#3c494e"/><polygon points="301.94 255.86 306.62 242.62 309.52 258.33 314.77 258.33 319.07 233.03 314.4 233.03 312.07 246.73 309.55 233.08 305.16 233.08 300.13 247.53 301.94 255.86" style="fill:#3c494e"/><polyline points="348.18 233 341.06 233 327.61 244.29 327.61 233.01 322.61 233.01 322.61 258.33 327.61 258.33 327.61 251.02" style="fill:#3c494e"/><polygon points="336.81 245.24 348.46 258.33 341.27 258.33 332.69 248.71 336.81 245.24" style="fill:#3c494e"/><path d="M168.62,233v4.29H150a1.83,1.83,0,0,0-1.06.35,1.44,1.44,0,0,0-.32.38,1,1,0,0,0-.12.46v19.85h0a5.41,5.41,0,0,1-5.41-5.41V238.73a5.93,5.93,0,0,1,.59-2.45,5.85,5.85,0,0,1,1.44-1.67,7.41,7.41,0,0,1,2.21-1.18A8.12,8.12,0,0,1,150,233Z" style="fill:#3c494f"/><rect x="156.91" y="243.53" width="11.71" height="4.29" style="fill:#3c494f"/><rect x="164.33" y="243.53" width="4.29" height="8.56" style="fill:#3c494f"/><path d="M168.62,254v2.17a2.12,2.12,0,0,1-2.12,2.13h-18V254Z" style="fill:#3c494f"/><polygon points="195.44 113.04 183.66 114.65 172.84 113.17 167.46 112.44 163.21 143.59 154.26 209.19 183.66 170.5 213.06 209.19 204.11 143.59 199.86 112.44 195.44 113.04" style="fill:#00d3a9"/><path d="M346.35,138.14h0L199.24,26.34a154,154,0,0,0-15.49-13.76l-.09-.08h0l-.09.08a154.58,154.58,0,0,0-15.51,13.78l-145,110.19,65.39-8.92,0,0,.36-.06-.12-.09.12.09h0l20.27-2.77L129.77,122l9.68-9.68,23.76,31.27,4.25-31.15,5.38.73,10.82,1.48L195.44,113l4.42-.6,4.25,31.15,23.76-31.27,9.68,9.68,21.16,2.89,20.68,2.82.66.09h0l64.2,8.76ZM203.56,111.49l.09.43Z" style="fill:#00b39f"/><line x1="88.78" y1="127.59" x2="88.66" y2="127.5" style="fill:none;stroke:#00b39f;stroke-linecap:round;stroke-linejoin:round;stroke-width:0px"/><path d="M229.79,146.41l.51.31-.21-.41Z" style="fill:#00b39f"/><path d="M139,145.19h0a.75.75,0,0,0-.07.18l0,0,.1-.08.06,0H139Z" style="fill:#00b39f"/><path d="M139,145.19h.05" style="fill:none;stroke:#00b39f;stroke-linecap:round;stroke-linejoin:round;stroke-width:0px"/><path d="M203.65,111.92l-.09-.43" style="fill:none;stroke:#00b39f;stroke-linecap:round;stroke-linejoin:round;stroke-width:0px"/><polygon points="346.35 138.14 346.35 138.14 344.27 136.56 280.07 127.8 280.05 127.8 347.15 178.79 347.15 144.02 346.35 138.14" style="fill:#00d3a9"/><polygon points="23.05 136.55 22.99 136.56 20.91 138.14 20.11 144.02 20.11 179.55 88.42 127.65 88.44 127.63 23.05 136.55" style="fill:#00d3a9"/></svg>