<svg id="Layer_1" data-name="Layer 1" xmlns="http://www.w3.org/2000/svg" viewBox="0 0 370 300"><title>getnighthawk-full_light</title><polygon points="276.2 233 266.06 258.33 271.84 258.33 278.73 240.6 283.64 253.26 275.66 253.26 273.77 258.33 291.4 258.33 281.27 233 276.2 233" style="fill:#fff"/><path d="M84.4,233h10v5.37H69.06V233H84.4" style="fill:#fff"/><rect x="79.04" y="240.62" width="5.37" height="17.71" style="fill:#fff"/><polygon points="42.66 236.99 42.66 238.07 42.66 243.13 42.66 249.31 42.66 258.33 66.68 258.33 66.68 253.26 47.73 253.26 47.73 249.31 47.73 248.2 62.28 248.2 62.28 243.13 47.73 243.13 47.73 238.07 66.68 238.07 66.68 233 42.66 233 42.66 236.99" style="fill:#fff"/><rect x="132.17" y="233" width="5.57" height="25.33" style="fill:#fff"/><path d="M200.69,258.33h-4.82v-10H179.21v10h-4.82V243h21.48V233h4.82Zm-21.48-17.71h-4.82V233h4.82Z" style="fill:#fff"/><path d="M39.27,233v4.29H20.66a1.91,1.91,0,0,0-.58.1,1.62,1.62,0,0,0-.47.25,1.27,1.27,0,0,0-.32.38,1,1,0,0,0-.12.46v19.85h0a5.41,5.41,0,0,1-5.41-5.41V238.73a5,5,0,0,1,2-4.12A7.54,7.54,0,0,1,18,233.43a8.12,8.12,0,0,1,2.67-.43Z" style="fill:#fff"/><rect x="27.56" y="243.53" width="11.71" height="4.29" style="fill:#fff"/><rect x="34.98" y="243.53" width="4.29" height="8.56" style="fill:#fff"/><path d="M39.27,254v2.17a2.12,2.12,0,0,1-2.12,2.13h-18V254Z" style="fill:#fff"/><path d="M220.39,233h10v5.37H205.05V233h15.34" style="fill:#fff"/><rect x="215.03" y="240.62" width="5.37" height="17.71" style="fill:#fff"/><path d="M261.9,258.33h-4.82v-10H240.42v10H235.6V243h21.48V233h4.82Zm-21.48-17.71H235.6V233h4.82Z" style="fill:#fff"/><path d="M128.34,258.33H123V239.86a1.4,1.4,0,0,0-.12-.58,1.5,1.5,0,0,0-.8-.79,1.39,1.39,0,0,0-.57-.12H96.66V233h24.82a6.61,6.61,0,0,1,2.65.54,7.19,7.19,0,0,1,2.2,1.47,7.33,7.33,0,0,1,1.47,2.19,6.66,6.66,0,0,1,.54,2.66Zm-23.73,0H99.24V241.18h5.37Z" style="fill:#fff"/><polygon points="295.5 233 290.79 233 296.28 258.33 300.94 258.33 295.5 233" style="fill:#fff"/><polygon points="301.94 255.86 306.62 242.62 309.52 258.33 314.77 258.33 319.07 233.03 314.4 233.03 312.07 246.73 309.55 233.08 305.16 233.08 300.13 247.53 301.94 255.86" style="fill:#fff"/><polyline points="348.14 232.97 341.03 232.99 327.61 244.31 327.58 233.03 322.58 233.05 322.64 258.36 327.64 258.35 327.63 251.04" style="fill:#fff"/><polygon points="336.81 245.23 348.49 258.29 341.31 258.31 332.69 248.71 336.81 245.23" style="fill:#fff"/><path d="M168.62,233v4.29H150a1.83,1.83,0,0,0-1.06.35,1.44,1.44,0,0,0-.32.38,1,1,0,0,0-.12.46v19.85h0a5.41,5.41,0,0,1-5.41-5.41V238.73a5.93,5.93,0,0,1,.59-2.45,5.85,5.85,0,0,1,1.44-1.67,7.41,7.41,0,0,1,2.21-1.18A8.12,8.12,0,0,1,150,233Z" style="fill:#fff"/><rect x="156.91" y="243.53" width="11.71" height="4.29" style="fill:#fff"/><rect x="164.33" y="243.53" width="4.29" height="8.56" style="fill:#fff"/><path d="M168.62,254v2.17a2.12,2.12,0,0,1-2.12,2.13h-18V254Z" style="fill:#fff"/><polygon points="196.8 113.04 185.03 114.65 174.2 113.17 168.83 112.44 164.58 143.59 155.63 209.19 185.03 170.5 214.43 209.19 205.48 143.59 201.23 112.44 196.8 113.04" style="fill:#00d3a9"/><path d="M347.72,138.14h0L200.6,26.34a152.82,152.82,0,0,0-15.48-13.76L185,12.5h0a.39.39,0,0,1-.1.08,155.57,155.57,0,0,0-15.5,13.78l-145,110.19,65.39-8.92,0,0,.37-.06L90,127.5l.12.09h0l20.27-2.77L131.14,122l9.67-9.68,23.77,31.27,4.25-31.15,5.37.73L185,114.65,196.8,113l4.43-.6,4.25,31.15,23.76-31.27,9.67,9.68,21.17,2.89,20.68,2.82.66.09h0l64.2,8.76ZM204.93,111.49c0,.14.06.29.08.43C205,111.78,205,111.63,204.93,111.49Z" style="fill:#00b39f"/><line x1="90.15" y1="127.59" x2="90.03" y2="127.5" style="fill:none;stroke:#00b39f;stroke-linecap:round;stroke-linejoin:round;stroke-width:0px"/><path d="M231.16,146.41l.51.31-.21-.41Z" style="fill:#00b39f"/><path d="M140.36,145.19h0s-.06.14-.08.18l0,0,.1-.08.06,0h-.09Z" style="fill:#00b39f"/><path d="M140.36,145.19h0" style="fill:none;stroke:#00b39f;stroke-linecap:round;stroke-linejoin:round;stroke-width:0px"/><path d="M205,111.92c0-.14,0-.29-.08-.43" style="fill:none;stroke:#00b39f;stroke-linecap:round;stroke-linejoin:round;stroke-width:0px"/><polygon points="347.72 138.14 347.72 138.14 345.64 136.56 281.44 127.8 281.41 127.8 348.52 178.79 348.52 144.02 347.72 138.14" style="fill:#00d3a9"/><polygon points="24.42 136.55 24.36 136.56 22.28 138.14 21.48 144.02 21.48 179.55 89.78 127.65 89.81 127.63 24.42 136.55" style="fill:#00d3a9"/></svg>