<svg xmlns="http://www.w3.org/2000/svg" xmlns:svg="http://www.w3.org/2000/svg" xmlns:xlink="http://www.w3.org/1999/xlink" id="svg3538" x="0" y="0" version="1.1" viewBox="0 0 1200 1200" xml:space="preserve" style="enable-background:new 0 0 1200 1200"><style type="text/css">.st0{fill:#00b188}.st1{fill:#231f20}</style><g id="layer1" transform="translate(435.04467,-285.29078)"><g id="g3646" transform="matrix(7.4464891,0,0,7.4464891,2804.5105,-1839.1239)"><path id="path3346" d="M-380.9,346.4h-44.2v-8.2h44.2L-380.9,346.4L-380.9,346.4z M-377.7,335.1h-50.5v14.5h50.5 V335.1z" class="st0"/><g id="g3348" transform="matrix(1.25,0,0,-1.25,-431.10089,333.35578)"><path id="path3350" d="M4.8-32.1H2.3v11.6h2.5v-4.6h4.5v4.6h2.5v-11.6H9.3v4.8l-4.5,0V-32.1" class="st1"/></g><g id="g3352" transform="matrix(1.25,0,0,-1.25,-414.13839,325.41203)"><path id="path3354" d="M2.1-33.4h3C5.1-32.5,4.7-32,3.7-32C3-32,2.3-32.3,2.1-33.4z M4-38.7c-2.6,0-4.3,1.6-4.3,4.3 c0,2.6,1.7,4.4,4,4.4c2.5,0,3.7-1.7,3.7-4.1v-0.9H2.1c0.3-1.3,1.3-1.6,2.3-1.6c0.9,0,1.5,0.2,2.3,0.7h0.1v-1.9 C6.1-38.4,5.2-38.7,4-38.7" class="st1"/></g><g id="g3356" transform="matrix(1.25,0,0,-1.25,-395.61089,325.76078)"><path id="path3358" d="M-0.8-33.3l-1.3-4.9h-2.2L-6.9-30v0.1h2.4l1.4-4.9l1.3,4.9h2l1.3-4.9l1.4,4.9h2.3V-30 l-2.5-8.2H0.5L-0.8-33.3" class="st1"/></g><g id="g3360" transform="matrix(1.25,0,0,-1.25,-379.75089,333.64578)"><path id="path3362" d="M-3.4-32.1c-2,0-2.8,0.8-2.8,2.7v9.1h2.4v-8.9c0-0.6,0.2-0.8,0.7-0.8c0.2,0,0.4,0.1,0.6,0.1h0 v-2C-2.7-32-3-32.1-3.4-32.1" class="st1"/></g><g id="g3364" transform="matrix(1.25,0,0,-1.25,-373.48714,325.41203)"><path id="path3366" d="M-4.4-33.4h3C-1.4-32.5-1.8-32-2.8-32C-3.5-32-4.2-32.3-4.4-33.4z M-2.5-38.7 c-2.6,0-4.3,1.6-4.3,4.3c0,2.6,1.7,4.4,4,4.4c2.5,0,3.7-1.7,3.7-4.1v-0.9h-5.3c0.3-1.3,1.3-1.6,2.3-1.6c0.9,0,1.5,0.2,2.3,0.7 h0.1v-1.9C-0.4-38.4-1.3-38.7-2.5-38.7" class="st1"/></g><g id="g3368" transform="matrix(1.25,0,0,-1.25,-349.53714,320.45453)"><path id="path3370" d="M-8.2-34.2h1.8v-2h-1.8v-3.4c0-0.7,0.3-1.1,1-1.1c0.2,0,0.5,0,0.7,0.1h0.1v-1.9 c-0.3-0.1-0.8-0.2-1.5-0.2c-2,0-2.8,0.9-2.8,3v3.5h-3.1v-3.4c0-0.7,0.3-1.1,1-1.1c0.2,0,0.5,0,0.7,0.1h0.1v-1.9 c-0.3-0.1-0.8-0.2-1.5-0.2c-2,0-2.8,0.9-2.8,3v3.5h-1.3v2h1.3v2.3h2.4v-2.3h3.1v2.3h2.4V-34.2" class="st1"/></g><g id="g3372" transform="matrix(1.25,0,0,-1.25,-333.79964,324.13703)"><path id="path3374" d="M-10.7-33.6c1.3,0,1.9,0.7,1.9,1.8c0,1.1-0.6,1.8-1.9,1.8h-1.6v-3.6H-10.7z M-6.3-31.8 c0-2.5-1.7-3.9-4.3-3.9h-1.8v-3.8h-2.5v11.6h4.3C-8-27.9-6.3-29.3-6.3-31.8" class="st1"/></g><g id="g3376" transform="matrix(1.25,0,0,-1.25,-318.43214,329.29703)"><path id="path3378" d="M-13.2-32.8v0.7c-0.4,0.2-0.9,0.3-1.4,0.3c-0.8,0-1.3-0.3-1.3-1c0-0.7,0.5-1,1.2-1 C-13.9-33.7-13.4-33.4-13.2-32.8z M-13.1-34.6c-0.5-0.6-1.3-1-2.2-1c-1.6,0-2.9,1-2.9,2.7c0,1.6,1.3,2.7,3.2,2.7 c0.6,0,1.2-0.1,1.8-0.3v0.1c0,0.9-0.5,1.3-1.8,1.3c-0.8,0-1.6-0.2-2.3-0.6h-0.1v2c0.6,0.4,1.7,0.7,2.8,0.7c2.5,0,3.8-1.2,3.8-3.3 v-5.2h-2.4V-34.6" class="st1"/></g><g id="g3380" transform="matrix(1.25,0,0,-1.25,-312.66214,326.92078)"><path id="path3382" d="M-14.1-33.2c0,2.7,1.9,4.3,4.3,4.3c0.9,0,1.7-0.2,2.3-0.6v-2.1h-0.1c-0.5,0.4-1.2,0.6-1.9,0.6 c-1.2,0-2.2-0.8-2.2-2.2c0-1.4,0.9-2.2,2.2-2.2c0.7,0,1.4,0.2,1.9,0.7h0.1v-2.1c-0.6-0.4-1.4-0.6-2.3-0.6 C-12.2-37.5-14.1-35.8-14.1-33.2" class="st1"/></g><g id="g3384" transform="matrix(1.25,0,0,-1.25,-296.07714,327.50078)"><path id="path3386" d="M-16.8-33.1v-3.7h-2.4v11.6h2.4v-6.6l2.5,3.3h2.8v-0.1l-3-3.7l3-4.3v-0.1h-2.8L-16.8-33.1" class="st1"/></g><g id="g3388" transform="matrix(1.25,0,0,-1.25,-279.28839,329.29703)"><path id="path3390" d="M-19.5-32.8v0.7c-0.4,0.2-0.9,0.3-1.4,0.3c-0.8,0-1.3-0.3-1.3-1c0-0.7,0.5-1,1.2-1 C-20.2-33.7-19.7-33.4-19.5-32.8z M-19.4-34.6c-0.5-0.6-1.3-1-2.2-1c-1.6,0-2.9,1-2.9,2.7c0,1.6,1.3,2.7,3.2,2.7 c0.6,0,1.2-0.1,1.8-0.3v0.1c0,0.9-0.5,1.3-1.8,1.3c-0.8,0-1.6-0.2-2.3-0.6h-0.1v2c0.6,0.4,1.7,0.7,2.8,0.7c2.5,0,3.8-1.2,3.8-3.3 v-5.2h-2.4V-34.6" class="st1"/></g><g id="g3392" transform="matrix(1.25,0,0,-1.25,-269.02339,322.54203)"><path id="path3394" d="M-21.1-33.9c0.4,0.9,1.1,1.4,2,1.4c0.3,0,0.7-0.1,0.8-0.1v-2.3h-0.1c-0.3,0.1-0.6,0.2-1.1,0.2 c-0.8,0-1.4-0.4-1.6-1.3v-4.8h-2.4v8.3h2.4V-33.9" class="st1"/></g><g id="g3396" transform="matrix(1.25,0,0,-1.25,-254.49714,328.97828)"><path id="path3398" d="M-23.4-32.8v2.7c-0.4,0.6-0.9,0.9-1.6,0.9c-1.1,0-1.8-0.8-1.8-2.2c0-1.4,0.7-2.2,1.8-2.2 C-24.4-33.7-23.8-33.4-23.4-32.8z M-23.4-34.8c-0.5-0.7-1.3-1-2.4-1c-2.1,0-3.5,1.9-3.5,4.3s1.4,4.3,3.5,4.3 c1.1,0,1.9-0.3,2.4-0.9v4.1h2.4v-11.6h-2.4V-34.8" class="st1"/></g><g id="g3400" transform="matrix(1.25,0,0,-1.25,-435.04464,339.27328)"><path id="path3402" d="M5.5-31.2h7.2v-1.4H7.1v-3.5h5v-1.4h-5v-3.9h5.5v-1.4H5.5V-31.2" class="st1"/></g><g id="g3404" transform="matrix(1.25,0,0,-1.25,-414.60339,344.37453)"><path id="path3406" d="M2.2-30.4C4-30.4,5-31.6,5-33.6v-5.1H3.5v5.1c0,1.1-0.5,1.8-1.7,1.8c-1,0-1.8-0.6-2.1-1.5 v-5.4h-1.5v8.2h1.5v-1.2C0.2-31,1-30.4,2.2-30.4" class="st1"/></g><g id="g3408" transform="matrix(1.25,0,0,-1.25,-403.67089,344.63578)"><path id="path3410" d="M0.4-30.3h2.1v-1.3H0.4V-36c0-0.9,0.5-1.2,1.4-1.2c0.2,0,0.5,0,0.7,0.1h0.1v-1.3 c-0.2-0.1-0.5-0.2-1-0.2c-1.9,0-2.7,0.9-2.7,2.5v4.5h-1.4v1.3h1.4v2.2h1.5V-30.3" class="st1"/></g><g id="g3412" transform="matrix(1.25,0,0,-1.25,-396.36464,349.76578)"><path id="path3414" d="M-0.7-29.5h4.1c-0.1,1.2-0.6,2.1-1.9,2.1C0.3-27.4-0.5-28.2-0.7-29.5z M1.7-34.6 c-2.4,0-4,1.6-4,4.2c0,2.6,1.5,4.3,3.7,4.3c2.2,0,3.4-1.6,3.4-4v-0.7h-5.6c0.2-1.7,1.2-2.4,2.7-2.4c0.9,0,1.6,0.2,2.3,0.7h0.1 v-1.4C3.6-34.3,2.7-34.6,1.7-34.6" class="st1"/></g><g id="g3416" transform="matrix(1.25,0,0,-1.25,-382.44714,346.60703)"><path id="path3418" d="M-3-30c0.4,0.9,1.1,1.4,2,1.4c0.4,0,0.7-0.1,0.8-0.1v-1.5h-0.1c-0.2,0.1-0.6,0.2-1,0.2 c-0.8,0-1.5-0.6-1.8-1.5v-5.3h-1.5v8.2H-3V-30" class="st1"/></g><g id="g3420" transform="matrix(1.25,0,0,-1.25,-370.26964,355.47703)"><path id="path3422" d="M-4.9-28.6c1.5,0,2.4,1.2,2.4,2.9c0,1.6-0.9,2.9-2.4,2.9c-0.8,0-1.6-0.5-2-1.3v-3.1 C-6.5-28.1-5.7-28.6-4.9-28.6z M-4.6-21.5c2.4,0,3.7-2,3.7-4.2c0-2.3-1.3-4.2-3.7-4.2c-1,0-1.9,0.5-2.3,1.1v-4h-1.5v11.3h1.5 v-0.9C-6.5-22-5.6-21.5-4.6-21.5" class="st1"/></g><g id="g3424" transform="matrix(1.25,0,0,-1.25,-358.78714,346.60703)"><path id="path3426" d="M-6.7-30c0.4,0.9,1.1,1.4,2,1.4c0.4,0,0.7-0.1,0.8-0.1v-1.5H-4c-0.2,0.1-0.6,0.2-1,0.2 c-0.8,0-1.5-0.6-1.8-1.5v-5.3h-1.5v8.2h1.5V-30" class="st1"/></g><g id="g3428" transform="matrix(1.25,0,0,-1.25,-350.90089,339.47578)"><path id="path3430" d="M-8-31.2c0.5,0,1-0.4,1-1c0-0.5-0.4-1-1-1c-0.5,0-1,0.4-1,1C-9-31.6-8.5-31.2-8-31.2" class="st1"/></g><path id="path3432" d="M-361.9,392.7h1.9v-10.2h-1.9V392.7z" class="st1"/><g id="g3434" transform="matrix(1.25,0,0,-1.25,-341.09964,349.94078)"><path id="path3436" d="M-9.6-29.5c1.2-0.4,2.5-0.9,2.5-2.4c0-1.7-1.4-2.5-3.1-2.5c-1.1,0-2.2,0.3-2.8,0.7v1.5h0.1 c0.7-0.6,1.7-0.9,2.7-0.9c0.9,0,1.7,0.3,1.7,1c0,0.7-0.6,0.9-1.9,1.3c-1.2,0.4-2.4,0.8-2.4,2.3c0,1.6,1.3,2.5,3,2.5 c1,0,1.8-0.2,2.5-0.7v-1.5h-0.1c-0.7,0.5-1.4,0.9-2.4,0.9s-1.5-0.4-1.5-1C-11.5-28.9-10.9-29-9.6-29.5" class="st1"/></g><g id="g3438" transform="matrix(1.25,0,0,-1.25,-332.66214,349.76578)"><path id="path3440" d="M-10.9-29.5h4.1c-0.1,1.2-0.6,2.1-1.9,2.1C-9.9-27.4-10.7-28.2-10.9-29.5z M-8.5-34.6 c-2.4,0-4,1.6-4,4.2c0,2.6,1.5,4.3,3.7,4.3c2.2,0,3.4-1.6,3.4-4v-0.7H-11c0.2-1.7,1.2-2.4,2.7-2.4c0.9,0,1.6,0.2,2.3,0.7h0.1 v-1.4C-6.6-34.3-7.5-34.6-8.5-34.6" class="st1"/></g></g></g></svg>