<?xml version="1.0" encoding="utf-8"?>
<!-- Generator: Adobe Illustrator 26.0.2, SVG Export Plug-In . SVG Version: 6.00 Build 0)  -->
<svg version="1.1" id="Layer_1" xmlns="http://www.w3.org/2000/svg" xmlns:xlink="http://www.w3.org/1999/xlink" x="0px" y="0px"
	 viewBox="0 0 552.9 411.4" style="enable-background:new 0 0 552.9 411.4;" xml:space="preserve">
<style type="text/css">
	.st0{fill:#4A0D66;}
	.st1{fill:#B31AAB;}
	.st2{fill:#D163CE;}
	.st3{fill:#E13EAF;}
	.st4{fill:#4A4859;}
	.st5{fill:#00B39F;}
	.st6{fill:#00D3A9;}
</style>
<path class="st0" d="M279.7,113.4c0,2.2,0.5,4.3,1.5,6.1s2.3,3.4,3.8,4.7c1.6,1.3,3.4,2.3,5.5,3s4.3,1.1,6.5,1.1
	c3,0,5.7-0.7,7.9-2.1c2.2-1.4,4.3-3.3,6.2-5.6l7.4,5.6c-5.4,7-13,10.5-22.7,10.5c-4,0-7.7-0.7-11-2.1c-3.3-1.4-6.1-3.3-8.3-5.7
	c-2.3-2.4-4-5.3-5.2-8.5c-1.2-3.3-1.8-6.8-1.8-10.7c0-3.8,0.7-7.4,2-10.7c1.3-3.3,3.2-6.1,5.5-8.5s5.1-4.3,8.4-5.7
	c3.2-1.4,6.8-2.1,10.6-2.1c4.5,0,8.4,0.8,11.5,2.4s5.7,3.7,7.7,6.2c2,2.6,3.5,5.4,4.4,8.7c0.9,3.2,1.4,6.5,1.4,9.8v3.5L279.7,113.4
	L279.7,113.4z M310.5,105.6c-0.1-2.2-0.4-4.1-1-5.9s-1.5-3.4-2.8-4.7c-1.2-1.3-2.8-2.4-4.6-3.1c-1.8-0.8-4-1.1-6.4-1.1
	s-4.6,0.5-6.5,1.4c-2,0.9-3.7,2.1-5,3.5c-1.4,1.4-2.4,3-3.2,4.8c-0.8,1.8-1.1,3.5-1.1,5.2h30.6V105.6z M329.3,84.2h9.7v7.9h0.2
	c1.2-2.7,3.4-5,6.4-6.7s6.5-2.5,10.5-2.5c2.5,0,4.8,0.4,7.1,1.1c2.3,0.8,4.3,1.9,5.9,3.5c1.7,1.6,3,3.6,4.1,6.1
	c1,2.5,1.5,5.4,1.5,8.8v33H365v-30.2c0-2.4-0.3-4.4-1-6.1c-0.6-1.7-1.5-3.1-2.6-4.1s-2.3-1.8-3.7-2.3c-1.4-0.5-2.9-0.7-4.4-0.7
	c-2,0-3.9,0.3-5.6,1c-1.7,0.6-3.2,1.7-4.5,3.1s-2.3,3.2-3,5.4c-0.7,2.2-1.1,4.7-1.1,7.7v26.4h-9.7L329.3,84.2L329.3,84.2z
	 M377.9,84.2h11.3l15.4,39.3l14.7-39.3h10.4l-20.1,51.3h-10.9L377.9,84.2L377.9,84.2z M430.2,109.8c0-3.7,0.7-7.2,2.1-10.5
	c1.4-3.2,3.3-6.1,5.8-8.5c2.5-2.5,5.3-4.4,8.7-5.8c3.3-1.4,6.9-2.1,10.7-2.1c3.8,0,7.4,0.7,10.7,2.1c3.3,1.4,6.2,3.3,8.7,5.8
	s4.4,5.3,5.8,8.5s2.1,6.7,2.1,10.5s-0.7,7.3-2.1,10.5c-1.4,3.3-3.3,6.1-5.8,8.5c-2.5,2.4-5.3,4.3-8.7,5.7c-3.3,1.4-6.9,2.1-10.7,2.1
	c-3.8,0-7.4-0.7-10.7-2.1c-3.3-1.4-6.2-3.3-8.7-5.7c-2.5-2.4-4.4-5.3-5.8-8.5S430.2,113.6,430.2,109.8z M440.6,109.8
	c0,2.6,0.4,5,1.2,7.2c0.8,2.2,1.9,4.1,3.4,5.6c1.4,1.6,3.2,2.8,5.3,3.7c2.1,0.9,4.4,1.4,7,1.4s4.9-0.4,7-1.4
	c2.1-0.9,3.9-2.1,5.3-3.7s2.6-3.4,3.4-5.6s1.2-4.6,1.2-7.2s-0.4-5-1.2-7.2c-0.8-2.2-1.9-4.1-3.4-5.6c-1.4-1.5-3.2-2.8-5.3-3.7
	c-2.1-0.9-4.4-1.4-7-1.4s-4.9,0.5-7,1.4s-3.9,2.1-5.3,3.7s-2.6,3.4-3.4,5.6S440.6,107.2,440.6,109.8z M485.5,84.2h11.2l15.2,40h0.2
	l14.6-40h10.4l-24.4,62.3c-0.9,2.2-1.8,4.3-2.7,6.1c-0.9,1.8-2,3.4-3.3,4.7s-2.9,2.3-4.7,3c-1.8,0.7-4.1,1.1-6.7,1.1
	c-1.4,0-2.9-0.1-4.4-0.3s-2.9-0.6-4.3-1.1l1.2-8.9c1.9,0.8,3.9,1.2,5.8,1.2c1.5,0,2.8-0.2,3.8-0.6c1-0.4,1.9-1,2.7-1.7
	c0.8-0.8,1.4-1.6,1.9-2.7c0.5-1,1-2.2,1.5-3.5l3.2-8.1L485.5,84.2z"/>
<path class="st1" d="M72.2,101.9l0.3,13.6l14.3,8.9l-0.3-13.6L72.2,101.9z M107.1,158.4l-0.3-13.3l-12.5-7.8
	c-0.2-0.1-0.4-0.3-0.5-0.4l0.3,13.4L107.1,158.4z M62.4,176.3l-32.7-20.2l-0.8-34l16-6.9l-0.3-13.6l-25.6,11c-2,0.9-3.2,2.7-3.1,4.8
	l1,40.8c0,2.1,1.3,4.2,3.4,5.4l39.3,24.3c1.8,1.1,4,1.4,5.9,0.9c0.2-0.1,0.4-0.1,0.6-0.2l24.1-10.4l-13.1-8.1L62.4,176.3z"/>
<path class="st2" d="M168.2,101.1c-0.1-2.4-1.5-4.9-3.9-6.3l-47.7-29.5l-1.5,0.6l0.3,14.3l37.7,23.4l0.9,38.2l14.4,8.9l0.8-0.3
	L168.2,101.1L168.2,101.1z M111.1,168.3l-44.2-27.5l-1.1-46L86,86.1l-0.4-15.9L54.2,83.7c-2.3,1-3.7,3.1-3.6,5.6l1.3,54
	c0,2.5,1.5,4.9,3.9,6.3l51.9,32.2c2.1,1.3,4.7,1.7,6.9,1c0.2-0.1,0.4-0.2,0.6-0.2l30.7-13.2l-15.2-9.4L111.1,168.3L111.1,168.3z"/>
<path class="st3" d="M235.7,63.3l-66.6-41.2c-2.5-1.5-5.4-1.9-7.9-1.1c-0.2,0.1-0.5,0.2-0.7,0.3l-64.9,28c-2.6,1.1-4.2,3.5-4.1,6.4
	l1.6,69.2c0.1,2.8,1.8,5.6,4.5,7.2l66.5,41.2c2.4,1.5,5.4,1.9,7.9,1.1c0.2-0.1,0.5-0.2,0.7-0.3l64.9-28c2.6-1.1,4.2-3.6,4.1-6.4
	l-1.6-69.2C240.1,67.7,238.4,65,235.7,63.3z M168.1,157.8L110.3,122l-1.5-60.2l56.4-24.3L223,73.3l1.4,60.1L168.1,157.8L168.1,157.8
	z"/>
<g>
	<path class="st3" d="M269.3,279.7c-4.8,0-9.7,0-14.7,0c-5.7,0-8.5-2.1-8.4-6.1c0.1-4.1,2.7-5.8,8.6-5.8c5.3,0,10.6,0,14.8,0
		c5.1-11.6,9.9-22.5,14.8-33.6c-0.5,0-2-0.4-3.5-0.1c-12.5,2-17.1-8.8-24.2-15.3c-0.9-0.8,0.1-5.5,1.6-6.7c1.5-1.2,5.3-1,7,0.2
		c3.5,2.4,6,6.1,9.4,8.8c2,1.6,4.8,2.9,7.3,2.9c16.4,0.3,32.8,0.1,49.5,0.1c0,39.8,0,79.3,0,119.8c-4.8-1-9.4-1.6-13.9-2.8
		c-11.7-3.4-21.7-9.6-30.1-18.5c-3.8-4.1-10.4-4.2-14.3-0.3c-3.1,3-6.1,6.1-9.1,9.1c-2.7,2.6-5.7,2.9-8.3,0.2
		c-2.6-2.7-2.2-5.7,0.4-8.4c4.3-4.4,8.4-8.9,13-13c1.9-1.7,4.9-2.3,7-3.2C273.9,298.3,271.7,289.3,269.3,279.7z"/>
	<path class="st3" d="M385,233.9c5.4,11.1,10.6,22,16.3,33.8c4.6,0,10.5,0,16.5,0c4.8,0,7.5,2.3,7.5,6c0,3.8-2.7,5.9-7.6,5.9
		c-5.4,0-10.9,0-15.7,0c-2.3,9.5-4.5,18.4-6.8,27.5c6.2-0.8,9.1,4.8,13.2,8.6c2.5,2.4,4.9,4.9,7.3,7.5c2.4,2.6,2.6,5.5,0.2,8
		c-2.6,2.7-5.6,2.5-8.3-0.1c-2.9-2.8-5.6-5.6-8.4-8.4c-4.7-4.7-11.2-4.8-16-0.3c-11,10.3-23.5,17.7-38.6,20.3
		c-1.4,0.2-2.9,0.3-4.6,0.5c0-39.8,0-79.2,0-119.4c1.7,0,3.4,0,5.2,0c14.8,0,29.5-0.1,44.3,0.1c3.3,0,5.6-0.8,7.8-3.3
		c2.6-3,5.5-5.7,8.4-8.5c2.7-2.6,5.7-3,8.3-0.2c2.7,2.8,2.1,5.7-0.5,8.3c-4,4-8,8-12.2,11.7c-1.2,1.1-3.2,1.6-4.9,1.7
		C392.4,234.1,388.5,233.9,385,233.9z"/>
	<path class="st0" d="M299,215.7c-0.1-13.4,6.2-23.1,17.1-30.8c-2.4-2.3-4.6-4.3-6.7-6.3c-2.8-2.7-3.5-5.8-0.6-8.7
		c2.7-2.7,5.7-2.1,8.4,0.4c0.1,0.1,0.3,0.2,0.4,0.3c5.7,9.8,15.2,10,24.9,9.6c1.3-0.1,2.8-0.9,3.8-1.8c2.9-2.7,5.6-5.6,8.5-8.3
		c2.7-2.5,5.7-2.8,8.4,0c2.5,2.6,2.1,5.5-0.4,7.9c-2.2,2.2-4.5,4.4-7.2,6.8c10.8,7.6,17.1,17.3,17.2,30.9
		C348.1,215.7,323.7,215.7,299,215.7z"/>
</g>
<g>
	<path class="st4" d="M339.2,295.4c-4.7,0-9.3,0-14,0c-1.2,0-1.6,0.2-1.7,1.5c-0.9,15-6,28.4-15.4,40.2
		c-11,13.7-25.3,22.3-42.6,25.6c-2.9,0.6-5.9,0.9-8.8,1.1c-1.4,0.1-1.7,0.6-1.7,2c0.1,8.9,0,17.7,0,26.6c0,0.5,0,0.9,0,1.4
		c0,1.6-0.7,2.8-2.4,2.9c-1.5,0.1-2.5-1.1-2.5-3c0-8.9,0-17.8,0-26.8c0-2.9,0-3-3-3.2c-10-0.7-19.4-3.5-28.1-8.2
		c-14.6-7.9-25.1-19.6-31.7-34.8c-3.2-7.5-5-15.4-5.5-23.5c-0.1-1.5-0.6-1.7-1.9-1.7c-9,0.1-18,0-27,0c-0.7,0-1.4,0.1-2-0.1
		c-1.3-0.3-2-1.2-1.9-2.5c0-1.2,0.8-2,1.9-2.3c0.6-0.1,1.2-0.1,1.8-0.1c8.8,0,17.6-0.1,26.4,0c1.9,0,2.6-0.5,2.6-2.4
		c0.3-7.8,2.2-15.3,5.2-22.6c5.6-13.4,14.5-24.1,26.6-32.1c10.6-7,22.2-10.9,34.9-11.5c1.5-0.1,1.7-0.7,1.7-2c0-8.9,0-17.7,0-26.6
		c0-0.7,0-1.4,0.1-2c0.1-1.4,1.1-2.1,2.3-2.1c1.2-0.1,2.1,0.6,2.4,1.8c0.2,0.7,0.2,1.5,0.2,2.2c0,8.9,0,17.8,0,26.8
		c0,1.3,0.3,1.9,1.7,2c22.9,1.6,41,11.8,54.2,30.4c7.7,10.7,11.7,22.9,12.5,36c0.1,1.6,0.5,2.1,2.2,2.1c8.9-0.1,17.7,0,26.6,0
		c0.5,0,0.9,0,1.4,0c1.6,0,2.7,0.8,2.7,2.4c0,1.7-1.1,2.5-2.8,2.5C348.8,295.4,344,295.4,339.2,295.4z M250,320.9
		C250.1,320.9,250.1,320.9,250,320.9c0-2.9,0-5.8,0-8.7c0-1.4,0.9-2.3,2.3-2.3c1.4-0.1,2.3,0.8,2.5,2.1c0.1,0.6,0.1,1.2,0.1,1.8
		c0,4.9,0,9.9,0,14.8c0,1.5,0.1,2.3,1.9,1.8c1.2-0.3,2.4-0.3,3.6-0.6c15.4-3,28.3-17.3,29.5-32.6c0.1-1.7-0.4-1.9-1.8-1.8
		c-5.1,0.1-10.3,0-15.4,0c-2.3,0-3.5-0.9-3.4-2.5c0-1.5,1.2-2.4,3.4-2.4c5.2,0,10.4-0.1,15.6,0c1.4,0,1.8-0.3,1.7-1.8
		c-1.2-16.2-15.9-31.4-32-33.1c-3-0.3-3-0.3-3,2.6c0,4.7,0,9.5,0,14.2c0,1,0,2.1-0.8,2.8c-0.7,0.7-1.7,0.9-2.6,0.5
		c-1.1-0.5-1.5-1.5-1.5-2.6c0-5.4,0-10.8,0-16.2c0-0.9,0.2-1.7-1.3-1.5c-17.6,1.7-31.9,15.8-33.8,33.4c-0.1,1.3,0.2,1.7,1.5,1.7
		c5.2-0.1,10.4,0,15.6,0c2.3,0,3.5,0.9,3.4,2.5c-0.1,1.5-1.2,2.4-3.4,2.4c-5.2,0-10.4,0-15.6,0c-1.3,0-1.7,0.2-1.6,1.7
		c1.8,17.6,16.1,31.7,33.8,33.5c1.2,0.1,1.4-0.2,1.4-1.3C250,326.5,250,323.7,250,320.9z M198.1,290.5c3,0,6.1,0,9.1,0
		c2.8,0,2.7,0,3.1-2.8c2-14.8,9.7-25.6,22.8-32.6c4.6-2.5,9.6-3.9,14.8-4.4c0.9-0.1,2.1,0,2.1-1.5c0-7,0-13.9,0-20.9
		c0-0.9-0.2-1.3-1.3-1.2c-6.5,0.4-12.8,1.6-18.9,3.9c-15.9,6-27.8,16.4-35.8,31.4c-4.5,8.3-6.7,17.3-7.5,26.6
		c-0.1,1.2,0.4,1.5,1.5,1.5C191.4,290.5,194.8,290.5,198.1,290.5z M198.4,295.4c-3.4,0-6.9,0-10.3,0c-1.3,0-1.7,0.4-1.5,1.7
		c0.4,2.8,0.6,5.6,1.1,8.4c3.1,15.7,10.9,28.7,23.2,38.7c10.8,8.8,23.2,13.7,37.2,14.6c1.6,0.1,2-0.3,1.9-1.8
		c-0.1-6.5-0.1-13,0-19.4c0-1.8-0.7-2.3-2.3-2.4c-13.5-1.6-23.9-8.2-31.3-19.5c-3.5-5.3-5.6-11.2-6.2-17.6c-0.2-2.1-0.9-2.9-3.1-2.7
		C204.3,295.6,201.3,295.4,198.4,295.4z M255,238.7c0,3.2,0.1,6.5,0,9.7c-0.1,1.7,0.6,2.3,2.1,2.4c4.3,0.3,8.4,1.4,12.3,3.2
		c14.9,6.9,23.5,18.5,25.4,34.9c0.2,1.3,0.6,1.7,1.9,1.7c6.6,0,13.2-0.1,19.9,0c1.6,0,1.9-0.5,1.8-2c-0.4-4.7-1.1-9.3-2.5-13.9
		c-3.7-12.9-10.8-23.7-21-32.3c-11-9.2-23.8-14.4-38.2-15.3c-1.6-0.1-1.6,0.4-1.6,1.6C255,232,255,235.3,255,238.7z M255,347.1
		c0,3.4,0,6.9,0,10.3c0,0.6-0.4,1.5,1,1.4c8.4-0.5,16.4-2.4,24-5.9c12.6-5.8,22.5-14.8,29.5-26.8c5.2-8.9,8.1-18.5,8.8-28.7
		c0.1-1.5-0.3-2-1.8-2c-6.6,0.1-13.1,0.1-19.7,0c-1.5,0-1.9,0.4-2.1,1.9c-1.2,11.8-6.6,21.4-15.7,28.9c-6.4,5.2-13.8,8.3-22.1,9
		c-1.4,0.1-2,0.7-1.9,2.2C255.1,340.6,255,343.9,255,347.1z"/>
	<path class="st5" d="M198.1,290.5c-3.4,0-6.8,0-10.1,0c-1.1,0-1.6-0.2-1.5-1.5c0.8-9.4,3-18.3,7.5-26.6c8-15,19.9-25.4,35.8-31.4
		c6.1-2.3,12.4-3.5,18.9-3.9c1.1-0.1,1.3,0.4,1.3,1.2c0,7,0,13.9,0,20.9c0,1.6-1.2,1.5-2.1,1.5c-5.2,0.5-10.2,1.9-14.8,4.4
		c-13.1,7-20.8,17.8-22.8,32.6c-0.4,2.8-0.3,2.8-3.1,2.8C204.2,290.5,201.2,290.5,198.1,290.5z"/>
	<path class="st6" d="M198.4,295.4c3,0,6,0.2,8.9-0.1c2.2-0.2,2.9,0.6,3.1,2.7c0.6,6.4,2.7,12.2,6.2,17.6
		c7.4,11.4,17.8,18,31.3,19.5c1.6,0.2,2.3,0.6,2.3,2.4c-0.1,6.5-0.1,13,0,19.4c0,1.5-0.3,1.9-1.9,1.8c-14-0.9-26.4-5.8-37.2-14.6
		c-12.4-10.1-20.1-23-23.2-38.7c-0.6-2.8-0.7-5.6-1.1-8.4c-0.2-1.2,0.2-1.7,1.5-1.7C191.5,295.5,194.9,295.4,198.4,295.4z"/>
	<path class="st6" d="M255,238.7c0-3.3,0-6.6,0-9.9c0-1.2,0.1-1.7,1.6-1.6c14.4,0.9,27.2,6.1,38.2,15.3c10.3,8.5,17.3,19.4,21,32.3
		c1.3,4.5,2.1,9.2,2.5,13.9c0.1,1.5-0.2,2-1.8,2c-6.6-0.1-13.2-0.1-19.9,0c-1.3,0-1.7-0.4-1.9-1.7c-1.9-16.4-10.5-27.9-25.4-34.9
		c-3.9-1.8-8-2.9-12.3-3.2c-1.6-0.1-2.2-0.7-2.1-2.4C255.1,245.1,255,241.9,255,238.7z"/>
	<path class="st5" d="M255,347.1c0-3.2,0.1-6.5,0-9.7c-0.1-1.5,0.5-2.1,1.9-2.2c8.3-0.7,15.7-3.8,22.1-9
		c9.2-7.4,14.5-17.1,15.7-28.9c0.2-1.5,0.6-1.9,2.1-1.9c6.6,0.1,13.1,0.1,19.7,0c1.6,0,1.9,0.5,1.8,2c-0.7,10.3-3.6,19.9-8.8,28.7
		c-7,12-16.9,20.9-29.5,26.8c-7.6,3.5-15.6,5.5-24,5.9c-1.4,0.1-1-0.8-1-1.4C255,354,255,350.5,255,347.1z"/>
</g>
</svg>
