<svg xmlns="http://www.w3.org/2000/svg" width="508" height="508" fill="none" viewBox="0 0 508 508"><path fill="#EEE" d="M58.1852 105.633C69.8138 105.633 79.2405 96.2065 79.2405 84.578C79.2405 72.9494 69.8138 63.5226 58.1852 63.5226C46.5567 63.5226 37.1299 72.9494 37.1299 84.578C37.1299 96.2065 46.5567 105.633 58.1852 105.633Z"/><path fill="#EEE" d="M395.071 231.965C390.105 231.968 385.301 233.726 381.506 236.929C377.712 240.132 375.173 244.574 374.338 249.469L278.142 345.664H173.966L81.8535 253.552L230.079 105.326C233.933 104.687 237.532 102.987 240.474 100.418C243.417 97.8483 245.586 94.5106 246.739 90.7784C247.892 87.0462 247.983 83.0666 247.003 79.2854C246.023 75.5041 244.009 72.0703 241.188 69.3684C238.367 66.6665 234.849 64.8032 231.029 63.987C227.209 63.1709 223.237 63.4341 219.558 64.7472C215.879 66.0603 212.639 68.3715 210.199 71.4221C207.759 74.4726 206.216 78.1421 205.743 82.0196L55.6269 232.136C50.6333 232.744 46.0227 235.121 42.631 238.836C39.2393 242.551 37.2911 247.358 37.1394 252.386C36.9878 257.415 38.6429 262.331 41.8045 266.243C44.9662 270.156 49.4251 272.807 54.3731 273.714L150.829 370.17V497.263H302.427V369.022L397.528 273.921C402.862 273.295 407.755 270.655 411.206 266.539C414.657 262.424 416.404 257.145 416.09 251.784C415.776 246.422 413.424 241.384 409.517 237.7C405.609 234.015 400.441 231.964 395.071 231.965ZM243.472 434.058C240.482 438.029 236.178 440.807 231.328 441.896C226.477 442.984 221.398 442.312 216.999 439.999C212.599 437.686 209.165 433.883 207.312 429.271C205.459 424.659 205.306 419.537 206.883 414.823C208.459 410.109 211.661 406.109 215.915 403.539C220.17 400.969 225.2 399.996 230.106 400.795C235.012 401.593 239.475 404.111 242.695 407.897C245.915 411.684 247.683 416.493 247.683 421.463C247.669 426.005 246.192 430.421 243.472 434.058H243.472Z"/><path fill="#EEE" d="M409.959 436.352C418.182 428.129 418.182 414.798 409.959 406.575C401.736 398.352 388.405 398.352 380.182 406.575C371.96 414.798 371.96 428.129 380.182 436.352C388.405 444.574 401.736 444.574 409.959 436.352Z"/><path fill="#EEE" d="M58.1852 442.519C69.8138 442.519 79.2405 433.092 79.2405 421.463C79.2405 409.835 69.8138 400.408 58.1852 400.408C46.5567 400.408 37.1299 409.835 37.1299 421.463C37.1299 433.092 46.5567 442.519 58.1852 442.519Z"/><path fill="#EEE" d="M395.071 9.62093C381.499 9.61017 368.174 13.2464 356.489 20.1492C344.803 27.052 335.188 36.9679 328.647 48.8597C322.107 60.7514 318.882 74.1822 319.309 87.7473C319.737 101.312 323.802 114.513 331.079 125.969L225.001 232.047C221.111 232.349 217.381 233.727 214.229 236.026C211.076 238.325 208.625 241.456 207.149 245.067C205.672 248.679 205.229 252.63 205.869 256.479C206.508 260.328 208.205 263.924 210.77 266.864C213.335 269.805 216.666 271.974 220.393 273.13C224.119 274.287 228.094 274.384 231.873 273.412C235.652 272.44 239.086 270.437 241.792 267.626C244.498 264.815 246.369 261.307 247.197 257.494L354.983 149.708C364.939 155.918 376.201 159.73 387.882 160.846C399.563 161.961 411.343 160.349 422.294 156.136C433.246 151.923 443.07 145.225 450.992 136.569C458.914 127.913 464.717 117.536 467.945 106.255C471.174 94.9736 471.738 83.0971 469.595 71.5606C467.451 60.0242 462.658 49.1432 455.593 39.7747C448.528 30.4062 439.384 22.8062 428.881 17.5736C418.379 12.341 406.805 9.61858 395.071 9.62093ZM395.071 106.475C390.907 106.475 386.836 105.241 383.373 102.927C379.911 100.613 377.212 97.3251 375.618 93.4777C374.025 89.6303 373.608 85.3968 374.42 81.3124C375.233 77.2281 377.238 73.4764 380.183 70.5317C383.127 67.5871 386.879 65.5818 390.963 64.7693C395.048 63.9569 399.281 64.3739 403.128 65.9675C406.976 67.5612 410.264 70.2599 412.578 73.7224C414.891 77.185 416.126 81.2558 416.126 85.4202C416.12 91.0025 413.9 96.3543 409.952 100.302C406.005 104.249 400.653 106.469 395.071 106.476V106.475Z"/><rect width="121" height="92" x="206" y="10"/></svg>