<svg xmlns="http://www.w3.org/2000/svg" role="img" viewBox="0.60 -0.90 358.54 260.79"><style>svg {enable-background:new 0 0 360 260.9869385}</style><style>.st0{fill:#231f20}.st1{fill:#446ca9}.st2{fill:#76c4d5}</style><g id="XMLID_94_"><path id="XMLID_633_" d="M24.823 216.339c3.472 0 6.31-1.374 8.514-4.122l4.529 4.665c-3.593 4.046-7.828 6.068-12.703 6.068-4.876 0-8.891-1.539-12.046-4.619-3.156-3.08-4.733-6.966-4.733-11.661 0-4.694 1.608-8.611 4.823-11.752 3.216-3.14 7.148-4.71 11.798-4.71 5.192 0 9.54 1.978 13.042 5.933l-4.393 4.982c-2.234-2.778-5.011-4.167-8.332-4.167-2.658 0-4.93.868-6.816 2.604-1.888 1.737-2.83 4.076-2.83 7.02s.89 5.306 2.672 7.087c1.78 1.782 3.94 2.672 6.475 2.672z" class="st0"/><path id="XMLID_631_" d="M43.436 222.588v-31.655h7.065v25.36h13.495v6.295h-20.56z" class="st0"/><path id="XMLID_628_" d="M94.927 218.218c-3.2 3.125-7.14 4.687-11.82 4.687-4.68 0-8.62-1.562-11.82-4.687-3.2-3.125-4.8-7.011-4.8-11.66 0-4.65 1.6-8.537 4.8-11.662 3.2-3.125 7.14-4.687 11.82-4.687 4.68 0 8.62 1.562 11.82 4.687 3.2 3.125 4.8 7.012 4.8 11.661 0 4.65-1.6 8.536-4.8 11.661zm-2.4-11.639c0-2.822-.906-5.23-2.718-7.223-1.81-1.992-4.038-2.989-6.68-2.989-2.642 0-4.868.997-6.679 2.99-1.812 1.992-2.718 4.4-2.718 7.222 0 2.824.906 5.224 2.718 7.201 1.811 1.978 4.037 2.966 6.68 2.966 2.641 0 4.868-.988 6.68-2.966 1.81-1.977 2.716-4.377 2.716-7.2z" class="st0"/><path id="XMLID_626_" d="M114.082 214.414c1.178 1.465 2.763 2.197 4.754 2.197 1.994 0 3.571-.732 4.734-2.197 1.161-1.464 1.744-3.464 1.744-6v-17.48h7.064v17.706c0 4.59-1.269 8.114-3.803 10.574-2.537 2.461-5.783 3.69-9.739 3.69-3.954 0-7.207-1.236-9.758-3.712-2.552-2.475-3.827-5.993-3.827-10.552v-17.707h7.065v17.48c0 2.537.589 4.537 1.766 6.001z" class="st0"/><path id="XMLID_623_" d="M163.897 195.077c3.018 2.762 4.529 6.604 4.529 11.525s-1.473 8.816-4.416 11.684c-2.943 2.869-7.435 4.302-13.473 4.302h-10.824v-31.655H150.9c5.645 0 9.977 1.381 12.997 4.144zm-5.186 18.816c1.736-1.63 2.604-4 2.604-7.11 0-3.109-.868-5.502-2.604-7.177-1.736-1.676-4.4-2.514-7.992-2.514h-3.94v19.247h4.483c3.23 0 5.713-.816 7.45-2.446z" class="st0"/><path id="XMLID_621_" d="M208.64 190.933h7.065v31.655h-7.065l-15.08-19.835v19.835h-7.065v-31.655h6.611l15.534 20.379v-20.379z" class="st0"/><path id="XMLID_618_" d="M246.046 222.588l-2.944-6.838h-13.27l-2.942 6.838h-7.518l13.677-31.655h6.837l13.678 31.655h-7.518zm-9.555-22.235l-3.986 9.193h7.926l-3.94-9.193z" class="st0"/><path id="XMLID_616_" d="M268.327 197.047v25.541h-7.065v-25.541h-8.967v-6.114h24.998v6.114h-8.966z" class="st0"/><path id="XMLID_614_" d="M282.455 190.933h7.065v31.655h-7.065v-31.655z" class="st0"/><path id="XMLID_612_" d="M308.993 211.086l8.06-20.153h7.655l-12.726 31.655h-5.977l-12.727-31.655h7.655l8.06 20.153z" class="st0"/><path id="XMLID_610_" d="M351.29 190.933v6.295h-15.76v6.521h14.175v6.023h-14.174v6.567h16.257v6.25h-23.323v-31.656h22.825z" class="st0"/><path id="XMLID_608_" d="M16.724 249.548c1.946 0 3.536-.77 4.772-2.31l2.539 2.614c-2.015 2.268-4.388 3.401-7.121 3.401s-4.984-.862-6.752-2.59c-1.769-1.725-2.653-3.904-2.653-6.535 0-2.632.9-4.828 2.703-6.588 1.803-1.76 4.007-2.64 6.613-2.64 2.91 0 5.348 1.109 7.311 3.326l-2.462 2.792c-1.253-1.557-2.81-2.336-4.671-2.336-1.49 0-2.763.487-3.82 1.46-1.059.974-1.587 2.285-1.587 3.935s.499 2.975 1.498 3.972c.998 1 2.208 1.499 3.63 1.499z" class="st0"/><path id="XMLID_605_" d="M41.702 250.6c-1.793 1.752-4.002 2.629-6.625 2.629s-4.832-.877-6.626-2.629c-1.794-1.75-2.69-3.93-2.69-6.535 0-2.607.896-4.786 2.69-6.537 1.794-1.752 4.003-2.628 6.626-2.628s4.832.876 6.625 2.628c1.794 1.75 2.691 3.93 2.691 6.537 0 2.606-.897 4.784-2.69 6.535zm-1.345-6.523c0-1.582-.508-2.932-1.523-4.05-1.016-1.116-2.264-1.674-3.745-1.674-1.48 0-2.729.558-3.744 1.675-1.015 1.117-1.523 2.467-1.523 4.049s.508 2.928 1.523 4.036c1.015 1.109 2.263 1.662 3.744 1.662 1.481 0 2.73-.553 3.745-1.662 1.015-1.108 1.523-2.453 1.523-4.036z" class="st0"/><path id="XMLID_603_" d="M63.635 241.88l-4.798 9.698h-2.36l-4.773-9.697v11.17h-3.96v-17.745H53.1l4.57 9.748 4.595-9.748h5.33v17.745h-3.96v-11.17z" class="st0"/><path id="XMLID_600_" d="M84.184 236.893c1.244 1.058 1.866 2.682 1.866 4.874 0 2.191-.638 3.795-1.916 4.81-1.278 1.016-3.228 1.523-5.851 1.523h-2.361v4.95h-3.96v-17.744h6.27c2.724 0 4.709.529 5.952 1.587zm-2.906 6.981c.473-.534.71-1.312.71-2.336 0-1.023-.308-1.752-.926-2.182-.618-.432-1.578-.649-2.881-.649h-2.26v5.966h2.666c1.32 0 2.217-.266 2.691-.799z" class="st0"/><path id="XMLID_598_" d="M93.843 248.469c.66.82 1.549 1.23 2.666 1.23s2-.41 2.653-1.23c.651-.821.977-1.943.977-3.364v-9.799h3.96v9.926c0 2.573-.71 4.549-2.132 5.927-1.422 1.38-3.241 2.07-5.458 2.07s-4.04-.694-5.47-2.082c-1.43-1.388-2.146-3.36-2.146-5.915v-9.926h3.96v9.799c0 1.421.33 2.543.99 3.364z" class="st0"/><path id="XMLID_596_" d="M115.725 238.733v14.318h-3.96v-14.318h-5.026v-3.427h14.013v3.427h-5.027z" class="st0"/><path id="XMLID_594_" d="M123.645 235.306h3.961v17.745h-3.96v-17.745z" class="st0"/><path id="XMLID_592_" d="M144.385 235.306h3.96v17.745h-3.96l-8.454-11.12v11.12h-3.96v-17.745h3.707l8.707 11.424v-11.424z" class="st0"/><path id="XMLID_590_" d="M164.236 244.014h3.985v6.295c-1.76 1.963-4.197 2.944-7.311 2.944-2.607 0-4.793-.862-6.562-2.59-1.769-1.725-2.653-3.904-2.653-6.535 0-2.632.902-4.828 2.704-6.588 1.802-1.76 3.976-2.64 6.524-2.64 2.546 0 4.76.838 6.638 2.513l-2.056 2.97c-.796-.693-1.528-1.17-2.196-1.434a5.894 5.894 0 0 0-2.17-.393c-1.507 0-2.776.511-3.808 1.535-1.032 1.025-1.548 2.373-1.548 4.05 0 1.675.494 3.017 1.484 4.023.99 1.007 2.17 1.51 3.542 1.51 1.37 0 2.512-.262 3.427-.786v-4.874z" class="st0"/><path id="XMLID_588_" d="M190.636 235.306v3.478h-8.224v3.833h7.819v3.478h-7.82v6.956h-3.96v-17.745h12.185z" class="st0"/><path id="XMLID_585_" d="M208.913 250.6c-1.793 1.752-4.002 2.629-6.625 2.629-2.624 0-4.832-.877-6.625-2.629-1.795-1.75-2.692-3.93-2.692-6.535 0-2.607.897-4.786 2.692-6.537 1.793-1.752 4.001-2.628 6.625-2.628 2.623 0 4.832.876 6.625 2.628 1.794 1.75 2.69 3.93 2.69 6.537 0 2.606-.896 4.784-2.69 6.535zm-1.345-6.523c0-1.582-.508-2.932-1.523-4.05-1.016-1.116-2.264-1.674-3.745-1.674-1.48 0-2.729.558-3.744 1.675-1.015 1.117-1.523 2.467-1.523 4.049s.508 2.928 1.523 4.036c1.015 1.109 2.264 1.662 3.744 1.662 1.481 0 2.73-.553 3.745-1.662 1.015-1.108 1.523-2.453 1.523-4.036z" class="st0"/><path id="XMLID_583_" d="M219.651 248.469c.661.82 1.55 1.23 2.666 1.23 1.117 0 2-.41 2.653-1.23.651-.821.977-1.943.977-3.364v-9.799h3.96v9.926c0 2.573-.71 4.549-2.132 5.927-1.421 1.38-3.24 2.07-5.458 2.07-2.217 0-4.041-.694-5.47-2.082-1.431-1.388-2.146-3.36-2.146-5.915v-9.926h3.961v9.799c0 1.421.33 2.543.99 3.364z" class="st0"/><path id="XMLID_581_" d="M246.433 235.306h3.96v17.745h-3.96l-8.454-11.12v11.12h-3.96v-17.745h3.706l8.708 11.424v-11.424z" class="st0"/><path id="XMLID_578_" d="M268.315 237.629c1.691 1.549 2.538 3.702 2.538 6.46 0 2.76-.825 4.942-2.475 6.55-1.65 1.608-4.168 2.412-7.552 2.412h-6.068v-17.745h6.27c3.166 0 5.594.774 7.287 2.323zm-2.907 10.547c.973-.913 1.46-2.242 1.46-3.985 0-1.743-.487-3.084-1.46-4.024-.974-.938-2.467-1.409-4.481-1.409h-2.208v10.79h2.513c1.81 0 3.202-.457 4.176-1.372z" class="st0"/><path id="XMLID_575_" d="M286.415 253.05l-1.65-3.832h-7.438l-1.65 3.833h-4.214l7.667-17.745h3.833l7.665 17.745h-4.213zm-5.356-12.464l-2.234 5.154h4.442l-2.208-5.154z" class="st0"/><path id="XMLID_573_" d="M298.905 238.733v14.318h-3.96v-14.318h-5.027v-3.427h14.013v3.427h-5.026z" class="st0"/><path id="XMLID_571_" d="M306.823 235.306h3.961v17.745h-3.96v-17.745z" class="st0"/><path id="XMLID_568_" d="M330.077 250.6c-1.794 1.752-4.003 2.629-6.626 2.629-2.624 0-4.831-.877-6.625-2.629-1.795-1.75-2.692-3.93-2.692-6.535 0-2.607.897-4.786 2.692-6.537 1.794-1.752 4.001-2.628 6.625-2.628 2.623 0 4.832.876 6.626 2.628 1.793 1.75 2.69 3.93 2.69 6.537 0 2.606-.897 4.784-2.69 6.535zm-1.346-6.523c0-1.582-.507-2.932-1.523-4.05-1.015-1.116-2.264-1.674-3.744-1.674-1.48 0-2.73.558-3.745 1.675-1.015 1.117-1.523 2.467-1.523 4.049s.508 2.928 1.523 4.036c1.016 1.109 2.264 1.662 3.745 1.662 1.48 0 2.729-.553 3.744-1.662 1.016-1.108 1.523-2.453 1.523-4.036z" class="st0"/><path id="XMLID_566_" d="M348.532 235.306h3.96v17.745h-3.96l-8.454-11.12v11.12h-3.96v-17.745h3.706l8.708 11.424v-11.424z" class="st0"/></g><g id="XMLID_83_"><g id="XMLID_89_"><path id="XMLID_93_" d="M124.386 109.88h-22.251v51.911h51.909v-22.249h-29.658z" class="st1"/><path id="XMLID_92_" d="M235.617 110.046v29.496h-29.498l-.163-.164v22.413h51.909V109.88h-22.414z" class="st1"/><path id="XMLID_91_" d="M102.135 57.978h22.417l-.166-.171V28.31h29.495l.163.166V6.063h-51.909z" class="st1"/><path id="XMLID_90_" d="M205.956 6.063V28.31h29.661v29.668h22.248V6.063z" class="st1"/></g><g id="XMLID_84_"><path id="XMLID_88_" d="M203.209 57.978L173.543 28.31h32.413V6.063h-51.912v22.413l29.5 29.502z" class="st2"/><path id="XMLID_87_" d="M176.456 109.88h-19.662l24.578 24.581 5.085 5.081h-32.413v22.249h51.912v-22.413l-14.752-14.751z" class="st2"/><path id="XMLID_86_" d="M235.617 57.978v32.406l-5.083-5.084-24.578-24.576v19.664l14.746 14.744 14.749 14.748h22.414V57.978z" class="st2"/><path id="XMLID_85_" d="M154.044 87.465l-29.492-29.487h-22.417v51.902h22.251V77.471l29.658 29.658z" class="st2"/></g></g></svg>