<svg width="779" height="766" viewBox="0 0 779 766" fill="none" xmlns="http://www.w3.org/2000/svg">
<g filter="url(#filter0_d_13980_18356)">
<path d="M105.201 587.682C105.673 577.224 108.23 566.966 112.72 557.509C117.21 548.052 123.544 539.586 131.35 532.608C151.843 511.68 181.518 511.056 181.518 511.056C222.616 509.404 241.824 534.701 241.824 534.701L307.931 468.613C293.49 455.2 282.438 438.552 275.685 420.038C273.488 441.31 263.727 461.087 248.177 475.772C248.177 475.772 223.423 501.473 186.513 501.473C170.488 501.676 154.718 505.504 140.385 512.672C124.21 521.606 111.403 535.583 103.915 552.472C95.1578 570.555 92.5774 591.012 96.5698 610.703C100.536 627.507 108.902 642.954 120.809 655.459L128.485 647.822C120.713 639.911 114.638 630.496 110.634 620.154C106.63 609.813 104.781 598.763 105.201 587.682Z" fill="#00D3A9"/>
<path d="M364.498 500.482L362.221 498.279C341.901 493.103 323.21 482.901 307.866 468.613L241.758 534.701C241.758 534.701 266.952 553.903 265.3 595.025C265.3 595.025 264.675 624.691 243.741 645.178C236.767 652.986 228.3 659.319 218.838 663.803C209.376 668.286 199.112 670.83 188.651 671.283C177.546 671.708 166.472 669.86 156.108 665.85C145.744 661.841 136.309 655.756 128.383 647.969L120.744 655.643C133.322 667.535 148.836 675.873 165.697 679.801C185.394 683.793 205.856 681.213 223.945 672.458C240.824 664.964 254.791 652.161 263.72 636C270.98 621.658 274.862 605.847 275.069 589.775C274.848 553.059 300.777 528.129 300.777 528.129C312.732 515.609 328.027 506.779 344.849 502.685C351.27 501.069 357.879 500.328 364.498 500.482Z" fill="#00B39F"/>
<path d="M583.793 668.921C573.328 668.448 563.062 665.894 553.597 661.407C544.133 656.92 535.661 650.591 528.678 642.791C507.734 622.313 507.109 592.661 507.109 592.661C505.456 551.595 530.772 532.401 530.772 532.401L464.634 466.344C451.21 480.774 434.55 491.817 416.022 498.565C437.31 500.761 457.102 510.515 471.799 526.053C471.799 526.053 497.519 550.787 497.519 587.67C497.722 603.682 501.553 619.441 508.726 633.763C517.667 649.925 531.654 662.723 548.556 670.205C566.653 678.956 587.125 681.534 606.831 677.545C623.648 673.582 639.107 665.222 651.622 653.324L643.979 645.654C636.062 653.42 626.64 659.49 616.29 663.491C605.941 667.492 594.883 669.34 583.793 668.921Z" fill="#00B39F"/>
<path d="M496.123 409.718L493.919 411.993C488.738 432.297 478.529 450.975 464.23 466.307L530.368 532.365C530.368 532.365 549.585 507.189 590.738 508.841C590.738 508.841 620.427 509.465 640.93 530.383C648.744 537.352 655.081 545.813 659.568 555.267C664.055 564.722 666.6 574.978 667.055 585.431C667.48 596.528 665.63 607.594 661.617 617.95C657.605 628.306 651.515 637.734 643.722 645.654L651.402 653.287C663.304 640.718 671.647 625.216 675.579 608.368C679.573 588.686 676.992 568.239 668.23 550.164C660.73 533.298 647.918 519.341 631.744 510.419C617.392 503.165 601.568 499.286 585.484 499.079C548.74 499.299 523.791 473.39 523.791 473.39C511.262 461.444 502.425 446.161 498.328 429.351C496.711 422.936 495.969 416.332 496.123 409.718Z" fill="#00D3A9"/>
<path d="M446.49 36.7158C453.558 44.4402 459.009 53.4997 462.522 63.3614C466.035 73.223 467.54 83.6876 466.947 94.1392C467.278 123.512 446.747 144.844 446.747 144.844C418.835 175.061 387.434 170.838 387.434 170.838V263.876C397.867 263.802 408.268 265.035 418.394 267.547L416.117 265.344C422.803 265.479 429.475 264.701 435.95 263.031C428.145 248.978 424.24 233.095 424.638 217.027C424.638 217.027 423.83 181.229 450.089 155.308C461.267 143.777 469.669 129.852 474.66 114.59C479.792 96.85 478.967 77.9171 472.309 60.6912C465.623 41.8372 452.959 25.6829 436.244 14.6864C421.565 5.54791 404.719 0.479034 387.434 0.000152588V10.7946C398.523 10.8751 409.48 13.2152 419.634 17.6721C429.788 22.1289 438.926 28.6089 446.49 36.7158Z" fill="#00D3A9"/>
<path d="M356.326 265.051L352.433 268.722C363.798 265.441 375.567 263.772 387.397 263.766V171.022C387.397 171.022 355.995 175.244 328.12 145.027C328.12 145.027 307.553 123.622 307.884 94.3227C307.276 83.8358 308.78 73.3336 312.306 63.4384C315.833 53.5432 321.31 44.4562 328.414 36.7158C335.969 28.5744 345.107 22.06 355.268 17.5713C365.428 13.0827 376.399 10.7142 387.507 10.6109V6.10352e-05C370.222 0.478943 353.375 5.54782 338.697 14.6863C321.939 25.7736 309.282 42.0511 302.668 61.0215C296.011 78.2475 295.185 97.1803 300.318 114.92C305.285 130.116 313.636 143.988 324.741 155.491C351.001 181.412 350.193 217.21 350.193 217.21C350.597 233.335 346.665 249.273 338.807 263.362C344.551 264.667 350.438 265.234 356.326 265.051Z" fill="#00B39F"/>
<path d="M446.49 721.005C453.558 713.281 459.009 704.221 462.522 694.359C466.035 684.498 467.54 674.033 466.947 663.582C467.278 634.209 446.747 612.877 446.747 612.877C418.835 582.66 387.434 586.882 387.434 586.882V493.845C397.867 493.919 408.268 492.685 418.394 490.173L416.117 492.376C422.803 492.241 429.475 493.02 435.95 494.689C428.145 508.742 424.24 524.625 424.638 540.694C424.638 540.694 423.83 576.492 450.089 602.413C461.267 613.944 469.669 627.869 474.66 643.131C479.792 660.871 478.967 679.804 472.309 697.03C465.623 715.884 452.959 732.038 436.244 743.034C421.565 752.173 404.719 757.242 387.434 757.721V746.926C398.523 746.846 409.48 744.505 419.634 740.049C429.788 735.592 438.926 729.112 446.49 721.005Z" fill="#00D3A9"/>
<path d="M356.326 492.67L352.433 488.999C363.798 492.28 375.567 493.948 387.397 493.955V586.699C387.397 586.699 355.995 582.477 328.12 612.694C328.12 612.694 307.553 634.099 307.884 663.398C307.276 673.885 308.78 684.387 312.306 694.282C315.833 704.178 321.31 713.265 328.414 721.005C335.969 729.146 345.107 735.661 355.268 740.149C365.428 744.638 376.399 747.006 387.507 747.11V757.721C370.222 757.242 353.375 752.173 338.697 743.034C321.939 731.947 309.282 715.67 302.668 696.699C296.011 679.473 295.185 660.54 300.318 642.801C305.285 627.605 313.636 613.733 324.741 602.23C351.001 576.308 350.193 540.511 350.193 540.511C350.597 524.385 346.665 508.447 338.807 494.359C344.551 493.054 350.438 492.487 356.326 492.67Z" fill="#00B39F"/>
<path d="M181.235 87.2772C191.666 87.6814 201.912 90.1627 211.371 94.5759C220.831 98.9892 229.315 105.245 236.325 112.978C257.406 133.355 258.14 163.022 258.14 163.022C260.05 204.107 234.966 223.456 234.966 223.456L302.69 290.499C317.194 276.621 334.832 266.445 354.107 260.832L358 257.161C352.112 257.344 346.225 256.777 340.481 255.472C322.788 251.758 306.624 242.802 294.096 229.771C294.096 229.771 268.02 204.951 268.057 168.235C267.712 152.189 263.718 136.431 256.377 122.157C247.378 106.036 233.343 93.3069 216.419 85.9187C198.282 77.2676 177.806 74.8041 158.134 78.906C141.311 82.918 125.86 91.3322 113.364 103.285L121.04 110.885C128.933 103.055 138.344 96.9207 148.696 92.8607C159.048 88.8008 170.121 86.9007 181.235 87.2772Z" fill="#00D3A9"/>
<path d="M303.052 290.499L235.401 223.603C235.401 223.603 216.303 248.9 175.17 247.468C175.17 247.468 145.495 246.99 124.891 226.173C117.03 219.224 110.643 210.769 106.108 201.31C101.572 191.85 98.9799 181.578 98.4846 171.099C98.0001 159.997 99.7895 148.914 103.743 138.528C107.696 128.142 113.731 118.673 121.475 110.702L113.763 103.138C101.92 115.715 93.6307 131.211 89.7436 148.042C85.839 167.749 88.5097 188.192 97.346 206.236C104.933 223.078 117.834 236.968 134.073 245.779C148.448 252.916 164.261 256.683 180.311 256.794C217.038 256.353 242.122 282.091 242.122 282.091C255.838 294.974 265.164 311.835 268.786 330.298C271.954 328.408 274.985 326.298 277.857 323.983C284.317 311.488 292.834 300.168 303.052 290.499Z" fill="#00B39F"/>
<path d="M737.531 437.404C729.811 444.468 720.755 449.917 710.897 453.429C701.038 456.941 690.576 458.446 680.127 457.854C650.746 458.185 629.408 437.661 629.408 437.661C599.145 409.757 603.369 378.365 603.369 378.365H510.524V378.732C510.604 399.337 505.556 419.639 495.833 437.808C512.758 422.943 534.684 415.033 557.203 415.668C557.203 415.668 593.012 414.86 618.941 441.112C630.475 452.286 644.404 460.686 659.671 465.675C677.416 470.806 696.354 469.98 713.585 463.325C732.528 456.647 748.758 443.943 759.787 427.16C768.929 412.486 773.999 395.645 774.478 378.365H763.68C763.574 389.467 761.199 400.431 756.703 410.583C752.206 420.735 745.682 429.862 737.531 437.404Z" fill="#00D3A9"/>
<path d="M510.524 378.563L603.369 378.562C603.369 378.562 599.145 347.171 629.408 319.267C629.408 319.267 650.82 298.706 680.127 299.036C690.576 298.445 701.038 299.949 710.897 303.462C720.755 306.974 729.811 312.423 737.531 319.487C745.683 327.035 752.208 336.169 756.704 346.327C761.201 356.485 763.574 367.455 763.68 378.562H774.478C774.005 361.27 768.935 344.415 759.787 329.731C748.697 312.977 732.415 300.324 713.438 293.713C696.207 287.057 677.269 286.232 659.524 291.363C644.257 296.352 630.328 304.752 618.794 315.926C592.865 342.177 557.057 341.37 557.057 341.37C538.348 341.857 519.953 336.506 504.427 326.059C503.703 329.368 503.163 332.714 502.811 336.082C507.821 349.69 510.431 364.063 510.524 378.563Z" fill="#00B39F"/>
<path d="M675.48 168.328C675.007 178.786 672.451 189.044 667.961 198.501C663.47 207.958 657.137 216.424 649.331 223.402C628.837 244.33 599.162 244.954 599.162 244.954C558.065 246.606 538.857 221.309 538.857 221.309L472.749 287.397C487.191 300.81 498.242 317.458 504.995 335.972C507.193 314.7 516.954 294.923 532.503 280.238C532.503 280.238 557.257 254.537 594.167 254.537C610.192 254.335 625.963 250.506 640.296 243.338C656.47 234.405 669.278 220.427 676.766 203.539C685.523 185.455 688.103 164.999 684.111 145.308C680.145 128.504 671.779 113.057 659.871 100.551L652.195 108.188C659.968 116.099 666.042 125.514 670.046 135.856C674.05 146.197 675.899 157.247 675.48 168.328Z" fill="#00B39F"/>
<path d="M416.08 255.528L418.357 257.731C438.677 262.907 457.368 273.109 472.712 287.397L538.82 221.309C538.82 221.309 513.626 202.106 515.279 160.985C515.279 160.985 515.903 131.319 536.837 110.831C543.811 103.023 552.279 96.6907 561.74 92.2072C571.202 87.7237 581.466 85.1801 591.927 84.7264C603.032 84.3013 614.106 86.1502 624.47 90.1595C634.834 94.1688 644.269 100.254 652.195 108.041L659.834 100.367C647.256 88.4745 631.742 80.137 614.881 76.2084C595.184 72.2171 574.722 74.7968 556.633 83.5515C539.754 91.0459 525.787 103.848 516.858 120.01C509.598 134.352 505.716 150.163 505.509 166.235C505.73 202.951 479.801 227.881 479.801 227.881C467.846 240.401 452.551 249.231 435.729 253.325C429.308 254.941 422.699 255.682 416.08 255.528Z" fill="#00D3A9"/>
<path d="M41.0938 318.836C48.8372 311.791 57.91 306.363 67.78 302.87C77.65 299.377 88.1184 297.89 98.571 298.496C127.952 298.275 149.217 318.836 149.217 318.836C179.406 346.813 174.926 378.205 174.926 378.205L266.338 378.462V378.242C266.318 358.593 270.95 339.218 279.854 321.7C276.981 324.015 273.95 326.125 270.782 328.015C255.932 337.074 238.775 341.64 221.385 341.159C221.385 341.159 185.576 341.894 159.721 315.458C148.208 304.257 134.291 295.831 119.028 290.822C101.299 285.644 82.3604 286.418 65.1131 293.025C46.1374 299.616 29.836 312.225 18.6906 328.933C9.56396 343.613 4.49478 360.451 4 377.728H14.7609C14.9109 366.637 17.3237 355.693 21.8516 345.567C26.3795 335.441 32.9272 326.345 41.0938 318.836Z" fill="#00B39F"/>
<path d="M175.109 378.242C175.109 378.242 179.259 409.634 148.96 437.465C148.96 437.465 127.512 457.952 98.2039 457.585C87.7515 458.143 77.2928 456.609 67.4416 453.072C57.5905 449.535 48.5453 444.067 40.8369 436.987C32.6956 429.423 26.1888 420.273 21.717 410.101C17.2452 399.929 14.903 388.949 14.8345 377.838H4.07355C4.45404 395.104 9.42294 411.958 18.4704 426.67C29.5063 443.493 45.7651 456.225 64.7459 462.909C81.9566 469.579 100.877 470.443 118.624 465.369C133.908 460.407 147.861 452.032 159.427 440.879C185.43 414.701 221.201 415.582 221.201 415.582C242.786 415.037 263.839 422.313 280.478 436.069C271.188 418.287 266.337 398.524 266.338 378.462L175.109 378.242Z" fill="#00D3A9"/>
<g filter="url(#filter1_d_13980_18356)">
<path d="M512 378.534C511.968 361.422 508.418 344.499 501.569 328.816C494.721 313.133 484.72 299.025 472.188 287.369C449.056 265.734 418.549 253.721 386.872 253.774C375.043 253.781 363.273 255.449 351.908 258.731C332.633 264.343 314.995 274.52 300.491 288.397C288.24 300.072 278.491 314.116 271.837 329.674C265.182 345.232 261.761 361.98 261.781 378.901V379.158C262.371 411.958 275.827 443.214 299.249 466.191C322.67 489.168 354.184 502.027 386.999 501.998C419.814 501.969 451.304 489.054 474.685 466.036C498.067 443.018 511.467 411.739 512 378.938V378.534ZM386.872 485.927C365.698 485.927 344.999 479.65 327.394 467.89C309.788 456.13 296.066 439.415 287.963 419.858C279.86 400.302 277.74 378.782 281.871 358.021C286.002 337.26 296.198 318.19 311.17 303.222C326.143 288.254 345.219 278.061 365.986 273.931C386.753 269.802 408.279 271.921 427.841 280.022C447.404 288.122 464.124 301.84 475.887 319.44C487.651 337.041 493.93 357.733 493.93 378.901C493.93 407.286 482.651 434.509 462.573 454.58C442.496 474.651 415.266 485.927 386.872 485.927Z" fill="#252E31"/>
</g>
<path d="M358.222 271.664C297.004 286.109 259.091 347.43 273.539 408.629C287.988 469.829 349.327 507.731 410.545 493.287C471.763 478.842 509.676 417.521 495.228 356.322C480.779 295.122 419.439 257.22 358.222 271.664Z" fill="#252E31"/>
<g filter="url(#filter2_d_13980_18356)">
<circle cx="388" cy="91" r="82" fill="#252E31"/>
</g>
<g filter="url(#filter3_d_13980_18356)">
<circle cx="82" cy="82" r="82" transform="matrix(1 0 0 -1 306 748.721)" fill="#252E31"/>
</g>
<g filter="url(#filter4_d_13980_18356)">
<circle cx="596" cy="164" r="82" fill="#252E31"/>
</g>
<g filter="url(#filter5_d_13980_18356)">
<circle cx="684" cy="379" r="82" fill="#252E31"/>
</g>
<g filter="url(#filter6_d_13980_18356)">
<circle cx="588" cy="590" r="82" fill="#252E31"/>
</g>
<g filter="url(#filter7_d_13980_18356)">
<circle cx="186" cy="590" r="82" fill="#252E31"/>
</g>
<g filter="url(#filter8_d_13980_18356)">
<circle cx="95" cy="378" r="82" fill="#252E31"/>
</g>
<g filter="url(#filter9_d_13980_18356)">
<circle cx="178" cy="167" r="82" fill="#252E31"/>
</g>
<path d="M126.374 198.338C120.81 198.338 116.858 194.152 116.858 188.9C116.858 183.674 120.81 179.488 126.374 179.488C130.248 179.488 133.602 181.802 134.824 185.156C134.928 185.546 134.746 185.78 134.356 185.78H132.9C132.614 185.78 132.406 185.65 132.25 185.364C131.288 183.232 129 181.828 126.374 181.828C122.136 181.828 119.276 184.922 119.276 188.9C119.276 192.904 122.136 195.998 126.374 195.998C129 195.998 131.288 194.594 132.25 192.462C132.406 192.176 132.614 192.02 132.9 192.02H134.356C134.746 192.02 134.954 192.28 134.824 192.618C133.628 195.998 130.274 198.338 126.374 198.338ZM143.374 198.338C139.552 198.338 136.51 195.374 136.51 191.5C136.51 187.652 139.552 184.688 143.374 184.688C147.17 184.688 150.212 187.652 150.212 191.5C150.212 195.374 147.17 198.338 143.374 198.338ZM143.374 196.128C145.948 196.128 147.95 194.126 147.95 191.5C147.95 188.874 145.948 186.872 143.374 186.872C140.774 186.872 138.772 188.874 138.772 191.5C138.772 194.126 140.774 196.128 143.374 196.128ZM165.644 184.688C167.932 184.688 169.726 186.248 169.726 189.238V197.454C169.726 197.818 169.544 198 169.18 198H168.036C167.672 198 167.464 197.818 167.464 197.454V189.342C167.464 187.522 166.424 186.82 165.202 186.82C164.032 186.82 162.446 187.548 162.446 190.096V197.454C162.446 197.818 162.264 198 161.9 198H160.73C160.392 198 160.184 197.818 160.184 197.454V189.342C160.184 187.522 159.144 186.82 157.922 186.82C156.752 186.82 155.166 187.548 155.166 190.096V197.454C155.166 197.818 154.958 198 154.62 198H153.45C153.086 198 152.904 197.818 152.904 197.454V185.572C152.904 185.208 153.086 185 153.45 185H154.62C154.958 185 155.166 185.208 155.166 185.572V186.43C156.05 185.156 157.272 184.688 158.52 184.688C159.924 184.688 161.198 185.39 161.9 186.716C162.862 185.208 164.188 184.688 165.644 184.688ZM185.602 184.688C187.89 184.688 189.684 186.248 189.684 189.238V197.454C189.684 197.818 189.502 198 189.138 198H187.994C187.63 198 187.422 197.818 187.422 197.454V189.342C187.422 187.522 186.382 186.82 185.16 186.82C183.99 186.82 182.404 187.548 182.404 190.096V197.454C182.404 197.818 182.222 198 181.858 198H180.688C180.35 198 180.142 197.818 180.142 197.454V189.342C180.142 187.522 179.102 186.82 177.88 186.82C176.71 186.82 175.124 187.548 175.124 190.096V197.454C175.124 197.818 174.916 198 174.578 198H173.408C173.044 198 172.862 197.818 172.862 197.454V185.572C172.862 185.208 173.044 185 173.408 185H174.578C174.916 185 175.124 185.208 175.124 185.572V186.43C176.008 185.156 177.23 184.688 178.478 184.688C179.882 184.688 181.156 185.39 181.858 186.716C182.82 185.208 184.146 184.688 185.602 184.688ZM198.799 184.688C202.725 184.688 205.169 187.886 205.169 191.552C205.169 191.708 205.169 191.864 205.169 192.02C205.143 192.384 204.909 192.54 204.571 192.54H202.881H194.405C194.795 194.932 196.563 196.31 198.851 196.31C200.359 196.31 201.529 195.66 202.127 194.75C202.309 194.516 202.491 194.386 202.803 194.386H204.051C204.467 194.386 204.675 194.62 204.519 194.958C203.609 197.012 201.477 198.338 198.825 198.338C194.769 198.338 192.065 195.426 192.065 191.5C192.065 187.678 194.743 184.688 198.799 184.688ZM194.405 190.564H202.881C202.543 188.016 200.749 186.794 198.799 186.794C196.381 186.794 194.743 188.302 194.405 190.564ZM213.782 184.688C216.2 184.688 218.124 186.508 218.124 189.576V197.454C218.124 197.818 217.942 198 217.578 198H216.434C216.07 198 215.862 197.818 215.862 197.454V189.654C215.862 187.782 214.718 186.82 213.184 186.82C211.546 186.82 209.934 187.808 209.934 190.616V197.454C209.934 197.818 209.726 198 209.388 198H208.218C207.854 198 207.672 197.818 207.672 197.454V185.572C207.672 185.208 207.854 185 208.218 185H209.388C209.726 185 209.934 185.208 209.934 185.572V186.612C210.87 185.208 212.196 184.688 213.782 184.688ZM226.871 185C227.235 185 227.417 185.208 227.417 185.572V186.638C227.417 187.002 227.235 187.184 226.871 187.184H224.869V197.454C224.869 197.818 224.687 198 224.323 198H223.153C222.815 198 222.607 197.818 222.607 197.454V187.184H220.605C220.241 187.184 220.033 187.002 220.033 186.638V185.572C220.033 185.208 220.241 185 220.605 185H222.607V181.412C222.607 181.048 222.815 180.84 223.153 180.84H224.323C224.687 180.84 224.869 181.048 224.869 181.412V185H226.871ZM231.278 188.536C231.278 191.5 238.714 189.576 238.714 194.49C238.714 196.83 236.634 198.338 233.748 198.338C231.07 198.338 229.094 197.012 228.808 194.698C228.782 194.308 229.016 194.126 229.354 194.126H230.498C230.836 194.126 230.992 194.308 231.096 194.62C231.33 195.816 232.448 196.232 233.748 196.232C235.256 196.232 236.452 195.712 236.452 194.49C236.452 191.526 229.016 193.45 229.016 188.536C229.016 186.196 231.096 184.688 233.748 184.688C236.192 184.688 238.142 185.988 238.402 188.328C238.454 188.718 238.22 188.9 237.856 188.9H236.712C236.4 188.9 236.244 188.718 236.14 188.38C235.906 187.21 234.84 186.768 233.748 186.768C232.474 186.768 231.278 187.314 231.278 188.536Z" fill="#EEEEEE"/>
<path d="M129.557 154.406C130.142 154.406 130.454 154.718 130.454 155.342V158.462C130.454 159.047 130.142 159.359 129.557 159.359H127.529V163.103C127.529 163.688 127.217 164 126.632 164H123.044C122.459 164 122.108 163.688 122.108 163.103V159.359H109.862C109.238 159.359 108.926 159.047 108.926 158.462V154.991C108.926 154.601 109.004 154.25 109.199 153.86L117.623 137.363C117.857 136.934 118.208 136.7 118.715 136.7H122.537C123.239 136.7 123.512 137.168 123.2 137.831L114.698 154.406H122.108V148.868C122.108 148.244 122.459 147.932 123.044 147.932H126.632C127.217 147.932 127.529 148.244 127.529 148.868V154.406H129.557ZM142.074 146.645C147.222 146.645 151.512 149.726 151.512 155.615C151.512 161.465 146.91 164.546 141.762 164.546C136.926 164.546 132.558 161.777 132.051 156.551C132.012 155.927 132.402 155.615 132.987 155.615H136.536C137.082 155.615 137.355 155.888 137.472 156.473C137.823 158.228 139.383 159.32 141.762 159.32C144.609 159.32 146.169 157.799 146.169 155.615C146.169 153.392 144.609 151.871 141.762 151.871H134.235C133.65 151.871 133.299 151.52 133.338 150.935L134.313 137.597C134.352 137.051 134.703 136.7 135.249 136.7H149.328C149.913 136.7 150.264 137.051 150.264 137.636V140.834C150.264 141.419 149.913 141.731 149.328 141.731H139.383L139.032 146.645H142.074ZM164.572 164.546C157.591 164.546 153.652 158.774 153.652 150.35C153.652 141.926 157.591 136.193 164.572 136.193C171.514 136.193 175.492 141.926 175.492 150.35C175.492 158.774 171.514 164.546 164.572 164.546ZM164.572 159.32C168.199 159.32 170.11 156.122 170.11 150.35C170.11 144.578 168.199 141.419 164.572 141.419C160.906 141.419 158.995 144.578 158.995 150.35C158.995 156.122 160.906 159.32 164.572 159.32ZM189.137 164.546C182.156 164.546 178.217 158.774 178.217 150.35C178.217 141.926 182.156 136.193 189.137 136.193C196.079 136.193 200.057 141.926 200.057 150.35C200.057 158.774 196.079 164.546 189.137 164.546ZM189.137 159.32C192.764 159.32 194.675 156.122 194.675 150.35C194.675 144.578 192.764 141.419 189.137 141.419C185.471 141.419 183.56 144.578 183.56 150.35C183.56 156.122 185.471 159.32 189.137 159.32ZM213.703 164.546C206.722 164.546 202.783 158.774 202.783 150.35C202.783 141.926 206.722 136.193 213.703 136.193C220.645 136.193 224.623 141.926 224.623 150.35C224.623 158.774 220.645 164.546 213.703 164.546ZM213.703 159.32C217.33 159.32 219.241 156.122 219.241 150.35C219.241 144.578 217.33 141.419 213.703 141.419C210.037 141.419 208.126 144.578 208.126 150.35C208.126 156.122 210.037 159.32 213.703 159.32ZM244.625 148.01C245.249 148.01 245.561 148.322 245.561 148.946V151.793C245.561 152.378 245.249 152.729 244.625 152.729H239.165V158.228C239.165 158.813 238.814 159.125 238.229 159.125H235.343C234.758 159.125 234.446 158.813 234.446 158.228V152.729H228.947C228.362 152.729 228.011 152.378 228.011 151.793V148.946C228.011 148.322 228.362 148.01 228.947 148.01H234.446V142.511C234.446 141.926 234.758 141.575 235.343 141.575H238.229C238.814 141.575 239.165 141.926 239.165 142.511V148.01H244.625Z" fill="#EEEEEE"/>
<path d="M635.866 407.364C629.874 407.364 625.618 402.856 625.618 397.2C625.618 391.572 629.874 387.064 635.866 387.064C640.038 387.064 643.65 389.556 644.966 393.168C645.078 393.588 644.882 393.84 644.462 393.84H642.894C642.586 393.84 642.362 393.7 642.194 393.392C641.158 391.096 638.694 389.584 635.866 389.584C631.302 389.584 628.222 392.916 628.222 397.2C628.222 401.512 631.302 404.844 635.866 404.844C638.694 404.844 641.158 403.332 642.194 401.036C642.362 400.728 642.586 400.56 642.894 400.56H644.462C644.882 400.56 645.106 400.84 644.966 401.204C643.678 404.844 640.066 407.364 635.866 407.364ZM654.174 407.364C650.058 407.364 646.782 404.172 646.782 400C646.782 395.856 650.058 392.664 654.174 392.664C658.262 392.664 661.538 395.856 661.538 400C661.538 404.172 658.262 407.364 654.174 407.364ZM654.174 404.984C656.946 404.984 659.102 402.828 659.102 400C659.102 397.172 656.946 395.016 654.174 395.016C651.374 395.016 649.218 397.172 649.218 400C649.218 402.828 651.374 404.984 654.174 404.984ZM674.77 393C675.134 393 675.358 393.224 675.358 393.616V406.412C675.358 406.804 675.134 407 674.77 407H673.51C673.118 407 672.922 406.804 672.922 406.412V405.292C671.914 406.804 670.458 407.364 668.778 407.364C666.174 407.364 664.102 405.376 664.102 402.1V393.616C664.102 393.224 664.298 393 664.69 393H665.922C666.314 393 666.538 393.224 666.538 393.616V402.016C666.538 404.004 667.77 405.04 669.422 405.04C671.186 405.04 672.922 404.004 672.922 400.98V393.616C672.922 393.224 673.146 393 673.51 393H674.77ZM685.674 392.664C688.278 392.664 690.35 394.624 690.35 397.928V406.412C690.35 406.804 690.154 407 689.762 407H688.53C688.138 407 687.914 406.804 687.914 406.412V398.012C687.914 395.996 686.682 394.96 685.03 394.96C683.266 394.96 681.53 396.024 681.53 399.048V406.412C681.53 406.804 681.306 407 680.942 407H679.682C679.29 407 679.094 406.804 679.094 406.412V393.616C679.094 393.224 679.29 393 679.682 393H680.942C681.306 393 681.53 393.224 681.53 393.616V394.736C682.538 393.224 683.966 392.664 685.674 392.664ZM699.77 393C700.162 393 700.358 393.224 700.358 393.616V394.764C700.358 395.156 700.162 395.352 699.77 395.352H697.614V406.412C697.614 406.804 697.418 407 697.026 407H695.766C695.402 407 695.178 406.804 695.178 406.412V395.352H693.022C692.63 395.352 692.406 395.156 692.406 394.764V393.616C692.406 393.224 692.63 393 693.022 393H695.178V389.136C695.178 388.744 695.402 388.52 695.766 388.52H697.026C697.418 388.52 697.614 388.744 697.614 389.136V393H699.77ZM708.795 392.804C709.187 392.776 709.411 393 709.411 393.392V394.708C709.411 395.072 709.243 395.296 708.991 395.296C707.031 395.38 705.183 396.5 705.183 399.524V406.412C705.183 406.804 704.959 407.028 704.595 407.028H703.335C702.943 407.028 702.747 406.804 702.747 406.412V393.616C702.747 393.224 702.943 393.028 703.335 393.028H704.595C704.959 393.028 705.183 393.224 705.183 393.616V395.128C706.023 393.588 707.339 392.944 708.795 392.804ZM712.358 390.48C711.966 390.48 711.77 390.284 711.77 389.892V388.016C711.77 387.624 711.966 387.4 712.358 387.4H713.618C713.982 387.4 714.206 387.624 714.206 388.016V389.892C714.206 390.284 713.982 390.48 713.618 390.48H712.358ZM712.358 407C711.966 407 711.77 406.804 711.77 406.412V393.616C711.77 393.224 711.966 393 712.358 393H713.618C713.982 393 714.206 393.224 714.206 393.616V406.412C714.206 406.804 713.982 407 713.618 407H712.358ZM724.362 392.664C728.59 392.664 731.222 396.108 731.222 400.056C731.222 400.224 731.222 400.392 731.222 400.56C731.194 400.952 730.942 401.12 730.578 401.12H728.758H719.63C720.05 403.696 721.954 405.18 724.418 405.18C726.042 405.18 727.302 404.48 727.946 403.5C728.142 403.248 728.338 403.108 728.674 403.108H730.018C730.466 403.108 730.69 403.36 730.522 403.724C729.542 405.936 727.246 407.364 724.39 407.364C720.022 407.364 717.11 404.228 717.11 400C717.11 395.884 719.994 392.664 724.362 392.664ZM719.63 398.992H728.758C728.394 396.248 726.462 394.932 724.362 394.932C721.758 394.932 719.994 396.556 719.63 398.992ZM735.934 396.808C735.934 400 743.942 397.928 743.942 403.22C743.942 405.74 741.702 407.364 738.594 407.364C735.71 407.364 733.582 405.936 733.274 403.444C733.246 403.024 733.498 402.828 733.862 402.828H735.094C735.458 402.828 735.626 403.024 735.738 403.36C735.99 404.648 737.194 405.096 738.594 405.096C740.218 405.096 741.506 404.536 741.506 403.22C741.506 400.028 733.498 402.1 733.498 396.808C733.498 394.288 735.738 392.664 738.594 392.664C741.226 392.664 743.326 394.064 743.606 396.584C743.662 397.004 743.41 397.2 743.018 397.2H741.786C741.45 397.2 741.282 397.004 741.17 396.64C740.918 395.38 739.77 394.904 738.594 394.904C737.222 394.904 735.934 395.492 735.934 396.808Z" fill="#EEEEEE"/>
<path d="M671.806 361.406C672.391 361.406 672.703 361.718 672.703 362.342V365.462C672.703 366.047 672.391 366.359 671.806 366.359H669.778V370.103C669.778 370.688 669.466 371 668.881 371H665.293C664.708 371 664.357 370.688 664.357 370.103V366.359H652.111C651.487 366.359 651.175 366.047 651.175 365.462V361.991C651.175 361.601 651.253 361.25 651.448 360.86L659.872 344.363C660.106 343.934 660.457 343.7 660.964 343.7H664.786C665.488 343.7 665.761 344.168 665.449 344.831L656.947 361.406H664.357V355.868C664.357 355.244 664.708 354.932 665.293 354.932H668.881C669.466 354.932 669.778 355.244 669.778 355.868V361.406H671.806ZM685.454 371.546C678.473 371.546 674.534 365.774 674.534 357.35C674.534 348.926 678.473 343.193 685.454 343.193C692.396 343.193 696.374 348.926 696.374 357.35C696.374 365.774 692.396 371.546 685.454 371.546ZM685.454 366.32C689.081 366.32 690.992 363.122 690.992 357.35C690.992 351.578 689.081 348.419 685.454 348.419C681.788 348.419 679.877 351.578 679.877 357.35C679.877 363.122 681.788 366.32 685.454 366.32ZM716.376 355.01C717 355.01 717.312 355.322 717.312 355.946V358.793C717.312 359.378 717 359.729 716.376 359.729H710.916V365.228C710.916 365.813 710.565 366.125 709.98 366.125H707.094C706.509 366.125 706.197 365.813 706.197 365.228V359.729H700.698C700.113 359.729 699.762 359.378 699.762 358.793V355.946C699.762 355.322 700.113 355.01 700.698 355.01H706.197V349.511C706.197 348.926 706.509 348.575 707.094 348.575H709.98C710.565 348.575 710.916 348.926 710.916 349.511V355.01H716.376Z" fill="#EEEEEE"/>
<path d="M36.0101 407.325C30.6601 407.325 26.8601 403.3 26.8601 398.25C26.8601 393.225 30.6601 389.2 36.0101 389.2C39.7351 389.2 42.9601 391.425 44.1351 394.65C44.2351 395.025 44.0601 395.25 43.6851 395.25H42.2851C42.0101 395.25 41.8101 395.125 41.6601 394.85C40.7351 392.8 38.5351 391.45 36.0101 391.45C31.9351 391.45 29.1851 394.425 29.1851 398.25C29.1851 402.1 31.9351 405.075 36.0101 405.075C38.5351 405.075 40.7351 403.725 41.6601 401.675C41.8101 401.4 42.0101 401.25 42.2851 401.25H43.6851C44.0601 401.25 44.2601 401.5 44.1351 401.825C42.9851 405.075 39.7601 407.325 36.0101 407.325ZM52.3565 407.325C48.6815 407.325 45.7565 404.475 45.7565 400.75C45.7565 397.05 48.6815 394.2 52.3565 394.2C56.0065 394.2 58.9315 397.05 58.9315 400.75C58.9315 404.475 56.0065 407.325 52.3565 407.325ZM52.3565 405.2C54.8315 405.2 56.7565 403.275 56.7565 400.75C56.7565 398.225 54.8315 396.3 52.3565 396.3C49.8565 396.3 47.9315 398.225 47.9315 400.75C47.9315 403.275 49.8565 405.2 52.3565 405.2ZM67.3956 394.2C69.7206 394.2 71.5706 395.95 71.5706 398.9V406.475C71.5706 406.825 71.3956 407 71.0456 407H69.9456C69.5956 407 69.3956 406.825 69.3956 406.475V398.975C69.3956 397.175 68.2956 396.25 66.8206 396.25C65.2456 396.25 63.6956 397.2 63.6956 399.9V406.475C63.6956 406.825 63.4956 407 63.1706 407H62.0456C61.6956 407 61.5206 406.825 61.5206 406.475V395.05C61.5206 394.7 61.6956 394.5 62.0456 394.5H63.1706C63.4956 394.5 63.6956 394.7 63.6956 395.05V396.05C64.5956 394.7 65.8706 394.2 67.3956 394.2ZM79.9815 394.5C80.3315 394.5 80.5065 394.7 80.5065 395.05V396.075C80.5065 396.425 80.3315 396.6 79.9815 396.6H78.0565V406.475C78.0565 406.825 77.8815 407 77.5315 407H76.4065C76.0815 407 75.8815 406.825 75.8815 406.475V396.6H73.9565C73.6065 396.6 73.4065 396.425 73.4065 396.075V395.05C73.4065 394.7 73.6065 394.5 73.9565 394.5H75.8815V391.05C75.8815 390.7 76.0815 390.5 76.4065 390.5H77.5315C77.8815 390.5 78.0565 390.7 78.0565 391.05V394.5H79.9815ZM88.0388 394.325C88.3888 394.3 88.5888 394.5 88.5888 394.85V396.025C88.5888 396.35 88.4388 396.55 88.2138 396.55C86.4638 396.625 84.8138 397.625 84.8138 400.325V406.475C84.8138 406.825 84.6138 407.025 84.2888 407.025H83.1638C82.8138 407.025 82.6388 406.825 82.6388 406.475V395.05C82.6388 394.7 82.8138 394.525 83.1638 394.525H84.2888C84.6138 394.525 84.8138 394.7 84.8138 395.05V396.4C85.5638 395.025 86.7388 394.45 88.0388 394.325ZM91.2204 392.25C90.8704 392.25 90.6954 392.075 90.6954 391.725V390.05C90.6954 389.7 90.8704 389.5 91.2204 389.5H92.3454C92.6704 389.5 92.8704 389.7 92.8704 390.05V391.725C92.8704 392.075 92.6704 392.25 92.3454 392.25H91.2204ZM91.2204 407C90.8704 407 90.6954 406.825 90.6954 406.475V395.05C90.6954 394.7 90.8704 394.5 91.2204 394.5H92.3454C92.6704 394.5 92.8704 394.7 92.8704 395.05V406.475C92.8704 406.825 92.6704 407 92.3454 407H91.2204ZM103.089 394.2C106.539 394.2 109.414 397.05 109.414 400.75C109.414 404.475 106.539 407.325 103.089 407.325C100.964 407.325 99.3636 406.4 98.3636 404.9V406.475C98.3636 406.825 98.1636 407 97.8386 407H96.7136C96.3636 407 96.1886 406.825 96.1886 406.475V390.05C96.1886 389.7 96.3636 389.5 96.7136 389.5H97.8386C98.1636 389.5 98.3636 389.7 98.3636 390.05V396.625C99.3636 395.125 100.964 394.2 103.089 394.2ZM102.789 405.225C105.314 405.225 107.239 403.3 107.239 400.75C107.239 398.2 105.314 396.275 102.789 396.275C100.289 396.275 98.3636 398.2 98.3636 400.75C98.3636 403.3 100.289 405.225 102.789 405.225ZM121.234 394.5C121.559 394.5 121.759 394.7 121.759 395.05V406.475C121.759 406.825 121.559 407 121.234 407H120.109C119.759 407 119.584 406.825 119.584 406.475V405.475C118.684 406.825 117.384 407.325 115.884 407.325C113.559 407.325 111.709 405.55 111.709 402.625V395.05C111.709 394.7 111.884 394.5 112.234 394.5H113.334C113.684 394.5 113.884 394.7 113.884 395.05V402.55C113.884 404.325 114.984 405.25 116.459 405.25C118.034 405.25 119.584 404.325 119.584 401.625V395.05C119.584 394.7 119.784 394.5 120.109 394.5H121.234ZM130.47 394.5C130.82 394.5 130.995 394.7 130.995 395.05V396.075C130.995 396.425 130.82 396.6 130.47 396.6H128.545V406.475C128.545 406.825 128.37 407 128.02 407H126.895C126.57 407 126.37 406.825 126.37 406.475V396.6H124.445C124.095 396.6 123.895 396.425 123.895 396.075V395.05C123.895 394.7 124.095 394.5 124.445 394.5H126.37V391.05C126.37 390.7 126.57 390.5 126.895 390.5H128.02C128.37 390.5 128.545 390.7 128.545 391.05V394.5H130.47ZM138.563 407.325C134.888 407.325 131.963 404.475 131.963 400.75C131.963 397.05 134.888 394.2 138.563 394.2C142.213 394.2 145.138 397.05 145.138 400.75C145.138 404.475 142.213 407.325 138.563 407.325ZM138.563 405.2C141.038 405.2 142.963 403.275 142.963 400.75C142.963 398.225 141.038 396.3 138.563 396.3C136.063 396.3 134.138 398.225 134.138 400.75C134.138 403.275 136.063 405.2 138.563 405.2ZM153.127 394.325C153.477 394.3 153.677 394.5 153.677 394.85V396.025C153.677 396.35 153.527 396.55 153.302 396.55C151.552 396.625 149.902 397.625 149.902 400.325V406.475C149.902 406.825 149.702 407.025 149.377 407.025H148.252C147.902 407.025 147.727 406.825 147.727 406.475V395.05C147.727 394.7 147.902 394.525 148.252 394.525H149.377C149.702 394.525 149.902 394.7 149.902 395.05V396.4C150.652 395.025 151.827 394.45 153.127 394.325ZM157.29 397.9C157.29 400.75 164.44 398.9 164.44 403.625C164.44 405.875 162.44 407.325 159.665 407.325C157.09 407.325 155.19 406.05 154.915 403.825C154.89 403.45 155.115 403.275 155.44 403.275H156.54C156.865 403.275 157.015 403.45 157.115 403.75C157.34 404.9 158.415 405.3 159.665 405.3C161.115 405.3 162.265 404.8 162.265 403.625C162.265 400.775 155.115 402.625 155.115 397.9C155.115 395.65 157.115 394.2 159.665 394.2C162.015 394.2 163.89 395.45 164.14 397.7C164.19 398.075 163.965 398.25 163.615 398.25H162.515C162.215 398.25 162.065 398.075 161.965 397.75C161.74 396.625 160.715 396.2 159.665 396.2C158.44 396.2 157.29 396.725 157.29 397.9Z" fill="#EEEEEE"/>
<path d="M42.8162 347.012C43.2062 346.778 43.5182 346.7 43.9862 346.7H47.7692C48.3932 346.7 48.7052 347.051 48.7052 347.636V373.103C48.7052 373.688 48.3932 374 47.7692 374H44.2592C43.6742 374 43.3622 373.688 43.3622 373.103V352.121L38.0582 355.007C37.4342 355.397 36.9662 355.085 36.9662 354.383V350.99C36.9662 350.483 37.1612 350.132 37.5902 349.859L42.8162 347.012ZM58.602 368.462C59.187 368.462 59.538 368.774 59.538 369.398V374C59.538 377.042 57.744 379.031 54.741 379.382C54.234 379.421 53.961 379.148 53.961 378.68V377.861C53.961 377.432 54.195 377.198 54.663 377.081C55.95 376.808 56.574 375.95 56.574 374H54.897C54.312 374 53.961 373.688 53.961 373.103V369.398C53.961 368.774 54.312 368.462 54.897 368.462H58.602ZM79.0216 359.804C81.4786 361.247 82.8046 363.626 82.8046 366.395C82.8046 371.426 79.0996 374.546 73.0156 374.546C66.9706 374.546 63.2266 371.426 63.2266 366.395C63.2266 363.626 64.5916 361.247 67.0096 359.804C65.2546 358.595 64.1626 356.684 64.1626 354.149C64.1626 348.884 68.2576 346.193 73.0156 346.193C77.8126 346.193 81.9076 348.884 81.9076 354.149C81.9076 356.684 80.7766 358.595 79.0216 359.804ZM73.0156 351.224C70.9876 351.224 69.5056 352.433 69.5056 354.461C69.5056 356.411 70.9876 357.659 73.0156 357.659C75.0436 357.659 76.5256 356.411 76.5256 354.461C76.5256 352.433 75.0436 351.224 73.0156 351.224ZM73.0156 369.476C75.5896 369.476 77.4616 368.15 77.4616 365.732C77.4616 363.314 75.5896 361.949 73.0156 361.949C70.4416 361.949 68.5696 363.314 68.5696 365.732C68.5696 368.15 70.4416 369.476 73.0156 369.476ZM96.4296 374.546C89.4486 374.546 85.5096 368.774 85.5096 360.35C85.5096 351.926 89.4486 346.193 96.4296 346.193C103.372 346.193 107.35 351.926 107.35 360.35C107.35 368.774 103.372 374.546 96.4296 374.546ZM96.4296 369.32C100.057 369.32 101.968 366.122 101.968 360.35C101.968 354.578 100.057 351.419 96.4296 351.419C92.7636 351.419 90.8526 354.578 90.8526 360.35C90.8526 366.122 92.7636 369.32 96.4296 369.32ZM120.995 374.546C114.014 374.546 110.075 368.774 110.075 360.35C110.075 351.926 114.014 346.193 120.995 346.193C127.937 346.193 131.915 351.926 131.915 360.35C131.915 368.774 127.937 374.546 120.995 374.546ZM120.995 369.32C124.622 369.32 126.533 366.122 126.533 360.35C126.533 354.578 124.622 351.419 120.995 351.419C117.329 351.419 115.418 354.578 115.418 360.35C115.418 366.122 117.329 369.32 120.995 369.32ZM151.917 358.01C152.541 358.01 152.853 358.322 152.853 358.946V361.793C152.853 362.378 152.541 362.729 151.917 362.729H146.457V368.228C146.457 368.813 146.106 369.125 145.521 369.125H142.635C142.05 369.125 141.738 368.813 141.738 368.228V362.729H136.239C135.654 362.729 135.303 362.378 135.303 361.793V358.946C135.303 358.322 135.654 358.01 136.239 358.01H141.738V352.511C141.738 351.926 142.05 351.575 142.635 351.575H145.521C146.106 351.575 146.457 351.926 146.457 352.511V358.01H151.917Z" fill="#EEEEEE"/>
<path d="M151.13 606.694C151.13 606.316 151.319 606.1 151.697 606.1H153.047C153.425 606.1 153.614 606.316 153.614 606.694V624.433C153.614 624.811 153.425 625 153.047 625H151.697C151.319 625 151.13 624.811 151.13 624.433V606.694ZM159.397 615.172C159.397 618.25 167.119 616.252 167.119 621.355C167.119 623.785 164.959 625.351 161.962 625.351C159.181 625.351 157.129 623.974 156.832 621.571C156.805 621.166 157.048 620.977 157.399 620.977H158.587C158.938 620.977 159.1 621.166 159.208 621.49C159.451 622.732 160.612 623.164 161.962 623.164C163.528 623.164 164.77 622.624 164.77 621.355C164.77 618.277 157.048 620.275 157.048 615.172C157.048 612.742 159.208 611.176 161.962 611.176C164.5 611.176 166.525 612.526 166.795 614.956C166.849 615.361 166.606 615.55 166.228 615.55H165.04C164.716 615.55 164.554 615.361 164.446 615.01C164.203 613.795 163.096 613.336 161.962 613.336C160.639 613.336 159.397 613.903 159.397 615.172ZM171.71 615.172C171.71 618.25 179.432 616.252 179.432 621.355C179.432 623.785 177.272 625.351 174.275 625.351C171.494 625.351 169.442 623.974 169.145 621.571C169.118 621.166 169.361 620.977 169.712 620.977H170.9C171.251 620.977 171.413 621.166 171.521 621.49C171.764 622.732 172.925 623.164 174.275 623.164C175.841 623.164 177.083 622.624 177.083 621.355C177.083 618.277 169.361 620.275 169.361 615.172C169.361 612.742 171.521 611.176 174.275 611.176C176.813 611.176 178.838 612.526 179.108 614.956C179.162 615.361 178.919 615.55 178.541 615.55H177.353C177.029 615.55 176.867 615.361 176.759 615.01C176.516 613.795 175.409 613.336 174.275 613.336C172.952 613.336 171.71 613.903 171.71 615.172ZM192.201 611.5C192.552 611.5 192.768 611.716 192.768 612.094V624.433C192.768 624.811 192.552 625 192.201 625H190.986C190.608 625 190.419 624.811 190.419 624.433V623.353C189.447 624.811 188.043 625.351 186.423 625.351C183.912 625.351 181.914 623.434 181.914 620.275V612.094C181.914 611.716 182.103 611.5 182.481 611.5H183.669C184.047 611.5 184.263 611.716 184.263 612.094V620.194C184.263 622.111 185.451 623.11 187.044 623.11C188.745 623.11 190.419 622.111 190.419 619.195V612.094C190.419 611.716 190.635 611.5 190.986 611.5H192.201ZM202.581 611.176C206.658 611.176 209.196 614.497 209.196 618.304C209.196 618.466 209.196 618.628 209.196 618.79C209.169 619.168 208.926 619.33 208.575 619.33H206.82H198.018C198.423 621.814 200.259 623.245 202.635 623.245C204.201 623.245 205.416 622.57 206.037 621.625C206.226 621.382 206.415 621.247 206.739 621.247H208.035C208.467 621.247 208.683 621.49 208.521 621.841C207.576 623.974 205.362 625.351 202.608 625.351C198.396 625.351 195.588 622.327 195.588 618.25C195.588 614.281 198.369 611.176 202.581 611.176ZM198.018 617.278H206.82C206.469 614.632 204.606 613.363 202.581 613.363C200.07 613.363 198.369 614.929 198.018 617.278ZM213.74 615.172C213.74 618.25 221.462 616.252 221.462 621.355C221.462 623.785 219.302 625.351 216.305 625.351C213.524 625.351 211.472 623.974 211.175 621.571C211.148 621.166 211.391 620.977 211.742 620.977H212.93C213.281 620.977 213.443 621.166 213.551 621.49C213.794 622.732 214.955 623.164 216.305 623.164C217.871 623.164 219.113 622.624 219.113 621.355C219.113 618.277 211.391 620.275 211.391 615.172C211.391 612.742 213.551 611.176 216.305 611.176C218.843 611.176 220.868 612.526 221.138 614.956C221.192 615.361 220.949 615.55 220.571 615.55H219.383C219.059 615.55 218.897 615.361 218.789 615.01C218.546 613.795 217.439 613.336 216.305 613.336C214.982 613.336 213.74 613.903 213.74 615.172Z" fill="#EEEEEE"/>
<path d="M139.529 575.804C141.986 577.247 143.312 579.626 143.312 582.395C143.312 587.426 139.607 590.546 133.523 590.546C127.478 590.546 123.734 587.426 123.734 582.395C123.734 579.626 125.099 577.247 127.517 575.804C125.762 574.595 124.67 572.684 124.67 570.149C124.67 564.884 128.765 562.193 133.523 562.193C138.32 562.193 142.415 564.884 142.415 570.149C142.415 572.684 141.284 574.595 139.529 575.804ZM133.523 567.224C131.495 567.224 130.013 568.433 130.013 570.461C130.013 572.411 131.495 573.659 133.523 573.659C135.551 573.659 137.033 572.411 137.033 570.461C137.033 568.433 135.551 567.224 133.523 567.224ZM133.523 585.476C136.097 585.476 137.969 584.15 137.969 581.732C137.969 579.314 136.097 577.949 133.523 577.949C130.949 577.949 129.077 579.314 129.077 581.732C129.077 584.15 130.949 585.476 133.523 585.476ZM151.711 584.462C152.296 584.462 152.647 584.774 152.647 585.398V590C152.647 593.042 150.853 595.031 147.85 595.382C147.343 595.421 147.07 595.148 147.07 594.68V593.861C147.07 593.432 147.304 593.198 147.772 593.081C149.059 592.808 149.683 591.95 149.683 590H148.006C147.421 590 147.07 589.688 147.07 589.103V585.398C147.07 584.774 147.421 584.462 148.006 584.462H151.711ZM166.192 590.546C159.211 590.546 155.272 584.774 155.272 576.35C155.272 567.926 159.211 562.193 166.192 562.193C173.134 562.193 177.112 567.926 177.112 576.35C177.112 584.774 173.134 590.546 166.192 590.546ZM166.192 585.32C169.819 585.32 171.73 582.122 171.73 576.35C171.73 570.578 169.819 567.419 166.192 567.419C162.526 567.419 160.615 570.578 160.615 576.35C160.615 582.122 162.526 585.32 166.192 585.32ZM190.758 590.546C183.777 590.546 179.838 584.774 179.838 576.35C179.838 567.926 183.777 562.193 190.758 562.193C197.7 562.193 201.678 567.926 201.678 576.35C201.678 584.774 197.7 590.546 190.758 590.546ZM190.758 585.32C194.385 585.32 196.296 582.122 196.296 576.35C196.296 570.578 194.385 567.419 190.758 567.419C187.092 567.419 185.181 570.578 185.181 576.35C185.181 582.122 187.092 585.32 190.758 585.32ZM215.323 590.546C208.342 590.546 204.403 584.774 204.403 576.35C204.403 567.926 208.342 562.193 215.323 562.193C222.265 562.193 226.243 567.926 226.243 576.35C226.243 584.774 222.265 590.546 215.323 590.546ZM215.323 585.32C218.95 585.32 220.861 582.122 220.861 576.35C220.861 570.578 218.95 567.419 215.323 567.419C211.657 567.419 209.746 570.578 209.746 576.35C209.746 582.122 211.657 585.32 215.323 585.32ZM246.246 574.01C246.87 574.01 247.182 574.322 247.182 574.946V577.793C247.182 578.378 246.87 578.729 246.246 578.729H240.786V584.228C240.786 584.813 240.435 585.125 239.85 585.125H236.964C236.379 585.125 236.067 584.813 236.067 584.228V578.729H230.568C229.983 578.729 229.632 578.378 229.632 577.793V574.946C229.632 574.322 229.983 574.01 230.568 574.01H236.067V568.511C236.067 567.926 236.379 567.575 236.964 567.575H239.85C240.435 567.575 240.786 567.926 240.786 568.511V574.01H246.246Z" fill="#EEEEEE"/>
<path d="M565.914 605.7C566.32 605.7 566.552 605.932 566.552 606.338V607.643C566.552 608.049 566.32 608.252 565.914 608.252H557.62V615.357H565.566C565.972 615.357 566.175 615.589 566.175 615.966V617.3C566.175 617.706 565.972 617.909 565.566 617.909H557.62V625.391C557.62 625.797 557.417 626 557.011 626H555.561C555.155 626 554.952 625.797 554.952 625.391V606.338C554.952 605.932 555.155 605.7 555.561 605.7H557.62H565.914ZM575.95 626.377C571.687 626.377 568.294 623.071 568.294 618.75C568.294 614.458 571.687 611.152 575.95 611.152C580.184 611.152 583.577 614.458 583.577 618.75C583.577 623.071 580.184 626.377 575.95 626.377ZM575.95 623.912C578.821 623.912 581.054 621.679 581.054 618.75C581.054 615.821 578.821 613.588 575.95 613.588C573.05 613.588 570.817 615.821 570.817 618.75C570.817 621.679 573.05 623.912 575.95 623.912ZM592.844 611.297C593.25 611.268 593.482 611.5 593.482 611.906V613.269C593.482 613.646 593.308 613.878 593.047 613.878C591.017 613.965 589.103 615.125 589.103 618.257V625.391C589.103 625.797 588.871 626.029 588.494 626.029H587.189C586.783 626.029 586.58 625.797 586.58 625.391V612.138C586.58 611.732 586.783 611.529 587.189 611.529H588.494C588.871 611.529 589.103 611.732 589.103 612.138V613.704C589.973 612.109 591.336 611.442 592.844 611.297ZM607.381 625.246C607.758 625.623 607.613 626 607.062 626H605.409C605.09 626 604.887 625.913 604.684 625.681L598.449 619.156V625.391C598.449 625.797 598.217 626 597.84 626H596.535C596.129 626 595.926 625.797 595.926 625.391V606.338C595.926 605.932 596.129 605.7 596.535 605.7H597.84C598.217 605.7 598.449 605.932 598.449 606.338V617.938L604.394 611.848C604.597 611.616 604.8 611.5 605.119 611.5H606.772C607.323 611.5 607.468 611.877 607.091 612.283L600.972 618.547L607.381 625.246ZM611.409 615.444C611.409 618.75 619.703 616.604 619.703 622.085C619.703 624.695 617.383 626.377 614.164 626.377C611.177 626.377 608.973 624.898 608.654 622.317C608.625 621.882 608.886 621.679 609.263 621.679H610.539C610.916 621.679 611.09 621.882 611.206 622.23C611.467 623.564 612.714 624.028 614.164 624.028C615.846 624.028 617.18 623.448 617.18 622.085C617.18 618.779 608.886 620.925 608.886 615.444C608.886 612.834 611.206 611.152 614.164 611.152C616.89 611.152 619.065 612.602 619.355 615.212C619.413 615.647 619.152 615.85 618.746 615.85H617.47C617.122 615.85 616.948 615.647 616.832 615.27C616.571 613.965 615.382 613.472 614.164 613.472C612.743 613.472 611.409 614.081 611.409 615.444Z" fill="#EEEEEE"/>
<path d="M537.795 572.36C541.475 573.44 544.235 576.24 544.235 580.4C544.235 586.4 539.515 589.56 534.235 589.56C529.275 589.56 524.755 586.72 524.275 581.36C524.235 580.72 524.595 580.4 525.235 580.4H528.875C529.435 580.4 529.715 580.68 529.835 581.28C530.195 583.08 531.755 584.2 534.235 584.2C537.115 584.2 538.755 582.64 538.755 580.4C538.755 578.12 537.115 576.56 534.235 576.56H532.195C531.595 576.56 531.235 576.24 531.235 575.64V573.6C531.235 573.12 531.395 572.8 531.675 572.4L536.355 566.16H526.315C525.675 566.16 525.355 565.84 525.355 565.24V561.96C525.355 561.36 525.675 561 526.315 561H541.995C542.595 561 542.955 561.36 542.955 561.96V564.92C542.955 565.36 542.795 565.72 542.555 566.12L537.795 572.36ZM552.011 583.32C552.611 583.32 552.971 583.64 552.971 584.28V589C552.971 592.12 551.131 594.16 548.051 594.52C547.531 594.56 547.251 594.28 547.251 593.8V592.96C547.251 592.52 547.491 592.28 547.971 592.16C549.291 591.88 549.931 591 549.931 589H548.211C547.611 589 547.251 588.68 547.251 588.08V584.28C547.251 583.64 547.611 583.32 548.211 583.32H552.011ZM566.914 571.2C572.194 571.2 576.594 574.36 576.594 580.4C576.594 586.4 571.874 589.56 566.594 589.56C561.634 589.56 557.154 586.72 556.634 581.36C556.594 580.72 556.994 580.4 557.594 580.4H561.234C561.794 580.4 562.074 580.68 562.194 581.28C562.554 583.08 564.154 584.2 566.594 584.2C569.514 584.2 571.114 582.64 571.114 580.4C571.114 578.12 569.514 576.56 566.594 576.56H558.874C558.274 576.56 557.914 576.2 557.954 575.6L558.954 561.92C558.994 561.36 559.354 561 559.914 561H574.354C574.954 561 575.314 561.36 575.314 561.96V565.24C575.314 565.84 574.954 566.16 574.354 566.16H564.154L563.794 571.2H566.914ZM589.988 589.56C582.828 589.56 578.788 583.64 578.788 575C578.788 566.36 582.828 560.48 589.988 560.48C597.108 560.48 601.188 566.36 601.188 575C601.188 583.64 597.108 589.56 589.988 589.56ZM589.988 584.2C593.708 584.2 595.668 580.92 595.668 575C595.668 569.08 593.708 565.84 589.988 565.84C586.228 565.84 584.268 569.08 584.268 575C584.268 580.92 586.228 584.2 589.988 584.2ZM615.184 589.56C608.024 589.56 603.984 583.64 603.984 575C603.984 566.36 608.024 560.48 615.184 560.48C622.304 560.48 626.384 566.36 626.384 575C626.384 583.64 622.304 589.56 615.184 589.56ZM615.184 584.2C618.904 584.2 620.864 580.92 620.864 575C620.864 569.08 618.904 565.84 615.184 565.84C611.424 565.84 609.464 569.08 609.464 575C609.464 580.92 611.424 584.2 615.184 584.2ZM646.899 572.6C647.539 572.6 647.859 572.92 647.859 573.56V576.48C647.859 577.08 647.539 577.44 646.899 577.44H641.299V583.08C641.299 583.68 640.939 584 640.339 584H637.379C636.779 584 636.459 583.68 636.459 583.08V577.44H630.819C630.219 577.44 629.859 577.08 629.859 576.48V573.56C629.859 572.92 630.219 572.6 630.819 572.6H636.459V566.96C636.459 566.36 636.779 566 637.379 566H640.339C640.939 566 641.299 566.36 641.299 566.96V572.6H646.899Z" fill="#EEEEEE"/>
<path d="M323.477 102.05C323.477 101.7 323.652 101.5 324.002 101.5H325.252C325.602 101.5 325.777 101.7 325.777 102.05V118.475C325.777 118.825 325.602 119 325.252 119H324.002C323.652 119 323.477 118.825 323.477 118.475V102.05ZM335.206 106.2C337.531 106.2 339.381 107.95 339.381 110.9V118.475C339.381 118.825 339.206 119 338.856 119H337.756C337.406 119 337.206 118.825 337.206 118.475V110.975C337.206 109.175 336.106 108.25 334.631 108.25C333.056 108.25 331.506 109.2 331.506 111.9V118.475C331.506 118.825 331.306 119 330.981 119H329.856C329.506 119 329.331 118.825 329.331 118.475V107.05C329.331 106.7 329.506 106.5 329.856 106.5H330.981C331.306 106.5 331.506 106.7 331.506 107.05V108.05C332.406 106.7 333.681 106.2 335.206 106.2ZM347.792 106.5C348.142 106.5 348.317 106.7 348.317 107.05V108.075C348.317 108.425 348.142 108.6 347.792 108.6H345.867V118.475C345.867 118.825 345.692 119 345.342 119H344.217C343.892 119 343.692 118.825 343.692 118.475V108.6H341.767C341.417 108.6 341.217 108.425 341.217 108.075V107.05C341.217 106.7 341.417 106.5 341.767 106.5H343.692V103.05C343.692 102.7 343.892 102.5 344.217 102.5H345.342C345.692 102.5 345.867 102.7 345.867 103.05V106.5H347.792ZM355.76 106.2C359.535 106.2 361.885 109.275 361.885 112.8C361.885 112.95 361.885 113.1 361.885 113.25C361.86 113.6 361.635 113.75 361.31 113.75H359.685H351.535C351.91 116.05 353.61 117.375 355.81 117.375C357.26 117.375 358.385 116.75 358.96 115.875C359.135 115.65 359.31 115.525 359.61 115.525H360.81C361.21 115.525 361.41 115.75 361.26 116.075C360.385 118.05 358.335 119.325 355.785 119.325C351.885 119.325 349.285 116.525 349.285 112.75C349.285 109.075 351.86 106.2 355.76 106.2ZM351.535 111.85H359.685C359.36 109.4 357.635 108.225 355.76 108.225C353.435 108.225 351.86 109.675 351.535 111.85ZM376.267 106.5C376.617 106.5 376.792 106.7 376.792 107.05V118.475C376.792 122.375 373.767 124.325 370.492 124.325C367.567 124.325 364.792 122.625 364.442 120.1C364.417 119.725 364.642 119.55 364.967 119.55H366.092C366.417 119.55 366.567 119.7 366.667 120.025C366.967 121.125 368.317 122.3 370.492 122.3C373.167 122.3 374.642 120.825 374.642 118.475V116.75C373.642 118.25 372.017 119.2 369.892 119.2C366.442 119.2 363.567 116.35 363.567 112.7C363.567 109.05 366.442 106.2 369.892 106.2C372.017 106.2 373.642 107.15 374.642 108.65V107.05C374.642 106.7 374.842 106.5 375.167 106.5H376.267ZM370.192 117.125C372.717 117.125 374.642 115.2 374.642 112.7C374.642 110.175 372.717 108.25 370.192 108.25C367.667 108.25 365.742 110.175 365.742 112.7C365.742 115.2 367.667 117.125 370.192 117.125ZM385.512 106.325C385.862 106.3 386.062 106.5 386.062 106.85V108.025C386.062 108.35 385.912 108.55 385.687 108.55C383.937 108.625 382.287 109.625 382.287 112.325V118.475C382.287 118.825 382.087 119.025 381.762 119.025H380.637C380.287 119.025 380.112 118.825 380.112 118.475V107.05C380.112 106.7 380.287 106.525 380.637 106.525H381.762C382.087 106.525 382.287 106.7 382.287 107.05V108.4C383.037 107.025 384.212 106.45 385.512 106.325ZM392.575 106.2C395.35 106.2 397.425 107.925 397.425 110.95V118.475C397.425 118.825 397.25 119 396.9 119H395.8C395.475 119 395.275 118.825 395.275 118.475V117.725C394.475 118.8 393.15 119.325 391.575 119.325C389.3 119.325 387.175 118 387.175 115.325C387.175 112.65 389.3 111.325 391.575 111.325C393.15 111.325 394.475 111.875 395.275 112.775V111C395.275 109.025 394.025 108.25 392.575 108.25C391.275 108.25 390.15 108.85 389.925 110.025C389.825 110.325 389.675 110.5 389.35 110.5H388.25C387.925 110.5 387.7 110.325 387.725 109.95C388.025 107.675 389.975 106.2 392.575 106.2ZM392.2 117.5C394 117.5 395.275 116.575 395.275 115.325C395.275 114 394 113.15 392.2 113.15C390.25 113.15 389.35 114.075 389.35 115.325C389.35 116.575 390.25 117.5 392.2 117.5ZM405.824 106.5C406.174 106.5 406.349 106.7 406.349 107.05V108.075C406.349 108.425 406.174 108.6 405.824 108.6H403.899V118.475C403.899 118.825 403.724 119 403.374 119H402.249C401.924 119 401.724 118.825 401.724 118.475V108.6H399.799C399.449 108.6 399.249 108.425 399.249 108.075V107.05C399.249 106.7 399.449 106.5 399.799 106.5H401.724V103.05C401.724 102.7 401.924 102.5 402.249 102.5H403.374C403.724 102.5 403.899 102.7 403.899 103.05V106.5H405.824ZM409.007 104.25C408.657 104.25 408.482 104.075 408.482 103.725V102.05C408.482 101.7 408.657 101.5 409.007 101.5H410.132C410.457 101.5 410.657 101.7 410.657 102.05V103.725C410.657 104.075 410.457 104.25 410.132 104.25H409.007ZM409.007 119C408.657 119 408.482 118.825 408.482 118.475V107.05C408.482 106.7 408.657 106.5 409.007 106.5H410.132C410.457 106.5 410.657 106.7 410.657 107.05V118.475C410.657 118.825 410.457 119 410.132 119H409.007ZM419.85 119.325C416.175 119.325 413.25 116.475 413.25 112.75C413.25 109.05 416.175 106.2 419.85 106.2C423.5 106.2 426.425 109.05 426.425 112.75C426.425 116.475 423.5 119.325 419.85 119.325ZM419.85 117.2C422.325 117.2 424.25 115.275 424.25 112.75C424.25 110.225 422.325 108.3 419.85 108.3C417.35 108.3 415.425 110.225 415.425 112.75C415.425 115.275 417.35 117.2 419.85 117.2ZM434.889 106.2C437.214 106.2 439.064 107.95 439.064 110.9V118.475C439.064 118.825 438.889 119 438.539 119H437.439C437.089 119 436.889 118.825 436.889 118.475V110.975C436.889 109.175 435.789 108.25 434.314 108.25C432.739 108.25 431.189 109.2 431.189 111.9V118.475C431.189 118.825 430.989 119 430.664 119H429.539C429.189 119 429.014 118.825 429.014 118.475V107.05C429.014 106.7 429.189 106.5 429.539 106.5H430.664C430.989 106.5 431.189 106.7 431.189 107.05V108.05C432.089 106.7 433.364 106.2 434.889 106.2ZM443.9 109.9C443.9 112.75 451.05 110.9 451.05 115.625C451.05 117.875 449.05 119.325 446.275 119.325C443.7 119.325 441.8 118.05 441.525 115.825C441.5 115.45 441.725 115.275 442.05 115.275H443.15C443.475 115.275 443.625 115.45 443.725 115.75C443.95 116.9 445.025 117.3 446.275 117.3C447.725 117.3 448.875 116.8 448.875 115.625C448.875 112.775 441.725 114.625 441.725 109.9C441.725 107.65 443.725 106.2 446.275 106.2C448.625 106.2 450.5 107.45 450.75 109.7C450.8 110.075 450.575 110.25 450.225 110.25H449.125C448.825 110.25 448.675 110.075 448.575 109.75C448.35 108.625 447.325 108.2 446.275 108.2C445.05 108.2 443.9 108.725 443.9 109.9Z" fill="#EEEEEE"/>
<path d="M344.865 86C344.28 86 343.929 85.688 343.929 85.103V82.685C343.929 82.217 344.085 81.866 344.397 81.515L353.211 72.662C354.927 70.907 356.409 68.879 356.409 66.968C356.409 64.667 355.005 63.419 353.016 63.419C351.027 63.419 349.662 64.277 349.35 66.188C349.272 66.773 348.96 67.085 348.414 67.085H344.865C344.28 67.085 343.929 66.734 343.968 66.11C344.436 60.611 348.609 58.193 352.899 58.193C357.306 58.193 361.752 60.962 361.752 66.968C361.752 70.088 359.802 73.169 357.462 75.47L351.963 80.852H361.284C361.869 80.852 362.181 81.164 362.181 81.788V85.103C362.181 85.688 361.869 86 361.284 86H344.865ZM374.63 68.645C379.778 68.645 384.068 71.726 384.068 77.615C384.068 83.465 379.466 86.546 374.318 86.546C369.482 86.546 365.114 83.777 364.607 78.551C364.568 77.927 364.958 77.615 365.543 77.615H369.092C369.638 77.615 369.911 77.888 370.028 78.473C370.379 80.228 371.939 81.32 374.318 81.32C377.165 81.32 378.725 79.799 378.725 77.615C378.725 75.392 377.165 73.871 374.318 73.871H366.791C366.206 73.871 365.855 73.52 365.894 72.935L366.869 59.597C366.908 59.051 367.259 58.7 367.805 58.7H381.884C382.469 58.7 382.82 59.051 382.82 59.636V62.834C382.82 63.419 382.469 63.731 381.884 63.731H371.939L371.588 68.645H374.63ZM397.127 86.546C390.146 86.546 386.207 80.774 386.207 72.35C386.207 63.926 390.146 58.193 397.127 58.193C404.069 58.193 408.047 63.926 408.047 72.35C408.047 80.774 404.069 86.546 397.127 86.546ZM397.127 81.32C400.754 81.32 402.665 78.122 402.665 72.35C402.665 66.578 400.754 63.419 397.127 63.419C393.461 63.419 391.55 66.578 391.55 72.35C391.55 78.122 393.461 81.32 397.127 81.32ZM428.05 70.01C428.674 70.01 428.986 70.322 428.986 70.946V73.793C428.986 74.378 428.674 74.729 428.05 74.729H422.59V80.228C422.59 80.813 422.239 81.125 421.654 81.125H418.768C418.183 81.125 417.871 80.813 417.871 80.228V74.729H412.372C411.787 74.729 411.436 74.378 411.436 73.793V70.946C411.436 70.322 411.787 70.01 412.372 70.01H417.871V64.511C417.871 63.926 418.183 63.575 418.768 63.575H421.654C422.239 63.575 422.59 63.926 422.59 64.511V70.01H428.05Z" fill="#EEEEEE"/>
<path d="M346.501 631.965C346.931 631.707 347.275 631.621 347.791 631.621H351.962C352.65 631.621 352.994 632.008 352.994 632.653V660.732C352.994 661.377 352.65 661.721 351.962 661.721H348.092C347.447 661.721 347.103 661.377 347.103 660.732V637.598L341.255 640.78C340.567 641.21 340.051 640.866 340.051 640.092V636.351C340.051 635.792 340.266 635.405 340.739 635.104L346.501 631.965ZM369.668 662.323C361.971 662.323 357.628 655.959 357.628 646.671C357.628 637.383 361.971 631.062 369.668 631.062C377.322 631.062 381.708 637.383 381.708 646.671C381.708 655.959 377.322 662.323 369.668 662.323ZM369.668 656.561C373.667 656.561 375.774 653.035 375.774 646.671C375.774 640.307 373.667 636.824 369.668 636.824C365.626 636.824 363.519 640.307 363.519 646.671C363.519 653.035 365.626 656.561 369.668 656.561ZM396.753 662.323C389.056 662.323 384.713 655.959 384.713 646.671C384.713 637.383 389.056 631.062 396.753 631.062C404.407 631.062 408.793 637.383 408.793 646.671C408.793 655.959 404.407 662.323 396.753 662.323ZM396.753 656.561C400.752 656.561 402.859 653.035 402.859 646.671C402.859 640.307 400.752 636.824 396.753 636.824C392.711 636.824 390.604 640.307 390.604 646.671C390.604 653.035 392.711 656.561 396.753 656.561ZM430.847 644.091C431.535 644.091 431.879 644.435 431.879 645.123V648.262C431.879 648.907 431.535 649.294 430.847 649.294H424.827V655.357C424.827 656.002 424.44 656.346 423.795 656.346H420.613C419.968 656.346 419.624 656.002 419.624 655.357V649.294H413.561C412.916 649.294 412.529 648.907 412.529 648.262V645.123C412.529 644.435 412.916 644.091 413.561 644.091H419.624V638.028C419.624 637.383 419.968 636.996 420.613 636.996H423.795C424.44 636.996 424.827 637.383 424.827 638.028V644.091H430.847Z" fill="#EEEEEE"/>
<path d="M364.094 696.993C364.402 697.385 364.262 697.721 363.758 697.721H362.022C361.714 697.721 361.462 697.637 361.266 697.385L355.134 690.245H351.41V697.133C351.41 697.525 351.214 697.721 350.822 697.721H349.422C349.03 697.721 348.834 697.525 348.834 697.133V678.737C348.834 678.345 349.03 678.121 349.422 678.121H351.41H355.974C359.334 678.121 362.05 680.865 362.05 684.225C362.05 686.829 360.342 689.069 357.962 689.909L364.094 696.993ZM351.41 680.557V687.865H355.974C357.878 687.865 359.474 686.241 359.474 684.225C359.474 682.181 357.878 680.557 355.974 680.557H351.41ZM371.784 683.385C376.012 683.385 378.644 686.829 378.644 690.777C378.644 690.945 378.644 691.113 378.644 691.281C378.616 691.673 378.364 691.841 378 691.841H376.18H367.052C367.472 694.417 369.376 695.901 371.84 695.901C373.464 695.901 374.724 695.201 375.368 694.221C375.564 693.969 375.76 693.829 376.096 693.829H377.44C377.888 693.829 378.112 694.081 377.944 694.445C376.964 696.657 374.668 698.085 371.812 698.085C367.444 698.085 364.532 694.949 364.532 690.721C364.532 686.605 367.416 683.385 371.784 683.385ZM367.052 689.713H376.18C375.816 686.969 373.884 685.653 371.784 685.653C369.18 685.653 367.416 687.277 367.052 689.713ZM389.068 683.385C392.932 683.385 396.152 686.577 396.152 690.721C396.152 694.893 392.932 698.085 389.068 698.085C386.688 698.085 384.896 697.049 383.776 695.369V702.733C383.776 703.125 383.552 703.321 383.188 703.321H381.928C381.536 703.321 381.34 703.125 381.34 702.733V684.337C381.34 683.945 381.536 683.721 381.928 683.721H383.188C383.552 683.721 383.776 683.945 383.776 684.337V686.101C384.896 684.421 386.688 683.385 389.068 683.385ZM388.732 695.733C391.56 695.733 393.716 693.577 393.716 690.721C393.716 687.865 391.56 685.709 388.732 685.709C385.932 685.709 383.776 687.865 383.776 690.721C383.776 693.577 385.932 695.733 388.732 695.733ZM405.638 698.085C401.522 698.085 398.246 694.893 398.246 690.721C398.246 686.577 401.522 683.385 405.638 683.385C409.726 683.385 413.002 686.577 413.002 690.721C413.002 694.893 409.726 698.085 405.638 698.085ZM405.638 695.705C408.41 695.705 410.566 693.549 410.566 690.721C410.566 687.893 408.41 685.737 405.638 685.737C402.838 685.737 400.682 687.893 400.682 690.721C400.682 693.549 402.838 695.705 405.638 695.705ZM417.781 687.529C417.781 690.721 425.789 688.649 425.789 693.941C425.789 696.461 423.549 698.085 420.441 698.085C417.557 698.085 415.429 696.657 415.121 694.165C415.093 693.745 415.345 693.549 415.709 693.549H416.941C417.305 693.549 417.473 693.745 417.585 694.081C417.837 695.369 419.041 695.817 420.441 695.817C422.065 695.817 423.353 695.257 423.353 693.941C423.353 690.749 415.345 692.821 415.345 687.529C415.345 685.009 417.585 683.385 420.441 683.385C423.073 683.385 425.173 684.785 425.453 687.305C425.509 687.725 425.257 687.921 424.865 687.921H423.633C423.297 687.921 423.129 687.725 423.017 687.361C422.765 686.101 421.617 685.625 420.441 685.625C419.069 685.625 417.781 686.213 417.781 687.529Z" fill="#EEEEEE"/>
<path d="M572.592 200.39C568.782 200.39 565.482 198.35 565.182 194.45C565.152 194.03 565.362 193.79 565.782 193.79H567.312C567.702 193.79 567.912 194 567.942 194.42C568.242 196.55 570.042 197.69 572.592 197.69C575.022 197.69 576.732 196.46 576.732 194.57C576.732 192.53 574.692 191.66 572.352 190.82C569.232 189.65 565.662 188.54 565.662 184.34C565.662 180.68 568.812 178.64 572.172 178.64C575.532 178.64 578.562 180.56 578.862 184.22C578.892 184.67 578.682 184.88 578.262 184.88H576.732C576.342 184.88 576.132 184.67 576.102 184.28C575.832 182.33 574.272 181.34 572.172 181.34C570.042 181.34 568.452 182.45 568.452 184.34C568.452 186.44 570.312 187.28 572.652 188.18C575.772 189.35 579.492 190.49 579.492 194.57C579.492 198.23 576.252 200.39 572.592 200.39ZM588.85 185C589.27 185 589.48 185.24 589.48 185.66V186.89C589.48 187.31 589.27 187.52 588.85 187.52H586.54V199.37C586.54 199.79 586.33 200 585.91 200H584.56C584.17 200 583.93 199.79 583.93 199.37V187.52H581.62C581.2 187.52 580.96 187.31 580.96 186.89V185.66C580.96 185.24 581.2 185 581.62 185H583.93V180.86C583.93 180.44 584.17 180.2 584.56 180.2H585.91C586.33 180.2 586.54 180.44 586.54 180.86V185H588.85ZM597.385 184.64C600.715 184.64 603.205 186.71 603.205 190.34V199.37C603.205 199.79 602.995 200 602.575 200H601.255C600.865 200 600.625 199.79 600.625 199.37V198.47C599.665 199.76 598.075 200.39 596.185 200.39C593.455 200.39 590.905 198.8 590.905 195.59C590.905 192.38 593.455 190.79 596.185 190.79C598.075 190.79 599.665 191.45 600.625 192.53V190.4C600.625 188.03 599.125 187.1 597.385 187.1C595.825 187.1 594.475 187.82 594.205 189.23C594.085 189.59 593.905 189.8 593.515 189.8H592.195C591.805 189.8 591.535 189.59 591.565 189.14C591.925 186.41 594.265 184.64 597.385 184.64ZM596.935 198.2C599.095 198.2 600.625 197.09 600.625 195.59C600.625 194 599.095 192.98 596.935 192.98C594.595 192.98 593.515 194.09 593.515 195.59C593.515 197.09 594.595 198.2 596.935 198.2ZM613.314 184.79C613.734 184.76 613.974 185 613.974 185.42V186.83C613.974 187.22 613.794 187.46 613.524 187.46C611.424 187.55 609.444 188.75 609.444 191.99V199.37C609.444 199.79 609.204 200.03 608.814 200.03H607.464C607.044 200.03 606.834 199.79 606.834 199.37V185.66C606.834 185.24 607.044 185.03 607.464 185.03H608.814C609.204 185.03 609.444 185.24 609.444 185.66V187.28C610.344 185.63 611.754 184.94 613.314 184.79ZM618.31 189.08C618.31 192.5 626.89 190.28 626.89 195.95C626.89 198.65 624.49 200.39 621.16 200.39C618.07 200.39 615.79 198.86 615.46 196.19C615.43 195.74 615.7 195.53 616.09 195.53H617.41C617.8 195.53 617.98 195.74 618.1 196.1C618.37 197.48 619.66 197.96 621.16 197.96C622.9 197.96 624.28 197.36 624.28 195.95C624.28 192.53 615.7 194.75 615.7 189.08C615.7 186.38 618.1 184.64 621.16 184.64C623.98 184.64 626.23 186.14 626.53 188.84C626.59 189.29 626.32 189.5 625.9 189.5H624.58C624.22 189.5 624.04 189.29 623.92 188.9C623.65 187.55 622.42 187.04 621.16 187.04C619.69 187.04 618.31 187.67 618.31 189.08Z" fill="#EEEEEE"/>
<path d="M537.383 135.636C537.383 135.051 537.734 134.7 538.319 134.7H554.114C554.699 134.7 555.05 135.051 555.05 135.636V138.678C555.05 139.107 554.972 139.419 554.816 139.848L546.08 161.298C545.885 161.805 545.534 162 545.027 162H541.244C540.581 162 540.308 161.61 540.542 160.947L549.122 139.848H538.319C537.734 139.848 537.383 139.536 537.383 138.951V135.636ZM557.837 156.462C558.422 156.462 558.773 156.774 558.773 157.398V162C558.773 165.042 556.979 167.031 553.976 167.382C553.469 167.421 553.196 167.148 553.196 166.68V165.861C553.196 165.432 553.43 165.198 553.898 165.081C555.185 164.808 555.809 163.95 555.809 162H554.132C553.547 162 553.196 161.688 553.196 161.103V157.398C553.196 156.774 553.547 156.462 554.132 156.462H557.837ZM572.318 162.546C565.337 162.546 561.398 156.774 561.398 148.35C561.398 139.926 565.337 134.193 572.318 134.193C579.26 134.193 583.238 139.926 583.238 148.35C583.238 156.774 579.26 162.546 572.318 162.546ZM572.318 157.32C575.945 157.32 577.856 154.122 577.856 148.35C577.856 142.578 575.945 139.419 572.318 139.419C568.652 139.419 566.741 142.578 566.741 148.35C566.741 154.122 568.652 157.32 572.318 157.32ZM596.883 162.546C589.902 162.546 585.963 156.774 585.963 148.35C585.963 139.926 589.902 134.193 596.883 134.193C603.825 134.193 607.803 139.926 607.803 148.35C607.803 156.774 603.825 162.546 596.883 162.546ZM596.883 157.32C600.51 157.32 602.421 154.122 602.421 148.35C602.421 142.578 600.51 139.419 596.883 139.419C593.217 139.419 591.306 142.578 591.306 148.35C591.306 154.122 593.217 157.32 596.883 157.32ZM621.449 162.546C614.468 162.546 610.529 156.774 610.529 148.35C610.529 139.926 614.468 134.193 621.449 134.193C628.391 134.193 632.369 139.926 632.369 148.35C632.369 156.774 628.391 162.546 621.449 162.546ZM621.449 157.32C625.076 157.32 626.987 154.122 626.987 148.35C626.987 142.578 625.076 139.419 621.449 139.419C617.783 139.419 615.872 142.578 615.872 148.35C615.872 154.122 617.783 157.32 621.449 157.32ZM652.371 146.01C652.995 146.01 653.307 146.322 653.307 146.946V149.793C653.307 150.378 652.995 150.729 652.371 150.729H646.911V156.228C646.911 156.813 646.56 157.125 645.975 157.125H643.089C642.504 157.125 642.192 156.813 642.192 156.228V150.729H636.693C636.108 150.729 635.757 150.378 635.757 149.793V146.946C635.757 146.322 636.108 146.01 636.693 146.01H642.192V140.511C642.192 139.926 642.504 139.575 643.089 139.575H645.975C646.56 139.575 646.911 139.926 646.911 140.511V146.01H652.371Z" fill="#EEEEEE"/>
<path d="M454.003 308.998H398.003V336.998H454.003V308.998Z" fill="#00B39F"/>
<path d="M461 399.997V388.778C461 375.854 450.219 365.38 436.842 365.38H346.945V357.997H314V389.965H428.054V399.967L461 399.997Z" fill="#00B39F"/>
<path d="M346.918 347.498V334.815H391V308.998H314V347.498H346.918Z" fill="#00D3A9"/>
<path d="M428.116 406.999V422.445H384V448.996H438.353C444.254 449.088 449.952 446.863 454.197 442.809C458.442 438.756 460.888 433.204 461 427.37V406.999H428.116Z" fill="#00D3A9"/>
<path d="M344.156 406.999V421.508H373.5V448.996H335.768C330.095 449.091 324.619 446.788 320.538 442.591C316.458 438.394 314.106 432.646 314 426.606V406.999H344.156Z" fill="#00B39F"/>
</g>
<defs>
<filter id="filter0_d_13980_18356" x="0" y="0" width="778.478" height="765.721" filterUnits="userSpaceOnUse" color-interpolation-filters="sRGB">
<feFlood flood-opacity="0" result="BackgroundImageFix"/>
<feColorMatrix in="SourceAlpha" type="matrix" values="0 0 0 0 0 0 0 0 0 0 0 0 0 0 0 0 0 0 127 0" result="hardAlpha"/>
<feOffset dy="4"/>
<feGaussianBlur stdDeviation="2"/>
<feComposite in2="hardAlpha" operator="out"/>
<feColorMatrix type="matrix" values="0 0 0 0 0 0 0 0 0 0 0 0 0 0 0 0 0 0 0.25 0"/>
<feBlend mode="normal" in2="BackgroundImageFix" result="effect1_dropShadow_13980_18356"/>
<feBlend mode="normal" in="SourceGraphic" in2="effect1_dropShadow_13980_18356" result="shape"/>
</filter>
<filter id="filter1_d_13980_18356" x="257.781" y="253.774" width="258.218" height="256.224" filterUnits="userSpaceOnUse" color-interpolation-filters="sRGB">
<feFlood flood-opacity="0" result="BackgroundImageFix"/>
<feColorMatrix in="SourceAlpha" type="matrix" values="0 0 0 0 0 0 0 0 0 0 0 0 0 0 0 0 0 0 127 0" result="hardAlpha"/>
<feOffset dy="4"/>
<feGaussianBlur stdDeviation="2"/>
<feComposite in2="hardAlpha" operator="out"/>
<feColorMatrix type="matrix" values="0 0 0 0 0 0 0 0 0 0 0 0 0 0 0 0 0 0 0.25 0"/>
<feBlend mode="normal" in2="BackgroundImageFix" result="effect1_dropShadow_13980_18356"/>
<feBlend mode="normal" in="SourceGraphic" in2="effect1_dropShadow_13980_18356" result="shape"/>
</filter>
<filter id="filter2_d_13980_18356" x="302" y="9" width="172" height="172" filterUnits="userSpaceOnUse" color-interpolation-filters="sRGB">
<feFlood flood-opacity="0" result="BackgroundImageFix"/>
<feColorMatrix in="SourceAlpha" type="matrix" values="0 0 0 0 0 0 0 0 0 0 0 0 0 0 0 0 0 0 127 0" result="hardAlpha"/>
<feOffset dy="4"/>
<feGaussianBlur stdDeviation="2"/>
<feComposite in2="hardAlpha" operator="out"/>
<feColorMatrix type="matrix" values="0 0 0 0 0 0 0 0 0 0 0 0 0 0 0 0 0 0 0.25 0"/>
<feBlend mode="normal" in2="BackgroundImageFix" result="effect1_dropShadow_13980_18356"/>
<feBlend mode="normal" in="SourceGraphic" in2="effect1_dropShadow_13980_18356" result="shape"/>
</filter>
<filter id="filter3_d_13980_18356" x="302" y="584.721" width="172" height="172" filterUnits="userSpaceOnUse" color-interpolation-filters="sRGB">
<feFlood flood-opacity="0" result="BackgroundImageFix"/>
<feColorMatrix in="SourceAlpha" type="matrix" values="0 0 0 0 0 0 0 0 0 0 0 0 0 0 0 0 0 0 127 0" result="hardAlpha"/>
<feOffset dy="4"/>
<feGaussianBlur stdDeviation="2"/>
<feComposite in2="hardAlpha" operator="out"/>
<feColorMatrix type="matrix" values="0 0 0 0 0 0 0 0 0 0 0 0 0 0 0 0 0 0 0.25 0"/>
<feBlend mode="normal" in2="BackgroundImageFix" result="effect1_dropShadow_13980_18356"/>
<feBlend mode="normal" in="SourceGraphic" in2="effect1_dropShadow_13980_18356" result="shape"/>
</filter>
<filter id="filter4_d_13980_18356" x="510" y="82" width="172" height="172" filterUnits="userSpaceOnUse" color-interpolation-filters="sRGB">
<feFlood flood-opacity="0" result="BackgroundImageFix"/>
<feColorMatrix in="SourceAlpha" type="matrix" values="0 0 0 0 0 0 0 0 0 0 0 0 0 0 0 0 0 0 127 0" result="hardAlpha"/>
<feOffset dy="4"/>
<feGaussianBlur stdDeviation="2"/>
<feComposite in2="hardAlpha" operator="out"/>
<feColorMatrix type="matrix" values="0 0 0 0 0 0 0 0 0 0 0 0 0 0 0 0 0 0 0.25 0"/>
<feBlend mode="normal" in2="BackgroundImageFix" result="effect1_dropShadow_13980_18356"/>
<feBlend mode="normal" in="SourceGraphic" in2="effect1_dropShadow_13980_18356" result="shape"/>
</filter>
<filter id="filter5_d_13980_18356" x="598" y="297" width="172" height="172" filterUnits="userSpaceOnUse" color-interpolation-filters="sRGB">
<feFlood flood-opacity="0" result="BackgroundImageFix"/>
<feColorMatrix in="SourceAlpha" type="matrix" values="0 0 0 0 0 0 0 0 0 0 0 0 0 0 0 0 0 0 127 0" result="hardAlpha"/>
<feOffset dy="4"/>
<feGaussianBlur stdDeviation="2"/>
<feComposite in2="hardAlpha" operator="out"/>
<feColorMatrix type="matrix" values="0 0 0 0 0 0 0 0 0 0 0 0 0 0 0 0 0 0 0.25 0"/>
<feBlend mode="normal" in2="BackgroundImageFix" result="effect1_dropShadow_13980_18356"/>
<feBlend mode="normal" in="SourceGraphic" in2="effect1_dropShadow_13980_18356" result="shape"/>
</filter>
<filter id="filter6_d_13980_18356" x="502" y="508" width="172" height="172" filterUnits="userSpaceOnUse" color-interpolation-filters="sRGB">
<feFlood flood-opacity="0" result="BackgroundImageFix"/>
<feColorMatrix in="SourceAlpha" type="matrix" values="0 0 0 0 0 0 0 0 0 0 0 0 0 0 0 0 0 0 127 0" result="hardAlpha"/>
<feOffset dy="4"/>
<feGaussianBlur stdDeviation="2"/>
<feComposite in2="hardAlpha" operator="out"/>
<feColorMatrix type="matrix" values="0 0 0 0 0 0 0 0 0 0 0 0 0 0 0 0 0 0 0.25 0"/>
<feBlend mode="normal" in2="BackgroundImageFix" result="effect1_dropShadow_13980_18356"/>
<feBlend mode="normal" in="SourceGraphic" in2="effect1_dropShadow_13980_18356" result="shape"/>
</filter>
<filter id="filter7_d_13980_18356" x="100" y="508" width="172" height="172" filterUnits="userSpaceOnUse" color-interpolation-filters="sRGB">
<feFlood flood-opacity="0" result="BackgroundImageFix"/>
<feColorMatrix in="SourceAlpha" type="matrix" values="0 0 0 0 0 0 0 0 0 0 0 0 0 0 0 0 0 0 127 0" result="hardAlpha"/>
<feOffset dy="4"/>
<feGaussianBlur stdDeviation="2"/>
<feComposite in2="hardAlpha" operator="out"/>
<feColorMatrix type="matrix" values="0 0 0 0 0 0 0 0 0 0 0 0 0 0 0 0 0 0 0.25 0"/>
<feBlend mode="normal" in2="BackgroundImageFix" result="effect1_dropShadow_13980_18356"/>
<feBlend mode="normal" in="SourceGraphic" in2="effect1_dropShadow_13980_18356" result="shape"/>
</filter>
<filter id="filter8_d_13980_18356" x="9" y="296" width="172" height="172" filterUnits="userSpaceOnUse" color-interpolation-filters="sRGB">
<feFlood flood-opacity="0" result="BackgroundImageFix"/>
<feColorMatrix in="SourceAlpha" type="matrix" values="0 0 0 0 0 0 0 0 0 0 0 0 0 0 0 0 0 0 127 0" result="hardAlpha"/>
<feOffset dy="4"/>
<feGaussianBlur stdDeviation="2"/>
<feComposite in2="hardAlpha" operator="out"/>
<feColorMatrix type="matrix" values="0 0 0 0 0 0 0 0 0 0 0 0 0 0 0 0 0 0 0.25 0"/>
<feBlend mode="normal" in2="BackgroundImageFix" result="effect1_dropShadow_13980_18356"/>
<feBlend mode="normal" in="SourceGraphic" in2="effect1_dropShadow_13980_18356" result="shape"/>
</filter>
<filter id="filter9_d_13980_18356" x="92" y="85" width="172" height="172" filterUnits="userSpaceOnUse" color-interpolation-filters="sRGB">
<feFlood flood-opacity="0" result="BackgroundImageFix"/>
<feColorMatrix in="SourceAlpha" type="matrix" values="0 0 0 0 0 0 0 0 0 0 0 0 0 0 0 0 0 0 127 0" result="hardAlpha"/>
<feOffset dy="4"/>
<feGaussianBlur stdDeviation="2"/>
<feComposite in2="hardAlpha" operator="out"/>
<feColorMatrix type="matrix" values="0 0 0 0 0 0 0 0 0 0 0 0 0 0 0 0 0 0 0.25 0"/>
<feBlend mode="normal" in2="BackgroundImageFix" result="effect1_dropShadow_13980_18356"/>
<feBlend mode="normal" in="SourceGraphic" in2="effect1_dropShadow_13980_18356" result="shape"/>
</filter>
</defs>
</svg>
