<svg xmlns="http://www.w3.org/2000/svg" width="1168" height="700" fill="none" viewBox="0 0 1168 700">
<rect width="1168" height="700" class="colorMode1"/><path stroke="#7A848E" stroke-dasharray="2 2" stroke-width="3" d="M463.473 280.566L469.456 278.265L476.36 268.139V261.236L483.263 257.094L492.468 250.65L502.133 254.793L516.4 246.048L526.065 244.667L537.111 246.048L546.775 241.906L550.918 250.65L546.775 254.793L557.361 261.236H563.344L570.247 268.139L579.452 271.361L584.054 268.139V261.236H594.18L606.146 268.139H618.112H629.157L635.14 280.566L637.902 287.469L642.964 297.134L646.646 306.339V313.703L653.09 319.225L656.771 330.271L664.135 335.334L670.578 343.158L673.34 350.521L678.402 353.743L686.687 355.584L702.335 350.521V362.027L695.431 373.533L688.988 383.658L680.243 391.942L670.578 402.988L662.294 412.193L656.771 422.318L659.533 434.744L664.135 440.727V450.852V460.057L659.533 467.881L650.788 470.182L646.646 476.165L640.663 483.069L642.964 494.575L640.663 499.637L634.22 504.239L630.998 508.382V512.984L629.618 518.507L618.572 531.854L608.447 538.757L599.702 542.899L595.1 538.757L589.117 542.899H581.293L578.071 538.757V531.854L574.39 523.569L567.026 514.825V508.382L564.264 494.575L560.122 483.069L554.139 473.864V465.58L557.361 457.756L560.122 448.551V440.727V434.744L557.361 427.841L554.139 417.715L550.918 414.034L546.775 407.59V400.227V389.181V383.658L540.332 378.596H531.588L527.906 373.533L521.923 370.311L514.099 373.533L504.434 376.294H492.468L480.502 378.596L472.678 376.294L461.172 367.09L457.95 362.027L453.808 355.584L450.126 350.521L447.825 347.3V341.317L444.604 336.714L447.825 331.191V321.527V316.924V311.401V304.958L453.808 297.134L457.95 287.469L463.473 280.566Z"/><path stroke="#7A848E" stroke-dasharray="2 2" stroke-width="3" d="M693.59 454.074L684.846 463.739L676.101 468.801V480.767L671.959 489.512V498.716L676.101 503.779H684.846L689.908 498.716V489.512L695.891 474.784L698.653 463.739V454.074L695.891 449.471L693.59 454.074Z"/><path stroke="#7A848E" stroke-dasharray="2 2" stroke-width="3" d="M1018.98 577.417L1022.2 569.593H1029.56L1033.24 572.354L1029.56 577.417L1022.2 580.178L1018.98 577.417Z"/><path stroke="#7A848E" stroke-dasharray="2 2" stroke-width="3" d="M974.332 533.234L962.826 538.297H947.639L941.195 541.978L934.292 545.66L931.07 541.978V538.297L934.292 528.171V514.364V500.097L938.894 491.813L955.463 482.148H962.826L974.332 470.642L977.554 466.5L983.537 460.057L993.202 456.835L999.645 460.057L1002.87 455.454L1008.85 451.312L1019.9 448.091C1029.84 446.618 1028.95 450.852 1027.26 453.153L1022.2 460.057L1027.26 463.739L1039.23 470.642L1047.51 460.057V453.153L1052.57 445.79L1054.87 453.153L1060.86 460.057V472.483L1065 478.006L1071.9 491.813L1078.81 500.097V508.381L1075.12 523.569L1068.22 533.234L1060.86 538.297L1054.87 549.802L1047.51 555.786H1040.61L1037.38 559.007L1032.78 561.769L1027.26 559.007H1019.9L1014.37 555.786V549.802L1012.07 545.66L1007.47 538.297L1002.87 541.978L997.344 533.234L991.361 530.933H986.298L974.332 533.234Z"/><path stroke="#7A848E" stroke-dasharray="2 2" stroke-width="3" d="M1094.91 592.604H1084.79C1084.79 589.291 1088.47 585.087 1090.31 583.4L1101.82 577.417L1111.94 574.195L1120.69 568.212V574.195L1115.16 577.417L1111.94 583.4H1107.34L1101.82 588.922L1094.91 592.604Z"/><path stroke="#7A848E" stroke-dasharray="2 2" stroke-width="3" d="M1133.57 571.434H1127.59L1129.89 564.99V559.928L1136.34 557.166L1139.1 547.501L1141.86 554.405L1146 559.928L1139.1 564.99L1133.57 571.434Z"/><path stroke="#7A848E" stroke-dasharray="2 2" stroke-width="3" d="M305.613 624.821L293.186 617.917H284.442L272.476 612.855L266.493 603.19L258.669 592.144L261.89 588.002V582.019L258.669 576.036L252.225 567.752V559.468L249.924 537.376L246.703 517.586V499.177V482.148L237.498 471.563L225.992 464.199L218.628 454.074L211.265 442.108L204.821 426.92L199.759 424.619V414.034L204.821 409.891L199.759 403.908L204.821 394.243L211.265 384.118L214.486 379.516V373.073L211.265 362.027V358.805L214.486 362.027L218.628 358.805L223.231 353.283H228.293L232.896 347.3H237.498L239.799 355.584L237.498 362.027L232.896 355.584L243.021 349.601H249.924L254.066 353.283L261.43 355.584L270.175 353.283L275.697 355.584L286.283 368.47L290.885 373.073H298.249L308.834 376.294L313.437 384.118L316.658 391.022V396.545L322.181 399.766L327.244 403.908H333.687L336.909 406.21L343.352 409.891H353.017L360.841 414.034L369.585 419.096L374.648 421.397V426.92V434.744L367.284 446.71L360.841 454.074V464.199V478.466L353.017 491.813L346.573 494.114L336.909 499.177L330.005 505.62V512.063L327.244 524.49L319.42 537.376L313.437 542.899H307.914H302.851L305.613 547.962V555.325L299.63 559.468H293.186V567.752H284.442V572.814L288.124 576.036L284.442 584.32V588.002V592.144L288.124 597.667V603.19L284.442 608.713L288.124 612.855L284.442 624.821H290.885L296.408 627.122L305.613 624.821Z"/><path stroke="#7A848E" stroke-dasharray="2 2" stroke-width="3" d="M1075.58 432.903L1085.71 442.568L1082.49 445.79L1075.58 442.568L1067.76 435.664L1063.16 432.903H1058.09L1054.87 437.966L1045.67 435.664L1040.61 432.903H1036L1040.61 426L1036 421.857L1023.12 416.795L1016.21 414.494V409.891L1011.61 402.067H1023.12V405.749L1028.18 414.494L1032.78 409.891L1040.61 405.749L1048.89 409.891L1063.16 414.494L1072.82 421.857L1075.58 432.903Z"/><path stroke="#7A848E" stroke-dasharray="2 2" stroke-width="3" d="M945.338 380.897L936.133 387.8L926.929 392.402L928.77 402.988L933.372 410.352L945.338 414.954H954.543V410.352L961.446 400.687L964.208 397.005V390.561L961.446 385.039L964.208 377.215L961.446 372.612H954.543L945.338 380.897Z"/><path stroke="#7A848E" stroke-dasharray="2 2" stroke-width="3" d="M938.434 426L948.56 431.983L943.497 434.744L933.372 431.983H925.548H916.343L914.042 426H921.866H929.69H938.434Z"/><path stroke="#7A848E" stroke-dasharray="2 2" stroke-width="3" d="M914.503 411.732V418.636C914.503 424.159 908.059 423.392 904.838 422.318L898.395 415.414L892.411 402.528L883.207 389.181L875.383 381.817V375.374L890.571 381.817L895.173 389.181L904.838 396.084V400.687L914.503 411.732Z"/><path stroke="#7A848E" stroke-dasharray="2 2" stroke-width="3" d="M964.208 333.493L966.509 324.288C967.43 320.606 970.268 322.754 971.572 324.288V333.493L976.634 337.635L982.157 346.379L989.981 355.584L993.203 364.328V374.453H986.759L982.157 369.391L976.634 357.885L971.572 346.379L964.208 333.493Z"/><path stroke="#7A848E" stroke-dasharray="2 2" stroke-width="2" d="M896.553 385.499L892.411 373.073L884.587 361.107V346.839L890.11 352.362V358.345L892.411 363.408L896.553 368.47L904.377 373.073L907.599 380.897V391.942H904.377L896.553 385.499Z"/><path stroke="#7A848E" stroke-dasharray="2 2" stroke-width="3" d="M856.973 312.782L852.83 304.958L838.563 307.259L835.342 316.464L827.978 321.526L814.171 334.413L811.87 341.777V356.044C810.765 364.88 804.659 363.408 801.744 361.567L793.46 344.998L783.335 321.526V310.02H777.352H770.909V302.657H764.005L756.181 291.611L751.119 295.753L738.232 291.611H726.726L719.823 286.088L703.715 284.247L696.351 275.503L691.288 271.361L688.067 275.503L693.589 281.946L696.351 291.611H703.715L708.777 298.054L717.061 291.611L721.664 295.753L731.329 302.657V310.02L723.965 321.526L714.3 326.129L703.715 332.112L693.589 337.635L685.765 344.998H676.1L671.498 337.635V329.35L666.436 321.526L657.691 312.782V304.958L643.884 288.85L639.742 277.804L634.679 281.946L629.157 266.758H637.441L639.742 255.713V245.588L631.918 248.349L621.793 245.588H610.747L604.764 233.622V229.48H599.241L593.719 233.622L596.48 240.065L593.719 245.588L587.275 242.366L589.576 237.764L581.752 233.622L578.531 221.656L570.247 216.593L558.281 208.309C553.126 203.522 554.599 208.769 555.979 211.991L561.962 218.894C566.718 222.423 575.493 229.48 572.548 229.48C569.602 229.48 569.786 236.536 570.247 240.065L561.962 229.48L549.076 218.894L542.633 214.292L531.127 218.894H524.683L520.541 226.258L510.876 233.622V242.366L499.371 245.588H488.785L480.501 240.065L483.723 218.894H502.592L506.734 214.292V204.627L499.371 196.343L510.876 194.041L520.541 188.519L533.428 178.394H538.49L542.633 174.251V165.507L547.695 161.365V167.348L553.678 165.507V159.064L549.076 155.842L542.633 159.064L535.729 155.842V143.876L555.979 128.688L570.247 118.103L581.752 111.66H601.543L613.509 118.103L631.918 120.404C637.809 125.19 634.373 127.921 631.918 128.688H624.554L613.509 125.006L624.554 134.211H631.918L637.441 128.688L643.884 125.006L646.646 120.404L654.469 125.006L666.436 120.404H682.084L698.192 118.103H708.317L702.794 111.66L705.095 107.057H714.76L721.203 111.66L730.868 107.057L738.232 102.455H748.357V97.3923L763.545 93.7104H773.21L778.272 90.0286H787.017L795.761 93.7104H808.648L811.87 97.3923L808.648 102.455L825.677 104.756H829.358H837.643H845.467H860.194L876.763 111.66H886.428H894.251L896.553 104.756L911.74 107.057L929.69 111.66H945.337H955.923L967.889 118.103H990.44L994.583 115.341H1005.63L1022.66 118.103L1037.84 122.705L1047.51 126.387H1058.09L1064.54 133.291H1051.19L1044.29 128.688L1037.84 133.291L1047.51 137.893V142.955L1037.84 149.859H1028.18C1018.61 152.436 1020.51 156.763 1022.66 158.603L1030.48 161.825L1032.78 173.791V186.217H1028.18L1016.21 173.791L1008.39 161.825L1012.07 146.637L1008.39 142.955L1002.87 146.637H996.884H990.44V154.461H979.395H962.826L955.923 158.603L951.321 169.649L958.684 173.791H966.048L976.173 177.933H981.696L990.44 186.217L996.884 192.661V197.723L999.645 206.928L994.583 204.167L990.44 197.723L983.997 188.519H981.696L983.997 197.723V206.928L979.395 217.974H972.031L967.889 221.656L966.048 227.178V231.32L967.889 235.923L976.173 241.906L979.395 248.349L976.173 253.412H967.889L966.048 245.127L955.923 238.224L951.321 231.32C945.43 234.634 943.343 232.701 943.036 231.32L937.513 227.178L929.69 235.923L937.513 241.906H943.036L951.321 245.127L940.735 252.031L951.321 261.696L955.923 268.599L958.684 278.264L955.923 290.691L951.321 299.895L940.735 304.958L929.69 307.259L923.706 312.782L917.723 307.259L911.74 311.401L908.979 318.765L917.723 329.35L923.706 339.475V350.981L917.723 356.044L913.581 361.567H908.979V356.044L901.155 350.981L891.95 344.998H888.729V350.981L884.126 344.998L880.444 334.413L876.763 329.35L872.16 332.112H867.558V326.129L864.336 318.765L856.973 312.782Z"/><path stroke="#7A848E" stroke-dasharray="2 2" stroke-width="3" d="M987.219 264.918L984.918 258.474L986.299 254.332L990.441 250.19H995.964L1002.41 246.048L1008.85 238.684L1006.09 232.701L1001.03 223.036V217.053V210.15L1007.01 214.292L1015.29 217.053L1012.99 221.656H1007.01V228.559H1011.15L1015.29 235.003V240.065L1017.13 246.048V253.412H1008.85L1003.79 258.474L998.265 257.554H994.123L990.441 255.713L988.14 257.554L991.821 261.696L990.441 267.219L987.219 264.918Z"/><path stroke="#7A848E" stroke-dasharray="2 2" stroke-width="3" d="M698.192 247.889L687.146 240.525V229.48L675.641 217.974V211.53L687.146 200.945L695.891 207.849L692.209 211.53H687.146V217.974L695.891 222.116H701.874L705.096 227.178L698.192 229.48L701.874 235.923L705.096 242.826L698.192 247.889Z"/><path stroke="#7A848E" stroke-dasharray="2 2" stroke-width="3" d="M626.856 224.877L616.27 228.559L609.827 219.355L612.589 211.07L621.793 203.707L626.856 211.07H634.22V203.707H642.964V211.07L650.788 216.133L658.152 224.877L650.788 228.559L639.282 224.877H626.856Z"/><path stroke="#7A848E" stroke-dasharray="2 2" stroke-width="3" d="M509.496 168.268L517.32 179.774L520.542 182.536L517.32 186.678L506.275 189.899H497.53L500.292 182.536V179.774L506.275 173.331L500.292 168.268V164.126V159.524H506.275L509.496 168.268Z"/><path stroke="#7A848E" stroke-dasharray="2 2" stroke-width="3" d="M484.184 174.712L491.547 171.49C497.438 168.913 496.15 172.564 494.769 174.712L491.547 181.615L484.184 185.297V174.712Z"/><path stroke="#7A848E" stroke-dasharray="2 2" stroke-width="3" d="M451.967 133.291L462.092 130.069H473.598L478.66 133.291L468.535 139.274H457.49L451.967 133.291Z"/><path stroke="#7A848E" stroke-dasharray="2 2" stroke-width="3" d="M367.744 129.609L372.346 122.245C378.606 119.668 378.636 114.421 377.869 112.12L372.346 101.995L362.221 93.7106H354.397L346.573 90.489V85.4264H362.221L372.346 80.3638L386.614 77.6024L409.165 80.3638L422.972 75.3013H449.666H468.535L479.581 80.3638L472.677 90.489L468.535 98.313L459.791 101.995L452.887 106.137L459.791 112.12L452.887 115.802L440.001 119.944L430.796 122.245L422.972 125.467L409.165 129.609L396.279 136.512L386.614 149.859H377.869L367.744 142.495V129.609Z"/><path stroke="#7A848E" stroke-dasharray="2 2" stroke-width="3" d="M318.038 82.6649L309.294 90.4889L320.34 94.631L329.084 90.4889L340.13 86.807L360.38 82.6649L373.727 73L349.795 75.7614H333.686V82.6649H329.084H318.038Z"/><path stroke="#7A848E" stroke-dasharray="3 3" stroke-width="3" d="M296.407 102.915H287.203L277.998 107.978L287.203 113.501H296.407H306.993L315.277 123.626V126.847H306.993L301.47 133.291L306.993 140.194L318.038 143.416L324.942 136.973V130.069H328.624C338.933 132.646 338.749 128.995 337.368 126.847L331.845 119.484L324.942 111.199L318.038 107.978H312.516L306.993 105.216L296.407 102.915Z"/><path stroke="#7A848E" stroke-dasharray="2 2" stroke-width="3" d="M198.378 99.6936L191.475 102.915L183.19 106.137L185.952 111.199L191.475 106.137H200.679L204.361 111.199L198.378 118.563H206.662H212.185H219.549L227.833 116.722L237.498 115.342V111.199V106.137H234.276H230.134L225.992 102.915L221.39 106.137L215.407 102.915L206.662 99.6936H198.378Z"/><path stroke="#7A848E" stroke-dasharray="3 3" stroke-width="3" d="M328.624 192.201L337.368 197.723L328.624 200.485H319.879L315.737 197.723L319.879 194.502L328.624 186.678V192.201Z"/><path stroke="#7A848E" stroke-dasharray="2 2" stroke-width="3" d="M239.799 239.144L255.907 226.718L266.032 223.497L272.476 215.673L283.521 209.689H287.663V215.673H294.567L305.152 209.689L294.567 205.087L298.249 195.422H290.425L294.567 188.058H307.453H317.579L327.704 182.996L334.607 176.553L327.704 174.251L322.641 166.888L319.88 151.24L307.453 158.143L302.851 151.24V146.177L287.663 141.575L279.839 146.177L275.237 155.842V162.285L266.032 170.57L258.208 174.251V180.234L251.305 185.757L246.702 180.234L249.464 169.189L239.799 166.888L233.816 162.285L224.611 155.842L230.594 146.177L243.021 141.575L251.305 136.972L261.89 133.751L268.333 130.069L279.839 133.751L277.078 139.734L266.032 136.972L272.476 126.387H283.521L290.425 121.325V116.262H283.521L272.476 121.325L268.333 116.262L266.032 108.898L258.208 112.12V116.262L251.305 121.325V116.262H246.702V121.325H239.799L230.594 123.626L224.611 121.325L213.566 123.626V126.387L201.139 123.626L188.253 116.262H173.525H161.559L142.69 121.325L129.803 116.262L98.0468 112.12H84.7L66.7509 116.262L60.7679 119.023C57.853 119.023 52.5757 120.496 54.7848 126.387L47.4211 130.069H38.2164C37.2959 131.45 36.6516 134.763 41.438 136.972L34.5345 141.575H26.2503L22.1082 148.939L16.1252 151.24L22.1082 155.842L6 169.189L34.5345 158.143L50.1825 151.24H54.7848L69.5123 146.177L82.3989 151.24L92.0638 158.143L96.6661 164.126C95.132 169.649 92.0638 182.167 92.0638 188.058C100.348 188.058 105.871 196.803 101.268 198.644C97.5866 200.117 88.6887 210.61 84.7 215.673L74.1147 229.94L77.3363 253.872L84.7 263.997V272.742L87.9217 285.628L92.0638 295.293L96.6661 300.816V285.628L92.0638 276.884V269.98H96.6661V280.566L104.03 292.071L112.774 305.878V316.464L133.025 329.35H151.434L158.337 337.635L170.304 342.237H174.906L179.048 350.061L187.332 360.646L198.838 366.629L207.583 360.646H198.838L189.633 350.061V332.572H179.048L174.906 329.35L179.048 314.163C180.736 311.708 181.809 307.535 172.605 310.481L166.161 319.225L155.576 322.907L148.212 316.464L143.15 305.878L148.212 288.85L151.434 280.566L166.161 272.742L179.048 276.884L189.633 269.98L196.537 272.742L204.821 276.884V288.85L207.583 292.071L213.566 288.85V280.566L209.884 269.98L218.628 263.997L225.992 258.014L237.498 253.872V243.747L239.799 239.144Z"/><path stroke="#7A848E" stroke-dasharray="2 2" stroke-width="3" d="M243.02 322.447H230.134L233.816 315.083H238.418L251.305 317.845L243.02 322.447Z"/><path stroke="#7A848E" stroke-dasharray="2 2" stroke-width="3" d="M211.264 301.736H196.076L200.218 304.958L208.042 309.1L214.946 314.163L229.213 311.861L224.611 309.1L211.264 301.736Z"/><path stroke="#7A848E" stroke-dasharray="2 2" stroke-width="3" d="M204.821 205.087H217.708L209.424 211.991L204.821 222.116L207.122 226.258L212.645 222.116L217.708 209.69H225.992V217.053L235.657 211.991V205.087H230.594L225.992 202.326L221.39 197.263H209.424L204.821 205.087Z"/><path stroke="#7A848E" stroke-dasharray="2 2" stroke-width="3" d="M285.362 96.4719L307.914 100.614L312.976 96.4719H299.63L291.345 92.3298L285.362 96.4719Z"/><path stroke="#7A848E" stroke-dasharray="2 2" stroke-width="3" d="M310.215 78.5227L306.993 84.966H300.55L294.106 82.6648L300.55 78.5227H310.215Z"/><path stroke="#7A848E" stroke-dasharray="2 2" stroke-width="3" d="M564.264 168.729L568.406 160.905L571.168 155.382L573.469 151.24L568.406 145.717V140.654L578.071 137.433L584.054 128.228L590.498 133.291L581.753 140.654L584.054 148.939H599.702L605.685 151.24L599.702 155.382H590.498V160.905H584.054V168.729L578.071 172.871H573.469L564.264 176.092L559.662 172.871H549.997L555.98 168.729H564.264Z"/><path stroke="#7A848E" stroke-dasharray="2 2" stroke-width="3" d="M964.208 411.272L968.35 400.687C966.141 397.373 969.271 394.09 971.112 392.863C971.112 390.654 983.078 391.942 989.061 392.863C989.061 400.227 980.47 397.772 976.174 395.624L972.952 398.846L974.333 403.448H981.237L976.174 407.59L978.936 414.034L976.174 417.255L972.952 411.272L971.112 414.034V422.318L964.208 420.937V411.272Z"/><path stroke="#EBC017" stroke-dasharray="2 5" d="M121.5 298.5C121.5 298.5 258.544 279.233 344.545 294C390.359 301.866 458 330 458 330"/><path stroke="#EBC017" stroke-dasharray="2 5" d="M521.5 357.5C521.5 357.5 390.36 301.866 344.546 294C258.545 279.233 169 258 169 258C146.5 262 136.5 285.5 136.5 285.5"/><path stroke="#EBC017" stroke-dasharray="2 5" d="M82 244.541C82 244.541 119.061 232.027 142.318 241.618C154.708 246.727 173 265 173 265"/><path stroke="#EBC017" stroke-dasharray="2 5" d="M103 201C103 201 96.6906 246.552 107 269.5C122.5 304 166.5 329.5 166.5 329.5"/><path stroke="#EBC017" stroke-dasharray="2 5" d="M83 253.5C99 289.5 128.081 295.573 168.5 331.501C200 359.5 259 480.499 310.5 497"/><path stroke="#EBC017" stroke-dasharray="2 5" d="M102 200.5C102 200.5 111.542 201.279 144 226.5C161.291 239.936 170 259 170 259C170 259 170 244 195 224C227.098 198.322 256 219 256 219"/><path stroke="#EBC017" stroke-dasharray="2 5" d="M115 182C115 182 138.5 179 160 193C178.35 204.949 186 225.5 186 225.5C186 225.5 198 208 217 201C236 194 252 201 252 201"/><path stroke="#EBC017" stroke-dasharray="2 5" d="M255.5 221C255.5 221 258.875 278.901 344.714 294.58C390.442 302.933 521.5 357 521.5 357"/><path stroke="#EBC017" stroke-dasharray="2 5" d="M255.5 221C255.5 221 282.467 170.031 389.5 165.5C446.517 163.086 506 177 506 177"/><path stroke="#EBC017" stroke-dasharray="2 5" d="M512.5 209.5C512.5 209.5 523.457 184.858 531.5 174C541.5 160.5 566 157 566 157"/><path stroke="#EBC017" stroke-dasharray="2 5" d="M573 188C573 188 571.673 173.558 570.643 167.17C569.363 159.227 566 157 566 157"/><path stroke="#EBC017" stroke-dasharray="2 5" d="M213 268C213 268 230.784 222.561 353.5 213.5C418.872 208.673 497 231.5 497 231.5"/><path stroke="#EBC017" stroke-dasharray="2 5" d="M833.5 309C833.5 309 837.393 388.091 906.5 465C968.5 534 1030 559 1030 559"/><path stroke="#EBC017" stroke-dasharray="2 5" d="M519 356.5C519 356.5 510.5 328.237 510.5 269C510.5 198 519 207 519 207"/><path stroke="#EBC017" stroke-dasharray="2 5" d="M311 496.5C311 496.5 348.861 414.062 400.519 385.071C428.038 369.627 522.5 357.5 522.5 357.5"/><path stroke="#EBC017" stroke-dasharray="2 5" d="M522 357.5C522 357.5 597.865 382.764 669.5 378.5C711.5 376 802.5 326.5 802.5 326.5C802.5 326.5 744 322.5 718 318C692 313.5 680.5 310.5 640.5 293C600.5 275.5 548.574 251.252 515.874 211.112"/><path stroke="#EBC017" stroke-dasharray="2 5" d="M833 309C833 309 879.82 311.962 910.601 300.678C926.998 294.667 957.5 276 957.5 276"/><path stroke="#EBC017" stroke-dasharray="2 5" d="M833 309C833 309 879.82 311.962 910.601 300.678C926.998 294.667 957.5 276 957.5 276"/><path stroke="#EBC017" stroke-dasharray="2 5" d="M666 379C666 379 651 342 651 301.5C651 264 677.464 226.714 677.464 226.714"/><path stroke="#EBC017" stroke-dasharray="2 5" d="M610 201C610 201 663.033 212.862 706 239.5C745.784 264.165 780 289 780 289"/><path stroke="#EBC017" stroke-dasharray="2 5" d="M929.5 308C929.5 308 930.82 288.431 961.601 277.148C977.998 271.136 1008.5 252.469 1008.5 252.469"/><path stroke="#EBC017" stroke-dasharray="2 5" d="M1126 572C1126 572 1148.5 478.5 1063 387C991.441 310.42 922.5 303 922.5 303C922.5 303 879 294.18 855 303C822.501 314.943 802.499 326.5 802.499 326.5"/><rect width="25" height="25" x="1017" y="546" fill="#00B39F" fill-opacity=".5" rx="12.5"/><rect width="63" height="63" x="59" y="218" fill="#00B39F" fill-opacity=".1" rx="31.5"/><rect width="30" height="30" x="195" y="252" fill="#00B39F" fill-opacity=".25" rx="15"/><rect width="40" height="40" x="143" y="242" fill="#00B39F" fill-opacity=".1" rx="20"/><rect width="20" height="20" x="160" y="256" fill="#00B39F" fill-opacity=".5" rx="10"/><rect width="10" height="10" x="163" y="253" fill="#00B39F" fill-opacity=".5" rx="5"/><rect width="6" height="6" x="168" y="262" fill="#00B39F" fill-opacity=".65" rx="3"/><rect width="63" height="63" x="67" y="179" fill="#00B39F" fill-opacity=".1" rx="31.5"/><rect width="45" height="45" x="233" y="198" fill="#00B39F" fill-opacity=".1" rx="22.5"/><rect width="45" height="45" x="200" y="216" fill="#00B39F" fill-opacity=".1" rx="22.5"/><rect width="20" height="20" x="241" y="191" fill="#00B39F" fill-opacity=".2" rx="10"/><rect width="5" height="5" x="207" y="276" fill="#00B39F" fill-opacity=".54" rx="2.5"/><rect width="5" height="5" x="80" y="251" fill="#00B39F" fill-opacity=".5" rx="2.5"/><rect width="5" height="5" x="77" y="242" fill="#00B39F" fill-opacity=".5" rx="2.5"/><rect width="15" height="15" x="76" y="239" fill="#00B39F" fill-opacity=".5" rx="7.5"/><rect width="15" height="15" x="80" y="251" fill="#00B39F" fill-opacity=".5" rx="7.5"/><rect width="5" height="5" x="102" y="193" fill="#00B39F" fill-opacity=".5" rx="2.5"/><rect width="22" height="22" x="92" y="191" fill="#00B39F" fill-opacity=".5" rx="11"/><rect width="18" height="18" x="245" y="210" fill="#00B39F" fill-opacity=".41" rx="9"/><rect width="10" height="10" x="109" y="177" fill="#00B39F" fill-opacity=".5" rx="5"/><rect width="91" height="91" x="763" y="270" fill="#00B39F" fill-opacity=".1" rx="45.5"/><rect width="91" height="91" x="478" y="303" fill="#00B39F" fill-opacity=".1" rx="45.5"/><rect width="91" height="91" x="467" y="157" fill="#00B39F" fill-opacity=".1" rx="45.5"/><rect width="91" height="91" x="529" y="142" fill="#00B39F" fill-opacity=".12" rx="45.5"/><rect width="40" height="40" x="647" y="202" fill="#00B39F" fill-opacity=".12" rx="20"/><rect width="45" height="45" x="809" y="290" fill="#00B39F" fill-opacity=".25" rx="22.5"/><rect width="45" height="45" x="508" y="331" fill="#00B39F" fill-opacity=".25" rx="22.5"/><rect width="45" height="45" x="786" y="309" fill="#00B39F" fill-opacity=".25" rx="22.5"/><rect width="45" height="45" x="479" y="325" fill="#00B39F" fill-opacity=".25" rx="22.5"/><rect width="25" height="25" x="791" y="316" fill="#00B39F" fill-opacity=".5" rx="12.5"/><rect width="15" height="15" x="950" y="271" fill="#00B39F" fill-opacity=".5" rx="7.5"/><rect width="25" height="25" x="910" y="289" fill="#00B39F" fill-opacity=".25" rx="12.5"/><rect width="15" height="15" x="826" y="301" fill="#00B39F" fill-opacity=".5" rx="7.5"/><rect width="11" height="11" x="823" y="290" fill="#00B39F" fill-opacity=".3" rx="5.5"/><rect width="10" height="10" x="1121" y="567" fill="#00B39F" fill-opacity=".5" rx="5"/><rect width="19" height="19" x="512" y="347" fill="#00B39F" rx="9.5"/><rect width="19" height="19" x="657" y="369" fill="#00B39F" fill-opacity=".7" rx="9.5"/><rect width="12" height="12" x="920" y="299" fill="#00B39F" fill-opacity=".49" rx="6"/><rect width="7" height="7" x="1010" y="244" fill="#00B39F" fill-opacity=".18" rx="3.5"/><rect width="7" height="7" x="1005" y="248" fill="#00B39F" fill-opacity=".18" rx="3.5"/><rect width="28" height="28" x="550" y="180" fill="#00B39F" fill-opacity=".3" rx="14"/><rect width="28" height="28" x="484" y="217" fill="#00B39F" fill-opacity=".3" rx="14"/><rect width="28" height="28" x="767" y="276" fill="#00B39F" fill-opacity=".3" rx="14"/><rect width="19" height="19" x="497" y="169" fill="#00B39F" fill-opacity=".6" rx="9.5"/><rect width="6" height="6" x="503" y="165" fill="#00B39F" fill-opacity=".6" rx="3"/><rect width="19" height="19" x="504" y="201" fill="#00B39F" fill-opacity=".5" rx="9.5"/><rect width="10" height="10" x="517" y="197" fill="#00B39F" fill-opacity=".5" rx="5"/><rect width="10" height="10" x="672" y="219" fill="#00B39F" fill-opacity=".3" rx="5"/><rect width="10" height="10" x="604" y="197" fill="#00B39F" fill-opacity=".3" rx="5"/><rect width="8" height="8" x="653" y="217" fill="#00B39F" fill-opacity=".5" rx="4"/><rect width="10" height="10" x="561" y="152" fill="#00B39F" fill-opacity=".5" rx="5"/><rect width="8" height="8" x="545" y="148" fill="#00B39F" fill-opacity=".3" rx="4"/><rect width="5" height="5" x="564" y="144" fill="#00B39F" fill-opacity=".3" rx="2.5"/><rect width="10" height="10" x="567" y="184" fill="#00B39F" fill-opacity=".5" rx="5"/><rect width="4" height="4" x="555" y="193" fill="#00B39F" fill-opacity=".5" rx="2"/><rect width="22" height="22" x="110" y="294" fill="#00B39F" fill-opacity=".37" rx="11"/><rect width="13" height="13" x="163" y="326" fill="#00B39F" fill-opacity=".57" rx="6.5"/><rect width="7" height="7" x="131" y="309" fill="#00B39F" fill-opacity=".14" rx="3.5"/><rect width="5" height="5" x="185" y="350" fill="#00B39F" fill-opacity=".35" rx="2.5"/><rect width="5" height="5" x="183" y="224" fill="#00B39F" fill-opacity=".35" rx="2.5"/><rect width="2" height="2" x="239" y="231" fill="#00B39F" fill-opacity=".35" rx="1"/><rect width="2" height="2" x="235" y="240" fill="#00B39F" fill-opacity=".35" rx="1"/><rect width="2" height="2" x="231" y="236" fill="#00B39F" fill-opacity=".35" rx="1"/><rect width="5" height="5" x="247" y="201" fill="#00B39F" fill-opacity=".35" rx="2.5"/><rect width="3" height="3" x="177" y="229" fill="#00B39F" fill-opacity=".35" rx="1.5"/><rect width="3" height="3" x="109" y="259" fill="#00B39F" fill-opacity=".35" rx="1.5"/><rect width="3" height="3" x="113" y="257" fill="#00B39F" fill-opacity=".35" rx="1.5"/><rect width="12" height="12" x="131" y="279" fill="#00B39F" fill-opacity=".37" rx="6"/><rect width="12" height="12" x="216" y="250" fill="#00B39F" fill-opacity=".37" rx="6"/><rect width="19" height="19" x="302" y="487" fill="#00B39F" fill-opacity=".45" rx="9.5"/></svg>