<svg width="900" height="900" viewBox="0 0 900 900" fill="none" xmlns="http://www.w3.org/2000/svg">
<g clip-path="url(#clip0_1_2)">
<path d="M900 0H0V900H900V0Z" fill="url(#paint0_linear_1_2)"/>
<g filter="url(#filter0_d_1_2)">
<path d="M166.201 656.29C166.673 645.832 169.23 635.574 173.72 626.117C178.21 616.66 184.544 608.194 192.35 601.216C212.843 580.288 242.518 579.664 242.518 579.664C283.616 578.012 302.824 603.309 302.824 603.309L368.931 537.221C354.49 523.808 343.438 507.16 336.685 488.646C334.488 509.918 324.727 529.695 309.177 544.38C309.177 544.38 284.423 570.081 247.513 570.081C231.488 570.284 215.718 574.112 201.385 581.28C185.21 590.214 172.403 604.191 164.915 621.079C156.158 639.163 153.577 659.62 157.57 679.311C161.536 696.115 169.902 711.561 181.809 724.067L189.485 716.43C181.713 708.519 175.638 699.104 171.634 688.762C167.63 678.421 165.781 667.371 166.201 656.29Z" fill="#00D3A9"/>
<path d="M425.498 569.09L423.221 566.887C402.901 561.71 384.21 551.509 368.866 537.221L302.758 603.309C302.758 603.309 327.952 622.511 326.3 663.633C326.3 663.633 325.675 693.299 304.741 713.786C297.767 721.594 289.3 727.927 279.838 732.41C270.376 736.894 260.112 739.438 249.651 739.891C238.546 740.316 227.472 738.467 217.108 734.458C206.744 730.449 197.309 724.364 189.383 716.577L181.744 724.25C194.322 736.143 209.836 744.481 226.697 748.409C246.394 752.401 266.856 749.821 284.945 741.066C301.824 733.572 315.791 720.769 324.72 704.607C331.98 690.266 335.862 674.454 336.069 658.382C335.848 621.667 361.777 596.737 361.777 596.737C373.732 584.217 389.027 575.387 405.849 571.293C412.27 569.677 418.879 568.936 425.498 569.09Z" fill="#00B39F"/>
<path d="M654.771 737.577C644.306 737.104 634.04 734.55 624.575 730.063C615.111 725.576 606.639 719.247 599.656 711.447C578.712 690.969 578.087 661.317 578.087 661.317C576.434 620.251 601.75 601.057 601.75 601.057L535.612 535C522.188 549.43 505.528 560.473 487 567.221C508.288 569.417 528.08 579.171 542.777 594.708C542.777 594.708 568.497 619.443 568.497 656.326C568.7 672.338 572.531 688.097 579.704 702.419C588.645 718.581 602.632 731.379 619.534 738.861C637.631 747.612 658.103 750.19 677.809 746.201C694.626 742.238 710.085 733.878 722.6 721.98L714.957 714.31C707.04 722.076 697.618 728.146 687.268 732.147C676.919 736.148 665.861 737.995 654.771 737.577Z" fill="#00B39F"/>
<path d="M567.893 480L565.689 482.275C560.508 502.579 550.299 521.257 536 536.589L602.138 602.647C602.138 602.647 621.355 577.471 662.508 579.123C662.508 579.123 692.197 579.747 712.7 600.665C720.514 607.634 726.851 616.095 731.338 625.549C735.825 635.004 738.37 645.26 738.825 655.713C739.25 666.809 737.4 677.876 733.387 688.232C729.375 698.588 723.285 708.016 715.492 715.936L723.172 723.569C735.074 711 743.417 695.498 747.349 678.65C751.343 658.968 748.762 638.521 740 620.446C732.5 603.58 719.688 589.623 703.514 580.701C689.162 573.447 673.338 569.568 657.254 569.361C620.51 569.581 595.561 543.672 595.561 543.672C583.032 531.726 574.195 516.443 570.098 499.633C568.481 493.218 567.739 486.613 567.893 480Z" fill="#00D3A9"/>
<path d="M242.235 155.886C252.666 156.29 262.912 158.771 272.371 163.184C281.831 167.598 290.315 173.854 297.325 181.587C318.406 201.964 319.14 231.63 319.14 231.63C321.05 272.715 295.966 292.064 295.966 292.064L363.69 359.107C378.194 345.23 395.832 335.053 415.107 329.441L419 325.769C413.112 325.953 407.225 325.385 401.481 324.08C383.788 320.366 367.624 311.41 355.096 298.379C355.096 298.379 329.02 273.559 329.057 236.844C328.712 220.797 324.718 205.04 317.377 190.766C308.378 174.644 294.343 161.915 277.419 154.527C259.282 145.876 238.806 143.412 219.134 147.514C202.311 151.526 186.86 159.941 174.364 171.894L182.04 179.494C189.933 171.663 199.344 165.529 209.696 161.469C220.048 157.409 231.121 155.509 242.235 155.886Z" fill="#00D3A9"/>
<path d="M364.052 359.107L296.401 292.211C296.401 292.211 277.303 317.508 236.17 316.076C236.17 316.076 206.495 315.599 185.891 294.781C178.03 287.832 171.643 279.378 167.108 269.918C162.572 260.459 159.98 250.186 159.485 239.708C159 228.606 160.789 217.522 164.743 207.136C168.696 196.75 174.731 187.281 182.475 179.31L174.763 171.747C162.92 184.324 154.631 199.82 150.744 216.65C146.839 236.357 149.51 256.801 158.346 274.844C165.933 291.686 178.834 305.576 195.073 314.387C209.448 321.524 225.261 325.291 241.311 325.402C278.038 324.961 303.122 350.699 303.122 350.699C316.838 363.582 326.164 380.444 329.786 398.907C332.954 397.017 335.985 394.907 338.857 392.592C345.317 380.096 353.834 368.776 364.052 359.107Z" fill="#00B39F"/>
<path d="M798.531 506.012C790.811 513.076 781.755 518.525 771.897 522.037C762.038 525.55 751.576 527.054 741.127 526.463C711.746 526.793 690.408 506.269 690.408 506.269C660.145 478.365 664.369 446.973 664.369 446.973H571.524V447.34C571.604 467.946 566.556 488.247 556.833 506.416C573.758 491.551 595.684 483.641 618.203 484.276C618.203 484.276 654.012 483.469 679.941 509.72C691.475 520.894 705.404 529.294 720.671 534.283C738.416 539.414 757.354 538.589 774.585 531.933C793.528 525.255 809.758 512.551 820.787 495.768C829.929 481.095 834.999 464.253 835.478 446.973H824.68C824.574 458.076 822.199 469.039 817.703 479.191C813.206 489.344 806.682 498.471 798.531 506.012Z" fill="#00D3A9"/>
<path d="M571.524 447.171H664.369C664.369 447.171 660.145 415.779 690.408 387.875C690.408 387.875 711.82 367.314 741.127 367.645C751.576 367.053 762.038 368.558 771.897 372.07C781.755 375.582 790.811 381.031 798.531 388.095C806.683 395.644 813.208 404.777 817.704 414.935C822.201 425.094 824.574 436.063 824.68 447.171H835.478C835.005 429.878 829.935 413.023 820.787 398.339C809.697 381.586 793.415 368.933 774.438 362.321C757.207 355.665 738.269 354.84 720.524 359.971C705.257 364.96 691.328 373.36 679.794 384.534C653.865 410.786 618.057 409.978 618.057 409.978C599.348 410.465 580.953 405.114 565.427 394.667C564.703 397.976 564.163 401.322 563.811 404.691C568.821 418.298 571.431 432.671 571.524 447.171Z" fill="#00B39F"/>
<path d="M734.48 236.937C734.007 247.394 731.451 257.652 726.961 267.11C722.47 276.567 716.137 285.032 708.331 292.01C687.837 312.938 658.162 313.562 658.162 313.562C617.065 315.215 597.857 289.917 597.857 289.917L531.749 356.006C546.191 369.419 557.242 386.067 563.995 404.581C566.193 383.309 575.954 363.532 591.503 348.846C591.503 348.846 616.257 323.145 653.167 323.145C669.192 322.943 684.963 319.114 699.296 311.947C715.47 303.013 728.278 289.036 735.766 272.147C744.523 254.064 747.103 233.607 743.111 213.916C739.145 197.112 730.779 181.665 718.871 169.16L711.195 176.796C718.968 184.708 725.042 194.123 729.046 204.464C733.05 214.806 734.899 225.856 734.48 236.937Z" fill="#00B39F"/>
<path d="M475.08 324.136L477.357 326.339C497.677 331.516 516.368 341.717 531.712 356.005L597.82 289.917C597.82 289.917 572.626 270.715 574.279 229.593C574.279 229.593 574.903 199.927 595.837 179.44C602.811 171.632 611.279 165.299 620.74 160.816C630.202 156.332 640.466 153.788 650.927 153.335C662.032 152.91 673.106 154.759 683.47 158.768C693.834 162.777 703.269 168.862 711.195 176.649L718.834 168.976C706.256 157.083 690.742 148.745 673.881 144.817C654.184 140.826 633.722 143.405 615.633 152.16C598.754 159.654 584.787 172.457 575.858 188.619C568.598 202.96 564.716 218.772 564.509 234.844C564.73 271.559 538.801 296.489 538.801 296.489C526.846 309.009 511.551 317.839 494.729 321.933C488.308 323.549 481.699 324.29 475.08 324.136Z" fill="#00D3A9"/>
<path d="M102.094 387.445C109.837 380.399 118.91 374.971 128.78 371.478C138.65 367.985 149.118 366.498 159.571 367.104C188.952 366.884 210.217 387.445 210.217 387.445C240.406 415.422 235.926 446.814 235.926 446.814L327.338 447.071V446.851C327.318 427.201 331.95 407.826 340.854 390.308C337.981 392.623 334.95 394.734 331.782 396.623C316.932 405.683 299.775 410.248 282.385 409.768C282.385 409.768 246.576 410.502 220.721 384.067C209.208 372.866 195.291 364.44 180.028 359.43C162.299 354.252 143.36 355.026 126.113 361.633C107.137 368.224 90.836 380.833 79.6906 397.541C70.564 412.222 65.4948 429.059 65 446.336H75.7609C75.9109 435.245 78.3237 424.302 82.8516 414.175C87.3795 404.049 93.9272 394.953 102.094 387.445Z" fill="#00B39F"/>
<path d="M236.109 446.851C236.109 446.851 240.259 478.242 209.96 506.073C209.96 506.073 188.512 526.56 159.204 526.193C148.752 526.752 138.293 525.218 128.442 521.681C118.59 518.144 109.545 512.675 101.837 505.596C93.6956 498.031 87.1888 488.882 82.717 478.709C78.2452 468.537 75.903 457.558 75.8345 446.447H65.0735C65.454 463.713 70.4229 480.566 79.4704 495.279C90.5063 512.101 106.765 524.834 125.746 531.517C142.957 538.187 161.877 539.051 179.624 533.977C194.908 529.015 208.861 520.64 220.427 509.488C246.43 483.309 282.201 484.19 282.201 484.19C303.786 483.645 324.839 490.922 341.478 504.678C332.188 486.896 327.337 467.132 327.338 447.071L236.109 446.851Z" fill="#00D3A9"/>
<g filter="url(#filter1_d_1_2)">
<path d="M655 314.608C700.287 314.608 737 277.895 737 232.608C737 187.321 700.287 150.608 655 150.608C609.713 150.608 573 187.321 573 232.608C573 277.895 609.713 314.608 655 314.608Z" fill="#252E31"/>
</g>
<g filter="url(#filter2_d_1_2)">
<path d="M448 821.277C493.287 821.277 530 784.564 530 739.277C530 693.99 493.287 657.277 448 657.277C402.713 657.277 366 693.99 366 739.277C366 784.564 402.713 821.277 448 821.277Z" fill="#252E31"/>
</g>
<path d="M424.094 766.549L417.962 759.465C420.342 758.625 422.05 756.385 422.05 753.781C422.05 750.421 419.334 747.677 415.974 747.677H411.41H409.422C409.03 747.677 408.834 747.901 408.834 748.293V766.689C408.834 767.081 409.03 767.277 409.422 767.277H410.822C411.214 767.277 411.41 767.081 411.41 766.689V759.801H415.134L421.266 766.941C421.462 767.193 421.714 767.277 422.022 767.277H423.758C424.262 767.277 424.402 766.941 424.094 766.549ZM411.41 750.113H415.974C417.878 750.113 419.474 751.737 419.474 753.781C419.474 755.797 417.878 757.421 415.974 757.421H411.41V750.113ZM431.784 752.941C427.416 752.941 424.532 756.161 424.532 760.277C424.532 764.505 427.444 767.641 431.812 767.641C434.668 767.641 436.964 766.213 437.944 764.001C438.112 763.637 437.888 763.385 437.44 763.385H436.096C435.76 763.385 435.564 763.525 435.368 763.777C434.724 764.757 433.464 765.457 431.84 765.457C429.376 765.457 427.472 763.973 427.052 761.397H436.18H438C438.364 761.397 438.616 761.229 438.644 760.837C438.644 760.669 438.644 760.501 438.644 760.333C438.644 756.385 436.012 752.941 431.784 752.941ZM427.052 759.269C427.416 756.833 429.18 755.209 431.784 755.209C433.884 755.209 435.816 756.525 436.18 759.269H427.052ZM449.068 752.941C446.688 752.941 444.896 753.977 443.776 755.657V753.893C443.776 753.501 443.552 753.277 443.188 753.277H441.928C441.536 753.277 441.34 753.501 441.34 753.893V772.289C441.34 772.681 441.536 772.877 441.928 772.877H443.188C443.552 772.877 443.776 772.681 443.776 772.289V764.925C444.896 766.605 446.688 767.641 449.068 767.641C452.932 767.641 456.152 764.449 456.152 760.277C456.152 756.133 452.932 752.941 449.068 752.941ZM448.732 765.289C445.932 765.289 443.776 763.133 443.776 760.277C443.776 757.421 445.932 755.265 448.732 755.265C451.56 755.265 453.716 757.421 453.716 760.277C453.716 763.133 451.56 765.289 448.732 765.289ZM465.638 767.641C469.726 767.641 473.002 764.449 473.002 760.277C473.002 756.133 469.726 752.941 465.638 752.941C461.522 752.941 458.246 756.133 458.246 760.277C458.246 764.449 461.522 767.641 465.638 767.641ZM465.638 765.261C462.838 765.261 460.682 763.105 460.682 760.277C460.682 757.449 462.838 755.293 465.638 755.293C468.41 755.293 470.566 757.449 470.566 760.277C470.566 763.105 468.41 765.261 465.638 765.261ZM477.781 757.085C477.781 755.769 479.069 755.181 480.441 755.181C481.617 755.181 482.765 755.657 483.017 756.917C483.129 757.281 483.297 757.477 483.633 757.477H484.865C485.257 757.477 485.509 757.281 485.453 756.861C485.173 754.341 483.073 752.941 480.441 752.941C477.585 752.941 475.345 754.565 475.345 757.085C475.345 762.377 483.353 760.305 483.353 763.497C483.353 764.813 482.065 765.373 480.441 765.373C479.041 765.373 477.837 764.925 477.585 763.637C477.473 763.301 477.305 763.105 476.941 763.105H475.709C475.345 763.105 475.093 763.301 475.121 763.721C475.429 766.213 477.557 767.641 480.441 767.641C483.549 767.641 485.789 766.017 485.789 763.497C485.789 758.205 477.781 760.277 477.781 757.085Z" fill="white"/>
<path d="M508.498 795.284C515.566 787.56 521.016 778.5 524.53 768.639C528.043 758.777 529.547 748.312 528.955 737.861C529.285 708.488 508.755 687.156 508.755 687.156C480.843 656.939 449.442 661.162 449.442 661.162V568.124C459.875 568.198 470.276 566.965 480.402 564.453L478.125 566.656C484.81 566.521 491.483 567.299 497.958 568.969C490.153 583.022 486.247 598.905 486.646 614.973C486.646 614.973 485.838 650.771 512.097 676.692C523.274 688.223 531.677 702.148 536.667 717.41C541.8 735.15 540.974 754.083 534.317 771.309C527.631 790.163 514.966 806.317 498.251 817.314C483.573 826.452 466.727 831.521 449.442 832V821.205C460.531 821.125 471.487 818.785 481.641 814.328C491.796 809.871 500.934 803.391 508.498 795.284Z" fill="#00D3A9"/>
<path d="M418.334 566.949L414.441 563.278C425.806 566.559 437.575 568.228 449.404 568.234V660.978C449.404 660.978 418.003 656.756 390.128 686.973C390.128 686.973 369.561 708.378 369.891 737.677C369.284 748.164 370.788 758.666 374.314 768.562C377.841 778.457 383.318 787.544 390.422 795.284C397.977 803.426 407.114 809.94 417.275 814.429C427.436 818.917 438.406 821.286 449.515 821.389V832C432.229 831.521 415.383 826.452 400.705 817.314C383.947 806.226 371.29 789.949 364.676 770.978C358.019 753.752 357.193 734.82 362.326 717.08C367.293 701.884 375.644 688.012 386.749 676.509C413.008 650.588 412.2 614.79 412.2 614.79C412.604 598.665 408.673 582.727 400.815 568.638C406.559 567.333 412.446 566.766 418.334 566.949Z" fill="#00B39F"/>
<g filter="url(#filter3_d_1_2)">
<path d="M745 529.608C790.287 529.608 827 492.895 827 447.608C827 402.321 790.287 365.608 745 365.608C699.713 365.608 663 402.321 663 447.608C663 492.895 699.713 529.608 745 529.608Z" fill="#252E31"/>
</g>
<g filter="url(#filter4_d_1_2)">
<path d="M659 739C704.287 739 741 702.287 741 657C741 611.713 704.287 575 659 575C613.713 575 577 611.713 577 657C577 702.287 613.713 739 659 739Z" fill="#252E31"/>
</g>
<g filter="url(#filter5_d_1_2)">
<path d="M247 740.608C292.287 740.608 329 703.895 329 658.608C329 613.321 292.287 576.608 247 576.608C201.713 576.608 165 613.321 165 658.608C165 703.895 201.713 740.608 247 740.608Z" fill="#252E31"/>
</g>
<g filter="url(#filter6_d_1_2)">
<path d="M156 528.608C201.287 528.608 238 491.895 238 446.608C238 401.321 201.287 364.608 156 364.608C110.713 364.608 74 401.321 74 446.608C74 491.895 110.713 528.608 156 528.608Z" fill="#252E31"/>
</g>
<g filter="url(#filter7_d_1_2)">
<path d="M239 317.608C284.287 317.608 321 280.895 321 235.608C321 190.321 284.287 153.608 239 153.608C193.713 153.608 157 190.321 157 235.608C157 280.895 193.713 317.608 239 317.608Z" fill="#252E31"/>
</g>
<path d="M183.274 266.972C187.474 266.972 191.086 264.452 192.374 260.812C192.514 260.448 192.29 260.168 191.87 260.168H190.302C189.994 260.168 189.77 260.336 189.602 260.644C188.566 262.94 186.102 264.452 183.274 264.452C178.71 264.452 175.63 261.12 175.63 256.808C175.63 252.524 178.71 249.192 183.274 249.192C186.102 249.192 188.566 250.704 189.602 253C189.77 253.308 189.994 253.448 190.302 253.448H191.87C192.29 253.448 192.486 253.196 192.374 252.776C191.058 249.164 187.446 246.672 183.274 246.672C177.282 246.672 173.026 251.18 173.026 256.808C173.026 262.464 177.282 266.972 183.274 266.972ZM201.582 266.972C205.67 266.972 208.946 263.78 208.946 259.608C208.946 255.464 205.67 252.272 201.582 252.272C197.466 252.272 194.19 255.464 194.19 259.608C194.19 263.78 197.466 266.972 201.582 266.972ZM201.582 264.592C198.782 264.592 196.626 262.436 196.626 259.608C196.626 256.78 198.782 254.624 201.582 254.624C204.354 254.624 206.51 256.78 206.51 259.608C206.51 262.436 204.354 264.592 201.582 264.592ZM225.566 252.272C223.998 252.272 222.57 252.832 221.534 254.456C220.778 253.028 219.406 252.272 217.894 252.272C216.55 252.272 215.234 252.776 214.282 254.148V253.224C214.282 252.832 214.058 252.608 213.694 252.608H212.434C212.042 252.608 211.846 252.832 211.846 253.224V266.02C211.846 266.412 212.042 266.608 212.434 266.608H213.694C214.058 266.608 214.282 266.412 214.282 266.02V258.096C214.282 255.352 215.99 254.568 217.25 254.568C218.566 254.568 219.686 255.324 219.686 257.284V266.02C219.686 266.412 219.91 266.608 220.274 266.608H221.534C221.926 266.608 222.122 266.412 222.122 266.02V258.096C222.122 255.352 223.83 254.568 225.09 254.568C226.406 254.568 227.526 255.324 227.526 257.284V266.02C227.526 266.412 227.75 266.608 228.142 266.608H229.374C229.766 266.608 229.962 266.412 229.962 266.02V257.172C229.962 253.952 228.03 252.272 225.566 252.272ZM247.058 252.272C245.49 252.272 244.062 252.832 243.026 254.456C242.27 253.028 240.898 252.272 239.386 252.272C238.042 252.272 236.726 252.776 235.774 254.148V253.224C235.774 252.832 235.55 252.608 235.186 252.608H233.926C233.534 252.608 233.338 252.832 233.338 253.224V266.02C233.338 266.412 233.534 266.608 233.926 266.608H235.186C235.55 266.608 235.774 266.412 235.774 266.02V258.096C235.774 255.352 237.482 254.568 238.742 254.568C240.058 254.568 241.178 255.324 241.178 257.284V266.02C241.178 266.412 241.402 266.608 241.766 266.608H243.026C243.418 266.608 243.614 266.412 243.614 266.02V258.096C243.614 255.352 245.322 254.568 246.582 254.568C247.898 254.568 249.018 255.324 249.018 257.284V266.02C249.018 266.412 249.242 266.608 249.634 266.608H250.866C251.258 266.608 251.454 266.412 251.454 266.02V257.172C251.454 253.952 249.522 252.272 247.058 252.272ZM261.27 252.272C256.902 252.272 254.018 255.492 254.018 259.608C254.018 263.836 256.93 266.972 261.298 266.972C264.154 266.972 266.45 265.544 267.43 263.332C267.598 262.968 267.374 262.716 266.926 262.716H265.582C265.246 262.716 265.05 262.856 264.854 263.108C264.21 264.088 262.95 264.788 261.326 264.788C258.862 264.788 256.958 263.304 256.538 260.728H265.666H267.486C267.85 260.728 268.102 260.56 268.13 260.168C268.13 260 268.13 259.832 268.13 259.664C268.13 255.716 265.498 252.272 261.27 252.272ZM256.538 258.6C256.902 256.164 258.666 254.54 261.27 254.54C263.37 254.54 265.302 255.856 265.666 258.6H256.538ZM277.407 252.272C275.699 252.272 274.271 252.832 273.263 254.344V253.224C273.263 252.832 273.039 252.608 272.675 252.608H271.415C271.023 252.608 270.827 252.832 270.827 253.224V266.02C270.827 266.412 271.023 266.608 271.415 266.608H272.675C273.039 266.608 273.263 266.412 273.263 266.02V258.656C273.263 255.632 274.999 254.568 276.763 254.568C278.415 254.568 279.647 255.604 279.647 257.62V266.02C279.647 266.412 279.871 266.608 280.263 266.608H281.495C281.887 266.608 282.083 266.412 282.083 266.02V257.536C282.083 254.232 280.011 252.272 277.407 252.272ZM291.503 252.608H289.347V248.744C289.347 248.352 289.151 248.128 288.759 248.128H287.499C287.135 248.128 286.911 248.352 286.911 248.744V252.608H284.755C284.363 252.608 284.139 252.832 284.139 253.224V254.372C284.139 254.764 284.363 254.96 284.755 254.96H286.911V266.02C286.911 266.412 287.135 266.608 287.499 266.608H288.759C289.151 266.608 289.347 266.412 289.347 266.02V254.96H291.503C291.895 254.96 292.091 254.764 292.091 254.372V253.224C292.091 252.832 291.895 252.608 291.503 252.608ZM296.249 256.416C296.249 255.1 297.537 254.512 298.909 254.512C300.085 254.512 301.233 254.988 301.485 256.248C301.597 256.612 301.765 256.808 302.101 256.808H303.333C303.725 256.808 303.977 256.612 303.921 256.192C303.641 253.672 301.541 252.272 298.909 252.272C296.053 252.272 293.813 253.896 293.813 256.416C293.813 261.708 301.821 259.636 301.821 262.828C301.821 264.144 300.533 264.704 298.909 264.704C297.509 264.704 296.305 264.256 296.053 262.968C295.941 262.632 295.773 262.436 295.409 262.436H294.177C293.813 262.436 293.561 262.632 293.589 263.052C293.897 265.544 296.025 266.972 298.909 266.972C302.017 266.972 304.257 265.348 304.257 262.828C304.257 257.536 296.249 259.608 296.249 256.416Z" fill="white"/>
<path d="M703.727 476.92C707.327 476.92 710.423 474.76 711.527 471.64C711.647 471.328 711.455 471.088 711.095 471.088H709.751C709.487 471.088 709.295 471.232 709.151 471.496C708.263 473.464 706.151 474.76 703.727 474.76C699.815 474.76 697.175 471.904 697.175 468.208C697.175 464.536 699.815 461.68 703.727 461.68C706.151 461.68 708.263 462.976 709.151 464.944C709.295 465.208 709.487 465.328 709.751 465.328H711.095C711.455 465.328 711.623 465.112 711.527 464.752C710.399 461.656 707.303 459.52 703.727 459.52C698.591 459.52 694.943 463.384 694.943 468.208C694.943 473.056 698.591 476.92 703.727 476.92ZM719.419 476.92C722.923 476.92 725.731 474.184 725.731 470.608C725.731 467.056 722.923 464.32 719.419 464.32C715.891 464.32 713.083 467.056 713.083 470.608C713.083 474.184 715.891 476.92 719.419 476.92ZM719.419 474.88C717.019 474.88 715.171 473.032 715.171 470.608C715.171 468.184 717.019 466.336 719.419 466.336C721.795 466.336 723.643 468.184 723.643 470.608C723.643 473.032 721.795 474.88 719.419 474.88ZM737.073 464.608H735.993C735.681 464.608 735.489 464.8 735.489 465.136V471.448C735.489 474.04 734.001 474.928 732.489 474.928C731.073 474.928 730.017 474.04 730.017 472.336V465.136C730.017 464.8 729.825 464.608 729.489 464.608H728.433C728.097 464.608 727.929 464.8 727.929 465.136V472.408C727.929 475.216 729.705 476.92 731.937 476.92C733.377 476.92 734.625 476.44 735.489 475.144V476.104C735.489 476.44 735.657 476.608 735.993 476.608H737.073C737.385 476.608 737.577 476.44 737.577 476.104V465.136C737.577 464.8 737.385 464.608 737.073 464.608ZM746.419 464.32C744.955 464.32 743.731 464.8 742.867 466.096V465.136C742.867 464.8 742.675 464.608 742.363 464.608H741.283C740.947 464.608 740.779 464.8 740.779 465.136V476.104C740.779 476.44 740.947 476.608 741.283 476.608H742.363C742.675 476.608 742.867 476.44 742.867 476.104V469.792C742.867 467.2 744.355 466.288 745.867 466.288C747.283 466.288 748.339 467.176 748.339 468.904V476.104C748.339 476.44 748.531 476.608 748.867 476.608H749.923C750.259 476.608 750.427 476.44 750.427 476.104V468.832C750.427 466 748.651 464.32 746.419 464.32ZM758.502 464.608H756.654V461.296C756.654 460.96 756.486 460.768 756.15 460.768H755.07C754.758 460.768 754.566 460.96 754.566 461.296V464.608H752.718C752.382 464.608 752.19 464.8 752.19 465.136V466.12C752.19 466.456 752.382 466.624 752.718 466.624H754.566V476.104C754.566 476.44 754.758 476.608 755.07 476.608H756.15C756.486 476.608 756.654 476.44 756.654 476.104V466.624H758.502C758.838 466.624 759.006 466.456 759.006 466.12V465.136C759.006 464.8 758.838 464.608 758.502 464.608ZM766.237 464.44C764.989 464.56 763.861 465.112 763.141 466.432V465.136C763.141 464.8 762.949 464.632 762.637 464.632H761.557C761.221 464.632 761.053 464.8 761.053 465.136V476.104C761.053 476.44 761.221 476.632 761.557 476.632H762.637C762.949 476.632 763.141 476.44 763.141 476.104V470.2C763.141 467.608 764.725 466.648 766.405 466.576C766.621 466.576 766.765 466.384 766.765 466.072V464.944C766.765 464.608 766.573 464.416 766.237 464.44ZM769.291 462.448H770.371C770.683 462.448 770.875 462.28 770.875 461.944V460.336C770.875 460 770.683 459.808 770.371 459.808H769.291C768.955 459.808 768.787 460 768.787 460.336V461.944C768.787 462.28 768.955 462.448 769.291 462.448ZM769.291 476.608H770.371C770.683 476.608 770.875 476.44 770.875 476.104V465.136C770.875 464.8 770.683 464.608 770.371 464.608H769.291C768.955 464.608 768.787 464.8 768.787 465.136V476.104C768.787 476.44 768.955 476.608 769.291 476.608ZM779.581 464.32C775.837 464.32 773.365 467.08 773.365 470.608C773.365 474.232 775.861 476.92 779.605 476.92C782.053 476.92 784.021 475.696 784.861 473.8C785.005 473.488 784.813 473.272 784.429 473.272H783.277C782.989 473.272 782.821 473.392 782.653 473.608C782.101 474.448 781.021 475.048 779.629 475.048C777.517 475.048 775.885 473.776 775.525 471.568H783.349H784.909C785.221 471.568 785.437 471.424 785.461 471.088C785.461 470.944 785.461 470.8 785.461 470.656C785.461 467.272 783.205 464.32 779.581 464.32ZM775.525 469.744C775.837 467.656 777.349 466.264 779.581 466.264C781.381 466.264 783.037 467.392 783.349 469.744H775.525ZM789.5 467.872C789.5 466.744 790.604 466.24 791.78 466.24C792.788 466.24 793.772 466.648 793.988 467.728C794.084 468.04 794.228 468.208 794.516 468.208H795.572C795.908 468.208 796.124 468.04 796.076 467.68C795.836 465.52 794.036 464.32 791.78 464.32C789.332 464.32 787.412 465.712 787.412 467.872C787.412 472.408 794.276 470.632 794.276 473.368C794.276 474.496 793.172 474.976 791.78 474.976C790.58 474.976 789.548 474.592 789.332 473.488C789.236 473.2 789.092 473.032 788.78 473.032H787.724C787.412 473.032 787.196 473.2 787.22 473.56C787.484 475.696 789.308 476.92 791.78 476.92C794.444 476.92 796.364 475.528 796.364 473.368C796.364 468.832 789.5 470.608 789.5 467.872Z" fill="white"/>
<path d="M743.483 434.014H741.455V428.476C741.455 427.852 741.143 427.54 740.558 427.54H736.97C736.385 427.54 736.034 427.852 736.034 428.476V434.014H728.624L737.126 417.439C737.438 416.776 737.165 416.308 736.463 416.308H732.641C732.134 416.308 731.783 416.542 731.549 416.971L723.125 433.468C722.93 433.858 722.852 434.209 722.852 434.599V438.07C722.852 438.655 723.164 438.967 723.788 438.967H736.034V442.711C736.034 443.296 736.385 443.608 736.97 443.608H740.558C741.143 443.608 741.455 443.296 741.455 442.711V438.967H743.483C744.068 438.967 744.38 438.655 744.38 438.07V434.95C744.38 434.326 744.068 434.014 743.483 434.014ZM757.132 444.154C764.074 444.154 768.052 438.382 768.052 429.958C768.052 421.534 764.074 415.801 757.132 415.801C750.151 415.801 746.212 421.534 746.212 429.958C746.212 438.382 750.151 444.154 757.132 444.154ZM757.132 438.928C753.466 438.928 751.555 435.73 751.555 429.958C751.555 424.186 753.466 421.027 757.132 421.027C760.759 421.027 762.67 424.186 762.67 429.958C762.67 435.73 760.759 438.928 757.132 438.928Z" fill="white"/>
<path d="M91.6216 475.946C95.5216 475.946 98.8756 473.606 100.072 470.226C100.202 469.888 99.9936 469.628 99.6036 469.628H98.1476C97.8616 469.628 97.6536 469.784 97.4976 470.07C96.5356 472.202 94.2476 473.606 91.6216 473.606C87.3836 473.606 84.5236 470.512 84.5236 466.508C84.5236 462.53 87.3836 459.436 91.6216 459.436C94.2476 459.436 96.5356 460.84 97.4976 462.972C97.6536 463.258 97.8616 463.388 98.1476 463.388H99.6036C99.9936 463.388 100.176 463.154 100.072 462.764C98.8496 459.41 95.4956 457.096 91.6216 457.096C86.0576 457.096 82.1056 461.282 82.1056 466.508C82.1056 471.76 86.0576 475.946 91.6216 475.946ZM108.622 475.946C112.418 475.946 115.46 472.982 115.46 469.108C115.46 465.26 112.418 462.296 108.622 462.296C104.8 462.296 101.758 465.26 101.758 469.108C101.758 472.982 104.8 475.946 108.622 475.946ZM108.622 473.736C106.022 473.736 104.02 471.734 104.02 469.108C104.02 466.482 106.022 464.48 108.622 464.48C111.196 464.48 113.198 466.482 113.198 469.108C113.198 471.734 111.196 473.736 108.622 473.736ZM124.263 462.296C122.677 462.296 121.351 462.816 120.415 464.22V463.18C120.415 462.816 120.207 462.608 119.869 462.608H118.699C118.335 462.608 118.153 462.816 118.153 463.18V475.062C118.153 475.426 118.335 475.608 118.699 475.608H119.869C120.207 475.608 120.415 475.426 120.415 475.062V468.224C120.415 465.416 122.027 464.428 123.665 464.428C125.199 464.428 126.343 465.39 126.343 467.262V475.062C126.343 475.426 126.551 475.608 126.915 475.608H128.059C128.423 475.608 128.605 475.426 128.605 475.062V467.184C128.605 464.116 126.681 462.296 124.263 462.296ZM137.352 462.608H135.35V459.02C135.35 458.656 135.168 458.448 134.804 458.448H133.634C133.296 458.448 133.088 458.656 133.088 459.02V462.608H131.086C130.722 462.608 130.514 462.816 130.514 463.18V464.246C130.514 464.61 130.722 464.792 131.086 464.792H133.088V475.062C133.088 475.426 133.296 475.608 133.634 475.608H134.804C135.168 475.608 135.35 475.426 135.35 475.062V464.792H137.352C137.716 464.792 137.898 464.61 137.898 464.246V463.18C137.898 462.816 137.716 462.608 137.352 462.608ZM145.731 462.426C144.379 462.556 143.157 463.154 142.377 464.584V463.18C142.377 462.816 142.169 462.634 141.831 462.634H140.661C140.297 462.634 140.115 462.816 140.115 463.18V475.062C140.115 475.426 140.297 475.634 140.661 475.634H141.831C142.169 475.634 142.377 475.426 142.377 475.062V468.666C142.377 465.858 144.093 464.818 145.913 464.74C146.147 464.74 146.303 464.532 146.303 464.194V462.972C146.303 462.608 146.095 462.4 145.731 462.426ZM149.04 460.268H150.21C150.548 460.268 150.756 460.086 150.756 459.722V457.98C150.756 457.616 150.548 457.408 150.21 457.408H149.04C148.676 457.408 148.494 457.616 148.494 457.98V459.722C148.494 460.086 148.676 460.268 149.04 460.268ZM149.04 475.608H150.21C150.548 475.608 150.756 475.426 150.756 475.062V463.18C150.756 462.816 150.548 462.608 150.21 462.608H149.04C148.676 462.608 148.494 462.816 148.494 463.18V475.062C148.494 475.426 148.676 475.608 149.04 475.608ZM161.383 462.296C159.173 462.296 157.509 463.258 156.469 464.818V457.98C156.469 457.616 156.261 457.408 155.923 457.408H154.753C154.389 457.408 154.207 457.616 154.207 457.98V475.062C154.207 475.426 154.389 475.608 154.753 475.608H155.923C156.261 475.608 156.469 475.426 156.469 475.062V473.424C157.509 474.984 159.173 475.946 161.383 475.946C164.971 475.946 167.961 472.982 167.961 469.108C167.961 465.26 164.971 462.296 161.383 462.296ZM161.071 473.762C158.471 473.762 156.469 471.76 156.469 469.108C156.469 466.456 158.471 464.454 161.071 464.454C163.697 464.454 165.699 466.456 165.699 469.108C165.699 471.76 163.697 473.762 161.071 473.762ZM180.254 462.608H179.084C178.746 462.608 178.538 462.816 178.538 463.18V470.018C178.538 472.826 176.926 473.788 175.288 473.788C173.754 473.788 172.61 472.826 172.61 470.98V463.18C172.61 462.816 172.402 462.608 172.038 462.608H170.894C170.53 462.608 170.348 462.816 170.348 463.18V471.058C170.348 474.1 172.272 475.946 174.69 475.946C176.25 475.946 177.602 475.426 178.538 474.022V475.062C178.538 475.426 178.72 475.608 179.084 475.608H180.254C180.592 475.608 180.8 475.426 180.8 475.062V463.18C180.8 462.816 180.592 462.608 180.254 462.608ZM189.86 462.608H187.858V459.02C187.858 458.656 187.676 458.448 187.312 458.448H186.142C185.804 458.448 185.596 458.656 185.596 459.02V462.608H183.594C183.23 462.608 183.022 462.816 183.022 463.18V464.246C183.022 464.61 183.23 464.792 183.594 464.792H185.596V475.062C185.596 475.426 185.804 475.608 186.142 475.608H187.312C187.676 475.608 187.858 475.426 187.858 475.062V464.792H189.86C190.224 464.792 190.406 464.61 190.406 464.246V463.18C190.406 462.816 190.224 462.608 189.86 462.608ZM198.276 475.946C202.072 475.946 205.114 472.982 205.114 469.108C205.114 465.26 202.072 462.296 198.276 462.296C194.454 462.296 191.412 465.26 191.412 469.108C191.412 472.982 194.454 475.946 198.276 475.946ZM198.276 473.736C195.676 473.736 193.674 471.734 193.674 469.108C193.674 466.482 195.676 464.48 198.276 464.48C200.85 464.48 202.852 466.482 202.852 469.108C202.852 471.734 200.85 473.736 198.276 473.736ZM213.423 462.426C212.071 462.556 210.849 463.154 210.069 464.584V463.18C210.069 462.816 209.861 462.634 209.523 462.634H208.353C207.989 462.634 207.807 462.816 207.807 463.18V475.062C207.807 475.426 207.989 475.634 208.353 475.634H209.523C209.861 475.634 210.069 475.426 210.069 475.062V468.666C210.069 465.858 211.785 464.818 213.605 464.74C213.839 464.74 213.995 464.532 213.995 464.194V462.972C213.995 462.608 213.787 462.4 213.423 462.426ZM217.753 466.144C217.753 464.922 218.949 464.376 220.223 464.376C221.315 464.376 222.381 464.818 222.615 465.988C222.719 466.326 222.875 466.508 223.187 466.508H224.331C224.695 466.508 224.929 466.326 224.877 465.936C224.617 463.596 222.667 462.296 220.223 462.296C217.571 462.296 215.491 463.804 215.491 466.144C215.491 471.058 222.927 469.134 222.927 472.098C222.927 473.32 221.731 473.84 220.223 473.84C218.923 473.84 217.805 473.424 217.571 472.228C217.467 471.916 217.311 471.734 216.973 471.734H215.829C215.491 471.734 215.257 471.916 215.283 472.306C215.569 474.62 217.545 475.946 220.223 475.946C223.109 475.946 225.189 474.438 225.189 472.098C225.189 467.184 217.753 469.108 217.753 466.144Z" fill="white"/>
<path d="M210.844 674.624V693.02C210.844 693.412 211.04 693.608 211.432 693.608H212.832C213.224 693.608 213.42 693.412 213.42 693.02V674.624C213.42 674.232 213.224 674.008 212.832 674.008H211.432C211.04 674.008 210.844 674.232 210.844 674.624ZM219.417 683.416C219.417 682.1 220.705 681.512 222.077 681.512C223.253 681.512 224.401 681.988 224.653 683.248C224.765 683.612 224.933 683.808 225.269 683.808H226.501C226.893 683.808 227.145 683.612 227.089 683.192C226.809 680.672 224.709 679.272 222.077 679.272C219.221 679.272 216.981 680.896 216.981 683.416C216.981 688.708 224.989 686.636 224.989 689.828C224.989 691.144 223.701 691.704 222.077 691.704C220.677 691.704 219.473 691.256 219.221 689.968C219.109 689.632 218.941 689.436 218.577 689.436H217.345C216.981 689.436 216.729 689.632 216.757 690.052C217.065 692.544 219.193 693.972 222.077 693.972C225.185 693.972 227.425 692.348 227.425 689.828C227.425 684.536 219.417 686.608 219.417 683.416ZM232.186 683.416C232.186 682.1 233.474 681.512 234.846 681.512C236.022 681.512 237.17 681.988 237.422 683.248C237.534 683.612 237.702 683.808 238.038 683.808H239.27C239.662 683.808 239.914 683.612 239.858 683.192C239.578 680.672 237.478 679.272 234.846 679.272C231.99 679.272 229.75 680.896 229.75 683.416C229.75 688.708 237.758 686.636 237.758 689.828C237.758 691.144 236.47 691.704 234.846 691.704C233.446 691.704 232.242 691.256 231.99 689.968C231.878 689.632 231.71 689.436 231.346 689.436H230.114C229.75 689.436 229.498 689.632 229.526 690.052C229.834 692.544 231.962 693.972 234.846 693.972C237.954 693.972 240.194 692.348 240.194 689.828C240.194 684.536 232.186 686.608 232.186 683.416ZM253.436 679.608H252.176C251.812 679.608 251.588 679.832 251.588 680.224V687.588C251.588 690.612 249.852 691.648 248.088 691.648C246.436 691.648 245.204 690.612 245.204 688.624V680.224C245.204 679.832 244.98 679.608 244.588 679.608H243.356C242.964 679.608 242.768 679.832 242.768 680.224V688.708C242.768 691.984 244.84 693.972 247.444 693.972C249.124 693.972 250.58 693.412 251.588 691.9V693.02C251.588 693.412 251.784 693.608 252.176 693.608H253.436C253.8 693.608 254.024 693.412 254.024 693.02V680.224C254.024 679.832 253.8 679.608 253.436 679.608ZM264.2 679.272C259.832 679.272 256.948 682.492 256.948 686.608C256.948 690.836 259.86 693.972 264.228 693.972C267.084 693.972 269.38 692.544 270.36 690.332C270.528 689.968 270.304 689.716 269.856 689.716H268.512C268.176 689.716 267.98 689.856 267.784 690.108C267.14 691.088 265.88 691.788 264.256 691.788C261.792 691.788 259.888 690.304 259.468 687.728H268.596H270.416C270.78 687.728 271.032 687.56 271.06 687.168C271.06 687 271.06 686.832 271.06 686.664C271.06 682.716 268.428 679.272 264.2 679.272ZM259.468 685.6C259.832 683.164 261.596 681.54 264.2 681.54C266.3 681.54 268.232 682.856 268.596 685.6H259.468ZM275.772 683.416C275.772 682.1 277.06 681.512 278.432 681.512C279.608 681.512 280.756 681.988 281.008 683.248C281.12 683.612 281.288 683.808 281.624 683.808H282.856C283.248 683.808 283.5 683.612 283.444 683.192C283.164 680.672 281.064 679.272 278.432 679.272C275.576 679.272 273.336 680.896 273.336 683.416C273.336 688.708 281.344 686.636 281.344 689.828C281.344 691.144 280.056 691.704 278.432 691.704C277.032 691.704 275.828 691.256 275.576 689.968C275.464 689.632 275.296 689.436 274.932 689.436H273.7C273.336 689.436 273.084 689.632 273.112 690.052C273.42 692.544 275.548 693.972 278.432 693.972C281.54 693.972 283.78 692.348 283.78 689.828C283.78 684.536 275.772 686.608 275.772 683.416Z" fill="white"/>
<path d="M640.584 674H632.576H630.588C630.196 674 630 674.224 630 674.616V693.012C630 693.404 630.196 693.6 630.588 693.6H631.988C632.38 693.6 632.576 693.404 632.576 693.012V685.788H640.248C640.64 685.788 640.836 685.592 640.836 685.2V683.912C640.836 683.548 640.64 683.324 640.248 683.324H632.576V676.464H640.584C640.976 676.464 641.2 676.268 641.2 675.876V674.616C641.2 674.224 640.976 674 640.584 674ZM650.273 693.964C654.361 693.964 657.637 690.772 657.637 686.6C657.637 682.456 654.361 679.264 650.273 679.264C646.157 679.264 642.881 682.456 642.881 686.6C642.881 690.772 646.157 693.964 650.273 693.964ZM650.273 691.584C647.473 691.584 645.317 689.428 645.317 686.6C645.317 683.772 647.473 681.616 650.273 681.616C653.045 681.616 655.201 683.772 655.201 686.6C655.201 689.428 653.045 691.584 650.273 691.584ZM666.585 679.404C665.129 679.544 663.813 680.188 662.973 681.728V680.216C662.973 679.824 662.749 679.628 662.385 679.628H661.125C660.733 679.628 660.537 679.824 660.537 680.216V693.012C660.537 693.404 660.733 693.628 661.125 693.628H662.385C662.749 693.628 662.973 693.404 662.973 693.012V686.124C662.973 683.1 664.821 681.98 666.781 681.896C667.033 681.896 667.201 681.672 667.201 681.308V679.992C667.201 679.6 666.977 679.376 666.585 679.404ZM680.621 692.872L674.433 686.404L680.341 680.356C680.705 679.964 680.565 679.6 680.033 679.6H678.437C678.129 679.6 677.933 679.712 677.737 679.936L671.997 685.816V674.616C671.997 674.224 671.773 674 671.409 674H670.149C669.757 674 669.561 674.224 669.561 674.616V693.012C669.561 693.404 669.757 693.6 670.149 693.6H671.409C671.773 693.6 671.997 693.404 671.997 693.012V686.992L678.017 693.292C678.213 693.516 678.409 693.6 678.717 693.6H680.313C680.845 693.6 680.985 693.236 680.621 692.872ZM684.51 683.408C684.51 682.092 685.798 681.504 687.17 681.504C688.346 681.504 689.494 681.98 689.746 683.24C689.858 683.604 690.026 683.8 690.362 683.8H691.594C691.986 683.8 692.238 683.604 692.182 683.184C691.902 680.664 689.802 679.264 687.17 679.264C684.314 679.264 682.074 680.888 682.074 683.408C682.074 688.7 690.082 686.628 690.082 689.82C690.082 691.136 688.794 691.696 687.17 691.696C685.77 691.696 684.566 691.248 684.314 689.96C684.202 689.624 684.034 689.428 683.67 689.428H682.438C682.074 689.428 681.822 689.624 681.85 690.044C682.158 692.536 684.286 693.964 687.17 693.964C690.278 693.964 692.518 692.34 692.518 689.82C692.518 684.528 684.51 686.6 684.51 683.408Z" fill="white"/>
<path d="M636.885 270.972C640.301 270.972 643.325 268.956 643.325 265.54C643.325 261.732 639.853 260.668 636.941 259.576C634.757 258.736 633.021 257.952 633.021 255.992C633.021 254.228 634.505 253.192 636.493 253.192C638.453 253.192 639.909 254.116 640.161 255.936C640.189 256.3 640.385 256.496 640.749 256.496H642.177C642.569 256.496 642.765 256.3 642.737 255.88C642.457 252.464 639.629 250.672 636.493 250.672C633.357 250.672 630.417 252.576 630.417 255.992C630.417 259.912 633.749 260.948 636.661 262.04C638.845 262.824 640.749 263.636 640.749 265.54C640.749 267.304 639.153 268.452 636.885 268.452C634.505 268.452 632.825 267.388 632.545 265.4C632.517 265.008 632.321 264.812 631.957 264.812H630.529C630.137 264.812 629.941 265.036 629.969 265.428C630.249 269.068 633.329 270.972 636.885 270.972ZM652.059 256.608H649.903V252.744C649.903 252.352 649.707 252.128 649.315 252.128H648.055C647.691 252.128 647.467 252.352 647.467 252.744V256.608H645.311C644.919 256.608 644.695 256.832 644.695 257.224V258.372C644.695 258.764 644.919 258.96 645.311 258.96H647.467V270.02C647.467 270.412 647.691 270.608 648.055 270.608H649.315C649.707 270.608 649.903 270.412 649.903 270.02V258.96H652.059C652.451 258.96 652.647 258.764 652.647 258.372V257.224C652.647 256.832 652.451 256.608 652.059 256.608ZM660.025 256.272C657.113 256.272 654.929 257.924 654.593 260.472C654.565 260.892 654.817 261.088 655.181 261.088H656.413C656.777 261.088 656.945 260.892 657.057 260.556C657.309 259.24 658.569 258.568 660.025 258.568C661.649 258.568 663.049 259.436 663.049 261.648V263.636C662.153 262.628 660.669 262.012 658.905 262.012C656.357 262.012 653.977 263.496 653.977 266.492C653.977 269.488 656.357 270.972 658.905 270.972C660.669 270.972 662.153 270.384 663.049 269.18V270.02C663.049 270.412 663.273 270.608 663.637 270.608H664.869C665.261 270.608 665.457 270.412 665.457 270.02V261.592C665.457 258.204 663.133 256.272 660.025 256.272ZM659.605 268.928C657.421 268.928 656.413 267.892 656.413 266.492C656.413 265.092 657.421 264.056 659.605 264.056C661.621 264.056 663.049 265.008 663.049 266.492C663.049 267.892 661.621 268.928 659.605 268.928ZM674.892 256.412C673.436 256.552 672.12 257.196 671.28 258.736V257.224C671.28 256.832 671.056 256.636 670.692 256.636H669.432C669.04 256.636 668.844 256.832 668.844 257.224V270.02C668.844 270.412 669.04 270.636 669.432 270.636H670.692C671.056 270.636 671.28 270.412 671.28 270.02V263.132C671.28 260.108 673.128 258.988 675.088 258.904C675.34 258.904 675.508 258.68 675.508 258.316V257C675.508 256.608 675.284 256.384 674.892 256.412ZM679.555 260.416C679.555 259.1 680.843 258.512 682.215 258.512C683.391 258.512 684.539 258.988 684.791 260.248C684.903 260.612 685.071 260.808 685.407 260.808H686.639C687.031 260.808 687.283 260.612 687.227 260.192C686.947 257.672 684.847 256.272 682.215 256.272C679.359 256.272 677.119 257.896 677.119 260.416C677.119 265.708 685.127 263.636 685.127 266.828C685.127 268.144 683.839 268.704 682.215 268.704C680.815 268.704 679.611 268.256 679.359 266.968C679.247 266.632 679.079 266.436 678.715 266.436H677.483C677.119 266.436 676.867 266.632 676.895 267.052C677.203 269.544 679.331 270.972 682.215 270.972C685.323 270.972 687.563 269.348 687.563 266.828C687.563 261.536 679.555 263.608 679.555 260.416Z" fill="white"/>
<path d="M575.5 448C575.5 516.207 520.207 571.5 452 571.5C383.793 571.5 328.5 516.207 328.5 448C328.5 379.793 383.793 324.5 452 324.5C520.207 324.5 575.5 379.793 575.5 448Z" fill="#252E31" stroke="black"/>
<path opacity="0.498" fill-rule="evenodd" clip-rule="evenodd" d="M467.838 378.545C489.421 378.545 511.004 378.545 532.588 378.545C532.588 387.952 532.588 397.358 532.588 406.765C511.004 406.765 489.421 406.765 467.838 406.765C467.838 397.358 467.838 387.952 467.838 378.545Z" fill="#56CCBF"/>
<path opacity="0.999" fill-rule="evenodd" clip-rule="evenodd" d="M457.663 378.545C457.663 387.675 457.663 396.805 457.663 405.935C440.851 405.661 424.201 405.938 407.713 406.765C407.713 411.468 407.713 416.172 407.713 420.875C395.071 420.875 382.429 420.875 369.788 420.875C369.788 406.765 369.788 392.655 369.788 378.545C399.079 378.545 428.371 378.545 457.663 378.545Z" fill="#0FD3AA"/>
<path fill-rule="evenodd" clip-rule="evenodd" d="M468.762 379.375C489.729 379.375 510.696 379.375 531.662 379.375C531.662 388.228 531.662 397.082 531.662 405.935C510.696 405.935 489.729 405.935 468.762 405.935C468.762 397.082 468.762 388.228 468.762 379.375Z" fill="#00B39E"/>
<path opacity="0.667" fill-rule="evenodd" clip-rule="evenodd" d="M457.662 378.545C458.583 387.803 458.891 397.21 458.587 406.765C441.629 406.765 424.671 406.765 407.712 406.765C424.201 405.938 440.851 405.661 457.662 405.935C457.662 396.805 457.662 387.675 457.662 378.545Z" fill="#71E5CD"/>
<path opacity="0.999" fill-rule="evenodd" clip-rule="evenodd" d="M538.138 471.505C525.496 471.505 512.854 471.505 500.213 471.505C500.213 468.185 500.213 464.865 500.213 461.545C456.738 461.545 413.263 461.545 369.788 461.545C369.788 450.478 369.788 439.412 369.788 428.345C382.429 428.345 395.071 428.345 407.713 428.345C407.713 430.835 407.713 433.325 407.713 435.815C444.744 435.429 481.744 435.844 518.713 437.06C528.489 440.023 534.81 445.971 537.675 454.905C538.138 460.431 538.291 465.965 538.138 471.505Z" fill="#13B4A0"/>
<path opacity="0.082" fill-rule="evenodd" clip-rule="evenodd" d="M369.788 461.545C413.263 461.545 456.738 461.545 500.213 461.545C500.213 464.865 500.213 468.185 500.213 471.505C512.854 471.505 525.496 471.505 538.138 471.505C525.351 472.332 512.401 472.608 499.288 472.335C499.288 469.015 499.288 465.695 499.288 462.375C455.964 462.651 412.797 462.374 369.788 461.545Z" fill="#AAE5DF"/>
<path opacity="0.998" fill-rule="evenodd" clip-rule="evenodd" d="M500.213 480.635C512.854 480.635 525.496 480.635 538.138 480.635C538.292 489.493 538.138 498.346 537.675 507.195C534.248 516.358 527.31 522.03 516.863 524.21C494.356 524.625 471.848 524.764 449.338 524.625C449.338 515.495 449.338 506.365 449.338 497.235C466.296 497.235 483.254 497.235 500.213 497.235C500.213 491.701 500.213 486.169 500.213 480.635Z" fill="#0CD3AA"/>
<path opacity="0.576" fill-rule="evenodd" clip-rule="evenodd" d="M404.938 482.295C392.913 482.295 380.888 482.295 368.863 482.295C368.863 490.595 368.863 498.895 368.863 507.195C367.943 498.768 367.635 490.192 367.938 481.465C380.435 481.192 392.768 481.468 404.938 482.295Z" fill="#7ED7CC"/>
<path fill-rule="evenodd" clip-rule="evenodd" d="M404.938 482.295C404.938 486.999 404.938 491.701 404.938 496.405C416.346 496.405 427.754 496.405 439.163 496.405C439.163 505.535 439.163 514.665 439.163 523.795C422.513 523.795 405.863 523.795 389.213 523.795C378.633 522.05 371.849 516.517 368.863 507.195C368.863 498.895 368.863 490.595 368.863 482.295C380.888 482.295 392.913 482.295 404.938 482.295Z" fill="#08B39F"/>
<path opacity="0.664" fill-rule="evenodd" clip-rule="evenodd" d="M500.213 480.635C500.213 486.169 500.213 491.701 500.213 497.235C483.254 497.235 466.296 497.235 449.338 497.235C465.827 496.407 482.477 496.131 499.288 496.405C498.989 490.992 499.297 485.735 500.213 480.635Z" fill="#69E4CA"/>
<path opacity="0.416" fill-rule="evenodd" clip-rule="evenodd" d="M439.162 496.405C440.083 505.663 440.391 515.07 440.087 524.625C422.968 524.899 406.01 524.623 389.212 523.795C405.862 523.795 422.512 523.795 439.162 523.795C439.162 514.665 439.162 505.535 439.162 496.405Z" fill="#74D4C9"/>
<path d="M616.185 218.583L620.826 212.499C621.06 212.109 621.216 211.758 621.216 211.329V208.443C621.216 207.858 620.865 207.507 620.28 207.507H604.992C604.368 207.507 604.056 207.858 604.056 208.443V211.641C604.056 212.226 604.368 212.538 604.992 212.538H614.781L610.218 218.622C609.945 219.012 609.789 219.324 609.789 219.792V221.781C609.789 222.366 610.14 222.678 610.725 222.678H612.714C615.522 222.678 617.121 224.199 617.121 226.422C617.121 228.606 615.522 230.127 612.714 230.127C610.296 230.127 608.775 229.035 608.424 227.28C608.307 226.695 608.034 226.422 607.488 226.422H603.939C603.315 226.422 602.964 226.734 603.003 227.358C603.471 232.584 607.878 235.353 612.714 235.353C617.862 235.353 622.464 232.272 622.464 226.422C622.464 222.366 619.773 219.636 616.185 218.583ZM630.045 229.269H626.34C625.755 229.269 625.404 229.581 625.404 230.205V233.91C625.404 234.495 625.755 234.807 626.34 234.807H628.017C628.017 236.757 627.393 237.615 626.106 237.888C625.638 238.005 625.404 238.239 625.404 238.668V239.487C625.404 239.955 625.677 240.228 626.184 240.189C629.187 239.838 630.981 237.849 630.981 234.807V230.205C630.981 229.581 630.63 229.269 630.045 229.269ZM644.575 217.452H641.533L641.884 212.538H651.829C652.414 212.538 652.765 212.226 652.765 211.641V208.443C652.765 207.858 652.414 207.507 651.829 207.507H637.75C637.204 207.507 636.853 207.858 636.814 208.404L635.839 221.742C635.8 222.327 636.151 222.678 636.736 222.678H644.263C647.11 222.678 648.67 224.199 648.67 226.422C648.67 228.606 647.11 230.127 644.263 230.127C641.884 230.127 640.324 229.035 639.973 227.28C639.856 226.695 639.583 226.422 639.037 226.422H635.488C634.903 226.422 634.513 226.734 634.552 227.358C635.059 232.584 639.427 235.353 644.263 235.353C649.411 235.353 654.013 232.272 654.013 226.422C654.013 220.533 649.723 217.452 644.575 217.452ZM667.073 235.353C674.015 235.353 677.993 229.581 677.993 221.157C677.993 212.733 674.015 207 667.073 207C660.092 207 656.153 212.733 656.153 221.157C656.153 229.581 660.092 235.353 667.073 235.353ZM667.073 230.127C663.407 230.127 661.496 226.929 661.496 221.157C661.496 215.385 663.407 212.226 667.073 212.226C670.7 212.226 672.611 215.385 672.611 221.157C672.611 226.929 670.7 230.127 667.073 230.127ZM691.638 235.353C698.58 235.353 702.558 229.581 702.558 221.157C702.558 212.733 698.58 207 691.638 207C684.657 207 680.718 212.733 680.718 221.157C680.718 229.581 684.657 235.353 691.638 235.353ZM691.638 230.127C687.972 230.127 686.061 226.929 686.061 221.157C686.061 215.385 687.972 212.226 691.638 212.226C695.265 212.226 697.176 215.385 697.176 221.157C697.176 226.929 695.265 230.127 691.638 230.127ZM722.56 218.817H717.1V213.318C717.1 212.733 716.749 212.382 716.164 212.382H713.278C712.693 212.382 712.381 212.733 712.381 213.318V218.817H706.882C706.297 218.817 705.946 219.129 705.946 219.753V222.6C705.946 223.185 706.297 223.536 706.882 223.536H712.381V229.035C712.381 229.62 712.693 229.932 713.278 229.932H716.164C716.749 229.932 717.1 229.62 717.1 229.035V223.536H722.56C723.184 223.536 723.496 223.185 723.496 222.6V219.753C723.496 219.129 723.184 218.817 722.56 218.817Z" fill="white"/>
<path d="M434.395 733.358C433.048 733.349 431.749 733.124 430.496 732.68C429.252 732.237 428.135 731.517 427.146 730.52C426.158 729.523 425.374 728.202 424.794 726.557C424.223 724.912 423.938 722.892 423.938 720.497C423.946 718.298 424.198 716.334 424.692 714.604C425.195 712.865 425.911 711.391 426.84 710.18C427.777 708.97 428.898 708.05 430.202 707.419C431.506 706.78 432.968 706.46 434.587 706.46C436.334 706.46 437.877 706.801 439.215 707.483C440.553 708.156 441.627 709.073 442.436 710.232C443.254 711.391 443.749 712.69 443.919 714.131H438.46C438.247 713.219 437.8 712.503 437.118 711.983C436.436 711.463 435.593 711.203 434.587 711.203C432.882 711.203 431.587 711.945 430.7 713.428C429.823 714.911 429.375 716.926 429.358 719.474H429.537C429.929 718.699 430.458 718.038 431.122 717.493C431.796 716.939 432.558 716.517 433.411 716.227C434.271 715.929 435.179 715.78 436.134 715.78C437.685 715.78 439.066 716.146 440.276 716.879C441.486 717.604 442.441 718.601 443.139 719.871C443.838 721.141 444.188 722.594 444.188 724.23C444.188 726.003 443.774 727.58 442.948 728.96C442.129 730.341 440.983 731.423 439.509 732.207C438.043 732.983 436.338 733.367 434.395 733.358ZM434.369 729.011C435.222 729.011 435.985 728.807 436.658 728.398C437.331 727.989 437.86 727.435 438.243 726.736C438.627 726.037 438.818 725.253 438.818 724.384C438.818 723.514 438.627 722.734 438.243 722.044C437.868 721.354 437.348 720.804 436.683 720.395C436.019 719.986 435.26 719.781 434.408 719.781C433.769 719.781 433.176 719.901 432.631 720.139C432.094 720.378 431.621 720.71 431.212 721.136C430.811 721.563 430.496 722.057 430.266 722.619C430.036 723.173 429.921 723.766 429.921 724.396C429.921 725.24 430.112 726.011 430.496 726.71C430.888 727.409 431.416 727.967 432.081 728.385C432.754 728.803 433.517 729.011 434.369 729.011ZM458.378 733.575C456.179 733.567 454.287 733.026 452.702 731.952C451.125 730.878 449.911 729.323 449.058 727.286C448.215 725.249 447.797 722.798 447.806 719.935C447.806 717.08 448.227 714.646 449.071 712.635C449.923 710.624 451.138 709.094 452.715 708.046C454.3 706.989 456.188 706.46 458.378 706.46C460.568 706.46 462.452 706.989 464.029 708.046C465.614 709.102 466.833 710.636 467.685 712.648C468.537 714.651 468.959 717.08 468.95 719.935C468.95 722.807 468.524 725.261 467.672 727.298C466.828 729.335 465.618 730.891 464.041 731.965C462.465 733.038 460.577 733.575 458.378 733.575ZM458.378 728.986C459.878 728.986 461.075 728.232 461.97 726.723C462.865 725.215 463.308 722.952 463.3 719.935C463.3 717.949 463.095 716.296 462.686 714.974C462.286 713.653 461.715 712.661 460.973 711.996C460.24 711.331 459.375 710.999 458.378 710.999C456.887 710.999 455.693 711.744 454.798 713.236C453.904 714.727 453.452 716.96 453.443 719.935C453.443 721.946 453.644 723.625 454.044 724.972C454.453 726.31 455.029 727.315 455.77 727.989C456.512 728.653 457.381 728.986 458.378 728.986Z" fill="white"/>
<path d="M601.384 657V653.011L610.703 644.382C611.496 643.615 612.161 642.925 612.698 642.311C613.243 641.697 613.657 641.097 613.938 640.509C614.219 639.912 614.36 639.268 614.36 638.578C614.36 637.811 614.185 637.151 613.836 636.597C613.486 636.034 613.009 635.604 612.404 635.305C611.799 634.999 611.113 634.845 610.346 634.845C609.544 634.845 608.846 635.007 608.249 635.331C607.652 635.655 607.192 636.119 606.868 636.724C606.544 637.33 606.382 638.05 606.382 638.885H601.128C601.128 637.172 601.516 635.685 602.292 634.423C603.067 633.162 604.154 632.186 605.551 631.496C606.949 630.805 608.56 630.46 610.384 630.46C612.259 630.46 613.891 630.793 615.28 631.457C616.678 632.114 617.765 633.026 618.54 634.193C619.316 635.361 619.703 636.699 619.703 638.207C619.703 639.196 619.507 640.172 619.115 641.135C618.732 642.098 618.046 643.168 617.057 644.344C616.069 645.511 614.675 646.913 612.877 648.55L609.054 652.295V652.474H620.049V657H601.384ZM630.03 653.42L629.889 654.827C629.778 655.952 629.565 657.072 629.25 658.189C628.943 659.314 628.619 660.332 628.278 661.244C627.946 662.156 627.678 662.872 627.473 663.392H623.945C624.072 662.889 624.247 662.186 624.469 661.283C624.69 660.388 624.899 659.382 625.095 658.266C625.291 657.149 625.415 656.011 625.466 654.852L625.53 653.42H630.03ZM635.009 657L645.863 635.523V635.344H633.219V630.818H651.59V635.408L640.724 657H635.009ZM665.087 657.575C662.888 657.567 660.996 657.026 659.411 655.952C657.834 654.878 656.62 653.322 655.767 651.286C654.924 649.249 654.506 646.798 654.515 643.935C654.515 641.08 654.936 638.646 655.78 636.635C656.632 634.624 657.847 633.094 659.424 632.045C661.009 630.989 662.897 630.46 665.087 630.46C667.277 630.46 669.161 630.989 670.738 632.045C672.323 633.102 673.542 634.636 674.394 636.648C675.246 638.651 675.668 641.08 675.659 643.935C675.659 646.807 675.233 649.261 674.381 651.298C673.537 653.335 672.327 654.891 670.75 655.964C669.174 657.038 667.286 657.575 665.087 657.575ZM665.087 652.986C666.587 652.986 667.784 652.232 668.679 650.723C669.574 649.214 670.017 646.952 670.009 643.935C670.009 641.949 669.804 640.295 669.395 638.974C668.995 637.653 668.424 636.661 667.682 635.996C666.949 635.331 666.084 634.999 665.087 634.999C663.596 634.999 662.402 635.744 661.507 637.236C660.613 638.727 660.161 640.96 660.152 643.935C660.152 645.946 660.353 647.625 660.753 648.972C661.162 650.31 661.738 651.315 662.479 651.989C663.221 652.653 664.09 652.986 665.087 652.986ZM689.872 657.575C687.673 657.567 685.781 657.026 684.196 655.952C682.619 654.878 681.405 653.322 680.553 651.286C679.709 649.249 679.291 646.798 679.3 643.935C679.3 641.08 679.722 638.646 680.565 636.635C681.418 634.624 682.632 633.094 684.209 632.045C685.794 630.989 687.682 630.46 689.872 630.46C692.063 630.46 693.946 630.989 695.523 632.045C697.108 633.102 698.327 634.636 699.179 636.648C700.031 638.651 700.453 641.08 700.445 643.935C700.445 646.807 700.018 649.261 699.166 651.298C698.322 653.335 697.112 654.891 695.536 655.964C693.959 657.038 692.071 657.575 689.872 657.575ZM689.872 652.986C691.372 652.986 692.57 652.232 693.464 650.723C694.359 649.214 694.803 646.952 694.794 643.935C694.794 641.949 694.589 640.295 694.18 638.974C693.78 637.653 693.209 636.661 692.467 635.996C691.734 635.331 690.869 634.999 689.872 634.999C688.381 634.999 687.188 635.744 686.293 637.236C685.398 638.727 684.946 640.96 684.938 643.935C684.938 645.946 685.138 647.625 685.538 648.972C685.947 650.31 686.523 651.315 687.264 651.989C688.006 652.653 688.875 652.986 689.872 652.986ZM712.216 653.011V634.909H716.792V653.011H712.216ZM705.453 646.249V641.672H723.555V646.249H705.453Z" fill="white"/>
</g>
<path d="M194.04 657.358C192.233 657.358 190.623 657.026 189.208 656.361C187.801 655.696 186.685 654.78 185.858 653.612C185.032 652.445 184.601 651.107 184.567 649.598H189.936C189.996 650.612 190.422 651.435 191.215 652.065C192.007 652.696 192.949 653.011 194.04 653.011C194.909 653.011 195.676 652.82 196.341 652.436C197.015 652.044 197.539 651.503 197.914 650.812C198.297 650.114 198.489 649.312 198.489 648.409C198.489 647.489 198.293 646.679 197.901 645.98C197.517 645.281 196.985 644.736 196.303 644.344C195.621 643.952 194.841 643.751 193.963 643.743C193.196 643.743 192.451 643.901 191.726 644.216C191.01 644.531 190.452 644.962 190.051 645.507L185.13 644.625L186.37 630.818H202.375V635.344H190.934L190.256 641.902H190.409C190.87 641.254 191.564 640.717 192.493 640.291C193.422 639.865 194.462 639.652 195.613 639.652C197.189 639.652 198.596 640.023 199.831 640.764C201.067 641.506 202.043 642.524 202.759 643.82C203.475 645.107 203.828 646.589 203.82 648.268C203.828 650.033 203.419 651.601 202.593 652.973C201.775 654.337 200.628 655.411 199.154 656.195C197.688 656.97 195.983 657.358 194.04 657.358ZM212.807 653.42L212.667 654.827C212.556 655.952 212.343 657.072 212.027 658.189C211.721 659.314 211.397 660.332 211.056 661.244C210.723 662.156 210.455 662.872 210.25 663.392H206.722C206.85 662.889 207.025 662.186 207.246 661.283C207.468 660.388 207.676 659.382 207.873 658.266C208.069 657.149 208.192 656.011 208.243 654.852L208.307 653.42H212.807ZM227.087 657.358C225.28 657.358 223.669 657.026 222.255 656.361C220.848 655.696 219.732 654.78 218.905 653.612C218.078 652.445 217.648 651.107 217.614 649.598H222.983C223.043 650.612 223.469 651.435 224.262 652.065C225.054 652.696 225.996 653.011 227.087 653.011C227.956 653.011 228.723 652.82 229.388 652.436C230.061 652.044 230.586 651.503 230.961 650.812C231.344 650.114 231.536 649.312 231.536 648.409C231.536 647.489 231.34 646.679 230.948 645.98C230.564 645.281 230.032 644.736 229.35 644.344C228.668 643.952 227.888 643.751 227.01 643.743C226.243 643.743 225.498 643.901 224.773 644.216C224.057 644.531 223.499 644.962 223.098 645.507L218.176 644.625L219.417 630.818H235.422V635.344H223.98L223.303 641.902H223.456C223.917 641.254 224.611 640.717 225.54 640.291C226.469 639.865 227.509 639.652 228.659 639.652C230.236 639.652 231.642 640.023 232.878 640.764C234.114 641.506 235.09 642.524 235.806 643.82C236.522 645.107 236.875 646.589 236.867 648.268C236.875 650.033 236.466 651.601 235.64 652.973C234.821 654.337 233.675 655.411 232.201 656.195C230.735 656.97 229.03 657.358 227.087 657.358ZM250.993 657.575C248.794 657.567 246.902 657.026 245.317 655.952C243.74 654.878 242.526 653.322 241.674 651.286C240.83 649.249 240.412 646.798 240.421 643.935C240.421 641.08 240.843 638.646 241.686 636.635C242.539 634.624 243.753 633.094 245.33 632.045C246.915 630.989 248.803 630.46 250.993 630.46C253.184 630.46 255.067 630.989 256.644 632.045C258.229 633.102 259.448 634.636 260.3 636.648C261.152 638.651 261.574 641.08 261.566 643.935C261.566 646.807 261.14 649.261 260.287 651.298C259.444 653.335 258.233 654.891 256.657 655.964C255.08 657.038 253.192 657.575 250.993 657.575ZM250.993 652.986C252.493 652.986 253.691 652.232 254.586 650.723C255.48 649.214 255.924 646.952 255.915 643.935C255.915 641.949 255.711 640.295 255.301 638.974C254.901 637.653 254.33 636.661 253.588 635.996C252.855 635.331 251.99 634.999 250.993 634.999C249.502 634.999 248.309 635.744 247.414 637.236C246.519 638.727 246.067 640.96 246.059 643.935C246.059 645.946 246.259 647.625 246.659 648.972C247.069 650.31 247.644 651.315 248.385 651.989C249.127 652.653 249.996 652.986 250.993 652.986ZM275.778 657.575C273.58 657.567 271.688 657.026 270.102 655.952C268.526 654.878 267.311 653.322 266.459 651.286C265.615 649.249 265.197 646.798 265.206 643.935C265.206 641.08 265.628 638.646 266.472 636.635C267.324 634.624 268.538 633.094 270.115 632.045C271.7 630.989 273.588 630.46 275.778 630.46C277.969 630.46 279.852 630.989 281.429 632.045C283.014 633.102 284.233 634.636 285.085 636.648C285.938 638.651 286.359 641.08 286.351 643.935C286.351 646.807 285.925 649.261 285.072 651.298C284.229 653.335 283.018 654.891 281.442 655.964C279.865 657.038 277.977 657.575 275.778 657.575ZM275.778 652.986C277.278 652.986 278.476 652.232 279.371 650.723C280.266 649.214 280.709 646.952 280.7 643.935C280.7 641.949 280.496 640.295 280.087 638.974C279.686 637.653 279.115 636.661 278.374 635.996C277.641 635.331 276.776 634.999 275.778 634.999C274.287 634.999 273.094 635.744 272.199 637.236C271.304 638.727 270.852 640.96 270.844 643.935C270.844 645.946 271.044 647.625 271.445 648.972C271.854 650.31 272.429 651.315 273.17 651.989C273.912 652.653 274.781 652.986 275.778 652.986ZM298.122 653.011V634.909H302.699V653.011H298.122ZM291.359 646.249V641.672H309.461V646.249H291.359Z" fill="white"/>
<path d="M107.741 413.818V440H102.206V419.072H102.052L96.0566 422.831V417.922L102.538 413.818H107.741ZM118.528 436.42L118.387 437.827C118.276 438.952 118.063 440.072 117.748 441.189C117.441 442.314 117.117 443.332 116.776 444.244C116.444 445.156 116.176 445.872 115.971 446.392H112.443C112.57 445.889 112.745 445.186 112.967 444.283C113.188 443.388 113.397 442.382 113.593 441.266C113.789 440.149 113.913 439.011 113.964 437.852L114.028 436.42H118.528ZM123.06 435.398V431.038L133.99 413.818H137.749V419.852H135.524L128.634 430.757V430.962H144.166V435.398H123.06ZM135.627 440V434.068L135.729 432.138V413.818H140.919V440H135.627ZM158.12 440.575C155.921 440.567 154.029 440.026 152.444 438.952C150.867 437.878 149.653 436.322 148.801 434.286C147.957 432.249 147.539 429.798 147.548 426.935C147.548 424.08 147.97 421.646 148.813 419.635C149.666 417.624 150.88 416.094 152.457 415.045C154.042 413.989 155.93 413.46 158.12 413.46C160.311 413.46 162.194 413.989 163.771 415.045C165.356 416.102 166.575 417.636 167.427 419.648C168.279 421.651 168.701 424.08 168.693 426.935C168.693 429.807 168.267 432.261 167.414 434.298C166.57 436.335 165.36 437.891 163.784 438.964C162.207 440.038 160.319 440.575 158.12 440.575ZM158.12 435.986C159.62 435.986 160.818 435.232 161.713 433.723C162.607 432.214 163.051 429.952 163.042 426.935C163.042 424.949 162.838 423.295 162.428 421.974C162.028 420.653 161.457 419.661 160.715 418.996C159.982 418.331 159.117 417.999 158.12 417.999C156.629 417.999 155.436 418.744 154.541 420.236C153.646 421.727 153.194 423.96 153.186 426.935C153.186 428.946 153.386 430.625 153.786 431.972C154.195 433.31 154.771 434.315 155.512 434.989C156.254 435.653 157.123 435.986 158.12 435.986ZM182.905 440.575C180.706 440.567 178.814 440.026 177.229 438.952C175.653 437.878 174.438 436.322 173.586 434.286C172.742 432.249 172.324 429.798 172.333 426.935C172.333 424.08 172.755 421.646 173.599 419.635C174.451 417.624 175.665 416.094 177.242 415.045C178.827 413.989 180.715 413.46 182.905 413.46C185.096 413.46 186.979 413.989 188.556 415.045C190.141 416.102 191.36 417.636 192.212 419.648C193.064 421.651 193.486 424.08 193.478 426.935C193.478 429.807 193.052 432.261 192.199 434.298C191.356 436.335 190.145 437.891 188.569 438.964C186.992 440.038 185.104 440.575 182.905 440.575ZM182.905 435.986C184.405 435.986 185.603 435.232 186.498 433.723C187.393 432.214 187.836 429.952 187.827 426.935C187.827 424.949 187.623 423.295 187.214 421.974C186.813 420.653 186.242 419.661 185.501 418.996C184.768 418.331 183.903 417.999 182.905 417.999C181.414 417.999 180.221 418.744 179.326 420.236C178.431 421.727 177.979 423.96 177.971 426.935C177.971 428.946 178.171 430.625 178.572 431.972C178.981 433.31 179.556 434.315 180.297 434.989C181.039 435.653 181.908 435.986 182.905 435.986ZM205.249 436.011V417.909H209.825V436.011H205.249ZM198.486 429.249V424.672H216.588V429.249H198.486Z" fill="white"/>
<path d="M163.013 227.398V223.038L173.943 205.818H177.702V211.852H175.477L168.587 222.757V222.962H184.119V227.398H163.013ZM175.58 232V226.068L175.682 224.138V205.818H180.872V232H175.58ZM197.37 232.358C195.563 232.358 193.953 232.026 192.538 231.361C191.132 230.696 190.015 229.78 189.188 228.612C188.362 227.445 187.931 226.107 187.897 224.598H193.267C193.326 225.612 193.752 226.435 194.545 227.065C195.338 227.696 196.279 228.011 197.37 228.011C198.24 228.011 199.007 227.82 199.671 227.436C200.345 227.044 200.869 226.503 201.244 225.812C201.627 225.114 201.819 224.312 201.819 223.409C201.819 222.489 201.623 221.679 201.231 220.98C200.847 220.281 200.315 219.736 199.633 219.344C198.951 218.952 198.171 218.751 197.294 218.743C196.526 218.743 195.781 218.901 195.056 219.216C194.34 219.531 193.782 219.962 193.382 220.507L188.46 219.625L189.7 205.818H205.705V210.344H194.264L193.586 216.902H193.74C194.2 216.254 194.894 215.717 195.823 215.291C196.752 214.865 197.792 214.652 198.943 214.652C200.519 214.652 201.926 215.023 203.161 215.764C204.397 216.506 205.373 217.524 206.089 218.82C206.805 220.107 207.159 221.589 207.15 223.268C207.159 225.033 206.749 226.601 205.923 227.973C205.105 229.337 203.958 230.411 202.484 231.195C201.018 231.97 199.313 232.358 197.37 232.358ZM216.137 228.42L215.997 229.827C215.886 230.952 215.673 232.072 215.357 233.189C215.051 234.314 214.727 235.332 214.386 236.244C214.053 237.156 213.785 237.872 213.58 238.392H210.052C210.18 237.889 210.355 237.186 210.576 236.283C210.798 235.388 211.007 234.382 211.203 233.266C211.399 232.149 211.522 231.011 211.573 229.852L211.637 228.42H216.137ZM230.276 232.575C228.078 232.567 226.186 232.026 224.6 230.952C223.024 229.878 221.809 228.322 220.957 226.286C220.113 224.249 219.695 221.798 219.704 218.935C219.704 216.08 220.126 213.646 220.97 211.635C221.822 209.624 223.036 208.094 224.613 207.045C226.198 205.989 228.086 205.46 230.276 205.46C232.467 205.46 234.35 205.989 235.927 207.045C237.512 208.102 238.731 209.636 239.583 211.648C240.436 213.651 240.857 216.08 240.849 218.935C240.849 221.807 240.423 224.261 239.57 226.298C238.727 228.335 237.517 229.891 235.94 230.964C234.363 232.038 232.475 232.575 230.276 232.575ZM230.276 227.986C231.776 227.986 232.974 227.232 233.869 225.723C234.764 224.214 235.207 221.952 235.198 218.935C235.198 216.949 234.994 215.295 234.585 213.974C234.184 212.653 233.613 211.661 232.872 210.996C232.139 210.331 231.274 209.999 230.276 209.999C228.785 209.999 227.592 210.744 226.697 212.236C225.802 213.727 225.35 215.96 225.342 218.935C225.342 220.946 225.542 222.625 225.943 223.972C226.352 225.31 226.927 226.315 227.669 226.989C228.41 227.653 229.279 227.986 230.276 227.986ZM255.062 232.575C252.863 232.567 250.971 232.026 249.385 230.952C247.809 229.878 246.594 228.322 245.742 226.286C244.898 224.249 244.481 221.798 244.489 218.935C244.489 216.08 244.911 213.646 245.755 211.635C246.607 209.624 247.822 208.094 249.398 207.045C250.983 205.989 252.871 205.46 255.062 205.46C257.252 205.46 259.135 205.989 260.712 207.045C262.297 208.102 263.516 209.636 264.368 211.648C265.221 213.651 265.643 216.08 265.634 218.935C265.634 221.807 265.208 224.261 264.356 226.298C263.512 228.335 262.302 229.891 260.725 230.964C259.148 232.038 257.26 232.575 255.062 232.575ZM255.062 227.986C256.562 227.986 257.759 227.232 258.654 225.723C259.549 224.214 259.992 221.952 259.983 218.935C259.983 216.949 259.779 215.295 259.37 213.974C258.969 212.653 258.398 211.661 257.657 210.996C256.924 210.331 256.059 209.999 255.062 209.999C253.57 209.999 252.377 210.744 251.482 212.236C250.587 213.727 250.135 215.96 250.127 218.935C250.127 220.946 250.327 222.625 250.728 223.972C251.137 225.31 251.712 226.315 252.454 226.989C253.195 227.653 254.064 227.986 255.062 227.986ZM279.847 232.575C277.648 232.567 275.756 232.026 274.171 230.952C272.594 229.878 271.379 228.322 270.527 226.286C269.683 224.249 269.266 221.798 269.274 218.935C269.274 216.08 269.696 213.646 270.54 211.635C271.392 209.624 272.607 208.094 274.183 207.045C275.769 205.989 277.656 205.46 279.847 205.46C282.037 205.46 283.921 205.989 285.497 207.045C287.083 208.102 288.301 209.636 289.154 211.648C290.006 213.651 290.428 216.08 290.419 218.935C290.419 221.807 289.993 224.261 289.141 226.298C288.297 228.335 287.087 229.891 285.51 230.964C283.933 232.038 282.046 232.575 279.847 232.575ZM279.847 227.986C281.347 227.986 282.544 227.232 283.439 225.723C284.334 224.214 284.777 221.952 284.769 218.935C284.769 216.949 284.564 215.295 284.155 213.974C283.754 212.653 283.183 211.661 282.442 210.996C281.709 210.331 280.844 209.999 279.847 209.999C278.355 209.999 277.162 210.744 276.267 212.236C275.372 213.727 274.921 215.96 274.912 218.935C274.912 220.946 275.112 222.625 275.513 223.972C275.922 225.31 276.497 226.315 277.239 226.989C277.98 227.653 278.85 227.986 279.847 227.986ZM302.19 228.011V209.909H306.767V228.011H302.19ZM295.427 221.249V216.672H313.53V221.249H295.427Z" fill="white"/>
<g clip-path="url(#clip1_1_2)">
<g filter="url(#filter8_d_1_2)">
<path d="M502.945 143.284C502.347 143.045 501.654 142.471 500.889 142.495C498.761 142.567 498.235 142.615 498.235 141.443C498.235 139.507 498.235 141.276 498.188 139.34C498.188 138.885 497.972 138.957 497.853 138.503C497.662 138.503 497.973 138.479 497.805 138.455C497.447 139.005 496.825 139.077 496.777 139.626C496.658 141.515 496.658 139.674 496.777 141.587C496.897 143.189 497.351 144.79 497.614 146.416C497.71 146.966 497.996 147.253 499.144 147.372C500.53 147.539 501.726 147.611 502.873 147.109C502.969 147.061 503.136 146.798 503.758 146.583C503.758 146.44 503.758 146.272 503.901 146.153C504.666 145.364 504.332 143.834 502.945 143.308V143.284Z" fill="#00B39F"/>
<g filter="url(#filter9_d_1_2)">
<path d="M457.523 127.673C457.404 127.434 457.26 127.195 457.141 126.956C456.208 127.291 455.252 127.578 454.368 127.96C453.507 128.343 452.766 129.012 451.905 129.275C444.351 131.427 436.749 133.076 428.955 130.231C428.692 130.136 428.286 130.375 427.951 130.446C428.095 130.781 428.142 131.307 428.405 131.45C429.123 131.857 429.888 132.287 430.676 132.383C433.473 132.67 436.294 132.98 439.092 132.957C444.829 132.861 450.327 131.427 455.563 129.084C456.28 128.773 456.878 128.151 457.523 127.673Z" fill="black"/>
</g>
<g filter="url(#filter10_d_1_2)">
<path d="M431.681 116.054C431.681 116.054 431.824 116.078 431.896 116.102C431.896 116.436 431.872 116.771 431.896 117.106C432.015 118.684 432.709 119.616 433.88 119.759C434.932 119.903 435.936 119.138 436.438 117.799C437.131 115.958 436.844 114.213 435.816 112.564C434.812 110.962 433.498 110.938 432.637 112.659C432.111 113.711 431.991 114.93 431.681 116.078V116.054Z" fill="black"/>
</g>
<g filter="url(#filter11_d_1_2)">
<path d="M444.829 118.732C446.048 119.115 446.861 118.35 447.578 117.489C448.558 116.27 448.845 114.836 448.487 113.377C448.271 112.541 447.674 111.489 446.981 111.202C445.953 110.795 444.948 111.608 444.494 112.588C443.992 113.688 443.777 114.931 443.442 116.103C443.586 117.226 443.562 118.326 444.829 118.732Z" fill="black"/>
</g>
<path d="M451.786 106.039C451.403 104.198 450.519 103.576 448.367 103.505C445.857 103.409 444.566 103.911 444.231 105.178C446.885 104.246 449.395 104.413 451.786 106.039Z" fill="black"/>
<path d="M425.896 109.624C428.191 108.214 430.462 106.78 432.948 105.25C430.653 105.202 426.23 107.855 425.896 109.624Z" fill="black"/>
<path d="M435.936 313.903C434 314.907 432.015 315.887 430.222 317.131C428.716 318.182 427.401 319.521 426.039 320.788C425.824 321.003 425.728 321.577 425.871 321.888C425.967 322.127 426.493 322.175 426.732 322.294C427.138 322.199 427.425 322.151 427.712 322.079C430.653 321.386 433.019 319.641 435.314 317.776C436.079 317.154 436.773 316.413 437.323 315.601C437.609 315.17 437.49 314.477 437.538 313.903C437.012 313.903 436.366 313.688 435.96 313.903H435.936Z" fill="#00D3A9"/>
<path d="M404.547 220.454C404.786 220.382 405.12 220.167 405.168 219.976C405.216 219.785 405.025 219.402 404.833 219.283C403.543 218.494 402.252 217.657 400.865 217.012C399.478 216.366 397.948 216.27 396.395 216.557C396.395 216.772 396.395 216.892 396.442 216.988C397.59 218.924 402.419 221.004 404.547 220.454Z" fill="#00B39F"/>
<path d="M470.576 320.525C472.799 321.434 475.046 322.342 477.341 322.988C478.728 323.37 480.234 323.322 481.668 323.466C481.716 323.298 481.764 323.107 481.812 322.94C481.429 322.581 481.071 322.199 480.664 321.864C477.843 319.617 474.568 318.756 471.054 318.637C470.6 318.637 470.146 319.067 469.691 319.306C469.978 319.712 470.193 320.358 470.6 320.525H470.576Z" fill="#00D3A9"/>
<path d="M400.196 193.033C400.196 193.033 400.196 193.033 400.172 193.009C400.172 193.009 400.172 193.009 400.196 193.033Z" fill="black"/>
<g filter="url(#filter12_d_1_2)">
<path d="M496.825 146.822C496.61 148.257 496.275 149.667 495.678 151.054C493.048 157.126 491.016 163.485 487.502 169.175C486.952 170.059 486.45 170.37 485.398 170.035C479.708 168.194 474.018 166.425 468.329 164.608C461.372 162.361 454.726 159.325 448.176 156.074C447.674 155.811 446.98 155.333 446.909 154.879C446.359 151.651 445.952 148.424 445.498 145.149C458.384 142.639 466.99 135.347 468.018 122.031C469.142 107.544 460.655 99.153 447.363 94.6826C450.829 93.2721 454.2 91.9095 457.571 90.5229C453.507 90.9054 449.777 92.292 446.215 94.0371C444.542 94.8499 442.892 94.6826 441.195 94.5631L441.052 94.2284C444.136 92.6267 447.219 91.0249 450.303 89.4232C449.945 89.2798 449.658 89.232 449.395 89.3276C446.885 90.4034 444.183 91.1684 441.96 92.6745C439.163 94.587 436.175 95.854 432.995 96.834C432.565 96.978 432.135 97.169 431.704 97.288C426.301 98.866 422.739 102.596 420.086 107.353C417.289 112.349 416.333 117.728 416.524 123.418C416.619 126.358 417.265 129.084 418.628 131.666C421.544 137.14 426.301 140.487 431.8 142.925C434.86 144.288 438.111 144.934 441.482 145.005C444.494 145.077 443.968 144.886 444.375 147.492C444.709 149.619 444.901 151.771 445.307 153.898C445.57 155.213 445.044 155.835 443.968 156.433C439.283 159.11 434.573 161.74 429.983 164.585C422.333 169.342 414.779 174.219 407.2 179.072C405.097 180.411 403.591 182.251 402.467 184.522C399.287 190.977 397.016 197.719 395.869 204.795C395.295 208.285 395.199 211.871 395.008 215.433C394.889 217.657 396.012 219.258 398.02 220.143C399.216 220.693 400.459 221.219 401.726 221.529C403.399 221.936 405.121 222.079 406.411 220.286L406.196 219.354C405.814 219.019 405.455 218.685 405.12 218.326C405.144 218.374 405.168 218.422 405.192 218.445C401.726 215.433 397.973 215.242 396.06 215.122C396.419 211.417 396.753 207.855 397.088 204.269C397.231 204.269 400.005 193.009 400.148 193.009C400.148 193.009 400.124 193.009 400.124 192.985L400.148 193.009C401.08 191.957 405.503 181.654 406.603 180.865C410.213 178.283 413.846 175.725 417.624 173.406C426.636 167.884 435.721 162.505 444.805 157.054C445.02 156.935 445.235 156.815 445.881 156.456C446.239 169.485 446.574 182.204 446.933 194.898V194.802C446.909 198.555 446.335 215.457 446.096 219.139C445.642 226.263 445.307 233.387 444.685 240.487C443.825 250.073 442.701 259.636 441.793 269.222C440.478 283.112 439.235 297.002 437.968 310.867C437.896 311.632 437.657 311.967 436.892 312.254C432.924 313.736 429.338 315.887 426.278 318.828C425.513 319.545 424.891 320.478 424.413 321.434C423.815 322.629 424.317 323.442 425.656 323.394C426.899 323.346 428.334 323.251 429.361 322.629C431.967 321.099 434.43 319.354 436.868 317.561C438.35 316.485 438.972 314.836 439.139 313.019C439.785 306.086 440.43 299.129 441.076 292.196C441.936 282.849 442.773 273.526 443.657 264.178C444.494 255.428 445.379 246.679 446.215 237.905C446.574 234.056 446.885 230.231 447.22 226.024C447.602 226.454 447.793 226.621 447.913 226.813C450.542 230.948 453.459 234.917 455.73 239.22C460.583 248.448 465.675 257.508 471.245 266.33C471.484 266.712 471.676 267.262 471.652 267.692C470.791 280.53 469.883 293.368 469.022 306.182C468.759 310.15 468.568 314.142 468.377 318.111C468.281 320.382 469.189 322.008 471.508 322.677C473.134 323.155 474.712 323.92 476.361 324.231C477.963 324.542 479.66 324.565 481.286 324.446C481.955 324.398 482.864 323.681 483.079 323.059C483.246 322.557 482.72 321.553 482.194 321.123C480.091 319.378 477.724 318.087 474.975 317.728C473.301 317.513 471.604 317.489 469.739 317.37C469.907 314.357 469.978 311.369 470.217 308.405C470.887 299.727 471.676 291.049 472.273 282.347C472.608 277.59 472.608 272.808 472.943 268.051C473.038 266.617 472.728 265.493 472.01 264.322C470.289 261.572 468.568 258.823 466.99 256.002C463.213 249.285 459.627 242.423 455.73 235.778C453.435 231.857 450.662 228.199 448.128 224.398C447.793 223.92 447.53 223.275 447.53 222.701C447.626 216.461 447.937 210.222 447.913 203.982C447.865 190.905 447.698 177.829 447.53 164.776C447.506 162.337 447.291 159.899 447.172 157.317C447.65 157.484 447.961 157.58 448.247 157.723C460.081 164.011 472.823 167.908 485.589 171.709C486.45 171.972 487.047 171.804 487.478 171.039C488.673 169.007 490.083 167.071 491.04 164.919C493.43 159.54 495.582 154.066 497.853 148.615C497.925 148.424 498.02 148.233 498.116 148.041C497.662 147.707 497.231 147.276 496.825 146.751V146.822ZM400.865 216.987C402.228 217.633 403.519 218.469 404.834 219.258C405.025 219.378 405.216 219.76 405.168 219.952C405.121 220.167 404.786 220.382 404.547 220.43C402.419 220.98 397.59 218.9 396.442 216.963C396.395 216.868 396.419 216.724 396.395 216.533C397.949 216.246 399.455 216.342 400.865 216.987ZM421.138 132.741C418.986 129.992 418.006 126.717 417.839 123.251C417.48 116.174 419.082 109.648 423.504 104.006C426.373 100.324 430.079 98.125 434.812 97.814C435.458 97.767 436.103 97.623 436.725 97.527C436.725 97.408 436.749 97.312 436.772 97.193C436.414 97.049 436.055 96.906 435.625 96.739C450.853 92.7462 465.006 103.958 466.655 117.657C468.233 130.685 459.46 141.778 446.861 143.38C436.39 144.718 427.688 141.061 421.114 132.717L421.138 132.741ZM437.274 315.601C436.725 316.413 436.007 317.155 435.266 317.776C432.995 319.665 430.628 321.386 427.664 322.079C427.377 322.151 427.09 322.199 426.684 322.294C426.445 322.199 425.919 322.127 425.823 321.888C425.704 321.577 425.776 321.003 425.991 320.788C427.329 319.521 428.644 318.182 430.174 317.131C431.967 315.887 433.951 314.907 435.888 313.903C436.294 313.688 436.94 313.903 437.466 313.903C437.394 314.477 437.537 315.194 437.251 315.601H437.274ZM471.006 318.637C474.52 318.756 477.82 319.617 480.617 321.864C481.023 322.199 481.382 322.581 481.764 322.94C481.716 323.107 481.668 323.298 481.621 323.466C480.162 323.322 478.656 323.394 477.294 322.988C474.999 322.342 472.751 321.434 470.528 320.525C470.122 320.358 469.93 319.736 469.62 319.306C470.074 319.067 470.528 318.637 470.982 318.637H471.006Z" fill="black"/>
<path d="M400.148 193.009C400.005 193.009 397.231 204.269 397.088 204.269C396.753 207.855 396.419 211.417 396.06 215.122C397.973 215.242 401.726 215.433 405.192 218.445C405.168 218.422 405.144 218.374 405.12 218.326C405.455 218.685 405.814 219.019 406.196 219.354L406.411 220.286C405.121 222.079 403.399 221.936 401.726 221.529C400.459 221.219 399.216 220.693 398.02 220.143C396.012 219.258 394.889 217.657 395.008 215.433C395.199 211.871 395.295 208.285 395.869 204.795C397.016 197.719 399.287 190.977 402.467 184.522C403.591 182.251 405.097 180.411 407.2 179.072C414.779 174.219 422.333 169.342 429.983 164.585C434.573 161.74 439.283 159.11 443.968 156.433C445.044 155.835 445.57 155.213 445.307 153.898C444.901 151.771 444.709 149.619 444.375 147.492C443.968 144.886 444.494 145.077 441.482 145.005C438.111 144.934 434.86 144.288 431.8 142.925C426.301 140.487 421.544 137.14 418.628 131.666C417.265 129.084 416.619 126.358 416.524 123.418C416.333 117.728 417.289 112.349 420.086 107.353C422.739 102.596 426.301 98.866 431.704 97.288C432.135 97.169 432.565 96.978 432.995 96.834C436.175 95.854 439.163 94.587 441.96 92.6745C444.183 91.1684 446.885 90.4034 449.395 89.3276C449.658 89.232 449.945 89.2798 450.303 89.4232C447.219 91.0249 444.136 92.6267 441.052 94.2284L441.195 94.5631C442.892 94.6826 444.542 94.8499 446.215 94.0371C449.777 92.292 453.507 90.9054 457.571 90.5229C454.2 91.9095 450.829 93.2721 447.363 94.6826C460.655 99.153 469.142 107.544 468.018 122.031C466.99 135.347 458.384 142.639 445.498 145.149C445.952 148.424 446.359 151.651 446.909 154.879C446.98 155.333 447.674 155.811 448.176 156.074C454.726 159.325 461.372 162.361 468.329 164.608C474.018 166.425 479.708 168.194 485.398 170.035C486.45 170.37 486.952 170.059 487.502 169.175C491.016 163.485 493.048 157.126 495.678 151.054C496.275 149.667 496.61 148.257 496.825 146.822V146.751C497.231 147.276 497.662 147.707 498.116 148.041C498.02 148.233 497.925 148.424 497.853 148.615C495.582 154.066 493.43 159.54 491.04 164.919C490.083 167.071 488.673 169.007 487.478 171.039C487.047 171.804 486.45 171.972 485.589 171.709C472.823 167.908 460.081 164.011 448.247 157.723C447.961 157.58 447.65 157.484 447.172 157.317C447.291 159.899 447.506 162.337 447.53 164.776C447.698 177.829 447.865 190.905 447.913 203.982C447.937 210.222 447.626 216.461 447.53 222.701C447.53 223.275 447.793 223.92 448.128 224.398C450.662 228.199 453.435 231.857 455.73 235.778C459.627 242.423 463.213 249.285 466.99 256.002C468.568 258.823 470.289 261.572 472.01 264.322C472.728 265.493 473.038 266.617 472.943 268.051C472.608 272.808 472.608 277.59 472.273 282.347C471.676 291.049 470.887 299.727 470.217 308.405C469.978 311.369 469.907 314.357 469.739 317.37C471.604 317.489 473.301 317.513 474.975 317.728C477.724 318.087 480.091 319.378 482.194 321.123C482.72 321.553 483.246 322.557 483.079 323.059C482.864 323.681 481.955 324.398 481.286 324.446C479.66 324.565 477.963 324.542 476.361 324.231C474.712 323.92 473.134 323.155 471.508 322.677C469.189 322.008 468.281 320.382 468.377 318.111C468.568 314.142 468.759 310.15 469.022 306.182C469.883 293.368 470.791 280.53 471.652 267.692C471.676 267.262 471.484 266.712 471.245 266.33C465.675 257.508 460.583 248.448 455.73 239.22C453.459 234.917 450.542 230.948 447.913 226.813C447.793 226.621 447.602 226.454 447.22 226.024C446.885 230.231 446.574 234.056 446.215 237.905C445.379 246.679 444.494 255.428 443.657 264.178C442.773 273.526 441.936 282.849 441.076 292.196C440.43 299.129 439.785 306.086 439.139 313.019C438.972 314.836 438.35 316.485 436.868 317.561C434.43 319.354 431.967 321.099 429.361 322.629C428.334 323.251 426.899 323.346 425.656 323.394C424.317 323.442 423.815 322.629 424.413 321.434C424.891 320.478 425.513 319.545 426.278 318.828C429.338 315.887 432.924 313.736 436.892 312.254C437.657 311.967 437.896 311.632 437.968 310.867C439.235 297.002 440.478 283.112 441.793 269.222C442.701 259.636 443.825 250.073 444.685 240.487C445.307 233.387 445.642 226.263 446.096 219.139C446.335 215.457 446.909 198.555 446.933 194.802V194.898C446.574 182.204 446.239 169.485 445.881 156.456C445.235 156.815 445.02 156.935 444.805 157.054C435.721 162.505 426.636 167.884 417.624 173.406C413.846 175.725 410.213 178.283 406.603 180.865C405.503 181.654 401.08 191.957 400.148 193.009ZM400.148 193.009C400.148 193.009 400.124 193.009 400.124 192.985L400.148 193.009ZM400.865 216.987C402.228 217.633 403.519 218.469 404.834 219.258C405.025 219.378 405.216 219.76 405.168 219.952C405.121 220.167 404.786 220.382 404.547 220.43C402.419 220.98 397.59 218.9 396.442 216.963C396.395 216.868 396.419 216.724 396.395 216.533C397.949 216.246 399.455 216.342 400.865 216.987ZM421.138 132.741C418.986 129.992 418.006 126.717 417.839 123.251C417.48 116.174 419.082 109.648 423.504 104.006C426.373 100.324 430.079 98.125 434.812 97.814C435.458 97.767 436.103 97.623 436.725 97.527C436.725 97.408 436.749 97.312 436.772 97.193C436.414 97.049 436.055 96.906 435.625 96.739C450.853 92.7462 465.006 103.958 466.655 117.657C468.233 130.685 459.46 141.778 446.861 143.38C436.39 144.718 427.688 141.061 421.114 132.717L421.138 132.741ZM437.274 315.601C436.725 316.413 436.007 317.155 435.266 317.776C432.995 319.665 430.628 321.386 427.664 322.079C427.377 322.151 427.09 322.199 426.684 322.294C426.445 322.199 425.919 322.127 425.823 321.888C425.704 321.577 425.776 321.003 425.991 320.788C427.329 319.521 428.644 318.182 430.174 317.131C431.967 315.887 433.951 314.907 435.888 313.903C436.294 313.688 436.94 313.903 437.466 313.903C437.394 314.477 437.537 315.194 437.251 315.601H437.274ZM471.006 318.637C474.52 318.756 477.82 319.617 480.617 321.864C481.023 322.199 481.382 322.581 481.764 322.94C481.716 323.107 481.668 323.298 481.621 323.466C480.162 323.322 478.656 323.394 477.294 322.988C474.999 322.342 472.751 321.434 470.528 320.525C470.122 320.358 469.93 319.736 469.62 319.306C470.074 319.067 470.528 318.637 470.982 318.637H471.006Z" stroke="black" stroke-width="0.25" stroke-miterlimit="10"/>
</g>
<path d="M405.264 218.469C405.264 218.469 405.216 218.397 405.192 218.35C405.192 218.35 405.24 218.445 405.264 218.469Z" fill="black"/>
<path d="M496.825 147.444C497.231 147.731 497.661 147.946 498.116 148.138C498.187 148.066 498.259 147.97 498.331 147.899C500.315 148.472 501.845 148.209 503.399 147.66C504.307 147.325 504.403 146.918 504.905 145.914C504.786 145.914 504.283 146.177 504.164 146.153C504.164 146.106 503.662 146.464 503.662 146.393C503.04 146.632 503.016 147.038 502.897 147.086C501.749 147.588 500.554 147.516 499.168 147.349C498.02 147.205 497.709 146.942 497.638 146.393C497.375 144.791 496.944 143.189 496.801 141.563C496.657 139.675 496.657 141.755 496.801 139.866C496.849 139.292 497.136 139.436 497.494 138.886C497.685 138.886 497.805 138.886 497.996 138.886C498.116 139.34 498.211 139.125 498.211 139.579C498.259 141.516 498.259 139.484 498.259 141.444C498.259 142.591 498.068 142.711 500.196 142.639C500.961 142.615 502.371 143.046 502.945 143.285C504.307 143.811 504.403 145.628 503.638 146.416C503.519 146.536 503.758 146.416 503.758 146.584C504.068 146.464 504.379 146.345 504.618 146.273C504.738 146.153 504.833 146.034 504.929 145.891C505.048 145.054 505.001 144.719 504.714 143.906C504.307 142.687 503.542 141.755 501.223 141.898C500.745 141.922 499.478 142.352 499.191 142.376C499.191 140.966 499.239 142.759 499.191 141.372C499.168 140.296 499.359 139.627 499.191 138.551C499.12 138.097 499.191 137.954 497.972 137.882C496.849 137.81 496.92 137.882 496.61 138.288C496.108 139.029 495.462 139.555 495.486 140.32C495.582 143.117 495.94 142.185 496.203 144.982C496.203 145.149 496.442 145.556 496.681 146.321" fill="black"/>
</g>
<circle cx="417" cy="201" r="20" fill="#252E31"/>
<path opacity="0.498" fill-rule="evenodd" clip-rule="evenodd" d="M418.438 190.438C421.354 190.438 424.271 190.438 427.188 190.438C427.188 191.854 427.188 193.271 427.188 194.688C424.271 194.688 421.354 194.688 418.438 194.688C418.438 193.271 418.438 191.854 418.438 190.438Z" fill="#56CCBF"/>
<path opacity="0.999" fill-rule="evenodd" clip-rule="evenodd" d="M417.062 190.438C417.062 191.813 417.062 193.188 417.062 194.563C414.791 194.521 412.541 194.563 410.312 194.688C410.312 195.396 410.312 196.104 410.312 196.813C408.604 196.813 406.896 196.813 405.188 196.813C405.188 194.688 405.188 192.563 405.188 190.438C409.146 190.438 413.104 190.438 417.062 190.438Z" fill="#0FD3AA"/>
<path fill-rule="evenodd" clip-rule="evenodd" d="M418.562 190.562C421.396 190.562 424.229 190.562 427.062 190.562C427.062 191.896 427.062 193.229 427.062 194.562C424.229 194.562 421.396 194.562 418.562 194.562C418.562 193.229 418.562 191.896 418.562 190.562Z" fill="#00B39E"/>
<path opacity="0.667" fill-rule="evenodd" clip-rule="evenodd" d="M417.062 190.438C417.187 191.832 417.229 193.248 417.188 194.688C414.896 194.688 412.604 194.688 410.312 194.688C412.541 194.563 414.791 194.521 417.062 194.562C417.062 193.188 417.062 191.812 417.062 190.438Z" fill="#71E5CD"/>
<path opacity="0.999" fill-rule="evenodd" clip-rule="evenodd" d="M427.938 204.437C426.229 204.437 424.521 204.437 422.812 204.437C422.812 203.937 422.812 203.437 422.812 202.937C416.938 202.937 411.062 202.937 405.188 202.937C405.188 201.271 405.188 199.604 405.188 197.938C406.896 197.938 408.604 197.938 410.312 197.938C410.312 198.312 410.312 198.687 410.312 199.062C415.317 199.004 420.317 199.067 425.312 199.25C426.634 199.696 427.488 200.592 427.875 201.937C427.938 202.77 427.958 203.603 427.938 204.437Z" fill="#13B4A0"/>
<path opacity="0.082" fill-rule="evenodd" clip-rule="evenodd" d="M405.188 202.938C411.062 202.938 416.938 202.938 422.812 202.938C422.812 203.438 422.812 203.938 422.812 204.438C424.521 204.438 426.229 204.438 427.938 204.438C426.21 204.562 424.46 204.604 422.688 204.563C422.688 204.063 422.688 203.563 422.688 203.063C416.833 203.104 411 203.062 405.188 202.938Z" fill="#AAE5DF"/>
<path opacity="0.998" fill-rule="evenodd" clip-rule="evenodd" d="M422.813 205.812C424.521 205.812 426.229 205.812 427.938 205.812C427.958 207.146 427.938 208.48 427.875 209.812C427.412 211.192 426.474 212.047 425.063 212.375C422.021 212.438 418.98 212.458 415.938 212.438C415.938 211.062 415.938 209.688 415.938 208.312C418.229 208.312 420.521 208.312 422.813 208.312C422.813 207.479 422.813 206.646 422.813 205.812Z" fill="#0CD3AA"/>
<path opacity="0.576" fill-rule="evenodd" clip-rule="evenodd" d="M409.938 206.063C408.313 206.063 406.688 206.063 405.063 206.063C405.063 207.313 405.063 208.563 405.063 209.813C404.938 208.543 404.897 207.252 404.938 205.938C406.626 205.896 408.293 205.938 409.938 206.063Z" fill="#7ED7CC"/>
<path fill-rule="evenodd" clip-rule="evenodd" d="M409.938 206.062C409.938 206.771 409.938 207.479 409.938 208.188C411.479 208.188 413.021 208.188 414.562 208.188C414.562 209.562 414.562 210.938 414.562 212.312C412.312 212.312 410.062 212.312 407.812 212.312C406.383 212.05 405.466 211.216 405.062 209.812C405.062 208.562 405.062 207.312 405.062 206.062C406.688 206.062 408.312 206.062 409.938 206.062Z" fill="#08B39F"/>
<path opacity="0.664" fill-rule="evenodd" clip-rule="evenodd" d="M422.812 205.812C422.812 206.646 422.812 207.479 422.812 208.312C420.521 208.312 418.229 208.312 415.938 208.312C418.166 208.188 420.416 208.146 422.687 208.188C422.647 207.372 422.689 206.581 422.812 205.812Z" fill="#69E4CA"/>
<path opacity="0.416" fill-rule="evenodd" clip-rule="evenodd" d="M414.562 208.188C414.687 209.582 414.729 210.998 414.687 212.438C412.374 212.479 410.082 212.437 407.812 212.312C410.062 212.312 412.312 212.312 414.562 212.312C414.562 210.938 414.562 209.562 414.562 208.188Z" fill="#74D4C9"/>
</g>
</g>
<defs>
<filter id="filter0_d_1_2" x="61" y="142.988" width="778.478" height="697.012" filterUnits="userSpaceOnUse" color-interpolation-filters="sRGB">
<feFlood flood-opacity="0" result="BackgroundImageFix"/>
<feColorMatrix in="SourceAlpha" type="matrix" values="0 0 0 0 0 0 0 0 0 0 0 0 0 0 0 0 0 0 127 0" result="hardAlpha"/>
<feOffset dy="4"/>
<feGaussianBlur stdDeviation="2"/>
<feComposite in2="hardAlpha" operator="out"/>
<feColorMatrix type="matrix" values="0 0 0 0 0 0 0 0 0 0 0 0 0 0 0 0 0 0 0.25 0"/>
<feBlend mode="normal" in2="BackgroundImageFix" result="effect1_dropShadow_1_2"/>
<feBlend mode="normal" in="SourceGraphic" in2="effect1_dropShadow_1_2" result="shape"/>
</filter>
<filter id="filter1_d_1_2" x="569" y="150.608" width="172" height="172" filterUnits="userSpaceOnUse" color-interpolation-filters="sRGB">
<feFlood flood-opacity="0" result="BackgroundImageFix"/>
<feColorMatrix in="SourceAlpha" type="matrix" values="0 0 0 0 0 0 0 0 0 0 0 0 0 0 0 0 0 0 127 0" result="hardAlpha"/>
<feOffset dy="4"/>
<feGaussianBlur stdDeviation="2"/>
<feComposite in2="hardAlpha" operator="out"/>
<feColorMatrix type="matrix" values="0 0 0 0 0 0 0 0 0 0 0 0 0 0 0 0 0 0 0.25 0"/>
<feBlend mode="normal" in2="BackgroundImageFix" result="effect1_dropShadow_1_2"/>
<feBlend mode="normal" in="SourceGraphic" in2="effect1_dropShadow_1_2" result="shape"/>
</filter>
<filter id="filter2_d_1_2" x="362" y="657.277" width="172" height="172" filterUnits="userSpaceOnUse" color-interpolation-filters="sRGB">
<feFlood flood-opacity="0" result="BackgroundImageFix"/>
<feColorMatrix in="SourceAlpha" type="matrix" values="0 0 0 0 0 0 0 0 0 0 0 0 0 0 0 0 0 0 127 0" result="hardAlpha"/>
<feOffset dy="4"/>
<feGaussianBlur stdDeviation="2"/>
<feComposite in2="hardAlpha" operator="out"/>
<feColorMatrix type="matrix" values="0 0 0 0 0 0 0 0 0 0 0 0 0 0 0 0 0 0 0.25 0"/>
<feBlend mode="normal" in2="BackgroundImageFix" result="effect1_dropShadow_1_2"/>
<feBlend mode="normal" in="SourceGraphic" in2="effect1_dropShadow_1_2" result="shape"/>
</filter>
<filter id="filter3_d_1_2" x="659" y="365.608" width="172" height="172" filterUnits="userSpaceOnUse" color-interpolation-filters="sRGB">
<feFlood flood-opacity="0" result="BackgroundImageFix"/>
<feColorMatrix in="SourceAlpha" type="matrix" values="0 0 0 0 0 0 0 0 0 0 0 0 0 0 0 0 0 0 127 0" result="hardAlpha"/>
<feOffset dy="4"/>
<feGaussianBlur stdDeviation="2"/>
<feComposite in2="hardAlpha" operator="out"/>
<feColorMatrix type="matrix" values="0 0 0 0 0 0 0 0 0 0 0 0 0 0 0 0 0 0 0.25 0"/>
<feBlend mode="normal" in2="BackgroundImageFix" result="effect1_dropShadow_1_2"/>
<feBlend mode="normal" in="SourceGraphic" in2="effect1_dropShadow_1_2" result="shape"/>
</filter>
<filter id="filter4_d_1_2" x="573" y="575" width="172" height="172" filterUnits="userSpaceOnUse" color-interpolation-filters="sRGB">
<feFlood flood-opacity="0" result="BackgroundImageFix"/>
<feColorMatrix in="SourceAlpha" type="matrix" values="0 0 0 0 0 0 0 0 0 0 0 0 0 0 0 0 0 0 127 0" result="hardAlpha"/>
<feOffset dy="4"/>
<feGaussianBlur stdDeviation="2"/>
<feComposite in2="hardAlpha" operator="out"/>
<feColorMatrix type="matrix" values="0 0 0 0 0 0 0 0 0 0 0 0 0 0 0 0 0 0 0.25 0"/>
<feBlend mode="normal" in2="BackgroundImageFix" result="effect1_dropShadow_1_2"/>
<feBlend mode="normal" in="SourceGraphic" in2="effect1_dropShadow_1_2" result="shape"/>
</filter>
<filter id="filter5_d_1_2" x="161" y="576.608" width="172" height="172" filterUnits="userSpaceOnUse" color-interpolation-filters="sRGB">
<feFlood flood-opacity="0" result="BackgroundImageFix"/>
<feColorMatrix in="SourceAlpha" type="matrix" values="0 0 0 0 0 0 0 0 0 0 0 0 0 0 0 0 0 0 127 0" result="hardAlpha"/>
<feOffset dy="4"/>
<feGaussianBlur stdDeviation="2"/>
<feComposite in2="hardAlpha" operator="out"/>
<feColorMatrix type="matrix" values="0 0 0 0 0 0 0 0 0 0 0 0 0 0 0 0 0 0 0.25 0"/>
<feBlend mode="normal" in2="BackgroundImageFix" result="effect1_dropShadow_1_2"/>
<feBlend mode="normal" in="SourceGraphic" in2="effect1_dropShadow_1_2" result="shape"/>
</filter>
<filter id="filter6_d_1_2" x="70" y="364.608" width="172" height="172" filterUnits="userSpaceOnUse" color-interpolation-filters="sRGB">
<feFlood flood-opacity="0" result="BackgroundImageFix"/>
<feColorMatrix in="SourceAlpha" type="matrix" values="0 0 0 0 0 0 0 0 0 0 0 0 0 0 0 0 0 0 127 0" result="hardAlpha"/>
<feOffset dy="4"/>
<feGaussianBlur stdDeviation="2"/>
<feComposite in2="hardAlpha" operator="out"/>
<feColorMatrix type="matrix" values="0 0 0 0 0 0 0 0 0 0 0 0 0 0 0 0 0 0 0.25 0"/>
<feBlend mode="normal" in2="BackgroundImageFix" result="effect1_dropShadow_1_2"/>
<feBlend mode="normal" in="SourceGraphic" in2="effect1_dropShadow_1_2" result="shape"/>
</filter>
<filter id="filter7_d_1_2" x="153" y="153.608" width="172" height="172" filterUnits="userSpaceOnUse" color-interpolation-filters="sRGB">
<feFlood flood-opacity="0" result="BackgroundImageFix"/>
<feColorMatrix in="SourceAlpha" type="matrix" values="0 0 0 0 0 0 0 0 0 0 0 0 0 0 0 0 0 0 127 0" result="hardAlpha"/>
<feOffset dy="4"/>
<feGaussianBlur stdDeviation="2"/>
<feComposite in2="hardAlpha" operator="out"/>
<feColorMatrix type="matrix" values="0 0 0 0 0 0 0 0 0 0 0 0 0 0 0 0 0 0 0.25 0"/>
<feBlend mode="normal" in2="BackgroundImageFix" result="effect1_dropShadow_1_2"/>
<feBlend mode="normal" in="SourceGraphic" in2="effect1_dropShadow_1_2" result="shape"/>
</filter>
<filter id="filter8_d_1_2" x="390.874" y="85.1528" width="118.116" height="243.485" filterUnits="userSpaceOnUse" color-interpolation-filters="sRGB">
<feFlood flood-opacity="0" result="BackgroundImageFix"/>
<feColorMatrix in="SourceAlpha" type="matrix" values="0 0 0 0 0 0 0 0 0 0 0 0 0 0 0 0 0 0 127 0" result="hardAlpha"/>
<feOffset/>
<feGaussianBlur stdDeviation="2"/>
<feComposite in2="hardAlpha" operator="out"/>
<feColorMatrix type="matrix" values="0 0 0 0 0 0 0 0 0 0 0 0 0 0 0 0 0 0 0.35 0"/>
<feBlend mode="normal" in2="BackgroundImageFix" result="effect1_dropShadow_1_2"/>
<feBlend mode="normal" in="SourceGraphic" in2="effect1_dropShadow_1_2" result="shape"/>
</filter>
<filter id="filter9_d_1_2" x="423.951" y="122.956" width="37.572" height="14.0022" filterUnits="userSpaceOnUse" color-interpolation-filters="sRGB">
<feFlood flood-opacity="0" result="BackgroundImageFix"/>
<feColorMatrix in="SourceAlpha" type="matrix" values="0 0 0 0 0 0 0 0 0 0 0 0 0 0 0 0 0 0 127 0" result="hardAlpha"/>
<feOffset/>
<feGaussianBlur stdDeviation="2"/>
<feComposite in2="hardAlpha" operator="out"/>
<feColorMatrix type="matrix" values="0 0 0 0 0 0 0 0 0 0 0 0 0 0 0 0 0 0 0.35 0"/>
<feBlend mode="normal" in2="BackgroundImageFix" result="effect1_dropShadow_1_2"/>
<feBlend mode="normal" in="SourceGraphic" in2="effect1_dropShadow_1_2" result="shape"/>
</filter>
<filter id="filter10_d_1_2" x="427.681" y="107.365" width="13.1358" height="16.411" filterUnits="userSpaceOnUse" color-interpolation-filters="sRGB">
<feFlood flood-opacity="0" result="BackgroundImageFix"/>
<feColorMatrix in="SourceAlpha" type="matrix" values="0 0 0 0 0 0 0 0 0 0 0 0 0 0 0 0 0 0 127 0" result="hardAlpha"/>
<feOffset/>
<feGaussianBlur stdDeviation="2"/>
<feComposite in2="hardAlpha" operator="out"/>
<feColorMatrix type="matrix" values="0 0 0 0 0 0 0 0 0 0 0 0 0 0 0 0 0 0 0.35 0"/>
<feBlend mode="normal" in2="BackgroundImageFix" result="effect1_dropShadow_1_2"/>
<feBlend mode="normal" in="SourceGraphic" in2="effect1_dropShadow_1_2" result="shape"/>
</filter>
<filter id="filter11_d_1_2" x="439.442" y="107.095" width="13.193" height="15.7387" filterUnits="userSpaceOnUse" color-interpolation-filters="sRGB">
<feFlood flood-opacity="0" result="BackgroundImageFix"/>
<feColorMatrix in="SourceAlpha" type="matrix" values="0 0 0 0 0 0 0 0 0 0 0 0 0 0 0 0 0 0 127 0" result="hardAlpha"/>
<feOffset/>
<feGaussianBlur stdDeviation="2"/>
<feComposite in2="hardAlpha" operator="out"/>
<feColorMatrix type="matrix" values="0 0 0 0 0 0 0 0 0 0 0 0 0 0 0 0 0 0 0.35 0"/>
<feBlend mode="normal" in2="BackgroundImageFix" result="effect1_dropShadow_1_2"/>
<feBlend mode="normal" in="SourceGraphic" in2="effect1_dropShadow_1_2" result="shape"/>
</filter>
<filter id="filter12_d_1_2" x="390.874" y="85.1528" width="111.401" height="243.485" filterUnits="userSpaceOnUse" color-interpolation-filters="sRGB">
<feFlood flood-opacity="0" result="BackgroundImageFix"/>
<feColorMatrix in="SourceAlpha" type="matrix" values="0 0 0 0 0 0 0 0 0 0 0 0 0 0 0 0 0 0 127 0" result="hardAlpha"/>
<feOffset/>
<feGaussianBlur stdDeviation="2"/>
<feComposite in2="hardAlpha" operator="out"/>
<feColorMatrix type="matrix" values="0 0 0 0 0 0 0 0 0 0 0 0 0 0 0 0 0 0 0.35 0"/>
<feBlend mode="normal" in2="BackgroundImageFix" result="effect1_dropShadow_1_2"/>
<feBlend mode="normal" in="SourceGraphic" in2="effect1_dropShadow_1_2" result="shape"/>
</filter>
<linearGradient id="paint0_linear_1_2" x1="450" y1="0" x2="450" y2="900" gradientUnits="userSpaceOnUse">
<stop stop-color="white"/>
<stop offset="1" stop-color="#252E31"/>
</linearGradient>
<clipPath id="clip0_1_2">
<rect width="900" height="900" fill="white"/>
</clipPath>
<clipPath id="clip1_1_2">
<rect width="119" height="244" fill="white" transform="translate(390 85)"/>
</clipPath>
</defs>
</svg>
