
<svg version="1.0" xmlns="http://www.w3.org/2000/svg"
 width="225.000000pt" height="225.000000pt" viewBox="0 0 225.000000 225.000000"
 preserveAspectRatio="xMidYMid meet">

<g transform="translate(0.000000,225.000000) scale(0.100000,-0.100000)"
fill="#00b39f" stroke="none">
<path d="M1056 2238 c-25 -7 -57 -28 -86 -57 -93 -94 -93 -218 0 -311 93 -93
217 -93 310 0 93 92 93 218 0 310 -63 64 -133 82 -224 58z m146 -84 c81 -41
96 -167 29 -235 -111 -111 -302 10 -246 156 19 51 41 72 92 91 40 14 81 10
125 -12z"/>
<path d="M610 2005 c-19 -23 -4 -44 46 -66 l46 -21 -48 -28 c-178 -103 -334
-309 -394 -520 -12 -41 -24 -119 -27 -172 -5 -87 -4 -98 12 -104 36 -14 50 9
57 92 12 152 65 296 152 419 48 67 163 178 217 209 32 19 32 19 24 0 -5 -10
-9 -32 -9 -49 -1 -25 3 -31 24 -33 23 -3 30 6 69 86 24 48 42 97 40 108 -3 12
-30 32 -79 56 -83 40 -111 45 -130 23z"/>
<path d="M1447 1949 c-9 -6 -17 -20 -17 -33 0 -17 10 -28 42 -42 233 -105 428
-359 464 -601 l7 -48 -26 23 c-29 28 -70 26 -75 -2 -5 -22 123 -156 149 -156
16 0 149 131 149 147 0 14 -22 33 -39 33 -8 0 -29 -14 -47 -31 l-32 -31 -12
69 c-36 209 -156 413 -319 545 -92 74 -219 140 -244 127z"/>
<path d="M895 1741 c-88 -40 -105 -85 -105 -282 l0 -151 34 -34 34 -34 267 0
267 0 34 34 34 34 0 154 c0 140 -2 158 -22 198 -41 81 -124 116 -207 86 -57
-20 -160 -21 -208 -1 -46 20 -79 19 -128 -4z m106 -67 c57 -21 190 -21 247 0
49 18 75 11 112 -29 24 -25 25 -33 28 -168 3 -126 2 -143 -14 -154 -25 -18
-484 -19 -502 -1 -19 19 -16 261 4 303 12 25 55 60 80 65 1 0 21 -7 45 -16z"/>
<path d="M250 994 c-97 -42 -155 -158 -130 -256 28 -107 109 -172 214 -172
181 1 285 187 190 341 -54 88 -180 128 -274 87z m143 -68 c78 -32 113 -116 81
-194 -63 -152 -284 -106 -284 58 0 60 29 106 83 130 50 23 77 25 120 6z"/>
<path d="M1809 982 c-125 -65 -158 -234 -66 -338 117 -135 333 -89 382 80 56
192 -139 351 -316 258z m167 -61 c144 -65 92 -281 -67 -281 -62 0 -108 32
-133 92 -23 56 -16 104 21 149 49 58 109 72 179 40z"/>
<path d="M102 503 c-43 -21 -79 -64 -92 -111 -16 -60 -13 -297 5 -332 30 -58
49 -61 336 -58 l261 3 29 33 29 32 0 155 c0 164 -6 194 -48 238 -55 58 -111
70 -192 42 -53 -19 -133 -19 -185 0 -52 19 -102 18 -143 -2z m122 -68 c64 -20
173 -19 232 1 57 19 97 7 125 -40 16 -26 19 -52 19 -168 0 -126 -2 -138 -19
-148 -12 -6 -110 -10 -249 -10 -213 0 -230 1 -246 19 -15 17 -17 37 -14 156
l3 137 37 34 c43 39 45 39 112 19z"/>
<path d="M1685 508 c-32 -17 -76 -61 -91 -90 -10 -20 -14 -69 -14 -187 l0
-161 29 -32 29 -33 255 -3 c360 -4 357 -6 357 230 -1 180 -19 226 -102 269
-44 23 -89 24 -143 4 -52 -19 -132 -19 -185 0 -50 18 -107 19 -135 3z m110
-73 c54 -19 169 -19 235 1 50 15 57 15 85 0 53 -29 59 -49 63 -194 5 -186 27
-172 -263 -172 -173 0 -236 3 -249 13 -16 11 -17 28 -14 159 3 129 5 149 23
168 36 40 63 46 120 25z"/>
<path d="M841 386 c-41 -12 -79 -30 -85 -39 -8 -12 1 -36 34 -101 47 -89 71
-109 98 -82 15 14 14 19 -1 52 -10 20 -16 38 -14 40 2 2 35 -3 73 -11 144 -31
362 -14 494 38 59 23 75 52 45 77 -12 10 -25 9 -72 -9 -131 -48 -302 -63 -433
-37 -63 12 -64 13 -37 24 23 10 28 17 25 40 -4 36 -30 37 -127 8z"/>
</g>
</svg>
