<svg version="1.0" xmlns="http://www.w3.org/2000/svg"
 width="200.000000pt" height="200.000000pt" viewBox="0 0 200.000000 200.000000"
 preserveAspectRatio="xMidYMid meet">

<g transform="translate(0.000000,200.000000) scale(0.100000,-0.100000)"
fill="#00b39f" stroke="none">
<path d="M935 1831 c-73 -34 -105 -86 -105 -170 0 -33 7 -58 23 -82 l22 -33
-42 -42 c-52 -53 -73 -118 -73 -231 l0 -83 240 0 240 0 0 91 c0 119 -14 163
-70 221 l-45 47 22 25 c64 75 30 205 -67 254 -53 27 -92 28 -145 3z"/>
<path d="M695 1573 c-95 -50 -218 -174 -267 -268 -36 -70 -62 -147 -71 -218
l-6 -37 42 6 c62 8 67 11 67 37 0 34 35 132 67 186 34 59 106 135 163 174 53
36 99 86 100 108 0 8 -6 23 -12 32 -12 15 -19 13 -83 -20z"/>
<path d="M1214 1576 c-8 -32 33 -84 98 -126 100 -65 193 -201 219 -321 7 -30
15 -57 18 -60 3 -4 27 -10 53 -13 l47 -7 -5 38 c-20 139 -81 260 -184 364 -72
72 -186 149 -223 149 -9 0 -19 -11 -23 -24z"/>
<path d="M370 984 c-46 -20 -68 -41 -92 -88 -26 -50 -21 -124 12 -168 l22 -30
-40 -42 c-59 -60 -72 -98 -72 -216 l0 -100 241 0 241 0 -4 108 c-5 122 -23
171 -82 218 l-34 27 20 27 c43 58 42 149 -3 212 -24 34 -95 68 -140 68 -19 -1
-50 -8 -69 -16z"/>
<path d="M1504 989 c-16 -5 -46 -25 -66 -44 -63 -63 -71 -161 -18 -227 l19
-25 -29 -21 c-16 -12 -42 -43 -57 -69 -25 -43 -28 -60 -32 -156 l-3 -107 241
0 241 0 0 98 c0 112 -23 178 -79 224 l-31 27 25 47 c77 145 -51 300 -211 253z"/>
<path d="M740 456 l0 -55 73 -23 c102 -33 272 -33 375 0 l72 23 0 55 c0 50 -2
55 -17 49 -109 -44 -130 -48 -243 -48 -113 0 -134 4 -242 48 -16 6 -18 1 -18
-49z"/>
</g>
</svg>
