<svg version="1.0" xmlns="http://www.w3.org/2000/svg"
 width="225.000000pt" height="225.000000pt" viewBox="0 0 225.000000 225.000000"
 preserveAspectRatio="xMidYMid meet">

<g transform="translate(0.000000,225.000000) scale(0.100000,-0.100000)"
fill="#00b39f" stroke="none">
<path d="M130 1897 c-31 -16 -52 -38 -74 -77 l-31 -55 0 -640 0 -640 31 -55
c22 -39 43 -61 74 -77 l43 -23 948 0 c645 0 957 3 976 11 38 14 80 56 106 104
22 40 22 47 25 639 2 402 -1 616 -8 651 -16 75 -61 142 -113 165 -40 19 -76
20 -988 20 l-946 0 -43 -23z m1909 -105 c19 -9 43 -33 53 -52 17 -32 18 -71
18 -615 0 -649 2 -632 -70 -667 -33 -17 -97 -18 -915 -18 -983 0 -928 -4 -967
70 -17 32 -18 71 -18 615 0 544 1 583 18 615 39 74 -16 70 967 70 818 0 882
-1 914 -18z"/>
<path d="M637 1640 c-96 -24 -166 -81 -209 -168 -28 -57 -33 -76 -32 -142 0
-87 25 -149 84 -211 l36 -38 -60 -38 c-109 -70 -188 -207 -190 -333 -1 -59 1
-65 24 -77 36 -18 794 -18 830 0 34 17 38 86 11 177 -33 109 -99 185 -230 267
-2 1 12 20 32 42 66 73 82 115 82 216 0 81 -3 95 -30 144 -68 124 -219 193
-348 161z m137 -102 c51 -16 119 -82 136 -133 47 -141 -72 -296 -218 -281
-216 20 -274 298 -83 398 58 31 101 35 165 16z m78 -550 c95 -44 175 -143 195
-239 l6 -29 -347 0 -346 0 6 28 c27 117 122 221 237 258 67 22 181 13 249 -18z"/>
<path d="M1270 1370 c-25 -25 -25 -42 -2 -63 17 -15 56 -17 349 -17 307 0 331
1 346 18 23 25 21 48 -5 66 -19 14 -69 16 -345 16 -310 0 -324 -1 -343 -20z"/>
<path d="M1267 1102 c-22 -24 -21 -45 1 -65 17 -15 56 -17 349 -17 307 0 331
1 346 18 22 24 21 45 -1 65 -17 15 -56 17 -349 17 -307 0 -331 -1 -346 -18z"/>
<path d="M1283 860 c-30 -12 -39 -47 -17 -71 16 -18 34 -19 350 -19 289 0 335
2 348 16 22 22 20 50 -6 68 -19 14 -68 16 -338 15 -173 0 -325 -4 -337 -9z"/>
</g>
</svg>
