<svg version="1.0" xmlns="http://www.w3.org/2000/svg"
 width="225.000000pt" height="225.000000pt" viewBox="0 0 225.000000 225.000000"
 preserveAspectRatio="xMidYMid meet">

<g transform="translate(0.000000,225.000000) scale(0.100000,-0.100000)"
fill="#00b39f" stroke="none">
<path d="M950 2167 c-92 -43 -134 -111 -127 -209 2 -35 7 -72 11 -83 6 -17 0
-23 -41 -37 -114 -40 -252 -160 -325 -279 -20 -33 -49 -95 -64 -137 -26 -74
-27 -87 -33 -342 -4 -186 -10 -272 -19 -287 -7 -12 -44 -48 -82 -78 -77 -61
-97 -92 -106 -160 -10 -66 31 -146 94 -183 47 -27 49 -27 254 -30 l208 -3 10
-42 c15 -56 72 -139 118 -171 175 -121 420 -39 478 161 l15 52 207 3 c187 3
211 5 247 24 85 44 125 149 91 238 -16 43 -48 76 -131 140 -58 44 -65 73 -65
255 l0 159 51 7 c74 10 178 66 233 125 89 95 129 227 107 347 -25 138 -105
244 -228 305 -64 31 -73 33 -178 33 -99 0 -116 -3 -168 -27 -32 -15 -84 -52
-116 -82 l-57 -56 -58 23 c-48 19 -56 25 -51 42 40 127 2 236 -98 284 -48 23
-135 27 -177 8z m150 -70 c71 -37 101 -127 66 -195 -14 -27 -16 -28 -75 -22
-34 3 -89 3 -122 0 l-62 -6 -13 33 c-32 74 -1 157 70 193 53 26 83 25 136 -3z
m714 -205 c61 -27 142 -105 174 -167 20 -39 26 -69 30 -135 5 -106 -19 -176
-83 -247 -164 -184 -448 -149 -566 69 -32 59 -34 69 -34 158 0 76 4 104 22
142 42 92 140 174 237 199 51 13 170 3 220 -19z m-658 -88 c59 -13 144 -48
144 -58 0 -2 -6 -21 -14 -42 -33 -98 -24 -229 22 -321 36 -70 108 -140 184
-178 39 -19 79 -35 89 -35 49 0 49 -1 49 -188 0 -216 7 -238 106 -308 36 -26
71 -59 79 -75 22 -41 19 -101 -6 -133 -46 -58 -16 -56 -782 -56 l-704 0 -34
23 c-40 27 -59 60 -59 105 0 51 24 87 90 133 104 73 104 72 111 374 8 289 14
329 77 450 47 91 163 208 252 255 128 67 263 85 396 54z m114 -1479 c0 -49
-68 -133 -135 -168 -52 -28 -155 -29 -205 -3 -48 25 -98 74 -121 118 -36 71
-46 68 221 68 209 0 240 -2 240 -15z"/>
<path d="M1587 1748 c-19 -14 -51 -157 -41 -182 9 -24 40 -28 73 -12 60 32
131 8 131 -44 0 -53 -78 -76 -157 -48 -29 10 -36 10 -43 -2 -5 -8 -8 -19 -7
-25 6 -20 73 -45 120 -45 114 0 171 69 136 168 -16 48 -53 67 -127 65 -52 -1
-62 2 -58 14 3 8 6 26 6 39 0 23 2 24 80 24 66 0 82 3 87 16 11 29 -25 44
-107 44 -45 0 -83 -5 -93 -12z"/>
</g>
</svg>
