<svg xmlns="http://www.w3.org/2000/svg" height="18" viewBox="0 0 15 19" width="18"><g><polygon fill="none;" points="7.4,9 1.6,9 1.6,9 7.4,9 13.1,9 13.1,9 	"></polygon><polygon fill="#00B39F" points="7.4,9 13.1,9 13.1,9 13.1,9 13.1,4.3 7.4,1.8 	"></polygon><path fill="#00B39F" d="M1.6,9c0.4,3.4,2.7,6.4,5.7,7.3V9H1.6z"></path><path d="M2.1,14.4C1.8,14,1.5,13.5,1.2,13C1.5,13.5,1.8,14,2.1,14.4z"></path><path d="M7.4,0L0,3.3v4.9c0,1.7,0.4,3.4,1.2,4.8c0.3,0.5,0.6,1,0.9,1.4c0.7,0.9,1.4,1.6,2.3,2.3 c0.7,0.5,1.4,0.8,2.2,1.1c0.3,0.1,0.5,0.2,0.8,0.2c0.3-0.1,0.5-0.1,0.8-0.2c0.8-0.3,1.5-0.6,2.2-1.1c0.9-0.6,1.7-1.4,2.3-2.3 c0.3-0.4,0.6-0.9,0.9-1.4c0.8-1.5,1.2-3.1,1.2-4.8V3.3L7.4,0z M13.1,9L13.1,9c-0.4,3.4-2.7,6.4-5.7,7.3c-3-0.9-5.3-3.9-5.7-7.3h0 V4.3l5.7-2.5l5.7,2.5V9z"></path></g></svg>