<svg width="18" height="18" viewBox="0 0 18 18" fill="#51636B" xmlns="http://www.w3.org/2000/svg"><path d="M2.25 1.625C1.65326 1.625 1.08097 1.88434 0.65901 2.34597C0.237053 2.8076 0 3.4337 0 4.08654L0 15.7788C0 16.2685 0.17779 16.7381 0.494257 17.0843C0.810725 17.4305 1.23995 17.625 1.6875 17.625H2.42213C3.62138 16.8045 4.25021 15.9756 3.62138 15.1635H1.125V4.08654C1.125 3.76012 1.24353 3.44707 1.4545 3.21625C1.66548 2.98544 1.95163 2.85577 2.25 2.85577H15.75C16.0484 2.85577 16.3345 2.98544 16.5455 3.21625C16.7565 3.44707 16.875 3.76012 16.875 4.08654V15.1635H3.62138C4.24463 15.9684 2.22413 16.8533 2.42213 17.625H16.3125C16.7601 17.625 17.1893 17.4305 17.5057 17.0843C17.8222 16.7381 18 16.2685 18 15.7788V4.08654C18 3.4337 17.7629 2.8076 17.341 2.34597C16.919 1.88434 16.3467 1.625 15.75 1.625H2.25Z" fill="#51636B"></path><path d="M12.1537 7.45312C12.2728 7.64612 12.3844 7.83168 12.5034 8.00241C12.5407 8.05437 12.6225 8.08406 12.6895 8.09148C12.8607 8.10633 13.0318 8.10633 13.2104 8.0989C13.27 8.0989 13.3518 8.06179 13.3816 8.01725C13.5081 7.83911 13.6197 7.65354 13.7388 7.46055C13.9397 7.5422 14.1407 7.61642 14.3267 7.7055C14.3639 7.72034 14.3937 7.80942 14.3863 7.86138C14.3565 8.03952 14.3044 8.21024 14.2746 8.38839C14.2672 8.44777 14.297 8.522 14.3342 8.56654C14.4383 8.6853 14.5723 8.77437 14.6616 8.89314C14.7509 9.01932 14.8477 9.01932 14.9742 8.98963C15.1528 8.9451 15.3388 8.90798 15.5398 8.86345C15.6291 9.08613 15.7258 9.30881 15.8225 9.53892C15.6365 9.65768 15.4653 9.76902 15.2867 9.88036C15.2049 9.93232 15.1677 9.98428 15.1751 10.0882C15.19 10.2589 15.1677 10.4371 15.1825 10.6078C15.19 10.6672 15.2272 10.7488 15.2718 10.7785C15.443 10.8973 15.6216 11.0086 15.8225 11.1348C15.7332 11.3352 15.6514 11.5431 15.5621 11.7435C15.5472 11.7732 15.4951 11.7806 15.4653 11.7954C15.4504 11.8029 15.4281 11.788 15.4132 11.788C15.1974 11.7435 14.9593 11.6321 14.7732 11.6841C14.5946 11.736 14.4532 11.9662 14.3118 12.122C14.2746 12.1591 14.2597 12.2408 14.2746 12.3002C14.3118 12.508 14.3639 12.7084 14.416 12.9311C14.1928 13.0276 13.9695 13.1167 13.7388 13.2132C13.6272 13.0424 13.5156 12.8791 13.4262 12.7084C13.3593 12.5897 13.2923 12.5377 13.1509 12.5674C13.0244 12.5897 12.8904 12.5971 12.7639 12.5748C12.6002 12.5377 12.5183 12.6045 12.4439 12.7381C12.3621 12.894 12.2504 13.0424 12.1462 13.2057C11.923 13.1167 11.6997 13.0276 11.469 12.9311C11.5137 12.7307 11.5509 12.5377 11.603 12.3447C11.6402 12.2259 11.6327 12.1443 11.5137 12.0626C11.3946 11.9736 11.2904 11.8622 11.2011 11.7435C11.1267 11.647 11.0597 11.6321 10.9481 11.6618C10.7546 11.7138 10.5537 11.7509 10.3453 11.7954C10.2485 11.5727 10.1592 11.3575 10.0625 11.12C10.2485 11.0012 10.4272 10.8824 10.6132 10.7785C10.6951 10.7266 10.7323 10.682 10.7174 10.5707C10.6951 10.4148 10.7025 10.2515 10.7174 10.0882C10.7323 9.97686 10.7025 9.91747 10.6058 9.86552C10.4272 9.7616 10.2634 9.65026 10.0699 9.53149C10.1518 9.32366 10.2337 9.11582 10.323 8.92283C10.3379 8.89314 10.4272 8.87087 10.4718 8.87829C10.6281 8.90798 10.7844 8.9451 10.9406 8.98963C11.0597 9.02675 11.1341 9.0119 11.2086 8.90798C11.2904 8.79664 11.3946 8.6853 11.5062 8.60365C11.6402 8.51458 11.6402 8.4255 11.6104 8.29189C11.5658 8.10633 11.4616 7.88364 11.5286 7.74261C11.5881 7.61642 11.8411 7.58673 12.0123 7.51251C12.0495 7.49766 12.0941 7.47539 12.1537 7.45312ZM14.1035 10.3183C14.1035 9.67995 13.5751 9.16036 12.9276 9.16036C12.2951 9.16036 11.7593 9.69479 11.7593 10.3331C11.7593 10.9715 12.2876 11.5059 12.9276 11.4985C13.59 11.4985 14.1035 10.9789 14.1035 10.3183Z" fill="#51636B"></path><path d="M7.06269 4.90123C7.21901 4.7445 7.35188 4.61911 7.49256 4.48588C7.57072 4.54074 7.66451 4.61127 7.75049 4.67396C7.8052 4.71315 7.85209 4.75233 7.9068 4.79152C8.00059 4.84637 8.50862 4.5956 8.53207 4.48588C8.56333 4.32915 8.58678 4.18025 8.61804 4C8.71965 4 8.81344 4 8.90723 4C8.9932 4 9.08699 4 9.18078 4C9.21205 4.17241 9.22768 4.32915 9.27457 4.47804C9.29021 4.54074 9.36055 4.57992 9.40744 4.63478C9.42307 4.65045 9.44652 4.64262 9.46215 4.65829C9.76697 4.89339 10.0171 4.76801 10.2516 4.54074C10.2672 4.52507 10.2984 4.51723 10.3297 4.49372C10.4626 4.62694 10.5876 4.76017 10.7283 4.90123C10.7127 4.92474 10.7049 4.95609 10.6814 4.9796C10.3766 5.24605 10.4157 5.54385 10.5954 5.84948C10.6267 5.90434 10.7049 5.94353 10.7752 5.9592C11.2285 6.03757 11.2285 6.03757 11.2129 6.4921C11.2129 6.52345 11.2051 6.5548 11.2051 6.60182C11.166 6.60965 11.1191 6.63316 11.08 6.63316C10.7518 6.63316 10.5486 6.76639 10.4626 7.10337C10.4313 7.22876 10.4079 7.31497 10.5017 7.41684C10.5876 7.51872 10.658 7.62844 10.7439 7.74599C10.6033 7.87138 10.4626 7.99677 10.3063 8.12999C10.3141 8.13783 10.2906 8.12999 10.275 8.10648C10.0171 7.8557 9.74352 7.76166 9.42307 7.98893C9.36055 8.02811 9.29802 8.09081 9.28239 8.16134C9.23549 8.3024 9.21986 8.4513 9.19642 8.60804C9.00884 8.60804 8.82907 8.60804 8.62586 8.60804C8.60241 8.45914 8.57896 8.31024 8.53989 8.16134C8.51644 8.09864 8.4461 8.04379 8.3992 7.98893C8.39138 7.97326 8.36012 7.98109 8.34449 7.97326C8.0553 7.73815 7.81301 7.87138 7.58635 8.08297C7.56291 8.10648 7.53164 8.12216 7.49256 8.14567C7.36751 8.01244 7.23464 7.87921 7.09396 7.72248C7.17212 7.61276 7.27372 7.48737 7.35188 7.35415C7.38314 7.29929 7.39096 7.20525 7.36751 7.15039C7.30498 6.99366 7.25809 6.7899 7.13304 6.70369C7.00798 6.60965 6.79695 6.63316 6.60938 6.60182C6.60938 6.41373 6.60938 6.23349 6.60938 6.02973C6.75788 6.00622 6.91419 5.98271 7.07051 5.94353C7.13304 5.92785 7.18775 5.86516 7.22683 5.8103C7.46912 5.45764 7.37533 5.15985 7.06269 4.90123ZM8.89941 5.39495C8.3992 5.39495 7.99278 5.8103 8.00059 6.30402C8.00841 6.80557 8.40702 7.21309 8.90723 7.21309C9.40744 7.21309 9.83731 6.7899 9.82168 6.31186C9.80605 5.79463 9.39963 5.39495 8.89941 5.39495Z" fill="#51636B"></path><path d="M2.80409 8.85581C2.76765 8.95346 2.74089 9.0538 2.72378 9.15553C2.63606 9.67703 2.80196 10.2345 3.21991 10.6409C3.72154 11.1287 4.44696 11.2636 5.06371 11.0428L7.20517 13.1253C7.23648 13.1558 7.26985 13.1829 7.30489 13.2067C7.58878 13.4 7.97948 13.3762 8.2292 13.1335C8.50971 12.8609 8.50604 12.4151 8.221 12.1379L6.07552 10.0515C6.29619 9.45461 6.15611 8.75559 5.65791 8.27114C5.11861 7.74664 4.32057 7.6302 3.67708 7.92503L4.84528 9.06106C5.07331 9.28283 5.07626 9.63942 4.85183 9.85754C4.6274 10.0757 4.26063 10.0727 4.0326 9.85096L2.86438 8.71493C2.84197 8.76114 2.82187 8.80816 2.80409 8.85581Z" fill="#00B39F"></path></svg>