<?xml version="1.0" encoding="UTF-8"?>
<svg id="Layer_1" xmlns="http://www.w3.org/2000/svg" viewBox="0 0 700 700">
  <defs>
    <style>
      .cls-1 {
        fill: #00b39f;
      }

      .cls-2 {
        fill: #00d3a9;
      }

      .cls-3 {
        fill: #00d3a9;
      }

      .cls-4 {
        fill: #fff;
      }
    </style>
  </defs>
  <g>
    <path class="cls-4" d="M359.07,657.62h-14.16v-50.46c0-.56-.09-1.09-.27-1.59-.18-.5-.43-.93-.74-1.31s-.67-.67-1.09-.89c-.41-.22-.85-.33-1.32-.33h-56.43v-15.45h58.25c2.15,0,4.18.5,6.09,1.49,1.91,1,3.6,2.35,5.04,4.06,1.42,1.74,2.55,3.77,3.37,6.07.83,2.3,1.24,4.75,1.24,7.33v51.07ZM304.55,657.62h-14.16v-49.83h14.16v49.83Z"/>
    <path class="cls-4" d="M429.43,587.6l-28.51,70.02h-10.93l-28.51-70.02h14.46l19.51,48.41,19.51-48.41h14.46Z"/>
    <polygon class="cls-4" points="442.45 587.61 414.44 657.61 429.81 657.61 449.45 608 463.63 644.21 440.96 644.21 435.73 657.61 484.46 657.61 456.45 587.61 442.45 587.61"/>
    <path class="cls-4" d="M560.46,639.32c0,2.52-.42,4.89-1.25,7.1-.84,2.24-1.98,4.19-3.44,5.83-1.46,1.65-3.15,2.96-5.06,3.92-1.94.96-4.01,1.45-6.19,1.45h-54.41v-14.75h54.41c.86,0,1.59-.34,2.19-1.03s.89-1.52.89-2.52v-5.69c0-1-.3-1.84-.89-2.52s-1.32-1.03-2.19-1.03h-38.47c-2.18,0-4.24-.48-6.15-1.45-1.94-.96-3.65-2.29-5.1-3.97-1.46-1.68-2.6-3.64-3.44-5.88-.84-2.21-1.25-4.58-1.25-7.1v-5.69c0-2.52.42-4.9,1.25-7.14.84-2.21,1.98-4.15,3.44-5.84,1.46-1.68,3.16-3,5.1-3.97,1.92-.96,3.97-1.45,6.15-1.45h54.42v14.84h-54.42c-.86,0-1.59.34-2.18,1.03-.59.68-.89,1.52-.89,2.52v5.69c0,1,.3,1.84.89,2.52.59.68,1.32,1.03,2.18,1.03h38.47c2.19,0,4.25.48,6.19,1.45,1.92.96,3.6,2.29,5.06,3.97,1.46,1.68,2.6,3.63,3.44,5.84.84,2.24,1.25,4.62,1.25,7.14v5.69Z"/>
    <g>
      <polyline class="cls-4" points="210.22 587.6 190.55 587.6 153.36 618.82 153.36 587.64 139.54 587.64 139.54 657.62 153.36 657.62 153.36 637.42"/>
      <polygon class="cls-4" points="178.79 621.43 211 657.62 191.13 657.62 167.39 631.01 178.79 621.43"/>
    </g>
    <polygon class="cls-4" points="241.67 587.61 213.66 657.61 229.02 657.61 248.67 608 262.84 644.21 240.17 644.21 234.95 657.61 283.68 657.61 255.67 587.61 241.67 587.61"/>
  </g>
  <g>
    <polygon class="cls-3" points="362.54 42.38 362.54 253.13 545.2 147.38 362.54 42.38"/>
    <polygon class="cls-2" points="362.54 297.22 362.54 508.98 546.87 403.59 362.54 297.22"/>
    <polygon class="cls-1" points="336.24 251.68 336.24 44.16 155.82 147.58 336.24 251.68"/>
    <polygon class="cls-1" points="336.24 508 336.24 298.75 155.38 403.45 336.24 508"/>
    <polygon class="cls-1" points="559.39 380.45 559.39 169.55 376.95 275.18 559.39 380.45"/>
    <polygon class="cls-3" points="140.61 169.16 140.61 381.62 324.4 275.21 140.61 169.16"/>
  </g>
</svg>