<svg xmlns="http://www.w3.org/2000/svg" xmlns:xlink="http://www.w3.org/1999/xlink" id="Layer_1" x="0" y="0" version="1.1" viewBox="0 0 144 144" xml:space="preserve" style="enable-background:new 0 0 144 144"><style type="text/css">.st0{display:none}.st1{display:inline;fill:red}.st2{fill:#fff}</style><g id="Layer_2_1_" class="st0"><rect width="420" height="321" x="-135" y="-102" class="st1"/></g><g id="Layer_1_1_"><g><path d="M126.7,61.1c-1.3,0-2.3,1-2.3,2.3s1,2.3,2.3,2.3s2.3-1,2.3-2.3S127.9,61.1,126.7,61.1z M127.5,64.9 L127.5,64.9l-0.8-1.3H126v1.3h-0.5v-3.1h1.4c0.4,0,1,0.1,1,0.9c0,0.3-0.1,0.7-0.7,0.9l0.8,1.3C128,64.9,127.5,64.9,127.5,64.9z" class="st2"/><path d="M79.2,65.9h-0.9v5.4h0.8c1.2,0,2.1-0.2,2.7-0.6c0.5-0.4,0.8-1,0.8-1.9c0-1-0.2-1.7-0.7-2.2 C81.3,66.1,80.4,65.9,79.2,65.9z" class="st2"/><path d="M127.5,62.8c0-0.3-0.2-0.5-0.6-0.5h-0.8v0.9h0.8C127.3,63.2,127.5,63.1,127.5,62.8z" class="st2"/><path d="M72,0C32.2,0,0,32.2,0,72s32.2,72,72,72s72-32.2,72-72S111.8,0,72,0z M92.7,60.7h6.2v22.6h-6.2V60.7z M39.4,79.9c-2.2,2.4-4.9,3.3-5.9,3.5c-0.9,0.2-2,0.4-3.4,0.4c-3.3,0-6.1-1.1-8.3-3.3c-2.2-2.2-3.3-5-3.3-8.4s1.1-6.2,3.3-8.4 c2.2-2.2,5-3.4,8.3-3.4c1.3,0,2.4,0.1,3.4,0.4c2,0.5,4,1.5,5.8,3.1l0.2,0.1l-3.4,5.2l-0.2-0.3c-0.6-0.9-1.3-1.4-2.3-1.9 c-0.9-0.4-1.8-0.6-2.8-0.6c-1.7,0-3.1,0.5-4.1,1.6s-1.6,2.5-1.6,4.3c0,1.6,0.5,3,1.6,4s2.4,1.6,4.1,1.6c0.9,0,1.9-0.2,2.8-0.6 c0.8-0.4,1.6-1,2.3-1.9l0.2-0.3l3.5,4.8L39.4,79.9z M48.6,83.3h-6.2V60.7h6.2V83.3z M45.5,59c-2.1,0-3.9-1.7-3.9-3.9 c0-2.1,1.7-3.9,3.9-3.9c2.1,0,3.9,1.7,3.9,3.9C49.3,57.3,47.6,59,45.5,59z M69.3,66.3h-5.9v17.1h-6.3V66.3h-5.9v-5.6h18.1V66.3z M83,83.3l-4.7-8v8H72V60.7h7c3.6,0,6.2,0.6,7.7,1.7c1.5,1.2,2.3,3,2.3,5.5c0,1.7-0.4,3.2-1.3,4.3c-0.8,1-2,1.8-3.5,2.1l6.1,8.9 L83,83.3L83,83.3z M95.8,92.7c-2.1,0-3.9-1.7-3.9-3.9c0-2.1,1.7-3.9,3.9-3.9s3.9,1.7,3.9,3.9C99.7,90.9,98,92.7,95.8,92.7z M116.7,83.3l-4.7-7.2l-4.7,7.2h-7.2l8-12l-7.2-10.7h7.2l3.9,5.9l3.9-5.9h7.2l-7.2,10.7l8,12C123.9,83.3,116.7,83.3,116.7,83.3z M126.7,66.2c-1.5,0-2.8-1.2-2.8-2.8c0-1.5,1.2-2.8,2.8-2.8c1.5,0,2.8,1.2,2.8,2.8C129.4,64.9,128.2,66.2,126.7,66.2z" class="st2"/></g></g></svg>