<svg xmlns="http://www.w3.org/2000/svg" xmlns:xlink="http://www.w3.org/1999/xlink" id="Layer_1" x="0" y="0" version="1.1" viewBox="0 0 113.5 113.1" xml:space="preserve" style="enable-background:new 0 0 113.5 113.1"><style type="text/css">.st0{fill:#ccc}</style><title>VertAsset 1</title><g id="Layer_2_1_"><g id="Logo"><polygon points="51.1 0 22.7 16.4 22.7 16.4 22.7 55.6 33.4 61.8 33.4 22.5 51.1 12.3" class="st0"/><polygon points="62.4 0 62.4 31.3 51.1 31.3 51.1 19.6 40.4 25.8 40.4 65.8 51.1 72 51.1 40.8 62.4 40.8 62.4 52.4 73 46.2 73 6.2" class="st0"/><polygon points="62.4 72 90.7 55.7 90.7 55.6 90.7 16.4 80.1 10.2 80.1 49.5 62.4 59.7" class="st0"/><path d="M11.1,106.8v-8.3H3.7v8.3H0V87h3.7v8.1H11V87h3.7v19.8H11.1z" class="st0"/><path d="M28.5,106.8h-3l-0.3-1c-1.3,0.8-2.7,1.3-4.2,1.3c-2.6,0-3.8-1.8-3.8-4.3c0-2.9,1.3-4.1,4.2-4.1h3.5v-1.5 c0-1.6-0.5-2.2-2.8-2.2c-1.3,0-2.7,0.2-4,0.4l-0.5-2.8c1.6-0.4,3.3-0.7,5-0.7c4.5,0,5.9,1.6,5.9,5.2L28.5,106.8z M24.9,101.3h-2.7 c-1.2,0-1.5,0.3-1.5,1.4s0.3,1.5,1.5,1.5c1,0,1.9-0.3,2.7-0.7V101.3z" class="st0"/><path d="M35.5,107.1c-1.7,0-3.4-0.3-5-0.8l0.5-2.8c1.4,0.4,2.9,0.6,4.3,0.6c1.6,0,1.8-0.4,1.8-1.5 c0-0.9-0.2-1.3-2.5-1.9c-3.5-0.9-4-1.8-4-4.5S32,92,36.1,92c1.5,0,2.9,0.2,4.3,0.5L40,95.4c-1.3-0.2-2.7-0.4-4-0.4 c-1.6,0-1.8,0.4-1.8,1.2c0,1.2,0.1,1.2,2,1.8c4,1.1,4.4,1.6,4.4,4.6C40.8,105.3,39.9,107.1,35.5,107.1z" class="st0"/><path d="M51.5,106.8V96.7c0-0.8-0.3-1.2-1.2-1.2c-1.3,0.2-2.6,0.6-3.8,1.2v10H43V86.4l3.6-0.5v7.5 c1.6-0.8,3.4-1.3,5.3-1.4c2.4,0,3.3,1.7,3.3,4.3v10.5H51.5z" class="st0"/><path d="M57.8,90.2V86h3.6v4.2H57.8z M57.8,106.8V92.3h3.6v14.5H57.8z" class="st0"/><path d="M64,92.4c0-3.6,2.1-5.7,7-5.7c1.8,0,3.6,0.2,5.4,0.7L76,90.6c-1.6-0.3-3.2-0.5-4.8-0.5c-2.6,0-3.4,0.9-3.4,3 v7.6c0,2.1,0.8,3,3.4,3c1.6,0,3.2-0.2,4.8-0.5l0.4,3.2c-1.8,0.4-3.6,0.7-5.4,0.7c-4.9,0-7-2.1-7-5.7V92.4z" class="st0"/><path d="M83.8,107.1c-5,0-6.3-2.7-6.3-5.7v-3.7c0-3,1.3-5.7,6.3-5.7s6.3,2.7,6.3,5.7v3.7 C90.1,104.3,88.8,107.1,83.8,107.1z M83.8,95.1c-1.9,0-2.7,0.9-2.7,2.5v3.9c0,1.6,0.7,2.5,2.7,2.5s2.7-0.9,2.7-2.5v-3.8 C86.5,96,85.7,95.1,83.8,95.1L83.8,95.1z" class="st0"/><path d="M99.7,95.3c-1.3,0.6-2.6,1.3-3.8,2.1v9.3h-3.6V92.3h3.1l0.2,1.6c1.2-0.8,2.5-1.4,3.8-1.9L99.7,95.3z" class="st0"/><path d="M113.5,102c0,3.2-1.4,5.1-4.8,5.1c-1.3,0-2.6-0.2-3.9-0.4v6l-3.6,0.5V92.3h2.9l0.4,1.2c1.3-1,2.9-1.5,4.6-1.5 c2.9,0,4.4,1.7,4.4,5V102z M104.8,103.6c1,0.2,2.1,0.4,3.2,0.4c1.3,0,1.8-0.6,1.8-1.9V97c0-1.2-0.4-1.8-1.8-1.8 c-1.2,0-2.3,0.5-3.2,1.3V103.6z" class="st0"/></g></g></svg>