<svg xmlns="http://www.w3.org/2000/svg" viewBox="0 0 415.36 97.08"><title>PAsset 1</title><g id="Layer_2" data-name="Layer 2"><g id="Logo"><path d="M141.28,75.33V53H121.64V75.33h-10V22.38h10V44.16h19.64V22.38h10V75.33Z"/><path d="M187.94,75.33H180l-.72-2.62a21.17,21.17,0,0,1-11.53,3.42c-7.08,0-10.1-4.85-10.1-11.53,0-7.87,3.42-10.89,11.29-10.89h9.3V49.65c0-4.29-1.19-5.8-7.39-5.8A54.14,54.14,0,0,0,160.12,45l-1.19-7.39a50.51,50.51,0,0,1,13.28-1.83c12.16,0,15.74,4.29,15.74,14Zm-9.7-14.63h-7.15c-3.18,0-4.05.87-4.05,3.82,0,2.7.87,3.9,3.9,3.9a15.26,15.26,0,0,0,7.31-2Z"/><path d="M206.71,76.12a45.63,45.63,0,0,1-13.36-2.23l1.35-7.39a43.34,43.34,0,0,0,11.53,1.67c4.29,0,4.93-1,4.93-3.9,0-2.38-.48-3.58-6.76-5.09-9.46-2.31-10.57-4.69-10.57-12.16,0-7.79,3.42-11.21,14.47-11.21a51,51,0,0,1,11.61,1.35l-1,7.71a68.16,68.16,0,0,0-10.65-1.11c-4.21,0-4.93,1-4.93,3.34,0,3.1.24,3.34,5.49,4.69C219.66,54.66,220.7,56.09,220.7,64,220.7,71.51,218.39,76.12,206.71,76.12Z"/><path d="M249.56,75.33v-27c0-2.07-.87-3.1-3.1-3.1-2.38,0-6.6,1.43-10.1,3.26V75.33h-9.7V20.79l9.7-1.35V39.55a34.17,34.17,0,0,1,14.15-3.74c6.44,0,8.74,4.53,8.74,11.45V75.33Z"/><path d="M266.41,31.13V19.92h9.7V31.13Zm0,44.2V36.61h9.7V75.33Z"/><path d="M282.87,36.93c0-9.7,5.64-15.34,18.84-15.34a59.93,59.93,0,0,1,14.39,1.75L315,32a78.08,78.08,0,0,0-13-1.35c-6.92,0-9.14,2.39-9.14,8V59c0,5.64,2.23,8,9.14,8a78.08,78.08,0,0,0,13-1.35l1.11,8.67a59.93,59.93,0,0,1-14.39,1.75c-13.2,0-18.84-5.64-18.84-15.34Z"/><path d="M336,76.12c-13.28,0-16.85-7.31-16.85-15.26V51.08c0-7.95,3.58-15.26,16.85-15.26s16.85,7.31,16.85,15.26v9.78C352.82,68.81,349.25,76.12,336,76.12Zm0-32c-5.17,0-7.15,2.31-7.15,6.68V61.18c0,4.37,2,6.68,7.15,6.68s7.15-2.31,7.15-6.68V50.76C343.13,46.39,341.14,44.08,336,44.08Z"/><path d="M378.58,44.72a75.92,75.92,0,0,0-10.26,5.64v25h-9.7V36.61h8.19l.64,4.29a43.38,43.38,0,0,1,10.18-5.09Z"/><path d="M415.36,62.45c0,8.59-3.82,13.67-12.8,13.67A53.48,53.48,0,0,1,392.22,75V91l-9.7,1.35V36.61h7.71l1,3.26a20.38,20.38,0,0,1,12.24-4.05c7.79,0,11.92,4.61,11.92,13.44Zm-23.13,4.37a43,43,0,0,0,8.59,1c3.5,0,4.85-1.67,4.85-5.17V49c0-3.18-1.19-4.93-4.77-4.93a13.72,13.72,0,0,0-8.67,3.5Z"/><polygon points="38.22 0 0 22.05 0 22.06 0 75 14.36 83.29 14.36 30.34 38.22 16.56 38.22 0"/><polygon points="53.47 0 53.47 42.17 38.22 42.17 38.22 26.43 23.86 34.72 23.86 88.75 38.22 97.06 38.22 55.01 53.47 55.01 53.47 70.64 67.83 62.36 67.83 8.29 53.47 0"/><polygon points="53.47 97.08 91.69 75.03 91.69 75.01 91.69 22.08 77.33 13.79 77.33 66.74 53.47 80.52 53.47 97.08"/></g></g></svg>