<?xml version="1.0" encoding="utf-8"?>
<!-- Generator: Adobe Illustrator 22.0.1, SVG Export Plug-In . SVG Version: 6.00 Build 0)  -->
<svg version="1.1" id="primary_logo_small" xmlns="http://www.w3.org/2000/svg" xmlns:xlink="http://www.w3.org/1999/xlink" x="0px"
	 y="0px" viewBox="0 0 177.7 69" style="enable-background:new 0 0 177.7 69;" xml:space="preserve">
<style type="text/css">
	.st0{fill:#CCCCCC;}
</style>
<path class="st0" d="M0,0v15.9l0,0h55.2V0H0z M51.8,12.4H3.5v-9h48.3V12.4z M10.1,48.8v1.9H2.2v4.8h7.1v1.9H2.2v5.3H10v1.9H0V48.8
	H10.1L10.1,48.8z M15.5,64.7h-2.2V53h2v2.2c0.8-1.5,2.2-2.4,3.9-2.4c2.7,0,4.3,1.8,4.3,4.4v7.5h-2.2v-7.4c0-1.5-0.8-2.5-2.6-2.5
	c-1.5,0-2.9,1-3.3,2.4v7.5H15.5z M32.4,65c-2.9,0-4.1-1.3-4.1-3.6V55h-2.5v-2h2.5v-3h2.2v3h3.3v1.9h-3.3v6.2c0,1.4,0.8,1.8,2.1,1.8
	c0.4,0,0.7,0,1-0.2h0.2v1.9C33.5,64.8,33,65,32.4,65z M41.9,65c-3.9,0-6.3-2.3-6.3-6s2.3-6.2,5.6-6.2c3.5,0,5.2,2.3,5.2,5.7v1.1
	h-8.6c0.3,2.3,1.9,3.4,4.1,3.4c1.4,0,2.4-0.2,3.4-1h0.2v1.9C44.6,64.7,43.2,65,41.9,65z M37.8,58h6.5c-0.1-2.1-1.2-3.3-3.1-3.3
	S38.1,56.1,37.8,58z M55.9,55.2c-0.3-0.1-0.8-0.3-1.2-0.3c-1.4,0-2.5,1-2.9,2.5v7.2h-2.2V53h2v2.5c0.7-1.9,1.9-2.7,3.3-2.7
	c0.5,0,1,0.1,1.1,0.2L55.9,55.2L55.9,55.2L55.9,55.2z M60.3,62.8V69h-2.2V53h2v2c0.7-1.2,2-2.3,3.8-2.3c3.5,0,5.4,2.8,5.4,6
	s-1.9,6.1-5.4,6.1C62.4,64.8,61.1,63.9,60.3,62.8z M67.2,58.7c0-2.4-1.3-3.9-3.7-3.9c-1.4,0-2.5,0.7-3.2,2v4c0.7,1.2,1.8,2,3.2,2
	C65.9,62.8,67.2,61.2,67.2,58.7z M79,55.2c-0.3-0.1-0.8-0.3-1.2-0.3c-1.4,0-2.5,1-2.9,2.5v7.2h-2.2V53h2v2.5
	c0.7-1.9,1.9-2.7,3.3-2.7c0.5,0,1,0.1,1.1,0.2v2.2H79L79,55.2z M82.7,51.9c-0.8,0-1.5-0.7-1.5-1.5s0.7-1.5,1.5-1.5s1.5,0.7,1.5,1.5
	S83.5,51.9,82.7,51.9z M83.7,64.7h-2.2V53h2.2V64.7z M87.2,61.9h0.2c1,0.8,2.4,1.2,3.7,1.2c1.3,0,2.4-0.5,2.4-1.5s-0.9-1.3-2.8-1.9
	c-1.6-0.6-3.5-1.1-3.5-3.4c0-2.3,1.9-3.6,4.3-3.6c1.4,0,2.6,0.3,3.6,1v2h-0.2c-0.9-0.7-2-1.1-3.4-1.1s-2.1,0.6-2.1,1.5
	c0,1,0.8,1.2,2.7,1.8c1.7,0.6,3.6,1.2,3.6,3.4c0,2.4-2,3.7-4.5,3.7c-1.5,0-3.1-0.4-4-1.1L87.2,61.9L87.2,61.9z M104.5,65
	c-3.9,0-6.3-2.3-6.3-6s2.3-6.2,5.6-6.2c3.5,0,5.2,2.3,5.2,5.7v1.1h-8.6c0.3,2.3,1.9,3.4,4.1,3.4c1.4,0,2.4-0.2,3.4-1h0.2v1.9
	C107.2,64.7,105.8,65,104.5,65z M100.4,58h6.5c-0.1-2.1-1.2-3.3-3.1-3.3C102,54.7,100.7,56.1,100.4,58z M13.3,26.2v15.9H9.9v-6.6
	H3.5v6.6H0V26.2h3.5v6.3h6.4v-6.3H13.3z M22.7,42.4c-4.4,0-6.7-2.4-6.7-6.2s2.4-6.3,6-6.3c3.8,0,5.7,2.4,5.7,6v1.3h-8.1
	c0.3,2,1.8,2.5,3.3,2.5c1.4,0,2.4-0.2,3.6-0.8h0.4v2.5C25.8,42.1,24.2,42.4,22.7,42.4z M19.5,35h4.7c-0.1-1.8-0.9-2.6-2.3-2.6
	C20.8,32.4,19.7,33,19.5,35z M31.7,42.1l-2.5-11.5v-0.4h3.2l1.3,7.3l0.3,2.3l0.5-2.3l1.6-7.3h3.6l1.6,7.3l0.5,2.3l0.4-2.3l1.3-7.3h3
	v0.4L44,42.1h-4.4l-1.4-6.4l-0.4-2.4l-0.4,2.4L36,42.1H31.7z M52.8,42.4c-2.5,0-3.8-1.2-3.8-3.9V26.2h3.5v12c0,0.8,0.4,1.1,1.2,1.1
	c0.3,0,0.7-0.1,0.9-0.2h0.1V42C54.2,42.2,53.4,42.4,52.8,42.4z M62.3,42.4c-4.4,0-6.7-2.4-6.7-6.2s2.4-6.3,6-6.3
	c3.8,0,5.7,2.4,5.7,6v1.3h-8.1c0.3,2,1.8,2.5,3.3,2.5c1.4,0,2.4-0.2,3.6-0.8h0.4v2.5C65.3,42.1,63.7,42.4,62.3,42.4z M59.1,35h4.7
	c-0.1-1.8-0.9-2.6-2.3-2.6C60.4,32.4,59.3,33,59.1,35z M78.9,37.7V33h-5.1v4.6c0,1.2,0.4,1.8,1.5,1.8c0.3,0,0.8-0.1,1-0.2h0.3V42
	c-0.5,0.2-1.1,0.4-2.2,0.4c-2.9,0-4.2-1.4-4.2-4.6V33h-2.1v-2.8h2.1v-2.9h3.5v2.9h5.1v-2.9h3.5v2.9h2.9V33h-2.9v4.6
	c0,1.2,0.4,1.8,1.5,1.8c0.3,0,0.8-0.1,1-0.2h0.3V42c-0.5,0.2-1.1,0.4-2.2,0.4C80.2,42.4,78.9,41,78.9,37.7z M95.4,37.2v4.9H92V26.2
	h6.2c3.5,0,5.8,1.9,5.8,5.5c0,3.5-2.3,5.5-5.8,5.5H95.4L95.4,37.2z M97.9,29.1h-2.5v5.1h2.5c1.7,0,2.6-1,2.6-2.5
	C100.4,30.2,99.6,29.1,97.9,29.1z M112.7,40.3c-0.7,1.3-2,1.9-3.6,1.9c-2.2,0-4-1.3-4-3.6c0-2.4,1.6-3.7,4.6-3.7c1,0,2,0.1,2.9,0.3
	v-0.7c0-1.3-0.9-1.8-2.7-1.8c-1.3,0-2.4,0.3-3.3,0.7h-0.4v-2.6c0.9-0.5,2.5-0.9,4.1-0.9c3.7,0,5.7,1.7,5.7,4.6v7.6h-3.3L112.7,40.3
	L112.7,40.3z M112.6,38.3v-1.5c-0.6-0.2-1.3-0.2-2-0.2c-1.4,0-2.1,0.5-2.1,1.6s0.7,1.5,1.8,1.5C111.4,39.7,112.3,39.2,112.6,38.3z
	 M118.6,36.1c0-3.9,2.7-6.3,6.2-6.3c1.4,0,2.6,0.3,3.3,0.8v3h-0.4c-0.7-0.6-1.5-0.8-2.6-0.8c-1.7,0-3.1,1.2-3.1,3.2s1.4,3.2,3.1,3.2
	c1,0,1.9-0.3,2.6-0.8h0.4v3c-0.8,0.5-1.9,0.8-3.3,0.8C121.3,42.4,118.6,40,118.6,36.1z M134.2,36.3v5.8h-3.5V26.2h3.5v9L135,34
	l3.2-3.9h3.7v0.4l-4.4,5l4.4,6.1V42H138l-2.9-4.4L134.2,36.3z M150.3,40.3c-0.7,1.3-2,1.9-3.6,1.9c-2.2,0-4-1.3-4-3.6
	c0-2.4,1.6-3.7,4.6-3.7c1,0,2,0.1,2.9,0.3v-0.7c0-1.3-0.9-1.8-2.7-1.8c-1.3,0-2.4,0.3-3.3,0.7h-0.4v-2.6c0.9-0.5,2.5-0.9,4.1-0.9
	c3.7,0,5.7,1.7,5.7,4.6v7.6h-3.3V40.3L150.3,40.3z M150.2,38.3v-1.5c-0.6-0.2-1.3-0.2-2-0.2c-1.4,0-2.1,0.5-2.1,1.6s0.7,1.5,1.8,1.5
	S149.9,39.2,150.2,38.3z M160.1,32.6c0.6-1.8,2-2.5,3.4-2.5c0.5,0,0.8,0.1,1,0.2v3.3h-0.4c-0.4-0.2-0.7-0.3-1.2-0.3
	c-1.4,0-2.4,0.6-2.6,2v6.9h-3.5V30.1h3.3V32.6L160.1,32.6z M174.4,40.4c-0.8,1.2-2,2-3.6,2c-3.2,0-5.3-2.6-5.3-6.2
	c0-3.6,2-6.3,5.3-6.3c1.4,0,2.6,0.6,3.4,1.7v-5.4h3.5v15.9h-3.3L174.4,40.4L174.4,40.4z M174.2,38.2V34c-0.6-0.9-1.5-1.3-2.5-1.3
	c-1.6,0-2.6,1.2-2.6,3.5c0,2.2,1.1,3.4,2.6,3.4C172.7,39.5,173.6,39.1,174.2,38.2z"/>
</svg>
