<svg xmlns="http://www.w3.org/2000/svg" xmlns:xlink="http://www.w3.org/1999/xlink" id="Layer_1" x="0" y="0" version="1.1" viewBox="0 0 196.5 142.9" xml:space="preserve" style="enable-background:new 0 0 196.5 142.9"><style type="text/css">.st0{fill:#ccc}</style><path d="M118.2,51.9c7.8,0,19.1-1.6,19.1-10.9c0-0.7,0-1.4-0.2-2.1l-4.7-20.2c-1.1-4.4-2-6.5-9.8-10.4	C116.5,5.1,103.3,0,99.4,0c-3.6,0-4.7,4.7-9,4.7c-4.2,0-7.3-3.5-11.2-3.5c-3.8,0-6.2,2.6-8.1,7.8c0,0-5.3,14.8-5.9,17	c-0.1,0.4-0.2,0.8-0.1,1.2C65.1,33,87.8,51.8,118.2,51.9 M138.5,44.7c1.1,5.1,1.1,5.7,1.1,6.3c0,8.8-9.8,13.6-22.8,13.6	C87.6,64.6,62,47.5,62,36.2c0-1.6,0.3-3.1,0.9-4.6c-10.5,0.6-24.1,2.5-24.1,14.5c0,19.7,46.6,43.9,83.5,43.9	c28.3,0,35.4-12.8,35.4-22.9C157.8,59.1,150.9,50.1,138.5,44.7" class="st0"/><g><path d="M180,133.8c0,6,3.7,9,10.3,9c2-0.1,4.1-0.3,6-0.9v-7c-1.3,0.4-2.6,0.6-3.9,0.6c-2.8,0-3.7-0.9-3.7-3.4v-10.7 h7.9v-7.2h-7.9V105l-8.6,1.9v7.2h-5.7v7.2h5.7V133.8L180,133.8z" class="st0"/><path d="M159.7,113.6c-4.3,0-8.6,1-13.2,3.1l3.1,6.3c3.3-1.4,6.1-2.3,8.5-2.3c3.6,0,5.4,1.4,5.4,4.2v1.4 c-2.1-0.6-4.2-0.8-6.4-0.8c-7.2,0-11.6,3.1-11.6,8.5c-0.1,5,3.9,8.8,10.3,8.8c3.1,0,5.5-0.7,7.8-2.2v1.7h8.5v-18.2 C172.1,117.3,167.4,113.6,159.7,113.6z M162.9,135.5c-1.6,0.9-3.5,1.4-5.4,1.3c-2.8,0-4.5-1.1-4.5-2.8c0-1.9,1.9-2.8,4.7-2.8 c1.7,0,3.4,0.2,5.1,0.7V135.5z" class="st0"/><polygon points="108.7 142.4 117.9 142.4 117.9 127.8 133.2 127.8 133.2 142.4 142.4 142.4 142.4 105 133.2 105 133.2 119.4 117.9 119.4 117.9 105 108.7 105 108.7 142.4" class="st0"/><path d="M87.1,105v10.7c-2.2-1.2-4.7-1.9-7.2-1.9c-8.2,0-14.7,6.3-14.7,14.5v0.2c0,7.9,6.5,14.4,14.4,14.4h0.1 c2.8,0,5.4-0.8,7.6-2.4v2h8.5v-39.3L87.1,105z M87,133.2c-1.6,1.5-3.7,2.4-6,2.3c-4.2-0.1-7.4-3.2-7.4-7.2c0-4.1,3.2-7.2,7.4-7.2 c2.2-0.1,4.3,0.7,6,2.2V133.2z" class="st0"/><path d="M62.3,129.1c0-9-6-15.5-14.2-15.5h-0.2c-8,0-14.6,6.6-14.6,14.6v0.1c0,8.2,6.8,14.7,15.4,14.7 c4.8,0,8.2-1.3,11.8-4.3l-5.7-5c-1.3,1.4-3.3,2.1-5.7,2.1c-3,0.1-5.8-1.7-6.9-4.5h20.2V129.1z M42,125.2c0.8-2.8,3-4.5,5.9-4.5 c2.8,0,5,1.8,5.9,4.5H42z" class="st0"/><path d="M25.4,127.4c4.3-1.7,7.1-5.9,7.1-10.5c0-6.8-5.3-12-13.2-12H0.1L0,142.4h9.2v-13.7h7l7.1,13.7h10.3L25.4,127.4 z M18.3,121.3H9.2v-8.5h9.1c3.1,0,4.8,2,4.8,4.2C23.1,119.3,21.4,121.3,18.3,121.3z" class="st0"/></g></svg>