<svg width="209" height="209" viewBox="0 0 209 209" fill="none" xmlns="http://www.w3.org/2000/svg">
<g filter="url(#filter0_dddd_16389_39462)">
<path d="M105.857 196.703C105.076 197.484 103.81 197.484 103.029 196.703L12.3007 105.975C11.5196 105.194 11.5196 103.927 12.3007 103.146L103.029 12.4179C103.81 11.6368 105.076 11.6368 105.857 12.4179L196.586 103.146C197.367 103.927 197.367 105.194 196.586 105.975L105.857 196.703Z" fill="url(#paint0_linear_16389_39462)" shape-rendering="crispEdges"/>
<path d="M100.908 198.824L103.018 196.714L100.908 198.824C102.86 200.777 106.026 200.777 107.979 198.824L105.863 196.708L107.979 198.824L198.707 108.096L196.602 105.991L198.707 108.096C200.66 106.143 200.66 102.978 198.707 101.025L196.591 103.141L198.707 101.025L107.979 10.2965C106.026 8.34392 102.86 8.34392 100.908 10.2965L10.1794 101.025C8.22673 102.978 8.22673 106.143 10.1794 108.096L100.908 198.824Z" stroke="#F6F8F8" stroke-width="6" shape-rendering="crispEdges"/>
</g>
<g filter="url(#filter1_di_16389_39462)">
<path d="M105.857 185.859C105.076 186.64 103.81 186.64 103.029 185.859L23.1478 105.978C22.3668 105.197 22.3668 103.931 23.1478 103.15L103.029 23.2684C103.81 22.4874 105.076 22.4874 105.857 23.2684L185.739 103.15C186.52 103.931 186.52 105.197 185.739 105.978L105.857 185.859Z" fill="#252E31"/>
</g>
<path d="M104.079 23.4142C104.86 22.6332 106.126 22.6332 106.907 23.4142L186.572 103.079C187.353 103.86 187.353 105.126 186.572 105.907L106.907 185.572C106.126 186.353 104.86 186.353 104.079 185.572L24.4142 105.907C23.6332 105.126 23.6332 103.86 24.4142 103.079L104.079 23.4142Z" fill="url(#paint1_linear_16389_39462)"/>
<g clip-path="url(#clip0_16389_39462)">
<path d="M131.333 77.6641H76.6667C72.8742 77.6641 69.8334 80.7391 69.8334 84.4974V125.497C69.8334 129.256 72.8742 132.331 76.6667 132.331H131.333C135.092 132.331 138.167 129.256 138.167 125.497V84.4974C138.167 80.7391 135.126 77.6641 131.333 77.6641ZM131.333 125.497H76.6667V91.3307H131.333V125.497ZM124.5 122.081H104V115.247H124.5V122.081ZM88.625 122.081L83.8075 117.263L92.6225 108.414L83.7734 99.5649L88.625 94.7474L102.292 108.414L88.625 122.081Z" fill="white"/>
<g clip-path="url(#clip1_16389_39462)">
<path d="M139.238 113.897C138.993 113.139 138.402 112.523 137.664 112.146L122.669 105.236C122.274 105.047 121.833 105 121.437 105C121.042 105 120.601 105 120.209 105.094L105.211 112.052C104.472 112.382 103.933 112.998 103.734 113.803L100.049 129.371C99.9022 130.176 100.098 130.981 100.592 131.644L110.967 143.993C111.559 144.562 112.395 144.939 113.228 144.987H129.748C130.633 145.081 131.47 144.704 132.009 143.993L142.384 131.644C142.878 130.981 143.074 130.176 142.976 129.371L139.238 113.897Z" fill="#326DE6"/>
<path d="M136.95 128.387C136.901 128.387 136.852 128.387 136.852 128.339C136.852 128.292 136.754 128.292 136.656 128.292C136.46 128.245 136.264 128.245 136.064 128.245C135.966 128.245 135.868 128.245 135.77 128.198H135.721C135.179 128.151 134.591 128.057 134.049 127.915C133.902 127.868 133.755 127.727 133.706 127.585L133.314 127.491C133.51 126.117 133.412 124.699 133.118 123.325C132.775 121.951 132.183 120.628 131.396 119.446L131.69 119.163V119.116C131.69 118.974 131.739 118.786 131.837 118.691C132.278 118.314 132.722 118.028 133.212 117.745C133.31 117.698 133.408 117.651 133.506 117.604C133.702 117.509 133.849 117.415 134.049 117.321C134.098 117.274 134.147 117.274 134.196 117.226C134.245 117.179 134.196 117.179 134.196 117.132C134.636 116.802 134.738 116.233 134.392 115.809C134.245 115.62 133.951 115.479 133.702 115.479C133.457 115.479 133.209 115.573 133.013 115.714L132.964 115.762C132.915 115.809 132.866 115.856 132.817 115.856C132.67 115.997 132.523 116.139 132.425 116.28C132.376 116.374 132.278 116.422 132.229 116.469C131.886 116.846 131.442 117.226 131.001 117.509C130.903 117.556 130.805 117.604 130.707 117.604C130.658 117.604 130.56 117.604 130.511 117.556H130.462L130.07 117.792C129.678 117.415 129.233 117.034 128.842 116.657C127.022 115.283 124.761 114.435 122.448 114.196L122.399 113.818V113.866C122.252 113.771 122.203 113.63 122.154 113.488C122.154 112.966 122.154 112.448 122.252 111.879V111.832C122.252 111.737 122.301 111.643 122.301 111.549C122.35 111.36 122.35 111.172 122.399 110.98V110.69C122.448 110.215 122.056 109.744 121.563 109.697C121.269 109.649 120.972 109.791 120.727 110.027C120.531 110.215 120.433 110.451 120.433 110.69V110.926C120.433 111.114 120.482 111.303 120.531 111.495C120.58 111.589 120.58 111.683 120.58 111.778V111.825C120.678 112.347 120.678 112.865 120.678 113.435C120.629 113.576 120.58 113.717 120.433 113.812V113.906L120.384 114.283C119.841 114.33 119.302 114.425 118.711 114.519C116.401 114.994 114.284 116.176 112.664 117.833L112.37 117.644H112.321C112.272 117.644 112.223 117.691 112.125 117.691C112.027 117.691 111.929 117.644 111.831 117.597C111.39 117.267 110.946 116.886 110.603 116.509C110.554 116.415 110.456 116.368 110.407 116.321C110.26 116.179 110.162 116.038 110.015 115.896C109.966 115.849 109.917 115.849 109.868 115.802C109.819 115.755 109.819 115.755 109.819 115.755C109.623 115.613 109.378 115.519 109.13 115.519C108.836 115.519 108.587 115.613 108.44 115.849C108.146 116.273 108.244 116.843 108.636 117.173C108.685 117.173 108.685 117.22 108.685 117.22C108.685 117.22 108.783 117.314 108.832 117.314C108.979 117.408 109.175 117.503 109.375 117.597C109.473 117.644 109.571 117.691 109.669 117.738C110.162 118.021 110.652 118.307 111.044 118.685C111.142 118.779 111.24 118.967 111.191 119.109V119.062L111.485 119.345C111.436 119.439 111.387 119.486 111.338 119.58C109.812 121.901 109.175 124.645 109.616 127.343L109.224 127.437C109.224 127.484 109.175 127.484 109.175 127.484C109.126 127.625 108.979 127.72 108.832 127.814C108.29 127.955 107.751 128.05 107.16 128.097C107.062 128.097 106.964 128.097 106.866 128.144C106.67 128.144 106.474 128.191 106.274 128.191C106.225 128.191 106.176 128.238 106.078 128.238C106.029 128.238 106.029 128.238 105.98 128.286C105.438 128.38 105.095 128.855 105.193 129.373C105.291 129.798 105.735 130.084 106.176 130.037C106.274 130.037 106.323 130.037 106.421 129.99C106.47 129.99 106.47 129.99 106.47 129.942C106.47 129.895 106.617 129.942 106.666 129.942C106.862 129.895 107.058 129.801 107.209 129.754C107.307 129.707 107.405 129.659 107.503 129.659H107.552C108.094 129.471 108.584 129.329 109.175 129.235H109.224C109.371 129.235 109.518 129.282 109.616 129.377C109.665 129.377 109.665 129.424 109.665 129.424L110.106 129.377C110.844 131.552 112.22 133.495 114.137 134.913C114.578 135.243 114.974 135.529 115.464 135.765L115.219 136.095C115.219 136.142 115.268 136.142 115.268 136.142C115.366 136.284 115.366 136.472 115.317 136.617C115.121 137.092 114.823 137.563 114.529 137.991V138.038C114.48 138.132 114.431 138.179 114.333 138.274C114.235 138.368 114.137 138.557 113.99 138.749C113.941 138.796 113.941 138.843 113.892 138.89C113.892 138.89 113.892 138.937 113.843 138.937C113.598 139.412 113.794 139.978 114.235 140.213C114.333 140.261 114.48 140.308 114.578 140.308C114.97 140.308 115.317 140.072 115.513 139.739C115.513 139.739 115.513 139.691 115.562 139.691C115.562 139.644 115.611 139.597 115.659 139.55C115.708 139.361 115.806 139.22 115.855 139.028L115.953 138.745C116.1 138.223 116.345 137.752 116.594 137.277C116.692 137.135 116.839 137.041 116.986 136.994C117.035 136.994 117.035 136.994 117.035 136.947L117.231 136.57C118.606 137.092 120.034 137.327 121.507 137.327C122.392 137.327 123.278 137.233 124.163 136.997C124.705 136.903 125.244 136.715 125.738 136.573L125.934 136.903C125.983 136.903 125.983 136.903 125.983 136.95C126.13 136.997 126.277 137.092 126.375 137.233C126.619 137.708 126.868 138.179 127.015 138.701V138.749L127.113 139.031C127.162 139.22 127.211 139.409 127.309 139.553C127.358 139.601 127.358 139.648 127.407 139.695C127.407 139.695 127.407 139.742 127.456 139.742C127.652 140.072 127.998 140.311 128.39 140.311C128.537 140.311 128.635 140.264 128.782 140.217C128.978 140.123 129.174 139.934 129.223 139.695C129.272 139.459 129.272 139.22 129.174 138.984C129.174 138.937 129.125 138.937 129.125 138.937C129.125 138.89 129.076 138.843 129.027 138.796C128.929 138.607 128.831 138.466 128.684 138.321C128.635 138.227 128.586 138.179 128.488 138.085V137.991C128.145 137.567 127.897 137.092 127.701 136.617C127.652 136.475 127.652 136.287 127.75 136.142C127.75 136.095 127.799 136.095 127.799 136.095L127.652 135.718C130.161 134.249 132.078 131.98 132.964 129.282L133.356 129.329C133.405 129.329 133.405 129.282 133.405 129.282C133.503 129.188 133.65 129.141 133.797 129.141H133.846C134.388 129.235 134.927 129.377 135.42 129.565H135.469C135.567 129.612 135.665 129.659 135.763 129.659C135.959 129.754 136.106 129.848 136.306 129.895C136.355 129.895 136.404 129.942 136.502 129.942C136.551 129.942 136.551 129.942 136.6 129.99C136.698 130.037 136.747 130.037 136.845 130.037C137.285 130.037 137.681 129.754 137.828 129.373C137.786 128.861 137.39 128.481 136.95 128.387ZM122.739 126.918L121.412 127.535L120.086 126.918L119.743 125.544L120.678 124.409H122.154L123.089 125.544L122.739 126.918ZM130.752 123.844C130.997 124.837 131.046 125.831 130.948 126.824L126.277 125.548C125.836 125.453 125.587 125.026 125.685 124.601C125.734 124.46 125.783 124.366 125.881 124.271L129.569 121.052C130.112 121.904 130.507 122.85 130.752 123.844ZM128.096 119.301L124.065 122.045C123.722 122.234 123.229 122.187 122.984 121.857C122.886 121.763 122.837 121.668 122.837 121.527L122.543 116.748C124.705 116.984 126.623 117.883 128.096 119.301ZM119.197 116.886L120.181 116.698L119.936 121.429C119.936 121.853 119.544 122.187 119.099 122.187C118.952 122.187 118.854 122.14 118.707 122.093L114.627 119.301C115.901 118.119 117.476 117.267 119.197 116.886ZM113.199 121.052L116.839 124.174C117.182 124.457 117.231 124.931 116.937 125.261C116.839 125.403 116.741 125.45 116.545 125.497L111.775 126.821C111.625 124.837 112.115 122.803 113.199 121.052ZM112.363 129.05L117.231 128.245C117.623 128.245 118.018 128.481 118.067 128.861C118.116 129.003 118.116 129.191 118.018 129.336L116.149 133.69C114.428 132.599 113.049 130.943 112.363 129.05ZM123.526 134.916C122.837 135.058 122.151 135.152 121.412 135.152C120.38 135.152 119.299 134.963 118.316 134.677L120.727 130.464C120.972 130.181 121.367 130.087 121.71 130.276C121.857 130.37 121.955 130.464 122.102 130.606L124.464 134.724C124.163 134.775 123.869 134.822 123.526 134.916ZM129.524 130.801C128.786 131.936 127.753 132.929 126.574 133.64L124.656 129.191C124.558 128.814 124.754 128.434 125.097 128.292C125.244 128.245 125.391 128.198 125.538 128.198L130.455 129.003C130.213 129.663 129.916 130.279 129.524 130.801Z" fill="white"/>
</g>
</g>
<defs>
<filter id="filter0_dddd_16389_39462" x="0.714844" y="0.835938" width="207.457" height="207.453" filterUnits="userSpaceOnUse" color-interpolation-filters="sRGB">
<feFlood flood-opacity="0" result="BackgroundImageFix"/>
<feColorMatrix in="SourceAlpha" type="matrix" values="0 0 0 0 0 0 0 0 0 0 0 0 0 0 0 0 0 0 127 0" result="hardAlpha"/>
<feOffset dy="1"/>
<feGaussianBlur stdDeviation="2"/>
<feComposite in2="hardAlpha" operator="out"/>
<feColorMatrix type="matrix" values="0 0 0 0 0 0 0 0 0 0 0 0 0 0 0 0 0 0 0.25 0"/>
<feBlend mode="normal" in2="BackgroundImageFix" result="effect1_dropShadow_16389_39462"/>
<feColorMatrix in="SourceAlpha" type="matrix" values="0 0 0 0 0 0 0 0 0 0 0 0 0 0 0 0 0 0 127 0" result="hardAlpha"/>
<feOffset dy="-1"/>
<feGaussianBlur stdDeviation="2"/>
<feComposite in2="hardAlpha" operator="out"/>
<feColorMatrix type="matrix" values="0 0 0 0 0 0 0 0 0 0 0 0 0 0 0 0 0 0 0.25 0"/>
<feBlend mode="normal" in2="effect1_dropShadow_16389_39462" result="effect2_dropShadow_16389_39462"/>
<feColorMatrix in="SourceAlpha" type="matrix" values="0 0 0 0 0 0 0 0 0 0 0 0 0 0 0 0 0 0 127 0" result="hardAlpha"/>
<feOffset dx="-1"/>
<feGaussianBlur stdDeviation="2"/>
<feComposite in2="hardAlpha" operator="out"/>
<feColorMatrix type="matrix" values="0 0 0 0 0 0 0 0 0 0 0 0 0 0 0 0 0 0 0.25 0"/>
<feBlend mode="normal" in2="effect2_dropShadow_16389_39462" result="effect3_dropShadow_16389_39462"/>
<feColorMatrix in="SourceAlpha" type="matrix" values="0 0 0 0 0 0 0 0 0 0 0 0 0 0 0 0 0 0 127 0" result="hardAlpha"/>
<feOffset dx="1"/>
<feGaussianBlur stdDeviation="2"/>
<feComposite in2="hardAlpha" operator="out"/>
<feColorMatrix type="matrix" values="0 0 0 0 0 0 0 0 0 0 0 0 0 0 0 0 0 0 0.25 0"/>
<feBlend mode="normal" in2="effect3_dropShadow_16389_39462" result="effect4_dropShadow_16389_39462"/>
<feBlend mode="normal" in="SourceGraphic" in2="effect4_dropShadow_16389_39462" result="shape"/>
</filter>
<filter id="filter1_di_16389_39462" x="18.562" y="16.6797" width="171.762" height="171.766" filterUnits="userSpaceOnUse" color-interpolation-filters="sRGB">
<feFlood flood-opacity="0" result="BackgroundImageFix"/>
<feColorMatrix in="SourceAlpha" type="matrix" values="0 0 0 0 0 0 0 0 0 0 0 0 0 0 0 0 0 0 127 0" result="hardAlpha"/>
<feOffset dy="-2"/>
<feGaussianBlur stdDeviation="2"/>
<feComposite in2="hardAlpha" operator="out"/>
<feColorMatrix type="matrix" values="0 0 0 0 0 0 0 0 0 0 0 0 0 0 0 0 0 0 0.25 0"/>
<feBlend mode="normal" in2="BackgroundImageFix" result="effect1_dropShadow_16389_39462"/>
<feBlend mode="normal" in="SourceGraphic" in2="effect1_dropShadow_16389_39462" result="shape"/>
<feColorMatrix in="SourceAlpha" type="matrix" values="0 0 0 0 0 0 0 0 0 0 0 0 0 0 0 0 0 0 127 0" result="hardAlpha"/>
<feOffset dy="2"/>
<feGaussianBlur stdDeviation="2"/>
<feComposite in2="hardAlpha" operator="arithmetic" k2="-1" k3="1"/>
<feColorMatrix type="matrix" values="0 0 0 0 0 0 0 0 0 0 0 0 0 0 0 0 0 0 0.25 0"/>
<feBlend mode="normal" in2="shape" result="effect2_innerShadow_16389_39462"/>
</filter>
<linearGradient id="paint0_linear_16389_39462" x1="104.443" y1="198.117" x2="104.443" y2="11.0036" gradientUnits="userSpaceOnUse">
<stop stop-color="#00D3A9" stop-opacity="0.6"/>
<stop offset="1" stop-color="#00B39F"/>
</linearGradient>
<linearGradient id="paint1_linear_16389_39462" x1="164.133" y1="13.5519" x2="54.8046" y2="186.986" gradientUnits="userSpaceOnUse">
<stop stop-color="white" stop-opacity="0.17"/>
<stop offset="0.486111" stop-color="#252E31" stop-opacity="0.16"/>
<stop offset="1" stop-color="#252E31"/>
</linearGradient>
<clipPath id="clip0_16389_39462">
<rect width="82" height="82" fill="white" transform="translate(63 64)"/>
</clipPath>
<clipPath id="clip1_16389_39462">
<rect width="43" height="40" fill="white" transform="translate(100 105)"/>
</clipPath>
</defs>
</svg>
