<svg xmlns="http://www.w3.org/2000/svg" id="Layer_1_copy" width="16.59cm" height="4.54cm" data-name="Layer 1 copy" viewBox="0 0 470.17 128.71"><defs><style>.cls-1,.cls-10,.cls-11,.cls-12,.cls-13,.cls-14,.cls-15,.cls-16,.cls-17,.cls-18,.cls-19,.cls-2,.cls-3,.cls-4,.cls-5,.cls-6,.cls-7,.cls-8,.cls-9{fill:none;stroke-miterlimit:10}.cls-1,.cls-18{stroke:#57bd83}.cls-1,.cls-18,.cls-19{stroke-width:.25px}.cls-1{stroke-dasharray:3 3}.cls-2{stroke:#55be8a;stroke-width:.28px;stroke-dasharray:3.19 2.81}.cls-3{stroke:#54be91;stroke-width:.31px;stroke-dasharray:3.38 2.63}.cls-4{stroke:#52be97;stroke-width:.34px;stroke-dasharray:3.56 2.44}.cls-5{stroke:#50bf9e;stroke-width:.38px;stroke-dasharray:3.75 2.25}.cls-6{stroke:#4fbfa5;stroke-width:.41px;stroke-dasharray:3.94 2.06}.cls-7{stroke:#4dc0ac;stroke-width:.44px;stroke-dasharray:4.13 1.88}.cls-8{stroke:#4ac0b3;stroke-width:.47px;stroke-dasharray:4.31 1.69}.cls-9{stroke:#48c0ba;stroke-width:.5px;stroke-dasharray:4.5 1.5}.cls-10{stroke:#45c1c1;stroke-width:.53px;stroke-dasharray:4.69 1.31}.cls-11{stroke:#42c1c8;stroke-width:.56px;stroke-dasharray:4.88 1.13}.cls-12{stroke:#3fc2ce;stroke-width:.59px;stroke-dasharray:5.06 .94}.cls-13{stroke:#3bc2d5;stroke-width:.63px;stroke-dasharray:5.25 .75}.cls-14{stroke:#37c3dc;stroke-width:.66px;stroke-dasharray:5.44 .56}.cls-15{stroke:#32c3e3;stroke-width:.69px;stroke-dasharray:5.63 .38}.cls-16{stroke:#2cc3ea;stroke-width:.72px;stroke-dasharray:5.81 .19}.cls-17{stroke:#22c4f4;stroke-width:.75px}.cls-19{stroke:#00adee}.cls-20{fill:#466bb0}.cls-21{fill:#57bd83}</style></defs><g><path d="M.11,25S25.44,71,115.44,72.33C221.82,73.91,256.11,47,344.11,69.67,422,89.74,464.78,127,464.78,127" class="cls-1" transform="translate(0 -8)"/><path d="M.57,30S26.1,75,114.78,76.33C217.4,77.84,253.35,50.8,338.71,70.17c75.35,17.3,116.74,51.82,126.4,50.34" class="cls-2" transform="translate(0 -8)"/><path d="M1,34.92S26.75,79.08,114.11,80.33C213,81.77,250.63,54.4,333.31,70.68,406.14,85,446.13,117,465.44,114" class="cls-3" transform="translate(0 -8)"/><path d="M1.48,39.88s25.93,43.24,112,44.45C208.55,85.7,247.88,58.11,327.9,71.18,398.18,82.67,436.81,112,465.78,107.52" class="cls-4" transform="translate(0 -8)"/><path d="M1.94,44.83s26.12,42.34,110.84,43.5c91.34,1.3,132.34-26.5,209.72-16.64,67.72,8.63,105,35.25,143.61,29.33" class="cls-5" transform="translate(0 -8)"/><path d="M2.4,49.79S28.72,91.21,112.11,92.33c87.59,1.23,130.25-26.77,205-20.13C382.25,78,418.16,101.93,466.44,94.53" class="cls-6" transform="translate(0 -8)"/><path d="M2.86,54.75s26.51,40.5,108.58,41.58c83.83,1.16,128.14-27,200.26-23.63,62.57,3,97.14,24.21,155.08,15.34" class="cls-7" transform="translate(0 -8)"/><path d="M3.32,59.71S30,99.29,110.78,100.33c80.07,1.09,126-28.45,195.52-27.12,60,1.14,93.22,18.69,160.81,8.33" class="cls-8" transform="translate(0 -8)"/><path d="M3.78,64.67s26.9,38.66,106.33,39.66c76.31,1,123.9-27.51,190.79-30.62,57.4-2.66,89.3,13.17,166.54,1.34" class="cls-9" transform="translate(0 -8)"/><path d="M4.23,69.62s27.11,37.76,105.21,38.71c72.56.94,121.78-27.72,186.05-34.11,54.82-5.45,85.38,7.65,172.29-5.67" class="cls-10" transform="translate(0 -8)"/><path d="M4.69,74.58S32,111.42,108.78,112.33c68.79.87,119.65-27.91,181.31-37.6,52.23-8.21,81.46,2.12,178-12.67" class="cls-11" transform="translate(0 -8)"/><path d="M5.15,79.54s27.5,35.92,103,36.79c65,.8,117.53-28.07,176.58-41.1,49.64-11,77.54-3.39,183.75-19.66" class="cls-12" transform="translate(0 -8)"/><path d="M5.61,84.5s27.7,35,101.83,35.83c61.28.73,115.42-28.2,171.85-44.59,47.06-13.67,73.62-8.92,189.49-26.67" class="cls-13" transform="translate(0 -8)"/><path d="M6.07,89.46S34,123.54,106.78,124.33C164.3,125,220.09,96,273.89,76.24c44.49-16.36,69.69-14.43,195.22-33.66" class="cls-14" transform="translate(0 -8)"/><path d="M6.53,94.42s28.09,33.16,99.58,33.91c53.76.59,111.24-28.38,162.38-51.58,41.95-19,65.77-20,201-40.67" class="cls-15" transform="translate(0 -8)"/><path d="M7,99.37s28.29,32.25,98.46,33c50,.52,109.21-28.43,157.64-55.07,39.44-21.69,61.86-25.48,206.7-47.67" class="cls-16" transform="translate(0 -8)"/><path d="M7.44,104.33s28.49,31.34,97.34,32c46.24.45,107.2-28.46,152.9-58.57,36.95-24.33,57.94-31,212.43-54.66" class="cls-17" transform="translate(0 -8)"/></g><circle cx="144.61" cy="18.87" r="3.71" class="cls-18"/><circle cx="431.1" cy="25.76" r="4.01" class="cls-19"/><circle cx="175.86" cy="105.01" r="4.87" class="cls-19"/><path d="M161.91,67.92l-.54-.11c-4.94-1-10.69-4.3-10.69-7.18,0-3.16,5-5.85,11.16-6,6.66-.14,14.71,4.82,14.77,4.86l.18-8.66a25.42,25.42,0,0,0-15.14-4.17c-11,.26-19.28,5.94-19.28,13.77,0,10.16,6.77,12.79,17.49,15.19l.54.11c6.74,1.3,10.19,2.46,10.35,5.24.37,6.44-7.11,7.9-10.35,8.23-7.64.79-17.76-6.15-17.84-6.2l-.19,9a29,29,0,0,0,16.56,5.2,21.75,21.75,0,0,0,2.28-.11c11.14-1.14,18-7.65,17.49-16.6C178.16,71.05,168,69.09,161.91,67.92Zm35.61-32.5h-8v13.5h-5.61V55h5.61V82.78c0,.78.45,7.77,6.31,11.71a14.84,14.84,0,0,0,8.47,2.4c3,0,4.84-.69,8.57-2l.19-7.48c-5.13,1.88-10.43,2.07-12.74.55-2.46-1.62-2.81-5-2.84-5.39V55H213.1v-6.1H197.52ZM107.19,39h8.44V88.6h-8.44v6.11h24.46V88.6h-8.06V39h8.06V32.92H107.19Zm169.1,13.33a22,22,0,0,0-15.07-5.68h0c-2.21.1-20.9,1.61-20.9,24.86,0,8.66,2.42,15.35,7.2,19.88a21.89,21.89,0,0,0,14.59,5.73h.34a21.17,21.17,0,0,0,13.88-5.93c4.61-4.56,6.95-11.18,6.95-19.68C283.28,63.21,280.93,56.76,276.29,52.36ZM262.93,89.78h-.25a13.82,13.82,0,0,1-9.16-3.55c-3.13-3-5.23-8.31-5.23-14.7,0-16.22,11.6-17.85,13-17.87h.15a13.3,13.3,0,0,1,9.25,3.39c2.95,2.84,4.67,8.48,4.67,14.49C275.31,88.6,264.22,89.77,262.93,89.78Zm-32.3-57h-8V40.5h8ZM223,94.86h8V48.59h-8Z" class="cls-20" transform="translate(0 -8)"/><g><polygon points="23.45 90.19 90.96 90.19 48.91 102.73 23.45 90.19" class="cls-20"/><polygon points="22.9 85.77 48.72 81.34 48.72 34.67 22.9 85.77" class="cls-20"/><polygon points="53.15 81.34 53.15 0 91.88 85.77 53.15 81.34" class="cls-20"/></g><g><path d="M334.13,92.61A28.67,28.67,0,0,1,318.08,97a30.42,30.42,0,0,1-15.32-3.72,24.81,24.81,0,0,1-10-10.65,36.19,36.19,0,0,1-3.49-16.46,36.12,36.12,0,0,1,3.49-16.45,24.85,24.85,0,0,1,10-10.66,30.1,30.1,0,0,1,15.19-3.71q9.33,0,15.82,3.89a20.11,20.11,0,0,1,8.93,11.61l-11.33,4.8q-1.45-5.34-4.54-7.7t-8.34-2.36q-7.6,0-11.92,5.35t-4.31,15.23q0,9.88,4.17,15.23t11.79,5.35q11,0,13.78-10.61l11.51,3.45A22.9,22.9,0,0,1,334.13,92.61Z" class="cls-21" transform="translate(0 -8)"/><path d="M385.4,56.12q6.12,6.26,6.12,17.31T385.4,90.75Q379.28,97,368.31,97t-17.09-6.26q-6.12-6.25-6.12-17.32t6.12-17.31q6.12-6.25,17.09-6.26T385.4,56.12Zm-25.12,6.57q-2.76,3.59-2.76,10.74t2.76,10.75c1.85,2.39,4.52,3.58,8,3.58s6.18-1.19,8-3.58,2.76-6,2.76-10.75-.92-8.35-2.76-10.74-4.52-3.58-8-3.58S362.13,60.3,360.28,62.69Z" class="cls-21" transform="translate(0 -8)"/><path d="M433.81,54.12q4.49,4.26,4.49,12.24V96.1H425.87V70q0-10.33-8.06-10.34a10,10,0,0,0-7.39,3.09c-2,2.05-3,5.2-3,9.42V96.1H395V50.77h11.15l.36,8.07a15.67,15.67,0,0,1,6.26-6.71A18.41,18.41,0,0,1,422,49.86Q429.32,49.86,433.81,54.12Z" class="cls-21" transform="translate(0 -8)"/></g></svg>