<svg id="Layer_1" data-name="Layer 1" xmlns="http://www.w3.org/2000/svg" viewBox="0 0 788.61472 772.66521"><defs><style>.cls-1{fill:none;}.cls-2{fill:#fff;}</style></defs><title>servicemeshinterface-stacked-white</title><path class="cls-1" d="M399.91683,492.68863a25.13906,25.13906,0,0,0-4.99964-4.99964,24.86756,24.86756,0,0,0-12.392-4.86425,24.92536,24.92536,0,0,0-6.80066.22113,24.87423,24.87423,0,0,0-10.808,4.64312,25.13875,25.13875,0,0,0-4.99963,4.99964,25.01586,25.01586,0,0,0,0,30.00073,25.13843,25.13843,0,0,0,4.99963,4.99963,25.0011,25.0011,0,0,0,30.00073,0,25.13875,25.13875,0,0,0,4.99964-4.99963A24.86775,24.86775,0,0,0,404.743,510.5972a25.23073,25.23073,0,0,0,.17383-2.90821A24.88768,24.88768,0,0,0,399.91683,492.68863Z"/><path class="cls-1" d="M80.26082,721.109c-4.9,0-7.91,3.43-8.47,7.98h15.89C87.68086,725.169,85.65083,721.179,80.26082,721.109Z"/><path class="cls-1" d="M357.08284,721.109c-4.9,0-7.91,3.43-8.47,7.98h15.89C364.50282,725.169,362.47286,721.179,357.08284,721.109Z"/><path class="cls-1" d="M554.92952,108.18985a24.99217,24.99217,0,0,0,49.97461,0c.0033-.16718.0127-.33289.0127-.50086a24.99644,24.99644,0,0,0-49.91962-1.91583l.10913-.10913A25.10189,25.10189,0,0,0,554.92952,108.18985Z"/><path class="cls-1" d="M588.60085,721.109c-4.9,0-7.91,3.43-8.47,7.98h15.89C596.02083,725.169,593.9908,721.179,588.60085,721.109Z"/><path class="cls-1" d="M673.90285,738.679c0,3.01,2.38,5.04,7.28,5.04a23.12652,23.12652,0,0,0,6.86-1.05005V735.529a19.684,19.684,0,0,0-7.56-1.33C676.56282,734.199,673.90285,735.529,673.90285,738.679Z"/><path class="cls-1" d="M756.39083,721.109c-4.9,0-7.91,3.43-8.47,7.98h15.89C763.81081,725.169,761.78084,721.179,756.39083,721.109Z"/><path class="cls-1" d="M241.40083,721.109c-4.9,0-7.91,3.43-8.47,7.98h15.89C248.82082,725.169,246.79085,721.179,241.40083,721.109Z"/><path class="cls-2" d="M378.00148,282.76938a24.99665,24.99665,0,1,0,26.34638,30.22247L532.30843,185.03128a90.06421,90.06421,0,1,0-28.38831-28.18085ZM579.91683,82.689a25,25,0,0,1,25,25c0,.168-.0094.33368-.0127.50086a24.99192,24.99192,0,1,1-49.79779-2.52582l-.10913.10913A24.99641,24.99641,0,0,1,579.91683,82.689Z"/><circle class="cls-2" cx="179.91683" cy="107.68899" r="25"/><path class="cls-2" d="M579.91683,282.689a25.00209,25.00209,0,0,0-24.64313,20.80768L441.08138,417.689H317.38912L208.01943,308.31985l175.966-175.96563a24.99894,24.99894,0,1,0-28.88013-27.68866L176.89339,282.87747a24.99512,24.99512,0,0,0-1.48688,49.39789L289.91683,446.786V597.689h180V445.42319l112.90771-112.908a24.99784,24.99784,0,0,0-2.90771-49.82624Zm-180,240.00037a25.13875,25.13875,0,0,1-4.99964,4.99963,25.0011,25.0011,0,0,1-30.00073,0,25.13843,25.13843,0,0,1-4.99963-4.99963,25.0011,25.0011,0,0,1,0-30.00073,25.13875,25.13875,0,0,1,4.99963-4.99964,24.87423,24.87423,0,0,1,10.808-4.64312,24.92536,24.92536,0,0,1,6.80066-.22113,24.86756,24.86756,0,0,1,12.392,4.86425,25.13906,25.13906,0,0,1,4.99964,4.99964,24.88768,24.88768,0,0,1,5,15.00036,25.23073,25.23073,0,0,1-.17383,2.90821A24.86775,24.86775,0,0,1,399.91683,522.68936Z"/><circle class="cls-2" cx="579.91683" cy="507.68899" r="25"/><circle class="cls-2" cx="179.91683" cy="507.68899" r="25"/><path class="cls-2" d="M644.48885,715.299v.77h-4.48a16.9166,16.9166,0,0,0-.35,3.29,14.45669,14.45669,0,0,0,.35,3.15h4.48v26.32a26.36735,26.36735,0,0,0,3.99.35,23.86305,23.86305,0,0,0,3.85-.35v-26.25h7.91a11.7921,11.7921,0,0,0,.42-3.15,12.45958,12.45958,0,0,0-.42-3.29h-7.91v-1.96c0-3.99,2.17-5.32,4.83-5.32a8.42541,8.42541,0,0,1,5.11,1.68,8.16677,8.16677,0,0,0,3.43-5.53,13.56249,13.56249,0,0,0-8.75-2.8C650.50881,702.209,644.48885,706.339,644.48885,715.299Z"/><path class="cls-2" d="M41.11684,721.669c-7.7-1.88995-9.1-3.5-9.1-6.44s2.87-5.25,7.7-5.25a18.61972,18.61972,0,0,1,11.41,3.64,8.69563,8.69563,0,0,0,3.85-6.44c-2.87-2.24-7.56-4.48-14.98-4.48-9.52,0-15.75,5.32-15.75,13.09.07,8.89,6.65,11.83,13.86,13.51,8.33,2.03,9.73,4.2,9.73,7.14,0,3.57-2.66,6.09-8.68,6.09a18.06023,18.06023,0,0,1-12.11-4.48,8.81139,8.81139,0,0,0-4.13,6.23c2.66,2.52,7.7,5.6,16.17,5.6,10.22,0,16.66-5.18,16.59-14.28C55.60683,727.339,49.86684,723.839,41.11684,721.669Z"/><path class="cls-2" d="M771.58083,729.649c0-8.89-6.3-14.98005-15.19-14.98005-9.45,0-16.66,7.42005-16.66,17.71,0,10.85,7.14,17.43,17.08,17.43a21.227,21.227,0,0,0,13.79-4.69,8.1946,8.1946,0,0,0-3.43-5.39,15.54091,15.54091,0,0,1-9.8,3.43c-5.53,0-8.89-3.36-9.52-8.81994H771.3008A35.84308,35.84308,0,0,0,771.58083,729.649Zm-23.66-.56c.56-4.55005,3.57-7.98,8.47-7.98,5.39.07,7.42,4.06,7.42,7.98Z"/><path class="cls-2" d="M680.62282,714.669c-6.44,0-11.48,2.80005-13.44,4.69a6.688,6.688,0,0,0,3.64,5.11,16.046,16.046,0,0,1,9.24-2.94c5.32,0,7.98,2.37994,7.98,6.37V729.789a23.97746,23.97746,0,0,0-8.19-1.26c-8.05-.07-14,3.63995-14,10.5,0,6.65,4.83,10.78,14.63,10.78a37.52379,37.52379,0,0,0,15.33-3.29v-18.13C695.81282,718.589,689.37282,714.669,680.62282,714.669Zm7.42,28a23.12652,23.12652,0,0,1-6.86,1.05005c-4.9,0-7.28-2.03-7.28-5.04,0-3.15,2.66-4.48,6.58-4.48a19.684,19.684,0,0,1,7.56,1.33Z"/><path class="cls-2" d="M729.7068,740.149a10.31743,10.31743,0,0,1-7.35,2.8c-6.65,0-9.66-5.04-9.66-10.71,0-5.81,3.07995-10.78,9.59-10.78a10.34988,10.34988,0,0,1,6.86,2.59,9.568,9.568,0,0,0,4.27-5.67,17.65693,17.65693,0,0,0-11.2-3.78c-10.01,0-17.57,7.07-17.57,17.71,0,11.06,7.07,17.5,17.64,17.5a17.13833,17.13833,0,0,0,11.62-4.27A8.501,8.501,0,0,0,729.7068,740.149Z"/><path class="cls-2" d="M241.40083,714.669c-9.45,0-16.66,7.42005-16.66,17.71,0,10.85,7.14,17.43,17.08,17.43a21.22692,21.22692,0,0,0,13.79-4.69,8.1946,8.1946,0,0,0-3.43-5.39,15.54091,15.54091,0,0,1-9.8,3.43c-5.53,0-8.89-3.36-9.52-8.81994h23.45a35.85327,35.85327,0,0,0,.28-4.69C256.59084,720.759,250.29085,714.669,241.40083,714.669Zm-8.47,14.42005c.56-4.55005,3.57-7.98,8.47-7.98,5.39.07,7.42,4.06,7.42,7.98Z"/><path class="cls-2" d="M321.99886,703.819l-13.02,30.31-.7,2.24-.84-2.24-13.86-30.31a18.32273,18.32273,0,0,0-3.85-.35,16.61959,16.61959,0,0,0-4.27.56v44.73a16.59678,16.59678,0,0,0,7.42,0v-24.57l-.28-6.44,1.26,3.15,10.57,23.8a22.37616,22.37616,0,0,0,3.43.28,21.92755,21.92755,0,0,0,3.5-.28l10.22-23.66,1.19-3.36-.35,6.51v24.57a19.57062,19.57062,0,0,0,3.85.42,18.25941,18.25941,0,0,0,3.71-.42v-44.73a17.60863,17.60863,0,0,0-4.2-.49A20.30781,20.30781,0,0,0,321.99886,703.819Z"/><path class="cls-2" d="M588.60085,714.669c-9.45,0-16.66,7.42005-16.66,17.71,0,10.85,7.14,17.43,17.08,17.43a21.22674,21.22674,0,0,0,13.79-4.69,8.19436,8.19436,0,0,0-3.43-5.39,15.54064,15.54064,0,0,1-9.8,3.43c-5.53,0-8.89-3.36-9.52-8.81994h23.45a35.84308,35.84308,0,0,0,.28-4.69C603.79085,720.759,597.4908,714.669,588.60085,714.669Zm-8.47,14.42005c.56-4.55005,3.57-7.98,8.47-7.98,5.38995.07,7.42,4.06,7.42,7.98Z"/><path class="cls-2" d="M395.31685,728.599c-5.67-.91-7.14-1.96-7.14-4.13,0-2.1,1.82-3.43005,6.02-3.43005a19.84991,19.84991,0,0,1,9.73,2.52,8.51248,8.51248,0,0,0,3.01-5.67c-2.17-1.54-6.44-3.22-12.46-3.22-8.4,0-13.93,4.2-13.93,10.36005,0,7,5.6,9.17,11.48,10.08,5.95.91,7.84,2.17,7.84,4.41s-1.68,3.99-6.37,3.99a16.04456,16.04456,0,0,1-10.22-3.29,8.77228,8.77228,0,0,0-3.63995,5.46c1.88995,1.61,6.3,4.2,13.72,4.2,9.1,0,14.42-4.2,14.42-11.13C407.77681,732.169,402.52681,729.719,395.31685,728.599Z"/><path class="cls-2" d="M357.08284,714.669c-9.45,0-16.66,7.42005-16.66,17.71,0,10.85,7.13995,17.43,17.07995,17.43a21.227,21.227,0,0,0,13.79-4.69,8.19458,8.19458,0,0,0-3.43-5.39,15.54092,15.54092,0,0,1-9.8,3.43c-5.53,0-8.88995-3.36-9.52-8.81994h23.45a35.84134,35.84134,0,0,0,.28-4.69C372.27284,720.759,365.97286,714.669,357.08284,714.669Zm-8.47,14.42005c.56-4.55005,3.57-7.98,8.47-7.98,5.39.07,7.42,4.06,7.42,7.98Z"/><path class="cls-2" d="M515.14284,714.599a25.797,25.797,0,0,0-15.89,5.25v28.91a22.52018,22.52018,0,0,0,7.91,0v-25.06a15.24573,15.24573,0,0,1,7.35-1.82c5.11,0,8.05,2.31,8.05,8.4v18.48a22.91918,22.91918,0,0,0,7.98,0v-20.37C530.5428,720.759,525.8528,714.599,515.14284,714.599Z"/><path class="cls-2" d="M433.83083,714.599a19.45858,19.45858,0,0,0-8.54,1.96v-13.72a19.64512,19.64512,0,0,0-3.99-.35,19.22183,19.22183,0,0,0-3.99.35v45.92a20.32725,20.32725,0,0,0,4.06.35,18.16272,18.16272,0,0,0,3.92-.35v-24.85a15.66132,15.66132,0,0,1,7.28-1.96c6.09,0,7.98,3.57,7.98,8.4v18.41a18.98264,18.98264,0,0,0,3.92.35,19.89687,19.89687,0,0,0,4.06-.35v-20.79C448.53084,720.829,443.77083,714.599,433.83083,714.599Z"/><path class="cls-2" d="M478.9388,703.889v44.87a19.99331,19.99331,0,0,0,4.06.42,17.5396,17.5396,0,0,0,3.85-.42v-44.87a16.20548,16.20548,0,0,0-7.91,0Z"/><path class="cls-2" d="M155.74886,715.719a157.33431,157.33431,0,0,1-7.98,24.64l-.42,1.05a6.16573,6.16573,0,0,0-.35-1.05,170.07367,170.07367,0,0,1-8.19-24.64,20.96956,20.96956,0,0,0-3.08-.28,21.61,21.61,0,0,0-5.46.7c3.15,12.18,6.93,22.47,13.02,32.62a18.982,18.982,0,0,0,3.92.35,17.68453,17.68453,0,0,0,3.78-.35,124.41037,124.41037,0,0,0,12.88-32.62,17.14571,17.14571,0,0,0-5.04-.7A20.96808,20.96808,0,0,0,155.74886,715.719Z"/><path class="cls-2" d="M562.96681,740.639a8.60021,8.60021,0,0,1-5.53,2.24c-3.29,0-5.6-1.26-5.6-6.16v-14.21h12.39a13.15519,13.15519,0,0,0,.35-3.29,12.082,12.082,0,0,0-.35-3.15h-12.39v-8.82a17.5218,17.5218,0,0,0-3.85-.35,19.22519,19.22519,0,0,0-3.99.35v8.82h-5.67a15.97873,15.97873,0,0,0-.28,3.15,16.46769,16.46769,0,0,0,.28,3.29h5.67v16.03c0,7.98,5.25,11.2,12.39,11.2a15.12561,15.12561,0,0,0,9.94-3.57A8.3369,8.3369,0,0,0,562.96681,740.639Z"/><path class="cls-2" d="M104.91481,719.429v29.33a19.22613,19.22613,0,0,0,3.99.35,18.81452,18.81452,0,0,0,3.99-.35v-25.48a12.8697,12.8697,0,0,1,6.23-1.33,19.88461,19.88461,0,0,1,5.04.63,11.39632,11.39632,0,0,0,2.1-6.86,21.1654,21.1654,0,0,0-7.35-1.05005A21.87215,21.87215,0,0,0,104.91481,719.429Z"/><path class="cls-2" d="M80.26082,714.669c-9.45,0-16.66,7.42005-16.66,17.71,0,10.85,7.14,17.43,17.08,17.43a21.22685,21.22685,0,0,0,13.79-4.69,8.19458,8.19458,0,0,0-3.43-5.39,15.54087,15.54087,0,0,1-9.8,3.43c-5.53,0-8.89-3.36-9.52-8.81994h23.45a35.85153,35.85153,0,0,0,.28-4.69C95.45082,720.759,89.15083,714.669,80.26082,714.669Zm-8.47,14.42005c.56-4.55005,3.57-7.98,8.47-7.98,5.39.07,7.42,4.06,7.42,7.98Z"/><path class="cls-2" d="M613.25484,719.429v29.33a19.2255,19.2255,0,0,0,3.99.35,18.81417,18.81417,0,0,0,3.99-.35v-25.48a12.87,12.87,0,0,1,6.23-1.33,19.88514,19.88514,0,0,1,5.04.63,11.39674,11.39674,0,0,0,2.1-6.86,21.16477,21.16477,0,0,0-7.35-1.05005A21.872,21.872,0,0,0,613.25484,719.429Z"/><path class="cls-2" d="M172.00282,715.649v33.11a19.6491,19.6491,0,0,0,3.99.35,18.16276,18.16276,0,0,0,3.92005-.35v-33.11a18.56294,18.56294,0,0,0-3.92005-.35A19.22189,19.22189,0,0,0,172.00282,715.649Z"/><path class="cls-2" d="M214.71681,740.149a10.31743,10.31743,0,0,1-7.35,2.8c-6.65,0-9.66-5.04-9.66-10.71,0-5.81,3.07995-10.78,9.59-10.78a10.34988,10.34988,0,0,1,6.86,2.59,9.568,9.568,0,0,0,4.27-5.67,17.65679,17.65679,0,0,0-11.2-3.78c-10.01,0-17.57,7.07-17.57,17.71,0,11.06,7.07,17.5,17.64,17.5a17.13833,17.13833,0,0,0,11.62-4.27A8.501,8.501,0,0,0,214.71681,740.149Z"/><path class="cls-2" d="M175.99281,700.529a5.04,5.04,0,1,0,5.04,5.04A5.09506,5.09506,0,0,0,175.99281,700.529Z"/></svg>