<svg id="Layer_1" data-name="Layer 1" xmlns="http://www.w3.org/2000/svg" viewBox="0 0 1563.81 184.71"><defs><style>.cls-1{fill:#3c494f;}</style></defs><polygon class="cls-1" points="258.71 29.51 258.71 37.34 258.71 74.19 258.71 119.12 258.71 184.71 433.33 184.71 433.33 147.87 295.55 147.87 295.55 119.12 295.55 111.03 401.4 111.03 401.4 74.19 295.55 74.19 295.55 37.34 433.33 37.34 433.33 0.5 258.71 0.5 258.71 29.51"/><path class="cls-1" d="M675.06,136.57a46.31,46.31,0,0,1-3.8,18.67,47.65,47.65,0,0,1-10.44,15.34,50.66,50.66,0,0,1-15.36,10.32,46.92,46.92,0,0,1-18.78,3.81H454.27v-38.8H626.68a9.24,9.24,0,0,0,9.33-9.34v-15a9.2,9.2,0,0,0-9.33-9.33h-124A46.1,46.1,0,0,1,484,108.45a49,49,0,0,1-25.91-25.91,46.31,46.31,0,0,1-3.8-18.67v-15a47.13,47.13,0,0,1,3.8-18.79A49.29,49.29,0,0,1,484,4.31,46.1,46.1,0,0,1,502.64.5H675.06V39.55H502.64a9.25,9.25,0,0,0-9.33,9.34v15a9.24,9.24,0,0,0,9.33,9.33h124A46.92,46.92,0,0,1,645.46,77a49.51,49.51,0,0,1,25.8,25.79,47.09,47.09,0,0,1,3.8,18.79Z"/><path class="cls-1" d="M907.41,184.71H872.28V112.26h-137v72.45H700.17V73.2H872.28V.5h35.13ZM735.29,55.91H700.17V.5h35.12Z"/><path class="cls-1" d="M230.38,184.71h-39V50.36a10.39,10.39,0,0,0-.86-4.18,11,11,0,0,0-2.33-3.43,11.34,11.34,0,0,0-3.44-2.34,10.42,10.42,0,0,0-4.18-.85H0V.5H180.52A48,48,0,0,1,199.8,4.43a52,52,0,0,1,16,10.69,52,52,0,0,1,10.68,16,48.07,48.07,0,0,1,3.93,19.28Zm-191.33,0H0V39.56H39.05Zm95.54,0h-39V60h39.05Z"/><path class="cls-1" d="M1164.45,184.71h-39.06V50.36a10.39,10.39,0,0,0-.86-4.18,11.09,11.09,0,0,0-5.77-5.77,10.33,10.33,0,0,0-4.17-.85H934.07V.5h180.52a48.07,48.07,0,0,1,19.28,3.93,52,52,0,0,1,16,10.69,52,52,0,0,1,10.68,16,48.08,48.08,0,0,1,3.94,19.28Zm-191.33,0h-39V39.56h39Zm95.54,0h-39.05V60h39.05Z"/><polygon class="cls-1" points="1261.56 0.5 1187.88 184.71 1229.9 184.71 1279.98 55.77 1315.67 147.87 1254.45 147.87 1240.7 184.71 1372.09 184.71 1298.4 0.5 1261.56 0.5"/><path class="cls-1" d="M1532.88,108.29h2.64a28.19,28.19,0,0,0,28.29-28.49l-.07-19.15,0-13.2-.07-19.15A28.17,28.17,0,0,0,1535.14,0h-2.64L1426.86.38h-.66l-35,.12.65,184.21,37-.13-1.18-149.21,94.41-.33,0,12.54.05,12.55,0,12.54-75.93.27.13,35.65"/></svg>