<svg xmlns="http://www.w3.org/2000/svg" width="1600" height="1066.667" preserveAspectRatio="xMidYMid meet" version="1.0" viewBox="0 0 1200 800"><g fill="#000" stroke="none"><path d="M5878 5060 c-174 -22 -385 -107 -518 -208 -239 -182 -388 -448 -421 -754 -13 -114 -1 -247 31 -373 26 -102 114 -281 178 -365 290 -381 798 -526 1236 -353 382 151 632 481 677 896 20 185 -16 378 -105 562 -63 129 -125 214 -227 310 -147 139 -317 228 -514 269 -92 19 -252 27 -337 16z m207 -152 c13 -30 48 -34 72 -9 19 20 20 20 83 3 49 -13 66 -22 68 -37 9 -43 42 -57 81 -33 16 10 29 6 77 -23 51 -30 59 -39 56 -61 -4 -35 37 -65 66 -49 16 9 27 2 70 -41 43 -43 49 -54 41 -70 -16 -29 14 -70 47 -66 22 3 31 -6 62 -55 30 -49 34 -61 24 -78 -24 -39 -11 -72 33 -81 15 -2 24 -19 37 -68 17 -63 17 -64 -3 -83 -25 -24 -21 -59 9 -72 20 -9 22 -17 22 -85 0 -68 -2 -76 -22 -85 -30 -13 -34 -48 -9 -72 20 -19 20 -20 3 -83 -13 -49 -22 -66 -37 -68 -43 -8 -57 -42 -33 -81 9 -15 5 -29 -25 -78 -32 -52 -40 -60 -61 -56 -32 6 -63 -36 -47 -65 8 -16 2 -27 -41 -70 -43 -43 -54 -50 -70 -41 -29 16 -70 -14 -66 -49 3 -22 -5 -31 -56 -61 -48 -29 -61 -33 -77 -23 -39 24 -72 10 -81 -33 -2 -15 -19 -24 -68 -37 -63 -17 -64 -17 -83 3 -24 25 -59 21 -72 -8 -9 -21 -17 -23 -85 -23 -68 0 -76 2 -85 23 -13 29 -48 33 -72 8 -19 -20 -20 -20 -83 -3 -49 13 -66 22 -68 37 -8 43 -42 57 -81 33 -15 -9 -29 -5 -78 25 -52 32 -60 40 -56 61 6 32 -36 63 -65 47 -16 -8 -27 -2 -70 42 -42 43 -49 55 -41 70 16 27 -15 69 -47 65 -22 -3 -31 6 -62 55 -30 49 -34 61 -24 78 24 39 11 72 -33 81 -15 2 -24 19 -37 68 -17 63 -17 64 3 83 25 24 21 59 -8 72 -21 9 -23 17 -23 85 0 68 2 76 23 85 29 13 33 48 8 72 -20 19 -20 20 -3 83 13 49 22 66 37 68 43 9 57 42 33 81 -10 16 -6 29 23 77 30 51 39 59 61 56 34 -4 65 37 49 65 -8 15 -1 27 41 70 43 44 54 50 70 42 29 -16 71 15 65 47 -4 21 4 29 56 61 49 30 63 34 78 25 39 -24 73 -10 81 33 2 15 19 24 68 37 63 17 64 17 83 -3 24 -25 59 -21 72 9 9 20 17 22 85 22 68 0 76 -2 85 -22z" transform="translate(0.000000,800.000000) scale(0.100000,-0.100000)"/><path d="M5771 4849 c-1 -3 23 -120 53 -260 34 -157 66 -282 85 -328 35 -83 36 -91 17 -91 -7 0 -29 37 -48 83 -29 69 -264 447 -300 482 -5 6 38 -87 97 -205 97 -194 125 -241 202 -346 19 -26 21 -33 9 -37 -10 -4 -32 17 -68 64 -44 58 -228 231 -413 390 l-40 34 33 -38 c166 -194 333 -371 391 -415 47 -36 68 -58 64 -68 -3 -9 -10 -11 -17 -6 -6 5 -38 29 -71 54 -46 35 -468 259 -520 276 -5 2 88 -61 207 -140 132 -88 248 -157 297 -177 46 -19 81 -39 81 -47 0 -19 -5 -18 -101 20 -69 28 -359 96 -559 132 -14 2 81 -32 210 -76 162 -55 266 -85 334 -96 107 -16 115 -19 100 -34 -7 -7 -35 -7 -85 0 -54 8 -138 8 -316 -1 -134 -7 -243 -15 -243 -19 0 -4 109 -12 243 -19 178 -9 262 -9 316 -1 50 7 78 7 85 0 15 -15 7 -18 -100 -34 -68 -11 -172 -41 -334 -96 -129 -44 -224 -78 -210 -76 200 36 490 104 559 132 95 38 101 39 101 20 0 -7 -37 -29 -83 -48 -69 -29 -447 -264 -482 -300 -26 -26 447 220 500 260 33 25 65 49 71 54 7 5 14 3 17 -6 4 -10 -17 -32 -64 -68 -58 -44 -225 -221 -391 -415 l-33 -38 40 34 c185 159 369 332 413 390 35 46 58 68 68 64 14 -5 10 -12 -82 -138 -25 -34 -241 -465 -226 -450 36 35 271 413 300 482 19 46 41 83 48 83 19 0 18 -8 -17 -91 -19 -46 -51 -171 -85 -328 -30 -140 -54 -257 -53 -260 0 -3 36 100 80 229 54 159 84 267 95 334 16 106 19 115 34 100 7 -7 6 -37 -1 -90 -10 -82 7 -564 21 -564 14 0 31 482 21 564 -7 53 -8 83 -1 90 15 15 18 6 34 -100 11 -67 41 -175 95 -334 44 -129 80 -232 80 -229 1 3 -23 120 -53 260 -34 157 -66 282 -85 328 -35 83 -36 91 -17 91 7 0 29 -37 48 -83 29 -69 264 -447 300 -482 28 -28 -211 430 -256 490 -68 91 -68 92 -52 98 10 4 33 -18 68 -64 44 -58 180 -186 413 -389 l40 -35 -33 38 c-166 194 -334 372 -391 416 -45 34 -68 58 -64 67 6 16 7 16 98 -52 58 -43 542 -296 510 -267 -44 40 -434 282 -501 310 -46 20 -84 42 -84 49 0 19 8 18 91 -17 63 -26 576 -145 586 -136 1 2 -109 39 -245 84 -159 52 -278 85 -334 93 -82 11 -102 20 -78 35 5 3 47 1 92 -5 63 -9 141 -9 326 1 133 7 242 16 242 19 0 3 -109 12 -242 19 -185 10 -263 10 -326 1 -45 -6 -87 -8 -92 -5 -24 15 -4 24 78 35 56 8 175 41 334 93 136 45 246 82 245 84 -10 9 -523 -110 -586 -136 -83 -35 -91 -36 -91 -17 0 7 38 29 84 49 67 28 457 270 501 310 32 29 -452 -224 -510 -267 -91 -68 -92 -68 -98 -52 -4 9 19 33 64 67 57 44 225 222 391 416 l33 38 -40 -35 c-233 -203 -369 -331 -413 -389 -35 -46 -58 -68 -68 -64 -16 6 -16 7 52 98 45 60 284 518 256 490 -36 -35 -271 -413 -300 -482 -19 -46 -41 -83 -48 -83 -19 0 -18 8 17 91 19 46 51 171 85 328 30 140 54 257 53 260 0 3 -36 -100 -80 -229 -54 -159 -84 -267 -95 -334 -16 -106 -19 -115 -34 -100 -7 7 -6 37 1 90 10 82 -7 564 -21 564 -14 0 -31 -482 -21 -564 7 -53 8 -83 1 -90 -15 -15 -18 -6 -34 100 -11 67 -41 175 -95 334 -44 129 -80 232 -80 229z" transform="translate(0.000000,800.000000) scale(0.100000,-0.100000)"/><path d="M0 1330 l0 -1330 6000 0 6000 0 0 1330 0 1330 -6000 0 -6000 0 0 -1330z" transform="translate(0.000000,800.000000) scale(0.100000,-0.100000)"/></g></svg>