<svg xmlns="http://www.w3.org/2000/svg" id="Layer_1" data-name="Layer 1" viewBox="0 0 400 400"><defs><style>.cls-1{fill:#fff}.cls-2{stroke:#fff;stroke-miterlimit:10}</style></defs><title>Artboard 3</title><g id="Dark_Blue" data-name="Dark Blue"><path d="M350,400H50A50,50,0,0,1,0,350V50A50,50,0,0,1,50,0H350a50,50,0,0,1,50,50V350A50,50,0,0,1,350,400Z" class="cls-1"/></g><path d="M369.8,167.8c-11.4-6.7-26.6-7.5-39.4-3.7-1.6-13.8-10.6-25.8-21.3-34.3l-4.3-3.5-3.7,4.3c-7.2,8.3-9.3,22.1-8.3,32.7.8,7.7,3.2,15.7,8,22.1-3.7,2.1-7.7,5.1-11.4,6.4-7.5,2.7-15.7,5.3-23.7,5.3H247.9V159.6H213.3V93H173.4v31.9H106.9v34.6H72.2v37.3H42.4l-.5,4c-1.3,17,.8,33.5,8,49.2l2.9,5.9.3.5c21,35.7,57.8,50.6,97.9,50.6,77.7,0,141.9-34.9,171.1-108.1,19.7,1.1,39.9-4.8,49.5-23.7l2.4-4.8-4.2-2.6ZM112.1,132.9h26.6v29.3H112.1ZM147,250.6a8.3,8.3,0,1,1-8.3-8.3A8.55,8.55,0,0,1,147,250.6Zm-34.9-83.1h26.6v29.3H112.1Zm-34.6,0h29.3v29.3H77.5Zm73.8,133.7c-42.1-.3-64.7-14.4-83.3-33,5.6.3,10.9.5,15.7.5,4.3,0,8.5,0,12.5-.3a122.44,122.44,0,0,0,26.9-4c6.1,14.1,17.3,27.1,37.3,36.7h-9.1Zm22.1-104.4H144.1V167.5h29.3Zm0-34.6H144.1V132.9h29.3ZM208,196.8H178.7V167.5H208Zm0-34.6H178.7V132.9H208Zm0-34.6H178.7V98.3H208Zm34.6,69.2H213.3V167.5h29.3ZM140.9,245.3a4.34,4.34,0,0,0-2.1-.5,5.9,5.9,0,1,0,5.9,5.9,5.89,5.89,0,0,0-.5-2.1,2.33,2.33,0,0,1-2.1,1.3,2.43,2.43,0,0,1-2.4-2.4A2.58,2.58,0,0,1,140.9,245.3Z" class="cls-2"/></svg>