<svg xmlns="http://www.w3.org/2000/svg" id="Layer_1" data-name="Layer 1" viewBox="0 0 400 400"><defs><style>.cls-1{fill:#fff}</style></defs><title>Artboard 1_1</title><g id="Dark_Blue" data-name="Dark Blue"><path d="M350,400H50A50,50,0,0,1,0,350V50A50,50,0,0,1,50,0H350a50,50,0,0,1,50,50V350A50,50,0,0,1,350,400Z" class="cls-1"/></g><path d="M327.65,166.2a3.1,3.1,0,0,1,5,2.4v106a24.9,24.9,0,0,1-24.9,24.9H92.15a24.9,24.9,0,0,1-24.9-24.9v-106a3.08,3.08,0,0,1,5-2.4c11.6,9,27,20.5,79.9,58.9,10.9,8,29.4,24.8,47.8,24.7,18.5.2,37.3-17,47.8-24.7C300.65,186.7,316.05,175.2,327.65,166.2ZM200,233.2c12,.2,29.3-15.1,38.1-21.5,68.8-49.9,74-54.3,89.9-66.7a12.46,12.46,0,0,0,4.8-9.8v-9.8a24.9,24.9,0,0,0-24.9-24.9H92.15a24.9,24.9,0,0,0-24.9,24.9v9.8a12.61,12.61,0,0,0,4.8,9.8c15.9,12.4,21.1,16.8,89.9,66.7,8.7,6.3,26,21.7,38,21.5Z"/></svg>