<svg xmlns="http://www.w3.org/2000/svg" xmlns:xlink="http://www.w3.org/1999/xlink" id="Layer_1" x="0" y="0" enable-background="new 0 0 512 512" focusable="false" version="1.1" viewBox="0 0 512 512" xml:space="preserve"><style type="text/css">.st0{fill:#fff}</style><path d="M432,320h-32c-8.8,0-16,7.2-16,16v112H64V128h144c8.8,0,16-7.2,16-16V80c0-8.8-7.2-16-16-16H48	C21.5,64,0,85.5,0,112v352c0,26.5,21.5,48,48,48l0,0h352c26.5,0,48-21.5,48-48l0,0V336C448,327.2,440.8,320,432,320z M488,0H360	c-21.4,0-32,25.9-17,41l35.7,35.7L135,320.4c-9.4,9.4-9.4,24.6-0.1,33.9c0,0,0,0,0.1,0.1l22.7,22.6c9.4,9.4,24.6,9.4,33.9,0.1	c0,0,0,0,0.1-0.1l243.6-243.7L471,169c15,15,41,4.5,41-17V24C512,10.7,501.3,0,488,0z" class="st0"/></svg>