<?xml version="1.0" encoding="utf-8"?>
<!-- Generator: Adobe Illustrator 22.0.1, SVG Export Plug-In . SVG Version: 6.00 Build 0)  -->
<svg version="1.1" id="Layer_1" focusable="false" xmlns="http://www.w3.org/2000/svg" xmlns:xlink="http://www.w3.org/1999/xlink"
	 x="0px" y="0px" viewBox="0 0 512 512" style="enable-background:new 0 0 512 512;" xml:space="preserve">
<path d="M432,320h-32c-8.8,0-16,7.2-16,16v112H64V128h144c8.8,0,16-7.2,16-16V80c0-8.8-7.2-16-16-16H48C21.5,64,0,85.5,0,112v352
	c0,26.5,21.5,48,48,48l0,0h352c26.5,0,48-21.5,48-48l0,0V336C448,327.2,440.8,320,432,320z M488,0H360c-21.4,0-32,25.9-17,41
	l35.7,35.7L135,320.4c-9.4,9.4-9.4,24.6-0.1,33.9c0,0,0,0,0.1,0.1l22.7,22.6c9.4,9.4,24.6,9.4,33.9,0.1c0,0,0,0,0.1-0.1l243.6-243.7
	L471,169c15,15,41,4.5,41-17V24C512,10.7,501.3,0,488,0z"/>
</svg>
