<svg xmlns="http://www.w3.org/2000/svg" id="Layer_1" data-name="Layer 1" viewBox="0 0 400 400"><defs><style>.cls-1{fill:#fff}</style></defs><title>Artboard 4</title><g id="Dark_Blue" data-name="Dark Blue"><path d="M350,400H50A50,50,0,0,1,0,350V50A50,50,0,0,1,50,0H350a50,50,0,0,1,50,50V350A50,50,0,0,1,350,400Z" class="cls-1"/></g><path d="M203.9,66.33a137,137,0,0,0-43.3,267c6.8,1.3,9.3-3,9.3-6.6,0-3.3-.1-11.9-.2-23.3-38.1,8.3-46.1-18.4-46.1-18.4-6.2-15.8-15.2-20-15.2-20-12.4-8.5.9-8.3.9-8.3,13.7,1,21,14.1,21,14.1,12.2,20.9,32.1,14.9,39.9,11.4,1.2-8.9,4.8-14.9,8.7-18.3-30.4-3.5-62.4-15.2-62.4-67.7a52.85,52.85,0,0,1,14.1-36.8c-1.4-3.5-6.1-17.4,1.3-36.3,0,0,11.5-3.7,37.7,14a130.2,130.2,0,0,1,34.3-4.6,135.09,135.09,0,0,1,34.3,4.6c26.2-17.7,37.6-14,37.6-14,7.5,18.9,2.8,32.8,1.4,36.3a52.85,52.85,0,0,1,14.1,36.8c0,52.6-32,64.2-62.5,67.6,4.9,4.2,9.3,12.6,9.3,25.4,0,18.3-.2,33.1-.2,37.6,0,3.7,2.5,7.9,9.4,6.6a137.09,137.09,0,0,0-43.4-267.1Z"/></svg>