<?xml version="1.0" encoding="utf-8"?>
<!-- Generator: Adobe Illustrator 22.0.1, SVG Export Plug-In . SVG Version: 6.00 Build 0)  -->
<svg version="1.1" id="Layer_11" xmlns="http://www.w3.org/2000/svg" xmlns:xlink="http://www.w3.org/1999/xlink" x="0px" y="0px"
	 viewBox="0 0 192 192" style="enable-background:new 0 0 192 192;" xml:space="preserve">
<style type="text/css">
	.st0{opacity:0.81;fill:#FFFFFF;}
	.st1{opacity:0.91;fill:#FFFFFF;}
</style>
<g>
	<path class="st0" d="M158.1,33.7h-36.4L96,8L70.3,33.7H33.9v36.4L8.2,95.9l25.7,25.7V158h36.4L96,183.7l25.7-25.7h36.4v-36.4
		l25.7-25.7l-25.7-25.7V33.7z M158.7,95.9c0,34.6-28.1,62.7-62.7,62.7s-62.7-28.1-62.7-62.7S61.4,33.2,96,33.2
		S158.7,61.3,158.7,95.9z"/>
	<path class="st1" d="M96,41.2c-30.2,0-54.7,24.5-54.7,54.7s24.5,54.7,54.7,54.7s54.7-24.5,54.7-54.7S126.2,41.2,96,41.2z
		 M79.9,75.6v9L65.4,95.9l14.5,11.3v9l-1-0.7L57.4,98.7L56,97.6v-3.4l1.4-1.1l21.5-16.7L79.9,75.6L79.9,75.6z M105.7,70.4L93.8,123
		l-0.1,0.4h-7.4l0.4-2l11.9-52.5l0.1-0.4h7.4L105.7,70.4z M136,97.6l-1.4,1.1L113,115.4l-1,0.7v-9l14.5-11.3L112,84.5v-9l0,0l1,0.7
		L134.5,93l1.4,1.1v3.5H136z"/>
</g>
</svg>
