<svg width="470" height="431" viewBox="0 0 470 431" fill="none" xmlns="http://www.w3.org/2000/svg">
<g clip-path="url(#clip0)">
<path d="M112.835 246.094C109.33 240.776 102.138 239.325 96.8194 242.831C94.2811 244.523 92.468 247.122 91.8637 250.143C91.2593 253.165 91.8637 256.247 93.5559 258.846C94.6437 260.478 96.9403 262.351 98.9951 262.593V270.691C98.9951 272.988 97.0007 278.427 91.3197 278.427H70.3486V257.758C71.9199 257.093 73.3099 256.187 74.5186 254.857C78.7491 250.083 78.3261 242.77 73.5516 238.54C68.7772 234.309 61.4645 234.732 57.234 239.507C55.1792 241.803 54.1518 244.765 54.3331 247.847C54.5144 250.929 55.9044 253.769 58.201 255.824C58.4427 256.006 58.6845 256.247 58.9262 256.429C59.8932 257.154 60.9206 257.637 62.0084 258.06V285.377C60.3767 286.042 58.8053 287.009 57.5362 288.399C53.3057 293.174 53.7287 300.486 58.5032 304.717C58.7449 304.898 58.9866 305.14 59.2284 305.321C64.0028 308.947 70.832 308.343 74.8812 303.81C78.8096 299.398 78.8096 292.388 74.8208 288.46C74.2164 287.855 73.733 287.372 73.3099 287.009H91.501C102.682 287.009 107.637 277.581 107.637 271.175V263.258C108.363 262.956 109.088 262.654 109.753 262.17C109.994 261.989 110.236 261.807 110.478 261.626C112.654 259.934 114.104 257.577 114.708 254.797C115.192 251.715 114.587 248.632 112.835 246.094ZM60.558 247.484C60.4975 246.094 60.9206 244.704 61.8876 243.677C63.7611 241.622 66.8433 241.32 69.019 243.012C69.1398 243.072 69.2607 243.193 69.3212 243.254C71.4968 245.188 71.6781 248.512 69.7442 250.687C67.8103 252.863 64.4259 253.044 62.3106 251.11C61.2832 250.204 60.6788 248.874 60.558 247.484ZM70.0464 299.58C68.1124 301.755 64.7885 301.937 62.6128 300.003C60.4371 298.069 60.2558 294.745 62.1897 292.569C64.0632 290.514 67.1455 290.212 69.3212 291.904C69.442 291.965 69.5629 292.086 69.6233 292.146C71.799 294.08 72.0408 297.404 70.0464 299.58ZM108.363 253.528C108.06 254.918 107.275 256.066 106.126 256.852C104.978 257.637 103.528 257.879 102.138 257.637C100.748 257.335 99.539 256.55 98.8138 255.401C98.0281 254.253 97.7864 252.802 98.0281 251.412C98.2698 250.143 98.9346 249.055 99.962 248.33C100.083 248.27 100.204 248.149 100.325 248.089C102.742 246.457 106.066 247.122 107.637 249.599C108.423 250.687 108.665 252.138 108.363 253.528Z" fill="#FF8AE2"/>
<path d="M187.775 136.041V215.574L206.631 196.658V136.041V78.8686L172.304 44.5411L172.183 44.662L172.062 44.5411H153.448L187.775 78.8686V136.041Z" fill="#FF8AE2"/>
<path d="M290.455 90.2909V136.041V307.618V341.945L313.3 364.79L322.728 355.362L309.311 341.945V307.618V136.041V90.2909V78.8686L274.984 44.5411H256.128L290.455 78.8686V90.2909Z" fill="#FF8AE2"/>
<path d="M153.448 44.5411H153.146L153.327 44.662L153.448 44.5411Z" fill="#FF8AE2"/>
<path d="M244.645 207.959L187.775 264.829V387.695L164.87 410.6H183.786L206.631 387.695V264.829L244.645 226.815V207.959Z" fill="#FF8AE2"/>
<path d="M130.543 90.5931L96.2755 124.86H115.131L140.031 100.021L130.543 90.5931Z" fill="#FF8AE2"/>
<path d="M355.061 341.945H336.205L347.628 353.368L324.722 376.273L313.3 387.695L290.455 410.6H309.311L332.156 387.695L343.639 376.273L366.484 353.368L355.061 341.945Z" fill="#FF8AE2"/>
<path d="M313.3 364.79L290.455 341.945V307.618V136.041V90.2909V78.8686L256.128 44.5411L221.8 78.8686L244.645 101.713V158.644L187.775 215.574V136.041V78.8686L153.448 44.5411L153.327 44.662L153.145 44.5411L84.5509 113.196L96.2754 124.86L130.542 90.5931L142.025 102.015V387.695L164.87 410.6L187.775 387.695V264.829L244.645 207.959V307.618V364.79L290.455 410.6L313.3 387.695L324.722 376.273L347.628 353.367L336.205 341.945L313.3 364.79Z" fill="#9C4668"/>
<path d="M166.864 93.8567H162.271V367.147H166.864V93.8567Z" fill="#93C2DB"/>
<path d="M270.935 295.41L266.342 299.519V93.8567H270.935V295.41Z" fill="#93C2DB"/>
<path d="M166.683 262.533L163.178 258.786L266.825 155.138L270.33 158.885L166.683 262.533Z" fill="#93C2DB"/>
<path d="M279.456 262.956C271.418 261.384 266.462 283.443 261.628 304.173C255.221 331.55 255.403 344.181 254.254 370.41C253.771 381.228 254.859 394.524 254.859 394.524C254.859 394.524 263.985 371.438 274.017 357.658C281.45 347.505 289.488 338.742 301.032 334.391C314.871 329.133 329.074 326.111 329.799 318.557C330.041 309.733 318.377 307.013 317.168 305.2C316.261 304.233 316.08 302.662 318.618 300.97C323.695 298.008 329.074 295.651 334.513 294.08C348.715 289.97 372.467 287.432 373.917 279.152C375.609 269.301 361.467 267.005 358.808 264.648C355.907 262.11 354.215 256.308 365.214 254.736C375.428 253.226 388.18 254.011 397.124 252.44C406.069 250.869 418.277 244.1 414.953 237.452C411.629 230.864 394.949 234.37 398.817 225.486C400.992 220.59 420.15 211.646 429.76 206.871C442.391 201.07 452.786 189.829 445.11 179.434C434.171 166.561 399.361 183.906 387.273 191.702C375.247 199.559 370.472 201.855 369.989 195.449C370.412 178.587 364.731 173.632 355.001 183.785C345.331 193.938 338.079 212.008 332.76 221.98C327.442 231.952 324.058 233.1 321.882 230.623C319.706 228.145 321.519 215.695 317.591 214.063C313.663 212.431 303.751 217.75 294.142 248.27C291.362 257.033 289.247 270.51 288.763 272.142C288.038 274.499 286.285 276.614 284.956 275.285C282.478 273.048 283.505 264.285 279.456 262.956C279.396 262.956 279.456 262.956 279.456 262.956Z" fill="#93C2DB"/>
<path d="M247.606 429.637C248.694 415.012 256.007 339.407 292.329 289.91C334.876 231.952 400.751 201.553 401.415 201.251L403.349 205.542C402.684 205.844 337.897 235.82 296.136 292.751C260.6 341.16 253.408 415.616 252.32 430L247.606 429.637Z" fill="#FF8AE2"/>
<path d="M396.185 112.798V88.322H371.709V112.798H396.185Z" fill="#93C2DB"/>
<path d="M96.7798 376.272V351.796H72.3033V376.272H96.7798Z" fill="#93C2DB"/>
<path d="M371.769 137.28V112.803H347.293V137.28H371.769Z" fill="#9C4668"/>
<path d="M68.2937 132.777C68.2937 132.777 53.7892 160.578 22 147.524C22 147.524 34.7519 116.822 68.2937 132.777Z" fill="#93C2DB"/>
<path d="M82.2544 142.81C82.2544 142.81 104.918 168.253 82.2544 191.4C82.1939 191.4 58.201 165.836 82.2544 142.81Z" fill="#93C2DB"/>
<path d="M328.288 102.982C328.288 102.982 337.776 77.7807 324.662 56.4469C308.465 30.1574 316.322 11.1806 321.338 0C321.338 0 347.446 33.1792 350.166 51.9143C352.946 71.0119 347.507 80.9838 328.288 102.982Z" fill="#93C2DB"/>
</g>
<defs>
<clipPath id="clip0">
<rect width="425.588" height="430" fill="white" transform="translate(22)"/>
</clipPath>
</defs>
</svg>
