<?xml version="1.0" encoding="utf-8"?>
<!-- Generator: Adobe Illustrator 22.0.1, SVG Export Plug-In . SVG Version: 6.00 Build 0)  -->
<svg version="1.1" id="Layer_1" xmlns="http://www.w3.org/2000/svg" xmlns:xlink="http://www.w3.org/1999/xlink" x="0px" y="0px"
	 viewBox="0 0 307.4 345.6" style="enable-background:new 0 0 307.4 345.6;" xml:space="preserve">
<style type="text/css">
	.st0{opacity:0.6;fill:#00B39F;}
	.st1{opacity:0.8;fill:#00B39F;}
	.st2{fill:#00B39F;}
</style>
<title>servicemeshinterface-icon-color</title>
<path class="st0" d="M97,238.1l-65.3-65.3l105-105c-8.1,1.4-15.8-4-17.2-12.1c-0.3-1.5-0.3-2.9-0.1-4.4L13.1,157.7
	c8.2-1,15.6,4.8,16.7,12.9s-4.8,15.6-12.9,16.7c-1.5,0.2-3.1,0.1-4.6-0.1l68.4,68.4v-17.4L97,238.1L97,238.1z"/>
<path class="st0" d="M208.3,82.5l-75.2,75.2c0.4,0,0.8-0.1,1.2-0.1c8.2,0,14.9,6.7,14.9,14.9c0,1.1-0.1,2.2-0.3,3.2l76.4-76.4
	C218.4,95,212.6,89.3,208.3,82.5z"/>
<path class="st0" d="M238.7,172.5c0-0.8,0.1-1.7,0.2-2.5l-68.2,68.2H188v16.6l67.4-67.4c-8.1,1-15.6-4.8-16.6-12.9
	C238.8,173.7,238.7,173.1,238.7,172.5z"/>
<circle class="st1" cx="14.9" cy="53.1" r="14.9"/>
<path class="st1" d="M134.3,68c8.2,0,14.8-6.7,14.8-14.9s-6.7-14.8-14.9-14.8c-8.1,0-14.7,6.6-14.8,14.8
	C119.4,61.4,126.1,68,134.3,68z"/>
<path class="st1" d="M29.6,174.9c1.3-8.1-4.2-15.7-12.3-17s-15.7,4.2-17,12.3s4.2,15.7,12.3,17c0.8,0.1,1.5,0.2,2.3,0.2
	C22.2,187.4,28.4,182.1,29.6,174.9z"/>
<path class="st1" d="M134.3,157.6c-0.4,0-0.8,0-1.2,0.1c-8.1,0.7-14.1,7.9-13.4,16s7.9,14.1,16,13.4s14.1-7.9,13.4-16
	C148.5,163.3,142,157.5,134.3,157.6L134.3,157.6z"/>
<path class="st1" d="M253.7,157.6c-8.2,0-14.9,6.7-14.9,14.9s6.7,14.9,14.9,14.9s14.9-6.7,14.9-14.9S261.9,157.6,253.7,157.6
	L253.7,157.6z"/>
<ellipse transform="matrix(0.1602 -0.9871 0.9871 0.1602 -75.069 495.5669)" class="st1" cx="253.7" cy="291.9" rx="14.9" ry="14.9"/>
<circle class="st1" cx="14.9" cy="291.9" r="14.9"/>
<path class="st2" d="M170.8,238.1H80.6v107.4H188V238.1H170.8z M146.2,300.8c-4.9,6.5-14.2,7.9-20.8,2.9c-6.5-4.9-7.9-14.2-2.9-20.8
	c4.9-6.5,14.2-7.9,20.8-2.9c3.7,2.8,5.9,7.2,5.9,11.9C149.2,295.1,148.2,298.2,146.2,300.8L146.2,300.8z"/>
<path class="st1" d="M253.7,0C224,0,200,24,200,53.7s24,53.7,53.7,53.7s53.7-24,53.7-53.7C307.3,24.1,283.3,0,253.7,0z M253.7,68.6
	c-8.2,0-14.9-6.7-14.9-14.9s6.7-14.9,14.9-14.9s14.9,6.7,14.9,14.9l0,0C268.6,62,261.9,68.6,253.7,68.6z"/>
</svg>
