<svg xmlns="http://www.w3.org/2000/svg" id="Layer_1" data-name="Layer 1" viewBox="0 0 400 400"><defs><style>.cls-1{fill:#fff}</style></defs><title>Artboard 2</title><g id="Dark_Blue" data-name="Dark Blue"><path d="M350.5,401.09H50.5a50,50,0,0,1-50-50v-300a50,50,0,0,1,50-50h300a50,50,0,0,1,50,50v300A50,50,0,0,1,350.5,401.09Z" class="cls-1"/></g><g id="surface1"><path d="M215.1,79.39a18.38,18.38,0,0,0-8.1,1.2,20.12,20.12,0,0,0-12.6,25.5l8.4,24.9-48,16.2-7.8-24a20.12,20.12,0,0,0-25.5-12.6c-10.5,3.6-16.5,15-12.9,25.5l7.8,23.7-24.9,8.4A20.45,20.45,0,0,0,78.9,194a20.12,20.12,0,0,0,25.5,12.6l24.9-8.1,16.2,47.7-24,7.8a20.12,20.12,0,0,0-12.6,25.5c3.6,10.5,15,16.5,25.5,12.9l23.7-7.8,8.4,24.6a20.45,20.45,0,0,0,25.8,12.6,20.12,20.12,0,0,0,12.6-25.5l-8.4-24.9,47.7-16.2,7.8,24a20.12,20.12,0,0,0,25.5,12.6c10.5-3.6,16.5-15,12.9-25.5l-7.8-23.7,24.9-8.4a20.45,20.45,0,0,0,12.6-25.8,20.12,20.12,0,0,0-25.5-12.6l-24.9,8.4-16.2-47.7,24-7.8a20.12,20.12,0,0,0,12.6-25.5c-3.6-10.5-15-16.5-25.5-12.9l-23.7,7.8-8.4-24.9A19.86,19.86,0,0,0,215.1,79.39Zm.3,90,16.2,47.7-47.7,16.2-16.2-47.7Z"/></g></svg>