<svg xmlns="http://www.w3.org/2000/svg" id="Layer_1" data-name="Layer 1" viewBox="0 0 400 400"><defs><style>.cls-1{fill:#fff}</style></defs><title>Artboard 5</title><g id="Dark_Blue" data-name="Dark Blue"><path d="M350,400H50A50,50,0,0,1,0,350V50A50,50,0,0,1,50,0H350a50,50,0,0,1,50,50V350A50,50,0,0,1,350,400Z" class="cls-1"/></g><g id="Logo_FIXED" data-name="Logo — FIXED"><path d="M153.6,301.6c94.3,0,145.9-78.2,145.9-145.9,0-2.2,0-4.4-.1-6.6A104.47,104.47,0,0,0,325,122.5a103.93,103.93,0,0,1-29.5,8.1,51.59,51.59,0,0,0,22.6-28.4,102,102,0,0,1-32.6,12.4,51.29,51.29,0,0,0-88.7,35.1,56.68,56.68,0,0,0,1.3,11.7A145.61,145.61,0,0,1,92.4,107.8a51.48,51.48,0,0,0,15.9,68.5,51.87,51.87,0,0,1-23.2-6.4v.7a51.39,51.39,0,0,0,41.1,50.3,51.58,51.58,0,0,1-23.1.9A51.28,51.28,0,0,0,151,257.4a102.85,102.85,0,0,1-63.7,22,98.68,98.68,0,0,1-12.2-.7,145.86,145.86,0,0,0,78.5,22.9"/></g></svg>