<?xml version="1.0" encoding="utf-8"?>
<!-- Generator: Adobe Illustrator 22.0.1, SVG Export Plug-In . SVG Version: 6.00 Build 0)  -->
<svg version="1.1" id="Layer_1" xmlns="http://www.w3.org/2000/svg" xmlns:xlink="http://www.w3.org/1999/xlink" x="0px" y="0px"
	 viewBox="0 0 400 399" style="enable-background:new 0 0 400 399;" xml:space="preserve">
<style type="text/css">
	.st0{fill:#FFFFFF;stroke:#000000;stroke-miterlimit:10;}
</style>
<title>Artboard 1</title>
<g id="_Group_">
	<path id="_Path_" d="M371.1,112.9c-4.1-15.5-16.1-27.6-31.6-31.8C311.7,73.6,200,73.6,200,73.6s-111.7,0-139.6,7.5
		C45,85.3,33,97.4,28.9,112.8c-7.5,28-7.5,86.6-7.5,86.6s0,58.5,7.5,86.6c4.1,15.5,16.1,27.6,31.6,31.8
		c27.9,7.6,139.6,7.6,139.6,7.6s111.7,0,139.6-7.6c15.4-4.2,27.5-16.3,31.6-31.8c7.5-28,7.5-86.6,7.5-86.6S378.6,141,371.1,112.9z"
		/>
	<polygon id="_Path_2" class="st0" points="163.5,252.6 256.9,199.5 163.5,146.4 	"/>
</g>
</svg>
