<svg xmlns="http://www.w3.org/2000/svg" id="Layer_1" data-name="Layer 1" viewBox="0 0 400 399"><defs><style>.cls-1,.cls-2{fill:#fff}.cls-2{stroke:#000;stroke-miterlimit:10}</style></defs><title>Artboard 1</title><g id="Dark_Blue" data-name="Dark Blue"><path d="M350,400.09H50A50,50,0,0,1,0,350.22V51A50,50,0,0,1,50,1.09H350A50,50,0,0,1,400,51V350.22A50,50,0,0,1,350,400.09Z" class="cls-1"/></g><g id="_Group_" data-name="&lt;Group&gt;"><path id="_Path_" d="M358.3,120.44A41.5,41.5,0,0,0,329.1,91c-25.8-6.9-129.1-6.9-129.1-6.9S96.7,84.14,70.9,91a41.5,41.5,0,0,0-29.2,29.4c-6.9,25.9-6.9,80.1-6.9,80.1s0,54.1,6.9,80.1A41.5,41.5,0,0,0,70.9,310c25.8,7,129.1,7,129.1,7s103.3,0,129.1-7a41.5,41.5,0,0,0,29.2-29.4c6.9-25.9,6.9-80.1,6.9-80.1S365.2,146.44,358.3,120.44Z" data-name="&lt;Path&gt;"/><polygon id="_Path_2" points="166.2 249.64 252.6 200.54 166.2 151.44 166.2 249.64" class="cls-2" data-name="&lt;Path&gt;"/></g></svg>