<svg xmlns="http://www.w3.org/2000/svg" width="45.746" height="60" viewBox="0 0 45.746 60"><g id="icon-2" transform="translate(-7.601)"><path id="Path_6930" fill="#52de97" d="M56.17,10.521A6.567,6.567,0,0,0,53.088,6.5L43.36.887A6.617,6.617,0,0,0,34.321,3.31L21.966,24.71a6.615,6.615,0,0,0,2.423,9.038l7.57,4.372a1,1,0,1,0,1-1.732l-7.57-4.372A4.613,4.613,0,0,1,23.7,25.711L36.054,4.31A4.615,4.615,0,0,1,42.36,2.62l9.728,5.616a4.616,4.616,0,0,1,1.688,6.307L47.411,25.567a1,1,0,1,0,1.732,1l6.365-11.024a6.571,6.571,0,0,0,.662-5.022Z" data-name="Path 6930" transform="translate(-3.052)"/><path id="Path_6931" fill="#52de97" d="M39.608,30.251l-8.869-5.12a1,1,0,1,0-1,1.732l8.869,5.12A4.622,4.622,0,0,1,40.3,38.29L27.941,59.69a4.615,4.615,0,0,1-6.3,1.69l-9.727-5.616a4.623,4.623,0,0,1-1.69-6.307l6.365-11.024a1,1,0,1,0-1.732-1L8.486,48.458A6.627,6.627,0,0,0,10.909,57.5l9.728,5.616a6.616,6.616,0,0,0,9.037-2.423l12.355-21.4a6.626,6.626,0,0,0-2.421-9.042Z" data-name="Path 6931" transform="translate(0 -4.003)"/></g></svg>