<svg xmlns="http://www.w3.org/2000/svg" width="61.859" height="60" viewBox="0 0 61.859 60"><path id="icon-1" fill="#52de97" d="M50.991,24.6l10.869-6.21L30.929.825,0,18.389,10.869,24.6,0,30.771l10.869,6.21L0,43.153,30.929,60.825,61.856,43.153,50.991,36.981l10.869-6.21ZM30.929,3.414,57.308,18.395,30.929,33.467,4.549,18.395ZM13.142,25.9,30.926,36.06,48.711,25.9l8.592,4.88L30.929,45.849,4.549,30.777Zm44.166,17.26L30.929,58.23,4.549,43.158l8.593-4.878L30.926,48.442,48.711,38.28Z" transform="translate(0 -0.825)"/></svg>