<svg xmlns="http://www.w3.org/2000/svg" width="69.499" height="60" viewBox="0 0 69.499 60"><g id="icon-3" transform="translate(-0.003 -4.373)"><path id="Path_6932" fill="#52de97" d="M52.983,17.313c-.518,0-1.038.026-1.557.075a20.048,20.048,0,0,0-21.56-12.8A20.4,20.4,0,0,0,12.7,23.1a14.085,14.085,0,0,0-.334,28,1.075,1.075,0,0,0,.37.067h4.171a1.113,1.113,0,0,0,0-2.226h-3.2a11.828,11.828,0,0,1,.016-23.649,1.1,1.1,0,0,0,1.086-1.067A18.225,18.225,0,0,1,30.118,6.8,17.9,17.9,0,0,1,49.68,18.956a1.093,1.093,0,0,0,1.185.737,14.274,14.274,0,0,1,2.119-.155,14.525,14.525,0,0,1,14.343,14.7,14.525,14.525,0,0,1-14.343,14.7l-.03.091a1.063,1.063,0,0,0-.434-.091H47.771a1.113,1.113,0,0,0,0,2.226h4.751a1.063,1.063,0,0,0,.434-.091l.03.091A16.724,16.724,0,0,0,69.5,34.238,16.724,16.724,0,0,0,52.986,17.312Z" data-name="Path 6932" transform="translate(0 0)"/><path id="Path_6933" fill="#52de97" d="M43.245,37.424a1,1,0,0,0,.707-1.707L39.024,30.79v-.008h-.008l-.285-.285a1,1,0,0,0-1.414,0l-.285.285h-.008v.008L32.1,35.717a1,1,0,1,0,1.414,1.414l3.513-3.513V51.879h2V33.618l3.514,3.513A1,1,0,0,0,43.245,37.424Z" data-name="Path 6933" transform="translate(3.391 4.746)"/><path id="Path_6934" fill="#52de97" d="M27.525,52.7l-3.514,3.513V37.954h-2V56.215L18.5,52.7a1,1,0,1,0-1.414,1.414l4.927,4.927v.009h.009l.284.284a1,1,0,0,0,1.414,0l.28-.282h.009v-.009l4.928-4.927A1,1,0,1,0,27.525,52.7Z" data-name="Path 6934" transform="translate(1.79 4.746)"/></g></svg>