<?xml version="1.0" encoding="utf-8"?>
<!-- Generator: Adobe Illustrator 21.1.0, SVG Export Plug-In . SVG Version: 6.00 Build 0)  -->
<svg version="1.1" id="Layer_1" xmlns="http://www.w3.org/2000/svg" xmlns:xlink="http://www.w3.org/1999/xlink" x="0px" y="0px"
	 viewBox="0 0 432 78.1" style="enable-background:new 0 0 432 78.1;" xml:space="preserve">
<style type="text/css">
	.st0{fill:#6D6E71;}
</style>
<g id="XMLID_1_">
	<g>
		<path id="XMLID_633_" d="M105,35c3.4,0,6.2-1.3,8.4-4l4.4,4.6c-3.5,4-7.7,6-12.5,6c-4.8,0-8.7-1.5-11.8-4.5
			c-3.1-3-4.6-6.8-4.6-11.4c0-4.6,1.6-8.5,4.7-11.5c3.2-3.1,7-4.6,11.6-4.6c5.1,0,9.4,1.9,12.8,5.8l-4.3,4.9
			c-2.2-2.7-4.9-4.1-8.2-4.1c-2.6,0-4.8,0.9-6.7,2.6c-1.9,1.7-2.8,4-2.8,6.9s0.9,5.2,2.6,7C100.4,34.1,102.5,35,105,35z"/>
		<path id="XMLID_631_" d="M123.3,41.1V10h6.9v24.9h13.2v6.2H123.3z"/>
		<path id="XMLID_628_" d="M173.9,36.8c-3.1,3.1-7,4.6-11.6,4.6c-4.6,0-8.5-1.5-11.6-4.6c-3.1-3.1-4.7-6.9-4.7-11.4
			c0-4.6,1.6-8.4,4.7-11.4c3.1-3.1,7-4.6,11.6-4.6c4.6,0,8.5,1.5,11.6,4.6c3.1,3.1,4.7,6.9,4.7,11.4C178.6,29.9,177,33.7,173.9,36.8
			z M171.5,25.4c0-2.8-0.9-5.1-2.7-7.1c-1.8-2-4-2.9-6.6-2.9c-2.6,0-4.8,1-6.6,2.9c-1.8,2-2.7,4.3-2.7,7.1c0,2.8,0.9,5.1,2.7,7.1
			c1.8,1.9,4,2.9,6.6,2.9c2.6,0,4.8-1,6.6-2.9C170.6,30.5,171.5,28.2,171.5,25.4z"/>
		<path id="XMLID_626_" d="M192.7,33.1c1.2,1.4,2.7,2.2,4.7,2.2c2,0,3.5-0.7,4.6-2.2c1.1-1.4,1.7-3.4,1.7-5.9V10h6.9v17.4
			c0,4.5-1.2,8-3.7,10.4c-2.5,2.4-5.7,3.6-9.6,3.6c-3.9,0-7.1-1.2-9.6-3.6c-2.5-2.4-3.8-5.9-3.8-10.4V10h6.9v17.2
			C190.9,29.7,191.5,31.6,192.7,33.1z"/>
		<path id="XMLID_623_" d="M241.6,14.1c3,2.7,4.4,6.5,4.4,11.3s-1.4,8.7-4.3,11.5c-2.9,2.8-7.3,4.2-13.2,4.2h-10.6V10h11
			C234.3,10,238.6,11.4,241.6,14.1z M236.5,32.6c1.7-1.6,2.6-3.9,2.6-7c0-3.1-0.9-5.4-2.6-7c-1.7-1.6-4.3-2.5-7.8-2.5h-3.9V35h4.4
			C232.3,35,234.8,34.2,236.5,32.6z"/>
		<path id="XMLID_621_" d="M285.5,10h6.9v31.1h-6.9l-14.8-19.5v19.5h-6.9V10h6.5l15.2,20V10z"/>
		<path id="XMLID_618_" d="M322.2,41.1l-2.9-6.7h-13l-2.9,6.7H296L309.5,10h6.7l13.4,31.1H322.2z M312.8,19.3l-3.9,9h7.8L312.8,19.3
			z"/>
		<path id="XMLID_616_" d="M344.1,16v25.1h-6.9V16h-8.8v-6h24.5v6H344.1z"/>
		<path id="XMLID_614_" d="M358,10h6.9v31.1H358V10z"/>
		<path id="XMLID_612_" d="M384,29.8l7.9-19.8h7.5l-12.5,31.1h-5.9L368.6,10h7.5L384,29.8z"/>
		<path id="XMLID_610_" d="M425.5,10v6.2h-15.5v6.4H424v5.9h-13.9V35h16v6.1h-22.9V10H425.5z"/>
		<path id="XMLID_608_" d="M97.1,67.6c1.9,0,3.5-0.8,4.7-2.3l2.5,2.6c-2,2.2-4.3,3.3-7,3.3s-4.9-0.8-6.6-2.5
			C88.9,67,88,64.8,88,62.2c0-2.6,0.9-4.7,2.7-6.5s3.9-2.6,6.5-2.6c2.9,0,5.2,1.1,7.2,3.3l-2.4,2.7c-1.2-1.5-2.8-2.3-4.6-2.3
			c-1.5,0-2.7,0.5-3.8,1.4c-1,1-1.6,2.2-1.6,3.9s0.5,2.9,1.5,3.9C94.5,67.1,95.7,67.6,97.1,67.6z"/>
		<path id="XMLID_605_" d="M121.6,68.6c-1.8,1.7-3.9,2.6-6.5,2.6c-2.6,0-4.7-0.9-6.5-2.6c-1.8-1.7-2.6-3.9-2.6-6.4
			c0-2.6,0.9-4.7,2.6-6.4c1.8-1.7,3.9-2.6,6.5-2.6c2.6,0,4.7,0.9,6.5,2.6c1.8,1.7,2.6,3.9,2.6,6.4C124.2,64.7,123.4,66.9,121.6,68.6
			z M120.3,62.2c0-1.6-0.5-2.9-1.5-4c-1-1.1-2.2-1.6-3.7-1.6c-1.5,0-2.7,0.5-3.7,1.6c-1,1.1-1.5,2.4-1.5,4c0,1.6,0.5,2.9,1.5,4
			c1,1.1,2.2,1.6,3.7,1.6c1.5,0,2.7-0.5,3.7-1.6C119.8,65.1,120.3,63.8,120.3,62.2z"/>
		<path id="XMLID_603_" d="M143.1,60l-4.7,9.5h-2.3l-4.7-9.5v11h-3.9V53.6h5.3l4.5,9.6l4.5-9.6h5.2V71h-3.9V60z"/>
		<path id="XMLID_600_" d="M163.3,55.1c1.2,1,1.8,2.6,1.8,4.8c0,2.2-0.6,3.7-1.9,4.7c-1.3,1-3.2,1.5-5.7,1.5h-2.3V71h-3.9V53.6h6.2
			C160.1,53.6,162.1,54.1,163.3,55.1z M160.5,62c0.5-0.5,0.7-1.3,0.7-2.3c0-1-0.3-1.7-0.9-2.1c-0.6-0.4-1.5-0.6-2.8-0.6h-2.2v5.9
			h2.6C159.1,62.8,160,62.5,160.5,62z"/>
		<path id="XMLID_598_" d="M172.8,66.5c0.6,0.8,1.5,1.2,2.6,1.2s2-0.4,2.6-1.2c0.6-0.8,1-1.9,1-3.3v-9.6h3.9v9.7
			c0,2.5-0.7,4.5-2.1,5.8c-1.4,1.4-3.2,2-5.4,2c-2.2,0-4-0.7-5.4-2c-1.4-1.4-2.1-3.3-2.1-5.8v-9.7h3.9v9.6
			C171.8,64.6,172.1,65.7,172.8,66.5z"/>
		<path id="XMLID_596_" d="M194.3,57V71h-3.9V57h-4.9v-3.4h13.8V57H194.3z"/>
		<path id="XMLID_594_" d="M202,53.6h3.9V71H202V53.6z"/>
		<path id="XMLID_592_" d="M222.4,53.6h3.9V71h-3.9l-8.3-10.9V71h-3.9V53.6h3.6l8.5,11.2V53.6z"/>
		<path id="XMLID_590_" d="M241.9,62.1h3.9v6.2c-1.7,1.9-4.1,2.9-7.2,2.9c-2.6,0-4.7-0.8-6.4-2.5c-1.7-1.7-2.6-3.8-2.6-6.4
			c0-2.6,0.9-4.7,2.7-6.5c1.8-1.7,3.9-2.6,6.4-2.6c2.5,0,4.7,0.8,6.5,2.5l-2,2.9c-0.8-0.7-1.5-1.2-2.2-1.4c-0.7-0.3-1.4-0.4-2.1-0.4
			c-1.5,0-2.7,0.5-3.7,1.5c-1,1-1.5,2.3-1.5,4c0,1.6,0.5,3,1.5,3.9c1,1,2.1,1.5,3.5,1.5c1.3,0,2.5-0.3,3.4-0.8V62.1z"/>
		<path id="XMLID_588_" d="M267.8,53.6V57h-8.1v3.8h7.7v3.4h-7.7V71h-3.9V53.6H267.8z"/>
		<path id="XMLID_585_" d="M285.8,68.6c-1.8,1.7-3.9,2.6-6.5,2.6c-2.6,0-4.7-0.9-6.5-2.6c-1.8-1.7-2.6-3.9-2.6-6.4
			c0-2.6,0.9-4.7,2.6-6.4c1.8-1.7,3.9-2.6,6.5-2.6c2.6,0,4.7,0.9,6.5,2.6c1.8,1.7,2.6,3.9,2.6,6.4C288.4,64.7,287.5,66.9,285.8,68.6
			z M284.4,62.2c0-1.6-0.5-2.9-1.5-4c-1-1.1-2.2-1.6-3.7-1.6s-2.7,0.5-3.7,1.6c-1,1.1-1.5,2.4-1.5,4c0,1.6,0.5,2.9,1.5,4
			c1,1.1,2.2,1.6,3.7,1.6s2.7-0.5,3.7-1.6C283.9,65.1,284.4,63.8,284.4,62.2z"/>
		<path id="XMLID_583_" d="M296.3,66.5c0.6,0.8,1.5,1.2,2.6,1.2c1.1,0,2-0.4,2.6-1.2c0.6-0.8,1-1.9,1-3.3v-9.6h3.9v9.7
			c0,2.5-0.7,4.5-2.1,5.8c-1.4,1.4-3.2,2-5.4,2c-2.2,0-4-0.7-5.4-2c-1.4-1.4-2.1-3.3-2.1-5.8v-9.7h3.9v9.6
			C295.3,64.6,295.7,65.7,296.3,66.5z"/>
		<path id="XMLID_581_" d="M322.6,53.6h3.9V71h-3.9l-8.3-10.9V71h-3.9V53.6h3.6l8.5,11.2V53.6z"/>
		<path id="XMLID_578_" d="M344.1,55.9c1.7,1.5,2.5,3.6,2.5,6.3c0,2.7-0.8,4.9-2.4,6.4c-1.6,1.6-4.1,2.4-7.4,2.4h-6V53.6h6.2
			C340,53.6,342.4,54.3,344.1,55.9z M341.2,66.2c1-0.9,1.4-2.2,1.4-3.9c0-1.7-0.5-3-1.4-4c-1-0.9-2.4-1.4-4.4-1.4h-2.2v10.6h2.5
			C338.9,67.6,340.3,67.1,341.2,66.2z"/>
		<path id="XMLID_575_" d="M361.8,71l-1.6-3.8h-7.3l-1.6,3.8h-4.1l7.5-17.4h3.8L366,71H361.8z M356.6,58.8l-2.2,5.1h4.4L356.6,58.8z
			"/>
		<path id="XMLID_573_" d="M374.1,57V71h-3.9V57h-4.9v-3.4H379V57H374.1z"/>
		<path id="XMLID_571_" d="M381.9,53.6h3.9V71h-3.9V53.6z"/>
		<path id="XMLID_568_" d="M404.7,68.6c-1.8,1.7-3.9,2.6-6.5,2.6c-2.6,0-4.7-0.9-6.5-2.6c-1.8-1.7-2.6-3.9-2.6-6.4
			c0-2.6,0.9-4.7,2.6-6.4c1.8-1.7,3.9-2.6,6.5-2.6c2.6,0,4.7,0.9,6.5,2.6c1.8,1.7,2.6,3.9,2.6,6.4C407.3,64.7,406.5,66.9,404.7,68.6
			z M403.4,62.2c0-1.6-0.5-2.9-1.5-4c-1-1.1-2.2-1.6-3.7-1.6c-1.5,0-2.7,0.5-3.7,1.6c-1,1.1-1.5,2.4-1.5,4c0,1.6,0.5,2.9,1.5,4
			c1,1.1,2.2,1.6,3.7,1.6c1.5,0,2.7-0.5,3.7-1.6C402.9,65.1,403.4,63.8,403.4,62.2z"/>
		<path id="XMLID_566_" d="M422.8,53.6h3.9V71h-3.9l-8.3-10.9V71h-3.9V53.6h3.6l8.5,11.2V53.6z"/>
	</g>
</g>
<g id="XMLID_197_">
	<g id="XMLID_392_">
		<polygon id="XMLID_397_" points="14.4,50.4 4.8,50.4 4.8,72.7 27.1,72.7 27.1,63.1 14.4,63.1 		"/>
		<polygon id="XMLID_395_" points="62.2,50.4 62.2,63.1 49.5,63.1 49.5,63.1 49.5,72.7 71.8,72.7 71.8,50.4 62.1,50.4 		"/>
		<polygon id="XMLID_394_" points="4.8,28.1 14.5,28.1 14.4,28 14.4,15.3 14.4,15.3 27.1,15.3 27.1,15.4 27.1,5.7 4.8,5.7 		"/>
		<polygon id="XMLID_393_" points="49.5,5.7 49.5,15.3 62.2,15.3 62.2,28.1 71.8,28.1 71.8,5.7 		"/>
	</g>
	<g id="XMLID_200_">
		<polygon id="XMLID_391_" class="st0" points="48.3,28.1 35.5,15.3 49.5,15.3 49.5,5.7 27.1,5.7 27.1,15.4 39.8,28.1 		"/>
		<polygon id="XMLID_390_" class="st0" points="36.8,50.4 28.3,50.4 38.9,60.9 41.1,63.1 36.7,63.1 27.1,63.1 27.1,72.7 49.5,72.7 
			49.5,63.1 43.1,56.7 		"/>
		<polygon id="XMLID_389_" class="st0" points="62.2,28.1 62.2,37.6 62.2,42 60,39.8 49.5,29.2 49.5,37.7 55.8,44 62.1,50.4 
			71.8,50.4 71.8,28.1 		"/>
		<polygon id="XMLID_388_" class="st0" points="27.1,40.7 14.5,28.1 4.8,28.1 4.8,50.4 14.4,50.4 14.4,36.4 27.1,49.2 		"/>
	</g>
</g>
</svg>
