<svg width="100%" viewBox="0 0 1366 795" fill="none" xmlns="http://www.w3.org/2000/svg">
  <defs>
    <style>
      .colorMode1 {
        fill: #000
      }
      .colorMode2{
        fill: #fff
      }
    </style>
  </defs>
  <path
    d="M778.618 250.75L823.651 172.75C833.851 155.083 859.35 155.083 869.55 172.75L914.584 250.75C924.783 268.417 912.034 290.5 891.634 290.5H801.567C781.168 290.5 768.418 268.417 778.618 250.75Z"
    fill="#326CE5" stroke="black" stroke-width="5" />~
  <g clip-path="url(#clip0_12567_19385)">
    <path
      d="M840.956 242.219C841.063 242.199 841.171 242.191 841.28 242.196C841.467 242.205 841.65 242.251 841.819 242.329C842.146 242.479 842.399 242.744 842.526 243.068C842.653 243.391 842.644 243.749 842.501 244.066L842.511 244.08L839.285 251.497C836.199 249.623 833.857 246.823 832.63 243.54L840.942 242.203L840.956 242.219ZM853.89 243.271C853.959 242.978 854.13 242.717 854.375 242.528C854.62 242.339 854.924 242.234 855.239 242.229C855.332 242.228 855.425 242.236 855.516 242.252L855.53 242.236L863.77 243.567C862.533 246.824 860.201 249.602 857.136 251.469L853.943 244.124L853.968 244.096C853.85 243.836 853.822 243.547 853.89 243.271V243.271ZM846.989 246.151C847.109 245.937 847.288 245.759 847.507 245.635C847.725 245.51 847.975 245.445 848.23 245.445C848.484 245.445 848.734 245.511 848.952 245.636C849.17 245.761 849.349 245.94 849.469 246.154H849.476L853.528 253.128C850.626 254.069 847.507 254.221 844.52 253.569C843.966 253.449 843.425 253.305 842.897 253.138L846.958 246.151L846.989 246.151ZM834.162 229.95L840.396 235.261L840.393 235.278C840.584 235.437 840.727 235.643 840.805 235.873C840.884 236.104 840.895 236.35 840.839 236.586C840.782 236.822 840.659 237.039 840.484 237.214C840.308 237.389 840.086 237.516 839.84 237.58L839.833 237.612L831.758 239.827C831.409 236.373 832.253 232.906 834.162 229.95V229.95ZM845.744 230.545C845.732 230.787 845.652 231.021 845.512 231.223C845.371 231.425 845.176 231.587 844.947 231.692C844.717 231.797 844.462 231.84 844.209 231.818C843.956 231.796 843.713 231.71 843.508 231.567L843.483 231.577L836.661 226.973C839.258 224.552 842.618 223.01 846.226 222.584L845.752 230.542L845.744 230.545ZM852.968 231.597C852.762 231.739 852.52 231.826 852.266 231.847C852.013 231.869 851.758 231.825 851.529 231.719C851.3 231.614 851.105 231.452 850.965 231.249C850.826 231.047 850.746 230.813 850.735 230.571L850.7 230.555L850.226 222.584C850.798 222.649 851.367 222.742 851.929 222.863C854.919 223.503 857.662 224.926 859.848 226.971L852.981 231.604L852.968 231.597ZM856.629 237.619C856.383 237.555 856.16 237.429 855.984 237.254C855.807 237.079 855.684 236.862 855.627 236.626C855.571 236.389 855.582 236.143 855.661 235.912C855.74 235.681 855.883 235.476 856.076 235.317L856.069 235.285L862.338 229.948C864.25 232.911 865.071 236.396 864.67 239.853L856.635 237.646L856.629 237.619ZM850.54 239.964L848.227 241.022L845.922 239.966L845.349 237.597L846.945 235.697H849.513L851.113 237.594L850.54 239.964Z"
      fill="white" />
    <path
      d="M809.999 244.632L816.588 217.386C816.765 216.681 817.105 216.023 817.582 215.458C818.059 214.893 818.661 214.436 819.346 214.12L846.019 201.997C846.711 201.683 847.467 201.521 848.233 201.521C848.999 201.521 849.755 201.683 850.446 201.997L877.114 214.126C877.799 214.442 878.402 214.899 878.879 215.464C879.357 216.029 879.696 216.688 879.873 217.392L886.452 244.637C886.614 245.326 886.615 246.04 886.454 246.729C886.406 246.939 886.344 247.145 886.268 247.347C886.139 247.692 885.969 248.022 885.76 248.329C885.67 248.46 885.574 248.588 885.471 248.712L867.012 270.558C866.931 270.653 866.842 270.74 866.754 270.828C866.464 271.122 866.137 271.38 865.781 271.596C865.329 271.866 864.837 272.07 864.322 272.2C863.899 272.31 863.463 272.367 863.024 272.37H862.737L833.423 272.364C833.245 272.363 833.067 272.353 832.89 272.334C832.636 272.306 832.385 272.261 832.138 272.198C831.961 272.153 831.786 272.1 831.615 272.038C831.482 271.99 831.349 271.941 831.22 271.883C831.028 271.795 830.841 271.696 830.661 271.587C830.196 271.309 829.783 270.96 829.436 270.555L828.874 269.889L810.984 248.705C810.641 248.295 810.372 247.835 810.187 247.342C810.109 247.139 810.046 246.932 809.997 246.721C809.836 246.033 809.836 245.318 809.999 244.63L809.999 244.632ZM837.665 255.228C837.59 255.438 837.501 255.643 837.399 255.841C837.562 256.113 837.606 256.435 837.522 256.738C837.134 257.584 836.66 258.392 836.107 259.15C835.798 259.538 835.512 259.942 835.251 260.361C835.187 260.475 835.103 260.65 835.042 260.77C834.927 260.953 834.854 261.157 834.826 261.368C834.799 261.579 834.819 261.794 834.884 261.998C834.949 262.202 835.058 262.39 835.204 262.551C835.35 262.713 835.531 262.843 835.733 262.934C835.935 263.025 836.155 263.075 836.379 263.08C836.603 263.085 836.825 263.046 837.032 262.964C837.239 262.883 837.425 262.761 837.579 262.607C837.734 262.453 837.852 262.269 837.928 262.069C837.989 261.95 838.074 261.792 838.125 261.679C838.308 261.224 838.462 260.759 838.589 260.287C838.866 259.403 839.232 258.547 839.684 257.732C839.881 257.479 840.173 257.31 840.499 257.261C840.55 257.177 840.739 256.847 840.84 256.677C845.588 258.388 850.833 258.375 855.571 256.641L855.933 257.264C856.19 257.302 856.43 257.413 856.621 257.583C857.165 258.433 857.581 259.352 857.857 260.313C857.982 260.785 858.136 261.25 858.317 261.705C858.368 261.817 858.454 261.973 858.515 262.091V262.095L858.517 262.098C858.593 262.298 858.712 262.482 858.866 262.636C859.02 262.791 859.207 262.913 859.414 262.994C859.621 263.076 859.844 263.115 860.068 263.11C860.292 263.104 860.512 263.054 860.714 262.963C860.917 262.871 861.097 262.741 861.243 262.579C861.389 262.417 861.497 262.228 861.562 262.024C861.627 261.82 861.645 261.605 861.617 261.393C861.589 261.182 861.515 260.978 861.399 260.796C861.339 260.675 861.258 260.501 861.195 260.387C860.935 259.967 860.649 259.561 860.339 259.173C859.776 258.394 859.292 257.567 858.895 256.701C858.852 256.407 858.902 256.108 859.037 255.841L858.746 255.179C863.115 252.724 866.389 248.833 867.952 244.239L868.647 244.351C868.917 244.169 869.235 244.062 869.565 244.043C870.517 244.217 871.449 244.478 872.348 244.823C872.814 245.023 873.293 245.197 873.78 245.345C873.895 245.375 874.062 245.405 874.193 245.433C874.204 245.436 874.213 245.441 874.224 245.443C874.232 245.444 874.24 245.445 874.248 245.445C874.46 245.512 874.684 245.535 874.906 245.514C875.128 245.494 875.343 245.429 875.537 245.324C875.731 245.22 875.901 245.078 876.034 244.908C876.167 244.737 876.261 244.543 876.311 244.336C876.361 244.129 876.364 243.914 876.322 243.706C876.279 243.497 876.191 243.299 876.064 243.125C875.936 242.951 875.772 242.804 875.581 242.694C875.391 242.583 875.178 242.512 874.957 242.485L874.934 242.479L874.92 242.476C874.787 242.446 874.616 242.404 874.494 242.381C873.986 242.314 873.474 242.275 872.962 242.264C871.995 242.204 871.037 242.054 870.101 241.817C869.824 241.648 869.589 241.423 869.415 241.158L868.747 240.972C869.472 236.177 868.312 231.296 865.489 227.265L866.001 226.83C866.019 226.515 866.13 226.211 866.321 225.953C867.057 225.352 867.852 224.82 868.696 224.366C869.151 224.144 869.593 223.898 870.019 223.629C870.116 223.56 870.244 223.457 870.35 223.375L870.373 223.36C870.736 223.111 870.982 222.736 871.055 222.317C871.129 221.897 871.025 221.467 870.766 221.12C870.613 220.941 870.418 220.8 870.197 220.707C869.976 220.614 869.735 220.572 869.494 220.584C869.088 220.6 868.698 220.74 868.381 220.983C868.273 221.064 868.124 221.173 868.028 221.252C867.656 221.586 867.305 221.941 866.976 222.314C866.324 222.996 865.603 223.616 864.824 224.165C864.532 224.311 864.192 224.343 863.876 224.253C863.686 224.385 863.494 224.514 863.3 224.642C860.495 221.804 856.863 219.829 852.87 218.97C851.919 218.765 850.955 218.624 849.984 218.548L849.946 217.906C849.698 217.696 849.518 217.423 849.428 217.119C849.393 216.197 849.453 215.274 849.606 214.364C849.707 213.886 849.78 213.404 849.824 212.918C849.828 212.808 849.821 212.655 849.82 212.529C849.82 212.515 849.824 212.501 849.824 212.487C849.846 212.274 849.822 212.06 849.752 211.857C849.682 211.654 849.568 211.467 849.418 211.309C849.268 211.15 849.084 211.024 848.879 210.937C848.674 210.85 848.452 210.805 848.228 210.805C848.004 210.805 847.782 210.85 847.577 210.936C847.372 211.023 847.188 211.149 847.038 211.308C846.887 211.466 846.773 211.653 846.703 211.855C846.633 212.058 846.608 212.273 846.631 212.485C846.631 212.618 846.623 212.795 846.628 212.917C846.671 213.402 846.744 213.885 846.847 214.362C847.001 215.273 847.061 216.196 847.027 217.118C846.964 217.427 846.777 217.699 846.506 217.878C846.5 217.988 846.481 218.354 846.467 218.556C841.421 218.993 836.713 221.159 833.217 224.651L832.61 224.238C832.283 224.291 831.948 224.256 831.641 224.138C830.863 223.588 830.142 222.967 829.489 222.284C829.16 221.911 828.808 221.556 828.435 221.222C828.337 221.142 828.189 221.035 828.081 220.954C827.921 220.803 827.729 220.687 827.519 220.611C827.308 220.536 827.083 220.504 826.859 220.517C826.634 220.529 826.415 220.587 826.215 220.686C826.016 220.784 825.84 220.922 825.7 221.089C825.56 221.257 825.458 221.45 825.402 221.658C825.345 221.865 825.335 222.081 825.372 222.292C825.409 222.504 825.492 222.705 825.617 222.884C825.741 223.062 825.903 223.214 826.092 223.329C826.2 223.411 826.341 223.526 826.444 223.599C826.871 223.869 827.314 224.115 827.77 224.336C828.614 224.79 829.409 225.322 830.144 225.923C830.358 226.162 830.466 226.471 830.444 226.784C830.533 226.862 830.845 227.125 831.01 227.267C828.179 231.284 826.996 236.15 827.685 240.942L827.04 241.121C826.879 241.397 826.641 241.625 826.352 241.78C825.415 242.018 824.457 242.168 823.49 242.229C822.978 242.24 822.467 242.279 821.959 242.345C821.825 242.369 821.631 242.42 821.494 242.45C821.273 242.477 821.06 242.549 820.87 242.659C820.679 242.769 820.515 242.916 820.388 243.091C820.26 243.265 820.172 243.463 820.13 243.671C820.087 243.88 820.091 244.094 820.141 244.301C820.191 244.508 820.285 244.703 820.418 244.873C820.552 245.044 820.721 245.185 820.915 245.29C821.109 245.394 821.324 245.459 821.546 245.479C821.768 245.5 821.992 245.477 822.204 245.41L822.227 245.407C822.238 245.405 822.248 245.399 822.259 245.397C822.39 245.369 822.556 245.342 822.671 245.313C823.158 245.164 823.636 244.988 824.103 244.787C825.002 244.442 825.935 244.181 826.888 244.007C827.217 243.998 827.538 244.111 827.781 244.323C828.008 244.282 828.235 244.244 828.463 244.209C830.007 248.832 833.281 252.754 837.665 255.228V255.228Z"
      fill="white" />
  </g>
  <path
    d="M764.558 322.425L757.152 314.743L764.328 307.475C764.604 307.199 764.466 306.9 764.075 306.9H763.086C762.856 306.9 762.695 306.969 762.534 307.13L755.45 314.26V307.36C755.45 307.061 755.289 306.9 754.99 306.9H754.3C754.001 306.9 753.84 307.061 753.84 307.36V322.54C753.84 322.839 754.001 323 754.3 323H754.99C755.289 323 755.45 322.839 755.45 322.54V315.203L762.764 322.77C762.925 322.954 763.109 323 763.339 323H764.328C764.719 323 764.834 322.724 764.558 322.425ZM774.737 311.5H774.139C773.84 311.5 773.679 311.661 773.679 311.96V317.986C773.679 320.838 771.977 321.804 770.413 321.804C768.872 321.804 767.745 320.838 767.745 319.021V311.96C767.745 311.661 767.584 311.5 767.285 311.5H766.687C766.388 311.5 766.227 311.661 766.227 311.96V319.021C766.227 321.666 767.998 323.276 770.137 323.276C771.517 323.276 772.759 322.862 773.656 321.482V322.54C773.656 322.839 773.817 323 774.116 323H774.714C775.013 323 775.174 322.839 775.174 322.54V311.96C775.174 311.661 775.013 311.5 774.714 311.5H774.737ZM784.571 311.224C782.501 311.224 780.868 312.213 779.925 313.754V307.36C779.925 307.061 779.764 306.9 779.465 306.9H778.867C778.568 306.9 778.407 307.061 778.407 307.36V322.54C778.407 322.839 778.568 323 778.867 323H779.465C779.764 323 779.925 322.839 779.925 322.54V320.769C780.868 322.31 782.501 323.276 784.571 323.276C787.814 323.276 790.505 320.654 790.505 317.25C790.505 313.846 787.814 311.224 784.571 311.224ZM784.456 321.804C781.903 321.804 779.925 319.803 779.925 317.25C779.925 314.697 781.903 312.696 784.456 312.696C787.009 312.696 788.987 314.697 788.987 317.25C788.987 319.803 787.009 321.804 784.456 321.804ZM798.227 311.224C794.662 311.224 792.339 313.869 792.339 317.25C792.339 320.723 794.708 323.276 798.227 323.276C800.573 323.276 802.459 322.057 803.241 320.309C803.356 320.033 803.172 319.849 802.827 319.849H802.091C801.838 319.849 801.677 319.964 801.539 320.171C800.964 321.114 799.791 321.804 798.25 321.804C795.904 321.804 794.202 320.355 793.903 318.009H802.252H803.333C803.609 318.009 803.793 317.871 803.816 317.572V317.296C803.816 314.145 801.746 311.224 798.227 311.224ZM798.227 312.696C800.182 312.696 801.953 314.007 802.229 316.537H793.88C794.179 314.306 795.789 312.696 798.227 312.696ZM810.816 311.339C809.551 311.454 808.424 311.96 807.642 313.271V311.96C807.642 311.661 807.481 311.5 807.182 311.5H806.584C806.285 311.5 806.124 311.661 806.124 311.96V322.54C806.124 322.839 806.285 323 806.584 323H807.182C807.481 323 807.642 322.839 807.642 322.54V316.606C807.642 313.915 809.252 312.903 810.977 312.788C811.161 312.788 811.276 312.604 811.276 312.328V311.776C811.276 311.477 811.115 311.316 810.816 311.339ZM818.416 311.224C817.013 311.224 815.771 311.661 814.874 313.041V311.96C814.874 311.661 814.713 311.5 814.414 311.5H813.816C813.517 311.5 813.356 311.661 813.356 311.96V322.54C813.356 322.839 813.517 323 813.816 323H814.414C814.713 323 814.874 322.839 814.874 322.54V316.514C814.874 313.662 816.576 312.696 818.14 312.696C819.681 312.696 820.808 313.662 820.808 315.479V322.54C820.808 322.839 820.969 323 821.268 323H821.866C822.165 323 822.326 322.839 822.326 322.54V315.479C822.326 312.834 820.555 311.224 818.416 311.224ZM830.458 311.224C826.893 311.224 824.57 313.869 824.57 317.25C824.57 320.723 826.939 323.276 830.458 323.276C832.804 323.276 834.69 322.057 835.472 320.309C835.587 320.033 835.403 319.849 835.058 319.849H834.322C834.069 319.849 833.908 319.964 833.77 320.171C833.195 321.114 832.022 321.804 830.481 321.804C828.135 321.804 826.433 320.355 826.134 318.009H834.483H835.564C835.84 318.009 836.024 317.871 836.047 317.572V317.296C836.047 314.145 833.977 311.224 830.458 311.224ZM830.458 312.696C832.413 312.696 834.184 314.007 834.46 316.537H826.111C826.41 314.306 828.02 312.696 830.458 312.696ZM842.958 311.5H841.026V308.28C841.026 307.981 840.865 307.82 840.566 307.82H839.968C839.669 307.82 839.508 307.981 839.508 308.28V311.5H837.553C837.254 311.5 837.093 311.661 837.093 311.96V312.512C837.093 312.811 837.254 312.972 837.553 312.972H839.508V322.54C839.508 322.839 839.669 323 839.968 323H840.566C840.865 323 841.026 322.839 841.026 322.54V312.972H842.958C843.257 312.972 843.418 312.811 843.418 312.512V311.96C843.418 311.661 843.257 311.5 842.958 311.5ZM850.246 311.224C846.681 311.224 844.358 313.869 844.358 317.25C844.358 320.723 846.727 323.276 850.246 323.276C852.592 323.276 854.478 322.057 855.26 320.309C855.375 320.033 855.191 319.849 854.846 319.849H854.11C853.857 319.849 853.696 319.964 853.558 320.171C852.983 321.114 851.81 321.804 850.269 321.804C847.923 321.804 846.221 320.355 845.922 318.009H854.271H855.352C855.628 318.009 855.812 317.871 855.835 317.572V317.296C855.835 314.145 853.765 311.224 850.246 311.224ZM850.246 312.696C852.201 312.696 853.972 314.007 854.248 316.537H845.899C846.198 314.306 847.808 312.696 850.246 312.696ZM859.316 314.513C859.316 313.225 860.604 312.696 861.823 312.696C862.927 312.696 864.077 313.133 864.284 314.398C864.353 314.674 864.491 314.835 864.767 314.835H865.365C865.664 314.835 865.848 314.674 865.825 314.352C865.595 312.42 863.985 311.224 861.823 311.224C859.5 311.224 857.798 312.627 857.798 314.513C857.798 318.814 864.56 317.066 864.56 319.987C864.56 321.275 863.272 321.804 861.823 321.804C860.512 321.804 859.339 321.367 859.132 320.102C859.063 319.826 858.925 319.665 858.649 319.665H858.051C857.752 319.665 857.568 319.826 857.591 320.148C857.821 322.08 859.454 323.276 861.823 323.276C864.376 323.276 866.078 321.873 866.078 319.987C866.078 315.686 859.316 317.434 859.316 314.513ZM879.417 323.276C882.131 323.276 884.592 321.62 884.592 318.929C884.592 315.962 881.832 315.065 879.394 314.122C877.462 313.386 875.852 312.673 875.852 310.833C875.852 309.131 877.324 308.188 879.095 308.188C880.889 308.188 882.292 309.085 882.499 310.787C882.522 311.063 882.683 311.224 882.959 311.224H883.672C883.971 311.224 884.132 311.063 884.109 310.741C883.879 308.096 881.648 306.624 879.095 306.624C876.588 306.624 874.242 308.165 874.242 310.833C874.242 313.961 876.933 314.789 879.371 315.709C881.28 316.422 882.982 317.181 882.982 318.929C882.982 320.654 881.395 321.712 879.417 321.712C877.255 321.712 875.645 320.7 875.415 318.791C875.392 318.492 875.231 318.331 874.955 318.331H874.242C873.943 318.331 873.782 318.492 873.805 318.814C874.035 321.689 876.519 323.276 879.417 323.276ZM892.316 311.224C888.751 311.224 886.428 313.869 886.428 317.25C886.428 320.723 888.797 323.276 892.316 323.276C894.662 323.276 896.548 322.057 897.33 320.309C897.445 320.033 897.261 319.849 896.916 319.849H896.18C895.927 319.849 895.766 319.964 895.628 320.171C895.053 321.114 893.88 321.804 892.339 321.804C889.993 321.804 888.291 320.355 887.992 318.009H896.341H897.422C897.698 318.009 897.882 317.871 897.905 317.572V317.296C897.905 314.145 895.835 311.224 892.316 311.224ZM892.316 312.696C894.271 312.696 896.042 314.007 896.318 316.537H887.969C888.268 314.306 889.878 312.696 892.316 312.696ZM904.905 311.339C903.64 311.454 902.513 311.96 901.731 313.271V311.96C901.731 311.661 901.57 311.5 901.271 311.5H900.673C900.374 311.5 900.213 311.661 900.213 311.96V322.54C900.213 322.839 900.374 323 900.673 323H901.271C901.57 323 901.731 322.839 901.731 322.54V316.606C901.731 313.915 903.341 312.903 905.066 312.788C905.25 312.788 905.365 312.604 905.365 312.328V311.776C905.365 311.477 905.204 311.316 904.905 311.339ZM915.84 311.5H915.196C914.943 311.5 914.759 311.615 914.667 311.868L911.24 321.344L907.813 311.868C907.721 311.615 907.537 311.5 907.284 311.5H906.64C906.318 311.5 906.157 311.707 906.272 312.029L910.182 322.632C910.274 322.862 910.458 323 910.711 323H911.194H911.769C912.022 323 912.206 322.885 912.298 322.632L916.208 312.029C916.323 311.707 916.162 311.5 915.84 311.5ZM918.709 309.2H919.307C919.606 309.2 919.767 309.039 919.767 308.74V307.36C919.767 307.061 919.606 306.9 919.307 306.9H918.709C918.41 306.9 918.249 307.061 918.249 307.36V308.74C918.249 309.039 918.41 309.2 918.709 309.2ZM918.709 323H919.307C919.606 323 919.767 322.839 919.767 322.54V311.96C919.767 311.661 919.606 311.5 919.307 311.5H918.709C918.41 311.5 918.249 311.661 918.249 311.96V322.54C918.249 322.839 918.41 323 918.709 323ZM933.315 319.32H932.648C932.395 319.32 932.211 319.435 932.096 319.665C931.429 320.953 930.026 321.804 928.347 321.804C925.794 321.804 923.816 319.803 923.816 317.25C923.816 314.697 925.794 312.696 928.347 312.696C930.003 312.696 931.406 313.524 932.096 314.835C932.211 315.065 932.395 315.18 932.648 315.18H933.315C933.637 315.18 933.821 314.973 933.683 314.651C932.855 312.604 930.785 311.224 928.347 311.224C924.874 311.224 922.298 313.846 922.298 317.25C922.298 320.654 924.874 323.276 928.347 323.276C930.785 323.276 932.878 321.896 933.683 319.849C933.821 319.527 933.637 319.32 933.315 319.32ZM941.371 311.224C937.806 311.224 935.483 313.869 935.483 317.25C935.483 320.723 937.852 323.276 941.371 323.276C943.717 323.276 945.603 322.057 946.384 320.309C946.5 320.033 946.316 319.849 945.971 319.849H945.235C944.982 319.849 944.821 319.964 944.683 320.171C944.108 321.114 942.935 321.804 941.394 321.804C939.048 321.804 937.346 320.355 937.047 318.009H945.396H946.477C946.753 318.009 946.937 317.871 946.96 317.572V317.296C946.96 314.145 944.89 311.224 941.371 311.224ZM941.371 312.696C943.326 312.696 945.097 314.007 945.373 316.537H937.024C937.323 314.306 938.933 312.696 941.371 312.696Z"
    class="colorMode2" />
  <g filter="url(#filter0_d_12567_19385)">
    <rect x="919.5" y="271" width="96" height="30" rx="5" class="colorMode1" />
    <path
      d="M929.128 291.196C930.822 291.196 932.418 290.23 932.418 288.102V281.536C932.418 281.326 932.306 281.2 932.082 281.2H930.822C930.612 281.2 930.5 281.326 930.5 281.536V288.102C930.5 288.914 929.996 289.32 929.128 289.32C928.372 289.32 927.882 288.998 927.784 288.2C927.756 287.976 927.644 287.864 927.448 287.864H926.174C925.964 287.864 925.838 287.976 925.852 288.214C926.006 290.314 927.518 291.196 929.128 291.196ZM934.851 283.02H935.999C936.209 283.02 936.321 282.908 936.321 282.698V281.536C936.321 281.326 936.209 281.2 935.999 281.2H934.851C934.641 281.2 934.515 281.326 934.515 281.536V282.698C934.515 282.908 934.641 283.02 934.851 283.02ZM934.851 291H935.999C936.209 291 936.321 290.888 936.321 290.678V284.336C936.321 284.126 936.209 284 935.999 284H934.851C934.641 284 934.515 284.126 934.515 284.336V290.678C934.515 290.888 934.641 291 934.851 291ZM945.572 283.818C944.76 283.818 944.13 284.14 943.654 284.742C943.29 284.14 942.688 283.818 941.96 283.818C941.26 283.818 940.658 284.126 940.28 284.686V284.336C940.28 284.126 940.168 284 939.958 284H938.81C938.6 284 938.474 284.126 938.474 284.336V290.678C938.474 290.888 938.6 291 938.81 291H939.958C940.168 291 940.28 290.888 940.28 290.678V286.674C940.28 285.764 940.826 285.484 941.316 285.484C941.806 285.484 942.212 285.722 942.212 286.422V290.678C942.212 290.888 942.338 291 942.548 291H943.682C943.906 291 944.018 290.888 944.018 290.678V286.674C944.018 285.764 944.564 285.484 945.054 285.484C945.53 285.484 945.95 285.722 945.95 286.422V290.678C945.95 290.888 946.062 291 946.286 291H947.42C947.63 291 947.756 290.888 947.756 290.678V286.282C947.756 284.672 946.902 283.818 945.572 283.818ZM956.805 283.818C955.993 283.818 955.363 284.14 954.887 284.742C954.523 284.14 953.921 283.818 953.193 283.818C952.493 283.818 951.891 284.126 951.513 284.686V284.336C951.513 284.126 951.401 284 951.191 284H950.043C949.833 284 949.707 284.126 949.707 284.336V290.678C949.707 290.888 949.833 291 950.043 291H951.191C951.401 291 951.513 290.888 951.513 290.678V286.674C951.513 285.764 952.059 285.484 952.549 285.484C953.039 285.484 953.445 285.722 953.445 286.422V290.678C953.445 290.888 953.571 291 953.781 291H954.915C955.139 291 955.251 290.888 955.251 290.678V286.674C955.251 285.764 955.797 285.484 956.287 285.484C956.763 285.484 957.183 285.722 957.183 286.422V290.678C957.183 290.888 957.295 291 957.519 291H958.653C958.863 291 958.989 290.888 958.989 290.678V286.282C958.989 284.672 958.135 283.818 956.805 283.818ZM964.933 284.28L963.589 288.41L962.021 284.266C961.965 284.098 961.839 284 961.657 284H960.425C960.173 284 960.075 284.168 960.159 284.392L962.679 290.902L961.825 293.436C961.741 293.674 961.867 293.8 962.105 293.8H963.337C963.519 293.8 963.673 293.73 963.729 293.534L966.809 284.378C966.893 284.14 966.781 284 966.543 284H965.297C965.115 284 964.989 284.098 964.933 284.28ZM983.503 281.2H982.187C981.991 281.2 981.865 281.312 981.823 281.494L979.933 288.55L978.057 281.494C978.015 281.312 977.889 281.2 977.693 281.2H976.573C976.335 281.2 976.237 281.34 976.293 281.578L976.867 283.566L975.467 288.55L973.577 281.494C973.535 281.312 973.409 281.2 973.213 281.2H971.897C971.659 281.2 971.547 281.34 971.617 281.578L974.221 290.72C974.263 290.916 974.403 291 974.585 291H976.139C976.321 291 976.447 290.916 976.503 290.72L977.707 286.52L978.897 290.72C978.953 290.916 979.079 291 979.275 291H980.815C980.997 291 981.137 290.916 981.193 290.72L983.783 281.578C983.853 281.34 983.741 281.2 983.503 281.2ZM987.961 291.196C990.005 291.196 991.657 289.586 991.657 287.5C991.657 285.428 990.005 283.818 987.961 283.818C985.903 283.818 984.251 285.428 984.251 287.5C984.251 289.586 985.903 291.196 987.961 291.196ZM987.961 289.432C986.883 289.432 986.057 288.634 986.057 287.5C986.057 286.366 986.883 285.568 987.961 285.568C989.025 285.568 989.851 286.366 989.851 287.5C989.851 288.634 989.025 289.432 987.961 289.432ZM997.137 283.818C996.269 283.818 995.625 284.14 995.233 284.728V284.336C995.233 284.126 995.121 284 994.897 284H993.763C993.553 284 993.427 284.126 993.427 284.336V290.678C993.427 290.888 993.553 291 993.763 291H994.897C995.121 291 995.233 290.888 995.233 290.678V286.954C995.233 285.904 995.793 285.484 996.493 285.484C997.137 285.484 997.613 285.862 997.613 286.674V290.678C997.613 290.888 997.725 291 997.935 291H999.083C999.293 291 999.419 290.888 999.419 290.678V286.534C999.419 284.812 998.439 283.818 997.137 283.818ZM1008.17 284H1007.08C1006.87 284 1006.74 284.126 1006.74 284.336V284.868C1006.24 284.224 1005.48 283.818 1004.43 283.818C1002.55 283.818 1001.01 285.428 1001.01 287.402C1001.01 289.376 1002.55 290.986 1004.43 290.986C1005.48 290.986 1006.24 290.58 1006.74 289.936V290.678C1006.74 291.77 1006.05 292.386 1004.93 292.386C1004.01 292.386 1003.45 291.98 1003.3 291.49C1003.23 291.308 1003.13 291.196 1002.93 291.196H1001.78C1001.57 291.196 1001.43 291.322 1001.45 291.546C1001.66 293.142 1003.24 293.996 1004.93 293.996C1006.68 293.996 1008.5 292.974 1008.5 290.678V284.336C1008.5 284.126 1008.39 284 1008.17 284ZM1004.78 289.306C1003.65 289.306 1002.82 288.508 1002.82 287.402C1002.82 286.282 1003.65 285.484 1004.78 285.484C1005.91 285.484 1006.74 286.282 1006.74 287.402C1006.74 288.508 1005.91 289.306 1004.78 289.306Z"
      class="colorMode2" />
    <path
      d="M903.714 240.919C903.26 240.919 902.824 241.097 902.502 241.413C902.181 241.73 902 242.159 902 242.607V271.306C902 271.754 902.181 272.183 902.502 272.5C902.824 272.817 903.26 272.995 903.714 272.995C903.979 272.994 904.241 272.933 904.478 272.816C904.715 272.7 904.921 272.53 905.08 272.322L910.434 266.443L911 265.588C913.128 264.877 911 265.608 912.5 265.115C913.738 264.561 912.019 265.266 914 264.601L914.753 264.62L924.286 264.554C924.74 264.554 925.176 264.376 925.498 264.059C925.819 263.743 926 263.313 926 262.865C926 262.614 925.943 262.365 925.833 262.138C925.723 261.911 925.562 261.711 925.364 261.553L905.057 241.559C904.897 241.359 904.692 241.198 904.46 241.087C904.227 240.977 903.973 240.919 903.714 240.919Z"
      class="colorMode1" />
  </g>
  <defs>
    <filter id="filter0_d_12567_19385" x="898" y="240.919" width="121.5" height="68.0806" filterUnits="userSpaceOnUse"
      color-interpolation-filters="sRGB">
      <feFlood flood-opacity="0" result="BackgroundImageFix" />
      <feColorMatrix in="SourceAlpha" type="matrix" values="0 0 0 0 0 0 0 0 0 0 0 0 0 0 0 0 0 0 127 0"
        result="hardAlpha" />
      <feOffset dy="4" />
      <feGaussianBlur stdDeviation="2" />
      <feComposite in2="hardAlpha" operator="out" />
      <feColorMatrix type="matrix" values="0 0 0 0 0 0 0 0 0 0 0 0 0 0 0 0 0 0 0.25 0" />
      <feBlend mode="normal" in2="BackgroundImageFix" result="effect1_dropShadow_12567_19385" />
      <feBlend mode="normal" in="SourceGraphic" in2="effect1_dropShadow_12567_19385" result="shape" />
    </filter>
    <clipPath id="clip0_12567_19385">
      <rect width="78" height="72" fill="white" transform="matrix(-1 0 0 1 888.523 200)" />
    </clipPath>
  </defs>
</svg>