<svg width="1366" height="795" viewBox="0 0 1366 795" fill="none" xmlns="http://www.w3.org/2000/svg">
<path d="M1112.59 310.9H1108.45H1107.3C1107 310.9 1106.84 311.061 1106.84 311.36V326.54C1106.84 326.839 1107 327 1107.3 327H1107.99C1108.29 327 1108.45 326.839 1108.45 326.54V320.56H1112.59C1115.26 320.56 1117.42 318.375 1117.42 315.73C1117.42 313.062 1115.26 310.9 1112.59 310.9ZM1112.59 319.042H1108.45V312.418H1112.59C1114.36 312.418 1115.81 313.89 1115.81 315.73C1115.81 317.547 1114.36 319.042 1112.59 319.042ZM1124.39 327.276C1127.75 327.276 1130.44 324.654 1130.44 321.25C1130.44 317.846 1127.75 315.224 1124.39 315.224C1121.03 315.224 1118.34 317.846 1118.34 321.25C1118.34 324.654 1121.03 327.276 1124.39 327.276ZM1124.39 325.804C1121.84 325.804 1119.86 323.803 1119.86 321.25C1119.86 318.697 1121.84 316.696 1124.39 316.696C1126.94 316.696 1128.92 318.697 1128.92 321.25C1128.92 323.803 1126.94 325.804 1124.39 325.804ZM1143.93 310.9H1143.33C1143.03 310.9 1142.87 311.061 1142.87 311.36V317.754C1141.9 316.213 1140.27 315.224 1138.22 315.224C1134.98 315.224 1132.29 317.846 1132.29 321.25C1132.29 324.654 1134.98 327.276 1138.22 327.276C1140.27 327.276 1141.9 326.31 1142.87 324.769V326.54C1142.87 326.839 1143.03 327 1143.33 327H1143.93C1144.23 327 1144.39 326.839 1144.39 326.54V311.36C1144.39 311.061 1144.23 310.9 1143.93 310.9ZM1138.34 325.804C1135.79 325.804 1133.81 323.803 1133.81 321.25C1133.81 318.697 1135.79 316.696 1138.34 316.696C1140.89 316.696 1142.87 318.697 1142.87 321.25C1142.87 323.803 1140.89 325.804 1138.34 325.804Z" fill="white"/>
<rect x="1065.5" y="170.5" width="119" height="119" rx="22.5" fill="#326CE5" stroke="#9D0FB0" stroke-width="5"/>
<path d="M1126.81 186.329C1126.05 186.367 1125.31 186.55 1124.63 186.869L1094.96 200.762C1094.19 201.122 1093.52 201.645 1092.99 202.293C1092.46 202.94 1092.08 203.696 1091.89 204.504L1084.57 235.713C1084.4 236.432 1084.38 237.176 1084.52 237.903C1084.65 238.629 1084.93 239.322 1085.34 239.941C1085.44 240.092 1085.55 240.239 1085.67 240.38L1106.2 265.404C1106.73 266.052 1107.41 266.575 1108.18 266.934C1108.94 267.293 1109.78 267.48 1110.64 267.479L1143.57 267.472C1144.42 267.473 1145.26 267.287 1146.03 266.928C1146.8 266.569 1147.47 266.047 1148.01 265.401L1168.53 240.372C1169.07 239.725 1169.44 238.969 1169.63 238.16C1169.82 237.352 1169.82 236.513 1169.63 235.705L1162.3 204.496C1162.11 203.689 1161.74 202.933 1161.2 202.285C1160.67 201.637 1160 201.114 1159.23 200.755L1129.56 186.869C1128.7 186.468 1127.75 186.282 1126.81 186.329V186.329Z" fill="white"/>
<path d="M1127.1 196.95C1126.12 196.95 1125.33 197.816 1125.33 198.884C1125.33 198.9 1125.33 198.916 1125.33 198.932C1125.33 199.077 1125.32 199.252 1125.33 199.379C1125.35 199.995 1125.49 200.466 1125.57 201.034C1125.72 202.248 1125.84 203.255 1125.77 204.191C1125.69 204.544 1125.43 204.867 1125.19 205.091L1125.15 205.827C1124.08 205.914 1123.01 206.072 1121.94 206.311C1117.33 207.337 1113.36 209.665 1110.33 212.808C1110.14 212.676 1109.79 212.435 1109.69 212.361C1109.37 212.403 1109.05 212.499 1108.64 212.261C1107.84 211.737 1107.12 211.013 1106.24 210.141C1105.84 209.724 1105.55 209.327 1105.07 208.925C1104.97 208.834 1104.8 208.71 1104.68 208.616C1104.31 208.325 1103.87 208.173 1103.44 208.159C1102.9 208.141 1102.37 208.35 1102.03 208.773C1101.42 209.524 1101.61 210.673 1102.46 211.339C1102.47 211.345 1102.48 211.351 1102.49 211.357C1102.61 211.45 1102.75 211.569 1102.86 211.647C1103.36 212.013 1103.83 212.201 1104.33 212.491C1105.39 213.134 1106.27 213.667 1106.97 214.31C1107.24 214.595 1107.29 215.097 1107.33 215.314L1107.9 215.812C1104.85 220.306 1103.44 225.858 1104.27 231.514L1103.53 231.726C1103.33 231.974 1103.06 232.364 1102.77 232.481C1101.85 232.763 1100.82 232.866 1099.58 232.994C1099 233.041 1098.5 233.013 1097.88 233.128C1097.74 233.153 1097.55 233.201 1097.41 233.235C1097.4 233.237 1097.4 233.238 1097.39 233.239C1097.38 233.241 1097.37 233.245 1097.36 233.247C1096.32 233.494 1095.64 234.437 1095.86 235.366C1096.08 236.296 1097.1 236.861 1098.15 236.638C1098.16 236.637 1098.17 236.636 1098.18 236.635C1098.19 236.632 1098.2 236.626 1098.21 236.623C1098.36 236.592 1098.54 236.557 1098.67 236.523C1099.28 236.364 1099.72 236.129 1100.27 235.924C1101.44 235.511 1102.41 235.166 1103.36 235.032C1103.76 235.001 1104.18 235.271 1104.38 235.385L1105.16 235.255C1106.94 240.667 1110.67 245.042 1115.4 247.787L1115.08 248.546C1115.19 248.841 1115.32 249.239 1115.23 249.53C1114.89 250.406 1114.3 251.331 1113.63 252.362C1113.3 252.838 1112.97 253.208 1112.67 253.753C1112.6 253.883 1112.51 254.083 1112.45 254.221C1111.99 255.178 1112.33 256.281 1113.2 256.694C1114.08 257.111 1115.18 256.671 1115.65 255.712C1115.65 255.711 1115.66 255.71 1115.66 255.709C1115.66 255.708 1115.66 255.706 1115.66 255.705C1115.72 255.569 1115.82 255.39 1115.88 255.262C1116.13 254.698 1116.21 254.213 1116.39 253.667C1116.86 252.51 1117.12 251.297 1117.76 250.54C1117.94 250.333 1118.23 250.254 1118.53 250.175L1118.93 249.461C1123.05 251.011 1127.67 251.427 1132.27 250.402C1133.32 250.168 1134.34 249.865 1135.32 249.502C1135.43 249.698 1135.64 250.076 1135.7 250.171C1136 250.268 1136.34 250.318 1136.61 250.711C1137.09 251.521 1137.42 252.479 1137.82 253.637C1138 254.184 1138.09 254.668 1138.34 255.233C1138.4 255.361 1138.49 255.543 1138.56 255.679C1139.03 256.641 1140.13 257.082 1141.02 256.665C1141.89 256.251 1142.23 255.148 1141.77 254.191C1141.7 254.054 1141.61 253.853 1141.54 253.723C1141.25 253.178 1140.91 252.812 1140.59 252.336C1139.91 251.305 1139.36 250.449 1139.01 249.573C1138.87 249.121 1139.04 248.84 1139.15 248.546C1139.08 248.471 1138.94 248.044 1138.85 247.843C1143.77 245 1147.39 240.462 1149.09 235.221C1149.32 235.257 1149.72 235.326 1149.85 235.352C1150.12 235.179 1150.36 234.954 1150.84 234.991C1151.79 235.125 1152.77 235.47 1153.94 235.883C1154.49 236.088 1154.93 236.326 1155.53 236.486C1155.66 236.519 1155.85 236.551 1155.99 236.582C1156 236.585 1156.02 236.591 1156.03 236.594C1156.04 236.595 1156.05 236.596 1156.05 236.597C1157.11 236.82 1158.13 236.255 1158.35 235.325C1158.56 234.396 1157.89 233.453 1156.84 233.206C1156.69 233.172 1156.47 233.114 1156.33 233.087C1155.71 232.972 1155.21 233 1154.62 232.953C1153.38 232.825 1152.35 232.722 1151.44 232.44C1151.07 232.298 1150.8 231.863 1150.67 231.685L1149.96 231.48C1150.33 228.844 1150.23 226.1 1149.58 223.354C1148.93 220.583 1147.79 218.049 1146.26 215.816C1146.44 215.652 1146.79 215.351 1146.89 215.262C1146.91 214.95 1146.89 214.622 1147.22 214.277C1147.92 213.634 1148.8 213.101 1149.86 212.458C1150.37 212.167 1150.83 211.98 1151.34 211.614C1151.45 211.531 1151.61 211.4 1151.73 211.305C1152.58 210.639 1152.78 209.49 1152.16 208.739C1151.55 207.988 1150.37 207.917 1149.52 208.583C1149.39 208.677 1149.23 208.8 1149.12 208.892C1148.64 209.294 1148.35 209.691 1147.95 210.108C1147.07 210.979 1146.35 211.707 1145.55 212.231C1145.21 212.428 1144.71 212.36 1144.48 212.346L1143.8 212.819C1139.95 208.861 1134.71 206.33 1129.06 205.838C1129.04 205.606 1129.02 205.187 1129.02 205.061C1128.79 204.844 1128.51 204.659 1128.44 204.191C1128.36 203.255 1128.49 202.248 1128.64 201.034C1128.72 200.466 1128.86 199.995 1128.88 199.379C1128.89 199.239 1128.88 199.035 1128.88 198.884C1128.88 197.816 1128.08 196.95 1127.1 196.95H1127.1ZM1124.88 210.45L1124.35 219.58L1124.31 219.598C1124.28 220.415 1123.59 221.067 1122.75 221.067C1122.4 221.067 1122.09 220.959 1121.83 220.773L1121.81 220.781L1114.17 215.474C1116.52 213.212 1119.52 211.54 1122.98 210.77C1123.62 210.629 1124.25 210.525 1124.88 210.45ZM1129.33 210.45C1133.37 210.937 1137.11 212.73 1139.97 215.478L1132.38 220.751L1132.35 220.74C1131.68 221.222 1130.73 221.103 1130.21 220.457C1129.99 220.193 1129.88 219.882 1129.86 219.569L1129.86 219.565L1129.33 210.45ZM1111.4 218.884L1118.38 224.998L1118.37 225.035C1119 225.572 1119.09 226.502 1118.57 227.148C1118.35 227.412 1118.06 227.589 1117.76 227.672L1117.75 227.702L1108.81 230.231C1108.35 226.153 1109.33 222.189 1111.4 218.884ZM1142.75 218.888C1143.79 220.534 1144.57 222.373 1145.04 224.366C1145.5 226.335 1145.62 228.301 1145.43 230.201L1136.44 227.665L1136.43 227.627C1135.63 227.412 1135.13 226.61 1135.32 225.805C1135.4 225.475 1135.58 225.197 1135.82 224.991L1135.81 224.972L1142.75 218.888H1142.75ZM1125.67 225.47H1128.53L1130.3 227.646L1129.67 230.361L1127.1 231.569L1124.53 230.357L1123.89 227.642L1125.67 225.47ZM1134.83 232.916C1134.95 232.91 1135.07 232.92 1135.19 232.942L1135.21 232.923L1144.45 234.455C1143.1 238.182 1140.51 241.41 1137.05 243.57L1133.46 235.073L1133.47 235.058C1133.14 234.307 1133.47 233.426 1134.23 233.068C1134.43 232.976 1134.63 232.926 1134.83 232.916H1134.83ZM1119.3 232.953C1120.01 232.963 1120.64 233.443 1120.8 234.147C1120.88 234.476 1120.84 234.803 1120.72 235.091L1120.74 235.125L1117.19 243.537C1113.87 241.448 1111.22 238.322 1109.81 234.485L1118.98 232.96L1118.99 232.979C1119.09 232.96 1119.2 232.951 1119.3 232.953V232.953ZM1127.04 236.638C1127.29 236.629 1127.54 236.679 1127.78 236.791C1128.09 236.937 1128.33 237.168 1128.48 237.445H1128.51L1133.03 245.448C1132.45 245.641 1131.84 245.806 1131.23 245.943C1127.77 246.712 1124.32 246.479 1121.2 245.437L1125.71 237.449H1125.72C1125.99 236.953 1126.5 236.658 1127.04 236.638Z" fill="#326CE5" stroke="#9D0FB0" stroke-width="0.25"/>
<g filter="url(#filter0_d_12744_17535)">
<rect x="1196.5" y="288.373" width="64" height="30" rx="5" fill="#9D0FB0"/>
<path d="M1206.92 308.569C1208.74 308.569 1210.29 307.575 1210.29 305.699C1210.29 303.627 1208.44 303.123 1207.01 302.605C1206.12 302.269 1205.45 301.961 1205.45 301.233C1205.45 300.673 1205.91 300.267 1206.71 300.267C1207.46 300.267 1207.94 300.575 1208.06 301.233C1208.09 301.443 1208.2 301.541 1208.4 301.541H1209.66C1209.88 301.541 1210.01 301.429 1210 301.205C1209.83 299.273 1208.32 298.391 1206.71 298.391C1205.07 298.391 1203.51 299.357 1203.51 301.233C1203.51 303.319 1205.24 303.879 1206.65 304.369C1207.57 304.705 1208.36 304.999 1208.36 305.699C1208.36 306.273 1207.9 306.693 1206.92 306.693C1205.96 306.693 1205.4 306.343 1205.29 305.685C1205.25 305.461 1205.15 305.363 1204.94 305.363H1203.68C1203.47 305.363 1203.35 305.475 1203.36 305.699C1203.51 307.659 1205.1 308.569 1206.92 308.569ZM1214.76 301.191C1213.32 301.191 1212.1 301.975 1211.92 303.417C1211.91 303.641 1212.05 303.753 1212.26 303.753H1213.38C1213.57 303.753 1213.64 303.655 1213.73 303.459C1213.84 303.081 1214.23 302.857 1214.76 302.857C1215.42 302.857 1215.84 303.207 1215.84 304.033V304.789C1215.44 304.425 1214.83 304.159 1213.95 304.159C1212.71 304.159 1211.59 304.901 1211.59 306.371C1211.59 307.841 1212.71 308.569 1213.95 308.569C1214.83 308.569 1215.44 308.261 1215.84 307.771V308.051C1215.84 308.261 1215.97 308.387 1216.18 308.387H1217.27C1217.49 308.387 1217.61 308.261 1217.61 308.051V303.935C1217.61 302.115 1216.3 301.191 1214.76 301.191ZM1214.55 307.239C1213.77 307.239 1213.39 306.875 1213.39 306.371C1213.39 305.867 1213.77 305.503 1214.55 305.503C1215.35 305.503 1215.84 305.825 1215.84 306.371C1215.84 306.875 1215.35 307.239 1214.55 307.239ZM1222.96 301.275C1222.26 301.359 1221.69 301.723 1221.38 302.437V301.709C1221.38 301.499 1221.27 301.373 1221.06 301.373H1219.91C1219.7 301.373 1219.57 301.499 1219.57 301.709V308.051C1219.57 308.261 1219.7 308.373 1219.91 308.373H1221.06C1221.27 308.373 1221.38 308.261 1221.38 308.051V304.929C1221.38 303.683 1222.19 303.235 1223.04 303.235C1223.21 303.235 1223.3 303.123 1223.3 302.913V301.583C1223.3 301.373 1223.18 301.233 1222.96 301.275ZM1227.45 301.191C1226.01 301.191 1224.79 301.975 1224.61 303.417C1224.6 303.641 1224.74 303.753 1224.95 303.753H1226.07C1226.26 303.753 1226.33 303.655 1226.42 303.459C1226.53 303.081 1226.92 302.857 1227.45 302.857C1228.11 302.857 1228.53 303.207 1228.53 304.033V304.789C1228.13 304.425 1227.52 304.159 1226.64 304.159C1225.4 304.159 1224.28 304.901 1224.28 306.371C1224.28 307.841 1225.4 308.569 1226.64 308.569C1227.52 308.569 1228.13 308.261 1228.53 307.771V308.051C1228.53 308.261 1228.66 308.387 1228.87 308.387H1229.96C1230.18 308.387 1230.3 308.261 1230.3 308.051V303.935C1230.3 302.115 1228.99 301.191 1227.45 301.191ZM1227.24 307.239C1226.46 307.239 1226.08 306.875 1226.08 306.371C1226.08 305.867 1226.46 305.503 1227.24 305.503C1228.04 305.503 1228.53 305.825 1228.53 306.371C1228.53 306.875 1228.04 307.239 1227.24 307.239ZM1241.58 306.525H1238.28V298.909C1238.28 298.699 1238.17 298.573 1237.94 298.573H1236.68C1236.47 298.573 1236.36 298.699 1236.36 298.909V308.051C1236.36 308.261 1236.47 308.373 1236.68 308.373H1237.34H1241.58C1241.81 308.373 1241.92 308.261 1241.92 308.051V306.861C1241.92 306.651 1241.81 306.525 1241.58 306.525ZM1243.74 300.393H1244.89C1245.1 300.393 1245.21 300.281 1245.21 300.071V298.909C1245.21 298.699 1245.1 298.573 1244.89 298.573H1243.74C1243.53 298.573 1243.41 298.699 1243.41 298.909V300.071C1243.41 300.281 1243.53 300.393 1243.74 300.393ZM1243.74 308.373H1244.89C1245.1 308.373 1245.21 308.261 1245.21 308.051V301.709C1245.21 301.499 1245.1 301.373 1244.89 301.373H1243.74C1243.53 301.373 1243.41 301.499 1243.41 301.709V308.051C1243.41 308.261 1243.53 308.373 1243.74 308.373ZM1251.08 301.191C1250.21 301.191 1249.56 301.513 1249.17 302.101V301.709C1249.17 301.499 1249.06 301.373 1248.84 301.373H1247.7C1247.49 301.373 1247.37 301.499 1247.37 301.709V308.051C1247.37 308.261 1247.49 308.373 1247.7 308.373H1248.84C1249.06 308.373 1249.17 308.261 1249.17 308.051V304.327C1249.17 303.277 1249.73 302.857 1250.43 302.857C1251.08 302.857 1251.55 303.235 1251.55 304.047V308.051C1251.55 308.261 1251.66 308.373 1251.87 308.373H1253.02C1253.23 308.373 1253.36 308.261 1253.36 308.051V303.907C1253.36 302.185 1252.38 301.191 1251.08 301.191Z" fill="white"/>
<path d="M1178.71 261C1178.26 261 1177.82 261.178 1177.5 261.494C1177.18 261.811 1177 262.24 1177 262.688V291.387C1177 291.835 1177.18 292.265 1177.5 292.581C1177.82 292.898 1178.26 293.076 1178.71 293.076C1178.98 293.075 1179.24 293.014 1179.48 292.897C1179.71 292.781 1179.92 292.611 1180.08 292.403L1185.43 286.524L1186 285.669C1188.13 284.958 1186 285.689 1187.5 285.196C1188.74 284.642 1187.02 285.347 1189 284.682L1189.75 284.701L1199.29 284.635C1199.74 284.635 1200.18 284.457 1200.5 284.14C1200.82 283.824 1201 283.394 1201 282.946C1201 282.695 1200.94 282.446 1200.83 282.219C1200.72 281.992 1200.56 281.792 1200.36 281.634L1180.06 261.64C1179.9 261.44 1179.69 261.279 1179.46 261.169C1179.23 261.058 1178.97 261 1178.71 261Z" fill="#9D0FB0"/>
</g>
<defs>
<filter id="filter0_d_12744_17535" x="1173" y="261" width="91.5" height="65.3726" filterUnits="userSpaceOnUse" color-interpolation-filters="sRGB">
<feFlood flood-opacity="0" result="BackgroundImageFix"/>
<feColorMatrix in="SourceAlpha" type="matrix" values="0 0 0 0 0 0 0 0 0 0 0 0 0 0 0 0 0 0 127 0" result="hardAlpha"/>
<feOffset dy="4"/>
<feGaussianBlur stdDeviation="2"/>
<feComposite in2="hardAlpha" operator="out"/>
<feColorMatrix type="matrix" values="0 0 0 0 0 0 0 0 0 0 0 0 0 0 0 0 0 0 0.25 0"/>
<feBlend mode="normal" in2="BackgroundImageFix" result="effect1_dropShadow_12744_17535"/>
<feBlend mode="normal" in="SourceGraphic" in2="effect1_dropShadow_12744_17535" result="shape"/>
</filter>
</defs>
</svg>
