<?xml version="1.0" encoding="UTF-8" standalone="no"?>
<svg
   viewBox="0 0 735 593.5"
   version="1.1"
   id="svg10"
   xmlns="http://www.w3.org/2000/svg"
   xmlns:svg="http://www.w3.org/2000/svg">
  <defs
     id="defs14" />
  <path
     id="path2"
     style="fill:#ffffff"
     d="M 304.01562 0 A 15.022 15.022 0 0 0 297.49609 1.4882812 L 65.748047 113.0957 A 15.035 15.035 0 0 0 57.613281 123.28906 L 0.37695312 374.06445 A 15.02 15.02 0 0 0 3.2792969 386.77539 L 163.6543 587.88477 A 15.038 15.038 0 0 0 175.40234 593.54102 L 432.63086 593.54102 C 437.20184 593.54102 441.52497 591.45675 444.37695 587.88477 L 604.75391 386.77539 A 15.023 15.023 0 0 0 607.65625 374.06445 L 590.9375 300.81836 L 539.41797 300.81836 L 539.41602 300.81836 C 535.29907 300.81737 531.30994 299.36163 528.1582 296.71289 L 453.89062 234.40234 C 450.73504 231.757 448.61084 228.07682 447.89844 224.02148 L 431.06445 128.54492 C 430.34681 124.48869 431.08263 120.30349 433.14258 116.73633 L 458.53125 72.761719 L 310.53516 1.4882812 A 15.022 15.022 0 0 0 304.01562 0 z M 221.8457 210.5332 L 272.89844 210.5332 L 272.89844 311.29688 L 273.91602 311.29688 C 278.988 302.49888 284.39677 294.38942 289.46875 286.27344 L 341.20312 210.5332 L 404.42969 210.5332 L 329.03125 307.57227 L 408.48633 438.42773 L 348.30664 438.42773 L 292.51367 340.0332 L 272.89844 364.03906 L 272.89844 438.42773 L 221.8457 438.42773 L 221.8457 210.5332 z " />
  <path
     id="path854"
     style="color:#000000;fill:#ffffff;stroke-width:19.592"
     d="m 587.89651,3.810288 a 7.347045,7.347045 0 0 0 -2.51598,0.4438841 L 496.12732,36.738061 a 7.3676166,7.3676166 0 0 0 -3.8553,3.239204 l -47.48984,82.250555 a 7.3597798,7.3597798 0 0 0 -0.87436,4.96308 l 16.49258,93.53516 a 7.342147,7.342147 0 0 0 2.51598,4.36231 l 72.76253,61.04933 a 7.3539022,7.3539022 0 0 0 4.72966,1.72389 h 94.9797 a 7.361739,7.361739 0 0 0 4.73156,-1.72389 l 72.75871,-61.04933 a 7.3548818,7.3548818 0 0 0 2.51598,-4.36231 l 16.49451,-93.53516 a 7.3842701,7.3842701 0 0 0 -0.87822,-4.96308 L 683.52672,39.977265 A 7.3725146,7.3725146 0 0 0 679.6676,36.738061 L 590.41439,4.2541721 A 7.347045,7.347045 0 0 0 587.89651,3.810288 Z m 9.40191,97.069012 c 4.80986,0 9.07749,0.82974 12.79802,2.48918 3.72348,1.65946 6.85683,3.98461 9.40576,6.95675 2.54892,2.97798 4.46507,6.5272 5.75325,10.64939 1.28918,4.11923 1.93628,8.64654 1.93628,13.56905 v 56.25083 h -23.62345 v -56.25083 c 0,-4.92251 -1.14418,-8.7479 -3.42863,-11.46826 -2.29421,-2.71841 -5.66662,-4.07724 -10.13853,-4.07724 -3.31596,0 -6.43566,0.71645 -9.36173,2.14863 -2.92022,1.43218 -5.69549,3.43226 -8.32474,6.01156 v 63.63614 h -23.70953 v -88.54529 h 14.60034 c 2.97798,0 4.95257,1.37432 5.9312,4.12507 l 1.45411,6.18374 a 58.147452,58.147452 0 0 1 5.53898,-4.722 36.989921,36.989921 0 0 1 6.10149,-3.69649 c 2.1473,-1.03054 4.46657,-1.82902 6.95672,-2.40308 2.49016,-0.57306 5.19124,-0.85715 8.11046,-0.85715 z" />
</svg>
