<svg width="268" height="230" viewBox="0 0 268 230" fill="none" xmlns="http://www.w3.org/2000/svg">
<g clip-path="url(#clip0_12956_17969)">
<path d="M104.102 88.2169C103.871 87.4212 103.316 86.7416 102.555 86.3236C102.177 86.119 101.758 85.9862 101.324 85.9331C100.891 85.8799 100.45 85.9074 100.027 86.0139C99.6048 86.1205 99.209 86.304 98.8627 86.5539C98.5164 86.8037 98.2264 87.1151 98.0093 87.4701L97.5022 88.3042L96.996 87.4701C96.5498 86.7574 95.8211 86.2375 94.9677 86.0229C94.1143 85.8084 93.2047 85.9164 92.4359 86.3236V86.3236C91.6719 86.7396 91.1153 87.4214 90.8878 88.2197C90.6603 89.0181 90.7804 89.8681 91.2219 90.5839L93.6621 94.5327L84.6493 109.082H78.0888C77.2049 109.082 76.3571 109.41 75.7321 109.994C75.107 110.578 74.7559 111.37 74.7559 112.196C74.7559 113.022 75.107 113.814 75.7321 114.398C76.3571 114.982 77.2049 115.31 78.0888 115.31H103.409L99.5558 109.082H92.3425L103.768 90.5857C103.993 90.2326 104.139 89.8405 104.196 89.4333C104.253 89.0261 104.221 88.6122 104.102 88.2169V88.2169Z" fill="url(#paint0_linear_12956_17969)"/>
<path d="M116.887 109.082H110.328L102.875 97.0234L99.0215 103.252L110.594 121.974C110.81 122.331 111.101 122.643 111.45 122.892C111.798 123.141 112.197 123.321 112.621 123.423C112.904 123.497 113.195 123.534 113.488 123.534C114.074 123.535 114.649 123.389 115.154 123.111C115.917 122.697 116.473 122.018 116.701 121.222C116.928 120.425 116.809 119.577 116.368 118.863L114.181 115.309H116.889C117.773 115.309 118.621 114.981 119.246 114.397C119.871 113.813 120.222 113.021 120.222 112.195C120.222 111.369 119.871 110.577 119.246 109.993C118.621 109.409 117.773 109.081 116.889 109.081L116.887 109.082Z" fill="url(#paint1_linear_12956_17969)"/>
<path d="M79.2621 117.801L78.6084 118.86C78.3893 119.214 78.2472 119.604 78.1903 120.01C78.1334 120.415 78.1628 120.827 78.2768 121.222C78.3909 121.617 78.5873 121.986 78.8548 122.31C79.1223 122.634 79.4556 122.905 79.8355 123.108C80.3412 123.382 80.9167 123.524 81.5015 123.519C82.0878 123.519 82.6638 123.375 83.1719 123.102C83.68 122.829 84.1023 122.436 84.3966 121.962L86.9563 117.801H79.2621Z" fill="url(#paint2_linear_12956_17969)"/>
</g>
<mask id="path-5-inside-1_12956_17969" fill="white">
<rect x="61.1133" y="70.8628" width="72.4433" height="67.8364" rx="1"/>
</mask>
<rect x="61.1133" y="70.8628" width="72.4433" height="67.8364" rx="1" stroke="url(#paint3_linear_12956_17969)" stroke-width="4" mask="url(#path-5-inside-1_12956_17969)"/>
<g clip-path="url(#clip1_12956_17969)">
<path d="M179.688 88.2164C179.457 87.4207 178.902 86.7411 178.141 86.3232C177.763 86.1185 177.344 85.9857 176.91 85.9326C176.476 85.8794 176.036 85.9069 175.613 86.0135C175.191 86.12 174.795 86.3035 174.449 86.5534C174.102 86.8033 173.812 87.1146 173.595 87.4696L173.088 88.3037L172.582 87.4696C172.136 86.7569 171.407 86.237 170.554 86.0224C169.7 85.8079 168.791 85.9159 168.022 86.3232V86.3232C167.258 86.7392 166.701 87.4209 166.474 88.2192C166.246 89.0176 166.366 89.8676 166.808 90.5834L169.248 94.5323L160.235 109.082H153.675C152.791 109.082 151.943 109.41 151.318 109.994C150.693 110.578 150.342 111.37 150.342 112.195C150.342 113.021 150.693 113.813 151.318 114.397C151.943 114.981 152.791 115.309 153.675 115.309H178.995L175.142 109.082H167.928L179.354 90.5852C179.579 90.2321 179.724 89.8401 179.782 89.4328C179.839 89.0256 179.807 88.6117 179.688 88.2164V88.2164Z" fill="url(#paint4_linear_12956_17969)"/>
<path d="M192.473 109.081H185.914L178.461 97.0229L174.607 103.252L186.18 121.974C186.396 122.33 186.687 122.642 187.036 122.891C187.384 123.14 187.783 123.321 188.207 123.422C188.49 123.496 188.781 123.534 189.074 123.534C189.66 123.535 190.235 123.389 190.74 123.111C191.503 122.697 192.059 122.017 192.287 121.221C192.514 120.425 192.395 119.577 191.954 118.863L189.767 115.308H192.475C193.359 115.308 194.207 114.98 194.832 114.396C195.457 113.812 195.808 113.02 195.808 112.194C195.808 111.369 195.457 110.577 194.832 109.993C194.207 109.409 193.359 109.081 192.475 109.081L192.473 109.081Z" fill="url(#paint5_linear_12956_17969)"/>
<path d="M154.848 117.801L154.194 118.859C153.975 119.213 153.833 119.604 153.776 120.009C153.719 120.415 153.749 120.827 153.863 121.221C153.977 121.616 154.173 121.986 154.441 122.31C154.708 122.633 155.041 122.904 155.421 123.107C155.927 123.382 156.503 123.524 157.087 123.518C157.674 123.518 158.25 123.375 158.758 123.102C159.266 122.828 159.688 122.435 159.982 121.962L162.542 117.801H154.848Z" fill="url(#paint6_linear_12956_17969)"/>
</g>
<mask id="path-10-inside-2_12956_17969" fill="white">
<rect x="137.006" y="70.8628" width="72.4433" height="67.8364" rx="1"/>
</mask>
<rect x="137.006" y="70.8628" width="72.4433" height="67.8364" rx="1" stroke="url(#paint7_linear_12956_17969)" stroke-width="4" mask="url(#path-10-inside-2_12956_17969)"/>
<g clip-path="url(#clip2_12956_17969)">
<path d="M115.857 34.2872C115.713 33.8104 115.391 33.5011 115.033 33.5011H104.287V1.28855C104.287 0.579828 103.884 0 103.391 0H90.8544C90.3618 0 89.9589 0.579828 89.9589 1.28855V33.5013H79.2129C78.7203 33.5013 78.3173 34.0811 78.3263 34.8026C78.3263 35.1376 78.4159 35.4597 78.586 35.6917L96.496 61.4747C96.8453 61.9772 97.4094 61.9772 97.7587 61.4747L115.669 35.6917C115.919 35.3179 116 34.7768 115.857 34.2872ZM97.1229 58.743L81.371 36.0782H90.8544C91.3469 36.0782 91.7499 35.4984 91.7499 34.7897V2.57697H102.496V34.7897C102.496 35.4984 102.899 36.0782 103.391 36.0782H112.875L97.1229 58.743Z" fill="url(#paint8_linear_12956_17969)"/>
</g>
<g clip-path="url(#clip3_12956_17969)">
<path d="M55.431 71.5948C55.2877 71.118 54.9653 70.8088 54.6072 70.8088H43.8612V38.5962C43.8611 37.8874 43.4581 37.3076 42.9656 37.3076H30.4286C29.9361 37.3076 29.5331 37.8874 29.5331 38.5962V70.8089H18.7871C18.2945 70.8089 17.8916 71.3887 17.9005 72.1102C17.9005 72.4452 17.9901 72.7674 18.1602 72.9993L36.0702 98.7823C36.4195 99.2848 36.9837 99.2848 37.3329 98.7823L55.2429 72.9993C55.4936 72.6255 55.5742 72.0844 55.431 71.5948ZM36.6971 96.0506L20.9453 73.3858H30.4286C30.9212 73.3858 31.3241 72.806 31.3241 72.0973V39.8846H42.0701V72.0973C42.0701 72.806 42.4731 73.3858 42.9656 73.3858H52.449L36.6971 96.0506Z" fill="url(#paint9_linear_12956_17969)"/>
</g>
<g clip-path="url(#clip4_12956_17969)">
<path d="M190.394 34.2872C190.251 33.8104 189.928 33.5011 189.57 33.5011H178.824V1.28855C178.824 0.579828 178.421 0 177.928 0H165.391C164.899 0 164.496 0.579828 164.496 1.28855V33.5013H153.75C153.257 33.5013 152.854 34.0811 152.863 34.8026C152.863 35.1376 152.953 35.4597 153.123 35.6917L171.033 61.4747C171.382 61.9772 171.947 61.9772 172.296 61.4747L190.206 35.6917C190.457 35.3179 190.537 34.7768 190.394 34.2872ZM171.66 58.743L155.908 36.0782H165.391C165.884 36.0782 166.287 35.4984 166.287 34.7897V2.57697H177.033V34.7897C177.033 35.4984 177.436 36.0782 177.929 36.0782H187.412L171.66 58.743Z" fill="url(#paint10_linear_12956_17969)"/>
</g>
<g clip-path="url(#clip5_12956_17969)">
<path d="M252.527 71.5948C252.383 71.118 252.061 70.8088 251.703 70.8088H240.957V38.5962C240.957 37.8874 240.554 37.3076 240.061 37.3076H227.524C227.032 37.3076 226.629 37.8874 226.629 38.5962V70.8089H215.883C215.39 70.8089 214.987 71.3887 214.996 72.1102C214.996 72.4452 215.086 72.7674 215.256 72.9993L233.166 98.7823C233.515 99.2848 234.079 99.2848 234.429 98.7823L252.339 72.9993C252.589 72.6255 252.67 72.0844 252.527 71.5948ZM233.793 96.0506L218.041 73.3858H227.524C228.017 73.3858 228.42 72.806 228.42 72.0973V39.8846H239.166V72.0973C239.166 72.806 239.569 73.3858 240.061 73.3858H249.545L233.793 96.0506Z" fill="url(#paint11_linear_12956_17969)"/>
</g>
<defs>
<linearGradient id="paint0_linear_12956_17969" x1="89.4897" y1="85.9067" x2="89.4897" y2="115.31" gradientUnits="userSpaceOnUse">
<stop stop-color="#00B39F"/>
<stop offset="1" stop-color="#00D3A9" stop-opacity="0.75"/>
</linearGradient>
<linearGradient id="paint1_linear_12956_17969" x1="109.622" y1="97.0234" x2="109.622" y2="123.534" gradientUnits="userSpaceOnUse">
<stop stop-color="#00B39F"/>
<stop offset="1" stop-color="#00D3A9" stop-opacity="0.75"/>
</linearGradient>
<linearGradient id="paint2_linear_12956_17969" x1="82.5592" y1="117.801" x2="82.5592" y2="123.519" gradientUnits="userSpaceOnUse">
<stop stop-color="#00B39F"/>
<stop offset="1" stop-color="#00D3A9" stop-opacity="0.75"/>
</linearGradient>
<linearGradient id="paint3_linear_12956_17969" x1="97.3349" y1="70.8628" x2="97.3349" y2="138.699" gradientUnits="userSpaceOnUse">
<stop stop-color="#00B39F"/>
<stop offset="1" stop-color="#00D3A9" stop-opacity="0.75"/>
</linearGradient>
<linearGradient id="paint4_linear_12956_17969" x1="165.076" y1="85.9062" x2="165.076" y2="115.309" gradientUnits="userSpaceOnUse">
<stop stop-color="#00B39F"/>
<stop offset="1" stop-color="#00D3A9" stop-opacity="0.75"/>
</linearGradient>
<linearGradient id="paint5_linear_12956_17969" x1="185.208" y1="97.0229" x2="185.208" y2="123.534" gradientUnits="userSpaceOnUse">
<stop stop-color="#00B39F"/>
<stop offset="1" stop-color="#00D3A9" stop-opacity="0.75"/>
</linearGradient>
<linearGradient id="paint6_linear_12956_17969" x1="158.145" y1="117.801" x2="158.145" y2="123.518" gradientUnits="userSpaceOnUse">
<stop stop-color="#00B39F"/>
<stop offset="1" stop-color="#00D3A9" stop-opacity="0.75"/>
</linearGradient>
<linearGradient id="paint7_linear_12956_17969" x1="173.228" y1="70.8628" x2="173.228" y2="138.699" gradientUnits="userSpaceOnUse">
<stop stop-color="#00B39F"/>
<stop offset="1" stop-color="#00D3A9" stop-opacity="0.75"/>
</linearGradient>
<linearGradient id="paint8_linear_12956_17969" x1="97.1268" y1="0" x2="97.1268" y2="61.8516" gradientUnits="userSpaceOnUse">
<stop stop-color="#00B39F"/>
<stop offset="1" stop-color="#00D3A9" stop-opacity="0.75"/>
</linearGradient>
<linearGradient id="paint9_linear_12956_17969" x1="36.701" y1="37.3076" x2="36.701" y2="99.1592" gradientUnits="userSpaceOnUse">
<stop stop-color="#00B39F"/>
<stop offset="1" stop-color="#00D3A9" stop-opacity="0.75"/>
</linearGradient>
<linearGradient id="paint10_linear_12956_17969" x1="171.664" y1="0" x2="171.664" y2="61.8516" gradientUnits="userSpaceOnUse">
<stop stop-color="#00B39F"/>
<stop offset="1" stop-color="#00D3A9" stop-opacity="0.75"/>
</linearGradient>
<linearGradient id="paint11_linear_12956_17969" x1="233.797" y1="37.3076" x2="233.797" y2="99.1592" gradientUnits="userSpaceOnUse">
<stop stop-color="#00B39F"/>
<stop offset="1" stop-color="#00D3A9" stop-opacity="0.75"/>
</linearGradient>
<clipPath id="clip0_12956_17969">
<rect x="74.7559" y="85.9062" width="45.4665" height="37.6246" rx="1" fill="white"/>
</clipPath>
<clipPath id="clip1_12956_17969">
<rect x="150.342" y="85.9058" width="45.4665" height="37.6246" rx="1" fill="white"/>
</clipPath>
<clipPath id="clip2_12956_17969">
<rect width="42.9862" height="61.8516" fill="white" transform="translate(75.6328)"/>
</clipPath>
<clipPath id="clip3_12956_17969">
<rect width="42.9862" height="61.8516" fill="white" transform="translate(15.207 37.3076)"/>
</clipPath>
<clipPath id="clip4_12956_17969">
<rect width="42.9862" height="61.8516" fill="white" transform="translate(150.17)"/>
</clipPath>
<clipPath id="clip5_12956_17969">
<rect width="42.9862" height="61.8516" fill="white" transform="translate(212.303 37.3076)"/>
</clipPath>
</defs>
</svg>
