<svg width="300" height="251" viewBox="0 0 300 189" fill="none" xmlns="http://www.w3.org/2000/svg">
<circle cx="70.0882" cy="158.341" r="24.4788" fill="#D9D9D9" stroke="#3C494F" stroke-width="10"/>
<circle cx="230.432" cy="158.567" r="24.4788" fill="#D9D9D9" stroke="#3C494F" stroke-width="10"/>
<path d="M242.073 155.024L241.536 153.623L244.309 152.579C242.938 149.418 240.493 146.884 237.421 145.333L236.228 147.987L234.857 147.361L236.049 144.677C234.38 144.021 232.561 143.633 230.652 143.633C229.072 143.633 227.551 143.961 226.119 144.379L227.133 147.122L225.732 147.659L224.688 144.886C221.527 146.257 218.993 148.703 217.442 151.774L220.096 152.967L219.47 154.339L216.786 153.146C216.13 154.816 215.742 156.635 215.742 158.543C215.742 160.124 216.07 161.644 216.488 163.076L219.231 162.062L219.768 163.463L216.995 164.507C218.366 167.668 220.812 170.203 223.883 171.753L225.076 169.099L226.447 169.726L225.255 172.409C226.925 173.065 228.744 173.453 230.652 173.453C232.233 173.453 233.753 173.125 235.185 172.708L234.171 169.964L235.572 169.427L236.616 172.201C239.777 170.829 242.312 168.384 243.862 165.312L241.208 164.119L241.834 162.748L244.518 163.941C245.174 162.271 245.562 160.452 245.562 158.543C245.562 156.963 245.234 155.442 244.816 154.011L242.073 155.024ZM234.081 166.803C229.519 168.682 224.271 166.535 222.392 161.972C220.513 157.41 222.66 152.162 227.223 150.283C231.785 148.404 237.033 150.551 238.912 155.114C239.365 156.198 239.599 157.362 239.601 158.537C239.604 159.712 239.374 160.876 238.925 161.962C238.476 163.048 237.817 164.035 236.986 164.866C236.155 165.696 235.168 166.355 234.081 166.803Z" fill="#3C494F"/>
<path d="M81.9753 154.685L81.4386 153.284L84.2115 152.24C82.84 149.08 80.3951 146.545 77.3241 144.995L76.1315 147.648L74.76 147.022L75.9526 144.339C74.283 143.683 72.4642 143.295 70.5561 143.295C68.9759 143.295 67.4553 143.623 66.0241 144.041L67.0379 146.784L65.6365 147.32L64.593 144.548C61.4326 145.919 58.8983 148.364 57.3479 151.435L60.0015 152.628L59.3753 153.999L56.692 152.806C56.036 154.476 55.6484 156.295 55.6484 158.203C55.6484 159.783 55.9764 161.304 56.3938 162.735L59.1368 161.721L59.6735 163.123L56.9007 164.166C58.2722 167.327 60.717 169.861 63.788 171.411L64.9806 168.758L66.3521 169.384L65.1595 172.067C66.8292 172.723 68.6479 173.111 70.5561 173.111C72.1363 173.111 73.6569 172.783 75.088 172.365L74.0743 169.622L75.4756 169.086L76.5191 171.858C79.6795 170.487 82.2138 168.042 83.7642 164.971L81.1107 163.778L81.7368 162.407L84.4202 163.6C85.0761 161.93 85.4637 160.111 85.4637 158.203C85.4637 156.623 85.1357 155.102 84.7183 153.671L81.9753 154.685ZM73.9848 166.462C69.4231 168.34 64.1756 166.194 62.2972 161.632C60.4189 157.07 62.5656 151.823 67.1273 149.944C71.689 148.066 76.9365 150.213 78.8149 154.774C79.2677 155.859 79.5019 157.022 79.5041 158.197C79.5063 159.372 79.2764 160.535 78.8276 161.621C78.3788 162.707 77.72 163.694 76.8889 164.525C76.0579 165.355 75.071 166.014 73.9848 166.462Z" fill="#3C494F"/>
<path d="M184.284 152.218L184.008 75.3773L217.092 73.9892C250.743 72.5773 278.274 100.495 276.393 134.122L275.381 152.218H259.541L258.879 150.416C254.89 139.574 245.127 131.908 233.647 130.607L233.23 130.559C230.403 130.239 227.544 130.354 224.751 130.9C213.842 133.035 205.292 141.441 202.918 152.218H184.284Z" fill="url(#paint0_linear_12828_17739)" stroke="#3B3E3D" stroke-width="6"/>
<path d="M185.271 10.9351L184.502 72.981H221.144C222.978 72.981 224.806 73.1913 226.593 73.6077L231.398 74.7278C236.441 75.9035 241.289 77.7985 245.793 80.3547L257.502 87.0005L228.074 10.9351H185.271Z" fill="url(#paint1_radial_12828_17739)" fill-opacity="0.5" stroke="#3B3E3D" stroke-width="7"/>
<path d="M25.1367 105.565H180.47V151.717L99.868 151.717L97.6755 146.245C94.487 138.289 88.0198 132.095 79.9328 129.254C74.5513 127.363 68.7394 127.06 63.1905 128.382L60.1893 129.096L59.939 129.156L59.7001 129.251C52.4449 132.153 46.5908 137.745 43.3596 144.86L40.2455 151.717H25.1367C21.5469 151.717 18.6367 148.806 18.6367 145.217V112.065C18.6367 108.476 21.5469 105.565 25.1367 105.565Z" fill="url(#paint2_linear_12828_17739)" stroke="#3B3E3D" stroke-width="7"/>
<path d="M113.791 136.462H111.723V146.641H121.526V144.605H113.791V136.462Z" fill="white"/>
<path d="M126.701 136.462L122.564 146.641H124.923L127.735 139.516L129.739 144.605H126.302L125.53 146.641H132.906L128.768 136.462H126.701Z" fill="white"/>
<path d="M135.825 140.025L133.24 136.462H130.654L134.791 142.569V146.641H136.859V142.569L140.996 136.462H138.443L135.825 140.025Z" fill="white"/>
<path d="M141.889 138.065V138.498V140.533V143.016V146.641H151.692V144.605H143.957V143.016V142.569H149.9V140.533H143.957V138.498H151.692V136.462H141.889V138.065Z" fill="white"/>
<path d="M155.051 138.403H160.356V140.52H155.624L155.644 142.462H157.063L160.813 146.642H163.366L159.616 142.462H161.085C161.296 142.462 161.505 142.421 161.7 142.342C161.895 142.263 162.072 142.146 162.221 141.999C162.37 141.853 162.489 141.678 162.57 141.487C162.65 141.295 162.692 141.089 162.692 140.882V138.043C162.692 137.624 162.523 137.222 162.221 136.925C161.92 136.629 161.511 136.462 161.085 136.462H153.035V146.641H155.104L155.051 138.403Z" fill="white"/>
<path d="M174.969 136.505H170.896V138.436H174.969V136.505Z" fill="#00B39F"/>
<path d="M175.34 143.01V142.21C175.34 141.288 174.552 140.542 173.575 140.542H167.01V140.015H164.604V142.294H172.934V143.008L175.34 143.01Z" fill="#00B39F"/>
<path d="M167.01 139.385V138.436H170.232V136.505H164.604V139.385H167.01Z" fill="#00D3A9"/>
<path d="M172.933 143.631V144.754H169.711V146.685H173.681C174.112 146.692 174.528 146.53 174.838 146.235C175.148 145.94 175.327 145.537 175.335 145.112V143.631H172.933Z" fill="#00D3A9"/>
<path d="M166.819 143.735V144.754H169.049V146.685H166.181C165.75 146.692 165.334 146.53 165.024 146.235C164.714 145.94 164.535 145.536 164.527 145.112V143.735H166.819Z" fill="#00B39F"/>
<line x1="2" y1="186.338" x2="298" y2="186.338" stroke="#3B3E3D" stroke-width="4" stroke-linecap="round"/>
<defs>
<linearGradient id="paint0_linear_12828_17739" x1="232.041" y1="68.2178" x2="232.041" y2="155.218" gradientUnits="userSpaceOnUse">
<stop stop-color="#00D3A9"/>
<stop offset="1" stop-color="#C9FCF6" stop-opacity="0.19"/>
</linearGradient>
<radialGradient id="paint1_radial_12828_17739" cx="0" cy="0" r="1" gradientUnits="userSpaceOnUse" gradientTransform="translate(221.195 104.242) rotate(-90) scale(92.6357 103.928)">
<stop offset="0.14375" stop-color="#00D3A9" stop-opacity="0.44"/>
<stop offset="1" stop-color="#D9D9D9" stop-opacity="0"/>
</radialGradient>
<linearGradient id="paint2_linear_12828_17739" x1="99.5532" y1="102.065" x2="99.5532" y2="155.217" gradientUnits="userSpaceOnUse">
<stop stop-color="#00D3A9"/>
<stop offset="1" stop-color="#C9FCF6" stop-opacity="0.19"/>
</linearGradient>
</defs>
</svg>
