<svg width="421" height="251" viewBox="0 0 421 251" fill="none" xmlns="http://www.w3.org/2000/svg">
<g filter="url(#filter0_b_13026_17695)">
<path d="M0 10C0 4.47715 4.47715 0 10 0H411C416.523 0 421 4.47715 421 10V241C421 246.523 416.523 251 411 251H10C4.47716 251 0 246.523 0 241V10Z" fill="#1E2117"/>
<path d="M0 10C0 4.47715 4.47715 0 10 0H411C416.523 0 421 4.47715 421 10V46H0V10Z" fill="url(#paint0_linear_13026_17695)"/>
<path d="M19.8977 72.9091V63.8182H20.4801V72.9091H19.8977ZM21.858 66.5455C21.8153 66.1856 21.6425 65.9062 21.3395 65.7074C21.0365 65.5085 20.6648 65.4091 20.2244 65.4091C19.9025 65.4091 19.6207 65.4612 19.3793 65.5653C19.1402 65.6695 18.9531 65.8127 18.8182 65.995C18.6856 66.1773 18.6193 66.3845 18.6193 66.6165C18.6193 66.8106 18.6655 66.9775 18.7578 67.1172C18.8525 67.2545 18.9732 67.3693 19.12 67.4616C19.2668 67.5516 19.4207 67.6262 19.5817 67.6854C19.7427 67.7422 19.8906 67.7884 20.0256 67.8239L20.7642 68.0227C20.9536 68.0724 21.1643 68.1411 21.3963 68.2287C21.6307 68.3163 21.8544 68.4358 22.0675 68.5874C22.2829 68.7365 22.4605 68.9283 22.6001 69.1626C22.7398 69.397 22.8097 69.6847 22.8097 70.0256C22.8097 70.4186 22.7067 70.7737 22.5007 71.0909C22.2971 71.4081 21.9988 71.6603 21.6058 71.8473C21.2152 72.0343 20.7405 72.1278 20.1818 72.1278C19.661 72.1278 19.21 72.0438 18.8288 71.8757C18.45 71.7076 18.1518 71.4732 17.9339 71.1726C17.7185 70.8719 17.5966 70.5227 17.5682 70.125H18.4773C18.5009 70.3996 18.5933 70.6269 18.7543 70.8068C18.9176 70.9844 19.1236 71.117 19.3722 71.2045C19.6231 71.2898 19.893 71.3324 20.1818 71.3324C20.518 71.3324 20.8198 71.2779 21.0874 71.169C21.3549 71.0578 21.5668 70.9039 21.723 70.7074C21.8793 70.5085 21.9574 70.2765 21.9574 70.0114C21.9574 69.7699 21.8899 69.5734 21.755 69.4219C21.62 69.2704 21.4425 69.1473 21.2223 69.0526C21.0021 68.9579 20.7642 68.875 20.5085 68.804L19.6136 68.5483C19.0455 68.3849 18.5956 68.1518 18.2642 67.8487C17.9328 67.5457 17.767 67.1491 17.767 66.6591C17.767 66.2519 17.8771 65.8968 18.0973 65.5938C18.3198 65.2884 18.6181 65.0516 18.9922 64.8835C19.3686 64.7131 19.7888 64.6278 20.2528 64.6278C20.7216 64.6278 21.1383 64.7119 21.5028 64.88C21.8674 65.0457 22.1563 65.273 22.3693 65.5618C22.5848 65.8506 22.6984 66.1785 22.7102 66.5455H21.858Z" fill="#00B39F"/>
<circle cx="18" cy="16" r="5" fill="#CCCCCC"/>
<circle cx="32" cy="16" r="5" fill="#CCCCCC"/>
<circle cx="46" cy="16" r="5" fill="#CCCCCC"/>
</g>
<defs>
<filter id="filter0_b_13026_17695" x="-20" y="-20" width="461" height="291" filterUnits="userSpaceOnUse" color-interpolation-filters="sRGB">
<feFlood flood-opacity="0" result="BackgroundImageFix"/>
<feGaussianBlur in="BackgroundImageFix" stdDeviation="10"/>
<feComposite in2="SourceAlpha" operator="in" result="effect1_backgroundBlur_13026_17695"/>
<feBlend mode="normal" in="SourceGraphic" in2="effect1_backgroundBlur_13026_17695" result="shape"/>
</filter>
<linearGradient id="paint0_linear_13026_17695" x1="210.5" y1="0" x2="210.5" y2="46" gradientUnits="userSpaceOnUse">
<stop stop-color="#00B39F"/>
<stop offset="1" stop-color="#00D3A9" stop-opacity="0.75"/>
</linearGradient>
</defs>
</svg>
