<svg width="421" height="251" viewBox="0 0 421 251" fill="none" xmlns="http://www.w3.org/2000/svg">
<g filter="url(#filter0_b_12888_17803)">
<mask id="path-1-inside-1_12888_17803" fill="white">
<path d="M0 10C0 4.47715 4.47715 0 10 0H411C416.523 0 421 4.47715 421 10V241C421 246.523 416.523 251 411 251H10C4.47716 251 0 246.523 0 241V10Z"/>
</mask>
<path d="M0 10C0 4.47715 4.47715 0 10 0H411C416.523 0 421 4.47715 421 10V241C421 246.523 416.523 251 411 251H10C4.47716 251 0 246.523 0 241V10Z" fill="#1E2117"/>
<path d="M0 10C0 4.47715 4.47715 0 10 0H411C416.523 0 421 4.47715 421 10V46H0V10Z" fill="url(#paint0_linear_12888_17803)"/>
<path d="M20.767 73.1818V61.3636H21.5241V73.1818H20.767ZM23.3153 64.9091C23.2599 64.4413 23.0353 64.0781 22.6413 63.8196C22.2474 63.5611 21.7642 63.4318 21.1918 63.4318C20.7732 63.4318 20.407 63.4995 20.093 63.6349C19.7822 63.7704 19.5391 63.9566 19.3636 64.1935C19.1913 64.4305 19.1051 64.6998 19.1051 65.0014C19.1051 65.2538 19.1651 65.4708 19.2852 65.6523C19.4083 65.8308 19.5652 65.9801 19.756 66.1001C19.9469 66.2171 20.1469 66.314 20.3562 66.391C20.5655 66.4648 20.7578 66.5249 20.9332 66.571L21.8935 66.8295C22.1397 66.8942 22.4136 66.9834 22.7152 67.0973C23.0199 67.2112 23.3107 67.3666 23.5877 67.5636C23.8678 67.7575 24.0986 68.0067 24.2802 68.3114C24.4618 68.6161 24.5526 68.9901 24.5526 69.4332C24.5526 69.9441 24.4187 70.4058 24.1509 70.8182C23.8862 71.2306 23.4985 71.5584 22.9876 71.8015C22.4798 72.0446 21.8627 72.1662 21.1364 72.1662C20.4593 72.1662 19.873 72.0569 19.3775 71.8384C18.8851 71.6199 18.4973 71.3152 18.2141 70.9244C17.9341 70.5335 17.7756 70.0795 17.7386 69.5625H18.9205C18.9512 69.9195 19.0713 70.215 19.2805 70.4489C19.4929 70.6797 19.7607 70.852 20.0838 70.9659C20.41 71.0767 20.7609 71.1321 21.1364 71.1321C21.5734 71.1321 21.9658 71.0613 22.3136 70.9197C22.6613 70.7751 22.9368 70.575 23.1399 70.3196C23.343 70.0611 23.4446 69.7595 23.4446 69.4148C23.4446 69.1009 23.3569 68.8454 23.1815 68.6484C23.006 68.4515 22.7752 68.2914 22.489 68.1683C22.2028 68.0452 21.8935 67.9375 21.5611 67.8452L20.3977 67.5128C19.6591 67.3004 19.0743 66.9973 18.6435 66.6033C18.2126 66.2094 17.9972 65.6939 17.9972 65.0568C17.9972 64.5275 18.1403 64.0658 18.4265 63.6719C18.7158 63.2749 19.1036 62.9671 19.5898 62.7486C20.0792 62.527 20.6255 62.4162 21.2287 62.4162C21.8381 62.4162 22.3797 62.5254 22.8537 62.744C23.3277 62.9594 23.7031 63.2549 23.9801 63.6303C24.2602 64.0058 24.4079 64.4321 24.4233 64.9091H23.3153Z" fill="#00D3A9"/>
<path d="M0 0H421H0ZM422 241C422 247.075 417.075 252 411 252H10C3.92487 252 -1 247.075 -1 241H1C1 245.971 5.02944 250 10 250H411C415.971 250 420 245.971 420 241H422ZM10 252C3.92487 252 -1 247.075 -1 241V11C-1 4.92487 3.92487 0 10 0C5.02944 0 1 4.47715 1 10V241C1 245.971 5.02944 250 10 250V252ZM411 0C417.075 0 422 4.92487 422 11V241C422 247.075 417.075 252 411 252V250C415.971 250 420 245.971 420 241V10C420 4.47715 415.971 0 411 0Z" fill="#CCCCCC" mask="url(#path-1-inside-1_12888_17803)"/>
</g>
<defs>
<filter id="filter0_b_12888_17803" x="-20" y="-20" width="461" height="291" filterUnits="userSpaceOnUse" color-interpolation-filters="sRGB">
<feFlood flood-opacity="0" result="BackgroundImageFix"/>
<feGaussianBlur in="BackgroundImageFix" stdDeviation="10"/>
<feComposite in2="SourceAlpha" operator="in" result="effect1_backgroundBlur_12888_17803"/>
<feBlend mode="normal" in="SourceGraphic" in2="effect1_backgroundBlur_12888_17803" result="shape"/>
</filter>
<linearGradient id="paint0_linear_12888_17803" x1="423.777" y1="4.03137" x2="91.153" y2="182.082" gradientUnits="userSpaceOnUse">
<stop offset="0.419934" stop-color="#00B39F"/>
<stop offset="0.775241" stop-color="#477E96"/>
<stop offset="0.96875" stop-color="#3C494F"/>
</linearGradient>
</defs>
</svg>
