<svg width="421" height="251" viewBox="0 0 421 251" fill="none" xmlns="http://www.w3.org/2000/svg">
<g filter="url(#filter0_b_12855_17886)">
<rect width="421" height="251" rx="10" fill="url(#paint0_radial_12855_17886)" fill-opacity="0.5"/>
<rect width="421" height="46" fill="#1E2117"/>
<circle cx="19.4668" cy="16" r="5" fill="#D43800"/>
<circle cx="33.4668" cy="16" r="5" fill="#EBC017"/>
<circle cx="47.4668" cy="16" r="5" fill="#00D3A9"/>
<path d="M167.449 15.813H164.416V30.6176H178.79V27.6576H167.449V15.813Z" fill="#FAFAFA"/>
<path d="M186.377 15.813L180.312 30.6176H183.771L187.894 20.2553L190.831 27.6576H185.792L184.66 30.6176H195.475L189.409 15.813H186.377Z" fill="#FAFAFA"/>
<path d="M199.755 20.9957L195.965 15.813H192.174L198.239 24.6961V30.6176H201.272V24.6961L207.336 15.813H203.593L199.755 20.9957Z" fill="#FAFAFA"/>
<path d="M208.645 18.1447V18.7745V21.7345V25.3465V30.6176H223.018V27.6576H211.678V25.3465V24.6961H220.391V21.7345H211.678V18.7745H223.018V15.813H208.645V18.1447Z" fill="#FAFAFA"/>
<path d="M227.944 18.6356H235.722V21.7156H228.785L228.814 24.5398H230.895L236.392 30.6192H240.135L234.637 24.5398H236.791C237.1 24.54 237.407 24.4807 237.692 24.3653C237.978 24.2499 238.238 24.0806 238.457 23.8671C238.675 23.6537 238.849 23.4002 238.967 23.1212C239.086 22.8423 239.147 22.5433 239.147 22.2413V18.1131C239.147 17.5031 238.899 16.918 238.457 16.4867C238.015 16.0553 237.416 15.813 236.791 15.813H224.988V30.6176H228.021L227.944 18.6356Z" fill="#FAFAFA"/>
<path d="M257.147 15.8765H251.176V18.6849H257.147V15.8765Z" fill="#00B39F"/>
<path d="M257.689 25.3374V24.174C257.689 22.8337 256.534 21.7476 255.102 21.7476H245.475V20.9819H241.947V24.2971H254.161V25.3343L257.689 25.3374Z" fill="#00B39F"/>
<path d="M245.475 20.0646V18.6849H250.199V15.8765H241.947V20.0646H245.475Z" fill="#00D3A9"/>
<path d="M254.162 26.2402V27.8741H249.438V30.6826H255.258C255.89 30.6923 256.5 30.457 256.955 30.0282C257.409 29.5994 257.671 29.0121 257.683 28.3951V26.2402H254.162Z" fill="#00D3A9"/>
<path d="M245.198 26.3916V27.874H248.467V30.6824H244.263C243.631 30.6921 243.021 30.4568 242.566 30.028C242.112 29.5992 241.85 29.012 241.838 28.3949V26.3916H245.198Z" fill="#00B39F"/>
<path d="M20.767 63.1818V51.3636H21.5241V63.1818H20.767ZM23.3153 54.9091C23.2599 54.4413 23.0353 54.0781 22.6413 53.8196C22.2474 53.5611 21.7642 53.4318 21.1918 53.4318C20.7732 53.4318 20.407 53.4995 20.093 53.6349C19.7822 53.7704 19.5391 53.9566 19.3636 54.1935C19.1913 54.4305 19.1051 54.6998 19.1051 55.0014C19.1051 55.2538 19.1651 55.4708 19.2852 55.6523C19.4083 55.8308 19.5652 55.9801 19.756 56.1001C19.9469 56.2171 20.1469 56.314 20.3562 56.391C20.5655 56.4648 20.7578 56.5249 20.9332 56.571L21.8935 56.8295C22.1397 56.8942 22.4136 56.9834 22.7152 57.0973C23.0199 57.2112 23.3107 57.3666 23.5877 57.5636C23.8678 57.7575 24.0986 58.0067 24.2802 58.3114C24.4618 58.6161 24.5526 58.9901 24.5526 59.4332C24.5526 59.9441 24.4187 60.4058 24.1509 60.8182C23.8862 61.2306 23.4985 61.5584 22.9876 61.8015C22.4798 62.0446 21.8627 62.1662 21.1364 62.1662C20.4593 62.1662 19.873 62.0569 19.3775 61.8384C18.8851 61.6199 18.4973 61.3152 18.2141 60.9244C17.9341 60.5335 17.7756 60.0795 17.7386 59.5625H18.9205C18.9512 59.9195 19.0713 60.215 19.2805 60.4489C19.4929 60.6797 19.7607 60.852 20.0838 60.9659C20.41 61.0767 20.7609 61.1321 21.1364 61.1321C21.5734 61.1321 21.9658 61.0613 22.3136 60.9197C22.6613 60.7751 22.9368 60.575 23.1399 60.3196C23.343 60.0611 23.4446 59.7595 23.4446 59.4148C23.4446 59.1009 23.3569 58.8454 23.1815 58.6484C23.006 58.4515 22.7752 58.2914 22.489 58.1683C22.2028 58.0452 21.8935 57.9375 21.5611 57.8452L20.3977 57.5128C19.6591 57.3004 19.0743 56.9973 18.6435 56.6033C18.2126 56.2094 17.9972 55.6939 17.9972 55.0568C17.9972 54.5275 18.1403 54.0658 18.4265 53.6719C18.7158 53.2749 19.1036 52.9671 19.5898 52.7486C20.0792 52.527 20.6255 52.4162 21.2287 52.4162C21.8381 52.4162 22.3797 52.5254 22.8537 52.744C23.3277 52.9594 23.7031 53.2549 23.9801 53.6303C24.2602 54.0058 24.4079 54.4321 24.4233 54.9091H23.3153Z" fill="#00D3A9"/>
</g>
<defs>
<filter id="filter0_b_12855_17886" x="-20" y="-20" width="461" height="291" filterUnits="userSpaceOnUse" color-interpolation-filters="sRGB">
<feFlood flood-opacity="0" result="BackgroundImageFix"/>
<feGaussianBlur in="BackgroundImageFix" stdDeviation="10"/>
<feComposite in2="SourceAlpha" operator="in" result="effect1_backgroundBlur_12855_17886"/>
<feBlend mode="normal" in="SourceGraphic" in2="effect1_backgroundBlur_12855_17886" result="shape"/>
</filter>
<radialGradient id="paint0_radial_12855_17886" cx="0" cy="0" r="1" gradientUnits="userSpaceOnUse" gradientTransform="translate(211.611 307.892) rotate(-90) scale(305.678 599.367)">
<stop offset="0.14375" stop-color="#00D3A9" stop-opacity="0.44"/>
<stop offset="1" stop-color="#D9D9D9" stop-opacity="0"/>
</radialGradient>
</defs>
</svg>
