<svg width="251" height="251" viewBox="0 0 251 251" fill="none" xmlns="http://www.w3.org/2000/svg">
<path d="M209.821 128.285C209.88 126.431 209.88 124.569 209.821 122.716L224.852 103.93C225.426 103.211 225.824 102.367 226.013 101.466C226.202 100.565 226.177 99.6324 225.94 98.743C223.588 89.8803 220.067 81.3702 215.469 73.4371C215.012 72.632 214.372 71.946 213.6 71.4349C212.828 70.9238 211.947 70.602 211.027 70.4957L187.055 67.8387C185.793 66.4856 184.486 65.1783 183.133 63.9168L180.466 39.9345C180.36 39.015 180.038 38.1335 179.527 37.3617C179.016 36.59 178.33 35.9497 177.525 35.493C169.601 30.9079 161.105 27.3934 152.258 25.0412C151.366 24.8082 150.432 24.788 149.531 24.9821C148.63 25.1763 147.788 25.5794 147.071 26.1589L128.246 41.2287C126.39 41.1699 124.533 41.1699 122.677 41.2287L103.931 26.1491C103.211 25.5746 102.368 25.1768 101.467 24.9878C100.566 24.7988 99.6333 24.8238 98.7439 25.0608C89.8811 27.4125 81.371 30.9339 73.438 35.5322C72.6328 35.9889 71.9468 36.6292 71.4357 37.4009C70.9246 38.1727 70.6028 39.0542 70.4966 39.9737L67.8787 63.9462C66.5257 65.2143 65.2184 66.5216 63.9568 67.8681L39.9648 70.5938C39.0452 70.7 38.1637 71.0218 37.392 71.5329C36.6202 72.044 35.98 72.73 35.5232 73.5352C30.9382 81.4586 27.4236 89.9548 25.0714 98.8019C24.8441 99.6825 24.824 100.604 25.0129 101.494C25.2017 102.383 25.5943 103.217 26.1598 103.93L41.2296 122.755C41.1707 124.611 41.1707 126.468 41.2296 128.324L26.15 147.119C25.5754 147.838 25.1777 148.682 24.9887 149.583C24.7996 150.484 24.8246 151.417 25.0616 152.306C27.4174 161.152 30.9387 169.645 35.533 177.563C35.9898 178.368 36.63 179.054 37.4018 179.565C38.1735 180.076 39.055 180.398 39.9746 180.504L63.947 183.161C65.2151 184.514 66.5224 185.822 67.8689 187.083L70.5946 211.036C70.7009 211.956 71.0227 212.837 71.5338 213.609C72.0449 214.381 72.7309 215.021 73.536 215.478C81.4594 220.063 89.9556 223.577 98.8027 225.929C99.6921 226.166 100.625 226.191 101.526 226.002C102.426 225.813 103.27 225.416 103.989 224.841L122.716 209.82C124.569 209.879 126.432 209.879 128.285 209.82L147.12 224.9C148.164 225.733 149.461 226.186 150.797 226.184C151.307 226.183 151.814 226.117 152.307 225.988C161.153 223.633 169.646 220.111 177.564 215.517C178.369 215.06 179.055 214.42 179.566 213.648C180.077 212.876 180.399 211.995 180.505 211.075L183.162 187.103C184.515 185.841 185.823 184.534 187.084 183.181L211.066 180.514C211.986 180.408 212.867 180.086 213.639 179.575C214.411 179.064 215.051 178.378 215.508 177.573C220.095 169.65 223.609 161.154 225.96 152.306C226.197 151.417 226.222 150.484 226.033 149.583C225.844 148.682 225.446 147.838 224.871 147.119L209.821 128.285ZM206.782 169.101L183.603 171.68C182.155 171.847 180.82 172.546 179.858 173.641C177.92 175.824 175.854 177.89 173.671 179.828C172.576 180.79 171.877 182.125 171.71 183.573L169.132 206.742C163.705 209.636 158.003 211.981 152.111 213.742L133.903 199.172C132.859 198.339 131.563 197.886 130.227 197.888H129.874C126.961 198.055 124.041 198.055 121.128 197.888C119.673 197.799 118.237 198.253 117.098 199.163L98.9007 213.742C93.0136 211.971 87.3182 209.616 81.8994 206.712L79.3208 183.554C79.1538 182.105 78.455 180.771 77.3598 179.808C75.1769 177.87 73.1109 175.804 71.1731 173.621C70.2107 172.526 68.876 171.827 67.4277 171.66L44.2592 169.082C41.3683 163.671 39.0232 157.986 37.2587 152.11L51.8284 133.903C52.7378 132.764 53.192 131.328 53.103 129.873C52.9364 126.96 52.9364 124.04 53.103 121.127C53.192 119.672 52.7378 118.236 51.8284 117.097L37.2587 98.8999C39.0299 93.0128 41.3849 87.3174 44.2886 81.8986L67.4473 79.3199C68.8956 79.153 70.2303 78.4542 71.1927 77.359C73.1306 75.176 75.1965 73.1101 77.3795 71.1722C78.4746 70.2099 79.1734 68.8752 79.3404 67.4269L81.919 44.2584C87.33 41.3675 93.0154 39.0224 98.8909 37.2578L117.098 51.8276C118.237 52.737 119.673 53.1912 121.128 53.1022C124.041 52.9355 126.961 52.9355 129.874 53.1022C131.329 53.1912 132.765 52.737 133.903 51.8276L152.101 37.2578C157.988 39.029 163.683 41.3841 169.102 44.2878L171.681 67.4661C171.848 68.9144 172.547 70.2491 173.642 71.2115C175.825 73.1493 177.891 75.2152 179.829 77.3982C180.791 78.4934 182.126 79.1922 183.574 79.3592L206.743 81.9378C209.632 87.3425 211.977 93.0212 213.743 98.8901L199.173 117.097C198.264 118.236 197.81 119.672 197.899 121.127C198.065 124.04 198.065 126.96 197.899 129.873C197.81 131.328 198.264 132.764 199.173 133.903L213.743 152.1C211.978 157.987 209.63 163.682 206.733 169.101H206.782Z" fill="url(#paint0_linear_12830_17825)"/>
<path d="M156.501 170.93C166.189 164.27 173.517 154.702 177.421 143.603C181.385 132.335 181.609 120.089 178.06 108.683C174.511 97.2773 167.377 87.3204 157.72 80.291C148.062 73.2616 136.394 69.5344 124.45 69.6631C112.505 69.7918 100.921 73.7694 91.4166 81.0051C81.9124 88.2409 74.9953 98.3492 71.6925 109.829C68.3898 121.308 68.8775 133.547 73.0831 144.727C77.2202 155.725 84.738 165.122 94.548 171.571C95.1331 171.956 95.821 172.132 96.504 172.092L96.9481 172.066C102.751 171.727 106.361 165.616 103.859 160.37C103.604 159.834 103.207 159.39 102.726 159.074C95.5682 154.36 90.0826 147.498 87.0622 139.468C83.9879 131.296 83.6314 122.35 86.0457 113.958C88.46 105.567 93.5163 98.1778 100.464 92.8886C107.411 87.5993 115.879 84.6917 124.611 84.5977C133.342 84.5036 141.871 87.2282 148.93 92.3665C155.99 97.5049 161.204 104.783 163.799 113.121C166.393 121.458 166.23 130.41 163.332 138.647C160.489 146.729 155.163 153.699 148.123 158.565C147.619 158.913 147.213 159.402 146.971 159.984C144.687 165.474 148.782 171.488 154.694 171.488C155.328 171.488 155.962 171.3 156.501 170.93Z" fill="url(#paint1_linear_12830_17825)" stroke="url(#paint2_linear_12830_17825)" stroke-width="3"/>
<defs>
<linearGradient id="paint0_linear_12830_17825" x1="16.8115" y1="24.8501" x2="249.189" y2="171.441" gradientUnits="userSpaceOnUse">
<stop offset="0.296875" stop-color="#00B39F"/>
<stop offset="0.494792" stop-color="#195E4A"/>
<stop offset="0.78125" stop-color="#1F787D"/>
</linearGradient>
<linearGradient id="paint1_linear_12830_17825" x1="95.0097" y1="80.2811" x2="156.581" y2="171.688" gradientUnits="userSpaceOnUse">
<stop stop-color="#00B39F" stop-opacity="0.54"/>
<stop offset="0.510971" stop-color="#477E96" stop-opacity="0.26"/>
<stop offset="1" stop-color="#121212" stop-opacity="0.16"/>
</linearGradient>
<linearGradient id="paint2_linear_12830_17825" x1="169.856" y1="95.0085" x2="80.2389" y2="155.35" gradientUnits="userSpaceOnUse">
<stop stop-color="#00D3A9"/>
<stop offset="1" stop-color="#C9FCF6" stop-opacity="0.19"/>
</linearGradient>
</defs>
</svg>
