<svg width="326" height="163" viewBox="0 0 326 163" fill="none" xmlns="http://www.w3.org/2000/svg">
<path d="M299.545 24.0454L294.545 21.6587V27.4322L299.545 25.0454V24.0454ZM299.045 25.0454H325.636V24.0454H299.045V25.0454Z" fill="#00B39F"/>
<path d="M26.0918 24.2271L31.0918 26.6138V20.8403L26.0918 23.2271V24.2271ZM26.5918 23.2271L0.000885725 23.2271V24.2271L26.5918 24.2271V23.2271Z" fill="#00B39F"/>
<path d="M82.7285 24.0454L77.7285 21.6587V27.4322L82.7285 25.0454V24.0454ZM134.91 25.0454L139.91 27.4322V21.6587L134.91 24.0454V25.0454ZM191.204 24.0454L186.204 21.6587V27.4322L191.204 25.0454V24.0454ZM242.092 25.0454L247.092 27.4322V21.6587L242.092 24.0454V25.0454ZM82.2285 25.0454H135.41V24.0454H82.2285V25.0454ZM190.704 25.0454H242.592V24.0454H190.704V25.0454Z" fill="#00B39F"/>
<circle cx="162.909" cy="25.1983" r="23.0455" stroke="#00B39F" stroke-width="3"/>
<circle cx="270.549" cy="25.1983" r="23.0455" stroke="#00B39F" stroke-width="3"/>
<path d="M77.046 24.5455C77.046 37.2731 66.7282 47.5909 54.0005 47.5909C41.2729 47.5909 30.9551 37.2731 30.9551 24.5455C30.9551 11.8178 41.2729 1.5 54.0005 1.5C66.7282 1.5 77.046 11.8178 77.046 24.5455Z" stroke="#00B39F" stroke-width="3"/>
<circle cx="53.7727" cy="24.7727" r="16.7727" fill="#00D3A9"/>
<circle cx="163.273" cy="24.9544" r="16.7727" fill="#00D3A9"/>
<circle cx="270.773" cy="24.9544" r="16.7727" fill="#00D3A9"/>
</svg>
