<svg width="502" height="251" viewBox="0 0 294 90" fill="none" xmlns="http://www.w3.org/2000/svg">
<g filter="url(#filter0_d_12815_18270)">
<line x1="48.6641" y1="17.1011" x2="48.6641" y2="43.9573" stroke="#00B39F" stroke-width="3" stroke-dasharray="2 2"/>
<line x1="115.471" y1="44.9561" x2="115.471" y2="71.8122" stroke="#00B39F" stroke-width="3" stroke-dasharray="2 2"/>
<line x1="182.223" y1="17.1011" x2="182.223" y2="43.9573" stroke="#00B39F" stroke-width="3" stroke-dasharray="2 2"/>
<line x1="246.996" y1="46.2661" x2="246.996" y2="73.1223" stroke="#00B39F" stroke-width="3" stroke-dasharray="2 2"/>
</g>
<rect x="24.5" y="0.5" width="49" height="15" rx="1.5" stroke="url(#paint0_linear_12815_18270)"/>
<rect x="157.5" y="0.5" width="49" height="15" rx="1.5" stroke="url(#paint1_linear_12815_18270)"/>
<rect x="0.5" y="-0.5" width="49" height="15" rx="1.5" transform="matrix(1 0 0 -1 89 89)" stroke="url(#paint2_linear_12815_18270)"/>
<rect x="0.5" y="-0.5" width="49" height="15" rx="1.5" transform="matrix(1 0 0 -1 221 89)" stroke="url(#paint3_linear_12815_18270)"/>
<defs>
<filter id="filter0_d_12815_18270" x="43.1641" y="17.1011" width="209.332" height="64.021" filterUnits="userSpaceOnUse" color-interpolation-filters="sRGB">
<feFlood flood-opacity="0" result="BackgroundImageFix"/>
<feColorMatrix in="SourceAlpha" type="matrix" values="0 0 0 0 0 0 0 0 0 0 0 0 0 0 0 0 0 0 127 0" result="hardAlpha"/>
<feOffset dy="4"/>
<feGaussianBlur stdDeviation="2"/>
<feComposite in2="hardAlpha" operator="out"/>
<feColorMatrix type="matrix" values="0 0 0 0 0 0 0 0 0 0 0 0 0 0 0 0 0 0 0.25 0"/>
<feBlend mode="normal" in2="BackgroundImageFix" result="effect1_dropShadow_12815_18270"/>
<feBlend mode="normal" in="SourceGraphic" in2="effect1_dropShadow_12815_18270" result="shape"/>
</filter>
<linearGradient id="paint0_linear_12815_18270" x1="49" y1="16" x2="49" y2="-1.71429" gradientUnits="userSpaceOnUse">
<stop stop-color="#00B39F"/>
<stop offset="1" stop-color="#00B39F" stop-opacity="0"/>
</linearGradient>
<linearGradient id="paint1_linear_12815_18270" x1="182" y1="16" x2="182" y2="-1.71429" gradientUnits="userSpaceOnUse">
<stop stop-color="#00B39F"/>
<stop offset="1" stop-color="#00B39F" stop-opacity="0"/>
</linearGradient>
<linearGradient id="paint2_linear_12815_18270" x1="25" y1="16" x2="25" y2="-1.71429" gradientUnits="userSpaceOnUse">
<stop stop-color="#00B39F"/>
<stop offset="1" stop-color="#00B39F" stop-opacity="0"/>
</linearGradient>
<linearGradient id="paint3_linear_12815_18270" x1="25" y1="16" x2="25" y2="-1.71429" gradientUnits="userSpaceOnUse">
<stop stop-color="#00B39F"/>
<stop offset="1" stop-color="#00B39F" stop-opacity="0"/>
</linearGradient>
</defs>
</svg>
