<svg width="502" height="251" viewBox="0 0 302 90" fill="none" xmlns="http://www.w3.org/2000/svg">
<g filter="url(#filter0_d_12815_18253)">
<path d="M38 42.9575L33 40.5708V46.3443L38 43.9575V42.9575ZM66 43.9575L71 46.3443V40.5708L66 42.9575V43.9575ZM104.5 42.9575L99.5 40.5708V46.3443L104.5 43.9575V42.9575ZM132.5 43.9575L137.5 46.3443V40.5708L132.5 42.9575V43.9575ZM170.791 42.9575L165.791 40.5708V46.3443L170.791 43.9575V42.9575ZM198 43.9575L203 46.3443V40.5708L198 42.9575V43.9575ZM236.5 42.9575L231.5 40.5708V46.3443L236.5 43.9575V42.9575ZM264 43.9575L269 46.3443V40.5708L264 42.9575V43.9575ZM37.5 43.9575H66.5V42.9575H37.5V43.9575ZM104 43.9575H133V42.9575H104V43.9575ZM170.291 43.9575H198.5V42.9575H170.291V43.9575ZM236 43.9575H264.5V42.9575H236V43.9575Z" fill="#00B39F"/>
<circle cx="19" cy="43.8564" r="14.5" fill="url(#paint0_linear_12815_18253)" stroke="#00B39F"/>
<circle cx="85" cy="43.8564" r="14.5" fill="url(#paint1_linear_12815_18253)" stroke="#00B39F"/>
<circle cx="283" cy="43.8564" r="14.5" fill="url(#paint2_linear_12815_18253)" stroke="#00B39F"/>
<circle cx="152" cy="43.8564" r="14.5" fill="url(#paint3_linear_12815_18253)" stroke="#00B39F"/>
<circle cx="217" cy="43.8564" r="14.5" fill="url(#paint4_linear_12815_18253)" stroke="#00B39F"/>
</g>
<defs>
<filter id="filter0_d_12815_18253" x="0" y="28.8564" width="302" height="38" filterUnits="userSpaceOnUse" color-interpolation-filters="sRGB">
<feFlood flood-opacity="0" result="BackgroundImageFix"/>
<feColorMatrix in="SourceAlpha" type="matrix" values="0 0 0 0 0 0 0 0 0 0 0 0 0 0 0 0 0 0 127 0" result="hardAlpha"/>
<feOffset dy="4"/>
<feGaussianBlur stdDeviation="2"/>
<feComposite in2="hardAlpha" operator="out"/>
<feColorMatrix type="matrix" values="0 0 0 0 0 0 0 0 0 0 0 0 0 0 0 0 0 0 0.25 0"/>
<feBlend mode="normal" in2="BackgroundImageFix" result="effect1_dropShadow_12815_18253"/>
<feBlend mode="normal" in="SourceGraphic" in2="effect1_dropShadow_12815_18253" result="shape"/>
</filter>
<linearGradient id="paint0_linear_12815_18253" x1="19" y1="28.8564" x2="19" y2="58.8564" gradientUnits="userSpaceOnUse">
<stop stop-color="#00B39F"/>
<stop offset="0.537593" stop-color="#477E96"/>
<stop offset="1" stop-color="#3C494F"/>
</linearGradient>
<linearGradient id="paint1_linear_12815_18253" x1="85" y1="28.8564" x2="85" y2="58.8564" gradientUnits="userSpaceOnUse">
<stop stop-color="#00B39F"/>
<stop offset="0.537593" stop-color="#477E96"/>
<stop offset="1" stop-color="#3C494F"/>
</linearGradient>
<linearGradient id="paint2_linear_12815_18253" x1="283" y1="28.8564" x2="283" y2="58.8564" gradientUnits="userSpaceOnUse">
<stop stop-color="#00B39F"/>
<stop offset="0.537593" stop-color="#477E96"/>
<stop offset="1" stop-color="#3C494F"/>
</linearGradient>
<linearGradient id="paint3_linear_12815_18253" x1="152" y1="28.8564" x2="152" y2="58.8564" gradientUnits="userSpaceOnUse">
<stop stop-color="#00B39F"/>
<stop offset="0.537593" stop-color="#477E96"/>
<stop offset="1" stop-color="#3C494F"/>
</linearGradient>
<linearGradient id="paint4_linear_12815_18253" x1="217" y1="28.8564" x2="217" y2="58.8564" gradientUnits="userSpaceOnUse">
<stop stop-color="#00B39F"/>
<stop offset="0.537593" stop-color="#477E96"/>
<stop offset="1" stop-color="#3C494F"/>
</linearGradient>
</defs>
</svg>
