<svg width="608" height="856" viewBox="0 0 608 856" fill="none" xmlns="http://www.w3.org/2000/svg">
<path d="M30.5475 3.5H577.556C590.814 3.5 600.585 15.8942 597.49 28.7855L403.513 836.786C401.301 846.002 393.058 852.5 383.58 852.5H305.5H227.356C217.903 852.5 209.675 846.036 207.438 836.851L10.6298 28.8514C7.48572 15.9433 17.262 3.5 30.5475 3.5Z" stroke="url(#paint0_linear_12732_17533)" stroke-width="7"/>
<path d="M188.9 71.1H187.703H185.936C185.309 71.1 184.91 71.328 184.625 71.955L171.8 99.6L158.975 71.955C158.69 71.328 158.291 71.1 157.664 71.1H156.41H154.7C153.959 71.1 153.56 71.499 153.56 72.24V109.86C153.56 110.601 153.959 111 154.7 111H156.41C157.151 111 157.55 110.601 157.55 109.86V77.883L169.406 103.248C169.691 103.875 170.09 104.103 170.717 104.103H172.883C173.51 104.103 173.909 103.875 174.194 103.248L186.05 77.883V109.86C186.05 110.601 186.449 111 187.19 111H188.9C189.641 111 190.04 110.601 190.04 109.86V72.24C190.04 71.499 189.641 71.1 188.9 71.1ZM218.985 82.5H217.503C216.762 82.5 216.363 82.899 216.363 83.64V98.574C216.363 105.642 212.145 108.036 208.269 108.036C204.45 108.036 201.657 105.642 201.657 101.139V83.64C201.657 82.899 201.258 82.5 200.517 82.5H199.035C198.294 82.5 197.895 82.899 197.895 83.64V101.139C197.895 107.694 202.284 111.684 207.585 111.684C211.005 111.684 214.083 110.658 216.306 107.238V109.86C216.306 110.601 216.705 111 217.446 111H218.928C219.669 111 220.068 110.601 220.068 109.86V83.64C220.068 82.899 219.669 82.5 218.928 82.5H218.985ZM229.221 111H230.703C231.444 111 231.843 110.601 231.843 109.86V71.1C231.843 70.359 231.444 69.96 230.703 69.96H229.221C228.48 69.96 228.081 70.359 228.081 71.1V109.86C228.081 110.601 228.48 111 229.221 111ZM251.511 82.5H246.723V74.52C246.723 73.779 246.324 73.38 245.583 73.38H244.101C243.36 73.38 242.961 73.779 242.961 74.52V82.5H238.116C237.375 82.5 236.976 82.899 236.976 83.64V85.008C236.976 85.749 237.375 86.148 238.116 86.148H242.961V109.86C242.961 110.601 243.36 111 244.101 111H245.583C246.324 111 246.723 110.601 246.723 109.86V86.148H251.511C252.252 86.148 252.651 85.749 252.651 85.008V83.64C252.651 82.899 252.252 82.5 251.511 82.5ZM258.945 76.8H260.427C261.168 76.8 261.567 76.401 261.567 75.66V72.24C261.567 71.499 261.168 71.1 260.427 71.1H258.945C258.204 71.1 257.805 71.499 257.805 72.24V75.66C257.805 76.401 258.204 76.8 258.945 76.8ZM258.945 111H260.427C261.168 111 261.567 110.601 261.567 109.86V83.64C261.567 82.899 261.168 82.5 260.427 82.5H258.945C258.204 82.5 257.805 82.899 257.805 83.64V109.86C257.805 110.601 258.204 111 258.945 111ZM303.01 111.684C311.332 111.684 318.514 106.782 321.307 99.657C321.592 98.973 321.136 98.46 320.338 98.46H318.343C317.716 98.46 317.26 98.745 316.975 99.315C314.638 104.388 309.223 107.808 303.01 107.808C292.921 107.808 286.081 100.341 286.081 91.05C286.081 81.759 292.921 74.292 303.01 74.292C309.223 74.292 314.638 77.712 316.975 82.785C317.26 83.355 317.716 83.64 318.343 83.64H320.338C321.136 83.64 321.535 83.127 321.25 82.329C318.457 75.261 311.275 70.416 303.01 70.416C290.755 70.416 282.091 79.65 282.091 91.05C282.091 102.45 290.755 111.684 303.01 111.684ZM328.526 111H330.008C330.749 111 331.148 110.601 331.148 109.86V71.1C331.148 70.359 330.749 69.96 330.008 69.96H328.526C327.785 69.96 327.386 70.359 327.386 71.1V109.86C327.386 110.601 327.785 111 328.526 111ZM359.537 82.5H358.055C357.314 82.5 356.915 82.899 356.915 83.64V98.574C356.915 105.642 352.697 108.036 348.821 108.036C345.002 108.036 342.209 105.642 342.209 101.139V83.64C342.209 82.899 341.81 82.5 341.069 82.5H339.587C338.846 82.5 338.447 82.899 338.447 83.64V101.139C338.447 107.694 342.836 111.684 348.137 111.684C351.557 111.684 354.635 110.658 356.858 107.238V109.86C356.858 110.601 357.257 111 357.998 111H359.48C360.221 111 360.62 110.601 360.62 109.86V83.64C360.62 82.899 360.221 82.5 359.48 82.5H359.537ZM371.54 89.967C371.54 86.775 374.732 85.464 377.753 85.464C380.489 85.464 383.339 86.547 383.852 89.682C384.023 90.366 384.365 90.765 385.049 90.765H386.531C387.272 90.765 387.728 90.366 387.671 89.568C387.101 84.78 383.111 81.816 377.753 81.816C371.996 81.816 367.778 85.293 367.778 89.967C367.778 100.626 384.536 96.294 384.536 103.533C384.536 106.725 381.344 108.036 377.753 108.036C374.504 108.036 371.597 106.953 371.084 103.818C370.913 103.134 370.571 102.735 369.887 102.735H368.405C367.664 102.735 367.208 103.134 367.265 103.932C367.835 108.72 371.882 111.684 377.753 111.684C384.08 111.684 388.298 108.207 388.298 103.533C388.298 92.874 371.54 97.206 371.54 89.967ZM405.979 82.5H401.191V74.52C401.191 73.779 400.792 73.38 400.051 73.38H398.569C397.828 73.38 397.429 73.779 397.429 74.52V82.5H392.584C391.843 82.5 391.444 82.899 391.444 83.64V85.008C391.444 85.749 391.843 86.148 392.584 86.148H397.429V109.86C397.429 110.601 397.828 111 398.569 111H400.051C400.792 111 401.191 110.601 401.191 109.86V86.148H405.979C406.72 86.148 407.119 85.749 407.119 85.008V83.64C407.119 82.899 406.72 82.5 405.979 82.5ZM424.042 81.816C415.207 81.816 409.45 88.371 409.45 96.75C409.45 105.357 415.321 111.684 424.042 111.684C429.856 111.684 434.53 108.663 436.468 104.331C436.753 103.647 436.297 103.191 435.442 103.191H433.618C432.991 103.191 432.592 103.476 432.25 103.989C430.825 106.326 427.918 108.036 424.099 108.036C418.285 108.036 414.067 104.445 413.326 98.631H434.017H436.696C437.38 98.631 437.836 98.289 437.893 97.548V96.864C437.893 89.055 432.763 81.816 424.042 81.816ZM424.042 85.464C428.887 85.464 433.276 88.713 433.96 94.983H413.269C414.01 89.454 418 85.464 424.042 85.464ZM455.24 82.101C452.105 82.386 449.312 83.64 447.374 86.889V83.64C447.374 82.899 446.975 82.5 446.234 82.5H444.752C444.011 82.5 443.612 82.899 443.612 83.64V109.86C443.612 110.601 444.011 111 444.752 111H446.234C446.975 111 447.374 110.601 447.374 109.86V95.154C447.374 88.485 451.364 85.977 455.639 85.692C456.095 85.692 456.38 85.236 456.38 84.552V83.184C456.38 82.443 455.981 82.044 455.24 82.101Z" fill="white"/>
<path d="M238.199 229.684C246.521 229.684 253.703 224.782 256.496 217.657C256.781 216.973 256.325 216.46 255.527 216.46H253.532C252.905 216.46 252.449 216.745 252.164 217.315C249.827 222.388 244.412 225.808 238.199 225.808C228.11 225.808 221.27 218.341 221.27 209.05C221.27 199.759 228.11 192.292 238.199 192.292C244.412 192.292 249.827 195.712 252.164 200.785C252.449 201.355 252.905 201.64 253.532 201.64H255.527C256.325 201.64 256.724 201.127 256.439 200.329C253.646 193.261 246.464 188.416 238.199 188.416C225.944 188.416 217.28 197.65 217.28 209.05C217.28 220.45 225.944 229.684 238.199 229.684ZM263.715 229H265.197C265.938 229 266.337 228.601 266.337 227.86V189.1C266.337 188.359 265.938 187.96 265.197 187.96H263.715C262.974 187.96 262.575 188.359 262.575 189.1V227.86C262.575 228.601 262.974 229 263.715 229ZM294.726 200.5H293.244C292.503 200.5 292.104 200.899 292.104 201.64V216.574C292.104 223.642 287.886 226.036 284.01 226.036C280.191 226.036 277.398 223.642 277.398 219.139V201.64C277.398 200.899 276.999 200.5 276.258 200.5H274.776C274.035 200.5 273.636 200.899 273.636 201.64V219.139C273.636 225.694 278.025 229.684 283.326 229.684C286.746 229.684 289.824 228.658 292.047 225.238V227.86C292.047 228.601 292.446 229 293.187 229H294.669C295.41 229 295.809 228.601 295.809 227.86V201.64C295.809 200.899 295.41 200.5 294.669 200.5H294.726ZM306.729 207.967C306.729 204.775 309.921 203.464 312.942 203.464C315.678 203.464 318.528 204.547 319.041 207.682C319.212 208.366 319.554 208.765 320.238 208.765H321.72C322.461 208.765 322.917 208.366 322.86 207.568C322.29 202.78 318.3 199.816 312.942 199.816C307.185 199.816 302.967 203.293 302.967 207.967C302.967 218.626 319.725 214.294 319.725 221.533C319.725 224.725 316.533 226.036 312.942 226.036C309.693 226.036 306.786 224.953 306.273 221.818C306.102 221.134 305.76 220.735 305.076 220.735H303.594C302.853 220.735 302.397 221.134 302.454 221.932C303.024 226.72 307.071 229.684 312.942 229.684C319.269 229.684 323.487 226.207 323.487 221.533C323.487 210.874 306.729 215.206 306.729 207.967ZM341.168 200.5H336.38V192.52C336.38 191.779 335.981 191.38 335.24 191.38H333.758C333.017 191.38 332.618 191.779 332.618 192.52V200.5H327.773C327.032 200.5 326.633 200.899 326.633 201.64V203.008C326.633 203.749 327.032 204.148 327.773 204.148H332.618V227.86C332.618 228.601 333.017 229 333.758 229H335.24C335.981 229 336.38 228.601 336.38 227.86V204.148H341.168C341.909 204.148 342.308 203.749 342.308 203.008V201.64C342.308 200.899 341.909 200.5 341.168 200.5ZM359.231 199.816C350.396 199.816 344.639 206.371 344.639 214.75C344.639 223.357 350.51 229.684 359.231 229.684C365.045 229.684 369.719 226.663 371.657 222.331C371.942 221.647 371.486 221.191 370.631 221.191H368.807C368.18 221.191 367.781 221.476 367.439 221.989C366.014 224.326 363.107 226.036 359.288 226.036C353.474 226.036 349.256 222.445 348.515 216.631H369.206H371.885C372.569 216.631 373.025 216.289 373.082 215.548V214.864C373.082 207.055 367.952 199.816 359.231 199.816ZM359.231 203.464C364.076 203.464 368.465 206.713 369.149 212.983H348.458C349.199 207.454 353.189 203.464 359.231 203.464ZM390.43 200.101C387.295 200.386 384.502 201.64 382.564 204.889V201.64C382.564 200.899 382.165 200.5 381.424 200.5H379.942C379.201 200.5 378.802 200.899 378.802 201.64V227.86C378.802 228.601 379.201 229 379.942 229H381.424C382.165 229 382.564 228.601 382.564 227.86V213.154C382.564 206.485 386.554 203.977 390.829 203.692C391.285 203.692 391.57 203.236 391.57 202.552V201.184C391.57 200.443 391.171 200.044 390.43 200.101Z" fill="white"/>
<path d="M248.36 308.24V339.02L229.436 307.841C229.151 307.328 228.695 307.1 228.068 307.1H226.7C225.959 307.1 225.56 307.499 225.56 308.24V345.86C225.56 346.601 225.959 347 226.7 347H228.41C229.151 347 229.55 346.601 229.55 345.86V315.08L248.474 346.259C248.759 346.772 249.215 347 249.842 347H251.21C251.951 347 252.35 346.601 252.35 345.86V308.24C252.35 307.499 251.951 307.1 251.21 307.1H249.5C248.759 307.1 248.36 307.499 248.36 308.24ZM274.174 347.684C282.496 347.684 289.165 341.186 289.165 332.75C289.165 324.314 282.496 317.816 274.174 317.816C265.852 317.816 259.183 324.314 259.183 332.75C259.183 341.186 265.852 347.684 274.174 347.684ZM274.174 344.036C267.847 344.036 262.945 339.077 262.945 332.75C262.945 326.423 267.847 321.464 274.174 321.464C280.501 321.464 285.403 326.423 285.403 332.75C285.403 339.077 280.501 344.036 274.174 344.036ZM322.593 307.1H321.111C320.37 307.1 319.971 307.499 319.971 308.24V324.086C317.577 320.267 313.53 317.816 308.457 317.816C300.42 317.816 293.751 324.314 293.751 332.75C293.751 341.186 300.42 347.684 308.457 347.684C313.53 347.684 317.577 345.29 319.971 341.471V345.86C319.971 346.601 320.37 347 321.111 347H322.593C323.334 347 323.733 346.601 323.733 345.86V308.24C323.733 307.499 323.334 307.1 322.593 307.1ZM308.742 344.036C302.415 344.036 297.513 339.077 297.513 332.75C297.513 326.423 302.415 321.464 308.742 321.464C315.069 321.464 319.971 326.423 319.971 332.75C319.971 339.077 315.069 344.036 308.742 344.036ZM344.58 317.816C335.745 317.816 329.988 324.371 329.988 332.75C329.988 341.357 335.859 347.684 344.58 347.684C350.394 347.684 355.068 344.663 357.006 340.331C357.291 339.647 356.835 339.191 355.98 339.191H354.156C353.529 339.191 353.13 339.476 352.788 339.989C351.363 342.326 348.456 344.036 344.637 344.036C338.823 344.036 334.605 340.445 333.864 334.631H354.555H357.234C357.918 334.631 358.374 334.289 358.431 333.548V332.864C358.431 325.055 353.301 317.816 344.58 317.816ZM344.58 321.464C349.425 321.464 353.814 324.713 354.498 330.983H333.807C334.548 325.454 338.538 321.464 344.58 321.464ZM367.057 325.967C367.057 322.775 370.249 321.464 373.27 321.464C376.006 321.464 378.856 322.547 379.369 325.682C379.54 326.366 379.882 326.765 380.566 326.765H382.048C382.789 326.765 383.245 326.366 383.188 325.568C382.618 320.78 378.628 317.816 373.27 317.816C367.513 317.816 363.295 321.293 363.295 325.967C363.295 336.626 380.053 332.294 380.053 339.533C380.053 342.725 376.861 344.036 373.27 344.036C370.021 344.036 367.114 342.953 366.601 339.818C366.43 339.134 366.088 338.735 365.404 338.735H363.922C363.181 338.735 362.725 339.134 362.782 339.932C363.352 344.72 367.399 347.684 373.27 347.684C379.597 347.684 383.815 344.207 383.815 339.533C383.815 328.874 367.057 333.206 367.057 325.967Z" fill="white"/>
<path d="M176.36 426.24V457.02L157.436 425.841C157.151 425.328 156.695 425.1 156.068 425.1H154.7C153.959 425.1 153.56 425.499 153.56 426.24V463.86C153.56 464.601 153.959 465 154.7 465H156.41C157.151 465 157.55 464.601 157.55 463.86V433.08L176.474 464.259C176.759 464.772 177.215 465 177.842 465H179.21C179.951 465 180.35 464.601 180.35 463.86V426.24C180.35 425.499 179.951 425.1 179.21 425.1H177.5C176.759 425.1 176.36 425.499 176.36 426.24ZM199.153 435.816C193.225 435.816 189.007 439.293 188.38 444.138C188.323 444.936 188.779 445.335 189.52 445.335H191.002C191.686 445.335 192.028 444.936 192.199 444.252C192.769 441.003 195.847 439.464 199.153 439.464C202.801 439.464 206.221 441.345 206.221 446.475V451.092C204.283 448.641 200.977 447.33 197.386 447.33C192.142 447.33 187.183 450.351 187.183 456.507C187.183 462.663 192.142 465.684 197.386 465.684C200.977 465.684 204.283 464.601 206.221 461.808V463.86C206.221 464.601 206.62 465 207.361 465H208.843C209.584 465 209.983 464.601 209.983 463.86V446.475C209.983 439.863 205.537 435.816 199.153 435.816ZM198.298 462.15C193.225 462.15 190.945 459.756 190.945 456.507C190.945 453.258 193.225 450.864 198.298 450.864C202.858 450.864 206.221 453.03 206.221 456.507C206.221 459.756 202.858 462.15 198.298 462.15ZM244.756 435.816C241.564 435.816 238.486 436.899 236.263 440.661C234.724 437.469 231.76 435.816 228.625 435.816C225.946 435.816 223.153 436.785 220.987 439.806V437.64C220.987 436.899 220.588 436.5 219.847 436.5H218.365C217.624 436.5 217.225 436.899 217.225 437.64V463.86C217.225 464.601 217.624 465 218.365 465H219.847C220.588 465 220.987 464.601 220.987 463.86V447.786C220.987 441.288 225.091 439.464 227.941 439.464C230.962 439.464 233.584 441.288 233.584 445.791V463.86C233.584 464.601 233.983 465 234.724 465H236.206C236.947 465 237.346 464.601 237.346 463.86V447.786C237.346 441.288 241.45 439.464 244.3 439.464C247.321 439.464 249.943 441.288 249.943 445.791V463.86C249.943 464.601 250.342 465 251.083 465H252.565C253.306 465 253.705 464.601 253.705 463.86V445.791C253.705 439.236 249.487 435.816 244.699 435.816H244.756ZM273.916 435.816C265.081 435.816 259.324 442.371 259.324 450.75C259.324 459.357 265.195 465.684 273.916 465.684C279.73 465.684 284.404 462.663 286.342 458.331C286.627 457.647 286.171 457.191 285.316 457.191H283.492C282.865 457.191 282.466 457.476 282.124 457.989C280.699 460.326 277.792 462.036 273.973 462.036C268.159 462.036 263.941 458.445 263.2 452.631H283.891H286.57C287.254 452.631 287.71 452.289 287.767 451.548V450.864C287.767 443.055 282.637 435.816 273.916 435.816ZM273.916 439.464C278.761 439.464 283.15 442.713 283.834 448.983H263.143C263.884 443.454 267.874 439.464 273.916 439.464ZM296.393 443.967C296.393 440.775 299.585 439.464 302.606 439.464C305.342 439.464 308.192 440.547 308.705 443.682C308.876 444.366 309.218 444.765 309.902 444.765H311.384C312.125 444.765 312.581 444.366 312.524 443.568C311.954 438.78 307.964 435.816 302.606 435.816C296.849 435.816 292.631 439.293 292.631 443.967C292.631 454.626 309.389 450.294 309.389 457.533C309.389 460.725 306.197 462.036 302.606 462.036C299.357 462.036 296.45 460.953 295.937 457.818C295.766 457.134 295.424 456.735 294.74 456.735H293.258C292.517 456.735 292.061 457.134 292.118 457.932C292.688 462.72 296.735 465.684 302.606 465.684C308.933 465.684 313.151 462.207 313.151 457.533C313.151 446.874 296.393 451.206 296.393 443.967ZM334.98 435.816C329.85 435.816 325.803 438.267 323.466 442.086V437.64C323.466 436.899 323.067 436.5 322.326 436.5H320.844C320.103 436.5 319.704 436.899 319.704 437.64V475.26C319.704 476.001 320.103 476.4 320.844 476.4H322.326C323.067 476.4 323.466 476.001 323.466 475.26V459.471C325.803 463.29 329.85 465.684 334.98 465.684C343.017 465.684 349.686 459.186 349.686 450.75C349.686 442.314 343.017 435.816 334.98 435.816ZM334.695 462.036C328.368 462.036 323.466 457.077 323.466 450.75C323.466 444.423 328.368 439.464 334.695 439.464C341.022 439.464 345.924 444.423 345.924 450.75C345.924 457.077 341.022 462.036 334.695 462.036ZM365.645 435.816C359.717 435.816 355.499 439.293 354.872 444.138C354.815 444.936 355.271 445.335 356.012 445.335H357.494C358.178 445.335 358.52 444.936 358.691 444.252C359.261 441.003 362.339 439.464 365.645 439.464C369.293 439.464 372.713 441.345 372.713 446.475V451.092C370.775 448.641 367.469 447.33 363.878 447.33C358.634 447.33 353.675 450.351 353.675 456.507C353.675 462.663 358.634 465.684 363.878 465.684C367.469 465.684 370.775 464.601 372.713 461.808V463.86C372.713 464.601 373.112 465 373.853 465H375.335C376.076 465 376.475 464.601 376.475 463.86V446.475C376.475 439.863 372.029 435.816 365.645 435.816ZM364.79 462.15C359.717 462.15 357.437 459.756 357.437 456.507C357.437 453.258 359.717 450.864 364.79 450.864C369.35 450.864 372.713 453.03 372.713 456.507C372.713 459.756 369.35 462.15 364.79 462.15ZM409.366 455.88H407.713C407.086 455.88 406.63 456.165 406.345 456.735C404.692 459.927 401.215 462.036 397.054 462.036C390.727 462.036 385.825 457.077 385.825 450.75C385.825 444.423 390.727 439.464 397.054 439.464C401.158 439.464 404.635 441.516 406.345 444.765C406.63 445.335 407.086 445.62 407.713 445.62H409.366C410.164 445.62 410.62 445.107 410.278 444.309C408.226 439.236 403.096 435.816 397.054 435.816C388.447 435.816 382.063 442.314 382.063 450.75C382.063 459.186 388.447 465.684 397.054 465.684C403.096 465.684 408.283 462.264 410.278 457.191C410.62 456.393 410.164 455.88 409.366 455.88ZM429.33 435.816C420.495 435.816 414.738 442.371 414.738 450.75C414.738 459.357 420.609 465.684 429.33 465.684C435.144 465.684 439.818 462.663 441.756 458.331C442.041 457.647 441.585 457.191 440.73 457.191H438.906C438.279 457.191 437.88 457.476 437.538 457.989C436.113 460.326 433.206 462.036 429.387 462.036C423.573 462.036 419.355 458.445 418.614 452.631H439.305H441.984C442.668 452.631 443.124 452.289 443.181 451.548V450.864C443.181 443.055 438.051 435.816 429.33 435.816ZM429.33 439.464C434.175 439.464 438.564 442.713 439.248 448.983H418.557C419.298 443.454 423.288 439.464 429.33 439.464ZM451.807 443.967C451.807 440.775 454.999 439.464 458.02 439.464C460.756 439.464 463.606 440.547 464.119 443.682C464.29 444.366 464.632 444.765 465.316 444.765H466.798C467.539 444.765 467.995 444.366 467.938 443.568C467.368 438.78 463.378 435.816 458.02 435.816C452.263 435.816 448.045 439.293 448.045 443.967C448.045 454.626 464.803 450.294 464.803 457.533C464.803 460.725 461.611 462.036 458.02 462.036C454.771 462.036 451.864 460.953 451.351 457.818C451.18 457.134 450.838 456.735 450.154 456.735H448.672C447.931 456.735 447.475 457.134 447.532 457.932C448.102 462.72 452.149 465.684 458.02 465.684C464.347 465.684 468.565 462.207 468.565 457.533C468.565 446.874 451.807 451.206 451.807 443.967Z" fill="white"/>
<path d="M219.082 543.1H217.543C216.916 543.1 216.46 543.442 216.289 544.069L205.402 578.953L194.515 544.069C194.344 543.442 193.888 543.1 193.261 543.1H191.722C190.924 543.1 190.525 543.613 190.753 544.411L194.572 556.666L187.618 578.953L176.731 544.069C176.56 543.442 176.104 543.1 175.477 543.1H173.938C173.14 543.1 172.741 543.613 172.969 544.411L184.711 582.031C184.882 582.658 185.338 583 185.965 583H189.271C189.898 583 190.354 582.658 190.525 582.031L196.453 562.879L202.495 582.031C202.666 582.658 203.122 583 203.749 583H207.055C207.682 583 208.138 582.658 208.309 582.031L220.051 544.411C220.279 543.613 219.88 543.1 219.082 543.1ZM234.916 583.684C243.238 583.684 249.907 577.186 249.907 568.75C249.907 560.314 243.238 553.816 234.916 553.816C226.594 553.816 219.925 560.314 219.925 568.75C219.925 577.186 226.594 583.684 234.916 583.684ZM234.916 580.036C228.589 580.036 223.687 575.077 223.687 568.75C223.687 562.423 228.589 557.464 234.916 557.464C241.243 557.464 246.145 562.423 246.145 568.75C246.145 575.077 241.243 580.036 234.916 580.036ZM267.83 554.101C264.695 554.386 261.902 555.64 259.964 558.889V555.64C259.964 554.899 259.565 554.5 258.824 554.5H257.342C256.601 554.5 256.202 554.899 256.202 555.64V581.86C256.202 582.601 256.601 583 257.342 583H258.824C259.565 583 259.964 582.601 259.964 581.86V567.154C259.964 560.485 263.954 557.977 268.229 557.692C268.685 557.692 268.97 557.236 268.97 556.552V555.184C268.97 554.443 268.571 554.044 267.83 554.101ZM295.672 581.575L281.764 568.18L295.045 555.925C295.843 555.184 295.558 554.5 294.532 554.5H292.366C291.796 554.5 291.397 554.671 290.998 555.07L277.888 567.154V544.24C277.888 543.499 277.489 543.1 276.748 543.1H275.266C274.525 543.1 274.126 543.499 274.126 544.24V581.86C274.126 582.601 274.525 583 275.266 583H276.748C277.489 583 277.888 582.601 277.888 581.86V569.32L291.568 582.43C291.967 582.829 292.366 583 292.936 583H295.102C296.128 583 296.413 582.259 295.672 581.575ZM303.432 583H304.914C305.655 583 306.054 582.601 306.054 581.86V543.1C306.054 542.359 305.655 541.96 304.914 541.96H303.432C302.691 541.96 302.292 542.359 302.292 543.1V581.86C302.292 582.601 302.691 583 303.432 583ZM327.318 583.684C335.64 583.684 342.309 577.186 342.309 568.75C342.309 560.314 335.64 553.816 327.318 553.816C318.996 553.816 312.327 560.314 312.327 568.75C312.327 577.186 318.996 583.684 327.318 583.684ZM327.318 580.036C320.991 580.036 316.089 575.077 316.089 568.75C316.089 562.423 320.991 557.464 327.318 557.464C333.645 557.464 338.547 562.423 338.547 568.75C338.547 575.077 333.645 580.036 327.318 580.036ZM358.308 553.816C352.38 553.816 348.162 557.293 347.535 562.138C347.478 562.936 347.934 563.335 348.675 563.335H350.157C350.841 563.335 351.183 562.936 351.354 562.252C351.924 559.003 355.002 557.464 358.308 557.464C361.956 557.464 365.376 559.345 365.376 564.475V569.092C363.438 566.641 360.132 565.33 356.541 565.33C351.297 565.33 346.338 568.351 346.338 574.507C346.338 580.663 351.297 583.684 356.541 583.684C360.132 583.684 363.438 582.601 365.376 579.808V581.86C365.376 582.601 365.775 583 366.516 583H367.998C368.739 583 369.138 582.601 369.138 581.86V564.475C369.138 557.863 364.692 553.816 358.308 553.816ZM357.453 580.15C352.38 580.15 350.1 577.756 350.1 574.507C350.1 571.258 352.38 568.864 357.453 568.864C362.013 568.864 365.376 571.03 365.376 574.507C365.376 577.756 362.013 580.15 357.453 580.15ZM403.568 543.1H402.086C401.345 543.1 400.946 543.499 400.946 544.24V560.086C398.552 556.267 394.505 553.816 389.432 553.816C381.395 553.816 374.726 560.314 374.726 568.75C374.726 577.186 381.395 583.684 389.432 583.684C394.505 583.684 398.552 581.29 400.946 577.471V581.86C400.946 582.601 401.345 583 402.086 583H403.568C404.309 583 404.708 582.601 404.708 581.86V544.24C404.708 543.499 404.309 543.1 403.568 543.1ZM389.717 580.036C383.39 580.036 378.488 575.077 378.488 568.75C378.488 562.423 383.39 557.464 389.717 557.464C396.044 557.464 400.946 562.423 400.946 568.75C400.946 575.077 396.044 580.036 389.717 580.036ZM415.581 561.967C415.581 558.775 418.773 557.464 421.794 557.464C424.53 557.464 427.38 558.547 427.893 561.682C428.064 562.366 428.406 562.765 429.09 562.765H430.572C431.313 562.765 431.769 562.366 431.712 561.568C431.142 556.78 427.152 553.816 421.794 553.816C416.037 553.816 411.819 557.293 411.819 561.967C411.819 572.626 428.577 568.294 428.577 575.533C428.577 578.725 425.385 580.036 421.794 580.036C418.545 580.036 415.638 578.953 415.125 575.818C414.954 575.134 414.612 574.735 413.928 574.735H412.446C411.705 574.735 411.249 575.134 411.306 575.932C411.876 580.72 415.923 583.684 421.794 583.684C428.121 583.684 432.339 580.207 432.339 575.533C432.339 564.874 415.581 569.206 415.581 561.967Z" fill="white"/>
<path d="M214.245 701.684C220.971 701.684 227.07 697.58 227.07 690.911C227.07 683.558 220.23 681.335 214.188 678.998C209.4 677.174 205.41 675.407 205.41 670.847C205.41 666.629 209.058 664.292 213.447 664.292C217.893 664.292 221.37 666.515 221.883 670.733C221.94 671.417 222.339 671.816 223.023 671.816H224.79C225.531 671.816 225.93 671.417 225.873 670.619C225.303 664.064 219.774 660.416 213.447 660.416C207.234 660.416 201.42 664.235 201.42 670.847C201.42 678.599 208.089 680.651 214.131 682.931C218.862 684.698 223.08 686.579 223.08 690.911C223.08 695.186 219.147 697.808 214.245 697.808C208.887 697.808 204.897 695.3 204.327 690.569C204.27 689.828 203.871 689.429 203.187 689.429H201.42C200.679 689.429 200.28 689.828 200.337 690.626C200.907 697.751 207.063 701.684 214.245 701.684ZM246.211 671.816C237.376 671.816 231.619 678.371 231.619 686.75C231.619 695.357 237.49 701.684 246.211 701.684C252.025 701.684 256.699 698.663 258.637 694.331C258.922 693.647 258.466 693.191 257.611 693.191H255.787C255.16 693.191 254.761 693.476 254.419 693.989C252.994 696.326 250.087 698.036 246.268 698.036C240.454 698.036 236.236 694.445 235.495 688.631H256.186H258.865C259.549 688.631 260.005 688.289 260.062 687.548V686.864C260.062 679.055 254.932 671.816 246.211 671.816ZM246.211 675.464C251.056 675.464 255.445 678.713 256.129 684.983H235.438C236.179 679.454 240.169 675.464 246.211 675.464ZM277.409 672.101C274.274 672.386 271.481 673.64 269.543 676.889V673.64C269.543 672.899 269.144 672.5 268.403 672.5H266.921C266.18 672.5 265.781 672.899 265.781 673.64V699.86C265.781 700.601 266.18 701 266.921 701H268.403C269.144 701 269.543 700.601 269.543 699.86V685.154C269.543 678.485 273.533 675.977 277.808 675.692C278.264 675.692 278.549 675.236 278.549 674.552V673.184C278.549 672.443 278.15 672.044 277.409 672.101ZM304.51 672.5H302.914C302.287 672.5 301.831 672.785 301.603 673.412L293.11 696.896L284.617 673.412C284.389 672.785 283.933 672.5 283.306 672.5H281.71C280.912 672.5 280.513 673.013 280.798 673.811L290.488 700.088C290.716 700.658 291.172 701 291.799 701H292.996H294.421C295.048 701 295.504 700.715 295.732 700.088L305.422 673.811C305.707 673.013 305.308 672.5 304.51 672.5ZM311.619 666.8H313.101C313.842 666.8 314.241 666.401 314.241 665.66V662.24C314.241 661.499 313.842 661.1 313.101 661.1H311.619C310.878 661.1 310.479 661.499 310.479 662.24V665.66C310.479 666.401 310.878 666.8 311.619 666.8ZM311.619 701H313.101C313.842 701 314.241 700.601 314.241 699.86V673.64C314.241 672.899 313.842 672.5 313.101 672.5H311.619C310.878 672.5 310.479 672.899 310.479 673.64V699.86C310.479 700.601 310.878 701 311.619 701ZM347.817 691.88H346.164C345.537 691.88 345.081 692.165 344.796 692.735C343.143 695.927 339.666 698.036 335.505 698.036C329.178 698.036 324.276 693.077 324.276 686.75C324.276 680.423 329.178 675.464 335.505 675.464C339.609 675.464 343.086 677.516 344.796 680.765C345.081 681.335 345.537 681.62 346.164 681.62H347.817C348.615 681.62 349.071 681.107 348.729 680.309C346.677 675.236 341.547 671.816 335.505 671.816C326.898 671.816 320.514 678.314 320.514 686.75C320.514 695.186 326.898 701.684 335.505 701.684C341.547 701.684 346.734 698.264 348.729 693.191C349.071 692.393 348.615 691.88 347.817 691.88ZM367.781 671.816C358.946 671.816 353.189 678.371 353.189 686.75C353.189 695.357 359.06 701.684 367.781 701.684C373.595 701.684 378.269 698.663 380.207 694.331C380.492 693.647 380.036 693.191 379.181 693.191H377.357C376.73 693.191 376.331 693.476 375.989 693.989C374.564 696.326 371.657 698.036 367.838 698.036C362.024 698.036 357.806 694.445 357.065 688.631H377.756H380.435C381.119 688.631 381.575 688.289 381.632 687.548V686.864C381.632 679.055 376.502 671.816 367.781 671.816ZM367.781 675.464C372.626 675.464 377.015 678.713 377.699 684.983H357.008C357.749 679.454 361.739 675.464 367.781 675.464ZM390.258 679.967C390.258 676.775 393.45 675.464 396.471 675.464C399.207 675.464 402.057 676.547 402.57 679.682C402.741 680.366 403.083 680.765 403.767 680.765H405.249C405.99 680.765 406.446 680.366 406.389 679.568C405.819 674.78 401.829 671.816 396.471 671.816C390.714 671.816 386.496 675.293 386.496 679.967C386.496 690.626 403.254 686.294 403.254 693.533C403.254 696.725 400.062 698.036 396.471 698.036C393.222 698.036 390.315 696.953 389.802 693.818C389.631 693.134 389.289 692.735 388.605 692.735H387.123C386.382 692.735 385.926 693.134 385.983 693.932C386.553 698.72 390.6 701.684 396.471 701.684C402.798 701.684 407.016 698.207 407.016 693.533C407.016 682.874 390.258 687.206 390.258 679.967Z" fill="white"/>
<defs>
<linearGradient id="paint0_linear_12732_17533" x1="304" y1="0" x2="304" y2="856" gradientUnits="userSpaceOnUse">
<stop stop-color="#00B39F"/>
<stop offset="0.62402" stop-color="#008B7C" stop-opacity="0.777021"/>
<stop offset="0.931312" stop-color="#003D36" stop-opacity="0.338328"/>
<stop offset="1" stop-opacity="0"/>
</linearGradient>
</defs>
</svg>
