<svg width="147" height="218" viewBox="0 0 147 218" fill="none" xmlns="http://www.w3.org/2000/svg">
<path fill-rule="evenodd" clip-rule="evenodd" d="M0 123.279L70.2054 0.00573462V93.4543C62.2589 95.0252 56.2618 102.031 56.2618 110.437C56.2618 120 64.0133 127.751 73.5766 127.751C83.1399 127.751 90.8915 120 90.8915 110.437C90.8915 101.911 84.7281 94.8188 76.6096 93.3855V0L146.637 123.526C123.681 138.45 111.738 158.637 111.079 184.225H34.7444C33.655 157.416 21.4486 137.487 0 123.279Z" fill="#00D3A9"/>
<path d="M73.5728 136.634C86.2909 136.634 96.6009 126.324 96.6009 113.606C96.6009 100.887 86.2909 90.5774 73.5728 90.5774C60.8547 90.5774 50.5446 100.887 50.5446 113.606C50.5446 126.324 60.8547 136.634 73.5728 136.634Z" fill="white"/>
<path d="M73.5725 128.957C82.0512 128.957 88.9246 122.084 88.9246 113.605C88.9246 105.126 82.0512 98.2531 73.5725 98.2531C65.0938 98.2531 58.2204 105.126 58.2204 113.605C58.2204 122.084 65.0938 128.957 73.5725 128.957Z" fill="#50B09F"/>
<rect x="12.6778" y="199.577" width="121.282" height="18.4225" fill="#50B09F"/>
</svg>
