<svg version="1.1" id="Layer_1" xmlns="http://www.w3.org/2000/svg" x="0" y="0" xml:space="preserve" width="881.1" height="319.3"><style>.st0{fill:#fff}.st5{fill:none;stroke:#595959;stroke-linejoin:round;stroke-miterlimit:10}.st6{fill:#3c494f}.st7{fill:gray}.st8{fill:none;stroke:#eee;stroke-linejoin:round;stroke-miterlimit:10;stroke-dasharray:1,3}.st9{fill:#eee}.st10{fill-opacity:0}.st11,.st12{fill:#595959;stroke:#595959;stroke-miterlimit:10}.st12{fill:none;stroke-linejoin:round;stroke-dasharray:1,3}.st13{fill:#00d3a9}.st15{font-family:&apos;Helvetica-Bold&apos;}.st16{font-size:18px}.st18{fill:none;stroke:#fff;stroke-miterlimit:10}</style><path class="st0 svg-elem-1" d="M.5 1.8h329v315H.5V1.8z"/><path class="svg-elem-2" d="M.5 1.8h329v315H.5V1.8z" fill="#eee" stroke="#595959" stroke-linejoin="round" stroke-miterlimit="10" stroke-dasharray="8,3,1,3"/><path class="svg-elem-3" d="M386.9 1.8h493.7v315H386.9V1.8z" fill="#f3f3f3"/><path class="svg-elem-4" d="M386.9 1.8h493.7v315H386.9V1.8z" fill="none"/><path class="svg-elem-5" d="M87.2 125.9c0-5.8 4.7-10.5 10.5-10.5h97.1c2.8 0 5.4 1.1 7.4 3.1s3.1 4.6 3.1 7.4v41.9c0 5.8-4.7 10.5-10.5 10.5H97.6c-5.8 0-10.5-4.7-10.5-10.5v-41.9z" fill="#00b39f"/><path class="st5 svg-elem-6" d="M87.2 125.9c0-5.8 4.7-10.5 10.5-10.5h97.1c2.8 0 5.4 1.1 7.4 3.1s3.1 4.6 3.1 7.4v41.9c0 5.8-4.7 10.5-10.5 10.5H97.6c-5.8 0-10.5-4.7-10.5-10.5v-41.9z"/><path class="st0 svg-elem-7" d="M122.7 153.8v-6.5c0-.8-.2-1.4-.5-1.8-.3-.4-.9-.6-1.6-.6-.9 0-1.6.3-2.1.8-.4.5-.7 1.4-.7 2.5v5.6h-1.5v-6.5c0-.8-.2-1.4-.5-1.8-.3-.4-.9-.6-1.6-.6-.9 0-1.6.3-2.1.9-.4.6-.7 1.5-.7 2.8v5.2H110v-10h1.2l.2 1.4h.1c.3-.5.7-.9 1.2-1.1.5-.3 1.1-.4 1.8-.4 1.6 0 2.6.6 3.1 1.7h.1c.3-.5.7-.9 1.3-1.2.6-.3 1.2-.5 1.9-.5 1.1 0 2 .3 2.5.9.6.6.8 1.5.8 2.8v6.5h-1.5zm8.8.2c-1.5 0-2.6-.4-3.5-1.3-.9-.9-1.3-2.2-1.3-3.8 0-1.6.4-2.9 1.2-3.8.8-.9 1.9-1.4 3.2-1.4 1.3 0 2.2.4 3 1.2.7.8 1.1 1.9 1.1 3.3v1h-6.9c0 1.2.3 2.1.9 2.7.6.6 1.4.9 2.4.9 1.1 0 2.1-.2 3.2-.7v1.3c-.5.2-1 .4-1.5.5-.5 0-1.1.1-1.8.1zm-.4-9.1c-.8 0-1.4.3-1.9.8s-.7 1.2-.8 2.2h5.2c0-.9-.2-1.7-.6-2.2-.5-.5-1.1-.8-1.9-.8zm13.1 6.2c0 .9-.3 1.6-1 2.2-.7.5-1.7.8-2.9.8-1.3 0-2.4-.2-3.1-.6V152l1.5.6c.6.1 1.1.2 1.6.2.8 0 1.4-.1 1.8-.4.4-.3.6-.6.6-1.2 0-.4-.2-.7-.5-1-.3-.3-1-.6-2-1-.9-.3-1.6-.6-2-.9-.4-.3-.7-.6-.9-.9-.2-.3-.3-.7-.3-1.2 0-.8.3-1.5 1-1.9.7-.5 1.6-.7 2.7-.7s2.1.2 3.1.7l-.5 1.2c-1-.4-1.9-.6-2.7-.6-.7 0-1.3.1-1.6.3-.4.2-.5.5-.5.9 0 .3.1.5.2.7.1.2.4.4.7.5.3.2.9.4 1.8.7 1.2.4 2 .9 2.4 1.3.4.6.6 1.1.6 1.8zm9.3 2.7v-6.5c0-.8-.2-1.4-.6-1.8-.4-.4-.9-.6-1.7-.6-1.1 0-1.8.3-2.3.9-.5.6-.7 1.5-.7 2.8v5.2h-1.5v-14.2h1.5v4.3c0 .5 0 1-.1 1.3h.1c.3-.5.7-.9 1.3-1.1.6-.3 1.2-.4 1.9-.4 1.2 0 2.1.3 2.8.9.6.6.9 1.5.9 2.8v6.5h-1.6zm8.9.2c-1.5 0-2.6-.4-3.5-1.3-.9-.9-1.3-2.2-1.3-3.8 0-1.6.4-2.9 1.2-3.8.8-.9 1.9-1.4 3.2-1.4 1.3 0 2.2.4 3 1.2.7.8 1.1 1.9 1.1 3.3v1h-6.9c0 1.2.3 2.1.9 2.7.6.6 1.4.9 2.4.9 1.1 0 2.1-.2 3.2-.7v1.3c-.5.2-1 .4-1.5.5-.6 0-1.2.1-1.8.1zm-.5-9.1c-.8 0-1.4.3-1.9.8s-.7 1.2-.8 2.2h5.2c0-.9-.2-1.7-.6-2.2-.5-.5-1.1-.8-1.9-.8zm11.2-1.3c.4 0 .8 0 1.2.1l-.2 1.4c-.4-.1-.8-.1-1.1-.1-.8 0-1.5.3-2.1 1-.6.7-.9 1.5-.9 2.5v5.4h-1.5v-10h1.2l.2 1.8h.1c.4-.6.8-1.1 1.3-1.5.7-.4 1.2-.6 1.8-.6zm1.5.2h1.6l2.2 5.7c.5 1.3.8 2.2.9 2.8h.1c.1-.3.2-.8.5-1.6s1.1-3.1 2.5-6.9h1.6l-4.3 11.4c-.4 1.1-.9 1.9-1.5 2.4s-1.3.7-2.1.7c-.5 0-.9-.1-1.4-.2v-1.2c.3.1.7.1 1.1.1 1 0 1.8-.6 2.2-1.8l.6-1.4-4-10z"/><path class="st6 svg-elem-8" d="M523.7 118.5c0-15.8 12.8-28.6 28.6-28.6h220.8c7.6 0 14.8 3 20.2 8.4 5.4 5.4 8.4 12.6 8.4 20.2v114.2c0 15.8-12.8 28.6-28.6 28.6H552.3c-15.8 0-28.6-12.8-28.6-28.6V118.5z"/><path class="st5 svg-elem-9" d="M523.7 118.5c0-15.8 12.8-28.6 28.6-28.6h220.8c7.6 0 14.8 3 20.2 8.4 5.4 5.4 8.4 12.6 8.4 20.2v114.2c0 15.8-12.8 28.6-28.6 28.6H552.3c-15.8 0-28.6-12.8-28.6-28.6V118.5z"/><path class="st7 svg-elem-10" d="M614.1 110.5c0-3.8 3.1-6.8 6.8-6.8h113.4c1.8 0 3.5.7 4.8 2s2 3 2 4.8v27.3c0 3.8-3.1 6.8-6.8 6.8H620.9c-3.8 0-6.8-3.1-6.8-6.8v-27.3z"/><path class="st0 svg-elem-11" d="M647.1 118.4c0 .8-.3 1.5-.9 2-.6.5-1.4.7-2.5.7s-2-.1-2.6-.4v-1.1c.4.2.8.3 1.3.4.5.1.9.1 1.4.1.7 0 1.3-.1 1.7-.4.4-.3.6-.7.6-1.2 0-.3-.1-.6-.2-.8-.1-.2-.4-.4-.7-.6-.3-.2-.8-.4-1.4-.6-.9-.3-1.5-.7-1.9-1.1-.4-.4-.6-1-.6-1.7s.3-1.3.8-1.8c.6-.4 1.3-.7 2.2-.7.9 0 1.8.2 2.6.5l-.3 1c-.8-.3-1.6-.5-2.3-.5-.6 0-1 .1-1.4.4-.3.3-.5.6-.5 1 0 .3.1.6.2.8.1.2.3.4.6.6.3.2.7.4 1.3.6 1 .4 1.7.7 2.1 1.2.3.4.5.9.5 1.6zm6.2 2.5l-.2-1c-.4.4-.7.8-1.1.9-.4.2-.8.2-1.3.2-.7 0-1.3-.2-1.7-.5-.4-.4-.6-.9-.6-1.5 0-1.4 1.2-2.2 3.5-2.3h1.2v-.4c0-.6-.1-1-.4-1.2-.2-.3-.6-.4-1.2-.4s-1.3.2-2 .5l-.3-.8c.4-.2.7-.3 1.2-.4.4-.1.8-.2 1.3-.2.9 0 1.5.2 1.9.6.4.4.6 1 .6 1.8v4.9h-.9zm-2.4-.8c.7 0 1.2-.2 1.6-.5.4-.4.6-.9.6-1.5v-.6H652c-.9 0-1.5.2-1.9.4-.4.2-.6.6-.6 1.1 0 .4.1.7.3.9.3.1.6.2 1.1.2zm14.5.8v-4.6c0-.6-.1-1-.4-1.3-.2-.3-.6-.4-1.1-.4-.7 0-1.2.2-1.5.6-.3.4-.5 1-.5 1.8v4h-1.1v-4.6c0-.6-.1-1-.4-1.3-.2-.3-.6-.4-1.1-.4-.7 0-1.2.2-1.5.6-.3.4-.5 1.1-.5 2v3.7h-1.1v-7.1h.9l.2 1c.2-.3.5-.6.9-.8.4-.2.8-.3 1.2-.3 1.1 0 1.8.4 2.2 1.2.2-.4.5-.7.9-.9.4-.2.9-.3 1.4-.3.8 0 1.4.2 1.8.6.4.4.6 1.1.6 2v4.7h-.9zm6.6.1c-.5 0-.9-.1-1.3-.2-.4-.2-.7-.4-1-.8h-.1c.1.4.1.8.1 1.2v2.9h-1.1v-10.3h.9l.1 1c.3-.4.6-.7 1-.8.4-.2.8-.3 1.3-.3.9 0 1.7.3 2.2 1 .5.6.8 1.6.8 2.7 0 1.2-.3 2.1-.8 2.7-.4.6-1.1.9-2.1.9zm-.1-6.5c-.7 0-1.3.2-1.6.6-.3.4-.5 1-.5 1.9v.2c0 1 .2 1.7.5 2.2.3.4.9.6 1.6.6.6 0 1.1-.2 1.5-.7.4-.5.5-1.2.5-2.1 0-.9-.2-1.6-.5-2-.4-.4-.9-.7-1.5-.7zm6.1 6.4h-1.1v-10.1h1.1v10.1zm5.3.1c-1.1 0-1.9-.3-2.5-1-.6-.6-.9-1.5-.9-2.7 0-1.2.3-2.1.8-2.8.6-.7 1.3-1 2.3-1 .9 0 1.6.3 2.1.9.5.6.8 1.4.8 2.3v.7H681c0 .8.2 1.5.6 1.9.4.4 1 .6 1.7.6.8 0 1.5-.2 2.3-.5v1c-.4.2-.7.3-1.1.3-.3.3-.7.3-1.2.3zm-.3-6.5c-.6 0-1 .2-1.4.6-.3.4-.5.9-.6 1.5h3.7c0-.7-.2-1.2-.5-1.6-.2-.3-.7-.5-1.2-.5zm14.3 6.4l-1.2-3h-3.8l-1.2 3H690l3.8-9.5h.9l3.8 9.5h-1.2zm-1.5-4l-1.1-3c-.1-.4-.3-.8-.5-1.4-.1.4-.2.9-.4 1.4l-1.1 3h3.1zm7.2 4.1c-.5 0-.9-.1-1.3-.2-.4-.2-.7-.4-1-.8h-.1c.1.4.1.8.1 1.2v2.9h-1.1v-10.3h.9l.1 1c.3-.4.6-.7 1-.8.4-.2.8-.3 1.3-.3.9 0 1.7.3 2.2 1 .5.6.8 1.6.8 2.7 0 1.2-.3 2.1-.8 2.7-.5.6-1.2.9-2.1.9zm-.2-6.5c-.7 0-1.3.2-1.6.6-.3.4-.5 1-.5 1.9v.2c0 1 .2 1.7.5 2.2.3.4.9.6 1.6.6.6 0 1.1-.2 1.5-.7.4-.5.5-1.2.5-2.1 0-.9-.2-1.6-.5-2-.4-.4-.9-.7-1.5-.7zm8.3 6.5c-.5 0-.9-.1-1.3-.2-.4-.2-.7-.4-1-.8h-.1c.1.4.1.8.1 1.2v2.9h-1.1v-10.3h.9l.1 1c.3-.4.6-.7 1-.8.4-.2.8-.3 1.3-.3.9 0 1.7.3 2.2 1 .5.6.8 1.6.8 2.7 0 1.2-.3 2.1-.8 2.7-.4.6-1.1.9-2.1.9zm-.1-6.5c-.7 0-1.3.2-1.6.6-.3.4-.5 1-.5 1.9v.2c0 1 .2 1.7.5 2.2.3.4.9.6 1.6.6.6 0 1.1-.2 1.5-.7.4-.5.5-1.2.5-2.1 0-.9-.2-1.6-.5-2-.4-.4-.9-.7-1.5-.7z"/><path class="st0 svg-elem-12" d="M662.3 134.4c0 .8-.3 1.5-.9 2-.6.5-1.4.7-2.5.7s-2-.1-2.6-.4v-1.1c.4.2.8.3 1.3.4.5.1.9.1 1.4.1.7 0 1.3-.1 1.7-.4.4-.3.6-.7.6-1.2 0-.3-.1-.6-.2-.8-.1-.2-.4-.4-.7-.6-.3-.2-.8-.4-1.4-.6-.9-.3-1.5-.7-1.9-1.1-.4-.4-.6-1-.6-1.7s.3-1.3.8-1.8c.6-.4 1.3-.7 2.2-.7.9 0 1.8.2 2.6.5l-.3 1c-.8-.3-1.6-.5-2.3-.5-.6 0-1 .1-1.4.4-.3.3-.5.6-.5 1 0 .3.1.6.2.8.1.2.3.4.6.6.3.2.7.4 1.3.6 1 .4 1.7.7 2.1 1.2.3.4.5.9.5 1.6zm4.8 2.6c-1.1 0-1.9-.3-2.5-1-.6-.6-.9-1.5-.9-2.7 0-1.2.3-2.1.8-2.8.6-.7 1.3-1 2.3-1 .9 0 1.6.3 2.1.9.5.6.8 1.4.8 2.3v.7h-4.9c0 .8.2 1.5.6 1.9.4.4 1 .6 1.7.6.8 0 1.5-.2 2.3-.5v1c-.4.2-.7.3-1.1.3-.4.3-.8.3-1.2.3zm-.3-6.5c-.6 0-1 .2-1.4.6-.3.4-.5.9-.6 1.5h3.7c0-.7-.2-1.2-.5-1.6-.2-.3-.7-.5-1.2-.5zm8-.9c.3 0 .6 0 .8.1l-.1 1c-.3-.1-.6-.1-.8-.1-.6 0-1.1.2-1.5.7-.4.5-.6 1.1-.6 1.8v3.8h-1.1v-7.1h.9l.1 1.3h.1c.3-.5.6-.8 1-1.1.3-.3.7-.4 1.2-.4zm3.7 7.3l-2.7-7.1h1.2l1.5 4.2c.4 1 .6 1.6.6 1.9 0-.2.2-.7.4-1.4.3-.7.8-2.3 1.7-4.7h1.2l-2.7 7.1h-1.2zm6.2 0h-1.1v-7.1h1.1v7.1zm-1.2-9.1c0-.2.1-.4.2-.5.1-.1.3-.2.5-.2s.3.1.5.2c.1.1.2.3.2.5s-.1.4-.2.5c-.1.1-.3.2-.5.2s-.3-.1-.5-.2c-.1-.1-.2-.2-.2-.5zm6.4 9.2c-1 0-1.8-.3-2.4-1-.6-.6-.8-1.5-.8-2.7 0-1.2.3-2.1.9-2.8.6-.7 1.4-1 2.5-1 .3 0 .7 0 1 .1.3.1.6.2.8.3l-.3.9c-.2-.1-.5-.2-.8-.2-.3-.1-.5-.1-.7-.1-1.4 0-2.2.9-2.2 2.8 0 .9.2 1.5.5 2 .4.5.9.7 1.6.7.6 0 1.2-.1 1.8-.4v1c-.6.3-1.2.4-1.9.4zm6.5 0c-1.1 0-1.9-.3-2.5-1-.6-.6-.9-1.5-.9-2.7 0-1.2.3-2.1.8-2.8.6-.7 1.3-1 2.3-1 .9 0 1.6.3 2.1.9.5.6.8 1.4.8 2.3v.7h-4.9c0 .8.2 1.5.6 1.9.4.4 1 .6 1.7.6.8 0 1.5-.2 2.3-.5v1c-.4.2-.7.3-1.1.3-.3.3-.8.3-1.2.3zm-.3-6.5c-.6 0-1 .2-1.4.6-.3.4-.5.9-.6 1.5h3.7c0-.7-.2-1.2-.5-1.6-.2-.3-.7-.5-1.2-.5z"/><path class="st7 svg-elem-13" d="M614.1 155.2c0-3.8 3.1-6.8 6.8-6.8h113.4c1.8 0 3.5.7 4.8 2s2 3 2 4.8v27.3c0 3.8-3.1 6.8-6.8 6.8H620.9c-3.8 0-6.8-3.1-6.8-6.8v-27.3z"/><path class="st0 svg-elem-14" d="M628.9 168.8l2.5-4.8h1.2l-3.2 5.8v3.7h-1.1V170l-3.2-5.9h1.2l2.6 4.7zm11 1.2c0 1.2-.3 2.1-.9 2.7-.6.6-1.4 1-2.4 1-.6 0-1.2-.1-1.7-.4-.5-.3-.9-.7-1.1-1.3s-.4-1.2-.4-2c0-1.2.3-2.1.9-2.7.6-.7 1.4-1 2.4-1s1.8.3 2.4 1c.5.7.8 1.6.8 2.7zm-5.4 0c0 .9.2 1.6.5 2.1.4.5.9.7 1.6.7.7 0 1.2-.2 1.6-.7.4-.5.6-1.2.6-2.1 0-.9-.2-1.6-.6-2.1-.4-.5-.9-.7-1.6-.7-.7 0-1.2.2-1.6.7-.3.5-.5 1.2-.5 2.1zm8.3-3.5v4.6c0 .6.1 1 .4 1.3.3.3.7.4 1.2.4.8 0 1.3-.2 1.6-.6s.5-1.1.5-2v-3.7h1.1v7.1h-.9l-.2-1h-.1c-.2.4-.5.6-.9.8-.4.2-.8.3-1.3.3-.9 0-1.5-.2-2-.6-.4-.4-.6-1.1-.6-2v-4.7h1.2zm10.5-.2c.3 0 .6 0 .8.1l-.1 1c-.3-.1-.6-.1-.8-.1-.6 0-1.1.2-1.5.7-.4.5-.6 1.1-.6 1.8v3.8H650v-7.1h.9l.1 1.3h.1c.3-.5.6-.8 1-1.1s.7-.4 1.2-.4zm11.8 7.3l-1.2-3h-3.8l-1.2 3h-1.1l3.8-9.5h.9l3.8 9.5h-1.2zm-1.6-4l-1.1-3c-.1-.4-.3-.8-.5-1.4-.1.4-.2.9-.4 1.4l-1.1 3h3.1zm7.2 4.1c-.5 0-.9-.1-1.3-.2-.4-.2-.7-.4-1-.8h-.1c.1.4.1.8.1 1.2v2.9h-1.1v-10.3h.9l.1 1c.3-.4.6-.7 1-.8.4-.2.8-.3 1.3-.3.9 0 1.7.3 2.2 1 .5.6.8 1.6.8 2.7 0 1.2-.3 2.1-.8 2.7-.5.6-1.2.9-2.1.9zm-.2-6.5c-.7 0-1.3.2-1.6.6-.3.4-.5 1-.5 1.9v.2c0 1 .2 1.7.5 2.2.3.4.9.6 1.6.6.6 0 1.1-.2 1.5-.7.4-.5.5-1.2.5-2.1 0-.9-.2-1.6-.5-2-.4-.4-.8-.7-1.5-.7zm8.3 6.5c-.5 0-.9-.1-1.3-.2-.4-.2-.7-.4-1-.8h-.1c.1.4.1.8.1 1.2v2.9h-1.1v-10.3h.9l.1 1c.3-.4.6-.7 1-.8.4-.2.8-.3 1.3-.3.9 0 1.7.3 2.2 1s.8 1.6.8 2.7c0 1.2-.3 2.1-.8 2.7s-1.1.9-2.1.9zm-.1-6.5c-.7 0-1.3.2-1.6.6-.3.4-.5 1-.5 1.9v.2c0 1 .2 1.7.5 2.2.3.4.9.6 1.6.6.6 0 1.1-.2 1.5-.7.4-.5.5-1.2.5-2.1 0-.9-.2-1.6-.5-2-.4-.4-.9-.7-1.5-.7zm14 3.9c0 .8-.3 1.5-.9 2-.6.5-1.4.7-2.5.7s-2-.1-2.6-.4v-1.1c.4.2.8.3 1.3.4.5.1.9.1 1.4.1.7 0 1.3-.1 1.7-.4.4-.3.6-.7.6-1.2 0-.3-.1-.6-.2-.8-.1-.2-.4-.4-.7-.6-.3-.2-.8-.4-1.4-.6-.9-.3-1.5-.7-1.9-1.1-.4-.4-.6-1-.6-1.7s.3-1.3.8-1.8c.6-.4 1.3-.7 2.2-.7.9 0 1.8.2 2.6.5l-.3 1c-.8-.3-1.6-.5-2.3-.5-.6 0-1 .1-1.4.4-.3.2-.5.6-.5 1 0 .3.1.6.2.8.1.2.3.4.6.6.3.2.7.4 1.3.6 1 .4 1.7.7 2.1 1.2.3.4.5.9.5 1.6zm4.8 2.6c-1.1 0-1.9-.3-2.5-1-.6-.6-.9-1.5-.9-2.7 0-1.2.3-2.1.8-2.8.6-.7 1.3-1 2.3-1 .9 0 1.6.3 2.1.9.5.6.8 1.4.8 2.3v.7h-4.9c0 .8.2 1.5.6 1.9.4.4 1 .6 1.7.6.8 0 1.5-.2 2.3-.5v1c-.4.2-.7.3-1.1.3-.3.3-.7.3-1.2.3zm-.3-6.5c-.6 0-1 .2-1.4.6-.3.4-.5.9-.6 1.5h3.7c0-.7-.2-1.2-.5-1.6-.2-.3-.7-.5-1.2-.5zm8-.9c.3 0 .6 0 .8.1l-.1 1c-.3-.1-.6-.1-.8-.1-.6 0-1.1.2-1.5.7-.4.5-.6 1.1-.6 1.8v3.8h-1.1v-7.1h.9l.1 1.3h.1c.3-.5.6-.8 1-1.1.3-.2.8-.4 1.2-.4zm3.7 7.3l-2.7-7.1h1.2l1.5 4.2c.4 1 .6 1.6.6 1.9 0-.2.2-.7.4-1.4.3-.7.8-2.3 1.7-4.7h1.2l-2.7 7.1h-1.2zm6.2 0H714v-7.1h1.1v7.1zm-1.1-9.1c0-.2.1-.4.2-.5.1-.1.3-.2.5-.2s.3.1.5.2c.1.1.2.3.2.5s-.1.4-.2.5c-.1.1-.3.2-.5.2s-.3-.1-.5-.2c-.2 0-.2-.2-.2-.5zm6.3 9.2c-1 0-1.8-.3-2.4-1-.6-.6-.8-1.5-.8-2.7 0-1.2.3-2.1.9-2.8.6-.7 1.4-1 2.5-1 .3 0 .7 0 1 .1s.6.2.8.3l-.3.9c-.2-.1-.5-.2-.8-.2-.3-.1-.5-.1-.7-.1-1.4 0-2.2.9-2.2 2.8 0 .9.2 1.5.5 2 .4.5.9.7 1.6.7.6 0 1.2-.1 1.8-.4v1c-.6.3-1.2.4-1.9.4zm6.5 0c-1.1 0-1.9-.3-2.5-1-.6-.6-.9-1.5-.9-2.7 0-1.2.3-2.1.8-2.8.6-.7 1.3-1 2.3-1 .9 0 1.6.3 2.1.9.5.6.8 1.4.8 2.3v.7h-4.9c0 .8.2 1.5.6 1.9.4.4 1 .6 1.7.6.8 0 1.5-.2 2.3-.5v1c-.4.2-.7.3-1.1.3-.3.3-.7.3-1.2.3zm-.3-6.5c-.6 0-1 .2-1.4.6-.3.4-.5.9-.6 1.5h3.7c0-.7-.2-1.2-.5-1.6-.2-.3-.6-.5-1.2-.5z"/><path class="st6 svg-elem-15" d="M469.7 134.7c0-3.8 3.1-6.8 6.8-6.8h85.7c1.8 0 3.5.7 4.8 2s2 3 2 4.8V162c0 3.8-3.1 6.8-6.8 6.8h-85.7c-3.8 0-6.8-3.1-6.8-6.8v-27.3z"/><path class="st8 svg-elem-16" d="M469.7 134.7c0-3.8 3.1-6.8 6.8-6.8h85.7c1.8 0 3.5.7 4.8 2s2 3 2 4.8V162c0 3.8-3.1 6.8-6.8 6.8h-85.7c-3.8 0-6.8-3.1-6.8-6.8v-27.3z"/><path class="st9 svg-elem-17" d="M496.4 141.4h2.9v4.2c-.5.1-.9.3-1.4.3-.5.1-1 .1-1.6.1-1.3 0-2.3-.4-3-1.2-.7-.8-1.1-1.9-1.1-3.2 0-.9.2-1.7.5-2.3.4-.7.9-1.2 1.5-1.5.7-.4 1.5-.5 2.4-.5.9 0 1.8.2 2.6.5l-.4.9c-.8-.3-1.5-.5-2.2-.5-1 0-1.9.3-2.5.9-.6.6-.9 1.5-.9 2.6 0 1.2.3 2 .8 2.6.6.6 1.4.9 2.5.9.6 0 1.2-.1 1.7-.2v-2.6h-1.9v-1zm8.7 4.5l-.2-.9c-.3.4-.6.7-1 .8-.3.1-.7.2-1.2.2-.6 0-1.1-.2-1.5-.5s-.5-.8-.5-1.4c0-1.3 1-2 3.1-2h1.1v-.4c0-.5-.1-.9-.3-1.1-.2-.2-.6-.4-1-.4-.5 0-1.1.2-1.8.5l-.3-.8c.3-.2.7-.3 1-.4.4-.1.8-.2 1.1-.2.8 0 1.3.2 1.7.5.4.3.6.9.6 1.6v4.4h-.8zm-2.2-.7c.6 0 1.1-.2 1.4-.5.4-.3.5-.8.5-1.4v-.6h-1c-.8 0-1.3.2-1.7.4-.3.2-.5.5-.5 1 0 .4.1.6.3.8.4.2.7.3 1 .3zm7 0h.5c.2 0 .3-.1.4-.1v.7c-.1.1-.3.1-.5.1s-.4.1-.5.1c-1.2 0-1.9-.7-1.9-2v-3.8h-.9v-.5l.9-.4.4-1.4h.6v1.5h1.9v.8h-1.9v3.8c0 .4.1.7.3.9.2.2.4.3.7.3zm4.9.8c-.9 0-1.7-.3-2.2-.9s-.8-1.4-.8-2.4.3-1.9.8-2.5c.5-.6 1.2-.9 2.1-.9.8 0 1.4.3 1.9.8s.7 1.2.7 2.1v.6h-4.4c0 .8.2 1.3.6 1.7.4.4.9.6 1.5.6.7 0 1.4-.1 2-.4v.9c-.3.1-.7.2-1 .3-.4.1-.8.1-1.2.1zm-.2-5.9c-.5 0-.9.2-1.2.5-.3.3-.5.8-.5 1.4h3.4c0-.6-.1-1.1-.4-1.4-.4-.3-.8-.5-1.3-.5zm9.5 5.8l-1.2-3.8c-.1-.2-.2-.8-.4-1.6-.2.7-.3 1.2-.4 1.6l-1.2 3.8h-1.1l-1.8-6.4h1c.4 1.6.7 2.8.9 3.7.2.8.3 1.4.4 1.7 0-.2.1-.5.2-.9s.2-.6.3-.8l1.2-3.7h1l1.2 3.7c.2.7.4 1.2.4 1.7 0-.1.1-.3.1-.6.1-.3.5-1.9 1.2-4.7h1l-1.8 6.4h-1zm8 0l-.2-.9c-.3.4-.6.7-1 .8-.3.1-.7.2-1.2.2-.6 0-1.1-.2-1.5-.5s-.5-.8-.5-1.4c0-1.3 1-2 3.1-2h1.1v-.4c0-.5-.1-.9-.3-1.1-.2-.2-.6-.4-1-.4-.5 0-1.1.2-1.8.5l-.3-.8c.3-.2.7-.3 1-.4.4-.1.8-.2 1.1-.2.8 0 1.3.2 1.7.5.4.3.6.9.6 1.6v4.4h-.8zm-2.2-.7c.6 0 1.1-.2 1.4-.5.4-.3.5-.8.5-1.4v-.6h-1c-.8 0-1.3.2-1.7.4-.3.2-.5.5-.5 1 0 .4.1.6.3.8.3.2.6.3 1 .3zm3.9-5.8h1l1.4 3.7c.3.8.5 1.4.6 1.8.1-.2.2-.5.3-1 .2-.5.7-2 1.6-4.5h1l-2.8 7.3c-.3.7-.6 1.2-1 1.5-.4.3-.8.5-1.3.5-.3 0-.6 0-.9-.1v-.8c.2.1.5.1.7.1.7 0 1.1-.4 1.4-1.1l.4-.9-2.4-6.5zm13.5-2.1l-3.2 8.6h-1l3.2-8.6h1z"/><path class="st9 svg-elem-18" d="M500.4 159.9v-8.6h1v8.6h-1zm7.6 0v-4.2c0-.5-.1-.9-.4-1.2-.2-.3-.6-.4-1.1-.4-.7 0-1.2.2-1.5.5s-.5 1-.5 1.8v3.4h-1v-6.4h.8l.2.9c.2-.3.5-.6.8-.7.4-.2.8-.3 1.2-.3.8 0 1.4.2 1.8.6.4.4.6 1 .6 1.8v4.2h-.9zm8.2-6.5v.6l-1.2.1c.1.1.2.3.3.5.1.2.1.5.1.7 0 .6-.2 1.1-.6 1.5s-1 .6-1.8.6h-.5c-.4.2-.6.5-.6.8 0 .2.1.3.2.4.1.1.4.1.8.1h1.1c.7 0 1.2.1 1.6.4.4.3.6.7.6 1.3 0 .7-.3 1.2-.9 1.6-.6.4-1.4.6-2.5.6-.8 0-1.5-.2-2-.5-.4-.3-.7-.8-.7-1.3 0-.4.1-.7.4-1 .2-.3.6-.5 1-.6-.2-.1-.3-.2-.4-.3-.1-.2-.2-.3-.2-.5s.1-.4.2-.6.3-.3.6-.5c-.3-.1-.6-.4-.8-.7-.2-.3-.3-.7-.3-1.1 0-.7.2-1.2.6-1.6.4-.4 1-.6 1.8-.6.3 0 .6 0 .9.1h2.3zm-5.1 7.5c0 .3.1.6.4.8.3.2.7.3 1.2.3.8 0 1.4-.1 1.8-.4.4-.2.6-.6.6-1 0-.3-.1-.6-.3-.7-.2-.1-.6-.2-1.2-.2h-1.2c-.4 0-.8.1-1 .3-.2.2-.3.5-.3.9zm.5-5.4c0 .4.1.8.4 1 .3.2.6.3 1.1.3.9 0 1.4-.5 1.4-1.4 0-1-.5-1.4-1.4-1.4-.5 0-.8.1-1.1.4-.3.2-.4.6-.4 1.1zm8.9-2.2c.3 0 .5 0 .8.1l-.1.9c-.3-.1-.5-.1-.7-.1-.5 0-1 .2-1.3.6-.4.4-.5.9-.5 1.6v3.5h-1v-6.4h.8l.1 1.2c.2-.4.5-.7.8-1 .3-.3.7-.4 1.1-.4zm4.7 6.7c-.9 0-1.7-.3-2.2-.9s-.8-1.4-.8-2.4.3-1.9.8-2.5c.5-.6 1.2-.9 2.1-.9.8 0 1.4.3 1.9.8s.7 1.2.7 2.1v.6h-4.4c0 .8.2 1.3.6 1.7.4.4.9.6 1.5.6.7 0 1.4-.1 2-.4v.9c-.3.1-.7.2-1 .3-.5.1-.8.1-1.2.1zm-.3-5.9c-.5 0-.9.2-1.2.5-.3.3-.5.8-.5 1.4h3.4c0-.6-.1-1.1-.4-1.4s-.8-.5-1.3-.5zm8.4 4c0 .6-.2 1.1-.7 1.4-.4.3-1.1.5-1.9.5-.8 0-1.5-.1-2-.4v-.9c.3.2.6.3 1 .4.4.1.7.1 1 .1.5 0 .9-.1 1.2-.2.3-.2.4-.4.4-.8 0-.2-.1-.5-.3-.6-.2-.2-.6-.4-1.3-.6-.6-.2-1-.4-1.3-.6l-.6-.6c-.1-.2-.2-.5-.2-.8 0-.5.2-.9.6-1.2.4-.3 1-.5 1.8-.5.7 0 1.4.1 2 .4l-.4.8c-.6-.3-1.2-.4-1.8-.4-.5 0-.8.1-1 .2-.2.1-.3.3-.3.6 0 .2 0 .3.1.4.1.1.2.2.4.3.2.1.6.3 1.1.5.8.3 1.3.6 1.5.8.6.4.7.8.7 1.2zm5.7 0c0 .6-.2 1.1-.7 1.4-.4.3-1.1.5-1.9.5-.8 0-1.5-.1-2-.4v-.9c.3.2.6.3 1 .4.4.1.7.1 1 .1.5 0 .9-.1 1.2-.2.3-.2.4-.4.4-.8 0-.2-.1-.5-.3-.6-.2-.2-.6-.4-1.3-.6-.6-.2-1-.4-1.3-.6l-.6-.6c-.1-.2-.2-.5-.2-.8 0-.5.2-.9.6-1.2.4-.3 1-.5 1.8-.5.7 0 1.4.1 2 .4l-.4.8c-.6-.3-1.2-.4-1.8-.4-.5 0-.8.1-1 .2-.2.1-.3.3-.3.6 0 .2 0 .3.1.4.1.1.2.2.4.3.2.1.6.3 1.1.5.8.3 1.3.6 1.5.8.6.4.7.8.7 1.2z"/><path class="st6 svg-elem-19" d="M764.9 139.8c0-3.8 3.1-6.8 6.8-6.8h80.4c1.8 0 3.5.7 4.8 2s2 3 2 4.8V167c0 3.8-3.1 6.8-6.8 6.8h-80.4c-3.8 0-6.8-3.1-6.8-6.8v-27.2z"/><path class="st8 svg-elem-20" d="M764.9 139.8c0-3.8 3.1-6.8 6.8-6.8h80.4c1.8 0 3.5.7 4.8 2s2 3 2 4.8V167c0 3.8-3.1 6.8-6.8 6.8h-80.4c-3.8 0-6.8-3.1-6.8-6.8v-27.2z"/><path class="st9 svg-elem-21" d="M788.9 146.4h2.9v4.2c-.5.1-.9.3-1.4.3-.5.1-1 .1-1.6.1-1.3 0-2.3-.4-3-1.2-.7-.8-1.1-1.9-1.1-3.2 0-.9.2-1.7.5-2.3.4-.7.9-1.2 1.5-1.5.7-.4 1.5-.5 2.4-.5.9 0 1.8.2 2.6.5l-.4.9c-.8-.3-1.5-.5-2.2-.5-1 0-1.9.3-2.5.9-.6.6-.9 1.5-.9 2.6 0 1.2.3 2 .8 2.6.6.6 1.4.9 2.5.9.6 0 1.2-.1 1.7-.2v-2.6h-1.9v-1zm8.8 4.5l-.2-.9c-.3.4-.6.7-1 .8-.3.1-.7.2-1.2.2-.6 0-1.1-.2-1.5-.5-.4-.3-.5-.8-.5-1.4 0-1.3 1-2 3.1-2h1.1v-.4c0-.5-.1-.9-.3-1.1-.2-.2-.6-.4-1-.4-.5 0-1.1.2-1.8.5l-.3-.8c.3-.2.7-.3 1-.4.4-.1.8-.2 1.1-.2.8 0 1.3.2 1.7.5.4.3.6.9.6 1.6v4.4h-.8zm-2.2-.7c.6 0 1.1-.2 1.4-.5.4-.3.5-.8.5-1.4v-.6h-1c-.8 0-1.3.2-1.7.4-.3.2-.5.5-.5 1 0 .4.1.6.3.8.3.2.6.3 1 .3zm7 0h.5c.2 0 .3-.1.4-.1v.7c-.1.1-.3.1-.5.1s-.4.1-.5.1c-1.2 0-1.9-.7-1.9-2v-3.8h-.9v-.5l.9-.4.4-1.4h.6v1.5h1.9v.8h-1.9v3.8c0 .4.1.7.3.9.1.2.4.3.7.3zm4.9.8c-.9 0-1.7-.3-2.2-.9-.6-.6-.8-1.4-.8-2.4s.3-1.9.8-2.5c.5-.6 1.2-.9 2.1-.9.8 0 1.4.3 1.9.8s.7 1.2.7 2.1v.6h-4.4c0 .8.2 1.3.6 1.7.4.4.9.6 1.5.6.7 0 1.4-.1 2-.4v.9c-.3.1-.7.2-1 .3-.5.1-.8.1-1.2.1zm-.3-5.8c-.5 0-.9.2-1.2.5-.3.3-.5.8-.5 1.4h3.4c0-.6-.1-1.1-.4-1.4-.4-.4-.8-.5-1.3-.5zm9.5 5.7l-1.2-3.8c-.1-.2-.2-.8-.4-1.6-.2.7-.3 1.2-.4 1.6l-1.2 3.8h-1.1l-1.8-6.4h1c.4 1.6.7 2.8.9 3.7.2.8.3 1.4.4 1.7 0-.2.1-.5.2-.9s.2-.6.3-.8l1.2-3.7h1l1.2 3.7c.2.7.4 1.2.4 1.7 0-.1.1-.3.1-.6.1-.3.5-1.9 1.2-4.7h1l-1.8 6.4h-1zm8.1 0l-.2-.9c-.3.4-.6.7-1 .8-.3.1-.7.2-1.2.2-.6 0-1.1-.2-1.5-.5-.4-.3-.5-.8-.5-1.4 0-1.3 1-2 3.1-2h1.1v-.4c0-.5-.1-.9-.3-1.1-.2-.2-.6-.4-1-.4-.5 0-1.1.2-1.8.5l-.3-.8c.3-.2.7-.3 1-.4.4-.1.8-.2 1.1-.2.8 0 1.3.2 1.7.5.4.3.6.9.6 1.6v4.4h-.8zm-2.2-.7c.6 0 1.1-.2 1.4-.5.4-.3.5-.8.5-1.4v-.6h-1c-.8 0-1.3.2-1.7.4-.3.2-.5.5-.5 1 0 .4.1.6.3.8.3.2.6.3 1 .3zm3.9-5.7h1l1.4 3.7c.3.8.5 1.4.6 1.8.1-.2.2-.5.3-1 .2-.5.7-2 1.6-4.5h1l-2.8 7.3c-.3.7-.6 1.2-1 1.5-.4.3-.8.5-1.3.5-.3 0-.6 0-.9-.1v-.8c.2.1.5.1.7.1.7 0 1.1-.4 1.4-1.1l.4-.9-2.4-6.5zm13.4-2.2l-3.2 8.6h-1l3.2-8.6h1z"/><path class="st9 svg-elem-22" d="M799.7 164.9h-4.8v-8.6h4.8v.9h-3.8v2.8h3.5v.9h-3.5v3.2h3.8v.8zm7-6.4v.6l-1.2.1c.1.1.2.3.3.5.1.2.1.5.1.7 0 .6-.2 1.1-.6 1.5-.4.4-1 .6-1.8.6h-.5c-.4.2-.6.5-.6.8 0 .2.1.3.2.4.1.1.4.1.8.1h1.1c.7 0 1.2.1 1.6.4.4.3.6.7.6 1.3 0 .7-.3 1.2-.9 1.6-.6.4-1.4.6-2.5.6-.8 0-1.5-.2-2-.5-.4-.3-.7-.8-.7-1.3 0-.4.1-.7.4-1 .2-.3.6-.5 1-.6-.2-.1-.3-.2-.4-.3-.1-.2-.2-.3-.2-.5s.1-.4.2-.6c.1-.2.3-.3.6-.5-.3-.1-.6-.4-.8-.7-.2-.3-.3-.7-.3-1.1 0-.7.2-1.2.6-1.6.4-.4 1-.6 1.8-.6.3 0 .6 0 .9.1h2.3zm-5.1 7.5c0 .3.1.6.4.8.3.2.7.3 1.2.3.8 0 1.4-.1 1.8-.4.4-.2.6-.6.6-1 0-.3-.1-.6-.3-.7-.2-.1-.6-.2-1.2-.2H803c-.4 0-.8.1-1 .3-.3.2-.4.5-.4.9zm.5-5.5c0 .4.1.8.4 1 .3.2.6.3 1.1.3.9 0 1.4-.5 1.4-1.4 0-1-.5-1.4-1.4-1.4-.5 0-.8.1-1.1.4-.2.3-.4.7-.4 1.1zm8.9-2.1c.3 0 .5 0 .8.1l-.1.9c-.3-.1-.5-.1-.7-.1-.5 0-1 .2-1.3.6-.4.4-.5.9-.5 1.6v3.5h-1v-6.4h.8l.1 1.2c.2-.4.5-.7.8-1 .3-.3.7-.4 1.1-.4zm4.7 6.6c-.9 0-1.7-.3-2.2-.9-.6-.6-.8-1.4-.8-2.4s.3-1.9.8-2.5c.5-.6 1.2-.9 2.1-.9.8 0 1.4.3 1.9.8s.7 1.2.7 2.1v.6h-4.4c0 .8.2 1.3.6 1.7.4.4.9.6 1.5.6.7 0 1.4-.1 2-.4v.9c-.3.1-.7.2-1 .3-.4.1-.8.1-1.2.1zm-.3-5.8c-.5 0-.9.2-1.2.5-.3.3-.5.8-.5 1.4h3.4c0-.6-.1-1.1-.4-1.4-.4-.4-.8-.5-1.3-.5zm8.4 3.9c0 .6-.2 1.1-.7 1.4-.4.3-1.1.5-1.9.5-.8 0-1.5-.1-2-.4v-.9c.3.2.6.3 1 .4.4.1.7.1 1 .1.5 0 .9-.1 1.2-.2.3-.2.4-.4.4-.8 0-.2-.1-.5-.3-.6-.2-.2-.6-.4-1.3-.6-.6-.2-1-.4-1.3-.6l-.6-.6c-.1-.2-.2-.5-.2-.8 0-.5.2-.9.6-1.2.4-.3 1-.5 1.8-.5.7 0 1.4.1 2 .4l-.4.8c-.6-.3-1.2-.4-1.8-.4-.5 0-.8.1-1 .2-.2.1-.3.3-.3.6 0 .2 0 .3.1.4.1.1.2.2.4.3.2.1.6.3 1.1.5.8.3 1.3.6 1.5.8.6.5.7.8.7 1.2zm5.7 0c0 .6-.2 1.1-.7 1.4-.4.3-1.1.5-1.9.5-.8 0-1.5-.1-2-.4v-.9c.3.2.6.3 1 .4.4.1.7.1 1 .1.5 0 .9-.1 1.2-.2.3-.2.4-.4.4-.8 0-.2-.1-.5-.3-.6-.2-.2-.6-.4-1.3-.6-.6-.2-1-.4-1.3-.6l-.6-.6c-.1-.2-.2-.5-.2-.8 0-.5.2-.9.6-1.2.4-.3 1-.5 1.8-.5.7 0 1.4.1 2 .4l-.4.8c-.6-.3-1.2-.4-1.8-.4-.5 0-.8.1-1 .2-.2.1-.3.3-.3.6 0 .2 0 .3.1.4.1.1.2.2.4.3.2.1.6.3 1.1.5.8.3 1.3.6 1.5.8.6.5.7.8.7 1.2z"/><path class="st10 svg-elem-23" d="M205.2 146.9l264.5 1.4"/><path class="st5 svg-elem-24" d="M205.2 146.9l258.5 1.4"/><path class="st11 svg-elem-25" d="M463.7 150l4.5-1.6-4.5-1.7v3.3z"/><path class="st0 svg-elem-26" d="M416.7 236.6c0-2.2 1.7-3.9 3.9-3.9h86.2c1 0 2 .4 2.8 1.1.7.7 1.1 1.7 1.1 2.8v15.6c0 2.2-1.7 3.9-3.9 3.9h-86.2c-2.2 0-3.9-1.7-3.9-3.9v-15.6z"/><path class="st12 svg-elem-27" d="M416.7 236.6c0-2.2 1.7-3.9 3.9-3.9h86.2c1 0 2 .4 2.8 1.1.7.7 1.1 1.7 1.1 2.8v15.6c0 2.2-1.7 3.9-3.9 3.9h-86.2c-2.2 0-3.9-1.7-3.9-3.9v-15.6z"/><path d="M448.1 244.2h2.6v3.7l-1.2.3c-.4.1-.9.1-1.5.1-1.1 0-2-.3-2.7-1-.6-.7-1-1.6-1-2.9 0-.8.2-1.5.5-2.1.3-.6.8-1.1 1.4-1.4.6-.3 1.3-.5 2.1-.5s1.6.2 2.3.5l-.3.8c-.7-.3-1.3-.4-2-.4-.9 0-1.7.3-2.2.8-.5.6-.8 1.3-.8 2.3 0 1 .2 1.8.8 2.3.5.5 1.2.8 2.2.8.5 0 1-.1 1.5-.2V245h-1.7v-.8zm6.8-1.8c.2 0 .5 0 .7.1l-.1.8c-.2-.1-.4-.1-.6-.1-.5 0-.9.2-1.2.6-.3.4-.5.8-.5 1.4v3.1h-.9v-5.7h.7l.1 1.1c.2-.4.5-.7.8-.9.4-.3.7-.4 1-.4zm5.3 5.8l-.2-.8c-.3.4-.6.6-.8.7-.3.1-.6.2-1.1.2-.6 0-1-.1-1.3-.4-.3-.3-.5-.7-.5-1.2 0-1.1.9-1.7 2.8-1.8h1v-.3c0-.4-.1-.8-.3-1-.2-.2-.5-.3-.9-.3-.5 0-1 .1-1.6.4l-.3-.7c.3-.1.6-.3.9-.3.3-.1.7-.1 1-.1.7 0 1.2.2 1.5.5.3.3.5.8.5 1.5v3.9h-.7zm-2-.6c.5 0 1-.1 1.3-.4.3-.3.5-.7.5-1.2v-.5h-.9c-.7 0-1.2.1-1.5.3-.3.2-.5.5-.5.9 0 .3.1.6.3.7.2.1.5.2.8.2zm7-4.4h-1.5v5h-.9v-5h-1v-.4l1-.3v-.3c0-1.4.6-2.1 1.8-2.1.3 0 .7.1 1.1.2l-.2.7c-.3-.1-.6-.2-.9-.2-.3 0-.6.1-.7.3-.2.2-.2.6-.2 1v.4h1.5v.7zm4.5 5l-.2-.8c-.3.4-.6.6-.8.7-.3.1-.6.2-1.1.2-.6 0-1-.1-1.3-.4-.3-.3-.5-.7-.5-1.2 0-1.1.9-1.7 2.8-1.8h1v-.3c0-.4-.1-.8-.3-1-.2-.2-.5-.3-.9-.3-.5 0-1 .1-1.6.4l-.3-.7c.3-.1.6-.3.9-.3.3-.1.7-.1 1-.1.7 0 1.2.2 1.5.5.3.3.5.8.5 1.5v3.9h-.7zm-1.9-.6c.5 0 1-.1 1.3-.4.3-.3.5-.7.5-1.2v-.5h-.9c-.7 0-1.2.1-1.5.3-.3.2-.5.5-.5.9 0 .3.1.6.3.7.2.1.4.2.8.2zm8.2.6v-3.7c0-.5-.1-.8-.3-1-.2-.2-.5-.3-1-.3-.6 0-1 .2-1.3.5-.3.3-.4.9-.4 1.6v3h-.9v-5.7h.7l.1.8c.2-.3.4-.5.7-.7.3-.2.7-.2 1.1-.2.7 0 1.2.2 1.5.5.4.3.5.9.5 1.6v3.7h-.7zm6.2 0l-.2-.8c-.3.4-.6.6-.8.7-.3.1-.6.2-1.1.2-.6 0-1-.1-1.3-.4-.3-.3-.5-.7-.5-1.2 0-1.1.9-1.7 2.8-1.8h1v-.3c0-.4-.1-.8-.3-1-.2-.2-.5-.3-.9-.3-.5 0-1 .1-1.6.4l-.3-.7c.3-.1.6-.3.9-.3.3-.1.7-.1 1-.1.7 0 1.2.2 1.5.5.3.3.5.8.5 1.5v3.9h-.7zm-2-.6c.5 0 1-.1 1.3-.4.3-.3.5-.7.5-1.2v-.5h-.9c-.7 0-1.2.1-1.5.3-.3.2-.5.5-.5.9 0 .3.1.6.3.7.2.1.5.2.8.2z" class="svg-elem-28"/><path class="st13 svg-elem-29" d="M87.2 237.7c0-4.5 3.6-8.1 8.1-8.1h92c2.2 0 4.2.9 5.8 2.4 1.5 1.5 2.4 3.6 2.4 5.8v32.6c0 4.5-3.6 8.1-8.1 8.1h-92c-4.5 0-8.1-3.6-8.1-8.1v-32.7z"/><path class="st5 svg-elem-30" d="M87.2 237.7c0-4.5 3.6-8.1 8.1-8.1h92c2.2 0 4.2.9 5.8 2.4 1.5 1.5 2.4 3.6 2.4 5.8v32.6c0 4.5-3.6 8.1-8.1 8.1h-92c-4.5 0-8.1-3.6-8.1-8.1v-32.7z"/><path class="st0 svg-elem-31" d="M114.3 250.1v-10.5h2.1l2.5 7.4c.2.7.4 1.2.5 1.5.1-.4.3-.9.6-1.7l2.5-7.3h1.9V250H123v-8.8l-3 8.8h-1.3l-3-8.9v8.9h-1.4zm17.3-2.5l1.3.2c-.2.8-.6 1.4-1.2 1.8-.6.4-1.3.6-2.2.6-1.1 0-2-.3-2.7-1-.6-.7-1-1.7-1-2.9 0-1.3.3-2.3 1-3 .7-.7 1.5-1.1 2.6-1.1 1 0 1.8.3 2.5 1 .6.7 1 1.7 1 2.9v.3h-5.7c0 .8.3 1.5.7 1.9.4.4 1 .7 1.6.7.5 0 .9-.1 1.2-.4.4 0 .7-.4.9-1zm-4.3-2h4.2c-.1-.6-.2-1.1-.5-1.4-.4-.5-1-.8-1.6-.8-.6 0-1.1.2-1.5.6-.3.4-.5.9-.6 1.6zm6.7 2.2l1.3-.2c.1.5.3.9.6 1.2.3.3.8.4 1.4.4.6 0 1-.1 1.3-.4.3-.2.4-.5.4-.8 0-.3-.1-.5-.4-.7-.2-.1-.6-.3-1.3-.4-.9-.2-1.6-.4-2-.6-.4-.2-.6-.4-.8-.7-.2-.3-.3-.7-.3-1 0-.3.1-.7.2-.9.2-.3.4-.5.6-.7.2-.1.5-.3.8-.4.4-.1.7-.2 1.1-.2.6 0 1.1.1 1.6.3.4.2.8.4 1 .7.2.3.4.7.4 1.2l-1.2.2c-.1-.4-.2-.7-.5-.9-.3-.2-.7-.3-1.2-.3-.6 0-1 .1-1.3.3-.2.2-.4.4-.4.7 0 .2.1.3.2.5.1.1.3.2.5.3.1.1.5.2 1.1.3.9.2 1.5.4 1.9.6.4.2.7.4.9.7.2.3.3.7.3 1.1 0 .4-.1.8-.4 1.2-.2.4-.6.7-1.1.9-.5.2-1 .3-1.6.3-1 0-1.7-.2-2.3-.6-.3-.7-.6-1.3-.8-2.1zm7.9 2.3v-10.5h1.3v3.8c.6-.7 1.4-1 2.3-1 .6 0 1.1.1 1.5.3.4.2.7.5.9.9.2.4.3 1 .3 1.7v4.8h-1.3v-4.8c0-.6-.1-1.1-.4-1.4-.3-.3-.7-.4-1.2-.4-.4 0-.7.1-1.1.3-.3.2-.6.5-.7.8-.1.3-.2.8-.2 1.4v4.2h-1.4zm13.3-2.5l1.3.2c-.2.8-.6 1.4-1.2 1.8-.6.4-1.3.6-2.2.6-1.1 0-2-.3-2.7-1-.6-.7-1-1.7-1-2.9 0-1.3.3-2.3 1-3 .7-.7 1.5-1.1 2.6-1.1 1 0 1.8.3 2.5 1 .6.7 1 1.7 1 2.9v.3h-5.7c0 .8.3 1.5.7 1.9.4.4 1 .7 1.6.7.5 0 .9-.1 1.2-.4.4 0 .7-.4.9-1zm-4.2-2h4.2c-.1-.6-.2-1.1-.5-1.4-.4-.5-1-.8-1.6-.8-.6 0-1.1.2-1.5.6-.4.4-.6.9-.6 1.6zm7.1 4.5v-7.6h1.2v1.1c.3-.5.6-.9.8-1 .3-.2.5-.3.8-.3.4 0 .9.1 1.3.4l-.4 1.2c-.3-.2-.6-.3-1-.3-.3 0-.5.1-.8.2-.2.2-.4.4-.5.7-.1.5-.2 1-.2 1.5v4h-1.2zm4.9 2.9l-.1-1.2c.3.1.5.1.7.1.3 0 .5 0 .7-.1.2-.1.3-.2.4-.4.1-.1.2-.4.4-1 0-.1.1-.2.1-.3l-2.9-7.6h1.4l1.6 4.4c.2.6.4 1.2.5 1.8.2-.6.3-1.2.5-1.7l1.6-4.4h1.3l-2.9 7.7c-.3.8-.6 1.4-.7 1.7-.2.4-.5.7-.8.9-.3.2-.6.3-1.1.3-.1 0-.4-.1-.7-.2z"/><path class="st0 svg-elem-32" d="M118.7 267.2c-.5.4-.9.7-1.4.9-.4.2-.9.2-1.4.2-.8 0-1.5-.2-1.9-.6-.4-.4-.7-.9-.7-1.6 0-.4.1-.7.2-1 .2-.3.4-.6.7-.8.3-.2.6-.3.9-.4.2-.1.6-.1 1.1-.2 1-.1 1.8-.3 2.3-.5v-.3c0-.5-.1-.9-.4-1.1-.3-.3-.8-.4-1.5-.4-.6 0-1.1.1-1.4.3-.3.2-.5.6-.6 1.1l-1.3-.2c.1-.5.3-1 .6-1.3.3-.3.6-.6 1.1-.8.5-.2 1.1-.3 1.7-.3.7 0 1.2.1 1.6.2.4.1.7.3.9.6.2.2.3.5.4.9 0 .2.1.6.1 1.2v1.7c0 1.2 0 2 .1 2.3l.3.9H119c-.2-.2-.3-.5-.3-.8zm-.1-2.9c-.5.2-1.2.3-2.1.5-.5.1-.9.2-1.1.3-.2.1-.4.2-.5.4-.1.2-.2.4-.2.6 0 .3.1.6.4.9.3.2.6.3 1.1.3.5 0 .9-.1 1.3-.3.4-.2.7-.5.9-.9.1-.3.2-.7.2-1.3v-.5zm8.2 3.8v-1c-.5.7-1.2 1.1-2.1 1.1-.6 0-1.2-.2-1.7-.5s-.9-.8-1.2-1.4c-.3-.6-.4-1.3-.4-2.1s.1-1.4.4-2.1c.3-.6.6-1.1 1.1-1.4.5-.3 1.1-.5 1.7-.5.5 0 .9.1 1.2.3.4.2.6.4.9.7v-3.8h1.3v10.5h-1.2zm-4-3.8c0 1 .2 1.7.6 2.2.4.5.9.7 1.5.7s1-.2 1.4-.7c.4-.5.6-1.2.6-2.1 0-1-.2-1.8-.6-2.3-.4-.5-.9-.7-1.5-.7s-1 .2-1.4.7c-.4.5-.6 1.2-.6 2.2zm12.2 2.9c-.5.4-.9.7-1.4.9-.4.2-.9.2-1.4.2-.8 0-1.5-.2-1.9-.6-.4-.4-.7-.9-.7-1.6 0-.4.1-.7.2-1 .2-.3.4-.6.7-.8.3-.2.6-.3.9-.4.2-.1.6-.1 1.1-.2 1-.1 1.8-.3 2.3-.5v-.3c0-.5-.1-.9-.4-1.1-.3-.3-.8-.4-1.5-.4-.6 0-1.1.1-1.4.3-.3.2-.5.6-.6 1.1l-1.3-.2c.1-.5.3-1 .6-1.3.3-.3.6-.6 1.1-.8.5-.2 1.1-.3 1.7-.3.7 0 1.2.1 1.6.2.4.1.7.3.9.6.2.2.3.5.4.9 0 .2.1.6.1 1.2v1.7c0 1.2 0 2 .1 2.3l.3.9h-1.3c0-.2-.1-.5-.1-.8zm-.1-2.9c-.5.2-1.2.3-2.1.5-.5.1-.9.2-1.1.3-.2.1-.4.2-.5.4-.1.2-.2.4-.2.6 0 .3.1.6.4.9.3.2.6.3 1.1.3.5 0 .9-.1 1.3-.3.4-.2.7-.5.9-.9.1-.3.2-.7.2-1.3v-.5zm3.3 6.7v-10.5h1.2v1c.3-.4.6-.7.9-.9.3-.2.8-.3 1.3-.3.6 0 1.2.2 1.7.5s.9.8 1.1 1.4c.2.6.4 1.3.4 2 0 .8-.1 1.5-.4 2.1-.3.6-.7 1.1-1.2 1.4-.5.3-1.1.5-1.7.5-.4 0-.8-.1-1.2-.3-.3-.2-.6-.4-.8-.7v3.7h-1.3zm1.2-6.7c0 1 .2 1.7.6 2.2.4.5.9.7 1.5.7s1.1-.2 1.5-.7c.4-.5.6-1.2.6-2.2 0-1-.2-1.7-.6-2.2-.4-.5-.9-.7-1.4-.7-.5 0-1 .3-1.5.8-.5.4-.7 1.2-.7 2.1zm9.8 2.6l.2 1.1c-.4.1-.7.1-1 .1-.5 0-.8-.1-1.1-.2-.3-.1-.4-.3-.5-.6-.1-.2-.2-.7-.2-1.5v-4.4h-1v-1h1v-1.9l1.3-.8v2.7h1.3v1h-1.3v4.4c0 .4 0 .6.1.7.1.1.1.2.2.2.1.1.3.1.5.1 0 .2.2.2.5.1zm6.4-1.3l1.3.2c-.2.8-.6 1.4-1.2 1.8-.6.4-1.3.6-2.2.6-1.1 0-2-.3-2.7-1-.6-.7-1-1.7-1-2.9 0-1.3.3-2.3 1-3 .7-.7 1.5-1.1 2.6-1.1 1 0 1.8.3 2.5 1 .6.7 1 1.7 1 2.9v.3h-5.7c0 .8.3 1.5.7 1.9.4.4 1 .7 1.6.7.5 0 .9-.1 1.2-.4.5 0 .7-.4.9-1zm-4.2-2h4.2c-.1-.6-.2-1.1-.5-1.4-.4-.5-1-.8-1.6-.8-.6 0-1.1.2-1.5.6-.3.4-.6.9-.6 1.6zm7.2 4.5v-7.6h1.2v1.1c.3-.5.6-.9.8-1 .2-.2.5-.3.8-.3.4 0 .9.1 1.3.4l-.4 1.2c-.3-.2-.6-.3-1-.3-.3 0-.5.1-.8.2-.2.2-.4.4-.5.7-.1.5-.2 1-.2 1.5v4h-1.2zm4.3-2.3l1.3-.2c.1.5.3.9.6 1.2.3.3.8.4 1.4.4.6 0 1-.1 1.3-.4.3-.2.4-.5.4-.8 0-.3-.1-.5-.4-.7-.2-.1-.6-.3-1.3-.4-.9-.2-1.6-.4-2-.6-.4-.2-.6-.4-.8-.7-.2-.3-.3-.7-.3-1 0-.3.1-.7.2-.9.2-.3.4-.5.6-.7.2-.1.5-.3.8-.4.4-.1.7-.2 1.1-.2.6 0 1.1.1 1.6.3.4.2.8.4 1 .7.2.3.4.7.4 1.2l-1.2.2c-.1-.4-.2-.7-.5-.9-.3-.2-.7-.3-1.2-.3-.6 0-1 .1-1.3.3-.2.2-.4.4-.4.7 0 .2.1.3.2.5.1.1.3.2.5.3.1.1.5.2 1.1.3.9.2 1.5.4 1.9.6.4.2.7.4.9.7.2.3.3.7.3 1.1 0 .4-.1.8-.4 1.2-.2.4-.6.7-1.1.9-.5.2-1 .3-1.6.3-1 0-1.7-.2-2.3-.6-.3-.7-.6-1.3-.8-2.1z"/><path class="st13 svg-elem-33" d="M92.2 245c0-4.5 3.6-8.1 8.1-8.1h92c2.2 0 4.2.9 5.8 2.4 1.5 1.5 2.4 3.6 2.4 5.8v32.6c0 4.5-3.6 8.1-8.1 8.1h-92c-4.5 0-8.1-3.6-8.1-8.1V245z"/><path class="st5 svg-elem-34" d="M92.2 245c0-4.5 3.6-8.1 8.1-8.1h92c2.2 0 4.2.9 5.8 2.4 1.5 1.5 2.4 3.6 2.4 5.8v32.6c0 4.5-3.6 8.1-8.1 8.1h-92c-4.5 0-8.1-3.6-8.1-8.1V245z"/><path class="st0 svg-elem-35" d="M119.3 257.4v-10.5h2.1l2.5 7.4c.2.7.4 1.2.5 1.5.1-.4.3-.9.6-1.7l2.5-7.3h1.9v10.5H128v-8.8l-3 8.8h-1.3l-3-8.9v8.9h-1.4zm17.3-2.5l1.3.2c-.2.8-.6 1.4-1.2 1.8-.6.4-1.3.6-2.2.6-1.1 0-2-.3-2.7-1-.6-.7-1-1.7-1-2.9 0-1.3.3-2.3 1-3 .7-.7 1.5-1.1 2.6-1.1 1 0 1.8.3 2.5 1 .6.7 1 1.7 1 2.9v.3h-5.7c0 .8.3 1.5.7 1.9.4.4 1 .7 1.6.7.5 0 .9-.1 1.2-.4.5 0 .7-.4.9-1zm-4.2-2.1h4.2c-.1-.6-.2-1.1-.5-1.4-.4-.5-1-.8-1.6-.8-.6 0-1.1.2-1.5.6-.4.4-.6 1-.6 1.6zm6.6 2.3l1.3-.2c.1.5.3.9.6 1.2.3.3.8.4 1.4.4.6 0 1-.1 1.3-.4.3-.2.4-.5.4-.8 0-.3-.1-.5-.4-.7-.2-.1-.6-.3-1.3-.4-.9-.2-1.6-.4-2-.6-.4-.2-.6-.4-.8-.7s-.3-.7-.3-1c0-.3.1-.7.2-.9.2-.3.4-.5.6-.7.2-.1.5-.3.8-.4.4-.1.7-.2 1.1-.2.6 0 1.1.1 1.6.3.4.2.8.4 1 .7.2.3.4.7.4 1.2l-1.2.2c-.1-.4-.2-.7-.5-.9-.3-.2-.7-.3-1.2-.3-.6 0-1 .1-1.3.3-.2.2-.4.4-.4.7 0 .2.1.3.2.5.1.1.3.2.5.3.1.1.5.2 1.1.3.9.2 1.5.4 1.9.6.4.2.7.4.9.7.2.3.3.7.3 1.1 0 .4-.1.8-.4 1.2-.2.4-.6.7-1.1.9-.5.2-1 .3-1.6.3-1 0-1.7-.2-2.3-.6-.3-.7-.6-1.3-.8-2.1zm7.9 2.3v-10.5h1.3v3.8c.6-.7 1.4-1 2.3-1 .6 0 1.1.1 1.5.3s.7.5.9.9c.2.4.3 1 .3 1.7v4.8h-1.3v-4.8c0-.6-.1-1.1-.4-1.4-.3-.3-.7-.4-1.2-.4-.4 0-.7.1-1.1.3-.3.2-.6.5-.7.8-.1.3-.2.8-.2 1.4v4.2h-1.4zm13.3-2.5l1.3.2c-.2.8-.6 1.4-1.2 1.8-.6.4-1.3.6-2.2.6-1.1 0-2-.3-2.7-1-.6-.7-1-1.7-1-2.9 0-1.3.3-2.3 1-3 .7-.7 1.5-1.1 2.6-1.1 1 0 1.8.3 2.5 1 .6.7 1 1.7 1 2.9v.3h-5.7c0 .8.3 1.5.7 1.9.4.4 1 .7 1.6.7.5 0 .9-.1 1.2-.4.5 0 .7-.4.9-1zm-4.2-2.1h4.2c-.1-.6-.2-1.1-.5-1.4-.4-.5-1-.8-1.6-.8-.6 0-1.1.2-1.5.6-.3.4-.5 1-.6 1.6zm7.2 4.6v-7.6h1.2v1.1c.3-.5.6-.9.8-1 .3-.2.5-.3.8-.3.4 0 .9.1 1.3.4l-.4 1.2c-.3-.2-.6-.3-1-.3-.3 0-.5.1-.8.2-.2.2-.4.4-.5.7-.1.5-.2 1-.2 1.5v4h-1.2zm4.8 2.9l-.1-1.2c.3.1.5.1.7.1.3 0 .5 0 .7-.1.2-.1.3-.2.4-.4.1-.1.2-.4.4-1 0-.1.1-.2.1-.3l-2.9-7.6h1.4l1.6 4.4c.2.6.4 1.2.5 1.8.2-.6.3-1.2.5-1.7l1.6-4.4h1.3l-2.9 7.7c-.3.8-.6 1.4-.7 1.7-.2.4-.5.7-.8.9-.3.2-.6.3-1.1.3-.1 0-.4-.1-.7-.2z"/><path class="st0 svg-elem-36" d="M123.7 274.4c-.5.4-.9.7-1.4.9-.4.2-.9.2-1.4.2-.8 0-1.5-.2-1.9-.6s-.7-.9-.7-1.6c0-.4.1-.7.2-1 .2-.3.4-.6.7-.8.3-.2.6-.3.9-.4.2-.1.6-.1 1.1-.2 1-.1 1.8-.3 2.3-.5v-.3c0-.5-.1-.9-.4-1.1-.3-.3-.8-.4-1.5-.4-.6 0-1.1.1-1.4.3-.3.2-.5.6-.6 1.1l-1.3-.2c.1-.5.3-1 .6-1.3.3-.3.6-.6 1.1-.8.5-.2 1.1-.3 1.7-.3.7 0 1.2.1 1.6.2.4.1.7.3.9.6.2.2.3.5.4.9 0 .2.1.6.1 1.2v1.7c0 1.2 0 2 .1 2.3l.3.9H124c-.1-.1-.2-.4-.3-.8zm-.1-2.8c-.5.2-1.2.3-2.1.5-.5.1-.9.2-1.1.3-.2.1-.4.2-.5.4-.1.2-.2.4-.2.6 0 .3.1.6.4.9.3.2.6.3 1.1.3.5 0 .9-.1 1.3-.3.4-.2.7-.5.9-.9.1-.3.2-.7.2-1.3v-.5zm8.3 3.8v-1c-.5.8-1.2 1.1-2.1 1.1-.6 0-1.2-.2-1.7-.5s-.9-.8-1.2-1.4c-.3-.6-.4-1.3-.4-2.1s.1-1.4.4-2.1c.3-.6.6-1.1 1.1-1.4.5-.3 1.1-.5 1.7-.5.5 0 .9.1 1.2.3.4.2.6.4.9.7v-3.8h1.3v10.5h-1.2zm-4.1-3.8c0 1 .2 1.7.6 2.2.4.5.9.7 1.5.7s1-.2 1.4-.7c.4-.5.6-1.2.6-2.1 0-1-.2-1.8-.6-2.3-.4-.5-.9-.7-1.5-.7s-1 .2-1.4.7c-.4.4-.6 1.2-.6 2.2zm12.2 2.8c-.5.4-.9.7-1.4.9-.4.2-.9.2-1.4.2-.8 0-1.5-.2-1.9-.6s-.7-.9-.7-1.6c0-.4.1-.7.2-1 .2-.3.4-.6.7-.8.3-.2.6-.3.9-.4.2-.1.6-.1 1.1-.2 1-.1 1.8-.3 2.3-.5v-.3c0-.5-.1-.9-.4-1.1-.3-.3-.8-.4-1.5-.4-.6 0-1.1.1-1.4.3-.3.2-.5.6-.6 1.1l-1.3-.2c.1-.5.3-1 .6-1.3.3-.3.6-.6 1.1-.8.5-.2 1.1-.3 1.7-.3.7 0 1.2.1 1.6.2.4.1.7.3.9.6.2.2.3.5.4.9 0 .2.1.6.1 1.2v1.7c0 1.2 0 2 .1 2.3l.3.9h-1.3c.1-.1 0-.4-.1-.8zm-.1-2.8c-.5.2-1.2.3-2.1.5-.5.1-.9.2-1.1.3-.2.1-.4.2-.5.4-.1.2-.2.4-.2.6 0 .3.1.6.4.9.3.2.6.3 1.1.3.5 0 .9-.1 1.3-.3.4-.2.7-.5.9-.9.1-.3.2-.7.2-1.3v-.5zm3.3 6.7v-10.5h1.2v1c.3-.4.6-.7.9-.9.3-.2.8-.3 1.3-.3.6 0 1.2.2 1.7.5s.9.8 1.1 1.4c.2.6.4 1.3.4 2 0 .8-.1 1.5-.4 2.1-.3.6-.7 1.1-1.2 1.4-.5.3-1.1.5-1.7.5-.4 0-.8-.1-1.2-.3-.3-.2-.6-.4-.8-.7v3.7h-1.3zm1.2-6.7c0 1 .2 1.7.6 2.2.4.5.9.7 1.5.7s1.1-.2 1.5-.7c.4-.5.6-1.2.6-2.2 0-1-.2-1.7-.6-2.2-.4-.5-.9-.7-1.4-.7-.5 0-1 .3-1.5.8-.5.4-.7 1.1-.7 2.1zm9.8 2.6l.2 1.1c-.4.1-.7.1-1 .1-.5 0-.8-.1-1.1-.2-.3-.1-.4-.3-.5-.6-.1-.2-.2-.7-.2-1.5v-4.4h-1v-1h1v-1.9l1.3-.8v2.7h1.3v1h-1.3v4.4c0 .4 0 .6.1.7.1.1.1.2.2.2.1.1.3.1.5.1.1.2.3.1.5.1zm6.5-1.3l1.3.2c-.2.8-.6 1.4-1.2 1.8-.6.4-1.3.6-2.2.6-1.1 0-2-.3-2.7-1-.6-.7-1-1.7-1-2.9 0-1.3.3-2.3 1-3 .7-.7 1.5-1.1 2.6-1.1 1 0 1.8.3 2.5 1 .6.7 1 1.7 1 2.9v.3h-5.7c0 .8.3 1.5.7 1.9.4.4 1 .7 1.6.7.5 0 .9-.1 1.2-.4.4 0 .7-.4.9-1zm-4.3-2.1h4.2c-.1-.6-.2-1.1-.5-1.4-.4-.5-1-.8-1.6-.8-.6 0-1.1.2-1.5.6-.3.4-.5 1-.6 1.6zm7.2 4.6v-7.6h1.2v1.1c.3-.5.6-.9.8-1 .2-.2.5-.3.8-.3.4 0 .9.1 1.3.4l-.4 1.2c-.3-.2-.6-.3-1-.3-.3 0-.5.1-.8.2-.2.2-.4.4-.5.7-.1.5-.2 1-.2 1.5v4h-1.2zm4.4-2.3l1.3-.2c.1.5.3.9.6 1.2.3.3.8.4 1.4.4.6 0 1-.1 1.3-.4.3-.2.4-.5.4-.8 0-.3-.1-.5-.4-.7-.2-.1-.6-.3-1.3-.4-.9-.2-1.6-.4-2-.6-.4-.2-.6-.4-.8-.7s-.3-.7-.3-1c0-.3.1-.7.2-.9.2-.3.4-.5.6-.7.2-.1.5-.3.8-.4.4-.1.7-.2 1.1-.2.6 0 1.1.1 1.6.3.4.2.8.4 1 .7.2.3.4.7.4 1.2l-1.2.2c-.1-.4-.2-.7-.5-.9-.3-.2-.7-.3-1.2-.3-.6 0-1 .1-1.3.3-.2.2-.4.4-.4.7 0 .2.1.3.2.5.1.1.3.2.5.3.1.1.5.2 1.1.3.9.2 1.5.4 1.9.6.4.2.7.4.9.7.2.3.3.7.3 1.1 0 .4-.1.8-.4 1.2-.2.4-.6.7-1.1.9-.5.2-1 .3-1.6.3-1 0-1.7-.2-2.3-.6-.4-.7-.7-1.3-.8-2.1z"/><path class="st13 svg-elem-37" d="M96.9 252c0-4.5 3.6-8.1 8.1-8.1h92c2.2 0 4.2.9 5.8 2.4 1.5 1.5 2.4 3.6 2.4 5.8v32.6c0 4.5-3.6 8.1-8.1 8.1h-92c-4.5 0-8.1-3.6-8.1-8.1V252z"/><path class="st5 svg-elem-38" d="M96.9 252c0-4.5 3.6-8.1 8.1-8.1h92c2.2 0 4.2.9 5.8 2.4 1.5 1.5 2.4 3.6 2.4 5.8v32.6c0 4.5-3.6 8.1-8.1 8.1h-92c-4.5 0-8.1-3.6-8.1-8.1V252z"/><path d="M132.6 264.4v-5.1c0-.6-.1-1.1-.4-1.4-.3-.3-.7-.5-1.2-.5-.7 0-1.3.2-1.6.6-.4.4-.5 1.1-.5 2v4.4h-1.2v-5.1c0-.6-.1-1.1-.4-1.4-.3-.3-.7-.5-1.2-.5-.7 0-1.3.2-1.6.7-.3.4-.5 1.2-.5 2.2v4.1h-1.2v-7.8h1l.2 1.1c.2-.4.5-.7 1-.9.4-.2.9-.3 1.4-.3 1.2 0 2 .4 2.4 1.3.2-.4.6-.7 1-1 .4-.2 1-.4 1.5-.4.9 0 1.5.2 2 .7.4.4.7 1.2.7 2.2v5.1h-1.4zm7 .1c-1.2 0-2.1-.3-2.8-1-.7-.7-1-1.7-1-3s.3-2.3.9-3c.6-.8 1.5-1.1 2.5-1.1s1.8.3 2.3 1c.6.6.9 1.5.9 2.6v.8H137c0 .9.3 1.6.7 2.1.4.5 1.1.7 1.9.7.8 0 1.7-.2 2.5-.5v1.1c-.4.2-.8.3-1.2.4-.3-.1-.8-.1-1.3-.1zm-.4-7.1c-.6 0-1.1.2-1.5.6s-.6 1-.7 1.7h4.1c0-.8-.2-1.3-.5-1.7-.3-.4-.7-.6-1.4-.6zm10.3 4.8c0 .7-.3 1.3-.8 1.7-.5.4-1.3.6-2.3.6-1 0-1.9-.2-2.4-.5v-1.1c.4.2.8.3 1.2.5.4.1.9.2 1.2.2.6 0 1.1-.1 1.4-.3.3-.2.5-.5.5-.9 0-.3-.1-.6-.4-.8-.3-.2-.8-.5-1.5-.8-.7-.3-1.3-.5-1.6-.7-.3-.2-.5-.4-.7-.7-.1-.3-.2-.6-.2-.9 0-.6.3-1.1.8-1.5.5-.4 1.2-.6 2.1-.6.8 0 1.7.2 2.5.5l-.4 1c-.8-.3-1.5-.5-2.1-.5-.6 0-1 .1-1.3.3-.3.2-.4.4-.4.7 0 .2.1.4.2.5.1.1.3.3.5.4.2.1.7.3 1.4.6.9.3 1.6.7 1.9 1 .3.4.4.8.4 1.3zm7.3 2.2v-5.1c0-.6-.1-1.1-.4-1.4-.3-.3-.7-.5-1.4-.5-.8 0-1.4.2-1.8.7-.4.4-.6 1.2-.6 2.2v4.1h-1.2v-11.1h1.2v3.4c0 .4 0 .7-.1 1h.1c.2-.4.6-.7 1-.9.4-.2.9-.3 1.5-.3 1 0 1.7.2 2.2.7.5.4.7 1.2.7 2.2v5.1h-1.2zm7 .1c-1.2 0-2.1-.3-2.8-1-.7-.7-1-1.7-1-3s.3-2.3.9-3c.6-.8 1.5-1.1 2.5-1.1s1.8.3 2.3 1c.6.6.9 1.5.9 2.6v.8h-5.4c0 .9.3 1.6.7 2.1.4.5 1.1.7 1.9.7.8 0 1.7-.2 2.5-.5v1.1c-.4.2-.8.3-1.2.4-.3-.1-.8-.1-1.3-.1zm-.3-7.1c-.6 0-1.1.2-1.5.6s-.6 1-.7 1.7h4.1c0-.8-.2-1.3-.5-1.7-.3-.4-.8-.6-1.4-.6zm8.8-1c.3 0 .7 0 .9.1l-.2 1.1c-.3-.1-.6-.1-.9-.1-.6 0-1.2.3-1.6.8-.4.5-.7 1.2-.7 1.9v4.2h-1.2v-7.8h1l.1 1.5h.1c.3-.5.6-.9 1-1.2.5-.4 1-.5 1.5-.5zm1.1.1h1.3l1.7 4.5c.4 1 .6 1.8.7 2.2h.1c.1-.2.2-.7.4-1.2.2-.6.8-2.4 1.9-5.4h1.3l-3.4 8.9c-.3.9-.7 1.5-1.2 1.9-.4.4-1 .6-1.6.6-.4 0-.7 0-1.1-.1v-1c.3.1.6.1.9.1.8 0 1.4-.5 1.7-1.4l.4-1.1-3.1-8z" class="svg-elem-39"/><path d="M126.8 282.4l-.2-1.1c-.4.5-.8.8-1.2 1-.4.2-.9.2-1.5.2-.8 0-1.4-.2-1.8-.6-.4-.4-.7-1-.7-1.7 0-1.6 1.3-2.4 3.8-2.5h1.3v-.5c0-.6-.1-1.1-.4-1.4-.3-.3-.7-.4-1.3-.4-.7 0-1.4.2-2.2.6l-.4-.9c.4-.2.8-.4 1.3-.5.5-.1.9-.2 1.4-.2.9 0 1.6.2 2.1.6.5.4.7 1.1.7 2v5.4h-.9zm-2.6-.9c.7 0 1.3-.2 1.7-.6.4-.4.6-1 .6-1.7v-.7h-1.2c-.9 0-1.6.2-2 .5-.4.2-.6.7-.6 1.2 0 .4.1.8.4 1 .2.2.6.3 1.1.3zm11.3-.2c-.6.8-1.4 1.2-2.5 1.2-1 0-1.8-.3-2.4-1-.6-.7-.8-1.7-.8-3s.3-2.3.9-3c.6-.7 1.4-1.1 2.4-1.1 1.1 0 1.9.4 2.4 1.2h.1V271.3h1.2v11.1h-1l-.3-1.1zm-2.4.2c.8 0 1.4-.2 1.8-.7.4-.4.5-1.2.5-2.1v-.2c0-1.1-.2-1.9-.6-2.4-.4-.5-1-.7-1.8-.7-.7 0-1.2.3-1.6.8-.4.5-.5 1.3-.5 2.3 0 1 .2 1.8.5 2.3.5.5 1 .7 1.7.7zm10.9.9l-.2-1.1c-.4.5-.8.8-1.2 1-.4.2-.9.2-1.5.2-.8 0-1.4-.2-1.8-.6-.4-.4-.7-1-.7-1.7 0-1.6 1.3-2.4 3.8-2.5h1.3v-.5c0-.6-.1-1.1-.4-1.4-.3-.3-.7-.4-1.3-.4-.7 0-1.4.2-2.2.6l-.4-.9c.4-.2.8-.4 1.3-.5.5-.1.9-.2 1.4-.2.9 0 1.6.2 2.1.6.5.4.7 1.1.7 2v5.4h-.9zm-2.7-.9c.7 0 1.3-.2 1.7-.6.4-.4.6-1 .6-1.7v-.7h-1.2c-.9 0-1.6.2-2 .5-.4.2-.6.7-.6 1.2 0 .4.1.8.4 1 .3.2.6.3 1.1.3zm9.6 1c-.5 0-1-.1-1.4-.3-.4-.2-.8-.5-1-.9h-.1c.1.5.1.9.1 1.3v3.2h-1.2v-11.4h1l.2 1.1h.1c.3-.4.7-.7 1.1-.9.4-.2.9-.3 1.4-.3 1 0 1.8.4 2.4 1.1.6.7.9 1.7.9 3s-.3 2.3-.9 3c-.7.8-1.5 1.1-2.6 1.1zm-.1-7.1c-.8 0-1.4.2-1.7.7-.4.4-.5 1.2-.5 2.1v.3c0 1.1.2 1.9.5 2.4.4.5 1 .7 1.8.7.7 0 1.2-.3 1.6-.8.4-.6.6-1.3.6-2.3 0-1-.2-1.7-.6-2.2-.5-.7-1-.9-1.7-.9zm8 6.1h.6c.2 0 .4-.1.5-.1v.9c-.1.1-.3.1-.6.2-.2 0-.5.1-.7.1-1.5 0-2.3-.8-2.3-2.4v-4.7h-1.1v-.6l1.1-.5.5-1.7h.7v1.8h2.3v.9h-2.3v4.6c0 .5.1.8.3 1.1.3.3.6.4 1 .4zm6 1c-1.2 0-2.1-.3-2.8-1-.7-.7-1-1.7-1-3s.3-2.3.9-3c.6-.8 1.5-1.1 2.5-1.1s1.8.3 2.3 1c.6.6.9 1.5.9 2.6v.8h-5.4c0 .9.3 1.6.7 2.1.4.5 1.1.7 1.9.7.8 0 1.7-.2 2.5-.5v1.1c-.4.2-.8.3-1.2.4-.3-.1-.8-.1-1.3-.1zm-.4-7.1c-.6 0-1.1.2-1.5.6s-.6 1-.7 1.7h4.1c0-.8-.2-1.3-.5-1.7-.2-.4-.7-.6-1.4-.6zm8.9-1c.3 0 .7 0 .9.1l-.2 1.1c-.3-.1-.6-.1-.9-.1-.6 0-1.2.3-1.6.8-.4.5-.7 1.2-.7 1.9v4.2h-1.2v-7.8h1l.1 1.5h.1c.3-.5.6-.9 1-1.2.5-.4 1-.5 1.5-.5zm7.4 5.8c0 .7-.3 1.3-.8 1.7-.5.4-1.3.6-2.3.6-1 0-1.9-.2-2.4-.5v-1.1c.4.2.8.3 1.2.5.4.1.9.2 1.2.2.6 0 1.1-.1 1.4-.3.3-.2.5-.5.5-.9 0-.3-.1-.6-.4-.8-.3-.2-.8-.5-1.5-.8-.7-.3-1.3-.5-1.6-.7-.3-.2-.5-.4-.7-.7-.1-.3-.2-.6-.2-.9 0-.6.3-1.1.8-1.5.5-.4 1.2-.6 2.1-.6.8 0 1.7.2 2.5.5l-.4 1c-.8-.3-1.5-.5-2.1-.5-.6 0-1 .1-1.3.3-.3.2-.4.4-.4.7 0 .2.1.4.2.5.1.1.3.3.5.4.2.1.7.3 1.4.6.9.3 1.6.7 1.9 1s.4.8.4 1.3z" class="svg-elem-40"/><path class="st10 svg-elem-41" d="M146.2 178.3l.2 58.5"/><path class="st5 svg-elem-42" d="M146.2 178.3l.1 52.5"/><path class="st11 svg-elem-43" d="M144.7 230.9l1.7 4.5 1.6-4.5h-3.3z"/><path class="st10 svg-elem-44" d="M205.2 268.3l211.4 1.9"/><path class="st5 svg-elem-45" d="M205.2 268.3l205.4 1.8"/><path class="st11 svg-elem-46" d="M410.6 271.7l4.6-1.6-4.5-1.7-.1 3.3z"/><path class="st0 svg-elem-47" d="M416.7 262.5c0-2.1 1.7-3.8 3.8-3.8h86.4c1 0 2 .4 2.7 1.1.7.7 1.1 1.7 1.1 2.7v15.3c0 2.1-1.7 3.8-3.8 3.8h-86.4c-2.1 0-3.8-1.7-3.8-3.8v-15.3z"/><path class="svg-elem-48" d="M416.7 262.5h0c0-2.1 1.7-3.8 3.8-3.8h86.4c1 0 2 .4 2.7 1.1.7.7 1.1 1.7 1.1 2.7v15.3c0 2.1-1.7 3.8-3.8 3.8h-86.4c-2.1 0-3.8-1.7-3.8-3.8v-15.3z" fill="none" stroke="#666" stroke-linejoin="round" stroke-miterlimit="10" stroke-dasharray="1,3"/><path d="M448 273.9h-1l-2.8-3.7-.8.7v3h-.9v-7.6h.9v3.8l3.4-3.8h1l-3.1 3.3 3.3 4.3zm1.7-5.7v3.7c0 .5.1.8.3 1 .2.2.5.3 1 .3.6 0 1-.2 1.3-.5.3-.3.4-.9.4-1.6v-3h.9v5.7h-.7l-.1-.8c-.2.3-.4.5-.7.7-.3.1-.7.2-1.1.2-.7 0-1.2-.2-1.5-.5-.3-.3-.5-.9-.5-1.6v-3.7h.7zm8.4-.1c.8 0 1.3.3 1.8.8.4.5.6 1.2.6 2.2s-.2 1.7-.6 2.2c-.4.5-1 .8-1.8.8-.4 0-.7-.1-1-.2-.3-.1-.6-.4-.8-.6h-.1l-.2.7h-.6v-8.1h.9v3.2c.4-.7 1-1 1.8-1zm-.1.7c-.6 0-1 .2-1.3.5-.3.3-.4.9-.4 1.7s.1 1.4.4 1.7c.3.3.7.5 1.3.5.5 0 .9-.2 1.2-.6.3-.4.4-.9.4-1.7 0-.8-.1-1.3-.4-1.7-.3-.2-.7-.4-1.2-.4zm6.4 5.2c-.8 0-1.5-.3-2-.8s-.7-1.2-.7-2.1c0-.9.2-1.7.7-2.2.5-.5 1.1-.8 1.8-.8s1.3.2 1.7.7c.4.5.6 1.1.6 1.9v.5h-3.9c0 .7.2 1.2.5 1.5.3.3.8.5 1.4.5.6 0 1.2-.1 1.8-.4v.8l-.9.3c-.3.1-.6.1-1 .1zm-.3-5.2c-.5 0-.8.2-1.1.5-.3.3-.4.7-.5 1.2h3c0-.6-.1-1-.4-1.2-.2-.4-.5-.5-1-.5zm11.5 5.1l-1-2.4h-3l-.9 2.4h-.9l3-7.6h.8l3 7.6h-1zm-1.2-3.2l-.9-2.4c-.1-.3-.2-.7-.4-1.1-.1.3-.2.7-.3 1.1l-.9 2.4h2.5zm8-2.2c0 .8-.3 1.4-.8 1.8-.5.4-1.3.6-2.2.6h-.9v3h-.9v-7.6h2c1.9 0 2.8.7 2.8 2.2zm-3.9 1.6h.8c.8 0 1.4-.1 1.7-.4.4-.3.5-.7.5-1.2s-.2-.9-.5-1.1c-.3-.2-.8-.4-1.5-.4h-1v3.1zm5.5 3.8v-7.6h.9v7.6h-.9z" class="svg-elem-49"/><path class="st10 svg-elem-50" d="M329.5 153.7h57.4v21.8h-57.4v-21.8z"/><path d="M343.7 161.8v-7.6h1v3.1h4v-3.1h1v7.6h-1v-3.6h-4v3.6h-1zm9.6 0v-6.7h-2.5v-.9h6v.9h-2.5v6.7h-1zm6.5 0v-6.7h-2.5v-.9h6v.9h-2.5v6.7h-1zm4.5 0v-7.6h2.9c.5 0 .9 0 1.2.1.4.1.7.2.9.4.3.2.5.4.6.8.2.3.2.7.2 1 0 .6-.2 1.2-.6 1.7-.4.4-1.2.7-2.2.7h-2v3.1l-1-.2zm1-4h2c.7 0 1.1-.1 1.4-.4.3-.2.4-.6.4-1 0-.3-.1-.6-.2-.8-.2-.2-.4-.4-.6-.5-.2-.1-.5-.1-.9-.1h-2v2.8zm5.3 4.2l2.2-7.9h.7l-2.2 7.9h-.7z" class="svg-elem-51"/><path d="M344.5 175.3l.9.1c0 .3.2.5.3.6.2.2.5.3.9.3s.8-.1 1-.3c.2-.2.4-.4.5-.7.1-.2.1-.6.1-1.2-.4.5-.9.7-1.5.7-.8 0-1.3-.3-1.8-.8-.4-.6-.6-1.2-.6-2 0-.5.1-1 .3-1.5.2-.4.5-.8.8-1 .4-.2.8-.4 1.3-.4.7 0 1.2.3 1.6.8v-.7h.9v4.8c0 .9-.1 1.5-.3 1.8-.2.4-.5.7-.8.9-.4.2-.8.3-1.4.3-.7 0-1.2-.2-1.6-.5-.4-.2-.6-.6-.6-1.2zm.8-3.3c0 .7.1 1.2.4 1.6.3.3.7.5 1.1.5.4 0 .8-.2 1.1-.5.3-.3.4-.9.4-1.6 0-.7-.2-1.2-.5-1.5-.3-.3-.7-.5-1.1-.5-.4 0-.8.2-1 .5-.3.3-.4.8-.4 1.5zm5.5 2.8v-7.6h3.4c.7 0 1.2.1 1.5.2.4.1.6.4.8.7.2.3.3.7.3 1.1 0 .5-.2 1-.5 1.4-.3.4-.9.6-1.6.7.3.1.5.3.6.4.3.3.6.6.8 1l1.3 2.1h-1.3l-1-1.6c-.3-.5-.5-.8-.7-1l-.5-.5c-.1-.1-.3-.2-.5-.2H351.6v3.4l-.8-.1zm1-4.2h2.2c.5 0 .8 0 1.1-.1.3-.1.5-.2.6-.5.1-.2.2-.4.2-.7 0-.4-.1-.7-.4-.9-.3-.2-.7-.3-1.2-.3h-2.4v2.5zm6.6 4.2v-7.6h2.9c.5 0 .9 0 1.2.1.4.1.7.2.9.4.3.2.5.4.6.8.2.3.2.7.2 1 0 .6-.2 1.2-.6 1.7-.4.4-1.2.7-2.2.7h-2v3.1l-1-.2zm1-4h2c.7 0 1.1-.1 1.4-.4.3-.2.4-.6.4-1 0-.3-.1-.6-.2-.8-.2-.2-.4-.4-.6-.5-.2-.1-.5-.1-.9-.1h-2v2.8zm11.6 1.4l1 .3c-.2.8-.6 1.5-1.2 1.9-.5.4-1.2.6-2 .6s-1.5-.2-2-.5-.9-.8-1.2-1.5c-.3-.6-.4-1.3-.4-2 0-.8.2-1.5.5-2.1.3-.6.7-1 1.3-1.3.6-.3 1.2-.5 1.8-.5.8 0 1.4.2 1.9.6.5.4.9.9 1.1 1.6l-1 .2c-.2-.6-.4-1-.8-1.2-.3-.3-.8-.4-1.3-.4-.6 0-1.1.1-1.5.4-.4.3-.7.7-.8 1.1-.2.5-.2 1-.2 1.5 0 .6.1 1.2.3 1.7.2.5.5.8.9 1.1.4.2.8.4 1.3.4.6 0 1-.2 1.4-.5.5-.3.7-.8.9-1.4z" class="svg-elem-52"/><path class="st10 svg-elem-53" d="M330.4 219.6h55.7v21.8h-55.7v-21.8z"/><path d="M345.1 234.2v-7.6h1v3.1h4v-3.1h1v7.6h-1v-3.6h-4v3.6h-1zm9.6 0v-6.7h-2.5v-.9h6v.9h-2.5v6.7h-1zm6.6 0v-6.7h-2.5v-.9h6v.9h-2.5v6.7h-1zm4.5 0v-7.6h2.9c.5 0 .9 0 1.2.1.4.1.7.2.9.4.3.2.5.4.6.8.2.3.2.7.2 1 0 .6-.2 1.2-.6 1.7-.4.4-1.2.7-2.2.7h-2v3.1l-1-.2zm1-4h2c.7 0 1.1-.1 1.4-.4.3-.2.4-.6.4-1 0-.3-.1-.6-.2-.8-.2-.2-.4-.4-.6-.5-.2-.1-.5-.1-.9-.1h-2v2.8z" class="svg-elem-54"/><path class="st5 svg-elem-55" d="M205.2 146.9h105.7v97.6h99.7"/><path class="st11 svg-elem-56" d="M410.7 246.1l4.5-1.7-4.5-1.7v3.4z"/><path class="st10 svg-elem-57" d="M216.1 142.5h99.3v21.8h-99.3v-21.8z"/><path class="st10 svg-elem-58" d="M569.1 148.3l45-24.3"/><path class="st5 svg-elem-59" d="M569.1 148.3l39.8-21.4"/><path d="M225.9 161.7v-7.6h3.4c.7 0 1.2.1 1.5.2s.6.4.8.7c.2.3.3.7.3 1.1 0 .5-.2 1-.5 1.4-.3.4-.9.6-1.6.7.3.1.5.2.6.4.3.3.6.6.8 1l1.3 2.1h-1.3l-1-1.6c-.3-.5-.5-.8-.7-1l-.5-.5c-.1-.1-.3-.2-.5-.2H226.7v3.4h-.8zm1-4.2h2.2c.5 0 .8 0 1.1-.1s.5-.2.6-.5.2-.4.2-.7c0-.4-.1-.7-.4-.9s-.7-.3-1.2-.3H227v2.5zm10.3 2.4l1 .1c-.2.6-.4 1-.9 1.3-.4.3-.9.5-1.6.5-.8 0-1.4-.2-1.9-.8-.5-.5-.7-1.2-.7-2.1 0-.9.2-1.6.7-2.2.5-.5 1.1-.8 1.9-.8.7 0 1.3.3 1.8.8s.7 1.2.7 2.1v.2h-4.1c0 .6.2 1.1.5 1.4s.7.5 1.2.5c.3 0 .6-.1.9-.3.2 0 .4-.3.5-.7zm-3-1.5h3.1c0-.5-.2-.8-.4-1-.3-.4-.7-.5-1.2-.5-.4 0-.8.1-1.1.4-.3.3-.4.6-.4 1.1zm8.7 5.4v-2.7c-.1.2-.3.4-.6.5-.3.1-.5.2-.8.2-.7 0-1.2-.3-1.7-.8s-.7-1.2-.7-2.2c0-.6.1-1 .3-1.5.2-.4.5-.8.8-1 .4-.2.8-.3 1.2-.3.7 0 1.2.3 1.6.9v-.8h.8v7.7h-.9zm-2.9-4.9c0 .7.1 1.2.4 1.6.3.4.7.5 1.1.5.4 0 .7-.2 1-.5.3-.3.4-.9.4-1.5 0-.7-.2-1.3-.5-1.7-.3-.4-.7-.6-1.1-.6s-.8.2-1 .5-.3 1-.3 1.7zm8.9 2.8v-.8c-.4.6-1 .9-1.8.9-.3 0-.6-.1-.9-.2s-.5-.3-.6-.5-.2-.4-.3-.7v-4.3h.9v4.1c.1.2.2.4.4.6.2.1.4.2.7.2.3 0 .5-.1.8-.2.2-.1.4-.3.5-.6.1-.2.2-.6.2-1.1v-3h.9v5.5h-.8zm6.1-1.8l1 .1c-.2.6-.4 1-.9 1.3-.4.3-.9.5-1.6.5-.8 0-1.4-.2-1.9-.8-.5-.5-.7-1.2-.7-2.1 0-.9.2-1.6.7-2.2.5-.5 1.1-.8 1.9-.8.7 0 1.3.3 1.8.8s.7 1.2.7 2.1v.2h-4.1c0 .6.2 1.1.5 1.4s.7.5 1.2.5c.3 0 .6-.1.9-.3.2 0 .4-.3.5-.7zm-3.1-1.5h3.1c0-.5-.2-.8-.4-1-.3-.4-.7-.5-1.2-.5-.4 0-.8.1-1.1.4-.2.3-.3.6-.4 1.1zm4.9 1.7l.9-.1c.1.4.2.7.4.9.2.2.6.3 1 .3s.7-.1 1-.3c.2-.2.3-.4.3-.6 0-.2-.1-.4-.3-.5-.1-.1-.4-.2-1-.3-.7-.2-1.2-.3-1.4-.5-.3-.1-.5-.3-.6-.5-.1-.2-.2-.5-.2-.8 0-.2.1-.5.2-.7.1-.2.3-.4.5-.5.1-.1.3-.2.6-.3.3-.1.5-.1.8-.1.4 0 .8.1 1.1.2.3.1.6.3.7.5.2.2.3.5.3.9l-.9.1c0-.3-.2-.5-.4-.7-.2-.2-.5-.2-.8-.2-.4 0-.8.1-.9.2-.2.1-.3.3-.3.5 0 .1 0 .2.1.3.1.1.2.2.4.2.1 0 .4.1.8.2.7.2 1.1.3 1.4.4.3.1.5.3.6.5.2.2.2.5.2.8 0 .3-.1.6-.3.9-.2.3-.4.5-.8.6-.3.1-.7.2-1.2.2-.7 0-1.3-.1-1.6-.4-.3-.2-.5-.6-.6-1.2zm7.7.8l.1.8c-.3.1-.5.1-.7.1-.3 0-.6-.1-.8-.2-.2-.1-.3-.3-.4-.4-.1-.2-.1-.5-.1-1.1v-3.2h-.6v-.7h.7v-1.4l.9-.6v1.9h.9v.7h-.9v3.7c0 .1.1.1.2.2.1 0 .2.1.3.1.1.1.3.1.4.1zm4 .8v-7.6h1v6.7h3.8v.9h-4.8zm5.5-2.7c0-1 .3-1.8.8-2.3.5-.4 1.1-.6 1.7-.6.8 0 1.4.2 1.9.8.5.5.7 1.2.7 2.1 0 .7-.1 1.3-.3 1.7-.2.4-.5.7-.9 1-.4.2-.9.3-1.3.3-.8 0-1.4-.2-1.9-.7-.5-.7-.7-1.4-.7-2.3zm.9 0c0 .7.2 1.2.5 1.6s.7.5 1.2.5.9-.2 1.2-.5c.3-.4.5-.9.5-1.6 0-.7-.2-1.2-.5-1.5-.3-.4-.7-.5-1.2-.5s-.8.2-1.2.5c-.3.2-.5.7-.5 1.5zm9 2c-.4.3-.7.5-1 .6-.3.1-.7.2-1 .2-.6 0-1.1-.1-1.4-.4-.3-.3-.5-.7-.5-1.1 0-.3.1-.5.2-.7.1-.2.3-.4.5-.5.2-.1.4-.2.7-.3.2 0 .5-.1.8-.1.8-.1 1.3-.2 1.7-.3v-.2c0-.4-.1-.7-.3-.8-.2-.2-.6-.3-1.1-.3-.4 0-.8.1-1 .2-.2.2-.4.4-.5.8l-.9-.1c.1-.4.2-.7.4-.9.2-.2.5-.4.8-.6.4-.1.8-.2 1.2-.2.5 0 .9.1 1.2.2.3.1.5.3.6.4l.3.6v2.1c0 .9 0 1.4.1 1.7 0 .2.1.4.2.7h-1c.1-.5 0-.7 0-1zm-.1-2c-.3.1-.9.2-1.5.3-.4.1-.7.1-.8.2-.2.1-.3.2-.4.3-.1.1-.1.3-.1.4 0 .2.1.5.3.6s.5.2.8.2c.4 0 .7-.1 1-.2s.5-.4.6-.7c.1-.2.2-.5.2-.9v-.2zm6 2.7v-.7c-.3.6-.9.8-1.5.8-.4 0-.8-.1-1.2-.4-.4-.2-.7-.6-.9-1-.2-.4-.3-.9-.3-1.5s.1-1.1.3-1.5c.2-.5.5-.8.8-1 .4-.2.8-.4 1.2-.4.3 0 .6.1.9.2.3.1.5.3.6.5V154h.9v7.6h-.8zm-3-2.7c0 .7.1 1.2.4 1.6.3.4.7.5 1.1.5s.8-.2 1-.5c.3-.3.4-.9.4-1.5 0-.8-.1-1.3-.4-1.7-.3-.4-.7-.5-1.1-.5-.4 0-.8.2-1 .5-.2.3-.4.8-.4 1.6z" class="svg-elem-60"/><path class="st11 svg-elem-61" d="M609.6 128.4l3.2-3.6-4.8.7 1.6 2.9z"/><path class="st10 svg-elem-62" d="M569.1 148.3l45 20.4"/><path class="st5 svg-elem-63" d="M569.1 148.3l39.6 18"/><path class="st11 svg-elem-64" d="M608 167.8l4.8.4-3.4-3.4-1.4 3z"/><path class="st10 svg-elem-65" d="M116.5 233.8l.1-52.4h21.8l-.1 52.4h-21.8z"/><path d="M139.2 217.2l.1-.9c.3 0 .5-.2.6-.3.2-.2.3-.5.3-.9s-.1-.8-.3-1c-.2-.2-.4-.4-.7-.5-.2-.1-.6-.1-1.2-.1.5.4.7.9.7 1.5 0 .8-.3 1.3-.8 1.8-.6.4-1.2.6-2 .6-.5 0-1-.1-1.5-.3-.4-.2-.8-.5-1-.8-.2-.4-.4-.8-.4-1.3 0-.7.3-1.2.8-1.6h-.7v-.9h4.8c.9 0 1.5.1 1.8.3.4.2.7.5.9.8.2.4.3.8.3 1.4 0 .7-.2 1.2-.5 1.6-.2.4-.6.6-1.2.6zm-3.3-.7c.7 0 1.2-.1 1.6-.4.3-.3.5-.7.5-1.1 0-.4-.2-.8-.5-1.1-.3-.3-.9-.4-1.6-.4-.7 0-1.2.2-1.5.5-.3.3-.5.7-.5 1.1 0 .4.2.8.5 1 .3.2.8.4 1.5.4zm2.8-5.5h-7.6v-3.4c0-.7.1-1.2.2-1.5.1-.4.4-.6.7-.8.3-.2.7-.3 1.1-.3.5 0 1 .2 1.4.5.4.3.6.9.7 1.6.1-.3.3-.5.4-.6.3-.3.6-.6 1-.8l2.1-1.3v1.3l-1.6 1c-.5.3-.8.5-1 .7l-.5.5c-.1.1-.2.3-.2.5V210.2h3.4l-.1.8zm-4.2-1v-2.2c0-.5 0-.8-.1-1.1-.1-.3-.2-.5-.5-.6-.2-.1-.4-.2-.7-.2-.4 0-.7.1-.9.4-.2.3-.3.7-.3 1.2v2.4h2.5zm4.2-6.7h-7.6v-2.9c0-.5 0-.9.1-1.2.1-.4.2-.7.4-.9.2-.3.4-.5.8-.6.3-.2.7-.2 1-.2.6 0 1.2.2 1.7.6.4.4.7 1.2.7 2.2v2h3.1l-.2 1zm-4-1v-2c0-.7-.1-1.1-.4-1.4-.2-.3-.6-.4-1-.4-.3 0-.6.1-.8.2-.2.2-.4.4-.5.6-.1.2-.1.5-.1.9v2h2.8zm1.4-11.5l.3-1c.8.2 1.5.6 1.9 1.2.4.5.6 1.2.6 2s-.2 1.5-.5 2-.8.9-1.5 1.2c-.6.3-1.3.4-2 .4-.8 0-1.5-.2-2.1-.5-.6-.3-1-.7-1.3-1.3-.3-.6-.5-1.2-.5-1.8 0-.8.2-1.4.6-1.9.4-.5.9-.9 1.6-1.1l.2 1c-.6.2-1 .4-1.2.8-.3.3-.4.8-.4 1.3 0 .6.1 1.1.4 1.5.3.4.7.7 1.1.8.5.2 1 .2 1.5.2.6 0 1.2-.1 1.7-.3.5-.2.8-.5 1.1-.9.2-.4.4-.8.4-1.3 0-.6-.2-1-.5-1.4-.3-.5-.8-.8-1.4-.9z" class="svg-elem-66"/><path class="st0 svg-elem-67" d="M416.7 211.1c0-2.2 1.7-3.9 3.9-3.9h86.2c1 0 2 .4 2.8 1.1.7.7 1.1 1.7 1.1 2.8v15.6c0 2.2-1.7 3.9-3.9 3.9h-86.2c-2.2 0-3.9-1.7-3.9-3.9v-15.6z"/><path class="st12 svg-elem-68" d="M416.7 211.1c0-2.2 1.7-3.9 3.9-3.9h86.2c1 0 2 .4 2.8 1.1.7.7 1.1 1.7 1.1 2.8v15.6c0 2.2-1.7 3.9-3.9 3.9h-86.2c-2.2 0-3.9-1.7-3.9-3.9v-15.6z"/><path d="M439.1 217.3c0 .8-.3 1.4-.8 1.8-.5.4-1.3.6-2.2.6h-.9v3h-.9v-7.6h2c1.8 0 2.8.7 2.8 2.2zm-4 1.6h.8c.8 0 1.4-.1 1.7-.4.4-.3.5-.7.5-1.2s-.2-.9-.5-1.1c-.3-.2-.8-.4-1.5-.4h-1v3.1zm8-2c.3 0 .5 0 .7.1l-.1.8c-.2-.1-.4-.1-.6-.1-.5 0-.9.2-1.2.6-.3.4-.5.8-.5 1.4v3.1h-.9V217h.7l.1 1.1c.2-.4.5-.7.8-.9.3-.2.7-.3 1-.3zm6.7 2.9c0 .9-.2 1.7-.7 2.2-.5.5-1.1.8-2 .8-.5 0-.9-.1-1.3-.4s-.7-.6-.9-1-.3-1-.3-1.6c0-.9.2-1.7.7-2.2s1.1-.8 1.9-.8c.8 0 1.4.3 1.9.8.5.6.7 1.3.7 2.2zm-4.3 0c0 .7.1 1.3.4 1.7.3.4.7.6 1.3.6s1-.2 1.3-.6c.3-.4.4-.9.4-1.7 0-.7-.1-1.3-.4-1.6-.3-.4-.7-.6-1.3-.6-.6 0-1 .2-1.3.6-.3.3-.4.9-.4 1.6zm13.1 2.9V219c0-.5-.1-.8-.3-1-.2-.2-.5-.3-.9-.3-.5 0-.9.2-1.2.5s-.4.8-.4 1.4v3.2h-.9V219c0-.5-.1-.8-.3-1-.2-.2-.5-.3-.9-.3-.5 0-.9.2-1.2.5-.2.3-.4.9-.4 1.6v3h-.9V217h.7l.1.8c.2-.3.4-.5.7-.7.3-.2.6-.2 1-.2.9 0 1.5.3 1.8 1 .2-.3.4-.5.7-.7s.7-.3 1.1-.3c.6 0 1.1.2 1.4.5s.5.9.5 1.6v3.7h-.6zm5 .1c-.8 0-1.5-.3-2-.8s-.7-1.2-.7-2.1c0-.9.2-1.7.7-2.2.5-.5 1.1-.8 1.8-.8s1.3.2 1.7.7c.4.5.6 1.1.6 1.9v.5h-3.9c0 .7.2 1.2.5 1.5.3.3.8.5 1.4.5.6 0 1.2-.1 1.8-.4v.8l-.9.3c-.3.1-.6.1-1 .1zm-.2-5.2c-.5 0-.8.2-1.1.5-.3.3-.4.7-.5 1.2h3c0-.6-.1-1-.4-1.2-.2-.4-.6-.5-1-.5zm5.6 4.5h.4c.1 0 .3 0 .3-.1v.7c-.1 0-.2.1-.4.1h-.5c-1.1 0-1.7-.6-1.7-1.8v-3.4h-.8v-.4l.8-.4.4-1.2h.5v1.3h1.7v.7H468v3.4c0 .3.1.6.2.8.3.2.6.3.8.3zm5.9.6V219c0-.5-.1-.8-.3-1-.2-.2-.5-.3-1-.3-.6 0-1 .2-1.3.5-.3.3-.4.9-.4 1.6v3h-.9v-8.1h.9v3.2h.1c.2-.3.4-.5.7-.7s.7-.2 1.1-.2c.7 0 1.2.2 1.6.5.4.3.5.9.5 1.6v3.7h-1zm5 .1c-.8 0-1.5-.3-2-.8s-.7-1.2-.7-2.1c0-.9.2-1.7.7-2.2.5-.5 1.1-.8 1.8-.8s1.3.2 1.7.7c.4.5.6 1.1.6 1.9v.5h-3.9c0 .7.2 1.2.5 1.5.3.3.8.5 1.4.5.6 0 1.2-.1 1.8-.4v.8l-.9.3c-.3.1-.6.1-1 .1zm-.2-5.2c-.5 0-.8.2-1.1.5-.3.3-.4.7-.5 1.2h3c0-.6-.1-1-.4-1.2-.2-.4-.6-.5-1-.5zm4.6-.6v3.7c0 .5.1.8.3 1 .2.2.5.3 1 .3.6 0 1-.2 1.3-.5.3-.3.4-.9.4-1.6v-3h.9v5.7h-.7l-.1-.8c-.2.3-.4.5-.7.7-.3.1-.7.2-1.1.2-.7 0-1.2-.2-1.5-.5s-.5-.9-.5-1.6V217h.7zm9.4 4.1c0 .5-.2.9-.6 1.2s-.9.4-1.7.4c-.8 0-1.4-.1-1.8-.4v-.8c.3.1.6.3.9.3.3.1.6.1.9.1.4 0 .8-.1 1-.2.2-.1.4-.4.4-.7 0-.2-.1-.4-.3-.6-.2-.2-.6-.4-1.1-.6-.5-.2-.9-.4-1.1-.5-.2-.1-.4-.3-.5-.5-.1-.2-.2-.4-.2-.7 0-.5.2-.8.6-1.1.4-.3.9-.4 1.6-.4.6 0 1.2.1 1.8.4l-.3.7c-.6-.2-1.1-.3-1.6-.3-.4 0-.7.1-.9.2s-.3.3-.3.5 0 .3.1.4c.1.1.2.2.4.3.2.1.5.2 1 .4.7.2 1.1.5 1.4.7s.3.8.3 1.2z" class="svg-elem-69"/><path class="st10 svg-elem-70" d="M205.2 146.9h105.7V219h105.7"/><path class="st5 svg-elem-71" d="M205.2 146.9h105.7V219h99.7"/><path class="st11 svg-elem-72" d="M410.7 220.6l4.5-1.7-4.5-1.7v3.4z"/><path d="M347 283.8v-7.6h1v3.1h4v-3.1h1v7.6h-1v-3.6h-4v3.6h-1zm9.6 0v-6.7h-2.5v-.9h6v.9h-2.5v6.7h-1zm6.5 0v-6.7h-2.5v-.9h6v.9h-2.5v6.7h-1zm4.6 0v-7.6h2.9c.5 0 .9 0 1.2.1.4.1.7.2.9.4.3.2.5.4.6.8.2.3.2.7.2 1 0 .6-.2 1.2-.6 1.7-.4.4-1.2.7-2.2.7h-2v3.1l-1-.2zm1-4h2c.7 0 1.1-.1 1.4-.4.3-.2.4-.6.4-1 0-.3-.1-.6-.2-.8-.2-.2-.4-.4-.6-.5-.2-.1-.5-.1-.9-.1h-2v2.8z" class="svg-elem-73"/><text transform="translate(63.618 64.757)" class="st15 st16">Docker or Kubernetes</text><text transform="translate(605.33 64.757)" class="st15 st16">Service Mesh</text><path class="svg-elem-74" d="M386.9 1.8h493.7v315H386.9V1.8z" fill="none" stroke="#595959" stroke-linejoin="round" stroke-miterlimit="10" stroke-dasharray="8,3,1,3"/><path class="st0 svg-elem-75" d="M598.1 233.8c0-.2-.1-.4-.3-.5-.1-.1-.2-.1-.3-.2v-.1c-.1-.4-.2-.7-.4-1.1-.1-.2-.1-.3-.2-.5-.3-.9-.6-1.8-.9-2.8l-.3-.9v-.1l-.3-.9c0-.1-.1-.1 0-.2 0-.1.1-.2.1-.3 0-.4-.2-.8-.7-.9h-.3c-.1 0-.2 0-.3-.1-.2-.1-.4-.3-.6-.4-.8-.6-1.7-1.2-2.5-1.8-.4-.3-.8-.6-1.2-.8-.1-.1-.2-.2-.3-.2-.1-.1-.2-.1-.2-.2-.1-.4-.7-.8-1.2-.4l-.1.1h-.5-.2-.1-.1-.1c-.2 0-.3 0-.5-.1-.5-.1-.9-.1-1.4-.2-.3 0-.7-.1-1-.1-.2 0-.4 0-.7-.1-.2 0-.5-.1-.7-.1 0 0-.1 0-.1-.1-.1-.1-.1-.2-.2-.2-.1-.1-.3-.1-.4-.2h-.1c-.2 0-.5.2-.6.4l-.1.1s0 .1-.1.1-.1.1-.2.1c-1.1.5-2.1 1-3.2 1.6-.2.1-.4.2-.7.3-.3.1-.6.3-.9.5-.1 0-.2.1-.3.1-.1.1-.2.1-.3 0h-.1c-.4-.2-.9.1-1.1.5-.1.2-.1.4 0 .6v.1c0 .1.1.1.1.2-.5.7-1 1.4-1.5 2.2-.2.4-.5.7-.7 1.1-.1.1-.2.2-.2.3-.2.3-.3.5-.5.8-.1.1-.1.2-.2.3l-.1.1c-.4 0-.7.3-.8.7v.4c.1.3.3.5.5.6v5.7c-.3.1-.5.3-.6.6V238.1c.1.4.4.7.9.7h.1c.1.1.1.2.2.3.1.1.2.3.3.4.3.3.5.7.8 1 .1.2.3.4.4.6.1.1.1.2.2.3.2.3.4.5.6.8.2.3.4.6.7.9.1.1.1.2.1.3v.1c0 .5.3.9.8 1h.4c.1-.1.2 0 .3 0 .1 0 .1.1.2.1.1.1.2.1.4.2h.1c.8.4 1.6.8 2.5 1.2.4.2.7.3 1.1.5l.6.3c.1 0 .1.1.1.1v.1c.2.2.4.4.7.4h.2c.2 0 .3-.1.4-.2 0 0 .1 0 .1-.1s.1-.1.2-.1h3.4c.2 0 .4 0 .6-.1.1 0 .1-.1.2-.1l.9-.3h.1c.5-.2.9-.3 1.4-.5h.1c.3.1.6.1.9 0 .3-.1.4-.4.5-.7 0-.1.1-.2.2-.2.6-.4 1.2-.9 1.8-1.3.2-.2.5-.4.7-.5.1-.1.2-.2.4-.3.2-.1.3-.2.4-.3h.1c.1.1.3.1.5.1.5 0 .8-.4.8-.9 0-.2-.1-.3-.2-.5v-.1c.1-.3.2-.6.3-1 0-.1.1-.2.1-.4.2-.6.4-1.2.5-1.8.1-.4.2-.8.4-1.2.1-.2.1-.4.2-.6.2-.5.3-1 .5-1.5 0 0 0-.1.1-.1s.1-.1.2-.1c.1-.1.2-.3.3-.4v-.1l-.1-.3c0 .1 0 0 0 0zm-4 8.1c0 .1 0 .1-.1.1-.1.1-.2.2-.3.2-.1.1-.2.1-.3.2-.3.2-.7.5-1 .7-.2.1-.4.3-.6.4-.3.2-.7.5-1 .7h-.1l-.1-.1c.1-.2.2-.3.3-.5l.3-.6c.1-.1.2-.3.2-.5.1-.2.2-.3.3-.5.1-.1.1-.2.2-.3.1-.2.2-.3.3-.5.2-.3.3-.6.5-.9l.3-.6.3-.6c0-.1.1-.1.1-.2.1-.2.2-.4.3-.5H594c.1 0 .1 0 .2.1 0 .1.1.3.1.4 0 .1 0 .2.1.3 0 .1.1.2.1.3 0 .1.1.3.1.4 0 .1.1.2.1.3 0 .1.1.3.1.4v.1c-.2.1-.3.2-.3.4-.4.5-.5.7-.4.8zm-17.5 1.6c.1-.4-.2-.8-.6-1h-.1v-.3c0-.1.1-.3.1-.4 0-.1 0-.2.1-.3v-.3c0-.1 0-.2.1-.3 0-.1.1-.1.1-.1h.2l.6.6c.2.2.4.3.5.5l.5.5.4.4.5.5.7.7.6.6.6.6.1.1.3.3c-.1.1-.2.2-.2.3h-.1c-1.1-.5-2.1-1.1-3.2-1.6-.2-.1-.5-.2-.7-.4-.1 0-.1-.1-.2-.1-.2-.2-.3-.2-.3-.3zm18.4-3c-.1-.2-.1-.3-.2-.5 0-.1-.1-.3-.1-.4 0-.2-.1-.3-.1-.5 0-.1-.1-.2-.1-.3v-.1-.2c.2-.2.3-.4.2-.7v-.1c0-.1.1-.1.1-.2.1-.1.2-.3.4-.4.1-.1.2-.3.3-.4 0 0 0-.1.1-.1.1-.1.3-.3.4-.5.1-.1.2-.3.3-.4.1-.1.2-.2.2-.3 0 0 0-.1.1-.1v.1c0 .1-.1.2-.1.3-.2.7-.5 1.4-.7 2.2-.2.6-.4 1.2-.6 1.7-.1.1-.1.3-.1.4 0 .2-.1.3-.1.5zm-21.4-2.1c-.1-.1-.3-.1-.4-.2-.1-.1-.3-.1-.4-.2l-.1-.1c-.1 0-.1-.1-.1-.2 0-.3-.1-.5-.3-.7v-.1c0-.1.1-.2.1-.3v-.1c0-.1.1-.2.1-.3v-.1c0-.1.1-.3.1-.5 0-.1.1-.2.1-.3v-.1-.1c0-.2.1-.3.1-.5v-.1-.1c.1-.3.1-.5.2-.8v-.1-.1c.1-.2.1-.5.2-.7.1.2.1.3.2.5v.1c.1.2.2.5.3.7.1.2.2.5.3.7l.3.9c.2.6.4 1.2.7 1.9.1.2.2.5.3.7v.1c.1.2.2.4.2.7 0 .1-.1.1-.2.1-.1-.1-.2-.1-.3-.1 0 0-.1-.1-.1 0-.1-.1-.1-.1-.2-.1 0-.1-.1-.1-.2-.1-.1-.1-.2-.1-.3-.1-.3-.1-.5-.2-.6-.3zm3.2-14.6s.1 0 .1-.1c.1-.1.3-.1.4-.2.1 0 .2-.1.3-.2h.1c.6-.3 1.3-.6 1.9-.9.3-.2.7-.3 1-.5.1-.1.2-.1.3-.2.1-.1.3-.1.4-.2h.1v.1c-.1.1-.1.2-.1.3-.1.1-.1.2-.2.3-.1.1-.1.3-.2.4-.1.1-.1.3-.2.4-.1.1-.1.3-.2.4-.1.1-.1.2-.1.3-.1.1-.1.2-.2.3 0 0 0 .1-.1.1h-.1c-.2 0-.5.1-.6.3h-.1c-.1 0-.1 0-.2-.1-.1 0-.3-.1-.4-.1-.2-.1-.3-.1-.5-.1-.1 0-.3-.1-.4-.1h-.1c-.1 0-.2-.1-.3-.1-.1 0-.2-.1-.3-.1l-.4-.1h-.1c0 .2.1.2.2.1zm19.7 9.7c-.2.3-.2.6 0 .9v.2l-.1.1c-.1.1-.2.2-.2.3h-.1l-.3.3v.1l-.1.1c-.1 0-.1.1-.1.2l-.3.3h-.1l-.3.3-.1.1-.2.2-.1.1s-.1 0-.1.1v-.1-.4-.1-.3-.1-.1-.1-.1-.1-.1-.1c0-.5.1-.9.1-1.4 0-.3.1-.7.1-1v-.1-.1c0-.3.1-.6.1-1 0-.3.1-.6.1-.8v-.1-.1-.1-.3c0 .1.1.1.1.1.1.2.3.4.4.6.1.2.2.3.3.5.1.2.3.4.4.6.1.2.2.3.3.5v.1c0 .1.1.2.2.2v.1c.1.4 0 .5 0 .6zm-19.1 4.8c.1-.1.1-.2.2-.3v-.1c.1-.1.1-.2.1-.3l.9 1.2.1.1H577.3h-.1c-.1 0-.1 0 0-.1v-.1c0-.1.1-.2.1-.2 0-.1.1-.2.1-.2-.1.2 0 .1 0 0zm1.8 1.4c.1.2.2.3.4.5s.3.4.5.6c.1.1.2.3.3.4l.3.3H583.6c0 .1-.1.2-.1.3 0 .1-.1.2-.1.3 0 .1-.1.2-.1.3-.1.1-.1.2-.1.3 0 .1-.1.2-.1.3-.1.1-.1.2-.2.3 0 .1-.1.1-.1.2s-.1.2-.1.2c0 .1-.1.2-.1.3-.1.1-.1.2-.1.3-.1.1-.1.2-.1.3 0 .1-.1.1-.1.2s-.1.1-.1.2h-.1l-.1-.1-.4-.4h-.1v-.1l-.4-.4h-.1l-.3-.3c0-.1-.1-.1-.2-.2 0-.1-.1-.2-.2-.2-.1-.1-.1-.2-.2-.2l-.2-.2-.3-.3c-.1-.2-.3-.3-.4-.5l-.1-.1-.4-.4-1.3-1.3c-.1-.1-.1-.1-.1-.3h.6c.1 0 .3 0 .4-.1H579.2c-.2-.2-.1-.2 0-.2zm10.8 4.1c0 .1-.1.1-.1.2l-.1.1c-.1 0-.1 0-.2-.1s-.1-.2-.2-.3c-.1-.1-.2-.2-.2-.3 0-.1-.1-.1-.2-.2 0-.1-.1-.1-.2-.2s-.1-.2-.2-.2c-.1-.1-.1-.2-.2-.2-.1-.1-.1-.2-.2-.3 0-.1-.1-.1-.2-.2 0-.1-.1-.1-.1-.2s-.1-.1-.1-.2l-.1-.1h.1c.1-.1.2-.3.4-.4.1-.1.2-.3.3-.4l.1-.1c.2-.2.4-.5.6-.7.1-.1.2-.3.4-.4.2-.3.4-.5.7-.8H586.4c-.2 0-.2.1-.3.2 0 0 0 .1-.1.1v.1l.1.1.1.1c0 .1.1.1.1.2s.1.1.1.2l.1.1.1.1.1.1c0 .1.1.1.1.2s.1.1.1.2.1.1.1.2l.1.1c0 .1.1.1.1.2s.1.1.2.2l.1.1c0 .1.1.1.1.2h-.8c.1.1.2.3.3.4 0 .1.1.1.1.2s.1.1.1.2.1.1.2.2.1.2.2.3c.1.1.1.2.2.3.1.1.1.2.2.2 0 .1.1.1.1.2s.1.1.1.2c.1.1.2.2.2.3.1.1.1.2.2.3v.1c-.1 0-.3 0-.4.1-.3 0-.5.1-.8.1h-.3c-.5.1-1 .1-1.5.2s-1 .1-1.6.2c-.2 0-.4 0-.6.1h-.3c-.2 0-.3 0-.5.1h-.3-.1c0-.1 0-.1.1-.2 0-.1.1-.1.1-.2.1-.1.1-.2.1-.3 0-.1.1-.2.1-.3.1-.1.1-.2.1-.3 0-.1.1-.2.1-.3 0-.1.1-.1.1-.2.1-.1.1-.2.2-.4.1-.1.1-.2.1-.3 0-.1.1-.2.1-.3.1-.1.1-.2.1-.3.1-.1.1-.2.1-.3.1-.1.1-.2.2-.3h2.6l-.2-.2-.1-.2-.1-.1c0-.1-.1-.1-.1-.2s-.1-.1-.1-.2l-.2-.2c0-.1-.1-.1-.1-.2s-.1-.1-.1-.2-.1-.1-.1-.2-.1-.1-.2-.2c0-.1-.1-.2-.2-.1-.1 0-.2.1-.2.2s-.1.2-.1.3l-.1.2c0 .1-.1.1-.1.2s-.1.1-.1.2-.1.2-.1.3c0 .1-.1.1-.1.2s-.1.1-.1.2c0 0 0 .1-.1.1h-.6-.1s0-.1.1-.1c0-.1.1-.1.1-.2s.1-.1.1-.2.1-.2.1-.2 0-.1.1-.1v-.1-.1-.1-.1s0-.1.1-.1c0-.1.1-.1.1-.2s.1-.1.1-.2c0 0 .1-.1.1-.2.1-.1.1-.1 0-.2 0-.1-.1-.1-.1-.2s-.1-.2-.1-.2c0-.1 0-.1-.1-.1-.2 0-.3 0-.5.1-.1 0-.3 0-.4.1-.1 0-.3 0-.4.1h-1.4-.1-1.7c-.2-.2-.3-.4-.4-.6v-.1H582.4c.1 0 .3 0 .4-.1.1 0 .3 0 .4-.1.2 0 .3 0 .5-.1h.5s.1-.1 0-.1h-.1l-.1-.1-.1-.1s-.1-.1-.2-.1c-.1-.1-.2-.1-.3-.2-.1-.1-.3-.2-.4-.3-.2-.2-.5-.4-.7-.5-.2-.2-.4-.3-.6-.5-.1-.1-.3-.2-.4-.3-.1-.1-.2-.1-.3-.2-.1 0-.1-.1-.2-.1l-.1-.1-.1-.1c-.1 0-.1-.1-.2-.1l-.1-.1-.2-.2-.2-.2-.2-.2c-.1-.1-.1-.1-.2-.1h-.1s-.1 0-.1.1h-.2-.1s0 .1-.1.1c0 0 0 .1-.1.1 0 .1-.1.2-.1.2-.1.1-.1.3-.2.4 0 .1-.1.1-.1.2 0 0 0 .1-.1.1v.1c0 .1-.1.1-.1.2s-.1.2-.1.2c0 .1-.1.2-.1.3 0 .1-.1.2-.1.3 0 .1-.1.2-.1.3 0 0 0 .1-.1.1 0 .1-.1.2-.1.2-.1-.1-.2-.3-.3-.4 0 0 0-.1-.1 0 0 .1-.1.1-.1.2s-.1.2-.1.3c0 .1-.1.2-.1.3 0 .1-.1.2-.1.3 0 .1-.1.2-.1.3 0 .1-.1.2-.1.3 0 .1-.1.1-.1 0-.1 0-.1 0-.2-.1h-.2c-.1 0-.1 0-.1-.1s-.1-.2-.1-.3v-.1c-.2-.7-.5-1.3-.7-2-.1-.3-.2-.5-.3-.8-.1-.2-.1-.4-.2-.6-.1-.2-.1-.4-.2-.6 0-.1-.1-.2-.1-.4 0-.1-.1-.2-.1-.3 0-.1-.1-.2-.1-.4v-.1c0-.1-.1-.3-.1-.4v-.1c0-.1 0-.2-.1-.2v-.1s.1 0 .1-.1c.1 0 .1-.1.2-.1s.2.1.3.1c.1.1.2.1.3.1.1.1.2.1.3.1.1.1.2.1.3.1.1 0 .1.1.2.1s.1.1.2.1.1.1.2.1.2.1.3.1c.1 0 .2.1.3.1.1 0 .2.1.3.1 0 0 .1 0 .1.1.1 0 .1.1.2.1-.1.2-.1.5-.2.7-.1.2-.1.4-.2.6 0 .2-.1.3-.1.5s-.1.4-.1.5v.1l.3.3c.1.1.1.2.2.3.1.1.2.2.3.4.1.1.2.2.2.3 0 0 0-.1.1-.1 0-.1.1-.1.1-.2s.1-.1.1-.2.1-.1.1-.2.1-.2.1-.3c0 0 .1-.1.1-.2s.1-.1.1-.2c.1-.1.1-.2.2-.3.1-.1.1-.2.2-.3.1-.1.1-.2.1-.3.1-.1.1-.3.2-.4v-.1c-.1-.1-.1-.2-.2-.3h-.1c-.1 0-.1-.1-.2-.1s-.1-.1-.2-.1-.1-.1-.2-.1c0 0-.1-.1-.2-.1h-.1c-.1 0-.1-.1-.2-.1l-.1-.1s-.1 0-.2-.1c0 0-.1 0-.1-.1h-.1c0-.2.1-.3.1-.5h.1c.1 0 .1.1.2.1 0 0 .1 0 .1.1.1 0 .1.1.2.1 0 0 .1 0 .1.1h.1c.1 0 .1.1.2.1 0 0 .1 0 .1.1 0 0 .1 0 .1.1h.2c.1.1.1.1.1 0l.2-.2c.1-.1.2-.1.3-.1v-.1-.2c0-.3.1-.5.1-.8v-.4-.3-.2-.2-.1-.2-.3-.3-.4-.5-.3-.6-.2l.6-.3v4.5c0 .2 0 .3-.1.5 0 .2 0 .3-.1.5 0 .1 0 .1.1.1s.1.1.2.1l.1.1h.7c.1 0 .1 0 .2-.1.1 0 .1 0 .2-.1.1 0 .2-.1.2-.1.1 0 .1 0 .2-.1.1 0 .1 0 .2-.1h1c.1 0 .1 0 .2-.1.2-.1.5-.1.7-.2l.9-.3c.1 0 .2 0 .2-.1H586c.1 0 .1 0 .2-.1.1 0 .2 0 .2-.1.1 0 .1 0 .2-.1.1 0 .1 0 .2-.1h.5c.1 0 0-.1 0-.1 0-.1 0-.1-.1-.1-.1-.1-.3-.2-.4-.3-.2-.1-.3-.2-.5-.3-.2-.1-.4-.3-.5-.4-.1-.1-.2-.2-.4-.3-.1-.1-.2-.1-.3-.2l-.1-.1-.1-.1-.2-.2c-.1-.1-.2-.2-.3-.2l-.2-.2-.1-.1s-.1 0-.1-.1l-.1-.1c-.1-.1-.2-.1-.2-.2-.1-.1-.2-.1-.3-.2 0 0-.1-.1-.2-.1l-.1-.1-.2-.2-.2-.1c-.1-.1-.2-.1-.2-.2-.1-.1-.2-.1-.2-.2-.1 0-.1-.1-.2-.1h.1c.2-.1.3-.1.5-.2h.1l-.2-.2c-.1-.1-.2-.1-.3-.2-.1-.1-.1-.1-.2-.1-.1-.1-.1-.1-.2-.1l-.2-.2c-.1-.1-.1-.1-.2-.1l-.2-.2v-.1h1.9c.7 0 1.3-.1 2-.1H587.9c.1 0 .2 0 .3.1 0 0 .1.1.2.1s.1.1.1.1v2.4c-.2-.1-.3-.2-.5-.3-.3-.2-.6-.3-1-.5-.1 0-.2-.1-.2-.1l-1.8-.9h-.1c-.6.3-1.1.5-1.7.8h-.1l.1.1c.1 0 .1.1.2.1l.1.1c.1.1.2.1.3.2.1.1.2.1.3.2.1.1.1.1.2.1l.3.2c.1.1.2.1.3.2.1.1.2.2.3.2.1.1.2.1.3.2.1.1.2.1.3.2.1.1.2.1.3.2.1.1.2.2.3.2l.1.1c.1.1.3.2.4.3l1.2.9c.1.1.1.1.2 0h.2c.1 0 .1-.1.1-.1V230.7v-.1-.1-.2-.5-.2-.5-.4h.1c.2.1.4.2.5.3v-.1V228 227.7 227.1v-.2-.4-.2c.8.6 1.5 1.2 2.3 1.9.3.2.5.4.8.6.2.2.4.3.6.5l.3.2.2.2c.1.1.3.2.4.4l.1.1.1.1v.1c0 .1-.1.1-.1.1h-.1c-.1 0-.2 0-.3.1l-.3.1c-.1 0-.2.1-.3.1-.1 0-.2.1-.3.1-.1 0-.1 0-.2.1-.1 0-.1 0-.2.1-.1 0-.2 0-.2.1-.1 0-.2 0-.3.1h-.1-.1c-.1-.3-.1-.6-.2-.9 0 0 0-.1-.1-.1l-1.8-.9c-.1 0-.1-.1-.2-.1s-.1-.1-.2-.1v2.1s0 .1.1.1c.2.1.3.2.4.3.1.1.1.1.2.1s.2 0 .2-.1c.1 0 .2 0 .2-.1.1 0 .2 0 .2-.1h.1c.1 0 .2 0 .2-.1.1 0 .2 0 .2-.1H591.4v.1c0 .2.1.4.1.6-.1 0-.2 0-.3.1h-.1c-.1 0-.1 0-.2.1h-.2H590.4h-.1-.5-.2s-.1 0-.1.1v.1s0 .1-.1.1v.1c.1.1.2.3.3.4l.3.3c.1.1.1.2.2.3 0 .1.1.1.2.2s.1.2.2.3l.3.3.2.2c0 .1.1.1.1.2.1.1.1.2.2.2l.2.2c.1.1.1.2.2.3l.2.2.3.3v-.1c-.1-.5-.2-1.1-.3-1.6 0-.2-.1-.4-.1-.6 0-.2-.1-.4-.1-.6 0-.2-.1-.4-.1-.6 0-.2-.1-.4-.1-.6.1 0 .2-.1.3-.1.1 0 .2 0 .3-.1h.2c.1 0 .2 0 .2-.1h.2c.1 0 .2 0 .3-.1.1 0 .2 0 .3-.1.1 0 .2 0 .4-.1H594.1c0 .1.1.1.1.2.1.1.2.2.4.3h.1c.1 0 .1 0 .1.1V233.7c0 .4-.1.9-.1 1.3-.1.9-.2 1.8-.3 2.6v.2l-.1-.1c-.1-.1-.2-.2-.2-.3l-.2-.2c-.1-.1-.1-.2-.2-.2-.1-.1-.2-.2-.2-.3-.1-.1-.2-.2-.2-.3-.1-.1-.1-.2-.2-.2-.1-.1-.2-.2-.2-.3 0 .2.1.4.1.6v.1c0 .1.1.3.1.4l-.3-.3c0-.1-.1-.1-.1-.1 0-.1-.1-.1-.1-.2-.1-.1-.1-.2-.2-.2-.1-.1-.1-.2-.2-.2 0-.1-.1-.1-.1-.2l-.2-.2-.1-.1c0-.1-.1-.1-.1-.1-.1-.1-.1-.2-.2-.2-.1-.1-.1-.2-.2-.2 0-.1-.1-.1-.1-.2l-.1-.1-.1-.1-.1-.1-.2-.2c-.1-.1-.1-.2-.2-.3 0-.1-.1-.1-.1-.2-.1-.1-.1-.2-.2-.3l-.2-.2c0-.1-.1-.1-.1-.2s-.1-.1-.1-.2h-.1H589.4h-.1s-.1 0-.1.1v.6s0 .1-.1.1c0 0 0 .1-.1.1v.2c0 .1-.1.1-.1.2 0 0 0 .1-.1.1v.2c0 .1-.1.1-.1.2s-.1.1-.1.2c0 0 0 .1-.1.1 0 .1-.1.1-.1.2-.1.1-.1.2-.1.3-.1.3-.2.5-.3.8-.1.2-.2.4-.2.6-.1.1-.1.2-.1.3l-.1.2c0 .1-.1.1-.1.2 0 0 0 .1-.1.1 0 .1-.1.1-.1.2v.2s0 .1-.1.1c0 .1-.1.1-.1.2s-.1.1 0 .2c0 0 0 .1.1.1 0 0 0 .1.1.1v.1H592.1v.1c-.2.2-.3.4-.5.6h2.5s.1 0 0 0c0 0 0 .1-.1.1-.2.4-.4.7-.6 1.1-.1.2-.2.3-.3.5-.1.1-.1.2-.2.4-.1.1-.1.2-.1.3l-.1.1c-.1.1-.1.2-.2.3-.1.1-.1.2-.2.3 0 0-.1.1-.1.2l-.1.1c-.1.2-.2.3-.2.4v.1l-.1.1c-.1.1-.2.3-.2.4v.1c-.1.1-.1.2-.2.3-1.3-.8-1.3-.7-1.4-.6zm-17.6-10.5c-.1.2-.1.4-.2.7-.1.2-.1.5-.2.7-.1.2-.1.4-.1.5v-.3-1-.6-.1-.6-1.5-.1c.1 0 .1 0 .2-.1.1 0 .1-.1.2-.1.2-.3.3-.7.1-1l-.1-.2v-.1c.1-.1.1-.2.2-.2v-.1l.1-.1c.3-.5.6-.9.9-1.4.4-.5.7-1.1 1.1-1.6.1-.1.1-.2.2-.3v.1c0 .1-.1.3-.1.4-.1.2-.1.3-.2.5s-.1.3-.2.5-.2.5-.2.7c-.2.7-.5 1.5-.7 2.2 0 .1-.1.2-.2.2s-.1.1-.2.1c-.3.2-.4.7-.2 1.1 0 0 0 .1.1.1v.1c-.3.7-.4 1.1-.5 1.5zm20.3-7.5c0 .1 0 .1 0 0 .2.1.4.1.5.2.1 0 .2.1.3.1 0 0 .1 0 .1.1v.1c0 .3.2.6.5.7.1.1.2.1.3.1v1.6s0 .1-.1.1-.1-.1-.2-.1c-.1-.1-.2-.2-.3-.2h-.1v-.1c-.1-.1-.2-.2-.3-.2-.1-.1-.2-.1-.2-.2v-.1c-.2-.2-.4-.3-.6-.5h-.1l-.1-.1c-.3-.2-.5-.4-.8-.6l-.1-.1c-.6-.5-1.2-.9-1.8-1.4-.1-.1-.2-.2-.3-.2 0-.1-.1-.1-.2-.1h.1c.1.1.3.1.4.1.1 0 .3.1.4.1h.1c.1 0 .2.1.3.1.1 0 .2.1.3.1h.1c.1.1.2.1.3.1.1 0 .2.1.3.1h.1c.1 0 .2.1.3.1h.2c.4.2.5.2.6.2zm3.7 6c0-.1 0-.1 0 0-.1-.1-.1-.1-.1-.2-.1-.2-.2-.4-.4-.6v-.1c-.2-.3-.3-.5-.5-.8 0 0-.1-.1 0-.1 0-.1 0-.2.1-.2 0-.3-.1-.6-.3-.8v-.1-.3-.6-.1-.1-.2c0 .1.1.3.1.4v.1c.1.2.1.4.2.6.2.7.5 1.5.7 2.2.1.3.2.6.2.9zm-8.1 6.3zm-1.3.1zm.6 0c.1 0 .1 0 0 0zm1.6-.1zm1.9-.1h-.3l.3-.3s.1-.1.1-.2l.1-.1c.1-.1.1-.2.2-.2l.1-.1.3-.3h.1l.1-.1.4-.4.2.2c0 .1.1.2.2.3 0 .1.1.2.2.2 0 .1.1.1.2.2v.2c-.1.1-.2.3-.2.5v.1h-.2-1.3c-.4-.1-.4-.1-.5 0zm-11.5-9.9s-.1 0-.1.1c-.1 0-.1.1-.2.1l-1.2.6-.1.1c-.1.2-.1.4-.2.7 0 .2-.1.3-.1.5 0 .1-.1.3-.1.4v.1c-.1.2-.1.4-.1.6v.2l-.3 1.2v.2c-.1-.1-.2-.1-.3-.2-.1 0-.2-.1-.3-.1-.1-.1-.2-.1-.3-.1-.1 0-.1-.1-.2-.1s-.1-.1-.2-.1-.1-.1-.2-.1-.1-.1-.2-.1c-.1-.1-.2-.1-.3-.1-.1-.1-.2-.1-.3-.1-.1 0-.2-.1-.3-.1 0 0-.1 0-.1-.1 0 0-.1 0 0-.1v-.2c0-.1 0-.2.1-.2h.1c.1-.1.2-.1.2-.2l.2-.2h.1l.2-.2v-.1h.1c.1-.1.2-.2.4-.3v-.1h.1l.6-.6v-.1l.6-.6v-.1h.1c.2-.2.5-.4.7-.6.3-.2.5-.5.8-.7.3-.2.5-.5.8-.7.1-.1.2-.1.2-.2h.1V228.4c-.3-.4-.3-.3-.3-.3zm.6-.6v-.3-.3-.3-.3c0-.1.1-.1.1-.2 0 0 .1 0 .1-.1h.1c0 .1.1.1.2.1 0 .1.1.1.2.2 0 .1.1.1.2.1 0 .1.1.1.2.1v.1l.1.1h.1c.1.1.2.1.2.2-.1 0-.2.1-.4.2-.3.2-.7.3-1 .5-.1.1-.2.1-.4.2.3-.1.4-.2.3-.3.1 0 0 0 0 0zm3.4-5.2c.1.1.3.1.4.2.2.1.3.2.5.2l.6.3c.2.1.3.2.5.2.1.1.2.1.3.2.2.1.3.2.5.2.2.1.3.2.5.2.2.1.5.2.8.4v.2h-.4c-.4 0-.7.1-1.1.1l-.9.1h-.1-.1-.2-.1-.1c-.4 0-.8.1-1.3.1-.2 0-.4 0-.6.1h-.1-.1-.1-.1-.1-1.1-.1c-.1 0-.1 0-.1-.1s-.1-.1-.1-.2c-.1-.1-.1-.1 0-.2 0-.1.1-.2.1-.3 0-.1.1-.1.1-.2v-.1c.1-.1.1-.1.1-.2.1-.1.1-.2.1-.2v-.1c.1-.1.1-.2.2-.3v-.1c0-.1.1-.2.1-.3v-.1c.1-.1.1-.2.2-.3 0-.1.1-.1.2-.1.2 0 .3 0 .5-.1h.2c.1 0 .1.1.2.1.3.1.5.2.7.3zm-9.8 8.3l.3-.9c.1-.4.3-.8.4-1.2.1-.3.2-.6.3-1v-.1c.1-.3.2-.6.3-.8v-.1-.1c.1-.2.1-.4.2-.6v-.1-.1c.1-.2.1-.3.2-.5 0 0 0-.1.1-.1.3-.1.5-.3.5-.5 0-.1.1-.1.1-.1.1 0 .1 0 .2.1.1 0 .1 0 .2.1h.1c.1.1.3.1.4.1.1 0 .2.1.3.1h.1c.1.1.3.1.4.1.1 0 .2.1.3.1h.1c.1 0 .2.1.3.1.1 0 .2.1.3.1.1 0 .1.1.1.1v.2c-.7.6-1.4 1.3-2.1 1.9-.3.2-.5.5-.8.7-.2.2-.5.4-.7.6-.1.1-.3.2-.4.4l-.3.3c-.1.1-.3.2-.4.3l-.4.4c.2.3 0 .4-.1.5-.1.1-.1 0 0 0zm9.7-9.2h.4c.5.1 1 .1 1.5.2s1 .1 1.5.2c.3 0 .5.1.8.1h.3v.1c0 .1 0 .2.1.3.2.3.6.5.9.3.1 0 .2-.1.2-.1l.1.1c.3.2.6.4.8.6h.1c.5.4 1.1.8 1.6 1.2.2.2.5.3.7.5.1.1.2.1.2.2-.2 0-.4-.1-.5-.1-.2-.1-.4-.1-.6-.2-.1-.1-.3-.1-.4-.1-.2-.1-.5-.1-.7-.2h-.1c-.2 0-.4-.1-.6-.1-.1 0-.3-.1-.4-.1 0 0-.1 0-.1-.1s-.1-.2-.2-.3c-.3-.2-.6-.3-.9-.2 0 0-.1 0-.1.1h-.1c-.3-.2-.6-.3-1-.5h-.1c-.3-.1-.6-.3-.9-.4l-.6-.3c-.1 0-.1-.1-.2-.1-.1-.1-.3-.1-.4-.2l-.6-.3c-.1-.1-.3-.1-.4-.2h-.1-.1c-.1-.1-.3-.1-.4-.2h-.1l-.1-.1h.1c.2-.1.3-.1.4-.1zm-10.7 17.8c0-.1 0-.1 0 0-.1-.2-.1-.3-.2-.3-.1-.1-.1-.2-.2-.3h.2c.2.1.3.2.5.3.2.1.4.2.5.3.1.1.3.1.4.2.2.1.3.2.5.2.1.1.2.1.4.2.1 0 .2.1.2.1.1 0 0 .1.1.1 0 .3.3.7.6.8.1 0 .1.1.1.2s0 .2-.1.3c0 .1-.1.3-.1.4 0 .1 0 .2-.1.3 0 .1-.1.3-.1.4 0 0 0 .1-.1.1 0 0-.1 0-.1-.1-.4-.5-.7-1-1.1-1.5l-.9-1.2c-.2-.1-.3-.3-.5-.5zm13.6 7h-3.3-.1v-.2c0-.1 0-.1.1-.1.5-.1 1.1-.1 1.6-.2h.3c.5-.1 1.1-.1 1.6-.2.2 0 .4 0 .5-.1h.1c.3 0 .5-.1.8-.1.2 0 .5-.1.7-.1H589v.1s0 .1-.1.1c-.3.1-.7.2-1 .4-.3.1-.6.2-.8.3h-.1c-.2 0-.4 0-.6.1zM571.3 235z"/><path class="st0 svg-elem-76" d="M585.6 236.4c.1 0 .1-.1 0 0 0-.1.1-.1.1-.2s.1-.1.1-.2.1-.2.1-.3c0-.1 0-.1.1-.2.1-.3.2-.5.3-.8 0-.1.1-.2.1-.3.1-.1.1-.2.1-.3 0-.1.1-.2.1-.3 0-.1.1-.2.1-.3 0-.1.1-.2.1-.2 0-.1.1-.1.1-.2s.1-.1.1-.2.1-.1.1-.2.1-.1.1-.2.1-.1.1-.2.1-.1.1-.2.1-.1.1-.2v-.1-.1c-.1-.1-.1-.1-.2-.1s-.2 0-.2.1c-.1 0-.1 0-.2.1l-.2.1c-.1 0-.1 0-.2.1l-.2.1c-.1 0-.1 0-.2.1-.1 0-.1 0-.2.1-.1 0-.1 0-.2.1-.1 0-.2 0-.2.1-.1 0-.1 0-.2.1-.1 0-.2 0-.3.1h-.2c-.1 0-.1 0-.2.1-.1 0-.2 0-.2.1-.1 0-.1 0-.2.1-.1 0-.2.1-.3.1-.2.1-.4.1-.6.2-.1 0-.2.1-.3.1h-.2c-.1 0-.1 0-.2.1-.1 0-.1 0-.2.1h-.1-.1-.1-.1-.1c-.1 0-.1 0-.2.1-.1 0-.1 0-.2.1h-.1c-.1 0-.1 0-.2.1h-.5c-.1 0-.2 0-.2.1-.1 0-.1 0-.2.1h-.1c0 .1 0 .2-.1.2v.1l.2.2c.1.1.1.1.2.1.1.1.1.1.2.1s.1.1.2.1.1.1.2.1l.1.1.1.1c.1.1.1.1.2.1l.2.2.2.2c.1.1.2.2.3.2.1.1.2.1.2.2.1.1.1.1.2.1.2.1.3.3.5.4.1 0 .1.1.2.1l.1.1c.1.1.2.1.3.2.1.1.2.1.3.2l.2.2c.1.1.2.1.2.2.1 0 .1.1.2.2h.1c.1 0 .2-.1.3-.1.2 0 .2-.1.3-.2 0-.1.1-.2.1-.3 0-.1.1-.1.1-.2s.1-.1.1-.2.1-.1.1-.2v-.1c-.1 0-.1 0-.1-.1z"/><g id="logo"><path id="hull" class="st0 svg-elem-77" d="M614.8 244.3h18.4l-11.5 3.4z"/><path id="mainsail" class="st0 svg-elem-78" d="M614.8 243.1l6.9-1.1v-12.7z"/><path id="headsail" class="st0 svg-elem-79" d="M622.8 242l10.4 1.1-10.4-23z"/></g><g id="Layer_2_1_"><g id="Logo"><path class="st0 svg-elem-80" d="M663.1 236.5c-1.6 0-2.9-1.3-2.9-2.9s1.3-2.9 2.9-2.9c1.6 0 2.9 1.3 2.9 2.9 0 1.6-1.3 2.9-2.9 2.9"/><path class="st0 svg-elem-81" d="M668.8 234.9c-.7 0-1.3-.6-1.3-1.3 0-.7.6-1.3 1.3-1.3s1.3.6 1.3 1.3c0 .7-.6 1.3-1.3 1.3"/><path class="st0 svg-elem-82" d="M673.7 236.1c-.2.7-.9 1.1-1.6.8-.7-.2-1.1-.9-.8-1.6s.9-1.1 1.6-.8c.6.2 1 .9.9 1.5l-.1.1"/><path class="st0 svg-elem-83" d="M672.8 232.7c-.7.2-1.5-.3-1.6-1s.3-1.5 1-1.6 1.5.3 1.6 1v.5c-.1.5-.5 1-1 1.1"/><path class="st0 svg-elem-84" d="M677.5 236c-.1.7-.8 1.2-1.6 1.1s-1.2-.8-1.1-1.6c.1-.7.8-1.2 1.6-1.1.7.1 1.2.7 1.1 1.4.1.1 0 .2 0 .2"/><path class="st0 svg-elem-85" d="M676.5 232.6c-.7.1-1.4-.4-1.5-1.1-.1-.7.4-1.4 1.1-1.5.7-.1 1.4.4 1.5 1.1v.3c-.1.6-.6 1.1-1.1 1.2"/><path class="st0 svg-elem-86" d="M675.5 240.7c-.4.7-1.2.9-1.9.5s-.9-1.2-.5-1.9 1.2-.9 1.9-.5c.5.3.7.8.7 1.3 0 .2-.1.4-.2.6"/><path class="st0 svg-elem-87" d="M675 228.3c-.6.4-1.5.1-1.8-.5-.4-.6-.1-1.5.5-1.8.6-.4 1.5-.1 1.8.5.1.2.2.5.2.8 0 .4-.3.8-.7 1"/><path class="st0 svg-elem-88" d="M663.2 247.1c-7.5.1-13.6-5.8-13.7-13.3-.1-7.5 5.8-13.6 13.3-13.7h.4c3 0 5.9 1 8.2 2.8l-1.7 2.2c-4.7-3.6-11.5-2.7-15.1 2-1.4 1.9-2.2 4.2-2.2 6.6 0 6 4.8 10.8 10.8 10.8 2.4 0 4.7-.8 6.6-2.2l1.6 2.2c-2.4 1.6-5.3 2.6-8.2 2.6z"/></g></g><path class="st0 svg-elem-89" d="M715.6 225.3v10.9l2 1.2v-10.9l-2-1.2zm-27.1 12.1l2-1.2v-10.9l-2 1.2v10.9z"/><path class="st0 svg-elem-90" d="M698.4 237.3l9.3 5.4v-2.3l-8.7-5-.6.3v1.6zm9.8 8.5l-9.8-5.7v2.3l2.6 1.5-3.2 1.8c-.2.1-.2.4 0 .6l1.5.9 3.6-2.1 3.6 2.1 1.5-.9c.4-.1.4-.4.2-.5z"/><path class="st0 svg-elem-91" d="M715.6 231.8v9.7c0 .2.3.4.5.3l1.4-.8c.1-.1.2-.2.2-.3v-10.1l-2.1 1.2zm-4 12.6l1.3-.8c.1-.1.2-.2.2-.4v-10l-2 1.2v9.7c0 .2.3.4.5.3zm-4.9 2.8l1.9-1.1c.1-.1.2-.2.2-.3v-10.1l-2 1.2v10.3zm-9.1-1.1l1.9 1.1V237l-2-1.2v10.1c-.1.1 0 .2.1.2zm-4.4-2.5l1.3.8c.2.1.5 0 .5-.3v-9.7l-2-1.2v10c0 .2.1.3.2.4zm-4.4-2.5l1.3.8c.2.1.5 0 .5-.3v-9.7l-2-1.2v10c-.1.1 0 .3.2.4z"/><path class="st0 svg-elem-92" d="M717.6 226.5l-2-1.2-3.6 2.1-2.4-1.4 3.2-1.8c.2-.1.2-.4 0-.6l-1.3-.8c-.1-.1-.3-.1-.5 0l-3.4 2-2.4-1.4 3.2-1.8c.2-.1.2-.4 0-.6l-1.3-.8c-.1-.1-.3-.1-.5 0l-3.4 2-3.4-2c-.1-.1-.3-.1-.5 0l-1.3.8c-.2.1-.2.4 0 .6l17.7 10.2 2-1.2-3.6-2.1c-.2.1 3.5-2 3.5-2zm-22.9-3.6l-1.3.8c-.2.1-.2.4 0 .6l17.7 10.2 2-1.2-17.9-10.4c-.1-.1-.3-.1-.5 0zm-6.2 3.6l3.6 2.1-3.6 2.1 2 1.2 3.6-2.1 2.4 1.4-3.6 2.1 2 1.2 3.6-2.1 2.4 1.4-3.6 2.1 2 1.2 3.6-2.1 3.6 2.1 2-1.2-18.2-10.5-1.8 1.1z"/><g id="Layer_2_2_"><g id="Layer_2-2"><path class="st18 svg-elem-93" d="M753.2 237.8c-.3.9-.7 1.8-1.2 2.6.7-3.2.2-8-3.5-11.5l-.1-.1c.2.2.4.3.5.5l.2.2c1.7 1.7 3.3 4 3.9 6.1V235.9c.2.6.2 1.3 0 2 .2 0 .2-.1.2-.1z"/><path class="st18 svg-elem-94" d="M748.5 228.9c3.8 3.5 4.2 8.2 3.5 11.5-.6 1-1.4 2-2.2 2.9 1.6-2.8 2.5-10.5-1.3-14.4z"/><path class="st18 svg-elem-95" d="M748.5 228.9c3.8 3.9 2.8 11.6 1.3 14.4-1.2 1.2-2.5 2.2-4 2.9 3.4-3.5 6.1-13.8 2.3-17.7l.4.4z"/><path class="st18 svg-elem-96" d="M747 227.7c.4.3.8.5 1.1.8 3.8 3.9 1.1 14.2-2.3 17.7-2.4 1.2-5 1.5-7 .4-3.4-2-6-9.7-6.7-12.6.9.9 2 1.7 3.1 2.3l.2.1c1.6.7 3.3 1.1 5 1 2.8-.1 5.6-1.4 7-2.8l.2-.2c1.5-1.7 2.1-4.8-.6-6.7z"/><path class="st18 svg-elem-97" d="M744.6 223.8s.1 0 0 0z"/><path class="st18 svg-elem-98" d="M747.2 234.6c-6.4 5.4-14.1-1.8-15.8-4.6 0-1 0-1.9.2-2.8 1.7 2.9 9.3 12.9 15.7 7.4h-.1z"/><path class="st18 svg-elem-99" d="M742.1 234.7c3.3 2 5.4-.5 5.4-.4l-.1.1-.1.1c-6.4 5.5-14-4.4-15.7-7.4.4-2 1.3-3.9 3.3-5 3.3-1.9 7.4.6 9.6 1.6-.1 0-.1-.1-.2-.1-1.1-.5-2.2-.9-3.4-1.1h-.1c-.9-.2-1.7-.2-2.4 0h-.1c-.6.1-1.1.4-1.4.8v.1c-.2.3-.3.6-.4 1v.2c-.1.5-.1 1 0 1.7.2 1 .5 2 1 2.9 0 .1.1.1.1.1.6 1.3 1.5 2.5 2.5 3.6l.2.2.1.1.6.6.1.1c.2.3.6.6 1 .8z"/><path class="st18 svg-elem-100" d="M742 227.9c-1.4 1-2.8 4.5.1 6.9-4.6-3.5-2.4-10.1.2-11.9.7.2 1.4.5 2.1.8.1 0 .1.1.2.1h.1c3.6 1.8 7.6 4.8 8.7 8.3.9 2.7.2 4.6-.1 5.6.1-.6.1-1.2 0-1.8v-.1-.2c-.5-1.9-2-4.2-3.9-6.1l-.2-.2-.6-.6c-.2-.2-.4-.3-.6-.5-.2-.2-.5-.4-.8-.5-1.3-.7-3.2-1.3-5.2.2z"/><path class="st18 svg-elem-101" d="M731.4 230c1.7 2.8 9.4 10 15.8 4.6-6.4 5.5-13.8.2-15.6-2.6-.1-.7-.1-1.3-.2-2z"/><path class="st18 svg-elem-102" d="M742.3 222.9c-2.5 1.7-4.8 8.4-.2 11.9-.1-.1-.2-.1-.2-.2-4.5-3.5-4.2-9.7-2-12.1.3 0 .6.1.9.1h.1c.5 0 .9.1 1.4.3z"/><path class="st18 svg-elem-103" d="M741.9 234.5c.1.1.2.1.2.2l-1.2-.9-.1-.1-.3-.3-.3-.3-.1-.1-.2-.2c-1-1.1-1.8-2.3-2.5-3.6 0-.1-.1-.1-.1-.1-.5-.9-.8-1.9-1-2.9-.1-.6-.1-1.2 0-1.7v-.1-.1c.1-.3.2-.7.4-1 .3-.4.8-.7 1.3-.9-1.5 3.3-.9 8.5 3.9 12.1z"/><path class="st18 svg-elem-104" d="M747.3 234.5l.2-.2c0 .1 0 .1-.2.2-.8.8-3 2.4-6.2 2.7-.2 0-.4 0-.7.1h-.4c-1.6 0-3.2-.3-4.7-1l-.2-.1c-1.2-.6-2.2-1.3-3.1-2.3-.2-.6-.3-1.3-.5-1.9 1.8 2.8 9.2 8.1 15.6 2.6.2 0 .2 0 .2-.1z"/><path class="st18 svg-elem-105" d="M739.9 222.4c-2.3 2.4-2.6 8.6 2 12.1-4.8-3.6-5.3-8.9-3.6-12h.2c.4-.1.9-.1 1.4-.1z"/><path class="st18 svg-elem-106" d="M740.9 233.8l1.2.9c3.3 2 5.4-.5 5.4-.4m-7.3-1.1l.3.3.3.3m-3.3-4.5c.7 1.3 1.5 2.5 2.5 3.6l.2.2m-3.7-8.7v.2c-.1.6-.1 1.1 0 1.7.2 1 .5 2 1 2.9m.9-6.7c-.6.1-1.1.4-1.4.8v.1c-.2.3-.3.6-.4 1m4.2-1.9c-.3-.1-.6-.1-.9-.1-.5 0-1 0-1.5.1m6 1.2c-1.1-.5-2.2-.9-3.4-1.1m3.7 1.2"/><path class="st18 svg-elem-107" d="M731.6 227.2c.4-2 1.3-3.9 3.3-5 3.3-1.9 7.4.6 9.6 1.6m-9.3 12.4c-1.2-.6-2.2-1.4-3.1-2.3-.2-.6-.3-1.3-.4-1.9-.1-.7-.2-1.3-.2-2 0-1 0-1.9.2-2.8m15.7 7.3c-.8.8-3.1 2.4-6.3 2.8-.2 0-.4 0-.7.1-1.7.1-3.5-.3-5-1"/><path class="st18 svg-elem-108" d="M747.2 234.6c-6.4 5.5-13.8.2-15.6-2.6m15.8 2.4c-.1.1-.2.1-.2.2-6.4 5.4-14.1-1.8-15.8-4.6"/><path class="st18 svg-elem-109" d="M731.6 227.2"/><path class="st18 svg-elem-110" d="M747.6 234.3l-.1.1-.1.1c-6.4 5.5-14-4.4-15.7-7.4"/><path class="st18 svg-elem-111" d="M753.1 235.7v.2c.2.6.2 1.3 0 2 0 0 0-.1.1-.1.3-1 1-2.9.1-5.6-1.1-3.5-5.1-6.5-8.7-8.3h-.1c-.1 0-.1-.1-.2-.1-.7-.3-1.4-.6-2.1-.8-.4-.1-.9-.3-1.3-.3h-.1c-.9-.2-1.7-.2-2.4 0h-.2c-.5.1-1 .4-1.3.9-.2.3-.3.6-.4 1v.2c-.1.5-.1 1 0 1.7.2 1 .5 2 1 2.9 0 .1.1.1.1.1.6 1.3 1.5 2.5 2.5 3.6l.2.2.1.1.6.6.1.1 1.2.9c-3-2.4-1.6-5.8-.1-6.9 2-1.4 3.9-.8 5-.2m2 1.6c1.9 1.9 3.4 4.1 3.9 6.1"/><path class="st18 svg-elem-112" d="M747.6 228.1c.2.2.3.3.5.4l.3.3c.2.2.4.3.5.5m-1.8-1.5c.2.1.3.2.4.3"/><path class="st18 svg-elem-113" d="M741.9 234.5c-4.8-3.6-5.3-8.9-3.6-12m3.8 12.2c-.1-.1-.2-.1-.2-.2-4.5-3.5-4.2-9.7-2-12.1m2.2 12.3c-4.6-3.5-2.4-10.1.2-11.9"/><path class="st18 svg-elem-114" d="M748 228.4c-.2-.1-.3-.2-.5-.3h-.1c-.2-.1-.4-.3-.5-.4m.1 0c2.7 2 2.1 5.1.6 6.7l-.2.2c-1.4 1.4-4.2 2.7-7 2.8h-.4c-1.6 0-3.2-.3-4.7-1l-.2-.1c-1.2-.6-2.2-1.3-3.1-2.3.7 2.9 3.4 10.7 6.7 12.6 2 1.2 4.6.9 7-.4 1.5-.8 2.8-1.8 4-2.9.9-.9 1.6-1.8 2.2-2.9.5-.8.9-1.7 1.2-2.6.1-.6.1-1.2 0-1.8v-.1-.2c-.6-2.1-2.2-4.4-3.9-6.1l-.2-.2-.6-.6c-.1-.1-.2-.2-.3-.2"/><path class="st18 svg-elem-115" d="M748.5 228.9c3.8 3.5 4.2 8.2 3.5 11.5m-5-12.7c.4.3.8.5 1.1.8.1.1.3.2.4.3"/><path class="st18 svg-elem-116" d="M747.1 227.8c.2.1.4.3.6.4.2.2.4.3.6.5l.1.1.1.1c3.8 3.9 2.8 11.6 1.3 14.4"/><path class="st18 svg-elem-117" d="M747 227.7c.1 0 .1.1.2.1"/><path class="st18 svg-elem-118" d="M747 227.7c.3.2.6.3.8.5.1.1.2.2.3.2l.1.1c3.8 3.9 1.1 14.2-2.3 17.7"/></g></g></svg>