<svg xmlns="http://www.w3.org/2000/svg" viewBox="0 0 211.18 25.92"><defs><style>.cls-1{fill:#fff}</style></defs><title>Asset 4</title><g id="Layer_2" data-name="Layer 2"><g id="Layer_1-2" data-name="Layer 1"><polygon points="130.92 4.08 130.92 5.18 130.92 10.37 130.92 16.69 130.92 25.92 155.49 25.92 155.49 20.73 136.11 20.73 136.11 16.69 136.11 15.55 151 15.55 151 10.37 136.11 10.37 136.11 5.18 155.49 5.18 155.49 0 130.92 0 130.92 4.08" class="cls-1"/><polygon points="36.4 4.08 36.4 5.18 36.4 10.37 36.4 16.69 36.4 25.92 60.97 25.92 60.97 20.73 41.59 20.73 41.59 16.69 41.59 15.55 56.48 15.55 56.48 10.37 41.59 10.37 41.59 5.18 60.97 5.18 60.97 0 36.4 0 36.4 4.08" class="cls-1"/><path d="M95,19.15a6.43,6.43,0,0,1-.54,2.62A6.62,6.62,0,0,1,93,23.93a7,7,0,0,1-2.16,1.45,6.56,6.56,0,0,1-2.64.54H63.92V20.46H88.18a1.3,1.3,0,0,0,1.31-1.31V17a1.3,1.3,0,0,0-1.31-1.32H70.73a6.44,6.44,0,0,1-2.63-.53,7.1,7.1,0,0,1-2.18-1.47,6.79,6.79,0,0,1-1.46-2.18,6.43,6.43,0,0,1-.54-2.62V6.81a6.61,6.61,0,0,1,.54-2.65A7,7,0,0,1,65.92,2,6.9,6.9,0,0,1,68.1.54,6.45,6.45,0,0,1,70.73,0H95V5.49H70.73a1.31,1.31,0,0,0-1.32,1.32V8.92a1.27,1.27,0,0,0,.38.93,1.31,1.31,0,0,0,.94.38H88.18a6.73,6.73,0,0,1,2.64.53,7,7,0,0,1,3.63,3.63A6.58,6.58,0,0,1,95,17Z" class="cls-1"/><path d="M127.68,25.92h-4.94V15.72H103.46v10.2H98.52V10.23h24.22V0h4.94ZM103.46,7.8H98.52V0h4.94Z" class="cls-1"/><polygon points="198.22 9.07 191.74 0 185.26 0 195.63 15.55 195.63 25.92 200.81 25.92 200.81 15.55 211.18 0 204.78 0 198.22 9.07" class="cls-1"/><path d="M164.31,4.94H177.6v5.39H166.9v4.95h2.45l9.4,10.64h6.4l-9.4-10.64h3.67a4,4,0,0,0,4-4V4a4,4,0,0,0-4-4H159.23V25.92h5.19Z" class="cls-1"/><path d="M32.42,25.92h-5.5V7a1.45,1.45,0,0,0-.12-.59,1.51,1.51,0,0,0-.33-.49A1.75,1.75,0,0,0,26,5.62a1.49,1.49,0,0,0-.59-.13H0V0H25.4a6.7,6.7,0,0,1,2.71.55,7.12,7.12,0,0,1,2.25,1.51,7.34,7.34,0,0,1,1.5,2.24A6.76,6.76,0,0,1,32.42,7Zm-26.93,0H0V5.49L5.49,4Zm13.45,0h-5.5V8.37h5.5Z" class="cls-1"/></g></g></svg>