<svg width="683" height="699" viewBox="0 0 683 699" fill="none" xmlns="http://www.w3.org/2000/svg">
<path d="M0 20C0 8.9543 8.9543 0 20 0H662.197C673.243 0 682.197 8.95431 682.197 20V94.0962H0V20Z" fill="#1E2117"/>
<path d="M464.272 20C464.272 8.9543 473.227 0 484.272 0H508.228C519.274 0 528.228 8.95431 528.228 20V94.0962H464.272V20Z" fill="#1E2117"/>
<path d="M42.2327 45.6302C45.0047 45.6302 47.4027 44.0682 47.4027 41.2522C47.4027 38.1282 44.5867 37.3142 42.3207 36.4782C40.7587 35.8842 39.5487 35.3342 39.5487 33.9922C39.5487 32.8482 40.4947 32.1222 41.9027 32.1222C43.2667 32.1222 44.2127 32.7382 44.4107 33.9702C44.4547 34.2782 44.6087 34.4322 44.9167 34.4322H46.4567C46.7867 34.4322 46.9627 34.2562 46.9407 33.9262C46.6987 31.0662 44.4107 29.6582 41.9027 29.6582C39.3947 29.6582 37.0187 31.1762 37.0187 33.9922C37.0187 37.1602 39.6807 38.0182 41.9247 38.8322C43.5087 39.4042 44.8727 39.9542 44.8727 41.2522C44.8727 42.3962 43.8827 43.1662 42.2327 43.1662C40.5387 43.1662 39.4387 42.4842 39.2407 41.1862C39.1967 40.8562 39.0427 40.7022 38.7347 40.7022H37.1947C36.8647 40.7022 36.6887 40.8782 36.7107 41.2082C36.9527 44.1782 39.3947 45.6302 42.2327 45.6302ZM54.6155 34.0582C51.1615 34.0582 48.8515 36.5882 48.8515 39.8442C48.8515 43.1442 51.1395 45.6302 54.6595 45.6302C56.9035 45.6302 58.7075 44.5522 59.4995 42.7702C59.6535 42.4622 59.4555 42.2422 59.0815 42.2422H57.6735C57.4095 42.2422 57.2555 42.3522 57.0795 42.5502C56.5955 43.1662 55.7375 43.6062 54.6815 43.6062C53.0095 43.6062 51.6675 42.6822 51.2935 40.8782H57.6515H59.4995C59.8075 40.8782 60.0055 40.7242 60.0275 40.4162C60.0495 40.2402 60.0495 40.0642 60.0495 39.8662C60.0495 36.6982 57.8935 34.0582 54.6155 34.0582ZM51.2935 38.9202C51.6235 37.2702 52.8115 36.2362 54.5935 36.2362C56.0015 36.2362 57.3435 37.0502 57.6515 38.9202H51.2935ZM67.1163 34.1902C65.9943 34.3002 65.0263 34.8502 64.4543 35.9942V34.8502C64.4543 34.5202 64.2783 34.3442 63.9483 34.3442H62.5623C62.2543 34.3442 62.0783 34.5202 62.0783 34.8502V44.8602C62.0783 45.1682 62.2543 45.3442 62.5623 45.3442H63.9483C64.2783 45.3442 64.4543 45.1682 64.4543 44.8602V39.6902C64.4543 37.5342 65.8183 36.7422 67.2483 36.6982C67.4903 36.6982 67.6223 36.5222 67.6223 36.2142V34.6522C67.6223 34.3442 67.4463 34.1462 67.1163 34.1902ZM78.03 34.3442H76.534C76.27 34.3442 76.072 34.4762 75.984 34.7622L73.366 42.5502L70.748 34.7622C70.66 34.4762 70.462 34.3442 70.176 34.3442H68.702C68.35 34.3442 68.174 34.5642 68.284 34.9162L71.958 44.9482C72.046 45.2122 72.244 45.3442 72.508 45.3442H73.014H74.202C74.488 45.3442 74.664 45.2122 74.774 44.9482L78.426 34.9162C78.558 34.5642 78.382 34.3442 78.03 34.3442ZM80.6312 32.5842H82.0172C82.3252 32.5842 82.5012 32.4082 82.5012 32.1002V30.4502C82.5012 30.1202 82.3252 29.9442 82.0172 29.9442H80.6312C80.3012 29.9442 80.1252 30.1202 80.1252 30.4502V32.1002C80.1252 32.4082 80.3012 32.5842 80.6312 32.5842ZM80.6312 45.3442H82.0172C82.3252 45.3442 82.5012 45.1682 82.5012 44.8602V34.8502C82.5012 34.5202 82.3252 34.3442 82.0172 34.3442H80.6312C80.3012 34.3442 80.1252 34.5202 80.1252 34.8502V44.8602C80.1252 45.1682 80.3012 45.3442 80.6312 45.3442ZM95.3139 41.4942H93.7959C93.5099 41.4942 93.3339 41.6262 93.2019 41.8682C92.6739 42.7482 91.6619 43.2982 90.4739 43.2982C88.5379 43.2982 87.0419 41.8242 87.0419 39.8442C87.0419 37.8642 88.5379 36.3902 90.4739 36.3902C91.6619 36.3902 92.6739 36.9402 93.2019 37.8422C93.3339 38.0842 93.5319 38.1942 93.7959 38.1942H95.3139C95.6659 38.1942 95.8639 37.9742 95.7319 37.6442C94.9839 35.5102 92.9159 34.0582 90.4739 34.0582C87.1299 34.0582 84.6659 36.5882 84.6659 39.8442C84.6659 43.1222 87.1299 45.6302 90.4739 45.6302C92.9159 45.6302 95.0059 44.1782 95.7319 42.0662C95.8639 41.7142 95.6659 41.4942 95.3139 41.4942ZM102.934 34.0582C99.4798 34.0582 97.1698 36.5882 97.1698 39.8442C97.1698 43.1442 99.4578 45.6302 102.978 45.6302C105.222 45.6302 107.026 44.5522 107.818 42.7702C107.972 42.4622 107.774 42.2422 107.4 42.2422H105.992C105.728 42.2422 105.574 42.3522 105.398 42.5502C104.914 43.1662 104.056 43.6062 103 43.6062C101.328 43.6062 99.9858 42.6822 99.6118 40.8782H105.97H107.818C108.126 40.8782 108.324 40.7242 108.346 40.4162C108.368 40.2402 108.368 40.0642 108.368 39.8662C108.368 36.6982 106.212 34.0582 102.934 34.0582ZM99.6118 38.9202C99.9418 37.2702 101.13 36.2362 102.912 36.2362C104.32 36.2362 105.662 37.0502 105.97 38.9202H99.6118ZM62.0723 57.9442H61.2583H60.0263C59.7623 57.9442 59.5643 58.0542 59.4543 58.3182L55.2083 67.8882L50.9403 58.3182C50.8303 58.0542 50.6543 57.9442 50.3683 57.9442H49.8623H48.3223C48.0143 57.9442 47.8383 58.1202 47.8383 58.4502V72.8602C47.8383 73.1682 48.0143 73.3442 48.3223 73.3442H49.8623C50.1923 73.3442 50.3683 73.1682 50.3683 72.8602V62.1462L54.0423 70.4402C54.1523 70.7042 54.3503 70.8142 54.6143 70.8142H55.7803C56.0663 70.8142 56.2423 70.7042 56.3523 70.4402L60.0483 62.1462V72.8602C60.0483 73.1682 60.2243 73.3442 60.5323 73.3442H62.0723C62.4023 73.3442 62.5783 73.1682 62.5783 72.8602V58.4502C62.5783 58.1202 62.4023 57.9442 62.0723 57.9442ZM70.6428 62.0582C67.1888 62.0582 64.8788 64.5882 64.8788 67.8442C64.8788 71.1442 67.1668 73.6302 70.6868 73.6302C72.9308 73.6302 74.7348 72.5522 75.5268 70.7702C75.6808 70.4622 75.4828 70.2422 75.1088 70.2422H73.7008C73.4368 70.2422 73.2828 70.3522 73.1068 70.5502C72.6228 71.1662 71.7648 71.6062 70.7088 71.6062C69.0368 71.6062 67.6948 70.6822 67.3208 68.8782H73.6788H75.5268C75.8348 68.8782 76.0328 68.7242 76.0548 68.4162C76.0768 68.2402 76.0768 68.0642 76.0768 67.8662C76.0768 64.6982 73.9208 62.0582 70.6428 62.0582ZM67.3208 66.9202C67.6508 65.2702 68.8388 64.2362 70.6208 64.2362C72.0288 64.2362 73.3708 65.0502 73.6788 66.9202H67.3208ZM80.1516 65.4462C80.1516 64.6102 80.9436 64.1922 81.9336 64.1922C82.7256 64.1922 83.4516 64.5222 83.6276 65.2922C83.7376 65.5782 83.8696 65.7542 84.1556 65.7542H85.5196C85.8496 65.7542 86.0476 65.5782 86.0036 65.2262C85.7616 63.1362 84.0016 62.0582 81.9336 62.0582C79.6676 62.0582 77.7756 63.2902 77.7756 65.4462C77.7756 69.6262 83.8916 68.0642 83.8916 70.2642C83.8916 71.1002 83.0996 71.4962 81.9336 71.4962C80.9876 71.4962 80.2176 71.1882 80.0196 70.3962C79.9096 70.1102 79.7996 69.9562 79.4916 69.9562H78.1276C77.8196 69.9562 77.6216 70.1322 77.6436 70.4622C77.8856 72.5522 79.6896 73.6302 81.9336 73.6302C84.3756 73.6302 86.2676 72.4202 86.2676 70.2642C86.2676 66.0622 80.1516 67.6462 80.1516 65.4462ZM94.0041 62.0582C92.6621 62.0582 91.5841 62.5202 90.8801 63.5982V58.4502C90.8801 58.1202 90.7041 57.9442 90.3961 57.9442H89.0101C88.6801 57.9442 88.5041 58.1202 88.5041 58.4502V72.8602C88.5041 73.1682 88.6801 73.3442 89.0101 73.3442H90.3961C90.7041 73.3442 90.8801 73.1682 90.8801 72.8602V67.0302C90.8801 65.0282 92.0021 64.2802 93.2561 64.2802C94.4001 64.2802 95.2581 64.9842 95.2581 66.4142V72.8602C95.2581 73.1682 95.4341 73.3442 95.7641 73.3442H97.1501C97.4581 73.3442 97.6341 73.1682 97.6341 72.8602V66.2602C97.6341 63.6202 96.0501 62.0582 94.0041 62.0582Z" fill="white"/>
<path d="M164.111 28.6H163.297H162.065C161.801 28.6 161.603 28.71 161.493 28.974L157.247 38.544L152.979 28.974C152.869 28.71 152.693 28.6 152.407 28.6H151.901H150.361C150.053 28.6 149.877 28.776 149.877 29.106V43.516C149.877 43.824 150.053 44 150.361 44H151.901C152.231 44 152.407 43.824 152.407 43.516V32.802L156.081 41.096C156.191 41.36 156.389 41.47 156.653 41.47H157.819C158.105 41.47 158.281 41.36 158.391 41.096L162.087 32.802V43.516C162.087 43.824 162.263 44 162.571 44H164.111C164.441 44 164.617 43.824 164.617 43.516V29.106C164.617 28.776 164.441 28.6 164.111 28.6ZM172.681 32.714C169.227 32.714 166.917 35.244 166.917 38.5C166.917 41.8 169.205 44.286 172.725 44.286C174.969 44.286 176.773 43.208 177.565 41.426C177.719 41.118 177.521 40.898 177.147 40.898H175.739C175.475 40.898 175.321 41.008 175.145 41.206C174.661 41.822 173.803 42.262 172.747 42.262C171.075 42.262 169.733 41.338 169.359 39.534H175.717H177.565C177.873 39.534 178.071 39.38 178.093 39.072C178.115 38.896 178.115 38.72 178.115 38.522C178.115 35.354 175.959 32.714 172.681 32.714ZM169.359 37.576C169.689 35.926 170.877 34.892 172.659 34.892C174.067 34.892 175.409 35.706 175.717 37.576H169.359ZM182.19 36.102C182.19 35.266 182.982 34.848 183.972 34.848C184.764 34.848 185.49 35.178 185.666 35.948C185.776 36.234 185.908 36.41 186.194 36.41H187.558C187.888 36.41 188.086 36.234 188.042 35.882C187.8 33.792 186.04 32.714 183.972 32.714C181.706 32.714 179.814 33.946 179.814 36.102C179.814 40.282 185.93 38.72 185.93 40.92C185.93 41.756 185.138 42.152 183.972 42.152C183.026 42.152 182.256 41.844 182.058 41.052C181.948 40.766 181.838 40.612 181.53 40.612H180.166C179.858 40.612 179.66 40.788 179.682 41.118C179.924 43.208 181.728 44.286 183.972 44.286C186.414 44.286 188.306 43.076 188.306 40.92C188.306 36.718 182.19 38.302 182.19 36.102ZM196.043 32.714C194.701 32.714 193.623 33.176 192.919 34.254V29.106C192.919 28.776 192.743 28.6 192.435 28.6H191.049C190.719 28.6 190.543 28.776 190.543 29.106V43.516C190.543 43.824 190.719 44 191.049 44H192.435C192.743 44 192.919 43.824 192.919 43.516V37.686C192.919 35.684 194.041 34.936 195.295 34.936C196.439 34.936 197.297 35.64 197.297 37.07V43.516C197.297 43.824 197.473 44 197.803 44H199.189C199.497 44 199.673 43.824 199.673 43.516V36.916C199.673 34.276 198.089 32.714 196.043 32.714ZM154.101 72H156.279C156.565 72 156.763 71.868 156.851 71.604L161.757 57.172C161.867 56.82 161.691 56.6 161.339 56.6H159.645C159.359 56.6 159.161 56.732 159.073 57.018L155.201 69.008L151.307 57.018C151.219 56.732 151.021 56.6 150.757 56.6H149.041C148.689 56.6 148.513 56.82 148.623 57.172L153.551 71.604C153.639 71.868 153.837 72 154.101 72ZM167.504 60.714C164.05 60.714 161.74 63.244 161.74 66.5C161.74 69.8 164.028 72.286 167.548 72.286C169.792 72.286 171.596 71.208 172.388 69.426C172.542 69.118 172.344 68.898 171.97 68.898H170.562C170.298 68.898 170.144 69.008 169.968 69.206C169.484 69.822 168.626 70.262 167.57 70.262C165.898 70.262 164.556 69.338 164.182 67.534H170.54H172.388C172.696 67.534 172.894 67.38 172.916 67.072C172.938 66.896 172.938 66.72 172.938 66.522C172.938 63.354 170.782 60.714 167.504 60.714ZM164.182 65.576C164.512 63.926 165.7 62.892 167.482 62.892C168.89 62.892 170.232 63.706 170.54 65.576H164.182ZM180.005 60.846C178.883 60.956 177.915 61.506 177.343 62.65V61.506C177.343 61.176 177.167 61 176.837 61H175.451C175.143 61 174.967 61.176 174.967 61.506V71.516C174.967 71.824 175.143 72 175.451 72H176.837C177.167 72 177.343 71.824 177.343 71.516V66.346C177.343 64.19 178.707 63.398 180.137 63.354C180.379 63.354 180.511 63.178 180.511 62.87V61.308C180.511 61 180.335 60.802 180.005 60.846ZM184.038 64.102C184.038 63.266 184.83 62.848 185.82 62.848C186.612 62.848 187.338 63.178 187.514 63.948C187.624 64.234 187.756 64.41 188.042 64.41H189.406C189.736 64.41 189.934 64.234 189.89 63.882C189.648 61.792 187.888 60.714 185.82 60.714C183.554 60.714 181.662 61.946 181.662 64.102C181.662 68.282 187.778 66.72 187.778 68.92C187.778 69.756 186.986 70.152 185.82 70.152C184.874 70.152 184.104 69.844 183.906 69.052C183.796 68.766 183.686 68.612 183.378 68.612H182.014C181.706 68.612 181.508 68.788 181.53 69.118C181.772 71.208 183.576 72.286 185.82 72.286C188.262 72.286 190.154 71.076 190.154 68.92C190.154 64.718 184.038 66.302 184.038 64.102ZM192.896 59.24H194.282C194.59 59.24 194.766 59.064 194.766 58.756V57.106C194.766 56.776 194.59 56.6 194.282 56.6H192.896C192.566 56.6 192.39 56.776 192.39 57.106V58.756C192.39 59.064 192.566 59.24 192.896 59.24ZM192.896 72H194.282C194.59 72 194.766 71.824 194.766 71.516V61.506C194.766 61.176 194.59 61 194.282 61H192.896C192.566 61 192.39 61.176 192.39 61.506V71.516C192.39 71.824 192.566 72 192.896 72ZM202.739 72.286C205.951 72.286 208.547 69.778 208.547 66.5C208.547 63.244 205.951 60.714 202.739 60.714C199.505 60.714 196.931 63.244 196.931 66.5C196.931 69.778 199.505 72.286 202.739 72.286ZM202.739 69.976C200.803 69.976 199.307 68.502 199.307 66.5C199.307 64.498 200.803 63.024 202.739 63.024C204.675 63.024 206.171 64.498 206.171 66.5C206.171 68.502 204.675 69.976 202.739 69.976ZM216.174 60.714C214.832 60.714 213.754 61.176 213.05 62.254V61.506C213.05 61.176 212.874 61 212.566 61H211.18C210.85 61 210.674 61.176 210.674 61.506V71.516C210.674 71.824 210.85 72 211.18 72H212.566C212.874 72 213.05 71.824 213.05 71.516V65.686C213.05 63.684 214.172 62.936 215.426 62.936C216.57 62.936 217.428 63.64 217.428 65.07V71.516C217.428 71.824 217.604 72 217.934 72H219.32C219.628 72 219.804 71.824 219.804 71.516V64.916C219.804 62.276 218.22 60.714 216.174 60.714Z" fill="white"/>
<path d="M283.557 29.9442H280.147H274.207C273.899 29.9442 273.723 30.1202 273.723 30.4502V31.8802C273.723 32.1882 273.899 32.3642 274.207 32.3642H277.617V44.8602C277.617 45.1682 277.793 45.3442 278.123 45.3442H279.663C279.971 45.3442 280.147 45.1682 280.147 44.8602V32.3642H283.557C283.887 32.3642 284.063 32.1882 284.063 31.8802V30.4502C284.063 30.1202 283.887 29.9442 283.557 29.9442ZM289.7 34.1902C288.578 34.3002 287.61 34.8502 287.038 35.9942V34.8502C287.038 34.5202 286.862 34.3442 286.532 34.3442H285.146C284.838 34.3442 284.662 34.5202 284.662 34.8502V44.8602C284.662 45.1682 284.838 45.3442 285.146 45.3442H286.532C286.862 45.3442 287.038 45.1682 287.038 44.8602V39.6902C287.038 37.5342 288.402 36.7422 289.832 36.6982C290.074 36.6982 290.206 36.5222 290.206 36.2142V34.6522C290.206 34.3442 290.03 34.1462 289.7 34.1902ZM295.977 34.0582C293.711 34.0582 291.885 35.3342 291.621 37.4682C291.599 37.7982 291.797 37.9742 292.105 37.9742H293.469C293.777 37.9742 293.887 37.8202 293.997 37.5342C294.195 36.7202 294.987 36.2802 295.977 36.2802C297.143 36.2802 298.023 36.8962 298.023 38.4142V39.7782C297.341 39.1182 296.285 38.6562 294.899 38.6562C292.919 38.6562 291.115 39.8222 291.115 42.1542C291.115 44.4862 292.919 45.6302 294.899 45.6302C296.285 45.6302 297.341 45.1682 298.023 44.3102V44.8602C298.023 45.1682 298.199 45.3442 298.507 45.3442H299.849C300.179 45.3442 300.355 45.1682 300.355 44.8602V38.3042C300.355 35.5542 298.419 34.0582 295.977 34.0582ZM295.647 43.7822C294.173 43.7822 293.491 43.1002 293.491 42.1542C293.491 41.2082 294.173 40.5042 295.647 40.5042C297.077 40.5042 298.023 41.1422 298.023 42.1542C298.023 43.1002 297.077 43.7822 295.647 43.7822ZM317.292 34.3442H316.456H311.77V33.9042C311.77 32.2102 312.694 31.7262 314.366 31.7262C314.96 31.7262 315.598 31.7702 316.28 31.8362C316.61 31.8802 316.808 31.7042 316.808 31.3742V30.1862C316.808 29.8782 316.654 29.7022 316.368 29.6362C315.664 29.5042 315.026 29.4382 314.366 29.4382C311.066 29.4382 309.394 30.9342 309.394 33.9042V34.3442H308.316H305.72V34.1242C305.72 32.6282 306.446 31.9462 307.81 31.9242C308.14 31.9242 308.316 31.7702 308.316 31.4622V30.1642C308.316 29.8562 308.14 29.6362 307.832 29.6362C304.84 29.6142 303.344 31.3082 303.344 34.1242V34.3442H302.156C301.848 34.3442 301.672 34.5202 301.672 34.8502V36.1482C301.672 36.4562 301.848 36.6322 302.156 36.6322H303.344V44.8602C303.344 45.1682 303.52 45.3442 303.828 45.3442H305.214C305.544 45.3442 305.72 45.1682 305.72 44.8602V36.6322H307.722H309.394V44.8602C309.394 45.1682 309.57 45.3442 309.878 45.3442H311.264C311.594 45.3442 311.77 45.1682 311.77 44.8602V36.6322H315.422V44.8602C315.422 45.1682 315.598 45.3442 315.906 45.3442H317.292C317.622 45.3442 317.798 45.1682 317.798 44.8602V34.8502C317.798 34.5202 317.622 34.3442 317.292 34.3442ZM330.595 41.4942H329.077C328.791 41.4942 328.615 41.6262 328.483 41.8682C327.955 42.7482 326.943 43.2982 325.755 43.2982C323.819 43.2982 322.323 41.8242 322.323 39.8442C322.323 37.8642 323.819 36.3902 325.755 36.3902C326.943 36.3902 327.955 36.9402 328.483 37.8422C328.615 38.0842 328.813 38.1942 329.077 38.1942H330.595C330.947 38.1942 331.145 37.9742 331.013 37.6442C330.265 35.5102 328.197 34.0582 325.755 34.0582C322.411 34.0582 319.947 36.5882 319.947 39.8442C319.947 43.1222 322.411 45.6302 325.755 45.6302C328.197 45.6302 330.287 44.1782 331.013 42.0662C331.145 41.7142 330.947 41.4942 330.595 41.4942ZM280.325 72.7942L275.199 58.3622C275.111 58.0982 274.891 57.9442 274.627 57.9442H272.449C272.163 57.9442 271.965 58.0982 271.877 58.3622L266.751 72.7942C266.619 73.1462 266.795 73.3442 267.147 73.3442H268.863C269.127 73.3442 269.325 73.2122 269.413 72.9482L270.337 70.2422H276.717L277.641 72.9482C277.729 73.2122 277.927 73.3442 278.213 73.3442H279.907C280.281 73.3442 280.435 73.1462 280.325 72.7942ZM271.129 67.8662L273.527 60.8262L275.925 67.8662H271.129ZM291.826 69.4942H290.308C290.022 69.4942 289.846 69.6262 289.714 69.8682C289.186 70.7482 288.174 71.2982 286.986 71.2982C285.05 71.2982 283.554 69.8242 283.554 67.8442C283.554 65.8642 285.05 64.3902 286.986 64.3902C288.174 64.3902 289.186 64.9402 289.714 65.8422C289.846 66.0842 290.044 66.1942 290.308 66.1942H291.826C292.178 66.1942 292.376 65.9742 292.244 65.6442C291.496 63.5102 289.428 62.0582 286.986 62.0582C283.642 62.0582 281.178 64.5882 281.178 67.8442C281.178 71.1222 283.642 73.6302 286.986 73.6302C289.428 73.6302 291.518 72.1782 292.244 70.0662C292.376 69.7142 292.178 69.4942 291.826 69.4942ZM304.33 69.4942H302.812C302.526 69.4942 302.35 69.6262 302.218 69.8682C301.69 70.7482 300.678 71.2982 299.49 71.2982C297.554 71.2982 296.058 69.8242 296.058 67.8442C296.058 65.8642 297.554 64.3902 299.49 64.3902C300.678 64.3902 301.69 64.9402 302.218 65.8422C302.35 66.0842 302.548 66.1942 302.812 66.1942H304.33C304.682 66.1942 304.88 65.9742 304.748 65.6442C304 63.5102 301.932 62.0582 299.49 62.0582C296.146 62.0582 293.682 64.5882 293.682 67.8442C293.682 71.1222 296.146 73.6302 299.49 73.6302C301.932 73.6302 304.022 72.1782 304.748 70.0662C304.88 69.7142 304.682 69.4942 304.33 69.4942ZM311.95 62.0582C308.496 62.0582 306.186 64.5882 306.186 67.8442C306.186 71.1442 308.474 73.6302 311.994 73.6302C314.238 73.6302 316.042 72.5522 316.834 70.7702C316.988 70.4622 316.79 70.2422 316.416 70.2422H315.008C314.744 70.2422 314.59 70.3522 314.414 70.5502C313.93 71.1662 313.072 71.6062 312.016 71.6062C310.344 71.6062 309.002 70.6822 308.628 68.8782H314.986H316.834C317.142 68.8782 317.34 68.7242 317.362 68.4162C317.384 68.2402 317.384 68.0642 317.384 67.8662C317.384 64.6982 315.228 62.0582 311.95 62.0582ZM308.628 66.9202C308.958 65.2702 310.146 64.2362 311.928 64.2362C313.336 64.2362 314.678 65.0502 314.986 66.9202H308.628ZM321.459 65.4462C321.459 64.6102 322.251 64.1922 323.241 64.1922C324.033 64.1922 324.759 64.5222 324.935 65.2922C325.045 65.5782 325.177 65.7542 325.463 65.7542H326.827C327.157 65.7542 327.355 65.5782 327.311 65.2262C327.069 63.1362 325.309 62.0582 323.241 62.0582C320.975 62.0582 319.083 63.2902 319.083 65.4462C319.083 69.6262 325.199 68.0642 325.199 70.2642C325.199 71.1002 324.407 71.4962 323.241 71.4962C322.295 71.4962 321.525 71.1882 321.327 70.3962C321.217 70.1102 321.107 69.9562 320.799 69.9562H319.435C319.127 69.9562 318.929 70.1322 318.951 70.4622C319.193 72.5522 320.997 73.6302 323.241 73.6302C325.683 73.6302 327.575 72.4202 327.575 70.2642C327.575 66.0622 321.459 67.6462 321.459 65.4462ZM331.642 65.4462C331.642 64.6102 332.434 64.1922 333.424 64.1922C334.216 64.1922 334.942 64.5222 335.118 65.2922C335.228 65.5782 335.36 65.7542 335.646 65.7542H337.01C337.34 65.7542 337.538 65.5782 337.494 65.2262C337.252 63.1362 335.492 62.0582 333.424 62.0582C331.158 62.0582 329.266 63.2902 329.266 65.4462C329.266 69.6262 335.382 68.0642 335.382 70.2642C335.382 71.1002 334.59 71.4962 333.424 71.4962C332.478 71.4962 331.708 71.1882 331.51 70.3962C331.4 70.1102 331.29 69.9562 330.982 69.9562H329.618C329.31 69.9562 329.112 70.1322 329.134 70.4622C329.376 72.5522 331.18 73.6302 333.424 73.6302C335.866 73.6302 337.758 72.4202 337.758 70.2642C337.758 66.0622 331.642 67.6462 331.642 65.4462Z" fill="white"/>
<path d="M392.684 29.9442H389.274H383.334C383.026 29.9442 382.85 30.1202 382.85 30.4502V31.8802C382.85 32.1882 383.026 32.3642 383.334 32.3642H386.744V44.8602C386.744 45.1682 386.92 45.3442 387.25 45.3442H388.79C389.098 45.3442 389.274 45.1682 389.274 44.8602V32.3642H392.684C393.014 32.3642 393.19 32.1882 393.19 31.8802V30.4502C393.19 30.1202 393.014 29.9442 392.684 29.9442ZM398.827 34.1902C397.705 34.3002 396.737 34.8502 396.165 35.9942V34.8502C396.165 34.5202 395.989 34.3442 395.659 34.3442H394.273C393.965 34.3442 393.789 34.5202 393.789 34.8502V44.8602C393.789 45.1682 393.965 45.3442 394.273 45.3442H395.659C395.989 45.3442 396.165 45.1682 396.165 44.8602V39.6902C396.165 37.5342 397.529 36.7422 398.959 36.6982C399.201 36.6982 399.333 36.5222 399.333 36.2142V34.6522C399.333 34.3442 399.157 34.1462 398.827 34.1902ZM405.104 34.0582C402.838 34.0582 401.012 35.3342 400.748 37.4682C400.726 37.7982 400.924 37.9742 401.232 37.9742H402.596C402.904 37.9742 403.014 37.8202 403.124 37.5342C403.322 36.7202 404.114 36.2802 405.104 36.2802C406.27 36.2802 407.15 36.8962 407.15 38.4142V39.7782C406.468 39.1182 405.412 38.6562 404.026 38.6562C402.046 38.6562 400.242 39.8222 400.242 42.1542C400.242 44.4862 402.046 45.6302 404.026 45.6302C405.412 45.6302 406.468 45.1682 407.15 44.3102V44.8602C407.15 45.1682 407.326 45.3442 407.634 45.3442H408.976C409.306 45.3442 409.482 45.1682 409.482 44.8602V38.3042C409.482 35.5542 407.546 34.0582 405.104 34.0582ZM404.774 43.7822C403.3 43.7822 402.618 43.1002 402.618 42.1542C402.618 41.2082 403.3 40.5042 404.774 40.5042C406.204 40.5042 407.15 41.1422 407.15 42.1542C407.15 43.1002 406.204 43.7822 404.774 43.7822ZM426.419 34.3442H425.583H420.897V33.9042C420.897 32.2102 421.821 31.7262 423.493 31.7262C424.087 31.7262 424.725 31.7702 425.407 31.8362C425.737 31.8802 425.935 31.7042 425.935 31.3742V30.1862C425.935 29.8782 425.781 29.7022 425.495 29.6362C424.791 29.5042 424.153 29.4382 423.493 29.4382C420.193 29.4382 418.521 30.9342 418.521 33.9042V34.3442H417.443H414.847V34.1242C414.847 32.6282 415.573 31.9462 416.937 31.9242C417.267 31.9242 417.443 31.7702 417.443 31.4622V30.1642C417.443 29.8562 417.267 29.6362 416.959 29.6362C413.967 29.6142 412.471 31.3082 412.471 34.1242V34.3442H411.283C410.975 34.3442 410.799 34.5202 410.799 34.8502V36.1482C410.799 36.4562 410.975 36.6322 411.283 36.6322H412.471V44.8602C412.471 45.1682 412.647 45.3442 412.955 45.3442H414.341C414.671 45.3442 414.847 45.1682 414.847 44.8602V36.6322H416.849H418.521V44.8602C418.521 45.1682 418.697 45.3442 419.005 45.3442H420.391C420.721 45.3442 420.897 45.1682 420.897 44.8602V36.6322H424.549V44.8602C424.549 45.1682 424.725 45.3442 425.033 45.3442H426.419C426.749 45.3442 426.925 45.1682 426.925 44.8602V34.8502C426.925 34.5202 426.749 34.3442 426.419 34.3442ZM439.722 41.4942H438.204C437.918 41.4942 437.742 41.6262 437.61 41.8682C437.082 42.7482 436.07 43.2982 434.882 43.2982C432.946 43.2982 431.45 41.8242 431.45 39.8442C431.45 37.8642 432.946 36.3902 434.882 36.3902C436.07 36.3902 437.082 36.9402 437.61 37.8422C437.742 38.0842 437.94 38.1942 438.204 38.1942H439.722C440.074 38.1942 440.272 37.9742 440.14 37.6442C439.392 35.5102 437.324 34.0582 434.882 34.0582C431.538 34.0582 429.074 36.5882 429.074 39.8442C429.074 43.1222 431.538 45.6302 434.882 45.6302C437.324 45.6302 439.414 44.1782 440.14 42.0662C440.272 41.7142 440.074 41.4942 439.722 41.4942ZM396.169 73.6302C398.941 73.6302 401.339 72.0682 401.339 69.2522C401.339 66.1282 398.523 65.3142 396.257 64.4782C394.695 63.8842 393.485 63.3342 393.485 61.9922C393.485 60.8482 394.431 60.1222 395.839 60.1222C397.203 60.1222 398.149 60.7382 398.347 61.9702C398.391 62.2782 398.545 62.4322 398.853 62.4322H400.393C400.723 62.4322 400.899 62.2562 400.877 61.9262C400.635 59.0662 398.347 57.6582 395.839 57.6582C393.331 57.6582 390.955 59.1762 390.955 61.9922C390.955 65.1602 393.617 66.0182 395.861 66.8322C397.445 67.4042 398.809 67.9542 398.809 69.2522C398.809 70.3962 397.819 71.1662 396.169 71.1662C394.475 71.1662 393.375 70.4842 393.177 69.1862C393.133 68.8562 392.979 68.7022 392.671 68.7022H391.131C390.801 68.7022 390.625 68.8782 390.647 69.2082C390.889 72.1782 393.331 73.6302 396.169 73.6302ZM409.629 62.0582C407.891 62.0582 406.593 62.7842 405.757 63.9282V62.8502C405.757 62.5202 405.581 62.3442 405.273 62.3442H403.887C403.557 62.3442 403.381 62.5202 403.381 62.8502V77.2602C403.381 77.5682 403.557 77.7442 403.887 77.7442H405.273C405.581 77.7442 405.757 77.5682 405.757 77.2602V71.7822C406.593 72.9262 407.891 73.6302 409.629 73.6302C412.621 73.6302 415.085 71.1222 415.085 67.8442C415.085 64.5882 412.621 62.0582 409.629 62.0582ZM409.233 71.3642C407.253 71.3642 405.757 69.8902 405.757 67.8442C405.757 65.7982 407.253 64.3242 409.233 64.3242C411.213 64.3242 412.709 65.7982 412.709 67.8442C412.709 69.8902 411.213 71.3642 409.233 71.3642ZM417.745 73.3442H419.131C419.439 73.3442 419.615 73.1682 419.615 72.8602V58.0102C419.615 57.6802 419.439 57.5042 419.131 57.5042H417.745C417.415 57.5042 417.239 57.6802 417.239 58.0102V72.8602C417.239 73.1682 417.415 73.3442 417.745 73.3442ZM422.88 60.5842H424.266C424.574 60.5842 424.75 60.4082 424.75 60.1002V58.4502C424.75 58.1202 424.574 57.9442 424.266 57.9442H422.88C422.55 57.9442 422.374 58.1202 422.374 58.4502V60.1002C422.374 60.4082 422.55 60.5842 422.88 60.5842ZM422.88 73.3442H424.266C424.574 73.3442 424.75 73.1682 424.75 72.8602V62.8502C424.75 62.5202 424.574 62.3442 424.266 62.3442H422.88C422.55 62.3442 422.374 62.5202 422.374 62.8502V72.8602C422.374 73.1682 422.55 73.3442 422.88 73.3442ZM432.458 62.3442H430.94V59.3302C430.94 59.0002 430.764 58.8242 430.434 58.8242H429.048C428.74 58.8242 428.564 59.0002 428.564 59.3302V62.3442H427.024C426.694 62.3442 426.518 62.5202 426.518 62.8502V64.1482C426.518 64.4562 426.694 64.6322 427.024 64.6322H428.564V72.8602C428.564 73.1682 428.74 73.3442 429.048 73.3442H430.434C430.764 73.3442 430.94 73.1682 430.94 72.8602V64.6322H432.458C432.788 64.6322 432.964 64.4562 432.964 64.1482V62.8502C432.964 62.5202 432.788 62.3442 432.458 62.3442Z" fill="white"/>
<path d="M495.797 29.9442H492.387H486.447C486.139 29.9442 485.963 30.1202 485.963 30.4502V31.8802C485.963 32.1882 486.139 32.3642 486.447 32.3642H489.857V44.8602C489.857 45.1682 490.033 45.3442 490.363 45.3442H491.903C492.211 45.3442 492.387 45.1682 492.387 44.8602V32.3642H495.797C496.127 32.3642 496.303 32.1882 496.303 31.8802V30.4502C496.303 30.1202 496.127 29.9442 495.797 29.9442ZM501.94 34.1902C500.818 34.3002 499.85 34.8502 499.278 35.9942V34.8502C499.278 34.5202 499.102 34.3442 498.772 34.3442H497.386C497.078 34.3442 496.902 34.5202 496.902 34.8502V44.8602C496.902 45.1682 497.078 45.3442 497.386 45.3442H498.772C499.102 45.3442 499.278 45.1682 499.278 44.8602V39.6902C499.278 37.5342 500.642 36.7422 502.072 36.6982C502.314 36.6982 502.446 36.5222 502.446 36.2142V34.6522C502.446 34.3442 502.27 34.1462 501.94 34.1902ZM508.216 34.0582C505.95 34.0582 504.124 35.3342 503.86 37.4682C503.838 37.7982 504.036 37.9742 504.344 37.9742H505.708C506.016 37.9742 506.126 37.8202 506.236 37.5342C506.434 36.7202 507.226 36.2802 508.216 36.2802C509.382 36.2802 510.262 36.8962 510.262 38.4142V39.7782C509.58 39.1182 508.524 38.6562 507.138 38.6562C505.158 38.6562 503.354 39.8222 503.354 42.1542C503.354 44.4862 505.158 45.6302 507.138 45.6302C508.524 45.6302 509.58 45.1682 510.262 44.3102V44.8602C510.262 45.1682 510.438 45.3442 510.746 45.3442H512.088C512.418 45.3442 512.594 45.1682 512.594 44.8602V38.3042C512.594 35.5542 510.658 34.0582 508.216 34.0582ZM507.886 43.7822C506.412 43.7822 505.73 43.1002 505.73 42.1542C505.73 41.2082 506.412 40.5042 507.886 40.5042C509.316 40.5042 510.262 41.1422 510.262 42.1542C510.262 43.1002 509.316 43.7822 507.886 43.7822ZM529.532 34.3442H528.696H524.01V33.9042C524.01 32.2102 524.934 31.7262 526.606 31.7262C527.2 31.7262 527.838 31.7702 528.52 31.8362C528.85 31.8802 529.048 31.7042 529.048 31.3742V30.1862C529.048 29.8782 528.894 29.7022 528.608 29.6362C527.904 29.5042 527.266 29.4382 526.606 29.4382C523.306 29.4382 521.634 30.9342 521.634 33.9042V34.3442H520.556H517.96V34.1242C517.96 32.6282 518.686 31.9462 520.05 31.9242C520.38 31.9242 520.556 31.7702 520.556 31.4622V30.1642C520.556 29.8562 520.38 29.6362 520.072 29.6362C517.08 29.6142 515.584 31.3082 515.584 34.1242V34.3442H514.396C514.088 34.3442 513.912 34.5202 513.912 34.8502V36.1482C513.912 36.4562 514.088 36.6322 514.396 36.6322H515.584V44.8602C515.584 45.1682 515.76 45.3442 516.068 45.3442H517.454C517.784 45.3442 517.96 45.1682 517.96 44.8602V36.6322H519.962H521.634V44.8602C521.634 45.1682 521.81 45.3442 522.118 45.3442H523.504C523.834 45.3442 524.01 45.1682 524.01 44.8602V36.6322H527.662V44.8602C527.662 45.1682 527.838 45.3442 528.146 45.3442H529.532C529.862 45.3442 530.038 45.1682 530.038 44.8602V34.8502C530.038 34.5202 529.862 34.3442 529.532 34.3442ZM542.834 41.4942H541.316C541.03 41.4942 540.854 41.6262 540.722 41.8682C540.194 42.7482 539.182 43.2982 537.994 43.2982C536.058 43.2982 534.562 41.8242 534.562 39.8442C534.562 37.8642 536.058 36.3902 537.994 36.3902C539.182 36.3902 540.194 36.9402 540.722 37.8422C540.854 38.0842 541.052 38.1942 541.316 38.1942H542.834C543.186 38.1942 543.384 37.9742 543.252 37.6442C542.504 35.5102 540.436 34.0582 537.994 34.0582C534.65 34.0582 532.186 36.5882 532.186 39.8442C532.186 43.1222 534.65 45.6302 537.994 45.6302C540.436 45.6302 542.526 44.1782 543.252 42.0662C543.384 41.7142 543.186 41.4942 542.834 41.4942ZM495.457 73.6302C498.229 73.6302 500.627 72.0682 500.627 69.2522C500.627 66.1282 497.811 65.3142 495.545 64.4782C493.983 63.8842 492.773 63.3342 492.773 61.9922C492.773 60.8482 493.719 60.1222 495.127 60.1222C496.491 60.1222 497.437 60.7382 497.635 61.9702C497.679 62.2782 497.833 62.4322 498.141 62.4322H499.681C500.011 62.4322 500.187 62.2562 500.165 61.9262C499.923 59.0662 497.635 57.6582 495.127 57.6582C492.619 57.6582 490.243 59.1762 490.243 61.9922C490.243 65.1602 492.905 66.0182 495.149 66.8322C496.733 67.4042 498.097 67.9542 498.097 69.2522C498.097 70.3962 497.107 71.1662 495.457 71.1662C493.763 71.1662 492.663 70.4842 492.465 69.1862C492.421 68.8562 492.267 68.7022 491.959 68.7022H490.419C490.089 68.7022 489.913 68.8782 489.935 69.2082C490.177 72.1782 492.619 73.6302 495.457 73.6302ZM508.918 62.0582C507.18 62.0582 505.882 62.7842 505.046 63.9282V62.8502C505.046 62.5202 504.87 62.3442 504.562 62.3442H503.176C502.846 62.3442 502.67 62.5202 502.67 62.8502V77.2602C502.67 77.5682 502.846 77.7442 503.176 77.7442H504.562C504.87 77.7442 505.046 77.5682 505.046 77.2602V71.7822C505.882 72.9262 507.18 73.6302 508.918 73.6302C511.91 73.6302 514.374 71.1222 514.374 67.8442C514.374 64.5882 511.91 62.0582 508.918 62.0582ZM508.522 71.3642C506.542 71.3642 505.046 69.8902 505.046 67.8442C505.046 65.7982 506.542 64.3242 508.522 64.3242C510.502 64.3242 511.998 65.7982 511.998 67.8442C511.998 69.8902 510.502 71.3642 508.522 71.3642ZM521.697 62.0582C518.243 62.0582 515.933 64.5882 515.933 67.8442C515.933 71.1442 518.221 73.6302 521.741 73.6302C523.985 73.6302 525.789 72.5522 526.581 70.7702C526.735 70.4622 526.537 70.2422 526.163 70.2422H524.755C524.491 70.2422 524.337 70.3522 524.161 70.5502C523.677 71.1662 522.819 71.6062 521.763 71.6062C520.091 71.6062 518.749 70.6822 518.375 68.8782H524.733H526.581C526.889 68.8782 527.087 68.7242 527.109 68.4162C527.131 68.2402 527.131 68.0642 527.131 67.8662C527.131 64.6982 524.975 62.0582 521.697 62.0582ZM518.375 66.9202C518.705 65.2702 519.893 64.2362 521.675 64.2362C523.083 64.2362 524.425 65.0502 524.733 66.9202H518.375ZM539.214 69.4942H537.696C537.41 69.4942 537.234 69.6262 537.102 69.8682C536.574 70.7482 535.562 71.2982 534.374 71.2982C532.438 71.2982 530.942 69.8242 530.942 67.8442C530.942 65.8642 532.438 64.3902 534.374 64.3902C535.562 64.3902 536.574 64.9402 537.102 65.8422C537.234 66.0842 537.432 66.1942 537.696 66.1942H539.214C539.566 66.1942 539.764 65.9742 539.632 65.6442C538.884 63.5102 536.816 62.0582 534.374 62.0582C531.03 62.0582 528.566 64.5882 528.566 67.8442C528.566 71.1222 531.03 73.6302 534.374 73.6302C536.816 73.6302 538.906 72.1782 539.632 70.0662C539.764 69.7142 539.566 69.4942 539.214 69.4942Z" fill="white"/>
<path d="M613.779 36.354C615.869 36.354 617.365 34.792 617.365 32.834C617.365 30.854 615.847 29.314 613.779 29.314C611.711 29.314 610.193 30.898 610.193 32.834C610.193 34.792 611.711 36.354 613.779 36.354ZM611.821 45H613.075C613.317 45 613.515 44.89 613.669 44.692L623.855 30.194C624.075 29.864 623.921 29.6 623.525 29.6H622.271C622.007 29.6 621.809 29.71 621.677 29.93L611.513 44.406C611.271 44.736 611.425 45 611.821 45ZM613.779 34.44C612.855 34.44 612.217 33.736 612.217 32.834C612.217 31.954 612.855 31.25 613.779 31.25C614.703 31.25 615.341 31.954 615.341 32.834C615.341 33.714 614.703 34.44 613.779 34.44ZM621.589 45.264C623.657 45.264 625.175 43.702 625.175 41.744C625.175 39.808 623.657 38.224 621.589 38.224C619.521 38.224 618.003 39.808 618.003 41.744C618.003 43.702 619.521 45.264 621.589 45.264ZM621.589 43.35C620.665 43.35 620.027 42.646 620.027 41.744C620.027 40.864 620.665 40.16 621.589 40.16C622.513 40.16 623.151 40.864 623.151 41.744C623.151 42.624 622.513 43.35 621.589 43.35ZM589.807 57.6H586.683H584.637C584.329 57.6 584.153 57.776 584.153 58.106V72.516C584.153 72.824 584.329 73 584.637 73H586.177C586.507 73 586.683 72.824 586.683 72.516V67.5H589.807C592.601 67.5 594.823 65.278 594.823 62.55C594.823 59.822 592.601 57.6 589.807 57.6ZM589.807 65.124H586.683V59.976H589.807C591.193 59.976 592.293 61.12 592.293 62.55C592.293 63.98 591.193 65.124 589.807 65.124ZM600.448 61.714C598.182 61.714 596.356 62.99 596.092 65.124C596.07 65.454 596.268 65.63 596.576 65.63H597.94C598.248 65.63 598.358 65.476 598.468 65.19C598.666 64.376 599.458 63.936 600.448 63.936C601.614 63.936 602.494 64.552 602.494 66.07V67.434C601.812 66.774 600.756 66.312 599.37 66.312C597.39 66.312 595.586 67.478 595.586 69.81C595.586 72.142 597.39 73.286 599.37 73.286C600.756 73.286 601.812 72.824 602.494 71.966V72.516C602.494 72.824 602.67 73 602.978 73H604.32C604.65 73 604.826 72.824 604.826 72.516V65.96C604.826 63.21 602.89 61.714 600.448 61.714ZM600.118 71.438C598.644 71.438 597.962 70.756 597.962 69.81C597.962 68.864 598.644 68.16 600.118 68.16C601.548 68.16 602.494 68.798 602.494 69.81C602.494 70.756 601.548 71.438 600.118 71.438ZM609.334 65.102C609.334 64.266 610.126 63.848 611.116 63.848C611.908 63.848 612.634 64.178 612.81 64.948C612.92 65.234 613.052 65.41 613.338 65.41H614.702C615.032 65.41 615.23 65.234 615.186 64.882C614.944 62.792 613.184 61.714 611.116 61.714C608.85 61.714 606.958 62.946 606.958 65.102C606.958 69.282 613.074 67.72 613.074 69.92C613.074 70.756 612.282 71.152 611.116 71.152C610.17 71.152 609.4 70.844 609.202 70.052C609.092 69.766 608.982 69.612 608.674 69.612H607.31C607.002 69.612 606.804 69.788 606.826 70.118C607.068 72.208 608.872 73.286 611.116 73.286C613.558 73.286 615.45 72.076 615.45 69.92C615.45 65.718 609.334 67.302 609.334 65.102ZM619.517 65.102C619.517 64.266 620.309 63.848 621.299 63.848C622.091 63.848 622.817 64.178 622.993 64.948C623.103 65.234 623.235 65.41 623.521 65.41H624.885C625.215 65.41 625.413 65.234 625.369 64.882C625.127 62.792 623.367 61.714 621.299 61.714C619.033 61.714 617.141 62.946 617.141 65.102C617.141 69.282 623.257 67.72 623.257 69.92C623.257 70.756 622.465 71.152 621.299 71.152C620.353 71.152 619.583 70.844 619.385 70.052C619.275 69.766 619.165 69.612 618.857 69.612H617.493C617.185 69.612 616.987 69.788 617.009 70.118C617.251 72.208 619.055 73.286 621.299 73.286C623.741 73.286 625.633 72.076 625.633 69.92C625.633 65.718 619.517 67.302 619.517 65.102ZM632.825 61.714C629.371 61.714 627.061 64.244 627.061 67.5C627.061 70.8 629.349 73.286 632.869 73.286C635.113 73.286 636.917 72.208 637.709 70.426C637.863 70.118 637.665 69.898 637.291 69.898H635.883C635.619 69.898 635.465 70.008 635.289 70.206C634.805 70.822 633.947 71.262 632.891 71.262C631.219 71.262 629.877 70.338 629.503 68.534H635.861H637.709C638.017 68.534 638.215 68.38 638.237 68.072C638.259 67.896 638.259 67.72 638.259 67.522C638.259 64.354 636.103 61.714 632.825 61.714ZM629.503 66.576C629.833 64.926 631.021 63.892 632.803 63.892C634.211 63.892 635.553 64.706 635.861 66.576H629.503ZM650.892 57.6H649.506C649.198 57.6 649.022 57.776 649.022 58.106V63.584C648.186 62.44 646.888 61.714 645.15 61.714C642.158 61.714 639.694 64.244 639.694 67.5C639.694 70.778 642.158 73.286 645.15 73.286C646.888 73.286 648.186 72.582 649.022 71.438V72.516C649.022 72.824 649.198 73 649.506 73H650.892C651.222 73 651.398 72.824 651.398 72.516V58.106C651.398 57.776 651.222 57.6 650.892 57.6ZM645.546 71.02C643.566 71.02 642.07 69.546 642.07 67.5C642.07 65.454 643.566 63.98 645.546 63.98C647.526 63.98 649.022 65.454 649.022 67.5C649.022 69.546 647.526 71.02 645.546 71.02Z" fill="white"/>
<rect y="94.0961" width="682.197" height="100.817" fill="#EFEFEF"/>
<path d="M166.158 155.784L162.057 144.983H164.479L166.676 151.262C167.053 152.317 167.281 153.17 167.359 153.821H167.438C167.496 153.352 167.724 152.499 168.121 151.262L170.318 144.983H172.76L168.639 155.784H166.158ZM183.316 148.645C183.316 151.125 182.916 152.968 182.115 154.172C181.321 155.377 180.104 155.979 178.463 155.979C176.874 155.979 175.67 155.357 174.85 154.114C174.029 152.87 173.619 151.047 173.619 148.645C173.619 146.125 174.016 144.27 174.811 143.079C175.611 141.881 176.829 141.282 178.463 141.282C180.058 141.282 181.266 141.907 182.086 143.157C182.906 144.407 183.316 146.236 183.316 148.645ZM175.943 148.645C175.943 150.592 176.142 151.982 176.539 152.815C176.943 153.648 177.584 154.065 178.463 154.065C179.342 154.065 179.983 153.642 180.387 152.795C180.797 151.949 181.002 150.566 181.002 148.645C181.002 146.731 180.797 145.347 180.387 144.495C179.983 143.635 179.342 143.206 178.463 143.206C177.584 143.206 176.943 143.625 176.539 144.465C176.142 145.305 175.943 146.698 175.943 148.645ZM185.484 154.563C185.484 154.088 185.608 153.723 185.855 153.469C186.103 153.215 186.461 153.088 186.93 153.088C187.405 153.088 187.766 153.222 188.014 153.489C188.261 153.749 188.385 154.107 188.385 154.563C188.385 155.025 188.258 155.393 188.004 155.666C187.757 155.933 187.398 156.067 186.93 156.067C186.461 156.067 186.103 155.933 185.855 155.666C185.608 155.4 185.484 155.032 185.484 154.563ZM192.193 155.784L197.838 143.547H190.416V141.526H200.289V143.127L194.674 155.784H192.193Z" fill="black"/>
<path d="M606.472 163.177H604.177V153.958C604.177 152.858 604.203 151.985 604.255 151.341C604.105 151.497 603.92 151.67 603.698 151.859C603.483 152.047 602.754 152.646 601.511 153.655L600.358 152.2L604.558 148.9H606.472V163.177ZM620.837 156.038C620.837 158.519 620.437 160.361 619.636 161.566C618.841 162.77 617.624 163.372 615.983 163.372C614.395 163.372 613.19 162.75 612.37 161.507C611.55 160.263 611.14 158.441 611.14 156.038C611.14 153.519 611.537 151.663 612.331 150.472C613.132 149.274 614.349 148.675 615.983 148.675C617.578 148.675 618.786 149.3 619.606 150.55C620.427 151.8 620.837 153.629 620.837 156.038ZM613.464 156.038C613.464 157.985 613.662 159.375 614.06 160.208C614.463 161.041 615.104 161.458 615.983 161.458C616.862 161.458 617.504 161.035 617.907 160.189C618.317 159.342 618.522 157.959 618.522 156.038C618.522 154.124 618.317 152.741 617.907 151.888C617.504 151.028 616.862 150.599 615.983 150.599C615.104 150.599 614.463 151.019 614.06 151.859C613.662 152.698 613.464 154.092 613.464 156.038ZM632.263 156.038C632.263 158.519 631.862 160.361 631.062 161.566C630.267 162.77 629.05 163.372 627.409 163.372C625.821 163.372 624.616 162.75 623.796 161.507C622.976 160.263 622.565 158.441 622.565 156.038C622.565 153.519 622.963 151.663 623.757 150.472C624.558 149.274 625.775 148.675 627.409 148.675C629.004 148.675 630.212 149.3 631.032 150.55C631.853 151.8 632.263 153.629 632.263 156.038ZM624.89 156.038C624.89 157.985 625.088 159.375 625.485 160.208C625.889 161.041 626.53 161.458 627.409 161.458C628.288 161.458 628.929 161.035 629.333 160.189C629.743 159.342 629.948 157.959 629.948 156.038C629.948 154.124 629.743 152.741 629.333 151.888C628.929 151.028 628.288 150.599 627.409 150.599C626.53 150.599 625.889 151.019 625.485 151.859C625.088 152.698 624.89 154.092 624.89 156.038ZM635.856 153.177C635.856 154.147 635.951 154.87 636.14 155.345C636.328 155.82 636.638 156.058 637.067 156.058C637.927 156.058 638.356 155.097 638.356 153.177C638.356 151.256 637.927 150.296 637.067 150.296C636.638 150.296 636.328 150.534 636.14 151.009C635.951 151.484 635.856 152.207 635.856 153.177ZM640.251 153.157C640.251 154.655 639.981 155.781 639.44 156.536C638.907 157.285 638.116 157.659 637.067 157.659C636.078 157.659 635.31 157.272 634.763 156.497C634.222 155.716 633.952 154.603 633.952 153.157C633.952 150.182 634.991 148.694 637.067 148.694C638.09 148.694 638.874 149.082 639.421 149.857C639.974 150.625 640.251 151.725 640.251 153.157ZM645.153 158.88C645.153 159.85 645.248 160.576 645.437 161.058C645.632 161.54 645.944 161.78 646.374 161.78C647.227 161.78 647.653 160.814 647.653 158.88C647.653 156.972 647.227 156.019 646.374 156.019C645.944 156.019 645.632 156.253 645.437 156.722C645.248 157.191 645.153 157.91 645.153 158.88ZM649.548 158.88C649.548 160.377 649.278 161.5 648.737 162.249C648.197 162.998 647.409 163.372 646.374 163.372C645.384 163.372 644.616 162.988 644.069 162.22C643.522 161.445 643.249 160.332 643.249 158.88C643.249 155.905 644.291 154.417 646.374 154.417C647.377 154.417 648.155 154.801 648.708 155.569C649.268 156.338 649.548 157.441 649.548 158.88ZM646.647 148.9L638.728 163.177H636.833L644.753 148.9H646.647Z" fill="black"/>
<rect y="295.731" width="682.197" height="100.817" fill="#EFEFEF"/>
<path d="M165.748 356.418L162.057 346.698H164.236L166.214 352.349C166.554 353.298 166.759 354.066 166.829 354.652H166.899C166.952 354.23 167.157 353.462 167.515 352.349L169.492 346.698H171.689L167.98 356.418H165.748ZM178.545 356.418H176.479V348.121C176.479 347.131 176.503 346.346 176.55 345.766C176.415 345.907 176.248 346.062 176.049 346.232C175.855 346.402 175.199 346.941 174.08 347.849L173.043 346.539L176.822 343.569H178.545V356.418ZM183.142 355.32C183.142 354.892 183.253 354.564 183.476 354.335C183.698 354.107 184.021 353.992 184.442 353.992C184.87 353.992 185.195 354.113 185.418 354.353C185.641 354.587 185.752 354.909 185.752 355.32C185.752 355.736 185.638 356.067 185.409 356.313C185.187 356.553 184.864 356.673 184.442 356.673C184.021 356.673 183.698 356.553 183.476 356.313C183.253 356.073 183.142 355.742 183.142 355.32ZM196.431 349.993C196.431 352.226 196.07 353.884 195.35 354.968C194.635 356.052 193.539 356.594 192.062 356.594C190.633 356.594 189.549 356.034 188.811 354.915C188.072 353.796 187.703 352.156 187.703 349.993C187.703 347.726 188.061 346.056 188.775 344.984C189.496 343.906 190.592 343.367 192.062 343.367C193.498 343.367 194.585 343.929 195.323 345.054C196.062 346.179 196.431 347.826 196.431 349.993ZM189.795 349.993C189.795 351.745 189.974 352.996 190.331 353.746C190.694 354.496 191.271 354.871 192.062 354.871C192.854 354.871 193.431 354.491 193.794 353.729C194.163 352.967 194.348 351.722 194.348 349.993C194.348 348.271 194.163 347.026 193.794 346.258C193.431 345.485 192.854 345.098 192.062 345.098C191.271 345.098 190.694 345.476 190.331 346.232C189.974 346.988 189.795 348.242 189.795 349.993Z" fill="black"/>
<path d="M280.944 151.233C280.972 140.136 290.074 131.062 301.171 131.062C312.239 131.091 321.369 140.221 321.341 151.317C321.313 162.385 312.155 171.515 301.087 171.487C290.018 171.459 280.944 162.357 280.944 151.233ZM301.171 165.897C309.261 165.897 315.779 159.323 315.779 151.233C315.779 143.17 309.177 136.653 301.087 136.681C293.08 136.709 286.591 143.226 286.563 151.261C286.535 159.38 293.08 165.897 301.171 165.897Z" fill="#00B39F"/>
<path d="M298.586 152.469C297.462 151.205 296.647 150.165 295.72 149.266C294.456 148.03 292.743 148.058 291.591 149.238C290.411 150.39 290.383 152.132 291.591 153.368C293.22 155.053 294.878 156.711 296.563 158.34C297.883 159.604 299.485 159.604 300.805 158.312C304.092 155.053 307.379 151.795 310.609 148.48C311.059 148.002 311.424 147.3 311.536 146.682C311.761 145.333 311.115 144.294 309.907 143.704C308.699 143.114 307.519 143.311 306.564 144.294C304.008 146.85 301.479 149.491 298.586 152.469Z" fill="#00D3A9"/>
<path d="M248.683 252.05C248.711 240.954 257.813 231.88 268.909 231.88C279.977 231.908 289.107 241.038 289.079 252.134C289.051 263.203 279.893 272.333 268.825 272.305C257.756 272.277 248.683 263.175 248.683 252.05ZM268.909 266.714C277 266.714 283.517 260.141 283.517 252.05C283.517 243.988 276.915 237.47 268.825 237.498C260.819 237.526 254.329 244.044 254.301 252.078C254.273 260.197 260.819 266.714 268.909 266.714Z" fill="#00B39F"/>
<path d="M266.324 253.286C265.2 252.022 264.386 250.983 263.459 250.084C262.194 248.848 260.481 248.876 259.329 250.056C258.149 251.207 258.121 252.949 259.329 254.185C260.958 255.871 262.616 257.528 264.301 259.157C265.622 260.422 267.223 260.422 268.543 259.129C271.83 255.871 275.117 252.612 278.348 249.297C278.797 248.819 279.162 248.117 279.275 247.499C279.499 246.151 278.853 245.111 277.645 244.521C276.437 243.931 275.257 244.128 274.302 245.111C271.746 247.668 269.218 250.308 266.324 253.286Z" fill="#00D3A9"/>
<path d="M280.944 352.867C280.972 341.771 290.074 332.697 301.171 332.697C312.239 332.725 321.369 341.855 321.341 352.952C321.313 364.02 312.155 373.15 301.087 373.122C290.018 373.094 280.944 363.992 280.944 352.867ZM301.171 367.532C309.261 367.532 315.779 360.958 315.779 352.867C315.779 344.805 309.177 338.288 301.087 338.316C293.08 338.344 286.591 344.861 286.563 352.896C286.535 361.014 293.08 367.532 301.171 367.532Z" fill="#00B39F"/>
<path d="M298.586 354.103C297.462 352.839 296.647 351.8 295.72 350.901C294.456 349.665 292.743 349.693 291.591 350.873C290.411 352.025 290.383 353.766 291.591 355.002C293.22 356.688 294.878 358.345 296.563 359.975C297.883 361.239 299.485 361.239 300.805 359.947C304.092 356.688 307.379 353.429 310.609 350.114C311.059 349.637 311.424 348.934 311.536 348.316C311.761 346.968 311.115 345.929 309.907 345.339C308.699 344.749 307.519 344.945 306.564 345.929C304.008 348.485 301.479 351.126 298.586 354.103Z" fill="#00D3A9"/>
<path d="M390.499 348.835C390.527 337.738 399.629 328.664 410.726 328.664C421.794 328.693 430.924 337.823 430.896 348.919C430.868 359.987 421.71 369.117 410.641 369.089C399.573 369.061 390.499 359.959 390.499 348.835ZM410.726 363.499C418.816 363.499 425.334 356.925 425.334 348.835C425.334 340.772 418.732 334.255 410.641 334.283C402.635 334.311 396.146 340.828 396.117 348.863C396.089 356.982 402.635 363.499 410.726 363.499Z" fill="#00B39F"/>
<path d="M408.14 350.071C407.017 348.807 406.202 347.767 405.275 346.868C404.011 345.632 402.297 345.66 401.145 346.84C399.966 347.992 399.938 349.734 401.145 350.97C402.775 352.655 404.432 354.313 406.118 355.942C407.438 357.206 409.039 357.206 410.36 355.914C413.647 352.655 416.933 349.397 420.164 346.082C420.613 345.604 420.979 344.902 421.091 344.284C421.316 342.935 420.67 341.896 419.462 341.306C418.254 340.716 417.074 340.913 416.119 341.896C413.562 344.452 411.034 347.093 408.14 350.071Z" fill="#00D3A9"/>
<path d="M346.14 254.066C346.168 242.97 355.27 233.896 366.366 233.896C377.435 233.924 386.565 243.054 386.536 254.151C386.508 265.219 377.35 274.349 366.282 274.321C355.213 274.293 346.14 265.191 346.14 254.066ZM366.366 268.731C374.457 268.731 380.974 262.157 380.974 254.066C380.974 246.004 374.372 239.486 366.282 239.515C358.276 239.543 351.786 246.06 351.758 254.095C351.73 262.213 358.276 268.731 366.366 268.731Z" fill="#00B39F"/>
<path d="M363.781 255.302C362.657 254.038 361.843 252.999 360.916 252.1C359.652 250.864 357.938 250.892 356.786 252.072C355.606 253.224 355.578 254.965 356.786 256.201C358.415 257.887 360.073 259.544 361.758 261.174C363.079 262.438 364.68 262.438 366 261.146C369.287 257.887 372.574 254.628 375.805 251.313C376.254 250.836 376.619 250.133 376.732 249.515C376.956 248.167 376.31 247.128 375.102 246.538C373.894 245.948 372.714 246.144 371.759 247.128C369.203 249.684 366.675 252.325 363.781 255.302Z" fill="#00D3A9"/>
<path d="M390.499 149.216C390.527 138.12 399.629 129.046 410.726 129.046C421.794 129.074 430.924 138.204 430.896 149.301C430.868 160.369 421.71 169.499 410.641 169.471C399.573 169.443 390.499 160.341 390.499 149.216ZM410.726 163.881C418.816 163.881 425.334 157.307 425.334 149.216C425.334 141.154 418.732 134.637 410.641 134.665C402.635 134.693 396.146 141.21 396.117 149.245C396.089 157.363 402.635 163.881 410.726 163.881Z" fill="#00B39F"/>
<path d="M408.14 150.452C407.017 149.188 406.202 148.149 405.275 147.25C404.011 146.014 402.297 146.042 401.145 147.222C399.966 148.374 399.938 150.115 401.145 151.351C402.775 153.037 404.432 154.694 406.118 156.324C407.438 157.588 409.039 157.588 410.36 156.296C413.647 153.037 416.933 149.778 420.164 146.463C420.613 145.986 420.979 145.283 421.091 144.665C421.316 143.317 420.67 142.278 419.462 141.688C418.254 141.098 417.074 141.294 416.119 142.278C413.562 144.834 411.034 147.475 408.14 150.452Z" fill="#00D3A9"/>
<path d="M493.333 151.233C493.361 140.136 502.463 131.062 513.559 131.062C524.628 131.091 533.758 140.221 533.73 151.317C533.702 162.385 524.544 171.515 513.475 171.487C502.407 171.459 493.333 162.357 493.333 151.233ZM513.559 165.897C521.65 165.897 528.167 159.323 528.167 151.233C528.167 143.17 521.566 136.653 513.475 136.681C505.469 136.709 498.98 143.226 498.951 151.261C498.923 159.38 505.469 165.897 513.559 165.897Z" fill="#00B39F"/>
<path d="M510.974 152.469C509.851 151.205 509.036 150.165 508.109 149.266C506.845 148.03 505.131 148.058 503.979 149.238C502.8 150.39 502.771 152.132 503.979 153.368C505.609 155.053 507.266 156.711 508.952 158.34C510.272 159.604 511.873 159.604 513.194 158.312C516.481 155.053 519.767 151.795 522.998 148.48C523.447 148.002 523.813 147.3 523.925 146.682C524.15 145.333 523.504 144.294 522.296 143.704C521.088 143.114 519.908 143.311 518.953 144.294C516.396 146.85 513.868 149.491 510.974 152.469Z" fill="#00D3A9"/>
<rect y="396.548" width="682.197" height="100.817" fill="white"/>
<path d="M165.748 457.236L162.057 447.515H164.236L166.214 453.166C166.554 454.115 166.759 454.883 166.829 455.469H166.899C166.952 455.047 167.157 454.28 167.515 453.166L169.492 447.515H171.689L167.98 457.236H165.748ZM181.19 450.811C181.19 453.043 180.83 454.701 180.109 455.785C179.395 456.869 178.299 457.411 176.822 457.411C175.393 457.411 174.309 456.852 173.57 455.733C172.832 454.614 172.463 452.973 172.463 450.811C172.463 448.543 172.82 446.873 173.535 445.801C174.256 444.723 175.352 444.184 176.822 444.184C178.258 444.184 179.345 444.746 180.083 445.871C180.821 446.996 181.19 448.643 181.19 450.811ZM174.555 450.811C174.555 452.563 174.733 453.814 175.091 454.564C175.454 455.314 176.031 455.689 176.822 455.689C177.613 455.689 178.19 455.308 178.554 454.546C178.923 453.784 179.107 452.539 179.107 450.811C179.107 449.088 178.923 447.843 178.554 447.075C178.19 446.302 177.613 445.915 176.822 445.915C176.031 445.915 175.454 446.293 175.091 447.049C174.733 447.805 174.555 449.059 174.555 450.811ZM183.142 456.137C183.142 455.709 183.253 455.381 183.476 455.153C183.698 454.924 184.021 454.81 184.442 454.81C184.87 454.81 185.195 454.93 185.418 455.17C185.641 455.405 185.752 455.727 185.752 456.137C185.752 456.553 185.638 456.884 185.409 457.13C185.187 457.37 184.864 457.49 184.442 457.49C184.021 457.49 183.698 457.37 183.476 457.13C183.253 456.89 183.142 456.559 183.142 456.137ZM196.431 450.811C196.431 453.043 196.07 454.701 195.35 455.785C194.635 456.869 193.539 457.411 192.062 457.411C190.633 457.411 189.549 456.852 188.811 455.733C188.072 454.614 187.703 452.973 187.703 450.811C187.703 448.543 188.061 446.873 188.775 445.801C189.496 444.723 190.592 444.184 192.062 444.184C193.498 444.184 194.585 444.746 195.323 445.871C196.062 446.996 196.431 448.643 196.431 450.811ZM189.795 450.811C189.795 452.563 189.974 453.814 190.331 454.564C190.694 455.314 191.271 455.689 192.062 455.689C192.854 455.689 193.431 455.308 193.794 454.546C194.163 453.784 194.348 452.539 194.348 450.811C194.348 449.088 194.163 447.843 193.794 447.075C193.431 446.302 192.854 445.915 192.062 445.915C191.271 445.915 190.694 446.293 190.331 447.049C189.974 447.805 189.795 449.059 189.795 450.811Z" fill="black"/>
<rect y="497.365" width="682.197" height="100.817" fill="#EFEFEF"/>
<path d="M165.748 558.053L162.057 548.332H164.236L166.214 553.984C166.554 554.933 166.759 555.7 166.829 556.286H166.899C166.952 555.864 167.157 555.097 167.515 553.984L169.492 548.332H171.689L167.98 558.053H165.748ZM181.19 551.628C181.19 553.861 180.83 555.519 180.109 556.603C179.395 557.687 178.299 558.229 176.822 558.229C175.393 558.229 174.309 557.669 173.57 556.55C172.832 555.431 172.463 553.79 172.463 551.628C172.463 549.361 172.82 547.691 173.535 546.618C174.256 545.54 175.352 545.001 176.822 545.001C178.258 545.001 179.345 545.564 180.083 546.689C180.821 547.814 181.19 549.46 181.19 551.628ZM174.555 551.628C174.555 553.38 174.733 554.631 175.091 555.381C175.454 556.131 176.031 556.506 176.822 556.506C177.613 556.506 178.19 556.125 178.554 555.363C178.923 554.602 179.107 553.357 179.107 551.628C179.107 549.905 178.923 548.66 178.554 547.893C178.19 547.119 177.613 546.733 176.822 546.733C176.031 546.733 175.454 547.111 175.091 547.866C174.733 548.622 174.555 549.876 174.555 551.628ZM183.142 556.954C183.142 556.527 183.253 556.198 183.476 555.97C183.698 555.741 184.021 555.627 184.442 555.627C184.87 555.627 185.195 555.747 185.418 555.987C185.641 556.222 185.752 556.544 185.752 556.954C185.752 557.37 185.638 557.701 185.409 557.947C185.187 558.188 184.864 558.308 184.442 558.308C184.021 558.308 183.698 558.188 183.476 557.947C183.253 557.707 183.142 557.376 183.142 556.954ZM196.431 551.628C196.431 553.861 196.07 555.519 195.35 556.603C194.635 557.687 193.539 558.229 192.062 558.229C190.633 558.229 189.549 557.669 188.811 556.55C188.072 555.431 187.703 553.79 187.703 551.628C187.703 549.361 188.061 547.691 188.775 546.618C189.496 545.54 190.592 545.001 192.062 545.001C193.498 545.001 194.585 545.564 195.323 546.689C196.062 547.814 196.431 549.46 196.431 551.628ZM189.795 551.628C189.795 553.38 189.974 554.631 190.331 555.381C190.694 556.131 191.271 556.506 192.062 556.506C192.854 556.506 193.431 556.125 193.794 555.363C194.163 554.602 194.348 553.357 194.348 551.628C194.348 549.905 194.163 548.66 193.794 547.893C193.431 547.119 192.854 546.733 192.062 546.733C191.271 546.733 190.694 547.111 190.331 547.866C189.974 548.622 189.795 549.876 189.795 551.628Z" fill="black"/>
<path d="M0 598.183H682.197V679C682.197 690.046 673.243 699 662.197 699H20C8.95429 699 0 690.046 0 679V598.183Z" fill="white"/>
<path d="M165.748 658.87L162.057 649.149H164.236L166.214 654.801C166.554 655.75 166.759 656.518 166.829 657.104H166.899C166.952 656.682 167.157 655.914 167.515 654.801L169.492 649.149H171.689L167.98 658.87H165.748ZM181.19 652.445C181.19 654.678 180.83 656.336 180.109 657.42C179.395 658.504 178.299 659.046 176.822 659.046C175.393 659.046 174.309 658.486 173.57 657.367C172.832 656.248 172.463 654.607 172.463 652.445C172.463 650.178 172.82 648.508 173.535 647.436C174.256 646.357 175.352 645.818 176.822 645.818C178.258 645.818 179.345 646.381 180.083 647.506C180.821 648.631 181.19 650.277 181.19 652.445ZM174.555 652.445C174.555 654.197 174.733 655.448 175.091 656.198C175.454 656.948 176.031 657.323 176.822 657.323C177.613 657.323 178.19 656.942 178.554 656.181C178.923 655.419 179.107 654.174 179.107 652.445C179.107 650.723 178.923 649.478 178.554 648.71C178.19 647.937 177.613 647.55 176.822 647.55C176.031 647.55 175.454 647.928 175.091 648.684C174.733 649.44 174.555 650.693 174.555 652.445ZM183.142 657.772C183.142 657.344 183.253 657.016 183.476 656.787C183.698 656.559 184.021 656.444 184.442 656.444C184.87 656.444 185.195 656.565 185.418 656.805C185.641 657.039 185.752 657.361 185.752 657.772C185.752 658.188 185.638 658.519 185.409 658.765C185.187 659.005 184.864 659.125 184.442 659.125C184.021 659.125 183.698 659.005 183.476 658.765C183.253 658.524 183.142 658.193 183.142 657.772ZM196.431 652.445C196.431 654.678 196.07 656.336 195.35 657.42C194.635 658.504 193.539 659.046 192.062 659.046C190.633 659.046 189.549 658.486 188.811 657.367C188.072 656.248 187.703 654.607 187.703 652.445C187.703 650.178 188.061 648.508 188.775 647.436C189.496 646.357 190.592 645.818 192.062 645.818C193.498 645.818 194.585 646.381 195.323 647.506C196.062 648.631 196.431 650.277 196.431 652.445ZM189.795 652.445C189.795 654.197 189.974 655.448 190.331 656.198C190.694 656.948 191.271 657.323 192.062 657.323C192.854 657.323 193.431 656.942 193.794 656.181C194.163 655.419 194.348 654.174 194.348 652.445C194.348 650.723 194.163 649.478 193.794 648.71C193.431 647.937 192.854 647.55 192.062 647.55C191.271 647.55 190.694 647.928 190.331 648.684C189.974 649.44 189.795 650.693 189.795 652.445Z" fill="black"/>
<rect y="194.913" width="682.197" height="100.817" fill="white"/>
<path d="M165.748 255.601L162.057 245.88H164.236L166.214 251.532C166.554 252.481 166.759 253.248 166.829 253.834H166.899C166.952 253.412 167.157 252.645 167.515 251.532L169.492 245.88H171.689L167.98 255.601H165.748ZM181.19 255.601H172.48V254.036L175.794 250.705C176.772 249.703 177.42 248.995 177.736 248.578C178.059 248.157 178.293 247.761 178.439 247.392C178.586 247.023 178.659 246.627 178.659 246.205C178.659 245.625 178.483 245.168 178.132 244.834C177.786 244.5 177.306 244.333 176.69 244.333C176.198 244.333 175.721 244.424 175.258 244.606C174.801 244.787 174.271 245.116 173.667 245.59L172.551 244.228C173.266 243.624 173.96 243.197 174.634 242.945C175.308 242.693 176.025 242.567 176.787 242.567C177.982 242.567 178.94 242.88 179.661 243.507C180.382 244.128 180.742 244.966 180.742 246.021C180.742 246.601 180.637 247.152 180.426 247.673C180.221 248.195 179.901 248.734 179.468 249.29C179.04 249.841 178.325 250.588 177.323 251.532L175.091 253.694V253.782H181.19V255.601ZM183.142 254.502C183.142 254.075 183.253 253.746 183.476 253.518C183.698 253.289 184.021 253.175 184.442 253.175C184.87 253.175 185.195 253.295 185.418 253.536C185.641 253.77 185.752 254.092 185.752 254.502C185.752 254.918 185.638 255.249 185.409 255.495C185.187 255.736 184.864 255.856 184.442 255.856C184.021 255.856 183.698 255.736 183.476 255.495C183.253 255.255 183.142 254.924 183.142 254.502ZM196.413 248.236C196.413 250.767 195.903 252.657 194.884 253.905C193.864 255.153 192.329 255.777 190.278 255.777C189.499 255.777 188.939 255.73 188.6 255.636V253.905C189.121 254.051 189.646 254.124 190.173 254.124C191.567 254.124 192.607 253.749 193.293 252.999C193.979 252.249 194.354 251.072 194.418 249.466H194.312C193.967 249.994 193.548 250.374 193.056 250.609C192.569 250.843 191.998 250.96 191.342 250.96C190.205 250.96 189.312 250.606 188.661 249.897C188.011 249.188 187.686 248.215 187.686 246.979C187.686 245.637 188.061 244.571 188.811 243.78C189.566 242.983 190.595 242.584 191.896 242.584C192.81 242.584 193.606 242.807 194.286 243.252C194.966 243.698 195.49 244.345 195.859 245.195C196.229 246.038 196.413 247.052 196.413 248.236ZM191.931 244.298C191.216 244.298 190.668 244.533 190.287 245.001C189.906 245.464 189.716 246.118 189.716 246.961C189.716 247.694 189.892 248.271 190.243 248.693C190.601 249.109 191.14 249.317 191.86 249.317C192.558 249.317 193.144 249.109 193.618 248.693C194.093 248.277 194.33 247.79 194.33 247.234C194.33 246.712 194.228 246.226 194.022 245.775C193.823 245.318 193.542 244.957 193.179 244.694C192.815 244.43 192.399 244.298 191.931 244.298Z" fill="black"/>
<path d="M280.944 252.05C280.972 240.954 290.074 231.88 301.171 231.88C312.239 231.908 321.369 241.038 321.341 252.134C321.313 263.203 312.155 272.333 301.087 272.305C290.018 272.277 280.944 263.175 280.944 252.05ZM301.171 266.714C309.261 266.714 315.779 260.141 315.779 252.05C315.779 243.988 309.177 237.47 301.087 237.498C293.08 237.526 286.591 244.044 286.563 252.078C286.535 260.197 293.08 266.714 301.171 266.714Z" fill="#00B39F"/>
<path d="M298.586 253.286C297.462 252.022 296.647 250.983 295.72 250.084C294.456 248.848 292.743 248.876 291.591 250.056C290.411 251.207 290.383 252.949 291.591 254.185C293.22 255.871 294.878 257.528 296.563 259.157C297.883 260.422 299.485 260.422 300.805 259.129C304.092 255.871 307.379 252.612 310.609 249.297C311.059 248.819 311.424 248.117 311.536 247.499C311.761 246.151 311.115 245.111 309.907 244.521C308.699 243.931 307.519 244.128 306.564 245.111C304.008 247.668 301.479 250.308 298.586 253.286Z" fill="#00D3A9"/>
<path d="M606.115 354.916C606.115 349.33 608.391 346.537 612.941 346.537C613.658 346.537 614.263 346.592 614.758 346.703V348.617C614.263 348.474 613.69 348.402 613.039 348.402C611.509 348.402 610.36 348.812 609.592 349.633C608.824 350.453 608.407 351.768 608.342 353.578H608.459C608.765 353.051 609.195 352.644 609.748 352.357C610.301 352.064 610.952 351.918 611.701 351.918C612.997 351.918 614.006 352.315 614.729 353.109C615.451 353.904 615.812 354.981 615.812 356.342C615.812 357.839 615.393 359.024 614.553 359.896C613.719 360.762 612.58 361.195 611.135 361.195C610.113 361.195 609.224 360.951 608.469 360.463C607.714 359.968 607.131 359.252 606.721 358.314C606.317 357.37 606.115 356.238 606.115 354.916ZM611.096 359.301C611.883 359.301 612.489 359.047 612.912 358.539C613.342 358.031 613.557 357.305 613.557 356.361C613.557 355.541 613.355 354.896 612.951 354.428C612.554 353.959 611.955 353.725 611.154 353.725C610.66 353.725 610.204 353.832 609.787 354.047C609.37 354.255 609.042 354.545 608.801 354.916C608.56 355.281 608.439 355.655 608.439 356.039C608.439 356.957 608.687 357.732 609.182 358.363C609.683 358.988 610.321 359.301 611.096 359.301ZM627.18 353.861C627.18 356.342 626.779 358.184 625.979 359.389C625.184 360.593 623.967 361.195 622.326 361.195C620.738 361.195 619.533 360.574 618.713 359.33C617.893 358.087 617.482 356.264 617.482 353.861C617.482 351.342 617.88 349.486 618.674 348.295C619.475 347.097 620.692 346.498 622.326 346.498C623.921 346.498 625.129 347.123 625.949 348.373C626.77 349.623 627.18 351.452 627.18 353.861ZM619.807 353.861C619.807 355.808 620.005 357.198 620.402 358.031C620.806 358.865 621.447 359.281 622.326 359.281C623.205 359.281 623.846 358.858 624.25 358.012C624.66 357.165 624.865 355.782 624.865 353.861C624.865 351.947 624.66 350.564 624.25 349.711C623.846 348.852 623.205 348.422 622.326 348.422C621.447 348.422 620.806 348.842 620.402 349.682C620.005 350.521 619.807 351.915 619.807 353.861ZM630.773 351C630.773 351.97 630.868 352.693 631.057 353.168C631.245 353.643 631.555 353.881 631.984 353.881C632.844 353.881 633.273 352.921 633.273 351C633.273 349.079 632.844 348.119 631.984 348.119C631.555 348.119 631.245 348.357 631.057 348.832C630.868 349.307 630.773 350.03 630.773 351ZM635.168 350.98C635.168 352.478 634.898 353.604 634.357 354.359C633.824 355.108 633.033 355.482 631.984 355.482C630.995 355.482 630.227 355.095 629.68 354.32C629.139 353.539 628.869 352.426 628.869 350.98C628.869 348.005 629.908 346.518 631.984 346.518C633.007 346.518 633.791 346.905 634.338 347.68C634.891 348.448 635.168 349.548 635.168 350.98ZM640.07 356.703C640.07 357.673 640.165 358.399 640.354 358.881C640.549 359.363 640.861 359.604 641.291 359.604C642.144 359.604 642.57 358.637 642.57 356.703C642.57 354.796 642.144 353.842 641.291 353.842C640.861 353.842 640.549 354.076 640.354 354.545C640.165 355.014 640.07 355.733 640.07 356.703ZM644.465 356.703C644.465 358.201 644.195 359.324 643.654 360.072C643.114 360.821 642.326 361.195 641.291 361.195C640.301 361.195 639.533 360.811 638.986 360.043C638.439 359.268 638.166 358.155 638.166 356.703C638.166 353.728 639.208 352.24 641.291 352.24C642.294 352.24 643.072 352.624 643.625 353.393C644.185 354.161 644.465 355.264 644.465 356.703ZM641.564 346.723L633.645 361H631.75L639.67 346.723H641.564Z" fill="black"/>
<path d="M607.697 256L613.342 243.764H605.92V241.742H615.793V243.344L610.178 256H607.697ZM627.18 248.861C627.18 251.342 626.779 253.184 625.979 254.389C625.184 255.593 623.967 256.195 622.326 256.195C620.738 256.195 619.533 255.574 618.713 254.33C617.893 253.087 617.482 251.264 617.482 248.861C617.482 246.342 617.88 244.486 618.674 243.295C619.475 242.097 620.692 241.498 622.326 241.498C623.921 241.498 625.129 242.123 625.949 243.373C626.77 244.623 627.18 246.452 627.18 248.861ZM619.807 248.861C619.807 250.808 620.005 252.198 620.402 253.031C620.806 253.865 621.447 254.281 622.326 254.281C623.205 254.281 623.846 253.858 624.25 253.012C624.66 252.165 624.865 250.782 624.865 248.861C624.865 246.947 624.66 245.564 624.25 244.711C623.846 243.852 623.205 243.422 622.326 243.422C621.447 243.422 620.806 243.842 620.402 244.682C620.005 245.521 619.807 246.915 619.807 248.861ZM630.773 246C630.773 246.97 630.868 247.693 631.057 248.168C631.245 248.643 631.555 248.881 631.984 248.881C632.844 248.881 633.273 247.921 633.273 246C633.273 244.079 632.844 243.119 631.984 243.119C631.555 243.119 631.245 243.357 631.057 243.832C630.868 244.307 630.773 245.03 630.773 246ZM635.168 245.98C635.168 247.478 634.898 248.604 634.357 249.359C633.824 250.108 633.033 250.482 631.984 250.482C630.995 250.482 630.227 250.095 629.68 249.32C629.139 248.539 628.869 247.426 628.869 245.98C628.869 243.005 629.908 241.518 631.984 241.518C633.007 241.518 633.791 241.905 634.338 242.68C634.891 243.448 635.168 244.548 635.168 245.98ZM640.07 251.703C640.07 252.673 640.165 253.399 640.354 253.881C640.549 254.363 640.861 254.604 641.291 254.604C642.144 254.604 642.57 253.637 642.57 251.703C642.57 249.796 642.144 248.842 641.291 248.842C640.861 248.842 640.549 249.076 640.354 249.545C640.165 250.014 640.07 250.733 640.07 251.703ZM644.465 251.703C644.465 253.201 644.195 254.324 643.654 255.072C643.114 255.821 642.326 256.195 641.291 256.195C640.301 256.195 639.533 255.811 638.986 255.043C638.439 254.268 638.166 253.155 638.166 251.703C638.166 248.728 639.208 247.24 641.291 247.24C642.294 247.24 643.072 247.624 643.625 248.393C644.185 249.161 644.465 250.264 644.465 251.703ZM641.564 241.723L633.645 256H631.75L639.67 241.723H641.564Z" fill="black"/>
<path d="M390.499 248.017C390.527 236.921 399.629 227.847 410.726 227.847C421.794 227.875 430.924 237.005 430.896 248.102C430.868 259.17 421.71 268.3 410.641 268.272C399.573 268.244 390.499 259.142 390.499 248.017ZM410.726 262.682C418.816 262.682 425.334 256.108 425.334 248.017C425.334 239.955 418.732 233.437 410.641 233.466C402.635 233.494 396.146 240.011 396.117 248.045C396.089 256.164 402.635 262.682 410.726 262.682Z" fill="#00B39F"/>
<path d="M408.14 249.253C407.017 247.989 406.202 246.95 405.275 246.051C404.011 244.815 402.297 244.843 401.145 246.023C399.966 247.175 399.938 248.916 401.145 250.152C402.775 251.838 404.432 253.495 406.118 255.125C407.438 256.389 409.039 256.389 410.36 255.097C413.647 251.838 416.933 248.579 420.164 245.264C420.613 244.787 420.979 244.084 421.091 243.466C421.316 242.118 420.67 241.079 419.462 240.489C418.254 239.899 417.074 240.095 416.119 241.079C413.562 243.635 411.034 246.276 408.14 249.253Z" fill="#00D3A9"/>
<path d="M513.531 332.697C524.656 332.669 533.758 341.743 533.758 352.839C533.786 363.936 524.712 373.01 513.559 373.038C502.407 373.038 493.333 364.02 493.333 352.896C493.361 341.743 502.407 332.697 513.531 332.697ZM513.616 367.447C521.706 367.419 528.224 360.874 528.196 352.783C528.167 344.777 521.622 338.288 513.616 338.231C505.497 338.203 498.951 344.805 498.98 352.98C499.008 361.014 505.581 367.475 513.616 367.447Z" fill="#FF0000"/>
<path d="M513.559 356.772C512.126 358.345 510.975 359.666 509.767 360.874C508.334 362.306 506.592 362.335 505.328 361.014C504.092 359.75 504.148 358.065 505.497 356.66C506.648 355.452 507.856 354.244 509.008 353.036C509.036 353.008 509.036 352.952 509.149 352.755C508.025 351.631 506.873 350.423 505.693 349.244C504.176 347.67 504.036 346.013 505.328 344.664C506.648 343.288 508.418 343.4 509.991 345.002C511.143 346.153 512.211 347.389 513.643 348.963C514.795 347.614 515.694 346.491 516.706 345.479C518.7 343.457 520.301 343.204 521.762 344.636C523.195 346.069 522.97 347.755 521.004 349.693C519.964 350.704 518.841 351.603 517.436 352.839C519.037 354.3 520.358 355.424 521.565 356.632C522.998 358.036 523.026 359.834 521.734 361.099C520.442 362.391 518.756 362.335 517.295 360.846C516.116 359.638 515.02 358.374 513.559 356.772Z" fill="#FF0000"/>
<path d="M301.143 431.498C312.267 431.47 321.369 440.544 321.369 451.64C321.397 462.737 312.323 471.811 301.171 471.839C290.018 471.839 280.944 462.821 280.944 451.697C280.972 440.544 290.018 431.498 301.143 431.498ZM301.227 466.248C309.318 466.22 315.835 459.675 315.807 451.584C315.779 443.578 309.233 437.089 301.227 437.032C293.108 437.004 286.563 443.606 286.591 451.781C286.619 459.815 293.193 466.276 301.227 466.248Z" fill="#FF0000"/>
<path d="M301.171 455.573C299.738 457.146 298.586 458.467 297.378 459.675C295.945 461.107 294.204 461.135 292.939 459.815C291.703 458.551 291.76 456.865 293.108 455.461C294.26 454.253 295.468 453.045 296.62 451.837C296.648 451.809 296.648 451.753 296.76 451.556C295.636 450.432 294.485 449.224 293.305 448.044C291.788 446.471 291.647 444.814 292.939 443.465C294.26 442.089 296.03 442.201 297.603 443.803C298.755 444.954 299.822 446.19 301.255 447.764C302.407 446.415 303.306 445.291 304.317 444.28C306.311 442.257 307.913 442.005 309.373 443.437C310.806 444.87 310.581 446.556 308.615 448.494C307.576 449.505 306.452 450.404 305.047 451.64C306.649 453.101 307.969 454.225 309.177 455.433C310.61 456.837 310.638 458.635 309.345 459.899C308.053 461.192 306.368 461.135 304.907 459.647C303.727 458.439 302.631 457.174 301.171 455.573Z" fill="#FF0000"/>
<path d="M410.697 431.498C421.822 431.47 430.924 440.544 430.924 451.64C430.952 462.737 421.878 471.811 410.725 471.839C399.573 471.839 390.499 462.821 390.499 451.697C390.527 440.544 399.573 431.498 410.697 431.498ZM410.782 466.248C418.872 466.22 425.39 459.675 425.362 451.584C425.334 443.578 418.788 437.089 410.782 437.032C402.663 437.004 396.117 443.606 396.146 451.781C396.174 459.815 402.747 466.276 410.782 466.248Z" fill="#FF0000"/>
<path d="M410.725 455.573C409.292 457.146 408.141 458.467 406.933 459.675C405.5 461.107 403.758 461.135 402.494 459.815C401.258 458.551 401.314 456.865 402.663 455.461C403.814 454.253 405.022 453.045 406.174 451.837C406.202 451.809 406.202 451.753 406.315 451.556C405.191 450.432 404.039 449.224 402.859 448.044C401.342 446.471 401.202 444.814 402.494 443.465C403.815 442.089 405.584 442.201 407.157 443.803C408.309 444.954 409.377 446.19 410.809 447.764C411.961 446.415 412.86 445.291 413.872 444.28C415.866 442.257 417.467 442.005 418.928 443.437C420.361 444.87 420.136 446.556 418.17 448.494C417.13 449.505 416.007 450.404 414.602 451.64C416.203 453.101 417.524 454.225 418.732 455.433C420.164 456.837 420.192 458.635 418.9 459.899C417.608 461.192 415.922 461.135 414.461 459.647C413.282 458.439 412.186 457.174 410.725 455.573Z" fill="#FF0000"/>
<path d="M513.531 534.332C524.656 534.304 533.758 543.378 533.758 554.474C533.786 565.57 524.712 574.644 513.559 574.672C502.407 574.672 493.333 565.655 493.333 554.53C493.361 543.378 502.407 534.332 513.531 534.332ZM513.616 569.082C521.706 569.054 528.224 562.508 528.196 554.418C528.167 546.411 521.622 539.922 513.616 539.866C505.497 539.838 498.951 546.44 498.98 554.614C499.008 562.649 505.581 569.11 513.616 569.082Z" fill="#FF0000"/>
<path d="M513.559 558.407C512.126 559.98 510.975 561.3 509.767 562.508C508.334 563.941 506.592 563.969 505.328 562.649C504.092 561.385 504.148 559.699 505.497 558.295C506.648 557.087 507.856 555.879 509.008 554.671C509.036 554.643 509.036 554.586 509.149 554.39C508.025 553.266 506.873 552.058 505.693 550.878C504.176 549.305 504.036 547.648 505.328 546.299C506.648 544.923 508.418 545.035 509.991 546.636C511.143 547.788 512.211 549.024 513.643 550.597C514.795 549.249 515.694 548.125 516.706 547.114C518.7 545.091 520.301 544.838 521.762 546.271C523.195 547.704 522.97 549.389 521.004 551.328C519.964 552.339 518.841 553.238 517.436 554.474C519.037 555.935 520.358 557.058 521.565 558.266C522.998 559.671 523.026 561.469 521.734 562.733C520.442 564.025 518.756 563.969 517.295 562.48C516.116 561.272 515.02 560.008 513.559 558.407Z" fill="#FF0000"/>
<path d="M513.531 430.826C524.656 430.798 533.758 439.872 533.758 450.968C533.786 462.065 524.712 471.138 513.559 471.167C502.407 471.167 493.333 462.149 493.333 451.024C493.361 439.872 502.407 430.826 513.531 430.826ZM513.616 465.576C521.706 465.548 528.224 459.003 528.196 450.912C528.167 442.906 521.622 436.416 513.616 436.36C505.497 436.332 498.951 442.934 498.98 451.109C499.008 459.143 505.581 465.604 513.616 465.576Z" fill="#FF0000"/>
<path d="M513.559 454.901C512.126 456.474 510.975 457.795 509.767 459.003C508.334 460.435 506.592 460.463 505.328 459.143C504.092 457.879 504.148 456.193 505.497 454.789C506.648 453.581 507.856 452.373 509.008 451.165C509.036 451.137 509.036 451.081 509.149 450.884C508.025 449.76 506.873 448.552 505.693 447.372C504.176 445.799 504.036 444.142 505.328 442.793C506.648 441.417 508.418 441.529 509.991 443.13C511.143 444.282 512.211 445.518 513.643 447.091C514.795 445.743 515.694 444.619 516.706 443.608C518.7 441.585 520.301 441.333 521.762 442.765C523.195 444.198 522.97 445.883 521.004 447.822C519.964 448.833 518.841 449.732 517.436 450.968C519.037 452.429 520.358 453.553 521.565 454.761C522.998 456.165 523.026 457.963 521.734 459.227C520.442 460.52 518.756 460.463 517.295 458.974C516.116 457.767 515.02 456.502 513.559 454.901Z" fill="#FF0000"/>
<path d="M513.531 239.273C524.656 239.245 533.758 248.319 533.758 259.415C533.786 270.512 524.712 279.586 513.559 279.614C502.407 279.614 493.333 270.596 493.333 259.472C493.361 248.319 502.407 239.273 513.531 239.273ZM513.616 274.023C521.706 273.995 528.224 267.45 528.196 259.359C528.167 251.353 521.622 244.864 513.616 244.807C505.497 244.779 498.951 251.381 498.98 259.556C499.008 267.59 505.581 274.051 513.616 274.023Z" fill="#FF0000"/>
<path d="M513.559 263.348C512.126 264.921 510.975 266.242 509.767 267.45C508.334 268.882 506.592 268.91 505.328 267.59C504.092 266.326 504.148 264.64 505.497 263.236C506.648 262.028 507.856 260.82 509.008 259.612C509.036 259.584 509.036 259.528 509.149 259.331C508.025 258.207 506.873 256.999 505.693 255.819C504.176 254.246 504.036 252.589 505.328 251.24C506.648 249.864 508.418 249.976 509.991 251.578C511.143 252.729 512.211 253.965 513.643 255.539C514.795 254.19 515.694 253.066 516.706 252.055C518.7 250.032 520.301 249.78 521.762 251.212C523.195 252.645 522.97 254.331 521.004 256.269C519.964 257.28 518.841 258.179 517.436 259.415C519.037 260.876 520.358 262 521.565 263.208C522.998 264.612 523.026 266.41 521.734 267.674C520.442 268.967 518.756 268.91 517.295 267.422C516.116 266.214 515.02 264.949 513.559 263.348Z" fill="#FF0000"/>
<rect x="39.1973" y="219" width="63" height="63"/>
<rect x="31.1973" y="102" width="79" height="79"/>
<path d="M63.706 320.897L63.8025 320.948L71.987 325.589C72.2623 325.745 72.5729 325.827 72.8889 325.827C73.2048 325.827 73.5154 325.745 73.7907 325.589L81.9111 320.999C82.5398 320.641 83.2835 320.545 83.9818 320.733C84.68 320.921 85.2769 321.377 85.6436 322.003C86.0104 322.629 86.1176 323.376 85.9423 324.081C85.7669 324.786 85.3229 325.393 84.7061 325.772L84.613 325.827L79.9259 328.481C79.7841 328.562 79.6662 328.679 79.5841 328.82C79.502 328.961 79.4587 329.122 79.4587 329.286C79.4587 329.45 79.502 329.611 79.5841 329.752C79.6662 329.893 79.7841 330.01 79.9259 330.091L92.5796 337.263C92.8547 337.42 93.1654 337.502 93.4814 337.502C93.7975 337.502 94.1082 337.42 94.3833 337.263L102.211 332.827C102.839 332.465 103.585 332.366 104.285 332.552C104.986 332.739 105.585 333.195 105.954 333.823C106.322 334.45 106.429 335.199 106.253 335.905C106.076 336.612 105.629 337.221 105.01 337.598L104.916 337.654L100.508 340.147C100.367 340.228 100.249 340.344 100.166 340.486C100.084 340.627 100.041 340.788 100.041 340.952C100.041 341.115 100.084 341.276 100.166 341.417C100.249 341.559 100.367 341.676 100.508 341.756L104.936 344.267C105.567 344.622 106.034 345.212 106.236 345.91C106.438 346.608 106.359 347.357 106.017 347.997C105.674 348.637 105.096 349.117 104.405 349.331C103.714 349.546 102.968 349.48 102.326 349.146L102.23 349.093L94.3806 344.643C94.1055 344.487 93.795 344.405 93.4791 344.405C93.1632 344.405 92.8526 344.487 92.5775 344.643L79.7828 351.895C79.641 351.976 79.523 352.092 79.4409 352.234C79.3587 352.375 79.3155 352.536 79.3155 352.699C79.3155 352.863 79.3587 353.024 79.4409 353.165C79.523 353.306 79.641 353.423 79.7828 353.504L85.0685 356.5C85.693 356.858 86.1537 357.448 86.352 358.143C86.5503 358.838 86.4706 359.583 86.13 360.22C85.7893 360.856 85.2147 361.334 84.5287 361.55C83.8427 361.767 83.0997 361.705 82.4584 361.378L82.3626 361.326L73.6578 356.39C73.3825 356.234 73.0719 356.152 72.7559 356.152C72.44 356.152 72.1294 356.234 71.8541 356.39L63.0703 361.374C62.4419 361.733 61.6984 361.829 61.0002 361.642C60.3021 361.454 59.705 360.999 59.3379 360.373C58.9708 359.747 58.863 359.001 59.0377 358.296C59.2124 357.591 59.6557 356.983 60.272 356.603L60.3651 356.548L65.7249 353.503C65.83 353.443 65.9223 353.364 65.9967 353.268C66.0711 353.173 66.126 353.064 66.1584 352.947C66.1908 352.83 66.2 352.708 66.1855 352.588C66.171 352.467 66.133 352.351 66.0738 352.245C65.9922 352.098 65.8714 351.977 65.7249 351.895L53.045 344.709C52.7696 344.553 52.459 344.472 52.1431 344.472C51.8272 344.472 51.5166 344.553 51.2412 344.709L43.7754 348.933C43.1464 349.294 42.4014 349.392 41.7016 349.205C41.0017 349.017 40.4034 348.561 40.036 347.933C39.6686 347.305 39.5618 346.557 39.7387 345.851C39.9156 345.145 40.3619 344.537 40.9811 344.16L41.0735 344.105L45.1108 341.821C45.2529 341.74 45.3713 341.624 45.4537 341.482C45.536 341.341 45.5795 341.18 45.5795 341.016C45.5795 340.852 45.536 340.691 45.4537 340.55C45.3713 340.409 45.2529 340.292 45.1108 340.212L41.0809 337.926C40.4564 337.567 39.9957 336.978 39.7974 336.283C39.5991 335.588 39.6788 334.843 40.0194 334.206C40.3601 333.569 40.9347 333.092 41.6207 332.875C42.3067 332.659 43.0497 332.721 43.691 333.047L43.7875 333.1L51.246 337.328C51.5209 337.484 51.8314 337.566 52.1471 337.566C52.4629 337.566 52.7734 337.484 53.0483 337.328L65.8511 330.083C65.9929 330.003 66.1109 329.886 66.193 329.744C66.2751 329.603 66.3183 329.442 66.3183 329.279C66.3183 329.115 66.2751 328.954 66.193 328.813C66.1109 328.671 65.9929 328.554 65.8511 328.474L61.0959 325.776C60.4713 325.418 60.0107 324.829 59.8124 324.134C59.6141 323.439 59.6937 322.694 60.0344 322.057C60.375 321.42 60.9497 320.943 61.6357 320.726C62.3217 320.51 63.0646 320.571 63.706 320.898V320.897ZM71.985 332.97L59.1801 340.215C59.0382 340.295 58.92 340.412 58.8378 340.554C58.7556 340.695 58.7123 340.856 58.7123 341.02C58.7123 341.184 58.7556 341.345 58.8378 341.486C58.92 341.627 59.0382 341.744 59.1801 341.825L71.8527 349.008C72.1279 349.164 72.4386 349.246 72.7546 349.246C73.0706 349.246 73.3812 349.164 73.6564 349.008L86.4498 341.756C86.5916 341.676 86.7096 341.559 86.7917 341.417C86.8738 341.276 86.9171 341.115 86.9171 340.952C86.9171 340.788 86.8738 340.627 86.7917 340.486C86.7096 340.344 86.5916 340.228 86.4498 340.147L73.7867 332.97C73.5116 332.814 73.2012 332.732 72.8855 332.732C72.5698 332.732 72.2594 332.814 71.9843 332.97H71.985Z" fill="#9D0FB0"/>
</svg>
