<svg xmlns="http://www.w3.org/2000/svg" width="131" height="117" viewBox="0 0 131 117" fill="none">
  <g clip-path="url(#clip0_14140_18273)">
    <mask id="mask0_14140_18273" style="mask-type:luminance" maskUnits="userSpaceOnUse" x="0" y="0" width="131" height="117">
      <path d="M131 0.555542H0V117H131V0.555542Z" fill="white"/>
    </mask>
    <g mask="url(#mask0_14140_18273)">
      <path d="M65.5632 117C47.1928 117 28.8224 117 10.4519 117C5.5743 117 1.90022 114.432 0.506603 110.067C0.189872 108.976 -0.000166431 107.756 -0.000166431 106.601C-0.000166431 88.1138 -0.0635127 69.562 -0.000166431 51.0747C-0.000166431 49.5341 0.253219 47.9935 0.696642 46.5171C5.32091 32.138 9.94519 17.8232 14.5695 3.50838C15.4563 0.812311 15.8364 0.555542 18.687 0.555542C49.5999 0.555542 80.5127 0.555542 111.489 0.555542C114.277 0.555542 114.656 0.812311 115.48 3.38C119.851 16.4752 124.158 29.6346 128.529 42.7298C128.909 43.8852 129.543 44.9765 129.923 46.1319C130.366 47.6725 131 49.2132 131 50.7537C131.063 69.4979 131.063 88.3059 131 107.051C131 112.571 126.566 116.936 120.991 116.936C102.494 117 84.0606 117 65.5632 117ZM84.3139 40.6114C97.1097 40.6114 109.842 40.6114 122.701 40.6114C122.575 40.0337 122.511 39.7127 122.385 39.3275C118.774 28.4149 115.163 17.5665 111.616 6.65379C111.236 5.43414 110.475 5.30576 109.462 5.30576C79.8795 5.30576 50.2334 5.30576 20.6507 5.30576C19.3837 5.30576 18.8137 5.7551 18.4336 6.97475C15.0129 17.759 11.5288 28.5433 8.04482 39.2634C7.91811 39.7127 7.79141 40.1621 7.6647 40.6756C20.7774 40.6756 33.7634 40.6756 46.686 40.6756C47.3195 45.6184 48.7131 46.9022 53.5908 46.9022C61.5724 46.9022 69.554 46.9022 77.4721 46.9022C82.223 46.9664 83.8066 45.6184 84.3139 40.6114ZM47.5728 81.8228C48.0163 80.2181 48.4597 78.7414 48.8397 77.2648C49.5999 74.3122 48.143 71.552 45.4824 70.7817C42.6952 70.0114 40.098 71.4878 39.2112 74.441C38.1343 78.0355 37.0574 81.694 36.0438 85.3533C35.0303 89.0126 37.3107 92.0292 41.0482 92.0292C57.8982 92.0292 74.6854 92.0292 91.5349 92.0292C94.8288 92.0292 97.2996 89.0766 96.4125 85.8671C95.2094 81.694 93.8158 77.6505 92.3587 73.5422C91.5982 71.4236 89.6347 70.4607 87.4179 70.5891C85.3903 70.7175 83.5534 72.0655 83.1101 74.0553C82.8569 75.275 83.0468 76.5588 83.2368 77.8426C83.4901 79.1912 83.9966 80.4102 84.5038 81.8228C72.0245 81.8228 59.9253 81.8228 47.5728 81.8228Z" fill="#294957"/>
      <path d="M65.058 30.6621C80.1342 30.6621 95.2742 30.6621 110.351 30.6621C111.047 30.6621 111.998 30.6621 112.441 31.0472C113.011 31.625 113.581 32.652 113.518 33.4223C113.455 34.7062 112.441 35.3481 111.237 35.3481C108.767 35.4123 106.296 35.3481 103.826 35.3481C75.8272 35.3481 47.8912 35.3481 19.8922 35.3481C19.5755 35.3481 19.2588 35.3481 18.942 35.3481C17.2317 35.2839 16.1548 34.3852 16.1548 32.9088C16.1548 31.4965 17.2317 30.5337 19.0053 30.5337C26.6069 30.5337 34.2084 30.5337 41.81 30.5337C49.5382 30.6621 57.2664 30.6621 65.058 30.6621Z" fill="#00B39F"/>
      <path d="M64.8682 20.6476C78.9314 20.6476 93.0575 20.6476 107.12 20.6476C107.754 20.6476 108.387 20.6476 109.021 20.7118C110.288 20.9043 111.047 21.6105 111.111 22.9585C111.174 24.3066 110.414 25.141 109.084 25.462C108.577 25.5904 108.007 25.5262 107.5 25.5262C78.9314 25.5262 50.4253 25.5262 21.8561 25.5262C21.2227 25.5262 20.3991 25.5904 20.0191 25.2694C19.3856 24.6275 18.6254 23.6005 18.6888 22.8943C18.7522 22.124 19.7657 21.4179 20.5258 20.8402C20.9059 20.5834 21.666 20.7118 22.2362 20.7118C36.489 20.6476 50.6786 20.6476 64.8682 20.6476Z" fill="#00B39F"/>
      <path d="M64.8641 15.4466C51.8147 15.4466 38.8288 15.4466 25.7794 15.4466C25.336 15.4466 24.8292 15.5108 24.3858 15.3824C23.1189 15.1257 22.2954 14.2912 22.2954 12.9431C22.2954 11.5951 23.1189 10.8248 24.4491 10.568C24.8292 10.5038 25.2727 10.5038 25.7161 10.5038C51.8147 10.5038 77.9131 10.5038 104.012 10.5038C104.455 10.5038 104.836 10.4397 105.279 10.568C106.546 10.8248 107.369 11.5951 107.432 12.9431C107.496 14.0986 106.483 15.254 105.152 15.4466C104.709 15.5108 104.328 15.4466 103.885 15.4466C90.9628 15.4466 77.9131 15.4466 64.8641 15.4466Z" fill="#00B39F"/>
    </g>
  </g>
  <defs>
    <clipPath id="clip0_14140_18273">
      <rect width="131" height="116.444" fill="white" transform="translate(0 0.555542)"/>
    </clipPath>
  </defs>
</svg>