<svg id="Layer_1" data-name="Layer 1" xmlns="http://www.w3.org/2000/svg" viewBox="0 0 1920 1080"><defs><style>.cls-1{fill:#fff;}</style></defs><path class="cls-1" d="M1042.15,521.42a79.05,79.05,0,0,0-29.78-61.78,23.07,23.07,0,0,1-6.32,11.81l-6.17,6.17a57.34,57.34,0,1,1-38-13.56l-18.42,18.42a10.93,10.93,0,0,0,15.46,15.46l28.42-28.43,0,0,8.38-8.38a8.63,8.63,0,0,0,.55-11.54c-.25-.11-1.64-1.69-2.23-2.28l-35.15-35.15a10.93,10.93,0,0,0-15.46,15.46l14.69,14.69a79.25,79.25,0,1,0,84,79.09Z"/><path class="cls-1" d="M1120.69,523.57c0-88.61-72.09-160.69-160.69-160.69S799.31,435,799.31,523.57c0,87.84,70.84,159.4,158.39,160.64l-14.25,14.25a10.93,10.93,0,0,0,15.46,15.46l32.8-32.81h.06l4-4a8.64,8.64,0,0,0,0-12.2l-5.8-5.8h-.06l-31-31a10.93,10.93,0,0,0-15.46,15.46l18.73,18.73c-.73,0-1.45.06-2.18.06-76.56,0-138.83-62.29-138.83-138.84S883.44,384.74,960,384.74,1098.83,447,1098.83,523.57c0,60.44-38.84,111.95-92.87,131l.09.08a23.26,23.26,0,0,1,6.36,20.86C1075.36,653.69,1120.69,593.83,1120.69,523.57Z"/></svg>
