<?xml version="1.0" encoding="utf-8"?>
<!-- Generator: Adobe Illustrator 26.0.2, SVG Export Plug-In . SVG Version: 6.00 Build 0)  -->
<svg version="1.1" id="Layer_1" xmlns="http://www.w3.org/2000/svg" xmlns:xlink="http://www.w3.org/1999/xlink" x="0px" y="0px"
	 viewBox="0 0 362.7 393.9" style="enable-background:new 0 0 362.7 393.9;" xml:space="preserve">
<style type="text/css">
	.st0{fill:#18272F;}
	.st1{fill:#E8E8EE;}
	.st2{fill:#00B29E;}
	.st3{fill:#2C3476;}
	.st4{fill:#4ABEA0;}
	.st5{fill:#03B29F;}
	.st6{fill:none;stroke:#18272F;stroke-width:3.5;stroke-miterlimit:10;}
</style>
<path class="st0" d="M104.3,359.8c-11.4-10.4-25.2-29-31.9-42.3c-3.1-6.1-3.7-13-5.4-19.5c-3.4-12.5-5-25.4-6.6-38.2
	c-0.3-2.2-0.5-4-3.3-3.7c0,0,0,0,0,0c3.2-2.4,4.3-0.4,4.7,2.4c1.9,11.3,4.5,22.3,7.3,33.4c9.2,36.4,29.6,64.3,63.4,81.7
	c17.9,9,36.8,14.2,56.7,15.4c33.8,2,65.4-6.2,95.2-21.7c7.2-3.7,14.3-7.5,21.4-11.2c18.9-11,4.6,4-24.3,17.7
	c-28.5,14.3-58.8,21.9-90.9,20C158.3,391.8,129,381.5,104.3,359.8"/>
<path class="st0" d="M317.3,342.9c-0.8,0.1,4.3-0.7,2.9,1.8c-3.9,7.1-13,16.7-14.4,11.2c-0.7-0.5,9.3-9.8,9-9c0,0,0.1-0.1,0.1-0.1
	c-2,0-3.4,1.2-5,2c-6.2,3.1-12.6,6-19.3,7.9c-27.6,7.7-53.8,2.9-78.8-9.8c-12.3-6.2-22.1-15.1-27.1-28.5c-0.1-0.8-0.1-1.6-0.3-2.4
	c-0.9-4.5,0.2-8.4,4.1-10.9c3.7-2.4,7.1-0.3,10,2c3,2.4,5.8,5,8.5,7.7c17.9,17.7,39.1,27.9,64.7,26.7c18.4-0.8,35.8-6,52.7-13.2
	c3.6-1.5,6.6-3.8,8.7-7.2c13.1-21.3,22.2-44.1,24.4-69.1c3-32.8-7.6-61.2-29.4-85.9c-7.1-8-14.5-9.8-24.6-6.7
	c-25.3,7.6-49.6,17.7-72.9,30c-30.4,16-60.1,33.1-91,48.1c-17.6,8.5-36.3,11.3-55.7,6.8c-6.7-1.6-6.9-1.8-5.3-8.8
	c4.7-21-1.8-38.5-16.3-53.7c-2.3-2.4-3.3-2.5-5.3,0.5c-9.8,15-15,30.2-3.3,46.9c-5.6-4.3-11.8-7-18.1-9.6c-8.9-3.6-17.5-2.4-26,1.4
	c-3,1.4-4.1,2.9-2.4,6.1c4.4,7.9,9.3,15.4,16.7,20.8c9.9,7.3,20.9,10.4,33.1,8.1c0,0,0,0,0,0c-5.8,3.6-12.2,3.6-18.5,2.5
	c-15.1-2.6-25.1-12.2-32.8-24.6c-2.1-3.4-3.9-6.9-5.8-10.4c0.3-1.8,1.8-2.3,3.1-2.9c4.3-2.5,8.5-5.4,13.4-6.5c0.5,0,0.9-0.1,1.4-0.1
	c9.9-2.6,18.6,0.5,27,5.4c0.2,0.1,0.4,0.3,0.7,0.4c0-0.3,0-0.7,0-1c-4.4-12.8-1-24.1,6.2-34.8c0.4-0.5,0.8-1.1,1.2-1.6
	c5.4-5.9,6.9-5.8,12.6-0.3c6.6,6.4,12.5,13.3,15.6,22.1c3.9,11,4.4,22.1-0.2,33c-1.7,4.1,0.2,5.1,3.4,5.6c6.9,1.1,16.1,1,23,0.1
	c1.9-0.3,11.9-0.8,24.2-7.1c46.7-23.8,150-74.1,150-74.1s18.2-6.2,27.7-8c4-0.8,7.4-0.2,10.8,2.2c33,24,45.1,57.2,42.2,96.7
	c-1.7,23.4-10.3,44.7-21.5,65.1c-4,7.2-11.2,10.8-18.3,14c-5.4,2.5-11.1,4.3-16.8,6.5c2.6,3.4,5.1,6.2,8.7,5.4 M210.8,194.9
	 M204.9,197.8 M198.4,201.4 M192.2,204.7c1.1-0.5,2.7-0.8,4.1-2.1 M146.3,228.6 M146.3,228.6l69.6-36.6
	c18.2-10.1,65.7-30.4,65.7-30.4 M166.1,218.6 M202.1,199.4 M208.3,195.7"/>
<path class="st1" d="M184.7,318.4c4.9,13.4,14.8,22.3,27.1,28.5c25,12.7,51.2,17.5,78.8,9.8c6.7-1.9,13-4.7,19.3-7.9
	c1.6-0.8,3-2.1,5-2c3.1,1.2-5.5,6.4-9,9.1c-7.1,3.7-14.3,7.5-21.4,11.2c-29.9,15.5-61.4,23.7-95.2,21.7
	c-19.9-1.2-38.9-6.4-56.7-15.4c0.9-1.7,2.7-1.7,4.2-2.2c24.5-7.5,40.9-22.6,46-48.5C183,321.1,183.3,319.5,184.7,318.4z"/>
<path class="st1" d="M314.8,346.9"/>
<path class="st2" d="M184.7,318.4c-1.4,1.1-1.8,2.7-2.1,4.4c-5,25.9-21.5,41-46,48.5c-1.6,0.5-3.3,0.4-4.2,2.2
	c-33.8-17.4-54.1-45.2-63.4-81.7c-2.8-11.1-5.4-22.1-7.3-33.4c-0.5-2.8-1.5-4.8-4.7-2.4c-12.3,2.2-23.3-0.8-33.1-8.1
	c-7.4-5.5-12.3-12.9-16.7-20.8c-1.7-3.1-0.7-4.7,2.4-6.1c8.5-3.8,17.1-5,26-1.4c6.3,2.5,12.5,5.3,18.1,9.6
	c-11.7-16.7-6.5-31.9,3.3-46.9c2-3,3-2.9,5.3-0.5c14.5,15.2,20.9,32.7,16.3,53.7c-1.5,7-1.4,7.2,5.3,8.8c19.4,4.6,38.1,1.7,55.7-6.8
	c30.9-15,60.7-32.1,91-48.1c23.3-12.3,47.6-22.3,72.9-30c10.1-3,17.5-1.3,24.6,6.7c21.8,24.6,32.4,53,29.4,85.9
	c-2.2,25-11.4,47.8-24.4,69.1c-2.1,3.4-5.2,5.7-8.7,7.2c-16.9,7.2-34.3,12.4-52.7,13.2c-25.6,1.2-46.8-8.9-64.7-26.7
	c-2.7-2.7-5.5-5.3-8.5-7.7c-2.9-2.3-6.3-4.4-10-2c-3.9,2.5-5,6.4-4.1,10.9C184.6,316.7,184.6,317.6,184.7,318.4z M154.9,254.7
	c-0.7,0.7-1.4,1.3-2.1,2c-3.7,5.3-6,11.1-4,17.6c4,12.8,15.8,17,28.8,10.6c15-7.4,18.1-25.2,6.3-35.6
	C174.7,241.2,158.5,244.3,154.9,254.7z"/>
<path class="st3" d="M45.6,218.7c0,0.3,0,0.7,0,1c-0.2-0.1-0.4-0.3-0.7-0.4C45.1,219.1,45.3,218.9,45.6,218.7z"/>
<path class="st1" d="M152.8,256.7c0.7-0.7,1.4-1.3,2.1-2c2,2,0.8,6,4.4,7c4.7,1.3,8.8,0,12.4-2.9c3.2-2.6,5.4-5.8,3.7-10.3
	c0.3-0.2,0.5-0.5,0.8-0.7c8.2,2.9,12.9,10.4,11.6,18.4c-1.3,8.4-9.5,16.4-17.9,17.8c-6.5,1.1-12.3,0-16.5-5.4
	c-4.2-5.3-4.3-11.2-1.9-17.4C152,259.8,153.4,258.5,152.8,256.7z"/>
<path class="st0" d="M175.5,248.5c1.7,4.5-0.5,7.7-3.7,10.3c-3.6,3-7.7,4.2-12.4,2.9c-3.6-1-2.4-5-4.4-7c3.6-10.4,19.8-13.4,29-5.4
	c11.9,10.4,8.7,28.3-6.3,35.6c-13,6.4-24.8,2.2-28.8-10.6c-2-6.5,0.2-12.3,4-17.6c0.6,1.8-0.8,3.1-1.4,4.6
	c-2.4,6.2-2.2,12.1,1.9,17.4c4.2,5.4,10,6.5,16.5,5.4c8.5-1.5,16.6-9.4,17.9-17.8c1.3-8-3.4-15.5-11.6-18.4
	c-0.4-0.1-0.7-0.3-1.1-0.4C175.2,247.7,175.4,248.1,175.5,248.5z"/>
<path class="st1" d="M175.5,248.5c-0.1-0.4-0.2-0.8-0.4-1.2c0.4,0.1,0.7,0.3,1.1,0.4C176,248,175.7,248.2,175.5,248.5z"/>
<g>
	<polygon class="st4" points="149.6,137.3 149.6,163.4 172.2,150.3 	"/>
	<polygon class="st4" points="149.6,168.8 149.6,195 172.4,181.9 	"/>
	<polygon class="st5" points="146.4,163.2 146.4,137.5 124.1,150.3 	"/>
	<path class="st5" d="M101.7,194.9c4.4,7,10.3,13,17.3,17.4v-27.4L101.7,194.9z"/>
	<polygon class="st5" points="146.4,194.9 146.4,169 124,181.9 	"/>
	<polygon class="st4" points="122.2,210.7 144.9,197.7 122.2,184.6 	"/>
	<polygon class="st5" points="174,210.8 174,184.8 151.4,197.7 	"/>
	<path class="st5" d="M196.1,191.9c3.8-7,6-14.9,6.4-23.4L179,182L196.1,191.9z"/>
	<polygon class="st4" points="177.2,179.2 199.9,166.2 177.2,153.2 	"/>
	<polygon class="st5" points="174,147.5 174,121.7 151.5,134.6 	"/>
	<polygon class="st5" points="174,179.1 174,153 151.4,166.1 	"/>
	<polygon class="st5" points="148,220.7 148,220.7 148,220.7 	"/>
	<polygon class="st4" points="122.2,153 122.2,179.2 144.9,166.1 	"/>
	<path class="st5" d="M146.4,111.6c-8.6,0.3-16.8,2.5-23.9,6.3l23.9,13.8V111.6z"/>
	<polygon class="st4" points="122.2,121.5 122.2,147.6 145,134.6 	"/>
	<path class="st5" d="M119,120c-7,4.4-12.9,10.4-17.3,17.4l17.3,10V120z"/>
	<path class="st4" d="M173.8,118.1c-7.2-3.9-15.4-6.2-24.2-6.5v20.3L173.8,118.1z"/>
	<path class="st4" d="M93.5,168c0.3,8.7,2.6,16.8,6.5,24l17.5-10.1L93.5,168z"/>
	<path class="st4" d="M100,140.2c-3.9,7.2-6.2,15.3-6.5,23.9l24.1-13.8L100,140.2z"/>
	<path class="st5" d="M122.4,214.3c7.2,3.8,15.3,6.1,24,6.4v-20.1L122.4,214.3z"/>
	<path class="st4" d="M194.4,137.4c-4.3-7-10.2-13-17.2-17.4v27.3L194.4,137.4z"/>
	<path class="st4" d="M177.2,212.2c7-4.4,12.9-10.4,17.3-17.5l-17.3-10V212.2z"/>
	<path class="st5" d="M202.5,164c-0.3-8.6-2.6-16.6-6.5-23.7l-17.3,10L202.5,164z"/>
	<path class="st4" d="M149.6,220.6c8.6-0.3,16.8-2.5,23.9-6.3l-23.9-13.8V220.6z"/>
	<polygon class="st5" points="119,179 119,153.3 96.6,166.1 	"/>
</g>
<g>
	<polygon class="st4" points="248.7,88.4 248.7,114.5 271.3,101.4 	"/>
	<polygon class="st4" points="248.7,119.9 248.7,146.1 271.5,133.1 	"/>
	<polygon class="st5" points="245.5,114.3 245.5,88.6 223.2,101.4 	"/>
	<path class="st5" d="M200.8,146c4.4,7,10.3,13,17.3,17.4V136L200.8,146z"/>
	<polygon class="st5" points="245.5,146 245.5,120.1 223.1,133.1 	"/>
	<polygon class="st4" points="221.3,161.8 243.9,148.8 221.3,135.7 	"/>
	<polygon class="st5" points="273.1,161.9 273.1,135.9 250.5,148.8 	"/>
	<path class="st5" d="M295.2,143c3.8-7,6-14.9,6.4-23.4L278,133.1L295.2,143z"/>
	<polygon class="st4" points="276.3,130.3 299,117.3 276.3,104.3 	"/>
	<polygon class="st5" points="273.1,98.7 273.1,72.8 250.6,85.7 	"/>
	<polygon class="st5" points="273.1,130.2 273.1,104.1 250.5,117.2 	"/>
	<polygon class="st5" points="247.1,171.8 247.1,171.8 247.1,171.8 	"/>
	<polygon class="st4" points="221.3,104.1 221.3,130.4 244,117.2 	"/>
	<path class="st5" d="M245.5,62.7c-8.6,0.3-16.8,2.5-23.9,6.3l23.9,13.8V62.7z"/>
	<polygon class="st4" points="221.3,72.7 221.3,98.8 244,85.7 	"/>
	<path class="st5" d="M218,71.1c-7,4.4-12.9,10.4-17.3,17.4l17.3,10V71.1z"/>
	<path class="st4" d="M272.9,69.2c-7.2-3.9-15.4-6.2-24.2-6.5V83L272.9,69.2z"/>
	<path class="st4" d="M192.6,119.2c0.3,8.7,2.6,16.8,6.5,24l17.5-10.1L192.6,119.2z"/>
	<path class="st4" d="M199.1,91.3c-3.9,7.2-6.2,15.3-6.5,23.9l24.1-13.8L199.1,91.3z"/>
	<path class="st5" d="M221.5,165.4c7.2,3.8,15.3,6.1,24,6.4v-20.1L221.5,165.4z"/>
	<path class="st4" d="M293.5,88.6c-4.3-7-10.2-13-17.2-17.4v27.3L293.5,88.6z"/>
	<path class="st4" d="M276.3,163.3c7-4.4,12.9-10.4,17.3-17.5l-17.3-10V163.3z"/>
	<path class="st5" d="M301.6,115.1c-0.3-8.6-2.6-16.6-6.5-23.7l-17.3,10L301.6,115.1z"/>
	<path class="st4" d="M248.7,171.8c8.6-0.3,16.8-2.5,23.9-6.3l-23.9-13.8V171.8z"/>
	<polygon class="st5" points="218,130.1 218,104.4 195.7,117.2 	"/>
</g>
<g>
	<polygon class="st4" points="157.3,27.5 157.3,53.5 179.8,40.5 	"/>
	<polygon class="st4" points="157.3,59 157.3,85.2 180,72.1 	"/>
	<polygon class="st5" points="154,53.4 154,27.7 131.7,40.5 	"/>
	<path class="st5" d="M109.3,85.1c4.4,7,10.3,13,17.3,17.4V75.1L109.3,85.1z"/>
	<polygon class="st5" points="154,85 154,59.2 131.7,72.1 	"/>
	<polygon class="st4" points="129.8,100.8 152.5,87.9 129.8,74.8 	"/>
	<polygon class="st5" points="181.6,101 181.6,75 159,87.9 	"/>
	<path class="st5" d="M203.7,82.1c3.8-7,6-14.9,6.4-23.4l-23.6,13.5L203.7,82.1z"/>
	<polygon class="st4" points="184.8,69.4 207.6,56.4 184.8,43.4 	"/>
	<polygon class="st5" points="181.6,37.7 181.6,11.9 159.1,24.8 	"/>
	<polygon class="st5" points="181.6,69.3 181.6,43.2 159,56.3 	"/>
	<polygon class="st5" points="155.6,110.9 155.6,110.9 155.6,110.9 	"/>
	<polygon class="st4" points="129.8,43.2 129.8,69.4 152.6,56.3 	"/>
	<path class="st5" d="M154,1.8c-8.6,0.3-16.8,2.5-23.9,6.3L154,21.9V1.8z"/>
	<polygon class="st4" points="129.8,11.7 129.8,37.8 152.6,24.8 	"/>
	<path class="st5" d="M126.6,10.1c-7,4.4-12.9,10.4-17.3,17.4l17.3,10V10.1z"/>
	<path class="st4" d="M181.4,8.3c-7.2-3.9-15.4-6.2-24.2-6.5v20.3L181.4,8.3z"/>
	<path class="st4" d="M101.1,58.2c0.3,8.7,2.6,16.8,6.5,24l17.5-10.1L101.1,58.2z"/>
	<path class="st4" d="M107.7,30.4c-3.9,7.2-6.2,15.3-6.5,23.9l24.1-13.8L107.7,30.4z"/>
	<path class="st5" d="M130,104.5c7.2,3.8,15.3,6.1,24,6.4V90.8L130,104.5z"/>
	<path class="st4" d="M202,27.6c-4.3-7-10.2-13-17.2-17.4v27.3L202,27.6z"/>
	<path class="st4" d="M184.8,102.4c7-4.4,12.9-10.4,17.3-17.5l-17.3-10V102.4z"/>
	<path class="st5" d="M210.1,54.1c-0.3-8.6-2.6-16.6-6.5-23.7l-17.3,10L210.1,54.1z"/>
	<path class="st4" d="M157.3,110.8c8.6-0.3,16.8-2.5,23.9-6.3l-23.9-13.8V110.8z"/>
	<polygon class="st5" points="126.6,69.2 126.6,43.4 104.2,56.3 	"/>
</g>
<circle class="st6" cx="155.6" cy="56.2" r="54.5"/>
<circle class="st6" cx="148" cy="166.2" r="54.5"/>
<circle class="st6" cx="247.1" cy="117.2" r="54.5"/>
</svg>
