<svg id="Layer_1" data-name="Layer 1" xmlns="http://www.w3.org/2000/svg" viewBox="0 0 246.33134 360"><defs><style>.cls-1{fill:none;}.cls-2{fill:#fff;}</style></defs><title>servicemeshinterface-stackedsmi-white</title><path class="cls-1" d="M115.09466,218.95657a11.53163,11.53163,0,1,0,2.321,2.321A11.43309,11.43309,0,0,0,115.09466,218.95657Z"/><circle class="cls-1" cx="200.21634" cy="44.6151" r="11.50011" transform="translate(27.09437 154.64179) rotate(-45)"/><circle class="cls-2" cx="16.21477" cy="44.15511" r="11.50011"/><path class="cls-2" d="M200.21636,124.65579a11.49394,11.49394,0,0,0-11.3241,9.55976l-52.54077,52.54077H79.45244L29.142,136.44608l80.95856-80.9585a11.4939,11.4939,0,1,0-13.29193-12.7298L14.8175,124.749a11.491,11.491,0,0,0-.68488,22.70929L66.81518,200.141V269.557H149.6159V199.514l51.94281-51.94281a11.49683,11.49683,0,0,0-1.34235-22.91541Zm-82.80072,110.38a11.4374,11.4374,0,1,1,2.3-6.87909A11.54614,11.54614,0,0,1,117.41564,235.03574Z"/><circle class="cls-2" cx="200.21634" cy="228.15666" r="11.50011" transform="translate(-102.68911 208.39987) rotate(-45)"/><circle class="cls-2" cx="16.21477" cy="228.15666" r="11.50011"/><path class="cls-2" d="M200.21636,3.21475A41.36763,41.36763,0,0,0,165.2647,66.76236l-57.93817,57.93835a11.49488,11.49488,0,1,0,12.12311,13.89856l58.87121-58.871A41.392,41.392,0,1,0,200.21636,3.21475Zm0,52.90045a11.50009,11.50009,0,1,1,11.50006-11.50012A11.51306,11.51306,0,0,1,200.21636,56.1152Z"/><path class="cls-2" d="M146.26592,322.02963v33.90918a26.25257,26.25257,0,0,0,4.02045.31745,23.29056,23.29056,0,0,0,3.86169-.31745V322.02963a21.27029,21.27029,0,0,0-4.02038-.31738A18.73014,18.73014,0,0,0,146.26592,322.02963Z"/><path class="cls-2" d="M70.93566,334.99026c-6.0835-1.4812-6.82416-2.2218-6.82416-3.91461,0-1.587,1.69281-2.75085,4.814-2.75085a15.07758,15.07758,0,0,1,8.67566,2.645,8.22722,8.22722,0,0,0,3.65014-6.40094c-2.01019-1.587-5.92486-3.49146-11.79681-3.49146-7.82929,0-13.01349,4.1792-13.01349,10.68592.05292,6.82415,5.07843,9.046,10.79169,10.42138,5.97772,1.53412,6.82415,2.53925,6.82415,4.285,0,1.8515-1.4812,3.06817-5.29,3.06817a15.86291,15.86291,0,0,1-9.73371-3.22693,8.30309,8.30309,0,0,0-3.65015,6.29517c2.169,1.90442,6.401,4.17914,13.22516,4.17914,8.14667,0,13.278-4.07331,13.11933-11.42652C81.62157,339.27518,77.28374,336.5773,70.93566,334.99026Z"/><path class="cls-2" d="M122.56652,322.02963l-8.464,20.94861-.529,1.69281-.63477-1.69281-9.15179-20.94861a30.30676,30.30676,0,0,0-4.28492-.31738,15.61965,15.61965,0,0,0-3.96753.42322v33.80334a22.09035,22.09035,0,0,0,3.59723.31745,23.34658,23.34658,0,0,0,3.703-.31745V339.5397L102.623,335.149l1.21673,3.22693,6.13648,14.70635a27.37607,27.37607,0,0,0,3.3327.21155,24.83919,24.83919,0,0,0,3.27985-.21155l5.819-14.65344,1.32251-3.86175-.26447,4.97265v16.39911a23.87088,23.87088,0,0,0,3.703.31745,22.09083,22.09083,0,0,0,3.59723-.31745V322.08255a21.45223,21.45223,0,0,0-4.02044-.3703A25.80257,25.80257,0,0,0,122.56652,322.02963Z"/></svg>