<svg width="528" height="372" viewBox="0 0 528 372" fill="none" xmlns="http://www.w3.org/2000/svg">
<path opacity="0.7" d="M447.562 329.568C447.562 329.568 474.378 275.491 435.06 232.763C393.818 187.946 462.139 153.803 439.111 92.4755C423.594 51.1547 334.617 48.9731 277.851 83.0371C221.086 117.101 212.338 14.0584 120.8 40.6885C43.7976 63.0889 68.1331 187.994 97.2242 242.632C112.683 271.665 100.17 301.629 93.8344 329.181L447.562 329.568Z" fill="url(#paint0_linear_19833_22701)"/>
<path opacity="0.3" d="M329.791 348.082C364.772 348.082 393.13 344.131 393.13 339.258C393.13 334.384 364.772 330.433 329.791 330.433C294.811 330.433 266.453 334.384 266.453 339.258C266.453 344.131 294.811 348.082 329.791 348.082Z" fill="url(#paint1_linear_19833_22701)"/>
<path opacity="0.3" d="M71.5844 367.012C106.565 367.012 134.923 361.695 134.923 355.138C134.923 348.58 106.565 343.264 71.5844 343.264C36.6036 343.264 8.24609 348.58 8.24609 355.138C8.24609 361.695 36.6036 367.012 71.5844 367.012Z" fill="url(#paint2_linear_19833_22701)"/>
<path d="M28.0469 328.661H503.776" stroke="url(#paint3_linear_19833_22701)" stroke-width="1.3068" stroke-miterlimit="10"/>
<path d="M333.738 289.464C333.741 289.557 333.741 289.646 333.741 289.739C333.741 293.134 331.914 296.399 328.541 299.444C327.719 300.191 326.802 300.92 325.801 301.635C322.995 303.64 319.503 305.533 315.418 307.285C314.534 307.666 313.617 308.039 312.677 308.404C309.509 309.639 306.036 310.798 302.295 311.863C301.397 312.119 300.484 312.373 299.554 312.617C296.276 313.489 292.806 314.291 289.168 315.023C288.264 315.205 287.351 315.382 286.427 315.555C283.094 316.181 279.627 316.745 276.045 317.249C275.137 317.377 274.227 317.499 273.304 317.621C269.932 318.054 266.468 318.436 262.921 318.757C262.011 318.837 261.097 318.917 260.181 318.991C256.789 319.267 253.322 319.488 249.798 319.652C248.887 319.694 247.974 319.732 247.057 319.767C243.646 319.893 240.183 319.97 236.674 319.989C236.065 319.992 235.45 319.995 234.841 319.995C234.54 319.995 234.235 319.995 233.934 319.992C230.425 319.982 226.962 319.918 223.548 319.8C222.628 319.767 221.717 319.732 220.807 319.694C218.212 319.581 215.643 319.434 213.116 319.264C212.213 319.203 211.315 319.136 210.424 319.068C209.504 318.998 208.594 318.921 207.684 318.84C204.136 318.532 200.67 318.163 197.301 317.743C196.378 317.628 195.467 317.509 194.56 317.381C192.413 317.089 190.307 316.771 188.243 316.434C186.87 316.21 185.515 315.975 184.178 315.732C183.254 315.562 182.341 315.388 181.437 315.212C177.805 314.5 174.336 313.714 171.051 312.864C170.403 312.697 169.762 312.527 169.123 312.353C168.848 312.28 168.579 312.203 168.31 312.129C166.827 311.718 165.379 311.288 163.982 310.849C161.86 310.182 159.842 309.485 157.928 308.764C156.988 308.404 156.075 308.045 155.187 307.679C151.685 306.226 148.594 304.673 145.977 303.037C145.575 302.787 145.18 302.533 144.804 302.277C144.328 301.959 143.871 301.638 143.434 301.314C142.954 300.961 142.501 300.605 142.063 300.243C138.101 296.974 135.938 293.435 135.938 289.743C135.938 289.483 135.951 289.223 135.973 288.966L135.983 268.059L142.06 268.049L144.801 268.043L155.184 268.03L157.924 268.024L166.026 268.011L168.307 268.007L171.048 268.001L181.434 267.988L184.174 267.985L194.557 267.969L197.298 267.966L207.68 267.95L210.421 267.947L220.804 267.934L223.545 267.927L233.93 267.914L236.671 267.908L247.054 267.895L249.795 267.892L260.177 267.876L262.918 267.873L273.301 267.857L276.041 267.853L286.424 267.837L289.165 267.831L299.551 267.818L302.291 267.812H302.968L312.674 267.796L315.415 267.793L325.797 267.776L328.538 267.773L333.702 267.764L333.738 289.464Z" fill="url(#paint4_linear_19833_22701)"/>
<path d="M144.791 268.039V302.273C144.315 301.955 143.858 301.635 143.421 301.311C142.942 300.958 142.488 300.602 142.051 300.239V268.045L144.791 268.039Z" fill="#DA8928"/>
<path d="M157.92 268.02V308.76C156.981 308.4 156.067 308.041 155.18 307.675V268.026L157.92 268.02Z" fill="#DA8928"/>
<path d="M171.041 268.001V312.86C170.393 312.693 169.752 312.523 169.114 312.35C168.839 312.276 168.57 312.199 168.301 312.126V268.007L171.041 268.001Z" fill="#DA8928"/>
<path d="M184.166 267.984V315.728C183.243 315.558 182.33 315.385 181.426 315.208V267.988L184.166 267.984Z" fill="#DA8928"/>
<path d="M197.295 267.966V317.74C196.372 317.625 195.462 317.506 194.555 317.378V267.966H197.295Z" fill="#DA8928"/>
<path d="M210.416 267.942V319.064C209.496 318.993 208.586 318.916 207.676 318.836V267.946L210.416 267.942Z" fill="#DA8928"/>
<path d="M223.541 267.924V319.799C222.621 319.767 221.711 319.732 220.801 319.694V267.93L223.541 267.924Z" fill="#DA8928"/>
<path d="M236.67 267.904V319.988C236.061 319.991 235.446 319.995 234.837 319.995C234.535 319.995 234.231 319.995 233.93 319.992V267.911L236.67 267.904Z" fill="#DA8928"/>
<path d="M249.795 267.889V319.652C248.885 319.694 247.971 319.732 247.055 319.767V267.892L249.795 267.889Z" fill="#DA8928"/>
<path d="M262.916 267.869V318.76C262.006 318.84 261.093 318.92 260.176 318.994V267.872L262.916 267.869Z" fill="#DA8928"/>
<path d="M276.045 267.85V317.252C275.138 317.38 274.228 317.502 273.305 317.624V267.853L276.045 267.85Z" fill="#DA8928"/>
<path d="M289.166 267.831V315.026C288.263 315.209 287.349 315.385 286.426 315.558V267.834L289.166 267.831Z" fill="#DA8928"/>
<path d="M302.295 267.81V311.864C301.398 312.12 300.484 312.374 299.555 312.617V267.816L302.295 267.81Z" fill="#DA8928"/>
<path d="M315.424 267.793V307.288C314.54 307.67 313.623 308.042 312.684 308.408V267.796L315.424 267.793Z" fill="#DA8928"/>
<path d="M328.541 267.773V299.444C327.719 300.192 326.802 300.92 325.801 301.635V267.773H328.541Z" fill="#DA8928"/>
<path d="M333.72 268.03C333.72 283.387 289.458 295.838 234.842 295.838C227.382 295.838 220.112 295.607 213.124 295.164C204.336 294.613 195.987 293.727 188.254 292.563C181.351 291.523 174.94 290.262 169.141 288.809C167.369 288.366 165.652 287.904 164 287.426C156.727 285.328 150.63 282.906 146.001 280.247C145.094 279.727 144.245 279.201 143.458 278.662C138.628 275.386 135.965 271.793 135.965 268.027C135.965 267.684 135.991 267.337 136.046 266.994C137.964 252.115 181.464 240.219 234.845 240.219C247.982 240.219 260.519 240.941 271.984 242.246C274.199 242.5 276.373 242.772 278.505 243.071C287.818 244.36 296.3 246.054 303.673 248.063C305.296 248.505 306.867 248.964 308.383 249.436C313.767 251.12 318.432 252.987 322.239 255.005C326.162 257.084 329.175 259.323 331.128 261.675C332.553 263.391 333.412 265.172 333.648 266.994C333.697 267.34 333.72 267.687 333.72 268.03Z" fill="url(#paint5_linear_19833_22701)"/>
<path d="M313.869 268.031C313.869 268.371 313.836 268.714 313.791 269.051C311.883 280.834 277.203 290.257 234.837 290.257C192.47 290.257 157.791 280.834 155.882 269.051C155.837 268.714 155.805 268.371 155.805 268.031C155.805 255.776 191.255 245.805 234.837 245.805C278.418 245.805 313.869 255.776 313.869 268.031Z" fill="#DA8928"/>
<path d="M313.796 269.05C311.888 280.834 277.208 290.256 234.842 290.256C233.892 290.256 232.956 290.249 232.02 290.24C222.57 290.147 213.538 289.585 205.203 288.633C196.868 287.68 189.235 286.342 182.597 284.69C180.91 284.273 179.29 283.833 177.722 283.374C170.644 281.286 164.974 278.819 161.194 276.082C160.277 275.428 159.474 274.754 158.79 274.074C157.157 272.464 156.176 270.779 155.891 269.047C157.799 257.263 192.478 247.838 234.845 247.838C240.203 247.838 245.441 247.989 250.515 248.277C253.096 248.425 255.643 248.608 258.134 248.823C268.313 249.708 277.62 251.155 285.592 253.038C287.313 253.446 288.978 253.872 290.578 254.322C296.785 256.057 301.981 258.085 305.872 260.321C309.665 262.499 312.225 264.876 313.303 267.379C313.54 267.93 313.705 268.489 313.796 269.05Z" fill="url(#paint6_linear_19833_22701)"/>
<path d="M245.83 280.645V284.337H229.15V280.812C217.319 280.613 205.845 279.714 198.75 278.482L207.74 272.759C215.547 274.058 225.956 274.889 235.065 274.889C242.992 274.889 245.83 274.424 245.83 273.625C245.83 270.696 200.052 273.061 200.052 264.376C200.052 260.616 209.752 257.456 229.153 256.69V253.064H245.834V256.626C254.587 256.86 263.104 257.492 269.845 258.557L261.448 264.245C253.285 263.08 245.597 262.516 238.383 262.516C230.219 262.516 227.618 263.183 227.618 263.979C227.618 266.773 273.396 264.444 273.396 273.029C273.392 276.619 264.166 279.747 245.83 280.645Z" fill="#DA8928"/>
<path d="M245.343 279.414V283.107H228.665V279.581C216.835 279.382 205.36 278.484 198.266 277.252L207.255 271.528C215.063 272.825 225.471 273.659 234.581 273.659C242.505 273.659 245.346 273.193 245.346 272.395C245.346 269.466 199.568 271.83 199.568 263.146C199.568 259.386 209.267 256.226 228.669 255.462V251.837H245.346V255.395C254.099 255.629 262.616 256.261 269.361 257.323L260.964 263.011C252.8 261.846 245.113 261.282 237.895 261.282C229.734 261.282 227.13 261.946 227.13 262.745C227.13 265.539 272.908 263.21 272.908 271.795C272.905 275.388 263.678 278.516 245.343 279.414Z" fill="url(#paint7_linear_19833_22701)"/>
<path d="M308.733 255.6C308.736 255.693 308.736 255.782 308.736 255.875C308.736 259.27 306.909 262.536 303.537 265.58C302.714 266.328 301.797 267.056 300.796 267.771C297.991 269.776 294.499 271.669 290.413 273.421C289.529 273.802 288.612 274.175 287.673 274.54C284.505 275.775 281.032 276.934 277.29 277.999C276.393 278.255 275.479 278.509 274.549 278.753C271.271 279.622 267.801 280.427 264.163 281.159C263.26 281.342 262.346 281.518 261.423 281.691C258.089 282.317 254.623 282.881 251.04 283.385C250.133 283.513 249.223 283.635 248.299 283.757C244.927 284.19 241.464 284.572 237.917 284.893C237.006 284.973 236.093 285.053 235.176 285.127C231.784 285.403 228.318 285.624 224.793 285.788C223.883 285.83 222.969 285.868 222.053 285.904C218.641 286.029 215.178 286.106 211.67 286.125C211.061 286.128 210.445 286.131 209.836 286.131C209.535 286.131 209.23 286.131 208.929 286.128C205.421 286.118 201.958 286.054 198.543 285.936C197.623 285.904 196.713 285.868 195.803 285.83C193.208 285.718 190.639 285.57 188.112 285.4C187.208 285.339 186.311 285.272 185.42 285.201C184.5 285.13 183.589 285.053 182.679 284.973C179.132 284.665 175.665 284.296 172.296 283.876C171.373 283.761 170.463 283.642 169.556 283.513C167.408 283.222 165.302 282.904 163.239 282.567C161.865 282.342 160.511 282.108 159.173 281.861C158.25 281.691 157.336 281.518 156.432 281.342C152.801 280.629 149.331 279.843 146.046 278.993C145.398 278.826 144.757 278.656 144.119 278.483C143.843 278.409 143.575 278.332 143.306 278.259C141.822 277.848 140.374 277.418 138.974 276.979C136.853 276.311 134.834 275.615 132.92 274.893C131.98 274.537 131.067 274.175 130.179 273.809C126.677 272.356 123.587 270.803 120.969 269.167C120.567 268.917 120.172 268.663 119.796 268.406C119.32 268.089 118.863 267.768 118.426 267.444C117.947 267.091 117.49 266.735 117.056 266.372C113.094 263.103 110.93 259.565 110.93 255.872C110.93 255.612 110.943 255.352 110.965 255.096L110.975 234.188L117.052 234.179L119.793 234.172L130.176 234.156L132.917 234.15L141.019 234.14L143.299 234.137L146.04 234.131L156.426 234.118L159.167 234.115L169.549 234.099L172.29 234.095L182.673 234.079L185.413 234.076L195.796 234.063L198.537 234.057L208.923 234.044L211.663 234.038L222.046 234.025L224.787 234.022L235.169 234.006L237.91 234.002L248.293 233.986L251.034 233.983L261.416 233.97L264.157 233.964L274.543 233.951L277.284 233.945H277.961L287.666 233.929L290.407 233.925L300.79 233.909L303.53 233.906L308.694 233.896L308.73 255.596H308.733V255.6Z" fill="url(#paint8_linear_19833_22701)"/>
<path d="M119.784 234.179V268.413C119.307 268.095 118.851 267.774 118.413 267.45C117.934 267.097 117.477 266.741 117.043 266.379V234.185L119.784 234.179Z" fill="#DA8928"/>
<path d="M132.913 234.157V274.897C131.973 274.541 131.06 274.179 130.172 273.813V234.164L132.913 234.157Z" fill="#DA8928"/>
<path d="M146.034 234.137V278.996C145.386 278.829 144.744 278.659 144.106 278.486C143.831 278.412 143.562 278.335 143.293 278.261V234.143L146.034 234.137Z" fill="#DA8928"/>
<path d="M159.162 234.12V281.864C158.239 281.693 157.326 281.52 156.422 281.344V234.123L159.162 234.12Z" fill="#DA8928"/>
<path d="M172.288 234.102V283.876C171.364 283.76 170.454 283.642 169.547 283.513V234.102H172.288Z" fill="#DA8928"/>
<path d="M185.409 234.083V285.205C184.489 285.134 183.578 285.057 182.668 284.977V234.086L185.409 234.083Z" fill="#DA8928"/>
<path d="M198.534 234.063V285.939C197.614 285.907 196.703 285.872 195.793 285.833V234.067L198.534 234.063Z" fill="#DA8928"/>
<path d="M211.662 234.041V286.125C211.053 286.128 210.438 286.131 209.829 286.131C209.528 286.131 209.223 286.131 208.922 286.128V234.047L211.662 234.041Z" fill="#DA8928"/>
<path d="M224.787 234.024V285.788C223.877 285.829 222.964 285.868 222.047 285.903V234.028L224.787 234.024Z" fill="#DA8928"/>
<path d="M237.909 234.006V284.896C236.998 284.977 236.085 285.057 235.168 285.131V234.009L237.909 234.006Z" fill="#DA8928"/>
<path d="M251.037 233.985V283.387C250.13 283.516 249.22 283.638 248.297 283.759V233.988L251.037 233.985Z" fill="#DA8928"/>
<path d="M264.163 233.967V281.162C263.259 281.344 262.345 281.521 261.422 281.694V233.97L264.163 233.967Z" fill="#DA8928"/>
<path d="M277.288 233.947V278.001C276.39 278.258 275.477 278.511 274.547 278.755V233.95L277.288 233.947Z" fill="#DA8928"/>
<path d="M290.409 233.929V273.424C289.524 273.806 288.607 274.178 287.668 274.544V233.932L290.409 233.929Z" fill="#DA8928"/>
<path d="M303.538 233.909V265.58C302.715 266.327 301.798 267.056 300.797 267.771V233.909H303.538Z" fill="#DA8928"/>
<path d="M308.716 234.167C308.716 249.524 264.454 261.975 209.835 261.975C202.374 261.975 195.105 261.744 188.117 261.301C179.328 260.749 170.983 259.864 163.25 258.699C156.347 257.66 149.936 256.399 144.137 254.946C142.365 254.503 140.648 254.041 138.996 253.563C131.723 251.462 125.626 249.043 120.997 246.383C120.09 245.864 119.241 245.337 118.454 244.799C113.624 241.523 110.961 237.93 110.961 234.164C110.961 233.82 110.987 233.474 111.042 233.131C112.96 218.251 156.46 206.355 209.842 206.355C222.978 206.355 235.515 207.074 246.98 208.383C249.196 208.636 251.369 208.909 253.501 209.208C262.815 210.497 271.296 212.191 278.669 214.199C280.292 214.642 281.863 215.101 283.379 215.572C288.767 217.257 293.428 219.124 297.235 221.142C301.158 223.221 304.171 225.457 306.124 227.811C307.55 229.528 308.411 231.308 308.644 233.131C308.693 233.477 308.716 233.824 308.716 234.167Z" fill="url(#paint9_linear_19833_22701)"/>
<path d="M288.868 234.167C288.868 234.507 288.836 234.851 288.791 235.188C286.883 246.971 252.203 256.393 209.837 256.393C167.47 256.393 132.791 246.971 130.882 235.188C130.837 234.851 130.805 234.507 130.805 234.167C130.805 221.912 166.258 211.941 209.837 211.941C253.418 211.941 288.868 221.912 288.868 234.167Z" fill="#DA8928"/>
<path d="M288.789 235.187C286.881 246.97 252.201 256.392 209.834 256.392C208.885 256.392 207.949 256.386 207.013 256.377C197.563 256.283 188.531 255.722 180.196 254.769C171.861 253.816 164.228 252.479 157.59 250.826C155.903 250.409 154.283 249.97 152.718 249.511C145.64 247.423 139.97 244.955 136.19 242.219C135.273 241.564 134.47 240.891 133.786 240.211C132.153 238.6 131.172 236.916 130.887 235.184C132.795 223.397 167.474 213.975 209.841 213.975C215.199 213.975 220.438 214.125 225.511 214.414C228.093 214.562 230.639 214.741 233.13 214.96C243.309 215.842 252.616 217.292 260.588 219.175C262.309 219.582 263.974 220.009 265.574 220.458C271.781 222.194 276.977 224.221 280.868 226.457C284.661 228.639 287.221 231.013 288.299 233.515C288.536 234.067 288.701 234.625 288.789 235.187Z" fill="url(#paint10_linear_19833_22701)"/>
<path d="M220.826 246.778V250.47H204.146V246.944C192.318 246.746 180.844 245.847 173.746 244.615L182.736 238.892C190.543 240.191 200.952 241.022 210.061 241.022C217.989 241.022 220.826 240.557 220.826 239.758C220.826 236.829 175.048 239.194 175.048 230.509C175.048 226.749 184.748 223.589 204.149 222.822V219.197H220.83V222.758C229.583 222.993 238.1 223.625 244.841 224.69L236.444 230.378C228.281 229.213 220.593 228.648 213.379 228.648C205.215 228.648 202.614 229.316 202.614 230.111C202.614 232.906 248.392 230.576 248.392 239.161C248.388 242.751 239.162 245.879 220.826 246.778Z" fill="#DA8928"/>
<path d="M220.339 245.549V249.242H203.662V245.716C191.831 245.517 180.356 244.619 173.262 243.387L182.252 237.663C190.059 238.96 200.467 239.794 209.577 239.794C217.501 239.794 220.342 239.328 220.342 238.53C220.342 235.601 174.564 237.965 174.564 229.281C174.564 225.521 184.263 222.361 203.665 221.594V217.969H220.342V221.527C229.095 221.761 237.612 222.393 244.357 223.455L235.96 229.143C227.796 227.978 220.109 227.413 212.891 227.413C204.727 227.413 202.126 228.078 202.126 228.876C202.126 231.671 247.904 229.342 247.904 237.927C247.901 241.523 238.675 244.651 220.339 245.549Z" fill="url(#paint11_linear_19833_22701)"/>
<path d="M347.632 226.937C347.635 227.03 347.635 227.12 347.635 227.213C347.635 230.607 345.808 233.873 342.436 236.918C341.613 237.665 340.696 238.394 339.695 239.109C336.89 241.114 333.398 243.007 329.313 244.759C328.428 245.14 327.511 245.512 326.572 245.878C323.404 247.113 319.931 248.271 316.189 249.337C315.292 249.593 314.378 249.847 313.449 250.09C310.17 250.963 306.701 251.765 303.063 252.497C302.159 252.679 301.245 252.859 300.322 253.029C296.988 253.655 293.522 254.219 289.939 254.723C289.032 254.851 288.122 254.973 287.198 255.095C283.826 255.528 280.363 255.91 276.816 256.231C275.905 256.311 274.992 256.391 274.075 256.465C270.683 256.741 267.217 256.962 263.692 257.126C262.782 257.168 261.869 257.206 260.952 257.241C257.54 257.367 254.077 257.444 250.569 257.463C249.96 257.466 249.344 257.469 248.735 257.469C248.434 257.469 248.13 257.469 247.828 257.466C244.32 257.456 240.857 257.392 237.442 257.274C236.522 257.241 235.612 257.206 234.702 257.168C232.104 257.055 229.538 256.908 227.011 256.738C226.107 256.677 225.21 256.609 224.319 256.542C223.399 256.471 222.489 256.394 221.578 256.314C218.031 256.006 214.565 255.637 211.196 255.217C210.272 255.102 209.362 254.983 208.455 254.854C206.307 254.563 204.201 254.245 202.138 253.908C200.764 253.684 199.41 253.449 198.072 253.202C197.149 253.032 196.235 252.859 195.331 252.683C191.7 251.97 188.23 251.184 184.946 250.334C184.298 250.167 183.656 249.997 183.018 249.824C182.743 249.75 182.474 249.673 182.205 249.6C180.721 249.189 179.273 248.759 177.877 248.32C175.755 247.652 173.737 246.956 171.822 246.234C170.883 245.875 169.969 245.516 169.081 245.15C165.576 243.697 162.489 242.144 159.871 240.508C159.47 240.258 159.074 240.004 158.699 239.747C158.222 239.43 157.766 239.109 157.328 238.785C156.849 238.432 156.392 238.076 155.958 237.713C151.996 234.444 149.832 230.906 149.832 227.213C149.832 226.953 149.845 226.694 149.868 226.437L149.877 205.529L155.955 205.52L158.695 205.514L169.078 205.501L171.819 205.494L179.921 205.481L182.202 205.478L184.942 205.472L195.328 205.459L198.069 205.456L208.452 205.44L211.192 205.436L221.575 205.42L224.316 205.417L234.698 205.404L237.439 205.398L247.825 205.385L250.566 205.379L260.948 205.366L263.689 205.363L274.072 205.347L276.813 205.343L287.195 205.327L289.936 205.324L300.319 205.308L303.059 205.302L313.445 205.289L316.186 205.282H316.863L326.569 205.266L329.309 205.263L339.692 205.247L342.433 205.244L347.596 205.234L347.632 226.937Z" fill="url(#paint12_linear_19833_22701)"/>
<path d="M158.686 205.515V239.749C158.21 239.431 157.753 239.11 157.316 238.786C156.836 238.433 156.379 238.077 155.945 237.715V205.521L158.686 205.515Z" fill="#DA8928"/>
<path d="M171.811 205.495V246.235C170.872 245.876 169.958 245.517 169.07 245.151V205.502L171.811 205.495Z" fill="#DA8928"/>
<path d="M184.936 205.473V250.332C184.288 250.165 183.647 249.995 183.008 249.822C182.733 249.748 182.464 249.671 182.195 249.597V205.479L184.936 205.473Z" fill="#DA8928"/>
<path d="M198.061 205.457V253.2C197.138 253.03 196.224 252.857 195.32 252.681V205.46L198.061 205.457Z" fill="#DA8928"/>
<path d="M211.19 205.438V255.212C210.267 255.096 209.356 254.978 208.449 254.849V205.438H211.19Z" fill="#DA8928"/>
<path d="M224.311 205.419V256.541C223.391 256.47 222.481 256.393 221.57 256.313V205.422L224.311 205.419Z" fill="#DA8928"/>
<path d="M237.436 205.399V257.275C236.516 257.243 235.606 257.208 234.695 257.169V205.406L237.436 205.399Z" fill="#DA8928"/>
<path d="M250.565 205.38V257.464C249.956 257.467 249.34 257.47 248.731 257.47C248.43 257.47 248.125 257.47 247.824 257.467V205.386L250.565 205.38Z" fill="#DA8928"/>
<path d="M263.69 205.36V257.124C262.78 257.165 261.866 257.204 260.949 257.239V205.364L263.69 205.36Z" fill="#DA8928"/>
<path d="M276.811 205.341V256.231C275.901 256.312 274.987 256.392 274.07 256.466V205.344L276.811 205.341Z" fill="#DA8928"/>
<path d="M289.94 205.322V254.724C289.033 254.853 288.122 254.974 287.199 255.096V205.325L289.94 205.322Z" fill="#DA8928"/>
<path d="M303.061 205.303V252.498C302.157 252.68 301.244 252.86 300.32 253.03V205.306L303.061 205.303Z" fill="#DA8928"/>
<path d="M316.19 205.283V249.337C315.293 249.594 314.379 249.847 313.449 250.091V205.286L316.19 205.283Z" fill="#DA8928"/>
<path d="M329.315 205.265V244.76C328.431 245.142 327.514 245.514 326.574 245.88V205.268L329.315 205.265Z" fill="#DA8928"/>
<path d="M342.436 205.245V236.916C341.613 237.663 340.696 238.392 339.695 239.107V205.245H342.436Z" fill="#DA8928"/>
<path d="M347.614 205.502C347.614 220.859 303.352 233.31 248.733 233.31C241.273 233.31 234.003 233.079 227.016 232.636C218.227 232.084 209.882 231.199 202.149 230.034C195.245 228.995 188.834 227.734 183.036 226.281C181.264 225.838 179.547 225.376 177.894 224.898C170.622 222.8 164.525 220.378 159.895 217.718C158.988 217.199 158.14 216.672 157.352 216.133C152.522 212.858 149.859 209.265 149.859 205.499C149.859 205.155 149.885 204.809 149.94 204.466C151.858 189.586 195.359 177.69 248.74 177.69C261.876 177.69 274.413 178.412 285.878 179.718C288.094 179.971 290.268 180.244 292.399 180.542C301.713 181.832 310.194 183.526 317.567 185.534C319.19 185.977 320.762 186.436 322.278 186.907C327.662 188.592 332.327 190.459 336.133 192.477C340.056 194.556 343.069 196.795 345.022 199.146C346.448 200.863 347.306 202.643 347.543 204.466C347.595 204.815 347.614 205.158 347.614 205.502Z" fill="url(#paint13_linear_19833_22701)"/>
<path d="M327.771 205.502C327.771 205.842 327.739 206.186 327.693 206.523C325.785 218.306 291.106 227.728 248.739 227.728C206.372 227.728 171.693 218.306 169.785 206.523C169.739 206.186 169.707 205.842 169.707 205.502C169.707 193.247 205.161 183.276 248.739 183.276C292.317 183.276 327.771 193.247 327.771 205.502Z" fill="#DA8928"/>
<path d="M327.694 206.522C325.786 218.305 291.107 227.727 248.74 227.727C247.791 227.727 246.855 227.721 245.918 227.711C236.469 227.618 227.437 227.057 219.101 226.104C210.766 225.151 203.134 223.814 196.496 222.161C194.808 221.744 193.188 221.305 191.62 220.846C184.542 218.758 178.873 216.29 175.092 213.554C174.175 212.899 173.372 212.226 172.688 211.546C171.056 209.935 170.074 208.251 169.789 206.519C171.697 194.735 206.376 185.31 248.743 185.31C254.101 185.31 259.34 185.46 264.413 185.749C266.995 185.897 269.541 186.076 272.032 186.294C282.211 187.18 291.518 188.627 299.491 190.51C301.211 190.917 302.876 191.344 304.476 191.793C310.683 193.529 315.88 195.556 319.77 197.792C323.564 199.974 326.123 202.348 327.202 204.85C327.441 205.402 327.607 205.964 327.694 206.522Z" fill="url(#paint14_linear_19833_22701)"/>
<path d="M259.729 218.114V221.806H243.048V218.28C231.218 218.081 219.743 217.183 212.648 215.951L221.638 210.228C229.445 211.527 239.854 212.358 248.964 212.358C256.891 212.358 259.729 211.893 259.729 211.094C259.729 208.165 213.951 210.529 213.951 201.845C213.951 198.085 223.65 194.925 243.052 194.158V190.533H259.732V194.094C268.485 194.328 277.002 194.96 283.747 196.026L275.35 201.714C267.186 200.549 259.499 199.984 252.284 199.984C244.121 199.984 241.519 200.648 241.519 201.447C241.519 204.242 287.297 201.912 287.297 210.497C287.291 214.087 278.061 217.215 259.729 218.114Z" fill="#DA8928"/>
<path d="M259.241 216.885V220.577H242.564V217.051C230.733 216.853 219.259 215.954 212.164 214.722L221.154 208.999C228.961 210.295 239.37 211.129 248.479 211.129C256.407 211.129 259.244 210.664 259.244 209.865C259.244 206.936 213.466 209.301 213.466 200.616C213.466 196.856 223.166 193.696 242.567 192.933V189.308H259.244V192.865C267.998 193.1 276.514 193.732 283.259 194.793L274.862 200.482C266.699 199.317 259.011 198.752 251.793 198.752C243.633 198.752 241.028 199.416 241.028 200.215C241.028 203.01 286.806 200.68 286.806 209.265C286.803 212.858 277.577 215.986 259.241 216.885Z" fill="url(#paint15_linear_19833_22701)"/>
<path d="M326.807 195.327C326.811 195.42 326.811 195.51 326.811 195.603C326.811 198.997 324.983 202.263 321.611 205.307C320.788 206.055 319.871 206.783 318.87 207.499C316.065 209.504 312.573 211.397 308.488 213.151C307.603 213.533 306.686 213.905 305.747 214.271C302.579 215.506 299.106 216.664 295.364 217.729C294.467 217.986 293.553 218.24 292.624 218.483C289.345 219.356 285.876 220.158 282.238 220.889C281.334 221.072 280.424 221.249 279.497 221.422C276.163 222.048 272.697 222.612 269.114 223.116C268.207 223.244 267.297 223.366 266.374 223.488C263.004 223.921 259.538 224.303 255.991 224.624C255.081 224.704 254.167 224.784 253.25 224.858C249.858 225.134 246.392 225.355 242.867 225.519C241.957 225.56 241.044 225.599 240.127 225.634C236.716 225.759 233.252 225.836 229.744 225.856C229.135 225.859 228.519 225.862 227.91 225.862C227.609 225.862 227.305 225.862 227.003 225.859C223.495 225.849 220.032 225.785 216.617 225.666C215.697 225.634 214.784 225.599 213.877 225.56C211.282 225.448 208.713 225.301 206.186 225.131C205.282 225.07 204.385 225.002 203.494 224.932C202.574 224.861 201.664 224.784 200.753 224.704C197.206 224.396 193.74 224.027 190.371 223.607C189.447 223.491 188.537 223.372 187.63 223.244C185.482 222.952 183.376 222.635 181.313 222.298C179.939 222.073 178.585 221.839 177.247 221.592C176.327 221.422 175.41 221.249 174.507 221.072C170.875 220.36 167.406 219.574 164.121 218.724C163.473 218.557 162.831 218.387 162.193 218.214C161.921 218.14 161.649 218.063 161.38 217.989C159.896 217.579 158.448 217.149 157.049 216.709C154.927 216.042 152.909 215.346 150.994 214.624C150.055 214.265 149.141 213.905 148.253 213.54C144.751 212.086 141.661 210.534 139.043 208.897C138.642 208.647 138.246 208.394 137.871 208.137C137.394 207.819 136.938 207.499 136.5 207.175C136.021 206.822 135.564 206.466 135.13 206.103C131.168 202.834 129.004 199.295 129.004 195.603C129.004 195.343 129.017 195.083 129.04 194.827L129.049 173.919L135.127 173.91L137.867 173.903L148.25 173.89L150.991 173.884L159.093 173.871L161.373 173.868L164.114 173.861L174.5 173.849L177.241 173.845L187.623 173.829L190.364 173.826L200.747 173.81L203.488 173.807L213.87 173.794L216.611 173.788L226.997 173.775L229.738 173.768L240.12 173.756L242.861 173.752L253.244 173.736L255.984 173.733L266.367 173.717L269.108 173.714L279.49 173.698L282.231 173.691L292.617 173.679L295.358 173.672H296.035L305.74 173.656L308.481 173.653L318.864 173.637L321.605 173.634L326.768 173.624L326.807 195.324V195.327Z" fill="url(#paint16_linear_19833_22701)"/>
<path d="M137.862 173.905V208.139C137.386 207.822 136.929 207.501 136.491 207.177C136.012 206.824 135.555 206.468 135.121 206.105V173.912L137.862 173.905Z" fill="#DA8928"/>
<path d="M150.987 173.883V214.623C150.047 214.264 149.134 213.904 148.246 213.539V173.889L150.987 173.883Z" fill="#DA8928"/>
<path d="M164.108 173.863V218.723C163.46 218.556 162.819 218.386 162.18 218.213C161.908 218.139 161.636 218.062 161.367 217.988V173.87L164.108 173.863Z" fill="#DA8928"/>
<path d="M177.241 173.847V221.59C176.321 221.42 175.404 221.247 174.5 221.07V173.85L177.241 173.847Z" fill="#DA8928"/>
<path d="M190.366 173.828V223.602C189.442 223.487 188.532 223.368 187.625 223.24V173.828H190.366Z" fill="#DA8928"/>
<path d="M203.487 173.81V224.931C202.567 224.861 201.656 224.784 200.746 224.703V173.813L203.487 173.81Z" fill="#DA8928"/>
<path d="M216.612 173.786V225.662C215.692 225.629 214.778 225.594 213.871 225.556V173.792L216.612 173.786Z" fill="#DA8928"/>
<path d="M229.741 173.768V225.852C229.132 225.855 228.516 225.858 227.907 225.858C227.606 225.858 227.301 225.858 227 225.855V173.774L229.741 173.768Z" fill="#DA8928"/>
<path d="M242.862 173.751V225.514C241.951 225.556 241.038 225.594 240.121 225.63V173.754L242.862 173.751Z" fill="#DA8928"/>
<path d="M255.987 173.732V224.623C255.076 224.703 254.163 224.783 253.246 224.857V173.736L255.987 173.732Z" fill="#DA8928"/>
<path d="M269.108 173.713V223.115C268.201 223.243 267.29 223.365 266.367 223.487V173.716L269.108 173.713Z" fill="#DA8928"/>
<path d="M282.233 173.693V220.888C281.329 221.071 280.419 221.247 279.492 221.421V173.696L282.233 173.693Z" fill="#DA8928"/>
<path d="M295.366 173.674V217.728C294.468 217.985 293.555 218.238 292.625 218.482V173.677L295.366 173.674Z" fill="#DA8928"/>
<path d="M308.487 173.655V213.151C307.602 213.532 306.686 213.905 305.746 214.27V173.659L308.487 173.655Z" fill="#DA8928"/>
<path d="M321.612 173.636V205.306C320.789 206.054 319.872 206.782 318.871 207.498V173.636H321.612Z" fill="#DA8928"/>
<path d="M326.793 173.893C326.793 189.251 282.531 201.701 227.912 201.701C220.452 201.701 213.182 201.47 206.195 201.028C197.406 200.476 189.061 199.59 181.325 198.426C174.421 197.387 168.01 196.126 162.211 194.672C160.439 194.23 158.722 193.768 157.07 193.29C149.797 191.192 143.701 188.77 139.071 186.11C138.164 185.59 137.315 185.064 136.528 184.525C131.698 181.25 129.035 177.656 129.035 173.89C129.035 173.547 129.061 173.2 129.116 172.857C131.034 157.978 174.534 146.082 227.916 146.082C241.052 146.082 253.589 146.804 265.054 148.11C267.27 148.363 269.443 148.636 271.575 148.934C280.889 150.224 289.37 151.918 296.743 153.926C298.366 154.369 299.937 154.827 301.453 155.299C306.841 156.983 311.503 158.85 315.309 160.868C319.232 162.947 322.245 165.183 324.198 167.538C325.624 169.254 326.482 171.035 326.719 172.857C326.774 173.204 326.793 173.55 326.793 173.893Z" fill="url(#paint17_linear_19833_22701)"/>
<path d="M306.947 173.894C306.947 174.234 306.914 174.577 306.869 174.914C304.961 186.697 270.281 196.12 227.915 196.12C185.548 196.12 150.869 186.697 148.961 174.914C148.915 174.577 148.883 174.234 148.883 173.894C148.883 161.639 184.336 151.668 227.915 151.668C271.493 151.668 306.947 161.639 306.947 173.894Z" fill="#DA8928"/>
<path d="M306.866 174.915C304.958 186.698 270.279 196.12 227.912 196.12C226.963 196.12 226.026 196.114 225.09 196.104C215.64 196.011 206.609 195.45 198.273 194.497C189.938 193.544 182.306 192.206 175.668 190.554C173.98 190.137 172.36 189.698 170.792 189.239C163.714 187.15 158.045 184.683 154.264 181.947C153.347 181.292 152.544 180.619 151.86 179.935C150.228 178.325 149.246 176.644 148.961 174.908C150.869 163.125 185.548 153.699 227.915 153.699C233.273 153.699 238.512 153.85 243.585 154.139C246.167 154.286 248.713 154.466 251.204 154.684C261.383 155.569 270.69 157.016 278.663 158.9C280.383 159.307 282.048 159.734 283.648 160.183C289.859 161.918 295.051 163.946 298.942 166.182C302.736 168.364 305.295 170.738 306.374 173.24C306.613 173.795 306.779 174.353 306.866 174.915Z" fill="url(#paint18_linear_19833_22701)"/>
<path d="M238.904 186.507V190.199H222.224V186.674C210.397 186.475 198.922 185.576 191.824 184.345L200.814 178.621C208.621 179.917 219.03 180.751 228.139 180.751C236.067 180.751 238.904 180.286 238.904 179.487C238.904 176.558 193.126 178.923 193.126 170.238C193.126 166.478 202.826 163.318 222.227 162.555V158.93H238.908V162.491C247.661 162.725 256.178 163.357 262.922 164.422L254.522 170.11C246.359 168.945 238.671 168.381 231.457 168.381C223.293 168.381 220.692 169.045 220.692 169.844C220.692 172.638 266.47 170.309 266.47 178.894C266.467 182.481 257.237 185.608 238.904 186.507Z" fill="#DA8928"/>
<path d="M238.42 185.277V188.97H221.74V185.444C209.909 185.245 198.434 184.347 191.34 183.115L200.33 177.392C208.137 178.688 218.546 179.522 227.655 179.522C235.582 179.522 238.42 179.057 238.42 178.258C238.42 175.329 192.642 177.693 192.642 169.009C192.642 165.249 202.341 162.089 221.743 161.325V157.7H238.423V161.258C247.177 161.492 255.693 162.124 262.438 163.186L254.041 168.874C245.878 167.71 238.19 167.145 230.972 167.145C222.809 167.145 220.207 167.809 220.207 168.608C220.207 171.402 265.985 169.073 265.985 177.658C265.982 181.251 256.756 184.379 238.42 185.277Z" fill="url(#paint19_linear_19833_22701)"/>
<path d="M360.499 165.962C360.502 166.055 360.502 166.145 360.502 166.238C360.502 169.632 358.672 172.898 355.302 175.943C354.48 176.69 353.563 177.418 352.562 178.134C349.756 180.139 346.264 182.032 342.179 183.786C341.295 184.168 340.378 184.54 339.438 184.906C336.27 186.144 332.797 187.299 329.056 188.364C328.158 188.621 327.245 188.874 326.315 189.118C323.037 189.991 319.567 190.793 315.929 191.524C315.025 191.707 314.115 191.887 313.188 192.057C309.855 192.683 306.389 193.247 302.806 193.751C301.899 193.879 300.988 194.001 300.065 194.123C296.696 194.556 293.23 194.938 289.682 195.259C288.772 195.339 287.858 195.419 286.942 195.493C283.55 195.769 280.083 195.99 276.559 196.154C275.649 196.196 274.735 196.234 273.818 196.269C270.407 196.394 266.944 196.471 263.435 196.491C262.826 196.494 262.211 196.497 261.602 196.497C261.301 196.497 260.996 196.497 260.695 196.494C257.186 196.484 253.723 196.42 250.309 196.301C249.389 196.269 248.475 196.234 247.568 196.196C244.973 196.083 242.404 195.936 239.877 195.766C238.974 195.705 238.076 195.637 237.185 195.567C236.265 195.496 235.355 195.419 234.445 195.339C230.897 195.031 227.431 194.662 224.062 194.242C223.139 194.126 222.228 194.008 221.321 193.879C219.173 193.587 217.068 193.27 215.004 192.933C213.631 192.708 212.277 192.474 210.939 192.227C210.019 192.057 209.102 191.884 208.198 191.707C204.566 190.995 201.097 190.209 197.812 189.359C197.164 189.192 196.523 189.022 195.884 188.849C195.612 188.775 195.34 188.698 195.071 188.624C193.588 188.214 192.139 187.784 190.74 187.344C188.618 186.677 186.6 185.981 184.685 185.259C183.746 184.9 182.832 184.54 181.945 184.175C178.443 182.721 175.352 181.169 172.735 179.532C172.333 179.282 171.938 179.029 171.562 178.772C171.086 178.455 170.629 178.134 170.192 177.81C169.712 177.457 169.259 177.101 168.821 176.738C164.859 173.469 162.695 169.931 162.695 166.238C162.695 165.978 162.708 165.718 162.731 165.462L162.741 144.554L168.818 144.545L171.559 144.538L181.941 144.525L184.682 144.519L192.784 144.506L195.065 144.503L197.805 144.496L208.191 144.484L210.932 144.48L221.315 144.464L224.056 144.461L234.438 144.445L237.179 144.442L247.562 144.429L250.302 144.423L260.688 144.407L263.429 144.4L273.812 144.387L276.552 144.384L286.935 144.368L289.676 144.365L300.059 144.349L302.799 144.346L313.182 144.33L315.923 144.323L326.309 144.31L329.049 144.304H329.726L339.432 144.288L342.173 144.285L352.555 144.269L355.296 144.265L360.46 144.256L360.499 165.956V165.962Z" fill="url(#paint20_linear_19833_22701)"/>
<path d="M171.553 144.542V178.776C171.077 178.458 170.62 178.138 170.183 177.814C169.703 177.461 169.25 177.104 168.812 176.742V144.548L171.553 144.542Z" fill="#DA8928"/>
<path d="M184.678 144.519V185.259C183.739 184.899 182.825 184.54 181.938 184.174V144.525L184.678 144.519Z" fill="#DA8928"/>
<path d="M197.799 144.5V189.359C197.151 189.192 196.51 189.022 195.872 188.849C195.6 188.775 195.327 188.698 195.059 188.625V144.506L197.799 144.5Z" fill="#DA8928"/>
<path d="M210.928 144.483V192.227C210.008 192.057 209.091 191.884 208.188 191.707V144.487L210.928 144.483Z" fill="#DA8928"/>
<path d="M224.057 144.464V194.238C223.134 194.123 222.223 194.004 221.316 193.875V144.464H224.057Z" fill="#DA8928"/>
<path d="M237.178 144.445V195.567C236.258 195.496 235.348 195.419 234.438 195.339V144.449L237.178 144.445Z" fill="#DA8928"/>
<path d="M250.303 144.426V196.301C249.383 196.269 248.47 196.234 247.562 196.195V144.432L250.303 144.426Z" fill="#DA8928"/>
<path d="M263.432 144.404V196.488C262.823 196.491 262.208 196.495 261.598 196.495C261.297 196.495 260.993 196.495 260.691 196.492V144.411L263.432 144.404Z" fill="#DA8928"/>
<path d="M276.553 144.388V196.151C275.643 196.193 274.729 196.231 273.812 196.266V144.391L276.553 144.388Z" fill="#DA8928"/>
<path d="M289.678 144.368V195.259C288.768 195.339 287.854 195.419 286.938 195.493V144.371L289.678 144.368Z" fill="#DA8928"/>
<path d="M302.803 144.349V193.751C301.896 193.879 300.986 194.001 300.062 194.123V144.352L302.803 144.349Z" fill="#DA8928"/>
<path d="M315.924 144.33V191.525C315.02 191.708 314.11 191.887 313.184 192.058V144.333L315.924 144.33Z" fill="#DA8928"/>
<path d="M329.057 144.311V188.365C328.16 188.621 327.246 188.875 326.316 189.118V144.314L329.057 144.311Z" fill="#DA8928"/>
<path d="M342.182 144.291V183.786C341.298 184.168 340.381 184.54 339.441 184.906V144.294L342.182 144.291Z" fill="#DA8928"/>
<path d="M355.303 144.272V175.943C354.48 176.691 353.564 177.419 352.562 178.134V144.272H355.303Z" fill="#DA8928"/>
<path d="M360.481 144.528C360.481 159.885 316.219 172.336 261.6 172.336C254.139 172.336 246.87 172.105 239.882 171.663C231.093 171.111 222.745 170.225 215.012 169.061C208.109 168.021 201.698 166.76 195.899 165.307C194.127 164.864 192.41 164.402 190.758 163.924C183.485 161.826 177.388 159.404 172.759 156.745C171.852 156.225 171.003 155.699 170.216 155.16C165.386 151.884 162.723 148.291 162.723 144.525C162.723 144.182 162.749 143.835 162.804 143.492C164.721 128.613 208.222 116.717 261.603 116.717C274.74 116.717 287.277 117.439 298.741 118.744C300.957 118.998 303.131 119.27 305.263 119.569C314.576 120.859 323.057 122.552 330.431 124.561C332.054 125.003 333.625 125.462 335.141 125.937C340.525 127.621 345.19 129.488 348.996 131.506C352.92 133.585 355.932 135.824 357.886 138.176C359.311 139.892 360.17 141.673 360.406 143.495C360.458 143.838 360.481 144.185 360.481 144.528Z" fill="url(#paint21_linear_19833_22701)"/>
<path d="M340.634 144.53C340.634 144.87 340.602 145.213 340.556 145.55C338.648 157.333 303.969 166.756 261.602 166.756C219.235 166.756 184.556 157.333 182.648 145.55C182.603 145.213 182.57 144.87 182.57 144.53C182.57 132.275 218.021 122.304 261.602 122.304C305.181 122.304 340.634 132.275 340.634 144.53Z" fill="#DA8928"/>
<path d="M340.557 145.549C338.649 157.333 303.97 166.755 261.603 166.755C260.654 166.755 259.718 166.749 258.782 166.739C249.332 166.646 240.3 166.085 231.965 165.132C223.629 164.179 215.997 162.841 209.359 161.189C207.671 160.772 206.052 160.332 204.484 159.874C197.405 157.785 191.736 155.318 187.955 152.582C187.039 151.927 186.235 151.253 185.552 150.57C183.919 148.96 182.937 147.279 182.652 145.543C184.56 133.76 219.24 124.334 261.606 124.334C266.965 124.334 272.203 124.485 277.276 124.774C279.858 124.921 282.404 125.101 284.896 125.319C295.074 126.204 304.381 127.651 312.354 129.534C314.074 129.942 315.739 130.369 317.34 130.818C323.55 132.553 328.743 134.581 332.634 136.817C336.427 138.998 338.986 141.372 340.065 143.875C340.302 144.43 340.467 144.988 340.557 145.549Z" fill="url(#paint22_linear_19833_22701)"/>
<path d="M272.592 157.14V160.832H255.912V157.307C244.081 157.108 232.61 156.21 225.512 154.978L234.502 149.254C242.309 150.554 252.717 151.385 261.827 151.385C269.754 151.385 272.592 150.919 272.592 150.121C272.592 147.192 226.814 149.556 226.814 140.871C226.814 137.112 236.513 133.952 255.915 133.185V129.56H272.595V133.121C281.349 133.355 289.865 133.987 296.61 135.052L288.21 140.74C280.046 139.575 272.359 139.011 265.144 139.011C256.981 139.011 254.379 139.675 254.379 140.474C254.379 143.268 300.157 140.939 300.157 149.524C300.154 153.114 290.928 156.242 272.592 157.14Z" fill="#DA8928"/>
<path d="M272.108 155.911V159.604H255.427V156.078C243.596 155.879 232.122 154.981 225.027 153.749L234.017 148.026C241.824 149.322 252.233 150.156 261.343 150.156C269.27 150.156 272.108 149.691 272.108 148.892C272.108 145.963 226.33 148.327 226.33 139.643C226.33 135.883 236.029 132.723 255.431 131.956V128.331H272.111V131.892C280.864 132.123 289.381 132.758 296.126 133.82L287.729 139.508C279.565 138.344 271.878 137.779 264.66 137.779C256.496 137.779 253.895 138.443 253.895 139.242C253.895 142.036 299.673 139.707 299.673 148.292C299.673 151.885 290.444 155.013 272.108 155.911Z" fill="url(#paint23_linear_19833_22701)"/>
<path opacity="0.7" d="M386.087 265.342C386.019 310.641 420.426 288.784 328.792 308.203C277.921 318.982 252.906 319.492 252.906 319.492C244.92 306.932 235.794 287.299 236.961 262.795C237.009 261.781 242.144 193.403 320.638 180.885C331.504 179.153 341.757 189.573 351.355 193.445C353.208 194.195 355.032 195.004 356.814 195.88C364.612 199.697 371.71 204.696 377.878 210.637C379.235 211.946 380.55 213.3 381.817 214.699C386.32 219.671 390.22 225.189 393.401 231.144C396.677 237.284 399.194 243.883 400.82 250.822C402.006 255.891 402.718 261.136 402.906 266.516C402.948 267.537 386.09 264.328 386.087 265.342Z" fill="#DA8928"/>
<path d="M415.612 242.841C425.764 287.01 397.843 330.971 353.231 341.029C347.137 342.402 341.047 343.072 335.044 343.088C327.499 343.117 320.1 342.11 313.012 340.188C306.688 338.472 300.614 336.021 294.919 332.912C293.18 331.963 291.472 330.952 289.804 329.881C282.476 325.181 275.893 319.342 270.354 312.547C269.272 311.219 268.225 309.859 267.228 308.46C261.118 299.926 256.566 290.084 254.078 279.253C253.852 278.265 253.644 277.267 253.459 276.269C245.189 233.12 272.858 190.895 316.459 181.065C327.188 178.646 337.905 178.409 348.132 180.058C350.108 180.378 352.068 180.767 354.002 181.225C362.464 183.224 370.511 186.525 377.861 190.952C379.481 191.928 381.065 192.958 382.617 194.039C388.131 197.892 393.175 202.405 397.616 207.506C402.193 212.765 406.136 218.645 409.285 225.048C411.585 229.726 413.464 234.683 414.86 239.883C415.139 240.865 415.385 241.853 415.612 242.841Z" fill="url(#paint24_linear_19833_22701)"/>
<path d="M398.937 246.354C399.164 247.336 399.361 248.324 399.549 249.302C405.782 283.549 383.682 317.029 349.08 324.831C314.476 332.63 279.919 311.919 270.573 278.378C270.314 277.412 270.061 276.44 269.835 275.458C261.733 240.207 284.098 205.004 319.694 196.981C355.287 188.957 390.835 211.103 398.937 246.354Z" fill="#DA8928"/>
<path d="M399.547 249.302C405.78 283.549 383.679 317.029 349.078 324.831C348.304 325.007 347.533 325.161 346.762 325.306C338.98 326.778 331.235 326.826 323.797 325.623C316.359 324.42 309.241 321.973 302.726 318.45C301.071 317.555 299.458 316.599 297.877 315.566C290.714 310.866 284.452 304.809 279.557 297.639C278.375 295.926 277.273 294.139 276.266 292.304C273.869 287.973 271.954 283.311 270.574 278.377C264.341 244.13 286.438 210.641 321.043 202.838C325.42 201.854 329.799 201.324 334.134 201.222C336.337 201.167 338.54 201.222 340.72 201.388C349.619 202.056 358.178 204.51 365.933 208.456C367.608 209.306 369.25 210.23 370.854 211.231C377.074 215.084 382.653 219.951 387.311 225.664C391.85 231.237 395.51 237.599 398.047 244.595C398.601 246.129 399.103 247.704 399.547 249.302Z" fill="url(#paint25_linear_19833_22701)"/>
<path d="M351.698 295.149L354.141 305.771L340.515 308.841L338.183 298.7C328.39 300.304 318.422 299.833 311.813 297.6L315.373 279.487C322.607 281.781 331.662 282.255 339.1 280.581C345.572 279.121 347.584 277.257 347.056 274.963C345.122 266.545 309.289 281.765 303.549 256.792C301.064 245.981 306.898 235.105 322.238 229.331L319.84 218.901L333.463 215.831L335.818 226.068C343.123 225.128 350.496 225.375 356.706 227.197L353.606 245.105C346.168 243.261 339.514 243.049 333.621 244.377C326.954 245.882 325.27 248.275 325.798 250.569C327.644 258.608 363.497 243.479 369.172 268.165C371.55 278.495 366.082 289.191 351.698 295.149Z" fill="#DA8928"/>
<path d="M350.488 291.704L352.93 302.326L339.308 305.396L336.976 295.255C327.183 296.859 317.215 296.388 310.606 294.155L314.166 276.042C321.4 278.336 330.455 278.81 337.893 277.132C344.368 275.673 346.377 273.812 345.849 271.515C343.912 263.094 308.082 278.316 302.342 253.344C299.857 242.533 305.691 231.657 321.031 225.883L318.633 215.453L332.256 212.383L334.608 222.62C341.913 221.677 349.286 221.927 355.499 223.749L352.399 241.657C344.961 239.812 338.307 239.601 332.414 240.929C325.747 242.43 324.063 244.823 324.591 247.12C326.438 255.157 362.293 240.03 367.965 264.717C370.34 275.054 364.871 285.746 350.488 291.704Z" fill="url(#paint26_linear_19833_22701)"/>
<path d="M92.5082 130.628L78.1181 147.227C76.6461 148.924 74.0039 148.924 72.5318 147.227L58.1418 130.628C56.0788 128.247 57.7763 124.555 60.9342 124.555H63.7812C64.4563 124.555 65.0031 124.01 65.0031 123.338V90.2122C65.0031 90.1089 65.0251 90.0109 65.0342 89.909V65.9857C65.0342 63.7963 66.8173 62.021 69.0163 62.021H81.6648C83.8469 62.021 85.6157 63.7821 85.6157 65.9547V89.9064C85.6248 90.0083 85.6468 90.1077 85.6468 90.2122V123.338C85.6468 124.01 86.1937 124.555 86.8688 124.555H89.7157C92.8736 124.555 94.5711 128.248 92.5082 130.628Z" fill="url(#paint27_linear_19833_22701)"/>
<path d="M140.782 106.109L126.392 122.707C124.92 124.404 122.277 124.404 120.805 122.707L106.415 106.109C104.352 103.729 106.05 100.037 109.208 100.037H112.055C112.73 100.037 113.277 99.4921 113.277 98.8199V65.6939C113.277 63.6658 114.929 62.0209 116.966 62.0209H130.231C132.268 62.0209 133.92 63.6658 133.92 65.6939V98.8199C133.92 99.4921 134.467 100.037 135.142 100.037H137.989C141.147 100.037 142.845 103.729 140.782 106.109Z" fill="url(#paint28_linear_19833_22701)"/>
<path d="M395.47 56.8936H485.275C488.138 56.8936 490.46 59.1919 490.46 62.0266V127.528C490.46 130.362 488.139 132.661 485.275 132.661H395.47C392.607 132.661 390.285 130.362 390.285 127.528V62.0266C390.285 59.1919 392.607 56.8936 395.47 56.8936Z" fill="url(#paint29_linear_19833_22701)"/>
<path d="M432.383 68.489C447.454 63.0211 458.858 77.5514 457.223 89.1109C456.511 100.507 443.045 107.551 444.268 111.855C441.486 111.855 435.89 111.855 433.109 111.855C433.109 111.855 433.902 109.737 430.994 107.193C420.019 98.6275 412.949 77.1381 432.383 68.489Z" fill="#FDFDFD"/>
<path d="M444.268 111.855C444.205 117.081 445.55 123.38 437.877 122.799C431.851 122.604 433.214 115.868 433.1 111.855H444.268Z" fill="url(#paint30_linear_19833_22701)"/>
<path d="M440.924 111.856C440.924 111.856 440.722 94.4636 442.269 89.6398C443.816 84.8161 446.909 81.0933 449.196 85.2395C453.596 98.4198 429.987 101.725 428.146 90.062C425.711 78.8143 438.489 77.8557 436.356 111.856" stroke="url(#paint31_linear_19833_22701)" stroke-width="1.3068" stroke-miterlimit="10"/>
<path d="M29.4502 279.434H119.254C122.117 279.434 124.438 281.732 124.438 284.567V350.068C124.438 352.902 122.117 355.202 119.254 355.202H29.4502C26.5877 355.202 24.2656 352.904 24.2656 350.068V284.567C24.2656 281.732 26.5864 279.434 29.4502 279.434Z" fill="url(#paint32_linear_19833_22701)"/>
<path d="M29.3838 279H119.189C122.052 279 124.374 281.298 124.374 284.133V349.634C124.374 352.469 122.053 354.767 119.189 354.767H29.3838C26.5213 354.767 24.1992 352.469 24.1992 349.634V284.133C24.1992 281.298 26.5213 279 29.3838 279Z" fill="url(#paint33_linear_19833_22701)"/>
<path d="M92.5911 297.428C93.0744 296.95 93.0653 296.166 92.5652 295.704L92.5638 295.702C92.2619 295.43 91.9548 295.165 91.64 294.907C91.6335 294.9 91.627 294.895 91.6192 294.889C91.3069 294.633 90.9894 294.385 90.6655 294.143C90.6551 294.136 90.646 294.128 90.6357 294.12C90.3117 293.879 89.9813 293.647 89.6457 293.421C89.6353 293.414 89.6249 293.407 89.6159 293.399C89.2764 293.171 88.9304 292.951 88.5792 292.738C88.5727 292.734 88.5663 292.729 88.5598 292.725C88.2021 292.51 87.8393 292.302 87.4713 292.103C87.1046 291.905 86.7327 291.715 86.3556 291.534C86.353 291.533 86.3491 291.531 86.3491 291.531C83.2288 290.033 79.7612 289.135 76.0979 288.983C75.5342 288.96 75.0625 289.398 75.0625 289.956C75.0625 294.7 75.0625 314.784 75.0625 314.784L92.5911 297.428Z" fill="url(#paint34_linear_19833_22701)"/>
<path d="M91.1577 300.603L73.8922 317.701V293.076C73.8922 292.407 73.3285 291.872 72.6547 291.902C58.3968 292.525 47.1128 304.486 47.7737 318.904C48.3802 332.142 59.2261 342.89 72.5925 343.499C87.5553 344.18 99.9019 332.369 99.9019 317.701C99.9019 311.17 97.4528 305.205 93.415 300.658C92.8267 299.996 91.7875 299.98 91.1577 300.603Z" fill="url(#paint35_linear_19833_22701)"/>
<path d="M92.2938 335.928C96.9925 331.257 99.899 324.815 99.899 317.701C99.899 311.059 97.3657 305.003 93.2061 300.427C92.7228 299.896 91.8857 299.879 91.3764 300.385L73.8906 317.701L92.2938 335.928Z" fill="url(#paint36_linear_19833_22701)"/>
<defs>
<linearGradient id="paint0_linear_19833_22701" x1="264.417" y1="350.623" x2="259.621" y2="-93.7944" gradientUnits="userSpaceOnUse">
<stop stop-color="#007763" stop-opacity="0.67"/>
<stop offset="0.095" stop-color="#007763" stop-opacity="0.67"/>
<stop offset="0.2217" stop-color="#00B39F" stop-opacity="0.67"/>
<stop offset="0.3662" stop-color="#00B39F" stop-opacity="0.67"/>
<stop offset="0.5241" stop-color="#1ED1BD" stop-opacity="0.67"/>
<stop offset="0.6906" stop-color="#1ED1BD" stop-opacity="0.67"/>
<stop offset="0.8514" stop-color="white" stop-opacity="0.67"/>
</linearGradient>
<linearGradient id="paint1_linear_19833_22701" x1="266.453" y1="339.257" x2="393.13" y2="339.257" gradientUnits="userSpaceOnUse">
<stop offset="0.0308" stop-color="#1ED1BD"/>
<stop offset="1" stop-color="#1ED1BD"/>
</linearGradient>
<linearGradient id="paint2_linear_19833_22701" x1="8.24519" y1="355.137" x2="134.923" y2="355.137" gradientUnits="userSpaceOnUse">
<stop offset="0.0308" stop-color="#1ED1BD"/>
<stop offset="1" stop-color="#1ED1BD"/>
</linearGradient>
<linearGradient id="paint3_linear_19833_22701" x1="-nan" y1="-nan" x2="-nan" y2="-nan" gradientUnits="userSpaceOnUse">
<stop stop-color="#93FFFF"/>
<stop offset="1" stop-color="#98D2FC"/>
</linearGradient>
<linearGradient id="paint4_linear_19833_22701" x1="165.153" y1="293.88" x2="362.97" y2="293.88" gradientUnits="userSpaceOnUse">
<stop stop-color="#E4A64B"/>
<stop offset="1" stop-color="#F0DB70"/>
</linearGradient>
<linearGradient id="paint5_linear_19833_22701" x1="77.9414" y1="268.029" x2="275.7" y2="268.029" gradientUnits="userSpaceOnUse">
<stop stop-color="#E4A64B"/>
<stop offset="0.2328" stop-color="#E8BA59"/>
<stop offset="0.5887" stop-color="#EED26A"/>
<stop offset="0.8069" stop-color="#F0DB70"/>
</linearGradient>
<linearGradient id="paint6_linear_19833_22701" x1="116.978" y1="269.049" x2="274.886" y2="269.049" gradientUnits="userSpaceOnUse">
<stop stop-color="#F0DB70"/>
<stop offset="1" stop-color="#E4A64B"/>
</linearGradient>
<linearGradient id="paint7_linear_19833_22701" x1="221.545" y1="267.47" x2="296.187" y2="267.47" gradientUnits="userSpaceOnUse">
<stop stop-color="#F0DB70"/>
<stop offset="1" stop-color="#E4A64B"/>
</linearGradient>
<linearGradient id="paint8_linear_19833_22701" x1="140.148" y1="260.016" x2="337.965" y2="260.016" gradientUnits="userSpaceOnUse">
<stop stop-color="#E4A64B"/>
<stop offset="1" stop-color="#F0DB70"/>
</linearGradient>
<linearGradient id="paint9_linear_19833_22701" x1="52.9371" y1="234.167" x2="250.695" y2="234.167" gradientUnits="userSpaceOnUse">
<stop stop-color="#E4A64B"/>
<stop offset="0.2328" stop-color="#E8BA59"/>
<stop offset="0.5887" stop-color="#EED26A"/>
<stop offset="0.8069" stop-color="#F0DB70"/>
</linearGradient>
<linearGradient id="paint10_linear_19833_22701" x1="91.9736" y1="235.186" x2="249.881" y2="235.186" gradientUnits="userSpaceOnUse">
<stop stop-color="#F0DB70"/>
<stop offset="1" stop-color="#E4A64B"/>
</linearGradient>
<linearGradient id="paint11_linear_19833_22701" x1="196.541" y1="233.606" x2="271.183" y2="233.606" gradientUnits="userSpaceOnUse">
<stop stop-color="#F0DB70"/>
<stop offset="1" stop-color="#E4A64B"/>
</linearGradient>
<linearGradient id="paint12_linear_19833_22701" x1="179.05" y1="231.352" x2="376.867" y2="231.352" gradientUnits="userSpaceOnUse">
<stop stop-color="#E4A64B"/>
<stop offset="1" stop-color="#F0DB70"/>
</linearGradient>
<linearGradient id="paint13_linear_19833_22701" x1="91.8379" y1="205.502" x2="289.596" y2="205.502" gradientUnits="userSpaceOnUse">
<stop stop-color="#E4A64B"/>
<stop offset="0.2328" stop-color="#E8BA59"/>
<stop offset="0.5887" stop-color="#EED26A"/>
<stop offset="0.8069" stop-color="#F0DB70"/>
</linearGradient>
<linearGradient id="paint14_linear_19833_22701" x1="130.878" y1="206.521" x2="288.786" y2="206.521" gradientUnits="userSpaceOnUse">
<stop stop-color="#F0DB70"/>
<stop offset="1" stop-color="#E4A64B"/>
</linearGradient>
<linearGradient id="paint15_linear_19833_22701" x1="235.442" y1="204.942" x2="310.084" y2="204.942" gradientUnits="userSpaceOnUse">
<stop stop-color="#F0DB70"/>
<stop offset="1" stop-color="#E4A64B"/>
</linearGradient>
<linearGradient id="paint16_linear_19833_22701" x1="158.225" y1="199.744" x2="356.041" y2="199.744" gradientUnits="userSpaceOnUse">
<stop stop-color="#E4A64B"/>
<stop offset="1" stop-color="#F0DB70"/>
</linearGradient>
<linearGradient id="paint17_linear_19833_22701" x1="71.0159" y1="173.893" x2="268.774" y2="173.893" gradientUnits="userSpaceOnUse">
<stop stop-color="#E4A64B"/>
<stop offset="0.2328" stop-color="#E8BA59"/>
<stop offset="0.5887" stop-color="#EED26A"/>
<stop offset="0.8069" stop-color="#F0DB70"/>
</linearGradient>
<linearGradient id="paint18_linear_19833_22701" x1="110.049" y1="174.914" x2="267.957" y2="174.914" gradientUnits="userSpaceOnUse">
<stop stop-color="#F0DB70"/>
<stop offset="1" stop-color="#E4A64B"/>
</linearGradient>
<linearGradient id="paint19_linear_19833_22701" x1="214.62" y1="173.334" x2="289.263" y2="173.334" gradientUnits="userSpaceOnUse">
<stop stop-color="#F0DB70"/>
<stop offset="1" stop-color="#E4A64B"/>
</linearGradient>
<linearGradient id="paint20_linear_19833_22701" x1="191.915" y1="170.38" x2="389.732" y2="170.38" gradientUnits="userSpaceOnUse">
<stop stop-color="#E4A64B"/>
<stop offset="1" stop-color="#F0DB70"/>
</linearGradient>
<linearGradient id="paint21_linear_19833_22701" x1="104.703" y1="144.528" x2="302.461" y2="144.528" gradientUnits="userSpaceOnUse">
<stop stop-color="#E4A64B"/>
<stop offset="0.2328" stop-color="#E8BA59"/>
<stop offset="0.5887" stop-color="#EED26A"/>
<stop offset="0.8069" stop-color="#F0DB70"/>
</linearGradient>
<linearGradient id="paint22_linear_19833_22701" x1="143.74" y1="145.549" x2="301.648" y2="145.549" gradientUnits="userSpaceOnUse">
<stop stop-color="#F0DB70"/>
<stop offset="1" stop-color="#E4A64B"/>
</linearGradient>
<linearGradient id="paint23_linear_19833_22701" x1="248.311" y1="143.968" x2="322.953" y2="143.968" gradientUnits="userSpaceOnUse">
<stop stop-color="#F0DB70"/>
<stop offset="1" stop-color="#E4A64B"/>
</linearGradient>
<linearGradient id="paint24_linear_19833_22701" x1="244.864" y1="308.86" x2="390.234" y2="230.099" gradientUnits="userSpaceOnUse">
<stop stop-color="#E4A64B"/>
<stop offset="1" stop-color="#F0DB70"/>
</linearGradient>
<linearGradient id="paint25_linear_19833_22701" x1="279.311" y1="297.407" x2="412.41" y2="215.672" gradientUnits="userSpaceOnUse">
<stop stop-color="#F0DB70"/>
<stop offset="1" stop-color="#E4A64B"/>
</linearGradient>
<linearGradient id="paint26_linear_19833_22701" x1="304.901" y1="289.576" x2="356.048" y2="237.75" gradientUnits="userSpaceOnUse">
<stop stop-color="#E4A64B"/>
<stop offset="1" stop-color="#F0DB70"/>
</linearGradient>
<linearGradient id="paint27_linear_19833_22701" x1="75.7584" y1="61.9158" x2="67.9623" y2="147.213" gradientUnits="userSpaceOnUse">
<stop stop-color="#C9DBE3"/>
<stop offset="1" stop-color="#EFF6F9"/>
</linearGradient>
<linearGradient id="paint28_linear_19833_22701" x1="123.864" y1="61.9155" x2="120.615" y2="123.864" gradientUnits="userSpaceOnUse">
<stop stop-color="#C9DBE3"/>
<stop offset="1" stop-color="#EFF6F9"/>
</linearGradient>
<linearGradient id="paint29_linear_19833_22701" x1="490.458" y1="94.7781" x2="390.286" y2="94.7781" gradientUnits="userSpaceOnUse">
<stop stop-color="#007763"/>
<stop offset="1" stop-color="#00B39F"/>
</linearGradient>
<linearGradient id="paint30_linear_19833_22701" x1="433.043" y1="117.347" x2="444.322" y2="117.347" gradientUnits="userSpaceOnUse">
<stop stop-color="#E4A64B"/>
<stop offset="0.857" stop-color="#F0DB70"/>
</linearGradient>
<linearGradient id="paint31_linear_19833_22701" x1="427.187" y1="97.1525" x2="450.389" y2="97.1525" gradientUnits="userSpaceOnUse">
<stop stop-color="#E4A64B"/>
<stop offset="0.857" stop-color="#F0DB70"/>
</linearGradient>
<linearGradient id="paint32_linear_19833_22701" x1="124.439" y1="317.318" x2="24.266" y2="317.318" gradientUnits="userSpaceOnUse">
<stop stop-color="#009581"/>
<stop offset="1" stop-color="#005945"/>
</linearGradient>
<linearGradient id="paint33_linear_19833_22701" x1="124.373" y1="316.884" x2="24.1999" y2="316.884" gradientUnits="userSpaceOnUse">
<stop stop-color="#007763"/>
<stop offset="1" stop-color="#00B39F"/>
</linearGradient>
<linearGradient id="paint34_linear_19833_22701" x1="72.6842" y1="301.713" x2="103.763" y2="303.575" gradientUnits="userSpaceOnUse">
<stop stop-color="#E4A64B"/>
<stop offset="0.1496" stop-color="#EABF5C"/>
<stop offset="0.3131" stop-color="#EED36B"/>
<stop offset="0.4217" stop-color="#F0DB70"/>
</linearGradient>
<linearGradient id="paint35_linear_19833_22701" x1="47.7449" y1="317.714" x2="99.9017" y2="317.714" gradientUnits="userSpaceOnUse">
<stop stop-color="#EFF6F9"/>
<stop offset="0.6553" stop-color="#C9DBE3"/>
</linearGradient>
<linearGradient id="paint36_linear_19833_22701" x1="69.7875" y1="326.193" x2="100.058" y2="314.856" gradientUnits="userSpaceOnUse">
<stop stop-color="#005945"/>
<stop offset="1" stop-color="#1ED1BD"/>
</linearGradient>
</defs>
</svg>
