<svg width="1366" height="797" viewBox="0 0 1366 797" fill="none" xmlns="http://www.w3.org/2000/svg">
<rect x="523" y="478" width="342" height="256.5" fill="#E75225" fill-opacity="0.1"/>
<rect x="525.5" y="480.5" width="337" height="251.5" stroke="#E75225" stroke-opacity="0.5" stroke-width="5" stroke-dasharray="10 10"/>
<path fill-rule="evenodd" clip-rule="evenodd" d="M843.131 687.55C821.84 677.356 812.843 651.831 823.036 630.538C827.93 620.313 836.686 612.451 847.376 608.682C858.067 604.912 869.817 605.545 880.041 610.44C901.332 620.634 910.329 646.159 900.136 667.452C889.944 688.745 864.422 697.743 843.131 687.55Z" fill="#E75225"/>
<g clip-path="url(#clip0_12561_17637)">
<path d="M862.375 634.296V647.184L873.326 640.718L862.375 634.296Z" fill="white"/>
<path d="M862.375 649.879V662.831L873.428 656.385L862.375 649.879Z" fill="white"/>
<path d="M860.802 647.097V634.404L849.988 640.73L860.802 647.097Z" fill="white" fill-opacity="0.8"/>
<path d="M839.105 662.783C841.227 666.264 844.095 669.208 847.494 671.395V657.831L839.105 662.783Z" fill="white" fill-opacity="0.8"/>
<path d="M860.798 662.767V649.974L849.957 656.377L860.798 662.767Z" fill="white" fill-opacity="0.8"/>
<path d="M849.074 670.588L860.053 664.186L849.074 657.711V670.588Z" fill="white"/>
<path d="M874.178 670.656V657.799L863.215 664.194L874.178 670.656Z" fill="white" fill-opacity="0.8"/>
<path d="M884.908 661.292C886.782 657.724 887.842 653.77 888.007 649.726L876.594 656.392L884.908 661.292Z" fill="white" fill-opacity="0.8"/>
<path d="M875.758 655.025L886.776 648.599L875.758 642.141V655.025Z" fill="white"/>
<path d="M874.178 639.364V626.583L863.266 632.965L874.178 639.364Z" fill="white" fill-opacity="0.8"/>
<path d="M874.178 654.97V642.073L863.242 648.532L874.178 654.97Z" fill="white" fill-opacity="0.8"/>
<path d="M849.074 642.049V655.042L860.092 648.535L849.074 642.049Z" fill="white"/>
<path d="M860.801 621.579C856.745 621.696 852.771 622.767 849.188 624.709L860.801 631.503V621.579Z" fill="white" fill-opacity="0.8"/>
<path d="M849.074 626.495V639.412L860.1 632.961L849.074 626.495Z" fill="white"/>
<path d="M847.494 625.712C844.096 627.9 841.228 630.844 839.105 634.324L847.494 639.264V625.712Z" fill="white" fill-opacity="0.8"/>
<path d="M874.106 624.777C870.493 622.794 866.476 621.699 862.375 621.579V631.63L874.106 624.777Z" fill="white"/>
<path d="M835.148 649.503C835.285 653.664 836.368 657.735 838.31 661.396L846.809 656.377L835.148 649.503Z" fill="white"/>
<path d="M838.31 635.715C836.374 639.36 835.292 643.413 835.148 647.556L846.821 640.726L838.31 635.715Z" fill="white"/>
<path d="M849.168 672.387C852.755 674.338 856.737 675.414 860.801 675.532V665.601L849.168 672.387Z" fill="white" fill-opacity="0.8"/>
<path d="M884.096 634.368C881.986 630.898 879.136 627.959 875.758 625.768V639.284L884.096 634.368Z" fill="white"/>
<path d="M875.758 671.352C879.153 669.146 882.015 666.183 884.127 662.687L875.758 657.756V671.352Z" fill="white"/>
<path d="M888.043 647.481C887.893 643.378 886.82 639.365 884.908 635.751L876.48 640.715L888.043 647.481Z" fill="white" fill-opacity="0.8"/>
<path d="M862.375 675.532C866.43 675.416 870.403 674.345 873.984 672.403L862.375 665.541V675.532Z" fill="white"/>
<path d="M847.494 654.926V642.185L836.648 648.528L847.494 654.926Z" fill="white" fill-opacity="0.8"/>
</g>
<path d="M740.336 542.487L702.61 526.861C697.097 524.577 690.903 524.577 685.39 526.861L647.664 542.487C642.151 544.771 637.771 549.151 635.487 554.664L619.861 592.39C617.577 597.903 617.577 604.097 619.861 609.61L635.487 647.336C637.771 652.849 642.151 657.229 647.664 659.513L685.39 675.139C690.903 677.423 697.097 677.423 702.61 675.139L740.336 659.513C745.849 657.229 750.229 652.849 752.513 647.336L768.139 609.61C770.423 604.097 770.423 597.903 768.139 592.39L752.513 554.664C750.229 549.151 745.849 544.771 740.336 542.487Z" fill="#E75225" stroke="#E75225" stroke-width="5"/>
<path d="M694.099 549.863C721.524 549.869 744.034 572.158 744 599.273C743.965 626.799 721.546 648.779 693.525 648.759C666.13 648.74 643.981 626.428 644 598.871C644.019 571.924 666.577 549.857 694.099 549.863ZM678.939 567.217C679.567 570.302 678.957 573.18 678.027 576.01C677.383 577.97 676.493 579.857 675.962 581.844C675.086 585.117 674.093 588.409 673.728 591.757C673.204 596.571 675.102 600.811 678.349 605.027L663.422 601.894C663.448 602.364 663.42 602.542 663.472 602.693C664.887 606.837 667.377 610.328 670.167 613.618C670.463 613.966 671.135 614.145 671.633 614.146C686.517 614.174 701.401 614.172 716.284 614.153C716.746 614.152 717.362 614.065 717.645 613.768C720.835 610.425 723.275 606.618 724.8 601.821L708.997 604.906C710.04 602.869 711.23 601.078 711.914 599.111C714.253 592.379 713.284 585.872 709.925 579.734C707.23 574.808 704.744 569.904 706.089 563.968C703.243 566.77 702.15 570.337 701.456 574.013C700.773 577.633 700.371 581.307 699.842 584.98C699.766 584.869 699.669 584.788 699.654 584.692C699.593 584.307 699.536 583.918 699.515 583.529C699.193 577.512 698.015 571.715 695.526 566.178C694.062 562.919 692.447 559.587 693.957 555.699C692.935 556.236 692.011 556.77 691.35 557.532C689.374 559.807 688.557 562.539 688.347 565.53C688.167 568.086 687.921 570.654 687.446 573.167C686.946 575.808 686.154 578.396 684.374 580.824C683.655 575.639 683.575 570.511 678.939 567.217ZM717.315 618.69H670.633V626.774H717.315V618.69ZM679.888 630.95C679.85 637.682 686.728 642.697 695.229 642.333C702.274 642.032 708.509 636.507 707.973 630.95H679.888Z" fill="white"/>
<g filter="url(#filter0_d_12561_17637)">
<rect x="864" y="753" width="103" height="30" rx="5" fill="#009639"/>
<path d="M874.246 773.196C876.066 773.196 877.62 772.202 877.62 770.326C877.62 768.254 875.772 767.75 874.344 767.232C873.448 766.896 872.776 766.588 872.776 765.86C872.776 765.3 873.238 764.894 874.036 764.894C874.792 764.894 875.268 765.202 875.394 765.86C875.422 766.07 875.534 766.168 875.73 766.168H876.99C877.214 766.168 877.34 766.056 877.326 765.832C877.158 763.9 875.646 763.018 874.036 763.018C872.398 763.018 870.844 763.984 870.844 765.86C870.844 767.946 872.566 768.506 873.98 768.996C874.904 769.332 875.688 769.626 875.688 770.326C875.688 770.9 875.226 771.32 874.246 771.32C873.294 771.32 872.734 770.97 872.622 770.312C872.58 770.088 872.482 769.99 872.272 769.99H871.012C870.802 769.99 870.676 770.102 870.69 770.326C870.844 772.286 872.426 773.196 874.246 773.196ZM882.991 765.818C882.123 765.818 881.479 766.14 881.087 766.728V763.536C881.087 763.326 880.975 763.2 880.751 763.2H879.617C879.407 763.2 879.281 763.326 879.281 763.536V772.678C879.281 772.888 879.407 773 879.617 773H880.751C880.975 773 881.087 772.888 881.087 772.678V768.954C881.087 767.904 881.647 767.484 882.347 767.484C882.991 767.484 883.467 767.862 883.467 768.674V772.678C883.467 772.888 883.579 773 883.789 773H884.937C885.147 773 885.273 772.888 885.273 772.678V768.534C885.273 766.812 884.293 765.818 882.991 765.818ZM887.568 765.02H888.716C888.926 765.02 889.038 764.908 889.038 764.698V763.536C889.038 763.326 888.926 763.2 888.716 763.2H887.568C887.358 763.2 887.232 763.326 887.232 763.536V764.698C887.232 764.908 887.358 765.02 887.568 765.02ZM887.568 773H888.716C888.926 773 889.038 772.888 889.038 772.678V766.336C889.038 766.126 888.926 766 888.716 766H887.568C887.358 766 887.232 766.126 887.232 766.336V772.678C887.232 772.888 887.358 773 887.568 773ZM896.931 766H895.699C895.517 766 895.391 766.098 895.335 766.28L893.879 770.788L892.423 766.28C892.367 766.098 892.227 766 892.045 766H890.827C890.589 766 890.463 766.154 890.547 766.392L892.857 772.734C892.913 772.916 893.039 773 893.221 773H893.557H894.523C894.705 773 894.831 772.916 894.901 772.734L897.197 766.392C897.281 766.154 897.169 766 896.931 766ZM901.081 765.818C899.639 765.818 898.421 766.602 898.239 768.044C898.225 768.268 898.365 768.38 898.575 768.38H899.695C899.891 768.38 899.961 768.282 900.045 768.086C900.157 767.708 900.549 767.484 901.081 767.484C901.739 767.484 902.159 767.834 902.159 768.66V769.416C901.753 769.052 901.151 768.786 900.269 768.786C899.023 768.786 897.903 769.528 897.903 770.998C897.903 772.468 899.023 773.196 900.269 773.196C901.151 773.196 901.753 772.888 902.159 772.398V772.678C902.159 772.888 902.285 773.014 902.495 773.014H903.587C903.811 773.014 903.923 772.888 903.923 772.678V768.562C903.923 766.742 902.621 765.818 901.081 765.818ZM900.871 771.866C900.087 771.866 899.709 771.502 899.709 770.998C899.709 770.494 900.087 770.13 900.871 770.13C901.669 770.13 902.159 770.452 902.159 770.998C902.159 771.502 901.669 771.866 900.871 771.866ZM912.988 765.818C912.176 765.818 911.546 766.14 911.07 766.742C910.706 766.14 910.104 765.818 909.376 765.818C908.676 765.818 908.074 766.126 907.696 766.686V766.336C907.696 766.126 907.584 766 907.374 766H906.226C906.016 766 905.89 766.126 905.89 766.336V772.678C905.89 772.888 906.016 773 906.226 773H907.374C907.584 773 907.696 772.888 907.696 772.678V768.674C907.696 767.764 908.242 767.484 908.732 767.484C909.222 767.484 909.628 767.722 909.628 768.422V772.678C909.628 772.888 909.754 773 909.964 773H911.098C911.322 773 911.434 772.888 911.434 772.678V768.674C911.434 767.764 911.98 767.484 912.47 767.484C912.946 767.484 913.366 767.722 913.366 768.422V772.678C913.366 772.888 913.478 773 913.702 773H914.836C915.046 773 915.172 772.888 915.172 772.678V768.282C915.172 766.672 914.318 765.818 912.988 765.818ZM928.571 772.608L925.099 767.974L928.431 763.606C928.599 763.382 928.487 763.2 928.221 763.2H926.751C926.583 763.2 926.457 763.27 926.345 763.41L923.139 767.54V763.536C923.139 763.326 923.027 763.2 922.803 763.2H921.543C921.333 763.2 921.221 763.326 921.221 763.536V772.678C921.221 772.888 921.333 773 921.543 773H922.803C923.027 773 923.139 772.888 923.139 772.678V768.408L926.485 772.804C926.583 772.944 926.723 773 926.891 773H928.361C928.641 773 928.725 772.832 928.571 772.608ZM935.436 766H934.302C934.092 766 933.966 766.126 933.966 766.336V770.06C933.966 771.11 933.42 771.516 932.706 771.516C932.076 771.516 931.6 771.138 931.6 770.34V766.336C931.6 766.126 931.474 766 931.264 766H930.116C929.906 766 929.794 766.126 929.794 766.336V770.48C929.794 772.188 930.76 773.196 932.062 773.196C932.93 773.196 933.574 772.874 933.966 772.286V772.678C933.966 772.888 934.092 773 934.302 773H935.436C935.66 773 935.772 772.888 935.772 772.678V766.336C935.772 766.126 935.66 766 935.436 766ZM945.012 765.818C944.2 765.818 943.57 766.14 943.094 766.742C942.73 766.14 942.128 765.818 941.4 765.818C940.7 765.818 940.098 766.126 939.72 766.686V766.336C939.72 766.126 939.608 766 939.398 766H938.25C938.04 766 937.914 766.126 937.914 766.336V772.678C937.914 772.888 938.04 773 938.25 773H939.398C939.608 773 939.72 772.888 939.72 772.678V768.674C939.72 767.764 940.266 767.484 940.756 767.484C941.246 767.484 941.652 767.722 941.652 768.422V772.678C941.652 772.888 941.778 773 941.988 773H943.122C943.346 773 943.458 772.888 943.458 772.678V768.674C943.458 767.764 944.004 767.484 944.494 767.484C944.97 767.484 945.39 767.722 945.39 768.422V772.678C945.39 772.888 945.502 773 945.726 773H946.86C947.07 773 947.196 772.888 947.196 772.678V768.282C947.196 766.672 946.342 765.818 945.012 765.818ZM951.96 765.818C950.518 765.818 949.3 766.602 949.118 768.044C949.104 768.268 949.244 768.38 949.454 768.38H950.574C950.77 768.38 950.84 768.282 950.924 768.086C951.036 767.708 951.428 767.484 951.96 767.484C952.618 767.484 953.038 767.834 953.038 768.66V769.416C952.632 769.052 952.03 768.786 951.148 768.786C949.902 768.786 948.782 769.528 948.782 770.998C948.782 772.468 949.902 773.196 951.148 773.196C952.03 773.196 952.632 772.888 953.038 772.398V772.678C953.038 772.888 953.164 773.014 953.374 773.014H954.466C954.69 773.014 954.802 772.888 954.802 772.678V768.562C954.802 766.742 953.5 765.818 951.96 765.818ZM951.75 771.866C950.966 771.866 950.588 771.502 950.588 770.998C950.588 770.494 950.966 770.13 951.75 770.13C952.548 770.13 953.038 770.452 953.038 770.998C953.038 771.502 952.548 771.866 951.75 771.866ZM960.157 765.902C959.457 765.986 958.883 766.35 958.575 767.064V766.336C958.575 766.126 958.463 766 958.253 766H957.105C956.895 766 956.769 766.126 956.769 766.336V772.678C956.769 772.888 956.895 773 957.105 773H958.253C958.463 773 958.575 772.888 958.575 772.678V769.556C958.575 768.31 959.387 767.862 960.241 767.862C960.409 767.862 960.493 767.75 960.493 767.54V766.21C960.493 766 960.381 765.86 960.157 765.902Z" fill="white"/>
<path d="M851.714 718.98C851.26 718.98 850.824 719.159 850.502 719.476C850.181 719.793 850 720.223 850 720.671V749.41C850 749.859 850.181 750.289 850.502 750.606C850.824 750.923 851.26 751.101 851.714 751.101C851.979 751.101 852.241 751.039 852.478 750.923C852.715 750.806 852.921 750.636 853.08 750.427L858.434 744.54L859 743.684C861.128 742.973 859 743.705 860.5 743.21C861.738 742.656 860.019 743.362 862 742.695L862.753 742.714L872.286 742.648C872.74 742.648 873.176 742.47 873.498 742.153C873.819 741.836 874 741.406 874 740.958C874 740.706 873.943 740.457 873.833 740.23C873.723 740.002 873.562 739.802 873.364 739.644L853.057 719.621C852.897 719.421 852.692 719.26 852.46 719.149C852.227 719.038 851.973 718.981 851.714 718.98Z" fill="#009639"/>
</g>
<rect x="435.5" y="111.5" width="855" height="250" fill="#326CE5" fill-opacity="0.1" stroke="#326CE5" stroke-width="5"/>
<path d="M428.475 222.475C429.842 221.108 429.842 218.892 428.475 217.525L406.201 195.251C404.834 193.884 402.618 193.884 401.251 195.251C399.884 196.618 399.884 198.834 401.251 200.201L421.05 220L401.251 239.799C399.884 241.166 399.884 243.382 401.251 244.749C402.618 246.116 404.834 246.116 406.201 244.749L428.475 222.475ZM184 223.5L426 223.5L426 216.5L184 216.5L184 223.5Z" fill="#D62783"/>
<path d="M879.385 178C870.148 162 847.054 162 837.816 178L792.783 256C783.545 272 795.092 292 813.567 292H903.634C922.109 292 933.656 272 924.419 256L879.385 178Z" fill="#326CE5"/>
<g clip-path="url(#clip1_12561_17637)">
<path d="M852.956 246.219C853.063 246.199 853.171 246.191 853.28 246.196C853.467 246.205 853.65 246.251 853.819 246.329C854.146 246.479 854.399 246.744 854.526 247.068C854.653 247.391 854.644 247.749 854.501 248.066L854.511 248.08L851.285 255.497C848.199 253.623 845.857 250.823 844.63 247.54L852.942 246.203L852.956 246.219ZM865.89 247.271C865.959 246.978 866.13 246.717 866.375 246.528C866.62 246.339 866.924 246.234 867.239 246.229C867.332 246.228 867.425 246.236 867.516 246.252L867.53 246.236L875.77 247.567C874.533 250.824 872.201 253.602 869.136 255.469L865.943 248.124L865.968 248.096C865.85 247.836 865.822 247.547 865.89 247.271V247.271ZM858.989 250.151C859.109 249.937 859.288 249.759 859.507 249.635C859.725 249.51 859.975 249.445 860.23 249.445C860.484 249.445 860.734 249.511 860.952 249.636C861.17 249.761 861.349 249.94 861.469 250.154H861.476L865.528 257.128C862.626 258.069 859.507 258.221 856.52 257.569C855.966 257.449 855.425 257.305 854.897 257.138L858.958 250.151L858.989 250.151ZM846.162 233.95L852.396 239.261L852.393 239.278C852.584 239.437 852.727 239.643 852.805 239.873C852.884 240.104 852.895 240.35 852.839 240.586C852.782 240.822 852.659 241.039 852.484 241.214C852.308 241.389 852.086 241.516 851.84 241.58L851.833 241.612L843.758 243.827C843.409 240.373 844.253 236.906 846.162 233.95V233.95ZM857.744 234.545C857.732 234.787 857.652 235.021 857.512 235.223C857.371 235.425 857.176 235.587 856.947 235.692C856.717 235.797 856.462 235.84 856.209 235.818C855.956 235.796 855.713 235.71 855.508 235.567L855.483 235.577L848.661 230.973C851.258 228.552 854.618 227.01 858.226 226.584L857.752 234.542L857.744 234.545ZM864.968 235.597C864.762 235.739 864.52 235.826 864.266 235.847C864.013 235.869 863.758 235.825 863.529 235.719C863.3 235.614 863.105 235.452 862.965 235.249C862.826 235.047 862.746 234.813 862.735 234.571L862.7 234.555L862.226 226.584C862.798 226.649 863.367 226.742 863.929 226.863C866.919 227.503 869.662 228.926 871.848 230.971L864.981 235.604L864.968 235.597ZM868.629 241.619C868.383 241.555 868.16 241.429 867.984 241.254C867.807 241.079 867.684 240.862 867.627 240.626C867.571 240.389 867.582 240.143 867.661 239.912C867.74 239.681 867.883 239.476 868.076 239.317L868.069 239.285L874.338 233.948C876.25 236.911 877.071 240.396 876.67 243.853L868.635 241.646L868.629 241.619ZM862.54 243.964L860.227 245.022L857.922 243.966L857.349 241.597L858.945 239.697H861.513L863.113 241.594L862.54 243.964Z" fill="white"/>
<path d="M821.999 248.632L828.588 221.386C828.765 220.681 829.105 220.023 829.582 219.458C830.059 218.893 830.661 218.436 831.346 218.12L858.019 205.997C858.711 205.683 859.467 205.521 860.233 205.521C860.999 205.521 861.755 205.683 862.446 205.997L889.114 218.126C889.799 218.442 890.402 218.899 890.879 219.464C891.357 220.029 891.696 220.688 891.873 221.392L898.452 248.637C898.614 249.326 898.615 250.04 898.454 250.729C898.406 250.939 898.344 251.145 898.268 251.347C898.139 251.692 897.969 252.022 897.76 252.329C897.67 252.46 897.574 252.588 897.471 252.712L879.012 274.558C878.931 274.653 878.842 274.74 878.754 274.828C878.464 275.122 878.137 275.38 877.781 275.596C877.329 275.866 876.837 276.07 876.322 276.2C875.899 276.31 875.463 276.367 875.024 276.37H874.737L845.423 276.364C845.245 276.363 845.067 276.353 844.89 276.334C844.636 276.306 844.385 276.261 844.138 276.198C843.961 276.153 843.786 276.1 843.615 276.038C843.482 275.99 843.349 275.941 843.22 275.883C843.028 275.795 842.841 275.696 842.661 275.587C842.196 275.309 841.783 274.96 841.436 274.555L840.874 273.889L822.984 252.705C822.641 252.295 822.372 251.835 822.187 251.342C822.109 251.139 822.046 250.932 821.997 250.721C821.836 250.033 821.836 249.318 821.999 248.63L821.999 248.632ZM849.665 259.228C849.59 259.438 849.501 259.643 849.399 259.841C849.562 260.113 849.606 260.435 849.522 260.738C849.134 261.584 848.66 262.392 848.107 263.15C847.798 263.538 847.512 263.942 847.251 264.361C847.187 264.475 847.103 264.65 847.042 264.77C846.927 264.953 846.854 265.157 846.826 265.368C846.799 265.579 846.819 265.794 846.884 265.998C846.949 266.202 847.058 266.39 847.204 266.551C847.35 266.713 847.531 266.843 847.733 266.934C847.935 267.025 848.155 267.075 848.379 267.08C848.603 267.085 848.825 267.046 849.032 266.964C849.239 266.883 849.425 266.761 849.579 266.607C849.734 266.453 849.852 266.269 849.928 266.069C849.989 265.95 850.074 265.792 850.125 265.679C850.308 265.224 850.462 264.759 850.589 264.287C850.866 263.403 851.232 262.547 851.684 261.732C851.881 261.479 852.173 261.31 852.499 261.261C852.55 261.177 852.739 260.847 852.84 260.677C857.588 262.388 862.833 262.375 867.571 260.641L867.933 261.264C868.19 261.302 868.43 261.413 868.621 261.583C869.165 262.433 869.581 263.352 869.857 264.313C869.982 264.785 870.136 265.25 870.317 265.705C870.368 265.817 870.454 265.973 870.515 266.091V266.095L870.517 266.098C870.593 266.298 870.712 266.482 870.866 266.636C871.02 266.791 871.207 266.913 871.414 266.994C871.621 267.076 871.844 267.115 872.068 267.11C872.292 267.104 872.512 267.054 872.714 266.963C872.917 266.871 873.097 266.741 873.243 266.579C873.389 266.417 873.497 266.228 873.562 266.024C873.627 265.82 873.645 265.605 873.617 265.393C873.589 265.182 873.515 264.978 873.399 264.796C873.339 264.675 873.258 264.501 873.195 264.387C872.935 263.967 872.649 263.561 872.339 263.173C871.776 262.394 871.292 261.567 870.895 260.701C870.852 260.407 870.902 260.108 871.037 259.841L870.746 259.179C875.115 256.724 878.389 252.833 879.952 248.239L880.647 248.351C880.917 248.169 881.235 248.062 881.565 248.043C882.517 248.217 883.449 248.478 884.348 248.823C884.814 249.023 885.293 249.197 885.78 249.345C885.895 249.375 886.062 249.405 886.193 249.433C886.204 249.436 886.213 249.441 886.224 249.443C886.232 249.444 886.24 249.445 886.248 249.445C886.46 249.512 886.684 249.535 886.906 249.514C887.128 249.494 887.343 249.429 887.537 249.324C887.731 249.22 887.901 249.078 888.034 248.908C888.167 248.737 888.261 248.543 888.311 248.336C888.361 248.129 888.364 247.914 888.322 247.706C888.279 247.497 888.191 247.299 888.064 247.125C887.936 246.951 887.772 246.804 887.581 246.694C887.391 246.583 887.178 246.512 886.957 246.485L886.934 246.479L886.92 246.476C886.787 246.446 886.616 246.404 886.494 246.381C885.986 246.314 885.474 246.275 884.962 246.264C883.995 246.204 883.037 246.054 882.101 245.817C881.824 245.648 881.589 245.423 881.415 245.158L880.747 244.972C881.472 240.177 880.312 235.296 877.489 231.265L878.001 230.83C878.019 230.515 878.13 230.211 878.321 229.953C879.057 229.352 879.852 228.82 880.696 228.366C881.151 228.144 881.593 227.898 882.019 227.629C882.116 227.56 882.244 227.457 882.35 227.375L882.373 227.36C882.736 227.111 882.982 226.736 883.055 226.317C883.129 225.897 883.025 225.467 882.766 225.12C882.613 224.941 882.418 224.8 882.197 224.707C881.976 224.614 881.735 224.572 881.494 224.584C881.088 224.6 880.698 224.74 880.381 224.983C880.273 225.064 880.124 225.173 880.028 225.252C879.656 225.586 879.305 225.941 878.976 226.314C878.324 226.996 877.603 227.616 876.824 228.165C876.532 228.311 876.192 228.343 875.876 228.253C875.686 228.385 875.494 228.514 875.3 228.642C872.495 225.804 868.863 223.829 864.87 222.97C863.919 222.765 862.955 222.624 861.984 222.548L861.946 221.906C861.698 221.696 861.518 221.423 861.428 221.119C861.393 220.197 861.453 219.274 861.606 218.364C861.707 217.886 861.78 217.404 861.824 216.918C861.828 216.808 861.821 216.655 861.82 216.529C861.82 216.515 861.824 216.501 861.824 216.487C861.846 216.274 861.822 216.06 861.752 215.857C861.682 215.654 861.568 215.467 861.418 215.309C861.268 215.15 861.084 215.024 860.879 214.937C860.674 214.85 860.452 214.805 860.228 214.805C860.004 214.805 859.782 214.85 859.577 214.936C859.372 215.023 859.188 215.149 859.038 215.308C858.887 215.466 858.773 215.653 858.703 215.855C858.633 216.058 858.608 216.273 858.631 216.485C858.631 216.618 858.623 216.795 858.628 216.917C858.671 217.402 858.744 217.885 858.847 218.362C859.001 219.273 859.061 220.196 859.027 221.118C858.964 221.427 858.777 221.699 858.506 221.878C858.5 221.988 858.481 222.354 858.467 222.556C853.421 222.993 848.713 225.159 845.217 228.651L844.61 228.238C844.283 228.291 843.948 228.256 843.641 228.138C842.863 227.588 842.142 226.967 841.489 226.284C841.16 225.911 840.808 225.556 840.435 225.222C840.337 225.142 840.189 225.035 840.081 224.954C839.921 224.803 839.729 224.687 839.519 224.611C839.308 224.536 839.083 224.504 838.859 224.517C838.634 224.529 838.415 224.587 838.215 224.686C838.016 224.784 837.84 224.922 837.7 225.089C837.56 225.257 837.458 225.45 837.402 225.658C837.345 225.865 837.335 226.081 837.372 226.292C837.409 226.504 837.492 226.705 837.617 226.884C837.741 227.062 837.903 227.214 838.092 227.329C838.2 227.411 838.341 227.526 838.444 227.599C838.871 227.869 839.314 228.115 839.77 228.336C840.614 228.79 841.409 229.322 842.144 229.923C842.358 230.162 842.466 230.471 842.444 230.784C842.533 230.862 842.845 231.125 843.01 231.267C840.179 235.284 838.996 240.15 839.685 244.942L839.04 245.121C838.879 245.397 838.641 245.625 838.352 245.78C837.415 246.018 836.457 246.168 835.49 246.229C834.978 246.24 834.467 246.279 833.959 246.345C833.825 246.369 833.631 246.42 833.494 246.45C833.273 246.477 833.06 246.549 832.87 246.659C832.679 246.769 832.515 246.916 832.388 247.091C832.26 247.265 832.172 247.463 832.13 247.671C832.087 247.88 832.091 248.094 832.141 248.301C832.191 248.508 832.285 248.703 832.418 248.873C832.552 249.044 832.721 249.185 832.915 249.29C833.109 249.394 833.324 249.459 833.546 249.479C833.768 249.5 833.992 249.477 834.204 249.41L834.227 249.407C834.238 249.405 834.248 249.399 834.259 249.397C834.39 249.369 834.556 249.342 834.671 249.313C835.158 249.164 835.636 248.988 836.103 248.787C837.002 248.442 837.935 248.181 838.888 248.007C839.217 247.998 839.538 248.111 839.781 248.323C840.008 248.282 840.235 248.244 840.463 248.209C842.007 252.832 845.281 256.754 849.665 259.228V259.228Z" fill="white"/>
</g>
<path d="M36.84 312.36V327.54C36.84 327.839 37.001 328 37.3 328H37.99C38.289 328 38.45 327.839 38.45 327.54V312.36C38.45 312.061 38.289 311.9 37.99 311.9H37.3C37.001 311.9 36.84 312.061 36.84 312.36ZM46.9708 316.224C45.5678 316.224 44.3258 316.661 43.4288 318.041V316.96C43.4288 316.661 43.2678 316.5 42.9688 316.5H42.3708C42.0718 316.5 41.9108 316.661 41.9108 316.96V327.54C41.9108 327.839 42.0718 328 42.3708 328H42.9688C43.2678 328 43.4288 327.839 43.4288 327.54V321.514C43.4288 318.662 45.1308 317.696 46.6948 317.696C48.2358 317.696 49.3628 318.662 49.3628 320.479V327.54C49.3628 327.839 49.5238 328 49.8228 328H50.4208C50.7198 328 50.8808 327.839 50.8808 327.54V320.479C50.8808 317.834 49.1098 316.224 46.9708 316.224ZM64.7631 316.5H64.1651C63.8661 316.5 63.7051 316.661 63.7051 316.96V318.754C62.7391 317.213 61.1061 316.224 59.0591 316.224C55.8161 316.224 53.1251 318.846 53.1251 322.25C53.1251 325.654 55.8161 328.276 59.0591 328.276C61.1061 328.276 62.7391 327.31 63.7051 325.769V327.54C63.7051 329.886 62.2331 331.404 59.4501 331.404C57.2191 331.404 55.8161 330.116 55.5171 328.989C55.4481 328.713 55.3101 328.575 55.0341 328.575H54.4361C54.1371 328.575 53.9531 328.736 53.9761 329.058C54.2981 331.243 56.8281 332.876 59.4501 332.876C62.5321 332.876 65.2231 331.036 65.2231 327.54V316.96C65.2231 316.661 65.0621 316.5 64.7631 316.5ZM59.1741 326.804C56.6211 326.804 54.6431 324.803 54.6431 322.25C54.6431 319.697 56.6211 317.696 59.1741 317.696C61.7271 317.696 63.7051 319.697 63.7051 322.25C63.7051 324.803 61.7271 326.804 59.1741 326.804ZM73.1291 316.339C71.8641 316.454 70.7371 316.96 69.9551 318.271V316.96C69.9551 316.661 69.7941 316.5 69.4951 316.5H68.8971C68.5981 316.5 68.4371 316.661 68.4371 316.96V327.54C68.4371 327.839 68.5981 328 68.8971 328H69.4951C69.7941 328 69.9551 327.839 69.9551 327.54V321.606C69.9551 318.915 71.5651 317.903 73.2901 317.788C73.4741 317.788 73.5891 317.604 73.5891 317.328V316.776C73.5891 316.477 73.4281 316.316 73.1291 316.339ZM80.1713 316.224C76.6063 316.224 74.2833 318.869 74.2833 322.25C74.2833 325.723 76.6523 328.276 80.1713 328.276C82.5173 328.276 84.4033 327.057 85.1853 325.309C85.3003 325.033 85.1163 324.849 84.7713 324.849H84.0353C83.7823 324.849 83.6213 324.964 83.4833 325.171C82.9083 326.114 81.7353 326.804 80.1943 326.804C77.8483 326.804 76.1463 325.355 75.8473 323.009H84.1963H85.2773C85.5533 323.009 85.7373 322.871 85.7603 322.572V322.296C85.7603 319.145 83.6903 316.224 80.1713 316.224ZM80.1713 317.696C82.1263 317.696 83.8973 319.007 84.1733 321.537H75.8243C76.1233 319.306 77.7333 317.696 80.1713 317.696ZM89.241 319.513C89.241 318.225 90.529 317.696 91.748 317.696C92.852 317.696 94.002 318.133 94.209 319.398C94.278 319.674 94.416 319.835 94.692 319.835H95.29C95.589 319.835 95.773 319.674 95.75 319.352C95.52 317.42 93.91 316.224 91.748 316.224C89.425 316.224 87.723 317.627 87.723 319.513C87.723 323.814 94.485 322.066 94.485 324.987C94.485 326.275 93.197 326.804 91.748 326.804C90.437 326.804 89.264 326.367 89.057 325.102C88.988 324.826 88.85 324.665 88.574 324.665H87.976C87.677 324.665 87.493 324.826 87.516 325.148C87.746 327.08 89.379 328.276 91.748 328.276C94.301 328.276 96.003 326.873 96.003 324.987C96.003 320.686 89.241 322.434 89.241 319.513ZM99.5955 319.513C99.5955 318.225 100.884 317.696 102.103 317.696C103.207 317.696 104.357 318.133 104.564 319.398C104.633 319.674 104.771 319.835 105.047 319.835H105.645C105.944 319.835 106.128 319.674 106.105 319.352C105.875 317.42 104.265 316.224 102.103 316.224C99.7795 316.224 98.0775 317.627 98.0775 319.513C98.0775 323.814 104.84 322.066 104.84 324.987C104.84 326.275 103.552 326.804 102.103 326.804C100.792 326.804 99.6185 326.367 99.4115 325.102C99.3425 324.826 99.2045 324.665 98.9285 324.665H98.3305C98.0315 324.665 97.8475 324.826 97.8705 325.148C98.1005 327.08 99.7335 328.276 102.103 328.276C104.656 328.276 106.358 326.873 106.358 324.987C106.358 320.686 99.5955 322.434 99.5955 319.513ZM129.472 319.881H123.262C122.963 319.881 122.802 320.042 122.802 320.341V320.939C122.802 321.238 122.963 321.399 123.262 321.399H128.322V321.79C128.322 324.987 125.585 326.712 122.388 326.712C118.432 326.712 115.672 323.699 115.672 319.95C115.672 316.201 118.432 313.188 122.388 313.188C124.895 313.188 127.08 314.568 128.023 316.615C128.138 316.845 128.322 316.96 128.575 316.96H129.38C129.702 316.96 129.863 316.753 129.748 316.431C128.621 313.579 125.723 311.624 122.388 311.624C117.558 311.624 114.062 315.35 114.062 319.95C114.062 324.55 117.558 328.276 122.388 328.276C124.78 328.276 127.08 327.425 128.299 325.539V327.54C128.299 327.839 128.46 328 128.759 328H129.449C129.748 328 129.909 327.839 129.909 327.54V321.399V320.341C129.909 320.042 129.748 319.881 129.449 319.881H129.472ZM137.175 316.224C134.783 316.224 133.081 317.627 132.828 319.582C132.805 319.904 132.989 320.065 133.288 320.065H133.886C134.162 320.065 134.3 319.904 134.369 319.628C134.599 318.317 135.841 317.696 137.175 317.696C138.647 317.696 140.027 318.455 140.027 320.525V322.388C139.245 321.399 137.911 320.87 136.462 320.87C134.346 320.87 132.345 322.089 132.345 324.573C132.345 327.057 134.346 328.276 136.462 328.276C137.911 328.276 139.245 327.839 140.027 326.712V327.54C140.027 327.839 140.188 328 140.487 328H141.085C141.384 328 141.545 327.839 141.545 327.54V320.525C141.545 317.857 139.751 316.224 137.175 316.224ZM136.83 326.85C134.783 326.85 133.863 325.884 133.863 324.573C133.863 323.262 134.783 322.296 136.83 322.296C138.67 322.296 140.027 323.17 140.027 324.573C140.027 325.884 138.67 326.85 136.83 326.85ZM149.205 316.5H147.273V313.28C147.273 312.981 147.112 312.82 146.813 312.82H146.215C145.916 312.82 145.755 312.981 145.755 313.28V316.5H143.8C143.501 316.5 143.34 316.661 143.34 316.96V317.512C143.34 317.811 143.501 317.972 143.8 317.972H145.755V327.54C145.755 327.839 145.916 328 146.215 328H146.813C147.112 328 147.273 327.839 147.273 327.54V317.972H149.205C149.504 317.972 149.665 317.811 149.665 317.512V316.96C149.665 316.661 149.504 316.5 149.205 316.5ZM156.494 316.224C152.929 316.224 150.606 318.869 150.606 322.25C150.606 325.723 152.975 328.276 156.494 328.276C158.84 328.276 160.726 327.057 161.508 325.309C161.623 325.033 161.439 324.849 161.094 324.849H160.358C160.105 324.849 159.944 324.964 159.806 325.171C159.231 326.114 158.058 326.804 156.517 326.804C154.171 326.804 152.469 325.355 152.17 323.009H160.519H161.6C161.876 323.009 162.06 322.871 162.083 322.572V322.296C162.083 319.145 160.013 316.224 156.494 316.224ZM156.494 317.696C158.449 317.696 160.22 319.007 160.496 321.537H152.147C152.446 319.306 154.056 317.696 156.494 317.696ZM177.414 316.5H176.747C176.494 316.5 176.333 316.615 176.241 316.868L173.136 326.229L170.031 316.868C169.939 316.615 169.778 316.5 169.525 316.5H168.858C168.536 316.5 168.375 316.707 168.49 317.029L169.64 320.41L167.616 326.275L164.511 316.868C164.419 316.615 164.258 316.5 164.005 316.5H163.338C163.016 316.5 162.855 316.707 162.97 317.029L166.65 327.632C166.742 327.885 166.926 328 167.179 328H167.57H168.053C168.306 328 168.49 327.885 168.582 327.632L170.376 322.526L172.17 327.632C172.262 327.885 172.446 328 172.699 328H173.09H173.573C173.826 328 174.01 327.885 174.102 327.632L177.782 317.029C177.897 316.707 177.736 316.5 177.414 316.5ZM183.602 316.224C181.21 316.224 179.508 317.627 179.255 319.582C179.232 319.904 179.416 320.065 179.715 320.065H180.313C180.589 320.065 180.727 319.904 180.796 319.628C181.026 318.317 182.268 317.696 183.602 317.696C185.074 317.696 186.454 318.455 186.454 320.525V322.388C185.672 321.399 184.338 320.87 182.889 320.87C180.773 320.87 178.772 322.089 178.772 324.573C178.772 327.057 180.773 328.276 182.889 328.276C184.338 328.276 185.672 327.839 186.454 326.712V327.54C186.454 327.839 186.615 328 186.914 328H187.512C187.811 328 187.972 327.839 187.972 327.54V320.525C187.972 317.857 186.178 316.224 183.602 316.224ZM183.257 326.85C181.21 326.85 180.29 325.884 180.29 324.573C180.29 323.262 181.21 322.296 183.257 322.296C185.097 322.296 186.454 323.17 186.454 324.573C186.454 325.884 185.097 326.85 183.257 326.85ZM197.914 316.868L194.74 325.792L191.06 316.845C190.968 316.592 190.784 316.5 190.531 316.5H189.887C189.542 316.5 189.404 316.707 189.542 317.029L193.981 327.908L192.509 332.071C192.394 332.393 192.555 332.6 192.877 332.6H193.544C193.797 332.6 193.981 332.485 194.073 332.232L199.478 317.029C199.593 316.707 199.432 316.5 199.11 316.5H198.443C198.19 316.5 198.006 316.615 197.914 316.868Z" fill="black"/>
<path d="M525.555 327.276C528.269 327.276 530.73 325.62 530.73 322.929C530.73 319.962 527.97 319.065 525.532 318.122C523.6 317.386 521.99 316.673 521.99 314.833C521.99 313.131 523.462 312.188 525.233 312.188C527.027 312.188 528.43 313.085 528.637 314.787C528.66 315.063 528.821 315.224 529.097 315.224H529.81C530.109 315.224 530.27 315.063 530.247 314.741C530.017 312.096 527.786 310.624 525.233 310.624C522.726 310.624 520.38 312.165 520.38 314.833C520.38 317.961 523.071 318.789 525.509 319.709C527.418 320.422 529.12 321.181 529.12 322.929C529.12 324.654 527.533 325.712 525.555 325.712C523.393 325.712 521.783 324.7 521.553 322.791C521.53 322.492 521.369 322.331 521.093 322.331H520.38C520.081 322.331 519.92 322.492 519.943 322.814C520.173 325.689 522.657 327.276 525.555 327.276ZM538.454 315.224C534.889 315.224 532.566 317.869 532.566 321.25C532.566 324.723 534.935 327.276 538.454 327.276C540.8 327.276 542.686 326.057 543.468 324.309C543.583 324.033 543.399 323.849 543.054 323.849H542.318C542.065 323.849 541.904 323.964 541.766 324.171C541.191 325.114 540.018 325.804 538.477 325.804C536.131 325.804 534.429 324.355 534.13 322.009H542.479H543.56C543.836 322.009 544.02 321.871 544.043 321.572V321.296C544.043 318.145 541.973 315.224 538.454 315.224ZM538.454 316.696C540.409 316.696 542.18 318.007 542.456 320.537H534.107C534.406 318.306 536.016 316.696 538.454 316.696ZM551.042 315.339C549.777 315.454 548.65 315.96 547.868 317.271V315.96C547.868 315.661 547.707 315.5 547.408 315.5H546.81C546.511 315.5 546.35 315.661 546.35 315.96V326.54C546.35 326.839 546.511 327 546.81 327H547.408C547.707 327 547.868 326.839 547.868 326.54V320.606C547.868 317.915 549.478 316.903 551.203 316.788C551.387 316.788 551.502 316.604 551.502 316.328V315.776C551.502 315.477 551.341 315.316 551.042 315.339ZM561.978 315.5H561.334C561.081 315.5 560.897 315.615 560.805 315.868L557.378 325.344L553.951 315.868C553.859 315.615 553.675 315.5 553.422 315.5H552.778C552.456 315.5 552.295 315.707 552.41 316.029L556.32 326.632C556.412 326.862 556.596 327 556.849 327H557.332H557.907C558.16 327 558.344 326.885 558.436 326.632L562.346 316.029C562.461 315.707 562.3 315.5 561.978 315.5ZM564.846 313.2H565.444C565.743 313.2 565.904 313.039 565.904 312.74V311.36C565.904 311.061 565.743 310.9 565.444 310.9H564.846C564.547 310.9 564.386 311.061 564.386 311.36V312.74C564.386 313.039 564.547 313.2 564.846 313.2ZM564.846 327H565.444C565.743 327 565.904 326.839 565.904 326.54V315.96C565.904 315.661 565.743 315.5 565.444 315.5H564.846C564.547 315.5 564.386 315.661 564.386 315.96V326.54C564.386 326.839 564.547 327 564.846 327ZM579.453 323.32H578.786C578.533 323.32 578.349 323.435 578.234 323.665C577.567 324.953 576.164 325.804 574.485 325.804C571.932 325.804 569.954 323.803 569.954 321.25C569.954 318.697 571.932 316.696 574.485 316.696C576.141 316.696 577.544 317.524 578.234 318.835C578.349 319.065 578.533 319.18 578.786 319.18H579.453C579.775 319.18 579.959 318.973 579.821 318.651C578.993 316.604 576.923 315.224 574.485 315.224C571.012 315.224 568.436 317.846 568.436 321.25C568.436 324.654 571.012 327.276 574.485 327.276C576.923 327.276 579.016 325.896 579.821 323.849C579.959 323.527 579.775 323.32 579.453 323.32ZM587.508 315.224C583.943 315.224 581.62 317.869 581.62 321.25C581.62 324.723 583.989 327.276 587.508 327.276C589.854 327.276 591.74 326.057 592.522 324.309C592.637 324.033 592.453 323.849 592.108 323.849H591.372C591.119 323.849 590.958 323.964 590.82 324.171C590.245 325.114 589.072 325.804 587.531 325.804C585.185 325.804 583.483 324.355 583.184 322.009H591.533H592.614C592.89 322.009 593.074 321.871 593.097 321.572V321.296C593.097 318.145 591.027 315.224 587.508 315.224ZM587.508 316.696C589.463 316.696 591.234 318.007 591.51 320.537H583.161C583.46 318.306 585.07 316.696 587.508 316.696ZM601.385 311.36V326.54C601.385 326.839 601.546 327 601.845 327H602.535C602.834 327 602.995 326.839 602.995 326.54V311.36C602.995 311.061 602.834 310.9 602.535 310.9H601.845C601.546 310.9 601.385 311.061 601.385 311.36ZM611.516 315.224C610.113 315.224 608.871 315.661 607.974 317.041V315.96C607.974 315.661 607.813 315.5 607.514 315.5H606.916C606.617 315.5 606.456 315.661 606.456 315.96V326.54C606.456 326.839 606.617 327 606.916 327H607.514C607.813 327 607.974 326.839 607.974 326.54V320.514C607.974 317.662 609.676 316.696 611.24 316.696C612.781 316.696 613.908 317.662 613.908 319.479V326.54C613.908 326.839 614.069 327 614.368 327H614.966C615.265 327 615.426 326.839 615.426 326.54V319.479C615.426 316.834 613.655 315.224 611.516 315.224ZM623.075 315.5H621.143V312.28C621.143 311.981 620.982 311.82 620.683 311.82H620.085C619.786 311.82 619.625 311.981 619.625 312.28V315.5H617.67C617.371 315.5 617.21 315.661 617.21 315.96V316.512C617.21 316.811 617.371 316.972 617.67 316.972H619.625V326.54C619.625 326.839 619.786 327 620.085 327H620.683C620.982 327 621.143 326.839 621.143 326.54V316.972H623.075C623.374 316.972 623.535 316.811 623.535 316.512V315.96C623.535 315.661 623.374 315.5 623.075 315.5ZM630.364 315.224C626.799 315.224 624.476 317.869 624.476 321.25C624.476 324.723 626.845 327.276 630.364 327.276C632.71 327.276 634.596 326.057 635.378 324.309C635.493 324.033 635.309 323.849 634.964 323.849H634.228C633.975 323.849 633.814 323.964 633.676 324.171C633.101 325.114 631.928 325.804 630.387 325.804C628.041 325.804 626.339 324.355 626.04 322.009H634.389H635.47C635.746 322.009 635.93 321.871 635.953 321.572V321.296C635.953 318.145 633.883 315.224 630.364 315.224ZM630.364 316.696C632.319 316.696 634.09 318.007 634.366 320.537H626.017C626.316 318.306 627.926 316.696 630.364 316.696ZM642.952 315.339C641.687 315.454 640.56 315.96 639.778 317.271V315.96C639.778 315.661 639.617 315.5 639.318 315.5H638.72C638.421 315.5 638.26 315.661 638.26 315.96V326.54C638.26 326.839 638.421 327 638.72 327H639.318C639.617 327 639.778 326.839 639.778 326.54V320.606C639.778 317.915 641.388 316.903 643.113 316.788C643.297 316.788 643.412 316.604 643.412 316.328V315.776C643.412 315.477 643.251 315.316 642.952 315.339ZM650.645 312.073C650.967 312.073 651.128 311.935 651.128 311.636V311.084C651.128 310.808 650.967 310.601 650.668 310.601C647.862 310.555 646.298 312.188 646.298 315.04V315.5H644.803C644.504 315.5 644.343 315.661 644.343 315.96V316.512C644.343 316.811 644.504 316.972 644.803 316.972H646.298V326.54C646.298 326.839 646.459 327 646.758 327H647.356C647.655 327 647.816 326.839 647.816 326.54V316.972H650.668C650.967 316.972 651.128 316.811 651.128 316.512V315.96C651.128 315.661 650.967 315.5 650.668 315.5H647.816V315.04C647.816 312.993 648.736 312.05 650.645 312.073ZM656.663 315.224C654.271 315.224 652.569 316.627 652.316 318.582C652.293 318.904 652.477 319.065 652.776 319.065H653.374C653.65 319.065 653.788 318.904 653.857 318.628C654.087 317.317 655.329 316.696 656.663 316.696C658.135 316.696 659.515 317.455 659.515 319.525V321.388C658.733 320.399 657.399 319.87 655.95 319.87C653.834 319.87 651.833 321.089 651.833 323.573C651.833 326.057 653.834 327.276 655.95 327.276C657.399 327.276 658.733 326.839 659.515 325.712V326.54C659.515 326.839 659.676 327 659.975 327H660.573C660.872 327 661.033 326.839 661.033 326.54V319.525C661.033 316.857 659.239 315.224 656.663 315.224ZM656.318 325.85C654.271 325.85 653.351 324.884 653.351 323.573C653.351 322.262 654.271 321.296 656.318 321.296C658.158 321.296 659.515 322.17 659.515 323.573C659.515 324.884 658.158 325.85 656.318 325.85ZM674.305 323.32H673.638C673.385 323.32 673.201 323.435 673.086 323.665C672.419 324.953 671.016 325.804 669.337 325.804C666.784 325.804 664.806 323.803 664.806 321.25C664.806 318.697 666.784 316.696 669.337 316.696C670.993 316.696 672.396 317.524 673.086 318.835C673.201 319.065 673.385 319.18 673.638 319.18H674.305C674.627 319.18 674.811 318.973 674.673 318.651C673.845 316.604 671.775 315.224 669.337 315.224C665.864 315.224 663.288 317.846 663.288 321.25C663.288 324.654 665.864 327.276 669.337 327.276C671.775 327.276 673.868 325.896 674.673 323.849C674.811 323.527 674.627 323.32 674.305 323.32ZM682.361 315.224C678.796 315.224 676.473 317.869 676.473 321.25C676.473 324.723 678.842 327.276 682.361 327.276C684.707 327.276 686.593 326.057 687.375 324.309C687.49 324.033 687.306 323.849 686.961 323.849H686.225C685.972 323.849 685.811 323.964 685.673 324.171C685.098 325.114 683.925 325.804 682.384 325.804C680.038 325.804 678.336 324.355 678.037 322.009H686.386H687.467C687.743 322.009 687.927 321.871 687.95 321.572V321.296C687.95 318.145 685.88 315.224 682.361 315.224ZM682.361 316.696C684.316 316.696 686.087 318.007 686.363 320.537H678.014C678.313 318.306 679.923 316.696 682.361 316.696Z" fill="black"/>
<path d="M776.558 326.425L769.152 318.743L776.328 311.475C776.604 311.199 776.466 310.9 776.075 310.9H775.086C774.856 310.9 774.695 310.969 774.534 311.13L767.45 318.26V311.36C767.45 311.061 767.289 310.9 766.99 310.9H766.3C766.001 310.9 765.84 311.061 765.84 311.36V326.54C765.84 326.839 766.001 327 766.3 327H766.99C767.289 327 767.45 326.839 767.45 326.54V319.203L774.764 326.77C774.925 326.954 775.109 327 775.339 327H776.328C776.719 327 776.834 326.724 776.558 326.425ZM786.737 315.5H786.139C785.84 315.5 785.679 315.661 785.679 315.96V321.986C785.679 324.838 783.977 325.804 782.413 325.804C780.872 325.804 779.745 324.838 779.745 323.021V315.96C779.745 315.661 779.584 315.5 779.285 315.5H778.687C778.388 315.5 778.227 315.661 778.227 315.96V323.021C778.227 325.666 779.998 327.276 782.137 327.276C783.517 327.276 784.759 326.862 785.656 325.482V326.54C785.656 326.839 785.817 327 786.116 327H786.714C787.013 327 787.174 326.839 787.174 326.54V315.96C787.174 315.661 787.013 315.5 786.714 315.5H786.737ZM796.571 315.224C794.501 315.224 792.868 316.213 791.925 317.754V311.36C791.925 311.061 791.764 310.9 791.465 310.9H790.867C790.568 310.9 790.407 311.061 790.407 311.36V326.54C790.407 326.839 790.568 327 790.867 327H791.465C791.764 327 791.925 326.839 791.925 326.54V324.769C792.868 326.31 794.501 327.276 796.571 327.276C799.814 327.276 802.505 324.654 802.505 321.25C802.505 317.846 799.814 315.224 796.571 315.224ZM796.456 325.804C793.903 325.804 791.925 323.803 791.925 321.25C791.925 318.697 793.903 316.696 796.456 316.696C799.009 316.696 800.987 318.697 800.987 321.25C800.987 323.803 799.009 325.804 796.456 325.804ZM810.227 315.224C806.662 315.224 804.339 317.869 804.339 321.25C804.339 324.723 806.708 327.276 810.227 327.276C812.573 327.276 814.459 326.057 815.241 324.309C815.356 324.033 815.172 323.849 814.827 323.849H814.091C813.838 323.849 813.677 323.964 813.539 324.171C812.964 325.114 811.791 325.804 810.25 325.804C807.904 325.804 806.202 324.355 805.903 322.009H814.252H815.333C815.609 322.009 815.793 321.871 815.816 321.572V321.296C815.816 318.145 813.746 315.224 810.227 315.224ZM810.227 316.696C812.182 316.696 813.953 318.007 814.229 320.537H805.88C806.179 318.306 807.789 316.696 810.227 316.696ZM822.816 315.339C821.551 315.454 820.424 315.96 819.642 317.271V315.96C819.642 315.661 819.481 315.5 819.182 315.5H818.584C818.285 315.5 818.124 315.661 818.124 315.96V326.54C818.124 326.839 818.285 327 818.584 327H819.182C819.481 327 819.642 326.839 819.642 326.54V320.606C819.642 317.915 821.252 316.903 822.977 316.788C823.161 316.788 823.276 316.604 823.276 316.328V315.776C823.276 315.477 823.115 315.316 822.816 315.339ZM830.416 315.224C829.013 315.224 827.771 315.661 826.874 317.041V315.96C826.874 315.661 826.713 315.5 826.414 315.5H825.816C825.517 315.5 825.356 315.661 825.356 315.96V326.54C825.356 326.839 825.517 327 825.816 327H826.414C826.713 327 826.874 326.839 826.874 326.54V320.514C826.874 317.662 828.576 316.696 830.14 316.696C831.681 316.696 832.808 317.662 832.808 319.479V326.54C832.808 326.839 832.969 327 833.268 327H833.866C834.165 327 834.326 326.839 834.326 326.54V319.479C834.326 316.834 832.555 315.224 830.416 315.224ZM842.458 315.224C838.893 315.224 836.57 317.869 836.57 321.25C836.57 324.723 838.939 327.276 842.458 327.276C844.804 327.276 846.69 326.057 847.472 324.309C847.587 324.033 847.403 323.849 847.058 323.849H846.322C846.069 323.849 845.908 323.964 845.77 324.171C845.195 325.114 844.022 325.804 842.481 325.804C840.135 325.804 838.433 324.355 838.134 322.009H846.483H847.564C847.84 322.009 848.024 321.871 848.047 321.572V321.296C848.047 318.145 845.977 315.224 842.458 315.224ZM842.458 316.696C844.413 316.696 846.184 318.007 846.46 320.537H838.111C838.41 318.306 840.02 316.696 842.458 316.696ZM854.958 315.5H853.026V312.28C853.026 311.981 852.865 311.82 852.566 311.82H851.968C851.669 311.82 851.508 311.981 851.508 312.28V315.5H849.553C849.254 315.5 849.093 315.661 849.093 315.96V316.512C849.093 316.811 849.254 316.972 849.553 316.972H851.508V326.54C851.508 326.839 851.669 327 851.968 327H852.566C852.865 327 853.026 326.839 853.026 326.54V316.972H854.958C855.257 316.972 855.418 316.811 855.418 316.512V315.96C855.418 315.661 855.257 315.5 854.958 315.5ZM862.246 315.224C858.681 315.224 856.358 317.869 856.358 321.25C856.358 324.723 858.727 327.276 862.246 327.276C864.592 327.276 866.478 326.057 867.26 324.309C867.375 324.033 867.191 323.849 866.846 323.849H866.11C865.857 323.849 865.696 323.964 865.558 324.171C864.983 325.114 863.81 325.804 862.269 325.804C859.923 325.804 858.221 324.355 857.922 322.009H866.271H867.352C867.628 322.009 867.812 321.871 867.835 321.572V321.296C867.835 318.145 865.765 315.224 862.246 315.224ZM862.246 316.696C864.201 316.696 865.972 318.007 866.248 320.537H857.899C858.198 318.306 859.808 316.696 862.246 316.696ZM871.316 318.513C871.316 317.225 872.604 316.696 873.823 316.696C874.927 316.696 876.077 317.133 876.284 318.398C876.353 318.674 876.491 318.835 876.767 318.835H877.365C877.664 318.835 877.848 318.674 877.825 318.352C877.595 316.42 875.985 315.224 873.823 315.224C871.5 315.224 869.798 316.627 869.798 318.513C869.798 322.814 876.56 321.066 876.56 323.987C876.56 325.275 875.272 325.804 873.823 325.804C872.512 325.804 871.339 325.367 871.132 324.102C871.063 323.826 870.925 323.665 870.649 323.665H870.051C869.752 323.665 869.568 323.826 869.591 324.148C869.821 326.08 871.454 327.276 873.823 327.276C876.376 327.276 878.078 325.873 878.078 323.987C878.078 319.686 871.316 321.434 871.316 318.513ZM891.417 327.276C894.131 327.276 896.592 325.62 896.592 322.929C896.592 319.962 893.832 319.065 891.394 318.122C889.462 317.386 887.852 316.673 887.852 314.833C887.852 313.131 889.324 312.188 891.095 312.188C892.889 312.188 894.292 313.085 894.499 314.787C894.522 315.063 894.683 315.224 894.959 315.224H895.672C895.971 315.224 896.132 315.063 896.109 314.741C895.879 312.096 893.648 310.624 891.095 310.624C888.588 310.624 886.242 312.165 886.242 314.833C886.242 317.961 888.933 318.789 891.371 319.709C893.28 320.422 894.982 321.181 894.982 322.929C894.982 324.654 893.395 325.712 891.417 325.712C889.255 325.712 887.645 324.7 887.415 322.791C887.392 322.492 887.231 322.331 886.955 322.331H886.242C885.943 322.331 885.782 322.492 885.805 322.814C886.035 325.689 888.519 327.276 891.417 327.276ZM904.316 315.224C900.751 315.224 898.428 317.869 898.428 321.25C898.428 324.723 900.797 327.276 904.316 327.276C906.662 327.276 908.548 326.057 909.33 324.309C909.445 324.033 909.261 323.849 908.916 323.849H908.18C907.927 323.849 907.766 323.964 907.628 324.171C907.053 325.114 905.88 325.804 904.339 325.804C901.993 325.804 900.291 324.355 899.992 322.009H908.341H909.422C909.698 322.009 909.882 321.871 909.905 321.572V321.296C909.905 318.145 907.835 315.224 904.316 315.224ZM904.316 316.696C906.271 316.696 908.042 318.007 908.318 320.537H899.969C900.268 318.306 901.878 316.696 904.316 316.696ZM916.905 315.339C915.64 315.454 914.513 315.96 913.731 317.271V315.96C913.731 315.661 913.57 315.5 913.271 315.5H912.673C912.374 315.5 912.213 315.661 912.213 315.96V326.54C912.213 326.839 912.374 327 912.673 327H913.271C913.57 327 913.731 326.839 913.731 326.54V320.606C913.731 317.915 915.341 316.903 917.066 316.788C917.25 316.788 917.365 316.604 917.365 316.328V315.776C917.365 315.477 917.204 315.316 916.905 315.339ZM927.84 315.5H927.196C926.943 315.5 926.759 315.615 926.667 315.868L923.24 325.344L919.813 315.868C919.721 315.615 919.537 315.5 919.284 315.5H918.64C918.318 315.5 918.157 315.707 918.272 316.029L922.182 326.632C922.274 326.862 922.458 327 922.711 327H923.194H923.769C924.022 327 924.206 326.885 924.298 326.632L928.208 316.029C928.323 315.707 928.162 315.5 927.84 315.5ZM930.709 313.2H931.307C931.606 313.2 931.767 313.039 931.767 312.74V311.36C931.767 311.061 931.606 310.9 931.307 310.9H930.709C930.41 310.9 930.249 311.061 930.249 311.36V312.74C930.249 313.039 930.41 313.2 930.709 313.2ZM930.709 327H931.307C931.606 327 931.767 326.839 931.767 326.54V315.96C931.767 315.661 931.606 315.5 931.307 315.5H930.709C930.41 315.5 930.249 315.661 930.249 315.96V326.54C930.249 326.839 930.41 327 930.709 327ZM945.315 323.32H944.648C944.395 323.32 944.211 323.435 944.096 323.665C943.429 324.953 942.026 325.804 940.347 325.804C937.794 325.804 935.816 323.803 935.816 321.25C935.816 318.697 937.794 316.696 940.347 316.696C942.003 316.696 943.406 317.524 944.096 318.835C944.211 319.065 944.395 319.18 944.648 319.18H945.315C945.637 319.18 945.821 318.973 945.683 318.651C944.855 316.604 942.785 315.224 940.347 315.224C936.874 315.224 934.298 317.846 934.298 321.25C934.298 324.654 936.874 327.276 940.347 327.276C942.785 327.276 944.878 325.896 945.683 323.849C945.821 323.527 945.637 323.32 945.315 323.32ZM953.371 315.224C949.806 315.224 947.483 317.869 947.483 321.25C947.483 324.723 949.852 327.276 953.371 327.276C955.717 327.276 957.603 326.057 958.384 324.309C958.5 324.033 958.316 323.849 957.971 323.849H957.235C956.982 323.849 956.821 323.964 956.683 324.171C956.108 325.114 954.935 325.804 953.394 325.804C951.048 325.804 949.346 324.355 949.047 322.009H957.396H958.477C958.753 322.009 958.937 321.871 958.96 321.572V321.296C958.96 318.145 956.89 315.224 953.371 315.224ZM953.371 316.696C955.326 316.696 957.097 318.007 957.373 320.537H949.024C949.323 318.306 950.933 316.696 953.371 316.696Z" fill="black"/>
<path fill-rule="evenodd" clip-rule="evenodd" d="M88.7566 276.431C55.669 260.867 41.6867 221.895 57.5266 189.384C65.1332 173.771 78.7402 161.768 95.3543 156.013C111.968 150.258 130.229 151.224 146.118 158.698C179.206 174.262 193.188 213.234 177.348 245.745C161.508 278.256 121.844 291.994 88.7566 276.431V276.431Z" fill="#D62783"/>
<path fill-rule="evenodd" clip-rule="evenodd" d="M116.371 225.55C111.811 225.55 108.264 222.016 108.264 217.473C108.264 212.93 111.811 209.396 116.371 209.396C120.932 209.396 124.479 212.93 124.479 217.473C124.479 222.016 120.932 225.55 116.371 225.55" fill="white"/>
<path fill-rule="evenodd" clip-rule="evenodd" d="M132.206 221.259C130.18 221.259 128.406 219.617 128.406 217.473C128.406 215.453 130.053 213.686 132.206 213.686C134.233 213.686 136.007 215.327 136.007 217.473C136.007 219.617 134.233 221.258 132.206 221.258V221.259ZM145.888 224.791C145.382 226.809 143.354 227.944 141.327 227.439C139.301 226.934 138.16 224.916 138.667 222.897C139.174 220.879 141.2 219.74 143.228 220.245C145.124 220.75 146.393 222.516 146.012 224.536C146.012 224.536 146.012 224.662 145.886 224.788L145.888 224.791ZM143.224 215.197C141.196 215.701 139.169 214.439 138.662 212.42C138.156 210.401 139.422 208.381 141.449 207.876C143.476 207.372 145.503 208.634 146.01 210.654C146.136 211.159 146.136 211.663 146.01 212.168C145.883 213.557 144.869 214.818 143.223 215.197H143.224ZM156.649 224.282C156.268 226.301 154.367 227.689 152.341 227.311C150.315 226.933 148.921 225.04 149.302 223.021C149.681 221.002 151.581 219.613 153.608 219.991C155.509 220.37 156.903 222.137 156.776 224.03C156.65 224.156 156.65 224.156 156.65 224.282H156.649ZM153.615 214.949C151.589 215.327 149.688 213.939 149.308 211.92C148.928 209.901 150.321 208.008 152.349 207.629C154.375 207.251 156.276 208.638 156.655 210.658C156.655 211.037 156.782 211.289 156.655 211.667C156.529 213.308 155.262 214.696 153.615 214.949ZM150.955 237.285C149.942 239.052 147.661 239.683 145.888 238.673C144.114 237.664 143.481 235.392 144.494 233.625C145.508 231.859 147.788 231.227 149.562 232.237C150.828 232.994 151.588 234.382 151.461 235.771C151.335 236.275 151.208 236.78 150.955 237.284V237.285ZM149.562 202.961C147.788 203.97 145.508 203.339 144.494 201.572C143.481 199.805 144.114 197.534 145.888 196.524C147.661 195.515 149.941 196.145 150.955 197.913C151.335 198.67 151.461 199.301 151.461 200.057C151.335 201.194 150.702 202.329 149.562 202.96" fill="white"/>
<path d="M116.498 255.205C106.364 255.205 96.99 251.293 89.7694 244.226C82.802 237.032 78.875 227.565 78.875 217.597C78.875 207.5 82.802 198.162 89.8958 190.968C96.99 183.903 106.491 179.991 116.498 179.991C124.859 179.991 132.84 182.641 139.427 187.69L134.742 193.746C129.421 189.711 123.086 187.565 116.501 187.565C108.52 187.565 100.919 190.72 95.2189 196.399C89.5208 202.078 86.4801 209.523 86.4801 217.599C86.4801 225.55 89.6468 233.121 95.3473 238.8C101.048 244.479 108.522 247.507 116.629 247.507C123.343 247.507 129.677 245.362 134.87 241.324L139.431 247.379C132.845 252.426 124.864 255.203 116.503 255.203L116.498 255.205Z" fill="white"/>
<path fill-rule="evenodd" clip-rule="evenodd" d="M572.757 282.364C539.669 266.801 525.687 227.828 541.527 195.317C549.133 179.705 562.74 167.701 579.354 161.946C595.968 156.192 614.229 157.158 630.118 164.632C663.206 180.195 677.188 219.168 661.348 251.679C645.508 284.19 605.844 297.928 572.757 282.364V282.364Z" fill="#D62783"/>
<path fill-rule="evenodd" clip-rule="evenodd" d="M599.6 231.457C595.039 231.457 591.492 227.924 591.492 223.381C591.492 218.838 595.039 215.304 599.6 215.304C604.16 215.304 607.707 218.838 607.707 223.381C607.707 227.924 604.16 231.457 599.6 231.457" fill="white"/>
<path fill-rule="evenodd" clip-rule="evenodd" d="M615.433 227.166C613.407 227.166 611.633 225.525 611.633 223.38C611.633 221.361 613.279 219.594 615.433 219.594C617.459 219.594 619.234 221.235 619.234 223.38C619.234 225.525 617.46 227.166 615.433 227.166V227.166ZM629.115 230.698C628.608 232.717 626.581 233.851 624.554 233.347C622.528 232.842 621.387 230.823 621.894 228.805C622.4 226.786 624.427 225.648 626.454 226.152C628.351 226.657 629.619 228.423 629.238 230.444C629.238 230.444 629.238 230.569 629.113 230.695L629.115 230.698ZM626.45 221.104C624.422 221.609 622.396 220.347 621.889 218.327C621.382 216.309 622.649 214.289 624.676 213.784C626.702 213.279 628.73 214.542 629.236 216.561C629.363 217.066 629.363 217.571 629.236 218.075C629.109 219.464 628.096 220.725 626.449 221.104H626.45ZM639.876 230.19C639.495 232.208 637.594 233.597 635.568 233.219C633.541 232.84 632.147 230.947 632.528 228.928C632.907 226.909 634.808 225.521 636.835 225.899C638.735 226.278 640.129 228.044 640.002 229.937C639.877 230.063 639.877 230.063 639.877 230.19H639.876ZM636.842 220.856C634.815 221.235 632.915 219.847 632.535 217.827C632.155 215.809 633.548 213.915 635.575 213.537C637.601 213.158 639.502 214.546 639.882 216.565C639.882 216.944 640.009 217.196 639.882 217.575C639.755 219.215 638.489 220.604 636.842 220.856ZM634.181 243.192C633.168 244.959 630.888 245.59 629.114 244.58C627.341 243.571 626.707 241.299 627.721 239.533C628.734 237.766 631.015 237.135 632.788 238.145C634.055 238.902 634.814 240.29 634.688 241.678C634.562 242.183 634.435 242.687 634.181 243.192V243.192ZM632.788 208.868C631.015 209.877 628.734 209.246 627.721 207.479C626.708 205.713 627.341 203.441 629.114 202.432C630.888 201.422 633.168 202.053 634.181 203.82C634.562 204.577 634.688 205.208 634.688 205.965C634.562 207.101 633.928 208.237 632.788 208.868" fill="white"/>
<path d="M599.725 261.112C589.591 261.112 580.217 257.2 572.996 250.134C566.029 242.94 562.102 233.472 562.102 223.505C562.102 213.408 566.029 204.07 573.122 196.876C580.217 189.811 589.717 185.899 599.725 185.899C608.085 185.899 616.066 188.548 622.654 193.597L617.968 199.654C612.647 195.618 606.313 193.473 599.727 193.473C591.747 193.473 584.146 196.628 578.445 202.306C572.747 207.985 569.707 215.431 569.707 223.507C569.707 231.457 572.873 239.029 578.574 244.707C584.274 250.386 591.749 253.415 599.856 253.415C606.57 253.415 612.904 251.269 618.097 247.231L622.658 253.287C616.071 258.333 608.091 261.111 599.73 261.111L599.725 261.112Z" fill="white"/>
<path d="M837.48 365.371C837.685 363.449 836.293 361.725 834.371 361.52L803.049 358.177C801.127 357.972 799.403 359.364 799.198 361.286C798.992 363.208 800.384 364.932 802.306 365.138L830.148 368.109L827.177 395.951C826.972 397.873 828.364 399.597 830.286 399.802C832.208 400.008 833.932 398.616 834.138 396.694L837.48 365.371ZM696.198 480.724L836.198 367.724L831.802 362.276L691.802 475.276L696.198 480.724Z" fill="#E75225"/>
<path d="M1094.59 310.9H1090.45H1089.3C1089 310.9 1088.84 311.061 1088.84 311.36V326.54C1088.84 326.839 1089 327 1089.3 327H1089.99C1090.29 327 1090.45 326.839 1090.45 326.54V320.56H1094.59C1097.26 320.56 1099.42 318.375 1099.42 315.73C1099.42 313.062 1097.26 310.9 1094.59 310.9ZM1094.59 319.042H1090.45V312.418H1094.59C1096.36 312.418 1097.81 313.89 1097.81 315.73C1097.81 317.547 1096.36 319.042 1094.59 319.042ZM1106.39 327.276C1109.75 327.276 1112.44 324.654 1112.44 321.25C1112.44 317.846 1109.75 315.224 1106.39 315.224C1103.03 315.224 1100.34 317.846 1100.34 321.25C1100.34 324.654 1103.03 327.276 1106.39 327.276ZM1106.39 325.804C1103.84 325.804 1101.86 323.803 1101.86 321.25C1101.86 318.697 1103.84 316.696 1106.39 316.696C1108.94 316.696 1110.92 318.697 1110.92 321.25C1110.92 323.803 1108.94 325.804 1106.39 325.804ZM1125.93 310.9H1125.33C1125.03 310.9 1124.87 311.061 1124.87 311.36V317.754C1123.9 316.213 1122.27 315.224 1120.22 315.224C1116.98 315.224 1114.29 317.846 1114.29 321.25C1114.29 324.654 1116.98 327.276 1120.22 327.276C1122.27 327.276 1123.9 326.31 1124.87 324.769V326.54C1124.87 326.839 1125.03 327 1125.33 327H1125.93C1126.23 327 1126.39 326.839 1126.39 326.54V311.36C1126.39 311.061 1126.23 310.9 1125.93 310.9ZM1120.34 325.804C1117.79 325.804 1115.81 323.803 1115.81 321.25C1115.81 318.697 1117.79 316.696 1120.34 316.696C1122.89 316.696 1124.87 318.697 1124.87 321.25C1124.87 323.803 1122.89 325.804 1120.34 325.804Z" fill="black"/>
<path d="M592.902 745.9H588.762H587.612C587.313 745.9 587.152 746.061 587.152 746.36V761.54C587.152 761.839 587.313 762 587.612 762H588.302C588.601 762 588.762 761.839 588.762 761.54V755.56H592.902C595.57 755.56 597.732 753.375 597.732 750.73C597.732 748.062 595.57 745.9 592.902 745.9ZM592.902 754.042H588.762V747.418H592.902C594.673 747.418 596.122 748.89 596.122 750.73C596.122 752.547 594.673 754.042 592.902 754.042ZM604.731 750.339C603.466 750.454 602.339 750.96 601.557 752.271V750.96C601.557 750.661 601.396 750.5 601.097 750.5H600.499C600.2 750.5 600.039 750.661 600.039 750.96V761.54C600.039 761.839 600.2 762 600.499 762H601.097C601.396 762 601.557 761.839 601.557 761.54V755.606C601.557 752.915 603.167 751.903 604.892 751.788C605.076 751.788 605.191 751.604 605.191 751.328V750.776C605.191 750.477 605.03 750.316 604.731 750.339ZM611.934 762.276C615.292 762.276 617.983 759.654 617.983 756.25C617.983 752.846 615.292 750.224 611.934 750.224C608.576 750.224 605.885 752.846 605.885 756.25C605.885 759.654 608.576 762.276 611.934 762.276ZM611.934 760.804C609.381 760.804 607.403 758.803 607.403 756.25C607.403 753.697 609.381 751.696 611.934 751.696C614.487 751.696 616.465 753.697 616.465 756.25C616.465 758.803 614.487 760.804 611.934 760.804ZM631.609 750.224C630.321 750.224 629.079 750.661 628.182 752.179C627.561 750.891 626.365 750.224 625.1 750.224C624.019 750.224 622.892 750.615 622.018 751.834V750.96C622.018 750.661 621.857 750.5 621.558 750.5H620.96C620.661 750.5 620.5 750.661 620.5 750.96V761.54C620.5 761.839 620.661 762 620.96 762H621.558C621.857 762 622.018 761.839 622.018 761.54V755.054C622.018 752.432 623.674 751.696 624.824 751.696C626.043 751.696 627.101 752.432 627.101 754.249V761.54C627.101 761.839 627.262 762 627.561 762H628.159C628.458 762 628.619 761.839 628.619 761.54V755.054C628.619 752.432 630.275 751.696 631.425 751.696C632.644 751.696 633.702 752.432 633.702 754.249V761.54C633.702 761.839 633.863 762 634.162 762H634.76C635.059 762 635.22 761.839 635.22 761.54V754.249C635.22 751.604 633.518 750.224 631.586 750.224H631.609ZM643.375 750.224C639.81 750.224 637.487 752.869 637.487 756.25C637.487 759.723 639.856 762.276 643.375 762.276C645.721 762.276 647.607 761.057 648.389 759.309C648.504 759.033 648.32 758.849 647.975 758.849H647.239C646.986 758.849 646.825 758.964 646.687 759.171C646.112 760.114 644.939 760.804 643.398 760.804C641.052 760.804 639.35 759.355 639.051 757.009H647.4H648.481C648.757 757.009 648.941 756.871 648.964 756.572V756.296C648.964 753.145 646.894 750.224 643.375 750.224ZM643.375 751.696C645.33 751.696 647.101 753.007 647.377 755.537H639.028C639.327 753.306 640.937 751.696 643.375 751.696ZM655.875 750.5H653.943V747.28C653.943 746.981 653.782 746.82 653.483 746.82H652.885C652.586 746.82 652.425 746.981 652.425 747.28V750.5H650.47C650.171 750.5 650.01 750.661 650.01 750.96V751.512C650.01 751.811 650.171 751.972 650.47 751.972H652.425V761.54C652.425 761.839 652.586 762 652.885 762H653.483C653.782 762 653.943 761.839 653.943 761.54V751.972H655.875C656.174 751.972 656.335 751.811 656.335 751.512V750.96C656.335 750.661 656.174 750.5 655.875 750.5ZM663.475 750.224C662.072 750.224 660.83 750.661 659.933 752.041V746.36C659.933 746.061 659.772 745.9 659.473 745.9H658.875C658.576 745.9 658.415 746.061 658.415 746.36V761.54C658.415 761.839 658.576 762 658.875 762H659.473C659.772 762 659.933 761.839 659.933 761.54V755.514C659.933 752.662 661.635 751.696 663.199 751.696C664.74 751.696 665.867 752.662 665.867 754.479V761.54C665.867 761.839 666.028 762 666.327 762H666.925C667.224 762 667.385 761.839 667.385 761.54V754.479C667.385 751.834 665.614 750.224 663.475 750.224ZM675.517 750.224C671.952 750.224 669.629 752.869 669.629 756.25C669.629 759.723 671.998 762.276 675.517 762.276C677.863 762.276 679.749 761.057 680.531 759.309C680.646 759.033 680.462 758.849 680.117 758.849H679.381C679.128 758.849 678.967 758.964 678.829 759.171C678.254 760.114 677.081 760.804 675.54 760.804C673.194 760.804 671.492 759.355 671.193 757.009H679.542H680.623C680.899 757.009 681.083 756.871 681.106 756.572V756.296C681.106 753.145 679.036 750.224 675.517 750.224ZM675.517 751.696C677.472 751.696 679.243 753.007 679.519 755.537H671.17C671.469 753.306 673.079 751.696 675.517 751.696ZM691.648 750.5H691.05C690.751 750.5 690.59 750.661 690.59 750.96V756.986C690.59 759.838 688.888 760.804 687.324 760.804C685.783 760.804 684.656 759.838 684.656 758.021V750.96C684.656 750.661 684.495 750.5 684.196 750.5H683.598C683.299 750.5 683.138 750.661 683.138 750.96V758.021C683.138 760.666 684.909 762.276 687.048 762.276C688.428 762.276 689.67 761.862 690.567 760.482V761.54C690.567 761.839 690.728 762 691.027 762H691.625C691.924 762 692.085 761.839 692.085 761.54V750.96C692.085 750.661 691.924 750.5 691.625 750.5H691.648ZM696.491 753.513C696.491 752.225 697.779 751.696 698.998 751.696C700.102 751.696 701.252 752.133 701.459 753.398C701.528 753.674 701.666 753.835 701.942 753.835H702.54C702.839 753.835 703.023 753.674 703 753.352C702.77 751.42 701.16 750.224 698.998 750.224C696.675 750.224 694.973 751.627 694.973 753.513C694.973 757.814 701.735 756.066 701.735 758.987C701.735 760.275 700.447 760.804 698.998 760.804C697.687 760.804 696.514 760.367 696.307 759.102C696.238 758.826 696.1 758.665 695.824 758.665H695.226C694.927 758.665 694.743 758.826 694.766 759.148C694.996 761.08 696.629 762.276 698.998 762.276C701.551 762.276 703.253 760.873 703.253 758.987C703.253 754.686 696.491 756.434 696.491 753.513ZM719.283 762.276C723.975 762.276 727.609 758.55 727.609 753.95C727.609 749.35 723.975 745.624 719.283 745.624C714.591 745.624 710.957 749.35 710.957 753.95C710.957 758.55 714.591 762.276 719.283 762.276ZM719.283 760.712C715.465 760.712 712.567 757.699 712.567 753.95C712.567 750.201 715.465 747.188 719.283 747.188C723.101 747.188 725.999 750.201 725.999 753.95C725.999 757.699 723.101 760.712 719.283 760.712ZM736.296 750.224C734.226 750.224 732.593 751.213 731.65 752.754V750.96C731.65 750.661 731.489 750.5 731.19 750.5H730.592C730.293 750.5 730.132 750.661 730.132 750.96V766.14C730.132 766.439 730.293 766.6 730.592 766.6H731.19C731.489 766.6 731.65 766.439 731.65 766.14V759.769C732.593 761.31 734.226 762.276 736.296 762.276C739.539 762.276 742.23 759.654 742.23 756.25C742.23 752.846 739.539 750.224 736.296 750.224ZM736.181 760.804C733.628 760.804 731.65 758.803 731.65 756.25C731.65 753.697 733.628 751.696 736.181 751.696C738.734 751.696 740.712 753.697 740.712 756.25C740.712 758.803 738.734 760.804 736.181 760.804ZM749.953 750.224C746.388 750.224 744.065 752.869 744.065 756.25C744.065 759.723 746.434 762.276 749.953 762.276C752.299 762.276 754.185 761.057 754.967 759.309C755.082 759.033 754.898 758.849 754.553 758.849H753.817C753.564 758.849 753.403 758.964 753.265 759.171C752.69 760.114 751.517 760.804 749.976 760.804C747.63 760.804 745.928 759.355 745.629 757.009H753.978H755.059C755.335 757.009 755.519 756.871 755.542 756.572V756.296C755.542 753.145 753.472 750.224 749.953 750.224ZM749.953 751.696C751.908 751.696 753.679 753.007 753.955 755.537H745.606C745.905 753.306 747.515 751.696 749.953 751.696ZM762.541 750.339C761.276 750.454 760.149 750.96 759.367 752.271V750.96C759.367 750.661 759.206 750.5 758.907 750.5H758.309C758.01 750.5 757.849 750.661 757.849 750.96V761.54C757.849 761.839 758.01 762 758.309 762H758.907C759.206 762 759.367 761.839 759.367 761.54V755.606C759.367 752.915 760.977 751.903 762.702 751.788C762.886 751.788 763.001 751.604 763.001 751.328V750.776C763.001 750.477 762.84 750.316 762.541 750.339ZM768.997 750.224C766.605 750.224 764.903 751.627 764.65 753.582C764.627 753.904 764.811 754.065 765.11 754.065H765.708C765.984 754.065 766.122 753.904 766.191 753.628C766.421 752.317 767.663 751.696 768.997 751.696C770.469 751.696 771.849 752.455 771.849 754.525V756.388C771.067 755.399 769.733 754.87 768.284 754.87C766.168 754.87 764.167 756.089 764.167 758.573C764.167 761.057 766.168 762.276 768.284 762.276C769.733 762.276 771.067 761.839 771.849 760.712V761.54C771.849 761.839 772.01 762 772.309 762H772.907C773.206 762 773.367 761.839 773.367 761.54V754.525C773.367 751.857 771.573 750.224 768.997 750.224ZM768.652 760.85C766.605 760.85 765.685 759.884 765.685 758.573C765.685 757.262 766.605 756.296 768.652 756.296C770.492 756.296 771.849 757.17 771.849 758.573C771.849 759.884 770.492 760.85 768.652 760.85ZM781.027 750.5H779.095V747.28C779.095 746.981 778.934 746.82 778.635 746.82H778.037C777.738 746.82 777.577 746.981 777.577 747.28V750.5H775.622C775.323 750.5 775.162 750.661 775.162 750.96V751.512C775.162 751.811 775.323 751.972 775.622 751.972H777.577V761.54C777.577 761.839 777.738 762 778.037 762H778.635C778.934 762 779.095 761.839 779.095 761.54V751.972H781.027C781.326 751.972 781.487 751.811 781.487 751.512V750.96C781.487 750.661 781.326 750.5 781.027 750.5ZM788.477 762.276C791.835 762.276 794.526 759.654 794.526 756.25C794.526 752.846 791.835 750.224 788.477 750.224C785.119 750.224 782.428 752.846 782.428 756.25C782.428 759.654 785.119 762.276 788.477 762.276ZM788.477 760.804C785.924 760.804 783.946 758.803 783.946 756.25C783.946 753.697 785.924 751.696 788.477 751.696C791.03 751.696 793.008 753.697 793.008 756.25C793.008 758.803 791.03 760.804 788.477 760.804ZM801.758 750.339C800.493 750.454 799.366 750.96 798.584 752.271V750.96C798.584 750.661 798.423 750.5 798.124 750.5H797.526C797.227 750.5 797.066 750.661 797.066 750.96V761.54C797.066 761.839 797.227 762 797.526 762H798.124C798.423 762 798.584 761.839 798.584 761.54V755.606C798.584 752.915 800.194 751.903 801.919 751.788C802.103 751.788 802.218 751.604 802.218 751.328V750.776C802.218 750.477 802.057 750.316 801.758 750.339Z" fill="black"/>
<rect x="1045" y="168" width="124" height="124" rx="25" fill="#326CE5"/>
<path d="M1108.81 186.591C1108.05 186.628 1107.31 186.812 1106.63 187.131L1076.96 201.044C1076.19 201.404 1075.52 201.928 1074.99 202.576C1074.46 203.225 1074.08 203.982 1073.89 204.79L1066.57 236.043C1066.4 236.763 1066.38 237.509 1066.52 238.236C1066.65 238.964 1066.93 239.658 1067.34 240.277C1067.44 240.429 1067.55 240.576 1067.67 240.717L1088.2 265.776C1088.73 266.425 1089.41 266.948 1090.18 267.308C1090.94 267.668 1091.78 267.855 1092.64 267.854L1125.57 267.847C1126.42 267.848 1127.26 267.661 1128.03 267.302C1128.8 266.943 1129.47 266.42 1130.01 265.773L1150.53 240.709C1151.07 240.061 1151.44 239.304 1151.63 238.494C1151.82 237.685 1151.82 236.845 1151.63 236.036L1144.3 204.783C1144.11 203.974 1143.74 203.217 1143.2 202.569C1142.67 201.92 1142 201.396 1141.23 201.036L1111.56 187.131C1110.7 186.729 1109.75 186.544 1108.81 186.591V186.591Z" fill="white"/>
<path d="M1109.1 197.226C1108.12 197.226 1107.33 198.093 1107.33 199.163C1107.33 199.179 1107.33 199.195 1107.33 199.211C1107.33 199.357 1107.32 199.532 1107.33 199.658C1107.35 200.275 1107.49 200.747 1107.57 201.315C1107.72 202.532 1107.84 203.54 1107.77 204.477C1107.69 204.831 1107.43 205.154 1107.19 205.378L1107.15 206.116C1106.08 206.202 1105.01 206.361 1103.94 206.6C1099.33 207.627 1095.36 209.959 1092.33 213.106C1092.14 212.975 1091.79 212.733 1091.69 212.659C1091.37 212.701 1091.05 212.797 1090.64 212.558C1089.84 212.033 1089.12 211.309 1088.24 210.436C1087.84 210.018 1087.55 209.62 1087.07 209.218C1086.97 209.127 1086.8 209.003 1086.68 208.909C1086.31 208.617 1085.87 208.465 1085.44 208.451C1084.9 208.432 1084.37 208.642 1084.03 209.065C1083.42 209.818 1083.61 210.968 1084.46 211.635C1084.47 211.642 1084.48 211.647 1084.49 211.654C1084.61 211.747 1084.75 211.866 1084.86 211.944C1085.36 212.311 1085.83 212.498 1086.33 212.789C1087.39 213.433 1088.27 213.967 1088.97 214.61C1089.24 214.896 1089.29 215.399 1089.33 215.616L1089.9 216.115C1086.85 220.615 1085.44 226.174 1086.27 231.838L1085.53 232.05C1085.33 232.299 1085.06 232.69 1084.77 232.806C1083.85 233.089 1082.82 233.193 1081.58 233.32C1081 233.368 1080.5 233.34 1079.88 233.454C1079.74 233.48 1079.55 233.528 1079.41 233.562C1079.4 233.564 1079.4 233.565 1079.39 233.566C1079.38 233.568 1079.37 233.572 1079.36 233.574C1078.32 233.822 1077.64 234.766 1077.86 235.696C1078.08 236.627 1079.1 237.193 1080.15 236.97C1080.16 236.968 1080.17 236.968 1080.18 236.966C1080.19 236.964 1080.2 236.958 1080.21 236.955C1080.36 236.924 1080.54 236.888 1080.67 236.855C1081.28 236.695 1081.72 236.46 1082.27 236.255C1083.44 235.841 1084.41 235.496 1085.36 235.361C1085.76 235.331 1086.18 235.601 1086.38 235.715L1087.16 235.585C1088.94 241.005 1092.67 245.386 1097.4 248.135L1097.08 248.895C1097.19 249.19 1097.32 249.589 1097.23 249.88C1096.89 250.757 1096.3 251.683 1095.63 252.716C1095.3 253.192 1094.97 253.563 1094.67 254.108C1094.6 254.239 1094.51 254.44 1094.45 254.578C1093.99 255.536 1094.33 256.64 1095.2 257.054C1096.08 257.471 1097.18 257.031 1097.65 256.071C1097.65 256.07 1097.66 256.069 1097.66 256.067C1097.66 256.066 1097.66 256.065 1097.66 256.064C1097.72 255.927 1097.82 255.748 1097.88 255.62C1098.13 255.055 1098.21 254.57 1098.39 254.023C1098.86 252.864 1099.12 251.649 1099.76 250.892C1099.94 250.684 1100.23 250.604 1100.53 250.526L1100.93 249.811C1105.05 251.363 1109.67 251.78 1114.27 250.753C1115.32 250.519 1116.34 250.216 1117.32 249.852C1117.43 250.049 1117.64 250.427 1117.7 250.522C1118 250.619 1118.34 250.669 1118.61 251.062C1119.09 251.874 1119.42 252.833 1119.82 253.993C1120 254.54 1120.09 255.025 1120.34 255.591C1120.4 255.72 1120.49 255.901 1120.56 256.037C1121.03 257.001 1122.13 257.442 1123.02 257.024C1123.89 256.61 1124.23 255.506 1123.77 254.548C1123.7 254.41 1123.61 254.209 1123.54 254.079C1123.25 253.533 1122.91 253.166 1122.59 252.69C1121.91 251.657 1121.36 250.8 1121.01 249.922C1120.87 249.47 1121.04 249.189 1121.15 248.895C1121.08 248.819 1120.94 248.392 1120.85 248.191C1125.77 245.344 1129.39 240.8 1131.09 235.551C1131.32 235.587 1131.72 235.656 1131.85 235.681C1132.12 235.509 1132.36 235.283 1132.84 235.32C1133.79 235.455 1134.77 235.8 1135.94 236.214C1136.49 236.419 1136.93 236.658 1137.53 236.817C1137.66 236.851 1137.85 236.883 1137.99 236.914C1138 236.917 1138.02 236.923 1138.03 236.925C1138.04 236.927 1138.05 236.927 1138.05 236.929C1139.11 237.152 1140.13 236.586 1140.35 235.655C1140.56 234.725 1139.89 233.781 1138.84 233.533C1138.69 233.499 1138.47 233.441 1138.33 233.414C1137.71 233.299 1137.21 233.327 1136.62 233.279C1135.38 233.152 1134.35 233.048 1133.44 232.766C1133.07 232.624 1132.8 232.189 1132.67 232.01L1131.96 231.805C1132.33 229.165 1132.23 226.417 1131.58 223.668C1130.93 220.893 1129.79 218.355 1128.26 216.119C1128.44 215.955 1128.79 215.653 1128.89 215.564C1128.91 215.251 1128.89 214.923 1129.22 214.577C1129.92 213.933 1130.8 213.4 1131.86 212.756C1132.37 212.465 1132.83 212.277 1133.34 211.91C1133.45 211.828 1133.61 211.696 1133.73 211.601C1134.58 210.934 1134.78 209.784 1134.16 209.032C1133.55 208.279 1132.37 208.208 1131.52 208.875C1131.39 208.97 1131.23 209.093 1131.12 209.184C1130.64 209.587 1130.35 209.985 1129.95 210.402C1129.07 211.275 1128.35 212.004 1127.55 212.529C1127.21 212.725 1126.71 212.657 1126.48 212.644L1125.8 213.117C1121.95 209.153 1116.71 206.619 1111.06 206.127C1111.04 205.895 1111.02 205.475 1111.02 205.349C1110.79 205.132 1110.51 204.946 1110.44 204.477C1110.36 203.54 1110.49 202.532 1110.64 201.315C1110.72 200.747 1110.86 200.275 1110.88 199.658C1110.89 199.518 1110.88 199.314 1110.88 199.163C1110.88 198.093 1110.08 197.226 1109.1 197.226H1109.1ZM1106.88 210.745L1106.35 219.888L1106.31 219.906C1106.28 220.724 1105.59 221.377 1104.75 221.377C1104.4 221.377 1104.09 221.268 1103.83 221.083L1103.81 221.09L1096.17 215.776C1098.52 213.511 1101.52 211.836 1104.98 211.065C1105.62 210.924 1106.25 210.82 1106.88 210.745ZM1111.33 210.745C1115.37 211.233 1119.11 213.028 1121.97 215.78L1114.38 221.061L1114.35 221.049C1113.68 221.532 1112.73 221.412 1112.21 220.766C1111.99 220.502 1111.88 220.191 1111.86 219.876L1111.86 219.873L1111.33 210.745ZM1093.4 219.191L1100.38 225.314L1100.37 225.351C1101 225.888 1101.09 226.82 1100.57 227.466C1100.35 227.731 1100.06 227.908 1099.76 227.991L1099.75 228.021L1090.81 230.553C1090.35 226.47 1091.33 222.501 1093.4 219.191ZM1124.75 219.195C1125.79 220.843 1126.57 222.684 1127.04 224.68C1127.5 226.653 1127.62 228.621 1127.43 230.524L1118.44 227.984L1118.43 227.946C1117.63 227.731 1117.13 226.927 1117.32 226.122C1117.4 225.792 1117.58 225.512 1117.82 225.306L1117.81 225.287L1124.75 219.195H1124.75ZM1107.67 225.787H1110.53L1112.3 227.965L1111.67 230.684L1109.1 231.894L1106.53 230.68L1105.89 227.961L1107.67 225.787ZM1116.83 233.242C1116.95 233.236 1117.07 233.247 1117.19 233.268L1117.21 233.25L1126.45 234.784C1125.1 238.516 1122.51 241.748 1119.05 243.912L1115.46 235.402L1115.47 235.387C1115.14 234.635 1115.47 233.753 1116.23 233.395C1116.43 233.303 1116.63 233.252 1116.83 233.242H1116.83ZM1101.3 233.279C1102.01 233.289 1102.64 233.77 1102.8 234.475C1102.88 234.805 1102.84 235.132 1102.72 235.421L1102.74 235.454L1099.19 243.878C1095.87 241.787 1093.22 238.656 1091.81 234.814L1100.98 233.287L1100.99 233.305C1101.09 233.287 1101.2 233.278 1101.3 233.279V233.279ZM1109.04 236.97C1109.29 236.961 1109.54 237.011 1109.78 237.123C1110.09 237.27 1110.33 237.501 1110.48 237.778H1110.51L1115.03 245.792C1114.45 245.985 1113.84 246.15 1113.23 246.288C1109.77 247.058 1106.32 246.825 1103.2 245.781L1107.71 237.782H1107.72C1107.99 237.286 1108.5 236.99 1109.04 236.97Z" fill="#326CE5"/>
<g filter="url(#filter1_d_12561_17637)">
<rect x="186.5" y="272" width="112" height="30" rx="5" fill="#5FD4FF"/>
<path d="M201.533 291.594L198.831 288.29C199.923 287.772 200.665 286.68 200.665 285.462C200.665 283.656 199.209 282.2 197.417 282.2H195.625H194.029C193.819 282.2 193.707 282.326 193.707 282.536V291.678C193.707 291.888 193.819 292 194.029 292H195.289C195.513 292 195.625 291.888 195.625 291.678V288.612H196.829L199.433 291.804C199.545 291.958 199.671 292 199.853 292H201.337C201.617 292 201.701 291.804 201.533 291.594ZM195.625 284.006H197.417C198.145 284.006 198.747 284.65 198.747 285.462C198.747 286.274 198.145 286.904 197.417 286.904H195.625V284.006ZM206.634 285.28L205.29 289.41L203.722 285.266C203.666 285.098 203.54 285 203.358 285H202.126C201.874 285 201.776 285.168 201.86 285.392L204.38 291.902L203.526 294.436C203.442 294.674 203.568 294.8 203.806 294.8H205.038C205.22 294.8 205.374 294.73 205.43 294.534L208.51 285.378C208.594 285.14 208.482 285 208.244 285H206.998C206.816 285 206.69 285.098 206.634 285.28ZM212.38 284.818C210.938 284.818 209.72 285.602 209.538 287.044C209.524 287.268 209.664 287.38 209.874 287.38H210.994C211.19 287.38 211.26 287.282 211.344 287.086C211.456 286.708 211.848 286.484 212.38 286.484C213.038 286.484 213.458 286.834 213.458 287.66V288.416C213.052 288.052 212.45 287.786 211.568 287.786C210.322 287.786 209.202 288.528 209.202 289.998C209.202 291.468 210.322 292.196 211.568 292.196C212.45 292.196 213.052 291.888 213.458 291.398V291.678C213.458 291.888 213.584 292.014 213.794 292.014H214.886C215.11 292.014 215.222 291.888 215.222 291.678V287.562C215.222 285.742 213.92 284.818 212.38 284.818ZM212.17 290.866C211.386 290.866 211.008 290.502 211.008 289.998C211.008 289.494 211.386 289.13 212.17 289.13C212.968 289.13 213.458 289.452 213.458 289.998C213.458 290.502 212.968 290.866 212.17 290.866ZM220.899 284.818C220.031 284.818 219.387 285.14 218.995 285.728V285.336C218.995 285.126 218.883 285 218.659 285H217.525C217.315 285 217.189 285.126 217.189 285.336V291.678C217.189 291.888 217.315 292 217.525 292H218.659C218.883 292 218.995 291.888 218.995 291.678V287.954C218.995 286.904 219.555 286.484 220.255 286.484C220.899 286.484 221.375 286.862 221.375 287.674V291.678C221.375 291.888 221.487 292 221.697 292H222.845C223.055 292 223.181 291.888 223.181 291.678V287.534C223.181 285.812 222.201 284.818 220.899 284.818ZM237.302 291.636L234.18 282.48C234.124 282.298 233.984 282.2 233.802 282.2H231.982C231.8 282.2 231.66 282.298 231.604 282.48L228.482 291.636C228.398 291.874 228.524 292 228.762 292H230.162C230.344 292 230.484 291.916 230.54 291.734L231.002 290.25H234.768L235.244 291.734C235.3 291.916 235.426 292 235.622 292H237.022C237.26 292 237.372 291.874 237.302 291.636ZM231.59 288.444L232.892 284.342L234.194 288.444H231.59ZM242.497 284.818C241.629 284.818 240.985 285.14 240.593 285.728V285.336C240.593 285.126 240.481 285 240.257 285H239.123C238.913 285 238.787 285.126 238.787 285.336V291.678C238.787 291.888 238.913 292 239.123 292H240.257C240.481 292 240.593 291.888 240.593 291.678V287.954C240.593 286.904 241.153 286.484 241.853 286.484C242.497 286.484 242.973 286.862 242.973 287.674V291.678C242.973 291.888 243.085 292 243.295 292H244.443C244.653 292 244.779 291.888 244.779 291.678V287.534C244.779 285.812 243.799 284.818 242.497 284.818ZM253.528 282.2H252.394C252.184 282.2 252.058 282.326 252.058 282.536V285.84C251.554 285.196 250.812 284.818 249.79 284.818C247.914 284.818 246.374 286.428 246.374 288.5C246.374 290.586 247.914 292.196 249.79 292.196C250.812 292.196 251.554 291.818 252.058 291.174V291.678C252.058 291.888 252.184 292 252.394 292H253.528C253.752 292 253.864 291.888 253.864 291.678V282.536C253.864 282.326 253.752 282.2 253.528 282.2ZM250.126 290.474C249.006 290.474 248.18 289.676 248.18 288.5C248.18 287.324 249.006 286.526 250.126 286.526C251.232 286.526 252.058 287.324 252.058 288.5C252.058 289.676 251.232 290.474 250.126 290.474ZM259.347 284.818C257.149 284.818 255.637 286.428 255.637 288.5C255.637 290.6 257.107 292.196 259.389 292.196C260.817 292.196 261.965 291.538 262.497 290.362C262.595 290.152 262.469 289.998 262.217 289.998H261.097C260.929 289.998 260.817 290.068 260.691 290.194C260.411 290.488 259.949 290.698 259.417 290.698C258.521 290.698 257.765 290.25 257.513 289.256H261.027H262.469C262.665 289.256 262.805 289.158 262.819 288.948C262.833 288.808 262.847 288.668 262.847 288.514C262.847 286.442 261.419 284.818 259.347 284.818ZM257.513 287.828C257.723 286.96 258.381 286.442 259.333 286.442C260.089 286.442 260.831 286.834 261.041 287.828H257.513ZM267.956 284.902C267.256 284.986 266.682 285.35 266.374 286.064V285.336C266.374 285.126 266.262 285 266.052 285H264.904C264.694 285 264.568 285.126 264.568 285.336V291.678C264.568 291.888 264.694 292 264.904 292H266.052C266.262 292 266.374 291.888 266.374 291.678V288.556C266.374 287.31 267.186 286.862 268.04 286.862C268.208 286.862 268.292 286.75 268.292 286.54V285.21C268.292 285 268.18 284.86 267.956 284.902ZM271.271 287.044C271.271 286.638 271.635 286.4 272.209 286.4C272.629 286.4 272.979 286.582 273.077 286.932C273.161 287.128 273.245 287.24 273.441 287.24H274.561C274.771 287.24 274.911 287.114 274.883 286.89C274.715 285.476 273.525 284.818 272.209 284.818C270.753 284.818 269.465 285.56 269.465 287.044C269.465 289.732 273.245 288.766 273.245 289.97C273.245 290.376 272.881 290.6 272.209 290.6C271.705 290.6 271.327 290.432 271.201 290.068C271.117 289.886 271.047 289.774 270.851 289.774H269.731C269.521 289.774 269.381 289.9 269.409 290.124C269.563 291.524 270.781 292.196 272.209 292.196C273.763 292.196 275.051 291.468 275.051 289.97C275.051 287.268 271.271 288.262 271.271 287.044ZM280.097 292.196C282.141 292.196 283.793 290.586 283.793 288.5C283.793 286.428 282.141 284.818 280.097 284.818C278.039 284.818 276.387 286.428 276.387 288.5C276.387 290.586 278.039 292.196 280.097 292.196ZM280.097 290.432C279.019 290.432 278.193 289.634 278.193 288.5C278.193 287.366 279.019 286.568 280.097 286.568C281.161 286.568 281.987 287.366 281.987 288.5C281.987 289.634 281.161 290.432 280.097 290.432ZM289.274 284.818C288.406 284.818 287.762 285.14 287.37 285.728V285.336C287.37 285.126 287.258 285 287.034 285H285.9C285.69 285 285.564 285.126 285.564 285.336V291.678C285.564 291.888 285.69 292 285.9 292H287.034C287.258 292 287.37 291.888 287.37 291.678V287.954C287.37 286.904 287.93 286.484 288.63 286.484C289.274 286.484 289.75 286.862 289.75 287.674V291.678C289.75 291.888 289.862 292 290.072 292H291.22C291.43 292 291.556 291.888 291.556 291.678V287.534C291.556 285.812 290.576 284.818 289.274 284.818Z" fill="black"/>
<path d="M168.714 244.172C168.26 244.172 167.824 244.35 167.502 244.667C167.181 244.984 167 245.414 167 245.863V274.602C167 275.05 167.181 275.48 167.502 275.798C167.824 276.115 168.26 276.293 168.714 276.293C168.979 276.292 169.241 276.231 169.478 276.114C169.715 275.997 169.921 275.828 170.08 275.619L175.434 269.732L176 268.876C178.128 268.164 176 268.896 177.5 268.402C178.738 267.847 177.019 268.554 179 267.887L179.753 267.906L189.286 267.84C189.74 267.84 190.176 267.662 190.498 267.345C190.819 267.028 191 266.598 191 266.149C191 265.897 190.943 265.649 190.833 265.421C190.723 265.194 190.562 264.994 190.364 264.835L170.057 244.813C169.897 244.613 169.692 244.452 169.46 244.341C169.227 244.23 168.973 244.172 168.714 244.172Z" fill="#5FD4FF"/>
</g>
<g filter="url(#filter2_d_12561_17637)">
<rect x="927.5" y="269.519" width="96" height="30" rx="5" fill="#1A1A1A"/>
<path d="M937.128 289.715C938.822 289.715 940.418 288.749 940.418 286.621V280.055C940.418 279.845 940.306 279.719 940.082 279.719H938.822C938.612 279.719 938.5 279.845 938.5 280.055V286.621C938.5 287.433 937.996 287.839 937.128 287.839C936.372 287.839 935.882 287.517 935.784 286.719C935.756 286.495 935.644 286.383 935.448 286.383H934.174C933.964 286.383 933.838 286.495 933.852 286.733C934.006 288.833 935.518 289.715 937.128 289.715ZM942.851 281.539H943.999C944.209 281.539 944.321 281.427 944.321 281.217V280.055C944.321 279.845 944.209 279.719 943.999 279.719H942.851C942.641 279.719 942.515 279.845 942.515 280.055V281.217C942.515 281.427 942.641 281.539 942.851 281.539ZM942.851 289.519H943.999C944.209 289.519 944.321 289.407 944.321 289.197V282.855C944.321 282.645 944.209 282.519 943.999 282.519H942.851C942.641 282.519 942.515 282.645 942.515 282.855V289.197C942.515 289.407 942.641 289.519 942.851 289.519ZM953.572 282.337C952.76 282.337 952.13 282.659 951.654 283.261C951.29 282.659 950.688 282.337 949.96 282.337C949.26 282.337 948.658 282.645 948.28 283.205V282.855C948.28 282.645 948.168 282.519 947.958 282.519H946.81C946.6 282.519 946.474 282.645 946.474 282.855V289.197C946.474 289.407 946.6 289.519 946.81 289.519H947.958C948.168 289.519 948.28 289.407 948.28 289.197V285.193C948.28 284.283 948.826 284.003 949.316 284.003C949.806 284.003 950.212 284.241 950.212 284.941V289.197C950.212 289.407 950.338 289.519 950.548 289.519H951.682C951.906 289.519 952.018 289.407 952.018 289.197V285.193C952.018 284.283 952.564 284.003 953.054 284.003C953.53 284.003 953.95 284.241 953.95 284.941V289.197C953.95 289.407 954.062 289.519 954.286 289.519H955.42C955.63 289.519 955.756 289.407 955.756 289.197V284.801C955.756 283.191 954.902 282.337 953.572 282.337ZM964.805 282.337C963.993 282.337 963.363 282.659 962.887 283.261C962.523 282.659 961.921 282.337 961.193 282.337C960.493 282.337 959.891 282.645 959.513 283.205V282.855C959.513 282.645 959.401 282.519 959.191 282.519H958.043C957.833 282.519 957.707 282.645 957.707 282.855V289.197C957.707 289.407 957.833 289.519 958.043 289.519H959.191C959.401 289.519 959.513 289.407 959.513 289.197V285.193C959.513 284.283 960.059 284.003 960.549 284.003C961.039 284.003 961.445 284.241 961.445 284.941V289.197C961.445 289.407 961.571 289.519 961.781 289.519H962.915C963.139 289.519 963.251 289.407 963.251 289.197V285.193C963.251 284.283 963.797 284.003 964.287 284.003C964.763 284.003 965.183 284.241 965.183 284.941V289.197C965.183 289.407 965.295 289.519 965.519 289.519H966.653C966.863 289.519 966.989 289.407 966.989 289.197V284.801C966.989 283.191 966.135 282.337 964.805 282.337ZM972.933 282.799L971.589 286.929L970.021 282.785C969.965 282.617 969.839 282.519 969.657 282.519H968.425C968.173 282.519 968.075 282.687 968.159 282.911L970.679 289.421L969.825 291.955C969.741 292.193 969.867 292.319 970.105 292.319H971.337C971.519 292.319 971.673 292.249 971.729 292.053L974.809 282.897C974.893 282.659 974.781 282.519 974.543 282.519H973.297C973.115 282.519 972.989 282.617 972.933 282.799ZM991.503 279.719H990.187C989.991 279.719 989.865 279.831 989.823 280.013L987.933 287.069L986.057 280.013C986.015 279.831 985.889 279.719 985.693 279.719H984.573C984.335 279.719 984.237 279.859 984.293 280.097L984.867 282.085L983.467 287.069L981.577 280.013C981.535 279.831 981.409 279.719 981.213 279.719H979.897C979.659 279.719 979.547 279.859 979.617 280.097L982.221 289.239C982.263 289.435 982.403 289.519 982.585 289.519H984.139C984.321 289.519 984.447 289.435 984.503 289.239L985.707 285.039L986.897 289.239C986.953 289.435 987.079 289.519 987.275 289.519H988.815C988.997 289.519 989.137 289.435 989.193 289.239L991.783 280.097C991.853 279.859 991.741 279.719 991.503 279.719ZM995.961 289.715C998.005 289.715 999.657 288.105 999.657 286.019C999.657 283.947 998.005 282.337 995.961 282.337C993.903 282.337 992.251 283.947 992.251 286.019C992.251 288.105 993.903 289.715 995.961 289.715ZM995.961 287.951C994.883 287.951 994.057 287.153 994.057 286.019C994.057 284.885 994.883 284.087 995.961 284.087C997.025 284.087 997.851 284.885 997.851 286.019C997.851 287.153 997.025 287.951 995.961 287.951ZM1005.14 282.337C1004.27 282.337 1003.63 282.659 1003.23 283.247V282.855C1003.23 282.645 1003.12 282.519 1002.9 282.519H1001.76C1001.55 282.519 1001.43 282.645 1001.43 282.855V289.197C1001.43 289.407 1001.55 289.519 1001.76 289.519H1002.9C1003.12 289.519 1003.23 289.407 1003.23 289.197V285.473C1003.23 284.423 1003.79 284.003 1004.49 284.003C1005.14 284.003 1005.61 284.381 1005.61 285.193V289.197C1005.61 289.407 1005.73 289.519 1005.94 289.519H1007.08C1007.29 289.519 1007.42 289.407 1007.42 289.197V285.053C1007.42 283.331 1006.44 282.337 1005.14 282.337ZM1016.17 282.519H1015.08C1014.87 282.519 1014.74 282.645 1014.74 282.855V283.387C1014.24 282.743 1013.48 282.337 1012.43 282.337C1010.55 282.337 1009.01 283.947 1009.01 285.921C1009.01 287.895 1010.55 289.505 1012.43 289.505C1013.48 289.505 1014.24 289.099 1014.74 288.455V289.197C1014.74 290.289 1014.05 290.905 1012.93 290.905C1012.01 290.905 1011.45 290.499 1011.3 290.009C1011.23 289.827 1011.13 289.715 1010.93 289.715H1009.78C1009.57 289.715 1009.43 289.841 1009.45 290.065C1009.66 291.661 1011.24 292.515 1012.93 292.515C1014.68 292.515 1016.5 291.493 1016.5 289.197V282.855C1016.5 282.645 1016.39 282.519 1016.17 282.519ZM1012.78 287.825C1011.65 287.825 1010.82 287.027 1010.82 285.921C1010.82 284.801 1011.65 284.003 1012.78 284.003C1013.91 284.003 1014.74 284.801 1014.74 285.921C1014.74 287.027 1013.91 287.825 1012.78 287.825Z" fill="white"/>
<path d="M911.714 237C911.26 237 910.824 237.178 910.502 237.495C910.181 237.812 910 238.242 910 238.691V267.43C910 267.878 910.181 268.308 910.502 268.625C910.824 268.942 911.26 269.121 911.714 269.121C911.979 269.12 912.241 269.059 912.478 268.942C912.715 268.825 912.921 268.656 913.08 268.447L918.434 262.56L919 261.704C921.128 260.992 919 261.724 920.5 261.23C921.738 260.675 920.019 261.382 922 260.715L922.753 260.734L932.286 260.668C932.74 260.668 933.176 260.49 933.498 260.173C933.819 259.856 934 259.426 934 258.977C934 258.725 933.943 258.477 933.833 258.249C933.723 258.022 933.562 257.822 933.364 257.663L913.057 237.641C912.897 237.441 912.692 237.28 912.46 237.169C912.227 237.058 911.973 237 911.714 237Z" fill="#1A1A1A"/>
</g>
<g filter="url(#filter3_d_12561_17637)">
<rect x="1181.5" y="292.373" width="64" height="30" rx="5" fill="#9D0FB0"/>
<path d="M1191.92 312.569C1193.74 312.569 1195.29 311.575 1195.29 309.699C1195.29 307.627 1193.44 307.123 1192.01 306.605C1191.12 306.269 1190.45 305.961 1190.45 305.233C1190.45 304.673 1190.91 304.267 1191.71 304.267C1192.46 304.267 1192.94 304.575 1193.06 305.233C1193.09 305.443 1193.2 305.541 1193.4 305.541H1194.66C1194.88 305.541 1195.01 305.429 1195 305.205C1194.83 303.273 1193.32 302.391 1191.71 302.391C1190.07 302.391 1188.51 303.357 1188.51 305.233C1188.51 307.319 1190.24 307.879 1191.65 308.369C1192.57 308.705 1193.36 308.999 1193.36 309.699C1193.36 310.273 1192.9 310.693 1191.92 310.693C1190.96 310.693 1190.4 310.343 1190.29 309.685C1190.25 309.461 1190.15 309.363 1189.94 309.363H1188.68C1188.47 309.363 1188.35 309.475 1188.36 309.699C1188.51 311.659 1190.1 312.569 1191.92 312.569ZM1199.76 305.191C1198.32 305.191 1197.1 305.975 1196.92 307.417C1196.91 307.641 1197.05 307.753 1197.26 307.753H1198.38C1198.57 307.753 1198.64 307.655 1198.73 307.459C1198.84 307.081 1199.23 306.857 1199.76 306.857C1200.42 306.857 1200.84 307.207 1200.84 308.033V308.789C1200.44 308.425 1199.83 308.159 1198.95 308.159C1197.71 308.159 1196.59 308.901 1196.59 310.371C1196.59 311.841 1197.71 312.569 1198.95 312.569C1199.83 312.569 1200.44 312.261 1200.84 311.771V312.051C1200.84 312.261 1200.97 312.387 1201.18 312.387H1202.27C1202.49 312.387 1202.61 312.261 1202.61 312.051V307.935C1202.61 306.115 1201.3 305.191 1199.76 305.191ZM1199.55 311.239C1198.77 311.239 1198.39 310.875 1198.39 310.371C1198.39 309.867 1198.77 309.503 1199.55 309.503C1200.35 309.503 1200.84 309.825 1200.84 310.371C1200.84 310.875 1200.35 311.239 1199.55 311.239ZM1207.96 305.275C1207.26 305.359 1206.69 305.723 1206.38 306.437V305.709C1206.38 305.499 1206.27 305.373 1206.06 305.373H1204.91C1204.7 305.373 1204.57 305.499 1204.57 305.709V312.051C1204.57 312.261 1204.7 312.373 1204.91 312.373H1206.06C1206.27 312.373 1206.38 312.261 1206.38 312.051V308.929C1206.38 307.683 1207.19 307.235 1208.04 307.235C1208.21 307.235 1208.3 307.123 1208.3 306.913V305.583C1208.3 305.373 1208.18 305.233 1207.96 305.275ZM1212.45 305.191C1211.01 305.191 1209.79 305.975 1209.61 307.417C1209.6 307.641 1209.74 307.753 1209.95 307.753H1211.07C1211.26 307.753 1211.33 307.655 1211.42 307.459C1211.53 307.081 1211.92 306.857 1212.45 306.857C1213.11 306.857 1213.53 307.207 1213.53 308.033V308.789C1213.13 308.425 1212.52 308.159 1211.64 308.159C1210.4 308.159 1209.28 308.901 1209.28 310.371C1209.28 311.841 1210.4 312.569 1211.64 312.569C1212.52 312.569 1213.13 312.261 1213.53 311.771V312.051C1213.53 312.261 1213.66 312.387 1213.87 312.387H1214.96C1215.18 312.387 1215.3 312.261 1215.3 312.051V307.935C1215.3 306.115 1213.99 305.191 1212.45 305.191ZM1212.24 311.239C1211.46 311.239 1211.08 310.875 1211.08 310.371C1211.08 309.867 1211.46 309.503 1212.24 309.503C1213.04 309.503 1213.53 309.825 1213.53 310.371C1213.53 310.875 1213.04 311.239 1212.24 311.239ZM1226.58 310.525H1223.28V302.909C1223.28 302.699 1223.17 302.573 1222.94 302.573H1221.68C1221.47 302.573 1221.36 302.699 1221.36 302.909V312.051C1221.36 312.261 1221.47 312.373 1221.68 312.373H1222.34H1226.58C1226.81 312.373 1226.92 312.261 1226.92 312.051V310.861C1226.92 310.651 1226.81 310.525 1226.58 310.525ZM1228.74 304.393H1229.89C1230.1 304.393 1230.21 304.281 1230.21 304.071V302.909C1230.21 302.699 1230.1 302.573 1229.89 302.573H1228.74C1228.53 302.573 1228.41 302.699 1228.41 302.909V304.071C1228.41 304.281 1228.53 304.393 1228.74 304.393ZM1228.74 312.373H1229.89C1230.1 312.373 1230.21 312.261 1230.21 312.051V305.709C1230.21 305.499 1230.1 305.373 1229.89 305.373H1228.74C1228.53 305.373 1228.41 305.499 1228.41 305.709V312.051C1228.41 312.261 1228.53 312.373 1228.74 312.373ZM1236.08 305.191C1235.21 305.191 1234.56 305.513 1234.17 306.101V305.709C1234.17 305.499 1234.06 305.373 1233.84 305.373H1232.7C1232.49 305.373 1232.37 305.499 1232.37 305.709V312.051C1232.37 312.261 1232.49 312.373 1232.7 312.373H1233.84C1234.06 312.373 1234.17 312.261 1234.17 312.051V308.327C1234.17 307.277 1234.73 306.857 1235.43 306.857C1236.08 306.857 1236.55 307.235 1236.55 308.047V312.051C1236.55 312.261 1236.66 312.373 1236.87 312.373H1238.02C1238.23 312.373 1238.36 312.261 1238.36 312.051V307.907C1238.36 306.185 1237.38 305.191 1236.08 305.191Z" fill="white"/>
<path d="M1163.71 265C1163.26 265 1162.82 265.178 1162.5 265.494C1162.18 265.811 1162 266.24 1162 266.688V295.387C1162 295.835 1162.18 296.265 1162.5 296.581C1162.82 296.898 1163.26 297.076 1163.71 297.076C1163.98 297.075 1164.24 297.014 1164.48 296.897C1164.71 296.781 1164.92 296.611 1165.08 296.403L1170.43 290.524L1171 289.669C1173.13 288.958 1171 289.689 1172.5 289.196C1173.74 288.642 1172.02 289.347 1174 288.682L1174.75 288.701L1184.29 288.635C1184.74 288.635 1185.18 288.457 1185.5 288.14C1185.82 287.824 1186 287.394 1186 286.946C1186 286.695 1185.94 286.446 1185.83 286.219C1185.72 285.992 1185.56 285.792 1185.36 285.634L1165.06 265.64C1164.9 265.44 1164.69 265.279 1164.46 265.169C1164.23 265.058 1163.97 265 1163.71 265Z" fill="#9D0FB0"/>
</g>
<defs>
<filter id="filter0_d_12561_17637" x="846" y="718.98" width="125" height="72.02" filterUnits="userSpaceOnUse" color-interpolation-filters="sRGB">
<feFlood flood-opacity="0" result="BackgroundImageFix"/>
<feColorMatrix in="SourceAlpha" type="matrix" values="0 0 0 0 0 0 0 0 0 0 0 0 0 0 0 0 0 0 127 0" result="hardAlpha"/>
<feOffset dy="4"/>
<feGaussianBlur stdDeviation="2"/>
<feComposite in2="hardAlpha" operator="out"/>
<feColorMatrix type="matrix" values="0 0 0 0 0 0 0 0 0 0 0 0 0 0 0 0 0 0 0.25 0"/>
<feBlend mode="normal" in2="BackgroundImageFix" result="effect1_dropShadow_12561_17637"/>
<feBlend mode="normal" in="SourceGraphic" in2="effect1_dropShadow_12561_17637" result="shape"/>
</filter>
<filter id="filter1_d_12561_17637" x="163" y="244.172" width="139.5" height="65.8279" filterUnits="userSpaceOnUse" color-interpolation-filters="sRGB">
<feFlood flood-opacity="0" result="BackgroundImageFix"/>
<feColorMatrix in="SourceAlpha" type="matrix" values="0 0 0 0 0 0 0 0 0 0 0 0 0 0 0 0 0 0 127 0" result="hardAlpha"/>
<feOffset dy="4"/>
<feGaussianBlur stdDeviation="2"/>
<feComposite in2="hardAlpha" operator="out"/>
<feColorMatrix type="matrix" values="0 0 0 0 0 0 0 0 0 0 0 0 0 0 0 0 0 0 0.25 0"/>
<feBlend mode="normal" in2="BackgroundImageFix" result="effect1_dropShadow_12561_17637"/>
<feBlend mode="normal" in="SourceGraphic" in2="effect1_dropShadow_12561_17637" result="shape"/>
</filter>
<filter id="filter2_d_12561_17637" x="906" y="237" width="121.5" height="70.5188" filterUnits="userSpaceOnUse" color-interpolation-filters="sRGB">
<feFlood flood-opacity="0" result="BackgroundImageFix"/>
<feColorMatrix in="SourceAlpha" type="matrix" values="0 0 0 0 0 0 0 0 0 0 0 0 0 0 0 0 0 0 127 0" result="hardAlpha"/>
<feOffset dy="4"/>
<feGaussianBlur stdDeviation="2"/>
<feComposite in2="hardAlpha" operator="out"/>
<feColorMatrix type="matrix" values="0 0 0 0 0 0 0 0 0 0 0 0 0 0 0 0 0 0 0.25 0"/>
<feBlend mode="normal" in2="BackgroundImageFix" result="effect1_dropShadow_12561_17637"/>
<feBlend mode="normal" in="SourceGraphic" in2="effect1_dropShadow_12561_17637" result="shape"/>
</filter>
<filter id="filter3_d_12561_17637" x="1158" y="265" width="91.5" height="65.3726" filterUnits="userSpaceOnUse" color-interpolation-filters="sRGB">
<feFlood flood-opacity="0" result="BackgroundImageFix"/>
<feColorMatrix in="SourceAlpha" type="matrix" values="0 0 0 0 0 0 0 0 0 0 0 0 0 0 0 0 0 0 127 0" result="hardAlpha"/>
<feOffset dy="4"/>
<feGaussianBlur stdDeviation="2"/>
<feComposite in2="hardAlpha" operator="out"/>
<feColorMatrix type="matrix" values="0 0 0 0 0 0 0 0 0 0 0 0 0 0 0 0 0 0 0.25 0"/>
<feBlend mode="normal" in2="BackgroundImageFix" result="effect1_dropShadow_12561_17637"/>
<feBlend mode="normal" in="SourceGraphic" in2="effect1_dropShadow_12561_17637" result="shape"/>
</filter>
<clipPath id="clip0_12561_17637">
<rect width="52.875" height="53.9603" fill="white" transform="translate(835.148 621.579)"/>
</clipPath>
<clipPath id="clip1_12561_17637">
<rect width="78" height="72" fill="white" transform="matrix(-1 0 0 1 900.523 204)"/>
</clipPath>
</defs>
</svg>
