<svg width="auto" viewBox="0 0 1366 795" fill="none" xmlns="http://www.w3.org/2000/svg">
  <style>
    .colorMode1 {
      fill: #fff
    }
  </style>
  <rect x="523" y="480" width="342" height="256.5" fill="#E75225" fill-opacity="0.1" />
  <rect x="525.5" y="482.5" width="337" height="251.5" stroke="#E75225" stroke-opacity="0.5" stroke-width="5"
    stroke-dasharray="10 10" />
  <path d="M522.5 479.5H865.5V737H522.5V479.5Z" fill="#E75225" fill-opacity="0.1" stroke="#009639" stroke-width="5" />
  <path fill-rule="evenodd" clip-rule="evenodd"
    d="M843.131 689.55C821.84 679.356 812.843 653.831 823.036 632.538C827.93 622.313 836.686 614.451 847.376 610.682C858.067 606.912 869.817 607.545 880.041 612.44C901.332 622.634 910.329 648.159 900.136 669.452C889.944 690.745 864.422 699.743 843.131 689.55Z"
    fill="#E75225" />
  <g clip-path="url(#clip0_12567_19207)">
    <path d="M862.375 636.417V649.288L873.326 642.831L862.375 636.417Z" fill="white" />
    <path d="M862.375 651.979V664.913L873.428 658.476L862.375 651.979Z" fill="white" />
    <path d="M860.802 649.2V636.525L849.988 642.843L860.802 649.2Z" fill="white" fill-opacity="0.8" />
    <path d="M839.105 664.864C841.227 668.34 844.095 671.281 847.494 673.464V659.919L839.105 664.864Z" fill="white"
      fill-opacity="0.8" />
    <path d="M860.798 664.849V652.074L849.957 658.468L860.798 664.849Z" fill="white" fill-opacity="0.8" />
    <path d="M849.074 672.659L860.053 666.265L849.074 659.8V672.659Z" fill="white" />
    <path d="M874.178 672.726V659.888L863.215 666.273L874.178 672.726Z" fill="white" fill-opacity="0.8" />
    <path d="M884.908 663.376C886.782 659.813 887.842 655.865 888.007 651.826L876.594 658.483L884.908 663.376Z"
      fill="white" fill-opacity="0.8" />
    <path d="M875.758 657.118L886.776 650.701L875.758 644.251V657.118Z" fill="white" />
    <path d="M874.178 641.478V628.715L863.266 635.089L874.178 641.478Z" fill="white" fill-opacity="0.8" />
    <path d="M874.178 657.063V644.184L863.242 650.633L874.178 657.063Z" fill="white" fill-opacity="0.8" />
    <path d="M849.074 644.16V657.134L860.092 650.637L849.074 644.16Z" fill="white" />
    <path d="M860.801 623.719C856.745 623.835 852.771 624.904 849.188 626.844L860.801 633.628V623.719Z" fill="white"
      fill-opacity="0.8" />
    <path d="M849.074 628.628V641.526L860.1 635.085L849.074 628.628Z" fill="white" />
    <path d="M847.494 627.846C844.096 630.03 841.228 632.971 839.105 636.446L847.494 641.379V627.846Z" fill="white"
      fill-opacity="0.8" />
    <path d="M874.106 626.911C870.493 624.931 866.476 623.838 862.375 623.719V633.756L874.106 626.911Z" fill="white" />
    <path d="M835.148 651.604C835.285 655.758 836.368 659.824 838.31 663.48L846.809 658.468L835.148 651.604Z"
      fill="white" />
    <path d="M838.31 637.834C836.374 641.474 835.292 645.521 835.148 649.659L846.821 642.839L838.31 637.834Z"
      fill="white" />
    <path d="M849.168 674.455C852.755 676.404 856.737 677.479 860.801 677.596V667.679L849.168 674.455Z" fill="white"
      fill-opacity="0.8" />
    <path d="M884.096 636.49C881.986 633.024 879.136 630.089 875.758 627.901V641.398L884.096 636.49Z" fill="white" />
    <path d="M875.758 673.421C879.153 671.218 882.015 668.26 884.127 664.769L875.758 659.844V673.421Z" fill="white" />
    <path d="M888.043 649.584C887.893 645.486 886.82 641.479 884.908 637.871L876.48 642.827L888.043 649.584Z"
      fill="white" fill-opacity="0.8" />
    <path d="M862.375 677.596C866.43 677.48 870.403 676.411 873.984 674.471L862.375 667.619V677.596Z" fill="white" />
    <path d="M847.494 657.019V644.296L836.648 650.629L847.494 657.019Z" fill="white" fill-opacity="0.8" />
  </g>
  <path
    d="M740.336 544.487L702.61 528.861C697.097 526.577 690.903 526.577 685.39 528.861L647.664 544.487C642.151 546.771 637.771 551.151 635.487 556.664L619.861 594.39C617.577 599.903 617.577 606.097 619.861 611.61L635.487 649.336C637.771 654.849 642.151 659.229 647.664 661.513L685.39 677.139C690.903 679.423 697.097 679.423 702.61 677.139L740.336 661.513C745.849 659.229 750.229 654.849 752.513 649.336L768.139 611.61C770.423 606.097 770.423 599.903 768.139 594.39L752.513 556.664C750.229 551.151 745.849 546.771 740.336 544.487Z"
    fill="#E75225" stroke="#E75225" stroke-width="5" />
  <path
    d="M694.099 551.093C721.524 551.099 744.034 573.357 744 600.434C743.965 627.922 721.546 649.871 693.525 649.851C666.13 649.832 643.981 627.551 644 600.032C644.019 573.123 666.577 551.088 694.099 551.093ZM678.939 568.423C679.567 571.504 678.957 574.377 678.027 577.204C677.383 579.161 676.493 581.045 675.962 583.029C675.086 586.298 674.093 589.586 673.728 592.928C673.204 597.736 675.102 601.97 678.349 606.18L663.422 603.052C663.448 603.521 663.42 603.699 663.472 603.849C664.887 607.987 667.377 611.473 670.167 614.759C670.463 615.107 671.135 615.285 671.633 615.286C686.517 615.314 701.401 615.312 716.284 615.293C716.746 615.292 717.362 615.205 717.645 614.909C720.835 611.571 723.275 607.768 724.8 602.978L708.997 606.059C710.04 604.025 711.23 602.237 711.914 600.272C714.253 593.55 713.284 587.052 709.925 580.922C707.23 576.004 704.744 571.107 706.089 565.179C703.243 567.977 702.15 571.538 701.456 575.209C700.773 578.825 700.371 582.493 699.842 586.161C699.766 586.051 699.669 585.969 699.654 585.874C699.593 585.489 699.536 585.101 699.515 584.712C699.193 578.704 698.015 572.915 695.526 567.386C694.062 564.131 692.447 560.804 693.957 556.921C692.935 557.457 692.011 557.991 691.35 558.752C689.374 561.023 688.557 563.752 688.347 566.739C688.167 569.291 687.921 571.855 687.446 574.364C686.946 577.002 686.154 579.587 684.374 582.011C683.655 576.833 683.575 571.713 678.939 568.423ZM717.315 619.824H670.633V627.897H717.315V619.824ZM679.888 632.067C679.85 638.789 686.728 643.798 695.229 643.434C702.274 643.133 708.509 637.616 707.973 632.067H679.888Z"
    fill="white" />
  <g filter="url(#filter0_d_12567_19207)">
    <rect x="869" y="756.745" width="103" height="30" rx="5" fill="#009639" />
    <path
      d="M879.246 776.941C881.066 776.941 882.62 775.947 882.62 774.071C882.62 771.999 880.772 771.495 879.344 770.977C878.448 770.641 877.776 770.333 877.776 769.605C877.776 769.045 878.238 768.639 879.036 768.639C879.792 768.639 880.268 768.947 880.394 769.605C880.422 769.815 880.534 769.913 880.73 769.913H881.99C882.214 769.913 882.34 769.801 882.326 769.577C882.158 767.645 880.646 766.763 879.036 766.763C877.398 766.763 875.844 767.729 875.844 769.605C875.844 771.691 877.566 772.251 878.98 772.741C879.904 773.077 880.688 773.371 880.688 774.071C880.688 774.645 880.226 775.065 879.246 775.065C878.294 775.065 877.734 774.715 877.622 774.057C877.58 773.833 877.482 773.735 877.272 773.735H876.012C875.802 773.735 875.676 773.847 875.69 774.071C875.844 776.031 877.426 776.941 879.246 776.941ZM887.991 769.563C887.123 769.563 886.479 769.885 886.087 770.473V767.281C886.087 767.071 885.975 766.945 885.751 766.945H884.617C884.407 766.945 884.281 767.071 884.281 767.281V776.423C884.281 776.633 884.407 776.745 884.617 776.745H885.751C885.975 776.745 886.087 776.633 886.087 776.423V772.699C886.087 771.649 886.647 771.229 887.347 771.229C887.991 771.229 888.467 771.607 888.467 772.419V776.423C888.467 776.633 888.579 776.745 888.789 776.745H889.937C890.147 776.745 890.273 776.633 890.273 776.423V772.279C890.273 770.557 889.293 769.563 887.991 769.563ZM892.568 768.765H893.716C893.926 768.765 894.038 768.653 894.038 768.443V767.281C894.038 767.071 893.926 766.945 893.716 766.945H892.568C892.358 766.945 892.232 767.071 892.232 767.281V768.443C892.232 768.653 892.358 768.765 892.568 768.765ZM892.568 776.745H893.716C893.926 776.745 894.038 776.633 894.038 776.423V770.081C894.038 769.871 893.926 769.745 893.716 769.745H892.568C892.358 769.745 892.232 769.871 892.232 770.081V776.423C892.232 776.633 892.358 776.745 892.568 776.745ZM901.931 769.745H900.699C900.517 769.745 900.391 769.843 900.335 770.025L898.879 774.533L897.423 770.025C897.367 769.843 897.227 769.745 897.045 769.745H895.827C895.589 769.745 895.463 769.899 895.547 770.137L897.857 776.479C897.913 776.661 898.039 776.745 898.221 776.745H898.557H899.523C899.705 776.745 899.831 776.661 899.901 776.479L902.197 770.137C902.281 769.899 902.169 769.745 901.931 769.745ZM906.081 769.563C904.639 769.563 903.421 770.347 903.239 771.789C903.225 772.013 903.365 772.125 903.575 772.125H904.695C904.891 772.125 904.961 772.027 905.045 771.831C905.157 771.453 905.549 771.229 906.081 771.229C906.739 771.229 907.159 771.579 907.159 772.405V773.161C906.753 772.797 906.151 772.531 905.269 772.531C904.023 772.531 902.903 773.273 902.903 774.743C902.903 776.213 904.023 776.941 905.269 776.941C906.151 776.941 906.753 776.633 907.159 776.143V776.423C907.159 776.633 907.285 776.759 907.495 776.759H908.587C908.811 776.759 908.923 776.633 908.923 776.423V772.307C908.923 770.487 907.621 769.563 906.081 769.563ZM905.871 775.611C905.087 775.611 904.709 775.247 904.709 774.743C904.709 774.239 905.087 773.875 905.871 773.875C906.669 773.875 907.159 774.197 907.159 774.743C907.159 775.247 906.669 775.611 905.871 775.611ZM917.988 769.563C917.176 769.563 916.546 769.885 916.07 770.487C915.706 769.885 915.104 769.563 914.376 769.563C913.676 769.563 913.074 769.871 912.696 770.431V770.081C912.696 769.871 912.584 769.745 912.374 769.745H911.226C911.016 769.745 910.89 769.871 910.89 770.081V776.423C910.89 776.633 911.016 776.745 911.226 776.745H912.374C912.584 776.745 912.696 776.633 912.696 776.423V772.419C912.696 771.509 913.242 771.229 913.732 771.229C914.222 771.229 914.628 771.467 914.628 772.167V776.423C914.628 776.633 914.754 776.745 914.964 776.745H916.098C916.322 776.745 916.434 776.633 916.434 776.423V772.419C916.434 771.509 916.98 771.229 917.47 771.229C917.946 771.229 918.366 771.467 918.366 772.167V776.423C918.366 776.633 918.478 776.745 918.702 776.745H919.836C920.046 776.745 920.172 776.633 920.172 776.423V772.027C920.172 770.417 919.318 769.563 917.988 769.563ZM933.571 776.353L930.099 771.719L933.431 767.351C933.599 767.127 933.487 766.945 933.221 766.945H931.751C931.583 766.945 931.457 767.015 931.345 767.155L928.139 771.285V767.281C928.139 767.071 928.027 766.945 927.803 766.945H926.543C926.333 766.945 926.221 767.071 926.221 767.281V776.423C926.221 776.633 926.333 776.745 926.543 776.745H927.803C928.027 776.745 928.139 776.633 928.139 776.423V772.153L931.485 776.549C931.583 776.689 931.723 776.745 931.891 776.745H933.361C933.641 776.745 933.725 776.577 933.571 776.353ZM940.436 769.745H939.302C939.092 769.745 938.966 769.871 938.966 770.081V773.805C938.966 774.855 938.42 775.261 937.706 775.261C937.076 775.261 936.6 774.883 936.6 774.085V770.081C936.6 769.871 936.474 769.745 936.264 769.745H935.116C934.906 769.745 934.794 769.871 934.794 770.081V774.225C934.794 775.933 935.76 776.941 937.062 776.941C937.93 776.941 938.574 776.619 938.966 776.031V776.423C938.966 776.633 939.092 776.745 939.302 776.745H940.436C940.66 776.745 940.772 776.633 940.772 776.423V770.081C940.772 769.871 940.66 769.745 940.436 769.745ZM950.012 769.563C949.2 769.563 948.57 769.885 948.094 770.487C947.73 769.885 947.128 769.563 946.4 769.563C945.7 769.563 945.098 769.871 944.72 770.431V770.081C944.72 769.871 944.608 769.745 944.398 769.745H943.25C943.04 769.745 942.914 769.871 942.914 770.081V776.423C942.914 776.633 943.04 776.745 943.25 776.745H944.398C944.608 776.745 944.72 776.633 944.72 776.423V772.419C944.72 771.509 945.266 771.229 945.756 771.229C946.246 771.229 946.652 771.467 946.652 772.167V776.423C946.652 776.633 946.778 776.745 946.988 776.745H948.122C948.346 776.745 948.458 776.633 948.458 776.423V772.419C948.458 771.509 949.004 771.229 949.494 771.229C949.97 771.229 950.39 771.467 950.39 772.167V776.423C950.39 776.633 950.502 776.745 950.726 776.745H951.86C952.07 776.745 952.196 776.633 952.196 776.423V772.027C952.196 770.417 951.342 769.563 950.012 769.563ZM956.96 769.563C955.518 769.563 954.3 770.347 954.118 771.789C954.104 772.013 954.244 772.125 954.454 772.125H955.574C955.77 772.125 955.84 772.027 955.924 771.831C956.036 771.453 956.428 771.229 956.96 771.229C957.618 771.229 958.038 771.579 958.038 772.405V773.161C957.632 772.797 957.03 772.531 956.148 772.531C954.902 772.531 953.782 773.273 953.782 774.743C953.782 776.213 954.902 776.941 956.148 776.941C957.03 776.941 957.632 776.633 958.038 776.143V776.423C958.038 776.633 958.164 776.759 958.374 776.759H959.466C959.69 776.759 959.802 776.633 959.802 776.423V772.307C959.802 770.487 958.5 769.563 956.96 769.563ZM956.75 775.611C955.966 775.611 955.588 775.247 955.588 774.743C955.588 774.239 955.966 773.875 956.75 773.875C957.548 773.875 958.038 774.197 958.038 774.743C958.038 775.247 957.548 775.611 956.75 775.611ZM965.157 769.647C964.457 769.731 963.883 770.095 963.575 770.809V770.081C963.575 769.871 963.463 769.745 963.253 769.745H962.105C961.895 769.745 961.769 769.871 961.769 770.081V776.423C961.769 776.633 961.895 776.745 962.105 776.745H963.253C963.463 776.745 963.575 776.633 963.575 776.423V773.301C963.575 772.055 964.387 771.607 965.241 771.607C965.409 771.607 965.493 771.495 965.493 771.285V769.955C965.493 769.745 965.381 769.605 965.157 769.647Z"
      fill="white" />
    <path
      d="M856.714 725C856.26 725 855.824 725.178 855.502 725.494C855.181 725.811 855 726.24 855 726.688V755.387C855 755.835 855.181 756.265 855.502 756.581C855.824 756.898 856.26 757.076 856.714 757.076C856.979 757.075 857.241 757.014 857.478 756.897C857.715 756.781 857.921 756.611 858.08 756.403L863.434 750.524L864 749.669C866.128 748.958 864 749.689 865.5 749.196C866.738 748.642 865.019 749.347 867 748.682L867.753 748.701L877.286 748.635C877.74 748.635 878.176 748.457 878.498 748.14C878.819 747.824 879 747.394 879 746.946C879 746.695 878.943 746.446 878.833 746.219C878.723 745.992 878.562 745.792 878.364 745.634L858.057 725.64C857.897 725.44 857.692 725.279 857.46 725.169C857.227 725.058 856.973 725 856.714 725Z"
      fill="#009639" />
  </g>
  <path
    d="M592.902 765.9H588.762H587.612C587.313 765.9 587.152 766.061 587.152 766.36V781.54C587.152 781.839 587.313 782 587.612 782H588.302C588.601 782 588.762 781.839 588.762 781.54V775.56H592.902C595.57 775.56 597.732 773.375 597.732 770.73C597.732 768.062 595.57 765.9 592.902 765.9ZM592.902 774.042H588.762V767.418H592.902C594.673 767.418 596.122 768.89 596.122 770.73C596.122 772.547 594.673 774.042 592.902 774.042ZM604.731 770.339C603.466 770.454 602.339 770.96 601.557 772.271V770.96C601.557 770.661 601.396 770.5 601.097 770.5H600.499C600.2 770.5 600.039 770.661 600.039 770.96V781.54C600.039 781.839 600.2 782 600.499 782H601.097C601.396 782 601.557 781.839 601.557 781.54V775.606C601.557 772.915 603.167 771.903 604.892 771.788C605.076 771.788 605.191 771.604 605.191 771.328V770.776C605.191 770.477 605.03 770.316 604.731 770.339ZM611.934 782.276C615.292 782.276 617.983 779.654 617.983 776.25C617.983 772.846 615.292 770.224 611.934 770.224C608.576 770.224 605.885 772.846 605.885 776.25C605.885 779.654 608.576 782.276 611.934 782.276ZM611.934 780.804C609.381 780.804 607.403 778.803 607.403 776.25C607.403 773.697 609.381 771.696 611.934 771.696C614.487 771.696 616.465 773.697 616.465 776.25C616.465 778.803 614.487 780.804 611.934 780.804ZM631.609 770.224C630.321 770.224 629.079 770.661 628.182 772.179C627.561 770.891 626.365 770.224 625.1 770.224C624.019 770.224 622.892 770.615 622.018 771.834V770.96C622.018 770.661 621.857 770.5 621.558 770.5H620.96C620.661 770.5 620.5 770.661 620.5 770.96V781.54C620.5 781.839 620.661 782 620.96 782H621.558C621.857 782 622.018 781.839 622.018 781.54V775.054C622.018 772.432 623.674 771.696 624.824 771.696C626.043 771.696 627.101 772.432 627.101 774.249V781.54C627.101 781.839 627.262 782 627.561 782H628.159C628.458 782 628.619 781.839 628.619 781.54V775.054C628.619 772.432 630.275 771.696 631.425 771.696C632.644 771.696 633.702 772.432 633.702 774.249V781.54C633.702 781.839 633.863 782 634.162 782H634.76C635.059 782 635.22 781.839 635.22 781.54V774.249C635.22 771.604 633.518 770.224 631.586 770.224H631.609ZM643.375 770.224C639.81 770.224 637.487 772.869 637.487 776.25C637.487 779.723 639.856 782.276 643.375 782.276C645.721 782.276 647.607 781.057 648.389 779.309C648.504 779.033 648.32 778.849 647.975 778.849H647.239C646.986 778.849 646.825 778.964 646.687 779.171C646.112 780.114 644.939 780.804 643.398 780.804C641.052 780.804 639.35 779.355 639.051 777.009H647.4H648.481C648.757 777.009 648.941 776.871 648.964 776.572V776.296C648.964 773.145 646.894 770.224 643.375 770.224ZM643.375 771.696C645.33 771.696 647.101 773.007 647.377 775.537H639.028C639.327 773.306 640.937 771.696 643.375 771.696ZM655.875 770.5H653.943V767.28C653.943 766.981 653.782 766.82 653.483 766.82H652.885C652.586 766.82 652.425 766.981 652.425 767.28V770.5H650.47C650.171 770.5 650.01 770.661 650.01 770.96V771.512C650.01 771.811 650.171 771.972 650.47 771.972H652.425V781.54C652.425 781.839 652.586 782 652.885 782H653.483C653.782 782 653.943 781.839 653.943 781.54V771.972H655.875C656.174 771.972 656.335 771.811 656.335 771.512V770.96C656.335 770.661 656.174 770.5 655.875 770.5ZM663.475 770.224C662.072 770.224 660.83 770.661 659.933 772.041V766.36C659.933 766.061 659.772 765.9 659.473 765.9H658.875C658.576 765.9 658.415 766.061 658.415 766.36V781.54C658.415 781.839 658.576 782 658.875 782H659.473C659.772 782 659.933 781.839 659.933 781.54V775.514C659.933 772.662 661.635 771.696 663.199 771.696C664.74 771.696 665.867 772.662 665.867 774.479V781.54C665.867 781.839 666.028 782 666.327 782H666.925C667.224 782 667.385 781.839 667.385 781.54V774.479C667.385 771.834 665.614 770.224 663.475 770.224ZM675.517 770.224C671.952 770.224 669.629 772.869 669.629 776.25C669.629 779.723 671.998 782.276 675.517 782.276C677.863 782.276 679.749 781.057 680.531 779.309C680.646 779.033 680.462 778.849 680.117 778.849H679.381C679.128 778.849 678.967 778.964 678.829 779.171C678.254 780.114 677.081 780.804 675.54 780.804C673.194 780.804 671.492 779.355 671.193 777.009H679.542H680.623C680.899 777.009 681.083 776.871 681.106 776.572V776.296C681.106 773.145 679.036 770.224 675.517 770.224ZM675.517 771.696C677.472 771.696 679.243 773.007 679.519 775.537H671.17C671.469 773.306 673.079 771.696 675.517 771.696ZM691.648 770.5H691.05C690.751 770.5 690.59 770.661 690.59 770.96V776.986C690.59 779.838 688.888 780.804 687.324 780.804C685.783 780.804 684.656 779.838 684.656 778.021V770.96C684.656 770.661 684.495 770.5 684.196 770.5H683.598C683.299 770.5 683.138 770.661 683.138 770.96V778.021C683.138 780.666 684.909 782.276 687.048 782.276C688.428 782.276 689.67 781.862 690.567 780.482V781.54C690.567 781.839 690.728 782 691.027 782H691.625C691.924 782 692.085 781.839 692.085 781.54V770.96C692.085 770.661 691.924 770.5 691.625 770.5H691.648ZM696.491 773.513C696.491 772.225 697.779 771.696 698.998 771.696C700.102 771.696 701.252 772.133 701.459 773.398C701.528 773.674 701.666 773.835 701.942 773.835H702.54C702.839 773.835 703.023 773.674 703 773.352C702.77 771.42 701.16 770.224 698.998 770.224C696.675 770.224 694.973 771.627 694.973 773.513C694.973 777.814 701.735 776.066 701.735 778.987C701.735 780.275 700.447 780.804 698.998 780.804C697.687 780.804 696.514 780.367 696.307 779.102C696.238 778.826 696.1 778.665 695.824 778.665H695.226C694.927 778.665 694.743 778.826 694.766 779.148C694.996 781.08 696.629 782.276 698.998 782.276C701.551 782.276 703.253 780.873 703.253 778.987C703.253 774.686 696.491 776.434 696.491 773.513ZM719.283 782.276C723.975 782.276 727.609 778.55 727.609 773.95C727.609 769.35 723.975 765.624 719.283 765.624C714.591 765.624 710.957 769.35 710.957 773.95C710.957 778.55 714.591 782.276 719.283 782.276ZM719.283 780.712C715.465 780.712 712.567 777.699 712.567 773.95C712.567 770.201 715.465 767.188 719.283 767.188C723.101 767.188 725.999 770.201 725.999 773.95C725.999 777.699 723.101 780.712 719.283 780.712ZM736.296 770.224C734.226 770.224 732.593 771.213 731.65 772.754V770.96C731.65 770.661 731.489 770.5 731.19 770.5H730.592C730.293 770.5 730.132 770.661 730.132 770.96V786.14C730.132 786.439 730.293 786.6 730.592 786.6H731.19C731.489 786.6 731.65 786.439 731.65 786.14V779.769C732.593 781.31 734.226 782.276 736.296 782.276C739.539 782.276 742.23 779.654 742.23 776.25C742.23 772.846 739.539 770.224 736.296 770.224ZM736.181 780.804C733.628 780.804 731.65 778.803 731.65 776.25C731.65 773.697 733.628 771.696 736.181 771.696C738.734 771.696 740.712 773.697 740.712 776.25C740.712 778.803 738.734 780.804 736.181 780.804ZM749.953 770.224C746.388 770.224 744.065 772.869 744.065 776.25C744.065 779.723 746.434 782.276 749.953 782.276C752.299 782.276 754.185 781.057 754.967 779.309C755.082 779.033 754.898 778.849 754.553 778.849H753.817C753.564 778.849 753.403 778.964 753.265 779.171C752.69 780.114 751.517 780.804 749.976 780.804C747.63 780.804 745.928 779.355 745.629 777.009H753.978H755.059C755.335 777.009 755.519 776.871 755.542 776.572V776.296C755.542 773.145 753.472 770.224 749.953 770.224ZM749.953 771.696C751.908 771.696 753.679 773.007 753.955 775.537H745.606C745.905 773.306 747.515 771.696 749.953 771.696ZM762.541 770.339C761.276 770.454 760.149 770.96 759.367 772.271V770.96C759.367 770.661 759.206 770.5 758.907 770.5H758.309C758.01 770.5 757.849 770.661 757.849 770.96V781.54C757.849 781.839 758.01 782 758.309 782H758.907C759.206 782 759.367 781.839 759.367 781.54V775.606C759.367 772.915 760.977 771.903 762.702 771.788C762.886 771.788 763.001 771.604 763.001 771.328V770.776C763.001 770.477 762.84 770.316 762.541 770.339ZM768.997 770.224C766.605 770.224 764.903 771.627 764.65 773.582C764.627 773.904 764.811 774.065 765.11 774.065H765.708C765.984 774.065 766.122 773.904 766.191 773.628C766.421 772.317 767.663 771.696 768.997 771.696C770.469 771.696 771.849 772.455 771.849 774.525V776.388C771.067 775.399 769.733 774.87 768.284 774.87C766.168 774.87 764.167 776.089 764.167 778.573C764.167 781.057 766.168 782.276 768.284 782.276C769.733 782.276 771.067 781.839 771.849 780.712V781.54C771.849 781.839 772.01 782 772.309 782H772.907C773.206 782 773.367 781.839 773.367 781.54V774.525C773.367 771.857 771.573 770.224 768.997 770.224ZM768.652 780.85C766.605 780.85 765.685 779.884 765.685 778.573C765.685 777.262 766.605 776.296 768.652 776.296C770.492 776.296 771.849 777.17 771.849 778.573C771.849 779.884 770.492 780.85 768.652 780.85ZM781.027 770.5H779.095V767.28C779.095 766.981 778.934 766.82 778.635 766.82H778.037C777.738 766.82 777.577 766.981 777.577 767.28V770.5H775.622C775.323 770.5 775.162 770.661 775.162 770.96V771.512C775.162 771.811 775.323 771.972 775.622 771.972H777.577V781.54C777.577 781.839 777.738 782 778.037 782H778.635C778.934 782 779.095 781.839 779.095 781.54V771.972H781.027C781.326 771.972 781.487 771.811 781.487 771.512V770.96C781.487 770.661 781.326 770.5 781.027 770.5ZM788.477 782.276C791.835 782.276 794.526 779.654 794.526 776.25C794.526 772.846 791.835 770.224 788.477 770.224C785.119 770.224 782.428 772.846 782.428 776.25C782.428 779.654 785.119 782.276 788.477 782.276ZM788.477 780.804C785.924 780.804 783.946 778.803 783.946 776.25C783.946 773.697 785.924 771.696 788.477 771.696C791.03 771.696 793.008 773.697 793.008 776.25C793.008 778.803 791.03 780.804 788.477 780.804ZM801.758 770.339C800.493 770.454 799.366 770.96 798.584 772.271V770.96C798.584 770.661 798.423 770.5 798.124 770.5H797.526C797.227 770.5 797.066 770.661 797.066 770.96V781.54C797.066 781.839 797.227 782 797.526 782H798.124C798.423 782 798.584 781.839 798.584 781.54V775.606C798.584 772.915 800.194 771.903 801.919 771.788C802.103 771.788 802.218 771.604 802.218 771.328V770.776C802.218 770.477 802.057 770.316 801.758 770.339Z"
    class="colorMode1" />
  <defs>
    <filter id="filter0_d_12567_19207" x="851" y="725" width="125" height="69.7451" filterUnits="userSpaceOnUse"
      color-interpolation-filters="sRGB">
      <feFlood flood-opacity="0" result="BackgroundImageFix" />
      <feColorMatrix in="SourceAlpha" type="matrix" values="0 0 0 0 0 0 0 0 0 0 0 0 0 0 0 0 0 0 127 0"
        result="hardAlpha" />
      <feOffset dy="4" />
      <feGaussianBlur stdDeviation="2" />
      <feComposite in2="hardAlpha" operator="out" />
      <feColorMatrix type="matrix" values="0 0 0 0 0 0 0 0 0 0 0 0 0 0 0 0 0 0 0.25 0" />
      <feBlend mode="normal" in2="BackgroundImageFix" result="effect1_dropShadow_12567_19207" />
      <feBlend mode="normal" in="SourceGraphic" in2="effect1_dropShadow_12567_19207" result="shape" />
    </filter>
    <clipPath id="clip0_12567_19207">
      <rect width="52.875" height="53.8847" fill="white" transform="translate(835.148 623.719)" />
    </clipPath>
  </defs>
</svg>