<svg width="auto" viewBox="0 0 1366 795" fill="none" xmlns="http://www.w3.org/2000/svg">
  <path
    d="M493.555 327.276C496.269 327.276 498.73 325.62 498.73 322.929C498.73 319.962 495.97 319.065 493.532 318.122C491.6 317.386 489.99 316.673 489.99 314.833C489.99 313.131 491.462 312.188 493.233 312.188C495.027 312.188 496.43 313.085 496.637 314.787C496.66 315.063 496.821 315.224 497.097 315.224H497.81C498.109 315.224 498.27 315.063 498.247 314.741C498.017 312.096 495.786 310.624 493.233 310.624C490.726 310.624 488.38 312.165 488.38 314.833C488.38 317.961 491.071 318.789 493.509 319.709C495.418 320.422 497.12 321.181 497.12 322.929C497.12 324.654 495.533 325.712 493.555 325.712C491.393 325.712 489.783 324.7 489.553 322.791C489.53 322.492 489.369 322.331 489.093 322.331H488.38C488.081 322.331 487.92 322.492 487.943 322.814C488.173 325.689 490.657 327.276 493.555 327.276ZM506.454 315.224C502.889 315.224 500.566 317.869 500.566 321.25C500.566 324.723 502.935 327.276 506.454 327.276C508.8 327.276 510.686 326.057 511.468 324.309C511.583 324.033 511.399 323.849 511.054 323.849H510.318C510.065 323.849 509.904 323.964 509.766 324.171C509.191 325.114 508.018 325.804 506.477 325.804C504.131 325.804 502.429 324.355 502.13 322.009H510.479H511.56C511.836 322.009 512.02 321.871 512.043 321.572V321.296C512.043 318.145 509.973 315.224 506.454 315.224ZM506.454 316.696C508.409 316.696 510.18 318.007 510.456 320.537H502.107C502.406 318.306 504.016 316.696 506.454 316.696ZM519.042 315.339C517.777 315.454 516.65 315.96 515.868 317.271V315.96C515.868 315.661 515.707 315.5 515.408 315.5H514.81C514.511 315.5 514.35 315.661 514.35 315.96V326.54C514.35 326.839 514.511 327 514.81 327H515.408C515.707 327 515.868 326.839 515.868 326.54V320.606C515.868 317.915 517.478 316.903 519.203 316.788C519.387 316.788 519.502 316.604 519.502 316.328V315.776C519.502 315.477 519.341 315.316 519.042 315.339ZM529.978 315.5H529.334C529.081 315.5 528.897 315.615 528.805 315.868L525.378 325.344L521.951 315.868C521.859 315.615 521.675 315.5 521.422 315.5H520.778C520.456 315.5 520.295 315.707 520.41 316.029L524.32 326.632C524.412 326.862 524.596 327 524.849 327H525.332H525.907C526.16 327 526.344 326.885 526.436 326.632L530.346 316.029C530.461 315.707 530.3 315.5 529.978 315.5ZM532.846 313.2H533.444C533.743 313.2 533.904 313.039 533.904 312.74V311.36C533.904 311.061 533.743 310.9 533.444 310.9H532.846C532.547 310.9 532.386 311.061 532.386 311.36V312.74C532.386 313.039 532.547 313.2 532.846 313.2ZM532.846 327H533.444C533.743 327 533.904 326.839 533.904 326.54V315.96C533.904 315.661 533.743 315.5 533.444 315.5H532.846C532.547 315.5 532.386 315.661 532.386 315.96V326.54C532.386 326.839 532.547 327 532.846 327ZM547.453 323.32H546.786C546.533 323.32 546.349 323.435 546.234 323.665C545.567 324.953 544.164 325.804 542.485 325.804C539.932 325.804 537.954 323.803 537.954 321.25C537.954 318.697 539.932 316.696 542.485 316.696C544.141 316.696 545.544 317.524 546.234 318.835C546.349 319.065 546.533 319.18 546.786 319.18H547.453C547.775 319.18 547.959 318.973 547.821 318.651C546.993 316.604 544.923 315.224 542.485 315.224C539.012 315.224 536.436 317.846 536.436 321.25C536.436 324.654 539.012 327.276 542.485 327.276C544.923 327.276 547.016 325.896 547.821 323.849C547.959 323.527 547.775 323.32 547.453 323.32ZM555.508 315.224C551.943 315.224 549.62 317.869 549.62 321.25C549.62 324.723 551.989 327.276 555.508 327.276C557.854 327.276 559.74 326.057 560.522 324.309C560.637 324.033 560.453 323.849 560.108 323.849H559.372C559.119 323.849 558.958 323.964 558.82 324.171C558.245 325.114 557.072 325.804 555.531 325.804C553.185 325.804 551.483 324.355 551.184 322.009H559.533H560.614C560.89 322.009 561.074 321.871 561.097 321.572V321.296C561.097 318.145 559.027 315.224 555.508 315.224ZM555.508 316.696C557.463 316.696 559.234 318.007 559.51 320.537H551.161C551.46 318.306 553.07 316.696 555.508 316.696ZM569.385 311.36V326.54C569.385 326.839 569.546 327 569.845 327H570.535C570.834 327 570.995 326.839 570.995 326.54V311.36C570.995 311.061 570.834 310.9 570.535 310.9H569.845C569.546 310.9 569.385 311.061 569.385 311.36ZM579.516 315.224C578.113 315.224 576.871 315.661 575.974 317.041V315.96C575.974 315.661 575.813 315.5 575.514 315.5H574.916C574.617 315.5 574.456 315.661 574.456 315.96V326.54C574.456 326.839 574.617 327 574.916 327H575.514C575.813 327 575.974 326.839 575.974 326.54V320.514C575.974 317.662 577.676 316.696 579.24 316.696C580.781 316.696 581.908 317.662 581.908 319.479V326.54C581.908 326.839 582.069 327 582.368 327H582.966C583.265 327 583.426 326.839 583.426 326.54V319.479C583.426 316.834 581.655 315.224 579.516 315.224ZM591.075 315.5H589.143V312.28C589.143 311.981 588.982 311.82 588.683 311.82H588.085C587.786 311.82 587.625 311.981 587.625 312.28V315.5H585.67C585.371 315.5 585.21 315.661 585.21 315.96V316.512C585.21 316.811 585.371 316.972 585.67 316.972H587.625V326.54C587.625 326.839 587.786 327 588.085 327H588.683C588.982 327 589.143 326.839 589.143 326.54V316.972H591.075C591.374 316.972 591.535 316.811 591.535 316.512V315.96C591.535 315.661 591.374 315.5 591.075 315.5ZM598.364 315.224C594.799 315.224 592.476 317.869 592.476 321.25C592.476 324.723 594.845 327.276 598.364 327.276C600.71 327.276 602.596 326.057 603.378 324.309C603.493 324.033 603.309 323.849 602.964 323.849H602.228C601.975 323.849 601.814 323.964 601.676 324.171C601.101 325.114 599.928 325.804 598.387 325.804C596.041 325.804 594.339 324.355 594.04 322.009H602.389H603.47C603.746 322.009 603.93 321.871 603.953 321.572V321.296C603.953 318.145 601.883 315.224 598.364 315.224ZM598.364 316.696C600.319 316.696 602.09 318.007 602.366 320.537H594.017C594.316 318.306 595.926 316.696 598.364 316.696ZM610.952 315.339C609.687 315.454 608.56 315.96 607.778 317.271V315.96C607.778 315.661 607.617 315.5 607.318 315.5H606.72C606.421 315.5 606.26 315.661 606.26 315.96V326.54C606.26 326.839 606.421 327 606.72 327H607.318C607.617 327 607.778 326.839 607.778 326.54V320.606C607.778 317.915 609.388 316.903 611.113 316.788C611.297 316.788 611.412 316.604 611.412 316.328V315.776C611.412 315.477 611.251 315.316 610.952 315.339ZM618.645 312.073C618.967 312.073 619.128 311.935 619.128 311.636V311.084C619.128 310.808 618.967 310.601 618.668 310.601C615.862 310.555 614.298 312.188 614.298 315.04V315.5H612.803C612.504 315.5 612.343 315.661 612.343 315.96V316.512C612.343 316.811 612.504 316.972 612.803 316.972H614.298V326.54C614.298 326.839 614.459 327 614.758 327H615.356C615.655 327 615.816 326.839 615.816 326.54V316.972H618.668C618.967 316.972 619.128 316.811 619.128 316.512V315.96C619.128 315.661 618.967 315.5 618.668 315.5H615.816V315.04C615.816 312.993 616.736 312.05 618.645 312.073ZM624.663 315.224C622.271 315.224 620.569 316.627 620.316 318.582C620.293 318.904 620.477 319.065 620.776 319.065H621.374C621.65 319.065 621.788 318.904 621.857 318.628C622.087 317.317 623.329 316.696 624.663 316.696C626.135 316.696 627.515 317.455 627.515 319.525V321.388C626.733 320.399 625.399 319.87 623.95 319.87C621.834 319.87 619.833 321.089 619.833 323.573C619.833 326.057 621.834 327.276 623.95 327.276C625.399 327.276 626.733 326.839 627.515 325.712V326.54C627.515 326.839 627.676 327 627.975 327H628.573C628.872 327 629.033 326.839 629.033 326.54V319.525C629.033 316.857 627.239 315.224 624.663 315.224ZM624.318 325.85C622.271 325.85 621.351 324.884 621.351 323.573C621.351 322.262 622.271 321.296 624.318 321.296C626.158 321.296 627.515 322.17 627.515 323.573C627.515 324.884 626.158 325.85 624.318 325.85ZM642.305 323.32H641.638C641.385 323.32 641.201 323.435 641.086 323.665C640.419 324.953 639.016 325.804 637.337 325.804C634.784 325.804 632.806 323.803 632.806 321.25C632.806 318.697 634.784 316.696 637.337 316.696C638.993 316.696 640.396 317.524 641.086 318.835C641.201 319.065 641.385 319.18 641.638 319.18H642.305C642.627 319.18 642.811 318.973 642.673 318.651C641.845 316.604 639.775 315.224 637.337 315.224C633.864 315.224 631.288 317.846 631.288 321.25C631.288 324.654 633.864 327.276 637.337 327.276C639.775 327.276 641.868 325.896 642.673 323.849C642.811 323.527 642.627 323.32 642.305 323.32ZM650.361 315.224C646.796 315.224 644.473 317.869 644.473 321.25C644.473 324.723 646.842 327.276 650.361 327.276C652.707 327.276 654.593 326.057 655.375 324.309C655.49 324.033 655.306 323.849 654.961 323.849H654.225C653.972 323.849 653.811 323.964 653.673 324.171C653.098 325.114 651.925 325.804 650.384 325.804C648.038 325.804 646.336 324.355 646.037 322.009H654.386H655.467C655.743 322.009 655.927 321.871 655.95 321.572V321.296C655.95 318.145 653.88 315.224 650.361 315.224ZM650.361 316.696C652.316 316.696 654.087 318.007 654.363 320.537H646.014C646.313 318.306 647.923 316.696 650.361 316.696Z"
    class="colorMode1" />
  <path fill-rule="evenodd" clip-rule="evenodd"
    d="M540.757 281.969C507.669 266.427 493.687 227.509 509.527 195.044C517.133 179.453 530.74 167.466 547.354 161.72C563.968 155.973 582.229 156.938 598.118 164.401C631.206 179.943 645.188 218.861 629.348 251.326C613.508 283.792 573.844 297.511 540.757 281.969V281.969Z"
    fill="#D62783" />
  <path fill-rule="evenodd" clip-rule="evenodd"
    d="M567.6 231.133C563.039 231.133 559.492 227.604 559.492 223.068C559.492 218.531 563.039 215.002 567.6 215.002C572.16 215.002 575.707 218.531 575.707 223.068C575.707 227.604 572.16 231.133 567.6 231.133"
    fill="white" />
  <path fill-rule="evenodd" clip-rule="evenodd"
    d="M583.433 226.848C581.407 226.848 579.633 225.209 579.633 223.067C579.633 221.05 581.279 219.286 583.433 219.286C585.459 219.286 587.234 220.925 587.234 223.067C587.234 225.209 585.46 226.847 583.433 226.847V226.848ZM597.115 230.375C596.608 232.391 594.581 233.524 592.554 233.02C590.528 232.516 589.387 230.5 589.894 228.484C590.4 226.468 592.427 225.332 594.454 225.836C596.351 226.34 597.619 228.103 597.238 230.121C597.238 230.121 597.238 230.246 597.113 230.372L597.115 230.375ZM594.45 220.794C592.422 221.298 590.396 220.038 589.889 218.021C589.382 216.006 590.649 213.989 592.676 213.484C594.702 212.98 596.73 214.241 597.236 216.258C597.363 216.762 597.363 217.266 597.236 217.77C597.109 219.157 596.096 220.416 594.449 220.794H594.45ZM607.876 229.867C607.495 231.883 605.594 233.27 603.568 232.892C601.541 232.514 600.147 230.623 600.528 228.607C600.907 226.591 602.808 225.205 604.835 225.582C606.735 225.961 608.129 227.725 608.002 229.615C607.877 229.741 607.877 229.741 607.877 229.867H607.876ZM604.842 220.547C602.815 220.925 600.915 219.539 600.535 217.522C600.155 215.506 601.548 213.616 603.575 213.237C605.601 212.86 607.502 214.245 607.882 216.262C607.882 216.64 608.009 216.892 607.882 217.27C607.755 218.908 606.489 220.295 604.842 220.547ZM602.181 242.852C601.168 244.616 598.888 245.246 597.114 244.238C595.341 243.23 594.707 240.961 595.721 239.197C596.734 237.433 599.015 236.802 600.788 237.811C602.055 238.567 602.814 239.953 602.688 241.339C602.562 241.843 602.435 242.347 602.181 242.851V242.852ZM600.788 208.575C599.015 209.583 596.734 208.953 595.721 207.189C594.708 205.424 595.341 203.156 597.114 202.148C598.888 201.14 601.168 201.77 602.181 203.535C602.562 204.29 602.688 204.92 602.688 205.676C602.562 206.811 601.928 207.945 600.788 208.575"
    fill="white" />
  <path
    d="M567.725 260.746C557.591 260.746 548.217 256.84 540.996 249.783C534.029 242.599 530.102 233.145 530.102 223.192C530.102 213.109 534.029 203.784 541.122 196.6C548.217 189.545 557.717 185.638 567.725 185.638C576.085 185.638 584.066 188.284 590.654 193.326L585.968 199.374C580.647 195.344 574.313 193.202 567.727 193.202C559.747 193.202 552.146 196.352 546.445 202.023C540.747 207.694 537.707 215.129 537.707 223.194C537.707 231.133 540.873 238.694 546.574 244.365C552.274 250.035 559.749 253.06 567.856 253.06C574.57 253.06 580.904 250.917 586.097 246.885L590.658 252.932C584.071 257.971 576.091 260.745 567.73 260.745L567.725 260.746Z"
    fill="white" />
</svg>