<svg width="100%" viewBox="0 0 1366 805" fill="none" xmlns="http://www.w3.org/2000/svg">
  <defs>
    <style>
      .colorMode1 {
        fill: #fff
      }
    </style>
  </defs>
  <path
    d="M525.555 327.276C528.269 327.276 530.73 325.62 530.73 322.929C530.73 319.962 527.97 319.065 525.532 318.122C523.6 317.386 521.99 316.673 521.99 314.833C521.99 313.131 523.462 312.188 525.233 312.188C527.027 312.188 528.43 313.085 528.637 314.787C528.66 315.063 528.821 315.224 529.097 315.224H529.81C530.109 315.224 530.27 315.063 530.247 314.741C530.017 312.096 527.786 310.624 525.233 310.624C522.726 310.624 520.38 312.165 520.38 314.833C520.38 317.961 523.071 318.789 525.509 319.709C527.418 320.422 529.12 321.181 529.12 322.929C529.12 324.654 527.533 325.712 525.555 325.712C523.393 325.712 521.783 324.7 521.553 322.791C521.53 322.492 521.369 322.331 521.093 322.331H520.38C520.081 322.331 519.92 322.492 519.943 322.814C520.173 325.689 522.657 327.276 525.555 327.276ZM538.454 315.224C534.889 315.224 532.566 317.869 532.566 321.25C532.566 324.723 534.935 327.276 538.454 327.276C540.8 327.276 542.686 326.057 543.468 324.309C543.583 324.033 543.399 323.849 543.054 323.849H542.318C542.065 323.849 541.904 323.964 541.766 324.171C541.191 325.114 540.018 325.804 538.477 325.804C536.131 325.804 534.429 324.355 534.13 322.009H542.479H543.56C543.836 322.009 544.02 321.871 544.043 321.572V321.296C544.043 318.145 541.973 315.224 538.454 315.224ZM538.454 316.696C540.409 316.696 542.18 318.007 542.456 320.537H534.107C534.406 318.306 536.016 316.696 538.454 316.696ZM551.042 315.339C549.777 315.454 548.65 315.96 547.868 317.271V315.96C547.868 315.661 547.707 315.5 547.408 315.5H546.81C546.511 315.5 546.35 315.661 546.35 315.96V326.54C546.35 326.839 546.511 327 546.81 327H547.408C547.707 327 547.868 326.839 547.868 326.54V320.606C547.868 317.915 549.478 316.903 551.203 316.788C551.387 316.788 551.502 316.604 551.502 316.328V315.776C551.502 315.477 551.341 315.316 551.042 315.339ZM561.978 315.5H561.334C561.081 315.5 560.897 315.615 560.805 315.868L557.378 325.344L553.951 315.868C553.859 315.615 553.675 315.5 553.422 315.5H552.778C552.456 315.5 552.295 315.707 552.41 316.029L556.32 326.632C556.412 326.862 556.596 327 556.849 327H557.332H557.907C558.16 327 558.344 326.885 558.436 326.632L562.346 316.029C562.461 315.707 562.3 315.5 561.978 315.5ZM564.846 313.2H565.444C565.743 313.2 565.904 313.039 565.904 312.74V311.36C565.904 311.061 565.743 310.9 565.444 310.9H564.846C564.547 310.9 564.386 311.061 564.386 311.36V312.74C564.386 313.039 564.547 313.2 564.846 313.2ZM564.846 327H565.444C565.743 327 565.904 326.839 565.904 326.54V315.96C565.904 315.661 565.743 315.5 565.444 315.5H564.846C564.547 315.5 564.386 315.661 564.386 315.96V326.54C564.386 326.839 564.547 327 564.846 327ZM579.453 323.32H578.786C578.533 323.32 578.349 323.435 578.234 323.665C577.567 324.953 576.164 325.804 574.485 325.804C571.932 325.804 569.954 323.803 569.954 321.25C569.954 318.697 571.932 316.696 574.485 316.696C576.141 316.696 577.544 317.524 578.234 318.835C578.349 319.065 578.533 319.18 578.786 319.18H579.453C579.775 319.18 579.959 318.973 579.821 318.651C578.993 316.604 576.923 315.224 574.485 315.224C571.012 315.224 568.436 317.846 568.436 321.25C568.436 324.654 571.012 327.276 574.485 327.276C576.923 327.276 579.016 325.896 579.821 323.849C579.959 323.527 579.775 323.32 579.453 323.32ZM587.508 315.224C583.943 315.224 581.62 317.869 581.62 321.25C581.62 324.723 583.989 327.276 587.508 327.276C589.854 327.276 591.74 326.057 592.522 324.309C592.637 324.033 592.453 323.849 592.108 323.849H591.372C591.119 323.849 590.958 323.964 590.82 324.171C590.245 325.114 589.072 325.804 587.531 325.804C585.185 325.804 583.483 324.355 583.184 322.009H591.533H592.614C592.89 322.009 593.074 321.871 593.097 321.572V321.296C593.097 318.145 591.027 315.224 587.508 315.224ZM587.508 316.696C589.463 316.696 591.234 318.007 591.51 320.537H583.161C583.46 318.306 585.07 316.696 587.508 316.696ZM601.385 311.36V326.54C601.385 326.839 601.546 327 601.845 327H602.535C602.834 327 602.995 326.839 602.995 326.54V311.36C602.995 311.061 602.834 310.9 602.535 310.9H601.845C601.546 310.9 601.385 311.061 601.385 311.36ZM611.516 315.224C610.113 315.224 608.871 315.661 607.974 317.041V315.96C607.974 315.661 607.813 315.5 607.514 315.5H606.916C606.617 315.5 606.456 315.661 606.456 315.96V326.54C606.456 326.839 606.617 327 606.916 327H607.514C607.813 327 607.974 326.839 607.974 326.54V320.514C607.974 317.662 609.676 316.696 611.24 316.696C612.781 316.696 613.908 317.662 613.908 319.479V326.54C613.908 326.839 614.069 327 614.368 327H614.966C615.265 327 615.426 326.839 615.426 326.54V319.479C615.426 316.834 613.655 315.224 611.516 315.224ZM623.075 315.5H621.143V312.28C621.143 311.981 620.982 311.82 620.683 311.82H620.085C619.786 311.82 619.625 311.981 619.625 312.28V315.5H617.67C617.371 315.5 617.21 315.661 617.21 315.96V316.512C617.21 316.811 617.371 316.972 617.67 316.972H619.625V326.54C619.625 326.839 619.786 327 620.085 327H620.683C620.982 327 621.143 326.839 621.143 326.54V316.972H623.075C623.374 316.972 623.535 316.811 623.535 316.512V315.96C623.535 315.661 623.374 315.5 623.075 315.5ZM630.364 315.224C626.799 315.224 624.476 317.869 624.476 321.25C624.476 324.723 626.845 327.276 630.364 327.276C632.71 327.276 634.596 326.057 635.378 324.309C635.493 324.033 635.309 323.849 634.964 323.849H634.228C633.975 323.849 633.814 323.964 633.676 324.171C633.101 325.114 631.928 325.804 630.387 325.804C628.041 325.804 626.339 324.355 626.04 322.009H634.389H635.47C635.746 322.009 635.93 321.871 635.953 321.572V321.296C635.953 318.145 633.883 315.224 630.364 315.224ZM630.364 316.696C632.319 316.696 634.09 318.007 634.366 320.537H626.017C626.316 318.306 627.926 316.696 630.364 316.696ZM642.952 315.339C641.687 315.454 640.56 315.96 639.778 317.271V315.96C639.778 315.661 639.617 315.5 639.318 315.5H638.72C638.421 315.5 638.26 315.661 638.26 315.96V326.54C638.26 326.839 638.421 327 638.72 327H639.318C639.617 327 639.778 326.839 639.778 326.54V320.606C639.778 317.915 641.388 316.903 643.113 316.788C643.297 316.788 643.412 316.604 643.412 316.328V315.776C643.412 315.477 643.251 315.316 642.952 315.339ZM650.645 312.073C650.967 312.073 651.128 311.935 651.128 311.636V311.084C651.128 310.808 650.967 310.601 650.668 310.601C647.862 310.555 646.298 312.188 646.298 315.04V315.5H644.803C644.504 315.5 644.343 315.661 644.343 315.96V316.512C644.343 316.811 644.504 316.972 644.803 316.972H646.298V326.54C646.298 326.839 646.459 327 646.758 327H647.356C647.655 327 647.816 326.839 647.816 326.54V316.972H650.668C650.967 316.972 651.128 316.811 651.128 316.512V315.96C651.128 315.661 650.967 315.5 650.668 315.5H647.816V315.04C647.816 312.993 648.736 312.05 650.645 312.073ZM656.663 315.224C654.271 315.224 652.569 316.627 652.316 318.582C652.293 318.904 652.477 319.065 652.776 319.065H653.374C653.65 319.065 653.788 318.904 653.857 318.628C654.087 317.317 655.329 316.696 656.663 316.696C658.135 316.696 659.515 317.455 659.515 319.525V321.388C658.733 320.399 657.399 319.87 655.95 319.87C653.834 319.87 651.833 321.089 651.833 323.573C651.833 326.057 653.834 327.276 655.95 327.276C657.399 327.276 658.733 326.839 659.515 325.712V326.54C659.515 326.839 659.676 327 659.975 327H660.573C660.872 327 661.033 326.839 661.033 326.54V319.525C661.033 316.857 659.239 315.224 656.663 315.224ZM656.318 325.85C654.271 325.85 653.351 324.884 653.351 323.573C653.351 322.262 654.271 321.296 656.318 321.296C658.158 321.296 659.515 322.17 659.515 323.573C659.515 324.884 658.158 325.85 656.318 325.85ZM674.305 323.32H673.638C673.385 323.32 673.201 323.435 673.086 323.665C672.419 324.953 671.016 325.804 669.337 325.804C666.784 325.804 664.806 323.803 664.806 321.25C664.806 318.697 666.784 316.696 669.337 316.696C670.993 316.696 672.396 317.524 673.086 318.835C673.201 319.065 673.385 319.18 673.638 319.18H674.305C674.627 319.18 674.811 318.973 674.673 318.651C673.845 316.604 671.775 315.224 669.337 315.224C665.864 315.224 663.288 317.846 663.288 321.25C663.288 324.654 665.864 327.276 669.337 327.276C671.775 327.276 673.868 325.896 674.673 323.849C674.811 323.527 674.627 323.32 674.305 323.32ZM682.361 315.224C678.796 315.224 676.473 317.869 676.473 321.25C676.473 324.723 678.842 327.276 682.361 327.276C684.707 327.276 686.593 326.057 687.375 324.309C687.49 324.033 687.306 323.849 686.961 323.849H686.225C685.972 323.849 685.811 323.964 685.673 324.171C685.098 325.114 683.925 325.804 682.384 325.804C680.038 325.804 678.336 324.355 678.037 322.009H686.386H687.467C687.743 322.009 687.927 321.871 687.95 321.572V321.296C687.95 318.145 685.88 315.224 682.361 315.224ZM682.361 316.696C684.316 316.696 686.087 318.007 686.363 320.537H678.014C678.313 318.306 679.923 316.696 682.361 316.696Z"
    class="colorMode1" />
  <path fill-rule="evenodd" clip-rule="evenodd"
    d="M572.757 285.516C539.669 269.778 525.687 230.371 541.527 197.497C549.133 181.711 562.74 169.573 579.354 163.754C595.968 157.935 614.229 158.912 630.118 166.469C663.206 182.207 677.188 221.614 661.348 254.488C645.508 287.361 605.844 301.253 572.757 285.516Z"
    fill="#D62783" />
  <path fill-rule="evenodd" clip-rule="evenodd"
    d="M599.596 234.04C595.036 234.04 591.488 230.468 591.488 225.874C591.488 221.28 595.036 217.707 599.596 217.707C604.156 217.707 607.703 221.28 607.703 225.874C607.703 230.468 604.156 234.04 599.596 234.04Z"
    fill="white" />
  <path fill-rule="evenodd" clip-rule="evenodd"
    d="M615.431 229.702C613.405 229.702 611.631 228.042 611.631 225.873C611.631 223.831 613.277 222.045 615.431 222.045C617.457 222.045 619.232 223.704 619.232 225.873C619.232 228.042 617.458 229.701 615.431 229.701V229.702ZM629.113 233.273C628.606 235.314 626.579 236.461 624.552 235.951C622.526 235.441 621.385 233.4 621.892 231.359C622.398 229.318 624.425 228.166 626.452 228.677C628.349 229.187 629.617 230.973 629.237 233.016C629.237 233.016 629.237 233.143 629.111 233.27L629.113 233.273ZM626.448 223.572C624.42 224.082 622.394 222.806 621.887 220.764C621.38 218.723 622.647 216.681 624.674 216.17C626.7 215.66 628.728 216.936 629.234 218.979C629.361 219.489 629.361 219.999 629.234 220.509C629.107 221.914 628.094 223.189 626.447 223.572H626.448ZM639.874 232.759C639.493 234.8 637.592 236.204 635.566 235.822C633.539 235.439 632.145 233.525 632.526 231.483C632.906 229.442 634.806 228.038 636.833 228.42C638.733 228.803 640.127 230.59 640 232.504C639.875 232.631 639.875 232.631 639.875 232.759H639.874ZM636.84 223.321C634.813 223.704 632.913 222.301 632.533 220.259C632.153 218.218 633.546 216.303 635.573 215.92C637.6 215.538 639.5 216.941 639.88 218.983C639.88 219.365 640.007 219.621 639.88 220.003C639.753 221.662 638.487 223.066 636.84 223.321ZM634.179 245.907C633.166 247.693 630.886 248.332 629.112 247.31C627.339 246.29 626.705 243.993 627.719 242.206C628.732 240.42 631.013 239.781 632.786 240.803C634.053 241.568 634.812 242.972 634.686 244.376C634.56 244.886 634.433 245.396 634.179 245.906V245.907ZM632.786 211.199C631.013 212.22 628.732 211.582 627.719 209.795C626.706 208.009 627.339 205.712 629.112 204.691C630.886 203.671 633.166 204.308 634.179 206.095C634.56 206.86 634.686 207.499 634.686 208.264C634.56 209.413 633.926 210.561 632.786 211.199"
    fill="white" />
  <path
    d="M599.723 264.027C589.589 264.027 580.215 260.071 572.994 252.926C566.027 245.651 562.1 236.078 562.1 225.999C562.1 215.79 566.027 206.348 573.12 199.073C580.215 191.929 589.715 187.974 599.723 187.974C608.084 187.974 616.064 190.653 622.652 195.758L617.966 201.882C612.645 197.802 606.311 195.632 599.725 195.632C591.745 195.632 584.144 198.822 578.444 204.564C572.745 210.306 569.705 217.835 569.705 226.001C569.705 234.04 572.871 241.697 578.572 247.439C584.272 253.181 591.747 256.243 599.854 256.243C606.568 256.243 612.902 254.074 618.095 249.99L622.656 256.114C616.069 261.217 608.089 264.025 599.728 264.025L599.723 264.027Z"
    fill="white" />

</svg>