<svg width="311" height="131" viewBox="0 0 311 131" fill="none" xmlns="http://www.w3.org/2000/svg">
<g clip-path="url(#clip0_1250_240)">
<path d="M15.6504 114.54C16.1418 114.753 16.5615 115.103 16.8594 115.548C17.1573 115.993 17.3208 116.514 17.3304 117.05V130.27C17.3277 130.388 17.2792 130.499 17.1951 130.582C17.111 130.664 16.998 130.71 16.8804 130.71H13.6204C13.5647 130.713 13.5091 130.703 13.4573 130.682C13.4056 130.662 13.3589 130.63 13.3204 130.59C13.2416 130.502 13.1988 130.388 13.2004 130.27V118.27H10.5704V130.27C10.5714 130.385 10.5284 130.496 10.4504 130.58C10.4153 130.625 10.3694 130.661 10.317 130.683C10.2646 130.706 10.2073 130.715 10.1504 130.71H7.15035C7.03366 130.71 6.92174 130.664 6.83922 130.581C6.75671 130.499 6.71035 130.387 6.71035 130.27V118.27H4.13035V130.27C4.14464 130.372 4.11795 130.476 4.05612 130.558C3.99428 130.64 3.90233 130.695 3.80035 130.71H0.450351C0.350014 130.725 0.247715 130.701 0.164165 130.644C0.0806154 130.586 0.0220586 130.499 0.00035067 130.4V114.76C-0.0139386 114.658 0.0127495 114.554 0.0745836 114.472C0.136418 114.389 0.228371 114.335 0.330351 114.32H14.5704C14.9422 114.313 15.311 114.388 15.6504 114.54Z" fill="white"/>
<path d="M32.0005 114.32C32.544 114.317 33.0763 114.474 33.5301 114.773C33.984 115.073 34.339 115.499 34.5505 116C34.702 116.333 34.7804 116.694 34.7805 117.06V130.28C34.7832 130.337 34.7743 130.394 34.7545 130.447C34.7346 130.5 34.7041 130.549 34.6648 130.59C34.6255 130.631 34.5783 130.664 34.526 130.686C34.4737 130.709 34.4174 130.72 34.3605 130.72H31.0805C30.9629 130.72 30.8499 130.674 30.7658 130.592C30.6817 130.509 30.6331 130.398 30.6305 130.28V126.08C30.6353 125.966 30.5959 125.855 30.5205 125.77C30.4823 125.726 30.4344 125.691 30.3807 125.669C30.3269 125.646 30.2687 125.636 30.2105 125.64H25.5705C25.4529 125.64 25.3399 125.686 25.2558 125.768C25.1717 125.85 25.1231 125.962 25.1205 126.08V130.28C25.129 130.33 25.1275 130.381 25.1159 130.43C25.1044 130.48 25.0831 130.526 25.0532 130.567C25.0234 130.608 24.9857 130.643 24.9423 130.669C24.8989 130.695 24.8507 130.713 24.8005 130.72H21.4505C21.3998 130.73 21.3476 130.73 21.297 130.719C21.2465 130.708 21.1987 130.687 21.1566 130.657C21.1145 130.627 21.0789 130.589 21.0521 130.545C21.0252 130.5 21.0077 130.451 21.0005 130.4V117.06C20.9997 116.696 21.0711 116.336 21.2105 116C21.341 115.659 21.542 115.348 21.8005 115.09C22.0642 114.838 22.3729 114.638 22.7105 114.5C23.0443 114.352 23.4056 114.278 23.7705 114.28L32.0005 114.32ZM30.5905 122.13V118H25.0905V122.12L30.5905 122.13Z" fill="white"/>
<path d="M49.5206 114.45C49.5652 114.488 49.6002 114.535 49.6228 114.589C49.6454 114.643 49.6549 114.702 49.6506 114.76V128C49.653 128.365 49.578 128.726 49.4306 129.06C49.2908 129.397 49.0909 129.705 48.8406 129.97C48.5876 130.23 48.2803 130.432 47.9406 130.56C47.6011 130.699 47.2376 130.771 46.8706 130.77H39.8706C39.5036 130.771 39.14 130.699 38.8006 130.56C38.2975 130.349 37.8689 129.993 37.5696 129.537C37.2703 129.08 37.1139 128.545 37.1206 128V123C37.1061 122.897 37.1325 122.792 37.1941 122.708C37.2558 122.624 37.3478 122.567 37.4506 122.55H40.8006C40.9034 122.538 41.0069 122.565 41.0904 122.627C41.1738 122.688 41.2311 122.778 41.2506 122.88V126.35C41.2478 126.407 41.2571 126.464 41.2777 126.518C41.2984 126.571 41.33 126.62 41.3706 126.66C41.4594 126.736 41.5738 126.775 41.6906 126.77H45.0906C45.2042 126.775 45.3153 126.735 45.4006 126.66C45.4446 126.622 45.4792 126.574 45.5017 126.52C45.5243 126.466 45.5341 126.408 45.5306 126.35V114.76C45.5295 114.645 45.5725 114.534 45.6506 114.45C45.6883 114.405 45.7361 114.37 45.79 114.348C45.8438 114.325 45.9023 114.316 45.9606 114.32H49.2206C49.277 114.319 49.3331 114.33 49.3849 114.352C49.4366 114.374 49.483 114.408 49.5206 114.45Z" fill="white"/>
<path d="M64.3503 114.32C64.7152 114.317 65.0765 114.392 65.4103 114.54C65.7374 114.674 66.0343 114.872 66.2834 115.123C66.5325 115.374 66.7287 115.672 66.8603 116C67.0118 116.333 67.0902 116.694 67.0903 117.06V127.95C67.0892 128.319 67.0109 128.683 66.8603 129.02C66.7271 129.355 66.5301 129.66 66.2803 129.92C66.0236 130.181 65.713 130.382 65.3703 130.51C65.0361 130.655 64.6746 130.727 64.3103 130.72H56.0503C55.6889 130.72 55.3313 130.645 55.0003 130.5C54.5044 130.296 54.0801 129.95 53.781 129.505C53.482 129.06 53.3216 128.536 53.3203 128V117.11C53.3195 116.743 53.3909 116.379 53.5303 116.04C53.6549 115.701 53.853 115.394 54.1103 115.14C54.374 114.888 54.6827 114.688 55.0203 114.55C55.3538 114.402 55.7153 114.327 56.0803 114.33L64.3503 114.32ZM62.9403 118.32H57.4403V126.76H63.0003L62.9403 118.32Z" fill="white"/>
<path d="M85.0603 130.35C85.0903 130.389 85.1066 130.436 85.1066 130.485C85.1066 130.534 85.0903 130.581 85.0603 130.62C85.0322 130.659 84.9942 130.69 84.9503 130.709C84.9063 130.728 84.858 130.736 84.8103 130.73H81.0903C80.9591 130.729 80.8309 130.691 80.7203 130.62C80.6012 130.558 80.501 130.464 80.4303 130.35L78.0003 125.9C77.9844 125.87 77.9596 125.845 77.9293 125.829C77.8989 125.813 77.8644 125.806 77.8303 125.81H75.0003C74.9872 125.807 74.9736 125.807 74.9603 125.809C74.9471 125.812 74.9345 125.817 74.9233 125.824C74.9121 125.832 74.9025 125.842 74.8951 125.853C74.8877 125.864 74.8827 125.877 74.8803 125.89V130.25C74.8873 130.301 74.8839 130.352 74.8705 130.402C74.857 130.451 74.8337 130.497 74.8019 130.537C74.7702 130.578 74.7306 130.611 74.6857 130.635C74.6407 130.66 74.5913 130.675 74.5403 130.68H71.2103C71.1097 130.694 71.0075 130.669 70.9253 130.609C70.8431 130.55 70.7875 130.46 70.7703 130.36C70.7602 130.321 70.7602 130.279 70.7703 130.24V114.76C70.7618 114.71 70.7633 114.659 70.7749 114.609C70.7864 114.56 70.8078 114.514 70.8376 114.473C70.8674 114.432 70.9051 114.397 70.9485 114.371C70.9919 114.344 71.0401 114.327 71.0903 114.32H81.8103C82.1751 114.319 82.5362 114.394 82.8703 114.54C83.5226 114.823 84.0415 115.346 84.3203 116C84.4678 116.334 84.5428 116.695 84.5403 117.06V123.22C84.5439 123.8 84.3578 124.365 84.0103 124.83C83.6845 125.305 83.2093 125.657 82.6603 125.83H82.5903C82.4803 125.83 82.4503 125.91 82.5103 125.97L85.0603 130.35ZM80.4003 118.14H74.7503V122.14H80.4003V118.14Z" fill="white"/>
<path d="M107.12 126.74C107.177 126.736 107.235 126.745 107.289 126.765C107.342 126.786 107.391 126.818 107.43 126.86C107.509 126.948 107.552 127.062 107.55 127.18V130.28C107.551 130.395 107.508 130.506 107.43 130.59C107.392 130.635 107.345 130.67 107.291 130.692C107.237 130.715 107.178 130.724 107.12 130.72H97.0002C96.8984 130.735 96.7949 130.71 96.7111 130.65C96.6273 130.59 96.5697 130.501 96.5502 130.4V114.76C96.5359 114.658 96.5625 114.554 96.6244 114.472C96.6862 114.389 96.7782 114.335 96.8802 114.32H100.23C100.332 114.306 100.436 114.332 100.518 114.394C100.601 114.456 100.655 114.548 100.67 114.65C100.68 114.686 100.68 114.724 100.67 114.76V126.32C100.668 126.378 100.679 126.436 100.701 126.489C100.723 126.543 100.757 126.591 100.8 126.63C100.888 126.709 101.002 126.752 101.12 126.75L107.12 126.74Z" fill="white"/>
<path d="M122.28 114.45C122.323 114.489 122.357 114.537 122.379 114.591C122.402 114.644 122.412 114.702 122.41 114.76V117.71C122.414 117.768 122.405 117.827 122.382 117.881C122.36 117.934 122.325 117.982 122.28 118.02C122.196 118.098 122.085 118.141 121.97 118.14H114.11C114.098 118.137 114.085 118.137 114.072 118.139C114.059 118.142 114.047 118.147 114.037 118.155C114.026 118.162 114.018 118.172 114.011 118.183C114.005 118.195 114.001 118.207 114 118.22V120.77C114 120.83 114 120.86 114.11 120.86H120.81C120.867 120.857 120.923 120.867 120.975 120.89C121.027 120.913 121.073 120.947 121.11 120.99C121.188 121.074 121.231 121.185 121.23 121.3V123.65C121.231 123.765 121.188 123.876 121.11 123.96C121.073 124.003 121.027 124.037 120.975 124.06C120.923 124.082 120.867 124.093 120.81 124.09H114.11C114.085 124.087 114.06 124.094 114.039 124.108C114.019 124.123 114.005 124.145 114 124.17V126.7C113.996 126.712 113.994 126.726 113.995 126.739C113.996 126.752 114 126.765 114.007 126.776C114.013 126.788 114.023 126.798 114.034 126.805C114.045 126.813 114.057 126.818 114.07 126.82H122C122.115 126.82 122.226 126.865 122.308 126.945C122.39 127.026 122.438 127.135 122.44 127.25V130.25C122.441 130.307 122.431 130.364 122.41 130.418C122.389 130.471 122.358 130.519 122.318 130.56C122.278 130.601 122.23 130.634 122.177 130.656C122.124 130.679 122.067 130.69 122.01 130.69H110.32C110.218 130.705 110.115 130.68 110.031 130.62C109.947 130.56 109.89 130.471 109.87 130.37V114.76C109.873 114.642 109.921 114.53 110.005 114.448C110.09 114.366 110.202 114.32 110.32 114.32H122C122.107 114.326 122.207 114.373 122.28 114.45Z" fill="white"/>
<path d="M137.15 114.32C137.519 114.317 137.883 114.392 138.22 114.54C138.88 114.811 139.405 115.332 139.68 115.99C139.829 116.323 139.904 116.685 139.9 117.05V130.27C139.903 130.327 139.894 130.384 139.874 130.437C139.855 130.49 139.824 130.539 139.785 130.58C139.745 130.621 139.698 130.654 139.646 130.676C139.594 130.699 139.537 130.71 139.48 130.71H136.17C136.054 130.71 135.942 130.664 135.859 130.581C135.777 130.499 135.73 130.387 135.73 130.27V126.07C135.731 125.955 135.689 125.844 135.61 125.76C135.573 125.715 135.525 125.68 135.471 125.658C135.417 125.635 135.359 125.626 135.3 125.63H130.73C130.613 125.63 130.5 125.676 130.416 125.758C130.332 125.84 130.283 125.952 130.28 126.07V130.27C130.295 130.372 130.268 130.476 130.206 130.558C130.144 130.64 130.052 130.695 129.95 130.71H126.6C126.55 130.718 126.499 130.717 126.45 130.705C126.401 130.694 126.354 130.673 126.313 130.643C126.272 130.613 126.237 130.575 126.211 130.532C126.185 130.488 126.168 130.44 126.16 130.39C126.15 130.351 126.15 130.309 126.16 130.27V117.06C126.16 116.696 126.231 116.336 126.37 116C126.501 115.659 126.702 115.348 126.96 115.09C127.224 114.838 127.533 114.638 127.87 114.5C128.204 114.352 128.565 114.277 128.93 114.28L137.15 114.32ZM135.75 122.13V118H130.24V122.12L135.75 122.13Z" fill="white"/>
<path d="M157.2 121.9C157.242 121.942 157.275 121.992 157.295 122.047C157.316 122.102 157.324 122.161 157.32 122.22V128C157.323 128.365 157.248 128.726 157.1 129.06C156.96 129.394 156.764 129.702 156.52 129.97C156.262 130.228 155.952 130.429 155.61 130.56C155.274 130.699 154.914 130.77 154.55 130.77H146.25C145.89 130.771 145.533 130.701 145.2 130.564C144.867 130.427 144.565 130.225 144.31 129.97C144.055 129.716 143.853 129.413 143.716 129.08C143.579 128.747 143.509 128.39 143.51 128.03V117.13C143.51 116.766 143.582 116.406 143.72 116.07C143.843 115.727 144.041 115.416 144.3 115.16C144.562 114.911 144.867 114.711 145.2 114.57C145.539 114.427 145.903 114.353 146.27 114.35H156C156.12 114.35 156.234 114.397 156.318 114.482C156.403 114.566 156.45 114.681 156.45 114.8V117.89C156.45 118.009 156.403 118.124 156.318 118.208C156.234 118.293 156.12 118.34 156 118.34H148.15C148.032 118.338 147.918 118.381 147.83 118.46C147.748 118.542 147.701 118.654 147.7 118.77V126.36C147.701 126.416 147.713 126.472 147.735 126.523C147.757 126.575 147.79 126.621 147.83 126.66C147.873 126.701 147.923 126.732 147.978 126.753C148.033 126.774 148.092 126.783 148.15 126.78H152.79C152.843 126.783 152.895 126.775 152.945 126.757C152.995 126.74 153.04 126.712 153.079 126.677C153.118 126.642 153.15 126.599 153.172 126.552C153.195 126.504 153.208 126.453 153.21 126.4V122.26C153.208 122.203 153.216 122.146 153.236 122.093C153.256 122.04 153.287 121.991 153.326 121.95C153.365 121.909 153.412 121.876 153.465 121.854C153.517 121.831 153.573 121.82 153.63 121.82H156.91C157.013 121.811 157.116 121.839 157.2 121.9Z" fill="white"/>
<path d="M174.49 114.45C174.573 114.532 174.62 114.643 174.62 114.76V128C174.619 128.366 174.541 128.727 174.39 129.06C174.254 129.396 174.057 129.704 173.81 129.97C173.552 130.228 173.242 130.429 172.9 130.56C172.561 130.699 172.197 130.771 171.83 130.77H163.53C163.167 130.77 162.807 130.699 162.47 130.56C161.809 130.284 161.281 129.76 161 129.1C160.861 128.761 160.79 128.397 160.79 128.03V114.76C160.776 114.658 160.803 114.554 160.865 114.472C160.926 114.389 161.018 114.335 161.12 114.32H164.47C164.572 114.306 164.676 114.332 164.758 114.394C164.841 114.456 164.896 114.548 164.91 114.65C164.921 114.686 164.921 114.724 164.91 114.76V126.32C164.908 126.378 164.919 126.436 164.941 126.489C164.964 126.543 164.998 126.591 165.04 126.63C165.128 126.709 165.242 126.752 165.36 126.75H170C170.056 126.751 170.111 126.741 170.162 126.72C170.214 126.699 170.261 126.669 170.3 126.63C170.343 126.591 170.376 126.543 170.397 126.489C170.418 126.435 170.426 126.377 170.42 126.32V114.76C170.423 114.642 170.472 114.53 170.556 114.448C170.64 114.366 170.753 114.32 170.87 114.32H174.13C174.197 114.309 174.264 114.315 174.327 114.338C174.39 114.361 174.447 114.399 174.49 114.45Z" fill="white"/>
<path d="M190.73 114.45C190.813 114.532 190.86 114.643 190.86 114.76V117.71C190.862 117.768 190.852 117.826 190.829 117.879C190.807 117.933 190.773 117.981 190.73 118.02C190.642 118.099 190.528 118.142 190.41 118.14H182.56C182.547 118.137 182.533 118.137 182.52 118.139C182.507 118.142 182.494 118.147 182.483 118.154C182.472 118.162 182.462 118.172 182.455 118.183C182.448 118.194 182.442 118.207 182.44 118.22V120.81C182.44 120.87 182.44 120.9 182.56 120.9H189.26C189.317 120.899 189.373 120.91 189.424 120.932C189.476 120.954 189.522 120.988 189.56 121.03C189.638 121.114 189.681 121.225 189.68 121.34V123.69C189.681 123.805 189.638 123.916 189.56 124C189.522 124.042 189.476 124.075 189.424 124.098C189.373 124.12 189.317 124.131 189.26 124.13H182.56C182.534 124.127 182.507 124.133 182.485 124.148C182.463 124.162 182.447 124.184 182.44 124.21V126.78C182.437 126.793 182.437 126.807 182.439 126.82C182.442 126.833 182.447 126.846 182.455 126.857C182.462 126.868 182.472 126.878 182.483 126.885C182.494 126.893 182.507 126.898 182.52 126.9H190.41C190.526 126.9 190.638 126.944 190.721 127.025C190.805 127.105 190.855 127.214 190.86 127.33V130.33C190.86 130.445 190.815 130.555 190.735 130.638C190.654 130.72 190.545 130.767 190.43 130.77H178.77C178.72 130.779 178.668 130.777 178.618 130.766C178.568 130.754 178.521 130.733 178.479 130.703C178.437 130.674 178.401 130.636 178.374 130.592C178.347 130.549 178.329 130.501 178.32 130.45C178.31 130.411 178.31 130.369 178.32 130.33V114.76C178.323 114.642 178.371 114.53 178.455 114.448C178.54 114.366 178.652 114.32 178.77 114.32H190.41C190.47 114.318 190.529 114.328 190.584 114.351C190.639 114.373 190.689 114.407 190.73 114.45Z" fill="white"/>
<path d="M215.88 114.32C215.937 114.317 215.994 114.326 216.047 114.346C216.101 114.366 216.149 114.396 216.19 114.436C216.232 114.475 216.264 114.522 216.287 114.574C216.309 114.627 216.321 114.683 216.32 114.74V130.28C216.322 130.337 216.312 130.394 216.291 130.448C216.27 130.501 216.238 130.549 216.198 130.59C216.158 130.631 216.11 130.664 216.057 130.686C216.005 130.709 215.948 130.72 215.89 130.72H212.62C212.503 130.72 212.39 130.674 212.306 130.592C212.222 130.509 212.173 130.398 212.17 130.28V124.83C212.173 124.777 212.165 124.725 212.148 124.675C212.13 124.626 212.103 124.58 212.068 124.541C212.032 124.502 211.99 124.47 211.942 124.448C211.895 124.425 211.843 124.413 211.79 124.41H207.12C207.002 124.406 206.887 124.449 206.8 124.53C206.756 124.568 206.721 124.615 206.698 124.669C206.676 124.723 206.666 124.782 206.67 124.84V130.29C206.685 130.392 206.658 130.496 206.596 130.578C206.534 130.66 206.442 130.715 206.34 130.73C206.304 130.74 206.266 130.74 206.23 130.73H203C202.898 130.744 202.795 130.718 202.712 130.656C202.63 130.594 202.575 130.502 202.56 130.4C202.55 130.364 202.55 130.326 202.56 130.29V114.76C202.546 114.658 202.573 114.554 202.635 114.472C202.697 114.389 202.788 114.335 202.89 114.32H206.24C206.343 114.306 206.446 114.332 206.529 114.394C206.611 114.456 206.666 114.548 206.68 114.65C206.691 114.686 206.691 114.724 206.68 114.76V120C206.666 120.102 206.693 120.206 206.755 120.288C206.817 120.37 206.908 120.425 207.01 120.44H211.76C211.818 120.444 211.875 120.435 211.929 120.415C211.982 120.394 212.031 120.362 212.07 120.32C212.149 120.232 212.192 120.118 212.19 120V114.75C212.193 114.632 212.242 114.52 212.326 114.438C212.41 114.356 212.523 114.31 212.64 114.31H215.89L215.88 114.32Z" fill="white"/>
<path d="M231.061 114.32C231.429 114.317 231.793 114.392 232.131 114.54C232.79 114.811 233.315 115.332 233.591 115.99C233.739 116.323 233.814 116.685 233.811 117.05V130.27C233.813 130.327 233.804 130.384 233.784 130.437C233.765 130.49 233.734 130.539 233.695 130.58C233.656 130.621 233.608 130.654 233.556 130.676C233.504 130.698 233.447 130.71 233.391 130.71H230.111C229.994 130.71 229.882 130.664 229.799 130.581C229.717 130.499 229.671 130.387 229.671 130.27V126.07C229.672 125.955 229.629 125.844 229.551 125.76C229.513 125.715 229.465 125.68 229.411 125.658C229.357 125.635 229.299 125.626 229.241 125.63H224.591C224.474 125.63 224.362 125.676 224.279 125.759C224.197 125.841 224.151 125.953 224.151 126.07V130.27C224.165 130.372 224.138 130.476 224.076 130.558C224.014 130.64 223.922 130.695 223.821 130.71H220.471C220.42 130.719 220.368 130.717 220.318 130.706C220.268 130.694 220.221 130.673 220.179 130.643C220.137 130.614 220.102 130.576 220.075 130.532C220.047 130.489 220.029 130.441 220.021 130.39V117.06C220.02 116.696 220.091 116.336 220.231 116C220.361 115.658 220.562 115.348 220.821 115.09C221.085 114.84 221.394 114.64 221.731 114.5C222.065 114.354 222.426 114.279 222.791 114.28L231.061 114.32ZM229.661 122.13V118H224.151V122.12L229.661 122.13Z" fill="white"/>
<path d="M241.68 118.42C241.639 118.46 241.607 118.508 241.586 118.562C241.565 118.615 241.556 118.673 241.56 118.73V126.32C241.556 126.377 241.565 126.435 241.586 126.488C241.607 126.542 241.639 126.59 241.68 126.63C241.768 126.709 241.883 126.752 242 126.75H249.53C249.587 126.747 249.644 126.756 249.697 126.776C249.751 126.796 249.799 126.826 249.84 126.866C249.882 126.905 249.914 126.952 249.937 127.004C249.959 127.057 249.971 127.113 249.97 127.17V130.29C249.973 130.347 249.964 130.404 249.944 130.457C249.925 130.51 249.894 130.559 249.855 130.6C249.815 130.641 249.768 130.674 249.716 130.696C249.664 130.719 249.607 130.73 249.55 130.73H240.18C239.817 130.732 239.456 130.66 239.12 130.52C238.779 130.389 238.469 130.188 238.21 129.93C237.702 129.388 237.42 128.673 237.42 127.93V117.07C237.419 116.706 237.49 116.346 237.63 116.01C237.753 115.667 237.952 115.356 238.21 115.1C238.474 114.848 238.783 114.648 239.12 114.51C239.454 114.362 239.815 114.287 240.18 114.29H249.53C249.645 114.29 249.756 114.335 249.838 114.415C249.92 114.496 249.968 114.605 249.97 114.72V117.83C249.973 117.945 249.931 118.057 249.852 118.141C249.774 118.225 249.665 118.275 249.55 118.28H242C241.94 118.281 241.881 118.294 241.826 118.318C241.771 118.342 241.722 118.376 241.68 118.42Z" fill="white"/>
<path d="M263.001 121.23C262.981 121.252 262.97 121.28 262.97 121.31C262.97 121.339 262.981 121.368 263.001 121.39L268.441 130.39C268.471 130.429 268.487 130.476 268.487 130.525C268.487 130.574 268.471 130.621 268.441 130.66C268.412 130.699 268.374 130.73 268.33 130.749C268.287 130.768 268.238 130.775 268.191 130.77H264.291C264.159 130.769 264.031 130.731 263.921 130.66C263.802 130.6 263.705 130.506 263.641 130.39L260.131 124C260.131 123.91 260.041 123.91 260.011 124L258.071 126.13C257.98 126.227 257.911 126.343 257.871 126.47C257.819 126.597 257.792 126.733 257.791 126.87V130.34C257.802 130.443 257.775 130.546 257.714 130.63C257.653 130.713 257.562 130.77 257.461 130.79H254.181C254.078 130.804 253.975 130.778 253.892 130.716C253.81 130.654 253.755 130.562 253.741 130.46C253.73 130.421 253.73 130.379 253.741 130.34V114.76C253.726 114.658 253.753 114.554 253.815 114.472C253.877 114.389 253.969 114.335 254.071 114.32H257.421C257.523 114.306 257.626 114.332 257.709 114.394C257.791 114.456 257.846 114.548 257.861 114.65C257.871 114.686 257.871 114.724 257.861 114.76V121.76L263.911 114.68C263.979 114.574 264.068 114.483 264.171 114.41C264.296 114.351 264.432 114.32 264.571 114.32H268.461C268.591 114.32 268.661 114.32 268.691 114.41C268.721 114.5 268.691 114.56 268.611 114.65L263.001 121.23Z" fill="white"/>
<path d="M275.65 130.28C275.659 130.33 275.657 130.381 275.646 130.43C275.634 130.48 275.613 130.526 275.583 130.567C275.553 130.608 275.515 130.643 275.472 130.669C275.429 130.695 275.38 130.713 275.33 130.72H272C271.95 130.729 271.898 130.727 271.848 130.716C271.798 130.704 271.751 130.683 271.709 130.653C271.667 130.624 271.631 130.586 271.604 130.542C271.577 130.499 271.559 130.451 271.55 130.4V114.76C271.536 114.658 271.563 114.554 271.624 114.472C271.686 114.389 271.778 114.335 271.88 114.32H275.23C275.332 114.306 275.436 114.332 275.518 114.394C275.601 114.456 275.655 114.548 275.67 114.65C275.68 114.686 275.68 114.724 275.67 114.76L275.65 130.28Z" fill="white"/>
<path d="M291.4 114.54C292.056 114.817 292.579 115.336 292.86 115.99C293.005 116.324 293.076 116.686 293.07 117.05V130.27C293.073 130.327 293.064 130.384 293.044 130.437C293.024 130.49 292.994 130.539 292.955 130.58C292.915 130.621 292.868 130.654 292.816 130.676C292.764 130.699 292.707 130.71 292.65 130.71H289.41C289.353 130.714 289.296 130.705 289.242 130.685C289.188 130.664 289.14 130.632 289.1 130.59C289.022 130.502 288.979 130.388 288.98 130.27V118.72C288.985 118.662 288.975 118.603 288.953 118.549C288.93 118.495 288.895 118.448 288.85 118.41C288.766 118.332 288.655 118.289 288.54 118.29H283.9C283.782 118.288 283.668 118.331 283.58 118.41C283.538 118.449 283.504 118.497 283.481 118.551C283.459 118.604 283.448 118.662 283.45 118.72V130.28C283.465 130.382 283.438 130.486 283.376 130.568C283.314 130.65 283.222 130.705 283.12 130.72H279.77C279.67 130.734 279.568 130.709 279.485 130.649C279.403 130.59 279.348 130.5 279.33 130.4C279.32 130.361 279.32 130.319 279.33 130.28V114.76C279.316 114.658 279.343 114.554 279.405 114.472C279.466 114.389 279.558 114.335 279.66 114.32H290.37C290.726 114.318 291.077 114.393 291.4 114.54Z" fill="white"/>
<path d="M310.41 121.9C310.453 121.941 310.487 121.991 310.51 122.046C310.532 122.101 310.542 122.16 310.54 122.22V128C310.539 128.366 310.461 128.727 310.31 129.06C310.177 129.398 309.98 129.707 309.73 129.97C309.474 130.231 309.163 130.432 308.82 130.56C308.485 130.7 308.124 130.772 307.76 130.77H299.46C299.097 130.77 298.736 130.699 298.4 130.56C297.905 130.343 297.484 129.984 297.193 129.528C296.901 129.073 296.75 128.541 296.76 128V117.11C296.764 116.727 296.845 116.35 297 116C297.125 115.661 297.323 115.354 297.58 115.1C297.844 114.848 298.153 114.648 298.49 114.51C298.824 114.362 299.185 114.287 299.55 114.29H309.23C309.347 114.29 309.459 114.336 309.541 114.419C309.624 114.501 309.67 114.613 309.67 114.73V117.83C309.67 117.947 309.624 118.059 309.541 118.141C309.459 118.224 309.347 118.27 309.23 118.27H301.37C301.255 118.269 301.144 118.312 301.06 118.39C301.016 118.428 300.981 118.475 300.958 118.529C300.935 118.583 300.926 118.642 300.93 118.7V126.29C300.926 126.348 300.935 126.407 300.958 126.461C300.981 126.514 301.016 126.562 301.06 126.6C301.101 126.639 301.15 126.669 301.203 126.688C301.257 126.707 301.314 126.715 301.37 126.71H305.96C306.013 126.713 306.065 126.705 306.115 126.687C306.164 126.67 306.21 126.642 306.249 126.607C306.288 126.572 306.32 126.529 306.342 126.482C306.365 126.434 306.378 126.383 306.38 126.33V122.19C306.378 122.133 306.386 122.076 306.406 122.023C306.426 121.97 306.457 121.921 306.496 121.88C306.535 121.839 306.582 121.806 306.635 121.784C306.687 121.761 306.743 121.75 306.8 121.75H310.08C310.143 121.749 310.205 121.763 310.262 121.788C310.319 121.814 310.369 121.852 310.41 121.9Z" fill="white"/>
<path d="M98.8501 1.40997C102.97 3.16566 106.249 6.44861 108 10.57C108.93 12.6741 109.411 14.9494 109.41 17.25V103.31C109.415 104.046 109.129 104.753 108.614 105.278C108.098 105.803 107.396 106.102 106.66 106.11H86.0001C85.6393 106.125 85.2797 106.059 84.9476 105.917C84.6155 105.775 84.3191 105.561 84.0801 105.29C83.5812 104.746 83.3155 104.028 83.3401 103.29V25.12H66.7901V103.34C66.8095 104.077 66.5445 104.793 66.0501 105.34C65.8062 105.607 65.5075 105.819 65.1745 105.96C64.8414 106.102 64.4818 106.17 64.1201 106.16H45.4701C45.105 106.165 44.7425 106.099 44.4032 105.964C44.0639 105.829 43.7544 105.629 43.4926 105.374C43.2307 105.12 43.0215 104.816 42.877 104.481C42.7324 104.146 42.6554 103.785 42.6501 103.42V25.12H26.0701V103.34C26.1237 103.722 26.0876 104.112 25.9646 104.478C25.8417 104.844 25.6353 105.177 25.3618 105.449C25.0882 105.722 24.7551 105.927 24.3886 106.048C24.0221 106.17 23.6324 106.205 23.2501 106.15H2.82013C2.43792 106.205 2.04817 106.17 1.68169 106.048C1.3152 105.927 0.982036 105.722 0.708509 105.449C0.434982 105.177 0.228592 104.844 0.105651 104.478C-0.0172909 104.112 -0.053415 103.722 0.000133069 103.34V2.80997C-0.053415 2.42756 -0.0172909 2.03794 0.105651 1.67189C0.228592 1.30585 0.434982 0.973408 0.708509 0.70085C0.982036 0.428293 1.3152 0.223086 1.68169 0.101445C2.04817 -0.020195 2.43792 -0.0549347 2.82013 -2.85525e-05H92.1101C94.4311 -0.0104782 96.728 0.470035 98.8501 1.40997Z" fill="#E73427"/>
<path d="M199.19 80.38C199.563 80.3722 199.933 80.442 200.277 80.5849C200.621 80.7278 200.932 80.9406 201.19 81.21C201.709 81.7643 201.989 82.5007 201.97 83.26V103.26C201.983 104.003 201.703 104.722 201.19 105.26C200.934 105.532 200.624 105.748 200.279 105.892C199.935 106.037 199.564 106.108 199.19 106.1H128.69C126.69 106.1 125.69 105.1 125.69 103.22V2.88C125.69 0.96 126.69 0 128.69 0H150.33C152.33 0 153.33 1 153.33 2.88V77.65C153.319 78.0308 153.395 78.4091 153.552 78.7558C153.71 79.1025 153.945 79.4085 154.24 79.65C154.822 80.1623 155.575 80.4371 156.35 80.42L199.19 80.38Z" fill="#1D539F"/>
<path d="M307.54 -3.57736e-05C307.935 -0.0109561 308.328 0.0577976 308.696 0.20212C309.063 0.346443 309.398 0.563375 309.68 0.839964C309.967 1.09894 310.196 1.41523 310.353 1.76836C310.51 2.12149 310.59 2.5036 310.59 2.88996V103.57C310.59 103.956 310.51 104.338 310.353 104.692C310.196 105.045 309.967 105.361 309.68 105.62C309.398 105.897 309.063 106.113 308.696 106.258C308.328 106.402 307.935 106.471 307.54 106.46H285.62C285.227 106.47 284.836 106.401 284.47 106.257C284.104 106.112 283.771 105.896 283.49 105.62C283.2 105.364 282.968 105.048 282.811 104.694C282.654 104.341 282.575 103.957 282.58 103.57V68.44C282.597 68.0698 282.535 67.7002 282.399 67.3555C282.263 67.0109 282.055 66.6989 281.79 66.44C281.516 66.1832 281.194 65.9837 280.842 65.8532C280.49 65.7227 280.115 65.6638 279.74 65.68H249C248.22 65.655 247.459 65.9266 246.87 66.44C246.576 66.682 246.341 66.988 246.184 67.3346C246.026 67.6812 245.95 68.0593 245.96 68.44V103.57C245.96 105.49 244.96 106.46 242.96 106.46H221.2C219.2 106.46 218.2 105.46 218.2 103.57V2.88996C218.2 0.959964 219.2 -3.57736e-05 221.2 -3.57736e-05H243C245 -3.57736e-05 246 0.999964 246 2.88996V37C246 38.92 247 39.88 249 39.88H279.81C280.192 39.8931 280.573 39.826 280.928 39.683C281.283 39.5401 281.604 39.3244 281.87 39.05C282.377 38.5075 282.66 37.7927 282.66 37.05V2.88996C282.656 2.50387 282.733 2.12123 282.889 1.76768C283.044 1.41413 283.273 1.09783 283.56 0.839964C284.109 0.299108 284.85 -0.00283065 285.62 -3.57736e-05H307.54Z" fill="#F8B92A"/>
</g>
<defs>
<clipPath id="clip0_1250_240">
<rect width="310.59" height="130.78" fill="white"/>
</clipPath>
</defs>
</svg>
