<svg id="Layer_1" data-name="Layer 1" xmlns="http://www.w3.org/2000/svg" viewBox="0 0 278.24 211.85"><defs><style>.cls-1{fill:#3c494f;}.cls-2{fill:#00d3a9;}.cls-3{fill:#00b39f;}.cls-4{fill:#fff;}</style></defs><title>meshery-logo-dark-text</title><rect class="cls-1" x="-2.01" y="-3.39" width="285.31" height="217.94"/><polygon class="cls-2" points="141.14 43.68 141.14 75.93 169.09 59.75 141.14 43.68"/><polygon class="cls-2" points="141.14 82.67 141.14 115.07 169.34 98.95 141.14 82.67"/><polygon class="cls-3" points="137.12 75.71 137.12 43.95 109.51 59.78 137.12 75.71"/><path class="cls-3" d="M81.75,115a67.68,67.68,0,0,0,21.41,21.55V102.57Z"/><polygon class="cls-3" points="137.12 114.92 137.12 82.91 109.44 98.93 137.12 114.92"/><polygon class="cls-2" points="107.18 134.49 135.2 118.47 107.18 102.27 107.18 134.49"/><polygon class="cls-3" points="171.26 134.66 171.26 102.49 143.28 118.49 171.26 134.66"/><path class="cls-3" d="M198.67,111.23a67.22,67.22,0,0,0,7.92-28.94L177.42,99Z"/><polygon class="cls-2" points="175.28 95.55 203.4 79.47 175.28 63.31 175.28 95.55"/><polygon class="cls-3" points="171.26 56.35 171.26 24.38 143.41 40.34 171.26 56.35"/><polygon class="cls-3" points="171.26 95.41 171.26 63.14 143.34 79.3 171.26 95.41"/><polygon class="cls-3" points="139.13 146.88 139.13 146.88 139.12 146.88 139.13 146.88"/><polygon class="cls-2" points="107.18 63.08 107.18 95.59 135.3 79.31 107.18 63.08"/><path class="cls-3" d="M137.11,11.86a67.15,67.15,0,0,0-29.63,7.83l29.63,17Z"/><polygon class="cls-2" points="107.18 24.16 107.18 56.47 135.33 40.34 107.18 24.16"/><path class="cls-3" d="M103.16,22.2A67.82,67.82,0,0,0,81.74,43.75l21.42,12.36Z"/><path class="cls-2" d="M171.07,19.85a67,67,0,0,0-29.93-8V37Z"/><path class="cls-2" d="M71.64,81.73a67.28,67.28,0,0,0,8.08,29.76l21.69-12.56Z"/><path class="cls-2" d="M79.72,47.23a67,67,0,0,0-8.07,29.61l29.79-17.07Z"/><path class="cls-3" d="M107.42,139a67.13,67.13,0,0,0,29.69,7.86V122Z"/><path class="cls-2" d="M196.57,43.84a68,68,0,0,0-21.29-21.53V56.16Z"/><path class="cls-2" d="M175.28,136.39a67.69,67.69,0,0,0,21.38-21.68l-21.38-12.33Z"/><path class="cls-3" d="M206.6,76.67a67.33,67.33,0,0,0-8-29.35L177.14,59.73Z"/><path class="cls-2" d="M141.14,146.85A67.11,67.11,0,0,0,170.76,139L141.14,121.9Z"/><polygon class="cls-3" points="103.16 95.29 103.16 63.42 75.47 79.29 103.16 95.29"/><polygon class="cls-4" points="174.37 162.38 174.37 163.81 174.37 170.52 174.37 178.7 174.37 190.65 206.17 190.65 206.17 183.94 181.08 183.94 181.08 178.7 181.08 177.23 200.35 177.23 200.35 170.52 181.08 170.52 181.08 163.81 206.17 163.81 206.17 157.1 174.37 157.1 174.37 162.38"/><polygon class="cls-4" points="52.04 162.38 52.04 163.81 52.04 170.52 52.04 178.7 52.04 190.65 83.84 190.65 83.84 183.94 58.75 183.94 58.75 178.7 58.75 177.23 78.02 177.23 78.02 170.52 58.75 170.52 58.75 163.81 83.84 163.81 83.84 157.1 52.04 157.1 52.04 162.38"/><path class="cls-4" d="M127.86,181.88a8.44,8.44,0,0,1-.69,3.4,8.74,8.74,0,0,1-1.9,2.79,9.07,9.07,0,0,1-2.8,1.88,8.57,8.57,0,0,1-3.42.7H87.65v-7.07h31.4a1.68,1.68,0,0,0,1.21-.49,1.64,1.64,0,0,0,.49-1.21v-2.73a1.67,1.67,0,0,0-1.7-1.7H96.46a8.47,8.47,0,0,1-3.4-.69,8.94,8.94,0,0,1-2.81-1.9A9.13,9.13,0,0,1,88.34,172a8.44,8.44,0,0,1-.69-3.4v-2.73a8.57,8.57,0,0,1,.69-3.42,9,9,0,0,1,4.72-4.7,8.47,8.47,0,0,1,3.4-.69h31.4v7.11H96.46a1.69,1.69,0,0,0-1.7,1.7v2.73a1.65,1.65,0,0,0,.5,1.21,1.61,1.61,0,0,0,1.2.49h22.59a8.57,8.57,0,0,1,3.42.69,9,9,0,0,1,4.7,4.7,8.57,8.57,0,0,1,.69,3.42Z"/><path class="cls-4" d="M170.17,190.65h-6.39v-13.2H138.83v13.2h-6.4V170.34h31.35V157.1h6.39Zm-31.34-23.46h-6.4V157.1h6.4Z"/><polygon class="cls-4" points="261.47 168.84 253.08 157.1 244.7 157.1 258.11 177.23 258.11 190.65 264.82 190.65 264.82 177.23 278.24 157.1 269.96 157.1 261.47 168.84"/><path class="cls-4" d="M217.58,163.5h17.21v7H220.93v6.4h3.18l12.17,13.78h8.28l-12.17-13.78h4.75a5.21,5.21,0,0,0,5.21-5.21v-9.35a5.21,5.21,0,0,0-5.21-5.21H211v33.55h6.71Z"/><path class="cls-4" d="M46.88,190.65H39.77V166.18a2,2,0,0,0-.59-1.39,2,2,0,0,0-1.38-.58H4.92V157.1H37.8a8.68,8.68,0,0,1,3.51.72,9.44,9.44,0,0,1,2.91,1.94,9.63,9.63,0,0,1,1.94,2.91,8.68,8.68,0,0,1,.72,3.51Zm-34.85,0H4.92V164.21l7.11-2Zm17.4,0H22.32V167.94h7.11Z"/></svg>