<svg id="Layer_1" data-name="Layer 1" xmlns="http://www.w3.org/2000/svg" viewBox="0 0 311.81 311.81"><title>meshery-logo-light-text-pad</title><polygon points="158.89 64.06 158.89 111.72 200.2 87.81 158.89 64.06" style="fill:#00d3a9"/><polygon points="158.89 121.7 158.89 169.59 200.58 145.75 158.89 121.7" style="fill:#00d3a9"/><polygon points="152.94 111.4 152.94 64.46 112.14 87.85 152.94 111.4" style="fill:#00b39f"/><path d="M71.1,169.42a100.31,100.31,0,0,0,31.65,31.86V151.1Z" style="fill:#00b39f"/><polygon points="152.94 169.37 152.94 122.04 112.04 145.72 152.94 169.37" style="fill:#00b39f"/><polygon points="108.7 198.29 150.12 174.6 108.7 150.66 108.7 198.29" style="fill:#00d3a9"/><polygon points="203.41 198.54 203.41 150.99 162.05 174.63 203.41 198.54" style="fill:#00b39f"/><path d="M243.93,163.9a99.3,99.3,0,0,0,11.7-42.77l-43.11,24.65Z" style="fill:#00b39f"/><polygon points="209.36 140.73 250.93 116.97 209.36 93.07 209.36 140.73" style="fill:#00d3a9"/><polygon points="203.41 82.79 203.41 35.53 162.24 59.13 203.41 82.79" style="fill:#00b39f"/><polygon points="203.41 140.52 203.41 92.82 162.15 116.71 203.41 140.52" style="fill:#00b39f"/><polygon points="155.91 216.6 155.92 216.6 155.91 216.6 155.91 216.6" style="fill:#00b39f"/><polygon points="108.7 92.73 108.7 140.78 150.26 116.72 108.7 92.73" style="fill:#00d3a9"/><path d="M152.94,17A99.3,99.3,0,0,0,109.13,28.6l43.81,25.18Z" style="fill:#00b39f"/><polygon points="108.7 35.21 108.7 82.97 150.3 59.12 108.7 35.21" style="fill:#00d3a9"/><path d="M102.75,32.3A100.27,100.27,0,0,0,71.09,64.17l31.66,18.26Z" style="fill:#00b39f"/><path d="M203.14,28.83A99.39,99.39,0,0,0,158.89,17V54.2Z" style="fill:#00d3a9"/><path d="M56.17,120.29a99.23,99.23,0,0,0,11.93,44l32.06-18.56Z" style="fill:#00d3a9"/><path d="M68.1,69.31a99.21,99.21,0,0,0-11.93,43.76l44-25.24Z" style="fill:#00d3a9"/><path d="M109.05,204.94a99.47,99.47,0,0,0,43.89,11.62V179.84Z" style="fill:#00b39f"/><path d="M240.82,64.29a100.38,100.38,0,0,0-31.46-31.81v50Z" style="fill:#00d3a9"/><path d="M209.36,201.1a100.31,100.31,0,0,0,31.6-32l-31.6-18.24Z" style="fill:#00d3a9"/><path d="M255.64,112.82A99.14,99.14,0,0,0,243.8,69.44L212.1,87.79Z" style="fill:#00b39f"/><path d="M158.89,216.56A99.34,99.34,0,0,0,202.68,205l-43.79-25.31Z" style="fill:#00d3a9"/><polygon points="102.75 140.35 102.75 93.23 61.82 116.69 102.75 140.35" style="fill:#00b39f"/><polygon points="189.28 255.82 189.28 257.27 189.28 264.1 189.28 272.43 189.28 284.59 221.66 284.59 221.66 277.76 196.11 277.76 196.11 272.43 196.11 270.93 215.74 270.93 215.74 264.1 196.11 264.1 196.11 257.27 221.66 257.27 221.66 250.44 189.28 250.44 189.28 255.82" style="fill:#3c494f"/><polygon points="64.75 255.82 64.75 257.27 64.75 264.1 64.75 272.43 64.75 284.59 97.12 284.59 97.12 277.76 71.58 277.76 71.58 272.43 71.58 270.93 91.2 270.93 91.2 264.1 71.58 264.1 71.58 257.27 97.12 257.27 97.12 250.44 64.75 250.44 64.75 255.82" style="fill:#3c494f"/><path d="M141.94,275.66a8.53,8.53,0,0,1-.71,3.46A8.71,8.71,0,0,1,139.3,282a9.26,9.26,0,0,1-2.85,1.91,8.7,8.7,0,0,1-3.48.71H101v-7.2h32a1.71,1.71,0,0,0,1.73-1.73v-2.77a1.71,1.71,0,0,0-1.73-1.73H110a8.57,8.57,0,0,1-3.46-.71,9.29,9.29,0,0,1-2.87-1.93,9.12,9.12,0,0,1-1.93-2.87,8.57,8.57,0,0,1-.71-3.46v-2.78a8.7,8.7,0,0,1,.71-3.48,9.12,9.12,0,0,1,4.8-4.79,8.56,8.56,0,0,1,3.46-.7h32v7.24H110a1.71,1.71,0,0,0-1.23.5,1.67,1.67,0,0,0-.5,1.23v2.78a1.71,1.71,0,0,0,1.73,1.73h23a8.69,8.69,0,0,1,3.48.7,9.2,9.2,0,0,1,4.78,4.78,8.78,8.78,0,0,1,.71,3.49Z" style="fill:#3c494f"/><path d="M185,284.59H178.5V271.16H153.1v13.43h-6.51V263.92H178.5V250.44H185ZM153.1,260.71h-6.51V250.44h6.51Z" style="fill:#3c494f"/><polygon points="277.95 262.39 269.41 250.44 260.88 250.44 274.54 270.93 274.54 284.59 281.37 284.59 281.37 270.93 295.03 250.44 286.6 250.44 277.95 262.39" style="fill:#3c494f"/><path d="M233.27,257h17.52v7.1H236.68v6.52h3.24l12.38,14h8.44l-12.39-14h4.83a5.31,5.31,0,0,0,5.31-5.31v-9.52a5.3,5.3,0,0,0-5.31-5.3H226.59v34.15h6.83Z" style="fill:#3c494f"/><path d="M59.5,284.59H52.26V259.68a2,2,0,0,0-.16-.77,1.92,1.92,0,0,0-.44-.64,2,2,0,0,0-.63-.43,1.88,1.88,0,0,0-.78-.16H16.78v-7.24H50.25a8.89,8.89,0,0,1,3.58.73,9.49,9.49,0,0,1,3,2,9.73,9.73,0,0,1,2,3,9,9,0,0,1,.73,3.57Zm-35.48,0H16.78V257.68l7.24-2Zm17.72,0H34.5V261.47h7.24Z" style="fill:#3c494f"/></svg>