<svg id="Layer_1" data-name="Layer 1" xmlns="http://www.w3.org/2000/svg" viewBox="0 0 211.18 179.68"><defs><style>.cls-1{fill:#00d3a9;}.cls-2{fill:#00b39f;}.cls-3{fill:#fff;}</style></defs><title>meshery-logo-white-text</title><polygon class="cls-1" points="107.61 31.82 107.61 64.07 135.56 47.89 107.61 31.82"/><polygon class="cls-1" points="107.61 70.81 107.61 103.22 135.81 87.09 107.61 70.81"/><polygon class="cls-2" points="103.58 63.85 103.58 32.09 75.98 47.92 103.58 63.85"/><path class="cls-2" d="M48.21,103.1a67.82,67.82,0,0,0,21.42,21.55V90.71Z"/><polygon class="cls-2" points="103.58 103.06 103.58 71.05 75.91 87.07 103.58 103.06"/><polygon class="cls-1" points="73.65 122.63 101.67 106.61 73.65 90.41 73.65 122.63"/><polygon class="cls-2" points="137.73 122.8 137.73 90.63 109.75 106.63 137.73 122.8"/><path class="cls-2" d="M165.14,99.37a67.22,67.22,0,0,0,7.92-28.94L143.89,87.11Z"/><polygon class="cls-1" points="141.75 83.69 169.87 67.61 141.75 51.45 141.75 83.69"/><polygon class="cls-2" points="137.73 44.5 137.73 12.52 109.88 28.49 137.73 44.5"/><polygon class="cls-2" points="137.73 83.55 137.73 51.28 109.81 67.44 137.73 83.55"/><polygon class="cls-2" points="105.59 135.02 105.6 135.02 105.59 135.02 105.59 135.02"/><polygon class="cls-1" points="73.65 51.22 73.65 83.73 101.77 67.45 73.65 51.22"/><path class="cls-2" d="M103.58,0A67.15,67.15,0,0,0,74,7.83l29.63,17Z"/><polygon class="cls-1" points="73.65 12.3 73.65 44.62 101.8 28.48 73.65 12.3"/><path class="cls-2" d="M69.63,10.34A67.92,67.92,0,0,0,48.21,31.89L69.63,44.25Z"/><path class="cls-1" d="M137.54,8a67.22,67.22,0,0,0-29.93-8V25.15Z"/><path class="cls-1" d="M38.11,69.87a67.15,67.15,0,0,0,8.08,29.76L67.88,87.07Z"/><path class="cls-1" d="M46.18,35.37A67.16,67.16,0,0,0,38.12,65L67.91,47.91Z"/><path class="cls-2" d="M73.89,127.13A67.13,67.13,0,0,0,103.58,135V110.15Z"/><path class="cls-1" d="M163,32a67.69,67.69,0,0,0-21.28-21.52V44.3Z"/><path class="cls-1" d="M141.75,124.54a68,68,0,0,0,21.38-21.68L141.75,90.52Z"/><path class="cls-2" d="M173.07,64.81a67.2,67.2,0,0,0-8-29.35L143.61,47.88Z"/><path class="cls-1" d="M107.61,135a67.11,67.11,0,0,0,29.62-7.83L107.61,110Z"/><polygon class="cls-2" points="69.63 83.44 69.63 51.56 41.94 67.43 69.63 83.44"/><polygon class="cls-3" points="130.92 157.85 130.92 158.95 130.92 164.13 130.92 170.46 130.92 179.68 155.49 179.68 155.49 174.5 136.11 174.5 136.11 170.46 136.11 169.32 151 169.32 151 164.13 136.11 164.13 136.11 158.95 155.49 158.95 155.49 153.76 130.92 153.76 130.92 157.85"/><polygon class="cls-3" points="36.4 157.85 36.4 158.95 36.4 164.13 36.4 170.46 36.4 179.68 60.97 179.68 60.97 174.5 41.59 174.5 41.59 170.46 41.59 169.32 56.48 169.32 56.48 164.13 41.59 164.13 41.59 158.95 60.97 158.95 60.97 153.76 36.4 153.76 36.4 157.85"/><path class="cls-3" d="M95,172.91a6.48,6.48,0,0,1-.54,2.63A6.62,6.62,0,0,1,93,177.7a7.13,7.13,0,0,1-2.16,1.45,6.56,6.56,0,0,1-2.64.53H63.92v-5.46H88.18a1.3,1.3,0,0,0,1.31-1.31V170.8a1.23,1.23,0,0,0-.38-.93,1.27,1.27,0,0,0-.93-.38H70.73A6.45,6.45,0,0,1,68.1,169a6.76,6.76,0,0,1-3.64-3.64,6.48,6.48,0,0,1-.54-2.63v-2.11a6.56,6.56,0,0,1,.54-2.64,6.81,6.81,0,0,1,1.46-2.16,7.1,7.1,0,0,1,2.18-1.47,6.45,6.45,0,0,1,2.63-.54H95v5.5H70.73a1.31,1.31,0,0,0-.94.38,1.27,1.27,0,0,0-.38.93v2.11A1.3,1.3,0,0,0,70.73,164H88.18a6.56,6.56,0,0,1,2.64.54A7,7,0,0,1,93,166a6.84,6.84,0,0,1,1.47,2.16A6.56,6.56,0,0,1,95,170.8Z"/><path class="cls-3" d="M127.68,179.68h-4.94V169.49H103.46v10.19H98.52V164h24.22V153.76h4.94Zm-24.22-18.12H98.52v-7.8h4.94Z"/><polygon class="cls-3" points="198.22 162.84 191.74 153.76 185.26 153.76 195.63 169.32 195.63 179.68 200.81 179.68 200.81 169.32 211.18 153.76 204.78 153.76 198.22 162.84"/><path class="cls-3" d="M164.31,158.71H177.6v5.39H166.9V169h2.45l9.4,10.64h6.4L175.75,169h3.67a4,4,0,0,0,4-4v-7.23a4,4,0,0,0-4-4H159.23v25.92h5.19Z"/><path class="cls-3" d="M32.42,179.68h-5.5v-18.9a1.48,1.48,0,0,0-.12-.59,1.6,1.6,0,0,0-.81-.81,1.48,1.48,0,0,0-.59-.12H0v-5.5H25.4a6.71,6.71,0,0,1,2.71.56,7.27,7.27,0,0,1,2.25,1.5,7.39,7.39,0,0,1,1.5,2.25,6.71,6.71,0,0,1,.56,2.71Zm-26.93,0H0V159.26l5.49-1.51Zm13.45,0h-5.5V162.14h5.5Z"/></svg>