<svg id="Layer_1" data-name="Layer 1" xmlns="http://www.w3.org/2000/svg" viewBox="0 0 310.74 80.17"><defs><style>.cls-1{fill:#00d3a9;}.cls-2{fill:#00b39f;}.cls-3,.cls-4{fill:#fff;}.cls-4{font-size:6.46px;font-family:Poppins-Regular, Poppins;letter-spacing:0.7em;}</style></defs><title>meshery-logo-tag-light-white-text-side</title><polygon class="cls-1" points="41.26 18.9 41.26 38.04 57.86 28.43 41.26 18.9"/><polygon class="cls-1" points="41.26 42.05 41.26 61.29 58.01 51.71 41.26 42.05"/><polygon class="cls-2" points="38.87 37.91 38.87 19.06 22.48 28.45 38.87 37.91"/><path class="cls-2" d="M6,61.22A40.35,40.35,0,0,0,18.71,74V53.86Z"/><polygon class="cls-2" points="38.87 61.2 38.87 42.19 22.44 51.7 38.87 61.2"/><polygon class="cls-1" points="21.1 72.81 37.74 63.3 21.1 53.68 21.1 72.81"/><polygon class="cls-2" points="59.15 72.92 59.15 53.81 42.53 63.31 59.15 72.92"/><path class="cls-2" d="M75.42,59a39.88,39.88,0,0,0,4.71-17.18l-17.32,9.9Z"/><polygon class="cls-1" points="61.54 49.7 78.23 40.15 61.54 30.55 61.54 49.7"/><polygon class="cls-2" points="59.15 26.42 59.15 7.43 42.61 16.91 59.15 26.42"/><polygon class="cls-2" points="59.15 49.61 59.15 30.45 42.57 40.05 59.15 49.61"/><polygon class="cls-2" points="40.07 80.17 40.07 80.17 40.07 80.17 40.07 80.17"/><polygon class="cls-1" points="21.1 30.41 21.1 49.72 37.8 40.05 21.1 30.41"/><path class="cls-2" d="M38.87,0A40,40,0,0,0,21.28,4.65L38.87,14.77Z"/><polygon class="cls-1" points="21.1 7.31 21.1 26.49 37.81 16.91 21.1 7.31"/><path class="cls-2" d="M18.71,6.14A40.28,40.28,0,0,0,6,18.94l12.72,7.34Z"/><path class="cls-1" d="M59,4.74A40,40,0,0,0,41.26,0V14.93Z"/><path class="cls-1" d="M0,41.48A40,40,0,0,0,4.79,59.16L17.67,51.7Z"/><path class="cls-1" d="M4.79,21A40,40,0,0,0,0,38.58L17.69,28.45Z"/><path class="cls-2" d="M21.24,75.49a39.88,39.88,0,0,0,17.63,4.66V65.41Z"/><path class="cls-1" d="M74.17,19A40.24,40.24,0,0,0,61.54,6.21v20.1Z"/><path class="cls-1" d="M61.54,74A40.34,40.34,0,0,0,74.23,61.07L61.54,53.75Z"/><path class="cls-2" d="M80.13,38.48a39.88,39.88,0,0,0-4.76-17.42L62.64,28.43Z"/><path class="cls-1" d="M41.26,80.15a39.79,39.79,0,0,0,17.59-4.64L41.26,65.34Z"/><polygon class="cls-2" points="18.71 49.54 18.71 30.61 2.27 40.04 18.71 49.54"/><polygon class="cls-3" points="228 30.98 228 32.11 228 37.46 228 43.98 228 53.49 253.33 53.49 253.33 48.15 233.34 48.15 233.34 43.98 233.34 42.8 248.7 42.8 248.7 37.46 233.34 37.46 233.34 32.11 253.33 32.11 253.33 26.77 228 26.77 228 30.98"/><polygon class="cls-3" points="130.54 30.98 130.54 32.11 130.54 37.46 130.54 43.98 130.54 53.49 155.88 53.49 155.88 48.15 135.89 48.15 135.89 43.98 135.89 42.8 151.25 42.8 151.25 37.46 135.89 37.46 135.89 32.11 155.88 32.11 155.88 26.77 130.54 26.77 130.54 30.98"/><path class="cls-3" d="M191,46.51a6.71,6.71,0,0,1-.56,2.71,6.83,6.83,0,0,1-1.51,2.22,7.29,7.29,0,0,1-2.23,1.5,6.75,6.75,0,0,1-2.72.55h-25V47.86h25a1.33,1.33,0,0,0,1.35-1.35V44.33A1.33,1.33,0,0,0,183.93,43h-18a6.62,6.62,0,0,1-2.7-.55,7.11,7.11,0,0,1-3.76-3.76,6.71,6.71,0,0,1-.56-2.71V33.79a6.84,6.84,0,0,1,.56-2.73A7.39,7.39,0,0,1,161,28.83a7.12,7.12,0,0,1,2.25-1.51,6.62,6.62,0,0,1,2.7-.55h25v5.66h-25a1.28,1.28,0,0,0-1,.4,1.3,1.3,0,0,0-.39,1V36a1.33,1.33,0,0,0,1.35,1.35h18a6.76,6.76,0,0,1,2.72.56,7,7,0,0,1,2.23,1.51,7.09,7.09,0,0,1,1.51,2.23,6.76,6.76,0,0,1,.56,2.72Z"/><path class="cls-3" d="M224.65,53.49h-5.09V43H199.68V53.49h-5.09V37.31h25V26.77h5.09Zm-25-18.68h-5.09v-8h5.09Z"/><polygon class="cls-3" points="297.38 36.12 290.7 26.77 284.02 26.77 294.71 42.8 294.71 53.49 300.06 53.49 300.06 42.8 310.74 26.77 304.15 26.77 297.38 36.12"/><path class="cls-3" d="M262.42,31.86h13.71v5.56h-11v5.1h2.53l9.69,11h6.6l-9.69-11H278a4.15,4.15,0,0,0,4.15-4.15V30.92A4.15,4.15,0,0,0,278,26.77H257.19V53.49h5.34Z"/><path class="cls-3" d="M126.43,53.49h-5.66V34a1.46,1.46,0,0,0-.13-.61,1.63,1.63,0,0,0-.33-.49,1.53,1.53,0,0,0-.5-.34,1.42,1.42,0,0,0-.61-.13H93V26.77H119.2a7,7,0,0,1,2.8.57,7.2,7.2,0,0,1,3.86,3.86,7,7,0,0,1,.57,2.8Zm-27.75,0H93V32.43l5.67-1.55Zm13.86,0h-5.67V35.4h5.67Z"/><g id="_Group_" data-name="&lt;Group&gt;"><text class="cls-4" transform="translate(111.74 62.9)">THE MULTI-MESH MANAGER</text></g></svg>