<svg id="Layer_1" data-name="Layer 1" xmlns="http://www.w3.org/2000/svg" viewBox="0 0 550 550"><defs><style>.cls-1{opacity:0.4;}.cls-2{fill:#fff;}.cls-3{opacity:0.8;}.cls-4{opacity:0.2;}.cls-5{opacity:0.6;}</style></defs><title>smp-white-text</title><g id="Gauge-3" data-name="Gauge"><g class="cls-1"><path class="cls-2" d="M139,145.94a284,284,0,0,1,31.8-14.4l-2.7-13.3a324.4,324.4,0,0,0-33.5,19Z"/></g><g class="cls-3"><path class="cls-2" d="M343.68,124.24l27.5-31a314.16,314.16,0,0,0-53.7-6.9l-16,29.2A297.91,297.91,0,0,1,343.68,124.24Z"/></g><g class="cls-1"><path class="cls-2" d="M132.68,149.24l-4-8.1c-8.3,5.7-16.4,11.8-24.1,18.2l4.2,5C116.58,158.94,124.58,153.94,132.68,149.24Z"/></g><path class="cls-2" d="M396.88,145.74l41.2-29.1A295.56,295.56,0,0,0,379,95l-27.9,31.4A288.23,288.23,0,0,1,396.88,145.74Z"/><g class="cls-4"><path class="cls-2" d="M103.08,168.44l-3.8-4.6a272.51,272.51,0,0,0-20.6,19.6l3,2.4C88.58,179.74,95.68,173.94,103.08,168.44Z"/></g><path class="cls-2" d="M445.08,120.24l-41.3,29.2a302.21,302.21,0,0,1,50.1,35.7l53.7-20.9A299.43,299.43,0,0,0,445.08,120.24Z"/><g class="cls-4"><path class="cls-2" d="M73.68,188.54a339,339,0,0,0-29,36.5,295.78,295.78,0,0,1,31.7-34.4Z"/></g><g class="cls-5"><path class="cls-2" d="M219,98.44l-1.1,19.8a276.24,276.24,0,0,1,31.8-4l6.9-24.2A335.64,335.64,0,0,0,219,98.44Z"/></g><g class="cls-3"><path class="cls-2" d="M257.08,113.84c3.6-.1,7.3-.2,11-.2,8.7,0,17.4.4,25.9,1.2l15.6-28.6a311.54,311.54,0,0,0-45.5,2.7Z"/></g><g class="cls-5"><path class="cls-2" d="M177.28,129a272.38,272.38,0,0,1,33.5-9.4l1.1-19a300.05,300.05,0,0,0-37.3,14.5Z"/></g></g><g id="Title"><path class="cls-2" d="M338.05,451.51H320V388.92a3.85,3.85,0,0,0-.31-1.84,3.05,3.05,0,0,0-1.23-1.54,6.58,6.58,0,0,0-1.53-1.22A3.87,3.87,0,0,0,315,384H231.28v-18.1h83.45a22,22,0,0,1,8.9,1.84A22.59,22.59,0,0,1,335.9,380a22,22,0,0,1,1.84,8.9v62.59Zm-88.67,0h-18.1V384h18.1Zm43.57,0h-18.1v-58H293Z"/><path class="cls-2" d="M215.94,429.11a20.53,20.53,0,0,1-1.84,8.59,19.48,19.48,0,0,1-4.91,7.06,22.47,22.47,0,0,1-7.05,4.9,20.62,20.62,0,0,1-8.6,1.85H113.47V433.4h80.07a4.19,4.19,0,0,0,4.3-4.29v-7.06a4.2,4.2,0,0,0-4.3-4.29H135.87a20.69,20.69,0,0,1-8.59-1.84,19.48,19.48,0,0,1-7.06-4.91,26.6,26.6,0,0,1-4.91-7.06,20.53,20.53,0,0,1-1.84-8.59v-7.05a22,22,0,0,1,6.75-15.65,26.6,26.6,0,0,1,7.06-4.91,20.53,20.53,0,0,1,8.59-1.84h80.07V384H135.87a4.2,4.2,0,0,0-4.3,4.3v7.05a4.2,4.2,0,0,0,4.3,4.3h57.67a19.61,19.61,0,0,1,8.6,1.84,19.32,19.32,0,0,1,7.05,4.91,22.39,22.39,0,0,1,4.91,7,20.56,20.56,0,0,1,1.84,8.59Z"/><path class="cls-2" d="M422.11,416.22h1.23A13.09,13.09,0,0,0,436.53,403V379.1a13.09,13.09,0,0,0-13.19-13.19H356.46v85.6h17.18l-.31-69.34H417.2v17.49H381.92v16.56"/></g><g id="Needle" class="cls-3"><path class="cls-2" d="M251.22,255.34a21.17,21.17,0,1,0,19.4,22.8A21.18,21.18,0,0,0,251.22,255.34Zm-2.3,29.8a8.73,8.73,0,1,1,9.4-8A8.8,8.8,0,0,1,248.92,285.14Z"/><path class="cls-2" d="M316.42,163.74c-2.6,1.8-5,3.7-7.5,5.6l-9.3,14.8-18.7,29.5-18.7,29.5-4.7,7.4-2.3,3.7A11.27,11.27,0,0,1,254,256a5.17,5.17,0,0,0-1.2,1.8c-.7,3-1.3,6-1.9,9.1a2.77,2.77,0,0,0-.1.9,8.59,8.59,0,0,1,6.1,3.9,5.58,5.58,0,0,1,.8-.5c2.6-1.8,5-3.7,7.5-5.6a4.53,4.53,0,0,0,1.1-1.9,18.58,18.58,0,0,1,1.1-1.9l2.3-3.7,4.7-7.4,18.7-29.5,18.7-29.5,9.3-14.8c.7-3,1.3-6.1,1.9-9.2s1-6.2,1.4-9.4C321.62,160.14,318.92,161.84,316.42,163.74Z"/></g></svg>