<svg id="Layer_1" data-name="Layer 1" xmlns="http://www.w3.org/2000/svg" viewBox="0 0 480 320"><defs><style>.cls-1{fill:#647881;}.cls-2{fill:#00b39f;}.cls-3{fill:#00d3a9;}.cls-4{fill:#9fbfcd;}.cls-5{fill:#477e96;}.cls-6{fill:#fff;}</style></defs><g id="Gauge-2" data-name="Gauge"><path class="cls-1" d="M102.6,64.81a284,284,0,0,1,31.8-14.4l-2.7-13.3a324.4,324.4,0,0,0-33.5,19Z"/><path class="cls-2" d="M307.3,43.11l27.5-31a314.16,314.16,0,0,0-53.7-6.9l-16,29.2A297.91,297.91,0,0,1,307.3,43.11Z"/><path class="cls-1" d="M96.3,68.11l-4-8.1c-8.3,5.7-16.4,11.8-24.1,18.2l4.2,5C80.2,77.81,88.2,72.81,96.3,68.11Z"/><path class="cls-3" d="M360.5,64.61l41.2-29.1a295.56,295.56,0,0,0-59.1-21.6l-27.9,31.4A288.23,288.23,0,0,1,360.5,64.61Z"/><path class="cls-4" d="M66.7,87.31l-3.8-4.6a272.51,272.51,0,0,0-20.6,19.6l3,2.4C52.2,98.61,59.3,92.81,66.7,87.31Z"/><path class="cls-3" d="M408.7,39.11l-41.3,29.2A302.21,302.21,0,0,1,417.5,104l53.7-20.9A299.43,299.43,0,0,0,408.7,39.11Z"/><path class="cls-4" d="M37.3,107.41a339,339,0,0,0-29,36.5A295.78,295.78,0,0,1,40,109.51Z"/><path class="cls-5" d="M182.6,17.31l-1.1,19.8a276.24,276.24,0,0,1,31.8-4l6.9-24.2A335.64,335.64,0,0,0,182.6,17.31Z"/><path class="cls-2" d="M220.7,32.71c3.6-.1,7.3-.2,11-.2,8.7,0,17.4.4,25.9,1.2l15.6-28.6a311.54,311.54,0,0,0-45.5,2.7Z"/><path class="cls-5" d="M140.9,47.91a272.38,272.38,0,0,1,33.5-9.4l1.1-19A300.05,300.05,0,0,0,138.2,34Z"/></g><g id="Needle"><path class="cls-6" d="M214.83,174.21a21.17,21.17,0,1,0,19.4,22.8A21.18,21.18,0,0,0,214.83,174.21Zm-2.3,29.8a8.73,8.73,0,1,1,9.4-8A8.8,8.8,0,0,1,212.53,204Z"/><path class="cls-6" d="M280,82.61c-2.6,1.8-5,3.7-7.5,5.6l-9.3,14.8-18.7,29.5L225.83,162l-4.7,7.4-2.3,3.7a11.27,11.27,0,0,1-1.2,1.8,5.17,5.17,0,0,0-1.2,1.8c-.7,3-1.3,6-1.9,9.1a2.77,2.77,0,0,0-.1.9,8.59,8.59,0,0,1,6.1,3.9,5.58,5.58,0,0,1,.8-.5c2.6-1.8,5-3.7,7.5-5.6a4.53,4.53,0,0,0,1.1-1.9,18.58,18.58,0,0,1,1.1-1.9l2.3-3.7,4.7-7.4,18.7-29.5,18.7-29.5,9.3-14.8c.7-3,1.3-6.1,1.9-9.2s1-6.2,1.4-9.4C285.23,79,282.53,80.71,280,82.61Z"/></g><polygon class="cls-6" points="77.06 267.78 77.06 269.78 77.06 279.18 77.06 290.66 77.06 307.4 121.64 307.4 121.64 298 86.46 298 86.46 290.66 86.46 288.59 113.49 288.59 113.49 279.18 86.46 279.18 86.46 269.78 121.64 269.78 121.64 260.37 77.06 260.37 77.06 267.78"/><path class="cls-6" d="M183.36,295.11a11.79,11.79,0,0,1-1,4.77,12.26,12.26,0,0,1-2.66,3.92,13,13,0,0,1-3.92,2.63,12,12,0,0,1-4.8,1H127v-9.9h44a2.37,2.37,0,0,0,2.38-2.39v-3.82A2.36,2.36,0,0,0,171,288.9H139.34a11.79,11.79,0,0,1-4.77-1,12.78,12.78,0,0,1-3.95-2.66,12.61,12.61,0,0,1-2.66-3.95,11.79,11.79,0,0,1-1-4.77v-3.83a11.92,11.92,0,0,1,1-4.79,12.58,12.58,0,0,1,6.61-6.59,11.79,11.79,0,0,1,4.77-1h44v10h-44a2.36,2.36,0,0,0-2.38,2.38v3.83a2.36,2.36,0,0,0,2.38,2.38H171a12.18,12.18,0,0,1,4.8,1,12.66,12.66,0,0,1,6.58,6.59,11.94,11.94,0,0,1,1,4.8Z"/><path class="cls-6" d="M242.69,307.4h-9V288.9h-35v18.5h-9V278.93h43.95V260.37h9Zm-43.95-32.88h-9V260.37h9Z"/><path class="cls-6" d="M69.82,307.4h-10V273.1a2.6,2.6,0,0,0-.22-1.07,2.73,2.73,0,0,0-.59-.87,2.93,2.93,0,0,0-.88-.6,2.6,2.6,0,0,0-1.07-.22H11v-10H57.09a12.19,12.19,0,0,1,4.92,1,12.62,12.62,0,0,1,6.81,6.81,12.23,12.23,0,0,1,1,4.92ZM21,307.4H11V270.34H21Zm24.39,0h-10V275.56h10Z"/><path class="cls-6" d="M308.32,307.4h-10V273.1a2.77,2.77,0,0,0-.22-1.07,2.94,2.94,0,0,0-.6-.87,2.7,2.7,0,0,0-.88-.6,2.55,2.55,0,0,0-1.06-.22h-46.1v-10h46.1a12.26,12.26,0,0,1,4.92,1,12.56,12.56,0,0,1,6.8,6.81,12.24,12.24,0,0,1,1,4.92Zm-48.85,0h-10V270.34h10Zm24.39,0h-10V275.56h10Z"/><polygon class="cls-6" points="333.11 260.37 314.3 307.4 325.03 307.4 337.82 274.48 346.93 298 331.3 298 327.79 307.4 361.33 307.4 342.52 260.37 333.11 260.37"/><path class="cls-6" d="M377,269.4h24v9.74H379.57l.09,8.93h6.43l17,19.23h11.56l-17-19.23h6.63a7.27,7.27,0,0,0,7.27-7.27V267.74a7.28,7.28,0,0,0-7.27-7.27H367.8V307.3h9.37Z"/><polyline class="cls-6" points="468.48 260.37 455.26 260.37 430.29 281.34 430.29 260.4 421 260.4 421 307.4 430.29 307.4 430.29 293.84"/><polygon class="cls-6" points="447.37 283.09 469 307.4 455.66 307.4 439.71 289.53 447.37 283.09"/></svg>