<svg id="Layer_1" data-name="Layer 1" xmlns="http://www.w3.org/2000/svg" viewBox="0 0 480 320"><defs><style>.cls-1{fill:#3c494e;}.cls-2{fill:#647881;}.cls-3{fill:#00b39f;}.cls-4{fill:#00d3a9;}.cls-5{fill:#477e96;}.cls-6{fill:#3c494f;}</style></defs><g id="Needle"><path class="cls-1" d="M217.89,177.16a21.17,21.17,0,1,0,19.4,22.8A21.18,21.18,0,0,0,217.89,177.16Zm-2.3,29.8a8.73,8.73,0,1,1,9.4-8A8.8,8.8,0,0,1,215.59,207Z"/><path class="cls-1" d="M283.09,85.56c-2.6,1.8-5,3.7-7.5,5.6l-9.3,14.8-18.7,29.5L228.89,165l-4.7,7.4-2.3,3.7a11.27,11.27,0,0,1-1.2,1.8,5.17,5.17,0,0,0-1.2,1.8c-.7,3-1.3,6-1.9,9.1a2.77,2.77,0,0,0-.1.9,8.59,8.59,0,0,1,6.1,3.9,5.58,5.58,0,0,1,.8-.5c2.6-1.8,5-3.7,7.5-5.6a4.53,4.53,0,0,0,1.1-1.9,18.58,18.58,0,0,1,1.1-1.9l2.3-3.7,4.7-7.4,18.7-29.5,18.7-29.5,9.3-14.8c.7-3,1.3-6.1,1.9-9.2s1-6.2,1.4-9.4C288.29,82,285.59,83.66,283.09,85.56Z"/></g><g id="Gauge-2" data-name="Gauge"><path class="cls-2" d="M105.66,67.76a284,284,0,0,1,31.8-14.4l-2.7-13.3a324.4,324.4,0,0,0-33.5,19Z"/><path class="cls-3" d="M310.36,46.06l27.5-31a314.16,314.16,0,0,0-53.7-6.9l-16,29.2A297.91,297.91,0,0,1,310.36,46.06Z"/><path class="cls-2" d="M99.36,71.06l-4-8.1c-8.3,5.7-16.4,11.8-24.1,18.2l4.2,5C83.26,80.76,91.26,75.76,99.36,71.06Z"/><path class="cls-4" d="M363.56,67.56l41.2-29.1a295.56,295.56,0,0,0-59.1-21.6l-27.9,31.4A288.23,288.23,0,0,1,363.56,67.56Z"/><path class="cls-1" d="M69.76,90.26,66,85.66a272.51,272.51,0,0,0-20.6,19.6l3,2.4C55.26,101.56,62.36,95.76,69.76,90.26Z"/><path class="cls-4" d="M411.76,42.06l-41.3,29.2a302.21,302.21,0,0,1,50.1,35.7l53.7-20.9A299.43,299.43,0,0,0,411.76,42.06Z"/><path class="cls-1" d="M40.36,110.36a339,339,0,0,0-29,36.5,295.78,295.78,0,0,1,31.7-34.4Z"/><path class="cls-5" d="M185.66,20.26l-1.1,19.8a276.24,276.24,0,0,1,31.8-4l6.9-24.2A335.64,335.64,0,0,0,185.66,20.26Z"/><path class="cls-3" d="M223.76,35.66c3.6-.1,7.3-.2,11-.2,8.7,0,17.4.4,25.9,1.2l15.6-28.6a311.54,311.54,0,0,0-45.5,2.7Z"/><path class="cls-5" d="M144,50.86a272.38,272.38,0,0,1,33.5-9.4l1.1-19A300.05,300.05,0,0,0,141.26,37Z"/></g><polygon class="cls-6" points="80.11 271.51 80.11 273.51 80.11 282.92 80.11 294.39 80.11 311.14 124.7 311.14 124.7 301.73 89.52 301.73 89.52 294.39 89.52 292.33 116.55 292.33 116.55 282.92 89.52 282.92 89.52 273.51 124.7 273.51 124.7 264.11 80.11 264.11 80.11 271.51"/><path class="cls-6" d="M186.42,298.85a11.71,11.71,0,0,1-1,4.76,12.07,12.07,0,0,1-2.67,3.92,12.89,12.89,0,0,1-3.92,2.64,11.94,11.94,0,0,1-4.8,1H130v-9.91h44a2.36,2.36,0,0,0,2.39-2.38V295a2.36,2.36,0,0,0-2.39-2.38H142.4a11.73,11.73,0,0,1-4.77-1,12.64,12.64,0,0,1-3.95-2.67,12.33,12.33,0,0,1-2.66-3.95,11.72,11.72,0,0,1-1-4.76v-3.83a12,12,0,0,1,1-4.8,12.51,12.51,0,0,1,6.61-6.58,11.73,11.73,0,0,1,4.77-1h44v10h-44a2.36,2.36,0,0,0-2.39,2.38v3.83a2.36,2.36,0,0,0,2.39,2.38h31.66a11.94,11.94,0,0,1,4.8,1,12.73,12.73,0,0,1,6.59,6.59,11.92,11.92,0,0,1,1,4.79Z"/><path class="cls-6" d="M245.74,311.14h-9v-18.5h-35v18.5h-9V282.67h43.94V264.11h9ZM201.8,278.25h-9V264.11h9Z"/><path class="cls-6" d="M72.88,311.14h-10v-34.3a2.77,2.77,0,0,0-.22-1.07,3,3,0,0,0-.6-.88,2.67,2.67,0,0,0-.88-.59,2.55,2.55,0,0,0-1.06-.22H14.06v-10H60.15a12.26,12.26,0,0,1,4.92,1,12.59,12.59,0,0,1,6.8,6.8,12.28,12.28,0,0,1,1,4.93Zm-48.85,0h-10V274.08H24Zm24.39,0h-10V279.3h10Z"/><path class="cls-6" d="M311.37,311.14h-10v-34.3a2.6,2.6,0,0,0-.22-1.07,2.74,2.74,0,0,0-1.47-1.47,2.6,2.6,0,0,0-1.07-.22H252.55v-10h46.09a12.28,12.28,0,0,1,4.93,1,12.67,12.67,0,0,1,6.8,6.8,12.28,12.28,0,0,1,1,4.93Zm-48.85,0h-10V274.08h10Zm24.4,0h-10V279.3h10Z"/><polygon class="cls-6" points="336.17 264.11 317.36 311.14 328.09 311.14 340.87 278.22 349.99 301.73 334.35 301.73 330.84 311.14 364.39 311.14 345.58 264.11 336.17 264.11"/><path class="cls-6" d="M380,273.14h24v9.74H382.63l.09,8.93h6.42l17,19.23h11.56l-17-19.23h6.63a7.28,7.28,0,0,0,7.28-7.27V271.48a7.27,7.27,0,0,0-7.28-7.27H370.86V311h9.37Z"/><polyline class="cls-1" points="471.53 264.11 458.32 264.11 433.34 285.08 433.34 264.13 424.06 264.13 424.06 311.14 433.34 311.14 433.34 297.57"/><polygon class="cls-1" points="450.42 286.83 472.06 311.14 458.71 311.14 442.77 293.27 450.42 286.83"/></svg>