<svg xmlns="http://www.w3.org/2000/svg" xmlns:xlink="http://www.w3.org/1999/xlink" id="Layer_1" x="0" y="0" version="1.1" viewBox="0 0 972.8 486.1" xml:space="preserve" style="enable-background:new 0 0 972.8 486.1"><style type="text/css">.st0{fill:none}.st1{fill:#00b39f}.st2{fill:#00d3a9}.st3{fill:#464646}.st4{fill:#3c494e}</style><g><path d="M490.5,527.1c79,0,134.9,8.2,134.9-56.5c0-53.8-44.3-99.1-104.6-112.9l-65.6,169.7 C466.7,527.3,478.5,527.1,490.5,527.1z" class="st0"/><path d="M339.3,470.6c0,54.9,51.9,57.3,115.9,56.8l65.6-169.7c-12.2-2.8-25.1-4.3-38.4-4.3 C403.4,353.5,339.3,405.9,339.3,470.6z" class="st0"/></g><g><path d="M607,477.9c0,44-29.6,49.3-75.3,49.5c55,0.2,91.6-3.8,93.6-52.5h-18.4C607,476,607,477,607,477.9z" class="st0"/><path d="M559,371.7l-1.8,5.4c-3,9,0.2,18.9,7.9,24.5c24.9,18.1,40.8,44.2,41.8,73.4h18.4c0.1-1.4,0.1-2.9,0.1-4.3 C625.4,429,598.9,392.5,559,371.7z" class="st0"/><path d="M454.3,378.5c7.5-1.4,13.8-6.4,16.8-13.3l5.1-11.5c-76.2,2.6-136.9,54-136.9,117c0,1.5,0,2.9,0.1,4.3h18.4 C359.4,427.8,400.1,388.7,454.3,378.5z" class="st0"/><path d="M357.7,477.9c0-1,0-2,0.1-3h-18.4c2.6,48.3,49,52.6,107.2,52.5C396.6,527.3,357.7,522.3,357.7,477.9z" class="st0"/><path d="M339.3,470.6c0-63,60.8-114.4,136.9-117L603.5,63c7.9-20.5,22.6-32.8,41-25.6l0,0c0,0,0,0,0.1,0l0-0.1 C595,21.2,541.6,12.5,486,12.5C222,12.5,8,209.2,8,452c0,7.7,0.2,15.4,0.7,23h330.8C339.4,473.6,339.3,472.1,339.3,470.6z" class="st1"/><path d="M655.5,83L559,371.7c39.9,20.8,66.4,57.3,66.4,98.9c0,1.5,0,2.9-0.1,4.3h338c0.4-7.6,0.6-15.3,0.6-23 c0-191.6-133.3-354.5-319.3-414.7l0,0.1C662,44.1,663,63.7,655.5,83z" class="st2"/><path d="M446.7,527.5c2.8,0,5.7,0,8.5,0l0,0C452.3,527.4,449.5,527.5,446.7,527.5z" class="st3"/><path d="M559,371.7L655.5,83c7.5-19.3,6.5-38.8-10.9-45.6c0,0,0,0-0.1,0l0,0c-18.5-7.1-33.1,5.1-41,25.6L476.2,353.6 l-5.1,11.5c-3,7-9.4,11.9-16.8,13.3c-54.2,10.2-94.9,49.3-96.5,96.5h249.2c-1-29.2-17-55.3-41.8-73.4c-7.7-5.6-10.9-15.5-7.9-24.5 L559,371.7z" class="st4"/></g></svg>