<?xml version="1.0" encoding="utf-8"?>
<!-- Generator: Adobe Illustrator 22.0.1, SVG Export Plug-In . SVG Version: 6.00 Build 0)  -->
<svg version="1.1" id="Layer_1" xmlns="http://www.w3.org/2000/svg" xmlns:xlink="http://www.w3.org/1999/xlink" x="0px" y="0px"
	 viewBox="0 0 335.5 368.1" style="enable-background:new 0 0 335.5 368.1;" xml:space="preserve">
<style type="text/css">
	.st0{fill:#FFFFFF;}
	.st1{fill:#00D3A9;}
	.st2{fill:#00B39F;}
	.st3{opacity:0.5;}
	.st4{fill:#477E96;}
	.st5{fill:#647881;}
	.st6{font-family:'OpenSans-ExtraBold';}
	.st7{font-size:45px;}
	.st8{fill:#00B39F;stroke:#00D3A9;stroke-width:3;stroke-miterlimit:10;}
</style>
<title></title>
<g id="Layer_2_1_">
	<g id="Layer_1-2">
		<path class="st0" d="M44.3,12.2h192.2c20.1,0,36.4,16.3,36.4,36.4v277.2c0,20.1-16.3,36.4-36.4,36.4H44.3
			c-20.1,0-36.4-16.3-36.4-36.4V48.6C7.9,28.5,24.2,12.2,44.3,12.2z"/>
		<path class="st1" d="M5.2,326.2V304c0,20.8,16.8,37.6,37.6,37.6c0,0,0,0,0,0h195c20.8,0,37.6-16.8,37.6-37.6v22.1
			c0,20.8-16.8,37.6-37.6,37.6h-195C22,363.7,5.2,346.9,5.2,326.2z"/>
		<path class="st2" d="M238.6,368.1h-195C19.5,368,0,348.6,0,324.5V43.6C0,19.5,19.5,0,43.6,0h195c24.1,0,43.6,19.5,43.6,43.6V123
			h-12V43.6c0-17.5-14.2-31.6-31.6-31.6h-195C26.1,12,12,26.2,12,43.6v280.9c0,17.4,14.2,31.6,31.6,31.6h195
			c17.4,0,31.6-14.2,31.6-31.6v-44.6h12v44.6C282.1,348.6,262.6,368.1,238.6,368.1z"/>
		<rect x="57.5" y="162.4" class="st1" width="92" height="12"/>
		<rect x="57.5" y="191.4" class="st2" width="92" height="12"/>
		<rect x="57.5" y="220.4" class="st1" width="92" height="12"/>
		<g class="st3">
			<path class="st4" d="M38,36h34.8c3.9,0,3.9-6,0-6H38C34.1,30,34.1,36,38,36z"/>
			<path class="st4" d="M87.2,36h86.3c3.9,0,3.9-6,0-6H87.2C83.3,30,83.3,36,87.2,36z"/>
		</g>
		<text transform="matrix(1 0 0 1 55.385 102)" class="st5 st6 st7">POLICY</text>
		<rect x="57.5" y="249.4" class="st2" width="92" height="12"/>
	</g>
</g>
<g>
	<path class="st8" d="M327.4,191.5h-7.5c-5.1,0-9.9-1.9-13.6-5.7c-3.6-3.7-5.6-8.4-5.6-13.5c0-5.3,2.2-10.3,6.2-13.9l4.7-4.7
		c0.8-0.8,1.2-1.9,1.2-3c0-1.1-0.5-2.2-1.3-3l-11-10.9c-0.7-0.7-1.9-1.1-3.1-1.1c-1.1,0-2.3,0.4-3.1,1.1l-4.5,4.5
		c-3.8,4-8.8,6.2-14.1,6.2c-5.2,0-10-2-13.7-5.5c-3.8-3.7-5.9-8.5-5.9-13.6v-7.4c0-2.4-1.7-4.5-3.9-4.5H237c-2.2,0-4.2,2.1-4.2,4.5
		v7.5c0,5.2-2.1,9.9-5.8,13.6c-3.7,3.5-8.5,5.5-13.6,5.5c-5.3,0-10.3-2.1-13.9-6.2l-4.7-4.7l-0.1-0.1l-0.1-0.1
		c-0.7-0.7-1.8-1.1-3-1.1c-1.1,0-2.3,0.4-3.1,1.1l-10.8,11.1c-1.1,1.1-1.2,2.4-1.2,3s0.2,1.9,1.2,3l4.5,4.5c4,3.7,6.2,8.7,6.2,14
		c0,5.1-2,9.8-5.6,13.6c-3.7,3.8-8.5,5.7-13.6,5.7h-7.5c-2.5,0-4.5,2.1-4.5,4.3v7.5v7.5c0,2.2,2.1,4.3,4.5,4.3h7.5
		c5.1,0,9.9,1.9,13.6,5.7c3.6,3.7,5.6,8.4,5.6,13.5c0,5.3-2.2,10.3-6.2,14.1l-4.5,4.4c-1.6,1.6-1.6,4.4,0,6l11,11l0.1,0.1l0.1,0.1
		c0.7,0.7,1.8,1.1,3,1.1c1.1,0,2.3-0.4,3.1-1.1l4.6-4.6c3.6-3.9,8.6-6.2,13.9-6.2c5.1,0,9.9,2,13.6,5.5c3.8,3.7,5.7,8.5,5.7,13.6
		v7.5c0,2.4,2.1,4.5,4.3,4.5h15c2.3,0,4.4-2.1,4.4-4.5v-7.5c0-5.2,2-9.9,5.7-13.6c3.7-3.5,8.4-5.5,13.6-5.5c5.3,0,10.3,2.2,14.1,6.2
		l4.5,4.5c0.7,0.7,1.9,1.1,3.1,1.1c1.1,0,2.3-0.4,3.1-1.1l11-11c1.6-1.6,1.6-4.4,0-6.1l-4.7-4.7c-4-3.7-6.2-8.6-6.2-13.9
		c0-5.2,2-10,5.6-13.7c3.7-3.8,8.5-5.9,13.6-5.9h7.5c2.5,0,3.6-1.8,3.6-3.9v-7.5V196C331.1,193.9,330.1,191.5,327.4,191.5z
		 M283,240.3c-10.1,10.1-23.4,15.6-37.7,15.6c-14.2,0-27.7-5.5-37.7-15.6c-10.1-10.1-15.6-23.4-15.6-37.7c0-14.3,5.5-27.7,15.6-37.7
		c10.1-10.1,23.4-15.6,37.7-15.6c14.3,0,27.7,5.5,37.7,15.6c10.1,10.1,15.6,23.4,15.6,37.7C298.7,216.8,293.1,230.2,283,240.3z"/>
</g>
</svg>
