<svg width="797" height="342" viewBox="0 0 797 342" fill="none" xmlns="http://www.w3.org/2000/svg">
<path d="M5.85795 255.203L5.6582 255.083V255.004L5.77805 254.924L5.85795 255.203Z" fill="#ECECEC" stroke="black" stroke-width="0.2" stroke-linecap="round" stroke-linejoin="round"/>
<path d="M4.74219 254.365H4.86174L5.02114 254.485L5.14069 254.525L5.22039 254.365L5.33994 254.485L5.22039 254.605L5.26024 254.684L5.22039 254.764L5.14069 254.724L5.02114 254.605L4.74219 254.525V254.365Z" fill="#ECECEC" stroke="black" stroke-width="0.2" stroke-linecap="round" stroke-linejoin="round"/>
<path d="M4.42454 250.933L4.34464 250.973L4.30469 250.773L4.38459 250.813L4.42454 250.933Z" fill="#ECECEC" stroke="black" stroke-width="0.2" stroke-linecap="round" stroke-linejoin="round"/>
<path d="M6.17702 247.94L5.97727 248.06H5.89737L5.85742 248.02L5.97727 247.82L6.09712 247.86L6.17702 247.94Z" fill="#ECECEC" stroke="black" stroke-width="0.2" stroke-linecap="round" stroke-linejoin="round"/>
<path d="M0.558237 240.238L0.518287 240.278L0.398438 240.238L0.438388 240.158H0.558237V240.238Z" fill="#ECECEC" stroke="black" stroke-width="0.2" stroke-linecap="round" stroke-linejoin="round"/>
<path d="M191.036 76.574C191.789 76.574 192.434 76.3054 192.97 75.7683C193.507 75.2312 193.775 74.5863 193.774 73.8336C193.774 73.08 193.506 72.4346 192.969 71.8975C192.432 71.3604 191.788 71.0923 191.036 71.0932C190.283 71.0932 189.638 71.3618 189.102 71.8989C188.565 72.436 188.297 73.0809 188.298 73.8336C188.298 74.5872 188.566 75.2326 189.103 75.7697C189.64 76.3068 190.284 76.5749 191.036 76.574ZM191.036 90.2759C187.363 87.1473 184.619 84.2416 182.806 81.5588C180.992 78.8759 180.085 76.3922 180.084 74.1076C180.084 70.6822 181.185 67.9532 183.387 65.9207C185.59 63.8883 188.139 62.8721 191.036 62.8721C193.934 62.8721 196.484 63.8883 198.686 65.9207C200.888 67.9532 201.989 70.6822 201.988 74.1076C201.988 76.3913 201.081 78.875 199.267 81.5588C197.452 84.2425 194.709 87.1482 191.036 90.2759Z" fill="#00B39F"/>
</svg>
