<svg width="797" height="342" viewBox="0 0 797 342" fill="none" xmlns="http://www.w3.org/2000/svg">
<path d="M0.558237 240.238L0.518287 240.278L0.398438 240.238L0.438388 240.158H0.558237V240.238Z" fill="#ECECEC" stroke="black" stroke-width="0.2" stroke-linecap="round" stroke-linejoin="round"/>
<path d="M264.259 217.508C265.012 217.508 265.656 217.24 266.193 216.702C266.73 216.165 266.998 215.52 266.997 214.768C266.997 214.014 266.728 213.369 266.192 212.832C265.655 212.294 265.011 212.026 264.259 212.027C263.506 212.027 262.861 212.296 262.324 212.833C261.788 213.37 261.52 214.015 261.521 214.768C261.521 215.521 261.789 216.167 262.326 216.704C262.862 217.241 263.507 217.509 264.259 217.508ZM264.259 231.21C260.585 228.081 257.842 225.176 256.028 222.493C254.215 219.81 253.308 217.326 253.307 215.042C253.307 211.616 254.408 208.887 256.61 206.855C258.812 204.822 261.362 203.806 264.259 203.806C267.156 203.806 269.706 204.822 271.909 206.855C274.111 208.887 275.212 211.616 275.211 215.042C275.211 217.325 274.304 219.809 272.489 222.493C270.675 225.177 267.931 228.082 264.259 231.21Z" fill="#00B39F"/>
</svg>
