<svg width="797" height="342" viewBox="0 0 797 342" fill="none" xmlns="http://www.w3.org/2000/svg">
<path d="M0.558237 240.238L0.518287 240.278L0.398438 240.238L0.438388 240.158H0.558237V240.238Z" fill="#ECECEC" stroke="black" stroke-width="0.2" stroke-linecap="round" stroke-linejoin="round"/>
<path d="M690.452 258.849C691.205 258.849 691.85 258.58 692.387 258.043C692.923 257.506 693.191 256.861 693.19 256.109C693.19 255.355 692.922 254.71 692.385 254.172C691.848 253.635 691.204 253.367 690.452 253.368C689.699 253.368 689.054 253.637 688.518 254.174C687.981 254.711 687.713 255.356 687.714 256.109C687.714 256.862 687.982 257.507 688.519 258.045C689.056 258.582 689.7 258.85 690.452 258.849ZM690.452 272.551C686.779 269.422 684.035 266.516 682.222 263.834C680.408 261.151 679.501 258.667 679.5 256.383C679.5 252.957 680.601 250.228 682.803 248.196C685.006 246.163 687.555 245.147 690.452 245.147C693.35 245.147 695.9 246.163 698.102 248.196C700.304 250.228 701.405 252.957 701.404 256.383C701.404 258.666 700.497 261.15 698.683 263.834C696.868 266.517 694.125 269.423 690.452 272.551Z" fill="#00B39F"/>
</svg>
