<svg width="797" height="342" viewBox="0 0 797 342" fill="none" xmlns="http://www.w3.org/2000/svg">
<path d="M0.558237 240.238L0.518287 240.278L0.398438 240.238L0.438388 240.158H0.558237V240.238Z" fill="#ECECEC" stroke="black" stroke-width="0.2" stroke-linecap="round" stroke-linejoin="round"/>
<path d="M499.886 41.8103C500.639 41.8103 501.283 41.5418 501.82 41.0047C502.357 40.4675 502.625 39.8226 502.624 39.0699C502.624 38.3163 502.355 37.671 501.819 37.1339C501.282 36.5967 500.638 36.3286 499.886 36.3296C499.133 36.3296 498.488 36.5981 497.951 37.1352C497.415 37.6723 497.147 38.3172 497.148 39.0699C497.148 39.8235 497.416 40.4689 497.953 41.006C498.489 41.5431 499.134 41.8112 499.886 41.8103ZM499.886 55.5123C496.212 52.3836 493.469 49.4779 491.655 46.7951C489.842 44.1122 488.935 41.6285 488.934 39.344C488.934 35.9185 490.035 33.1895 492.237 31.1571C494.439 29.1246 496.989 28.1084 499.886 28.1084C502.783 28.1084 505.333 29.1246 507.536 31.1571C509.738 33.1895 510.839 35.9185 510.838 39.344C510.838 41.6276 509.931 44.1113 508.116 46.7951C506.302 49.4788 503.558 52.3846 499.886 55.5123Z" fill="#00B39F"/>
</svg>
