<svg width="797" height="342" viewBox="0 0 797 342" fill="none" xmlns="http://www.w3.org/2000/svg">
<path d="M0.558237 240.238L0.518287 240.278L0.398438 240.238L0.438388 240.158H0.558237V240.238Z" fill="#ECECEC" stroke="black" stroke-width="0.2" stroke-linecap="round" stroke-linejoin="round"/>
<path d="M439.806 163.013C440.559 163.013 441.203 162.745 441.74 162.208C442.277 161.671 442.545 161.026 442.544 160.273C442.544 159.519 442.275 158.874 441.739 158.337C441.202 157.8 440.558 157.532 439.806 157.533C439.053 157.533 438.408 157.801 437.871 158.338C437.335 158.875 437.067 159.52 437.068 160.273C437.068 161.027 437.336 161.672 437.873 162.209C438.409 162.746 439.054 163.014 439.806 163.013ZM439.806 176.715C436.132 173.587 433.389 170.681 431.575 167.998C429.762 165.315 428.854 162.832 428.854 160.547C428.854 157.122 429.955 154.393 432.157 152.36C434.359 150.328 436.909 149.312 439.806 149.312C442.703 149.312 445.253 150.328 447.456 152.36C449.658 154.393 450.759 157.122 450.758 160.547C450.758 162.831 449.851 165.314 448.036 167.998C446.222 170.682 443.478 173.588 439.806 176.715Z" fill="#00B39F"/>
</svg>
