<svg width="797" height="342" viewBox="0 0 797 342" fill="none" xmlns="http://www.w3.org/2000/svg">
<path d="M0.558237 240.238L0.518287 240.278L0.398438 240.238L0.438388 240.158H0.558237V240.238Z" fill="#ECECEC" stroke="black" stroke-width="0.2" stroke-linecap="round" stroke-linejoin="round"/>
<path d="M636.005 71.8762C636.758 71.8762 637.403 71.6077 637.939 71.0706C638.476 70.5335 638.744 69.8886 638.743 69.1359C638.743 68.3823 638.475 67.7369 637.938 67.1998C637.401 66.6627 636.757 66.3946 636.005 66.3955C635.252 66.3955 634.607 66.664 634.07 67.2011C633.534 67.7383 633.266 68.3832 633.267 69.1359C633.267 69.8895 633.535 70.5348 634.072 71.0719C634.608 71.6091 635.253 71.8772 636.005 71.8762ZM636.005 85.5782C632.331 82.4496 629.588 79.5438 627.774 76.861C625.961 74.1782 625.054 71.6945 625.053 69.4099C625.053 65.9844 626.154 63.2554 628.356 61.223C630.558 59.1905 633.108 58.1743 636.005 58.1743C638.903 58.1743 641.453 59.1905 643.655 61.223C645.857 63.2554 646.958 65.9844 646.957 69.4099C646.957 71.6935 646.05 74.1773 644.235 76.861C642.421 79.5448 639.677 82.4505 636.005 85.5782Z" fill="#00B39F"/>
</svg>
