<svg width="797" height="342" viewBox="0 0 797 342" fill="none" xmlns="http://www.w3.org/2000/svg">
<path d="M778.59 181.974L778.989 182.134H778.909L778.59 181.974Z" fill="#ECECEC" stroke="black" stroke-width="0.2" stroke-linecap="round" stroke-linejoin="round"/>
<path d="M770.302 201.649H770.222L770.182 201.529H770.302V201.649Z" fill="#E0FFFC" stroke="black" stroke-width="0.2" stroke-linecap="round" stroke-linejoin="round"/>
<path d="M5.85795 255.203L5.6582 255.083V255.004L5.77805 254.924L5.85795 255.203Z" fill="#ECECEC" stroke="black" stroke-width="0.2" stroke-linecap="round" stroke-linejoin="round"/>
<path d="M4.74219 254.365H4.86174L5.02114 254.485L5.14069 254.525L5.22039 254.365L5.33994 254.485L5.22039 254.605L5.26024 254.684L5.22039 254.764L5.14069 254.724L5.02114 254.605L4.74219 254.525V254.365Z" fill="#ECECEC" stroke="black" stroke-width="0.2" stroke-linecap="round" stroke-linejoin="round"/>
<path d="M4.42454 250.933L4.34464 250.973L4.30469 250.773L4.38459 250.813L4.42454 250.933Z" fill="#ECECEC" stroke="black" stroke-width="0.2" stroke-linecap="round" stroke-linejoin="round"/>
<path d="M6.17702 247.94L5.97727 248.06H5.89737L5.85742 248.02L5.97727 247.82L6.09712 247.86L6.17702 247.94Z" fill="#ECECEC" stroke="black" stroke-width="0.2" stroke-linecap="round" stroke-linejoin="round"/>
<path d="M0.558237 240.238L0.518287 240.278L0.398438 240.238L0.438388 240.158H0.558237V240.238Z" fill="#ECECEC" stroke="black" stroke-width="0.2" stroke-linecap="round" stroke-linejoin="round"/>
<path d="M6.93337 234.851L7.17247 235.09L7.25217 235.37L7.21232 235.489L7.25217 235.609H7.13262L7.01307 235.529L6.89352 235.609L6.53487 235.649L6.41532 235.529L6.33562 235.37L6.25592 235.33L6.13637 235.21L5.93712 235.05L5.85742 234.971V234.891L6.01682 234.931L6.13637 234.891L6.37547 234.811H6.53487L6.73412 234.771H6.85367L6.93337 234.851Z" fill="#ECECEC" stroke="black" stroke-width="0.2" stroke-linecap="round" stroke-linejoin="round"/>
<path d="M564.659 131.069C565.412 131.069 566.057 130.8 566.594 130.263C567.13 129.726 567.398 129.081 567.397 128.328C567.397 127.575 567.129 126.929 566.592 126.392C566.056 125.855 565.411 125.587 564.659 125.588C563.906 125.588 563.261 125.856 562.725 126.394C562.188 126.931 561.92 127.576 561.921 128.328C561.921 129.082 562.189 129.727 562.726 130.264C563.263 130.801 563.907 131.07 564.659 131.069ZM564.659 144.771C560.986 141.642 558.242 138.736 556.429 136.053C554.615 133.371 553.708 130.887 553.707 128.602C553.707 125.177 554.808 122.448 557.01 120.415C559.213 118.383 561.762 117.367 564.659 117.367C567.557 117.367 570.107 118.383 572.309 120.415C574.511 122.448 575.612 125.177 575.611 128.602C575.611 130.886 574.704 133.37 572.89 136.053C571.075 138.737 568.332 141.643 564.659 144.771Z" fill="#00B39F"/>
</svg>
