<svg xmlns="http://www.w3.org/2000/svg" xmlns:svg="http://www.w3.org/2000/svg" xmlns:xlink="http://www.w3.org/1999/xlink" id="svg2" x="0" y="0" version="1.1" viewBox="0 0 119 40" xml:space="preserve" style="enable-background:new 0 0 119 40"><style type="text/css">.st0{fill:#003764}.st1{fill:#0096d6}</style><path id="path4" d="M46.1,0.9v0.7h3v7.9h0.8V1.6h3V0.9L46.1,0.9z" class="st0"/><path id="path6" d="M59.6,0.9v3.7h-5.1V0.9h-0.8v8.6h0.8V5.4h5.1v4.2h0.8V0.9L59.6,0.9z" class="st0"/><path id="path8" d="M62.2,0.9v8.6h6V8.8H63V5.4h4.8V4.7H63V1.6h5.1V0.9L62.2,0.9z" class="st0"/><path id="path10" d="M46.1,30.8v8.6h0.8v-4.1H51v-0.7h-4.1v-3.1h4.6v-0.7L46.1,30.8z" class="st0"/><path id="path12" d="M56.2,38.9c2.3,0,3.2-1.9,3.2-3.8c0-1.9-1-3.8-3.2-3.8c-2.3,0-3.2,1.9-3.2,3.8	C52.9,37,53.9,38.9,56.2,38.9 M56.2,30.6c2.7,0,4,2.1,4,4.5c0,2.4-1.3,4.5-4,4.5c-2.7,0-4-2.1-4-4.5C52.1,32.7,53.5,30.6,56.2,30.6" class="st0"/><path id="path14" d="M61.4,30.8h0.8v5.3c0,2,0.9,2.8,2.5,2.8c1.6,0,2.5-0.8,2.5-2.8v-5.3h0.8v5.5c0,1.8-0.9,3.3-3.3,3.3	c-2.4,0-3.3-1.5-3.3-3.3L61.4,30.8z" class="st0"/><path id="path16" d="M69.7,30.8h0.9l5,7.3h0v-7.3h0.8v8.6h-0.9l-5-7.3h0v7.3h-0.8V30.8z" class="st0"/><path id="path18" d="M79,38.7h1.7c2.5,0,3.5-1,3.5-3.6c0-2.6-1.1-3.6-3.5-3.6H79V38.7z M78.2,30.8h3	c2.6,0.1,3.9,1.5,3.9,4.3c0,2.8-1.3,4.2-3.9,4.3h-3V30.8z" class="st0"/><path id="path20" d="M87.6,36H91l-1.7-4.4L87.6,36z M88.9,30.8h0.9l3.4,8.6h-0.9l-1-2.7h-3.9l-1,2.7h-0.9L88.9,30.8z" class="st0"/><g id="use22" transform="translate(46.096,29.8595)"><path id="path4_1_" d="M92.2,30.8v0.7h3v7.9H96v-7.9h3v-0.7H92.2z" class="st0"/></g><path id="path24" d="M99.9,30.8h0.8v8.6h-0.8V30.8z" class="st0"/><g id="use26" transform="translate(49.9157)"><path id="path12_1_" d="M106.1,38.9c2.3,0,3.2-1.9,3.2-3.8c0-1.9-1-3.8-3.2-3.8c-2.3,0-3.2,1.9-3.2,3.8 C102.9,37,103.8,38.9,106.1,38.9 M106.1,30.6c2.7,0,4,2.1,4,4.5c0,2.4-1.3,4.5-4,4.5c-2.7,0-4-2.1-4-4.5 C102,32.7,103.4,30.6,106.1,30.6" class="st0"/></g><g id="use28" transform="translate(41.6867)"><path id="path16_1_" d="M111.4,30.8h0.9l5,7.3h0v-7.3h0.8v8.6h-0.9l-5-7.3h0v7.3h-0.8V30.8z" class="st0"/></g><path id="path30" d="M46.1,12.1h4.7v11.4h6.8v3.9H46.1V12.1z" class="st0"/><path id="path32" d="M60.7,12.1h4.7v15.3h-4.7L60.7,12.1z" class="st0"/><path id="path34" d="M69,12.1h4.8l4.5,8.2h0v-8.2h4.5v15.3h-4.6L73.5,19h0v8.4H69V12.1z" class="st0"/><path id="path36" d="M100.3,21.5c0,4.3-2.3,6.3-7,6.3c-4.7,0-7-2-7-6.3v-9.4H91v8.4c0,1.5,0,3.5,2.3,3.5	c2.2,0,2.2-2,2.2-3.5v-8.4h4.7L100.3,21.5z" class="st0"/><path id="path38" d="M107.8,19.3l-5.1-7.2h5.5l2.3,4.2l2.3-4.2h5.2l-4.9,7.2l5.5,8.1H113l-2.6-4.6l-2.7,4.6h-5.4	L107.8,19.3z" class="st0"/><path id="path40" d="M8.6,31.7V16.2H0.9v23.1H24v-7.7L8.6,31.7z" class="st1"/><path id="path42" d="M39.4,0.8H0.9v11.6h7.7V8.5h23.1v23.1h-3.9v7.7h11.6V0.8z" class="st0"/></svg>