<?xml version="1.0" encoding="utf-8"?>
<!-- Generator: Adobe Illustrator 22.0.1, SVG Export Plug-In . SVG Version: 6.00 Build 0)  -->
<svg version="1.1" id="Layer_1" xmlns="http://www.w3.org/2000/svg" xmlns:xlink="http://www.w3.org/1999/xlink" x="0px" y="0px"
	 viewBox="0 0 278.5 242.6" style="enable-background:new 0 0 278.5 242.6;" xml:space="preserve">
<style type="text/css">
	.st0{fill:none;}
	.st1{fill:#FFFFFF;}
	.st2{fill:url(#SVGID_1_);}
	.st3{opacity:0.6;}
	.st4{fill:url(#SVGID_2_);}
	.st5{fill:url(#SVGID_3_);}
	.st6{fill:url(#SVGID_4_);}
	.st7{fill:url(#SVGID_5_);}
	.st8{fill:url(#SVGID_6_);}
	.st9{fill:url(#SVGID_7_);}
</style>
<path class="st0" d="M138.5,0c77-0.1,140.1,61.4,139.9,139.6c-0.1,76.9-62.2,139.1-139.7,138.9C61.4,278.5-0.9,215.5,0,137.5
	C0.9,61.1,62.4,0.8,138.5,0z M107.6,6.7c-40.8,10.7-71,34.3-90.1,71.7C3.2,106.4-0.1,136,5.9,166.9C80.8,149.6,123.1,73.8,107.6,6.7
	z M50.8,242.6c59.6,51.7,146.3,38.1,188.6-11.4C188.4,185.8,102.3,185.8,50.8,242.6z M24.6,212.9c76.1-50.2,156-91.6,243.5-117.5
	c-5.9-17.6-15.1-33-27.3-46.8c-65.3,63.9-140.6,113.6-221.5,155.5C21.2,207.1,22.9,210,24.6,212.9z M202.3,18.7
	c-0.4,0.9-0.7,1.6-1,2.2c-5.2,12.5-11.4,24.5-18.6,35.9c-18.5,29.4-41.9,54.4-68.9,76.2c-27.6,22.3-57.8,40.3-90.2,54.9
	c-3.3,1.5-6.5,2.9-10,4.4c1.5,3.1,2.8,6,4.2,8.9c0.6-0.2,0.8-0.3,1.1-0.5c15.2-8.3,30.5-16.4,45.6-24.9
	c30.9-17.5,60.7-36.9,89.4-57.9c27.7-20.3,54.1-42,78.7-65.9c2-1.9,3.9-3.8,6-5.9C228,35,216.1,25.9,202.3,18.7z M32.2,223.6
	c0.5-0.3,0.7-0.4,1-0.6c17.9-13.8,36.6-26.3,56.4-37.3c17.8-9.8,36.2-18.3,55.3-25.3c26.9-9.7,54.4-16.1,83-18.1
	c15.7-1.1,31.4-0.8,47.4,1.2c0.6-15.4-1.6-30.3-6.2-45.1C181.6,124.2,102,165.5,26.3,215.5C28.4,218.4,30.3,221,32.2,223.6z
	 M158.3,4.5c-0.2,1.2-0.4,2-0.5,2.8c-3,27.4-12,52.9-25.8,76.6c-9.6,16.4-21.3,31.2-34.9,44.4c-19.8,19.3-42.4,34.4-67.7,45.6
	c-5.8,2.6-11.9,4.7-17.7,7.1c-0.7,0.3-1.6,1.2-1.5,1.6c0.6,2.3,1.5,4.4,2.3,6.6c0.6-0.2,0.8-0.2,1-0.3c23.4-9.9,45.8-21.6,67-35.5
	c27.2-17.8,51.8-38.5,73.2-63c16.7-19.1,30.7-39.9,41.3-62.9c1.5-3.3,2.9-6.7,4.4-10.2C186.4,10.7,172.8,6.6,158.3,4.5z M39.7,232.2
	c13.4-12.1,27.6-22.3,43-30.9c14.5-8.1,29.7-14.6,45.6-19.4c23.6-7.1,47.6-10.1,72.2-8.8c18.4,1,36.3,4.4,53.6,10.6
	c4.1,1.5,8.1,3,12.2,4.6c5.2-13.5,8.3-27.4,9-41.8c-0.8-0.1-1.3-0.3-1.8-0.3c-4.8-0.4-9.5-1-14.3-1.3c-32.2-1.7-63.5,3-94.3,12.1
	c-23.3,6.9-45.6,16.2-67,27.6c-20.3,10.7-39.6,23.1-57.9,37c-1.8,1.4-3.6,2.8-5.5,4.3C36.1,228.3,37.9,230.2,39.7,232.2z M8.8,178.5
	c0.5-0.1,0.8-0.1,1-0.2c6.3-2.5,12.6-4.7,18.8-7.4c28.4-12.5,53.3-30.1,74.3-53c25.8-28.2,43-60.8,50-98.5c0.9-5,1.5-10,2.3-15.3
	c-15.1-1.8-29.6-1.1-44.3,2c7,36.9,1.1,71.4-19,103c-20.1,31.7-49,51.6-85.4,61C7.4,173,8.1,175.8,8.8,178.5z M265,191.6
	c-0.7-0.4-1.2-0.6-1.7-0.8c-9.7-4.1-19.6-7.4-29.9-9.7c-21.3-4.9-42.8-6.2-64.5-4c-26.6,2.7-51.8,10.2-75.7,22.1
	c-15,7.4-28.9,16.5-41.9,27c-3.2,2.6-6.3,5.4-9.6,8.3c2.3,2.2,4.3,4.1,6.4,6.1c26-27.2,57.2-42.7,94.6-44.9
	c37.3-2.2,70.3,9.3,99.1,33.2C251.6,217.7,259.2,205.3,265,191.6z"/>
<g>
	<path class="st1" d="M24.6,212.9c-1.8-3-3.5-5.8-5.3-8.9c80.9-42,156.1-91.6,221.5-155.5c12.2,13.8,21.4,29.2,27.3,46.8
		C180.6,121.3,100.7,162.7,24.6,212.9z"/>
	<linearGradient id="SVGID_1_" gradientUnits="userSpaceOnUse" x1="19.3605" y1="130.7413" x2="268.1125" y2="130.7413">
		<stop  offset="0" style="stop-color:#FFFFFF;stop-opacity:0.3"/>
		<stop  offset="1" style="stop-color:#FFFFFF"/>
	</linearGradient>
	<path class="st2" d="M240.8,50c11.8,13.6,20.4,28.3,26.1,44.7C187.6,118.3,108.5,156.5,25,211.5l-2-3.3l-2.2-3.7
		C109.6,158.3,181.6,107.8,240.8,50 M240.8,48.6c-65.3,63.9-140.6,113.6-221.5,155.5c1.8,3,3.5,5.9,5.3,8.9
		c76.1-50.2,156-91.6,243.5-117.5C262.2,77.8,253,62.4,240.8,48.6L240.8,48.6z"/>
</g>
<g class="st3">
	<path class="st1" d="M202.3,18.7c13.8,7.2,25.6,16.3,36.3,27.5c-2.1,2-4,4-6,5.9C208,76,181.6,97.7,154,117.9
		c-28.7,21-58.4,40.4-89.4,57.9c-15.1,8.5-30.4,16.6-45.6,24.9c-0.3,0.1-0.5,0.2-1.1,0.5c-1.4-2.9-2.8-5.8-4.2-8.9
		c3.4-1.5,6.7-3,10-4.4c32.4-14.5,62.6-32.6,90.2-54.9c27-21.8,50.4-46.8,68.9-76.2c7.2-11.4,13.4-23.4,18.6-35.9
		C201.6,20.3,201.9,19.6,202.3,18.7z"/>
	<linearGradient id="SVGID_2_" gradientUnits="userSpaceOnUse" x1="13.6751" y1="109.9556" x2="238.6516" y2="109.9556">
		<stop  offset="0" style="stop-color:#FFFFFF;stop-opacity:0.3"/>
		<stop  offset="1" style="stop-color:#FFFFFF"/>
	</linearGradient>
	<path class="st4" d="M202.8,20.1c12.9,6.9,24.1,15.4,34.4,26.1l-1.3,1.2c-1.4,1.3-2.7,2.6-4,3.9c-23.3,22.6-49,44.1-78.6,65.8
		c-29.1,21.3-59.2,40.8-89.3,57.8c-10.4,5.9-21.1,11.7-31.5,17.3c-4.7,2.5-9.4,5.1-14.1,7.6c0,0-0.1,0-0.1,0.1l-1-2.2l-2.4-5l2.3-1
		c2.3-1,4.5-2,6.7-3c33.3-15,63.8-33.5,90.4-55c28.6-23.1,51.3-48.1,69.1-76.4c7.2-11.4,13.5-23.5,18.7-36
		C202.4,20.9,202.6,20.5,202.8,20.1 M202.3,18.7c-0.4,0.9-0.7,1.6-1,2.2c-5.2,12.5-11.4,24.5-18.6,35.9
		c-18.5,29.4-41.9,54.4-68.9,76.2c-27.6,22.3-57.8,40.3-90.2,54.9c-3.3,1.5-6.5,2.9-10,4.4c1.5,3.1,2.8,6,4.2,8.9
		c0.6-0.2,0.8-0.3,1.1-0.5c15.2-8.3,30.5-16.4,45.6-24.9c30.9-17.5,60.7-36.9,89.4-57.9c27.7-20.3,54.1-42,78.7-65.9
		c2-1.9,3.9-3.8,6-5.9C228,35,216.1,25.9,202.3,18.7L202.3,18.7z"/>
</g>
<g>
	<path class="st1" d="M32.2,223.6c-1.9-2.6-3.8-5.2-6-8.1c75.7-50,155.3-91.3,242.8-117.2c4.6,14.8,6.8,29.6,6.2,45.1
		c-16-2-31.7-2.3-47.4-1.2c-28.5,2-56.1,8.4-83,18.1c-19.1,6.9-37.5,15.4-55.3,25.3C69.7,196.6,51,209.1,33.2,223
		C32.9,223.1,32.7,223.3,32.2,223.6z"/>
	<linearGradient id="SVGID_3_" gradientUnits="userSpaceOnUse" x1="26.2515" y1="160.9595" x2="275.3559" y2="160.9595">
		<stop  offset="0" style="stop-color:#FFFFFF;stop-opacity:0.3"/>
		<stop  offset="1" style="stop-color:#FFFFFF"/>
	</linearGradient>
	<path class="st5" d="M268.4,99.6c4.4,14.3,6.3,28.3,5.9,42.7c-9.4-1.1-19-1.7-28.5-1.7c-5.9,0-12,0.2-18,0.6
		c-27.2,1.9-55.2,8.1-83.2,18.2c-18.6,6.7-37.3,15.3-55.5,25.3c-19,10.5-38,23.1-56.5,37.4c0,0-0.1,0-0.1,0.1l-4.8-6.5
		C110.7,161.1,189.4,123.1,268.4,99.6 M269.1,98.3C181.6,124.2,102,165.5,26.3,215.5c2.1,2.9,4,5.5,6,8.1c0.5-0.3,0.7-0.4,1-0.6
		c17.9-13.8,36.6-26.3,56.4-37.3c17.8-9.8,36.2-18.3,55.3-25.3c26.9-9.7,54.4-16.1,83-18.1c6-0.4,12-0.6,17.9-0.6
		c9.8,0,19.6,0.6,29.5,1.8C275.8,128,273.7,113.1,269.1,98.3L269.1,98.3z"/>
</g>
<g>
	<path class="st1" d="M158.3,4.5c14.4,2.2,28.1,6.2,41.2,12.8c-1.5,3.5-2.9,6.9-4.4,10.2c-10.6,23-24.6,43.9-41.3,62.9
		c-21.4,24.5-46,45.2-73.2,63c-21.3,13.9-43.6,25.7-67,35.5c-0.2,0.1-0.4,0.1-1,0.3c-0.8-2.2-1.7-4.4-2.3-6.6
		c-0.1-0.4,0.9-1.4,1.5-1.6c5.9-2.4,11.9-4.5,17.7-7.1c25.3-11.1,47.9-26.3,67.7-45.6c13.6-13.3,25.3-28,34.9-44.4
		c13.9-23.8,22.8-49.2,25.8-76.6C158,6.4,158.1,5.6,158.3,4.5z"/>
	<linearGradient id="SVGID_4_" gradientUnits="userSpaceOnUse" x1="10.2162" y1="96.8299" x2="199.5287" y2="96.8299">
		<stop  offset="0" style="stop-color:#FFFFFF;stop-opacity:0.3"/>
		<stop  offset="1" style="stop-color:#FFFFFF"/>
	</linearGradient>
	<path class="st6" d="M159.1,5.6c14.2,2.2,27,6.2,39.1,12.1c-0.4,0.8-0.7,1.6-1,2.4c-1,2.4-2,4.6-3,6.8
		c-10.2,22.2-23.7,42.7-41.1,62.7c-20.6,23.6-44.4,44.1-73,62.8c-20.8,13.6-43.3,25.5-66.9,35.5c0,0,0,0,0,0
		c-0.1-0.3-0.2-0.5-0.3-0.8c-0.6-1.5-1.2-3.1-1.6-4.6c0.2-0.2,0.6-0.6,0.9-0.7c2.3-0.9,4.6-1.8,6.9-2.7c3.6-1.4,7.3-2.8,10.9-4.4
		c25.5-11.3,48.4-26.7,68-45.8c13.9-13.6,25.7-28.6,35-44.6c14.3-24.5,23-50.4,25.9-77c0.1-0.5,0.1-1,0.3-1.6
		C159.1,5.7,159.1,5.6,159.1,5.6 M158.3,4.5c-0.2,1.2-0.4,2-0.5,2.8c-3,27.4-12,52.9-25.8,76.6c-9.6,16.4-21.3,31.2-34.9,44.4
		c-19.8,19.3-42.4,34.4-67.7,45.6c-5.8,2.6-11.9,4.7-17.7,7.1c-0.7,0.3-1.6,1.2-1.5,1.6c0.6,2.3,1.5,4.4,2.3,6.6
		c0.6-0.2,0.8-0.2,1-0.3c23.4-9.9,45.8-21.6,67-35.5c27.2-17.8,51.8-38.5,73.2-63c16.7-19.1,30.7-39.9,41.3-62.9
		c1.5-3.3,2.9-6.7,4.4-10.2C186.4,10.7,172.8,6.6,158.3,4.5L158.3,4.5z"/>
</g>
<g>
	<path class="st1" d="M39.7,232.2c-1.8-2-3.5-4-5.4-6.2c1.9-1.5,3.7-2.9,5.5-4.3c18.3-13.9,37.6-26.3,57.9-37
		c21.5-11.4,43.7-20.7,67-27.6c30.8-9.1,62.2-13.7,94.3-12.1c4.8,0.2,9.6,0.8,14.3,1.3c0.5,0,1,0.2,1.8,0.3
		c-0.7,14.4-3.7,28.3-9,41.8c-4.1-1.6-8.2-3.1-12.2-4.6c-17.3-6.2-35.3-9.7-53.6-10.6c-24.6-1.3-48.6,1.7-72.2,8.8
		c-15.9,4.8-31.1,11.2-45.6,19.4C67.3,210,53.1,220.2,39.7,232.2z"/>
	<linearGradient id="SVGID_5_" gradientUnits="userSpaceOnUse" x1="34.2078" y1="188.4876" x2="275.1901" y2="188.4876">
		<stop  offset="0" style="stop-color:#FFFFFF;stop-opacity:0.3"/>
		<stop  offset="1" style="stop-color:#FFFFFF"/>
	</linearGradient>
	<path class="st7" d="M246,145.7c4.3,0,8.7,0.1,13,0.3c3.3,0.2,6.7,0.5,10,0.8c1.4,0.1,2.9,0.3,4.3,0.4c0.3,0,0.5,0.1,0.9,0.1
		c-0.7,13.6-3.5,26.6-8.5,39.7c-1-0.4-2-0.7-3-1.1c-2.7-1-5.5-2.1-8.3-3.1c-17-6.1-35.1-9.7-53.9-10.7c-3.8-0.2-7.6-0.3-11.3-0.3
		c-20.6,0-41.2,3.1-61.2,9.1c-15.9,4.8-31.3,11.3-45.8,19.4C66.9,209,53,218.9,39.7,230.8l-4.1-4.6c0.3-0.3,0.7-0.5,1-0.8
		c1.3-1,2.5-1.9,3.7-2.9c18.6-14.1,38-26.5,57.8-36.9c22.1-11.7,44.6-20.9,66.9-27.5C193.1,149.8,219.6,145.7,246,145.7 M246,144.7
		c-27.6,0-54.7,4.5-81.3,12.4c-23.3,6.9-45.6,16.2-67,27.6c-20.3,10.7-39.6,23.1-57.9,37c-1.8,1.4-3.6,2.8-5.5,4.3
		c1.9,2.2,3.6,4.1,5.4,6.2c13.4-12.1,27.6-22.3,43-30.9c14.5-8.1,29.7-14.6,45.6-19.4c20-6,40.3-9.1,60.9-9.1
		c3.7,0,7.5,0.1,11.2,0.3c18.4,1,36.3,4.4,53.6,10.6c4.1,1.5,8.1,3,12.2,4.6c5.2-13.5,8.3-27.4,9-41.8c-0.8-0.1-1.3-0.3-1.8-0.3
		c-4.8-0.4-9.5-1-14.3-1.3C254.7,144.9,250.3,144.7,246,144.7L246,144.7z"/>
</g>
<g>
	<path class="st1" d="M8.8,178.5c-0.7-2.8-1.5-5.5-2.2-8.4c36.4-9.4,65.3-29.3,85.4-61c20.1-31.6,26-66.1,19-103
		c14.7-3.1,29.2-3.9,44.3-2c-0.8,5.3-1.3,10.3-2.3,15.3c-7.1,37.7-24.2,70.3-50,98.5c-21,22.9-45.8,40.5-74.3,53
		c-6.2,2.7-12.5,5-18.8,7.4C9.6,178.4,9.3,178.4,8.8,178.5z"/>
	<linearGradient id="SVGID_6_" gradientUnits="userSpaceOnUse" x1="6.6291" y1="90.8318" x2="155.2677" y2="90.8318">
		<stop  offset="0" style="stop-color:#FFFFFF;stop-opacity:0.3"/>
		<stop  offset="1" style="stop-color:#FFFFFF"/>
	</linearGradient>
	<path class="st8" d="M139.2,3.1l0,1h0c4.9,0,9.9,0.3,14.9,0.9c-0.2,1.3-0.4,2.7-0.6,4c-0.5,3.5-0.9,6.9-1.6,10.2
		c-6.8,36.4-23.6,69.4-49.8,98c-20.6,22.5-45.5,40.2-73.9,52.8c-4.2,1.9-8.7,3.6-12.9,5.2c-1.9,0.7-3.9,1.5-5.8,2.2l-0.8-2.9l-1-3.6
		c36.8-9.7,65.4-30.3,85-61.2C112.5,78.8,119,44.2,112.2,6.9c9.2-1.9,18.1-2.8,27.1-2.8L139.2,3.1 M139.2,3.1c-9.5,0-18.8,1-28.2,3
		c7,36.9,1.1,71.4-19,103c-20.1,31.7-49,51.6-85.4,61c0.8,2.9,1.5,5.6,2.2,8.4c0.5-0.1,0.8-0.1,1-0.2c6.3-2.5,12.6-4.7,18.8-7.4
		c28.4-12.5,53.3-30.1,74.3-53c25.8-28.2,43-60.8,50-98.5c0.9-5,1.5-10,2.3-15.3C149.9,3.5,144.5,3.1,139.2,3.1L139.2,3.1z"/>
</g>
<g>
	<path class="st1" d="M265,191.6c-5.9,13.8-13.5,26.1-23.2,37.3c-28.9-23.9-61.8-35.4-99.1-33.2c-37.3,2.2-68.6,17.7-94.6,44.9
		c-2.1-2-4.1-3.9-6.4-6.1c3.3-2.9,6.4-5.7,9.6-8.3c13-10.5,26.9-19.6,41.9-27c23.9-11.9,49.1-19.4,75.7-22.1
		c21.7-2.2,43.2-0.9,64.5,4c10.2,2.3,20.2,5.6,29.9,9.7C263.8,191,264.3,191.2,265,191.6z"/>
	<linearGradient id="SVGID_7_" gradientUnits="userSpaceOnUse" x1="41.7554" y1="208.3107" x2="265.0338" y2="208.3107">
		<stop  offset="0" style="stop-color:#FFFFFF;stop-opacity:0.3"/>
		<stop  offset="1" style="stop-color:#FFFFFF"/>
	</linearGradient>
	<path class="st9" d="M189.3,177.1c14.7,0,29.5,1.7,44,5c10.1,2.3,20.1,5.6,29.7,9.7c0.2,0.1,0.5,0.2,0.8,0.4
		c-5.8,13.3-13,24.9-22,35.4c-26.8-21.9-57-33.1-90-33.1c-3,0-6,0.1-9,0.3c-18.5,1.1-36,5.5-51.9,13.2
		c-15.3,7.4-29.7,17.9-42.6,31.3l-4.9-4.6c0.8-0.7,1.5-1.3,2.3-2c2.2-1.9,4.3-3.8,6.5-5.5c13.3-10.7,27.3-19.7,41.7-26.9
		c24.1-12,49.5-19.4,75.4-22C175.8,177.4,182.6,177.1,189.3,177.1L189.3,177.1 M189.3,176.1c-6.7,0-13.5,0.3-20.3,1
		c-26.6,2.7-51.8,10.2-75.7,22.1c-15,7.4-28.9,16.5-41.9,27c-3.2,2.6-6.3,5.4-9.6,8.3c2.3,2.2,4.3,4.1,6.4,6.1
		c26-27.2,57.2-42.7,94.6-44.9c3-0.2,6-0.3,9-0.3c33.6,0,63.6,11.5,90.1,33.5c9.8-11.2,17.3-23.5,23.2-37.3
		c-0.7-0.4-1.2-0.6-1.7-0.8c-9.7-4.1-19.6-7.4-29.9-9.7C218.8,177.7,204.1,176.1,189.3,176.1L189.3,176.1z"/>
</g>
</svg>
