<svg xmlns="http://www.w3.org/2000/svg" role="img" viewBox="-10.82 -10.82 1862.64 501.64"><defs><style>.cls-1{fill:#fff}</style></defs><path d="M581.72882 196.02328a5.83736 5.83736 0 0 1 1.30017 3.96478v82.02622a5.65118 5.65118 0 0 1-1.36493 3.96478 4.93816 4.93816 0 0 1-3.83478 1.495 5.41614 5.41614 0 0 1-4.29016-2.20978l-53.94732-72.1469v68.897a5.64862 5.64862 0 0 1-1.36493 3.96478 4.77444 4.77444 0 0 1-3.70471 1.495 4.57126 4.57126 0 0 1-3.64-1.495 5.82436 5.82436 0 0 1-1.29962-3.96478v-82.02632a5.65478 5.65478 0 0 1 1.36493-3.96478 4.93379 4.93379 0 0 1 3.83478-1.495 5.54217 5.54217 0 0 1 4.41955 2.20977l53.81732 72.14688v-68.89687a5.65781 5.65781 0 0 1 1.36493-3.96478 4.7744 4.7744 0 0 1 3.70472-1.495 4.57275 4.57275 0 0 1 3.64005 1.495zm75.13618 77.28128a4.33562 4.33562 0 0 1 1.04016 2.9899q0 3.25057-4.54956 5.97983a39.38576 39.38576 0 0 1-9.87994 4.09482 39.879 39.879 0 0 1-10.13936 1.36489q-14.69164 0-23.20391-8.70971-8.5156-8.7079-8.51435-24.04877a37.7344 37.7344 0 0 1 3.76947-17.22407 28.14117 28.14117 0 0 1 10.59473-11.63492 29.25559 29.25559 0 0 1 15.53436-4.15953q12.34854 0 19.6286 8.0596 7.27954 8.06144 7.28009 21.839a5.60014 5.60014 0 0 1-1.04016 3.77006 4.31959 4.31959 0 0 1-3.38 1.1696h-41.85767q1.17022 22.36035 21.18884 22.35907a24.83392 24.83392 0 0 0 8.70972-1.36493 56.8164 56.8164 0 0 0 7.79956-3.70474q3.37875-1.95034 4.54956-1.95035a3.2036 3.2036 0 0 1 2.46986 1.17025zm-38.543-37.95817q-5.00583 5.2009-5.91449 14.68954h36.788q-.26184-9.619-4.80963-14.75426-4.55165-5.1341-12.7392-5.135-8.32054.00001-13.32468 5.19972zm90.2806 47.96751a3.7417 3.7417 0 0 1-1.625 3.31528 7.62929 7.62929 0 0 1-4.875.84485l-3.5094-.26q-10.40186-.78018-15.33966-6.2399-4.94173-5.45916-4.93964-16.50925v-32.6285h-8.70971a4.97969 4.97969 0 0 1-3.44471-1.10489 3.7247 3.7247 0 0 1-1.23492-2.92461 4.09061 4.09061 0 0 1 1.23492-3.12 4.80621 4.80621 0 0 1 3.44471-1.1702h8.70971V208.8278a5.04582 5.04582 0 0 1 1.43024-3.83476 5.41076 5.41076 0 0 1 3.89948-1.36493 5.23424 5.23424 0 0 1 3.77008 1.36493 5.05464 5.05464 0 0 1 1.42962 3.83476v14.68893h14.42951a4.62563 4.62563 0 0 1 3.31469 1.1702 4.09724 4.09724 0 0 1 1.23493 3.12 3.73062 3.73062 0 0 1-1.23493 2.92461 4.78782 4.78782 0 0 1-3.31469 1.10489h-14.42945v33.14854q.00009 7.15036 2.92524 10.33469 2.92455 3.18648 8.77441 3.5747l3.51.26q4.54797.39007 4.54957 4.15954zm103.34448-60.83675a5.347 5.347 0 0 1 3.5094 1.29962 4.06194 4.06194 0 0 1 1.56024 3.25 5.55867 5.55867 0 0 1-.39007 1.94974L795.04773 283.574a6.21961 6.21961 0 0 1-2.27509 2.66516 5.94618 5.94618 0 0 1-3.31469.97489 5.72633 5.72633 0 0 1-3.18463-.97489 6.20707 6.20707 0 0 1-2.27509-2.66516l-17.9389-45.6277-17.80951 45.6277a5.3278 5.3278 0 0 1-2.20978 2.66516 6.18423 6.18423 0 0 1-8.96979-2.66513l-21.57892-54.46744a5.30256 5.30256 0 0 1-.38946-1.81971 4.37361 4.37361 0 0 1 1.75439-3.51 5.94656 5.94656 0 0 1 3.83539-1.42964 4.5148 4.5148 0 0 1 4.41956 3.11993l17.80889 47.96752 18.32959-47.57744a6.11116 6.11116 0 0 1 2.14448-2.59985 5.18637 5.18637 0 0 1 2.92523-.91016 5.3973 5.3973 0 0 1 3.05462.91016 5.3253 5.3253 0 0 1 2.015 2.59985l18.329 47.4474 17.9389-47.70756a4.43087 4.43087 0 0 1 4.29016-3.11994zm29.57263 61.22679a26.842 26.842 0 0 1-10.52941-11.5043 42.49835 42.49835 0 0 1 0-34.7082 26.86291 26.86291 0 0 1 10.52941-11.50429 30.48921 30.48921 0 0 1 15.79444-4.03011 30.84425 30.84425 0 0 1 15.85913 4.03011 26.7442 26.7442 0 0 1 10.59412 11.50429 42.49843 42.49843 0 0 1 0 34.7082 26.72363 26.72363 0 0 1-10.59412 11.5043 30.82611 30.82611 0 0 1-15.85913 4.03013 30.47139 30.47139 0 0 1-15.79444-4.03013zm30.15863-10.85415q5.00226-6.17336 5.00434-18.00421 0-11.56841-5.0697-17.87421-5.0691-6.30333-14.29889-6.3046-9.23163 0-14.2995 6.3046-5.07 6.307-5.0697 17.87421 0 11.69934 5.00433 17.9389 5.00318 6.2402 14.36481 6.2399 9.35887-.00004 14.36431-6.17459zm69.61115-46.21311a4.62021 4.62021 0 0 1-1.17023 3.31528 6.21223 6.21223 0 0 1-4.02948 1.495l-3.90008.38946q-8.71061.78012-12.93457 6.17519a19.95118 19.95118 0 0 0-4.22486 12.67387v31.58887a5.006 5.006 0 0 1-1.42962 3.89947 5.39517 5.39517 0 0 1-3.77008 1.30024 5.4674 5.4674 0 0 1-3.83478-1.36493 4.92925 4.92925 0 0 1-1.495-3.83478v-54.8575a4.8268 4.8268 0 0 1 1.56025-3.83476 5.5237 5.5237 0 0 1 3.76947-1.36493 4.78972 4.78972 0 0 1 4.94592 4.62834q.00732.2207-.00568.44133v7.27947a19.74046 19.74046 0 0 1 7.73425-8.70911 26.177 26.177 0 0 1 11.50428-3.51l1.82031-.13q5.45921-.39019 5.4599 4.41949zm63.0459 56.02771a4.72856 4.72856 0 0 1-1.36493 3.3794 4.41389 4.41389 0 0 1-3.3147 1.43024 5.49288 5.49288 0 0 1-3.51-1.56028L962.217 256.66528v25.609a4.9351 4.9351 0 0 1-1.49432 3.83478 5.29419 5.29419 0 0 1-3.70532 1.36492 5.46733 5.46733 0 0 1-3.83478-1.36492 4.92925 4.92925 0 0 1-1.495-3.83478v-82.54623a4.93187 4.93187 0 0 1 1.495-3.83476 5.46738 5.46738 0 0 1 3.83478-1.36493 5.29429 5.29429 0 0 1 3.70532 1.36493 4.93774 4.93774 0 0 1 1.49432 3.83476v52.77774l31.06879-28.46893a4.785 4.785 0 0 1 8.31964 3.25 5.1825 5.1825 0 0 1-1.8197 3.90008l-25.609 22.87856 28.07886 24.43884a5.6973 5.6973 0 0 1 2.0798 4.16005zm61.91661 2.19391a38.105 38.105 0 0 1-14.23413-7.86426 5.96563 5.96563 0 0 1-1.9497-4.5502 5.10425 5.10425 0 0 1 1.03955-3.18466 3.04108 3.04108 0 0 1 2.47045-1.36493 6.29415 6.29415 0 0 1 3.63941 1.42966 43.81024 43.81024 0 0 0 27.55884 9.35983q11.17841 0 17.15942-4.28955 5.97748-4.28979 5.97925-12.21973a9.81655 9.81655 0 0 0-2.85925-7.34477 20.67188 20.67188 0 0 0-7.54017-4.48488 113.96718 113.96718 0 0 0-12.60913-3.5094 122.68913 122.68913 0 0 1-17.48413-5.1997 27.22161 27.22161 0 0 1-11.04956-7.79955q-4.22571-5.07-4.22485-13.25929a23.56807 23.56807 0 0 1 4.22485-13.8447 27.34412 27.34412 0 0 1 11.82959-9.35922 43.0365 43.0365 0 0 1 17.35413-3.31528 50.33484 50.33484 0 0 1 16.964 2.7952 35.75182 35.75182 0 0 1 13.19458 7.99428 6.34473 6.34473 0 0 1 2.07971 4.5502 5.10872 5.10872 0 0 1-1.04016 3.18465 3.04492 3.04492 0 0 1-2.46985 1.36494 7.90289 7.90289 0 0 1-3.77-1.43025 44.25734 44.25734 0 0 0-11.829-7.27947 36.97336 36.97336 0 0 0-13.12927-2.07975q-10.79187 0-16.76929 4.48487-5.98114 4.48488-5.97986 12.54447 0 6.89122 5.265 10.33409 5.26428 3.44652 16.18384 6.04515 11.82751 2.86052 18.589 5.26441a27.87033 27.87033 0 0 1 11.24488 7.21475q4.48481 4.81085 4.48486 12.86921a22.498 22.498 0 0 1-4.22485 13.51935 27.44834 27.44834 0 0 1-11.895 9.0998 44.6304 44.6304 0 0 1-17.54883 3.25 59.3915 59.3915 0 0 1-18.65433-2.92527zm120.828-11.6343a4.33593 4.33593 0 0 1 1.04016 2.98993q0 3.25059-4.54956 5.97983a39.38693 39.38693 0 0 1-9.87989 4.09482 39.8773 39.8773 0 0 1-10.1394 1.36493q-14.69164 0-23.204-8.70972-8.5155-8.70791-8.5144-24.04876a37.73451 37.73451 0 0 1 3.7694-17.22408A28.14056 28.14056 0 0 1 1146.197 226.036a29.25543 29.25543 0 0 1 15.53443-4.15951q12.34845 0 19.62854 8.0596 7.27935 8.06139 7.28 21.839a5.60081 5.60081 0 0 1-1.04016 3.77007 4.3197 4.3197 0 0 1-3.38 1.1696h-41.85767q1.17 22.36029 21.18885 22.35907a24.83436 24.83436 0 0 0 8.70971-1.36493 56.81664 56.81664 0 0 0 7.79956-3.70474q3.37885-1.95036 4.54956-1.95035a3.20362 3.20362 0 0 1 2.47018 1.17019zm-38.543-37.95817q-5.00592 5.20091-5.91455 14.68954h36.788q-.26184-9.619-4.80957-14.75425-4.55183-5.1341-12.73926-5.135-8.32049 0-13.32458 5.19969zm93.65929-8.70977a4.62016 4.62016 0 0 1-1.17017 3.31527 6.21231 6.21231 0 0 1-4.02954 1.495l-3.9.38946q-8.71069.78015-12.93457 6.17519a19.95092 19.95092 0 0 0-4.22486 12.67389v31.58888a5.00607 5.00607 0 0 1-1.42968 3.89948 5.3952 5.3952 0 0 1-3.77 1.30023 5.46735 5.46735 0 0 1-3.83472-1.36493 4.92924 4.92924 0 0 1-1.495-3.83478v-54.8575a4.82705 4.82705 0 0 1 1.56031-3.83476 5.52387 5.52387 0 0 1 3.76941-1.36494 4.78982 4.78982 0 0 1 4.946 4.62832q.00732.2207-.00574.44136v7.27945a19.7401 19.7401 0 0 1 7.73426-8.7091 26.17727 26.17727 0 0 1 11.50427-3.51l1.82031-.13q5.45912-.39011 5.45972 4.41948zm64.4762-4.28951a5.347 5.347 0 0 1 3.50939 1.29962 4.062 4.062 0 0 1 1.56031 3.25 4.12255 4.12255 0 0 1-.52014 2.07976l-25.34839 54.59747a6.07362 6.07362 0 0 1-2.34046 2.66517 6.26285 6.26285 0 0 1-3.37939.97488 6.04612 6.04612 0 0 1-3.25-.97488 6.95723 6.95723 0 0 1-2.46985-2.66517L1249.215 228.896a3.85026 3.85026 0 0 1-.52015-1.94974 4.256 4.256 0 0 1 1.755-3.38 5.94632 5.94632 0 0 1 3.83472-1.42964 4.69712 4.69712 0 0 1 2.53515.78014 4.98631 4.98631 0 0 1 1.885 2.20978l21.709 48.74763 21.70837-48.48759a4.75 4.75 0 0 1 4.5504-3.12003zm18.19775-15.59909a6.26844 6.26844 0 0 1-1.94971-4.81024 6.11934 6.11934 0 0 1 1.94971-4.67961 7.97273 7.97273 0 0 1 10.14 0 6.11934 6.11934 0 0 1 1.94971 4.67961 6.26844 6.26844 0 0 1-1.94971 4.81024 7.97273 7.97273 0 0 1-10.14 0zm1.23486 79.361a4.92921 4.92921 0 0 1-1.495-3.83478v-54.8575a4.93169 4.93169 0 0 1 1.495-3.83476 5.46459 5.46459 0 0 1 3.83472-1.36494 5.23441 5.23441 0 0 1 3.77 1.36494 5.05339 5.05339 0 0 1 1.42969 3.83476v54.8575a5.00607 5.00607 0 0 1-1.42969 3.89948 5.39517 5.39517 0 0 1-3.77 1.30023 5.46735 5.46735 0 0 1-3.83472-1.36489zm40.42798-2.40508a26.92468 26.92468 0 0 1-10.52942-11.43961 41.23625 41.23625 0 0 1 .13-34.44815 28.33346 28.33346 0 0 1 10.72412-11.69963 30.08829 30.08829 0 0 1 15.85974-4.15951 36.23537 36.23537 0 0 1 9.814 1.36494 27.08947 27.08947 0 0 1 8.515 3.96478 11.56786 11.56786 0 0 1 3.3147 3.05463 5.94322 5.94322 0 0 1 .97485 3.31528 4.51106 4.51106 0 0 1-.97485 2.98991 3.14555 3.14555 0 0 1-2.53516 1.1696 4.37227 4.37227 0 0 1-1.94971-.52009 12.14859 12.14859 0 0 1-1.755-1.03959 9.34992 9.34992 0 0 0-.97486-.65011 42.00184 42.00184 0 0 0-6.43457-3.51 19.12655 19.12655 0 0 0-7.47485-1.29962q-9.48981 0-14.75427 6.43462-5.26428 6.43429-5.26441 17.87421 0 11.44017 5.26441 17.67884 5.265 6.24015 14.75427 6.23987a20.07754 20.07754 0 0 0 7.60486-1.30023 34.93042 34.93042 0 0 0 6.43457-3.5094 31.07994 31.07994 0 0 1 2.72986-1.56027 5.16667 5.16667 0 0 1 2.20984-.65012 3.01488 3.01488 0 0 1 2.40515 1.1702 4.514 4.514 0 0 1 .97485 2.98993 5.39019 5.39019 0 0 1-.91015 3.05462 12.71711 12.71711 0 0 1-3.3794 3.05524 30.91783 30.91783 0 0 1-8.775 3.96478 36.874 36.874 0 0 1-10.33411 1.495 30.2135 30.2135 0 0 1-15.66446-4.03012zm104.57825-10.39938a4.33593 4.33593 0 0 1 1.04016 2.98993q0 3.25059-4.54956 5.97983a39.38591 39.38591 0 0 1-9.87988 4.09482 39.87738 39.87738 0 0 1-10.13941 1.36493q-14.69165 0-23.204-8.70972-8.51568-8.70791-8.5144-24.04876a37.73439 37.73439 0 0 1 3.76941-17.22408 28.14047 28.14047 0 0 1 10.59472-11.63492 29.25543 29.25543 0 0 1 15.53443-4.15951q12.34845 0 19.62854 8.0596 7.27935 8.06139 7.28 21.839a5.60092 5.60092 0 0 1-1.04016 3.77007 4.31972 4.31972 0 0 1-3.38 1.1696h-41.85767q1.17024 22.36029 21.18885 22.35907a24.83436 24.83436 0 0 0 8.70971-1.36493 56.81664 56.81664 0 0 0 7.79956-3.70474q3.37885-1.95036 4.54957-1.95035a3.20361 3.20361 0 0 1 2.47013 1.17016zm-38.543-37.95817q-5.00592 5.20091-5.91455 14.68954h36.788q-.26184-9.619-4.80957-14.75425-4.55181-5.1341-12.73926-5.135-8.32066 0-13.32458 5.19969zm172.48013-39.32313a5.65777 5.65777 0 0 1 1.365 3.96478v82.28624a5.39033 5.39033 0 0 1-1.30017 3.76944 4.67165 4.67165 0 0 1-3.6394 1.43024 4.27087 4.27087 0 0 1-3.51-1.43024 5.76312 5.76312 0 0 1-1.17017-3.76944v-66.42709l-28.20827 54.07737q-1.82208 3.77247-5.32971 3.77-3.38234 0-5.32971-3.77l-28.33887-53.42725v65.777a5.56409 5.56409 0 0 1-1.23487 3.76944 4.46964 4.46964 0 0 1-3.5747 1.43024 4.67021 4.67021 0 0 1-3.64-1.43024 5.38491 5.38491 0 0 1-1.29956-3.76944v-82.28627a5.49387 5.49387 0 0 1 1.42969-3.96478 5.14609 5.14609 0 0 1 3.9-1.495q3.24794 0 5.19971 3.77007l33.01856 63.30655 32.62841-63.30657a7.54326 7.54326 0 0 1 2.27454-2.92521 5.05873 5.05873 0 0 1 2.92517-.84484 4.93811 4.93811 0 0 1 3.83435 1.495zm75.32971 77.2813a4.33583 4.33583 0 0 1 1.04016 2.98993q0 3.25059-4.54956 5.97983a39.38575 39.38575 0 0 1-9.87988 4.09482 39.8773 39.8773 0 0 1-10.1394 1.36493q-14.69166 0-23.204-8.70972-8.5157-8.70791-8.51441-24.04876a37.73452 37.73452 0 0 1 3.76941-17.22408 28.1405 28.1405 0 0 1 10.59473-11.63492 29.25542 29.25542 0 0 1 15.53442-4.15951q12.34863 0 19.62854 8.0596 7.27936 8.06139 7.28 21.839a5.60087 5.60087 0 0 1-1.04016 3.77007 4.3197 4.3197 0 0 1-3.38 1.1696h-41.85762q1.17 22.36029 21.18884 22.35907a24.83438 24.83438 0 0 0 8.70972-1.36493 56.8207 56.8207 0 0 0 7.79956-3.70474q3.37866-1.95036 4.54956-1.95035a3.2036 3.2036 0 0 1 2.47009 1.17016zm-38.543-37.95817q-5.00574 5.20091-5.91456 14.68954h36.788q-.26184-9.619-4.80957-14.75425-4.55165-5.1341-12.73926-5.135-8.3205 0-13.32458 5.19969zm66.81534 50.9574a34.58863 34.58863 0 0 1-9.55456-4.02951 12.79475 12.79475 0 0 1-3.3147-2.9252 5.55023 5.55023 0 0 1-.97485-3.31467 4.0707 4.0707 0 0 1 .97485-2.79458 3.22612 3.22612 0 0 1 2.53516-1.1055q1.55933 0 4.54956 1.95035a43.28679 43.28679 0 0 0 7.73425 3.70474 28.76519 28.76519 0 0 0 9.55457 1.36493q7.02025 0 10.91943-2.46982a7.95864 7.95864 0 0 0 3.9-7.15006 7.08089 7.08089 0 0 0-1.43029-4.61428 11.82631 11.82631 0 0 0-4.9397-3.11994 70.359 70.359 0 0 0-10.26941-2.79519q-11.44024-2.46768-16.37927-6.62935a14.004 14.004 0 0 1-4.9397-11.30956 16.36335 16.36335 0 0 1 3.12-9.8793 20.99185 20.99185 0 0 1 8.64441-6.76 30.45321 30.45321 0 0 1 12.54444-2.46983 35.32272 35.32272 0 0 1 9.81457 1.36494 29.23949 29.23949 0 0 1 8.3844 3.83477q4.41816 3.11965 4.42017 6.49992a4.15347 4.15347 0 0 1-1.04016 2.8599 3.20587 3.20587 0 0 1-2.46985 1.1696q-1.56043 0-4.67957-2.2098a41.33051 41.33051 0 0 0-6.89-3.64 21.84457 21.84457 0 0 0-8.05957-1.29962q-6.11206 0-9.81458 2.72988a8.59871 8.59871 0 0 0-3.70471 7.27946 7.30928 7.30928 0 0 0 1.365 4.6149 11.27744 11.27744 0 0 0 4.55017 3.11995 52.94577 52.94577 0 0 0 9.16443 2.66455 65.493 65.493 0 0 1 13.71411 4.29015 15.94846 15.94846 0 0 1 6.95471 5.71978 16.14927 16.14927 0 0 1 2.07972 8.57907 15.55853 15.55853 0 0 1-6.88941 13.19458q-6.89209 5.00588-18.19958 5.005a44.23245 44.23245 0 0 1-11.37404-1.43026zm102.62964-58.04217q5.71913 6.307 5.71985 18.78436v35.2283a5.05286 5.05286 0 0 1-1.42969 3.83478 5.23713 5.23713 0 0 1-3.77 1.36493 5.41357 5.41357 0 0 1-3.89941-1.36493 5.04431 5.04431 0 0 1-1.4303-3.83478v-34.96823q0-8.44874-3.4447-12.47977-3.4455-4.028-10.98486-4.02949-8.71051 0-13.90882 5.32973-5.20092 5.33184-5.20032 14.42889v31.7189a4.74352 4.74352 0 0 1-5.1997 5.19971 5.41353 5.41353 0 0 1-3.89942-1.36493 5.0443 5.0443 0 0 1-1.43029-3.83478v-82.67633a4.82032 4.82032 0 0 1 1.495-3.63943 5.32136 5.32136 0 0 1 3.83472-1.43026 5.187 5.187 0 0 1 3.83471 1.36495 5.00581 5.00581 0 0 1 1.365 3.70474v34.0587a21.10078 21.10078 0 0 1 8.70972-8.70972 26.59256 26.59256 0 0 1 12.73987-2.98991q11.17819-.00002 16.89864 6.30457zM463.264 241.63765a13.0133 13.0133 0 0 0-4.44671-8.52715 10.451 10.451 0 0 0-4.24019-2.64234c-.158-.361-.34753-.71168-.46919-1.08453q-2.914-8.92731-5.8125-17.85969c-.8431-2.65314-1.67811-5.30885-2.53065-7.95889q-7.13559-22.18062-14.28275-44.35746c-1.52773-4.73266-3.1076-9.44853-4.66359-14.172-.17781-.5391-.36113-1.07653-.53251-1.61766q-2.295-7.24735-4.59241-14.494c-.29652-.92864-1.03541-1.7997-.24582-2.81591a10.10039 10.10039 0 0 0 1.20506-4.79976 14.17783 14.17783 0 0 0-10.74874-15.1281 11.99924 11.99924 0 0 0-5.32041-.40867c-1.78684.66574-3.0989-.14886-4.48948-1.20589-2.99115-2.27364-6.1-4.3926-9.16055-6.57489-.17667-.154-.34247-.3232-.53168-.4599Q372.03863 82.819 351.67029 68.11429q-9.35544-6.74908-18.7377-13.461c-1.65823-1.2195-3.25767-2.53178-4.99253-3.63029-1.4935-.94564-2.56087-2.01143-2.46573-3.90377a1.96 1.96 0 0 0-.22655-.66393 1.13551 1.13551 0 0 1-.16255-.29418c-1.45737-7.17224-11.19857-12.07439-18.79066-6.941a5.49352 5.49352 0 0 0-1.86944 1.45118 1.82085 1.82085 0 0 1-1.87232.58186c-1.9286-.25458-3.87353-.38561-5.81189-.56629a.74644.74644 0 0 0-.34262-.10194 2.66728 2.66728 0 0 0-.8802-.08252l-.93717-.05509a.74513.74513 0 0 0-.3436-.10231 2.63605 2.63605 0 0 0-.87839-.08207q-.46893-.02777-.93778-.05539a.742.742 0 0 0-.34466-.10254 2.61231 2.61231 0 0 0-.8768-.08192l-.7243-.03642c-2.68586-.32388-5.36961-.66567-8.05781-.96808q-11.34132-1.276-22.68574-2.52392-8.0169-.88311-16.03688-1.73788l-.00015.00007c-3.48875-.25216-6.97139-.64639-10.4318-1.08914-3.65969-.46813-7.33373-.81974-10.9913-1.305a2.13458 2.13458 0 0 1-1.59786-.81793 9.61287 9.61287 0 0 0-3.62046-3.52253 11.626 11.626 0 0 0-6.69157-2.46347.27386.27386 0 0 1-.019-.21552h-2.39913c-.09362.33076-.37677.20683-.58957.24083a13.52159 13.52159 0 0 0-9.49047 5.7485 7.04356 7.04356 0 0 0-1.39533 2.321 2.49409 2.49409 0 0 1-1.38015 1.48617c-1.16818.54665-2.30349 1.16357-3.45256 1.75095-.1831.06892-.3736.1228-.54823.20879q-25.28731 12.45-50.57138 24.90664c-3.52872 1.73909-7.04589 3.50183-10.56835 5.25369-4.93494 2.32548-9.83445 4.72306-14.67955 7.23088a42.92389 42.92389 0 0 0-4.469 2.09788c-1.42821.86871-2.70324 1.38725-4.11633.105-.03809-.03453-.1494.01171-.22663.02033a9.27813 9.27813 0 0 0-1.43712-.74131 13.62431 13.62431 0 0 0-17.13032 18.02274c.25239.53849.52549 1.06843.75256 1.61742.36174.87431 1.26007 1.42217 1.44121 2.40113a2.91359 2.91359 0 0 0-.32056.34081q-11.81943 17.34444-23.63145 34.69379-5.7176 8.40261-11.41047 16.82186c-1.27783 1.84986-2.56586 3.6927-3.83145 5.55088q-4.14339 6.0836-8.26879 12.17944c-.982 1.4217-1.98642 2.8286-2.9344 4.2726a1.72961 1.72961 0 0 1-1.4137.84453 13.64062 13.64062 0 0 0-12.04975 10.76838c-.073.30408.07624.75022-.37247.91957v3.83863c.46655.35478.34957.91949.4837 1.38838a13.31128 13.31128 0 0 0 8.127 9.25221c.63528.27537.46012.84174.46216 1.33005q.04726 11.2851.0838 22.57012c-.0136.15869-.03914.31738-.03906.476q.01655 25.87616.03725 51.7524c.00015.19957.00771.39914.01217.59864.115 5.18771.09037 10.37558.00929 15.56345a13.737 13.737 0 0 0-8.85054 10.17635c-.104.44267.10012.96869-.32577 1.33118v3.11882c.26509.05705.226.28133.25692.46722a13.6204 13.6204 0 0 0 14.09512 11.40019c.4639-.03325.62909.23109.83947.51982 1.0104 1.3871 2.00062 2.78977 3.04163 4.15352 1.77891 2.33039 3.30165 4.85046 5.23789 7.06373a4.66384 4.66384 0 0 0 .2836.51166q6.03225 8.317 12.07613 16.62561c2.25075 3.079 4.5519 6.12127 6.83031 9.18.97125 1.36118 1.927 2.73362 2.91664 4.08127q4.41973 6.01864 8.86077 12.02134c.01995.11555.00295.25822.06507.34262 3.48188 4.73069 6.95219 9.47015 10.46951 14.17439 1.04879 1.40274 2.217 2.70959 1.25607 4.6292-.45763.51076-.23819 1.14469-.28383 1.71839a14.4161 14.4161 0 0 0 18.74314 15.0069c1.53135-.92395 2.89646-.41237 4.27434.42242a26.2489 26.2489 0 0 0 2.85936 1.44589c1.95755.87974 3.76873 2.06644 5.81318 2.76142l.00008.00008c.30551.177.602.37224.91775.52836q19.64 9.70647 39.284 19.4051 8.45148 4.17115 16.9136 8.32116c3.05289 1.66269 6.17628 3.1818 9.35166 4.59527a3.91209 3.91209 0 0 1 2.06584 2.11435 5.92543 5.92543 0 0 0 .734 1.04471 15.89187 15.89187 0 0 0 11.81581 6.95816.23908.23908 0 0 1 .01745.21317h2.879c.12045-.40148.45635-.20539.69809-.23939a14.52959 14.52959 0 0 0 6.73773-2.45584 3.50986 3.50986 0 0 0 1.45632-.93407c.83032-.7237 1.64145-1.41453 2.8509-1.20967l.00665.00068c.43836.0133.87664.03816 1.315.03823 17.81383.002 35.62787-.04262 53.44132.04119a22.60469 22.60469 0 0 0 9.65483-1.66058c1.10954-.50009 2.2979-.825 3.44976-1.23135q7.21539-2.545 14.43063-5.09092c.30491-.07964.61723-.13821.91375-.242q11.12109-3.89594 22.23756-7.80466c.68025-.23932 1.3404-.52753 2.0245-.03506a14.87841 14.87841 0 0 0 14.31313-.16541 14.45087 14.45087 0 0 0 7.79-10.65836c.06907-1.6979 1.06828-2.664 2.40747-3.62024 9.86392-7.04317 19.67026-14.167 29.48749-21.27544 3.87082-2.80277 7.72335-5.63069 11.58419-8.44721l.00008-.00007v.00007c1.91659-1.4585 3.88517-2.84031 5.88119-4.19061 2.40739-1.62869 4.72328-3.39279 7.07892-5.098.40775-.29524.79125-.70488 1.35248-.293a12.41714 12.41714 0 0 0 7.65187 1.67025 13.08229 13.08229 0 0 0 11.47107-8.32925c2.11556-5.00613 1.31032-9.76463-2.13294-13.99386-.31934-.39219-.13594-.62795-.16277-.94125a2.66632 2.66632 0 0 0 .20486-.41494q2.29307-7.72614 4.57744-15.455c.61065-1.93088 1.24639-3.85435 1.82758-5.79406q4.26489-14.23662 8.50591-28.48019c2.03146-6.21134 3.85057-12.487 5.68918-18.75681.88836-2.98276 1.76667-5.96862 2.66712-8.94775q3.68851-12.20278 7.392-24.401a1.69264 1.69264 0 0 1 1.24352-1.65143 7.94475 7.94475 0 0 0 3.19782-2.15825 12.81836 12.81836 0 0 0 4.27586-7.04265c.11864-.46556-.00348-1.02634.46715-1.37614v-3.11881c-.06502-.03551-.18207-.0643-.18761-.10745zm-64.095 128.50408a2.02613 2.02613 0 0 1-1.04531 2.2701c-1.80695 1.16266-3.534 2.44374-5.27077 3.70533a32.37859 32.37859 0 0 0-4.95225 3.69792c-.056.12876-.13617.241-.20229.36287q-7.93755 5.35272-15.66531 11.00369l-.00008.00015q-4.84071 3.39018-9.68037 6.78179-8.30185 5.84511-16.59992 11.69528c-.32879.23078-.63393.77917-1.18889.19557-.62592-.65834-1.34471-1.22834-2.02314-1.83672q2.04562-3.94548 4.09117-7.891 2.56192-4.47959 4.78978-9.1344c1.44249-2.34015 2.57614-4.842 3.81309-7.28968 1.59626-2.49528 2.69886-5.25066 4.12752-7.83435.90362-1.67448 1.82523-3.33959 2.70686-5.02548 1.42194-2.71918 2.81758-5.45205 4.2244-8.17909q3.99093-7.2375 7.67755-14.63459a3.95963 3.95963 0 0 0 .26162-.383c1.56815-2.96991 3.10948-5.95139 4.5729-8.977 1.47007-3.03928 3.15868-5.97292 4.75155-8.95281q.74629-1.33731 1.49274-2.67453c1.5436-2.75289 2.80148-5.66038 4.50913-8.32433a2.95468 2.95468 0 0 0 1.44007.51121 6.48246 6.48246 0 0 0 2.399.67745 2.09433 2.09433 0 0 1 2.43369 2.22627c.00665.10231.11048.19836.16912.29727a62.544 62.544 0 0 0 1.917 6.72361 30.35665 30.35665 0 0 0 1.25811 4.477 33.02815 33.02815 0 0 0 1.39337 4.85183 62.376 62.376 0 0 0 1.91765 6.72557 36.64969 36.64969 0 0 0 1.43115 5.05464c.56063 2.04755 1.13305 4.09193 1.67116 6.14537a2.58982 2.58982 0 0 1 .20985.82957c-.05335.06672-.10217.1367-.1559.2032a1.38607 1.38607 0 0 0-.20576.27158c-.01391.02456-.03084.047-.04489.07141a12.21752 12.21752 0 0 0-5.17215 6.75308c-.09718.08577-.18469.18-.28768.26055a8.99828 8.99828 0 0 0-.76372 5.34467zm-278.62272 26.25052a.56684.56684 0 0 0 .024-.06733 14.56752 14.56752 0 0 0-8.85254-15.91294c-.36476-.14955-.91594-.11464-.9643-.71622a25.03262 25.03262 0 0 0 .76261-4.2779 54.64227 54.64227 0 0 0 1.18768-6.5034.98479.98479 0 0 0 .10224-.46186 34.66668 34.66668 0 0 0 .85693-4.8182 21.1192 21.1192 0 0 0 .73647-4.05021 35.23257 35.23257 0 0 0 .958-5.26585.75763.75763 0 0 0 .05259-.46141c.21008-.99907 1.013-1.43342 1.99541-1.727a6.26259 6.26259 0 0 0 1.04917-.5369v-.00008c.513-.045.88586-.77939 1.56007-.08312 3.195 3.29976 6.44552 6.54587 9.69087 9.79652 2.79128 2.79581 5.6022 5.572 8.40451 8.35682 2.51039 2.74065 5.15726 5.34573 7.85189 7.90335 2.09092 2.16952 4.04817 4.46931 6.30972 6.4725q3.8403 3.83518 7.68051 7.67038l11.26847 11.29522c3.15287 3.25035 6.28563 6.52079 9.576 9.63451q4.4577 4.51845 8.91541 9.03684a3.909 3.909 0 0 0 .9433 1.02574 39.03012 39.03012 0 0 1 4.0756 4.24873 15.3361 15.3361 0 0 0-3.66475 5.44479 3.95991 3.95991 0 0 1-1.62536-.19979c-.1197-.01073-.23886-.01958-.35841-.028-.21529-.13013-.43179-.25769-.65637-.36884q-25.51707-12.62468-51.03928-25.23891c-3.82918-1.89189-7.67144-3.75725-11.50878-5.63266-.17312-.16156-.35849-.30717-.52579-.47637a21.14093 21.14093 0 0 0-3.648-1.914 1.50913 1.50913 0 0 1-1.0673-1.80914 1.22149 1.22149 0 0 0-.09057-.33527zm293.74695-48.92734c-.225.18642-.44962.46481-.67133.00551a1.44407 1.44407 0 0 0-.14237-.06393q-.95634-4.01076-1.91274-8.02146-.72023-3.00058-1.4403-6.00134l-1.87231-7.66833c-.22859-1.80211-.86584-3.50848-1.23589-5.27749a12.87261 12.87261 0 0 0-.37609-1.61388 3.11263 3.11263 0 0 1 .74727-3.50666 14.41185 14.41185 0 0 0 3.70442-11.20115 3.975 3.975 0 0 0-.06634-.98622.98984.98984 0 0 0-.11177-.46156l-.03324-.46057c-.22323-1.11287.93876-1.53408 1.20082-2.40468v-.00008c.20932-.23516.41607-.47251.62826-.70511a77.04922 77.04922 0 0 0 5.60908-6.732 70.25254 70.25254 0 0 0 5.25519-6.24814c.39673-.47373.77569-.96363 1.19312-1.41838 2.1943-2.39048 4.28674-4.86558 6.24346-7.45472 1.95105-2.06251 3.72558-4.27457 5.49905-6.48768q1.806-2.15682 3.61193-4.31364c.53486-.42945.56274-1.39443 1.48941-1.41007a3.9955 3.9955 0 0 1-.42574 1.68483 25.824 25.824 0 0 0-1.2513 4.04477c-.02056.03423-.05434.0665-.05985.103l-.00635.03816a2.78681 2.78681 0 0 0-.18083.38531q-5.75272 17.2023-11.49775 34.40725-4.61379 13.83048-9.20929 27.66693c-.84959 2.36191-1.71611 4.7183-2.35019 7.151q-1.30363 3.39177-2.29276 6.88781c-.01618.02028-.02932.04234-.04557.06252zM71.7276 315.07778a.83093.83093 0 0 0-.75446.01 12.3773 12.3773 0 0 0-5.57711-2.69968c-.02047-.04731-.04042-.09484-.0609-.14215a1.3404 1.3404 0 0 0-.52829-.46843c-2.15327-.99839-4.28583-2.03947-6.41242-3.09324a.73787.73787 0 0 0-.777-.04254l-.01081-.02781a6.31948 6.31948 0 0 0-2.35722-1.388 2.481 2.481 0 0 1-1.75345-2.84213 12.9102 12.9102 0 0 0-5.13973-11.29137 1.32976 1.32976 0 0 1-.50735-1.55992c.47539-1.77325.90294-3.55919 1.345-5.34127a3.04835 3.04835 0 0 0 .10881-1.53423c.27159-.08645.34867-.35886.41607-.60211.46375-1.67289.87022-3.36067 1.26891-5.05a.98534.98534 0 0 0-.169-.99362.54538.54538 0 0 0 .51415-.48567 47.96933 47.96933 0 0 0 1.66277-7.27531.90333.90333 0 0 0 .31843-.57332c.46141-1.67841.87348-3.36974 1.27239-5.06394a.98636.98636 0 0 0-.17327-1.00277c-.00537-.03937-.01187-.07859-.01731-.118.71849.08086.62313-.628.72544-1.01682.68758-2.6137 1.33141-5.239 1.9806-7.86277.11078-.44758.31866-.92577-.08531-1.35158l-.00031-.00046c.5697-.20932.61164-.7772.73338-1.25463 1.10485-4.33381 2.17284-8.677 3.25956-13.01542a3.40776 3.40776 0 0 0 .13283-1.30259c-.03265-.2239-.03771-.44735-.05932-.6711.17418-.61.35055-1.21934.51642-1.83158.98584-3.63717 1.69957-7.34514 2.84644-10.94052q1.469 4.06936 2.93818 8.13874c.23047.71516.4435 1.43652.69438 2.14442q2.04459 5.77 4.10469 11.5344 2.05741 5.8773 4.11483 11.75452l4.79469 13.66363c.07814.2666.144.53743.23607.799q5.23312 14.87761 10.47352 29.75257c1.32679 3.75974 2.68329 7.509 4.02709 11.26266a3.25966 3.25966 0 0 0-.18151.29116 3.36555 3.36555 0 0 0 .32372 1.2578c1.17945 3.53009 2.53806 6.9989 3.61911 10.56314a.50519.50519 0 0 0-.508.27318 2.442 2.442 0 0 1-2.77344 1.33594c-.0396-.0696-.08342-.13625-.123-.20592a34.76905 34.76905 0 0 0-4.79446-2.38964c-.64285-.26622-1.20688-.81128-1.99095-.66582-.00953.01262-.00953.02486-.01829.03741a5.48824 5.48824 0 0 0-3.54687-1.73607c-.01043.024-.00559.045-.0142.06862a3.87839 3.87839 0 0 0-2.8469-1.457c-.02319-.04594-.04715-.09159-.07035-.13761a30.92777 30.92777 0 0 0-4.56777-2.28717.3327.3327 0 0 0-.29576.02169c-.0059-.01428-.01293-.028-.01882-.04239a51.1653 51.1653 0 0 0-6.2939-3.14428zm51.352-234.00467c.11275-.12839.2292-.25375.34481-.3798.43058-.20833.862-.415 1.28917-.63022 2.07218-1.0441 4.254-1.86869 6.22751-3.1104a34.72 34.72 0 0 0 5.27167-2.4556c.44637.11289.74516-.21461 1.09148-.3801q15.13593-7.23172 30.26507-14.47771c5.26887-2.52717 10.52339-5.08435 15.7844-7.628q2.71224-1.33321 5.42447-2.66659c2.19067-1.03526 4.40009-2.03349 6.56325-3.12331.91466-.46073 1.54851-.55444 1.8538.61382.01436.05494.11917.0863.18181.12862l.678 1.153a44.44627 44.44627 0 0 0-2.34234 4.82953 51.30283 51.30283 0 0 0-2.65042 5.5029 75.23407 75.23407 0 0 0-3.35923 6.95741 67.48507 67.48507 0 0 0-3.131 6.443 76.62343 76.62343 0 0 0-3.3578 6.956 43.263 43.263 0 0 0-2.37619 4.84918 46.8095 46.8095 0 0 0-2.408 5.01618c-.369.69967-.76889 1.38521-1.09632 2.10377a1.13242 1.13242 0 0 1-1.08642.7531 13.39869 13.39869 0 0 0-9.73734 4.923 1.13388 1.13388 0 0 1-1.41824.40723c-1.13629-.35652-2.30047-.62441-3.453-.92916q-3.47882-.96405-6.95763-1.928c-2.69773-.80652-5.39182-1.62642-8.14547-2.22891a64.66182 64.66182 0 0 0-6.72972-1.87919c-.55073-.12272-1.08189-.31307-1.61879-.4747a38.135 38.135 0 0 0-5.57295-1.48028 42.91925 42.91925 0 0 0-5.51568-1.6039q-3.44447-.95428-6.88909-1.90858a.67214.67214 0 0 0-.03424-.13753c-.44871-.46965-1.14286-.44758-1.68626-.78567 1.5179-.91753 3.17379-1.44877 4.59066-2.42909zm315.20184 154.55776a13.30228 13.30228 0 0 0-.23917 14.67161 2.02042 2.02042 0 0 0 .66378 1.50264c.54657.53682.47712.95576-.02985 1.49939a3.70467 3.70467 0 0 0-1.21179 1.8544.64848.64848 0 0 0-.538.172c-1.44158 1.272-2.58022 2.82649-3.90671 4.20634a.36887.36887 0 0 0-.03884.43239c-.36733-.16315-.57673.23168-.81378.46473-1.72269 1.69322-3.23349 3.58631-4.96366 5.27318a1.85769 1.85769 0 0 0-.6637 1.21927 4.47907 4.47907 0 0 0-1.87624 1.61689 7.195 7.195 0 0 0-2.01068 2.673c-.00007.00431.00038.00869.00031.013a.41813.41813 0 0 0-.506.12279 54.8702 54.8702 0 0 0-4.02331 4.395.5746.5746 0 0 0-.04836.46435c-.00114.03038.00045.06136-.00015.09181-.45582-.21075-.7197.24174-.98395.49761-1.63655 1.584-3.12763 3.30883-4.64364 5.00439-.59849.66929-1.4165 1.20944-1.68544 2.14624a.873.873 0 0 0-.76186.43458c-.85481 1.11083-1.947 2.00554-2.81689 3.08969a9.00971 9.00971 0 0 0-1.76712 2.27879c-.72333.131-1.06224.76828-1.45511 1.28236-.29343.384-.51725.31-.77645.14214.00575-.00333.00779-.00854.01368-.01179a1.37757 1.37757 0 0 0 .57272-1.12571c.2032-2.0904.3139-4.18858.51967-6.2792a1.61966 1.61966 0 0 0-.16489-1.01743 1.78659 1.78659 0 0 1 .17774-.22216 23.17038 23.17038 0 0 0 .47886-4.91137 4.05057 4.05057 0 0 1 .1194-1.56733 5.74323 5.74323 0 0 0 .1005-1.16614 4.13808 4.13808 0 0 1 .13625-1.49667 5.491 5.491 0 0 0 .09853-1.13206 3.76653 3.76653 0 0 1 .13285-1.28977 1.16374 1.16374 0 0 0-.13874-.9065c-.03544-.00612-.05788-.00143-.09076-.00536.07882-.54816.18106-1.094.23252-1.64456q1.05053-11.24237 2.08715-22.48594.75423-8.20653 1.48624-16.415.02743-.58251.05479-1.16494l.00007-.00022v.00022a3.10809 3.10809 0 0 0 .18469-1.45971q.71421-7.68149 1.42851-15.363l1.22123-13.43844q.01972-.35047.03959-.70088l.00076-.00234a3.03679 3.03679 0 0 0 .1837-1.44347q.03072-.58875.06136-1.17741l.00045-.00158a3.15673 3.15673 0 0 0 .18492-1.46116c.16095-1.48677.322-2.97361.50954-4.7059.67942.94556 1.17906 1.64085 1.67864 2.33621q2.96409 4.90851 6.228 9.623 2.494 4.1707 5.27628 8.15506c1.96337 3.25261 4.03888 6.43283 6.17862 9.57163 1.6138 2.64219 3.27875 5.25127 5.04467 7.79476l.00476.05381a2.96539 2.96539 0 0 0 .56289 1.42556c.77562 1.25 1.54111 2.5082 2.40347 3.69936a1.12722 1.12722 0 0 1-.19126 1.80989 4.00393 4.00393 0 0 0-1.72079 2.57795zm-306.1586 77.35123c.02668.025.0464.05494.07361.07957.41629-.07307.57611-.41879.71289-.73965.54672-1.28221 1.19833-2.51689 1.71831-3.81021a1.49486 1.49486 0 0 0 .18634-.87778l.00869.00008a10.51372 10.51372 0 0 0 2.04914-4.05944 2.31654 2.31654 0 0 0 .358.61693q7.47179 9.6752 14.89408 19.3884a3.38688 3.38688 0 0 0 .91723.9377 42.60019 42.60019 0 0 0-4.30729.47056.93242.93242 0 0 0-.68925.41916.8942.8942 0 0 0-.3569-.14282 19.31967 19.31967 0 0 0-4.75849.65607.64244.64244 0 0 0-.093.237 4.00147 4.00147 0 0 0-3.6683.46821 1.31676 1.31676 0 0 0-.35728-.18431 27.92173 27.92173 0 0 0-4.46817.44365.65731.65731 0 0 0-.45823.22156 1.76 1.76 0 0 0-.34081-.0374c-1.66715.21854-3.38213.12914-4.98572.77138a.8894.8894 0 0 0 .04262.25579c-.042-.002-.08056-.00846-.12416-.00869a1.25586 1.25586 0 0 0-1.8204.2032l-.02516-.0334c-1.21337-.28715-1.21315-.287-.68086-1.51269a2.594 2.594 0 0 0 .36809-1.24768c.3068-.107.43995-.398.58254-.66415a16.39838 16.39838 0 0 0 1.54934-3.87188l-.00159-.01428a.677.677 0 0 0 .41826-.34761 16.67452 16.67452 0 0 0 1.74227-3.97011c-.02774-.04625-.057-.09159-.08471-.13783a4.77043 4.77043 0 0 0 1.611-3.48029c-.00309-.0103-.00899-.01884-.01209-.02904zm28.8924 21.72507c2.05881 2.62835 3.98462 5.08683 5.90983 7.54448 2.45047 3.35576 4.96525 6.66209 7.59368 9.88108 1.43644 2.083 2.99122 4.07507 4.61832 6.01161q2.06513 2.75316 4.12767 5.5082a.93377.93377 0 0 0 .84143.33521q3.39926.02958 6.79827.07322l4.74119.068c4.33525.23887 8.67474.234 13.01429.226 4.3685.28119 8.74342.22413 13.11676.25051a15.9087 15.9087 0 0 0 1.69337.09377c2.26163.10285 4.52553.10209 6.78958.10021q-.98955 2.15727-1.979 4.31446-1.14516 2.413-2.29042 4.826-.96948 2.03883-1.939 4.07765a42.64243 42.64243 0 0 0-2.17292 4.55379q-1.10426 2.27493-2.20843 4.54978-1.2974 2.76426-2.59488 5.5286-.87109 1.78968-1.74226 3.57936l.00008.00007q-.91791 1.93319-1.83574 3.86636l-2.1612 4.55243a43.97977 43.97977 0 0 0-2.17775 4.55469 38.11671 38.11671 0 0 0-2.15924 4.55954 16.32851 16.32851 0 0 0-1.40387 2.88958 29.41918 29.41918 0 0 0-1.55305 3.23992c-.60128.23811-.90838-.21378-1.26951-.54574a5.2417 5.2417 0 0 0-1.47642-1.19856 1.2382 1.2382 0 0 0-.32637-.59131c-1.89378-2.35632-4.16259-4.3518-6.26764-6.50462-.237-.24234-.48174-.55579-.91126-.40783l-.03121-.00287c.22466-.49466-.23161-.76186-.50236-1.03738q-3.09536-3.14976-6.2393-6.25154a2.31824 2.31824 0 0 0-.84325-.56516.71181.71181 0 0 0-.1729-.40118 37.75753 37.75753 0 0 0-4.27948-4.16205c-.03695-.01126-.07231-.02675-.10919-.03816a5.1743 5.1743 0 0 0-2.93644-2.89624c-.02577-.00174-.05-.00771-.07572-.00975a5.116 5.116 0 0 0-2.9978-3.0674 9.61015 9.61015 0 0 0-3.598-3.78376c-.03264-.00189-.06212-.01247-.09423-.01587q-1.45291-1.47876-2.90591-2.95745c-1.31116-1.72-3.182-2.88293-4.53762-4.55877-2.26057-2.51032-4.64613-4.89769-7.10257-7.21517-.28126-.32909-.54226-.67836-.847-.98395q-3.57528-3.58491-7.16469-7.15547a4.82138 4.82138 0 0 0-.41207-.55481c-6.89975-7.00259-13.77433-14.03043-20.73386-20.97318-1.23831-1.23536-2.17269-2.34173-1.38883-4.14656l.06816-.43367q.22443-.024.44886-.04814 2.15739-.25754 4.3147-.515v-.00007q1.31871-.23055 2.63727-.46118 1.086-.13455 2.172-.269c2.08072-.27038 4.17157-.47146 6.22622-.91806a30.469 30.469 0 0 0 4.80037-.70322 30.53971 30.53971 0 0 0 4.31666-.54363l5.03718-.71387c1.33934-.17766 2.67997-.35554 4.1755-.5539zm173.299 66.20683a15.7055 15.7055 0 0 0-1.8801 3.16223 2.30393 2.30393 0 0 1-1.59188 1.266 2.43263 2.43263 0 0 1-3.043-.83486 1.12462 1.12462 0 0 0-.685-.44735l-.00627.00045a31.174 31.174 0 0 0-3.2548-4.22651 57.44949 57.44949 0 0 0-3.77719-4.82386 23.96093 23.96093 0 0 0-2.44-3.09974 18.02846 18.02846 0 0 0-2.485-3.092 29.29528 29.29528 0 0 0-2.91913-3.82933q-1.52411-1.92637-3.04813-3.85276a44.282 44.282 0 0 0-3.41144-4.31772 25.1561 25.1561 0 0 0-2.602-3.35439 18.99079 18.99079 0 0 0-2.09561-2.6613 21.76174 21.76174 0 0 0-2.23472-2.85559c-.25867-.69959-1.08869-1.05778-1.12814-1.88833.53509-.00378.688-.47977.95018-.798q2.92668-3.55294 5.83-7.12494c1.88561-2.12357 3.70865-4.29852 5.40157-6.58033a8.3939 8.3939 0 0 0 1.49825-1.66737q4.70334-5.70842 9.389-11.4314 2.88078-3.42872 5.76066-6.85834 5.36474-6.41606 10.72032-12.84c-1.287-.57884-2.56337.0473-3.84543.0334a18.58225 18.58225 0 0 0-3.359.22693q-2.28093.14088-4.56187.28186l-3.60021.23917q-2.99505.21525-5.99024.43057a20.62021 20.62021 0 0 0-3.5987.2397 15.73556 15.73556 0 0 0-3.35886.23992 13.41735 13.41735 0 0 0-3.36051.23963 45.15891 45.15891 0 0 0-5.035.27763q-3.11939.22523-6.23877.45037-2.28354.13806-4.56716.276-2.87467.218-5.74926.43587a46.87592 46.87592 0 0 0-5.05056.29108c-.2202.0139-.44146.03771-.66226.05758a1.8612 1.8612 0 0 0-.39076.034 20.59252 20.59252 0 0 1-4.04318.1791c-2.58944-.25935-3.82805.86667-4.21881 3.26689-.01269.07791-.0244.15589-.03657.23388a9.52386 9.52386 0 0 1-.84219 1.41226c-.77637.91428-.5032 1.60564.3433 2.23919a11.41334 11.41334 0 0 0 1.68627 2.14692 9.56775 9.56775 0 0 0 1.68664 2.15069 17.10221 17.10221 0 0 0 2.1241 2.69395q.98274 1.27824 1.96541 2.55657l1.36435 1.70417a9.76671 9.76671 0 0 0 1.50272 1.918 12.87348 12.87348 0 0 0 1.68642 2.14851 18.82954 18.82954 0 0 0 2.13331 2.70506q.97923 1.27088 1.95854 2.54183a25.23673 25.23673 0 0 0 2.36334 2.95971 8.51144 8.51144 0 0 0 1.45828 1.87435 18.05594 18.05594 0 0 0 2.08541 2.65118 23.15927 23.15927 0 0 0 2.4643 3.13457 11.56219 11.56219 0 0 0 1.6815 2.15463q.9832 1.29242 1.9664 2.5849c-.05955.24673-.24544.26992-.45529.26607-3.26334-.05962-6.52653-.12665-9.79017-.17a6.55777 6.55777 0 0 0-2.79823.15574q2.419 3.02212 4.838 6.04411a19.45337 19.45337 0 0 0 2.17586 2.835 16.67473 16.67473 0 0 0 2.134 2.68661 24.98564 24.98564 0 0 0 2.62948 3.38206 46.54245 46.54245 0 0 0 3.33007 4.26747 48.28283 48.28283 0 0 0 3.40132 4.35225q1.45394 1.88172 2.9078 3.76351 1.17827 1.48557 2.35654 2.97128a22.44849 22.44849 0 0 0 2.38352 3.06641q1.82946 2.59219 3.89953 4.99668 1.60515 2.28955 3.42649 4.41082a.89612.89612 0 0 0-.00574.27589 1.84856 1.84856 0 0 0 .18015.43829c.65614 1.163.65569 1.16229-.65826 1.351-1.99685.28678-4.01681.40224-5.99552.80773a6.15715 6.15715 0 0 0-.78166.33952c-4.33231.46527-8.66665.91353-12.97583 1.57141-1.86271.2171-3.72588.42967-5.588.65206q-11.59806 1.38514-23.19552 2.77541-12.48944 1.49588-24.97813 2.99765c-3.04782.36959-6.09013.7846-9.13485 1.17891h-.00031c-1.61742.16542-3.2381.30416-4.85159.50206-2.75478.33779-5.50608.70451-8.25836 1.06247-.21393-.05123-.42831-.09861-.64111-.15839a28.2788 28.2788 0 0 0-4.34341.36567c-.48718.03982-1.05279.26184-1.2906-.44237-.00854-.02509-.02562-.03687-.03514-.06045.67783-1.052.79708-2.3669 1.54065-3.388a17.87659 17.87659 0 0 0 1.40758-3.0751 47.49266 47.49266 0 0 0 2.37022-5.10474 31.59866 31.59866 0 0 0 1.90412-4.09782 46.58859 46.58859 0 0 0 2.20125-4.77157 28.95445 28.95445 0 0 0 1.89238-4.08527 22.77226 22.77226 0 0 0 1.67372-3.59741 58.67383 58.67383 0 0 0 2.65737-5.75477 36.89661 36.89661 0 0 0 2.13113-4.58175 45.25046 45.25046 0 0 0 1.95967-4.23626 35.3982 35.3982 0 0 0 2.13422-4.62089 41.80765 41.80765 0 0 0 2.221-4.7783h.00007q1.29072-2.65215 2.58151-5.30431 6.34974.09646 12.69955.19277 7.20179.12513 14.40366.25035 7.43552.16639 14.871.33287c.28337-.39733-.14245-.54975-.29857-.752-.88942-1.15193-1.81072-2.27916-2.72122-3.41485l-2.03388-2.59926q-.84172-1.07819-1.68354-2.15636a15.83058 15.83058 0 0 0-1.88811-2.41156 29.55739 29.55739 0 0 0-2.22528-2.86284q-1.2151-1.56275-2.43029-3.12558a17.5368 17.5368 0 0 0-2.3412-2.87825 9.90062 9.90062 0 0 0-1.82879-2.42893 18.11393 18.11393 0 0 0-2.268-2.85158 21.68455 21.68455 0 0 0-2.58102-3.36609c-.789-1.48919-1.7242-2.66191-3.65273-1.69073a.2237.2237 0 0 1-.11728.01633c-2.133-.21877-2.99311 1.07569-3.42535 2.87946q-1.008 2.14287-2.016 4.28568l-1.56422 3.3921q-.7199 1.55958-1.43977 3.11924-.769 1.66556-1.53793 3.33119-.9569 2.0411-1.91387 4.082a25.59608 25.59608 0 0 0-1.56363 3.38334q-.72135 1.55924-1.44271 3.1184-.50281 1.07445-1.00579 2.14889c-3.26765-.06333-6.5356-.11093-9.80226-.207-.517-.01527-1.11952.22624-1.56045-.28406q.40421-.9408.80849-1.88161a25.3896 25.3896 0 0 0 1.74173-3.59484l-.00008-.00008q.68691-1.44521 1.37365-2.89042.85386-1.79954 1.70788-3.59908a12.22368 12.22368 0 0 0 .92267-1.92891c.48264-.45582.40828-1.15436.73178-1.67954q.3651-.70084.73028-1.40176a1.57048 1.57048 0 0 0 .47-.9798q.353-.734.70586-1.468a7.70028 7.70028 0 0 0 1.00247-2.08367 16.01567 16.01567 0 0 0 1.40342-2.93931 21.25059 21.25059 0 0 0 1.47052-3.11183 9.79734 9.79734 0 0 0 1.16478-2.4142c1.0367-1.72344 1.03723-1.7242-.40488-2.9276-.17856-.149-.36763-.28549-.55179-.4277q-1.12294-1.31679-2.24591-2.6335a14.94586 14.94586 0 0 1-1.83679-3.73948c-.25021-1.01342-.77237-1.17173-1.70871-1.023-2.75425.43723-5.52754.75476-8.28149 1.19418-2.33281.37224-4.69336.56214-7.00834 1.048a1.51087 1.51087 0 0 0-.539.10572 57.33678 57.33678 0 0 0-6.75066.9476l-.0028.00038a44.75369 44.75369 0 0 0-5.22512.73639 33.46162 33.46162 0 0 0-5.04973.71411 31.55863 31.55863 0 0 0-5.06084.714l-.00151.00022a32.53693 32.53693 0 0 0-5.05094.70882 16.66556 16.66556 0 0 0-3.55548.50138 3.46828 3.46828 0 0 0-1.67886.24008c-.40217.05274-.8567-.18106-1.19539.21861a6.45274 6.45274 0 0 0-2.38745.27582 12.25808 12.25808 0 0 0-2.40112.27105l-3.49911.56177a1.68074 1.68074 0 0 0-.6269.10065 13.13446 13.13446 0 0 0-3.31843.46761 35.16647 35.16647 0 0 0-4.80837.65674 1.37494 1.37494 0 0 0-.47773.08638 21.00437 21.00437 0 0 0-3.82329.51453 15.68884 15.68884 0 0 0-3.11825.455c-.92622.09854-1.85387.19723-3.01775.321-2.43959-3.17674-4.721-6.18217-7.0499-9.14929-.44667-.569-.37368-.80259.26887-.978l.6813-.08479q.96529-.12672 1.93058-.25352l3.59689-.47244a38.35624 38.35624 0 0 0 4.55122-.65524 30.81644 30.81644 0 0 0 4.31991-.53229q1.92048-.24926 3.84112-.49866 1.5564-.22059 3.11281-.44109a4.35222 4.35222 0 0 0 1.67977-.23244c.49254.0068 1.00518.14169 1.43916-.22541a10.98138 10.98138 0 0 0 2.64645-.28138q2.75053-.36522 5.50109-.73035 1.68187-.22965 3.36369-.45915a2.47632 2.47632 0 0 0 1.44211-.21876c.49042-.00159 1.0005.135 1.44317-.20418.64466-.049 1.32249.141 1.91727-.26652a11.23866 11.23866 0 0 0 2.63024-.28512q1.80748-.24041 3.61488-.48075a40.37687 40.37687 0 0 0 4.79152-.673 35.11554 35.11554 0 0 0 4.32981-.53327c2.08359-.251 4.17845-.42242 6.2328-.88042 2.17571-.10557 4.31485-.50524 6.46653-.80365q3.60021-.46893 7.20028-.93794 2.64376-.36214 5.28761-.72445c1.0197-.127 2.04816-.20736 3.05629-.39605.77259-.14448 1.09866-.9875.60476-1.43039a10.78946 10.78946 0 0 0-1.05982-.752 9.42348 9.42348 0 0 0-1.89294-1.45412q-.8048-.61141-1.60957-1.22267l.00008-.00007a14.21336 14.21336 0 0 0-2.45131-1.90171h.00008a41.73216 41.73216 0 0 0-4.066-3.12536c-2.09719-1.771-4.28681-3.42218-6.515-5.02328-3.611-2.80556-7.21222-5.62366-10.83556-8.413-3.24626-2.499-6.5167-4.96654-9.77657-7.44791l-.00022-.00031a78.42954 78.42954 0 0 0-6.49-4.96721v.00008a32.69745 32.69745 0 0 0-4.08445-3.12445c-1.04932-.627-1.74763-1.69821-2.85309-2.25408a3.43019 3.43019 0 0 0-1.2074-.93218 11.194 11.194 0 0 0-2.1612-1.67252q-1.3246-1.02887-2.64921-2.05767-.95918-.73609-1.91833-1.47242v.00008q-1.56015-1.20015-3.12022-2.40037a29.25894 29.25894 0 0 0-3.31933-2.54319l-.00008-.00023a17.77086 17.77086 0 0 0-3.4-2.51848 17.402 17.402 0 0 0-2.87871-2.34075c-.31133-.26176-.53176-.65062-1.08279-.41463-.74086.31738-1.52206.54053-2.28589.8041l-2.1448.25912-1.43924.00091c-.54929.00574-1.09617-.51975-1.6478-.00748a8.20717 8.20717 0 0 0-1.031 2.13551q-.44843.96868-.8969 1.93737-.93661 1.92717-1.8733 3.85434l-2.93409 6.22026q-.69428 1.4408-1.38854 2.88173-.40714.83312-.81438 1.66617a4.39517 4.39517 0 0 0-.75415 1.66117 21.68172 21.68172 0 0 0-1.60073 3.38667 31.38941 31.38941 0 0 0-1.86218 3.844q-1.09 2.28117-2.18 4.5624-.9671 2.03781-1.9342 4.07568-.96075 2.03577-1.92143 4.07168-.52582 1.06866-1.05151 2.13747-.93921 1.919-1.87843 3.83818c-1.83415-2.345-3.657-4.699-5.518-7.02225-.21128-.2638-.27068-.9535-.92561-.59017q-.71172 1.66011-1.42345 3.32016-1.18814 2.52306-2.37611 5.04611-.95712 2.0412-1.91425 4.08233a48.341 48.341 0 0 0-2.15357 4.56036q-1.12784 2.38533-2.25559 4.77081-.93513 2.0454-1.87019 4.09087c-.37156 1.05053-.97156 1.1567-1.95339.6634a8.7515 8.7515 0 0 0-3.3374-.85284 9.00371 9.00371 0 0 0-3.60883-.06491c-1.09851.2378-1.65551-.31557-1.866-1.31524a38.81657 38.81657 0 0 0-1.75058-5.15091 2.012 2.012 0 0 0-.2737-1.1437q-5.53981-15.89185-11.10777-31.77377c-1.53891-4.3877-3.1085-8.76466-4.66412-13.14646-.99974-3.245-2.11064-6.45119-3.35787-9.60972-1.07017-3.22283-2.07279-6.46917-3.34941-9.62014-.73677-1.903-1.17347-3.91087-1.99609-5.78394.02449-.16632.04119-.33264.07239-.499a49.80005 49.80005 0 0 0-1.72556-5.35313c-.11984-.34134-.25571-.78627-.699-.79466l.00355-.00529a.85305.85305 0 0 0 .07625-.69287 48.72955 48.72955 0 0 0-1.98415-5.75212.49524.49524 0 0 0-.25339-.26075 2.42282 2.42282 0 0 0-.1268-1.0506c-.764-2.10377-1.47679-4.225-2.198-6.34358a1.20829 1.20829 0 0 0-.53856-.77433 3.57449 3.57449 0 0 0-.241-1.346c-.40979-1.20589-.75891-2.43445-1.26687-3.60422-.34088-.78491-.16964-1.2504.6739-1.54919a2.8365 2.8365 0 0 0 1.67682-1.07766.47112.47112 0 0 0 .463-.01526 4.99407 4.99407 0 0 1 2.94014-.99506 23.88913 23.88913 0 0 0 4.13122 1.92241 33.79823 33.79823 0 0 0 4.5652 2.1105 36.24716 36.24716 0 0 0 4.5847 2.14662 38.01561 38.01561 0 0 0 4.743 2.18644 21.44181 21.44181 0 0 0 3.62228 1.69178 14.84974 14.84974 0 0 0 3.094 1.42707 16.13925 16.13925 0 0 0 3.08939 1.45179 31.37081 31.37081 0 0 0 4.1356 1.92105 29.66111 29.66111 0 0 0 4.08135 1.891 27.8921 27.8921 0 0 0 4.10688 1.90806c.594.30506 1.19766.593 1.78005.91881 1.08748.60854 2.38631.8199 3.29893 1.75564q-1.43806 5.861-2.87621 11.722l-2.4173 9.84231q-.95555 3.83869-1.911 7.67725-1.102 4.35105-2.20753 8.701a1.06448 1.06448 0 0 0 .31973.96929q2.11135 2.72255 4.21857 5.44827c1.26136 1.60571 2.36569 3.33354 3.7614 4.83475q2.06886 2.95967 4.39125 5.72491 1.9326 2.6236 3.86522 5.24712c.77237-.17789.67481-.92751.94383-1.4363q.60687-1.30851 1.2139-2.617a21.40775 21.40775 0 0 0 1.69231-3.59477 10.9442 10.9442 0 0 0 1.21-2.56866 32.59992 32.59992 0 0 0 1.95641-4.13182 11.41658 11.41658 0 0 0 1.12844-2.43627 22.80569 22.80569 0 0 0 1.6849-3.58238 43.76788 43.76788 0 0 0 2.42818-5.20479 49.819 49.819 0 0 0 2.63418-5.58542 35.55931 35.55931 0 0 0 2.13792-4.5587c1.08264-2.24992 2.15826-4.50331 3.25412-6.74681a.89123.89123 0 0 0-.14236-1.07637 12.68079 12.68079 0 0 1-2.41791-4.87774.937.937 0 0 0-.92531-.775 17.0081 17.0081 0 0 0-2.89283-1.37093q-1.55947-.72135-3.11886-1.44279a22.8771 22.8771 0 0 0-3.33331-1.54027 10.79508 10.79508 0 0 0-2.42229-1.11755 4.46837 4.46837 0 0 0-1.6679-.76632 12.02413 12.02413 0 0 0-2.62586-1.23332l-2.18735-1.05937a8.979 8.979 0 0 0-2.39977-1.00443 7.62258 7.62258 0 0 0-1.91667-.96529 2.76558 2.76558 0 0 0-1.16123-.53969 1.36141 1.36141 0 0 1-.05924-.46527q.99782-4.15257 2.02027-8.29924a.50023.50023 0 0 1 .42106-.36876q.70378.28257 1.40765.56523a15.65172 15.65172 0 0 0 3.08077 1.4304 6.90721 6.90721 0 0 0 1.98914.9297 16.31852 16.31852 0 0 0 3.10986 1.44082 7.61644 7.61644 0 0 0 2.13763.99778 4.11332 4.11332 0 0 0 1.4709.67995l3.08379 1.49a7.662 7.662 0 0 0 2.1612.94851q.84515.4449 1.69043.8898.46791.17262.93589.34518a1.91228 1.91228 0 0 0 .95221.42786c1.43486.82715 1.43592.82791 2.35858-.52541.109-.1599.19844-.3331.297-.5001a27.35023 27.35023 0 0 1 2.90221-2.81175 15.73691 15.73691 0 0 1 4.315-1.96881c.57823-.125.60067-.57083.653-1.00028.15415-1.26415.291-2.53042.43571-3.7957q.75264-6.58041 1.506-13.16067l.71387-5.995q.25187-2.28195.50365-4.56384.15031-1.3203.30076-2.64067a16.03332 16.03332 0 0 0 .38289-2.86949q.03186-.47685.06378-.95372a2.237 2.237 0 0 0 .19035-1.2077q.03276-.48515.0656-.9702a46.50476 46.50476 0 0 0 .64027-5.02586 46.927 46.927 0 0 0 .54521-5.04806 18.759 18.759 0 0 0 .44343-3.59485l.45113-3.59364q.25425-2.28253.50864-4.56505l.45181-3.60211a46.06 46.06 0 0 0 .54385-5.0362 49.85773 49.85773 0 0 0 .66733-5.27583q.24-2.03893.47992-4.07795a11.73473 11.73473 0 0 0 .26025-2.88119c3.0909-1.67214 6.35976-2.96644 9.524-4.483.18159-.08705.29048.0201.36567.17607q-.13726 1.54734-.27446 3.0946a19.53815 19.53815 0 0 0-.48 4.07477 19.45951 19.45951 0 0 0-.4803 4.07614 2.12345 2.12345 0 0 0-.18831 1.21118l-.0272.48408a7.5306 7.5306 0 0 0-.2635 2.38616 19.45352 19.45352 0 0 0-.47978 4.07832 5.40835 5.40835 0 0 0-.25277 2.1309 20.8054 20.8054 0 0 0-.48249 4.115 37.43869 37.43869 0 0 0-.67307 5.524 22.76706 22.76706 0 0 0-.51279 4.55742q-.21616 1.32028-.43209 2.64044-.02291.71422-.04587 1.42836a5.40574 5.40574 0 0 0-.25209 2.12961h-.00008a20.4498 20.4498 0 0 0-.48075 4.07727 44.23341 44.23341 0 0 0-.70708 6.02393 2.05831 2.05831 0 0 0-.18831 1.20816l-.01337.24658a10.19742 10.19742 0 0 0-.28066 2.61792 2.04853 2.04853 0 0 0-.18884 1.215l-.03876.72664c-.45741.67035-.17124 1.42753-.25028 2.14209-.061.06068-.08055.11184-.06733.15544a2.29822 2.29822 0 0 0-.12174 1.05287l-.06211.92788a43.91815 43.91815 0 0 0-.70776 6.02695 79.75722 79.75722 0 0 0-.95932 8.15711c-.49586 2.49868-.59954 5.04806-.98183 7.5599-.13443.88314.12431 1.37017.967 1.57828l2.409 1.94493q.47674.48739.95357.97473c.307.7237.78075.32229 1.21609.18008q.484-.13751.96809-.27514a5.72305 5.72305 0 0 0 1.91145-.66824q.5994-.14951 1.19871-.29916c.33642-.11864.74229-.07308.984-.41577a2.38626 2.38626 0 0 0 1.17506-.28338l.72007-.23055 1.6778-.51007q1.44-.46281 2.87992-.92547 1.55913-.486 3.11818-.97216 1.919-.603 3.83794-1.20612a12.78722 12.78722 0 0 0 2.666-.85632 13.30519 13.30519 0 0 0 2.61324-.8075 7.08483 7.08483 0 0 0 1.94108-.62554l.00015.00023a8.92934 8.92934 0 0 0 2.3786-.7871l.00008-.00008a2.70082 2.70082 0 0 0 1.19932-.296v-.00008a7.44235 7.44235 0 0 0 1.92626-.65085q1.07592-.36045 2.15191-.721a3.57551 3.57551 0 0 0 1.682-.491q.95814-.27408 1.91629-.54823l.00008-.00008 1.92142-.65153a13.64586 13.64586 0 0 0 2.63788-.78106q1.44215-.46575 2.88437-.93136l.00015-.00015c3.61866-1.11551 7.24305-2.21289 10.8546-3.35092 5.02064-1.58206 10.03161-3.19457 15.04673-4.79409l.00008.00008a19.288 19.288 0 0 0 3.63014-1.17355l.00052-.00008a9.27208 9.27208 0 0 0 2.14277-.70707v-.00008a6.26474 6.26474 0 0 0 2.43127-.72566h.00053a3.07131 3.07131 0 0 0 1.41944-.44116l.00031.00008q.83765-.26207 1.67508-.52421l.00015.00008a6.78561 6.78561 0 0 0 2.1909-.69862l.00068-.00007a8.07066 8.07066 0 0 0 2.383-.738q.34221-.12423.68448-.24839l-.00007-.00008.00015.00008q1.203-.36068 2.406-.72128a6.56468 6.56468 0 0 0 2.19378-.69839h.0003a8.23358 8.23358 0 0 0 2.35813-.73881 11.59973 11.59973 0 0 0 2.94376-.92751h.00038a21.65246 21.65246 0 0 0 3.84256-1.20324 13.40777 13.40777 0 0 0 3.10253-.97216l.00053-.00008a14.28776 14.28776 0 0 0 3.09506-.96876 3.26681 3.26681 0 0 0 1.45934-.46534.50977.50977 0 0 0 .51445-.22587h.00015a4.186 4.186 0 0 0 1.84466-.51733.90859.90859 0 0 0 .752-.22828h.00008a.89942.89942 0 0 0 .725-.22746h.00015a3.50892 3.50892 0 0 0 1.41483-.43836q.84152-.26761 1.683-.53509a1.61871 1.61871 0 0 0 .93053-.277c.93234-.14577.54075-.90778.66536-1.42949a2.95517 2.95517 0 0 1 .144-.70036c.50728-1.06881.06-1.67591-.84234-2.30485-2.22392-1.54987-4.34673-3.24384-6.55025-4.82416-2.4544-1.76018-4.76084-3.72475-7.34031-5.31157-2.79346-2.27342-5.68887-4.4109-8.63929-6.475-1.93662-1.53989-3.90762-3.03346-5.96287-4.41315a33.88073 33.88073 0 0 0-4.11264-3.01662c-.78438-.28564-1.11264-1.18012-1.91848-1.437q-.94851-.63951-1.89687-1.279a15.72886 15.72886 0 0 0-3.62281-2.80185 52.913 52.913 0 0 0-4.79545-3.60422 19.84592 19.84592 0 0 0-3.35666-2.40611 10.26858 10.26858 0 0 0-2.1544-1.68083q-.60087-.4559-1.20166-.91186-1.07161-.77508-2.14307-1.55017a24.74209 24.74209 0 0 0-3.85321-2.81229c-1.42851-1.06541-2.66153-2.39855-4.31757-3.15233a8.64911 8.64911 0 0 0-2.40422-1.87314q-.96064-.72952-1.92128-1.45911a29.49662 29.49662 0 0 0-3.34087-2.46219l-2.41223-1.816q-1.89918-1.40077-3.79843-2.80148a36.28733 36.28733 0 0 0-3.85389-2.84387q-1.55413-1.18757-3.10835-2.37513c.15393-.44969.60823-.47969.94752-.6377 2.47473-1.15277 4.964-2.27425 7.44013-3.424.33355-.15483.80992-.17206.8771-.68546l-3.53062-2.44178a26.77364 26.77364 0 0 0-4.32822-3.09128 13.68908 13.68908 0 0 0-2.84984-2.22619 19.17151 19.17151 0 0 0-3.1487-2.29276 25.873 25.873 0 0 0-3.32856-2.50662 24.91488 24.91488 0 0 0-3.14394-2.34694 32.86693 32.86693 0 0 0-3.58873-2.65579c-.10844-.31156-.62849-.32448-.6009-.8016 1.42314-.13157 2.8057-.2595 4.18834-.38736 2.9647-.11025 5.92215-.31776 8.86879-.66778a66.98805 66.98805 0 0 0 7.206-.53176c2.90719-.17713 5.81628-.32645 8.721-.53637q16.12877-1.16547 32.25488-2.3678c2.66138-.198 5.31883-.449 7.978-.67557a35.93742 35.93742 0 0 0 5.85973-.45816l-.00045-.00007.00091-.00008q1.14834-.04579 2.29661-.09166a3.9298 3.9298 0 0 0 1.68241-.169l.00091-.00022q.7149-.02494 1.43-.04973a4.37237 4.37237 0 0 0 1.72291-.17916l.00091-.00023.66514-.03038c1.35256-.07625 2.707-.12861 4.05731-.23365 2.81659-.21914 5.63107-.4661 8.44645-.70164 3.43911-.11637 6.86831-.37042 10.28891-.74357a3.99606 3.99606 0 0 1 4.08384 1.414c.04322.05494.13987.06793.21158.1005a6.86882 6.86882 0 0 0 2.78274 1.68446 1.60037 1.60037 0 0 1 1.2968 2.01611 1.91626 1.91626 0 0 0-.09484.56871 7.11517 7.11517 0 0 0-.06325 1.41461l-.01829.251-.24234 4.5581a32.32457 32.32457 0 0 0-.26418 4.55923 26.34547 26.34547 0 0 0-.24446 4.55862 21.1576 21.1576 0 0 0-.26229 4.31424 19.3751 19.3751 0 0 0-.23622 4.05641.81729.81729 0 0 0-.08463.51325 24.09854 24.09854 0 0 0-.16119 3.54777 19.84049 19.84049 0 0 0-.24332 4.07871c-.43511 1.42322.03431 2.94142-.458 4.3586a5.35759 5.35759 0 0 1-.64382-.2335q-4.13376-2.10684-8.26161-4.22553c-5.09606-2.6072-10.15063-5.29646-15.32927-7.74a38.96328 38.96328 0 0 1-3.76216-1.95476c-9.51964-4.82847-19.05938-9.617-28.58189-14.43977a1.9983 1.9983 0 0 0-1.98159-.06363q-13.49031 6.256-27.02416 12.418a2.45209 2.45209 0 0 1-1.22335.426c-.06846.66279.55247.676.89584.95078q1.44363 1.09247 2.88725 2.18508c.14569.27929.43.35108.68916.46057a6.14913 6.14913 0 0 0 1.64509 1.21783 42.62069 42.62069 0 0 0 4.14724 3.08856 40.50025 40.50025 0 0 0 4.26421 3.14364 18.2259 18.2259 0 0 0 2.88536 2.15259l4.13167 3.0986a50.21733 50.21733 0 0 0 4.2807 3.13427 55.23273 55.23273 0 0 0 4.81071 3.59327 50.588 50.588 0 0 0 4.55991 3.36029 44.27993 44.27993 0 0 0 4.53074 3.3683 43.56628 43.56628 0 0 0 4.1511 3.09067 59.84313 59.84313 0 0 0 4.9357 3.65069c.74969.586 1.48533 1.19086 2.25158 1.7542 2.36417 1.738 4.74 3.46 7.11133 5.18832a6.32008 6.32008 0 0 0 .51983.48106q9.363 6.95151 18.73225 13.89457c1.74377 1.292 1.74921 1.286 3.58321.04345.35978-.24386.714-.49587 1.07071-.74418h.00015a9.86149 9.86149 0 0 1 1.28606-.5425c.99929-.27 1.47778-.83485 1.2362-1.89324q.11152-1.911.22292-3.82193l.0637-1.9252-.00015-.00015a6.68736 6.68736 0 0 0 .18521-2.15577q.01756-.72406.035-1.44808a14.76856 14.76856 0 0 0 .2131-3.11968q.11993-2.04223.23977-4.08445l.24007-3.83258q.11756-1.9172.23494-3.8344.11052-1.91583.22111-3.83152l.24053-4.07946-.00008.00008v-.00008q.12027-2.04085.2406-4.08172l.02252-.48574.02653-.96.05531-.44607c.20433-.51982.482-.55028.98274-.28912 2.84818 1.48549 5.7182 2.92926 8.58073 4.38717a4.441 4.441 0 0 0 .16663-1.72292q.14553-2.16431.29093-4.32868l.44818-5.51106.31285-4.77444-.00665-.01738a2.76653 2.76653 0 0 0 .15453-1.43713l.25934-3.3655q.12833-1.92649.2567-3.85284l-.00015-.00007h.00015l.457-5.74457q.12968-1.92354.25927-3.84709.19189-2.4259.38388-4.8519c.00325-.02531.00483-.0532.00642-.08108q.03219-.40647.06431-.813a2.89335 2.89335 0 0 1-.068.33355.92427.92427 0 0 1 .068-.33355c.10065-1.05778.20131-2.11563.31466-3.30717.26788.19171.42853.294.57506.41343q18.15942 14.80008 36.31869 29.60045c4.1483 3.3779 8.31844 6.72905 12.4786 10.09236q4.45545 3.6374 8.9108 7.27464l4.78843 3.9188a37.02384 37.02384 0 0 0 3.59553 2.892c2.24939 1.99405 4.59482 3.87074 6.97486 5.705.72718.61723 1.4511 1.23839 2.18266 1.8504.61149.51159 1.42088.90166 1.79924 1.54685.44622.76095-.67843 1.32067-.697 2.11548a2.11087 2.11087 0 0 1-1.8776 1.4505 3.72144 3.72144 0 0 0-1.65339.50645 40.447 40.447 0 0 0-5.03651 1.24866l-5.52633 1.43886v-.00008q-2.63538.6996-5.27084 1.39912-2.39871.61628-4.79726 1.23249v.00007q-1.797.47087-3.5941.94179a16.6555 16.6555 0 0 0-3.36482.93657 18.502 18.502 0 0 0-3.83848.95939 23.93861 23.93861 0 0 0-4.32074 1.16493 7.7007 7.7007 0 0 0-1.69231.34413c-.71569.31761-.96045-.02259-1.16365-.58269-.99929-4.83467-2.01045-9.66692-2.98374-14.50688-.132-.65637-.5595-.87619-1.06655-1.13q-14.299-7.15939-28.58923-14.33633c-.86705-.47289-1.70735-1.00662-2.60848-1.402-.96438-.4231-1.79281-1.1836-2.91694-1.22463l-.01292 2.12334a.48035.48035 0 0 0-.06771.36045 17.63561 17.63561 0 0 0-.19186 3.01594 12.43745 12.43745 0 0 0-.22776 3.08054 3.23977 3.23977 0 0 0-.10111.73035c-.1911 1.44582-.23146 2.90425-.32108 4.3586q-.0298.69609-.05947 1.39232a45.93982 45.93982 0 0 0-.4466 6.04237 15.55484 15.55484 0 0 0-.27121 3.55979 11.90335 11.90335 0 0 0-.22934 3.13926 3.97389 3.97389 0 0 0-.17509 1.68883l-.01776.25186c-.105 1.35045-.14939 2.70929-.33589 4.0484a1.28788 1.28788 0 0 0 1.00987 1.65121 14.18277 14.18277 0 0 1 6.29363 4.58575c1.47007 1.81209 1.46871 1.81466 3.73284 1.16675a1.52228 1.52228 0 0 0 .30959-.1732 17.48879 17.48879 0 0 0 3.61405-.95017 18.116 18.116 0 0 0 3.65658-.943l.00023-.00007a19.66426 19.66426 0 0 0 3.76624-.98524 5.22706 5.22706 0 0 0 1.9042-.49 17.81407 17.81407 0 0 0 3.60074-.94776 18.566 18.566 0 0 0 3.609-.93151 11.91753 11.91753 0 0 0 2.87765-.75007 10.58063 10.58063 0 0 0 2.68064-.70073q1.64426-.38878 3.28858-.77765c.71562.00491.62683.60234.72061 1.02506.65319 2.94467 1.28742 5.89366 1.9277 8.8412q-2.27878.5103-4.55757 1.02053-.733.16027-1.46607.3207-1.66215.41249-3.32424.82511a18.3169 18.3169 0 0 0-3.35478.753q-1.08441.24438-2.16883.48884v-.00007l-3.11289.70843a7.2481 7.2481 0 0 0-2.15916.50169q-.96222.23032-1.92438.46058-1.55911.35966-3.11825.71939a14.11169 14.11169 0 0 0-2.8753.68675c-.52262-.10391-.95539.23554-1.44536.293q-.95871.22987-1.91758.45975c-.68161-.06461-1.02219.2372-1.09911.92674-.07942.71124-.23018 1.41438-.34973 2.12116l-.00022.00068c-.28632.693-.55368 1.3948-.86645 2.07581a.78723.78723 0 0 0 .15567.96952q2.7731 3.03143 5.53237 6.07562 2.28015 2.76516 4.77777 5.33567a40.18648 40.18648 0 0 0 3.61737 4.02672 25.63267 25.63267 0 0 0 2.62072 2.93024 48.37868 48.37868 0 0 0 3.611 4.04666q2.15909 2.39882 4.318 4.79757 1.31112 1.46073 2.62216 2.92155a19.02929 19.02929 0 0 0 2.39448 2.64369 38.31544 38.31544 0 0 0 3.3785 3.79767 27.97784 27.97784 0 0 0 2.85762 3.17221 43.0237 43.0237 0 0 0 3.6151 4.038 29.13184 29.13184 0 0 0 3.08984 3.42309q2.177 2.47941 4.35407 4.95882a.65722.65722 0 0 0 .48113.48174 1.32153 1.32153 0 0 0-.2174-.99022q-2.71212-13.06174-5.42953-26.12236c-.63975-3.05478-1.4242-6.08137-1.98725-9.14937-.57506-3.13359-1.1901-6.25449-1.9543-9.34652-.68252-3.3958-1.37879-6.789-2.0437-10.18825-.66362-3.39278-1.53007-6.745-2.03447-10.16944q2.3918-.621 4.78366-1.24193a40.61878 40.61878 0 0 0 4.84872-1.147 15.84824 15.84824 0 0 0 3.31231-.75468 22.19677 22.19677 0 0 0 3.90822-.91043h.00038a13.63325 13.63325 0 0 0 3.06294-.69922v.00008a40.30453 40.30453 0 0 0 5.31618-1.23551l.00068-.00015a33.43357 33.43357 0 0 0 4.50618-1.01161c1.94017-.38713 3.88041-.7738 5.77577-1.35234a28.91043 28.91043 0 0 0 3.00423-.63363c.71667-.22647.977.02373 1.26936.6031a7.66443 7.66443 0 0 0 1.69171 2.40929 12.15169 12.15169 0 0 0 6.48557 4.23958 7.47009 7.47009 0 0 0 1.2677.32977c.90106.07723 1.13962.43073.98509 1.36556-.23312 1.4106-.24688 2.8574-.354 4.28886.00288.0442.00152.09015.0025.13511-.02864-.0399-.045-.08471-.07564-.12385a.786.786 0 0 0-.45574.77576 56.05984 56.05984 0 0 0-.50494 6.78308 1.90671 1.90671 0 0 0 .17509.79254 27.96337 27.96337 0 0 0-.28338 3.21619l-.03763.69589a2.16533 2.16533 0 0 0-.16851 1.20438l.00015-.00023-.00008.00023q-.04386.68906-.08758 1.378a.89535.89535 0 0 0-.0866.32191 2.953 2.953 0 0 0-.08546.94405q-.0305.58092-.06091 1.16184a.8771.8771 0 0 0-.07458.60158q-.48831 3.40537-.64663 6.84262a8.77317 8.77317 0 0 0-.18763.92849c-.66854 6.987-1.32 13.97565-1.9948 20.96207q-2.03044 21.01912-4.08211 42.03621c-.10473 1.07509-.24249 2.147-.37254 3.28767l-1.74052-1.67946h-.00008l.00008-.00008a53.2352 53.2352 0 0 0-3.85-4.31341 34.13659 34.13659 0 0 0-3.05123-3.3912 43.39036 43.39036 0 0 0-3.22858-3.56772 44.78807 44.78807 0 0 0-3.82487-4.3085q-1.92786-2.15772-3.85578-4.3153a34.36587 34.36587 0 0 0-3.57044-3.84656c-.95607-1.631-2.52188-2.75417-3.57989-4.30026-.27725.04927-.26773.26516-.22738.45309q1.05959 4.93843 2.13233 9.8742v.00008c.04912.35221.08177.70776.14993 1.05627q.663 3.39029 1.339 6.77816c-.054.1964-.05614.41985-.27612.52987q-2.1915-2.39632-4.383-4.7925a10.84736 10.84736 0 0 0-1.89732-2.168 17.51518 17.51518 0 0 0-2.30757-2.65526 34.16056 34.16056 0 0 0-3.14614-3.58827 36.27005 36.27005 0 0 0-3.14062-3.59115 19.5386 19.5386 0 0 0-2.35-2.657 25.01211 25.01211 0 0 0-2.69788-3.09664 14.30915 14.30915 0 0 0-1.89838-2.16763c-.53546-.975-1.55191-1.51-2.18863-2.39243a21.43541 21.43541 0 0 0-3.13715-3.60241 24.17854 24.17854 0 0 0-3.12384-3.59054 12.71164 12.71164 0 0 0-2.14261-2.40438 7.2496 7.2496 0 0 0-1.6271-1.93291q-.75411-.82995-1.50823-1.65982c-.39552-.78348-1.16766-1.23755-1.67909-1.91962a26.24674 26.24674 0 0 0-2.8812-3.35613q-1.79058-2.03791-3.581-4.07591l-2.398-2.64717c-.94383-1.583-2.44624-2.67422-3.59206-4.07938a21.42034 21.42034 0 0 0-2.861-3.36173 20.6346 20.6346 0 0 0-2.354-2.66032c-.76722-.915-1.58024-1.79629-2.286-2.75636-.48257-.65645-.8737-.48468-1.34365-.07066q-.36249.12718-.72491.25444-.71943.23281-1.43894.46556l-.96718.24438-1.66563.24076-.25579.00914a15.6018 15.6018 0 0 1-1.855-.02962c-.7166-.09211-.99733.22156-1.05536.868q-.31965.63566-.6393 1.2714-.04035.20381-.08062.40769a1.89413 1.89413 0 0 0-.48718 1.18911 1.506 1.506 0 0 0-.43375 1.03791 5.10854 5.10854 0 0 0-.714 1.696.79737.79737 0 0 0-.26683.65358 2.60374 2.60374 0 0 0-.51937 1.22568 5.18371 5.18371 0 0 0-.70564 1.685 7.91349 7.91349 0 0 0-.91254 2.17933 9.85482 9.85482 0 0 0-.99861 2.38662 3.64987 3.64987 0 0 0-.7036 1.683 4.94382 4.94382 0 0 0-.70322 1.67213 13.01891 13.01891 0 0 0-1.20513 2.87463 8.55268 8.55268 0 0 0-1.00655 2.39515v.00023a1.45061 1.45061 0 0 0-.41841.99113 5.44643 5.44643 0 0 0-.75831 1.83733l-.00008-.00008a17.684 17.684 0 0 0-1.42624 3.37964 11.2391 11.2391 0 0 0-1.22591 2.91324v.0003a8.13162 8.13162 0 0 0-.91013 2.17873 21.99425 21.99425 0 0 0-1.50286 3.5709 43.167 43.167 0 0 0-2.33244 5.55262 5.34212 5.34212 0 0 0-.28383.51333c-1.81178 4.29482-3.63172 8.58624-5.42416 12.88915-1.33133 3.196-2.626 6.40736-3.93687 9.61191l-.00052.00068a51.09564 51.09564 0 0 0-2.33108 5.53063l-1.53294 3.58684a14.8026 14.8026 0 0 0-1.0964 2.65072l.00016-.00007-.00008.00007a10.67774 10.67774 0 0 0-.98773 2.39871 20.839 20.839 0 0 0-1.41937 3.35538 5.81769 5.81769 0 0 0-.71047 1.68355q-.303.70276-.60559 1.40561l-.0003.00023a6.34939 6.34939 0 0 0-.87862 2.18787 13.54623 13.54623 0 0 0-1.1471 2.64536c-.68176.9566-.80712 1.81624.425 2.43936q.3558.35876.71169.71743a5.06649 5.06649 0 0 0 1.19848 1.44317q.48411.71184.96831 1.4236a2.78781 2.78781 0 0 0 .73594 1.40788c-.00113.19254.02607.36891.24846.4333a4.29305 4.29305 0 0 0 1.675.007.38037.38037 0 0 0 .23788-.20275c.00129-.01662.011-.0241.01315-.0399.00869.01308.019.02691.02872.04043l-.04194-.00045-.23781.20267a5.04115 5.04115 0 0 0 1.94327-.18506l.00144-.00038 1.17536-.05124a11.74271 11.74271 0 0 0 2.87258-.21332l1.21156-.04353a1.918 1.918 0 0 0 1.18775-.13836l-.0037-.00748.0037.00741c.40844.16163.8-.02963 1.19932-.05774q.60654-.0255 1.21314-.05108a4.74949 4.74949 0 0 0 1.36836-.0693 1.55478 1.55478 0 0 0 .30779-.09324q.8373-.02709 1.6747-.05426a.27655.27655 0 0 1 .13368-.06083l-.13368.06083a6.724 6.724 0 0 0 1.55969-.08766 1.21452 1.21452 0 0 0 .37534-.10247l.69831-.02614.9708-.03945a4.38768 4.38768 0 0 0 1.72557-.15793l.01-.0025q.80637-.03117 1.61282-.06249l.25178-.02531a4.08168 4.08168 0 0 0 1.71574-.157l.00106-.00023.09929.02713.09106-.04806a21.60943 21.60943 0 0 0 2.4114-.05751c.04587-.00166.09151-.00589.13912-.01073l.00076-.00007a7.96383 7.96383 0 0 0 .841-.15627l.448-.02517a17.04062 17.04062 0 0 0 2.23639-.05932 3.15183 3.15183 0 0 0 .899-.16065q.23192-.01.46375-.0201a10.23832 10.23832 0 0 0 2.88173-.20524q.96143-.04149 1.92279-.083a4.729 4.729 0 0 0 1.37531-.07027 1.13719 1.13719 0 0 0 .32833-.09507 15.11769 15.11769 0 0 0 3.58352-.24544q.71115-.02346 1.42231-.047l.24574-.01081a5.41008 5.41008 0 0 0 1.21413-.0711 1.39808 1.39808 0 0 0 .47554-.094l-.00166.00506 1.43085-.06914a4.93061 4.93061 0 0 0 2.18667-.18181 24.57652 24.57652 0 0 0 2.81621-.10731 2.36406 2.36406 0 0 0 .77969-.13874l.00046-.00007h-.00039l.00022-.00008a21.87239 21.87239 0 0 0 2.81312-.107 2.77664 2.77664 0 0 0 .77168-.13806 10.71623 10.71623 0 0 0 2.62-.15234 29.01413 29.01413 0 0 0 4.35006-.32161q.34481-.01281.68954-.02554a222.91235 222.91235 0 0 1 6.24346-.43693 21.465 21.465 0 0 0 4.07417-.283q.71614 0 1.43221.00008c.10383.437-.28353.61186-.489.86516q-3.93641 4.85193-7.89481 9.686c.82806-.0727 1.65551-.15431 2.48447-.21627 1.811-.13542 3.63324-.13028 5.42953-.44471a70.55335 70.55335 0 0 0 7.70461-.50154 65.37007 65.37007 0 0 0 7.1931-.487 16.81439 16.81439 0 0 0 3.81127-.26033 56.53686 56.53686 0 0 0 6.97321-.465 13.91166 13.91166 0 0 0 3.39263-.219l.00015.00007a42.40888 42.40888 0 0 0 4.99578-.3071c.24665.10043.84272-.11531.46065.5431-.35879.61836-.6832 1.25667-1.02015 1.88765q-4.80116 8.99-9.60148 17.98044c-1.55712 2.56889-2.88044 5.26246-4.23255 7.94068-1.18413 1.92876-2.21055 3.94291-3.22888 5.96152a37.10128 37.10128 0 0 0-2.34279 4.33926 13.9892 13.9892 0 0 0-1.18367 2.21636c-.10867.08509-.20963.17849-.32071.26093a15.17582 15.17582 0 0 0-2.57591 4.97961c.02736.00431.05033.0003.07708.0034-.40171.06756-.54008.4101-.714.70836q-1.38491 2.37525-2.63009 4.82666a5.53272 5.53272 0 0 0-1.05756 2.61566c.00862.006.0161.00786.02464.0136-.46481.10625-.6674.49209-.85413.86675-1.20589 2.42009-2.618 4.72993-3.81686 7.1532-.2066.41765-.5236.81529-.38358 1.3373l.01927.01065c-.52209.17638-.7299.65758-.95788 1.0834-1.27677 2.38473-2.52528 4.78442-3.829 7.15494-.21771.39582-.50834.80486-.29705 1.30738a.58343.58343 0 0 0-.4763.29962c-1.08188 1.65694-1.90261 3.45769-2.84583 5.191a.784.784 0 0 0-.04081.75551.54714.54714 0 0 0-.45974.28625c-1.04328 1.62626-1.82924 3.39452-2.78622 5.06885a.59475.59475 0 0 0-.07549.50916zM52.53363 233.589q-1.3203 5.28255-2.64044 10.565-1.43886 5.75341-2.87765 11.50682c-.8802 2.8391-1.46841 5.75113-2.15931 8.63755a2.43583 2.43583 0 0 0-.307 1.39941c-.402-.17947-.25058-.54566-.25761-.83614-.03513-1.466-.06272-2.93236-.07209-4.39865q-.01654-7.7394-.01488-15.479-.00035-4.96732-.00318-9.93472c0-.02449-.00362-.049-.004-.07353a2.99235 2.99235 0 0 0-.09121-1.22546c.00521-3.11228.01761-6.22464.01428-9.33692q-.01281-12.15109-.02713-24.30219c0-.41471-.26614-.99393.44517-1.15095a20.9502 20.9502 0 0 0 2.42236-1.18814 10.30128 10.30128 0 0 0 2.75137-2.24576c3.98757-4.16628 4.81041-11.26417 1.8377-15.76045q-.92991-1.28946-1.85976-2.57878a.90762.90762 0 0 0-.36756-.739c-.746-.61632-.554-1.19244-.04821-1.83687.93294-1.18851 1.7378-2.46823 2.55679-3.73563.21552-.33348.63967-.63121.4002-1.137.64519.11441.77063-.49466 1.0138-.85526 5.02563-7.45456 10.1371-14.85048 15.18743-22.288 5.74616-8.46239 11.52987-16.89924 17.2699-25.36579a51.78322 51.78322 0 0 1 3.28238-4.67023 2.98952 2.98952 0 0 1-.241.85889c-.69756 2.07248-1.42118 4.13681-2.07733 6.22237-.8137 2.58656-1.8683 5.09424-2.52278 7.73226-.91935 2.65511-1.85969 5.30319-2.75289 7.96706-1.27216 3.794-2.50964 7.59957-3.76193 11.40019a5.2968 5.2968 0 0 0-.24181.52594c-3.95538 11.73329-7.93516 23.45849-11.82963 35.212-.561 1.69314-1.03836 3.255-3.03423 3.66989a7.483 7.483 0 0 0-2.84817 1.69442 13.32327 13.32327 0 0 0-3.66181 17.06216 5.37886 5.37886 0 0 0 1.18647 1.9101 2.04936 2.04936 0 0 1 .42544 2.13468c-1.73086 6.87142-3.40224 13.75787-5.09168 20.63973zm325.3008-119.9335a1.5481 1.5481 0 0 0 .413.23327c2.61309.83078 5.27757 1.4808 7.91114 2.23956a.70482.70482 0 0 0 .654-.05493c.05486.06136.11153.12106.16632.18242a56.01977 56.01977 0 0 0 5.57824 1.67062c.589.19247 1.023.42778.98569 1.12473.02622.76753-.027 1.53755.0492 2.30569a1.44286 1.44286 0 0 0 .11425.35871c.06839.08411.13156.17207.19973.2564a13.83367 13.83367 0 0 0 8.1645 11.32122c.038.08509.08449.165.11947.25179 1.24579.75234 2.49914 1.4712 4.02883.99566l.015.022a3.20739 3.20739 0 0 0 .24627.24514 1.76748 1.76748 0 0 1 .38274.85647c-.00377.04383-.00763.08766-.00785.12982-.01225 2.611-.36189 5.211-.26464 7.8265-.31352 2.86057-.357 5.735-.43715 8.60748a.63709.63709 0 0 0-.26479.29343 27.51591 27.51591 0 0 0-.30423 6.27292c.03106.075.06915.14653.10051.22134-.4395.21045-.35758.69052-.37171 1.0781-.02539.69385-.28534 1.12421-1.00723 1.22433a.771.771 0 0 0-.54755.3037 6.24408 6.24408 0 0 1-2.67377-1.55856c-1.61222-1.35007-3.31231-2.58921-4.94591-3.91245-.34042-.27574-.65939-.61141-1.14967-.55753a1.80056 1.80056 0 0 0-.76443-.97813c-1.541-1.24542-3.07026-2.50745-4.64719-3.70533a22.50008 22.50008 0 0 0-3.82291-2.65155c-.00392-.01051-.01-.0198-.0139-.03038a2.01174 2.01174 0 0 0-.7175-.93264c-3.33249-2.64929-6.622-5.354-10.07453-7.84864-.27023-.19519-.52934-.50313-.92229-.3897-.00876-.03355-.02229-.06423-.0303-.09824-.329-.28534-.6467-.58526-.98886-.8539q-6.16839-4.84366-12.343-9.67946a.94005.94005 0 0 1-.01489-.21884c-.20191-.67368-.81869-.967-1.3045-1.3506q-14.1253-11.1543-28.17875-22.399a26.55012 26.55012 0 0 0-4.69926-3.46246c-.05229-.00514-.10057-.02108-.15158-.02955-.63544-1.03843-1.86642-1.44226-2.57077-2.31362.57385-.03929 1.13946.45529 1.77362.22655.031.03242.06808.05554.09838.08894a34.75246 34.75246 0 0 0 6.60066 1.94357.42188.42188 0 0 0 .27763-.04632c.02079.02056.045.036.06567.05675a1.39628 1.39628 0 0 0 .50418.30733c2.1275.62909 4.26717 1.21549 6.4054 1.80687a1.0415 1.0415 0 0 0 .9-.118.53811.53811 0 0 0 .421.46685q2.26473.71286 4.5742 1.26733a.49448.49448 0 0 0 .37753-.07315c.03468.03809.07534.06869.10957.10746a37.692 37.692 0 0 0 5.51378 1.685 1.15816 1.15816 0 0 0 .91851-.05562c.01361-.04481.01308-.08138.02207-.12347.01428.02078.03347.036.04761.057 1.27412 1.14521 2.90507 1.22229 4.47157 1.49252a1.31514 1.31514 0 0 0 .06166-.22066c.013.019.03038.03348.04322.05267a.98252.98252 0 0 0 .72212.557q2.61135.77973 5.24046 1.49818a.98773.98773 0 0 0 .88458-.03884c.05191.05622.10972.10565.16126.16224a19.39112 19.39112 0 0 0 4.28666 1.3234 10.8529 10.8529 0 0 0 3.43284.78612 1.08815 1.08815 0 0 0 .128-.18453c.00513.01141.0133.0204.01836.03188.77327.79965 4.5086 1.8733 5.80955 1.71219.07184.07996.14862.1547.22018.23495zm59.05129 94.63261c-.44531-.51544-.61813-1.28131-1.33586-1.54677.00718-.00476.01028-.01013.01776-.01489-.17728-.30778-.34013-.62508-.534-.922-1.95052-2.98638-3.81278-6.03134-5.911-8.91971.00952-.43882-.32108-.713-.52957-1.03443q-4.179-6.44382-8.38176-12.87215l-.00008.00007v-.00007c-.17221-.59161-.85019-.97292-.70571-1.69632a26.63289 26.63289 0 0 0 .97692-3.79351 14.35749 14.35749 0 0 0-4.88832-12.43221 1.613 1.613 0 0 1-.6133-1.42526c.0897-1.793.14161-3.58782.20819-5.38192h.00007q.18126-4.50213.36265-9.0042c.21952-.18793.20123-.543.21075-.83327a6.454 6.454 0 0 1 .21023-1.88894c.086-1.29422.143-2.59.16111-3.88714a30.87258 30.87258 0 0 0 2.12115 6.02122 1.87552 1.87552 0 0 0 .17342 1.123c.882 3.20069 1.99745 6.329 3.02191 9.48375 3.766 11.59742 7.46423 23.21675 11.24641 34.809 1.66133 5.09167 3.27052 10.20064 4.94764 15.34234-.34367-.35664-.4738-.79697-.75861-1.12659zm-129.36864 102.048l-.002-.00008-.0003.00015.0003-.00038.00128-.00181zm-21.35517 1.4437c.01262-.01459.024-.03068.03642-.0455.00446.01527.00975.03091.015.0467l-.05153-.001-.00023.00015zm10.473-.71139c.00869.009.0195.01512.02879.02328h-.03786c.00216-.00897.00679-.01441.00906-.02325zm25.05883-1.745l.00189.00476-.00483-.0003zm30.44031-1.79153c-.00386.01171-.0102.02207-.01413.03378a1.27039 1.27039 0 0 0-.23547-.29985 26.40966 26.40966 0 0 0-5.25195.39514c1.54844-1.62529 2.90614-3.41259 4.34273-5.13195a7.26184 7.26184 0 0 0 1.80242-2.5512 2.313 2.313 0 0 0 .997-.83562c1.06791-1.28493 2.16128-2.549 3.2013-3.85736.5867-.738 1.37864-1.33919 1.53748-2.35375l.00007-.00453a18.873 18.873 0 0 0 4.19221-4.7851.25477.25477 0 0 0-.01686-.25821 2.16771 2.16771 0 0 0 1.00919-.73738c.54922-.57347 1.02083-1.21382 1.51678-1.831 1.90971-2.37634 4.03336-4.58031 5.74267-7.11806.00627-.02206.00272-.04511.00763-.06725.866 1.2473 1.99617 2.267 2.968 3.42339a.83335.83335 0 0 0 .68343.33619 10.09238 10.09238 0 0 0 3.447 4.05868.20423.20423 0 0 0 .182.0167 6.75426 6.75426 0 0 0 3.14334 3.559c-.00514.01-.00846.02063-.01367.03068.32085 1.44249 1.62845 2.16385 2.40528 3.27377a.69551.69551 0 0 0 .56644.30922c.638.88284.43625 1.54783-.32282 2.43052a14.134 14.134 0 0 0-3.2025 7.33894 4.502 4.502 0 0 1-.54862 2.39833c-.04912.01209-.087.03589-.13413.05a1.30425 1.30425 0 0 0-.76322-.11463c-1.13372.128-2.27523.1667-3.406.31352a1.51511 1.51511 0 0 0-1.04614.48589l-.01209.0291a1.24791 1.24791 0 0 0-.24038-.24711c-1.54375-.33823-3.04835.14615-4.57321.22912a.9339.9339 0 0 0-.31292.18091.698.698 0 0 0-.49851-.23736 29.38728 29.38728 0 0 0-4.12057.32645.842.842 0 0 0-.55994.41055l-.0031.008a1.08862 1.08862 0 0 0-.2929-.22284 10.86758 10.86758 0 0 0-5.2029.54257.96425.96425 0 0 0-.34655-.30355 23.26424 23.26424 0 0 0-4.36979.288c-.75503.09283-1.61354-.15859-2.25665.48835zM167.30971 149.96218a3.35117 3.35117 0 0 0-1.93111.945 2.02278 2.02278 0 0 1-.13118.22262 30.06412 30.06412 0 0 0-3.53175 1.57776c-6.47091 2.97127-12.93668 5.954-19.426 8.88458a2.02417 2.02417 0 0 0-1.25161 1.547c-.8672 3.60022-1.77445 7.19076-2.6489 10.78924-.59063 2.43044-1.15035 4.86845-1.7239 7.303.00521.011.00937.01541.01451.026a1.28249 1.28249 0 0 1-.2802.05713 1.0144 1.0144 0 0 0-.2428.40375c-.66438 2.37294-1.22508 4.77225-1.8102 7.16522a1.01618 1.01618 0 0 0 .12454.94277 1.56915 1.56915 0 0 1-.26819.15967 1.41366 1.41366 0 0 0-.26372.52609c-.8063 3.02349-1.44159 6.08877-2.22211 9.11876a1.04291 1.04291 0 0 0 .13828 1.01516 1.41137 1.41137 0 0 0 .17381.09522c-.1658.24921-.3034-.235-.40315-.00907a2.874 2.874 0 0 0-.55353 1.42564c-1.65558 6.64463-3.336 13.28308-4.98081 19.93043a14.02979 14.02979 0 0 0-.5935 3.15634.47857.47857 0 0 0 .05932.10451 28.43277 28.43277 0 0 0-5.22006-2.5982.50837.50837 0 0 0-.53274.071 31.56667 31.56667 0 0 0-4.22938-1.90631 19.4499 19.4499 0 0 0-4.31787-1.94055 10.72714 10.72714 0 0 0-3.59841-1.67931 11.31731 11.31731 0 0 0-3.09233-1.52894 21.06483 21.06483 0 0 0-3.386-1.579 18.90958 18.90958 0 0 0-3.12218-1.44967 40.68175 40.68175 0 0 0-4.781-2.21372 44.88421 44.88421 0 0 0-5.04852-2.35231 20.82886 20.82886 0 0 0-4.325-1.91168 4.0341 4.0341 0 0 0-1.517-.85995c-.72824-.23819-.87106-.61451-.74456-1.40017a9.10329 9.10329 0 0 0-.17373-3.92674c.0331-.12574.06159-.25254.09514-.37821a2.50907 2.50907 0 0 1 1.01025-3.15.96182.96182 0 0 0 .34821-.581 1.34389 1.34389 0 0 0 .85927-.4401c1.20211-1.15111 2.52029-2.17443 3.68507-3.36506a2.17191 2.17191 0 0 0 .44758-.67745.66046.66046 0 0 0 .62977-.211c1.02945-1.05672 2.27161-1.87934 3.26115-2.97793a1.069 1.069 0 0 0 .33212-.62017.99264.99264 0 0 0 .87566-.36159c1.00745-1.06556 2.22067-1.90389 3.23387-2.96062.25882-.26992.57015-.51339.60363-.92841.47931.19315.73616-.20841 1.01312-.46307 1.86543-1.71528 3.80084-3.35319 5.6399-5.09718.25882-.24544.72174-.39031.5527-.90068.546.15635.799-.30945 1.12027-.589 3.33105-2.89767 6.59061-5.8759 9.89838-8.79979a2.22081 2.22081 0 0 0 .72665-.90348c.33544-.015.54687-.29569.78324-.49851 3.43155-2.9443 6.73812-6.02983 10.15176-8.99453a1.33335 1.33335 0 0 0 .59493-1.11075l.00031-.00121c.7169.16428 1.11468-.415 1.53044-.79065 3.85163-3.47969 7.75675-6.89968 11.61231-10.3746 4.09336-3.68916 8.21529-7.3465 12.31311-11.03067 4.36464-3.92409 8.77319-7.79975 13.1327-11.73026q1.95652-1.764 3.9519-3.48778c.27975-.24226.56856-.48264.95856-.255.35222.20554.24386.5468.20683.86244-.04889.41652-.13542.84392.22715 1.17166q-.35784 3.07812-.71561 6.15632a26.19146 26.19146 0 0 0-.54174 4.79251 21.21372 21.21372 0 0 0-.4766 4.02981 41.60025 41.60025 0 0 0-.70662 6.04932 41.90918 41.90918 0 0 0-.67791 5.56736c-.05.042-.1033.07973-.15325.12189a6.13429 6.13429 0 0 0-.59418 2.85619c-.03151-.00925-.05494-.03667-.08909-.04007zm10.83986-9.9348a47.72074 47.72074 0 0 0 .54665-5.04263q.32-2.5157.64005-5.03137.24879-2.16363.49768-4.32709a38.54118 38.54118 0 0 0 .49753-4.37568c.04987-.05018.1073-.08894.1537-.14426a2.97722 2.97722 0 0 1 2.38427-2.55218 7.01217 7.01217 0 0 0 1.892-.96075 2.19336 2.19336 0 0 1 1.42352-.3798 4.08118 4.08118 0 0 0 2.763 1.95135l.05629-.02319a5.80177 5.80177 0 0 0 3.58624 2.74518 4.0865 4.0865 0 0 0 2.82347 2.08465 3.38647 3.38647 0 0 0 2.62094 1.93027l.06053-.02259c-.1033.47327.27869.693.57234.94322.72129.6145 1.54942 1.08626 2.283 1.68679.26682.21839.54068.49594.9433.26071.01654-.00144.03377-.00114.05063-.00174-.1296.32607.14531.53138.36619.698a38.90451 38.90451 0 0 0 3.74447 2.73233 34.55857 34.55857 0 0 0-5.66492 2.40037q-8.39025 3.80764-16.74871 7.68587a63.27347 63.27347 0 0 0-5.86048 2.79868 18.27925 18.27925 0 0 0 .58231-4.90646 1.06369 1.06369 0 0 0-.23108-.13851zm53.03627-83.17394c2.27584 1.18171 4.575 2.31423 6.94668 3.29372 2.44435 1.30873 4.95036 2.488 7.50013 3.57543 3.13571 1.63684 6.33542 3.13963 9.57148 4.566 2.48614 1.31705 5.02827 2.51659 7.61242 3.628a44.07911 44.07911 0 0 0 5.54854 2.6273c2.63025 1.41286 5.3325 2.675 8.0733 3.85646a68.20107 68.20107 0 0 0 7.51539 3.5783c3.942 2.04014 7.97348 3.89356 12.00231 5.75257q-.10611 1.07127-.21227 2.14254-.13319.70923-.26645 1.41838l-6.69406.56449q-8.63373.71342-17.26747 1.42692l-14.63867 1.2108a3.09967 3.09967 0 0 0-1.4774.16685l-.00083.00023q-.6996.03343-1.39934.0668a3.18952 3.18952 0 0 0-1.4768.173l-.00181.00045-1.4004.06665a3.214 3.214 0 0 0-1.47642.1735l-.001.00023q-.69993.03027-1.39987.06061c-.239.00075-.47939-.01489-.71682.00468q-10.07589.83177-20.15095 1.674c-3.21633.27347-6.42882.59093-9.643.88851l-1.39813.07186a3.44045 3.44045 0 0 0-1.50022.17275l-.00113.0003q-.68883.03332-1.37758.06672a4.139 4.139 0 0 0-1.689.18907l-.00068.00023q-.71672.0348-1.43349.06952a2.93475 2.93475 0 0 0-1.44657.16987c-2.78335.1998-5.5682.38063-8.3495.60574-2.02291.16368-4.04114.38592-6.06149.582l-1.41241.06891a3.20146 3.20146 0 0 0-1.47816.1726l-.00045.00015c-.96945.208-1.44876-.27695-1.81738-1.12655a7.09466 7.09466 0 0 0-1.72737-2.479c-1.25826-.94654-1.1499-2.01407-.3003-3.16767a2.64686 2.64686 0 0 0 .25239-.649q1.03726-2.18323 2.07468-4.36638c.05962-.02116.11773-.04565.17743-.06673a14.32164 14.32164 0 0 0 1.87541-3.3581.77591.77591 0 0 0 .01-.88594l-.01232-.00219c1.11861-.91368 1.38657-2.33773 2.07294-3.51037a.63817.63817 0 0 0 .08789-.64337 19.1375 19.1375 0 0 0 2.01475-3.86349.50216.50216 0 0 0-.01965-.44327 1.56025 1.56025 0 0 0 .71449-.82489c.85866-1.69956 1.563-3.47228 2.4485-5.16.14176-.27015.3062-.58111.09423-.89017a.63052.63052 0 0 0 .4763-.39794c.73579-1.63216 1.6008-3.20054 2.366-4.81781a.90305.90305 0 0 0 .09566-.89517 1.09019 1.09019 0 0 0 .39182-.38954c.99407-1.7975 1.883-3.64828 2.76316-5.503a.89705.89705 0 0 0 .04715-.78257.71292.71292 0 0 0 .3968-.37171c.55534-1.653 1.85441-1.71218 3.28291-1.62075a11.989 11.989 0 0 0 7.3731-2.05526 2.34025 2.34025 0 0 1 2.43733-.15037c1.20513.48831 2.2611 1.4 3.65258 1.39049.03325-.00408.06665-.00687.0999-.01088 2.70508 1.42885 5.47852 2.71492 8.27372 3.95549zM74.30993 189.351q2.4546-7.29348 4.89875-14.59053 3.23376-9.6778 6.4524-19.36067 2.578-7.66492 5.156-15.32995c.15015-.19949.28625-.40806.44131-.60438a3.8354 3.8354 0 0 0 .56153-1.17861c1.51957-4.52061 3.0083-9.05158 4.52251-13.574a1.78162 1.78162 0 0 0 .15143-1.15949 1.20858 1.20858 0 0 0-.15-.08033c.01126-.0006.01965-.00544.03114-.00567.48952-.165.57143-.62463.72672-1.02332 1.18254-3.03528 2.103-6.16018 3.151-9.24155a1.41587 1.41587 0 0 0 .09688-1.04751c.03634-.028.0665-.06166.10337-.08909a2.85874 2.85874 0 0 0 .564-1.174c.81408-2.41745 1.62944-4.8346 2.41458-7.26141a2.09831 2.09831 0 0 1 1.42337-1.44 13.82722 13.82722 0 0 0 8.71531-8.44138c.36408-1.00579.88927-1.15413 1.81019-.84854a12.825 12.825 0 0 0 3.47894.80282c.03294-.007.06672-.01458.1005-.02146.12755.27786.435.33869.70065.431 1.1536.40088 2.35571.63113 3.52541.97745a1.06856 1.06856 0 0 0 .947-.08.67646.67646 0 0 0 .02608.11985 26.82792 26.82792 0 0 0 6.63451 1.94289c.05909-.01028.122-.01693.18143-.02978.10474.29615.43111.342.6934.41819 1.60964.4673 3.23085.894 4.84646 1.34032.3643.10073.7599.24491 1.11264-.058a1.25134 1.25134 0 0 0 .05093.1939 33.13819 33.13819 0 0 0 7.05429 2.01128c.04821-.00121.09234-.01731.13987-.02154a.80068.80068 0 0 0 .48226.30658c1.811.5913 3.6581 1.05589 5.49656 1.55024a.892.892 0 0 0 .89524-.16163c.02055-.014.04194-.0266.06249-.04058a.82136.82136 0 0 0-.04224.21393 15.37758 15.37758 0 0 0 5.0019 1.51321 1.9355 1.9355 0 0 0 .5508-.1135 40.40613 40.40613 0 0 0 4.56233 1.261 1.62817 1.62817 0 0 1 1.46637 1.98589 5.46577 5.46577 0 0 0 .27355 1.38906c.18771.57975-.22821.86063-.57771 1.18028q-16.70277 15.27591-33.40145 30.55622c-4.14822 3.79941-8.27128 7.6264-12.40583 11.44077q-5.7321 5.05539-11.276 10.31649c-2.22007 1.91568-4.40092 3.87414-6.48127 5.94217a65.24788 65.24788 0 0 0-5.53675 5.08132c-2.13438 1.66412-4.02762 3.593-5.98434 5.45212q-3.34269 3.04322-6.68529 6.08643-3.24351 2.89926-6.48694 5.79852c-.97056-.15611-.67184-.75384-.47628-1.33501zM229.812 42.17155a.94057.94057 0 0 0 .72469.28375 28.944 28.944 0 0 0 3.78407.2802c.36778-.03226.73586-.05607 1.10372-.08584q11.97224 1.30431 23.94506 2.59843 11.71323 1.2659 23.42735 2.52294c4.13886.44093 8.2802.857 12.42072 1.28236.19118.0727.38592.13353.57476.21453 1.53422.6603 3.20024.50811 4.79583.78386a.96513.96513 0 0 0-.13595.048 1.57885 1.57885 0 0 0 .17789 1.675 1.45827 1.45827 0 0 0 .21075.20138 10.24832 10.24832 0 0 0 1.60375 4.3255c3.23258 5.07694 9.53793 7.35346 14.66776 5.29555a9.94034 9.94034 0 0 0 3.92689-2.07951 1.6641 1.6641 0 0 0 .31859.128c.21325.06363.41848.1463.62916.21619.68894.51922 1.3738 1.04411 2.07627 1.54436q6.70089 4.772 13.4129 9.52825c.27333.22421.53486.46481.82156.67028Q351.231 80.874 364.1705 90.13421c3.728 2.66493 7.47451 5.30387 11.21271 7.95466 1.263.93536 2.53011 1.86551 3.78414 2.81289.15718.11872.59025.12763.31541.52557q-4.29243-1.10731-8.58488-2.21478a.47365.47365 0 0 0-.1095-.04708l-.00544.00106a2.8222 2.8222 0 0 0-.4237-.16965q-5.14891-1.34309-10.30054-2.67626c-2.32609-.86275-4.80664-1.14605-7.15963-1.90806a2.63247 2.63247 0 0 0-.42438-.19405q-5.5682-1.45258-11.139-2.89541c-.68048-.20886-1.35241-.45287-2.04294-.62048-3.00709-.72982-5.94331-1.73855-8.99672-2.28475-2.171-.56425-4.34666-1.1112-6.50907-1.70652a1.4003 1.4003 0 0 1-1.04932-.95108 11.53 11.53 0 0 0-3.15195-4.57721 14.19576 14.19576 0 0 0-15.18713-2.76294 5.37355 5.37355 0 0 0-1.90851.94375 1.60961 1.60961 0 0 1-1.94267.06574c-5.1831-2.52037-10.3922-4.98716-15.593-7.471a10.14365 10.14365 0 0 1-1.19312-.4438c-4.58855-2.37324-9.20944-4.67931-13.924-6.79419a2.27653 2.27653 0 0 1-.42945-.1302c-3.00187-1.5949-6.0333-3.12868-9.16032-4.46681-1.05264-.53622-2.08186-1.12632-3.16291-1.59732a65.02811 65.02811 0 0 0-6.43985-2.93191c-3.14992-1.67878-6.32167-3.31246-9.61947-4.68686a1.14944 1.14944 0 0 0-.482-.48514c-2.06115-1.25856-4.26316-2.24432-6.425-3.30762a1.71066 1.71066 0 0 0-1.07924-.12952 1.91305 1.91305 0 0 0-.80614-.67639c-1.952-1.13622-4.08377-1.90337-6.08522-2.94015a1.14971 1.14971 0 0 0-.82912-.10231 13.9243 13.9243 0 0 0-1.93-1.3197 4.10178 4.10178 0 0 1 1.88841-.089 26.39394 26.39394 0 0 0 4.39253.35584c.0472-.01614.09526-.02664.14252-.04198zM58.72857 326.9684c.003-.03091-.00173-.05985.003-.09121.143-.5004-.20056-.81838-.44169-1.17377q-1.40747-2.07442-2.94248-4.05634c-1.25675-1.62407-2.31816-3.39928-3.7243-4.90774a7.83176 7.83176 0 0 1 .93982.36091c.46005.2078.91013.52208 1.44521.30272 2.62156 1.44687 5.30258 2.77465 8.02909 4.01137 2.79151 1.59626 5.677 3.00566 8.60393 4.33283a65.38423 65.38423 0 0 0 6.24376 3.12233c2.4544 1.36738 4.93767 2.67755 7.51675 3.798a62.10551 62.10551 0 0 0 5.76565 2.87651 26.43984 26.43984 0 0 0 3.83575 1.91856c.98615.34942.55368 1.35121.91443 1.98816.25293 5.1299 4.77513 10.96613 9.845 12.70582 1.464.3393 1.58342 1.27693 1.1202 2.48894a2.63013 2.63013 0 0 0-.08509.57347h-.00008q-.48854 2.40505-.97715 4.81011-.71523 3.47361-1.43039 6.94721-.4738 2.28627-.94753 4.57245-.72669 3.57879-1.45352 7.15751a.706.706 0 0 0-.10111-.00007 1.113 1.113 0 0 0-.3971.7203 1.54154 1.54154 0 0 1-1.31244 1.37191c-.77857.18528-1.023-.51144-1.35348-.96552-5.804-7.97725-11.64479-15.92768-17.45087-23.90335q-6.87568-9.44485-13.765-18.87976-3.347-4.6029-6.721-9.18639c-.27719-.37657-.44858-1.08667-1.15936-.89496zm218.448 112.24376a5.25061 5.25061 0 0 1-1.782.12235q-22.30848.00714-44.617.00355-3.29836 0-6.59665-.001c-.48219-.00052-1 .03854-1.29937-.43186a1.46249 1.46249 0 0 0-.187-.20864c.00045-.01519-.00272-.0244-.002-.04005a13.85988 13.85988 0 0 0-.3702-3.44266c-.38093-1.81888-.383-1.81843 1.46145-2.08132q13.06855-1.67248 26.137-3.34511c1.46486-.17267 2.93123-.33332 4.39427-.52q12.76737-1.62928 25.53286-3.2724c2.84485-.36786 5.68427-.77819 8.52617-1.169.517-.02168 1.03889-.00491 1.5501-.0711q6.21507-.80433 12.42668-1.63587 5.45847-.72521 10.91558-1.4604c1.29725-.14712 2.59889-.26418 3.88994-.45377.68221-.10013 1.01395.02048 1.0506.79639a3.8008 3.8008 0 0 0 .30854 1.84911c.17864.73806-.19307 1.00527-.85927 1.23967q-7.98833 2.81028-15.94929 5.698-6.71315 2.42048-13.41495 4.87283a3.75443 3.75443 0 0 1-.55541-.07526 4.90588 4.90588 0 0 0-1.2612.33015c-3.10781 1.07708-6.19432 2.21443-9.29882 3.29639zM35.21016 260.77033c-.00521.00113-.00944-.00461-.01511-.001-.07972.0507-.04375.00491.01511-.01428z" class="cls-1"/><path d="M264.53742 282.05054a2.872 2.872 0 0 0 .55534-1.18232l.0003-.00022q.33756-.72.675-1.4403h.00007a9.171 9.171 0 0 0 1.17106-3.12762l-.00023.00022.00008-.00015a24.51186 24.51186 0 0 0 1.75745-4.08248q.5799-1.308 1.15941-2.61619l.00023-.00007c1.88168-4.114 3.58692-8.302 5.24832-12.50837l.00008.00007c.60544-1.88485 1.63911-3.60324 2.14873-5.52527l-.00008-.00015a29.21354 29.21354 0 0 0 2.37483-5.27114l.00015.00007c.43066-1.49515 1.41317-2.7655 1.75058-4.29867a36.31038 36.31038 0 0 0 1.85009-4.34659c.31859-1.3447 1.34237-2.41132 1.50521-3.81747a12.40559 12.40559 0 0 0 1.41838-3.36573 19.90361 19.90361 0 0 0 1.16977-2.649l-.00007-.00008q.70617-1.68154 1.41241-3.36316.73881-1.79035 1.47771-3.58072a17.31107 17.31107 0 0 0 1.19946-2.87908 14.82433 14.82433 0 0 0 1.19909-2.87969 11.9731 11.9731 0 0 0 1.2303-3.11984c.23547-.45551.44388-.92758.71191-1.363.559-.90839.349-1.47121-.39838-2.31045-1.13509-1.27465-2.16929-1.78359-3.68531-.85231a22.80806 22.80806 0 0 0-3.59621 1.15843 14.80811 14.80811 0 0 0-2.90659.87332l-.00022-.00022-2.61256.84491q-1.5563.48513-3.11266.97019-1.56445.48492-3.129.96982-1.33287.42042-2.66561.841l-.00015-.00015q-1.65819.52709-3.31646 1.05408l.00023.00023-.00023-.00015-3.12286.97163v.00008q-1.9189.59928-3.83787 1.19863a20.33872 20.33872 0 0 0-3.39732 1.10093l-.00045-.00023a22.75261 22.75261 0 0 0-4.04153 1.26642 10.29921 10.29921 0 0 0-2.40626.737l-.00008.00015q-1.555.48423-3.11016.96816l.00007.00015q-1.80135.58465-3.60271 1.16924a13.68806 13.68806 0 0 0-3.11591.96861l.00008.00008h-.00008q-2.03587.60687-4.072 1.21367l.00007.00015q-4.68939 1.51923-9.37886 3.03861a39.70577 39.70577 0 0 0-4.79439 1.49138q-1.31712.376-2.63425.75166l-.00007.00015q-1.79853.59157-3.59682 1.183a13.845 13.845 0 0 0-2.8979.93869v.00008c-.25753.0031-.52133-.01277-.70314.22639l-.00008-.00007a6.60956 6.60956 0 0 0-2.172.66846q-.8313.27816-1.66261.55625a3.74443 3.74443 0 0 0-1.45179.44062l-.00015.00015c-.254.02849-.52707-.00528-.71954.22285l-.00008-.00023a3.614 3.614 0 0 0-1.69314.52141v.00008a.85065.85065 0 0 0-.72461.239h-.00037a2.9168 2.9168 0 0 0-1.45338.45785l-.00037-.00015a12.55789 12.55789 0 0 0-3.11372.96619 14.31026 14.31026 0 0 0-3.10752.97443 7.38413 7.38413 0 0 0-2.14858.67376 14.9809 14.9809 0 0 0-3.14659.9878v.00008a3.47228 3.47228 0 0 0-1.40834.4413l-.00015-.00022a8.11816 8.11816 0 0 0-2.41556.76942 8.44142 8.44142 0 0 0-2.36954.73843 8.94637 8.94637 0 0 0-2.39817.739 20.28221 20.28221 0 0 0-3.62961 1.16123 13.048 13.048 0 0 0-3.09687.97435v.00008c-.685.186-1.36957.37367-2.05518.55745a.73287.73287 0 0 0-.61995.73458 8.67235 8.67235 0 0 1-1.38649 3.87929c-.2298.36816-.37648.67616.0909 1.002 1.1666.81309 2.31135 1.65747 3.4648 2.48923v.00008a17.80566 17.80566 0 0 0 2.87334 2.15508v.00008a26.37821 26.37821 0 0 0 3.15067 2.38654q1.4409 1.0801 2.88166 2.16022a17.14071 17.14071 0 0 0 2.63356 1.9512l.00008.00015a7.60359 7.60359 0 0 0 1.89747 1.42458 8.6775 8.6775 0 0 0 1.9175 1.43864v.00007a22.86576 22.86576 0 0 0 3.14342 2.385 28.481 28.481 0 0 0 3.59356 2.68208l.00008.00015 3.38923 2.58128.00008-.00008v.00008c1.68354 1.36949 3.42029 2.6672 5.22482 3.87361a22.06621 22.06621 0 0 0 3.83643 2.87652 13.18054 13.18054 0 0 0 2.90236 2.18584l.00076.00075c2.60493 2.222 5.42439 4.1619 8.16322 6.20787h.00023q1.31734.9604 2.63485 1.92074v.00008a14.0375 14.0375 0 0 0 2.16067 1.67614l-.00007.00008q2.40437 1.79227 4.80875 3.58464 2.27413 1.6896 4.54834 3.37911 1.6989 1.27246 3.39793 2.54493 1.91833 1.444 3.83666 2.88785c1.03685.79806 2.08851 1.5779 3.10374 2.40249a1.09565 1.09565 0 0 0 1.30625.10322 8.69977 8.69977 0 0 1 4.57532-1.12277c2.83526.4101 3.475-1.37289 4.12684-3.36875a2.47283 2.47283 0 0 0 .06211-.35033 25.214 25.214 0 0 0 1.69519-4.08006 12.71088 12.71088 0 0 0 1.1941-2.86027l.00015-.00007a23.46327 23.46327 0 0 0 1.4242-3.38395 32.71025 32.71025 0 0 0 1.48526-3.58646 1.91378 1.91378 0 0 0 .46685-1.1573 2.21913 2.21913 0 0 0 .418-1.24088l-.00015.00015.00008-.00015c.20058-.38747.56579-.70886.48516-1.20918z" class="cls-1"/></svg>