<svg width="40" height="40" viewBox="0 0 40 40" fill="none" xmlns="http://www.w3.org/2000/svg">
<path d="M37.6387 17.3044L33.2806 12.9462L34.3749 11.8512V10.2887L29.7124 5.62561H28.1499L27.0549 6.72061L22.6962 2.36124C21.2137 0.879363 18.7868 0.879363 17.3037 2.36124L12.9449 6.71999L11.8512 5.62561H10.2874L5.62494 10.29V11.8525L6.71994 12.9469L2.36244 17.3044C0.87931 18.7875 0.87931 21.2144 2.36244 22.6962L6.72056 27.055L5.62494 28.15V29.7125L10.2881 34.3756H11.8518L12.9468 33.28L17.3043 37.6375C18.7874 39.1206 21.2143 39.1206 22.6968 37.6375L27.0543 33.28L28.1506 34.3756H29.7131L34.3749 29.7137V28.15L33.2799 27.0544L37.6387 22.6956C39.1206 21.2137 39.1206 18.7875 37.6387 17.3044ZM35.8743 22.4275L32.2637 26.0375L31.8518 25.6256H30.2881L25.6249 30.29V31.8525L26.0368 32.2644L22.4274 35.8731C21.0931 37.2087 18.9081 37.2087 17.5731 35.8731L13.9631 32.2631L14.3749 31.8512V30.2887L9.71244 25.6256H8.14994L7.73744 26.0381L4.12681 22.4275C2.79119 21.0931 2.79119 18.9081 4.12681 17.5725L7.73619 13.9625L8.14994 14.3756H9.71244L14.3749 9.71374V8.14999L13.9618 7.73686L17.5731 4.12561C18.9081 2.79124 21.0931 2.79124 22.4274 4.12561L26.0381 7.73686L25.6249 8.14999V9.71249L30.2881 14.3756H31.8518L32.2649 13.9625L35.8743 17.5725C37.2087 18.9081 37.2087 21.0931 35.8743 22.4275Z" fill="#359AC0"/>
<path d="M22.235 16.8131L20.7188 15.2969C20.5277 15.1068 20.2692 15 19.9997 15C19.7302 15 19.4717 15.1068 19.2806 15.2969L17.7638 16.8138L13.125 13.1256L16.8125 17.7656L15.2963 19.2819C15.1061 19.4729 14.9994 19.7314 14.9994 20.0009C14.9994 20.2704 15.1061 20.529 15.2963 20.72L16.8125 22.2362L13.125 26.8744L17.7638 23.1869L19.2812 24.7044C19.4723 24.8945 19.7308 25.0012 20.0003 25.0012C20.2698 25.0012 20.5283 24.8945 20.7194 24.7044L22.2362 23.1875L26.875 26.8756L23.1875 22.2362L24.7044 20.7194C24.8945 20.5283 25.0012 20.2698 25.0012 20.0003C25.0012 19.7308 24.8945 19.4723 24.7044 19.2813L23.1875 17.7644L26.875 13.1256L22.235 16.8131Z" fill="#359AC0"/>
</svg>
