<svg xmlns="http://www.w3.org/2000/svg" xmlns:xlink="http://www.w3.org/1999/xlink" id="Layer_1" x="0" y="0" version="1.1" viewBox="0 0 512 412.6" xml:space="preserve" style="enable-background:new 0 0 512 412.6"><style type="text/css">.st0{fill:#657981}.st1{stroke:#000;stroke-width:7;stroke-miterlimit:10}.st2{fill:#25738e}</style><g><path d="M445.9,162.6c13.9,3.5,17,11,16.9,22.8c-0.6,59.3-0.3,118.7-0.3,179.3c12.7,0,25.1,0.2,37.5-0.1 c8.6-0.2,11.9,3.8,11.9,12.2c0,21-13.8,35.7-34.4,35.7c-147.7,0-295.3,0.1-443,0c-22.8,0-35.8-14-34.6-36.1 c0.5-8.5,4.1-12,12.5-11.8c11.9,0.3,23.9,0.1,37.1,0.1c0-5.8,0-10.8,0-15.8c0-79.6,0-159.2,0-238.8c0-25.7,7.7-33.2,33.6-33.2 c36.8,0,73.6,0,111.3,0c0,5.2,0,9.3,0,14.2c-2.6,0.5-5.3,1.4-8,1.4c-34,0.1-68.1,0.5-102.1-0.1c-13.3-0.2-18.6,3.4-18.4,17.9 c0.7,79.1,0.6,158.2,0.1,237.3c-0.1,13.3,4.4,17.3,17.5,17.3c115.1-0.4,230.1-0.4,345.2,0c13.1,0,17.6-4,17.5-17.3 C445.6,286.2,445.9,224.9,445.9,162.6z M17.6,381.4c0.6,13.4,8.8,15.1,18.6,15c50.3-0.1,100.6,0,151,0c95.4,0,190.7-0.1,286.1,0.1 c10.4,0,18.9-1.2,20.6-15.1C335,381.4,177.1,381.4,17.6,381.4z"/><path d="M195.5,108.7c-0.3,6.1-0.5,10.3-0.8,16.1c-31.6,0-62.5,0-94.3,0c0,69.8,0,138,0,207.1c104.1,0,207.3,0,312.1,0 c0-44.6,0-88.5,0-133.6c6-0.3,10.5-0.6,16.6-0.9c0,26.8,0,52.6,0,78.3c0,19.6-0.3,39.3,0.1,58.9c0.2,9.9-3.5,13.7-13.4,13.7 c-106.4-0.2-212.8-0.2-319.2,0c-9.6,0-13.7-3.2-13.7-13.4c0.3-70.9,0.2-141.8,0.1-212.8c0-7.2,0.3-13.6,10.2-13.5 C126.8,108.8,160.2,108.7,195.5,108.7z"/><path d="M17.6,381.4c159.5,0,317.4,0,476.2,0c-1.7,13.9-10.2,15.1-20.6,15.1c-95.4-0.2-190.7-0.1-286.1-0.1 c-50.3,0-100.6,0-151,0C26.3,396.5,18.1,394.8,17.6,381.4z" class="st0"/></g><path d="M405.2,193.2h-168c-12,0-21.5-9.8-21.5-21.5V45.6c0-12,9.8-21.5,21.5-21.5h168.3c12,0,21.5,9.8,21.5,21.5V172	C426.7,183.7,417.2,193.2,405.2,193.2z M237.3,29.7c-8.7,0-15.9,7.3-15.9,15.9V172c0,8.7,7.3,15.9,15.9,15.9h168.3	c8.7,0,15.9-7.3,15.9-15.9V45.6c0-8.7-7.3-15.9-15.9-15.9H237.3z" class="st1"/><path d="M410.8,54.8H231.7c-1.7,0-2.8-1.1-2.8-2.8c0-1.7,1.1-2.8,2.8-2.8h179.4c1.7,0,2.8,1.1,2.8,2.8	C413.9,53.7,412.5,54.8,410.8,54.8z" class="st1"/><path d="M408.6,96.6h-66.1c-1.7,0-2.8-1.1-2.8-2.8s1.1-2.8,2.8-2.8h66.1c1.7,0,2.8,1.1,2.8,2.8S410,96.6,408.6,96.6z" class="st1"/><path d="M408.6,124.5h-66.1c-1.7,0-2.8-1.1-2.8-2.8s1.1-2.8,2.8-2.8h66.1c1.7,0,2.8,1.1,2.8,2.8S410,124.5,408.6,124.5z" class="st1"/><path d="M408.6,149.7h-66.1c-1.7,0-2.8-1.1-2.8-2.8c0-1.7,1.1-2.8,2.8-2.8h66.1c1.7,0,2.8,1.1,2.8,2.8	C411.4,148.5,410,149.7,408.6,149.7z" class="st1"/><path d="M306.5,154.9h-59.2c-6.6,0-12-5.4-12-12V95.1c0-6.6,5.4-12,12-12h59.2c6.6,0,12,5.4,12,12v47.8	C318.5,149.5,313.1,154.9,306.5,154.9z" class="st2"/></svg>