<svg width="1362" height="448" viewBox="0 0 1362 448" fill="none" xmlns="http://www.w3.org/2000/svg">
<g opacity="1">
<path d="M10.5 123C195 218 613.5 320.9 1149.5 4.5" stroke="#00B39F" stroke-width="4" stroke-linejoin="round" stroke-dasharray="1 1 1 17"/>
<path d="M10.5 150C218 256.5 665 323 1178.5 3.5" stroke="#00B39F" stroke-width="3.5" stroke-linejoin="round" stroke-dasharray="1 1 1 17"/>
<path d="M2 168C243 299 640.5 339.5 1189.5 9" stroke="#00B39F" stroke-width="3" stroke-linejoin="round" stroke-dasharray="1 1 1 17"/>
<path d="M5 194C263.5 330 726 333 1214.5 8" stroke="#00B39F" stroke-width="2.5" stroke-linejoin="round" stroke-dasharray="1 1 1 17"/>
<path d="M7.5 220.5C228.5 329 637.5 394.5 1243 7" stroke="#00B39F" stroke-width="2.25" stroke-linejoin="round" stroke-dasharray="1 1 1 17"/>
<path d="M7.5 242.5C215 349 630.5 420 1265.5 5" stroke="#00B39F" stroke-width="2" stroke-linejoin="round" stroke-dasharray="1 1 1 17"/>
<path d="M7.5 269.5C215 376 668 428.5 1278.5 4.5" stroke="#00B39F" stroke-width="1.75" stroke-linejoin="round" stroke-dasharray="1 1 1 17"/>
<path d="M5.5 292.5C213 399 676.5 449.5 1303 2.5" stroke="#00B39F" stroke-width="1.75" stroke-linejoin="round" stroke-dasharray="1 1 1 17"/>
<path d="M2.5 314.5C210 421 694.5 463.5 1316 5.5" stroke="#00B39F" stroke-width="1.5" stroke-linejoin="round" stroke-dasharray="1 1 1 17"/>
<path d="M2.5 339.5C210 446 640 505 1336.5 2" stroke="#00B39F" stroke-width="1.5" stroke-linejoin="round" stroke-dasharray="1 1 1 17" opacity="0.7"/>
<path d="M2.5 368.5C210 475 746.5 477 1350.5 3.5" stroke="#00B39F" stroke-width="1.25" stroke-linejoin="round" stroke-dasharray="1 1 1 17" opacity="0.6"/>
<path d="M2.5 388.5C210 495 753 501 1360.5 6" stroke="#00B39F" stroke-width="1.25" stroke-linejoin="round" stroke-dasharray="1 1 1 17" opacity="0.5"/>
</g>
</svg>
