<svg width="850" height="362" viewBox="0 0 850 362" fill="none" xmlns="http://www.w3.org/2000/svg">
<g filter="url(#filter0_d_12460_17091)">
<path d="M426.564 119.276C422.735 112.517 418.966 106.387 415.759 99.9833C409.037 86.5564 402.397 73.0799 396.19 59.4298C393.098 52.6502 391.085 45.4903 391.936 37.7889C393.374 24.6224 404.039 12.4275 417.333 9.18236C436.212 4.57307 453.952 13.7296 460.299 31.6046C463.021 39.2854 461.919 46.9661 459.214 54.5394C453.752 69.8348 446.209 84.2331 438.556 98.5653C435.302 104.659 431.75 110.611 428.347 116.622C427.887 117.337 427.394 118.007 426.564 119.276ZM426.896 66.5401C440.773 66.4243 452.293 55.1223 452.156 41.7367C452.02 28.19 440.394 17.2021 426.232 17.2434C413.083 17.2807 401.108 28.9176 401.244 41.5259C401.393 55.515 412.815 66.6558 426.896 66.5401Z" fill="url(#paint0_linear_12460_17091)"/>
</g>
<defs>
<filter id="filter0_d_12460_17091" x="387.74" y="0" width="78.1328" height="119.276" filterUnits="userSpaceOnUse" color-interpolation-filters="sRGB">
<feFlood flood-opacity="0" result="BackgroundImageFix"/>
<feColorMatrix in="SourceAlpha" type="matrix" values="0 0 0 0 0 0 0 0 0 0 0 0 0 0 0 0 0 0 127 0" result="hardAlpha"/>
<feOffset dy="-4"/>
<feGaussianBlur stdDeviation="2"/>
<feComposite in2="hardAlpha" operator="out"/>
<feColorMatrix type="matrix" values="0 0 0 0 0 0 0 0 0 0 0 0 0 0 0 0 0 0 1 0"/>
<feBlend mode="normal" in2="BackgroundImageFix" result="effect1_dropShadow_12460_17091"/>
<feBlend mode="normal" in="SourceGraphic" in2="effect1_dropShadow_12460_17091" result="shape"/>
</filter>
<linearGradient id="paint0_linear_12460_17091" x1="426.806" y1="8" x2="426.806" y2="119.276" gradientUnits="userSpaceOnUse">
<stop offset="0.158107" stop-color="#00D3A9"/>
<stop offset="0.569565" stop-color="#13816B"/>
<stop offset="1" stop-color="#272828"/>
</linearGradient>
</defs>
</svg>
