<svg width="912" height="354" viewBox="0 0 912 354" fill="none" xmlns="http://www.w3.org/2000/svg">
<g filter="url(#filter0_d_12135_17402)">
<path d="M455.241 121C451.147 113.772 447.116 107.216 443.686 100.368C436.498 86.0091 429.396 71.5972 422.759 56.9996C419.451 49.7495 417.3 42.0926 418.21 33.8566C419.747 19.7762 431.152 6.73478 445.369 3.26443C465.559 -1.6648 484.53 8.12734 491.317 27.243C494.229 35.4569 493.05 43.6708 490.157 51.7698C484.316 68.1269 476.25 83.5246 468.066 98.8516C464.585 105.368 460.787 111.734 457.147 118.162C456.656 118.927 456.128 119.643 455.241 121ZM455.596 64.6035C470.436 64.4797 482.755 52.3931 482.61 38.0785C482.464 23.5914 470.031 11.8408 454.886 11.8851C440.824 11.9248 428.018 24.3695 428.163 37.853C428.323 52.8131 440.538 64.7272 455.596 64.6035Z" fill="#00D3A9"/>
</g>
<defs>
<filter id="filter0_d_12135_17402" x="412" y="0" width="87" height="131" filterUnits="userSpaceOnUse" color-interpolation-filters="sRGB">
<feFlood flood-opacity="0" result="BackgroundImageFix"/>
<feColorMatrix in="SourceAlpha" type="matrix" values="0 0 0 0 0 0 0 0 0 0 0 0 0 0 0 0 0 0 127 0" result="hardAlpha"/>
<feOffset dy="4"/>
<feGaussianBlur stdDeviation="3"/>
<feComposite in2="hardAlpha" operator="out"/>
<feColorMatrix type="matrix" values="0 0 0 0 0 0 0 0 0 0 0 0 0 0 0 0 0 0 0.25 0"/>
<feBlend mode="normal" in2="BackgroundImageFix" result="effect1_dropShadow_12135_17402"/>
<feBlend mode="normal" in="SourceGraphic" in2="effect1_dropShadow_12135_17402" result="shape"/>
</filter>
</defs>
</svg>
