<svg width="852" height="326" viewBox="0 0 852 326" fill="none" xmlns="http://www.w3.org/2000/svg">
<path d="M640.605 117.55L711.669 156.356" stroke="#4D5254" stroke-width="5"/>
<path d="M643.41 106.329L721.019 91.8349" stroke="#4D5254" stroke-width="5"/>
<path d="M765.904 84.354L851.001 67.9899" stroke="url(#paint0_linear_12331_16978)" stroke-width="5"/>
<path d="M748.137 175.526L829.49 218.54" stroke="url(#paint1_linear_12331_16978)" stroke-width="5"/>
<path d="M212.332 114.745L143.139 154.486" stroke="#4D5254" stroke-width="5"/>
<path d="M211.396 106.329L131.914 92.3025" stroke="#4D5254" stroke-width="5"/>
<path d="M89.834 83.8865L1.00011 67.9899" stroke="url(#paint2_linear_12331_16978)" stroke-width="5"/>
<path d="M106.672 173.656L25.3187 216.67" stroke="url(#paint3_linear_12331_16978)" stroke-width="5"/>
<g filter="url(#filter0_d_12331_16978)">
<path d="M503.674 112.872C503.674 125.488 469.345 135.715 426.999 135.715C384.653 135.715 350.324 125.488 350.324 112.872C350.324 100.257 384.653 90.0295 426.999 90.0295C469.345 90.0295 503.674 100.257 503.674 112.872Z" fill="url(#paint4_radial_12331_16978)" fill-opacity="0.5"/>
<path d="M144.072 166.175C144.072 171.856 135.699 176.461 125.37 176.461C115.041 176.461 106.668 171.856 106.668 166.175C106.668 160.494 115.041 155.889 125.37 155.889C135.699 155.889 144.072 160.494 144.072 166.175Z" fill="url(#paint5_radial_12331_16978)" fill-opacity="0.8"/>
<path d="M130.044 89.4972C130.044 95.6945 121.671 100.718 111.342 100.718C101.014 100.718 92.6406 95.6945 92.6406 89.4972C92.6406 83.3 101.014 78.2761 111.342 78.2761C121.671 78.2761 130.044 83.3 130.044 89.4972Z" fill="url(#paint6_radial_12331_16978)" fill-opacity="0.8"/>
<path d="M749.076 168.045C749.076 173.209 740.703 177.396 730.374 177.396C720.045 177.396 711.672 173.209 711.672 168.045C711.672 162.881 720.045 158.694 730.374 158.694C740.703 158.694 749.076 162.881 749.076 168.045Z" fill="url(#paint7_radial_12331_16978)" fill-opacity="0.8"/>
<path d="M763.103 90.4323C763.103 96.1131 754.73 100.718 744.401 100.718C734.072 100.718 725.699 96.1131 725.699 90.4323C725.699 84.7515 734.072 80.1462 744.401 80.1462C754.73 80.1462 763.103 84.7515 763.103 90.4323Z" fill="url(#paint8_radial_12331_16978)" fill-opacity="0.8"/>
<path d="M641.54 111.004C641.54 117.202 633.167 122.225 622.839 122.225C612.51 122.225 604.137 117.202 604.137 111.004C604.137 104.807 612.51 99.7832 622.839 99.7832C633.167 99.7832 641.54 104.807 641.54 111.004Z" fill="url(#paint9_radial_12331_16978)" fill-opacity="0.8"/>
<path d="M250.671 110.537C250.671 116.476 242.298 121.29 231.969 121.29C221.641 121.29 213.268 116.476 213.268 110.537C213.268 104.598 221.641 99.7832 231.969 99.7832C242.298 99.7832 250.671 104.598 250.671 110.537Z" fill="url(#paint10_radial_12331_16978)" fill-opacity="0.8"/>
<path d="M429.293 99.3352V108.768L461.055 104.037L429.293 99.3352Z" fill="#00D3A9"/>
<path d="M429.293 110.743V120.217L461.343 115.501L429.293 110.743Z" fill="#00D3A9"/>
<path d="M424.722 108.704V99.4124L393.354 104.044L424.722 108.704Z" fill="#00B39F"/>
<path d="M361.803 120.182C367.953 122.726 376.289 124.891 386.136 126.508V116.569L361.803 120.182Z" fill="#00B39F"/>
<path d="M424.721 120.175V110.806L393.275 115.494L424.721 120.175Z" fill="#00B39F"/>
<path d="M390.703 125.897L422.55 121.208L390.703 116.471V125.897Z" fill="#00D3A9"/>
<path d="M463.522 125.945V116.534L431.725 121.215L463.522 125.945Z" fill="#00B39F"/>
<path d="M494.669 119.093C499.961 116.555 503.159 113.681 503.665 110.658L470.512 115.508L494.669 119.093Z" fill="#00B39F"/>
<path d="M468.098 114.51L500.05 109.808L468.098 105.078V114.51Z" fill="#00D3A9"/>
<path d="M463.521 103.039V93.6914L431.871 98.3584L463.521 103.039Z" fill="#00B39F"/>
<path d="M463.519 114.468V105.029L431.799 109.752L463.519 114.468Z" fill="#00B39F"/>
<path d="M390.703 105.007V114.517L422.662 109.759L390.703 105.007Z" fill="#00D3A9"/>
<path d="M424.724 90.0295C413.46 90.0783 402.21 90.8436 391.043 92.3209L424.724 97.3041V90.0295Z" fill="#00B39F"/>
<path d="M390.703 93.6279V103.074L422.69 98.3582L390.703 93.6279Z" fill="#00D3A9"/>
<path d="M386.172 93.0515C376.332 94.654 367.982 96.8118 361.832 99.3772L386.172 102.969V93.0515Z" fill="#00B39F"/>
<path d="M463.311 92.363C452.033 90.8585 440.671 90.0791 429.293 90.0295V97.3815L463.311 92.363Z" fill="#00D3A9"/>
<path d="M350.326 110.462C350.748 113.603 354.016 116.562 359.498 119.17L384.148 115.494L350.326 110.462Z" fill="#00D3A9"/>
<path d="M359.498 100.404C354.037 102.969 350.776 105.907 350.326 109.035L384.176 104.037L359.498 100.404Z" fill="#00D3A9"/>
<path d="M390.98 127.211C402.166 128.691 413.435 129.458 424.718 129.509V122.249L390.98 127.211Z" fill="#00B39F"/>
<path d="M492.302 99.3848C486.188 96.8405 477.901 94.6897 468.117 93.0591V102.955L492.302 99.3848Z" fill="#00D3A9"/>
<path d="M468.098 126.452C477.938 124.842 486.266 122.67 492.388 120.126L468.098 116.52V126.452Z" fill="#00D3A9"/>
<path d="M503.677 108.986C503.206 105.886 499.966 102.969 494.54 100.397L470.172 104.031L503.677 108.986Z" fill="#00B39F"/>
<path d="M429.293 129.509C440.552 129.46 451.797 128.697 462.96 127.225L429.293 122.193V129.509Z" fill="#00D3A9"/>
<path d="M386.138 114.433V105.106L354.678 109.752L386.138 114.433Z" fill="#00B39F"/>
</g>
<g filter="url(#filter1_d_12331_16978)">
<path d="M610.839 105.61C611.827 104.611 613.213 103.747 614.893 103.084C616.572 102.42 618.502 101.974 620.539 101.778L619.713 99.166C616.958 99.4321 614.347 100.034 612.07 100.928C609.793 101.822 607.909 102.986 606.557 104.333L610.839 105.61Z" fill="#00D3A9"/>
<path d="M611.046 113.19C609.756 112.007 609.078 110.652 609.085 109.272C609.082 108.37 609.38 107.476 609.963 106.632L605.422 105.724C604.674 106.862 604.29 108.062 604.287 109.272C604.288 111.13 605.197 112.954 606.918 114.553L611.046 113.19Z" fill="#00B39F"/>
<path d="M623.065 116.88H622.911C618.628 116.88 614.81 115.802 612.23 114.098L608.516 115.802C610.266 116.971 612.463 117.913 614.952 118.561C617.44 119.209 620.158 119.546 622.911 119.549H623.117L623.065 116.88Z" fill="#00D3A9"/>
<path d="M634.934 113.02C633.912 114.007 632.501 114.857 630.805 115.505C629.108 116.153 627.17 116.585 625.131 116.767L625.905 119.407C628.658 119.16 631.275 118.574 633.562 117.695C635.848 116.815 637.745 115.664 639.113 114.326L634.934 113.02Z" fill="#00B39F"/>
<path d="M634.83 105.44C636.057 106.604 636.698 107.927 636.687 109.272C636.699 110.205 636.383 111.13 635.759 111.998L640.299 112.963C641.106 111.793 641.525 110.552 641.537 109.301C641.54 107.486 640.667 105.703 639.009 104.134L634.83 105.44Z" fill="#00D3A9"/>
<path d="M631.259 104.029L630.217 103.455L632.673 102.104L630.217 100.753L631.259 100.179L634.757 102.104L631.259 104.029Z" fill="#20BDAB"/>
<path d="M624.265 104.029L623.223 103.456L625.679 102.104L623.223 100.753L624.265 100.18L627.763 102.104L624.265 104.029Z" fill="#20BDAB"/>
</g>
<g filter="url(#filter2_d_12331_16978)">
<circle cx="384.062" cy="139.932" r="2.10857" fill="#D9D9D9"/>
</g>
<g filter="url(#filter3_d_12331_16978)">
<path d="M472.623 141.902L536.722 206.001" stroke="black" stroke-opacity="0.1" stroke-width="5"/>
<circle cx="470.513" cy="139.932" r="2.10857" transform="rotate(-90 470.513 139.932)" fill="#D9D9D9"/>
</g>
<path d="M342.572 108.814H251.923" stroke="url(#paint11_linear_12331_16978)" stroke-width="5"/>
<path d="M290.879 242.948L213.266 323.271" stroke="url(#paint12_linear_12331_16978)" stroke-width="5"/>
<path d="M564.861 240.143L641.539 323.271" stroke="url(#paint13_linear_12331_16978)" stroke-width="5"/>
<path d="M381.58 142.422L319.864 206.008" stroke="url(#paint14_linear_12331_16978)" stroke-width="5"/>
<path d="M472.283 142.422L535.87 206.008" stroke="url(#paint15_linear_12331_16978)" stroke-width="5"/>
<path d="M512.494 108.759L601.328 108.759" stroke="url(#paint16_linear_12331_16978)" stroke-width="5"/>
<circle cx="345.457" cy="108.716" r="2.10857" transform="rotate(45 345.457 108.716)" fill="#D9D9D9"/>
<g filter="url(#filter4_d_12331_16978)">
<circle cx="507.936" cy="108.816" r="2.10857" transform="rotate(-135 507.936 108.816)" fill="#D9D9D9"/>
</g>
<g filter="url(#filter5_d_12331_16978)">
<path d="M534.947 237.263L571.661 230.954L550.719 238.674L534.947 237.263Z" fill="url(#paint17_linear_12331_16978)"/>
<path d="M534.276 236.004L547.376 232.379L540.027 218.529L534.276 236.004Z" fill="url(#paint18_linear_12331_16978)"/>
<path d="M549.677 231.984L570.997 229.694L536.984 208.062L549.677 231.984Z" fill="url(#paint19_linear_12331_16978)"/>
</g>
<g filter="url(#filter6_d_12331_16978)">
<path d="M536.232 235.958L572.946 229.65L552.059 237.473L536.232 235.958Z" fill="#466BB0"/>
<path d="M535.544 234.665L548.626 231.006L541.076 216.777L535.544 234.665Z" fill="#466BB0"/>
<path d="M550.923 230.611L572.26 228.356L537.883 206.035L550.923 230.611Z" fill="#466BB0"/>
</g>
<g filter="url(#filter7_d_12331_16978)">
<mask id="mask0_12331_16978" style="mask-type:luminance" maskUnits="userSpaceOnUse" x="213" y="98" width="38" height="21">
<path d="M250.515 98.4634H213.264V118.846H250.515V98.4634Z" fill="white"/>
</mask>
<g mask="url(#mask0_12331_16978)">
<path fill-rule="evenodd" clip-rule="evenodd" d="M231.191 110.81C229.011 110.81 227.314 109.852 227.314 108.621C227.314 107.39 229.011 106.432 231.191 106.432C233.372 106.432 235.068 107.39 235.068 108.621C235.068 109.852 233.372 110.81 231.191 110.81Z" fill="#E03875"/>
<path fill-rule="evenodd" clip-rule="evenodd" d="M238.764 109.647C237.795 109.647 236.947 109.202 236.947 108.621C236.947 108.073 237.735 107.595 238.764 107.595C239.733 107.595 240.582 108.039 240.582 108.621C240.582 109.202 239.733 109.647 238.764 109.647ZM245.306 110.604C245.064 111.151 244.095 111.458 243.125 111.322C242.157 111.185 241.611 110.638 241.853 110.091C242.096 109.544 243.065 109.235 244.034 109.372C244.941 109.509 245.548 109.987 245.365 110.535C245.365 110.535 245.366 110.57 245.306 110.604ZM244.032 108.004C243.063 108.141 242.094 107.799 241.851 107.251C241.609 106.704 242.215 106.157 243.184 106.02C244.153 105.884 245.122 106.226 245.364 106.773C245.425 106.91 245.425 107.046 245.364 107.183C245.304 107.559 244.82 107.901 244.032 108.004ZM250.451 110.466C250.269 111.013 249.361 111.39 248.392 111.287C247.423 111.184 246.756 110.671 246.938 110.124C247.12 109.577 248.028 109.201 248.997 109.303C249.906 109.406 250.573 109.885 250.512 110.398C250.452 110.432 250.451 110.432 250.451 110.466ZM249.001 107.937C248.032 108.039 247.123 107.663 246.941 107.116C246.76 106.569 247.426 106.056 248.395 105.953C249.364 105.851 250.273 106.227 250.454 106.774C250.454 106.877 250.515 106.945 250.454 107.047C250.394 107.492 249.788 107.868 249.001 107.937ZM247.729 113.99C247.244 114.469 246.154 114.64 245.306 114.366C244.458 114.093 244.155 113.477 244.64 112.998C245.124 112.519 246.215 112.348 247.063 112.622C247.668 112.827 248.031 113.203 247.971 113.58C247.911 113.716 247.85 113.853 247.729 113.99ZM247.063 104.688C246.215 104.962 245.124 104.791 244.64 104.312C244.155 103.833 244.458 103.217 245.306 102.944C246.154 102.67 247.244 102.841 247.729 103.32C247.911 103.525 247.971 103.696 247.971 103.901C247.911 104.209 247.608 104.517 247.063 104.688Z" fill="#E03875"/>
<path d="M231.253 118.846C226.407 118.846 221.925 117.786 218.473 115.871C215.141 113.921 213.264 111.356 213.264 108.655C213.264 105.918 215.141 103.388 218.533 101.438C221.925 99.5235 226.468 98.4634 231.253 98.4634C235.25 98.4634 239.066 99.1814 242.216 100.55L239.976 102.191C237.432 101.097 234.403 100.516 231.254 100.516C227.438 100.516 223.804 101.371 221.078 102.91C218.354 104.449 216.9 106.467 216.9 108.655C216.9 110.81 218.414 112.862 221.14 114.401C223.865 115.939 227.439 116.76 231.316 116.76C234.526 116.76 237.554 116.179 240.037 115.085L242.218 116.726C239.069 118.093 235.253 118.846 231.255 118.846L231.253 118.846Z" fill="#E03875"/>
</g>
</g>
<path d="M744.361 78.2761C754.578 78.2773 762.964 82.8716 762.951 88.4607C762.938 94.1346 754.587 98.6652 744.147 98.6612C733.942 98.6572 725.69 94.0581 725.697 88.3778C725.704 82.8234 734.108 78.2749 744.361 78.2761ZM738.713 81.8532C738.948 82.4892 738.72 83.0823 738.374 83.6657C738.134 84.0697 737.802 84.4587 737.604 84.8681C737.278 85.5428 736.908 86.2215 736.772 86.9115C736.577 87.9038 737.284 88.7778 738.494 89.6468L732.933 89.0011C732.943 89.098 732.932 89.1347 732.951 89.1658C733.478 90.0198 734.406 90.7394 735.446 91.4177C735.556 91.4895 735.806 91.5263 735.992 91.5265C741.536 91.5322 747.081 91.5319 752.626 91.5279C752.798 91.5277 753.028 91.5098 753.133 91.4486C754.322 90.7595 755.23 89.9747 755.799 88.986L749.911 89.6218C750.3 89.202 750.743 88.8329 750.998 88.4273C751.87 87.0398 751.508 85.6984 750.257 84.4333C749.253 83.418 748.327 82.4071 748.828 81.1835C747.768 81.7611 747.361 82.4963 747.102 83.254C746.848 84.0003 746.698 84.7575 746.501 85.5147C746.473 85.4918 746.436 85.475 746.431 85.4553C746.408 85.3759 746.387 85.2958 746.379 85.2155C746.259 83.9753 745.82 82.7804 744.893 81.6391C744.347 80.9673 743.746 80.2805 744.308 79.4791C743.928 79.5898 743.584 79.6998 743.337 79.8569C742.601 80.3258 742.297 80.889 742.218 81.5056C742.151 82.0323 742.06 82.5616 741.883 83.0796C741.697 83.624 741.401 84.1576 740.738 84.6579C740.47 83.5892 740.441 82.5322 738.713 81.8532ZM753.01 92.4631H735.619V94.1295H753.01V92.4631ZM739.067 94.9903C739.053 96.3779 741.615 97.4116 744.782 97.3366C747.407 97.2744 749.729 96.1356 749.53 94.9903H739.067Z" fill="#E75225"/>
<path fill-rule="evenodd" clip-rule="evenodd" d="M722.26 174.337C712.983 171.907 709.063 165.821 713.504 160.745C715.636 158.307 719.451 156.432 724.109 155.534C728.768 154.635 733.887 154.786 738.342 155.953C747.619 158.383 751.539 164.469 747.098 169.546C742.657 174.623 731.537 176.768 722.26 174.337Z" fill="#9D0FB0"/>
<path d="M726.886 161.359L726.921 161.37L729.929 162.309C730.03 162.341 730.144 162.357 730.26 162.357C730.377 162.357 730.491 162.341 730.592 162.309L733.576 161.38C733.807 161.308 734.081 161.288 734.337 161.326C734.594 161.364 734.813 161.457 734.948 161.583C735.083 161.71 735.122 161.861 735.058 162.004C734.993 162.147 734.83 162.27 734.603 162.346L734.569 162.357L732.847 162.895C732.795 162.911 732.751 162.935 732.721 162.963C732.691 162.992 732.675 163.024 732.675 163.058C732.675 163.091 732.691 163.123 732.721 163.152C732.751 163.181 732.795 163.204 732.847 163.22L737.497 164.672C737.598 164.704 737.712 164.721 737.828 164.721C737.945 164.721 738.059 164.704 738.16 164.672L741.036 163.774C741.268 163.701 741.541 163.681 741.799 163.719C742.056 163.756 742.277 163.849 742.412 163.976C742.547 164.103 742.587 164.254 742.522 164.398C742.457 164.541 742.293 164.664 742.065 164.74L742.031 164.752L740.411 165.256C740.359 165.272 740.315 165.296 740.285 165.325C740.255 165.353 740.239 165.386 740.239 165.419C740.239 165.452 740.255 165.485 740.285 165.513C740.315 165.542 740.359 165.566 740.411 165.582L742.038 166.09C742.27 166.162 742.441 166.281 742.516 166.423C742.59 166.564 742.561 166.716 742.435 166.845C742.309 166.975 742.097 167.072 741.843 167.115C741.589 167.159 741.315 167.145 741.079 167.078L741.043 167.067L738.159 166.166C738.058 166.135 737.944 166.118 737.827 166.118C737.711 166.118 737.597 166.135 737.496 166.166L732.794 167.634C732.742 167.651 732.699 167.674 732.668 167.703C732.638 167.731 732.622 167.764 732.622 167.797C732.622 167.83 732.638 167.863 732.668 167.891C732.699 167.92 732.742 167.944 732.794 167.96L734.737 168.566C734.966 168.639 735.135 168.758 735.208 168.899C735.281 169.04 735.252 169.191 735.127 169.319C735.001 169.448 734.79 169.545 734.538 169.589C734.286 169.633 734.013 169.62 733.777 169.554L733.742 169.543L730.543 168.544C730.442 168.513 730.328 168.496 730.212 168.496C730.095 168.496 729.981 168.513 729.88 168.544L726.652 169.553C726.421 169.626 726.148 169.645 725.891 169.607C725.635 169.569 725.415 169.477 725.28 169.35C725.145 169.224 725.106 169.073 725.17 168.93C725.234 168.787 725.397 168.664 725.624 168.587L725.658 168.576L727.628 167.96C727.666 167.948 727.7 167.932 727.728 167.912C727.755 167.893 727.775 167.871 727.787 167.847C727.799 167.824 727.802 167.799 727.797 167.774C727.792 167.75 727.778 167.727 727.756 167.705C727.726 167.675 727.681 167.651 727.628 167.634L722.968 166.18C722.866 166.148 722.752 166.132 722.636 166.132C722.52 166.132 722.406 166.148 722.305 166.18L719.561 167.035C719.33 167.108 719.056 167.128 718.799 167.09C718.542 167.052 718.322 166.959 718.187 166.832C718.052 166.705 718.013 166.554 718.078 166.411C718.143 166.268 718.307 166.145 718.534 166.068L718.568 166.057L720.052 165.595C720.104 165.579 720.148 165.555 720.178 165.526C720.208 165.498 720.224 165.465 720.224 165.432C720.224 165.399 720.208 165.366 720.178 165.338C720.148 165.309 720.104 165.285 720.052 165.269L718.571 164.806C718.341 164.734 718.172 164.615 718.099 164.474C718.026 164.333 718.056 164.182 718.181 164.054C718.306 163.925 718.517 163.828 718.769 163.784C719.021 163.74 719.294 163.753 719.53 163.819L719.565 163.83L722.307 164.685C722.408 164.717 722.522 164.734 722.638 164.734C722.754 164.734 722.868 164.717 722.969 164.685L727.674 163.219C727.726 163.203 727.769 163.179 727.8 163.15C727.83 163.122 727.846 163.089 727.846 163.056C727.846 163.023 727.83 162.99 727.8 162.962C727.769 162.933 727.726 162.909 727.674 162.893L725.926 162.347C725.697 162.275 725.528 162.155 725.455 162.015C725.382 161.874 725.411 161.723 725.536 161.594C725.662 161.465 725.873 161.369 726.125 161.325C726.377 161.281 726.65 161.293 726.886 161.36V161.359ZM729.928 163.803L725.222 165.27C725.17 165.286 725.127 165.31 725.097 165.338C725.066 165.367 725.05 165.4 725.05 165.433C725.05 165.466 725.066 165.499 725.097 165.527C725.127 165.556 725.17 165.579 725.222 165.596L729.88 167.05C729.981 167.081 730.095 167.098 730.211 167.098C730.327 167.098 730.441 167.081 730.543 167.05L735.244 165.582C735.296 165.566 735.34 165.542 735.37 165.513C735.4 165.485 735.416 165.452 735.416 165.419C735.416 165.386 735.4 165.353 735.37 165.325C735.34 165.296 735.296 165.272 735.244 165.256L730.59 163.803C730.489 163.772 730.375 163.755 730.259 163.755C730.143 163.755 730.029 163.772 729.928 163.803H729.928Z" fill="white"/>
<g filter="url(#filter8_d_12331_16978)">
<path fill-rule="evenodd" clip-rule="evenodd" d="M103.225 96.7247C93.9477 94.2943 90.0275 88.2086 94.4685 83.1318C96.6012 80.6939 100.416 78.8194 105.074 77.9208C109.732 77.0222 114.852 77.173 119.307 78.3401C128.584 80.7705 132.504 86.8562 128.063 91.933C123.622 97.0097 112.501 99.1551 103.225 96.7247Z" fill="#009639"/>
<path d="M116.13 86.2876L112.947 87.1599C113.029 87.2591 113.063 87.372 113.056 87.4849C113.049 87.5909 113.002 87.6936 112.92 87.7859L115.926 88.7027C116.198 88.5317 116.601 88.4188 117.044 88.4017L117.18 86.616C117.146 86.6126 117.119 86.6092 117.085 86.6057C116.682 86.5578 116.355 86.4415 116.13 86.2876Z" fill="white"/>
<path d="M121.537 84.1562L112.008 81.3956C111.62 81.2793 111.136 81.2793 110.741 81.3956L101.218 84.1562C100.823 84.2691 100.584 84.4778 100.584 84.707V90.2282C100.578 90.3411 100.639 90.4506 100.748 90.5463C100.857 90.6421 101.021 90.7242 101.212 90.779L110.741 93.5396C111.129 93.6559 111.613 93.6559 112.008 93.5396L121.537 90.779C121.933 90.6661 122.171 90.4574 122.171 90.2282V84.707C122.171 84.4812 121.933 84.2691 121.537 84.1562ZM117.57 88.3638C118.45 88.4357 119.049 88.853 118.906 89.2943C118.763 89.7356 117.931 90.0366 117.052 89.9648C116.173 89.893 115.573 89.4756 115.716 89.0343C115.737 88.9728 115.771 88.918 115.812 88.8633L112.744 88.0012C112.451 88.2031 111.974 88.3331 111.443 88.3331C110.911 88.3331 110.434 88.2031 110.141 88.0047L107.073 88.8633C107.148 88.9557 107.189 89.0583 107.189 89.1643C107.189 89.2806 107.142 89.3901 107.053 89.4893L110.175 90.4232C110.468 90.2351 110.931 90.1153 111.443 90.1153C112.335 90.1153 113.058 90.4779 113.058 90.9261C113.058 91.3742 112.335 91.7368 111.443 91.7368C110.55 91.7368 109.827 91.3742 109.827 90.9261C109.827 90.8098 109.875 90.7003 109.963 90.6011L106.842 89.6672C106.549 89.8553 106.092 89.9751 105.574 89.9751C104.681 89.9751 103.958 89.6125 103.958 89.1643C103.958 88.7162 104.681 88.3536 105.574 88.3536C106.106 88.3536 106.583 88.4836 106.876 88.682L109.943 87.8199C109.868 87.7276 109.827 87.6249 109.827 87.5189C109.827 87.105 110.441 86.7663 111.238 86.715V84.8096C110.802 84.7822 110.42 84.6659 110.161 84.4983L106.917 85.4493C106.998 85.5451 107.046 85.6545 107.046 85.764C107.046 86.2121 106.324 86.5747 105.431 86.5747C104.538 86.5747 103.815 86.2121 103.815 85.764C103.815 85.3159 104.538 84.9533 105.431 84.9533C105.956 84.9533 106.419 85.0764 106.712 85.2714L109.957 84.3204C109.875 84.2246 109.827 84.1152 109.827 84.0057C109.827 83.5576 110.55 83.1949 111.443 83.1949C112.335 83.1949 113.058 83.5576 113.058 84.0057C113.058 84.4196 112.445 84.7583 111.647 84.8096V86.715C112.076 86.7424 112.458 86.8553 112.71 87.016L115.832 86.0856C115.709 85.9419 115.669 85.7777 115.73 85.6101C115.9 85.1688 116.745 84.8814 117.625 84.9669C118.504 85.0525 119.077 85.4767 118.906 85.9179C118.77 86.2703 118.197 86.5269 117.523 86.5679V88.357C117.536 88.3604 117.557 88.3638 117.57 88.3638Z" fill="white"/>
</g>
<g filter="url(#filter9_d_12331_16978)">
<path fill-rule="evenodd" clip-rule="evenodd" d="M117.254 172.467C107.977 170.037 104.057 163.951 108.498 158.874C110.631 156.436 114.446 154.562 119.104 153.663C123.762 152.765 128.881 152.915 133.336 154.083C142.613 156.513 146.533 162.599 142.092 167.675C137.651 172.752 126.531 174.897 117.254 172.467Z" fill="#F49322"/>
<path d="M115.555 160.012L114.971 159.469L118.418 158.504L119.002 159.047L115.555 160.012ZM121.048 158.474L120.463 157.93L123.56 157.055L124.144 157.599L121.048 158.474Z" fill="white"/>
<path d="M124.203 162.849L121.107 162.004L121.633 161.461L124.729 162.306L124.203 162.849ZM119.003 161.431L115.906 160.586L116.432 160.043L119.529 160.888L119.003 161.431Z" fill="white"/>
<path d="M126.481 162.788L125.955 162.245L129.11 161.461L129.636 162.004L126.481 162.788ZM131.74 161.461L131.214 160.918L134.369 160.133L134.895 160.676L131.74 161.461Z" fill="white"/>
<path d="M123.858 169.939L120.352 168.974L120.878 168.431L124.384 169.396L123.858 169.939ZM118.599 168.551L115.502 167.706L116.028 167.163L119.125 168.008L118.599 168.551Z" fill="white"/>
<path d="M115.442 160.797H114.273V163.12H115.442V160.797Z" fill="white"/>
<path d="M125.725 166.801H124.557V169.185H125.725V166.801Z" fill="white"/>
<path d="M114.857 161.038C114.448 161.038 114.039 160.948 113.747 160.797C113.455 160.646 113.279 160.435 113.279 160.224C113.279 160.012 113.455 159.801 113.747 159.65C114.331 159.349 115.383 159.349 115.967 159.65C116.259 159.801 116.435 160.012 116.435 160.224C116.435 160.435 116.259 160.646 115.967 160.797C115.675 160.948 115.266 161.038 114.857 161.038ZM114.857 160.012C114.74 160.012 114.623 160.043 114.565 160.073C114.506 160.103 114.448 160.163 114.448 160.224C114.448 160.284 114.506 160.344 114.565 160.375C114.74 160.465 114.974 160.465 115.149 160.375C115.208 160.344 115.266 160.284 115.266 160.224C115.266 160.163 115.208 160.103 115.149 160.073C115.091 160.043 114.974 160.012 114.857 160.012Z" fill="white"/>
<path d="M114.857 167.797C114.448 167.797 114.039 167.707 113.747 167.556C113.455 167.405 113.279 167.194 113.279 166.982C113.279 166.771 113.455 166.56 113.747 166.409C114.331 166.107 115.383 166.107 115.967 166.409C116.259 166.56 116.435 166.771 116.435 166.982C116.435 167.194 116.259 167.405 115.967 167.556C115.675 167.707 115.266 167.797 114.857 167.797ZM114.857 166.771C114.74 166.771 114.623 166.801 114.565 166.832C114.506 166.862 114.448 166.922 114.448 166.982C114.448 167.043 114.506 167.103 114.565 167.133C114.74 167.224 114.974 167.224 115.149 167.133C115.208 167.103 115.266 167.043 115.266 166.982C115.266 166.922 115.208 166.862 115.149 166.832C115.091 166.801 114.974 166.771 114.857 166.771Z" fill="white"/>
<path d="M125.138 170.513C124.729 170.513 124.32 170.422 124.028 170.271C123.736 170.12 123.561 169.909 123.561 169.698C123.561 169.487 123.736 169.276 124.028 169.125C124.671 168.793 125.664 168.793 126.248 169.125C126.891 169.457 126.891 169.97 126.248 170.271C125.898 170.422 125.547 170.513 125.138 170.513ZM125.138 169.457C125.021 169.457 124.904 169.487 124.846 169.517C124.671 169.607 124.671 169.728 124.846 169.819C125.021 169.909 125.255 169.909 125.43 169.819C125.606 169.728 125.606 169.607 125.43 169.517C125.313 169.487 125.197 169.457 125.138 169.457Z" fill="white"/>
<path d="M125.138 163.724C124.729 163.724 124.32 163.633 124.028 163.482C123.736 163.332 123.561 163.12 123.561 162.909C123.561 162.698 123.736 162.487 124.028 162.336C124.671 162.004 125.664 162.004 126.248 162.336C126.891 162.668 126.891 163.181 126.248 163.482C125.898 163.663 125.547 163.724 125.138 163.724ZM125.138 162.698C125.021 162.698 124.904 162.728 124.846 162.758C124.671 162.849 124.671 162.969 124.846 163.06C125.021 163.151 125.255 163.151 125.43 163.06C125.606 162.969 125.606 162.849 125.43 162.758C125.313 162.728 125.197 162.698 125.138 162.698Z" fill="white"/>
<path d="M135.254 167.797C134.845 167.797 134.436 167.707 134.144 167.556C133.501 167.224 133.501 166.711 134.144 166.409C134.728 166.107 135.78 166.107 136.365 166.409C136.657 166.56 136.832 166.771 136.832 166.982C136.832 167.194 136.657 167.405 136.365 167.556C136.072 167.707 135.663 167.797 135.254 167.797ZM135.254 166.771C135.137 166.771 135.021 166.801 134.962 166.832C134.787 166.922 134.787 167.043 134.962 167.133C135.137 167.224 135.371 167.224 135.547 167.133C135.722 167.043 135.722 166.922 135.547 166.832C135.488 166.801 135.371 166.771 135.254 166.771Z" fill="white"/>
<path d="M135.254 161.038C134.845 161.038 134.436 160.948 134.144 160.797C133.501 160.465 133.501 159.952 134.144 159.65C134.728 159.349 135.78 159.349 136.365 159.65C137.007 159.982 137.007 160.495 136.365 160.797C136.072 160.948 135.663 161.038 135.254 161.038ZM135.254 160.012C135.138 160.012 135.021 160.043 134.962 160.073C134.787 160.163 134.787 160.284 134.962 160.375C135.138 160.465 135.371 160.465 135.547 160.375C135.722 160.284 135.722 160.163 135.547 160.073C135.488 160.043 135.371 160.012 135.254 160.012Z" fill="white"/>
<path d="M125.138 157.961C124.729 157.961 124.32 157.87 124.028 157.719C123.736 157.568 123.561 157.357 123.561 157.146C123.561 156.935 123.736 156.724 124.028 156.573C124.671 156.241 125.664 156.241 126.248 156.573C126.891 156.905 126.891 157.418 126.248 157.719C125.898 157.87 125.547 157.961 125.138 157.961ZM125.138 156.935C125.021 156.935 124.904 156.965 124.846 156.995C124.671 157.086 124.671 157.206 124.846 157.297C125.021 157.387 125.255 157.387 125.43 157.297C125.606 157.206 125.606 157.086 125.43 156.995C125.313 156.935 125.197 156.935 125.138 156.935Z" fill="white"/>
<path d="M115.442 163.724H114.273V166.319H115.442V163.724Z" fill="white"/>
<path d="M135.78 160.797H134.611V163.12H135.78V160.797Z" fill="white"/>
<path d="M135.78 163.724H134.611V166.319H135.78V163.724Z" fill="white"/>
<path d="M131.279 159.016L131.864 158.473L135.194 159.409L134.61 159.952L131.279 159.016ZM125.67 157.447L126.254 156.904L129.819 157.9L129.234 158.443L125.67 157.447Z" fill="white"/>
<path d="M125.727 163.482H124.559V165.866H125.727V163.482Z" fill="white"/>
<path d="M125.9 169.426L129.289 168.521L129.815 169.064L126.426 169.969L125.9 169.426ZM130.984 168.069L134.315 167.163L134.84 167.706L131.51 168.612L130.984 168.069Z" fill="white"/>
</g>
<g clip-path="url(#clip0_12331_16978)">
<path d="M323.246 235.48L327.873 221.766C327.989 221.41 328.013 221.051 327.943 220.715C327.873 220.379 327.71 220.075 327.467 219.823L317.943 210.125C317.696 209.874 317.374 209.683 317 209.567C316.627 209.451 316.211 209.413 315.783 209.454L299.282 211.075C298.857 211.119 298.431 211.241 298.036 211.432C297.641 211.624 297.286 211.88 296.996 212.182L285.946 223.9C285.668 224.197 285.463 224.531 285.343 224.876C285.306 224.982 285.277 225.087 285.256 225.193C285.219 225.374 285.208 225.553 285.221 225.728C285.227 225.803 285.237 225.877 285.252 225.951L287.97 238.943C287.982 238.999 288 239.053 288.018 239.108C288.075 239.289 288.16 239.459 288.272 239.614C288.414 239.808 288.596 239.978 288.81 240.117C288.984 240.232 289.181 240.325 289.394 240.393L289.534 240.436L303.837 244.874C303.924 244.9 304.014 244.923 304.106 244.941C304.238 244.966 304.373 244.983 304.512 244.991C304.611 244.997 304.711 244.999 304.813 244.996C304.892 244.993 304.971 244.991 305.05 244.983C305.17 244.971 305.289 244.953 305.408 244.93C305.715 244.87 306.017 244.77 306.303 244.634L306.769 244.408L321.593 237.231C321.878 237.092 322.142 236.918 322.375 236.716C322.471 236.633 322.561 236.546 322.645 236.455C322.923 236.158 323.128 235.825 323.247 235.479L323.246 235.48ZM306.699 236.234C306.676 236.343 306.66 236.452 306.653 236.56C306.495 236.663 306.38 236.806 306.334 236.96C306.28 237.414 306.279 237.863 306.331 238.3C306.37 238.528 306.393 238.76 306.4 238.995C306.398 239.058 306.389 239.153 306.384 239.218C306.387 239.321 306.365 239.427 306.317 239.529C306.269 239.632 306.198 239.729 306.108 239.815C306.017 239.9 305.91 239.971 305.792 240.025C305.674 240.078 305.549 240.111 305.424 240.123C305.299 240.135 305.178 240.125 305.067 240.093C304.956 240.062 304.859 240.01 304.782 239.94C304.704 239.871 304.648 239.786 304.617 239.691C304.586 239.595 304.581 239.492 304.602 239.387C304.607 239.322 304.611 239.235 304.618 239.175C304.66 238.935 304.718 238.694 304.793 238.455C304.912 238.001 304.979 237.546 304.994 237.096C304.97 236.949 304.876 236.826 304.732 236.753C304.731 236.707 304.734 236.524 304.733 236.429C301.924 236.509 299.369 235.708 297.557 234.181L297.201 234.417C297.065 234.395 296.916 234.411 296.774 234.461C296.263 234.776 295.796 235.142 295.385 235.548C295.188 235.75 294.979 235.943 294.76 236.128C294.703 236.173 294.616 236.233 294.552 236.279L294.551 236.28L294.549 236.281C294.454 236.363 294.344 236.431 294.224 236.48C294.104 236.529 293.978 236.557 293.853 236.564C293.729 236.571 293.609 236.555 293.501 236.519C293.394 236.482 293.301 236.426 293.228 236.352C293.156 236.279 293.106 236.191 293.081 236.093C293.056 235.995 293.058 235.891 293.085 235.786C293.112 235.68 293.165 235.577 293.239 235.483C293.314 235.388 293.409 235.305 293.518 235.237C293.582 235.19 293.671 235.121 293.735 235.077C293.983 234.921 294.239 234.775 294.502 234.64C295.001 234.362 295.475 234.049 295.918 233.705C296.023 233.575 296.085 233.428 296.096 233.283L296.429 233.017C295.004 231.21 294.526 228.898 295.086 226.517L294.714 226.464C294.635 226.338 294.511 226.24 294.355 226.181C293.841 226.118 293.311 226.099 292.773 226.124C292.488 226.146 292.205 226.155 291.924 226.15C291.859 226.147 291.769 226.136 291.697 226.129C291.691 226.129 291.685 226.13 291.68 226.129C291.675 226.128 291.671 226.128 291.667 226.126C291.544 226.125 291.428 226.102 291.326 226.059C291.224 226.016 291.138 225.953 291.073 225.875C291.008 225.796 290.967 225.705 290.951 225.605C290.935 225.505 290.945 225.4 290.98 225.296C291.015 225.192 291.075 225.091 291.156 225C291.237 224.909 291.337 224.831 291.449 224.769C291.561 224.707 291.684 224.663 291.808 224.64C291.933 224.618 292.057 224.617 292.173 224.637L292.186 224.638L292.194 224.639C292.268 224.645 292.363 224.651 292.429 224.659C292.696 224.705 292.957 224.764 293.21 224.836C293.699 224.955 294.21 225.03 294.735 225.061C294.918 225.025 295.097 224.955 295.259 224.858L295.638 224.872C296.665 222.524 298.635 220.422 301.173 218.968L301.048 218.688C301.13 218.538 301.163 218.379 301.144 218.23C300.958 217.838 300.723 217.469 300.443 217.129C300.284 216.957 300.139 216.775 300.009 216.585C299.982 216.538 299.949 216.471 299.921 216.417L299.914 216.406C299.808 216.235 299.796 216.023 299.881 215.816C299.966 215.609 300.141 215.424 300.367 215.301C300.493 215.241 300.628 215.204 300.763 215.194C300.898 215.184 301.027 215.201 301.141 215.243C301.335 215.313 301.485 215.437 301.569 215.599C301.599 215.653 301.64 215.726 301.665 215.777C301.75 215.99 301.819 216.208 301.872 216.432C301.994 216.85 302.167 217.248 302.389 217.622C302.489 217.735 302.646 217.801 302.827 217.807C302.881 217.897 302.938 217.987 302.995 218.076C305.181 217.176 307.521 216.804 309.716 217.009C310.239 217.057 310.75 217.137 311.246 217.249L311.449 216.955C311.63 216.894 311.797 216.794 311.928 216.666C312.21 216.241 312.447 215.801 312.635 215.353C312.722 215.115 312.826 214.879 312.944 214.646C312.974 214.593 313.021 214.523 313.058 214.464C313.062 214.458 313.064 214.45 313.068 214.444C313.118 214.342 313.192 214.245 313.285 214.161C313.377 214.077 313.486 214.007 313.605 213.956C313.724 213.905 313.85 213.873 313.975 213.864C314.1 213.854 314.221 213.867 314.331 213.901C314.44 213.935 314.536 213.989 314.611 214.061C314.686 214.132 314.739 214.219 314.767 214.316C314.795 214.413 314.797 214.517 314.772 214.622C314.748 214.727 314.698 214.831 314.626 214.927C314.588 214.989 314.541 215.073 314.504 215.129C314.343 215.349 314.168 215.563 313.981 215.77C313.644 216.172 313.348 216.594 313.1 217.029C313.042 217.183 313.054 217.338 313.135 217.463C313.107 217.515 313.01 217.689 312.959 217.785C315.295 218.754 316.969 220.478 317.669 222.637L318.085 222.536C318.228 222.61 318.402 222.645 318.586 222.636C319.124 222.497 319.654 222.317 320.169 222.097C320.437 221.973 320.711 221.861 320.989 221.761C321.06 221.739 321.163 221.711 321.239 221.689C321.36 221.643 321.487 221.618 321.612 221.615C321.736 221.612 321.855 221.631 321.961 221.671C322.067 221.711 322.157 221.771 322.226 221.847C322.295 221.923 322.341 222.014 322.362 222.113C322.382 222.213 322.376 222.319 322.344 222.424C322.312 222.529 322.254 222.632 322.175 222.725C322.096 222.818 321.998 222.899 321.886 222.963C321.774 223.028 321.651 223.074 321.526 223.099C321.45 223.122 321.348 223.154 321.276 223.172C320.991 223.233 320.704 223.281 320.417 223.315C319.875 223.399 319.334 223.527 318.802 223.696C318.629 223.775 318.488 223.903 318.408 224.052C318.343 224.075 318.115 224.151 317.993 224.192C318.218 226.496 317.395 228.946 315.68 231.078L315.943 231.259C315.942 231.413 315.992 231.555 316.089 231.671C316.477 231.924 316.902 232.139 317.356 232.314C317.603 232.397 317.841 232.492 318.069 232.6C318.128 232.632 318.208 232.685 318.266 232.72C318.366 232.766 318.449 232.832 318.511 232.912C318.572 232.992 318.609 233.086 318.621 233.186C318.633 233.287 318.619 233.393 318.58 233.496C318.541 233.6 318.477 233.7 318.393 233.789C318.31 233.878 318.207 233.954 318.093 234.014C317.979 234.073 317.856 234.114 317.731 234.133C317.606 234.152 317.483 234.15 317.369 234.126C317.254 234.102 317.152 234.057 317.068 233.994L317.057 233.989C317.053 233.986 317.05 233.982 317.045 233.979C316.989 233.947 316.916 233.909 316.868 233.878C316.673 233.734 316.49 233.58 316.321 233.415C315.981 233.118 315.601 232.855 315.187 232.63C315.029 232.575 314.839 232.579 314.66 232.642C314.561 232.588 314.461 232.536 314.36 232.485C312.276 234.409 309.55 235.743 306.699 236.234Z" fill="url(#paint20_radial_12331_16978)" fill-opacity="0.8"/>
</g>
<g clip-path="url(#clip1_12331_16978)">
<path d="M307.15 226.724C307.105 226.699 307.055 226.68 307.002 226.665C306.91 226.642 306.81 226.635 306.708 226.645C306.51 226.663 306.317 226.744 306.167 226.869C306.018 226.994 305.924 227.155 305.905 227.318L305.896 227.322L305.399 231.106C307.388 230.728 309.275 229.828 310.764 228.547L307.161 226.719L307.15 226.724ZM300.684 225.274C300.731 225.134 300.721 224.992 300.656 224.871C300.591 224.751 300.475 224.659 300.326 224.61C300.282 224.596 300.235 224.585 300.187 224.579L300.185 224.57L295.884 223.941C295.58 225.576 295.93 227.159 296.881 228.446L300.424 225.647L300.42 225.63C300.548 225.532 300.64 225.407 300.684 225.274ZM303.189 227.581C303.19 227.468 303.153 227.362 303.083 227.274C303.013 227.186 302.912 227.12 302.79 227.083C302.668 227.045 302.531 227.037 302.392 227.061C302.254 227.084 302.119 227.137 302.003 227.215L302 227.214L298.148 229.72C299.276 230.57 300.723 231.1 302.329 231.253C302.627 231.281 302.925 231.297 303.223 231.301L303.203 227.585L303.189 227.581ZM313.766 222.264L309.329 223.706L309.326 223.715C309.191 223.757 309.067 223.828 308.966 223.919C308.865 224.01 308.792 224.118 308.754 224.231C308.716 224.345 308.715 224.46 308.751 224.564C308.787 224.668 308.858 224.757 308.958 224.822L308.952 224.838L312.201 227.022C313.316 225.535 313.866 223.865 313.766 222.265L313.766 222.264ZM308.071 220.812C308.01 220.921 307.984 221.038 307.996 221.149C308.007 221.259 308.056 221.36 308.137 221.441C308.218 221.522 308.327 221.579 308.454 221.607C308.581 221.635 308.721 221.632 308.858 221.599L308.867 221.607L313.39 220.567C312.815 219.103 311.634 217.918 310.028 217.193L308.068 220.81L308.071 220.812ZM304.332 220.209C304.391 220.303 304.483 220.378 304.598 220.425C304.713 220.472 304.847 220.49 304.985 220.477C305.124 220.464 305.261 220.421 305.384 220.351C305.506 220.282 305.609 220.189 305.68 220.083L305.701 220.081L308.118 216.6C307.827 216.544 307.53 216.501 307.228 216.472C305.624 216.314 303.923 216.541 302.317 217.128L304.323 220.211L304.332 220.209ZM300.929 222.35C301.064 222.358 301.205 222.335 301.337 222.283C301.469 222.231 301.588 222.153 301.68 222.056C301.772 221.959 301.834 221.847 301.86 221.733C301.885 221.618 301.874 221.505 301.826 221.406L301.838 221.393L300.31 218.085C298.582 219.122 297.233 220.553 296.474 222.152L300.919 222.361L300.929 222.35ZM303.193 224.298L304.006 225.112L305.398 224.983L306.322 224.013L306.082 222.93L304.855 222.549L303.57 223.156L303.193 224.298Z" fill="#326CE5"/>
<path d="M321.272 232.39L325.611 219.273C325.72 218.933 325.739 218.589 325.667 218.266C325.594 217.944 325.432 217.651 325.191 217.408L315.783 208.051C315.539 207.809 315.223 207.624 314.857 207.51C314.491 207.397 314.085 207.357 313.669 207.395L297.599 208.844C297.185 208.883 296.772 208.998 296.389 209.179C296.006 209.359 295.663 209.603 295.384 209.89L284.756 221.054C284.49 221.337 284.293 221.655 284.181 221.986C284.146 222.087 284.119 222.188 284.1 222.289C284.066 222.462 284.057 222.634 284.073 222.802C284.08 222.874 284.09 222.945 284.105 223.016L286.919 235.487C286.931 235.541 286.95 235.593 286.968 235.646C287.026 235.819 287.111 235.983 287.222 236.132C287.363 236.32 287.542 236.483 287.753 236.618C287.924 236.729 288.117 236.82 288.325 236.886L288.463 236.928L302.465 241.273C302.55 241.299 302.638 241.321 302.728 241.339C302.857 241.364 302.989 241.381 303.124 241.389C303.221 241.396 303.319 241.398 303.418 241.396C303.495 241.394 303.572 241.392 303.649 241.385C303.765 241.375 303.882 241.358 303.998 241.336C304.296 241.281 304.589 241.187 304.866 241.058L305.318 240.845L319.683 234.059C319.959 233.927 320.214 233.762 320.438 233.57C320.53 233.491 320.618 233.408 320.699 233.321C320.965 233.038 321.161 232.72 321.273 232.389L321.272 232.39ZM305.147 233.009C305.126 233.113 305.112 233.218 305.106 233.321C304.953 233.418 304.844 233.555 304.8 233.702C304.753 234.137 304.758 234.567 304.814 234.987C304.855 235.206 304.88 235.428 304.89 235.654C304.889 235.714 304.881 235.805 304.877 235.867C304.882 235.965 304.861 236.067 304.816 236.165C304.771 236.264 304.703 236.356 304.615 236.437C304.528 236.519 304.424 236.586 304.31 236.637C304.196 236.687 304.074 236.718 303.953 236.729C303.831 236.739 303.712 236.729 303.604 236.698C303.496 236.667 303.4 236.617 303.324 236.55C303.248 236.483 303.192 236.401 303.161 236.309C303.129 236.217 303.123 236.118 303.142 236.018C303.146 235.956 303.149 235.873 303.155 235.815C303.193 235.585 303.247 235.355 303.316 235.126C303.427 234.691 303.487 234.255 303.495 233.825C303.471 233.683 303.377 233.564 303.235 233.494C303.234 233.449 303.234 233.274 303.233 233.183C300.495 233.242 297.994 232.458 296.207 230.982L295.863 231.206C295.73 231.185 295.585 231.199 295.447 231.247C294.953 231.545 294.502 231.893 294.107 232.28C293.917 232.472 293.716 232.656 293.504 232.832C293.449 232.874 293.365 232.931 293.303 232.975L293.303 232.976L293.301 232.977C293.209 233.055 293.102 233.12 292.986 233.165C292.87 233.211 292.747 233.238 292.626 233.244C292.505 233.249 292.387 233.234 292.282 233.198C292.177 233.163 292.085 233.108 292.014 233.037C291.942 232.966 291.892 232.881 291.867 232.787C291.841 232.694 291.841 232.593 291.867 232.493C291.892 232.392 291.942 232.294 292.013 232.204C292.085 232.113 292.176 232.034 292.282 231.97C292.344 231.925 292.43 231.859 292.492 231.818C292.732 231.669 292.979 231.531 293.234 231.404C293.717 231.14 294.175 230.843 294.603 230.516C294.704 230.392 294.763 230.251 294.771 230.112L295.092 229.86C293.68 228.119 293.185 225.899 293.702 223.62L293.339 223.567C293.26 223.446 293.137 223.352 292.985 223.294C292.482 223.23 291.966 223.208 291.442 223.229C291.164 223.249 290.888 223.255 290.614 223.249C290.551 223.245 290.463 223.234 290.392 223.227C290.386 223.227 290.381 223.227 290.375 223.227C290.371 223.226 290.367 223.225 290.363 223.224C290.243 223.222 290.13 223.2 290.03 223.157C289.929 223.115 289.844 223.055 289.78 222.979C289.716 222.904 289.675 222.816 289.658 222.72C289.641 222.624 289.649 222.523 289.683 222.424C289.716 222.324 289.773 222.228 289.851 222.142C289.928 222.055 290.025 221.98 290.133 221.921C290.242 221.863 290.361 221.821 290.482 221.801C290.604 221.78 290.725 221.779 290.838 221.8L290.85 221.801L290.858 221.801C290.93 221.808 291.023 221.814 291.088 221.823C291.349 221.868 291.604 221.926 291.851 221.997C292.33 222.114 292.828 222.189 293.341 222.222C293.519 222.189 293.693 222.123 293.849 222.031L294.22 222.047C295.191 219.803 297.086 217.8 299.542 216.422L299.417 216.153C299.494 216.01 299.525 215.858 299.504 215.715C299.319 215.338 299.085 214.983 298.807 214.655C298.65 214.489 298.507 214.314 298.377 214.131C298.35 214.086 298.317 214.02 298.289 213.969L298.282 213.958C298.177 213.794 298.163 213.59 298.243 213.392C298.323 213.194 298.491 213.018 298.71 212.902C298.832 212.845 298.964 212.811 299.095 212.802C299.226 212.794 299.353 212.81 299.465 212.852C299.654 212.919 299.802 213.039 299.886 213.195C299.916 213.247 299.957 213.317 299.981 213.367C300.067 213.571 300.137 213.781 300.192 213.996C300.316 214.397 300.49 214.78 300.711 215.14C300.81 215.248 300.964 215.313 301.14 215.319C301.194 215.407 301.25 215.493 301.308 215.578C303.427 214.73 305.705 214.388 307.848 214.598C308.358 214.647 308.857 214.728 309.342 214.838L309.537 214.557C309.713 214.5 309.874 214.405 310 214.284C310.27 213.878 310.495 213.458 310.673 213.029C310.755 212.802 310.853 212.576 310.966 212.353C310.994 212.303 311.039 212.236 311.074 212.18C311.078 212.174 311.08 212.167 311.084 212.161C311.132 212.063 311.202 211.971 311.291 211.891C311.381 211.811 311.486 211.744 311.602 211.696C311.717 211.648 311.839 211.618 311.961 211.61C312.083 211.602 312.201 211.615 312.308 211.648C312.415 211.681 312.509 211.734 312.583 211.803C312.657 211.872 312.71 211.956 312.739 212.048C312.767 212.141 312.77 212.241 312.748 212.342C312.726 212.443 312.678 212.542 312.609 212.634C312.573 212.693 312.528 212.773 312.492 212.827C312.338 213.036 312.171 213.24 311.991 213.438C311.667 213.821 311.384 214.223 311.147 214.639C311.092 214.786 311.107 214.935 311.187 215.055C311.16 215.105 311.068 215.271 311.019 215.363C313.31 216.306 314.963 217.969 315.673 220.043L316.077 219.95C316.218 220.022 316.388 220.056 316.567 220.049C317.09 219.919 317.605 219.749 318.104 219.542C318.364 219.424 318.629 219.319 318.899 219.225C318.968 219.204 319.068 219.178 319.142 219.158C319.26 219.114 319.383 219.091 319.505 219.089C319.626 219.086 319.742 219.105 319.846 219.144C319.95 219.183 320.038 219.241 320.107 219.315C320.175 219.389 320.221 219.476 320.242 219.571C320.263 219.667 320.258 219.768 320.228 219.869C320.198 219.97 320.144 220.067 320.068 220.156C319.992 220.245 319.897 220.322 319.789 220.383C319.68 220.444 319.561 220.488 319.439 220.511C319.365 220.532 319.266 220.562 319.197 220.579C318.919 220.636 318.64 220.68 318.361 220.711C317.833 220.788 317.308 220.907 316.791 221.066C316.623 221.141 316.487 221.262 316.412 221.405C316.348 221.427 316.126 221.498 316.008 221.537C316.257 223.746 315.485 226.09 313.839 228.123L314.098 228.298C314.099 228.445 314.15 228.582 314.246 228.694C314.628 228.939 315.044 229.148 315.489 229.318C315.731 229.399 315.964 229.492 316.188 229.597C316.246 229.628 316.325 229.679 316.382 229.713C316.48 229.758 316.562 229.821 316.622 229.899C316.683 229.976 316.721 230.066 316.734 230.163C316.747 230.259 316.735 230.36 316.698 230.459C316.661 230.559 316.6 230.654 316.519 230.738C316.439 230.823 316.34 230.896 316.23 230.952C316.119 231.008 315.999 231.046 315.878 231.064C315.756 231.082 315.636 231.079 315.524 231.055C315.412 231.031 315.312 230.988 315.229 230.927L315.219 230.922C315.214 230.919 315.211 230.915 315.207 230.912C315.151 230.881 315.08 230.844 315.033 230.814C314.841 230.675 314.661 230.526 314.494 230.367C314.159 230.08 313.785 229.825 313.378 229.607C313.223 229.554 313.039 229.557 312.864 229.615C312.767 229.563 312.669 229.513 312.57 229.463C310.562 231.294 307.921 232.556 305.147 233.009Z" fill="#326CE5"/>
<path d="M316.381 229.713C316.325 229.679 316.246 229.628 316.188 229.598C315.965 229.493 315.731 229.399 315.49 229.318C315.044 229.148 314.628 228.939 314.245 228.694C314.15 228.583 314.099 228.445 314.098 228.299L313.839 228.123C315.485 226.09 316.257 223.747 316.009 221.537C316.126 221.498 316.348 221.427 316.411 221.406C316.487 221.263 316.623 221.141 316.791 221.067C317.307 220.908 317.833 220.789 318.361 220.711C318.64 220.68 318.919 220.637 319.197 220.58C319.266 220.563 319.365 220.532 319.439 220.511C319.561 220.488 319.68 220.445 319.789 220.384C319.897 220.322 319.992 220.245 320.068 220.157C320.143 220.068 320.198 219.97 320.228 219.869C320.258 219.769 320.263 219.667 320.242 219.572C320.221 219.477 320.175 219.389 320.107 219.316C320.039 219.242 319.95 219.184 319.846 219.145C319.742 219.106 319.626 219.087 319.505 219.089C319.384 219.091 319.26 219.115 319.142 219.158C319.068 219.178 318.968 219.204 318.899 219.225C318.629 219.319 318.364 219.425 318.104 219.542C317.605 219.749 317.09 219.919 316.567 220.049C316.388 220.056 316.218 220.022 316.077 219.95L315.673 220.044C314.963 217.969 313.309 216.306 311.019 215.363C311.068 215.271 311.16 215.105 311.187 215.055C311.107 214.935 311.093 214.786 311.147 214.64C311.385 214.224 311.667 213.821 311.991 213.438C312.171 213.241 312.338 213.037 312.492 212.827C312.528 212.773 312.573 212.693 312.609 212.634C312.678 212.542 312.726 212.443 312.748 212.342C312.77 212.242 312.767 212.142 312.739 212.049C312.71 211.956 312.657 211.872 312.583 211.803C312.509 211.734 312.415 211.681 312.308 211.648C312.201 211.615 312.083 211.602 311.961 211.61C311.839 211.619 311.717 211.648 311.601 211.696C311.486 211.744 311.38 211.811 311.291 211.891C311.202 211.971 311.132 212.063 311.084 212.161C311.08 212.167 311.078 212.174 311.074 212.18C311.039 212.236 310.994 212.303 310.966 212.353C310.853 212.576 310.755 212.802 310.672 213.03C310.495 213.458 310.27 213.878 310 214.284C309.874 214.406 309.713 214.5 309.537 214.557L309.342 214.838C308.857 214.728 308.358 214.648 307.848 214.598C305.705 214.389 303.428 214.73 301.308 215.579C301.251 215.493 301.194 215.407 301.14 215.32C300.964 215.313 300.81 215.248 300.711 215.14C300.49 214.78 300.316 214.397 300.192 213.996C300.137 213.781 300.067 213.571 299.982 213.367C299.957 213.317 299.916 213.247 299.887 213.194C299.802 213.039 299.654 212.919 299.465 212.851C299.353 212.81 299.226 212.793 299.095 212.802C298.964 212.811 298.832 212.845 298.71 212.901C298.491 213.018 298.323 213.194 298.243 213.392C298.163 213.59 298.177 213.793 298.282 213.958L298.289 213.969C298.317 214.021 298.35 214.086 298.377 214.13C298.507 214.314 298.65 214.489 298.807 214.655C299.085 214.983 299.318 215.338 299.504 215.715C299.524 215.858 299.494 216.01 299.417 216.153L299.541 216.423C297.086 217.8 295.19 219.803 294.219 222.047L293.849 222.031C293.693 222.123 293.52 222.188 293.341 222.222C292.828 222.189 292.329 222.114 291.851 221.998C291.603 221.927 291.348 221.868 291.087 221.823C291.023 221.814 290.93 221.807 290.858 221.802L290.85 221.801L290.838 221.801C290.725 221.78 290.603 221.78 290.482 221.801C290.361 221.822 290.242 221.863 290.133 221.922C290.025 221.981 289.928 222.056 289.851 222.142C289.773 222.229 289.716 222.325 289.683 222.425C289.65 222.524 289.641 222.625 289.658 222.721C289.675 222.816 289.717 222.905 289.781 222.98C289.845 223.055 289.93 223.116 290.03 223.158C290.13 223.2 290.244 223.223 290.363 223.225L290.375 223.227C290.381 223.228 290.387 223.227 290.392 223.227C290.463 223.234 290.55 223.245 290.614 223.249C290.887 223.255 291.164 223.249 291.441 223.229C291.965 223.208 292.482 223.23 292.985 223.294C293.137 223.352 293.259 223.446 293.338 223.568L293.702 223.62C293.185 225.899 293.68 228.119 295.092 229.86L294.771 230.112C294.763 230.251 294.704 230.392 294.603 230.517C294.176 230.843 293.717 231.14 293.234 231.403C292.98 231.531 292.732 231.669 292.492 231.817C292.43 231.859 292.344 231.925 292.282 231.97C292.176 232.034 292.085 232.114 292.014 232.204C291.943 232.294 291.893 232.392 291.868 232.493C291.843 232.593 291.843 232.693 291.868 232.787C291.893 232.88 291.943 232.965 292.015 233.036C292.086 233.106 292.178 233.161 292.283 233.197C292.388 233.233 292.505 233.248 292.626 233.243C292.747 233.237 292.87 233.211 292.986 233.165C293.102 233.119 293.209 233.055 293.301 232.977L293.303 232.976L293.304 232.975C293.365 232.931 293.449 232.874 293.504 232.832C293.716 232.656 293.917 232.472 294.107 232.28C294.502 231.893 294.953 231.545 295.447 231.247C295.585 231.199 295.73 231.185 295.863 231.206L296.207 230.982C297.994 232.458 300.495 233.241 303.233 233.183C303.234 233.275 303.234 233.449 303.235 233.494C303.377 233.564 303.47 233.683 303.495 233.825C303.486 234.255 303.427 234.691 303.316 235.126C303.247 235.355 303.193 235.585 303.155 235.815C303.149 235.873 303.146 235.955 303.142 236.018C303.123 236.118 303.129 236.218 303.161 236.309C303.192 236.401 303.248 236.483 303.324 236.55C303.4 236.617 303.496 236.667 303.604 236.698C303.712 236.729 303.831 236.739 303.953 236.729C304.074 236.718 304.196 236.687 304.31 236.637C304.424 236.587 304.528 236.519 304.615 236.437C304.703 236.356 304.771 236.264 304.816 236.165C304.861 236.067 304.882 235.966 304.877 235.867C304.881 235.805 304.889 235.714 304.89 235.654C304.881 235.429 304.856 235.206 304.814 234.987C304.758 234.567 304.754 234.137 304.801 233.703C304.844 233.555 304.953 233.418 305.106 233.321C305.112 233.218 305.126 233.113 305.147 233.009C307.921 232.556 310.562 231.295 312.57 229.464C312.66 229.508 312.815 229.588 312.865 229.616C313.039 229.557 313.223 229.554 313.378 229.607C313.785 229.826 314.158 230.08 314.493 230.367C314.66 230.526 314.841 230.676 315.033 230.814C315.08 230.844 315.151 230.881 315.206 230.913C315.211 230.916 315.214 230.919 315.219 230.922L315.229 230.927C315.312 230.988 315.412 231.031 315.524 231.055C315.636 231.079 315.756 231.082 315.877 231.064C315.999 231.046 316.118 231.008 316.229 230.952C316.339 230.896 316.438 230.823 316.518 230.738C316.599 230.653 316.659 230.558 316.696 230.459C316.733 230.36 316.746 230.259 316.733 230.163C316.72 230.066 316.682 229.976 316.622 229.899C316.561 229.821 316.479 229.758 316.381 229.713ZM313.39 220.568L308.867 221.607L308.859 221.599C308.721 221.632 308.581 221.635 308.454 221.607C308.327 221.579 308.218 221.522 308.137 221.441C308.056 221.361 308.007 221.259 307.996 221.149C307.984 221.038 308.01 220.921 308.071 220.812L308.069 220.809L310.029 217.193C311.634 217.918 312.815 219.104 313.39 220.568L313.39 220.568ZM304.856 222.548L306.082 222.929L306.322 224.012L305.398 224.983L304.006 225.112L303.193 224.297L303.57 223.156L304.856 222.548ZM307.228 216.472C307.53 216.501 307.827 216.544 308.118 216.6L305.702 220.081L305.681 220.083C305.609 220.189 305.507 220.282 305.384 220.351C305.262 220.421 305.124 220.464 304.986 220.477C304.848 220.49 304.714 220.472 304.599 220.425C304.483 220.378 304.391 220.303 304.332 220.209L304.324 220.21L302.318 217.127C303.924 216.54 305.625 216.313 307.228 216.472ZM300.31 218.085L301.838 221.393L301.826 221.406C301.874 221.506 301.886 221.619 301.86 221.733C301.834 221.847 301.772 221.959 301.68 222.056C301.588 222.153 301.469 222.231 301.337 222.283C301.205 222.335 301.064 222.358 300.929 222.35L300.919 222.361L296.475 222.152C297.233 220.553 298.583 219.122 300.31 218.085ZM300.423 225.647L296.881 228.446C295.93 227.159 295.58 225.576 295.884 223.941L300.185 224.57L300.187 224.579C300.235 224.586 300.281 224.596 300.325 224.61C300.435 224.646 300.527 224.705 300.595 224.782C300.662 224.86 300.702 224.953 300.711 225.054C300.721 225.155 300.699 225.26 300.648 225.361C300.597 225.461 300.519 225.554 300.42 225.63L300.423 225.647ZM302.329 231.253C300.724 231.1 299.276 230.57 298.148 229.721L302 227.214L302.003 227.215C302.119 227.138 302.254 227.085 302.392 227.062C302.53 227.039 302.668 227.047 302.789 227.084C302.91 227.122 303.012 227.188 303.082 227.275C303.152 227.363 303.189 227.469 303.188 227.582L303.203 227.586L303.223 231.301C302.925 231.298 302.627 231.282 302.329 231.253L302.329 231.253ZM305.399 231.106L305.896 227.323L305.905 227.318C305.924 227.155 306.018 226.995 306.167 226.869C306.317 226.744 306.51 226.664 306.708 226.645C306.81 226.635 306.91 226.642 307.002 226.666C307.055 226.68 307.104 226.699 307.15 226.724L307.161 226.719L310.764 228.547C309.275 229.828 307.388 230.729 305.399 231.106ZM312.201 227.022L308.952 224.838L308.958 224.822C308.858 224.757 308.787 224.668 308.751 224.564C308.715 224.459 308.716 224.345 308.754 224.231C308.792 224.117 308.865 224.009 308.966 223.918C309.067 223.827 309.191 223.757 309.327 223.714L309.329 223.707L313.766 222.265C313.866 223.865 313.316 225.535 312.201 227.022L312.201 227.022Z" fill="white"/>
</g>
<defs>
<filter id="filter0_d_12331_16978" x="88.6406" y="78.2761" width="678.463" height="113.12" filterUnits="userSpaceOnUse" color-interpolation-filters="sRGB">
<feFlood flood-opacity="0" result="BackgroundImageFix"/>
<feColorMatrix in="SourceAlpha" type="matrix" values="0 0 0 0 0 0 0 0 0 0 0 0 0 0 0 0 0 0 127 0" result="hardAlpha"/>
<feOffset dy="10"/>
<feGaussianBlur stdDeviation="2"/>
<feComposite in2="hardAlpha" operator="out"/>
<feColorMatrix type="matrix" values="0 0 0 0 0 0 0 0 0 0 0 0 0 0 0 0 0 0 0.25 0"/>
<feBlend mode="normal" in2="BackgroundImageFix" result="effect1_dropShadow_12331_16978"/>
<feBlend mode="normal" in="SourceGraphic" in2="effect1_dropShadow_12331_16978" result="shape"/>
</filter>
<filter id="filter1_d_12331_16978" x="600.287" y="99.166" width="45.25" height="30.3831" filterUnits="userSpaceOnUse" color-interpolation-filters="sRGB">
<feFlood flood-opacity="0" result="BackgroundImageFix"/>
<feColorMatrix in="SourceAlpha" type="matrix" values="0 0 0 0 0 0 0 0 0 0 0 0 0 0 0 0 0 0 127 0" result="hardAlpha"/>
<feOffset dy="6"/>
<feGaussianBlur stdDeviation="2"/>
<feComposite in2="hardAlpha" operator="out"/>
<feColorMatrix type="matrix" values="0 0 0 0 0 0 0 0 0 0 0 0 0 0 0 0 0 0 0.25 0"/>
<feBlend mode="normal" in2="BackgroundImageFix" result="effect1_dropShadow_12331_16978"/>
<feBlend mode="normal" in="SourceGraphic" in2="effect1_dropShadow_12331_16978" result="shape"/>
</filter>
<filter id="filter2_d_12331_16978" x="377.953" y="137.823" width="12.2168" height="18.217" filterUnits="userSpaceOnUse" color-interpolation-filters="sRGB">
<feFlood flood-opacity="0" result="BackgroundImageFix"/>
<feColorMatrix in="SourceAlpha" type="matrix" values="0 0 0 0 0 0 0 0 0 0 0 0 0 0 0 0 0 0 127 0" result="hardAlpha"/>
<feOffset dy="10"/>
<feGaussianBlur stdDeviation="2"/>
<feComposite in2="hardAlpha" operator="out"/>
<feColorMatrix type="matrix" values="0 0 0 0 0 0 0 0 0 0 0 0 0 0 0 0 0 0 0.25 0"/>
<feBlend mode="normal" in2="BackgroundImageFix" result="effect1_dropShadow_12331_16978"/>
<feBlend mode="normal" in="SourceGraphic" in2="effect1_dropShadow_12331_16978" result="shape"/>
</filter>
<filter id="filter3_d_12331_16978" x="464.404" y="137.823" width="78.0859" height="83.9448" filterUnits="userSpaceOnUse" color-interpolation-filters="sRGB">
<feFlood flood-opacity="0" result="BackgroundImageFix"/>
<feColorMatrix in="SourceAlpha" type="matrix" values="0 0 0 0 0 0 0 0 0 0 0 0 0 0 0 0 0 0 127 0" result="hardAlpha"/>
<feOffset dy="10"/>
<feGaussianBlur stdDeviation="2"/>
<feComposite in2="hardAlpha" operator="out"/>
<feColorMatrix type="matrix" values="0 0 0 0 0 0 0 0 0 0 0 0 0 0 0 0 0 0 0.25 0"/>
<feBlend mode="normal" in2="BackgroundImageFix" result="effect1_dropShadow_12331_16978"/>
<feBlend mode="normal" in="SourceGraphic" in2="effect1_dropShadow_12331_16978" result="shape"/>
</filter>
<filter id="filter4_d_12331_16978" x="501.826" y="106.707" width="12.2188" height="18.2173" filterUnits="userSpaceOnUse" color-interpolation-filters="sRGB">
<feFlood flood-opacity="0" result="BackgroundImageFix"/>
<feColorMatrix in="SourceAlpha" type="matrix" values="0 0 0 0 0 0 0 0 0 0 0 0 0 0 0 0 0 0 127 0" result="hardAlpha"/>
<feOffset dy="10"/>
<feGaussianBlur stdDeviation="2"/>
<feComposite in2="hardAlpha" operator="out"/>
<feColorMatrix type="matrix" values="0 0 0 0 0 0 0 0 0 0 0 0 0 0 0 0 0 0 0.25 0"/>
<feBlend mode="normal" in2="BackgroundImageFix" result="effect1_dropShadow_12331_16978"/>
<feBlend mode="normal" in="SourceGraphic" in2="effect1_dropShadow_12331_16978" result="shape"/>
</filter>
<filter id="filter5_d_12331_16978" x="530.277" y="208.062" width="45.3828" height="40.6128" filterUnits="userSpaceOnUse" color-interpolation-filters="sRGB">
<feFlood flood-opacity="0" result="BackgroundImageFix"/>
<feColorMatrix in="SourceAlpha" type="matrix" values="0 0 0 0 0 0 0 0 0 0 0 0 0 0 0 0 0 0 127 0" result="hardAlpha"/>
<feOffset dy="6"/>
<feGaussianBlur stdDeviation="2"/>
<feComposite in2="hardAlpha" operator="out"/>
<feColorMatrix type="matrix" values="0 0 0 0 0 0 0 0 0 0 0 0 0 0 0 0 0 0 0.25 0"/>
<feBlend mode="normal" in2="BackgroundImageFix" result="effect1_dropShadow_12331_16978"/>
<feBlend mode="normal" in="SourceGraphic" in2="effect1_dropShadow_12331_16978" result="shape"/>
</filter>
<filter id="filter6_d_12331_16978" x="531.545" y="206.035" width="45.4004" height="41.4385" filterUnits="userSpaceOnUse" color-interpolation-filters="sRGB">
<feFlood flood-opacity="0" result="BackgroundImageFix"/>
<feColorMatrix in="SourceAlpha" type="matrix" values="0 0 0 0 0 0 0 0 0 0 0 0 0 0 0 0 0 0 127 0" result="hardAlpha"/>
<feOffset dy="6"/>
<feGaussianBlur stdDeviation="2"/>
<feComposite in2="hardAlpha" operator="out"/>
<feColorMatrix type="matrix" values="0 0 0 0 0 0 0 0 0 0 0 0 0 0 0 0 0 0 0.25 0"/>
<feBlend mode="normal" in2="BackgroundImageFix" result="effect1_dropShadow_12331_16978"/>
<feBlend mode="normal" in="SourceGraphic" in2="effect1_dropShadow_12331_16978" result="shape"/>
</filter>
<filter id="filter7_d_12331_16978" x="209.264" y="98.4634" width="45.252" height="30.3828" filterUnits="userSpaceOnUse" color-interpolation-filters="sRGB">
<feFlood flood-opacity="0" result="BackgroundImageFix"/>
<feColorMatrix in="SourceAlpha" type="matrix" values="0 0 0 0 0 0 0 0 0 0 0 0 0 0 0 0 0 0 127 0" result="hardAlpha"/>
<feOffset dy="6"/>
<feGaussianBlur stdDeviation="2"/>
<feComposite in2="hardAlpha" operator="out"/>
<feColorMatrix type="matrix" values="0 0 0 0 0 0 0 0 0 0 0 0 0 0 0 0 0 0 0.25 0"/>
<feBlend mode="normal" in2="BackgroundImageFix" result="effect1_dropShadow_12331_16978"/>
<feBlend mode="normal" in="SourceGraphic" in2="effect1_dropShadow_12331_16978" result="shape"/>
</filter>
<filter id="filter8_d_12331_16978" x="88.6387" y="77.3411" width="45.2539" height="28.385" filterUnits="userSpaceOnUse" color-interpolation-filters="sRGB">
<feFlood flood-opacity="0" result="BackgroundImageFix"/>
<feColorMatrix in="SourceAlpha" type="matrix" values="0 0 0 0 0 0 0 0 0 0 0 0 0 0 0 0 0 0 127 0" result="hardAlpha"/>
<feOffset dy="4"/>
<feGaussianBlur stdDeviation="2"/>
<feComposite in2="hardAlpha" operator="out"/>
<feColorMatrix type="matrix" values="0 0 0 0 0 0 0 0 0 0 0 0 0 0 0 0 0 0 0.25 0"/>
<feBlend mode="normal" in2="BackgroundImageFix" result="effect1_dropShadow_12331_16978"/>
<feBlend mode="normal" in="SourceGraphic" in2="effect1_dropShadow_12331_16978" result="shape"/>
</filter>
<filter id="filter9_d_12331_16978" x="102.668" y="153.083" width="45.2539" height="28.385" filterUnits="userSpaceOnUse" color-interpolation-filters="sRGB">
<feFlood flood-opacity="0" result="BackgroundImageFix"/>
<feColorMatrix in="SourceAlpha" type="matrix" values="0 0 0 0 0 0 0 0 0 0 0 0 0 0 0 0 0 0 127 0" result="hardAlpha"/>
<feOffset dy="4"/>
<feGaussianBlur stdDeviation="2"/>
<feComposite in2="hardAlpha" operator="out"/>
<feColorMatrix type="matrix" values="0 0 0 0 0 0 0 0 0 0 0 0 0 0 0 0 0 0 0.25 0"/>
<feBlend mode="normal" in2="BackgroundImageFix" result="effect1_dropShadow_12331_16978"/>
<feBlend mode="normal" in="SourceGraphic" in2="effect1_dropShadow_12331_16978" result="shape"/>
</filter>
<linearGradient id="paint0_linear_12331_16978" x1="879.479" y1="63.3764" x2="765.975" y2="84.7287" gradientUnits="userSpaceOnUse">
<stop stop-color="#121212"/>
<stop offset="1" stop-color="#4D5254"/>
</linearGradient>
<linearGradient id="paint1_linear_12331_16978" x1="856.958" y1="232.105" x2="748.286" y2="175.241" gradientUnits="userSpaceOnUse">
<stop stop-color="#121212"/>
<stop offset="1" stop-color="#4D5254"/>
</linearGradient>
<linearGradient id="paint2_linear_12331_16978" x1="-28.412" y1="61.8659" x2="89.8956" y2="83.5502" gradientUnits="userSpaceOnUse">
<stop stop-color="#121212"/>
<stop offset="1" stop-color="#4D5254"/>
</linearGradient>
<linearGradient id="paint3_linear_12331_16978" x1="-2.14933" y1="230.235" x2="106.523" y2="173.37" gradientUnits="userSpaceOnUse">
<stop stop-color="#121212"/>
<stop offset="1" stop-color="#4D5254"/>
</linearGradient>
<radialGradient id="paint4_radial_12331_16978" cx="0" cy="0" r="1" gradientUnits="userSpaceOnUse" gradientTransform="translate(427.404 146.071) rotate(-90) scale(55.6381 218.32)">
<stop offset="0.14375" stop-color="#00D3A9" stop-opacity="0.44"/>
<stop offset="1" stop-color="#D9D9D9" stop-opacity="0"/>
</radialGradient>
<radialGradient id="paint5_radial_12331_16978" cx="0" cy="0" r="1" gradientUnits="userSpaceOnUse" gradientTransform="translate(125.469 181.124) rotate(-90) scale(25.0535 53.2508)">
<stop offset="0.14375" stop-color="#8F5E24"/>
<stop offset="1" stop-color="#D9D9D9" stop-opacity="0"/>
</radialGradient>
<radialGradient id="paint6_radial_12331_16978" cx="0" cy="0" r="1" gradientUnits="userSpaceOnUse" gradientTransform="translate(111.441 105.805) rotate(-90) scale(27.3311 53.2508)">
<stop offset="0.14375" stop-color="#009639"/>
<stop offset="1" stop-color="#D9D9D9" stop-opacity="0"/>
</radialGradient>
<radialGradient id="paint7_radial_12331_16978" cx="0" cy="0" r="1" gradientUnits="userSpaceOnUse" gradientTransform="translate(730.472 181.635) rotate(-90) scale(22.7759 53.2508)">
<stop offset="0.14375" stop-color="#9D0FB0"/>
<stop offset="1" stop-color="#D9D9D9" stop-opacity="0"/>
</radialGradient>
<radialGradient id="paint8_radial_12331_16978" cx="0" cy="0" r="1" gradientUnits="userSpaceOnUse" gradientTransform="translate(744.5 105.381) rotate(-90) scale(25.0535 53.2508)">
<stop offset="0.14375" stop-color="#E75225"/>
<stop offset="1" stop-color="#D9D9D9" stop-opacity="0"/>
</radialGradient>
<radialGradient id="paint9_radial_12331_16978" cx="0" cy="0" r="1" gradientUnits="userSpaceOnUse" gradientTransform="translate(622.937 127.312) rotate(-90) scale(27.3311 53.2508)">
<stop offset="0.14375" stop-color="#00D3A9"/>
<stop offset="1" stop-color="#D9D9D9" stop-opacity="0"/>
</radialGradient>
<radialGradient id="paint10_radial_12331_16978" cx="0" cy="0" r="1" gradientUnits="userSpaceOnUse" gradientTransform="translate(232.068 126.165) rotate(-90) scale(26.1923 53.2508)">
<stop offset="0.14375" stop-color="#E03875"/>
<stop offset="1" stop-color="#D9D9D9" stop-opacity="0"/>
</radialGradient>
<linearGradient id="paint11_linear_12331_16978" x1="320.333" y1="108.755" x2="261.889" y2="108.755" gradientUnits="userSpaceOnUse">
<stop stop-color="#00B39F"/>
<stop offset="0.695276" stop-color="#477E96"/>
<stop offset="1" stop-color="#4D5254"/>
</linearGradient>
<linearGradient id="paint12_linear_12331_16978" x1="186.829" y1="349.411" x2="290.827" y2="242.897" gradientUnits="userSpaceOnUse">
<stop stop-color="#121212"/>
<stop offset="1" stop-color="#4D5254"/>
</linearGradient>
<linearGradient id="paint13_linear_12331_16978" x1="666.432" y1="351.508" x2="564.822" y2="240.179" gradientUnits="userSpaceOnUse">
<stop stop-color="#121212"/>
<stop offset="1" stop-color="#4D5254"/>
</linearGradient>
<linearGradient id="paint14_linear_12331_16978" x1="366.397" y1="157.981" x2="326.607" y2="198.976" gradientUnits="userSpaceOnUse">
<stop stop-color="#00B39F"/>
<stop offset="0.695276" stop-color="#477E96"/>
<stop offset="1" stop-color="#4D5254"/>
</linearGradient>
<linearGradient id="paint15_linear_12331_16978" x1="487.842" y1="158.063" x2="528.837" y2="199.059" gradientUnits="userSpaceOnUse">
<stop stop-color="#00B39F"/>
<stop offset="0.695276" stop-color="#477E96"/>
<stop offset="1" stop-color="#4D5254"/>
</linearGradient>
<linearGradient id="paint16_linear_12331_16978" x1="534.288" y1="108.818" x2="591.561" y2="108.817" gradientUnits="userSpaceOnUse">
<stop stop-color="#00B39F"/>
<stop offset="0.695276" stop-color="#477E96"/>
<stop offset="1" stop-color="#4D5254"/>
</linearGradient>
<linearGradient id="paint17_linear_12331_16978" x1="553.304" y1="234.108" x2="553.992" y2="238.112" gradientUnits="userSpaceOnUse">
<stop offset="0.9999" stop-color="#466BB0" stop-opacity="0.5"/>
<stop offset="1" stop-color="#466BB0"/>
</linearGradient>
<linearGradient id="paint18_linear_12331_16978" x1="533.144" y1="219.712" x2="535.895" y2="235.725" gradientUnits="userSpaceOnUse">
<stop offset="0.9999" stop-color="#466BB0" stop-opacity="0.5"/>
<stop offset="1" stop-color="#466BB0"/>
</linearGradient>
<linearGradient id="paint19_linear_12331_16978" x1="547.31" y1="206.287" x2="551.896" y2="232.976" gradientUnits="userSpaceOnUse">
<stop offset="0.9999" stop-color="#466BB0" stop-opacity="0.5"/>
<stop offset="1" stop-color="#466BB0"/>
</linearGradient>
<radialGradient id="paint20_radial_12331_16978" cx="0" cy="0" r="1" gradientUnits="userSpaceOnUse" gradientTransform="translate(306.809 226.101) rotate(121.66) scale(19.4237 18.9739)">
<stop offset="0.114893" stop-color="#326CE5" stop-opacity="0"/>
<stop offset="1" stop-color="#326CE5" stop-opacity="0.5"/>
</radialGradient>
<clipPath id="clip0_12331_16978">
<rect width="44.4586" height="43.03" fill="white" transform="matrix(0.95502 0.296542 -0.524878 0.851178 296.143 200.773)"/>
</clipPath>
<clipPath id="clip1_12331_16978">
<rect width="43.5235" height="42.0949" fill="white" transform="matrix(0.95502 0.296542 -0.524878 0.851178 295.352 198.903)"/>
</clipPath>
</defs>
</svg>
