<svg width="852" height="356" viewBox="0 0 852 356" fill="none" xmlns="http://www.w3.org/2000/svg">
<path d="M640.605 147.55L711.669 186.356" stroke="#CFCFCF" stroke-width="5"/>
<path d="M643.41 136.329L721.019 121.835" stroke="#CFCFCF" stroke-width="5"/>
<path d="M765.904 114.354L851.001 97.99" stroke="url(#paint0_linear_12423_16988)" stroke-width="5"/>
<path d="M748.137 205.526L829.49 248.54" stroke="url(#paint1_linear_12423_16988)" stroke-width="5"/>
<path d="M212.328 144.745L143.135 184.486" stroke="#CFCFCF" stroke-width="5"/>
<path d="M211.393 136.329L131.91 122.302" stroke="#CFCFCF" stroke-width="5"/>
<path d="M89.834 113.887L1.00011 97.99" stroke="url(#paint2_linear_12423_16988)" stroke-width="5"/>
<path d="M106.672 203.656L25.3187 246.67" stroke="url(#paint3_linear_12423_16988)" stroke-width="5"/>
<g filter="url(#filter0_d_12423_16988)">
<path d="M503.674 142.872C503.674 155.488 469.345 165.715 426.999 165.715C384.653 165.715 350.324 155.488 350.324 142.872C350.324 130.257 384.653 120.029 426.999 120.029C469.345 120.029 503.674 130.257 503.674 142.872Z" fill="url(#paint4_radial_12423_16988)" fill-opacity="0.5"/>
<path d="M144.072 196.175C144.072 201.856 135.699 206.461 125.37 206.461C115.041 206.461 106.668 201.856 106.668 196.175C106.668 190.494 115.041 185.889 125.37 185.889C135.699 185.889 144.072 190.494 144.072 196.175Z" fill="url(#paint5_radial_12423_16988)" fill-opacity="0.8"/>
<path d="M130.044 119.497C130.044 125.694 121.671 130.718 111.342 130.718C101.014 130.718 92.6406 125.694 92.6406 119.497C92.6406 113.3 101.014 108.276 111.342 108.276C121.671 108.276 130.044 113.3 130.044 119.497Z" fill="url(#paint6_radial_12423_16988)" fill-opacity="0.8"/>
<path d="M749.076 198.045C749.076 203.21 740.703 207.396 730.374 207.396C720.045 207.396 711.672 203.21 711.672 198.045C711.672 192.881 720.045 188.694 730.374 188.694C740.703 188.694 749.076 192.881 749.076 198.045Z" fill="url(#paint7_radial_12423_16988)" fill-opacity="0.8"/>
<path d="M763.103 120.432C763.103 126.113 754.73 130.718 744.401 130.718C734.072 130.718 725.699 126.113 725.699 120.432C725.699 114.752 734.072 110.146 744.401 110.146C754.73 110.146 763.103 114.752 763.103 120.432Z" fill="url(#paint8_radial_12423_16988)" fill-opacity="0.8"/>
<path d="M641.54 141.004C641.54 147.202 633.167 152.225 622.839 152.225C612.51 152.225 604.137 147.202 604.137 141.004C604.137 134.807 612.51 129.783 622.839 129.783C633.167 129.783 641.54 134.807 641.54 141.004Z" fill="url(#paint9_radial_12423_16988)" fill-opacity="0.8"/>
<path d="M250.671 140.537C250.671 146.476 242.298 151.29 231.969 151.29C221.641 151.29 213.268 146.476 213.268 140.537C213.268 134.598 221.641 129.783 231.969 129.783C242.298 129.783 250.671 134.598 250.671 140.537Z" fill="url(#paint10_radial_12423_16988)" fill-opacity="0.8"/>
<path d="M429.293 129.335V138.767L461.055 134.037L429.293 129.335Z" fill="#00D3A9"/>
<path d="M429.293 140.743V150.217L461.343 145.501L429.293 140.743Z" fill="#00D3A9"/>
<path d="M424.722 138.704V129.412L393.354 134.044L424.722 138.704Z" fill="#00B39F"/>
<path d="M361.803 150.182C367.953 152.726 376.289 154.891 386.136 156.508V146.569L361.803 150.182Z" fill="#00B39F"/>
<path d="M424.721 150.175V140.806L393.275 145.494L424.721 150.175Z" fill="#00B39F"/>
<path d="M390.703 155.896L422.55 151.208L390.703 146.471V155.896Z" fill="#00D3A9"/>
<path d="M463.522 155.945V146.534L431.725 151.215L463.522 155.945Z" fill="#00B39F"/>
<path d="M494.669 149.093C499.961 146.555 503.159 143.681 503.665 140.658L470.512 145.508L494.669 149.093Z" fill="#00B39F"/>
<path d="M468.098 144.51L500.05 139.808L468.098 135.078V144.51Z" fill="#00D3A9"/>
<path d="M463.521 133.039V123.691L431.871 128.358L463.521 133.039Z" fill="#00B39F"/>
<path d="M463.519 144.468V135.028L431.799 139.752L463.519 144.468Z" fill="#00B39F"/>
<path d="M390.703 135.007V144.517L422.662 139.759L390.703 135.007Z" fill="#00D3A9"/>
<path d="M424.724 120.029C413.46 120.078 402.21 120.843 391.043 122.321L424.724 127.304V120.029Z" fill="#00B39F"/>
<path d="M390.703 123.628V133.074L422.69 128.358L390.703 123.628Z" fill="#00D3A9"/>
<path d="M386.172 123.052C376.332 124.654 367.982 126.812 361.832 129.377L386.172 132.969V123.052Z" fill="#00B39F"/>
<path d="M463.311 122.363C452.033 120.858 440.671 120.079 429.293 120.029V127.381L463.311 122.363Z" fill="#00D3A9"/>
<path d="M350.326 140.461C350.748 143.603 354.016 146.562 359.498 149.17L384.148 145.494L350.326 140.461Z" fill="#00D3A9"/>
<path d="M359.498 130.404C354.037 132.969 350.776 135.907 350.326 139.035L384.176 134.037L359.498 130.404Z" fill="#00D3A9"/>
<path d="M390.98 157.211C402.166 158.691 413.435 159.458 424.718 159.509V152.249L390.98 157.211Z" fill="#00B39F"/>
<path d="M492.302 129.385C486.188 126.84 477.901 124.689 468.117 123.059V132.955L492.302 129.385Z" fill="#00D3A9"/>
<path d="M468.098 156.452C477.938 154.842 486.266 152.67 492.388 150.126L468.098 146.52V156.452Z" fill="#00D3A9"/>
<path d="M503.677 138.986C503.206 135.886 499.966 132.969 494.54 130.397L470.172 134.03L503.677 138.986Z" fill="#00B39F"/>
<path d="M429.293 159.509C440.552 159.459 451.797 158.696 462.96 157.225L429.293 152.192V159.509Z" fill="#00D3A9"/>
<path d="M386.138 144.432V135.105L354.678 139.751L386.138 144.432Z" fill="#00B39F"/>
</g>
<ellipse cx="623" cy="140.25" rx="18" ry="9.25" fill="white"/>
<path d="M610.839 135.61C611.827 134.611 613.213 133.747 614.893 133.084C616.572 132.42 618.502 131.974 620.539 131.778L619.713 129.166C616.958 129.432 614.347 130.034 612.07 130.928C609.793 131.823 607.909 132.986 606.557 134.333L610.839 135.61Z" fill="#00D3A9"/>
<path d="M611.046 143.19C609.756 142.007 609.078 140.652 609.085 139.272C609.082 138.37 609.38 137.476 609.963 136.632L605.422 135.724C604.674 136.862 604.29 138.062 604.287 139.272C604.288 141.13 605.197 142.954 606.918 144.553L611.046 143.19Z" fill="#00B39F"/>
<path d="M623.065 146.88H622.911C618.628 146.88 614.81 145.802 612.23 144.098L608.516 145.802C610.266 146.971 612.463 147.913 614.952 148.561C617.44 149.209 620.158 149.546 622.911 149.549H623.117L623.065 146.88Z" fill="#00D3A9"/>
<path d="M634.934 143.02C633.912 144.007 632.501 144.857 630.805 145.505C629.108 146.153 627.17 146.585 625.131 146.767L625.905 149.407C628.658 149.16 631.275 148.574 633.562 147.695C635.848 146.815 637.745 145.664 639.113 144.326L634.934 143.02Z" fill="#00B39F"/>
<path d="M634.83 135.44C636.057 136.604 636.698 137.927 636.687 139.272C636.699 140.205 636.383 141.13 635.759 141.998L640.299 142.963C641.106 141.793 641.525 140.552 641.537 139.301C641.54 137.486 640.667 135.703 639.009 134.134L634.83 135.44Z" fill="#00D3A9"/>
<path d="M631.259 134.029L630.217 133.456L632.673 132.104L630.217 130.753L631.259 130.18L634.757 132.104L631.259 134.029Z" fill="#20BDAB"/>
<path d="M624.265 134.029L623.223 133.456L625.679 132.104L623.223 130.753L624.265 130.18L627.763 132.104L624.265 134.029Z" fill="#20BDAB"/>
<g filter="url(#filter1_d_12423_16988)">
<circle cx="384.062" cy="169.932" r="2.10857" fill="#666666"/>
</g>
<g filter="url(#filter2_d_12423_16988)">
<path d="M472.623 171.901L536.722 236" stroke="black" stroke-opacity="0.1" stroke-width="5"/>
<circle cx="470.513" cy="169.932" r="2.10857" transform="rotate(-90 470.513 169.932)" fill="#666666"/>
</g>
<path d="M342.572 138.814H251.923" stroke="url(#paint11_linear_12423_16988)" stroke-width="5"/>
<path d="M290.879 272.948L213.266 353.271" stroke="url(#paint12_linear_12423_16988)" stroke-width="5"/>
<path d="M564.861 270.143L641.539 353.271" stroke="url(#paint13_linear_12423_16988)" stroke-width="5"/>
<path d="M381.58 172.422L319.864 236.008" stroke="url(#paint14_linear_12423_16988)" stroke-width="5"/>
<path d="M472.283 172.422L535.87 236.008" stroke="url(#paint15_linear_12423_16988)" stroke-width="5"/>
<path d="M512.494 138.759L601.328 138.759" stroke="url(#paint16_linear_12423_16988)" stroke-width="5"/>
<g filter="url(#filter3_d_12423_16988)">
<circle cx="345.457" cy="138.715" r="2.10857" transform="rotate(45 345.457 138.715)" fill="#666666"/>
</g>
<g filter="url(#filter4_d_12423_16988)">
<circle cx="507.936" cy="138.816" r="2.10857" transform="rotate(-135 507.936 138.816)" fill="#666666"/>
</g>
<g filter="url(#filter5_d_12423_16988)">
<path d="M534.947 267.263L571.661 260.954L550.719 268.674L534.947 267.263Z" fill="url(#paint17_linear_12423_16988)"/>
<path d="M534.276 266.004L547.376 262.379L540.027 248.529L534.276 266.004Z" fill="url(#paint18_linear_12423_16988)"/>
<path d="M549.677 261.984L570.997 259.694L536.984 238.062L549.677 261.984Z" fill="url(#paint19_linear_12423_16988)"/>
</g>
<g filter="url(#filter6_d_12423_16988)">
<path d="M536.232 265.958L572.946 259.65L552.059 267.473L536.232 265.958Z" fill="#466BB0"/>
<path d="M535.544 264.665L548.626 261.006L541.076 246.777L535.544 264.665Z" fill="#466BB0"/>
<path d="M550.923 260.611L572.26 258.356L537.883 236.035L550.923 260.611Z" fill="#466BB0"/>
</g>
<ellipse cx="232.5" cy="138.785" rx="18.5" ry="9.785" fill="white"/>
<mask id="mask0_12423_16988" style="mask-type:luminance" maskUnits="userSpaceOnUse" x="213" y="128" width="38" height="21">
<path d="M250.515 128.464H213.264V148.846H250.515V128.464Z" fill="white"/>
</mask>
<g mask="url(#mask0_12423_16988)">
<path fill-rule="evenodd" clip-rule="evenodd" d="M231.191 140.81C229.011 140.81 227.314 139.852 227.314 138.621C227.314 137.39 229.011 136.432 231.191 136.432C233.372 136.432 235.068 137.39 235.068 138.621C235.068 139.852 233.372 140.81 231.191 140.81Z" fill="#E03875"/>
<path fill-rule="evenodd" clip-rule="evenodd" d="M238.764 139.647C237.795 139.647 236.947 139.202 236.947 138.621C236.947 138.074 237.735 137.595 238.764 137.595C239.733 137.595 240.582 138.04 240.582 138.621C240.582 139.202 239.733 139.647 238.764 139.647ZM245.306 140.604C245.064 141.151 244.095 141.459 243.125 141.322C242.157 141.185 241.611 140.638 241.853 140.091C242.096 139.544 243.065 139.236 244.034 139.372C244.941 139.509 245.548 139.988 245.365 140.535C245.365 140.535 245.366 140.57 245.306 140.604ZM244.032 138.004C243.063 138.141 242.094 137.799 241.851 137.252C241.609 136.705 242.215 136.157 243.184 136.021C244.153 135.884 245.122 136.226 245.364 136.773C245.425 136.91 245.425 137.047 245.364 137.183C245.304 137.56 244.82 137.902 244.032 138.004ZM250.451 140.466C250.269 141.014 249.361 141.39 248.392 141.287C247.423 141.185 246.756 140.672 246.938 140.125C247.12 139.577 248.028 139.201 248.997 139.304C249.906 139.406 250.573 139.885 250.512 140.398C250.452 140.432 250.451 140.432 250.451 140.466ZM249.001 137.937C248.032 138.04 247.123 137.663 246.941 137.116C246.76 136.569 247.426 136.056 248.395 135.953C249.364 135.851 250.273 136.227 250.454 136.774C250.454 136.877 250.515 136.945 250.454 137.048C250.394 137.492 249.788 137.869 249.001 137.937ZM247.729 143.99C247.244 144.469 246.154 144.64 245.306 144.366C244.458 144.093 244.155 143.477 244.64 142.998C245.124 142.52 246.215 142.348 247.063 142.622C247.668 142.827 248.031 143.204 247.971 143.58C247.911 143.717 247.85 143.853 247.729 143.99ZM247.063 134.688C246.215 134.962 245.124 134.791 244.64 134.312C244.155 133.833 244.458 133.218 245.306 132.944C246.154 132.67 247.244 132.841 247.729 133.32C247.911 133.525 247.971 133.696 247.971 133.902C247.911 134.209 247.608 134.517 247.063 134.688Z" fill="#E03875"/>
<path d="M231.253 148.846C226.407 148.846 221.925 147.786 218.473 145.871C215.141 143.922 213.264 141.356 213.264 138.655C213.264 135.918 215.141 133.388 218.533 131.438C221.925 129.524 226.468 128.464 231.253 128.464C235.25 128.464 239.066 129.182 242.216 130.55L239.976 132.191C237.432 131.098 234.403 130.516 231.254 130.516C227.438 130.516 223.804 131.371 221.078 132.91C218.354 134.449 216.9 136.467 216.9 138.655C216.9 140.81 218.414 142.862 221.14 144.401C223.865 145.94 227.439 146.76 231.316 146.76C234.526 146.76 237.554 146.179 240.037 145.085L242.218 146.726C239.069 148.093 235.253 148.846 231.255 148.846L231.253 148.846Z" fill="#E03875"/>
</g>
<path d="M744.361 108.276C754.578 108.277 762.964 112.872 762.951 118.461C762.938 124.135 754.587 128.665 744.147 128.661C733.942 128.657 725.69 124.058 725.697 118.378C725.704 112.823 734.108 108.275 744.361 108.276ZM738.713 111.853C738.948 112.489 738.72 113.082 738.374 113.666C738.134 114.07 737.802 114.459 737.604 114.868C737.278 115.543 736.908 116.221 736.772 116.912C736.577 117.904 737.284 118.778 738.494 119.647L732.933 119.001C732.943 119.098 732.932 119.135 732.951 119.166C733.478 120.02 734.406 120.739 735.446 121.418C735.556 121.489 735.806 121.526 735.992 121.527C741.536 121.532 747.081 121.532 752.626 121.528C752.798 121.528 753.028 121.51 753.133 121.449C754.322 120.76 755.23 119.975 755.799 118.986L749.911 119.622C750.3 119.202 750.743 118.833 750.998 118.427C751.87 117.04 751.508 115.698 750.257 114.433C749.253 113.418 748.327 112.407 748.828 111.184C747.768 111.761 747.361 112.496 747.102 113.254C746.848 114 746.698 114.758 746.501 115.515C746.473 115.492 746.436 115.475 746.431 115.455C746.408 115.376 746.387 115.296 746.379 115.216C746.259 113.975 745.82 112.78 744.893 111.639C744.347 110.967 743.746 110.28 744.308 109.479C743.928 109.59 743.584 109.7 743.337 109.857C742.601 110.326 742.297 110.889 742.218 111.506C742.151 112.032 742.06 112.562 741.883 113.08C741.697 113.624 741.401 114.158 740.738 114.658C740.47 113.589 740.441 112.532 738.713 111.853ZM753.01 122.463H735.619V124.129H753.01V122.463ZM739.067 124.99C739.053 126.378 741.615 127.412 744.782 127.337C747.407 127.274 749.729 126.136 749.53 124.99H739.067Z" fill="#E75225"/>
<path fill-rule="evenodd" clip-rule="evenodd" d="M722.26 204.337C712.983 201.907 709.063 195.821 713.504 190.745C715.636 188.307 719.451 186.432 724.109 185.534C728.768 184.635 733.887 184.786 738.342 185.953C747.619 188.383 751.539 194.469 747.098 199.546C742.657 204.623 731.537 206.768 722.26 204.337Z" fill="#9D0FB0"/>
<path d="M726.886 191.359L726.921 191.37L729.929 192.309C730.03 192.341 730.144 192.357 730.26 192.357C730.377 192.357 730.491 192.341 730.592 192.309L733.576 191.38C733.807 191.307 734.081 191.288 734.337 191.326C734.594 191.364 734.813 191.456 734.948 191.583C735.083 191.71 735.122 191.861 735.058 192.004C734.993 192.146 734.83 192.269 734.603 192.346L734.569 192.357L732.847 192.895C732.795 192.911 732.751 192.934 732.721 192.963C732.691 192.992 732.675 193.024 732.675 193.057C732.675 193.091 732.691 193.123 732.721 193.152C732.751 193.18 732.795 193.204 732.847 193.22L737.497 194.672C737.598 194.704 737.712 194.721 737.828 194.721C737.945 194.721 738.059 194.704 738.16 194.672L741.036 193.774C741.268 193.701 741.541 193.681 741.799 193.719C742.056 193.756 742.277 193.849 742.412 193.976C742.547 194.103 742.587 194.254 742.522 194.397C742.457 194.54 742.293 194.664 742.065 194.74L742.031 194.751L740.411 195.256C740.359 195.272 740.315 195.296 740.285 195.325C740.255 195.353 740.239 195.386 740.239 195.419C740.239 195.452 740.255 195.485 740.285 195.513C740.315 195.542 740.359 195.565 740.411 195.582L742.038 196.09C742.27 196.162 742.441 196.281 742.516 196.423C742.59 196.564 742.561 196.716 742.435 196.845C742.309 196.975 742.097 197.072 741.843 197.115C741.589 197.159 741.315 197.145 741.079 197.078L741.043 197.067L738.159 196.166C738.058 196.135 737.944 196.118 737.827 196.118C737.711 196.118 737.597 196.135 737.496 196.166L732.794 197.634C732.742 197.65 732.699 197.674 732.668 197.703C732.638 197.731 732.622 197.764 732.622 197.797C732.622 197.83 732.638 197.863 732.668 197.891C732.699 197.92 732.742 197.943 732.794 197.96L734.737 198.566C734.966 198.639 735.135 198.758 735.208 198.899C735.281 199.039 735.252 199.19 735.127 199.319C735.001 199.448 734.79 199.545 734.538 199.589C734.286 199.632 734.013 199.62 733.777 199.554L733.742 199.543L730.543 198.544C730.442 198.512 730.328 198.496 730.212 198.496C730.095 198.496 729.981 198.512 729.88 198.544L726.652 199.553C726.421 199.626 726.148 199.645 725.891 199.607C725.635 199.569 725.415 199.477 725.28 199.35C725.145 199.224 725.106 199.073 725.17 198.93C725.234 198.787 725.397 198.664 725.624 198.587L725.658 198.576L727.628 197.96C727.666 197.948 727.7 197.931 727.728 197.912C727.755 197.893 727.775 197.871 727.787 197.847C727.799 197.823 727.802 197.799 727.797 197.774C727.792 197.75 727.778 197.726 727.756 197.705C727.726 197.675 727.681 197.651 727.628 197.634L722.968 196.18C722.866 196.148 722.752 196.131 722.636 196.131C722.52 196.131 722.406 196.148 722.305 196.18L719.561 197.035C719.33 197.108 719.056 197.127 718.799 197.09C718.542 197.052 718.322 196.959 718.187 196.832C718.052 196.705 718.013 196.554 718.078 196.411C718.143 196.268 718.307 196.145 718.534 196.068L718.568 196.057L720.052 195.595C720.104 195.579 720.148 195.555 720.178 195.526C720.208 195.498 720.224 195.465 720.224 195.432C720.224 195.399 720.208 195.366 720.178 195.338C720.148 195.309 720.104 195.285 720.052 195.269L718.571 194.806C718.341 194.734 718.172 194.615 718.099 194.474C718.026 194.333 718.056 194.182 718.181 194.053C718.306 193.924 718.517 193.828 718.769 193.784C719.021 193.74 719.294 193.753 719.53 193.819L719.565 193.829L722.307 194.685C722.408 194.717 722.522 194.734 722.638 194.734C722.754 194.734 722.868 194.717 722.969 194.685L727.674 193.219C727.726 193.203 727.769 193.179 727.8 193.15C727.83 193.122 727.846 193.089 727.846 193.056C727.846 193.023 727.83 192.99 727.8 192.962C727.769 192.933 727.726 192.909 727.674 192.893L725.926 192.347C725.697 192.275 725.528 192.155 725.455 192.015C725.382 191.874 725.411 191.723 725.536 191.594C725.662 191.465 725.873 191.369 726.125 191.325C726.377 191.281 726.65 191.293 726.886 191.36V191.359ZM729.928 193.803L725.222 195.27C725.17 195.286 725.127 195.31 725.097 195.338C725.066 195.367 725.05 195.4 725.05 195.433C725.05 195.466 725.066 195.498 725.097 195.527C725.127 195.556 725.17 195.579 725.222 195.596L729.88 197.05C729.981 197.081 730.095 197.098 730.211 197.098C730.327 197.098 730.441 197.081 730.543 197.05L735.244 195.582C735.296 195.565 735.34 195.542 735.37 195.513C735.4 195.485 735.416 195.452 735.416 195.419C735.416 195.386 735.4 195.353 735.37 195.325C735.34 195.296 735.296 195.272 735.244 195.256L730.59 193.803C730.489 193.772 730.375 193.755 730.259 193.755C730.143 193.755 730.029 193.772 729.928 193.803H729.928Z" fill="white"/>
<g filter="url(#filter7_d_12423_16988)">
<path fill-rule="evenodd" clip-rule="evenodd" d="M103.225 126.725C93.9477 124.294 90.0275 118.209 94.4685 113.132C96.6012 110.694 100.416 108.819 105.074 107.921C109.732 107.022 114.852 107.173 119.307 108.34C128.584 110.77 132.504 116.856 128.063 121.933C123.622 127.01 112.501 129.155 103.225 126.725Z" fill="#009639"/>
<path d="M116.13 116.287L112.947 117.16C113.029 117.259 113.063 117.372 113.056 117.485C113.049 117.591 113.002 117.693 112.92 117.786L115.926 118.703C116.198 118.532 116.601 118.419 117.044 118.402L117.18 116.616C117.146 116.612 117.119 116.609 117.085 116.606C116.682 116.558 116.355 116.441 116.13 116.287Z" fill="white"/>
<path d="M121.537 114.156L112.008 111.396C111.62 111.279 111.136 111.279 110.741 111.396L101.218 114.156C100.823 114.269 100.584 114.478 100.584 114.707V120.228C100.578 120.341 100.639 120.451 100.748 120.546C100.857 120.642 101.021 120.724 101.212 120.779L110.741 123.54C111.129 123.656 111.613 123.656 112.008 123.54L121.537 120.779C121.933 120.666 122.171 120.457 122.171 120.228V114.707C122.171 114.481 121.933 114.269 121.537 114.156ZM117.57 118.364C118.45 118.436 119.049 118.853 118.906 119.294C118.763 119.736 117.931 120.037 117.052 119.965C116.173 119.893 115.573 119.476 115.716 119.034C115.737 118.973 115.771 118.918 115.812 118.863L112.744 118.001C112.451 118.203 111.974 118.333 111.443 118.333C110.911 118.333 110.434 118.203 110.141 118.005L107.073 118.863C107.148 118.956 107.189 119.058 107.189 119.164C107.189 119.281 107.142 119.39 107.053 119.489L110.175 120.423C110.468 120.235 110.931 120.115 111.443 120.115C112.335 120.115 113.058 120.478 113.058 120.926C113.058 121.374 112.335 121.737 111.443 121.737C110.55 121.737 109.827 121.374 109.827 120.926C109.827 120.81 109.875 120.7 109.963 120.601L106.842 119.667C106.549 119.855 106.092 119.975 105.574 119.975C104.681 119.975 103.958 119.612 103.958 119.164C103.958 118.716 104.681 118.354 105.574 118.354C106.106 118.354 106.583 118.484 106.876 118.682L109.943 117.82C109.868 117.728 109.827 117.625 109.827 117.519C109.827 117.105 110.441 116.766 111.238 116.715V114.81C110.802 114.782 110.42 114.666 110.161 114.498L106.917 115.449C106.998 115.545 107.046 115.655 107.046 115.764C107.046 116.212 106.324 116.575 105.431 116.575C104.538 116.575 103.815 116.212 103.815 115.764C103.815 115.316 104.538 114.953 105.431 114.953C105.956 114.953 106.419 115.076 106.712 115.271L109.957 114.32C109.875 114.225 109.827 114.115 109.827 114.006C109.827 113.558 110.55 113.195 111.443 113.195C112.335 113.195 113.058 113.558 113.058 114.006C113.058 114.42 112.445 114.758 111.647 114.81V116.715C112.076 116.742 112.458 116.855 112.71 117.016L115.832 116.086C115.709 115.942 115.669 115.778 115.73 115.61C115.9 115.169 116.745 114.881 117.625 114.967C118.504 115.052 119.077 115.477 118.906 115.918C118.77 116.27 118.197 116.527 117.523 116.568V118.357C117.536 118.36 117.557 118.364 117.57 118.364Z" fill="white"/>
</g>
<g filter="url(#filter8_d_12423_16988)">
<path fill-rule="evenodd" clip-rule="evenodd" d="M117.254 202.467C107.977 200.037 104.057 193.951 108.498 188.874C110.631 186.436 114.446 184.562 119.104 183.663C123.762 182.765 128.881 182.915 133.336 184.083C142.613 186.513 146.533 192.599 142.092 197.675C137.651 202.752 126.531 204.897 117.254 202.467Z" fill="#F49322"/>
<path d="M115.555 190.012L114.971 189.469L118.418 188.504L119.002 189.047L115.555 190.012ZM121.048 188.474L120.463 187.93L123.56 187.055L124.144 187.599L121.048 188.474Z" fill="white"/>
<path d="M124.203 192.849L121.107 192.004L121.633 191.461L124.729 192.306L124.203 192.849ZM119.003 191.431L115.906 190.586L116.432 190.043L119.529 190.888L119.003 191.431Z" fill="white"/>
<path d="M126.481 192.788L125.955 192.245L129.11 191.461L129.636 192.004L126.481 192.788ZM131.74 191.461L131.214 190.918L134.369 190.133L134.895 190.676L131.74 191.461Z" fill="white"/>
<path d="M123.858 199.939L120.352 198.974L120.878 198.431L124.384 199.396L123.858 199.939ZM118.599 198.551L115.502 197.707L116.028 197.163L119.125 198.008L118.599 198.551Z" fill="white"/>
<path d="M115.442 190.797H114.273V193.12H115.442V190.797Z" fill="white"/>
<path d="M125.725 196.801H124.557V199.185H125.725V196.801Z" fill="white"/>
<path d="M114.857 191.038C114.448 191.038 114.039 190.948 113.747 190.797C113.455 190.646 113.279 190.435 113.279 190.224C113.279 190.012 113.455 189.801 113.747 189.65C114.331 189.349 115.383 189.349 115.967 189.65C116.259 189.801 116.435 190.012 116.435 190.224C116.435 190.435 116.259 190.646 115.967 190.797C115.675 190.948 115.266 191.038 114.857 191.038ZM114.857 190.012C114.74 190.012 114.623 190.043 114.565 190.073C114.506 190.103 114.448 190.163 114.448 190.224C114.448 190.284 114.506 190.344 114.565 190.375C114.74 190.465 114.974 190.465 115.149 190.375C115.208 190.344 115.266 190.284 115.266 190.224C115.266 190.163 115.208 190.103 115.149 190.073C115.091 190.043 114.974 190.012 114.857 190.012Z" fill="white"/>
<path d="M114.857 197.797C114.448 197.797 114.039 197.706 113.747 197.556C113.455 197.405 113.279 197.194 113.279 196.982C113.279 196.771 113.455 196.56 113.747 196.409C114.331 196.107 115.383 196.107 115.967 196.409C116.259 196.56 116.435 196.771 116.435 196.982C116.435 197.194 116.259 197.405 115.967 197.556C115.675 197.706 115.266 197.797 114.857 197.797ZM114.857 196.771C114.74 196.771 114.623 196.801 114.565 196.831C114.506 196.862 114.448 196.922 114.448 196.982C114.448 197.043 114.506 197.103 114.565 197.133C114.74 197.224 114.974 197.224 115.149 197.133C115.208 197.103 115.266 197.043 115.266 196.982C115.266 196.922 115.208 196.862 115.149 196.831C115.091 196.801 114.974 196.771 114.857 196.771Z" fill="white"/>
<path d="M125.138 200.513C124.729 200.513 124.32 200.422 124.028 200.271C123.736 200.12 123.561 199.909 123.561 199.698C123.561 199.487 123.736 199.276 124.028 199.125C124.671 198.793 125.664 198.793 126.248 199.125C126.891 199.457 126.891 199.97 126.248 200.271C125.898 200.422 125.547 200.513 125.138 200.513ZM125.138 199.457C125.021 199.457 124.904 199.487 124.846 199.517C124.671 199.607 124.671 199.728 124.846 199.819C125.021 199.909 125.255 199.909 125.43 199.819C125.606 199.728 125.606 199.607 125.43 199.517C125.313 199.487 125.197 199.457 125.138 199.457Z" fill="white"/>
<path d="M125.138 193.724C124.729 193.724 124.32 193.633 124.028 193.482C123.736 193.332 123.561 193.12 123.561 192.909C123.561 192.698 123.736 192.487 124.028 192.336C124.671 192.004 125.664 192.004 126.248 192.336C126.891 192.668 126.891 193.181 126.248 193.482C125.898 193.663 125.547 193.724 125.138 193.724ZM125.138 192.698C125.021 192.698 124.904 192.728 124.846 192.758C124.671 192.849 124.671 192.969 124.846 193.06C125.021 193.151 125.255 193.151 125.43 193.06C125.606 192.969 125.606 192.849 125.43 192.758C125.313 192.728 125.197 192.698 125.138 192.698Z" fill="white"/>
<path d="M135.254 197.797C134.845 197.797 134.436 197.706 134.144 197.556C133.501 197.224 133.501 196.711 134.144 196.409C134.728 196.107 135.78 196.107 136.365 196.409C136.657 196.56 136.832 196.771 136.832 196.982C136.832 197.194 136.657 197.405 136.365 197.556C136.072 197.706 135.663 197.797 135.254 197.797ZM135.254 196.771C135.137 196.771 135.021 196.801 134.962 196.831C134.787 196.922 134.787 197.043 134.962 197.133C135.137 197.224 135.371 197.224 135.547 197.133C135.722 197.043 135.722 196.922 135.547 196.831C135.488 196.801 135.371 196.771 135.254 196.771Z" fill="white"/>
<path d="M135.254 191.038C134.845 191.038 134.436 190.948 134.144 190.797C133.501 190.465 133.501 189.952 134.144 189.65C134.728 189.349 135.78 189.349 136.365 189.65C137.007 189.982 137.007 190.495 136.365 190.797C136.072 190.948 135.663 191.038 135.254 191.038ZM135.254 190.012C135.138 190.012 135.021 190.042 134.962 190.073C134.787 190.163 134.787 190.284 134.962 190.374C135.138 190.465 135.371 190.465 135.547 190.374C135.722 190.284 135.722 190.163 135.547 190.073C135.488 190.042 135.371 190.012 135.254 190.012Z" fill="white"/>
<path d="M125.138 187.961C124.729 187.961 124.32 187.87 124.028 187.719C123.736 187.568 123.561 187.357 123.561 187.146C123.561 186.935 123.736 186.724 124.028 186.573C124.671 186.241 125.664 186.241 126.248 186.573C126.891 186.905 126.891 187.418 126.248 187.719C125.898 187.87 125.547 187.961 125.138 187.961ZM125.138 186.935C125.021 186.935 124.904 186.965 124.846 186.995C124.671 187.086 124.671 187.206 124.846 187.297C125.021 187.387 125.255 187.387 125.43 187.297C125.606 187.206 125.606 187.086 125.43 186.995C125.313 186.935 125.197 186.935 125.138 186.935Z" fill="white"/>
<path d="M115.442 193.724H114.273V196.319H115.442V193.724Z" fill="white"/>
<path d="M135.78 190.797H134.611V193.12H135.78V190.797Z" fill="white"/>
<path d="M135.78 193.724H134.611V196.319H135.78V193.724Z" fill="white"/>
<path d="M131.279 189.017L131.864 188.473L135.194 189.409L134.61 189.952L131.279 189.017ZM125.67 187.448L126.254 186.904L129.819 187.9L129.234 188.443L125.67 187.448Z" fill="white"/>
<path d="M125.727 193.482H124.559V195.866H125.727V193.482Z" fill="white"/>
<path d="M125.9 199.426L129.289 198.521L129.815 199.064L126.426 199.969L125.9 199.426ZM130.984 198.069L134.315 197.163L134.84 197.706L131.51 198.612L130.984 198.069Z" fill="white"/>
</g>
<g filter="url(#filter9_d_12423_16988)">
<path d="M324.246 263.479L328.873 249.766C328.989 249.41 329.013 249.051 328.943 248.715C328.873 248.379 328.71 248.075 328.467 247.823L318.943 238.125C318.696 237.874 318.374 237.683 318 237.567C317.627 237.451 317.211 237.413 316.783 237.454L300.282 239.075C299.857 239.119 299.431 239.241 299.036 239.432C298.641 239.623 298.286 239.879 297.996 240.182L286.946 251.9C286.668 252.197 286.463 252.53 286.343 252.876C286.306 252.981 286.277 253.087 286.256 253.193C286.219 253.374 286.208 253.553 286.221 253.728C286.227 253.803 286.237 253.877 286.252 253.951L288.97 266.943C288.982 266.999 289 267.053 289.018 267.108C289.075 267.289 289.16 267.459 289.272 267.614C289.414 267.808 289.596 267.978 289.81 268.116C289.984 268.232 290.181 268.325 290.394 268.393L290.534 268.436L304.837 272.874C304.924 272.9 305.014 272.923 305.106 272.94C305.238 272.966 305.373 272.983 305.512 272.991C305.611 272.997 305.711 272.999 305.813 272.996C305.892 272.993 305.971 272.991 306.05 272.983C306.17 272.971 306.289 272.953 306.408 272.93C306.715 272.87 307.017 272.77 307.303 272.634L307.769 272.408L322.593 265.231C322.878 265.092 323.142 264.918 323.375 264.716C323.471 264.633 323.561 264.546 323.645 264.455C323.923 264.158 324.128 263.824 324.247 263.478L324.246 263.479ZM307.699 264.234C307.676 264.343 307.66 264.452 307.653 264.56C307.495 264.662 307.38 264.806 307.334 264.96C307.28 265.414 307.279 265.862 307.331 266.3C307.37 266.528 307.393 266.76 307.4 266.995C307.398 267.058 307.389 267.152 307.384 267.218C307.387 267.32 307.365 267.427 307.317 267.529C307.269 267.632 307.198 267.729 307.108 267.815C307.017 267.9 306.91 267.971 306.792 268.024C306.674 268.078 306.549 268.111 306.424 268.123C306.299 268.135 306.178 268.125 306.067 268.093C305.956 268.062 305.859 268.01 305.782 267.94C305.704 267.871 305.648 267.786 305.617 267.691C305.586 267.595 305.581 267.492 305.602 267.387C305.607 267.322 305.611 267.235 305.618 267.175C305.66 266.935 305.718 266.694 305.793 266.455C305.912 266 305.979 265.545 305.994 265.096C305.97 264.949 305.876 264.826 305.732 264.753C305.731 264.706 305.734 264.524 305.733 264.429C302.924 264.508 300.369 263.708 298.557 262.18L298.201 262.416C298.065 262.395 297.916 262.411 297.774 262.461C297.263 262.776 296.796 263.141 296.385 263.548C296.188 263.749 295.979 263.943 295.76 264.128C295.703 264.173 295.616 264.232 295.552 264.279L295.551 264.28L295.549 264.281C295.454 264.363 295.344 264.431 295.224 264.48C295.104 264.528 294.978 264.557 294.853 264.564C294.729 264.57 294.609 264.555 294.501 264.519C294.394 264.482 294.301 264.425 294.228 264.352C294.156 264.279 294.106 264.19 294.081 264.093C294.056 263.995 294.058 263.891 294.085 263.785C294.112 263.68 294.165 263.577 294.239 263.483C294.314 263.388 294.409 263.305 294.518 263.237C294.582 263.19 294.671 263.12 294.735 263.077C294.983 262.92 295.239 262.774 295.502 262.64C296.001 262.362 296.475 262.049 296.918 261.705C297.023 261.575 297.085 261.428 297.096 261.282L297.429 261.017C296.004 259.21 295.526 256.898 296.086 254.517L295.714 254.464C295.635 254.338 295.511 254.24 295.355 254.181C294.841 254.118 294.311 254.099 293.773 254.124C293.488 254.146 293.205 254.155 292.924 254.15C292.859 254.147 292.769 254.136 292.697 254.129C292.691 254.129 292.685 254.129 292.68 254.129C292.675 254.128 292.671 254.127 292.667 254.126C292.544 254.125 292.428 254.102 292.326 254.059C292.224 254.015 292.138 253.953 292.073 253.875C292.008 253.796 291.967 253.704 291.951 253.605C291.935 253.505 291.945 253.4 291.98 253.296C292.015 253.192 292.075 253.091 292.156 253C292.237 252.909 292.337 252.83 292.449 252.768C292.561 252.706 292.684 252.663 292.808 252.64C292.933 252.617 293.057 252.616 293.173 252.637L293.186 252.638L293.194 252.638C293.268 252.645 293.363 252.651 293.429 252.659C293.696 252.705 293.957 252.764 294.21 252.836C294.699 252.955 295.21 253.03 295.735 253.061C295.918 253.024 296.097 252.955 296.259 252.857L296.638 252.872C297.665 250.524 299.635 248.422 302.173 246.968L302.048 246.688C302.13 246.538 302.163 246.379 302.144 246.23C301.958 245.838 301.723 245.469 301.443 245.129C301.284 244.957 301.139 244.775 301.009 244.585C300.982 244.538 300.949 244.471 300.921 244.417L300.914 244.406C300.808 244.235 300.796 244.023 300.881 243.816C300.966 243.609 301.141 243.423 301.367 243.301C301.493 243.241 301.628 243.204 301.763 243.194C301.898 243.184 302.027 243.201 302.141 243.243C302.335 243.313 302.485 243.437 302.569 243.598C302.599 243.653 302.64 243.726 302.665 243.777C302.75 243.99 302.819 244.208 302.872 244.432C302.994 244.849 303.167 245.248 303.389 245.622C303.489 245.735 303.646 245.801 303.827 245.807C303.881 245.897 303.938 245.987 303.995 246.076C306.181 245.176 308.521 244.804 310.716 245.008C311.239 245.057 311.75 245.137 312.246 245.248L312.449 244.954C312.63 244.894 312.797 244.794 312.928 244.666C313.21 244.241 313.447 243.801 313.635 243.353C313.722 243.115 313.826 242.879 313.944 242.645C313.974 242.593 314.021 242.523 314.058 242.464C314.062 242.458 314.064 242.45 314.068 242.444C314.118 242.341 314.192 242.245 314.285 242.161C314.377 242.077 314.486 242.007 314.605 241.956C314.724 241.904 314.85 241.873 314.975 241.864C315.1 241.854 315.221 241.867 315.331 241.901C315.44 241.935 315.536 241.989 315.611 242.061C315.686 242.132 315.739 242.219 315.767 242.316C315.795 242.412 315.797 242.517 315.772 242.622C315.748 242.727 315.698 242.831 315.626 242.927C315.588 242.989 315.541 243.073 315.504 243.129C315.343 243.349 315.168 243.563 314.981 243.77C314.644 244.172 314.348 244.594 314.1 245.029C314.042 245.183 314.054 245.338 314.135 245.463C314.107 245.515 314.01 245.689 313.959 245.785C316.295 246.754 317.969 248.477 318.669 250.637L319.085 250.536C319.228 250.61 319.402 250.645 319.586 250.636C320.124 250.497 320.654 250.317 321.169 250.097C321.437 249.973 321.711 249.86 321.989 249.761C322.06 249.738 322.163 249.711 322.239 249.689C322.36 249.643 322.487 249.618 322.612 249.615C322.736 249.611 322.855 249.63 322.961 249.67C323.067 249.71 323.157 249.77 323.226 249.847C323.295 249.923 323.341 250.014 323.362 250.113C323.382 250.213 323.376 250.318 323.344 250.424C323.312 250.529 323.254 250.631 323.175 250.724C323.096 250.817 322.998 250.899 322.886 250.963C322.774 251.028 322.651 251.074 322.526 251.099C322.45 251.121 322.348 251.154 322.276 251.172C321.991 251.233 321.704 251.281 321.417 251.315C320.875 251.399 320.334 251.527 319.802 251.696C319.629 251.775 319.488 251.903 319.408 252.052C319.343 252.075 319.115 252.151 318.993 252.192C319.218 254.496 318.395 256.946 316.68 259.078L316.943 259.259C316.942 259.412 316.992 259.555 317.089 259.671C317.477 259.924 317.902 260.139 318.356 260.314C318.603 260.397 318.841 260.492 319.069 260.6C319.128 260.632 319.208 260.685 319.266 260.719C319.366 260.766 319.449 260.831 319.511 260.912C319.572 260.992 319.609 261.086 319.621 261.186C319.633 261.287 319.619 261.393 319.58 261.496C319.541 261.6 319.477 261.7 319.393 261.789C319.31 261.878 319.207 261.954 319.093 262.014C318.979 262.073 318.856 262.113 318.731 262.133C318.606 262.152 318.483 262.15 318.369 262.126C318.254 262.102 318.152 262.057 318.068 261.994L318.057 261.989C318.053 261.986 318.05 261.982 318.045 261.979C317.989 261.946 317.916 261.909 317.868 261.878C317.673 261.734 317.49 261.58 317.321 261.415C316.981 261.118 316.601 260.855 316.187 260.629C316.029 260.575 315.839 260.579 315.66 260.642C315.561 260.588 315.461 260.536 315.36 260.485C313.276 262.409 310.55 263.743 307.699 264.234Z" fill="url(#paint20_radial_12423_16988)" fill-opacity="0.8" shape-rendering="crispEdges"/>
</g>
<path d="M308.15 254.724C308.105 254.699 308.055 254.68 308.002 254.666C307.91 254.642 307.81 254.635 307.708 254.645C307.51 254.664 307.317 254.744 307.167 254.869C307.018 254.995 306.924 255.155 306.905 255.318L306.896 255.323L306.399 259.106C308.388 258.728 310.275 257.828 311.764 256.547L308.161 254.719L308.15 254.724ZM301.684 253.275C301.731 253.134 301.721 252.992 301.656 252.871C301.591 252.751 301.475 252.659 301.326 252.61C301.282 252.596 301.235 252.586 301.187 252.579L301.185 252.57L296.884 251.941C296.58 253.576 296.93 255.16 297.881 256.446L301.424 253.647L301.42 253.63C301.548 253.532 301.64 253.407 301.684 253.275ZM304.189 255.581C304.19 255.468 304.153 255.362 304.083 255.274C304.013 255.187 303.912 255.12 303.79 255.083C303.668 255.045 303.531 255.038 303.392 255.061C303.254 255.084 303.119 255.137 303.003 255.215L303 255.214L299.148 257.721C300.276 258.57 301.723 259.1 303.329 259.253C303.627 259.282 303.925 259.298 304.223 259.301L304.203 255.586L304.189 255.581ZM314.766 250.265L310.329 251.707L310.326 251.715C310.191 251.757 310.067 251.828 309.966 251.919C309.865 252.01 309.792 252.118 309.754 252.231C309.716 252.345 309.715 252.46 309.751 252.564C309.787 252.668 309.858 252.757 309.958 252.823L309.952 252.838L313.201 255.022C314.316 253.535 314.866 251.865 314.766 250.265L314.766 250.265ZM309.071 248.812C309.01 248.922 308.984 249.038 308.996 249.149C309.007 249.26 309.056 249.361 309.137 249.441C309.218 249.522 309.327 249.579 309.454 249.607C309.581 249.635 309.721 249.632 309.858 249.599L309.867 249.607L314.39 248.568C313.815 247.104 312.634 245.918 311.028 245.194L309.068 248.81L309.071 248.812ZM305.332 248.209C305.391 248.303 305.483 248.378 305.598 248.425C305.713 248.472 305.847 248.49 305.985 248.477C306.124 248.465 306.261 248.421 306.384 248.352C306.506 248.282 306.609 248.189 306.68 248.083L306.701 248.082L309.118 244.6C308.827 244.544 308.53 244.502 308.228 244.472C306.624 244.314 304.923 244.541 303.317 245.128L305.323 248.211L305.332 248.209ZM301.929 250.35C302.064 250.358 302.205 250.335 302.337 250.283C302.469 250.231 302.588 250.153 302.68 250.056C302.772 249.959 302.834 249.847 302.86 249.733C302.885 249.618 302.874 249.506 302.826 249.406L302.838 249.393L301.31 246.085C299.582 247.122 298.233 248.553 297.474 250.153L301.919 250.361L301.929 250.35ZM304.193 252.298L305.006 253.112L306.398 252.984L307.322 252.013L307.082 250.93L305.855 250.549L304.57 251.157L304.193 252.298Z" fill="#326CE5"/>
<path d="M322.272 260.39L326.611 247.273C326.72 246.933 326.739 246.589 326.667 246.266C326.594 245.944 326.432 245.651 326.191 245.408L316.783 236.051C316.539 235.809 316.223 235.624 315.857 235.511C315.491 235.397 315.085 235.357 314.669 235.395L298.599 236.844C298.185 236.884 297.772 236.998 297.389 237.179C297.006 237.36 296.663 237.603 296.384 237.891L285.756 249.054C285.49 249.337 285.293 249.655 285.181 249.986C285.146 250.087 285.119 250.188 285.1 250.289C285.066 250.462 285.057 250.634 285.073 250.802C285.08 250.874 285.09 250.945 285.105 251.016L287.919 263.487C287.931 263.542 287.95 263.593 287.968 263.646C288.026 263.82 288.111 263.983 288.222 264.132C288.363 264.32 288.542 264.483 288.753 264.618C288.924 264.73 289.117 264.82 289.325 264.886L289.463 264.929L303.465 269.273C303.55 269.299 303.638 269.321 303.728 269.339C303.857 269.364 303.989 269.381 304.124 269.39C304.221 269.396 304.319 269.398 304.418 269.396C304.495 269.394 304.572 269.392 304.649 269.385C304.765 269.375 304.882 269.358 304.998 269.336C305.296 269.281 305.589 269.187 305.866 269.058L306.318 268.845L320.683 262.059C320.959 261.927 321.214 261.762 321.438 261.57C321.53 261.491 321.618 261.408 321.699 261.321C321.965 261.038 322.161 260.72 322.273 260.389L322.272 260.39ZM306.147 261.009C306.126 261.113 306.112 261.218 306.106 261.321C305.953 261.418 305.844 261.555 305.8 261.703C305.753 262.137 305.758 262.567 305.814 262.987C305.855 263.206 305.88 263.428 305.89 263.654C305.889 263.714 305.881 263.805 305.877 263.867C305.882 263.966 305.861 264.067 305.816 264.165C305.771 264.264 305.703 264.356 305.615 264.438C305.528 264.519 305.424 264.587 305.31 264.637C305.196 264.687 305.074 264.718 304.953 264.729C304.831 264.739 304.712 264.729 304.604 264.698C304.496 264.667 304.4 264.617 304.324 264.55C304.248 264.483 304.192 264.401 304.161 264.309C304.129 264.218 304.123 264.118 304.142 264.018C304.146 263.956 304.149 263.873 304.155 263.815C304.193 263.585 304.247 263.355 304.316 263.126C304.427 262.691 304.487 262.255 304.495 261.825C304.471 261.683 304.377 261.565 304.235 261.494C304.234 261.449 304.234 261.274 304.233 261.183C301.495 261.242 298.994 260.458 297.207 258.983L296.863 259.206C296.73 259.185 296.585 259.199 296.447 259.247C295.953 259.545 295.502 259.893 295.107 260.28C294.917 260.472 294.716 260.656 294.504 260.832C294.449 260.874 294.365 260.931 294.303 260.975L294.303 260.976L294.301 260.977C294.209 261.055 294.102 261.12 293.986 261.166C293.87 261.211 293.747 261.238 293.626 261.244C293.505 261.249 293.387 261.234 293.282 261.198C293.177 261.163 293.085 261.108 293.014 261.037C292.942 260.966 292.892 260.881 292.867 260.787C292.841 260.694 292.841 260.593 292.867 260.493C292.892 260.392 292.942 260.294 293.013 260.204C293.085 260.114 293.176 260.034 293.282 259.97C293.344 259.925 293.43 259.859 293.492 259.818C293.732 259.669 293.979 259.531 294.234 259.404C294.717 259.14 295.175 258.843 295.603 258.517C295.704 258.392 295.763 258.251 295.771 258.112L296.092 257.86C294.68 256.119 294.185 253.899 294.702 251.621L294.339 251.568C294.26 251.446 294.137 251.352 293.985 251.294C293.482 251.23 292.966 251.208 292.442 251.229C292.164 251.249 291.888 251.255 291.614 251.249C291.551 251.245 291.463 251.234 291.392 251.227C291.386 251.227 291.381 251.228 291.375 251.227C291.371 251.226 291.367 251.226 291.363 251.224C291.243 251.223 291.13 251.2 291.03 251.158C290.929 251.115 290.844 251.055 290.78 250.979C290.716 250.904 290.675 250.816 290.658 250.72C290.641 250.624 290.649 250.524 290.683 250.424C290.716 250.324 290.773 250.228 290.851 250.142C290.928 250.055 291.025 249.98 291.133 249.921C291.242 249.863 291.361 249.822 291.482 249.801C291.604 249.78 291.725 249.78 291.838 249.8L291.85 249.801L291.858 249.802C291.93 249.808 292.023 249.815 292.088 249.823C292.349 249.868 292.604 249.926 292.851 249.998C293.33 250.114 293.828 250.189 294.341 250.223C294.519 250.189 294.693 250.123 294.849 250.031L295.22 250.047C296.191 247.803 298.086 245.8 300.542 244.422L300.417 244.153C300.494 244.01 300.525 243.858 300.504 243.715C300.319 243.338 300.085 242.983 299.807 242.655C299.65 242.489 299.507 242.314 299.377 242.131C299.35 242.086 299.317 242.021 299.289 241.969L299.282 241.958C299.177 241.794 299.163 241.59 299.243 241.392C299.323 241.194 299.491 241.018 299.71 240.902C299.832 240.845 299.964 240.811 300.095 240.802C300.226 240.794 300.353 240.811 300.465 240.852C300.654 240.919 300.802 241.04 300.886 241.195C300.916 241.247 300.957 241.317 300.981 241.367C301.067 241.571 301.137 241.781 301.192 241.996C301.316 242.397 301.49 242.78 301.711 243.14C301.81 243.248 301.964 243.313 302.14 243.32C302.194 243.407 302.25 243.493 302.308 243.579C304.427 242.73 306.705 242.388 308.848 242.598C309.358 242.648 309.857 242.728 310.342 242.838L310.537 242.557C310.713 242.5 310.874 242.406 311 242.284C311.27 241.878 311.495 241.458 311.673 241.029C311.755 240.802 311.853 240.576 311.966 240.353C311.994 240.303 312.039 240.236 312.074 240.18C312.078 240.174 312.08 240.167 312.084 240.161C312.132 240.063 312.202 239.971 312.291 239.891C312.381 239.811 312.486 239.744 312.602 239.696C312.717 239.648 312.839 239.619 312.961 239.61C313.083 239.602 313.201 239.615 313.308 239.648C313.415 239.681 313.509 239.734 313.583 239.803C313.657 239.872 313.71 239.956 313.739 240.049C313.767 240.141 313.77 240.242 313.748 240.342C313.726 240.443 313.678 240.542 313.609 240.634C313.573 240.693 313.528 240.773 313.492 240.827C313.338 241.036 313.171 241.24 312.991 241.438C312.667 241.821 312.384 242.223 312.147 242.639C312.092 242.786 312.107 242.935 312.187 243.055C312.16 243.105 312.068 243.271 312.019 243.363C314.31 244.306 315.963 245.969 316.673 248.044L317.077 247.95C317.218 248.022 317.388 248.056 317.567 248.049C318.09 247.919 318.605 247.749 319.104 247.542C319.364 247.425 319.629 247.319 319.899 247.225C319.968 247.204 320.068 247.178 320.142 247.158C320.26 247.115 320.383 247.091 320.505 247.089C320.626 247.086 320.742 247.105 320.846 247.144C320.95 247.183 321.038 247.242 321.107 247.315C321.175 247.389 321.221 247.476 321.242 247.571C321.263 247.667 321.258 247.768 321.228 247.869C321.198 247.97 321.144 248.068 321.068 248.156C320.992 248.245 320.897 248.322 320.789 248.383C320.68 248.445 320.561 248.488 320.439 248.511C320.365 248.532 320.266 248.562 320.197 248.579C319.919 248.636 319.64 248.68 319.361 248.711C318.833 248.788 318.308 248.907 317.791 249.066C317.623 249.141 317.487 249.263 317.412 249.405C317.348 249.427 317.126 249.498 317.008 249.537C317.257 251.746 316.485 254.09 314.839 256.123L315.098 256.298C315.099 256.445 315.15 256.582 315.246 256.694C315.628 256.939 316.044 257.148 316.489 257.318C316.731 257.399 316.964 257.492 317.188 257.597C317.246 257.628 317.325 257.679 317.382 257.713C317.48 257.758 317.562 257.821 317.622 257.899C317.683 257.976 317.721 258.066 317.734 258.163C317.747 258.259 317.735 258.36 317.698 258.459C317.661 258.559 317.6 258.654 317.519 258.739C317.439 258.823 317.34 258.896 317.23 258.952C317.119 259.008 316.999 259.047 316.878 259.064C316.756 259.082 316.636 259.079 316.524 259.055C316.412 259.031 316.312 258.988 316.229 258.927L316.219 258.922C316.214 258.919 316.211 258.915 316.207 258.913C316.151 258.881 316.08 258.844 316.033 258.814C315.841 258.676 315.661 258.526 315.494 258.367C315.159 258.08 314.785 257.826 314.378 257.607C314.223 257.554 314.039 257.557 313.864 257.615C313.767 257.563 313.669 257.513 313.57 257.463C311.562 259.294 308.921 260.556 306.147 261.009Z" fill="#326CE5"/>
<path d="M317.381 257.713C317.325 257.679 317.246 257.628 317.188 257.598C316.965 257.493 316.731 257.399 316.49 257.318C316.044 257.148 315.628 256.939 315.245 256.694C315.15 256.583 315.099 256.445 315.098 256.299L314.839 256.123C316.485 254.09 317.257 251.747 317.009 249.537C317.126 249.498 317.348 249.427 317.411 249.406C317.487 249.263 317.623 249.141 317.791 249.067C318.307 248.908 318.833 248.789 319.361 248.711C319.64 248.68 319.919 248.637 320.197 248.58C320.266 248.563 320.365 248.532 320.439 248.511C320.561 248.488 320.68 248.445 320.789 248.384C320.897 248.322 320.992 248.245 321.068 248.157C321.143 248.068 321.198 247.97 321.228 247.869C321.258 247.769 321.263 247.667 321.242 247.572C321.221 247.477 321.175 247.389 321.107 247.316C321.039 247.242 320.95 247.184 320.846 247.145C320.742 247.106 320.626 247.087 320.505 247.089C320.384 247.091 320.26 247.115 320.142 247.158C320.068 247.178 319.968 247.204 319.899 247.225C319.629 247.319 319.364 247.425 319.104 247.542C318.605 247.749 318.09 247.919 317.567 248.049C317.388 248.056 317.218 248.022 317.077 247.95L316.673 248.044C315.963 245.969 314.309 244.306 312.019 243.363C312.068 243.271 312.16 243.105 312.187 243.055C312.107 242.935 312.093 242.786 312.147 242.64C312.385 242.224 312.667 241.821 312.991 241.438C313.171 241.241 313.338 241.037 313.492 240.827C313.528 240.773 313.573 240.693 313.609 240.634C313.678 240.542 313.726 240.443 313.748 240.342C313.77 240.242 313.767 240.142 313.739 240.049C313.71 239.956 313.657 239.872 313.583 239.803C313.509 239.734 313.415 239.681 313.308 239.648C313.201 239.615 313.083 239.602 312.961 239.61C312.839 239.619 312.717 239.648 312.601 239.696C312.486 239.744 312.38 239.811 312.291 239.891C312.202 239.971 312.132 240.063 312.084 240.161C312.08 240.167 312.078 240.174 312.074 240.18C312.039 240.236 311.994 240.303 311.966 240.353C311.853 240.576 311.755 240.802 311.672 241.03C311.495 241.458 311.27 241.878 311 242.284C310.874 242.406 310.713 242.5 310.537 242.557L310.342 242.838C309.857 242.728 309.358 242.648 308.848 242.598C306.705 242.389 304.428 242.73 302.308 243.579C302.251 243.493 302.194 243.407 302.14 243.32C301.964 243.313 301.81 243.248 301.711 243.14C301.49 242.78 301.316 242.397 301.192 241.996C301.137 241.781 301.067 241.571 300.982 241.367C300.957 241.317 300.916 241.247 300.887 241.194C300.802 241.039 300.654 240.919 300.465 240.851C300.353 240.81 300.226 240.793 300.095 240.802C299.964 240.811 299.832 240.845 299.71 240.901C299.491 241.018 299.323 241.194 299.243 241.392C299.163 241.59 299.177 241.793 299.282 241.958L299.289 241.969C299.317 242.021 299.35 242.086 299.377 242.13C299.507 242.314 299.65 242.489 299.807 242.655C300.085 242.983 300.318 243.338 300.504 243.715C300.524 243.858 300.494 244.01 300.417 244.153L300.541 244.423C298.086 245.8 296.19 247.803 295.219 250.047L294.849 250.031C294.693 250.123 294.52 250.188 294.341 250.222C293.828 250.189 293.329 250.114 292.851 249.998C292.603 249.927 292.348 249.868 292.087 249.823C292.023 249.814 291.93 249.807 291.858 249.802L291.85 249.801L291.838 249.801C291.725 249.78 291.603 249.78 291.482 249.801C291.361 249.822 291.242 249.863 291.133 249.922C291.025 249.981 290.928 250.056 290.851 250.142C290.773 250.229 290.716 250.325 290.683 250.425C290.65 250.524 290.641 250.625 290.658 250.721C290.675 250.816 290.717 250.905 290.781 250.98C290.845 251.055 290.93 251.116 291.03 251.158C291.13 251.2 291.244 251.223 291.363 251.225L291.375 251.227C291.381 251.228 291.387 251.227 291.392 251.227C291.463 251.234 291.55 251.245 291.614 251.249C291.887 251.255 292.164 251.249 292.441 251.229C292.965 251.208 293.482 251.23 293.985 251.294C294.137 251.352 294.259 251.446 294.338 251.568L294.702 251.62C294.185 253.899 294.68 256.119 296.092 257.86L295.771 258.112C295.763 258.251 295.704 258.392 295.603 258.517C295.176 258.843 294.717 259.14 294.234 259.403C293.98 259.531 293.732 259.669 293.492 259.817C293.43 259.859 293.344 259.925 293.282 259.97C293.176 260.034 293.085 260.114 293.014 260.204C292.943 260.294 292.893 260.392 292.868 260.493C292.843 260.593 292.843 260.693 292.868 260.787C292.893 260.88 292.943 260.965 293.015 261.036C293.086 261.106 293.178 261.161 293.283 261.197C293.388 261.233 293.505 261.248 293.626 261.243C293.747 261.237 293.87 261.211 293.986 261.165C294.102 261.119 294.209 261.055 294.301 260.977L294.303 260.976L294.304 260.975C294.365 260.931 294.449 260.874 294.504 260.832C294.716 260.656 294.917 260.472 295.107 260.28C295.502 259.893 295.953 259.545 296.447 259.247C296.585 259.199 296.73 259.185 296.863 259.206L297.207 258.982C298.994 260.458 301.495 261.241 304.233 261.183C304.234 261.275 304.234 261.449 304.235 261.494C304.377 261.564 304.47 261.683 304.495 261.825C304.486 262.255 304.427 262.691 304.316 263.126C304.247 263.355 304.193 263.585 304.155 263.815C304.149 263.873 304.146 263.955 304.142 264.018C304.123 264.118 304.129 264.218 304.161 264.309C304.192 264.401 304.248 264.483 304.324 264.55C304.4 264.617 304.496 264.667 304.604 264.698C304.712 264.729 304.831 264.739 304.953 264.729C305.074 264.718 305.196 264.687 305.31 264.637C305.424 264.587 305.528 264.519 305.615 264.437C305.703 264.356 305.771 264.264 305.816 264.165C305.861 264.067 305.882 263.966 305.877 263.867C305.881 263.805 305.889 263.714 305.89 263.654C305.881 263.429 305.856 263.206 305.814 262.987C305.758 262.567 305.754 262.137 305.801 261.703C305.844 261.555 305.953 261.418 306.106 261.321C306.112 261.218 306.126 261.113 306.147 261.009C308.921 260.556 311.562 259.295 313.57 257.464C313.66 257.508 313.815 257.588 313.865 257.616C314.039 257.557 314.223 257.554 314.378 257.607C314.785 257.826 315.158 258.08 315.493 258.367C315.66 258.526 315.841 258.676 316.033 258.814C316.08 258.844 316.151 258.881 316.206 258.913C316.211 258.916 316.214 258.919 316.219 258.922L316.229 258.927C316.312 258.988 316.412 259.031 316.524 259.055C316.636 259.079 316.756 259.082 316.877 259.064C316.999 259.046 317.118 259.008 317.229 258.952C317.339 258.896 317.438 258.823 317.518 258.738C317.599 258.653 317.659 258.558 317.696 258.459C317.733 258.36 317.746 258.259 317.733 258.163C317.72 258.066 317.682 257.976 317.622 257.899C317.561 257.821 317.479 257.758 317.381 257.713ZM314.39 248.568L309.867 249.607L309.859 249.599C309.721 249.632 309.581 249.635 309.454 249.607C309.327 249.579 309.218 249.522 309.137 249.441C309.056 249.361 309.007 249.259 308.996 249.149C308.984 249.038 309.01 248.921 309.071 248.812L309.069 248.809L311.029 245.193C312.634 245.918 313.815 247.104 314.39 248.568L314.39 248.568ZM305.856 250.548L307.082 250.929L307.322 252.012L306.398 252.983L305.006 253.112L304.193 252.297L304.57 251.156L305.856 250.548ZM308.228 244.472C308.53 244.501 308.827 244.544 309.118 244.6L306.702 248.081L306.681 248.083C306.609 248.189 306.507 248.282 306.384 248.351C306.262 248.421 306.124 248.464 305.986 248.477C305.848 248.49 305.714 248.472 305.599 248.425C305.483 248.378 305.391 248.303 305.332 248.209L305.324 248.21L303.318 245.127C304.924 244.54 306.625 244.313 308.228 244.472ZM301.31 246.085L302.838 249.393L302.826 249.406C302.874 249.506 302.886 249.619 302.86 249.733C302.834 249.847 302.772 249.959 302.68 250.056C302.588 250.153 302.469 250.231 302.337 250.283C302.205 250.335 302.064 250.358 301.929 250.35L301.919 250.361L297.475 250.152C298.233 248.553 299.583 247.122 301.31 246.085ZM301.423 253.647L297.881 256.446C296.93 255.159 296.58 253.576 296.884 251.941L301.185 252.57L301.187 252.579C301.235 252.586 301.281 252.596 301.325 252.61C301.435 252.646 301.527 252.705 301.595 252.782C301.662 252.86 301.702 252.953 301.711 253.054C301.721 253.155 301.699 253.26 301.648 253.361C301.597 253.461 301.519 253.554 301.42 253.63L301.423 253.647ZM303.329 259.253C301.724 259.1 300.276 258.57 299.148 257.721L303 255.214L303.003 255.215C303.119 255.138 303.254 255.085 303.392 255.062C303.53 255.039 303.668 255.047 303.789 255.084C303.91 255.122 304.012 255.188 304.082 255.275C304.152 255.363 304.189 255.469 304.188 255.582L304.203 255.586L304.223 259.301C303.925 259.298 303.627 259.282 303.329 259.253L303.329 259.253ZM306.399 259.106L306.896 255.323L306.905 255.318C306.924 255.155 307.018 254.995 307.167 254.869C307.317 254.744 307.51 254.664 307.708 254.645C307.81 254.635 307.91 254.642 308.002 254.666C308.055 254.68 308.104 254.699 308.15 254.724L308.161 254.719L311.764 256.547C310.275 257.828 308.388 258.729 306.399 259.106ZM313.201 255.022L309.952 252.838L309.958 252.822C309.858 252.757 309.787 252.668 309.751 252.564C309.715 252.459 309.716 252.345 309.754 252.231C309.792 252.117 309.865 252.009 309.966 251.918C310.067 251.827 310.191 251.757 310.327 251.714L310.329 251.707L314.766 250.265C314.866 251.865 314.316 253.535 313.201 255.022L313.201 255.022Z" fill="white"/>
<defs>
<filter id="filter0_d_12423_16988" x="88.6406" y="108.276" width="678.463" height="113.12" filterUnits="userSpaceOnUse" color-interpolation-filters="sRGB">
<feFlood flood-opacity="0" result="BackgroundImageFix"/>
<feColorMatrix in="SourceAlpha" type="matrix" values="0 0 0 0 0 0 0 0 0 0 0 0 0 0 0 0 0 0 127 0" result="hardAlpha"/>
<feOffset dy="10"/>
<feGaussianBlur stdDeviation="2"/>
<feComposite in2="hardAlpha" operator="out"/>
<feColorMatrix type="matrix" values="0 0 0 0 0 0 0 0 0 0 0 0 0 0 0 0 0 0 0.25 0"/>
<feBlend mode="normal" in2="BackgroundImageFix" result="effect1_dropShadow_12423_16988"/>
<feBlend mode="normal" in="SourceGraphic" in2="effect1_dropShadow_12423_16988" result="shape"/>
</filter>
<filter id="filter1_d_12423_16988" x="377.953" y="167.824" width="12.2168" height="18.2172" filterUnits="userSpaceOnUse" color-interpolation-filters="sRGB">
<feFlood flood-opacity="0" result="BackgroundImageFix"/>
<feColorMatrix in="SourceAlpha" type="matrix" values="0 0 0 0 0 0 0 0 0 0 0 0 0 0 0 0 0 0 127 0" result="hardAlpha"/>
<feOffset dy="10"/>
<feGaussianBlur stdDeviation="2"/>
<feComposite in2="hardAlpha" operator="out"/>
<feColorMatrix type="matrix" values="0 0 0 0 0 0 0 0 0 0 0 0 0 0 0 0 0 0 0.25 0"/>
<feBlend mode="normal" in2="BackgroundImageFix" result="effect1_dropShadow_12423_16988"/>
<feBlend mode="normal" in="SourceGraphic" in2="effect1_dropShadow_12423_16988" result="shape"/>
</filter>
<filter id="filter2_d_12423_16988" x="464.404" y="167.823" width="78.0859" height="83.9448" filterUnits="userSpaceOnUse" color-interpolation-filters="sRGB">
<feFlood flood-opacity="0" result="BackgroundImageFix"/>
<feColorMatrix in="SourceAlpha" type="matrix" values="0 0 0 0 0 0 0 0 0 0 0 0 0 0 0 0 0 0 127 0" result="hardAlpha"/>
<feOffset dy="10"/>
<feGaussianBlur stdDeviation="2"/>
<feComposite in2="hardAlpha" operator="out"/>
<feColorMatrix type="matrix" values="0 0 0 0 0 0 0 0 0 0 0 0 0 0 0 0 0 0 0.25 0"/>
<feBlend mode="normal" in2="BackgroundImageFix" result="effect1_dropShadow_12423_16988"/>
<feBlend mode="normal" in="SourceGraphic" in2="effect1_dropShadow_12423_16988" result="shape"/>
</filter>
<filter id="filter3_d_12423_16988" x="339.348" y="136.607" width="12.2188" height="18.2172" filterUnits="userSpaceOnUse" color-interpolation-filters="sRGB">
<feFlood flood-opacity="0" result="BackgroundImageFix"/>
<feColorMatrix in="SourceAlpha" type="matrix" values="0 0 0 0 0 0 0 0 0 0 0 0 0 0 0 0 0 0 127 0" result="hardAlpha"/>
<feOffset dy="10"/>
<feGaussianBlur stdDeviation="2"/>
<feComposite in2="hardAlpha" operator="out"/>
<feColorMatrix type="matrix" values="0 0 0 0 0 0 0 0 0 0 0 0 0 0 0 0 0 0 0.25 0"/>
<feBlend mode="normal" in2="BackgroundImageFix" result="effect1_dropShadow_12423_16988"/>
<feBlend mode="normal" in="SourceGraphic" in2="effect1_dropShadow_12423_16988" result="shape"/>
</filter>
<filter id="filter4_d_12423_16988" x="501.826" y="136.707" width="12.2188" height="18.2172" filterUnits="userSpaceOnUse" color-interpolation-filters="sRGB">
<feFlood flood-opacity="0" result="BackgroundImageFix"/>
<feColorMatrix in="SourceAlpha" type="matrix" values="0 0 0 0 0 0 0 0 0 0 0 0 0 0 0 0 0 0 127 0" result="hardAlpha"/>
<feOffset dy="10"/>
<feGaussianBlur stdDeviation="2"/>
<feComposite in2="hardAlpha" operator="out"/>
<feColorMatrix type="matrix" values="0 0 0 0 0 0 0 0 0 0 0 0 0 0 0 0 0 0 0.25 0"/>
<feBlend mode="normal" in2="BackgroundImageFix" result="effect1_dropShadow_12423_16988"/>
<feBlend mode="normal" in="SourceGraphic" in2="effect1_dropShadow_12423_16988" result="shape"/>
</filter>
<filter id="filter5_d_12423_16988" x="530.277" y="238.062" width="45.3828" height="40.6127" filterUnits="userSpaceOnUse" color-interpolation-filters="sRGB">
<feFlood flood-opacity="0" result="BackgroundImageFix"/>
<feColorMatrix in="SourceAlpha" type="matrix" values="0 0 0 0 0 0 0 0 0 0 0 0 0 0 0 0 0 0 127 0" result="hardAlpha"/>
<feOffset dy="6"/>
<feGaussianBlur stdDeviation="2"/>
<feComposite in2="hardAlpha" operator="out"/>
<feColorMatrix type="matrix" values="0 0 0 0 0 0 0 0 0 0 0 0 0 0 0 0 0 0 0.25 0"/>
<feBlend mode="normal" in2="BackgroundImageFix" result="effect1_dropShadow_12423_16988"/>
<feBlend mode="normal" in="SourceGraphic" in2="effect1_dropShadow_12423_16988" result="shape"/>
</filter>
<filter id="filter6_d_12423_16988" x="531.545" y="236.035" width="45.4004" height="41.4382" filterUnits="userSpaceOnUse" color-interpolation-filters="sRGB">
<feFlood flood-opacity="0" result="BackgroundImageFix"/>
<feColorMatrix in="SourceAlpha" type="matrix" values="0 0 0 0 0 0 0 0 0 0 0 0 0 0 0 0 0 0 127 0" result="hardAlpha"/>
<feOffset dy="6"/>
<feGaussianBlur stdDeviation="2"/>
<feComposite in2="hardAlpha" operator="out"/>
<feColorMatrix type="matrix" values="0 0 0 0 0 0 0 0 0 0 0 0 0 0 0 0 0 0 0.25 0"/>
<feBlend mode="normal" in2="BackgroundImageFix" result="effect1_dropShadow_12423_16988"/>
<feBlend mode="normal" in="SourceGraphic" in2="effect1_dropShadow_12423_16988" result="shape"/>
</filter>
<filter id="filter7_d_12423_16988" x="88.6387" y="107.341" width="45.2539" height="28.385" filterUnits="userSpaceOnUse" color-interpolation-filters="sRGB">
<feFlood flood-opacity="0" result="BackgroundImageFix"/>
<feColorMatrix in="SourceAlpha" type="matrix" values="0 0 0 0 0 0 0 0 0 0 0 0 0 0 0 0 0 0 127 0" result="hardAlpha"/>
<feOffset dy="4"/>
<feGaussianBlur stdDeviation="2"/>
<feComposite in2="hardAlpha" operator="out"/>
<feColorMatrix type="matrix" values="0 0 0 0 0 0 0 0 0 0 0 0 0 0 0 0 0 0 0.25 0"/>
<feBlend mode="normal" in2="BackgroundImageFix" result="effect1_dropShadow_12423_16988"/>
<feBlend mode="normal" in="SourceGraphic" in2="effect1_dropShadow_12423_16988" result="shape"/>
</filter>
<filter id="filter8_d_12423_16988" x="102.668" y="183.083" width="45.2539" height="28.385" filterUnits="userSpaceOnUse" color-interpolation-filters="sRGB">
<feFlood flood-opacity="0" result="BackgroundImageFix"/>
<feColorMatrix in="SourceAlpha" type="matrix" values="0 0 0 0 0 0 0 0 0 0 0 0 0 0 0 0 0 0 127 0" result="hardAlpha"/>
<feOffset dy="4"/>
<feGaussianBlur stdDeviation="2"/>
<feComposite in2="hardAlpha" operator="out"/>
<feColorMatrix type="matrix" values="0 0 0 0 0 0 0 0 0 0 0 0 0 0 0 0 0 0 0.25 0"/>
<feBlend mode="normal" in2="BackgroundImageFix" result="effect1_dropShadow_12423_16988"/>
<feBlend mode="normal" in="SourceGraphic" in2="effect1_dropShadow_12423_16988" result="shape"/>
</filter>
<filter id="filter9_d_12423_16988" x="282.215" y="237.438" width="50.7676" height="45.5592" filterUnits="userSpaceOnUse" color-interpolation-filters="sRGB">
<feFlood flood-opacity="0" result="BackgroundImageFix"/>
<feColorMatrix in="SourceAlpha" type="matrix" values="0 0 0 0 0 0 0 0 0 0 0 0 0 0 0 0 0 0 127 0" result="hardAlpha"/>
<feOffset dy="6"/>
<feGaussianBlur stdDeviation="2"/>
<feComposite in2="hardAlpha" operator="out"/>
<feColorMatrix type="matrix" values="0 0 0 0 0 0 0 0 0 0 0 0 0 0 0 0 0 0 0.35 0"/>
<feBlend mode="normal" in2="BackgroundImageFix" result="effect1_dropShadow_12423_16988"/>
<feBlend mode="normal" in="SourceGraphic" in2="effect1_dropShadow_12423_16988" result="shape"/>
</filter>
<linearGradient id="paint0_linear_12423_16988" x1="850" y1="98" x2="765.959" y2="114.632" gradientUnits="userSpaceOnUse">
<stop stop-color="white"/>
<stop offset="1" stop-color="#CFCFCF"/>
</linearGradient>
<linearGradient id="paint1_linear_12423_16988" x1="827" y1="247" x2="748.246" y2="205.319" gradientUnits="userSpaceOnUse">
<stop stop-color="white"/>
<stop offset="1" stop-color="#CFCFCF"/>
</linearGradient>
<linearGradient id="paint2_linear_12423_16988" x1="0.999995" y1="98" x2="89.8784" y2="113.634" gradientUnits="userSpaceOnUse">
<stop stop-color="white"/>
<stop offset="1" stop-color="#CFCFCF"/>
</linearGradient>
<linearGradient id="paint3_linear_12423_16988" x1="25.002" y1="247" x2="106.558" y2="203.442" gradientUnits="userSpaceOnUse">
<stop stop-color="white"/>
<stop offset="1" stop-color="#CFCFCF"/>
</linearGradient>
<radialGradient id="paint4_radial_12423_16988" cx="0" cy="0" r="1" gradientUnits="userSpaceOnUse" gradientTransform="translate(427.404 176.07) rotate(-90) scale(55.6381 218.32)">
<stop offset="0.14375" stop-color="#00D3A9" stop-opacity="0.44"/>
<stop offset="1" stop-color="#D9D9D9" stop-opacity="0"/>
</radialGradient>
<radialGradient id="paint5_radial_12423_16988" cx="0" cy="0" r="1" gradientUnits="userSpaceOnUse" gradientTransform="translate(125.469 211.124) rotate(-90) scale(25.0535 53.2508)">
<stop offset="0.14375" stop-color="#8F5E24"/>
<stop offset="1" stop-color="#D9D9D9" stop-opacity="0"/>
</radialGradient>
<radialGradient id="paint6_radial_12423_16988" cx="0" cy="0" r="1" gradientUnits="userSpaceOnUse" gradientTransform="translate(111.441 135.805) rotate(-90) scale(27.3311 53.2508)">
<stop offset="0.14375" stop-color="#009639"/>
<stop offset="1" stop-color="#D9D9D9" stop-opacity="0"/>
</radialGradient>
<radialGradient id="paint7_radial_12423_16988" cx="0" cy="0" r="1" gradientUnits="userSpaceOnUse" gradientTransform="translate(730.472 211.635) rotate(-90) scale(22.7759 53.2508)">
<stop offset="0.14375" stop-color="#9D0FB0"/>
<stop offset="1" stop-color="#D9D9D9" stop-opacity="0"/>
</radialGradient>
<radialGradient id="paint8_radial_12423_16988" cx="0" cy="0" r="1" gradientUnits="userSpaceOnUse" gradientTransform="translate(744.5 135.381) rotate(-90) scale(25.0535 53.2508)">
<stop offset="0.14375" stop-color="#E75225"/>
<stop offset="1" stop-color="#D9D9D9" stop-opacity="0"/>
</radialGradient>
<radialGradient id="paint9_radial_12423_16988" cx="0" cy="0" r="1" gradientUnits="userSpaceOnUse" gradientTransform="translate(622.937 157.312) rotate(-90) scale(27.3311 53.2508)">
<stop offset="0.14375" stop-color="#00D3A9"/>
<stop offset="1" stop-color="#D9D9D9" stop-opacity="0"/>
</radialGradient>
<radialGradient id="paint10_radial_12423_16988" cx="0" cy="0" r="1" gradientUnits="userSpaceOnUse" gradientTransform="translate(232.068 156.165) rotate(-90) scale(26.1923 53.2508)">
<stop offset="0.14375" stop-color="#E03875"/>
<stop offset="1" stop-color="#D9D9D9" stop-opacity="0"/>
</radialGradient>
<linearGradient id="paint11_linear_12423_16988" x1="320.333" y1="138.755" x2="261.889" y2="138.755" gradientUnits="userSpaceOnUse">
<stop stop-color="#00B39F"/>
<stop offset="1" stop-color="#CFCFCF"/>
</linearGradient>
<linearGradient id="paint12_linear_12423_16988" x1="213" y1="353" x2="290.84" y2="272.91" gradientUnits="userSpaceOnUse">
<stop stop-color="white"/>
<stop offset="1" stop-color="#CFCFCF"/>
</linearGradient>
<linearGradient id="paint13_linear_12423_16988" x1="639.5" y1="350.5" x2="564.833" y2="270.169" gradientUnits="userSpaceOnUse">
<stop stop-color="white"/>
<stop offset="1" stop-color="#CFCFCF"/>
</linearGradient>
<linearGradient id="paint14_linear_12423_16988" x1="366.397" y1="187.981" x2="326.607" y2="228.976" gradientUnits="userSpaceOnUse">
<stop stop-color="#00B39F"/>
<stop offset="1" stop-color="#CFCFCF"/>
</linearGradient>
<linearGradient id="paint15_linear_12423_16988" x1="487.842" y1="188.064" x2="528.837" y2="229.059" gradientUnits="userSpaceOnUse">
<stop stop-color="#00B39F"/>
<stop offset="1" stop-color="#CFCFCF"/>
</linearGradient>
<linearGradient id="paint16_linear_12423_16988" x1="534.288" y1="138.818" x2="591.561" y2="138.818" gradientUnits="userSpaceOnUse">
<stop stop-color="#00B39F"/>
<stop offset="1" stop-color="#CFCFCF"/>
</linearGradient>
<linearGradient id="paint17_linear_12423_16988" x1="553.304" y1="264.108" x2="553.992" y2="268.112" gradientUnits="userSpaceOnUse">
<stop offset="0.9999" stop-color="#466BB0" stop-opacity="0.5"/>
<stop offset="1" stop-color="#466BB0"/>
</linearGradient>
<linearGradient id="paint18_linear_12423_16988" x1="533.144" y1="249.712" x2="535.895" y2="265.725" gradientUnits="userSpaceOnUse">
<stop offset="0.9999" stop-color="#466BB0" stop-opacity="0.5"/>
<stop offset="1" stop-color="#466BB0"/>
</linearGradient>
<linearGradient id="paint19_linear_12423_16988" x1="547.31" y1="236.287" x2="551.896" y2="262.976" gradientUnits="userSpaceOnUse">
<stop offset="0.9999" stop-color="#466BB0" stop-opacity="0.5"/>
<stop offset="1" stop-color="#466BB0"/>
</linearGradient>
<radialGradient id="paint20_radial_12423_16988" cx="0" cy="0" r="1" gradientUnits="userSpaceOnUse" gradientTransform="translate(307.809 254.101) rotate(121.66) scale(19.4237 18.9739)">
<stop offset="0.114893" stop-color="#326CE5" stop-opacity="0"/>
<stop offset="1" stop-color="#326CE5" stop-opacity="0.5"/>
</radialGradient>
</defs>
</svg>
