<?xml version="1.0" standalone="no"?>
<!DOCTYPE svg PUBLIC "-//W3C//DTD SVG 20010904//EN" "http://www.w3.org/TR/2001/REC-SVG-20010904/DTD/svg10.dtd">
<svg version="1.0" xmlns="http://www.w3.org/2000/svg" width="575.000000pt" height="116.000000pt"
  viewBox="0 0 575.000000 116.000000" preserveAspectRatio="xMidYMid meet">
  <style>
    .cls-1 {
      fill: #662839
    }
  </style>
  <g transform="translate(0.000000,116.000000) scale(0.100000,-0.100000)" class="cls-1" stroke="none">
    <path d="M4447 1012 l-107 -107 0 -60 c0 -57 -2 -61 -47 -107 l-47 -48 47 0
47 0 0 -273 0 -273 30 -29 30 -29 30 29 30 29 0 271 0 271 60 59 61 60 -58 5
-58 5 -3 105 -3 105 46 -45 45 -44 48 47 47 47 -45 45 -45 45 -108 -108z" />
    <path d="M147 1012 c-92 -92 -96 -98 -80 -115 16 -16 20 -15 65 30 80 78 78
87 78 -381 l0 -402 28 -27 c35 -33 39 -33 74 0 l28 27 0 171 0 170 80 80 80
80 0 -221 0 -220 58 -57 c32 -31 62 -57 68 -57 5 0 44 35 87 78 61 61 75 80
65 90 -18 18 -29 15 -60 -15 l-28 -27 -30 29 -30 29 0 366 0 366 -50 49 -50
49 -47 -47 -47 -47 32 -33 c30 -31 32 -37 32 -108 l0 -74 -80 -80 -80 -80 0
191 0 190 -48 47 -48 47 -97 -98z" />
    <path d="M1732 1017 c-23 -23 -42 -47 -42 -53 0 -6 14 -23 30 -39 l30 -29 0
-381 0 -382 23 -21 c30 -28 35 -28 69 5 l28 27 0 195 0 195 30 -29 30 -29 0
-166 0 -166 30 -29 30 -29 30 29 30 29 0 201 0 201 -45 44 -45 44 45 46 45 46
-45 44 -45 44 -45 -44 -45 -44 0 120 0 120 -48 47 -48 47 -42 -43z m180 -429
l-42 -43 0 85 0 85 42 -43 43 -42 -43 -42z" />
    <path d="M2967 1012 l-47 -48 30 -29 30 -29 0 -351 0 -351 58 -57 c32 -31 62
-57 67 -57 6 0 56 47 113 105 l102 104 0 196 0 196 -57 60 c-31 32 -61 59 -67
59 -5 0 -30 -19 -53 -42 l-43 -42 0 125 0 125 -43 42 -43 42 -47 -48z m223
-601 l0 -225 -45 44 -45 44 0 225 0 225 45 -44 45 -44 0 -225z" />
    <path d="M2248 803 c-54 -54 -98 -102 -98 -106 0 -4 18 -7 40 -7 l40 0 0 -272
0 -272 27 -28 c15 -15 32 -28 38 -28 14 0 145 132 145 147 0 6 -6 16 -13 22
-11 8 -19 5 -37 -14 -13 -14 -27 -25 -32 -25 -4 0 -8 105 -8 233 l0 233 60 59
61 60 -58 5 -58 5 -5 43 -5 43 -97 -98z" />
    <path d="M5448 803 c-54 -54 -98 -102 -98 -106 0 -4 18 -7 40 -7 l40 0 0 -272
0 -272 27 -28 c15 -15 32 -28 38 -28 13 0 145 132 145 146 0 5 -5 15 -12 22
-9 9 -19 5 -45 -20 l-33 -32 0 240 0 240 60 59 61 60 -58 5 -58 5 -5 43 -5 43
-97 -98z" />
    <path d="M962 706 l-102 -103 0 -197 0 -197 57 -60 c31 -32 61 -59 67 -59 7 0
30 18 51 40 l39 40 41 -40 c22 -22 45 -40 51 -40 5 0 29 19 52 43 l42 43 -30
29 -30 29 0 230 0 230 -57 58 c-32 32 -62 58 -68 58 -6 0 -56 -47 -113 -104z
m118 -305 l0 -225 -45 44 -45 44 0 225 0 225 45 -44 45 -44 0 -225z" />
    <path d="M1442 707 l-102 -102 0 -200 0 -201 60 -59 60 -60 92 92 c80 80 90
94 78 108 -12 14 -18 11 -60 -30 l-46 -45 -32 33 -32 33 0 224 0 224 48 -47
48 -47 42 43 c23 23 42 47 42 53 0 13 -73 84 -86 84 -5 0 -55 -46 -112 -103z" />
    <path d="M2632 707 l-102 -102 0 -206 0 -205 53 -52 c29 -29 57 -52 62 -52 5
0 56 46 112 102 l103 103 0 200 0 201 -58 57 c-32 31 -60 57 -62 57 -3 0 -51
-46 -108 -103z m108 -306 l0 -225 -45 44 -45 44 0 225 0 225 45 -44 45 -44 0
-225z" />
    <path d="M3532 707 l-102 -102 0 -200 0 -201 60 -59 60 -59 90 89 c50 49 90
93 90 98 0 4 -7 10 -16 14 -10 4 -31 -9 -60 -38 l-44 -43 -30 29 c-30 29 -30
29 -30 140 l0 110 105 105 105 105 -57 57 c-32 32 -60 58 -63 58 -3 0 -51 -46
-108 -103z m60 -119 l-42 -43 0 85 0 85 42 -43 43 -42 -43 -42z" />
    <path d="M3862 767 l-42 -43 30 -29 30 -29 0 -260 0 -260 27 -28 c33 -34 43
-35 71 -5 22 23 22 29 22 317 l0 294 48 -47 48 -47 47 48 47 48 -43 42 c-23
23 -47 42 -52 42 -5 0 -28 -18 -50 -40 l-41 -40 -39 40 c-21 22 -44 40 -50 40
-6 0 -30 -19 -53 -43z" />
    <path d="M4722 707 l-102 -102 0 -200 0 -199 57 -58 c32 -32 62 -58 68 -58 14
0 175 163 175 177 0 6 -6 15 -13 21 -10 9 -24 1 -57 -33 l-44 -45 -33 32 -33
32 0 101 0 100 105 105 c58 58 105 109 105 115 0 13 -102 115 -115 115 -6 0
-56 -46 -113 -103z m71 -35 l37 -38 -45 -44 -45 -44 0 82 c0 45 4 82 8 82 4 0
25 -17 45 -38z" />
    <path d="M5127 722 l-87 -87 0 -65 0 -65 90 -90 90 -90 0 -74 0 -75 -44 43
c-50 49 -63 47 -109 -12 l-26 -34 45 -44 44 -43 90 89 90 90 0 80 0 80 -90 90
-90 90 0 54 0 55 45 -44 45 -44 47 47 47 47 -44 45 c-24 25 -47 45 -50 45 -3
0 -45 -39 -93 -88z" />
  </g>
</svg>