<?xml version="1.0" standalone="no"?>
<!DOCTYPE svg PUBLIC "-//W3C//DTD SVG 20010904//EN"
 "http://www.w3.org/TR/2001/REC-SVG-20010904/DTD/svg10.dtd">
<svg version="1.0" xmlns="http://www.w3.org/2000/svg"
 width="325.000000pt" height="307.000000pt" viewBox="0 0 325.000000 307.000000"
 preserveAspectRatio="xMidYMid meet">

<g transform="translate(0.000000,307.000000) scale(0.100000,-0.100000)"
fill="#000000" stroke="none">
<path d="M3176 3044 c-193 -101 -574 -194 -793 -194 -94 0 -248 24 -373 57
-115 31 -165 50 -293 110 l-97 47 -38 -23 c-214 -129 -453 -192 -732 -193
-242 0 -466 52 -699 163 -75 35 -107 46 -112 38 -23 -39 -37 -347 -27 -599 22
-512 120 -924 312 -1315 195 -396 628 -815 1097 -1063 147 -77 159 -79 254
-44 312 117 555 271 806 511 133 127 244 258 320 381 90 146 195 374 249 539
77 240 105 378 159 811 27 213 44 801 24 800 -5 -1 -30 -12 -57 -26z m-1476
-55 c134 -64 239 -99 382 -128 268 -55 403 -49 763 35 102 24 142 29 147 21
18 -27 0 -335 -31 -562 -6 -38 -13 -92 -16 -120 -3 -27 -15 -102 -25 -165 -11
-63 -25 -146 -31 -185 -6 -38 -18 -75 -26 -81 -8 -7 -10 -13 -4 -15 12 -4 -11
-116 -25 -128 -5 -4 -74 -29 -154 -56 -80 -26 -200 -68 -267 -91 l-123 -43 -6
27 c-3 15 -7 33 -9 39 -3 7 8 20 23 29 15 8 18 12 7 9 -64 -22 -81 -29 -90
-38 -7 -7 -6 -8 3 -3 8 5 12 -3 12 -28 0 -52 -8 -65 -46 -72 -49 -9 -52 -24
-5 -24 60 0 50 -16 -25 -39 -105 -33 -109 -41 -16 -35 l82 6 -1 -39 c-1 -21
-6 -114 -12 -208 l-12 -170 -25 2 c-14 2 -48 5 -76 9 -65 8 -146 -15 -204 -58
-23 -18 -49 -37 -56 -43 -9 -6 -19 -2 -33 16 -11 14 -48 41 -83 59 -54 29 -73
34 -133 34 -78 1 -156 -28 -208 -78 -15 -14 -31 -26 -36 -26 -4 0 -22 15 -40
34 -18 19 -60 46 -94 61 -102 46 -224 27 -315 -50 -16 -14 -36 -25 -43 -25
-36 2 -197 245 -304 458 -143 288 -231 622 -250 953 -10 168 -9 619 1 629 5 5
56 -5 114 -21 152 -43 284 -61 455 -61 167 -1 233 8 387 52 128 37 202 66 293
118 39 22 72 39 75 38 3 -1 39 -18 80 -37z m1507 -241 c-25 -1022 -233 -1665
-695 -2135 -217 -222 -515 -424 -786 -532 -128 -51 -150 -51 -253 0 -128 63
-389 241 -538 367 -192 161 -430 426 -523 580 -157 259 -288 678 -344 1098
-20 147 -23 214 -23 516 0 259 3 350 12 359 10 10 33 3 108 -32 l96 -45 4
-314 c6 -437 32 -651 114 -940 40 -140 68 -213 138 -356 111 -225 230 -402
367 -542 195 -201 499 -437 653 -506 42 -19 42 -19 100 4 372 148 722 420 915
710 128 193 266 505 322 728 61 241 134 777 145 1071 l6 165 85 37 c47 21 89
38 94 38 5 1 6 -110 3 -271z m-379 -1120 c-2 -6 -11 -15 -19 -20 -26 -14 -489
-178 -505 -178 -9 0 -14 7 -12 17 2 12 74 41 258 104 140 48 261 88 268 88 8
1 12 -4 10 -11z m-19 -52 c-9 -7 -262 -86 -266 -82 -5 5 261 95 266 90 2 -2 2
-6 0 -8z m-9 -33 c0 -5 -8 -22 -18 -38 -17 -27 -39 -37 -208 -93 -194 -64
-257 -75 -268 -46 -11 29 -6 41 17 42 12 1 117 32 232 71 207 68 245 78 245
64z m-530 -43 c0 -5 -4 -10 -10 -10 -5 0 -10 5 -10 10 0 6 5 10 10 10 6 0 10
-4 10 -10z m250 -20 c-8 -5 -22 -9 -30 -9 -10 0 -8 3 5 9 27 12 43 12 25 0z
m-260 -4 c0 -3 -4 -8 -10 -11 -5 -3 -10 -1 -10 4 0 6 5 11 10 11 6 0 10 -2 10
-4z m200 -16 c-8 -5 -22 -9 -30 -9 -10 0 -8 3 5 9 27 12 43 12 25 0z m295 -27
c-12 -50 -161 -346 -213 -423 -28 -41 -73 -100 -100 -130 l-49 -55 -6 30 c-4
17 -16 100 -27 185 -11 85 -27 186 -36 224 -15 71 -14 86 8 68 10 -8 66 7 213
57 110 37 204 69 209 69 4 1 5 -10 1 -25z m-475 7 c0 -5 -7 -10 -16 -10 -8 0
-12 5 -9 10 3 6 10 10 16 10 5 0 9 -4 9 -10z m10 -54 c0 -18 -15 -36 -31 -36
-22 0 -24 11 -7 28 11 11 38 17 38 8z m-70 -21 c0 -11 -10 -15 -37 -14 l-38 1
30 13 c39 18 45 18 45 0z m26 -52 c-10 -10 -19 5 -10 18 6 11 8 11 12 0 2 -7
1 -15 -2 -18z m54 17 c0 -5 -4 -10 -10 -10 -5 0 -10 5 -10 10 0 6 5 10 10 10
6 0 10 -4 10 -10z m0 -46 c0 -6 -7 -17 -16 -24 -12 -11 -18 -11 -30 2 -13 12
-14 20 -5 37 10 18 14 19 31 8 11 -6 20 -17 20 -23z m-53 -71 c-16 -16 -17
-15 -17 17 0 32 1 33 17 17 16 -16 16 -18 0 -34z m67 21 c4 -10 1 -14 -6 -12
-15 5 -23 28 -10 28 5 0 13 -7 16 -16z m-20 -20 c20 -8 21 -28 2 -43 -11 -10
-20 -10 -36 -1 -21 11 -21 12 -4 31 20 22 17 21 38 13z m-41 -91 c-21 -31 -33
-29 -33 5 0 36 8 44 30 30 16 -11 17 -14 3 -35z m77 20 c0 -25 -1 -26 -16 -11
-9 9 -13 21 -10 27 13 20 26 11 26 -16z m0 -51 c0 -11 -33 -42 -44 -42 -6 0
-20 7 -30 15 -19 15 -19 15 3 39 22 23 25 24 47 9 13 -8 24 -18 24 -21z m-64
-53 c6 -11 -41 -68 -49 -58 -2 2 -2 23 1 46 4 38 6 41 22 33 11 -6 22 -15 26
-21z m84 -16 c0 -15 -9 -16 -29 -4 -12 8 -13 12 -1 26 10 13 15 13 21 3 5 -7
9 -19 9 -25z m-29 -22 l24 -20 -27 -27 c-25 -26 -29 -27 -53 -14 -31 16 -31
27 -3 57 26 28 30 28 59 4z m39 -86 c3 -45 2 -47 -25 -29 -29 19 -31 31 -8 56
20 22 31 14 33 -27z m-95 -13 c-3 -8 2 -12 13 -10 9 1 34 -8 55 -20 28 -18 37
-30 37 -52 0 -15 -6 -33 -14 -39 -11 -9 -18 -5 -36 23 -12 20 -42 53 -67 75
-32 27 -44 44 -40 55 6 16 9 16 32 -1 13 -10 22 -24 20 -31z m-1060 14 c51
-24 91 -57 119 -98 l16 -23 30 37 c17 20 56 49 88 65 47 23 70 28 127 27 85 0
140 -25 201 -90 l41 -43 50 48 c79 76 183 100 285 65 55 -18 117 -69 143 -118
18 -34 18 -37 2 -53 -16 -16 -18 -16 -32 2 -14 19 -14 19 -15 -8 0 -39 -14
-62 -52 -85 -31 -18 -46 -19 -200 -15 -122 4 -168 3 -168 -6 0 -15 -40 -14
-42 2 -1 6 -2 30 -3 53 -3 55 -13 94 -26 94 -7 0 -10 -23 -8 -66 l4 -65 -200
-2 c-184 -2 -200 -3 -199 -19 1 -10 -2 -18 -7 -18 -5 0 -9 6 -10 13 0 9 -2 9
-6 -1 -3 -7 2 -19 10 -25 10 -8 12 -18 7 -32 -5 -11 -9 -14 -9 -7 -1 7 -5 10
-11 7 -5 -3 -10 -5 -11 -3 0 2 -2 37 -5 78 -5 80 -19 136 -36 146 -7 4 -9 -16
-7 -62 l4 -69 -112 0 c-110 0 -112 0 -142 29 -29 28 -31 34 -31 107 0 43 -4
80 -8 83 -20 12 -52 -25 -52 -60 0 -19 -4 -34 -10 -34 -5 0 -10 9 -10 20 0 12
-5 17 -13 14 -8 -3 -20 3 -28 12 -12 15 -9 21 29 55 81 71 203 90 297 45z
m-225 -132 c0 -49 -2 -55 -15 -44 -18 15 -20 71 -3 88 7 7 13 12 15 12 2 0 3
-25 3 -56z m294 -185 c6 -5 5 -22 -1 -44 -10 -30 -9 -35 5 -35 8 0 12 -3 9 -7
-4 -3 -2 -12 4 -19 7 -8 6 -14 -2 -19 -12 -8 -120 63 -126 82 -3 7 6 14 19 16
17 3 15 4 -7 4 -30 -1 -75 18 -75 31 0 10 163 2 174 -9z m394 4 l82 -6 0 -28
c0 -25 -4 -29 -27 -30 l-28 0 25 -10 c20 -8 22 -12 10 -19 -11 -7 -8 -10 15
-10 20 0 26 -3 17 -9 -9 -6 -3 -10 22 -14 47 -8 76 1 76 24 0 13 8 19 23 20
14 1 16 3 6 6 -10 2 -16 16 -17 39 l-1 36 118 -3 c66 -2 128 -6 138 -10 10 -4
13 -8 7 -8 -6 -1 -24 -12 -40 -26 -16 -14 -41 -29 -56 -32 -15 -3 -26 -9 -23
-13 8 -13 -42 -40 -77 -41 -29 -1 -30 -2 -9 -8 23 -6 22 -7 -15 -26 -21 -11
-45 -26 -52 -33 -22 -20 -233 -120 -267 -127 l-30 -5 30 15 30 15 -45 -6 c-33
-4 -50 -1 -65 11 -19 15 -16 16 45 11 51 -4 59 -3 35 4 -16 6 -52 9 -78 8 -35
-1 -52 3 -65 16 -16 18 -14 18 58 13 l75 -5 -48 13 c-33 9 -58 10 -80 4 -29
-8 -39 -4 -100 37 -37 26 -66 48 -64 51 2 2 24 7 48 12 37 8 41 10 22 16 -35
11 -28 28 7 21 21 -4 29 -2 24 5 -4 6 0 15 7 20 10 6 11 9 2 9 -8 0 -13 14
-13 35 l0 35 98 0 c53 0 134 -3 180 -7z m147 -13 c-3 -5 -2 -10 4 -10 5 0 11
6 14 13 3 6 4 2 4 -10 -2 -30 -43 -33 -43 -3 0 11 6 20 14 20 7 0 10 -4 7 -10z"/>
<path d="M1545 2689 c-6 -13 -28 -28 -53 -36 -24 -8 -58 -23 -75 -33 -23 -14
-34 -16 -44 -8 -21 17 -76 -39 -68 -69 3 -13 -3 -39 -14 -61 -11 -21 -23 -55
-27 -76 -4 -25 -13 -40 -25 -43 -29 -8 -28 -98 1 -106 11 -3 20 -14 20 -24 0
-11 14 -48 31 -82 23 -45 28 -65 20 -75 -16 -19 50 -80 77 -71 13 3 36 -2 59
-13 21 -11 53 -23 72 -27 20 -4 35 -14 38 -26 8 -28 103 -28 110 0 3 12 17 21
36 25 18 3 54 18 81 32 38 20 54 24 67 16 24 -15 88 50 70 71 -9 11 -6 24 13
58 14 24 28 61 32 83 4 25 13 40 25 43 29 8 28 98 -1 106 -11 3 -20 13 -20 24
0 10 -14 44 -30 77 -19 37 -28 67 -24 81 4 16 -3 29 -26 49 -34 28 -45 32 -55
17 -3 -6 -28 1 -58 14 -28 14 -66 28 -84 31 -19 4 -33 13 -36 25 -4 15 -14 19
-54 19 -39 0 -50 -4 -58 -21z m177 -86 c61 -19 141 -91 176 -157 37 -70 38
-186 2 -261 -98 -202 -374 -244 -519 -78 -134 151 -93 391 82 479 85 43 161
48 259 17z"/>
<path d="M1543 2564 c-3 -9 -1 -19 5 -23 16 -10 20 -435 3 -454 -10 -13 -9
-17 9 -27 33 -18 81 6 50 25 -13 8 -13 452 1 460 5 4 9 13 9 21 0 21 -69 19
-77 -2z"/>
<path d="M1640 2561 c0 -12 7 -21 15 -21 13 0 15 -33 15 -240 0 -132 2 -240 4
-240 2 0 11 3 20 6 14 5 16 35 16 230 0 222 0 225 20 214 17 -9 20 -8 20 10 0
20 -24 35 -87 54 -19 6 -23 3 -23 -13z"/>
<path d="M1487 2553 c-4 -3 -7 -52 -7 -109 0 -145 -10 -159 -35 -50 -11 49
-25 91 -32 93 -18 6 -53 -61 -65 -124 -9 -48 -8 -69 6 -115 18 -64 63 -125 79
-109 7 7 0 29 -21 70 -21 38 -32 73 -32 99 0 49 10 102 20 102 3 0 24 -74 46
-165 21 -91 45 -167 51 -170 10 -3 13 48 13 240 0 224 -3 258 -23 238z"/>
<path d="M1758 2316 c-2 -166 0 -216 9 -216 15 0 22 27 25 100 l3 55 20 -33
c11 -18 24 -31 30 -29 21 7 15 36 -16 80 l-32 45 31 54 c28 50 32 78 11 78 -5
0 -15 -11 -21 -25 -18 -40 -28 -29 -28 29 0 35 -5 58 -15 66 -12 10 -15 -16
-17 -204z"/>
<path d="M2529 2640 c-131 -12 -226 -56 -287 -132 -83 -105 -63 -269 45 -369
24 -22 43 -41 43 -43 0 -2 -13 -9 -30 -16 -42 -17 -98 -82 -105 -123 -8 -43
12 -84 54 -112 17 -11 31 -23 31 -26 0 -32 -209 -49 -615 -52 -434 -3 -594 16
-644 77 -12 15 -11 20 11 44 14 15 31 37 37 49 28 54 0 124 -62 158 -21 11
-37 22 -37 26 0 4 15 18 34 33 51 39 80 105 73 171 -11 105 -80 190 -202 251
-167 82 -430 68 -510 -28 -30 -36 -31 -62 -5 -123 11 -26 20 -53 20 -62 0 -8
8 -31 17 -50 29 -62 99 -74 168 -29 29 19 42 71 24 92 -10 13 -10 17 2 25 19
12 43 11 141 -6 102 -17 167 -45 219 -92 50 -45 54 -96 12 -143 -27 -30 -30
-31 -73 -21 -132 29 -326 22 -447 -15 -78 -25 -87 -38 -78 -129 10 -108 20
-118 131 -123 78 -4 98 -1 164 23 41 15 96 29 122 32 56 6 137 -18 164 -48 18
-20 18 -21 -1 -35 -10 -8 -21 -14 -25 -14 -12 0 -40 -59 -40 -87 0 -98 106
-150 399 -195 127 -20 183 -23 421 -22 217 0 294 4 365 17 156 30 221 54 265
96 51 49 54 89 9 150 -16 23 -29 50 -27 58 5 24 70 54 131 60 46 5 63 1 118
-25 74 -36 180 -58 231 -48 58 11 65 24 84 168 6 46 6 46 -34 67 -23 12 -70
28 -104 36 -69 16 -256 19 -327 6 -41 -8 -46 -7 -83 27 -48 44 -68 80 -68 126
0 80 92 126 270 133 63 3 131 1 150 -4 35 -9 35 -10 35 -64 0 -52 1 -55 35
-71 43 -22 72 -23 110 -3 35 18 45 48 36 108 -4 26 0 61 9 90 17 58 9 86 -37
120 -45 32 -105 55 -170 62 -29 3 -62 7 -73 9 -11 1 -54 0 -96 -4z m273 -53
c31 -14 64 -37 73 -51 16 -24 16 -34 4 -101 -12 -71 -20 -87 -33 -66 -3 5 -38
17 -78 27 -55 14 -107 19 -213 18 -134 0 -143 -2 -206 -31 -40 -19 -77 -44
-97 -68 -21 -27 -33 -34 -36 -24 -13 42 -13 65 -2 109 27 105 97 167 226 203
100 27 285 19 362 -16z m-1989 -10 c185 -67 285 -212 231 -335 l-17 -37 -13
44 c-17 54 -40 80 -102 114 -131 71 -354 84 -465 27 -35 -19 -38 -19 -43 -3
-3 10 -15 39 -26 64 -23 53 -17 74 29 104 92 61 272 70 406 22z m-293 -212 c0
-18 -5 -25 -19 -25 -26 0 -36 17 -21 35 19 23 40 18 40 -10z m50 -26 c0 -34
-32 -59 -76 -59 -41 0 -80 30 -70 55 6 17 8 17 22 -3 15 -22 54 -29 88 -16 13
5 15 14 10 43 -7 33 -6 35 9 22 10 -7 17 -26 17 -42z m2226 31 c27 0 14 -18
-16 -22 -35 -5 -41 -2 -33 19 3 8 12 12 20 9 8 -3 21 -6 29 -6z m67 -77 c-12
-32 -89 -37 -114 -7 -19 23 0 37 43 31 30 -4 41 -1 45 10 5 14 8 14 19 -2 7
-9 10 -24 7 -32z m-2030 -163 c89 -13 160 -44 197 -87 34 -38 36 -58 16 -108
-19 -44 -51 -62 -75 -41 -66 60 -320 79 -543 40 -36 -6 -38 -5 -38 19 0 14 -5
38 -11 53 -27 71 19 99 211 128 51 7 177 5 243 -4z m1962 -65 c54 -27 60 -33
59 -60 -3 -56 -20 -130 -30 -128 -5 1 -34 11 -64 22 -30 10 -94 24 -141 30
-112 13 -204 0 -287 -40 -70 -34 -84 -31 -107 26 -22 50 13 108 88 147 61 30
111 37 272 35 145 -2 152 -3 210 -32z m-1653 -290 c125 -24 365 -35 602 -30
287 8 480 22 522 40 32 13 36 13 54 -7 66 -71 13 -146 -132 -187 -128 -37
-234 -46 -518 -46 -254 1 -286 3 -420 27 -197 37 -276 62 -317 103 -51 51 -46
109 14 150 l35 23 41 -29 c28 -20 67 -34 119 -44z"/>
<path d="M2519 2549 c-15 -15 -15 -18 3 -33 10 -9 16 -21 13 -26 -11 -17 -25
-11 -37 15 -13 28 -43 33 -52 9 -3 -8 -2 -24 4 -34 8 -15 20 -18 70 -16 72 3
88 15 72 51 -11 25 -32 34 -32 15 0 -5 4 -10 9 -10 12 0 22 -28 13 -34 -15 -9
-35 13 -41 46 -6 31 -7 32 -22 17z m-34 -57 c0 -18 -20 -15 -23 4 -3 10 1 15
10 12 7 -3 13 -10 13 -16z"/>
<path d="M2670 2560 c0 -5 -8 -10 -18 -10 -14 0 -19 -9 -20 -41 -3 -37 -1 -40
20 -37 20 3 23 9 24 51 1 26 0 47 -2 47 -2 0 -4 -4 -4 -10z m-10 -65 c0 -8 -4
-15 -10 -15 -5 0 -10 7 -10 15 0 8 5 15 10 15 6 0 10 -7 10 -15z"/>
<path d="M2764 2538 c-5 -8 -2 -9 9 -5 10 4 17 2 17 -5 0 -7 -15 -9 -42 -5
l-43 6 32 -14 c37 -17 49 -33 35 -47 -7 -7 -17 -4 -33 11 -24 22 -46 15 -36
-12 7 -19 59 -29 74 -14 6 7 14 31 18 55 5 34 4 42 -9 42 -8 0 -18 -5 -22 -12z"/>
<path d="M2325 2505 c-24 -8 -32 -13 -20 -14 16 -1 17 -3 6 -10 -12 -8 -12
-13 2 -35 11 -16 23 -23 32 -20 18 7 20 64 3 65 -7 0 -3 5 9 11 17 8 26 8 38
-2 17 -14 21 -50 5 -50 -5 0 -7 7 -4 15 4 8 1 15 -5 15 -6 0 -11 -9 -11 -20 0
-24 22 -26 40 -5 10 12 9 20 -4 40 -18 28 -33 29 -91 10z m25 -56 c0 -5 -4 -9
-10 -9 -5 0 -10 7 -10 16 0 8 5 12 10 9 6 -3 10 -10 10 -16z"/>
<path d="M2804 2474 c-4 -15 -2 -30 6 -37 10 -9 11 -7 6 9 -5 16 -2 23 15 27
11 3 18 10 14 16 -12 20 -35 11 -41 -15z"/>
<path d="M542 2548 c-30 -30 -4 -94 34 -86 30 6 41 35 24 66 -18 30 -40 38
-58 20z m46 -41 c3 -23 0 -28 -15 -25 -11 2 -19 14 -21 31 -3 23 0 28 15 25
11 -2 19 -14 21 -31z"/>
<path d="M630 2515 c0 -25 5 -45 10 -45 6 0 10 7 10 15 0 8 4 15 9 15 5 0 11
-7 15 -15 3 -8 10 -15 16 -15 7 0 8 6 1 18 -7 13 -7 22 1 30 18 18 1 42 -32
42 -29 0 -30 -2 -30 -45z m41 12 c-13 -13 -26 -3 -16 12 3 6 11 8 17 5 6 -4 6
-10 -1 -17z"/>
<path d="M727 2530 c-4 -14 -7 -36 -7 -49 0 -24 0 -24 15 -5 14 19 15 19 21
-3 9 -34 24 -28 18 7 -4 18 -1 36 6 45 8 9 9 15 2 15 -6 0 -14 -4 -17 -10 -10
-16 -23 -12 -27 8 -3 13 -5 11 -11 -8z"/>
<path d="M491 2515 l-1 -29 -16 22 c-22 32 -37 28 -30 -10 6 -33 6 -33 -10
-10 -27 37 -36 25 -11 -15 27 -43 43 -45 39 -5 l-3 27 20 -22 c10 -13 22 -23
25 -23 9 0 6 52 -4 75 -7 17 -9 16 -9 -10z"/>
<path d="M857 2475 c-19 -41 -20 -45 -9 -45 7 0 42 63 42 75 0 17 -19 -1 -33
-30z"/>
<path d="M911 2476 c-9 -11 -9 -19 1 -35 16 -26 1 -42 -18 -17 -14 19 -14 19
-14 -1 0 -22 31 -40 50 -28 14 8 13 38 -2 53 -17 17 -2 28 17 12 12 -10 15
-10 15 3 0 8 -7 18 -16 21 -21 8 -20 8 -33 -8z"/>
<path d="M542 2078 c-18 -18 -15 -75 4 -82 29 -11 44 -6 56 19 9 19 8 29 -6
50 -18 27 -35 32 -54 13z m43 -38 c0 -16 -6 -26 -18 -28 -19 -4 -32 20 -23 44
9 25 41 13 41 -16z"/>
<path d="M625 2078 c-3 -8 -1 -32 4 -53 5 -24 9 -31 10 -17 1 26 13 28 31 7
15 -17 35 -20 24 -4 -4 7 -7 26 -8 43 -1 26 -5 32 -29 34 -16 2 -29 -2 -32
-10z m45 -19 c0 -5 -7 -9 -15 -9 -15 0 -20 12 -9 23 8 8 24 -1 24 -14z"/>
<path d="M724 2075 c-5 -11 3 -25 22 -42 l29 -24 -28 6 c-21 4 -28 2 -25 -7 3
-7 15 -13 29 -13 33 0 38 33 8 58 l-24 19 23 -5 c15 -4 22 -1 19 6 -6 19 -46
20 -53 2z"/>
<path d="M810 2051 c0 -16 -3 -36 -6 -45 -3 -9 -2 -16 4 -16 5 0 12 9 15 20 7
26 37 16 38 -14 1 -19 2 -19 9 4 12 36 12 70 0 70 -5 0 -10 -7 -10 -15 0 -8
-7 -15 -15 -15 -8 0 -15 9 -15 20 0 11 -4 20 -10 20 -5 0 -10 -13 -10 -29z"/>
<path d="M447 2063 c-4 -3 -7 -18 -8 -32 0 -26 0 -26 -11 -3 -19 38 -27 24
-11 -18 20 -49 43 -53 43 -7 l1 32 15 -27 c21 -41 34 -34 34 17 0 25 -4 45
-10 45 -5 0 -10 -12 -10 -27 l-1 -28 -15 28 c-16 29 -17 30 -27 20z"/>
<path d="M896 2029 c-8 -44 -8 -61 3 -55 10 7 20 86 10 86 -4 0 -9 -14 -13
-31z"/>
<path d="M931 2009 c-12 -40 -8 -69 5 -35 4 10 17 16 35 16 24 0 29 4 29 24 0
23 -16 36 -44 36 -7 0 -18 -18 -25 -41z m49 6 c0 -8 -4 -15 -9 -15 -13 0 -22
16 -14 24 11 11 23 6 23 -9z"/>
<path d="M2347 2054 c-12 -13 -7 -24 11 -24 13 -1 11 -4 -8 -15 -15 -9 -19
-14 -10 -15 12 0 12 -2 2 -9 -11 -7 -12 -12 -1 -29 10 -15 23 -20 56 -19 24 0
46 4 48 8 7 10 -5 39 -17 39 -5 0 -6 -5 -2 -11 4 -7 1 -10 -7 -7 -8 3 -13 13
-11 23 3 12 -1 16 -12 12 -11 -4 -14 1 -13 21 2 26 -20 41 -36 26z m43 -84 c0
-5 -7 -10 -15 -10 -8 0 -15 5 -15 10 0 6 7 10 15 10 8 0 15 -4 15 -10z"/>
<path d="M2746 2052 c-5 -8 -19 -10 -43 -6 -33 6 -34 6 -22 -14 10 -16 20 -20
39 -15 32 7 43 18 38 34 -3 10 -6 10 -12 1z"/>
<path d="M2464 2036 c-3 -8 -4 -22 -2 -32 9 -49 90 -41 96 9 4 29 28 37 50 15
18 -18 15 -27 -8 -21 -14 4 -20 0 -20 -10 0 -20 14 -29 35 -21 11 5 15 16 13
38 -3 30 -5 31 -55 34 -32 2 -53 -1 -53 -7 0 -6 5 -11 10 -11 13 0 13 -23 -1
-37 -14 -14 -46 -6 -53 13 -4 10 0 14 12 12 23 -4 22 26 -1 30 -9 2 -20 -3
-23 -12z"/>
<path d="M2730 1997 c0 -14 -3 -15 -19 -6 -20 13 -51 6 -51 -12 0 -6 7 -8 16
-5 9 4 25 0 34 -9 15 -14 19 -14 29 -1 9 11 10 20 2 33 -10 17 -10 17 -11 0z"/>
<path d="M1020 1747 l35 -11 -35 -5 c-34 -6 -48 -30 -22 -39 8 -2 10 2 6 13
-5 13 -2 16 17 13 16 -2 24 -9 23 -21 -3 -26 15 -20 22 8 5 19 13 25 33 25 14
0 33 -5 41 -11 12 -8 9 -10 -12 -6 -15 2 -32 1 -39 -4 -13 -8 -5 -39 10 -39 6
0 8 7 5 15 -4 10 0 15 14 15 11 0 22 -7 26 -15 8 -22 25 -18 19 5 -4 15 0 20
16 20 23 0 28 -19 9 -38 -7 -7 -8 -12 -4 -12 5 0 3 -7 -4 -15 -12 -14 -6 -35
10 -35 5 0 7 8 3 18 -6 15 -4 15 15 -2 12 -11 22 -14 22 -8 0 6 -4 14 -10 17
-16 10 -12 55 5 61 21 8 85 -5 85 -17 0 -6 -9 -8 -20 -4 -15 5 -20 2 -20 -11
0 -16 -1 -16 -20 1 -17 16 -20 16 -20 2 0 -20 38 -33 53 -18 17 17 25 13 30
-11 3 -20 5 -19 12 10 10 41 25 42 25 1 0 -17 4 -28 10 -24 6 3 10 15 10 25 0
10 6 20 13 23 19 7 0 12 -191 51 -171 35 -241 45 -172 23z"/>
<path d="M2135 1715 c-115 -28 -182 -31 -209 -10 -28 21 -63 19 -76 -6 -10
-18 -20 -20 -93 -19 -159 3 -312 -2 -282 -9 25 -6 30 -11 27 -34 -1 -15 2 -27
8 -27 5 0 11 7 11 15 1 8 2 21 3 28 1 15 96 23 96 8 0 -6 -7 -11 -15 -11 -8 0
-15 -7 -15 -15 0 -8 9 -15 20 -15 11 0 20 5 20 10 0 6 7 10 15 10 8 0 15 -7
15 -15 0 -8 5 -15 10 -15 6 0 10 14 10 31 0 29 1 30 42 27 31 -2 44 -8 46 -21
2 -9 -4 -20 -13 -23 -21 -9 -33 5 -15 16 12 8 10 10 -8 10 -17 0 -23 -5 -20
-17 2 -13 14 -18 41 -20 35 -1 37 1 37 28 0 16 5 29 10 29 6 0 10 -13 10 -30
0 -16 5 -30 10 -30 6 0 10 14 10 30 0 40 15 38 26 -2 l8 -33 3 33 c4 26 9 32
29 32 13 0 24 -4 24 -10 0 -5 -7 -10 -17 -10 -14 0 -14 -2 2 -20 20 -22 44
-28 26 -7 -8 10 -6 19 10 35 20 22 49 30 49 13 0 -5 -9 -11 -21 -14 -31 -8
-18 -32 21 -35 30 -3 32 -2 26 22 -7 30 -2 33 55 42 30 5 41 3 34 -4 -5 -6
-21 -12 -35 -14 -30 -4 -34 -32 -5 -35 11 -2 14 0 8 3 -21 9 -15 27 7 21 10
-3 21 0 23 7 3 7 11 3 22 -9 16 -19 16 -19 11 12 -4 22 -1 33 10 37 28 11 39
6 20 -9 -19 -15 -14 -35 9 -35 8 0 19 8 24 18 10 16 12 16 26 -2 14 -19 15
-17 13 22 -1 23 -2 42 -2 41 -1 0 -46 -11 -101 -24z m-225 -15 c12 -8 9 -10
-12 -10 -16 0 -28 5 -28 10 0 13 20 13 40 0z m85 -60 c-3 -5 -10 -10 -16 -10
-5 0 -9 5 -9 10 0 6 7 10 16 10 8 0 12 -4 9 -10z"/>
<path d="M1660 1709 c0 -5 5 -7 10 -4 6 3 10 8 10 11 0 2 -4 4 -10 4 -5 0 -10
-5 -10 -11z"/>
<path d="M1461 1646 c-9 -10 -7 -17 6 -27 15 -12 16 -12 11 2 -4 9 -1 22 5 28
8 8 8 11 0 11 -6 0 -16 -6 -22 -14z"/>
<path d="M1553 1649 c3 -9 0 -22 -6 -28 -8 -8 -8 -11 1 -11 19 0 27 30 12 43
-10 9 -12 9 -7 -4z"/>
<path d="M2220 1635 c7 -8 16 -15 21 -15 5 0 6 7 3 15 -4 8 -13 15 -21 15 -13
0 -13 -3 -3 -15z"/>
<path d="M2810 1780 c-8 -5 -10 -10 -5 -10 6 0 17 5 25 10 8 5 11 10 5 10 -5
0 -17 -5 -25 -10z"/>
<path d="M2760 1760 c-8 -5 -10 -10 -5 -10 6 0 17 5 25 10 8 5 11 10 5 10 -5
0 -17 -5 -25 -10z"/>
<path d="M2710 1740 c-8 -5 -10 -10 -5 -10 6 0 17 5 25 10 8 5 11 10 5 10 -5
0 -17 -5 -25 -10z"/>
<path d="M2660 1720 c-8 -5 -10 -10 -5 -10 6 0 17 5 25 10 8 5 11 10 5 10 -5
0 -17 -5 -25 -10z"/>
<path d="M2537 1673 c-48 -19 -86 -37 -84 -39 3 -4 177 62 185 71 12 11 -18 2
-101 -32z"/>
<path d="M2400 1615 c-14 -8 -20 -14 -15 -14 6 0 21 6 35 14 14 8 21 14 15 14
-5 0 -21 -6 -35 -14z"/>
<path d="M2340 1590 c-8 -5 -10 -10 -5 -10 6 0 17 5 25 10 8 5 11 10 5 10 -5
0 -17 -5 -25 -10z"/>
<path d="M870 1553 c-36 -9 -90 -15 -120 -13 -137 6 -157 3 -132 -22 19 -19
14 -27 -28 -38 -22 -6 -40 -15 -40 -20 0 -10 88 -30 133 -30 18 0 75 -21 132
-49 55 -28 127 -59 160 -70 44 -14 60 -24 60 -38 0 -14 9 -19 48 -21 38 -2 58
3 93 23 24 14 44 32 44 40 0 7 3 20 6 28 9 23 -81 28 -95 5 -7 -11 -18 -15
-28 -11 -28 9 -193 107 -193 114 0 3 17 11 38 17 45 14 142 69 142 81 0 25
-124 27 -220 4z m190 -7 c0 -10 -77 -50 -137 -71 l-66 -23 41 -21 c29 -15 40
-26 36 -36 -4 -8 -2 -15 4 -15 6 0 12 5 14 12 3 8 12 4 26 -10 12 -12 22 -19
22 -14 0 4 4 3 8 -3 4 -5 21 -17 37 -25 36 -19 31 -36 -9 -32 -71 6 -302 125
-384 198 l-27 23 41 1 c32 0 45 -5 56 -22 13 -20 15 -20 39 -5 38 25 135 45
222 46 42 1 77 -1 77 -3z m-380 -86 c23 -18 23 -20 5 -20 -37 0 -95 13 -95 21
0 8 23 16 50 18 8 0 26 -8 40 -19z m524 -119 c3 -5 -14 -16 -39 -24 -46 -16
-77 -5 -33 12 13 4 30 11 38 14 22 8 28 8 34 -2z"/>
<path d="M850 1431 c0 -10 30 -24 37 -17 3 2 -5 9 -16 16 -12 6 -21 7 -21 1z"/>
<path d="M1771 1370 c-18 -15 -19 -20 -7 -20 12 0 16 -9 16 -35 0 -34 -13 -47
-23 -22 -4 10 -6 10 -6 0 -1 -9 -18 -13 -53 -12 -45 1 -49 2 -23 9 30 8 30 8
3 9 -15 0 -34 8 -42 17 -22 21 -70 6 -74 -24 -4 -26 -11 -28 -26 -6 -16 22
-66 2 -66 -26 0 -15 -11 -26 -35 -36 -19 -8 -35 -21 -35 -29 0 -9 -7 -18 -16
-22 -8 -3 -20 -16 -25 -29 -11 -30 -36 -31 -42 -1 -3 16 -5 14 -6 -10 -1 -22
-7 -34 -21 -38 -14 -4 -19 -14 -17 -36 2 -30 2 -30 47 -24 25 4 52 10 60 15 8
4 66 6 128 4 65 -2 111 0 107 5 -8 14 45 23 154 26 53 2 107 8 121 13 14 6 20
11 13 11 -6 1 -19 4 -29 8 -12 4 -15 3 -10 -5 5 -8 -1 -12 -18 -12 -14 0 -26
1 -26 3 0 2 11 37 25 77 14 40 25 78 25 83 0 5 -17 7 -37 5 l-38 -3 0 63 c0
34 0 62 0 62 0 -1 -11 -10 -24 -20z m-200 -116 c-40 -19 -76 -33 -79 -29 -7 7
-5 9 68 38 92 37 98 32 11 -9z m-51 16 c0 -5 -4 -10 -10 -10 -5 0 -10 5 -10
10 0 6 5 10 10 10 6 0 10 -4 10 -10z m195 -10 c5 -9 -16 -14 -52 -13 -7 1 -13
-3 -13 -8 0 -5 -5 -9 -11 -9 -6 0 -9 6 -7 13 4 10 26 18 70 26 4 0 10 -3 13
-9z m45 6 c0 -11 -19 -15 -25 -6 -3 5 1 10 9 10 9 0 16 -2 16 -4z m100 -10 c0
-3 -4 -16 -10 -30 -7 -20 -17 -26 -39 -26 -46 0 -245 -45 -376 -85 -157 -49
-162 -50 -150 -37 41 43 575 208 575 178z m-240 -22 c0 -10 -6 -14 -15 -10 -8
3 -15 1 -15 -5 0 -5 -6 -9 -12 -8 -7 1 -20 -1 -28 -4 -62 -26 -180 -64 -180
-59 0 8 217 100 238 101 6 1 12 -6 12 -15z m-140 -12 c0 -9 -62 -34 -68 -27
-3 3 41 26 66 34 1 1 2 -3 2 -7z"/>
<path d="M3158 2773 c-3 -27 -6 -28 -60 -31 -82 -4 -72 -22 12 -22 l70 0 0 40
c0 45 -17 55 -22 13z"/>
<path d="M85 2771 c6 -5 28 -11 50 -13 l40 -3 -45 -25 c-24 -14 -44 -29 -45
-35 0 -5 28 -11 63 -13 69 -3 88 15 20 20 l-43 3 44 25 c24 14 45 30 45 35 1
6 -30 11 -69 13 -46 2 -67 0 -60 -7z"/>
<path d="M3110 2660 c-88 -22 -90 -40 -8 -73 41 -16 64 -21 67 -14 2 6 -1 13
-7 15 -18 6 -14 50 4 60 37 21 6 28 -56 12z m12 -42 c-9 -9 -15 -9 -24 0 -9 9
-7 12 12 12 19 0 21 -3 12 -12z"/>
<path d="M85 2640 c-4 -6 1 -13 9 -16 21 -8 20 -43 -1 -66 -15 -17 -15 -18 3
-17 37 1 119 36 119 50 0 17 -122 63 -130 49z m80 -50 c-3 -5 -13 -10 -21 -10
-8 0 -14 5 -14 10 0 6 9 10 21 10 11 0 17 -4 14 -10z"/>
<path d="M197 2510 c-4 -17 -14 -20 -56 -20 -28 0 -51 -4 -51 -10 0 -5 25 -10
55 -10 41 0 55 -4 55 -14 0 -8 5 -18 10 -21 6 -4 10 13 10 44 0 51 -13 69 -23
31z"/>
<path d="M3030 2523 c0 -4 12 -20 27 -35 l27 -28 -27 0 c-30 0 -36 -14 -11
-24 26 -10 114 -7 114 4 0 6 -9 10 -19 10 -23 0 -40 22 -23 28 22 7 57 40 50
47 -4 4 -23 -3 -43 -15 l-36 -22 -23 21 c-23 21 -36 27 -36 14z"/>
<path d="M133 2403 c-24 -2 -43 -8 -43 -14 0 -10 72 -12 108 -3 12 4 22 10 22
15 0 9 -6 9 -87 2z"/>
<path d="M3024 2382 c4 -7 16 -12 27 -12 16 0 20 -6 17 -27 -2 -21 -8 -28 -25
-28 -47 -1 -25 -20 31 -28 64 -9 102 6 47 18 -24 5 -31 12 -31 31 0 21 5 24
37 24 59 0 26 19 -47 27 -47 4 -61 3 -56 -5z"/>
<path d="M116 2331 c-25 -27 -17 -72 15 -90 33 -18 74 -8 95 24 13 21 14 28 2
52 -11 23 -21 29 -54 31 -30 2 -45 -2 -58 -17z m87 -22 c16 -25 1 -49 -31 -49
-50 0 -71 43 -29 60 29 12 48 9 60 -11z"/>
<path d="M3006 2244 c-9 -24 -7 -84 3 -84 5 0 11 9 14 20 4 17 11 19 56 13 69
-8 68 13 -1 24 -42 7 -52 12 -50 26 4 21 -14 22 -22 1z"/>
<path d="M163 2203 c-66 -5 -70 -23 -5 -23 l47 0 -47 -31 c-26 -17 -45 -35
-42 -40 6 -10 77 -12 111 -3 37 10 16 23 -27 17 -22 -3 -40 -3 -40 1 0 3 18
18 40 32 22 15 39 32 37 37 -4 13 -10 14 -74 10z"/>
<path d="M3050 2126 c-34 -7 -56 -17 -58 -26 -4 -21 106 -76 121 -61 7 7 5 12
-6 17 -21 8 -22 43 -3 50 18 7 29 34 13 33 -7 -1 -37 -6 -67 -13z m20 -36 c0
-5 -6 -10 -14 -10 -8 0 -18 5 -21 10 -3 6 3 10 14 10 12 0 21 -4 21 -10z"/>
<path d="M120 2044 c0 -8 6 -14 14 -14 18 0 28 -40 14 -57 -22 -27 2 -24 57 7
60 35 65 50 19 61 -72 17 -104 18 -104 3z m85 -34 c-3 -5 -10 -10 -16 -10 -5
0 -9 5 -9 10 0 6 7 10 16 10 8 0 12 -4 9 -10z"/>
<path d="M2991 2001 c-11 -7 -34 -81 -28 -88 6 -5 123 -20 130 -16 13 8 -3 23
-24 23 -34 0 -21 44 14 48 40 5 33 22 -9 22 -19 0 -43 4 -53 9 -9 5 -23 6 -30
2z m34 -47 c0 -10 -8 -20 -17 -22 -18 -3 -26 27 -11 42 12 11 28 0 28 -20z"/>
<path d="M225 1928 c-78 -16 -84 -18 -80 -31 2 -6 6 -24 9 -39 9 -39 27 -35
24 4 -3 31 -1 33 45 43 26 6 48 14 48 18 1 14 -4 14 -46 5z"/>
<path d="M2950 1862 c0 -6 17 -14 38 -17 62 -11 72 -16 72 -35 0 -25 -20 -30
-70 -19 -23 5 -45 8 -47 5 -12 -12 12 -25 59 -31 43 -6 54 -5 65 11 19 26 16
62 -7 74 -30 16 -110 25 -110 12z"/>
<path d="M228 1753 c-27 -8 -48 -18 -48 -24 0 -12 4 -12 72 7 32 9 58 21 58
25 0 12 -26 10 -82 -8z"/>
<path d="M2922 1718 c-17 -17 -15 -65 4 -72 30 -11 44 -6 59 24 17 33 32 38
42 13 4 -10 -2 -23 -17 -35 -25 -21 -19 -39 8 -22 26 17 38 60 22 78 -20 24
-47 19 -70 -14 -12 -16 -26 -30 -31 -30 -15 0 -10 40 6 46 8 4 15 10 15 15 0
13 -24 11 -38 -3z"/>
<path d="M258 1702 c-32 -8 -58 -19 -58 -24 0 -9 19 -7 75 9 15 4 10 -5 -17
-34 -35 -36 -48 -63 -31 -63 23 0 123 34 123 42 0 9 -20 7 -75 -9 -14 -4 -9 6
20 36 23 25 35 44 30 49 -6 5 -35 3 -67 -6z"/>
<path d="M307 1573 c-4 -3 -7 -24 -7 -45 0 -26 -4 -38 -14 -38 -18 0 -26 22
-19 52 6 21 5 22 -10 9 -9 -7 -17 -22 -17 -32 0 -28 36 -60 57 -52 26 10 32
22 26 61 -5 30 -3 34 13 30 14 -3 18 -11 17 -31 -2 -29 14 -37 24 -11 10 26
-14 64 -40 64 -13 0 -27 -3 -30 -7z"/>
<path d="M387 1474 c-3 -3 -3 -12 0 -20 4 -10 -11 -21 -46 -36 -64 -26 -54
-44 11 -20 46 16 48 16 62 -3 13 -17 15 -17 16 -4 0 16 -27 89 -33 89 -2 0 -6
-3 -10 -6z"/>
<path d="M2930 1430 c0 -5 9 -10 21 -10 11 0 17 5 14 10 -3 6 -13 10 -21 10
-8 0 -14 -4 -14 -10z"/>
<path d="M2800 1376 c0 -21 97 -99 106 -85 3 6 1 15 -7 19 -17 11 4 60 26 60
8 0 15 5 15 10 0 6 -30 10 -70 10 -53 0 -70 -3 -70 -14z m74 -15 c3 -4 3 -11
0 -14 -8 -8 -34 3 -34 14 0 11 27 12 34 0z"/>
<path d="M378 1334 c-27 -13 -48 -29 -48 -34 0 -6 2 -10 5 -10 13 0 115 55
115 62 0 14 -23 8 -72 -18z"/>
<path d="M455 1300 c5 -16 -2 -24 -39 -42 -25 -12 -46 -28 -46 -35 0 -9 13 -6
45 9 38 19 49 20 65 10 30 -19 31 -15 8 33 -22 45 -45 63 -33 25z"/>
<path d="M2764 1268 c4 -13 10 -31 13 -42 5 -16 3 -17 -15 -7 -14 7 -23 8 -27
1 -7 -12 103 -66 113 -55 4 3 -4 15 -18 25 -27 20 -25 22 33 34 46 11 32 28
-18 21 -41 -7 -45 -5 -56 19 -15 32 -34 35 -25 4z"/>
<path d="M457 1176 c-20 -11 -40 -29 -43 -39 -7 -22 21 -67 41 -67 20 0 105
42 105 52 0 13 -18 9 -61 -12 -43 -22 -59 -20 -59 10 0 13 14 27 40 40 22 11
40 25 40 30 0 15 -21 10 -63 -14z"/>
<path d="M2690 1127 c0 -14 80 -97 94 -97 4 0 4 9 1 20 -9 30 4 60 26 60 38 0
18 17 -27 24 -70 9 -94 7 -94 -7z m72 -29 c-11 -11 -32 -3 -32 12 0 4 9 6 21
3 13 -4 17 -9 11 -15z"/>
<path d="M575 1070 c5 -15 -3 -25 -34 -46 -38 -24 -52 -44 -33 -44 4 0 25 12
46 26 33 23 42 25 59 15 29 -18 29 -9 1 32 -26 40 -49 50 -39 17z"/>
<path d="M2632 1031 c-13 -23 -18 -42 -13 -45 5 -4 14 1 19 10 9 16 14 15 57
-10 45 -27 64 -29 50 -7 -3 6 -24 20 -46 32 -32 16 -39 24 -34 39 11 34 -10
22 -33 -19z"/>
<path d="M598 957 c-26 -18 -48 -36 -47 -42 0 -15 47 -70 54 -63 4 3 -1 18
-11 33 -13 20 -14 29 -5 38 10 9 16 7 31 -10 26 -33 47 -30 25 3 -26 40 -3 54
29 18 14 -16 26 -23 26 -16 0 14 -40 72 -49 71 -3 0 -27 -15 -53 -32z"/>
<path d="M2580 934 c0 -20 71 -115 81 -109 4 3 5 14 2 25 -7 25 13 50 40 50
33 0 8 16 -52 34 -68 20 -71 20 -71 0z m70 -36 c0 -13 -23 -5 -28 10 -2 7 2
10 12 6 9 -3 16 -11 16 -16z"/>
<path d="M2551 824 l34 -37 -29 7 c-76 18 -86 19 -86 3 0 -18 88 -92 98 -82 4
4 -8 20 -26 36 -17 16 -32 30 -32 32 0 2 22 -1 50 -7 27 -5 53 -7 57 -3 9 10
-67 87 -86 87 -10 0 -3 -13 20 -36z"/>
<path d="M717 810 c-35 -28 -42 -56 -23 -85 22 -33 68 -33 101 0 30 29 32 58
5 85 -25 25 -51 25 -83 0z m72 -24 c18 -22 -28 -71 -57 -62 -26 9 -28 32 -5
58 19 22 46 23 62 4z"/>
<path d="M2396 721 l-27 -28 51 -43 c50 -42 80 -49 45 -10 -17 19 -17 22 -3
36 13 13 20 14 38 4 12 -6 24 -9 27 -6 8 8 -17 36 -33 36 -7 0 -16 9 -19 20
-9 29 -46 25 -79 -9z m60 -2 c10 -17 -23 -46 -38 -31 -8 8 -8 15 2 27 15 18
26 19 36 4z"/>
<path d="M810 690 c-32 -28 -41 -43 -34 -50 8 -8 15 -6 24 5 16 19 29 19 52
-2 16 -14 18 -14 18 -1 0 9 -7 21 -15 28 -11 9 -13 16 -6 23 7 7 16 5 29 -6
33 -30 47 -19 17 13 -16 17 -31 30 -34 30 -3 -1 -26 -19 -51 -40z"/>
<path d="M2315 639 c-8 -12 34 -129 46 -129 5 0 9 11 9 25 0 27 24 45 51 38
36 -10 19 13 -35 45 -60 36 -62 36 -71 21z m53 -47 c6 -18 -15 -14 -22 4 -4
10 -1 14 6 12 6 -2 14 -10 16 -16z"/>
<path d="M1000 586 c0 -8 6 -16 12 -18 8 -3 1 -19 -20 -45 -45 -58 -39 -77 8
-25 30 34 44 42 60 37 32 -10 23 8 -20 38 -29 21 -40 24 -40 13z"/>
<path d="M2238 574 c-5 -4 -8 -23 -8 -42 0 -35 0 -35 -20 -17 -11 10 -23 15
-26 12 -7 -7 64 -97 77 -97 12 0 11 17 -1 25 -5 3 -10 13 -10 21 0 11 9 13 40
8 52 -8 54 11 3 23 -33 7 -39 13 -43 42 -3 18 -8 29 -12 25z"/>
<path d="M1066 474 c-21 -25 -35 -51 -33 -58 3 -8 19 -23 36 -35 24 -17 31
-19 31 -8 0 8 -9 21 -21 28 -14 10 -18 20 -13 32 6 16 8 17 31 2 13 -9 29 -15
36 -12 6 2 -1 12 -16 22 -21 14 -25 21 -16 31 9 11 16 10 37 -6 31 -25 42 -18
16 11 -38 42 -48 41 -88 -7z"/>
<path d="M2077 454 c-3 -4 -3 -20 0 -36 l6 -30 -31 16 c-18 9 -33 12 -37 6 -3
-5 12 -18 34 -30 22 -11 45 -29 51 -40 6 -11 16 -18 21 -14 6 4 4 15 -5 30 -9
13 -16 39 -16 58 0 34 -11 52 -23 40z"/>
<path d="M1193 420 c-46 -19 -58 -89 -19 -115 23 -16 56 -11 56 7 0 6 -7 7
-16 4 -38 -15 -58 38 -26 67 27 25 51 21 64 -10 l12 -28 4 25 c3 16 -3 30 -18
42 -25 20 -26 20 -57 8z"/>
<path d="M1926 354 c-22 -22 -20 -70 4 -94 28 -28 71 -26 98 5 19 21 20 28 10
45 -7 11 -16 20 -20 20 -16 0 -38 -13 -38 -22 0 -6 6 -8 14 -5 20 8 27 -3 15
-24 -21 -40 -84 -5 -77 43 2 17 10 24 31 26 15 2 27 8 27 13 0 15 -47 10 -64
-7z"/>
<path d="M1282 316 c-30 -42 -40 -66 -26 -66 3 0 14 10 23 22 16 19 20 20 39
6 20 -13 20 -16 6 -37 -17 -23 -13 -38 5 -26 6 3 24 26 41 50 31 45 27 70 -5
35 -17 -19 -20 -19 -36 -4 -14 12 -16 21 -9 35 26 48 0 38 -38 -15z"/>
<path d="M1804 292 c-22 -14 -34 -50 -25 -74 27 -71 124 -66 124 7 0 49 -63
92 -99 67z m57 -33 c41 -41 1 -92 -42 -53 -22 20 -25 44 -7 62 17 17 25 15 49
-9z"/>
<path d="M1398 237 c-30 -55 -33 -67 -20 -67 5 0 17 17 27 38 l20 37 5 -54 c3
-30 10 -56 15 -58 10 -3 65 86 65 106 0 22 -17 10 -35 -26 l-20 -38 -5 54 c-3
30 -9 56 -15 58 -5 1 -22 -21 -37 -50z"/>
<path d="M1667 223 c-3 -5 5 -33 17 -63 24 -58 29 -60 83 -39 13 5 22 13 18
19 -4 6 -15 6 -32 -1 -31 -11 -37 -7 -53 43 -12 39 -25 54 -33 41z"/>
<path d="M1548 210 c-25 -15 -33 -66 -14 -95 37 -56 106 -34 106 34 0 58 -45
88 -92 61z m57 -26 c30 -31 0 -86 -39 -71 -28 11 -15 87 15 87 4 0 15 -7 24
-16z"/>
<path d="M1030 869 c0 -17 3 -19 13 -10 22 17 27 3 27 -76 0 -57 -3 -73 -14
-73 -9 0 -16 13 -19 33 -4 31 -4 31 -5 -5 -2 -34 0 -38 23 -38 25 0 25 0 25
95 0 95 0 95 -25 95 -19 0 -25 -5 -25 -21z"/>
<path d="M1121 853 c1 -24 3 -29 6 -15 2 12 11 22 19 22 11 0 14 -17 14 -75 0
-58 -3 -75 -14 -75 -8 0 -17 12 -19 28 -4 25 -4 25 -6 -5 -1 -30 2 -33 29 -33
l30 0 0 89 c0 72 -3 90 -16 95 -35 13 -44 7 -43 -31z"/>
<path d="M1523 873 c-22 -8 -15 -32 7 -26 20 5 21 2 18 -68 -3 -63 -6 -74 -20
-73 -10 1 -18 -2 -18 -7 0 -5 11 -9 25 -9 25 0 25 0 25 95 0 96 -3 102 -37 88z"/>
<path d="M1600 865 c0 -8 7 -15 15 -15 12 0 15 -15 15 -76 0 -64 -2 -75 -15
-70 -8 3 -15 1 -15 -4 0 -6 11 -10 25 -10 25 0 25 1 25 89 0 72 -3 90 -16 95
-25 10 -34 7 -34 -9z"/>
<path d="M2007 863 c-15 -14 -6 -31 13 -26 19 5 20 0 20 -72 0 -72 -1 -77 -20
-72 -11 3 -20 1 -20 -5 0 -5 12 -8 28 -6 l27 3 1 93 c1 88 0 92 -21 92 -12 0
-25 -3 -28 -7z"/>
<path d="M2090 774 l0 -95 28 3 c27 3 27 4 30 83 2 66 0 82 -14 92 -38 28 -44
18 -44 -83z m40 -9 c0 -60 -3 -75 -15 -75 -12 0 -15 15 -15 75 0 60 3 75 15
75 12 0 15 -15 15 -75z"/>
<path d="M1200 780 c0 -79 0 -80 25 -80 24 0 25 2 25 70 0 58 -3 71 -19 80
-11 5 -22 10 -25 10 -3 0 -6 -36 -6 -80z m38 -18 c2 -42 0 -52 -12 -52 -13 0
-16 12 -16 56 0 73 24 70 28 -4z"/>
<path d="M1448 839 c-10 -5 -18 -17 -18 -26 0 -13 3 -13 15 -3 13 11 15 5 15
-49 0 -59 -14 -84 -23 -38 -4 19 -4 18 -6 -5 -1 -22 4 -28 19 -28 18 0 20 7
20 80 0 44 -1 80 -2 80 -2 0 -11 -5 -20 -11z"/>
<path d="M1680 770 c0 -78 1 -80 24 -80 23 0 24 4 28 66 3 57 0 68 -17 80 -11
8 -23 14 -27 14 -5 0 -8 -36 -8 -80z m38 -13 c2 -46 0 -57 -13 -57 -12 0 -15
13 -15 61 0 81 24 77 28 -4z"/>
<path d="M1927 822 c-12 -13 -17 -37 -17 -80 0 -59 1 -62 25 -62 25 0 25 1 25
80 0 44 -4 80 -8 80 -5 0 -16 -8 -25 -18z m21 -74 c-4 -69 -28 -79 -28 -10 0
27 3 52 7 55 17 17 24 3 21 -45z"/>
<path d="M2180 761 c0 -80 0 -81 25 -81 25 0 26 1 23 66 -3 56 -7 69 -25 82
l-23 14 0 -81z m38 5 c4 -36 -5 -76 -18 -76 -6 0 -10 25 -10 56 0 40 4 55 13
52 6 -3 13 -17 15 -32z"/>
<path d="M1121 794 c0 -11 3 -14 6 -6 3 7 2 16 -1 19 -3 4 -6 -2 -5 -13z"/>
<path d="M1382 768 c-18 -18 -16 -78 3 -78 11 0 15 12 15 45 0 49 -1 50 -18
33z m5 -50 c-3 -8 -6 -5 -6 6 -1 11 2 17 5 13 3 -3 4 -12 1 -19z"/>
<path d="M1431 764 c0 -11 3 -14 6 -6 3 7 2 16 -1 19 -3 4 -6 -2 -5 -13z"/>
<path d="M1851 728 c-12 -33 -2 -56 18 -44 13 9 15 76 2 76 -5 0 -14 -14 -20
-32z"/>
<path d="M1218 553 c6 -2 18 -2 25 0 6 3 1 5 -13 5 -14 0 -19 -2 -12 -5z"/>
<path d="M1528 573 c6 -2 18 -2 25 0 6 3 1 5 -13 5 -14 0 -19 -2 -12 -5z"/>
<path d="M1953 573 c9 -2 25 -2 35 0 9 3 1 5 -18 5 -19 0 -27 -2 -17 -5z"/>
<path d="M1633 563 c9 -2 23 -2 30 0 6 3 -1 5 -18 5 -16 0 -22 -2 -12 -5z"/>
<path d="M2043 563 c9 -2 23 -2 30 0 6 3 -1 5 -18 5 -16 0 -22 -2 -12 -5z"/>
<path d="M1430 556 c0 -2 9 -6 20 -9 11 -3 18 -1 14 4 -5 9 -34 13 -34 5z"/>
<path d="M1910 550 c14 -4 36 -8 50 -8 22 0 22 1 -5 8 -16 4 -39 8 -50 8 -16
0 -15 -2 5 -8z"/>
<path d="M1518 543 c6 -2 18 -2 25 0 6 3 1 5 -13 5 -14 0 -19 -2 -12 -5z"/>
<path d="M1568 543 c6 -2 18 -2 25 0 6 3 1 5 -13 5 -14 0 -19 -2 -12 -5z"/>
<path d="M1470 510 c25 -5 61 -11 80 -14 l35 -5 -35 10 c-19 6 -55 12 -80 14
l-45 4 45 -9z"/>
<path d="M1648 493 c7 -3 16 -2 19 1 4 3 -2 6 -13 5 -11 0 -14 -3 -6 -6z"/>
<path d="M1470 478 c0 -4 14 -8 30 -8 17 0 30 2 30 4 0 2 -13 6 -30 8 -16 3
-30 1 -30 -4z"/>
<path d="M1558 463 c12 -2 32 -2 45 0 12 2 2 4 -23 4 -25 0 -35 -2 -22 -4z"/>
<path d="M1690 460 c-16 -6 -2 -7 38 -3 37 3 62 2 62 -4 0 -5 15 -7 33 -4 l32
5 -30 7 c-41 9 -105 9 -135 -1z"/>
<path d="M1380 440 c24 -8 137 -14 129 -6 -2 2 -38 6 -79 9 -44 3 -65 2 -50
-3z"/>
<path d="M1630 430 c14 -4 32 -8 40 -9 13 -1 13 0 0 9 -8 5 -26 9 -40 9 l-25
-1 25 -8z"/>
<path d="M1560 411 c8 -5 35 -12 60 -15 29 -4 38 -3 25 3 -30 12 -103 23 -85
12z"/>
<path d="M1743 413 c9 -2 23 -2 30 0 6 3 -1 5 -18 5 -16 0 -22 -2 -12 -5z"/>
<path d="M1371 406 c8 -8 88 -10 95 -3 4 4 -17 7 -46 7 -29 0 -51 -2 -49 -4z"/>
<path d="M1800 390 c-13 -8 -12 -10 3 -10 9 0 17 5 17 10 0 12 -1 12 -20 0z"/>
<path d="M1658 363 c12 -2 32 -2 45 0 12 2 2 4 -23 4 -25 0 -35 -2 -22 -4z"/>
</g>
</svg>
