<svg id="Layer_1" data-name="Layer 1" xmlns="http://www.w3.org/2000/svg" viewBox="0 0 661.62 177.63"><defs><style>.cls-1{fill:#3c494f;}.cls-2{fill:#00b39f;}.cls-3{fill:#00d3a9;}</style></defs><title>layer5-white-bg</title><polygon class="cls-1" points="61.12 41.72 42.36 41.72 42.36 135.5 131.26 135.5 131.26 116.75 61.12 116.75 61.12 41.72"/><polygon class="cls-1" points="178.2 41.72 140.69 135.5 162.08 135.5 187.58 69.86 205.75 116.75 174.58 116.75 167.58 135.5 234.47 135.5 196.95 41.72 178.2 41.72"/><polygon class="cls-1" points="260.94 74.55 237.5 41.72 214.05 41.72 251.56 97.99 251.56 135.5 270.32 135.5 270.32 97.99 307.83 41.72 284.68 41.72 260.94 74.55"/><polygon class="cls-1" points="315.92 56.49 315.92 60.48 315.92 79.23 315.92 102.11 315.92 135.5 404.82 135.5 404.82 116.75 334.68 116.75 334.68 102.11 334.68 97.99 388.57 97.99 388.57 79.23 334.68 79.23 334.68 60.48 404.82 60.48 404.82 41.72 315.92 41.72 315.92 56.49"/><path class="cls-1" d="M435.28,59.6h48.11V79.11H440.48L440.66,97h12.87l34,38.51h23.15L476.68,97H490a14.56,14.56,0,0,0,14.57-14.56V56.29A14.57,14.57,0,0,0,490,41.72h-73V135.5h18.76Z"/><rect id="_Path_" data-name="&lt;Path&gt;" class="cls-2" x="578.97" y="42.12" width="36.93" height="17.79"/><path id="_Path_2" data-name="&lt;Path&gt;" class="cls-2" d="M619.26,102.05V94.68c0-8.49-7.14-15.37-16-15.37H543.72V74.46H521.9v21h75.54v6.57Z"/><polygon id="_Path_3" data-name="&lt;Path&gt;" class="cls-3" points="543.72 68.65 543.72 59.91 572.94 59.91 572.94 42.12 521.9 42.12 521.9 68.65 543.72 68.65"/><path id="_Path_4" data-name="&lt;Path&gt;" class="cls-3" d="M597.44,107.77v10.35H568.22v17.79h36a14.77,14.77,0,0,0,15-14.49V107.77Z"/><path id="_Path_5" data-name="&lt;Path&gt;" class="cls-2" d="M542,108.73v9.39h20.22v17.79h-26a14.77,14.77,0,0,1-15-14.49V108.73Z"/></svg>