<svg width="614" height="262" viewBox="0 0 614 262" fill="none" xmlns="http://www.w3.org/2000/svg">
<path d="M10 30H604C608.42 30 612 33.582 612 38V252C612 256.418 608.42 260 604 260H10C5.582 260 2 256.418 2 252V38C2 33.582 5.582 30 10 30Z" fill="white" fill-opacity="0.5" stroke="#326CE5" stroke-width="4"/>
<path d="M527.43 119.731L472.08 79.5179C464.199 73.7889 453.52 73.7889 445.634 79.5179L390.286 119.731C382.4 125.461 379.1 135.617 382.113 144.887L403.254 209.953C406.266 219.223 414.905 225.5 424.653 225.5H493.07C502.81 225.5 511.45 219.223 514.47 209.953L535.61 144.887C538.62 135.617 535.32 125.461 527.43 119.731Z" fill="#326CE5" fill-opacity="0.1" stroke="#326CE5" stroke-width="5"/>
<path fill-rule="evenodd" clip-rule="evenodd" d="M515.57 202.01C505.44 197.182 501.16 185.091 506.01 175.005C508.34 170.161 512.5 166.437 517.59 164.652C522.67 162.866 528.27 163.166 533.13 165.485C543.26 170.313 547.54 182.404 542.69 192.49C537.84 202.577 525.7 206.839 515.57 202.01Z" fill="#326CE5"/>
<path d="M524.16 171.602C523.93 171.613 523.7 171.67 523.5 171.768L514.52 176.039C514.29 176.149 514.08 176.31 513.92 176.509C513.76 176.709 513.65 176.941 513.59 177.189L511.37 186.784C511.32 187.005 511.32 187.234 511.36 187.457C511.4 187.68 511.48 187.894 511.61 188.084C511.64 188.13 511.67 188.175 511.7 188.219L517.92 195.912C518.08 196.111 518.28 196.272 518.52 196.382C518.75 196.493 519 196.55 519.26 196.55L529.23 196.548C529.49 196.548 529.74 196.491 529.97 196.381C530.21 196.27 530.41 196.11 530.57 195.911L536.79 188.216C536.95 188.017 537.06 187.785 537.12 187.536C537.17 187.288 537.17 187.03 537.12 186.782L534.9 177.187C534.84 176.939 534.73 176.706 534.57 176.507C534.41 176.308 534.2 176.147 533.97 176.037L524.99 171.768C524.73 171.644 524.44 171.587 524.16 171.602Z" fill="white"/>
<path d="M524.24 174.867C523.95 174.867 523.71 175.133 523.71 175.462C523.71 175.467 523.71 175.472 523.71 175.477C523.71 175.521 523.71 175.575 523.71 175.614C523.71 175.803 523.76 175.948 523.78 176.123C523.83 176.496 523.86 176.806 523.84 177.093C523.82 177.202 523.74 177.301 523.67 177.37L523.65 177.596C523.33 177.623 523.01 177.672 522.68 177.745C521.29 178.06 520.08 178.776 519.17 179.742C519.11 179.702 519.01 179.628 518.98 179.605C518.88 179.618 518.78 179.647 518.66 179.574C518.42 179.413 518.2 179.191 517.93 178.923C517.81 178.794 517.72 178.672 517.58 178.549C517.55 178.521 517.5 178.483 517.46 178.454C517.35 178.364 517.21 178.318 517.08 178.313C516.92 178.307 516.76 178.372 516.66 178.502C516.47 178.733 516.53 179.086 516.79 179.291C516.79 179.293 516.79 179.294 516.8 179.296C516.83 179.325 516.87 179.362 516.91 179.386C517.06 179.498 517.2 179.556 517.35 179.645C517.67 179.843 517.94 180.007 518.15 180.204C518.23 180.292 518.25 180.446 518.26 180.513L518.43 180.666C517.51 182.048 517.08 183.754 517.34 185.493L517.11 185.558C517.05 185.635 516.97 185.755 516.88 185.79C516.6 185.877 516.29 185.909 515.92 185.948C515.74 185.963 515.59 185.954 515.4 185.989C515.36 185.997 515.3 186.012 515.26 186.022C515.26 186.023 515.25 186.023 515.25 186.024C515.25 186.024 515.25 186.025 515.24 186.026C514.93 186.102 514.72 186.392 514.79 186.678C514.86 186.963 515.16 187.137 515.48 187.069C515.49 187.068 515.49 187.068 515.49 187.067C515.49 187.067 515.5 187.065 515.5 187.064C515.55 187.054 515.6 187.044 515.64 187.033C515.82 186.984 515.96 186.912 516.12 186.849C516.48 186.722 516.77 186.616 517.06 186.575C517.18 186.565 517.31 186.648 517.37 186.683L517.6 186.643C518.14 188.307 519.27 189.652 520.7 190.496L520.61 190.729C520.64 190.82 520.68 190.943 520.65 191.032C520.55 191.301 520.37 191.586 520.17 191.903C520.07 192.049 519.97 192.163 519.88 192.33C519.86 192.37 519.83 192.432 519.81 192.474C519.67 192.768 519.77 193.107 520.04 193.234C520.31 193.362 520.64 193.227 520.78 192.933C520.78 192.932 520.78 192.931 520.78 192.93C520.8 192.889 520.83 192.834 520.85 192.794C520.92 192.621 520.95 192.472 521 192.304C521.14 191.948 521.22 191.575 521.42 191.343C521.47 191.279 521.56 191.254 521.65 191.23L521.77 191.011C523.02 191.487 524.42 191.615 525.81 191.3C526.13 191.228 526.44 191.135 526.73 191.023C526.77 191.084 526.83 191.2 526.85 191.229C526.94 191.259 527.04 191.274 527.12 191.395C527.27 191.644 527.37 191.939 527.49 192.295C527.54 192.463 527.57 192.611 527.65 192.785C527.66 192.825 527.69 192.88 527.71 192.922C527.86 193.218 528.19 193.354 528.46 193.225C528.72 193.098 528.82 192.759 528.68 192.465C528.66 192.423 528.64 192.361 528.61 192.321C528.53 192.153 528.43 192.041 528.33 191.895C528.12 191.578 527.95 191.314 527.85 191.045C527.81 190.906 527.86 190.82 527.89 190.729C527.87 190.706 527.83 190.575 527.8 190.513C529.29 189.639 530.39 188.244 530.9 186.633C530.97 186.644 531.09 186.665 531.13 186.673C531.21 186.62 531.29 186.551 531.43 186.562C531.72 186.603 532.01 186.71 532.37 186.837C532.53 186.9 532.67 186.973 532.85 187.022C532.89 187.032 532.94 187.042 532.99 187.051C532.99 187.052 533 187.054 533 187.055L533.01 187.056C533.33 187.124 533.64 186.951 533.7 186.665C533.77 186.379 533.56 186.089 533.25 186.013C533.2 186.003 533.14 185.985 533.09 185.977C532.9 185.941 532.75 185.95 532.57 185.936C532.2 185.896 531.89 185.865 531.61 185.778C531.5 185.734 531.42 185.601 531.38 185.546L531.16 185.483C531.27 184.672 531.24 183.829 531.05 182.985C530.85 182.133 530.51 181.354 530.04 180.667C530.1 180.617 530.2 180.524 530.23 180.497C530.24 180.401 530.23 180.3 530.33 180.194C530.55 179.996 530.81 179.832 531.13 179.635C531.29 179.545 531.43 179.488 531.58 179.375C531.61 179.35 531.66 179.309 531.7 179.28C531.96 179.076 532.02 178.722 531.83 178.491C531.65 178.26 531.29 178.239 531.03 178.443C530.99 178.472 530.94 178.51 530.91 178.538C530.77 178.662 530.68 178.784 530.55 178.912C530.29 179.18 530.07 179.404 529.83 179.565C529.73 179.625 529.57 179.605 529.5 179.6L529.3 179.746C528.13 178.529 526.55 177.751 524.84 177.6C524.83 177.528 524.83 177.4 524.82 177.361C524.75 177.294 524.67 177.237 524.65 177.093C524.63 176.806 524.66 176.496 524.71 176.123C524.73 175.948 524.78 175.803 524.78 175.614C524.79 175.571 524.78 175.508 524.78 175.462C524.78 175.133 524.54 174.867 524.24 174.867ZM523.57 179.017L523.41 181.824L523.4 181.83C523.39 182.081 523.18 182.282 522.93 182.282C522.82 182.282 522.73 182.248 522.65 182.191L522.64 182.194L520.33 180.562C521.04 179.866 521.95 179.352 523 179.116C523.19 179.072 523.38 179.04 523.57 179.017ZM524.92 179.017C526.14 179.167 527.27 179.718 528.14 180.563L525.84 182.184L525.83 182.181C525.63 182.329 525.34 182.292 525.18 182.094C525.12 182.013 525.09 181.917 525.08 181.821L524.92 179.017ZM519.49 181.61L521.6 183.49V183.501C521.79 183.666 521.82 183.953 521.66 184.151C521.6 184.232 521.51 184.287 521.42 184.312L521.41 184.321L518.71 185.099C518.57 183.845 518.87 182.626 519.49 181.61ZM528.98 181.612C529.29 182.118 529.53 182.683 529.67 183.296C529.81 183.901 529.85 184.505 529.79 185.09L527.07 184.31V184.298C526.83 184.232 526.68 183.985 526.73 183.738C526.76 183.637 526.81 183.551 526.88 183.488V183.482L528.98 181.612ZM523.81 183.635H524.68L525.21 184.304L525.02 185.139L524.24 185.51L523.47 185.138L523.27 184.303L523.81 183.635ZM526.58 185.924C526.62 185.922 526.66 185.926 526.69 185.932L526.7 185.926L529.5 186.397C529.09 187.543 528.3 188.536 527.26 189.2L526.17 186.587V186.583C526.07 186.352 526.17 186.081 526.4 185.971C526.46 185.943 526.52 185.927 526.58 185.924ZM521.88 185.936C522.1 185.939 522.29 186.086 522.34 186.303C522.36 186.404 522.35 186.504 522.31 186.593L522.32 186.603L521.25 189.189C520.24 188.547 519.44 187.586 519.01 186.407L521.79 185.938V185.944C521.82 185.938 521.85 185.935 521.88 185.936ZM524.23 187.069C524.3 187.066 524.38 187.081 524.45 187.115C524.54 187.161 524.62 187.232 524.66 187.317H524.67L526.04 189.777C525.86 189.836 525.68 189.887 525.49 189.929C524.45 190.166 523.4 190.094 522.46 189.774L523.82 187.318H523.83C523.91 187.165 524.06 187.075 524.23 187.069Z" fill="#326CE5" stroke="#326CE5" stroke-width="0.25"/>
<path d="M166.387 109C157.15 93 134.056 93 124.818 109L79.785 187C70.547 203 82.094 223 100.569 223H190.636C209.111 223 220.658 203 211.42 187L166.387 109Z" fill="#326CE5"/>
<mask id="mask0_135_638" style="mask-type:luminance" maskUnits="userSpaceOnUse" x="109" y="135" width="79" height="72">
<path d="M109.523 135H187.523V207H109.523V135Z" fill="white"/>
</mask>
<g mask="url(#mask0_135_638)">
<path d="M139.956 177.219C140.063 177.199 140.171 177.191 140.28 177.196C140.467 177.205 140.65 177.251 140.819 177.329C141.146 177.479 141.399 177.744 141.526 178.068C141.653 178.391 141.644 178.749 141.501 179.066L141.511 179.08L138.285 186.497C135.199 184.623 132.857 181.823 131.63 178.54L139.942 177.203L139.956 177.219ZM152.89 178.271C152.959 177.978 153.13 177.717 153.375 177.528C153.62 177.339 153.924 177.234 154.239 177.229C154.332 177.228 154.425 177.236 154.516 177.252L154.53 177.236L162.77 178.567C161.533 181.824 159.201 184.602 156.136 186.469L152.943 179.124L152.968 179.096C152.85 178.836 152.822 178.547 152.89 178.271ZM145.989 181.151C146.109 180.937 146.288 180.759 146.507 180.635C146.725 180.51 146.975 180.445 147.23 180.445C147.484 180.445 147.734 180.511 147.952 180.636C148.17 180.761 148.349 180.94 148.469 181.154H148.476L152.528 188.128C149.626 189.069 146.507 189.221 143.52 188.569C142.966 188.449 142.425 188.305 141.897 188.138L145.958 181.151H145.989ZM133.162 164.95L139.396 170.261L139.393 170.278C139.584 170.437 139.727 170.643 139.805 170.873C139.884 171.104 139.895 171.35 139.839 171.586C139.782 171.822 139.659 172.039 139.484 172.214C139.308 172.389 139.086 172.516 138.84 172.58L138.833 172.612L130.758 174.827C130.409 171.373 131.253 167.906 133.162 164.95ZM144.744 165.545C144.732 165.787 144.652 166.021 144.512 166.223C144.371 166.425 144.176 166.587 143.947 166.692C143.717 166.797 143.462 166.84 143.209 166.818C142.956 166.796 142.713 166.71 142.508 166.567L142.483 166.577L135.661 161.973C138.258 159.552 141.618 158.01 145.226 157.584L144.752 165.542L144.744 165.545ZM151.968 166.597C151.762 166.739 151.52 166.826 151.266 166.847C151.013 166.869 150.758 166.825 150.529 166.719C150.3 166.614 150.105 166.452 149.965 166.249C149.826 166.047 149.746 165.813 149.735 165.571L149.7 165.555L149.226 157.584C149.798 157.649 150.367 157.742 150.929 157.863C153.919 158.503 156.662 159.926 158.848 161.971L151.981 166.604L151.968 166.597ZM155.629 172.619C155.383 172.555 155.16 172.429 154.984 172.254C154.807 172.079 154.684 171.862 154.627 171.626C154.571 171.389 154.582 171.143 154.661 170.912C154.74 170.681 154.883 170.476 155.076 170.317L155.069 170.285L161.338 164.948C163.25 167.911 164.071 171.396 163.67 174.853L155.635 172.646L155.629 172.619ZM149.54 174.964L147.227 176.022L144.922 174.966L144.349 172.597L145.945 170.697H148.513L150.113 172.594L149.54 174.964Z" fill="white"/>
<path d="M108.999 179.632L115.588 152.386C115.765 151.681 116.105 151.023 116.582 150.458C117.059 149.893 117.661 149.436 118.346 149.12L145.019 136.997C145.711 136.683 146.467 136.521 147.233 136.521C147.999 136.521 148.755 136.683 149.446 136.997L176.114 149.126C176.799 149.442 177.402 149.899 177.879 150.464C178.357 151.029 178.696 151.688 178.873 152.392L185.452 179.637C185.614 180.326 185.615 181.04 185.454 181.729C185.406 181.939 185.344 182.145 185.268 182.347C185.139 182.692 184.969 183.022 184.76 183.329C184.67 183.46 184.574 183.588 184.471 183.712L166.012 205.558C165.931 205.653 165.842 205.74 165.754 205.828C165.464 206.122 165.137 206.38 164.781 206.596C164.329 206.866 163.837 207.07 163.322 207.2C162.899 207.31 162.463 207.367 162.024 207.37H161.737L132.423 207.364C132.245 207.363 132.067 207.353 131.89 207.334C131.636 207.306 131.385 207.261 131.138 207.198C130.961 207.153 130.786 207.1 130.615 207.038C130.482 206.99 130.349 206.941 130.22 206.883C130.028 206.795 129.841 206.696 129.661 206.587C129.196 206.309 128.783 205.96 128.436 205.555L127.874 204.889L109.984 183.705C109.641 183.295 109.372 182.835 109.187 182.342C109.109 182.139 109.046 181.932 108.997 181.721C108.836 181.033 108.836 180.318 108.999 179.63V179.632ZM136.665 190.228C136.59 190.438 136.501 190.643 136.399 190.841C136.562 191.113 136.606 191.435 136.522 191.738C136.134 192.584 135.66 193.392 135.107 194.15C134.798 194.538 134.512 194.942 134.251 195.361C134.187 195.475 134.103 195.65 134.042 195.77C133.927 195.953 133.854 196.157 133.826 196.368C133.799 196.579 133.819 196.794 133.884 196.998C133.949 197.202 134.058 197.39 134.204 197.551C134.35 197.713 134.531 197.843 134.733 197.934C134.935 198.025 135.155 198.075 135.379 198.08C135.603 198.085 135.825 198.046 136.032 197.964C136.239 197.883 136.425 197.761 136.579 197.607C136.734 197.453 136.852 197.269 136.928 197.069C136.989 196.95 137.074 196.792 137.125 196.679C137.308 196.224 137.462 195.759 137.589 195.287C137.866 194.403 138.232 193.547 138.684 192.732C138.881 192.479 139.173 192.31 139.499 192.261C139.55 192.177 139.739 191.847 139.84 191.677C144.588 193.388 149.833 193.375 154.571 191.641L154.933 192.264C155.19 192.302 155.43 192.413 155.621 192.583C156.165 193.433 156.581 194.352 156.857 195.313C156.982 195.785 157.136 196.25 157.317 196.705C157.368 196.817 157.454 196.973 157.515 197.091V197.095L157.517 197.098C157.593 197.298 157.712 197.482 157.866 197.636C158.02 197.791 158.207 197.913 158.414 197.994C158.621 198.076 158.844 198.115 159.068 198.11C159.292 198.104 159.512 198.054 159.714 197.963C159.917 197.871 160.097 197.741 160.243 197.579C160.389 197.417 160.497 197.228 160.562 197.024C160.627 196.82 160.645 196.605 160.617 196.393C160.589 196.182 160.515 195.978 160.399 195.796C160.339 195.675 160.258 195.501 160.195 195.387C159.935 194.967 159.649 194.561 159.339 194.173C158.776 193.394 158.292 192.567 157.895 191.701C157.852 191.407 157.902 191.108 158.037 190.841L157.746 190.179C162.115 187.724 165.389 183.833 166.952 179.239L167.647 179.351C167.917 179.169 168.235 179.062 168.565 179.043C169.517 179.217 170.449 179.478 171.348 179.823C171.814 180.023 172.293 180.197 172.78 180.345C172.895 180.375 173.062 180.405 173.193 180.433C173.204 180.436 173.213 180.441 173.224 180.443C173.232 180.444 173.24 180.445 173.248 180.445C173.46 180.512 173.684 180.535 173.906 180.514C174.128 180.494 174.343 180.429 174.537 180.324C174.731 180.22 174.901 180.078 175.034 179.908C175.167 179.737 175.261 179.543 175.311 179.336C175.361 179.129 175.364 178.914 175.322 178.706C175.279 178.497 175.191 178.299 175.064 178.125C174.936 177.951 174.772 177.804 174.581 177.694C174.391 177.583 174.178 177.512 173.957 177.485L173.934 177.479L173.92 177.476C173.787 177.446 173.616 177.404 173.494 177.381C172.986 177.314 172.474 177.275 171.962 177.264C170.995 177.204 170.037 177.054 169.101 176.817C168.824 176.648 168.589 176.423 168.415 176.158L167.747 175.972C168.472 171.177 167.312 166.296 164.489 162.265L165.001 161.83C165.019 161.515 165.13 161.211 165.321 160.953C166.057 160.352 166.852 159.82 167.696 159.366C168.151 159.144 168.593 158.898 169.019 158.629C169.116 158.56 169.244 158.457 169.35 158.375L169.373 158.36C169.736 158.111 169.982 157.736 170.055 157.317C170.129 156.897 170.025 156.467 169.766 156.12C169.613 155.941 169.418 155.8 169.197 155.707C168.976 155.614 168.735 155.572 168.494 155.584C168.088 155.6 167.698 155.74 167.381 155.983C167.273 156.064 167.124 156.173 167.028 156.252C166.656 156.586 166.305 156.941 165.976 157.314C165.324 157.996 164.603 158.616 163.824 159.165C163.532 159.311 163.192 159.343 162.876 159.253C162.686 159.385 162.494 159.514 162.3 159.642C159.495 156.804 155.863 154.829 151.87 153.97C150.919 153.765 149.955 153.624 148.984 153.548L148.946 152.906C148.698 152.696 148.518 152.423 148.428 152.119C148.393 151.197 148.453 150.274 148.606 149.364C148.707 148.886 148.78 148.404 148.824 147.918C148.828 147.808 148.821 147.655 148.82 147.529C148.82 147.515 148.824 147.501 148.824 147.487C148.846 147.274 148.822 147.06 148.752 146.857C148.682 146.654 148.568 146.467 148.418 146.309C148.268 146.15 148.084 146.024 147.879 145.937C147.674 145.85 147.452 145.805 147.228 145.805C147.004 145.805 146.782 145.85 146.577 145.936C146.372 146.023 146.188 146.149 146.038 146.308C145.887 146.466 145.773 146.653 145.703 146.855C145.633 147.058 145.608 147.273 145.631 147.485C145.631 147.618 145.623 147.795 145.628 147.917C145.671 148.402 145.744 148.885 145.847 149.362C146.001 150.273 146.061 151.196 146.027 152.118C145.964 152.427 145.777 152.699 145.506 152.878C145.5 152.988 145.481 153.354 145.467 153.556C140.421 153.993 135.713 156.159 132.217 159.651L131.61 159.238C131.283 159.291 130.948 159.256 130.641 159.138C129.863 158.588 129.142 157.967 128.489 157.284C128.16 156.911 127.808 156.556 127.435 156.222C127.337 156.142 127.189 156.035 127.081 155.954C126.921 155.803 126.729 155.687 126.519 155.611C126.308 155.536 126.083 155.504 125.859 155.517C125.634 155.529 125.415 155.587 125.215 155.686C125.016 155.784 124.84 155.922 124.7 156.089C124.56 156.257 124.458 156.45 124.402 156.658C124.345 156.865 124.335 157.081 124.372 157.292C124.409 157.504 124.492 157.705 124.617 157.884C124.741 158.062 124.903 158.214 125.092 158.329C125.2 158.411 125.341 158.526 125.444 158.599C125.871 158.869 126.314 159.115 126.77 159.336C127.614 159.79 128.409 160.322 129.144 160.923C129.358 161.162 129.466 161.471 129.444 161.784C129.533 161.862 129.845 162.125 130.01 162.267C127.179 166.284 125.996 171.15 126.685 175.942L126.04 176.121C125.879 176.397 125.641 176.625 125.352 176.78C124.415 177.018 123.457 177.168 122.49 177.229C121.978 177.24 121.467 177.279 120.959 177.345C120.825 177.369 120.631 177.42 120.494 177.45C120.273 177.477 120.06 177.549 119.87 177.659C119.679 177.769 119.515 177.916 119.388 178.091C119.26 178.265 119.172 178.463 119.13 178.671C119.087 178.88 119.091 179.094 119.141 179.301C119.191 179.508 119.285 179.703 119.418 179.873C119.552 180.044 119.721 180.185 119.915 180.29C120.109 180.394 120.324 180.459 120.546 180.479C120.768 180.5 120.992 180.477 121.204 180.41L121.227 180.407C121.238 180.405 121.248 180.399 121.259 180.397C121.39 180.369 121.556 180.342 121.671 180.313C122.158 180.164 122.636 179.988 123.103 179.787C124.002 179.442 124.935 179.181 125.888 179.007C126.217 178.998 126.538 179.111 126.781 179.323C127.008 179.282 127.235 179.244 127.463 179.209C129.007 183.832 132.281 187.754 136.665 190.228Z" fill="white"/>
</g>
<path d="M347 10H262C256.477 10 252 14.4772 252 20V35C252 40.5228 256.477 45 262 45H347C352.523 45 357 40.5228 357 35V20C357 14.4772 352.523 10 347 10Z" fill="#326CE5"/>
<path d="M272.847 32.3741V27.4791C272.847 27.1041 272.771 26.7781 272.618 26.5031C272.472 26.2221 272.249 26.0051 271.95 25.8531C271.651 25.7001 271.282 25.6241 270.843 25.6241C270.433 25.6241 270.072 25.6941 269.762 25.8351C269.457 25.9761 269.217 26.1601 269.041 26.3891C268.871 26.6171 268.786 26.8631 268.786 27.1271H267.16C267.16 26.7871 267.248 26.4501 267.424 26.1161C267.6 25.7821 267.852 25.4801 268.18 25.2111C268.514 24.9361 268.912 24.7191 269.375 24.5611C269.844 24.3961 270.365 24.3141 270.939 24.3141C271.631 24.3141 272.24 24.4321 272.768 24.6661C273.301 24.9001 273.717 25.2551 274.016 25.7291C274.32 26.1981 274.473 26.7871 274.473 27.4961V31.9261C274.473 32.2421 274.499 32.5791 274.552 32.9371C274.61 33.2941 274.695 33.6021 274.807 33.8591V34.0001H273.11C273.028 33.8121 272.964 33.5631 272.917 33.2531C272.87 32.9371 272.847 32.6441 272.847 32.3741ZM273.128 28.2341L273.146 29.3771H271.502C271.039 29.3771 270.626 29.4151 270.263 29.4911C269.899 29.5621 269.595 29.6701 269.349 29.8161C269.103 29.9631 268.915 30.1471 268.786 30.3701C268.657 30.5871 268.593 30.8421 268.593 31.1351C268.593 31.4341 268.66 31.7061 268.795 31.9521C268.93 32.1981 269.132 32.3951 269.401 32.5411C269.677 32.6821 270.014 32.7521 270.412 32.7521C270.91 32.7521 271.35 32.6461 271.73 32.4361C272.111 32.2251 272.413 31.9671 272.636 31.6621C272.864 31.3571 272.987 31.0621 273.005 30.7741L273.699 31.5571C273.658 31.8031 273.547 32.0751 273.365 32.3741C273.184 32.6731 272.94 32.9601 272.636 33.2351C272.337 33.5051 271.979 33.7301 271.563 33.9121C271.153 34.0881 270.69 34.1761 270.175 34.1761C269.53 34.1761 268.965 34.0501 268.479 33.7981C267.998 33.5461 267.623 33.2091 267.354 32.7871C267.09 32.3591 266.958 31.8821 266.958 31.3541C266.958 30.8451 267.058 30.3961 267.257 30.0101C267.456 29.6171 267.743 29.2921 268.118 29.0341C268.493 28.7711 268.944 28.5711 269.472 28.4371C269.999 28.3021 270.588 28.2341 271.238 28.2341H273.128ZM278.656 26.3181V37.6561H277.021V24.4901H278.516L278.656 26.3181ZM285.063 29.1661V29.3511C285.063 30.0421 284.981 30.6841 284.817 31.2751C284.653 31.8611 284.413 32.3711 284.097 32.8051C283.786 33.2381 283.402 33.5751 282.945 33.8151C282.488 34.0561 281.964 34.1761 281.372 34.1761C280.769 34.1761 280.235 34.0761 279.772 33.8771C279.31 33.6781 278.917 33.3881 278.595 33.0071C278.272 32.6261 278.015 32.1691 277.821 31.6361C277.634 31.1031 277.505 30.5021 277.435 29.8341V28.8501C277.505 28.1461 277.637 27.5171 277.83 26.9601C278.023 26.4031 278.278 25.9291 278.595 25.5361C278.917 25.1381 279.307 24.8361 279.764 24.6311C280.221 24.4201 280.748 24.3141 281.346 24.3141C281.943 24.3141 282.474 24.4321 282.937 24.6661C283.399 24.8951 283.789 25.2231 284.105 25.6501C284.422 26.0781 284.659 26.5911 284.817 27.1881C284.981 27.7801 285.063 28.4391 285.063 29.1661ZM283.429 29.3511V29.1661C283.429 28.6911 283.379 28.2461 283.279 27.8301C283.18 27.4081 283.024 27.0391 282.813 26.7231C282.608 26.4001 282.345 26.1481 282.022 25.9671C281.7 25.7791 281.316 25.6861 280.871 25.6861C280.461 25.6861 280.104 25.7561 279.799 25.8961C279.5 26.0371 279.245 26.2281 279.034 26.4681C278.823 26.7021 278.65 26.9721 278.516 27.2761C278.387 27.5751 278.29 27.8861 278.226 28.2081V30.4841C278.343 30.8951 278.507 31.2811 278.718 31.6451C278.929 32.0021 279.21 32.2921 279.562 32.5151C279.913 32.7311 280.355 32.8401 280.889 32.8401C281.328 32.8401 281.706 32.7491 282.022 32.5671C282.345 32.3801 282.608 32.1251 282.813 31.8031C283.024 31.4801 283.18 31.1111 283.279 30.6951C283.379 30.2731 283.429 29.8251 283.429 29.3511ZM288.764 26.3181V37.6561H287.129V24.4901H288.623L288.764 26.3181ZM295.171 29.1661V29.3511C295.171 30.0421 295.089 30.6841 294.925 31.2751C294.761 31.8611 294.521 32.3711 294.204 32.8051C293.894 33.2381 293.51 33.5751 293.053 33.8151C292.596 34.0561 292.071 34.1761 291.479 34.1761C290.876 34.1761 290.343 34.0761 289.88 33.8771C289.417 33.6781 289.024 33.3881 288.702 33.0071C288.38 32.6261 288.122 32.1691 287.929 31.6361C287.741 31.1031 287.612 30.5021 287.542 29.8341V28.8501C287.612 28.1461 287.744 27.5171 287.938 26.9601C288.131 26.4031 288.386 25.9291 288.702 25.5361C289.024 25.1381 289.414 24.8361 289.871 24.6311C290.328 24.4201 290.855 24.3141 291.453 24.3141C292.051 24.3141 292.581 24.4321 293.044 24.6661C293.507 24.8951 293.896 25.2231 294.213 25.6501C294.529 26.0781 294.767 26.5911 294.925 27.1881C295.089 27.7801 295.171 28.4391 295.171 29.1661ZM293.536 29.3511V29.1661C293.536 28.6911 293.486 28.2461 293.387 27.8301C293.287 27.4081 293.132 27.0391 292.921 26.7231C292.716 26.4001 292.452 26.1481 292.13 25.9671C291.808 25.7791 291.424 25.6861 290.979 25.6861C290.568 25.6861 290.211 25.7561 289.906 25.8961C289.607 26.0371 289.353 26.2281 289.142 26.4681C288.931 26.7021 288.758 26.9721 288.623 27.2761C288.494 27.5751 288.397 27.8861 288.333 28.2081V30.4841C288.45 30.8951 288.614 31.2811 288.825 31.6451C289.036 32.0021 289.317 32.2921 289.669 32.5151C290.021 32.7311 290.463 32.8401 290.996 32.8401C291.436 32.8401 291.813 32.7491 292.13 32.5671C292.452 32.3801 292.716 32.1251 292.921 31.8031C293.132 31.4801 293.287 31.1111 293.387 30.6951C293.486 30.2731 293.536 29.8251 293.536 29.3511ZM297.175 33.1391C297.175 32.8631 297.26 32.6321 297.43 32.4441C297.605 32.2511 297.857 32.1541 298.186 32.1541C298.514 32.1541 298.763 32.2511 298.933 32.4441C299.108 32.6321 299.196 32.8631 299.196 33.1391C299.196 33.4081 299.108 33.6371 298.933 33.8241C298.763 34.0121 298.514 34.1051 298.186 34.1051C297.857 34.1051 297.605 34.0121 297.43 33.8241C297.26 33.6371 297.175 33.4081 297.175 33.1391ZM297.184 25.3781C297.184 25.1031 297.269 24.8711 297.438 24.6841C297.614 24.4901 297.866 24.3941 298.194 24.3941C298.522 24.3941 298.771 24.4901 298.941 24.6841C299.117 24.8711 299.205 25.1031 299.205 25.3781C299.205 25.6471 299.117 25.8761 298.941 26.0631C298.771 26.2511 298.522 26.3451 298.194 26.3451C297.866 26.3451 297.614 26.2511 297.438 26.0631C297.269 25.8761 297.184 25.6471 297.184 25.3781ZM303.23 26.5211V34.0001H301.604V24.4901H303.143L303.23 26.5211ZM302.844 28.8851L302.167 28.8581C302.173 28.2081 302.27 27.6071 302.457 27.0571C302.645 26.5001 302.908 26.0171 303.248 25.6061C303.588 25.1961 303.992 24.8801 304.461 24.6571C304.936 24.4291 305.46 24.3141 306.034 24.3141C306.503 24.3141 306.925 24.3791 307.3 24.5081C307.675 24.6311 307.994 24.8301 308.258 25.1051C308.527 25.3811 308.732 25.7381 308.873 26.1781C309.014 26.6111 309.084 27.1421 309.084 27.7691V34.0001H307.449V27.7511C307.449 27.2531 307.376 26.8541 307.229 26.5561C307.083 26.2511 306.869 26.0311 306.588 25.8961C306.307 25.7561 305.961 25.6861 305.551 25.6861C305.146 25.6861 304.777 25.7711 304.443 25.9401C304.115 26.1101 303.831 26.3451 303.591 26.6441C303.356 26.9421 303.172 27.2851 303.037 27.6721C302.908 28.0531 302.844 28.4571 302.844 28.8851ZM317.715 24.4901H319.191V33.7981C319.191 34.6361 319.021 35.3511 318.682 35.9421C318.342 36.5341 317.867 36.9821 317.258 37.2871C316.654 37.5981 315.957 37.7531 315.166 37.7531C314.838 37.7531 314.451 37.7001 314.006 37.5951C313.566 37.4951 313.133 37.3221 312.705 37.0761C312.283 36.8361 311.929 36.5111 311.642 36.1011L312.494 35.1341C312.893 35.6141 313.309 35.9481 313.742 36.1361C314.182 36.3231 314.615 36.4171 315.043 36.4171C315.559 36.4171 316.004 36.3201 316.379 36.1271C316.754 35.9341 317.044 35.6461 317.249 35.2661C317.46 34.8911 317.565 34.4281 317.565 33.8771V26.5821L317.715 24.4901ZM311.167 29.3511V29.1661C311.167 28.4391 311.252 27.7801 311.422 27.1881C311.598 26.5911 311.847 26.0781 312.169 25.6501C312.497 25.2231 312.893 24.8951 313.355 24.6661C313.818 24.4321 314.34 24.3141 314.92 24.3141C315.518 24.3141 316.039 24.4201 316.484 24.6311C316.936 24.8361 317.316 25.1381 317.627 25.5361C317.943 25.9291 318.192 26.4031 318.374 26.9601C318.556 27.5171 318.682 28.1461 318.752 28.8501V29.6581C318.688 30.3551 318.562 30.9821 318.374 31.5391C318.192 32.0961 317.943 32.5701 317.627 32.9631C317.316 33.3551 316.936 33.6571 316.484 33.8681C316.033 34.0731 315.506 34.1761 314.902 34.1761C314.334 34.1761 313.818 34.0561 313.355 33.8151C312.898 33.5751 312.506 33.2381 312.178 32.8051C311.85 32.3711 311.598 31.8611 311.422 31.2751C311.252 30.6841 311.167 30.0421 311.167 29.3511ZM312.793 29.1661V29.3511C312.793 29.8251 312.84 30.2711 312.934 30.6871C313.033 31.1031 313.183 31.4691 313.382 31.7851C313.587 32.1021 313.848 32.3511 314.164 32.5321C314.48 32.7081 314.858 32.7961 315.298 32.7961C315.837 32.7961 316.282 32.6821 316.634 32.4531C316.985 32.2251 317.264 31.9231 317.469 31.5481C317.68 31.1731 317.844 30.7661 317.961 30.3261V28.2081C317.896 27.8861 317.797 27.5751 317.662 27.2761C317.533 26.9721 317.363 26.7021 317.152 26.4681C316.947 26.2281 316.692 26.0371 316.388 25.8961C316.083 25.7561 315.726 25.6861 315.315 25.6861C314.87 25.6861 314.486 25.7791 314.164 25.9671C313.848 26.1481 313.587 26.4001 313.382 26.7231C313.183 27.0391 313.033 27.4081 312.934 27.8301C312.84 28.2461 312.793 28.6911 312.793 29.1661ZM323.428 24.4901V34.0001H321.793V24.4901H323.428ZM321.67 21.9681C321.67 21.7041 321.749 21.4811 321.907 21.3001C322.071 21.1181 322.312 21.0271 322.628 21.0271C322.938 21.0271 323.176 21.1181 323.34 21.3001C323.51 21.4811 323.595 21.7041 323.595 21.9681C323.595 22.2201 323.51 22.4371 323.34 22.6181C323.176 22.7941 322.938 22.8821 322.628 22.8821C322.312 22.8821 322.071 22.7941 321.907 22.6181C321.749 22.4371 321.67 22.2201 321.67 21.9681ZM327.664 26.5211V34.0001H326.038V24.4901H327.576L327.664 26.5211ZM327.277 28.8851L326.601 28.8581C326.606 28.2081 326.703 27.6071 326.891 27.0571C327.078 26.5001 327.342 26.0171 327.682 25.6061C328.021 25.1961 328.426 24.8801 328.895 24.6571C329.369 24.4291 329.894 24.3141 330.468 24.3141C330.937 24.3141 331.358 24.3791 331.733 24.5081C332.108 24.6311 332.428 24.8301 332.691 25.1051C332.961 25.3811 333.166 25.7381 333.307 26.1781C333.447 26.6111 333.518 27.1421 333.518 27.7691V34.0001H331.883V27.7511C331.883 27.2531 331.81 26.8541 331.663 26.5561C331.517 26.2511 331.303 26.0311 331.021 25.8961C330.74 25.7561 330.395 25.6861 329.984 25.6861C329.58 25.6861 329.211 25.7711 328.877 25.9401C328.549 26.1101 328.265 26.3451 328.024 26.6441C327.79 26.9421 327.605 27.2851 327.471 27.6721C327.342 28.0531 327.277 28.4571 327.277 28.8851ZM337.086 24.4901L339.169 27.9531L341.278 24.4901H343.186L340.074 29.1841L343.282 34.0001H341.401L339.204 30.4321L337.007 34.0001H335.117L338.316 29.1841L335.214 24.4901H337.086Z" fill="white" fill-opacity="0.5"/>
<path d="M378.258 22.425L342.205 3.68399C340.709 2.90599 339.048 2.5 337.362 2.5H257C252.858 2.5 249.5 5.858 249.5 10V46C249.5 50.142 252.858 53.5 257 53.5H337.396C339.053 53.5 340.687 53.108 342.164 52.355L378.211 33.983C382.921 31.583 382.948 24.863 378.258 22.425Z" fill="#326CE5" stroke="#326CE5" stroke-width="5"/>
<path d="M275.847 32.3741V27.4791C275.847 27.1041 275.771 26.7781 275.618 26.5031C275.472 26.2221 275.249 26.0051 274.95 25.8531C274.651 25.7001 274.282 25.6241 273.843 25.6241C273.433 25.6241 273.072 25.6941 272.762 25.8351C272.457 25.9761 272.217 26.1601 272.041 26.3891C271.871 26.6171 271.786 26.8631 271.786 27.1271H270.16C270.16 26.7871 270.248 26.4501 270.424 26.1161C270.6 25.7821 270.852 25.4801 271.18 25.2111C271.514 24.9361 271.912 24.7191 272.375 24.5611C272.844 24.3961 273.365 24.3141 273.939 24.3141C274.631 24.3141 275.24 24.4321 275.768 24.6661C276.301 24.9001 276.717 25.2551 277.016 25.7291C277.32 26.1981 277.473 26.7871 277.473 27.4961V31.9261C277.473 32.2421 277.499 32.5791 277.552 32.9371C277.61 33.2941 277.695 33.6021 277.807 33.8591V34.0001H276.11C276.028 33.8121 275.964 33.5631 275.917 33.2531C275.87 32.9371 275.847 32.6441 275.847 32.3741ZM276.128 28.2341L276.146 29.3771H274.502C274.039 29.3771 273.626 29.4151 273.263 29.4911C272.899 29.5621 272.595 29.6701 272.349 29.8161C272.103 29.9631 271.915 30.1471 271.786 30.3701C271.657 30.5871 271.593 30.8421 271.593 31.1351C271.593 31.4341 271.66 31.7061 271.795 31.9521C271.93 32.1981 272.132 32.3951 272.401 32.5411C272.677 32.6821 273.014 32.7521 273.412 32.7521C273.91 32.7521 274.35 32.6461 274.73 32.4361C275.111 32.2251 275.413 31.9671 275.636 31.6621C275.864 31.3571 275.987 31.0621 276.005 30.7741L276.699 31.5571C276.658 31.8031 276.547 32.0751 276.365 32.3741C276.184 32.6731 275.94 32.9601 275.636 33.2351C275.337 33.5051 274.979 33.7301 274.563 33.9121C274.153 34.0881 273.69 34.1761 273.175 34.1761C272.53 34.1761 271.965 34.0501 271.479 33.7981C270.998 33.5461 270.623 33.2091 270.354 32.7871C270.09 32.3591 269.958 31.8821 269.958 31.3541C269.958 30.8451 270.058 30.3961 270.257 30.0101C270.456 29.6171 270.743 29.2921 271.118 29.0341C271.493 28.7711 271.944 28.5711 272.472 28.4371C272.999 28.3021 273.588 28.2341 274.238 28.2341H276.128ZM281.656 26.3181V37.6561H280.021V24.4901H281.516L281.656 26.3181ZM288.063 29.1661V29.3511C288.063 30.0421 287.981 30.6841 287.817 31.2751C287.653 31.8611 287.413 32.3711 287.097 32.8051C286.786 33.2381 286.402 33.5751 285.945 33.8151C285.488 34.0561 284.964 34.1761 284.372 34.1761C283.769 34.1761 283.235 34.0761 282.772 33.8771C282.31 33.6781 281.917 33.3881 281.595 33.0071C281.272 32.6261 281.015 32.1691 280.821 31.6361C280.634 31.1031 280.505 30.5021 280.435 29.8341V28.8501C280.505 28.1461 280.637 27.5171 280.83 26.9601C281.023 26.4031 281.278 25.9291 281.595 25.5361C281.917 25.1381 282.307 24.8361 282.764 24.6311C283.221 24.4201 283.748 24.3141 284.346 24.3141C284.943 24.3141 285.474 24.4321 285.937 24.6661C286.399 24.8951 286.789 25.2231 287.105 25.6501C287.422 26.0781 287.659 26.5911 287.817 27.1881C287.981 27.7801 288.063 28.4391 288.063 29.1661ZM286.429 29.3511V29.1661C286.429 28.6911 286.379 28.2461 286.279 27.8301C286.18 27.4081 286.024 27.0391 285.813 26.7231C285.608 26.4001 285.345 26.1481 285.022 25.9671C284.7 25.7791 284.316 25.6861 283.871 25.6861C283.461 25.6861 283.104 25.7561 282.799 25.8961C282.5 26.0371 282.245 26.2281 282.034 26.4681C281.823 26.7021 281.65 26.9721 281.516 27.2761C281.387 27.5751 281.29 27.8861 281.226 28.2081V30.4841C281.343 30.8951 281.507 31.2811 281.718 31.6451C281.929 32.0021 282.21 32.2921 282.562 32.5151C282.913 32.7311 283.355 32.8401 283.889 32.8401C284.328 32.8401 284.706 32.7491 285.022 32.5671C285.345 32.3801 285.608 32.1251 285.813 31.8031C286.024 31.4801 286.18 31.1111 286.279 30.6951C286.379 30.2731 286.429 29.8251 286.429 29.3511ZM291.764 26.3181V37.6561H290.129V24.4901H291.623L291.764 26.3181ZM298.171 29.1661V29.3511C298.171 30.0421 298.089 30.6841 297.925 31.2751C297.761 31.8611 297.521 32.3711 297.204 32.8051C296.894 33.2381 296.51 33.5751 296.053 33.8151C295.596 34.0561 295.071 34.1761 294.479 34.1761C293.876 34.1761 293.343 34.0761 292.88 33.8771C292.417 33.6781 292.024 33.3881 291.702 33.0071C291.38 32.6261 291.122 32.1691 290.929 31.6361C290.741 31.1031 290.612 30.5021 290.542 29.8341V28.8501C290.612 28.1461 290.744 27.5171 290.938 26.9601C291.131 26.4031 291.386 25.9291 291.702 25.5361C292.024 25.1381 292.414 24.8361 292.871 24.6311C293.328 24.4201 293.855 24.3141 294.453 24.3141C295.051 24.3141 295.581 24.4321 296.044 24.6661C296.507 24.8951 296.896 25.2231 297.213 25.6501C297.529 26.0781 297.767 26.5911 297.925 27.1881C298.089 27.7801 298.171 28.4391 298.171 29.1661ZM296.536 29.3511V29.1661C296.536 28.6911 296.486 28.2461 296.387 27.8301C296.287 27.4081 296.132 27.0391 295.921 26.7231C295.716 26.4001 295.452 26.1481 295.13 25.9671C294.808 25.7791 294.424 25.6861 293.979 25.6861C293.568 25.6861 293.211 25.7561 292.906 25.8961C292.607 26.0371 292.353 26.2281 292.142 26.4681C291.931 26.7021 291.758 26.9721 291.623 27.2761C291.494 27.5751 291.397 27.8861 291.333 28.2081V30.4841C291.45 30.8951 291.614 31.2811 291.825 31.6451C292.036 32.0021 292.317 32.2921 292.669 32.5151C293.021 32.7311 293.463 32.8401 293.996 32.8401C294.436 32.8401 294.813 32.7491 295.13 32.5671C295.452 32.3801 295.716 32.1251 295.921 31.8031C296.132 31.4801 296.287 31.1111 296.387 30.6951C296.486 30.2731 296.536 29.8251 296.536 29.3511ZM300.175 33.1391C300.175 32.8631 300.26 32.6321 300.43 32.4441C300.605 32.2511 300.857 32.1541 301.186 32.1541C301.514 32.1541 301.763 32.2511 301.933 32.4441C302.108 32.6321 302.196 32.8631 302.196 33.1391C302.196 33.4081 302.108 33.6371 301.933 33.8241C301.763 34.0121 301.514 34.1051 301.186 34.1051C300.857 34.1051 300.605 34.0121 300.43 33.8241C300.26 33.6371 300.175 33.4081 300.175 33.1391ZM300.184 25.3781C300.184 25.1031 300.269 24.8711 300.438 24.6841C300.614 24.4901 300.866 24.3941 301.194 24.3941C301.522 24.3941 301.771 24.4901 301.941 24.6841C302.117 24.8711 302.205 25.1031 302.205 25.3781C302.205 25.6471 302.117 25.8761 301.941 26.0631C301.771 26.2511 301.522 26.3451 301.194 26.3451C300.866 26.3451 300.614 26.2511 300.438 26.0631C300.269 25.8761 300.184 25.6471 300.184 25.3781ZM306.23 26.5211V34.0001H304.604V24.4901H306.143L306.23 26.5211ZM305.844 28.8851L305.167 28.8581C305.173 28.2081 305.27 27.6071 305.457 27.0571C305.645 26.5001 305.908 26.0171 306.248 25.6061C306.588 25.1961 306.992 24.8801 307.461 24.6571C307.936 24.4291 308.46 24.3141 309.034 24.3141C309.503 24.3141 309.925 24.3791 310.3 24.5081C310.675 24.6311 310.994 24.8301 311.258 25.1051C311.527 25.3811 311.732 25.7381 311.873 26.1781C312.014 26.6111 312.084 27.1421 312.084 27.7691V34.0001H310.449V27.7511C310.449 27.2531 310.376 26.8541 310.229 26.5561C310.083 26.2511 309.869 26.0311 309.588 25.8961C309.307 25.7561 308.961 25.6861 308.551 25.6861C308.146 25.6861 307.777 25.7711 307.443 25.9401C307.115 26.1101 306.831 26.3451 306.591 26.6441C306.356 26.9421 306.172 27.2851 306.037 27.6721C305.908 28.0531 305.844 28.4571 305.844 28.8851ZM320.715 24.4901H322.191V33.7981C322.191 34.6361 322.021 35.3511 321.682 35.9421C321.342 36.5341 320.867 36.9821 320.258 37.2871C319.654 37.5981 318.957 37.7531 318.166 37.7531C317.838 37.7531 317.451 37.7001 317.006 37.5951C316.566 37.4951 316.133 37.3221 315.705 37.0761C315.283 36.8361 314.929 36.5111 314.642 36.1011L315.494 35.1341C315.893 35.6141 316.309 35.9481 316.742 36.1361C317.182 36.3231 317.615 36.4171 318.043 36.4171C318.559 36.4171 319.004 36.3201 319.379 36.1271C319.754 35.9341 320.044 35.6461 320.249 35.2661C320.46 34.8911 320.565 34.4281 320.565 33.8771V26.5821L320.715 24.4901ZM314.167 29.3511V29.1661C314.167 28.4391 314.252 27.7801 314.422 27.1881C314.598 26.5911 314.847 26.0781 315.169 25.6501C315.497 25.2231 315.893 24.8951 316.355 24.6661C316.818 24.4321 317.34 24.3141 317.92 24.3141C318.518 24.3141 319.039 24.4201 319.484 24.6311C319.936 24.8361 320.316 25.1381 320.627 25.5361C320.943 25.9291 321.192 26.4031 321.374 26.9601C321.556 27.5171 321.682 28.1461 321.752 28.8501V29.6581C321.688 30.3551 321.562 30.9821 321.374 31.5391C321.192 32.0961 320.943 32.5701 320.627 32.9631C320.316 33.3551 319.936 33.6571 319.484 33.8681C319.033 34.0731 318.506 34.1761 317.902 34.1761C317.334 34.1761 316.818 34.0561 316.355 33.8151C315.898 33.5751 315.506 33.2381 315.178 32.8051C314.85 32.3711 314.598 31.8611 314.422 31.2751C314.252 30.6841 314.167 30.0421 314.167 29.3511ZM315.793 29.1661V29.3511C315.793 29.8251 315.84 30.2711 315.934 30.6871C316.033 31.1031 316.183 31.4691 316.382 31.7851C316.587 32.1021 316.848 32.3511 317.164 32.5321C317.48 32.7081 317.858 32.7961 318.298 32.7961C318.837 32.7961 319.282 32.6821 319.634 32.4531C319.985 32.2251 320.264 31.9231 320.469 31.5481C320.68 31.1731 320.844 30.7661 320.961 30.3261V28.2081C320.896 27.8861 320.797 27.5751 320.662 27.2761C320.533 26.9721 320.363 26.7021 320.152 26.4681C319.947 26.2281 319.692 26.0371 319.388 25.8961C319.083 25.7561 318.726 25.6861 318.315 25.6861C317.87 25.6861 317.486 25.7791 317.164 25.9671C316.848 26.1481 316.587 26.4001 316.382 26.7231C316.183 27.0391 316.033 27.4081 315.934 27.8301C315.84 28.2461 315.793 28.6911 315.793 29.1661ZM326.428 24.4901V34.0001H324.793V24.4901H326.428ZM324.67 21.9681C324.67 21.7041 324.749 21.4811 324.907 21.3001C325.071 21.1181 325.312 21.0271 325.628 21.0271C325.938 21.0271 326.176 21.1181 326.34 21.3001C326.51 21.4811 326.595 21.7041 326.595 21.9681C326.595 22.2201 326.51 22.4371 326.34 22.6181C326.176 22.7941 325.938 22.8821 325.628 22.8821C325.312 22.8821 325.071 22.7941 324.907 22.6181C324.749 22.4371 324.67 22.2201 324.67 21.9681ZM330.664 26.5211V34.0001H329.038V24.4901H330.576L330.664 26.5211ZM330.277 28.8851L329.601 28.8581C329.606 28.2081 329.703 27.6071 329.891 27.0571C330.078 26.5001 330.342 26.0171 330.682 25.6061C331.021 25.1961 331.426 24.8801 331.895 24.6571C332.369 24.4291 332.894 24.3141 333.468 24.3141C333.937 24.3141 334.358 24.3791 334.733 24.5081C335.108 24.6311 335.428 24.8301 335.691 25.1051C335.961 25.3811 336.166 25.7381 336.307 26.1781C336.447 26.6111 336.518 27.1421 336.518 27.7691V34.0001H334.883V27.7511C334.883 27.2531 334.81 26.8541 334.663 26.5561C334.517 26.2511 334.303 26.0311 334.021 25.8961C333.74 25.7561 333.395 25.6861 332.984 25.6861C332.58 25.6861 332.211 25.7711 331.877 25.9401C331.549 26.1101 331.265 26.3451 331.024 26.6441C330.79 26.9421 330.605 27.2851 330.471 27.6721C330.342 28.0531 330.277 28.4571 330.277 28.8851ZM340.086 24.4901L342.169 27.9531L344.278 24.4901H346.186L343.074 29.1841L346.282 34.0001H344.401L342.204 30.4321L340.007 34.0001H338.117L341.316 29.1841L338.214 24.4901H340.086Z" fill="white" fill-opacity="0.8"/>
</svg>
