<svg width="147" height="106" viewBox="0 0 147 106" fill="none" xmlns="http://www.w3.org/2000/svg">
<circle cx="142.197" cy="24.0142" r="4.8028" transform="rotate(90 142.197 24.0142)" fill="#00D3A9" fill-opacity="0.1"/>
<circle cx="126.931" cy="24.0142" r="4.8028" transform="rotate(90 126.931 24.0142)" fill="#00D3A9" fill-opacity="0.1"/>
<circle cx="111.665" cy="24.0142" r="4.8028" transform="rotate(90 111.665 24.0142)" fill="#00D3A9" fill-opacity="0.1"/>
<circle cx="96.3993" cy="24.0142" r="4.8028" transform="rotate(90 96.3993 24.0142)" fill="#00D3A9" fill-opacity="0.1"/>
<circle cx="81.1337" cy="24.0142" r="4.8028" transform="rotate(90 81.1337 24.0142)" fill="#00D3A9" fill-opacity="0.1"/>
<circle cx="65.8671" cy="24.0142" r="4.8028" transform="rotate(90 65.8671 24.0142)" fill="#00D3A9" fill-opacity="0.1"/>
<circle cx="50.6005" cy="24.0142" r="4.8028" transform="rotate(90 50.6005 24.0142)" fill="#00D3A9" fill-opacity="0.1"/>
<circle cx="35.3349" cy="24.0142" r="4.8028" transform="rotate(90 35.3349 24.0142)" fill="#00D3A9" fill-opacity="0.1"/>
<circle cx="20.0683" cy="24.0142" r="4.8028" transform="rotate(90 20.0683 24.0142)" fill="#00D3A9" fill-opacity="0.1"/>
<circle cx="4.80364" cy="24.0142" r="4.8028" transform="rotate(90 4.80364 24.0142)" fill="#00D3A9" fill-opacity="0.1"/>
<circle cx="142.197" cy="62.4366" r="4.8028" transform="rotate(90 142.197 62.4366)" fill="#00D3A9" fill-opacity="0.1"/>
<circle cx="126.931" cy="62.4356" r="4.8028" transform="rotate(90 126.931 62.4356)" fill="#00D3A9" fill-opacity="0.1"/>
<circle cx="111.665" cy="62.4356" r="4.8028" transform="rotate(90 111.665 62.4356)" fill="#00D3A9" fill-opacity="0.1"/>
<circle cx="96.3993" cy="62.4356" r="4.8028" transform="rotate(90 96.3993 62.4356)" fill="#00D3A9" fill-opacity="0.1"/>
<circle cx="81.1337" cy="62.4356" r="4.8028" transform="rotate(90 81.1337 62.4356)" fill="#00D3A9" fill-opacity="0.1"/>
<circle cx="65.8671" cy="62.4356" r="4.8028" transform="rotate(90 65.8671 62.4356)" fill="#00D3A9" fill-opacity="0.1"/>
<circle cx="50.6005" cy="62.4356" r="4.8028" transform="rotate(90 50.6005 62.4356)" fill="#00D3A9" fill-opacity="0.1"/>
<circle cx="35.3349" cy="62.4356" r="4.8028" transform="rotate(90 35.3349 62.4356)" fill="#00D3A9" fill-opacity="0.1"/>
<circle cx="20.0683" cy="62.4356" r="4.8028" transform="rotate(90 20.0683 62.4356)" fill="#00D3A9" fill-opacity="0.1"/>
<circle cx="4.80364" cy="62.4356" r="4.8028" transform="rotate(90 4.80364 62.4356)" fill="#00D3A9" fill-opacity="0.1"/>
<circle cx="142.197" cy="81.6475" r="4.8028" transform="rotate(90 142.197 81.6475)" fill="#00D3A9" fill-opacity="0.1"/>
<circle cx="126.931" cy="81.6475" r="4.8028" transform="rotate(90 126.931 81.6475)" fill="#00D3A9" fill-opacity="0.1"/>
<circle cx="111.665" cy="81.6475" r="4.8028" transform="rotate(90 111.665 81.6475)" fill="#00D3A9" fill-opacity="0.1"/>
<circle cx="96.3993" cy="81.6475" r="4.8028" transform="rotate(90 96.3993 81.6475)" fill="#00D3A9" fill-opacity="0.1"/>
<circle cx="81.1337" cy="81.6475" r="4.8028" transform="rotate(90 81.1337 81.6475)" fill="#00D3A9" fill-opacity="0.1"/>
<circle cx="65.8671" cy="81.6475" r="4.8028" transform="rotate(90 65.8671 81.6475)" fill="#00D3A9" fill-opacity="0.1"/>
<circle cx="50.6005" cy="81.6475" r="4.8028" transform="rotate(90 50.6005 81.6475)" fill="#00D3A9" fill-opacity="0.1"/>
<circle cx="35.3349" cy="81.6475" r="4.8028" transform="rotate(90 35.3349 81.6475)" fill="#00D3A9" fill-opacity="0.1"/>
<circle cx="20.0683" cy="81.6475" r="4.8028" transform="rotate(90 20.0683 81.6475)" fill="#00D3A9" fill-opacity="0.1"/>
<circle cx="4.80364" cy="81.6475" r="4.8028" transform="rotate(90 4.80364 81.6475)" fill="#00D3A9" fill-opacity="0.1"/>
<circle cx="142.197" cy="100.858" r="4.8028" transform="rotate(90 142.197 100.858)" fill="#00D3A9" fill-opacity="0.1"/>
<circle cx="126.931" cy="100.858" r="4.8028" transform="rotate(90 126.931 100.858)" fill="#00D3A9" fill-opacity="0.1"/>
<circle cx="111.665" cy="100.858" r="4.8028" transform="rotate(90 111.665 100.858)" fill="#00D3A9" fill-opacity="0.1"/>
<circle cx="96.3993" cy="100.858" r="4.8028" transform="rotate(90 96.3993 100.858)" fill="#00D3A9" fill-opacity="0.1"/>
<circle cx="81.1337" cy="100.858" r="4.8028" transform="rotate(90 81.1337 100.858)" fill="#00D3A9" fill-opacity="0.1"/>
<circle cx="65.8671" cy="100.858" r="4.8028" transform="rotate(90 65.8671 100.858)" fill="#00D3A9" fill-opacity="0.1"/>
<circle cx="50.6005" cy="100.858" r="4.8028" transform="rotate(90 50.6005 100.858)" fill="#00D3A9" fill-opacity="0.1"/>
<circle cx="35.3349" cy="100.858" r="4.8028" transform="rotate(90 35.3349 100.858)" fill="#00D3A9" fill-opacity="0.1"/>
<circle cx="20.0683" cy="100.858" r="4.8028" transform="rotate(90 20.0683 100.858)" fill="#00D3A9" fill-opacity="0.1"/>
<circle cx="4.80364" cy="100.858" r="4.8028" transform="rotate(90 4.80364 100.858)" fill="#00D3A9" fill-opacity="0.1"/>
<circle cx="142.197" cy="4.8028" r="4.8028" transform="rotate(90 142.197 4.8028)" fill="#00D3A9" fill-opacity="0.1"/>
<circle cx="126.931" cy="4.8028" r="4.8028" transform="rotate(90 126.931 4.8028)" fill="#00D3A9" fill-opacity="0.1"/>
<circle cx="111.665" cy="4.8028" r="4.8028" transform="rotate(90 111.665 4.8028)" fill="#00D3A9" fill-opacity="0.1"/>
<circle cx="96.3993" cy="4.8028" r="4.8028" transform="rotate(90 96.3993 4.8028)" fill="#00D3A9" fill-opacity="0.1"/>
<circle cx="81.1337" cy="4.8028" r="4.8028" transform="rotate(90 81.1337 4.8028)" fill="#00D3A9" fill-opacity="0.1"/>
<circle cx="65.8671" cy="4.8028" r="4.8028" transform="rotate(90 65.8671 4.8028)" fill="#00D3A9" fill-opacity="0.1"/>
<circle cx="50.6005" cy="4.8028" r="4.8028" transform="rotate(90 50.6005 4.8028)" fill="#00D3A9" fill-opacity="0.1"/>
<circle cx="35.3349" cy="4.8028" r="4.8028" transform="rotate(90 35.3349 4.8028)" fill="#00D3A9" fill-opacity="0.1"/>
<circle cx="20.0683" cy="4.8028" r="4.8028" transform="rotate(90 20.0683 4.8028)" fill="#00D3A9" fill-opacity="0.1"/>
<circle cx="4.80364" cy="4.8028" r="4.8028" transform="rotate(90 4.80364 4.8028)" fill="#00D3A9" fill-opacity="0.1"/>
<circle cx="142.197" cy="43.2252" r="4.8028" transform="rotate(90 142.197 43.2252)" fill="#00D3A9" fill-opacity="0.1"/>
<circle cx="126.931" cy="43.2252" r="4.8028" transform="rotate(90 126.931 43.2252)" fill="#00D3A9" fill-opacity="0.1"/>
<circle cx="111.665" cy="43.2252" r="4.8028" transform="rotate(90 111.665 43.2252)" fill="#00D3A9" fill-opacity="0.1"/>
<circle cx="96.3993" cy="43.2252" r="4.8028" transform="rotate(90 96.3993 43.2252)" fill="#00D3A9" fill-opacity="0.1"/>
<circle cx="81.1337" cy="43.2252" r="4.8028" transform="rotate(90 81.1337 43.2252)" fill="#00D3A9" fill-opacity="0.1"/>
<circle cx="65.8671" cy="43.2252" r="4.8028" transform="rotate(90 65.8671 43.2252)" fill="#00D3A9" fill-opacity="0.1"/>
<circle cx="50.6005" cy="43.2252" r="4.8028" transform="rotate(90 50.6005 43.2252)" fill="#00D3A9" fill-opacity="0.1"/>
<circle cx="35.3349" cy="43.2252" r="4.8028" transform="rotate(90 35.3349 43.2252)" fill="#00D3A9" fill-opacity="0.1"/>
<circle cx="20.0683" cy="43.2252" r="4.8028" transform="rotate(90 20.0683 43.2252)" fill="#00D3A9" fill-opacity="0.1"/>
<circle cx="4.80364" cy="43.2252" r="4.8028" transform="rotate(90 4.80364 43.2252)" fill="#00D3A9" fill-opacity="0.1"/>
</svg>
