<?xml version="1.0" encoding="utf-8"?>
<!-- Generator: Adobe Illustrator 26.0.2, SVG Export Plug-In . SVG Version: 6.00 Build 0)  -->
<svg version="1.1" id="Layer_1" xmlns="http://www.w3.org/2000/svg" xmlns:xlink="http://www.w3.org/1999/xlink" x="0px" y="0px"
	 viewBox="0 0 1155.2 645" style="enable-background:new 0 0 1155.2 645;" xml:space="preserve">
<style type="text/css">
	.st0{fill:#9FBFCD;}
	.st1{fill:#477E96;}
	.st2{fill:#FFFFFF;}
	.st3{fill:#00D3A9;}
	.st4{fill:#00B39F;}
	.st5{fill:#BCCDD3;}
</style>
<path class="st0" d="M18.4,520.1c-84,124,140.2,160.9,263.1,87c65.3-39.3,150.3,20.4,226.9,21.1c77.4,0.8,154-20.2,231.2-16.2
	c76.4,4,152,26.6,228.5,24.7c91.4-2.3,164.7-81.7,148.8-175.9c-9.9-58.4-116.1-77.6-142.5-128C930.1,248.2,971,85.3,858.9,60.9
	c-60.1-13.1-76.3,65.2-139,43.2C618.9,68.6,557.9-19,435.7,3.7c-61.3,11.4-96.9,66.2-156.4,82.5c-74.3,20.3-143,16.5-199.6,79.5
	c-71.9,80.1,23.2,138.4,19.5,219.7c-0.9,20.4-5.1,40.6-15.1,58.6C67.6,473.5,37.3,492.3,18.4,520.1z"/>
<path class="st1" d="M4,546.5h1102.3c0,0,10.8-26.6,11.8-36.3c1-9.7,1.2-23,1.2-23s-81.3-88.3-147.3-81.9
	c-86,8.4-123.8,28.5-191-4.4c-62.7-30.6-22.3-200.2-156-200.9c-150.8-0.7-103.2,191.3-172.3,197.5c-58.9,5.3-67.3-96.3-142.1-125.6
	C235.8,242.6,78.3,235.3,4,546.5z"/>
<path class="st2" d="M947.1,324.7c4.1-10.7,6.4-22.4,6.4-34.6c0-53-43-96-96-96c-19.7,0-38.1,6-53.3,16.2
	c-27.7-48-79.4-80.2-138.7-80.2c-88.4,0-160,71.6-160,160c0,2.7,0.1,5.4,0.2,8.1c-56,19.7-96.2,73.1-96.2,135.9
	c0,79.5,64.5,144,144,144h368c70.7,0,128-57.3,128-128C1049.5,388.2,1005.5,336.5,947.1,324.7z"/>
<g>
	<polygon class="st3" points="742.8,320.5 742.8,388.1 801.3,354.2 	"/>
	<polygon class="st3" points="742.8,402.3 742.8,470.2 801.9,436.4 	"/>
	<polygon class="st4" points="734.3,387.7 734.3,321.1 676.5,354.3 	"/>
	<path class="st4" d="M618.3,469.9c11.3,18.2,26.7,33.7,44.9,45.2V444L618.3,469.9z"/>
	<polygon class="st4" points="734.3,469.9 734.3,402.7 676.3,436.3 	"/>
	<polygon class="st3" points="671.6,510.9 730.3,477.3 671.6,443.3 	"/>
	<polygon class="st4" points="805.9,511.2 805.9,443.8 747.2,477.3 	"/>
	<path class="st4" d="M863.3,462.1c9.8-18.2,15.7-38.8,16.6-60.7l-61.1,35L863.3,462.1z"/>
	<polygon class="st3" points="814.3,429.3 873.3,395.6 814.3,361.7 	"/>
	<polygon class="st4" points="805.9,347.1 805.9,280.1 747.5,313.5 	"/>
	<polygon class="st4" points="805.9,429 805.9,361.3 747.4,395.2 	"/>
	<path class="st4" d="M738.5,536.8L738.5,536.8L738.5,536.8z"/>
	<polygon class="st3" points="671.6,361.2 671.6,429.3 730.5,395.2 	"/>
	<path class="st4" d="M734.3,253.8c-22.4,0.7-43.5,6.5-62.1,16.4l62.1,35.7V253.8z"/>
	<polygon class="st3" points="671.6,279.6 671.6,347.3 730.6,313.5 	"/>
	<path class="st4" d="M663.1,275.5c-18.2,11.5-33.5,26.9-44.9,45.2l44.9,25.9V275.5z"/>
	<path class="st3" d="M805.5,270.6c-18.8-10.1-40.1-16.1-62.7-16.7v52.7L805.5,270.6z"/>
	<path class="st3" d="M597.1,400.3c0.8,22.5,6.8,43.7,16.9,62.4l45.5-26.3L597.1,400.3z"/>
	<path class="st3" d="M614,328c-10.1,18.6-16.1,39.7-16.9,62.1l62.4-35.8L614,328z"/>
	<path class="st4" d="M672.1,520.3c18.7,9.9,39.8,15.8,62.2,16.5v-52.1L672.1,520.3z"/>
	<path class="st3" d="M858.9,320.9c-11.3-18.2-26.6-33.6-44.6-45.1v70.9L858.9,320.9z"/>
	<path class="st3" d="M814.3,514.9c18.2-11.5,33.5-27.1,44.8-45.4l-44.8-25.9V514.9z"/>
	<path class="st4" d="M879.9,389.7c-0.9-22.2-6.8-43.1-16.8-61.5l-44.9,26L879.9,389.7z"/>
	<path class="st3" d="M742.8,536.8c22.4-0.7,43.5-6.5,62.1-16.4l-62.1-35.9V536.8z"/>
	<polygon class="st4" points="663.1,428.7 663.1,361.9 605.1,395.2 	"/>
</g>
<path class="st5" d="M336.6,354.1h152.9v-5.6H336.6V354.1z M322.8,377.7h67.6v-5.6h-67.6V377.7z M417.5,401.9h119.3v-6.6H417.5
	V401.9z M350.2,420.5h119.3v-6.6H350.2V420.5z M265.5,476.8h119.3v-6.6H265.5V476.8z M371.3,455.4h38.2v-5.6h-38.2V455.4z
	 M307.6,432.4h38.2v-5.6h-38.2V432.4z"/>
</svg>
