<svg width="584" height="200" viewBox="0 0 584 200" fill="none" xmlns="http://www.w3.org/2000/svg">
<rect x="24.5" y="2.5" width="115" height="145" rx="22.5" fill="#326CE5" stroke="#326CE5" stroke-width="5"/>
<path d="M51 106C51 99.6348 53.4904 93.5303 57.9235 89.0294C62.3565 84.5286 68.3689 82 74.6382 82C80.9074 82 86.9199 84.5286 91.3529 89.0294C95.7859 93.5303 98.2764 99.6348 98.2764 106H51ZM74.6382 79C64.8431 79 56.9095 70.945 56.9095 61C56.9095 51.055 64.8431 43 74.6382 43C84.4333 43 92.3668 51.055 92.3668 61C92.3668 70.945 84.4333 79 74.6382 79ZM96.3942 85.699C100.914 86.8784 104.952 89.4755 107.934 93.1205C110.915 96.7655 112.688 101.273 113 106H104.186C104.186 98.17 101.231 91.042 96.3942 85.699ZM90.4167 78.871C92.8928 76.6224 94.8729 73.868 96.2274 70.7882C97.5819 67.7085 98.2801 64.3729 98.2764 61C98.2827 56.9004 97.2498 52.8681 95.2773 49.291C98.624 49.9738 101.634 51.8121 103.797 54.4936C105.96 57.1751 107.141 60.5342 107.141 64C107.141 66.1374 106.692 68.2503 105.823 70.197C104.954 72.1438 103.685 73.8794 102.101 75.2876C100.518 76.6958 98.656 77.7441 96.6407 78.3621C94.6254 78.9801 92.5034 79.1536 90.4167 78.871Z" fill="white"/>
<path fill-rule="evenodd" clip-rule="evenodd" d="M468.623 142.631C431.271 124.748 415.486 79.967 433.368 42.6105C441.955 24.6712 457.316 10.8783 476.071 4.26587C494.826 -2.34652 515.44 -1.2366 533.377 7.35132C570.729 25.2348 586.514 70.0157 568.632 107.372C550.751 144.729 505.975 160.515 468.623 142.631Z" fill="#326CE5"/>
<path d="M482.715 55.6338C482.845 55.4736 482.926 55.3855 482.991 55.2894C484.334 53.2632 486.211 51.8697 488.404 50.8606C491.488 49.4351 494.741 48.6182 498.115 48.2898C503.27 47.7933 508.214 48.6182 512.965 50.6284C514.429 51.2531 515.838 52.0139 516.995 53.1111C517.658 53.7358 518.2 54.4726 518.791 55.1613C518.913 55.3055 519.018 55.4576 519.155 55.6418C519.754 55.3215 520.329 55.0171 520.903 54.6968C524.966 52.3983 527.919 49.0827 529.959 44.9422C530.865 43.1082 531.682 41.2342 532.556 39.3841C532.734 39.0157 532.945 38.6473 533.188 38.319C533.519 37.8785 533.851 37.8865 534.062 38.3911C534.32 38.9997 534.547 39.6404 534.644 40.2891C535.445 45.703 534.685 50.8606 531.642 55.4897C529.473 58.7892 526.714 61.5923 523.461 63.8908C523.193 64.083 523.104 64.2432 523.185 64.5715C523.55 66.0451 523.687 67.5428 523.695 69.0564C523.703 71.3789 523.752 73.7015 523.776 76.024C523.776 76.2643 523.841 76.3924 524.076 76.5125C524.715 76.8329 525.103 77.4015 525.395 78.0342C525.848 79.0112 525.977 80.0524 526.034 81.1095C526.374 87.1241 523.946 92.0494 519.908 96.3501C519.714 96.5503 519.568 96.8226 519.487 97.0949C517.861 102.397 514.996 106.834 510.319 109.989C507.599 111.823 504.581 112.888 501.279 112.992C498.641 113.08 496.149 112.416 493.794 111.262C489.554 109.196 486.503 105.929 484.31 101.836C483.484 100.298 482.853 98.6887 482.359 97.0148C482.295 96.7826 482.149 96.5503 481.987 96.3741C479.155 93.4349 477.124 90.0633 476.201 86.0829C475.675 83.8085 475.651 81.502 476.072 79.2115C476.225 78.4026 476.541 77.6498 477.116 77.0331C477.253 76.8889 477.391 76.6967 477.569 76.6407C478.103 76.4645 478.095 76.0801 478.103 75.6316C478.119 73.1088 478.111 70.5861 478.216 68.0633C478.265 66.87 478.499 65.6847 478.702 64.4995C478.758 64.1631 478.694 64.0029 478.427 63.8107C475.173 61.5042 472.462 58.6531 470.229 55.3775C468.432 52.7427 467.558 49.7474 467.186 46.608C466.911 44.3015 466.903 41.995 467.421 39.7205C467.518 39.28 467.672 38.8476 467.858 38.4391C468.109 37.8865 468.449 37.8625 468.813 38.367C469.047 38.6874 469.25 39.0478 469.42 39.4082C470.318 41.3142 471.16 43.2523 472.106 45.1424C473.927 48.7704 476.468 51.8057 479.948 54.008C480.846 54.5607 481.769 55.0812 482.715 55.6338ZM492.2 85.0018C493.81 84.9777 494.967 84.6013 495.995 83.8325C497.047 83.0476 497.654 81.9985 497.8 80.6931C497.832 80.3567 497.759 80.1645 497.379 80.1245C497.071 80.0924 496.772 79.9963 496.472 79.9323C492.483 79.1234 488.502 78.3225 484.512 77.5136C484.051 77.4175 483.921 77.5216 484.075 77.9541C484.31 78.5868 484.552 79.2435 484.925 79.7961C486.187 81.6541 487.854 83.0957 489.804 84.2169C490.638 84.7054 491.536 85.0258 492.2 85.0018ZM509.339 85.0018C510.1 85.0098 510.82 84.8576 511.492 84.5212C513.806 83.376 515.684 81.7182 517.108 79.5879C517.432 79.0993 517.626 78.5067 517.82 77.9461C517.958 77.5457 517.82 77.4335 517.391 77.5216C513.078 78.3946 508.765 79.2755 504.452 80.1405C504.136 80.2045 504.015 80.3727 504.087 80.637C504.265 81.2617 504.371 81.9424 504.694 82.479C505.73 84.1929 507.389 84.8896 509.339 85.0018Z" fill="white"/>
<path d="M430.994 169.6H424.594H422.322C421.874 169.6 421.65 169.856 421.65 170.304V191.328C421.65 191.776 421.874 192 422.322 192H422.77H430.994C437.17 192 441.65 187.04 441.65 180.8C441.65 174.592 437.17 169.6 430.994 169.6ZM430.994 189.184H424.594V172.416H430.994C435.634 172.416 438.77 176.096 438.77 180.8C438.77 185.536 435.634 189.184 430.994 189.184ZM450.971 175.616C447.643 175.616 445.147 177.504 444.763 180.416C444.731 180.896 445.019 181.12 445.435 181.12H446.843C447.259 181.12 447.451 180.896 447.579 180.512C447.867 179.008 449.307 178.24 450.971 178.24C452.827 178.24 454.427 179.232 454.427 181.76V184.032C453.403 182.88 451.707 182.176 449.691 182.176C446.779 182.176 444.059 183.872 444.059 187.296C444.059 190.72 446.779 192.416 449.691 192.416C451.707 192.416 453.403 191.744 454.427 190.368V191.328C454.427 191.776 454.683 192 455.099 192H456.507C456.955 192 457.179 191.776 457.179 191.328V181.696C457.179 177.824 454.523 175.616 450.971 175.616ZM450.491 190.08C447.995 190.08 446.843 188.896 446.843 187.296C446.843 185.696 447.995 184.512 450.491 184.512C452.795 184.512 454.427 185.6 454.427 187.296C454.427 188.896 452.795 190.08 450.491 190.08ZM468.41 175.616C463.418 175.616 460.122 179.296 460.122 184C460.122 188.832 463.45 192.416 468.442 192.416C471.706 192.416 474.33 190.784 475.45 188.256C475.642 187.84 475.385 187.552 474.874 187.552H473.338C472.954 187.552 472.73 187.712 472.506 188C471.77 189.12 470.33 189.92 468.474 189.92C465.658 189.92 463.482 188.224 463.002 185.28H473.434H475.514C475.93 185.28 476.218 185.088 476.25 184.64C476.25 184.448 476.25 184.256 476.25 184.064C476.25 179.552 473.242 175.616 468.41 175.616ZM463.002 182.848C463.418 180.064 465.434 178.208 468.41 178.208C470.81 178.208 473.018 179.712 473.434 182.848H463.002ZM495.011 175.616C493.219 175.616 491.587 176.256 490.403 178.112C489.539 176.48 487.971 175.616 486.243 175.616C484.707 175.616 483.203 176.192 482.115 177.76V176.704C482.115 176.256 481.859 176 481.443 176H480.003C479.555 176 479.331 176.256 479.331 176.704V191.328C479.331 191.776 479.555 192 480.003 192H481.443C481.859 192 482.115 191.776 482.115 191.328V182.272C482.115 179.136 484.067 178.24 485.507 178.24C487.011 178.24 488.291 179.104 488.291 181.344V191.328C488.291 191.776 488.547 192 488.963 192H490.403C490.851 192 491.075 191.776 491.075 191.328V182.272C491.075 179.136 493.027 178.24 494.467 178.24C495.971 178.24 497.251 179.104 497.251 181.344V191.328C497.251 191.776 497.507 192 497.955 192H499.363C499.811 192 500.035 191.776 500.035 191.328V181.216C500.035 177.536 497.827 175.616 495.011 175.616ZM511.413 192.416C516.085 192.416 519.829 188.768 519.829 184C519.829 179.264 516.085 175.616 511.413 175.616C506.709 175.616 502.965 179.264 502.965 184C502.965 188.768 506.709 192.416 511.413 192.416ZM511.413 189.696C508.213 189.696 505.749 187.232 505.749 184C505.749 180.768 508.213 178.304 511.413 178.304C514.581 178.304 517.045 180.768 517.045 184C517.045 187.232 514.581 189.696 511.413 189.696ZM530.663 175.616C528.711 175.616 527.079 176.256 525.927 177.984V176.704C525.927 176.256 525.671 176 525.255 176H523.815C523.367 176 523.143 176.256 523.143 176.704V191.328C523.143 191.776 523.367 192 523.815 192H525.255C525.671 192 525.927 191.776 525.927 191.328V182.912C525.927 179.456 527.911 178.24 529.927 178.24C531.815 178.24 533.223 179.424 533.223 181.728V191.328C533.223 191.776 533.479 192 533.927 192H535.335C535.783 192 536.007 191.776 536.007 191.328V181.632C536.007 177.856 533.639 175.616 530.663 175.616ZM546.837 192.416C550.741 192.416 554.197 190.112 554.197 186.208C554.197 181.856 550.229 180.64 546.901 179.392C544.405 178.432 542.421 177.536 542.421 175.296C542.421 173.28 544.117 172.096 546.389 172.096C548.629 172.096 550.293 173.152 550.581 175.232C550.613 175.648 550.837 175.872 551.253 175.872H552.885C553.333 175.872 553.557 175.648 553.525 175.168C553.205 171.264 549.973 169.216 546.389 169.216C542.805 169.216 539.445 171.392 539.445 175.296C539.445 179.776 543.253 180.96 546.581 182.208C549.077 183.104 551.253 184.032 551.253 186.208C551.253 188.224 549.429 189.536 546.837 189.536C544.117 189.536 542.197 188.32 541.877 186.048C541.845 185.6 541.621 185.376 541.205 185.376H539.573C539.125 185.376 538.901 185.632 538.933 186.08C539.253 190.24 542.773 192.416 546.837 192.416ZM564.816 175.616C559.824 175.616 556.528 179.296 556.528 184C556.528 188.832 559.856 192.416 564.848 192.416C568.112 192.416 570.736 190.784 571.856 188.256C572.048 187.84 571.792 187.552 571.28 187.552H569.744C569.36 187.552 569.136 187.712 568.912 188C568.176 189.12 566.736 189.92 564.88 189.92C562.064 189.92 559.888 188.224 559.408 185.28H569.84H571.92C572.336 185.28 572.624 185.088 572.656 184.64C572.656 184.448 572.656 184.256 572.656 184.064C572.656 179.552 569.648 175.616 564.816 175.616ZM559.408 182.848C559.824 180.064 561.84 178.208 564.816 178.208C567.216 178.208 569.424 179.712 569.84 182.848H559.408ZM582.461 176H579.997V171.584C579.997 171.136 579.773 170.88 579.325 170.88H577.885C577.469 170.88 577.213 171.136 577.213 171.584V176H574.749C574.301 176 574.045 176.256 574.045 176.704V178.016C574.045 178.464 574.301 178.688 574.749 178.688H577.213V191.328C577.213 191.776 577.469 192 577.885 192H579.325C579.773 192 579.997 191.776 579.997 191.328V178.688H582.461C582.909 178.688 583.133 178.464 583.133 178.016V176.704C583.133 176.256 582.909 176 582.461 176Z" fill="black"/>
<path d="M70.4806 192.168L63.4726 184.072C66.1926 183.112 68.1446 180.552 68.1446 177.576C68.1446 173.736 65.0406 170.6 61.2006 170.6H55.9846H53.7126C53.2646 170.6 53.0406 170.856 53.0406 171.304V192.328C53.0406 192.776 53.2646 193 53.7126 193H55.3126C55.7606 193 55.9846 192.776 55.9846 192.328V184.456H60.2406L67.2486 192.616C67.4726 192.904 67.7606 193 68.1126 193H70.0966C70.6726 193 70.8326 192.616 70.4806 192.168ZM55.9846 173.384H61.2006C63.3766 173.384 65.2006 175.24 65.2006 177.576C65.2006 179.88 63.3766 181.736 61.2006 181.736H55.9846V173.384ZM79.4289 193.416C84.1009 193.416 87.8449 189.768 87.8449 185C87.8449 180.264 84.1009 176.616 79.4289 176.616C74.7249 176.616 70.9809 180.264 70.9809 185C70.9809 189.768 74.7249 193.416 79.4289 193.416ZM79.4289 190.696C76.2289 190.696 73.7649 188.232 73.7649 185C73.7649 181.768 76.2289 179.304 79.4289 179.304C82.5969 179.304 85.0609 181.768 85.0609 185C85.0609 188.232 82.5969 190.696 79.4289 190.696ZM91.8309 193H93.2709C93.6869 193 93.9429 192.776 93.9429 192.328V170.664C93.9429 170.216 93.6869 169.96 93.2709 169.96H91.8309C91.3829 169.96 91.1589 170.216 91.1589 170.664V192.328C91.1589 192.776 91.3829 193 91.8309 193ZM105.55 176.616C100.558 176.616 97.2621 180.296 97.2621 185C97.2621 189.832 100.59 193.416 105.582 193.416C108.846 193.416 111.47 191.784 112.59 189.256C112.782 188.84 112.526 188.552 112.014 188.552H110.478C110.094 188.552 109.87 188.712 109.646 189C108.91 190.12 107.47 190.92 105.614 190.92C102.798 190.92 100.622 189.224 100.142 186.28H110.574H112.654C113.07 186.28 113.358 186.088 113.39 185.64C113.39 185.448 113.39 185.256 113.39 185.064C113.39 180.552 110.382 176.616 105.55 176.616ZM100.142 183.848C100.558 181.064 102.574 179.208 105.55 179.208C107.95 179.208 110.158 180.712 110.574 183.848H100.142Z" fill="black"/>
<path d="M427.064 76.123C427.648 75.5352 427.645 74.5855 427.057 74.0016L417.48 64.4872C416.892 63.9033 415.943 63.9064 415.359 64.4941C414.775 65.0818 414.778 66.0316 415.366 66.6154L423.879 75.0728L415.422 83.5859C414.838 84.1736 414.841 85.1234 415.429 85.7072C416.016 86.2911 416.966 86.288 417.55 85.7002L427.064 76.123ZM142.005 77.5L426.005 76.5658L425.995 73.5658L141.995 74.5L142.005 77.5Z" fill="#1A1A1A"/>
<rect x="242.5" y="22.5" width="83" height="105" rx="22.5" fill="#326CE5" stroke="#326CE5" stroke-width="5"/>
<path d="M268.714 97.251C268.714 92.8054 270.555 88.542 273.832 85.3985C277.109 82.2551 281.554 80.4891 286.189 80.4891C290.823 80.4891 295.268 82.2551 298.545 85.3985C301.822 88.542 303.664 92.8054 303.664 97.251H268.714ZM286.189 78.3938C278.947 78.3938 273.082 72.7681 273.082 65.8224C273.082 58.8767 278.947 53.251 286.189 53.251C293.43 53.251 299.295 58.8767 299.295 65.8224C299.295 72.7681 293.43 78.3938 286.189 78.3938ZM302.272 83.0725C305.613 83.8962 308.599 85.7101 310.803 88.2558C313.007 90.8015 314.318 93.9492 314.548 97.251H308.032C308.032 91.7824 305.848 86.8041 302.272 83.0725ZM297.853 78.3037C299.684 76.7333 301.147 74.8096 302.149 72.6586C303.15 70.5077 303.666 68.1781 303.664 65.8224C303.668 62.9592 302.905 60.143 301.446 57.6447C303.92 58.1215 306.146 59.4055 307.745 61.2782C309.344 63.151 310.217 65.4971 310.217 67.9176C310.217 69.4104 309.885 70.8861 309.243 72.2457C308.6 73.6054 307.662 74.8176 306.491 75.8011C305.321 76.7846 303.944 77.5167 302.454 77.9483C300.965 78.3799 299.396 78.5011 297.853 78.3037Z" fill="white"/>
<path d="M262.749 77.0348H268.4V80.6023H262.749V85.9537H258.982V80.6023H253.331V77.0348H258.982V71.6834H262.749V77.0348Z" fill="white"/>
<path d="M268.714 97.251C268.714 92.8054 270.555 88.542 273.832 85.3985C277.109 82.2551 281.554 80.4891 286.189 80.4891C290.823 80.4891 295.268 82.2551 298.545 85.3985C301.822 88.542 303.664 92.8054 303.664 97.251H268.714ZM286.189 78.3938C278.947 78.3938 273.082 72.7681 273.082 65.8224C273.082 58.8767 278.947 53.251 286.189 53.251C293.43 53.251 299.295 58.8767 299.295 65.8224C299.295 72.7681 293.43 78.3938 286.189 78.3938ZM302.272 83.0725C305.613 83.8962 308.599 85.7101 310.803 88.2558C313.007 90.8015 314.318 93.9492 314.548 97.251H308.032C308.032 91.7824 305.848 86.8041 302.272 83.0725ZM297.853 78.3037C299.684 76.7333 301.147 74.8096 302.149 72.6586C303.15 70.5077 303.666 68.1781 303.664 65.8224C303.668 62.9592 302.905 60.143 301.446 57.6447C303.92 58.1215 306.146 59.4055 307.745 61.2782C309.344 63.151 310.217 65.4971 310.217 67.9176C310.217 69.4104 309.885 70.8861 309.243 72.2457C308.6 73.6054 307.662 74.8176 306.491 75.8011C305.321 76.7846 303.944 77.5167 302.454 77.9483C300.965 78.3799 299.396 78.5011 297.853 78.3037Z" stroke="black"/>
<path d="M262.749 77.0348H268.4V80.6023H262.749V85.9537H258.982V80.6023H253.331V77.0348H258.982V71.6834H262.749V77.0348Z" stroke="black"/>
<path d="M272.481 162.168L265.473 154.072C268.193 153.112 270.145 150.552 270.145 147.576C270.145 143.736 267.041 140.6 263.201 140.6H257.985H255.713C255.265 140.6 255.041 140.856 255.041 141.304V162.328C255.041 162.776 255.265 163 255.713 163H257.313C257.761 163 257.985 162.776 257.985 162.328V154.456H262.241L269.249 162.616C269.473 162.904 269.761 163 270.113 163H272.097C272.673 163 272.833 162.616 272.481 162.168ZM257.985 143.384H263.201C265.377 143.384 267.201 145.24 267.201 147.576C267.201 149.88 265.377 151.736 263.201 151.736H257.985V143.384ZM281.429 163.416C286.101 163.416 289.845 159.768 289.845 155C289.845 150.264 286.101 146.616 281.429 146.616C276.725 146.616 272.981 150.264 272.981 155C272.981 159.768 276.725 163.416 281.429 163.416ZM281.429 160.696C278.229 160.696 275.765 158.232 275.765 155C275.765 151.768 278.229 149.304 281.429 149.304C284.597 149.304 287.061 151.768 287.061 155C287.061 158.232 284.597 160.696 281.429 160.696ZM293.831 163H295.271C295.687 163 295.943 162.776 295.943 162.328V140.664C295.943 140.216 295.687 139.96 295.271 139.96H293.831C293.383 139.96 293.159 140.216 293.159 140.664V162.328C293.159 162.776 293.383 163 293.831 163ZM307.55 146.616C302.558 146.616 299.262 150.296 299.262 155C299.262 159.832 302.59 163.416 307.582 163.416C310.846 163.416 313.47 161.784 314.59 159.256C314.782 158.84 314.526 158.552 314.014 158.552H312.478C312.094 158.552 311.87 158.712 311.646 159C310.91 160.12 309.47 160.92 307.614 160.92C304.798 160.92 302.622 159.224 302.142 156.28H312.574H314.654C315.07 156.28 315.358 156.088 315.39 155.64C315.39 155.448 315.39 155.256 315.39 155.064C315.39 150.552 312.382 146.616 307.55 146.616ZM302.142 153.848C302.558 151.064 304.574 149.208 307.55 149.208C309.95 149.208 312.158 150.712 312.574 153.848H302.142ZM246.252 179.016C246.732 178.216 247.02 177.256 247.02 176.296C247.02 173.128 244.588 170.632 240.972 170.632H234.86H232.588C232.14 170.632 231.916 170.856 231.916 171.304V192.328C231.916 192.776 232.14 193.032 232.588 193.032H233.196H243.308C247.372 193.032 250.38 189.768 250.38 185.736C250.38 182.728 248.748 180.168 246.252 179.016ZM240.972 173.384C242.924 173.384 244.076 174.696 244.076 176.36C244.076 177.128 243.788 177.832 243.308 178.376H234.86V173.384H240.972ZM242.892 190.216H234.86V181.064H242.924C245.74 181.064 247.404 183.112 247.404 185.64C247.404 188.168 245.708 190.216 242.892 190.216ZM254.206 174.12H255.646C256.062 174.12 256.318 173.896 256.318 173.448V171.304C256.318 170.856 256.062 170.6 255.646 170.6H254.206C253.758 170.6 253.534 170.856 253.534 171.304V173.448C253.534 173.896 253.758 174.12 254.206 174.12ZM254.206 193H255.646C256.062 193 256.318 192.776 256.318 192.328V177.704C256.318 177.256 256.062 177 255.646 177H254.206C253.758 177 253.534 177.256 253.534 177.704V192.328C253.534 192.776 253.758 193 254.206 193ZM268.085 176.616C266.133 176.616 264.501 177.256 263.349 178.984V177.704C263.349 177.256 263.093 177 262.677 177H261.237C260.789 177 260.565 177.256 260.565 177.704V192.328C260.565 192.776 260.789 193 261.237 193H262.677C263.093 193 263.349 192.776 263.349 192.328V183.912C263.349 180.456 265.333 179.24 267.349 179.24C269.237 179.24 270.645 180.424 270.645 182.728V192.328C270.645 192.776 270.901 193 271.349 193H272.757C273.205 193 273.429 192.776 273.429 192.328V182.632C273.429 178.856 271.061 176.616 268.085 176.616ZM292.643 170.6H291.203C290.787 170.6 290.531 170.856 290.531 171.304V179.72C289.251 177.8 287.203 176.616 284.483 176.616C280.067 176.616 276.387 180.264 276.387 185C276.387 189.768 280.067 193.416 284.483 193.416C287.203 193.416 289.251 192.232 290.531 190.312V192.328C290.531 192.776 290.787 193 291.203 193H292.643C293.091 193 293.315 192.776 293.315 192.328V171.304C293.315 170.856 293.091 170.6 292.643 170.6ZM284.867 190.728C281.635 190.728 279.171 188.264 279.171 185C279.171 181.736 281.635 179.272 284.867 179.272C288.067 179.272 290.531 181.736 290.531 185C290.531 188.264 288.067 190.728 284.867 190.728ZM298.237 174.12H299.677C300.093 174.12 300.349 173.896 300.349 173.448V171.304C300.349 170.856 300.093 170.6 299.677 170.6H298.237C297.789 170.6 297.565 170.856 297.565 171.304V173.448C297.565 173.896 297.789 174.12 298.237 174.12ZM298.237 193H299.677C300.093 193 300.349 192.776 300.349 192.328V177.704C300.349 177.256 300.093 177 299.677 177H298.237C297.789 177 297.565 177.256 297.565 177.704V192.328C297.565 192.776 297.789 193 298.237 193ZM312.116 176.616C310.164 176.616 308.532 177.256 307.38 178.984V177.704C307.38 177.256 307.124 177 306.708 177H305.268C304.82 177 304.596 177.256 304.596 177.704V192.328C304.596 192.776 304.82 193 305.268 193H306.708C307.124 193 307.38 192.776 307.38 192.328V183.912C307.38 180.456 309.364 179.24 311.38 179.24C313.268 179.24 314.676 180.424 314.676 182.728V192.328C314.676 192.776 314.932 193 315.38 193H316.788C317.236 193 317.46 192.776 317.46 192.328V182.632C317.46 178.856 315.092 176.616 312.116 176.616ZM336.674 177H335.266C334.85 177 334.594 177.256 334.594 177.704V179.752C333.314 177.832 331.234 176.616 328.514 176.616C324.098 176.616 320.418 180.264 320.418 184.936C320.418 189.608 324.098 193.256 328.514 193.256C331.234 193.256 333.314 192.04 334.594 190.12V192.328C334.594 195.336 332.706 197.224 329.282 197.224C326.498 197.224 324.77 195.72 324.386 194.312C324.258 193.896 324.066 193.704 323.65 193.704H322.21C321.794 193.704 321.506 193.928 321.538 194.408C321.986 197.64 325.538 199.816 329.282 199.816C333.474 199.816 337.346 197.32 337.346 192.328V177.704C337.346 177.256 337.122 177 336.674 177ZM328.898 190.6C325.666 190.6 323.202 188.136 323.202 184.936C323.202 181.704 325.666 179.24 328.898 179.24C332.13 179.24 334.594 181.704 334.594 184.936C334.594 188.136 332.13 190.6 328.898 190.6Z" fill="black"/>
</svg>
