<svg width="584" height="204" viewBox="0 0 584 204" fill="none" xmlns="http://www.w3.org/2000/svg">
<rect x="24.5" y="6.5" width="115" height="145" rx="22.5" fill="#326CE5" stroke="#326CE5" stroke-width="5"/>
<path d="M51 110C51 103.635 53.4904 97.5303 57.9235 93.0294C62.3565 88.5286 68.3689 86 74.6382 86C80.9074 86 86.9199 88.5286 91.3529 93.0294C95.7859 97.5303 98.2764 103.635 98.2764 110H51ZM74.6382 83C64.8431 83 56.9095 74.945 56.9095 65C56.9095 55.055 64.8431 47 74.6382 47C84.4333 47 92.3668 55.055 92.3668 65C92.3668 74.945 84.4333 83 74.6382 83ZM96.3942 89.699C100.914 90.8784 104.952 93.4755 107.934 97.1205C110.915 100.765 112.688 105.273 113 110H104.186C104.186 102.17 101.231 95.042 96.3942 89.699ZM90.4167 82.871C92.8928 80.6224 94.8729 77.868 96.2274 74.7882C97.5819 71.7085 98.2801 68.3729 98.2764 65C98.2827 60.9004 97.2498 56.8681 95.2773 53.291C98.624 53.9738 101.634 55.8121 103.797 58.4936C105.96 61.1751 107.141 64.5342 107.141 68C107.141 70.1374 106.692 72.2503 105.823 74.197C104.954 76.1438 103.685 77.8794 102.101 79.2876C100.518 80.6958 98.656 81.7441 96.6407 82.3621C94.6254 82.9801 92.5034 83.1536 90.4167 82.871Z" fill="white"/>
<path d="M431.564 45.7469L433.368 46.6105L431.564 45.747C413.206 84.0996 429.411 130.075 467.759 148.435C506.108 166.796 552.078 150.589 570.436 112.236C588.794 73.883 572.589 27.9079 534.241 9.54742C515.825 0.730411 494.662 -0.409117 475.406 6.37966C456.15 13.1684 440.38 27.3293 431.564 45.7469Z" fill="#326CE5" stroke="url(#paint0_linear_9882_32188)" stroke-width="4"/>
<path d="M482.715 59.6338C482.845 59.4736 482.926 59.3855 482.991 59.2894C484.334 57.2632 486.211 55.8697 488.404 54.8606C491.488 53.4351 494.741 52.6182 498.115 52.2898C503.27 51.7933 508.214 52.6182 512.965 54.6284C514.429 55.2531 515.838 56.0139 516.995 57.1111C517.658 57.7358 518.2 58.4726 518.791 59.1613C518.913 59.3055 519.018 59.4576 519.155 59.6418C519.754 59.3215 520.329 59.0171 520.903 58.6968C524.966 56.3983 527.919 53.0827 529.959 48.9422C530.865 47.1082 531.682 45.2342 532.556 43.3841C532.734 43.0157 532.945 42.6473 533.188 42.319C533.519 41.8785 533.851 41.8865 534.062 42.3911C534.32 42.9997 534.547 43.6404 534.644 44.2891C535.445 49.703 534.685 54.8606 531.642 59.4897C529.473 62.7892 526.714 65.5923 523.461 67.8908C523.193 68.083 523.104 68.2432 523.185 68.5715C523.55 70.0451 523.687 71.5428 523.695 73.0564C523.703 75.3789 523.752 77.7015 523.776 80.024C523.776 80.2643 523.841 80.3924 524.076 80.5125C524.715 80.8329 525.103 81.4015 525.395 82.0342C525.848 83.0112 525.977 84.0524 526.034 85.1095C526.374 91.1241 523.946 96.0494 519.908 100.35C519.714 100.55 519.568 100.823 519.487 101.095C517.861 106.397 514.996 110.834 510.319 113.989C507.599 115.823 504.581 116.888 501.279 116.992C498.641 117.08 496.149 116.416 493.794 115.262C489.554 113.196 486.503 109.929 484.31 105.836C483.484 104.298 482.853 102.689 482.359 101.015C482.295 100.783 482.149 100.55 481.987 100.374C479.155 97.4349 477.124 94.0633 476.201 90.0829C475.675 87.8085 475.651 85.502 476.072 83.2115C476.225 82.4026 476.541 81.6498 477.116 81.0331C477.253 80.8889 477.391 80.6967 477.569 80.6407C478.103 80.4645 478.095 80.0801 478.103 79.6316C478.119 77.1088 478.111 74.5861 478.216 72.0633C478.265 70.87 478.499 69.6847 478.702 68.4995C478.758 68.1631 478.694 68.0029 478.427 67.8107C475.173 65.5042 472.462 62.6531 470.229 59.3775C468.432 56.7427 467.558 53.7474 467.186 50.608C466.911 48.3015 466.903 45.995 467.421 43.7205C467.518 43.28 467.672 42.8476 467.858 42.4391C468.109 41.8865 468.449 41.8625 468.813 42.367C469.047 42.6874 469.25 43.0478 469.42 43.4082C470.318 45.3142 471.16 47.2523 472.106 49.1424C473.927 52.7704 476.468 55.8057 479.948 58.008C480.846 58.5607 481.769 59.0812 482.715 59.6338ZM492.2 89.0018C493.81 88.9777 494.967 88.6013 495.995 87.8325C497.047 87.0476 497.654 85.9985 497.8 84.6931C497.832 84.3567 497.759 84.1645 497.379 84.1245C497.071 84.0924 496.772 83.9963 496.472 83.9323C492.483 83.1234 488.502 82.3225 484.512 81.5136C484.051 81.4175 483.921 81.5216 484.075 81.9541C484.31 82.5868 484.552 83.2435 484.925 83.7961C486.187 85.6541 487.854 87.0957 489.804 88.2169C490.638 88.7054 491.536 89.0258 492.2 89.0018ZM509.339 89.0018C510.1 89.0098 510.82 88.8576 511.492 88.5212C513.806 87.376 515.684 85.7182 517.108 83.5879C517.432 83.0993 517.626 82.5067 517.82 81.9461C517.958 81.5457 517.82 81.4335 517.391 81.5216C513.078 82.3946 508.765 83.2755 504.452 84.1405C504.136 84.2045 504.015 84.3727 504.087 84.637C504.265 85.2617 504.371 85.9424 504.694 86.479C505.73 88.1929 507.389 88.8896 509.339 89.0018Z" fill="white"/>
<path d="M430.994 173.6H424.594H422.322C421.874 173.6 421.65 173.856 421.65 174.304V195.328C421.65 195.776 421.874 196 422.322 196H422.77H430.994C437.17 196 441.65 191.04 441.65 184.8C441.65 178.592 437.17 173.6 430.994 173.6ZM430.994 193.184H424.594V176.416H430.994C435.634 176.416 438.77 180.096 438.77 184.8C438.77 189.536 435.634 193.184 430.994 193.184ZM450.971 179.616C447.643 179.616 445.147 181.504 444.763 184.416C444.731 184.896 445.019 185.12 445.435 185.12H446.843C447.259 185.12 447.451 184.896 447.579 184.512C447.867 183.008 449.307 182.24 450.971 182.24C452.827 182.24 454.427 183.232 454.427 185.76V188.032C453.403 186.88 451.707 186.176 449.691 186.176C446.779 186.176 444.059 187.872 444.059 191.296C444.059 194.72 446.779 196.416 449.691 196.416C451.707 196.416 453.403 195.744 454.427 194.368V195.328C454.427 195.776 454.683 196 455.099 196H456.507C456.955 196 457.179 195.776 457.179 195.328V185.696C457.179 181.824 454.523 179.616 450.971 179.616ZM450.491 194.08C447.995 194.08 446.843 192.896 446.843 191.296C446.843 189.696 447.995 188.512 450.491 188.512C452.795 188.512 454.427 189.6 454.427 191.296C454.427 192.896 452.795 194.08 450.491 194.08ZM468.41 179.616C463.418 179.616 460.122 183.296 460.122 188C460.122 192.832 463.45 196.416 468.442 196.416C471.706 196.416 474.33 194.784 475.45 192.256C475.642 191.84 475.385 191.552 474.874 191.552H473.338C472.954 191.552 472.73 191.712 472.506 192C471.77 193.12 470.33 193.92 468.474 193.92C465.658 193.92 463.482 192.224 463.002 189.28H473.434H475.514C475.93 189.28 476.218 189.088 476.25 188.64C476.25 188.448 476.25 188.256 476.25 188.064C476.25 183.552 473.242 179.616 468.41 179.616ZM463.002 186.848C463.418 184.064 465.434 182.208 468.41 182.208C470.81 182.208 473.018 183.712 473.434 186.848H463.002ZM495.011 179.616C493.219 179.616 491.587 180.256 490.403 182.112C489.539 180.48 487.971 179.616 486.243 179.616C484.707 179.616 483.203 180.192 482.115 181.76V180.704C482.115 180.256 481.859 180 481.443 180H480.003C479.555 180 479.331 180.256 479.331 180.704V195.328C479.331 195.776 479.555 196 480.003 196H481.443C481.859 196 482.115 195.776 482.115 195.328V186.272C482.115 183.136 484.067 182.24 485.507 182.24C487.011 182.24 488.291 183.104 488.291 185.344V195.328C488.291 195.776 488.547 196 488.963 196H490.403C490.851 196 491.075 195.776 491.075 195.328V186.272C491.075 183.136 493.027 182.24 494.467 182.24C495.971 182.24 497.251 183.104 497.251 185.344V195.328C497.251 195.776 497.507 196 497.955 196H499.363C499.811 196 500.035 195.776 500.035 195.328V185.216C500.035 181.536 497.827 179.616 495.011 179.616ZM511.413 196.416C516.085 196.416 519.829 192.768 519.829 188C519.829 183.264 516.085 179.616 511.413 179.616C506.709 179.616 502.965 183.264 502.965 188C502.965 192.768 506.709 196.416 511.413 196.416ZM511.413 193.696C508.213 193.696 505.749 191.232 505.749 188C505.749 184.768 508.213 182.304 511.413 182.304C514.581 182.304 517.045 184.768 517.045 188C517.045 191.232 514.581 193.696 511.413 193.696ZM530.663 179.616C528.711 179.616 527.079 180.256 525.927 181.984V180.704C525.927 180.256 525.671 180 525.255 180H523.815C523.367 180 523.143 180.256 523.143 180.704V195.328C523.143 195.776 523.367 196 523.815 196H525.255C525.671 196 525.927 195.776 525.927 195.328V186.912C525.927 183.456 527.911 182.24 529.927 182.24C531.815 182.24 533.223 183.424 533.223 185.728V195.328C533.223 195.776 533.479 196 533.927 196H535.335C535.783 196 536.007 195.776 536.007 195.328V185.632C536.007 181.856 533.639 179.616 530.663 179.616ZM546.837 196.416C550.741 196.416 554.197 194.112 554.197 190.208C554.197 185.856 550.229 184.64 546.901 183.392C544.405 182.432 542.421 181.536 542.421 179.296C542.421 177.28 544.117 176.096 546.389 176.096C548.629 176.096 550.293 177.152 550.581 179.232C550.613 179.648 550.837 179.872 551.253 179.872H552.885C553.333 179.872 553.557 179.648 553.525 179.168C553.205 175.264 549.973 173.216 546.389 173.216C542.805 173.216 539.445 175.392 539.445 179.296C539.445 183.776 543.253 184.96 546.581 186.208C549.077 187.104 551.253 188.032 551.253 190.208C551.253 192.224 549.429 193.536 546.837 193.536C544.117 193.536 542.197 192.32 541.877 190.048C541.845 189.6 541.621 189.376 541.205 189.376H539.573C539.125 189.376 538.901 189.632 538.933 190.08C539.253 194.24 542.773 196.416 546.837 196.416ZM564.816 179.616C559.824 179.616 556.528 183.296 556.528 188C556.528 192.832 559.856 196.416 564.848 196.416C568.112 196.416 570.736 194.784 571.856 192.256C572.048 191.84 571.792 191.552 571.28 191.552H569.744C569.36 191.552 569.136 191.712 568.912 192C568.176 193.12 566.736 193.92 564.88 193.92C562.064 193.92 559.888 192.224 559.408 189.28H569.84H571.92C572.336 189.28 572.624 189.088 572.656 188.64C572.656 188.448 572.656 188.256 572.656 188.064C572.656 183.552 569.648 179.616 564.816 179.616ZM559.408 186.848C559.824 184.064 561.84 182.208 564.816 182.208C567.216 182.208 569.424 183.712 569.84 186.848H559.408ZM582.461 180H579.997V175.584C579.997 175.136 579.773 174.88 579.325 174.88H577.885C577.469 174.88 577.213 175.136 577.213 175.584V180H574.749C574.301 180 574.045 180.256 574.045 180.704V182.016C574.045 182.464 574.301 182.688 574.749 182.688H577.213V195.328C577.213 195.776 577.469 196 577.885 196H579.325C579.773 196 579.997 195.776 579.997 195.328V182.688H582.461C582.909 182.688 583.133 182.464 583.133 182.016V180.704C583.133 180.256 582.909 180 582.461 180Z" fill="black"/>
<path d="M70.4806 196.168L63.4726 188.072C66.1926 187.112 68.1446 184.552 68.1446 181.576C68.1446 177.736 65.0406 174.6 61.2006 174.6H55.9846H53.7126C53.2646 174.6 53.0406 174.856 53.0406 175.304V196.328C53.0406 196.776 53.2646 197 53.7126 197H55.3126C55.7606 197 55.9846 196.776 55.9846 196.328V188.456H60.2406L67.2486 196.616C67.4726 196.904 67.7606 197 68.1126 197H70.0966C70.6726 197 70.8326 196.616 70.4806 196.168ZM55.9846 177.384H61.2006C63.3766 177.384 65.2006 179.24 65.2006 181.576C65.2006 183.88 63.3766 185.736 61.2006 185.736H55.9846V177.384ZM79.4289 197.416C84.1009 197.416 87.8449 193.768 87.8449 189C87.8449 184.264 84.1009 180.616 79.4289 180.616C74.7249 180.616 70.9809 184.264 70.9809 189C70.9809 193.768 74.7249 197.416 79.4289 197.416ZM79.4289 194.696C76.2289 194.696 73.7649 192.232 73.7649 189C73.7649 185.768 76.2289 183.304 79.4289 183.304C82.5969 183.304 85.0609 185.768 85.0609 189C85.0609 192.232 82.5969 194.696 79.4289 194.696ZM91.8309 197H93.2709C93.6869 197 93.9429 196.776 93.9429 196.328V174.664C93.9429 174.216 93.6869 173.96 93.2709 173.96H91.8309C91.3829 173.96 91.1589 174.216 91.1589 174.664V196.328C91.1589 196.776 91.3829 197 91.8309 197ZM105.55 180.616C100.558 180.616 97.2621 184.296 97.2621 189C97.2621 193.832 100.59 197.416 105.582 197.416C108.846 197.416 111.47 195.784 112.59 193.256C112.782 192.84 112.526 192.552 112.014 192.552H110.478C110.094 192.552 109.87 192.712 109.646 193C108.91 194.12 107.47 194.92 105.614 194.92C102.798 194.92 100.622 193.224 100.142 190.28H110.574H112.654C113.07 190.28 113.358 190.088 113.39 189.64C113.39 189.448 113.39 189.256 113.39 189.064C113.39 184.552 110.382 180.616 105.55 180.616ZM100.142 187.848C100.558 185.064 102.574 183.208 105.55 183.208C107.95 183.208 110.158 184.712 110.574 187.848H100.142Z" fill="black"/>
<path d="M359.066 80.0557C359.649 79.4672 359.644 78.5175 359.056 77.9344L349.466 68.4328C348.877 67.8497 347.927 67.8541 347.344 68.4426C346.761 69.0311 346.766 69.9808 347.354 70.5639L355.879 79.0098L347.433 87.5343C346.85 88.1228 346.854 89.0725 347.443 89.6556C348.031 90.2387 348.981 90.2343 349.564 89.6458L359.066 80.0557ZM142.007 81.5L358.007 80.5L357.993 77.5L141.993 78.5L142.007 81.5Z" fill="url(#paint1_linear_9882_32188)"/>
<rect x="186.5" y="26.5" width="83" height="105" rx="22.5" fill="#326CE5" stroke="#326CE5" stroke-width="5"/>
<path d="M212.714 101.251C212.714 96.8054 214.555 92.542 217.832 89.3985C221.109 86.2551 225.554 84.4891 230.189 84.4891C234.823 84.4891 239.268 86.2551 242.545 89.3985C245.822 92.542 247.664 96.8054 247.664 101.251H212.714ZM230.189 82.3938C222.947 82.3938 217.082 76.7681 217.082 69.8224C217.082 62.8767 222.947 57.251 230.189 57.251C237.43 57.251 243.295 62.8767 243.295 69.8224C243.295 76.7681 237.43 82.3938 230.189 82.3938ZM246.272 87.0725C249.613 87.8962 252.599 89.7101 254.803 92.2558C257.007 94.8015 258.318 97.9492 258.548 101.251H252.032C252.032 95.7824 249.848 90.8041 246.272 87.0725ZM241.853 82.3037C243.684 80.7333 245.147 78.8096 246.149 76.6586C247.15 74.5077 247.666 72.1781 247.664 69.8224C247.668 66.9592 246.905 64.143 245.446 61.6447C247.92 62.1215 250.146 63.4055 251.745 65.2782C253.344 67.151 254.217 69.4971 254.217 71.9176C254.217 73.4104 253.885 74.8861 253.243 76.2457C252.6 77.6054 251.662 78.8176 250.491 79.8011C249.321 80.7846 247.944 81.5167 246.454 81.9483C244.965 82.3799 243.396 82.5011 241.853 82.3037Z" fill="white"/>
<path d="M206.749 81.0348H212.4V84.6023H206.749V89.9537H202.982V84.6023H197.331V81.0348H202.982V75.6834H206.749V81.0348Z" fill="white"/>
<path d="M212.714 101.251C212.714 96.8054 214.555 92.542 217.832 89.3985C221.109 86.2551 225.554 84.4891 230.189 84.4891C234.823 84.4891 239.268 86.2551 242.545 89.3985C245.822 92.542 247.664 96.8054 247.664 101.251H212.714ZM230.189 82.3938C222.947 82.3938 217.082 76.7681 217.082 69.8224C217.082 62.8767 222.947 57.251 230.189 57.251C237.43 57.251 243.295 62.8767 243.295 69.8224C243.295 76.7681 237.43 82.3938 230.189 82.3938ZM246.272 87.0725C249.613 87.8962 252.599 89.7101 254.803 92.2558C257.007 94.8015 258.318 97.9492 258.548 101.251H252.032C252.032 95.7824 249.848 90.8041 246.272 87.0725ZM241.853 82.3037C243.684 80.7333 245.147 78.8096 246.149 76.6586C247.15 74.5077 247.666 72.1781 247.664 69.8224C247.668 66.9592 246.905 64.143 245.446 61.6447C247.92 62.1215 250.146 63.4055 251.745 65.2782C253.344 67.151 254.217 69.4971 254.217 71.9176C254.217 73.4104 253.885 74.8861 253.243 76.2457C252.6 77.6054 251.662 78.8176 250.491 79.8011C249.321 80.7846 247.944 81.5167 246.454 81.9483C244.965 82.3799 243.396 82.5011 241.853 82.3037Z" stroke="black"/>
<path d="M206.749 81.0348H212.4V84.6023H206.749V89.9537H202.982V84.6023H197.331V81.0348H202.982V75.6834H206.749V81.0348Z" stroke="black"/>
<path d="M220.481 166.168L213.473 158.072C216.193 157.112 218.145 154.552 218.145 151.576C218.145 147.736 215.041 144.6 211.201 144.6H205.985H203.713C203.265 144.6 203.041 144.856 203.041 145.304V166.328C203.041 166.776 203.265 167 203.713 167H205.313C205.761 167 205.985 166.776 205.985 166.328V158.456H210.241L217.249 166.616C217.473 166.904 217.761 167 218.113 167H220.097C220.673 167 220.833 166.616 220.481 166.168ZM205.985 147.384H211.201C213.377 147.384 215.201 149.24 215.201 151.576C215.201 153.88 213.377 155.736 211.201 155.736H205.985V147.384ZM229.429 167.416C234.101 167.416 237.845 163.768 237.845 159C237.845 154.264 234.101 150.616 229.429 150.616C224.725 150.616 220.981 154.264 220.981 159C220.981 163.768 224.725 167.416 229.429 167.416ZM229.429 164.696C226.229 164.696 223.765 162.232 223.765 159C223.765 155.768 226.229 153.304 229.429 153.304C232.597 153.304 235.061 155.768 235.061 159C235.061 162.232 232.597 164.696 229.429 164.696ZM241.831 167H243.271C243.687 167 243.943 166.776 243.943 166.328V144.664C243.943 144.216 243.687 143.96 243.271 143.96H241.831C241.383 143.96 241.159 144.216 241.159 144.664V166.328C241.159 166.776 241.383 167 241.831 167ZM255.55 150.616C250.558 150.616 247.262 154.296 247.262 159C247.262 163.832 250.59 167.416 255.582 167.416C258.846 167.416 261.47 165.784 262.59 163.256C262.782 162.84 262.526 162.552 262.014 162.552H260.478C260.094 162.552 259.87 162.712 259.646 163C258.91 164.12 257.47 164.92 255.614 164.92C252.798 164.92 250.622 163.224 250.142 160.28H260.574H262.654C263.07 160.28 263.358 160.088 263.39 159.64C263.39 159.448 263.39 159.256 263.39 159.064C263.39 154.552 260.382 150.616 255.55 150.616ZM250.142 157.848C250.558 155.064 252.574 153.208 255.55 153.208C257.95 153.208 260.158 154.712 260.574 157.848H250.142ZM194.252 183.016C194.732 182.216 195.02 181.256 195.02 180.296C195.02 177.128 192.588 174.632 188.972 174.632H182.86H180.588C180.14 174.632 179.916 174.856 179.916 175.304V196.328C179.916 196.776 180.14 197.032 180.588 197.032H181.196H191.308C195.372 197.032 198.38 193.768 198.38 189.736C198.38 186.728 196.748 184.168 194.252 183.016ZM188.972 177.384C190.924 177.384 192.076 178.696 192.076 180.36C192.076 181.128 191.788 181.832 191.308 182.376H182.86V177.384H188.972ZM190.892 194.216H182.86V185.064H190.924C193.74 185.064 195.404 187.112 195.404 189.64C195.404 192.168 193.708 194.216 190.892 194.216ZM202.206 178.12H203.646C204.062 178.12 204.318 177.896 204.318 177.448V175.304C204.318 174.856 204.062 174.6 203.646 174.6H202.206C201.758 174.6 201.534 174.856 201.534 175.304V177.448C201.534 177.896 201.758 178.12 202.206 178.12ZM202.206 197H203.646C204.062 197 204.318 196.776 204.318 196.328V181.704C204.318 181.256 204.062 181 203.646 181H202.206C201.758 181 201.534 181.256 201.534 181.704V196.328C201.534 196.776 201.758 197 202.206 197ZM216.085 180.616C214.133 180.616 212.501 181.256 211.349 182.984V181.704C211.349 181.256 211.093 181 210.677 181H209.237C208.789 181 208.565 181.256 208.565 181.704V196.328C208.565 196.776 208.789 197 209.237 197H210.677C211.093 197 211.349 196.776 211.349 196.328V187.912C211.349 184.456 213.333 183.24 215.349 183.24C217.237 183.24 218.645 184.424 218.645 186.728V196.328C218.645 196.776 218.901 197 219.349 197H220.757C221.205 197 221.429 196.776 221.429 196.328V186.632C221.429 182.856 219.061 180.616 216.085 180.616ZM240.643 174.6H239.203C238.787 174.6 238.531 174.856 238.531 175.304V183.72C237.251 181.8 235.203 180.616 232.483 180.616C228.067 180.616 224.387 184.264 224.387 189C224.387 193.768 228.067 197.416 232.483 197.416C235.203 197.416 237.251 196.232 238.531 194.312V196.328C238.531 196.776 238.787 197 239.203 197H240.643C241.091 197 241.315 196.776 241.315 196.328V175.304C241.315 174.856 241.091 174.6 240.643 174.6ZM232.867 194.728C229.635 194.728 227.171 192.264 227.171 189C227.171 185.736 229.635 183.272 232.867 183.272C236.067 183.272 238.531 185.736 238.531 189C238.531 192.264 236.067 194.728 232.867 194.728ZM246.237 178.12H247.677C248.093 178.12 248.349 177.896 248.349 177.448V175.304C248.349 174.856 248.093 174.6 247.677 174.6H246.237C245.789 174.6 245.565 174.856 245.565 175.304V177.448C245.565 177.896 245.789 178.12 246.237 178.12ZM246.237 197H247.677C248.093 197 248.349 196.776 248.349 196.328V181.704C248.349 181.256 248.093 181 247.677 181H246.237C245.789 181 245.565 181.256 245.565 181.704V196.328C245.565 196.776 245.789 197 246.237 197ZM260.116 180.616C258.164 180.616 256.532 181.256 255.38 182.984V181.704C255.38 181.256 255.124 181 254.708 181H253.268C252.82 181 252.596 181.256 252.596 181.704V196.328C252.596 196.776 252.82 197 253.268 197H254.708C255.124 197 255.38 196.776 255.38 196.328V187.912C255.38 184.456 257.364 183.24 259.38 183.24C261.268 183.24 262.676 184.424 262.676 186.728V196.328C262.676 196.776 262.932 197 263.38 197H264.788C265.236 197 265.46 196.776 265.46 196.328V186.632C265.46 182.856 263.092 180.616 260.116 180.616ZM284.674 181H283.266C282.85 181 282.594 181.256 282.594 181.704V183.752C281.314 181.832 279.234 180.616 276.514 180.616C272.098 180.616 268.418 184.264 268.418 188.936C268.418 193.608 272.098 197.256 276.514 197.256C279.234 197.256 281.314 196.04 282.594 194.12V196.328C282.594 199.336 280.706 201.224 277.282 201.224C274.498 201.224 272.77 199.72 272.386 198.312C272.258 197.896 272.066 197.704 271.65 197.704H270.21C269.794 197.704 269.506 197.928 269.538 198.408C269.986 201.64 273.538 203.816 277.282 203.816C281.474 203.816 285.346 201.32 285.346 196.328V181.704C285.346 181.256 285.122 181 284.674 181ZM276.898 194.6C273.666 194.6 271.202 192.136 271.202 188.936C271.202 185.704 273.666 183.24 276.898 183.24C280.13 183.24 282.594 185.704 282.594 188.936C282.594 192.136 280.13 194.6 276.898 194.6Z" fill="black"/>
<defs>
<linearGradient id="paint0_linear_9882_32188" x1="501" y1="4" x2="487.341" y2="481.523" gradientUnits="userSpaceOnUse">
<stop stop-color="#00D3A9"/>
<stop offset="1" stop-color="#00B39F"/>
</linearGradient>
<linearGradient id="paint1_linear_9882_32188" x1="250" y1="79.5" x2="250.014" y2="82.6861" gradientUnits="userSpaceOnUse">
<stop stop-color="#00D3A9"/>
<stop offset="1" stop-color="#00B39F"/>
</linearGradient>
</defs>
</svg>
