<svg width="24" height="24" viewBox="0 0 24 24" fill="none" xmlns="http://www.w3.org/2000/svg">
<path fill-rule="evenodd" clip-rule="evenodd" d="M12 1C5.92487 1 1 5.92487 1 12C1 18.0751 5.92487 23 12 23C18.0751 23 23 18.0751 23 12C23 5.92487 18.0751 1 12 1ZM10.3268 2.64688C6.19937 3.38029 2.99359 6.77886 2.552 11H7.29905C7.53793 7.97967 8.58789 5.0891 10.3268 2.64688ZM13.6732 2.64688C15.4121 5.0891 16.4621 7.97967 16.7009 11H21.448C21.0064 6.77886 17.8006 3.38029 13.6732 2.64688ZM15.1958 11C14.9385 8.03877 13.8253 5.22331 12 2.91572C10.1747 5.22331 9.06148 8.03877 8.8042 11H15.1958ZM8.76899 12.5H15.231C15.0613 15.6435 13.9277 18.6472 12 21.0843C10.0723 18.6472 8.93874 15.6435 8.76899 12.5ZM7.267 12.5H2.51293C2.74371 16.9506 6.0376 20.591 10.3268 21.3531C8.49215 18.7764 7.4244 15.7007 7.267 12.5ZM13.6732 21.3531C15.5078 18.7764 16.5756 15.7007 16.733 12.5H21.4871C21.2563 16.9506 17.9624 20.591 13.6732 21.3531Z" fill="#727274"/>
</svg>
