<svg width="24" height="24" viewBox="0 0 24 24" fill="none" xmlns="http://www.w3.org/2000/svg">
<path fill-rule="evenodd" clip-rule="evenodd" d="M11.6581 1.08247C11.8728 0.972511 12.1272 0.972511 12.3419 1.08247L22.5919 6.33247C22.8424 6.46078 23 6.71854 23 7C23 7.28146 22.8424 7.53922 22.5919 7.66753L12.3419 12.9175C12.1272 13.0275 11.8728 13.0275 11.6581 12.9175L1.40809 7.66753C1.15758 7.53922 1 7.28146 1 7C1 6.71854 1.15758 6.46078 1.40809 6.33247L11.6581 1.08247ZM3.39518 7L12 11.4073L20.6048 7L12 2.59266L3.39518 7Z" fill="#727274"/>
<path d="M1.08903 16.3953C1.28488 16.0303 1.73953 15.8932 2.10452 16.089L11.9999 21.3988L21.8953 16.089C22.2603 15.8932 22.7149 16.0303 22.9108 16.3953C23.1066 16.7603 22.9695 17.2149 22.6045 17.4108L12.3545 22.9108C12.133 23.0296 11.8668 23.0296 11.6453 22.9108L1.39529 17.4108C1.0303 17.2149 0.893185 16.7603 1.08903 16.3953Z" fill="#727274"/>
<path d="M2.10452 11.089C1.73953 10.8932 1.28488 11.0303 1.08903 11.3953C0.893185 11.7603 1.0303 12.2149 1.39529 12.4108L11.6453 17.9108C11.8668 18.0296 12.133 18.0296 12.3545 17.9108L22.6045 12.4108C22.9695 12.2149 23.1066 11.7603 22.9108 11.3953C22.7149 11.0303 22.2603 10.8932 21.8953 11.089L11.9999 16.3988L2.10452 11.089Z" fill="#727274"/>
</svg>
