<svg width="831" height="459" viewBox="0 0 831 459" fill="none" xmlns="http://www.w3.org/2000/svg">
<rect x="2" y="1" width="829" height="458" fill="black"/>
<g clip-path="url(#clip0_15279_21968)">
<path d="M231.382 178.484V224.583L271.355 201.455L231.382 178.484Z" fill="#00D3A9"/>
<path d="M231.382 234.217V280.544L271.727 257.488L231.382 234.217Z" fill="#00D3A9"/>
<path d="M225.633 224.268V178.87L186.16 201.498L225.633 224.268Z" fill="#00B39F"/>
<path d="M146.445 280.373C154.188 292.824 164.658 303.356 177.064 311.177V262.663L146.445 280.373Z" fill="#00B39F"/>
<path d="M225.633 280.316V234.56L186.06 257.459L225.633 280.316Z" fill="#00B39F"/>
<path d="M182.828 308.289L222.901 285.39L182.828 262.234V308.289Z" fill="#00D3A9"/>
<path d="M274.458 308.532V262.548L234.442 285.419L274.458 308.532Z" fill="#00B39F"/>
<path d="M313.63 275.041C320.471 262.28 324.338 248.139 324.943 233.674L283.282 257.517L313.63 275.041Z" fill="#00B39F"/>
<path d="M280.222 252.628L320.438 229.643L280.222 206.543V252.628Z" fill="#00D3A9"/>
<path d="M274.458 196.609V150.896L234.628 173.724L274.458 196.609Z" fill="#00B39F"/>
<path d="M274.458 252.428V206.301L234.542 229.4L274.458 252.428Z" fill="#00B39F"/>
<path d="M182.828 206.215V252.685L223.044 229.414L182.828 206.215Z" fill="#00D3A9"/>
<path d="M225.633 133C210.829 133.417 196.321 137.247 183.243 144.192L225.633 168.492V133Z" fill="#00B39F"/>
<path d="M182.828 150.582V196.781L223.073 173.71L182.828 150.582Z" fill="#00D3A9"/>
<path d="M177.064 147.78C164.661 155.605 154.192 166.136 146.445 178.584L177.064 196.252V147.78Z" fill="#00B39F"/>
<path d="M274.201 144.435C261.014 137.343 246.351 133.427 231.382 133V168.95L274.201 144.435Z" fill="#00D3A9"/>
<path d="M132 232.874C132.5 247.755 136.451 262.318 143.541 275.413L174.562 257.46L132 232.874Z" fill="#00D3A9"/>
<path d="M143.541 183.559C136.473 196.596 132.523 211.093 132 225.912L174.604 201.483L143.541 183.559Z" fill="#00D3A9"/>
<path d="M183.171 314.722C196.265 321.701 210.799 325.552 225.633 325.971V290.45L183.171 314.722Z" fill="#00B39F"/>
<path d="M310.655 178.741C302.956 166.33 292.553 155.815 280.222 147.98V196.323L310.655 178.741Z" fill="#00D3A9"/>
<path d="M280.222 311.02C292.616 303.129 303.061 292.534 310.77 280.03L280.222 262.391V311.02Z" fill="#00D3A9"/>
<path d="M325.071 225.641C324.524 210.965 320.609 196.611 313.63 183.687L282.867 201.441L325.071 225.641Z" fill="#00B39F"/>
<path d="M231.382 325.971C246.182 325.557 260.685 321.726 273.757 314.779L231.382 290.236V325.971Z" fill="#00D3A9"/>
<path d="M177.064 252.271V206.701L137.478 229.386L177.064 252.271Z" fill="#00B39F"/>
</g>
<path d="M655.328 130.343C651.93 129.751 648.65 131.941 648.064 135.373L640.683 176.615H653.395L660.366 137.68C661.01 134.249 658.726 130.935 655.328 130.343ZM557.147 135.373C556.502 131.941 553.222 129.751 549.824 130.343C546.426 130.935 544.2 134.249 544.845 137.68L551.757 176.615H564.528L557.147 135.373ZM677.823 305.728L652.223 196.852H665.697C668.802 196.852 671.379 194.308 671.379 191.112C671.379 188.035 668.86 185.432 665.697 185.432H616.079V197.503H625.921L608.874 210.757V158.982C608.874 155.491 606.062 152.71 602.605 152.71C599.149 152.71 596.396 155.55 596.396 158.982V210.757L579.29 197.562H589.132V185.491H539.514C536.409 185.491 533.89 188.035 533.89 191.172C533.89 194.308 536.409 196.911 539.514 196.911H553.046L527.388 305.905C526.568 309.278 528.676 312.71 532.016 313.538C532.484 313.657 532.953 313.657 533.48 313.657C536.292 313.657 538.869 311.704 539.514 308.805L553.222 250.817L596.396 282.888V333.598C596.396 337.089 599.208 339.87 602.605 339.87C606.062 339.87 608.874 337.03 608.874 333.598V282.888L651.989 250.817L665.638 308.686C666.341 311.586 668.919 313.538 671.731 313.538C672.199 313.538 672.727 313.479 673.195 313.361C676.534 312.533 678.585 309.101 677.823 305.728ZM596.337 267.207L568.336 246.379H589.073V233.775H557.205L564.645 202.237L596.337 226.734V267.207ZM636.875 246.379L608.874 267.207V226.675L640.566 202.178L647.947 233.716H616.079V246.32H636.875V246.379Z" fill="url(#paint0_linear_15279_21968)"/>
<line x1="419" y1="103" x2="419" y2="356" stroke="white" stroke-width="4"/>
<rect width="831" height="459" fill="url(#paint1_linear_15279_21968)"/>
<defs>
<linearGradient id="paint0_linear_15279_21968" x1="547.753" y1="302.539" x2="664.156" y2="157.819" gradientUnits="userSpaceOnUse">
<stop stop-color="#0CB0D1"/>
<stop offset="1" stop-color="#9ACA3E"/>
</linearGradient>
<linearGradient id="paint1_linear_15279_21968" x1="831" y1="-2.24187e-05" x2="7.39948e-07" y2="459" gradientUnits="userSpaceOnUse">
<stop stop-color="#00B39F" stop-opacity="0.4"/>
<stop offset="0.379657" stop-color="white" stop-opacity="0"/>
<stop offset="0.73704" stop-color="white" stop-opacity="0"/>
<stop offset="1" stop-color="#00B39F" stop-opacity="0.41"/>
</linearGradient>
<clipPath id="clip0_15279_21968">
<rect width="193" height="193" fill="white" transform="translate(132 133)"/>
</clipPath>
</defs>
</svg>
