<svg width="877" height="476" viewBox="0 0 877 476" fill="none" xmlns="http://www.w3.org/2000/svg" xmlns:xlink="http://www.w3.org/1999/xlink">
<g clip-path="url(#clip0_23007_2794)">
<rect width="876.842" height="476" rx="6.84992" fill="#303030"/>
<g filter="url(#filter0_b_23007_2794)">
<path d="M0 6.84992C0 3.06681 3.06681 0 6.84992 0H869.939C873.722 0 876.789 3.06681 876.789 6.84992V36.3046H0V6.84992Z" fill="#262B2F"/>
<g clip-path="url(#clip1_23007_2794)">
<path d="M801.104 19.3613C801.348 19.3613 801.553 19.1566 801.553 18.9178V13.0783L801.519 12.2255L801.906 12.6292L802.764 13.5503C802.844 13.6413 802.963 13.6867 803.071 13.6867C803.31 13.6867 803.486 13.5162 803.486 13.283C803.486 13.1636 803.441 13.0727 803.355 12.9874L801.434 11.1337C801.32 11.02 801.218 10.9802 801.104 10.9802C800.99 10.9802 800.888 11.02 800.774 11.1337L798.852 12.9874C798.767 13.0727 798.716 13.1636 798.716 13.283C798.716 13.5162 798.892 13.6867 799.125 13.6867C799.239 13.6867 799.358 13.6413 799.438 13.5503L800.302 12.6292L800.689 12.2255L800.649 13.0783V18.9178C800.649 19.1566 800.859 19.3613 801.104 19.3613ZM797.84 23.8134H804.362C805.55 23.8134 806.147 23.2221 806.147 22.0508V16.3762C806.147 15.2049 805.55 14.6136 804.362 14.6136H802.775V15.529H804.345C804.908 15.529 805.232 15.836 805.232 16.4274V21.9996C805.232 22.591 804.908 22.898 804.345 22.898H797.851C797.283 22.898 796.97 22.591 796.97 21.9996V16.4274C796.97 15.836 797.283 15.529 797.851 15.529H799.426V14.6136H797.84C796.652 14.6136 796.055 15.2049 796.055 16.3762V22.0508C796.055 23.2221 796.652 23.8134 797.84 23.8134Z" fill="#AEB4BA"/>
<path d="M829.191 22.6074C829.47 22.6074 829.703 22.3856 829.703 22.1127V18.3315H833.376C833.649 18.3315 833.882 18.0984 833.882 17.8198C833.882 17.5412 833.649 17.3138 833.376 17.3138H829.703V13.5269C829.703 13.254 829.47 13.0322 829.191 13.0322C828.912 13.0322 828.685 13.254 828.685 13.5269V17.3138H825.006C824.733 17.3138 824.5 17.5412 824.5 17.8198C824.5 18.0984 824.733 18.3315 825.006 18.3315H828.685V22.1127C828.685 22.3856 828.912 22.6074 829.191 22.6074Z" fill="#AEB4BA"/>
<path d="M853.043 21.146H854.016V22.0159C854.016 23.1872 854.607 23.7786 855.801 23.7786H861.51C862.692 23.7786 863.289 23.1872 863.289 22.0159V16.2617C863.289 15.0904 862.692 14.4991 861.51 14.4991H860.532V13.6291C860.532 12.4578 859.935 11.8665 858.752 11.8665H853.043C851.849 11.8665 851.258 12.4578 851.258 13.6291V19.3833C851.258 20.5546 851.849 21.146 853.043 21.146ZM853.055 20.2305C852.486 20.2305 852.173 19.9235 852.173 19.3321V13.6803C852.173 13.0889 852.486 12.7819 853.055 12.7819H858.735C859.298 12.7819 859.616 13.0889 859.616 13.6803V14.4991H855.801C854.607 14.4991 854.016 15.0847 854.016 16.2617V20.2305H853.055ZM855.812 22.8631C855.249 22.8631 854.931 22.5561 854.931 21.9647V16.3129C854.931 15.7215 855.249 15.4145 855.812 15.4145H861.493C862.055 15.4145 862.374 15.7215 862.374 16.3129V21.9647C862.374 22.5561 862.055 22.8631 861.493 22.8631H855.812Z" fill="#AEB4BA"/>
</g>
<g clip-path="url(#clip2_23007_2794)">
<path d="M104.994 22.596L100.485 18.1951C100.377 18.0871 100.32 17.9563 100.32 17.8142C100.32 17.6663 100.383 17.5242 100.491 17.4332L104.994 13.0266C105.091 12.9299 105.216 12.873 105.364 12.873C105.659 12.873 105.881 13.1005 105.881 13.3962C105.881 13.5326 105.824 13.6691 105.733 13.7657L101.594 17.8142L105.733 21.8626C105.824 21.9592 105.881 22.09 105.881 22.2321C105.881 22.5278 105.659 22.7496 105.364 22.7496C105.216 22.7496 105.091 22.6927 104.994 22.596Z" fill="#AEB4BA"/>
<path d="M123.439 22.7553C123.587 22.7553 123.712 22.6984 123.809 22.6017L128.318 18.1951C128.426 18.0871 128.483 17.9563 128.483 17.8142C128.483 17.6663 128.426 17.5299 128.318 17.4332L123.815 13.0323C123.712 12.9299 123.587 12.873 123.439 12.873C123.144 12.873 122.922 13.1005 122.922 13.3962C122.922 13.5326 122.979 13.6691 123.07 13.7657L127.209 17.8142L123.07 21.8626C122.979 21.9592 122.922 22.09 122.922 22.2321C122.922 22.5278 123.144 22.7553 123.439 22.7553Z" fill="#BDBDBD" fill-opacity="0.25"/>
</g>
<path d="M69.4026 23.0567H79.2393C80.4334 23.0567 81.0247 22.4654 81.0247 21.2941V14.3515C81.0247 13.1802 80.4334 12.5889 79.2393 12.5889H69.4026C68.2142 12.5889 67.6172 13.1745 67.6172 14.3515V21.2941C67.6172 22.4711 68.2142 23.0567 69.4026 23.0567ZM69.414 22.1413C68.8454 22.1413 68.5326 21.8399 68.5326 21.2486V14.397C68.5326 13.8057 68.8454 13.5043 69.414 13.5043H71.9499V22.1413H69.414ZM79.2279 13.5043C79.7908 13.5043 80.1093 13.8057 80.1093 14.397V21.2486C80.1093 21.8399 79.7908 22.1413 79.2279 22.1413H72.8426V13.5043H79.2279ZM70.8525 15.6138C71.0288 15.6138 71.1766 15.4603 71.1766 15.2954C71.1766 15.1248 71.0288 14.977 70.8525 14.977H69.6357C69.4651 14.977 69.3116 15.1248 69.3116 15.2954C69.3116 15.4603 69.4651 15.6138 69.6357 15.6138H70.8525ZM70.8525 17.0865C71.0288 17.0865 71.1766 16.9329 71.1766 16.7624C71.1766 16.5918 71.0288 16.4496 70.8525 16.4496H69.6357C69.4651 16.4496 69.3116 16.5918 69.3116 16.7624C69.3116 16.9329 69.4651 17.0865 69.6357 17.0865H70.8525ZM70.8525 18.5534C71.0288 18.5534 71.1766 18.4113 71.1766 18.2407C71.1766 18.0701 71.0288 17.9223 70.8525 17.9223H69.6357C69.4651 17.9223 69.3116 18.0701 69.3116 18.2407C69.3116 18.4113 69.4651 18.5534 69.6357 18.5534H70.8525Z" fill="#AEB4BA"/>
<g filter="url(#filter1_i_23007_2794)">
<path fill-rule="evenodd" clip-rule="evenodd" d="M18.4928 21.9201C20.7626 21.9201 22.6027 20.08 22.6027 17.8101C22.6027 15.5403 20.7626 13.7002 18.4928 13.7002C16.2229 13.7002 14.3828 15.5403 14.3828 17.8101C14.3828 20.08 16.2229 21.9201 18.4928 21.9201Z" fill="#EE6A5F"/>
</g>
<path d="M22.4315 17.8101C22.4315 19.9854 20.668 21.7488 18.4928 21.7488C16.3175 21.7488 14.5541 19.9854 14.5541 17.8101C14.5541 15.6349 16.3175 13.8714 18.4928 13.8714C20.668 13.8714 22.4315 15.6349 22.4315 17.8101Z" stroke="#CE5347" stroke-width="0.342496"/>
<g filter="url(#filter2_i_23007_2794)">
<path fill-rule="evenodd" clip-rule="evenodd" d="M32.1959 21.9201C34.4657 21.9201 36.3058 20.08 36.3058 17.8101C36.3058 15.5403 34.4657 13.7002 32.1959 13.7002C29.926 13.7002 28.0859 15.5403 28.0859 17.8101C28.0859 20.08 29.926 21.9201 32.1959 21.9201Z" fill="#F5BD4F"/>
</g>
<path d="M36.1346 17.8101C36.1346 19.9854 34.3712 21.7488 32.1959 21.7488C30.0206 21.7488 28.2572 19.9854 28.2572 17.8101C28.2572 15.6349 30.0206 13.8714 32.1959 13.8714C34.3712 13.8714 36.1346 15.6349 36.1346 17.8101Z" stroke="#D6A243" stroke-width="0.342496"/>
<g filter="url(#filter3_i_23007_2794)">
<path fill-rule="evenodd" clip-rule="evenodd" d="M45.8912 21.9201C48.1611 21.9201 50.0011 20.08 50.0011 17.8101C50.0011 15.5403 48.1611 13.7002 45.8912 13.7002C43.6213 13.7002 41.7812 15.5403 41.7812 17.8101C41.7812 20.08 43.6213 21.9201 45.8912 21.9201Z" fill="#61C454"/>
</g>
<path d="M49.8299 17.8101C49.8299 19.9854 48.0665 21.7488 45.8912 21.7488C43.7159 21.7488 41.9525 19.9854 41.9525 17.8101C41.9525 15.6349 43.7159 13.8714 45.8912 13.8714C48.0665 13.8714 49.8299 15.6349 49.8299 17.8101Z" stroke="#58A942" stroke-width="0.342496"/>
<path d="M244.202 23.7115C244.293 23.7115 244.44 23.6774 244.583 23.5978C247.818 21.7839 248.927 21.0163 248.927 18.941V14.5912C248.927 13.9942 248.671 13.8065 248.187 13.6018C247.517 13.3232 245.35 12.5442 244.679 12.3111C244.526 12.2599 244.361 12.2258 244.202 12.2258C244.042 12.2258 243.878 12.2713 243.73 12.3111C243.059 12.5044 240.887 13.3289 240.216 13.6018C239.738 13.8008 239.477 13.9942 239.477 14.5912V18.941C239.477 21.0163 240.591 21.7783 243.821 23.5978C243.968 23.6774 244.111 23.7115 244.202 23.7115ZM244.429 13.1924C245.288 13.5336 246.954 14.1363 247.835 14.4377C247.988 14.4945 248.023 14.5741 248.023 14.7675V18.7306C248.023 20.4875 247.181 20.9481 244.554 22.5459C244.389 22.6482 244.298 22.6766 244.207 22.6823V13.1413C244.264 13.1413 244.338 13.1583 244.429 13.1924Z" fill="#AEB4BA"/>
<g clip-path="url(#clip3_23007_2794)">
<path d="M390.935 21.7251H394.756C395.273 21.7251 395.526 21.4682 395.526 20.9063V17.9603C395.526 17.4546 395.318 17.1937 394.888 17.1496V16.1381C394.888 14.625 393.897 13.8945 392.845 13.8945C391.794 13.8945 390.802 14.625 390.802 16.1381V17.1696C390.409 17.2299 390.164 17.4867 390.164 17.9603V20.9063C390.164 21.4682 390.417 21.7251 390.935 21.7251ZM391.448 16.0539C391.448 15.0464 392.095 14.5126 392.845 14.5126C393.596 14.5126 394.242 15.0464 394.242 16.0539V17.1456L391.448 17.1496V16.0539Z" fill="#AEB4BA"/>
<path d="M402.643 16.7505C403.898 16.7505 404.94 17.7657 404.94 19.0836C404.94 20.4015 403.898 21.4167 402.643 21.4167C401.841 21.4167 401.209 21.0427 400.844 20.446V22.9127C400.844 23.0285 400.782 23.0908 400.666 23.0908H400.434C400.318 23.0908 400.256 23.0285 400.256 22.9127V17.0355C400.256 16.9197 400.318 16.8574 400.434 16.8574H400.666C400.782 16.8574 400.844 16.9197 400.844 17.0355V17.73C401.209 17.1334 401.841 16.7505 402.643 16.7505ZM402.598 20.8468C403.587 20.8468 404.352 20.072 404.352 19.0836C404.352 18.0951 403.587 17.3204 402.598 17.3204C401.61 17.3204 400.844 18.0951 400.844 19.0836C400.844 20.072 401.61 20.8468 402.598 20.8468ZM406.06 21.3098C405.944 21.3098 405.882 21.2475 405.882 21.1317V15.0764C405.882 14.9606 405.944 14.8983 406.06 14.8983H406.291C406.407 14.8983 406.469 14.9606 406.469 15.0764V21.1317C406.469 21.2475 406.407 21.3098 406.291 21.3098H406.06ZM409.284 16.7505C410.281 16.7505 410.976 17.3828 410.976 18.4157V21.1317C410.976 21.2475 410.914 21.3098 410.798 21.3098H410.566C410.45 21.3098 410.388 21.2475 410.388 21.1317V20.8111C410.085 21.2475 409.569 21.4167 409.008 21.4167C408.189 21.4167 407.414 20.9447 407.414 19.983C407.414 19.0213 408.189 18.5493 409.008 18.5493C409.569 18.5493 410.085 18.7541 410.388 19.137V18.4157C410.388 17.6143 409.854 17.3204 409.284 17.3204C408.767 17.3204 408.287 17.5609 408.198 18.0684C408.171 18.1753 408.117 18.2376 408.011 18.2376H407.779C407.663 18.2376 407.592 18.1753 407.601 18.0506C407.699 17.2937 408.358 16.7505 409.284 16.7505ZM409.15 20.8646C409.863 20.8646 410.388 20.4906 410.388 19.983C410.388 19.4398 409.863 19.1014 409.15 19.1014C408.358 19.1014 408.002 19.4754 408.002 19.983C408.002 20.4906 408.358 20.8646 409.15 20.8646ZM414.79 16.9998C414.825 16.9019 414.896 16.8574 414.994 16.8574H415.253C415.377 16.8574 415.44 16.9375 415.395 17.0622L413.303 22.9483C413.267 23.0463 413.196 23.0908 413.098 23.0908H412.839C412.715 23.0908 412.652 23.0106 412.697 22.886L413.267 21.2742L411.548 17.0622C411.495 16.9375 411.548 16.8574 411.682 16.8574H411.931C412.029 16.8574 412.1 16.893 412.136 16.9909L413.561 20.4549L414.79 16.9998ZM420.336 16.8574C420.452 16.8574 420.514 16.9197 420.514 17.0355V21.1317C420.514 22.4853 419.472 23.1977 418.279 23.1977C417.264 23.1977 416.284 22.5654 416.16 21.7194C416.151 21.5948 416.222 21.5324 416.338 21.5324H416.569C416.676 21.5324 416.73 21.5859 416.756 21.6927C416.872 22.1291 417.415 22.6277 418.279 22.6277C419.356 22.6277 419.926 22.04 419.926 21.1317V20.446C419.552 21.0427 418.92 21.4167 418.128 21.4167C416.872 21.4167 415.83 20.4015 415.83 19.0836C415.83 17.7657 416.872 16.7505 418.128 16.7505C418.92 16.7505 419.552 17.1334 419.926 17.73V17.0355C419.926 16.9197 419.989 16.8574 420.104 16.8574H420.336ZM418.172 20.8468C419.161 20.8468 419.926 20.072 419.926 19.0836C419.926 18.0951 419.161 17.3204 418.172 17.3204C417.184 17.3204 416.418 18.0951 416.418 19.0836C416.418 20.072 417.184 20.8468 418.172 20.8468ZM423.539 16.795C423.655 16.7861 423.718 16.8485 423.718 16.9642V17.1779C423.718 17.2848 423.673 17.356 423.602 17.356C422.934 17.4006 422.311 17.7924 422.311 18.8343V21.1317C422.311 21.2475 422.248 21.3098 422.132 21.3098H421.901C421.785 21.3098 421.723 21.2475 421.723 21.1317V17.0355C421.723 16.9197 421.785 16.8574 421.901 16.8574H422.132C422.248 16.8574 422.311 16.9197 422.311 17.0355V17.543C422.613 17.0355 423.05 16.8396 423.539 16.795ZM426.293 21.4167C424.993 21.4167 423.951 20.4015 423.951 19.0836C423.951 17.7657 424.993 16.7505 426.293 16.7505C427.593 16.7505 428.635 17.7657 428.635 19.0836C428.635 20.4015 427.593 21.4167 426.293 21.4167ZM426.293 20.8468C427.281 20.8468 428.047 20.072 428.047 19.0836C428.047 18.0951 427.281 17.3204 426.293 17.3204C425.304 17.3204 424.538 18.0951 424.538 19.0836C424.538 20.072 425.304 20.8468 426.293 20.8468ZM432.77 16.8574H432.762C432.877 16.8574 432.94 16.9197 432.94 17.0355V21.1317C432.94 21.2475 432.877 21.3098 432.762 21.3098H432.53C432.414 21.3098 432.352 21.2475 432.352 21.1317V20.7221C432.005 21.2564 431.524 21.4167 430.99 21.4167C430.161 21.4167 429.476 20.7933 429.476 19.7693V17.0355C429.476 16.9197 429.538 16.8574 429.654 16.8574H429.885C430.001 16.8574 430.063 16.9197 430.063 17.0355V19.7693C430.063 20.4728 430.5 20.8468 431.096 20.8468C431.702 20.8468 432.361 20.4728 432.361 19.3685V17.0355C432.361 16.9197 432.423 16.8574 432.539 16.8574H432.77ZM436.115 16.7505C436.943 16.7505 437.629 17.3739 437.629 18.3979V21.1317C437.629 21.2475 437.566 21.3098 437.451 21.3098H437.219C437.103 21.3098 437.041 21.2475 437.041 21.1317V18.3979C437.041 17.6944 436.605 17.3204 436.008 17.3204C435.403 17.3204 434.744 17.6944 434.744 18.7986V21.1317C434.744 21.2475 434.681 21.3098 434.566 21.3098H434.334C434.218 21.3098 434.156 21.2475 434.156 21.1317V17.0355C434.156 16.9197 434.218 16.8574 434.334 16.8574H434.566C434.681 16.8574 434.744 16.9197 434.744 17.0355V17.454C435.091 16.9197 435.572 16.7505 436.115 16.7505ZM442.968 15.0764C443.084 15.0764 443.146 15.1387 443.146 15.2545V21.1317C443.146 21.2475 443.084 21.3098 442.968 21.3098H442.736C442.621 21.3098 442.558 21.2475 442.558 21.1317V20.446C442.184 21.0427 441.552 21.4167 440.76 21.4167C439.504 21.4167 438.462 20.4015 438.462 19.0836C438.462 17.7657 439.504 16.7505 440.76 16.7505C441.552 16.7505 442.184 17.1334 442.558 17.73V15.2545C442.558 15.1387 442.621 15.0764 442.736 15.0764H442.968ZM440.804 20.8468C441.793 20.8468 442.558 20.072 442.558 19.0836C442.558 18.0951 441.793 17.3204 440.804 17.3204C439.816 17.3204 439.05 18.0951 439.05 19.0836C439.05 20.072 439.816 20.8468 440.804 20.8468ZM444.533 21.3098C444.417 21.3098 444.355 21.2475 444.355 21.1317V20.6865C444.355 20.5707 444.417 20.5084 444.533 20.5084H444.978C445.094 20.5084 445.156 20.5707 445.156 20.6865V21.1317C445.156 21.2475 445.094 21.3098 444.978 21.3098H444.533ZM450.664 16.7505H450.655C451.403 16.7505 452.062 17.2848 452.062 18.3089V21.1317C452.062 21.2475 451.999 21.3098 451.884 21.3098H451.652C451.536 21.3098 451.474 21.2475 451.474 21.1317V18.3089C451.474 17.6054 451.064 17.3204 450.592 17.3204C450.147 17.3204 449.506 17.6054 449.506 18.6205V21.1317C449.506 21.2475 449.444 21.3098 449.328 21.3098H449.096C448.981 21.3098 448.918 21.2475 448.918 21.1317V18.3089C448.918 17.6054 448.509 17.3204 448.037 17.3204C447.592 17.3204 446.95 17.6054 446.95 18.6205V21.1317C446.95 21.2475 446.888 21.3098 446.772 21.3098H446.541C446.425 21.3098 446.363 21.2475 446.363 21.1317V17.0355C446.363 16.9197 446.425 16.8574 446.541 16.8574H446.772C446.888 16.8574 446.95 16.9197 446.95 17.0355V17.3739C447.289 16.9019 447.725 16.7505 448.144 16.7505C448.633 16.7505 449.096 17.0088 449.337 17.5074C449.684 16.9197 450.165 16.7505 450.664 16.7505ZM455.184 16.7505C456.546 16.7505 457.348 17.8814 457.348 19.1014V19.2083C457.339 19.324 457.267 19.3775 457.161 19.3775H456.742H453.509C453.625 20.2858 454.284 20.8468 455.193 20.8468C455.789 20.8468 456.243 20.5796 456.466 20.2145C456.519 20.1344 456.582 20.0898 456.68 20.0898H456.965C457.098 20.0898 457.169 20.1611 457.125 20.2679C456.822 20.9447 456.092 21.4167 455.184 21.4167C453.821 21.4167 452.904 20.4282 452.904 19.0836C452.904 17.7746 453.803 16.7505 455.184 16.7505ZM455.184 17.3204C454.24 17.3204 453.616 17.9438 453.501 18.8075H456.733C456.626 17.828 455.941 17.3204 455.184 17.3204ZM458.66 18.0239C458.66 19.1548 461.278 18.4781 461.278 20.1433C461.278 20.8735 460.619 21.4167 459.63 21.4167C458.713 21.4167 458.081 20.9536 457.992 20.2056C457.983 20.0809 458.054 20.0186 458.17 20.0186H458.401C458.508 20.0186 458.562 20.0809 458.588 20.1878C458.668 20.6776 459.123 20.8468 459.63 20.8468C460.191 20.8468 460.69 20.6419 460.69 20.1433C460.69 19.0124 458.072 19.6891 458.072 18.0239C458.072 17.2937 458.731 16.7505 459.63 16.7505C460.467 16.7505 461.091 17.2136 461.18 17.9616C461.189 18.0862 461.117 18.1486 461.002 18.1486H460.77C460.663 18.1486 460.61 18.0862 460.583 17.9794C460.503 17.4896 460.058 17.3204 459.63 17.3204C459.158 17.3204 458.66 17.5252 458.66 18.0239ZM464.225 16.7505C465.053 16.7505 465.739 17.3739 465.739 18.3979V21.1317C465.739 21.2475 465.676 21.3098 465.56 21.3098H465.329C465.213 21.3098 465.151 21.2475 465.151 21.1317V18.3979C465.151 17.6944 464.714 17.3204 464.118 17.3204C463.512 17.3204 462.853 17.6944 462.853 18.7986V21.1317C462.853 21.2475 462.791 21.3098 462.675 21.3098H462.444C462.328 21.3098 462.266 21.2475 462.266 21.1317V15.2545C462.266 15.1387 462.328 15.0764 462.444 15.0764H462.675C462.791 15.0764 462.853 15.1387 462.853 15.2545V17.454C463.201 16.9197 463.682 16.7505 464.225 16.7505ZM468.852 16.7505C470.214 16.7505 471.015 17.8814 471.015 19.1014V19.2083C471.006 19.324 470.935 19.3775 470.828 19.3775H470.41H467.177C467.293 20.2858 467.952 20.8468 468.86 20.8468C469.457 20.8468 469.911 20.5796 470.134 20.2145C470.187 20.1344 470.25 20.0898 470.348 20.0898H470.632C470.766 20.0898 470.837 20.1611 470.793 20.2679C470.49 20.9447 469.76 21.4167 468.852 21.4167C467.489 21.4167 466.572 20.4282 466.572 19.0836C466.572 17.7746 467.471 16.7505 468.852 16.7505ZM468.852 17.3204C467.908 17.3204 467.284 17.9438 467.168 18.8075H470.401C470.294 17.828 469.608 17.3204 468.852 17.3204ZM473.69 16.795C473.806 16.7861 473.868 16.8485 473.868 16.9642V17.1779C473.868 17.2848 473.823 17.356 473.752 17.356C473.084 17.4006 472.461 17.7924 472.461 18.8343V21.1317C472.461 21.2475 472.399 21.3098 472.283 21.3098H472.051C471.936 21.3098 471.873 21.2475 471.873 21.1317V17.0355C471.873 16.9197 471.936 16.8574 472.051 16.8574H472.283C472.399 16.8574 472.461 16.9197 472.461 17.0355V17.543C472.764 17.0355 473.2 16.8396 473.69 16.795ZM477.434 16.9998C477.47 16.9019 477.541 16.8574 477.639 16.8574H477.897C478.022 16.8574 478.084 16.9375 478.039 17.0622L475.947 22.9483C475.911 23.0463 475.84 23.0908 475.742 23.0908H475.484C475.359 23.0908 475.297 23.0106 475.341 22.886L475.911 21.2742L474.193 17.0622C474.139 16.9375 474.193 16.8574 474.326 16.8574H474.575C474.673 16.8574 474.745 16.893 474.78 16.9909L476.205 20.4549L477.434 16.9998ZM478.163 21.3098C478.047 21.3098 477.985 21.2475 477.985 21.1317V20.6865C477.985 20.5707 478.047 20.5084 478.163 20.5084H478.608C478.724 20.5084 478.786 20.5707 478.786 20.6865V21.1317C478.786 21.2475 478.724 21.3098 478.608 21.3098H478.163ZM480.18 15.9669C480.064 15.9669 480.002 15.9045 480.002 15.7888V15.2545C480.002 15.1387 480.064 15.0764 480.18 15.0764H480.411C480.527 15.0764 480.589 15.1387 480.589 15.2545V15.7888C480.589 15.9045 480.527 15.9669 480.411 15.9669H480.18ZM480.18 21.3098C480.064 21.3098 480.002 21.2475 480.002 21.1317V17.0355C480.002 16.9197 480.064 16.8574 480.18 16.8574H480.411C480.527 16.8574 480.589 16.9197 480.589 17.0355V21.1317C480.589 21.2475 480.527 21.3098 480.411 21.3098H480.18ZM483.876 21.4167C482.576 21.4167 481.534 20.4015 481.534 19.0836C481.534 17.7657 482.576 16.7505 483.876 16.7505C485.176 16.7505 486.218 17.7657 486.218 19.0836C486.218 20.4015 485.176 21.4167 483.876 21.4167ZM483.876 20.8468C484.864 20.8468 485.63 20.072 485.63 19.0836C485.63 18.0951 484.864 17.3204 483.876 17.3204C482.887 17.3204 482.122 18.0951 482.122 19.0836C482.122 20.072 482.887 20.8468 483.876 20.8468Z" fill="#AEB4BA"/>
</g>
<path d="M607.103 17.5465C607.203 17.5465 607.279 17.5144 607.335 17.4542L608.989 15.7925C609.061 15.7243 609.089 15.644 609.089 15.5517C609.089 15.4634 609.053 15.3751 608.989 15.3109L607.335 13.6332C607.279 13.569 607.199 13.5369 607.103 13.5369C606.922 13.5369 606.786 13.6814 606.786 13.866C606.786 13.9503 606.818 14.0305 606.874 14.0948L607.946 15.1463C607.717 15.1062 607.484 15.0821 607.251 15.0821C605.284 15.0821 603.703 16.6595 603.703 18.6261C603.703 20.5968 605.284 22.1782 607.251 22.1782C609.218 22.1782 610.795 20.5968 610.795 18.6261C610.795 18.4335 610.659 18.293 610.462 18.293C610.273 18.293 610.149 18.4335 610.149 18.6261C610.149 20.2396 608.861 21.532 607.251 21.532C605.642 21.532 604.349 20.2396 604.349 18.6261C604.349 17.0167 605.642 15.7283 607.251 15.7283C607.556 15.7283 607.837 15.7524 608.078 15.8046L606.878 16.9966C606.818 17.0608 606.786 17.1411 606.786 17.2254C606.786 17.41 606.922 17.5465 607.103 17.5465Z" fill="#AEB4BA"/>
</g>
<rect width="877" height="440" transform="translate(0 36)" fill="#191919"/>
<path d="M496.354 208.372L495.934 207.553H495.014H412.426H411.506L411.086 208.372L369.792 288.849L369.439 289.537L369.792 290.225L411.086 370.703L411.506 371.522H412.426H495.014H495.934L496.354 370.703L537.648 290.225L538.001 289.537L537.648 288.849L496.354 208.372Z" fill="#00B39F" fill-opacity="0.1" stroke="#00B39F" stroke-width="3.01413"/>
<g clip-path="url(#clip4_23007_2794)">
<rect x="329.461" y="72.4092" width="124.202" height="124.502" rx="2.06144" fill="#333333"/>
<line x1="344.495" y1="91.6285" x2="353.769" y2="82.3541" stroke="#DDDDDD" stroke-width="1.03072"/>
<line x1="387.081" y1="91.6285" x2="396.355" y2="82.3541" stroke="#DDDDDD" stroke-width="1.03072" stroke-dasharray="2.06 0.52"/>
<g clip-path="url(#clip5_23007_2794)">
<path d="M434.154 81.6858C431.309 81.6858 429 83.9946 429 86.8394C429 89.6842 431.309 91.993 434.154 91.993C436.998 91.993 439.307 89.6842 439.307 86.8394C439.307 83.9946 436.998 81.6858 434.154 81.6858ZM430.031 86.8394C430.031 84.5615 431.876 82.7165 434.154 82.7165C435.107 82.7165 435.983 83.0412 436.679 83.5875L430.902 89.3647C430.355 88.6689 430.031 87.7928 430.031 86.8394ZM434.154 90.9623C433.2 90.9623 432.324 90.6376 431.628 90.0913L437.406 84.3141C437.952 85.0099 438.276 85.886 438.276 86.8394C438.276 89.1173 436.432 90.9623 434.154 90.9623Z" fill="#DDDDDD"/>
</g>
<mask id="mask0_23007_2794" style="mask-type:luminance" maskUnits="userSpaceOnUse" x="333" y="109" width="117" height="3">
<rect x="333.586" y="109.687" width="115.956" height="1.71787" fill="white"/>
</mask>
<g mask="url(#mask0_23007_2794)">
<rect opacity="0.38" x="333.586" y="110.202" width="586.738" height="1.03072" rx="0.515361" fill="#DDDDDD"/>
<path opacity="0.38" fill-rule="evenodd" clip-rule="evenodd" d="M334.093 110.717C334.378 110.717 334.609 110.487 334.609 110.202C334.609 109.918 334.378 109.687 334.093 109.687C333.809 109.687 333.578 109.918 333.578 110.202C333.578 110.487 333.809 110.717 334.093 110.717ZM348.524 110.717C348.808 110.717 349.039 110.487 349.039 110.202C349.039 109.918 348.808 109.687 348.524 109.687C348.239 109.687 348.008 109.918 348.008 110.202C348.008 110.487 348.239 110.717 348.524 110.717ZM363.469 110.202C363.469 110.487 363.238 110.717 362.954 110.717C362.669 110.717 362.438 110.487 362.438 110.202C362.438 109.918 362.669 109.687 362.954 109.687C363.238 109.687 363.469 109.918 363.469 110.202ZM377.384 110.717C377.668 110.717 377.899 110.487 377.899 110.202C377.899 109.918 377.668 109.687 377.384 109.687C377.099 109.687 376.868 109.918 376.868 110.202C376.868 110.487 377.099 110.717 377.384 110.717ZM392.329 110.202C392.329 110.487 392.099 110.717 391.814 110.717C391.529 110.717 391.299 110.487 391.299 110.202C391.299 109.918 391.529 109.687 391.814 109.687C392.099 109.687 392.329 109.918 392.329 110.202ZM406.244 110.717C406.529 110.717 406.759 110.487 406.759 110.202C406.759 109.918 406.529 109.687 406.244 109.687C405.959 109.687 405.729 109.918 405.729 110.202C405.729 110.487 405.959 110.717 406.244 110.717ZM421.189 110.202C421.189 110.487 420.959 110.717 420.674 110.717C420.389 110.717 420.159 110.487 420.159 110.202C420.159 109.918 420.389 109.687 420.674 109.687C420.959 109.687 421.189 109.918 421.189 110.202ZM435.104 110.717C435.389 110.717 435.62 110.487 435.62 110.202C435.62 109.918 435.389 109.687 435.104 109.687C434.82 109.687 434.589 109.918 434.589 110.202C434.589 110.487 434.82 110.717 435.104 110.717ZM450.05 110.202C450.05 110.487 449.819 110.717 449.534 110.717C449.25 110.717 449.019 110.487 449.019 110.202C449.019 109.918 449.25 109.687 449.534 109.687C449.819 109.687 450.05 109.918 450.05 110.202ZM463.964 110.717C464.249 110.717 464.48 110.487 464.48 110.202C464.48 109.918 464.249 109.687 463.964 109.687C463.68 109.687 463.449 109.918 463.449 110.202C463.449 110.487 463.68 110.717 463.964 110.717Z" fill="#DDDDDD"/>
</g>
<mask id="mask1_23007_2794" style="mask-type:luminance" maskUnits="userSpaceOnUse" x="333" y="109" width="41" height="3">
<rect x="333.586" y="109.687" width="40.013" height="1.71787" fill="white"/>
</mask>
<g mask="url(#mask1_23007_2794)">
<rect x="333.586" y="110.202" width="202.466" height="1.03072" rx="0.515361" fill="#DDDDDD"/>
<path fill-rule="evenodd" clip-rule="evenodd" d="M334.093 110.717C334.378 110.717 334.609 110.487 334.609 110.202C334.609 109.918 334.378 109.687 334.093 109.687C333.809 109.687 333.578 109.918 333.578 110.202C333.578 110.487 333.809 110.717 334.093 110.717ZM348.524 110.717C348.808 110.717 349.039 110.487 349.039 110.202C349.039 109.918 348.808 109.687 348.524 109.687C348.239 109.687 348.008 109.918 348.008 110.202C348.008 110.487 348.239 110.717 348.524 110.717ZM363.469 110.202C363.469 110.487 363.238 110.717 362.954 110.717C362.669 110.717 362.438 110.487 362.438 110.202C362.438 109.918 362.669 109.687 362.954 109.687C363.238 109.687 363.469 109.918 363.469 110.202ZM377.384 110.717C377.668 110.717 377.899 110.487 377.899 110.202C377.899 109.918 377.668 109.687 377.384 109.687C377.099 109.687 376.868 109.918 376.868 110.202C376.868 110.487 377.099 110.717 377.384 110.717ZM392.329 110.202C392.329 110.487 392.099 110.717 391.814 110.717C391.529 110.717 391.299 110.487 391.299 110.202C391.299 109.918 391.529 109.687 391.814 109.687C392.099 109.687 392.329 109.918 392.329 110.202ZM406.244 110.717C406.529 110.717 406.759 110.487 406.759 110.202C406.759 109.918 406.529 109.687 406.244 109.687C405.959 109.687 405.729 109.918 405.729 110.202C405.729 110.487 405.959 110.717 406.244 110.717ZM421.189 110.202C421.189 110.487 420.959 110.717 420.674 110.717C420.389 110.717 420.159 110.487 420.159 110.202C420.159 109.918 420.389 109.687 420.674 109.687C420.959 109.687 421.189 109.918 421.189 110.202ZM435.104 110.717C435.389 110.717 435.62 110.487 435.62 110.202C435.62 109.918 435.389 109.687 435.104 109.687C434.82 109.687 434.589 109.918 434.589 110.202C434.589 110.487 434.82 110.717 435.104 110.717ZM450.05 110.202C450.05 110.487 449.819 110.717 449.534 110.717C449.25 110.717 449.019 110.487 449.019 110.202C449.019 109.918 449.25 109.687 449.534 109.687C449.819 109.687 450.05 109.918 450.05 110.202ZM463.964 110.717C464.249 110.717 464.48 110.487 464.48 110.202C464.48 109.918 464.249 109.687 463.964 109.687C463.68 109.687 463.449 109.918 463.449 110.202C463.449 110.487 463.68 110.717 463.964 110.717Z" fill="white" fill-opacity="0.38"/>
</g>
<path fill-rule="evenodd" clip-rule="evenodd" d="M380.483 113.638C382.191 113.638 383.575 112.254 383.575 110.546C383.575 108.838 382.191 107.454 380.483 107.454C378.775 107.454 377.391 108.838 377.391 110.546C377.391 112.254 378.775 113.638 380.483 113.638Z" fill="#DDDDDD"/>
<path d="M336.612 117.37C336.692 117.37 336.736 117.414 336.736 117.494V117.655C336.736 117.735 336.692 117.779 336.612 117.779H335.53V121.576C335.53 121.656 335.486 121.699 335.406 121.699H335.22C335.14 121.699 335.097 121.656 335.097 121.576V117.779H334.014C333.934 117.779 333.891 117.735 333.891 117.655V117.494C333.891 117.414 333.934 117.37 334.014 117.37H335.53H336.612ZM340.137 117.37C340.217 117.37 340.261 117.414 340.261 117.494V121.576C340.261 121.656 340.217 121.699 340.137 121.699H339.951C339.871 121.699 339.828 121.656 339.828 121.576V119.677H337.787V121.576C337.787 121.656 337.744 121.699 337.663 121.699H337.478C337.397 121.699 337.354 121.656 337.354 121.576V117.494C337.354 117.414 337.397 117.37 337.478 117.37H337.663C337.744 117.37 337.787 117.414 337.787 117.494V119.269H339.828V117.494C339.828 117.414 339.871 117.37 339.951 117.37H340.137ZM341.249 117.494C341.249 117.414 341.293 117.37 341.373 117.37H341.559C341.639 117.37 341.682 117.414 341.682 117.494V121.576C341.682 121.656 341.639 121.699 341.559 121.699H341.373C341.293 121.699 341.249 121.656 341.249 121.576V117.494ZM344.697 121.774C343.367 121.774 342.427 120.772 342.427 119.535C342.427 118.298 343.367 117.296 344.697 117.296C345.594 117.296 346.373 117.822 346.676 118.589C346.707 118.675 346.664 118.731 346.577 118.731H346.361C346.292 118.731 346.243 118.7 346.212 118.638C345.959 118.088 345.371 117.717 344.697 117.717C343.602 117.717 342.86 118.527 342.86 119.535C342.86 120.543 343.602 121.353 344.697 121.353C345.371 121.353 345.959 120.982 346.212 120.432C346.243 120.37 346.292 120.339 346.361 120.339H346.577C346.664 120.339 346.713 120.395 346.682 120.469C346.379 121.242 345.6 121.774 344.697 121.774ZM350.285 121.545C350.36 121.625 350.329 121.699 350.224 121.699H349.958C349.896 121.699 349.846 121.687 349.803 121.638L347.836 119.603V121.576C347.836 121.656 347.793 121.699 347.713 121.699H347.527C347.447 121.699 347.403 121.656 347.403 121.576V117.494C347.403 117.414 347.447 117.37 347.527 117.37H347.713C347.793 117.37 347.836 117.414 347.836 117.494V119.349L349.741 117.432C349.784 117.389 349.828 117.37 349.89 117.37H350.156C350.261 117.37 350.298 117.451 350.224 117.525L348.294 119.479L350.285 121.545ZM353.465 117.494C353.465 117.414 353.508 117.37 353.588 117.37H353.774C353.854 117.37 353.898 117.414 353.898 117.494V121.576C353.898 121.656 353.854 121.699 353.774 121.699H353.625C353.557 121.699 353.508 121.675 353.477 121.619L351.424 118.236V121.576C351.424 121.656 351.38 121.699 351.3 121.699H351.115C351.034 121.699 350.991 121.656 350.991 121.576V117.494C350.991 117.414 351.034 117.37 351.115 117.37H351.263C351.331 117.37 351.38 117.395 351.411 117.451L353.465 120.834V117.494ZM357.236 121.291C357.317 121.291 357.36 121.335 357.36 121.415V121.576C357.36 121.656 357.317 121.699 357.236 121.699H355.072H355.01C354.93 121.699 354.886 121.656 354.886 121.576V117.494C354.886 117.414 354.93 117.37 355.01 117.37H355.319H357.205C357.286 117.37 357.329 117.414 357.329 117.494V117.655C357.329 117.735 357.286 117.779 357.205 117.779H355.319V119.312H357.051C357.131 119.312 357.174 119.356 357.174 119.436V119.597C357.174 119.677 357.131 119.72 357.051 119.72H355.319V121.291H357.236ZM359.367 121.774C358.588 121.774 357.92 121.347 357.858 120.574C357.852 120.487 357.895 120.444 357.976 120.444H358.167C358.241 120.444 358.285 120.487 358.291 120.568C358.353 121.081 358.786 121.353 359.367 121.353C359.899 121.353 360.326 121.069 360.326 120.605C360.326 120.135 359.868 119.931 359.355 119.739C358.699 119.492 357.976 119.269 357.976 118.428C357.976 117.711 358.606 117.296 359.28 117.296C359.967 117.296 360.567 117.692 360.629 118.403C360.635 118.49 360.592 118.533 360.511 118.533H360.319C360.245 118.533 360.202 118.49 360.196 118.416C360.14 117.958 359.763 117.717 359.28 117.717C358.804 117.717 358.408 117.97 358.408 118.428C358.408 118.923 358.841 119.114 359.361 119.312C360.016 119.566 360.758 119.807 360.758 120.605C360.758 121.328 360.097 121.774 359.367 121.774ZM362.767 121.774C361.988 121.774 361.32 121.347 361.258 120.574C361.252 120.487 361.295 120.444 361.376 120.444H361.567C361.642 120.444 361.685 120.487 361.691 120.568C361.753 121.081 362.186 121.353 362.767 121.353C363.299 121.353 363.726 121.069 363.726 120.605C363.726 120.135 363.268 119.931 362.755 119.739C362.099 119.492 361.376 119.269 361.376 118.428C361.376 117.711 362.007 117.296 362.681 117.296C363.367 117.296 363.967 117.692 364.029 118.403C364.035 118.49 363.992 118.533 363.911 118.533H363.72C363.645 118.533 363.602 118.49 363.596 118.416C363.54 117.958 363.163 117.717 362.681 117.717C362.204 117.717 361.809 117.97 361.809 118.428C361.809 118.923 362.242 119.114 362.761 119.312C363.417 119.566 364.159 119.807 364.159 120.605C364.159 121.328 363.497 121.774 362.767 121.774Z" fill="#BCC7CC"/>
<g clip-path="url(#clip6_23007_2794)">
<path d="M348.982 136.099C346.137 136.099 343.828 138.408 343.828 141.252C343.828 144.097 346.137 146.406 348.982 146.406C351.827 146.406 354.135 144.097 354.135 141.252C354.135 138.408 351.827 136.099 348.982 136.099ZM344.859 141.252C344.859 138.975 346.704 137.13 348.982 137.13C349.935 137.13 350.811 137.454 351.507 138.001L345.73 143.778C345.184 143.082 344.859 142.206 344.859 141.252ZM348.982 145.375C348.028 145.375 347.152 145.051 346.456 144.504L352.234 138.727C352.78 139.423 353.105 140.299 353.105 141.252C353.105 143.53 351.26 145.375 348.982 145.375Z" fill="#DDDDDD"/>
</g>
<circle cx="370.27" cy="141.252" r="6.18433" fill="#455A64"/>
<circle cx="391.567" cy="141.252" r="6.18433" fill="#F0A303"/>
<circle cx="412.864" cy="141.252" r="6.18433" fill="#2196F3"/>
<circle cx="434.153" cy="141.252" r="6.18433" fill="#00B39F"/>
<circle cx="348.981" cy="174.236" r="6.18433" fill="#206D24"/>
<circle cx="370.27" cy="174.236" r="6.18433" fill="#359AC0"/>
<circle cx="391.567" cy="174.236" r="6.18433" fill="#8F8F8F"/>
<circle cx="412.864" cy="174.236" r="6.18433" fill="#1A1A1A"/>
<path d="M438.036 170.669C437.519 170.156 436.905 169.752 436.23 169.479C435.555 169.206 434.832 169.072 434.104 169.082C432.737 169.079 431.425 169.618 430.456 170.582C429.487 171.547 428.941 172.856 428.938 174.223C428.934 175.59 429.474 176.902 430.438 177.871C431.402 178.84 432.711 179.386 434.078 179.389C434.373 179.394 434.661 179.301 434.897 179.125C435.133 178.949 435.303 178.699 435.382 178.415C435.432 178.21 435.432 177.996 435.381 177.791C435.329 177.587 435.229 177.398 435.088 177.24C435.056 177.203 435.035 177.158 435.027 177.109C435.02 177.06 435.026 177.01 435.047 176.965C435.067 176.92 435.099 176.882 435.14 176.855C435.182 176.828 435.23 176.813 435.279 176.813H436.129C436.93 176.816 437.702 176.517 438.291 175.975C438.88 175.433 439.242 174.688 439.304 173.89C439.323 173.296 439.221 172.703 439.003 172.149C438.785 171.595 438.456 171.092 438.036 170.669ZM431.491 175.648C431.365 175.734 431.215 175.78 431.062 175.781C430.909 175.783 430.76 175.738 430.632 175.654C430.504 175.57 430.404 175.45 430.344 175.309C430.285 175.168 430.269 175.013 430.297 174.862C430.326 174.712 430.399 174.574 430.507 174.465C430.614 174.356 430.752 174.282 430.902 174.251C431.051 174.22 431.207 174.235 431.349 174.293C431.49 174.351 431.612 174.449 431.697 174.576C431.755 174.66 431.795 174.754 431.816 174.853C431.836 174.953 431.837 175.055 431.818 175.155C431.799 175.255 431.76 175.349 431.704 175.434C431.648 175.519 431.575 175.591 431.491 175.648ZM432.244 172.818C432.17 172.954 432.058 173.065 431.921 173.136C431.784 173.208 431.629 173.237 431.476 173.219C431.323 173.202 431.178 173.139 431.061 173.039C430.943 172.938 430.859 172.805 430.818 172.656C430.777 172.507 430.782 172.35 430.831 172.204C430.881 172.057 430.973 171.929 431.095 171.836C431.218 171.742 431.366 171.688 431.52 171.679C431.675 171.671 431.828 171.709 431.96 171.788C432.131 171.89 432.256 172.054 432.309 172.246C432.362 172.438 432.338 172.643 432.244 172.818ZM433.635 171.659C433.482 171.659 433.333 171.614 433.206 171.529C433.078 171.444 432.979 171.323 432.921 171.182C432.862 171.04 432.847 170.885 432.877 170.735C432.907 170.585 432.98 170.447 433.088 170.339C433.197 170.231 433.334 170.158 433.484 170.128C433.634 170.098 433.79 170.113 433.931 170.172C434.072 170.23 434.193 170.329 434.278 170.456C434.363 170.584 434.408 170.733 434.408 170.886C434.408 171.091 434.327 171.288 434.182 171.433C434.037 171.577 433.84 171.659 433.635 171.659ZM436.598 172.071C436.466 172.15 436.313 172.188 436.159 172.18C436.005 172.171 435.857 172.117 435.734 172.023C435.611 171.93 435.519 171.802 435.469 171.655C435.42 171.509 435.415 171.352 435.456 171.203C435.497 171.054 435.582 170.921 435.699 170.82C435.816 170.72 435.961 170.657 436.114 170.64C436.267 170.622 436.423 170.651 436.559 170.723C436.696 170.794 436.808 170.905 436.882 171.04C436.976 171.216 437 171.421 436.947 171.613C436.894 171.805 436.769 171.969 436.598 172.071Z" fill="url(#pattern0)"/>
</g>
<g filter="url(#filter4_d_23007_2794)">
<g clip-path="url(#clip7_23007_2794)">
<rect x="290.297" y="195.065" width="269.877" height="28.8602" rx="2.06144" fill="#263238"/>
<rect width="38.6521" height="28.8602" transform="translate(290.297 195.065)" fill="#263238"/>
<g clip-path="url(#clip8_23007_2794)">
<path d="M298.038 208.289C297.995 208.334 297.967 208.391 297.957 208.453C297.947 208.515 297.956 208.578 297.982 208.635C298.011 208.697 298.057 208.748 298.114 208.784C298.172 208.819 298.239 208.836 298.306 208.833H299.506C299.728 208.515 300.022 208.255 300.363 208.075C300.705 207.896 301.083 207.801 301.468 207.801H304.019C304.067 207.704 304.12 207.612 304.177 207.524L301.413 203.745L298.038 208.289Z" fill="#DDDDDD"/>
<path d="M299.594 210.246V213.343C299.594 213.847 299.792 214.331 300.144 214.687C300.495 215.044 300.972 215.244 301.469 215.245H304.525C305.022 215.244 305.499 215.044 305.85 214.687C306.202 214.331 306.4 213.847 306.4 213.343V212.44C305.947 212.379 305.513 212.218 305.128 211.969C304.742 211.721 304.415 211.39 304.168 211.001C303.92 210.611 303.76 210.172 303.697 209.713C303.633 209.255 303.669 208.787 303.802 208.344H301.469C300.972 208.345 300.495 208.545 300.144 208.902C299.792 209.258 299.594 209.742 299.594 210.246Z" fill="#DDDDDD"/>
<path d="M306.824 211.93C307.343 211.93 307.851 211.773 308.282 211.48C308.714 211.188 309.05 210.772 309.248 210.285C309.447 209.799 309.498 209.263 309.397 208.747C309.295 208.231 309.045 207.757 308.677 207.384C308.31 207.012 307.842 206.759 307.333 206.656C306.824 206.554 306.296 206.607 305.816 206.808C305.336 207.01 304.926 207.351 304.638 207.789C304.349 208.227 304.195 208.741 304.195 209.268C304.196 209.974 304.473 210.651 304.966 211.15C305.459 211.65 306.127 211.93 306.824 211.93Z" fill="#DDDDDD"/>
</g>
<path fill-rule="evenodd" clip-rule="evenodd" d="M321.005 211.252L318.639 208.892L316.274 211.252L315.547 210.526L318.639 207.434L321.731 210.526L321.005 211.252Z" fill="#DDDDDD"/>
<path d="M328.945 195.065H367.597V223.925H328.945V195.065Z" fill="#263238"/>
<path d="M329.074 223.925V195.065H328.816V223.925H329.074Z" fill="#979797"/>
<circle cx="342.348" cy="209.495" r="6.18433" fill="#D9D9D9"/>
<path fill-rule="evenodd" clip-rule="evenodd" d="M359.661 211.252L357.295 208.892L354.93 211.252L354.203 210.526L357.295 207.434L360.387 210.526L359.661 211.252Z" fill="#DDDDDD"/>
<rect width="38.6521" height="28.8602" transform="translate(367.602 195.065)" fill="#36474F"/>
<g clip-path="url(#clip9_23007_2794)">
<path d="M381.013 205.887C380.539 205.887 380.07 205.981 379.632 206.162C379.194 206.343 378.797 206.609 378.462 206.944C378.127 207.279 377.861 207.677 377.68 208.114C377.499 208.552 377.405 209.021 377.405 209.495C377.405 209.969 377.499 210.438 377.68 210.875C377.861 211.313 378.127 211.711 378.462 212.046C378.797 212.381 379.194 212.647 379.632 212.828C380.07 213.009 380.539 213.102 381.013 213.102C381.969 213.102 382.887 212.722 383.564 212.046C384.24 211.369 384.62 210.452 384.62 209.495C384.62 208.538 384.24 207.621 383.564 206.944C382.887 206.267 381.969 205.887 381.013 205.887ZM381.013 203.826C384.144 203.826 386.682 206.364 386.682 209.495C386.682 212.626 384.144 215.164 381.013 215.164C377.882 215.164 375.344 212.626 375.344 209.495C375.344 206.364 377.882 203.826 381.013 203.826Z" fill="#F6F8F8" fill-opacity="0.25"/>
<path fill-rule="evenodd" clip-rule="evenodd" d="M381.013 205.887V203.826C381.781 203.826 382.514 203.979 383.182 204.256L382.394 206.161C381.956 205.979 381.487 205.887 381.013 205.887ZM383.564 206.943L385.021 205.485C385.548 206.012 385.966 206.636 386.252 207.324L384.347 208.113C384.165 207.675 383.899 207.278 383.564 206.943ZM384.62 209.495H386.682C386.682 210.263 386.529 210.997 386.251 211.665L384.347 210.876C384.523 210.45 384.62 209.984 384.62 209.495ZM383.564 212.046L385.021 213.503C384.495 214.03 383.87 214.448 383.183 214.734L382.393 212.829C382.831 212.647 383.228 212.381 383.563 212.045L383.564 212.046ZM381.013 213.102V215.164C380.244 215.164 379.511 215.011 378.843 214.734L379.632 212.829C380.057 213.005 380.523 213.102 381.013 213.102ZM378.462 212.046L377.004 213.503C376.478 212.977 376.06 212.353 375.774 211.665L377.679 210.876C377.861 211.313 378.127 211.711 378.462 212.045L378.462 212.046ZM377.405 209.495H375.344C375.344 208.726 375.497 207.993 375.774 207.325L377.678 208.114C377.497 208.552 377.404 209.021 377.405 209.495ZM378.462 206.944L377.004 205.486C377.53 204.96 378.155 204.542 378.843 204.256L379.632 206.161C379.195 206.342 378.796 206.609 378.462 206.944Z" fill="#F6F8F8"/>
</g>
<path fill-rule="evenodd" clip-rule="evenodd" d="M398.317 211.252L395.952 208.892L393.586 211.252L392.859 210.526L395.952 207.434L399.044 210.526L398.317 211.252Z" fill="#DDDDDD"/>
<path d="M406.379 223.925V195.065H406.121V223.925H406.379Z" fill="#979797"/>
<path d="M419.069 213.618V206.918H416.492V205.372H423.192V206.918H420.615V213.618H419.069ZM423.707 213.618V209.495H422.161V207.949H426.799V209.495H425.253V213.618H423.707Z" fill="#DDDDDD"/>
<path d="M437.297 223.925V195.065H436.781V223.925H437.297Z" fill="#979797" mask="url(#path-64-inside-1_23007_2794)"/>
<path fill-rule="evenodd" clip-rule="evenodd" d="M456.042 205.372H452.435V205.887H453.981V213.102H452.435V213.618H456.042V213.102H454.496V205.887H456.042V205.372ZM452.435 207.434H446.766V211.556H452.435V211.041H447.281V207.949H452.435V207.434ZM458.104 207.949V211.556H456.042V211.041H457.588V207.949H456.042V207.434H458.104V207.949Z" fill="#DDDDDD"/>
<path d="M467.949 223.925V195.065H467.691V223.925H467.949Z" fill="#979797"/>
<g clip-path="url(#clip10_23007_2794)">
<path d="M485.278 203.826H479.093C478.526 203.826 478.062 204.29 478.062 204.857V212.072H479.093V204.857H485.278V203.826ZM484.762 205.888L487.854 208.98V214.133C487.854 214.7 487.391 215.164 486.824 215.164H481.15C480.583 215.164 480.124 214.7 480.124 214.133L480.129 206.918C480.129 206.351 480.588 205.888 481.155 205.888H484.762ZM484.247 209.495H487.081L484.247 206.661V209.495Z" fill="white" fill-opacity="0.9"/>
</g>
<g clip-path="url(#clip11_23007_2794)">
<path d="M509.882 206.403H508.852V213.618C508.852 214.185 509.315 214.649 509.882 214.649H517.097V213.618H509.882V206.403ZM518.128 204.342H511.944C511.377 204.342 510.913 204.805 510.913 205.372V211.557C510.913 212.123 511.377 212.587 511.944 212.587H518.128C518.695 212.587 519.159 212.123 519.159 211.557V205.372C519.159 204.805 518.695 204.342 518.128 204.342ZM517.613 208.98H515.551V211.041H514.521V208.98H512.459V207.949H514.521V205.888H515.551V207.949H517.613V208.98Z" fill="white" fill-opacity="0.9"/>
</g>
<path d="M541.695 213.102C541.695 213.669 542.159 214.133 542.726 214.133H546.849C547.416 214.133 547.879 213.669 547.879 213.102V206.918H541.695V213.102ZM548.395 205.372H546.591L546.076 204.857H543.499L542.983 205.372H541.18V206.403H548.395V205.372Z" fill="white" fill-opacity="0.9"/>
</g>
</g>
<circle cx="32.9849" cy="67.7454" r="16.9849" fill="white" fill-opacity="0.1"/>
<path fill-rule="evenodd" clip-rule="evenodd" d="M31.8072 68.8491L30.2109 72.3602L31.8072 68.8491Z" fill="white"/>
<path d="M31.8072 68.8491L30.2109 72.3602" stroke="white" stroke-width="0.905862" stroke-miterlimit="800"/>
<path d="M28.9725 74.128C28.9725 73.2993 29.5617 72.6974 30.2071 72.6974L31.0665 73.1019C31.0665 73.1019 31.0665 73.1019 31.0665 73.1019C31.3031 73.368 31.4417 73.7366 31.4417 74.128C31.4417 74.9567 30.8526 75.5587 30.2071 75.5587C29.5617 75.5587 28.9725 74.9567 28.9725 74.128Z" fill="white" stroke="white" stroke-width="0.679396"/>
<path fill-rule="evenodd" clip-rule="evenodd" d="M28.6328 74.128C28.6328 73.1503 29.3377 72.3577 30.2071 72.3577C30.6246 72.3577 31.0251 72.5442 31.3203 72.8762C31.6156 73.2082 31.7814 73.6585 31.7814 74.128C31.7814 75.1057 31.0766 75.8984 30.2071 75.8984C29.3377 75.8984 28.6328 75.1057 28.6328 74.128Z" fill="white" stroke="white" stroke-width="0.905862" stroke-miterlimit="800"/>
<path fill-rule="evenodd" clip-rule="evenodd" d="M31.9387 65.9931L30.2109 63.1428L31.9387 65.9931Z" fill="white"/>
<path d="M31.9387 65.9931L30.2109 63.1428" stroke="white" stroke-width="0.905862" stroke-miterlimit="800"/>
<path d="M28.9725 61.3726C28.9725 62.2013 29.5617 62.8033 30.2071 62.8033C30.5208 62.8033 30.831 62.6635 31.0665 62.3987L28.9725 61.3726ZM28.9725 61.3726C28.9725 60.5439 29.5617 59.942 30.2071 59.942C30.8526 59.942 31.4417 60.5439 31.4417 61.3726C31.4417 61.7641 31.3031 62.1327 31.0665 62.3987L28.9725 61.3726Z" fill="white" stroke="white" stroke-width="0.679396"/>
<path fill-rule="evenodd" clip-rule="evenodd" d="M28.6328 61.3726C28.6328 62.3504 29.3377 63.143 30.2071 63.143C30.6246 63.143 31.0251 62.9565 31.3203 62.6245C31.6156 62.2925 31.7814 61.8422 31.7814 61.3726C31.7814 60.3949 31.0766 59.6023 30.2071 59.6023C29.3377 59.6023 28.6328 60.3949 28.6328 61.3726Z" fill="white" stroke="white" stroke-width="0.905862" stroke-miterlimit="800"/>
<path fill-rule="evenodd" clip-rule="evenodd" d="M31.3486 67.5933L27.6562 69.7828L31.3486 67.5933Z" fill="white"/>
<path d="M31.3486 67.5933L27.6562 69.7828" stroke="white" stroke-width="0.905862" stroke-miterlimit="800"/>
<path d="M25.6837 70.0128L25.6837 70.0128C25.9191 69.748 26.2293 69.6083 26.5431 69.6083C27.1885 69.6083 27.7777 70.2102 27.7777 71.0389C27.7777 71.8676 27.1885 72.4695 26.5431 72.4695C25.8976 72.4695 25.3084 71.8676 25.3084 71.0389C25.3084 70.6474 25.4471 70.2789 25.6837 70.0128Z" fill="white" stroke="white" stroke-width="0.679396"/>
<path fill-rule="evenodd" clip-rule="evenodd" d="M28.1174 71.0389C28.1174 70.0612 27.4125 69.2686 26.5431 69.2686C26.1255 69.2686 25.7251 69.4551 25.4299 69.7871C25.1346 70.1191 24.9688 70.5694 24.9688 71.0389C24.9688 72.0166 25.6736 72.8092 26.5431 72.8092C27.4125 72.8092 28.1174 72.0166 28.1174 71.0389Z" fill="white" stroke="white" stroke-width="0.905862" stroke-miterlimit="800"/>
<path d="M25.5509 64.4833C25.7863 64.2185 26.0965 64.0787 26.4102 64.0787C27.0557 64.0787 27.6448 64.6807 27.6448 65.5094C27.6448 66.3381 27.0557 66.94 26.4102 66.94C25.7648 66.94 25.1756 66.3381 25.1756 65.5094C25.1756 65.1179 25.3143 64.7493 25.5509 64.4833Z" fill="white" stroke="white" stroke-width="0.679396"/>
<path fill-rule="evenodd" clip-rule="evenodd" d="M27.9845 65.5094C27.9845 64.5316 27.2797 63.739 26.4102 63.739C25.9927 63.739 25.5923 63.9255 25.297 64.2575C25.0018 64.5895 24.8359 65.0398 24.8359 65.5094C24.8359 66.4871 25.5408 67.2797 26.4102 67.2797C27.2797 67.2797 27.9845 66.4871 27.9845 65.5094Z" fill="white" stroke="white" stroke-width="0.905862" stroke-miterlimit="800"/>
<path fill-rule="evenodd" clip-rule="evenodd" d="M31.3357 67.5935L27.9766 65.5125L31.3357 67.5935Z" fill="white"/>
<path d="M31.3357 67.5935L27.9766 65.5125" stroke="white" stroke-width="0.905862" stroke-miterlimit="800"/>
<path fill-rule="evenodd" clip-rule="evenodd" d="M34.0391 68.8491L35.7668 72.3504L34.0391 68.8491Z" fill="white"/>
<path d="M34.0391 68.8491L35.7668 72.3504" stroke="white" stroke-width="0.905862" stroke-miterlimit="800"/>
<path d="M35.7696 72.6878C36.4151 72.6878 37.0042 73.2898 37.0042 74.1185C37.0042 74.9472 36.4151 75.5491 35.7696 75.5491C35.1241 75.5491 34.535 74.9472 34.535 74.1185C34.535 73.727 34.6737 73.3585 34.9103 73.0924C35.1457 72.8276 35.4559 72.6878 35.7696 72.6878Z" fill="white" stroke="white" stroke-width="0.679396"/>
<path fill-rule="evenodd" clip-rule="evenodd" d="M37.3439 74.1185C37.3439 73.1408 36.6391 72.3481 35.7696 72.3481C35.3521 72.3481 34.9517 72.5347 34.6564 72.8667C34.3612 73.1987 34.1953 73.649 34.1953 74.1185C34.1953 75.0962 34.9001 75.8888 35.7696 75.8888C36.6391 75.8888 37.3439 75.0962 37.3439 74.1185Z" fill="white" stroke="white" stroke-width="0.905862" stroke-miterlimit="800"/>
<path fill-rule="evenodd" clip-rule="evenodd" d="M34.0391 66.3389L35.7668 63.1335L34.0391 66.3389Z" fill="white"/>
<path d="M34.0391 66.3389L35.7668 63.1335" stroke="white" stroke-width="0.905862" stroke-miterlimit="800"/>
<path d="M34.9103 62.3892L34.9103 62.3892C34.6737 62.1231 34.535 61.7546 34.535 61.3631C34.535 60.5344 35.1241 59.9325 35.7696 59.9325C36.4151 59.9325 37.0042 60.5344 37.0042 61.3631C37.0042 62.1918 36.4151 62.7938 35.7696 62.7938C35.4559 62.7938 35.1457 62.654 34.9103 62.3892Z" fill="white" stroke="white" stroke-width="0.679396"/>
<path fill-rule="evenodd" clip-rule="evenodd" d="M37.3439 61.3631C37.3439 62.3409 36.6391 63.1335 35.7696 63.1335C35.3521 63.1335 34.9517 62.947 34.6564 62.6149C34.3612 62.2829 34.1953 61.8326 34.1953 61.3631C34.1953 60.3854 34.9001 59.5928 35.7696 59.5928C36.6391 59.5928 37.3439 60.3854 37.3439 61.3631Z" fill="white" stroke="white" stroke-width="0.905862" stroke-miterlimit="800"/>
<path fill-rule="evenodd" clip-rule="evenodd" d="M34.5078 67.5933L38.3318 69.7729L34.5078 67.5933Z" fill="white"/>
<path d="M34.5078 67.5933L38.3318 69.7729" stroke="white" stroke-width="0.905862" stroke-miterlimit="800"/>
<path d="M38.1991 71.0294C38.1991 70.2007 38.7882 69.5987 39.4337 69.5987C39.7474 69.5987 40.0576 69.7385 40.293 70.0033C40.5296 70.2694 40.6683 70.6379 40.6683 71.0294C40.6683 71.8581 40.0792 72.46 39.4337 72.46C38.7882 72.46 38.1991 71.8581 38.1991 71.0294Z" fill="white" stroke="white" stroke-width="0.679396"/>
<path fill-rule="evenodd" clip-rule="evenodd" d="M37.8594 71.0294C37.8594 70.0516 38.5642 69.259 39.4337 69.259C39.8512 69.259 40.2516 69.4456 40.5469 69.7776C40.8421 70.1096 41.008 70.5599 41.008 71.0294C41.008 72.0071 40.3031 72.7997 39.4337 72.7997C38.5642 72.7997 37.8594 72.0071 37.8594 71.0294Z" fill="white" stroke="white" stroke-width="0.905862" stroke-miterlimit="800"/>
<path d="M39.5743 64.0694C38.9288 64.0694 38.3397 64.6714 38.3397 65.5001C38.3397 66.3288 38.9288 66.9307 39.5743 66.9307C40.2198 66.9307 40.8089 66.3288 40.8089 65.5001C40.8089 65.1086 40.6702 64.7401 40.4337 64.474L39.5743 64.0694ZM39.5743 64.0694C39.888 64.0694 40.1982 64.2092 40.4336 64.474L39.5743 64.0694Z" fill="white" stroke="white" stroke-width="0.679396"/>
<path fill-rule="evenodd" clip-rule="evenodd" d="M38 65.5001C38 64.5223 38.7048 63.7297 39.5743 63.7297C39.9918 63.7297 40.3923 63.9163 40.6875 64.2483C40.9827 64.5803 41.1486 65.0306 41.1486 65.5001C41.1486 66.4778 40.4438 67.2704 39.5743 67.2704C38.7048 67.2704 38 66.4778 38 65.5001Z" fill="white" stroke="white" stroke-width="0.905862" stroke-miterlimit="800"/>
<path fill-rule="evenodd" clip-rule="evenodd" d="M34.5078 67.5936L37.9985 65.5027L34.5078 67.5936Z" fill="white"/>
<path d="M34.5078 67.5936L37.9985 65.5027" stroke="white" stroke-width="0.905862" stroke-miterlimit="800"/>
<path d="M33.7771 66.5646L33.7771 66.5646C34.0145 66.8315 34.1536 67.2014 34.1536 67.5941C34.1536 68.4256 33.5625 69.0297 32.9146 69.0297C32.2667 69.0297 31.6756 68.4256 31.6756 67.5941C31.6756 66.7627 32.2667 66.1585 32.9146 66.1585C33.2295 66.1585 33.5408 66.2989 33.7771 66.5646Z" fill="white" stroke="white" stroke-width="0.679396"/>
<path fill-rule="evenodd" clip-rule="evenodd" d="M31.3359 67.5941C31.3359 66.6137 32.0427 65.8188 32.9146 65.8188C33.3333 65.8188 33.7349 66.0059 34.0309 66.3388C34.327 66.6717 34.4933 67.1233 34.4933 67.5941C34.4933 68.5746 33.7865 69.3694 32.9146 69.3694C32.0427 69.3694 31.3359 68.5746 31.3359 67.5941Z" fill="white" stroke="white" stroke-width="0.905862" stroke-miterlimit="800"/>
<circle cx="824.626" cy="67.7454" r="16.9849" fill="white" fill-opacity="0.1"/>
<path d="M830.431 66.0562L830.483 66.235L830.661 66.2881L832.442 66.8193V66.8268V68.6724L830.618 69.2132L830.441 69.2657L830.388 69.4429C830.268 69.8517 830.104 70.2465 829.899 70.6206L829.811 70.7819L829.898 70.9441L830.798 72.6224L829.503 73.9159L827.817 73.0166L827.655 72.9307L827.495 73.0177C827.122 73.22 826.728 73.3821 826.321 73.5012L826.143 73.5532L826.091 73.7308L825.549 75.5583H823.725L823.184 73.736L823.131 73.5578L822.952 73.5063C822.542 73.3878 822.145 73.2257 821.768 73.0228L821.608 72.9363L821.447 73.0221L819.772 73.9159L818.477 72.6224L819.367 70.9192L819.453 70.7554L819.362 70.5945C819.147 70.215 818.974 69.8132 818.847 69.3962L818.794 69.2223L818.62 69.1701L816.816 68.629V66.8073L818.609 66.2661L818.785 66.2131L818.837 66.0376C818.963 65.6135 819.136 65.2047 819.352 64.8187L819.443 64.6556L819.354 64.4912L818.477 62.8683L819.793 61.586L819.793 61.5861L819.793 61.5857L821.418 62.4624L821.582 62.5509L821.745 62.4601C822.133 62.2438 822.544 62.0713 822.971 61.9458L823.146 61.894L823.2 61.7185L823.741 59.9323H825.573V59.9324L825.575 59.9324L826.113 61.7128L826.166 61.8877L826.341 61.94C826.764 62.0662 827.171 62.2386 827.556 62.4543L827.718 62.5452L827.882 62.4577L829.536 61.5748L830.83 62.8737L829.941 64.536L829.855 64.6971L829.942 64.8578C830.148 65.2385 830.312 65.6403 830.431 66.0562ZM830.802 72.6181C830.802 72.6181 830.802 72.6181 830.802 72.618L830.802 72.6181ZM829.532 61.5708C829.532 61.5708 829.532 61.5708 829.532 61.5707L829.532 61.5708ZM822.803 70.5134C823.351 70.8792 823.995 71.0744 824.654 71.0744C825.537 71.0744 826.385 70.7237 827.01 70.0994C827.634 69.4751 827.986 68.6283 827.986 67.7453C827.986 67.0868 827.79 66.4432 827.424 65.8957C827.058 65.3482 826.537 64.9216 825.929 64.6697C825.32 64.4177 824.65 64.3518 824.004 64.4803C823.357 64.6087 822.764 64.9257 822.298 65.3912C821.832 65.8568 821.514 66.45 821.386 67.0958C821.257 67.7416 821.323 68.4111 821.575 69.0194C821.828 69.6277 822.255 70.1476 822.803 70.5134Z" fill="white" stroke="white" stroke-width="0.679396"/>
<circle cx="43.9849" cy="430.855" r="16.9849" fill="white" fill-opacity="0.1"/>
<path d="M41.3503 425.372H41.8678C41.9138 425.372 41.9368 425.395 41.9368 425.441V431.513C41.9368 431.559 41.9138 431.582 41.8678 431.582H41.3503C41.3043 431.582 41.2812 431.559 41.2812 431.513V425.441C41.2812 425.395 41.3043 425.372 41.3503 425.372Z" fill="white"/>
<path d="M38.7096 428.149H44.5057C44.5517 428.149 44.5747 428.172 44.5747 428.218V428.736C44.5747 428.782 44.5517 428.805 44.5057 428.805H38.7096C38.6636 428.805 38.6406 428.782 38.6406 428.736V428.218C38.6406 428.172 38.6636 428.149 38.7096 428.149Z" fill="white"/>
<path d="M45.9235 432.319L51.6601 438.012L51.145 438.527L45.4292 432.811L45.2055 432.588L44.9665 432.795C44.5472 433.158 44.0556 433.444 43.4879 433.649C42.9232 433.854 42.321 433.957 41.6787 433.957C40.1364 433.957 38.842 433.426 37.7746 432.358C36.706 431.29 36.1756 430.01 36.1756 428.5C36.1756 426.989 36.706 425.71 37.7746 424.641C38.8426 423.573 40.1298 423.042 41.6561 423.042C43.1662 423.042 44.442 423.572 45.5028 424.64C46.5642 425.709 47.0913 426.989 47.0913 428.5C47.0913 429.111 46.9918 429.7 46.7933 430.267C46.5953 430.833 46.2977 431.365 45.8975 431.866L45.7068 432.104L45.9235 432.319ZM41.6561 433.278C42.9696 433.278 44.0982 432.808 45.0226 431.875C45.9462 430.944 46.4119 429.812 46.4119 428.5C46.4119 427.187 45.9462 426.056 45.0226 425.124C44.0982 424.191 42.9696 423.721 41.6561 423.721C40.3288 423.721 39.1891 424.19 38.2567 425.123C37.3252 426.054 36.855 427.186 36.855 428.5C36.855 429.813 37.3252 430.945 38.2567 431.876C39.1891 432.809 40.3288 433.278 41.6561 433.278Z" fill="white" stroke="white" stroke-width="0.679396"/>
<circle cx="835.626" cy="430.855" r="16.9849" fill="white" fill-opacity="0.1"/>
<g clip-path="url(#clip12_23007_2794)">
<path d="M830.133 431.924L835.383 422.702V429.688C834.793 429.808 834.344 430.331 834.344 430.96C834.344 431.678 834.927 432.254 835.638 432.254C836.348 432.254 836.932 431.67 836.932 430.96C836.932 430.324 836.468 429.793 835.862 429.681V422.702L841.098 431.939C839.378 433.054 838.488 434.565 838.435 436.48H832.728C832.653 434.475 831.733 432.987 830.133 431.924Z" fill="white"/>
<path d="M835.636 431.782C836.084 431.782 836.451 431.416 836.451 430.967C836.451 430.518 836.084 430.152 835.636 430.152C835.187 430.152 834.82 430.518 834.82 430.967C834.82 431.423 835.187 431.782 835.636 431.782Z" fill="white"/>
<path d="M840.151 437.631H831.078V439.008H840.151V437.631Z" fill="white"/>
</g>
<g filter="url(#filter5_d_23007_2794)">
<rect x="342" y="413.87" width="193.855" height="37.0539" rx="7.23003" fill="#202020"/>
<g clip-path="url(#clip13_23007_2794)">
<path d="M356.16 437.759H353.991C353.811 437.157 353.268 436.675 352.545 436.675C351.702 436.675 351.039 437.337 351.039 438.181C351.039 439.024 351.702 439.687 352.545 439.687C353.208 439.687 353.811 439.205 353.991 438.603H356.642C356.883 438.603 357.064 438.422 357.064 438.181V436.434H356.16V437.759ZM352.606 438.844C352.244 438.844 352.003 438.542 352.003 438.241C352.003 437.94 352.304 437.639 352.606 437.639C352.967 437.639 353.208 437.94 353.208 438.241C353.208 438.542 352.967 438.844 352.606 438.844Z" fill="#F6F8F8" fill-opacity="0.8"/>
<path d="M359.539 438.181C359.539 438.422 359.72 438.603 359.961 438.603H362.552C362.732 439.205 363.275 439.687 363.998 439.687C364.841 439.687 365.504 439.024 365.504 438.181C365.504 437.337 364.841 436.675 363.998 436.675C363.335 436.675 362.732 437.157 362.552 437.759H360.383V436.434H359.539V438.181ZM363.937 437.578C364.299 437.578 364.54 437.88 364.54 438.181C364.54 438.542 364.239 438.783 363.937 438.783C363.576 438.783 363.335 438.482 363.335 438.181C363.335 437.88 363.576 437.578 363.937 437.578Z" fill="#F6F8F8" fill-opacity="0.8"/>
<path d="M365.799 430.891C365.136 430.891 364.534 431.373 364.353 431.975H362.305V432.879H364.353C364.534 433.482 365.076 433.964 365.799 433.964C366.643 433.964 367.305 433.301 367.305 432.457C367.305 431.614 366.643 430.891 365.799 430.891ZM365.799 433C365.438 433 365.197 432.698 365.197 432.397C365.197 432.096 365.498 431.795 365.799 431.795C366.1 431.795 366.402 432.096 366.402 432.397C366.402 432.698 366.161 433 365.799 433Z" fill="#F6F8F8" fill-opacity="0.8"/>
<path d="M360.38 427.035H362.549C362.73 427.637 363.272 428.119 363.995 428.119C364.839 428.119 365.502 427.456 365.502 426.613C365.502 425.769 364.839 425.107 363.995 425.107C363.333 425.107 362.73 425.589 362.549 426.191H359.959C359.718 426.191 359.477 426.372 359.477 426.613V428.36H360.38V427.035ZM363.935 425.95C364.297 425.95 364.538 426.251 364.538 426.553C364.538 426.854 364.236 427.155 363.935 427.155C363.574 427.155 363.333 426.854 363.333 426.553C363.333 426.251 363.574 425.95 363.935 425.95Z" fill="#F6F8F8" fill-opacity="0.8"/>
<path d="M352.187 431.975C352.006 431.373 351.464 430.891 350.741 430.891C349.897 430.891 349.234 431.553 349.234 432.397C349.234 433.241 349.897 433.903 350.741 433.903C351.403 433.903 352.006 433.421 352.187 432.819H354.235V431.915H352.187V431.975ZM350.741 433C350.379 433 350.138 432.698 350.138 432.397C350.138 432.096 350.439 431.795 350.741 431.795C351.102 431.795 351.343 432.096 351.343 432.397C351.343 432.698 351.102 433 350.741 433Z" fill="#F6F8F8" fill-opacity="0.8"/>
<path d="M357.066 426.613C357.066 426.372 356.886 426.191 356.645 426.191H353.994C353.813 425.589 353.271 425.107 352.548 425.107C351.764 425.107 351.102 425.769 351.102 426.613C351.102 427.456 351.764 428.119 352.608 428.119C353.271 428.119 353.873 427.637 354.054 427.035H356.223V428.36H357.066V426.613ZM352.608 427.215C352.246 427.215 352.005 426.914 352.005 426.613C352.005 426.251 352.307 426.01 352.608 426.01C352.969 426.01 353.21 426.312 353.21 426.613C353.21 426.914 352.969 427.215 352.608 427.215Z" fill="#F6F8F8" fill-opacity="0.8"/>
<path d="M362.306 429.806C362.306 429.023 361.643 428.36 360.86 428.36H360.317H359.474H357.064H356.16H355.618C354.835 428.36 354.172 429.023 354.172 429.806V431.975V432.879V435.048C354.172 435.831 354.835 436.494 355.618 436.494H356.16H357.064H359.474H360.317H360.799C361.583 436.494 362.245 435.831 362.245 435.048V432.879V431.975V429.806H362.306ZM360.438 434.144C360.438 434.385 360.257 434.566 360.016 434.566H356.522C356.281 434.566 356.1 434.385 356.1 434.144V430.65C356.1 430.409 356.281 430.228 356.522 430.228H360.016C360.257 430.228 360.438 430.409 360.438 430.65V434.144Z" fill="#F6F8F8"/>
<path d="M356.945 431.071H359.596V433.722H356.945V431.071Z" fill="#F6F8F8" fill-opacity="0.8"/>
</g>
<path fill-rule="evenodd" clip-rule="evenodd" d="M380.597 440.305C380.219 440.305 379.851 440.132 379.61 439.818L375.934 435.105C375.813 434.951 375.728 434.771 375.686 434.58C375.644 434.389 375.646 434.19 375.692 434L377.008 428.118C377.092 427.728 377.345 427.414 377.691 427.241L383.018 424.62C383.187 424.532 383.376 424.489 383.566 424.489C383.756 424.489 383.944 424.532 384.114 424.619L389.438 427.23C389.786 427.402 390.039 427.718 390.123 428.107L391.439 433.99C391.522 434.379 391.439 434.781 391.197 435.095L387.518 439.814C387.276 440.117 386.908 440.305 386.529 440.305H380.597ZM389.316 433.713L389.351 433.722C389.399 433.728 389.445 433.745 389.486 433.77C389.527 433.795 389.562 433.828 389.59 433.867C389.617 433.907 389.637 433.951 389.646 433.998C389.655 434.046 389.655 434.094 389.645 434.141C389.634 434.188 389.614 434.233 389.585 434.272C389.556 434.31 389.519 434.343 389.477 434.367C389.435 434.39 389.388 434.405 389.34 434.409C389.292 434.414 389.243 434.408 389.197 434.393H389.193L389.189 434.392L389.186 434.391L389.152 434.383L389.096 434.372C388.99 434.338 388.887 434.298 388.786 434.252C388.592 434.174 388.39 434.115 388.184 434.076C388.113 434.073 388.044 434.099 387.991 434.147C387.942 434.137 387.892 434.129 387.843 434.121C387.508 435.17 386.799 436.06 385.85 436.62C385.867 436.667 385.886 436.713 385.908 436.759C385.873 436.82 385.863 436.893 385.882 436.962C385.965 437.154 386.068 437.337 386.188 437.509C386.256 437.597 386.317 437.689 386.373 437.784L386.405 437.849L386.418 437.877C386.456 437.939 386.473 438.012 386.467 438.085C386.461 438.158 386.431 438.227 386.384 438.282C386.336 438.337 386.272 438.376 386.201 438.392C386.13 438.409 386.055 438.402 385.988 438.374C385.943 438.356 385.903 438.328 385.869 438.293C385.836 438.258 385.81 438.216 385.794 438.171C385.79 438.163 385.786 438.156 385.782 438.148L385.751 438.083C385.711 437.979 385.678 437.874 385.65 437.766C385.59 437.566 385.511 437.372 385.413 437.188C385.37 437.13 385.307 437.092 385.237 437.081C385.225 437.061 385.214 437.041 385.203 437.021L385.163 436.948C384.135 437.337 383 437.334 381.973 436.94L381.895 437.082C381.839 437.09 381.787 437.115 381.746 437.154C381.628 437.346 381.538 437.555 381.478 437.773C381.451 437.88 381.418 437.986 381.379 438.089L381.351 438.146L381.336 438.176C381.319 438.222 381.294 438.264 381.26 438.299C381.227 438.333 381.186 438.361 381.142 438.379C381.097 438.397 381.049 438.406 381.001 438.405C380.953 438.404 380.906 438.393 380.862 438.372C380.819 438.351 380.78 438.322 380.748 438.286C380.717 438.249 380.693 438.207 380.679 438.161C380.665 438.115 380.66 438.066 380.666 438.018C380.671 437.97 380.687 437.924 380.711 437.883L380.727 437.849L380.756 437.79C380.813 437.694 380.874 437.602 380.942 437.514C381.064 437.338 381.168 437.151 381.255 436.954C381.264 436.887 381.253 436.819 381.223 436.759L381.286 436.608C380.341 436.053 379.632 435.17 379.293 434.128L379.142 434.154C379.084 434.112 379.015 434.088 378.943 434.083C378.737 434.123 378.536 434.182 378.341 434.26C378.239 434.305 378.137 434.344 378.032 434.378L377.975 434.391L377.941 434.399H377.938L377.936 434.401H377.93C377.873 434.419 377.812 434.423 377.753 434.41C377.694 434.398 377.639 434.371 377.594 434.331C377.549 434.291 377.515 434.24 377.495 434.184C377.475 434.127 377.47 434.066 377.481 434.007C377.495 433.935 377.531 433.87 377.584 433.821C377.637 433.771 377.704 433.739 377.776 433.73L377.781 433.729H377.784L377.791 433.727C377.818 433.72 377.852 433.711 377.877 433.706C377.986 433.691 378.097 433.682 378.208 433.68C378.418 433.666 378.626 433.632 378.828 433.579C378.888 433.54 378.938 433.489 378.976 433.428L379.121 433.386C378.963 432.299 379.215 431.191 379.825 430.278L379.716 430.179C379.712 430.108 379.687 430.039 379.646 429.98C379.487 429.844 379.315 429.723 379.132 429.62C379.033 429.57 378.937 429.514 378.845 429.453C378.821 429.435 378.797 429.416 378.774 429.396L378.769 429.392C378.69 429.336 378.637 429.251 378.621 429.155C378.605 429.06 378.627 428.962 378.683 428.884C378.717 428.843 378.759 428.811 378.807 428.79C378.855 428.769 378.907 428.76 378.959 428.763C379.047 428.766 379.131 428.798 379.2 428.853L379.224 428.872C379.243 428.887 379.263 428.902 379.276 428.914C379.357 428.99 379.433 429.071 379.505 429.155C379.646 429.309 379.802 429.451 379.97 429.575C380.033 429.609 380.107 429.616 380.176 429.595L380.3 429.683C381.056 428.881 382.084 428.388 383.183 428.301L383.191 428.155C383.245 428.108 383.284 428.046 383.304 427.978C383.311 427.768 383.299 427.559 383.265 427.352C383.243 427.243 383.227 427.134 383.218 427.024V426.964V426.936V426.931V426.927C383.213 426.879 383.218 426.83 383.233 426.783C383.248 426.737 383.273 426.695 383.305 426.659C383.338 426.623 383.378 426.594 383.422 426.574C383.467 426.555 383.515 426.545 383.564 426.545C383.612 426.545 383.66 426.555 383.704 426.575C383.748 426.595 383.788 426.623 383.821 426.659C383.853 426.695 383.878 426.737 383.893 426.783C383.908 426.829 383.914 426.878 383.909 426.926V427.024C383.9 427.134 383.885 427.243 383.863 427.352C383.83 427.558 383.816 427.767 383.823 427.976C383.837 428.047 383.878 428.109 383.936 428.149V428.157L383.944 428.304C385.037 428.402 386.057 428.894 386.814 429.686L386.945 429.592C387.016 429.604 387.088 429.596 387.155 429.569C387.323 429.445 387.479 429.304 387.62 429.148C387.692 429.063 387.768 428.983 387.849 428.907L387.906 428.862L387.925 428.846C387.987 428.788 388.068 428.755 388.152 428.752C388.237 428.749 388.319 428.777 388.385 428.831C388.45 428.885 388.494 428.96 388.507 429.044C388.521 429.127 388.504 429.213 388.459 429.285C388.432 429.325 388.398 429.36 388.357 429.386C388.348 429.392 388.338 429.4 388.329 429.409L388.28 429.446C388.188 429.507 388.092 429.563 387.993 429.613C387.81 429.717 387.638 429.838 387.479 429.975C387.433 430.028 387.409 430.098 387.414 430.169C387.395 430.186 387.376 430.202 387.357 430.219L387.292 430.279C387.904 431.189 388.16 432.293 388.011 433.38L388.15 433.42C388.185 433.484 388.237 433.534 388.299 433.569C388.503 433.624 388.711 433.658 388.921 433.671C389.03 433.675 389.141 433.682 389.251 433.698L389.316 433.713ZM386.068 430.211L384.591 431.256L384.586 431.254C384.542 431.286 384.489 431.307 384.434 431.312C384.379 431.317 384.324 431.307 384.274 431.283C384.224 431.26 384.181 431.223 384.151 431.177C384.12 431.131 384.103 431.077 384.1 431.022L383.997 429.216C384.778 429.312 385.505 429.661 386.068 430.211ZM383.286 432.191H383.842L384.187 432.622L384.063 433.159L383.564 433.398L383.063 433.157L382.939 432.621L383.286 432.191ZM382.762 429.279C382.882 429.252 383.006 429.23 383.13 429.216L383.028 431.023L383.019 431.028C383.017 431.069 383.007 431.109 382.99 431.146C382.972 431.183 382.947 431.216 382.916 431.243C382.885 431.271 382.849 431.291 382.81 431.304C382.77 431.316 382.729 431.321 382.688 431.317C382.633 431.312 382.58 431.293 382.536 431.26L382.533 431.262L381.047 430.211C381.52 429.748 382.114 429.425 382.762 429.279ZM380.509 430.886L381.866 432.096L381.865 432.104C381.906 432.14 381.937 432.187 381.954 432.239C381.971 432.292 381.973 432.347 381.961 432.401C381.949 432.455 381.922 432.504 381.884 432.543C381.846 432.583 381.798 432.612 381.745 432.626L381.744 432.632L380.004 433.132C379.917 432.348 380.095 431.558 380.509 430.886ZM382.325 434.102L381.634 435.767C380.972 435.344 380.467 434.714 380.199 433.975L381.982 433.673L381.985 433.677C382.055 433.663 382.127 433.675 382.189 433.71C382.254 433.746 382.304 433.806 382.329 433.877C382.353 433.948 382.35 434.026 382.321 434.095L382.325 434.102ZM384.366 436.243C383.72 436.39 383.044 436.356 382.416 436.144L383.294 434.562C383.32 434.514 383.359 434.474 383.407 434.445C383.454 434.417 383.508 434.402 383.563 434.402C383.618 434.402 383.672 434.417 383.719 434.445C383.766 434.473 383.805 434.513 383.831 434.561H383.838L384.718 436.145C384.602 436.184 384.485 436.217 384.366 436.243ZM385.5 435.774L384.802 434.091L384.803 434.088C384.781 434.037 384.774 433.982 384.781 433.928C384.789 433.873 384.811 433.822 384.845 433.779C384.879 433.736 384.925 433.703 384.976 433.684C385.028 433.665 385.083 433.66 385.137 433.67L385.141 433.666L386.94 433.969C386.674 434.714 386.167 435.349 385.5 435.774ZM387.129 433.127L385.382 432.624L385.38 432.617C385.341 432.606 385.304 432.587 385.271 432.562C385.239 432.536 385.213 432.504 385.193 432.468C385.174 432.432 385.162 432.392 385.158 432.351C385.154 432.31 385.159 432.269 385.171 432.23C385.188 432.177 385.22 432.13 385.262 432.094L385.258 432.092L386.608 430.886C387.022 431.557 387.203 432.344 387.128 433.127H387.129Z" fill="#F6F8F8"/>
<line x1="399.618" y1="443.694" x2="399.618" y2="421.1" stroke="#3C494F" stroke-width="0.451877"/>
<g clip-path="url(#clip14_23007_2794)">
<path d="M408.576 432.171H417.237C417.915 432.171 418.367 431.342 417.915 430.815L412.944 424.112L407.898 430.815C407.446 431.342 407.823 432.171 408.576 432.171Z" fill="#F6F8F8" stroke="#202020" stroke-width="0.753128" stroke-miterlimit="10"/>
<path d="M417.313 441.058H413.02C411.363 441.058 410.008 439.702 410.008 438.045V433.752C410.008 432.095 411.363 430.74 413.02 430.74H417.313C418.97 430.74 420.326 432.095 420.326 433.752V438.045C420.326 439.702 418.97 441.058 417.313 441.058Z" fill="#F6F8F8" stroke="#202020" stroke-width="0.753128" stroke-miterlimit="10"/>
<path d="M420.559 436.464C422.805 436.464 424.626 434.643 424.626 432.397C424.626 430.151 422.805 428.33 420.559 428.33C418.313 428.33 416.492 430.151 416.492 432.397C416.492 434.643 418.313 436.464 420.559 436.464Z" fill="#F6F8F8" stroke="#202020" stroke-width="0.753128" stroke-miterlimit="10"/>
</g>
<g clip-path="url(#clip15_23007_2794)">
<path d="M448.93 426.372C448.93 425.543 448.26 424.866 447.431 424.866H435.381C434.553 424.866 433.875 425.543 433.875 426.372V435.409C433.875 436.238 434.553 436.916 435.381 436.916H445.925L448.938 439.928L448.93 426.372ZM445.925 433.903H436.888V432.397H445.925V433.903ZM445.925 431.644H436.888V430.137H445.925V431.644ZM445.925 429.384H436.888V427.878H445.925V429.384Z" fill="#F6F8F8"/>
</g>
<path fill-rule="evenodd" clip-rule="evenodd" d="M460.29 425.969C459.187 427.071 459.188 428.847 459.188 432.397C459.188 435.947 459.187 437.722 460.29 438.825C461.393 439.928 463.168 439.928 466.719 439.928C470.269 439.928 472.044 439.928 473.147 438.825C474.25 437.722 474.25 435.947 474.25 432.397C474.25 428.847 474.25 427.071 473.147 425.969C472.044 424.866 470.269 424.866 466.719 424.866C463.168 424.866 461.393 424.866 460.29 425.969ZM465.176 428.066C464.853 428.066 464.55 428.066 464.303 428.103C464.023 428.145 463.736 428.244 463.507 428.498C463.285 428.745 463.207 429.038 463.173 429.319C463.141 429.581 463.141 429.906 463.141 430.273V430.702C463.141 431.014 463.394 431.267 463.706 431.267C464.018 431.267 464.271 431.014 464.271 430.702V430.305C464.271 429.896 464.272 429.641 464.295 429.455C464.305 429.367 464.318 429.317 464.329 429.288C464.338 429.264 464.344 429.257 464.347 429.254L464.347 429.254C464.348 429.252 464.349 429.251 464.356 429.248C464.368 429.243 464.4 429.231 464.47 429.221C464.623 429.198 464.84 429.196 465.213 429.196H466.154V435.598H464.836C464.524 435.598 464.271 435.851 464.271 436.163C464.271 436.474 464.524 436.727 464.836 436.727H468.978C469.29 436.727 469.543 436.474 469.543 436.163C469.543 435.851 469.29 435.598 468.978 435.598H467.284V429.196H468.225C468.598 429.196 468.814 429.198 468.968 429.221C469.037 429.231 469.069 429.243 469.082 429.248C469.089 429.251 469.089 429.252 469.09 429.254C469.093 429.256 469.099 429.264 469.109 429.288C469.119 429.317 469.132 429.367 469.143 429.455C469.165 429.641 469.166 429.896 469.166 430.305V430.702C469.166 431.014 469.419 431.267 469.731 431.267C470.043 431.267 470.296 431.014 470.296 430.702V430.273C470.296 429.906 470.296 429.581 470.265 429.319C470.231 429.038 470.152 428.745 469.931 428.498C469.701 428.244 469.414 428.145 469.135 428.103C468.888 428.066 468.585 428.066 468.261 428.066H465.176Z" fill="#F6F8F8"/>
<path d="M494.802 425.554V428.898C494.802 429.468 494.575 430.016 494.172 430.419C493.768 430.823 493.221 431.049 492.65 431.049H485.18V437.702C485.181 438.11 485.344 438.501 485.632 438.789C485.921 439.078 486.312 439.241 486.72 439.242H497.328C497.531 439.246 497.733 439.208 497.921 439.132C498.11 439.056 498.281 438.942 498.424 438.799C498.568 438.655 498.682 438.484 498.758 438.295C498.834 438.107 498.872 437.905 498.868 437.702V427.094C498.868 426.893 498.828 426.694 498.75 426.509C498.673 426.323 498.559 426.155 498.415 426.014C498.272 425.873 498.102 425.762 497.915 425.687C497.728 425.612 497.529 425.576 497.328 425.579" fill="#F6F8F8"/>
<path d="M486.244 429.439H492.174C492.426 429.409 492.656 429.282 492.815 429.085C492.974 428.887 493.048 428.635 493.023 428.383V426.974C493.047 426.722 492.972 426.47 492.813 426.273C492.655 426.076 492.425 425.949 492.174 425.918H486.244C485.993 425.949 485.764 426.076 485.605 426.273C485.446 426.47 485.371 426.722 485.396 426.974V428.383C485.37 428.635 485.445 428.887 485.603 429.085C485.762 429.282 485.992 429.409 486.244 429.439Z" stroke="#F6F8F8" stroke-width="0.482002" stroke-miterlimit="10"/>
<path d="M515.828 438.799C515.336 439.266 514.681 439.523 514.003 439.514C513.325 439.504 512.677 439.23 512.199 438.749C511.72 438.268 511.449 437.62 511.443 436.941C511.437 436.263 511.696 435.609 512.166 435.12C513.766 433.578 515.534 433.887 517.777 431.645C520.195 429.227 519.517 428.018 521.241 426.202C521.477 425.955 521.759 425.758 522.073 425.622C522.386 425.486 522.723 425.414 523.064 425.41C523.406 425.406 523.744 425.47 524.061 425.599C524.377 425.728 524.664 425.919 524.905 426.16C525.147 426.402 525.338 426.689 525.466 427.005C525.595 427.321 525.66 427.66 525.656 428.001C525.652 428.343 525.58 428.68 525.444 428.993C525.308 429.306 525.11 429.589 524.863 429.825C522.876 431.561 521.741 430.748 519.314 433.175C516.887 435.602 517.316 437.504 515.828 438.799Z" fill="#F6F8F8" fill-opacity="0.5" stroke="#F6F8F8" stroke-width="0.451877" stroke-miterlimit="10"/>
<path d="M521.771 429.31C522.432 429.972 523.505 429.972 524.167 429.31C524.829 428.648 524.829 427.575 524.167 426.914C523.505 426.252 522.432 426.252 521.771 426.914C521.109 427.575 521.109 428.648 521.771 429.31Z" fill="#F6F8F8"/>
<path d="M512.763 438.222C513.424 438.884 514.497 438.884 515.159 438.222C515.821 437.561 515.821 436.488 515.159 435.826C514.497 435.164 513.424 435.164 512.763 435.826C512.101 436.488 512.101 437.561 512.763 438.222Z" fill="#F6F8F8"/>
<path d="M520.099 436.459C520.76 437.121 521.833 437.121 522.495 436.459C523.157 435.797 523.157 434.724 522.495 434.063C521.833 433.401 520.76 433.401 520.099 434.063C519.437 434.724 519.437 435.797 520.099 436.459Z" fill="#F6F8F8"/>
<path d="M514.349 430.707C515.01 431.369 516.083 431.369 516.745 430.707C517.407 430.046 517.407 428.973 516.745 428.311C516.083 427.649 515.01 427.649 514.349 428.311C513.687 428.973 513.687 430.046 514.349 430.707Z" fill="#F6F8F8"/>
</g>
<path d="M458.268 238.405H406.747C405.217 238.405 403.977 240.097 403.977 242.185V257.304C403.977 259.392 405.217 261.084 406.747 261.084H458.268C459.797 261.084 461.038 259.392 461.038 257.304V242.185C461.038 240.097 459.797 238.405 458.268 238.405Z" fill="#EBC017"/>
<path d="M396.475 219.67C396.208 219.67 395.952 219.772 395.763 219.955C395.575 220.138 395.469 220.385 395.469 220.644V237.206C395.469 237.465 395.575 237.713 395.763 237.895C395.952 238.078 396.208 238.181 396.475 238.181C396.63 238.18 396.784 238.145 396.923 238.078C397.062 238.011 397.183 237.913 397.277 237.792L400.419 234.4L400.751 233.906C402 233.496 400.751 233.918 401.632 233.633C402.358 233.314 401.349 233.72 402.512 233.337L402.954 233.348L408.552 233.31C408.816 233.31 409.074 233.207 409.262 233.024C409.45 232.841 409.555 232.593 409.555 232.335C409.555 232.19 409.52 232.046 409.456 231.915C409.391 231.784 409.297 231.669 409.18 231.578L397.263 220.039C397.169 219.924 397.049 219.831 396.913 219.767C396.776 219.703 396.627 219.67 396.475 219.67Z" fill="#EBC017"/>
<path d="M426.227 248.665C427.252 249.138 427.922 250.189 427.922 251.424C427.922 253.078 426.687 254.418 425.019 254.418H420.869H420.619C420.435 254.418 420.343 254.313 420.343 254.129V245.5C420.343 245.316 420.435 245.224 420.619 245.224H421.552H424.06C425.544 245.224 426.543 246.249 426.543 247.549C426.543 247.943 426.424 248.337 426.227 248.665ZM424.06 246.354H421.552V248.403H425.019C425.216 248.18 425.334 247.891 425.334 247.575C425.334 246.892 424.861 246.354 424.06 246.354ZM424.848 253.262C426.004 253.262 426.7 252.422 426.7 251.384C426.7 250.347 426.017 249.506 424.861 249.506H421.552V253.262H424.848ZM432.85 254.576C430.919 254.576 429.383 253.078 429.383 251.121C429.383 249.178 430.919 247.68 432.85 247.68C434.767 247.68 436.304 249.178 436.304 251.121C436.304 253.078 434.767 254.576 432.85 254.576ZM432.85 253.459C434.15 253.459 435.161 252.448 435.161 251.121C435.161 249.795 434.15 248.784 432.85 248.784C431.536 248.784 430.525 249.795 430.525 251.121C430.525 252.448 431.536 253.459 432.85 253.459ZM441.836 247.68C443.649 247.68 445.159 249.178 445.159 251.121C445.159 253.078 443.649 254.576 441.836 254.576C440.72 254.576 439.879 254.09 439.354 253.302V254.129C439.354 254.313 439.249 254.405 439.078 254.405H438.487C438.303 254.405 438.211 254.313 438.211 254.129V245.5C438.211 245.316 438.303 245.211 438.487 245.211H439.078C439.249 245.211 439.354 245.316 439.354 245.5V248.954C439.879 248.166 440.72 247.68 441.836 247.68ZM441.679 253.472C443.005 253.472 444.016 252.461 444.016 251.121C444.016 249.782 443.005 248.771 441.679 248.771C440.365 248.771 439.354 249.782 439.354 251.121C439.354 252.461 440.365 253.472 441.679 253.472Z" fill="black"/>
</g>
<rect x="0.171248" y="0.171248" width="876.5" height="475.658" rx="6.67867" stroke="url(#paint0_linear_23007_2794)" stroke-width="0.342496"/>
<defs>
<filter id="filter0_b_23007_2794" x="-27.3997" y="-27.3997" width="931.588" height="91.1038" filterUnits="userSpaceOnUse" color-interpolation-filters="sRGB">
<feFlood flood-opacity="0" result="BackgroundImageFix"/>
<feGaussianBlur in="BackgroundImageFix" stdDeviation="13.6998"/>
<feComposite in2="SourceAlpha" operator="in" result="effect1_backgroundBlur_23007_2794"/>
<feBlend mode="normal" in="SourceGraphic" in2="effect1_backgroundBlur_23007_2794" result="shape"/>
</filter>
<filter id="filter1_i_23007_2794" x="14.3828" y="13.7002" width="8.21875" height="8.21997" filterUnits="userSpaceOnUse" color-interpolation-filters="sRGB">
<feFlood flood-opacity="0" result="BackgroundImageFix"/>
<feBlend mode="normal" in="SourceGraphic" in2="BackgroundImageFix" result="shape"/>
<feColorMatrix in="SourceAlpha" type="matrix" values="0 0 0 0 0 0 0 0 0 0 0 0 0 0 0 0 0 0 127 0" result="hardAlpha"/>
<feOffset/>
<feGaussianBlur stdDeviation="2.05497"/>
<feComposite in2="hardAlpha" operator="arithmetic" k2="-1" k3="1"/>
<feColorMatrix type="matrix" values="0 0 0 0 0.92549 0 0 0 0 0.427451 0 0 0 0 0.384314 0 0 0 1 0"/>
<feBlend mode="normal" in2="shape" result="effect1_innerShadow_23007_2794"/>
</filter>
<filter id="filter2_i_23007_2794" x="28.0859" y="13.7002" width="8.21875" height="8.21997" filterUnits="userSpaceOnUse" color-interpolation-filters="sRGB">
<feFlood flood-opacity="0" result="BackgroundImageFix"/>
<feBlend mode="normal" in="SourceGraphic" in2="BackgroundImageFix" result="shape"/>
<feColorMatrix in="SourceAlpha" type="matrix" values="0 0 0 0 0 0 0 0 0 0 0 0 0 0 0 0 0 0 127 0" result="hardAlpha"/>
<feOffset/>
<feGaussianBlur stdDeviation="2.05497"/>
<feComposite in2="hardAlpha" operator="arithmetic" k2="-1" k3="1"/>
<feColorMatrix type="matrix" values="0 0 0 0 0.960784 0 0 0 0 0.768627 0 0 0 0 0.317647 0 0 0 1 0"/>
<feBlend mode="normal" in2="shape" result="effect1_innerShadow_23007_2794"/>
</filter>
<filter id="filter3_i_23007_2794" x="41.7812" y="13.7002" width="8.21875" height="8.21997" filterUnits="userSpaceOnUse" color-interpolation-filters="sRGB">
<feFlood flood-opacity="0" result="BackgroundImageFix"/>
<feBlend mode="normal" in="SourceGraphic" in2="BackgroundImageFix" result="shape"/>
<feColorMatrix in="SourceAlpha" type="matrix" values="0 0 0 0 0 0 0 0 0 0 0 0 0 0 0 0 0 0 127 0" result="hardAlpha"/>
<feOffset/>
<feGaussianBlur stdDeviation="2.05497"/>
<feComposite in2="hardAlpha" operator="arithmetic" k2="-1" k3="1"/>
<feColorMatrix type="matrix" values="0 0 0 0 0.407843 0 0 0 0 0.8 0 0 0 0 0.345098 0 0 0 1 0"/>
<feBlend mode="normal" in2="shape" result="effect1_innerShadow_23007_2794"/>
</filter>
<pattern id="pattern0" patternContentUnits="objectBoundingBox" width="1" height="1">
<use xlink:href="#image0_23007_2794" transform="matrix(0.00671715 0 0 0.00675676 -0.0239377 0)"/>
</pattern>
<filter id="filter4_d_23007_2794" x="288.235" y="192.488" width="273.998" height="32.9831" filterUnits="userSpaceOnUse" color-interpolation-filters="sRGB">
<feFlood flood-opacity="0" result="BackgroundImageFix"/>
<feColorMatrix in="SourceAlpha" type="matrix" values="0 0 0 0 0 0 0 0 0 0 0 0 0 0 0 0 0 0 127 0" result="hardAlpha"/>
<feOffset dy="-0.515361"/>
<feGaussianBlur stdDeviation="1.03072"/>
<feComposite in2="hardAlpha" operator="out"/>
<feColorMatrix type="matrix" values="0 0 0 0 0 0 0 0 0 0 0 0 0 0 0 0 0 0 0.25 0"/>
<feBlend mode="normal" in2="BackgroundImageFix" result="effect1_dropShadow_23007_2794"/>
<feBlend mode="normal" in="SourceGraphic" in2="effect1_dropShadow_23007_2794" result="shape"/>
</filter>
<filter id="filter5_d_23007_2794" x="340.192" y="413.87" width="197.467" height="40.669" filterUnits="userSpaceOnUse" color-interpolation-filters="sRGB">
<feFlood flood-opacity="0" result="BackgroundImageFix"/>
<feColorMatrix in="SourceAlpha" type="matrix" values="0 0 0 0 0 0 0 0 0 0 0 0 0 0 0 0 0 0 127 0" result="hardAlpha"/>
<feOffset dy="1.80751"/>
<feGaussianBlur stdDeviation="0.903754"/>
<feComposite in2="hardAlpha" operator="out"/>
<feColorMatrix type="matrix" values="0 0 0 0 0 0 0 0 0 0 0 0 0 0 0 0 0 0 0.25 0"/>
<feBlend mode="normal" in2="BackgroundImageFix" result="effect1_dropShadow_23007_2794"/>
<feBlend mode="normal" in="SourceGraphic" in2="effect1_dropShadow_23007_2794" result="shape"/>
</filter>
<linearGradient id="paint0_linear_23007_2794" x1="-59.9404" y1="-64.9643" x2="866.323" y2="711.723" gradientUnits="userSpaceOnUse">
<stop stop-color="#434343"/>
<stop offset="0.619792" stop-color="#585858" stop-opacity="0"/>
<stop offset="1" stop-color="#484848"/>
</linearGradient>
<clipPath id="clip0_23007_2794">
<rect width="876.842" height="476" rx="6.84992" fill="white"/>
</clipPath>
<clipPath id="clip1_23007_2794">
<rect width="78.774" height="19.1798" fill="white" transform="translate(789.797 8.22021)"/>
</clipPath>
<clipPath id="clip2_23007_2794">
<rect width="45.2094" height="19.1798" fill="white" transform="translate(91.7969 8.22021)"/>
</clipPath>
<clipPath id="clip3_23007_2794">
<rect x="390.164" y="12.3098" width="96.4722" height="11" fill="white"/>
</clipPath>
<clipPath id="clip4_23007_2794">
<rect x="329.461" y="72.4092" width="124.202" height="124.502" rx="2.06144" fill="white"/>
</clipPath>
<clipPath id="clip5_23007_2794">
<rect width="12.3687" height="12.3687" fill="white" transform="translate(427.969 80.655)"/>
</clipPath>
<clipPath id="clip6_23007_2794">
<rect width="12.3687" height="12.3687" fill="white" transform="translate(342.797 135.068)"/>
</clipPath>
<clipPath id="clip7_23007_2794">
<rect x="290.297" y="195.065" width="269.877" height="28.8602" rx="2.06144" fill="white"/>
</clipPath>
<clipPath id="clip8_23007_2794">
<rect width="12.3687" height="12.3687" fill="white" transform="translate(297.516 203.311)"/>
</clipPath>
<clipPath id="clip9_23007_2794">
<rect width="12.3687" height="12.3687" fill="white" transform="translate(374.82 203.311)"/>
</clipPath>
<clipPath id="clip10_23007_2794">
<rect width="12.3687" height="12.3687" fill="white" transform="translate(477.031 203.311)"/>
</clipPath>
<clipPath id="clip11_23007_2794">
<rect width="12.3687" height="12.3687" fill="white" transform="translate(507.82 203.311)"/>
</clipPath>
<clipPath id="clip12_23007_2794">
<rect width="16.3055" height="16.3055" fill="white" transform="translate(827.477 422.702)"/>
</clipPath>
<clipPath id="clip13_23007_2794">
<rect width="18.0751" height="18.0751" fill="white" transform="translate(349.227 423.359)"/>
</clipPath>
<clipPath id="clip14_23007_2794">
<rect width="18.0751" height="18.0751" fill="white" transform="translate(407.07 423.359)"/>
</clipPath>
<clipPath id="clip15_23007_2794">
<rect width="18.0751" height="18.0751" fill="white" transform="translate(432.375 423.359)"/>
</clipPath>
</defs>
</svg>
