<svg width="400" height="401" viewBox="0 0 400 401" fill="none" xmlns="http://www.w3.org/2000/svg">
<g clip-path="url(#clip0_13769_17802)">
<path d="M271.136 66.1668C279.899 77.102 286.313 89.3614 291.22 102.384C297.556 119.177 300.447 136.645 296.828 154.359C291.974 178.132 278.076 194.873 254.837 202.923C245.812 206.045 236.436 207.308 227.112 203.397C225.826 202.944 224.622 202.287 223.546 201.45C223.418 206.995 221.328 212.315 217.648 216.463C218.869 215.916 220.161 215.547 221.486 215.367C222.766 215.13 224.115 214.946 225.368 214.832C237.803 213.806 249.773 211.175 261.138 205.738C278.663 197.328 293.349 185.35 305.828 170.538C312.961 162.221 318.933 152.972 323.581 143.047C330.152 128.408 334.375 112.824 336.094 96.8679C337.697 83.109 337.268 69.6131 335.892 55.9857C335.559 52.6973 334.14 51.338 331.187 50.8119C323.598 49.4614 316.001 47.9443 308.535 46.1291C289.012 41.3849 269.331 37.3599 249.773 32.8349C242.815 31.2126 235.831 29.7482 228.856 28.2048C233.973 33.0892 239.468 37.1055 244.787 41.3586C254.224 48.8826 263.53 56.6259 271.136 66.1668Z" fill="#00B39F"/>
<path d="M56.2306 235.492C62.2155 210.307 72.1174 187.2 92.5695 170.17C111.19 154.657 132.273 149.825 155.512 157.893C167.237 161.953 177.287 168.521 182.633 180.456C183.164 181.511 183.545 182.636 183.763 183.797C187.405 180.314 192.073 178.1 197.074 177.484C196.767 177.282 196.451 177.054 196.101 176.773C188.968 171.029 182.186 164.777 173.896 160.55C144.436 145.528 113.486 143.59 82.0368 151.606C48.6859 160.085 22.906 180.334 1.75286 206.974C-0.621835 209.965 -0.429056 211.894 1.52503 214.919C17.9288 240.455 34.1749 266.097 50.4735 291.703C52.6291 295.097 54.8549 298.429 57.8167 302.901C58.1321 295.351 56.5373 289.318 55.6873 283.241C53.4528 267.281 52.4539 251.373 56.2306 235.492Z" fill="#00D3A9"/>
<path d="M106.449 58.2569C117.779 56.3555 129.205 55.0907 140.676 54.4686C151.086 53.8986 161.251 55.9506 171.346 58.5814C195.163 64.8163 216.517 75.2429 232.185 94.9825C247.134 113.801 250.727 134.918 242.7 157.56C238.599 169.135 231.668 178.746 219.83 183.955C219.01 184.366 218.116 184.608 217.201 184.665C220.749 188.447 222.945 193.297 223.449 198.459C223.982 197.601 224.586 196.789 225.254 196.03C233.929 185.709 241.78 174.879 246.284 161.953C252.192 144.997 254.656 127.031 253.531 109.11C252.672 91.5868 248.25 74.4235 240.536 58.6691C229.478 36.3338 213.547 17.9535 194.094 2.49335C191.193 0.18704 189.09 0.458886 186.067 2.40566C161.023 18.5147 135.822 34.3958 110.778 50.4348C106.887 52.9252 102.707 55.0912 98.9482 58.6252C101.454 58.7844 103.971 58.6609 106.449 58.2569Z" fill="#00D3A9"/>
<path d="M36.0498 162.041C45.9078 149.571 55.3277 136.671 68.577 127.446C93.1125 110.416 119.611 99.3846 150.07 103.629C174.606 107.066 192.341 120.457 201.201 144.117C205.004 154.28 206.195 164.786 201.744 175.282C201.465 175.992 201.103 176.666 200.666 177.291C205.704 177.419 210.566 179.172 214.529 182.289C214.428 181.943 214.346 181.592 214.283 181.237C214.055 179.948 214.047 178.606 213.941 177.326C213.162 166.969 211.47 156.832 207.755 147.037C199.869 126.271 186.383 109.794 169.742 95.456C145.207 74.3134 116.29 65.246 84.5426 64.0359C75.5345 63.6939 66.4914 63.5974 57.4658 64.7812C51.2356 65.5968 50.7624 65.6582 49.4217 71.7966C43.6325 98.2739 37.8169 124.748 31.9751 151.22C30.4592 158.121 28.9783 165.022 27.2783 172.897C31.2829 169.275 33.3859 165.417 36.0498 162.041Z" fill="#00B39F"/>
<path d="M398.528 187.051C382.054 161.392 365.764 135.61 349.316 109.934C347.135 106.532 345.399 102.726 341.737 98.955C342.788 107.908 343.551 115.704 344.655 123.456C346.951 139.627 346.933 155.648 342.657 171.555C335.953 196.548 324.781 218.752 303.768 234.887C292.262 243.761 278.952 247.778 264.634 247.962C254.6 248.093 245.058 245.191 236.181 240.429C228.435 236.272 221.845 230.871 217.946 222.75C216.719 220.181 216.193 218.629 216.588 217.585C212.81 221.349 207.866 223.715 202.567 224.294C203.952 225.178 205.27 226.162 206.511 227.24C213.871 233.221 221.223 239.21 229.872 243.332C253.987 254.793 279.46 257.231 305.389 253.144C344.497 247.006 374.132 225.004 398.44 194.803C400.648 192.023 400.377 189.927 398.528 187.051Z" fill="#00D3A9"/>
<path d="M346.688 261.01C322.468 285.389 293.393 299.008 258.439 299.104C234.043 299.174 208.211 283.144 199.545 259.642C195.961 249.909 193.577 240.034 197.266 229.774C198.248 227.056 198.914 225.328 199.658 224.46C194.358 224.402 189.233 222.547 185.121 219.199C185.564 220.511 185.833 221.876 185.919 223.259C186.69 230.783 187.084 238.412 189.336 245.682C201.341 284.433 227.156 310.942 263.635 327.008C286.944 337.268 311.751 340.398 337.242 337.75C348.633 336.557 348.695 336.768 350.964 326.78C357.221 299.209 363.512 271.639 369.576 244.024C370.593 239.377 372.441 234.782 372.354 228.784C370.926 230.722 370.154 231.739 369.41 232.782C362.338 242.569 355.205 252.452 346.688 261.01Z" fill="#00B39F"/>
<path d="M132.991 340.618C121.871 328.13 113.915 313.705 108.386 298.043C103.128 283.074 100.035 267.684 102.55 251.654C106.195 228.363 118.007 210.956 139.756 201.231C150.271 196.504 161.409 194.268 172.879 198.67C174.134 199.086 175.334 199.651 176.454 200.354C176.552 195.295 178.283 190.404 181.388 186.411C180.46 186.598 179.52 186.721 178.575 186.779C172.332 187.164 166.121 187.955 159.98 189.147C138.748 193.654 121.135 204.773 105.652 219.427C84.998 238.921 71.6874 262.606 66.1144 290.589C62.7232 307.584 62.25 324.631 63.5381 341.854C64.0288 348.501 66.7803 350.878 73.44 352.228C101.262 357.884 128.899 364.505 156.642 370.538C161.365 371.573 166.009 373.327 172.257 373.52C167.709 370.012 164.178 367.329 160.638 364.637C150.911 357.218 141.167 349.799 132.991 340.618Z" fill="#00B39F"/>
<path d="M298.887 342.915C288.994 344.669 279.04 345.879 269.094 346.844C260.936 347.633 252.655 348.036 244.646 346.844C233.084 345.208 221.777 342.108 210.997 337.619C194.225 330.603 179.022 321.317 167.736 306.663C154.118 288.976 149.527 269.271 156.23 247.76C160.033 235.588 166.281 224.723 178.602 218.822C180.792 217.778 182.299 217.287 183.368 217.436C179.671 213.736 177.315 208.906 176.674 203.712C176.129 204.499 175.544 205.257 174.921 205.984C169.26 212.832 163.46 219.593 159.35 227.582C149.439 246.874 145.82 267.386 146.355 288.967C146.645 304.892 149.93 320.621 156.038 335.33C166.693 360.761 183.649 381.465 205.161 398.6C208.517 401.283 210.936 401.564 214.695 399.117C236.356 385.086 258.219 371.301 280.004 357.437C287.215 352.842 294.392 348.212 301.682 343.529C301.322 343.173 300.868 342.926 300.373 342.818C299.879 342.709 299.363 342.743 298.887 342.915Z" fill="#00D3A9"/>
</g>
<defs>
<clipPath id="clip0_13769_17802">
<rect width="400" height="400" fill="white" transform="translate(0 0.853516)"/>
</clipPath>
</defs>
</svg>
