<svg width="40" height="40" viewBox="0 0 40 40" fill="none" xmlns="http://www.w3.org/2000/svg">
<g clip-path="url(#clip0_17471_2943)">
<path d="M27.1144 6.53058C27.9907 7.6241 28.6321 8.85004 29.1228 10.1523C29.7563 11.8316 30.0455 13.5784 29.6836 15.3498C29.1982 17.7271 27.8084 19.4012 25.4845 20.2062C24.582 20.5184 23.6443 20.6447 22.712 20.2536C22.5834 20.2083 22.463 20.1426 22.3554 20.0589C22.3425 20.6134 22.1336 21.1454 21.7656 21.5602C21.8877 21.5055 22.0169 21.4686 22.1494 21.4506C22.2774 21.4269 22.4123 21.4085 22.5376 21.3971C23.781 21.2945 24.978 21.0314 26.1146 20.4877C27.8671 19.6467 29.3357 18.4488 30.5835 16.9677C31.2969 16.136 31.8941 15.2111 32.3589 14.2186C33.016 12.7547 33.4383 11.1963 33.6102 9.60069C33.7705 8.22479 33.7276 6.87521 33.59 5.51247C33.5567 5.18362 33.4148 5.0477 33.1195 4.99508C32.3606 4.86004 31.6009 4.70833 30.8543 4.52681C28.902 4.05239 26.9339 3.64988 24.978 3.19739C24.2823 3.03516 23.5839 2.88871 22.8864 2.73438C23.3981 3.22282 23.9475 3.62445 24.4794 4.04976C25.4232 4.80216 26.3538 5.57648 27.1144 6.53058Z" fill="#00B39F"/>
<path d="M5.62345 23.4634C6.22194 20.9449 7.21213 18.6342 9.25734 16.9312C11.1194 15.3799 13.2277 14.8967 15.5516 15.7035C16.724 16.1095 17.7291 16.7663 18.2637 17.9598C18.3168 18.0653 18.3549 18.1778 18.3767 18.2939C18.7409 17.9456 19.2077 17.7242 19.7077 17.6626C19.6771 17.6424 19.6455 17.6196 19.6105 17.5915C18.8972 17.0171 18.219 16.3919 17.39 15.9692C14.444 14.467 11.349 14.2732 8.20407 15.0747C4.86898 15.9227 2.29099 17.9476 0.175676 20.6116C-0.0617929 20.9107 -0.0425149 21.1036 0.152893 21.4061C1.79327 23.9597 3.41788 26.5239 5.04774 29.0845C5.2633 29.4239 5.48588 29.7571 5.78206 30.2043C5.8136 29.4493 5.65412 28.846 5.56912 28.2382C5.34567 26.6422 5.24578 25.0515 5.62345 23.4634Z" fill="#00D3A9"/>
<path d="M10.6446 5.74031C11.7776 5.55016 12.9203 5.42369 14.0673 5.36148C15.1083 5.30448 16.1248 5.50968 17.1343 5.77275C19.516 6.39625 21.6515 7.43891 23.2182 9.41286C24.7131 11.2947 25.0724 13.4064 24.2698 15.6706C23.8597 16.8281 23.1665 17.7892 21.9827 18.3101C21.9007 18.3512 21.8113 18.3754 21.7198 18.3812C22.0746 18.7593 22.2943 19.2443 22.3446 19.7606C22.3979 19.6747 22.4583 19.5935 22.5251 19.5177C23.3926 18.4855 24.1777 17.4025 24.6281 16.1099C25.2189 14.4143 25.4653 12.6178 25.3528 10.8256C25.2669 9.0733 24.8247 7.35697 24.0533 5.78152C22.9475 3.548 21.3544 1.70997 19.4091 0.16395C19.119 -0.0666812 18.9087 -0.0394965 18.6064 0.155181C16.102 1.76609 13.5819 3.3542 11.0775 4.95809C10.6884 5.20714 10.2705 5.42374 9.89453 5.77714C10.1451 5.79306 10.3968 5.7807 10.6446 5.74031Z" fill="#00D3A9"/>
<path d="M3.60566 16.1181C4.59147 14.8711 5.53346 13.5812 6.85838 12.6586C9.31194 10.9556 11.9618 9.85248 15.0077 10.2769C17.4613 10.6207 19.2348 11.9597 20.1207 14.3257C20.501 15.342 20.6202 16.3926 20.1751 17.4423C20.1472 17.5132 20.111 17.5806 20.0673 17.6431C20.5711 17.6559 21.0573 17.8312 21.4535 18.1429C21.4434 18.1083 21.4352 18.0732 21.429 18.0377C21.4062 17.9088 21.4053 17.7746 21.3948 17.6466C21.3168 16.6109 21.1477 15.5972 20.7762 14.6177C19.9875 12.5411 18.639 10.8934 16.9749 9.45962C14.5214 7.34535 11.6297 6.43861 8.45494 6.3176C7.55414 6.2834 6.64983 6.27375 5.74727 6.39214C5.12424 6.47369 5.07692 6.47983 4.94285 7.09368C4.36393 9.7414 3.78238 12.3888 3.1982 15.036C3.0466 15.7261 2.89851 16.4163 2.72852 17.2037C3.12897 16.8416 3.33928 16.4557 3.60566 16.1181Z" fill="#00B39F"/>
<path d="M39.8519 18.6201C38.2045 16.0542 36.5755 13.4761 34.9308 10.9085C34.7126 10.5682 34.5391 10.1876 34.1728 9.81055C34.2779 10.7059 34.3542 11.4855 34.4646 12.2607C34.6942 13.8777 34.6924 15.4799 34.2648 17.0706C33.5945 19.5698 32.4772 21.7902 30.3759 23.4037C29.2254 24.2912 27.8943 24.6928 26.4625 24.7112C25.4592 24.7244 24.5049 24.4341 23.6172 23.958C22.8426 23.5423 22.1837 23.0021 21.7937 22.1901C21.671 21.9331 21.6185 21.7779 21.6579 21.6736C21.2802 22.0499 20.7857 22.2865 20.2559 22.3444C20.3944 22.4328 20.5261 22.5313 20.6502 22.6391C21.3862 23.2371 22.1214 23.8361 22.9863 24.2482C25.3978 25.3944 27.9451 25.6381 30.538 25.2295C34.4488 24.6157 37.4124 22.4154 39.8431 19.3953C40.064 19.1173 40.0368 18.9078 39.8519 18.6201Z" fill="#00D3A9"/>
<path d="M34.6684 26.0152C32.2464 28.453 29.3389 29.8149 25.8435 29.8245C23.4039 29.8315 20.8207 28.2285 19.9541 25.8784C19.5957 24.905 19.3573 23.9176 19.7262 22.8916C19.8244 22.6197 19.891 22.447 19.9655 22.3601C19.4354 22.3543 18.9229 22.1688 18.5117 21.834C18.5561 21.9652 18.5829 22.1017 18.5915 22.24C18.6686 22.9924 18.708 23.7553 18.9332 24.4823C20.1337 28.3574 22.7152 31.0084 26.3631 32.6149C28.694 33.6409 31.1747 33.9539 33.7238 33.6891C34.8629 33.5699 34.8691 33.5909 35.096 32.5921C35.7217 29.835 36.3508 27.078 36.9572 24.3166C37.0589 23.8518 37.2438 23.3923 37.235 22.7925C37.0922 22.9863 37.015 23.088 36.9406 23.1923C36.2334 24.171 35.5201 25.1593 34.6684 26.0152Z" fill="#00B39F"/>
<path d="M13.2983 33.9773C12.1863 32.7286 11.3906 31.2861 10.8377 29.7199C10.3119 28.223 10.0026 26.684 10.2541 25.081C10.6186 22.7518 11.7998 21.0111 13.9747 20.0386C15.0263 19.566 16.14 19.3424 17.287 19.7826C17.4125 19.8241 17.5326 19.8807 17.6446 19.9509C17.6543 19.4451 17.8274 18.9559 18.1379 18.5566C18.0451 18.5754 17.9511 18.5877 17.8566 18.5935C17.2323 18.632 16.6112 18.7111 15.9972 18.8302C13.874 19.281 12.1127 20.3929 10.5643 21.8583C8.49892 23.8077 7.16787 26.1762 6.61056 28.9745C6.27144 30.674 6.22412 32.3787 6.35293 34.101C6.40201 34.7657 6.67715 35.0033 7.34312 35.1384C10.1253 35.704 12.889 36.3661 15.6633 36.9694C16.1356 37.0729 16.6 37.2483 17.2248 37.2676C16.77 36.9168 16.4169 36.6485 16.0629 36.3792C15.0902 35.6374 14.1158 34.8955 13.2983 33.9773Z" fill="#00B39F"/>
<path d="M29.8892 34.2054C28.8999 34.3808 27.9045 34.5018 26.9099 34.5983C26.0941 34.6772 25.266 34.7176 24.4651 34.5983C23.3089 34.4347 22.1782 34.1248 21.1002 33.6758C19.423 32.9742 17.9027 32.0456 16.7741 30.5802C15.4123 28.8115 14.9532 26.841 15.6235 24.6899C16.0038 23.4728 16.6286 22.3863 17.8606 21.7961C18.0797 21.6917 18.2304 21.6426 18.3373 21.6575C17.9676 21.2875 17.732 20.8045 17.6679 20.2852C17.6134 20.3639 17.5549 20.4397 17.4926 20.5123C16.9265 21.1972 16.3464 21.8733 15.9355 22.6721C14.9444 24.6014 14.5825 26.6525 14.636 28.8106C14.665 30.4032 14.9935 31.976 15.6042 33.4469C16.6698 35.99 18.3654 38.0604 20.5166 39.7739C20.8522 40.0422 21.0941 40.0703 21.47 39.8256C23.6361 38.4226 25.8224 37.044 28.0008 35.6576C28.722 35.1981 29.4397 34.7351 30.1687 34.2668C30.1327 34.2312 30.0873 34.2066 30.0378 34.1957C29.9884 34.1848 29.9368 34.1882 29.8892 34.2054Z" fill="#00D3A9"/>
</g>
<defs>
<clipPath id="clip0_17471_2943">
<rect width="40" height="40" fill="white"/>
</clipPath>
</defs>
</svg>
