<svg id="Layer_1" data-name="Layer 1" xmlns="http://www.w3.org/2000/svg" viewBox="0 0 3204.0796 673.42381"><defs><style>.cls-1{fill:#bcedc4;}.cls-2{fill:#42a7b6;}.cls-3,.cls-6{fill:#2a2dde;}.cls-4{fill:#fff;}.cls-5{fill:#fb8143;}.cls-6{fill-rule:evenodd;}</style></defs><title>servicemeshinterface-horizontal-color</title><g id="logo-full"><g id="_3-x-3-diags" data-name="3-x-3-diags"><g id="Path-4"><path class="cls-1" d="M281.29531,557.1469a19.93636,19.93636,0,0,1-14.14209-5.85742L66.42275,350.55853a19.99994,19.99994,0,0,1,28.28418-28.28418l200.73047,200.73a20,20,0,0,1-14.14209,34.14257Z"/></g><g id="Path-4-2" data-name="Path-4"><path class="cls-1" d="M80.56484,356.1469a20,20,0,0,1-14.14209-34.14209L267.15322,121.27435a19.99994,19.99994,0,0,1,28.28418,28.28418L94.70693,350.289A19.93691,19.93691,0,0,1,80.56484,356.1469Z"/></g><g id="Path-4-3" data-name="Path-4"><path class="cls-1" d="M280.56484,357.1469a20,20,0,0,1-14.14209-34.14209L467.15322,122.27435a19.99994,19.99994,0,0,1,28.28418,28.28418L294.70693,351.289A19.93691,19.93691,0,0,1,280.56484,357.1469Z"/></g><g id="Path-4-4" data-name="Path-4"><path class="cls-1" d="M280.56484,555.1469a20,20,0,0,1-14.14209-34.14257l200.73047-200.73a19.99994,19.99994,0,0,1,28.28418,28.28418l-200.73047,200.731A19.9364,19.9364,0,0,1,280.56484,555.1469Z"/></g><g id="Oval"><circle class="cls-2" cx="80.61171" cy="135.65081" r="25"/></g><g id="Oval-2" data-name="Oval"><circle class="cls-2" cx="280.61171" cy="135.65081" r="25"/></g><g id="Oval-3" data-name="Oval"><circle class="cls-2" cx="480.61171" cy="135.65081" r="25"/></g><g id="Oval-4" data-name="Oval"><circle class="cls-2" cx="80.61171" cy="335.65081" r="25"/></g><g id="Oval-5" data-name="Oval"><circle class="cls-2" cx="280.61171" cy="335.65081" r="25"/></g><g id="Oval-6" data-name="Oval"><circle class="cls-2" cx="480.61171" cy="335.65081" r="25"/></g><g id="Oval-7" data-name="Oval"><circle class="cls-2" cx="480.61171" cy="535.65081" r="25"/></g><g id="Oval-8" data-name="Oval"><circle class="cls-2" cx="80.61171" cy="535.65081" r="25"/></g><g id="Rectangle"><rect class="cls-3" x="225.61171" y="480.65081" width="110" height="110"/><path class="cls-3" d="M370.61171,625.65081h-180v-180h180Zm-110-70h40v-40h-40Z"/></g><g id="Oval-9" data-name="Oval"><circle class="cls-4" cx="280.61171" cy="535.65081" r="25"/></g><g id="Oval-3-Copy"><circle class="cls-4" cx="480.61171" cy="136.65081" r="57.5"/><path class="cls-5" d="M480.61171,226.65081a90,90,0,1,1,90-90A90.10218,90.10218,0,0,1,480.61171,226.65081Zm0-115a25,25,0,1,0,25,25A25.02817,25.02817,0,0,0,480.61171,111.65081Z"/></g></g><g id="Service-Mesh-Interfa"><path class="cls-6" d="M803.61171,610.43884c-27.348,0-44.308-9.116-53-16.74805,1.06-11.024,6.784-20.352,14.628-25.228,8.904,7.208,23.108,12.932,39.008,12.932,15.264,0,21.20007-4.876,21.20007-12.296,0-6.996-3.39209-11.024-27.348-17.172-22.89606-5.512-43.036-14.416-43.248-41.764,0-26.076,20.776-42.824,52.152-42.824,23.532,0,39.22009,7.632,47.276,13.992-.636,9.752-5.93591,20.564-14.62793,25.652a60.42353,60.42353,0,0,0-34.76807-10.6c-12.50793,0-19.292,4.664-19.292,11.024,0,6.784,2.968,9.752,27.348,15.688,25.43995,6.36005,42.824,17.17206,43.24805,41.552C856.82375,594.1148,836.25966,610.43884,803.61171,610.43884Zm178.208-60.632a87.38492,87.38492,0,0,1-1.06006,14.84H913.76772c1.908,14.204,9.75195,20.564,24.80395,20.564,12.7201,0,21.83606-5.088,29.68006-10.176,6.572,5.088,10.6,13.56806,11.448,21.41205-8.904,6.784-22.684,14.204-44.52,14.204-31.16394,0-53.636-19.292-53.636-53,0-31.8,22.472-54.06,52.57605-54.06C962.52773,503.59081,981.81972,521.61083,981.81972,549.80682Zm-68.052-2.968h38.16c0-9.752-4.66406-18.656-17.59607-19.292C922.2477,527.54681,915.25173,535.3908,913.76772,546.8388Zm142.168-43.672c9.54,0,17.384,1.06,23.32006,2.968-.212,10.388-3.18,20.14-8.90405,27.348a43.90939,43.90939,0,0,0-12.084-1.484c-6.572,0-12.084,1.272-15.476,2.968v72.08a98.68388,98.68388,0,0,1-31.588,0v-88.404C1018.19972,512.28283,1033.88771,503.1668,1055.93569,503.1668Zm124.572,2.756a95.29356,95.29356,0,0,1,20.776,2.332c-9.116,39.008-19.71594,68.9-37.948,98.792a76.554,76.554,0,0,1-15.476,1.484,78.63118,78.63118,0,0,1-15.688-1.484c-20.14-31.164-29.89209-60.632-38.37207-98.792a112.789,112.789,0,0,1,22.684-2.332,101.821,101.821,0,0,1,11.66.63605c5.724,29.044,13.78,56.18,18.868,69.112.424,1.484.848,2.968,1.272,4.876.424-1.908.848-3.392,1.272-4.876,5.724-14.204,12.932-40.068,18.656-69.112A110.67505,110.67505,0,0,1,1180.50771,505.92278Zm61.81994-12.508a19.27482,19.27482,0,0,1-19.08-19.08,19.08121,19.08121,0,0,1,38.16,0A19.27485,19.27485,0,0,1,1242.32765,493.41479Zm-.21191,114.90405a99.854,99.854,0,0,1-15.688-1.272v-100.7a95.91842,95.91842,0,0,1,15.688-1.272,104.61367,104.61367,0,0,1,15.9,1.272v100.7A96.60816,96.60816,0,0,1,1242.11574,608.31884Zm100.616,2.332c-34.132,0-55.332-19.716-55.332-53.636,0-33.072,23.32006-54.06,54.484-54.06,15.47608,0,29.04407,5.936,34.98,11.236-1.908,8.48-8.48,17.384-16.324,22.26a26.24915,26.24915,0,0,0-17.808-6.996c-15.476,0-23.532,11.66-23.532,27.136,0,15.052,7.42,27.56,23.744,27.56,9.752,0,15.052-3.392,19.504-7.42,7.844,3.816,13.568,11.236,16.11194,20.776C1371.3517,604.07879,1359.05568,610.65081,1342.73171,610.65081Zm154.464-60.844a87.39709,87.39709,0,0,1-1.05994,14.84h-66.99207c1.908,14.204,9.75208,20.564,24.80408,20.564,12.72,0,21.83594-5.088,29.67993-10.176,6.572,5.088,10.6,13.56806,11.448,21.41205-8.90393,6.784-22.684,14.204-44.52,14.204-31.16394,0-53.636-19.292-53.636-53,0-31.8,22.472-54.06,52.57605-54.06C1477.9037,503.59081,1497.1957,521.61083,1497.1957,549.80682Zm-68.052-2.968h38.16c0-9.752-4.66406-18.656-17.59607-19.292C1437.62367,527.54681,1430.6277,535.3908,1429.14369,546.8388Zm281.368-76.956a85.97929,85.97929,0,0,1,16.11193,1.484v135.68a88.52924,88.52924,0,0,1-14.416,1.272,95.66649,95.66649,0,0,1-14.84-1.272v-65.72l1.06006-19.928-5.30005,15.476-23.31994,58.724a99.54791,99.54791,0,0,1-13.144.848,109.71641,109.71641,0,0,1-13.356-.848l-24.592-58.936-4.876-12.932.848,17.596v65.72a93.56451,93.56451,0,0,1-14.84009,1.272,88.53162,88.53162,0,0,1-14.416-1.272v-135.468a62.60371,62.60371,0,0,1,15.9-1.696,121.455,121.455,0,0,1,17.172,1.272l36.676,83.952,2.54407,6.784,2.12-6.784,33.91992-83.952A103.40694,103.40694,0,0,1,1710.51174,469.88281Zm147.68005,79.924a87.39724,87.39724,0,0,1-1.06006,14.84h-66.99206c1.90808,14.204,9.75207,20.564,24.80407,20.564,12.72,0,21.83594-5.088,29.67993-10.176,6.572,5.088,10.6001,13.56806,11.448,21.41205-8.90405,6.784-22.68408,14.204-44.52,14.204-31.16394,0-53.636-19.292-53.636-53,0-31.8,22.472-54.06,52.57592-54.06C1838.8998,503.59081,1858.19179,521.61083,1858.19179,549.80682Zm-68.05212-2.968h38.16c0-9.752-4.66406-18.656-17.596-19.292C1798.61977,527.54681,1791.62367,535.3908,1790.13967,546.8388Zm136.444,63.812c-22.68384,0-37.948-7.208-44.52-12.72,1.696-9.96405,6.3601-17.384,12.50805-21.2,7.41992,4.664,17.80811,10.176,33.072,10.176,9.752,0,13.144-3.604,13.144-8.056,0-5.3-5.30005-8.056-21.83594-11.024-16.53613-3.392-33.92017-9.328-33.92017-31.588,0-20.776,19.08008-32.648,44.30811-32.648,20.988,0,33.91992,4.876,40.916,9.328-1.272,10.176-5.3,17.596-11.02392,22.048a64.028,64.028,0,0,0-29.468-7.42c-9.96411,0-14.62817,2.12-14.62817,7.208s4.45215,6.996,20.352,9.964c19.928,3.392,36.676,9.964,36.676,31.8C1972.16371,597.50683,1956.05165,610.65081,1926.58364,610.65081Zm128.60009-107.696c30.104,0,45.792,17.596,45.792,40.068v64.024a100.48683,100.48683,0,0,1-15.89991,1.272,97.85626,97.85626,0,0,1-15.68823-1.272v-55.968c0-12.508-5.72388-19.504-18.65576-19.504a35.50574,35.50574,0,0,0-17.17212,4.664v70.808a95.91071,95.91071,0,0,1-15.688,1.272,109.51488,109.51488,0,0,1-16.11206-1.272v-138.86a95.913,95.913,0,0,1,15.688-1.272,109.50985,109.50985,0,0,1,16.11206,1.272v39.008A56.11288,56.11288,0,0,1,2055.18373,502.95483Zm153.7439,105.364a105.20681,105.20681,0,0,1-16.11182-1.272v-135.892a75.04254,75.04254,0,0,1,15.47583-1.272,85.2252,85.2252,0,0,1,16.11206,1.272v135.892A93.34112,93.34112,0,0,1,2208.92763,608.31884Zm103.16016-105.364c33.49585,0,48.54785,18.232,48.54785,43.036v61.056a100.00748,100.00748,0,0,1-31.79981,0v-55.968c0-14.416-7.84424-19.504-19.08008-19.504a34.10156,34.10156,0,0,0-16.96,4.24v71.232a100.48735,100.48735,0,0,1-15.90014,1.272,97.8533,97.8533,0,0,1-15.688-1.272v-87.344C2269.05165,512.70684,2287.07167,502.95483,2312.08779,502.95483Zm150.648,74.412c6.14794,3.604,12.084,13.144,13.144,21.624-7.208,5.724-17.384,11.236-32.648,11.236-23.10816,0-40.49219-9.752-40.49219-34.344v-41.976h-17.17187a84.645,84.645,0,0,1-1.06006-13.144,85.80393,85.80393,0,0,1,1.06006-12.72h17.17187v-26.5a105.20733,105.20733,0,0,1,16.11206-1.272,90.8063,90.8063,0,0,1,15.26392,1.272v26.5h35.19214a61.15758,61.15758,0,0,1,1.48388,12.508,69.65768,69.65768,0,0,1-1.48388,13.356h-35.19214v34.132c0,11.448,5.3,15.264,14.62817,15.264C2454.67983,583.30279,2459.34365,580.33483,2462.73574,577.36681Zm132.416-27.56a87.39724,87.39724,0,0,1-1.06006,14.84h-66.99194c1.908,14.204,9.752,20.564,24.80395,20.564,12.72,0,21.83594-5.088,29.67994-10.176,6.572,5.088,10.60009,13.56806,11.448,21.41205-8.9038,6.784-22.68383,14.204-44.52,14.204-31.16381,0-53.636-19.292-53.636-53,0-31.8,22.47217-54.06,52.57617-54.06C2575.85976,503.59081,2595.15175,521.61083,2595.15175,549.80682Zm-68.052-2.968h38.15991c0-9.752-4.66406-18.656-17.596-19.292C2535.57973,527.54681,2528.58364,535.3908,2527.09975,546.8388Zm142.168-43.672c9.54,0,17.384,1.06,23.32007,2.968-.21216,10.388-3.18018,20.14-8.90406,27.348a43.90934,43.90934,0,0,0-12.084-1.484c-6.572,0-12.084,1.272-15.47608,2.968v72.08a98.68308,98.68308,0,0,1-31.58789,0v-88.404C2631.53163,512.28283,2647.21962,503.1668,2669.26772,503.1668Zm98.28393-37.524c12.72,0,22.0481,3.816,27.34815,7.42-.636,8.48-6.36011,18.02-12.29614,22.048a23.34553,23.34553,0,0,0-12.93189-3.604c-8.26807,0-13.144,3.816-13.144,13.78v3.18h22.04809a63.55518,63.55518,0,0,1,1.48389,12.932,61.84792,61.84792,0,0,1-1.48389,12.932h-22.04809v72.716a75.05124,75.05124,0,0,1-15.47608,1.272,83.90231,83.90231,0,0,1-16.11206-1.272v-72.928h-13.1438a55.397,55.397,0,0,1-1.272-12.508,64.30461,64.30461,0,0,1,1.272-13.144h13.1438C2725.78774,479.84679,2743.38368,465.64282,2767.55165,465.64282Zm77.50806,37.948c29.2561,0,49.396,12.72,49.396,44.096v52.788a135.155,135.155,0,0,1-50.87989,9.96405c-28.832,0-45.58007-11.024-45.58007-33.072,0-21.2,18.23193-32.012,43.884-31.8,8.05591.212,15.052,1.06,21.19995,2.96795v-4.02795c0-8.692-5.936-14.84-20.77612-14.84-11.87183,0-22.04786,4.664-27.3479,8.692a27.63989,27.63989,0,0,1-13.56812-20.14C2807.11171,513.13079,2823.01161,503.59081,2845.05971,503.59081Zm-15.47607,72.504c0,7.42,6.14819,12.296,18.23217,12.296a54.44577,54.44577,0,0,0,15.26392-2.332v-18.444a61.60718,61.60718,0,0,0-17.384-2.332C2835.73183,565.28283,2829.58364,568.6748,2829.58364,576.09478Zm147.04419,34.556c-34.13208,0-55.332-19.716-55.332-53.636,0-33.072,23.31983-54.06,54.48389-54.06,15.47607,0,29.04395,5.936,34.98,11.236-1.908,8.48-8.48,17.384-16.324,22.26a26.24908,26.24908,0,0,0-17.80786-6.996c-15.47608,0-23.53223,11.66-23.53223,27.136,0,15.052,7.42016,27.56,23.74414,27.56,9.752,0,15.052-3.392,19.50391-7.42,7.844,3.816,13.56811,11.236,16.11206,20.776C3005.2477,604.07879,2992.9518,610.65081,2976.62783,610.65081Zm157.43188-60.844a87.37157,87.37157,0,0,1-1.06006,14.84h-66.99194c1.908,14.204,9.752,20.564,24.80395,20.564,12.72,0,21.83594-5.088,29.67993-10.176,6.572,5.088,10.6001,13.56806,11.448,21.41205-8.90381,6.784-22.68384,14.204-44.51977,14.204-31.16407,0-53.636-19.292-53.636-53,0-31.8,22.47192-54.06,52.57593-54.06C3114.76772,503.59081,3134.05971,521.61083,3134.05971,549.80682Zm-68.052-2.968h38.15991c0-9.752-4.66382-18.656-17.596-19.292C3074.48769,527.54681,3067.49159,535.3908,3066.00771,546.8388Z"/></g></g></svg>