<svg xmlns="http://www.w3.org/2000/svg" xmlns:xlink="http://www.w3.org/1999/xlink" id="Layer_1" x="0" y="0" enable-background="new 0 0 1280 720" version="1.1" viewBox="0 0 1280 720" xml:space="preserve"><style type="text/css">.st0{clip-path:url(#SVGID_2_)}.st1{fill:#fff}.st2{fill:#275187}.st3{fill:#f2f2f2}.st4{fill:#65b8cb}.st5{fill-opacity:0}.st6{font-family:&apos;Poppins-Regular&apos;}.st7{font-size:78.7209px}.st8{fill:#3c494f}.st9{fill:#00b39f}.st10{fill:#00d3a9}</style><g><defs><rect id="SVGID_1_" width="1280" height="720"/></defs><clipPath id="SVGID_2_"><use overflow="visible" xlink:href="#SVGID_1_"/></clipPath><g class="st0"><path d="M0,0h1280v720H0V0z" class="st1"/><path d="M0,0h1280v127.9H0L0,0z" class="st2"/><path d="M0,667.3h1280V720H0V667.3z" class="st3"/><path d="M0,127.9h1280v13.5H0L0,127.9z" class="st4"/><path d="M0,0h1280v720H0L0,0z" class="st1"/><path d="M46.2,0H1280v723.8H46.2L46.2,0z" class="st5"/><g><g transform="matrix(0.6666822659765954 0.0 0.0 0.6702245552639253 46.22530131233596 0.0)"><defs><rect id="SVGID_3_" width="1233.8" height="723.8" x="308.4" y="178.1"/></defs><clipPath id="SVGID_4_"><use overflow="visible" xlink:href="#SVGID_3_"/></clipPath><image width="1920" height="1080" clip-path="url(#SVGID_4_)" enable-background="new" overflow="visible" xlink:href="75636D4A126333FE.png"/></g><path d="M-1.3,169.3h587.5v166.2H-1.3L-1.3,169.3z" class="st5"/><g><g transform="matrix(0.2834189865195939 0.0 0.0 0.28338442427520993 45.34523149606299 113.44490236220472)"><defs><rect id="SVGID_5_" width="391.7" height="111.4" x="676" y="434.5"/></defs><clipPath id="SVGID_6_"><use overflow="visible" xlink:href="#SVGID_5_"/></clipPath><g clip-path="url(#SVGID_6_)" transform="matrix(1 0 0 1 0 0)"><image width="1382" height="393" overflow="visible" transform="matrix(1.5 0 0 1.492 -164.6513 196.973)" xlink:href="75636D4A12633402.png"/></g></g></g></g></g></g><text class="st6 st7" transform="matrix(1 0 0 1 38.0005 412.1484)">Cloud Native Austin</text><polygon points="53.1 580.2 38 580.2 38 655.8 109.7 655.8 109.7 640.7 53.1 640.7" class="st8"/><polygon points="147.6 580.2 117.3 655.8 134.6 655.8 155.2 602.9 169.8 640.7 144.7 640.7 139 655.8 193 655.8 162.7 580.2" class="st8"/><polygon points="214.4 606.7 195.5 580.2 176.5 580.2 206.8 625.6 206.8 655.8 221.9 655.8 221.9 625.6 252.2 580.2 233.5 580.2" class="st8"/><polygon points="258.7 592.1 258.7 595.3 258.7 610.4 258.7 628.9 258.7 655.8 330.5 655.8 330.5 640.7 273.9 640.7 273.9 628.9 273.9 625.6 317.4 625.6 317.4 610.4 273.9 610.4 273.9 595.3 330.5 595.3 330.5 580.2 258.7 580.2" class="st8"/><path d="M355,594.6h38.8v15.7h-34.6l0.1,14.4h10.4l27.4,31.1h18.7l-27.4-31.1h10.7c6.5,0,11.8-5.3,11.8-11.7	c0,0,0,0,0,0v-21.1c0-6.5-5.3-11.8-11.8-11.8c0,0,0,0,0,0h-58.9v75.7h15.1L355,594.6z" class="st8"/><rect id="_Path_" width="29.8" height="14.4" x="471" y="580.5" class="st9"/><path id="_Path_2" d="M503.5,628.9v-5.9c0-6.9-5.8-12.4-12.9-12.4h-48.1v-3.9h-17.6v16.9h61v5.3L503.5,628.9z" class="st9"/><polygon id="_Path_3" points="442.5 601.9 442.5 594.9 466.1 594.9 466.1 580.5 424.9 580.5 424.9 601.9" class="st10"/><path id="_Path_4" d="M485.9,633.5v8.4h-23.6v14.4h29c6.6,0.1,12-5.1,12.1-11.7v-11H485.9z" class="st10"/><path id="_Path_5" d="M441.1,634.2v7.6h16.3v14.4h-21c-6.6,0.1-12-5.1-12.1-11.7v-10.2H441.1z" class="st9"/></svg>