<svg xmlns="http://www.w3.org/2000/svg" xmlns:xlink="http://www.w3.org/1999/xlink" style="isolation:isolate" width="649.36" height="192.808" viewBox="364.865 249.317 487.02 144.606"><g><path fill="#F9D2CF" d="M 600.079 314.704 L 626.581 314.704 L 626.581 249.317 L 600.079 249.317 L 600.079 314.704 Z"/><path fill="#ADCAF9" d="M 808.722 314.704 L 835.224 314.704 L 835.224 249.317 L 808.722 249.317 L 808.722 314.704 Z"/><path fill="#A8DAB5" d="M 364.865 314.704 L 391.367 314.704 L 391.367 249.317 L 364.865 249.317 L 364.865 314.704 Z"/><path fill="#FABB04" d="M 463.485 314.704 L 463.485 314.704 L 463.485 249.317 C 450.571 249.317 440.103 259.785 440.103 272.699 L 440.103 291.322 C 440.103 304.236 450.571 314.704 463.485 314.704 Z"/><path fill="#FCE192" d="M 463.485 314.704 L 493.117 314.704 L 493.117 249.317 L 463.485 249.317 L 463.485 314.704 Z"/><path fill="#ADCAF9" d="M 509.159 249.317 L 546.91 314.704 L 546.91 249.317 L 509.159 249.317 Z"/><path fill="#4285F4" d="M 584.662 249.317 L 546.911 249.317 L 546.911 314.704 L 584.662 249.317 Z"/><path fill="#34A852" d="M 391.367 249.317 C 409.423 249.317 424.06 263.954 424.06 282.01 C 424.06 300.067 409.423 314.704 391.367 314.704 L 391.367 249.317 Z"/><path fill="none" stroke="#0D642C" stroke-linecap="square" stroke-linejoin="miter" stroke-miterlimit="3" stroke-width=".938" d="M 391.367 302.22 C 402.528 302.22 411.576 293.172 411.576 282.01 C 411.576 270.849 402.528 261.801 391.367 261.801 L 378.116 261.801 L 378.116 277.269" vector-effect="non-scaling-stroke"/><path fill="#FABB04" d="M 759.236 298.358 C 745.694 298.358 734.715 287.38 734.715 273.837 C 734.715 260.295 745.694 249.317 759.236 249.317 L 759.236 298.358 Z"/><path fill="#EA4335" d="M 648.382 265.664 L 626.582 265.664 L 626.582 249.317 L 648.382 249.317 L 648.382 265.664 Z"/><path fill="#4285F4" d="M 808.722 265.664 L 792.061 265.664 L 792.061 249.317 L 808.722 249.317 L 808.722 265.664 Z"/><path fill="#4285F4" d="M 851.885 265.664 L 835.224 265.664 L 835.224 249.317 L 851.885 249.317 L 851.885 265.664 Z"/><path fill="#EA4335" d="M 642.929 298.358 L 626.582 298.358 L 626.582 282.011 L 642.929 282.011 L 642.929 298.358 Z"/><path fill="#FABB04" d="M 781.031 265.664 L 759.236 265.664 L 759.236 249.317 L 781.031 249.317 L 781.031 265.664 Z"/><path fill="#FCE192" d="M 759.236 265.664 L 759.236 298.358 L 737.44 298.358 L 737.44 314.705 L 759.236 314.705 C 772.778 314.705 783.756 303.727 783.756 290.185 C 783.756 276.642 772.778 265.664 759.236 265.664 Z"/><path fill="none" stroke="#E27400" stroke-linecap="square" stroke-linejoin="miter" stroke-miterlimit="3" stroke-width=".938" d="M 747.803 285.521 C 744.771 282.554 742.888 278.415 742.888 273.837 C 742.888 264.809 750.207 257.49 759.236 257.49 L 771.495 257.49" vector-effect="non-scaling-stroke"/><line x1="800.392" x2="843.555" y1="257.647" y2="257.647" stroke="#164EA6" stroke-linecap="square" stroke-linejoin="miter" stroke-miterlimit="3" stroke-width=".938" vector-effect="non-scaling-stroke"/><path fill="#34A852" d="M 687.35 314.704 L 687.35 314.704 L 687.35 249.317 C 674.436 249.317 663.968 259.785 663.968 272.699 L 663.968 291.322 C 663.968 304.236 674.436 314.704 687.35 314.704 Z"/><path fill="#A8DAB5" d="M 687.35 314.704 L 716.982 314.704 L 716.982 249.317 L 687.35 249.317 L 687.35 314.704 Z"/><line x1="680.058" x2="675.837" y1="272.135" y2="272.107" stroke="#0D642C" stroke-linecap="square" stroke-linejoin="miter" stroke-miterlimit="3" stroke-width=".938" vector-effect="non-scaling-stroke"/><line x1="716.983" x2="687.957" y1="272.176" y2="272.176" stroke="#0D642C" stroke-linecap="square" stroke-linejoin="miter" stroke-miterlimit="3" stroke-width=".938" vector-effect="non-scaling-stroke"/><line x1="716.983" x2="708.316" y1="291.845" y2="291.845" stroke="#0D642C" stroke-linecap="square" stroke-linejoin="miter" stroke-miterlimit="3" stroke-width=".938" vector-effect="non-scaling-stroke"/><line x1="700.41" x2="693.821" y1="291.845" y2="291.845" stroke="#0D642C" stroke-linecap="square" stroke-linejoin="miter" stroke-miterlimit="3" stroke-width=".938" vector-effect="non-scaling-stroke"/><path fill="none" stroke="#164EA6" stroke-linecap="square" stroke-linejoin="miter" stroke-miterlimit="3" stroke-width=".938" d="M 551.066 287.899 C 551.066 285.604 549.206 283.743 546.911 283.743 C 544.616 283.743 542.755 285.604 542.755 287.899 C 542.755 290.194 544.616 292.054 546.911 292.054 C 549.206 292.054 551.066 290.194 551.066 287.899 Z" vector-effect="non-scaling-stroke"/><path fill="none" stroke="#164EA6" stroke-linecap="square" stroke-linejoin="miter" stroke-miterlimit="3" stroke-width=".938" d="M 557.293 262.72 C 557.293 260.425 559.153 258.564 561.448 258.564 C 563.743 258.564 565.604 260.425 565.604 262.72 C 565.604 265.015 563.743 266.875 561.448 266.875 C 559.153 266.875 557.293 265.015 557.293 262.72 Z" vector-effect="non-scaling-stroke"/><line x1="559.37" x2="548.965" y1="266.319" y2="284.34" stroke="#164EA6" stroke-linecap="square" stroke-linejoin="miter" stroke-miterlimit="3" stroke-width=".938" vector-effect="non-scaling-stroke"/><path fill="none" stroke="#164EA6" stroke-linecap="square" stroke-linejoin="miter" stroke-miterlimit="3" stroke-width=".938" d="M 536.529 262.72 C 536.529 260.425 534.669 258.564 532.374 258.564 C 530.079 258.564 528.218 260.425 528.218 262.72 C 528.218 265.015 530.079 266.875 532.374 266.875 C 534.669 266.875 536.529 265.015 536.529 262.72 Z" vector-effect="non-scaling-stroke"/><line x1="534.451" x2="544.856" y1="266.319" y2="284.34" stroke="#164EA6" stroke-linecap="square" stroke-linejoin="miter" stroke-miterlimit="3" stroke-width=".938" vector-effect="non-scaling-stroke"/><path fill="none" stroke="#0D642C" stroke-linecap="square" stroke-linejoin="miter" stroke-miterlimit="3" stroke-width=".938" d="M 378.116 286.752 L 373.375 282.01 L 378.116 277.269 L 382.858 282.01 L 378.116 286.752 Z" vector-effect="non-scaling-stroke"/><path fill="none" stroke="#0D642C" stroke-linecap="square" stroke-linejoin="miter" stroke-miterlimit="3" stroke-width=".938" d="M 708.316 291.845 L 704.363 287.892 L 700.41 291.845 L 704.363 295.798 L 708.316 291.845 Z" vector-effect="non-scaling-stroke"/><path fill="none" stroke="#0D642C" stroke-linecap="square" stroke-linejoin="miter" stroke-miterlimit="3" stroke-width=".938" d="M 688.041 272.176 L 684.088 268.223 L 680.136 272.176 L 684.088 276.129 L 688.041 272.176 Z" vector-effect="non-scaling-stroke"/><path fill="none" stroke="#164EA6" stroke-linecap="square" stroke-linejoin="miter" stroke-miterlimit="3" stroke-width=".938" d="M 818.021 271.476 C 818.021 269.293 819.791 267.523 821.974 267.523 C 824.156 267.523 825.926 269.293 825.926 271.476 C 825.926 273.659 824.156 275.429 821.974 275.429 C 819.791 275.429 818.021 273.659 818.021 271.476 Z" vector-effect="non-scaling-stroke"/><path fill="none" stroke="#164EA6" stroke-linecap="square" stroke-linejoin="miter" stroke-miterlimit="3" stroke-width=".938" d="M 818.021 286.628 C 818.021 284.445 819.791 282.675 821.974 282.675 C 824.156 282.675 825.926 284.445 825.926 286.628 C 825.926 288.811 824.156 290.581 821.974 290.581 C 819.791 290.581 818.021 288.811 818.021 286.628 Z" vector-effect="non-scaling-stroke"/><path fill="none" stroke="#164EA6" stroke-linecap="square" stroke-linejoin="miter" stroke-miterlimit="3" stroke-width=".938" d="M 818.021 301.781 C 818.021 299.598 819.791 297.828 821.974 297.828 C 824.156 297.828 825.926 299.598 825.926 301.781 C 825.926 303.964 824.156 305.734 821.974 305.734 C 819.791 305.734 818.021 303.964 818.021 301.781 Z" vector-effect="non-scaling-stroke"/><path fill="none" stroke="#E27400" stroke-linecap="square" stroke-linejoin="miter" stroke-miterlimit="3" stroke-width=".938" d="M 751.507 306.531 L 759.236 306.531 C 768.263 306.531 775.583 299.212 775.583 290.184 C 775.583 281.156 768.263 273.837 759.236 273.837" vector-effect="non-scaling-stroke"/><path fill="none" stroke="#A40E0E" stroke-linecap="square" stroke-linejoin="miter" stroke-miterlimit="3" stroke-width=".938" d="M 630.172 290.127 L 613.33 290.127 L 613.33 306.969" vector-effect="non-scaling-stroke"/><path fill="none" stroke="#A40E0E" stroke-linecap="square" stroke-linejoin="miter" stroke-miterlimit="3" stroke-width=".934" d="M 637.447 257.484 L 613.331 257.484 L 613.331 281.6" vector-effect="non-scaling-stroke"/><line x1="493.117" x2="463.367" y1="272.176" y2="272.176" stroke="#E27400" stroke-linecap="square" stroke-linejoin="miter" stroke-miterlimit="3" stroke-width=".938" vector-effect="non-scaling-stroke"/><line x1="493.117" x2="463.367" y1="282.01" y2="282.01" stroke="#E27400" stroke-linecap="square" stroke-linejoin="miter" stroke-miterlimit="3" stroke-width=".938" vector-effect="non-scaling-stroke"/><line x1="493.117" x2="463.367" y1="291.845" y2="291.845" stroke="#E27400" stroke-linecap="square" stroke-linejoin="miter" stroke-miterlimit="3" stroke-width=".938" vector-effect="non-scaling-stroke"/><path fill="none" stroke="#FFF" stroke-linecap="square" stroke-linejoin="miter" stroke-miterlimit="3" stroke-width=".86" d="M 693.85 343.592 C 702.878 343.592 710.197 350.911 710.197 359.939 L 710.197 376.286 C 710.197 385.314 702.878 392.633 693.85 392.633 L 681.59 392.633" vector-effect="non-scaling-stroke"/><path fill="none" stroke="#FFF" stroke-linecap="square" stroke-linejoin="miter" stroke-miterlimit="3" stroke-width=".86" d="M 582.762 343.592 C 591.79 343.592 599.109 350.911 599.109 359.939 L 599.109 376.286 C 599.109 385.314 591.79 392.633 582.762 392.633 C 573.734 392.633 566.415 385.314 566.415 376.286 L 566.415 359.939 C 566.415 350.911 573.734 343.592 582.762 343.592 Z" vector-effect="non-scaling-stroke"/><line x1="638.73" x2="638.73" y1="343.749" y2="392.632" stroke="#FFF" stroke-linecap="square" stroke-linejoin="miter" stroke-miterlimit="3" stroke-width=".86" vector-effect="non-scaling-stroke"/><path fill="none" stroke="#FFF" stroke-linecap="square" stroke-linejoin="miter" stroke-miterlimit="3" stroke-width=".86" d="M 533.045 392.633 L 508.729 392.633 L 508.729 384.459" vector-effect="non-scaling-stroke"/><path fill="none" stroke="#FFF" stroke-linecap="square" stroke-linejoin="miter" stroke-miterlimit="3" stroke-width=".86" d="M 508.729 384.459 C 508.729 378.138 513.854 373.014 520.175 373.014 C 528.299 373.014 534.886 366.427 534.886 358.303 C 534.886 350.178 528.299 343.592 520.175 343.592 L 508.729 343.592" vector-effect="non-scaling-stroke"/><path fill="none" stroke="#FFF" stroke-linecap="square" stroke-linejoin="miter" stroke-miterlimit="3" stroke-width=".86" d="M 693.85 343.592 C 684.822 343.592 677.503 350.911 677.503 359.939 C 677.503 368.967 684.822 376.286 693.85 376.286 C 702.878 376.286 710.197 368.967 710.197 359.939" vector-effect="non-scaling-stroke"/></g></svg>