<svg viewBox="0 0 1400 1000" xmlns="http://www.w3.org/2000/svg"><g fill="none" fill-rule="evenodd"><g transform="translate(-16.000000, 0.000000)"><path fill="#203370" d="M0 1011.97h1431.046V-.001H0z"></path><path fill="#FFF" d="M130.004 136.709h-6.8v31.943h-9.93V97.427h9.93v31.307h5.92l18.833-31.307h11.839l-22.405 33.803 24.117 37.422h-12.132zm86.343-39.282v49.36c0 7.369-2.111 13.027-6.336 16.974-4.223 3.946-9.743 5.92-16.558 5.92-6.718 0-12.148-1.974-16.29-5.92-4.142-3.947-6.213-9.605-6.213-16.975V97.427h9.833v49.36c0 5.086 1.14 8.918 3.424 11.495 2.283 2.575 5.365 3.864 9.246 3.864 4.044 0 7.224-1.24 9.539-3.718 2.315-2.478 3.473-6.36 3.473-11.642V97.427h9.882zm16.046 71.225V97.427h19.862c6.718 0 11.96 1.598 15.726 4.794 3.767 3.196 5.651 7.99 5.651 14.382 0 3.392-.857 6.384-2.569 8.976-1.712 2.593-4.085 4.493-7.118 5.7 3.85.847 6.809 2.861 8.88 6.04 2.07 3.18 3.105 6.907 3.105 11.18 0 6.555-1.85 11.553-5.552 14.992-3.7 3.44-8.813 5.16-15.335 5.16h-22.65zm9.93-33.215v25.682h12.72c3.522 0 6.237-1.084 8.144-3.254 1.91-2.167 2.863-5.275 2.863-9.319 0-4.01-.816-7.198-2.446-9.563-1.63-2.364-4.142-3.546-7.535-3.546h-13.746zm0-7.143h10.909c3.262 0 5.823-.986 7.68-2.96 1.86-1.972 2.79-4.818 2.79-8.535 0-3.914-.97-6.85-2.912-8.806-1.94-1.957-4.785-2.935-8.536-2.935h-9.93v23.236zm84.827 7.289h-26.417v25.536h30.624v7.533h-40.553V97.427h40.259v7.631h-30.33v22.943h26.417zm27.383 2.397v30.672h-9.93V97.475h22.16c6.75 0 11.97 1.746 15.655 5.234 3.684 3.49 5.527 8.496 5.527 15.02 0 3.717-.855 6.96-2.567 9.734-1.714 2.772-4.184 4.94-7.412 6.506 3.555 1.207 6.123 3.253 7.704 6.14 1.583 2.885 2.374 6.448 2.374 10.688v6.213c0 2.185.219 4.215.66 6.09.44 1.875 1.198 3.35 2.274 4.427v1.125h-10.224c-1.108-1.076-1.817-2.698-2.127-4.867a48.417 48.417 0 0 1-.465-6.873v-6.017c0-3.98-.905-7.126-2.715-9.441-1.81-2.316-4.296-3.474-7.46-3.474h-13.454zm0-7.581h11.742c4.01 0 6.97-1.085 8.878-3.254 1.909-2.17 2.862-5.243 2.862-9.221 0-4.077-.93-7.24-2.788-9.491-1.86-2.25-4.68-3.375-8.464-3.375h-12.23v25.34zm94.386 38.253h-9.882l-27.003-52.979-.294.099v52.88h-9.93V97.427h9.93l27.003 52.833.294-.099V97.427h9.882zm55.26-33.069h-26.416v25.536h30.624v7.533h-40.555V97.427h40.261v7.631h-30.33v22.943h26.416zm59.624-30.525h-18.297v63.594h-9.929v-63.594h-18.199v-7.631h46.425zm51.311 30.525H588.7v25.536h30.622v7.533h-40.554V97.427h40.261v7.631H588.7v22.943h26.414zm49.984 15.165c0-3.36-.945-6.115-2.837-8.268-1.89-2.152-5.202-4.044-9.93-5.674-6.783-2.054-11.985-4.736-15.606-8.046-3.62-3.312-5.43-7.69-5.43-13.136 0-5.608 2.014-10.215 6.042-13.82 4.027-3.603 9.205-5.406 15.531-5.406 6.587 0 11.897 2.08 15.924 6.238 4.027 4.158 5.975 9.173 5.846 15.043l-.098.294H665c0-4.143-1.068-7.51-3.204-10.103-2.137-2.592-5.144-3.888-9.025-3.888-3.685 0-6.531 1.083-8.537 3.252-2.005 2.17-3.008 4.934-3.008 8.293 0 3.033 1.077 5.584 3.229 7.655 2.152 2.07 5.707 3.954 10.664 5.65 6.49 2.022 11.43 4.778 14.822 8.268 3.392 3.49 5.088 8.007 5.088 13.55 0 5.838-2.006 10.47-6.018 13.893-4.01 3.424-9.277 5.137-15.8 5.137-6.36 0-11.912-1.883-16.656-5.65-4.747-3.768-7.036-9.075-6.873-15.924l.097-.293h9.538c0 4.891 1.28 8.512 3.84 10.86 2.56 2.348 5.911 3.522 10.054 3.522 3.718 0 6.629-1.035 8.732-3.106 2.104-2.072 3.155-4.851 3.155-8.341zm-519.44 114.709H122.96l-5.186 18.001h-10.077l21.916-71.225h9.588l21.72 71.225h-10.077l-5.186-18.001zm-20.4-7.876h18.15l-8.903-31.114h-.294l-8.952 31.114zm49.73 25.877v-71.225h19.569c7.565 0 13.737 2.853 18.514 8.56 4.779 5.708 7.167 13.045 7.167 22.015v10.125c0 9.001-2.388 16.339-7.167 22.013-4.777 5.675-10.95 8.512-18.514 8.512h-19.57zm9.931-63.594v56.061h9.294c4.99 0 8.929-2.137 11.815-6.409 2.885-4.272 4.328-9.8 4.328-16.583v-10.224c0-6.718-1.443-12.206-4.328-16.461-2.886-4.257-6.825-6.384-11.815-6.384h-9.294zm69.505 47.843l.977 4.157h.294l1.027-4.109 14.53-55.522h10.516l-21.427 71.225h-9.588l-21.377-71.225h10.567zm69.516-2.25h-22.7l-5.185 18.001h-10.078l21.917-71.225h9.588l21.72 71.225h-10.077l-5.185-18.001zm-20.4-7.876h18.15l-8.904-31.114h-.294l-8.952 31.114zm96.839 25.877h-9.882l-27.003-52.979-.294.099v52.88h-9.93v-71.225h9.93l27.003 52.833.294-.099v-52.734h9.882zm61.031-21.622l.148.294c-.032 7.11-1.924 12.612-5.674 16.51-3.75 3.897-9.05 5.846-15.899 5.846-6.98 0-12.556-2.349-16.73-7.044-4.174-4.697-6.262-11.253-6.262-19.666v-19.762c0-8.415 2.062-14.986 6.188-19.715 4.126-4.73 9.629-7.094 16.51-7.094 6.979 0 12.344 1.909 16.094 5.724 3.75 3.816 5.675 9.392 5.773 16.73l-.147.293h-9.391c-.099-5.185-1.126-9.001-3.082-11.446-1.957-2.446-5.04-3.67-9.247-3.67-4.076 0-7.24 1.647-9.49 4.942-2.25 3.293-3.375 7.99-3.375 14.088v19.91c0 6.197 1.149 10.941 3.45 14.236 2.298 3.293 5.534 4.94 9.71 4.94 4.108 0 7.117-1.198 9.025-3.595 1.907-2.397 2.893-6.238 2.96-11.521h9.44zm55.042-11.446h-26.417v25.535h30.624v7.533h-40.553v-71.225h40.259v7.631h-30.33v22.944h26.417zm17.453 33.068v-71.225h19.567c7.567 0 13.738 2.853 18.517 8.56 4.777 5.708 7.165 13.045 7.165 22.015v10.125c0 9.001-2.388 16.339-7.165 22.013-4.779 5.675-10.95 8.512-18.517 8.512h-19.567zm9.93-63.594v56.061h9.296c4.99 0 8.926-2.137 11.813-6.409 2.887-4.272 4.33-9.8 4.33-16.583v-10.224c0-6.718-1.443-12.206-4.33-16.461-2.887-4.257-6.824-6.384-11.813-6.384h-9.296zm-383.452 178.4h-9.882l-27.003-52.979-.294.099v52.88h-9.93v-71.225h9.93l27.004 52.833.293-.099v-52.734h9.882zm55.26-33.068h-26.416v25.535h30.624v7.533h-40.555v-71.225h40.261v7.632h-30.33v22.943h26.416zm59.635-30.525h-18.297v63.593h-9.93v-63.593h-18.199v-7.632h46.426zm62.716 43.146h.294l9.588-50.778h9.734l-14.382 71.225h-9.147l-12.084-50.582h-.292l-12.183 50.582h-9.147l-14.333-71.225h9.734l9.637 50.778h.295l12.131-50.778h7.876zm78.636-5.333c0 8.447-2.184 15.026-6.554 19.74-4.371 4.712-10.224 7.069-17.563 7.069-7.239 0-12.995-2.357-17.267-7.069-4.272-4.714-6.409-11.293-6.409-19.74v-19.567c0-8.414 2.144-15.003 6.433-19.763 4.289-4.762 10.037-7.143 17.243-7.143 7.307 0 13.151 2.381 17.539 7.143 4.386 4.76 6.579 11.35 6.579 19.763v19.567zm-9.881-19.714c0-6.196-1.24-10.9-3.718-14.113-2.479-3.213-5.984-4.818-10.518-4.818-4.468 0-7.891 1.605-10.271 4.818-2.382 3.213-3.572 7.917-3.572 14.113v19.714c0 6.262 1.198 11.007 3.595 14.235 2.397 3.229 5.813 4.844 10.248 4.844 4.566 0 8.08-1.607 10.543-4.818 2.462-3.213 3.693-7.966 3.693-14.261V352.77zm38.683 14.823v30.671h-9.93v-71.177h22.16c6.75 0 11.97 1.746 15.655 5.234 3.684 3.49 5.527 8.497 5.527 15.02 0 3.717-.855 6.961-2.567 9.734-1.714 2.773-4.184 4.94-7.412 6.506 3.555 1.207 6.123 3.253 7.704 6.14 1.583 2.885 2.374 6.448 2.374 10.688v6.214c0 2.184.219 4.214.66 6.089.44 1.875 1.198 3.35 2.274 4.427v1.125h-10.224c-1.108-1.076-1.817-2.698-2.128-4.867-.31-2.17-.464-4.46-.464-6.873v-6.016c0-3.98-.905-7.127-2.715-9.442-1.81-2.316-4.296-3.473-7.46-3.473h-13.454zm0-7.582h11.742c4.01 0 6.97-1.085 8.878-3.254 1.909-2.17 2.862-5.243 2.862-9.22 0-4.077-.93-7.241-2.788-9.492-1.86-2.25-4.68-3.375-8.464-3.375h-12.23v25.34zm64.007 6.31h-6.8v31.943h-9.93v-71.225h9.93v31.307h5.919l18.835-31.307h11.837l-22.404 33.803 24.117 37.422h-12.132zm42.563 31.943h9.881v-71.226h-9.881zm75.478 0h-9.882l-27.003-52.979-.294.099v52.88h-9.93v-71.225h9.93l27.005 52.833.292-.099v-52.734h9.882zm63.92-10.125c-1.632 2.87-4.28 5.445-7.949 7.728-3.67 2.283-8.357 3.426-14.066 3.426-7.468 0-13.484-2.268-18.05-6.8-4.567-4.534-6.848-10.99-6.848-19.372v-21.134c0-8.25 2.168-14.642 6.506-19.176 4.337-4.532 10.093-6.8 17.268-6.8 7.273 0 12.832 1.834 16.68 5.504 3.85 3.669 5.903 8.813 6.165 15.433l-.098.294h-9.393c-.163-4.435-1.328-7.81-3.497-10.127-2.17-2.315-5.406-3.473-9.71-3.473-4.339 0-7.763 1.557-10.273 4.672-2.511 3.116-3.768 7.64-3.768 13.576v21.231c0 6.066 1.347 10.688 4.036 13.867 2.691 3.18 6.351 4.77 10.982 4.77 3.393 0 6.027-.578 7.902-1.736 1.875-1.157 3.269-2.635 4.182-4.428v-16.19h-12.18v-7.192H691.4v25.927zm-573.025 67.544h-6.933l-1.584 5.498h-3.078l6.694-21.755h2.929l6.634 21.755h-3.078l-1.584-5.498zm-6.23-2.405h5.543l-2.72-9.503h-.09l-2.734 9.503zm16.083.015c0-2.58.466-4.654 1.397-6.224.931-1.569 2.244-2.352 3.937-2.352.757 0 1.432.168 2.025.508.592.338 1.103.826 1.531 1.464v-8.817h3.018v23.31h-2.644l-.224-1.854c-.429.709-.954 1.246-1.577 1.615-.622.369-1.337.553-2.144.553-1.683 0-2.99-.718-3.922-2.153-.931-1.433-1.397-3.345-1.397-5.737v-.313zm3.033.313c0 1.703.244 3.053.732 4.05.488.995 1.26 1.494 2.316 1.494.658 0 1.218-.179 1.681-.538.463-.358.84-.862 1.128-1.51v-7.858c-.289-.668-.665-1.195-1.128-1.585a2.493 2.493 0 0 0-1.65-.583c-1.057 0-1.834.573-2.332 1.719-.498 1.146-.747 2.645-.747 4.498v.313zm20.464 2.72l.254 1.254h.09l.254-1.254 2.749-11.31h3.123l-4.841 16.165h-2.675l-4.871-16.165h3.138zm19.465 4.855a11.97 11.97 0 0 1-.269-1.083 7.798 7.798 0 0 1-.134-1.067 5.799 5.799 0 0 1-1.689 1.778 3.944 3.944 0 0 1-2.256.687c-1.364 0-2.433-.432-3.205-1.292-.772-.862-1.157-2.015-1.157-3.46 0-1.544.525-2.757 1.576-3.638 1.05-.882 2.527-1.322 4.43-1.322h2.257v-1.66c0-.986-.22-1.754-.658-2.307-.439-.554-1.061-.83-1.868-.83-.727 0-1.312.249-1.756.747-.443.498-.664 1.12-.664 1.868l-2.884-.015-.045-.09c-.05-1.244.448-2.353 1.494-3.324 1.046-.972 2.396-1.456 4.05-1.456 1.593 0 2.885.47 3.876 1.41.991.942 1.488 2.285 1.488 4.028v7.5c0 .628.037 1.233.112 1.816.075.583.195 1.152.365 1.71h-3.063zm-3.66-2.016c.707 0 1.352-.21 1.935-.627a3.716 3.716 0 0 0 1.278-1.57v-3.303h-2.302c-.926 0-1.646.298-2.159.89-.513.593-.77 1.317-.77 2.174 0 .727.175 1.316.524 1.763.348.448.846.673 1.494.673zm15.895-14.149l.163 2.39c.449-.847 1.017-1.506 1.704-1.98a4.022 4.022 0 0 1 2.33-.71c1.415 0 2.516.522 3.303 1.57.787 1.045 1.18 2.669 1.18 4.87v10.025h-3.033v-9.996c0-1.503-.214-2.563-.642-3.182-.429-.617-1.076-.927-1.943-.927-.618 0-1.165.192-1.643.576-.479.383-.867.905-1.166 1.561v11.968h-3.033v-16.165h2.78zm20.738 14.178c.757 0 1.394-.29 1.913-.874.518-.583.777-1.362.777-2.337h2.72l.028.088c.041 1.525-.474 2.81-1.545 3.855-1.07 1.046-2.368 1.57-3.893 1.57-2.01 0-3.553-.682-4.624-2.047-1.07-1.365-1.606-3.103-1.606-5.216v-2.225c0-2.111.535-3.856 1.606-5.23 1.071-1.375 2.608-2.061 4.609-2.061 1.634 0 2.961.545 3.983 1.635 1.02 1.091 1.516 2.502 1.486 4.236l-.044.09h-2.72c0-1.076-.247-1.95-.74-2.623-.493-.671-1.147-1.008-1.965-1.008-1.154 0-1.974.468-2.457 1.404-.484.937-.726 2.122-.726 3.557v2.225c0 1.455.242 2.645.726 3.572.483.926 1.308 1.389 2.472 1.389zm17.417 2.302c-1.923 0-3.462-.668-4.618-2.003-1.155-1.334-1.733-3.043-1.733-5.124v-2.361c0-2.111.566-3.856 1.696-5.23 1.13-1.375 2.567-2.061 4.311-2.061 1.833 0 3.242.624 4.228 1.875.986 1.25 1.48 2.93 1.48 5.042v2.093h-8.696v.642c0 1.394.306 2.547.918 3.458.613.911 1.482 1.367 2.608 1.367.836 0 1.553-.131 2.152-.396a6.056 6.056 0 0 0 1.703-1.158l.956 1.884c-.509.578-1.19 1.05-2.047 1.42-.857.368-1.843.552-2.958.552zm-.344-14.449c-.877 0-1.579.425-2.108 1.277-.527.852-.82 1.931-.88 3.235h5.691v-.612c0-1.146-.227-2.082-.686-2.81-.458-.726-1.131-1.09-2.017-1.09zm11.259 6.246c0-2.58.466-4.654 1.398-6.224.931-1.569 2.244-2.352 3.937-2.352.756 0 1.431.168 2.025.508.591.338 1.103.826 1.531 1.464v-8.817h3.018v23.31h-2.645l-.223-1.854c-.428.709-.954 1.246-1.578 1.615-.622.369-1.336.553-2.143.553-1.683 0-2.99-.718-3.922-2.153-.932-1.433-1.398-3.345-1.398-5.737v-.313zm3.033.313c0 1.703.245 3.053.733 4.05.488.995 1.26 1.494 2.315 1.494.658 0 1.22-.179 1.682-.538.464-.358.84-.862 1.128-1.51v-7.858c-.289-.668-.664-1.195-1.128-1.585a2.495 2.495 0 0 0-1.651-.583c-1.056 0-1.833.573-2.33 1.719-.499 1.146-.749 2.645-.749 4.498v.313zm31.411-2.181h-2.077v9.756h-3.033v-21.755h3.033v9.563h1.809l5.752-9.563h3.616l-6.844 10.326 7.366 11.429h-3.704zm22.508 7.59c-.428.798-.976 1.41-1.644 1.838-.666.428-1.435.643-2.3.643-1.465 0-2.606-.563-3.422-1.688-.818-1.126-1.226-2.875-1.226-5.245v-9.547h3.02v9.576c0 1.654.195 2.827.59 3.519.392.692.982 1.039 1.77 1.039.747 0 1.371-.175 1.874-.524.503-.349.905-.847 1.204-1.493v-12.117h3.033v16.165h-2.705l-.194-2.166zm21.208-4.573c0 2.142-.463 3.854-1.39 5.134-.926 1.279-2.231 1.92-3.914 1.92-.847 0-1.587-.187-2.219-.561-.632-.373-1.163-.923-1.591-1.651l-.224 1.897h-2.63v-23.309h3.032v8.847c.419-.647.927-1.144 1.525-1.487.597-.344 1.29-.515 2.076-.515 1.703 0 3.02.685 3.946 2.053.926 1.37 1.389 3.196 1.389 5.476v2.196zm-3.018-2.196c0-1.554-.246-2.803-.74-3.75-.492-.945-1.273-1.42-2.339-1.42-.676 0-1.252.202-1.725.605-.473.405-.845.946-1.114 1.622v7.77c.269.657.643 1.167 1.12 1.53.48.365 1.062.547 1.75.547 1.066 0 1.84-.424 2.322-1.27.485-.847.726-1.993.726-3.438v-2.196zm15.038 9.25c-1.922 0-3.463-.668-4.617-2.003-1.156-1.334-1.734-3.043-1.734-5.124v-2.361c0-2.111.566-3.856 1.697-5.23 1.13-1.375 2.567-2.061 4.31-2.061 1.833 0 3.243.624 4.229 1.875.986 1.25 1.479 2.93 1.479 5.042v2.093h-8.696v.642c0 1.394.306 2.547.918 3.458.614.911 1.483 1.367 2.608 1.367.836 0 1.554-.131 2.15-.396a6.008 6.008 0 0 0 1.704-1.158l.957 1.884c-.508.578-1.19 1.05-2.047 1.42-.856.368-1.842.552-2.958.552zm-.345-14.449c-.875 0-1.577.425-2.106 1.277-.527.852-.821 1.931-.88 3.235h5.69v-.612c0-1.146-.229-2.082-.686-2.81-.459-.726-1.13-1.09-2.018-1.09zm18.846.523l-1.42-.074c-.626 0-1.147.189-1.561.568-.413.377-.73.911-.949 1.598v11.52h-3.033v-16.166h2.764l.225 2.434c.338-.857.782-1.526 1.33-2.01a2.782 2.782 0 0 1 1.896-.723c.201 0 .405.017.614.052.21.034.372.077.493.126l-.359 2.676zm8.198-2.554l.165 2.39c.449-.847 1.016-1.506 1.703-1.98a4.015 4.015 0 0 1 2.33-.71c1.415 0 2.517.522 3.304 1.57.785 1.045 1.18 2.669 1.18 4.87v10.025h-3.033v-9.996c0-1.503-.214-2.563-.643-3.182-.428-.617-1.076-.927-1.943-.927-.617 0-1.164.192-1.644.576-.477.383-.865.905-1.164 1.561v11.968h-3.033v-16.165h2.778zm20.915 16.48c-1.923 0-3.463-.668-4.617-2.003-1.156-1.334-1.734-3.043-1.734-5.124v-2.361c0-2.111.566-3.856 1.696-5.23 1.13-1.375 2.567-2.061 4.31-2.061 1.834 0 3.243.624 4.23 1.875.985 1.25 1.478 2.93 1.478 5.042v2.093h-8.695v.642c0 1.394.306 2.547.918 3.458.614.911 1.482 1.367 2.608 1.367.836 0 1.553-.131 2.15-.396a6.008 6.008 0 0 0 1.704-1.158l.957 1.884c-.509.578-1.19 1.05-2.047 1.42-.857.368-1.843.552-2.958.552zm-.345-14.449c-.876 0-1.578.425-2.107 1.277-.526.852-.82 1.931-.88 3.235h5.692v-.612c0-1.146-.23-2.082-.687-2.81-.46-.726-1.13-1.09-2.018-1.09zm15.752-6.052v4.02h2.526v2.167h-2.526v9.622c0 .836.126 1.431.374 1.785.25.353.573.53.97.53.24 0 .461-.014.667-.044.204-.03.445-.075.724-.135l.313 2.091a6.62 6.62 0 0 1-2.45.464c-1.145 0-2.034-.375-2.667-1.128-.632-.752-.949-1.94-.949-3.563v-9.622h-2.106v-2.166h2.106v-4.02h3.018zm14.061 20.501c-1.923 0-3.463-.668-4.618-2.003-1.156-1.334-1.733-3.043-1.733-5.124v-2.361c0-2.111.566-3.856 1.696-5.23 1.13-1.375 2.567-2.061 4.31-2.061 1.834 0 3.243.624 4.23 1.875.985 1.25 1.478 2.93 1.478 5.042v2.093h-8.695v.642c0 1.394.306 2.547.918 3.458.613.911 1.482 1.367 2.607 1.367.837 0 1.554-.131 2.151-.396a6.008 6.008 0 0 0 1.703-1.158l.958 1.884c-.509.578-1.19 1.05-2.047 1.42-.857.368-1.843.552-2.958.552zm-.345-14.449c-.876 0-1.578.425-2.107 1.277-.527.852-.82 1.931-.88 3.235h5.691v-.612c0-1.146-.23-2.082-.686-2.81-.46-.726-1.131-1.09-2.018-1.09zm19.414 10.086c0-.629-.208-1.159-.62-1.592-.414-.432-1.194-.908-2.338-1.427-1.665-.647-2.897-1.338-3.7-2.069-.8-.732-1.202-1.681-1.202-2.846 0-1.246.49-2.303 1.471-3.175.983-.872 2.27-1.307 3.862-1.307 1.665 0 2.989.47 3.975 1.41.986.942 1.46 2.115 1.42 3.52l-.03.09h-2.913c0-.767-.218-1.427-.651-1.98-.432-.553-1.032-.829-1.8-.829-.757 0-1.347.214-1.77.643-.424.427-.636.93-.636 1.508 0 .617.182 1.106.546 1.465.363.357 1.147.826 2.352 1.404 1.695.607 2.952 1.298 3.774 2.07.822.771 1.233 1.76 1.233 2.966 0 1.334-.508 2.419-1.525 3.257-1.015.836-2.351 1.255-4.003 1.255-1.784 0-3.188-.505-4.215-1.517-1.025-1.011-1.513-2.195-1.464-3.55l.031-.088h2.824c.039 1.046.328 1.8.865 2.263.539.464 1.205.695 2.003.695.787 0 1.402-.202 1.846-.605.442-.403.665-.923.665-1.56zm23.074 4.048h-3.033v-16.165h3.033v16.165zm0-20.41h-3.033v-2.899h3.033v2.899zm10.127 4.245l.163 2.39c.449-.847 1.016-1.506 1.703-1.98a4.022 4.022 0 0 1 2.33-.71c1.415 0 2.517.522 3.304 1.57.787 1.045 1.18 2.669 1.18 4.87v10.025h-3.033v-9.996c0-1.503-.214-2.563-.643-3.182-.428-.617-1.076-.927-1.943-.927-.617 0-1.164.192-1.642.576-.48.383-.867.905-1.166 1.561v11.968h-3.033v-16.165h2.78zm36.74 9.426c0 2.132-.467 3.84-1.404 5.126-.935 1.285-2.236 1.928-3.9 1.928-.787 0-1.479-.155-2.076-.464-.598-.308-1.111-.762-1.54-1.359v7.725h-3.033v-22.382h2.705l.194 1.851c.428-.687.952-1.217 1.569-1.591.617-.372 1.334-.56 2.152-.56 1.683 0 2.994.708 3.929 2.122.937 1.415 1.404 3.286 1.404 5.619v1.985zm-3.033-1.985c0-1.585-.262-2.877-.784-3.878-.523-1.001-1.302-1.503-2.339-1.503-.646 0-1.2.185-1.657.554-.46.368-.828.87-1.107 1.508v8.174c.27.607.632 1.073 1.091 1.397.46.323 1.022.485 1.689.485 1.045 0 1.825-.435 2.339-1.308.512-.87.768-2.02.768-3.444v-1.985zm16.189-4.887l-1.42-.074c-.626 0-1.147.189-1.56.568-.415.377-.73.911-.95 1.598v11.52h-3.033v-16.166h2.764l.225 2.434c.338-.857.782-1.526 1.33-2.01a2.788 2.788 0 0 1 1.896-.723c.2 0 .405.017.614.052a2.3 2.3 0 0 1 .493.126l-.359 2.676zm13.043 13.611c-.11-.367-.2-.73-.27-1.083a7.798 7.798 0 0 1-.135-1.067 5.767 5.767 0 0 1-1.688 1.778 3.943 3.943 0 0 1-2.256.687c-1.365 0-2.433-.432-3.204-1.292-.772-.862-1.158-2.015-1.158-3.46 0-1.544.525-2.757 1.576-3.638 1.05-.882 2.528-1.322 4.43-1.322h2.256v-1.66c0-.986-.22-1.754-.658-2.307-.439-.554-1.06-.83-1.867-.83-.727 0-1.312.249-1.756.747-.443.498-.664 1.12-.664 1.868l-2.885-.015-.045-.09c-.049-1.244.45-2.353 1.495-3.324 1.045-.972 2.395-1.456 4.05-1.456 1.592 0 2.886.47 3.877 1.41.991.942 1.486 2.285 1.486 4.028v7.5c0 .628.037 1.233.112 1.816.075.583.197 1.152.365 1.71h-3.061zm-3.662-2.016a3.24 3.24 0 0 0 1.935-.627 3.702 3.702 0 0 0 1.278-1.57v-3.303h-2.302c-.926 0-1.646.298-2.159.89-.512.593-.768 1.317-.768 2.174 0 .727.173 1.316.522 1.763.348.448.846.673 1.494.673zm18.758.029c.756 0 1.394-.29 1.912-.874.519-.583.777-1.362.777-2.337h2.72l.029.088c.04 1.525-.476 2.81-1.547 3.855-1.07 1.046-2.368 1.57-3.891 1.57-2.013 0-3.553-.682-4.624-2.047-1.071-1.365-1.607-3.103-1.607-5.216v-2.225c0-2.111.536-3.856 1.607-5.23 1.07-1.375 2.606-2.061 4.608-2.061 1.634 0 2.962.545 3.982 1.635 1.021 1.091 1.518 2.502 1.487 4.236l-.044.09h-2.72c0-1.076-.246-1.95-.74-2.623-.492-.671-1.147-1.008-1.965-1.008-1.156 0-1.973.468-2.458 1.404-.483.937-.724 2.122-.724 3.557v2.225c0 1.455.241 2.645.724 3.572.485.926 1.308 1.389 2.474 1.389zm15.454-18.199v4.02h2.527v2.167h-2.527v9.622c0 .836.125 1.431.374 1.785.249.353.573.53.971.53.24 0 .46-.014.665-.044.204-.03.447-.075.726-.135l.313 2.091a6.633 6.633 0 0 1-2.45.464c-1.146 0-2.035-.375-2.668-1.128-.632-.752-.948-1.94-.948-3.563v-9.622h-2.106v-2.166h2.106v-4.02h3.017zm11.444 20.186h-3.032v-16.165h3.033v16.165zm0-20.41h-3.032v-2.899h3.033v2.899zm12.46 18.423c.757 0 1.394-.29 1.913-.874.516-.583.777-1.362.777-2.337h2.718l.03.088c.04 1.525-.476 2.81-1.547 3.855-1.07 1.046-2.368 1.57-3.89 1.57-2.014 0-3.556-.682-4.627-2.047-1.07-1.365-1.606-3.103-1.606-5.216v-2.225c0-2.111.535-3.856 1.606-5.23 1.071-1.375 2.608-2.061 4.61-2.061 1.635 0 2.96.545 3.982 1.635 1.022 1.091 1.517 2.502 1.488 4.236l-.046.09h-2.718c0-1.076-.247-1.95-.742-2.623-.493-.671-1.147-1.008-1.963-1.008-1.156 0-1.976.468-2.458 1.404-.483.937-.725 2.122-.725 3.557v2.225c0 1.455.242 2.645.725 3.572.482.926 1.307 1.389 2.473 1.389zm17.42 2.302c-1.923 0-3.461-.668-4.615-2.003-1.157-1.334-1.735-3.043-1.735-5.124v-2.361c0-2.111.567-3.856 1.697-5.23 1.13-1.375 2.567-2.061 4.31-2.061 1.832 0 3.242.624 4.23 1.875.985 1.25 1.478 2.93 1.478 5.042v2.093h-8.697v.642c0 1.394.308 2.547.92 3.458.612.911 1.48 1.367 2.607 1.367.837 0 1.554-.131 2.151-.396a6.008 6.008 0 0 0 1.703-1.158l.957 1.884c-.508.578-1.191 1.05-2.046 1.42-.857.368-1.843.552-2.96.552zm-.343-14.449c-.876 0-1.58.425-2.107 1.277-.528.852-.82 1.931-.882 3.235h5.693v-.612c0-1.146-.23-2.082-.687-2.81-.458-.726-1.13-1.09-2.017-1.09z"></path><path fill="#0851BA" d="M513.354 708.757v302.082H382.253v-377.79z"></path><path fill="#203370" d="M513.354 708.757v302.082h131.101v-377.79z"></path><path fill="#2F96EA" d="M644.453 633.049l-131.101-75.706-131.1 75.706h.012-.012l131.1 75.708 131.101-75.708h-.01zM513.354 955.314v14.441l-120.792-69.799v-14.443z"></path><path fill="#203370" d="M513.354 981.666l-131.101-75.758 10.309-5.952 120.612 69.798z"></path><path fill="#203370" d="M392.562 885.515l-10.309-5.954v26.349l10.309-5.954z"></path><path fill="#2F96EA" d="M513.354 955.314v14.441l120.79-69.799v-14.443z"></path><path fill="#203370" d="M513.354 981.666l131.101-75.758-10.311-5.952-120.61 69.798z"></path><path fill="#203370" d="M634.144 885.515l10.309-5.954v26.349l-10.309-5.954z"></path><path fill="#2F96EA" d="M513.354 803.801v14.441l-120.792-69.798v-14.442z"></path><path fill="#203370" d="M513.354 830.153l-131.101-75.758 10.309-5.951 120.612 69.798z"></path><path fill="#203370" d="M392.562 734.004l-10.309-5.955v26.35l10.309-5.955z"></path><path fill="#2F96EA" d="M513.354 803.801v14.441l120.79-69.798v-14.442z"></path><path fill="#203370" d="M513.354 830.153l131.101-75.758-10.311-5.951-120.61 69.798z"></path><path fill="#203370" d="M634.144 734.004l10.309-5.955v26.35l-10.309-5.955z"></path><path fill="#0851BA" d="M906.656 481.635v399.808l-131.101-75.708V405.929z"></path><path fill="#203370" d="M906.656 481.635v399.808l131.1-75.708V405.929z"></path><path fill="#2F96EA" d="M1037.756 405.928l-131.1-75.708-131.101 75.708h.012-.012l131.101 75.706 131.1-75.706h-.011zm-131.1 322.264v14.441l-120.792-69.798v-14.444z"></path><path fill="#203370" d="M906.656 754.543l-131.101-75.757 10.309-5.951 120.612 69.798zm-120.792-96.152l-10.309-5.953v26.348l10.309-5.953z"></path><path fill="#2F96EA" d="M906.656 728.192v14.441l120.792-69.798v-14.444z"></path><path fill="#203370" d="M906.656 754.543l131.1-75.757-10.308-5.951-120.612 69.798zm120.792-96.152l10.308-5.953v26.348l-10.308-5.953z"></path><path fill="#2F96EA" d="M906.656 576.681v14.44l-120.792-69.797V506.88z"></path><path fill="#203370" d="M906.656 603.031l-131.101-75.757 10.309-5.95 120.612 69.797z"></path><path fill="#203370" d="M785.864 506.88l-10.309-5.953v26.348l10.309-5.953z"></path><path fill="#2F96EA" d="M906.656 576.681v14.44l120.792-69.797V506.88z"></path><path fill="#203370" d="M906.656 603.031l131.1-75.757-10.308-5.95-120.612 69.797z"></path><path fill="#203370" d="M1027.448 506.88l10.308-5.953v26.348l-10.308-5.953zm273.186-145.486l-.687.002v76.097"></path><path fill="#0851BA" d="M1299.946 254.514v399.808l-131.101-75.71V178.806z"></path><path fill="#203370" d="M1299.946 254.514v399.808l131.1-75.71V178.806z"></path><path fill="#2F96EA" d="M1431.048 178.806l-131.101-75.708-131.1 75.708h.012-.012l131.1 75.706 131.101-75.706h-.012zm-131.102 322.262v14.442l-120.792-69.799V431.27z"></path><path fill="#203370" d="M1299.946 527.42l-131.101-75.757 10.309-5.952 120.612 69.799z"></path><path fill="#203370" d="M1179.156 431.271l-10.309-5.955v26.35l10.309-5.955z"></path><path fill="#2F96EA" d="M1299.946 501.068v14.442l120.792-69.799V431.27z"></path><path fill="#203370" d="M1299.946 527.42l131.1-75.757-10.308-5.952-120.612 69.799z"></path><path fill="#2F96EA" d="M1299.946 349.557v14.442L1179.154 294.2v-14.443z"></path><path fill="#203370" d="M1299.946 375.909l-131.101-75.757 10.309-5.952 120.612 69.797z"></path><path fill="#203370" d="M1179.156 279.759l-10.309-5.954v26.349l10.309-5.954z"></path><path fill="#2F96EA" d="M1299.946 349.557v14.442l120.792-69.799v-14.443z"></path><path fill="#203370" d="M1299.946 375.909l131.1-75.757-10.308-5.952-120.612 69.797z"></path><path fill="#0851BA" d="M775.55 860.547v150.292h-131.1v-226z"></path><path fill="#203370" d="M775.55 860.547v150.292h131.101v-226z"></path><path fill="#2F96EA" d="M906.651 784.839L775.55 709.131l-131.1 75.708h.01-.01l131.1 75.708 131.101-75.708h-.012zM775.55 955.591v14.442l-120.792-69.798v-14.443z"></path><path fill="#203370" d="M775.55 981.943l-131.1-75.756 10.308-5.952 120.612 69.796z"></path><path fill="#203370" d="M654.758 885.792l-10.308-5.954v26.349l10.308-5.954z"></path><path fill="#2F96EA" d="M775.55 955.591v14.442l120.79-69.798v-14.443z"></path><path fill="#203370" d="M775.55 981.943l131.101-75.756-10.311-5.952-120.61 69.796z"></path><path fill="#203370" d="M896.339 885.792l10.31-5.954v26.349l-10.31-5.954z"></path><path fill="#2F96EA" d="M1299.951 557.717l-131.101-75.706-131.099 75.706h.011-.011l131.099 75.708 131.101-75.708h-.01z"></path><path fill="#0851BA" d="M1168.85 633.425l-131.099-75.708v399.806l93.897 54.225h37.202z"></path><path fill="#203370" d="M1206.053 1011.748l93.898-54.224V557.717l-131.101 75.708v378.323z"></path><path fill="#2F96EA" d="M1168.85 879.981v14.44l-120.79-69.797v-14.443z"></path><path fill="#203370" d="M1168.85 906.331l-131.099-75.757 10.309-5.95 120.61 69.797z"></path><path fill="#203370" d="M1048.06 810.181l-10.309-5.954v26.349l10.309-5.954z"></path><path fill="#2F96EA" d="M1168.85 879.981v14.44l120.792-69.797v-14.443z"></path><path fill="#203370" d="M1168.85 906.331l131.101-75.757-10.309-5.95-120.611 69.797z"></path><path fill="#203370" d="M1289.642 810.181l10.309-5.954v26.349l-10.309-5.954z"></path><path fill="#2F96EA" d="M1168.85 728.469v14.441l-120.79-69.798v-14.444z"></path><path fill="#203370" d="M1168.85 754.82l-131.099-75.757 10.309-5.951 120.61 69.798zm-120.79-96.152l-10.309-5.953v26.348l10.309-5.953z"></path><path fill="#2F96EA" d="M1168.85 728.469v14.441l120.792-69.798v-14.444z"></path><path fill="#203370" d="M1168.85 754.82l131.101-75.757-10.309-5.951-120.611 69.798zm120.792-96.152l10.309-5.953v26.348l-10.309-5.953z"></path><path fill="#0851BA" d="M1037.739 1011.962v.012h-131.1v-75.72z"></path><path fill="#203370" d="M1037.739 1011.962v.012h131.101v-75.72z"></path><path fill="#2F96EA" d="M1168.84 936.254l-131.101-75.706-131.1 75.706h.012-.012l131.1 75.708 131.101-75.708h-.012z"></path><path fill="#0851BA" d="M1431.043 784.839v227.134l-131.101-.004V709.131z"></path><path fill="#2F96EA" d="M1431.043 633.425l-131.101 75.706h.011-.011l131.101 75.708z"></path><path fill="#203370" d="M1310.251 961.596l-10.309-5.953v26.348l10.309-5.954z"></path><path fill="#2F96EA" d="M1431.043 879.883v14.441l-120.792-69.799v-14.441z"></path><path fill="#203370" d="M1431.043 906.234l-131.101-75.757 10.309-5.952 120.612 69.799z"></path><path fill="#203370" d="M1310.251 810.086l-10.309-5.955v26.35l10.309-5.956z"></path><path fill="#0851BA" d="M1299.946 160.652v55.24l-64.221-37.086v-55.24z"></path><path fill="#FFF" d="M1299.946 160.652l-64.221-37.086 64.557-37.085 63.885 37.085z"></path><path fill="#203370" d="M1299.946 160.652v55.24l64.221-37.086v-55.24z"></path><path fill="#0851BA" d="M906.656 387.775v55.24l-64.221-37.086V350.69z"></path><path stroke="#FAAF40" stroke-width="22.1" d="M479.39 623.973l800.283-461.064"></path><path fill="#0851BA" d="M1299.946 160.652v27.601l-64.221-37.086v-27.601zm-393.29 227.123v27.601l-64.221-37.085V350.69z"></path><path fill="#FFF" d="M906.656 387.775l-64.221-37.085 64.557-37.086 63.885 37.086z"></path><path fill="#203370" d="M906.656 387.775v55.24l64.221-37.086V350.69z"></path><path fill="#0851BA" d="M513.354 614.897v55.238l-64.221-37.086v-55.238z"></path><path fill="#FFF" d="M513.354 614.897l-64.221-37.086 64.558-37.085 63.884 37.085z"></path><path fill="#203370" d="M513.354 614.897v55.238l64.221-37.086v-55.238z"></path><path fill="#0851BA" d="M1168.85 541.462V596.7l-64.219-37.085v-55.239z"></path><path fill="#FAAF40" d="M736.069 768.086l11.033 19.148 683.967-394.049v-25.506z"></path><path fill="#203370" d="M1168.85 541.462V596.7l64.221-37.085v-55.239zm-393.3 227.123v55.238l64.221-37.085V731.5z"></path><path stroke="#FAAF40" stroke-width="22.1" d="M530.274 614.897l537.95 312.28"></path><path fill="#0851BA" d="M1431.043 690.979v55.238l-64.221-37.086v-55.238z"></path><path d="M1414.017 678.074L998.26 917.603l11.033 19.149 419.016-241.408c-4.498-5.99-9.108-11.878-14.292-17.27" fill="#FAAF40"></path><path fill="#0851BA" d="M1037.739 918.102v55.238l-64.22-37.086v-55.238z"></path><path fill="#FFF" d="M1037.739 918.102l-64.22-37.086 64.557-37.087 63.884 37.087z"></path><path fill="#203370" d="M1037.739 918.102v55.238l64.221-37.086v-55.238zM513.354 614.897v27.599l64.221-37.085v-27.6zM775.55 768.585v27.6l64.221-37.086V731.5z"></path><path fill="#FFF" d="M775.55 768.585L711.329 731.5l64.558-37.087 63.884 37.087z"></path><path fill="#0851BA" d="M775.55 768.585v55.238l-64.221-37.085V731.5z"></path><path fill="#FAAF40" d="M929.126 378.219l-11.095 19.112 513.032 297.819v-25.556z"></path><path fill="#0851BA" d="M1431.043 690.979v27.599l-64.221-37.085v-27.6z"></path><path fill="#FFF" d="M1431.043 690.979l-64.221-37.086 64.558-37.085zM1168.85 541.462l-64.219-37.086 64.556-37.087 63.884 37.087z"></path><path fill="#0851BA" d="M1168.85 541.462v27.599l-64.219-37.085v-27.6z"></path><path fill="#203370" d="M906.656 387.775v27.601l64.221-37.085V350.69zm262.194 153.687v27.599l64.221-37.085v-27.6z"></path><path fill="#FAAF40" d="M1343.297 163.219l-22.065 12.743 109.814 63.748v-25.553z"></path><path fill="#203370" d="M1322.416 151.098l20.881 12.121 20.871-12.052v-27.601l-64.222 37.086v27.601l21.286-12.291-9.911-5.753z"></path><path fill="#203370" d="M1322.416 151.098l-11.095 19.111 9.911 5.753 22.065-12.743z"></path><path fill="#2F96EA" d="M1397.431 1011.973l-87.18-50.377v14.441l62.19 35.936z"></path><path fill="#203370" d="M1310.251 976.038l-10.309 5.952 51.888 29.984h20.517z"></path><path fill="#FAAF40" d="M1060.21 908.546l-11.096 19.111 145.247 84.317h44.019z"></path><path fill="#203370" d="M1037.739 918.102v27.599l64.221-37.085v-27.6z"></path></g><path d="M129.995 778.635c15.56 0 27.88-6.295 36.956-18.886 9.077-12.59 13.616-30.723 13.616-54.399v-41.286c0-23.508-4.58-41.62-13.741-54.336-9.16-12.716-21.521-19.074-37.082-19.074-15.56 0-27.9 6.358-37.019 19.074-9.119 12.716-13.678 30.828-13.678 54.336v41.286c0 23.592 4.58 41.704 13.74 54.337 9.161 12.632 21.564 18.948 37.208 18.948zm0-19.325c-8.198 0-14.494-4.267-18.886-12.8-4.392-8.533-6.588-21.082-6.588-37.646v-48.439c0-16.48 2.154-28.967 6.463-37.458 4.308-8.491 10.562-12.737 18.76-12.737 8.199 0 14.494 4.225 18.886 12.674 4.392 8.45 6.588 20.957 6.588 37.521v48.439c0 16.648-2.175 29.218-6.525 37.709-4.35 8.491-10.583 12.737-18.698 12.737zm118.855 19.325c14.891 0 26.938-5.919 36.14-17.756 9.203-11.838 13.804-26.96 13.804-45.364 0-17.82-3.994-32.418-11.984-43.796-7.99-11.377-18.886-17.066-32.69-17.066-6.776 0-13.008 1.317-18.697 3.953-5.689 2.635-10.625 6.337-14.808 11.105v-5.145c0-16.48 3.158-29.636 9.475-39.466 6.316-9.83 14.577-14.745 24.783-14.745 5.104 0 9.58.586 13.428 1.757 3.848 1.172 7.654 2.887 11.42 5.145l4.893-18.697c-4.183-2.427-8.826-4.35-13.929-5.773-5.103-1.422-10.416-2.133-15.937-2.133-17.066 0-31.247 6.943-42.54 20.83-11.295 13.888-16.941 32.168-16.941 54.84v39.654c0 22.838 5.019 40.658 15.058 53.458 10.04 12.8 22.88 19.2 38.525 19.2zm0-19.2c-8.282 0-15.059-4.559-20.33-13.678-5.27-9.118-7.905-21.876-7.905-38.274v-16.815c2.426-5.354 5.96-9.579 10.604-12.674 4.643-3.096 10.185-4.643 16.627-4.643 7.948 0 14.201 3.932 18.76 11.795 4.56 7.864 6.84 17.987 6.84 30.369 0 12.298-2.217 22.692-6.651 31.183-4.434 8.492-10.416 12.738-17.945 12.738z" fill="#FFF" fill-rule="nonzero"></path></g></svg>