<svg xmlns="http://www.w3.org/2000/svg" role="img" viewBox="-7.11 -3.11 557.22 603.72"><style>svg {enable-background:new 0 0 543.6 594}</style><style>.st0{fill:#fff}</style><path d="M25.4 493.4c0 4.5 1 8.5 2.9 12.2s4.5 6.8 7.7 9.4c3.2 2.6 6.8 4.6 11 6 4.2 1.4 8.5 2.2 12.9 2.2 6 0 11.3-1.4 15.8-4.2 4.5-2.8 8.6-6.5 12.3-11.1l14.7 11.2c-10.8 14-25.9 20.9-45.3 20.9-8.1 0-15.4-1.4-21.9-4.1-6.5-2.7-12.1-6.5-16.6-11.3-4.5-4.8-8-10.5-10.5-17-2.4-6.5-3.7-13.6-3.7-21.3 0-7.6 1.3-14.7 4-21.3 2.7-6.5 6.3-12.2 11-17s10.2-8.6 16.7-11.3c6.5-2.7 13.5-4.1 21.1-4.1 9.1 0 16.7 1.6 23 4.7 6.3 3.2 11.4 7.3 15.4 12.4 4 5.1 6.9 10.9 8.7 17.3 1.8 6.4 2.7 12.9 2.7 19.5v6.9H25.4zm61.3-15.5c-.1-4.3-.8-8.3-2.1-11.9-1.2-3.6-3.1-6.7-5.5-9.4s-5.5-4.7-9.2-6.3c-3.7-1.5-7.9-2.3-12.8-2.3-4.7 0-9.1.9-13.1 2.7-4 1.8-7.3 4.1-10 7-2.7 2.9-4.9 6.1-6.4 9.6s-2.3 7-2.3 10.5h61.4zm37.6-42.7h19.4v15.7h.4c2.4-5.5 6.7-9.9 12.7-13.3 6-3.4 13-5.1 20.9-5.1 4.9 0 9.6.8 14.1 2.3 4.5 1.5 8.5 3.9 11.9 7 3.4 3.2 6.1 7.2 8.1 12.2 2 5 3 10.8 3 17.6v65.8h-19.4V477c0-4.7-.6-8.8-1.9-12.2-1.3-3.4-3-6.1-5.2-8.2-2.2-2.1-4.6-3.6-7.4-4.5-2.8-.9-5.7-1.4-8.7-1.4-4 0-7.8.6-11.2 1.9-3.5 1.3-6.5 3.3-9.1 6.1-2.6 2.8-4.6 6.4-6 10.7-1.4 4.3-2.2 9.4-2.2 15.3v52.6h-19.4V435.2zm96.8 0h22.4l30.6 78.3 29.3-78.3h20.7L284 537.5h-21.4l-41.5-102.3zm104.4 51.1c0-7.5 1.4-14.5 4.2-20.9 2.8-6.5 6.7-12.2 11.5-17 4.9-4.9 10.6-8.7 17.3-11.5 6.6-2.8 13.7-4.2 21.4-4.2 7.6 0 14.7 1.4 21.4 4.2 6.6 2.8 12.4 6.7 17.3 11.5 4.9 4.9 8.7 10.6 11.5 17 2.8 6.5 4.2 13.5 4.2 20.9 0 7.5-1.4 14.5-4.2 21-2.8 6.5-6.7 12.2-11.5 17-4.9 4.8-10.6 8.6-17.3 11.4-6.6 2.8-13.7 4.2-21.4 4.2-7.6 0-14.7-1.4-21.4-4.2-6.6-2.8-12.4-6.6-17.3-11.4-4.9-4.8-8.7-10.5-11.5-17-2.8-6.5-4.2-13.5-4.2-21zm20.8 0c0 5.2.8 10 2.4 14.3 1.6 4.4 3.8 8.1 6.7 11.2 2.9 3.1 6.4 5.5 10.6 7.3 4.2 1.8 8.8 2.7 14 2.7 5.2 0 9.9-.9 14-2.7 4.2-1.8 7.7-4.2 10.6-7.3 2.9-3.1 5.1-6.8 6.7-11.2 1.6-4.4 2.4-9.2 2.4-14.3 0-5.2-.8-10-2.4-14.3-1.6-4.4-3.8-8.1-6.7-11.2-2.9-3.1-6.4-5.5-10.6-7.3-4.2-1.8-8.8-2.7-14-2.7-5.2 0-9.9.9-14 2.7-4.2 1.8-7.7 4.2-10.6 7.3-2.9 3.1-5.1 6.8-6.7 11.2-1.7 4.4-2.4 9.1-2.4 14.3zm89.5-51.1h22.4l30.3 79.8h.4l29-79.8h20.7l-48.5 124.3c-1.7 4.5-3.5 8.5-5.4 12.2-1.9 3.7-4.1 6.8-6.7 9.4-2.6 2.6-5.7 4.6-9.3 6-3.7 1.4-8.1 2.2-13.4 2.2-2.9 0-5.8-.2-8.7-.5-2.9-.4-5.8-1.1-8.5-2.3l2.4-17.7c3.9 1.6 7.7 2.4 11.6 2.4 3 0 5.5-.4 7.6-1.2 2.1-.8 3.9-1.9 5.4-3.5 1.5-1.5 2.7-3.3 3.8-5.3 1-2 2-4.3 3-6.9l6.3-16.2-42.4-102.9zM158.7 170.9l.7 27.2 28.5 17.7-.6-27.2zm69.7 112.7l-.6-26.6-25-15.5c-.4-.2-.7-.5-1.1-.7l.6 26.6 26.1 16.2zm-89.1 35.8L74 278.9 72.4 211l32-13.8-.6-27.1-51.1 22c-3.9 1.7-6.3 5.3-6.2 9.5l1.9 81.4c.1 4.2 2.6 8.3 6.7 10.8l78.3 48.5c3.6 2.3 8 2.9 11.8 1.7.4-.1.8-.3 1.1-.4l48-20.7-26.1-16.2-28.9 12.7zm210.9-150c-.1-4.9-3.1-9.7-7.8-12.6l-95.1-58.9-2.9 1.3.7 28.5 75.3 46.6 1.8 76.3 28.8 17.8 1.6-.7-2.4-98.3z" class="st0"/><path d="M236.4 303.3l-88.3-54.7-2.2-91.9 40.2-17.3-.7-31.6-62.5 26.9c-4.6 2-7.3 6.2-7.2 11.1l2.5 107.7c.1 4.9 3.1 9.7 7.8 12.6l103.5 64.2c4.3 2.6 9.4 3.4 13.7 2 .4-.1.9-.3 1.3-.5l61.1-26.4-30.4-18.8-38.8 16.7z" class="st0"/><path d="M484.8 94L352.1 11.7c-4.9-3-10.7-3.8-15.7-2.3-.5.2-1 .3-1.4.5L205.5 65.8c-5.2 2.3-8.4 7.1-8.3 12.7l3.3 138.1c.1 5.6 3.5 11.1 8.9 14.4l132.7 82.2c4.9 3 10.7 3.8 15.7 2.3.5-.2 1-.3 1.5-.6l129.5-55.8c5.2-2.3 8.4-7.1 8.3-12.7l-3.2-138c-.3-5.6-3.7-11.1-9.1-14.4zM349.9 282.4l-115.3-71.5-2.8-120 112.5-48.5 115.3 71.5 2.8 120-112.5 48.5z" class="st0"/></svg>