<svg xmlns="http://www.w3.org/2000/svg" role="img" viewBox="-4.32 -4.32 510.64 416.64"><style>svg {enable-background:new 0 0 500 409.5}</style><style>.st0{fill:#fff}</style><path d="M5.6 396.1V329c0-3.2 2.7-5.9 6-5.9 3.2 0 5.8 2.7 5.8 5.9v63h31c2.8 0 5.3 2.2 5.3 5.1 0 2.9-2.5 5.3-5.3 5.3H12c-4.2 0-6.4-2.3-6.4-6.3zm66.4.9v-68c0-3.2 2.7-5.9 6-5.9 3.2 0 5.8 2.7 5.8 5.9v68c0 3.2-2.6 5.9-5.8 5.9-3.2 0-6-2.7-6-5.9zm88.9 2.9L119.1 342v55c0 3.2-2.6 5.9-5.8 5.9-3.3 0-6-2.7-6-5.9v-66.2c0-4.2 3.4-7.8 7.8-7.8 2.5 0 4.8 1.2 6.3 3.2l40.9 56.4V329c0-3.2 2.6-5.9 5.8-5.9 3.3 0 6 2.7 6 5.9v66.7c0 4-3.3 7.3-7.3 7.3-2.5-.1-4.6-1.1-5.9-3.1zm95.5-2.6c0 3.1-2.4 5.7-5.4 5.7-1.5 0-2.9-.4-4.1-1.7l-30-32.9-7.6 8V397c0 3.2-2.6 5.9-5.9 5.9-3.2 0-5.9-2.7-5.9-5.9v-68c0-3.2 2.7-5.9 5.9-5.9 3.3 0 5.9 2.7 5.9 5.9v34l34.7-38.1c1.2-1.3 2.6-1.8 4.1-1.8 2.9 0 5.5 2.4 5.5 5.4 0 1.4-.4 2.7-1.5 3.8l-27.4 29.1 30.1 32.1c1 1.1 1.6 2.5 1.6 3.8zm19.1-1.2v-66.2c0-4 2.2-6.3 6.4-6.3h41.8c2.8 0 5.3 2.4 5.3 5.3 0 2.8-2.5 5.1-5.3 5.1h-36.3v23h35.5c2.8 0 5.3 2.2 5.3 5.1 0 2.9-2.5 5.3-5.3 5.3h-35.5V392h36.3c2.8 0 5.3 2.2 5.3 5.1 0 2.9-2.5 5.3-5.3 5.3h-41.8c-4.2 0-6.4-2.3-6.4-6.3zm132.2 1.4c0 2.5-2.2 5.4-5.5 5.4-2 0-3.9-.9-5-2.5L377.5 372h-16.6v25c0 3.2-2.6 5.9-5.8 5.9-3.3 0-6-2.7-6-5.9v-67.1c0-4 2.2-6.3 6.4-6.3h26.8c15 0 25.3 9.7 25.3 24.2 0 13.2-8.3 20.8-17.6 22.7l16.6 23.4c.6.8 1.1 1.7 1.1 3.6zm-46.9-35.8h19.8c8.5 0 14.6-5.5 14.6-13.8s-6.1-13.8-14.6-13.8h-19.8v27.6zm67 34.4v-66.2c0-4 2.2-6.3 6.4-6.3h21.7c24.5 0 40.8 16.8 40.8 39.4 0 22.8-16.3 39.3-40.8 39.3h-21.7c-4.1.1-6.4-2.2-6.4-6.2zm28.1-4.1c18.2 0 28.7-13 28.7-28.9 0-16.2-10.2-29-28.7-29h-16.3V392h16.3zM363 50.6v96.8l17.9 10.3V60.9zM123.9 157.7l17.8-10.3V50.6l-17.8 10.3zm87.4-.9l82.1 47.4v-20.6l-76.8-44.4-5.3 3zm86.8 74.8l-86.8-50.1v20.6l23.2 13.4-27.9 16.1c-1.9 1.1-1.9 3.8 0 4.9l13.6 7.9 32.1-18.5 32.1 18.5 13.6-7.9c2-1.1 2-3.8.1-4.9z" class="st0"/><path d="M363 108.3v85.8c0 2.2 2.3 3.5 4.2 2.4l12.2-7.1c.9-.5 1.4-1.4 1.4-2.4V98L363 108.3zm-35 111l11.5-6.6c1.3-.8 2.1-2.1 2.1-3.7v-88.3L323.8 131v85.8c0 2.2 2.3 3.5 4.2 2.5zm-43.5 25.1l16.4-9.5c.9-.5 1.4-1.4 1.4-2.4v-89.1l-17.9 10.3v90.7zm-80.7-9.5l16.4 9.5v-90.7l-17.8-10.3v89.1c0 1 .5 1.9 1.4 2.4zm-38.6-22.3l11.5 6.6c1.9 1.1 4.2-.3 4.2-2.4V131l-17.8-10.3V209c0 1.5.8 2.9 2.1 3.6zM126 189.9l11.5 6.6c1.9 1.1 4.2-.3 4.2-2.4v-85.8L123.9 98v88.3c0 1.5.8 2.9 2.1 3.6z" class="st0"/><path d="M380.9 60.9L363 50.6l-32.1 18.5-21.4-12.4 27.9-16.1c1.9-1.1 1.9-3.8 0-4.9l-11.5-6.6c-1.3-.8-2.9-.8-4.2 0l-30 17.3L270.3 34l27.8-16c1.9-1.1 1.9-3.8 0-4.9l-11.5-6.6c-1.3-.8-2.9-.8-4.2 0l-30 17.3-30-17.3c-1.3-.8-2.9-.8-4.2 0l-11.5 6.6c-1.9 1.1-1.9 3.8 0 4.9L363 108.3 380.9 98l-32.1-18.6 32.1-18.5zm-202-31.7l-11.5 6.6c-1.9 1.1-1.9 3.8 0 4.9L323.8 131l17.9-10.3-158.6-91.5c-1.3-.8-2.9-.8-4.2 0zm-55 31.7L156 79.5 123.9 98l17.8 10.3 32.2-18.5 21.4 12.4-32.2 18.5L181 131l32.1-18.5 21.4 12.3-32.1 18.6 17.8 10.3 32.2-18.6 32.1 18.6 17.8-10.3-160.6-92.8z" class="st0"/></svg>