<svg xmlns="http://www.w3.org/2000/svg" role="img" viewBox="-6.12 -4.12 509.24 552.24"><style>svg {enable-background:new 0 0 498 543.6}</style><path d="M23.6 450.1c0 4.1.9 7.8 2.7 11.2 1.8 3.4 4.1 6.2 7 8.6 2.9 2.4 6.2 4.2 10.1 5.5 3.8 1.3 7.8 2 11.8 2 5.5 0 10.3-1.3 14.4-3.8 4.1-2.6 7.8-6 11.2-10.2l13.4 10.3c-9.9 12.8-23.7 19.1-41.4 19.1-7.4 0-14-1.3-20-3.7-6-2.5-11.1-6-15.2-10.4s-7.3-9.6-9.6-15.6c-2.2-6-3.4-12.5-3.4-19.4 0-7 1.2-13.4 3.7-19.4 2.4-6 5.8-11.2 10.1-15.6s9.4-7.9 15.3-10.4 12.4-3.7 19.3-3.7c8.3 0 15.3 1.4 21 4.3 5.7 2.9 10.4 6.7 14.1 11.3 3.7 4.7 6.3 9.9 8 15.8 1.6 5.9 2.5 11.8 2.5 17.9v6.3h-75zm56.1-14.2c-.1-3.9-.8-7.6-1.9-10.9-1.1-3.3-2.8-6.1-5-8.6-2.2-2.4-5-4.3-8.4-5.7-3.4-1.4-7.3-2.1-11.7-2.1-4.3 0-8.3.8-11.9 2.5-3.6 1.6-6.7 3.8-9.2 6.4-2.5 2.6-4.4 5.6-5.8 8.8-1.4 3.2-2.1 6.4-2.1 9.6h56zm34.3-39.1h17.8v14.4h.4c2.2-5 6.1-9 11.6-12.1 5.5-3.1 11.9-4.6 19.1-4.6 4.5 0 8.8.7 12.9 2.1 4.1 1.4 7.8 3.5 10.9 6.4 3.1 2.9 5.6 6.6 7.4 11.2 1.8 4.5 2.8 9.9 2.8 16.1v60.2h-17.8v-55.2c0-4.3-.6-8.1-1.8-11.1-1.2-3.1-2.8-5.6-4.7-7.5-2-1.9-4.2-3.3-6.8-4.1-2.6-.9-5.2-1.3-8-1.3-3.7 0-7.1.6-10.3 1.8-3.2 1.2-5.9 3.1-8.3 5.6-2.4 2.6-4.2 5.8-5.5 9.8-1.3 3.9-2 8.6-2 14v48.1H114v-93.8zm88.6 0h20.5l28 71.6 26.8-71.6h18.9l-36.7 93.5h-19.5l-38-93.5zm95.5 46.8c0-6.8 1.3-13.2 3.8-19.1 2.6-5.9 6.1-11.1 10.6-15.6s9.7-8 15.8-10.6c6-2.6 12.6-3.8 19.5-3.8 7 0 13.5 1.3 19.5 3.8 6 2.6 11.3 6.1 15.8 10.6s8 9.7 10.6 15.6c2.6 5.9 3.8 12.3 3.8 19.1 0 6.8-1.3 13.3-3.8 19.2-2.6 6-6.1 11.2-10.6 15.6s-9.7 7.9-15.8 10.5c-6.1 2.6-12.6 3.8-19.5 3.8-7 0-13.5-1.3-19.5-3.8-6.1-2.6-11.3-6.1-15.8-10.5s-8-9.6-10.6-15.6c-2.5-5.9-3.8-12.4-3.8-19.2zm19 0c0 4.7.7 9.1 2.2 13.1 1.4 4 3.5 7.4 6.1 10.3 2.6 2.8 5.9 5.1 9.7 6.7 3.8 1.6 8.1 2.5 12.8 2.5 4.7 0 9-.8 12.8-2.5 3.8-1.6 7-3.9 9.7-6.7 2.6-2.8 4.7-6.2 6.1-10.3 1.4-4 2.2-8.4 2.2-13.1 0-4.7-.7-9.1-2.2-13.1-1.5-4-3.5-7.4-6.1-10.3-2.6-2.8-5.9-5.1-9.7-6.7-3.8-1.6-8.1-2.5-12.8-2.5-4.7 0-9 .8-12.8 2.5-3.8 1.6-7 3.9-9.7 6.7-2.6 2.8-4.7 6.3-6.1 10.3-1.5 4-2.2 8.4-2.2 13.1zm81.8-46.8h20.5l27.7 73h.4l26.6-73H493l-44.4 113.7c-1.6 4.1-3.2 7.8-4.9 11.2-1.7 3.4-3.7 6.2-6.1 8.6-2.4 2.4-5.2 4.2-8.6 5.5-3.3 1.3-7.4 2-12.3 2-2.6 0-5.3-.2-8-.5s-5.3-1-7.8-2.1l2.2-16.2c3.5 1.4 7.1 2.2 10.6 2.2 2.7 0 5.1-.4 7-1.1 1.9-.7 3.5-1.8 4.9-3.2 1.4-1.4 2.5-3 3.4-4.8.9-1.8 1.8-3.9 2.7-6.3l5.7-14.8-38.5-94.2zM145.5 155.2l.6 24.8 26.1 16.2-.5-24.8zm63.8 103l-.6-24.3-22.9-14.2c-.3-.2-.6-.5-1-.7l.6 24.4 23.9 14.8zm-81.6 32.7L68 254l-1.5-62.1 29.3-12.6-.6-24.8-46.7 20.1c-3.6 1.6-5.8 4.9-5.7 8.7l1.8 74.5c.1 3.8 2.4 7.6 6.1 9.9l71.6 44.4c3.3 2.1 7.4 2.6 10.8 1.6.4-.1.7-.2 1-.4l43.9-18.9-23.8-14.8-26.5 11.3zm193-137.1c-.1-4.5-2.8-8.9-7.1-11.5l-86.9-53.9-2.7 1.2.6 26.1 68.8 42.6L295 228l26.3 16.3 1.4-.6-2-89.9z"/><path d="M216.6 276.2l-80.8-50.1-2-84 36.8-15.9-.7-28.9-57.1 24.7c-4.2 1.8-6.7 5.7-6.6 10.2l2.3 98.5c.1 4.5 2.8 8.9 7.1 11.5l94.7 58.7c3.9 2.4 8.6 3.1 12.5 1.8.4-.1.8-.3 1.2-.4l55.9-24.1-27.8-17.2-35.5 15.2z"/><path d="M443.8 84.8L322.4 9.5c-4.5-2.8-9.8-3.5-14.4-2.1-.4.1-.9.3-1.3.5L188.3 59c-4.8 2.1-7.7 6.5-7.6 11.6l3 126.3c.1 5.1 3.2 10.1 8.2 13.2l121.4 75.2c4.5 2.8 9.8 3.5 14.3 2.1.4-.1.9-.3 1.4-.5l118.4-51c4.8-2.1 7.7-6.5 7.5-11.6l-3-126.2c-.1-5.3-3.2-10.3-8.1-13.3zM320.4 257.1l-105.5-65.4L212.3 82l102.9-44.4L420.7 103l2.6 109.7-102.9 44.4z"/></svg>