<svg xmlns="http://www.w3.org/2000/svg" role="img" viewBox="-1.60 6.40 811.20 545.70"><defs><radialGradient id="a" cx="530.656" cy="3.516" r="127.064" gradientTransform="scale(1 -1) rotate(65.374 662.237 -222.484)" gradientUnits="userSpaceOnUse"><stop offset="0"/><stop offset="0" stop-color="#000505"/><stop offset="0" stop-color="#011214"/><stop offset="0" stop-color="#03282c"/><stop offset="0" stop-color="#05474f"/><stop offset="0" stop-color="#076f7b"/><stop offset="0" stop-color="#0aa0b0"/><stop offset="0" stop-color="#0ed8ee"/><stop offset=".143" stop-color="#0ed3ee"/><stop offset=".324" stop-color="#0dc3ed"/><stop offset=".526" stop-color="#0da9eb"/><stop offset=".742" stop-color="#0c85e9"/><stop offset=".967" stop-color="#0a57e6"/><stop offset="1" stop-color="#0a50e6"/></radialGradient><radialGradient id="b" cx="404.925" cy="313.225" r="216.214" gradientTransform="matrix(1 0 0 -1 0 550)" gradientUnits="userSpaceOnUse"><stop offset="0" stop-color="#0ed8ee"/><stop offset=".238" stop-color="#0ed5ee"/><stop offset=".407" stop-color="#0ecced"/><stop offset=".553" stop-color="#0dbcec"/><stop offset=".688" stop-color="#0da6eb"/><stop offset=".814" stop-color="#0c8ae9"/><stop offset=".932" stop-color="#0b67e7"/><stop offset="1" stop-color="#0a50e6"/></radialGradient></defs><path fill="#0a50e6" d="M57.23534 482.12473a3.4841 3.4841 0 0 1 .77607 2.36645v48.9592a3.37324 3.37324 0 0 1-.81469 2.36645 2.9475 2.9475 0 0 1-2.28887.89228 3.23273 3.23273 0 0 1-2.56067-1.319L20.14749 492.3277v41.12268a3.37153 3.37153 0 0 1-.8147 2.36645 2.84961 2.84961 0 0 1-2.21126.89228 2.72839 2.72839 0 0 1-2.17263-.89228 3.47636 3.47636 0 0 1-.77571-2.36645v-48.9592a3.37518 3.37518 0 0 1 .81469-2.36645 2.94484 2.94484 0 0 1 2.28887-.89231 3.308 3.308 0 0 1 2.63791 1.319L52.03675 525.614v-41.12276a3.37694 3.37694 0 0 1 .81469-2.36645 2.84963 2.84963 0 0 1 2.21126-.89231 2.72941 2.72941 0 0 1 2.17264.89225zm44.84675 46.12704a2.58786 2.58786 0 0 1 .62085 1.78461q0 1.94017-2.71552 3.56921a23.50771 23.50771 0 0 1-5.89705 2.44409 23.80345 23.80345 0 0 1-6.0519.8147q-8.76909 0-13.8498-5.19861-5.08272-5.19754-5.082-14.35406a22.5227 22.5227 0 0 1 2.24988-10.28058 16.79648 16.79648 0 0 1 6.32371-6.94458 17.46175 17.46175 0 0 1 9.272-2.4827q7.37049 0 11.71577 4.81055 4.34491 4.81164 4.34526 13.03506a3.34271 3.34271 0 0 1-.62085 2.25025 2.57835 2.57835 0 0 1-2.01743.69812h-24.9836q.69848 13.34628 12.64706 13.34552a14.82331 14.82331 0 0 0 5.19858-.8147 33.90965 33.90965 0 0 0 4.65534-2.21124 7.37746 7.37746 0 0 1 2.71552-1.16413 1.91218 1.91218 0 0 1 1.47418.69849zm-23.00525-22.65616q-2.98788 3.10428-3.53022 8.76779h21.95774q-.15632-5.74126-2.87075-8.80639a9.63022 9.63022 0 0 0-7.60368-3.06494 10.53048 10.53048 0 0 0-7.95309 3.10354zm53.88597 28.63046a2.23326 2.23326 0 0 1-.96991 1.97883 4.55386 4.55386 0 0 1-2.90971.50427l-2.09466-.15521q-6.20856-.46564-9.15583-3.72443-2.94961-3.25845-2.94834-9.85394v-19.475h-5.19859a2.97219 2.97219 0 0 1-2.056-.65949 2.22307 2.22307 0 0 1-.73709-1.7456 2.44152 2.44152 0 0 1 .73709-1.86221 2.86868 2.86868 0 0 1 2.056-.69846h5.19859v-8.76743a3.01172 3.01172 0 0 1 .85368-2.28888 3.2296 3.2296 0 0 1 2.32748-.8147 3.12423 3.12423 0 0 1 2.25025.8147 3.01694 3.01694 0 0 1 .85331 2.28888v8.76742h8.61258a2.76088 2.76088 0 0 1 1.97843.69846 2.44546 2.44546 0 0 1 .73709 1.86221 2.22665 2.22665 0 0 1-.73709 1.7456 2.85769 2.85769 0 0 1-1.97843.65949h-8.61258V523.286q0 4.26783 1.746 6.16852a7.47773 7.47773 0 0 0 5.23722 2.13367l2.095.15521q2.71463.23283 2.71551 2.48267zm61.68351-36.31176a3.1914 3.1914 0 0 1 2.09466.77569 2.42449 2.42449 0 0 1 .93128 1.93982 3.31883 3.31883 0 0 1-.23282 1.16373l-12.87988 32.58774a3.71267 3.71267 0 0 1-1.358 1.59076 3.54893 3.54893 0 0 1-1.97843.58184 3.41794 3.41794 0 0 1-1.90084-.58184 3.70529 3.70529 0 0 1-1.35794-1.59076l-10.70724-27.23392-10.63 27.23392a3.18006 3.18006 0 0 1-1.319 1.59076 3.69124 3.69124 0 0 1-5.3538-1.59082l-12.87989-32.51014a3.16483 3.16483 0 0 1-.23245-1.08615 2.61049 2.61049 0 0 1 1.04715-2.095 3.54925 3.54925 0 0 1 2.28923-.85333 2.69473 2.69473 0 0 1 2.63791 1.86221l10.6297 28.63059 10.94041-28.39768a3.64752 3.64752 0 0 1 1.28-1.55179 3.09569 3.09569 0 0 1 1.746-.54324 3.22143 3.22143 0 0 1 1.82323.54324 3.17858 3.17858 0 0 1 1.20273 1.55179l10.94006 28.32 10.70725-28.47528a2.64461 2.64461 0 0 1 2.56068-1.86214zm17.65107 36.54461a16.02146 16.02146 0 0 1-6.28471-6.86657 25.366 25.366 0 0 1 0-20.71637 16.03357 16.03357 0 0 1 6.28471-6.86658 18.19814 18.19814 0 0 1 9.42728-2.40546 18.40992 18.40992 0 0 1 9.4659 2.40546 15.96261 15.96261 0 0 1 6.32333 6.86658 25.366 25.366 0 0 1 0 20.71637 15.95051 15.95051 0 0 1-6.32333 6.86657 18.39964 18.39964 0 0 1-9.4659 2.40546 18.1875 18.1875 0 0 1-9.42728-2.40546zm18.00086-6.47857q2.98568-3.68474 2.987-10.74622 0-6.90482-3.026-10.66861a11.56025 11.56025 0 0 0-16.332-.73758q-.38524.352-.73758.73758-3.02613 3.76452-3.026 10.66861 0 6.983 2.987 10.70722 2.98624 3.72455 8.574 3.72442 5.586 0 8.57353-3.68542zm41.54901-27.58335a2.75759 2.75759 0 0 1-.69846 1.97879 3.70778 3.70778 0 0 1-2.40509.89231l-2.32785.23245q-5.19909.46559-7.72027 3.68579a11.9082 11.9082 0 0 0-2.52167 7.5647v18.85455a2.988 2.988 0 0 1-.85332 2.32752 3.22031 3.22031 0 0 1-2.25024.77606 3.26343 3.26343 0 0 1-2.28887-.8147 2.94212 2.94212 0 0 1-.8923-2.28888v-32.74292a2.881 2.881 0 0 1 .93129-2.28885 3.297 3.297 0 0 1 2.24988-.8147 2.85892 2.85892 0 0 1 2.95213 2.76255q.00435.13175-.00342.26346V505.13a11.7827 11.7827 0 0 1 4.61637-5.19821 15.62465 15.62465 0 0 1 6.86657-2.095l1.08649-.0776q3.25841-.23292 3.25876 2.63781zm37.63037 33.44144a2.82234 2.82234 0 0 1-.8147 2.017 2.63436 2.63436 0 0 1-1.97845.8537 3.27845 3.27845 0 0 1-2.095-.93128l-20.2511-17.45758v15.28528a2.94555 2.94555 0 0 1-.89194 2.28888 3.16 3.16 0 0 1-2.21161.8147 3.26343 3.26343 0 0 1-2.28885-.8147 2.94212 2.94212 0 0 1-.8923-2.28888V484.336a2.94377 2.94377 0 0 1 .8923-2.28888 3.26343 3.26343 0 0 1 2.28885-.8147 3.1601 3.1601 0 0 1 2.21161.8147 2.94715 2.94715 0 0 1 .89194 2.28888v31.50159l18.5441-16.99234a2.856 2.856 0 0 1 4.96573 1.93981 3.09332 3.09332 0 0 1-1.08613 2.32786l-15.28533 13.65557 16.75952 14.58686a3.40058 3.40058 0 0 1 1.24136 2.48309zm36.95637 1.30945a22.74451 22.74451 0 0 1-8.496-4.694 3.56076 3.56076 0 0 1-1.16373-2.71588 3.04656 3.04656 0 0 1 .62048-1.90082 1.81527 1.81527 0 0 1 1.47455-.8147 3.75631 3.75631 0 0 1 2.17227.85333 26.14913 26.14913 0 0 0 16.44907 5.58661q6.672 0 10.242-2.5603a8.44133 8.44133 0 0 0 3.56884-7.29364 5.8591 5.8591 0 0 0-1.70663-4.38391 12.33782 12.33782 0 0 0-4.50049-2.67688 68.02722 68.02722 0 0 0-7.52609-2.09467 73.23236 73.23236 0 0 1-10.43579-3.10354 16.24743 16.24743 0 0 1-6.59516-4.65534 11.95223 11.95223 0 0 1-2.52166-7.91412 14.06726 14.06726 0 0 1 2.52166-8.26352 16.321 16.321 0 0 1 7.06079-5.58627 25.68721 25.68721 0 0 1 10.35819-1.97879 30.04308 30.04308 0 0 1 10.12537 1.66836 21.33916 21.33916 0 0 1 7.87548 4.77158 3.787 3.787 0 0 1 1.24137 2.71588 3.04917 3.04917 0 0 1-.62085 1.90082 1.81749 1.81749 0 0 1-1.47418.81469 4.71727 4.71727 0 0 1-2.25025-.85366 26.41548 26.41548 0 0 0-7.06042-4.34491 22.06812 22.06812 0 0 0-7.83649-1.24137q-6.44137 0-10.00913 2.67691a8.822 8.822 0 0 0-3.56921 7.48746 6.87817 6.87817 0 0 0 3.14255 6.16812 31.67289 31.67289 0 0 0 9.65973 3.60819q7.05949 1.70736 11.09527 3.14218a16.63492 16.63492 0 0 1 6.71176 4.3063 10.81351 10.81351 0 0 1 2.67692 7.68128 13.42847 13.42847 0 0 1-2.5217 8.06933 16.38291 16.38291 0 0 1-7.0998 5.4314 26.63932 26.63932 0 0 1-10.47442 1.93982 35.44826 35.44826 0 0 1-11.1343-1.74594zm72.11889-6.94415a2.58776 2.58776 0 0 1 .62085 1.7846q0 1.94019-2.71552 3.56922a23.50775 23.50775 0 0 1-5.897 2.44409 23.8041 23.8041 0 0 1-6.05191.8147q-8.76911 0-13.84979-5.19861-5.08274-5.19745-5.082-14.35407a22.52283 22.52283 0 0 1 2.24988-10.28058 16.79669 16.79669 0 0 1 6.3237-6.94455 17.46181 17.46181 0 0 1 9.27207-2.48269q7.37049 0 11.71576 4.81054 4.3449 4.81161 4.34527 13.0351a3.34274 3.34274 0 0 1-.62085 2.25024 2.57827 2.57827 0 0 1-2.01742.69812h-24.98372q.69846 13.3463 12.647 13.34552a14.82351 14.82351 0 0 0 5.19857-.81469 33.91444 33.91444 0 0 0 4.65534-2.21125 7.37754 7.37754 0 0 1 2.71551-1.16412 1.912 1.912 0 0 1 1.47426.69843zm-23.00525-22.65619q-2.98792 3.10428-3.53021 8.76776h21.95773q-.15633-5.74128-2.87073-8.8064a9.63029 9.63029 0 0 0-7.6037-3.06494 10.53046 10.53046 0 0 0-7.95309 3.10355zm55.90268-5.19864a2.75762 2.75762 0 0 1-.69846 1.97882 3.708 3.708 0 0 1-2.40509.8923l-2.32785.23245q-5.19914.46564-7.72027 3.6858a11.9081 11.9081 0 0 0-2.5217 7.56466v18.85456a2.988 2.988 0 0 1-.8533 2.32751 3.22037 3.22037 0 0 1-2.25025.77606 3.26343 3.26343 0 0 1-2.28885-.8147 2.94212 2.94212 0 0 1-.8923-2.28887v-32.74292a2.88113 2.88113 0 0 1 .93127-2.28888 3.29686 3.29686 0 0 1 2.24988-.8147 2.85892 2.85892 0 0 1 2.95212 2.76251q.00435.13179-.00342.26349v4.34491a11.7828 11.7828 0 0 1 4.61636-5.19821 15.62445 15.62445 0 0 1 6.86661-2.095l1.08649-.07761q3.25836-.23291 3.25876 2.63782zm38.48404-2.56027a3.19144 3.19144 0 0 1 2.09466.77569 2.42458 2.42458 0 0 1 .93131 1.93982 2.46109 2.46109 0 0 1-.31043 1.24136l-15.12976 32.58774a3.62534 3.62534 0 0 1-1.39694 1.59076 3.73836 3.73836 0 0 1-2.01706.58185 3.60889 3.60889 0 0 1-1.93982-.58185 4.15239 4.15239 0 0 1-1.47418-1.59076l-15.05252-32.58774a2.29848 2.29848 0 0 1-.31043-1.16372 2.54047 2.54047 0 0 1 1.04752-2.01743 3.54912 3.54912 0 0 1 2.28885-.8533 2.80356 2.80356 0 0 1 1.51315.46564 2.97623 2.97623 0 0 1 1.12512 1.319l12.95749 29.0961 12.95712-28.94092a2.83513 2.83513 0 0 1 2.71592-1.86224zm10.86172-9.3107a3.7415 3.7415 0 0 1-1.16373-2.8711 3.6525 3.6525 0 0 1 1.16373-2.79312 4.75871 4.75871 0 0 1 6.05228 0 3.65246 3.65246 0 0 1 1.16372 2.79312 3.74145 3.74145 0 0 1-1.16372 2.8711 4.75871 4.75871 0 0 1-6.05228 0zm.73709 47.36843a2.94212 2.94212 0 0 1-.8923-2.28887v-32.74292a2.94376 2.94376 0 0 1 .8923-2.28888 3.26164 3.26164 0 0 1 2.28885-.8147 3.12421 3.12421 0 0 1 2.25025.8147 3.01617 3.01617 0 0 1 .8533 2.28888v32.74292a2.988 2.988 0 0 1-.8533 2.32751 3.22037 3.22037 0 0 1-2.25025.77606 3.26343 3.26343 0 0 1-2.28885-.8147zm24.13034-1.43554a16.07063 16.07063 0 0 1-6.28473-6.828 24.61256 24.61256 0 0 1 .07764-20.56115 16.91155 16.91155 0 0 1 6.401-6.98319 17.9589 17.9589 0 0 1 9.46625-2.48269 21.62835 21.62835 0 0 1 5.85773.81469 16.16955 16.16955 0 0 1 5.08233 2.36646 6.90528 6.90528 0 0 1 1.97846 1.82321 3.54748 3.54748 0 0 1 .58185 1.97879 2.69238 2.69238 0 0 1-.58185 1.78461 1.87742 1.87742 0 0 1-1.51313.69809 2.6098 2.6098 0 0 1-1.16375-.31043 7.25519 7.25519 0 0 1-1.04749-.62051 5.58514 5.58514 0 0 0-.58185-.388 25.0722 25.0722 0 0 0-3.84063-2.095 11.41562 11.41562 0 0 0-4.46149-.7757 10.7419 10.7419 0 0 0-8.8064 3.84064q-3.14208 3.84045-3.14215 10.66861 0 6.82836 3.14215 10.552 3.14265 3.72454 8.8064 3.72443a11.98418 11.98418 0 0 0 4.53912-.77607 20.84465 20.84465 0 0 0 3.84064-2.09466 18.547 18.547 0 0 1 1.6294-.93128 3.08426 3.08426 0 0 1 1.319-.388 1.79946 1.79946 0 0 1 1.43554.69849 2.69419 2.69419 0 0 1 .58185 1.78461 3.217 3.217 0 0 1-.54327 1.82324 7.5912 7.5912 0 0 1-2.01709 1.82361 18.45494 18.45494 0 0 1-5.23755 2.36645 22.00992 22.00992 0 0 1-6.16815.89228 18.03375 18.03375 0 0 1-9.34983-2.40553zm62.41986-6.20709a2.58776 2.58776 0 0 1 .62085 1.7846q0 1.94019-2.71551 3.56922a23.50756 23.50756 0 0 1-5.897 2.44409 23.80374 23.80374 0 0 1-6.05188.8147q-8.769 0-13.84979-5.19861-5.08274-5.19745-5.082-14.35407a22.52308 22.52308 0 0 1 2.24988-10.28058 16.79671 16.79671 0 0 1 6.32373-6.94455 17.46169 17.46169 0 0 1 9.272-2.48269q7.37046 0 11.71576 4.81054 4.34492 4.81161 4.34528 13.0351a3.34274 3.34274 0 0 1-.62085 2.25024 2.57823 2.57823 0 0 1-2.0174.69812H561.3927q.69846 13.3463 12.647 13.34552a14.82369 14.82369 0 0 0 5.19861-.81469 33.91832 33.91832 0 0 0 4.65534-2.21125 7.37754 7.37754 0 0 1 2.71551-1.16412 1.91231 1.91231 0 0 1 1.47421.69843zm-23.00525-22.65619q-2.98782 3.10428-3.53021 8.76776h21.95771q-.15629-5.74128-2.87073-8.8064a9.63031 9.63031 0 0 0-7.6037-3.06494 10.53057 10.53057 0 0 0-7.95307 3.10355zm102.94867-23.47092a3.37694 3.37694 0 0 1 .8147 2.36649v49.11438a3.21742 3.21742 0 0 1-.77606 2.24987 2.78826 2.78826 0 0 1-2.17224.8537 2.54906 2.54906 0 0 1-2.095-.8537 3.44 3.44 0 0 1-.69849-2.24987V493.909l-16.8367 32.27728a3.42985 3.42985 0 0 1-3.18115 2.25024 3.53047 3.53047 0 0 1-3.18115-2.25024L622.98584 494.297v39.2605a3.321 3.321 0 0 1-.73706 2.24987 2.66771 2.66771 0 0 1-2.13367.8537 2.78759 2.78759 0 0 1-2.17267-.8537 3.21379 3.21379 0 0 1-.77569-2.24987v-49.11438a3.27945 3.27945 0 0 1 .85333-2.36649 3.07145 3.07145 0 0 1 2.32782-.8923 3.49112 3.49112 0 0 1 3.10358 2.25024l19.70782 37.78595 19.475-37.78595a4.50306 4.50306 0 0 1 1.3576-1.746 3.01928 3.01928 0 0 1 1.746-.50427 2.9474 2.9474 0 0 1 2.28889.89233zm44.96228 46.12711a2.58776 2.58776 0 0 1 .62085 1.7846q0 1.94019-2.71551 3.56922a23.50816 23.50816 0 0 1-5.897 2.44409 23.80386 23.80386 0 0 1-6.05188.8147q-8.769 0-13.8498-5.19861-5.08272-5.19745-5.082-14.35407a22.52321 22.52321 0 0 1 2.24988-10.28058 16.79671 16.79671 0 0 1 6.32373-6.94455 17.462 17.462 0 0 1 9.272-2.48269q7.37054 0 11.71576 4.81054 4.345 4.81161 4.34527 13.0351a3.34274 3.34274 0 0 1-.62085 2.25024 2.57821 2.57821 0 0 1-2.01739.69812h-24.98379q.69846 13.3463 12.647 13.34552a14.82369 14.82369 0 0 0 5.19861-.81469 33.91832 33.91832 0 0 0 4.65534-2.21125 7.37754 7.37754 0 0 1 2.71551-1.16412 1.912 1.912 0 0 1 1.47427.69843zm-23.00524-22.65619q-2.98784 3.10428-3.53022 8.76776h21.95771q-.15629-5.74128-2.87073-8.8064a9.63031 9.63031 0 0 0-7.6037-3.06494 10.53054 10.53054 0 0 0-7.95306 3.10355zm39.88024 30.41504a20.64612 20.64612 0 0 1-5.70288-2.40509 7.63607 7.63607 0 0 1-1.97845-1.746 3.31305 3.31305 0 0 1-.58185-1.97845 2.42976 2.42976 0 0 1 .58185-1.668 1.92556 1.92556 0 0 1 1.51318-.65985 5.79087 5.79087 0 0 1 2.71552 1.16412 25.83713 25.83713 0 0 0 4.61633 2.21124 17.16847 17.16847 0 0 0 5.70282.8147 12.16 12.16 0 0 0 6.51758-1.47418 4.75034 4.75034 0 0 0 2.32782-4.2677 4.22611 4.22611 0 0 0-.8537-2.75415 7.0588 7.0588 0 0 0-2.94836-1.86218 41.99445 41.99445 0 0 0-6.12952-1.6684q-6.82847-1.47289-9.77631-3.95685a8.35851 8.35851 0 0 1-2.94836-6.75036 9.76708 9.76708 0 0 1 1.86218-5.8967 12.5298 12.5298 0 0 1 5.15961-4.03485 18.17645 18.17645 0 0 1 7.48749-1.47419 21.08335 21.08335 0 0 1 5.858.8147 17.45176 17.45176 0 0 1 5.00439 2.28885q2.63709 1.86195 2.63831 3.87964a2.479 2.479 0 0 1-.62085 1.707 1.91357 1.91357 0 0 1-1.47418.69809 5.7896 5.7896 0 0 1-2.79316-1.319 24.66864 24.66864 0 0 0-4.11242-2.17264 13.03862 13.03862 0 0 0-4.81055-.77569 9.64716 9.64716 0 0 0-5.85809 1.62939 5.1323 5.1323 0 0 0-2.21124 4.34491 4.3626 4.3626 0 0 0 .81469 2.75452 6.73127 6.73127 0 0 0 2.71588 1.86218 31.6016 31.6016 0 0 0 5.47 1.59039 39.09156 39.09156 0 0 1 8.18555 2.56067 9.51927 9.51927 0 0 1 4.15106 3.414 9.63924 9.63924 0 0 1 1.24134 5.12061 9.28657 9.28657 0 0 1-4.11206 7.87549q-4.11375 2.98791-10.8628 2.9873a26.40259 26.40259 0 0 1-6.78882-.85352zm61.25684-34.64377q3.41364 3.7645 3.414 11.21188v21.0268a3.01583 3.01583 0 0 1-.85333 2.28887 3.1257 3.1257 0 0 1-2.25024.8147 3.231 3.231 0 0 1-2.32752-.8147 3.01063 3.01063 0 0 1-.8537-2.28887v-20.87159q.00009-5.04285-2.056-7.44885-2.05654-2.40417-6.55652-2.40509a11.0664 11.0664 0 0 0-8.30182 3.18118 11.80436 11.80436 0 0 0-3.10394 8.61222v18.93213a2.83128 2.83128 0 0 1-3.10358 3.10357 3.23115 3.23115 0 0 1-2.32745-.8147 3.01063 3.01063 0 0 1-.8537-2.28887v-49.34723a2.8772 2.8772 0 0 1 .89228-2.17228 3.17625 3.17625 0 0 1 2.28887-.85366 3.096 3.096 0 0 1 2.28888.81469 2.98784 2.98784 0 0 1 .8147 2.21125V504.539a12.59405 12.59405 0 0 1 5.19861-5.19858 15.87178 15.87178 0 0 1 7.60406-1.7846q6.67197-.00004 10.0864 3.763z"/><path fill="none" d="M374.97 419.38l104.45-12.548-35.161-45.04-42.246-.776-27.043 58.364zm88.26426-279.30925l2.26276-38.25733a14.18366 14.18366 0 0 1-5.96924-3.84053l-108.27527 7.91993 25.06917 18.5997 29.32932-13.46666zM266.71413 348.70016q-.60257-.19381-1.183-.433c-.24473-.0982-.48367-.20559-.72225-.31524q-.15351-.0721-.30527-.147a16.11207 16.11207 0 0 1-9.077-13.85086l-43.97047-22.067 47.89547 65.60354a14.37741 14.37741 0 0 1 1.93407-1.01364l5.68454-27.68808c-.08-.02426-.15644-.05627-.23591-.08169zM285.388 324.643l28.595-3.793-16.528-21.524-12.067 25.317zm-9.054 24.14807l-4.96345 27.26562a14.43958 14.43958 0 0 1 9.37332 17.90088l70.47664 34.89267a16.444 16.444 0 0 1 4.10381-6.14947l-75.1742-75.65027a16.0251 16.0251 0 0 1-3.81612 1.74057zm234.55584-170.39133l41.36926-10.77894a14.40581 14.40581 0 0 1 1.51575-3.05738L475.961 101.13875l-3.26212 43.70591 34.852 17.57922zm-4.80749 125.71283l34.84484-2.36734c-.00518-.1618-.02441-.31988-.02441-.48294a14.97792 14.97792 0 0 1 4.5285-10.74273l-14.58261-16.62531.051.24423zm-160.06788-190.7437a13.87624 13.87624 0 0 1-4.92889 2.34321l-3.10385 26.3843 28.87956-13.26013zm207.85114 171.16338l9.4498-97.43219a13.60211 13.60211 0 0 1-10.92017-7.95784l-39.44717 9.10512 13.80261 66.03946zM382.09919 429.21224a16.385 16.385 0 0 1 .9435 5.4487c0 .24839-.02628.49-.03717.73569l54.54326-.0564 41.21038-14.74194a15.42818 15.42818 0 0 1-.501-3.678zM476.8216 89.60811l-.00287.03839c.18793-.12725.21155-.15467.00287-.03839zm-6.89535-15.47096a14.18848 14.18848 0 0 1 13.21621 9.04268L540.295 98.4273l-58.98077-42.254a12.52021 12.52021 0 0 1-20.57323-9.5918l.00164-.033-77.325-8.39065c-.03778.29888-.07935.5966-.1357.88933L461.73341 76.753a14.115 14.115 0 0 1 8.19284-2.61585zm-256.067 228.59252l44.5886 21.1452a16.19882 16.19882 0 0 1 2.22767-2.49393l-35.51091-101.09065-17.14215 68.57427a13.44441 13.44441 0 0 1 5.83679 13.86508zM580.33167 172.496a14.41553 14.41553 0 0 1-1.15628 5.67128l19.28061 29.79765-22.74121-70.48668-.96564 23.61693a14.42819 14.42819 0 0 1 5.58252 11.40082zM468.10459 94.73512l-.166-.13527c-.15135.18656-.07231.21615.166.13527zm-117.36093 1.992l105.00165-8.67869a14.16593 14.16593 0 0 1 .50589-3.47843l-78.06888-37.19675a13.75951 13.75951 0 0 1-11.02832 2.75259l-19.90762 41.65183a13.61757 13.61757 0 0 1 3.49728 4.94945zm-115.13499 90.52206l88.68394-81.14656a13.93815 13.93815 0 0 1-.54677-3.52674L274.412 88.868a13.63167 13.63167 0 0 1-10.15992 10.034l-29.54316 87.858c.30863.14917.60476.31795.89975.48918zm-20.41487 11.74993a13.60823 13.60823 0 0 1 9.08654-12.7926l.10307-.41236.10375.348c.29644-.10039.59331-.199.898-.27922l24.99694-74.33957-41.38718 60.72264a13.50616 13.50616 0 0 1-4.08788 23.39076l.14251 67.49692 13.74472-54.98123a13.53215 13.53215 0 0 1-3.60047-9.15334zM337.50042 88.24295l21.00624-43.3827a13.94035 13.94035 0 0 1-1.43257-2.30731l-79.06348 37.84918 48.48622 13.46764a13.9177 13.9177 0 0 1 11.00359-5.62681zm144.90458 6.3569l80.24539 63.80059a14.47974 14.47974 0 0 1 2.89279-.35455l1.265-26.78839a14.35326 14.35326 0 0 1-13.13639-15.47475q.04707-.576.14038-1.14687zm66.922 220.14758l-46.833 89.27148a15.51173 15.51173 0 0 1 2.47537 2.14875l54.60586-38.49512a13.52945 13.52945 0 0 1 6.18793-14.238l-10.58142-37.17987a14.92624 14.92624 0 0 1-5.85474-1.50724zm-265.29795-83.80196l-46.45272-21.58618a13.52072 13.52072 0 0 1-5.32615 2.7796l36.74558 105.23961a15.66134 15.66134 0 0 1 9.40655 1.33533c.03334.01541.06906.026.10228.04169l12.85-27.37336-16.85608-21.9519zm44.24586-84.39218l3.72054-31.6257c-.36818-.16472-.73-.34026-1.08057-.53509l-89.38078 79.79838a12.75159 12.75159 0 0 1 .67248 7.25542l44.0576 20.47334 15.66882-63.27139zM321.5893 330.757l-33.7998 4.767c.00006.01739.00261-2.19153.00261-2.1741a4.33977 4.33977 0 0 1-.23548 1.75732 16.05926 16.05926 0 0 1-.63858 3.04471l77.15664 78.34882 26.59731-55.69296-46.66573-.8569zm175.83359-16.18575l-39.30737 47.475-.611-.0112 31.39291 40a15.34483 15.34483 0 0 1 3.21551-.68976l48.10465-89.6449zm73.43628-15.02133a15.14646 15.14646 0 0 1 .10428 1.71234c0 5.32852-1.99652 8.2861-4.96845 11.67035l7.664 31.9404 28.23861-84.55176-31.279 37.33338a14.05622 14.05622 0 0 1 .24056 1.89529zm24.87583-60.07216a13.561 13.561 0 0 1 5.312-10.71883l-28.20737-43.59028c-.09552.05269-.19425.09953-.291.1501l-9.528 102.69012c.11044.05909.21551.1254.32425.18729l36.221-39.28593a13.56242 13.56242 0 0 1-3.83088-9.43247z"/><path fill="url(#a)" d="M478.70606 186.78539l32.18378-8.38565-3.339-15.97586-34.852-17.57922-2.623 35.14337a15.04941 15.04941 0 0 1 8.63022 6.79736zm-63.06245 144.81293L402.0129 361.016l42.24571.77572-24.17379-30.96588a16.09141 16.09141 0 0 1-4.44121.77248zm81.77928-17.02707l-66.61093 4.4686a16.03816 16.03816 0 0 1-2.54874 5.73657l29.2414 37.25861.611.0112zM452.7982 203.13542L335.51226 239.9918c-.08609 2.26137-.73509 3.24963-1.79613 5.09975l74.4301 55.84677a16.04322 16.04322 0 0 1 6.93428-1.58283c.385 0 .76212.0311 1.1404.05762L455.32206 205.68a13.6819 13.6819 0 0 1-2.52386-2.54458zm12.95291 6.27474c-.50131 0-.99607-.027-1.48471-.0749l-39.21761 93.48389a16.16989 16.16989 0 0 1 4.926 6.46411l76.10758-5.17072 24.81738-29.97415-.051-.24423-58.08722-66.22382a14.95452 14.95452 0 0 1-7.01042 1.73982zm13.39089-8.22848l47.60858 53.10515-13.80258-66.03946-32.23239 7.43979a14.91434 14.91434 0 0 1-1.57361 5.49452zm-18.27993-21.00295l2.37216-40.108-57.58323-29.04489-29.32934 13.46666 79.28226 58.82231a14.998 14.998 0 0 1 5.25815-3.13608zM399.5352 319.76406l-77.9459 10.993 22.417 29.19385 46.66572.8569 15.28758-32.01107a16.14741 16.14741 0 0 1-6.4244-9.03268zm-66.77097-88.46988l117.28424-36.86084a13.4652 13.4652 0 0 1 .59946-3.43127l-83.78664-62.16582-28.87956 13.26015-10.02487 85.21684a13.64932 13.64932 0 0 1 4.80737 3.98094zm-13.86101-5.0793l9.37168-79.66157-26.3419 12.09494-15.66884 63.27139 23.77126 11.04636a13.61111 13.61111 0 0 1 8.8678-6.75112zm81.76056 82.0595l-73.194-56.36714a12.82444 12.82444 0 0 1-7.87187.964l-22.1433 46.455 16.52758 21.524 86.1526-11.42624c.15953-.39251.34021-.7731.52899-1.14962zm-92.03386-65.89708l-24.60087-11.43183-9.53055 38.48479 16.85611 21.9519 20.24339-43.12269a13.52694 13.52694 0 0 1-2.96808-5.88217z"/><path fill="url(#b)" d="M614.09876 226.74455L581.19318 124.7423l-.5498-.71454a14.43725 14.43725 0 0 0-16.42429-21.09848l-78.44223-56.63845a12.5053 12.5053 0 0 0-21.89376-7.98668l-82.289-9.11977c-.09645-.13526-.2104-.25623-.3116-.38784a13.93808 13.93808 0 0 0-24.794 2.80923l-87.354 42.99388a13.56743 13.56743 0 0 0-18.1964 19.90322l-50.92661 74.72143a13.57607 13.57607 0 0 0-4.22611 26.32608l.19508 91.85058a13.59521 13.59521 0 0 0 4.50431 26.43464c.35036 0 .679-.0774 1.02289-.10346l51.85845 71.03381a14.42771 14.42771 0 0 0 19.75962 18.06571l78.54727 38.79193a1.67754 1.67754 0 0 0 .20012.34512 16.42247 16.42247 0 0 0 26.21405 4.44864c.12364.0127.23572.037.36466.04434h60.67982l46.83235-16.38314a15.416 15.416 0 0 0 23.14374-12.48209l56.75964-41.02046a13.562 13.562 0 0 0 17.20248-20.618l31.294-103.82936a13.57385 13.57385 0 0 0-.265-25.38411zm-38.38394-89.2663l22.74118 70.48668-19.28064-29.79764a14.44861 14.44861 0 0 0-4.42624-17.07213zm-8.90655-6.22073l-1.265 26.78839a14.47828 14.47828 0 0 0-2.89279.35455l-80.24539-63.8006 71.40716 20.036a14.35327 14.35327 0 0 0 11.84916 16.48121q.57036.09327 1.14685.1404zM383.41769 38.15787l77.325 8.39065-.00164.033a12.52021 12.52021 0 0 0 20.57321 9.59173L540.295 98.4273l-57.15254-15.24746a14.16608 14.16608 0 0 0-21.409-6.42682L383.282 39.04725c.05634-.29278.09791-.5905.13569-.88938zm93.401 51.48862l.00287-.03839c.20872-.11627.1851-.08885-.00286.03839zm-8.71411 5.08863c-.23834.08085-.31738.05129-.166-.13527zM367.154 50.12582a13.75954 13.75954 0 0 0 11.02835-2.75257L456.2512 84.57a14.16593 14.16593 0 0 0-.50589 3.47843l-105.00165 8.67869a13.6172 13.6172 0 0 0-3.49728-4.94946zm-10.07986-7.57293a13.93969 13.93969 0 0 0 1.43257 2.30731l-21.00629 43.38275a13.9177 13.9177 0 0 0-11.00359 5.62681l-48.48622-13.46764zM264.25211 98.902A13.63168 13.63168 0 0 0 274.412 88.868l49.33386 13.70786a13.93822 13.93822 0 0 0 .54677 3.52674l-88.684 81.14655c-.295-.17123-.59112-.34-.89975-.48921zm-59.345 96.73475a13.50616 13.50616 0 0 0 4.08787-23.39078l41.38722-60.72254-24.997 74.33957c-.30472.08018-.60159.17883-.898.27922l-.10375-.348-.10307.41236a13.50807 13.50807 0 0 0-5.48607 21.94589l-13.74476 54.9812zm3.11541 93.22785l17.14209-68.57427 35.51091 101.09065a16.19882 16.19882 0 0 0-2.22767 2.49393l-44.5886-21.1452a13.44441 13.44441 0 0 0-5.8368-13.86508zm53.26322 87.61236a14.3779 14.3779 0 0 0-1.93406 1.01364l-47.89557-65.6036 43.97047 22.067a16.11206 16.11206 0 0 0 9.077 13.85086q.1517.07521.30527.147c.23858.10965.47752.217.72225.31524q.58056.23877 1.183.433l.0202.007c.07947.02542.15589.05743.23591.08169zm89.93477 52.37332l-70.47664-34.89267a14.43959 14.43959 0 0 0-9.37332-17.90088l4.96344-27.26562a16.02481 16.02481 0 0 0 3.81613-1.74057l75.1742 75.65027a16.444 16.444 0 0 0-4.10381 6.14943zm86.32827 6.49l-54.54326.0564c.01089-.2457.03717-.48733.03717-.73569a16.38479 16.38479 0 0 0-.9435-5.4487l96.159-12.292a15.42818 15.42818 0 0 0 .501 3.678zm54.56417-33.995a15.34483 15.34483 0 0 0-3.21551.68976l-31.39291-40-13.24592-.24326 35.161 45.04016-104.44971 12.5483 27.043-58.36419-11.34092-.20823-26.59733 55.69291-77.15665-78.34882a16.05928 16.05928 0 0 0 .63859-3.04471 4.33993 4.33993 0 0 0 .23547-1.75732c0-.0174-.00255 2.1915-.00261 2.1741l33.79981-4.76691-7.60711-9.90683-28.595 3.79251 12.06746-25.31655-6.1-7.944-12.85 27.37335c-.03321-.01563-.06893-.02628-.10227-.04169a15.66135 15.66135 0 0 0-9.40655-1.33533l-36.74561-105.23964a13.52072 13.52072 0 0 0 5.32615-2.7796l46.45272 21.58617 2.23513-9.02582-44.05757-20.47334a12.75177 12.75177 0 0 0-.67248-7.25542l89.38077-79.79837c.35052.19483.71238.37037 1.08056.53509l-3.72053 31.62569 9.70681-4.45691 3.10386-26.3843a13.87641 13.87641 0 0 0 4.92889-2.34321l20.8468 15.46738 9.4604-4.34373-25.06916-18.59969 108.27525-7.91994a14.18357 14.18357 0 0 0 5.96924 3.84053l-2.26276 38.25734 9.4646 4.77391 3.26212-43.70591 77.8139 63.42469a14.40581 14.40581 0 0 0-1.51575 3.05738l-41.36929 10.77891 2.0582 9.84763 39.44717-9.1051a13.60211 13.60211 0 0 0 10.92017 7.95784l-9.44977 97.43214-27.115-30.24542 4.098 19.60736 14.58264 16.62533a14.97791 14.97791 0 0 0-4.52844 10.74274c0 .16306.01923.32114.02441.48294l-34.84484 2.36737-8.65949 10.45871 42.79474-2.87088zm67.1897-36.36813a13.63188 13.63188 0 0 0 .27258 2.69546l-54.60583 38.49505a15.51374 15.51374 0 0 0-2.47537-2.14875l46.833-89.27148a14.9262 14.9262 0 0 0 5.85473 1.50723l10.58148 37.17984a13.59413 13.59413 0 0 0-6.46057 11.54257zm4.04205-76.78092c-.10873-.06189-.2138-.1282-.32424-.18729l9.528-102.69012c.0968-.05057.1955-.09741.291-.1501l28.20748 43.59028a13.4965 13.4965 0 0 0-1.48126 20.15129zm10.31424 56.67677l-7.66394-31.9404c2.97193-3.38422 4.96845-6.3418 4.96845-11.67035a15.14646 15.14646 0 0 0-.10428-1.71234 14.05134 14.05134 0 0 0-.2406-1.89532l31.279-37.33338z"/></svg>