<svg version="1.1" id="Layer_1" xmlns="http://www.w3.org/2000/svg" x="0" y="0" viewBox="0 0 296.4 246.1"
    style="enable-background:new 0 0 296.4 246.1" xml:space="preserve">
    <style>
        .st0 {
            fill: #446ca9
        }

        .st1 {
            fill: #375194
        }

        .st2 {
            fill: #5b7db3
        }

        .st3 {
            fill: #303f7f
        }
    </style>
    <path class="st0"
        d="M61.3 223.7h1.8l7.6 16.8h-2l-2-4.4h-9.1l-2 4.4h-1.9l7.6-16.8zm4.7 10.7-3.8-8.5-3.8 8.5H66zm8.9-10.6h1.9l6.1 9.1 6.1-9.1h1.9v16.7H89V227l-6.1 8.9h-.1l-6.1-8.9v13.5h-1.8v-16.7zm21.6 0h7.1c1.9 0 3.4.5 4.4 1.5.7.7 1.1 1.6 1.1 2.7 0 2.2-1.3 3.3-2.6 3.9 2 .6 3.6 1.7 3.6 4 0 2.9-2.4 4.5-6 4.5h-7.4v-16.6h-.2zm10.6 4.4c0-1.6-1.3-2.7-3.7-2.7h-5.1v5.7h4.9c2.4 0 3.9-1 3.9-3zm-3.5 4.7h-5.3v5.9h5.6c2.5 0 4.1-1.1 4.1-3 .1-1.9-1.5-2.9-4.4-2.9zm16.9-9.2h1.8l7.6 16.8h-2l-2-4.4h-9.1l-2 4.4h-1.9l7.6-16.8zm4.7 10.7-3.8-8.5-3.8 8.5h7.6zm7.5 3.6 1.2-1.4c1.7 1.6 3.4 2.4 5.7 2.4 2.2 0 3.7-1.2 3.7-2.8 0-1.5-.8-2.4-4.3-3.2-3.8-.8-5.6-2.1-5.6-4.8 0-2.6 2.3-4.5 5.5-4.5 2.4 0 4.2.7 5.9 2l-1.1 1.5c-1.5-1.3-3.1-1.8-4.8-1.8-2.2 0-3.5 1.2-3.5 2.7 0 1.6.9 2.5 4.5 3.2 3.7.8 5.4 2.2 5.4 4.7 0 2.9-2.4 4.7-5.7 4.7-2.7 0-4.9-.9-6.9-2.7zm15.9 0 1.2-1.4c1.7 1.6 3.4 2.4 5.7 2.4 2.2 0 3.7-1.2 3.7-2.8 0-1.5-.8-2.4-4.3-3.2-3.8-.8-5.6-2.1-5.6-4.8 0-2.6 2.3-4.5 5.5-4.5 2.4 0 4.2.7 5.9 2l-1.1 1.5c-1.5-1.3-3.1-1.8-4.8-1.8-2.2 0-3.5 1.2-3.5 2.7 0 1.6.9 2.5 4.5 3.2 3.7.8 5.4 2.2 5.4 4.7 0 2.9-2.4 4.7-5.7 4.7-2.7 0-4.9-.9-6.9-2.7zm23.1-14.3h1.8l7.6 16.8h-2l-2-4.4H168l-2 4.4h-1.9l7.6-16.8zm4.6 10.7-3.8-8.5-3.8 8.5h7.6zm9-10.6h5.8c5.2 0 8.8 3.6 8.8 8.3s-3.6 8.3-8.8 8.3h-5.8v-16.6zm1.9 1.7v13.2h3.9c4.2 0 6.9-2.9 6.9-6.5 0-3.7-2.7-6.6-6.9-6.6l-3.9-.1zm16.9 6.7c0-4.6 3.4-8.7 8.5-8.7s8.5 4 8.5 8.6-3.4 8.6-8.5 8.6-8.5-3.9-8.5-8.5zm15 0c0-3.8-2.8-6.9-6.6-6.9s-6.5 3-6.5 6.8 2.8 6.9 6.6 6.9 6.5-3 6.5-6.8zm6.9-8.4h7.2c2 0 3.7.6 4.7 1.7.8.8 1.3 2 1.3 3.3 0 2.8-1.9 4.4-4.5 4.9l5.1 6.8h-2.3l-4.8-6.5h-4.8v6.5H226v-16.7zm7 8.5c2.5 0 4.3-1.3 4.3-3.4 0-2-1.6-3.3-4.3-3.3h-5.1v6.8h5.1v-.1z" />
    <g id="XMLID_1284_">
        <path id="XMLID_552_"
            d="M98.3 191.8c1.5 0 2.7-.6 3.7-1.8l2 2c-1.6 1.8-3.4 2.6-5.5 2.6s-3.9-.7-5.2-2c-1.4-1.3-2.1-3-2.1-5.1 0-2 .7-3.7 2.1-5.1 1.4-1.4 3.1-2 5.1-2 2.3 0 4.1.9 5.7 2.6l-1.9 2.2c-1-1.2-2.2-1.8-3.6-1.8-1.2 0-2.1.4-3 1.1-.8.8-1.2 1.8-1.2 3 0 1.3.4 2.3 1.2 3.1.6.8 1.6 1.2 2.7 1.2z" />
        <path id="XMLID_550_" d="M106.3 194.5v-13.7h3.1v11h5.8v2.7h-8.9z" />
        <path id="XMLID_547_"
            d="M128.6 192.6c-1.4 1.4-3.1 2-5.1 2s-3.7-.7-5.1-2c-1.4-1.4-2.1-3-2.1-5.1 0-2 .7-3.7 2.1-5.1 1.4-1.4 3.1-2 5.1-2s3.7.7 5.1 2c1.4 1.4 2.1 3 2.1 5.1s-.7 3.7-2.1 5.1zm-1-5.1c0-1.2-.4-2.3-1.2-3.1-.8-.9-1.8-1.3-2.9-1.3s-2.1.4-2.9 1.3c-.8.9-1.2 1.9-1.2 3.1 0 1.2.4 2.3 1.2 3.1.8.9 1.7 1.3 2.9 1.3 1.1 0 2.1-.4 2.9-1.3.8-.8 1.2-1.8 1.2-3.1z" />
        <path id="XMLID_545_"
            d="M136.9 190.9c.5.6 1.2 1 2.1 1 .9 0 1.5-.3 2.1-1 .5-.6.8-1.5.8-2.6v-7.6h3.1v7.7c0 2-.6 3.5-1.6 4.6-1.1 1.1-2.5 1.6-4.2 1.6s-3.1-.5-4.2-1.6-1.7-2.6-1.7-4.6v-7.7h3.1v7.6c-.2 1.1 0 2 .5 2.6z" />
        <path id="XMLID_542_"
            d="M158.5 182.6c1.3 1.2 2 2.9 2 5s-.6 3.8-1.9 5.1c-1.3 1.2-3.2 1.9-5.8 1.9h-4.7v-13.7h4.8c2.4-.1 4.3.5 5.6 1.7zm-2.2 8.1c.8-.7 1.1-1.7 1.1-3.1 0-1.3-.4-2.4-1.1-3.1-.8-.7-1.9-1.1-3.5-1.1h-1.7v8.3h1.9c1.5.1 2.5-.3 3.3-1z" />
        <path id="XMLID_540_" d="M177.9 180.8h3.1v13.7h-3.1l-6.5-8.6v8.6h-3.1v-13.7h2.9l6.7 8.8v-8.8z" />
        <path id="XMLID_537_"
            d="m194.1 194.5-1.3-3H187l-1.3 3h-3.3l5.9-13.7h3l5.9 13.7h-3.1zm-4.1-9.7-1.7 4h3.4l-1.7-4z" />
        <path id="XMLID_535_" d="M203.8 183.4v11.1h-3.1v-11.1h-3.9v-2.6h10.8v2.6h-3.8z" />
        <path id="XMLID_533_" d="M209.9 180.8h3.1v13.7h-3.1v-13.7z" />
        <path id="XMLID_531_" d="m221.4 189.5 3.5-8.7h3.3l-5.5 13.7h-2.6l-5.5-13.7h3.3l3.5 8.7z" />
        <path id="XMLID_529_" d="M239.8 180.8v2.7H233v2.8h6.1v2.6H233v2.8h7v2.7h-10.1v-13.7l9.9.1z" />
        <path id="XMLID_527_"
            d="M94.7 206.2c.8 0 1.5-.3 2.1-1l1.1 1.1c-.9 1-1.9 1.5-3.1 1.5s-2.2-.4-2.9-1.1c-.8-.7-1.1-1.7-1.1-2.8s.4-2.1 1.2-2.9c.8-.8 1.7-1.1 2.9-1.1 1.3 0 2.3.5 3.2 1.4l-1.1 1.2c-.5-.7-1.2-1-2-1-.6 0-1.2.2-1.7.6-.5.4-.7 1-.7 1.7s.2 1.3.6 1.7c.4.5.9.7 1.5.7z" />
        <path id="XMLID_524_"
            d="M105.6 206.6c-.8.8-1.7 1.1-2.9 1.1-1.1 0-2.1-.4-2.9-1.1-.8-.8-1.2-1.7-1.2-2.8s.4-2.1 1.2-2.8c.8-.8 1.7-1.1 2.9-1.1 1.1 0 2.1.4 2.9 1.1.8.8 1.2 1.7 1.2 2.8s-.5 2.1-1.2 2.8zm-.6-2.8c0-.7-.2-1.3-.7-1.8-.4-.5-1-.7-1.6-.7s-1.2.2-1.6.7-.7 1.1-.7 1.8.2 1.3.7 1.7c.4.5 1 .7 1.6.7s1.2-.2 1.6-.7c.5-.4.7-1 .7-1.7z" />
        <path id="XMLID_522_" d="M115.1 202.8 113 207h-1l-2.1-4.2v4.8h-1.7v-7.7h2.3l2 4.2 2-4.2h2.3v7.7h-1.7v-4.8z" />
        <path id="XMLID_519_"
            d="M124 200.7c.5.5.8 1.2.8 2.1 0 .9-.3 1.6-.8 2.1-.6.4-1.4.7-2.5.7h-1v2.1h-1.7V200h2.7c1.1 0 1.9.2 2.5.7zm-1.3 3c.2-.2.3-.6.3-1s-.1-.8-.4-.9c-.3-.2-.7-.3-1.2-.3h-1v2.6h1.2c.5 0 .9-.2 1.1-.4z" />
        <path id="XMLID_517_"
            d="M128.2 205.7c.3.4.7.5 1.2.5s.9-.2 1.1-.5c.3-.4.4-.8.4-1.5V200h1.7v4.3c0 1.1-.3 2-.9 2.6-.6.6-1.4.9-2.4.9s-1.8-.3-2.4-.9c-.6-.6-.9-1.5-.9-2.6V200h1.7v4.2c0 .7.2 1.1.5 1.5z" />
        <path id="XMLID_515_" d="M137.7 201.5v6.2H136v-6.2h-2.2V200h6.1v1.5h-2.2z" />
        <path id="XMLID_513_" d="M141.1 200h1.7v7.7h-1.7V200z" />
        <path id="XMLID_511_" d="M150.1 200h1.7v7.7h-1.7l-3.7-4.8v4.8h-1.7V200h1.6l3.8 5v-5z" />
        <path id="XMLID_509_"
            d="M158.7 203.8h1.7v2.7c-.8.9-1.8 1.3-3.2 1.3-1.1 0-2.1-.4-2.8-1.1-.8-.7-1.1-1.7-1.1-2.8s.4-2.1 1.2-2.9c.8-.8 1.7-1.1 2.8-1.1s2.1.4 2.9 1.1l-1 1.2c-.3-.3-.7-.5-1-.6s-.6-.2-.9-.2c-.7 0-1.2.2-1.7.7-.4.4-.7 1-.7 1.8 0 .7.2 1.3.6 1.7.4.4.9.7 1.5.7s1.1-.1 1.5-.3v-2.2h.2z" />
        <path id="XMLID_507_" d="M170.1 200v1.5h-3.6v1.7h3.4v1.5h-3.4v3h-1.7V200h5.3z" />
        <path id="XMLID_504_"
            d="M178 206.6c-.8.8-1.7 1.1-2.9 1.1-1.1 0-2.1-.4-2.9-1.1-.8-.8-1.2-1.7-1.2-2.8s.4-2.1 1.2-2.8c.8-.8 1.7-1.1 2.9-1.1 1.1 0 2.1.4 2.9 1.1.8.8 1.2 1.7 1.2 2.8s-.4 2.1-1.2 2.8zm-.5-2.8c0-.7-.2-1.3-.7-1.8-.4-.5-1-.7-1.6-.7s-1.2.2-1.6.7c-.4.5-.7 1.1-.7 1.8s.2 1.3.7 1.7c.4.5 1 .7 1.6.7s1.2-.2 1.6-.7c.4-.4.7-1 .7-1.7z" />
        <path id="XMLID_502_"
            d="M182.7 205.7c.3.4.7.5 1.2.5s.9-.2 1.1-.5c.3-.4.4-.8.4-1.5V200h1.7v4.3c0 1.1-.3 2-.9 2.6-.6.6-1.4.9-2.4.9s-1.8-.3-2.4-.9c-.6-.6-.9-1.5-.9-2.6V200h1.7v4.2c.1.7.2 1.1.5 1.5z" />
        <path id="XMLID_500_" d="M194.3 200h1.7v7.7h-1.7l-3.7-4.8v4.8h-1.7V200h1.6l3.8 5v-5z" />
        <path id="XMLID_497_"
            d="M203.8 201c.7.7 1.1 1.6 1.1 2.8s-.4 2.1-1.1 2.8c-.7.7-1.8 1-3.3 1h-2.6v-7.7h2.7c1.4.1 2.5.4 3.2 1.1zm-1.3 4.6c.4-.4.6-1 .6-1.7 0-.8-.2-1.3-.6-1.7-.4-.4-1.1-.6-1.9-.6h-1v4.7h1.1c.8-.1 1.4-.3 1.8-.7z" />
        <path id="XMLID_494_"
            d="m211.6 207.7-.7-1.7h-3.2l-.7 1.7h-1.8l3.3-7.7h1.7l3.3 7.7h-1.9zm-2.3-5.4-1 2.2h1.9l-.9-2.2z" />
        <path id="XMLID_492_" d="M217.1 201.5v6.2h-1.7v-6.2h-2.2V200h6.1v1.5h-2.2z" />
        <path id="XMLID_490_" d="M220.5 200h1.7v7.7h-1.7V200z" />
        <path id="XMLID_487_"
            d="M230.6 206.6c-.8.8-1.7 1.1-2.9 1.1-1.1 0-2.1-.4-2.9-1.1-.8-.8-1.2-1.7-1.2-2.8s.4-2.1 1.2-2.8c.8-.8 1.7-1.1 2.9-1.1 1.1 0 2.1.4 2.9 1.1.8.8 1.2 1.7 1.2 2.8s-.5 2.1-1.2 2.8zm-.6-2.8c0-.7-.2-1.3-.7-1.8-.4-.5-1-.7-1.6-.7s-1.2.2-1.6.7c-.4.5-.7 1.1-.7 1.8s.2 1.3.7 1.7c.4.5 1 .7 1.6.7s1.2-.2 1.6-.7c.5-.4.7-1 .7-1.7z" />
        <path id="XMLID_485_" d="M238.6 200h1.7v7.7h-1.7l-3.7-4.8v4.8h-1.7V200h1.6l3.8 5v-5z" />
    </g>
    <path class="st1" d="M13 87.4c-2.2 3.6-3.9 7.4-5.1 11.5l24-7L13 87.4z" />
    <path class="st2" d="m32.3 91.7.6-.2-.2-22.6c-8 4.2-14.8 10.6-19.5 18.3 0 .1-.1.1-.1.2L32 91.9l.3-.2z" />
    <path class="st0" d="m68.2 81.2.5.1-.1-16.5c-4-1-8.3-1.6-12.6-1.6-8.4 0-16.3 2.1-23.2 5.7l.2 22.6 35.2-10.3z" />
    <path class="st2"
        d="m69.3 81.5 43.3 10.3.6-.2-.2-22.9-.3-35.1-23.3-5.5c-9.2 10.3-15.3 23.5-16.6 38-1.4-.5-2.8-.9-4.2-1.3l.1 16.5.6.2z" />
    <path class="st0"
        d="M114.2 86.9c0-4 3.3-7.3 7.3-7.3s7.3 3.3 7.3 7.3v.2l19.8-5.8.5.1-.5-58.2-28.3 8.3-7.4 2.2.3 35.1.2 22.9 2.2-.6c-1-1.3-1.4-2.7-1.4-4.2z" />
    <path class="st3"
        d="m120.1 31.4 28.3-8.3V23l25.6-7.5c-10.1-6.2-22.1-9.8-34.8-9.8-6.7 0-13.1 1-19.2 2.8-11.9 3.6-22.5 10.4-30.6 19.5l23.3 5.5 7.4-2.1z" />
    <path class="st2"
        d="m149.5 81.5 16.5 3.9c.7-3.3 3.6-5.8 7.1-5.8 4 0 7.3 3.3 7.3 7.3 0 .7-.1 1.3-.3 1.9l12.6 3 .6-.2-.1-22.9-.3-35.1-44.3-10.5h-.2v.1l.5 58.2.6.1z" />
    <path class="st0"
        d="m193.2 68.7.2 22.9 35.3-10.4-.3-38.8c-8.8-.1-19.8 2.9-26.8 6.3-.3-.9-.7-1.7-1-2.6-1.9-4.5-4.4-8.8-7.2-12.8l-.4.1.2 35.3z" />
    <path class="st1" d="m148.6 23 44.3 10.5.4-.1c-5.2-7.2-11.7-13.2-19.2-17.9 0 0-.1 0-.1-.1l-25.6 7.5.2.1z" />
    <path class="st2" d="m25.2 117.4-19.5-4.6v.6c0 15.9 7.4 30.1 19 39.3.3.2.5.4.8.6v-.8l-.3-35.1z" />
    <path class="st0" d="m32.7 115.2-7.4 2.2.3 35.1v.8c8.4 6.4 18.8 10.2 30.1 10.2h5.9l-.5-56.7-28.4 8.4z" />
    <path class="st3"
        d="m32.7 115.2 28.3-8.3v-.1l51.2-15 .4-.1-43.3-10.2-.6-.1-.5-.2-35.3 10.4-.6.2-.4.1-24 7v.1c-1.3 4.4-2 9-2.1 13.8l19.5 4.6 7.4-2.2z" />
    <path class="st2" d="m105.5 117.4-44.3-10.5-.2-.1v.1l.5 56.7h44.4l-.1-11.1-.3-35.1z" />
    <path class="st0" d="m116.3 114.2-3.4 1-7.4 2.2.3 35.1.1 11.1h35.9l-.2-27c-12.1-2.2-21.8-10.9-25.3-22.4z" />
    <path class="st1"
        d="m148.5 104.7 43.9-12.9.4-.1-12.6-3c0 .1 0 .1-.1.2-.9 3-3.7 5.2-6.9 5.2-4 0-7.3-3.3-7.3-7.3 0-.4.1-.8.1-1.3v-.2l-16.5-3.9-.6-.1-.5-.1-19.8 5.8c0 .2 0 .4-.1.6-.4 3.7-3.4 6.6-7.2 6.6-2.3 0-4.4-1.1-5.7-2.8-.1-.2-.3-.3-.4-.4l-2.2.6-.6.2-.4.1-51.2 15h.2l44.3 10.5 7.4-2.2 3.4-1c-.9-3-1.4-6.2-1.4-9.5h33.8z" />
    <path class="st2"
        d="m185.7 117.4-7.9-1.9c-4.5 12.6-16.4 21.6-30.5 21.6-2 0-3.9-.2-5.8-.5l.2 27h44.4l-.1-11.1-.3-35.1z" />
    <path class="st0" d="m193.2 115.2-7.4 2.2.3 35.1.1 11.1h35.3l-.5-56.5-27.8 8.1z" />
    <path class="st3"
        d="M228.7 81.6v-.3l-35.2 10.3-.6.2-.4.1-43.9 12.9h31.2c0 3.8-.7 7.4-1.9 10.8l7.9 1.9 7.4-2.2 27.8-8.1v-.2l51.2-15-43-10.2-.5-.2z" />
    <path class="st2"
        d="m228.7 81.6.4.1 43 10.2.7-.2.4-.1-.2-22.7-.1-10.1c-9.3-8.6-22.8-14.6-42.3-16.2-.7-.1-1.5-.1-2.2-.1l.3 38.8v.3z" />
    <path class="st0" d="m273.2 91.6 15.5-4.5c-1.7-7.2-4.5-14.1-8.7-20.2-2-2.9-4.3-5.6-7-8l.1 10.1.1 22.6z" />
    <path class="st2"
        d="m265.8 152.6-.3-35.3-44.1-10.4-.4-.1v.2l.5 56.5c1.5-.1 3.8-.1 7 0h1.4c2.8.1 5.4.1 7.8 0 17-.4 24.6-3.2 27.5-4.7.3-.2.6-.3.8-.4l-.2-5.8z" />
    <path class="st0"
        d="m265.5 117.4.3 35.3.1 5.8c.4-.2.6-.4.7-.5l.1-.1c9.4-6.1 21.3-18 23.6-40.6.2-2.4.4-4.9.5-7.4l-17.2 5-8.1 2.5z" />
    <path class="st1"
        d="M288.8 87.5c0-.2-.1-.3-.1-.5l-15.5 4.6-.4.1-.7.2-51.2 15 .4.1 44.1 10.4 8-2.3 17.2-5c.3-7.5-.2-15.2-1.8-22.6z" />
    <path
        d="M173.2 79.6c-3.5 0-6.5 2.5-7.1 5.8v.2c-.1.4-.1.8-.1 1.3 0 4 3.3 7.3 7.3 7.3 3.3 0 6-2.2 6.9-5.2 0-.1 0-.1.1-.2.2-.6.3-1.2.3-1.9-.1-4.1-3.4-7.3-7.4-7.3zm-51.8 0c-4 0-7.3 3.3-7.3 7.3 0 1.5.5 2.9 1.2 4.1.1.2.2.3.4.4 1.3 1.7 3.4 2.8 5.7 2.8 3.8 0 6.8-2.9 7.2-6.6 0-.2.1-.4.1-.6v-.2c0-4-3.2-7.2-7.3-7.2zm27.4 25.1h-33.9c0 3.3.5 6.5 1.4 9.5 3.5 11.5 13.2 20.2 25.2 22.4 1.9.3 3.8.5 5.8.5 14.1 0 26.1-9 30.5-21.6 1.2-3.4 1.9-7 1.9-10.8h-30.9z"
        style="fill:#fff" />
    <path
        d="M58.3 198.5h-4.2v9.8h9.8V204h-5.6v-5.5zm21 0v5.5h-5.6v4.2h9.8v-9.8l-4.2.1zm-25.2-9.8h4.2v-5.5h5.6V179h-9.8v9.7zm19.6-9.8v4.2h5.6v5.6h4.2v-9.8h-9.8z"
        style="fill:#0086ff" />
    <path
        d="m73.1 188.7-5.6-5.6h6.1v-4.2h-9.8v4.2l5.6 5.6h3.7zm-5 9.8h-3.7l4.6 4.6.9 1h-6.1v4.2h9.8V204l-2.8-2.8-2.7-2.7zm11.2-9.8v6.1l-1-1-4.6-4.6v3.7l2.8 2.8 2.8 2.8h4.2v-9.8h-4.2zm-15.4 5.5-5.6-5.5h-4.2v9.8h4.2v-6.1l5.6 5.6v-3.8z"
        style="fill:#93eaff" />
</svg>