<?xml version="1.0" encoding="utf-8"?>
<!-- Generator: Adobe Illustrator 22.0.1, SVG Export Plug-In . SVG Version: 6.00 Build 0)  -->
<svg version="1.1" id="Layer_1" xmlns="http://www.w3.org/2000/svg" xmlns:xlink="http://www.w3.org/1999/xlink" x="0px" y="0px"
	 viewBox="0 0 335.5 368.1" style="enable-background:new 0 0 335.5 368.1;" xml:space="preserve">
<style type="text/css">
	.st0{fill:#FFFFFF;}
	.st1{fill:#E5E5E5;}
	.st2{fill:#00B39F;}
	.st3{fill:#00D3A9;}
	.st4{fill:#FBC907;}
	.st5{fill:#F3A70F;}
	.st6{fill:#F9F9F9;}
	.st7{opacity:0.5;}
	.st8{fill:#7490A8;}
	.st9{font-family:'OpenSans-ExtraBold';}
	.st10{font-size:45px;}
</style>
<title></title>
<g id="Layer_2_1_">
	<g id="Layer_1-2">
		<path class="st0" d="M44.3,12.2h192.2c20.1,0,36.4,16.3,36.4,36.4v277.2c0,20.1-16.3,36.4-36.4,36.4H44.3
			c-20.1,0-36.4-16.3-36.4-36.4V48.6C7.9,28.5,24.2,12.2,44.3,12.2z"/>
		<path class="st1" d="M5.2,326.2V304c0,20.8,16.8,37.6,37.6,37.6c0,0,0,0,0,0h195c20.8,0,37.6-16.8,37.6-37.6v22.1
			c0,20.8-16.8,37.6-37.6,37.6h-195C22,363.7,5.2,346.9,5.2,326.2z"/>
		<path class="st2" d="M238.6,368.1h-195C19.5,368,0,348.6,0,324.5V43.6C0,19.5,19.5,0,43.6,0h195c24.1,0,43.6,19.5,43.6,43.6V123
			h-12V43.6c0-17.5-14.2-31.6-31.6-31.6h-195C26.1,12,12,26.2,12,43.6v280.9c0,17.4,14.2,31.6,31.6,31.6h195
			c17.4,0,31.6-14.2,31.6-31.6v-44.6h12v44.6C282.1,348.6,262.6,368.1,238.6,368.1z"/>
		<rect x="57.5" y="162.4" class="st3" width="92" height="12"/>
		<rect x="57.5" y="191.4" class="st2" width="92" height="12"/>
		<rect x="57.5" y="220.4" class="st3" width="92" height="12"/>
		<path class="st4" d="M276.8,269.4c0,0,52.6-26.3,52.6-65.8v-52.6l-52.6-13.2l-52.6,13.2v52.6C224.2,243.1,276.8,269.4,276.8,269.4
			z"/>
		<path class="st5" d="M329.5,178.6v22c0,39.5-52.6,65.8-52.6,65.8s-52.6-26.3-52.6-65.8v-22c0,39.5,52.6,65.8,52.6,65.8
			S329.5,218.1,329.5,178.6z"/>
		<path class="st2" d="M276.8,272.6l-2.7-1.3c-2.3-1.1-56-28.5-56-71.2v-57.3l58.6-14.7l58.6,14.7v57.3c0,42.7-53.7,70-56,71.2
			L276.8,272.6z M230.2,152.2v48c0,30.5,36.3,53.2,46.6,59c10.3-5.8,46.6-28.6,46.6-59v-48l-46.6-11.7L230.2,152.2z"/>
		<path class="st6" d="M250.2,163.1l15.5-3l10.6-2.1c1.2-0.2,2.4-0.4,3.5-0.7c1.8-0.5,1,0.4-0.2-0.2c1.6,0.9,3.9,1.1,5.6,1.6l10.7,3
			l15.5,4.4c3.7,1,5.3-4.7,1.6-5.8l-16-4.5c-5.1-1.4-10.7-3.9-16-4.5c-5-0.6-11.2,1.9-16.1,2.8l-16.5,3.2
			C244.9,158,246.5,163.8,250.2,163.1L250.2,163.1z"/>
		<g class="st7">
			<path class="st8" d="M38,36h34.8c3.9,0,3.9-6,0-6H38C34.1,30,34.1,36,38,36z"/>
			<path class="st8" d="M87.2,36h86.3c3.9,0,3.9-6,0-6H87.2C83.3,30,83.3,36,87.2,36z"/>
		</g>
		<text transform="matrix(1 0 0 1 55.385 102)" class="st3 st9 st10">POLICY</text>
	</g>
</g>
</svg>
