<svg width="40" height="40" viewBox="0 0 40 40" fill="none" xmlns="http://www.w3.org/2000/svg">
<rect width="40" height="40" rx="5" fill="#FFF9E3"/>
<path d="M23.343 8.98254L22.9699 9.13067L21.6311 9.65192L21.258 9.80004L21.348 10.1882L21.6311 11.6169C21.4905 11.7557 21.3424 11.9188 21.1849 12.0932L19.7711 11.78L19.383 11.69L19.2349 12.0482L18.6555 13.3869L18.5055 13.7432L18.8336 13.9682L20.0543 14.7857C20.0393 15.0182 20.0411 15.2525 20.0543 15.485L18.8036 16.2594L18.4605 16.4675L18.6105 16.8388L19.1318 18.1794L19.2799 18.5507L19.6661 18.4607L21.0949 18.1794C21.2411 18.3519 21.4005 18.5075 21.5711 18.6557L21.243 20.0825L21.1549 20.4707L21.5261 20.6338L22.8668 21.2L23.223 21.3482L23.4461 21.02L24.2655 19.8013C24.498 19.8163 24.7324 19.8144 24.9649 19.8013L25.7374 21.065L25.9455 21.3932L26.3186 21.2582L28.0305 20.5738L27.9405 20.1875L27.6124 18.6257C27.7924 18.4738 27.9536 18.3125 28.1036 18.1344L29.5474 18.5057L29.9486 18.6107L30.0986 18.2375L30.678 16.8988L30.843 16.5275L30.4849 16.3044L29.2343 15.545C29.2493 15.3125 29.2474 15.0782 29.2343 14.8457L30.4849 14.0713L30.828 13.8632L30.678 13.4919L30.1568 12.1513L30.0086 11.78L29.6074 11.8682L28.1486 12.1963C28.0043 12.0238 27.843 11.8682 27.6724 11.72L27.9855 10.2913L28.0736 9.90504L27.7174 9.75692L26.3786 9.17567L26.0055 9.02754L25.7824 9.36879L25.023 10.5744C24.8036 10.5519 24.5655 10.5725 24.3236 10.5894L23.5511 9.32379L23.343 8.98254ZM22.9399 10.1582L23.6393 11.3038L23.8193 11.5869L24.1455 11.5119C24.483 11.4369 24.7999 11.4782 25.2311 11.5269L25.5293 11.5569L25.6943 11.3038L26.3786 10.2182L26.973 10.4694L26.6749 11.75L26.6018 12.0632L26.868 12.2413C27.1605 12.4494 27.4043 12.6932 27.6124 12.9857L27.7924 13.2538L28.1036 13.1788L29.4143 12.8807L29.6524 13.4769L28.5068 14.1613L28.2536 14.3244L28.2818 14.6225C28.3268 15.02 28.3268 15.3557 28.2818 15.7532L28.2536 16.0513L28.5068 16.2144L29.6374 16.9138L29.3993 17.48L28.0736 17.1519L27.7474 17.0769L27.5693 17.345C27.3593 17.6375 27.1155 17.8813 26.8249 18.0894L26.5718 18.2675L26.6318 18.5807L26.928 19.9944L26.3336 20.2175L25.6493 19.0869L25.4843 18.8338L25.188 18.8638C24.7886 18.9069 24.4549 18.9069 24.0555 18.8638L23.7593 18.8338L23.6093 19.0719L22.8818 20.1725L22.2705 19.9044L22.5536 18.6257L22.6286 18.3275L22.3755 18.1344C22.083 17.9263 21.8393 17.6825 21.6311 17.39L21.453 17.1369L21.1399 17.1969L19.8593 17.465L19.6361 16.8688L20.7686 16.1694L21.0349 16.0063L20.9918 15.7082C20.9468 15.3107 20.9468 14.975 20.9918 14.5775L21.0349 14.2944L20.7818 14.1313L19.6811 13.4019L19.9343 12.7925L21.2299 13.0888L21.5111 13.1488L21.6911 12.9257C21.9611 12.6088 22.2405 12.3313 22.4786 12.0932L22.6568 11.9132L22.6136 11.675L22.3455 10.3963L22.9399 10.1582ZM24.6668 12.7625C23.3561 12.7625 22.2855 13.8332 22.2855 15.1438C22.2855 16.4525 23.3561 17.5232 24.6668 17.5232C25.9755 17.5232 27.048 16.4525 27.048 15.1438C27.048 13.8332 25.9755 12.7625 24.6668 12.7625ZM24.6668 13.715C25.4618 13.715 26.0955 14.3488 26.0955 15.1438C26.0955 15.9369 25.4618 16.5707 24.6668 16.5707C23.8718 16.5707 23.238 15.9369 23.238 15.1438C23.238 14.3488 23.8718 13.715 24.6668 13.715ZM14.4443 17.5232L14.3843 17.9263L14.1461 19.4732C13.8874 19.5557 13.638 19.6738 13.4018 19.8013L11.7649 18.6107L10.098 20.2775L10.3211 20.6038L11.2286 21.9144C11.1011 22.1694 10.9868 22.4225 10.9024 22.6719L9.33864 22.955L8.95239 23.03V25.3513L9.33864 25.4263L10.9024 25.7075C10.9849 25.9682 11.1011 26.2119 11.2286 26.4519L10.2911 27.7175L10.038 28.0438L11.7049 29.7107L12.033 29.4875L13.3418 28.58C13.5968 28.7094 13.8518 28.8219 14.1011 28.9082L14.3393 30.455L14.3993 30.8563H16.7355L16.7936 30.47L17.0918 28.9082C17.3505 28.8257 17.5999 28.7075 17.8361 28.58L19.473 29.7707L21.1399 28.1038L20.9168 27.7775L19.9643 26.4519C20.088 26.2007 20.208 25.9532 20.2924 25.7075L21.8993 25.4263L22.2855 25.3513V23.015L20.2774 22.7169C20.1949 22.46 20.0899 22.2088 19.9643 21.9725L20.9168 20.6638L21.1399 20.3357L20.8718 20.0544L19.7711 18.9069L19.488 18.6107L19.1449 18.8488L17.8361 19.8013C17.5849 19.6757 17.3374 19.5575 17.0918 19.4732L16.8536 17.9263L16.7936 17.5232H14.4443ZM15.2618 18.4757H15.9761L16.2443 20.1725L16.5124 20.2625C16.9399 20.405 17.3393 20.5382 17.658 20.7388L17.9261 20.9019L18.1793 20.7238L19.368 19.8594L19.9043 20.4257L19.0418 21.6313L18.8486 21.8844L19.0268 22.1525C19.2405 22.4938 19.4074 22.8894 19.488 23.2532L19.563 23.5663L19.8743 23.6094L21.333 23.8325V24.5619L19.8743 24.815L19.593 24.86L19.503 25.1282C19.3605 25.5557 19.2255 25.955 19.0268 26.2738L18.8486 26.5419L19.0418 26.795L19.9043 28.0007L19.368 28.52L18.1793 27.6575L17.9261 27.4794L17.658 27.6425C17.3149 27.8563 16.9193 28.025 16.5555 28.1038L16.2593 28.1788L16.1993 28.4919L15.9461 29.9057H15.2168L14.9486 28.2088L14.6805 28.1188C14.253 27.9763 13.8536 27.8413 13.5349 27.6425L13.2686 27.4794L13.0155 27.6575L11.8099 28.4769L11.2886 27.9557L12.1361 26.81L12.3443 26.5419L12.1661 26.2738C11.9524 25.9307 11.7855 25.55 11.7049 25.1882L11.6318 24.875L11.3186 24.815L9.90489 24.5619V23.8194L11.3186 23.5663L11.6018 23.5063L11.6899 23.2532C11.8343 22.8257 11.9674 22.4244 12.1661 22.1075L12.3311 21.8394L12.1511 21.5863L11.3336 20.3807L11.868 19.8594L13.0586 20.7238L13.3118 20.9019L13.5799 20.7388C13.923 20.525 14.3186 20.3563 14.6805 20.2775L14.9936 20.2025L15.0386 19.8894L15.2618 18.4757ZM15.618 21.8094C14.3111 21.8094 13.2386 22.8819 13.2386 24.1907C13.2386 25.4975 14.3111 26.5719 15.618 26.5719C16.9268 26.5719 17.9993 25.4975 17.9993 24.1907C17.9993 22.8819 16.9268 21.8094 15.618 21.8094ZM15.618 22.7619C16.4074 22.7619 17.0468 23.4013 17.0468 24.1907C17.0468 24.98 16.4074 25.6194 15.618 25.6194C14.8305 25.6194 14.1911 24.98 14.1911 24.1907C14.1911 23.4013 14.8305 22.7619 15.618 22.7619Z" fill="#EBC017"/>
</svg>
