<?xml version="1.0" encoding="UTF-8" standalone="no"?>
<!-- Created with Inkscape (http://www.inkscape.org/) -->

<svg
   width="400"
   height="400"
   viewBox="0 0 400 400"
   version="1.1"
   id="svg5"
   xml:space="preserve"
   inkscape:export-filename="../../Projects/layer5/src/collections/blog/2023/interview-experience/azan-blog.png"
   inkscape:export-xdpi="192"
   inkscape:export-ydpi="192"
   inkscape:version="1.2.2 (b0a84865, 2022-12-01)"
   sodipodi:docname="L5blog.svg"
   xmlns:inkscape="http://www.inkscape.org/namespaces/inkscape"
   xmlns:sodipodi="http://sodipodi.sourceforge.net/DTD/sodipodi-0.dtd"
   xmlns:xlink="http://www.w3.org/1999/xlink"
   xmlns="http://www.w3.org/2000/svg"
   xmlns:svg="http://www.w3.org/2000/svg"><sodipodi:namedview
     id="namedview7"
     pagecolor="#505050"
     bordercolor="#eeeeee"
     borderopacity="1"
     inkscape:showpageshadow="0"
     inkscape:pageopacity="0"
     inkscape:pagecheckerboard="0"
     inkscape:deskcolor="#505050"
     inkscape:document-units="px"
     showgrid="false"
     showguides="false"
     inkscape:zoom="1"
     inkscape:cx="8.5"
     inkscape:cy="161.5"
     inkscape:window-width="1512"
     inkscape:window-height="831"
     inkscape:window-x="0"
     inkscape:window-y="38"
     inkscape:window-maximized="1"
     inkscape:current-layer="g1078" /><defs
     id="defs2"><linearGradient
       inkscape:collect="always"
       id="linearGradient27128"><stop
         style="stop-color:#00d3a9;stop-opacity:1;"
         offset="0"
         id="stop27124" /><stop
         style="stop-color:#00d3a9;stop-opacity:0;"
         offset="1"
         id="stop27126" /></linearGradient><linearGradient
       inkscape:collect="always"
       id="linearGradient26284"><stop
         style="stop-color:#ebc017;stop-opacity:1;"
         offset="0"
         id="stop26280" /><stop
         style="stop-color:#ebc017;stop-opacity:0;"
         offset="1"
         id="stop26282" /></linearGradient><linearGradient
       inkscape:collect="always"
       id="linearGradient408"><stop
         style="stop-color:#00d3a9;stop-opacity:1;"
         offset="0"
         id="stop404" /><stop
         style="stop-color:#ffffff;stop-opacity:1;"
         offset="0.23728815"
         id="stop2505" /><stop
         style="stop-color:#ffffff;stop-opacity:1;"
         offset="0.70056498"
         id="stop2507" /><stop
         style="stop-color:#ebc017;stop-opacity:1;"
         offset="1"
         id="stop406" /></linearGradient><linearGradient
       inkscape:collect="always"
       xlink:href="#linearGradient408"
       id="linearGradient410"
       x1="208.47458"
       y1="399.15256"
       x2="209.32204"
       y2="1.6949153"
       gradientUnits="userSpaceOnUse" /><style
       id="style8788">
      .cls-1 {
        fill: #00d3a9;
      }

      .cls-2 {
        fill: #00b39f;
      }
    </style><radialGradient
       inkscape:collect="always"
       xlink:href="#linearGradient26284"
       id="radialGradient26286"
       cx="49.497475"
       cy="79.549515"
       fx="49.497475"
       fy="79.549515"
       r="91.216774"
       gradientTransform="matrix(1,0,0,0.89534881,-7.7781746,-0.86743652)"
       gradientUnits="userSpaceOnUse" /><radialGradient
       inkscape:collect="always"
       xlink:href="#linearGradient26284"
       id="radialGradient26290"
       gradientUnits="userSpaceOnUse"
       gradientTransform="matrix(1,0,0,0.89534881,185.26198,-62.385726)"
       cx="49.497475"
       cy="79.549515"
       fx="49.497475"
       fy="79.549515"
       r="91.216774" /><radialGradient
       inkscape:collect="always"
       xlink:href="#linearGradient27128"
       id="radialGradient26294"
       gradientUnits="userSpaceOnUse"
       gradientTransform="matrix(1,0,0,0.89534881,-28.991374,300.36005)"
       cx="49.497475"
       cy="79.549515"
       fx="49.497475"
       fy="79.549515"
       r="91.216774" /><radialGradient
       inkscape:collect="always"
       xlink:href="#linearGradient27128"
       id="radialGradient27615"
       gradientUnits="userSpaceOnUse"
       gradientTransform="matrix(1,0,0,0.89534881,370.52396,254.39811)"
       cx="49.497475"
       cy="79.549515"
       fx="49.497475"
       fy="79.549515"
       r="91.216774" /></defs><g
     inkscape:label="BG"
     inkscape:groupmode="layer"
     id="layer1"><g
       inkscape:groupmode="layer"
       id="layer4"
       inkscape:label="NG"
       sodipodi:insensitive="true"><rect
         style="fill:url(#linearGradient410);fill-opacity:1;stroke-width:0.979255"
         id="rect234"
         width="400"
         height="400"
         x="0"
         y="0"
         ry="2.0299554"
         sodipodi:insensitive="true" /><ellipse
         style="fill:url(#radialGradient26286);fill-opacity:1;stroke:none;stroke-width:0.293;stroke-dasharray:7.032, 0.293;stroke-dashoffset:0.2637;stroke-opacity:1"
         id="path20844"
         cx="41.719299"
         cy="70.357124"
         rx="91.216774"
         ry="81.67083"
         sodipodi:insensitive="true" /><ellipse
         style="fill:url(#radialGradient26290);fill-opacity:1;stroke:none;stroke-width:0.293;stroke-dasharray:7.032, 0.293;stroke-dashoffset:0.2637;stroke-opacity:1"
         id="ellipse26288"
         cx="234.75945"
         cy="8.8388348"
         rx="91.216774"
         ry="81.67083"
         sodipodi:insensitive="true" /><ellipse
         style="fill:url(#radialGradient26294);fill-opacity:1;stroke:none;stroke-width:0.293;stroke-dasharray:7.032, 0.293;stroke-dashoffset:0.2637;stroke-opacity:1"
         id="ellipse26292"
         cx="20.506092"
         cy="371.58463"
         rx="91.216774"
         ry="81.67083"
         sodipodi:insensitive="true" /><ellipse
         style="fill:url(#radialGradient27615);fill-opacity:1;stroke:none;stroke-width:0.293;stroke-dasharray:7.032, 0.293;stroke-dashoffset:0.2637;stroke-opacity:1"
         id="ellipse27613"
         cx="420.02142"
         cy="325.62268"
         rx="91.216774"
         ry="81.67083"
         sodipodi:insensitive="true" /></g><g
       inkscape:groupmode="layer"
       id="g1078"
       inkscape:label="G"
       transform="translate(53.499999,-0.49999999)"><path
         style="fill:none;stroke:#000000;stroke-width:1.5;stroke-dasharray:36, 1.5;stroke-dashoffset:1.35;stroke-opacity:1"
         d="m 51.999999,335.49999 49.500001,-0.5 z"
         id="path1076" /><path
         style="fill:none;stroke:#000000;stroke-width:0.75;stroke-dasharray:18, 0.75;stroke-dashoffset:0.675;stroke-opacity:1"
         d="m -7.5000001,335.99999 49.4999991,-0.5 z"
         id="path1080" /><path
         style="fill:none;stroke:#000000;stroke-width:0.874203;stroke-dasharray:20.9809, 0.874203;stroke-dashoffset:0.786782;stroke-opacity:1"
         d="m 109.00464,335.00225 37.49072,-0.50452 z"
         id="path1082" /><path
         style="fill:none;stroke:#000000;stroke-width:1;stroke-dasharray:none;stroke-dashoffset:0.9;stroke-opacity:1"
         d="m 146.61872,334.39774 -11.09099,-2.89645 -7.90901,-3.60355 8.43934,3.42678 z"
         id="path1206"
         sodipodi:nodetypes="ccccc" /><path
         style="fill:none;stroke:#000000;stroke-width:1;stroke-dasharray:24, 1;stroke-dashoffset:0.9;stroke-opacity:1"
         d="m 259.5,330.99999 49.5,-0.5 z"
         id="path1936" /><path
         style="fill:none;stroke:#000000;stroke-width:1;stroke-dasharray:none;stroke-dashoffset:0.9;stroke-opacity:1"
         d="m 151.5,332.76516 -12,-5.75 -12,-5.75 10.4974,5.97097 z"
         id="path3394"
         sodipodi:nodetypes="ccccc" /><path
         style="fill:none;stroke:#000000;stroke-width:1;stroke-dasharray:none;stroke-dashoffset:0.9;stroke-opacity:1"
         d="m 234.21885,329.51516 12,-5.75 12,-5.75 -10.4974,5.97097 z"
         id="path4164"
         sodipodi:nodetypes="ccccc" /><path
         style="fill:none;stroke:#000000;stroke-width:0.67365;stroke-dasharray:none;stroke-dashoffset:0.9;stroke-opacity:1"
         d="m 243.02186,330.28175 9.4777,-3.32176 -1.79308,4.09684 11.27078,-4.09684 -12.29539,5.2041 1.79307,-4.09685 z"
         id="path6404"
         sodipodi:nodetypes="ccccccc" /></g></g><g
     id="g8871"
     transform="translate(137.06267,127.33568)"
     sodipodi:insensitive="true"><polygon
       class="cls-1"
       points="106.83,48.92 106.83,98.49 149.79,73.62 "
       id="polygon8792" /><polygon
       class="cls-1"
       points="106.83,108.86 106.83,158.67 150.19,133.88 "
       id="polygon8794" /><polygon
       class="cls-2"
       points="100.64,98.15 100.64,49.34 58.21,73.66 "
       id="polygon8796" /><path
       class="cls-2"
       d="m 15.53,158.5 c 8.32,13.38 19.59,24.72 32.92,33.12 v -52.18 z"
       id="path8798" /><polygon
       class="cls-2"
       points="100.64,158.44 100.64,109.22 58.11,133.85 "
       id="polygon8800" /><polygon
       class="cls-1"
       points="54.63,188.52 97.71,163.89 54.63,138.98 "
       id="polygon8802" /><polygon
       class="cls-2"
       points="153.13,188.78 153.13,139.32 110.12,163.92 "
       id="polygon8804" /><path
       class="cls-2"
       d="m 195.27,152.75 c 7.16,-13.35 11.48,-28.44 12.17,-44.48 l -44.84,25.64 32.67,18.85 z"
       id="path8806" /><polygon
       class="cls-1"
       points="159.32,128.66 202.55,103.94 159.32,79.09 "
       id="polygon8808" /><polygon
       class="cls-2"
       points="153.13,68.4 153.13,19.25 110.32,43.79 "
       id="polygon8810" /><polygon
       class="cls-2"
       points="153.13,128.44 153.13,78.83 110.22,103.68 "
       id="polygon8812" /><polygon
       class="cls-2"
       points="103.73,207.57 103.74,207.57 "
       id="polygon8814" /><polygon
       class="cls-1"
       points="54.63,78.74 54.63,128.71 97.86,103.68 "
       id="polygon8816" /><path
       class="cls-2"
       d="M 100.64,0 C 84.21,0.48 68.74,4.78 55.08,12.04 l 45.56,26.19 z"
       id="path8818" /><polygon
       class="cls-1"
       points="54.63,18.91 54.63,68.58 97.89,43.78 "
       id="polygon8820" /><path
       class="cls-2"
       d="m 48.44,15.89 c -13.33,8.4 -24.6,19.75 -32.92,33.14 l 32.92,19 z"
       id="path8822" /><path
       class="cls-1"
       d="M 152.85,12.28 C 139.08,4.88 123.44,0.49 106.83,0 v 38.66 z"
       id="path8824" /><path
       class="cls-1"
       d="m 0,107.4 c 0.57,16.52 4.99,32.06 12.41,45.75 l 33.34,-19.3 z"
       id="path8826" /><path
       class="cls-1"
       d="M 12.41,54.37 C 5.03,68 0.61,83.46 0,99.9 L 45.79,73.65 Z"
       id="path8828" /><path
       class="cls-2"
       d="m 55,195.43 c 13.68,7.29 29.18,11.6 45.64,12.09 V 169.34 L 55,195.44 Z"
       id="path8830" /><path
       class="cls-1"
       d="M 192.04,49.16 C 183.77,35.82 172.57,24.48 159.32,16.07 V 68.1 Z"
       id="path8832" /><path
       class="cls-1"
       d="m 159.32,191.44 c 13.32,-8.46 24.59,-19.88 32.87,-33.33 l -32.87,-18.97 v 52.29 z"
       id="path8834" /><path
       class="cls-2"
       d="M 207.46,99.63 C 206.82,83.35 202.44,68.03 195.14,54.51 L 162.17,73.6 207.45,99.63 Z"
       id="path8836" /><path
       class="cls-1"
       d="m 106.83,207.52 c 16.42,-0.48 31.89,-4.78 45.54,-12.03 l -45.54,-26.33 z"
       id="path8838" /><polygon
       class="cls-2"
       points="48.44,128.26 48.44,79.26 5.88,103.66 "
       id="polygon8840" /></g><g
     inkscape:groupmode="layer"
     id="layer2"
     inkscape:label="Layer 2"
     transform="translate(-49.525308,-5.7078656)"
     sodipodi:insensitive="true"><path
       style="color:#000000;fill:#000000;-inkscape-stroke:none"
       d="m 160.29731,107.25767 c -15.93737,0 -28.88867,12.35906 -28.88867,27.61914 0,15.26008 12.9513,27.61914 28.88867,27.61914 15.93737,0 28.89063,-12.35906 28.89063,-27.61914 0,-15.26008 -12.95326,-27.61914 -28.89063,-27.61914 z m 0,1 c 15.42113,0 27.89063,11.92483 27.89063,26.61914 0,14.69431 -12.4695,26.61914 -27.89063,26.61914 -15.42113,0 -27.88867,-11.92483 -27.88867,-26.61914 0,-14.69431 12.46754,-26.61914 27.88867,-26.61914 z"
       id="path4014" /><path
       style="fill:#9fabee;stroke:#000000;stroke-opacity:1"
       d="m 161.78924,161.94589 c 0,0 2.46402,27.97995 2.31395,42.00056 -0.14385,13.43942 -3.07925,40.20283 -3.07925,40.20283 0,0 2.9354,-26.76341 3.07925,-40.20283 0.15007,-14.02061 -2.31395,-42.00056 -2.31395,-42.00056 z"
       id="path4070"
       sodipodi:nodetypes="cacac" /><path
       style="fill:#9fabee;stroke:#000000;stroke-opacity:1"
       d="m 161.05083,245.45253 c 0,0 -27.23428,28.32539 -27.11542,45.40803 0.14235,20.45702 52.85598,31.19031 52.85598,31.19031 0,0 -54.98659,-12.08524 -53.06784,-32.46149 1.63975,-17.4135 27.32728,-44.13685 27.32728,-44.13685 z"
       id="path11491"
       sodipodi:nodetypes="cscsc" /><path
       style="fill:#9fabee;stroke:#000000;stroke-opacity:1"
       d="m 161.19,243.44295 c 0,0 -4.57654,29.13243 -4.27773,43.79828 0.31237,15.33146 6.33313,45.56591 6.33313,45.56591 0,0 -6.02076,-30.23445 -6.33313,-45.56591 -0.29881,-14.66585 4.27773,-43.79828 4.27773,-43.79828 z"
       id="path11493"
       sodipodi:nodetypes="cacac" /><path
       style="fill:#9fabee;stroke:#000000;stroke-opacity:1"
       d="m 163.81938,189.38575 c 0,0 -39.2199,6.03177 -35.26348,18.74172 4.94055,15.87143 49.53822,-5.72443 49.53822,-5.72443 0,0 -44.59767,21.59586 -49.53822,5.72443 -3.95642,-12.70995 35.26348,-18.74172 35.26348,-18.74172 z"
       id="path11495"
       sodipodi:nodetypes="cacac" /><path
       style="fill:#9fabee;stroke:#000000;stroke-opacity:1"
       d="m 139.84966,205.56531 c 0,0 44.52451,19.29667 50.28287,3.51244 3.73505,-10.23814 -26.42024,-19.25881 -26.42024,-19.25881 0,0 30.15529,9.02067 26.42024,19.25881 -5.75836,15.78423 -50.28287,-3.51244 -50.28287,-3.51244 z"
       id="path11497"
       sodipodi:nodetypes="cacac" /><ellipse
       style="fill:#00b39f;fill-opacity:1;stroke:#000000;stroke-width:0.536463;stroke-dasharray:none;stroke-dashoffset:0;stroke-opacity:1"
       id="ellipse12019"
       cx="132.11801"
       cy="205.13637"
       rx="7.5950813"
       ry="3.1023176" /><ellipse
       style="fill:#00b39f;fill-opacity:1;stroke:#000000;stroke-width:0.786645;stroke-dasharray:none;stroke-dashoffset:0;stroke-opacity:1"
       id="ellipse14025"
       cx="152.82237"
       cy="334.6293"
       rx="11.495413"
       ry="4.407311" /><ellipse
       style="fill:#00b39f;fill-opacity:1;stroke:#000000;stroke-width:0.536463;stroke-dasharray:none;stroke-dashoffset:0;stroke-opacity:1"
       id="ellipse14027"
       cx="142.00551"
       cy="233.49466"
       rx="7.5950813"
       ry="3.1023176"
       transform="rotate(-11.473633)" /><ellipse
       style="fill:#00b39f;fill-opacity:1;stroke:#000000;stroke-width:0.717792;stroke-dasharray:none;stroke-dashoffset:0;stroke-opacity:1"
       id="ellipse14029"
       cx="329.86237"
       cy="-189.79271"
       rx="9.7289925"
       ry="4.3358054"
       transform="rotate(90)" /><ellipse
       style="fill:#000000;fill-opacity:1;stroke:#000000;stroke-dasharray:none;stroke-dashoffset:0;stroke-opacity:1"
       id="path14817"
       cx="147.35173"
       cy="132.74739"
       rx="1.6479183"
       ry="2.9962151" /><ellipse
       style="fill:#000000;fill-opacity:1;stroke:#000000;stroke-dasharray:none;stroke-dashoffset:0;stroke-opacity:1"
       id="ellipse14819"
       cx="168.32524"
       cy="132.14815"
       rx="1.6479183"
       ry="2.9962151" /><path
       style="fill:#000000;fill-opacity:1;stroke:#000000;stroke-dasharray:none;stroke-dashoffset:0;stroke-opacity:1"
       d="m 148.62512,151.54865 c 0,0 6.21915,3.61239 12.88373,1.87263 6.66458,-1.73976 12.20957,-6.51677 12.20957,-6.51677 0,0 -5.47643,5.72668 -12.20957,7.41563 -6.73315,1.68895 -12.88373,-2.77149 -12.88373,-2.77149 z"
       id="path14821"
       sodipodi:nodetypes="czczc" /><path
       style="fill:#000000;fill-opacity:1;stroke:#000000;stroke-width:0.7;stroke-dasharray:none;stroke-dashoffset:0;stroke-opacity:1"
       d="m 173.3439,142.85962 c 0,0 1.88063,-0.60804 2.7715,0 0.89087,0.60804 1.3483,3.44565 1.3483,3.44565 0,0 -0.71781,-2.2464 -1.49811,-2.84641 -0.7803,-0.60001 -2.62169,-0.59924 -2.62169,-0.59924 z"
       id="path15620"
       sodipodi:nodetypes="czczc" /><path
       style="fill:#000000;fill-opacity:1;stroke:#000000;stroke-width:0.7;stroke-dasharray:none;stroke-dashoffset:0;stroke-opacity:1"
       d="m 146.1664,125.63139 c 0,0 -3.37874,0.29082 -4.26961,0.89886 -0.89087,0.60804 -2.24716,3.44565 -2.24716,3.44565 0,0 1.61667,-2.2464 2.39697,-2.84641 0.7803,-0.60001 4.1198,-1.4981 4.1198,-1.4981 z"
       id="path15622"
       sodipodi:nodetypes="czczc" /><path
       style="fill:#000000;fill-opacity:1;stroke:#000000;stroke-width:0.7;stroke-dasharray:none;stroke-dashoffset:0;stroke-opacity:1"
       d="m 167.65109,124.13328 c 0,0 3.37874,0.29082 4.26961,0.89886 0.89087,0.60804 2.24716,2.99622 2.24716,2.99622 0,0 -1.61667,-1.79697 -2.39697,-2.39698 -0.7803,-0.60001 -4.1198,-1.4981 -4.1198,-1.4981 z"
       id="path15624"
       sodipodi:nodetypes="czczc" /><path
       style="fill:#000000;fill-opacity:1;stroke:#000000;stroke-width:0.7;stroke-dasharray:none;stroke-dashoffset:0;stroke-opacity:1"
       d="m 147.35173,110.87502 -8.23959,-0.37452 -8.53921,1.72282 c 0,0 3.99496,-2.16886 8.23959,-2.02244 4.24463,0.14642 8.53921,0.67414 8.53921,0.67414 z"
       id="path15626"
       sodipodi:nodetypes="ccczc" /><path
       style="fill:#000000;fill-opacity:1;stroke:#000000;stroke-width:0.745202;stroke-dasharray:none;stroke-dashoffset:0;stroke-opacity:1"
       d="m 152.65939,109.44087 -9.17658,-1.8798 -9.95783,0.10827 c 0,0 4.9476,-1.37831 9.68478,-0.45525 4.73718,0.92307 9.44963,2.22678 9.44963,2.22678 z"
       id="path15628"
       sodipodi:nodetypes="ccczc" /></g></svg>
