<svg xmlns="http://www.w3.org/2000/svg" xmlns:xlink="http://www.w3.org/1999/xlink" x="0" y="0" version="1.1" viewBox="0 0 994.7 1218.7" xml:space="preserve" style="enable-background:new 0 0 994.7 1218.7"><style type="text/css">.st0{fill:#00d3a9}.st1{fill:#00b39f}.st2{fill:none}.st3{fill:#20bdab}.st4{fill:#647881}.st5{display:none}.st6{display:inline}</style><g id="Layer_2"><g><g><path d="M380.3,890c19-35,53.5-60.5,94-67.5l-8-46c-55,9.5-101.5,44-127.5,91L380.3,890z" class="st0"/><path d="M382.3,1023.5c-12-20-19-43.5-19-69c0-16.5,3-32,8.5-46.5l-44-16c-7,19.5-11,40.5-11,62.5 c0,34,9.5,66,25.5,93L382.3,1023.5z" class="st1"/><path d="M498.8,1088.5h-1.5c-41.5,0-78.5-19-103.5-49l-36,30c33,40,83.5,66,139.5,66c0.5,0,1.5,0,2,0L498.8,1088.5z" class="st0"/><path d="M613.8,1020.5c-19.5,34.5-54.5,59.5-95,66l7.5,46.5c55-9,101.5-42.5,128-89.5L613.8,1020.5z" class="st1"/><path d="M612.8,887c11.5,20,18,42.5,18,67.5c0,17-3,33-9,48l44,17c7.5-20,12-42,12-64.5c0-33-9-64.5-24.5-91 L612.8,887z" class="st0"/></g><g><g><g><rect width="44" height="67.8" x="568.1" y="794.3" class="st2"/><g><polygon points="578.2 862.1 568.1 852 591.9 828.2 568.1 804.4 578.2 794.3 612.1 828.2" class="st3"/></g></g><g><rect width="44" height="67.8" x="500.3" y="794.3" class="st2"/><g><polygon points="510.4 862.1 500.3 852 524.1 828.2 500.3 804.4 510.4 794.3 544.3 828.2" class="st3"/></g></g></g></g></g></g><g id="Layer_1"><g><g><path d="M498,580.8L498,580.8c138.4,0,252.6-112.7,252.6-252.6c0-138.4-114.2-251.2-252.6-251.2 S245.5,189.8,245.5,329.6C245.5,468.1,359.6,580.8,498,580.8z M498,134.1c107,0,195.5,87,195.5,195.5c0,107-87,195.5-195.5,195.5 l0,0c-107,0-195.5-87-195.5-195.5S391,134.1,498,134.1z" class="st4"/><g><path d="M717.5,603.1c73.3,5.5,141.3,38.4,191.7,92.7c50.6,54.6,78.1,125.2,77.4,198.9l0,0v0v138.4 c0,47.6-18.4,92.2-51.9,125.6c-33.5,33.5-78.1,51.9-125.6,51.9H185.5c-47.6,0-92.2-18.4-125.6-51.9 C26.4,1125.4,8,1080.7,8,1033.2V894.8c0-152.3,118.8-280.4,270.5-291.7c4.7,0.1,11.3,2,15.5,6.2l0.1,0.1l0.1,0.1 c27.8,26.3,59.5,46.8,94.2,60.8c34.9,14.1,71.8,21.3,109.7,21.3c38,0,75.1-7.2,110.2-21.3c35.2-14.2,66.8-34.7,93.7-60.9l0,0 l0,0C706.2,605.2,711.2,603.1,717.5,603.1 M185.5,1169.6h625c36.6,0,71-14.1,96.6-39.8c25.7-25.7,39.8-60,39.8-96.6V894.8 c0-61.2-22.5-120.3-63.4-166.6c-40.8-46.1-96.3-75.4-156.3-82.6l-3.6-0.4l-2.7,2.4c-30.8,27.3-65.5,48.4-103.2,62.9 c-38.2,14.7-78.5,22.1-119.9,22.1c-41.8,0-82.1-7.3-119.9-21.6c-38-14.4-72.7-35.7-103.1-63.4l-2.7-2.5l-3.7,0.5 c-60.2,7.9-115.6,37.4-156.2,83.1c-40.9,46-63.4,105-63.4,166v138.4c0,36.6,14.1,71,39.8,96.6 C114.6,1155.5,148.9,1169.6,185.5,1169.6 M717.8,595.1c-8.6,0-15.7,2.9-21.4,8.6C643.6,655,572.2,683.6,498,683.6 S353.9,655,299.7,603.6c-5.7-5.7-14.3-8.6-21.4-8.6C122.7,606.5,0,737.8,0,894.8v138.4c0,102.7,82.8,185.5,185.5,185.5h623.6 c102.7,0,185.5-82.8,185.5-185.5V894.8C996.1,737.8,873.4,606.5,717.8,595.1L717.8,595.1z M498,740.6 c85.6,0,165.5-31.4,228.3-87C846.2,667.9,939,772,939,894.8v138.4c0,71.4-57.1,128.4-128.4,128.4h-625 c-71.4,0-128.4-57.1-128.4-128.4V894.8c0-122.7,92.8-225.5,212.6-241.2C332.5,710.7,412.4,740.6,498,740.6L498,740.6z" class="st4"/></g><g class="st5"><g class="st6"><g><path d="M513.7,1070.3h-28.5c-2.9,0-5.7-2.9-5.7-5.7v-20c-11.4-2.9-21.4-7.1-31.4-12.8l-14.3,14.3 c-1.4,1.4-2.9,1.4-4.3,1.4l0,0c-1.4,0-2.9,0-4.3-1.4l-20-20c-2.9-2.9-2.9-5.7,0-8.6l14.3-14.3c-5.7-10-11.4-20-12.8-31.4h-20 c-2.9,0-5.7-2.9-5.7-5.7v-28.5c0-2.9,2.9-5.7,5.7-5.7h20c2.9-11.4,7.1-22.8,12.8-31.4l-14.3-14.3c-2.9-2.9-2.9-5.7,0-8.6 l20-20c1.4-2.9,5.7-2.9,8.6,0l14.3,14.3c10-5.7,20-11.4,31.4-12.8v-20c0-2.9,2.9-5.7,5.7-5.7h28.5c2.9,0,5.7,2.9,5.7,5.7v20 c11.4,2.9,21.4,7.1,31.4,12.8l14.3-14.3c1.4-2.9,5.7-2.9,8.6,0l20,20c2.9,2.9,2.9,5.7,0,8.6l-14.3,14.3 c5.7,10,11.4,20,12.8,31.4h20c2.9,0,5.7,2.9,5.7,5.7v28.5c0,2.9-2.9,5.7-5.7,5.7h-20c-2.9,11.4-7.1,22.8-12.8,31.4l14.3,14.3 c2.9,2.9,2.9,5.7,0,8.6l-20,20c-1.4,2.9-5.7,2.9-8.6,0l-14.3-14.3c-10,5.7-20,11.4-31.4,12.8v20 C519.4,1068.9,516.6,1070.3,513.7,1070.3z M490.9,1060.3H508v-20c0-2.9,1.4-5.7,4.3-5.7c12.8-1.4,25.7-7.1,35.7-14.3 c2.9-1.4,5.7-1.4,7.1,0l14.3,14.3l12.8-12.8l-14.3-14.3c-1.4-1.4-2.9-5.7,0-7.1c7.1-10,12.8-22.8,14.3-35.7 c0-2.9,2.9-4.3,5.7-4.3h20v-18.6h-20c-2.9,0-5.7-1.4-5.7-4.3c-1.4-12.8-7.1-25.7-14.3-35.7c-1.4-2.9-1.4-5.7,0-7.1l14.3-14.3 l-12.8-12.8l-14.3,14.3c-1.4,1.4-5.7,2.9-7.1,0c-10-7.1-22.8-12.8-35.7-14.3c-2.9,0-4.3-2.9-4.3-5.7v-20h-17.1v20 c0,2.9-1.4,5.7-4.3,5.7c-12.8,1.4-25.7,7.1-35.7,14.3c-2.9,1.4-5.7,1.4-7.1,0l-14.3-14.3l-12.8,12.8l14.3,14.3 c1.4,1.4,2.9,5.7,0,7.1c-7.1,10-12.8,22.8-14.3,35.7c0,2.9-2.9,4.3-5.7,4.3h-20V959h20c2.9,0,5.7,1.4,5.7,4.3 c1.4,12.8,7.1,25.7,14.3,35.7c1.4,2.9,1.4,5.7,0,7.1l-14.3,14.3l12.8,12.8l14.3-14.3c1.4-1.4,5.7-2.9,7.1,0 c10,7.1,22.8,12.8,35.7,14.3c2.9,0,4.3,2.9,4.3,5.7V1060.3L490.9,1060.3z" class="st4"/><path d="M499.5,998.9c-25.7,0-47.1-21.4-47.1-48.5c0-27.1,21.4-48.5,47.1-48.5s47.1,21.4,47.1,48.5 C546.6,977.5,525.2,998.9,499.5,998.9z M499.5,914.7c-20,0-35.7,17.1-35.7,37.1c0,20,15.7,37.1,35.7,37.1s35.7-17.1,35.7-37.1 C535.1,930.4,519.4,914.7,499.5,914.7z" class="st4"/></g><g><g><path d="M646.5,866.2c-1.4,0-4.3-1.4-4.3-2.9c-30-45.7-87-77.1-141.3-77.1c-49.9,0-97,22.8-128.4,62.8 c-1.4,2.9-5.7,2.9-8.6,1.4c-2.9-1.4-2.9-5.7-1.4-8.6c32.8-42.8,82.8-67.1,137-67.1c58.5,0,118.4,32.8,151.3,81.3 c1.4,2.9,1.4,5.7-1.4,7.1C649.3,866.2,647.9,866.2,646.5,866.2z" class="st4"/><path d="M646.5,866.2h-27.1c-2.9,0-5.7-2.9-5.7-5.7c0-2.9,2.9-5.7,5.7-5.7h21.4v-20c0-2.9,2.9-5.7,5.7-5.7 c2.9,0,5.7,2.9,5.7,5.7v25.7c0,1.4,0,2.9-1.4,4.3C649.3,866.2,647.9,866.2,646.5,866.2z" class="st4"/></g><g><path d="M543.7,1115.9c-2.9,0-4.3-1.4-5.7-4.3c-1.4-2.9,1.4-5.7,4.3-7.1c69.9-21.4,119.9-87,119.9-155.5 c0-20-4.3-40-11.4-58.5c-1.4-2.9,0-5.7,2.9-7.1c2.9-1.4,5.7,0,7.1,2.9c7.1,20,11.4,41.4,11.4,62.8 C672.1,1021.8,617.9,1091.7,543.7,1115.9C545.1,1115.9,543.7,1115.9,543.7,1115.9z" class="st4"/><path d="M566.5,1127.4c-1.4,0-1.4,0-2.9,0l-22.8-10c-1.4,0-2.9-1.4-2.9-2.9c0-1.4,0-2.9,0-4.3l12.8-21.4 c1.4-2.9,5.7-2.9,7.1-1.4c2.9,1.4,2.9,5.7,1.4,7.1l-10,15.7l17.1,7.1c2.9,1.4,4.3,4.3,2.9,7.1 C570.8,1125.9,568,1127.4,566.5,1127.4z" class="st4"/></g><g><path d="M499.5,1123.1c-95.6,0-172.7-78.5-172.7-174.1c0-21.4,10-47.1,17.1-67.1l1.4-2.9 c1.4-2.9,4.3-4.3,7.1-2.9c2.9,1.4,4.3,4.3,2.9,7.1l-1.4,2.9c-7.1,18.6-17.1,42.8-17.1,62.8c0,89.9,72.8,162.7,162.7,162.7 c2.9,0,4.3,0,7.1,0c2.9,0,5.7,2.9,5.7,5.7c0,2.9-2.9,5.7-5.7,5.7C505.2,1123.1,502.3,1123.1,499.5,1123.1z" class="st4"/><path d="M361,911.9c-2.9,0-4.3-1.4-5.7-2.9l-8.6-18.6l-15.7,8.6c-2.9,1.4-5.7,0-7.1-2.9c-1.4-2.9,0-5.7,2.9-7.1 l22.8-11.4c1.4,0,2.9-1.4,4.3,0c1.4,0,2.9,1.4,2.9,2.9l10,24.3c1.4,2.9,0,5.7-2.9,7.1C362.5,911.9,362.5,911.9,361,911.9z" class="st4"/></g></g></g></g></g><path d="M792,316.8c-12.8,0-22.8-10-22.8-21.4C769.2,157,647.9,44.2,498,44.2S226.9,157,226.9,295.4 c0,11.4-10,21.4-22.8,21.4s-22.8-10-22.8-21.4C179.8,132.7,322.5,0,498,0s316.8,132.7,316.8,295.4 C814.8,306.8,804.9,316.8,792,316.8z" class="st4"/><path d="M202.6,473.8h-44.2c-37.1,0-65.6-28.5-65.6-62.8V306.8c0-34.2,30-62.8,65.6-62.8h44.2 c12.8,0,22.8,10,22.8,21.4v185.5C226.9,463.8,215.5,473.8,202.6,473.8z M159.8,288.3c-10,0-20,8.6-20,18.6V411 c0,10,8.6,18.6,20,18.6h20V286.8h-20V288.3z" class="st4"/><path d="M836.2,473.8H792c-12.8,0-22.8-10-22.8-21.4V266.9c0-11.4,10-21.4,22.8-21.4h44.2c37.1,0,67.1,28.5,67.1,62.8 v104.2C903.3,445.2,873.4,473.8,836.2,473.8z M814.8,429.5h20c11.4,0,20-8.6,20-18.6V306.8c0-10-8.6-18.6-20-18.6h-20V429.5z" class="st4"/><g><path d="M490.9,508c-11.4-2.9-20-12.8-17.1-24.3c1.4-11.4,12.8-20,25.7-18.6c111.3,17.1,204.1,2.9,275.4-45.7 c10-7.1,24.3-4.3,31.4,5.7c7.1,10,4.3,22.8-5.7,30C717.8,509.5,615.1,528,490.9,508L490.9,508z" class="st4"/></g></g></g></svg>