<svg xmlns="http://www.w3.org/2000/svg" role="img" viewBox="-2.78 -0.53 365.82 359.57"><defs><radialGradient id="a" cx="-65.804" cy="589.167" r="102.485" gradientTransform="rotate(-65.374 -256.33 198.984)" gradientUnits="userSpaceOnUse"><stop offset="0"/><stop offset="0" stop-color="#000505"/><stop offset="0" stop-color="#011214"/><stop offset="0" stop-color="#03282c"/><stop offset="0" stop-color="#05474f"/><stop offset="0" stop-color="#076f7b"/><stop offset="0" stop-color="#0aa0b0"/><stop offset="0" stop-color="#0ed8ee"/><stop offset=".143" stop-color="#0ed3ee"/><stop offset=".324" stop-color="#0dc3ed"/><stop offset=".526" stop-color="#0da9eb"/><stop offset=".742" stop-color="#0c85e9"/><stop offset=".967" stop-color="#0a57e6"/><stop offset="1" stop-color="#0a50e6"/></radialGradient><radialGradient id="b" cx="180.144" cy="179.375" r="174.388" gradientUnits="userSpaceOnUse"><stop offset="0" stop-color="#0ed8ee"/><stop offset=".238" stop-color="#0ed5ee"/><stop offset=".407" stop-color="#0ecced"/><stop offset=".553" stop-color="#0dbcec"/><stop offset=".688" stop-color="#0da6eb"/><stop offset=".814" stop-color="#0c8ae9"/><stop offset=".932" stop-color="#0b67e7"/><stop offset="1" stop-color="#0a50e6"/></radialGradient></defs><path fill="none" d="M155.984 326.659l84.245-10.121-28.36-36.328-34.073-.625-21.812 47.074zm71.19044-225.28046l1.82506-30.8569a11.44007 11.44007 0 0 1-4.81456-3.09763l-87.3307 6.38792 20.21983 15.0018L180.73 77.952zM68.6688 269.65108q-.486-.15636-.9542-.34923c-.19739-.07921-.39011-.16583-.58254-.25427q-.12382-.05815-.24622-.11857a12.99537 12.99537 0 0 1-7.32116-11.17156L24.09978 239.959l38.63069 52.91333a11.59664 11.59664 0 0 1 1.56-.81757l4.58494-22.33214c-.06454-.01958-.12618-.0454-.19027-.06591zM83.73 250.247l23.063-3.059-13.33-17.36-9.733 20.419zm-7.30218 19.4774l-4.00333 21.9914a11.64644 11.64644 0 0 1 7.56016 14.4382l56.84378 28.14311a13.26317 13.26317 0 0 1 3.31-4.95993l-60.63267-61.01667a12.92547 12.92547 0 0 1-3.07794 1.40389zm189.18381-137.43115l33.36688-8.69388a11.61828 11.61828 0 0 1 1.22254-2.46595l-62.76173-51.156-2.6311 35.25152 28.11028 14.17874zm-3.87755 101.39518l28.10454-1.90942c-.00418-.1305-.01968-.258-.01968-.38952a12.0806 12.0806 0 0 1 3.65253-8.66468l-11.76181-13.40937.04117.197zM132.62943 79.84183a11.19258 11.19258 0 0 1-3.97546 1.88995l-2.50345 21.28057 23.29316-10.69513zm167.6448 138.05388l7.62185-78.58508a10.97093 10.97093 0 0 1-8.80779-6.4185l-31.8166 7.34384 11.13265 53.26491zM161.734 334.58907a13.21564 13.21564 0 0 1 .761 4.39472c0 .20033-.0212.39521-.03.59338l43.99251-.04549 33.23874-11.89029a12.44369 12.44369 0 0 1-.40409-2.96654zM238.13346 60.6773l-.00231.031c.1516-.1027.17064-.12479.00231-.031zm-5.56152-12.4783a11.44386 11.44386 0 0 1 10.6597 7.29348l46.09707 12.298L241.75708 33.71a10.09833 10.09833 0 0 1-16.5936-7.73635l.00132-.0266-62.36736-6.76755c-.03047.24106-.064.48119-.10944.7173l63.276 30.41207a11.38463 11.38463 0 0 1 6.60794-2.10987zM26.03806 232.573l35.96347 17.055a13.06483 13.06483 0 0 1 1.79675-2.01151L35.1565 166.08057 21.33033 221.39a10.84376 10.84376 0 0 1 4.70773 11.183zm295.5827-105.04146a11.62753 11.62753 0 0 1-.9326 4.57424l15.551 24.03363L317.897 99.28753l-.77885 19.04852a11.63722 11.63722 0 0 1 4.50261 9.19549zm-90.51808-62.71899l-.13388-.1091c-.1221.15047-.05835.17432.13388.1091zm-94.65887 1.60667l84.69032-6.9999a11.42575 11.42575 0 0 1 .408-2.80557l-62.96737-30.0015a11.09774 11.09774 0 0 1-8.895 2.22013L133.623 62.42718a10.98326 10.98326 0 0 1 2.82081 3.99204zm-92.8635 73.01164l71.52909-65.44971a11.24236 11.24236 0 0 1-.441-2.84454L74.87758 60.08038a10.99477 10.99477 0 0 1-8.19457 8.093l-23.82839 70.86291c.24892.12033.48777.25647.72569.39457zm-16.46585 9.47705a10.9759 10.9759 0 0 1 7.32886-10.318l.08314-.3326.08367.28072c.2391-.081.47855-.16053.72432-.22521L55.496 78.35334l-33.38133 48.97649a10.89355 10.89355 0 0 1-3.29711 18.8661l.11493 54.44045 11.086-44.34577a10.91454 10.91454 0 0 1-2.90403-7.3827zm98.64787-89.3317l16.94283-34.99087a11.2441 11.2441 0 0 1-1.15546-1.861L77.78012 53.2521l39.10713 10.86248a11.22553 11.22553 0 0 1 8.87508-4.53837zm116.87455 5.12724l64.72289 51.45914a11.67825 11.67825 0 0 1 2.3332-.286l1.02031-21.60649a11.57679 11.57679 0 0 1-10.48209-13.40637zm53.97667 177.56265l-37.77367 72.003a12.51131 12.51131 0 0 1 1.99654 1.73309l44.043-31.0487a10.91231 10.91231 0 0 1 4.99095-11.48384l-8.53462-29.98785a12.03845 12.03845 0 0 1-4.7222-1.2157zm-213.9792-67.59147l-37.467-17.41058a10.9053 10.9053 0 0 1-4.29588 2.24192l29.63759 84.88226a12.63179 12.63179 0 0 1 7.587 1.077c.02689.01242.0557.021.0825.03362l10.36435-22.07831L74.94737 205.715zm35.68702-68.06751l3.00084-25.50812c-.297-.13285-.58882-.27444-.87155-.43158l-72.09111 64.36235a10.285 10.285 0 0 1 .54239 5.852l35.53519 16.513L97.075 116.36243zM112.929 255.17886l-27.26165 3.84481c.00005.014.00211-1.76759.00211-1.75356a3.50013 3.50013 0 0 1-.18993 1.41739 12.952 12.952 0 0 1-.51505 2.45574l62.23161 63.19318 21.45239-44.91977-37.63881-.69115zM254.74969 242.124l-31.70382 38.2915-.49278-.009 25.32032 32.26246a12.37678 12.37678 0 0 1 2.5935-.55633l38.79937-72.30411zm59.23091-12.11563a12.21888 12.21888 0 0 1 .08412 1.38112c0 4.29779-1.6103 6.68326-4.00735 9.41285l6.18145 25.76191L339.015 198.368l-25.22845 30.11167a11.3351 11.3351 0 0 1 .19405 1.5287zm20.06387-48.45191a10.93775 10.93775 0 0 1 4.28449-8.6454l-22.75106-35.15827c-.077.0425-.15665.08029-.23473.12107l-7.685 82.82594c.08908.04766.17383.10115.26153.15106l29.21451-31.68654a10.93887 10.93887 0 0 1-3.08974-7.60786z"/><path fill="url(#a)" d="M239.65341 139.0568l25.95822-6.76355-2.69313-12.88552-28.11028-14.17873-2.1156 28.34531a12.13826 12.13826 0 0 1 6.96079 5.48249zm-50.86374 116.80059l-10.994 23.7272 34.07378.62567-19.49767-24.97589a12.97858 12.97858 0 0 1-3.58211.62302zm65.96002-13.73339l-53.72585 3.60419a12.93545 12.93545 0 0 1-2.05572 4.62689l23.585 30.05136.49278.009zm-35.99258-89.87991l-94.59836 29.727a7.60058 7.60058 0 0 1-1.4487 4.11327l60.03249 45.04388a12.9396 12.9396 0 0 1 5.59292-1.27663c.31051 0 .61469.02508.9198.04648l31.5375-75.60157a11.035 11.035 0 0 1-2.03565-2.05243zm10.44734 5.06099c-.40434 0-.80339-.02179-1.19752-.06042l-31.63143 75.40055a13.04224 13.04224 0 0 1 3.9731 5.21371l61.38548-4.17049 20.01675-24.176-.04117-.197-46.85094-53.41361a12.06194 12.06194 0 0 1-5.65427 1.40326zm10.80055-6.63679l38.3993 42.83259-11.13261-53.26488-25.99747 6.00065a12.02935 12.02935 0 0 1-1.26922 4.43164zm-14.74386-16.94018l1.9133-32.34957L180.73 77.952l-23.65593 10.86173 63.94606 47.44384a12.09659 12.09659 0 0 1 4.24101-2.52946zm-49.46393 112.58422l-62.86821 8.86653 18.0807 23.54664 37.63881.69115 12.33036-25.81889a13.02389 13.02389 0 0 1-5.18166-7.28543zm-53.85491-71.35644l94.597-29.73054a10.85992 10.85992 0 0 1 .48351-2.76754l-67.57913-50.14059-23.29316 10.69513-8.08567 68.73265a11.009 11.009 0 0 1 3.87745 3.21089zm-11.17976-4.09677l7.55883-64.252-21.24637 9.75531-12.63787 51.03232 19.173 8.90957a10.97821 10.97821 0 0 1 7.15241-5.4452zm65.94495 66.18606L117.672 191.58159a10.34375 10.34375 0 0 1-6.34915.77757l-17.86 37.46876 13.33054 17.36047 69.4874-9.216c.1287-.31655.27441-.62352.4267-.92721zm-74.23101-53.15007l-19.84213-9.22048-7.687 31.04035 13.59551 17.70559 16.32756-34.78113a10.91009 10.91009 0 0 1-2.39394-4.74433z"/><path fill="url(#b)" d="M348.856 171.28633l-26.54036-82.27114-.44346-.5763A11.64453 11.64453 0 0 0 308.625 71.42165l-63.26854-45.68242a10.08631 10.08631 0 0 0-17.65867-6.44175l-66.37118-7.35566c-.07778-.1091-.1697-.20667-.25132-.31282a11.24193 11.24193 0 0 0-19.99785 2.26582L70.621 48.57205a10.943 10.943 0 0 0-14.67656 16.05317L14.869 124.89269a10.94993 10.94993 0 0 0-3.40862 21.2336l.15734 74.08319a10.96537 10.96537 0 0 0 3.633 21.32116c.28259 0 .54765-.06243.825-.08343l41.82708 57.29317a11.63683 11.63683 0 0 0 15.93735 14.57111l63.35326 31.28809a1.35372 1.35372 0 0 0 .16141.27836 13.24576 13.24576 0 0 0 21.14326 3.5881c.09972.01025.19012.02984.29412.03577h48.942l37.77318-13.214a12.434 12.434 0 0 0 18.66685-10.06759l45.78013-33.08552a10.87775 10.87775 0 0 0 5.696 1.638 10.94182 10.94182 0 0 0 8.17887-18.26771l25.24052-83.74481a10.94815 10.94815 0 0 0-.21378-20.47385zm-30.959-71.9988l18.34221 56.85188-15.551-24.03363a11.65373 11.65373 0 0 0-3.57-13.76973zm-7.18369-5.0174l-1.02031 21.60649a11.67825 11.67825 0 0 0-2.3332.286l-64.72292-51.45917 57.59431 16.16031a11.57679 11.57679 0 0 0 10.48209 13.40637zM162.79744 19.1795l62.36736 6.76757-.00132.0266a10.09833 10.09833 0 0 0 16.5936 7.73633l47.57163 34.0805-46.09707-12.298a11.42583 11.42583 0 0 0-17.26764-5.18363L162.688 19.8968c.04545-.23611.079-.47624.10944-.7173zm75.33371 41.52877l.00231-.031c.16833-.09376.14929-.07167-.00231.031zm-7.02847 4.10428c-.19223.06522-.256.04137-.13388-.1091zm-81.42294-35.98017a11.09774 11.09774 0 0 0 8.895-2.22013l62.96737 30.0015a11.42575 11.42575 0 0 0-.408 2.80557l-84.69032 6.9999a10.98326 10.98326 0 0 0-2.82078-3.992zm-8.13-6.108a11.2441 11.2441 0 0 0 1.15546 1.861l-16.94287 34.99083a11.22553 11.22553 0 0 0-8.87508 4.53837L77.78012 53.2521zM66.683 68.17337a10.99477 10.99477 0 0 0 8.19457-8.093l39.79083 11.05624a11.24236 11.24236 0 0 0 .441 2.84454l-71.52909 65.44971c-.23792-.1381-.47677-.27424-.72569-.39457zm-47.86544 78.02256a10.89355 10.89355 0 0 0 3.29711-18.8661L55.496 78.35334 35.33445 138.3128c-.24577.06468-.48522.14424-.72432.22521l-.08367-.28072-.08314.3326a10.89509 10.89509 0 0 0-4.42485 17.70072l-11.086 44.34577zm2.51277 75.194l13.82617-55.3094 28.64178 81.53587a13.06483 13.06483 0 0 0-1.79675 2.01151L26.03806 232.573a10.84376 10.84376 0 0 0-4.70773-11.183zm42.96009 70.6648a11.59664 11.59664 0 0 0-1.56.81757L24.09978 239.959l35.4649 17.79844a12.99537 12.99537 0 0 0 7.32116 11.17156q.12235.06066.24622.11857c.19243.08844.38515.17506.58254.25427q.46825.19257.9542.34923l.01629.00564c.06409.02051.12573.04633.19027.06591zm72.538 42.24229L79.98465 306.154a11.64644 11.64644 0 0 0-7.56016-14.43815l4.00333-21.9914a12.92547 12.92547 0 0 0 3.07794-1.40389l60.63264 61.01662a13.26317 13.26317 0 0 0-3.30997 4.95988zm69.62908 5.23462l-43.99251.04549c.00878-.19817.03-.39305.03-.59338a13.21564 13.21564 0 0 0-.761-4.39472l77.55816-9.91422a12.44369 12.44369 0 0 0 .40409 2.96654zm44.0094-27.41908a12.37678 12.37678 0 0 0-2.5935.55633l-25.32032-32.26246-10.68365-.19621 28.35949 36.32768-84.24514 10.121 21.81187-47.07433-9.14715-.16794-21.45239 44.91977-62.2316-63.19316a12.952 12.952 0 0 0 .51505-2.45574 3.50013 3.50013 0 0 0 .18993-1.41739c0-.014-.00206 1.7676-.00211 1.75356l27.26165-3.84481-6.13562-7.99047-23.06367 3.0589 9.73313-20.41937-4.92-6.40735-10.36434 22.07831c-.0268-.01261-.05561-.0212-.0825-.03362a12.63179 12.63179 0 0 0-7.587-1.077L40.87148 159.506a10.9053 10.9053 0 0 0 4.29588-2.24192l37.467 17.41058 1.80278-7.27988-35.53519-16.513a10.285 10.285 0 0 0-.54239-5.852l72.09111-64.36232c.28273.15714.57459.29873.87155.43158l-3.00084 25.50809 7.82915-3.59477 2.50347-21.28058a11.19258 11.19258 0 0 0 3.97546-1.88995l16.81425 12.47539 7.63039-3.50349-20.21983-15.0018 87.3307-6.38792a11.44007 11.44007 0 0 0 4.81456 3.09763l-1.82506 30.8569 7.63378 3.85045 2.6311-35.25152 62.76173 51.156a11.61828 11.61828 0 0 0-1.22254 2.46595l-33.36688 8.69388 1.66006 7.94272 31.8166-7.34384a10.97093 10.97093 0 0 0 8.80779 6.4185l-7.62185 78.58508-21.86989-24.39483 3.30532 15.81456 11.76181 13.40937a12.0806 12.0806 0 0 0-3.65253 8.66468c0 .13152.0155.259.01968.38952l-28.10454 1.90942-6.98439 8.4356 34.51659-2.31554zm54.19266-29.33317a10.99308 10.99308 0 0 0 .21986 2.174l-44.043 31.0487a12.51131 12.51131 0 0 0-1.99654-1.73309l37.77367-72.003a12.03845 12.03845 0 0 0 4.72221 1.21568l8.53462 29.98785a10.96447 10.96447 0 0 0-5.21081 9.3099zm3.26016-61.92857c-.0877-.04991-.17245-.1034-.26153-.15106l7.685-82.82594c.07808-.04078.15768-.07857.23473-.12107l22.75108 35.15831a10.88568 10.88568 0 0 0-1.19472 16.25326zm8.31909 45.71339l-6.18145-25.76191c2.39705-2.72959 4.00735-5.11506 4.00735-9.41285a12.21888 12.21888 0 0 0-.08412-1.38112 11.3351 11.3351 0 0 0-.19405-1.52869L339.015 198.368z"/></svg>