<?xml version="1.0" encoding="UTF-8"?>
<svg xmlns="http://www.w3.org/2000/svg" xmlns:xlink="http://www.w3.org/1999/xlink" viewBox="0 0 583 1121" version="1.1">
  <g id="surface1">
    <defs>
      <style>
        .colorMode1 {
          fill: #000000
        }
      </style>
    </defs>
    <path class="colorMode1" style="stroke:none;fill-rule:nonzero;fill-opacity:1;"
      d="M 168.609375 1067.867188 C 166.246094 1048.945312 163.871094 1031.207031 162.6875 1013.46875 C 160.308594 988.636719 159.128906 964.976562 157.921875 940.132812 C 155.554688 901.109375 153.179688 863.265625 150.816406 824.230469 C 148.4375 795.855469 160.308594 771.023438 170.988281 746.179688 C 186.417969 713.066406 200.667969 678.769531 216.109375 645.640625 C 224.425781 626.730469 212.550781 612.535156 207.796875 597.160156 C 189.976562 545.125 169.804688 495.449219 151.996094 443.425781 C 138.929688 403.207031 123.5 361.808594 123.5 318.042969 C 123.5 314.511719 122.316406 312.132812 122.316406 308.589844 C 85.507812 319.238281 53.460938 340.523438 27.328125 368.898438 C 24.964844 376 26.144531 384.285156 30.886719 390.195312 C 48.695312 413.84375 68.894531 436.324219 87.882812 458.789062 C 105.691406 478.894531 122.316406 501.359375 143.695312 516.734375 C 169.804688 534.476562 169.804688 562.875 180.496094 586.523438 C 185.238281 597.160156 186.417969 607.796875 187.613281 619.640625 C 187.613281 625.550781 185.238281 632.652344 181.675781 637.378906 C 173.363281 650.390625 153.179688 658.652344 143.695312 653.925781 C 130.628906 645.640625 123.5 630.277344 127.058594 614.902344 C 130.628906 598.34375 134.1875 580.601562 135.371094 564.046875 C 135.371094 553.398438 131.8125 543.941406 124.679688 535.667969 C 99.753906 507.269531 72.453125 480.085938 47.511719 450.503906 C 32.082031 432.765625 19.027344 415.027344 5.960938 396.105469 C -3.535156 383.09375 0.0234375 365.363281 11.898438 354.703125 C 53.460938 314.511719 105.691406 287.304688 162.6875 276.65625 C 170.988281 274.292969 178.117188 270.746094 185.238281 267.1875 C 224.425781 252.992188 267.160156 247.085938 309.90625 249.449219 C 341.949219 250.644531 374.007812 248.265625 404.882812 247.085938 C 419.128906 247.085938 432.183594 254.175781 441.691406 264.835938 C 463.058594 283.757812 485.609375 300.304688 509.367188 315.691406 C 530.734375 328.703125 553.296875 339.339844 575.84375 349.976562 C 585.351562 354.703125 586.535156 364.171875 577.039062 374.820312 C 556.855469 396.105469 535.488281 416.21875 512.925781 435.140625 C 482.050781 459.972656 447.628906 481.269531 416.753906 504.917969 C 398.945312 517.929688 381.136719 533.292969 368.082031 545.125 C 368.082031 566.410156 369.265625 585.332031 369.265625 603.070312 C 368.082031 607.796875 365.707031 612.535156 363.328125 616.082031 C 352.640625 630.277344 337.207031 635.003906 324.15625 626.730469 C 311.085938 618.457031 315.839844 603.070312 318.21875 592.433594 C 322.960938 575.875 328.894531 560.5 336.027344 546.304688 C 340.769531 538.035156 347.898438 530.941406 356.199219 525.019531 C 376.382812 509.644531 396.582031 493.085938 417.949219 478.894531 C 438.121094 464.699219 459.5 454.0625 478.492188 439.867188 C 502.246094 420.945312 523.613281 400.832031 546.164062 380.726562 C 548.554688 378.363281 550.917969 376 552.113281 372.457031 L 435.746094 294.394531 C 404.882812 345.25 375.203125 397.296875 343.144531 446.960938 C 311.085938 500.191406 283.773438 554.589844 261.222656 612.535156 C 260.039062 614.902344 260.039062 617.265625 260.039062 620.808594 C 271.914062 690.585938 283.773438 760.363281 295.65625 828.96875 C 300.410156 860.902344 302.789062 894.007812 306.347656 925.941406 C 309.90625 963.808594 312.269531 1000.46875 317.035156 1038.3125 C 319.402344 1058.414062 339.585938 1060.777344 353.835938 1070.246094 C 358.574219 1072.59375 363.328125 1076.152344 365.707031 1080.878906 C 369.265625 1090.347656 363.328125 1099.800781 355.015625 1103.347656 C 352.640625 1104.53125 350.273438 1104.53125 346.714844 1104.53125 C 324.15625 1105.710938 300.410156 1105.710938 277.847656 1104.53125 C 268.351562 1103.347656 258.84375 1098.621094 252.921875 1090.347656 C 246.972656 1077.335938 258.84375 1070.246094 269.535156 1065.503906 C 294.460938 1053.675781 295.65625 1053.675781 294.460938 1026.480469 C 287.34375 938.953125 283.773438 851.4375 262.40625 766.296875 C 254.105469 735.53125 252.921875 702.429688 248.15625 671.664062 C 246.972656 665.753906 245.792969 659.847656 244.609375 652.742188 L 237.492188 652.742188 C 231.542969 663.390625 225.605469 675.222656 220.851562 685.859375 C 207.796875 713.066406 194.742188 740.273438 181.675781 766.296875 C 163.871094 802.957031 170.988281 840.800781 172.167969 878.640625 C 173.363281 909.394531 175.742188 941.328125 178.117188 972.066406 C 181.675781 1008.726562 185.238281 1044.21875 188.796875 1079.699219 C 191.183594 1087.984375 191.183594 1095.074219 191.183594 1103.347656 C 189.976562 1110.4375 184.054688 1115.179688 178.117188 1117.542969 C 153.179688 1116.359375 128.242188 1113.996094 103.3125 1110.4375 C 95 1109.269531 81.933594 1103.347656 86.699219 1092.710938 C 91.441406 1083.257812 98.574219 1076.152344 109.25 1072.59375 C 124.679688 1069.050781 138.929688 1067.867188 154.375 1067.867188 C 159.128906 1069.050781 161.492188 1069.050781 168.609375 1067.867188 Z M 235.101562 603.070312 L 239.855469 603.070312 C 249.351562 578.238281 260.039062 553.398438 271.914062 529.75 C 300.410156 478.894531 332.46875 430.414062 362.148438 379.558594 C 377.566406 352.351562 391.816406 323.964844 403.699219 294.394531 C 410.832031 276.65625 407.257812 273.109375 388.257812 273.109375 C 343.144531 274.292969 296.839844 276.65625 251.714844 276.65625 C 219.671875 276.65625 187.613281 287.304688 160.308594 303.847656 C 150.816406 307.40625 144.878906 318.042969 146.0625 328.703125 C 153.179688 359.445312 159.128906 391.378906 169.804688 422.128906 C 186.417969 471.800781 206.617188 520.28125 224.425781 568.785156 C 227.984375 580.601562 231.542969 592.433594 235.101562 603.070312 Z M 151.996094 633.820312 C 169.804688 623.183594 169.804688 616.082031 151.996094 587.707031 Z M 151.996094 633.820312 " />
    <path class="colorMode1" style=" stroke:none;fill-rule:nonzero;fill-opacity:1;"
      d="M 168.609375 115.804688 C 168.609375 80.339844 188.796875 48.40625 219.671875 31.835938 C 263.597656 8.1875 309.90625 -4.828125 358.574219 8.1875 C 390.632812 16.46875 423.871094 29.484375 440.511719 63.769531 C 473.75 133.542969 460.683594 180.867188 384.695312 217.515625 C 341.949219 241.175781 289.71875 241.175781 245.792969 219.890625 C 213.734375 203.320312 188.796875 176.140625 173.363281 144.207031 C 170.988281 133.542969 169.804688 124.089844 168.609375 115.804688 Z M 192.367188 112.273438 C 197.109375 146.554688 218.476562 169.035156 244.609375 187.957031 C 271.914062 208.046875 302.789062 210.425781 334.84375 206.878906 C 364.523438 203.320312 391.816406 191.503906 414.390625 172.582031 C 442.875 150.113281 436.9375 120.53125 428.625 92.15625 C 421.507812 68.496094 402.503906 49.574219 377.566406 42.484375 C 356.199219 37.742188 334.84375 34.210938 312.269531 33.015625 C 308.710938 33.015625 305.152344 33.015625 300.410156 34.210938 C 271.914062 43.664062 242.230469 49.574219 217.292969 67.324219 C 203.042969 76.78125 193.550781 94.519531 192.367188 112.273438 Z M 192.367188 112.273438 " />
    <path style=" stroke:none;fill-rule:nonzero;fill:rgb(0%,70.196078%,62.352941%);fill-opacity:1;"
      d="M 271.914062 326.328125 L 309.90625 326.328125 L 311.085938 308.589844 L 273.09375 308.589844 Z M 271.914062 326.328125 " />
    <path style=" stroke:none;fill-rule:nonzero;fill:rgb(0%,70.196078%,62.352941%);fill-opacity:1;"
      d="M 308.710938 368.898438 L 309.90625 361.808594 C 311.085938 353.535156 303.96875 346.445312 295.65625 346.445312 L 235.101562 346.445312 L 235.101562 341.691406 L 212.550781 341.691406 L 210.175781 362.988281 L 287.34375 362.988281 L 287.34375 370.09375 L 308.710938 370.09375 Z M 308.710938 368.898438 " />
    <path style=" stroke:none;fill-rule:nonzero;fill:rgb(0%,82.745098%,66.27451%);fill-opacity:1;"
      d="M 235.101562 334.613281 L 236.285156 326.328125 L 265.964844 326.328125 L 267.160156 308.589844 L 216.109375 308.589844 L 213.734375 334.613281 Z M 235.101562 334.613281 " />
    <path style=" stroke:none;fill-rule:nonzero;fill:rgb(0%,82.745098%,66.27451%);fill-opacity:1;"
      d="M 286.160156 374.820312 L 284.980469 385.46875 L 255.285156 385.46875 L 254.105469 403.207031 L 290.902344 403.207031 C 299.226562 403.207031 306.347656 396.105469 307.527344 389.011719 L 308.710938 374.820312 Z M 286.160156 374.820312 " />
    <path style=" stroke:none;fill-rule:nonzero;fill:rgb(0%,70.196078%,62.352941%);fill-opacity:1;"
      d="M 230.359375 374.820312 L 229.164062 384.285156 L 249.351562 384.285156 L 248.15625 402.027344 L 222.035156 402.027344 C 213.734375 402.027344 207.796875 394.921875 207.796875 387.820312 L 208.992188 374.820312 C 208.992188 374.820312 230.359375 374.820312 230.359375 374.820312 Z M 230.359375 374.820312 " />
  </g>
</svg>