<?xml version="1.0" encoding="UTF-8"?>
<svg xmlns="http://www.w3.org/2000/svg" viewBox="0 0 490.54 689.27">
    <defs>
      <style>
        .colorMode1 {
          fill: #000000
        }
      </style>
    </defs>
<g id="Layer_2" data-name="Layer 2">
<g id="Layer_1-2" data-name="Layer 1">
<g id="Wood">
<path style="stroke:none;fill-rule:nonzero;fill:rgb(186, 140, 99);fill-opacity:1;" d="M186.42,7l-.67,55.75L212,64.79s1.64-57.63,4.1-58.45S186.42,7,186.42,7Z"/>
<path style="stroke:none;fill-rule:nonzero;fill:rgb(186, 140, 99);fill-opacity:1;" d="M186.31,166.26,184.49,679h31.62s-6.93-499.3-4.16-512.76Z"/>
</g>
<path class="colorMode1" style="stroke:none;fill-rule:nonzero;fill-opacity:1;" d="M351.39,0c3.43,2.7,7,5.2,10.25,8.12q26.55,24.08,52.94,48.32c.38.36.7.79,1.06,1.19l-1.57,2.17A18.41,18.41,0,0,1,411,57.87q-25-23.16-50-46.38A57.28,57.28,0,0,0,355.77,7c2.29,17.76,2,35.45,1.75,53.14l-.65,0c-.14-3.11-.27-6.21-.42-9.31-.71-14.85-1.4-29.7-2.21-44.53-.05-1-1-2-1.91-2.91a442.06,442.06,0,0,1,2.47,67.31c-23.37-.24-46.43-.4-69.49-.73-11.67-.17-23.35-.64-35-1-1.15,0-2.8.38-2.74-1.57s1.73-1.3,2.84-1.29q50.16.6,100.33,1.24c.59,0,1.19-.09,2.06-.17,0-1.16.05-2.2,0-3.23-1-19.44-2.13-38.87-3.12-58.31A33.47,33.47,0,0,1,350.33,0Z"/>
<path class="colorMode1" style="stroke:none;fill-rule:nonzero;fill-opacity:1;" d="M423.59,65.05c.87.54,2.37,1,2.51,1.66.52,2.55,2.8,2.83,4.37,4.05,2.43,1.89,4.79,3.89,7,6q23.7,22.23,47.35,44.51c1.79,1.67,3.78,3.11,5.68,4.66v2.65a25.51,25.51,0,0,1-3.5,1.68,23.49,23.49,0,0,1-3.68.55l-.18-.81,3.59-2.87c-2.17-1.71-4.23-3.1-6-4.78Q456.12,99.24,431.61,76c-.86-.81-1.2-2.16-1.94-3.58-1.19-.54-3.31-.89-4.38-2.14S424.12,66.83,423.59,65.05Z"/>
<path class="colorMode1" style="stroke:none;fill-rule:nonzero;fill-opacity:1;" d="M101.52,250.75a17.42,17.42,0,0,0-7.14-13.17c-2.67-2.1-5.62-.85-5.81,2.56A16.54,16.54,0,0,0,94,253.39c1.4,1.34,3.4,2.06,5.07.78C100.29,253.21,101,251.52,101.52,250.75Zm-5.74,38.84.36,1.17a54.74,54.74,0,0,0,7-1.54c13.65-4.87,25.72-12.27,34.87-23.66,3.21-4,5.42-8.82,7.93-13.36.56-1,.47-2.39.67-3.61l-.85-.23c-.37.73-.68,1.49-1.1,2.19-2.66,4.47-4.87,9.29-8.1,13.3-8.88,11-20.72,18-33.81,23C100.44,287.71,98.12,288.67,95.78,289.59Zm12.65-60.16c0,3.76,3,9.9,5.95,12,2.33,1.67,4.82,1.17,5.83-1.48a8.86,8.86,0,0,0,.39-4.62,13.49,13.49,0,0,0-6.73-9.08C110.54,224.25,108.46,225.51,108.43,229.43ZM78.6,243.53,84.5,228C80.58,229.75,76.49,240,78.6,243.53Zm24.48-28.42,12.71,1.24C112.66,212.25,105.24,211.84,103.08,215.11Z"/>
<path class="colorMode1" style="stroke:none;fill-rule:nonzero;fill-opacity:1;" d="M86.68,203.5c-1.08.84-2.12,1.76-3.26,2.51a7.78,7.78,0,0,1-3,1.46c-10.71,1.29-18.81,6.89-25.1,15.29-11.18,14.93-14.34,32-11.68,50,1.62,10.95,7.89,19.55,16.41,26.47,9.08,7.37,19.25,12.64,30.84,14.53,12.46,2,24.77,1.1,36.27-4.57,16.57-8.16,27.18-21.53,29.81-39.66,5.42-37.4-22.53-61.08-46.89-65.65-5.91-1.11-12.14-.46-18.23-.57-1.75,0-3.51.1-5.27.16,1.74-2.39,4.4-2.74,7-3.13,36.64-5.42,71,27.11,67.28,64.42-1.68,16.79-10,29.93-22.59,40.67-3,2.54-3.09,2.44-1.43,6q2.72,5.76,5.5,11.48a23.75,23.75,0,0,0,1.34,2.11q19.47-8,39.17-16.11c.46,1.65,0,2.73-1.84,3.46-11.1,4.38-22.15,8.88-33.25,13.26-3.6,1.42-3.74,1.34-2.29,5.06A381,381,0,0,1,163.07,391c1,5,3.68,24.52,4.67,29.74-.88.3-2.25-1.28-3.05-1-2.89-12.67-6.73-37.87-9.86-50.35a218.9,218.9,0,0,0-12.26-36.46c-.65,4.78-1.43,9.54-1.94,14.33-2.34,22.18-4.5,44.38-7,66.54-.48,4.29.78,6.54,4.53,8.78a87.3,87.3,0,0,0,44.94,12.49,4.22,4.22,0,0,0,3.83-1.73c3.1-4,7.62-5.57,12.3-6.79,1.3-.34,2.37-.57,2.45-2.47,1.11-25.2,2.39-50.39,3.46-75.6.31-7.33.07-14.69.09-22a1.8,1.8,0,0,1,.44-1.23c3,33.4-2.44,66.63-2.11,100.18h7.46c0-33.65.1-67.09,0-100.52s-.48-66.91-.74-100.64c1.86-.83,2,.64,2,2.3.35,20,.91,40,1,60,.25,43.92.28,87.84.4,131.76,0,.71.06,1.42,0,2.12-.16,2.86,0,5.42,3.62,6.14a5.81,5.81,0,0,1,2.54,1.85c4.92,5,3.9,11.08-2.56,13.8-2.34,1-2.71,2.14-2.68,4.51.43,29.57.84,59.13,1,88.7.24,43.66.27,87.31.43,131,0,2.71.33,5.41.56,8.79,1.19-1.09,1.94-1.75,2.66-2.45a61.26,61.26,0,0,1,24.94-15.13c2.37-.73,4.84-1.38,7.36.07l-7.22,2.2a55.82,55.82,0,0,0-25.28,15.94c-1.51,1.63-2.61,3.27-2.49,5.61a3.47,3.47,0,0,1-1.2,2.51l-.73-2.46c-.9.84-1.69,1.59-2.51,2.31s-1.73,1-1.95-.59l-.1.09c3.44-3,4.09-6.56,3.91-11.23-.76-20-1.09-40-1.16-60-.17-49.41-.08-98.81-.16-148.22,0-5.66-.52-11.32-.65-17-.05-2.16-1-2.76-3-2.52-1.75.22-3.52.3-5.67.47v7.51l-1.15,0c0-1.65-.09-3.32,0-5,.12-1.9-.62-2.63-2.55-2.81a45.7,45.7,0,0,1-8.32-1.45,7.83,7.83,0,0,1-4.17-2.66c-1.64-2.36-3.83-2.52-6.22-2.54-11.89-.09-23.49-1.78-34.3-7-5.31-2.56-10.36-5.7-15.45-8.72a3,3,0,0,1-.94-2.47q4.16-38.53,8.48-77,.68-6.07,1.69-12.09a10.93,10.93,0,0,0-1-6.88c-2.23-4.6-4.26-9.31-6.51-14.29-1.21.58-2.3,1.05-3.36,1.6-27.53,14.52-61.24,5.36-79.74-16.53-7.9-9.36-10.29-20.37-10.07-32.4.33-17.72,6.31-33,18.24-46a37.59,37.59,0,0,0,4.41-6.91c6.28-11.1,15.89-18.33,27.22-23.57a2.49,2.49,0,0,1,2.06.13,33.11,33.11,0,0,1-2.65,2.11c-3.93,2.56-8,4.94-11.83,7.6a44.08,44.08,0,0,0-12.46,13.61c-.3.49-.5,1-.82,1.73L85.71,202ZM203.36,441.76a27.54,27.54,0,0,0,13.94-2.25c3.2-1.61,3.68-3.26,1.87-6.36-2.8-4.82-9-6.7-15.81-4.72ZM201.76,428c-4.57,1-8.54,2-11.75,4.88a4.23,4.23,0,0,0,.45,6.26c3.42,2.24,7.29,2.76,11.3,2.78Z"/>
<path class="colorMode1" style="stroke:none;fill-rule:nonzero;fill-opacity:1;" d="M351.81,155.93c1.15,13.75-.19,27.67.05,41.6q1-16.68,1.94-33.36l.73-.09a12,12,0,0,1,.49,2.24c.26,12.71-1.32,25.26-3.21,37.78-1,6.45-1.74,12.93-2.56,19.4a2.44,2.44,0,0,0,.53,1.41c.31-1.71.57-3.09,2.67-1.68.34.23,1.53-.69,2.26-1.19,16.63-11.42,33.46-22.54,49.81-34.35,23-16.63,45.66-33.78,68.47-50.69,2.19-1.62,4.47-3.11,6.76-4.7,1.66,1.58.75,2.44-.56,3.37-8.37,6-16.77,11.84-25,17.92-23.45,17.25-46.68,34.79-70.32,51.78-10.89,7.84-22.5,14.68-33.85,21.88-1.1.7-2.63.72-4,1.06.05-1.23,0-2.46.16-3.67a496.12,496.12,0,0,0,3.1-63.08,17.63,17.63,0,0,0-.27-1.75l-160.84,7c0,8.26,0,15.77,0,23.27a14.49,14.49,0,0,1-1,3.59l-1-.18c-.14-2.33-.35-4.67-.4-7-.12-5.4-.2-10.8-.21-16.2,0-2.14-.79-2.91-3-2.78-10.6.61-21.21,1.08-31.81,1.61l-49.32,2.5-87.22,4.48c-.71,0-1.41.09-2.12.11-2.13.06-4.56-.66-5.39,2.63L6,178.54a11.29,11.29,0,0,1-.76-3.08q.62-15.78,1.43-31.57a21.3,21.3,0,0,1,1-3.93l.43.6.73-.05c-.38-3-.75-6-1.13-9a27.9,27.9,0,0,1-.45-3.1c-.39-22.66-.71-45.32-1.19-68-.07-3.57-1-7.13-1.31-10.71C4.6,47.92,6,47.3,7.54,47.35c3.63.13,7.26.22,10.87.6,27.09,2.88,54.16,6,81.28,8.68,17.16,1.68,34.4,2.68,51.61,3.92,10.06.73,20.13,1.33,30.19,2,1,.06,2.11,0,3.61,0,0-1.17,0-2.28,0-3.39.06-14.61.1-29.22.2-43.83a54.44,54.44,0,0,1,.44-6.88c.46-3.54,2.49-4.43,5.42-2.6l5.5-4.13c.33,2,.46,3,2.77,2.83,4.18-.23,8.42.54,12.76.9-.54,2.76-3,1.46-4.14,2.05-.2,4.42-.39,8.64-.59,12.86h-1V8H201c1.45,14-.4,27.67-1.82,41.38l-.78,0c.17-2.31.44-4.63.49-6.94.25-10.54.39-21.07.68-31.6.1-3.52-3-3.32-5.3-5.35-.3,3-.66,5.25-.73,7.53-.25,7.76-.39,15.52-.58,23.29l-1.25,0V33.48c0-7-.07-14,0-21,0-2.29-1.12-3.29-3.39-4.13V62.82l22,1.37c.8-16.6,1.61-33.08,2.41-49.57l-.39-.14-4.7,10.11-.7-.26L211.84,10l1.82,1.24c.6-1.55,1.14-3,1.83-4.72l1.76-.18c.15.31.31.5.28.6-4.7,12.88-2.44,26.42-3.63,39.62-.52,5.7-.09,11.48-.09,17.59,1.51.15,3.4.42,5.3.53,7.69.41,15.38.75,23.07,1.16a7.54,7.54,0,0,1,2.54.54c.38.16.62.86.72,1.36,0,.19-.51.49-.79.74l-.68-.9c-2,.31-3.92,1-5.81.86q-39.22-2.17-78.45-4.55c-16.07-1-32.15-2-48.19-3.39-18.51-1.62-37-3.6-55.45-5.58-13.81-1.48-27.59-3.22-41.39-4.82a18.68,18.68,0,0,0-2.48,0l1.16,40.35-.81.07c-.09-1.21-.22-2.41-.29-3.63-.59-11.22-1.14-22.44-1.8-33.66a12.81,12.81,0,0,0-1.12-3.31l-.68.24c.53,20.54,1.55,41.07,1.44,61.6s-1.33,41-2.09,62.05c4.54-.23,9.18-.44,13.81-.73,16.43-1,32.85-2.17,49.28-3q57.27-3,114.54-5.73c27-1.34,53.92-2.7,80.88-3.9,26.17-1.17,52.35-2.13,78.52-3.25A49.47,49.47,0,0,0,351.81,155.93Z"/>
<path class="colorMode1" style="stroke:none;fill-rule:nonzero;fill-opacity:1;" d="M124.08,681.05c1.43-6,2.92-11.83,4.18-17.69q17.06-79.47,34.06-159c1.72-8,3.27-16.14,5.61-24,2-6.83,2-13.51,1.08-20.41-.87-6.74-1.4-13.53-2.08-20.35,2.46-1,3.11.28,3.26,2.22.77,9.7,1.49,19.4,2.31,29.1a10.77,10.77,0,0,0,1.09,4.25c2.44,4.41,5.22,8.63,7.6,13.06a81,81,0,0,1,3.35,8.15l-1.24.65c-4-6.38-8.05-12.75-12.37-19.61-.48,1.56-.92,2.65-1.16,3.79-4.44,21.56-8.68,43.16-13.33,64.67q-14.19,65.72-28.75,131.34c-2.13,9.64-2.8,10.18-12.74,10.26-8.39.07-16.78-.26-25.17-.59a15.53,15.53,0,0,1-5.34-1.4c-3-1.29-3.31-3.64-.86-5.77,2.89-2.49,6.47-3.15,10.13-3.4,9.1-.6,18,.26,26.61,3.55C121.45,680.33,122.63,680.61,124.08,681.05Zm-39.26.37c3.42,3.55,28.45,5.23,37.75,2.66C112.46,678.3,91.64,676.36,84.82,681.42Z"/>
<path class="colorMode1" style="stroke:none;fill-rule:nonzero;fill-opacity:1;" d="M184.39,431.92a14.39,14.39,0,0,1-.46-2.66q.19-21,.48-41.93c.15-12.22.38-24.43.49-36.64q.6-70.9,1.13-141.81c0-1.1,0-2.21,0-3.31l1-.18c.44,1.94,1.29,3.88,1.27,5.82q-.36,60.15-.93,120.29c-.33,30.8-.88,61.6-1.36,92.4,0,2.67-.33,5.33-.5,8Z"/>
<path class="colorMode1" style="stroke:none;fill-rule:nonzero;fill-opacity:1;" d="M184.46,441.11c2.39,0,2.25,1.62,2.29,3,.35,9.82,1,19.64.92,29.46-.2,34.88-.6,69.75-1,104.63q-.45,40.88-1,81.77c0,1.41-.13,2.82-.23,4.23,0,.12-.23.22-.87.79a22.68,22.68,0,0,1-1-4.32c-.2-10.53-.57-21.06-.37-31.59.65-34,1.89-67.94,2.18-101.92.23-27.43-.58-54.88-.92-82.31C184.45,443.61,184.46,442.39,184.46,441.11Z"/>
<path class="colorMode1" style="stroke:none;fill-rule:nonzero;fill-opacity:1;" d="M215.73,294.18c-.15-3.3,1.91-4.36,3.87-5.27s2.63-2.25,2.58-4.53c-.44-20-1.36-40-5.67-59.61-.1-.42-.2-.83-.34-1.39a30.33,30.33,0,0,1-16.84-5.7c-6-4-9.94-9.77-13.12-16.05-2-3.87,1.51-9.1,6.09-9.38a15.59,15.59,0,0,1,11.7,4.17,112.11,112.11,0,0,1,10.48,11.2c3.06,3.7,4.15,8.18,4.66,13,.77,7.19,2.73,14.27,3.3,21.47,1.12,13.92,1.64,27.89,2.37,41.84.15,2.8-.59,5.09-3.44,6.46A47.88,47.88,0,0,0,215.73,294.18Zm-23.59-100a15.51,15.51,0,0,0-3.09,2c-1.69,1.78-1.07,3.79,0,5.62,5.15,8.76,12.12,15.37,22.15,18.16a23.2,23.2,0,0,0,4.59.35c-.17-1.61.08-3.41-.57-4.8-3.5-7.5-8.48-13.88-15.57-18.29C197.47,195.81,194.81,195.21,192.14,194.17Z"/>
<path class="colorMode1" style="stroke:none;fill-rule:nonzero;fill-opacity:1;" d="M219.55,546.51c5.06,7.68,9.88,15.07,14.77,22.42,2.25,3.38,4.77,6.59,6.87,10.06a6.15,6.15,0,0,1,.46,4.18c-2.9,12.84-6.05,25.63-8.9,38.48-3.07,13.8-5.85,27.66-8.92,41.46-.36,1.62-1.69,3-2.58,4.53l-1-.4c.71-4.1,1.23-8.25,2.17-12.3q8-34.61,16.15-69.18a6,6,0,0,0-.72-5.19c-6.06-9.23-11.95-18.58-18-27.81A5.47,5.47,0,0,1,219.55,546.51Z"/>
<path class="colorMode1" style="stroke:none;fill-rule:nonzero;fill-opacity:1;" d="M188.11,673.36l6.65-6,1.1.8c-.46,4.59-2.94,8.45-4.8,12.54l-.82-.25,2.91-9.79-7.35,7.9-.83-.28c.53-2.53,1.07-5.07,1.72-8.14L181.44,680c-4-8.55-7.72-16.57-11.45-24.6l-.79.28c3,8.77,6,17.54,5.28,26.92l-.87.26a13.6,13.6,0,0,1-1-2.66c-1.7-11.26-4.53-22.16-10-32.26a5.34,5.34,0,0,1-.39-1.25,2.59,2.59,0,0,1,.15-.71,6.34,6.34,0,0,1,5.91,3.2c3.3,5.1,6.49,10.29,9.39,15.63,1.68,3.08,2.71,6.51,4.28,10.4,2.53-5.79,5.5-10.9,10.74-14.45q-2.58,6.33-5.15,12.67Z"/>
<path class="colorMode1" style="stroke:none;fill-rule:nonzero;fill-opacity:1;" d="M200.77,575.54l1.35-99.18.57-.13a7.12,7.12,0,0,1,.6,1.71c.19,2.47.43,4.94.4,7.41q-.49,35.19-1.12,70.37c-.11,5.84-.63,11.66-1,17.49a16.71,16.71,0,0,1-.48,2.42Z"/>
<path class="colorMode1" style="stroke:none;fill-rule:nonzero;fill-opacity:1;" d="M137.77,662.33c.69-.68,1.61-2.18,2.93-2.76,5.58-2.41,11.32-3.08,16.78.24a32.11,32.11,0,0,1,10.86,11.09,22,22,0,0,1,1.47,4.16l-.91.45a13.87,13.87,0,0,1-1.52-1.84c-2.66-4.64-6.57-8.07-10.83-11.13s-9.11-2.48-14.62-1.53c7.74,4.6,13.62,10.08,17.31,17.58l-.49.6a28.08,28.08,0,0,1-2.93-2.25c-3.08-3.05-5.89-6.4-9.19-9.18C144.16,665.68,141.09,664.32,137.77,662.33Z"/>
<path class="colorMode1" style="stroke:none;fill-rule:nonzero;fill-opacity:1;" d="M157.8,599.82q2.65,5.45,5.33,10.88l.8-.3c-.75-2.39-1.5-4.78-2.16-6.91,1.58.63,3.11,2.92,4,5.71a58,58,0,0,0,3.32,9.15,79,79,0,0,1,8.8,40.45c-1.11-5.46-2.24-10.91-3.34-16.37A102.8,102.8,0,0,0,165.76,617c-.56-1.14-1.84-1.92-2.8-2.86a7.31,7.31,0,0,0-.65-.43c-1.95-1.56-5.48-10.73-5.22-13.51Z"/>
<path class="colorMode1" style="stroke:none;fill-rule:nonzero;fill-opacity:1;" d="M192.36,530.49c.77-26.72-.22-53,1.07-79.3C195.83,454.76,194.74,525.47,192.36,530.49Z"/>
<path class="colorMode1" style="stroke:none;fill-rule:nonzero;fill-opacity:1;" d="M191.32,335.16c3.58,27.85.65,55.74-1,83.64Z"/>
<path class="colorMode1" style="stroke:none;fill-rule:nonzero;fill-opacity:1;" d="M210.21,683.19l-2.11-.6-2.88,4.35c-.7-4-1.25-7.16-1.79-10.29l-.57,0c-.27,1.52-.44,3.06-.84,4.54a7.84,7.84,0,0,1-2,3.56c.16-5.36,1.14-10.87.27-16.06s-3.58-10-5.53-15.11c3.55,1.41,5.23,5.08,11.57,25,1.28-1.39,2.59-2.8,4.29-4.66,1.28,3.87.14,6.59-.55,9.34Z"/>
<path class="colorMode1" style="stroke:none;fill-rule:nonzero;fill-opacity:1;" d="M254.84,72.62c22.21-1.12,44.38.13,66.55,1.42H254.82Z"/>
<path class="colorMode1" style="stroke:none;fill-rule:nonzero;fill-opacity:1;" d="M240.78,680.76a65,65,0,0,1,27.57-5.38,34,34,0,0,1,7.56,1.09c2,.49,3,2,2.47,4.5-2.94-3.43-6.91-3.3-10.57-3.4-10.46-.29-20.64,1-29.64,7a7.55,7.55,0,0,1-1.16.51l-.5-.64,4.35-3.8Z"/>
<path class="colorMode1" style="stroke:none;fill-rule:nonzero;fill-opacity:1;" d="M240.86,680.67c-1.33-1.73-3-1.13-4.66-.67-3.73,1-7.46,2-11.94,3.18.73-1.61,1-3,1.85-3.95,3-3.55,6.1-7.08,9.4-10.37a102.91,102.91,0,0,1,7.88-6.68,20.83,20.83,0,0,1,2.31-1.44l.49.61-18.75,18.14.46.72,13.78-3.14.48.79c-.46,1-.91,1.93-1.37,2.89Z"/>
<path class="colorMode1" style="stroke:none;fill-rule:nonzero;fill-opacity:1;" d="M94.27,165.46c15.21-.86,30.41-2.22,45.68-1.33l0,.86-45.64,1.85Z"/>
<path class="colorMode1" style="stroke:none;fill-rule:nonzero;fill-opacity:1;" d="M205,281q-.69-29.28-1.39-58.57l1.09-.19a17.72,17.72,0,0,1,.78,3.66c.06,13.34,0,26.68,0,40V281Z"/>
<path class="colorMode1" style="stroke:none;fill-rule:nonzero;fill-opacity:1;" d="M195.31,273V217.77a15.63,15.63,0,0,1,.84,3.53q.07,25.83,0,51.65Z"/>
<path class="colorMode1" style="stroke:none;fill-rule:nonzero;fill-opacity:1;" d="M446.14,153.9c11.67-9.2,23.26-18.56,36.07-26.24C471,137.42,458.65,145.77,446.14,153.9Z"/>
<path class="colorMode1" style="stroke:none;fill-rule:nonzero;fill-opacity:1;" d="M213,167.42c-.53,11.25-1,21.94-1.53,32.63l-.62.2c-.37-1.14-1.12-2.3-1.07-3.43q.69-13.63,1.69-27.25C211.53,168.83,212.46,168.16,213,167.42Z"/>
<path class="colorMode1" style="stroke:none;fill-rule:nonzero;fill-opacity:1;" d="M190.53,617.39V569.1h.65C193,585.16,191.89,601.22,190.53,617.39Z"/>
<path class="colorMode1" style="stroke:none;fill-rule:nonzero;fill-opacity:1;" d="M144.72,683.07h9.9l.06.84a35,35,0,0,1-11.79,1.35,2.63,2.63,0,0,1-.62-2.14c1.58-3.27,9.91-5.34,12.85-3.26.44.32.52,1.16.76,1.75-.7.17-1.49.64-2.09.47A11.27,11.27,0,0,0,144.72,683.07Z"/>
<path class="colorMode1" style="stroke:none;fill-rule:nonzero;fill-opacity:1;" d="M257.23,687.55l11.49-.56c-1.65,2.22-12.49,3-15.54,1.55,1.46-3.57,11.57-7.4,17.38-6.18l-13.48,4.4Z"/>
<path class="colorMode1" style="stroke:none;fill-rule:nonzero;fill-opacity:1;" d="M208.32,619.18c.58,10.67-3,20.73-5.48,30.94l4.3-31.11Z"/>
<path class="colorMode1" style="stroke:none;fill-rule:nonzero;fill-opacity:1;" d="M155.16,66.08H128C130.32,64.54,151.78,64.19,155.16,66.08Z"/>
<path class="colorMode1" style="stroke:none;fill-rule:nonzero;fill-opacity:1;" d="M202.67,168.22q1.08,12.51,2.17,25l-.87.27a7.45,7.45,0,0,1-1-2.26c-.62-7.28-1.15-14.57-1.67-21.86a3.56,3.56,0,0,1,.4-1.19Z"/>
<path class="colorMode1" style="stroke:none;fill-rule:nonzero;fill-opacity:1;" d="M14.1,136.3q-.62,11.22-1.22,22.44c-.09,1.75.06,3.53-.2,5.25a9,9,0,0,1-1.91,4.22l2.48-31.92Z"/>
<path class="colorMode1" style="stroke:none;fill-rule:nonzero;fill-opacity:1;" d="M165.78,417.7c.68,1,1.77,1.95,2,3.05.6,3.59.87,7.24,1.27,10.86-2.31.3-3.11-.45-3.24-2.36-.25-3.71-.71-7.4-1.08-11.1Z"/>
<path class="colorMode1" style="stroke:none;fill-rule:nonzero;fill-opacity:1;" d="M105.76,190.67c-6.36,3.45-12.1,6.58-17.87,9.66-.15.08-.55-.32-1.15-.7C92.21,194.83,97.88,191.12,105.76,190.67Z"/>
<path class="colorMode1" style="stroke:none;fill-rule:nonzero;fill-opacity:1;" d="M209.81,636.08c0,6.89-2.28,12.78-3.69,19.28C204.77,651.85,207.31,637.74,209.81,636.08Z"/>
<path class="colorMode1" style="stroke:none;fill-rule:nonzero;fill-opacity:1;" d="M197.94,299.4c-.59,5.23,1,10.77-3,16.19.7-3.25,1.25-5.85,1.8-8.44l-.34-.19-2.88,5.7-.6-.26,4.12-13.22Z"/>
<path class="colorMode1" style="stroke:none;fill-rule:nonzero;fill-opacity:1;" d="M132.41,686.55l1.46,2c-.23.13-.48.29-.49.28-.72-1-1.41-1.93-2.11-2.9,1-.56,2-1.47,3-1.6,2.52-.3,5,.15,6.77,2.21.47.54.44,1.5.64,2.27a6,6,0,0,1-2.18-.46C137.5,687,135.44,686,132.41,686.55Z"/>
<path class="colorMode1" style="stroke:none;fill-rule:nonzero;fill-opacity:1;" d="M190.34,314.8q.61-12.94,1.22-25.88l1,.05q-.65,12.93-1.3,25.87Z"/>
<path class="colorMode1" style="stroke:none;fill-rule:nonzero;fill-opacity:1;" d="M.4,51c-1.5-5.57,1.33-10.57,6.43-11A16.28,16.28,0,0,0,.4,51Z"/>
<path class="colorMode1" style="stroke:none;fill-rule:nonzero;fill-opacity:1;" d="M191.4,170.89q-.78,8.87-1.55,17.74l-.86-.06,1-17.75Z"/>
<path class="colorMode1" style="stroke:none;fill-rule:nonzero;fill-opacity:1;" d="M210.38,687.07l14.26,1.36-.06.69a84.44,84.44,0,0,1-14.31-.86Z"/>
<path class="colorMode1" style="stroke:none;fill-rule:nonzero;fill-opacity:1;" d="M236.27,687.17h12.2C244.42,690.39,240.36,688.76,236.27,687.17Z"/>
<path class="colorMode1" style="stroke:none;fill-rule:nonzero;fill-opacity:1;" d="M268.69,156.49h10.08v.76H268.7Z"/>
<path class="colorMode1" style="stroke:none;fill-rule:nonzero;fill-opacity:1;" d="M198,156.8c.12,1.92.21,3.53.35,5.82-1-.14-2.35.08-2.92-.49C194.24,161,195.55,158.22,198,156.8Z"/>
<path class="colorMode1" style="stroke:none;fill-rule:nonzero;fill-opacity:1;" d="M198,68.67c.28.69.52,1.39.84,2.06s.71,1.25,1.06,1.87c-.78.26-1.69.88-2.32.67s-1.65-1.24-1.63-1.88a9.46,9.46,0,0,1,1.23-3.07Z"/>
<path class="colorMode1" style="stroke:none;fill-rule:nonzero;fill-opacity:1;" d="M172.42,688.86c1.16-2.06,7.82-2.55,12.2-1Z"/>
<path class="colorMode1" style="stroke:none;fill-rule:nonzero;fill-opacity:1;" d="M16.51,53.22a13.87,13.87,0,0,1,9.1,1.34l-.12.86L16.37,54.2Z"/>
<path class="colorMode1" style="stroke:none;fill-rule:nonzero;fill-opacity:1;" d="M417.47,62.16l1.22-1.82,4.19,4C419.7,67.08,418.72,64.28,417.47,62.16Z"/>
<path class="colorMode1" style="stroke:none;fill-rule:nonzero;fill-opacity:1;" d="M206.77,48.21q.27-6.23.55-12.44l.82,0-.57,12.43Z"/>
<path class="colorMode1" style="stroke:none;fill-rule:nonzero;fill-opacity:1;" d="M196.12,179.81v-9.95l.9,0q-.33,5-.68,9.94Z"/>
<path class="colorMode1" style="stroke:none;fill-rule:nonzero;fill-opacity:1;" d="M167,417.39c-3.19-.84-3.59-2-1.5-4.53C166,414.4,166.42,415.74,167,417.39Z"/>
<path class="colorMode1" style="stroke:none;fill-rule:nonzero;fill-opacity:1;" d="M210.58,659.06v7.33l-.74,0c-.13-2.44-.27-4.88-.4-7.32Z"/>
<path class="colorMode1" style="stroke:none;fill-rule:nonzero;fill-opacity:1;" d="M101.52,250.75c-.54.77-1.23,2.46-2.48,3.42-1.67,1.28-3.67.56-5.07-.78a16.54,16.54,0,0,1-5.4-13.25c.19-3.41,3.14-4.66,5.81-2.56A17.42,17.42,0,0,1,101.52,250.75Z"/>
<path class="colorMode1" style="stroke:none;fill-rule:nonzero;fill-opacity:1;" d="M95.78,289.59c2.34-.92,4.66-1.88,7-2.77,13.09-5,24.93-11.93,33.81-23,3.23-4,5.44-8.83,8.1-13.3.42-.7.73-1.46,1.1-2.19l.85.23c-.2,1.22-.11,2.6-.67,3.61-2.51,4.54-4.72,9.36-7.93,13.36-9.15,11.39-21.22,18.79-34.87,23.66a54.74,54.74,0,0,1-7,1.54Z"/>
<path class="colorMode1" style="stroke:none;fill-rule:nonzero;fill-opacity:1;" d="M108.43,229.43c0-3.92,2.11-5.18,5.44-3.17a13.49,13.49,0,0,1,6.73,9.08,8.86,8.86,0,0,1-.39,4.62c-1,2.65-3.5,3.15-5.83,1.48C111.45,239.33,108.4,233.19,108.43,229.43Z"/>
<path class="colorMode1" style="stroke:none;fill-rule:nonzero;fill-opacity:1;" d="M78.6,243.53c-2.11-3.5,2-13.78,5.9-15.56Z"/>
<path class="colorMode1" style="stroke:none;fill-rule:nonzero;fill-opacity:1;" d="M103.08,215.11c2.16-3.27,9.58-2.86,12.71,1.24Z"/>
<path style="stroke:none;fill-rule:nonzero;fill:rgb(0%,82.745098%,66.27451%);fill-opacity:1;" d="M84.82,681.42c6.82-5.06,27.64-3.12,37.75,2.66C113.27,686.65,88.24,685,84.82,681.42Z"/>
<path style="stroke:none;fill-rule:nonzero;fill:rgb(0%,82.745098%,66.27451%);fill-opacity:1;" d="M192.14,194.17c2.67,1,5.33,1.64,7.52,3,7.09,4.41,12.07,10.79,15.57,18.29.65,1.39.4,3.19.57,4.8a23.2,23.2,0,0,1-4.59-.35c-10-2.79-17-9.4-22.15-18.16-1.08-1.83-1.7-3.84,0-5.62A15.51,15.51,0,0,1,192.14,194.17Z"/>
<path style="stroke:none;fill-rule:nonzero;fill:rgb(60,73,78);fill-opacity:1;" d="M66.34,90.37H56.52v49.06h46.53v-9.81H66.34Z"/>
<path style="stroke:none;fill-rule:nonzero;fill:rgb(60,73,78);fill-opacity:1;" d="M127.6,90.37,108,139.43h11.2l13.33-34.34L142,129.62H125.7l-3.65,9.81h35L137.41,90.37Z"/>
<path style="stroke:none;fill-rule:nonzero;fill:rgb(60,73,78);fill-opacity:1;" d="M170.9,107.55,158.63,90.37H146.37L166,119.81v19.62h9.81V119.81l19.62-29.44H183.31Z"/>
<path style="stroke:none;fill-rule:nonzero;fill:rgb(60,73,78);fill-opacity:1;" d="M199.66,98.1v41.33h46.53v-9.81h-36.7v-9.81h28.19V110H209.49v-9.81h36.7V90.37H199.66Z"/>
<path style="stroke:none;fill-rule:nonzero;fill:rgb(60,73,78);fill-opacity:1;" d="M262.12,99.73h25.17v10.21H264.85l.09,9.36h6.74l17.79,20.15h12.11L283.79,119.3h7a7.62,7.62,0,0,0,7.62-7.62V98a7.62,7.62,0,0,0-7.62-7.61H252.57v49.06h9.81l-.24-39.72Z"/>
<path style="stroke:none;fill-rule:nonzero;fill:rgb(0%,70.196078%,62.352941%);fill-opacity:1;" d="M356.65,90.58H337.32v9.3h19.33Z"/>
<path style="stroke:none;fill-rule:nonzero;fill:rgb(0%,70.196078%,62.352941%);fill-opacity:1;" d="M358.39,121.93v-3.86A8.21,8.21,0,0,0,350,110H318.85v-2.53H307.43v11H347v3.43h11.43Z"/>
<path style="stroke:none;fill-rule:nonzero;fill:rgb(0%,82.745098%,66.27451%);fill-opacity:1;" d="M318.87,104.46V99.88h15.29v-9.3H307.45v13.88Z"/>
<path style="stroke:none;fill-rule:nonzero;fill:rgb(0%,82.745098%,66.27451%);fill-opacity:1;" d="M347,124.92v5.42H331.7v9.3h18.83a7.7,7.7,0,0,0,7.84-7.58v-7.14H347Z"/>
<path style="stroke:none;fill-rule:nonzero;fill:rgb(0%,70.196078%,62.352941%);fill-opacity:1;" d="M318,125.43v4.91h10.59v9.3H315a7.7,7.7,0,0,1-7.84-7.58v-6.64H318Z"/>
<path style="stroke:none;fill-rule:nonzero;fill:rgb(0%,82.745098%,66.27451%);fill-opacity:1;" d="M202.32,427.19s-14.69,3.4-14,7.79c0,0-2.77,6.7,13.43,7.91,0,0,18.24-.16,18.94-6.38C220.7,436.51,220.71,425.11,202.32,427.19Z"/>
</g>
</g>
</svg>