<svg xmlns="http://www.w3.org/2000/svg" xmlns:xlink="http://www.w3.org/1999/xlink" id="Layer_1" x="0" y="0" version="1.1" viewBox="0 0 175 110" xml:space="preserve" style="enable-background:new 0 0 175 110"><style type="text/css">.st0{fill:#ddd}.st1{fill:#4e4e4e}.st2{clip-path:url(#SVGID_3_)}.st3{clip-path:url(#SVGID_4_)}.st4{fill:#585858}.st5{clip-path:url(#SVGID_7_)}.st6{clip-path:url(#SVGID_8_)}.st7{fill:#4a4a4a}.st8{fill:#4b4b4b}.st9{fill:#838383}.st10{fill:#dcdcdc}.st11{fill:#647881}.st12{fill:#5b6e76}.st13{fill:#48565c}.st14{fill:#3c494e}.st15{fill:#f8f8f8}.st16{fill:#999}.st17{fill:#fff}.st18{fill:#62accd}.st19{fill:#adadad}.st20{fill:#323e43}.st21{fill:#f0910a}.st22{fill:#ffb300}.st23{fill:#ffca00}.st24{fill:#e0e0e0}.st25{fill:#858585}.st26{fill:#dadada}.st27{fill:#ba7008}.st28{fill:#a7a7a7}.st29{fill:#e38909}.st30{fill:#d8d8d8}.st31{fill:#c9c9c9}.st32{fill:#379780}.st33{fill:#00d3a9}.st34{fill:#00b39f}.st35{fill:#444}.st36{fill:#848484}.st37{fill:#1d5a82}.st38{fill:#3497da}.st39{fill:#1a7bad}.st40{fill:#008f7f}.st41{fill:#006458}.st42{fill:#246896}.st43{fill:#9c9c9c}.st44{fill:#c7c7c7}.st45{fill:#206491}.st46{fill:#1c83b8}.st47{fill:#919191}.st48{fill:#cc9b00}.st49{fill:#fcc000}.st50{fill:#fcce3a}.st51{fill:#011c2b}.st52{fill:#025074}.st53{fill:#c2c2c2}.st54{fill:#b68b00}.st55{fill:#dea900}.st56{fill:#a27b00}.st57{fill:#c2b6a1}.st58{fill:#d3b8a6}.st59{fill:#dcceb6}.st60{fill:#edceba}.st61{fill:#f0e7d8}.st62{fill:#02374f}.st63{fill:#491a09}.st64{fill:#037ab0}.st65{fill:#025e87}.st66{fill:#025375}.st67{fill:#00473d}.st68{fill:#6f3b21}.st69{fill:#5c311b}.st70{fill:#99522d}.st71{fill:#854727}.st72{fill:#6f3c21}.st73{fill:#b76236}.st74{fill:#e0b477}.st75{fill:#bb884f}.st76{fill:#efcd90}.st77{fill:#f7ecea}.st78{fill:#c2ab9d}.st79{fill:#5c4123}.st80{fill:#3c494f}.st81{fill:#828c8c}.st82{fill:#a0aaaa}</style><path d="M164.8,67.2l-6.4,1l4.5-0.7l3.6-5.6l-4.5-7.5l-4.7,0.7l-1.3-0.7c-0.3-0.2-0.7-0.3-1-0.5v-0.1h-15.5v-0.5H127	c-2.5,1.7-4.4,3.7-5.3,5.6c-1.1,2.4-0.4,4.4,1.6,5.6l1,0.6l-0.4,0.9l-12.3-1.8l-2.4,0.4l-0.9,1.9l17,4.4l2.4-0.4l1.7-3.6	c1,0.1,2.1,0.1,3.2,0c0.2,0.2,0.5,0.4,0.8,0.6l1.6,0.9c-0.1-0.1-0.2-0.1-0.3-0.2c1.2,0.8,3.1,1.3,5.5,1.2l10,18.5l-27.7,4.3	l-0.1-0.1c-0.5-0.3-1.4-0.4-2-0.3c-0.4,0.1-0.6,0.2-0.6,0.3V92v0.1l-11-6.3l0.1-0.3l-3.2-0.3h-0.1l-0.4-0.2	c-0.1-0.2-0.3-0.5-0.6-0.7c-0.2-0.1-0.4-0.1-0.5-0.1l-0.4,0.1h0.1h-0.3c-0.2,0-0.3,0.1-0.3,0.3c-0.1,0.1-0.1,0.3,0,0.5	c0.1,0.3,0.3,0.5,0.6,0.6l0.4-0.1v-0.2c-0.2,0-0.3-0.2-0.3-0.4v-0.3c0-0.1,0.1-0.1,0.1-0.1h0.1c0.3,0.1,0.4,0.5,0.5,0.6v0.1l0.3,0.2	l2.1,2.7l0.8-0.1l0.1-0.2l11,6.4v0.1l-0.1,0.3v0.2c0,0.1,0.1,0.1,0.2,0.2h0.1c0.3,0.2,0.8,0.3,1.2,0.3l0.1-0.3h-0.1h0.1l-0.1,0.3	h0.8c0.3,0,0.5-0.2,0.6-0.3l0.1-0.3v-0.2l34.8,0.6l5.4-7l0.2-0.5l0.3-0.6L161.8,72l4.5-0.7l1.2-2.5L164.8,67.2L164.8,67.2z M119,93.8l-11.2-6.5l0.6-1.3l11.1,6.4l0.1,0.1L119,93.8z M131.8,92.6l0.8-0.1l0.2,0.1H131.8z M134.5,92.7l-0.6-0.4l3.9-0.6l1.9,1.1	L134.5,92.7L134.5,92.7z M141.4,92.8l-2.2-1.3l3.9-0.6l3.5,2L141.4,92.8z M148.2,92.9l-3.8-2.2l2.7-0.4l4.7,2.7L148.2,92.9	L148.2,92.9z M155.2,92.8l-5.1-3l8.4-1.3L155.2,92.8L155.2,92.8z M160.1,86.3l-5.4,0.8l-7.4-19.2c0.4-0.1,0.8-0.3,1.2-0.4l3,1.7	l1.4-0.2l1.2,0.7l-0.7,1.6l2.3,1.4l3.6-0.6L160.1,86.3L160.1,86.3z" class="st0"/><path d="M85.8,53.3l0.3-0.2l-0.3-0.3L85.5,53L85.8,53.3z" class="st1"/><g><defs><polygon id="SVGID_1_" points="1 1 2 1 1 2"/></defs><defs><polygon id="SVGID_2_" points="-1 -1 -2 -1 -1 -2"/></defs><clipPath id="SVGID_3_"><use xlink:href="#SVGID_1_" style="overflow:visible"/></clipPath><clipPath id="SVGID_4_" class="st2"><use xlink:href="#SVGID_2_" style="overflow:visible"/></clipPath><g class="st3"><path d="M86.9,54.3l0.3-0.2h-0.1c-0.1,0-0.2,0-0.4-0.1c-0.1-0.1-0.3-0.2-0.4-0.4S86,53.1,86.1,53l-0.3,0.2 c-0.1,0.2,0.1,0.4,0.2,0.6c0.1,0.1,0.2,0.3,0.4,0.4C86.5,54.3,86.7,54.4,86.9,54.3C86.8,54.3,86.8,54.3,86.9,54.3z" class="st4"/></g></g><g><defs><polygon id="SVGID_5_" points="1 1 2 1 1 2"/></defs><defs><polygon id="SVGID_6_" points="-1 -1 -2 -1 -1 -2"/></defs><clipPath id="SVGID_7_"><use xlink:href="#SVGID_5_" style="overflow:visible"/></clipPath><clipPath id="SVGID_8_" class="st5"><use xlink:href="#SVGID_6_" style="overflow:visible"/></clipPath><g class="st6"><path d="M87.1,54.7l0.3-0.2c0.2-0.1,0.2-0.3,0.2-0.5c0-0.5-0.3-1.1-0.4-1.3l-0.3,0.2c0.1,0.2,0.5,0.8,0.4,1.3 C87.3,54.4,87.2,54.6,87.1,54.7z" class="st4"/></g></g><path d="M86.9,52.9l0.3-0.2v-0.8l-0.3,0.2V52.9z" class="st7"/><path d="M86.9,52.1l0.3-0.2l-0.3-0.1l-0.3,0.1L86.9,52.1z" class="st8"/><path d="M86.6,51.9v1l0.1,0.1c0.1,0.2,0.4,0.7,0.4,1c0,0.2-0.1,0.3-0.2,0.3s-0.2,0-0.4-0.1c-0.1-0.1-0.3-0.2-0.4-0.4	s-0.3-0.5-0.2-0.6l-0.3-0.3c-0.1,0.3,0,0.7,0.3,1.1l0.5,0.5c0.2,0.1,0.4,0.1,0.5,0.1c0.2-0.1,0.3-0.3,0.4-0.5c0-0.5-0.3-1.1-0.4-1.3	V52L86.6,51.9z" class="st9"/><path d="M88.1,32.7h0.5v17.4h-0.5V32.7z M85.8,31.2h0.5v18.6h-0.5V31.2z" class="st10"/><path d="M152.9,91.7l2-1.2l-6.2-23.7l-2,1.2L152.9,91.7z" class="st11"/><path d="M146.7,68l2-1.2l-14.6-8.5l-2.1,1.2L146.7,68L146.7,68z" class="st12"/><path d="M132,59.5v3.9l11,6.3l7.1,20.4l2.8,1.6L146.7,68L132,59.5L132,59.5z" class="st13"/><path d="M156.4,51.3l-2-1.1l7.2,12.1l2,1.2C163.6,63.5,156.4,51.3,156.4,51.3z" class="st14"/><path d="M145.5,53.8l-2.1-1.1v3.8l2.1,1.2V53.8z" class="st15"/><path d="M160.1,45.4l-2-1.2l-14.7,8.5l2.1,1.1L160.1,45.4L160.1,45.4z" class="st12"/><path d="M145.5,53.8v3.9l10.9-6.4l7.2,12.2l2.8-1.6l-6.3-16.5L145.5,53.8L145.5,53.8z" class="st11"/><path d="M115.6,54l2-1.2L110.5,65l-2.1,1.2C108.4,66.2,115.6,54,115.6,54z" class="st14"/><path d="M126.6,56.5l2-1.2v3.9l-2,1.2C126.6,60.4,126.6,56.5,126.6,56.5z" class="st15"/><path d="M111.9,48.1l2.1-1.2l14.6,8.4l-2,1.2C126.6,56.5,111.9,48.1,111.9,48.1z" class="st12"/><path d="M126.6,56.5v3.9l-11-6.4l-7.2,12.2l-2.8-1.6l6.3-16.5L126.6,56.5z" class="st13"/><path d="M117.9,54.1v2.6c0,2.7,1.8,5.5,5.4,7.6c7.2,4.2,19,4.2,26.3,0c3.7-2.1,5.5-4.9,5.5-7.7V54	c0,2.8-1.8,5.5-5.5,7.7c-7.3,4.2-19,4.2-26.3,0C119.7,59.6,117.9,56.8,117.9,54.1z" class="st16"/><path d="M123.4,46.7c-7.3,4.2-7.3,11-0.1,15.2c7.2,4.2,19,4.2,26.3,0s7.3-11,0.1-15.2	C142.4,42.5,130.7,42.5,123.4,46.7z" class="st17"/><path d="M128.7,48l0.1,6.3c0,1.1,0.7,2.3,2.2,3.1c0.5,0.3,1.2,0.6,1.8,0.8l-0.1-6.3c-0.6-0.2-1.3-0.5-1.8-0.8	C129.5,50.3,128.7,49.1,128.7,48z" class="st14"/><path d="M129.7,48l0.1,6.3c0,1.1,0.7,2.3,2.2,3.1c0.5,0.3,1.2,0.6,1.8,0.8l-0.1-6.3c-0.6-0.2-1.3-0.5-1.8-0.8	C130.5,50.3,129.7,49.1,129.7,48z" class="st14"/><path d="M128.8,48l0.1,6.3c0,1.1,0.7,2.3,2.2,3.1c0.5,0.3,1.2,0.6,1.8,0.8l-0.1-6.3c-0.6-0.2-1.3-0.5-1.8-0.8	C129.6,50.3,128.8,49.1,128.8,48z" class="st18"/><path d="M132.8,51.9l0.1,6.3c2.3,0.7,5.1,0.7,7.4,0l-0.1-6.3C137.8,52.6,135,52.6,132.8,51.9z" class="st18"/><path d="M140.1,51.9l0.1,6.3c0.6-0.2,1.2-0.4,1.7-0.8c1.5-0.9,2.3-2,2.3-3.2l-0.1-6.3c0,1.2-0.8,2.3-2.3,3.2	C141.2,51.5,140.6,51.7,140.1,51.9z" class="st18"/><path d="M131,44.8c-3,1.7-3,4.6,0,6.3s7.9,1.7,10.9,0s3-4.6,0-6.3S134,43.1,131,44.8z" class="st8"/><path d="M121.3,44.3v2.1c0,2.2,1.5,4.5,4.4,6.2c5.9,3.4,15.5,3.4,21.5,0c3-1.7,4.5-4,4.5-6.3v-2.1	c0,2.3-1.5,4.5-4.5,6.3c-5.9,3.4-15.6,3.4-21.5,0C122.8,48.7,121.3,46.5,121.3,44.3z" class="st13"/><path d="M125.8,38.2c-5.9,3.4-6,9-0.1,12.4s15.5,3.4,21.5,0s6-9,0.1-12.4C141.3,34.8,131.7,34.8,125.8,38.2L125.8,38.2	z" class="st17"/><path d="M155.7,35.1v7.3l-9.6,5.6v-7.3L155.7,35.1z" class="st10"/><path d="M146.1,40.7V48l-14.7-8.5v-7.3L146.1,40.7z" class="st19"/><path d="M155.7,35.1l-9.6,5.6l-14.7-8.5l9.6-5.6L155.7,35.1z" class="st17"/><path d="M132.7,24.6v17.6c0,0.3,0.2,0.7,0.7,0.9c0.2,0.1,0.3,0.2,0.5,0.2V25.7c-0.2-0.1-0.4-0.1-0.5-0.2	C132.9,25.3,132.7,25,132.7,24.6z" class="st14"/><path d="M133.8,25.8v17.6c0.7,0.2,1.5,0.2,2.2,0V25.8C135.3,26,134.5,26,133.8,25.8z" class="st20"/><path d="M136,25.8v17.6c0.2-0.1,0.4-0.1,0.5-0.2c0.4-0.3,0.7-0.6,0.7-0.9V24.7c0,0.3-0.2,0.7-0.7,0.9	C136.4,25.6,136.2,25.7,136,25.8z" class="st14"/><path d="M133.3,23.7c-0.9,0.5-0.9,1.3,0,1.9c0.9,0.5,2.3,0.5,3.2,0s0.9-1.3,0-1.9C135.6,23.2,134.2,23.2,133.3,23.7z" class="st8"/><path d="M130.3,25.3v3.2l3.7,2.1v-3.1L130.3,25.3z" class="st21"/><path d="M134,27.5v3.1l8.7-5l-0.1-3.1L134,27.5L134,27.5z" class="st22"/><path d="M130.3,25.3l3.7,2.2l8.6-5l-3.7-2.1L130.3,25.3z" class="st23"/><path d="M117.5,16.1l-1.6-1l-3.1,1.7l2.6,1.5L117.5,16.1z" class="st24"/><path d="M115.4,18.3l-2.6-1.5L127,47l2.6,1.6C129.6,48.6,115.4,18.3,115.4,18.3z" class="st25"/><path d="M117.5,16.1l-2.1,2.2l14.2,30.3l5.4-4.2C135,44.4,117.5,16.1,117.5,16.1z" class="st10"/><path d="M123.1,12.1l-0.9-0.5l-1.6,0.9l0.9,0.5L123.1,12.1z" class="st26"/><path d="M121.5,13l-0.9-0.5L134,24.2l0.9,0.5L121.5,13z" class="st27"/><path d="M123.1,12.1l-1.6,0.9l13.4,11.7l1.7-0.9C136.6,23.8,123.1,12.1,123.1,12.1z" class="st22"/><path d="M85.9,30.5l0.1-0.1c0.3-0.2,0.5-0.2,0.7-0.1l0.4,0.2c-0.2-0.1-0.4-0.1-0.7,0.1l-0.1,0.1	c-0.1,0.1-0.3,0.2-0.4,0.4l-0.4-0.2C85.6,30.7,85.8,30.6,85.9,30.5z" class="st28"/><path d="M85.9,31.1l-0.4-0.2c-0.3,0.3-0.4,0.8-0.5,1.1l0.4,0.2C85.4,31.9,85.6,31.4,85.9,31.1z" class="st10"/><path d="M85.1,32l0.4,0.2v0.1c0,0.1,0,0.2,0.1,0.3c0,0.1,0.1,0.2,0.2,0.3l-0.4-0.2c-0.1-0.1-0.2-0.2-0.2-0.3	C85.1,32.4,85.1,32.3,85.1,32C85.1,32.1,85.1,32.1,85.1,32z" class="st28"/><path d="M86.4,30.6c-0.5,0.3-1,1.1-1,1.7s0.4,0.9,1,0.6c0.5-0.3,1-1.1,1-1.7S86.9,30.3,86.4,30.6z" class="st25"/><path d="M120.8,13.5l-1.6-1l-9.1,5.3l1.6,0.9C111.7,18.7,120.8,13.5,120.8,13.5z" class="st21"/><path d="M110.7,10.3l-1.6-0.9l0.1,8.9l1.6,1C110.8,19.3,110.7,10.3,110.7,10.3z" class="st21"/><path d="M123.2,12.1l-1.6-0.9l-11.7-4.5l1.6,1L123.2,12.1z" class="st27"/><path d="M110.8,19.3l-1.6-1L90.8,28.9l1.6,0.9L110.8,19.3z" class="st21"/><path d="M106.3,12.7l-0.6-0.4l0.1,8.7l0.6,0.4L106.3,12.7z" class="st29"/><path d="M106.8,12.4l-0.6-0.4l-0.5,0.3l0.6,0.4L106.8,12.4z" class="st30"/><path d="M106.3,12.7l0.1,8.7l0.4-0.3v-8.7C106.8,12.4,106.3,12.7,106.3,12.7z" class="st22"/><path d="M101.9,17.8l-0.6-0.3v6.1l0.6,0.3V17.8z" class="st29"/><path d="M102.4,17.5l-0.6-0.3l-0.5,0.3l0.6,0.3L102.4,17.5z" class="st30"/><path d="M101.9,17.8v6.1l0.5-0.2v-6.2L101.9,17.8z" class="st22"/><path d="M97.5,22.1l-0.6-0.3v4.3l0.6,0.4C97.5,26.5,97.5,22.1,97.5,22.1z" class="st29"/><path d="M98,21.9l-0.6-0.4l-0.5,0.3l0.6,0.3C97.5,22.1,98,21.9,98,21.9z" class="st30"/><path d="M97.5,22.1v4.4l0.5-0.3v-4.3C98,21.9,97.5,22.1,97.5,22.1z" class="st22"/><path d="M111.5,7.7l-1.6-1l-23,24.5l1.6,0.9C88.5,32.1,111.5,7.7,111.5,7.7z" class="st23"/><path d="M88.5,32.1l-1.6-0.9v1.7l1.6,1V32.1z" class="st31"/><path d="M111.5,7.7l11.7,4.5V14L88.6,34v-1.8C88.6,32.2,111.5,7.7,111.5,7.7z M110.8,19.3v-8.9L92.5,29.9L110.8,19.3z M111.7,18.7l9.1-5.2l-9.1-3.5V18.7z" class="st22"/><path d="M86.3,30.9l0.1-0.1c0.2-0.1,0.4-0.1,0.6-0.1l2.6,1.5c-0.1-0.1-0.4-0.1-0.6,0.1c0,0-0.1,0-0.1,0.1l-0.3,0.3	L86,31.2C86,31.2,86.3,30.9,86.3,30.9z" class="st13"/><path d="M88.6,32.7L86,31.2c-0.2,0.3-0.4,0.6-0.4,0.9l2.6,1.5C88.2,33.3,88.4,33,88.6,32.7z" class="st12"/><path d="M85.6,32.2l2.6,1.5v0.4c0,0.1,0.1,0.2,0.2,0.2l-2.6-1.5c-0.1,0-0.1-0.1-0.2-0.2V32.2z" class="st13"/><path d="M89,32.3c-0.4,0.3-0.8,0.9-0.8,1.4s0.4,0.7,0.8,0.5c0.4-0.3,0.8-0.9,0.8-1.4S89.5,32.1,89,32.3z" class="st25"/><path d="M88.9,32.3L88.9,32.3c0.4-0.3,0.6-0.3,0.8-0.2l0.4,0.2c-0.2-0.1-0.4-0.1-0.7,0.1l-0.1,0.1	c-0.1,0.1-0.3,0.2-0.4,0.4l-0.4-0.2C88.6,32.5,88.8,32.4,88.9,32.3z" class="st28"/><path d="M88.9,32.9l-0.4-0.2c-0.3,0.3-0.4,0.8-0.5,1.1l0.4,0.2C88.5,33.6,88.6,33.2,88.9,32.9z" class="st10"/><path d="M88.1,33.8l0.4,0.2v0.1c0,0.1,0,0.2,0.1,0.3c0,0.1,0.1,0.2,0.2,0.3l-0.4-0.2c-0.1-0.1-0.2-0.2-0.2-0.3	C88.1,34.1,88.1,34,88.1,33.8C88.1,33.9,88.1,33.8,88.1,33.8z" class="st28"/><path d="M89.4,32.4c-0.5,0.3-1,1.1-1,1.7c0,0.6,0.4,0.9,1,0.6c0.5-0.3,1-1.1,1-1.7C90.4,32.3,90,32.1,89.4,32.4z" class="st25"/><path d="M139.6,45l-6.3-3.7l-1.5,7.7l6.3,3.6L139.6,45z" class="st32"/><path d="M139,45.3l-5.3-3.1l-1,5.4l5.3,3.1L139,45.3z" class="st11"/><path d="M146.1,41.3l-6.3-3.7l-6.5,3.7l6.3,3.7L146.1,41.3z" class="st33"/><path d="M139.6,45l-1.5,7.6l8-4.6v-6.7L139.6,45z" class="st34"/><path d="M86.6,52.6l0.7-0.5l1.7-2.4l-0.7,0.4L86.6,52.6z" class="st35"/><path d="M88.3,50.1l0.7-0.4l-3.5-2.1L84.8,48L88.3,50.1z" class="st8"/><path d="M84.8,48l1.8,4.6l1.7-2.5L84.8,48z" class="st36"/><g><path d="M81.6,77.9l5.1-3v-5.6l-5.1,2.9V77.9z" class="st37"/><path d="M81.6,72.2l5.1-2.9l-13.2-7.6l-5,2.9L81.6,72.2z" class="st38"/><path d="M68.5,64.6v5.7l13.1,7.6v-5.7L68.5,64.6z" class="st39"/><path d="M81.6,72.3l5.1-3v-5.7l-5.1,3V72.3z" class="st40"/><path d="M81.6,66.6l5.1-3L73.5,56l-5,3L81.6,66.6z" class="st34"/><path d="M68.5,59v5.6l13.1,7.7v-5.7L68.5,59z" class="st41"/><path d="M75.6,81.3l5.1-2.9v-5.7l-5.1,3V81.3z" class="st37"/><path d="M75.6,75.7l5.1-3l-13.2-7.6l-5,3L75.6,75.7z" class="st42"/><path d="M62.5,68.1v5.6l13.1,7.6v-5.6L62.5,68.1z" class="st39"/><path d="M69.7,84.7l5.1-2.9v-5.7l-5.1,3V84.7z" class="st43"/><path d="M69.7,79.1l5.1-3l-13.2-7.6l-5,3L69.7,79.1z" class="st38"/><path d="M56.6,71.5l-0.1,5.6l13.2,7.6v-5.6L56.6,71.5z" class="st44"/><path d="M69.7,79.1l5.1-2.9v-5.7l-5.1,3V79.1z" class="st45"/><path d="M69.7,73.5l5.1-3l-13.2-7.6l-5,2.9L69.7,73.5z" class="st38"/><path d="M56.6,65.8l-0.1,5.7l13.2,7.6v-5.6L56.6,65.8z" class="st46"/><path d="M96.7,86.6l5.1-3V78l-5.1,3V86.6z" class="st37"/><path d="M96.7,81l5.1-3l-13.2-7.6l-5.1,2.9L96.7,81z" class="st38"/><path d="M83.5,73.3V79l13.2,7.6V81L83.5,73.3z" class="st39"/><path d="M96.7,81l5.1-3v-5.7l-5.1,3V81z" class="st45"/><path d="M96.7,75.3l5.1-3l-13.2-7.5l-5.1,2.9L96.7,75.3z" class="st38"/><path d="M83.5,67.7v5.6L96.7,81v-5.7C96.7,75.3,83.5,67.7,83.5,67.7z" class="st46"/><path d="M90.7,90.1l5.1-3v-5.7l-5.1,3V90.1z" class="st37"/><path d="M90.7,84.4l5.1-3l-13.2-7.6l-5.1,3L90.7,84.4z" class="st38"/><path d="M77.5,76.8v5.6l13.2,7.7v-5.7L77.5,76.8z" class="st39"/><path d="M90.7,84.4l5.1-2.9v-5.7l-5.1,3V84.4z" class="st44"/><path d="M90.7,78.8l5.1-3l-13.2-7.6l-5.1,3L90.7,78.8z" class="st17"/><path d="M77.5,71.2v5.6l13.2,7.6v-5.6L77.5,71.2z" class="st47"/><path d="M84.8,93.5l5-3v-5.7l-5,3V93.5z" class="st43"/><path d="M84.8,87.8l5-3l-13.1-7.6l-5.1,3L84.8,87.8z" class="st38"/><path d="M71.6,80.2v5.6l13.2,7.7v-5.7L71.6,80.2z" class="st44"/><path d="M84.8,87.8l5-2.9v-5.7l-5,3V87.8z" class="st45"/><path d="M84.8,82.2l5-3l-13.1-7.6l-5.1,3L84.8,82.2z" class="st38"/><path d="M71.6,74.6v5.6l13.2,7.6v-5.6L71.6,74.6z" class="st46"/><path d="M112.4,95.7l5-3v-5.6l-5,2.9V95.7z" class="st40"/><path d="M112.4,90l5-2.9l-13.1-7.6l-5.1,2.9L112.4,90z" class="st34"/><path d="M99.2,82.4v5.7l13.2,7.6V90L99.2,82.4z" class="st41"/><path d="M106.4,99.1l5-2.9v-5.7l-5,3V99.1z" class="st44"/><path d="M106.4,93.5l5-3l-13.1-7.6l-5.1,3L106.4,93.5z" class="st38"/><path d="M93.2,85.9v5.6l13.2,7.6v-5.6L93.2,85.9z" class="st47"/><path d="M106.4,93.5l5-2.9v-5.7l-5,3V93.5z" class="st45"/><path d="M106.4,87.9l5-3l-13.1-7.6l-5.1,2.9L106.4,87.9z" class="st38"/><path d="M93.2,80.2v5.7l13.2,7.6v-5.6L93.2,80.2z" class="st46"/><path d="M100.4,102.5l5.1-2.9v-5.7l-5.1,3V102.5z" class="st37"/><path d="M100.4,96.9l5.1-3l-13.1-7.6l-5.1,3L100.4,96.9z" class="st38"/><path d="M87.3,89.3v5.6l13.1,7.6v-5.6L87.3,89.3z" class="st39"/><path d="M100.4,96.9l5.1-2.9v-5.7l-5.1,3V96.9z" class="st41"/><path d="M100.4,91.3l5.1-3l-13.1-7.6l-5.1,2.9L100.4,91.3z" class="st34"/><path d="M87.3,83.6v5.7l13.1,7.6v-5.6L87.3,83.6z" class="st40"/></g><g><path d="M24.5,92.8V94l10.7,5.7v-1.2L24.5,92.8z" class="st48"/><path d="M35.2,98.5v1.2l1.2-0.7v-1.2L35.2,98.5z" class="st49"/><path d="M24.5,92.8l10.7,5.7l1.2-0.7l-10.7-5.7L24.5,92.8z" class="st50"/><path d="M36.4,85.3l0.1,1.2l10.7,5.7L47.1,91L36.4,85.3z" class="st48"/><path d="M47.1,91l0.1,1.2l1.1-0.8v-1.2C48.3,90.2,47.1,91,47.1,91z" class="st49"/><path d="M36.4,85.3L47.1,91l1.2-0.8l-10.7-5.7C37.6,84.5,36.4,85.3,36.4,85.3z" class="st50"/><path d="M19.9,86.6c0.3-0.2,0.8-0.2,1.4,0c0.1,0,0.1,0.1,0.2,0.1c0.8,0.4,1.5,1.3,1.9,2.2c0.2,0.5,0.4,1,0.4,1.5 c0,0.7-0.2,1.2-0.6,1.4l-1.4,0.9c0.4-0.2,0.6-0.7,0.6-1.4c0-0.5-0.2-1-0.4-1.5c-0.4-0.9-1.1-1.7-1.9-2.2c-0.1,0-0.1-0.1-0.2-0.1 c-0.5-0.2-1-0.2-1.4,0L19.9,86.6z" class="st51"/><path d="M20,87.6c-1.2-0.6-2.2-0.1-2.1,1.3c0,1.4,1.1,3,2.3,3.7c1.2,0.6,2.2,0.1,2.1-1.3S21.2,88.2,20,87.6z" class="st52"/><path d="M20,88.9c-0.6-0.3-1,0-1,0.6s0.5,1.4,1.1,1.7s1,0,1-0.6S20.6,89.2,20,88.9z" class="st53"/><path d="M12.9,82.8c0.3-0.2,0.8-0.2,1.4,0c0.1,0,0.1,0.1,0.2,0.1c0.8,0.4,1.5,1.3,1.9,2.2c0.2,0.5,0.4,1,0.4,1.5 c0,0.7-0.2,1.2-0.6,1.4l-1.4,0.9c0.4-0.2,0.6-0.7,0.6-1.4c0-0.5-0.2-1-0.4-1.5c-0.4-0.9-1.1-1.7-1.9-2.2c-0.1,0-0.1-0.1-0.2-0.1 c-0.5-0.2-1-0.2-1.4,0C11.5,83.7,12.9,82.8,12.9,82.8z" class="st51"/><path d="M13,83.8c-1.2-0.6-2.2-0.1-2.1,1.3c0,1.4,1.1,3,2.3,3.7c1.2,0.6,2.2,0.1,2.1-1.3S14.2,84.5,13,83.8z" class="st52"/><path d="M13,85.1c-0.6-0.3-1,0-1,0.6s0.5,1.4,1.1,1.7s1,0,1-0.6S13.6,85.4,13,85.1z" class="st53"/><path d="M27.1,78.3l10.4,5.6v0.6L27.2,79L27.1,78.3z" class="st54"/><path d="M37.5,83.9v0.6l0.8-0.5v-0.6L37.5,83.9z" class="st55"/><path d="M27.1,77.4l11.2,6l-0.8,0.5l-10.4-5.6V77.4z" class="st56"/><path d="M10.3,81.4l0.1,4.1L22.7,92l-0.1-4L10.3,81.4z" class="st32"/><path d="M22.6,88l0.1,4l11.9-7.4l-0.1-4.1L22.6,88z" class="st40"/><path d="M10.3,81.4L22.6,88l11.9-7.5l-12.4-6.6L10.3,81.4z" class="st34"/><path d="M14.5,86v0.6l10.7,5.8v-0.7L14.5,86z" class="st54"/><path d="M25.2,91.7v0.7l0.8-0.5v-0.7L25.2,91.7z" class="st55"/><path d="M14.5,86l10.7,5.7l0.8-0.5l-10.7-5.7L14.5,86z" class="st56"/><path d="M25.8,88.1l13.1-8.3L37.5,79l-13.2,8.3L25.8,88.1z" class="st50"/><path d="M25.9,93.6l13.2-8.3l-0.2-5.5l-13.1,8.3C25.8,88.1,25.9,93.6,25.9,93.6z" class="st49"/><path d="M24.3,87.3l0.2,5.5l1.4,0.8l-0.1-5.5L24.3,87.3z" class="st48"/><path d="M23.4,80.8L21,79.6v1.7l2.4,1.3C23.4,82.6,23.4,80.8,23.4,80.8z" class="st57"/><path d="M25.6,79.4l-2.4-1.3L21,79.6l2.4,1.2C23.4,80.8,25.6,79.4,25.6,79.4z" class="st17"/><path d="M23.4,80.8v1.8l2.3-1.4l-0.1-1.8C25.6,79.4,23.4,80.8,23.4,80.8z" class="st58"/><path d="M23.4,81.8L20.1,80v0.3l3.3,1.7V81.8z" class="st59"/><path d="M26.5,79.8L23.2,78l-3.1,2l3.3,1.8L26.5,79.8z" class="st17"/><path d="M23.4,81.8V82l3.1-1.9v-0.3C26.5,79.8,23.4,81.8,23.4,81.8z" class="st60"/><path d="M20.2,75.7l-0.3-0.2l0.2,4.5l0.2,0.1C20.3,80.1,20.2,75.7,20.2,75.7z" class="st59"/><path d="M23.3,73.7l-0.2-0.1l-3.2,1.9l0.3,0.2C20.2,75.7,23.3,73.7,23.3,73.7z" class="st17"/><path d="M20.2,75.7l0.1,4.4l3.2-1.9l-0.2-4.5L20.2,75.7z" class="st61"/><path d="M26.2,79.9l-0.1-0.1l-0.3,0.6h0.1C26,80.3,26.1,80.1,26.2,79.9z M25.8,80.5c-0.2,0.1-0.2,0.2-0.3,0.2h0.1 C25.6,80.7,25.8,80.5,25.8,80.5z M25.7,80.7l-0.3,0.2h0.2C25.6,80.8,25.6,80.8,25.7,80.7z M25.5,80.9h-0.2L25.2,81h0.2 C25.4,80.9,25.5,80.9,25.5,80.9z M26.2,79.5l-0.1-0.1L26.2,79.5z M25.4,81h-0.2H25.4C25.3,81,25.3,81,25.4,81z M25.3,81h-0.2 c-0.2,0.1-0.4,0.2-0.5,0.2h0.2C25,81.2,25.1,81.2,25.3,81z" class="st62"/><g><path d="M26.1,79.2l-0.2-0.1C26,79.2,26,79.2,26.1,79.2C26.2,79.3,26.1,79.2,26.1,79.2z" class="st62"/><path d="M26.2,79.3l-0.1-0.1L26.2,79.3L26.2,79.3L26.2,79.3z M26.2,79.4l-0.1-0.1L26.2,79.4 C26.2,79.5,26.2,79.5,26.2,79.4z" class="st62"/></g><path d="M26.2,79.5l-1.8,1.2h0.2C24.6,80.7,26.2,79.5,26.2,79.5z" class="st62"/><path d="M24.6,80.7h-0.2H24.6z" class="st63"/><path d="M26.3,78.9l-0.2-0.1c-0.1-0.1-0.4-0.1-0.7,0.1l0.2,0.1C25.9,78.9,26.1,78.8,26.3,78.9z M25.6,79.1L25.4,79 h-0.1C25.3,79,25.6,79.1,25.6,79.1z" class="st64"/><g><path d="M25.6,79.1L25.4,79c-0.1,0.1-0.2,0.1-0.2,0.2l0.2,0.1C25.4,79.2,25.5,79.2,25.6,79.1z M25.3,79.3l-0.2-0.1 l-0.3,0.3l0.2,0.1C25.2,79.5,25.3,79.4,25.3,79.3z" class="st64"/><path d="M25.1,79.6l-0.2-0.1c-0.1,0.1-0.2,0.3-0.3,0.4l0.2,0.1C24.9,79.8,25,79.7,25.1,79.6z" class="st64"/><path d="M24.8,79.9l-0.2-0.1c-0.2,0.3-0.4,0.7-0.4,1h0.2C24.5,80.6,24.6,80.3,24.8,79.9z M24.4,80.9h-0.2v0.3h0.2 V80.9z" class="st64"/><path d="M24.4,81.1h-0.2c0,0.1,0,0.1,0.1,0.2h0.2C24.4,81.3,24.4,81.2,24.4,81.1z M24.5,81.3h-0.2 C24.3,81.3,24.3,81.4,24.5,81.3l0.1,0.1C24.5,81.4,24.5,81.3,24.5,81.3z M24.6,81.4h-0.2H24.6z" class="st64"/></g><path d="M26.4,79.5c-0.1,0.5-0.6,1.2-1.1,1.6s-0.9,0.4-0.9-0.1c0-0.6,0.5-1.5,1.2-2C26.2,78.7,26.5,78.9,26.4,79.5z M25.5,79.4c-0.4,0.3-0.8,0.9-0.9,1.3l1.6-1.2C26.2,79.2,26,79.1,25.5,79.4z M25.4,81c0.3-0.3,0.7-0.7,0.8-1.1l-1.5,1.2 C24.7,81.3,25,81.3,25.4,81z" class="st65"/><path d="M25.4,80.3l0.3-0.2L25.4,80.3l-0.2,0.1L25.4,80.3z" class="st65"/><path d="M27.1,83.9l0.3-0.2l-1.7-3.6l-0.3,0.2L27.1,83.9z" class="st62"/><path d="M25.4,80.3l-0.1,0.2l1.6,3.5l0.2-0.1L25.4,80.3z" class="st66"/><path d="M13.9,80.6L24,85.9l-3.4-9.4l-6.9-3.9C13.7,72.6,13.9,80.6,13.9,80.6z M14.6,80.3L14.4,74l6.2,3.3l3.1,7.9 C23.7,85.2,14.6,80.3,14.6,80.3z" class="st67"/><path d="M13.5,80.8l10.7,5.7l-3.5-9.7l-7.4-3.9C13.3,72.9,13.5,80.8,13.5,80.8z M14.1,80.4l-0.2-6.3l6.2,3.3l3.1,7.9 L14.1,80.4z" class="st41"/><path d="M20.5,77.5l3.7,8.6l7.4-4.6l-3.3-9L20.5,77.5z M21,77.2l6.8-4.3l3.1,8.1l-6.6,4.1C24.3,85.1,21,77.2,21,77.2z" class="st41"/><path d="M20.7,76.8l3.5,9.7l7.8-4.9l-3.5-9.7L20.7,76.8z M21.4,77.1l6.8-4.3l3.2,8.5l-6.8,4.3L21.4,77.1z" class="st32"/><path d="M20.7,76.8l7.8-4.9l-7.4-4l-7.9,4.9L20.7,76.8z" class="st33"/><path d="M29.4,99.8v0.7l1,0.6v-0.7L29.4,99.8z" class="st68"/><path d="M30.4,100.4v0.7l21.1-13.2l-0.1-0.7C51.4,87.2,30.4,100.4,30.4,100.4z" class="st69"/><path d="M29.4,99.8l1,0.6l21-13.2l-1-0.5C50.4,86.7,29.4,99.8,29.4,99.8z" class="st70"/><path d="M24.4,96.4l0.1,0.7l1,0.6V97L24.4,96.4z" class="st68"/><path d="M25.5,97v0.7l21-13.2v-0.7L25.5,97z" class="st69"/><path d="M24.4,96.4l1.1,0.6l21-13.2l-1-0.5L24.4,96.4z" class="st70"/><path d="M51,90.9v0.6l-1.6,1v-0.6L51,90.9z" class="st71"/><path d="M49.4,91.9v0.6l-11.2-6v-0.6L49.4,91.9z" class="st72"/><path d="M51,90.9l-1.6,1l-11.2-6l1.6-1L51,90.9z" class="st73"/><path d="M45.6,94.2v0.6l-1.6,1v-0.6L45.6,94.2z" class="st71"/><path d="M44,95.2v0.6l-11.2-5.9v-0.6L44,95.2z" class="st72"/><path d="M45.6,94.2l-1.6,1l-11.2-5.9l1.6-1L45.6,94.2z" class="st73"/><path d="M39.2,98.3v0.6l-1.6,1.1v-0.6L39.2,98.3z" class="st71"/><path d="M37.6,99.4v0.6l-11.2-6v-0.6L37.6,99.4z" class="st72"/><path d="M39.2,98.3l-1.6,1.1l-11.2-6l1.6-1L39.2,98.3z" class="st73"/><g><path d="M34.6,86.2l0.2,4.6l5.5,3l-0.2-4.7L34.6,86.2z" class="st74"/><path d="M40.1,89.1l0.2,4.7l7.6-4.8l-0.2-4.7L40.1,89.1z" class="st75"/><path d="M34.6,86.2l5.5,2.9l7.6-4.8l-5.4-2.9C42.3,81.4,34.6,86.2,34.6,86.2z" class="st76"/><path d="M44.4,82.5l1.1,0.6l-7.6,4.8l-1.2-0.6L44.4,82.5z" class="st77"/><path d="M37.9,87.9l-1.2-0.6l0.1,1.1l1.1,0.6C37.9,89,37.9,87.9,37.9,87.9z" class="st78"/><g><path d="M35.4,90.6L35.4,90.6l0.8,0.5V91L35.4,90.6z M35.5,90.6l0.1-0.6l0.1,0.1l-0.2-0.3l-0.1,0.1l0.1,0.1 C35.5,90,35.5,90.6,35.5,90.6z M35.9,90.8L35.9,90.8l0.1-0.5h0.1L36,90l-0.2,0.2h0.1C35.9,90.2,35.9,90.8,35.9,90.8z" class="st79"/><path d="M36.2,91.3l-0.8-0.4c-0.2-0.1-0.3-0.3-0.3-0.4v-0.8c0-0.2,0.1-0.2,0.3-0.1l0.8,0.4c0.2,0.1,0.3,0.3,0.3,0.4 v0.8C36.5,91.3,36.4,91.4,36.2,91.3z M35.3,89.5c-0.1-0.1-0.2,0-0.2,0.1v0.8c0,0.1,0.1,0.3,0.2,0.4l0.8,0.4 c0.1,0.1,0.2,0,0.2-0.1v-0.8c0-0.1-0.1-0.3-0.2-0.4L35.3,89.5z" class="st79"/></g><g><path d="M37.9,91.5c0,0-0.1-0.1-0.2-0.1c-0.1-0.1-0.2-0.1-0.2-0.1l-0.1-0.1v0.6c0,0.1-0.1,0.1-0.1,0 c-0.1,0-0.1-0.1-0.1-0.2c0,0,0,0.1,0.1,0.1h0.1v-0.5c-0.1,0-0.1-0.1-0.1,0c0,0-0.1-0.1-0.2-0.1C37,91,36.9,91,36.9,91 c0-0.2,0.2-0.3,0.5-0.2C37.7,91,37.9,91.3,37.9,91.5z" class="st79"/><path d="M37.9,92.2l-0.8-0.4c-0.2-0.1-0.3-0.3-0.3-0.4v-0.8c0-0.2,0.1-0.2,0.3-0.1l0.8,0.4c0.2,0.1,0.3,0.3,0.3,0.4 v0.8C38.1,92.2,38,92.3,37.9,92.2z M37,90.4c-0.1-0.1-0.2,0-0.2,0.1v0.8c0,0.1,0.1,0.3,0.2,0.4l0.8,0.4c0.1,0.1,0.2,0,0.2-0.1 v-0.8c0-0.1-0.1-0.3-0.2-0.4L37,90.4z" class="st79"/></g><g><path d="M39.3,92.1c0,0.1-0.1,0.2-0.2,0.1v0.4l0.1,0.1v0.1l-0.3-0.2v-0.1l0.1,0.1v-0.4c-0.1-0.1-0.2-0.2-0.2-0.4 v-0.3l0.4,0.2C39.2,91.7,39.3,92.1,39.3,92.1z" class="st79"/><path d="M39.5,93.1l-0.8-0.4c-0.2-0.1-0.3-0.3-0.3-0.4v-0.8c0-0.2,0.1-0.2,0.3-0.1l0.8,0.4c0.2,0.1,0.3,0.3,0.3,0.4 V93C39.8,93.1,39.7,93.1,39.5,93.1z M38.6,91.3c-0.1-0.1-0.2,0-0.2,0.1v0.8c0,0.1,0.1,0.3,0.2,0.4l0.8,0.4c0.1,0.1,0.2,0,0.2-0.1 v-0.8c0-0.1-0.1-0.3-0.2-0.4L38.6,91.3z" class="st79"/></g></g><g><path d="M24.9,92.2l0.1,4.7l5.5,2.9l-0.2-4.7L24.9,92.2z" class="st74"/><path d="M30.3,95.1l0.2,4.7l7.6-4.8l-0.2-4.6C37.9,90.4,30.3,95.1,30.3,95.1z" class="st75"/><path d="M24.9,92.2l5.4,2.9l7.6-4.7l-5.4-2.9C32.5,87.5,24.9,92.2,24.9,92.2z" class="st76"/><path d="M34.6,88.6l1.1,0.6L28.1,94L27,93.4C27,93.4,34.6,88.6,34.6,88.6z" class="st77"/><path d="M28.1,94L27,93.4v1.1l1.1,0.6V94z" class="st78"/><g><path d="M25.6,96.6L25.6,96.6l0.8,0.6v-0.1L25.6,96.6z M25.7,96.6l0.1,0.1v-0.6l0.1,0.1l-0.1-0.4L25.6,96l0.1,0.1 C25.7,96.1,25.7,96.6,25.7,96.6z M26.2,96.9v-0.6l0.1,0.1l-0.1-0.3l-0.1,0.1v0.1C26.1,96.3,26.2,96.9,26.2,96.9z" class="st79"/><path d="M26.4,97.4L25.6,97c-0.2-0.1-0.3-0.3-0.3-0.4v-0.8c0-0.2,0.1-0.2,0.3-0.1l0.8,0.4c0.2,0.1,0.3,0.3,0.3,0.4 v0.8C26.7,97.4,26.6,97.4,26.4,97.4z M25.6,95.6c-0.1-0.1-0.2,0-0.2,0.1v0.8c0,0.1,0.1,0.3,0.2,0.4l0.8,0.4 c0.1,0.1,0.2,0,0.2-0.1v-0.8c0-0.1-0.1-0.3-0.2-0.4L25.6,95.6z" class="st79"/></g><g><path d="M28.2,97.6C28.2,97.6,28.2,97.5,28.2,97.6c0,0-0.1-0.1-0.2-0.1c-0.1-0.1-0.2-0.1-0.2-0.1l-0.1-0.1v0.6 c0,0.1-0.1,0.1-0.1,0c-0.1,0-0.1-0.1-0.1-0.2c0,0,0,0.1,0.1,0.1h0.1v-0.5c-0.1,0-0.1-0.1-0.1,0c0,0-0.1-0.1-0.2-0.1 c-0.1-0.1-0.2-0.1-0.2-0.1c0-0.2,0.2-0.3,0.5-0.2C27.9,97,28.2,97.3,28.2,97.6z" class="st79"/><path d="M28.1,98.2l-0.8-0.4c-0.2-0.1-0.3-0.3-0.3-0.4v-0.8c0-0.2,0.1-0.2,0.3-0.1l0.8,0.4c0.2,0.1,0.3,0.3,0.3,0.4 v0.8C28.4,98.3,28.2,98.3,28.1,98.2z M27.2,96.5c-0.1-0.1-0.2,0-0.2,0.1v0.8c0,0.1,0.1,0.3,0.2,0.4l0.8,0.4 c0.1,0.1,0.2,0,0.2-0.1v-0.8c0-0.1-0.1-0.3-0.2-0.4L27.2,96.5z" class="st79"/></g><g><path d="M29.5,98.1c0,0.1-0.1,0.2-0.2,0.1v0.4l0.1,0.1v0.1l-0.3-0.2v-0.1l0.1,0.1v-0.4C29.1,98.1,29,98,29,97.8 v-0.3l0.4,0.2C29.4,97.7,29.5,98.1,29.5,98.1z" class="st79"/><path d="M29.7,99.1l-0.8-0.4c-0.2-0.1-0.3-0.3-0.3-0.4v-0.8c0-0.2,0.1-0.2,0.3-0.1l0.8,0.4c0.2,0.1,0.3,0.3,0.3,0.4 V99C30,99.1,29.9,99.2,29.7,99.1z M28.8,97.3c-0.1-0.1-0.2,0-0.2,0.1v0.8c0,0.1,0.1,0.3,0.2,0.4l0.8,0.4c0.1,0.1,0.2,0,0.2-0.1 v-0.8c0-0.1-0.1-0.3-0.2-0.4L28.8,97.3z" class="st79"/></g></g><g><path d="M27.8,85.2l0.2,4.7l5.4,2.9l-0.2-4.7C33.2,88.1,27.8,85.2,27.8,85.2z" class="st74"/><path d="M33.2,88.1l0.2,4.7L41,88l-0.1-4.6L33.2,88.1z" class="st75"/><path d="M27.8,85.2l5.4,2.9l7.7-4.7l-5.5-2.9C35.4,80.5,27.8,85.2,27.8,85.2z" class="st76"/><path d="M37.5,81.6l1.2,0.6L31,87l-1.1-0.6L37.5,81.6z" class="st77"/><path d="M31,87l-1.1-0.6v1.1l1.2,0.6L31,87z" class="st78"/><g><path d="M28.5,89.6L28.5,89.6l0.9,0.6v-0.1L28.5,89.6z M28.7,89.6l0.1,0.1l-0.1-0.6h0.1l-0.1-0.3L28.6,89 C28.6,89,28.7,89.6,28.7,89.6z M29.1,89.9l0.1-0.6l0.1,0.1l-0.2-0.3L29,89.2l0.1,0.1C29.1,89.3,29.1,89.9,29.1,89.9z" class="st79"/><path d="M29.4,90.4L28.6,90c-0.2-0.1-0.3-0.3-0.3-0.4v-0.8c0-0.2,0.1-0.2,0.3-0.1l0.8,0.4c0.2,0.1,0.3,0.3,0.3,0.4 v0.8C29.6,90.4,29.5,90.4,29.4,90.4z M28.5,88.6c-0.1-0.1-0.2,0-0.2,0.1v0.8c0,0.1,0.1,0.3,0.2,0.4l0.8,0.4 c0.1,0.1,0.2,0,0.2-0.1v-0.8c0-0.1-0.1-0.3-0.2-0.4L28.5,88.6z" class="st79"/></g><g><path d="M31.1,90.5c0,0-0.1-0.1-0.2-0.1c-0.1-0.1-0.2-0.1-0.2-0.1l-0.1-0.1v0.6c0,0.1-0.1,0.1-0.1,0 c-0.1,0-0.1-0.1-0.1-0.2c0,0,0,0.1,0.1,0.1h0.1v-0.5c-0.1,0-0.1-0.1-0.1,0c0,0-0.1-0.1-0.2-0.1C30.2,90,30.1,90,30.1,90 c0-0.2,0.2-0.3,0.5-0.2C30.9,90,31.1,90.3,31.1,90.5C31.1,90.5,31.1,90.6,31.1,90.5z" class="st79"/><path d="M31,91.2l-0.8-0.4c-0.2-0.1-0.3-0.3-0.3-0.4v-0.8c0-0.2,0.1-0.2,0.3-0.1l0.8,0.4c0.2,0.1,0.3,0.3,0.3,0.4 v0.8C31.3,91.3,31.2,91.3,31,91.2z M30.1,89.5c-0.1-0.1-0.2,0-0.2,0.1v0.8c0,0.1,0.1,0.3,0.2,0.4l0.8,0.4c0.1,0.1,0.2,0,0.2-0.1 v-0.8c0-0.1-0.1-0.3-0.2-0.4L30.1,89.5z" class="st79"/></g><g><path d="M32.4,91.1c0,0.1-0.1,0.2-0.2,0.1v0.4l0.1,0.1v0.1L32,91.6v-0.1l0.1,0.1v-0.4c-0.1-0.1-0.2-0.2-0.2-0.4 v-0.3l0.4,0.2C32.3,90.7,32.4,91.1,32.4,91.1z" class="st79"/><path d="M32.6,92.1l-0.8-0.4c-0.2-0.1-0.3-0.3-0.3-0.4v-0.8c0-0.2,0.1-0.2,0.3-0.1l0.8,0.4c0.2,0.1,0.3,0.3,0.3,0.4 V92C32.9,92.1,32.8,92.2,32.6,92.1z M31.8,90.3c-0.1-0.1-0.2,0-0.2,0.1v0.8c0,0.1,0.1,0.3,0.2,0.4l0.8,0.4c0.1,0.1,0.2,0,0.2-0.1 v-0.8c0-0.1-0.1-0.3-0.2-0.4L31.8,90.3z" class="st79"/></g></g></g><g><g><path d="M128.2,58.6c-0.2-0.1-0.4-0.1-0.6-0.2c-0.3,1-0.7,1.9-1,2.9c1,0.4,2.1,0.6,3.1,0.9c0-0.2,0.1-0.4,0.1-0.6 c-0.8-0.2-1.6-0.4-2.4-0.7C127.7,60.1,127.9,59.3,128.2,58.6z" class="st80"/><path d="M131.9,59.5c-0.6,0.9-1.2,1.8-1.9,2.7c0.3,0.1,0.5,0.1,0.8,0.2c0.4-0.6,0.9-1.3,1.3-1.9 c0.1,0.5,0.2,1.1,0.4,1.6c-0.4-0.1-0.7-0.1-1.1-0.2c-0.1,0.2-0.2,0.4-0.4,0.6c0.8,0.1,1.6,0.3,2.4,0.4c-0.3-1.1-0.6-2.1-0.9-3.2 C132.3,59.5,132.1,59.5,131.9,59.5z" class="st80"/><path d="M134.5,60.9c-0.2-0.4-0.5-0.8-0.7-1.1c-0.3,0-0.5-0.1-0.8-0.1c0.3,0.7,0.7,1.3,1.1,2c0,0.4-0.1,0.8-0.1,1.2 c0.2,0,0.5,0,0.7,0.1c0-0.4,0.1-0.8,0.1-1.2c0.5-0.6,0.9-1.2,1.4-1.8c-0.3,0-0.5,0-0.8,0C135.1,60.2,134.8,60.6,134.5,60.9z" class="st80"/><path d="M136.4,60.4c0,0,0,0.1,0,0.1c0,0.2,0,0.4,0,0.6c0,0.2,0,0.5,0,0.7c0,0.4,0,0.7,0,1.1c1.1,0,2.1,0,3.2-0.1 c0-0.2,0-0.4-0.1-0.6c-0.8,0.1-1.7,0.1-2.5,0.1c0-0.2,0-0.3,0-0.5c0,0,0-0.1,0-0.1c0.6,0,1.2,0,1.9-0.1c0-0.2,0-0.4,0-0.6 c-0.6,0-1.2,0.1-1.8,0.1c0-0.2,0-0.4,0-0.6c0.8,0,1.6,0,2.3-0.1c0-0.2,0-0.4-0.1-0.6c-1,0.1-1.9,0.1-2.9,0.1 C136.4,60.1,136.4,60.2,136.4,60.4z" class="st80"/><path d="M140.3,60.3c0.5-0.1,1.1-0.1,1.6-0.2c0,0.2,0.1,0.4,0.1,0.6c-0.5,0.1-1,0.2-1.4,0.2c0,0.2,0.1,0.4,0.1,0.6 c0.1,0,0.3,0,0.4-0.1c0.4,0.4,0.9,0.7,1.4,1c0.3,0,0.6-0.1,0.8-0.2c-0.5-0.3-1-0.7-1.4-1c0.2,0,0.3-0.1,0.5-0.1 c0.3-0.1,0.5-0.3,0.4-0.6c-0.1-0.3-0.1-0.6-0.2-0.8c-0.1-0.3-0.3-0.4-0.6-0.4c0,0,0,0,0,0c-0.8,0.1-1.6,0.3-2.4,0.3 c0.1,1,0.2,2,0.3,3c0.2,0,0.4,0,0.7-0.1C140.5,61.9,140.4,61.1,140.3,60.3z" class="st80"/><path id="_Path__7_" d="M144.9,58.8c0.4-0.1,0.8-0.2,1.2-0.4c0.1,0.2,0.1,0.4,0.2,0.5c-0.4,0.1-0.8,0.3-1.2,0.4 C145,59.1,144.9,58.9,144.9,58.8z" class="st81"/><path id="_Path_2_7_" d="M146.8,60.2c0-0.1-0.1-0.2-0.1-0.2c-0.1-0.3-0.4-0.4-0.7-0.3c-0.7,0.2-1.3,0.4-2,0.6 c0-0.1,0-0.1,0-0.2c-0.2,0.1-0.5,0.1-0.7,0.2c0,0.2,0.1,0.4,0.1,0.7c0.9-0.2,1.7-0.4,2.5-0.7c0,0.1,0,0.1,0.1,0.2 C146.3,60.4,146.5,60.3,146.8,60.2z" class="st81"/><path id="_Path_3_7_" d="M144,59.9c0-0.1,0-0.2-0.1-0.3c0.3-0.1,0.6-0.2,0.9-0.3c-0.1-0.2-0.1-0.4-0.2-0.6 c-0.5,0.2-1.1,0.3-1.6,0.4c0.1,0.3,0.1,0.6,0.2,0.8C143.5,60,143.7,60,144,59.9z" class="st82"/><path id="_Path_4_7_" d="M146.1,60.6c0,0.1,0.1,0.2,0.1,0.3c-0.3,0.1-0.7,0.2-1,0.3c0.1,0.2,0.1,0.4,0.2,0.6 c0.4-0.1,0.8-0.2,1.3-0.4c0.3-0.1,0.5-0.4,0.4-0.6c0-0.1-0.1-0.3-0.1-0.4C146.6,60.5,146.3,60.6,146.1,60.6z" class="st82"/><path id="_Path_5_7_" d="M144.2,61.2c0,0.1,0,0.2,0.1,0.3c0.2-0.1,0.5-0.1,0.7-0.2c0.1,0.2,0.1,0.4,0.2,0.6 c-0.3,0.1-0.6,0.2-0.9,0.2c-0.3,0.1-0.6-0.1-0.6-0.3c0-0.1-0.1-0.3-0.1-0.4C143.7,61.3,144,61.2,144.2,61.2z" class="st81"/></g></g></svg>