<svg xmlns="http://www.w3.org/2000/svg" xmlns:xlink="http://www.w3.org/1999/xlink" id="Layer_1" x="0" y="0" version="1.1" viewBox="0 0 111 95.8" xml:space="preserve" style="enable-background:new 0 0 111 95.8"><style type="text/css">.st0{fill:#ddd}.st1{fill:#4e4e4e}.st2{fill:#4a4a4a}.st3{fill:#4b4b4b}.st4{fill:#838383}.st5{fill:#dcdcdc}.st6{fill:#647881}.st7{fill:#5b6e76}.st8{fill:#48565c}.st9{fill:#3c494e}.st10{fill:#f8f8f8}.st11{fill:#999}.st12{fill:#fff}.st13{fill:#62accd}.st14{fill:#adadad}.st15{fill:#323e43}.st16{fill:#f0910a}.st17{fill:#ffb300}.st18{fill:#ffca00}.st19{fill:#e0e0e0}.st20{fill:#858585}.st21{fill:#dadada}.st22{fill:#ba7008}.st23{fill:#a7a7a7}.st24{fill:#e38909}.st25{fill:#d8d8d8}.st26{fill:#c9c9c9}.st27{fill:#379780}.st28{fill:#00d3a9}.st29{fill:#00b39f}.st30{fill:#444}.st31{fill:#848484}.st32{fill:#1d5a82}.st33{fill:#3497da}.st34{fill:#1a7bad}.st35{fill:#008f7f}.st36{fill:#006458}.st37{fill:#246896}.st38{fill:#9c9c9c}.st39{fill:#c7c7c7}.st40{fill:#206491}.st41{fill:#1c83b8}.st42{fill:#919191}.st43{fill:#3c494f}.st44{fill:#828c8c}.st45{fill:#a0aaaa}</style><path d="M108.3,60.5l-6.4,1l4.5-0.7l3.6-5.6l-4.5-7.5l-4.7,0.7l-1.3-0.7c-0.3-0.2-0.7-0.3-1-0.5v-0.1H83v-0.5H70.5	c-2.5,1.7-4.4,3.7-5.3,5.6c-1.1,2.4-0.4,4.4,1.6,5.6l1,0.6l-0.4,0.9l-12.3-1.8l-2.4,0.4l-0.9,1.9l17,4.4l2.4-0.4l1.7-3.6	c1,0.1,2.1,0.1,3.2,0c0.2,0.2,0.5,0.4,0.8,0.6l1.6,0.9c-0.1-0.1-0.2-0.1-0.3-0.2c1.2,0.8,3.1,1.3,5.5,1.2l10,18.5L66,85.5l-0.1-0.1	c-0.5-0.3-1.4-0.4-2-0.3c-0.4,0.1-0.6,0.2-0.6,0.3v-0.1v0.1l-11-6.3l0.1-0.3l-3.2-0.3h-0.1l-0.4-0.2c-0.1-0.2-0.3-0.5-0.6-0.7	c-0.2-0.1-0.4-0.1-0.5-0.1l-0.4,0.1h0.1H47c-0.2,0-0.3,0.1-0.3,0.3c-0.1,0.1-0.1,0.3,0,0.5c0.1,0.3,0.3,0.5,0.6,0.6l0.4-0.1v-0.2	c-0.2,0-0.3-0.2-0.3-0.4V78c0-0.1,0.1-0.1,0.1-0.1h0.1c0.3,0.1,0.4,0.5,0.5,0.6v0.1l0.3,0.2l2.1,2.7l0.8-0.1l0.1-0.2l11,6.4v0.1	L62.3,88v0.2c0,0.1,0.1,0.1,0.2,0.2h0.1c0.3,0.2,0.8,0.3,1.2,0.3l0.1-0.3h-0.1h0.1l-0.1,0.3h0.8c0.3,0,0.5-0.2,0.6-0.3l0.1-0.3v-0.2	l34.8,0.6l5.4-7l0.2-0.5l0.3-0.6l-0.7-15.1l4.5-0.7l1.2-2.5L108.3,60.5L108.3,60.5z M62.5,87.1l-11.2-6.5l0.6-1.3L63,85.7l0.1,0.1	L62.5,87.1z M75.3,85.9l0.8-0.1l0.2,0.1H75.3z M78,86l-0.6-0.4l3.9-0.6l1.9,1.1L78,86L78,86z M84.9,86.1l-2.2-1.3l3.9-0.6l3.5,2	L84.9,86.1z M91.7,86.2L87.9,84l2.7-0.4l4.7,2.7L91.7,86.2L91.7,86.2z M98.7,86.1l-5.1-3l8.4-1.3L98.7,86.1L98.7,86.1z M103.6,79.6	l-5.4,0.8l-7.4-19.2c0.4-0.1,0.8-0.3,1.2-0.4l3,1.7l1.4-0.2l1.2,0.7l-0.7,1.6l2.3,1.4l3.6-0.6L103.6,79.6L103.6,79.6z" class="st0"/><path d="M29.3,46.6l0.3-0.2l-0.3-0.3L29,46.3L29.3,46.6z" class="st1"/><path d="M30.4,46.2l0.3-0.2v-0.8l-0.3,0.2V46.2z" class="st2"/><path d="M30.4,45.4l0.3-0.2l-0.3-0.1l-0.3,0.1L30.4,45.4z" class="st3"/><path d="M30.1,45.2v1l0.1,0.1c0.1,0.2,0.4,0.7,0.4,1c0,0.2-0.1,0.3-0.2,0.3s-0.2,0-0.4-0.1c-0.1-0.1-0.3-0.2-0.4-0.4	s-0.3-0.5-0.2-0.6l-0.3-0.3c-0.1,0.3,0,0.7,0.3,1.1l0.5,0.5c0.2,0.1,0.4,0.1,0.5,0.1c0.2-0.1,0.3-0.3,0.4-0.5c0-0.5-0.3-1.1-0.4-1.3	v-0.8L30.1,45.2z" class="st4"/><path d="M31.6,26h0.5v17.4h-0.5V26z M29.3,24.5h0.5v18.6h-0.5V24.5z" class="st5"/><path d="M96.4,85l2-1.2l-6.2-23.7l-2,1.2L96.4,85z" class="st6"/><path d="M90.2,61.3l2-1.2l-14.6-8.5l-2.1,1.2L90.2,61.3L90.2,61.3z" class="st7"/><path d="M75.5,52.8v3.9l11,6.3l7.1,20.4l2.8,1.6l-6.2-23.7L75.5,52.8L75.5,52.8z" class="st8"/><path d="M99.9,44.6l-2-1.1l7.2,12.1l2,1.2C107.1,56.8,99.9,44.6,99.9,44.6z" class="st9"/><path d="M89,47.1L86.9,46v3.8L89,51V47.1z" class="st10"/><path d="M103.6,38.7l-2-1.2L86.9,46l2.1,1.1L103.6,38.7L103.6,38.7z" class="st7"/><path d="M89,47.1V51l10.9-6.4l7.2,12.2l2.8-1.6l-6.3-16.5L89,47.1L89,47.1z" class="st6"/><path d="M59.1,47.3l2-1.2L54,58.3l-2.1,1.2C51.9,59.5,59.1,47.3,59.1,47.3z" class="st9"/><path d="M70.1,49.8l2-1.2v3.9l-2,1.2C70.1,53.7,70.1,49.8,70.1,49.8z" class="st10"/><path d="M55.4,41.4l2.1-1.2l14.6,8.4l-2,1.2C70.1,49.8,55.4,41.4,55.4,41.4z" class="st7"/><path d="M70.1,49.8v3.9l-11-6.4l-7.2,12.2l-2.8-1.6l6.3-16.5L70.1,49.8z" class="st8"/><path d="M61.4,47.4V50c0,2.7,1.8,5.5,5.4,7.6c7.2,4.2,19,4.2,26.3,0c3.7-2.1,5.5-4.9,5.5-7.7v-2.6	c0,2.8-1.8,5.5-5.5,7.7c-7.3,4.2-19,4.2-26.3,0C63.2,52.9,61.4,50.1,61.4,47.4z" class="st11"/><path d="M66.9,40c-7.3,4.2-7.3,11-0.1,15.2c7.2,4.2,19,4.2,26.3,0s7.3-11,0.1-15.2C85.9,35.8,74.2,35.8,66.9,40z" class="st12"/><path d="M72.2,41.3l0.1,6.3c0,1.1,0.7,2.3,2.2,3.1c0.5,0.3,1.2,0.6,1.8,0.8l-0.1-6.3c-0.6-0.2-1.3-0.5-1.8-0.8	C73,43.6,72.2,42.4,72.2,41.3z" class="st9"/><path d="M73.2,41.3l0.1,6.3c0,1.1,0.7,2.3,2.2,3.1c0.5,0.3,1.2,0.6,1.8,0.8l-0.1-6.3c-0.6-0.2-1.3-0.5-1.8-0.8	C74,43.6,73.2,42.4,73.2,41.3z" class="st9"/><path d="M72.2,41.3l0.1,6.3c0,1.1,0.7,2.3,2.2,3.1c0.5,0.3,1.2,0.6,1.8,0.8l-0.1-6.3c-0.6-0.2-1.3-0.5-1.8-0.8	C73.1,43.6,72.2,42.4,72.2,41.3z" class="st13"/><path d="M76.2,45.2l0.1,6.3c2.3,0.7,5.1,0.7,7.4,0l-0.1-6.3C81.3,45.9,78.5,45.9,76.2,45.2z" class="st13"/><path d="M83.5,45.2l0.1,6.3c0.6-0.2,1.2-0.4,1.7-0.8c1.5-0.9,2.3-2,2.3-3.2l-0.1-6.3c0,1.2-0.8,2.3-2.3,3.2	C84.7,44.8,84.1,45,83.5,45.2z" class="st13"/><path d="M74.5,38.1c-3,1.7-3,4.6,0,6.3s7.9,1.7,10.9,0s3-4.6,0-6.3S77.5,36.4,74.5,38.1z" class="st3"/><path d="M64.8,37.6v2.1c0,2.2,1.5,4.5,4.4,6.2c5.9,3.4,15.5,3.4,21.5,0c3-1.7,4.5-4,4.5-6.3v-2.1c0,2.3-1.5,4.5-4.5,6.3	c-5.9,3.4-15.6,3.4-21.5,0C66.3,42,64.8,39.8,64.8,37.6z" class="st8"/><path d="M69.3,31.5c-5.9,3.4-6,9-0.1,12.4s15.5,3.4,21.5,0s6-9,0.1-12.4C84.8,28.1,75.2,28.1,69.3,31.5L69.3,31.5z" class="st12"/><path d="M99.2,28.4v7.3l-9.6,5.6V34L99.2,28.4z" class="st5"/><path d="M89.6,34v7.3l-14.7-8.5v-7.3L89.6,34z" class="st14"/><path d="M99.2,28.4L89.6,34l-14.7-8.5l9.6-5.6L99.2,28.4z" class="st12"/><path d="M76.2,17.9v17.6c0,0.3,0.2,0.7,0.7,0.9c0.2,0.1,0.3,0.2,0.5,0.2V19c-0.2-0.1-0.4-0.1-0.5-0.2	C76.4,18.6,76.2,18.3,76.2,17.9z" class="st9"/><path d="M77.3,19.1v17.6c0.7,0.2,1.5,0.2,2.2,0V19.1C78.8,19.3,78,19.3,77.3,19.1z" class="st15"/><path d="M79.5,19.1v17.6c0.2-0.1,0.4-0.1,0.5-0.2c0.4-0.3,0.7-0.6,0.7-0.9V18c0,0.3-0.2,0.7-0.7,0.9	C79.9,18.9,79.7,19,79.5,19.1z" class="st9"/><path d="M76.8,17c-0.9,0.5-0.9,1.3,0,1.9c0.9,0.5,2.3,0.5,3.2,0s0.9-1.3,0-1.9C79.1,16.5,77.7,16.5,76.8,17z" class="st3"/><path d="M73.8,18.6v3.2l3.7,2.1v-3.1L73.8,18.6z" class="st16"/><path d="M77.5,20.8v3.1l8.7-5l-0.1-3.1L77.5,20.8L77.5,20.8z" class="st17"/><path d="M73.8,18.6l3.7,2.2l8.6-5l-3.7-2.1L73.8,18.6z" class="st18"/><path d="M61,9.4l-1.6-1l-3.1,1.7l2.6,1.5L61,9.4z" class="st19"/><path d="M58.9,11.6l-2.6-1.5l14.2,30.2l2.6,1.6C73.1,41.9,58.9,11.6,58.9,11.6z" class="st20"/><path d="M61,9.4l-2.1,2.2l14.2,30.3l5.4-4.2C78.5,37.7,61,9.4,61,9.4z" class="st5"/><path d="M66.6,5.4l-0.9-0.5l-1.6,0.9L65,6.3L66.6,5.4z" class="st21"/><path d="M65,6.3l-0.9-0.5l13.4,11.7l0.9,0.5L65,6.3z" class="st22"/><path d="M66.6,5.4L65,6.3L78.4,18l1.7-0.9C80.1,17.1,66.6,5.4,66.6,5.4z" class="st17"/><path d="M29.4,23.8L29.4,23.8c0.4-0.3,0.6-0.3,0.8-0.2l0.4,0.2c-0.2-0.1-0.4-0.1-0.7,0.1L29.8,24	c-0.1,0.1-0.3,0.2-0.4,0.4L29,24.2C29.1,24,29.3,23.9,29.4,23.8z" class="st23"/><path d="M29.4,24.4L29,24.2c-0.3,0.3-0.4,0.8-0.5,1.1l0.4,0.2C28.9,25.2,29.1,24.7,29.4,24.4z" class="st5"/><path d="M28.6,25.3l0.4,0.2v0.1c0,0.1,0,0.2,0.1,0.3c0,0.1,0.1,0.2,0.2,0.3L28.9,26c-0.1-0.1-0.2-0.2-0.2-0.3	C28.6,25.7,28.6,25.6,28.6,25.3C28.6,25.4,28.6,25.4,28.6,25.3z" class="st23"/><path d="M29.9,23.9c-0.5,0.3-1,1.1-1,1.7s0.4,0.9,1,0.6c0.5-0.3,1-1.1,1-1.7C30.9,23.9,30.4,23.6,29.9,23.9z" class="st20"/><path d="M64.3,6.8l-1.6-1l-9.1,5.3l1.6,0.9C55.2,12,64.3,6.8,64.3,6.8z" class="st16"/><path d="M54.2,3.6l-1.6-0.9l0.1,8.9l1.6,1C54.3,12.6,54.2,3.6,54.2,3.6z" class="st16"/><path d="M66.7,5.4l-1.6-0.9L53.4,0L55,1L66.7,5.4z" class="st22"/><path d="M54.3,12.6l-1.6-1L34.3,22.2l1.6,0.9L54.3,12.6z" class="st16"/><path d="M49.8,6l-0.6-0.4l0.1,8.7l0.6,0.4L49.8,6z" class="st24"/><path d="M50.3,5.7l-0.6-0.4l-0.5,0.3L49.8,6L50.3,5.7z" class="st25"/><path d="M49.8,6l0.1,8.7l0.4-0.3V5.7C50.3,5.7,49.8,6,49.8,6z" class="st17"/><path d="M45.4,11.1l-0.6-0.3v6.1l0.6,0.3V11.1z" class="st24"/><path d="M45.9,10.8l-0.6-0.3l-0.5,0.3l0.6,0.3L45.9,10.8z" class="st25"/><path d="M45.4,11.1v6.1l0.5-0.2v-6.2L45.4,11.1z" class="st17"/><path d="M41,15.4l-0.6-0.3v4.3l0.6,0.4C41,19.8,41,15.4,41,15.4z" class="st24"/><path d="M41.5,15.2l-0.6-0.4l-0.5,0.3l0.6,0.3C41,15.4,41.5,15.2,41.5,15.2z" class="st25"/><path d="M41,15.4v4.4l0.5-0.3v-4.3C41.5,15.2,41,15.4,41,15.4z" class="st17"/><path d="M55,1l-1.6-1l-23,24.5l1.6,0.9C32,25.4,55,1,55,1z" class="st18"/><path d="M32,25.4l-1.6-0.9v1.7l1.6,1V25.4z" class="st26"/><path d="M55,1l11.7,4.5v1.8l-34.6,20v-1.8C32.1,25.5,55,1,55,1z M54.3,12.6V3.7L36,23.2L54.3,12.6z M55.2,12l9.1-5.2	l-9.1-3.5V12z" class="st17"/><path d="M29.8,24.2l0.1-0.1c0.2-0.1,0.4-0.1,0.6-0.1l2.6,1.5c-0.1-0.1-0.4-0.1-0.6,0.1c0,0-0.1,0-0.1,0.1L32.1,26	l-2.6-1.5C29.5,24.5,29.8,24.2,29.8,24.2z" class="st8"/><path d="M32.1,26l-2.6-1.5c-0.2,0.3-0.4,0.6-0.4,0.9l2.6,1.5C31.7,26.6,31.9,26.3,32.1,26z" class="st7"/><path d="M29.1,25.5l2.6,1.5v0.4c0,0.1,0.1,0.2,0.2,0.2l-2.6-1.5c-0.1,0-0.1-0.1-0.2-0.2V25.5z" class="st8"/><path d="M32.5,25.6c-0.4,0.3-0.8,0.9-0.8,1.4s0.4,0.7,0.8,0.5c0.4-0.3,0.8-0.9,0.8-1.4S33,25.4,32.5,25.6z" class="st20"/><path d="M32.4,25.6L32.4,25.6c0.4-0.3,0.6-0.3,0.8-0.2l0.4,0.2c-0.2-0.1-0.4-0.1-0.7,0.1l-0.1,0.1	c-0.1,0.1-0.3,0.2-0.4,0.4L32,26C32.1,25.8,32.3,25.7,32.4,25.6z" class="st23"/><path d="M32.4,26.2L32,26c-0.3,0.3-0.4,0.8-0.5,1.1l0.4,0.2C32,26.9,32.1,26.5,32.4,26.2z" class="st5"/><path d="M31.6,27.1l0.4,0.2v0.1c0,0.1,0,0.2,0.1,0.3c0,0.1,0.1,0.2,0.2,0.3l-0.4-0.2c-0.1-0.1-0.2-0.2-0.2-0.3	C31.6,27.4,31.6,27.3,31.6,27.1C31.6,27.2,31.6,27.1,31.6,27.1z" class="st23"/><path d="M32.9,25.7c-0.5,0.3-1,1.1-1,1.7c0,0.6,0.4,0.9,1,0.6c0.5-0.3,1-1.1,1-1.7C33.9,25.6,33.5,25.4,32.9,25.7z" class="st20"/><path d="M83.1,38.3l-6.3-3.7l-1.5,7.7l6.3,3.6L83.1,38.3z" class="st27"/><path d="M82.5,38.6l-5.3-3.1l-1,5.4l5.3,3.1L82.5,38.6z" class="st6"/><path d="M89.6,34.6l-6.3-3.7l-6.5,3.7l6.3,3.7L89.6,34.6z" class="st28"/><path d="M83.1,38.3l-1.5,7.6l8-4.6v-6.7L83.1,38.3z" class="st29"/><path d="M30.1,45.9l0.7-0.5l1.7-2.4l-0.7,0.4L30.1,45.9z" class="st30"/><path d="M31.8,43.4l0.7-0.4L29,40.9l-0.7,0.4L31.8,43.4z" class="st3"/><path d="M28.3,41.3l1.8,4.6l1.7-2.5L28.3,41.3z" class="st31"/><g><path d="M25.1,71.2l5.1-3v-5.6l-5.1,2.9V71.2z" class="st32"/><path d="M25.1,65.5l5.1-2.9L17,55l-5,2.9L25.1,65.5z" class="st33"/><path d="M12,57.9v5.7l13.1,7.6v-5.7L12,57.9z" class="st34"/><path d="M25.1,65.6l5.1-3v-5.7l-5.1,3V65.6z" class="st35"/><path d="M25.1,59.9l5.1-3L17,49.3l-5,3L25.1,59.9z" class="st29"/><path d="M12,52.3v5.6l13.1,7.7v-5.7L12,52.3z" class="st36"/><path d="M19.1,74.6l5.1-2.9V66l-5.1,3V74.6z" class="st32"/><path d="M19.1,69l5.1-3L11,58.4l-5,3L19.1,69z" class="st37"/><path d="M6,61.4V67l13.1,7.6V69L6,61.4z" class="st34"/><path d="M13.2,78l5.1-2.9v-5.7l-5.1,3V78z" class="st38"/><path d="M13.2,72.4l5.1-3L5.1,61.8l-5,3L13.2,72.4z" class="st33"/><path d="M0.1,64.8L0,70.4L13.2,78v-5.6L0.1,64.8z" class="st39"/><path d="M13.2,72.4l5.1-2.9v-5.7l-5.1,3V72.4z" class="st40"/><path d="M13.2,66.8l5.1-3L5.1,56.2l-5,2.9L13.2,66.8z" class="st33"/><path d="M0.1,59.1L0,64.8l13.2,7.6v-5.6L0.1,59.1z" class="st41"/><path d="M40.2,79.9l5.1-3v-5.6l-5.1,3V79.9z" class="st32"/><path d="M40.2,74.3l5.1-3l-13.2-7.6L27,66.6L40.2,74.3z" class="st33"/><path d="M27,66.6v5.7l13.2,7.6v-5.6L27,66.6z" class="st34"/><path d="M40.2,74.3l5.1-3v-5.7l-5.1,3V74.3z" class="st40"/><path d="M40.2,68.6l5.1-3l-13.2-7.5L27,61L40.2,68.6z" class="st33"/><path d="M27,61v5.6l13.2,7.7v-5.7C40.2,68.6,27,61,27,61z" class="st41"/><path d="M34.2,83.4l5.1-3v-5.7l-5.1,3V83.4z" class="st32"/><path d="M34.2,77.7l5.1-3l-13.2-7.6l-5.1,3L34.2,77.7z" class="st33"/><path d="M21,70.1v5.6l13.2,7.7v-5.7L21,70.1z" class="st34"/><path d="M34.2,77.7l5.1-2.9v-5.7l-5.1,3V77.7z" class="st39"/><path d="M34.2,72.1l5.1-3l-13.2-7.6l-5.1,3L34.2,72.1z" class="st12"/><path d="M21,64.5v5.6l13.2,7.6v-5.6L21,64.5z" class="st42"/><path d="M28.3,86.8l5-3v-5.7l-5,3V86.8z" class="st38"/><path d="M28.3,81.1l5-3l-13.1-7.6l-5.1,3L28.3,81.1z" class="st33"/><path d="M15.1,73.5v5.6l13.2,7.7v-5.7L15.1,73.5z" class="st39"/><path d="M28.3,81.1l5-2.9v-5.7l-5,3V81.1z" class="st40"/><path d="M28.3,75.5l5-3l-13.1-7.6l-5.1,3L28.3,75.5z" class="st33"/><path d="M15.1,67.9v5.6l13.2,7.6v-5.6L15.1,67.9z" class="st41"/><path d="M55.9,89l5-3v-5.6l-5,2.9V89z" class="st35"/><path d="M55.9,83.3l5-2.9l-13.1-7.6l-5.1,2.9L55.9,83.3z" class="st29"/><path d="M42.7,75.7v5.7L55.9,89v-5.7L42.7,75.7z" class="st36"/><path d="M49.9,92.4l5-2.9v-5.7l-5,3V92.4z" class="st39"/><path d="M49.9,86.8l5-3l-13.1-7.6l-5.1,3L49.9,86.8z" class="st33"/><path d="M36.7,79.2v5.6l13.2,7.6v-5.6L36.7,79.2z" class="st42"/><path d="M49.9,86.8l5-2.9v-5.7l-5,3V86.8z" class="st40"/><path d="M49.9,81.2l5-3l-13.1-7.6l-5.1,2.9L49.9,81.2z" class="st33"/><path d="M36.7,73.5v5.7l13.2,7.6v-5.6L36.7,73.5z" class="st41"/><path d="M43.9,95.8l5.1-2.9v-5.7l-5.1,3V95.8z" class="st32"/><path d="M43.9,90.2l5.1-3l-13.1-7.6l-5.1,3L43.9,90.2z" class="st33"/><path d="M30.8,82.6v5.6l13.1,7.6v-5.6L30.8,82.6z" class="st34"/><path d="M43.9,90.2l5.1-2.9v-5.7l-5.1,3V90.2z" class="st36"/><path d="M43.9,84.6l5.1-3L35.9,74l-5.1,2.9L43.9,84.6z" class="st29"/><path d="M30.8,76.9v5.7l13.1,7.6v-5.6L30.8,76.9z" class="st35"/></g><g><g><path d="M71.7,51.9c-0.2-0.1-0.4-0.1-0.6-0.2c-0.3,1-0.7,1.9-1,2.9c1,0.4,2.1,0.6,3.1,0.9c0-0.2,0.1-0.4,0.1-0.6 c-0.8-0.2-1.6-0.4-2.4-0.7C71.2,53.4,71.4,52.6,71.7,51.9z" class="st43"/><path d="M75.4,52.8c-0.6,0.9-1.2,1.8-1.9,2.7c0.3,0.1,0.5,0.1,0.8,0.2c0.4-0.6,0.9-1.3,1.3-1.9 c0.1,0.5,0.2,1.1,0.4,1.6c-0.4-0.1-0.7-0.1-1.1-0.2c-0.1,0.2-0.2,0.4-0.4,0.6c0.8,0.1,1.6,0.3,2.4,0.4c-0.3-1.1-0.6-2.1-0.9-3.2 C75.8,52.8,75.6,52.8,75.4,52.8z" class="st43"/><path d="M78,54.2c-0.2-0.4-0.5-0.8-0.7-1.1c-0.3,0-0.5-0.1-0.8-0.1c0.3,0.7,0.7,1.3,1.1,2c0,0.4-0.1,0.8-0.1,1.2 c0.2,0,0.5,0,0.7,0.1c0-0.4,0.1-0.8,0.1-1.2c0.5-0.6,0.9-1.2,1.4-1.8c-0.3,0-0.5,0-0.8,0C78.6,53.5,78.3,53.9,78,54.2z" class="st43"/><path d="M79.9,53.7c0,0,0,0.1,0,0.1c0,0.2,0,0.4,0,0.6c0,0.2,0,0.5,0,0.7c0,0.4,0,0.7,0,1.1c1.1,0,2.1,0,3.2-0.1 c0-0.2,0-0.4-0.1-0.6c-0.8,0.1-1.7,0.1-2.5,0.1c0-0.2,0-0.3,0-0.5c0,0,0-0.1,0-0.1c0.6,0,1.2,0,1.9-0.1c0-0.2,0-0.4,0-0.6 c-0.6,0-1.2,0.1-1.8,0.1c0-0.2,0-0.4,0-0.6c0.8,0,1.6,0,2.3-0.1c0-0.2,0-0.4-0.1-0.6c-1,0.1-1.9,0.1-2.9,0.1 C79.9,53.4,79.9,53.5,79.9,53.7z" class="st43"/><path d="M83.8,53.6c0.5-0.1,1.1-0.1,1.6-0.2c0,0.2,0.1,0.4,0.1,0.6c-0.5,0.1-1,0.2-1.4,0.2c0,0.2,0.1,0.4,0.1,0.6 c0.1,0,0.3,0,0.4-0.1c0.4,0.4,0.9,0.7,1.4,1c0.3,0,0.6-0.1,0.8-0.2c-0.5-0.3-1-0.7-1.4-1c0.2,0,0.3-0.1,0.5-0.1 c0.3-0.1,0.5-0.3,0.4-0.6c-0.1-0.3-0.1-0.6-0.2-0.8c-0.1-0.3-0.3-0.4-0.6-0.4c0,0,0,0,0,0c-0.8,0.1-1.6,0.3-2.4,0.3 c0.1,1,0.2,2,0.3,3c0.2,0,0.4,0,0.7-0.1C84,55.2,83.9,54.4,83.8,53.6z" class="st43"/><path id="_Path__7_" d="M88.4,52.1c0.4-0.1,0.8-0.2,1.2-0.4c0.1,0.2,0.1,0.4,0.2,0.5c-0.4,0.1-0.8,0.3-1.2,0.4 C88.5,52.4,88.4,52.2,88.4,52.1z" class="st44"/><path id="_Path_2_7_" d="M90.3,53.5c0-0.1-0.1-0.2-0.1-0.2c-0.1-0.3-0.4-0.4-0.7-0.3c-0.7,0.2-1.3,0.4-2,0.6 c0-0.1,0-0.1,0-0.2c-0.2,0.1-0.5,0.1-0.7,0.2c0,0.2,0.1,0.4,0.1,0.7c0.9-0.2,1.7-0.4,2.5-0.7c0,0.1,0,0.1,0.1,0.2 C89.8,53.7,90,53.6,90.3,53.5z" class="st44"/><path id="_Path_3_7_" d="M87.5,53.2c0-0.1,0-0.2-0.1-0.3c0.3-0.1,0.6-0.2,0.9-0.3c-0.1-0.2-0.1-0.4-0.2-0.6 c-0.5,0.2-1.1,0.3-1.6,0.4c0.1,0.3,0.1,0.6,0.2,0.8C87,53.3,87.2,53.3,87.5,53.2z" class="st45"/><path id="_Path_4_7_" d="M89.6,53.9c0,0.1,0.1,0.2,0.1,0.3c-0.3,0.1-0.7,0.2-1,0.3c0.1,0.2,0.1,0.4,0.2,0.6 c0.4-0.1,0.8-0.2,1.3-0.4c0.3-0.1,0.5-0.4,0.4-0.6c0-0.1-0.1-0.3-0.1-0.4C90.1,53.8,89.8,53.9,89.6,53.9z" class="st45"/><path id="_Path_5_7_" d="M87.7,54.5c0,0.1,0,0.2,0.1,0.3c0.2-0.1,0.5-0.1,0.7-0.2c0.1,0.2,0.1,0.4,0.2,0.6 c-0.3,0.1-0.6,0.2-0.9,0.2c-0.3,0.1-0.6-0.1-0.6-0.3c0-0.1-0.1-0.3-0.1-0.4C87.2,54.6,87.5,54.5,87.7,54.5z" class="st44"/></g></g></svg>