<?xml version="1.0" encoding="utf-8"?>
<!-- Generator: Adobe Illustrator 22.0.1, SVG Export Plug-In . SVG Version: 6.00 Build 0)  -->
<svg version="1.1" id="Layer_1" xmlns="http://www.w3.org/2000/svg" xmlns:xlink="http://www.w3.org/1999/xlink" x="0px" y="0px"
	 viewBox="0 0 1400 1000" style="enable-background:new 0 0 1400 1000;" xml:space="preserve">
<style type="text/css">
	.st0{fill:#3C494F;}
	.st1{fill:#477E96;}
	.st2{fill:#3C494E;}
	.st3{fill:#62ACCD;}
	.st4{fill:none;stroke:#3C494E;stroke-miterlimit:10;}
	.st5{fill:#00B39F;}
	.st6{fill:none;stroke:#00D3A9;stroke-width:22.1;}
	.st7{fill:#00D3A9;}
	.st8{fill:#00D3A9;stroke:#00D3A9;stroke-width:22.1;}
	.st9{fill:#00D3A9;stroke:#00D3A9;}
</style>
<g>
	<g transform="translate(-16.000000, 0.000000)">
		<path class="st0" d="M0.5,1012h1431V0H0.5V1012z"/>
		<path class="st1" d="M513.4,708.8v302.1H382.3V633L513.4,708.8z"/>
		<path class="st2" d="M513.4,708.8v302.1h131.1V633L513.4,708.8z"/>
		<path class="st3" d="M644.5,633l-131.1-75.7L382.3,633l0,0l0,0l131.1,75.7L644.5,633L644.5,633L644.5,633z M513.4,955.3v14.4
			L392.6,900v-14.4L513.4,955.3z"/>
		<path class="st2" d="M513.4,981.7l-131.1-75.8l10.3-6l120.6,69.8L513.4,981.7z"/>
		<path class="st2" d="M392.6,885.5l-10.3-6v26.3l10.3-6V885.5z"/>
		<path class="st3" d="M513.4,955.3v14.4L634.1,900v-14.4L513.4,955.3z"/>
		<path class="st2" d="M513.4,981.7l131.1-75.8l-10.3-6l-120.6,69.8L513.4,981.7z"/>
		<path class="st2" d="M634.1,885.5l10.3-6v26.3l-10.3-6V885.5z"/>
		<path class="st3" d="M513.4,803.8v14.4l-120.8-69.8V734L513.4,803.8z"/>
		<path class="st2" d="M513.4,830.2l-131.1-75.8l10.3-6l120.6,69.8L513.4,830.2z"/>
		<path class="st2" d="M392.6,734l-10.3-6v26.3l10.3-6V734z"/>
		<path class="st3" d="M513.4,803.8v14.4l120.8-69.8V734L513.4,803.8z"/>
		<path class="st2" d="M513.4,830.2l131.1-75.8l-10.3-6l-120.6,69.8L513.4,830.2z"/>
		<path class="st4" d="M634.1,734l10.3-6v26.3l-10.3-6V734z"/>
		<path class="st1" d="M906.7,481.6v399.8l-131.1-75.7V405.9L906.7,481.6z"/>
		<path class="st2" d="M906.7,481.6v399.8l131.1-75.7V405.9L906.7,481.6z"/>
		<path class="st3" d="M1037.8,405.9l-131.1-75.7l-131.1,75.7l0,0l0,0l131.1,75.7L1037.8,405.9L1037.8,405.9L1037.8,405.9z
			 M906.7,728.2v14.4l-120.8-69.8v-14.4L906.7,728.2z"/>
		<path class="st2" d="M906.7,754.5l-131.1-75.8l10.3-6l120.6,69.8L906.7,754.5z M785.9,658.4l-10.3-6v26.3l10.3-6V658.4z"/>
		<path class="st3" d="M906.7,728.2v14.4l120.8-69.8v-14.4L906.7,728.2z"/>
		<path class="st2" d="M906.7,754.5l131.1-75.8l-10.3-6l-120.6,69.8L906.7,754.5z M1027.4,658.4l10.3-6v26.3l-10.3-6V658.4z"/>
		<path class="st3" d="M906.7,576.7v14.4l-120.8-69.8v-14.4L906.7,576.7z"/>
		<path class="st2" d="M906.7,603l-131.1-75.8l10.3-6L906.5,591L906.7,603z"/>
		<path class="st2" d="M785.9,506.9l-10.3-6v26.3l10.3-6V506.9z"/>
		<path class="st3" d="M906.7,576.7v14.4l120.8-69.8v-14.4L906.7,576.7z"/>
		<path class="st2" d="M907.9,604.9l128.8-79.5l-10.5-5.6L907.7,593L907.9,604.9z"/>
		<path class="st2" d="M1027.4,506.9l10.3-6v26.3l-10.3-6V506.9z M1300.6,361.4h-0.7v76.1"/>
		<path class="st1" d="M1299.9,254.5v399.8l-131.1-75.7V178.8L1299.9,254.5z"/>
		<path class="st2" d="M1299.9,254.5v399.8l131.1-75.7V178.8L1299.9,254.5z"/>
		<path class="st3" d="M1431,178.8l-131.1-75.7l-131.1,75.7l0,0l0,0l131.1,75.7L1431,178.8L1431,178.8L1431,178.8z M1299.9,501.1
			v14.4l-120.8-69.8v-14.4L1299.9,501.1z"/>
		<path class="st2" d="M1299.9,527.4l-131.1-75.8l10.3-6l120.6,69.8L1299.9,527.4z"/>
		<path class="st2" d="M1179.2,431.3l-10.3-6v26.4l10.3-6V431.3z"/>
		<path class="st3" d="M1299.9,501.1v14.4l120.8-69.8v-14.4L1299.9,501.1z"/>
		<path class="st2" d="M1299.9,527.4l131.1-75.8l-10.3-6l-120.6,69.8L1299.9,527.4z"/>
		<path class="st3" d="M1299.9,349.6V364l-120.8-69.8v-14.4L1299.9,349.6z"/>
		<path class="st2" d="M1299.9,375.9l-131.1-75.8l10.3-6l120.6,69.8L1299.9,375.9z"/>
		<path class="st2" d="M1179.2,279.8l-10.3-6v26.3l10.3-6V279.8z"/>
		<path class="st3" d="M1299.9,349.6V364l120.8-69.8v-14.4L1299.9,349.6z"/>
		<path class="st2" d="M1299.9,375.9l131.1-75.8l-10.3-6L1300.1,364L1299.9,375.9z"/>
		<path class="st1" d="M775.5,860.5v150.3H644.4v-226L775.5,860.5z"/>
		<path class="st2" d="M775.5,860.5v150.3h131.1v-226L775.5,860.5z"/>
		<path class="st3" d="M906.7,784.8l-131.1-75.7l-131.1,75.7l0,0l0,0l131.1,75.7L906.7,784.8L906.7,784.8L906.7,784.8z M775.5,955.6
			V970l-120.8-69.8v-14.4L775.5,955.6z"/>
		<path class="st2" d="M775.5,981.9l-131.1-75.8l10.3-6L775.4,970L775.5,981.9z"/>
		<path class="st2" d="M654.8,885.8l-10.3-6v26.3l10.3-6V885.8z"/>
		<path class="st3" d="M775.5,955.6V970l120.8-69.8v-14.4L775.5,955.6z"/>
		<path class="st2" d="M775.5,981.9l131.1-75.8l-10.3-6L775.7,970L775.5,981.9z"/>
		<path class="st2" d="M896.3,885.8l10.3-6v26.3l-10.3-6V885.8z"/>
		<path class="st3" d="M1300,557.7L1168.9,482l-131.1,75.7l0,0l0,0l131.1,75.7L1300,557.7L1300,557.7L1300,557.7z"/>
		<path class="st1" d="M1168.8,633.4l-131.1-75.7v399.8l93.9,54.2h37.2V633.4z"/>
		<path class="st2" d="M1206.1,1011.7l93.9-54.2V557.7l-131.1,75.7v378.3H1206.1z"/>
		<path class="st3" d="M1168.8,880v14.4L1048,824.6v-14.4L1168.8,880z"/>
		<path class="st2" d="M1168.8,906.3l-131.1-75.8l10.3-6l120.6,69.8L1168.8,906.3z"/>
		<path class="st2" d="M1048.1,810.2l-10.3-6v26.3l10.3-6V810.2z"/>
		<path class="st3" d="M1168.8,880v14.4l120.8-69.8v-14.4L1168.8,880z"/>
		<path class="st2" d="M1168.8,906.3l131.1-75.8l-10.3-6L1169,894.4L1168.8,906.3z"/>
		<path class="st2" d="M1289.6,810.2l10.3-6v26.3l-10.3-6V810.2z"/>
		<path class="st3" d="M1168.8,728.5v14.4L1048,673.1v-14.4L1168.8,728.5z"/>
		<path class="st2" d="M1168.8,754.8L1037.7,679l10.3-6l120.6,69.8L1168.8,754.8z M1048.1,658.7l-10.3-6V679l10.3-6V658.7z"/>
		<path class="st3" d="M1168.8,728.5v14.4l120.8-69.8v-14.4L1168.8,728.5z"/>
		<path class="st2" d="M1168.8,754.8l131.1-75.8l-10.3-6L1169,742.9L1168.8,754.8z M1289.6,658.7l10.3-6V679l-10.3-6V658.7z"/>
		<path class="st1" d="M1037.7,1012L1037.7,1012H906.6v-75.7L1037.7,1012z"/>
		<path class="st2" d="M1037.7,1012L1037.7,1012h131.1v-75.7L1037.7,1012z"/>
		<path class="st3" d="M1168.8,936.3l-131.1-75.7l-131.1,75.7l0,0l0,0l131.1,75.7L1168.8,936.3L1168.8,936.3L1168.8,936.3z"/>
		<path class="st1" d="M1431,784.8V1012h-131.1V709.1L1431,784.8z"/>
		<path class="st3" d="M1431,633.4l-131.1,75.7l0,0l0,0l131.1,75.7V633.4z"/>
		<path class="st2" d="M1310.3,961.6l-10.3-6V982l10.3-6V961.6z"/>
		<path class="st3" d="M1431,879.9v14.4l-120.8-69.8v-14.4L1431,879.9z"/>
		<path class="st2" d="M1431,906.2l-131.1-75.8l10.3-6l120.6,69.8L1431,906.2z"/>
		<path class="st2" d="M1310.3,810.1l-10.3-6v26.3l10.3-6V810.1z"/>
		<path class="st1" d="M1299.9,160.7v55.2l-64.2-37.1v-55.2L1299.9,160.7z"/>
		<path class="st5" d="M1299.9,160.7l-64.2-37.1l64.6-37.1l63.9,37.1L1299.9,160.7z"/>
		<path class="st2" d="M1299.9,160.7v55.2l64.2-37.1v-55.2L1299.9,160.7z"/>
		<path class="st1" d="M906.7,387.8V443l-64.2-37.1v-55.2L906.7,387.8z"/>
		<path class="st6" d="M479.4,624l800.3-461.1"/>
		<path class="st1" d="M1299.9,160.7v27.6l-64.2-37.1v-27.6L1299.9,160.7z M906.7,387.8v27.6l-64.2-37.1v-27.6L906.7,387.8z"/>
		<path class="st5" d="M906.7,387.8l-64.2-37.1l64.6-37.1l63.9,37.1L906.7,387.8z"/>
		<path class="st2" d="M906.7,387.8V443l64.2-37.1v-55.2L906.7,387.8z"/>
		<path class="st1" d="M513.4,614.9v55.2L449.1,633v-55.2L513.4,614.9z"/>
		<path class="st5" d="M513.4,614.9l-64.2-37.1l64.6-37.1l63.9,37.1L513.4,614.9z"/>
		<path class="st2" d="M513.4,614.9v55.2l64.2-37.1v-55.2L513.4,614.9z"/>
		<path class="st1" d="M1168.8,541.5v55.2l-64.2-37.1v-55.2L1168.8,541.5z"/>
		<path class="st7" d="M736.1,768.1l11,19.1l684-394v-25.5L736.1,768.1z"/>
		<path class="st2" d="M1168.8,541.5v55.2l64.2-37.1v-55.2L1168.8,541.5z M775.5,768.6v55.2l64.2-37.1v-55.2L775.5,768.6z"/>
		<path class="st8" d="M530.3,614.9l538,312.3"/>
		<path class="st1" d="M1431,691v55.2l-64.2-37.1v-55.2L1431,691z"/>
		<path class="st9" d="M1414,678.1L998.3,917.6l11,19.1l419-241.4C1423.8,689.4,1419.2,683.5,1414,678.1"/>
		<path class="st1" d="M1037.7,918.1v55.2l-64.2-37.1V881L1037.7,918.1z"/>
		<path class="st5" d="M1037.7,918.1L973.5,881l64.6-37.1L1102,881L1037.7,918.1z"/>
		<path class="st0" d="M1037.7,918.1v55.2l64.2-37.1V881L1037.7,918.1z M513.4,614.9v27.6l64.2-37.1v-27.6L513.4,614.9z
			 M775.5,768.6v27.6l64.2-37.1v-27.6L775.5,768.6z"/>
		<path class="st5" d="M775.5,768.6l-64.2-37.1l64.6-37.1l63.9,37.1L775.5,768.6z"/>
		<path class="st1" d="M775.5,768.6v55.2l-64.2-37.1v-55.2L775.5,768.6z"/>
		<path class="st9" d="M929.1,378.2L918,397.3l513,297.8v-25.6L929.1,378.2z"/>
		<path class="st1" d="M1431,691v27.6l-64.2-37.1v-27.6L1431,691z"/>
		<path class="st5" d="M1431,691l-64.2-37.1l64.6-37.1L1431,691z M1168.8,541.5l-64.2-37.1l64.6-37.1l63.9,37.1L1168.8,541.5z"/>
		<path class="st1" d="M1168.8,541.5v27.6l-64.2-37.1v-27.6L1168.8,541.5z"/>
		<path class="st2" d="M906.7,387.8v27.6l64.2-37.1v-27.6L906.7,387.8z M1168.8,541.5v27.6L1233,532v-27.6L1168.8,541.5z"/>
		<path class="st7" d="M1343.3,163.2l-22.1,12.7l109.8,63.7V214L1343.3,163.2z"/>
		<path class="st2" d="M1322.4,151.1l20.9,12.1l20.9-12.1v-27.6l-64.2,37.1v27.6l21.3-12.3l-9.9-5.8L1322.4,151.1z"/>
		<path class="st2" d="M1322.4,151.1l-11.1,19.1l9.9,5.8l22.1-12.7L1322.4,151.1z"/>
		<path class="st3" d="M1397.4,1012l-87.2-50.4V976l62.2,35.9L1397.4,1012z"/>
		<path class="st2" d="M1310.3,976l-10.3,6l51.9,30h20.5L1310.3,976z"/>
		<path class="st9" d="M1060.2,908.5l-11.1,19.1l145.2,84.3h44L1060.2,908.5z"/>
		<path class="st2" d="M1037.7,918.1v27.6l64.2-37.1V881L1037.7,918.1z"/>
	</g>
</g>
</svg>
