<svg width="209" height="209" viewBox="0 0 209 209" fill="none" xmlns="http://www.w3.org/2000/svg">
<g filter="url(#filter0_dddd_16209_38767)">
<path d="M105.858 196.672C105.077 197.453 103.81 197.453 103.029 196.672L12.3008 105.943C11.5197 105.162 11.5197 103.896 12.3008 103.115L103.029 12.3866C103.81 11.6056 105.077 11.6056 105.858 12.3866L196.586 103.115C197.367 103.896 197.367 105.162 196.586 105.943L105.858 196.672Z" fill="url(#paint0_linear_16209_38767)" shape-rendering="crispEdges"/>
<path d="M100.908 198.793L103.018 196.682L100.908 198.793C102.86 200.746 106.026 200.746 107.979 198.793L105.863 196.677L107.979 198.793L198.707 108.065L196.602 105.959L198.707 108.065C200.66 106.112 200.66 102.946 198.707 100.994L196.591 103.11L198.707 100.994L107.979 10.2653C106.026 8.31267 102.86 8.31267 100.908 10.2653L10.1795 100.994C8.22685 102.946 8.22685 106.112 10.1795 108.065L100.908 198.793Z" stroke="#F6F8F8" stroke-width="6" shape-rendering="crispEdges"/>
</g>
<g filter="url(#filter1_di_16209_38767)">
<path d="M105.858 185.828C105.077 186.609 103.81 186.609 103.029 185.828L23.1479 105.947C22.3669 105.166 22.3669 103.899 23.1479 103.118L103.029 23.2372C103.81 22.4561 105.077 22.4561 105.858 23.2372L185.739 103.118C186.52 103.899 186.52 105.166 185.739 105.947L105.858 185.828Z" fill="#252E31"/>
</g>
<path d="M103.185 23.2033C103.966 22.4222 105.233 22.4222 106.014 23.2033L185.678 102.868C186.459 103.649 186.459 104.915 185.678 105.696L106.014 185.361C105.233 186.142 103.966 186.142 103.185 185.361L23.5205 105.696C22.7395 104.915 22.7395 103.649 23.5205 102.868L103.185 23.2033Z" fill="url(#paint1_linear_16209_38767)"/>
<g clip-path="url(#clip0_16209_38767)">
<path d="M131.846 84.6122C132.196 85.0496 132.453 85.54 132.649 86.0609C132.903 86.7326 133.018 87.4314 132.873 88.1399C132.679 89.0909 132.123 89.7605 131.194 90.0825C130.833 90.2074 130.458 90.2579 130.085 90.1014C130.033 90.0833 129.985 90.057 129.942 90.0236C129.937 90.2454 129.853 90.4581 129.706 90.6241C129.755 90.6022 129.807 90.5874 129.86 90.5802C129.911 90.5707 129.965 90.5634 130.015 90.5588C130.512 90.5178 130.991 90.4126 131.446 90.1951C132.147 89.8587 132.734 89.3795 133.233 88.7871C133.519 88.4544 133.758 88.0844 133.944 87.6874C134.206 87.1019 134.375 86.4785 134.444 85.8403C134.508 85.2899 134.491 84.7501 134.436 84.205C134.423 84.0734 134.366 84.0191 134.248 83.998C133.944 83.944 133.64 83.8833 133.342 83.8107C132.561 83.621 131.774 83.46 130.991 83.279C130.713 83.2141 130.434 83.1555 130.155 83.0938C130.359 83.2891 130.579 83.4498 130.792 83.6199C131.169 83.9209 131.542 84.2306 131.846 84.6122Z" fill="#00B39F"/>
<path d="M123.249 91.3854C123.489 90.378 123.885 89.4537 124.703 88.7725C125.448 88.152 126.291 87.9587 127.22 88.2814C127.689 88.4438 128.091 88.7065 128.305 89.1839C128.327 89.2261 128.342 89.2711 128.351 89.3176C128.496 89.1782 128.683 89.0897 128.883 89.065C128.871 89.057 128.858 89.0478 128.844 89.0366C128.559 88.8069 128.287 88.5568 127.956 88.3877C126.777 87.7868 125.539 87.7093 124.281 88.0299C122.947 88.3691 121.916 89.179 121.07 90.2447C120.975 90.3643 120.983 90.4414 121.061 90.5625C121.717 91.5839 122.367 92.6095 123.019 93.6338C123.105 93.7695 123.194 93.9028 123.313 94.0817C123.325 93.7797 123.261 93.5384 123.227 93.2953C123.138 92.6569 123.098 92.0206 123.249 91.3854Z" fill="#00D3A9"/>
<path d="M125.258 84.2961C125.711 84.2201 126.168 84.1695 126.627 84.1446C127.043 84.1218 127.45 84.2039 127.854 84.3091C128.806 84.5585 129.66 84.9756 130.287 85.7651C130.885 86.5179 131.029 87.3626 130.708 88.2682C130.544 88.7313 130.266 89.1157 129.793 89.3241C129.76 89.3405 129.724 89.3502 129.688 89.3525C129.83 89.5037 129.918 89.6977 129.938 89.9042C129.959 89.8699 129.983 89.8374 130.01 89.8071C130.357 89.3942 130.671 88.961 130.851 88.444C131.087 87.7657 131.186 87.0471 131.141 86.3302C131.107 85.6293 130.93 84.9428 130.621 84.3126C130.179 83.4192 129.542 82.684 128.763 82.0656C128.647 81.9733 128.563 81.9842 128.442 82.0621C127.441 82.7064 126.433 83.3417 125.431 83.9832C125.275 84.0829 125.108 84.1695 124.958 84.3109C125.058 84.3172 125.159 84.3123 125.258 84.2961Z" fill="#00D3A9"/>
<path d="M122.442 88.4449C122.836 87.9461 123.213 87.4301 123.743 87.0611C124.724 86.3799 125.784 85.9386 127.003 86.1084C127.984 86.2459 128.693 86.7815 129.048 87.7279C129.2 88.1345 129.248 88.5547 129.07 88.9746C129.058 89.0029 129.044 89.0299 129.026 89.0549C129.228 89.06 129.422 89.1301 129.581 89.2548C129.577 89.241 129.574 89.2269 129.571 89.2127C129.562 89.1612 129.562 89.1075 129.557 89.0563C129.526 88.642 129.459 88.2365 129.31 87.8447C128.995 87.0141 128.455 86.355 127.79 85.7815C126.808 84.9358 125.651 84.5731 124.382 84.5247C124.021 84.511 123.659 84.5072 123.298 84.5545C123.049 84.5871 123.03 84.5896 122.977 84.8351C122.745 85.8942 122.512 86.9532 122.279 88.012C122.218 88.2881 122.159 88.5642 122.091 88.8791C122.251 88.7343 122.335 88.5799 122.442 88.4449Z" fill="#00B39F"/>
<path d="M136.941 89.4457C136.282 88.4194 135.631 87.3881 134.973 86.361C134.885 86.2249 134.816 86.0727 134.669 85.9219C134.711 86.28 134.742 86.5918 134.786 86.9019C134.878 87.5487 134.877 88.1896 134.706 88.8259C134.438 89.8256 133.991 90.7137 133.151 91.3592C132.69 91.7141 132.158 91.8748 131.585 91.8822C131.184 91.8874 130.802 91.7713 130.447 91.5808C130.137 91.4146 129.874 91.1985 129.718 90.8737C129.669 90.7709 129.648 90.7088 129.663 90.6671C129.512 90.8176 129.315 90.9123 129.103 90.9354C129.158 90.9708 129.211 91.0102 129.26 91.0533C129.555 91.2925 129.849 91.5321 130.195 91.6969C131.159 92.1554 132.178 92.2529 133.216 92.0895C134.78 91.8439 135.965 90.9638 136.938 89.7558C137.026 89.6446 137.015 89.5608 136.941 89.4457Z" fill="#00D3A9"/>
<path d="M134.867 92.4068C133.899 93.382 132.736 93.9267 131.337 93.9306C130.362 93.9334 129.328 93.2922 128.982 92.3521C128.838 91.9628 128.743 91.5678 128.891 91.1574C128.93 91.0487 128.956 90.9796 128.986 90.9448C128.774 90.9425 128.569 90.8683 128.405 90.7344C128.423 90.7869 128.433 90.8415 128.437 90.8968C128.468 91.1977 128.483 91.5029 128.573 91.7937C129.054 93.3437 130.086 94.4041 131.545 95.0467C132.478 95.4571 133.47 95.5824 134.49 95.4764C134.945 95.4287 134.948 95.4371 135.039 95.0376C135.289 93.9348 135.54 92.832 135.783 91.7274C135.824 91.5415 135.898 91.3577 135.894 91.1178C135.837 91.1953 135.806 91.236 135.776 91.2777C135.493 91.6692 135.208 92.0645 134.867 92.4068Z" fill="#00B39F"/>
<path d="M126.32 95.5902C125.875 95.0907 125.557 94.5136 125.335 93.8872C125.125 93.2884 125.001 92.6728 125.102 92.0316C125.248 91.1 125.72 90.4037 126.59 90.0147C127.011 89.8256 127.456 89.7362 127.915 89.9123C127.965 89.9289 128.013 89.9515 128.058 89.9796C128.062 89.7772 128.131 89.5816 128.256 89.4219C128.218 89.4294 128.181 89.4343 128.143 89.4366C127.893 89.452 127.645 89.4837 127.399 89.5313C126.55 89.7116 125.845 90.1564 125.226 90.7425C124.4 91.5223 123.868 92.4697 123.645 93.589C123.509 94.2688 123.49 94.9507 123.542 95.6396C123.561 95.9055 123.671 96.0006 123.938 96.0546C125.051 96.2808 126.156 96.5457 127.266 96.787C127.455 96.8284 127.64 96.8985 127.89 96.9062C127.708 96.7659 127.567 96.6586 127.426 96.5509C127.037 96.2542 126.647 95.9574 126.32 95.5902Z" fill="#00B39F"/>
<path d="M132.956 95.6853C132.56 95.7555 132.162 95.8039 131.764 95.8424C131.437 95.874 131.106 95.8902 130.786 95.8424C130.323 95.777 129.871 95.653 129.44 95.4734C128.769 95.1928 128.161 94.8214 127.709 94.2352C127.165 93.5277 126.981 92.7395 127.249 91.8791C127.401 91.3922 127.651 90.9576 128.144 90.7216C128.232 90.6798 128.292 90.6602 128.335 90.6661C128.187 90.5181 128.093 90.3249 128.067 90.1172C128.045 90.1487 128.022 90.179 127.997 90.208C127.77 90.482 127.538 90.7524 127.374 91.072C126.978 91.8437 126.833 92.6641 126.854 93.5274C126.866 94.1644 126.997 94.7935 127.242 95.3819C127.668 96.3991 128.346 97.2273 129.206 97.9127C129.341 98.02 129.437 98.0313 129.588 97.9334C130.454 97.3722 131.329 96.8207 132.2 96.2662C132.489 96.0824 132.776 95.8972 133.067 95.7099C133.053 95.6956 133.035 95.6857 133.015 95.6814C132.995 95.6771 132.975 95.6784 132.956 95.6853Z" fill="#00D3A9"/>
</g>
<defs>
<filter id="filter0_dddd_16209_38767" x="0.714966" y="0.804688" width="207.457" height="207.453" filterUnits="userSpaceOnUse" color-interpolation-filters="sRGB">
<feFlood flood-opacity="0" result="BackgroundImageFix"/>
<feColorMatrix in="SourceAlpha" type="matrix" values="0 0 0 0 0 0 0 0 0 0 0 0 0 0 0 0 0 0 127 0" result="hardAlpha"/>
<feOffset dy="1"/>
<feGaussianBlur stdDeviation="2"/>
<feComposite in2="hardAlpha" operator="out"/>
<feColorMatrix type="matrix" values="0 0 0 0 0 0 0 0 0 0 0 0 0 0 0 0 0 0 0.25 0"/>
<feBlend mode="normal" in2="BackgroundImageFix" result="effect1_dropShadow_16209_38767"/>
<feColorMatrix in="SourceAlpha" type="matrix" values="0 0 0 0 0 0 0 0 0 0 0 0 0 0 0 0 0 0 127 0" result="hardAlpha"/>
<feOffset dy="-1"/>
<feGaussianBlur stdDeviation="2"/>
<feComposite in2="hardAlpha" operator="out"/>
<feColorMatrix type="matrix" values="0 0 0 0 0 0 0 0 0 0 0 0 0 0 0 0 0 0 0.25 0"/>
<feBlend mode="normal" in2="effect1_dropShadow_16209_38767" result="effect2_dropShadow_16209_38767"/>
<feColorMatrix in="SourceAlpha" type="matrix" values="0 0 0 0 0 0 0 0 0 0 0 0 0 0 0 0 0 0 127 0" result="hardAlpha"/>
<feOffset dx="-1"/>
<feGaussianBlur stdDeviation="2"/>
<feComposite in2="hardAlpha" operator="out"/>
<feColorMatrix type="matrix" values="0 0 0 0 0 0 0 0 0 0 0 0 0 0 0 0 0 0 0.25 0"/>
<feBlend mode="normal" in2="effect2_dropShadow_16209_38767" result="effect3_dropShadow_16209_38767"/>
<feColorMatrix in="SourceAlpha" type="matrix" values="0 0 0 0 0 0 0 0 0 0 0 0 0 0 0 0 0 0 127 0" result="hardAlpha"/>
<feOffset dx="1"/>
<feGaussianBlur stdDeviation="2"/>
<feComposite in2="hardAlpha" operator="out"/>
<feColorMatrix type="matrix" values="0 0 0 0 0 0 0 0 0 0 0 0 0 0 0 0 0 0 0.25 0"/>
<feBlend mode="normal" in2="effect3_dropShadow_16209_38767" result="effect4_dropShadow_16209_38767"/>
<feBlend mode="normal" in="SourceGraphic" in2="effect4_dropShadow_16209_38767" result="shape"/>
</filter>
<filter id="filter1_di_16209_38767" x="18.5621" y="16.6484" width="171.762" height="171.766" filterUnits="userSpaceOnUse" color-interpolation-filters="sRGB">
<feFlood flood-opacity="0" result="BackgroundImageFix"/>
<feColorMatrix in="SourceAlpha" type="matrix" values="0 0 0 0 0 0 0 0 0 0 0 0 0 0 0 0 0 0 127 0" result="hardAlpha"/>
<feOffset dy="-2"/>
<feGaussianBlur stdDeviation="2"/>
<feComposite in2="hardAlpha" operator="out"/>
<feColorMatrix type="matrix" values="0 0 0 0 0 0 0 0 0 0 0 0 0 0 0 0 0 0 0.25 0"/>
<feBlend mode="normal" in2="BackgroundImageFix" result="effect1_dropShadow_16209_38767"/>
<feBlend mode="normal" in="SourceGraphic" in2="effect1_dropShadow_16209_38767" result="shape"/>
<feColorMatrix in="SourceAlpha" type="matrix" values="0 0 0 0 0 0 0 0 0 0 0 0 0 0 0 0 0 0 127 0" result="hardAlpha"/>
<feOffset dy="2"/>
<feGaussianBlur stdDeviation="2"/>
<feComposite in2="hardAlpha" operator="arithmetic" k2="-1" k3="1"/>
<feColorMatrix type="matrix" values="0 0 0 0 0 0 0 0 0 0 0 0 0 0 0 0 0 0 0.25 0"/>
<feBlend mode="normal" in2="shape" result="effect2_innerShadow_16209_38767"/>
</filter>
<linearGradient id="paint0_linear_16209_38767" x1="104.443" y1="198.086" x2="104.443" y2="10.9724" gradientUnits="userSpaceOnUse">
<stop stop-color="#00D3A9" stop-opacity="0.6"/>
<stop offset="1" stop-color="#00B39F"/>
</linearGradient>
<linearGradient id="paint1_linear_16209_38767" x1="163.239" y1="13.341" x2="53.9109" y2="186.775" gradientUnits="userSpaceOnUse">
<stop stop-color="white" stop-opacity="0.17"/>
<stop offset="0.486111" stop-color="#252E31" stop-opacity="0.16"/>
<stop offset="1" stop-color="#252E31"/>
</linearGradient>
<clipPath id="clip0_16209_38767">
<rect width="16" height="16" fill="white" transform="translate(121 82)"/>
</clipPath>
</defs>
</svg>
