<svg xmlns="http://www.w3.org/2000/svg" width="48.274" height="43.447" viewBox="0 0 48.274 43.447"><g id="app-store-apple-symbol" transform="translate(0 -21.503)"><path id="App_Store" fill="#8a57de" d="M0,48.129V41.578a1.1,1.1,0,0,1,1.1-1.091H12.672l-5.04,8.734H1.1A1.1,1.1,0,0,1,0,48.129ZM8.246,61.542l-3.694,2.5c-.5.338-.849.124-.78-.473l.493-4.282a.67.67,0,0,1,1.075-.542L8.2,60.382A.632.632,0,0,1,8.246,61.542Zm.887-2.414L6.274,57.495a1.087,1.087,0,0,1-.4-1.489L19.11,33.058a1.1,1.1,0,0,1,1.5-.4l2.859,1.63a1.1,1.1,0,0,1,.4,1.492L10.633,58.728A1.106,1.106,0,0,1,9.133,59.129Zm10.075-9.908,5.04-8.734h2.9l4.092,8.734Zm16.414,2.606c-1.144-.572-6.845-13.665-8.3-17.081s-5.876-12.51-4.448-13.218c1.016-.507,4.663,6.653,7.4,10.952S38.7,47.865,39.407,49.127s-.673,2.321-1.435,2.636A2.207,2.207,0,0,1,35.623,51.827Zm3.746,6.018-1.722-2.709a1.07,1.07,0,0,1,.406-1.556l1.642-.841a1.212,1.212,0,0,1,1.611.534l1.359,2.6a1.284,1.284,0,0,1-.459,1.676l-1.174.7A1.237,1.237,0,0,1,39.368,57.846Zm6.339,7.1C45.347,63.8,42.6,63.727,41.37,62s-.214-2.61.214-3.019C46.573,56.182,45.707,64.95,45.707,64.95Zm2.567-16.822a1.1,1.1,0,0,1-1.1,1.092H41.383a3.285,3.285,0,0,0-.343-.989c-.151-.269-.532-.994-1.063-2-.767-1.458-1.868-3.544-3.048-5.74H47.177a1.1,1.1,0,0,1,1.1,1.091v6.551h0Z" transform="translate(0)"/></g></svg>