<svg xmlns="http://www.w3.org/2000/svg" id="Layer_1" data-name="Layer 1" viewBox="0 0 576.9 94.19">
    <defs>
        <style>
            .cls-1 {
                fill: #3c494f
            }

            .cls-2 {
                fill: #00b39f
            }

            .cls-3 {
                fill: #00d3a9
            }
        </style>
    </defs>
    <title>layer5-no-trim</title>
    <polygon points="18.76 0 0 0 0 93.78 88.91 93.78 88.91 75.03 18.76 75.03 18.76 0" class="cls-1" />
    <polygon
        points="135.84 0 98.33 93.78 119.72 93.78 145.22 28.14 163.39 75.03 132.22 75.03 125.22 93.78 192.11 93.78 154.59 0 135.84 0"
        class="cls-1" />
    <polygon
        points="218.58 32.83 195.14 0 171.69 0 209.2 56.27 209.2 93.78 227.96 93.78 227.96 56.27 265.47 0 242.32 0 218.58 32.83"
        class="cls-1" />
    <polygon
        points="273.56 14.77 273.56 18.76 273.56 37.51 273.56 60.39 273.56 93.78 362.46 93.78 362.46 75.03 292.32 75.03 292.32 60.39 292.32 56.27 346.21 56.27 346.21 37.51 292.32 37.51 292.32 18.76 362.46 18.76 362.46 0 273.56 0 273.56 14.77"
        class="cls-1" />
    <path
        d="M392.92,17.88H441V37.39H398.12l.18,17.88h12.87l34,38.51h23.16l-34-38.51h13.27a14.56,14.56,0,0,0,14.57-14.56V14.57A14.57,14.57,0,0,0,447.59,0h-73V93.78h18.76Z"
        class="cls-1" />
    <rect id="_Path_" width="36.93" height="17.79" x="536.61" y=".4" class="cls-2" data-name="&lt;Path&gt;" />
    <path id="_Path_2" d="M576.9,60.33V53c0-8.49-7.14-15.37-15.94-15.37h-59.6V32.74H479.54v21h75.54v6.57Z" class="cls-2"
        data-name="&lt;Path&gt;" />
    <polygon id="_Path_3" points="501.36 26.93 501.36 18.19 530.58 18.19 530.58 .4 479.54 .4 479.54 26.93 501.36 26.93"
        class="cls-3" data-name="&lt;Path&gt;" />
    <path id="_Path_4" d="M555.08,66.05V76.4H525.86V94.19h36a14.77,14.77,0,0,0,15-14.49V66.05Z" class="cls-3"
        data-name="&lt;Path&gt;" />
    <path id="_Path_5" d="M499.61,67V76.4h20.22V94.19h-26a14.77,14.77,0,0,1-15-14.49V67Z" class="cls-2"
        data-name="&lt;Path&gt;" />
</svg>