<svg xmlns="http://www.w3.org/2000/svg" viewBox="0 0 177.92 140.62"><defs><style>.cls-1{fill:#657982}.cls-2{fill:#62accc}.cls-3{fill:#477e96}.cls-4{fill:#9fbfcd}.cls-5{fill:#48bea0}</style></defs><title>Asset 1</title><g id="Layer_2" data-name="Layer 2"><g id="Layer_1-2" data-name="Layer 1"><path d="M155,53.76c4.82,1.21,5.91,3.82,5.87,7.91-.19,20.61-.09,41.23-.09,62.3,4.43,0,8.73.06,13,0,3,0,4.14,1.33,4.14,4.25,0,7.29-4.79,12.41-11.94,12.42q-77,0-153.94,0c-7.94,0-12.43-4.86-12-12.55.16-3,1.42-4.18,4.33-4.12,4.15.09,8.3,0,12.89,0v-5.48q0-41.49,0-83C17.26,26.57,19.91,24,28.93,24c12.79,0,25.59,0,38.68,0v4.93a15.79,15.79,0,0,1-2.8.49c-11.82,0-23.66.18-35.48,0-4.61-.08-6.45,1.18-6.41,6.22q.34,41.22,0,82.46c0,4.63,1.54,6,6.08,6q60-.21,120,0c4.55,0,6.13-1.38,6.08-6C154.86,96.71,155,75.4,155,53.76ZM6.1,129.79c.2,4.66,3.06,5.24,6.46,5.23q26.22,0,52.46,0,49.71,0,99.43,0c3.59,0,6.55-.44,7.15-5.26Z"/><path d="M142,18.26c9.66,4.41,13.7,10.37,11,17.7-1.33,3.55-4.47,6.92-7.66,9.1-2.44,1.66-3.48,2.93-3.29,5.7s.74,5.62-.19,7.91c-1.07,2.62-3.21,5.79-5.6,6.6-2.12.72-6.76-.72-7.63-2.51-4.59-9.37-13.49-9.86-21.79-11.62-2.67-.56-5.57-.09-9.1-.09,0,6.34-.16,12.6.06,18.86.14,4.07-1.36,5.62-5.5,5.57-12.16-.15-10.18.42-10.33-10.08,0-2.5,0-5,0-7.5.08-3.92.63-7.63-4.67-9.39-1.77-.6-3.16-4.52-3.41-7.06-.52-5.27-.19-10.64-.16-16,0-8.3,3-11.17,11.52-11.39,8.8-.24,17.65-.17,26.4-1.07,6.8-.7,13.1-2.81,16.61-10.06.92-1.92,5.6-3.44,8-2.84s4.93,3.86,5.58,6.42C142.68,10.3,142,14.45,142,18.26Zm-38.85,1.6V44.34l23.17,6.13V14.35c-4,1.32-7.53,2.76-11.21,3.63C111.25,18.88,107.27,19.23,103.13,19.86Zm-6.21,0H83.42c-2.86,0-4.21,1.45-4.18,4.33,0,5.47.07,10.95,0,16.42,0,3,1.41,4.31,4.18,4.35,4.43.07,8.86,0,13.52,0Zm35.35,12.45c0,8-.1,16,.09,24,0,1.24,1.36,2.44,2.09,3.66.59-1.17,1.69-2.35,1.7-3.53q.16-23.73,0-47.47c0-1.31-1.18-2.61-1.82-3.92-.68,1.43-1.92,2.85-2,4.3C132.17,17,132.27,24.67,132.27,32.33ZM91.72,51.57,90,50.41c-.88,1.3-2.42,2.57-2.52,3.92-.27,4.14.09,8.31.06,12.47,0,3.1,1.33,3.73,4.18,2.62Zm52-26.44-1.41.84V39.83c3.71-1.62,6.3-3.87,5.55-7.51C147.34,29.75,145.17,27.52,143.73,25.13Z"/><path d="M68,35l-.28,5.6H34.89v72H143.35V66.17l5.77-.32V93.06c0,6.83-.12,13.66,0,20.48.08,3.44-1.24,4.76-4.67,4.76q-55.45-.09-110.91,0c-3.34,0-4.77-1.12-4.76-4.65.09-24.64.06-49.29,0-73.93,0-2.51.12-4.72,3.55-4.71C44.05,35.05,55.69,35,68,35Z"/><path d="M169.32,52.5c-1.75.52-3.73,1.82-4.73,1.29a127.15,127.15,0,0,1-12.46-8c-.68-.48-1.17-2.39-.78-2.94.64-.87,2.53-1.92,3.12-1.57,4.66,2.73,9.15,5.77,13.67,8.77C168.48,50.3,168.57,50.92,169.32,52.5Z"/><path d="M153.25,24.19c-.62-.58-1.86-1.21-2.05-2.07a3.5,3.5,0,0,1,1.06-3,132.72,132.72,0,0,1,12.16-7.8c1-.55,2.87.49,4.34.8-.32,1.17-.25,2.89-1,3.43-4.08,2.85-8.36,5.42-12.6,8.06A8.76,8.76,0,0,1,153.25,24.19Z"/><path d="M164.83,29.89a42.46,42.46,0,0,1,7,.13c1.14.19,2.09,1.58,3.12,2.44-1,.91-1.9,2.55-2.92,2.61a117.88,117.88,0,0,1-13.94,0C157,35,156,33.5,155,32.64c1.12-.91,2.14-2.36,3.4-2.63C160.44,29.56,162.67,29.89,164.83,29.89Z"/><path d="M6.1,129.79H171.6c-.6,4.82-3.56,5.26-7.15,5.26Q114.73,135,65,135q-26.23,0-52.46,0C9.16,135,6.3,134.45,6.1,129.79Z" class="cls-1"/><path d="M103.13,19.86c4.14-.63,8.12-1,12-1.88,3.68-.87,7.22-2.31,11.21-3.63V50.47l-23.17-6.13Z" class="cls-2"/><path d="M96.92,19.88V45c-4.66,0-9.09,0-13.52,0-2.77,0-4.23-1.39-4.18-4.35.09-5.47.06-11,0-16.42,0-2.88,1.32-4.32,4.18-4.33Z" class="cls-3"/><path d="M132.27,32.33c0-7.66-.1-15.33.09-23,0-1.45,1.28-2.87,2-4.3.64,1.31,1.81,2.61,1.82,3.92q.2,23.75,0,47.47c0,1.18-1.11,2.36-1.7,3.53-.73-1.22-2.06-2.42-2.09-3.66C132.17,48.32,132.27,40.33,132.27,32.33Z" class="cls-3"/><path d="M91.72,51.57V69.42c-2.85,1.11-4.21.48-4.18-2.62,0-4.16-.33-8.33-.06-12.47.1-1.35,1.64-2.62,2.52-3.92Z" class="cls-4"/><path d="M143.73,25.13c1.44,2.39,3.61,4.62,4.14,7.19.75,3.64-1.84,5.89-5.55,7.51V26Z" class="cls-5"/></g></g></svg>