<?xml version="1.0" encoding="UTF-8"?>
<svg id="Layer_1" xmlns="http://www.w3.org/2000/svg" viewBox="0 0 2540 500">
  <defs>
    <style>
      .cls-1 {
        fill: #00b39f;
      }

      .cls-2 {
        fill: #00d3a9;
      }

      .cls-3 {
        fill: #fff;
      }
    </style>
  </defs>
  <g>
    <path class="cls-1" d="M237.54,328.22c11.05,6.32,20.98,11.95,30.68,18.04,4.51,2.93,8.12,2.71,12.86,0,38.8-22.33,77.59-44.21,116.39-66.09,4.51-2.48,5.86-5.64,5.86-10.6-.23-54.58-.23-109.17-.9-163.98,0-3.16-2.71-7.89-5.41-9.47-41.5-24.59-83.46-48.49-125.63-72.63-2.03-1.13-5.41-1.8-6.99-.9-11.28,6.09-22.33,12.41-34.28,19.4,3.83,2.26,6.32,4.06,9.02,5.64,39.7,22.78,79.4,45.79,119.09,68.34,5.19,2.93,7.44,6.09,7.22,12.41,0,39.47.23,78.72.68,118.19,0,6.32-1.8,9.92-7.44,13.08-24.13,13.31-48.04,27.07-72.18,40.6-16.01,9.02-31.8,18.27-48.95,27.97Z"/>
    <path class="cls-2" d="M333.85,378.75c40.15-22.56,80.07-45.56,119.99-68.57,2.71-1.58,5.19-5.64,5.19-8.57,0-55.26-.23-110.3-.45-165.56,0-2.71-1.8-6.54-3.83-7.89-10.38-6.54-20.98-12.63-33.38-19.85v9.7c.23,52.55.23,105.11.68,157.66,0,7.44-1.8,11.5-8.57,15.11-24.13,13.31-48.04,27.07-71.95,40.83-16.24,9.25-32.48,18.72-49.4,28.42l41.73,18.72Z"/>
    <path class="cls-1" d="M343.77,232.81c0-12.86.45-24.59-.23-36.09-.23-3.38-2.71-7.89-5.41-9.47-39.25-23.23-78.72-46.24-117.96-68.79-2.48-1.35-6.99-1.58-9.47-.23-48.27,27.29-96.31,54.81-144.35,82.78-2.48,1.58-4.96,5.86-4.96,8.8-.23,47.82,0,95.63.45,143.68,0,2.48.45,6.09,2.03,6.99,11.05,6.99,22.56,13.31,34.96,20.53v-10.6c-.23-45.79-.23-91.57-.68-137.36,0-5.19,1.13-8.57,6.09-11.28,34.96-19.85,69.47-39.7,103.98-59.77,4.74-2.71,8.57-3.16,13.53-.23,25.26,15.11,50.52,29.55,76.01,44.43,14.89,8.8,30,17.37,46.01,26.62Z"/>
    <path class="cls-1" d="M459.93,326.19c-5.41,2.93-8.57,4.96-11.95,6.77-39.02,22.33-77.82,44.66-116.84,67.22-4.51,2.71-7.89,3.16-12.63.23-34.96-20.53-70.15-40.6-105.33-60.67-4.96-2.71-6.09-6.09-6.09-11.28.23-43.53,0-86.84,0-130.37,0-2.71-.23-5.64-.45-9.7-10.83,6.32-20.53,12.18-30.68,17.37-4.96,2.48-6.32,6.09-6.32,11.28.23,44.66,0,89.32.45,133.75,0,3.16,2.71,7.89,5.41,9.47,47.82,27.97,95.86,55.71,144.13,83.23,2.48,1.58,7.44,1.35,10.15,0,41.73-23.46,83-47.37,124.51-71.5,2.26-1.35,5.19-4.06,5.19-6.09.68-12.41.45-25.04.45-39.7Z"/>
    <path class="cls-2" d="M344,169.88c0-12.86-.23-24.13,0-35.64.23-4.96-1.58-7.89-6.09-10.38-39.7-22.78-79.17-45.79-119.09-68.34-2.71-1.58-8.12-1.58-10.83,0-47.59,26.84-95.18,54.13-142.78,81.65-2.03,1.13-4.96,2.93-4.96,4.51-.45,13.08-.23,26.39-.23,40.83,3.83-2.03,5.86-2.93,7.89-4.06,46.69-26.62,93.15-53.23,139.84-80.07,4.29-2.48,7.44-2.71,11.73-.23,33.83,19.85,68.12,39.47,102.18,59.1,6.99,4.06,13.98,7.89,22.33,12.63Z"/>
    <path class="cls-2" d="M307.23,457.91c-3.38-2.26-5.41-3.61-7.44-4.74-46.46-26.84-92.93-53.68-139.62-80.3-5.19-2.93-7.44-6.09-7.22-12.18.23-43.76,0-87.52-.23-131.27,0-2.93-.23-6.09-.45-10.15-11.95,6.77-22.33,12.63-32.48,18.95-2.26,1.35-3.83,5.19-3.83,7.67,0,46.01,0,92.25.45,138.26,0,2.93,2.48,7.22,5.19,8.8,47.59,27.97,95.63,55.49,143.68,83.23,2.26,1.35,5.86,2.26,7.89,1.13,11.28-5.86,21.88-12.41,34.06-19.4Z"/>
  </g>
  <g>
    <path class="cls-3" d="M843.66,312.05c0,9.36-1.79,18.15-5.37,26.35-3.58,8.32-8.49,15.55-14.73,21.66-6.25,6.14-13.47,10.99-21.67,14.57-8.32,3.58-17.16,5.37-26.52,5.37h-243.35v-54.77h243.35c3.7,0,6.82-1.28,9.36-3.82,2.54-2.54,3.81-5.66,3.81-9.36v-21.14c0-3.7-1.26-6.82-3.81-9.36-2.54-2.54-5.66-3.81-9.36-3.81h-175.07c-9.35,0-18.13-1.79-26.34-5.37-8.32-3.58-15.61-8.5-21.84-14.73-6.25-6.25-11.15-13.53-14.73-21.84-3.58-8.22-5.37-16.99-5.37-26.35v-21.14c0-9.36,1.79-18.21,5.37-26.52,3.58-8.22,8.49-15.43,14.73-21.67,6.23-6.25,13.51-11.15,21.84-14.73,8.2-3.58,16.99-5.37,26.34-5.37h243.37v55.11h-243.37c-3.69,0-6.82,1.28-9.35,3.82-2.54,2.54-3.82,5.66-3.82,9.36v21.14c0,3.7,1.28,6.82,3.82,9.36,2.53,2.54,5.66,3.81,9.35,3.81h175.07c9.36,0,18.2,1.79,26.52,5.37,8.2,3.58,15.43,8.5,21.67,14.73,6.25,6.25,11.15,13.47,14.73,21.67,3.58,8.32,5.37,17.16,5.37,26.52v21.14Z"/>
    <rect class="cls-3" x="893.37" y="120" width="57.22" height="260"/>
    <polygon class="cls-3" points="1630.91 160.95 1630.91 172 1630.91 224 1630.91 287.42 1630.91 380 1877.38 380 1877.38 328 1682.91 328 1682.91 287.42 1682.91 276 1832.32 276 1832.32 224 1682.91 224 1682.91 172 1877.38 172 1877.38 120 1630.91 120 1630.91 160.95"/>
    <path class="cls-3" d="M1311.95,312.05c0,9.36-1.79,18.15-5.37,26.35-3.58,8.32-8.49,15.55-14.73,21.66-6.25,6.14-13.47,10.99-21.67,14.57-8.32,3.58-17.16,5.37-26.52,5.37h-243.35v-54.77h243.35c3.7,0,6.82-1.28,9.36-3.82,2.54-2.54,3.81-5.66,3.81-9.36v-21.14c0-3.7-1.26-6.82-3.81-9.36-2.54-2.54-5.66-3.81-9.36-3.81h-175.07c-9.35,0-18.13-1.79-26.34-5.37-8.32-3.58-15.61-8.5-21.84-14.73-6.25-6.25-11.15-13.53-14.73-21.84-3.58-8.22-5.37-16.99-5.37-26.35v-21.14c0-9.36,1.79-18.21,5.37-26.52,3.58-8.22,8.49-15.43,14.73-21.67,6.23-6.25,13.51-11.15,21.84-14.73,8.2-3.58,16.99-5.37,26.34-5.37h243.37v55.11h-243.37c-3.69,0-6.82,1.28-9.35,3.82-2.54,2.54-3.82,5.66-3.82,9.36v21.14c0,3.7,1.28,6.82,3.82,9.36,2.53,2.54,5.66,3.81,9.35,3.81h175.07c9.36,0,18.2,1.79,26.52,5.37,8.2,3.58,15.43,8.5,21.67,14.73,6.25,6.25,11.15,13.47,14.73,21.67,3.58,8.32,5.37,17.16,5.37,26.52v21.14Z"/>
    <path class="cls-3" d="M2197.38,380h-52.57v-187.38c0-2.08-.34-4.04-1.01-5.9-.67-1.85-1.58-3.46-2.73-4.85-1.16-1.39-2.5-2.48-4.04-3.3-1.54-.81-3.17-1.21-4.9-1.21h-209.54v-57.37h216.29c7.98,0,15.51,1.85,22.62,5.54,7.1,3.7,13.35,8.72,18.73,15.08,5.28,6.47,9.45,13.98,12.53,22.54,3.07,8.55,4.61,17.62,4.61,27.21v189.63ZM1994.96,380h-52.57v-185.01h52.57v185.01Z"/>
    <g>
      <path class="cls-3" d="M1496.58,120h102.64v55.12h-260.07v-55.12h157.44"/>
      <rect class="cls-3" x="1441.61" y="198.2" width="55.14" height="181.8"/>
    </g>
    <g>
      <path class="cls-3" d="M2382.01,120h102.64v55.12h-260.07v-55.12h157.44"/>
      <rect class="cls-3" x="2327.04" y="198.2" width="55.14" height="181.8"/>
    </g>
  </g>
</svg>