<svg id="Layer_1" data-name="Layer 1" xmlns="http://www.w3.org/2000/svg" viewBox="0 0 540 162"><title>meshmate-text-padding</title><rect x="145.4" y="19.84" width="58" height="58" style="fill:#3c494f"/><text transform="translate(213.44 31.38)" style="font-size:12px;fill:#231f20;font-family:MyriadPro-Regular, Myriad Pro">R 60<tspan x="0" y="14.4">G 73</tspan><tspan x="0" y="28.8">B 79</tspan><tspan x="0" y="43.2">#3c494f</tspan></text><rect x="275.07" y="19.84" width="58" height="58" style="fill:#00b39f"/><text transform="translate(343.12 31.38)" style="font-size:12px;fill:#231f20;font-family:MyriadPro-Regular, Myriad Pro">R 0<tspan x="0" y="14.4">G 179</tspan><tspan x="0" y="28.8">B 159</tspan><tspan x="0" y="43.2">#00b39f</tspan></text><rect x="404.75" y="19.84" width="58" height="58" style="fill:#00d3a9"/><text transform="translate(472.8 31.38)" style="font-size:12px;fill:#231f20;font-family:MyriadPro-Regular, Myriad Pro">R 0<tspan x="0" y="14.4">G 211</tspan><tspan x="0" y="28.8">B 169</tspan><tspan x="0" y="43.2">#00d3a9</tspan></text><rect x="145.4" y="93.73" width="58" height="58" style="fill:#3c494f"/><text transform="translate(213.45 105.26)" style="font-size:12px;fill:#231f20;font-family:MyriadPro-Regular, Myriad Pro">R 60<tspan x="0" y="14.4">G 73</tspan><tspan x="0" y="28.8">B 79</tspan><tspan x="0" y="43.2">#3c494f</tspan></text><rect x="275.07" y="93.73" width="58" height="58" style="fill:#828c8c"/><text transform="translate(343.12 105.26)" style="font-size:12px;fill:#231f20;font-family:MyriadPro-Regular, Myriad Pro">R 130<tspan x="0" y="14.4">G 140</tspan><tspan x="0" y="28.8">B 140</tspan><tspan x="0" y="43.2">#828c8c</tspan></text><rect x="404.75" y="93.73" width="58" height="58" style="fill:#a0aaaa"/><text transform="translate(472.8 105.26)" style="font-size:12px;fill:#231f20;font-family:MyriadPro-Regular, Myriad Pro">R 160<tspan x="0" y="14.4">G 170</tspan><tspan x="0" y="28.8">B 170</tspan><tspan x="0" y="43.2">#a0aaaa</tspan></text><text transform="translate(63.73 58.31)" style="font-size:21px;font-family:MyriadPro-Regular, Myriad Pro"><tspan style="letter-spacing:-0.01097470238095238em">C</tspan><tspan x="11.95" y="0">olo</tspan><tspan x="39.96" y="0" style="letter-spacing:0.008998325892857142em">r</tspan><tspan x="47.02" y="0">:</tspan><tspan x="-36.35" y="75.6">G</tspan><tspan x="-22.79" y="75.6" style="letter-spacing:-0.004975818452380952em">r</tspan><tspan x="-16.02" y="75.6" style="letter-spacing:-0.007998511904761904em">a</tspan><tspan x="-6.07" y="75.6" style="letter-spacing:-0.005998883928571429em">y</tspan><tspan x="3.7" y="75.6">scale:</tspan></text></svg>