<svg id="Layer_1" data-name="Layer 1" xmlns="http://www.w3.org/2000/svg" viewBox="0 0 358.49 271.13"><title>meshmate-stack-no-trim</title><path d="M132.25,201.56c-6,1.24-10-2-13.16-7.5-5.06-8.9-10.2-17.76-15.65-26.42-2.88-4.58-3.12-8.6-.39-13.36,9.86-17.18,19.45-34.53,29.2-51.78,3.32-5.89,5.44-6,9.17-.41,4.8,7.13,4.38,14.09-.08,21.38-6.25,10.21-11.93,20.76-18.08,31-2.7,4.51-2.34,8.4.4,12.75,5.11,8.1,9.9,16.41,14.74,24.68C143.58,200.78,143.27,201.26,132.25,201.56Z" style="fill:#00b39f"/><path d="M236,142.28c-9.82,0-19.64.06-29.46,0-6.58-.05-7.68-2-4.7-8,3.76-7.52,10-10.34,18.23-10.16,11.56.25,23.13-.07,34.69.28,6.51.2,10.47-2.3,13.41-8.15,4.4-8.76,9.54-17.14,14.49-25.62,3.26-5.59,5.07-5.44,8.74-.23,4.8,6.82,5.48,13,.28,20.31a152.22,152.22,0,0,0-13,22.66c-3.24,6.75-8.14,9-15.16,8.82-9.16-.24-18.33-.06-27.5-.06Z" style="fill:#00b39f"/><path d="M262.3,41.48a66.28,66.28,0,0,1-3,7Q244.69,73.93,229.9,99.3c-3.55,6.09-5.67,6-9.52,0-4.35-6.81-4-13.4.24-20.21,6.4-10.36,12.4-21,18.78-31.34,2.7-4.4,2.72-8.28,0-12.74-5.48-8.89-10.63-18-15.77-27.07-3.25-5.74-2.36-6.88,4.07-7.71C235.9-.85,241.26,2,245,9.59c4.13,8.37,9.3,16.22,13.9,24.37C260.24,36.36,261.19,39,262.3,41.48Z" style="fill:#00d3a9"/><path d="M113.87,18.24c2-13.06,6.51-17.14,18-17.37,9.37-.19,18.74-.39,28.1-.75,6-.23,10.27,1.75,13.46,7.19,9.9,16.91,20.18,33.59,30.27,50.39a47.11,47.11,0,0,1,2.16,4.56c-7.4,6.08-17.65,4-23.48-5-3.67-5.65-6.69-11.72-10.09-17.55-12.76-21.92-12.78-21.89-38.33-21.48C127.29,18.33,120.65,18.24,113.87,18.24Z" style="fill:#00b39f"/><path d="M215.46,201.14c-28.5.26-21.54,2.92-35.37-19.85-7.58-12.47-14.84-25.13-22.14-37.76-3.17-5.49-2.13-7.2,4.14-7.86,9.13-.95,14.69,3.77,18.83,11.25,5.7,10.28,11.73,20.38,17.4,30.67,2.52,4.56,6,6.31,11.17,6.15,10.67-.33,21.36-.32,32-.19,5.77.07,6.2,1.53,4.17,6.82-3.22,8.42-9.21,11.46-17.82,10.82C223.76,200.88,219.6,201.14,215.46,201.14Z" style="fill:#00d3a9"/><path d="M72.58,119.55c-10.46-8.34-11.77-14.36-6.2-24.54,4.55-8.32,9.1-16.65,13.5-25.05,2.81-5.36,6.72-8.13,13.1-8.19,19.85-.17,39.69-.79,59.53-1.19a49.45,49.45,0,0,1,5.09.41c1.62,9.56-5.41,17.49-16.22,18.09-6.82.38-13.67,0-20.5,0-25.7.16-25.68.19-38.2,22.83C79.43,107.81,76,113.59,72.58,119.55Z" style="fill:#00d3a9"/><polygon points="53.4 239.11 53.4 240.72 53.4 248.33 53.4 257.6 53.4 271.13 89.45 271.13 89.45 263.53 61.01 263.53 61.01 257.6 61.01 255.93 82.86 255.93 82.86 248.33 61.01 248.33 61.01 240.72 89.45 240.72 89.45 233.12 53.4 233.12 53.4 239.11" style="fill:#3c494f"/><path d="M139.34,261.2a9.57,9.57,0,0,1-.78,3.85,10,10,0,0,1-2.16,3.17,10.64,10.64,0,0,1-3.17,2.13,9.78,9.78,0,0,1-3.88.78H93.77v-8h35.58a1.85,1.85,0,0,0,1.37-.56,1.89,1.89,0,0,0,.56-1.37v-3.09a1.91,1.91,0,0,0-1.93-1.93h-25.6a9.57,9.57,0,0,1-3.85-.78,10.19,10.19,0,0,1-5.35-5.35,9.57,9.57,0,0,1-.78-3.85v-3.09a9.75,9.75,0,0,1,.78-3.88,10.19,10.19,0,0,1,2.16-3.17,10,10,0,0,1,3.19-2.15,9.41,9.41,0,0,1,3.85-.79h35.59v8.06H103.75a1.87,1.87,0,0,0-1.37.56,1.85,1.85,0,0,0-.55,1.37v3.09a1.88,1.88,0,0,0,1.92,1.92h25.6a9.62,9.62,0,0,1,3.88.79,10.16,10.16,0,0,1,3.17,2.15,10.36,10.36,0,0,1,2.16,3.17,9.78,9.78,0,0,1,.78,3.88Z" style="fill:#3c494f"/><path d="M187.3,271.13h-7.25V256.18H151.77v14.95h-7.25v-23h35.53v-15h7.25Zm-35.53-26.58h-7.25V233.12h7.25Z" style="fill:#3c494f"/><path d="M47.55,271.13H39.49V243.41a2.07,2.07,0,0,0-.18-.86,2,2,0,0,0-.48-.71,2.17,2.17,0,0,0-.71-.48,2.07,2.07,0,0,0-.86-.18H0v-8.06H37.26a9.94,9.94,0,0,1,4,.81,10.8,10.8,0,0,1,3.3,2.21,10.61,10.61,0,0,1,2.2,3.29,9.94,9.94,0,0,1,.81,4Zm-39.49,0H0V241.18H8.06Zm19.72,0H19.72V245.4h8.06Z" style="fill:#3c494f"/><path d="M240.36,271.13H232.3V243.41a2.07,2.07,0,0,0-.18-.86,2.34,2.34,0,0,0-.48-.71,2.28,2.28,0,0,0-.71-.48,2.12,2.12,0,0,0-.87-.18H192.8v-8.06h37.26a9.91,9.91,0,0,1,4,.81,10.8,10.8,0,0,1,3.3,2.21,10.61,10.61,0,0,1,2.2,3.29,9.78,9.78,0,0,1,.82,4Zm-39.5,0H192.8V241.18h8.06Zm19.72,0h-8.06V245.4h8.06Z" style="fill:#3c494f"/><polygon points="260.4 233.12 245.19 271.13 253.87 271.13 264.2 244.53 271.57 263.53 258.93 263.53 256.1 271.13 283.22 271.13 268.01 233.12 260.4 233.12" style="fill:#3c494f"/><polygon points="322.45 239.11 322.45 240.72 322.45 248.33 322.45 257.6 322.45 271.13 358.49 271.13 358.49 263.53 330.05 263.53 330.05 257.6 330.05 255.93 351.9 255.93 351.9 248.33 330.05 248.33 330.05 240.72 358.49 240.72 358.49 233.12 322.45 233.12 322.45 239.11" style="fill:#3c494f"/><path d="M304.11,233.12h15v8.06h-38v-8.06h23" style="fill:#3c494f"/><rect x="296.08" y="244.55" width="8.06" height="26.58" style="fill:#3c494f"/></svg>