<svg id="Layer_1" data-name="Layer 1" xmlns="http://www.w3.org/2000/svg" viewBox="0 0 453.87 74.32"><title>meshmate-text-no-trim</title><path d="M25.45,74.22c-2.22.46-3.7-.75-4.85-2.76-1.86-3.28-3.75-6.54-5.76-9.73a4.3,4.3,0,0,1-.15-4.92c3.64-6.33,7.17-12.71,10.75-19.07,1.23-2.16,2-2.19,3.38-.15,1.77,2.63,1.61,5.19,0,7.88-2.3,3.76-4.39,7.64-6.65,11.43a4,4,0,0,0,.14,4.69c1.88,3,3.65,6,5.43,9.09C29.61,73.93,29.5,74.11,25.45,74.22Z" style="fill:#00b39f"/><path d="M63.63,52.39c-3.62,0-7.24,0-10.85,0-2.42,0-2.83-.73-1.73-2.93,1.38-2.77,3.69-3.81,6.71-3.75,4.26.1,8.52,0,12.77.11a4.8,4.8,0,0,0,4.94-3c1.62-3.23,3.51-6.31,5.33-9.44,1.2-2,1.87-2,3.22-.08,1.77,2.51,2,4.8.1,7.48a56.47,56.47,0,0,0-4.79,8.34c-1.19,2.49-3,3.32-5.58,3.25-3.37-.09-6.75,0-10.12,0Z" style="fill:#00b39f"/><path d="M73.32,15.27a24.17,24.17,0,0,1-1.09,2.58q-5.4,9.38-10.84,18.72c-1.3,2.24-2.08,2.21-3.5,0A6.45,6.45,0,0,1,58,29.12c2.35-3.81,4.56-7.72,6.91-11.54a4,4,0,0,0,0-4.69c-2-3.27-3.91-6.62-5.8-10C57.88.81,58.21.39,60.58.08c3-.39,5,.66,6.37,3.45,1.52,3.08,3.42,6,5.12,9C72.56,13.39,72.91,14.36,73.32,15.27Z" style="fill:#00d3a9"/><path d="M18.68,6.72c.73-4.81,2.4-6.31,6.61-6.4C28.74.25,32.19.18,35.64,0a5,5,0,0,1,5,2.65C44.24,8.92,48,15.06,51.74,21.25a16,16,0,0,1,.79,1.68c-2.72,2.24-6.49,1.45-8.64-1.85-1.35-2.07-2.46-4.31-3.72-6.46-4.7-8.07-4.7-8.06-14.11-7.91C23.62,6.75,21.17,6.72,18.68,6.72Z" style="fill:#00b39f"/><path d="M56.08,74.07c-10.49.1-7.93,1.07-13-7.31-2.79-4.59-5.47-9.26-8.15-13.91-1.17-2-.79-2.65,1.52-2.89,3.36-.35,5.41,1.39,6.93,4.14,2.1,3.79,4.32,7.51,6.41,11.3a4,4,0,0,0,4.11,2.26c3.93-.12,7.86-.12,11.79-.07,2.13,0,2.29.57,1.54,2.51-1.19,3.1-3.39,4.22-6.56,4C59.13,74,57.6,74.07,56.08,74.07Z" style="fill:#00d3a9"/><path d="M3.48,44C-.37,41-.86,38.73,1.2,35c1.67-3.07,3.35-6.13,5-9.23a5,5,0,0,1,4.82-3c7.3-.07,14.61-.29,21.91-.44.64,0,1.27.1,1.88.15.59,3.52-2,6.44-6,6.66-2.5.14-5,0-7.54,0-9.46.06-9.45.07-14.06,8.4C6,39.7,4.74,41.83,3.48,44Z" style="fill:#00d3a9"/><polygon points="148.87 25.61 148.87 27.22 148.87 34.82 148.87 44.09 148.87 57.63 184.9 57.63 184.9 50.03 156.47 50.03 156.47 44.09 156.47 42.42 178.31 42.42 178.31 34.82 156.47 34.82 156.47 27.22 184.9 27.22 184.9 19.62 148.87 19.62 148.87 25.61" style="fill:#3c494f"/><path d="M234.78,47.7a9.6,9.6,0,0,1-.78,3.85,9.81,9.81,0,0,1-2.16,3.16,10.28,10.28,0,0,1-3.17,2.13,9.54,9.54,0,0,1-3.87.79H189.22v-8H224.8a1.9,1.9,0,0,0,1.92-1.92V44.6a1.9,1.9,0,0,0-1.92-1.92H199.2a9.44,9.44,0,0,1-3.85-.79A10.06,10.06,0,0,1,190,36.55a9.45,9.45,0,0,1-.79-3.86V29.6a9.54,9.54,0,0,1,.79-3.87,10,10,0,0,1,2.15-3.17,10.16,10.16,0,0,1,3.19-2.16,9.6,9.6,0,0,1,3.85-.78h35.58v8.06H199.2a1.9,1.9,0,0,0-1.92,1.92v3.09a1.82,1.82,0,0,0,.56,1.37,1.85,1.85,0,0,0,1.36.56h25.6a9.7,9.7,0,0,1,3.87.78,10.36,10.36,0,0,1,3.17,2.16A10.19,10.19,0,0,1,234,40.73a9.73,9.73,0,0,1,.78,3.87Z" style="fill:#3c494f"/><path d="M282.73,57.63h-7.25v-15H247.21v15H240v-23h35.52v-15h7.25ZM247.21,31.05H240V19.62h7.25Z" style="fill:#3c494f"/><path d="M143,57.63H135V29.91a2.12,2.12,0,0,0-.18-.87,2,2,0,0,0-.48-.7,2.2,2.2,0,0,0-.71-.49,2.24,2.24,0,0,0-.86-.17H95.48V19.62h37.25a9.94,9.94,0,0,1,4,.81,10.61,10.61,0,0,1,3.29,2.2,10.8,10.8,0,0,1,2.21,3.3,9.91,9.91,0,0,1,.81,4Zm-39.48,0H95.48V27.68h8.06Zm19.71,0h-8V31.9h8Z" style="fill:#3c494f"/><path d="M335.77,57.63h-8.06V29.91a2.12,2.12,0,0,0-.18-.87,2.29,2.29,0,0,0-.48-.7,2.2,2.2,0,0,0-.71-.49,2.27,2.27,0,0,0-.86-.17H288.23V19.62h37.25a9.94,9.94,0,0,1,4,.81,10.61,10.61,0,0,1,3.29,2.2,10.8,10.8,0,0,1,2.21,3.3,9.91,9.91,0,0,1,.81,4Zm-39.48,0h-8.06V27.68h8.06Zm19.71,0h-8.06V31.9H316Z" style="fill:#3c494f"/><polygon points="355.81 19.62 340.61 57.63 349.28 57.63 359.61 31.02 366.98 50.03 354.34 50.03 351.5 57.63 378.62 57.63 363.41 19.62 355.81 19.62" style="fill:#3c494f"/><polygon points="417.84 25.61 417.84 27.22 417.84 34.82 417.84 44.09 417.84 57.63 453.87 57.63 453.87 50.03 425.44 50.03 425.44 44.09 425.44 42.42 447.28 42.42 447.28 34.82 425.44 34.82 425.44 27.22 453.87 27.22 453.87 19.62 417.84 19.62 417.84 25.61" style="fill:#3c494f"/><path d="M399.51,19.62h15v8.06h-38V19.62h23" style="fill:#3c494f"/><rect x="391.47" y="31.05" width="8.06" height="26.58" style="fill:#3c494f"/></svg>