<svg xmlns="http://www.w3.org/2000/svg" width="39.2" height="43.447" viewBox="0 0 39.2 43.447"><path id="play-store" fill="#7a848e" d="M47.79,17.577,18.141.63A4.776,4.776,0,0,0,11,4.776V38.671a4.776,4.776,0,0,0,7.146,4.147L47.789,25.87a4.776,4.776,0,0,0,0-8.293ZM34.942,13.57l-4.071,5.67L21.134,5.677ZM15.584,40.534a1.863,1.863,0,0,1-.756-.238,1.885,1.885,0,0,1-.936-1.626V4.776a1.871,1.871,0,0,1,1.69-1.867L29.088,21.723Zm5.55-2.764,9.737-13.563,4.071,5.67ZM46.352,23.355,37.47,28.432l-4.816-6.709,4.816-6.709,8.882,5.077a1.879,1.879,0,0,1,0,3.263Z" transform="translate(-10.995 0)"/></svg>