<svg width="28" height="28" viewBox="0 0 28 28" xmlns="http://www.w3.org/2000/svg"><g fill="none" fill-rule="evenodd"><path d="M21.924.5c2.026 0 2.779.163 3.525.562a3.58 3.58 0 0 1 1.489 1.49c.379.708.545 1.424.56 3.237l.002 16.135c0 2.026-.163 2.779-.562 3.525a3.58 3.58 0 0 1-1.49 1.489c-.708.379-1.424.545-3.237.56L6.076 27.5c-2.026 0-2.779-.163-3.525-.562a3.58 3.58 0 0 1-1.489-1.49c-.379-.708-.545-1.424-.56-3.237L.5 6.076c0-2.026.163-2.779.562-3.525a3.58 3.58 0 0 1 1.49-1.489C3.296.663 4.05.5 6.075.5Z" stroke="#FFF"/><path d="M11.382 19.58c-1.134 0-2.036-.257-2.705-.771-.668-.514-1.015-1.251-1.038-2.213h2.088c.087.838.634 1.258 1.644 1.258.375 0 .695-.076.957-.229a.75.75 0 0 0 .392-.695.686.686 0 0 0-.246-.537 1.543 1.543 0 0 0-.498-.302 17.85 17.85 0 0 0-.957-.272.247.247 0 0 1-.048-.018.356.356 0 0 0-.034-.011.18.18 0 0 0-.048-.007c-.36-.09-.655-.17-.886-.24a5.38 5.38 0 0 1-.786-.32 2.59 2.59 0 0 1-.698-.475 2.12 2.12 0 0 1-.44-.684 2.417 2.417 0 0 1-.182-.955c0-.904.307-1.582.92-2.034.616-.452 1.419-.678 2.412-.678.956 0 1.737.231 2.343.69.606.46.928 1.135.969 2.022h-2.033c-.04-.337-.176-.597-.41-.783-.236-.185-.548-.277-.94-.277-.36 0-.65.076-.874.228-.223.152-.335.351-.335.598 0 .28.133.483.399.61.267.127.767.278 1.504.45.46.114.84.227 1.137.338.297.111.6.27.91.475.309.205.54.47.693.795.151.324.23.713.23 1.165 0 .896-.325 1.598-.97 2.107-.646.51-1.469.765-2.47.765m5.553-11.894-2.105.895 4.474 10.999 2.118-.863z" fill-rule="nonzero" fill="#FFF"/></g></svg>