<svg xmlns="http://www.w3.org/2000/svg" role="img" viewBox="-19.02 -16.02 1093.04 272.04"><style>svg {enable-background:new 0 0 1055.7 241.5}</style><path d="M303.1 168.8v-97c0-4.6 3.9-8.5 8.7-8.5 4.6 0 8.4 3.9 8.4 8.5v91.1H365c4.1 0 7.7 3.2 7.7 7.3 0 4.3-3.6 7.7-7.7 7.7h-52.7c-6-.1-9.2-3.3-9.2-9.1zm102.8 1.3V71.8c0-4.6 3.9-8.5 8.7-8.5 4.6 0 8.4 3.9 8.4 8.5v98.4c0 4.6-3.8 8.5-8.4 8.5-4.8 0-8.7-4-8.7-8.6zm135.2 4.1l-60.4-83.7v79.6c0 4.6-3.8 8.5-8.4 8.5-4.8 0-8.7-3.9-8.7-8.5V74.5c0-6.1 4.9-11.3 11.3-11.3 3.6 0 7 1.7 9 4.6l59.2 81.5V71.8c0-4.6 3.8-8.5 8.4-8.5 4.8 0 8.7 3.9 8.7 8.5v96.3c0 5.8-4.8 10.6-10.6 10.6-3.6 0-6.6-1.6-8.5-4.5zm144.8-3.7c0 4.4-3.4 8.2-7.8 8.2-2.2 0-4.3-.5-6-2.4l-43.3-47.6-10.9 11.6v29.8c0 4.6-3.8 8.5-8.5 8.5-4.6 0-8.5-3.9-8.5-8.5V71.8c0-4.6 3.9-8.5 8.5-8.5 4.8 0 8.5 3.9 8.5 8.5v49.1L668 65.8c1.7-1.9 3.8-2.6 6-2.6 4.3 0 8 3.4 8 7.8 0 2-.5 3.9-2.2 5.5l-39.6 42.1 43.5 46.4c1.3 1.6 2.2 3.6 2.2 5.5zm34.4-1.7V73.1c0-5.8 3.2-9 9.2-9h60.4c4.1 0 7.7 3.4 7.7 7.7 0 4.1-3.6 7.3-7.7 7.3h-52.5v33.3h51.3c4.1 0 7.7 3.2 7.7 7.3 0 4.3-3.6 7.7-7.7 7.7h-51.3v35.5h52.5c4.1 0 7.7 3.2 7.7 7.3 0 4.3-3.6 7.7-7.7 7.7h-60.4c-5.9-.1-9.2-3.3-9.2-9.1zm197.8 2c0 3.6-3.2 7.8-8 7.8-2.9 0-5.6-1.4-7.2-3.6l-28.4-41h-24v36.2c0 4.6-3.8 8.5-8.4 8.5-4.8 0-8.7-3.9-8.7-8.5v-97c0-5.8 3.2-9 9.2-9h38.7c21.7 0 36.5 14 36.5 35 0 19.1-11.9 30-25.4 32.7l24 33.8c1 1 1.7 2.4 1.7 5.1zM850.4 119H879c12.3 0 21.1-8 21.1-20 0-11.9-8.9-20-21.1-20h-28.6v40zm103.7 49.8V73.1c0-5.8 3.2-9 9.2-9h31.4c35.5 0 59 24.2 59 57 0 32.9-23.5 56.8-59 56.8h-31.4c-6-.1-9.2-3.3-9.2-9.1zm40.6-6c26.3 0 41.4-18.8 41.4-41.8 0-23.4-14.7-41.9-41.4-41.9h-23.5v83.7h23.5zM233.5 48.4v93.5l17.3 10V58.3zM2.4 151.9l17.2-10V48.4L2.4 58.3zm84.5-.9l79.3 45.8v-20L92 134l-5.1 2.9zm83.9 72.3l-83.9-48.4v19.9l22.4 12.9-27 15.6c-1.8 1-1.8 3.7 0 4.7l13.2 7.6 31-17.9 31 17.9 13.2-7.6c1.9-1.1 1.9-3.7.1-4.7z"/><path d="M233.5 104.1V187c0 2.1 2.3 3.4 4.1 2.4l11.8-6.8c.8-.5 1.4-1.4 1.4-2.4v-86l-17.3 9.9zm-33.9 107.2l11.1-6.4c1.3-.7 2-2.1 2-3.5v-85.3l-17.2 10V209c.1 2.1 2.3 3.4 4.1 2.3zm-42 24.3l15.9-9.2c.8-.5 1.4-1.4 1.4-2.4v-86l-17.2 10v87.6zm-77.9-9.2l15.9 9.2V148l-17.2-10v86.1c-.1.9.4 1.8 1.3 2.3zm-37.3-21.5l11.1 6.4c1.8 1 4.1-.3 4.1-2.4V126l-17.2-10v85.3c0 1.5.7 2.9 2 3.6zM4.5 183l11.1 6.4c1.8 1 4.1-.3 4.1-2.4v-82.9l-17.2-10v85.3c-.1 1.5.7 2.9 2 3.6z"/><path d="M250.8 58.3l-17.3-10-31 17.9-20.7-11.9 27-15.6c1.8-1 1.8-3.7 0-4.7l-11.1-6.4c-1.3-.7-2.8-.7-4.1 0l-29 16.7-20.7-11.9 27-15.6c1.8-1 1.8-3.7 0-4.7l-11.1-6.4c-1.3-.7-2.8-.7-4.1 0l-29 16.7-29-16.8c-1.3-.7-2.8-.7-4.1 0L82.5 12c-1.8 1-1.8 3.7 0 4.7L233.6 104l17.2-10-31-17.9 31-17.8zM55.6 27.7l-11.1 6.4c-1.8 1-1.8 3.7 0 4.7l151.1 87.3 17.3-10L59.6 27.7c-1.2-.8-2.8-.8-4 0zM2.4 58.3l31.1 18L2.4 94.2l17.3 10 31-18 20.7 12-31 17.9 17.2 10 31-18 20.7 12-31 17.9 17.2 10 31.1-18 31 18 17.3-10L19.6 48.4z"/></svg>