<svg xmlns="http://www.w3.org/2000/svg" width="40" height="40" fill="none" viewBox="0 0 40 40"><rect width="40" height="40" fill="#FFF9E3" rx="5"/><path fill="#EBC017" d="M20 11C15.0371 11 11 15.0371 11 20H8L11.75 23.9375L15.5 20H12.5C12.5 15.8457 15.8457 12.5 20 12.5C21.6641 12.5 23.1934 13.0391 24.4297 13.9531L25.3203 12.7402C23.8262 11.6445 21.9863 11 20 11ZM20 15.5C18.3535 15.5 17 16.8535 17 18.5C17 19.3027 17.3281 20.0352 17.8438 20.5742C16.4551 21.3418 15.5 22.8066 15.5 24.5H17C17 22.8359 18.3359 21.5 20 21.5C21.6641 21.5 23 22.8359 23 24.5H24.5C24.5 22.8945 23.6387 21.4883 22.3672 20.6914C22.6016 20.5391 22.8242 20.375 23.0293 20.2227C23.8203 19.6133 24.377 19.0039 24.377 19.0039L24.8457 18.5L24.377 17.9902C24.377 17.9902 23.8145 17.3809 23.0234 16.7773C22.2266 16.1738 21.1953 15.5 20 15.5ZM28.25 16.25L24.5 20H27.5C27.5 24.1543 24.1543 27.5 20 27.5C18.3359 27.5 16.8066 26.9609 15.5703 26.0469L14.6797 27.2598C16.1738 28.3555 18.0137 29 20 29C24.9629 29 29 24.9629 29 20H32L28.25 16.25ZM20 17C20.5508 17 21.4297 17.4512 22.1094 17.9727C22.4609 18.2363 22.502 18.3066 22.707 18.5C22.502 18.6992 22.4609 18.7637 22.1211 19.0273C21.4414 19.5488 20.5625 20 20 20C19.1621 20 18.5 19.3379 18.5 18.5C18.5 17.6621 19.1621 17 20 17Z"/></svg>