<svg id="Layer_1" data-name="Layer 1" xmlns="http://www.w3.org/2000/svg" viewBox="0 0 246.33134 360"><defs><style>.cls-1{fill:#bcedc4;}.cls-2{fill:#42a7b6;}.cls-3,.cls-6{fill:#2a2dde;}.cls-4{fill:#fff;}.cls-5{fill:#fb8143;}.cls-6{fill-rule:evenodd;}</style></defs><title>servicemeshinterface-stackedsmi-color</title><g id="logo-shorten"><g id="_3-x-3-diags" data-name="3-x-3-diags"><g id="Path-4"><path class="cls-1" d="M108.64518,237.93322a9.1708,9.1708,0,0,1-6.50542-2.69444L9.803,142.90176A9.2,9.2,0,1,1,22.8138,129.89093l92.3368,92.33657a9.20008,9.20008,0,0,1-6.50542,15.70572Z"/></g><g id="Path-4-2" data-name="Path-4"><path class="cls-1" d="M16.30838,145.47243A9.20008,9.20008,0,0,1,9.803,129.76694l92.3368-92.3368A9.2,9.2,0,0,1,115.1506,50.441l-92.3368,92.3368A9.17109,9.17109,0,0,1,16.30838,145.47243Z"/></g><g id="Path-4-3" data-name="Path-4"><path class="cls-1" d="M108.30916,145.93244a9.20008,9.20008,0,0,1-6.50541-15.7055l92.33657-92.3368A9.20021,9.20021,0,0,1,207.1516,50.901l-92.337,92.3368A9.17107,9.17107,0,0,1,108.30916,145.93244Z"/></g><g id="Path-4-4" data-name="Path-4"><path class="cls-1" d="M108.30916,237.01321a9.20008,9.20008,0,0,1-6.50541-15.70572l92.33657-92.33657a9.20021,9.20021,0,0,1,13.01128,13.01083l-92.337,92.337A9.17083,9.17083,0,0,1,108.30916,237.01321Z"/></g><g id="Oval"><circle class="cls-2" cx="16.32994" cy="44.04337" r="11.5001"/></g><g id="Oval-2" data-name="Oval"><circle class="cls-2" cx="108.33072" cy="44.04337" r="11.5001"/></g><g id="Oval-3" data-name="Oval"><circle class="cls-2" cx="200.33151" cy="44.04337" r="11.5001"/></g><g id="Oval-4" data-name="Oval"><circle class="cls-2" cx="16.32994" cy="136.04415" r="11.5001"/></g><g id="Oval-5" data-name="Oval"><circle class="cls-2" cx="108.33072" cy="136.04415" r="11.5001"/></g><g id="Oval-6" data-name="Oval"><circle class="cls-2" cx="200.33151" cy="136.04415" r="11.5001"/></g><g id="Oval-7" data-name="Oval"><circle class="cls-2" cx="200.33151" cy="228.04493" r="11.5001"/></g><g id="Oval-8" data-name="Oval"><circle class="cls-2" cx="16.32994" cy="228.04493" r="11.5001"/></g><g id="Rectangle"><rect class="cls-3" x="83.03051" y="202.74472" width="50.60043" height="50.60043"/><path class="cls-3" d="M149.73108,269.44529H66.93037V186.64458h82.80071ZM99.13065,237.245H117.5308V218.84486H99.13065Z"/></g><g id="Oval-9" data-name="Oval"><circle class="cls-4" cx="108.33072" cy="228.04493" r="11.5001"/></g><g id="Oval-3-Copy"><circle class="cls-4" cx="200.33151" cy="44.50337" r="26.45023"/><path class="cls-5" d="M200.33151,85.90373a41.40036,41.40036,0,1,1,41.40035-41.40036A41.44735,41.44735,0,0,1,200.33151,85.90373Zm0-52.90046a11.5001,11.5001,0,1,0,11.5001,11.5001A11.51306,11.51306,0,0,0,200.33151,33.00327Z"/></g></g><g id="SMI"><path class="cls-6" d="M68.72323,356.67353c-6.82415,0-11.05619-2.27472-13.22511-4.17915a8.30282,8.30282,0,0,1,3.65013-6.29515,15.86288,15.86288,0,0,0,9.73369,3.22693c3.80883,0,5.29-1.21671,5.29-3.06821,0-1.74571-.8464-2.75085-6.82415-4.28494-5.71326-1.37541-10.7388-3.59723-10.79169-10.4214,0-6.50674,5.18424-10.68589,13.0135-10.68589,5.872,0,9.78659,1.90443,11.79681,3.49145a8.22733,8.22733,0,0,1-3.65013,6.40094,15.07743,15.07743,0,0,0-8.67568-2.645c-3.12113,0-4.81394,1.16379-4.81394,2.75081,0,1.69281.74061,2.43344,6.82415,3.91464,6.34806,1.587,10.6859,4.28494,10.7917,10.36848C82.00126,352.6002,76.86991,356.67353,68.72323,356.67353Zm58.13759-35.073a21.454,21.454,0,0,1,4.02046.3703v33.85628a22.09081,22.09081,0,0,1-3.59724.3174,23.8709,23.8709,0,0,1-3.703-.3174V339.428l.26448-4.97264-1.32251,3.86171-5.819,14.65344a24.84111,24.84111,0,0,1-3.27983.21159,27.37935,27.37935,0,0,1-3.33272-.21159l-6.13647-14.70634-1.2167-3.2269.21159,4.39073v16.39912a23.34628,23.34628,0,0,1-3.703.3174,22.09072,22.09072,0,0,1-3.59724-.3174V322.02373a15.621,15.621,0,0,1,3.96754-.4232,30.30538,30.30538,0,0,1,4.28494.31741l9.15177,20.94856.63481,1.69282.529-1.69282,8.46408-20.94856A25.80106,25.80106,0,0,1,126.86082,321.60053Zm23.54072,34.544a26.252,26.252,0,0,1-4.02043-.3174V321.91794a18.72624,18.72624,0,0,1,3.86172-.31741,21.267,21.267,0,0,1,4.02043.31741v33.90917A23.29092,23.29092,0,0,1,150.40154,356.14451Z"/></g></g></svg>