<svg xmlns="http://www.w3.org/2000/svg" viewBox="0 0 184 184"><defs><style>.cls-1{fill:#31005d;}.cls-2{fill:#1b94ff;}.cls-3{fill:#00d7bd;}.cls-4{fill:#fff;}</style></defs><g id="Layer_2" data-name="Layer 2"><g id="Layer_1-2" data-name="Layer 1"><rect class="cls-1" width="92" height="92"/><rect class="cls-2" x="92" width="92" height="92"/><rect class="cls-3" y="92" width="92" height="92"/><rect class="cls-1" x="92" y="92" width="92" height="92"/><path class="cls-4" d="M16.29,82H13.13V9.23h3.16Zm6.33,0H19.46V9.23h3.16ZM29,82H25.79V9.23H29Zm6.33,0H32.11V9.23h3.17Zm1.84-36.39L55.76,9.23h3.51L40.64,45.61,59.27,82H55.76Zm7.12,0L62.83,9.23h3.52L47.76,45.61,66.35,82H62.83Zm7.08,0L69.91,9.23h3.51L54.83,45.61,73.42,82H69.91Zm7.07,0L77,9.23H80.5L61.91,45.61,80.5,82H77Z"/><path class="cls-1" d="M171.33,50V9.23h3.17V50a33.1,33.1,0,0,1-5,17.6,36,36,0,0,1-13.47,12.83,38.54,38.54,0,0,1-37,0,36.17,36.17,0,0,1-13.47-12.83,33.09,33.09,0,0,1-5-17.6V9.23h3.16V50a29.87,29.87,0,0,0,2.68,12.39,32.11,32.11,0,0,0,7.21,10.22,35.12,35.12,0,0,0,47.73,0,32.09,32.09,0,0,0,7.2-10.22A29.72,29.72,0,0,0,171.33,50ZM165,50V9.23h3.17V50a26.56,26.56,0,0,1-2.44,11.18,29.29,29.29,0,0,1-6.53,9.21,30.56,30.56,0,0,1-9.75,6.15,31.88,31.88,0,0,1-23.73,0A30.71,30.71,0,0,1,116,70.4a29.26,29.26,0,0,1-6.52-9.21A26.56,26.56,0,0,1,107,50V9.23h3.16V50a23.8,23.8,0,0,0,3.69,12.85,26.65,26.65,0,0,0,10,9.36,29.07,29.07,0,0,0,27.47,0,26.62,26.62,0,0,0,10-9.36A23.8,23.8,0,0,0,165,50Zm-6.32,0V9.23h3.16V50a20.42,20.42,0,0,1-1.93,8.72,23.07,23.07,0,0,1-5.19,7.19A24.48,24.48,0,0,1,147,70.73a25.74,25.74,0,0,1-18.81,0,24.53,24.53,0,0,1-7.74-4.81,23.2,23.2,0,0,1-5.18-7.19A20.42,20.42,0,0,1,113.33,50V9.23h3.16V50a17.75,17.75,0,0,0,2.83,9.69,20.28,20.28,0,0,0,7.69,7,22.86,22.86,0,0,0,21.14,0,20.2,20.2,0,0,0,7.69-7A17.76,17.76,0,0,0,158.68,50Zm-6.33,0V9.23h3.16V50a14.84,14.84,0,0,1-5.27,11.42,19.23,19.23,0,0,1-25.31,0A14.82,14.82,0,0,1,119.65,50V9.23h3.17V50a11.83,11.83,0,0,0,4.33,9.18,16.13,16.13,0,0,0,20.87,0A11.83,11.83,0,0,0,152.35,50Z"/><path class="cls-1" d="M50.53,174H10V101.23H50.53a28.59,28.59,0,0,1,16,4.87,35.18,35.18,0,0,1,11.85,13.28,39.74,39.74,0,0,1,1.8,32.36,38,38,0,0,1-7,11.63,32.78,32.78,0,0,1-10.3,7.75A28.11,28.11,0,0,1,50.53,174Zm-37.4-3.16h37.4a24.85,24.85,0,0,0,11.11-2.64,29.73,29.73,0,0,0,9.28-7.08,34.39,34.39,0,0,0,6.26-10.61,36.5,36.5,0,0,0,0-25.77,35,35,0,0,0-6.26-10.62A29.61,29.61,0,0,0,61.64,107a24.85,24.85,0,0,0-11.11-2.64H13.13Zm3.16-3.17V107.55H50.53a22.26,22.26,0,0,1,12.78,4,28.38,28.38,0,0,1,9.45,11,34,34,0,0,1,0,30.15,28.38,28.38,0,0,1-9.45,11,22.33,22.33,0,0,1-12.78,4Zm3.17-3.16H50.53a19.1,19.1,0,0,0,11.18-3.61A25.42,25.42,0,0,0,70,151.1a31,31,0,0,0,0-27,25.36,25.36,0,0,0-8.26-9.82,19.21,19.21,0,0,0-11.16-3.6H19.46Zm3.16-3.17V113.88H50.53a16.2,16.2,0,0,1,9.58,3.17,22,22,0,0,1,7,8.63,28.52,28.52,0,0,1,0,23.84,21.94,21.94,0,0,1-7,8.66,16.19,16.19,0,0,1-9.58,3.16Zm3.17-3.16H50.53q6.54,0,11.27-6a22.87,22.87,0,0,0,4.72-14.53,24.44,24.44,0,0,0-2.17-10.32,19,19,0,0,0-5.85-7.5,13,13,0,0,0-8-2.74H25.79ZM29,155V120.21H50.53q5.22,0,9,5.12a22,22,0,0,1,0,24.59q-3.75,5.1-9,5.1Zm3.16-3.17H50.53c2.6,0,4.84-1.39,6.7-4.17a19.59,19.59,0,0,0,0-20.15c-1.86-2.77-4.1-4.15-6.7-4.15H32.11Z"/><path class="cls-4" d="M101.12,153a39.14,39.14,0,0,1,0-30.72,39,39,0,0,1,21-21,39,39,0,0,1,30.72,0,39,39,0,0,1,21.05,21,39.14,39.14,0,0,1,0,30.72A39,39,0,0,1,152.89,174a39.14,39.14,0,0,1-30.72,0,39,39,0,0,1-21-21.05Zm2.9-29.49a36.1,36.1,0,0,0,0,28.26,35.68,35.68,0,0,0,19.38,19.38,36.1,36.1,0,0,0,28.26,0A35.68,35.68,0,0,0,171,151.74a36.1,36.1,0,0,0,0-28.26,35.71,35.71,0,0,0-19.38-19.37,36.1,36.1,0,0,0-28.26,0A35.71,35.71,0,0,0,104,123.48Zm4.75,30.79a33.33,33.33,0,0,1,0-33.31,33.14,33.14,0,0,1,12.1-12.11,33.33,33.33,0,0,1,33.31,0A33.1,33.1,0,0,1,166.29,121a33.33,33.33,0,0,1,0,33.31,33.1,33.1,0,0,1-12.11,12.11,33.33,33.33,0,0,1-33.31,0A33.14,33.14,0,0,1,108.77,154.27Zm1.07-28.35a30,30,0,0,0,0,23.38,29.42,29.42,0,0,0,16,16,30.28,30.28,0,0,0,33-6.4,30,30,0,0,0,6.39-9.6,29.9,29.9,0,0,0,0-23.38,29.3,29.3,0,0,0-16-16,29.9,29.9,0,0,0-23.38,0,29.36,29.36,0,0,0-16,16Zm4.4,25.18a27,27,0,0,1,0-27,26.89,26.89,0,0,1,50.18,13.49,26.9,26.9,0,0,1-50.18,13.49ZM117,125.7a23.89,23.89,0,0,0,0,23.82,23.78,23.78,0,0,0,8.64,8.64,23.89,23.89,0,0,0,23.82,0,23.68,23.68,0,0,0,8.63-8.64,23.83,23.83,0,0,0,0-23.82,23.65,23.65,0,0,0-8.63-8.63,23.83,23.83,0,0,0-23.82,0A23.75,23.75,0,0,0,117,125.7Zm1.61,19.89a20.32,20.32,0,0,1,0-16,20.57,20.57,0,0,1,4.39-6.57,20.82,20.82,0,0,1,6.57-4.4,20.44,20.44,0,0,1,15.95,0,20.37,20.37,0,0,1,11,11,20.44,20.44,0,0,1,0,16,20.82,20.82,0,0,1-4.4,6.57,20.57,20.57,0,0,1-6.57,4.39,20.32,20.32,0,0,1-15.95,0,20.25,20.25,0,0,1-11-11Zm6.63-20.28a17.39,17.39,0,1,0,12.31-5.1A16.79,16.79,0,0,0,125.22,125.31Z"/></g></g></svg>