<svg xmlns="http://www.w3.org/2000/svg" xmlns:svg="http://www.w3.org/2000/svg" xmlns:xlink="http://www.w3.org/1999/xlink" id="svg2" x="0" y="0" version="1.0" viewBox="0 0 600 275" xml:space="preserve" style="enable-background:new 0 0 600 275"><style type="text/css">.st0{fill:#00466f}.st1{fill:#64b9e8}</style><switch><g><g><path id="path4" d="M245.4,60.6v2.8h12v31.5h3.3V63.3h12v-2.8L245.4,60.6z" class="st0"/><path id="path6" d="M299.4,60.6v14.9h-20.4V60.6h-3.3v34.3h3.3V78.2h20.4v16.6h3.3V60.6H299.4z" class="st0"/><path id="path8" d="M309.6,60.6v34.3h23.9v-2.8h-20.7V78.5H332v-2.8h-19.1V63.3h20.4v-2.8H309.6z" class="st0"/><path id="path10" d="M245.4,180v34.3h3.3V198h16.4v-2.8h-16.4v-12.4h18.5V180L245.4,180z" class="st0"/><path id="path12" d="M285.6,212.2c9,0,12.9-7.6,12.9-15.1c0-7.5-3.8-15.1-12.9-15.1c-9.1,0-12.9,7.6-12.9,15.1 C272.6,204.6,276.5,212.2,285.6,212.2 M285.6,179.3c10.8,0,16.1,8.5,16.1,17.9c0,9.4-5.4,17.9-16.1,17.9 c-10.8,0-16.2-8.5-16.2-17.9C269.4,187.7,274.7,179.3,285.6,179.3" class="st0"/><path id="path14" d="M306.5,180h3.3v21.2c0,7.9,3.7,11,10,11c6.4,0,10.1-3.1,10.1-11V180h3.3v22 c0,7.1-3.8,13.1-13.4,13.1c-9.5,0-13.3-6-13.3-13.1L306.5,180z" class="st0"/><path id="path16" d="M339.7,180h3.7l20,29h0.1v-29h3.3v34.3H363l-20-29h-0.1v29h-3.3V180z" class="st0"/><path id="path18" d="M376.8,211.5h7c9.8,0,14.1-4.1,14.1-14.4c0-10.3-4.3-14.4-14.1-14.4h-7V211.5z M373.5,180h11.9 c10.4,0.2,15.8,5.8,15.8,17.2c0,11.3-5.4,16.9-15.8,17.2h-11.9V180z" class="st0"/><path id="path20" d="M411.3,200.8h13.5l-6.6-17.6L411.3,200.8z M416.5,180h3.7l13.5,34.3h-3.5l-4.2-10.7h-15.6 l-4.1,10.7h-3.5L416.5,180z" class="st0"/><g id="use22" transform="translate(46.096,29.8595)"><path id="path4_1_" d="M429.8,180v2.8h12v31.5h3.3v-31.5h12V180H429.8z" class="st0"/></g><path id="path24" d="M460.4,180h3.3v34.3h-3.3V180z" class="st0"/><g id="use26" transform="translate(49.9157)"><path id="path12_1_" d="M485.2,212.2c9,0,12.9-7.6,12.9-15.1c0-7.5-3.8-15.1-12.9-15.1c-9.1,0-12.9,7.6-12.9,15.1 C472.3,204.6,476.1,212.2,485.2,212.2 M485.2,179.3c10.8,0,16.1,8.5,16.1,17.9c0,9.4-5.4,17.9-16.1,17.9 c-10.8,0-16.2-8.5-16.2-17.9C469,187.7,474.4,179.3,485.2,179.3" class="st0"/></g><g id="use28" transform="translate(41.6867)"><path id="path16_1_" d="M506.4,180h3.7l20,29h0.1v-29h3.3v34.3h-3.6l-20-29h-0.1v29h-3.3V180z" class="st0"/></g><path id="path30" d="M245.4,105.1h18.9v45.6h27.2v15.7h-46.1V105.1z" class="st0"/><path id="path32" d="M303.8,105.1h18.9v61.4h-18.9V105.1z" class="st0"/><path id="path34" d="M336.8,105.1h19.3l17.9,32.8h0.2v-32.8h17.9v61.4h-18.4l-18.8-33.5h-0.2v33.5h-17.9V105.1z" class="st0"/><path id="path36" d="M462,142.7c0,17.1-9,25.2-27.9,25.2c-18.9,0-28-8.1-28-25.2v-37.7H425v33.4 c0,6.2-0.1,14.1,9.2,14.1c8.9,0,8.9-7.9,8.9-14.1v-33.4H462L462,142.7z" class="st0"/><path id="path38" d="M492.1,133.8l-20.2-28.7h22.2l9.3,16.7l9.1-16.7h21L513.8,134l21.9,32.5h-22.8l-10.5-18.3 l-10.8,18.3h-21.7L492.1,133.8z" class="st0"/><path id="path40" d="M64.3,108.8v96.5c0,5,4,9,9,9h63.1v-32.1h-31c-5,0-9-4-9-9v-64.5H64.3z" class="st1"/><path id="path42" d="M177.5,92.1c5,0,9,4,9,9v72.2c0,5-4,9-9,9h-33.4v32.1h65.5c5,0,9-4,9-9V69c0-5-4-9-9-9H73.3 c-5,0-9,4-9,9v32.1h32.1c0-5,4-9,9-9H177.5z" class="st0"/></g></g></switch></svg>