<svg width="855" height="286" viewBox="0 0 855 286" fill="none" xmlns="http://www.w3.org/2000/svg">
<rect x="295.5" y="94.5" width="115" height="145" rx="22.5" fill="#326CE5" stroke="#326CE5" stroke-width="5"/>
<path d="M322 198C322 191.635 324.49 185.53 328.923 181.029C333.356 176.529 339.369 174 345.638 174C351.907 174 357.92 176.529 362.353 181.029C366.786 185.53 369.276 191.635 369.276 198H322ZM345.638 171C335.843 171 327.91 162.945 327.91 153C327.91 143.055 335.843 135 345.638 135C355.433 135 363.367 143.055 363.367 153C363.367 162.945 355.433 171 345.638 171ZM367.394 177.699C371.914 178.878 375.952 181.476 378.934 185.12C381.915 188.765 383.688 193.273 384 198H375.186C375.186 190.17 372.231 183.042 367.394 177.699ZM361.417 170.871C363.893 168.622 365.873 165.868 367.227 162.788C368.582 159.708 369.28 156.373 369.276 153C369.283 148.9 368.25 144.868 366.277 141.291C369.624 141.974 372.634 143.812 374.797 146.494C376.96 149.175 378.141 152.534 378.141 156C378.141 158.137 377.692 160.25 376.823 162.197C375.954 164.144 374.685 165.879 373.101 167.288C371.518 168.696 369.656 169.744 367.641 170.362C365.625 170.98 363.503 171.154 361.417 170.871Z" fill="white"/>
<path fill-rule="evenodd" clip-rule="evenodd" d="M739.623 234.631C702.271 216.748 686.486 171.967 704.368 134.61C712.955 116.671 728.316 102.878 747.071 96.2659C765.826 89.6535 786.44 90.7634 804.377 99.3513C841.729 117.235 857.514 162.016 839.632 199.372C821.751 236.729 776.975 252.515 739.623 234.631Z" fill="#326CE5"/>
<path d="M753.715 147.634C753.845 147.474 753.926 147.386 753.991 147.289C755.334 145.263 757.211 143.87 759.404 142.861C762.488 141.435 765.741 140.618 769.115 140.29C774.27 139.793 779.214 140.618 783.965 142.628C785.429 143.253 786.838 144.014 787.995 145.111C788.658 145.736 789.2 146.473 789.791 147.161C789.913 147.305 790.018 147.458 790.155 147.642C790.754 147.321 791.329 147.017 791.903 146.697C795.966 144.398 798.919 141.083 800.959 136.942C801.865 135.108 802.682 133.234 803.556 131.384C803.734 131.016 803.945 130.647 804.188 130.319C804.519 129.879 804.851 129.887 805.062 130.391C805.32 131 805.547 131.64 805.644 132.289C806.445 137.703 805.685 142.861 802.642 147.49C800.473 150.789 797.714 153.592 794.461 155.891C794.193 156.083 794.104 156.243 794.185 156.572C794.55 158.045 794.687 159.543 794.695 161.056C794.703 163.379 794.752 165.701 794.776 168.024C794.776 168.264 794.841 168.392 795.076 168.513C795.715 168.833 796.103 169.401 796.395 170.034C796.848 171.011 796.977 172.052 797.034 173.11C797.374 179.124 794.946 184.049 790.908 188.35C790.714 188.55 790.568 188.823 790.487 189.095C788.861 194.397 785.996 198.834 781.319 201.989C778.599 203.823 775.581 204.888 772.279 204.992C769.641 205.08 767.149 204.416 764.794 203.262C760.554 201.196 757.503 197.929 755.31 193.836C754.484 192.298 753.853 190.689 753.359 189.015C753.295 188.783 753.149 188.55 752.987 188.374C750.155 185.435 748.124 182.063 747.201 178.083C746.675 175.808 746.651 173.502 747.072 171.211C747.225 170.403 747.541 169.65 748.116 169.033C748.253 168.889 748.391 168.697 748.569 168.641C749.103 168.464 749.095 168.08 749.103 167.632C749.119 165.109 749.111 162.586 749.216 160.063C749.265 158.87 749.499 157.685 749.702 156.499C749.758 156.163 749.694 156.003 749.427 155.811C746.173 153.504 743.462 150.653 741.229 147.378C739.432 144.743 738.558 141.747 738.186 138.608C737.911 136.301 737.903 133.995 738.421 131.721C738.518 131.28 738.672 130.848 738.858 130.439C739.109 129.887 739.449 129.862 739.813 130.367C740.047 130.687 740.25 131.048 740.42 131.408C741.318 133.314 742.16 135.252 743.106 137.142C744.927 140.77 747.468 143.806 750.948 146.008C751.846 146.561 752.769 147.081 753.715 147.634ZM763.2 177.002C764.81 176.978 765.967 176.601 766.995 175.832C768.047 175.048 768.654 173.998 768.8 172.693C768.832 172.357 768.759 172.165 768.379 172.124C768.071 172.092 767.772 171.996 767.472 171.932C763.483 171.123 759.502 170.322 755.512 169.514C755.051 169.418 754.921 169.522 755.075 169.954C755.31 170.587 755.552 171.244 755.925 171.796C757.187 173.654 758.854 175.096 760.804 176.217C761.638 176.705 762.536 177.026 763.2 177.002ZM780.339 177.002C781.1 177.01 781.82 176.858 782.492 176.521C784.806 175.376 786.684 173.718 788.108 171.588C788.432 171.099 788.626 170.507 788.82 169.946C788.958 169.546 788.82 169.434 788.391 169.522C784.078 170.395 779.765 171.276 775.452 172.14C775.136 172.205 775.015 172.373 775.087 172.637C775.265 173.262 775.371 173.942 775.694 174.479C776.73 176.193 778.389 176.89 780.339 177.002Z" fill="white"/>
<path d="M701.994 261.6H695.594H693.322C692.874 261.6 692.65 261.856 692.65 262.304V283.328C692.65 283.776 692.874 284 693.322 284H693.77H701.994C708.17 284 712.65 279.04 712.65 272.8C712.65 266.592 708.17 261.6 701.994 261.6ZM701.994 281.184H695.594V264.416H701.994C706.634 264.416 709.77 268.096 709.77 272.8C709.77 277.536 706.634 281.184 701.994 281.184ZM721.971 267.616C718.643 267.616 716.147 269.504 715.763 272.416C715.731 272.896 716.019 273.12 716.435 273.12H717.843C718.259 273.12 718.451 272.896 718.579 272.512C718.867 271.008 720.307 270.24 721.971 270.24C723.827 270.24 725.427 271.232 725.427 273.76V276.032C724.403 274.88 722.707 274.176 720.691 274.176C717.779 274.176 715.059 275.872 715.059 279.296C715.059 282.72 717.779 284.416 720.691 284.416C722.707 284.416 724.403 283.744 725.427 282.368V283.328C725.427 283.776 725.683 284 726.099 284H727.507C727.955 284 728.179 283.776 728.179 283.328V273.696C728.179 269.824 725.523 267.616 721.971 267.616ZM721.491 282.08C718.995 282.08 717.843 280.896 717.843 279.296C717.843 277.696 718.995 276.512 721.491 276.512C723.795 276.512 725.427 277.6 725.427 279.296C725.427 280.896 723.795 282.08 721.491 282.08ZM739.41 267.616C734.418 267.616 731.122 271.296 731.122 276C731.122 280.832 734.45 284.416 739.442 284.416C742.706 284.416 745.33 282.784 746.45 280.256C746.642 279.84 746.385 279.552 745.874 279.552H744.338C743.954 279.552 743.73 279.712 743.506 280C742.77 281.12 741.33 281.92 739.474 281.92C736.658 281.92 734.482 280.224 734.002 277.28H744.434H746.514C746.93 277.28 747.218 277.088 747.25 276.64C747.25 276.448 747.25 276.256 747.25 276.064C747.25 271.552 744.242 267.616 739.41 267.616ZM734.002 274.848C734.418 272.064 736.434 270.208 739.41 270.208C741.81 270.208 744.018 271.712 744.434 274.848H734.002ZM766.011 267.616C764.219 267.616 762.587 268.256 761.403 270.112C760.539 268.48 758.971 267.616 757.243 267.616C755.707 267.616 754.203 268.192 753.115 269.76V268.704C753.115 268.256 752.859 268 752.443 268H751.003C750.555 268 750.331 268.256 750.331 268.704V283.328C750.331 283.776 750.555 284 751.003 284H752.443C752.859 284 753.115 283.776 753.115 283.328V274.272C753.115 271.136 755.067 270.24 756.507 270.24C758.011 270.24 759.291 271.104 759.291 273.344V283.328C759.291 283.776 759.547 284 759.963 284H761.403C761.851 284 762.075 283.776 762.075 283.328V274.272C762.075 271.136 764.027 270.24 765.467 270.24C766.971 270.24 768.251 271.104 768.251 273.344V283.328C768.251 283.776 768.507 284 768.955 284H770.363C770.811 284 771.035 283.776 771.035 283.328V273.216C771.035 269.536 768.827 267.616 766.011 267.616ZM782.413 284.416C787.085 284.416 790.829 280.768 790.829 276C790.829 271.264 787.085 267.616 782.413 267.616C777.709 267.616 773.965 271.264 773.965 276C773.965 280.768 777.709 284.416 782.413 284.416ZM782.413 281.696C779.213 281.696 776.749 279.232 776.749 276C776.749 272.768 779.213 270.304 782.413 270.304C785.581 270.304 788.045 272.768 788.045 276C788.045 279.232 785.581 281.696 782.413 281.696ZM801.663 267.616C799.711 267.616 798.079 268.256 796.927 269.984V268.704C796.927 268.256 796.671 268 796.255 268H794.815C794.367 268 794.143 268.256 794.143 268.704V283.328C794.143 283.776 794.367 284 794.815 284H796.255C796.671 284 796.927 283.776 796.927 283.328V274.912C796.927 271.456 798.911 270.24 800.927 270.24C802.815 270.24 804.223 271.424 804.223 273.728V283.328C804.223 283.776 804.479 284 804.927 284H806.335C806.783 284 807.007 283.776 807.007 283.328V273.632C807.007 269.856 804.639 267.616 801.663 267.616ZM817.837 284.416C821.741 284.416 825.197 282.112 825.197 278.208C825.197 273.856 821.229 272.64 817.901 271.392C815.405 270.432 813.421 269.536 813.421 267.296C813.421 265.28 815.117 264.096 817.389 264.096C819.629 264.096 821.293 265.152 821.581 267.232C821.613 267.648 821.837 267.872 822.253 267.872H823.885C824.333 267.872 824.557 267.648 824.525 267.168C824.205 263.264 820.973 261.216 817.389 261.216C813.805 261.216 810.445 263.392 810.445 267.296C810.445 271.776 814.253 272.96 817.581 274.208C820.077 275.104 822.253 276.032 822.253 278.208C822.253 280.224 820.429 281.536 817.837 281.536C815.117 281.536 813.197 280.32 812.877 278.048C812.845 277.6 812.621 277.376 812.205 277.376H810.573C810.125 277.376 809.901 277.632 809.933 278.08C810.253 282.24 813.773 284.416 817.837 284.416ZM835.816 267.616C830.824 267.616 827.528 271.296 827.528 276C827.528 280.832 830.856 284.416 835.848 284.416C839.112 284.416 841.736 282.784 842.856 280.256C843.048 279.84 842.792 279.552 842.28 279.552H840.744C840.36 279.552 840.136 279.712 839.912 280C839.176 281.12 837.736 281.92 835.88 281.92C833.064 281.92 830.888 280.224 830.408 277.28H840.84H842.92C843.336 277.28 843.624 277.088 843.656 276.64C843.656 276.448 843.656 276.256 843.656 276.064C843.656 271.552 840.648 267.616 835.816 267.616ZM830.408 274.848C830.824 272.064 832.84 270.208 835.816 270.208C838.216 270.208 840.424 271.712 840.84 274.848H830.408ZM853.461 268H850.997V263.584C850.997 263.136 850.773 262.88 850.325 262.88H848.885C848.469 262.88 848.213 263.136 848.213 263.584V268H845.749C845.301 268 845.045 268.256 845.045 268.704V270.016C845.045 270.464 845.301 270.688 845.749 270.688H848.213V283.328C848.213 283.776 848.469 284 848.885 284H850.325C850.773 284 850.997 283.776 850.997 283.328V270.688H853.461C853.909 270.688 854.133 270.464 854.133 270.016V268.704C854.133 268.256 853.909 268 853.461 268Z" fill="white"/>
<path d="M341.481 284.168L334.473 276.072C337.193 275.112 339.145 272.552 339.145 269.576C339.145 265.736 336.041 262.6 332.201 262.6H326.985H324.713C324.265 262.6 324.041 262.856 324.041 263.304V284.328C324.041 284.776 324.265 285 324.713 285H326.313C326.761 285 326.985 284.776 326.985 284.328V276.456H331.241L338.249 284.616C338.473 284.904 338.761 285 339.113 285H341.097C341.673 285 341.833 284.616 341.481 284.168ZM326.985 265.384H332.201C334.377 265.384 336.201 267.24 336.201 269.576C336.201 271.88 334.377 273.736 332.201 273.736H326.985V265.384ZM350.429 285.416C355.101 285.416 358.845 281.768 358.845 277C358.845 272.264 355.101 268.616 350.429 268.616C345.725 268.616 341.981 272.264 341.981 277C341.981 281.768 345.725 285.416 350.429 285.416ZM350.429 282.696C347.229 282.696 344.765 280.232 344.765 277C344.765 273.768 347.229 271.304 350.429 271.304C353.597 271.304 356.061 273.768 356.061 277C356.061 280.232 353.597 282.696 350.429 282.696ZM362.831 285H364.271C364.687 285 364.943 284.776 364.943 284.328V262.664C364.943 262.216 364.687 261.96 364.271 261.96H362.831C362.383 261.96 362.159 262.216 362.159 262.664V284.328C362.159 284.776 362.383 285 362.831 285ZM376.55 268.616C371.558 268.616 368.262 272.296 368.262 277C368.262 281.832 371.59 285.416 376.582 285.416C379.846 285.416 382.47 283.784 383.59 281.256C383.782 280.84 383.526 280.552 383.014 280.552H381.478C381.094 280.552 380.87 280.712 380.646 281C379.91 282.12 378.47 282.92 376.614 282.92C373.798 282.92 371.622 281.224 371.142 278.28H381.574H383.654C384.07 278.28 384.358 278.088 384.39 277.64C384.39 277.448 384.39 277.256 384.39 277.064C384.39 272.552 381.382 268.616 376.55 268.616ZM371.142 275.848C371.558 273.064 373.574 271.208 376.55 271.208C378.95 271.208 381.158 272.712 381.574 275.848H371.142Z" fill="white"/>
<rect x="27.5" y="2.5" width="115" height="145" rx="22.5" fill="#326CE5" stroke="#326CE5" stroke-width="5"/>
<path d="M64.1548 105.343C64.1548 99.2807 66.6654 93.4669 71.1343 89.1803C75.6032 84.8938 81.6643 82.4856 87.9843 82.4856C94.3042 82.4856 100.365 84.8938 104.834 89.1803C109.303 93.4669 111.814 99.2807 111.814 105.343H64.1548ZM87.9843 79.6285C78.1099 79.6285 70.1122 71.9571 70.1122 62.4856C70.1122 53.0142 78.1099 45.3428 87.9843 45.3428C97.8586 45.3428 105.856 53.0142 105.856 62.4856C105.856 71.9571 97.8586 79.6285 87.9843 79.6285ZM109.916 86.0085C114.473 87.1318 118.543 89.6052 121.549 93.0766C124.555 96.548 126.342 100.84 126.656 105.343H117.771C117.771 97.8856 114.792 91.0971 109.916 86.0085ZM103.89 79.5056C106.387 77.3641 108.383 74.7409 109.748 71.8078C111.114 68.8746 111.818 65.6979 111.814 62.4856C111.82 58.5812 110.779 54.741 108.79 51.3342C112.164 51.9845 115.199 53.7353 117.379 56.289C119.559 58.8428 120.75 62.042 120.75 65.3428C120.751 67.3784 120.298 69.3907 119.422 71.2447C118.545 73.0987 117.266 74.7517 115.67 76.0929C114.073 77.434 112.196 78.4324 110.165 79.021C108.133 79.6095 105.994 79.7748 103.89 79.5056Z" fill="white"/>
<path d="M56.021 77.7752H63.7267V82.6401H56.021V89.9374H50.8839V82.6401H43.1782V77.7752H50.8839V70.4779H56.021V77.7752Z" fill="white"/>
<path d="M240.671 50.9505L240.935 49.474L240.671 50.9505ZM283.17 84.3754C283.989 84.4959 284.752 83.9292 284.872 83.1096L286.836 69.7532C286.956 68.9336 286.39 68.1714 285.57 68.0509C284.75 67.9304 283.988 68.4972 283.868 69.3168L282.122 81.1891L270.25 79.4435C269.43 79.323 268.668 79.8897 268.548 80.7094C268.427 81.529 268.994 82.2911 269.813 82.4116L283.17 84.3754ZM185 71.8977C185.938 73.0689 185.937 73.069 185.937 73.069C185.938 73.0689 185.938 73.0688 185.938 73.0686C185.939 73.0681 185.94 73.0672 185.941 73.066C185.944 73.0635 185.949 73.0595 185.956 73.054C185.97 73.043 185.991 73.0261 186.02 73.0034C186.078 72.9581 186.165 72.8898 186.28 72.8002C186.511 72.6211 186.855 72.3569 187.304 72.021C188.2 71.3492 189.511 70.391 191.161 69.2531C194.463 66.9759 199.111 63.9862 204.499 61.1325C215.36 55.38 228.885 50.3656 240.407 52.4271L240.935 49.474C228.354 47.2229 214.044 52.6821 203.095 58.4814C197.578 61.4035 192.828 64.4592 189.458 66.7834C187.772 67.9463 186.428 68.9278 185.504 69.6205C185.042 69.9669 184.685 70.2412 184.441 70.43C184.32 70.5244 184.226 70.5974 184.163 70.6474C184.131 70.6724 184.107 70.6916 184.09 70.7049C184.082 70.7115 184.076 70.7166 184.071 70.7202C184.069 70.7221 184.067 70.7235 184.066 70.7245C184.065 70.7251 184.064 70.7256 184.064 70.7258C184.064 70.7262 184.063 70.7265 185 71.8977ZM240.407 52.4271C250.891 54.303 261.3 62.0231 269.203 69.4797C273.127 73.1818 276.379 76.7661 278.649 79.425C279.783 80.7537 280.671 81.8493 281.274 82.6104C281.575 82.9909 281.804 83.2876 281.958 83.4879C282.035 83.588 282.092 83.664 282.13 83.7143C282.149 83.7395 282.163 83.7582 282.172 83.7703C282.177 83.7763 282.18 83.7807 282.182 83.7834C282.183 83.7848 282.184 83.7857 282.184 83.7862C282.184 83.7865 282.184 83.7865 282.185 83.7866C282.185 83.7866 282.184 83.7865 283.388 82.8914C284.592 81.9963 284.591 81.9959 284.591 81.9955C284.591 81.9952 284.59 81.9946 284.59 81.994C284.589 81.9928 284.588 81.9912 284.586 81.9891C284.583 81.985 284.579 81.9793 284.573 81.9718C284.562 81.9569 284.546 81.9354 284.525 81.9074C284.483 81.8514 284.421 81.7695 284.339 81.6635C284.177 81.4513 283.937 81.142 283.626 80.7485C283.003 79.9616 282.092 78.837 280.93 77.477C278.609 74.7586 275.283 71.0915 271.262 67.2977C263.276 59.7624 252.326 51.5121 240.935 49.474L240.407 52.4271Z" fill="#CCCCCC"/>
<g clip-path="url(#clip0_9978_31441)" filter="url(#filter0_d_9978_31441)">
<mask id="mask0_9978_31441" style="mask-type:luminance" maskUnits="userSpaceOnUse" x="0" y="75" width="50" height="50">
<path d="M50 75H0V125H50V75Z" fill="white"/>
</mask>
<g mask="url(#mask0_9978_31441)">
<path d="M19.6875 95.3125C20.4688 95 21.875 95.1563 22.3438 96.0938C22.6563 96.875 22.9688 97.9688 22.9688 97.8125C22.9688 97.1875 22.9688 95.9375 23.125 95.3125C23.2813 94.8438 23.5938 94.375 24.2188 94.2188C24.6875 94.0625 25.1562 94.0625 25.625 94.0625C26.0938 94.2188 26.5625 94.5312 26.875 94.8438C27.5 95.7812 27.5 97.8125 27.5 97.6563C27.6563 97.1875 27.6562 95.7812 27.9688 95.1562C28.125 94.8437 28.75 94.5312 29.0625 94.375C29.5312 94.2187 30.1562 94.2187 30.625 94.375C30.9375 94.375 31.5625 94.8437 31.7187 95.1562C32.0312 95.625 32.1875 97.1875 32.3438 97.8125C32.3438 97.9688 32.5 97.1875 32.8125 96.7187C33.4375 95.7812 35.625 95.4688 35.7812 97.6563C35.7812 98.75 35.7812 98.5938 35.7812 99.375C35.7812 100.156 35.7812 100.625 35.7812 101.25C35.7812 101.875 35.625 103.281 35.4688 103.906C35.3125 104.375 34.8438 105.469 34.375 106.094C34.375 106.094 32.6562 107.969 32.5 108.906C32.3437 109.844 32.3438 109.844 32.3438 110.469C32.3438 111.094 32.5 111.875 32.5 111.875C32.5 111.875 31.25 112.031 30.625 111.875C30 111.719 29.2188 110.625 29.0625 110.156C28.75 109.688 28.2812 109.688 27.9688 110.156C27.6562 110.781 26.875 111.875 26.4062 111.875C25.3125 112.031 23.125 111.875 21.5625 111.875C21.5625 111.875 21.875 110.313 21.25 109.688C20.7813 109.219 20 108.438 19.5313 107.969L18.2812 106.563C17.8125 105.938 16.7188 105.156 16.4063 103.438C16.0938 102.031 16.0938 101.25 16.4063 100.625C16.7188 100 17.5 99.6875 17.8125 99.6875C18.125 99.6875 18.9063 99.6875 19.2188 99.8437C19.5313 100 19.6875 100.156 20 100.469C20.3125 100.937 20.4688 101.25 20.3125 100.625C20.1563 100.156 19.8438 99.6875 19.6875 99.0625C19.5313 98.4375 19.0625 97.6562 19.0625 96.7187C18.2812 96.7187 18.4375 95.7813 19.6875 95.3125Z" fill="white"/>
</g>
<mask id="mask1_9978_31441" style="mask-type:luminance" maskUnits="userSpaceOnUse" x="0" y="75" width="50" height="50">
<path d="M50 75H0V125H50V75Z" fill="white"/>
</mask>
<g mask="url(#mask1_9978_31441)">
<path d="M19.6875 95.3125C20.4688 95 21.875 95.1563 22.3438 96.0938C22.6563 96.875 22.9687 97.9688 22.9687 97.8125C22.9687 97.1875 22.9688 95.9375 23.125 95.3125C23.2813 94.8438 23.5938 94.375 24.2188 94.2188C24.6875 94.0625 25.1562 94.0625 25.625 94.0625C26.0937 94.2188 26.5625 94.5312 26.875 94.8438C27.5 95.7813 27.5 97.8125 27.5 97.6563C27.6563 97.1875 27.6562 95.7812 27.9687 95.1562C28.125 94.8437 28.75 94.5312 29.0625 94.375C29.5313 94.2187 30.1562 94.2187 30.625 94.375C30.9375 94.375 31.5625 94.8437 31.7187 95.1562C32.0312 95.625 32.1875 97.1875 32.3438 97.8125C32.3438 97.9688 32.5 97.1875 32.8125 96.7187C33.4375 95.7812 35.625 95.4688 35.7812 97.6563C35.7812 98.75 35.7812 98.5938 35.7812 99.375C35.7812 100.156 35.7812 100.625 35.7812 101.25C35.7812 101.875 35.625 103.281 35.4688 103.906C35.3125 104.375 34.8437 105.469 34.375 106.094C34.375 106.094 32.6562 107.969 32.5 108.906C32.3437 109.844 32.3438 109.844 32.3438 110.469C32.3438 111.094 32.5 111.875 32.5 111.875C32.5 111.875 31.25 112.031 30.625 111.875C30 111.719 29.2188 110.625 29.0625 110.156C28.75 109.688 28.2812 109.688 27.9687 110.156C27.6562 110.781 26.875 111.875 26.4062 111.875C25.3125 112.031 23.125 111.875 21.5625 111.875C21.5625 111.875 21.875 110.313 21.25 109.688C20.7813 109.219 20 108.438 19.5313 107.969L18.2812 106.563C17.8125 105.938 16.7188 105.156 16.4063 103.438C16.0938 102.031 16.0938 101.25 16.4063 100.625C16.7188 100 17.5 99.6875 17.8125 99.6875C18.125 99.6875 18.9063 99.6875 19.2188 99.8437C19.5313 100 19.6875 100.156 20 100.469C20.3125 100.937 20.4688 101.25 20.3125 100.625C20.1563 100.156 19.8438 99.6875 19.6875 99.0625C19.5313 98.4375 19.0625 97.6562 19.0625 96.7187C18.2812 96.7187 18.4375 95.7813 19.6875 95.3125Z" stroke="black" stroke-width="0.75" stroke-linejoin="round"/>
</g>
<mask id="mask2_9978_31441" style="mask-type:luminance" maskUnits="userSpaceOnUse" x="0" y="75" width="50" height="50">
<path d="M50 75H0V125H50V75Z" fill="white"/>
</mask>
<g mask="url(#mask2_9978_31441)">
<path d="M30.625 107.344V102.031" stroke="black" stroke-width="0.75" stroke-linecap="round"/>
</g>
<mask id="mask3_9978_31441" style="mask-type:luminance" maskUnits="userSpaceOnUse" x="0" y="75" width="50" height="50">
<path d="M50 75H0V125H50V75Z" fill="white"/>
</mask>
<g mask="url(#mask3_9978_31441)">
<path d="M27.5 107.344L27.3438 102.031" stroke="black" stroke-width="0.75" stroke-linecap="round"/>
</g>
<mask id="mask4_9978_31441" style="mask-type:luminance" maskUnits="userSpaceOnUse" x="0" y="75" width="50" height="50">
<path d="M50 75H0V125H50V75Z" fill="white"/>
</mask>
<g mask="url(#mask4_9978_31441)">
<path d="M24.375 102.031V107.344" stroke="black" stroke-width="0.75" stroke-linecap="round"/>
</g>
</g>
<defs>
<filter id="filter0_d_9978_31441" x="0" y="75" width="58" height="58" filterUnits="userSpaceOnUse" color-interpolation-filters="sRGB">
<feFlood flood-opacity="0" result="BackgroundImageFix"/>
<feColorMatrix in="SourceAlpha" type="matrix" values="0 0 0 0 0 0 0 0 0 0 0 0 0 0 0 0 0 0 127 0" result="hardAlpha"/>
<feOffset dx="4" dy="4"/>
<feGaussianBlur stdDeviation="2"/>
<feComposite in2="hardAlpha" operator="out"/>
<feColorMatrix type="matrix" values="0 0 0 0 0 0 0 0 0 0 0 0 0 0 0 0 0 0 0.25 0"/>
<feBlend mode="normal" in2="BackgroundImageFix" result="effect1_dropShadow_9978_31441"/>
<feBlend mode="normal" in="SourceGraphic" in2="effect1_dropShadow_9978_31441" result="shape"/>
</filter>
<clipPath id="clip0_9978_31441">
<rect width="50" height="50" fill="white" transform="translate(0 75)"/>
</clipPath>
</defs>
</svg>
