<svg width="855" height="286" viewBox="0 0 855 286" fill="none" xmlns="http://www.w3.org/2000/svg">
<rect x="295.5" y="94.5" width="115" height="145" rx="22.5" fill="#326CE5" stroke="#326CE5" stroke-width="5"/>
<path d="M322 198C322 191.635 324.49 185.53 328.923 181.029C333.356 176.529 339.369 174 345.638 174C351.907 174 357.92 176.529 362.353 181.029C366.786 185.53 369.276 191.635 369.276 198H322ZM345.638 171C335.843 171 327.91 162.945 327.91 153C327.91 143.055 335.843 135 345.638 135C355.433 135 363.367 143.055 363.367 153C363.367 162.945 355.433 171 345.638 171ZM367.394 177.699C371.914 178.878 375.952 181.476 378.934 185.12C381.915 188.765 383.688 193.273 384 198H375.186C375.186 190.17 372.231 183.042 367.394 177.699ZM361.417 170.871C363.893 168.622 365.873 165.868 367.227 162.788C368.582 159.708 369.28 156.373 369.276 153C369.283 148.9 368.25 144.868 366.277 141.291C369.624 141.974 372.634 143.812 374.797 146.494C376.96 149.175 378.141 152.534 378.141 156C378.141 158.137 377.692 160.25 376.823 162.197C375.954 164.144 374.685 165.879 373.101 167.288C371.518 168.696 369.656 169.744 367.641 170.362C365.625 170.98 363.503 171.154 361.417 170.871Z" fill="white"/>
<path fill-rule="evenodd" clip-rule="evenodd" d="M739.623 234.631C702.271 216.748 686.486 171.967 704.368 134.61C712.955 116.671 728.316 102.878 747.071 96.2659C765.826 89.6535 786.44 90.7634 804.377 99.3513C841.729 117.235 857.514 162.016 839.632 199.372C821.751 236.729 776.975 252.515 739.623 234.631Z" fill="#326CE5"/>
<path d="M753.715 147.634C753.845 147.474 753.926 147.386 753.991 147.289C755.334 145.263 757.211 143.87 759.404 142.861C762.488 141.435 765.741 140.618 769.115 140.29C774.27 139.793 779.214 140.618 783.965 142.628C785.429 143.253 786.838 144.014 787.995 145.111C788.658 145.736 789.2 146.473 789.791 147.161C789.913 147.305 790.018 147.458 790.155 147.642C790.754 147.321 791.329 147.017 791.903 146.697C795.966 144.398 798.919 141.083 800.959 136.942C801.865 135.108 802.682 133.234 803.556 131.384C803.734 131.016 803.945 130.647 804.188 130.319C804.519 129.879 804.851 129.887 805.062 130.391C805.32 131 805.547 131.64 805.644 132.289C806.445 137.703 805.685 142.861 802.642 147.49C800.473 150.789 797.714 153.592 794.461 155.891C794.193 156.083 794.104 156.243 794.185 156.572C794.55 158.045 794.687 159.543 794.695 161.056C794.703 163.379 794.752 165.701 794.776 168.024C794.776 168.264 794.841 168.392 795.076 168.513C795.715 168.833 796.103 169.401 796.395 170.034C796.848 171.011 796.977 172.052 797.034 173.11C797.374 179.124 794.946 184.049 790.908 188.35C790.714 188.55 790.568 188.823 790.487 189.095C788.861 194.397 785.996 198.834 781.319 201.989C778.599 203.823 775.581 204.888 772.279 204.992C769.641 205.08 767.149 204.416 764.794 203.262C760.554 201.196 757.503 197.929 755.31 193.836C754.484 192.298 753.853 190.689 753.359 189.015C753.295 188.783 753.149 188.55 752.987 188.374C750.155 185.435 748.124 182.063 747.201 178.083C746.675 175.808 746.651 173.502 747.072 171.211C747.225 170.403 747.541 169.65 748.116 169.033C748.253 168.889 748.391 168.697 748.569 168.641C749.103 168.464 749.095 168.08 749.103 167.632C749.119 165.109 749.111 162.586 749.216 160.063C749.265 158.87 749.499 157.685 749.702 156.499C749.758 156.163 749.694 156.003 749.427 155.811C746.173 153.504 743.462 150.653 741.229 147.378C739.432 144.743 738.558 141.747 738.186 138.608C737.911 136.301 737.903 133.995 738.421 131.721C738.518 131.28 738.672 130.848 738.858 130.439C739.109 129.887 739.449 129.862 739.813 130.367C740.047 130.687 740.25 131.048 740.42 131.408C741.318 133.314 742.16 135.252 743.106 137.142C744.927 140.77 747.468 143.806 750.948 146.008C751.846 146.561 752.769 147.081 753.715 147.634ZM763.2 177.002C764.81 176.978 765.967 176.601 766.995 175.832C768.047 175.048 768.654 173.998 768.8 172.693C768.832 172.357 768.759 172.165 768.379 172.124C768.071 172.092 767.772 171.996 767.472 171.932C763.483 171.123 759.502 170.322 755.512 169.514C755.051 169.418 754.921 169.522 755.075 169.954C755.31 170.587 755.552 171.244 755.925 171.796C757.187 173.654 758.854 175.096 760.804 176.217C761.638 176.705 762.536 177.026 763.2 177.002ZM780.339 177.002C781.1 177.01 781.82 176.858 782.492 176.521C784.806 175.376 786.684 173.718 788.108 171.588C788.432 171.099 788.626 170.507 788.82 169.946C788.958 169.546 788.82 169.434 788.391 169.522C784.078 170.395 779.765 171.276 775.452 172.14C775.136 172.205 775.015 172.373 775.087 172.637C775.265 173.262 775.371 173.942 775.694 174.479C776.73 176.193 778.389 176.89 780.339 177.002Z" fill="white"/>
<path d="M701.994 261.6H695.594H693.322C692.874 261.6 692.65 261.856 692.65 262.304V283.328C692.65 283.776 692.874 284 693.322 284H693.77H701.994C708.17 284 712.65 279.04 712.65 272.8C712.65 266.592 708.17 261.6 701.994 261.6ZM701.994 281.184H695.594V264.416H701.994C706.634 264.416 709.77 268.096 709.77 272.8C709.77 277.536 706.634 281.184 701.994 281.184ZM721.971 267.616C718.643 267.616 716.147 269.504 715.763 272.416C715.731 272.896 716.019 273.12 716.435 273.12H717.843C718.259 273.12 718.451 272.896 718.579 272.512C718.867 271.008 720.307 270.24 721.971 270.24C723.827 270.24 725.427 271.232 725.427 273.76V276.032C724.403 274.88 722.707 274.176 720.691 274.176C717.779 274.176 715.059 275.872 715.059 279.296C715.059 282.72 717.779 284.416 720.691 284.416C722.707 284.416 724.403 283.744 725.427 282.368V283.328C725.427 283.776 725.683 284 726.099 284H727.507C727.955 284 728.179 283.776 728.179 283.328V273.696C728.179 269.824 725.523 267.616 721.971 267.616ZM721.491 282.08C718.995 282.08 717.843 280.896 717.843 279.296C717.843 277.696 718.995 276.512 721.491 276.512C723.795 276.512 725.427 277.6 725.427 279.296C725.427 280.896 723.795 282.08 721.491 282.08ZM739.41 267.616C734.418 267.616 731.122 271.296 731.122 276C731.122 280.832 734.45 284.416 739.442 284.416C742.706 284.416 745.33 282.784 746.45 280.256C746.642 279.84 746.385 279.552 745.874 279.552H744.338C743.954 279.552 743.73 279.712 743.506 280C742.77 281.12 741.33 281.92 739.474 281.92C736.658 281.92 734.482 280.224 734.002 277.28H744.434H746.514C746.93 277.28 747.218 277.088 747.25 276.64C747.25 276.448 747.25 276.256 747.25 276.064C747.25 271.552 744.242 267.616 739.41 267.616ZM734.002 274.848C734.418 272.064 736.434 270.208 739.41 270.208C741.81 270.208 744.018 271.712 744.434 274.848H734.002ZM766.011 267.616C764.219 267.616 762.587 268.256 761.403 270.112C760.539 268.48 758.971 267.616 757.243 267.616C755.707 267.616 754.203 268.192 753.115 269.76V268.704C753.115 268.256 752.859 268 752.443 268H751.003C750.555 268 750.331 268.256 750.331 268.704V283.328C750.331 283.776 750.555 284 751.003 284H752.443C752.859 284 753.115 283.776 753.115 283.328V274.272C753.115 271.136 755.067 270.24 756.507 270.24C758.011 270.24 759.291 271.104 759.291 273.344V283.328C759.291 283.776 759.547 284 759.963 284H761.403C761.851 284 762.075 283.776 762.075 283.328V274.272C762.075 271.136 764.027 270.24 765.467 270.24C766.971 270.24 768.251 271.104 768.251 273.344V283.328C768.251 283.776 768.507 284 768.955 284H770.363C770.811 284 771.035 283.776 771.035 283.328V273.216C771.035 269.536 768.827 267.616 766.011 267.616ZM782.413 284.416C787.085 284.416 790.829 280.768 790.829 276C790.829 271.264 787.085 267.616 782.413 267.616C777.709 267.616 773.965 271.264 773.965 276C773.965 280.768 777.709 284.416 782.413 284.416ZM782.413 281.696C779.213 281.696 776.749 279.232 776.749 276C776.749 272.768 779.213 270.304 782.413 270.304C785.581 270.304 788.045 272.768 788.045 276C788.045 279.232 785.581 281.696 782.413 281.696ZM801.663 267.616C799.711 267.616 798.079 268.256 796.927 269.984V268.704C796.927 268.256 796.671 268 796.255 268H794.815C794.367 268 794.143 268.256 794.143 268.704V283.328C794.143 283.776 794.367 284 794.815 284H796.255C796.671 284 796.927 283.776 796.927 283.328V274.912C796.927 271.456 798.911 270.24 800.927 270.24C802.815 270.24 804.223 271.424 804.223 273.728V283.328C804.223 283.776 804.479 284 804.927 284H806.335C806.783 284 807.007 283.776 807.007 283.328V273.632C807.007 269.856 804.639 267.616 801.663 267.616ZM817.837 284.416C821.741 284.416 825.197 282.112 825.197 278.208C825.197 273.856 821.229 272.64 817.901 271.392C815.405 270.432 813.421 269.536 813.421 267.296C813.421 265.28 815.117 264.096 817.389 264.096C819.629 264.096 821.293 265.152 821.581 267.232C821.613 267.648 821.837 267.872 822.253 267.872H823.885C824.333 267.872 824.557 267.648 824.525 267.168C824.205 263.264 820.973 261.216 817.389 261.216C813.805 261.216 810.445 263.392 810.445 267.296C810.445 271.776 814.253 272.96 817.581 274.208C820.077 275.104 822.253 276.032 822.253 278.208C822.253 280.224 820.429 281.536 817.837 281.536C815.117 281.536 813.197 280.32 812.877 278.048C812.845 277.6 812.621 277.376 812.205 277.376H810.573C810.125 277.376 809.901 277.632 809.933 278.08C810.253 282.24 813.773 284.416 817.837 284.416ZM835.816 267.616C830.824 267.616 827.528 271.296 827.528 276C827.528 280.832 830.856 284.416 835.848 284.416C839.112 284.416 841.736 282.784 842.856 280.256C843.048 279.84 842.792 279.552 842.28 279.552H840.744C840.36 279.552 840.136 279.712 839.912 280C839.176 281.12 837.736 281.92 835.88 281.92C833.064 281.92 830.888 280.224 830.408 277.28H840.84H842.92C843.336 277.28 843.624 277.088 843.656 276.64C843.656 276.448 843.656 276.256 843.656 276.064C843.656 271.552 840.648 267.616 835.816 267.616ZM830.408 274.848C830.824 272.064 832.84 270.208 835.816 270.208C838.216 270.208 840.424 271.712 840.84 274.848H830.408ZM853.461 268H850.997V263.584C850.997 263.136 850.773 262.88 850.325 262.88H848.885C848.469 262.88 848.213 263.136 848.213 263.584V268H845.749C845.301 268 845.045 268.256 845.045 268.704V270.016C845.045 270.464 845.301 270.688 845.749 270.688H848.213V283.328C848.213 283.776 848.469 284 848.885 284H850.325C850.773 284 850.997 283.776 850.997 283.328V270.688H853.461C853.909 270.688 854.133 270.464 854.133 270.016V268.704C854.133 268.256 853.909 268 853.461 268Z" fill="black"/>
<path d="M341.481 284.168L334.473 276.072C337.193 275.112 339.145 272.552 339.145 269.576C339.145 265.736 336.041 262.6 332.201 262.6H326.985H324.713C324.265 262.6 324.041 262.856 324.041 263.304V284.328C324.041 284.776 324.265 285 324.713 285H326.313C326.761 285 326.985 284.776 326.985 284.328V276.456H331.241L338.249 284.616C338.473 284.904 338.761 285 339.113 285H341.097C341.673 285 341.833 284.616 341.481 284.168ZM326.985 265.384H332.201C334.377 265.384 336.201 267.24 336.201 269.576C336.201 271.88 334.377 273.736 332.201 273.736H326.985V265.384ZM350.429 285.416C355.101 285.416 358.845 281.768 358.845 277C358.845 272.264 355.101 268.616 350.429 268.616C345.725 268.616 341.981 272.264 341.981 277C341.981 281.768 345.725 285.416 350.429 285.416ZM350.429 282.696C347.229 282.696 344.765 280.232 344.765 277C344.765 273.768 347.229 271.304 350.429 271.304C353.597 271.304 356.061 273.768 356.061 277C356.061 280.232 353.597 282.696 350.429 282.696ZM362.831 285H364.271C364.687 285 364.943 284.776 364.943 284.328V262.664C364.943 262.216 364.687 261.96 364.271 261.96H362.831C362.383 261.96 362.159 262.216 362.159 262.664V284.328C362.159 284.776 362.383 285 362.831 285ZM376.55 268.616C371.558 268.616 368.262 272.296 368.262 277C368.262 281.832 371.59 285.416 376.582 285.416C379.846 285.416 382.47 283.784 383.59 281.256C383.782 280.84 383.526 280.552 383.014 280.552H381.478C381.094 280.552 380.87 280.712 380.646 281C379.91 282.12 378.47 282.92 376.614 282.92C373.798 282.92 371.622 281.224 371.142 278.28H381.574H383.654C384.07 278.28 384.358 278.088 384.39 277.64C384.39 277.448 384.39 277.256 384.39 277.064C384.39 272.552 381.382 268.616 376.55 268.616ZM371.142 275.848C371.558 273.064 373.574 271.208 376.55 271.208C378.95 271.208 381.158 272.712 381.574 275.848H371.142Z" fill="black"/>
<path d="M696.064 168.123C696.648 167.535 696.645 166.586 696.057 166.002L686.48 156.487C685.892 155.903 684.943 155.906 684.359 156.494C683.775 157.082 683.778 158.032 684.366 158.615L692.879 167.073L684.422 175.586C683.838 176.174 683.841 177.123 684.429 177.707C685.016 178.291 685.966 178.288 686.55 177.7L696.064 168.123ZM411.005 169.5L695.005 168.566L694.995 165.566L410.995 166.5L411.005 169.5Z" fill="#1A1A1A"/>
<rect x="507.5" y="114.5" width="83" height="105" rx="22.5" fill="#326CE5" stroke="#326CE5" stroke-width="5"/>
<path d="M533.714 189.251C533.714 184.805 535.555 180.542 538.832 177.399C542.109 174.255 546.554 172.489 551.189 172.489C555.823 172.489 560.268 174.255 563.545 177.399C566.822 180.542 568.664 184.805 568.664 189.251H533.714ZM551.189 170.394C543.947 170.394 538.082 164.768 538.082 157.822C538.082 150.877 543.947 145.251 551.189 145.251C558.43 145.251 564.295 150.877 564.295 157.822C564.295 164.768 558.43 170.394 551.189 170.394ZM567.272 175.073C570.613 175.896 573.599 177.71 575.803 180.256C578.007 182.801 579.318 185.949 579.548 189.251H573.032C573.032 183.782 570.848 178.804 567.272 175.073ZM562.853 170.304C564.684 168.733 566.147 166.81 567.149 164.659C568.15 162.508 568.666 160.178 568.664 157.822C568.668 154.959 567.905 152.143 566.446 149.645C568.92 150.122 571.146 151.405 572.745 153.278C574.344 155.151 575.217 157.497 575.217 159.918C575.217 161.41 574.885 162.886 574.243 164.246C573.6 165.605 572.662 166.818 571.491 167.801C570.321 168.785 568.944 169.517 567.454 169.948C565.965 170.38 564.396 170.501 562.853 170.304Z" fill="white"/>
<path d="M527.749 169.035H533.4V172.602H527.749V177.954H523.982V172.602H518.331V169.035H523.982V163.683H527.749V169.035Z" fill="white"/>
<path d="M533.714 189.251C533.714 184.805 535.555 180.542 538.832 177.399C542.109 174.255 546.554 172.489 551.189 172.489C555.823 172.489 560.268 174.255 563.545 177.399C566.822 180.542 568.664 184.805 568.664 189.251H533.714ZM551.189 170.394C543.947 170.394 538.082 164.768 538.082 157.822C538.082 150.877 543.947 145.251 551.189 145.251C558.43 145.251 564.295 150.877 564.295 157.822C564.295 164.768 558.43 170.394 551.189 170.394ZM567.272 175.073C570.613 175.896 573.599 177.71 575.803 180.256C578.007 182.801 579.318 185.949 579.548 189.251H573.032C573.032 183.782 570.848 178.804 567.272 175.073ZM562.853 170.304C564.684 168.733 566.147 166.81 567.149 164.659C568.15 162.508 568.666 160.178 568.664 157.822C568.668 154.959 567.905 152.143 566.446 149.645C568.92 150.122 571.146 151.405 572.745 153.278C574.344 155.151 575.217 157.497 575.217 159.918C575.217 161.41 574.885 162.886 574.243 164.246C573.6 165.605 572.662 166.818 571.491 167.801C570.321 168.785 568.944 169.517 567.454 169.948C565.965 170.38 564.396 170.501 562.853 170.304Z" stroke="black"/>
<path d="M527.749 169.035H533.4V172.602H527.749V177.954H523.982V172.602H518.331V169.035H523.982V163.683H527.749V169.035Z" stroke="black"/>
<path d="M541.481 247.168L534.473 239.072C537.193 238.112 539.145 235.552 539.145 232.576C539.145 228.736 536.041 225.6 532.201 225.6H526.985H524.713C524.265 225.6 524.041 225.856 524.041 226.304V247.328C524.041 247.776 524.265 248 524.713 248H526.313C526.761 248 526.985 247.776 526.985 247.328V239.456H531.241L538.249 247.616C538.473 247.904 538.761 248 539.113 248H541.097C541.673 248 541.833 247.616 541.481 247.168ZM526.985 228.384H532.201C534.377 228.384 536.201 230.24 536.201 232.576C536.201 234.88 534.377 236.736 532.201 236.736H526.985V228.384ZM550.429 248.416C555.101 248.416 558.845 244.768 558.845 240C558.845 235.264 555.101 231.616 550.429 231.616C545.725 231.616 541.981 235.264 541.981 240C541.981 244.768 545.725 248.416 550.429 248.416ZM550.429 245.696C547.229 245.696 544.765 243.232 544.765 240C544.765 236.768 547.229 234.304 550.429 234.304C553.597 234.304 556.061 236.768 556.061 240C556.061 243.232 553.597 245.696 550.429 245.696ZM562.831 248H564.271C564.687 248 564.943 247.776 564.943 247.328V225.664C564.943 225.216 564.687 224.96 564.271 224.96H562.831C562.383 224.96 562.159 225.216 562.159 225.664V247.328C562.159 247.776 562.383 248 562.831 248ZM576.55 231.616C571.558 231.616 568.262 235.296 568.262 240C568.262 244.832 571.59 248.416 576.582 248.416C579.846 248.416 582.47 246.784 583.59 244.256C583.782 243.84 583.526 243.552 583.014 243.552H581.478C581.094 243.552 580.87 243.712 580.646 244C579.91 245.12 578.47 245.92 576.614 245.92C573.798 245.92 571.622 244.224 571.142 241.28H581.574H583.654C584.07 241.28 584.358 241.088 584.39 240.64C584.39 240.448 584.39 240.256 584.39 240.064C584.39 235.552 581.382 231.616 576.55 231.616ZM571.142 238.848C571.558 236.064 573.574 234.208 576.55 234.208C578.95 234.208 581.158 235.712 581.574 238.848H571.142ZM515.252 264.016C515.732 263.216 516.02 262.256 516.02 261.296C516.02 258.128 513.588 255.632 509.972 255.632H503.86H501.588C501.14 255.632 500.916 255.856 500.916 256.304V277.328C500.916 277.776 501.14 278.032 501.588 278.032H502.196H512.308C516.372 278.032 519.38 274.768 519.38 270.736C519.38 267.728 517.748 265.168 515.252 264.016ZM509.972 258.384C511.924 258.384 513.076 259.696 513.076 261.36C513.076 262.128 512.788 262.832 512.308 263.376H503.86V258.384H509.972ZM511.892 275.216H503.86V266.064H511.924C514.74 266.064 516.404 268.112 516.404 270.64C516.404 273.168 514.708 275.216 511.892 275.216ZM523.206 259.12H524.646C525.062 259.12 525.318 258.896 525.318 258.448V256.304C525.318 255.856 525.062 255.6 524.646 255.6H523.206C522.758 255.6 522.534 255.856 522.534 256.304V258.448C522.534 258.896 522.758 259.12 523.206 259.12ZM523.206 278H524.646C525.062 278 525.318 277.776 525.318 277.328V262.704C525.318 262.256 525.062 262 524.646 262H523.206C522.758 262 522.534 262.256 522.534 262.704V277.328C522.534 277.776 522.758 278 523.206 278ZM537.085 261.616C535.133 261.616 533.501 262.256 532.349 263.984V262.704C532.349 262.256 532.093 262 531.677 262H530.237C529.789 262 529.565 262.256 529.565 262.704V277.328C529.565 277.776 529.789 278 530.237 278H531.677C532.093 278 532.349 277.776 532.349 277.328V268.912C532.349 265.456 534.333 264.24 536.349 264.24C538.237 264.24 539.645 265.424 539.645 267.728V277.328C539.645 277.776 539.901 278 540.349 278H541.757C542.205 278 542.429 277.776 542.429 277.328V267.632C542.429 263.856 540.061 261.616 537.085 261.616ZM561.643 255.6H560.203C559.787 255.6 559.531 255.856 559.531 256.304V264.72C558.251 262.8 556.203 261.616 553.483 261.616C549.067 261.616 545.387 265.264 545.387 270C545.387 274.768 549.067 278.416 553.483 278.416C556.203 278.416 558.251 277.232 559.531 275.312V277.328C559.531 277.776 559.787 278 560.203 278H561.643C562.091 278 562.315 277.776 562.315 277.328V256.304C562.315 255.856 562.091 255.6 561.643 255.6ZM553.867 275.728C550.635 275.728 548.171 273.264 548.171 270C548.171 266.736 550.635 264.272 553.867 264.272C557.067 264.272 559.531 266.736 559.531 270C559.531 273.264 557.067 275.728 553.867 275.728ZM567.237 259.12H568.677C569.093 259.12 569.349 258.896 569.349 258.448V256.304C569.349 255.856 569.093 255.6 568.677 255.6H567.237C566.789 255.6 566.565 255.856 566.565 256.304V258.448C566.565 258.896 566.789 259.12 567.237 259.12ZM567.237 278H568.677C569.093 278 569.349 277.776 569.349 277.328V262.704C569.349 262.256 569.093 262 568.677 262H567.237C566.789 262 566.565 262.256 566.565 262.704V277.328C566.565 277.776 566.789 278 567.237 278ZM581.116 261.616C579.164 261.616 577.532 262.256 576.38 263.984V262.704C576.38 262.256 576.124 262 575.708 262H574.268C573.82 262 573.596 262.256 573.596 262.704V277.328C573.596 277.776 573.82 278 574.268 278H575.708C576.124 278 576.38 277.776 576.38 277.328V268.912C576.38 265.456 578.364 264.24 580.38 264.24C582.268 264.24 583.676 265.424 583.676 267.728V277.328C583.676 277.776 583.932 278 584.38 278H585.788C586.236 278 586.46 277.776 586.46 277.328V267.632C586.46 263.856 584.092 261.616 581.116 261.616ZM605.674 262H604.266C603.85 262 603.594 262.256 603.594 262.704V264.752C602.314 262.832 600.234 261.616 597.514 261.616C593.098 261.616 589.418 265.264 589.418 269.936C589.418 274.608 593.098 278.256 597.514 278.256C600.234 278.256 602.314 277.04 603.594 275.12V277.328C603.594 280.336 601.706 282.224 598.282 282.224C595.498 282.224 593.77 280.72 593.386 279.312C593.258 278.896 593.066 278.704 592.65 278.704H591.21C590.794 278.704 590.506 278.928 590.538 279.408C590.986 282.64 594.538 284.816 598.282 284.816C602.474 284.816 606.346 282.32 606.346 277.328V262.704C606.346 262.256 606.122 262 605.674 262ZM597.898 275.6C594.666 275.6 592.202 273.136 592.202 269.936C592.202 266.704 594.666 264.24 597.898 264.24C601.13 264.24 603.594 266.704 603.594 269.936C603.594 273.136 601.13 275.6 597.898 275.6Z" fill="black"/>
</svg>
