<svg width="209" height="209" viewBox="0 0 209 209" fill="none" xmlns="http://www.w3.org/2000/svg">
<g filter="url(#filter0_dddd_16398_39496)">
<path d="M105.857 196.703C105.076 197.484 103.81 197.484 103.029 196.703L12.3007 105.975C11.5196 105.194 11.5196 103.927 12.3007 103.146L103.029 12.4179C103.81 11.6368 105.076 11.6368 105.857 12.4179L196.586 103.146C197.367 103.927 197.367 105.194 196.586 105.975L105.857 196.703Z" fill="url(#paint0_linear_16398_39496)" shape-rendering="crispEdges"/>
<path d="M100.908 198.824L103.018 196.714L100.908 198.824C102.86 200.777 106.026 200.777 107.979 198.824L105.863 196.708L107.979 198.824L198.707 108.096L196.602 105.991L198.707 108.096C200.66 106.143 200.66 102.978 198.707 101.025L196.591 103.141L198.707 101.025L107.979 10.2965C106.026 8.34392 102.86 8.34392 100.908 10.2965L10.1794 101.025C8.22673 102.978 8.22673 106.143 10.1794 108.096L100.908 198.824Z" stroke="#F6F8F8" stroke-width="6" shape-rendering="crispEdges"/>
</g>
<g filter="url(#filter1_di_16398_39496)">
<path d="M105.857 185.859C105.076 186.64 103.81 186.64 103.029 185.859L23.1478 105.978C22.3668 105.197 22.3668 103.931 23.1478 103.15L103.029 23.2684C103.81 22.4874 105.076 22.4874 105.857 23.2684L185.739 103.15C186.52 103.931 186.52 105.197 185.739 105.978L105.857 185.859Z" fill="#252E31"/>
</g>
<path d="M104.079 23.4142C104.86 22.6332 106.126 22.6332 106.907 23.4142L186.572 103.079C187.353 103.86 187.353 105.126 186.572 105.907L106.907 185.572C106.126 186.353 104.86 186.353 104.079 185.572L24.4142 105.907C23.6332 105.126 23.6332 103.86 24.4142 103.079L104.079 23.4142Z" fill="url(#paint1_linear_16398_39496)"/>
<g clip-path="url(#clip0_16398_39496)" filter="url(#filter2_d_16398_39496)">
<path d="M132.5 105.919V133.336H77.6667V78.5026H97.3284C97.5242 75.7218 98.19 73.0976 99.2084 70.6693H77.6667C73.3584 70.6693 69.8334 74.1943 69.8334 78.5026V133.336C69.8334 137.644 73.3584 141.169 77.6667 141.169H132.5C136.808 141.169 140.333 137.644 140.333 133.336V113.753L132.5 105.919ZM126.625 125.503H83.5417L94.3125 111.677L101.989 120.92L112.76 107.055L126.625 125.503ZM137.592 89.8218C139.315 87.0801 140.333 83.9076 140.333 80.4609C140.333 70.7084 132.461 62.8359 122.708 62.8359C112.956 62.8359 105.083 70.7084 105.083 80.4609C105.083 90.2134 112.956 98.0859 122.669 98.0859C126.116 98.0859 129.328 97.0676 132.03 95.3443L144.25 107.564L149.812 102.003L137.592 89.8218ZM122.708 90.2526C117.303 90.2526 112.917 85.8659 112.917 80.4609C112.917 75.0559 117.303 70.6693 122.708 70.6693C128.113 70.6693 132.5 75.0559 132.5 80.4609C132.5 85.8659 128.113 90.2526 122.708 90.2526Z" fill="#FBFBFB"/>
</g>
<g clip-path="url(#clip1_16398_39496)">
<path d="M99.3382 88.0037C99.23 87.6627 98.9687 87.3854 98.6424 87.2157L92.0168 84.1061C91.8421 84.0212 91.6473 84 91.4726 84C91.2979 84 91.103 84 90.9298 84.0424L84.3027 87.1733C83.9765 87.3218 83.7384 87.5991 83.6502 87.9613L82.0221 94.967C81.9571 95.3292 82.0437 95.6914 82.2617 95.9899L86.8463 101.547C87.1076 101.803 87.4771 101.973 87.8451 101.994H95.1449C95.5361 102.036 95.9056 101.867 96.1437 101.547L100.728 95.9899C100.946 95.6914 101.033 95.3292 100.99 94.967L99.3382 88.0037Z" fill="#326DE6"/>
<path d="M98.3266 94.5239C98.3049 94.5239 98.2833 94.5239 98.2833 94.5027C98.2833 94.4815 98.24 94.4815 98.1967 94.4815C98.1101 94.4603 98.0235 94.4603 97.9354 94.4603C97.8921 94.4603 97.8488 94.4603 97.8055 94.4391H97.7839C97.5442 94.4179 97.2844 94.3754 97.0448 94.3118C96.9798 94.2906 96.9149 94.2269 96.8932 94.1633L96.7201 94.1208C96.8066 93.5026 96.7634 92.8646 96.6335 92.2463C96.4819 91.628 96.2206 91.0325 95.8727 90.5005L96.0026 90.3732V90.352C96.0026 90.2884 96.0243 90.2035 96.0676 90.1611C96.2624 89.9914 96.4587 89.8626 96.6752 89.7353C96.7185 89.714 96.7618 89.6928 96.8051 89.6716C96.8917 89.6292 96.9566 89.5868 97.0448 89.5443C97.0664 89.5231 97.0881 89.5231 97.1097 89.5019C97.1314 89.4807 97.1097 89.4807 97.1097 89.4595C97.3045 89.3109 97.3494 89.0548 97.1963 88.8639C97.1314 88.779 97.0015 88.7154 96.8917 88.7154C96.7835 88.7154 96.6737 88.7578 96.5871 88.8215L96.5654 88.8427C96.5438 88.8639 96.5221 88.8851 96.5005 88.8851C96.4356 88.9488 96.3706 89.0124 96.3273 89.0761C96.3057 89.1185 96.2624 89.1397 96.2407 89.1609C96.0892 89.3306 95.8928 89.5019 95.698 89.6292C95.6547 89.6504 95.6114 89.6716 95.5681 89.6716C95.5465 89.6716 95.5032 89.6716 95.4815 89.6504H95.4599L95.2867 89.7565C95.1135 89.5868 94.9172 89.4155 94.744 89.2458C93.9399 88.6275 92.9411 88.2456 91.919 88.138L91.8974 87.9683V87.9895C91.8324 87.9471 91.8108 87.8834 91.7891 87.8198C91.7891 87.5849 91.7891 87.3515 91.8324 87.0954V87.0742C91.8324 87.0318 91.8541 86.9893 91.8541 86.9469C91.8757 86.8621 91.8757 86.7772 91.8974 86.6908V86.5605C91.919 86.3468 91.7459 86.1347 91.5278 86.1134C91.398 86.0922 91.2665 86.1559 91.1583 86.2619C91.0717 86.3468 91.0284 86.4529 91.0284 86.5605V86.6666C91.0284 86.7514 91.0501 86.8363 91.0717 86.9227C91.0933 86.9651 91.0933 87.0075 91.0933 87.05V87.0712C91.1366 87.3061 91.1366 87.5394 91.1366 87.7955C91.115 87.8592 91.0933 87.9228 91.0284 87.9653V88.0077L91.0068 88.1774C90.7671 88.1986 90.529 88.2411 90.2677 88.2835C89.2472 88.4972 88.3117 89.0291 87.5958 89.7747L87.4659 89.6898H87.4443C87.4226 89.6898 87.401 89.711 87.3577 89.711C87.3144 89.711 87.2711 89.6898 87.2278 89.6686C87.033 89.5201 86.8366 89.3488 86.6851 89.1791C86.6634 89.1367 86.6201 89.1155 86.5985 89.0942C86.5335 89.0306 86.4902 88.967 86.4253 88.9033C86.4037 88.8821 86.382 88.8821 86.3604 88.8609C86.3387 88.8397 86.3387 88.8397 86.3387 88.8397C86.2521 88.776 86.1439 88.7336 86.0341 88.7336C85.9042 88.7336 85.7944 88.776 85.7295 88.8821C85.5996 89.073 85.6429 89.3291 85.8161 89.4776C85.8377 89.4776 85.8377 89.4989 85.8377 89.4989C85.8377 89.4989 85.881 89.5413 85.9027 89.5413C85.9676 89.5837 86.0542 89.6262 86.1423 89.6686C86.1856 89.6898 86.2289 89.711 86.2722 89.7322C86.4902 89.8595 86.7067 89.9883 86.8799 90.1581C86.9232 90.2005 86.9665 90.2854 86.9448 90.349V90.3278L87.0747 90.4551C87.0531 90.4975 87.0314 90.5187 87.0098 90.5612C86.3356 91.6053 86.0542 92.8403 86.249 94.0542L86.0759 94.0966C86.0759 94.1178 86.0542 94.1178 86.0542 94.1178C86.0326 94.1815 85.9676 94.2239 85.9027 94.2663C85.663 94.33 85.4249 94.3724 85.1636 94.3936C85.1203 94.3936 85.077 94.3936 85.0337 94.4148C84.9471 94.4148 84.8605 94.4361 84.7724 94.4361C84.7507 94.4361 84.7291 94.4573 84.6858 94.4573C84.6641 94.4573 84.6641 94.4573 84.6425 94.4785C84.4028 94.5209 84.2513 94.7346 84.2946 94.968C84.3379 95.1589 84.5343 95.2877 84.7291 95.2665C84.7724 95.2665 84.794 95.2665 84.8373 95.2453C84.859 95.2453 84.859 95.2453 84.859 95.2241C84.859 95.2028 84.9239 95.2241 84.9456 95.2241C85.0321 95.2028 85.1187 95.1604 85.1852 95.1392C85.2285 95.118 85.2718 95.0968 85.3151 95.0968H85.3368C85.5764 95.0119 85.7929 94.9483 86.0542 94.9058H86.0759C86.1408 94.9058 86.2057 94.927 86.249 94.9695C86.2707 94.9695 86.2707 94.9907 86.2707 94.9907L86.4655 94.9695C86.7918 95.9484 87.3994 96.8228 88.2467 97.4608C88.4416 97.6093 88.6163 97.7381 88.8328 97.8442L88.7245 97.9927C88.7245 98.0139 88.7462 98.0139 88.7462 98.0139C88.7895 98.0776 88.7895 98.1624 88.7678 98.2276C88.6812 98.4413 88.5498 98.6534 88.4199 98.8459V98.8671C88.3983 98.9095 88.3766 98.9307 88.3333 98.9732C88.29 99.0156 88.2467 99.1005 88.1818 99.1869C88.1602 99.2081 88.1602 99.2293 88.1385 99.2505C88.1385 99.2505 88.1385 99.2717 88.1169 99.2717C88.0086 99.4854 88.0952 99.74 88.29 99.8461C88.3333 99.8673 88.3983 99.8885 88.4416 99.8885C88.6148 99.8885 88.7678 99.7824 88.8544 99.6324C88.8544 99.6324 88.8544 99.6112 88.8761 99.6112C88.8761 99.59 88.8977 99.5687 88.9194 99.5475C88.941 99.4627 88.9843 99.399 89.0059 99.3126L89.0492 99.1853C89.1142 98.9504 89.2224 98.7383 89.3322 98.5246C89.3755 98.461 89.4404 98.4185 89.5054 98.3973C89.527 98.3973 89.527 98.3973 89.527 98.3761L89.6136 98.2064C90.2213 98.4413 90.8521 98.5474 91.5031 98.5474C91.8943 98.5474 92.2855 98.5049 92.6767 98.3988C92.9163 98.3564 93.1545 98.2715 93.3725 98.2079L93.4591 98.3564C93.4807 98.3564 93.4807 98.3564 93.4807 98.3776C93.5457 98.3988 93.6106 98.4413 93.6539 98.5049C93.7621 98.7186 93.8719 98.9308 93.9369 99.1656V99.1869L93.9801 99.3141C94.0018 99.399 94.0234 99.4839 94.0667 99.549C94.0884 99.5703 94.0884 99.5915 94.11 99.6127C94.11 99.6127 94.11 99.6339 94.1317 99.6339C94.2183 99.7824 94.3713 99.89 94.5445 99.89C94.6095 99.89 94.6528 99.8688 94.7177 99.8476C94.8043 99.8051 94.8909 99.7203 94.9125 99.6127C94.9342 99.5066 94.9342 99.399 94.8909 99.2929C94.8909 99.2717 94.8692 99.2717 94.8692 99.2717C94.8692 99.2505 94.8476 99.2293 94.8259 99.2081C94.7826 99.1232 94.7393 99.0596 94.6744 98.9944C94.6528 98.952 94.6311 98.9307 94.5878 98.8883V98.8459C94.4363 98.6549 94.3265 98.4413 94.2399 98.2276C94.2183 98.164 94.2183 98.0791 94.2616 98.0139C94.2616 97.9927 94.2832 97.9927 94.2832 97.9927L94.2183 97.823C95.3269 97.1623 96.1742 96.1409 96.5654 94.927L96.7386 94.9483C96.7603 94.9483 96.7603 94.927 96.7603 94.927C96.8036 94.8846 96.8685 94.8634 96.9334 94.8634H96.9551C97.1947 94.9058 97.4329 94.9695 97.6509 95.0543H97.6725C97.7158 95.0756 97.7591 95.0968 97.8024 95.0968C97.889 95.1392 97.9539 95.1816 98.0421 95.2028C98.0637 95.2028 98.0854 95.2241 98.1287 95.2241C98.1503 95.2241 98.1503 95.2241 98.172 95.2453C98.2153 95.2665 98.2369 95.2665 98.2802 95.2665C98.475 95.2665 98.6497 95.1392 98.7147 94.968C98.6961 94.7376 98.5214 94.5664 98.3266 94.5239ZM92.0474 93.8632L91.4613 94.1405L90.8753 93.8632L90.7238 93.2449L91.1366 92.7343H91.7891L92.202 93.2449L92.0474 93.8632ZM95.5882 92.4797C95.6965 92.9267 95.7181 93.3738 95.6748 93.8208L93.6106 93.2465C93.4158 93.204 93.306 93.0116 93.3493 92.8206C93.3709 92.757 93.3926 92.7146 93.4359 92.6721L95.0656 91.2234C95.3053 91.6068 95.48 92.0326 95.5882 92.4797ZM94.4146 90.4354L92.6334 91.6704C92.4819 91.7553 92.2638 91.7341 92.1556 91.5856C92.1123 91.5431 92.0907 91.5007 92.0907 91.4371L91.9608 89.2867C92.9163 89.3928 93.7637 89.7974 94.4146 90.4354ZM90.4826 89.3488L90.9171 89.264L90.8088 91.3931C90.8088 91.5841 90.6357 91.7341 90.4393 91.7341C90.3744 91.7341 90.3311 91.7129 90.2661 91.6917L88.4632 90.4354C89.026 89.9035 89.7218 89.5201 90.4826 89.3488ZM87.8324 91.2234L89.4404 92.6282C89.592 92.7555 89.6136 92.9691 89.4837 93.1176C89.4404 93.1813 89.3971 93.2025 89.3106 93.2237L87.203 93.8193C87.1366 92.9267 87.353 92.0114 87.8324 91.2234ZM87.4628 94.8225L89.6136 94.4603C89.7868 94.4603 89.9615 94.5664 89.9832 94.7376C90.0048 94.8013 90.0048 94.8861 89.9615 94.9513L89.1358 96.9107C88.3751 96.4197 87.7659 95.6741 87.4628 94.8225ZM92.3953 97.4623C92.0907 97.526 91.7876 97.5684 91.4613 97.5684C91.0052 97.5684 90.5274 97.4835 90.0929 97.3547L91.1583 95.459C91.2665 95.3317 91.4412 95.2892 91.5928 95.3741C91.6577 95.4165 91.701 95.459 91.766 95.5226L92.8097 97.3759C92.6767 97.3987 92.5468 97.4199 92.3953 97.4623ZM95.0455 95.6105C94.7192 96.1212 94.2631 96.5682 93.742 96.888L92.8947 94.8861C92.8514 94.7164 92.938 94.5452 93.0895 94.4815C93.1545 94.4603 93.2194 94.4391 93.2843 94.4391L95.4568 94.8013C95.3501 95.0983 95.2187 95.3756 95.0455 95.6105Z" fill="white"/>
</g>
<defs>
<filter id="filter0_dddd_16398_39496" x="0.714844" y="0.835938" width="207.457" height="207.453" filterUnits="userSpaceOnUse" color-interpolation-filters="sRGB">
<feFlood flood-opacity="0" result="BackgroundImageFix"/>
<feColorMatrix in="SourceAlpha" type="matrix" values="0 0 0 0 0 0 0 0 0 0 0 0 0 0 0 0 0 0 127 0" result="hardAlpha"/>
<feOffset dy="1"/>
<feGaussianBlur stdDeviation="2"/>
<feComposite in2="hardAlpha" operator="out"/>
<feColorMatrix type="matrix" values="0 0 0 0 0 0 0 0 0 0 0 0 0 0 0 0 0 0 0.25 0"/>
<feBlend mode="normal" in2="BackgroundImageFix" result="effect1_dropShadow_16398_39496"/>
<feColorMatrix in="SourceAlpha" type="matrix" values="0 0 0 0 0 0 0 0 0 0 0 0 0 0 0 0 0 0 127 0" result="hardAlpha"/>
<feOffset dy="-1"/>
<feGaussianBlur stdDeviation="2"/>
<feComposite in2="hardAlpha" operator="out"/>
<feColorMatrix type="matrix" values="0 0 0 0 0 0 0 0 0 0 0 0 0 0 0 0 0 0 0.25 0"/>
<feBlend mode="normal" in2="effect1_dropShadow_16398_39496" result="effect2_dropShadow_16398_39496"/>
<feColorMatrix in="SourceAlpha" type="matrix" values="0 0 0 0 0 0 0 0 0 0 0 0 0 0 0 0 0 0 127 0" result="hardAlpha"/>
<feOffset dx="-1"/>
<feGaussianBlur stdDeviation="2"/>
<feComposite in2="hardAlpha" operator="out"/>
<feColorMatrix type="matrix" values="0 0 0 0 0 0 0 0 0 0 0 0 0 0 0 0 0 0 0.25 0"/>
<feBlend mode="normal" in2="effect2_dropShadow_16398_39496" result="effect3_dropShadow_16398_39496"/>
<feColorMatrix in="SourceAlpha" type="matrix" values="0 0 0 0 0 0 0 0 0 0 0 0 0 0 0 0 0 0 127 0" result="hardAlpha"/>
<feOffset dx="1"/>
<feGaussianBlur stdDeviation="2"/>
<feComposite in2="hardAlpha" operator="out"/>
<feColorMatrix type="matrix" values="0 0 0 0 0 0 0 0 0 0 0 0 0 0 0 0 0 0 0.25 0"/>
<feBlend mode="normal" in2="effect3_dropShadow_16398_39496" result="effect4_dropShadow_16398_39496"/>
<feBlend mode="normal" in="SourceGraphic" in2="effect4_dropShadow_16398_39496" result="shape"/>
</filter>
<filter id="filter1_di_16398_39496" x="18.562" y="16.6797" width="171.762" height="171.766" filterUnits="userSpaceOnUse" color-interpolation-filters="sRGB">
<feFlood flood-opacity="0" result="BackgroundImageFix"/>
<feColorMatrix in="SourceAlpha" type="matrix" values="0 0 0 0 0 0 0 0 0 0 0 0 0 0 0 0 0 0 127 0" result="hardAlpha"/>
<feOffset dy="-2"/>
<feGaussianBlur stdDeviation="2"/>
<feComposite in2="hardAlpha" operator="out"/>
<feColorMatrix type="matrix" values="0 0 0 0 0 0 0 0 0 0 0 0 0 0 0 0 0 0 0.25 0"/>
<feBlend mode="normal" in2="BackgroundImageFix" result="effect1_dropShadow_16398_39496"/>
<feBlend mode="normal" in="SourceGraphic" in2="effect1_dropShadow_16398_39496" result="shape"/>
<feColorMatrix in="SourceAlpha" type="matrix" values="0 0 0 0 0 0 0 0 0 0 0 0 0 0 0 0 0 0 127 0" result="hardAlpha"/>
<feOffset dy="2"/>
<feGaussianBlur stdDeviation="2"/>
<feComposite in2="hardAlpha" operator="arithmetic" k2="-1" k3="1"/>
<feColorMatrix type="matrix" values="0 0 0 0 0 0 0 0 0 0 0 0 0 0 0 0 0 0 0.25 0"/>
<feBlend mode="normal" in2="shape" result="effect2_innerShadow_16398_39496"/>
</filter>
<filter id="filter2_d_16398_39496" x="58" y="55" width="102" height="102" filterUnits="userSpaceOnUse" color-interpolation-filters="sRGB">
<feFlood flood-opacity="0" result="BackgroundImageFix"/>
<feColorMatrix in="SourceAlpha" type="matrix" values="0 0 0 0 0 0 0 0 0 0 0 0 0 0 0 0 0 0 127 0" result="hardAlpha"/>
<feOffset dy="4"/>
<feGaussianBlur stdDeviation="2"/>
<feComposite in2="hardAlpha" operator="out"/>
<feColorMatrix type="matrix" values="0 0 0 0 0 0 0 0 0 0 0 0 0 0 0 0 0 0 0.25 0"/>
<feBlend mode="normal" in2="BackgroundImageFix" result="effect1_dropShadow_16398_39496"/>
<feBlend mode="normal" in="SourceGraphic" in2="effect1_dropShadow_16398_39496" result="shape"/>
</filter>
<linearGradient id="paint0_linear_16398_39496" x1="104.443" y1="198.117" x2="104.443" y2="11.0036" gradientUnits="userSpaceOnUse">
<stop stop-color="#00D3A9" stop-opacity="0.6"/>
<stop offset="1" stop-color="#00B39F"/>
</linearGradient>
<linearGradient id="paint1_linear_16398_39496" x1="164.133" y1="13.5519" x2="54.8046" y2="186.986" gradientUnits="userSpaceOnUse">
<stop stop-color="white" stop-opacity="0.17"/>
<stop offset="0.486111" stop-color="#252E31" stop-opacity="0.16"/>
<stop offset="1" stop-color="#252E31"/>
</linearGradient>
<clipPath id="clip0_16398_39496">
<rect width="94" height="94" fill="white" transform="translate(62 55)"/>
</clipPath>
<clipPath id="clip1_16398_39496">
<rect width="19" height="18" fill="white" transform="translate(82 84)"/>
</clipPath>
</defs>
</svg>
