<?xml version="1.0" encoding="UTF-8"?>
<svg id="Layer_1" xmlns="http://www.w3.org/2000/svg" viewBox="0 0 1800 500">
  <defs>
    <style>
      .cls-1 {
        fill: #3c494f;
      }
    </style>
  </defs>
  <path class="cls-1" d="M933.54,379.5h-52.37v-186.66c0-2.07-.34-4.03-1.01-5.87-.67-1.84-1.58-3.45-2.72-4.83-1.15-1.39-2.49-2.47-4.02-3.28-1.53-.8-3.16-1.2-4.88-1.2h-208.73v-57.15h215.46c7.94,0,15.45,1.84,22.54,5.52,7.08,3.68,13.3,8.69,18.66,15.02,5.26,6.45,9.42,13.93,12.48,22.45,3.06,8.51,4.6,17.55,4.6,27.1v188.9ZM731.89,379.5h-52.37v-184.3h52.37v184.3Z"/>
  <path class="cls-1" d="M1193.82,120.5l-105.44,259h-40.42l-105.44-259h53.48l72.17,179.06,72.17-179.06h53.48Z"/>
  <polygon class="cls-1" points="1241.96 120.54 1138.36 379.46 1195.2 379.46 1267.86 195.97 1320.28 329.92 1236.44 329.92 1217.11 379.46 1397.36 379.46 1293.76 120.54 1241.96 120.54"/>
  <path class="cls-1" d="M1678.46,311.81c0,9.32-1.55,18.08-4.64,26.25-3.09,8.29-7.33,15.49-12.73,21.57-5.4,6.12-11.64,10.94-18.72,14.51-7.19,3.57-14.82,5.35-22.91,5.35h-201.27v-54.56h201.27c3.2,0,5.89-1.27,8.09-3.81,2.2-2.53,3.29-5.64,3.29-9.32v-21.06c0-3.69-1.09-6.79-3.29-9.32-2.2-2.53-4.89-3.79-8.09-3.79h-142.28c-8.07,0-15.67-1.78-22.75-5.35-7.19-3.57-13.48-8.47-18.87-14.68-5.4-6.22-9.63-13.48-12.73-21.75-3.09-8.19-4.64-16.93-4.64-26.25v-21.06c0-9.32,1.55-18.14,4.64-26.42,3.09-8.19,7.33-15.37,12.73-21.59,5.38-6.22,11.68-11.11,18.87-14.68,7.09-3.57,14.68-5.35,22.75-5.35h201.28v54.9h-201.28c-3.19,0-5.89,1.27-8.07,3.81-2.2,2.53-3.3,5.64-3.3,9.32v21.06c0,3.69,1.11,6.79,3.3,9.32,2.18,2.53,4.89,3.79,8.07,3.79h142.28c8.09,0,15.72,1.78,22.91,5.35,7.09,3.57,13.33,8.47,18.72,14.68,5.4,6.22,9.63,13.42,12.73,21.59,3.09,8.29,4.64,17.09,4.64,26.42v21.06Z"/>
  <g>
    <polyline class="cls-1" points="382.95 120.5 310.21 120.5 172.66 235.98 172.66 120.64 121.54 120.64 121.54 379.5 172.66 379.5 172.66 304.81"/>
    <polygon class="cls-1" points="266.72 245.64 385.85 379.5 312.37 379.5 224.56 281.1 266.72 245.64"/>
  </g>
  <polygon class="cls-1" points="499.28 120.54 395.68 379.46 452.53 379.46 525.18 195.97 577.61 329.92 493.77 329.92 474.44 379.46 654.68 379.46 551.08 120.54 499.28 120.54"/>
</svg>