<?xml version="1.0" encoding="UTF-8"?>
<svg id="Layer_1" xmlns="http://www.w3.org/2000/svg" viewBox="0 0 1680 345">
  <defs>
    <style>
      .cls-1 {
        fill: #fff;
      }
    </style>
  </defs>
  <path class="cls-1" d="M873.54,302h-52.37V115.34c0-2.07-.34-4.03-1.01-5.87-.67-1.84-1.58-3.45-2.72-4.83-1.15-1.39-2.49-2.47-4.02-3.28-1.53-.8-3.16-1.2-4.88-1.2h-208.73v-57.15h215.46c7.94,0,15.45,1.84,22.54,5.52,7.08,3.68,13.3,8.69,18.66,15.02,5.26,6.45,9.42,13.93,12.48,22.45,3.06,8.51,4.6,17.55,4.6,27.1v188.9ZM671.89,302h-52.37V117.7h52.37v184.3Z"/>
  <path class="cls-1" d="M1133.82,43l-105.44,259h-40.42l-105.44-259h53.48l72.17,179.06,72.17-179.06h53.48Z"/>
  <polygon class="cls-1" points="1181.96 43.04 1078.36 301.96 1135.2 301.96 1207.86 118.47 1260.28 252.42 1176.44 252.42 1157.11 301.96 1337.36 301.96 1233.76 43.04 1181.96 43.04"/>
  <path class="cls-1" d="M1618.46,234.31c0,9.32-1.55,18.08-4.64,26.25-3.09,8.29-7.33,15.49-12.73,21.57-5.4,6.12-11.64,10.94-18.72,14.51-7.19,3.57-14.82,5.35-22.91,5.35h-201.27v-54.56h201.27c3.2,0,5.89-1.27,8.09-3.81s3.29-5.64,3.29-9.32v-21.06c0-3.69-1.09-6.79-3.29-9.32-2.2-2.53-4.89-3.79-8.09-3.79h-142.28c-8.07,0-15.67-1.78-22.75-5.35-7.19-3.57-13.48-8.47-18.87-14.68-5.4-6.22-9.63-13.48-12.73-21.75-3.09-8.19-4.64-16.93-4.64-26.25v-21.06c0-9.32,1.55-18.14,4.64-26.42,3.09-8.19,7.33-15.37,12.73-21.59,5.38-6.22,11.68-11.11,18.87-14.68,7.09-3.57,14.68-5.35,22.75-5.35h201.28v54.9h-201.28c-3.19,0-5.89,1.27-8.07,3.81-2.2,2.53-3.3,5.64-3.3,9.32v21.06c0,3.69,1.11,6.79,3.3,9.32,2.18,2.53,4.89,3.79,8.07,3.79h142.28c8.09,0,15.72,1.78,22.91,5.35,7.09,3.57,13.33,8.47,18.72,14.68,5.4,6.22,9.63,13.42,12.73,21.59,3.09,8.29,4.64,17.09,4.64,26.42v21.06Z"/>
  <g>
    <polyline class="cls-1" points="322.95 43 250.21 43 112.66 158.48 112.66 43.14 61.54 43.14 61.54 302 112.66 302 112.66 227.31"/>
    <polygon class="cls-1" points="206.72 168.14 325.85 302 252.37 302 164.56 203.6 206.72 168.14"/>
  </g>
  <polygon class="cls-1" points="439.28 43.04 335.68 301.96 392.53 301.96 465.18 118.47 517.61 252.42 433.77 252.42 414.44 301.96 594.68 301.96 491.08 43.04 439.28 43.04"/>
</svg>