<svg id="Layer_1" data-name="Layer 1" xmlns="http://www.w3.org/2000/svg" viewBox="0 0 480 225"><defs><style>.cls-1{fill:#647881;}.cls-2{fill:#00b39f;}.cls-3{fill:#00d3a9;}.cls-4{fill:#9fbfcd;}.cls-5{fill:#477e96;}.cls-6{fill:#fff;}</style></defs><g id="Gauge"><path class="cls-1" d="M102.6,73.31a284,284,0,0,1,31.8-14.4l-2.7-13.3a324.4,324.4,0,0,0-33.5,19Z"/><path class="cls-2" d="M307.3,51.61l27.5-31a314.16,314.16,0,0,0-53.7-6.9l-16,29.2A297.91,297.91,0,0,1,307.3,51.61Z"/><path class="cls-1" d="M96.3,76.61l-4-8.1c-8.3,5.7-16.4,11.8-24.1,18.2l4.2,5C80.2,86.31,88.2,81.31,96.3,76.61Z"/><path class="cls-3" d="M360.5,73.11,401.7,44a295.56,295.56,0,0,0-59.1-21.6l-27.9,31.4A288.23,288.23,0,0,1,360.5,73.11Z"/><path class="cls-4" d="M66.7,95.81l-3.8-4.6a272.51,272.51,0,0,0-20.6,19.6l3,2.4C52.2,107.11,59.3,101.31,66.7,95.81Z"/><path class="cls-3" d="M408.7,47.61l-41.3,29.2a302.21,302.21,0,0,1,50.1,35.7l53.7-20.9A299.43,299.43,0,0,0,408.7,47.61Z"/><path class="cls-4" d="M37.3,115.91a339,339,0,0,0-29,36.5A295.78,295.78,0,0,1,40,118Z"/><path class="cls-5" d="M182.6,25.81l-1.1,19.8a276.24,276.24,0,0,1,31.8-4l6.9-24.2A335.64,335.64,0,0,0,182.6,25.81Z"/><path class="cls-2" d="M220.7,41.21c3.6-.1,7.3-.2,11-.2,8.7,0,17.4.4,25.9,1.2l15.6-28.6a311.54,311.54,0,0,0-45.5,2.7Z"/><path class="cls-5" d="M140.9,56.41A272.38,272.38,0,0,1,174.4,47l1.1-19a300.05,300.05,0,0,0-37.3,14.5Z"/></g><g id="Needle"><path class="cls-6" d="M214.83,172.71a21.17,21.17,0,1,0,19.4,22.8A21.18,21.18,0,0,0,214.83,172.71Zm-2.3,29.8a8.73,8.73,0,1,1,9.4-8A8.8,8.8,0,0,1,212.53,202.51Z"/><path class="cls-6" d="M280,81.11c-2.6,1.8-5,3.7-7.5,5.6l-9.3,14.8L244.53,131l-18.7,29.5-4.7,7.4-2.3,3.7a11.27,11.27,0,0,1-1.2,1.8,5.17,5.17,0,0,0-1.2,1.8c-.7,3-1.3,6-1.9,9.1a2.77,2.77,0,0,0-.1.9,8.59,8.59,0,0,1,6.1,3.9,5.58,5.58,0,0,1,.8-.5c2.6-1.8,5-3.7,7.5-5.6a4.53,4.53,0,0,0,1.1-1.9,18.58,18.58,0,0,1,1.1-1.9l2.3-3.7,4.7-7.4,18.7-29.5,18.7-29.5,9.3-14.8c.7-3,1.3-6.1,1.9-9.2s1-6.2,1.4-9.4C285.23,77.51,282.53,79.21,280,81.11Z"/></g></svg>