<svg width="1366" height="805" viewBox="0 0 1366 805" fill="none" xmlns="http://www.w3.org/2000/svg">
<rect x="523" y="478" width="342" height="256.5" fill="#E75225" fill-opacity="0.1"/>
<rect x="525.5" y="480.5" width="337" height="251.5" stroke="#E75225" stroke-opacity="0.5" stroke-width="5" stroke-dasharray="10 10"/>
<path d="M522.5 477.5H865.5V735H522.5V477.5Z" fill="#E75225" fill-opacity="0.1" stroke="#009639" stroke-width="5"/>
<path fill-rule="evenodd" clip-rule="evenodd" d="M843.129 687.55C821.838 677.356 812.841 651.831 823.034 630.538C827.928 620.313 836.684 612.451 847.374 608.682C858.065 604.912 869.815 605.545 880.039 610.44C901.33 620.634 910.327 646.159 900.134 667.452C889.942 688.745 864.42 697.743 843.129 687.55Z" fill="#E75225"/>
<g clip-path="url(#clip0_9982_31618)">
<path d="M862.373 634.297V647.329L873.324 640.791L862.373 634.297Z" fill="white"/>
<path d="M862.373 650.054V663.151L873.426 656.633L862.373 650.054Z" fill="white"/>
<path d="M860.798 647.241V634.406L849.984 640.803L860.798 647.241Z" fill="white" fill-opacity="0.8"/>
<path d="M839.104 663.102C841.225 666.622 844.093 669.599 847.492 671.81V658.095L839.104 663.102Z" fill="white" fill-opacity="0.8"/>
<path d="M860.798 663.086V650.15L849.957 656.624L860.798 663.086Z" fill="white" fill-opacity="0.8"/>
<path d="M849.072 670.994L860.051 664.52L849.072 657.974V670.994Z" fill="white"/>
<path d="M874.176 671.063V658.062L863.213 664.528L874.176 671.063Z" fill="white" fill-opacity="0.8"/>
<path d="M884.906 661.594C886.78 657.987 887.84 653.989 888.005 649.899L876.592 656.64L884.906 661.594Z" fill="white" fill-opacity="0.8"/>
<path d="M875.754 655.258L886.772 648.76L875.754 642.229V655.258Z" fill="white"/>
<path d="M874.176 639.421V626.498L863.264 632.952L874.176 639.421Z" fill="white" fill-opacity="0.8"/>
<path d="M874.176 655.202V642.161L863.24 648.691L874.176 655.202Z" fill="white" fill-opacity="0.8"/>
<path d="M849.072 642.137V655.274L860.09 648.695L849.072 642.137Z" fill="white"/>
<path d="M860.799 621.438C856.743 621.556 852.769 622.639 849.186 624.603L860.799 631.472V621.438Z" fill="white" fill-opacity="0.8"/>
<path d="M849.072 626.409V639.47L860.098 632.948L849.072 626.409Z" fill="white"/>
<path d="M847.492 625.617C844.094 627.829 841.226 630.807 839.104 634.326L847.492 639.32V625.617Z" fill="white" fill-opacity="0.8"/>
<path d="M874.104 624.671C870.491 622.666 866.474 621.559 862.373 621.438V631.602L874.104 624.671Z" fill="white"/>
<path d="M835.146 649.674C835.283 653.881 836.366 657.998 838.308 661.7L846.807 656.624L835.146 649.674Z" fill="white"/>
<path d="M838.308 635.731C836.372 639.417 835.29 643.516 835.146 647.705L846.819 640.799L838.308 635.731Z" fill="white"/>
<path d="M849.166 672.813C852.753 674.786 856.735 675.875 860.799 675.993V665.951L849.166 672.813Z" fill="white" fill-opacity="0.8"/>
<path d="M884.092 634.37C881.982 630.861 879.132 627.889 875.754 625.674V639.341L884.092 634.37Z" fill="white"/>
<path d="M875.754 671.766C879.15 669.536 882.011 666.54 884.123 663.005L875.754 658.019V671.766Z" fill="white"/>
<path d="M888.041 647.629C887.891 643.48 886.818 639.422 884.906 635.769L876.479 640.788L888.041 647.629Z" fill="white" fill-opacity="0.8"/>
<path d="M862.373 675.993C866.428 675.876 870.401 674.793 873.982 672.829L862.373 665.891V675.993Z" fill="white"/>
<path d="M847.492 655.157V642.274L836.646 648.688L847.492 655.157Z" fill="white" fill-opacity="0.8"/>
</g>
<path d="M740.336 547.487L702.61 531.861C697.097 529.577 690.903 529.577 685.39 531.861L647.664 547.487C642.151 549.771 637.771 554.151 635.487 559.664L619.861 597.39C617.577 602.903 617.577 609.097 619.861 614.61L635.487 652.336C637.771 657.849 642.151 662.229 647.664 664.513L685.39 680.139C690.903 682.423 697.097 682.423 702.61 680.139L740.336 664.513C745.849 662.229 750.229 657.849 752.513 652.336L768.139 614.61C770.423 609.097 770.423 602.903 768.139 597.39L752.513 559.664C750.229 554.151 745.849 549.771 740.336 547.487Z" fill="#E75225" stroke="#E75225" stroke-width="5"/>
<path d="M694.099 556C721.524 556.006 744.034 578.544 744 605.961C743.965 633.795 721.546 656.02 693.525 656C666.13 655.981 643.981 633.419 644 605.554C644.019 578.307 666.577 555.994 694.099 556ZM678.939 573.548C679.567 576.667 678.957 579.577 678.027 582.439C677.383 584.421 676.493 586.329 675.962 588.337C675.086 591.647 674.093 594.976 673.728 598.361C673.204 603.229 675.102 607.516 678.349 611.78L663.422 608.612C663.448 609.087 663.42 609.267 663.472 609.42C664.887 613.609 667.377 617.139 670.167 620.467C670.463 620.819 671.135 621 671.633 621.001C686.517 621.028 701.401 621.027 716.284 621.007C716.746 621.007 717.362 620.919 717.645 620.618C720.835 617.238 723.275 613.388 724.8 608.538L708.997 611.657C710.04 609.598 711.23 607.787 711.914 605.797C714.253 598.991 713.284 592.411 709.925 586.204C707.23 581.224 704.744 576.265 706.089 570.263C703.243 573.096 702.15 576.702 701.456 580.419C700.773 584.08 700.371 587.795 699.842 591.509C699.766 591.397 699.669 591.314 699.654 591.218C699.593 590.828 699.536 590.435 699.515 590.042C699.193 583.958 698.015 578.096 695.526 572.497C694.062 569.202 692.447 565.832 693.957 561.901C692.935 562.444 692.011 562.984 691.35 563.755C689.374 566.055 688.557 568.818 688.347 571.842C688.167 574.426 687.921 577.023 687.446 579.564C686.946 582.234 686.154 584.852 684.374 587.306C683.655 582.064 683.575 576.879 678.939 573.548ZM717.315 625.595H670.633V633.769H717.315V625.595ZM679.888 637.992C679.85 644.799 686.728 649.87 695.229 649.502C702.274 649.197 708.509 643.611 707.973 637.992H679.888Z" fill="white"/>
<g filter="url(#filter0_d_9982_31618)">
<rect x="861" y="414" width="103" height="30" rx="5" fill="#009639"/>
<path d="M871.246 434.196C873.066 434.196 874.62 433.202 874.62 431.326C874.62 429.254 872.772 428.75 871.344 428.232C870.448 427.896 869.776 427.588 869.776 426.86C869.776 426.3 870.238 425.894 871.036 425.894C871.792 425.894 872.268 426.202 872.394 426.86C872.422 427.07 872.534 427.168 872.73 427.168H873.99C874.214 427.168 874.34 427.056 874.326 426.832C874.158 424.9 872.646 424.018 871.036 424.018C869.398 424.018 867.844 424.984 867.844 426.86C867.844 428.946 869.566 429.506 870.98 429.996C871.904 430.332 872.688 430.626 872.688 431.326C872.688 431.9 872.226 432.32 871.246 432.32C870.294 432.32 869.734 431.97 869.622 431.312C869.58 431.088 869.482 430.99 869.272 430.99H868.012C867.802 430.99 867.676 431.102 867.69 431.326C867.844 433.286 869.426 434.196 871.246 434.196ZM879.991 426.818C879.123 426.818 878.479 427.14 878.087 427.728V424.536C878.087 424.326 877.975 424.2 877.751 424.2H876.617C876.407 424.2 876.281 424.326 876.281 424.536V433.678C876.281 433.888 876.407 434 876.617 434H877.751C877.975 434 878.087 433.888 878.087 433.678V429.954C878.087 428.904 878.647 428.484 879.347 428.484C879.991 428.484 880.467 428.862 880.467 429.674V433.678C880.467 433.888 880.579 434 880.789 434H881.937C882.147 434 882.273 433.888 882.273 433.678V429.534C882.273 427.812 881.293 426.818 879.991 426.818ZM884.568 426.02H885.716C885.926 426.02 886.038 425.908 886.038 425.698V424.536C886.038 424.326 885.926 424.2 885.716 424.2H884.568C884.358 424.2 884.232 424.326 884.232 424.536V425.698C884.232 425.908 884.358 426.02 884.568 426.02ZM884.568 434H885.716C885.926 434 886.038 433.888 886.038 433.678V427.336C886.038 427.126 885.926 427 885.716 427H884.568C884.358 427 884.232 427.126 884.232 427.336V433.678C884.232 433.888 884.358 434 884.568 434ZM893.931 427H892.699C892.517 427 892.391 427.098 892.335 427.28L890.879 431.788L889.423 427.28C889.367 427.098 889.227 427 889.045 427H887.827C887.589 427 887.463 427.154 887.547 427.392L889.857 433.734C889.913 433.916 890.039 434 890.221 434H890.557H891.523C891.705 434 891.831 433.916 891.901 433.734L894.197 427.392C894.281 427.154 894.169 427 893.931 427ZM898.081 426.818C896.639 426.818 895.421 427.602 895.239 429.044C895.225 429.268 895.365 429.38 895.575 429.38H896.695C896.891 429.38 896.961 429.282 897.045 429.086C897.157 428.708 897.549 428.484 898.081 428.484C898.739 428.484 899.159 428.834 899.159 429.66V430.416C898.753 430.052 898.151 429.786 897.269 429.786C896.023 429.786 894.903 430.528 894.903 431.998C894.903 433.468 896.023 434.196 897.269 434.196C898.151 434.196 898.753 433.888 899.159 433.398V433.678C899.159 433.888 899.285 434.014 899.495 434.014H900.587C900.811 434.014 900.923 433.888 900.923 433.678V429.562C900.923 427.742 899.621 426.818 898.081 426.818ZM897.871 432.866C897.087 432.866 896.709 432.502 896.709 431.998C896.709 431.494 897.087 431.13 897.871 431.13C898.669 431.13 899.159 431.452 899.159 431.998C899.159 432.502 898.669 432.866 897.871 432.866ZM909.988 426.818C909.176 426.818 908.546 427.14 908.07 427.742C907.706 427.14 907.104 426.818 906.376 426.818C905.676 426.818 905.074 427.126 904.696 427.686V427.336C904.696 427.126 904.584 427 904.374 427H903.226C903.016 427 902.89 427.126 902.89 427.336V433.678C902.89 433.888 903.016 434 903.226 434H904.374C904.584 434 904.696 433.888 904.696 433.678V429.674C904.696 428.764 905.242 428.484 905.732 428.484C906.222 428.484 906.628 428.722 906.628 429.422V433.678C906.628 433.888 906.754 434 906.964 434H908.098C908.322 434 908.434 433.888 908.434 433.678V429.674C908.434 428.764 908.98 428.484 909.47 428.484C909.946 428.484 910.366 428.722 910.366 429.422V433.678C910.366 433.888 910.478 434 910.702 434H911.836C912.046 434 912.172 433.888 912.172 433.678V429.282C912.172 427.672 911.318 426.818 909.988 426.818ZM925.571 433.608L922.099 428.974L925.431 424.606C925.599 424.382 925.487 424.2 925.221 424.2H923.751C923.583 424.2 923.457 424.27 923.345 424.41L920.139 428.54V424.536C920.139 424.326 920.027 424.2 919.803 424.2H918.543C918.333 424.2 918.221 424.326 918.221 424.536V433.678C918.221 433.888 918.333 434 918.543 434H919.803C920.027 434 920.139 433.888 920.139 433.678V429.408L923.485 433.804C923.583 433.944 923.723 434 923.891 434H925.361C925.641 434 925.725 433.832 925.571 433.608ZM932.436 427H931.302C931.092 427 930.966 427.126 930.966 427.336V431.06C930.966 432.11 930.42 432.516 929.706 432.516C929.076 432.516 928.6 432.138 928.6 431.34V427.336C928.6 427.126 928.474 427 928.264 427H927.116C926.906 427 926.794 427.126 926.794 427.336V431.48C926.794 433.188 927.76 434.196 929.062 434.196C929.93 434.196 930.574 433.874 930.966 433.286V433.678C930.966 433.888 931.092 434 931.302 434H932.436C932.66 434 932.772 433.888 932.772 433.678V427.336C932.772 427.126 932.66 427 932.436 427ZM942.012 426.818C941.2 426.818 940.57 427.14 940.094 427.742C939.73 427.14 939.128 426.818 938.4 426.818C937.7 426.818 937.098 427.126 936.72 427.686V427.336C936.72 427.126 936.608 427 936.398 427H935.25C935.04 427 934.914 427.126 934.914 427.336V433.678C934.914 433.888 935.04 434 935.25 434H936.398C936.608 434 936.72 433.888 936.72 433.678V429.674C936.72 428.764 937.266 428.484 937.756 428.484C938.246 428.484 938.652 428.722 938.652 429.422V433.678C938.652 433.888 938.778 434 938.988 434H940.122C940.346 434 940.458 433.888 940.458 433.678V429.674C940.458 428.764 941.004 428.484 941.494 428.484C941.97 428.484 942.39 428.722 942.39 429.422V433.678C942.39 433.888 942.502 434 942.726 434H943.86C944.07 434 944.196 433.888 944.196 433.678V429.282C944.196 427.672 943.342 426.818 942.012 426.818ZM948.96 426.818C947.518 426.818 946.3 427.602 946.118 429.044C946.104 429.268 946.244 429.38 946.454 429.38H947.574C947.77 429.38 947.84 429.282 947.924 429.086C948.036 428.708 948.428 428.484 948.96 428.484C949.618 428.484 950.038 428.834 950.038 429.66V430.416C949.632 430.052 949.03 429.786 948.148 429.786C946.902 429.786 945.782 430.528 945.782 431.998C945.782 433.468 946.902 434.196 948.148 434.196C949.03 434.196 949.632 433.888 950.038 433.398V433.678C950.038 433.888 950.164 434.014 950.374 434.014H951.466C951.69 434.014 951.802 433.888 951.802 433.678V429.562C951.802 427.742 950.5 426.818 948.96 426.818ZM948.75 432.866C947.966 432.866 947.588 432.502 947.588 431.998C947.588 431.494 947.966 431.13 948.75 431.13C949.548 431.13 950.038 431.452 950.038 431.998C950.038 432.502 949.548 432.866 948.75 432.866ZM957.157 426.902C956.457 426.986 955.883 427.35 955.575 428.064V427.336C955.575 427.126 955.463 427 955.253 427H954.105C953.895 427 953.769 427.126 953.769 427.336V433.678C953.769 433.888 953.895 434 954.105 434H955.253C955.463 434 955.575 433.888 955.575 433.678V430.556C955.575 429.31 956.387 428.862 957.241 428.862C957.409 428.862 957.493 428.75 957.493 428.54V427.21C957.493 427 957.381 426.86 957.157 426.902Z" fill="white"/>
<path d="M848.714 382C848.26 382 847.824 382.18 847.502 382.501C847.181 382.821 847 383.256 847 383.709V412.77C847 413.223 847.181 413.658 847.502 413.978C847.824 414.299 848.26 414.479 848.714 414.479C848.979 414.479 849.241 414.417 849.478 414.299C849.715 414.18 849.921 414.009 850.08 413.798L855.434 407.845L856 406.979C858.128 406.26 856 407 857.5 406.5C858.738 405.939 857.019 406.654 859 405.979L859.753 405.999L869.286 405.932C869.74 405.932 870.176 405.752 870.498 405.431C870.819 405.111 871 404.676 871 404.222C871 403.968 870.943 403.716 870.833 403.486C870.723 403.256 870.562 403.054 870.364 402.894L850.057 382.648C849.897 382.446 849.692 382.283 849.46 382.171C849.227 382.058 848.973 382 848.714 382Z" fill="#009639"/>
</g>
<g filter="url(#filter1_d_9982_31618)">
<rect x="1136.5" y="62" width="64" height="30" rx="5" fill="#9D0FB0"/>
<path d="M1146.92 82.196C1148.74 82.196 1150.29 81.202 1150.29 79.326C1150.29 77.254 1148.44 76.75 1147.01 76.232C1146.12 75.896 1145.45 75.588 1145.45 74.86C1145.45 74.3 1145.91 73.894 1146.71 73.894C1147.46 73.894 1147.94 74.202 1148.06 74.86C1148.09 75.07 1148.2 75.168 1148.4 75.168H1149.66C1149.88 75.168 1150.01 75.056 1150 74.832C1149.83 72.9 1148.32 72.018 1146.71 72.018C1145.07 72.018 1143.51 72.984 1143.51 74.86C1143.51 76.946 1145.24 77.506 1146.65 77.996C1147.57 78.332 1148.36 78.626 1148.36 79.326C1148.36 79.9 1147.9 80.32 1146.92 80.32C1145.96 80.32 1145.4 79.97 1145.29 79.312C1145.25 79.088 1145.15 78.99 1144.94 78.99H1143.68C1143.47 78.99 1143.35 79.102 1143.36 79.326C1143.51 81.286 1145.1 82.196 1146.92 82.196ZM1154.76 74.818C1153.32 74.818 1152.1 75.602 1151.92 77.044C1151.91 77.268 1152.05 77.38 1152.26 77.38H1153.38C1153.57 77.38 1153.64 77.282 1153.73 77.086C1153.84 76.708 1154.23 76.484 1154.76 76.484C1155.42 76.484 1155.84 76.834 1155.84 77.66V78.416C1155.44 78.052 1154.83 77.786 1153.95 77.786C1152.71 77.786 1151.59 78.528 1151.59 79.998C1151.59 81.468 1152.71 82.196 1153.95 82.196C1154.83 82.196 1155.44 81.888 1155.84 81.398V81.678C1155.84 81.888 1155.97 82.014 1156.18 82.014H1157.27C1157.49 82.014 1157.61 81.888 1157.61 81.678V77.562C1157.61 75.742 1156.3 74.818 1154.76 74.818ZM1154.55 80.866C1153.77 80.866 1153.39 80.502 1153.39 79.998C1153.39 79.494 1153.77 79.13 1154.55 79.13C1155.35 79.13 1155.84 79.452 1155.84 79.998C1155.84 80.502 1155.35 80.866 1154.55 80.866ZM1162.96 74.902C1162.26 74.986 1161.69 75.35 1161.38 76.064V75.336C1161.38 75.126 1161.27 75 1161.06 75H1159.91C1159.7 75 1159.57 75.126 1159.57 75.336V81.678C1159.57 81.888 1159.7 82 1159.91 82H1161.06C1161.27 82 1161.38 81.888 1161.38 81.678V78.556C1161.38 77.31 1162.19 76.862 1163.04 76.862C1163.21 76.862 1163.3 76.75 1163.3 76.54V75.21C1163.3 75 1163.18 74.86 1162.96 74.902ZM1167.45 74.818C1166.01 74.818 1164.79 75.602 1164.61 77.044C1164.6 77.268 1164.74 77.38 1164.95 77.38H1166.07C1166.26 77.38 1166.33 77.282 1166.42 77.086C1166.53 76.708 1166.92 76.484 1167.45 76.484C1168.11 76.484 1168.53 76.834 1168.53 77.66V78.416C1168.13 78.052 1167.52 77.786 1166.64 77.786C1165.4 77.786 1164.28 78.528 1164.28 79.998C1164.28 81.468 1165.4 82.196 1166.64 82.196C1167.52 82.196 1168.13 81.888 1168.53 81.398V81.678C1168.53 81.888 1168.66 82.014 1168.87 82.014H1169.96C1170.18 82.014 1170.3 81.888 1170.3 81.678V77.562C1170.3 75.742 1168.99 74.818 1167.45 74.818ZM1167.24 80.866C1166.46 80.866 1166.08 80.502 1166.08 79.998C1166.08 79.494 1166.46 79.13 1167.24 79.13C1168.04 79.13 1168.53 79.452 1168.53 79.998C1168.53 80.502 1168.04 80.866 1167.24 80.866ZM1181.58 80.152H1178.28V72.536C1178.28 72.326 1178.17 72.2 1177.94 72.2H1176.68C1176.47 72.2 1176.36 72.326 1176.36 72.536V81.678C1176.36 81.888 1176.47 82 1176.68 82H1177.34H1181.58C1181.81 82 1181.92 81.888 1181.92 81.678V80.488C1181.92 80.278 1181.81 80.152 1181.58 80.152ZM1183.74 74.02H1184.89C1185.1 74.02 1185.21 73.908 1185.21 73.698V72.536C1185.21 72.326 1185.1 72.2 1184.89 72.2H1183.74C1183.53 72.2 1183.41 72.326 1183.41 72.536V73.698C1183.41 73.908 1183.53 74.02 1183.74 74.02ZM1183.74 82H1184.89C1185.1 82 1185.21 81.888 1185.21 81.678V75.336C1185.21 75.126 1185.1 75 1184.89 75H1183.74C1183.53 75 1183.41 75.126 1183.41 75.336V81.678C1183.41 81.888 1183.53 82 1183.74 82ZM1191.08 74.818C1190.21 74.818 1189.56 75.14 1189.17 75.728V75.336C1189.17 75.126 1189.06 75 1188.84 75H1187.7C1187.49 75 1187.37 75.126 1187.37 75.336V81.678C1187.37 81.888 1187.49 82 1187.7 82H1188.84C1189.06 82 1189.17 81.888 1189.17 81.678V77.954C1189.17 76.904 1189.73 76.484 1190.43 76.484C1191.08 76.484 1191.55 76.862 1191.55 77.674V81.678C1191.55 81.888 1191.66 82 1191.87 82H1193.02C1193.23 82 1193.36 81.888 1193.36 81.678V77.534C1193.36 75.812 1192.38 74.818 1191.08 74.818Z" fill="white"/>
<path d="M1118.71 30C1118.26 30 1117.82 30.1801 1117.5 30.5007C1117.18 30.8213 1117 31.2561 1117 31.7094V60.7696C1117 61.223 1117.18 61.6578 1117.5 61.9784C1117.82 62.2989 1118.26 62.479 1118.71 62.479C1118.98 62.4785 1119.24 62.4167 1119.48 62.2986C1119.71 62.1804 1119.92 62.009 1120.08 61.7979L1125.43 55.845L1126 54.9795C1128.13 54.2598 1126 55 1127.5 54.5C1128.74 53.9393 1127.02 54.6536 1129 53.9795L1129.75 53.9987L1139.29 53.9319C1139.74 53.9319 1140.18 53.7518 1140.5 53.4312C1140.82 53.1107 1141 52.6759 1141 52.2225C1141 51.9677 1140.94 51.7162 1140.83 51.4863C1140.72 51.2564 1140.56 51.0539 1140.36 50.8937L1120.06 30.6477C1119.9 30.4459 1119.69 30.2828 1119.46 30.1706C1119.23 30.0585 1118.97 30.0001 1118.71 30Z" fill="#9D0FB0"/>
</g>
<g filter="url(#filter2_d_9982_31618)">
<rect x="1005.5" y="673" width="96" height="30" rx="5" fill="#1A1A1A"/>
<path d="M1015.13 693.196C1016.82 693.196 1018.42 692.23 1018.42 690.102V683.536C1018.42 683.326 1018.31 683.2 1018.08 683.2H1016.82C1016.61 683.2 1016.5 683.326 1016.5 683.536V690.102C1016.5 690.914 1016 691.32 1015.13 691.32C1014.37 691.32 1013.88 690.998 1013.78 690.2C1013.76 689.976 1013.64 689.864 1013.45 689.864H1012.17C1011.96 689.864 1011.84 689.976 1011.85 690.214C1012.01 692.314 1013.52 693.196 1015.13 693.196ZM1020.85 685.02H1022C1022.21 685.02 1022.32 684.908 1022.32 684.698V683.536C1022.32 683.326 1022.21 683.2 1022 683.2H1020.85C1020.64 683.2 1020.52 683.326 1020.52 683.536V684.698C1020.52 684.908 1020.64 685.02 1020.85 685.02ZM1020.85 693H1022C1022.21 693 1022.32 692.888 1022.32 692.678V686.336C1022.32 686.126 1022.21 686 1022 686H1020.85C1020.64 686 1020.52 686.126 1020.52 686.336V692.678C1020.52 692.888 1020.64 693 1020.85 693ZM1031.57 685.818C1030.76 685.818 1030.13 686.14 1029.65 686.742C1029.29 686.14 1028.69 685.818 1027.96 685.818C1027.26 685.818 1026.66 686.126 1026.28 686.686V686.336C1026.28 686.126 1026.17 686 1025.96 686H1024.81C1024.6 686 1024.47 686.126 1024.47 686.336V692.678C1024.47 692.888 1024.6 693 1024.81 693H1025.96C1026.17 693 1026.28 692.888 1026.28 692.678V688.674C1026.28 687.764 1026.83 687.484 1027.32 687.484C1027.81 687.484 1028.21 687.722 1028.21 688.422V692.678C1028.21 692.888 1028.34 693 1028.55 693H1029.68C1029.91 693 1030.02 692.888 1030.02 692.678V688.674C1030.02 687.764 1030.56 687.484 1031.05 687.484C1031.53 687.484 1031.95 687.722 1031.95 688.422V692.678C1031.95 692.888 1032.06 693 1032.29 693H1033.42C1033.63 693 1033.76 692.888 1033.76 692.678V688.282C1033.76 686.672 1032.9 685.818 1031.57 685.818ZM1042.8 685.818C1041.99 685.818 1041.36 686.14 1040.89 686.742C1040.52 686.14 1039.92 685.818 1039.19 685.818C1038.49 685.818 1037.89 686.126 1037.51 686.686V686.336C1037.51 686.126 1037.4 686 1037.19 686H1036.04C1035.83 686 1035.71 686.126 1035.71 686.336V692.678C1035.71 692.888 1035.83 693 1036.04 693H1037.19C1037.4 693 1037.51 692.888 1037.51 692.678V688.674C1037.51 687.764 1038.06 687.484 1038.55 687.484C1039.04 687.484 1039.44 687.722 1039.44 688.422V692.678C1039.44 692.888 1039.57 693 1039.78 693H1040.91C1041.14 693 1041.25 692.888 1041.25 692.678V688.674C1041.25 687.764 1041.8 687.484 1042.29 687.484C1042.76 687.484 1043.18 687.722 1043.18 688.422V692.678C1043.18 692.888 1043.29 693 1043.52 693H1044.65C1044.86 693 1044.99 692.888 1044.99 692.678V688.282C1044.99 686.672 1044.13 685.818 1042.8 685.818ZM1050.93 686.28L1049.59 690.41L1048.02 686.266C1047.96 686.098 1047.84 686 1047.66 686H1046.42C1046.17 686 1046.07 686.168 1046.16 686.392L1048.68 692.902L1047.82 695.436C1047.74 695.674 1047.87 695.8 1048.1 695.8H1049.34C1049.52 695.8 1049.67 695.73 1049.73 695.534L1052.81 686.378C1052.89 686.14 1052.78 686 1052.54 686H1051.3C1051.11 686 1050.99 686.098 1050.93 686.28ZM1069.5 683.2H1068.19C1067.99 683.2 1067.86 683.312 1067.82 683.494L1065.93 690.55L1064.06 683.494C1064.01 683.312 1063.89 683.2 1063.69 683.2H1062.57C1062.33 683.2 1062.24 683.34 1062.29 683.578L1062.87 685.566L1061.47 690.55L1059.58 683.494C1059.53 683.312 1059.41 683.2 1059.21 683.2H1057.9C1057.66 683.2 1057.55 683.34 1057.62 683.578L1060.22 692.72C1060.26 692.916 1060.4 693 1060.58 693H1062.14C1062.32 693 1062.45 692.916 1062.5 692.72L1063.71 688.52L1064.9 692.72C1064.95 692.916 1065.08 693 1065.27 693H1066.81C1067 693 1067.14 692.916 1067.19 692.72L1069.78 683.578C1069.85 683.34 1069.74 683.2 1069.5 683.2ZM1073.96 693.196C1076 693.196 1077.66 691.586 1077.66 689.5C1077.66 687.428 1076 685.818 1073.96 685.818C1071.9 685.818 1070.25 687.428 1070.25 689.5C1070.25 691.586 1071.9 693.196 1073.96 693.196ZM1073.96 691.432C1072.88 691.432 1072.06 690.634 1072.06 689.5C1072.06 688.366 1072.88 687.568 1073.96 687.568C1075.02 687.568 1075.85 688.366 1075.85 689.5C1075.85 690.634 1075.02 691.432 1073.96 691.432ZM1083.14 685.818C1082.27 685.818 1081.63 686.14 1081.23 686.728V686.336C1081.23 686.126 1081.12 686 1080.9 686H1079.76C1079.55 686 1079.43 686.126 1079.43 686.336V692.678C1079.43 692.888 1079.55 693 1079.76 693H1080.9C1081.12 693 1081.23 692.888 1081.23 692.678V688.954C1081.23 687.904 1081.79 687.484 1082.49 687.484C1083.14 687.484 1083.61 687.862 1083.61 688.674V692.678C1083.61 692.888 1083.73 693 1083.94 693H1085.08C1085.29 693 1085.42 692.888 1085.42 692.678V688.534C1085.42 686.812 1084.44 685.818 1083.14 685.818ZM1094.17 686H1093.08C1092.87 686 1092.74 686.126 1092.74 686.336V686.868C1092.24 686.224 1091.48 685.818 1090.43 685.818C1088.55 685.818 1087.01 687.428 1087.01 689.402C1087.01 691.376 1088.55 692.986 1090.43 692.986C1091.48 692.986 1092.24 692.58 1092.74 691.936V692.678C1092.74 693.77 1092.05 694.386 1090.93 694.386C1090.01 694.386 1089.45 693.98 1089.3 693.49C1089.23 693.308 1089.13 693.196 1088.93 693.196H1087.78C1087.57 693.196 1087.43 693.322 1087.45 693.546C1087.66 695.142 1089.24 695.996 1090.93 695.996C1092.68 695.996 1094.5 694.974 1094.5 692.678V686.336C1094.5 686.126 1094.39 686 1094.17 686ZM1090.78 691.306C1089.65 691.306 1088.82 690.508 1088.82 689.402C1088.82 688.282 1089.65 687.484 1090.78 687.484C1091.91 687.484 1092.74 688.282 1092.74 689.402C1092.74 690.508 1091.91 691.306 1090.78 691.306Z" fill="white"/>
<path d="M989.714 641C989.26 641 988.824 641.18 988.502 641.501C988.181 641.821 988 642.256 988 642.709V671.77C988 672.223 988.181 672.658 988.502 672.978C988.824 673.299 989.26 673.479 989.714 673.479C989.979 673.479 990.241 673.417 990.478 673.299C990.715 673.18 990.921 673.009 991.08 672.798L996.434 666.845L997 665.979C999.128 665.26 997 666 998.5 665.5C999.738 664.939 998.019 665.654 1000 664.979L1000.75 664.999L1010.29 664.932C1010.74 664.932 1011.18 664.752 1011.5 664.431C1011.82 664.111 1012 663.676 1012 663.222C1012 662.968 1011.94 662.716 1011.83 662.486C1011.72 662.256 1011.56 662.054 1011.36 661.894L991.057 641.648C990.897 641.446 990.692 641.283 990.46 641.171C990.227 641.058 989.973 641 989.714 641Z" fill="#1A1A1A"/>
</g>
<rect x="435.5" y="111.5" width="855" height="250" fill="#326CE5" fill-opacity="0.1" stroke="#326CE5" stroke-width="5"/>
<path d="M879.387 178C870.15 162 847.056 162 837.818 178L792.785 256C783.547 272 795.094 292 813.569 292H903.636C922.111 292 933.658 272 924.42 256L879.387 178Z" fill="#326CE5"/>
<g clip-path="url(#clip1_9982_31618)">
<path d="M852.956 246.219C853.063 246.199 853.171 246.191 853.28 246.196C853.467 246.205 853.65 246.251 853.819 246.329C854.146 246.479 854.399 246.744 854.526 247.068C854.653 247.391 854.644 247.749 854.501 248.066L854.511 248.08L851.285 255.497C848.199 253.623 845.857 250.823 844.63 247.54L852.942 246.203L852.956 246.219ZM865.89 247.271C865.959 246.978 866.13 246.717 866.375 246.528C866.62 246.339 866.924 246.234 867.239 246.229C867.332 246.228 867.425 246.236 867.516 246.252L867.53 246.236L875.77 247.567C874.533 250.824 872.201 253.602 869.136 255.469L865.943 248.124L865.968 248.096C865.85 247.836 865.822 247.547 865.89 247.271V247.271ZM858.989 250.151C859.109 249.937 859.288 249.759 859.507 249.635C859.725 249.51 859.975 249.445 860.23 249.445C860.484 249.445 860.734 249.511 860.952 249.636C861.17 249.761 861.349 249.94 861.469 250.154H861.476L865.528 257.128C862.626 258.069 859.507 258.221 856.52 257.569C855.966 257.449 855.425 257.305 854.897 257.138L858.958 250.151L858.989 250.151ZM846.162 233.95L852.396 239.261L852.393 239.278C852.584 239.437 852.727 239.643 852.805 239.873C852.884 240.104 852.895 240.35 852.839 240.586C852.782 240.822 852.659 241.039 852.484 241.214C852.308 241.389 852.086 241.516 851.84 241.58L851.833 241.612L843.758 243.827C843.409 240.373 844.253 236.906 846.162 233.95V233.95ZM857.744 234.545C857.732 234.787 857.652 235.021 857.512 235.223C857.371 235.425 857.176 235.587 856.947 235.692C856.717 235.797 856.462 235.84 856.209 235.818C855.956 235.796 855.713 235.71 855.508 235.567L855.483 235.577L848.661 230.973C851.258 228.552 854.618 227.01 858.226 226.584L857.752 234.542L857.744 234.545ZM864.968 235.597C864.762 235.739 864.52 235.826 864.266 235.847C864.013 235.869 863.758 235.825 863.529 235.719C863.3 235.614 863.105 235.452 862.965 235.249C862.826 235.047 862.746 234.813 862.735 234.571L862.7 234.555L862.226 226.584C862.798 226.649 863.367 226.742 863.929 226.863C866.919 227.503 869.662 228.926 871.848 230.971L864.981 235.604L864.968 235.597ZM868.629 241.619C868.383 241.555 868.16 241.429 867.984 241.254C867.807 241.079 867.684 240.862 867.627 240.626C867.571 240.389 867.582 240.143 867.661 239.912C867.74 239.681 867.883 239.476 868.076 239.317L868.069 239.285L874.338 233.948C876.25 236.911 877.071 240.396 876.67 243.853L868.635 241.646L868.629 241.619ZM862.54 243.964L860.227 245.022L857.922 243.966L857.349 241.597L858.945 239.697H861.513L863.113 241.594L862.54 243.964Z" fill="white"/>
<path d="M821.999 248.632L828.588 221.386C828.765 220.681 829.105 220.023 829.582 219.458C830.059 218.893 830.661 218.436 831.346 218.12L858.019 205.997C858.711 205.683 859.467 205.521 860.233 205.521C860.999 205.521 861.755 205.683 862.446 205.997L889.114 218.126C889.799 218.442 890.402 218.899 890.879 219.464C891.357 220.029 891.696 220.688 891.873 221.392L898.452 248.637C898.614 249.326 898.615 250.04 898.454 250.729C898.406 250.939 898.344 251.145 898.268 251.347C898.139 251.692 897.969 252.022 897.76 252.329C897.67 252.46 897.574 252.588 897.471 252.712L879.012 274.558C878.931 274.653 878.842 274.74 878.754 274.828C878.464 275.122 878.137 275.38 877.781 275.596C877.329 275.866 876.837 276.07 876.322 276.2C875.899 276.31 875.463 276.367 875.024 276.37H874.737L845.423 276.364C845.245 276.363 845.067 276.353 844.89 276.334C844.636 276.306 844.385 276.261 844.138 276.198C843.961 276.153 843.786 276.1 843.615 276.038C843.482 275.99 843.349 275.941 843.22 275.883C843.028 275.795 842.841 275.696 842.661 275.587C842.196 275.309 841.783 274.96 841.436 274.555L840.874 273.889L822.984 252.705C822.641 252.295 822.372 251.835 822.187 251.342C822.109 251.139 822.046 250.932 821.997 250.721C821.836 250.033 821.836 249.318 821.999 248.63L821.999 248.632ZM849.665 259.228C849.59 259.438 849.501 259.643 849.399 259.841C849.562 260.113 849.606 260.435 849.522 260.738C849.134 261.584 848.66 262.392 848.107 263.15C847.798 263.538 847.512 263.942 847.251 264.361C847.187 264.475 847.103 264.65 847.042 264.77C846.927 264.953 846.854 265.157 846.826 265.368C846.799 265.579 846.819 265.794 846.884 265.998C846.949 266.202 847.058 266.39 847.204 266.551C847.35 266.713 847.531 266.843 847.733 266.934C847.935 267.025 848.155 267.075 848.379 267.08C848.603 267.085 848.825 267.046 849.032 266.964C849.239 266.883 849.425 266.761 849.579 266.607C849.734 266.453 849.852 266.269 849.928 266.069C849.989 265.95 850.074 265.792 850.125 265.679C850.308 265.224 850.462 264.759 850.589 264.287C850.866 263.403 851.232 262.547 851.684 261.732C851.881 261.479 852.173 261.31 852.499 261.261C852.55 261.177 852.739 260.847 852.84 260.677C857.588 262.388 862.833 262.375 867.571 260.641L867.933 261.264C868.19 261.302 868.43 261.413 868.621 261.583C869.165 262.433 869.581 263.352 869.857 264.313C869.982 264.785 870.136 265.25 870.317 265.705C870.368 265.817 870.454 265.973 870.515 266.091V266.095L870.517 266.098C870.593 266.298 870.712 266.482 870.866 266.636C871.02 266.791 871.207 266.913 871.414 266.994C871.621 267.076 871.844 267.115 872.068 267.11C872.292 267.104 872.512 267.054 872.714 266.963C872.917 266.871 873.097 266.741 873.243 266.579C873.389 266.417 873.497 266.228 873.562 266.024C873.627 265.82 873.645 265.605 873.617 265.393C873.589 265.182 873.515 264.978 873.399 264.796C873.339 264.675 873.258 264.501 873.195 264.387C872.935 263.967 872.649 263.561 872.339 263.173C871.776 262.394 871.292 261.567 870.895 260.701C870.852 260.407 870.902 260.108 871.037 259.841L870.746 259.179C875.115 256.724 878.389 252.833 879.952 248.239L880.647 248.351C880.917 248.169 881.235 248.062 881.565 248.043C882.517 248.217 883.449 248.478 884.348 248.823C884.814 249.023 885.293 249.197 885.78 249.345C885.895 249.375 886.062 249.405 886.193 249.433C886.204 249.436 886.213 249.441 886.224 249.443C886.232 249.444 886.24 249.445 886.248 249.445C886.46 249.512 886.684 249.535 886.906 249.514C887.128 249.494 887.343 249.429 887.537 249.324C887.731 249.22 887.901 249.078 888.034 248.908C888.167 248.737 888.261 248.543 888.311 248.336C888.361 248.129 888.364 247.914 888.322 247.706C888.279 247.497 888.191 247.299 888.064 247.125C887.936 246.951 887.772 246.804 887.581 246.694C887.391 246.583 887.178 246.512 886.957 246.485L886.934 246.479L886.92 246.476C886.787 246.446 886.616 246.404 886.494 246.381C885.986 246.314 885.474 246.275 884.962 246.264C883.995 246.204 883.037 246.054 882.101 245.817C881.824 245.648 881.589 245.423 881.415 245.158L880.747 244.972C881.472 240.177 880.312 235.296 877.489 231.265L878.001 230.83C878.019 230.515 878.13 230.211 878.321 229.953C879.057 229.352 879.852 228.82 880.696 228.366C881.151 228.144 881.593 227.898 882.019 227.629C882.116 227.56 882.244 227.457 882.35 227.375L882.373 227.36C882.736 227.111 882.982 226.736 883.055 226.317C883.129 225.897 883.025 225.467 882.766 225.12C882.613 224.941 882.418 224.8 882.197 224.707C881.976 224.614 881.735 224.572 881.494 224.584C881.088 224.6 880.698 224.74 880.381 224.983C880.273 225.064 880.124 225.173 880.028 225.252C879.656 225.586 879.305 225.941 878.976 226.314C878.324 226.996 877.603 227.616 876.824 228.165C876.532 228.311 876.192 228.343 875.876 228.253C875.686 228.385 875.494 228.514 875.3 228.642C872.495 225.804 868.863 223.829 864.87 222.97C863.919 222.765 862.955 222.624 861.984 222.548L861.946 221.906C861.698 221.696 861.518 221.423 861.428 221.119C861.393 220.197 861.453 219.274 861.606 218.364C861.707 217.886 861.78 217.404 861.824 216.918C861.828 216.808 861.821 216.655 861.82 216.529C861.82 216.515 861.824 216.501 861.824 216.487C861.846 216.274 861.822 216.06 861.752 215.857C861.682 215.654 861.568 215.467 861.418 215.309C861.268 215.15 861.084 215.024 860.879 214.937C860.674 214.85 860.452 214.805 860.228 214.805C860.004 214.805 859.782 214.85 859.577 214.936C859.372 215.023 859.188 215.149 859.038 215.308C858.887 215.466 858.773 215.653 858.703 215.855C858.633 216.058 858.608 216.273 858.631 216.485C858.631 216.618 858.623 216.795 858.628 216.917C858.671 217.402 858.744 217.885 858.847 218.362C859.001 219.273 859.061 220.196 859.027 221.118C858.964 221.427 858.777 221.699 858.506 221.878C858.5 221.988 858.481 222.354 858.467 222.556C853.421 222.993 848.713 225.159 845.217 228.651L844.61 228.238C844.283 228.291 843.948 228.256 843.641 228.138C842.863 227.588 842.142 226.967 841.489 226.284C841.16 225.911 840.808 225.556 840.435 225.222C840.337 225.142 840.189 225.035 840.081 224.954C839.921 224.803 839.729 224.687 839.519 224.611C839.308 224.536 839.083 224.504 838.859 224.517C838.634 224.529 838.415 224.587 838.215 224.686C838.016 224.784 837.84 224.922 837.7 225.089C837.56 225.257 837.458 225.45 837.402 225.658C837.345 225.865 837.335 226.081 837.372 226.292C837.409 226.504 837.492 226.705 837.617 226.884C837.741 227.062 837.903 227.214 838.092 227.329C838.2 227.411 838.341 227.526 838.444 227.599C838.871 227.869 839.314 228.115 839.77 228.336C840.614 228.79 841.409 229.322 842.144 229.923C842.358 230.162 842.466 230.471 842.444 230.784C842.533 230.862 842.845 231.125 843.01 231.267C840.179 235.284 838.996 240.15 839.685 244.942L839.04 245.121C838.879 245.397 838.641 245.625 838.352 245.78C837.415 246.018 836.457 246.168 835.49 246.229C834.978 246.24 834.467 246.279 833.959 246.345C833.825 246.369 833.631 246.42 833.494 246.45C833.273 246.477 833.06 246.549 832.87 246.659C832.679 246.769 832.515 246.916 832.388 247.091C832.26 247.265 832.172 247.463 832.13 247.671C832.087 247.88 832.091 248.094 832.141 248.301C832.191 248.508 832.285 248.703 832.418 248.873C832.552 249.044 832.721 249.185 832.915 249.29C833.109 249.394 833.324 249.459 833.546 249.479C833.768 249.5 833.992 249.477 834.204 249.41L834.227 249.407C834.238 249.405 834.248 249.399 834.259 249.397C834.39 249.369 834.556 249.342 834.671 249.313C835.158 249.164 835.636 248.988 836.103 248.787C837.002 248.442 837.935 248.181 838.888 248.007C839.217 247.998 839.538 248.111 839.781 248.323C840.008 248.282 840.235 248.244 840.463 248.209C842.007 252.832 845.281 256.754 849.665 259.228V259.228Z" fill="white"/>
</g>
<path d="M525.555 327.276C528.269 327.276 530.73 325.62 530.73 322.929C530.73 319.962 527.97 319.065 525.532 318.122C523.6 317.386 521.99 316.673 521.99 314.833C521.99 313.131 523.462 312.188 525.233 312.188C527.027 312.188 528.43 313.085 528.637 314.787C528.66 315.063 528.821 315.224 529.097 315.224H529.81C530.109 315.224 530.27 315.063 530.247 314.741C530.017 312.096 527.786 310.624 525.233 310.624C522.726 310.624 520.38 312.165 520.38 314.833C520.38 317.961 523.071 318.789 525.509 319.709C527.418 320.422 529.12 321.181 529.12 322.929C529.12 324.654 527.533 325.712 525.555 325.712C523.393 325.712 521.783 324.7 521.553 322.791C521.53 322.492 521.369 322.331 521.093 322.331H520.38C520.081 322.331 519.92 322.492 519.943 322.814C520.173 325.689 522.657 327.276 525.555 327.276ZM538.454 315.224C534.889 315.224 532.566 317.869 532.566 321.25C532.566 324.723 534.935 327.276 538.454 327.276C540.8 327.276 542.686 326.057 543.468 324.309C543.583 324.033 543.399 323.849 543.054 323.849H542.318C542.065 323.849 541.904 323.964 541.766 324.171C541.191 325.114 540.018 325.804 538.477 325.804C536.131 325.804 534.429 324.355 534.13 322.009H542.479H543.56C543.836 322.009 544.02 321.871 544.043 321.572V321.296C544.043 318.145 541.973 315.224 538.454 315.224ZM538.454 316.696C540.409 316.696 542.18 318.007 542.456 320.537H534.107C534.406 318.306 536.016 316.696 538.454 316.696ZM551.042 315.339C549.777 315.454 548.65 315.96 547.868 317.271V315.96C547.868 315.661 547.707 315.5 547.408 315.5H546.81C546.511 315.5 546.35 315.661 546.35 315.96V326.54C546.35 326.839 546.511 327 546.81 327H547.408C547.707 327 547.868 326.839 547.868 326.54V320.606C547.868 317.915 549.478 316.903 551.203 316.788C551.387 316.788 551.502 316.604 551.502 316.328V315.776C551.502 315.477 551.341 315.316 551.042 315.339ZM561.978 315.5H561.334C561.081 315.5 560.897 315.615 560.805 315.868L557.378 325.344L553.951 315.868C553.859 315.615 553.675 315.5 553.422 315.5H552.778C552.456 315.5 552.295 315.707 552.41 316.029L556.32 326.632C556.412 326.862 556.596 327 556.849 327H557.332H557.907C558.16 327 558.344 326.885 558.436 326.632L562.346 316.029C562.461 315.707 562.3 315.5 561.978 315.5ZM564.846 313.2H565.444C565.743 313.2 565.904 313.039 565.904 312.74V311.36C565.904 311.061 565.743 310.9 565.444 310.9H564.846C564.547 310.9 564.386 311.061 564.386 311.36V312.74C564.386 313.039 564.547 313.2 564.846 313.2ZM564.846 327H565.444C565.743 327 565.904 326.839 565.904 326.54V315.96C565.904 315.661 565.743 315.5 565.444 315.5H564.846C564.547 315.5 564.386 315.661 564.386 315.96V326.54C564.386 326.839 564.547 327 564.846 327ZM579.453 323.32H578.786C578.533 323.32 578.349 323.435 578.234 323.665C577.567 324.953 576.164 325.804 574.485 325.804C571.932 325.804 569.954 323.803 569.954 321.25C569.954 318.697 571.932 316.696 574.485 316.696C576.141 316.696 577.544 317.524 578.234 318.835C578.349 319.065 578.533 319.18 578.786 319.18H579.453C579.775 319.18 579.959 318.973 579.821 318.651C578.993 316.604 576.923 315.224 574.485 315.224C571.012 315.224 568.436 317.846 568.436 321.25C568.436 324.654 571.012 327.276 574.485 327.276C576.923 327.276 579.016 325.896 579.821 323.849C579.959 323.527 579.775 323.32 579.453 323.32ZM587.508 315.224C583.943 315.224 581.62 317.869 581.62 321.25C581.62 324.723 583.989 327.276 587.508 327.276C589.854 327.276 591.74 326.057 592.522 324.309C592.637 324.033 592.453 323.849 592.108 323.849H591.372C591.119 323.849 590.958 323.964 590.82 324.171C590.245 325.114 589.072 325.804 587.531 325.804C585.185 325.804 583.483 324.355 583.184 322.009H591.533H592.614C592.89 322.009 593.074 321.871 593.097 321.572V321.296C593.097 318.145 591.027 315.224 587.508 315.224ZM587.508 316.696C589.463 316.696 591.234 318.007 591.51 320.537H583.161C583.46 318.306 585.07 316.696 587.508 316.696ZM601.385 311.36V326.54C601.385 326.839 601.546 327 601.845 327H602.535C602.834 327 602.995 326.839 602.995 326.54V311.36C602.995 311.061 602.834 310.9 602.535 310.9H601.845C601.546 310.9 601.385 311.061 601.385 311.36ZM611.516 315.224C610.113 315.224 608.871 315.661 607.974 317.041V315.96C607.974 315.661 607.813 315.5 607.514 315.5H606.916C606.617 315.5 606.456 315.661 606.456 315.96V326.54C606.456 326.839 606.617 327 606.916 327H607.514C607.813 327 607.974 326.839 607.974 326.54V320.514C607.974 317.662 609.676 316.696 611.24 316.696C612.781 316.696 613.908 317.662 613.908 319.479V326.54C613.908 326.839 614.069 327 614.368 327H614.966C615.265 327 615.426 326.839 615.426 326.54V319.479C615.426 316.834 613.655 315.224 611.516 315.224ZM623.075 315.5H621.143V312.28C621.143 311.981 620.982 311.82 620.683 311.82H620.085C619.786 311.82 619.625 311.981 619.625 312.28V315.5H617.67C617.371 315.5 617.21 315.661 617.21 315.96V316.512C617.21 316.811 617.371 316.972 617.67 316.972H619.625V326.54C619.625 326.839 619.786 327 620.085 327H620.683C620.982 327 621.143 326.839 621.143 326.54V316.972H623.075C623.374 316.972 623.535 316.811 623.535 316.512V315.96C623.535 315.661 623.374 315.5 623.075 315.5ZM630.364 315.224C626.799 315.224 624.476 317.869 624.476 321.25C624.476 324.723 626.845 327.276 630.364 327.276C632.71 327.276 634.596 326.057 635.378 324.309C635.493 324.033 635.309 323.849 634.964 323.849H634.228C633.975 323.849 633.814 323.964 633.676 324.171C633.101 325.114 631.928 325.804 630.387 325.804C628.041 325.804 626.339 324.355 626.04 322.009H634.389H635.47C635.746 322.009 635.93 321.871 635.953 321.572V321.296C635.953 318.145 633.883 315.224 630.364 315.224ZM630.364 316.696C632.319 316.696 634.09 318.007 634.366 320.537H626.017C626.316 318.306 627.926 316.696 630.364 316.696ZM642.952 315.339C641.687 315.454 640.56 315.96 639.778 317.271V315.96C639.778 315.661 639.617 315.5 639.318 315.5H638.72C638.421 315.5 638.26 315.661 638.26 315.96V326.54C638.26 326.839 638.421 327 638.72 327H639.318C639.617 327 639.778 326.839 639.778 326.54V320.606C639.778 317.915 641.388 316.903 643.113 316.788C643.297 316.788 643.412 316.604 643.412 316.328V315.776C643.412 315.477 643.251 315.316 642.952 315.339ZM650.645 312.073C650.967 312.073 651.128 311.935 651.128 311.636V311.084C651.128 310.808 650.967 310.601 650.668 310.601C647.862 310.555 646.298 312.188 646.298 315.04V315.5H644.803C644.504 315.5 644.343 315.661 644.343 315.96V316.512C644.343 316.811 644.504 316.972 644.803 316.972H646.298V326.54C646.298 326.839 646.459 327 646.758 327H647.356C647.655 327 647.816 326.839 647.816 326.54V316.972H650.668C650.967 316.972 651.128 316.811 651.128 316.512V315.96C651.128 315.661 650.967 315.5 650.668 315.5H647.816V315.04C647.816 312.993 648.736 312.05 650.645 312.073ZM656.663 315.224C654.271 315.224 652.569 316.627 652.316 318.582C652.293 318.904 652.477 319.065 652.776 319.065H653.374C653.65 319.065 653.788 318.904 653.857 318.628C654.087 317.317 655.329 316.696 656.663 316.696C658.135 316.696 659.515 317.455 659.515 319.525V321.388C658.733 320.399 657.399 319.87 655.95 319.87C653.834 319.87 651.833 321.089 651.833 323.573C651.833 326.057 653.834 327.276 655.95 327.276C657.399 327.276 658.733 326.839 659.515 325.712V326.54C659.515 326.839 659.676 327 659.975 327H660.573C660.872 327 661.033 326.839 661.033 326.54V319.525C661.033 316.857 659.239 315.224 656.663 315.224ZM656.318 325.85C654.271 325.85 653.351 324.884 653.351 323.573C653.351 322.262 654.271 321.296 656.318 321.296C658.158 321.296 659.515 322.17 659.515 323.573C659.515 324.884 658.158 325.85 656.318 325.85ZM674.305 323.32H673.638C673.385 323.32 673.201 323.435 673.086 323.665C672.419 324.953 671.016 325.804 669.337 325.804C666.784 325.804 664.806 323.803 664.806 321.25C664.806 318.697 666.784 316.696 669.337 316.696C670.993 316.696 672.396 317.524 673.086 318.835C673.201 319.065 673.385 319.18 673.638 319.18H674.305C674.627 319.18 674.811 318.973 674.673 318.651C673.845 316.604 671.775 315.224 669.337 315.224C665.864 315.224 663.288 317.846 663.288 321.25C663.288 324.654 665.864 327.276 669.337 327.276C671.775 327.276 673.868 325.896 674.673 323.849C674.811 323.527 674.627 323.32 674.305 323.32ZM682.361 315.224C678.796 315.224 676.473 317.869 676.473 321.25C676.473 324.723 678.842 327.276 682.361 327.276C684.707 327.276 686.593 326.057 687.375 324.309C687.49 324.033 687.306 323.849 686.961 323.849H686.225C685.972 323.849 685.811 323.964 685.673 324.171C685.098 325.114 683.925 325.804 682.384 325.804C680.038 325.804 678.336 324.355 678.037 322.009H686.386H687.467C687.743 322.009 687.927 321.871 687.95 321.572V321.296C687.95 318.145 685.88 315.224 682.361 315.224ZM682.361 316.696C684.316 316.696 686.087 318.007 686.363 320.537H678.014C678.313 318.306 679.923 316.696 682.361 316.696Z" fill="white"/>
<path d="M776.558 326.425L769.152 318.743L776.328 311.475C776.604 311.199 776.466 310.9 776.075 310.9H775.086C774.856 310.9 774.695 310.969 774.534 311.13L767.45 318.26V311.36C767.45 311.061 767.289 310.9 766.99 310.9H766.3C766.001 310.9 765.84 311.061 765.84 311.36V326.54C765.84 326.839 766.001 327 766.3 327H766.99C767.289 327 767.45 326.839 767.45 326.54V319.203L774.764 326.77C774.925 326.954 775.109 327 775.339 327H776.328C776.719 327 776.834 326.724 776.558 326.425ZM786.737 315.5H786.139C785.84 315.5 785.679 315.661 785.679 315.96V321.986C785.679 324.838 783.977 325.804 782.413 325.804C780.872 325.804 779.745 324.838 779.745 323.021V315.96C779.745 315.661 779.584 315.5 779.285 315.5H778.687C778.388 315.5 778.227 315.661 778.227 315.96V323.021C778.227 325.666 779.998 327.276 782.137 327.276C783.517 327.276 784.759 326.862 785.656 325.482V326.54C785.656 326.839 785.817 327 786.116 327H786.714C787.013 327 787.174 326.839 787.174 326.54V315.96C787.174 315.661 787.013 315.5 786.714 315.5H786.737ZM796.571 315.224C794.501 315.224 792.868 316.213 791.925 317.754V311.36C791.925 311.061 791.764 310.9 791.465 310.9H790.867C790.568 310.9 790.407 311.061 790.407 311.36V326.54C790.407 326.839 790.568 327 790.867 327H791.465C791.764 327 791.925 326.839 791.925 326.54V324.769C792.868 326.31 794.501 327.276 796.571 327.276C799.814 327.276 802.505 324.654 802.505 321.25C802.505 317.846 799.814 315.224 796.571 315.224ZM796.456 325.804C793.903 325.804 791.925 323.803 791.925 321.25C791.925 318.697 793.903 316.696 796.456 316.696C799.009 316.696 800.987 318.697 800.987 321.25C800.987 323.803 799.009 325.804 796.456 325.804ZM810.227 315.224C806.662 315.224 804.339 317.869 804.339 321.25C804.339 324.723 806.708 327.276 810.227 327.276C812.573 327.276 814.459 326.057 815.241 324.309C815.356 324.033 815.172 323.849 814.827 323.849H814.091C813.838 323.849 813.677 323.964 813.539 324.171C812.964 325.114 811.791 325.804 810.25 325.804C807.904 325.804 806.202 324.355 805.903 322.009H814.252H815.333C815.609 322.009 815.793 321.871 815.816 321.572V321.296C815.816 318.145 813.746 315.224 810.227 315.224ZM810.227 316.696C812.182 316.696 813.953 318.007 814.229 320.537H805.88C806.179 318.306 807.789 316.696 810.227 316.696ZM822.816 315.339C821.551 315.454 820.424 315.96 819.642 317.271V315.96C819.642 315.661 819.481 315.5 819.182 315.5H818.584C818.285 315.5 818.124 315.661 818.124 315.96V326.54C818.124 326.839 818.285 327 818.584 327H819.182C819.481 327 819.642 326.839 819.642 326.54V320.606C819.642 317.915 821.252 316.903 822.977 316.788C823.161 316.788 823.276 316.604 823.276 316.328V315.776C823.276 315.477 823.115 315.316 822.816 315.339ZM830.416 315.224C829.013 315.224 827.771 315.661 826.874 317.041V315.96C826.874 315.661 826.713 315.5 826.414 315.5H825.816C825.517 315.5 825.356 315.661 825.356 315.96V326.54C825.356 326.839 825.517 327 825.816 327H826.414C826.713 327 826.874 326.839 826.874 326.54V320.514C826.874 317.662 828.576 316.696 830.14 316.696C831.681 316.696 832.808 317.662 832.808 319.479V326.54C832.808 326.839 832.969 327 833.268 327H833.866C834.165 327 834.326 326.839 834.326 326.54V319.479C834.326 316.834 832.555 315.224 830.416 315.224ZM842.458 315.224C838.893 315.224 836.57 317.869 836.57 321.25C836.57 324.723 838.939 327.276 842.458 327.276C844.804 327.276 846.69 326.057 847.472 324.309C847.587 324.033 847.403 323.849 847.058 323.849H846.322C846.069 323.849 845.908 323.964 845.77 324.171C845.195 325.114 844.022 325.804 842.481 325.804C840.135 325.804 838.433 324.355 838.134 322.009H846.483H847.564C847.84 322.009 848.024 321.871 848.047 321.572V321.296C848.047 318.145 845.977 315.224 842.458 315.224ZM842.458 316.696C844.413 316.696 846.184 318.007 846.46 320.537H838.111C838.41 318.306 840.02 316.696 842.458 316.696ZM854.958 315.5H853.026V312.28C853.026 311.981 852.865 311.82 852.566 311.82H851.968C851.669 311.82 851.508 311.981 851.508 312.28V315.5H849.553C849.254 315.5 849.093 315.661 849.093 315.96V316.512C849.093 316.811 849.254 316.972 849.553 316.972H851.508V326.54C851.508 326.839 851.669 327 851.968 327H852.566C852.865 327 853.026 326.839 853.026 326.54V316.972H854.958C855.257 316.972 855.418 316.811 855.418 316.512V315.96C855.418 315.661 855.257 315.5 854.958 315.5ZM862.246 315.224C858.681 315.224 856.358 317.869 856.358 321.25C856.358 324.723 858.727 327.276 862.246 327.276C864.592 327.276 866.478 326.057 867.26 324.309C867.375 324.033 867.191 323.849 866.846 323.849H866.11C865.857 323.849 865.696 323.964 865.558 324.171C864.983 325.114 863.81 325.804 862.269 325.804C859.923 325.804 858.221 324.355 857.922 322.009H866.271H867.352C867.628 322.009 867.812 321.871 867.835 321.572V321.296C867.835 318.145 865.765 315.224 862.246 315.224ZM862.246 316.696C864.201 316.696 865.972 318.007 866.248 320.537H857.899C858.198 318.306 859.808 316.696 862.246 316.696ZM871.316 318.513C871.316 317.225 872.604 316.696 873.823 316.696C874.927 316.696 876.077 317.133 876.284 318.398C876.353 318.674 876.491 318.835 876.767 318.835H877.365C877.664 318.835 877.848 318.674 877.825 318.352C877.595 316.42 875.985 315.224 873.823 315.224C871.5 315.224 869.798 316.627 869.798 318.513C869.798 322.814 876.56 321.066 876.56 323.987C876.56 325.275 875.272 325.804 873.823 325.804C872.512 325.804 871.339 325.367 871.132 324.102C871.063 323.826 870.925 323.665 870.649 323.665H870.051C869.752 323.665 869.568 323.826 869.591 324.148C869.821 326.08 871.454 327.276 873.823 327.276C876.376 327.276 878.078 325.873 878.078 323.987C878.078 319.686 871.316 321.434 871.316 318.513ZM891.417 327.276C894.131 327.276 896.592 325.62 896.592 322.929C896.592 319.962 893.832 319.065 891.394 318.122C889.462 317.386 887.852 316.673 887.852 314.833C887.852 313.131 889.324 312.188 891.095 312.188C892.889 312.188 894.292 313.085 894.499 314.787C894.522 315.063 894.683 315.224 894.959 315.224H895.672C895.971 315.224 896.132 315.063 896.109 314.741C895.879 312.096 893.648 310.624 891.095 310.624C888.588 310.624 886.242 312.165 886.242 314.833C886.242 317.961 888.933 318.789 891.371 319.709C893.28 320.422 894.982 321.181 894.982 322.929C894.982 324.654 893.395 325.712 891.417 325.712C889.255 325.712 887.645 324.7 887.415 322.791C887.392 322.492 887.231 322.331 886.955 322.331H886.242C885.943 322.331 885.782 322.492 885.805 322.814C886.035 325.689 888.519 327.276 891.417 327.276ZM904.316 315.224C900.751 315.224 898.428 317.869 898.428 321.25C898.428 324.723 900.797 327.276 904.316 327.276C906.662 327.276 908.548 326.057 909.33 324.309C909.445 324.033 909.261 323.849 908.916 323.849H908.18C907.927 323.849 907.766 323.964 907.628 324.171C907.053 325.114 905.88 325.804 904.339 325.804C901.993 325.804 900.291 324.355 899.992 322.009H908.341H909.422C909.698 322.009 909.882 321.871 909.905 321.572V321.296C909.905 318.145 907.835 315.224 904.316 315.224ZM904.316 316.696C906.271 316.696 908.042 318.007 908.318 320.537H899.969C900.268 318.306 901.878 316.696 904.316 316.696ZM916.905 315.339C915.64 315.454 914.513 315.96 913.731 317.271V315.96C913.731 315.661 913.57 315.5 913.271 315.5H912.673C912.374 315.5 912.213 315.661 912.213 315.96V326.54C912.213 326.839 912.374 327 912.673 327H913.271C913.57 327 913.731 326.839 913.731 326.54V320.606C913.731 317.915 915.341 316.903 917.066 316.788C917.25 316.788 917.365 316.604 917.365 316.328V315.776C917.365 315.477 917.204 315.316 916.905 315.339ZM927.84 315.5H927.196C926.943 315.5 926.759 315.615 926.667 315.868L923.24 325.344L919.813 315.868C919.721 315.615 919.537 315.5 919.284 315.5H918.64C918.318 315.5 918.157 315.707 918.272 316.029L922.182 326.632C922.274 326.862 922.458 327 922.711 327H923.194H923.769C924.022 327 924.206 326.885 924.298 326.632L928.208 316.029C928.323 315.707 928.162 315.5 927.84 315.5ZM930.709 313.2H931.307C931.606 313.2 931.767 313.039 931.767 312.74V311.36C931.767 311.061 931.606 310.9 931.307 310.9H930.709C930.41 310.9 930.249 311.061 930.249 311.36V312.74C930.249 313.039 930.41 313.2 930.709 313.2ZM930.709 327H931.307C931.606 327 931.767 326.839 931.767 326.54V315.96C931.767 315.661 931.606 315.5 931.307 315.5H930.709C930.41 315.5 930.249 315.661 930.249 315.96V326.54C930.249 326.839 930.41 327 930.709 327ZM945.315 323.32H944.648C944.395 323.32 944.211 323.435 944.096 323.665C943.429 324.953 942.026 325.804 940.347 325.804C937.794 325.804 935.816 323.803 935.816 321.25C935.816 318.697 937.794 316.696 940.347 316.696C942.003 316.696 943.406 317.524 944.096 318.835C944.211 319.065 944.395 319.18 944.648 319.18H945.315C945.637 319.18 945.821 318.973 945.683 318.651C944.855 316.604 942.785 315.224 940.347 315.224C936.874 315.224 934.298 317.846 934.298 321.25C934.298 324.654 936.874 327.276 940.347 327.276C942.785 327.276 944.878 325.896 945.683 323.849C945.821 323.527 945.637 323.32 945.315 323.32ZM953.371 315.224C949.806 315.224 947.483 317.869 947.483 321.25C947.483 324.723 949.852 327.276 953.371 327.276C955.717 327.276 957.603 326.057 958.384 324.309C958.5 324.033 958.316 323.849 957.971 323.849H957.235C956.982 323.849 956.821 323.964 956.683 324.171C956.108 325.114 954.935 325.804 953.394 325.804C951.048 325.804 949.346 324.355 949.047 322.009H957.396H958.477C958.753 322.009 958.937 321.871 958.96 321.572V321.296C958.96 318.145 956.89 315.224 953.371 315.224ZM953.371 316.696C955.326 316.696 957.097 318.007 957.373 320.537H949.024C949.323 318.306 950.933 316.696 953.371 316.696Z" fill="white"/>
<path fill-rule="evenodd" clip-rule="evenodd" d="M572.757 285.516C539.669 269.778 525.687 230.371 541.527 197.497C549.133 181.711 562.74 169.573 579.354 163.754C595.968 157.935 614.229 158.912 630.118 166.469C663.206 182.207 677.188 221.614 661.348 254.488C645.508 287.361 605.844 301.253 572.757 285.516V285.516Z" fill="#D62783"/>
<path fill-rule="evenodd" clip-rule="evenodd" d="M599.596 234.04C595.036 234.04 591.488 230.468 591.488 225.874C591.488 221.28 595.036 217.707 599.596 217.707C604.156 217.707 607.703 221.28 607.703 225.874C607.703 230.468 604.156 234.04 599.596 234.04" fill="white"/>
<path fill-rule="evenodd" clip-rule="evenodd" d="M615.431 229.702C613.405 229.702 611.631 228.042 611.631 225.873C611.631 223.831 613.277 222.045 615.431 222.045C617.457 222.045 619.232 223.704 619.232 225.873C619.232 228.042 617.458 229.701 615.431 229.701V229.702ZM629.113 233.273C628.606 235.314 626.579 236.461 624.552 235.951C622.526 235.441 621.385 233.4 621.892 231.359C622.398 229.318 624.425 228.166 626.452 228.677C628.349 229.187 629.617 230.973 629.237 233.016C629.237 233.016 629.237 233.143 629.111 233.27L629.113 233.273ZM626.448 223.572C624.42 224.082 622.394 222.806 621.887 220.764C621.38 218.723 622.647 216.681 624.674 216.17C626.7 215.66 628.728 216.936 629.234 218.979C629.361 219.489 629.361 219.999 629.234 220.509C629.107 221.914 628.094 223.189 626.447 223.572H626.448ZM639.874 232.759C639.493 234.8 637.592 236.204 635.566 235.822C633.539 235.439 632.145 233.525 632.526 231.483C632.906 229.442 634.806 228.038 636.833 228.42C638.733 228.803 640.127 230.59 640 232.504C639.875 232.631 639.875 232.631 639.875 232.759H639.874ZM636.84 223.321C634.813 223.704 632.913 222.301 632.533 220.259C632.153 218.218 633.546 216.303 635.573 215.92C637.6 215.538 639.5 216.941 639.88 218.983C639.88 219.365 640.007 219.621 639.88 220.003C639.753 221.662 638.487 223.066 636.84 223.321ZM634.179 245.907C633.166 247.693 630.886 248.332 629.112 247.31C627.339 246.29 626.705 243.993 627.719 242.206C628.732 240.42 631.013 239.781 632.786 240.803C634.053 241.568 634.812 242.972 634.686 244.376C634.56 244.886 634.433 245.396 634.179 245.906V245.907ZM632.786 211.199C631.013 212.22 628.732 211.582 627.719 209.795C626.706 208.009 627.339 205.712 629.112 204.691C630.886 203.671 633.166 204.308 634.179 206.095C634.56 206.86 634.686 207.499 634.686 208.264C634.56 209.413 633.926 210.561 632.786 211.199" fill="white"/>
<path d="M599.723 264.027C589.589 264.027 580.215 260.071 572.994 252.926C566.027 245.651 562.1 236.078 562.1 225.999C562.1 215.79 566.027 206.348 573.12 199.073C580.215 191.929 589.715 187.974 599.723 187.974C608.084 187.974 616.064 190.653 622.652 195.758L617.966 201.882C612.645 197.802 606.311 195.632 599.725 195.632C591.745 195.632 584.144 198.822 578.444 204.564C572.745 210.306 569.705 217.835 569.705 226.001C569.705 234.04 572.871 241.697 578.572 247.439C584.272 253.181 591.747 256.243 599.854 256.243C606.568 256.243 612.902 254.074 618.095 249.99L622.656 256.114C616.069 261.217 608.089 264.025 599.728 264.025L599.723 264.027Z" fill="white"/>
<path d="M837.48 365.371C837.685 363.449 836.293 361.725 834.371 361.52L803.049 358.177C801.127 357.972 799.403 359.364 799.198 361.286C798.992 363.208 800.384 364.932 802.306 365.138L830.148 368.109L827.177 395.951C826.972 397.873 828.364 399.597 830.286 399.802C832.208 400.008 833.932 398.616 834.138 396.694L837.48 365.371ZM696.198 480.724L836.198 367.724L831.802 362.276L691.802 475.276L696.198 480.724Z" fill="#E75225"/>
<path d="M1094.59 310.9H1090.45H1089.3C1089 310.9 1088.84 311.061 1088.84 311.36V326.54C1088.84 326.839 1089 327 1089.3 327H1089.99C1090.29 327 1090.45 326.839 1090.45 326.54V320.56H1094.59C1097.26 320.56 1099.42 318.375 1099.42 315.73C1099.42 313.062 1097.26 310.9 1094.59 310.9ZM1094.59 319.042H1090.45V312.418H1094.59C1096.36 312.418 1097.81 313.89 1097.81 315.73C1097.81 317.547 1096.36 319.042 1094.59 319.042ZM1106.39 327.276C1109.75 327.276 1112.44 324.654 1112.44 321.25C1112.44 317.846 1109.75 315.224 1106.39 315.224C1103.03 315.224 1100.34 317.846 1100.34 321.25C1100.34 324.654 1103.03 327.276 1106.39 327.276ZM1106.39 325.804C1103.84 325.804 1101.86 323.803 1101.86 321.25C1101.86 318.697 1103.84 316.696 1106.39 316.696C1108.94 316.696 1110.92 318.697 1110.92 321.25C1110.92 323.803 1108.94 325.804 1106.39 325.804ZM1125.93 310.9H1125.33C1125.03 310.9 1124.87 311.061 1124.87 311.36V317.754C1123.9 316.213 1122.27 315.224 1120.22 315.224C1116.98 315.224 1114.29 317.846 1114.29 321.25C1114.29 324.654 1116.98 327.276 1120.22 327.276C1122.27 327.276 1123.9 326.31 1124.87 324.769V326.54C1124.87 326.839 1125.03 327 1125.33 327H1125.93C1126.23 327 1126.39 326.839 1126.39 326.54V311.36C1126.39 311.061 1126.23 310.9 1125.93 310.9ZM1120.34 325.804C1117.79 325.804 1115.81 323.803 1115.81 321.25C1115.81 318.697 1117.79 316.696 1120.34 316.696C1122.89 316.696 1124.87 318.697 1124.87 321.25C1124.87 323.803 1122.89 325.804 1120.34 325.804Z" fill="white"/>
<path d="M592.902 745.9H588.762H587.612C587.313 745.9 587.152 746.061 587.152 746.36V761.54C587.152 761.839 587.313 762 587.612 762H588.302C588.601 762 588.762 761.839 588.762 761.54V755.56H592.902C595.57 755.56 597.732 753.375 597.732 750.73C597.732 748.062 595.57 745.9 592.902 745.9ZM592.902 754.042H588.762V747.418H592.902C594.673 747.418 596.122 748.89 596.122 750.73C596.122 752.547 594.673 754.042 592.902 754.042ZM604.731 750.339C603.466 750.454 602.339 750.96 601.557 752.271V750.96C601.557 750.661 601.396 750.5 601.097 750.5H600.499C600.2 750.5 600.039 750.661 600.039 750.96V761.54C600.039 761.839 600.2 762 600.499 762H601.097C601.396 762 601.557 761.839 601.557 761.54V755.606C601.557 752.915 603.167 751.903 604.892 751.788C605.076 751.788 605.191 751.604 605.191 751.328V750.776C605.191 750.477 605.03 750.316 604.731 750.339ZM611.934 762.276C615.292 762.276 617.983 759.654 617.983 756.25C617.983 752.846 615.292 750.224 611.934 750.224C608.576 750.224 605.885 752.846 605.885 756.25C605.885 759.654 608.576 762.276 611.934 762.276ZM611.934 760.804C609.381 760.804 607.403 758.803 607.403 756.25C607.403 753.697 609.381 751.696 611.934 751.696C614.487 751.696 616.465 753.697 616.465 756.25C616.465 758.803 614.487 760.804 611.934 760.804ZM631.609 750.224C630.321 750.224 629.079 750.661 628.182 752.179C627.561 750.891 626.365 750.224 625.1 750.224C624.019 750.224 622.892 750.615 622.018 751.834V750.96C622.018 750.661 621.857 750.5 621.558 750.5H620.96C620.661 750.5 620.5 750.661 620.5 750.96V761.54C620.5 761.839 620.661 762 620.96 762H621.558C621.857 762 622.018 761.839 622.018 761.54V755.054C622.018 752.432 623.674 751.696 624.824 751.696C626.043 751.696 627.101 752.432 627.101 754.249V761.54C627.101 761.839 627.262 762 627.561 762H628.159C628.458 762 628.619 761.839 628.619 761.54V755.054C628.619 752.432 630.275 751.696 631.425 751.696C632.644 751.696 633.702 752.432 633.702 754.249V761.54C633.702 761.839 633.863 762 634.162 762H634.76C635.059 762 635.22 761.839 635.22 761.54V754.249C635.22 751.604 633.518 750.224 631.586 750.224H631.609ZM643.375 750.224C639.81 750.224 637.487 752.869 637.487 756.25C637.487 759.723 639.856 762.276 643.375 762.276C645.721 762.276 647.607 761.057 648.389 759.309C648.504 759.033 648.32 758.849 647.975 758.849H647.239C646.986 758.849 646.825 758.964 646.687 759.171C646.112 760.114 644.939 760.804 643.398 760.804C641.052 760.804 639.35 759.355 639.051 757.009H647.4H648.481C648.757 757.009 648.941 756.871 648.964 756.572V756.296C648.964 753.145 646.894 750.224 643.375 750.224ZM643.375 751.696C645.33 751.696 647.101 753.007 647.377 755.537H639.028C639.327 753.306 640.937 751.696 643.375 751.696ZM655.875 750.5H653.943V747.28C653.943 746.981 653.782 746.82 653.483 746.82H652.885C652.586 746.82 652.425 746.981 652.425 747.28V750.5H650.47C650.171 750.5 650.01 750.661 650.01 750.96V751.512C650.01 751.811 650.171 751.972 650.47 751.972H652.425V761.54C652.425 761.839 652.586 762 652.885 762H653.483C653.782 762 653.943 761.839 653.943 761.54V751.972H655.875C656.174 751.972 656.335 751.811 656.335 751.512V750.96C656.335 750.661 656.174 750.5 655.875 750.5ZM663.475 750.224C662.072 750.224 660.83 750.661 659.933 752.041V746.36C659.933 746.061 659.772 745.9 659.473 745.9H658.875C658.576 745.9 658.415 746.061 658.415 746.36V761.54C658.415 761.839 658.576 762 658.875 762H659.473C659.772 762 659.933 761.839 659.933 761.54V755.514C659.933 752.662 661.635 751.696 663.199 751.696C664.74 751.696 665.867 752.662 665.867 754.479V761.54C665.867 761.839 666.028 762 666.327 762H666.925C667.224 762 667.385 761.839 667.385 761.54V754.479C667.385 751.834 665.614 750.224 663.475 750.224ZM675.517 750.224C671.952 750.224 669.629 752.869 669.629 756.25C669.629 759.723 671.998 762.276 675.517 762.276C677.863 762.276 679.749 761.057 680.531 759.309C680.646 759.033 680.462 758.849 680.117 758.849H679.381C679.128 758.849 678.967 758.964 678.829 759.171C678.254 760.114 677.081 760.804 675.54 760.804C673.194 760.804 671.492 759.355 671.193 757.009H679.542H680.623C680.899 757.009 681.083 756.871 681.106 756.572V756.296C681.106 753.145 679.036 750.224 675.517 750.224ZM675.517 751.696C677.472 751.696 679.243 753.007 679.519 755.537H671.17C671.469 753.306 673.079 751.696 675.517 751.696ZM691.648 750.5H691.05C690.751 750.5 690.59 750.661 690.59 750.96V756.986C690.59 759.838 688.888 760.804 687.324 760.804C685.783 760.804 684.656 759.838 684.656 758.021V750.96C684.656 750.661 684.495 750.5 684.196 750.5H683.598C683.299 750.5 683.138 750.661 683.138 750.96V758.021C683.138 760.666 684.909 762.276 687.048 762.276C688.428 762.276 689.67 761.862 690.567 760.482V761.54C690.567 761.839 690.728 762 691.027 762H691.625C691.924 762 692.085 761.839 692.085 761.54V750.96C692.085 750.661 691.924 750.5 691.625 750.5H691.648ZM696.491 753.513C696.491 752.225 697.779 751.696 698.998 751.696C700.102 751.696 701.252 752.133 701.459 753.398C701.528 753.674 701.666 753.835 701.942 753.835H702.54C702.839 753.835 703.023 753.674 703 753.352C702.77 751.42 701.16 750.224 698.998 750.224C696.675 750.224 694.973 751.627 694.973 753.513C694.973 757.814 701.735 756.066 701.735 758.987C701.735 760.275 700.447 760.804 698.998 760.804C697.687 760.804 696.514 760.367 696.307 759.102C696.238 758.826 696.1 758.665 695.824 758.665H695.226C694.927 758.665 694.743 758.826 694.766 759.148C694.996 761.08 696.629 762.276 698.998 762.276C701.551 762.276 703.253 760.873 703.253 758.987C703.253 754.686 696.491 756.434 696.491 753.513ZM719.283 762.276C723.975 762.276 727.609 758.55 727.609 753.95C727.609 749.35 723.975 745.624 719.283 745.624C714.591 745.624 710.957 749.35 710.957 753.95C710.957 758.55 714.591 762.276 719.283 762.276ZM719.283 760.712C715.465 760.712 712.567 757.699 712.567 753.95C712.567 750.201 715.465 747.188 719.283 747.188C723.101 747.188 725.999 750.201 725.999 753.95C725.999 757.699 723.101 760.712 719.283 760.712ZM736.296 750.224C734.226 750.224 732.593 751.213 731.65 752.754V750.96C731.65 750.661 731.489 750.5 731.19 750.5H730.592C730.293 750.5 730.132 750.661 730.132 750.96V766.14C730.132 766.439 730.293 766.6 730.592 766.6H731.19C731.489 766.6 731.65 766.439 731.65 766.14V759.769C732.593 761.31 734.226 762.276 736.296 762.276C739.539 762.276 742.23 759.654 742.23 756.25C742.23 752.846 739.539 750.224 736.296 750.224ZM736.181 760.804C733.628 760.804 731.65 758.803 731.65 756.25C731.65 753.697 733.628 751.696 736.181 751.696C738.734 751.696 740.712 753.697 740.712 756.25C740.712 758.803 738.734 760.804 736.181 760.804ZM749.953 750.224C746.388 750.224 744.065 752.869 744.065 756.25C744.065 759.723 746.434 762.276 749.953 762.276C752.299 762.276 754.185 761.057 754.967 759.309C755.082 759.033 754.898 758.849 754.553 758.849H753.817C753.564 758.849 753.403 758.964 753.265 759.171C752.69 760.114 751.517 760.804 749.976 760.804C747.63 760.804 745.928 759.355 745.629 757.009H753.978H755.059C755.335 757.009 755.519 756.871 755.542 756.572V756.296C755.542 753.145 753.472 750.224 749.953 750.224ZM749.953 751.696C751.908 751.696 753.679 753.007 753.955 755.537H745.606C745.905 753.306 747.515 751.696 749.953 751.696ZM762.541 750.339C761.276 750.454 760.149 750.96 759.367 752.271V750.96C759.367 750.661 759.206 750.5 758.907 750.5H758.309C758.01 750.5 757.849 750.661 757.849 750.96V761.54C757.849 761.839 758.01 762 758.309 762H758.907C759.206 762 759.367 761.839 759.367 761.54V755.606C759.367 752.915 760.977 751.903 762.702 751.788C762.886 751.788 763.001 751.604 763.001 751.328V750.776C763.001 750.477 762.84 750.316 762.541 750.339ZM768.997 750.224C766.605 750.224 764.903 751.627 764.65 753.582C764.627 753.904 764.811 754.065 765.11 754.065H765.708C765.984 754.065 766.122 753.904 766.191 753.628C766.421 752.317 767.663 751.696 768.997 751.696C770.469 751.696 771.849 752.455 771.849 754.525V756.388C771.067 755.399 769.733 754.87 768.284 754.87C766.168 754.87 764.167 756.089 764.167 758.573C764.167 761.057 766.168 762.276 768.284 762.276C769.733 762.276 771.067 761.839 771.849 760.712V761.54C771.849 761.839 772.01 762 772.309 762H772.907C773.206 762 773.367 761.839 773.367 761.54V754.525C773.367 751.857 771.573 750.224 768.997 750.224ZM768.652 760.85C766.605 760.85 765.685 759.884 765.685 758.573C765.685 757.262 766.605 756.296 768.652 756.296C770.492 756.296 771.849 757.17 771.849 758.573C771.849 759.884 770.492 760.85 768.652 760.85ZM781.027 750.5H779.095V747.28C779.095 746.981 778.934 746.82 778.635 746.82H778.037C777.738 746.82 777.577 746.981 777.577 747.28V750.5H775.622C775.323 750.5 775.162 750.661 775.162 750.96V751.512C775.162 751.811 775.323 751.972 775.622 751.972H777.577V761.54C777.577 761.839 777.738 762 778.037 762H778.635C778.934 762 779.095 761.839 779.095 761.54V751.972H781.027C781.326 751.972 781.487 751.811 781.487 751.512V750.96C781.487 750.661 781.326 750.5 781.027 750.5ZM788.477 762.276C791.835 762.276 794.526 759.654 794.526 756.25C794.526 752.846 791.835 750.224 788.477 750.224C785.119 750.224 782.428 752.846 782.428 756.25C782.428 759.654 785.119 762.276 788.477 762.276ZM788.477 760.804C785.924 760.804 783.946 758.803 783.946 756.25C783.946 753.697 785.924 751.696 788.477 751.696C791.03 751.696 793.008 753.697 793.008 756.25C793.008 758.803 791.03 760.804 788.477 760.804ZM801.758 750.339C800.493 750.454 799.366 750.96 798.584 752.271V750.96C798.584 750.661 798.423 750.5 798.124 750.5H797.526C797.227 750.5 797.066 750.661 797.066 750.96V761.54C797.066 761.839 797.227 762 797.526 762H798.124C798.423 762 798.584 761.839 798.584 761.54V755.606C798.584 752.915 800.194 751.903 801.919 751.788C802.103 751.788 802.218 751.604 802.218 751.328V750.776C802.218 750.477 802.057 750.316 801.758 750.339Z" fill="white"/>
<rect x="1047.5" y="170.5" width="119" height="119" rx="22.5" fill="#326CE5" stroke="#9D0FB0" stroke-width="5"/>
<path d="M1108.8 188.673C1108.05 188.711 1107.31 188.897 1106.63 189.219L1076.96 203.288C1076.19 203.652 1075.52 204.181 1074.99 204.837C1074.45 205.493 1074.08 206.258 1073.89 207.076L1066.57 238.678C1066.4 239.406 1066.38 240.16 1066.51 240.895C1066.65 241.631 1066.93 242.332 1067.34 242.959C1067.44 243.112 1067.55 243.261 1067.66 243.404L1088.2 268.743C1088.73 269.398 1089.41 269.928 1090.17 270.292C1090.94 270.655 1091.78 270.844 1092.64 270.844L1125.57 270.836C1126.42 270.837 1127.26 270.649 1128.03 270.286C1128.8 269.923 1129.47 269.394 1130 268.739L1150.53 243.396C1151.06 242.74 1151.44 241.974 1151.63 241.156C1151.82 240.338 1151.82 239.488 1151.63 238.67L1144.3 207.069C1144.11 206.251 1143.73 205.485 1143.2 204.83C1142.67 204.174 1142 203.644 1141.23 203.28L1111.55 189.219C1110.7 188.813 1109.75 188.626 1108.8 188.673V188.673Z" fill="white"/>
<path d="M1109.1 199.428C1108.12 199.428 1107.32 200.304 1107.32 201.386C1107.32 201.402 1107.33 201.418 1107.33 201.435C1107.32 201.582 1107.32 201.759 1107.32 201.887C1107.35 202.51 1107.48 202.988 1107.56 203.562C1107.71 204.792 1107.84 205.812 1107.76 206.76C1107.69 207.117 1107.42 207.444 1107.19 207.671L1107.14 208.416C1106.08 208.504 1105 208.664 1103.93 208.906C1099.32 209.945 1095.35 212.302 1092.33 215.485C1092.13 215.352 1091.79 215.107 1091.69 215.033C1091.37 215.075 1091.05 215.172 1090.63 214.931C1089.84 214.4 1089.11 213.667 1088.24 212.785C1087.84 212.362 1087.55 211.96 1087.07 211.553C1086.96 211.461 1086.8 211.336 1086.68 211.241C1086.3 210.946 1085.86 210.792 1085.44 210.777C1084.89 210.759 1084.37 210.971 1084.02 211.399C1083.41 212.16 1083.61 213.323 1084.46 213.997C1084.47 214.004 1084.48 214.009 1084.49 214.016C1084.6 214.11 1084.75 214.231 1084.85 214.31C1085.36 214.68 1085.82 214.87 1086.33 215.164C1087.39 215.815 1088.27 216.355 1088.97 217.006C1089.24 217.294 1089.29 217.803 1089.32 218.023L1089.89 218.527C1086.85 223.078 1085.44 228.699 1086.27 234.426L1085.53 234.641C1085.33 234.892 1085.05 235.287 1084.76 235.405C1083.85 235.691 1082.82 235.795 1081.58 235.925C1081 235.973 1080.49 235.944 1079.88 236.06C1079.74 236.086 1079.55 236.135 1079.4 236.169C1079.4 236.17 1079.39 236.172 1079.39 236.173C1079.38 236.175 1079.37 236.179 1079.36 236.181C1078.31 236.432 1077.64 237.386 1077.86 238.327C1078.07 239.268 1079.1 239.84 1080.15 239.615C1080.16 239.613 1080.17 239.613 1080.18 239.611C1080.19 239.609 1080.2 239.603 1080.21 239.6C1080.36 239.568 1080.54 239.532 1080.67 239.498C1081.28 239.337 1081.72 239.1 1082.26 238.892C1083.44 238.474 1084.41 238.124 1085.36 237.988C1085.75 237.957 1086.17 238.231 1086.38 238.346L1087.15 238.214C1088.93 243.695 1092.67 248.125 1097.4 250.904L1097.07 251.673C1097.19 251.971 1097.32 252.375 1097.23 252.669C1096.89 253.556 1096.3 254.492 1095.62 255.536C1095.3 256.019 1094.96 256.393 1094.67 256.945C1094.6 257.077 1094.51 257.28 1094.44 257.419C1093.99 258.388 1094.32 259.504 1095.2 259.923C1096.08 260.345 1097.18 259.9 1097.65 258.929C1097.65 258.928 1097.65 258.927 1097.65 258.925C1097.65 258.924 1097.65 258.923 1097.65 258.922C1097.72 258.784 1097.82 258.603 1097.87 258.474C1098.12 257.901 1098.21 257.411 1098.39 256.858C1098.86 255.687 1099.11 254.458 1099.76 253.692C1099.94 253.482 1100.23 253.402 1100.53 253.322L1100.93 252.599C1105.05 254.169 1109.66 254.59 1114.27 253.552C1115.32 253.315 1116.34 253.008 1117.32 252.64C1117.43 252.839 1117.64 253.222 1117.7 253.318C1118 253.417 1118.33 253.467 1118.6 253.864C1119.09 254.685 1119.42 255.655 1119.82 256.828C1120 257.381 1120.09 257.871 1120.34 258.443C1120.39 258.574 1120.49 258.757 1120.56 258.895C1121.03 259.869 1122.13 260.316 1123.01 259.893C1123.89 259.474 1124.22 258.358 1123.77 257.389C1123.7 257.249 1123.61 257.047 1123.54 256.915C1123.24 256.363 1122.91 255.992 1122.58 255.51C1121.91 254.466 1121.35 253.599 1121.01 252.712C1120.86 252.255 1121.03 251.97 1121.15 251.673C1121.08 251.596 1120.93 251.164 1120.85 250.961C1125.76 248.082 1129.39 243.487 1131.09 238.18C1131.32 238.216 1131.72 238.286 1131.85 238.312C1132.11 238.137 1132.36 237.909 1132.84 237.947C1133.79 238.083 1134.76 238.432 1135.94 238.851C1136.48 239.058 1136.92 239.299 1137.53 239.461C1137.66 239.495 1137.84 239.527 1137.99 239.559C1138 239.561 1138.01 239.567 1138.02 239.57C1138.03 239.572 1138.04 239.572 1138.05 239.574C1139.1 239.799 1140.13 239.227 1140.34 238.286C1140.56 237.345 1139.89 236.39 1138.84 236.139C1138.69 236.105 1138.47 236.047 1138.32 236.019C1137.71 235.903 1137.2 235.931 1136.62 235.883C1135.38 235.754 1134.35 235.649 1133.44 235.364C1133.06 235.22 1132.8 234.78 1132.67 234.599L1131.95 234.392C1132.32 231.722 1132.22 228.944 1131.58 226.164C1130.93 223.358 1129.78 220.792 1128.25 218.531C1128.44 218.365 1128.78 218.06 1128.88 217.97C1128.91 217.654 1128.89 217.322 1129.22 216.972C1129.91 216.321 1130.8 215.782 1131.86 215.131C1132.36 214.836 1132.83 214.647 1133.33 214.276C1133.45 214.192 1133.6 214.059 1133.72 213.963C1134.58 213.289 1134.77 212.126 1134.16 211.365C1133.55 210.604 1132.36 210.532 1131.51 211.207C1131.39 211.302 1131.23 211.426 1131.12 211.519C1130.64 211.926 1130.35 212.328 1129.94 212.751C1129.07 213.633 1128.35 214.37 1127.55 214.901C1127.21 215.1 1126.7 215.031 1126.47 215.018L1125.8 215.496C1121.95 211.488 1116.7 208.925 1111.06 208.428C1111.04 208.193 1111.02 207.768 1111.01 207.641C1110.78 207.421 1110.5 207.234 1110.43 206.76C1110.36 205.812 1110.48 204.792 1110.63 203.562C1110.72 202.988 1110.85 202.51 1110.88 201.887C1110.88 201.745 1110.87 201.539 1110.87 201.386C1110.87 200.304 1110.08 199.428 1109.1 199.428H1109.1ZM1106.87 213.097L1106.35 222.342L1106.31 222.361C1106.27 223.188 1105.59 223.848 1104.75 223.848C1104.4 223.848 1104.08 223.738 1103.82 223.551L1103.81 223.558L1096.17 218.185C1098.52 215.894 1101.52 214.201 1104.98 213.421C1105.61 213.279 1106.24 213.173 1106.87 213.097ZM1111.32 213.097C1115.37 213.59 1119.1 215.406 1121.96 218.188L1114.38 223.528L1114.35 223.517C1113.68 224.005 1112.73 223.884 1112.2 223.231C1111.99 222.963 1111.87 222.648 1111.86 222.331L1111.85 222.327L1111.32 213.097ZM1093.4 221.638L1100.37 227.828L1100.37 227.866C1101 228.409 1101.09 229.352 1100.56 230.005C1100.35 230.273 1100.06 230.452 1099.75 230.536L1099.74 230.566L1090.8 233.127C1090.35 228.998 1091.33 224.984 1093.4 221.638ZM1124.75 221.641C1125.78 223.308 1126.57 225.17 1127.03 227.188C1127.5 229.182 1127.61 231.173 1127.42 233.097L1118.44 230.528L1118.43 230.491C1117.62 230.273 1117.13 229.46 1117.32 228.646C1117.39 228.312 1117.57 228.03 1117.81 227.821L1117.81 227.802L1124.75 221.641H1124.75ZM1107.67 228.307H1110.52L1112.3 230.51L1111.66 233.259L1109.1 234.482L1106.52 233.255L1105.89 230.506L1107.67 228.307ZM1116.83 235.846C1116.95 235.839 1117.07 235.85 1117.19 235.872L1117.2 235.853L1126.45 237.405C1125.1 241.178 1122.51 244.447 1119.05 246.634L1115.46 238.03L1115.47 238.015C1115.14 237.254 1115.47 236.363 1116.23 236C1116.42 235.907 1116.62 235.856 1116.83 235.846H1116.83ZM1101.3 235.883C1102 235.893 1102.63 236.379 1102.8 237.092C1102.88 237.426 1102.84 237.756 1102.71 238.048L1102.74 238.082L1099.19 246.6C1095.87 244.486 1093.22 241.319 1091.81 237.435L1100.97 235.891L1100.99 235.91C1101.09 235.891 1101.2 235.882 1101.3 235.883V235.883ZM1109.04 239.615C1109.29 239.606 1109.54 239.656 1109.77 239.769C1110.08 239.918 1110.32 240.152 1110.47 240.432H1110.51L1115.03 248.536C1114.44 248.731 1113.84 248.898 1113.22 249.037C1109.77 249.816 1106.32 249.58 1103.2 248.525L1107.71 240.436H1107.72C1107.99 239.934 1108.5 239.635 1109.04 239.615Z" fill="#326CE5" stroke="#9D0FB0" stroke-width="0.25"/>
<path d="M36.84 312.36V327.54C36.84 327.839 37.001 328 37.3 328H37.99C38.289 328 38.45 327.839 38.45 327.54V312.36C38.45 312.061 38.289 311.9 37.99 311.9H37.3C37.001 311.9 36.84 312.061 36.84 312.36ZM46.9708 316.224C45.5678 316.224 44.3258 316.661 43.4288 318.041V316.96C43.4288 316.661 43.2678 316.5 42.9688 316.5H42.3708C42.0718 316.5 41.9108 316.661 41.9108 316.96V327.54C41.9108 327.839 42.0718 328 42.3708 328H42.9688C43.2678 328 43.4288 327.839 43.4288 327.54V321.514C43.4288 318.662 45.1308 317.696 46.6948 317.696C48.2358 317.696 49.3628 318.662 49.3628 320.479V327.54C49.3628 327.839 49.5238 328 49.8228 328H50.4208C50.7198 328 50.8808 327.839 50.8808 327.54V320.479C50.8808 317.834 49.1098 316.224 46.9708 316.224ZM64.7631 316.5H64.1651C63.8661 316.5 63.7051 316.661 63.7051 316.96V318.754C62.7391 317.213 61.1061 316.224 59.0591 316.224C55.8161 316.224 53.1251 318.846 53.1251 322.25C53.1251 325.654 55.8161 328.276 59.0591 328.276C61.1061 328.276 62.7391 327.31 63.7051 325.769V327.54C63.7051 329.886 62.2331 331.404 59.4501 331.404C57.2191 331.404 55.8161 330.116 55.5171 328.989C55.4481 328.713 55.3101 328.575 55.0341 328.575H54.4361C54.1371 328.575 53.9531 328.736 53.9761 329.058C54.2981 331.243 56.8281 332.876 59.4501 332.876C62.5321 332.876 65.2231 331.036 65.2231 327.54V316.96C65.2231 316.661 65.0621 316.5 64.7631 316.5ZM59.1741 326.804C56.6211 326.804 54.6431 324.803 54.6431 322.25C54.6431 319.697 56.6211 317.696 59.1741 317.696C61.7271 317.696 63.7051 319.697 63.7051 322.25C63.7051 324.803 61.7271 326.804 59.1741 326.804ZM73.1291 316.339C71.8641 316.454 70.7371 316.96 69.9551 318.271V316.96C69.9551 316.661 69.7941 316.5 69.4951 316.5H68.8971C68.5981 316.5 68.4371 316.661 68.4371 316.96V327.54C68.4371 327.839 68.5981 328 68.8971 328H69.4951C69.7941 328 69.9551 327.839 69.9551 327.54V321.606C69.9551 318.915 71.5651 317.903 73.2901 317.788C73.4741 317.788 73.5891 317.604 73.5891 317.328V316.776C73.5891 316.477 73.4281 316.316 73.1291 316.339ZM80.1713 316.224C76.6063 316.224 74.2833 318.869 74.2833 322.25C74.2833 325.723 76.6523 328.276 80.1713 328.276C82.5173 328.276 84.4033 327.057 85.1853 325.309C85.3003 325.033 85.1163 324.849 84.7713 324.849H84.0353C83.7823 324.849 83.6213 324.964 83.4833 325.171C82.9083 326.114 81.7353 326.804 80.1943 326.804C77.8483 326.804 76.1463 325.355 75.8473 323.009H84.1963H85.2773C85.5533 323.009 85.7373 322.871 85.7603 322.572V322.296C85.7603 319.145 83.6903 316.224 80.1713 316.224ZM80.1713 317.696C82.1263 317.696 83.8973 319.007 84.1733 321.537H75.8243C76.1233 319.306 77.7333 317.696 80.1713 317.696ZM89.241 319.513C89.241 318.225 90.529 317.696 91.748 317.696C92.852 317.696 94.002 318.133 94.209 319.398C94.278 319.674 94.416 319.835 94.692 319.835H95.29C95.589 319.835 95.773 319.674 95.75 319.352C95.52 317.42 93.91 316.224 91.748 316.224C89.425 316.224 87.723 317.627 87.723 319.513C87.723 323.814 94.485 322.066 94.485 324.987C94.485 326.275 93.197 326.804 91.748 326.804C90.437 326.804 89.264 326.367 89.057 325.102C88.988 324.826 88.85 324.665 88.574 324.665H87.976C87.677 324.665 87.493 324.826 87.516 325.148C87.746 327.08 89.379 328.276 91.748 328.276C94.301 328.276 96.003 326.873 96.003 324.987C96.003 320.686 89.241 322.434 89.241 319.513ZM99.5955 319.513C99.5955 318.225 100.884 317.696 102.103 317.696C103.207 317.696 104.357 318.133 104.564 319.398C104.633 319.674 104.771 319.835 105.047 319.835H105.645C105.944 319.835 106.128 319.674 106.105 319.352C105.875 317.42 104.265 316.224 102.103 316.224C99.7795 316.224 98.0775 317.627 98.0775 319.513C98.0775 323.814 104.84 322.066 104.84 324.987C104.84 326.275 103.552 326.804 102.103 326.804C100.792 326.804 99.6185 326.367 99.4115 325.102C99.3425 324.826 99.2045 324.665 98.9285 324.665H98.3305C98.0315 324.665 97.8475 324.826 97.8705 325.148C98.1005 327.08 99.7335 328.276 102.103 328.276C104.656 328.276 106.358 326.873 106.358 324.987C106.358 320.686 99.5955 322.434 99.5955 319.513ZM129.472 319.881H123.262C122.963 319.881 122.802 320.042 122.802 320.341V320.939C122.802 321.238 122.963 321.399 123.262 321.399H128.322V321.79C128.322 324.987 125.585 326.712 122.388 326.712C118.432 326.712 115.672 323.699 115.672 319.95C115.672 316.201 118.432 313.188 122.388 313.188C124.895 313.188 127.08 314.568 128.023 316.615C128.138 316.845 128.322 316.96 128.575 316.96H129.38C129.702 316.96 129.863 316.753 129.748 316.431C128.621 313.579 125.723 311.624 122.388 311.624C117.558 311.624 114.062 315.35 114.062 319.95C114.062 324.55 117.558 328.276 122.388 328.276C124.78 328.276 127.08 327.425 128.299 325.539V327.54C128.299 327.839 128.46 328 128.759 328H129.449C129.748 328 129.909 327.839 129.909 327.54V321.399V320.341C129.909 320.042 129.748 319.881 129.449 319.881H129.472ZM137.175 316.224C134.783 316.224 133.081 317.627 132.828 319.582C132.805 319.904 132.989 320.065 133.288 320.065H133.886C134.162 320.065 134.3 319.904 134.369 319.628C134.599 318.317 135.841 317.696 137.175 317.696C138.647 317.696 140.027 318.455 140.027 320.525V322.388C139.245 321.399 137.911 320.87 136.462 320.87C134.346 320.87 132.345 322.089 132.345 324.573C132.345 327.057 134.346 328.276 136.462 328.276C137.911 328.276 139.245 327.839 140.027 326.712V327.54C140.027 327.839 140.188 328 140.487 328H141.085C141.384 328 141.545 327.839 141.545 327.54V320.525C141.545 317.857 139.751 316.224 137.175 316.224ZM136.83 326.85C134.783 326.85 133.863 325.884 133.863 324.573C133.863 323.262 134.783 322.296 136.83 322.296C138.67 322.296 140.027 323.17 140.027 324.573C140.027 325.884 138.67 326.85 136.83 326.85ZM149.205 316.5H147.273V313.28C147.273 312.981 147.112 312.82 146.813 312.82H146.215C145.916 312.82 145.755 312.981 145.755 313.28V316.5H143.8C143.501 316.5 143.34 316.661 143.34 316.96V317.512C143.34 317.811 143.501 317.972 143.8 317.972H145.755V327.54C145.755 327.839 145.916 328 146.215 328H146.813C147.112 328 147.273 327.839 147.273 327.54V317.972H149.205C149.504 317.972 149.665 317.811 149.665 317.512V316.96C149.665 316.661 149.504 316.5 149.205 316.5ZM156.494 316.224C152.929 316.224 150.606 318.869 150.606 322.25C150.606 325.723 152.975 328.276 156.494 328.276C158.84 328.276 160.726 327.057 161.508 325.309C161.623 325.033 161.439 324.849 161.094 324.849H160.358C160.105 324.849 159.944 324.964 159.806 325.171C159.231 326.114 158.058 326.804 156.517 326.804C154.171 326.804 152.469 325.355 152.17 323.009H160.519H161.6C161.876 323.009 162.06 322.871 162.083 322.572V322.296C162.083 319.145 160.013 316.224 156.494 316.224ZM156.494 317.696C158.449 317.696 160.22 319.007 160.496 321.537H152.147C152.446 319.306 154.056 317.696 156.494 317.696ZM177.414 316.5H176.747C176.494 316.5 176.333 316.615 176.241 316.868L173.136 326.229L170.031 316.868C169.939 316.615 169.778 316.5 169.525 316.5H168.858C168.536 316.5 168.375 316.707 168.49 317.029L169.64 320.41L167.616 326.275L164.511 316.868C164.419 316.615 164.258 316.5 164.005 316.5H163.338C163.016 316.5 162.855 316.707 162.97 317.029L166.65 327.632C166.742 327.885 166.926 328 167.179 328H167.57H168.053C168.306 328 168.49 327.885 168.582 327.632L170.376 322.526L172.17 327.632C172.262 327.885 172.446 328 172.699 328H173.09H173.573C173.826 328 174.01 327.885 174.102 327.632L177.782 317.029C177.897 316.707 177.736 316.5 177.414 316.5ZM183.602 316.224C181.21 316.224 179.508 317.627 179.255 319.582C179.232 319.904 179.416 320.065 179.715 320.065H180.313C180.589 320.065 180.727 319.904 180.796 319.628C181.026 318.317 182.268 317.696 183.602 317.696C185.074 317.696 186.454 318.455 186.454 320.525V322.388C185.672 321.399 184.338 320.87 182.889 320.87C180.773 320.87 178.772 322.089 178.772 324.573C178.772 327.057 180.773 328.276 182.889 328.276C184.338 328.276 185.672 327.839 186.454 326.712V327.54C186.454 327.839 186.615 328 186.914 328H187.512C187.811 328 187.972 327.839 187.972 327.54V320.525C187.972 317.857 186.178 316.224 183.602 316.224ZM183.257 326.85C181.21 326.85 180.29 325.884 180.29 324.573C180.29 323.262 181.21 322.296 183.257 322.296C185.097 322.296 186.454 323.17 186.454 324.573C186.454 325.884 185.097 326.85 183.257 326.85ZM197.914 316.868L194.74 325.792L191.06 316.845C190.968 316.592 190.784 316.5 190.531 316.5H189.887C189.542 316.5 189.404 316.707 189.542 317.029L193.981 327.908L192.509 332.071C192.394 332.393 192.555 332.6 192.877 332.6H193.544C193.797 332.6 193.981 332.485 194.073 332.232L199.478 317.029C199.593 316.707 199.432 316.5 199.11 316.5H198.443C198.19 316.5 198.006 316.615 197.914 316.868Z" fill="white"/>
<path d="M89.8304 277.258C57.9854 262.112 44.5446 224.199 59.7788 192.582C67.0963 177.396 80.1887 165.714 96.1807 160.113C112.173 154.512 129.75 155.453 145.044 162.727C176.889 177.873 190.33 215.786 175.096 247.402C159.857 279.028 121.684 292.409 89.8304 277.258Z" fill="#D62783" stroke="#5FD4FF" stroke-width="5"/>
<path fill-rule="evenodd" clip-rule="evenodd" d="M116.371 228.067C111.811 228.067 108.264 224.494 108.264 219.9C108.264 215.307 111.811 211.733 116.371 211.733C120.932 211.733 124.479 215.307 124.479 219.9C124.479 224.494 120.932 228.067 116.371 228.067" fill="white"/>
<path fill-rule="evenodd" clip-rule="evenodd" d="M132.206 223.728C130.18 223.728 128.406 222.069 128.406 219.9C128.406 217.858 130.053 216.071 132.206 216.071C134.233 216.071 136.007 217.73 136.007 219.9C136.007 222.069 134.233 223.728 132.206 223.728V223.728ZM145.888 227.3C145.382 229.341 143.354 230.488 141.327 229.978C139.301 229.467 138.16 227.426 138.667 225.385C139.174 223.344 141.2 222.193 143.228 222.703C145.124 223.213 146.393 224.999 146.012 227.042C146.012 227.042 146.012 227.169 145.886 227.296L145.888 227.3ZM143.224 217.598C141.196 218.109 139.169 216.832 138.662 214.791C138.156 212.749 139.422 210.707 141.449 210.196C143.476 209.686 145.503 210.963 146.01 213.005C146.136 213.515 146.136 214.026 146.01 214.536C145.883 215.94 144.869 217.215 143.223 217.598H143.224ZM156.649 226.785C156.268 228.826 154.367 230.231 152.341 229.848C150.315 229.465 148.921 227.551 149.302 225.51C149.681 223.468 151.581 222.064 153.608 222.447C155.509 222.83 156.903 224.616 156.776 226.53C156.65 226.658 156.65 226.658 156.65 226.785H156.649ZM153.615 217.348C151.589 217.73 149.688 216.327 149.308 214.285C148.928 212.244 150.321 210.329 152.349 209.946C154.375 209.564 156.276 210.967 156.655 213.009C156.655 213.392 156.782 213.647 156.655 214.029C156.529 215.688 155.262 217.092 153.615 217.348ZM150.955 239.933C149.942 241.72 147.661 242.358 145.888 241.337C144.114 240.316 143.481 238.019 144.494 236.233C145.508 234.446 147.788 233.808 149.562 234.829C150.828 235.595 151.588 236.998 151.461 238.402C151.335 238.912 151.208 239.422 150.955 239.933V239.933ZM149.562 205.226C147.788 206.246 145.508 205.608 144.494 203.822C143.481 202.035 144.114 199.738 145.888 198.718C147.661 197.697 149.941 198.335 150.955 200.122C151.335 200.887 151.461 201.525 151.461 202.29C151.335 203.439 150.702 204.587 149.562 205.225" fill="white"/>
<path d="M116.498 258.053C106.364 258.053 96.99 254.097 89.7694 246.952C82.802 239.677 78.875 230.105 78.875 220.026C78.875 209.816 82.802 200.374 89.8958 193.1C96.99 185.956 106.491 182 116.498 182C124.859 182 132.84 184.679 139.427 189.785L134.742 195.908C129.421 191.828 123.086 189.659 116.501 189.659C108.52 189.659 100.919 192.849 95.2189 198.59C89.5208 204.333 86.4801 211.862 86.4801 220.028C86.4801 228.067 89.6468 235.723 95.3473 241.465C101.048 247.207 108.522 250.27 116.629 250.27C123.343 250.27 129.677 248.1 134.87 244.017L139.431 250.14C132.845 255.243 124.864 258.051 116.503 258.051L116.498 258.053Z" fill="white"/>
<g filter="url(#filter3_d_9982_31618)">
<rect x="176.5" y="266" width="112" height="30" rx="5" fill="#5FD4FF"/>
<path d="M191.533 285.594L188.831 282.29C189.923 281.772 190.665 280.68 190.665 279.462C190.665 277.656 189.209 276.2 187.417 276.2H185.625H184.029C183.819 276.2 183.707 276.326 183.707 276.536V285.678C183.707 285.888 183.819 286 184.029 286H185.289C185.513 286 185.625 285.888 185.625 285.678V282.612H186.829L189.433 285.804C189.545 285.958 189.671 286 189.853 286H191.337C191.617 286 191.701 285.804 191.533 285.594ZM185.625 278.006H187.417C188.145 278.006 188.747 278.65 188.747 279.462C188.747 280.274 188.145 280.904 187.417 280.904H185.625V278.006ZM196.634 279.28L195.29 283.41L193.722 279.266C193.666 279.098 193.54 279 193.358 279H192.126C191.874 279 191.776 279.168 191.86 279.392L194.38 285.902L193.526 288.436C193.442 288.674 193.568 288.8 193.806 288.8H195.038C195.22 288.8 195.374 288.73 195.43 288.534L198.51 279.378C198.594 279.14 198.482 279 198.244 279H196.998C196.816 279 196.69 279.098 196.634 279.28ZM202.38 278.818C200.938 278.818 199.72 279.602 199.538 281.044C199.524 281.268 199.664 281.38 199.874 281.38H200.994C201.19 281.38 201.26 281.282 201.344 281.086C201.456 280.708 201.848 280.484 202.38 280.484C203.038 280.484 203.458 280.834 203.458 281.66V282.416C203.052 282.052 202.45 281.786 201.568 281.786C200.322 281.786 199.202 282.528 199.202 283.998C199.202 285.468 200.322 286.196 201.568 286.196C202.45 286.196 203.052 285.888 203.458 285.398V285.678C203.458 285.888 203.584 286.014 203.794 286.014H204.886C205.11 286.014 205.222 285.888 205.222 285.678V281.562C205.222 279.742 203.92 278.818 202.38 278.818ZM202.17 284.866C201.386 284.866 201.008 284.502 201.008 283.998C201.008 283.494 201.386 283.13 202.17 283.13C202.968 283.13 203.458 283.452 203.458 283.998C203.458 284.502 202.968 284.866 202.17 284.866ZM210.899 278.818C210.031 278.818 209.387 279.14 208.995 279.728V279.336C208.995 279.126 208.883 279 208.659 279H207.525C207.315 279 207.189 279.126 207.189 279.336V285.678C207.189 285.888 207.315 286 207.525 286H208.659C208.883 286 208.995 285.888 208.995 285.678V281.954C208.995 280.904 209.555 280.484 210.255 280.484C210.899 280.484 211.375 280.862 211.375 281.674V285.678C211.375 285.888 211.487 286 211.697 286H212.845C213.055 286 213.181 285.888 213.181 285.678V281.534C213.181 279.812 212.201 278.818 210.899 278.818ZM227.302 285.636L224.18 276.48C224.124 276.298 223.984 276.2 223.802 276.2H221.982C221.8 276.2 221.66 276.298 221.604 276.48L218.482 285.636C218.398 285.874 218.524 286 218.762 286H220.162C220.344 286 220.484 285.916 220.54 285.734L221.002 284.25H224.768L225.244 285.734C225.3 285.916 225.426 286 225.622 286H227.022C227.26 286 227.372 285.874 227.302 285.636ZM221.59 282.444L222.892 278.342L224.194 282.444H221.59ZM232.497 278.818C231.629 278.818 230.985 279.14 230.593 279.728V279.336C230.593 279.126 230.481 279 230.257 279H229.123C228.913 279 228.787 279.126 228.787 279.336V285.678C228.787 285.888 228.913 286 229.123 286H230.257C230.481 286 230.593 285.888 230.593 285.678V281.954C230.593 280.904 231.153 280.484 231.853 280.484C232.497 280.484 232.973 280.862 232.973 281.674V285.678C232.973 285.888 233.085 286 233.295 286H234.443C234.653 286 234.779 285.888 234.779 285.678V281.534C234.779 279.812 233.799 278.818 232.497 278.818ZM243.528 276.2H242.394C242.184 276.2 242.058 276.326 242.058 276.536V279.84C241.554 279.196 240.812 278.818 239.79 278.818C237.914 278.818 236.374 280.428 236.374 282.5C236.374 284.586 237.914 286.196 239.79 286.196C240.812 286.196 241.554 285.818 242.058 285.174V285.678C242.058 285.888 242.184 286 242.394 286H243.528C243.752 286 243.864 285.888 243.864 285.678V276.536C243.864 276.326 243.752 276.2 243.528 276.2ZM240.126 284.474C239.006 284.474 238.18 283.676 238.18 282.5C238.18 281.324 239.006 280.526 240.126 280.526C241.232 280.526 242.058 281.324 242.058 282.5C242.058 283.676 241.232 284.474 240.126 284.474ZM249.347 278.818C247.149 278.818 245.637 280.428 245.637 282.5C245.637 284.6 247.107 286.196 249.389 286.196C250.817 286.196 251.965 285.538 252.497 284.362C252.595 284.152 252.469 283.998 252.217 283.998H251.097C250.929 283.998 250.817 284.068 250.691 284.194C250.411 284.488 249.949 284.698 249.417 284.698C248.521 284.698 247.765 284.25 247.513 283.256H251.027H252.469C252.665 283.256 252.805 283.158 252.819 282.948C252.833 282.808 252.847 282.668 252.847 282.514C252.847 280.442 251.419 278.818 249.347 278.818ZM247.513 281.828C247.723 280.96 248.381 280.442 249.333 280.442C250.089 280.442 250.831 280.834 251.041 281.828H247.513ZM257.956 278.902C257.256 278.986 256.682 279.35 256.374 280.064V279.336C256.374 279.126 256.262 279 256.052 279H254.904C254.694 279 254.568 279.126 254.568 279.336V285.678C254.568 285.888 254.694 286 254.904 286H256.052C256.262 286 256.374 285.888 256.374 285.678V282.556C256.374 281.31 257.186 280.862 258.04 280.862C258.208 280.862 258.292 280.75 258.292 280.54V279.21C258.292 279 258.18 278.86 257.956 278.902ZM261.271 281.044C261.271 280.638 261.635 280.4 262.209 280.4C262.629 280.4 262.979 280.582 263.077 280.932C263.161 281.128 263.245 281.24 263.441 281.24H264.561C264.771 281.24 264.911 281.114 264.883 280.89C264.715 279.476 263.525 278.818 262.209 278.818C260.753 278.818 259.465 279.56 259.465 281.044C259.465 283.732 263.245 282.766 263.245 283.97C263.245 284.376 262.881 284.6 262.209 284.6C261.705 284.6 261.327 284.432 261.201 284.068C261.117 283.886 261.047 283.774 260.851 283.774H259.731C259.521 283.774 259.381 283.9 259.409 284.124C259.563 285.524 260.781 286.196 262.209 286.196C263.763 286.196 265.051 285.468 265.051 283.97C265.051 281.268 261.271 282.262 261.271 281.044ZM270.097 286.196C272.141 286.196 273.793 284.586 273.793 282.5C273.793 280.428 272.141 278.818 270.097 278.818C268.039 278.818 266.387 280.428 266.387 282.5C266.387 284.586 268.039 286.196 270.097 286.196ZM270.097 284.432C269.019 284.432 268.193 283.634 268.193 282.5C268.193 281.366 269.019 280.568 270.097 280.568C271.161 280.568 271.987 281.366 271.987 282.5C271.987 283.634 271.161 284.432 270.097 284.432ZM279.274 278.818C278.406 278.818 277.762 279.14 277.37 279.728V279.336C277.37 279.126 277.258 279 277.034 279H275.9C275.69 279 275.564 279.126 275.564 279.336V285.678C275.564 285.888 275.69 286 275.9 286H277.034C277.258 286 277.37 285.888 277.37 285.678V281.954C277.37 280.904 277.93 280.484 278.63 280.484C279.274 280.484 279.75 280.862 279.75 281.674V285.678C279.75 285.888 279.862 286 280.072 286H281.22C281.43 286 281.556 285.888 281.556 285.678V281.534C281.556 279.812 280.576 278.818 279.274 278.818Z" fill="black"/>
<path d="M158.714 234C158.26 234 157.824 234.18 157.502 234.501C157.181 234.821 157 235.256 157 235.709V264.77C157 265.223 157.181 265.658 157.502 265.978C157.824 266.299 158.26 266.479 158.714 266.479C158.979 266.479 159.241 266.417 159.478 266.299C159.715 266.18 159.921 266.009 160.08 265.798L165.434 259.845L166 258.979C168.128 258.26 166 259 167.5 258.5C168.738 257.939 167.019 258.654 169 257.979L169.753 257.999L179.286 257.932C179.74 257.932 180.176 257.752 180.498 257.431C180.819 257.111 181 256.676 181 256.222C181 255.968 180.943 255.716 180.833 255.486C180.723 255.256 180.562 255.054 180.364 254.894L160.057 234.648C159.897 234.446 159.692 234.283 159.46 234.171C159.227 234.058 158.973 234 158.714 234Z" fill="#5FD4FF"/>
</g>
<defs>
<filter id="filter0_d_9982_31618" x="843" y="382" width="125" height="70" filterUnits="userSpaceOnUse" color-interpolation-filters="sRGB">
<feFlood flood-opacity="0" result="BackgroundImageFix"/>
<feColorMatrix in="SourceAlpha" type="matrix" values="0 0 0 0 0 0 0 0 0 0 0 0 0 0 0 0 0 0 127 0" result="hardAlpha"/>
<feOffset dy="4"/>
<feGaussianBlur stdDeviation="2"/>
<feComposite in2="hardAlpha" operator="out"/>
<feColorMatrix type="matrix" values="0 0 0 0 0 0 0 0 0 0 0 0 0 0 0 0 0 0 0.25 0"/>
<feBlend mode="normal" in2="BackgroundImageFix" result="effect1_dropShadow_9982_31618"/>
<feBlend mode="normal" in="SourceGraphic" in2="effect1_dropShadow_9982_31618" result="shape"/>
</filter>
<filter id="filter1_d_9982_31618" x="1113" y="30" width="91.5" height="70" filterUnits="userSpaceOnUse" color-interpolation-filters="sRGB">
<feFlood flood-opacity="0" result="BackgroundImageFix"/>
<feColorMatrix in="SourceAlpha" type="matrix" values="0 0 0 0 0 0 0 0 0 0 0 0 0 0 0 0 0 0 127 0" result="hardAlpha"/>
<feOffset dy="4"/>
<feGaussianBlur stdDeviation="2"/>
<feComposite in2="hardAlpha" operator="out"/>
<feColorMatrix type="matrix" values="0 0 0 0 0 0 0 0 0 0 0 0 0 0 0 0 0 0 0.25 0"/>
<feBlend mode="normal" in2="BackgroundImageFix" result="effect1_dropShadow_9982_31618"/>
<feBlend mode="normal" in="SourceGraphic" in2="effect1_dropShadow_9982_31618" result="shape"/>
</filter>
<filter id="filter2_d_9982_31618" x="984" y="641" width="121.5" height="70" filterUnits="userSpaceOnUse" color-interpolation-filters="sRGB">
<feFlood flood-opacity="0" result="BackgroundImageFix"/>
<feColorMatrix in="SourceAlpha" type="matrix" values="0 0 0 0 0 0 0 0 0 0 0 0 0 0 0 0 0 0 127 0" result="hardAlpha"/>
<feOffset dy="4"/>
<feGaussianBlur stdDeviation="2"/>
<feComposite in2="hardAlpha" operator="out"/>
<feColorMatrix type="matrix" values="0 0 0 0 0 0 0 0 0 0 0 0 0 0 0 0 0 0 0.25 0"/>
<feBlend mode="normal" in2="BackgroundImageFix" result="effect1_dropShadow_9982_31618"/>
<feBlend mode="normal" in="SourceGraphic" in2="effect1_dropShadow_9982_31618" result="shape"/>
</filter>
<filter id="filter3_d_9982_31618" x="153" y="234" width="139.5" height="70" filterUnits="userSpaceOnUse" color-interpolation-filters="sRGB">
<feFlood flood-opacity="0" result="BackgroundImageFix"/>
<feColorMatrix in="SourceAlpha" type="matrix" values="0 0 0 0 0 0 0 0 0 0 0 0 0 0 0 0 0 0 127 0" result="hardAlpha"/>
<feOffset dy="4"/>
<feGaussianBlur stdDeviation="2"/>
<feComposite in2="hardAlpha" operator="out"/>
<feColorMatrix type="matrix" values="0 0 0 0 0 0 0 0 0 0 0 0 0 0 0 0 0 0 0.25 0"/>
<feBlend mode="normal" in2="BackgroundImageFix" result="effect1_dropShadow_9982_31618"/>
<feBlend mode="normal" in="SourceGraphic" in2="effect1_dropShadow_9982_31618" result="shape"/>
</filter>
<clipPath id="clip0_9982_31618">
<rect width="52.875" height="54.5625" fill="white" transform="translate(835.146 621.438)"/>
</clipPath>
<clipPath id="clip1_9982_31618">
<rect width="78" height="72" fill="white" transform="matrix(-1 0 0 1 900.523 204)"/>
</clipPath>
</defs>
</svg>
