<svg xmlns="http://www.w3.org/2000/svg" viewBox="0 0 482.49 217.3"><defs><style>.cls-1{fill:#3c494f;}.cls-2{fill:#3c494e;}.cls-3{fill:#00b39f;}.cls-4{fill:#00d3a9;}</style></defs><g id="Layer_2" data-name="Layer 2"><g id="Layer_1-2" data-name="Layer 1"><path class="cls-1" d="M178.49,70.9a10.77,10.77,0,0,1,9-3c2,0,2,3,2,3l-.2,9.62c.14.47-1.57.64-1.57.64L174.53,81s-1,.86-1-1.14C173.49,79.9,172.49,76.9,178.49,70.9Z"/><path class="cls-2" d="M302.4,165.73s26.84-1.31,30.58,0c0,0,2.74-1.5,2.3,11.5,0,0,.88,8.32-3.24,12.67,0,0-17.34,4-26.06.52Z"/><path class="cls-2" d="M123.09,119.94h-3.5v17.54h16.63V134H123.09Z"/><path class="cls-2" d="M145,119.94l-7,17.54h4l4.76-12.27,3.4,8.76h-5.83l-1.3,3.51h12.51l-7-17.54Z"/><path class="cls-2" d="M160.47,126.09l-4.39-6.15H151.7l7,10.53v7h3.5v-7l7-10.53h-4.33Z"/><path class="cls-2" d="M170.75,122.71v14.77h16.63V134H174.26v-3.5h10.08V127H174.26v-3.51h13.12v-3.51H170.75Z"/><path class="cls-2" d="M193.08,123.29h9v3.65h-8l0,3.34h2.42l6.35,7.21h4.33l-6.36-7.21h2.49a2.72,2.72,0,0,0,2.73-2.72v-4.89a2.73,2.73,0,0,0-2.73-2.73H189.66v17.54h3.51l-.09-14.2Z"/><path class="cls-3" d="M226.86,120H220v3.32h6.9Z"/><path class="cls-3" d="M227.49,131.23v-1.39a2.93,2.93,0,0,0-3-2.87H213.35v-.91h-4.08V130H223.4v1.22h4.09Z"/><path class="cls-4" d="M213.36,125v-1.64h5.47V120h-9.55v5Z"/><path class="cls-4" d="M223.41,132.3v1.93H218v3.33h6.73a2.76,2.76,0,0,0,2.8-2.71V132.3h-4.07Z"/><path class="cls-3" d="M213,132.48v1.75h3.78v3.33H212a2.76,2.76,0,0,1-2.8-2.71v-2.38H213Z"/><path class="cls-2" d="M52.89,167.8S26.54,162.39,20,162.67c0,0-8.34,7.57-1.68,20.55,0,0,17.55,5.33,33.11,5.89Z"/><path d="M.85,216.09H75.78a49.48,49.48,0,0,1-11.18-6,35,35,0,0,1-12.84-17.94c-.54-1.71-1.3-2.15-3-2.32a208.59,208.59,0,0,1-28.41-4.7,4.57,4.57,0,0,1-3.45-3c-2.59-6.24-2.64-12.38.62-18.41.43-.79.82-2,1.9-1.77,2.06.47,1.74-.63,2.08-2,5.45-22.39,12.74-43.85,31.27-59.34A61.63,61.63,0,0,1,77.2,88.28a4.13,4.13,0,0,0,3.14-2.84c6.41-16.25,13.72-32.08,24.6-45.9C121.85,18.07,144.06,6,171.26,3.27c35.12-3.49,63,10.78,86.41,35.67C269.53,51.53,277.14,66.7,284,82.34c.86,2,1.89,2.69,3.95,2.6a39.21,39.21,0,0,1,13.61,1.48,28.19,28.19,0,0,1,12.8,8,11.81,11.81,0,0,1,2.95,5.54c4.4,20.37,8.32,40.82,10.78,61.52.25,2.08.86,3.07,3.12,3.42,3.9.6,4.6,1.42,5,5.21.57,5.42.9,10.87-.88,16.17-.95,2.86-2.31,4.73-5.93,5.21a83.9,83.9,0,0,1-19.06.66c-1.88-.17-1.88-.18-3.54-1.4a5.45,5.45,0,0,1,3-.06,65.4,65.4,0,0,0,20.56-.87,3.64,3.64,0,0,0,2.72-2,19,19,0,0,0,2.23-8.82,82.33,82.33,0,0,0-.27-9.42c-.21-2.49-1.49-3.37-3.72-3.6a119.53,119.53,0,0,0-19.11-.14c-2.46.13-4.94.65-8,.27,1.91-1.56,3.67-1.39,5.26-1.47,5.18-.28,10.36-.79,15.55-.38,1.87.14,2.37-.42,2.06-2.3-.91-5.53-1.73-11.09-2.41-16.65-.21-1.72-.91-2-2.45-2-7.59.11-7.49.06-8.37-7.46a201.52,201.52,0,0,0-4.6-25.32c-1.22-4.86,0-6.8,4.93-7,2.73-.11,2.8-1.06,2.21-3.19-1.65-5.93-6.27-8.93-11.32-11.35a29.48,29.48,0,0,0-12.82-2.93q-71.72,0-143.43-.05c-15.14,0-30.29.05-45.43,0-2,0-3.28.11-2.48,2.66a9.11,9.11,0,0,1,.06,3.3,2.83,2.83,0,0,1-1.85,2.53c-2.53,1-7.7-.54-9.39-2.81a14.27,14.27,0,0,1,1.63-19.13,11.64,11.64,0,0,0,2-3.22c6.47-12.09,13.14-24.08,23.11-33.74C131.55,21,149.06,10.81,170.2,8.09c11-1.42,21.91.33,32.62,2.89,16.87,4,32,11.33,44.31,23.88a4.37,4.37,0,0,1,1.39,3.52c-.2,13.61-.37,27.22-.37,40.83,0,2.42-.83,3-3,3q-45.81,0-91.62.12c-15.31,0-30.62,0-45.93-.08a26.09,26.09,0,0,1-5.56-.41c3.17-1,6.44-.57,9.67-.89C110,77,102.54,68,98,64.53c2-.31,3.11,1,4.23,2a63,63,0,0,1,10.38,13.19c1.19,1.95,2.76,1.17,4.24,1.33.53,0,1.46.14,1.36-.69-.22-1.8.73-3.48.28-5.29-.6-2.39-1-4.83-1.53-7.24-.39-1.79.24-3.11,1.93-3.62s2.69.68,3.25,2.12A35.09,35.09,0,0,1,123.31,70c.5,1.86.82,3.58,3.17,4.38,1.86.63,2.42,2.78,2.51,4.7.07,1.36.45,1.92,1.92,1.91q14.93-.08,29.86,0c1.21,0,1.84-.29,2-1.64.3-2.44,1.71-5.2,1-7.2s-4.2-1.27-6.35-2.13c-8.24-3.3-15.59-7.73-18.21-16.85-3.09-10.74.5-23.93,9.2-31.1,4.18-3.44,9.38-5,14.52-5.87,7.32-1.27,14.68-2.88,22.22-2.23a7.22,7.22,0,0,1,2,.25c-4.88,1.19-10,.28-15.31,1.41,6.7,2.72,13.26.36,19.62,1.75L179,18.11c9.79,5.52,15.71,13.1,16.43,24s-4.6,19-13.31,25.48c1.55-.26,2.7-.54,3.87-.64,3.14-.27,4.59,1.06,4.73,4.2a37,37,0,0,1-.64,7.87c-.25,1.48.13,2,1.62,2,2.64,0,5.28.07,7.92.07,15,0,29.94,0,44.91.1,2,0,2.53-.55,2.52-2.54q-.08-19.9.09-39.81a5.36,5.36,0,0,0-1.77-4.24,83.42,83.42,0,0,0-34.2-20.07c-12.38-3.76-25-5.94-37.94-5.27-11.9.62-22.65,4.66-33.09,10.18C122.52,28.78,109.67,42.76,100,60c-2,3.56-3.89,7.17-5.92,10.71A2.55,2.55,0,0,0,94.31,74,26.84,26.84,0,0,1,99,82.44c.66,2,1.76,2.48,3.73,2.48,25.61,0,51.22,0,76.82.06q50.67,0,101.32,0c3.14,0,3.15,0,1.9-2.94-8.49-19.81-19.17-38.15-35.78-52.4-15.64-13.44-33.4-23-54.05-24.95-38.46-3.58-69.46,10.23-91.56,42.43C93.64,58.4,87.76,70.78,82.81,83.56a10.06,10.06,0,0,1-7,6.41C60.62,94.68,48.76,103.89,40,117.13,31.35,130.22,26.76,145,22.77,160c-.4,1.49-.15,2,1.56,2.18,8.19.94,16.23,2.85,24.34,4.28a2.4,2.4,0,0,1,1.89,1c-1,.45-1.83,0-2.67-.09-8.49-1.22-16.82-3.43-25.41-4-2.26-.17-3.44.48-4.22,2.58a22.12,22.12,0,0,0-.66,14.73,4.51,4.51,0,0,0,3.91,3.42c9.62,1.72,19.12,4.1,29.18,4.87-.22-1.54-.51-3.07-.64-4.61-1.5-18.64,13.11-36.26,31.24-38.14,22.06-2.3,38,14.09,39.74,31.16a36.29,36.29,0,0,1-1.44,14.85c-.63,1.93-.28,2.46,1.75,2.65,21.87,2,43.79,2.72,65.74,3.14A388.92,388.92,0,0,0,235,196c1.22-.13,2.53-.55,4,.84l-7.25.81c-20.43,2.25-40.94,1.92-61.43,1.35-14.28-.4-28.57-1-42.8-2.26-2.46-.22-4.91-.54-7.35-.86-1-.12-1.78-.18-2.34.93A37.4,37.4,0,0,1,95.58,216H261.41c-9.41-3.54-16.92-9.35-21.58-18.43a33.75,33.75,0,0,1-1.8-28.15c5.84-15.8,20.41-24.73,37.59-23.24,15,1.3,28.18,13.6,31,28.93,2.43,13.4-2.83,33-25.24,41.19H482.49v1c-159.4,0-322.94-.18-482.49-.18M143.56,58.54c8.39,9,18.14,12.94,29.91,10.78a23.42,23.42,0,0,0,14.78-8.82c6.68-8.64,7.79-18.09,2.92-27.74S178.09,17.77,167,17c-4.1-.3-7.24,2.07-11,2.55a13.88,13.88,0,0,0-6.66,3c-8.63,6.62-12.42,22.45-7.85,32.35.89,2,1.95,2.67,4.11,2.15a28.45,28.45,0,0,0,17.58-12.59c.23-.36.39-.76.63-1.11s.36-.75,1.21-.37C160.32,51.42,153.36,56.52,143.56,58.54ZM99,162.7c-.34-1.17-1.33-1.42-2.1-1.81-8.57-4.39-17-4-24.79,1.61-8.09,5.79-11.15,13.92-9.36,23.7a23.46,23.46,0,1,0,39.39-21.47c-1-1-1.84-2-3.64-1.17-1.58.69-3.4-.12-5-1.55C95.38,162.49,97.06,163.57,99,162.7Zm186.29-.11A22,22,0,0,0,272.45,158a23.52,23.52,0,1,0,15.08,6.31c-.87-.78-1.53-1.41-3-.84-1.73.66-3.66.1-5.75-1.57C281.09,162.4,282.78,163.52,285.27,162.59ZM320.46,142c.32,0,1.25-.12,2.18-.18,1.09-.08,1.4-.57,1.19-1.68-2.13-11.18-4.2-22.37-6.3-33.56-.11-.57,0-1.41-.68-1.54a7.9,7.9,0,0,0-6.13.89c-1.63,1.05-1,2.48-.62,3.88a210.3,210.3,0,0,1,5.15,28C315.76,142,315.69,142,320.46,142ZM88,82.31c-.09,6.78,2.2,10.08,7.24,11.17,3.43.74,5-.64,4.48-4.15a35.2,35.2,0,0,0-6.35-15.06c-.78-1.12-1.27-.93-2.1,0A11.57,11.57,0,0,0,88,82.31Zm93.18-1.26c.29-.15.29-.15,0,0,2,0,4.33-.2,6.29-.14,1.36,0,1.63-.3,1.67-1.71.07-2.55.31-5,.27-7.55,0-3-1-3.8-4-3.59-5.38.36-11.38,6.3-12,11.72C173.36,81,174,81,174.82,81,176.93,81.07,176.62,81.05,181.2,81.05Zm-.56-12.62a32.4,32.4,0,0,1-13.82,3c-1,0-1.78.32-1.94,1.52-.3,2.18-.68,4.36-1,6.54-.11.71-.18,1.44.85,1.45,2.29,0,4.59,0,6.88,0,.82,0,.93-.66,1.06-1.21A18,18,0,0,1,180.64,68.43Zm-57,12.7V81c1.1,0,2.2,0,3.3,0,.61,0,1.1-.1,1.2-.94.21-1.81-1.29-4.6-3-5.22a4.75,4.75,0,0,0-5,1.13,3.81,3.81,0,0,0-.69,4.29c.6,1.5,2.38.62,3.64.84A4.34,4.34,0,0,0,123.63,81.13Z"/><path d="M59.17,121.15c.39,2-.45,4-1.46,6.15a75.47,75.47,0,0,1-10.45,16.82A26.28,26.28,0,0,1,42,148.89a5.08,5.08,0,0,1-5.54.31,5,5,0,0,1-2.83-4.76,18.8,18.8,0,0,1,.67-5.28A45.93,45.93,0,0,1,49.05,117a13.92,13.92,0,0,1,3.87-2.42c3.67-1.4,6.22.37,6.25,4.33C59.18,119.54,59.17,120.13,59.17,121.15Zm-21.61,20a63.26,63.26,0,0,1,6.59-16.83c-4.3,5.28-7.61,11-9.07,17.74a11.73,11.73,0,0,0-.33,2.27c-.08,3.55,2.75,5.34,5.82,3.59a17,17,0,0,0,3.4-2.65c5.26-5.11,8.93-11.33,12-17.88a15.32,15.32,0,0,0,2-6.54c0-.47.29-1.13-.37-1.3-.3-.08-.78.23-1.09.47a33.67,33.67,0,0,0-6,6.23c-3.53,4.51-6,9.65-8.74,14.64-.85,1.57-1.79,3.09-2.69,4.63,3.14-8.86,6.79-17.42,13.76-24a11.78,11.78,0,0,1,3.71-2.65c.67-.26,1.67-.19,1.35-1.37-.26-1-.52-2-1.87-2a5.25,5.25,0,0,0-4.52,1.83,68.92,68.92,0,0,0-8.64,13.19C41.13,134.08,39.33,137.63,37.56,141.19Z"/><path d="M388.92,0C331,1.53,273.06,6.12,215,2.17,273,5.36,330.91.35,388.92,0Z"/><path d="M253.84,42a24.84,24.84,0,0,1,5.45,5.37c8.29,9.95,13.91,21.45,19.09,33.2.62,1.43.18,1.72-1.19,1.83a193.76,193.76,0,0,1-20.87.5c-1.52,0-2.79-.14-2.78-2.31.09-12.4.06-24.79.08-37.19A12.57,12.57,0,0,1,253.84,42Zm1.34,2.14c-.39.34-.5.4-.5.45q0,17.85-.07,35.7c0,1.12.46,1.46,1.52,1.46q9.71,0,19.38-.45c1.59-.08,1.85-.62,1.15-2.06C274.08,74,271.73,68.61,269,63.42,265.36,56.37,260.34,50.27,255.18,44.15Z"/><path d="M480,183.13c-33.6,2.89-67.22,1.53-100.85.88C412.72,183.82,446.33,184.47,480,183.13Z"/><path d="M353.47,142.11c32.07,1.73,64.07,1,96.06-1a553.57,553.57,0,0,1-96,1.82A8.12,8.12,0,0,1,353.47,142.11Z"/><path d="M352,38.05c-26.44.24-52.82,2.57-79.28,3C275.59,39.78,342.14,37.1,352,38.05Z"/><path d="M126.57,188.13c29.92,1.47,59.86,2.12,89.8,2.39C186.39,191.4,156.47,190.23,126.57,188.13Z"/><path d="M425.07,102c-28.54,3.24-57.13,5.86-85.89,5.33C367.89,107,396.45,104,425.07,102Z"/><path d="M252,143.91c-1.33-18.62-4.34-36.67-2.38-55.07C249.94,89.55,252.48,143,252,143.91Z"/><path d="M363,206.68c-21.1,2.55-42,6.72-63.32,7.88C320.79,212.26,341.68,207.94,363,206.68Z"/><path d="M228.39,94.73c2.11,0,4.24.09,6.35,0,2.38-.14,3.35.89,3.45,3.23.16,4.12.23,4.08-3.84,4.56s-8.11.38-12.16.61c-1.74.1-2.3-.5-2.39-2.27-.28-6-.36-6,5.79-6.1C226.53,94.71,227.46,94.73,228.39,94.73Zm.91,1.06v.15c-2,0-4.08,0-6.12,0-1.23,0-2.79-.14-2.35,1.93.33,1.57-.88,4.1,2.4,3.93,4.07-.21,8.15-.36,12.22-.54.59,0,1.12-.07,1.41-.8,1.12-3-.06-4.69-3.23-4.68Z"/><path d="M246.65,146.48c-14,10.15-16.8,24.29-16.37,39.57C225.52,173.75,235.51,148.47,246.65,146.48Z"/><path d="M161.8,205c-8.91,3-52,9.63-56.46,8.63C124.31,211.74,142.94,207.64,161.8,205Z"/><path d="M88.9,135.88c-.73-12.55,1.88-25,1.65-37.48C92.11,111,89.67,123.39,88.9,135.88Z"/><path d="M338.79,204a331.27,331.27,0,0,1-46.65,8.72C307.74,210.07,323.25,207,338.79,204Z"/><path d="M343.53,187.84c.21-6.78,1-13.25,0-19.62C345.43,169.26,345.59,181.17,343.53,187.84Z"/><path d="M323.07,65.17a63.23,63.23,0,0,1-20.28,1Z"/><path d="M128.59,207.34c-3.66,2.13-13.74,4.56-16.16,4.08Z"/><path d="M351.74,184.1a56,56,0,0,0,.15-16.07C353.67,170.83,353.52,179,351.74,184.1Z"/><path d="M146.34,35.44a7.67,7.67,0,0,1,1.62-4.7,2.17,2.17,0,0,1,2.44-.91A2.2,2.2,0,0,1,152,31.89,6.89,6.89,0,0,1,151,37c-.81,1.09-1.58,2.48-3.18,1.94S146.36,36.8,146.34,35.44Z"/><path d="M155.09,30.37c-1.61-2.3-2.77-4.16-5.62-3.64a2.4,2.4,0,0,1,3.3-.59C154.26,26.82,154.94,28,155.09,30.37Z"/><path d="M81.93,181.22c0-3.17,1.85-5.45,4.43-5.4,2.82.05,6,3.34,6,6.16a5.1,5.1,0,0,1-5.29,5C84.28,187,82,184.38,81.93,181.22Zm9.75.5c0-2.18-3-5-5.28-5-1.85,0-3.71,2.41-3.72,4.79A4.36,4.36,0,0,0,86.85,186,4.9,4.9,0,0,0,91.68,181.72Z"/><path d="M98.39,186c0,1.25-.72,1.67-1.81,1.64-1.36,0-2.48-.71-2.45-2.06a2.14,2.14,0,0,1,2.26-1.83C97.63,183.78,98.24,184.82,98.39,186Z"/><path d="M92.22,174.37a2.2,2.2,0,0,1-2-2.25,1.21,1.21,0,0,1,1.34-1.43c1.49,0,2,1.13,2.2,2.3C93.91,173.93,93.3,174.35,92.22,174.37Z"/><path d="M76.65,181.89a2.3,2.3,0,0,1,2.14,2.29c.06.92-.69,1.34-1.55,1.27a2.21,2.21,0,0,1-2.18-2.1C74.91,182.12,76.1,182.27,76.65,181.89Z"/><path d="M104.82,171.71,96,177.58C97.28,175.35,101.88,172.19,104.82,171.71Z"/><path d="M107.7,179.79c-1.37,3.05-1.15,6.29-1.55,9.44C105.53,185.91,105.62,182.69,107.7,179.79Z"/><path d="M70.06,167.1c1.94-1.89,4.12-3.53,5.72-5.75C75,164.42,72.8,166,70.06,167.1Z"/><path d="M81.36,171.79c1.21.23,1.45,1.15,1.35,2.17s-1,1.24-1.88,1.26a2.11,2.11,0,0,1-2.35-1.5c-.2-.7.09-1.22.83-1.24,1,0,.52.42.25.86s0,.84.48.86A3.42,3.42,0,0,0,81.5,174c.46-.2.47-.64.1-1S80.94,172.42,81.36,171.79Z"/><path d="M89.46,202.24H81.83C84.34,200.9,86.9,201.28,89.46,202.24Z"/><path d="M64.68,180.26c2.1,2.89,1.94,6.08,1,9.36C65.71,186.48,66,183.31,64.68,180.26Z"/><path d="M84.9,161.67v7.86A11.32,11.32,0,0,1,84.9,161.67Z"/><path d="M73.63,196a18,18,0,0,1,4.49-6.66A23.53,23.53,0,0,1,73.63,196Z"/><path d="M67.68,173.74a12.18,12.18,0,0,1,7.51,2.58Z"/><path d="M267.65,181c.05-2.93,2-5.16,4.47-5.15a6.62,6.62,0,0,1,6.07,6.29A5.08,5.08,0,0,1,273,187C270.11,187,267.6,184.21,267.65,181Zm9.8.52c-.08-2.32-3.06-5-5.39-4.8-1.85.14-3.69,2.67-3.58,4.92a4.46,4.46,0,0,0,4.63,4.37A4.75,4.75,0,0,0,277.45,181.55Z"/><path d="M282.45,187.69c-1.32-.12-2.47-.74-2.48-2.08a2.11,2.11,0,0,1,2.24-1.85,2.14,2.14,0,0,1,2,2.27C284.27,187.23,283.55,187.68,282.45,187.69Z"/><path d="M262.68,181.91a2.28,2.28,0,0,1,1.94,2.31c.06.92-.71,1.3-1.57,1.23a2.17,2.17,0,0,1-2.15-2.11C260.8,182.2,261.87,182.16,262.68,181.91Z"/><path d="M277.93,174.35A2.22,2.22,0,0,1,276,172a1.2,1.2,0,0,1,1.45-1.32c1.44.11,1.94,1.19,2.1,2.4C279.69,174.07,279,174.38,277.93,174.35Z"/><path d="M281.87,176.61a67.67,67.67,0,0,1,8.39-5.5l.44.62-8.39,5.52Z"/><path d="M292,189.38c-.65-3.39-.6-6.69,1.52-9.67C292.31,182.84,292.21,186.12,292,189.38Z"/><path d="M267.06,171.76A1.83,1.83,0,0,1,268.6,174c-.08,1-1,1.22-1.9,1.24a2.13,2.13,0,0,1-2.37-1.45c-.17-.52-.1-1,.52-1.22.47-.14,1-.05.67.54-.39.82-.12,1.11.64,1.15a1.45,1.45,0,0,0,1.38-.44c.45-.63-.27-.83-.47-1.23C267,172.4,267.06,172.14,267.06,171.76Z"/><path d="M255.94,167.12c1.85-2,4.15-3.51,5.69-5.78C260.87,164.37,258.6,165.93,255.94,167.12Z"/><path d="M275.75,202.31c-3,.09-5.74-.36-8.69.36C269,201,273.26,200.84,275.75,202.31Z"/><path d="M270.72,169.82a19,19,0,0,1-.46-8.15A24.53,24.53,0,0,1,270.72,169.82Z"/><path d="M251.12,190.16c.36-3.67.73-6.87-1.17-10.38C252.43,182.33,252.88,186.85,251.12,190.16Z"/><path d="M263.92,189.36A21.46,21.46,0,0,1,259.4,196,18.13,18.13,0,0,1,263.92,189.36Z"/><path d="M261,176.3l-7.5-2.57A11.77,11.77,0,0,1,261,176.3Z"/><path d="M45.37,137.68c3.11-2.37,4.57-5.73,5.83-9.5A7.84,7.84,0,0,1,45.37,137.68Z"/><path class="cls-3" d="M120,81.23l8.16-.2s1.23-6.44-4.31-6.62C123.84,74.41,116.09,75.34,120,81.23Z"/></g></g></svg>