<svg xmlns="http://www.w3.org/2000/svg" viewBox="0 0 586.95 674.01"><defs><style>.cls-1{fill:#00b39f;}</style></defs><g id="Layer_2" data-name="Layer 2"><g id="Layer_1-2" data-name="Layer 1"><g id="Stickie_-_9" data-name="Stickie - 9"><path d="M271.8,473.9c-.33,9.49-.69,18.58-1,27.68-.36,11.61-.63,23.23-1,34.85-.17,6-.56,6.44-6.45,6.49-24.5.19-49,.39-73.49.39-3.83,0-5,1.07-5.09,5-.46,17-1.28,34-2.06,51a35.21,35.21,0,0,1-1.13,5.47l-1.37-.1a26.6,26.6,0,0,1-.5-4.13q1.17-27.33,2.44-54.67c.15-3.32,1.68-5.39,5.27-5.52s7.48-.44,11.23-.44c21,0,42,0,63,.06,5.13,0,5-.06,5.16-5.09q.76-29,1.67-58.09c.18-5.69.34-5.85,6.08-5.87,17.23-.07,34.47,0,51.71,0,0-.44.09-.88.14-1.31-2.66-.83-5.38-1.51-8-2.54a18.76,18.76,0,0,1-5.48-3.11c-.91-.81-1.8-3.19-1.34-3.77,2.08-2.57,1-5.24.89-7.89q-1.11-29.22-2.24-58.44-1.39-34.65-2.86-69.29a18.28,18.28,0,0,0-.31-1.91c-5.86,2.2-11.6,4.23-17.23,6.51-28.35,11.46-56.58,23.2-85.05,34.35-7.59,3-10.72,7.53-12.4,15.47-7.24,34.19-15.29,68.21-23.17,102.26a19.92,19.92,0,0,1-3.37,7.38q-25.15,32.9-50.55,65.6c-3.05,4-6.22,7.79-9.21,11.52,9.85,8.82,13.22,19.74,11.48,32.36a15,15,0,0,1-2.72,6.08,7.5,7.5,0,0,1-11.72.91,19.88,19.88,0,0,1-5.6-13.57,81,81,0,0,1,.9-16.76,21,21,0,0,1,4.26-9c16.37-21,32.51-42.17,49.58-62.58,10.08-12.05,15.31-25.65,18.55-40.64Q180.55,418,191,373.76c7.16-30,9.73-60.6,12-91.24,2.72-36.18,2.84-72.42,2.53-108.67,0-1.59,0-3.18,0-5.52-1.44,1-2.35,1.58-3.13,2.26-21.58,19.17-43.11,38.41-64.79,57.46-2.77,2.43-3.13,4.64-2.44,8.06,5.6,27.9,11,55.86,16.5,83.77.23,1.18,1.48,2.18,2.36,3.18,1.31,1.5,3.41,2.7,4,4.42,2.62,8.24-3.81,21.5-11.79,25-5.29,2.32-9.21-.4-9-6.19.23-5.62,3.3-10.12,6.82-13.85,4.43-4.68,4.82-9.47,3.64-15.33-5.19-25.7-9.6-51.57-15.49-77.1-1.7-7.38-.1-11,5.17-15.52,20.68-17.73,40.68-36.27,61.53-53.78,7.4-6.21,7.2-13.12,6.28-20.81-7-1-13.85-1.47-20.46-3a74.83,74.83,0,0,1-38.84-22.77c-8.65-9.5-13-20.65-13.46-33.65-.61-17.64,3-34,12.81-48.79C152,31.45,160.7,23.77,172.6,20c5-1.56,9.78-3.54,15.54-5.65A42,42,0,0,0,167.48,9c-7.08-.15-13.4,2.25-19.31,6.09l-.64-.81c.88-1,1.57-2.42,2.68-2.9,4.41-1.94,8.89-3.72,13.44-5.29,3.49-1.21,7.26-1.66,10.63-3.1A33.27,33.27,0,0,1,195.9,1c5.7,1.44,10.7,4.12,12.77,10.35.22.68,1.7,1.23,2.65,1.34,28.79,3.24,54.24,26.77,60.11,55.66,7,34.49-15.27,69.39-50.18,78.55a73.22,73.22,0,0,1-9.9,2c-2.33.28-2.66,1.37-2.87,3.38-.7,6.39,1.5,11.91,4.18,17.53,12,25.15,24.57,50,39.74,73.39,1.68,2.59,3.57,5,5.74,8.09,5.82-4.41,11.48-8.28,16.67-12.71a334.56,334.56,0,0,0,42.12-43.12c1.66-2,3.44-4.12,1.05-6.86a3.48,3.48,0,0,1-.42-1.42c-1.76-7.59,5.07-19,12.56-21.06,6-1.63,9.93,1.14,10.12,7.34.18,5.92-.8,11.72-5.68,15.61a18.71,18.71,0,0,1-8.64,3.59c-2.67.38-4.41,1-6.18,3.17-17,20.89-35.49,40.32-57.85,55.69-.42.28-.84.55-1.23.87-4.82,4-4.93,4-8.56-1.32-16-23.65-28.92-49-41-74.84a12.52,12.52,0,0,0-1.7-2.94c0,63.82-.94,127.52-12.79,190.85,37.26-16.55,75-31.48,113.8-45.89,2,47.22,3.93,93.48,5.86,139.13,8.08,0,15.15-.15,22.21.07A34.33,34.33,0,0,1,348,459c1.6.53,3.93,2.67,3.78,3.8-.23,1.65-2.21,3.26-3.76,4.49-1.08.86-2.69,1.06-4.45,1.69h25.9c0-6,0-11.56,0-17.14.13-17.11.36-34.23.39-51.35,0-3,2-2.86,3.72-3,7.1-.59,14.2-1.32,21.31-1.44,23.62-.4,47.24-.57,70.86-.83h4.46c0-1.67,0-3,0-4.33q.27-27.18.58-54.36a89.73,89.73,0,0,1,.62-11.13c.13-.91,2-2.15,3.15-2.24,7.23-.53,14.47-.85,21.71-1.1q41.59-1.4,83.19-2.67c2.44-.07,4.89.27,7.33.42l.13,1.38a66.88,66.88,0,0,1-8,1.28q-33.72,1.35-67.44,2.51c-10.49.36-21,.55-31.48.92-5.74.21-5.88.3-6,6.22-.34,17.25-.54,34.49-.83,51.74-.06,3.74-.52,7.5-.31,11.22.14,2.56-1.1,3-3,3.12-4.49.19-9,.42-13.48.49-23.25.35-46.5.62-69.74,1-4.21.07-8.42.5-12.7.78-.61,23.5-1.22,46.69-1.84,70.44-3.85.47-7.51,1.25-11.18,1.33-28.11.62-56.23,1.1-84.35,1.62C275.21,473.92,273.84,473.9,271.8,473.9Zm-85-454.57,0,.88a29.66,29.66,0,0,1-3.94.73c-14.58.75-25.5,7.82-33.73,19.53-9.61,13.68-13.54,29-13.4,45.59.14,16.78,6.6,30.49,19.64,41.13,15.89,13,33.92,19.63,54.47,17.9,21-1.75,37.83-10.88,49.33-29.13a60.6,60.6,0,0,0,9.31-37.49,64.57,64.57,0,0,0-12.82-34.6,5.78,5.78,0,0,0-4-1.79,94.07,94.07,0,0,0-9.49.6c1.85-4,5.61-3.26,8.71-4-11.74-17.4-44-27.4-66.48-20.73-.14,0-.21.27-.32.42ZM103,568.44c-2.57,7-3.48,14.09-2,21.12a43.86,43.86,0,0,0,4.79,12c.72,1.3,3.45,2.32,5,2.07,1.29-.21,2.6-2.35,3.28-3.91C117.24,592.3,111.06,572.37,103,568.44ZM338.38,175.7c-1.72-2.5-2.74-5.28-4.73-6.58-2.63-1.73-5.34,0-7.11,2.34a43.9,43.9,0,0,0-5.24,8.07c-1.93,4.2-1,7.64,1.8,9.33s7.89,1.23,10.13-2S336.54,179.82,338.38,175.7ZM153.44,326.12l-1.46,0c-4.66,5.28-9.21,10.71-11.07,17.75-.41,1.55.36,4.63,1.39,5.05A6.5,6.5,0,0,0,148,348c4.23-3.73,7.09-8.5,7-14.36C154.93,331.13,154,328.62,153.44,326.12Zm22.12-321c5.22,2.52,10.93,5.27,16.66,8a2.12,2.12,0,0,0,1.08.19c3.93-.36,7.86-.75,12-1.15C200.05,3.25,187.14.6,175.56,5.1ZM348.93,464.51c-4.37-4.9-25-6.09-31.68-2.32C327.53,467.39,337.86,466.44,348.93,464.51Z"/><path d="M85.9,613.53c0,15.37-.22,30.72.1,46.06.15,6.89.61,7-2.41,9.73-.41-2.52-1.06-4.63-1-6.74.07-16.11.28-32.21.43-48.32,0-3.17,1.32-4.62,4.75-4.76,23.57-1,47.14-2.14,70.72-3.17,5.49-.24,11-.25,16.48-.23a7.2,7.2,0,0,1,4.42,1.65c-15.28,2.61-30.71,2.6-46,3.72C117.77,612.6,102.16,612.86,85.9,613.53Z"/><path d="M52.62,488C88.41,450.15,128.89,417.09,163.45,378,130.64,418.86,90.39,452.16,52.62,488Z"/><path d="M0,349.06l108.34-90.22.66.5a37.66,37.66,0,0,1-4,4.71q-12.36,10.62-24.9,21-38.62,32-77.33,64c-.55.45-1.14.85-1.72,1.28C.73,349.89.36,349.48,0,349.06Z"/><path d="M146.49,139.42A48,48,0,0,1,142,144c-9.51,7.5-19,15-28.68,22.31C100.94,175.67,88.44,184.81,76,194a13.38,13.38,0,0,1-4.19,2.28c23.32-20.92,50.07-37.4,73.83-57.73Z"/><path d="M31,671.33a28.59,28.59,0,0,1,4.64-.76c13-.12,26-.11,39-.23,3,0,5.9-.42,8.85-.64l.63,1.28c-1.09.76-2.09,1.87-3.3,2.18a26.43,26.43,0,0,1-6.68.85c-13.1-.12-26.21-.35-39.32-.6a21.42,21.42,0,0,1-3.74-.71Z"/><path d="M244.85,418l44.67-47.72,1,.92C276.34,387.8,261.78,404,244.85,418Z"/><path d="M325.68,320.91c-.19-5.84-.06-11.57-4-16.33s-9.75-4.91-15.62-5.28c3.67-3.56,12-2.89,16.71,1C328.73,305.1,330.05,314.09,325.68,320.91Z"/><path d="M72,350.18l44.6-39.66,1.31,1.5L73,351.39Z"/><path d="M129.81,270.26q2,17.06,3.89,34.1c-4.33-5-7.44-29.1-5-34Z"/><path d="M53.69,594.71l36.39-35.18.55.27c-.67,1.17-1.09,2.59-2,3.49Q72,579.2,55.31,595a3,3,0,0,1-1,.41Z"/><path d="M194.14,303.26c-1.38-13.4-.18-39.34,2-42.26C197.8,265.19,196.27,298.22,194.14,303.26Z"/><path d="M341,185.8c4.91-8.67,8.82-17.44,2.68-27.25l1.14-.72c1.09,1,2.6,1.7,3.22,2.91C351.8,168.08,348.29,181.05,341,185.8Z"/><path d="M124.46,340.05c-2,6.72-1.17,12.66,4.7,17.3-4,.31-7-1.48-8.35-4.82A10.82,10.82,0,0,1,124.46,340.05Z"/><path d="M140.66,133.13c-6.88-7.56-16.62-13.73-13.46-26.56C128.24,117.23,134.9,124.9,140.66,133.13Z"/><path d="M126.56,222.13c-1.42,3.37-3.36,6.69-4.17,10.26s-.49,7.4-.65,10.88C116.24,237.55,119.12,224.43,126.56,222.13Z"/><path d="M155,228l22.72-20C176.29,212.47,160.06,227.05,155,228Z"/><path d="M171.2,418.58l-23.89,21.69-.84-.9,23.65-21.93Z"/><path d="M321.24,207.14l-14.18,13.35,12.77-14.84Z"/><path class="cls-1" d="M103,568.44c8.07,3.93,14.25,23.86,11.09,31.23-.68,1.56-2,3.7-3.28,3.91-1.59.25-4.32-.77-5-2.07a43.86,43.86,0,0,1-4.79-12C99.51,582.53,100.42,575.49,103,568.44Z"/><path class="cls-1" d="M338.38,175.7c-1.84,4.12-3,8-5.15,11.13s-7.17,3.8-10.13,2-3.73-5.13-1.8-9.33a43.9,43.9,0,0,1,5.24-8.07c1.77-2.32,4.48-4.07,7.11-2.34C335.64,170.42,336.66,173.2,338.38,175.7Z"/><path class="cls-1" d="M153.44,326.12c.54,2.5,1.49,5,1.53,7.52.09,5.86-2.77,10.63-7,14.36a6.5,6.5,0,0,1-5.67.89c-1-.42-1.8-3.5-1.39-5.05,1.86-7,6.41-12.47,11.07-17.75Z"/><path class="cls-1" d="M348.93,464.51c-11.07,1.93-21.4,2.88-31.68-2.32C324,458.42,344.56,459.61,348.93,464.51Z"/><path d="M264.68,100.74c-1,1.41-1.75,3.08-3,4.19-5.85,5.14-12.91,7.94-20.35,9.86a72.91,72.91,0,0,1-33.4.71,6.65,6.65,0,0,1-2.51-.68,28.88,28.88,0,0,1-3.09-2.88c1.33-.22,2.78-.88,4-.57,11.63,3.06,23.3,2.65,34.89.29a43.94,43.94,0,0,0,22.47-11.78Z"/><path d="M241.79,62.6c-.54,1.73-.83,4-1.91,5.87-2.2,3.77-6.07,3.48-8.11-.37-1.44-2.71-.46-10.16,1.63-12.44s6.36-1.46,7.31,1.34A42.34,42.34,0,0,1,241.79,62.6Z"/><path d="M257.59,60.4c-.3,5.38-2.67,8.78-6.19,8.48-3-.25-4.85-4.09-3.72-8.89a22.48,22.48,0,0,1,3.63-7.58c1.52-2.15,3.53-1.8,4.44.81C256.56,55.55,257,58,257.59,60.4Z"/><path d="M219.23,53.61c-.63-7.64,6.93-13.52,13.39-10.12C225.41,43.38,222,48.05,219.23,53.61Z"/></g></g></g></svg>