<svg xmlns="http://www.w3.org/2000/svg" viewBox="0 0 560.3 356.09"><defs><style>.cls-1{fill:#00b39f;}</style></defs><g id="Layer_2" data-name="Layer 2"><g id="Layer_1-2" data-name="Layer 1"><g id="Stickie_-_7" data-name="Stickie - 7"><path d="M259.49,139.27a19,19,0,0,0-1.69,1c-17.12,13.51-36.67,22.84-56.16,32.17a42.17,42.17,0,0,1-15,3.48c-7.74.55-15.54.14-23.32.05a49.09,49.09,0,0,1-5.24-.58l-.25-1.09a12.92,12.92,0,0,1,3.59-1.11q11.51-.09,23,.11a41.71,41.71,0,0,0,20.38-4.9c16.6-8.65,33.74-16.35,48.76-27.75,2.69-2,5.29-4.19,8.14-6.45l-8.33-14.06c-5.53,2-10.63,4.31-16,5.8-24.39,6.83-54.94-5.13-67.65-26.36a40.68,40.68,0,0,1-5.65-19c-.83-15.41,2.15-29.75,10.89-42.68,5.66-8.36,12.95-14.54,22.73-17.55a43.5,43.5,0,0,0,13.52-6.74c6.32-4.72,14-6.42,21.7-6.73,9.72-.39,19.48.25,29.23.48a2.28,2.28,0,0,1,1.84,1c-8.49.24-17,.44-25.47.74s-17,1.17-24,5c7.11.46,14.87,1,22.64,1.42,2,.09,3.94-.55,5.92-.68,11.65-.75,23.28-.95,34.8,1.3v.76H244.12l-.21.93c1.41.79,2.81,1.6,4.24,2.36,17.1,9,28.11,22.68,31.63,41.86,3.1,16.88-1.74,31.76-12.35,44.93-3.43,4.27-7,8.41-10.88,13,6.52,10.69,13.67,23,21.4,35q37.14,57.39,74.71,114.49c11.21,17,25,31.77,40.15,45.35q20.47,18.38,40.74,37c1.64,1.51,2.86,1.7,4.59.5,7.37-5.1,15-9.86,22.09-15.32q28.11-21.6,55.78-43.75c5.56-4.47,10.47-9.79,15.47-14.92,4.07-4.19,6.1-4.71,10.81-1.39a74.62,74.62,0,0,1,16.89,17.22,4,4,0,0,1,1,1.82c.08,1.5.4,3.37-.34,4.4-.63.86-2.76,1.29-4,1-10.48-2.81-17.92-9.18-21.81-19.47-.23-.61-.4-1.26-.48-1.5-26.14,25.06-55.48,46-84.44,67.48a142.05,142.05,0,0,1-12.6,8,3.54,3.54,0,0,1-3.13-.25,80.12,80.12,0,0,1-6.92-5.69c-11.41-10.27-22.73-20.65-34.2-30.85a254.93,254.93,0,0,1-32.41-35.14,14.54,14.54,0,0,0-9.15-5.86c-22.2-4.76-44.32-9.91-66.5-14.79-10.89-2.4-21.86-4.42-32.76-6.78-2.54-.55-4.15.71-6,1.86-19.53,12.38-39.12,24.66-58.58,37.14-10.32,6.61-20.47,13.49-30.62,20.37a5.68,5.68,0,0,1-5.58.75,59.33,59.33,0,0,1-19.32-11.11,15,15,0,0,1-3.89-5.53c-1.51-3.78.91-7,5-7.19a16,16,0,0,1,12.28,4.6c3.62,3.62,6.59,7.9,9.76,12a26.24,26.24,0,0,1,2,3.75c8.69-5.83,17-11.63,25.54-17.09,20.56-13.17,41.25-26.13,61.8-39.31a14.68,14.68,0,0,1,11.87-1.94c31.14,6.77,62.32,13.39,93.48,20.06.85.18,1.72.3,2.83.5L262.87,138c.08-.1-.21.15-.33.47-6.67,17.81-17.31,33.4-27.45,49.28-3,4.7-5.66,9.63-8.8,14.23a7.44,7.44,0,0,1-4.51,2.8c-8.56,1.37-17.13,2.73-25.76,3.52-9.31.84-18.68,1.31-28,1.44a97.81,97.81,0,0,1-15.42-1.48,2.93,2.93,0,0,0-3.54,1.6c-2.75,4.29-6.59,6.93-11.92,6.57a6.51,6.51,0,0,1-6.4-5.31,15.75,15.75,0,0,1,2.93-13.85c2.72-3.64,6.67-2.57,10.23-2.06,3.29.48,6,2.65,6.45,5.88.56,4,3.12,4.57,6.16,5,11.94,1.74,23.86,1.28,35.78-.16,9-1.09,18-2.33,27-3.42,3.21-.39,5.19-1.84,6.92-4.77,6.58-11.05,13.75-21.74,20.3-32.81,4.3-7.27,7.92-14.95,11.82-22.47A31.18,31.18,0,0,0,259.49,139.27Zm-73.19-27.1c9.71,6.57,19.53,11.19,30.91,12.21,14.44,1.3,27.91-1.37,39.49-10.23,17.68-13.52,25.45-35.48,17.71-58.84C266.5,31.41,238.73,10.43,207.26,19l2.22,1.35a4.18,4.18,0,0,1-1,.56,32.8,32.8,0,0,1-3.54.51c-10.61.75-18.93,5.67-25.36,14C169.62,48.19,166.19,62.91,167,78.9c.64,12.06,5.92,21.75,14.9,29.54a4.28,4.28,0,0,0,3.43.7c8.13-2.28,15.75-5.77,22.19-11.27,2.86-2.45,5-5.75,7.52-8.58.45-.49,1.36-.56,2.06-.82l.73.75a26.2,26.2,0,0,1-2.38,4.48c-4.86,6-11.26,10.08-18,13.54C194,109,190.43,110.37,186.3,112.17ZM154.08,314.81c-2.42-7.19-8.72-15-14.59-18.06a16.81,16.81,0,0,0-5.93-1.61c-1.32-.14-3.8.44-3.87,1a6.25,6.25,0,0,0,1,4.57C136.86,307.63,144.83,311.69,154.08,314.81ZM133,206.2c-.08,4.58,2.29,7.56,6.09,7.63,4.59.09,9-4.24,9.1-8.89.08-4.28-4.54-8.26-9.61-8.29C135.41,196.64,133.05,200.66,133,206.2Zm424.89,92.39c-2.4-7.24-16.69-21-21.9-21.2C535.33,284.39,547.23,297.4,557.85,298.59Z"/><path d="M156.86,104.47v99.38l-1,.35a9,9,0,0,1-1.12-2.67c-.18-2.88-.18-5.78-.18-8.68q0-40.71,0-81.42v-4H2.82V221.93H154.18c1.26-3.55-1-7.45,1.49-10.28l1.27.17c0,3.71.2,7.44-.16,11.12-.09.82-2.15,2-3.35,2.06-4.18.25-8.37.09-12.56.08L7.2,224.76H5.11c-4.9-.05-5-.05-5-5Q0,163.21,0,106.64c0-2.21.61-3,3-2.59a43.73,43.73,0,0,0,7.16.25l142.94.17Z"/><path d="M293.72,137.19c3-.1,6-.37,9-.28,13,.4,26.09,1.05,39.14,1.34,18.23.4,36.47.53,54.7.82,3.27.06,6.54.35,9.79.7Q350,141.72,293.7,138.4C293.7,138,293.71,137.59,293.72,137.19Z"/><path d="M467.35,272.86c-26.59,3.3-53.32,5.08-80.16,4.15l-.06-1.39Z"/><path d="M504.39,113.6l-85.91-1.3,0-1.37c28.6-.21,57.2-.23,85.78,1.55Z"/><path d="M351.19,176.05c37.82.09,75.64-.72,113.43,1.77l-113.32-.91C351.27,176.63,351.23,176.34,351.19,176.05Z"/><path d="M318.5,302.34c-28.35.13-56.7.56-85-.61V301h85Z"/><path d="M463.09,347.14l70.12,3.1c-23.48,1.2-46.86-.43-70.28-1.07Z"/><path d="M325.23,216.46,294.72,163C308.69,178.65,316.55,197.81,325.23,216.46Z"/><path d="M290.6,5.47l76.9-.93v1L290.58,7.16C290.58,6.6,290.59,6,290.6,5.47Z"/><path d="M334.16,56.42l68.59-3C379.93,55.54,357.14,58.64,334.16,56.42Z"/><path d="M286.56,39a27.79,27.79,0,0,1,2.79,3.6c3.57,6.66,3.36,13.89,2.46,21A51.56,51.56,0,0,1,288,76.27c.84-6.23,2-12.43,2.41-18.68a27.32,27.32,0,0,0-5-17.94Z"/><path d="M549.19,276.62c-4.15-5.19-8.67-8.72-15.47-7.3.94-2.72,3.46-3.45,8-2.46C546.92,268,549.57,271.25,549.19,276.62Z"/><path d="M164.7,141.66a197.86,197.86,0,0,1,31.08-.83l0,.83-31.05,1Z"/><path d="M523.69,295.92c-6.17,7.41-14.26,12.62-21.66,18.62l-.52-.6,21.57-18.73Z"/><path d="M309.61,168.1c4.16,5.32,8.48,10.53,11,16.92l-1.05.68q-5.46-8.4-10.94-16.8Z"/><path d="M300.83,40.52c4.29,3,5.27,18.2,1.34,26.52.23-4.44.82-9,.6-13.51S301.49,44.69,300.83,40.52Z"/><path d="M544.5,259.57c5.69-.8,10.11,4.34,9.64,10.21Z"/><path d="M121.48,301.82c-3.13-4.19-2.84-8.06-1-11.82.89-1.85,2.22-3.74,5.39-3.33C120.16,290.38,122.08,296.21,121.48,301.82Z"/><path d="M117.1,285V303.5C113.72,298,114.15,287.18,117.1,285Z"/><path d="M532.29,243.35H510.72v-.93C517.9,240.8,525.1,242.73,532.29,243.35Z"/><path d="M217.37,280.06c-5.29,4.7-10.24,9.85-16.92,13.78C201.21,291.16,213,281.78,217.37,280.06Z"/><path d="M360.05,214.89h31.39v.62H360Z"/><path d="M451.06,212l28.57,1.5c-9.56.33-19.13,1.12-28.61-.39Z"/><path d="M206.77,296.19l16.06-10.49C220.2,290.18,209.8,297.26,206.77,296.19Z"/><path d="M187.47,153.71l-19.6-1.82.12-1.21c6.7-.77,13.06,1.76,19.64,2.06Z"/><path d="M246.42,199.34c-2,5.33-6.31,8.71-10.89,11.87l10.19-12.46Z"/><path d="M523.82,303.88l-14.4,9.75-.61-.87L523,302.7Z"/><path d="M226.05,208.6l8.75-12.31C234.9,200.44,230.38,206.76,226.05,208.6Z"/><path d="M161.72,117.77q-.36-7.32-.7-14.64l1.11-.06C163.78,107.88,162.33,112.85,161.72,117.77Z"/><path d="M348.25,76.7,364.77,78c-5.56.13-11.21,1.64-16.63-.35C348.17,77.34,348.21,77,348.25,76.7Z"/><path d="M164.35,222.12c-1.35,4.78-5,7.81-8.83,10.68,1.49-1.88,3.1-3.69,4.45-5.67,1.26-1.83,2.24-3.84,3.35-5.78Z"/><path d="M275,.67,260.88,2l-.1-1.19L275,0Z"/><path d="M534.61,329.32l10.94,1.17-.08.87-10.91-1Z"/><path class="cls-1" d="M154.08,314.81c-9.25-3.12-17.22-7.18-23.38-14.14a6.25,6.25,0,0,1-1-4.57c.07-.52,2.55-1.1,3.87-1a16.81,16.81,0,0,1,5.93,1.61C145.36,299.78,151.66,307.62,154.08,314.81Z"/><path class="cls-1" d="M133,206.2c.09-5.54,2.45-9.56,5.58-9.55,5.07,0,9.69,4,9.61,8.29-.08,4.65-4.51,9-9.1,8.89C135.25,213.76,132.88,210.78,133,206.2Z"/><path class="cls-1" d="M557.85,298.59c-10.62-1.19-22.52-14.2-21.9-21.2C541.16,277.63,555.45,291.35,557.85,298.59Z"/><path d="M194.23,62.69c-1.24,2.73-2.17,5.68-3.88,8.07A5,5,0,0,1,185.68,72,5.61,5.61,0,0,1,183,67.66a19.6,19.6,0,0,1,1.91-8c1-2.11,3.21-3.86,5.89-3.09S193.37,60.07,194.23,62.69Z"/><path d="M186,48.66c1.54-2,5.64-2.7,9.14-1.51.28.1.65.13.82.33,1.06,1.2,3.18,3.11,2.91,3.56-1.36,2.24-2.51-.37-3.85-.63C192,49.82,189.07,49.26,186,48.66Z"/></g></g></g></svg>