<svg id="Layer_1" data-name="Layer 1" xmlns="http://www.w3.org/2000/svg" viewBox="0 0 612 792"><defs><style>.cls-1{fill:#1c1c1c;}.cls-2{fill:none;stroke:#1c1c1c;stroke-miterlimit:10;}.cls-3{fill:#00b39f;}.cls-4{fill:#fdfdfd;}</style></defs><g id="Stickie_-_8" data-name="Stickie - 8"><path class="cls-1" d="M330.9,394.07a30,30,0,0,0-1.65,3c-.56,1.29-1.43,2.65,1.19,3,1.49.18,2.09,1.86,2.46,3.25A15.7,15.7,0,0,1,329.53,418a5.17,5.17,0,0,1-6.11,1.88c-2.48-.91-2.53-3.1-2.4-5.25a29.83,29.83,0,0,1,2.53-10.49c3.49-7.75,7.55-15.14,14-20.94,1-.88,1.82-2,2.85-2.79,1.82-1.46,1.22-2.25-.53-3.18a128.22,128.22,0,0,0-14.61-6.43c-19.33-7.23-38.55-14.7-56.3-25.41-2.09-1.25-2.52-.63-2.93,1.57-4.76,25.51-13.12,50.14-18.48,75.51-2.63,12.47-5.31,24.92-7.36,37.51a8.44,8.44,0,0,0,1.17,5.69c5.17,10.38,9.32,21.21,13.77,31.91C263,516.4,270,535.57,276.4,555c.3.91.58,1.82.83,2.73,1,3.49.45,4.7-3,5.84-7,2.32-14.12,4.5-21.19,6.7-19.64,6.12-38.28,14.8-57.4,22.24-6.82,2.65-13.65,5.27-20.47,7.92-.79.31-1.55.69-2.76,1.23,2.75.88,2.65,2.87,2.59,4.82-.18,6-2.25,11.33-5.28,16.37-.63,1-1.38,2.49-2.7,2.22-1.55-.31-1.48-2-1.58-3.31-.62-7.73,2.1-14.58,5.56-21.24a2.82,2.82,0,0,1,1.71-1.37c23.66-8.35,46.44-19,70-27.49,9.75-3.53,19.66-6.54,29.65-9.3,2.75-.76,3.32-1.9,2.38-4.61q-14.26-41.22-31.19-81.41a49.46,49.46,0,0,0-4.46-8.87c-.69,3.72-1.39,7.44-2.07,11.16C231,511.91,224,545,216.59,578.06c-.29,1.31-.58,2.39-2.37,2.55-.38-1.5.3-2.91.61-4.29,7.73-34.81,15.08-69.7,21.51-104.77,4-21.76,7.27-43.66,12.63-65.16,4.68-18.72,10.62-37.11,14.32-56.07.24-1.21,2.46-2.37.76-3.47-1.3-.84-2.34,1.11-3.52,1.76-10.07,5.57-20.65,10.1-31.15,14.78-15.27,6.81-30.58,13.53-46.38,19.07-1.58.55-2.77.71-3.62-.9-7.68-14.54-17.71-27.74-24.49-42.79-2.65-5.89-5.06-11.89-7.69-17.79-.49-1.09-.48-3.22-2-2.93a5.06,5.06,0,0,0-3.87,3c-1.16,2.91-2.54,5.73-3.79,8.61Q123,363,108.35,396.22c-.7,1.58-.79,4.06-2.65,4.44-2.93.6-6.06.95-9-.47-.85-.41-1.6-1-2.42-1.5-2.41-1.41-3-3.26-1.38-5.64,1.47-2.16.59-3.12-1.6-4.07-9.07-3.93-18-8.1-27.09-12-1.88-.82-2.44-1.74-1.62-3.55.55-1.21,1.08-2.42,1.64-3.62.79-1.71,2.07-2,3.76-1.39s3.57,1.33,5.36,2c.54.18,1.19.31,1.44-.41s-.54-.81-1-1a6.6,6.6,0,0,0-1.1-.3c-4.37-1.5-4.88-2.57-3.24-6.77.11-.26.14-.6.32-.78,1-1-.26-3.12,1.15-3.39s2.89.7,4.38.94,3.56,2.24,4.21.48-2.17-1.61-3.46-2.15c-8.3-3.51-7.17-1.2-3.67-9.49,1-2.42,2.38-3.16,5.09-1.94,9.28,4.15,18.7,8,28,12.07,1.84.81,2.57.43,3.33-1.34,5.28-12.31,10.66-24.58,16-36.86a10,10,0,0,0,.75-5.46,13.92,13.92,0,0,1,6.69-14.13c1.63-1.06,2.21-2.56,2.88-4.07q14-32,28-63.94c1.33-3,2.52-6.16,4-9.13.83-1.67.4-2.55-1-3.48a67.23,67.23,0,0,1-12.79-10.89c-5.69-6.35-9.67-13.4-9.25-22.31s5-15,12.63-18.95c9.12-4.67,18.89-4.87,28.7-3a66.06,66.06,0,0,1,32.54,16.17c5.79,5.28,10.41,11.4,12.5,19.08,3.06,11.19-1.65,21.44-12,26.79-7.76,4-16,3.79-24.29,3a59,59,0,0,1-9.83-1.66c-1.9-.52-2.46,0-3.13,1.56-4.32,10-8.73,20-13.1,30q-9.74,22.32-19.43,44.68c-.33.76-1.38,1.61-.29,2.5,3.13,2.58,1.63,5.36.07,7.79-1,1.53-.73,2.46-.16,4,8.1,21.4,20.77,40.34,32.13,60,1.28,2.22,2.55,2.49,4.81,1.66,14.72-5.41,29.08-11.7,43.4-18.07,9-4,18-8.22,26.94-12.37,1.89-.88,3.61-2.1,5.43-3.11,3.31-1.84,4.43-4.58,4.76-8.13.18-2-.1-2.71-2.21-2.79-11-.43-20.48-4.75-28.93-11.45-8.85-7-13.45-16.14-13.56-27.66-.11-12.35,3-23.48,10.65-33.27A30.19,30.19,0,0,1,247,252.11a7.54,7.54,0,0,0,4.45-3.59c3.5-5.64,7.8-10.57,13.78-13.76a9.39,9.39,0,0,1,7.05-1.2c-8.71,3.23-14.92,8.25-18.89,15.92,4.19-1.52,8.79-1.4,12.32-5a38.83,38.83,0,0,1,15.51-9.26c-5.13,3.85-10.67,7.16-16,11.75,2.44.16,4.45.25,6.45.42,17.39,1.47,33,14.7,38.42,32.47,7.18,23.64-9,49.69-34,54.57a59.2,59.2,0,0,1-6.5.82c-2.79.24-1.62,2.61-2.11,4-.32.91-1.12,2.29.65,3.15,12.39,6,24.34,12.9,37.26,17.85,10.11,3.87,20.35,7.43,30.24,11.86a39.82,39.82,0,0,1,7.77,4.18c1.57,1.17,2,2.25.17,3.75a67.17,67.17,0,0,0-10.86,11.3c-1,1.36-1.16,1.91.67,2.78a261.6,261.6,0,0,0,35.16,14.1c20,6.17,40.12,6.59,59.88,0,6.25-2.1,11.35-3.68,16.94.41A102.9,102.9,0,0,0,508,407.29a232.82,232.82,0,0,0,37.13-16,8.78,8.78,0,0,1,1.32-.51h0c.56,2-1.25,2.38-2.29,3.06-5.24,3.49-11,5.93-16.77,8.46-14.25,6.27-29,11.46-44.56,12.33-15.23.85-30.51.22-44.28-7.84-1.55-.91-2.51-.25-3.6.34-13.66,7.44-28.61,8.39-43.56,7.58s-29.06-5.44-42.72-11.41c-5-2.21-10-4.62-15-7-.9-.43-2-.66-2.32-1.9.39-.33,1.1-.7.47-1.2C331.4,393,331.16,393.73,330.9,394.07ZM157.83,209.44c-.24-.26-.52-.59-.82-.17s.19.53.44.71l.51.37A.67.67,0,0,0,157.83,209.44Zm-17.74,80.68-.49,1.26c-2.7,4.83-4.46,9.9-4,15.63,2-.1,3-2.55,5.05-2.56s2.5-1.21,3.14-2.68Q158.34,268.35,173,235c1.16-2.66,2.39-5.28,3.59-7.91.46,1.62-.37,2.82-.91,4.08q-15.15,35-30.3,70c-.41.95-2,2.43-.47,3.12,1.76.78,1.85-1.47,2.31-2.53,5.81-13.2,11.53-26.46,17.32-39.68q7.65-17.47,15.43-34.91c.44-1,.57-2.47,2.51-2a90.47,90.47,0,0,0,9.85,2.12c7.49,1.11,15,1.57,22.31-1,9-3.16,17.06-11.49,14.6-24.58-1.26-6.65-4.66-12.17-9.16-17.11-10.27-11.28-23.39-17-38.13-19.4a38.77,38.77,0,0,0-24.7,3.57c-8.33,4.34-12.51,12.1-11.54,21.4.75,7.18,4.7,12.72,9.51,17.75.33.34.77.84,1.17.45.67-.65-.37-1.12-.39-1.74l.59-.39a10.8,10.8,0,0,0,1.87,2.09c2.16,1.4,1.54,4.46,3.72,5.87s4.07,3.16,6.28,4.43c1.77,1,2,1.78,1.16,3.73-9.74,22.16-19.35,44.39-29,66.61Zm-61.7,58.19-1.13-.47c-1.8-1.35-2.83-.64-3.47,1.27a9.83,9.83,0,0,1-.92,2.07c-1.09,1.69-.4,2.54,1.28,3.1,2.33.79,4.63,1.67,6.94,2.51,1.11.4,1.78.76.87,2.18a6.39,6.39,0,0,1-7.54,2.18c-3.17-1.3-2.93,1.57-3.81,3-1.24,2,.48,2,1.71,2.36a14.88,14.88,0,0,1,3,1c.75.39,2.47.1,1.82,1.77-.55,1.43-1,3.27-3.33,2.55-1.89-.58-3.79-1.19-5.69-1.75-.69-.2-1.38-.62-2.11.05-2.31,2.07-1.95,4.67.84,5.88.43.18.88.32,1.33.48l1.14.53,10.42,4.45c4.59,2,9.19,4,13.76,6.08a1.41,1.41,0,0,0,2.2-.85c3.58-8.27,7.12-16.54,10.74-24.79.52-1.21.16-1.65-.92-2.1C97,356.25,88.53,352.63,80.06,349Zm49.71-30.63-1.2,2.77q-15.56,35.66-31.09,71.3c-2,4.66-1.83,5.13,2.85,7.08a10.83,10.83,0,0,0,1.36.45c3.44.86,4.52.36,5.93-2.87q15-34.34,30-68.69c1.08-2.46,2.11-4.94,3.24-7.58-3.88-.59-2.91,3.87-5.44,4.65.5-2.09,2.51-4.36,1.19-5.64-2.61-2.52-2-5.07-1.48-7.87l.05-.69-.59.31a16.42,16.42,0,0,0-4.22,5.55Zm128.56-65.76a8.38,8.38,0,0,1-1.23.48,19.3,19.3,0,0,1-2.25.31,26.28,26.28,0,0,0-19,9.76c-7.94,9.5-10.92,20.64-10.75,32.84.15,10.49,4.44,18.87,12.37,25.56a48.53,48.53,0,0,0,34.44,11.85c22.71-1,42.43-20.67,38.4-46.73-3.59-23.18-27.39-41.71-53.88-35.22ZM143.28,305.65a9.12,9.12,0,0,0-8.06,6.1c-1.2,3.23.28,5.66,3.71,6.09s6.94-1.8,8.68-5.62S147.47,305.53,143.28,305.65Zm188,102.2a13.09,13.09,0,0,0-1.22-5.49c-.35-.82-.55-2.11-1.56-2.08a2.84,2.84,0,0,0-2.07,1.75,31.12,31.12,0,0,0-3.35,12.53c-.06,1.53.47,2.84,2.12,3.28s2.73-.34,3.59-1.66A14.7,14.7,0,0,0,331.29,407.85Zm-163.48,215c3.41-5.88,5.48-11.38,5.24-17.55,0-.74.11-1.78-.75-2-1.05-.24-1.35.83-1.63,1.61-.9,2.49-1.87,5-2.58,7.51A19.29,19.29,0,0,0,167.81,622.86ZM127.44,313.94c2.91-2.64,5.29-4.85,6.55-8a3.58,3.58,0,0,0-.16-3c-.71-1.43-1.45-1.82-2.7-.44C128.36,305.51,127.07,309,127.44,313.94Z"/><path class="cls-1" d="M502.22,575.83c.69-1.11,2.76-1.51,1.8-3.48l.06-.07c1.56,1,1.64-.72,2.13-1.34,13-16.28,22.66-34.51,31-53.5,11.34-25.8,17.45-53,20.94-80.8,1.87-14.93,2.29-30,2.46-45,0-.61.27-1.3-.51-2.07l-5.91,5.51-.41-.41q2.36-2.6,4.7-5.2c.35-.39,1-.81.4-1.38s-1,0-1.4.37l-3.89,3.17a4.36,4.36,0,0,0-.4-.35c1.64-1.59,3.19-3.29,4.95-4.73,1.18-1,1.56-1.49.1-2.59a60.74,60.74,0,0,0-10.69-6.54c-2.36-1.09-4.44-1.36-6.28,1.43-1.94,3-5.1,4.78-8.24,6.44-13.25,7-27.48,11-42.15,13.62-2.38.43-4.35.93-5.76,3.31-1.66,2.82-4.56,4.73-6.5,7.43,1.24-3.85,4.61-6.22,7.16-9.63-3.4,0-6.19-.14-7.91,3.29a16.8,16.8,0,0,1-4.85,5.51c1.32-3.21,4-4.95,5.18-7.89-1.88,0-3.61-.06-5.35,0-5.52.2-11,.19-16.56-.16a25.4,25.4,0,0,1-11.44-3.18c-2.37-1.4-5.14-2-7.29-3.8-1-.82-1.63,0-2.48.49-6.06,3.41-12.19,6.5-19.45,6.62-8.3.13-16.57.3-24.81-.78-17.27-2.27-33.95-6.58-49.63-14.37,1.33-2.11,1.31-2.07,3.32-1.18,22.89,10.11,46.72,15.39,71.85,14,6.4-.37,12.19-2.8,17.75-5.77a4.63,4.63,0,0,1,5-.09,50.9,50.9,0,0,0,24.6,6.22,162,162,0,0,0,64-13.69c4.74-2.06,9.25-4.6,12.7-8.54,2.09-2.4,4.49-2.35,6.93-1.32a45.66,45.66,0,0,1,13.43,8.53,3.16,3.16,0,0,1,1.08,2.48c.88,35.43-2.38,70.39-12.86,104.37-10.42,33.78-25.93,64.95-49.66,91.54-15.82,17.71-33.5,33.15-54.64,44.44-5.54,3-10,3.14-15.56.15-18.24-9.79-34-22.68-48.28-37.48-30.48-31.63-49-69.74-59.82-111.9-7.67-29.82-9.88-60.21-9.24-90.88a3.65,3.65,0,0,1,1.31-2.94,48.52,48.52,0,0,1,12.69-8.11c2.76-1.24,5.44-1.41,7.67,1.35a43.45,43.45,0,0,0,4.08,3.94c-1,1.49-2.07,1.64-3.23.26a14.13,14.13,0,0,1-2.27-2.54c-1.27-2.65-3.29-2.19-5.27-1.38a52.12,52.12,0,0,0-12.8,7.93,2.58,2.58,0,0,0-.92,2.24c-.49,37.27,3.69,73.92,15.46,109.43a259.43,259.43,0,0,0,29.32,61c.56.86,1.17,1.69,1.82,2.63,1-2.74,1.45-5.56,4.16-7.81,0,3.07-1.59,4.84-3,6.46-.95,1.1-1.08,1.61-.28,2.73,19.22,27.26,42.7,49.76,72.6,65.1,3.34,1.71,3.34,1.7,3.45-2a5.28,5.28,0,0,1,.69-3.25c1.32,2.07-.18,4.2.74,6.31a118,118,0,0,0,18.55-10.33l2.84-2a21.54,21.54,0,0,0,4.66-3.39,67.68,67.68,0,0,0,8.8-6.71C483.57,596.57,493.71,587,502.22,575.83Zm57.86-190a4,4,0,0,0-.42.71.46.46,0,0,0,.16.39c.32.25.5-.09.53-.27S560.21,386.23,560.08,385.86Z"/><path class="cls-1" d="M489.19,558.77c.68,3.49-1.57,5.8-5.21,6s-7.42.28-11.14.29q-40.27.11-80.55.14a10.89,10.89,0,0,1-5-.76c-3.1-1.49-4.67-3.41-4.65-7.23.13-21-.06-41.89-.15-62.84,0-.48,0-.95,0-1.43-.36-5.72,1.19-7.56,7.13-7.72,2.38-.06,3-.76,2.89-3.08-.58-16.41,4.48-31.19,14-44.29,6.65-9.13,16.08-13.44,27.53-13.8,16.85-.53,28.52,7.09,36,21.76,5.74,11.24,9.54,23,8.84,35.84-.14,2.63.55,3.93,3.35,3.57,4-.53,6,1.95,7.61,5.09a1.94,1.94,0,0,1-.48,2.56c-.56-.12-.67-.59-.81-1-1.32-4.09-2.27-4.8-6.4-4.8q-47.13,0-94.26-.14c-2.49,0-3.58,1.32-4.6,3.09-.23.4-.6,1-.17,1.3,2.09,1.38,1.21,3.44,1.21,5.21q0,30.42-.18,60.84c0,4.76.8,5.83,5.56,5.85,24.38.14,48.75.17,73.12.23,6.29,0,12.57-.12,18.85.05C485.06,563.56,487.64,562.7,489.19,558.77ZM466.25,448.85l-.66-.36c2.6-3.61,2.6-3.61,0-7.45l-.32-.47c-8-11.29-19.05-15.68-32.65-14.83-12.09.75-21.35,6.25-27.37,16.5-6.71,11.44-11.12,23.72-10.72,37.34.16,5.72-.08,5.6,5.79,5.69,2.3,0,2.6-.8,2.59-2.78,0-6,0-12.05,1.57-17.87,3-11.21,8.1-21,18.34-27.55,9-5.73,19.43-4.14,27.09.89,9.17,6,13.78,15.22,16.74,25.33,1.88,6.44,1.87,13.16,1.89,19.84,0,1-.21,2.33,1.46,2.05,2.31-.38,4.82,1,7-.75.15-.12.05-.55,0-.84-.14-5.7.17-11.44-1.18-17-1.64-6.79-3.64-13.45-7.2-19.67ZM435.8,485.2c9.8,0,19.59-.05,29.39,0,1.75,0,2.35-.38,2.12-2.21-.52-4.24-.84-8.51-1.3-12.77a46.7,46.7,0,0,0-11-25.81c-10.58-12.38-26.55-13-37.79-.9a45.62,45.62,0,0,0-11.59,25.24c-.65,4.61-.87,9.28-1.52,13.89-.29,2.08.27,2.58,2.3,2.56C416.2,485.15,426,485.2,435.8,485.2Z"/><path class="cls-1" d="M457.4,608.07c-5.77,3.84-11.48,7.77-17.52,11.21a5.28,5.28,0,0,1-6,0q-5.08-3.16-10.25-6.18c-.7-.41-2-2.21-2.16.43,0,.1-.23.24-.38.27-1.15.3-6.38-3.48-6.42-4.68,0-.93.66-.68,1.2-.62l.86.61.63.38.71.43.62.53c.54.5.89,1.39,2,1.14A3.16,3.16,0,0,0,419,610l-.6-.38-.73-.42-.63-.51-1.18-.94A230.54,230.54,0,0,1,370,559.85c-18.19-25.24-29.46-53.46-36.4-83.57-3.68-15.93-8.08-31.71-9.47-48.09-.1-1.13-.29-2.27-.3-3.4,0-.63-.63-1.72.6-1.76,1,0,.95,1,1.05,1.72,2.87,22.2,8,43.93,13.79,65.51,12.68,47.14,39.12,85.11,77.06,115.37a168.44,168.44,0,0,0,17.56,11.7,5,5,0,0,0,5.73,0c17.48-10,32.17-23.23,45.74-37.91,26.11-28.27,42.54-61.55,51.59-98.72,3.71-15.24,7.08-30.56,9.86-46a183,183,0,0,0,2.25-41c-.09-1.85-.89-2.73-2.65-2.91,0,0,0,0,0,0,.71-.17,1.1-1.36,2.17-.54.83.63,1.61,1,1.76,2.29a142.47,142.47,0,0,1-.43,30.76c-3.29,31.25-10.91,61.53-21.64,91-6.59,18.11-16.5,34.59-28,50-.62.84-1.2,1.71-1.8,2.56l-1.8,2.25-.34.52c-1.85,2.16-3.72,4.31-5.56,6.48A229.82,229.82,0,0,1,457.4,608.07Z"/><path class="cls-2" d="M445.8,505.11c3.14,5.95,2.66,9.75-2.08,14.31a4,4,0,0,0-1.24,3.25c0,8.83-.2,17.67-.14,26.51,0,2.53-1.13,3.42-3.36,3.48-1.71.05-3.42.05-5.13,0-4-.06-4.15-.13-4.2-4.21-.1-8.08-.1-16.16-.06-24.24a3.48,3.48,0,0,0-1.8-3.39c-6.4-4.27-6.08-14.33.51-18.29,3.89-2.33,8-3.56,12.41-1.4.76.23,1,0,.57-.71.19-.39.28-1.07.87-.83,2.11.84,3.87,2.1,4.58,4.41.13.43-.17.67-.61.69-.07-.43-.43-.77-.73-.51C444.73,504.76,445.69,504.79,445.8,505.11Z"/><path class="cls-1" d="M214.65,586.51c-2.79,12.27-5.45,24.29-9.22,36a3.57,3.57,0,0,1-2.07,2.57c-6.2,2.19-12.51,3.94-19.15,3.95-1.49,0-3.73.28-4.14-1.66s1.44-3,2.91-3.81c5.86-3.26,12.27-3.89,18.79-3.43,2.22.15,2.84-.53,3.3-2.58,2.15-9.44,4.51-18.83,6.75-28.24C212.15,588,212.53,586.78,214.65,586.51Zm-10.49,36.24c-8.09-1.59-18.77.32-21.58,3.9C190.13,627.31,196.9,625.31,204.16,622.75Z"/><path class="cls-1" d="M489.89,494.5c0,2.82,0,5.63,0,8.44.11,16.66.25,33.32.31,50,0,1.32.58,3.69-1,3.71s-.85-2.32-.85-3.55c0-18.94-.07-37.89.47-56.83,0-.55.05-1.1.08-1.65Z"/><path class="cls-1" d="M391.88,560.09c22.43-.07,44.87-.19,67.3.19V561H391.9Z"/><path class="cls-1" d="M547.6,393.9c-.3,5.35-.26,10.05-2,14.55.26-4.06.53-8.12.82-12.61-8.16,4.93-16.6,8.24-25.18,11.23C529.8,402.73,538.91,399.53,547.6,393.9Z"/><path class="cls-1" d="M360.76,534.26c5.39,8.3,9.18,17.57,15.36,25.4C370.39,555.74,361.51,539.58,360.76,534.26Z"/><path class="cls-1" d="M329.67,424l5.19,29.22c-2.48-9.64-5.89-19.1-6.08-29.16Z"/><path class="cls-1" d="M486.77,493.86c-1.3.43-.95,1.49-.81,2.36,1.33,8.76,1.25,17.58,1.12,26.4a2.42,2.42,0,0,1-.68,2c-.59-.84-.34-1.77-.36-2.63-.15-7.6-.26-15.21-.43-22.81,0-1.86,1-3.43,1.11-5.23Z"/><path class="cls-1" d="M436.21,488.64h-36.8a2.91,2.91,0,0,1-1.61-.47c12.79-.43,25.57-.91,38.36-.23Z"/><path class="cls-1" d="M328.13,459.9l5.75,25C331,481.25,327.29,465.44,328.13,459.9Z"/><path class="cls-1" d="M341.68,482.14l9.8,32c-4-10.44-8-20.89-10.47-31.81Z"/><path class="cls-1" d="M414.23,597.66c5.78,4.84,11.73,9.48,17.45,14.39C424.57,608.82,418.5,604.32,414.23,597.66Z"/><path class="cls-1" d="M517.37,528.14c-3,8.42-8.06,15.6-13.67,22.41C508.23,543.06,512.83,535.61,517.37,528.14Z"/><path class="cls-1" d="M353.17,409.63c-6.26-1.82-11.95-3.73-17-7.18a5.48,5.48,0,0,1-1.43-1.69c-.12-.18.16-.69.37-1a.77.77,0,0,1,.71.07c4.82,4.55,11.3,5.92,16.94,8.9C352.81,408.8,352.82,408.91,353.17,409.63Z"/><path class="cls-1" d="M190.28,390.57a27,27,0,0,1-10.23.3,7.91,7.91,0,0,1-3.25-1.68c-1.1-.87-3.19-2-2-3.43,1.05-1.31,2.14.79,3.07,1.49,3,2.28,6.69,2.48,10.2,3.14A18.78,18.78,0,0,0,190.28,390.57Z"/><path class="cls-1" d="M469.39,591.12a155.91,155.91,0,0,1,17.05-17.81A164.88,164.88,0,0,1,469.39,591.12Z"/><path class="cls-1" d="M531,491.72c1.81-7.49,3.54-14.61,5.26-21.74C537,473.34,533.07,489.05,531,491.72Z"/><path class="cls-1" d="M57.47,389c-6.35-.62-9.46-5.14-5.95-13,.45,3.11-.53,5.68.79,7.93A13,13,0,0,0,57.47,389Z"/><path class="cls-1" d="M237.2,218.84c4.15-4.55,6.48-12.52,4.49-15.52,1.93-.83,2.75-.33,2.69,1.86-.17,5.56-3,9.84-6.38,13.92-.28.34-.66.17-.85-.25Z"/><path class="cls-1" d="M386.73,496.2a134.35,134.35,0,0,1-.11,24.48C386.12,512.52,385.66,504.36,386.73,496.2Z"/><path class="cls-1" d="M58,370.15c-.74,4.9-.42,9,1.76,12.78C55.33,381.58,54,374.23,58,370.15Z"/><path class="cls-1" d="M438,410.48c4.79,1.46,9.49,3.12,14.46,3.77C447.23,414.58,442.16,414.29,438,410.48Z"/><path class="cls-1" d="M232.39,213.92c2.53-3.85,1.49-8.25,2.63-12.39C237.43,205,235.91,212.2,232.39,213.92Z"/><path class="cls-1" d="M444.58,523.08c1.23,4.78.85,9.66.72,14.54h-.72Z"/><path class="cls-1" d="M143.66,172.26c2.37-4.09,4.83-8.08,10-9A94.5,94.5,0,0,0,143.66,172.26Z"/><path class="cls-1" d="M327.28,385.26c-1.26.38-.94,2.06-2.31,2.59-.51-1.36.32-2.47.62-3.62a17.88,17.88,0,0,0,1-3.2c.07-1.17,0-2.54,1.28-2.66,2-.19-.23,2,1.07,2.38l.06-.06c-.94,0-.9.55-.61,1.2l0-.06c-.83.38-.83,1-.59,1.78l0-.07c-.76.41-1.06,1-.59,1.78Z"/><path class="cls-1" d="M322.64,401.32c.21-3,.42-5.87.59-8.71.14-2.14,1.67-2.35,3.4-2.49C322.13,392.8,326.42,398.19,322.64,401.32Z"/><path class="cls-1" d="M424.09,503.41c1.51-3.65,6-5.83,11.53-5.43C431.12,499.45,427.1,500.42,424.09,503.41Z"/><path class="cls-1" d="M529,391.12l10.16-6.07C538.13,387.44,534.21,389.87,529,391.12Z"/><path class="cls-1" d="M388.26,418.69h11C395.61,419.55,391.92,420.35,388.26,418.69Z"/><path class="cls-1" d="M314.56,386.23c2.71.72,4.33,2.9,6.28,4.64C318,390.42,316.11,388.52,314.56,386.23Z"/><path class="cls-1" d="M478.76,493.22a21.64,21.64,0,0,1,5.45-5.43C483.87,490,482.25,491.51,478.76,493.22Z"/><path class="cls-1" d="M536.6,495.48a27,27,0,0,1,2.45-8.5A24.67,24.67,0,0,1,536.6,495.48Z"/><path class="cls-1" d="M403,590c.56-2.23,1.08-4.48,3.51-5.61C406.26,586.79,404.64,588.4,403,590Z"/><path class="cls-1" d="M537.2,428c2.07-.84,3.67-2.83,6.77-2.8C541.72,427.17,539.69,428.13,537.2,428Z"/><path class="cls-1" d="M386.54,556.9q2.23-3,4.49-6l.66.47a29.64,29.64,0,0,1-4.59,6Z"/><path class="cls-1" d="M328.94,380.75c.63.05,1.63-.45,1.41.9a8.75,8.75,0,0,1-1.87,4.34c-1.39,1.65-.65-.71-1.2-.73l0,.06c1.12-.29,1.26-.9.59-1.78l0,.07c.93-.35,1.56-.79.59-1.78l0,.06c1,0,.79-.6.61-1.2Z"/><path class="cls-1" d="M437.26,401.83c-1-1.82-.66-3.67-.1-5.52C438.31,398.12,437.44,400,437.26,401.83Z"/><path class="cls-1" d="M446.1,519.56l4.18-6.2a10.18,10.18,0,0,1-3.86,6.54A2.58,2.58,0,0,0,446.1,519.56Z"/><path class="cls-1" d="M432.47,554.72c-3.44.53-4.11.19-5.11-2.6,1.23.15,1.29,1.61,2.33,1.77A22,22,0,0,1,432.47,554.72Z"/><path class="cls-1" d="M367.37,417.33a6.43,6.43,0,0,1,2-4.32C369.15,415.17,368.65,416.43,367.37,417.33Z"/><path class="cls-1" d="M393.28,553.24c-.49,2.16-1.46,3.84-3.63,4.48Z"/><path class="cls-1" d="M407.61,587.6c.14,1.93-1,3.19-2.58,4.61A7.42,7.42,0,0,1,407.61,587.6Z"/><path class="cls-1" d="M435.61,409.64c-1,1.49-2.59,1.88-4.14,2.38A5.9,5.9,0,0,1,435.61,409.64Z"/><path class="cls-1" d="M363.49,417.14a14.37,14.37,0,0,1,2.72-4.73C366.51,414.79,365.12,415.54,363.49,417.14Z"/><path class="cls-1" d="M488.71,405.53a13.92,13.92,0,0,1,3.53-4.19,14.89,14.89,0,0,1-3.24,4.55Z"/><path class="cls-1" d="M489,405.89c-.27.61-.4,1.4-1.39,1.12l1.1-1.48Z"/><path class="cls-1" d="M501.52,553.6l-.2,0,.55-.43L502,553Z"/><path class="cls-1" d="M554.2,395.08l-.79,1c-.32-.58,0-1,.38-1.38Z"/><path class="cls-1" d="M552.45,392.76c0,.42-.22.78-.6.47s0-.58.31-.74Z"/><path class="cls-1" d="M388.75,559.65a1.48,1.48,0,0,0,.1-.51c0-.27-.17-.29-.3-.08a.32.32,0,0,0,0,.25A2.14,2.14,0,0,0,388.75,559.65Z"/><path class="cls-1" d="M446.42,519.9l-.63.1.31-.44A2.58,2.58,0,0,1,446.42,519.9Z"/><path class="cls-1" d="M237.15,218.85l.54.38-.2.17-.28-.56Z"/><path class="cls-1" d="M552.16,392.49l.52-.66.33.36-.56.57Z"/><polygon class="cls-1" points="486.72 493.9 486.75 493.79 486.77 493.86 486.72 493.9"/><path class="cls-1" d="M552.68,391.83c.17-.19.35-.37.52-.55a4.36,4.36,0,0,1,.4.35l-.59.56Z"/><path class="cls-3" d="M143.28,305.65c4.19-.12,6.07,2.74,4.33,6.57s-5.2,6.06-8.68,5.62-4.91-2.86-3.71-6.09A9.12,9.12,0,0,1,143.28,305.65Z"/><path class="cls-3" d="M331.29,407.85a14.7,14.7,0,0,1-2.49,8.33c-.86,1.32-2,2.07-3.59,1.66s-2.18-1.75-2.12-3.28A31.12,31.12,0,0,1,326.44,402a2.84,2.84,0,0,1,2.07-1.75c1,0,1.21,1.26,1.56,2.08A13.09,13.09,0,0,1,331.29,407.85Z"/><path class="cls-3" d="M167.81,622.86a19.29,19.29,0,0,1,.28-10.4c.71-2.54,1.68-5,2.58-7.51.28-.78.58-1.85,1.63-1.61.86.19.72,1.23.75,2C173.29,611.48,171.22,617,167.81,622.86Z"/><path class="cls-3" d="M127.44,313.94c-.37-4.92.92-8.43,3.69-11.48,1.25-1.38,2-1,2.7.44a3.58,3.58,0,0,1,.16,3C132.73,309.09,130.35,311.3,127.44,313.94Z"/><path class="cls-4" d="M560.08,385.86c.13.37.3.61.27.83s-.21.52-.53.27a.46.46,0,0,1-.16-.39A4,4,0,0,1,560.08,385.86Z"/><path class="cls-1" d="M463,606.71c.48-.49.75-1.27,1.82-1.21.07,1.07-.79,1.24-1.44,1.57Z"/><path class="cls-1" d="M461.53,608.7l-.49.51a3.31,3.31,0,0,1-.25-.35c.24-.21.47-.62.81-.11Z"/><path class="cls-1" d="M462.41,607.26l.55-.55.38.36a.57.57,0,0,1-.64.51C462.61,607.47,462.51,607.37,462.41,607.26Z"/><path class="cls-1" d="M462.7,607.58a.53.53,0,0,1-.59.55l.05.07c-.51-.47,0-.67.25-.94C462.51,607.37,462.61,607.47,462.7,607.58Z"/><path class="cls-1" d="M461.6,608.75c0-.21-.11-.46,0-.62.2-.39.39,0,.59.07l-.05-.07a.54.54,0,0,1-.58.57Z"/><path class="cls-3" d="M204.16,622.75c-7.26,2.56-14,4.56-21.58,3.9C185.39,623.07,196.07,621.16,204.16,622.75Z"/><path class="cls-1" d="M280.38,299.1a9.23,9.23,0,0,1-2.15,5.3c-9.57,12.76-22.85,17.65-38.27,17.89-.33,0-.66-.26-1.2-.5,2-1.53,4.1-1.29,6.09-1.6,10.86-1.74,21.2-4.63,29-13.11a28.91,28.91,0,0,0,4.85-6.67C279,299.84,279.15,299.12,280.38,299.1Z"/><path class="cls-1" d="M243.69,296.8a3.71,3.71,0,0,1-4.41,3.74,5.78,5.78,0,0,1-4.43-4.69c-.53-2.57-1.19-5.24,1-7.5,1.3-1.36,2.64-1.43,3.91-.05A17.45,17.45,0,0,1,243.69,296.8Z"/><path class="cls-1" d="M263.44,285.32c0,3.21-1.23,4.8-3.8,5.11s-4.1-1.12-4.72-4.23a8.41,8.41,0,0,1,1.42-7.05c1.5-1.93,3.51-1.85,5,.09A10.92,10.92,0,0,1,263.44,285.32Z"/><path class="cls-1" d="M263.75,268.83c-4.16-1-8.07-1.36-11.93.19a1.28,1.28,0,0,1-1,0c-.33-.25-.17-.64.07-1,1.86-2.63,10.87-2.68,12.75,0C263.71,268.09,263.68,268.31,263.75,268.83Z"/><path class="cls-1" d="M227.51,284.93c-.31-4.44,4.45-8.23,8.67-7.23A16,16,0,0,0,227.51,284.93Z"/><path class="cls-1" d="M174.57,172.85c18.68.53,33.86,7.77,44.26,23.7,4.93,7.54,3,14.63-4.47,19.57-5.74,3.8-11.85,4.17-18.33,2.78-1.63-.35-3.27-.76-5,.08-1.25.62-1.42-1.28-2.59-1.54-11.06-2.44-19.82-8.82-27.93-16.39C155.09,196,154,189.66,155.37,183c1-5.24,5.33-7.84,10.36-9.09C168.61,173.19,171.58,173.22,174.57,172.85Zm1.69,1.26c-3.67.34-6.64.42-9.53.93-5,.88-11.09,5.14-10.47,12.46a21.1,21.1,0,0,0,7.37,14.87A71.09,71.09,0,0,0,177,211.49c9.54,5,19.61,7.71,30.22,6.18,9.5-1.36,17.24-9.62,10.67-20C208.18,182.18,193.41,175.27,176.26,174.11Z"/><path class="cls-1" d="M140.7,290.69l.55-1.17c3.78-7.36,6.49-15.25,10.81-22.35-3,9.12-7.26,17.64-11.85,26.12-.61-.65-.13-1,0-1.43Z"/><path class="cls-1" d="M152.89,181c-.17,4.08-1.64,8.15-.21,12.26C150,189.16,150.89,185.09,152.89,181Z"/><path class="cls-1" d="M193.23,174.55l-7.29-2.18C188.7,171.66,190.37,172.11,193.23,174.55Z"/><path class="cls-1" d="M168.93,227.85l1.95-5.45C171.42,225,171,226.32,168.93,227.85Z"/><path class="cls-1" d="M225,206.44a7.49,7.49,0,0,1,.18-4.88A6.5,6.5,0,0,1,225,206.44Z"/><path class="cls-1" d="M217.17,223.15l-1.38.53.05-.06c.29-.78.86-.56,1.41-.42Z"/><path class="cls-1" d="M217.32,222.27l1.42-.37-.06,0c-.3.79-.84.67-1.43.38Z"/><path class="cls-1" d="M219.16,221.22c.37-.33.69-.8,1.29-.46l-.06,0c-.28.64-.61,1.09-1.32.45Z"/><path class="cls-1" d="M217.25,222.24c.6.36.16.62-.09.91l.09,0c-.53-.35-.13-.63.08-.92Z"/><path class="cls-1" d="M218.74,221.9c-.24-.47.17-.52.42-.68l-.09-.06c.63.65,0,.6-.39.69Z"/><path class="cls-1" d="M221,220.11c.25.61-.17.59-.56.6l.06,0c-.27-.62.15-.59.55-.59Z"/><path class="cls-1" d="M221,220.17l.44-.45.14.23-.63.16Z"/><path class="cls-1" d="M222.39,219.43l-.17-.1.18-.24.17.18Z"/><path class="cls-1" d="M215.79,223.68l0,0,.09,0Z"/><path class="cls-1" d="M156,206.69c-.17-.29-.36-.62.08-.79.1,0,.34.25.51.4Z"/><path class="cls-1" d="M124.33,349.17a157.7,157.7,0,0,1-10.84,23.23l-.65-.3,10.73-23.22Z"/><path class="cls-1" d="M103.37,395.92c-2.41.34-4.72.41-7-1.86C99.33,394,101.21,395.52,103.37,395.92Z"/><path class="cls-1" d="M128.42,317.88c.55-.14.57-.62.68-1l1,.08a6.78,6.78,0,0,1-2.31,4.34,5.32,5.32,0,0,1-.5-.52A4.12,4.12,0,0,0,128.42,317.88Z"/><path class="cls-1" d="M112.78,373.21l-.37-.2c.07-.07.14-.19.19-.18a1.46,1.46,0,0,1,.38.18Z"/><path class="cls-1" d="M112.11,373.88a1.61,1.61,0,0,1,.15.36c0,.05-.11.12-.17.18a1.69,1.69,0,0,1-.15-.37S112.05,373.94,112.11,373.88Z"/><path class="cls-1" d="M69.71,376.54l-1.09-.61c.08-1.73,1.12-.53,1.52-.37,5.07,2.06,10.12,4.2,15.09,6.56-1.9.42-3.34-.95-5-1.24Z"/><path class="cls-1" d="M76.83,348.33l1.2.51,1.49.84,3.06,1.86-.2.39c-1.93-.84-3.89-1.63-5.79-2.55C75.69,348.94,75.13,348.31,76.83,348.33Z"/><path class="cls-1" d="M100.9,370.69l-4.29,2.22c1-1.69,2.49-2.29,4-2.88Z"/><path class="cls-1" d="M95.54,373.47l-.08-.62.27,0-.23.64Z"/><polygon class="cls-1" points="95.5 373.51 95.4 373.44 95.54 373.47 95.5 373.51"/><path class="cls-1" d="M400.69,478.83c.17-6.11,0-12.25,2.5-18.05C402.92,466.87,401.49,472.81,400.69,478.83Z"/><path class="cls-1" d="M469.77,473c-.43-3.51-.84-6.93-1.3-10.75C470.6,464.73,471.19,470.57,469.77,473Z"/><path class="cls-1" d="M414.75,439.93c1.33-1.58,2.8-3,5.14-3.17l-4.51,3.51Z"/><path class="cls-1" d="M412.36,442.36c.63.48.11.75-.21,1-.11.1-.33.06-.5.09a1,1,0,0,1,.76-1Z"/><path class="cls-1" d="M412.41,442.43l.52-.46.08.45-.65-.06Z"/><path class="cls-1" d="M414.79,440.81l-.6.55-.56-.3.86-.86Z"/><path class="cls-1" d="M466.25,448.85l-.59.55-.52-.39.45-.52Z"/><path class="cls-1" d="M465.66,449.4a.55.55,0,0,1-.69.46l0,0c-.46-.37,0-.61.14-.89Z"/><path class="cls-1" d="M414.19,441.36c-.15.36-.36.66-.76.34-.06-.05.13-.42.2-.64Z"/><path class="cls-1" d="M465,449.86l-.27.4-.12-.38.42,0Z"/><path class="cls-1" d="M415.38,440.27l-.59.54-.3-.61a.62.62,0,0,1,.26-.27Z"/></g></svg>