<svg xmlns="http://www.w3.org/2000/svg" viewBox="0 0 493.95 592.37"><defs><style>.cls-1{fill:#00d3a9;}.cls-2{fill:#00b39f;}.cls-3{fill:#3c494f;}.cls-4{fill:#0c0c0c;}.cls-5{fill:#fcfcfc;}</style></defs><g id="Layer_2" data-name="Layer 2"><g id="Layer_1-2" data-name="Layer 1"><path class="cls-1" d="M148.05,391l-3.5,5.56,6.68.3Z"/><path class="cls-1" d="M143.82,397.76l-3.53,5.6,6.72.33Z"/><path class="cls-2" d="M143.86,396.12l3.45-5.5-6.58-.31Z"/><path class="cls-2" d="M129.84,396.75a14,14,0,0,0,1.43,6.1L135,397Z"/><path class="cls-2" d="M139.6,402.89l3.48-5.54-6.61-.3Z"/><path class="cls-1" d="M132.19,403l6.68.33-3.18-5.9Z"/><path class="cls-2" d="M143.47,410.08l3.5-5.56-6.67-.34Z"/><path class="cls-2" d="M150.85,409.07a13.4,13.4,0,0,0,4.54-4.12l-7-.35Z"/><path class="cls-1" d="M148.44,403.77l6.71.34-3.22-5.9Z"/><path class="cls-2" d="M152,396.55l3.48-5.52-6.64-.33Z"/><path class="cls-2" d="M147.74,403.29l3.5-5.56-6.67-.31Z"/><path class="cls-1" d="M140,390.61l-3.53,5.62,6.74.3Z"/><path class="cls-2" d="M150.8,385.08a13.94,13.94,0,0,0-6.08-1.94l3.38,6.23Z"/><path class="cls-1" d="M144.19,383.88l-3.52,5.59,6.72.33Z"/><path class="cls-2" d="M143.69,383.1a13.92,13.92,0,0,0-6.12,1.36L140,389l3.68-5.85Z"/><path class="cls-1" d="M155.92,390.22a14.35,14.35,0,0,0-4.41-4.7l-2.73,4.34Z"/><path class="cls-1" d="M131.66,389.89a13.48,13.48,0,0,0-1.8,6l5.18.23Z"/><path class="cls-1" d="M136.84,384.83a13.48,13.48,0,0,0-4.65,4.23l7.1.34-2.47-4.58Z"/><path class="cls-2" d="M131.76,403.75a14.09,14.09,0,0,0,4.38,4.64l2.7-4.29-7.07-.37Z"/><path class="cls-1" d="M157.8,397.2a14.07,14.07,0,0,0-1.41-6.07L152.71,397Z"/><path class="cls-1" d="M144,410.83a13.9,13.9,0,0,0,6.12-1.37l-2.43-4.5-3.7,5.89Z"/><path class="cls-2" d="M156,404a13.42,13.42,0,0,0,1.78-6l-5.14-.24Z"/><path class="cls-1" d="M136.84,408.85a13.94,13.94,0,0,0,6.08,1.94l-3.36-6.26Z"/><path class="cls-2" d="M135.75,395.73l3.46-5.51-6.59-.32Z"/><path class="cls-3" d="M235,448l-.4.62-1.73,2.76-2.12,3.37-3.14,5L241,468.19l1.77-2.81-10.61-6.67,1.38-2.18.36-.57L242,461.1l1.77-2.81-8.17-5.14,1.73-2.75L248,457.07l1.76-2.81-13.41-8.43Z"/><path class="cls-3" d="M183.2,415.46l-.39.63-1.73,2.75L179,422.22l-3.13,5,13.46,8.47,1.77-2.81-10.61-6.67,1.38-2.18.36-.57,8.16,5.13,1.77-2.8-8.17-5.14,1.73-2.75,10.61,6.67,1.76-2.81-13.46-8.47Z"/><path class="cls-3" d="M210.18,443.74A3.75,3.75,0,0,1,209,445a4.42,4.42,0,0,1-1.52.64,5.67,5.67,0,0,1-1.65.05,4.35,4.35,0,0,1-1.63-.59l-13.25-8.34,1.83-2.91L206,442.14a.8.8,0,0,0,.66.12.77.77,0,0,0,.54-.38l.72-1.15a.85.85,0,0,0-.29-1.19l-9.54-6a3.77,3.77,0,0,1-1.23-1.22,4.31,4.31,0,0,1-.68-1.51,5.26,5.26,0,0,1-.08-1.64,3.6,3.6,0,0,1,.57-1.61l.72-1.14a3.45,3.45,0,0,1,1.2-1.2,5.24,5.24,0,0,1,1.51-.64,5.11,5.11,0,0,1,1.66-.05,3.76,3.76,0,0,1,1.63.59l13.25,8.33-1.86,3-13.26-8.34a.84.84,0,0,0-.66-.13.78.78,0,0,0-.54.39l-.72,1.14a.8.8,0,0,0-.11.66.82.82,0,0,0,.4.54l9.54,6a3.88,3.88,0,0,1,1.24,1.21,5.39,5.39,0,0,1,.67,1.52,5.26,5.26,0,0,1,.08,1.64,3.83,3.83,0,0,1-.57,1.6Z"/><path class="cls-3" d="M225.76,458.62l-2.71-1.7,3.43-5.46-10.55-6.63-3.43,5.45-2.7-1.7,5.29-8.42,13.26,8.34,3.46-5.51,2.71,1.7Zm-7.15-18.05-2.7-1.71,2.62-4.15,2.7,1.7Z"/><path class="cls-3" d="M270,473.85l-.48-7.12L266,464.5l.41,11.93-3.5,5.56,2.86,1.81,3.5-5.56,10.93-4.8-3.49-2.2Z"/><path class="cls-3" d="M252.89,460l7.26,4.57-.62,1-.62,1-.62,1-5.83-3.67-1.67,2.65,1.33.83,1.54,8.95,3.5,2.21-1.55-9,1.81,1.14.21.13a2.61,2.61,0,0,0,3.6-.78l.91-1.46.62-1,.92-1.46a2.62,2.62,0,0,0-.85-3.58l-.22-.13-8.11-5.11-.05,0-2.65-1.67-8.73,13.88,2.81,1.77Z"/><path class="cls-3" d="M180.67,414.08a4.54,4.54,0,0,0-2.12-4.52l-13.89-8.73-1.86,3-6.9,11,3,1.91,6.93-11c4.14,2.6,11.06,6.88,11.16,7.09,1.25.35-6.29,10.69-6.3,11.19l3,1.9C174.16,424.79,180.86,415.08,180.67,414.08Z"/><path class="cls-3" d="M172.24,411.83l-3-1.9-5.92,9.41,3,1.9Z"/><path class="cls-3" d="M290.82,523.48l-11-5.7s-4,3-3.4,4.13c0,0-.43,14.81,32.81,16.81,0,0,3.27-1.15-5.32-9.43h0l-13.07-5.81"/><path class="cls-3" d="M56.61,385.8s-2.89,3.25-.16,8c0,0,6.42,16.9,24.2,21.77,0,0,9.6-5.55,8.8-10.28,0,0-19.6-3.39-29.63-21.77C59.82,383.53,56.36,384.62,56.61,385.8Z"/><path class="cls-3" d="M273.46,525.45s-4.49,1.67-5.57,8.57c0,0,.72,16.44,32.87,17.29,0,0,7.82-4.27,5.92-9.32a77.36,77.36,0,0,1-33.09-16.25"/><path class="cls-3" d="M73.08,382.25l-11-4.94s-2.6,4.72,3.79,10a25.23,25.23,0,0,0,16.42,14.79s5.24,2,9.32-.47c0,0,2-3.1-2.34-7.19C89.29,394.42,76.4,381.53,73.08,382.25Z"/><path class="cls-3" d="M304.21,477.14s-6.4,2.24-5,10.09c0,0,3,14,27.57,18.85,0,0,5.65-1.53,10.07-9.21a1.21,1.21,0,0,0-.24-1.64S318.7,496.87,304.21,477.14Z"/><path class="cls-3" d="M307.33,470.15s-3.74,6.27,6.44,15.07c0,0,11.65,13,22.32,8.23,0,0,6.58-5.22-5.86-15.32C330.23,478.13,311.08,467.05,307.33,470.15Z"/><path class="cls-3" d="M85.46,333.08A7.87,7.87,0,0,0,83,338.19h0S78.2,355.57,111.57,363h0s3.38,2,9-7.22h0Z"/><path class="cls-4" d="M50.41,395c-10.67-8.73-20.85-17.8-26.44-30.85-4.62-10.8-8.15-21.78-6.92-33.75,3.18-31.14,30.32-53.32,59.15-51.29,5.72.41,10.12,3.19,14.25,6.77,1.53,1.34,2.59,2.43,5.1.56,3-2.22,6.86-1.1,10,.73,2.66,1.57,3.41,1.18,3.44-1.87.2-20.32,2-40.55,3.07-60.82.51-9.75,1.34-19.49,2-29.23,0-.32.07-.65.12-1,.36-2,.32-4.93,2.7-5,1.9-.1,1.85,2.84,2.41,4.51,10.82,32.16,22,64.19,34.05,95.92a5.13,5.13,0,0,0,2.37,3.38c-2.83-44.22,11.22-83.85,29.29-122.64-1.68-.5-2.73.47-3.81,1-18.35,8.53-36.31,17.88-54.48,26.79-.93.46-2.21,2.35-3.26.57s.75-2.71,2.09-3.38c15.64-7.88,31-16.29,47-23.36,10.93-4.83,19.21-11.31,24.16-22.41,3-6.73,3.68-6.51-1.62-11.73-10.35-10.18-18.62-21.62-21.58-36.14-2.63-12.85-1.23-25.51,2.32-38,6.36-22.4,18.79-40.36,38.47-53.08a43,43,0,0,1,15.78-6.22C239.89,2.6,249.7.18,259.66,0c21.58-.34,42.54,2.51,61.82,13.48,11.32,6.43,23.06,12.12,34.23,18.82.51.31,1.34.39,1.26,1.64a44.36,44.36,0,0,1-11.49-4.12c-12.37-6.09-24.66-12.33-37-18.41a57.11,57.11,0,0,0-12.29-4.71c.34,1.59,1.47,1.72,2.25,2.19a110.67,110.67,0,0,1,13.89,9.94,15.56,15.56,0,0,0,2.31,1.86c15.56,8.67,28.66,20.91,43.82,30.16,2,1.2,3.94,2.37,5.89,3.6.74.46,1.64,1,1.3,2-.42,1.2-1.56,1-2.53.79a18.35,18.35,0,0,1-5.72-2.44,170.68,170.68,0,0,1-26.67-19.13,13.75,13.75,0,0,0-1.25-1.06c-.66-.44-1.22-1.72-2.1-.86s.31,1.56.75,2.19c12.35,17.73,16.83,37.48,14.38,58.71-2.18,18.86-11.4,34.25-24.88,47.36-26.85,26.12-69.26,30.68-102.81,10.85-3.49-2.06-6.89-4.27-10.24-6.55-1.35-.92-2-.72-2.76.64-2.44,4.41-4.89,8.81-7.45,13.15a10.27,10.27,0,0,0-.19,10.6c6,11.93,11,24.33,16,36.72,12.39,30.85,21.72,62.65,30.42,94.69,2.47,9.09,2.39,17.89,1.62,27-1.22,14.54-2.58,29.06-4.24,43.56a16.12,16.12,0,0,0,.8,7.42c1.28,3.54,1.21,7.34,1.09,11.07a3.36,3.36,0,0,0,1.54,3.28c19.5,13.62,39.66,26.21,60.34,37.95.79.45,1.65,1.51,2.62.81.72-.52.38-1.64.31-2.5-3.34-41.65-1.64-83.37-1.76-125.07,0-6.72,0-6.59-6.46-5.34-16.37,3.17-33,4.91-49.45,7.31-2,.28-2.78-.72-3-2.15-.27-1.78,1.45-1.25,2.36-1.39,15.81-2.44,31.64-4.81,47.45-7.24,2.82-.43,5.62-1,8.4-1.6s3.46.35,3.54,3c.56,18.32.45,36.65.46,55,0,23.82.17,47.63,2.11,71.4.18,2.18.58,4.37.56,6.55-.06,4.19,1.57,7,5.59,8.6a5.47,5.47,0,0,0,5.42-.25,38.18,38.18,0,0,1,24.32-3.38c4.79.86,6.19,7,2.93,10.8-2.26,2.61-5.38,4-8.17,5.93.29,1.27,1.31,1.56,2.08,2.05,12.71,8.11,24.29,17.68,35.37,27.84s12.16,19.26,2.74,31.37a88.67,88.67,0,0,1-42,29.88c-7.85,2.71-15.72,4.69-24.24,4.32.35-2.29,1.87-3,3.84-3.24,21.2-2.79,39.12-12,54.07-27.28a40.53,40.53,0,0,0,9.67-16.59,10.31,10.31,0,0,0-1.82-9.36,80,80,0,0,0-12.77-13.69C351.59,466,335.8,456,319.33,446.92c-20.14-11.09-40.07-22.57-59.5-34.89-6.58-4.18-12.48-9.29-19-13.54-1.69-1.1-2.76-1.52-4.51.46-5,5.61-14.3,6.3-19.12.8-2.85-3.26-4.95-8.18-3-12.81,1.49-3.48.24-4.78-2.39-6.38-12-7.29-24.11-14.34-35.75-22.13-27.69-18.55-55.29-37.26-79.51-60.41-4.36-4.16-9.07-8-13.6-11.95a10.35,10.35,0,0,0-4.93-2.47c-6.11-1.17-12.34-1.47-18.26.38C39,290.5,26.24,304.32,21.63,325.9c-3,14,1.27,26.43,6.92,38.69a57.51,57.51,0,0,0,16.16,20.89C47.73,387.93,50.11,390.82,50.41,395ZM176.81,82c-.61,11.24,1.12,21.87,6.54,31.48,13,23.07,32.15,38.82,58.13,44.71,29.62,6.71,56,1,77.2-22.56,17.82-19.79,22.91-42.76,17.37-68.18C329.27,36.33,299.59.9,250.75,3.14c-.46,0-1.16-.2-1.15.6.35.64,1,.48,1.47.63,1,.3,2.65.11,2.47,1.44s-1.85,1.16-3,1.13a8,8,0,0,1-1-.14c-16.13-2.66-30.2,2-42.29,12.58-15.63,13.72-25,31.08-28.79,51.51-.56,3-1.73,5.6,1.31,8.82,3.47,3.68,6.83,7.34,11,10.26,13.38,9.48,28.52,13,44.66,13.21,8.31.09,16.67.87,24.8-1.82.83-.27,2.14-.84,2.72.17s-.51,1.79-1.29,2.33a18,18,0,0,1-7,2.77c-8.83,1.64-17.73,1.17-26.58.49C207.82,105.55,189.9,99,176.81,82ZM117.62,203.89l-.71.19c-.07.51-.16,1-.19,1.54-1.44,25.85-3.36,51.68-4,77.57-.12,4.86-.45,9.61,3.41,13.46,1.07,1.08,1.32,2.75,1.52,4.28a5.34,5.34,0,0,1-1.58,4.49c-.39.41-.8.82-1.39.69-.9-.2-.66-1-.69-1.59-.44-7-9.26-15.33-16.13-15.17-.51,0-1.24.1-1.47.43-.5.71.31,1.16.69,1.63s1.1,1.07,1.65,1.61A432.82,432.82,0,0,0,137.8,326.2c24.66,18.88,50.63,35.79,77.27,51.7,1.54.92,2.89,1.82,4.67.25,3.13-2.76,7-3.63,11-3.41,2.74.15,3.5-.94,3.81-3.52,1.49-12.52,2.79-25.07,3.67-37.65.63-9.18,1.71-18.06-.79-27.57a923.51,923.51,0,0,0-36.64-111.27c-3.37-8.35-7.42-16.37-11.65-25-4.46,9-8.21,17.61-11.64,26.36-11.28,28.79-19.25,58.24-18,89.57A106.29,106.29,0,0,0,164.77,315c.54,1.63.94,3.19,3.55,2.71,16.38-3,32.79-5.89,49.2-8.74,5.08-.88,10.18-1.59,15.28-2.32.91-.13,2.06-.38,2.35,1.06s-.73,1.94-1.83,2.21c-1.27.33-2.57.55-3.86.78q-31.08,5.52-62.14,11c-4.59.83-4.67.81-6.56-3.39-12.9-28.56-23.16-58.14-33.64-87.63Q122.35,217.32,117.62,203.89ZM236.37,388c.45-3.18-1-6.29-4.29-8.36-2.59-1.61-8.58-.45-10.72,1.82-3,3.21-4.84,10.45-3.29,13,2.75,4.6,10.77,6.39,15,3.35C236.2,395.59,236.35,392.21,236.37,388Zm83,54.11a13.21,13.21,0,0,0,1.69,1.44c3,1.63,6.07,3,8.89,4.87,5.82,3.79,9.13,1.15,13.92-2.82,2.31-1.92,1.65-4.78-1.08-6.12a9.2,9.2,0,0,0-3.45-.91C332.59,438.22,326.17,439.73,319.37,442.13Zm7.08-409.88a1.75,1.75,0,0,0-.44.2c.07.08.16.22.21.21M295.48,6.56l-.42.22c.07.07.16.2.21.19a2.09,2.09,0,0,0,.44-.19Z"/><path class="cls-4" d="M83.66,418.89c3-2.37,5.11-.65,7.3.77,113.8,73.69,157.24,101.8,75.8,49.08,30.42,19.69,61.68,38,92.29,57.4,1.11.7,2.19,1.44,3.28,2.18.93.62,2,1.19.8,2.5-.82.91-1.39,1.22-2.7.4C230.91,513,201,495.42,171.79,476.71,144.6,459.29,117.56,441.63,90.48,424,88.14,422.52,86,420.67,83.66,418.89Z"/><path class="cls-4" d="M67.81,390.29c2.93,5,7.53,8,12.55,10.46a14.11,14.11,0,0,0,8.25,1.71c3.23-.46,4.16-2.6,2.39-5.35a9,9,0,0,0-.58-.8,25.1,25.1,0,0,0-5.62-5.51c-3.54-2.3-3.39,3.17-6.25,2.85-.66-1.11.18-2.13.77-3,5-7.59,10-15.24,15.66-22.36.55-.69,1.16-2.13,2.22-1.43s0,1.8-.51,2.52c-3,4.7-6,9.41-9.26,14-1.48,2.08-2.21,3.54.6,5.05a16.15,16.15,0,0,1,3.46,3c5.67,5.6,4.57,9.32,0,13.49,2.93,1,.32,2.51-1.12,4.15-1.31,1.47-2.56,3-3.92,4.43-4.88,5.09-6.68,5.74-13,2.61-10-4.93-17.49-12.28-20.9-23.29A7.16,7.16,0,0,1,53.67,386c1.8-2.53,4-4.72,4.27-8.27.15-2.2,2.36-3.23,4.71-3.26,3.2,0,6,1.28,8.7,2.68,2,1,3.28.77,4.59-1.19A92.7,92.7,0,0,1,85,364.3a6.66,6.66,0,0,1,5.41-2.4c.38,1.3-.43,2.17-1,3-4.17,6.56-9.07,12.64-12.88,19.45a14.18,14.18,0,0,1-2.3,2.78c-.56.58-1.14,1.75-2.08,1-.78-.58-.39-1.7.14-2.41,1.76-2.37.36-3.48-1.65-4.37-2.3-1-4.6-2.05-6.92-3-.46-.2-1.2-.39-1.5-.16-.64.47-.25,1.17.06,1.76q2.77,5.19,5.57,10.37a14.2,14.2,0,0,1-7.36-5.19c-1.42-1.74-2.18-1.4-3.4.24a6.47,6.47,0,0,0-1.2,6.38c2.31,7.38,7.59,12.45,13.06,17.38a21.76,21.76,0,0,0,8.75,5c2.8.77,5,.91,6.57-2.15.94-1.79,2.69-3.15,4-4.73.4-.46,1.24-.78,1-1.5-.31-1.09-1.29-.51-2-.51-7.9,0-14-3.91-19.44-9-1.06-1-8.06-9.28-6.53-10.64C62.33,384.88,65.66,389.71,67.81,390.29Z"/><path class="cls-4" d="M109.78,203.89c.72,2.44-.49,3.69-2,4.63C79,225.88,56.39,250.43,32.12,273a3.48,3.48,0,0,0-1.28,3.43,15.46,15.46,0,0,1-3.39,12.31,101.49,101.49,0,0,1-15.25,16.3,21.06,21.06,0,0,1-5.28,3.29c-4.45,1.86-7.5-.42-6.83-5.23a22.79,22.79,0,0,1,4.81-11c4.93-6.16,10.16-12,17.49-15.63,3.81-1.88,7-4.84,10-7.83Q61.48,240,93.06,214.14A82.74,82.74,0,0,1,109.78,203.89ZM27.62,278c-10.07,3.42-19,11.65-23,21a12.17,12.17,0,0,0-.86,2.81,2.63,2.63,0,0,0,1,2.91,2.61,2.61,0,0,0,2.77-.38,18,18,0,0,0,2.2-1.43,89.76,89.76,0,0,0,15.73-17.19A12.39,12.39,0,0,0,27.62,278Z"/><path class="cls-4" d="M315.94,506.32c-.71-1.55-2.39-1.6-3.63-2.28-4.66-2.55-9-5.49-12.28-9.72-5.17-6.63-5.06-11.3.53-17.54a11.73,11.73,0,0,0,2.83-4.66,7.85,7.85,0,0,1,7.18-5.34,15.8,15.8,0,0,1,6.14,1,51.58,51.58,0,0,1,19.41,12.57,20.37,20.37,0,0,1,2.61,3.37c3.69,6,.89,12.13-6.12,12.64-7.36.54-13.27-3-18.38-8-.51-.5-1.14-1.34-.55-2,.8-.94,1.66-.06,2.27.44,3.75,3.11,7.76,5.75,12.59,6.77,2.75.58,6,1.66,7.89-1.17s0-5.76-1.91-8a43,43,0,0,0-23-13.82c-1.51-.37-3.17-.56-4.28.81s-.07,2.75.54,4c1.62,3.22,4.33,8.08,6.87,10.87-.1,5.4-6-3.77-8.18-5.47-1.18-.91-1.81-3.33-3.11-2.83a6.7,6.7,0,0,0-3.53,4.54c-.77,3.22-.78,6.61,1.87,9.22A55.31,55.31,0,0,0,324,505.18a5.46,5.46,0,0,0,6.24-1.52,56.24,56.24,0,0,1,6.67-6.79c.84,2.51-.36,4-1.34,5.58a6.58,6.58,0,0,1-.38.54c-5.19,7.12-6.85,7.59-15.07,4.5-1.36-.51-2.61-1.49-4.2-1.24Z"/><path class="cls-4" d="M421,277.75a34.5,34.5,0,0,1-10.36-5.81c-30-23.11-58.81-47.57-88.15-71.43-.92-.75-2.55-1.53-1.36-3.14s2.51-.49,3.46.25c6.66,5.19,13.29,10.41,19.84,15.74q33.68,27.4,67.26,54.91C415.15,271.08,418.67,273.87,421,277.75Z"/><path class="cls-4" d="M372.29,125.06l1.4,1q42,31.07,84,62.15c7.3,5.41,14.49,11,21.72,16.49a34.8,34.8,0,0,1,2.94,2.62c.64.62,1.33,1.38.46,2.24s-1.33-.18-1.9-.57c-34.63-23.89-67.76-49.83-101.78-74.56-2.56-1.86-5.25-3.61-7.28-6.11a2.2,2.2,0,0,1-.53-2.42C371.49,125.59,371.92,125.38,372.29,125.06Z"/><path class="cls-4" d="M271.38,526.79l-2.23,4.89c-1.28,2.74-.89,5.18,1.54,7A62.34,62.34,0,0,0,297.9,551c3.7.65,8.39-3.65,8.77-7.56.13-1.25-.8-1.21-1.38-1.38-2.63-.76-5.29-1.41-7.94-2.08a51.77,51.77,0,0,1-22.17-12.25c-3.68-3.32-2.64-8.38,1.92-10.35.68-.29,1.45-.87,2.09-.11s-.26,1.32-.73,1.82c-2.48,2.67-2.63,4-.07,6.26,8.05,7.12,17.16,12.06,28.07,13,1,.09,2.36.67,3-.63.51-1.13-.36-2.11-1-2.95-1.15-1.46-2.39-2.85-3.64-4.23-.91-1-1.4-1.86-.2-3s2.19-.34,3,.5a35.62,35.62,0,0,1,3.66,4.21c1.73,2.47,2.06,5.05-.14,7.5-.85.94-1.69,1.86-.34,3.3,1,.27.8-1.88,2.15-1.69.09.28.29.6.24.87-1.45,6.87-10.18,12.83-17.13,11.65-8.77-1.49-16.6-5.21-24.05-10-3.57-2.28-4.62-6-6.26-9.34C264.74,532.63,268.19,528,271.38,526.79Z"/><path class="cls-4" d="M342.83,396.47c.9.54,1.77,1,2.55,1.56,29.22,21.16,58.4,42.36,86.33,65.21.68.56,2.17,1.08,1.34,2.16s-1.8-.17-2.59-.62c-12.63-7.18-23.81-16.4-35.34-25.13-16.7-12.63-33.28-25.43-49.89-38.17a37.39,37.39,0,0,1-3.19-2.84c-.37-.36-.79-.9-.35-1.45A4.4,4.4,0,0,1,342.83,396.47Z"/><path class="cls-4" d="M289.16,507c.43,1.71.43,1.71,4.41,4.82,2.94-4.31,6.28-8.22,11.13-10.63-3.15,5.86-8.76,10.1-10.79,16.64-.09.26-.33.68-.25.74.4.36.67.09.85-.31,3.53-3.87,7-7.75,10.61-11.57.69-.74,1.6-2.27,2.55-1.5,1.19,1-.28,2.16-.88,3-3.17,4.61-7.18,8.52-10.74,12.81a34.22,34.22,0,0,0-2.31,3.17,1.48,1.48,0,0,0,.35,2.28c.84.56,1.71,1.15,2.63.24,1.24-1.23,2.49-2.47,3.61-3.8,3.67-4.34,7.3-8.72,10.93-13.09a10.41,10.41,0,0,1,4.78-3.66s-.07-.07-.07-.07a16.82,16.82,0,0,1-3.88,11.94c-.59.76-2.18,1.23-1.29,2.74l.05,0c-2.67,0-3.05,2.86-4.87,3.93-.87.5-2.07,2.57-2.22-.47a.83.83,0,0,0-.53-.59c-1-.18-4.12,4.37-3.69,5.41,1,2.46.27,3.48-2.41,3.19a14.17,14.17,0,0,1-7.06-3.26,2.37,2.37,0,0,1-.58-3.25c.72-1.34,1.56-2.62,2.38-3.91.57-.88,2-1.73-.16-2.49-.24-.09-.43-1.1-.25-1.5,1.21-2.68-.14-3.89-2.35-5.15a29.68,29.68,0,0,1-5-4.22c-.51-.47-1.34-1.1-.75-1.93s1.4-.22,2.13-.29c1.34-.12,2.13,2.1,3.7.83Zm20.75,10.1a.77.77,0,0,0-1.3.08,11.28,11.28,0,0,0-3.13,3.5l-.94.93c-.46.53-1.55,1.19-.89,1.72.84.68,1.07-.53,1.38-1.14l1-1a14.09,14.09,0,0,0,2.95-3.66l1-.44-.2-.18c.21-.25.17-.33-.13-.25Z"/><path class="cls-4" d="M93,323.72c3.73-.25,7.08,1.74,10.36,3.55a63.52,63.52,0,0,1,16.49,12.87,25.4,25.4,0,0,1,2,2.58c1.91,2.72,3.11,5.66,1.39,8.88s-5.12,4.12-8.48,3.74a29.26,29.26,0,0,1-20.22-11c-2.45-3.16-5.1-6.29-7.51-9.54-1.51-2.05-3-4.17-1.54-6.91A7.2,7.2,0,0,1,93,323.72Zm21.8,28.7c2.51-.35,4.46.39,5.4-1.45s-.18-3.39-1.09-4.87a18,18,0,0,0-2.17-2.88,65.11,65.11,0,0,0-20.7-14.72,14.09,14.09,0,0,0-4.4-1.19c-2.2-.21-3.44.75-2.53,3.16a43.09,43.09,0,0,0,2.33,5.4A31.28,31.28,0,0,0,114.82,352.42Z"/><path class="cls-4" d="M402.81,71.53a7.77,7.77,0,0,1,1.09.67c19.53,18.86,42.27,33.8,63,51.25,2.6,2.19,5.18,4.39,7.71,6.67.64.57,1.89,1.28,1,2.34s-1.76,0-2.48-.6c-6.13-4.79-12.28-9.56-18.35-14.43-14.19-11.38-29.19-21.74-42.69-34a54.51,54.51,0,0,1-8.26-8.91A3.61,3.61,0,0,1,402.81,71.53Z"/><path class="cls-4" d="M82.52,438.59c10.85,4.57,67.2,47.45,73.73,56.11-3.83-1.26-6.6-3.53-9.35-5.74-13-10.43-26-20.83-39.68-30.3-7-4.85-14.18-9.53-20.6-15.2C85.12,442.14,83.45,440.9,82.52,438.59Z"/><path class="cls-4" d="M418.46,511.31a19.46,19.46,0,0,1,2.3,1.27c19.65,14.55,40.89,26.63,61.49,39.69a10.47,10.47,0,0,1,1.36.92c.49.42,1.05.95.55,1.64-.38.51-1,.27-1.52.07a15.38,15.38,0,0,1-1.47-.72c-19.21-10.73-38.32-21.61-56-34.81a41.93,41.93,0,0,1-6.91-6.06,3.23,3.23,0,0,1-.58-1.44C417.67,511.76,418.13,511.54,418.46,511.31Z"/><path class="cls-4" d="M110.18,365.49c-4.45.32-8.8-1.75-13-4.2a64.36,64.36,0,0,1-12.11-9c-3.43-3.31-4.83-7.48-5.25-12.07a6.86,6.86,0,0,1,1.06-4.4c.46-.71,1-1.72,2-1.39s.7,1.48.48,2.29c-1.12,4.11.19,7.68,2.8,10.67a48.29,48.29,0,0,0,24.62,15.48,3.43,3.43,0,0,0,4-1.24c1.65-1.89,3.51-3.61,5.32-5.36.43-.41,1-1,1.67-.46.46.39.31,1,.15,1.54C120.76,361,114.51,365.59,110.18,365.49Z"/><path class="cls-4" d="M494,332.77c-1.1.79-1.53.12-2-.23a487.14,487.14,0,0,1-39.64-29.85c-2-1.68-4.18-3.18-6.23-4.82-.61-.48-1.18-1.23-.7-2s1.39-.45,2.06-.05a37.92,37.92,0,0,1,4.16,2.63q19.9,15.66,39.74,31.4A8.37,8.37,0,0,1,494,332.77Z"/><path class="cls-4" d="M396.25,592.36c-2.24.14-3.43-.86-4.69-1.58q-20.94-11.91-41.81-23.92c-1.56-.9-4.74-1.86-3.77-3.64,1.07-2,3.47.34,5,1.13a367,367,0,0,1,38.71,22.76C391.88,588.56,393.8,590.38,396.25,592.36Z"/><path class="cls-4" d="M349,549.5c8.26-1,15.09-3.74,21.79-6.9a60.09,60.09,0,0,0,22.33-18.38c1.52-2,3-4.07,3.25-6.7.07-.61-.07-1.45.9-1.43s1.22.74,1.24,1.58a9.46,9.46,0,0,1-1.66,4.91,46.45,46.45,0,0,1-9.56,11.61c-10,8.9-21.47,14.55-34.88,16A4.21,4.21,0,0,1,349,549.5Z"/><path class="cls-4" d="M412.32,561.23c14.12,6.2,27,14.46,39.46,23.32l-.84,1.36A347,347,0,0,1,412.32,561.23Z"/><path class="cls-4" d="M119.37,373.88c-.38,2-1.65,3.4-2.68,4.87-2.5,3.59-5.1,7.12-7.62,10.7a10.66,10.66,0,0,0-1.28,2.28c-1.63,4.36-1.64,4.4-5.47,1.48-1.82-1.4-3.54-2.94-5.21-4.5-.7-.65-1.53-1.58-.72-2.56s1.62,0,2.33.37a33.35,33.35,0,0,1,4.52,2.64c1.65,1.23,2.52.78,3.59-.8a113.34,113.34,0,0,1,10.68-13.74A1.81,1.81,0,0,1,119.37,373.88Z"/><path class="cls-4" d="M67.19,365.33c-.58-.57-3.27.92-1.79-1.58,3.52-5.93,7.38-11.62,12.69-16.15.2-.18.56-.17,1-.31.06,1.84-1.1,2.92-2,4.08-3.25,4.26-6.54,8.48-9.79,12.73-.27.35-.93.74-.22,1.3Z"/><path class="cls-4" d="M310.8,520.82c1.35.25,3,.09,4,.83,3.22,2.43,4.88.65,6.74-1.81,1.33-1.75,2.66-3.67,5.23-4.15a36.65,36.65,0,0,1-8.53,10.66c-1.42,1.23-6.93-3.06-7.38-5.57Z"/><path class="cls-4" d="M320.7,476.83c1.61,0,7.57,4.7,7.87,6.08.45,2.08-1,3.54-3,2.72-2.74-1.16-4.5-3.65-6.75-5.49a1.57,1.57,0,0,1-.15-2.1A2.62,2.62,0,0,1,320.7,476.83Z"/><path class="cls-4" d="M294.5,491.43a85.59,85.59,0,0,1-12.2,13.82c-.5.45-1.23,1.22-2,.59s.05-1.41.45-1.93a77.9,77.9,0,0,1,10.58-11.64A2.65,2.65,0,0,1,294.5,491.43Z"/><path class="cls-4" d="M99,371.23c.22,4.27-6.79,14.63-10.91,16.06A110.46,110.46,0,0,1,99,371.23Z"/><path class="cls-4" d="M67.13,365.4c3.32.61,5.73,2.76,8.16,4.87a1.38,1.38,0,0,1,.24,2,1.56,1.56,0,0,1-1.77.46c-2.41-.57-6.16-4.78-6.57-7.43Z"/><path class="cls-4" d="M119,370.27c.16-1.24,0-2.77,1.84-2.86.89,0,1.94.28,1.78,1.38a4,4,0,0,1-2.62,3.42C118.81,372.51,119.21,371,119,370.27Z"/><path class="cls-4" d="M105.56,384.06c-.16,1.38-.35,2.68-2,2.5-1-.11-2-.79-1.78-1.9a3.33,3.33,0,0,1,2.55-2.7C105.59,381.81,105.32,383.32,105.56,384.06Z"/><path class="cls-4" d="M289.19,507.08a.59.59,0,0,0,0-.81c-1.29-1.64-.33-2.63,1.14-3.26.74-.32,1.87-.71,2.14.57.32,1.5-.47,2.48-1.95,2.93-.45.14-1.12-.25-1.33.52Z"/><path class="cls-4" d="M75.05,364.33a2.17,2.17,0,0,1-2.34,1.77c-.72,0-1.74.17-1.71-.93a2.42,2.42,0,0,1,2.2-2.37C74.16,362.67,74.64,363.55,75.05,364.33Z"/><path class="cls-4" d="M316.7,519.85c-.83-.13-1.38-.57-1.15-1.5a2.23,2.23,0,0,1,2.26-1.88c.79,0,1.09.62,1,1.34A2.2,2.2,0,0,1,316.7,519.85Z"/><path class="cls-4" d="M115,371.31c-.48.86-1.12,1.61-2,1.55s-1.23-.88-.84-1.7.73-1.71,1.87-1.24C114.62,370.16,115.15,370.59,115,371.31Z"/><path class="cls-2" d="M236.37,388c0,4.19-.17,7.57-3.34,9.86-4.19,3-12.21,1.25-15-3.35-1.55-2.6.28-9.84,3.29-13,2.14-2.27,8.13-3.43,10.72-1.82C235.39,381.73,236.82,384.84,236.37,388Z"/><path class="cls-2" d="M319.37,442.13c6.8-2.4,13.22-3.91,20-3.54a9.2,9.2,0,0,1,3.45.91c2.73,1.34,3.39,4.2,1.08,6.12-4.79,4-8.1,6.61-13.92,2.82-2.82-1.84-5.93-3.24-8.89-4.87A13.21,13.21,0,0,1,319.37,442.13Z"/><path class="cls-2" d="M326.22,32.66c-.05,0-.14-.13-.21-.21a1.75,1.75,0,0,1,.44-.2"/><path class="cls-2" d="M27.62,278a12.39,12.39,0,0,1-2.13,7.77A89.76,89.76,0,0,1,9.76,302.93a18,18,0,0,1-2.2,1.43,2.61,2.61,0,0,1-2.77.38,2.63,2.63,0,0,1-1-2.91A12.17,12.17,0,0,1,4.61,299C8.59,289.62,17.55,281.39,27.62,278Z"/><path class="cls-5" d="M309.92,517.11v0l-.32-.45"/><path class="cls-3" d="M114.82,352.42a31.28,31.28,0,0,1-23.16-16.55,43.09,43.09,0,0,1-2.33-5.4c-.91-2.41.33-3.37,2.53-3.16a14.09,14.09,0,0,1,4.4,1.19A65.11,65.11,0,0,1,117,343.22a18,18,0,0,1,2.17,2.88c.91,1.48,2,3.08,1.09,4.87S117.33,352.07,114.82,352.42Zm-7.44-7.51c1.55-.18,3.16-.78,3.33-2.94.16-2-4.31-5.47-6.92-5.6-1.86-.08-2.5.91-2.52,2.6A6.25,6.25,0,0,0,107.38,344.91Z"/><path class="cls-4" d="M245,47.62c-.62,6.17-2.41,11.55-7.68,15.1-2.42,1.63-5,2.1-7.71.64s-2.5-3.92-2.37-6.31A22.35,22.35,0,0,1,233,42.74c2.24-2.43,5.13-3.38,8.35-2S244.78,44.89,245,47.62Z"/><path class="cls-4" d="M200.82,48.38c0-7.6,4.49-13.79,10.7-15.26,4.32-1,7.08,1.16,7.14,5.58a16.26,16.26,0,0,1-7.75,14.7c-2.29,1.49-4.67,2.54-7.37,1.12S200.89,50.48,200.82,48.38Z"/><path class="cls-4" d="M259.71,45.39c0,.89,0,1.82-1,2.17s-1.48-.33-1.83-1a130.38,130.38,0,0,0-11.27-18,1.46,1.46,0,0,1,0-2.08c.6-.57,1.23-.33,1.75.14,5.46,5,10.1,10.59,12.28,17.85A6.33,6.33,0,0,1,259.71,45.39Z"/><path class="cls-4" d="M222.43,24c-.14.9-.86,1.06-1.44,1.23-5,1.43-10.39,1.14-15.4,2.86-1.27.44-1.37-.84-.74-1.64a4.89,4.89,0,0,1,2.07-1.53,37.94,37.94,0,0,1,13.83-2A1.53,1.53,0,0,1,222.43,24Z"/><path class="cls-4" d="M107.38,344.91a6.25,6.25,0,0,1-6.11-5.94c0-1.69.66-2.68,2.52-2.6,2.61.13,7.08,3.62,6.92,5.6C110.54,344.13,108.93,344.73,107.38,344.91Z"/></g></g></svg>