<svg id="Layer_1" data-name="Layer 1" xmlns="http://www.w3.org/2000/svg" viewBox="0 0 612 792"><defs><style>.cls-1{fill:#647881;}.cls-2,.cls-4{fill:#00d3a9;}.cls-3{fill:#00b39f;}.cls-4{stroke:#000;stroke-miterlimit:10;stroke-width:3px;}.cls-5{fill:#3c494f;}</style></defs><path d="M89.72,292.41c-1.32,108.29-2.63,216.14-4,324.4h506.6v.89H19.65l0-.8H75.24c0-5.73-.09-10.79,0-15.85.9-44.44,2.21-88.87,2.64-133.31.46-46.25.19-92.5,0-138.75-.12-38.12-.54-76.23-.79-114.35-.08-11.82,0-23.65,0-35.47,0-2,.14-4.13,2.42-4.54a36.53,36.53,0,0,1,7.76-.25c.28,0,.85,1.47.73,2.16-1.05,6,2.34,9.71,6.19,13.6,19,19.1,41.49,33.19,64.66,46.33,23.72,13.45,49.17,22.64,75.47,29.74-.92,19.34-1.84,38.76-2.8,58.78a4.86,4.86,0,0,0-.93,2.11c-1.68,44.31-3.52,88.62-4.83,132.94-.73,24.48-.18,49-.91,73.48-.79,26.8-2.4,53.57-3.66,80.36,0,.69-.19,1.38-.29,2.08l-.81,0c0-1,0-2,0-3,.95-20.56,2.22-41.11,2.79-61.69.75-26.7.7-53.42,1.42-80.12,1-36.09,2.36-72.17,3.55-108.26.39-11.81.64-23.64,1.15-35.45.12-2.78-1-3.81-3.44-4.6A913.13,913.13,0,0,0,119.1,296.31c-7.45-1.4-15-2.37-22.52-3.45C94.52,292.56,92.4,292.58,89.72,292.41Zm140.35,29.91c.45-5.42,1-10.62,1.28-15.85.67-12.21,1.12-24.44,1.87-36.65.17-2.76-1.61-2.8-3.26-3.25-29.24-8.06-57.11-19.34-83-35.2-20.57-12.57-40.63-25.82-57-43.9a9,9,0,0,0-1.21-.94q.57,52.59,1.15,104.24C138,296.06,184,308.75,230.07,322.32ZM84.26,616.5c0-1.08,0-2,0-2.94q.39-23.12.79-46.23c.59-30.92,1.4-61.85,1.74-92.78.59-53.73,1.15-107.46,1.26-161.2.09-44.73-.47-89.47-.76-134.21,0-2.14.08-4.31-3.2-4.2-4.94.16-6.13.91-6.1,4.5.1,12.66.24,25.33.32,38q.53,86.63,1,173.24c.37,72.85-.94,145.68-3,218.49C76.14,617.54,76.15,617.54,84.26,616.5Z"/><path d="M403.59,417.9c-3.59,9.9-7.15,19.13-10.3,28.51-5.62,16.69-8.44,34-9.94,51.47a14.72,14.72,0,0,0,1.76,8.39c8.3,13.71,17,27.18,25.44,40.8,1.34,2.16,2.73,1.07,4,.52,16.8-7.12,33.61-14.2,50.29-21.57,2.91-1.28,4.95-1,7.16.84,3.8,3.17,5.84,7.44,7.28,12,.27.86-.53,2.06-.83,3.1-.94-.28-2.1-.3-2.79-.88a23.35,23.35,0,0,1-8.19-14.68c-3.31,1.64-6.23,3.3-9.3,4.57-15,6.2-30.07,12.27-45.08,18.46-1.95.8-3,0-3.92-1.45-8.28-13-16.72-25.84-24.71-39a23.35,23.35,0,0,0-7.43-8.1c-11.68-7.58-23.1-15.56-34.63-23.37-1.84-1.24-3.72-2.39-5.91-3.8-2.77,3.88-5.64,7.61-8.19,11.54-10.35,15.92-20.57,31.92-30.95,47.82-.43.66-2.38,1.18-2.87.79-4.91-3.78-11.29-5.7-14.4-11.78-.56-.48-.35-1.85-.5-2.81,1,0,2.29-.52,2.87-.07,6.45,3.26,7.81,6.31,11.62,9.57a19.61,19.61,0,0,1,2.23,2.8c.75-1.1,1.38-2,2-2.91q17.43-26.23,34.86-52.46c3.27-4.89,3.48-5,8.34-1.7,11.91,8,23.7,16.19,35.55,24.28,1.12.77,2.31,1.44,4.09,2.54a245.49,245.49,0,0,1,20.3-81L360.65,447a17.13,17.13,0,0,0-.77-1.8c-6.63-11.61-14.21-22.81-16-36.57a8.69,8.69,0,0,0-.5-2.69c-.69-1.6-1.24-3.46-1.9-5.07.34-.15-.25-.12.09-.26l1.8,3.46c2.46-3.62,1.34-7.53,1.47-11.22l1.13-.06c.14,2,.86,4.25.33,6.1-2.91,10.21,1,19.11,5.18,27.87,2.85,6,6.3,11.68,9.61,17.72a19,19,0,0,0,2.13-1c11.77-7.81,23.66-15.44,35.22-23.54,5.06-3.54,7-7.57,8.85-13.85-3.57-2.32-7.41-4.23-10.53-7-16.2-14.18-17.07-30.35-3.86-47.47,5.2-6.72,12.22-10.26,20.81-12.06,11.05-2.31,22-3.82,33.26-3.35a9.21,9.21,0,0,1,3.43.85c-9.79.94-19.72-.41-29.31,2.52,8.58.88,17.27-1.25,25.77,1.54H434.14c4.05,3.46,8.82,6.64,12.44,10.81,9.85,11.38,11.06,27.88,3.52,39.8a34.53,34.53,0,0,1-38.23,15.1c-2.15-.54-3.19-.23-4.09,1.88-4,9.43-4.56,6.6,1.71,14.57,5.55,7.06,11.26,14,16.82,21,1.48,1.88,1.88,3.64,1.18,6.48-2.55,10.22-4.29,20.65-6.18,31a6.41,6.41,0,0,0,.88,3.8,15.91,15.91,0,0,1,1.6,11.92c-.42,1.52-1.81,2.81-3.41,4-.75-1.5-2.22-3-2.13-4.48a106.18,106.18,0,0,1,2.11-19.78c1.6-9,3.86-17.94,5.64-26.94a6.35,6.35,0,0,0-.84-4.58c-5.46-7.24-11.16-14.31-16.77-21.44C406.91,422.36,405.5,420.42,403.59,417.9Zm-16.48-35.09c1.86,3.09,3.08,5.5,4.65,7.66,9.16,12.61,24.43,18.51,38,14.79,15.22-4.16,24.3-18.06,22.68-34.71-1.45-14.8-15.2-28.73-29.4-29.65-1.39-.09-2.92.87-4.24.6a20.88,20.88,0,0,0-12.69,1.27c-12.08,5.14-21.46,20.85-20.11,33.9a6.7,6.7,0,0,0,2.13,3.93c4,3.56,9.07,3.63,14.07,3.52,2.43-.05,4.86-.32,7.28-.5v.91C402.26,386.71,395.09,386.29,387.11,382.81Zm34.07,102.75a22.88,22.88,0,0,0-1.6,12.75,15.11,15.11,0,0,0,1.28,1.55c.52-.57,1.36-1.07,1.53-1.73A19,19,0,0,0,421.18,485.56Zm56.35,54.24c-1.58-4.69-3.33-9.27-8.31-12.8A20.63,20.63,0,0,0,477.53,539.8Zm-184.6-8.37.62-.73c-3.4-4.07-6.79-8.14-12-10.14l-.63.74Z"/><path d="M238.08,266.8c-.65,8.4-1.5,16.8-1.91,25.21-1.12,22.67-2.26,45.33-3,68q-1.54,47.79-2.5,95.6c-.63,31-.81,62.07-1.48,93.1-.45,21.31-1.4,42.61-2.15,63.92a5.05,5.05,0,0,1-.94,3c0-1.08,0-2.17,0-3.26q1.71-75.18,3.43-150.38c.78-33.24,1.34-66.49,2.54-99.72,1-28.57,2.83-57.12,4.35-85.67.18-3.34.74-6.65,1.13-10Z"/><path d="M565.85,413.18l-112.06,2.11,0-1.06,112.1-2.3C565.86,412.35,565.86,412.76,565.85,413.18Z"/><path d="M542.09,458.6c-28.45.55-56.9,2.13-85.36.28l85.35-1.09Z"/><path d="M535,498.4l-79.41-1v0H535C535,497.68,535,498,535,498.4Z"/><path d="M276.36,521.63c-1.78-1.58-2.89-3.39-1.76-5.62,1.33-2.6,3.8-2.64,6.87-2.19-2.19.85-4.63,1.07-5.44,2.33S276.17,519.65,276.36,521.63Z"/><path d="M432.08,442.79c2.29,1.92,2.56,6.65.45,10.06C432.38,449.61,432.23,446.2,432.08,442.79Z"/><path class="cls-1" d="M84.26,616.5c-8.11,1-8.12,1-7.88-7.34,2-72.81,3.35-145.64,3-218.49q-.45-86.61-1-173.24c-.08-12.66-.22-25.33-.32-38,0-3.59,1.16-4.34,6.1-4.5,3.28-.11,3.19,2.06,3.2,4.2.29,44.74.85,89.48.76,134.21-.11,53.74-.67,107.47-1.26,161.2-.34,30.93-1.15,61.86-1.74,92.78q-.44,23.11-.79,46.23C84.25,614.49,84.26,615.42,84.26,616.5Z"/><path class="cls-2" d="M421.18,485.56a19,19,0,0,1,1.21,12.57c-.17.66-1,1.16-1.53,1.73a15.11,15.11,0,0,1-1.28-1.55A22.88,22.88,0,0,1,421.18,485.56Z"/><path class="cls-3" d="M477.53,539.8a20.63,20.63,0,0,1-8.31-12.8C474.2,530.53,476,535.11,477.53,539.8Z"/><path class="cls-3" d="M292.93,531.43c-4-2.62-8.44-5.15-12-10.13l.63-.74c5.17,2,8.56,6.07,12,10.14Z"/><path d="M401.25,359.7c.06,3.46-2.27,7-4.14,6.7a2.71,2.71,0,0,1-1.62-2c-.15-2.34,2.63-6.25,4.23-6C400.42,358.43,401,359.46,401.25,359.7Z"/><path d="M400.85,352.6c4.16,1.47,5.44,3.55,4.75,6.94C404.13,357.39,402.6,355.17,400.85,352.6Z"/><path class="cls-4" d="M343.73,403.68c2.07-4.88,2.1-9.35.59-13.08-.21-.52-1.36-.79-2.08-1.18-.67.67-1.81,1.33-1.95,2A13.53,13.53,0,0,0,343.73,403.68Z"/><path class="cls-5" d="M98.68,242.34l-4.39-1.18v22l20.83,5.58v-4.39l-16.44-4.41Z"/><path class="cls-5" d="M126.12,249.69c-3.51,7.85-5.27,11.77-8.79,19.62l5,1.35c2.39-5.52,3.58-8.28,6-13.79,1.71,4.86,2.55,7.29,4.26,12.16-2.93-.82-4.38-1.2-7.31-2-.65,1.58-1,2.37-1.64,3.95,6.27,1.68,9.41,2.56,15.68,4.32-3.52-9.63-5.23-14.67-8.78-24.44C128.76,250.39,127.88,250.16,126.12,249.69Z"/><path class="cls-5" d="M145.68,262.91c-2.1-3.73-3.2-5.57-5.49-9.32-2.25-.65-3.38-1-5.61-1.59,3.6,6.3,5.33,9.44,8.75,15.75-.05,3.52,0,5.27,0,8.68,1.75.49,2.63.73,4.39,1.2,0-3.37,0-5.06,0-8.58,3.58-4.23,5.61-6.35,9.33-10.63l-5.5-1.56C149.24,259.28,148,260.49,145.68,262.91Z"/><path class="cls-5" d="M158.76,262.41c0,.38,0,.57-.06.94-.11,1.76-.17,2.64-.24,4.39-.08,2.15-.06,3.25-.06,5.31v7.38c8.33,2.13,12.5,3.31,20.83,5.42V281.6c-6.57-1.68-9.86-2.53-16.44-4.18v-4.14c5.05,1.32,7.58,2,12.63,3.33v-4.1c-5-1.42-7.58-2.19-12.6-3.57,0-1.75.1-2.63.21-4.39,6.46,1.77,9.67,2.73,16.21,4.71,0-1.81,0-2.75.11-4.62-8.18-2.44-12.08-3.37-20.4-5.69C158.89,260.34,158.85,261,158.76,262.41Z"/><path class="cls-5" d="M186.37,271.17c4.51,1.3,6.76,1.87,11.27,3v4c-4-.94-6-1.4-10-2.42,0,1.5,0,2.22,0,3.71l3,.74c3.18,4,4.78,6.44,8,10.29,2.17.5,3.25.74,5.42,1.21-3.19-3.79-4.78-6.11-8-10.19l2.82.69.29.08c1.89.47,3.42-.6,3.42-2.26v-5.31a4.82,4.82,0,0,0-3.42-4.17l-.29-.08c-5-1.43-7.56-2.18-12.54-3.71l-.12,0-4.1-1.25c-.2,9.47-.06,12.95-.06,21.1l4.39,1.07C186.42,281.22,186.41,278.24,186.37,271.17Z"/><path class="cls-3" d="M220,279.65l8.66,2v-3.45c-3.46-.74-5.19-1.13-8.66-2Z"/><path class="cls-3" d="M229.49,290.56v-1.39c0-1.61-1.68-3.47-3.74-4l-3.2-.83c-4.3-1.15-6.46-1.68-10.77-2.73v-1l-5.11-1.22v4.48c7.08,1.88,10.62,2.77,17.7,4.33v1.27Z"/><path class="cls-2" d="M211.78,279.44v-1.72l6.85,1.6v-3.44c-4.78-1.16-7.18-1.8-12-3.13v5.47Z"/><path class="cls-2" d="M224.37,290.56v2l-6.85-1.41v3.55c3.26.71,4.89,1.07,8.14,1.89l.3.07h0c1.95.5,3.53-.65,3.53-2.3v-2.69C227.44,291.2,226.42,291,224.37,290.56Z"/><path class="cls-3" d="M211.37,288v1.88l4.74,1v3.54l-5.79-1.23-.3-.06h0c-2-.41-3.53-2-3.53-3.65v-2.61C208.44,287.28,209.42,287.51,211.37,288Z"/></svg>