<svg xmlns="http://www.w3.org/2000/svg" viewBox="0 0 551.94 709.19"><defs><style>.cls-1{fill:#ba8c63;}.cls-2{fill:#00d3a9;}.cls-3{fill:#00b39f;}.cls-4{fill:#3c494f;}.cls-5{fill:#121212;}</style></defs><g id="Layer_2" data-name="Layer 2"><g id="Layer_1-2" data-name="Layer 1"><polygon class="cls-1" points="317.44 244.35 169 703.25 179.21 706.56 329.09 246.48 317.44 244.35"/><polygon class="cls-2" points="377.84 100.2 367.66 129.11 397.83 123.42 377.84 100.2"/><polygon class="cls-2" points="365.53 135.16 355.31 164.21 385.68 158.65 365.53 135.16"/><polygon class="cls-3" points="364.13 127.64 374.15 99.17 344.4 104.64 364.13 127.64"/><path class="cls-3" d="M302.09,145.36a64.56,64.56,0,0,0,12.4,26.08L325.2,141Z"/><polygon class="cls-3" points="351.75 162.8 361.85 134.1 331.99 139.73 351.75 162.8"/><polygon class="cls-2" points="318.73 170.9 348.91 165.38 328.9 142 318.73 170.9"/><polygon class="cls-3" points="376.13 191.27 386.28 162.43 356.14 167.94 376.13 191.27"/><path class="cls-3" d="M408.1,178.91a63.71,63.71,0,0,0,16.23-23.44l-31.41,5.75,15.18,17.7Z"/><polygon class="cls-2" points="392.08 157.48 422.37 151.94 402.26 128.57 392.08 157.48"/><polygon class="cls-3" points="400.84 121.06 410.94 92.4 380.93 97.92 400.84 121.06"/><polygon class="cls-3" points="388.52 156.08 398.7 127.15 368.57 132.83 388.52 156.08"/><polygon class="cls-3" points="343.46 192.09 343.47 192.09 343.46 192.09 343.46 192.09"/><polygon class="cls-2" points="341.27 106.87 331.01 136.01 361.36 130.29 341.27 106.87"/><path class="cls-3" d="M384.28,70.39a63.88,63.88,0,0,0-29-2.33l21.19,24.63Z"/><polygon class="cls-2" points="353.56 71.97 343.36 100.94 373.69 95.36 353.56 71.97"/><path class="cls-3" d="M350.57,68.94a64.5,64.5,0,0,0-26,12.57l15.3,17.84Z"/><path class="cls-2" d="M412.2,88.28a63.87,63.87,0,0,0-24.31-16.62L380,94.21Z"/><path class="cls-2" d="M303.53,112.37a63.78,63.78,0,0,0-2.16,29.23l23.41-4.41Z"/><path class="cls-2" d="M321.65,84a63.77,63.77,0,0,0-16.58,24l32.1-5.91Z"/><path class="cls-3" d="M317.53,175a63.93,63.93,0,0,0,24.13,16.43l7.84-22.27-32,5.85Z"/><path class="cls-2" d="M427.49,117.83a64.62,64.62,0,0,0-12.29-26l-10.68,30.35Z"/><path class="cls-2" d="M379.19,194.1a64.52,64.52,0,0,0,26-12.69l-15.27-17.82-10.74,30.5Z"/><path class="cls-3" d="M426.12,150.43a63.85,63.85,0,0,0,2.08-28.84L405.05,126l21.06,24.48Z"/><path class="cls-2" d="M345.27,192.7a63.84,63.84,0,0,0,29,2.33l-21.15-24.71Z"/><polygon class="cls-3" points="327.5 134.48 337.56 105.9 307.72 111.39 327.5 134.48"/><polygon class="cls-4" points="357.26 215.03 356.96 215.87 355.56 219.86 353.85 224.72 351.35 231.81 370.23 238.46 371.63 234.47 356.74 229.23 357.83 226.12 358.14 225.24 369.58 229.27 370.99 225.29 359.54 221.26 360.95 217.28 375.84 222.52 377.25 218.54 358.37 211.89 357.26 215.03"/><polygon class="cls-4" points="284.63 189.46 284.33 190.3 282.93 194.28 281.21 199.14 278.72 206.24 297.6 212.88 299 208.9 284.1 203.66 285.2 200.55 285.51 199.67 296.95 203.7 298.36 199.72 286.91 195.69 288.31 191.7 303.21 196.95 304.62 192.97 285.73 186.32 284.63 189.46"/><path class="cls-4" d="M325.57,216.88a5.36,5.36,0,0,1-1.12,1.87,5.42,5.42,0,0,1-1.72,1.26,6,6,0,0,1-2.05.53,5.44,5.44,0,0,1-2.18-.3l-18.64-6.57,1.48-4.19L320,216a1.05,1.05,0,0,0,1.36-.65l.57-1.62a1.07,1.07,0,0,0-.65-1.37l-13.41-4.72a5.41,5.41,0,0,1-1.88-1.12,5.73,5.73,0,0,1-1.27-1.72,5.66,5.66,0,0,1-.54-2.08,5.21,5.21,0,0,1,.29-2.16L305,199a5.32,5.32,0,0,1,1.13-1.89,5.74,5.74,0,0,1,1.72-1.26,5.61,5.61,0,0,1,2.07-.54,5.33,5.33,0,0,1,2.16.29l18.65,6.57-1.49,4.22-18.64-6.56a1.07,1.07,0,0,0-1.37.65l-.57,1.62a1.06,1.06,0,0,0,.66,1.37l13.41,4.72a5.28,5.28,0,0,1,1.88,1.13A5.57,5.57,0,0,1,325.9,211a5.67,5.67,0,0,1,.54,2.06,5.27,5.27,0,0,1-.3,2.18l-.57,1.62Z"/><path class="cls-4" d="M348.86,230.93l-3.79-1.34,2.75-7.83L333,216.55l-2.76,7.83L326.46,223l4.24-12,18.61,6.55,2.77-7.86,3.8,1.33-7,19.92Zm-13.7-20.48-3.8-1.34,2.11-6,3.79,1.33Z"/><polygon class="cls-4" points="407.63 237.07 405.1 228.34 400.12 226.59 403.88 241.35 401.07 249.31 405.06 250.72 407.86 242.75 420.04 233.6 415.12 231.87 407.63 237.07"/><path class="cls-4" d="M382.69,224.72l10.21,3.6-1.45,4.14-8.23-2.9-1.34,3.8,1.89.66,4.35,10.72,4.91,1.74-4.34-10.73,2.81,1a3.28,3.28,0,0,0,4.18-2l2-5.55a3.28,3.28,0,0,0-2-4.18l-15.51-5.46-7,19.92,4,1.4,5.6-16.15Z"/><path class="cls-4" d="M275.66,205.16l-4.23-1.49,5.12-14.53a1.12,1.12,0,0,0,.06-.48,1.21,1.21,0,0,0-.12-.46,1,1,0,0,0-.28-.38,1,1,0,0,0-.42-.25l-19.52-6.88,1.49-4.22,19.52,6.87a5.56,5.56,0,0,1,1.93,1.16,5.66,5.66,0,0,1,1.87,3.9,5.54,5.54,0,0,1-.31,2.23ZM255,197.87l-4.22-1.48,5.52-15.7,4.22,1.49Zm10.33,3.64L261.07,200l4.75-13.48L270,188Z"/><path class="cls-5" d="M69.31,134.79c-12.9-8-25.37-9.21-38.48-2.6a20,20,0,0,1,11.87-6.61,35.93,35.93,0,0,1,29.06,7.11A6.31,6.31,0,0,0,75.69,134c5.22.14,10.46.09,15.65.57,3.9.36,3.47-1.31,2.2-3.64a22.51,22.51,0,0,0-18.06-12.1c-3.06-.35-6.2,0-9.34-.35a19.56,19.56,0,0,1,14-2.08,21.67,21.67,0,0,1,17.4,16.83c.5,2.41,2.08,3,4,3.71,19.1,7.52,33.71,19.77,41.94,39.09,18.18,42.71-14.89,89.51-59.09,90.78-3.91.11-7.83.11-11.74-.1-2-.11-2.54.54-2.53,2.36,0,6.13.06,12.26,0,18.39,0,1.92.87,2.54,2.56,2.57l9.78.2c44.88.84,89.77,1.59,134.65,2.58,20.08.45,40.16,1.38,60.24,2.16a7.62,7.62,0,0,0,5.71-1.76c3.87-3.25,8.73-3.22,13.4-3.21,3.09,0,4.53-1,5.46-4,3.75-12.19,7.86-24.27,11.69-36.43,1.75-5.55,2.89-4.64-3.52-6.82-26.84-9.12-53.81-17.86-81-25.93q-21.54-6.39-42.71-13.86c-2.54-.89-2.35-1.9-1.62-4C207.3,134.75,232.54,71.6,258.58,8.75a33.47,33.47,0,0,0,2-5.5c.78-3.44,2.6-3.78,5.64-2.71Q298.59,12,331.05,23.23c51.68,18,103.6,35.29,154.43,55.61,15.46,6.18,30.69,12.94,46.09,19.29,2.76,1.13,2.95,2.26,1.88,4.91-21,52.35-43.66,104-63.59,156.81-4.4,11.68-9.35,23.16-13.08,35.1-.34,1.09-.32,3-2.73,1.93-21.88-9.77-44.41-17.89-66.71-26.59-17.83-7-35.85-13.39-53.95-19.61-2.56-.87-3.38-.46-4.28,2.16-4.09,11.94-9.63,23.33-13.17,35.48-.88,3-1.19,5.09,2,7.26,4.47,3,3.84,8.93-1.52,10.22-7.05,1.69-8.13,6.66-9.88,12.09Q248.34,498.45,190,679c-3,9.28-6.61,18.37-8.87,27.88-.48,2-1.43,2.81-3.62,2.09-2.59-.85-5.32-1.27-7.93-2.06-1.31-.39-2.87-.8-2.93-2.65,0-.71.57-1.68-.59-1.87s-1.51.79-1.89,1.62c-1.38,3-2.35,3.22-4.14.47s-3.23-5.65-4.74-8.53C131.41,650.15,113.24,602,96.11,553.4c-8-22.85-14.59-46.15-21.31-69.4-.34-1.18-.39-2.52-2-4,0,4.27-.15,7.95,0,11.61,1.7,37.93,3.12,75.88,5.31,113.79,1.27,21.86,3.76,43.66,5.77,65.48.94,10.13,1,20.33,2.74,30.39.54,3.06-1,4.42-3.9,4.43-6.39,0-12.78,0-19.17-.07-8.61-.17-17.22-.47-25.82-.76-1.25,0-2.92.17-3.32-1.42s.91-2.65,2.1-3.44c3.82-2.52,8.29-2.92,12.65-3.64,9.3-1.51,18.45-1.17,27.41,2a20.72,20.72,0,0,0,2.58.89c1.3.28,1.67,2.79,3.5,1.55s.6-2.87.47-4.29c-1.66-18.58-3.23-37.17-5.15-55.72-5-48.2-5.81-96.62-8.26-145-.48-9.51-.32-19.05-.5-28.57,0-2.3-.31-4.59-.53-7.8-4.58,5.39-9.5,8.29-16,8.07-10.26-.35-14.67-6.2-11.61-16.11,1-3.11.08-5.08-2-7.22A211.39,211.39,0,0,1,9.46,404.94c-3.16-5.37-5.87-11-8.94-16.46-.95-1.67-.44-2.9.27-4.32,6-12,13.92-22.64,21.72-33.38,13.7-18.89,27.67-37.58,41.59-56.31a14.68,14.68,0,0,0,3-7.88c.49-6,.8-12,.88-18,0-1.94-.6-2.62-2.48-3a79.63,79.63,0,0,1-35.23-17.76c-11.86-10.21-18.06-23-18.41-38.95-.37-16.54,2.94-31.81,11.9-45.77,6.53-10.17,15-17.91,26.77-21.69C56.55,139.46,62.51,137.2,69.31,134.79Zm462.06-32.11c-.34-1.44-1.69-1.5-2.69-1.93-12.91-5.54-25.76-11.25-38.78-16.53-48.59-19.68-98.14-36.74-147.66-53.89-25.05-8.67-50-17.77-74.9-26.76-2.48-.89-3.69-1-4.71,2.06-2.11,6.28-4.76,12.38-7.32,18.5q-34,81.35-64.09,164.23c-4.08,11.31-4.12,11.36,7,15.16,29.24,10,59.06,18.09,88.46,27.61,54.37,17.61,108,37.33,160.94,58.7,7.17,2.89,7.28,2.82,9.92-4.35,22.57-61.19,47.74-121.34,73.14-181.39C530.88,103.61,531.13,103.16,531.37,102.68ZM166.87,702.73c1.25-3.42,2.47-6.41,3.47-9.48q19.83-61.07,39.6-122.16Q251,443.47,292,315.8c.78-2.42,2.83-5.22,1.63-7.25-.83-1.39-4.29-1.12-6.49-1.84-3.2-1-7-1.89-7.64-5.8-.43-2.54-1.49-2.68-3.49-2.76q-68.64-2.76-137.34-3.79c-21.66-.3-43.32-.42-65-1.55-3.11-.16-4.47.64-4.4,4,.09,4.29-.44,8.6-.51,12.9-.61,41.5-1.22,83,2.25,124.42,1.43,17,3.12,34,7.49,50.61,14.07,53.4,32.94,105.13,54.27,156,8.11,19.33,17.07,38.24,26.51,56.94,1.11,2.19,2,4.41,5.16,3C166.05,700,165.82,701.7,166.87,702.73Zm-102-561.22a27.92,27.92,0,0,1-3.88.71c-14.91.7-25.71,8.23-33.77,20.29-9.09,13.6-12.37,28.68-12,44.89.28,11.58,3.71,21.91,11.35,30.43,17.27,19.28,39.15,28.08,64.78,24.68,25.39-3.36,43.12-18,50.52-42.48,7-23.13,1.41-44.5-15.64-62-17.3-17.74-38.38-24.24-62.82-19a4.71,4.71,0,0,0-.83.43C63.21,140.33,64.6,139.76,64.85,141.51Zm.86,154.93c-.81,1-1.68,1.87-2.41,2.88-11.57,15.75-23.17,31.47-34.64,47.3-8.4,11.6-16.76,23.23-24.08,35.57a5.59,5.59,0,0,0,0,6.35c4.21,7.49,8.28,15,13.06,22.2,7.4,11.07,15.27,21.76,24.87,31.06,1.32,1.28,2.14,2,4,.46,5.27-4.19,11.66-3.88,16.86.34,1.8,1.45,3.63,2.86,5.15,4.06-2.26-24.26-3.45-49.34-3.52-74.46S65.47,321.89,65.71,296.44Zm235.36,11.92c-3.18-1.27-4.14,1.13-5.12,4.22-6.43,20.35-13,40.65-19.54,61q-46.5,144.32-93,288.62c-3.67,11.39-7.07,22.88-11.22,34.08-2.6,7-3.1,6.72,4.27,8.72,2.06.56,2.68,0,3.28-1.84q13-41.11,26.22-82.18,49.55-154,99.12-308C306.52,308.38,306.49,308.37,301.07,308.36ZM327,249.55a3.26,3.26,0,0,0-.21-1c-.32-.63-8.07-3.18-8.78-2.93s-.9.84-1.1,1.49q-6.4,20.47-12.83,41c-.19.6-.66,1.56-.06,1.76a30,30,0,0,0,6.79,1.65c1.52.12,1.71-1.72,2.14-2.9q6.48-17.77,12.93-35.57C326.24,251.92,326.56,250.79,327,249.55ZM54.57,464.4c6.86-.06,11.8-4,11.75-9.28,0-5.95-7.74-13.48-13.56-13.49-5.29,0-9.58,7.43-9.65,13.56C43.05,461.1,47.33,464.46,54.57,464.4ZM301.44,305.29c4.92,0,8.71.06,12.36-1.1,1.45-.46,3.36-.77,3.61-2.56s-1.2-2.81-2.57-3.6a35.65,35.65,0,0,0-28.15-3.7c-2.44.66-4.47,2.27-4.73,4.28s2.29,3.27,4.17,4.12C291.36,305.08,297,305.2,301.44,305.29ZM39.23,701.09l0,1.27H76.52C64.18,696.92,51.72,698.28,39.23,701.09Z"/><path class="cls-5" d="M199.34,704.52c-2.83-3-6.24-3.57-9.74-4-1.24-.16-3.5.24-3.37-1.5.16-2.12,2.42-1.42,3.86-1.32,3.77.28,7.5.83,10.56,3.38,2.79,2.33,2.58,5-.79,6.22-5.1,1.83-10.51,1.24-15.81,1.33-.51,0-1.13-.12-1.12-.77,0-1.14.95-1.55,1.85-1.63,3-.27,6-.35,8.94-.63C195.47,705.43,197.34,705.8,199.34,704.52Z"/><path class="cls-5" d="M543.72,114.28c5.26-7.69,6.75-15.74,4-24.53a8.06,8.06,0,0,0-1.8-3.38c-.82-.79-3.12-.51-1.17-2.56,1.6-1.69,3-1.2,4.22.4a7.85,7.85,0,0,1,1.52,2.69c2.47,10,2.59,19.5-5.53,26.64A7.38,7.38,0,0,1,543.72,114.28Z"/><path class="cls-5" d="M170.15,191.78c-2,10.66-7.22,21.75,6.61,29.27-5.9-.15-10.07-2.87-11.28-7.59C163.46,205.57,166.24,198.55,170.15,191.78Z"/><path class="cls-3" d="M54.57,464.4c-7.24.06-11.52-3.3-11.46-9.21.07-6.13,4.36-13.56,9.65-13.56,5.82,0,13.51,7.54,13.56,13.49C66.37,460.44,61.43,464.34,54.57,464.4Z"/><path class="cls-3" d="M301.44,305.29c-4.46-.09-10.08-.21-15.31-2.56-1.88-.85-4.44-2.06-4.17-4.12s2.29-3.62,4.73-4.28a35.65,35.65,0,0,1,28.15,3.7c1.37.79,2.81,1.9,2.57,3.6s-2.16,2.1-3.61,2.56C310.15,305.35,306.36,305.29,301.44,305.29Z"/><path class="cls-3" d="M39.23,701.09c12.49-2.81,25-4.17,37.29,1.27H39.26Z"/><path class="cls-5" d="M124.47,209.88c-.16,1.92-1.6,2.53-2.88,3C94.4,222.69,66.85,229,38,220.61a77.82,77.82,0,0,1-8.7-3.44c-.76-.32-1.88-.7-1.37-1.94.43-1,1.44-1,2.35-.85a12.43,12.43,0,0,1,2.61.77c18.89,8.19,38.31,7.49,57.91,3.42,10.58-2.2,21.16-4.4,31.16-8.69A2.74,2.74,0,0,1,124.47,209.88Z"/><path class="cls-5" d="M57.77,181.94c.33-4.24.12-8.61,3.79-11.85,1.85-1.63,3.3-1.64,5,.17,3.93,4.25,3.09,15.75-1.48,19.32-2.47,1.93-5,1.37-6.37-1.52A13,13,0,0,1,57.77,181.94Z"/><path class="cls-5" d="M85.53,179.61c.12-3.65.37-7.29,2.58-10.41,2.45-3.45,5.15-3.25,7.12.5,2.11,4,2,8.29,1.32,12.54-.6,3.69-4.31,6.76-7.37,6.14-3.79-.75-3.4-4-3.64-6.82C85.48,180.91,85.53,180.26,85.53,179.61Z"/><path class="cls-5" d="M42.37,167.92c2.05-4.6,16-11.2,21.64-10.4Z"/><path class="cls-5" d="M89.89,155.41c4.58-1.43,14.74,2.15,16.7,5.18.37.57.71,1.15.32,1.78-.52.86-1.42.64-2.07.33C100.11,160.44,95.41,158.11,89.89,155.41Z"/><path class="cls-3" d="M186.62,699.93s-2.7,4.45-3.25,5.72c-.36.84.37.91.37.91s14.48-.26,16.06-1.85C199.8,704.71,197,700.48,186.62,699.93Z"/></g></g></svg>