<svg xmlns="http://www.w3.org/2000/svg" viewBox="0 0 533.53 418.58"><defs><style>.cls-1{fill:#00b39f;}.cls-2{fill:#00d3a9;}.cls-3{fill:#3c494e;}</style></defs><g id="Layer_2" data-name="Layer 2"><g id="Layer_1-2" data-name="Layer 1"><path d="M310.89,381.05c-10.7,5.39-21.85,9.75-33,14.07-15.44,6-30.76,12.21-46.46,17.49-4.53,1.52-7.46.51-10.34-2.93A185.38,185.38,0,0,1,206.65,390c-11.05-17.47-23.52-34.08-32.58-52.79a5.2,5.2,0,0,0-3.22-2.73c-18.3-6.57-35.44-15.5-51.87-25.85-7.24-4.55-14.76-8.61-22.24-12.74-2.91-1.61-4.27-1.32-6.38,1.48C74.61,318.2,62.91,341.56,49,363.53c-2.43,3.83-5,7.58-7.41,11.43-1.44,2.31-2.66,2.39-4.53.34a57.35,57.35,0,0,0-14.19-11A31,31,0,0,0,17.72,362c-.93-.33-2.15-1-3,0-.64.83.14,1.79.48,2.63a14.87,14.87,0,0,0,7.2,7.76c3.9,2.09,7.35,2.59,11.55,3.94,1.19.39,3.64-.49,5.75.26a8.44,8.44,0,0,1-7.64,2.23c-7.21-2.13-14.46-4.29-18.27-11.72-1.11-2.16-2.26-4.59-.31-6.7s4.26-.83,6.37-.05c6.8,2.48,12.35,6.9,17.43,11.85,2.11,2.06,2.84,1.63,4.26-.59,10.26-16.11,19.9-32.59,29.45-49.12,6-10.45,14.07-19.48,20.37-29.73,1.33-2.18,3.15-.81,4.59-.15a183.66,183.66,0,0,1,21.71,12c16.26,10.33,33,19.63,51.08,26.56,4.07,1.57,4,1.7,4.16-2.84,1.28-32.92,7.07-65,18.85-95.83.93-2.45.79-3.51-1.65-4.93-24-14-43.06-33.11-57.84-56.6-4.06-6.46-4.74-12.56-1.49-19.92,10.84-24.53,23.79-47.81,39.73-69.35,2.1-2.83,1.62-5.19.75-7.64-.75-2.12-3.25-1.35-5-1.46-27.33-1.68-54.72-2.76-82-5.14C69.56,66.23,58.4,57.59,50,45.55c-1.38-2-.86-3.19,1.11-4.49,9.53-6.3,19.6-11.65,30.58-14.67,7.49-2.06,15.43-.48,23.14-.05,35.35,2,70.69,4.11,106,6.17,15.34.89,30.68,1.68,46,2.67a11.35,11.35,0,0,0,6.81-1.59c20-11.54,40.42-22.35,61.46-32A15.19,15.19,0,0,1,333.93.14c11.12,1.54,22.34,2,33.56,2.42,1.14,0,2.71-.47,3.32.72.85,1.68-1.16,2.13-1.93,3.05-8,9.55-17.27,17.85-25.86,26.83-.83.87-2,1.62-2.4,2.66-1.93,5.63-6.14,4.4-10.41,4-3.53-.37-7.18-2.09-11.3.07a46.84,46.84,0,0,0,12.67,3.82c3.62.67,5,2.32,4.4,5.93-.35,1.92.26,4-1.12,6.12-1.41-2-1.26-4.12-1.14-6.1.15-2.32-.87-2.94-3-3.74-17.6-6.66-36.1-6.49-54.44-7.56q-92-5.41-184.06-10.68c-6.56-.38-5.91-1.2-6.53,5.59-.76,8.47-1.64,16.93-3,25.35-.59-10.3.63-20.48,2.07-30.83-.51-.72-1.37-.25-2,0-10.18,3.7-20.1,7.93-29.28,13.79-2.23,1.43-2.62,2.53-.75,4.58C63.12,57.52,75.3,65.44,91.3,66.32q47.43,2.61,94.83,5.54c2.89.18,4.59-.56,6.18-3,2.74-4.23,6.29-7.48,11.74-8.14,5.83-.7,8.74,2,7.93,7.76C210.89,76.12,201,84.56,193,84c-2.53-.17-3.56.79-4.82,2.47-16.29,21.69-31.82,43.9-45.37,67.43-.9,1.56-1.65,3.29-3.57,4.74-.37-2.33.88-3.62,1.65-5,13-23.23,28.26-45,44.57-66,3.11-4,2.43-8.19,3.36-12.32.31-1.39-1-1.37-1.87-1.42-3.87-.24-7.74-.42-11.6-.58-.62,0-1.45-.22-1.73.57s.38,1.49,1,2c1.44,1.11,3,.72,4.57.33,4-1,1.16-3.14,5-2.45a10.16,10.16,0,0,1-7.3,5,5.48,5.48,0,0,0-4.46,2.72c-16.63,24.16-31.19,49.43-42.18,76.69-.77,1.91-1,3.42,0,5.22,8,14,18.08,26.42,29.22,38,.13.12.45.06,1.33.15-9.09-13.2-17.3-26.54-21.54-42.88,2.31,1.73,2,4,2.69,5.56,9.18,19.49,20.24,37.66,36.83,51.86,4.05,3.47,8.5,6.47,12.62,9.86,2.08,1.71,2.78.84,3.66-1.12,1.91-4.26,3.91-8.48,6-12.64,1.15-2.23,1-3.12-1.79-3.56-10-1.53-18.82-5.86-26.82-11.9a38,38,0,0,1-13.69-18.34c-.39-1.16-1.66-2.5-.35-3.66,1-.88,2.27-.1,3.42.2a53.63,53.63,0,0,0,32.28-1.67c.32-.12.56-.45,1.65-1.38-4.9,0-8.94.1-13,0a66.26,66.26,0,0,1-23.66-5.5c-1.62-.69-2.47-1.4-2.41-3.48a55.17,55.17,0,0,1,9.75-30.45,38.76,38.76,0,0,1,19.67-15.06c8.44-2.94,17.12-5.07,25.47-8.34,5.9-2.31,12.39-2,18.65-1.68,8.8.46,17.57,1.4,26.35,2.15a3.79,3.79,0,0,1,3.23,1.49c-16.68,1.1-32.94-4.3-49,.47,5.91.33,11.65,2.47,17.75.79,4.13-1.14,8.52-.13,12.72.66A141.55,141.55,0,0,0,260,115c1.51.08,3.13-.15,5.12,1.14-13.13,2.77-25.22-2.44-37.75-1.28,2.29,1.22,4.62,2.37,6.86,3.69C252,129,261.51,144.34,260.12,165.2c-1.45,21.77-21.48,41.44-43.55,43.65-1.73.18-3.53.75-5.17.44-6.1-1.14-8.39,2.28-10.74,7.21-17.27,36.23-24,74.78-25.94,114.46a9.35,9.35,0,0,0,1.17,5A229.54,229.54,0,0,0,189.6,359c11.39,16.79,21.81,34.25,34.23,50.35,1.73,2.24,3.11,2.64,5.62,1.79q39.81-13.61,78.25-30.68c7.38-3.27,8.85-3.16,13.92,3.05a88.65,88.65,0,0,1,11.78,19.95c.81,1.79,1.76,4-.1,5.58-1.65,1.39-3.6.29-5.27-.5-10-4.75-15.72-12.49-16.52-23.68C311.43,383.68,311.8,382.44,310.89,381.05ZM161.61,177.25a34.1,34.1,0,0,0,7,11.58c14.51,16.15,40.06,22.2,60.26,14.31s32-29,27.67-49.53c-5.5-26.06-32.34-43.75-58.37-38.45a4.39,4.39,0,0,0-2.24.75c-1.91,2-1.85,2.13-3.17,2.22a29.47,29.47,0,0,0-20.9,10.49c-8.06,9.17-12,20-12.46,32.19-.12,2.75.73,4,3.4,4.8,14.05,4.11,28.22,5.61,42.68,2.45,1.17-.25,2.45-.84,4.19.09C194.56,176.27,179.41,181.7,161.61,177.25ZM367.48,4.87a17.24,17.24,0,0,0-2.15-.4A285.11,285.11,0,0,1,331.41,2a7.35,7.35,0,0,0-4.26.7C306.47,12.31,286,22.44,266.34,34c-.54.32-1.26.52-1,1.51L314.76,39c.26,0,.53.08.79.11a3.58,3.58,0,0,0,2.94-1c2.11-2,4.51-1.84,7.11-1.34s5.55.77,8.33,1.17a3.83,3.83,0,0,0,3.86-1.45c6.13-7.44,13.39-13.79,20-20.76C361,12.3,364.47,9.19,367.48,4.87Zm-158,63.36c0-4.31-1.2-5.49-5.49-5.38-6.65.18-14.07,9.19-13.27,16a2.89,2.89,0,0,0,2.8,2.79C199.87,82.69,209.46,74.64,209.48,68.23Zm123,339.41c-4.24-10.62-9.41-19.52-16.6-27.19-.44-.47-1-1.06-1.72-.73-1.11.5-.72,1.61-.75,2.47C313,392.33,320.39,402.52,332.51,407.64Z"/><path d="M211.46,74.79c8.22.37,16.43.67,24.64,1.13,21.87,1.22,43.75,2.3,65.6,3.88,9.46.68,18.6-1,27.86-2,2.4-.26,3.24-1.29,3.54-3.77.34-2.84-.11-6.09,2.94-9.26-.43,4.73-.73,8.52-1.14,12.3-.19,1.74-1.69,1.84-3,2L315.4,81.57c1,2.93,3.64,3.61,6,3.6,7.24,0,12.15,3.39,16.2,9.16,6.31,9,14.83,16.09,21.63,24.69.91,1.16,2.39,2.54,2,3.69-.46,1.52-2.54,1.09-3.93,1-15.17-1.25-30.33-2.58-45.49-3.86-2.18-.19-3.48-1.88-5.2-2.85-16.18-9.26-29.83-21.56-42.08-35.46a6.81,6.81,0,0,0-5.26-2.23q-21.58-1.35-43.18-2.74C214.53,76.45,212.91,76.68,211.46,74.79ZM357.2,121.33c-9.5-10.32-18.57-20.46-26.54-31.54C329.5,88.18,327.59,88,326,88c-5.27.1-10.07-.82-13.69-5.05-.93-1.09-2.16-.81-3.33-.87q-12.62-.68-25.22-1.34c-5.49-.28-11-.52-16.48-.78,7.79,8.55,15.67,16.49,24.56,23.32,5.92,4.55,11.81,9.26,18.18,13.12,6.79,4.12,14.83,1.7,22.23,2.89.53.08,1.06.14,1.6.19Z"/><path d="M312.87,56.4c17.19,1,34.37,1.93,51.56,2.79,1.47.08,2.44.21,2.18,1.83-.4,2.4-1,5-4.14,4.89-5.86-.15-11.73-.5-17.59-.85q-38.55-2.3-77.1-4.65c-2.8-.17-5.59-.42-8.38-.7-1.24-.13-3,.14-2.77-1.93.19-1.7.47-3.63,2.69-3.92a27.36,27.36,0,0,1,4.79-.08q24.39,1.22,48.77,2.5Zm45.59,7.15v.1c1.47.06,2.94.17,4.41.18.73,0,1.72.18,1.77-1,0-1-.63-1.41-1.52-1.5-.66-.08-1.33-.1-2-.14q-49.39-3-98.78-5.92c-1.2-.07-3-.82-3.21,1.21C258.92,58.73,261,58,262.07,58Q310.27,60.84,358.46,63.55Z"/><path d="M432.05,281.49c-55.67-3.2-111.66-.67-167.07-9.77,1.59-2.23,3.91-1.2,5.81-1,9.16.95,18.28,2.25,27.45,3.18,18.62,1.89,37.32,2.5,56,3,25.78.67,51.52,1.81,77.19,4.3A1.85,1.85,0,0,1,432.05,281.49Z"/><path d="M329.48,185.74c48.16,4.42,96.59,5.57,144.68,11.1C425.88,194,377.54,192,329.48,185.74Z"/><path d="M533.53,79c-5.38-.57-10.76-1.09-16.14-1.72-29.49-3.43-59.16-3.74-88.78-4.83-14.41-.54-28.83-1.07-43-3.83-1.26-.24-2.7-.11-3.63-1.69,7.84.84,15.5,1.8,23.19,2.46,17.85,1.53,35.75,1.69,53.64,2.21C483.86,72.32,508.87,73.71,533.53,79Z"/><path d="M522.43,14.87c-43.37-2.64-86.8-5.45-130-11.11C435.78,7.21,479.2,9.6,522.43,14.87Z"/><path d="M260.44,75c4.94-1.32,42.81-.7,48.59.49C292.83,75.91,276.63,76.15,260.44,75Z"/><path d="M329.24,54.44c-4.2.77-8.22-.21-12.26-.79-2.42-.35-1.89-2.2-1.76-3.7.11-1.18-.4-3.23,1.58-3a39.68,39.68,0,0,1,15.87,4.71l-.35,1.18c-3.45-1.05-6.89-2.19-10.38-3.11-1.57-.42-3.17-1.64-4.86-.55A1.88,1.88,0,0,0,316.8,51c1.05,1.77,3,1.22,4.62,1.47C324.08,52.86,326.83,52.86,329.24,54.44Z"/><path d="M328.21,67.24c-2.46,1.3-5.13,1.11-7.72,1.44-1.25.16-2.43.48-2.21,2.17S319.8,72,320.78,72c1.86,0,3.74-.23,5.6-.09s2.51-.89,2.65-2.88c1.37,1.29.38,3.43,3.6,3.7C327.16,74.42,323,74,318.91,74c-3.81-.09-2.18-3.73-3.18-5.55-.73-1.32,1.85-1.12,2.94-1.22C321.84,66.89,325,66.4,328.21,67.24Z"/><path d="M355.22,394.2c3.1,6.71-3,17.77-12.5,24.38C348.25,411.47,354.88,405,355.22,394.2Z"/><path d="M11.57,351.69c-8.46,2.24-10.42,4.7-9.68,12.18-2.4-2.28-2.51-4.68-.36-8C4.15,351.78,8,350.2,11.57,351.69Z"/><path d="M379,124.84c5.3-1,10.55-.32,15.79.8A47.68,47.68,0,0,1,379,124.84Z"/><path d="M190.2,136c-.27,4.61-4.25,9.08-8.48,9.88-2.52.48-3.92-.59-3.85-3.14a14.36,14.36,0,0,1,4.73-10.2,4.76,4.76,0,0,1,5.54-.92C190.22,132.54,190.22,134.48,190.2,136Z"/><path d="M197.37,136.81c-.09-5.35-.23-9.74-3.81-12.94a1.12,1.12,0,0,1,0-1c.36-.54.94-.37,1.42-.14a7,7,0,0,1,3.85,5.24A11,11,0,0,1,197.37,136.81Z"/><path d="M362.46,8.11c-6.29,6-12.74,11.87-19.57,17.28l-.7-.79L361.74,7.3Z"/><path d="M274.89,82.67c9.63.16,19.29-.31,28.74,2.77l-28.9-1.62Z"/><path class="cls-1" d="M208.15,62.85S202,60.31,196,66.22c0,0-8.48,8.85-4.4,14.54,0,0,2.59,5.93,13.92-3.44C205.47,77.32,213.35,69.16,208.15,62.85Z"/><path class="cls-1" d="M14.56,361.7s-3.43,10.91,22,15.2c0,0,1.73.39,2.28-.9C38.85,376,18.77,358.08,14.56,361.7Z"/><path class="cls-1" d="M313.93,379.3s-3.91,5.95,2.9,15.36c0,0,2.56,8.63,15.9,13.41C332.73,408.07,321.28,377.67,313.93,379.3Z"/><path class="cls-1" d="M173.58,73.26S172,76.06,177,76.81c0,0,5.79-.65,5.67-3.14Z"/><path class="cls-2" d="M260.18,54.72s-4,2.13,0,3.78l104,5.75s2.24-1,.41-3.07Z"/><path class="cls-3" d="M140.94,39.37,138,39.15,136.9,53.93l14,1,.22-3-11.06-.81Z"/><path class="cls-3" d="M159.4,40.72l-7,14.35,3.37.25,4.78-10.06,2.32,7.61L158,52.5l-1.32,2.88,10.54.77-4.83-15.21Z"/><path class="cls-3" d="M172.06,46.86l-3.32-5.45-3.69-.27,5.26,9.3-.43,5.91,3,.22.44-5.91,6.56-8.44L176.18,42Z"/><path class="cls-3" d="M180.93,44.65l0,.62-.22,3-.27,3.61L180,57.1l14,1,.22-3-11.05-.81.17-2.31,0-.65,8.5.63.21-3-8.49-.62.22-3,11.05.81.22-2.95-14-1Z"/><path class="cls-3" d="M199.71,46.52l7.59.56-.23,3.07-6.76-.5-.18,2.83,2,.14,4.91,6.47,3.65.27-4.91-6.47,2.1.16a2.3,2.3,0,0,0,2.46-2.13l.3-4.12a2.31,2.31,0,0,0-2.12-2.47L197,43.49,196,58.27l2.95.21.81-12Z"/><path class="cls-1" d="M228.39,45.85l-5.82-.42-.21,2.8,5.82.43Z"/><path class="cls-1" d="M228.22,55.34l.09-1.17A2.49,2.49,0,0,0,226,51.56l-9.39-.69.06-.76-3.44-.26L213,53.16l11.91.88-.08,1,3.44.25Z"/><path class="cls-2" d="M216.7,49.2l.11-1.38,4.6.34.21-2.8-8.05-.6L213.26,49Z"/><path class="cls-2" d="M224.72,56l-.12,1.63L220,57.28l-.2,2.8,5.67.42A2.33,2.33,0,0,0,228,58.39l.16-2.15L224.71,56Z"/><path class="cls-1" d="M216,55.5,215.86,57l3.19.23-.21,2.8-4.1-.3a2.33,2.33,0,0,1-2.19-2.46l.15-2,3.27.24Z"/></g></g></svg>