<svg id="Layer_1" data-name="Layer 1" xmlns="http://www.w3.org/2000/svg" viewBox="0 0 612 792"><defs><style>.cls-1{fill:#00b39f;}.cls-2{fill:#00d3a9;}.cls-3{fill:#3c494f;}</style></defs><g id="Stickie_-_3" data-name="Stickie - 3"><path d="M155.43,354l13-20.54c-7.86-1.17-15.68-1.37-22.88-3.6-21.27-6.6-39.36-17.9-46.26-40.53-5.12-16.78-3.12-33.81,4.32-49.73a101.52,101.52,0,0,1,12-18.73c4.63-6,11.1-9.87,18.29-12.41,4.25-1.5,8.46-3.11,12.74-4.69-5.8-9.66-19.56-11.81-37-6.06l-.56-.88c2.86-1.71,5.53-4,8.61-5,11.09-3.92,24.58.17,32.36,9.06.81.92,3.24.89,4.8.61,13.68-2.39,26.84-1.07,39.23,5.4,21.59,11.29,35.37,28.62,38.24,53.08,3.65,31.12-16.13,60.24-46.34,69.51-4.66,1.43-9.5,2.27-14.79,3.51l2,3.23c3.62,5.8,7.2,11.63,10.87,17.4a6.66,6.66,0,0,1-.13,8.12,116.66,116.66,0,0,0-6.7,11.36,6.64,6.64,0,0,0-.56,4.67c10.08,30.3,12.29,61.51,10.69,93.12a25.4,25.4,0,0,1-3.31,11.8c-5,8-10.81,15.38-16.33,23a11.44,11.44,0,0,1-2,1.62c-1.13-2.1-2.34-3.93-3.18-5.92-4.73-11.27-9.45-22.54-14-33.89-.53-1.35-.11-3.34.42-4.83,5.6-15.65,11.61-31.15,16.87-46.9,3.89-11.64,5.52-23.79,6-36.08a10.68,10.68,0,0,0-2.43-7.75c-2.94-3.59-5.49-7.5-8.32-11.18C159.48,358.52,157.58,356.49,155.43,354ZM150.78,207.6a59.73,59.73,0,0,1-6.65,1.22c-10.22.53-18.47,5-25.43,12.27-13.7,14.28-18.55,31.73-18.45,51,.08,15.07,5.71,27.63,17,37.5,14.84,12.93,31.85,19.88,51.91,19.31,44.7-1.25,72.93-46.55,53.82-87-11.49-24.32-39-44.24-75.35-36.45-.15,0-.26.33-.5.65Z"/><path class="cls-1" d="M171.25,333l2,3.23c3.62,5.81,7.2,11.64,10.88,17.41a6.66,6.66,0,0,1-.14,8.11,116.82,116.82,0,0,0-6.7,11.37,6.62,6.62,0,0,0-.56,4.66c10.08,30.3,12.29,61.52,10.7,93.13a25.49,25.49,0,0,1-3.32,11.79c-5,8-10.81,15.39-16.33,23a11.35,11.35,0,0,1-2,1.63c-1.14-2.1-2.35-3.94-3.18-5.93-4.74-11.26-9.45-22.53-14-33.89-.54-1.35-.12-3.33.41-4.83,5.6-15.64,11.61-31.15,16.88-46.9,3.89-11.63,5.51-23.79,6-36.08a10.73,10.73,0,0,0-2.42-7.75c-3-3.59-5.49-7.5-8.33-11.18-1.68-2.2-3.59-4.23-5.74-6.73l13.05-20.53"/><path d="M158.93,504.79c.15-.33.51-1.17.87-2h.92c.49,2.17,1,4.34,1.46,6.51a63.9,63.9,0,0,0,1.82,7.82c14.81,41,29.49,82.09,44.63,123,9.24,25,19.34,49.63,28.75,74.55,2.22,5.87,5.25,8.45,11.78,7.62,9.59-1.22,18.31,2.17,26.56,6.76a22.14,22.14,0,0,1,3.64,2.46c4.95,4.25,4.12,10-2.14,11.81-13.43,4-27.88,1.9-38.45-9.47-1.92-2.07-3-4.3-2.13-7.33a6.5,6.5,0,0,0-.59-3.84c-9.79-24.76-20.08-49.33-29.37-74.27C192.11,609.23,178.2,569.83,164,530.52a41.35,41.35,0,0,0-2.87-7q-.63,6.16-1.25,12.33c-5.29,53.07-11.72,106-22.23,158.31-2,10-5.38,19.74-8.63,29.43a12.2,12.2,0,0,1-5.52,6c-7.45,4.06-15.56,4.82-23.85,3.07-3.1-.65-6-1.85-6.7-5.4a8.94,8.94,0,0,1,3.58-9.43,32.57,32.57,0,0,1,21.77-6.19c3.73.26,7.4,1.31,11.78,2.13,13.58-65,21.81-131.08,28.27-197.38l-1.08-.23c-1.87,2-3.5,4.32-5.66,5.94a33.71,33.71,0,0,1-8.82,5c-1.77.63-4.85.28-6-.92s-1.39-4.27-.72-6a28.43,28.43,0,0,1,5.11-8.33c2.43-2.82,5.48-5.11,8.55-7.88a55.77,55.77,0,0,0-5.15-3.71c-14.14-7.91-24.16-20.08-33.81-32.62-9.3-12.09-16.36-25.49-22.19-39.54a4.3,4.3,0,0,1,1-3.87c3.48-2.88,7.24-5.42,10.92-8.05,20.87-14.95,42.16-29.37,61.29-46.62a18.94,18.94,0,0,1,2.6-1.68l1,.84c-1.07,1.41-1.93,3.08-3.26,4.18-9,7.49-18,15.12-27.35,22.18-14,10.52-28.22,20.61-42.67,31.11,6.92,15.95,16.38,30.63,27.2,44.57S143.89,495.42,158.93,504.79Zm120.2,234c-4.84-8.54-24.67-15-36.42-12.32.38,4.76,3.28,7.57,7.23,9.67C259.26,741,268.91,740.84,279.13,738.75ZM114.75,716.27a25.84,25.84,0,0,0-16.37,4.55c-2.74,1.83-2.65,4,.11,5.75a11.15,11.15,0,0,0,3.35,1.43,31.7,31.7,0,0,0,20.42-2.14,9.78,9.78,0,0,0,3.46-2.62c2.29-2.71,1.54-5.25-1.89-6A85.75,85.75,0,0,0,114.75,716.27Zm40.46-207c-.49-1.29.22-4.73-2.82-3.13-5.55,2.92-10.26,7.13-12.9,13.05-1.52,3.4.13,5.2,3.81,4.54C149.2,522.69,155,515.82,155.21,509.29Z"/><path d="M233.63,284.33c4.73-3.62,9.69-7,14.17-10.92,13.26-11.62,20.09-26.45,21.3-44,.23-3.31-.88-4.58-4.28-5.21-18-3.35-35.91-7.41-52.94-14.51-14-5.85-26.76-13.64-37.39-24.67-18.13-18.81-21.62-40.49-9.91-63.95,10.28-20.59,26.62-35.44,46-47.16C232.67,60.56,257,54.21,282.44,51.37c31.89-3.55,63.9-5.87,95.95-3.66C411,50,443.16,54.88,473,69.15a132.21,132.21,0,0,1,25.76,16.69c35.27,28.62,30,69.92,2.55,95.71-14.71,13.81-32.24,22.84-51,29.7-25.79,9.43-52.54,14.5-79.81,16.7-14.85,1.2-29.8,1.2-44.71,1.91-1.38.07-3.41,1-3.95,2.17-5.7,11.84-14.51,20.91-25.33,27.94-15.74,10.23-32.42,18.66-50.71,23.43-3.9,1-8,1.35-12,2Zm11.77-3.87c21-6.66,40.83-15.19,57.81-29.08,7.19-5.87,13.7-12.71,16.7-21.9.94-2.87,2.39-3.58,5.25-3.57,21.55,0,43.06-.52,64.43-3.66,26.61-3.91,52.64-9.88,77.12-21.35,15.78-7.39,30.21-16.71,40.87-30.88,14.62-19.44,18.16-47.38-1.67-70.61C492.83,84.09,476.21,74,457.55,67.32c-32.09-11.55-65.5-16-99.41-16.77a600.32,600.32,0,0,0-69.27,2.52c-20,1.84-39.36,5.91-58,13.45-22.63,9.16-41.54,23.24-56.13,42.89a66,66,0,0,0-12.83,30c-2.59,17.61,4.51,31.54,16.5,43.51,12.82,12.8,28.39,21.34,45.48,26.65,14.44,4.48,29.32,7.55,44,11.11,2.19.53,3.59,1.2,3.58,3.68,0,3.78.59,7.63,0,11.3-2.17,13.34-7.51,25.24-17,35.05C251.5,273.82,248.64,277,245.4,280.46Z"/><path d="M324,303.38c2.66,1.21,5,2,7.05,3.24,5.84,3.43,6.09,8.85.74,13s-14.13,4.14-21.62-.24c-.56.87-1.17,1.73-1.69,2.64-6.1,10.74-11.81,21.72-18.39,32.16-5.78,9.17-12.5,17.75-18.89,26.54a3.81,3.81,0,0,1-2.63,1.49c-28.23-.55-55.78-4.62-81.87-16.1a12.65,12.65,0,0,1-1.89-1.26c.77-3.21,2.79-2.25,4.79-1.67,12.56,3.58,25,7.9,37.74,10.46,12.54,2.52,25.44,3.22,38.18,4.76a5.93,5.93,0,0,0,6.22-2.81c4.72-7,10-13.59,14.3-20.82,9.92-16.7,20.3-33.22,26.95-51.61,2.66-7.34,4.59-14.94,6.91-22.4a26.59,26.59,0,0,1,9.36-13.3c1.54-1.19,3.93-1.28,5.93-1.88.34,1.83,1.39,3.88.91,5.46-2.35,7.68-5,15.27-7.77,22.83C327.13,297.08,325.47,300.1,324,303.38Zm8.67-33.76-1-.56c-1.24,1.09-2.89,1.95-3.66,3.31a77.33,77.33,0,0,0-5.94,12c-3.17,8.95-6,18-8.63,27.17a5.54,5.54,0,0,0,1.27,4.63c3.81,3.58,8.55,3.23,13.11,1.84,1.51-.46,3.49-2.05,3.68-3.35s-1.19-3.45-2.49-4.35c-2-1.42-4.58-2.16-6.94-3.11a31.44,31.44,0,0,0-3.11-.92C324.2,294,331.36,282.88,332.63,269.62Z"/><path d="M134.14,183.3c11.5-4.71,27.12,2.12,30.6,12.74.32,1-.21,2.22-.35,3.34-1-.51-2.31-.78-2.84-1.58C155.27,188.3,146.46,183.48,134.14,183.3Z"/><path class="cls-1" d="M279.13,738.75c-10.22,2.09-19.87,2.29-29.19-2.65-3.95-2.1-6.85-4.91-7.23-9.67C254.46,723.71,274.29,730.21,279.13,738.75Z"/><path class="cls-1" d="M114.75,716.27a85.75,85.75,0,0,1,9.08,1c3.43.71,4.18,3.25,1.89,6a9.78,9.78,0,0,1-3.46,2.62A31.7,31.7,0,0,1,101.84,728a11.15,11.15,0,0,1-3.35-1.43c-2.76-1.78-2.85-3.92-.11-5.75A25.84,25.84,0,0,1,114.75,716.27Z"/><path class="cls-1" d="M155.21,509.29c-.24,6.53-6,13.4-11.91,14.46-3.68.66-5.33-1.14-3.81-4.54,2.64-5.92,7.35-10.13,12.9-13.05C155.43,504.56,154.72,508,155.21,509.29Z"/><path class="cls-1" d="M332.63,269.62c-1.27,13.26-8.43,24.41-13.67,36.7a31.44,31.44,0,0,1,3.11.92c2.36.95,4.9,1.69,6.94,3.11,1.3.9,2.69,3,2.49,4.35s-2.17,2.89-3.68,3.35c-4.56,1.39-9.3,1.74-13.11-1.84a5.54,5.54,0,0,1-1.27-4.63c2.67-9.12,5.46-18.22,8.63-27.17a77.33,77.33,0,0,1,5.94-12c.77-1.36,2.42-2.22,3.66-3.31Z"/><path d="M197.29,292.24c-.66,1.62-.91,3.67-2.06,4.76a34.16,34.16,0,0,1-8.39,6.34c-16.09,7.57-32.65,7.53-49.22,1.8-6.17-2.13-11.31-6-13.39-12.6-.48-1.53,0-3.37,0-5.06l1.48-.38a11.44,11.44,0,0,1,.62,1.33c3.47,10.19,11.92,13.72,21.35,15.6,12.59,2.52,25.05,2.22,37-3.1,4.17-1.85,8.16-4,10.18-8.46.16-.36.73-.54,1.11-.8Z"/><path d="M176.89,251.49c.12-8.56,6.89-9.83,13.3-8.13,1.25.33,2.63,2.86,2.7,4.43.24,5.31-6.86,11.08-12.11,10.14C177.66,257.37,176.78,255.11,176.89,251.49Z"/><path d="M147.94,248.22c.72,5.21-8.44,9-12.06,7.53a2.34,2.34,0,0,1-.89-.63c-2.29-2.63-2.3-5.55-.84-8.5,2-4.07,5.8-6,9.53-5.08C147.22,242.45,148,245.1,147.94,248.22Z"/><path d="M183.26,232.79a9,9,0,0,1,11-.72c2.06,1.23,4.45,2.73,3.49,6.66C193.22,235.54,189.06,232.14,183.26,232.79Z"/><path d="M126.93,240.09c1.54-4.72,5-7.42,9.74-7.43Z"/></g><path class="cls-2" d="M226.47,126.51v10.65l9.42-5.35Z"/><path class="cls-2" d="M226.47,139.39v10.74l9.5-5.36Z"/><path class="cls-1" d="M225.11,137.11V126.6l-9.3,5.24Z"/><path class="cls-1" d="M206.43,150.07a22.69,22.69,0,0,0,7.22,7.14V146Z"/><path class="cls-1" d="M225.11,150.07V139.48l-9.33,5.29Z"/><path class="cls-2" d="M215,156.54l9.44-5.3L215,145.89Z"/><path class="cls-1" d="M236.63,156.6V146l-9.44,5.29Z"/><path class="cls-1" d="M245.87,148.85a21.67,21.67,0,0,0,2.68-9.57l-9.84,5.52Z"/><path class="cls-2" d="M238,143.66l9.5-5.32L238,133Z"/><path class="cls-1" d="M236.63,130.7V120.13l-9.39,5.27Z"/><path class="cls-1" d="M236.63,143.6V133l-9.42,5.33Z"/><path class="cls-2" d="M215,132.93v10.76l9.49-5.41Z"/><path class="cls-1" d="M225.11,116a22.7,22.7,0,0,0-10,2.59l10,5.63Z"/><path class="cls-2" d="M215,120.05v10.7l9.49-5.35Z"/><path class="cls-1" d="M213.65,119.41a22.36,22.36,0,0,0-7.22,7.13l7.22,4.1V119.41Z"/><path class="cls-2" d="M236.57,118.63a23,23,0,0,0-10.1-2.65v8.3Z"/><path class="cls-2" d="M203,139.09a21.73,21.73,0,0,0,2.73,9.84l7.31-4.16Z"/><path class="cls-2" d="M205.74,127.68A22,22,0,0,0,203,137.5l10-5.66-7.34-4.16Z"/><path class="cls-1" d="M215.1,158a22.83,22.83,0,0,0,10,2.59v-8.22l-10,5.6Z"/><path class="cls-2" d="M245.16,126.57a22.74,22.74,0,0,0-7.17-7.11v11.18Z"/><path class="cls-2" d="M238,157.18a22.39,22.39,0,0,0,7.2-7.16L238,146v11.23Z"/><path class="cls-1" d="M248.57,137.41a21.89,21.89,0,0,0-2.7-9.7l-7.26,4.1Z"/><path class="cls-2" d="M226.47,160.64a23,23,0,0,0,10-2.59l-10-5.69Z"/><path class="cls-1" d="M213.65,143.58V133l-9.32,5.24Z"/><path class="cls-3" d="M394.8,129.7v22.48h25.68v-5.37h-20.3v-5.27h15.63v-5.37H400.18V130.9h20.3v-5.37H394.8Z"/><path class="cls-3" d="M295.76,129.7v22.48h25.78v-5.37h-20.3v-5.27h15.63v-5.37H301.24V130.9h20.3v-5.37H295.76Z"/><path class="cls-3" d="M357.15,145.22a5.91,5.91,0,0,1-.6,2.69,7.09,7.09,0,0,1-1.53,2.18,8.72,8.72,0,0,1-2.23,1.5,6.94,6.94,0,0,1-2.74.59H324.68v-5.57h25.37a1.35,1.35,0,0,0,1-.39,1.28,1.28,0,0,0,.4-1V143a1.26,1.26,0,0,0-.4-1,1.33,1.33,0,0,0-1-.4H331.79a6.1,6.1,0,0,1-2.74-.6,7.18,7.18,0,0,1-2.24-1.49,8.56,8.56,0,0,1-1.52-2.19,5.75,5.75,0,0,1-.61-2.68v-2.19a5.79,5.79,0,0,1,.61-2.69,8.74,8.74,0,0,1,1.52-2.19,8.84,8.84,0,0,1,2.24-1.49,6.09,6.09,0,0,1,2.74-.59h25.36v5.67H331.79a1.37,1.37,0,0,0-1.43,1.39v2.19a1.29,1.29,0,0,0,.41,1,1.31,1.31,0,0,0,1,.4h18.26a6.1,6.1,0,0,1,2.74.6,7.24,7.24,0,0,1,3.76,3.68,6.51,6.51,0,0,1,.6,2.68Z"/><path class="cls-3" d="M391.35,152.18h-5.17V141.74H366v10.44h-5.17V136.07h25.37V125.53h5.17ZM366,133.58h-5.17v-8H366Z"/><path class="cls-3" d="M465.23,134.88l-6.8-9.35h-6.8l10.86,16v10.64H468V141.54l10.86-16h-6.7Z"/><path class="cls-3" d="M429.71,130.6h13.9v5.67H432.45v5.07H435l9.84,10.94h6.7l-9.85-10.94h3.86a4.24,4.24,0,0,0,4.26-4.18V129.7a4.24,4.24,0,0,0-4.26-4.17H424.43v26.55h5.38Z"/><path class="cls-3" d="M291.09,130a7.31,7.31,0,0,0-6.8-4.37H257.71v26.65h5.78V131.2c7.92,0,21.11-.1,21.41.09,2-.59.61,20.1,1,20.79h5.78C291.4,150.29,292.21,131.2,291.09,130Z"/><path class="cls-3" d="M277.6,134.18h-5.79v18h5.79Z"/></svg>