<svg id="Layer_1" data-name="Layer 1" xmlns="http://www.w3.org/2000/svg" viewBox="0 0 612 792"><defs><style>.cls-1{fill:#050505;}.cls-2{fill:#0a0a0a;}.cls-3{fill:#0b0b0b;}.cls-4{fill:#101010;}.cls-5{fill:#080808;}.cls-6{fill:#00b39f;}.cls-7{fill:#151515;}.cls-8{fill:#1c1c1c;}.cls-9{fill:#191919;}.cls-10{fill:#333;}.cls-11{fill:#474747;}.cls-12{fill:#090909;}.cls-13{fill:#00d3a9;}</style></defs><g id="Stickie_-_11" data-name="Stickie - 11"><path class="cls-1" d="M263.94,549.47a463.35,463.35,0,0,0,8.58-84.39c.07-13.13.34-26.28-1-40.35-8.15,8.64-16.08,16.6-26.11,21.93-1,.12-1.38-.33-1.32-1.27,8.89-6.06,17.39-12.54,24.36-20.88,1.93-2.31,3-4.57,2.62-7.61-.49-3.8-.78-7.63-1.12-11.44-.2-2.36-1.13-3.37-3.78-3.6A58.58,58.58,0,0,1,228.59,384c-7.09-7.18-10.63-15.91-11.07-26.15-.67-15.74,3.33-29.8,13.28-42.11,6-7.41,14.11-11.12,23.07-13.41,1.81-.26,2.13,1,2.33,2.32-.49,2-2.11,2.4-3.79,2.65-9.38,1.42-16.06,6.78-21.23,14.41-7.84,11.56-10.27,24.42-8.79,38.05,1.29,11.88,8,20.52,17.59,27.11,12.68,8.69,26.52,12.37,41.84,9.44,1.61-.3,3.26-.84,4.84.18.95.64,1.68,1.37,1.13,2.65-4.09,2-8.54,2.53-13,2.82-2.1.13-2.61.79-2.33,2.77.61,4.43,1.13,8.88,1.53,13.33a5.66,5.66,0,0,0,2.39,4.14,102.54,102.54,0,0,0,12.26,8.54A409.42,409.42,0,0,0,326.45,451c10,4.59,20,6.3,31.17,3.76,16.45-3.74,32.87-7.3,48.91-12.67a54,54,0,0,0,19.67-12,11.6,11.6,0,0,1,8.65-3.31c3.1.1,5.63,1.22,6.8,4.1s-.34,5.46-2.46,7.52c-5.34,5.17-14.45,6.33-21.47,2.67-1.2-.63-2,.08-2.84.42-20.91,8.2-42.57,13.45-64.71,17.07a35.8,35.8,0,0,1-19.49-2.28c-18.62-7.38-35.74-17.53-52.35-28.6-1-.69-1.83-1.77-3.65-2,.17,3.76.36,7.39.49,11a500.48,500.48,0,0,1-6.42,101.63c-.79,4.66,1.33,8.47,2.25,12.64.35.71.43,1.46-.31,1.88-.95.52-1.56-.08-2-.92-.27-.57-.54-1.13-.79-1.71s-.3-1.75-1.17-1.59c-.49.09-.8,1.15-1.19,1.78C264.63,550.78,263.83,551,263.94,549.47Z"/><path class="cls-1" d="M262.56,559c-4.63,14.34-10.41,28.26-15.84,42.3-3.54,9.17-6.89,18.45-11.07,27.33-6,12.71-6.61,26.42-8.46,39.9-3.29,24.08-3.7,48.41-6.06,72.58-.46,4.77-2.29,7.78-7,9.31a68.83,68.83,0,0,1-22.2,3.69c-1.66,0-3.46,0-4.27-1.89s.35-3.49,1.59-4.77c4-4.11,9.25-5.24,14.62-5.89a29.87,29.87,0,0,1,11.41.7c2.34.62,3.14-.15,3.3-2.56,1-14.15,2.19-28.28,3.07-42.44,1.15-18.39,4.16-36.55,6.49-54.8.49-3.82,2.38-7.27,3.8-10.82,9.92-24.91,20.17-49.68,29.1-75a4.07,4.07,0,0,1,.66-.93C263.78,556.37,262.68,557.81,262.56,559Z"/><path class="cls-1" d="M255.55,304.67l-1.68-2.35a40.25,40.25,0,0,1,15.88-3.77c4.14,0,8-1.39,12.08-1.95a158.84,158.84,0,0,1,38.24-.24,5.92,5.92,0,0,1,4.32,2.16c-14.21.51-27.7-2.06-42.1.63,5.3,1.54,9.27,4,14.12,4.11a69.17,69.17,0,0,1,20,3.28c1.32.44,3.7.72,3.18,2.53-.62,2.15-2.59.66-3.91.24a68,68,0,0,0-17-3.28c2.61,2.05,4.39,3.41,6.12,4.82,16.08,13.09,23,35.32,16.91,54.13-.39,1.2-1,2.32-1.5,3.48a1.75,1.75,0,0,1-2.28,0c-1.44-1.42-.9-3.05-.47-4.67,6.77-25.24-9.43-53.06-37.58-59.67a44.39,44.39,0,0,0-15.6-.73,8.53,8.53,0,0,0-4.63,1.55C258.34,305.86,256.8,306.35,255.55,304.67Z"/><path class="cls-1" d="M233.28,454.35a261,261,0,0,1-38.13,19.54c-2.07.88-3.37.06-4.76-1.22a52.05,52.05,0,0,1-12.33-17.4c-4.09-9.23-7.92-18.56-10.48-28.36-.29-1.11-.31-2.26-1.89-2.43-3-.33-4.23-2.72-5.13-5.13a50.31,50.31,0,0,1-3.22-22.57c.21-2.17.76-4.13,2.94-5,2.38-.94,4.28.34,5.79,2,4.5,4.85,6,11,6.36,17.27.26,4.14.49,8.5-2.42,12.12a2.23,2.23,0,0,0-.13,2.21c5.56,14.51,9.61,29.75,20.15,41.86,4.11,4.72,4.16,4.73,9.95,2.21,11.14-4.85,21.58-11.06,32.29-16.74C233.65,452.61,233.82,453.27,233.28,454.35Z"/><path class="cls-1" d="M301.57,662.42c4.76,15.25,8.25,30.82,11.53,46.44,2.38,11.38,4.94,22.71,7.29,34.1.57,2.76,1.63,3.41,4.44,2.72a61.69,61.69,0,0,1,20.19-1.2c2,.17,4.52.35,4.7,3s-2.24,3.24-4.22,3.66a53.25,53.25,0,0,1-19.81.64c-4.37-.72-7.15-3.25-8.24-7.8-4.92-20.62-8.28-41.59-13.59-62.13-1.37-5.31-2.62-10.65-3.92-16C299.69,664.32,299.44,662.8,301.57,662.42Z"/><path class="cls-1" d="M273.25,557.23c5.07,12.95,8.77,26.35,12.56,39.71q7.05,24.84,12.77,50c.42.9.75,1.91-.25,2.52s-1.48-.43-2.16-.86q-5.48-20.86-10.94-41.75c-4.29-16.39-9.32-32.56-14.38-48.73-.38-.68-.53-1.43.27-1.81S272.6,556.77,273.25,557.23Z"/><path class="cls-2" d="M248.36,206.5c.89-.08,1.07-.16,1.14-.1,10.44,9.24,22.52,6.67,34.48,4.74,5.62-.91,10.94-3.09,16.62-4.87-.35,2.22-1.91,2.54-3.08,3-11.75,4.76-23.86,7.43-36.61,5.64C255.59,214.17,251,212.24,248.36,206.5Z"/><path class="cls-1" d="M318.41,367.47l1.73,1c-6.05,15.21-16.43,25.86-32.35,30.67l-1.7-1.63c-.4-2.13,1.31-2.61,2.67-3.1,12.45-4.48,21-13,26.51-24.91C315.89,368.16,316.6,367,318.41,367.47Z"/><path class="cls-3" d="M244.18,250.13c-1.81-15.28-3.63-30.56-5.5-46.33,3.67,3.37,6.12,18.58,6.24,36.26.59,2.95.15,5.92.25,8.88C245.19,249.59,245.05,250.18,244.18,250.13Z"/><path class="cls-4" d="M268.53,283.83c-2.7-7.57-3.88-45.32-1.61-49.68C268.54,250.69,267.4,267.33,268.53,283.83Z"/><path class="cls-5" d="M248.84,94.26c2.68-3.16,6.33-3.85,9.92-4.25a79,79,0,0,1,31.81,2.8c.61.18,1.21.4,1.8.64s1.66.55,1.45,1.46c-.27,1.22-1.25.88-2.16.67-4-.94-8-1.86-11.94-2.7-9.91-2.07-19.75-2.15-29.45,1.18A7.58,7.58,0,0,1,248.84,94.26Z"/><path class="cls-6" d="M301.55,238.5c.08-12.36,3.11-24.2,6.78-35.92C307.66,214.83,304.15,226.57,301.55,238.5Z"/><path class="cls-6" d="M271.57,234.34c1.91,12.94,1.27,26,1.22,39A159.82,159.82,0,0,1,271.57,234.34Z"/><path class="cls-7" d="M286.91,248.37a100.29,100.29,0,0,1,2.35-21.76,148.44,148.44,0,0,1-1.6,30.45C285.5,254.33,287,251.28,286.91,248.37Z"/><path class="cls-1" d="M149.7,392.54a64,64,0,0,0-.66,24.93C144.58,412.7,144.92,398.64,149.7,392.54Z"/><path class="cls-1" d="M296.17,648.62c1-.32,2.49.18,2.41-1.66,1.85,5,1.82,10.34,3,15.46a7.56,7.56,0,0,0-1.63,3.41C298,660.24,297.23,654.4,296.17,648.62Z"/><path class="cls-8" d="M248.11,297.67c8.87-4,18.06-6.26,27.9-4.9C266.61,293.85,257.4,295.93,248.11,297.67Z"/><path class="cls-6" d="M282.84,84.89c-7.62-.35-15.19-1.49-23.45-1.14C263.26,80.69,276.58,81.36,282.84,84.89Z"/><path class="cls-1" d="M453,441.58a28.34,28.34,0,0,0,.42-7.64c-.34-2.67-.76-5.3-2.52-7.51-.43-.54-1.16-1.24-.26-1.91a1.56,1.56,0,0,1,1.78.21C456.12,427.08,456.74,438.07,453,441.58Z"/><path class="cls-1" d="M464.37,433.08c3.49,6.07,1.52,16-4.19,19.59C464.43,446.36,463.68,439.92,464.37,433.08Z"/><path class="cls-5" d="M243.16,59.74a41.74,41.74,0,0,1-1,17.44C241.71,71.32,241.32,65.48,243.16,59.74Z"/><path class="cls-1" d="M233.28,454.35l-1-1.65,11.83-7.31,1.32,1.27A56.36,56.36,0,0,1,233.28,454.35Z"/><path class="cls-9" d="M276.26,222c-5.44,2.72-12.41,2.86-16.1,0Z"/><path class="cls-5" d="M309.39,96.61,307.71,75.5l1.07-.1c2,6.1,1,12.53,1.42,18.81C310.2,95.1,311.21,96.34,309.39,96.61Z"/><path class="cls-5" d="M278.4,55.63V37.89a48.59,48.59,0,0,1,.94,17.81Z"/><path class="cls-1" d="M273.25,557.23c-.73.49-2-.42-2.4.91q-1.08-3.14-2.14-6.27a1.47,1.47,0,0,0,2.29-1A17.16,17.16,0,0,1,273.25,557.23Z"/><path class="cls-1" d="M262.56,559l-.82-3.27a21.52,21.52,0,0,1,2.2-6.26l1.62.88A34,34,0,0,1,262.56,559Z"/><path class="cls-10" d="M286.91,248.37c.6,2.87-.51,5.88.75,8.69-.2,1.88-.41,3.77-.61,5.65A41.37,41.37,0,0,1,286.91,248.37Z"/><path class="cls-11" d="M244.18,250.13c1.43-3.27,0-6.75.74-10.07.91,4.39.63,8.81.71,13.85A3.79,3.79,0,0,1,244.18,250.13Z"/><path class="cls-5" d="M309.39,96.61l.81-2.4a12.6,12.6,0,0,1,.21,7C308.85,99.54,309.33,98,309.39,96.61Z"/><path class="cls-6" d="M425.22,440.83a15.75,15.75,0,0,1-2.45-.24c-2.83-.6-3.44-2.18-1.42-4.22a27.11,27.11,0,0,1,11.78-6.87,4.57,4.57,0,0,1,5.7,2.7c1.05,2.35-.1,4.22-2.13,5.52A20.88,20.88,0,0,1,425.22,440.83Z"/><path class="cls-6" d="M217.87,746.46c-8.14,3.31-16.15,5.52-24.73,5.06-1.11-.06-2.61.13-2.94-1.2s1-2.28,2.07-2.9a28.34,28.34,0,0,1,22.49-2.65A4.29,4.29,0,0,1,217.87,746.46Z"/><path class="cls-6" d="M169.64,414c0,1.41.08,2.82,0,4.22-.11,1.57-.52,3.23-2.28,3.61s-2.76-1-3.46-2.46c-2.41-4.88-3.42-10.15-4.22-15.47a49.9,49.9,0,0,1-.46-5.74c-.05-1.36-.49-3.24.93-3.85,1.76-.76,3.1.79,4.13,2.08,3.27,4.14,4.69,9,5.35,14.16a26.47,26.47,0,0,1,0,3.45Z"/><path class="cls-6" d="M346.64,748.05c-7.41,2.08-14.79,2.68-22.17.17C331.86,746.64,339.25,745.35,346.64,748.05Z"/><path class="cls-12" d="M241.35,359.32c11.19-.87,21.69-1.29,31.85-3.92s20.16-6,29.53-12.72c-.56,3.59-2.76,4.55-4.59,5.62-9.57,5.6-20,8.79-30.84,10.9a116.38,116.38,0,0,1-20.14,2.06C245.47,361.29,243.61,361.69,241.35,359.32Z"/><path class="cls-12" d="M276.23,326c-.27-4,.42-7.08,4.14-8.63,2.58-1.07,4.21-.28,5,2.33a17.55,17.55,0,0,1,0,8.7c-.52,2.33-1.68,4.66-4.4,4.5s-4.49-2.16-4.71-5.1C276.18,327,276.23,326.25,276.23,326Z"/><path class="cls-12" d="M263.91,323.8a10,10,0,0,1-2.67,7.33,4.06,4.06,0,0,1-4.52,1.18c-1.53-.49-2-1.81-2.23-3.26a13.85,13.85,0,0,1,.69-6.76c1-2.67,2.74-5,5.84-4.41S263.82,321.38,263.91,323.8Z"/><path class="cls-13" d="M272.87,124v23.86l21.1-12Z"/><path class="cls-13" d="M272.87,152.83v24.06l21.29-12Z"/><path class="cls-6" d="M269.82,147.71V124.16L249,135.9Z"/><path class="cls-6" d="M228,176.76a50.77,50.77,0,0,0,16.19,16V167.58Z"/><path class="cls-6" d="M269.82,176.76V153l-20.91,11.87Z"/><path class="cls-13" d="M247.18,191.26l21.16-11.88-21.16-12Z"/><path class="cls-6" d="M295.64,191.38V167.51l-21.16,11.88Z"/><path class="cls-6" d="M316.36,174a48.83,48.83,0,0,0,6-21.43L300.29,165Z"/><path class="cls-13" d="M298.69,162.39,320,150.46l-21.28-11.93Z"/><path class="cls-6" d="M295.63,133.34V109.66l-21,11.81Z"/><path class="cls-6" d="M295.63,162.27V138.4l-21.1,11.93Z"/><path class="cls-13" d="M247.18,138.34v24.11l21.28-12.12Z"/><path class="cls-6" d="M269.82,100.35a51.17,51.17,0,0,0-22.43,5.81l22.43,12.62Z"/><path class="cls-13" d="M247.18,109.47v24l21.28-12Z"/><path class="cls-6" d="M244.15,108A50.17,50.17,0,0,0,228,124l16.19,9.18V108Z"/><path class="cls-13" d="M295.5,106.29a51.8,51.8,0,0,0-22.63-5.94V119Z"/><path class="cls-13" d="M220.3,152.15a48.74,48.74,0,0,0,6.11,22l16.38-9.31Z"/><path class="cls-13" d="M226.41,126.59a49.26,49.26,0,0,0-6.11,22l22.49-12.68-16.44-9.31Z"/><path class="cls-6" d="M247.39,194.57a51.17,51.17,0,0,0,22.43,5.81V182L247.39,194.5Z"/><path class="cls-13" d="M314.75,124.09a51,51,0,0,0-16.06-15.93v25.05Z"/><path class="cls-13" d="M298.69,192.69a50.33,50.33,0,0,0,16.12-16.05l-16.12-9.13v25.18Z"/><path class="cls-6" d="M322.39,148.4a49.21,49.21,0,0,0-6.05-21.75l-16.26,9.19Z"/><path class="cls-13" d="M272.87,200.44a51.21,51.21,0,0,0,22.44-5.81l-22.44-12.75Z"/><path class="cls-6" d="M244.15,162.2V138.59l-20.91,11.74Z"/></g></svg>