<svg xmlns="http://www.w3.org/2000/svg" viewBox="0 0 442.24 721.41"><defs><style>.cls-1{fill:#ba8c63;}.cls-2{fill:#3c494f;}.cls-3{fill:#00b39f;}.cls-4{fill:#00d3a9;}</style></defs><g id="Layer_2" data-name="Layer 2"><g id="Layer_1-2" data-name="Layer 1"><polygon class="cls-1" points="255.83 46.42 254.29 276.53 262.8 274.68 264.58 45.01 255.83 46.42"/><polygon class="cls-1" points="407.42 42.81 407.74 278.6 416.74 278.6 416.99 42.81 407.42 42.81"/><polygon class="cls-2" points="245.81 276.87 245.77 305.45 423.97 305.45 425.27 277.65 245.81 276.87"/><polygon class="cls-2" points="240.76 16.75 242.16 42.81 430.33 38.09 429.82 15.75 240.76 16.75"/><path d="M120.86,397.22c-1.82,1.32-3,2.33-4.32,3.12-7.24,4.38-15.85-.13-16-8.61a151.29,151.29,0,0,1,1-15.15c.28-3.28-.62-4.9-4.24-6C66.26,361.44,35.22,352.2,6,338c-1.84-.89-3.63-1.88-6-3.1,2.05-3,3.74-5.7,5.7-8.22q35-45,70.06-89.95C83,227.34,90,217.76,97.11,208.31a11.67,11.67,0,0,0,2.26-9.89c-1.06-5.45-1.62-11-2.34-16.1-9.06-.78-17.88-.71-26.33-2.44-21.19-4.31-39.17-14.63-52.78-31.66-8.44-10.56-12.36-22.74-12.8-36.48-.65-20.24,3.33-39,14.27-56.17,8.32-13,19.19-22.85,34.29-27.43Q66.36,24.3,79,20.21a82.6,82.6,0,0,0,10.15-3.94A134.07,134.07,0,0,1,127,4.66a19,19,0,0,1,3.11-.17c.32,0,.65.32,2.16,1.14a38,38,0,0,1-5.18,2.46C116.73,11,106.33,13.82,96,16.74a44.44,44.44,0,0,0-5.2,2.32c1.91.35,2.81.6,3.72.67,2,.13,4-.26,5.83.32,8.78,2.89,17,.75,25.38-1.9,7.49-2.37,15.34-3.59,23-5.32l.5,1.89-31.5,9.35c3.7,2,6.64,3.57,9.57,5.18,23,12.65,37.58,31.69,42.9,57.47,8.21,39.7-18.47,75.68-45.15,86.91a189.48,189.48,0,0,1-20.66,6.88c-2.53.73-3.52,1.64-3,4.26.89,4.86,1.58,9.76,2.45,14.62a6.16,6.16,0,0,0,1.21,2.82c15.83,18.64,31.83,37.15,47.56,55.87,15.18,18.06,30.78,35.71,49,50.77a18.74,18.74,0,0,0,7.81,3.89c23.14,4.68,46.58,4.25,70,3.57,1.56-.05,3.12-.27,4.67-.28,8.42-.06,16.54-1.14,23.31-7-1-.05-2.24-.15-3.44-.16-19-.24-38-.53-57-.63-3,0-4.15-.92-4.19-3.95-.08-7.94-.49-15.88-.58-23.82-.07-6.12.53-6.58,6.71-6.57h3.74V45.33l-12.41.82a8.39,8.39,0,0,1-.56-2.41c-.26-7.94-.35-15.88-.63-23.81-.12-3.38.94-4.81,4.65-4.85,40.75-.43,81.49-1,122.24-1.55,18.36-.23,36.71-.38,55.07-.56a40.9,40.9,0,0,1,4.29.06c5.5.52,6.29,1.32,6.52,6.68.26,6.12.54,12.23.6,18.35,0,4.1-.32,3.95-4.21,3a18.43,18.43,0,0,0-7.7.33c-.66.13-1.28,2.29-1.3,3.53-.24,16.66-.48,33.33-.51,50q-.17,88.47-.2,176.94v5.23l8.48.68c0,2,0,3.9,0,5.8-.15,6.37-.54,12.75-.44,19.13.06,3.93-1.13,5.47-5.3,5.51-18.09.21-36.18.76-54.27,1.12-5.2.11-10.4,0-15.69,0,2.18,5.57.54,9.06-5.88,11.77-9.08,3.83-18.71,4.26-28.39,3.73-6.28-.34-12.29-1.51-17.77-5.13-1.64-1.08-4.48-.49-6.77-.47-20.29.18-40.58.81-60.86.41-8.89-.17-17.78-2.26-26.6-3.85a14.61,14.61,0,0,1-6.33-3.42c-33.44-28.51-59-64.09-87.06-97.4a35.69,35.69,0,0,0-5.58-5.84c.14,1.56.18,3.14.43,4.69C117.52,282.8,125,352.1,126.3,422a23.48,23.48,0,0,0,.66,5c14.17,58.13,31,115.52,48,172.88Q190.89,653.93,207,708a19.22,19.22,0,0,0,.77,1.84c11.3-3.59,22.91-2.07,34.39-1.47,6,.31,11.95,2.19,17.81,3.78,1.54.42,2.65,2.42,4,3.69a58,58,0,0,1-4.28,4.17,4.2,4.2,0,0,1-2.6.61c-13.77-.48-27.55-.75-41.3-1.64-7.19-.46-11.85-4.21-14-11.81-21.66-75.35-43.64-150.61-65.38-225.93-3.27-11.34-5.74-22.91-9.14-34.38-.2,3.24-.59,6.49-.57,9.73.16,45.5-5.14,90.69-7.73,136-1.91,33.53-3.39,67.08-5,100.62-.27,5.6-.69,11.21-.47,16.78.17,4.35-1.87,6.28-5.65,6.93-7,1.23-14.07,2.7-21.17,3.34-8.8.8-17.66,1-26.5,1.15-3.29.06-7.91.28-8.67-3.49-.82-4.1,3.79-5.4,6.89-6.72,10.81-4.59,22.17-5.4,33.71-4.24,5.53.56,11,1.46,17,2.26.11-1.81.27-3.58.3-5.35,1-53.52,4.68-106.9,9.18-160.21a1118.41,1118.41,0,0,0,2.66-142C121.12,400.34,121,399.07,120.86,397.22ZM69.78,27.72l0,1a47.85,47.85,0,0,1-5.64,1c-18,1.12-30.91,10.4-40.53,25C12.91,70.92,8.88,88.84,9.11,108.1c.2,16.36,5.72,30.41,17.17,41.83,20.67,20.61,45.79,30.16,74.86,26.66,44.51-5.35,75.2-47.25,62.87-94.08-9-34.05-46.46-64.25-87.42-58.2-3.48.51-7,1.12-11.5,1.85ZM270.31,274.23c1.46.19,2.19.35,2.93.37q59.92,1,119.85,2c4.92.08,5.3-.33,4.27-5.13-3-13.9-6.94-27.47-13.52-40.16a198,198,0,0,0-32.12-44.95c-10.68-11.31-13.59-24.26-8.44-38.85a25.24,25.24,0,0,1,5.29-8.91c18.23-19,31.43-41.06,40.71-65.51C393,63.23,395.91,53,399.5,42L272.21,44.78a41.29,41.29,0,0,0,.63,5.37C276.35,63.52,281,76.5,287.91,88.5a202.12,202.12,0,0,0,38.23,47.12C332,141,336,147,334.63,155.41a37.15,37.15,0,0,0-.15,5.07,28.43,28.43,0,0,1-9.14,20.45c-19.78,18.91-34.38,41.34-45,66.4C276.64,256,273.71,265,270.31,274.23ZM101.2,208.56,4.29,333.42a23.6,23.6,0,0,0,2.13,1.23c29.94,13.11,61,23,92.34,32a11.09,11.09,0,0,0,4.58.53c5.76-.92,11.29-1,16.66,3.58C116.69,315.91,110,262.27,101.2,208.56Zm163.38,65.93c3.11-1.17,3.12-1.16,4.64-6.1,9.87-32.23,25.58-61.06,49.26-85.33a70.41,70.41,0,0,0,8.29-10.33c6.48-9.81,4.68-25.15-3.72-33.24-13.35-12.87-25.48-26.76-35.22-42.61A133.42,133.42,0,0,1,269.3,48.79c-.27-1.6.59-4.33-2.39-3.68-.93.21-1.4,2.64-2,4.08a3.26,3.26,0,0,0,0,1.17q-.15,100.74-.29,201.48C264.57,259.24,264.58,266.63,264.58,274.49ZM405.9,42.11c-3.46-1.25-3.84.77-4.45,2.7C397.71,56.58,394.5,68.55,390,80a182.25,182.25,0,0,1-37.37,59c-7,7.44-9.77,16.21-8.23,26.16,1.1,7.12,5.86,12.34,10.5,17.48,18.84,20.92,34.46,43.77,42.14,71.24,2.05,7.32,3.06,14.93,4.59,22.62h4.25ZM424,280.46l-178.16-3.59c0,8.4.08,16.07,0,23.74-.05,3.45,1.15,4.56,4.76,4.56,28.51,0,57,.28,85.52.28,27.33,0,54.66-.29,82-.3,3.86,0,5.75-1,5.4-5.21a98.66,98.66,0,0,1-.11-10.88C423.4,286.24,423.73,283.43,424,280.46Zm4.55-263.71h-187c.12,1.88.2,3.25.33,5.29l2-3.31.72.16v14l-.67.17c-.4-.79-.8-1.57-1.19-2.36l-.58.19c.29,3.9.58,7.8.89,11.94l43.09-1.25c0-.51,0-1,0-1.52h-27l.06-1.66H349l0,.23-14.6,1.12a5.12,5.12,0,0,0,2.35.45q33.56-1,67.13-2.13c.89,0,1.76-.44,2.65-.51a12.79,12.79,0,0,1,3.39.1c2.11.44,4.21,1.23,5.71-1.68H379.27a9.52,9.52,0,0,1,1.88-.88c11.05-.4,22.1-.81,33.15-1.12,1.11,0,2.81.24,3.27,1,3,4.78,7.06,1.78,10.95,2.37ZM415,69.53,413.57,69c-1.23,3.41-3.51,6.81-3.54,10.23q-.72,96.6-.95,193.2c0,1.38.13,2.75.2,4.28H415ZM261.27,50.37A21.88,21.88,0,0,0,255.86,65c.15,58.2,0,116.4,0,174.6q0,15.82.13,31.64c0,2.89,1.86,4.25,4.13,2.84.92-.56,1.32-2.57,1.32-3.92q0-76.95-.13-153.89Q261.25,83.32,261.27,50.37Zm42.81,267.48c12,6.06,38.29,4.27,45.3-3.74-3.37-1.27-6.32-2.78-9.46-3.48-10.51-2.35-20.87-.66-31.18,1.67C305.71,313,303.79,314.25,304.08,317.85ZM103.41,386.29c0,.94,0,2.11,0,3.28.11,4.09,4.59,9,8.21,9.11,4,.06,8.9-4.66,8.65-9-.22-3.85-.55-7.93-2.06-11.37a17.31,17.31,0,0,0-6.64-7.18c-3.64-2.23-6.21-.6-6.85,3.64C104.16,378.54,103.85,382.3,103.41,386.29ZM55.07,716.5c17.35,2.93,34.36.68,51.25-3.4C89,709.93,71.63,707.38,55.07,716.5ZM210.3,713c15.7,5,31.73,4.44,47.81,3.17C242.46,710.4,226.47,710.21,210.3,713ZM415.61,62.25c-5.64,5.28-6.09,6.36-5.08,11.3C412.46,69.27,414,65.76,415.61,62.25Zm-.29-17.87-1.53-.64q-2.27,5.34-4.55,10.69l1.48.62Q413,49.71,415.32,44.38Zm.22,8.59-1.38-.65q-2.46,6.21-4.91,12.41l1.31.52Z"/><path d="M441.64,14.78c-2.36-3.82-4.67-7.37-6.74-11-.58-1-.43-2.48-.61-3.73,1.21.34,2.75.32,3.57,1.08C441.9,4.81,443.1,9.43,441.64,14.78Z"/><path d="M232.62,3.57,224.2,18.78C222.67,11.9,227.25,4.06,232.62,3.57Z"/><path d="M437,314c.41-3.37.77-6.73,1.27-10.08.1-.64.75-1.19,1.15-1.78.58.55,1.56,1,1.67,1.66A9.76,9.76,0,0,1,437,314Z"/><path class="cls-3" d="M304.08,317.85c-.29-3.6,1.63-4.86,4.66-5.55,10.31-2.33,20.67-4,31.18-1.67,3.14.7,6.09,2.21,9.46,3.48C342.37,322.12,316.07,323.91,304.08,317.85Z"/><path class="cls-3" d="M103.41,386.29c.44-4,.75-7.75,1.31-11.48.64-4.24,3.21-5.87,6.85-3.64a17.31,17.31,0,0,1,6.64,7.18c1.51,3.44,1.84,7.52,2.06,11.37.25,4.3-4.65,9-8.65,9-3.62-.07-8.1-5-8.21-9.11C103.38,388.4,103.41,387.23,103.41,386.29Z"/><path class="cls-3" d="M55.07,716.5c16.56-9.12,33.89-6.57,51.25-3.4C89.43,717.18,72.42,719.43,55.07,716.5Z"/><path class="cls-3" d="M210.3,713c16.17-2.78,32.16-2.59,47.81,3.17C242,717.43,226,718,210.3,713Z"/><path d="M45.24,130.16c18.37,3.34,36.72,4.88,55-.08a121.12,121.12,0,0,0,48.27-25.9l1.13,1.26c-1.06,1.43-1.88,3.14-3.21,4.26-19.07,16.09-41,25.37-66,26.36-10,.4-20.18-1.18-30.25-2.05-1.76-.15-3.44-1.24-5.16-1.9Z"/><path d="M106.15,75.65c-1.12,3.38-1.76,7-3.47,10.06-2.27,4-6,3.85-8.71.12-4.27-5.94-4.1-17.22.2-21.85,2.34-2.53,4.51-2.61,7-.24C104.46,67,105.41,71,106.15,75.65Z"/><path d="M85.37,79.38c-1.58,3.41-2.71,7.14-4.86,10.14-2.38,3.31-6.06,2.94-7.86-.68a24.21,24.21,0,0,1-.6-20.33c1.65-4.12,5.4-4.38,8.35-1a14.58,14.58,0,0,1,3.92,11.45Z"/><path d="M97.07,40.61c1.42.08,3.06-.27,4.23.32,6.43,3.24,12.81,6.6,19.06,10.19,1,.57,1.2,2.52,1.77,3.83-1.3-.08-2.82.26-3.85-.3C111.58,51,105,47.16,98.36,43.38c-.67-.38-1.36-.72-2-1.08Z"/><path d="M50.21,67.26c1-5.66,13.19-20,18.18-20.27L51.18,68.11Z"/><path d="M274.35,272.2a52.44,52.44,0,0,1,10.94-25.1A187.48,187.48,0,0,1,333.21,204c5.55-3.51,6.54-3.36,11.3.87,13.81,12.28,27.22,24.95,38.81,39.46,6.44,8.08,9.08,17.4,10.8,27.21.49,2.82-1,3.23-3.43,3.12-23.9-1.09-47.8-2.38-71.71-3-13.39-.36-26.8.35-40.2.58C277.38,272.22,276,272.2,274.35,272.2Zm85.16-48.9.05.06-7-7.69-24.64,50.4-1.4-.68c6.79-17.34,15.31-33.89,23.76-50.47-2.34-1.86-4.6-3.6-6.8-5.43-5.58-4.67-6.55-5-12.6-.74a215.71,215.71,0,0,0-17.95,13.74c-7.25,6.28-14.21,12.91-21,19.73-2.22,2.24-3.4,5.53-5.06,8.34l.93.54,4.6-7.83,1.26.73q-6,11.81-12,23.62l-1.09-.51.63-3-.55-.15c-1,1.82-1.93,3.63-3.19,6,3.37-.29,5.78.49,7.31-2.92,4.31-9.6,9.07-19,13.69-28.46a21.09,21.09,0,0,1,1.88-2.7l.95.5L286,268.8l.75.89c1.14-.78,2.85-1.29,3.34-2.36,5.46-11.94,10.73-24,16.09-35.95a24.31,24.31,0,0,1,1.71-2.84l1,.5c-4.75,13.73-11.56,26.63-17.63,40.19,1.27.09,2.14.21,3,.21q42.36-.27,84.73-.54c3.16,0,6.46-.65,9,2.18.56.61,2,.39,3.8.66-.95-2.37-1.58-3.95-2.23-5.56l-3.05,1.52c.67-2.72,1.23-5,1.79-7.24l-.82-.33L382,267l-.92-.62,5.28-11-1-.57-8.9,12.19c.29-6.48,6.31-10.32,6.19-16.85l-12.3,18.13-1.06-.65a30.79,30.79,0,0,1,1.67-3.8c2.77-4.56,5.53-9.12,8.49-13.55,1.61-2.4,1.65-4.23-.95-5.83l-13.85,21.45-1.5-.91L377,242.08l-2.9-3.46-16.39,26.65-1.33-.79,16.3-28.4Z"/><path d="M302.78,106.33c22.75,1.23,44.31,6.45,65.65-1l.71.79a23.35,23.35,0,0,1-2.09,4.56c-4.8,6.47-9.76,12.82-14.62,19.24q-3.89,5.13-7.65,10.34a25.28,25.28,0,0,0-5.24,15.22,6.92,6.92,0,0,1-1.31,3.92,26.06,26.06,0,0,1-.85-3.65c-.72-8.54-4.37-15.67-10.24-21.78-5.59-5.81-11.31-11.5-16.75-17.45C307.83,113.67,305.78,110.38,302.78,106.33ZM337.53,140c.06-1.22.12-2.45.18-3.7L335.1,136c.84-1.85,1.52-3.36,2.21-4.87-5.09,5.47-5.09,5.47-.1,9.11l1.44,5.12,1,.05,2.37-7.85-.87-.17Zm5.1-26.78,1.16.87q-6.51,9.56-13,19.1l.71.47,15.89-21.11.8.59-.55,3.39,2.68-4.43c-1.36-.06-2.25,0-3.13-.15-4.23-.59-7.33.47-9.59,4.61-2.17,3.95-5.31,7.37-8,11-.61.83-1.1,1.76-1.64,2.64l.75.52Zm10.46,11.65.59.4,12.17-16c-8.66-.78-13.64,2.1-15.89,9.09l4.9-5.77.85.57c-.62,1.62-1.24,3.24-2.18,5.74l7-8.57,1.17.83Zm-29.23,1.23c3.19-4.5,6.37-9,9.55-13.43l-.73-.52L323.44,124l-.81-.58a10.14,10.14,0,0,0,.48-1.37,12.47,12.47,0,0,0,.11-1.63C320.36,123,320.36,123,323.86,126.08Zm1.55,1.6,1.1.68q5.85-7.92,11.68-15.85l-.91-.66Q331.34,119.76,325.41,127.68Zm-2.65-15.81c-6.19,3.44-7,6.58-2.81,9.5.32-.64.62-1.26,1-2.08l-3.48.71Z"/><path d="M276.87,48.39l16.28,34-.85.42c-5.83-11.15-13.84-21.22-16.47-33.95Z"/><path d="M295.28,224.62C300.8,212.47,309,202,317.67,192Z"/><path d="M385.17,72.74l9.45-26.32A56.23,56.23,0,0,1,385.17,72.74Z"/><path d="M349.56,190.75c6.79,5.09,11.46,12.11,16,19.22l-16.8-18.41Z"/><path d="M337.38,182.34l3.77,4.35a20.64,20.64,0,0,1-3.16,2c-.31.12-1.53-.83-1.52-1.27A36.5,36.5,0,0,1,337.38,182.34Z"/><path d="M335.21,176.06l2.15-3.71c1,.66,2,1.31,3,2l-3.61,3.13Z"/><ellipse cx="316.8" cy="281.2" rx="37.69" ry="0.66"/><path d="M368.56,282h40.78v1.15H368.5Z"/><path d="M248.52,299.17V280.7l1.07,0V299.2Z"/><path d="M259.42,280.67h12.05v1.06H259.43Z"/><path class="cls-4" d="M359.51,223.3l13.12,12.78-16.3,28.4,1.33.79,16.39-26.65,2.9,3.46-13.86,22.85,1.5.91,13.85-21.45c2.6,1.6,2.56,3.43.95,5.83-3,4.43-5.72,9-8.49,13.55a30.79,30.79,0,0,0-1.67,3.8l1.06.65,12.3-18.13c.12,6.53-5.9,10.37-6.19,16.85l8.9-12.19,1,.57-5.28,11,.92.62,5.61-6.82.82.33c-.56,2.26-1.12,4.52-1.79,7.24l3.05-1.52c.65,1.61,1.28,3.19,2.23,5.56-1.78-.27-3.24-.05-3.8-.66-2.59-2.83-5.89-2.2-9-2.18q-42.36.24-84.73.54c-.87,0-1.74-.12-3-.21,6.07-13.56,12.88-26.46,17.63-40.19l-1-.5a24.31,24.31,0,0,0-1.71,2.84c-5.36,12-10.63,24-16.09,35.95-.49,1.07-2.2,1.58-3.34,2.36l-.75-.89,15.27-32.44-.95-.5a21.09,21.09,0,0,0-1.88,2.7c-4.62,9.46-9.38,18.86-13.69,28.46-1.53,3.41-3.94,2.63-7.31,2.92,1.26-2.38,2.23-4.19,3.19-6l.55.15-.63,3,1.09.51q6-11.81,12-23.62l-1.26-.73-4.6,7.83-.93-.54c1.66-2.81,2.84-6.1,5.06-8.34,6.74-6.82,13.7-13.45,21-19.73a215.71,215.71,0,0,1,17.95-13.74c6.05-4.21,7-3.93,12.6.74,2.2,1.83,4.46,3.57,6.8,5.43-8.45,16.58-17,33.13-23.76,50.47l1.4.68,24.64-50.4,7,7.68c-.9.6-2.21,1-2.66,1.84q-9.42,17.7-18.59,35.52a47.45,47.45,0,0,0-2.16,6.08c.83-.44,1.14-.5,1.23-.68Q348.46,244.72,359.51,223.3Zm-50.14,15.86,4.23-12.55-1-.37-18.14,39,1.42.69q4.55-8.67,9.1-17.34l-6.71,17.34,1,.39c7.13-13.67,14.46-27.25,19.15-42.05a12,12,0,0,0,.05-3.49l-.69-.05Q313.56,229.94,309.37,239.16Zm-6.89,28.73c4.77-1.89,23.74-47.54,22.37-53.25C317.51,232.43,309.14,249.81,302.48,267.89Zm37.67-58.18c-2.91,1.45-25.88,52.93-25.92,58.82C324.58,249.14,333.5,230,340.15,209.71Zm-5.87-.48-1.17-.53-23.46,55.14,1.05.46A228.91,228.91,0,0,0,334.28,209.23Zm7.85,57.9c7.61-12.31,15-24.73,19.92-38.45C354.47,241,347.19,253.5,342.13,267.13ZM345.21,213l-1.47-.46L319.83,264.6l1.47.66Zm10,8.31-1.51-.76-21.07,41.15,1.49.75C341.3,248.79,349.08,235.45,355.24,221.3ZM347.64,267l1.7,1q9.77-16.95,19.51-33.9l-2-1.14Q357.24,250,347.64,267Z"/><path class="cls-4" d="M342.63,113.2l-13.92,17.55-.75-.52c.54-.88,1-1.81,1.64-2.64,2.68-3.68,5.82-7.1,8-11,2.26-4.14,5.36-5.2,9.59-4.61.88.12,1.77.09,3.13.15l-2.68,4.43.55-3.39-.8-.59-15.89,21.11-.71-.47q6.51-9.54,13-19.1Z"/><path class="cls-4" d="M353.09,124.85l8.65-13.7-1.17-.83-7,8.57c.94-2.5,1.56-4.12,2.18-5.74l-.85-.57-4.9,5.77c2.25-7,7.23-9.87,15.89-9.09l-12.17,16Z"/><path class="cls-4" d="M323.86,126.08c-3.5-3.06-3.5-3.06-.64-5.7a12.47,12.47,0,0,1-.11,1.63,10.14,10.14,0,0,1-.48,1.37l.81.58,9.24-11.83.73.52C330.23,117.12,327.05,121.58,323.86,126.08Z"/><path class="cls-4" d="M325.41,127.68q5.94-7.92,11.87-15.83l.91.66q-5.83,7.92-11.68,15.85Z"/><path class="cls-4" d="M337.53,140l3.59-2.56.87.17-2.37,7.85-1-.05-1.44-5.12Z"/><path class="cls-4" d="M322.76,111.87,317.49,120l3.48-.71c-.4.82-.7,1.44-1,2.08C315.75,118.45,316.57,115.31,322.76,111.87Z"/><path class="cls-4" d="M337.21,140.27c-5-3.64-5-3.64.1-9.11-.69,1.51-1.37,3-2.21,4.87l2.61.25c-.06,1.25-.12,2.48-.18,3.7Z"/><path d="M302.48,267.89c6.66-18.08,15-35.46,22.37-53.25C326.22,220.35,307.25,266,302.48,267.89Z"/><path d="M340.15,209.71c-6.65,20.25-15.57,39.43-25.92,58.82C314.27,262.64,337.24,211.16,340.15,209.71Z"/><path d="M334.28,209.23A228.91,228.91,0,0,1,310.7,264.3l-1.05-.46,23.46-55.14Z"/><path d="M309.37,239.16q4.19-9.22,8.39-18.46l.69.05a12,12,0,0,1-.05,3.49c-4.69,14.8-12,28.38-19.15,42.05l-1-.39q3.35-8.67,6.71-17.34Z"/><path d="M359.51,223.3q-11.06,21.4-22.14,42.81c-.09.18-.4.24-1.23.68a47.45,47.45,0,0,1,2.16-6.08q9.18-17.82,18.59-35.52c.45-.85,1.76-1.24,2.66-1.84Z"/><path d="M342.13,267.13c5.06-13.63,12.34-26.12,19.92-38.45C357.16,242.4,349.74,254.82,342.13,267.13Z"/><path d="M345.21,213,321.3,265.26l-1.47-.66,23.91-52.07Z"/><path d="M355.24,221.3c-6.16,14.15-13.94,27.49-21.09,41.14l-1.49-.75,21.07-41.15Z"/><path d="M309.37,239.16l-4.39,9.4q-4.56,8.67-9.1,17.34l-1.42-.69,18.14-39,1,.37Z"/><path d="M347.64,267q9.6-17,19.21-34.06l2,1.14q-9.75,16.95-19.51,33.9Z"/></g></g></svg>