<svg xmlns="http://www.w3.org/2000/svg" xmlns:xlink="http://www.w3.org/1999/xlink" width="1200" height="1200" version="1.1" viewBox="0 0 1200 1200"><title>logo avatar (includes whitespace surround)</title><defs><polygon id="path-1" points=".314 255.103 437.708 509.629 872.974 253.155 437.708 .577"/></defs><g id="logo-avatar-(includes-whitespace-surround)" fill="none" fill-rule="evenodd" stroke="none" stroke-width="1"><g id="mesh-logo" transform="translate(145.000000, 70.000000)"><g id="dot-grid" fill="#B6E2D6" fill-rule="nonzero" stroke="#FFF" stroke-width="4" transform="translate(67.695992, 709.009532)"><ellipse id="Oval-9" cx="65.11" cy="81.399" rx="62.962" ry="33.729"/><ellipse id="Oval-9" cx="389.921" cy="276.277" rx="62.962" ry="33.729"/><ellipse id="Oval-9" cx="714.733" cy="81.391" rx="62.962" ry="33.729"/><ellipse id="Oval-9" cx="224.268" cy="175.594" rx="62.962" ry="33.729"/><ellipse id="Oval-9" cx="555.575" cy="175.586" rx="62.962" ry="33.729"/><ellipse id="Oval-9" cx="389.921" cy="113.872" rx="62.962" ry="33.729"/><ellipse id="Oval-9" cx="224.268" cy="35.925" rx="62.962" ry="33.729"/><ellipse id="Oval-9" cx="555.575" cy="35.917" rx="62.962" ry="33.729"/></g><polygon id="Path-8" fill="#1128A9" fill-rule="nonzero" points="18.494 635.526 455.888 890.052 891.155 633.578 455.888 381"/><g id="mesh" transform="translate(18.180422, 250.000060)"><polygon id="Path-8" fill="#87E3CB" fill-rule="nonzero" points=".314 255.103 437.708 509.629 872.974 253.155 437.708 .577"/><mask id="mask-2" fill="#fff"><use xlink:href="#path-1"/></mask><use id="Path-8" fill="#C8FCEE" fill-rule="nonzero" xlink:href="#path-1"/><line id="Path-2" x1="-274.473" x2="1079.556" y1="440.043" y2="-354.323" fill-rule="nonzero" stroke="#6ED3B9" stroke-width="45" mask="url(#mask-2)"/><line id="Path-2" x1="-313.429" x2="1040.599" y1="618.431" y2="-175.935" fill-rule="nonzero" stroke="#6ED3B9" stroke-width="45" mask="url(#mask-2)"/><line id="Path-2" x1="37.4" x2="1391.428" y1="564.914" y2="-229.451" fill-rule="nonzero" stroke="#6ED3B9" stroke-width="45" mask="url(#mask-2)"/><line id="Path-2" x1="29.62" x2="1383.648" y1="731.41" y2="-62.956" fill-rule="nonzero" stroke="#6ED3B9" stroke-width="45" mask="url(#mask-2)"/><line id="Path-2" x1="203.895" x2="1557.924" y1="790.872" y2="-3.493" fill-rule="nonzero" stroke="#6ED3B9" stroke-width="45" mask="url(#mask-2)"/><line id="Path-2" x1="554.725" x2="1908.753" y1="737.356" y2="-57.01" fill-rule="nonzero" stroke="#6ED3B9" stroke-width="45" mask="url(#mask-2)"/><line id="Path-2" x1="548.778" x2="1902.807" y1="903.851" y2="109.486" fill-rule="nonzero" stroke="#6ED3B9" stroke-width="45" mask="url(#mask-2)"/><g id="lines" fill-rule="nonzero" stroke="#6ED3B9" stroke-width="45" mask="url(#mask-2)"><g id="Path-2" transform="translate(806.249750, 227.587220) scale(-1, 1) translate(-806.249750, -227.587220) translate(-305.250250, -401.912780)"><line x1="6.546" x2="1360.575" y1="794.386" y2=".02"/><line x1=".6" x2="1354.628" y1="972.774" y2="178.408"/><line x1="351.429" x2="1705.458" y1="919.257" y2="124.892"/><line x1="345.483" x2="1699.511" y1="1085.752" y2="291.387"/><line x1="517.925" x2="1871.953" y1="1145.215" y2="350.849"/><line x1="868.754" x2="2222.782" y1="1091.699" y2="297.333"/><line x1="862.808" x2="2216.836" y1="1258.194" y2="463.828"/></g></g></g><g id="shapes" fill-rule="nonzero" transform="translate(129.637675, 68.695502)"><polygon id="Path-4" fill="#1128A9" points=".834 416.79 .834 62.326 265.834 569.256"/><polygon id="Path-26" fill="#569CF5" points="325.834 438.925 545.859 312.468 545.859 .656 325.834 123.602"/><g id="orange" fill="#FB8143" transform="translate(414.362325, 140.925408)"><polygon id="Path-25" points="0 245.024 178.008 349.773 178.008 106.339 0 0"/></g><polygon id="Path-26" fill="#569CF5" points="325.834 438.925 545.859 312.468 545.859 .656 325.834 123.602" style="mix-blend-mode:overlay"/></g></g></g></svg>