<svg width="101" height="117" viewBox="0 0 101 117" fill="none" xmlns="http://www.w3.org/2000/svg">
<g clip-path="url(#clip0_5562_24511)">
<path fill-rule="evenodd" clip-rule="evenodd" d="M0 12.8494C0 5.75287 5.75287 0 12.8494 0H87.9065C91.3144 0 94.5827 1.35379 96.9924 3.76352C99.4022 6.17325 100.756 9.4415 100.756 12.8494V104.127C100.756 111.224 95.0031 116.976 87.9065 116.976H12.8494C5.75287 116.976 0 111.224 0 104.127V12.8494Z" fill="#EEEEEE"/>
<path d="M24.625 35.2835V26.7679H26.3594V33.8304H30.6719V35.2835H24.625ZM31.5488 28.346V26.8147H37.1738V28.0022C36.7051 28.4606 36.2311 29.1168 35.752 29.971C35.2728 30.8251 34.9082 31.7366 34.6582 32.7054C34.4082 33.6637 34.2832 34.5231 34.2832 35.2835H32.7051C32.7259 34.096 32.9655 32.8876 33.4238 31.6585C33.8926 30.4189 34.5124 29.3147 35.2832 28.346H31.5488ZM41.916 26.6897H45.0723C45.791 26.6897 46.3379 26.747 46.7129 26.8616C47.2129 27.0074 47.64 27.2731 47.9941 27.6585C48.3587 28.0335 48.6348 28.497 48.8223 29.0491C49.0098 29.5908 49.1035 30.2626 49.1035 31.0647C49.1035 31.7731 49.0202 32.3824 48.8535 32.8929C48.6348 33.5179 48.3275 34.0231 47.9316 34.4085C47.6296 34.7106 47.2233 34.9397 46.7129 35.096C46.3275 35.221 45.8118 35.2835 45.166 35.2835H41.916V26.6897ZM43.6504 28.1429V33.8304H44.9316C45.4212 33.8304 45.7754 33.8043 45.9941 33.7522C46.2754 33.6793 46.5046 33.5595 46.6816 33.3929C46.8691 33.2262 47.0202 32.9501 47.1348 32.5647C47.2598 32.1793 47.3223 31.6533 47.3223 30.9866C47.3223 30.3304 47.2598 29.8251 47.1348 29.471C47.0202 29.1064 46.8587 28.8251 46.6504 28.6272C46.4421 28.4293 46.1764 28.2939 45.8535 28.221C45.6035 28.1689 45.1243 28.1429 44.416 28.1429H43.6504ZM54.1758 33.2991L55.8164 33.5804C55.6081 34.1845 55.2747 34.6429 54.8164 34.9554C54.3581 35.2679 53.7904 35.4241 53.1133 35.4241C52.0299 35.4241 51.2279 35.0699 50.707 34.3616C50.2904 33.7991 50.082 33.0856 50.082 32.221C50.082 31.1897 50.3529 30.3824 50.8945 29.7991C51.4362 29.2158 52.1185 28.9241 52.9414 28.9241C53.8685 28.9241 54.5977 29.2314 55.1289 29.846C55.6706 30.4501 55.9258 31.3824 55.8945 32.6429H51.7695C51.7904 33.1324 51.9258 33.5126 52.1758 33.7835C52.4258 34.0543 52.7435 34.1897 53.1289 34.1897C53.3789 34.1897 53.5924 34.122 53.7695 33.9866C53.9466 33.8408 54.082 33.6116 54.1758 33.2991ZM54.2695 31.6429C54.2591 31.1637 54.1341 30.7991 53.8945 30.5491C53.6654 30.2991 53.3789 30.1741 53.0352 30.1741C52.681 30.1741 52.3841 30.3043 52.1445 30.5647C51.9154 30.8356 51.8008 31.1949 51.8008 31.6429H54.2695ZM62.8965 35.2835H61.2559V32.1116C61.2559 31.4345 61.2194 30.997 61.1465 30.7991C61.084 30.6012 60.9694 30.4501 60.8027 30.346C60.6465 30.2314 60.459 30.1741 60.2402 30.1741C59.9486 30.1741 59.6882 30.2522 59.459 30.4085C59.2402 30.5647 59.0892 30.7731 59.0059 31.0335C58.9225 31.2939 58.8809 31.7731 58.8809 32.471V35.2835H57.2246V29.0647H58.7559V29.971C59.2975 29.2731 59.985 28.9241 60.8184 28.9241C61.1725 28.9241 61.5007 28.9918 61.8027 29.1272C62.1048 29.2522 62.334 29.4189 62.4902 29.6272C62.6465 29.8251 62.7507 30.0543 62.8027 30.3147C62.8652 30.5647 62.8965 30.9293 62.8965 31.4085V35.2835ZM64.5703 28.221V26.6897H66.2266V28.221H64.5703ZM64.5703 35.2835V29.0647H66.2266V35.2835H64.5703ZM69.1387 30.9554L67.6387 30.6897C67.8053 30.0856 68.0918 29.6429 68.498 29.3616C68.9147 29.0699 69.5293 28.9241 70.3418 28.9241C71.071 28.9241 71.6126 29.0126 71.9668 29.1897C72.3314 29.3564 72.5866 29.5751 72.7324 29.846C72.8783 30.1064 72.9512 30.596 72.9512 31.3147L72.9355 33.2366C72.9355 33.7887 72.9616 34.1949 73.0137 34.4554C73.0658 34.7054 73.1647 34.9814 73.3105 35.2835H71.6855C71.6439 35.1689 71.5918 35.0074 71.5293 34.7991C71.498 34.6949 71.4772 34.6272 71.4668 34.596C71.1855 34.8772 70.8835 35.0856 70.5605 35.221C70.248 35.3564 69.9095 35.4241 69.5449 35.4241C68.8991 35.4241 68.3887 35.2522 68.0137 34.9085C67.6491 34.5543 67.4668 34.1116 67.4668 33.5804C67.4668 33.2262 67.5501 32.9137 67.7168 32.6429C67.8939 32.372 68.1335 32.1637 68.4355 32.0179C68.7376 31.8616 69.1751 31.7314 69.748 31.6272C70.5085 31.4814 71.0397 31.346 71.3418 31.221V31.0647C71.3418 30.7418 71.2637 30.5126 71.1074 30.3772C70.9512 30.2418 70.6543 30.1741 70.2168 30.1741C69.9251 30.1741 69.696 30.2314 69.5293 30.346C69.373 30.4606 69.2428 30.6637 69.1387 30.9554ZM71.3418 32.2991C71.1335 32.3616 70.8001 32.4449 70.3418 32.5491C69.8835 32.6429 69.5814 32.7366 69.4355 32.8304C69.2272 32.9866 69.123 33.1793 69.123 33.4085C69.123 33.6376 69.2064 33.8408 69.373 34.0179C69.5501 34.1845 69.7689 34.2679 70.0293 34.2679C70.3314 34.2679 70.6178 34.1689 70.8887 33.971C71.0866 33.8251 71.2168 33.6429 71.2793 33.4241C71.321 33.2887 71.3418 33.0231 71.3418 32.6272V32.2991ZM74.5781 35.2835V26.6897H76.2344V35.2835H74.5781Z" fill="black"/>
<path d="M58.0999 112.401L56.8342 109.041H56.803C56.8134 109.104 56.8186 109.187 56.8186 109.291C56.829 109.395 56.8342 109.51 56.8342 109.635C56.8446 109.75 56.8499 109.869 56.8499 109.994V112.401H56.428V108.604H57.0842L58.2874 111.76H58.3186L59.5374 108.604H60.178V112.401H59.7405V109.963C59.7405 109.849 59.7405 109.739 59.7405 109.635C59.7509 109.52 59.7561 109.411 59.7561 109.307C59.7665 109.203 59.7769 109.114 59.7874 109.041H59.7561L58.4749 112.401H58.0999ZM63.3452 112.401H61.2202V108.604H63.3452V108.994H61.6733V110.213H63.2514V110.604H61.6733V112.01H63.3452V112.401ZM66.337 111.385C66.337 111.614 66.2797 111.807 66.1652 111.963C66.0506 112.119 65.8943 112.239 65.6964 112.323C65.4985 112.406 65.2589 112.448 64.9777 112.448C64.8422 112.448 64.7068 112.442 64.5714 112.432C64.4464 112.421 64.3266 112.406 64.212 112.385C64.1079 112.354 64.0141 112.317 63.9308 112.276V111.854C64.0662 111.906 64.2277 111.958 64.4152 112.01C64.6027 112.052 64.8006 112.073 65.0089 112.073C65.1964 112.073 65.3527 112.046 65.4777 111.994C65.6131 111.942 65.712 111.869 65.7745 111.776C65.8475 111.682 65.8839 111.567 65.8839 111.432C65.8839 111.296 65.8527 111.187 65.7902 111.104C65.7381 111.01 65.6443 110.927 65.5089 110.854C65.3839 110.781 65.2068 110.708 64.9777 110.635C64.811 110.573 64.6652 110.51 64.5402 110.448C64.4256 110.375 64.3266 110.296 64.2433 110.213C64.16 110.119 64.0975 110.015 64.0558 109.901C64.0141 109.786 63.9933 109.656 63.9933 109.51C63.9933 109.312 64.0402 109.14 64.1339 108.994C64.2381 108.849 64.3839 108.739 64.5714 108.666C64.7589 108.583 64.9672 108.541 65.1964 108.541C65.4047 108.541 65.5922 108.562 65.7589 108.604C65.936 108.635 66.0975 108.687 66.2433 108.76L66.1027 109.135C65.9672 109.073 65.8214 109.026 65.6652 108.994C65.5089 108.953 65.3527 108.932 65.1964 108.932C65.0297 108.932 64.8891 108.958 64.7745 109.01C64.6704 109.052 64.587 109.119 64.5245 109.213C64.462 109.296 64.4308 109.395 64.4308 109.51C64.4308 109.645 64.4568 109.76 64.5089 109.854C64.5714 109.937 64.6652 110.015 64.7902 110.088C64.9152 110.151 65.0818 110.218 65.2902 110.291C65.5089 110.375 65.6964 110.463 65.8527 110.557C66.0089 110.651 66.1287 110.765 66.212 110.901C66.2954 111.026 66.337 111.187 66.337 111.385ZM69.993 112.401H69.5399V110.604H67.5555V112.401H67.1024V108.604H67.5555V110.213H69.5399V108.604H69.993V112.401ZM73.1559 112.401H71.0309V108.604H73.1559V108.994H71.484V110.213H73.0621V110.604H71.484V112.01H73.1559V112.401ZM75.0228 108.604C75.3353 108.604 75.5905 108.64 75.7884 108.713C75.9967 108.786 76.1478 108.906 76.2415 109.073C76.3457 109.229 76.3978 109.427 76.3978 109.666C76.3978 109.864 76.3613 110.031 76.2884 110.166C76.2155 110.302 76.1217 110.411 76.0071 110.494C75.8926 110.578 75.7676 110.645 75.6321 110.698L76.679 112.401H76.1634L75.2259 110.807H74.4446V112.401H73.9915V108.604H75.0228ZM74.9915 108.979H74.4446V110.432H75.0384C75.3509 110.432 75.5801 110.369 75.7259 110.244C75.8717 110.119 75.9446 109.937 75.9446 109.698C75.9446 109.437 75.8665 109.255 75.7103 109.151C75.554 109.036 75.3144 108.979 74.9915 108.979ZM78.2487 110.51L79.2643 108.604H79.7487L78.4831 110.932V112.401H78.03V110.948L76.7643 108.604H77.2487L78.2487 110.51ZM82.5245 110.494C82.5245 110.807 82.4984 111.083 82.4464 111.323C82.4047 111.562 82.3318 111.77 82.2276 111.948C82.1234 112.114 81.9932 112.239 81.837 112.323C81.6807 112.406 81.488 112.448 81.2589 112.448C80.9776 112.448 80.7432 112.375 80.5557 112.229C80.3786 112.073 80.2432 111.849 80.1495 111.557C80.0557 111.265 80.0089 110.911 80.0089 110.494C80.0089 110.088 80.0505 109.739 80.1339 109.448C80.2172 109.156 80.3474 108.932 80.5245 108.776C80.712 108.619 80.9568 108.541 81.2589 108.541C81.5505 108.541 81.7849 108.619 81.962 108.776C82.1495 108.932 82.2901 109.156 82.3839 109.448C82.4776 109.739 82.5245 110.088 82.5245 110.494ZM80.4464 110.494C80.4464 110.849 80.4724 111.145 80.5245 111.385C80.5766 111.614 80.6599 111.791 80.7745 111.916C80.8995 112.031 81.0609 112.088 81.2589 112.088C81.4568 112.088 81.613 112.031 81.7276 111.916C81.8526 111.791 81.9411 111.614 81.9932 111.385C82.0557 111.145 82.087 110.849 82.087 110.494C82.087 110.14 82.0557 109.849 81.9932 109.619C81.9411 109.38 81.8526 109.203 81.7276 109.088C81.613 108.974 81.4568 108.916 81.2589 108.916C81.0609 108.916 80.8995 108.974 80.7745 109.088C80.6599 109.203 80.5766 109.38 80.5245 109.619C80.4724 109.849 80.4464 110.14 80.4464 110.494ZM85.7272 111.526H85.1647V112.401H84.7429V111.526H82.8991V111.151L84.7116 108.573H85.1647V111.135H85.7272V111.526ZM84.7429 111.135V109.885C84.7429 109.791 84.7429 109.708 84.7429 109.635C84.7429 109.552 84.7429 109.479 84.7429 109.416C84.7533 109.343 84.7585 109.281 84.7585 109.229C84.7689 109.166 84.7741 109.104 84.7741 109.041H84.7429C84.7116 109.114 84.6751 109.187 84.6335 109.26C84.5918 109.333 84.5501 109.401 84.5085 109.463L83.3366 111.135H84.7429ZM86.1331 110.776C86.1331 110.546 86.1487 110.323 86.18 110.104C86.2112 109.885 86.2633 109.682 86.3362 109.494C86.4196 109.307 86.5237 109.145 86.6487 109.01C86.7842 108.864 86.9508 108.75 87.1487 108.666C87.3467 108.583 87.5862 108.541 87.8675 108.541C87.9404 108.541 88.0237 108.546 88.1175 108.557C88.2112 108.567 88.2842 108.578 88.3362 108.588V108.963C88.2737 108.942 88.2008 108.927 88.1175 108.916C88.0342 108.906 87.9508 108.901 87.8675 108.901C87.5446 108.901 87.2894 108.974 87.1019 109.119C86.9248 109.255 86.7946 109.442 86.7112 109.682C86.6279 109.921 86.581 110.192 86.5706 110.494H86.6019C86.654 110.401 86.7217 110.323 86.805 110.26C86.8883 110.187 86.9873 110.13 87.1019 110.088C87.2269 110.046 87.3675 110.026 87.5237 110.026C87.7425 110.026 87.9352 110.073 88.1019 110.166C88.2685 110.25 88.3935 110.38 88.4769 110.557C88.5706 110.724 88.6175 110.932 88.6175 111.182C88.6175 111.442 88.5706 111.671 88.4769 111.869C88.3831 112.057 88.2425 112.203 88.055 112.307C87.8779 112.401 87.6696 112.448 87.43 112.448C87.2425 112.448 87.0706 112.416 86.9144 112.354C86.7581 112.281 86.6227 112.177 86.5081 112.041C86.3935 111.895 86.2998 111.718 86.2269 111.51C86.1644 111.302 86.1331 111.057 86.1331 110.776ZM87.4144 112.088C87.654 112.088 87.8415 112.015 87.9769 111.869C88.1227 111.713 88.1956 111.484 88.1956 111.182C88.1956 110.932 88.1331 110.734 88.0081 110.588C87.8831 110.442 87.6904 110.369 87.43 110.369C87.2633 110.369 87.1123 110.406 86.9769 110.479C86.8519 110.552 86.7529 110.645 86.68 110.76C86.6071 110.864 86.5706 110.968 86.5706 111.073C86.5706 111.187 86.5862 111.307 86.6175 111.432C86.6592 111.546 86.7112 111.656 86.7737 111.76C86.8467 111.854 86.9352 111.932 87.0394 111.994C87.154 112.057 87.279 112.088 87.4144 112.088Z" fill="#999999"/>
<path fill-rule="evenodd" clip-rule="evenodd" d="M58.1388 5.83185H89.6574C93.7864 5.83185 97.1337 7.85483 97.1337 10.3503C97.1337 12.8457 93.7864 14.8687 89.6574 14.8687H58.1388C54.0098 14.8687 50.6625 12.8457 50.6625 10.3503C50.6625 7.85483 54.0098 5.83185 58.1388 5.83185Z" fill="#FFF2CC"/>
<path d="M60.6625 11.2515L61.1469 11.2047C61.1677 11.3922 61.2198 11.5484 61.3032 11.6734C61.3865 11.7984 61.5115 11.8974 61.6782 11.9703C61.8552 12.0432 62.0532 12.0797 62.2719 12.0797C62.4594 12.0797 62.6261 12.0536 62.7719 12.0015C62.9282 11.939 63.0375 11.8609 63.1 11.7672C63.173 11.663 63.2094 11.5536 63.2094 11.439C63.2094 11.314 63.173 11.2099 63.1 11.1265C63.0375 11.0328 62.9282 10.9547 62.7719 10.8922C62.6677 10.8505 62.4386 10.788 62.0844 10.7047C61.7407 10.6213 61.4959 10.5432 61.35 10.4703C61.173 10.3765 61.0375 10.2619 60.9438 10.1265C60.8605 9.98069 60.8188 9.81923 60.8188 9.64215C60.8188 9.45465 60.8709 9.27757 60.975 9.1109C61.0896 8.93382 61.2511 8.80361 61.4594 8.72028C61.6677 8.63694 61.9021 8.59528 62.1625 8.59528C62.4438 8.59528 62.6886 8.64215 62.8969 8.7359C63.1157 8.81923 63.2823 8.94944 63.3969 9.12653C63.5115 9.30361 63.574 9.50673 63.5844 9.7359L63.1 9.76715C63.0792 9.52757 62.9907 9.34528 62.8344 9.22028C62.6886 9.09528 62.4698 9.03278 62.1782 9.03278C61.8761 9.03278 61.6521 9.09007 61.5063 9.20465C61.3709 9.31923 61.3032 9.45465 61.3032 9.6109C61.3032 9.74632 61.35 9.85569 61.4438 9.93903C61.548 10.0328 61.8032 10.1265 62.2094 10.2203C62.6157 10.314 62.8969 10.3922 63.0532 10.4547C63.2719 10.5588 63.4334 10.689 63.5375 10.8453C63.6521 11.0015 63.7094 11.1838 63.7094 11.3922C63.7094 11.6005 63.6469 11.7932 63.5219 11.9703C63.4073 12.1474 63.2407 12.288 63.0219 12.3922C62.8136 12.4859 62.5688 12.5328 62.2875 12.5328C61.9438 12.5328 61.6521 12.4859 61.4125 12.3922C61.1834 12.288 61.0011 12.1369 60.8657 11.939C60.7407 11.7307 60.673 11.5015 60.6625 11.2515ZM64.4039 12.4703V8.65778H67.1539V9.1109H64.9039V10.2672H67.0132V10.7203H64.9039V12.0172H67.2476V12.4703H64.4039ZM70.6608 11.1265L71.1765 11.2672C71.0723 11.6734 70.8796 11.9859 70.5983 12.2047C70.3275 12.4234 69.9942 12.5328 69.5983 12.5328C69.1817 12.5328 68.8431 12.4494 68.5827 12.2828C68.3327 12.1161 68.14 11.8765 68.0046 11.564C67.8692 11.2411 67.8015 10.8974 67.8015 10.5328C67.8015 10.1369 67.8744 9.79319 68.0202 9.50153C68.1765 9.19944 68.3952 8.97548 68.6765 8.82965C68.9577 8.6734 69.265 8.59528 69.5983 8.59528C69.9837 8.59528 70.3067 8.69423 70.5671 8.89215C70.8275 9.07965 71.0098 9.35048 71.114 9.70465L70.614 9.81403C70.5202 9.54319 70.39 9.34528 70.2233 9.22028C70.0567 9.08486 69.8483 9.01715 69.5983 9.01715C69.2962 9.01715 69.0462 9.09007 68.8483 9.2359C68.6608 9.37132 68.5254 9.55882 68.4421 9.7984C68.3587 10.038 68.3171 10.2828 68.3171 10.5328C68.3171 10.8557 68.364 11.1422 68.4577 11.3922C68.5515 11.6317 68.6973 11.814 68.8952 11.939C69.1035 12.0536 69.3223 12.1109 69.5515 12.1109C69.8327 12.1109 70.0723 12.0276 70.2702 11.8609C70.4681 11.6942 70.5983 11.4494 70.6608 11.1265ZM74.2899 8.65778H74.8055V10.8609C74.8055 11.2463 74.7586 11.5536 74.6649 11.7828C74.5815 12.0015 74.4253 12.1838 74.1961 12.3297C73.9774 12.4651 73.6805 12.5328 73.3055 12.5328C72.9513 12.5328 72.6596 12.4755 72.4305 12.3609C72.2013 12.2359 72.0399 12.0588 71.9461 11.8297C71.8524 11.5901 71.8055 11.2672 71.8055 10.8609V8.65778H72.3055V10.8609C72.3055 11.1942 72.3367 11.439 72.3992 11.5953C72.4617 11.7515 72.5659 11.8713 72.7117 11.9547C72.868 12.038 73.0555 12.0797 73.2742 12.0797C73.6388 12.0797 73.8992 11.9963 74.0555 11.8297C74.2117 11.663 74.2899 11.3401 74.2899 10.8609V8.65778ZM75.6533 12.4703V8.65778H77.3408C77.6846 8.65778 77.945 8.69423 78.1221 8.76715C78.2992 8.82965 78.4398 8.94944 78.5439 9.12653C78.6481 9.29319 78.7002 9.4859 78.7002 9.70465C78.7002 9.96507 78.6117 10.189 78.4346 10.3765C78.2575 10.564 77.9867 10.6838 77.6221 10.7359C77.7575 10.7984 77.8617 10.8609 77.9346 10.9234C78.0804 11.0588 78.2158 11.2307 78.3408 11.439L79.0127 12.4703H78.3721L77.8721 11.6734C77.7262 11.4442 77.6064 11.2724 77.5127 11.1578C77.4189 11.0328 77.3304 10.9494 77.2471 10.9078C77.1742 10.8557 77.1012 10.8192 77.0283 10.7984C76.9658 10.788 76.8721 10.7828 76.7471 10.7828H76.1533V12.4703H75.6533ZM76.1533 10.3453H77.2471C77.4762 10.3453 77.6533 10.3192 77.7783 10.2672C77.9137 10.2151 78.0127 10.1369 78.0752 10.0328C78.1481 9.92861 78.1846 9.81923 78.1846 9.70465C78.1846 9.51715 78.1169 9.36611 77.9814 9.25153C77.8564 9.13694 77.6481 9.07965 77.3564 9.07965H76.1533V10.3453ZM79.5792 12.4703V8.65778H80.0792V12.4703H79.5792ZM81.9346 12.4703V9.1109H80.6846V8.65778H83.7002V9.1109H82.4502V12.4703H81.9346ZM85.2986 12.4703V10.8609L83.8298 8.65778H84.4392L85.1892 9.7984C85.335 10.0172 85.4653 10.2359 85.5798 10.4547C85.6944 10.2567 85.835 10.0328 86.0017 9.78278L86.7361 8.65778H87.3298L85.7986 10.8609V12.4703H85.2986Z" fill="#7F6000"/>
<g clip-path="url(#clip1_5562_24511)">
<path d="M55.2024 56.5973C55.2024 55.3011 56.2498 54.2538 57.546 54.2538C58.1641 54.2538 58.765 54.5027 59.2028 54.9405C59.6406 55.3783 59.8896 55.9792 59.8896 56.5973C59.8896 57.8936 58.8423 58.9409 57.546 58.9409C56.2498 58.9495 55.2024 57.8936 55.2024 56.5973Z" fill="#00B39F"/>
<path d="M48 63.1044C48 61.8081 49.0473 60.7608 50.3436 60.7608C50.9617 60.7608 51.5626 61.0098 52.0004 61.4476C52.4382 61.8854 52.6872 62.4863 52.6872 63.1044C52.6872 64.4007 51.6398 65.448 50.3436 65.448C49.0473 65.448 48 64.4007 48 63.1044Z" fill="#00B39F"/>
<path d="M55.2024 56.5973C52.773 56.5973 50.3436 58.6748 50.3436 60.7522" stroke="#359AC0" stroke-miterlimit="10" stroke-linejoin="round"/>
<path d="M87.652 57.3528C86.4845 56.7948 85.9952 55.3955 86.5532 54.228C86.8193 53.67 87.3001 53.2408 87.8838 53.0262C88.4676 52.8201 89.1114 52.8545 89.678 53.1206C90.8455 53.6786 91.3348 55.0779 90.7768 56.2454C90.2102 57.4129 88.8109 57.9108 87.652 57.3528Z" fill="#00B39F"/>
<path d="M61.5807 63.1044C61.5807 61.8081 62.6281 60.7608 63.9243 60.7608C64.5424 60.7608 65.1433 61.0098 65.5811 61.4476C66.019 61.8854 66.2679 62.4863 66.2679 63.1044C66.2679 64.4007 65.2206 65.448 63.9243 65.448C62.6366 65.448 61.5807 64.4007 61.5807 63.1044Z" fill="#00B39F"/>
<path d="M54.8551 72.532C54.8551 71.2357 55.9024 70.1884 57.1987 70.1884C57.8167 70.1884 58.4177 70.4374 58.8555 70.8752C59.2933 71.313 59.5422 71.9139 59.5422 72.532C59.5422 73.8283 58.4949 74.8756 57.1987 74.8756C55.9024 74.8842 54.8551 73.8283 54.8551 72.532Z" fill="#DFE300"/>
<path d="M59.2174 72.9928C61.2786 73.882 62.4444 73.2281 64.5145 73.616" stroke="#DFE300"/>
<path d="M63.9329 65.448C63.9329 66.6498 62.3362 67.2508 60.7309 67.8517C59.1342 68.4526 57.5289 69.0535 57.5289 70.2553" stroke="#359AC0" stroke-miterlimit="10" stroke-linejoin="round"/>
<path d="M86.4502 56.0136C85.6003 56.0136 85.1625 56.314 84.759 56.6231C84.3556 56.9235 83.9778 57.2326 83.1966 57.2326" stroke="#359AC0" stroke-miterlimit="10" stroke-linejoin="round"/>
<path d="M57.5203 70.2639C57.5203 69.0621 55.7261 68.4612 53.9319 67.8602C52.1378 67.2593 50.3436 66.6584 50.3436 65.4566" stroke="#359AC0" stroke-miterlimit="10" stroke-linejoin="round"/>
<path d="M63.9329 60.7522C63.9329 58.6748 61.9155 56.5973 59.8982 56.5973" stroke="#359AC0" stroke-miterlimit="10" stroke-linejoin="round"/>
<path d="M80.8616 65.448C79.5654 65.448 78.5181 64.4007 78.5181 63.1044C78.5181 62.4863 78.767 61.8854 79.2048 61.4476C79.6426 61.0098 80.2436 60.7608 80.8616 60.7608C82.1579 60.7608 83.2052 61.8081 83.2052 63.1044C83.2052 64.3921 82.1579 65.448 80.8616 65.448Z" fill="#00B39F"/>
<path d="M74.449 59.5676C73.1527 59.5676 72.1054 58.5203 72.1054 57.224C72.1054 56.6059 72.3544 56.005 72.7922 55.5672C73.23 55.1294 73.8309 54.8804 74.449 54.8804C75.7453 54.8804 76.7926 55.9277 76.7926 57.224C76.8012 58.5203 75.7453 59.5676 74.449 59.5676Z" fill="#00B39F"/>
<path d="M80.8616 59.5676C79.5654 59.5676 78.5181 58.5203 78.5181 57.224C78.5181 56.6059 78.767 56.005 79.2048 55.5672C79.6426 55.1294 80.2436 54.8804 80.8616 54.8804C82.1579 54.8804 83.2052 55.9277 83.2052 57.224C83.2052 58.5203 82.1579 59.5676 80.8616 59.5676Z" fill="#00B39F"/>
<path d="M78.5095 63.0958C78.0803 63.0958 77.8656 61.6279 77.651 60.1599C77.4364 58.692 77.2218 57.224 76.7926 57.224" stroke="#359AC0" stroke-miterlimit="10" stroke-linejoin="round"/>
<path d="M76.8012 57.224C77.2304 57.224 77.445 57.2326 77.651 57.2412C77.8656 57.2498 78.0803 57.2583 78.5095 57.2583" stroke="#359AC0" stroke-width="2" stroke-miterlimit="10" stroke-linejoin="round"/>
<path d="M80.8616 60.7522C80.8616 60.4604 80.8702 60.3058 80.8788 60.1599C80.8874 60.014 80.896 59.8594 80.896 59.5676" stroke="#359AC0" stroke-miterlimit="10" stroke-linejoin="round"/>
<path d="M72.1054 57.224C70.646 57.224 69.9163 58.692 69.1867 60.1599C68.457 61.6279 67.7273 63.0958 66.2679 63.0958" stroke="#359AC0" stroke-miterlimit="10" stroke-linejoin="round"/>
<path d="M80.8616 53.6872C79.5654 53.6872 78.5181 52.6398 78.5181 51.3436C78.5181 50.7255 78.767 50.1246 79.2048 49.6868C79.6426 49.249 80.2436 49 80.8616 49C82.1579 49 83.2052 50.0473 83.2052 51.3436C83.2052 52.6398 82.1579 53.6872 80.8616 53.6872Z" fill="#00B39F"/>
<path d="M80.8616 54.8804C80.8616 54.5885 80.8702 54.434 80.8788 54.2881C80.8874 54.1421 80.896 53.9876 80.896 53.6957" stroke="#359AC0" stroke-miterlimit="10" stroke-linejoin="round"/>
<path d="M76.8012 57.224C77.2304 57.224 77.445 55.756 77.6596 54.2881C77.8742 52.8201 78.0888 51.3522 78.5181 51.3522" stroke="#359AC0" stroke-miterlimit="10" stroke-linejoin="round"/>
<path d="M80.7243 83.7674C79.428 83.7674 78.3807 82.7201 78.3807 81.4238C78.3807 80.8058 78.6297 80.2048 79.0675 79.767C79.5053 79.3292 80.1062 79.0803 80.7243 79.0803C82.0206 79.0803 83.0679 80.1276 83.0679 81.4238C83.0679 82.7201 82.0206 83.7674 80.7243 83.7674Z" fill="#00B39F"/>
<path d="M74.3202 77.887C73.024 77.887 71.9766 76.8397 71.9766 75.5434C71.9766 74.9253 72.2256 74.3244 72.6634 73.8866C73.1012 73.4488 73.7021 73.1998 74.3202 73.1998C75.6165 73.1998 76.6638 74.2471 76.6638 75.5434C76.6638 76.8397 75.6165 77.887 74.3202 77.887Z" fill="#00B39F"/>
<path d="M80.7243 77.887C79.428 77.887 78.3807 76.8397 78.3807 75.5434C78.3807 74.9253 78.6297 74.3244 79.0675 73.8866C79.5053 73.4488 80.1062 73.1998 80.7243 73.1998C82.0206 73.1998 83.0679 74.2471 83.0679 75.5434C83.0679 76.8397 82.0206 77.887 80.7243 77.887Z" fill="#00B39F"/>
<path d="M78.3807 81.4238C77.9515 81.4238 77.7369 79.9559 77.5308 78.4879C77.3162 77.02 77.1016 75.552 76.6724 75.552" stroke="#CD502F" stroke-miterlimit="10" stroke-linejoin="round"/>
<path d="M76.6638 75.5434C77.093 75.5434 77.3076 75.552 77.5137 75.5606C77.7283 75.5692 77.9429 75.5778 78.3721 75.5778" stroke="#CD502F" stroke-miterlimit="10" stroke-linejoin="round"/>
<path d="M80.7243 79.0803C80.7243 78.7884 80.7329 78.6339 80.7415 78.4879C80.7501 78.342 80.7586 78.1875 80.7586 77.8956" stroke="#CD502F" stroke-miterlimit="10" stroke-linejoin="round"/>
<path d="M80.7329 72.0152C79.4366 72.0152 78.3893 70.9679 78.3893 69.6716C78.3893 69.0535 78.6382 68.4526 79.0761 68.0148C79.5139 67.577 80.1148 67.328 80.7329 67.328C82.0291 67.328 83.0765 68.3753 83.0765 69.6716C83.0765 70.9679 82.0291 72.0152 80.7329 72.0152Z" fill="#00B39F"/>
<path d="M80.7243 73.1998C80.7243 72.908 80.7329 72.7534 80.7415 72.6075C80.7501 72.4616 80.7586 72.307 80.7586 72.0152" stroke="#DFE300" stroke-miterlimit="10" stroke-linejoin="round"/>
<path d="M76.6638 75.5434C77.093 75.5434 77.3076 74.0755 77.5223 72.6075C77.7369 71.1396 77.9515 69.6716 78.3807 69.6716" stroke="#DFE300" stroke-miterlimit="10" stroke-linejoin="round"/>
<circle cx="65.1377" cy="74.2391" r="2.30435" stroke="#CD502F"/>
<path d="M66.0725 74.8623C68.1336 75.7516 69.6111 75.4092 71.6812 75.7971" stroke="#DFE300"/>
</g>
<path d="M37.4325 46.7423C38.0784 47.2973 38.1415 47.5634 37.7225 48.3539C36.9486 49.8282 36.6231 51.4968 36.7862 53.1538C36.7771 53.2944 36.8163 53.4339 36.8974 53.5492C36.9784 53.6644 37.0964 53.7485 37.2318 53.7875C38.5051 54.2538 39.6389 55.0363 40.5264 56.0615C40.5947 56.1617 40.6933 56.2374 40.8077 56.2775C40.9221 56.3177 41.0463 56.3201 41.1622 56.2845C42.7779 55.9567 44.2622 55.163 45.4319 54.0013C45.5447 53.8488 45.6975 53.7303 45.8733 53.659C46.0492 53.5876 46.2413 53.5662 46.4285 53.597C47.1497 53.7722 47.3419 54.6017 46.7776 55.1693C45.5549 56.4284 44.0171 57.3368 42.3243 57.7999C41.8758 57.9207 41.8335 58.0559 41.9843 58.4738C42.7482 60.5891 42.592 62.5733 41.0096 64.2997C40.8275 64.4984 40.8782 64.6182 40.9931 64.8007C42.5193 67.1652 43.4671 69.856 43.7596 72.6551C43.8877 73.9501 43.9018 75.2491 43.3817 76.4823C42.8817 77.6679 42.06 78.4776 40.7259 78.6547C40.7063 78.6573 40.6933 78.7093 40.6772 78.7382H39.0549C39.0327 78.5902 38.8955 78.6059 38.8046 78.5819C37.098 78.0946 35.5807 77.0983 34.4552 75.7261C34.2103 75.4468 34.0891 75.4302 33.7957 75.6571C32.8597 76.4263 31.7493 76.954 30.5619 77.1939C29.3745 77.4338 28.1463 77.3786 26.9852 77.0331C26.3782 76.8678 25.8337 76.3282 25.1956 76.5056C24.5729 76.7363 23.9734 77.0256 23.4052 77.3695C23.02 77.5625 22.6423 77.7728 22.2473 77.943C22.1162 77.9995 21.82 78.1786 21.9043 77.7517C22.1022 76.7492 22.2894 75.7445 22.4888 74.7423C22.5224 74.5968 22.5186 74.4452 22.4778 74.3017C22.4369 74.1581 22.3604 74.0272 22.2552 73.9213C20.2588 71.5653 19.7524 68.9295 20.8776 66.0293C21.0261 65.6468 20.9325 65.5355 20.5887 65.3743C18.922 64.6612 17.5254 63.4365 16.6008 61.8772C16.3679 61.466 16.2101 61.0125 16.0177 60.5784V59.065C16.1493 58.7788 16.2615 58.4815 16.4159 58.2081C17.0543 57.0778 18.0886 56.451 19.2763 56.0599C22.2617 55.1163 25.4546 55.045 28.4791 55.8544C29.2625 56.0459 29.6708 56.0084 30.1855 55.2835C31.2237 53.8209 32.8116 53.301 34.5709 53.2806C34.8191 53.2777 35.0523 53.3475 35.0159 52.9136C34.8751 51.0582 35.2607 49.2007 36.1284 47.5546C36.2755 47.2333 36.5007 46.954 36.7836 46.7423L37.4325 46.7423ZM18.737 58.2842C17.7732 58.9121 17.5291 59.8332 18.0489 60.8272C18.1443 61.0096 18.208 61.1058 18.441 60.9995C18.9594 60.7631 19.4937 60.5613 20.0214 60.3454C20.396 60.2718 20.7605 60.1539 21.1071 59.9941C20.5875 59.5558 20.1529 59.0256 19.8252 58.4299C19.4734 57.8096 19.4709 57.8105 18.8565 58.1843C18.8141 58.2145 18.7742 58.2479 18.737 58.2842ZM41.8401 75.5179C41.8854 75.3263 41.9376 75.1359 41.9736 74.9425C42.0014 74.7931 41.9969 74.6601 41.7876 74.6312C40.9749 74.5005 40.1949 74.2143 39.4906 73.7883V74.9207C39.4279 75.4695 39.3778 76.0201 39.2968 76.5662C39.2609 76.808 39.3015 76.8969 39.5661 76.9433C40.6947 77.1412 41.4832 76.6599 41.8401 75.5179ZM37.6298 76.199C37.7188 76.2594 37.8047 76.3248 37.8971 76.3794C38.4641 76.7144 38.53 76.6865 38.5993 76.0474C38.7169 74.993 38.7157 73.9288 38.5957 72.8747C38.5154 71.9582 38.3341 71.0534 38.0551 70.1768C37.4677 71.2457 36.5424 72.0898 35.4242 72.5768C34.6531 72.9242 34.6531 72.9242 35.1359 73.6289C35.1475 73.6426 35.1606 73.655 35.1749 73.6659C35.7774 74.6956 36.6196 75.5645 37.6298 76.199ZM19.3527 62.4388C20.2086 63.2592 21.2573 63.8509 22.4021 64.1593C22.4999 64.1973 22.5953 64.2432 22.6957 64.2722C23.3258 64.454 23.3147 64.4517 23.3744 63.8098C23.4652 62.7096 23.884 61.662 24.5767 60.8024C24.678 60.6762 24.8813 60.5976 24.8469 60.354C23.0095 60.3849 21.1917 60.7375 19.476 61.3956C19.2174 61.4976 18.7911 61.5429 18.7712 61.7928C18.7503 62.0559 19.0883 62.2781 19.3527 62.4388ZM37.1318 70.1124C37.4292 69.7048 37.7835 69.2537 37.6373 68.7533C37.1345 67.1224 36.4426 65.5559 35.5758 64.0857C35.3395 64.4395 35.0462 64.654 34.9395 65.0105C34.4949 65.6629 34.1865 66.3983 34.0331 67.1727C33.6071 68.6887 33.6628 70.2995 34.1925 71.7824C34.2718 71.9912 34.317 72.1736 34.6327 72.0483C35.6563 71.6421 36.5606 71.0958 37.1318 70.1124ZM30.829 61.8957C31.0971 61.658 31.3065 61.3615 31.441 61.0294C29.9968 60.7059 28.5318 60.4828 27.0568 60.3618C26.7107 60.3203 26.36 60.3801 26.0473 60.534C25.7345 60.6879 25.4732 60.9292 25.295 61.2288C24.479 62.0779 24.2039 63.1325 24.1256 64.2672C24.1048 64.5675 24.2783 64.5755 24.4921 64.577C25.6789 64.6106 26.859 64.3886 27.9523 63.9259C29.0457 63.4633 30.0268 62.7709 30.829 61.8957ZM29.1146 75.5716C30.4959 75.5515 31.8263 75.0467 32.8732 74.1454C33.0517 73.997 33.189 73.8734 33.022 73.613C32.8733 73.3812 32.8479 73.1321 32.4223 73.1827C30.6911 73.401 28.9375 73.015 27.4579 72.0899C26.4698 71.5254 25.6186 70.7494 24.9655 69.8175C24.3124 68.8855 23.8734 67.8207 23.6799 66.6992C23.6015 66.2605 23.3581 66.2441 23.0301 66.166C22.6294 66.0707 22.6184 66.3781 22.5323 66.5766C22.258 67.204 22.0994 67.8758 22.0639 68.5596C21.8684 72.3111 25.817 75.5597 29.1146 75.5716ZM42.0438 73.4729C41.8744 70.9404 41.1117 68.4833 39.8172 66.3001C39.3354 65.3942 38.7222 64.5646 37.9975 63.8382C37.8297 63.6613 37.6185 63.5315 37.385 63.4613C37.1515 63.3912 36.9037 63.3834 36.6662 63.4385C36.3083 63.5153 36.2157 63.6194 36.4266 63.9965C37.8228 66.3882 38.7659 69.0168 39.2088 71.7506C39.2523 72.1306 39.4013 72.4909 39.639 72.7906C39.8766 73.0904 40.1933 73.3177 40.5534 73.4469C40.9173 73.5979 41.2924 73.7207 41.6753 73.8139C42.0353 73.9183 42.0902 73.7772 42.0438 73.4729ZM24.1205 57.1013C22.9499 57.0837 21.7819 57.2151 20.6445 57.4924C20.3792 57.5563 20.2789 57.6286 20.4378 57.913C20.7869 58.6066 21.31 59.1978 21.9559 59.6287C22.1296 59.7565 22.3458 59.8125 22.5597 59.7852C25.4883 59.3707 28.4689 59.5125 31.3449 60.2032C31.7717 60.2996 31.8458 60.177 31.8162 59.8047C31.7518 58.9932 31.1713 58.6402 30.5278 58.3654C28.4958 57.5271 26.3186 57.0976 24.1205 57.1013ZM31.4738 69.323C31.8917 69.4236 32.0288 69.2188 32.029 68.7471C32.0525 67.741 32.2409 66.7457 32.5865 65.8006C32.8963 64.8862 32.9048 64.8896 32.1188 64.2842C31.9994 64.2041 31.8888 64.1117 31.7887 64.0085C31.5921 63.7754 31.4327 63.8113 31.2106 63.9953C30.2469 64.807 29.1312 65.4185 27.9285 65.7942C27.5315 65.9159 27.5372 66.1146 27.6272 66.4269C27.9053 67.2389 28.4205 67.9488 29.1062 68.4651C29.7919 68.9813 30.6166 69.2802 31.4738 69.323Z" fill="black"/>
<path d="M29.1147 75.5717C25.817 75.5597 21.8684 72.3111 22.0639 68.5596C22.0993 67.8758 22.258 67.204 22.5323 66.5766C22.6184 66.3781 22.6293 66.0707 23.03 66.166C23.3581 66.2441 23.6015 66.2605 23.6799 66.6992C23.8733 67.8207 24.3123 68.8855 24.9655 69.8175C25.6186 70.7494 26.4698 71.5254 27.4579 72.0899C28.9375 73.015 30.691 73.401 32.4223 73.1827C32.8479 73.1321 32.8733 73.3812 33.022 73.613C33.189 73.8734 33.0517 73.997 32.8732 74.1454C31.8262 75.0467 30.4959 75.5515 29.1147 75.5717V75.5717Z" fill="#FBE04C"/>
<path d="M42.0438 73.4729C42.0902 73.7772 42.0353 73.9183 41.6753 73.8139C41.2924 73.7207 40.9174 73.5979 40.5534 73.4469C40.1933 73.3177 39.8766 73.0904 39.639 72.7906C39.4014 72.4909 39.2524 72.1306 39.2088 71.7505C38.7659 69.0168 37.8228 66.3882 36.4266 63.9965C36.2157 63.6193 36.3083 63.5153 36.6662 63.4385C36.9037 63.3834 37.1515 63.3912 37.385 63.4613C37.6185 63.5314 37.8297 63.6613 37.9976 63.8382C38.7222 64.5646 39.3354 65.3942 39.8173 66.3001C41.1117 68.4833 41.8744 70.9404 42.0438 73.4729V73.4729ZM24.1205 57.1013C26.3186 57.0976 28.4958 57.5271 30.5278 58.3653C31.1714 58.6402 31.7518 58.9932 31.8162 59.8047C31.8458 60.177 31.7717 60.2996 31.345 60.2031C28.4689 59.5125 25.4883 59.3707 22.5597 59.7852C22.3458 59.8125 22.1296 59.7565 21.9559 59.6287C21.31 59.1977 20.7869 58.6066 20.4378 57.913C20.2789 57.6286 20.3791 57.5563 20.6445 57.4924C21.7819 57.2151 22.9499 57.0837 24.1205 57.1013V57.1013Z" fill="#DEF0FC"/>
<path d="M31.4738 69.323C30.6166 69.2802 29.7919 68.9813 29.1062 68.4651C28.4205 67.9488 27.9053 67.2389 27.6272 66.4269C27.5372 66.1146 27.5315 65.9159 27.9286 65.7942C29.1312 65.4185 30.2469 64.807 31.2106 63.9953C31.4328 63.8112 31.5921 63.7754 31.7887 64.0085C31.8888 64.1117 31.9995 64.2041 32.1188 64.2842C32.9048 64.8896 32.8963 64.8862 32.5866 65.8006C32.2409 66.7457 32.0525 67.741 32.029 68.7471C32.0288 69.2188 31.8917 69.4236 31.4738 69.323V69.323Z" fill="#FBE04C"/>
<path d="M30.829 61.8957C30.0268 62.7709 29.0457 63.4633 27.9523 63.9259C26.859 64.3886 25.6789 64.6106 24.4921 64.577C24.2783 64.5755 24.1048 64.5676 24.1256 64.2673C24.2039 63.1325 24.479 62.0779 25.295 61.2288C27.1581 61.2549 29.0131 61.4785 30.829 61.8957V61.8957ZM37.1317 70.1125C36.5605 71.0958 35.6563 71.6422 34.6327 72.0483C34.317 72.1736 34.2717 71.9912 34.1925 71.7824C33.6628 70.2996 33.6071 68.6887 34.0331 67.1728C34.1865 66.3983 34.4948 65.6629 34.9395 65.0106C35.0435 65.1762 35.158 65.3363 35.2497 65.5085C36.028 66.977 36.6584 68.5193 37.1317 70.1125V70.1125Z" fill="#DEF0FC"/>
<path d="M19.3527 62.4389C19.0883 62.2781 18.7503 62.0559 18.7712 61.7928C18.7911 61.543 19.2174 61.4976 19.476 61.3957C21.1917 60.7375 23.0095 60.385 24.8469 60.354C24.8812 60.5976 24.678 60.6762 24.5767 60.8025C23.884 61.662 23.4652 62.7097 23.3744 63.8099C23.3147 64.4517 23.3258 64.454 22.6957 64.2722C22.5953 64.2433 22.4999 64.1974 22.4021 64.1593C22.4446 63.2248 22.641 62.3038 22.9833 61.4332C21.7325 61.5994 20.5107 61.9378 19.3527 62.4389V62.4389ZM35.1749 73.666C35.1606 73.655 35.1475 73.6426 35.1359 73.6289C34.653 72.9242 34.6531 72.9242 35.4242 72.5768C36.5424 72.0898 37.4676 71.2457 38.055 70.1768C38.334 71.0534 38.5154 71.9582 38.5957 72.8747C38.7157 73.9288 38.7169 74.9931 38.5993 76.0474C38.53 76.6865 38.464 76.7144 37.8971 76.3794C37.8047 76.3248 37.7187 76.2594 37.6298 76.199C37.803 75.0433 37.809 73.8687 37.6477 72.7113C37.6104 72.3466 37.456 72.4495 37.2729 72.5935C36.6394 73.0674 35.93 73.4301 35.1749 73.666V73.666Z" fill="#4BADE9"/>
<path d="M35.1749 73.6659C35.93 73.4301 36.6394 73.0674 37.2729 72.5935C37.456 72.4495 37.6104 72.3466 37.6477 72.7113C37.8091 73.8687 37.803 75.0433 37.6298 76.199C36.6196 75.5645 35.7774 74.6956 35.1749 73.6659ZM19.3527 62.4388C20.5107 61.9378 21.7325 61.5994 22.9833 61.4332C22.641 62.3037 22.4446 63.2248 22.4021 64.1593C21.2573 63.8509 20.2086 63.2592 19.3527 62.4388V62.4388Z" fill="#DEF0FC"/>
<path d="M30.829 61.8957C29.0131 61.4785 27.1581 61.2549 25.295 61.2288C25.4733 60.9292 25.7346 60.6879 26.0473 60.534C26.36 60.3801 26.7107 60.3203 27.0568 60.3618C28.5318 60.4829 29.9968 60.706 31.441 61.0295C31.3065 61.3615 31.0971 61.658 30.829 61.8957ZM37.1318 70.1125C36.6584 68.5193 36.028 66.977 35.2497 65.5085C35.158 65.3363 35.0435 65.1762 34.9395 65.0106C35.0463 64.654 35.3395 64.4396 35.5758 64.0857C36.4426 65.5559 37.1345 67.1224 37.6373 68.7533C37.7835 69.2537 37.4292 69.7048 37.1318 70.1125V70.1125Z" fill="#4BADE9"/>
<path d="M41.8401 75.5179C41.4832 76.6599 40.6947 77.1412 39.5661 76.9433C39.3015 76.8969 39.2609 76.808 39.2968 76.5662C39.3778 76.0201 39.4279 75.4694 39.4905 74.9208C40.2369 75.2439 41.0301 75.4455 41.8401 75.5179V75.5179ZM20.0215 60.3454C19.4937 60.5613 18.9595 60.7631 18.441 60.9995C18.208 61.1058 18.1443 61.0096 18.0489 60.8272C17.5292 59.8332 17.7732 58.9122 18.7369 58.2843C19.067 59.0278 19.4994 59.7215 20.0215 60.3454V60.3454Z" fill="#DEF0FC"/>
<path d="M20.0215 60.3454C19.4994 59.7215 19.067 59.0278 18.7369 58.2843C18.7741 58.2479 18.8141 58.2145 18.8565 58.1843C19.4709 57.8104 19.4734 57.8096 19.8252 58.4299C20.1529 59.0256 20.5875 59.5558 21.1071 59.9941C20.7605 60.1539 20.396 60.2718 20.0215 60.3454V60.3454ZM41.8401 75.5179C41.0301 75.4454 40.2369 75.2438 39.4905 74.9208C39.4906 74.5624 39.4906 74.2041 39.4906 73.7883C40.1949 74.2143 40.9749 74.5005 41.7876 74.6312C41.9969 74.66 42.0014 74.7931 41.9736 74.9425C41.9376 75.1359 41.8854 75.3262 41.8401 75.5179V75.5179Z" fill="#4BADE9"/>
<path d="M52.0933 105.538C52.2808 105.699 52.2991 105.776 52.1775 106.006C51.9528 106.434 51.8583 106.918 51.9057 107.4C51.903 107.44 51.9144 107.481 51.9379 107.514C51.9615 107.548 51.9957 107.572 52.035 107.583C52.4047 107.719 52.7339 107.946 52.9915 108.244C53.0114 108.273 53.04 108.295 53.0732 108.306C53.1064 108.318 53.1425 108.319 53.1761 108.308C53.6452 108.213 54.0761 107.983 54.4157 107.646C54.4485 107.601 54.4928 107.567 54.5439 107.546C54.5949 107.525 54.6507 107.519 54.705 107.528C54.9144 107.579 54.9702 107.82 54.8064 107.985C54.4514 108.35 54.005 108.614 53.5135 108.748C53.3833 108.783 53.371 108.823 53.4148 108.944C53.6366 109.558 53.5912 110.134 53.1318 110.635C53.0789 110.693 53.0937 110.728 53.127 110.781C53.5701 111.467 53.8453 112.249 53.9302 113.061C53.9674 113.437 53.9715 113.814 53.8205 114.172C53.6753 114.516 53.4368 114.752 53.0495 114.803C53.0438 114.804 53.04 114.819 53.0353 114.827H52.5643C52.5579 114.784 52.518 114.789 52.4917 114.782C51.9962 114.64 51.5557 114.351 51.2289 113.953C51.1578 113.872 51.1226 113.867 51.0374 113.933C50.7657 114.156 50.4434 114.309 50.0986 114.379C49.7539 114.449 49.3973 114.433 49.0602 114.332C48.884 114.284 48.7259 114.128 48.5407 114.179C48.3599 114.246 48.1858 114.33 48.0209 114.43C47.909 114.486 47.7994 114.547 47.6847 114.596C47.6467 114.613 47.5606 114.665 47.5851 114.541C47.6426 114.25 47.6969 113.958 47.7548 113.667C47.7646 113.625 47.7635 113.581 47.7516 113.539C47.7398 113.498 47.7175 113.46 47.687 113.429C47.1074 112.745 46.9604 111.98 47.2871 111.138C47.3301 111.026 47.303 110.994 47.2032 110.947C46.7193 110.74 46.3138 110.385 46.0454 109.932C45.9778 109.813 45.932 109.681 45.8761 109.555V109.116C45.9143 109.033 45.9469 108.946 45.9917 108.867C46.1771 108.539 46.4773 108.357 46.8222 108.243C47.6889 107.969 48.6158 107.949 49.4939 108.184C49.7214 108.239 49.8399 108.228 49.9893 108.018C50.2908 107.593 50.7518 107.442 51.2625 107.436C51.3346 107.435 51.4023 107.456 51.3917 107.33C51.3508 106.791 51.4628 106.252 51.7147 105.774C51.7574 105.681 51.8228 105.6 51.9049 105.538L52.0933 105.538ZM46.6656 108.889C46.3858 109.071 46.3149 109.339 46.4658 109.627C46.4935 109.68 46.512 109.708 46.5796 109.677C46.7302 109.609 46.8853 109.55 47.0385 109.487C47.1472 109.466 47.253 109.432 47.3537 109.385C47.2028 109.258 47.0767 109.104 46.9815 108.931C46.8794 108.751 46.8787 108.751 46.7003 108.86C46.688 108.869 46.6764 108.878 46.6656 108.889ZM53.3729 113.892C53.3861 113.837 53.4012 113.781 53.4117 113.725C53.4198 113.682 53.4184 113.643 53.3577 113.635C53.1217 113.597 52.8953 113.514 52.6908 113.39V113.719C52.6726 113.878 52.6581 114.038 52.6345 114.197C52.6241 114.267 52.6359 114.293 52.7127 114.306C53.0404 114.364 53.2693 114.224 53.3729 113.892ZM52.1506 114.09C52.1764 114.108 52.2014 114.127 52.2282 114.142C52.3928 114.24 52.4119 114.232 52.4321 114.046C52.4662 113.74 52.4659 113.431 52.431 113.125C52.4077 112.859 52.3551 112.596 52.274 112.342C52.1035 112.652 51.8349 112.897 51.5102 113.038C51.2864 113.139 51.2864 113.139 51.4266 113.344C51.4299 113.348 51.4337 113.351 51.4379 113.355C51.6128 113.654 51.8573 113.906 52.1506 114.09ZM46.8443 110.095C47.0928 110.333 47.3973 110.505 47.7296 110.595C47.758 110.606 47.7857 110.619 47.8149 110.627C47.9978 110.68 47.9946 110.68 48.0119 110.493C48.0383 110.174 48.1599 109.87 48.361 109.62C48.3904 109.583 48.4494 109.561 48.4394 109.49C47.906 109.499 47.3782 109.601 46.8801 109.792C46.805 109.822 46.6813 109.835 46.6755 109.908C46.6694 109.984 46.7676 110.048 46.8443 110.095ZM52.006 112.323C52.0924 112.205 52.1952 112.074 52.1528 111.928C52.0068 111.455 51.8059 111 51.5543 110.573C51.4856 110.676 51.4005 110.738 51.3695 110.842C51.2404 111.031 51.1509 111.245 51.1064 111.47C50.9827 111.91 50.9989 112.377 51.1527 112.808C51.1757 112.868 51.1888 112.921 51.2805 112.885C51.5776 112.767 51.8402 112.608 52.006 112.323ZM50.1762 109.937C50.254 109.868 50.3148 109.782 50.3538 109.686C49.9345 109.592 49.5092 109.527 49.081 109.492C48.9805 109.48 48.8787 109.497 48.7879 109.542C48.6971 109.587 48.6212 109.657 48.5695 109.744C48.3326 109.99 48.2527 110.297 48.23 110.626C48.224 110.713 48.2743 110.715 48.3364 110.716C48.681 110.726 49.0236 110.661 49.341 110.527C49.6584 110.393 49.9433 110.192 50.1762 109.937ZM49.6784 113.908C50.0795 113.902 50.4657 113.755 50.7696 113.494C50.8215 113.451 50.8613 113.415 50.8128 113.339C50.7697 113.272 50.7623 113.2 50.6387 113.214C50.1361 113.278 49.627 113.166 49.1975 112.897C48.9106 112.733 48.6635 112.508 48.4739 112.237C48.2842 111.967 48.1568 111.658 48.1006 111.332C48.0779 111.205 48.0072 111.2 47.912 111.177C47.7956 111.15 47.7924 111.239 47.7674 111.296C47.6878 111.479 47.6417 111.674 47.6315 111.872C47.5747 112.961 48.7211 113.904 49.6784 113.908ZM53.4321 113.299C53.3829 112.563 53.1615 111.85 52.7856 111.216C52.6458 110.953 52.4677 110.712 52.2574 110.501C52.2086 110.45 52.1473 110.412 52.0795 110.392C52.0117 110.372 51.9398 110.369 51.8708 110.385C51.7669 110.408 51.74 110.438 51.8013 110.547C52.2066 111.242 52.4804 112.005 52.609 112.799C52.6216 112.909 52.6649 113.013 52.7339 113.101C52.8029 113.188 52.8948 113.254 52.9994 113.291C53.105 113.335 53.2139 113.371 53.3251 113.398C53.4296 113.428 53.4455 113.387 53.4321 113.299ZM48.2285 108.546C47.8887 108.54 47.5496 108.579 47.2194 108.659C47.1423 108.678 47.1132 108.699 47.1594 108.781C47.2607 108.983 47.4126 109.154 47.6001 109.279C47.6505 109.316 47.7133 109.333 47.7754 109.325C48.6256 109.204 49.491 109.246 50.326 109.446C50.4498 109.474 50.4714 109.439 50.4628 109.33C50.4441 109.095 50.2756 108.992 50.0887 108.913C49.4988 108.669 48.8667 108.544 48.2285 108.546ZM50.3634 112.094C50.4847 112.123 50.5245 112.064 50.5245 111.927C50.5314 111.634 50.5861 111.346 50.6864 111.071C50.7763 110.806 50.7788 110.807 50.5506 110.631C50.516 110.608 50.4838 110.581 50.4548 110.551C50.3977 110.483 50.3514 110.494 50.2869 110.547C50.0072 110.783 49.6832 110.96 49.3341 111.069C49.2188 111.105 49.2205 111.162 49.2466 111.253C49.3274 111.489 49.4769 111.695 49.676 111.845C49.8751 111.995 50.1145 112.081 50.3634 112.094Z" fill="black"/>
<path d="M49.6784 113.908C48.721 113.904 47.5747 112.961 47.6315 111.872C47.6417 111.674 47.6878 111.479 47.7674 111.296C47.7924 111.239 47.7956 111.15 47.9119 111.177C48.0072 111.2 48.0779 111.205 48.1006 111.332C48.1568 111.658 48.2842 111.967 48.4738 112.237C48.6635 112.508 48.9106 112.733 49.1975 112.897C49.627 113.166 50.1361 113.278 50.6387 113.214C50.7623 113.2 50.7696 113.272 50.8128 113.339C50.8613 113.415 50.8215 113.451 50.7696 113.494C50.4657 113.756 50.0795 113.902 49.6784 113.908V113.908Z" fill="#FBE04C"/>
<path d="M53.4321 113.299C53.4455 113.387 53.4296 113.428 53.3251 113.398C53.2139 113.371 53.105 113.335 52.9994 113.291C52.8948 113.254 52.8029 113.188 52.7339 113.101C52.6649 113.013 52.6217 112.909 52.609 112.799C52.4804 112.005 52.2066 111.242 51.8013 110.547C51.74 110.438 51.7669 110.408 51.8708 110.385C51.9398 110.369 52.0117 110.372 52.0795 110.392C52.1473 110.412 52.2086 110.45 52.2574 110.501C52.4677 110.712 52.6458 110.953 52.7857 111.216C53.1615 111.85 53.3829 112.563 53.4321 113.299V113.299ZM48.2285 108.546C48.8667 108.544 49.4988 108.669 50.0887 108.913C50.2756 108.992 50.4441 109.095 50.4628 109.33C50.4714 109.439 50.4498 109.474 50.326 109.446C49.491 109.246 48.6256 109.204 47.7754 109.325C47.7133 109.333 47.6505 109.316 47.6001 109.279C47.4126 109.154 47.2607 108.983 47.1594 108.781C47.1132 108.699 47.1423 108.678 47.2194 108.659C47.5496 108.579 47.8887 108.54 48.2285 108.546V108.546Z" fill="#DEF0FC"/>
<path d="M50.3634 112.094C50.1145 112.081 49.8751 111.995 49.676 111.845C49.4769 111.695 49.3274 111.489 49.2466 111.253C49.2205 111.162 49.2188 111.105 49.3341 111.069C49.6833 110.96 50.0072 110.783 50.287 110.547C50.3514 110.494 50.3977 110.483 50.4548 110.551C50.4838 110.581 50.516 110.608 50.5506 110.631C50.7788 110.807 50.7763 110.806 50.6864 111.071C50.5861 111.345 50.5314 111.634 50.5246 111.927C50.5245 112.064 50.4847 112.123 50.3634 112.094V112.094Z" fill="#FBE04C"/>
<path d="M50.1762 109.937C49.9433 110.192 49.6584 110.393 49.341 110.527C49.0236 110.661 48.681 110.726 48.3364 110.716C48.2743 110.715 48.224 110.713 48.23 110.626C48.2527 110.297 48.3326 109.99 48.5695 109.744C49.1104 109.751 49.649 109.816 50.1762 109.937V109.937ZM52.006 112.323C51.8402 112.608 51.5776 112.767 51.2804 112.885C51.1888 112.921 51.1757 112.868 51.1527 112.808C50.9989 112.377 50.9827 111.91 51.1064 111.47C51.1509 111.245 51.2404 111.031 51.3695 110.842C51.3997 110.89 51.433 110.936 51.4596 110.986C51.6855 111.413 51.8686 111.86 52.006 112.323V112.323Z" fill="#DEF0FC"/>
<path d="M46.8443 110.095C46.7676 110.048 46.6694 109.984 46.6755 109.908C46.6813 109.835 46.805 109.822 46.8801 109.792C47.3782 109.601 47.906 109.499 48.4394 109.49C48.4494 109.561 48.3904 109.583 48.361 109.62C48.1599 109.87 48.0383 110.174 48.0119 110.493C47.9946 110.68 47.9978 110.68 47.8149 110.627C47.7857 110.619 47.758 110.606 47.7296 110.595C47.742 110.323 47.799 110.056 47.8984 109.803C47.5352 109.851 47.1805 109.95 46.8443 110.095V110.095ZM51.4379 113.355C51.4337 113.351 51.4299 113.348 51.4266 113.344C51.2864 113.139 51.2864 113.139 51.5102 113.038C51.8349 112.897 52.1035 112.652 52.274 112.342C52.3551 112.596 52.4077 112.859 52.431 113.125C52.4659 113.431 52.4662 113.74 52.4321 114.046C52.4119 114.232 52.3928 114.24 52.2282 114.142C52.2014 114.127 52.1764 114.108 52.1506 114.09C52.2009 113.754 52.2026 113.413 52.1558 113.077C52.145 112.972 52.1001 113.001 52.047 113.043C51.8631 113.181 51.6571 113.286 51.4379 113.355V113.355Z" fill="#4BADE9"/>
<path d="M51.4379 113.355C51.6571 113.286 51.8631 113.181 52.047 113.043C52.1001 113.001 52.145 112.972 52.1558 113.077C52.2026 113.413 52.2009 113.754 52.1506 114.09C51.8573 113.906 51.6128 113.654 51.4379 113.355ZM46.8443 110.095C47.1805 109.95 47.5352 109.851 47.8984 109.803C47.799 110.056 47.742 110.323 47.7296 110.595C47.3973 110.505 47.0928 110.333 46.8443 110.095V110.095Z" fill="#DEF0FC"/>
<path d="M50.1762 109.937C49.649 109.816 49.1104 109.751 48.5695 109.744C48.6213 109.657 48.6971 109.587 48.7879 109.542C48.8787 109.497 48.9805 109.48 49.081 109.492C49.5093 109.527 49.9346 109.592 50.3538 109.686C50.3148 109.782 50.254 109.868 50.1762 109.937ZM52.006 112.323C51.8686 111.86 51.6856 111.413 51.4596 110.986C51.433 110.936 51.3997 110.89 51.3695 110.842C51.4005 110.738 51.4857 110.676 51.5543 110.573C51.8059 111 52.0068 111.455 52.1528 111.928C52.1952 112.074 52.0924 112.205 52.006 112.323V112.323Z" fill="#4BADE9"/>
<path d="M53.3729 113.892C53.2693 114.224 53.0404 114.364 52.7127 114.306C52.6359 114.293 52.6241 114.267 52.6345 114.197C52.6581 114.038 52.6726 113.878 52.6908 113.719C52.9075 113.813 53.1378 113.871 53.3729 113.892V113.892ZM47.0385 109.487C46.8853 109.55 46.7302 109.609 46.5796 109.677C46.512 109.708 46.4935 109.68 46.4658 109.627C46.3149 109.339 46.3858 109.071 46.6656 108.889C46.7614 109.105 46.8869 109.306 47.0385 109.487V109.487Z" fill="#DEF0FC"/>
<path d="M47.0385 109.487C46.8869 109.306 46.7614 109.105 46.6656 108.889C46.6764 108.878 46.688 108.869 46.7003 108.86C46.8787 108.751 46.8794 108.751 46.9815 108.931C47.0767 109.104 47.2028 109.258 47.3537 109.385C47.253 109.432 47.1472 109.466 47.0385 109.487V109.487ZM53.3729 113.892C53.1378 113.871 52.9075 113.813 52.6908 113.719C52.6908 113.615 52.6908 113.511 52.6908 113.39C52.8953 113.514 53.1217 113.597 53.3577 113.635C53.4184 113.643 53.4198 113.682 53.4117 113.725C53.4012 113.781 53.3861 113.837 53.3729 113.892V113.892Z" fill="#4BADE9"/>
</g>
<defs>
<clipPath id="clip0_5562_24511">
<rect width="101" height="117" fill="white"/>
</clipPath>
<clipPath id="clip1_5562_24511">
<rect width="43" height="34.7674" fill="white" transform="translate(48 49)"/>
</clipPath>
</defs>
</svg>
