<svg width="102" height="117" viewBox="0 0 102 117" fill="none" xmlns="http://www.w3.org/2000/svg">
<path fill-rule="evenodd" clip-rule="evenodd" d="M1 12.8476C1 5.75208 6.75208 0 13.8476 0H88.8942C92.3015 0 95.5694 1.35358 97.9788 3.76297C100.388 6.17236 101.742 9.44022 101.742 12.8476V104.137C101.742 111.232 95.9897 116.984 88.8942 116.984H13.8476C6.75208 116.984 1 111.232 1 104.137V12.8476Z" fill="#EEEEEE"/>
<path d="M31.9021 35.2829V26.6892H35.5583C36.475 26.6892 37.1417 26.7673 37.5583 26.9236C37.975 27.0798 38.3083 27.3558 38.5583 27.7517C38.8083 28.1475 38.9333 28.5954 38.9333 29.0954C38.9333 29.7413 38.7406 30.2777 38.3552 30.7048C37.9802 31.1215 37.4177 31.3819 36.6677 31.4861C37.0427 31.7048 37.35 31.9496 37.5896 32.2204C37.8396 32.4808 38.1677 32.9444 38.574 33.6111L39.6365 35.2829H37.5583L36.3083 33.4079C35.8604 32.7413 35.5531 32.3246 35.3865 32.1579C35.2198 31.9808 35.0427 31.8611 34.8552 31.7986C34.6781 31.7256 34.3917 31.6892 33.9958 31.6892H33.6365V35.2829H31.9021ZM33.6365 30.3298H34.9177C35.7511 30.3298 36.2719 30.2933 36.4802 30.2204C36.6886 30.1475 36.85 30.0277 36.9646 29.8611C37.0896 29.684 37.1521 29.4652 37.1521 29.2048C37.1521 28.9236 37.074 28.6944 36.9177 28.5173C36.7615 28.3402 36.5427 28.2256 36.2615 28.1736C36.1156 28.1527 35.6938 28.1423 34.9958 28.1423H33.6365V30.3298ZM44.1619 33.2986L45.8025 33.5798C45.5942 34.184 45.2608 34.6423 44.8025 34.9548C44.3442 35.2673 43.7764 35.4236 43.0994 35.4236C42.016 35.4236 41.2139 35.0694 40.6931 34.3611C40.2764 33.7986 40.0681 33.085 40.0681 32.2204C40.0681 31.1892 40.3389 30.3819 40.8806 29.7986C41.4223 29.2152 42.1046 28.9236 42.9275 28.9236C43.8546 28.9236 44.5837 29.2308 45.115 29.8454C45.6567 30.4496 45.9119 31.3819 45.8806 32.6423H41.7556C41.7764 33.1319 41.9119 33.5121 42.1619 33.7829C42.4119 34.0538 42.7296 34.1892 43.115 34.1892C43.365 34.1892 43.5785 34.1215 43.7556 33.9861C43.9327 33.8402 44.0681 33.6111 44.1619 33.2986ZM44.2556 31.6423C44.2452 31.1631 44.1202 30.7986 43.8806 30.5486C43.6514 30.2986 43.365 30.1736 43.0212 30.1736C42.6671 30.1736 42.3702 30.3038 42.1306 30.5642C41.9014 30.835 41.7869 31.1944 41.7869 31.6423H44.2556ZM50.0857 29.0642V30.3767H48.9607V32.8767C48.9607 33.3871 48.9711 33.684 48.9919 33.7673C49.0128 33.8506 49.0597 33.9236 49.1326 33.9861C49.2159 34.0381 49.3097 34.0642 49.4138 34.0642C49.5701 34.0642 49.7888 34.0069 50.0701 33.8923L50.2107 35.1736C49.8357 35.3402 49.4034 35.4236 48.9138 35.4236C48.6222 35.4236 48.3565 35.3767 48.1169 35.2829C47.8774 35.1788 47.7003 35.0486 47.5857 34.8923C47.4815 34.7256 47.4034 34.5121 47.3513 34.2517C47.3201 34.0538 47.3044 33.6631 47.3044 33.0798V30.3767H46.5544V29.0642H47.3044V27.8298L48.9607 26.8611V29.0642H50.0857ZM52.8005 35.2829H51.1599V29.0642H52.6912V29.9392C52.9516 29.5225 53.186 29.2517 53.3943 29.1267C53.6026 28.9913 53.837 28.9236 54.0974 28.9236C54.4724 28.9236 54.837 29.0277 55.1912 29.2361L54.6755 30.6579C54.3943 30.4808 54.1391 30.3923 53.9099 30.3923C53.6703 30.3923 53.4724 30.46 53.3162 30.5954C53.1599 30.7204 53.0349 30.9496 52.9412 31.2829C52.8474 31.6058 52.8005 32.2986 52.8005 33.3611V35.2829ZM55.8923 28.2204V26.6892H57.5486V28.2204H55.8923ZM55.8923 35.2829V29.0642H57.5486V35.2829H55.8923ZM62.8357 33.2986L64.4763 33.5798C64.268 34.184 63.9347 34.6423 63.4763 34.9548C63.018 35.2673 62.4503 35.4236 61.7732 35.4236C60.6899 35.4236 59.8878 35.0694 59.3669 34.3611C58.9503 33.7986 58.7419 33.085 58.7419 32.2204C58.7419 31.1892 59.0128 30.3819 59.5544 29.7986C60.0961 29.2152 60.7784 28.9236 61.6013 28.9236C62.5284 28.9236 63.2576 29.2308 63.7888 29.8454C64.3305 30.4496 64.5857 31.3819 64.5544 32.6423H60.4294C60.4503 33.1319 60.5857 33.5121 60.8357 33.7829C61.0857 34.0538 61.4034 34.1892 61.7888 34.1892C62.0388 34.1892 62.2524 34.1215 62.4294 33.9861C62.6065 33.8402 62.7419 33.6111 62.8357 33.2986ZM62.9294 31.6423C62.919 31.1631 62.794 30.7986 62.5544 30.5486C62.3253 30.2986 62.0388 30.1736 61.6951 30.1736C61.3409 30.1736 61.044 30.3038 60.8044 30.5642C60.5753 30.835 60.4607 31.1944 60.4607 31.6423H62.9294ZM65.322 33.5017L66.9783 33.2517C67.0512 33.5746 67.1918 33.8194 67.4001 33.9861C67.6189 34.1527 67.921 34.2361 68.3064 34.2361C68.7335 34.2361 69.0512 34.1579 69.2595 34.0017C69.4054 33.8871 69.4783 33.7413 69.4783 33.5642C69.4783 33.4392 69.4418 33.335 69.3689 33.2517C69.2856 33.1683 69.1033 33.0954 68.822 33.0329C67.4887 32.7413 66.6449 32.4756 66.2908 32.2361C65.8012 31.8923 65.5564 31.4236 65.5564 30.8298C65.5564 30.2881 65.7647 29.835 66.1814 29.4704C66.6085 29.1058 67.2699 28.9236 68.1658 28.9236C69.0199 28.9236 69.6554 29.0642 70.072 29.3454C70.4887 29.6163 70.7751 30.0225 70.9314 30.5642L69.3689 30.8454C69.3064 30.6058 69.1814 30.4236 68.9939 30.2986C68.8064 30.1631 68.5408 30.0954 68.197 30.0954C67.7699 30.0954 67.4626 30.1579 67.2751 30.2829C67.1501 30.3663 67.0876 30.4756 67.0876 30.6111C67.0876 30.7361 67.1397 30.8402 67.2439 30.9236C67.3897 31.0277 67.9001 31.1788 68.7751 31.3767C69.6606 31.5746 70.2751 31.8194 70.6189 32.1111C70.9626 32.4027 71.1345 32.809 71.1345 33.3298C71.1345 33.9027 70.8949 34.3975 70.4158 34.8142C69.947 35.2204 69.2439 35.4236 68.3064 35.4236C67.4626 35.4236 66.7908 35.2517 66.2908 34.9079C65.8012 34.5642 65.4783 34.0954 65.322 33.5017Z" fill="black"/>
<path fill-rule="evenodd" clip-rule="evenodd" d="M59.1403 7.12103H90.6581C94.7871 7.12103 98.1342 9.16757 98.1342 11.6921C98.1342 14.2166 94.7871 16.2631 90.6581 16.2631H59.1403C55.0114 16.2631 51.6642 14.2166 51.6642 11.6921C51.6642 9.16757 55.0114 7.12103 59.1403 7.12103Z" fill="#CFE2F3"/>
<path d="M59.4798 13.8121V9.99957H61.1673C61.511 9.99957 61.7715 10.036 61.9485 10.1089C62.1256 10.1714 62.2663 10.2912 62.3704 10.4683C62.4746 10.635 62.5267 10.8277 62.5267 11.0464C62.5267 11.3069 62.4381 11.5308 62.261 11.7183C62.084 11.9058 61.8131 12.0256 61.4485 12.0777C61.584 12.1402 61.6881 12.2027 61.761 12.2652C61.9069 12.4006 62.0423 12.5725 62.1673 12.7808L62.8392 13.8121H62.1985L61.6985 13.0152C61.5527 12.786 61.4329 12.6142 61.3392 12.4996C61.2454 12.3746 61.1569 12.2912 61.0735 12.2496C61.0006 12.1975 60.9277 12.161 60.8548 12.1402C60.7923 12.1298 60.6985 12.1246 60.5735 12.1246H59.9798V13.8121H59.4798ZM59.9798 11.6871H61.0735C61.3027 11.6871 61.4798 11.661 61.6048 11.6089C61.7402 11.5569 61.8392 11.4787 61.9017 11.3746C61.9746 11.2704 62.011 11.161 62.011 11.0464C62.011 10.8589 61.9433 10.7079 61.8079 10.5933C61.6829 10.4787 61.4746 10.4214 61.1829 10.4214H59.9798V11.6871ZM63.3276 13.8121V9.99957H66.0776V10.4527H63.8276V11.6089H65.937V12.0621H63.8276V13.3589H66.1714V13.8121H63.3276ZM66.6939 12.5933L67.1783 12.5464C67.1991 12.7339 67.2512 12.8902 67.3346 13.0152C67.4179 13.1402 67.5429 13.2392 67.7096 13.3121C67.8866 13.385 68.0846 13.4214 68.3033 13.4214C68.4908 13.4214 68.6575 13.3954 68.8033 13.3433C68.9596 13.2808 69.0689 13.2027 69.1314 13.1089C69.2044 13.0048 69.2408 12.8954 69.2408 12.7808C69.2408 12.6558 69.2044 12.5517 69.1314 12.4683C69.0689 12.3746 68.9596 12.2964 68.8033 12.2339C68.6991 12.1923 68.47 12.1298 68.1158 12.0464C67.7721 11.9631 67.5273 11.885 67.3814 11.8121C67.2044 11.7183 67.0689 11.6037 66.9752 11.4683C66.8919 11.3225 66.8502 11.161 66.8502 10.9839C66.8502 10.7964 66.9023 10.6194 67.0064 10.4527C67.121 10.2756 67.2825 10.1454 67.4908 10.0621C67.6991 9.97874 67.9335 9.93707 68.1939 9.93707C68.4752 9.93707 68.72 9.98395 68.9283 10.0777C69.1471 10.161 69.3137 10.2912 69.4283 10.4683C69.5429 10.6454 69.6054 10.8485 69.6158 11.0777L69.1314 11.1089C69.1106 10.8694 69.0221 10.6871 68.8658 10.5621C68.72 10.4371 68.5012 10.3746 68.2096 10.3746C67.9075 10.3746 67.6835 10.4319 67.5377 10.5464C67.4023 10.661 67.3346 10.7964 67.3346 10.9527C67.3346 11.0881 67.3814 11.1975 67.4752 11.2808C67.5794 11.3746 67.8346 11.4683 68.2408 11.5621C68.6471 11.6558 68.9283 11.7339 69.0846 11.7964C69.3033 11.9006 69.4648 12.0308 69.5689 12.1871C69.6835 12.3433 69.7408 12.5256 69.7408 12.7339C69.7408 12.9423 69.6783 13.135 69.5533 13.3121C69.4387 13.4892 69.2721 13.6298 69.0533 13.7339C68.845 13.8277 68.6002 13.8746 68.3189 13.8746C67.9752 13.8746 67.6835 13.8277 67.4439 13.7339C67.2148 13.6298 67.0325 13.4787 66.8971 13.2808C66.7721 13.0725 66.7044 12.8433 66.6939 12.5933ZM70.5134 13.8121V9.99957H71.0134V13.8121H70.5134ZM71.8843 13.8121V9.99957H72.3843V13.3589H74.2593V13.8121H71.8843ZM74.957 13.8121V9.99957H75.457V13.8121H74.957ZM76.3592 13.8121V9.99957H79.1092V10.4527H76.8592V11.6089H78.9685V12.0621H76.8592V13.3589H79.2029V13.8121H76.3592ZM79.8974 13.8121V9.99957H80.413L82.413 12.9996V9.99957H82.8974V13.8121H82.3817L80.3817 10.8121V13.8121H79.8974ZM86.4639 12.4683L86.9796 12.6089C86.8754 13.0152 86.6827 13.3277 86.4014 13.5464C86.1306 13.7652 85.7973 13.8746 85.4014 13.8746C84.9848 13.8746 84.6462 13.7912 84.3858 13.6246C84.1358 13.4579 83.9431 13.2183 83.8077 12.9058C83.6723 12.5829 83.6046 12.2392 83.6046 11.8746C83.6046 11.4787 83.6775 11.135 83.8233 10.8433C83.9796 10.5412 84.1983 10.3173 84.4796 10.1714C84.7608 10.0152 85.0681 9.93707 85.4014 9.93707C85.7868 9.93707 86.1098 10.036 86.3702 10.2339C86.6306 10.4214 86.8129 10.6923 86.9171 11.0464L86.4171 11.1558C86.3233 10.885 86.1931 10.6871 86.0264 10.5621C85.8598 10.4267 85.6514 10.3589 85.4014 10.3589C85.0993 10.3589 84.8493 10.4319 84.6514 10.5777C84.4639 10.7131 84.3285 10.9006 84.2452 11.1402C84.1618 11.3798 84.1202 11.6246 84.1202 11.8746C84.1202 12.1975 84.1671 12.4839 84.2608 12.7339C84.3546 12.9735 84.5004 13.1558 84.6983 13.2808C84.9066 13.3954 85.1254 13.4527 85.3546 13.4527C85.6358 13.4527 85.8754 13.3694 86.0733 13.2027C86.2712 13.036 86.4014 12.7912 86.4639 12.4683ZM88.6711 13.8121V12.2027L87.2024 9.99957H87.8117L88.5617 11.1402C88.7076 11.3589 88.8378 11.5777 88.9524 11.7964C89.0669 11.5985 89.2076 11.3746 89.3742 11.1246L90.1086 9.99957H90.7024L89.1711 12.2027V13.8121H88.6711Z" fill="#0B5394"/>
<path d="M54.7878 81.9991C52.4481 81.9991 51.2773 76.8925 50.1083 71.7857C48.9394 66.679 47.7721 61.5723 45.4358 61.5723" stroke="#BF9000" stroke-width="2" stroke-miterlimit="10" stroke-linejoin="round"/>
<path fill-rule="evenodd" clip-rule="evenodd" d="M27.2431 50.8912C27.2431 48.764 28.9675 47.0396 31.0947 47.0396C32.1161 47.0396 33.0958 47.4454 33.8181 48.1677C34.5404 48.89 34.9462 49.8697 34.9462 50.8912C34.9462 53.0183 33.2218 54.7427 31.0947 54.7427C28.9675 54.7427 27.2431 53.0183 27.2431 50.8912Z" fill="#00B39F"/>
<path fill-rule="evenodd" clip-rule="evenodd" d="M15.4211 61.5663C15.4211 59.4391 17.1455 57.7147 19.2726 57.7147C20.2941 57.7147 21.2738 58.1205 21.9961 58.8428C22.7184 59.5651 23.1242 60.5448 23.1242 61.5663C23.1242 63.6934 21.3998 65.4178 19.2726 65.4178C17.1455 65.4178 15.4211 63.6934 15.4211 61.5663Z" fill="#00B39F"/>
<path d="M27.2431 50.8912C23.2562 50.8912 19.2693 54.2997 19.2693 57.7083" stroke="#359AC0" stroke-width="2" stroke-miterlimit="10" stroke-linejoin="round"/>
<path fill-rule="evenodd" clip-rule="evenodd" d="M80.5258 52.1201C78.6093 51.2026 77.7994 48.9053 78.7169 46.9887C79.1575 46.0684 79.9456 45.3608 80.9079 45.0216C81.8702 44.6824 82.9279 44.7393 83.8482 45.1799C85.7647 46.0973 86.5746 48.3947 85.6571 50.3112C84.7396 52.2277 82.4422 53.0375 80.5258 52.1201Z" fill="#00B39F"/>
<path fill-rule="evenodd" clip-rule="evenodd" d="M37.7257 61.5646C37.7257 59.4374 39.4501 57.713 41.5773 57.713C42.5988 57.713 43.5784 58.1188 44.3007 58.8411C45.023 59.5634 45.4288 60.5431 45.4288 61.5646C45.4288 63.6917 43.7044 65.4161 41.5773 65.4161C39.4501 65.4161 37.7257 63.6917 37.7257 61.5646Z" fill="#00B39F"/>
<path fill-rule="evenodd" clip-rule="evenodd" d="M27.2062 77.1796C27.2062 75.0524 28.9306 73.328 31.0577 73.328C32.0792 73.328 33.0589 73.7338 33.7812 74.4561C34.5035 75.1784 34.9093 76.1581 34.9093 77.1796C34.9093 79.3067 33.1849 81.0311 31.0577 81.0311C28.9306 81.0311 27.2062 79.3067 27.2062 77.1796Z" fill="#00B39F"/>
<path d="M41.5772 65.4161C41.5772 67.3941 38.95 68.3846 36.3229 69.3721C33.6957 70.3596 31.0685 71.3441 31.0685 73.3162" stroke="#359AC0" stroke-width="4" stroke-miterlimit="10" stroke-linejoin="round"/>
<path d="M78.5586 49.9291C77.1713 49.9291 76.4516 50.4274 75.784 50.9258C75.1165 51.4242 74.5011 51.9225 73.2181 51.9225" stroke="#359AC0" stroke-width="2" stroke-miterlimit="10" stroke-linejoin="round"/>
<path d="M31.0577 73.328C31.0577 71.3505 28.1105 70.3604 25.1634 69.3729C22.2163 68.3854 19.2692 67.4005 19.2692 65.428" stroke="#359AC0" stroke-width="2" stroke-miterlimit="10" stroke-linejoin="round"/>
<path d="M41.5773 57.713C41.5773 54.3044 38.2672 50.8959 34.957 50.8959" stroke="#359AC0" stroke-width="2" stroke-miterlimit="10" stroke-linejoin="round"/>
<path fill-rule="evenodd" clip-rule="evenodd" d="M69.3777 65.4114C67.2505 65.4114 65.5261 63.687 65.5261 61.5598C65.5261 60.5383 65.9319 59.5587 66.6542 58.8364C67.3766 58.114 68.3562 57.7083 69.3777 57.7083C71.5049 57.7083 73.2293 59.4327 73.2293 61.5598C73.2293 63.687 71.5049 65.4114 69.3777 65.4114Z" fill="#00B39F"/>
<path fill-rule="evenodd" clip-rule="evenodd" d="M58.8568 55.762C56.7296 55.762 55.0052 54.0376 55.0052 51.9104C55.0052 50.8889 55.411 49.9092 56.1334 49.187C56.8557 48.4646 57.8353 48.0588 58.8568 48.0588C60.984 48.0588 62.7084 49.7833 62.7084 51.9104C62.7084 54.0376 60.984 55.762 58.8568 55.762Z" fill="#00B39F"/>
<path fill-rule="evenodd" clip-rule="evenodd" d="M69.3777 55.762C67.2505 55.762 65.5261 54.0376 65.5261 51.9104C65.5261 50.8889 65.9319 49.9092 66.6542 49.187C67.3766 48.4646 68.3562 48.0588 69.3777 48.0588C71.5049 48.0588 73.2293 49.7833 73.2293 51.9104C73.2293 54.0376 71.5049 55.762 69.3777 55.762Z" fill="#00B39F"/>
<path d="M65.6029 61.5598C64.8985 61.5598 64.5447 59.148 64.194 56.7361C63.8433 54.3243 63.4957 51.9125 62.7973 51.9125" stroke="#359AC0" stroke-width="2" stroke-miterlimit="10" stroke-linejoin="round"/>
<path d="M69.4545 57.7083C69.4545 57.2217 69.4668 56.9781 69.4791 56.7351C69.4914 56.4921 69.5037 56.2496 69.5037 55.764" stroke="#359AC0" stroke-width="2" stroke-miterlimit="10" stroke-linejoin="round"/>
<path d="M55.0052 51.9104C52.6111 51.9104 51.4137 54.3223 50.217 56.7341C49.0203 59.1459 47.8243 61.5578 45.4317 61.5578" stroke="#359AC0" stroke-width="4" stroke-miterlimit="10" stroke-linejoin="round"/>
<path fill-rule="evenodd" clip-rule="evenodd" d="M69.3832 46.1125C67.256 46.1125 65.5316 44.3882 65.5316 42.261C65.5316 41.2395 65.9374 40.2598 66.6597 39.5375C67.382 38.8152 68.3617 38.4094 69.3832 38.4094C71.5103 38.4094 73.2347 40.1339 73.2347 42.261C73.2347 44.3882 71.5103 46.1125 69.3832 46.1125Z" fill="#00B39F"/>
<path d="M69.3777 48.0588C69.3777 47.5723 69.39 47.3287 69.4023 47.0857C69.4146 46.8427 69.4269 46.6002 69.4269 46.1146" stroke="#359AC0" stroke-width="2" stroke-miterlimit="10" stroke-linejoin="round"/>
<path d="M62.7084 51.9104C63.4142 51.9104 63.7662 49.4986 64.12 47.0868C64.4738 44.6749 64.8293 42.2631 65.5386 42.2631" stroke="#359AC0" stroke-width="4" stroke-miterlimit="10" stroke-linejoin="round"/>
<path fill-rule="evenodd" clip-rule="evenodd" d="M69.1603 95.5001C67.0332 95.5001 65.3088 93.7757 65.3088 91.6486C65.3088 90.6271 65.7146 89.6474 66.4369 88.9251C67.1592 88.2028 68.1389 87.797 69.1603 87.797C71.2875 87.797 73.0119 89.5214 73.0119 91.6486C73.0119 93.7757 71.2875 95.5001 69.1603 95.5001Z" fill="#00B39F"/>
<path fill-rule="evenodd" clip-rule="evenodd" d="M58.6394 85.8507C56.5122 85.8507 54.7878 84.1263 54.7878 81.9991C54.7878 80.9777 55.1936 79.998 55.9159 79.2757C56.6382 78.5534 57.6179 78.1476 58.6394 78.1476C60.7666 78.1476 62.491 79.872 62.491 81.9991C62.491 84.1263 60.7666 85.8507 58.6394 85.8507Z" fill="#00B39F"/>
<path fill-rule="evenodd" clip-rule="evenodd" d="M69.1603 85.8507C67.0332 85.8507 65.3088 84.1263 65.3088 81.9991C65.3088 80.9777 65.7146 79.998 66.4369 79.2757C67.1592 78.5534 68.1389 78.1476 69.1603 78.1476C71.2875 78.1476 73.0119 79.872 73.0119 81.9991C73.0119 84.1263 71.2875 85.8507 69.1603 85.8507Z" fill="#00B39F"/>
<path d="M65.3088 91.6486C64.6043 91.6486 64.2506 89.2368 63.8999 86.8249C63.5492 84.4131 63.2015 82.0012 62.5032 82.0012" stroke="#CD502F" stroke-width="2" stroke-miterlimit="10" stroke-linejoin="round"/>
<path d="M62.5677 81.9991C63.2722 81.9991 63.6259 82.0114 63.9766 82.0238C64.3273 82.0361 64.675 82.0484 65.3734 82.0484" stroke="#CD502F" stroke-width="2" stroke-miterlimit="10" stroke-linejoin="round"/>
<path d="M69.1603 87.797C69.1603 87.3105 69.1726 87.0669 69.1849 86.8239C69.1973 86.5808 69.2096 86.3383 69.2096 85.8528" stroke="#CD502F" stroke-width="2" stroke-miterlimit="10" stroke-linejoin="round"/>
<path fill-rule="evenodd" clip-rule="evenodd" d="M69.1658 76.2013C67.0387 76.2013 65.3143 74.4769 65.3143 72.3497C65.3143 71.3282 65.7201 70.3486 66.4424 69.6263C67.1647 68.904 68.1443 68.4982 69.1658 68.4982C71.293 68.4982 73.0174 70.2226 73.0174 72.3497C73.0174 74.4769 71.293 76.2013 69.1658 76.2013Z" fill="#00B39F"/>
<path d="M69.1603 78.1476C69.1603 77.661 69.1726 77.4175 69.1849 77.1745C69.1973 76.9314 69.2096 76.6889 69.2096 76.2034" stroke="#359AC0" stroke-width="2" stroke-miterlimit="10" stroke-linejoin="round"/>
<path d="M62.5677 81.9992C63.2736 81.9992 63.6256 79.5873 63.9794 77.1755C64.3332 74.7636 64.6887 72.3518 65.398 72.3518" stroke="#359AC0" stroke-width="2" stroke-miterlimit="10" stroke-linejoin="round"/>
<path d="M59.0991 112.401L57.8334 109.041H57.8022C57.8126 109.104 57.8178 109.187 57.8178 109.291C57.8282 109.395 57.8334 109.51 57.8334 109.635C57.8439 109.75 57.8491 109.869 57.8491 109.994V112.401H57.4272V108.604H58.0834L59.2866 111.76H59.3178L60.5366 108.604H61.1772V112.401H60.7397V109.963C60.7397 109.849 60.7397 109.739 60.7397 109.635C60.7501 109.52 60.7553 109.411 60.7553 109.307C60.7657 109.203 60.7761 109.114 60.7866 109.041H60.7553L59.4741 112.401H59.0991ZM64.3444 112.401H62.2194V108.604H64.3444V108.994H62.6725V110.213H64.2506V110.604H62.6725V112.01H64.3444V112.401ZM67.3363 111.385C67.3363 111.614 67.279 111.807 67.1644 111.963C67.0498 112.119 66.8936 112.239 66.6956 112.323C66.4977 112.406 66.2581 112.448 65.9769 112.448C65.8415 112.448 65.7061 112.442 65.5706 112.432C65.4456 112.421 65.3259 112.406 65.2113 112.385C65.1071 112.354 65.0134 112.317 64.93 112.276V111.854C65.0654 111.906 65.2269 111.958 65.4144 112.01C65.6019 112.052 65.7998 112.073 66.0081 112.073C66.1956 112.073 66.3519 112.046 66.4769 111.994C66.6123 111.942 66.7113 111.869 66.7738 111.776C66.8467 111.682 66.8831 111.567 66.8831 111.432C66.8831 111.296 66.8519 111.187 66.7894 111.104C66.7373 111.01 66.6436 110.927 66.5081 110.854C66.3831 110.781 66.2061 110.708 65.9769 110.635C65.8102 110.573 65.6644 110.51 65.5394 110.448C65.4248 110.375 65.3259 110.296 65.2425 110.213C65.1592 110.119 65.0967 110.015 65.055 109.901C65.0134 109.786 64.9925 109.656 64.9925 109.51C64.9925 109.312 65.0394 109.14 65.1331 108.994C65.2373 108.849 65.3831 108.739 65.5706 108.666C65.7581 108.583 65.9665 108.541 66.1956 108.541C66.404 108.541 66.5915 108.562 66.7581 108.604C66.9352 108.635 67.0967 108.687 67.2425 108.76L67.1019 109.135C66.9665 109.073 66.8206 109.026 66.6644 108.994C66.5081 108.953 66.3519 108.932 66.1956 108.932C66.029 108.932 65.8884 108.958 65.7738 109.01C65.6696 109.052 65.5863 109.119 65.5238 109.213C65.4613 109.296 65.43 109.395 65.43 109.51C65.43 109.645 65.4561 109.76 65.5081 109.854C65.5706 109.937 65.6644 110.015 65.7894 110.088C65.9144 110.151 66.0811 110.218 66.2894 110.291C66.5081 110.375 66.6956 110.463 66.8519 110.557C67.0081 110.651 67.1279 110.765 67.2113 110.901C67.2946 111.026 67.3363 111.187 67.3363 111.385ZM70.9923 112.401H70.5392V110.604H68.5548V112.401H68.1017V108.604H68.5548V110.213H70.5392V108.604H70.9923V112.401ZM74.1551 112.401H72.0301V108.604H74.1551V108.994H72.4832V110.213H74.0614V110.604H72.4832V112.01H74.1551V112.401ZM76.022 108.604C76.3345 108.604 76.5897 108.64 76.7876 108.713C76.996 108.786 77.147 108.906 77.2408 109.073C77.3449 109.229 77.397 109.427 77.397 109.666C77.397 109.864 77.3605 110.031 77.2876 110.166C77.2147 110.302 77.121 110.411 77.0064 110.494C76.8918 110.578 76.7668 110.645 76.6314 110.698L77.6783 112.401H77.1626L76.2251 110.807H75.4439V112.401H74.9908V108.604H76.022ZM75.9908 108.979H75.4439V110.432H76.0376C76.3501 110.432 76.5793 110.369 76.7251 110.244C76.871 110.119 76.9439 109.937 76.9439 109.698C76.9439 109.437 76.8658 109.255 76.7095 109.151C76.5533 109.036 76.3137 108.979 75.9908 108.979ZM79.248 110.51L80.2636 108.604H80.748L79.4823 110.932V112.401H79.0292V110.948L77.7636 108.604H78.248L79.248 110.51ZM83.5237 110.494C83.5237 110.807 83.4977 111.083 83.4456 111.323C83.4039 111.562 83.331 111.77 83.2268 111.948C83.1227 112.114 82.9925 112.239 82.8362 112.323C82.68 112.406 82.4873 112.448 82.2581 112.448C81.9768 112.448 81.7425 112.375 81.555 112.229C81.3779 112.073 81.2425 111.849 81.1487 111.557C81.055 111.265 81.0081 110.911 81.0081 110.494C81.0081 110.088 81.0498 109.739 81.1331 109.448C81.2164 109.156 81.3466 108.932 81.5237 108.776C81.7112 108.619 81.956 108.541 82.2581 108.541C82.5498 108.541 82.7841 108.619 82.9612 108.776C83.1487 108.932 83.2893 109.156 83.3831 109.448C83.4768 109.739 83.5237 110.088 83.5237 110.494ZM81.4456 110.494C81.4456 110.849 81.4716 111.145 81.5237 111.385C81.5758 111.614 81.6591 111.791 81.7737 111.916C81.8987 112.031 82.0602 112.088 82.2581 112.088C82.456 112.088 82.6123 112.031 82.7268 111.916C82.8518 111.791 82.9404 111.614 82.9925 111.385C83.055 111.145 83.0862 110.849 83.0862 110.494C83.0862 110.14 83.055 109.849 82.9925 109.619C82.9404 109.38 82.8518 109.203 82.7268 109.088C82.6123 108.974 82.456 108.916 82.2581 108.916C82.0602 108.916 81.8987 108.974 81.7737 109.088C81.6591 109.203 81.5758 109.38 81.5237 109.619C81.4716 109.849 81.4456 110.14 81.4456 110.494ZM85.664 112.401H85.2421V109.713C85.2421 109.609 85.2421 109.52 85.2421 109.448C85.2421 109.375 85.2421 109.307 85.2421 109.244C85.2421 109.182 85.2473 109.119 85.2577 109.057C85.2056 109.109 85.1536 109.156 85.1015 109.198C85.0598 109.229 85.0025 109.276 84.9296 109.338L84.4921 109.682L84.2733 109.385L85.3046 108.604H85.664V112.401ZM89.5855 112.401H87.1011V112.041L88.1167 111.01C88.3042 110.812 88.4605 110.64 88.5855 110.494C88.7209 110.349 88.8199 110.203 88.8824 110.057C88.9553 109.911 88.9917 109.75 88.9917 109.573C88.9917 109.364 88.924 109.203 88.7886 109.088C88.6636 108.974 88.4969 108.916 88.2886 108.916C88.1115 108.916 87.9501 108.948 87.8042 109.01C87.6688 109.073 87.5282 109.161 87.3824 109.276L87.148 108.979C87.2521 108.895 87.3615 108.823 87.4761 108.76C87.5907 108.687 87.7157 108.635 87.8511 108.604C87.9969 108.562 88.1428 108.541 88.2886 108.541C88.5282 108.541 88.7313 108.583 88.898 108.666C89.0751 108.75 89.2053 108.869 89.2886 109.026C89.3824 109.171 89.4292 109.349 89.4292 109.557C89.4292 109.755 89.3876 109.942 89.3042 110.119C89.2313 110.286 89.1219 110.458 88.9761 110.635C88.8303 110.802 88.6636 110.979 88.4761 111.166L87.648 111.994V112.01H89.5855V112.401Z" fill="#999999"/>
<path d="M63 52C63.7045 52 64.0582 52.0123 64.4089 52.0246C64.7596 52.0369 65.1073 52.0492 65.8056 52.0492" stroke="#359AC0" stroke-width="2" stroke-miterlimit="10" stroke-linejoin="round"/>
<g clip-path="url(#clip0_5562_24509)">
<path d="M52.4395 106.55C52.6476 106.81 52.7999 107.1 52.9165 107.41C53.0669 107.808 53.1356 108.223 53.0496 108.643C52.9344 109.207 52.6043 109.605 52.0524 109.796C51.838 109.87 51.6153 109.9 51.3939 109.807C51.3634 109.796 51.3348 109.78 51.3092 109.761C51.3061 109.892 51.2565 110.018 51.1691 110.117C51.1981 110.104 51.2288 110.095 51.2603 110.091C51.2907 110.085 51.3227 110.081 51.3525 110.078C51.6478 110.054 51.9321 109.991 52.202 109.862C52.6182 109.663 52.967 109.379 53.2634 109.027C53.4328 108.83 53.5746 108.61 53.685 108.375C53.8411 108.027 53.9414 107.657 53.9822 107.279C54.0203 106.952 54.0101 106.632 53.9774 106.308C53.9695 106.23 53.9358 106.198 53.8657 106.186C53.6854 106.154 53.505 106.118 53.3277 106.074C52.864 105.962 52.3966 105.866 51.9321 105.759C51.7668 105.72 51.601 105.686 51.4353 105.649C51.5568 105.765 51.6873 105.86 51.8137 105.961C52.0378 106.14 52.2588 106.324 52.4395 106.55Z" fill="#00B39F"/>
<path d="M47.3355 110.569C47.4776 109.971 47.7128 109.422 48.1985 109.018C48.6408 108.65 49.1415 108.535 49.6934 108.727C49.9719 108.823 50.2106 108.979 50.3375 109.262C50.3501 109.287 50.3592 109.314 50.3644 109.342C50.4509 109.259 50.5617 109.206 50.6805 109.192C50.6732 109.187 50.6657 109.182 50.6574 109.175C50.488 109.039 50.3269 108.89 50.13 108.79C49.4303 108.433 48.6953 108.387 47.9484 108.578C47.1563 108.779 46.544 109.259 46.0416 109.892C45.9852 109.963 45.9898 110.008 46.0362 110.08C46.4258 110.686 46.8116 111.295 47.1987 111.903C47.2499 111.983 47.3028 112.062 47.3731 112.168C47.3806 111.989 47.3428 111.846 47.3226 111.702C47.2695 111.323 47.2458 110.945 47.3355 110.569Z" fill="#00D3A9"/>
<path d="M48.5282 106.362C48.7973 106.317 49.0686 106.287 49.3411 106.272C49.5883 106.259 49.8297 106.308 50.0695 106.37C50.6351 106.518 51.1423 106.765 51.5144 107.234C51.8695 107.681 51.9548 108.182 51.7642 108.719C51.6668 108.994 51.5021 109.222 51.221 109.345C51.2015 109.355 51.1803 109.361 51.1585 109.362C51.2428 109.452 51.295 109.567 51.3069 109.69C51.3196 109.669 51.3339 109.65 51.3498 109.632C51.5558 109.387 51.7423 109.13 51.8493 108.823C51.9896 108.421 52.0481 107.994 52.0214 107.569C52.001 107.153 51.8959 106.746 51.7127 106.372C51.4501 105.842 51.0718 105.406 50.6097 105.039C50.5409 104.984 50.4909 104.991 50.4191 105.037C49.8243 105.419 49.2258 105.796 48.631 106.177C48.5386 106.236 48.4393 106.287 48.35 106.371C48.4096 106.375 48.4693 106.372 48.5282 106.362V106.362Z" fill="#00D3A9"/>
<path d="M46.8562 108.825C47.0903 108.529 47.3141 108.223 47.6287 108.004C48.2115 107.6 48.8408 107.338 49.5642 107.439C50.1469 107.521 50.5681 107.838 50.7785 108.4C50.8689 108.641 50.8972 108.89 50.7914 109.14C50.7848 109.156 50.7762 109.172 50.7658 109.187C50.8855 109.19 51.001 109.232 51.0951 109.306C51.0927 109.298 51.0907 109.289 51.0893 109.281C51.0838 109.25 51.0836 109.218 51.0811 109.188C51.0626 108.942 51.0225 108.702 50.9342 108.469C50.7469 107.976 50.4266 107.585 50.0314 107.245C49.4487 106.743 48.7619 106.528 48.0079 106.499C47.794 106.491 47.5792 106.489 47.3648 106.517C47.2169 106.537 47.2056 106.538 47.1738 106.684C47.0363 107.312 46.8982 107.94 46.7594 108.569C46.7234 108.732 46.6883 108.896 46.6479 109.083C46.743 108.997 46.7929 108.905 46.8562 108.825Z" fill="#00B39F"/>
<path d="M55.465 109.419C55.0738 108.81 54.6869 108.198 54.2963 107.589C54.2444 107.508 54.2032 107.418 54.1162 107.328C54.1412 107.541 54.1593 107.726 54.1855 107.91C54.2401 108.293 54.2397 108.674 54.1381 109.051C53.9789 109.644 53.7135 110.171 53.2145 110.554C52.9412 110.765 52.6251 110.86 52.285 110.864C52.0468 110.868 51.8201 110.799 51.6093 110.686C51.4253 110.587 51.2688 110.459 51.1762 110.266C51.1471 110.205 51.1346 110.168 51.144 110.144C51.0542 110.233 50.9368 110.289 50.811 110.303C50.8439 110.324 50.8752 110.347 50.9046 110.373C51.0794 110.515 51.254 110.657 51.4595 110.755C52.0322 111.027 52.6372 111.084 53.253 110.987C54.1818 110.842 54.8856 110.32 55.463 109.603C55.5154 109.537 55.5089 109.487 55.465 109.419Z" fill="#00D3A9"/>
<path d="M54.2338 111.174C53.6586 111.753 52.9681 112.076 52.1379 112.078C51.5585 112.08 50.945 111.699 50.7392 111.142C50.654 110.911 50.5974 110.676 50.6851 110.433C50.7084 110.368 50.7242 110.327 50.7419 110.307C50.616 110.305 50.4943 110.261 50.3966 110.182C50.4071 110.213 50.4135 110.245 50.4155 110.278C50.4339 110.457 50.4432 110.638 50.4967 110.81C50.7818 111.73 51.3949 112.359 52.2613 112.74C52.8149 112.984 53.4041 113.058 54.0095 112.995C54.28 112.967 54.2815 112.972 54.3354 112.735C54.484 112.081 54.6334 111.426 54.7774 110.771C54.8016 110.661 54.8455 110.552 54.8434 110.409C54.8095 110.455 54.7911 110.479 54.7735 110.504C54.6055 110.736 54.4361 110.971 54.2338 111.174Z" fill="#00B39F"/>
<path d="M49.1586 113.063C48.8945 112.767 48.7055 112.425 48.5742 112.053C48.4493 111.698 48.3758 111.332 48.4356 110.952C48.5221 110.399 48.8027 109.986 49.3192 109.755C49.569 109.643 49.8335 109.59 50.1059 109.695C50.1357 109.704 50.1642 109.718 50.1908 109.735C50.1931 109.615 50.2342 109.498 50.308 109.404C50.2859 109.408 50.2636 109.411 50.2412 109.412C50.0929 109.422 49.9454 109.44 49.7995 109.469C49.2953 109.576 48.877 109.839 48.5092 110.187C48.0187 110.65 47.7026 111.212 47.5702 111.876C47.4897 112.279 47.4784 112.684 47.509 113.093C47.5207 113.25 47.586 113.307 47.7442 113.339C48.405 113.473 49.0614 113.63 49.7203 113.773C49.8324 113.798 49.9427 113.84 50.0911 113.844C49.9831 113.761 49.8992 113.697 49.8152 113.633C49.5841 113.457 49.3527 113.281 49.1586 113.063Z" fill="#00B39F"/>
<path d="M53.0986 113.118C52.8636 113.16 52.6272 113.188 52.391 113.211C52.1972 113.23 52.0006 113.239 51.8104 113.211C51.5358 113.172 51.2672 113.099 51.0112 112.992C50.6129 112.826 50.2518 112.605 49.9837 112.258C49.6603 111.838 49.5513 111.37 49.7105 110.86C49.8008 110.571 49.9492 110.313 50.2418 110.173C50.2938 110.148 50.3296 110.136 50.355 110.14C50.2672 110.052 50.2113 109.938 50.196 109.814C50.1831 109.833 50.1692 109.851 50.1544 109.868C50.02 110.031 49.8822 110.191 49.7846 110.381C49.5492 110.839 49.4632 111.325 49.4759 111.838C49.4828 112.216 49.5609 112.589 49.7059 112.938C49.959 113.541 50.3617 114.033 50.8726 114.439C50.9523 114.503 51.0097 114.51 51.099 114.452C51.6135 114.119 52.1327 113.792 52.6501 113.463C52.8214 113.353 52.9918 113.244 53.165 113.132C53.1564 113.124 53.1456 113.118 53.1339 113.116C53.1221 113.113 53.1099 113.114 53.0986 113.118V113.118Z" fill="#00D3A9"/>
</g>
<defs>
<clipPath id="clip0_5562_24509">
<rect width="9.5" height="9.49292" fill="white" transform="translate(46 105)"/>
</clipPath>
</defs>
</svg>
