<svg width="101" height="117" viewBox="0 0 101 117" fill="none" xmlns="http://www.w3.org/2000/svg">
<g clip-path="url(#clip0_5562_24519)">
<path fill-rule="evenodd" clip-rule="evenodd" d="M0 12.8494C0 5.75287 5.75287 0 12.8494 0H87.9065C91.3144 0 94.5827 1.35376 96.9924 3.76349C99.4021 6.17322 100.756 9.4415 100.756 12.8494V104.127C100.756 111.223 95.003 116.976 87.9065 116.976H12.8494C5.75287 116.976 0 111.223 0 104.127V12.8494Z" fill="#EEEEEE"/>
<path d="M9.23828 35.2834V26.6897H12.8945C13.8112 26.6897 14.4779 26.7678 14.8945 26.9241C15.3112 27.0803 15.6445 27.3564 15.8945 27.7522C16.1445 28.148 16.2695 28.5959 16.2695 29.0959C16.2695 29.7418 16.0768 30.2782 15.6914 30.7053C15.3164 31.122 14.7539 31.3824 14.0039 31.4866C14.3789 31.7053 14.6862 31.9501 14.9258 32.2209C15.1758 32.4814 15.5039 32.9449 15.9102 33.6116L16.9727 35.2834H14.8945L13.6445 33.4084C13.1966 32.7418 12.8893 32.3251 12.7227 32.1584C12.556 31.9814 12.3789 31.8616 12.1914 31.7991C12.0143 31.7262 11.7279 31.6897 11.332 31.6897H10.9727V35.2834H9.23828ZM10.9727 30.3303H12.2539C13.0872 30.3303 13.6081 30.2939 13.8164 30.2209C14.0247 30.148 14.1862 30.0282 14.3008 29.8616C14.4258 29.6845 14.4883 29.4657 14.4883 29.2053C14.4883 28.9241 14.4102 28.6949 14.2539 28.5178C14.0977 28.3407 13.8789 28.2262 13.5977 28.1741C13.4518 28.1532 13.0299 28.1428 12.332 28.1428H10.9727V30.3303ZM21.498 33.2991L23.1387 33.5803C22.9303 34.1845 22.597 34.6428 22.1387 34.9553C21.6803 35.2678 21.1126 35.4241 20.4355 35.4241C19.3522 35.4241 18.5501 35.0699 18.0293 34.3616C17.6126 33.7991 17.4043 33.0855 17.4043 32.2209C17.4043 31.1897 17.6751 30.3824 18.2168 29.7991C18.7585 29.2157 19.4408 28.9241 20.2637 28.9241C21.1908 28.9241 21.9199 29.2314 22.4512 29.8459C22.9928 30.4501 23.248 31.3824 23.2168 32.6428H19.0918C19.1126 33.1324 19.248 33.5126 19.498 33.7834C19.748 34.0543 20.0658 34.1897 20.4512 34.1897C20.7012 34.1897 20.9147 34.122 21.0918 33.9866C21.2689 33.8407 21.4043 33.6116 21.498 33.2991ZM21.5918 31.6428C21.5814 31.1637 21.4564 30.7991 21.2168 30.5491C20.9876 30.2991 20.7012 30.1741 20.3574 30.1741C20.0033 30.1741 19.7064 30.3043 19.4668 30.5647C19.2376 30.8355 19.123 31.1949 19.123 31.6428H21.5918ZM27.4219 29.0647V30.3772H26.2969V32.8772C26.2969 33.3876 26.3073 33.6845 26.3281 33.7678C26.349 33.8512 26.3958 33.9241 26.4688 33.9866C26.5521 34.0387 26.6458 34.0647 26.75 34.0647C26.9062 34.0647 27.125 34.0074 27.4062 33.8928L27.5469 35.1741C27.1719 35.3407 26.7396 35.4241 26.25 35.4241C25.9583 35.4241 25.6927 35.3772 25.4531 35.2834C25.2135 35.1793 25.0365 35.0491 24.9219 34.8928C24.8177 34.7262 24.7396 34.5126 24.6875 34.2522C24.6562 34.0543 24.6406 33.6637 24.6406 33.0803V30.3772H23.8906V29.0647H24.6406V27.8303L26.2969 26.8616V29.0647H27.4219ZM30.1367 35.2834H28.4961V29.0647H30.0273V29.9397C30.2878 29.523 30.5221 29.2522 30.7305 29.1272C30.9388 28.9918 31.1732 28.9241 31.4336 28.9241C31.8086 28.9241 32.1732 29.0282 32.5273 29.2366L32.0117 30.6584C31.7305 30.4814 31.4753 30.3928 31.2461 30.3928C31.0065 30.3928 30.8086 30.4605 30.6523 30.5959C30.4961 30.7209 30.3711 30.9501 30.2773 31.2834C30.1836 31.6064 30.1367 32.2991 30.1367 33.3616V35.2834ZM32.4473 29.0647H34.1973L35.6973 33.4709L37.1504 29.0647H38.8535L36.6504 35.0491L36.2598 36.1272C36.1139 36.4918 35.9733 36.7678 35.8379 36.9553C35.7129 37.1532 35.5618 37.3095 35.3848 37.4241C35.2181 37.5491 35.0098 37.6428 34.7598 37.7053C34.5202 37.7782 34.2441 37.8147 33.9316 37.8147C33.6087 37.8147 33.2962 37.7782 32.9941 37.7053L32.8535 36.4241C33.1139 36.4762 33.3431 36.5022 33.541 36.5022C33.9264 36.5022 34.2077 36.3876 34.3848 36.1584C34.5723 35.9397 34.7181 35.6532 34.8223 35.2991L32.4473 29.0647ZM43.252 26.6897H46.4082C47.127 26.6897 47.6738 26.747 48.0488 26.8616C48.5488 27.0074 48.9759 27.273 49.3301 27.6584C49.6947 28.0334 49.9707 28.497 50.1582 29.0491C50.3457 29.5907 50.4395 30.2626 50.4395 31.0647C50.4395 31.773 50.3561 32.3824 50.1895 32.8928C49.9707 33.5178 49.6634 34.023 49.2676 34.4084C48.9655 34.7105 48.5592 34.9397 48.0488 35.0959C47.6634 35.2209 47.1478 35.2834 46.502 35.2834H43.252V26.6897ZM44.9863 28.1428V33.8303H46.2676C46.7572 33.8303 47.1113 33.8043 47.3301 33.7522C47.6113 33.6793 47.8405 33.5595 48.0176 33.3928C48.2051 33.2262 48.3561 32.9501 48.4707 32.5647C48.5957 32.1793 48.6582 31.6532 48.6582 30.9866C48.6582 30.3303 48.5957 29.8251 48.4707 29.4709C48.3561 29.1064 48.1947 28.8251 47.9863 28.6272C47.778 28.4293 47.5124 28.2939 47.1895 28.2209C46.9395 28.1689 46.4603 28.1428 45.752 28.1428H44.9863ZM55.5117 33.2991L57.1523 33.5803C56.944 34.1845 56.6107 34.6428 56.1523 34.9553C55.694 35.2678 55.1263 35.4241 54.4492 35.4241C53.3659 35.4241 52.5638 35.0699 52.043 34.3616C51.6263 33.7991 51.418 33.0855 51.418 32.2209C51.418 31.1897 51.6888 30.3824 52.2305 29.7991C52.7721 29.2157 53.4544 28.9241 54.2773 28.9241C55.2044 28.9241 55.9336 29.2314 56.4648 29.8459C57.0065 30.4501 57.2617 31.3824 57.2305 32.6428H53.1055C53.1263 33.1324 53.2617 33.5126 53.5117 33.7834C53.7617 34.0543 54.0794 34.1897 54.4648 34.1897C54.7148 34.1897 54.9284 34.122 55.1055 33.9866C55.2826 33.8407 55.418 33.6116 55.5117 33.2991ZM55.6055 31.6428C55.5951 31.1637 55.4701 30.7991 55.2305 30.5491C55.0013 30.2991 54.7148 30.1741 54.3711 30.1741C54.0169 30.1741 53.7201 30.3043 53.4805 30.5647C53.2513 30.8355 53.1367 31.1949 53.1367 31.6428H55.6055ZM59.8105 30.9553L58.3105 30.6897C58.4772 30.0855 58.7637 29.6428 59.1699 29.3616C59.5866 29.0699 60.2012 28.9241 61.0137 28.9241C61.7428 28.9241 62.2845 29.0126 62.6387 29.1897C63.0033 29.3564 63.2585 29.5751 63.4043 29.8459C63.5501 30.1064 63.623 30.5959 63.623 31.3147L63.6074 33.2366C63.6074 33.7887 63.6335 34.1949 63.6855 34.4553C63.7376 34.7053 63.8366 34.9814 63.9824 35.2834H62.3574C62.3158 35.1689 62.2637 35.0074 62.2012 34.7991C62.1699 34.6949 62.1491 34.6272 62.1387 34.5959C61.8574 34.8772 61.5553 35.0855 61.2324 35.2209C60.9199 35.3564 60.5814 35.4241 60.2168 35.4241C59.571 35.4241 59.0605 35.2522 58.6855 34.9084C58.321 34.5543 58.1387 34.1116 58.1387 33.5803C58.1387 33.2262 58.222 32.9137 58.3887 32.6428C58.5658 32.372 58.8053 32.1637 59.1074 32.0178C59.4095 31.8616 59.847 31.7314 60.4199 31.6272C61.1803 31.4814 61.7116 31.3459 62.0137 31.2209V31.0647C62.0137 30.7418 61.9355 30.5126 61.7793 30.3772C61.623 30.2418 61.3262 30.1741 60.8887 30.1741C60.597 30.1741 60.3678 30.2314 60.2012 30.3459C60.0449 30.4605 59.9147 30.6637 59.8105 30.9553ZM62.0137 32.2991C61.8053 32.3616 61.472 32.4449 61.0137 32.5491C60.5553 32.6428 60.2533 32.7366 60.1074 32.8303C59.8991 32.9866 59.7949 33.1793 59.7949 33.4084C59.7949 33.6376 59.8783 33.8407 60.0449 34.0178C60.222 34.1845 60.4408 34.2678 60.7012 34.2678C61.0033 34.2678 61.2897 34.1689 61.5605 33.9709C61.7585 33.8251 61.8887 33.6428 61.9512 33.4241C61.9928 33.2887 62.0137 33.023 62.0137 32.6272V32.2991ZM70.9531 35.2834H69.4375V34.3616C69.1771 34.7262 68.875 34.997 68.5312 35.1741C68.1875 35.3407 67.8385 35.4241 67.4844 35.4241C66.7656 35.4241 66.151 35.1376 65.6406 34.5647C65.1406 33.9814 64.8906 33.1741 64.8906 32.1428C64.8906 31.0907 65.1354 30.2939 65.625 29.7522C66.125 29.2001 66.7552 28.9241 67.5156 28.9241C68.2031 28.9241 68.8021 29.2105 69.3125 29.7834V26.6897H70.9531V35.2834ZM66.5625 32.0334C66.5625 32.7001 66.6562 33.1793 66.8438 33.4709C67.1042 33.9084 67.474 34.1272 67.9531 34.1272C68.3281 34.1272 68.6458 33.9657 68.9062 33.6428C69.1771 33.3199 69.3125 32.8355 69.3125 32.1897C69.3125 31.4814 69.1823 30.9709 68.9219 30.6584C68.6719 30.3355 68.3438 30.1741 67.9375 30.1741C67.5521 30.1741 67.224 30.3303 66.9531 30.6428C66.6927 30.9553 66.5625 31.4189 66.5625 32.0334ZM72.5801 35.2834V26.6897H74.2363V35.2834H72.5801ZM75.9141 28.2209V26.6897H77.5703V28.2209H75.9141ZM75.9141 35.2834V29.0647H77.5703V35.2834H75.9141ZM84.9043 35.2834H83.2637V32.1116C83.2637 31.4345 83.2272 30.997 83.1543 30.7991C83.0918 30.6012 82.9772 30.4501 82.8105 30.3459C82.6543 30.2314 82.4668 30.1741 82.248 30.1741C81.9564 30.1741 81.696 30.2522 81.4668 30.4084C81.248 30.5647 81.097 30.773 81.0137 31.0334C80.9303 31.2939 80.8887 31.773 80.8887 32.4709V35.2834H79.2324V29.0647H80.7637V29.9709C81.3053 29.273 81.9928 28.9241 82.8262 28.9241C83.1803 28.9241 83.5085 28.9918 83.8105 29.1272C84.1126 29.2522 84.3418 29.4189 84.498 29.6272C84.6543 29.8251 84.7585 30.0543 84.8105 30.3147C84.873 30.5647 84.9043 30.9293 84.9043 31.4084V35.2834ZM90.1875 33.2991L91.8281 33.5803C91.6198 34.1845 91.2865 34.6428 90.8281 34.9553C90.3698 35.2678 89.8021 35.4241 89.125 35.4241C88.0417 35.4241 87.2396 35.0699 86.7188 34.3616C86.3021 33.7991 86.0938 33.0855 86.0938 32.2209C86.0938 31.1897 86.3646 30.3824 86.9062 29.7991C87.4479 29.2157 88.1302 28.9241 88.9531 28.9241C89.8802 28.9241 90.6094 29.2314 91.1406 29.8459C91.6823 30.4501 91.9375 31.3824 91.9062 32.6428H87.7812C87.8021 33.1324 87.9375 33.5126 88.1875 33.7834C88.4375 34.0543 88.7552 34.1897 89.1406 34.1897C89.3906 34.1897 89.6042 34.122 89.7812 33.9866C89.9583 33.8407 90.0938 33.6116 90.1875 33.2991ZM90.2812 31.6428C90.2708 31.1637 90.1458 30.7991 89.9062 30.5491C89.6771 30.2991 89.3906 30.1741 89.0469 30.1741C88.6927 30.1741 88.3958 30.3043 88.1562 30.5647C87.9271 30.8355 87.8125 31.1949 87.8125 31.6428H90.2812Z" fill="black"/>
<path d="M58.0928 112.341L56.8271 108.982H56.7959C56.8063 109.044 56.8115 109.128 56.8115 109.232C56.8219 109.336 56.8271 109.451 56.8271 109.576C56.8376 109.69 56.8428 109.81 56.8428 109.935V112.341H56.4209V108.544H57.0771L58.2803 111.701H58.3115L59.5303 108.544H60.1709V112.341H59.7334V109.904C59.7334 109.789 59.7334 109.68 59.7334 109.576C59.7438 109.461 59.749 109.352 59.749 109.248C59.7594 109.143 59.7699 109.055 59.7803 108.982H59.749L58.4678 112.341H58.0928ZM63.3381 112.341H61.2131V108.544H63.3381V108.935H61.6662V110.154H63.2443V110.544H61.6662V111.951H63.3381V112.341ZM66.33 111.326C66.33 111.555 66.2727 111.748 66.1581 111.904C66.0435 112.06 65.8872 112.18 65.6893 112.263C65.4914 112.347 65.2518 112.388 64.9706 112.388C64.8352 112.388 64.6997 112.383 64.5643 112.373C64.4393 112.362 64.3195 112.347 64.205 112.326C64.1008 112.294 64.007 112.258 63.9237 112.216V111.794C64.0591 111.847 64.2206 111.899 64.4081 111.951C64.5956 111.992 64.7935 112.013 65.0018 112.013C65.1893 112.013 65.3456 111.987 65.4706 111.935C65.606 111.883 65.705 111.81 65.7675 111.716C65.8404 111.623 65.8768 111.508 65.8768 111.373C65.8768 111.237 65.8456 111.128 65.7831 111.044C65.731 110.951 65.6372 110.867 65.5018 110.794C65.3768 110.722 65.1997 110.649 64.9706 110.576C64.8039 110.513 64.6581 110.451 64.5331 110.388C64.4185 110.315 64.3195 110.237 64.2362 110.154C64.1529 110.06 64.0904 109.956 64.0487 109.841C64.007 109.727 63.9862 109.597 63.9862 109.451C63.9862 109.253 64.0331 109.081 64.1268 108.935C64.231 108.789 64.3768 108.68 64.5643 108.607C64.7518 108.524 64.9602 108.482 65.1893 108.482C65.3977 108.482 65.5852 108.503 65.7518 108.544C65.9289 108.576 66.0904 108.628 66.2362 108.701L66.0956 109.076C65.9602 109.013 65.8143 108.966 65.6581 108.935C65.5018 108.893 65.3456 108.873 65.1893 108.873C65.0227 108.873 64.882 108.899 64.7675 108.951C64.6633 108.992 64.58 109.06 64.5175 109.154C64.455 109.237 64.4237 109.336 64.4237 109.451C64.4237 109.586 64.4497 109.701 64.5018 109.794C64.5643 109.878 64.6581 109.956 64.7831 110.029C64.9081 110.091 65.0747 110.159 65.2831 110.232C65.5018 110.315 65.6893 110.404 65.8456 110.498C66.0018 110.591 66.1216 110.706 66.205 110.841C66.2883 110.966 66.33 111.128 66.33 111.326ZM69.986 112.341H69.5328V110.544H67.5485V112.341H67.0953V108.544H67.5485V110.154H69.5328V108.544H69.986V112.341ZM73.1488 112.341H71.0238V108.544H73.1488V108.935H71.4769V110.154H73.0551V110.544H71.4769V111.951H73.1488V112.341ZM75.0157 108.544C75.3282 108.544 75.5834 108.581 75.7813 108.654C75.9896 108.727 76.1407 108.847 76.2344 109.013C76.3386 109.169 76.3907 109.367 76.3907 109.607C76.3907 109.805 76.3542 109.972 76.2813 110.107C76.2084 110.242 76.1146 110.352 76.0001 110.435C75.8855 110.518 75.7605 110.586 75.6251 110.638L76.6719 112.341H76.1563L75.2188 110.748H74.4376V112.341H73.9844V108.544H75.0157ZM74.9844 108.919H74.4376V110.373H75.0313C75.3438 110.373 75.573 110.31 75.7188 110.185C75.8646 110.06 75.9376 109.878 75.9376 109.638C75.9376 109.378 75.8594 109.195 75.7032 109.091C75.5469 108.977 75.3074 108.919 74.9844 108.919ZM78.2416 110.451L79.2573 108.544H79.7416L78.476 110.873V112.341H78.0229V110.888L76.7573 108.544H77.2416L78.2416 110.451ZM82.5174 110.435C82.5174 110.748 82.4914 111.024 82.4393 111.263C82.3976 111.503 82.3247 111.711 82.2205 111.888C82.1164 112.055 81.9861 112.18 81.8299 112.263C81.6736 112.347 81.4809 112.388 81.2518 112.388C80.9705 112.388 80.7361 112.315 80.5486 112.169C80.3716 112.013 80.2361 111.789 80.1424 111.498C80.0486 111.206 80.0018 110.852 80.0018 110.435C80.0018 110.029 80.0434 109.68 80.1268 109.388C80.2101 109.097 80.3403 108.873 80.5174 108.716C80.7049 108.56 80.9497 108.482 81.2518 108.482C81.5434 108.482 81.7778 108.56 81.9549 108.716C82.1424 108.873 82.283 109.097 82.3768 109.388C82.4705 109.68 82.5174 110.029 82.5174 110.435ZM80.4393 110.435C80.4393 110.789 80.4653 111.086 80.5174 111.326C80.5695 111.555 80.6528 111.732 80.7674 111.857C80.8924 111.972 81.0539 112.029 81.2518 112.029C81.4497 112.029 81.6059 111.972 81.7205 111.857C81.8455 111.732 81.9341 111.555 81.9861 111.326C82.0486 111.086 82.0799 110.789 82.0799 110.435C82.0799 110.081 82.0486 109.789 81.9861 109.56C81.9341 109.32 81.8455 109.143 81.7205 109.029C81.6059 108.914 81.4497 108.857 81.2518 108.857C81.0539 108.857 80.8924 108.914 80.7674 109.029C80.6528 109.143 80.5695 109.32 80.5174 109.56C80.4653 109.789 80.4393 110.081 80.4393 110.435ZM85.7202 111.466H85.1577V112.341H84.7358V111.466H82.892V111.091L84.7045 108.513H85.1577V111.076H85.7202V111.466ZM84.7358 111.076V109.826C84.7358 109.732 84.7358 109.649 84.7358 109.576C84.7358 109.492 84.7358 109.419 84.7358 109.357C84.7462 109.284 84.7514 109.222 84.7514 109.169C84.7618 109.107 84.767 109.044 84.767 108.982H84.7358C84.7045 109.055 84.6681 109.128 84.6264 109.201C84.5847 109.274 84.5431 109.341 84.5014 109.404L83.3295 111.076H84.7358ZM88.7667 111.466H88.2042V112.341H87.7823V111.466H85.9385V111.091L87.751 108.513H88.2042V111.076H88.7667V111.466ZM87.7823 111.076V109.826C87.7823 109.732 87.7823 109.649 87.7823 109.576C87.7823 109.492 87.7823 109.419 87.7823 109.357C87.7927 109.284 87.7979 109.222 87.7979 109.169C87.8083 109.107 87.8135 109.044 87.8135 108.982H87.7823C87.751 109.055 87.7146 109.128 87.6729 109.201C87.6312 109.274 87.5896 109.341 87.5479 109.404L86.376 111.076H87.7823Z" fill="#999999"/>
<path fill-rule="evenodd" clip-rule="evenodd" d="M58.4647 8.1698H89.9833C94.1124 8.1698 97.4596 10.2169 97.4596 12.7421C97.4596 15.2673 94.1124 17.3144 89.9833 17.3144H58.4647C54.3356 17.3144 50.9884 15.2673 50.9884 12.7421C50.9884 10.2169 54.3356 8.1698 58.4647 8.1698Z" fill="#CFE2F3"/>
<path d="M58.8046 14.8621V11.0496H60.4921C60.8358 11.0496 61.0962 11.086 61.2733 11.1589C61.4504 11.2214 61.591 11.3412 61.6952 11.5183C61.7994 11.685 61.8514 11.8777 61.8514 12.0964C61.8514 12.3569 61.7629 12.5808 61.5858 12.7683C61.4087 12.9558 61.1379 13.0756 60.7733 13.1277C60.9087 13.1902 61.0129 13.2527 61.0858 13.3152C61.2316 13.4506 61.3671 13.6225 61.4921 13.8308L62.1639 14.8621H61.5233L61.0233 14.0652C60.8775 13.836 60.7577 13.6641 60.6639 13.5496C60.5702 13.4246 60.4816 13.3412 60.3983 13.2996C60.3254 13.2475 60.2525 13.211 60.1796 13.1902C60.1171 13.1798 60.0233 13.1746 59.8983 13.1746H59.3046V14.8621H58.8046ZM59.3046 12.7371H60.3983C60.6275 12.7371 60.8046 12.711 60.9296 12.6589C61.065 12.6069 61.1639 12.5287 61.2264 12.4246C61.2994 12.3204 61.3358 12.211 61.3358 12.0964C61.3358 11.9089 61.2681 11.7579 61.1327 11.6433C61.0077 11.5287 60.7994 11.4714 60.5077 11.4714H59.3046V12.7371ZM62.6523 14.8621V11.0496H65.4023V11.5027H63.1523V12.6589H65.2617V13.1121H63.1523V14.4089H65.4961V14.8621H62.6523ZM66.0187 13.6433L66.5031 13.5964C66.5239 13.7839 66.576 13.9402 66.6593 14.0652C66.7426 14.1902 66.8676 14.2891 67.0343 14.3621C67.2114 14.435 67.4093 14.4714 67.6281 14.4714C67.8156 14.4714 67.9822 14.4454 68.1281 14.3933C68.2843 14.3308 68.3937 14.2527 68.4562 14.1589C68.5291 14.0548 68.5656 13.9454 68.5656 13.8308C68.5656 13.7058 68.5291 13.6016 68.4562 13.5183C68.3937 13.4246 68.2843 13.3464 68.1281 13.2839C68.0239 13.2423 67.7947 13.1798 67.4406 13.0964C67.0968 13.0131 66.852 12.935 66.7062 12.8621C66.5291 12.7683 66.3937 12.6537 66.2999 12.5183C66.2166 12.3725 66.1749 12.211 66.1749 12.0339C66.1749 11.8464 66.227 11.6694 66.3312 11.5027C66.4458 11.3256 66.6072 11.1954 66.8156 11.1121C67.0239 11.0287 67.2583 10.9871 67.5187 10.9871C67.7999 10.9871 68.0447 11.0339 68.2531 11.1277C68.4718 11.211 68.6385 11.3412 68.7531 11.5183C68.8676 11.6954 68.9301 11.8985 68.9406 12.1277L68.4562 12.1589C68.4353 11.9194 68.3468 11.7371 68.1906 11.6121C68.0447 11.4871 67.826 11.4246 67.5343 11.4246C67.2322 11.4246 67.0083 11.4819 66.8624 11.5964C66.727 11.711 66.6593 11.8464 66.6593 12.0027C66.6593 12.1381 66.7062 12.2475 66.7999 12.3308C66.9041 12.4246 67.1593 12.5183 67.5656 12.6121C67.9718 12.7058 68.2531 12.7839 68.4093 12.8464C68.6281 12.9506 68.7895 13.0808 68.8937 13.2371C69.0083 13.3933 69.0656 13.5756 69.0656 13.7839C69.0656 13.9923 69.0031 14.185 68.8781 14.3621C68.7635 14.5391 68.5968 14.6798 68.3781 14.7839C68.1697 14.8777 67.9249 14.9246 67.6437 14.9246C67.2999 14.9246 67.0083 14.8777 66.7687 14.7839C66.5395 14.6798 66.3572 14.5287 66.2218 14.3308C66.0968 14.1225 66.0291 13.8933 66.0187 13.6433ZM69.8381 14.8621V11.0496H70.3381V14.8621H69.8381ZM71.2091 14.8621V11.0496H71.7091V14.4089H73.5841V14.8621H71.2091ZM74.2817 14.8621V11.0496H74.7817V14.8621H74.2817ZM75.6839 14.8621V11.0496H78.4339V11.5027H76.1839V12.6589H78.2933V13.1121H76.1839V14.4089H78.5276V14.8621H75.6839ZM79.2221 14.8621V11.0496H79.7377L81.7377 14.0496V11.0496H82.2221V14.8621H81.7065L79.7065 11.8621V14.8621H79.2221ZM85.7887 13.5183L86.3043 13.6589C86.2002 14.0652 86.0074 14.3777 85.7262 14.5964C85.4554 14.8152 85.122 14.9246 84.7262 14.9246C84.3095 14.9246 83.971 14.8412 83.7106 14.6746C83.4606 14.5079 83.2679 14.2683 83.1324 13.9558C82.997 13.6329 82.9293 13.2891 82.9293 12.9246C82.9293 12.5287 83.0022 12.185 83.1481 11.8933C83.3043 11.5912 83.5231 11.3673 83.8043 11.2214C84.0856 11.0652 84.3929 10.9871 84.7262 10.9871C85.1116 10.9871 85.4345 11.086 85.6949 11.2839C85.9554 11.4714 86.1377 11.7423 86.2418 12.0964L85.7418 12.2058C85.6481 11.935 85.5179 11.7371 85.3512 11.6121C85.1845 11.4766 84.9762 11.4089 84.7262 11.4089C84.4241 11.4089 84.1741 11.4819 83.9762 11.6277C83.7887 11.7631 83.6533 11.9506 83.5699 12.1902C83.4866 12.4298 83.4449 12.6746 83.4449 12.9246C83.4449 13.2475 83.4918 13.5339 83.5856 13.7839C83.6793 14.0235 83.8252 14.2058 84.0231 14.3308C84.2314 14.4454 84.4502 14.5027 84.6793 14.5027C84.9606 14.5027 85.2002 14.4194 85.3981 14.2527C85.596 14.086 85.7262 13.8412 85.7887 13.5183ZM87.9958 14.8621V13.2527L86.5271 11.0496H87.1365L87.8865 12.1902C88.0323 12.4089 88.1625 12.6277 88.2771 12.8464C88.3917 12.6485 88.5323 12.4246 88.699 12.1746L89.4333 11.0496H90.0271L88.4958 13.2527V14.8621H87.9958Z" fill="#0B5394"/>
<path d="M61.75 68.3923C57.7158 68.3923 55.6973 67.8096 53.6815 67.2269C51.6658 66.6443 49.6528 66.0616 45.624 66.0616" stroke="#BF9000" stroke-width="2" stroke-miterlimit="10" stroke-linejoin="round"/>
<path fill-rule="evenodd" clip-rule="evenodd" d="M75.3472 81.9002C73.3295 81.9002 71.6937 80.1728 71.6937 78.0419C71.6937 77.0186 72.0786 76.0373 72.7638 75.3137C73.449 74.5901 74.3783 74.1837 75.3472 74.1837C77.3651 74.1837 79.0008 75.911 79.0008 78.0419C79.0008 80.1728 77.3651 81.9002 75.3472 81.9002Z" fill="#00B39F"/>
<path fill-rule="evenodd" clip-rule="evenodd" d="M65.4036 72.2506C63.3857 72.2506 61.75 70.5232 61.75 68.3923C61.75 67.369 62.1349 66.3877 62.8201 65.6641C63.5052 64.9406 64.4346 64.5341 65.4036 64.5341C67.4213 64.5341 69.0571 66.2614 69.0571 68.3923C69.0571 70.5232 67.4213 72.2506 65.4036 72.2506Z" fill="#00B39F"/>
<path fill-rule="evenodd" clip-rule="evenodd" d="M75.3472 72.2506C73.3295 72.2506 71.6937 70.5232 71.6937 68.3923C71.6937 67.369 72.0786 66.3877 72.7638 65.6641C73.449 64.9406 74.3783 64.5341 75.3472 64.5341C77.3651 64.5341 79.0008 66.2614 79.0008 68.3923C79.0008 70.5232 77.3651 72.2506 75.3472 72.2506Z" fill="#00B39F"/>
<path d="M71.6938 78.0419C71.0295 78.0419 70.6959 75.6324 70.3652 73.223C70.0345 70.8136 69.7067 68.4041 69.0481 68.4041" stroke="#CD502F" stroke-width="2" stroke-miterlimit="10" stroke-linejoin="round"/>
<path d="M69.057 68.3923C69.7213 68.3923 70.0549 68.408 70.3856 68.4238C70.7163 68.4395 71.0441 68.4553 71.7027 68.4553" stroke="#CD502F" stroke-width="2" stroke-miterlimit="10" stroke-linejoin="round"/>
<path d="M75.3472 74.1837C75.3472 73.7028 75.3629 73.4622 75.3787 73.222C75.3944 72.9818 75.4102 72.7422 75.4102 72.2624" stroke="#CD502F" stroke-width="2" stroke-miterlimit="10" stroke-linejoin="round"/>
<path fill-rule="evenodd" clip-rule="evenodd" d="M75.3525 62.601C73.3347 62.601 71.699 60.8736 71.699 58.7427C71.699 57.7195 72.0839 56.7381 72.769 56.0145C73.4542 55.291 74.3835 54.8845 75.3525 54.8845C77.3703 54.8845 79.006 56.6118 79.006 58.7427C79.006 60.8736 77.3703 62.601 75.3525 62.601Z" fill="#00B39F"/>
<path d="M75.3472 64.5341C75.3472 64.0532 75.3629 63.8126 75.3787 63.5724C75.3944 63.3322 75.4102 63.0926 75.4102 62.6128" stroke="#359AC0" stroke-width="2" stroke-miterlimit="10" stroke-linejoin="round"/>
<path d="M69.057 68.3923C69.7168 68.3923 70.0459 65.9829 70.3766 63.5734C70.7073 61.164 71.0397 58.7545 71.7027 58.7545" stroke="#359AC0" stroke-width="2" stroke-miterlimit="10" stroke-linejoin="round"/>
<path d="M35.4325 49.7423C36.0784 50.2973 36.1414 50.5634 35.7225 51.354C34.9486 52.8282 34.6231 54.4968 34.7861 56.1538C34.777 56.2945 34.8163 56.434 34.8973 56.5492C34.9784 56.6645 35.0964 56.7486 35.2318 56.7875C36.5051 57.2538 37.6389 58.0364 38.5264 59.0615C38.5947 59.1617 38.6932 59.2374 38.8076 59.2775C38.9221 59.3177 39.0463 59.3201 39.1622 59.2845C40.7778 58.9567 42.2621 58.163 43.4319 57.0013C43.5447 56.8488 43.6975 56.7303 43.8733 56.659C44.0491 56.5876 44.2412 56.5662 44.4285 56.597C45.1496 56.7722 45.3418 57.6017 44.7775 58.1693C43.5549 59.4284 42.0171 60.3368 40.3242 60.7999C39.8758 60.9208 39.8334 61.0559 39.9843 61.4738C40.7481 63.5891 40.592 65.5733 39.0095 67.2997C38.8275 67.4984 38.8782 67.6182 38.993 67.8007C40.5193 70.1652 41.4671 72.8561 41.7595 75.6552C41.8877 76.9501 41.9018 78.2491 41.3817 79.4824C40.8817 80.6679 40.06 81.4776 38.7259 81.6547C38.7063 81.6573 38.6933 81.7093 38.6771 81.7382H37.0548C37.0326 81.5902 36.8955 81.6059 36.8046 81.5819C35.098 81.0946 33.5807 80.0983 32.4552 78.7261C32.2103 78.4468 32.0891 78.4302 31.7956 78.6572C30.8597 79.4263 29.7493 79.954 28.5619 80.1939C27.3745 80.4338 26.1463 80.3786 24.9852 80.0332C24.3781 79.8678 23.8337 79.3282 23.1956 79.5056C22.5728 79.7363 21.9734 80.0256 21.4052 80.3695C21.02 80.5625 20.6423 80.7728 20.2473 80.943C20.1162 80.9995 19.82 81.1786 19.9042 80.7517C20.1022 79.7492 20.2893 78.7445 20.4888 77.7423C20.5224 77.5968 20.5186 77.4453 20.4778 77.3017C20.4369 77.1581 20.3603 77.0272 20.2552 76.9213C18.2588 74.5653 17.7524 71.9296 18.8776 69.0293C19.026 68.6468 18.9325 68.5355 18.5886 68.3744C16.922 67.6612 15.5254 66.4365 14.6008 64.8772C14.3679 64.4661 14.21 64.0125 14.0177 63.5784V62.0651C14.1493 61.7788 14.2614 61.4815 14.4158 61.2081C15.0543 60.0778 16.0885 59.4511 17.2763 59.06C20.2617 58.1163 23.4545 58.045 26.4791 58.8544C27.2625 59.0459 27.6708 59.0085 28.1854 58.2835C29.2237 56.821 30.8116 56.301 32.5709 56.2806C32.819 56.2777 33.0523 56.3475 33.0159 55.9136C32.875 54.0582 33.2607 52.2007 34.1284 50.5546C34.2754 50.2333 34.5007 49.9541 34.7836 49.7423L35.4325 49.7423ZM16.737 61.2843C15.7732 61.9122 15.5291 62.8332 16.0489 63.8272C16.1443 64.0097 16.208 64.1058 16.441 63.9995C16.9594 63.7631 17.4936 63.5613 18.0214 63.3454C18.396 63.2719 18.7604 63.1539 19.1071 62.9941C18.5874 62.5558 18.1529 62.0256 17.8252 61.43C17.4734 60.8096 17.4709 60.8105 16.8564 61.1843C16.8141 61.2145 16.7742 61.2479 16.737 61.2843V61.2843ZM39.8401 78.518C39.8853 78.3263 39.9375 78.1359 39.9736 77.9425C40.0014 77.7931 39.9969 77.6601 39.7876 77.6312C38.9748 77.5005 38.1949 77.2143 37.4905 76.7883V77.9207C37.4279 78.4695 37.3778 79.0201 37.2968 79.5662C37.2609 79.808 37.3014 79.897 37.5661 79.9434C38.6946 80.1412 39.4832 79.6599 39.8401 78.518V78.518ZM35.6298 79.199C35.7187 79.2594 35.8047 79.3248 35.8971 79.3794C36.464 79.7144 36.53 79.6865 36.5993 79.0474C36.7169 77.9931 36.7157 76.9288 36.5957 75.8747C36.5154 74.9582 36.334 74.0534 36.055 73.1768C35.4676 74.2457 34.5424 75.0898 33.4241 75.5768C32.6531 75.9242 32.653 75.9242 33.1359 76.6289C33.1475 76.6426 33.1606 76.655 33.1749 76.666C33.7774 77.6956 34.6195 78.5645 35.6298 79.199V79.199ZM17.3527 65.4388C18.2086 66.2592 19.2573 66.8509 20.4021 67.1593C20.4998 67.1974 20.5953 67.2433 20.6957 67.2722C21.3258 67.454 21.3147 67.4517 21.3744 66.8098C21.4652 65.7097 21.884 64.662 22.5767 63.8025C22.6779 63.6762 22.8812 63.5976 22.8468 63.354C21.0095 63.385 19.1917 63.7375 17.476 64.3957C17.2173 64.4976 16.7911 64.543 16.7712 64.7928C16.7502 65.0559 17.0882 65.2781 17.3527 65.4388V65.4388ZM35.1317 73.1125C35.4292 72.7048 35.7835 72.2537 35.6373 71.7533C35.1344 70.1224 34.4426 68.5559 33.5757 67.0857C33.3394 67.4396 33.0462 67.654 32.9395 68.0106C32.4948 68.6629 32.1865 69.3983 32.033 70.1728C31.607 71.6887 31.6628 73.2996 32.1925 74.7824C32.2717 74.9912 32.317 75.1736 32.6326 75.0483C33.6563 74.6421 34.5605 74.0958 35.1317 73.1125ZM28.829 64.8957C29.097 64.658 29.3065 64.3615 29.441 64.0295C27.9967 63.7059 26.5318 63.4829 25.0567 63.3618C24.7107 63.3203 24.36 63.3801 24.0472 63.534C23.7345 63.6879 23.4732 63.9293 23.2949 64.2288C22.479 65.0779 22.2038 66.1325 22.1255 67.2672C22.1048 67.5676 22.2783 67.5755 22.4921 67.577C23.6788 67.6106 24.8589 67.3886 25.9523 66.9259C27.0457 66.4633 28.0268 65.7709 28.829 64.8957V64.8957ZM27.1146 78.5716C28.4959 78.5515 29.8262 78.0467 30.8731 77.1454C31.0517 76.997 31.189 76.8734 31.022 76.613C30.8732 76.3812 30.8479 76.1321 30.4223 76.1827C28.691 76.401 26.9375 76.015 25.4579 75.0899C24.4697 74.5254 23.6186 73.7494 22.9655 72.8175C22.3123 71.8855 21.8733 70.8207 21.6799 69.6992C21.6015 69.2605 21.3581 69.2441 21.03 69.1661C20.6293 69.0707 20.6184 69.3781 20.5323 69.5766C20.258 70.204 20.0993 70.8758 20.0639 71.5597C19.8683 75.3111 23.8169 78.5597 27.1146 78.5716H27.1146ZM40.0438 76.4729C39.8744 73.9404 39.1117 71.4833 37.8172 69.3001C37.3354 68.3942 36.7222 67.5646 35.9975 66.8382C35.8296 66.6614 35.6185 66.5315 35.385 66.4614C35.1515 66.3913 34.9037 66.3834 34.6662 66.4385C34.3083 66.5153 34.2157 66.6194 34.4266 66.9965C35.8227 69.3882 36.7659 72.0168 37.2088 74.7506C37.2523 75.1306 37.4013 75.4909 37.6389 75.7906C37.8765 76.0904 38.1933 76.3177 38.5534 76.4469C38.9173 76.598 39.2924 76.7207 39.6752 76.814C40.0352 76.9183 40.0902 76.7772 40.0438 76.4729L40.0438 76.4729ZM22.1205 60.1013C20.9499 60.0837 19.7818 60.2151 18.6444 60.4924C18.3791 60.5563 18.2788 60.6287 18.4378 60.913C18.7869 61.6066 19.31 62.1978 19.9559 62.6287C20.1296 62.7565 20.3458 62.8125 20.5596 62.7852C23.4883 62.3707 26.4688 62.5125 29.3449 63.2032C29.7716 63.2996 29.8458 63.1771 29.8162 62.8047C29.7518 61.9932 29.1713 61.6402 28.5277 61.3654C26.4958 60.5271 24.3185 60.0976 22.1205 60.1013V60.1013ZM29.4738 72.323C29.8917 72.4236 30.0287 72.2188 30.029 71.7471C30.0525 70.741 30.2408 69.7457 30.5865 68.8006C30.8962 67.8862 30.9048 67.8896 30.1188 67.2842C29.9994 67.2041 29.8888 67.1118 29.7887 67.0086C29.5921 66.7755 29.4327 66.8113 29.2106 66.9953C28.2469 67.807 27.1312 68.4186 25.9285 68.7943C25.5314 68.9159 25.5371 69.1146 25.6272 69.4269C25.9053 70.2389 26.4205 70.9488 27.1062 71.4651C27.7919 71.9813 28.6166 72.2802 29.4738 72.323V72.323Z" fill="black"/>
<path d="M27.1146 78.5717C23.8169 78.5597 19.8683 75.3111 20.0639 71.5597C20.0993 70.8758 20.258 70.204 20.5323 69.5766C20.6184 69.3781 20.6293 69.0707 21.03 69.1661C21.358 69.2441 21.6015 69.2605 21.6799 69.6992C21.8733 70.8207 22.3123 71.8855 22.9654 72.8175C23.6186 73.7494 24.4697 74.5254 25.4579 75.0899C26.9375 76.015 28.691 76.401 30.4223 76.1827C30.8479 76.1321 30.8732 76.3812 31.0219 76.613C31.189 76.8734 31.0517 76.997 30.8731 77.1454C29.8262 78.0467 28.4959 78.5515 27.1146 78.5717V78.5717Z" fill="#FBE04C"/>
<path d="M40.0438 76.4729C40.0903 76.7772 40.0353 76.9183 39.6754 76.8139C39.2925 76.7207 38.9174 76.598 38.5535 76.4469C38.1934 76.3177 37.8767 76.0904 37.639 75.7906C37.4014 75.4909 37.2524 75.1306 37.2089 74.7506C36.766 72.0168 35.8228 69.3882 34.4267 66.9965C34.2158 66.6194 34.3084 66.5153 34.6663 66.4385C34.9038 66.3834 35.1516 66.3913 35.3851 66.4614C35.6186 66.5315 35.8298 66.6614 35.9976 66.8382C36.7223 67.5646 37.3355 68.3942 37.8173 69.3001C39.1118 71.4833 39.8745 73.9404 40.0438 76.4729V76.4729ZM22.1206 60.1013C24.3186 60.0976 26.4959 60.5271 28.5278 61.3654C29.1714 61.6402 29.7519 61.9932 29.8163 62.8047C29.8459 63.177 29.7717 63.2996 29.345 63.2032C26.469 62.5125 23.4884 62.3707 20.5597 62.7852C20.3459 62.8125 20.1297 62.7565 19.956 62.6287C19.3101 62.1978 18.787 61.6066 18.4379 60.913C18.2789 60.6287 18.3792 60.5563 18.6445 60.4924C19.7819 60.2151 20.95 60.0837 22.1206 60.1013V60.1013Z" fill="#DEF0FC"/>
<path d="M29.4738 72.323C28.6166 72.2802 27.7919 71.9813 27.1062 71.4651C26.4205 70.9488 25.9053 70.2389 25.6272 69.4269C25.5371 69.1146 25.5314 68.9159 25.9285 68.7943C27.1312 68.4186 28.2469 67.807 29.2106 66.9953C29.4327 66.8113 29.5921 66.7754 29.7887 67.0085C29.8888 67.1117 29.9994 67.2041 30.1188 67.2842C30.9048 67.8896 30.8962 67.8862 30.5865 68.8006C30.2408 69.7457 30.0525 70.741 30.029 71.7471C30.0287 72.2188 29.8917 72.4236 29.4738 72.323V72.323Z" fill="#FBE04C"/>
<path d="M28.829 64.8957C28.0268 65.7709 27.0457 66.4633 25.9524 66.9259C24.859 67.3886 23.6789 67.6106 22.4921 67.577C22.2783 67.5755 22.1049 67.5676 22.1256 67.2672C22.2039 66.1325 22.479 65.0779 23.2951 64.2288C25.1581 64.2549 27.0131 64.4785 28.829 64.8957V64.8957ZM35.1318 73.1125C34.5606 74.0958 33.6564 74.6422 32.6327 75.0483C32.317 75.1736 32.2718 74.9912 32.1926 74.7824C31.6628 73.2996 31.6071 71.6887 32.0331 70.1728C32.1866 69.3983 32.4949 68.6629 32.9395 68.0106C33.0435 68.1762 33.158 68.3363 33.2497 68.5085C34.028 69.977 34.6585 71.5193 35.1318 73.1125V73.1125Z" fill="#DEF0FC"/>
<path d="M17.3527 65.4388C17.0882 65.2781 16.7502 65.0559 16.7712 64.7928C16.7911 64.543 17.2174 64.4976 17.476 64.3957C19.1917 63.7375 21.0095 63.385 22.8469 63.354C22.8812 63.5976 22.678 63.6762 22.5767 63.8025C21.884 64.662 21.4652 65.7097 21.3744 66.8098C21.3147 67.4517 21.3258 67.454 20.6957 67.2722C20.5953 67.2432 20.4998 67.1974 20.4021 67.1593C20.4446 66.2248 20.641 65.3037 20.9832 64.4332C19.7325 64.5994 18.5107 64.9378 17.3527 65.4388V65.4388ZM33.1749 76.666C33.1606 76.655 33.1475 76.6426 33.1359 76.6289C32.653 75.9242 32.6531 75.9242 33.4241 75.5768C34.5424 75.0898 35.4676 74.2457 36.055 73.1768C36.334 74.0534 36.5154 74.9582 36.5957 75.8747C36.7157 76.9288 36.7169 77.993 36.5993 79.0474C36.53 79.6865 36.464 79.7144 35.8971 79.3794C35.8047 79.3248 35.7187 79.2594 35.6298 79.199C35.803 78.0433 35.809 76.8687 35.6477 75.7113C35.6104 75.3466 35.4559 75.4495 35.2728 75.5935C34.6394 76.0674 33.93 76.4301 33.1749 76.666V76.666Z" fill="#4BADE9"/>
<path d="M33.1749 76.666C33.93 76.4301 34.6395 76.0674 35.2729 75.5935C35.456 75.4495 35.6105 75.3466 35.6478 75.7113C35.8091 76.8687 35.8031 78.0433 35.6299 79.199C34.6196 78.5645 33.7774 77.6956 33.1749 76.666ZM17.3528 65.4388C18.5108 64.9378 19.7326 64.5994 20.9833 64.4332C20.6411 65.3037 20.4447 66.2248 20.4021 67.1593C19.2574 66.8509 18.2087 66.2592 17.3528 65.4388V65.4388Z" fill="#DEF0FC"/>
<path d="M28.829 64.8957C27.0131 64.4785 25.1581 64.2549 23.295 64.2287C23.4733 63.9292 23.7346 63.6879 24.0473 63.534C24.36 63.3801 24.7107 63.3203 25.0568 63.3618C26.5318 63.4829 27.9968 63.7059 29.441 64.0295C29.3065 64.3615 29.0971 64.658 28.829 64.8957ZM35.1318 73.1125C34.6584 71.5193 34.028 69.977 33.2497 68.5085C33.158 68.3363 33.0435 68.1762 32.9395 68.0105C33.0463 67.654 33.3395 67.4396 33.5758 67.0857C34.4426 68.5559 35.1345 70.1224 35.6373 71.7533C35.7835 72.2537 35.4292 72.7048 35.1318 73.1125V73.1125Z" fill="#4BADE9"/>
<path d="M39.8401 78.5179C39.4832 79.6599 38.6946 80.1412 37.5661 79.9433C37.3014 79.8969 37.2609 79.808 37.2968 79.5662C37.3778 79.0201 37.4279 78.4694 37.4905 77.9208C38.2368 78.2439 39.0301 78.4455 39.8401 78.5179V78.5179ZM18.0214 63.3454C17.4936 63.5613 16.9594 63.7631 16.441 63.9995C16.208 64.1058 16.1443 64.0096 16.0489 63.8272C15.5291 62.8332 15.7732 61.9122 16.7369 61.2843C17.067 62.0278 17.4994 62.7215 18.0214 63.3454V63.3454Z" fill="#DEF0FC"/>
<path d="M18.0215 63.3454C17.4994 62.7215 17.067 62.0278 16.7369 61.2843C16.7741 61.2479 16.8141 61.2145 16.8565 61.1843C17.4709 60.8105 17.4734 60.8096 17.8252 61.43C18.1529 62.0256 18.5875 62.5558 19.1071 62.9941C18.7605 63.1539 18.396 63.2718 18.0215 63.3454V63.3454ZM39.8401 78.518C39.0301 78.4455 38.2369 78.2439 37.4905 77.9208C37.4906 77.5624 37.4906 77.2042 37.4906 76.7883C38.1949 77.2143 38.9749 77.5005 39.7876 77.6312C39.9969 77.6601 40.0014 77.7931 39.9736 77.9425C39.9376 78.1359 39.8854 78.3263 39.8401 78.518V78.518Z" fill="#4BADE9"/>
<path d="M35.4325 49.7423C36.0784 50.2973 36.1414 50.5634 35.7225 51.354C34.9486 52.8282 34.6231 54.4968 34.7861 56.1538C34.777 56.2945 34.8163 56.434 34.8973 56.5492C34.9784 56.6645 35.0964 56.7486 35.2318 56.7875C36.5051 57.2538 37.6389 58.0364 38.5264 59.0615C38.5947 59.1617 38.6932 59.2374 38.8076 59.2775C38.9221 59.3177 39.0463 59.3201 39.1622 59.2845C40.7778 58.9567 42.2621 58.163 43.4319 57.0013C43.5447 56.8488 43.6975 56.7303 43.8733 56.659C44.0491 56.5876 44.2412 56.5662 44.4285 56.597C45.1496 56.7722 45.3418 57.6017 44.7775 58.1693C43.5549 59.4284 42.0171 60.3368 40.3242 60.7999C39.8758 60.9208 39.8334 61.0559 39.9843 61.4738C40.7481 63.5891 40.592 65.5733 39.0095 67.2997C38.8275 67.4984 38.8782 67.6182 38.993 67.8007C40.5193 70.1652 41.4671 72.8561 41.7595 75.6552C41.8877 76.9501 41.9018 78.2491 41.3817 79.4824C40.8817 80.6679 40.06 81.4776 38.7259 81.6547C38.7063 81.6573 38.6933 81.7093 38.6771 81.7382H37.0548C37.0326 81.5902 36.8955 81.6059 36.8046 81.5819C35.098 81.0946 33.5807 80.0983 32.4552 78.7261C32.2103 78.4468 32.0891 78.4302 31.7956 78.6572C30.8597 79.4263 29.7493 79.954 28.5619 80.1939C27.3745 80.4338 26.1463 80.3786 24.9852 80.0332C24.3781 79.8678 23.8337 79.3282 23.1956 79.5056C22.5729 79.7363 21.9734 80.0256 21.4052 80.3695C21.02 80.5625 20.6423 80.7728 20.2473 80.943C20.1162 80.9995 19.82 81.1786 19.9042 80.7517C20.1022 79.7492 20.2893 78.7445 20.4888 77.7423C20.5224 77.5968 20.5186 77.4453 20.4778 77.3017C20.4369 77.1581 20.3603 77.0272 20.2552 76.9213C18.2588 74.5653 17.7524 71.9296 18.8776 69.0293C19.026 68.6468 18.9325 68.5355 18.5886 68.3744C16.922 67.6612 15.5254 66.4365 14.6008 64.8772C14.3679 64.4661 14.21 64.0125 14.0177 63.5784V62.0651C14.1493 61.7788 14.2614 61.4815 14.4158 61.2081C15.0543 60.0778 16.0885 59.4511 17.2763 59.06C20.2617 58.1163 23.4545 58.045 26.4791 58.8544C27.2625 59.0459 27.6708 59.0085 28.1854 58.2835C29.2237 56.821 30.8116 56.301 32.5709 56.2806C32.819 56.2777 33.0523 56.3475 33.0159 55.9136C32.875 54.0582 33.2607 52.2007 34.1284 50.5546C34.2754 50.2333 34.5007 49.9541 34.7836 49.7423L35.4325 49.7423ZM16.737 61.2843C15.7732 61.9122 15.5291 62.8332 16.0489 63.8272C16.1443 64.0097 16.208 64.1058 16.441 63.9995C16.9594 63.7631 17.4936 63.5613 18.0214 63.3454C18.396 63.2719 18.7604 63.1539 19.1071 62.9941C18.5874 62.5558 18.1529 62.0256 17.8252 61.43C17.4734 60.8096 17.4709 60.8105 16.8564 61.1843C16.8141 61.2145 16.7742 61.2479 16.737 61.2843ZM39.8401 78.518C39.8853 78.3263 39.9375 78.1359 39.9736 77.9425C40.0014 77.7931 39.9969 77.6601 39.7876 77.6312C38.9748 77.5005 38.1949 77.2143 37.4905 76.7883V77.9207C37.4279 78.4695 37.3778 79.0201 37.2968 79.5662C37.2609 79.808 37.3014 79.897 37.5661 79.9434C38.6946 80.1412 39.4832 79.6599 39.8401 78.518ZM35.6298 79.199C35.7187 79.2594 35.8047 79.3248 35.8971 79.3794C36.464 79.7144 36.53 79.6865 36.5993 79.0474C36.7169 77.9931 36.7157 76.9288 36.5957 75.8747C36.5154 74.9582 36.334 74.0534 36.055 73.1768C35.4676 74.2457 34.5424 75.0898 33.4241 75.5768C32.6531 75.9242 32.653 75.9242 33.1359 76.6289C33.1475 76.6426 33.1606 76.655 33.1749 76.666C33.7774 77.6956 34.6195 78.5645 35.6298 79.199ZM17.3527 65.4388C18.2086 66.2592 19.2573 66.8509 20.4021 67.1593C20.4998 67.1974 20.5953 67.2433 20.6957 67.2722C21.3258 67.454 21.3147 67.4517 21.3744 66.8098C21.4652 65.7097 21.884 64.662 22.5767 63.8025C22.6779 63.6762 22.8812 63.5976 22.8468 63.354C21.0095 63.385 19.1917 63.7375 17.476 64.3957C17.2173 64.4976 16.7911 64.543 16.7712 64.7928C16.7502 65.0559 17.0882 65.2781 17.3527 65.4388ZM35.1317 73.1125C35.4292 72.7048 35.7835 72.2537 35.6373 71.7533C35.1344 70.1224 34.4426 68.5559 33.5757 67.0857C33.3394 67.4396 33.0462 67.654 32.9395 68.0106C32.4948 68.6629 32.1865 69.3983 32.033 70.1728C31.607 71.6887 31.6628 73.2996 32.1925 74.7824C32.2717 74.9912 32.317 75.1736 32.6326 75.0483C33.6563 74.6421 34.5605 74.0958 35.1317 73.1125ZM28.829 64.8957C29.097 64.658 29.3065 64.3615 29.441 64.0295C27.9967 63.7059 26.5318 63.4829 25.0567 63.3618C24.7107 63.3203 24.36 63.3801 24.0472 63.534C23.7345 63.6879 23.4732 63.9293 23.2949 64.2288C22.479 65.0779 22.2038 66.1325 22.1255 67.2672C22.1048 67.5676 22.2783 67.5755 22.4921 67.577C23.6788 67.6106 24.8589 67.3886 25.9523 66.9259C27.0457 66.4633 28.0268 65.7709 28.829 64.8957ZM27.1146 78.5716C28.4959 78.5515 29.8262 78.0467 30.8731 77.1454C31.0517 76.997 31.189 76.8734 31.022 76.613C30.8732 76.3812 30.8479 76.1321 30.4223 76.1827C28.691 76.401 26.9375 76.015 25.4579 75.0899C24.4697 74.5254 23.6186 73.7494 22.9655 72.8175C22.3123 71.8855 21.8733 70.8207 21.6799 69.6992C21.6015 69.2605 21.3581 69.2441 21.03 69.1661C20.6293 69.0707 20.6184 69.3781 20.5323 69.5766C20.258 70.204 20.0993 70.8758 20.0639 71.5597C19.8683 75.3111 23.817 78.5597 27.1146 78.5716ZM40.0438 76.4729C39.8744 73.9404 39.1117 71.4833 37.8172 69.3001C37.3354 68.3942 36.7222 67.5646 35.9975 66.8382C35.8296 66.6614 35.6185 66.5315 35.385 66.4614C35.1515 66.3913 34.9037 66.3834 34.6662 66.4385C34.3083 66.5153 34.2157 66.6194 34.4266 66.9965C35.8227 69.3882 36.7659 72.0168 37.2088 74.7506C37.2523 75.1306 37.4013 75.4909 37.6389 75.7906C37.8765 76.0904 38.1933 76.3177 38.5534 76.4469C38.9173 76.598 39.2924 76.7207 39.6752 76.814C40.0352 76.9183 40.0902 76.7772 40.0438 76.4729ZM22.1205 60.1013C20.9499 60.0837 19.7818 60.2151 18.6444 60.4924C18.3791 60.5563 18.2788 60.6287 18.4378 60.913C18.7869 61.6066 19.31 62.1978 19.9559 62.6287C20.1296 62.7565 20.3458 62.8125 20.5596 62.7852C23.4883 62.3707 26.4688 62.5125 29.3449 63.2032C29.7716 63.2996 29.8458 63.1771 29.8162 62.8047C29.7518 61.9932 29.1713 61.6402 28.5277 61.3654C26.4958 60.5271 24.3185 60.0976 22.1205 60.1013ZM29.4738 72.323C29.8917 72.4236 30.0287 72.2188 30.029 71.7471C30.0525 70.741 30.2408 69.7457 30.5865 68.8006C30.8962 67.8862 30.9048 67.8896 30.1188 67.2842C29.9994 67.2041 29.8888 67.1118 29.7887 67.0086C29.5921 66.7755 29.4327 66.8113 29.2106 66.9953C28.2469 67.807 27.1312 68.4186 25.9285 68.7943C25.5314 68.9159 25.5371 69.1146 25.6272 69.4269C25.9053 70.2389 26.4205 70.9488 27.1062 71.4651C27.7919 71.9813 28.6166 72.2802 29.4738 72.323Z" fill="black"/>
<path d="M27.1146 78.5717C23.8169 78.5597 19.8683 75.3111 20.0639 71.5597C20.0993 70.8758 20.258 70.204 20.5323 69.5766C20.6184 69.3781 20.6293 69.0707 21.03 69.1661C21.358 69.2441 21.6015 69.2605 21.6799 69.6992C21.8733 70.8207 22.3123 71.8855 22.9654 72.8175C23.6186 73.7494 24.4697 74.5254 25.4579 75.0899C26.9375 76.015 28.691 76.401 30.4223 76.1827C30.8479 76.1321 30.8732 76.3812 31.0219 76.613C31.189 76.8734 31.0517 76.997 30.8731 77.1454C29.8262 78.0467 28.4959 78.5515 27.1146 78.5717V78.5717Z" fill="#FBE04C"/>
<path d="M40.0438 76.4729C40.0903 76.7772 40.0353 76.9183 39.6754 76.8139C39.2925 76.7207 38.9174 76.598 38.5535 76.4469C38.1934 76.3177 37.8767 76.0904 37.639 75.7906C37.4014 75.4909 37.2524 75.1306 37.2089 74.7506C36.766 72.0168 35.8228 69.3882 34.4267 66.9965C34.2158 66.6194 34.3084 66.5153 34.6663 66.4385C34.9038 66.3834 35.1516 66.3913 35.3851 66.4614C35.6186 66.5315 35.8298 66.6614 35.9976 66.8382C36.7223 67.5646 37.3355 68.3942 37.8173 69.3001C39.1118 71.4833 39.8745 73.9404 40.0438 76.4729V76.4729ZM22.1206 60.1013C24.3186 60.0976 26.4959 60.5271 28.5278 61.3654C29.1714 61.6402 29.7519 61.9932 29.8163 62.8047C29.8459 63.177 29.7717 63.2996 29.345 63.2032C26.469 62.5125 23.4884 62.3707 20.5597 62.7852C20.3459 62.8125 20.1297 62.7565 19.956 62.6287C19.3101 62.1978 18.787 61.6066 18.4379 60.913C18.2789 60.6287 18.3792 60.5563 18.6445 60.4924C19.7819 60.2151 20.95 60.0837 22.1206 60.1013V60.1013Z" fill="#DEF0FC"/>
<path d="M29.4738 72.323C28.6166 72.2802 27.7919 71.9813 27.1062 71.4651C26.4205 70.9488 25.9053 70.2389 25.6272 69.4269C25.5371 69.1146 25.5314 68.9159 25.9285 68.7943C27.1312 68.4186 28.2469 67.807 29.2106 66.9953C29.4327 66.8113 29.5921 66.7754 29.7887 67.0085C29.8888 67.1117 29.9994 67.2041 30.1188 67.2842C30.9048 67.8896 30.8962 67.8862 30.5865 68.8006C30.2408 69.7457 30.0525 70.741 30.029 71.7471C30.0287 72.2188 29.8917 72.4236 29.4738 72.323V72.323Z" fill="#FBE04C"/>
<path d="M28.829 64.8957C28.0268 65.7709 27.0457 66.4633 25.9524 66.9259C24.859 67.3886 23.6789 67.6106 22.4921 67.577C22.2783 67.5755 22.1049 67.5676 22.1256 67.2672C22.2039 66.1325 22.479 65.0779 23.2951 64.2288C25.1581 64.2549 27.0131 64.4785 28.829 64.8957V64.8957ZM35.1318 73.1125C34.5606 74.0958 33.6564 74.6422 32.6327 75.0483C32.317 75.1736 32.2718 74.9912 32.1926 74.7824C31.6628 73.2996 31.6071 71.6887 32.0331 70.1728C32.1866 69.3983 32.4949 68.6629 32.9395 68.0106C33.0435 68.1762 33.158 68.3363 33.2497 68.5085C34.028 69.977 34.6585 71.5193 35.1318 73.1125V73.1125Z" fill="#DEF0FC"/>
<path d="M17.3527 65.4388C17.0882 65.2781 16.7502 65.0559 16.7712 64.7928C16.7911 64.543 17.2174 64.4976 17.476 64.3957C19.1917 63.7375 21.0095 63.385 22.8469 63.354C22.8812 63.5976 22.678 63.6762 22.5767 63.8025C21.884 64.662 21.4652 65.7097 21.3744 66.8098C21.3147 67.4517 21.3258 67.454 20.6957 67.2722C20.5953 67.2432 20.4998 67.1974 20.4021 67.1593C20.4446 66.2248 20.641 65.3037 20.9832 64.4332C19.7325 64.5994 18.5107 64.9378 17.3527 65.4388V65.4388ZM33.1749 76.666C33.1606 76.655 33.1475 76.6426 33.1359 76.6289C32.653 75.9242 32.6531 75.9242 33.4241 75.5768C34.5424 75.0898 35.4676 74.2457 36.055 73.1768C36.334 74.0534 36.5154 74.9582 36.5957 75.8747C36.7157 76.9288 36.7169 77.993 36.5993 79.0474C36.53 79.6865 36.464 79.7144 35.8971 79.3794C35.8047 79.3248 35.7187 79.2594 35.6298 79.199C35.803 78.0433 35.809 76.8687 35.6477 75.7113C35.6104 75.3466 35.4559 75.4495 35.2728 75.5935C34.6394 76.0674 33.93 76.4301 33.1749 76.666V76.666Z" fill="#4BADE9"/>
<path d="M33.1749 76.666C33.93 76.4301 34.6395 76.0674 35.2729 75.5935C35.456 75.4495 35.6105 75.3466 35.6478 75.7113C35.8091 76.8687 35.8031 78.0433 35.6299 79.199C34.6196 78.5645 33.7774 77.6956 33.1749 76.666ZM17.3528 65.4388C18.5108 64.9378 19.7326 64.5994 20.9833 64.4332C20.6411 65.3037 20.4447 66.2248 20.4021 67.1593C19.2574 66.8509 18.2087 66.2592 17.3528 65.4388V65.4388Z" fill="#DEF0FC"/>
<path d="M28.829 64.8957C27.0131 64.4785 25.1581 64.2549 23.295 64.2287C23.4733 63.9292 23.7346 63.6879 24.0473 63.534C24.36 63.3801 24.7107 63.3203 25.0568 63.3618C26.5318 63.4829 27.9968 63.7059 29.441 64.0295C29.3065 64.3615 29.0971 64.658 28.829 64.8957ZM35.1318 73.1125C34.6584 71.5193 34.028 69.977 33.2497 68.5085C33.158 68.3363 33.0435 68.1762 32.9395 68.0105C33.0463 67.654 33.3395 67.4396 33.5758 67.0857C34.4426 68.5559 35.1345 70.1224 35.6373 71.7533C35.7835 72.2537 35.4292 72.7048 35.1318 73.1125V73.1125Z" fill="#4BADE9"/>
<path d="M39.8401 78.5179C39.4832 79.6599 38.6946 80.1412 37.5661 79.9433C37.3014 79.8969 37.2609 79.808 37.2968 79.5662C37.3778 79.0201 37.4279 78.4694 37.4905 77.9208C38.2368 78.2439 39.0301 78.4455 39.8401 78.5179V78.5179ZM18.0214 63.3454C17.4936 63.5613 16.9594 63.7631 16.441 63.9995C16.208 64.1058 16.1443 64.0096 16.0489 63.8272C15.5291 62.8332 15.7732 61.9122 16.7369 61.2843C17.067 62.0278 17.4994 62.7215 18.0214 63.3454V63.3454Z" fill="#DEF0FC"/>
<path d="M18.0215 63.3454C17.4994 62.7215 17.067 62.0278 16.7369 61.2843C16.7741 61.2479 16.8141 61.2145 16.8565 61.1843C17.4709 60.8105 17.4734 60.8096 17.8252 61.43C18.1529 62.0256 18.5875 62.5558 19.1071 62.9941C18.7605 63.1539 18.396 63.2718 18.0215 63.3454V63.3454ZM39.8401 78.518C39.0301 78.4455 38.2369 78.2439 37.4905 77.9208C37.4906 77.5624 37.4906 77.2042 37.4906 76.7883C38.1949 77.2143 38.9749 77.5005 39.7876 77.6312C39.9969 77.6601 40.0014 77.7931 39.9736 77.9425C39.9376 78.1359 39.8854 78.3263 39.8401 78.518V78.518Z" fill="#4BADE9"/>
<path d="M35.4325 49.7423C36.0784 50.2973 36.1414 50.5634 35.7225 51.354C34.9486 52.8282 34.6231 54.4968 34.7861 56.1538C34.777 56.2945 34.8163 56.434 34.8973 56.5492C34.9784 56.6645 35.0964 56.7486 35.2318 56.7875C36.5051 57.2538 37.6389 58.0364 38.5264 59.0615C38.5947 59.1617 38.6932 59.2374 38.8076 59.2775C38.9221 59.3177 39.0463 59.3201 39.1622 59.2845C40.7778 58.9567 42.2621 58.163 43.4319 57.0013C43.5447 56.8488 43.6975 56.7303 43.8733 56.659C44.0491 56.5876 44.2412 56.5662 44.4285 56.597C45.1496 56.7722 45.3418 57.6017 44.7775 58.1693C43.5549 59.4284 42.0171 60.3368 40.3242 60.7999C39.8758 60.9208 39.8334 61.0559 39.9843 61.4738C40.7481 63.5891 40.592 65.5733 39.0095 67.2997C38.8275 67.4984 38.8782 67.6182 38.993 67.8007C40.5193 70.1652 41.4671 72.8561 41.7595 75.6552C41.8877 76.9501 41.9018 78.2491 41.3817 79.4824C40.8817 80.6679 40.06 81.4776 38.7259 81.6547C38.7063 81.6573 38.6933 81.7093 38.6771 81.7382H37.0548C37.0326 81.5902 36.8955 81.6059 36.8046 81.5819C35.098 81.0946 33.5807 80.0983 32.4552 78.7261C32.2103 78.4468 32.0891 78.4302 31.7956 78.6572C30.8597 79.4263 29.7493 79.954 28.5619 80.1939C27.3745 80.4338 26.1463 80.3786 24.9852 80.0332C24.3781 79.8678 23.8337 79.3282 23.1956 79.5056C22.5729 79.7363 21.9734 80.0256 21.4052 80.3695C21.02 80.5625 20.6423 80.7728 20.2473 80.943C20.1162 80.9995 19.82 81.1786 19.9042 80.7517C20.1022 79.7492 20.2893 78.7445 20.4888 77.7423C20.5224 77.5968 20.5186 77.4453 20.4778 77.3017C20.4369 77.1581 20.3603 77.0272 20.2552 76.9213C18.2588 74.5653 17.7524 71.9296 18.8776 69.0293C19.026 68.6468 18.9325 68.5355 18.5886 68.3744C16.922 67.6612 15.5254 66.4365 14.6008 64.8772C14.3679 64.4661 14.21 64.0125 14.0177 63.5784V62.0651C14.1493 61.7788 14.2614 61.4815 14.4158 61.2081C15.0543 60.0778 16.0885 59.4511 17.2763 59.06C20.2617 58.1163 23.4545 58.045 26.4791 58.8544C27.2625 59.0459 27.6708 59.0085 28.1854 58.2835C29.2237 56.821 30.8116 56.301 32.5709 56.2806C32.819 56.2777 33.0523 56.3475 33.0159 55.9136C32.875 54.0582 33.2607 52.2007 34.1284 50.5546C34.2754 50.2333 34.5007 49.9541 34.7836 49.7423L35.4325 49.7423ZM16.737 61.2843C15.7732 61.9122 15.5291 62.8332 16.0489 63.8272C16.1443 64.0097 16.208 64.1058 16.441 63.9995C16.9594 63.7631 17.4936 63.5613 18.0214 63.3454C18.396 63.2719 18.7604 63.1539 19.1071 62.9941C18.5874 62.5558 18.1529 62.0256 17.8252 61.43C17.4734 60.8096 17.4709 60.8105 16.8564 61.1843C16.8141 61.2145 16.7742 61.2479 16.737 61.2843ZM39.8401 78.518C39.8853 78.3263 39.9375 78.1359 39.9736 77.9425C40.0014 77.7931 39.9969 77.6601 39.7876 77.6312C38.9748 77.5005 38.1949 77.2143 37.4905 76.7883V77.9207C37.4279 78.4695 37.3778 79.0201 37.2968 79.5662C37.2609 79.808 37.3014 79.897 37.5661 79.9434C38.6946 80.1412 39.4832 79.6599 39.8401 78.518ZM35.6298 79.199C35.7187 79.2594 35.8047 79.3248 35.8971 79.3794C36.464 79.7144 36.53 79.6865 36.5993 79.0474C36.7169 77.9931 36.7157 76.9288 36.5957 75.8747C36.5154 74.9582 36.334 74.0534 36.055 73.1768C35.4676 74.2457 34.5424 75.0898 33.4241 75.5768C32.6531 75.9242 32.653 75.9242 33.1359 76.6289C33.1475 76.6426 33.1606 76.655 33.1749 76.666C33.7774 77.6956 34.6195 78.5645 35.6298 79.199ZM17.3527 65.4388C18.2086 66.2592 19.2573 66.8509 20.4021 67.1593C20.4998 67.1974 20.5953 67.2433 20.6957 67.2722C21.3258 67.454 21.3147 67.4517 21.3744 66.8098C21.4652 65.7097 21.884 64.662 22.5767 63.8025C22.6779 63.6762 22.8812 63.5976 22.8468 63.354C21.0095 63.385 19.1917 63.7375 17.476 64.3957C17.2173 64.4976 16.7911 64.543 16.7712 64.7928C16.7502 65.0559 17.0882 65.2781 17.3527 65.4388ZM35.1317 73.1125C35.4292 72.7048 35.7835 72.2537 35.6373 71.7533C35.1344 70.1224 34.4426 68.5559 33.5757 67.0857C33.3394 67.4396 33.0462 67.654 32.9395 68.0106C32.4948 68.6629 32.1865 69.3983 32.033 70.1728C31.607 71.6887 31.6628 73.2996 32.1925 74.7824C32.2717 74.9912 32.317 75.1736 32.6326 75.0483C33.6563 74.6421 34.5605 74.0958 35.1317 73.1125ZM28.829 64.8957C29.097 64.658 29.3065 64.3615 29.441 64.0295C27.9967 63.7059 26.5318 63.4829 25.0567 63.3618C24.7107 63.3203 24.36 63.3801 24.0472 63.534C23.7345 63.6879 23.4732 63.9293 23.2949 64.2288C22.479 65.0779 22.2038 66.1325 22.1255 67.2672C22.1048 67.5676 22.2783 67.5755 22.4921 67.577C23.6788 67.6106 24.8589 67.3886 25.9523 66.9259C27.0457 66.4633 28.0268 65.7709 28.829 64.8957ZM27.1146 78.5716C28.4959 78.5515 29.8262 78.0467 30.8731 77.1454C31.0517 76.997 31.189 76.8734 31.022 76.613C30.8732 76.3812 30.8479 76.1321 30.4223 76.1827C28.691 76.401 26.9375 76.015 25.4579 75.0899C24.4697 74.5254 23.6186 73.7494 22.9655 72.8175C22.3123 71.8855 21.8733 70.8207 21.6799 69.6992C21.6015 69.2605 21.3581 69.2441 21.03 69.1661C20.6293 69.0707 20.6184 69.3781 20.5323 69.5766C20.258 70.204 20.0993 70.8758 20.0639 71.5597C19.8683 75.3111 23.817 78.5597 27.1146 78.5716ZM40.0438 76.4729C39.8744 73.9404 39.1117 71.4833 37.8172 69.3001C37.3354 68.3942 36.7222 67.5646 35.9975 66.8382C35.8296 66.6614 35.6185 66.5315 35.385 66.4614C35.1515 66.3913 34.9037 66.3834 34.6662 66.4385C34.3083 66.5153 34.2157 66.6194 34.4266 66.9965C35.8227 69.3882 36.7659 72.0168 37.2088 74.7506C37.2523 75.1306 37.4013 75.4909 37.6389 75.7906C37.8765 76.0904 38.1933 76.3177 38.5534 76.4469C38.9173 76.598 39.2924 76.7207 39.6752 76.814C40.0352 76.9183 40.0902 76.7772 40.0438 76.4729ZM22.1205 60.1013C20.9499 60.0837 19.7818 60.2151 18.6444 60.4924C18.3791 60.5563 18.2788 60.6287 18.4378 60.913C18.7869 61.6066 19.31 62.1978 19.9559 62.6287C20.1296 62.7565 20.3458 62.8125 20.5596 62.7852C23.4883 62.3707 26.4688 62.5125 29.3449 63.2032C29.7716 63.2996 29.8458 63.1771 29.8162 62.8047C29.7518 61.9932 29.1713 61.6402 28.5277 61.3654C26.4958 60.5271 24.3185 60.0976 22.1205 60.1013ZM29.4738 72.323C29.8917 72.4236 30.0287 72.2188 30.029 71.7471C30.0525 70.741 30.2408 69.7457 30.5865 68.8006C30.8962 67.8862 30.9048 67.8896 30.1188 67.2842C29.9994 67.2041 29.8888 67.1118 29.7887 67.0086C29.5921 66.7755 29.4327 66.8113 29.2106 66.9953C28.2469 67.807 27.1312 68.4186 25.9285 68.7943C25.5314 68.9159 25.5371 69.1146 25.6272 69.4269C25.9053 70.2389 26.4205 70.9488 27.1062 71.4651C27.7919 71.9813 28.6166 72.2802 29.4738 72.323Z" fill="black"/>
<path d="M27.1146 78.5717C23.8169 78.5597 19.8683 75.3111 20.0639 71.5597C20.0993 70.8758 20.258 70.204 20.5323 69.5766C20.6184 69.3781 20.6293 69.0707 21.03 69.1661C21.358 69.2441 21.6015 69.2605 21.6799 69.6992C21.8733 70.8207 22.3123 71.8855 22.9654 72.8175C23.6186 73.7494 24.4697 74.5254 25.4579 75.0899C26.9375 76.015 28.691 76.401 30.4223 76.1827C30.8479 76.1321 30.8732 76.3812 31.0219 76.613C31.189 76.8734 31.0517 76.997 30.8731 77.1454C29.8262 78.0467 28.4959 78.5515 27.1146 78.5717V78.5717Z" fill="#FBE04C"/>
<path d="M40.0438 76.4729C40.0903 76.7772 40.0353 76.9183 39.6754 76.8139C39.2925 76.7207 38.9174 76.598 38.5535 76.4469C38.1934 76.3177 37.8767 76.0904 37.639 75.7906C37.4014 75.4909 37.2524 75.1306 37.2089 74.7506C36.766 72.0168 35.8228 69.3882 34.4267 66.9965C34.2158 66.6194 34.3084 66.5153 34.6663 66.4385C34.9038 66.3834 35.1516 66.3913 35.3851 66.4614C35.6186 66.5315 35.8298 66.6614 35.9976 66.8382C36.7223 67.5646 37.3355 68.3942 37.8173 69.3001C39.1118 71.4833 39.8745 73.9404 40.0438 76.4729V76.4729ZM22.1206 60.1013C24.3186 60.0976 26.4959 60.5271 28.5278 61.3654C29.1714 61.6402 29.7519 61.9932 29.8163 62.8047C29.8459 63.177 29.7717 63.2996 29.345 63.2032C26.469 62.5125 23.4884 62.3707 20.5597 62.7852C20.3459 62.8125 20.1297 62.7565 19.956 62.6287C19.3101 62.1978 18.787 61.6066 18.4379 60.913C18.2789 60.6287 18.3792 60.5563 18.6445 60.4924C19.7819 60.2151 20.95 60.0837 22.1206 60.1013V60.1013Z" fill="#DEF0FC"/>
<path d="M29.4738 72.323C28.6166 72.2802 27.7919 71.9813 27.1062 71.4651C26.4205 70.9488 25.9053 70.2389 25.6272 69.4269C25.5371 69.1146 25.5314 68.9159 25.9285 68.7943C27.1312 68.4186 28.2469 67.807 29.2106 66.9953C29.4327 66.8113 29.5921 66.7754 29.7887 67.0085C29.8888 67.1117 29.9994 67.2041 30.1188 67.2842C30.9048 67.8896 30.8962 67.8862 30.5865 68.8006C30.2408 69.7457 30.0525 70.741 30.029 71.7471C30.0287 72.2188 29.8917 72.4236 29.4738 72.323V72.323Z" fill="#FBE04C"/>
<path d="M28.829 64.8957C28.0268 65.7709 27.0457 66.4633 25.9524 66.9259C24.859 67.3886 23.6789 67.6106 22.4921 67.577C22.2783 67.5755 22.1049 67.5676 22.1256 67.2672C22.2039 66.1325 22.479 65.0779 23.2951 64.2288C25.1581 64.2549 27.0131 64.4785 28.829 64.8957V64.8957ZM35.1318 73.1125C34.5606 74.0958 33.6564 74.6422 32.6327 75.0483C32.317 75.1736 32.2718 74.9912 32.1926 74.7824C31.6628 73.2996 31.6071 71.6887 32.0331 70.1728C32.1866 69.3983 32.4949 68.6629 32.9395 68.0106C33.0435 68.1762 33.158 68.3363 33.2497 68.5085C34.028 69.977 34.6585 71.5193 35.1318 73.1125V73.1125Z" fill="#DEF0FC"/>
<path d="M17.3527 65.4388C17.0882 65.2781 16.7502 65.0559 16.7712 64.7928C16.7911 64.543 17.2174 64.4976 17.476 64.3957C19.1917 63.7375 21.0095 63.385 22.8469 63.354C22.8812 63.5976 22.678 63.6762 22.5767 63.8025C21.884 64.662 21.4652 65.7097 21.3744 66.8098C21.3147 67.4517 21.3258 67.454 20.6957 67.2722C20.5953 67.2432 20.4998 67.1974 20.4021 67.1593C20.4446 66.2248 20.641 65.3037 20.9832 64.4332C19.7325 64.5994 18.5107 64.9378 17.3527 65.4388V65.4388ZM33.1749 76.666C33.1606 76.655 33.1475 76.6426 33.1359 76.6289C32.653 75.9242 32.6531 75.9242 33.4241 75.5768C34.5424 75.0898 35.4676 74.2457 36.055 73.1768C36.334 74.0534 36.5154 74.9582 36.5957 75.8747C36.7157 76.9288 36.7169 77.993 36.5993 79.0474C36.53 79.6865 36.464 79.7144 35.8971 79.3794C35.8047 79.3248 35.7187 79.2594 35.6298 79.199C35.803 78.0433 35.809 76.8687 35.6477 75.7113C35.6104 75.3466 35.4559 75.4495 35.2728 75.5935C34.6394 76.0674 33.93 76.4301 33.1749 76.666V76.666Z" fill="#4BADE9"/>
<path d="M33.1749 76.666C33.93 76.4301 34.6395 76.0674 35.2729 75.5935C35.456 75.4495 35.6105 75.3466 35.6478 75.7113C35.8091 76.8687 35.8031 78.0433 35.6299 79.199C34.6196 78.5645 33.7774 77.6956 33.1749 76.666ZM17.3528 65.4388C18.5108 64.9378 19.7326 64.5994 20.9833 64.4332C20.6411 65.3037 20.4447 66.2248 20.4021 67.1593C19.2574 66.8509 18.2087 66.2592 17.3528 65.4388V65.4388Z" fill="#DEF0FC"/>
<path d="M28.829 64.8957C27.0131 64.4785 25.1581 64.2549 23.295 64.2287C23.4733 63.9292 23.7346 63.6879 24.0473 63.534C24.36 63.3801 24.7107 63.3203 25.0568 63.3618C26.5318 63.4829 27.9968 63.7059 29.441 64.0295C29.3065 64.3615 29.0971 64.658 28.829 64.8957ZM35.1318 73.1125C34.6584 71.5193 34.028 69.977 33.2497 68.5085C33.158 68.3363 33.0435 68.1762 32.9395 68.0105C33.0463 67.654 33.3395 67.4396 33.5758 67.0857C34.4426 68.5559 35.1345 70.1224 35.6373 71.7533C35.7835 72.2537 35.4292 72.7048 35.1318 73.1125V73.1125Z" fill="#4BADE9"/>
<path d="M39.8401 78.5179C39.4832 79.6599 38.6946 80.1412 37.5661 79.9433C37.3014 79.8969 37.2609 79.808 37.2968 79.5662C37.3778 79.0201 37.4279 78.4694 37.4905 77.9208C38.2368 78.2439 39.0301 78.4455 39.8401 78.5179V78.5179ZM18.0214 63.3454C17.4936 63.5613 16.9594 63.7631 16.441 63.9995C16.208 64.1058 16.1443 64.0096 16.0489 63.8272C15.5291 62.8332 15.7732 61.9122 16.7369 61.2843C17.067 62.0278 17.4994 62.7215 18.0214 63.3454V63.3454Z" fill="#DEF0FC"/>
<path d="M18.0215 63.3454C17.4994 62.7215 17.067 62.0278 16.7369 61.2843C16.7741 61.2479 16.8141 61.2145 16.8565 61.1843C17.4709 60.8105 17.4734 60.8096 17.8252 61.43C18.1529 62.0256 18.5875 62.5558 19.1071 62.9941C18.7605 63.1539 18.396 63.2718 18.0215 63.3454V63.3454ZM39.8401 78.518C39.0301 78.4455 38.2369 78.2439 37.4905 77.9208C37.4906 77.5624 37.4906 77.2042 37.4906 76.7883C38.1949 77.2143 38.9749 77.5005 39.7876 77.6312C39.9969 77.6601 40.0014 77.7931 39.9736 77.9425C39.9376 78.1359 39.8854 78.3263 39.8401 78.518V78.518Z" fill="#4BADE9"/>
<path d="M51.0933 104.538C51.2808 104.699 51.2991 104.776 51.1775 105.006C50.9528 105.434 50.8583 105.918 50.9056 106.4C50.903 106.44 50.9144 106.481 50.9379 106.514C50.9615 106.548 50.9957 106.572 51.035 106.583C51.4047 106.719 51.7339 106.946 51.9915 107.244C52.0114 107.273 52.04 107.295 52.0732 107.306C52.1064 107.318 52.1425 107.319 52.1761 107.308C52.6452 107.213 53.0761 106.983 53.4157 106.646C53.4485 106.601 53.4928 106.567 53.5439 106.546C53.5949 106.525 53.6507 106.519 53.705 106.528C53.9144 106.579 53.9702 106.82 53.8064 106.985C53.4514 107.35 53.005 107.614 52.5135 107.748C52.3833 107.783 52.371 107.823 52.4148 107.944C52.6365 108.558 52.5912 109.134 52.1318 109.635C52.0789 109.693 52.0937 109.728 52.127 109.781C52.5701 110.467 52.8453 111.249 52.9302 112.061C52.9674 112.437 52.9715 112.814 52.8205 113.172C52.6753 113.516 52.4368 113.752 52.0494 113.803C52.0438 113.804 52.04 113.819 52.0353 113.827H51.5643C51.5579 113.784 51.518 113.789 51.4916 113.782C50.9962 113.64 50.5557 113.351 50.2289 112.953C50.1578 112.872 50.1226 112.867 50.0374 112.933C49.7657 113.156 49.4433 113.309 49.0986 113.379C48.7539 113.449 48.3973 113.433 48.0602 113.332C47.884 113.284 47.7259 113.128 47.5407 113.179C47.3599 113.246 47.1858 113.33 47.0209 113.43C46.909 113.486 46.7994 113.547 46.6847 113.596C46.6466 113.613 46.5606 113.665 46.5851 113.541C46.6426 113.25 46.6969 112.958 46.7548 112.667C46.7646 112.625 46.7635 112.581 46.7516 112.539C46.7397 112.498 46.7175 112.46 46.687 112.429C46.1074 111.745 45.9604 110.98 46.287 110.138C46.3301 110.026 46.303 109.994 46.2031 109.947C45.7193 109.74 45.3138 109.385 45.0454 108.932C44.9778 108.813 44.9319 108.681 44.8761 108.555V108.116C44.9143 108.033 44.9469 107.946 44.9917 107.867C45.177 107.539 45.4773 107.357 45.8221 107.243C46.6889 106.969 47.6158 106.949 48.4939 107.184C48.7213 107.239 48.8399 107.228 48.9893 107.018C49.2907 106.593 49.7518 106.442 50.2625 106.436C50.3345 106.435 50.4023 106.456 50.3917 106.33C50.3508 105.791 50.4628 105.252 50.7147 104.774C50.7574 104.681 50.8228 104.6 50.9049 104.538L51.0933 104.538ZM45.6656 107.889C45.3857 108.071 45.3149 108.339 45.4658 108.627C45.4935 108.68 45.512 108.708 45.5796 108.677C45.7301 108.609 45.8852 108.55 46.0385 108.487C46.1472 108.466 46.253 108.432 46.3537 108.385C46.2028 108.258 46.0766 108.104 45.9815 107.931C45.8794 107.751 45.8786 107.751 45.7002 107.86C45.688 107.869 45.6764 107.878 45.6656 107.889ZM52.3729 112.892C52.3861 112.837 52.4012 112.781 52.4117 112.725C52.4197 112.682 52.4184 112.643 52.3577 112.635C52.1217 112.597 51.8953 112.514 51.6908 112.39V112.719C51.6726 112.878 51.6581 113.038 51.6345 113.197C51.6241 113.267 51.6359 113.293 51.7127 113.306C52.0404 113.364 52.2693 113.224 52.3729 112.892ZM51.1506 113.09C51.1764 113.108 51.2014 113.127 51.2282 113.142C51.3928 113.24 51.4119 113.232 51.432 113.046C51.4662 112.74 51.4658 112.431 51.431 112.125C51.4077 111.859 51.355 111.596 51.274 111.342C51.1035 111.652 50.8349 111.897 50.5102 112.038C50.2864 112.139 50.2864 112.139 50.4265 112.344C50.4299 112.348 50.4337 112.351 50.4379 112.355C50.6128 112.654 50.8573 112.906 51.1506 113.09ZM45.8443 109.095C46.0928 109.333 46.3973 109.505 46.7296 109.595C46.758 109.606 46.7857 109.619 46.8149 109.627C46.9978 109.68 46.9946 109.68 47.0119 109.493C47.0383 109.174 47.1599 108.87 47.361 108.62C47.3904 108.583 47.4494 108.561 47.4394 108.49C46.906 108.499 46.3782 108.601 45.8801 108.792C45.805 108.822 45.6813 108.835 45.6755 108.908C45.6694 108.984 45.7675 109.048 45.8443 109.095ZM51.006 111.323C51.0923 111.205 51.1952 111.074 51.1528 110.928C51.0068 110.455 50.8059 110 50.5542 109.573C50.4856 109.676 50.4005 109.738 50.3695 109.842C50.2404 110.031 50.1509 110.245 50.1064 110.47C49.9827 110.91 49.9989 111.377 50.1527 111.808C50.1757 111.868 50.1888 111.921 50.2804 111.885C50.5776 111.767 50.8401 111.608 51.006 111.323ZM49.1761 108.937C49.254 108.868 49.3148 108.782 49.3538 108.686C48.9345 108.592 48.5092 108.527 48.081 108.492C47.9805 108.48 47.8787 108.497 47.7879 108.542C47.6971 108.587 47.6212 108.657 47.5695 108.744C47.3326 108.99 47.2527 109.297 47.23 109.626C47.224 109.713 47.2743 109.715 47.3364 109.716C47.6809 109.726 48.0236 109.661 48.341 109.527C48.6584 109.393 48.9432 109.192 49.1761 108.937ZM48.6784 112.908C49.0794 112.902 49.4657 112.755 49.7696 112.494C49.8215 112.451 49.8613 112.415 49.8128 112.339C49.7696 112.272 49.7623 112.2 49.6387 112.214C49.1361 112.278 48.627 112.166 48.1975 111.897C47.9106 111.733 47.6635 111.508 47.4738 111.237C47.2842 110.967 47.1568 110.658 47.1006 110.332C47.0778 110.205 47.0072 110.2 46.9119 110.177C46.7956 110.15 46.7924 110.239 46.7674 110.296C46.6878 110.479 46.6417 110.674 46.6314 110.872C46.5747 111.961 47.721 112.904 48.6784 112.908ZM52.4321 112.299C52.3829 111.563 52.1614 110.85 51.7856 110.216C51.6457 109.953 51.4677 109.712 51.2573 109.501C51.2086 109.45 51.1473 109.412 51.0795 109.392C51.0117 109.372 50.9398 109.369 50.8708 109.385C50.7669 109.408 50.74 109.438 50.8013 109.547C51.2066 110.242 51.4804 111.005 51.609 111.799C51.6216 111.909 51.6649 112.013 51.7339 112.101C51.8029 112.188 51.8948 112.254 51.9994 112.291C52.105 112.335 52.2139 112.371 52.3251 112.398C52.4296 112.428 52.4455 112.387 52.4321 112.299ZM47.2285 107.546C46.8887 107.54 46.5496 107.579 46.2193 107.659C46.1423 107.678 46.1132 107.699 46.1593 107.781C46.2607 107.983 46.4126 108.154 46.6001 108.279C46.6505 108.316 46.7133 108.333 46.7754 108.325C47.6256 108.204 48.4909 108.246 49.3259 108.446C49.4498 108.474 49.4713 108.439 49.4628 108.33C49.4441 108.095 49.2755 107.992 49.0887 107.913C48.4988 107.669 47.8667 107.544 47.2285 107.546ZM49.3634 111.094C49.4847 111.123 49.5245 111.064 49.5245 110.927C49.5314 110.634 49.586 110.346 49.6864 110.071C49.7763 109.806 49.7788 109.807 49.5506 109.631C49.5159 109.608 49.4838 109.581 49.4548 109.551C49.3977 109.483 49.3514 109.494 49.2869 109.547C49.0072 109.783 48.6832 109.96 48.3341 110.069C48.2188 110.105 48.2204 110.162 48.2466 110.253C48.3273 110.489 48.4769 110.695 48.676 110.845C48.875 110.995 49.1145 111.081 49.3634 111.094Z" fill="black"/>
<path d="M48.6784 112.908C47.721 112.904 46.5746 111.961 46.6314 110.872C46.6417 110.674 46.6878 110.479 46.7674 110.296C46.7924 110.239 46.7956 110.15 46.9119 110.177C47.0071 110.2 47.0778 110.205 47.1006 110.332C47.1567 110.658 47.2842 110.967 47.4738 111.237C47.6634 111.508 47.9105 111.733 48.1974 111.897C48.627 112.166 49.1361 112.278 49.6387 112.214C49.7623 112.2 49.7696 112.272 49.8128 112.339C49.8613 112.415 49.8214 112.451 49.7696 112.494C49.4656 112.755 49.0794 112.902 48.6784 112.908V112.908Z" fill="#FBE04C"/>
<path d="M52.4321 112.299C52.4456 112.387 52.4296 112.428 52.3251 112.398C52.214 112.371 52.1051 112.335 51.9994 112.291C51.8949 112.254 51.8029 112.188 51.7339 112.101C51.665 112.013 51.6217 111.909 51.6091 111.799C51.4805 111.005 51.2067 110.242 50.8013 109.547C50.7401 109.438 50.767 109.408 50.8709 109.385C50.9398 109.369 51.0118 109.372 51.0796 109.392C51.1474 109.412 51.2087 109.45 51.2574 109.501C51.4678 109.712 51.6458 109.953 51.7857 110.216C52.1615 110.85 52.3829 111.563 52.4321 112.299V112.299ZM47.2286 107.546C47.8667 107.544 48.4988 107.669 49.0888 107.913C49.2756 107.992 49.4441 108.095 49.4628 108.33C49.4714 108.438 49.4499 108.474 49.326 108.446C48.491 108.246 47.6257 108.204 46.7754 108.325C46.7133 108.333 46.6506 108.316 46.6002 108.279C46.4126 108.154 46.2608 107.983 46.1594 107.781C46.1133 107.699 46.1424 107.678 46.2194 107.659C46.5496 107.579 46.8887 107.54 47.2286 107.546V107.546Z" fill="#DEF0FC"/>
<path d="M49.3634 111.094C49.1145 111.081 48.8751 110.995 48.676 110.845C48.4769 110.695 48.3274 110.489 48.2466 110.253C48.2205 110.162 48.2188 110.105 48.3341 110.069C48.6833 109.96 49.0072 109.783 49.287 109.547C49.3514 109.494 49.3977 109.483 49.4548 109.551C49.4838 109.581 49.516 109.608 49.5506 109.631C49.7788 109.807 49.7763 109.806 49.6864 110.071C49.5861 110.346 49.5314 110.634 49.5246 110.927C49.5245 111.064 49.4847 111.123 49.3634 111.094V111.094Z" fill="#FBE04C"/>
<path d="M49.1761 108.937C48.9432 109.192 48.6584 109.393 48.341 109.527C48.0235 109.661 47.6809 109.726 47.3364 109.716C47.2743 109.715 47.224 109.713 47.23 109.626C47.2527 109.297 47.3326 108.99 47.5695 108.744C48.1104 108.751 48.6489 108.816 49.1761 108.937V108.937ZM51.006 111.323C50.8401 111.608 50.5776 111.767 50.2804 111.885C50.1888 111.921 50.1756 111.868 50.1527 111.808C49.9989 111.377 49.9827 110.91 50.1064 110.47C50.1509 110.245 50.2404 110.031 50.3695 109.842C50.3997 109.89 50.433 109.936 50.4596 109.986C50.6855 110.413 50.8686 110.86 51.006 111.323V111.323Z" fill="#DEF0FC"/>
<path d="M45.8444 109.095C45.7676 109.048 45.6695 108.984 45.6756 108.908C45.6813 108.835 45.8051 108.822 45.8802 108.792C46.3783 108.601 46.906 108.499 47.4395 108.49C47.4494 108.561 47.3904 108.583 47.361 108.62C47.1599 108.87 47.0383 109.174 47.012 109.493C46.9946 109.68 46.9979 109.68 46.8149 109.627C46.7858 109.619 46.7581 109.606 46.7297 109.595C46.742 109.323 46.799 109.056 46.8984 108.803C46.5353 108.851 46.1806 108.95 45.8444 109.095V109.095ZM50.4379 112.355C50.4338 112.351 50.43 112.348 50.4266 112.344C50.2864 112.139 50.2864 112.139 50.5103 112.038C50.8349 111.897 51.1036 111.652 51.2741 111.342C51.3551 111.596 51.4077 111.859 51.4311 112.125C51.4659 112.431 51.4663 112.74 51.4321 113.046C51.412 113.232 51.3928 113.24 51.2282 113.142C51.2014 113.127 51.1765 113.108 51.1506 113.09C51.2009 112.755 51.2027 112.413 51.1558 112.077C51.145 111.972 51.1002 112.001 51.047 112.043C50.8631 112.181 50.6571 112.286 50.4379 112.355V112.355Z" fill="#4BADE9"/>
<path d="M50.4379 112.355C50.6571 112.286 50.8631 112.181 51.047 112.043C51.1001 112.001 51.145 111.972 51.1558 112.077C51.2027 112.414 51.2009 112.755 51.1506 113.09C50.8573 112.906 50.6128 112.654 50.4379 112.355ZM45.8444 109.095C46.1806 108.95 46.5353 108.851 46.8984 108.803C46.799 109.056 46.742 109.323 46.7297 109.595C46.3973 109.505 46.0929 109.333 45.8444 109.095V109.095Z" fill="#DEF0FC"/>
<path d="M49.1762 108.937C48.649 108.816 48.1105 108.751 47.5696 108.744C47.6213 108.657 47.6972 108.587 47.788 108.542C47.8788 108.497 47.9806 108.48 48.081 108.492C48.5093 108.527 48.9346 108.592 49.3539 108.686C49.3148 108.782 49.254 108.868 49.1762 108.937ZM51.006 111.323C50.8686 110.86 50.6856 110.413 50.4597 109.986C50.433 109.936 50.3998 109.89 50.3696 109.842C50.4006 109.738 50.4857 109.676 50.5543 109.573C50.806 110 51.0068 110.455 51.1528 110.928C51.1953 111.074 51.0924 111.205 51.006 111.323V111.323Z" fill="#4BADE9"/>
<path d="M52.373 112.892C52.2693 113.224 52.0404 113.364 51.7128 113.306C51.6359 113.293 51.6241 113.267 51.6346 113.197C51.6581 113.038 51.6726 112.878 51.6908 112.719C51.9075 112.813 52.1378 112.871 52.373 112.892V112.892ZM46.0385 108.487C45.8853 108.55 45.7302 108.609 45.5797 108.677C45.512 108.708 45.4935 108.68 45.4658 108.627C45.3149 108.339 45.3858 108.071 45.6656 107.889C45.7614 108.105 45.8869 108.306 46.0385 108.487V108.487Z" fill="#DEF0FC"/>
<path d="M46.0385 108.487C45.8869 108.306 45.7614 108.105 45.6655 107.889C45.6763 107.878 45.6879 107.869 45.7002 107.86C45.8786 107.751 45.8793 107.751 45.9815 107.931C46.0766 108.104 46.2028 108.258 46.3536 108.385C46.253 108.432 46.1472 108.466 46.0385 108.487V108.487ZM52.3729 112.892C52.1377 112.871 51.9074 112.813 51.6908 112.719C51.6908 112.615 51.6908 112.511 51.6908 112.39C51.8953 112.514 52.1217 112.597 52.3577 112.635C52.4184 112.643 52.4197 112.682 52.4117 112.725C52.4012 112.781 52.386 112.837 52.3729 112.892V112.892Z" fill="#4BADE9"/>
</g>
<defs>
<clipPath id="clip0_5562_24519">
<rect width="101" height="117" fill="white"/>
</clipPath>
</defs>
</svg>
