<svg width="101" height="117" viewBox="0 0 101 117" fill="none" xmlns="http://www.w3.org/2000/svg">
<g clip-path="url(#clip0_5562_24510)">
<path fill-rule="evenodd" clip-rule="evenodd" d="M0 12.8494C0 5.75287 5.7529 0 12.8494 0H87.9065C91.3144 0 94.5827 1.35376 96.9924 3.76349C99.4022 6.17322 100.756 9.44153 100.756 12.8494V104.127C100.756 111.223 95.0031 116.976 87.9065 116.976H12.8494C5.7529 116.976 0 111.223 0 104.127V12.8494Z" fill="#EEEEEE"/>
<path d="M23.6143 37.2834V28.7678H25.3487V35.8303H29.6612V37.2834H23.6143ZM30.5381 30.3459V28.8147H36.1631V30.0022C35.6944 30.4605 35.2204 31.1168 34.7413 31.9709C34.2621 32.8251 33.8975 33.7366 33.6475 34.7053C33.3975 35.6637 33.2725 36.523 33.2725 37.2834H31.6944C31.7152 36.0959 31.9548 34.8876 32.4131 33.6584C32.8819 32.4189 33.5017 31.3147 34.2725 30.3459H30.5381ZM42.8428 37.2834V30.1428H40.296V28.6897H47.1085V30.1428H44.5772V37.2834H42.8428ZM49.1358 37.2834H47.4952V31.0647H49.0264V31.9397C49.2868 31.523 49.5212 31.2522 49.7296 31.1272C49.9379 30.9918 50.1723 30.9241 50.4327 30.9241C50.8077 30.9241 51.1723 31.0282 51.5264 31.2366L51.0108 32.6584C50.7296 32.4814 50.4743 32.3928 50.2452 32.3928C50.0056 32.3928 49.8077 32.4605 49.6514 32.5959C49.4952 32.7209 49.3702 32.9501 49.2764 33.2834C49.1827 33.6064 49.1358 34.2991 49.1358 35.3616V37.2834ZM53.462 32.9553L51.962 32.6897C52.1286 32.0855 52.4151 31.6428 52.8214 31.3616C53.238 31.0699 53.8526 30.9241 54.6651 30.9241C55.3943 30.9241 55.9359 31.0126 56.2901 31.1897C56.6547 31.3564 56.9099 31.5751 57.0557 31.8459C57.2016 32.1064 57.2745 32.5959 57.2745 33.3147L57.2589 35.2366C57.2589 35.7887 57.2849 36.1949 57.337 36.4553C57.3891 36.7053 57.488 36.9814 57.6339 37.2834H56.0089C55.9672 37.1689 55.9151 37.0074 55.8526 36.7991C55.8214 36.6949 55.8005 36.6272 55.7901 36.5959C55.5089 36.8772 55.2068 37.0855 54.8839 37.2209C54.5714 37.3564 54.2328 37.4241 53.8682 37.4241C53.2224 37.4241 52.712 37.2522 52.337 36.9084C51.9724 36.5543 51.7901 36.1116 51.7901 35.5803C51.7901 35.2262 51.8734 34.9137 52.0401 34.6428C52.2172 34.372 52.4568 34.1637 52.7589 34.0178C53.0609 33.8616 53.4984 33.7314 54.0714 33.6272C54.8318 33.4814 55.363 33.3459 55.6651 33.2209V33.0647C55.6651 32.7418 55.587 32.5126 55.4307 32.3772C55.2745 32.2418 54.9776 32.1741 54.5401 32.1741C54.2484 32.1741 54.0193 32.2314 53.8526 32.3459C53.6964 32.4605 53.5661 32.6637 53.462 32.9553ZM55.6651 34.2991C55.4568 34.3616 55.1234 34.4449 54.6651 34.5491C54.2068 34.6428 53.9047 34.7366 53.7589 34.8303C53.5505 34.9866 53.4464 35.1793 53.4464 35.4084C53.4464 35.6376 53.5297 35.8407 53.6964 36.0178C53.8734 36.1845 54.0922 36.2678 54.3526 36.2678C54.6547 36.2678 54.9411 36.1689 55.212 35.9709C55.4099 35.8251 55.5401 35.6428 55.6026 35.4241C55.6443 35.2887 55.6651 35.023 55.6651 34.6272V34.2991ZM64.3233 32.8928L62.7139 33.1897C62.6514 32.8668 62.5212 32.6272 62.3233 32.4709C62.1358 32.3043 61.891 32.2209 61.5889 32.2209C61.1723 32.2209 60.8389 32.3616 60.5889 32.6428C60.3493 32.9241 60.2296 33.398 60.2296 34.0647C60.2296 34.8043 60.3546 35.3251 60.6046 35.6272C60.8546 35.9293 61.1879 36.0803 61.6046 36.0803C61.9171 36.0803 62.1723 35.9918 62.3702 35.8147C62.5681 35.6376 62.7087 35.3303 62.7921 34.8928L64.4171 35.1741C64.2504 35.9137 63.9275 36.4762 63.4483 36.8616C62.9691 37.2366 62.3285 37.4241 61.5264 37.4241C60.6202 37.4241 59.8962 37.1376 59.3546 36.5647C58.8129 35.9918 58.5421 35.1949 58.5421 34.1741C58.5421 33.1532 58.8129 32.3564 59.3546 31.7834C59.8962 31.2105 60.6306 30.9241 61.5577 30.9241C62.3181 30.9241 62.9223 31.0855 63.3702 31.4084C63.8181 31.7314 64.1358 32.2262 64.3233 32.8928ZM69.1846 35.2991L70.8253 35.5803C70.6169 36.1845 70.2836 36.6428 69.8253 36.9553C69.3669 37.2678 68.7992 37.4241 68.1221 37.4241C67.0388 37.4241 66.2367 37.0699 65.7159 36.3616C65.2992 35.7991 65.0909 35.0855 65.0909 34.2209C65.0909 33.1897 65.3617 32.3824 65.9034 31.7991C66.445 31.2157 67.1273 30.9241 67.9503 30.9241C68.8773 30.9241 69.6065 31.2314 70.1378 31.8459C70.6794 32.4501 70.9346 33.3824 70.9034 34.6428H66.7784C66.7992 35.1324 66.9346 35.5126 67.1846 35.7834C67.4346 36.0543 67.7523 36.1897 68.1378 36.1897C68.3878 36.1897 68.6013 36.122 68.7784 35.9866C68.9555 35.8407 69.0909 35.6116 69.1846 35.2991ZM69.2784 33.6428C69.268 33.1637 69.143 32.7991 68.9034 32.5491C68.6742 32.2991 68.3878 32.1741 68.044 32.1741C67.6898 32.1741 67.393 32.3043 67.1534 32.5647C66.9242 32.8355 66.8096 33.1949 66.8096 33.6428H69.2784ZM71.671 35.5022L73.3272 35.2522C73.4001 35.5751 73.5408 35.8199 73.7491 35.9866C73.9678 36.1532 74.2699 36.2366 74.6553 36.2366C75.0824 36.2366 75.4001 36.1584 75.6085 36.0022C75.7543 35.8876 75.8272 35.7418 75.8272 35.5647C75.8272 35.4397 75.7908 35.3355 75.7178 35.2522C75.6345 35.1689 75.4522 35.0959 75.171 35.0334C73.8376 34.7418 72.9939 34.4762 72.6397 34.2366C72.1501 33.8928 71.9053 33.4241 71.9053 32.8303C71.9053 32.2887 72.1137 31.8355 72.5303 31.4709C72.9574 31.1064 73.6189 30.9241 74.5147 30.9241C75.3689 30.9241 76.0043 31.0647 76.421 31.3459C76.8376 31.6168 77.1241 32.023 77.2803 32.5647L75.7178 32.8459C75.6553 32.6064 75.5303 32.4241 75.3428 32.2991C75.1553 32.1637 74.8897 32.0959 74.546 32.0959C74.1189 32.0959 73.8116 32.1584 73.6241 32.2834C73.4991 32.3668 73.4366 32.4762 73.4366 32.6116C73.4366 32.7366 73.4887 32.8407 73.5928 32.9241C73.7387 33.0282 74.2491 33.1793 75.1241 33.3772C76.0095 33.5751 76.6241 33.8199 76.9678 34.1116C77.3116 34.4032 77.4835 34.8095 77.4835 35.3303C77.4835 35.9032 77.2439 36.398 76.7647 36.8147C76.296 37.2209 75.5928 37.4241 74.6553 37.4241C73.8116 37.4241 73.1397 37.2522 72.6397 36.9084C72.1501 36.5647 71.8272 36.0959 71.671 35.5022Z" fill="black"/>
<path d="M57.6851 111.919L56.4194 108.56H56.3882C56.3986 108.622 56.4038 108.706 56.4038 108.81C56.4142 108.914 56.4194 109.029 56.4194 109.154C56.4299 109.268 56.4351 109.388 56.4351 109.513V111.919H56.0132V108.122H56.6694L57.8726 111.279H57.9038L59.1226 108.122H59.7632V111.919H59.3257V109.482C59.3257 109.367 59.3257 109.258 59.3257 109.154C59.3361 109.039 59.3413 108.93 59.3413 108.826C59.3517 108.721 59.3621 108.633 59.3726 108.56H59.3413L58.0601 111.919H57.6851ZM62.9304 111.919H60.8054V108.122H62.9304V108.513H61.2585V109.732H62.8366V110.122H61.2585V111.529H62.9304V111.919ZM65.9222 110.904C65.9222 111.133 65.8649 111.326 65.7504 111.482C65.6358 111.638 65.4795 111.758 65.2816 111.841C65.0837 111.925 64.8441 111.966 64.5629 111.966C64.4274 111.966 64.292 111.961 64.1566 111.951C64.0316 111.94 63.9118 111.925 63.7972 111.904C63.6931 111.872 63.5993 111.836 63.516 111.794V111.372C63.6514 111.425 63.8129 111.477 64.0004 111.529C64.1879 111.57 64.3858 111.591 64.5941 111.591C64.7816 111.591 64.9379 111.565 65.0629 111.513C65.1983 111.461 65.2972 111.388 65.3597 111.294C65.4327 111.201 65.4691 111.086 65.4691 110.951C65.4691 110.815 65.4379 110.706 65.3754 110.622C65.3233 110.529 65.2295 110.445 65.0941 110.372C64.9691 110.3 64.792 110.227 64.5629 110.154C64.3962 110.091 64.2504 110.029 64.1254 109.966C64.0108 109.893 63.9118 109.815 63.8285 109.732C63.7452 109.638 63.6827 109.534 63.641 109.419C63.5993 109.305 63.5785 109.175 63.5785 109.029C63.5785 108.831 63.6254 108.659 63.7191 108.513C63.8233 108.367 63.9691 108.258 64.1566 108.185C64.3441 108.102 64.5524 108.06 64.7816 108.06C64.9899 108.06 65.1774 108.081 65.3441 108.122C65.5212 108.154 65.6827 108.206 65.8285 108.279L65.6879 108.654C65.5524 108.591 65.4066 108.544 65.2504 108.513C65.0941 108.471 64.9379 108.451 64.7816 108.451C64.6149 108.451 64.4743 108.477 64.3597 108.529C64.2556 108.57 64.1722 108.638 64.1097 108.732C64.0472 108.815 64.016 108.914 64.016 109.029C64.016 109.164 64.042 109.279 64.0941 109.372C64.1566 109.456 64.2504 109.534 64.3754 109.607C64.5004 109.669 64.667 109.737 64.8754 109.81C65.0941 109.893 65.2816 109.982 65.4379 110.076C65.5941 110.169 65.7139 110.284 65.7972 110.419C65.8806 110.544 65.9222 110.706 65.9222 110.904ZM69.5782 111.919H69.1251V110.122H67.1407V111.919H66.6876V108.122H67.1407V109.732H69.1251V108.122H69.5782V111.919ZM72.7411 111.919H70.6161V108.122H72.7411V108.513H71.0692V109.732H72.6473V110.122H71.0692V111.529H72.7411V111.919ZM74.608 108.122C74.9205 108.122 75.1757 108.159 75.3736 108.232C75.5819 108.305 75.733 108.425 75.8267 108.591C75.9309 108.747 75.983 108.945 75.983 109.185C75.983 109.383 75.9465 109.55 75.8736 109.685C75.8007 109.82 75.7069 109.93 75.5923 110.013C75.4778 110.096 75.3528 110.164 75.2173 110.216L76.2642 111.919H75.7486L74.8111 110.326H74.0298V111.919H73.5767V108.122H74.608ZM74.5767 108.497H74.0298V109.951H74.6236C74.9361 109.951 75.1653 109.888 75.3111 109.763C75.4569 109.638 75.5298 109.456 75.5298 109.216C75.5298 108.956 75.4517 108.773 75.2955 108.669C75.1392 108.555 74.8996 108.497 74.5767 108.497ZM77.8339 110.029L78.8495 108.122H79.3339L78.0683 110.451V111.919H77.6152V110.466L76.3495 108.122H76.8339L77.8339 110.029ZM82.1097 110.013C82.1097 110.326 82.0836 110.602 82.0316 110.841C81.9899 111.081 81.917 111.289 81.8128 111.466C81.7086 111.633 81.5784 111.758 81.4222 111.841C81.2659 111.925 81.0732 111.966 80.8441 111.966C80.5628 111.966 80.3284 111.893 80.1409 111.747C79.9638 111.591 79.8284 111.367 79.7347 111.076C79.6409 110.784 79.5941 110.43 79.5941 110.013C79.5941 109.607 79.6357 109.258 79.7191 108.966C79.8024 108.675 79.9326 108.451 80.1097 108.294C80.2972 108.138 80.542 108.06 80.8441 108.06C81.1357 108.06 81.3701 108.138 81.5472 108.294C81.7347 108.451 81.8753 108.675 81.9691 108.966C82.0628 109.258 82.1097 109.607 82.1097 110.013ZM80.0316 110.013C80.0316 110.367 80.0576 110.664 80.1097 110.904C80.1618 111.133 80.2451 111.31 80.3597 111.435C80.4847 111.55 80.6461 111.607 80.8441 111.607C81.042 111.607 81.1982 111.55 81.3128 111.435C81.4378 111.31 81.5263 111.133 81.5784 110.904C81.6409 110.664 81.6722 110.367 81.6722 110.013C81.6722 109.659 81.6409 109.367 81.5784 109.138C81.5263 108.898 81.4378 108.721 81.3128 108.607C81.1982 108.492 81.042 108.435 80.8441 108.435C80.6461 108.435 80.4847 108.492 80.3597 108.607C80.2451 108.721 80.1618 108.898 80.1097 109.138C80.0576 109.367 80.0316 109.659 80.0316 110.013ZM85.3124 111.044H84.7499V111.919H84.3281V111.044H82.4843V110.669L84.2968 108.091H84.7499V110.654H85.3124V111.044ZM84.3281 110.654V109.404C84.3281 109.31 84.3281 109.227 84.3281 109.154C84.3281 109.07 84.3281 108.997 84.3281 108.935C84.3385 108.862 84.3437 108.8 84.3437 108.747C84.3541 108.685 84.3593 108.622 84.3593 108.56H84.3281C84.2968 108.633 84.2604 108.706 84.2187 108.779C84.177 108.852 84.1354 108.919 84.0937 108.982L82.9218 110.654H84.3281ZM86.8902 109.591C87.1506 109.591 87.3746 109.638 87.5621 109.732C87.7496 109.815 87.8954 109.94 87.9996 110.107C88.1037 110.273 88.1558 110.477 88.1558 110.716C88.1558 110.977 88.0985 111.201 87.9839 111.388C87.8798 111.576 87.7183 111.721 87.4996 111.826C87.2912 111.919 87.0412 111.966 86.7496 111.966C86.5517 111.966 86.3642 111.951 86.1871 111.919C86.0204 111.888 85.8798 111.836 85.7652 111.763V111.357C85.8902 111.43 86.0412 111.492 86.2183 111.544C86.4058 111.586 86.5829 111.607 86.7496 111.607C86.9475 111.607 87.1142 111.576 87.2496 111.513C87.3954 111.451 87.51 111.357 87.5933 111.232C87.6767 111.107 87.7183 110.945 87.7183 110.747C87.7183 110.497 87.6402 110.305 87.4839 110.169C87.3277 110.034 87.0829 109.966 86.7496 109.966C86.6454 109.966 86.5256 109.977 86.3902 109.997C86.2652 110.008 86.161 110.023 86.0777 110.044L85.8589 109.904L85.9996 108.122H87.8902V108.513H86.3746L86.2808 109.654C86.3433 109.643 86.4267 109.633 86.5308 109.622C86.635 109.602 86.7548 109.591 86.8902 109.591Z" fill="#999999"/>
<path fill-rule="evenodd" clip-rule="evenodd" d="M58.4734 5.83813H89.9921C94.1211 5.83813 97.4683 7.86111 97.4683 10.3566C97.4683 12.852 94.1211 14.875 89.9921 14.875H58.4734C54.3444 14.875 50.9971 12.852 50.9971 10.3566C50.9971 7.86111 54.3444 5.83813 58.4734 5.83813Z" fill="#E6B8AF"/>
<path d="M53.7051 10.6172C53.7051 9.98177 53.877 9.48698 54.2207 9.13281C54.5645 8.77865 55.002 8.60156 55.5332 8.60156C55.8874 8.60156 56.2051 8.6849 56.4863 8.85156C56.7676 9.01823 56.9811 9.2526 57.127 9.55469C57.2832 9.85677 57.3613 10.1953 57.3613 10.5703C57.3613 10.9557 57.2832 11.3047 57.127 11.6172C56.9707 11.9193 56.7467 12.1484 56.4551 12.3047C56.1738 12.4609 55.8665 12.5391 55.5332 12.5391C55.179 12.5391 54.8561 12.4557 54.5645 12.2891C54.2832 12.112 54.0697 11.8724 53.9238 11.5703C53.778 11.2682 53.7051 10.9505 53.7051 10.6172ZM54.2363 10.6328C54.2363 11.0911 54.3561 11.4557 54.5957 11.7266C54.8457 11.987 55.1582 12.1172 55.5332 12.1172C55.9186 12.1172 56.2311 11.9818 56.4707 11.7109C56.7207 11.4401 56.8457 11.0599 56.8457 10.5703C56.8457 10.2578 56.7884 9.98698 56.6738 9.75781C56.5697 9.52865 56.4186 9.35156 56.2207 9.22656C56.0228 9.09115 55.7988 9.02344 55.5488 9.02344C55.1842 9.02344 54.8717 9.14844 54.6113 9.39844C54.3613 9.64844 54.2363 10.0599 54.2363 10.6328ZM57.9901 12.4766V8.66406H59.4276C59.7193 8.66406 59.9484 8.70573 60.1151 8.78906C60.2922 8.86198 60.4276 8.98177 60.5214 9.14844C60.6255 9.30469 60.6776 9.46615 60.6776 9.63281C60.6776 9.79948 60.6307 9.95573 60.537 10.1016C60.4537 10.2474 60.3234 10.362 60.1464 10.4453C60.3755 10.5182 60.5526 10.638 60.6776 10.8047C60.8026 10.9609 60.8651 11.1484 60.8651 11.3672C60.8651 11.5443 60.8287 11.7109 60.7557 11.8672C60.6828 12.0234 60.5891 12.1432 60.4745 12.2266C60.3599 12.3099 60.2193 12.3724 60.0526 12.4141C59.8859 12.4557 59.6828 12.4766 59.4432 12.4766H57.9901ZM58.4901 10.2578H59.3182C59.5474 10.2578 59.7089 10.2474 59.8026 10.2266C59.9276 10.1849 60.0214 10.1224 60.0839 10.0391C60.1568 9.94531 60.1932 9.83073 60.1932 9.69531C60.1932 9.57031 60.162 9.46094 60.0995 9.36719C60.037 9.27344 59.9484 9.21094 59.8339 9.17969C59.7193 9.13802 59.5266 9.11719 59.2557 9.11719H58.4901V10.2578ZM58.4901 12.0234H59.4432C59.6099 12.0234 59.7245 12.0182 59.787 12.0078C59.9016 11.987 59.9953 11.9557 60.0682 11.9141C60.1516 11.862 60.2193 11.7891 60.2714 11.6953C60.3234 11.6016 60.3495 11.4922 60.3495 11.3672C60.3495 11.2318 60.313 11.112 60.2401 11.0078C60.1672 10.8932 60.063 10.8151 59.9276 10.7734C59.8026 10.7318 59.6203 10.7109 59.3807 10.7109H58.4901V12.0234ZM61.3877 11.2578L61.8721 11.2109C61.8929 11.3984 61.945 11.5547 62.0283 11.6797C62.1117 11.8047 62.2367 11.9036 62.4033 11.9766C62.5804 12.0495 62.7783 12.0859 62.9971 12.0859C63.1846 12.0859 63.3512 12.0599 63.4971 12.0078C63.6533 11.9453 63.7627 11.8672 63.8252 11.7734C63.8981 11.6693 63.9346 11.5599 63.9346 11.4453C63.9346 11.3203 63.8981 11.2161 63.8252 11.1328C63.7627 11.0391 63.6533 10.9609 63.4971 10.8984C63.3929 10.8568 63.1637 10.7943 62.8096 10.7109C62.4658 10.6276 62.221 10.5495 62.0752 10.4766C61.8981 10.3828 61.7627 10.2682 61.6689 10.1328C61.5856 9.98698 61.5439 9.82552 61.5439 9.64844C61.5439 9.46094 61.596 9.28385 61.7002 9.11719C61.8148 8.9401 61.9762 8.8099 62.1846 8.72656C62.3929 8.64323 62.6273 8.60156 62.8877 8.60156C63.1689 8.60156 63.4137 8.64844 63.6221 8.74219C63.8408 8.82552 64.0075 8.95573 64.1221 9.13281C64.2367 9.3099 64.2992 9.51302 64.3096 9.74219L63.8252 9.77344C63.8044 9.53385 63.7158 9.35156 63.5596 9.22656C63.4137 9.10156 63.195 9.03906 62.9033 9.03906C62.6012 9.03906 62.3773 9.09635 62.2314 9.21094C62.096 9.32552 62.0283 9.46094 62.0283 9.61719C62.0283 9.7526 62.0752 9.86198 62.1689 9.94531C62.2731 10.0391 62.5283 10.1328 62.9346 10.2266C63.3408 10.3203 63.6221 10.3984 63.7783 10.4609C63.9971 10.5651 64.1585 10.6953 64.2627 10.8516C64.3773 11.0078 64.4346 11.1901 64.4346 11.3984C64.4346 11.6068 64.3721 11.7995 64.2471 11.9766C64.1325 12.1536 63.9658 12.2943 63.7471 12.3984C63.5387 12.4922 63.2939 12.5391 63.0127 12.5391C62.6689 12.5391 62.3773 12.4922 62.1377 12.3984C61.9085 12.2943 61.7262 12.1432 61.5908 11.9453C61.4658 11.737 61.3981 11.5078 61.3877 11.2578ZM65.129 12.4766V8.66406H67.879V9.11719H65.629V10.2734H67.7383V10.7266H65.629V12.0234H67.9727V12.4766H65.129ZM68.6828 12.4766V8.66406H70.3703C70.7141 8.66406 70.9745 8.70052 71.1516 8.77344C71.3286 8.83594 71.4693 8.95573 71.5734 9.13281C71.6776 9.29948 71.7297 9.49219 71.7297 9.71094C71.7297 9.97135 71.6411 10.1953 71.4641 10.3828C71.287 10.5703 71.0161 10.6901 70.6516 10.7422C70.787 10.8047 70.8911 10.8672 70.9641 10.9297C71.1099 11.0651 71.2453 11.237 71.3703 11.4453L72.0422 12.4766H71.4016L70.9016 11.6797C70.7557 11.4505 70.6359 11.2786 70.5422 11.1641C70.4484 11.0391 70.3599 10.9557 70.2766 10.9141C70.2036 10.862 70.1307 10.8255 70.0578 10.8047C69.9953 10.7943 69.9016 10.7891 69.7766 10.7891H69.1828V12.4766H68.6828ZM69.1828 10.3516H70.2766C70.5057 10.3516 70.6828 10.3255 70.8078 10.2734C70.9432 10.2214 71.0422 10.1432 71.1047 10.0391C71.1776 9.9349 71.2141 9.82552 71.2141 9.71094C71.2141 9.52344 71.1463 9.3724 71.0109 9.25781C70.8859 9.14323 70.6776 9.08594 70.3859 9.08594H69.1828V10.3516ZM73.5124 12.4766L72.028 8.66406H72.5749L73.5749 11.4297C73.6582 11.6589 73.7259 11.8672 73.778 12.0547C73.8301 11.8464 73.8978 11.638 73.9811 11.4297L75.0124 8.66406H75.528L74.028 12.4766H73.5124ZM75.1703 12.4766L76.6235 8.66406H77.1703L78.7328 12.4766H78.1547L77.7172 11.3203H76.1235L75.7016 12.4766H75.1703ZM76.2641 10.9141H77.561L77.1547 9.85156C77.0401 9.52865 76.9516 9.26823 76.8891 9.07031C76.837 9.3099 76.7693 9.54948 76.686 9.78906L76.2641 10.9141ZM79.1148 12.4766V8.66406H80.5523C80.844 8.66406 81.0731 8.70573 81.2398 8.78906C81.4169 8.86198 81.5523 8.98177 81.6461 9.14844C81.7502 9.30469 81.8023 9.46615 81.8023 9.63281C81.8023 9.79948 81.7554 9.95573 81.6617 10.1016C81.5783 10.2474 81.4481 10.362 81.2711 10.4453C81.5002 10.5182 81.6773 10.638 81.8023 10.8047C81.9273 10.9609 81.9898 11.1484 81.9898 11.3672C81.9898 11.5443 81.9533 11.7109 81.8804 11.8672C81.8075 12.0234 81.7138 12.1432 81.5992 12.2266C81.4846 12.3099 81.344 12.3724 81.1773 12.4141C81.0106 12.4557 80.8075 12.4766 80.5679 12.4766H79.1148ZM79.6148 10.2578H80.4429C80.6721 10.2578 80.8336 10.2474 80.9273 10.2266C81.0523 10.1849 81.1461 10.1224 81.2086 10.0391C81.2815 9.94531 81.3179 9.83073 81.3179 9.69531C81.3179 9.57031 81.2867 9.46094 81.2242 9.36719C81.1617 9.27344 81.0731 9.21094 80.9586 9.17969C80.844 9.13802 80.6513 9.11719 80.3804 9.11719H79.6148V10.2578ZM79.6148 12.0234H80.5679C80.7346 12.0234 80.8492 12.0182 80.9117 12.0078C81.0263 11.987 81.12 11.9557 81.1929 11.9141C81.2763 11.862 81.344 11.7891 81.3961 11.6953C81.4481 11.6016 81.4742 11.4922 81.4742 11.3672C81.4742 11.2318 81.4377 11.112 81.3648 11.0078C81.2919 10.8932 81.1877 10.8151 81.0523 10.7734C80.9273 10.7318 80.745 10.7109 80.5054 10.7109H79.6148V12.0234ZM82.778 12.4766V8.66406H83.278V12.4766H82.778ZM84.149 12.4766V8.66406H84.649V12.0234H86.524V12.4766H84.149ZM87.2216 12.4766V8.66406H87.7216V12.4766H87.2216ZM89.5769 12.4766V9.11719H88.3269V8.66406H91.3425V9.11719H90.0925V12.4766H89.5769ZM92.9409 12.4766V10.8672L91.4722 8.66406H92.0815L92.8315 9.80469C92.9774 10.0234 93.1076 10.2422 93.2222 10.4609C93.3368 10.263 93.4774 10.0391 93.644 9.78906L94.3784 8.66406H94.9722L93.4409 10.8672V12.4766H92.9409Z" fill="#5B0F00"/>
<path d="M57.797 47.5883C58.5054 48.197 58.5745 48.4889 58.115 49.3559C57.2663 50.9729 56.9093 52.8029 57.0881 54.6203C57.0781 54.7746 57.1211 54.9276 57.21 55.054C57.2989 55.1804 57.4284 55.2726 57.5769 55.3154C58.9734 55.8268 60.2169 56.685 61.1903 57.8094C61.2652 57.9193 61.3733 58.0023 61.4988 58.0463C61.6242 58.0904 61.7605 58.093 61.8876 58.054C63.6596 57.6945 65.2875 56.8239 66.5705 55.5498C66.6942 55.3825 66.8618 55.2526 67.0546 55.1743C67.2475 55.0961 67.4582 55.0726 67.6635 55.1064C68.4545 55.2985 68.6653 56.2083 68.0464 56.8309C66.7054 58.2118 65.0188 59.2081 63.1621 59.716C62.6703 59.8486 62.6238 59.9968 62.7893 60.4551C63.627 62.7751 63.4557 64.9514 61.7202 66.8449C61.5205 67.0627 61.5761 67.1941 61.7021 67.3943C63.3761 69.9877 64.4155 72.9389 64.7363 76.0089C64.8768 77.4291 64.8923 78.8539 64.3219 80.2065C63.7735 81.5067 62.8723 82.3948 61.4091 82.589C61.3876 82.5919 61.3733 82.6489 61.3556 82.6806H59.5763C59.552 82.5182 59.4015 82.5355 59.3018 82.5092C57.4301 81.9747 55.766 80.882 54.5316 79.377C54.2629 79.0707 54.13 79.0525 53.8081 79.3014C52.7817 80.145 51.5638 80.7237 50.2615 80.9869C48.9591 81.25 47.6121 81.1894 46.3387 80.8105C45.6728 80.6292 45.0757 80.0374 44.3759 80.2319C43.6929 80.485 43.0354 80.8023 42.4122 81.1795C41.9897 81.3912 41.5755 81.6218 41.1422 81.8085C40.9985 81.8704 40.6736 82.0669 40.766 81.5987C40.9831 80.4991 41.1883 79.3972 41.4071 78.298C41.444 78.1385 41.4398 77.9722 41.395 77.8148C41.3502 77.6573 41.2662 77.5138 41.1509 77.3975C38.9613 74.8135 38.4059 71.9227 39.64 68.7418C39.8028 68.3223 39.7002 68.2002 39.3231 68.0235C37.4951 67.2413 35.9634 65.8981 34.9493 64.1879C34.6939 63.737 34.5207 63.2395 34.3098 62.7634V61.1036C34.4541 60.7896 34.5771 60.4636 34.7465 60.1638C35.4467 58.924 36.581 58.2366 37.8837 57.8077C41.1581 56.7727 44.6599 56.6945 47.9771 57.5823C48.8363 57.7922 49.2841 57.7512 49.8486 56.9561C50.9873 55.352 52.7289 54.7818 54.6585 54.7594C54.9306 54.7562 55.1864 54.8328 55.1465 54.3569C54.992 52.3219 55.415 50.2846 56.3667 48.4793C56.5279 48.1269 56.775 47.8206 57.0852 47.5883L57.797 47.5883ZM37.2922 60.2472C36.2351 60.9359 35.9675 61.9461 36.5375 63.0363C36.6422 63.2364 36.712 63.3418 36.9676 63.2253C37.5362 62.966 38.1221 62.7447 38.7009 62.5078C39.1118 62.4272 39.5115 62.2978 39.8917 62.1226C39.3217 61.6418 38.8452 61.0603 38.4858 60.407C38.0999 59.7267 38.0972 59.7276 37.4232 60.1376C37.3768 60.1707 37.333 60.2074 37.2922 60.2472ZM62.6311 79.1487C62.6807 78.9385 62.738 78.7297 62.7775 78.5176C62.808 78.3537 62.803 78.2078 62.5735 78.1761C61.6821 78.0328 60.8267 77.719 60.0542 77.2517V78.4936C59.9854 79.0955 59.9305 79.6995 59.8417 80.2984C59.8023 80.5636 59.8468 80.6612 60.137 80.7121C61.3748 80.929 62.2397 80.4012 62.6311 79.1487ZM58.0134 79.8957C58.1109 79.9619 58.2052 80.0336 58.3065 80.0935C58.9283 80.461 59.0007 80.4304 59.0767 79.7294C59.2057 78.573 59.2044 77.4058 59.0728 76.2497C58.9846 75.2445 58.7858 74.2522 58.4798 73.2907C57.8355 74.4631 56.8207 75.3888 55.5943 75.923C54.7486 76.3039 54.7485 76.304 55.2781 77.0768C55.2909 77.0919 55.3052 77.1055 55.3209 77.1175C55.9817 78.2468 56.9053 79.1998 58.0134 79.8957ZM37.9675 64.8039C38.9063 65.7036 40.0565 66.3526 41.312 66.6908C41.4192 66.7326 41.5239 66.7829 41.634 66.8147C42.3251 67.0141 42.3129 67.0115 42.3784 66.3076C42.478 65.1009 42.9373 63.9519 43.697 63.0091C43.8081 62.8706 44.0311 62.7845 43.9934 62.5173C41.9782 62.5512 39.9845 62.9379 38.1027 63.6597C37.8191 63.7715 37.3515 63.8213 37.3297 64.0953C37.3068 64.3839 37.6775 64.6276 37.9675 64.8039ZM57.4671 73.2201C57.7934 72.773 58.1819 72.2782 58.0216 71.7294C57.4701 69.9407 56.7112 68.2226 55.7605 66.6102C55.5014 66.9982 55.1798 67.2334 55.0627 67.6245C54.575 68.34 54.2369 69.1466 54.0685 69.9959C53.6013 71.6586 53.6624 73.4253 54.2434 75.0517C54.3303 75.2807 54.38 75.4807 54.7262 75.3433C55.8489 74.8978 56.8406 74.2986 57.4671 73.2201ZM50.5544 64.2082C50.8484 63.9475 51.0781 63.6223 51.2256 63.2581C49.6416 62.9033 48.0349 62.6586 46.4171 62.5258C46.0375 62.4803 45.6529 62.5459 45.3099 62.7147C44.9669 62.8835 44.6803 63.1482 44.4848 63.4767C43.5899 64.408 43.2881 65.5647 43.2022 66.8092C43.1795 67.1386 43.3697 67.1473 43.6043 67.149C44.9059 67.1858 46.2002 66.9423 47.3993 66.4349C48.5985 65.9275 49.6746 65.1681 50.5544 64.2082ZM48.6741 79.2076C50.1891 79.1855 51.6482 78.6319 52.7964 77.6434C52.9922 77.4806 53.1428 77.345 52.9596 77.0594C52.7965 76.8052 52.7687 76.532 52.3019 76.5875C50.4031 76.8269 48.4799 76.4035 46.8571 75.3889C45.7733 74.7698 44.8398 73.9187 44.1235 72.8966C43.4071 71.8744 42.9256 70.7066 42.7135 69.4766C42.6275 68.9954 42.3605 68.9774 42.0007 68.8918C41.5612 68.7873 41.5493 69.1244 41.4548 69.3421C41.154 70.0302 40.98 70.767 40.9411 71.517C40.7266 75.6315 45.0574 79.1946 48.6741 79.2076ZM62.8545 76.9057C62.6687 74.1282 61.8322 71.4333 60.4125 69.0389C59.884 68.0453 59.2115 67.1354 58.4167 66.3386C58.2326 66.1447 58.001 66.0022 57.7449 65.9254C57.4887 65.8485 57.217 65.8398 56.9565 65.9003C56.5639 65.9845 56.4624 66.0987 56.6937 66.5123C58.225 69.1355 59.2594 72.0185 59.7451 75.0167C59.7929 75.4336 59.9563 75.8287 60.2169 76.1575C60.4775 76.4863 60.8249 76.7356 61.2199 76.8772C61.619 77.0429 62.0304 77.1775 62.4503 77.2798C62.8451 77.3943 62.9054 77.2395 62.8545 76.9057ZM43.1967 58.9498C41.9128 58.9305 40.6317 59.0746 39.3843 59.3788C39.0933 59.4488 38.9833 59.5282 39.1576 59.8401C39.5405 60.6008 40.1142 61.2492 40.8227 61.7218C41.0131 61.862 41.2502 61.9234 41.4848 61.8934C44.6969 61.4388 47.9659 61.5944 51.1203 62.3519C51.5883 62.4576 51.6696 62.3232 51.6372 61.9149C51.5665 61.0248 50.9299 60.6377 50.224 60.3362C47.9954 59.4168 45.6075 58.9457 43.1967 58.9498ZM51.2616 72.3542C51.72 72.4646 51.8703 72.24 51.8705 71.7226C51.8963 70.6192 52.1029 69.5275 52.482 68.491C52.8217 67.4881 52.8311 67.4919 51.9691 66.8278C51.8381 66.74 51.7168 66.6387 51.607 66.5255C51.3914 66.2698 51.2166 66.3091 50.9729 66.5109C49.916 67.4012 48.6923 68.072 47.3733 68.484C46.9377 68.6175 46.944 68.8354 47.0427 69.1779C47.3478 70.0685 47.9128 70.8471 48.6649 71.4133C49.4169 71.9795 50.3214 72.3073 51.2616 72.3542Z" fill="black"/>
<path d="M48.6741 79.2077C45.0573 79.1946 40.7266 75.6315 40.9411 71.517C40.9799 70.767 41.154 70.0302 41.4548 69.3421C41.5493 69.1244 41.5612 68.7873 42.0007 68.8918C42.3605 68.9774 42.6275 68.9954 42.7135 69.4766C42.9256 70.7066 43.4071 71.8745 44.1234 72.8966C44.8398 73.9187 45.7733 74.7698 46.8571 75.3889C48.4799 76.4035 50.4031 76.8269 52.3019 76.5875C52.7687 76.532 52.7965 76.8052 52.9596 77.0595C53.1428 77.345 52.9922 77.4806 52.7964 77.6434C51.6481 78.6319 50.1891 79.1856 48.6741 79.2077V79.2077Z" fill="#FBE04C"/>
<path d="M62.8545 76.9058C62.9054 77.2395 62.8451 77.3943 62.4503 77.2798C62.0304 77.1775 61.619 77.0429 61.2199 76.8772C60.825 76.7356 60.4776 76.4863 60.217 76.1575C59.9563 75.8287 59.7929 75.4336 59.7451 75.0168C59.2594 72.0185 58.225 69.1355 56.6937 66.5123C56.4624 66.0987 56.564 65.9845 56.9565 65.9003C57.217 65.8398 57.4888 65.8485 57.7449 65.9254C58.001 66.0023 58.2326 66.1447 58.4167 66.3386C59.2115 67.1354 59.884 68.0453 60.4125 69.0389C61.8322 71.4333 62.6687 74.1282 62.8545 76.9058V76.9058ZM43.1967 58.9498C45.6075 58.9457 47.9954 59.4168 50.224 60.3362C50.9299 60.6377 51.5665 61.0248 51.6372 61.9149C51.6696 62.3232 51.5883 62.4576 51.1203 62.3519C47.9659 61.5944 44.6969 61.4388 41.4848 61.8934C41.2502 61.9234 41.0131 61.862 40.8227 61.7218C40.1142 61.2492 39.5405 60.6008 39.1576 59.8401C38.9833 59.5282 39.0933 59.4488 39.3843 59.3788C40.6317 59.0747 41.9128 58.9305 43.1967 58.9498V58.9498Z" fill="#DEF0FC"/>
<path d="M51.2616 72.3542C50.3214 72.3073 49.4169 71.9795 48.6649 71.4133C47.9128 70.8471 47.3478 70.0684 47.0428 69.1779C46.944 68.8354 46.9378 68.6174 47.3733 68.484C48.6923 68.0719 49.916 67.4012 50.9729 66.5109C51.2166 66.3091 51.3914 66.2698 51.607 66.5255C51.7168 66.6387 51.8381 66.74 51.9691 66.8278C52.8311 67.4918 52.8217 67.4881 52.482 68.4909C52.1029 69.5275 51.8963 70.6192 51.8705 71.7226C51.8703 72.2399 51.72 72.4646 51.2616 72.3542V72.3542Z" fill="#FBE04C"/>
<path d="M50.5544 64.2082C49.6745 65.1681 48.5985 65.9275 47.3993 66.4349C46.2001 66.9423 44.9058 67.1858 43.6043 67.149C43.3697 67.1473 43.1795 67.1386 43.2022 66.8092C43.2881 65.5647 43.5899 64.408 44.4849 63.4767C46.5282 63.5054 48.5627 63.7506 50.5544 64.2082V64.2082ZM57.4671 73.2201C56.8406 74.2986 55.8489 74.8978 54.7262 75.3433C54.3799 75.4807 54.3303 75.2807 54.2434 75.0517C53.6624 73.4253 53.6013 71.6586 54.0685 69.9959C54.2368 69.1466 54.575 68.3399 55.0627 67.6245C55.1767 67.8062 55.3023 67.9817 55.4029 68.1706C56.2565 69.7813 56.948 71.4727 57.4671 73.2201V73.2201Z" fill="#DEF0FC"/>
<path d="M37.9675 64.8039C37.6774 64.6275 37.3067 64.3839 37.3297 64.0953C37.3515 63.8213 37.8191 63.7715 38.1027 63.6597C39.9845 62.9379 41.9782 62.5512 43.9934 62.5173C44.0311 62.7845 43.8081 62.8706 43.697 63.0091C42.9373 63.9519 42.478 65.1009 42.3784 66.3076C42.3129 67.0115 42.3251 67.014 41.634 66.8147C41.5239 66.7829 41.4192 66.7326 41.312 66.6908C41.3586 65.6659 41.574 64.6557 41.9494 63.7009C40.5776 63.8832 39.2376 64.2544 37.9675 64.8039V64.8039ZM55.3208 77.1175C55.3052 77.1055 55.2909 77.0918 55.2781 77.0768C54.7485 76.304 54.7486 76.3039 55.5942 75.9229C56.8207 75.3888 57.8355 74.463 58.4797 73.2906C58.7857 74.2521 58.9846 75.2445 59.0727 76.2497C59.2043 77.4058 59.2057 78.573 59.0767 79.7294C59.0007 80.4304 58.9283 80.4609 58.3065 80.0935C58.2052 80.0336 58.1109 79.9619 58.0133 79.8956C58.2033 78.6281 58.2099 77.3399 58.033 76.0705C57.9921 75.6705 57.8227 75.7833 57.6219 75.9412C56.9271 76.461 56.149 76.8588 55.3208 77.1175V77.1175Z" fill="#4BADE9"/>
<path d="M55.3208 77.1175C56.149 76.8588 56.9271 76.461 57.6219 75.9413C57.8227 75.7834 57.9921 75.6705 58.033 76.0705C58.2099 77.3399 58.2033 78.6281 58.0133 79.8957C56.9053 79.1998 55.9816 78.2468 55.3208 77.1175ZM37.9675 64.8039C39.2376 64.2544 40.5776 63.8832 41.9494 63.7009C41.574 64.6557 41.3586 65.6659 41.312 66.6908C40.0564 66.3526 38.9062 65.7036 37.9675 64.8039V64.8039Z" fill="#DEF0FC"/>
<path d="M50.5544 64.2082C48.5628 63.7506 46.5282 63.5054 44.4849 63.4767C44.6804 63.1482 44.967 62.8835 45.31 62.7147C45.653 62.5459 46.0376 62.4803 46.4171 62.5258C48.0349 62.6586 49.6416 62.9033 51.2256 63.2581C51.0781 63.6223 50.8484 63.9475 50.5544 64.2082ZM57.4671 73.2201C56.948 71.4728 56.2565 69.7813 55.4029 68.1706C55.3024 67.9818 55.1767 67.8062 55.0627 67.6245C55.1798 67.2334 55.5014 66.9982 55.7605 66.6102C56.7112 68.2226 57.4701 69.9407 58.0216 71.7295C58.1819 72.2783 57.7934 72.773 57.4671 73.2201V73.2201Z" fill="#4BADE9"/>
<path d="M62.6311 79.1487C62.2397 80.4012 61.3748 80.929 60.137 80.7121C59.8468 80.6612 59.8023 80.5636 59.8416 80.2984C59.9305 79.6995 59.9854 79.0955 60.0541 78.4938C60.8727 78.8481 61.7427 79.0692 62.6311 79.1487V79.1487ZM38.701 62.5079C38.1221 62.7447 37.5362 62.966 36.9676 63.2253C36.712 63.3418 36.6422 63.2364 36.5375 63.0363C35.9675 61.9461 36.2351 60.9359 37.2921 60.2473C37.6542 61.0628 38.1284 61.8236 38.701 62.5079V62.5079Z" fill="#DEF0FC"/>
<path d="M38.7009 62.5078C38.1284 61.8236 37.6542 61.0627 37.2921 60.2473C37.3329 60.2074 37.3768 60.1708 37.4232 60.1376C38.0971 59.7276 38.0999 59.7267 38.4857 60.407C38.8451 61.0603 39.3217 61.6418 39.8917 62.1226C39.5115 62.2978 39.1117 62.4272 38.7009 62.5078V62.5078ZM62.6311 79.1487C61.7427 79.0692 60.8727 78.8481 60.0541 78.4938C60.0542 78.1007 60.0542 77.7078 60.0542 77.2517C60.8267 77.7189 61.6821 78.0328 62.5735 78.1761C62.803 78.2078 62.808 78.3537 62.7775 78.5175C62.7379 78.7297 62.6807 78.9385 62.6311 79.1487V79.1487Z" fill="#4BADE9"/>
<path d="M51.0933 104.538C51.2808 104.699 51.2991 104.776 51.1775 105.006C50.9528 105.434 50.8583 105.918 50.9057 106.4C50.903 106.44 50.9144 106.481 50.938 106.514C50.9615 106.548 50.9958 106.572 51.0351 106.583C51.4047 106.719 51.7339 106.946 51.9916 107.244C52.0114 107.273 52.04 107.295 52.0732 107.306C52.1064 107.318 52.1425 107.319 52.1761 107.308C52.6452 107.213 53.0761 106.983 53.4157 106.646C53.4485 106.601 53.4928 106.567 53.5439 106.546C53.5949 106.525 53.6507 106.519 53.7051 106.528C53.9144 106.579 53.9702 106.82 53.8064 106.985C53.4514 107.35 53.005 107.614 52.5135 107.748C52.3833 107.783 52.371 107.823 52.4148 107.944C52.6366 108.558 52.5912 109.134 52.1318 109.635C52.079 109.693 52.0937 109.728 52.127 109.781C52.5701 110.467 52.8453 111.249 52.9302 112.061C52.9674 112.437 52.9715 112.814 52.8205 113.172C52.6753 113.516 52.4368 113.752 52.0495 113.803C52.0438 113.804 52.04 113.819 52.0353 113.827H51.5643C51.5579 113.784 51.5181 113.789 51.4917 113.782C50.9962 113.64 50.5557 113.351 50.2289 112.953C50.1578 112.872 50.1227 112.867 50.0375 112.933C49.7657 113.156 49.4434 113.309 49.0986 113.379C48.7539 113.449 48.3973 113.433 48.0602 113.332C47.884 113.284 47.7259 113.128 47.5407 113.179C47.3599 113.246 47.1858 113.33 47.0209 113.43C46.909 113.486 46.7994 113.547 46.6847 113.596C46.6467 113.613 46.5607 113.665 46.5851 113.541C46.6426 113.25 46.6969 112.958 46.7548 112.667C46.7646 112.625 46.7635 112.581 46.7516 112.539C46.7398 112.498 46.7175 112.46 46.687 112.429C46.1074 111.745 45.9604 110.98 46.2871 110.138C46.3302 110.026 46.303 109.994 46.2032 109.947C45.7193 109.74 45.3138 109.385 45.0454 108.932C44.9778 108.813 44.932 108.681 44.8761 108.555V108.116C44.9143 108.033 44.9469 107.946 44.9917 107.867C45.1771 107.539 45.4773 107.357 45.8222 107.243C46.6889 106.969 47.6159 106.949 48.494 107.184C48.7214 107.239 48.8399 107.228 48.9893 107.018C49.2908 106.593 49.7518 106.442 50.2625 106.436C50.3346 106.435 50.4023 106.456 50.3917 106.33C50.3508 105.791 50.4628 105.252 50.7147 104.774C50.7574 104.681 50.8228 104.6 50.9049 104.538L51.0933 104.538ZM45.6656 107.889C45.3858 108.071 45.3149 108.339 45.4658 108.627C45.4935 108.68 45.512 108.708 45.5797 108.677C45.7302 108.609 45.8853 108.55 46.0385 108.487C46.1472 108.466 46.2531 108.432 46.3537 108.385C46.2028 108.258 46.0767 108.104 45.9815 107.931C45.8794 107.751 45.8787 107.751 45.7003 107.86C45.688 107.869 45.6764 107.878 45.6656 107.889ZM52.373 112.892C52.3861 112.837 52.4012 112.781 52.4117 112.725C52.4198 112.682 52.4185 112.643 52.3577 112.635C52.1217 112.597 51.8953 112.514 51.6908 112.39V112.719C51.6726 112.878 51.6581 113.038 51.6346 113.197C51.6241 113.267 51.6359 113.293 51.7128 113.306C52.0404 113.364 52.2693 113.224 52.373 112.892ZM51.1506 113.09C51.1764 113.108 51.2014 113.127 51.2282 113.142C51.3928 113.24 51.412 113.232 51.4321 113.046C51.4662 112.74 51.4659 112.431 51.431 112.125C51.4077 111.859 51.3551 111.596 51.2741 111.342C51.1035 111.652 50.8349 111.897 50.5103 112.038C50.2864 112.139 50.2864 112.139 50.4266 112.344C50.4299 112.348 50.4337 112.351 50.4379 112.355C50.6128 112.654 50.8573 112.906 51.1506 113.09ZM45.8444 109.095C46.0928 109.333 46.3973 109.505 46.7297 109.595C46.758 109.606 46.7858 109.619 46.8149 109.627C46.9978 109.68 46.9946 109.68 47.0119 109.493C47.0383 109.174 47.1599 108.87 47.361 108.62C47.3904 108.583 47.4494 108.561 47.4394 108.49C46.906 108.499 46.3783 108.601 45.8801 108.792C45.8051 108.822 45.6813 108.835 45.6755 108.908C45.6694 108.984 45.7676 109.048 45.8444 109.095ZM51.006 111.323C51.0924 111.205 51.1952 111.074 51.1528 110.928C51.0068 110.455 50.8059 110 50.5543 109.573C50.4857 109.676 50.4005 109.738 50.3696 109.842C50.2405 110.031 50.1509 110.245 50.1064 110.47C49.9827 110.91 49.9989 111.377 50.1527 111.808C50.1757 111.868 50.1888 111.921 50.2805 111.885C50.5777 111.767 50.8402 111.608 51.006 111.323ZM49.1762 108.937C49.254 108.868 49.3148 108.782 49.3539 108.686C48.9346 108.592 48.5093 108.527 48.081 108.492C47.9805 108.48 47.8787 108.497 47.7879 108.542C47.6971 108.587 47.6213 108.657 47.5695 108.744C47.3326 108.99 47.2528 109.297 47.23 109.626C47.224 109.713 47.2744 109.715 47.3364 109.716C47.681 109.726 48.0236 109.661 48.341 109.527C48.6584 109.393 48.9433 109.192 49.1762 108.937ZM48.6785 112.908C49.0795 112.902 49.4657 112.755 49.7696 112.494C49.8215 112.451 49.8613 112.415 49.8129 112.339C49.7697 112.272 49.7623 112.2 49.6388 112.214C49.1361 112.278 48.627 112.166 48.1975 111.897C47.9106 111.733 47.6635 111.508 47.4739 111.237C47.2842 110.967 47.1568 110.658 47.1006 110.332C47.0779 110.205 47.0072 110.2 46.912 110.177C46.7956 110.15 46.7925 110.239 46.7675 110.296C46.6878 110.479 46.6418 110.674 46.6315 110.872C46.5747 111.961 47.7211 112.904 48.6785 112.908ZM52.4321 112.299C52.3829 111.563 52.1615 110.85 51.7857 110.216C51.6458 109.953 51.4678 109.712 51.2574 109.501C51.2086 109.45 51.1473 109.412 51.0795 109.392C51.0117 109.372 50.9398 109.369 50.8708 109.385C50.7669 109.408 50.7401 109.438 50.8013 109.547C51.2066 110.242 51.4804 111.005 51.609 111.799C51.6217 111.909 51.6649 112.013 51.7339 112.101C51.8029 112.188 51.8948 112.254 51.9994 112.291C52.105 112.335 52.2139 112.371 52.3251 112.398C52.4296 112.428 52.4456 112.387 52.4321 112.299ZM47.2285 107.546C46.8887 107.54 46.5496 107.579 46.2194 107.659C46.1423 107.678 46.1132 107.699 46.1594 107.781C46.2607 107.983 46.4126 108.154 46.6001 108.279C46.6505 108.316 46.7133 108.333 46.7754 108.325C47.6257 108.204 48.491 108.246 49.326 108.446C49.4499 108.474 49.4714 108.439 49.4628 108.33C49.4441 108.095 49.2756 107.992 49.0887 107.913C48.4988 107.669 47.8667 107.544 47.2285 107.546ZM49.3634 111.094C49.4847 111.123 49.5245 111.064 49.5246 110.927C49.5314 110.634 49.5861 110.346 49.6864 110.071C49.7763 109.806 49.7788 109.807 49.5506 109.631C49.516 109.608 49.4839 109.581 49.4548 109.551C49.3977 109.483 49.3515 109.494 49.287 109.547C49.0072 109.783 48.6833 109.96 48.3341 110.069C48.2188 110.105 48.2205 110.162 48.2466 110.253C48.3274 110.489 48.4769 110.695 48.676 110.845C48.8751 110.995 49.1145 111.081 49.3634 111.094Z" fill="black"/>
<path d="M48.6784 112.908C47.721 112.904 46.5747 111.961 46.6315 110.872C46.6417 110.674 46.6878 110.479 46.7674 110.296C46.7924 110.239 46.7956 110.15 46.9119 110.177C47.0072 110.2 47.0779 110.205 47.1006 110.332C47.1568 110.658 47.2842 110.967 47.4738 111.237C47.6635 111.508 47.9106 111.733 48.1975 111.897C48.627 112.166 49.1361 112.278 49.6387 112.214C49.7623 112.2 49.7696 112.272 49.8128 112.339C49.8613 112.415 49.8215 112.451 49.7696 112.494C49.4657 112.756 49.0795 112.902 48.6784 112.908V112.908Z" fill="#FBE04C"/>
<path d="M52.4321 112.299C52.4456 112.387 52.4296 112.428 52.3251 112.398C52.2139 112.371 52.1051 112.335 51.9994 112.291C51.8949 112.254 51.8029 112.188 51.7339 112.1C51.6649 112.013 51.6217 111.909 51.609 111.799C51.4804 111.005 51.2066 110.242 50.8013 109.547C50.7401 109.438 50.7669 109.408 50.8709 109.385C50.9398 109.369 51.0117 109.372 51.0795 109.392C51.1473 109.412 51.2086 109.45 51.2574 109.501C51.4678 109.712 51.6458 109.953 51.7857 110.216C52.1615 110.85 52.3829 111.563 52.4321 112.299V112.299ZM47.2285 107.546C47.8667 107.544 48.4988 107.669 49.0887 107.913C49.2756 107.992 49.4441 108.095 49.4628 108.33C49.4714 108.438 49.4499 108.474 49.326 108.446C48.491 108.246 47.6257 108.204 46.7754 108.325C46.7133 108.333 46.6505 108.316 46.6001 108.279C46.4126 108.154 46.2607 107.983 46.1594 107.781C46.1132 107.699 46.1423 107.678 46.2194 107.659C46.5496 107.579 46.8887 107.54 47.2285 107.546V107.546Z" fill="#DEF0FC"/>
<path d="M49.3634 111.094C49.1145 111.081 48.8751 110.995 48.676 110.845C48.4769 110.695 48.3274 110.489 48.2466 110.253C48.2205 110.162 48.2188 110.105 48.3341 110.069C48.6833 109.96 49.0072 109.783 49.287 109.547C49.3514 109.494 49.3977 109.483 49.4548 109.551C49.4838 109.581 49.516 109.608 49.5506 109.631C49.7788 109.807 49.7763 109.806 49.6864 110.071C49.5861 110.346 49.5314 110.635 49.5246 110.927C49.5245 111.064 49.4847 111.123 49.3634 111.094V111.094Z" fill="#FBE04C"/>
<path d="M49.1762 108.937C48.9433 109.192 48.6584 109.393 48.341 109.527C48.0236 109.661 47.681 109.726 47.3364 109.716C47.2744 109.715 47.224 109.713 47.23 109.626C47.2527 109.297 47.3326 108.99 47.5695 108.744C48.1104 108.751 48.649 108.816 49.1762 108.937V108.937ZM51.006 111.323C50.8402 111.608 50.5777 111.767 50.2805 111.885C50.1888 111.921 50.1757 111.868 50.1527 111.808C49.9989 111.377 49.9827 110.91 50.1064 110.47C50.1509 110.245 50.2405 110.031 50.3695 109.842C50.3997 109.89 50.433 109.936 50.4596 109.986C50.6856 110.413 50.8686 110.86 51.006 111.323V111.323Z" fill="#DEF0FC"/>
<path d="M45.8443 109.095C45.7675 109.048 45.6694 108.984 45.6755 108.908C45.6813 108.835 45.805 108.822 45.8801 108.792C46.3782 108.601 46.906 108.499 47.4394 108.49C47.4494 108.561 47.3904 108.583 47.361 108.62C47.1599 108.87 47.0383 109.174 47.0119 109.493C46.9946 109.68 46.9978 109.68 46.8149 109.627C46.7857 109.619 46.758 109.606 46.7296 109.595C46.742 109.323 46.799 109.056 46.8984 108.803C46.5352 108.851 46.1805 108.95 45.8443 109.095V109.095ZM50.4379 112.355C50.4337 112.351 50.4299 112.348 50.4265 112.344C50.2864 112.139 50.2864 112.139 50.5102 112.038C50.8349 111.897 51.1035 111.652 51.274 111.342C51.355 111.596 51.4077 111.859 51.431 112.125C51.4658 112.431 51.4662 112.74 51.432 113.046C51.4119 113.232 51.3928 113.24 51.2282 113.142C51.2014 113.127 51.1764 113.108 51.1506 113.09C51.2009 112.754 51.2026 112.413 51.1558 112.077C51.1449 111.972 51.1001 112.001 51.0469 112.043C50.863 112.181 50.6571 112.286 50.4379 112.355V112.355Z" fill="#4BADE9"/>
<path d="M50.4379 112.355C50.6571 112.286 50.8631 112.181 51.047 112.043C51.1001 112.001 51.145 111.972 51.1558 112.077C51.2026 112.414 51.2009 112.755 51.1506 113.09C50.8573 112.906 50.6128 112.654 50.4379 112.355ZM45.8443 109.095C46.1805 108.95 46.5352 108.851 46.8984 108.803C46.799 109.056 46.742 109.323 46.7296 109.595C46.3973 109.505 46.0928 109.333 45.8443 109.095V109.095Z" fill="#DEF0FC"/>
<path d="M49.1762 108.937C48.649 108.816 48.1104 108.751 47.5695 108.744C47.6213 108.657 47.6971 108.587 47.7879 108.542C47.8787 108.497 47.9805 108.48 48.081 108.492C48.5092 108.527 48.9345 108.592 49.3538 108.686C49.3148 108.782 49.254 108.868 49.1762 108.937ZM51.006 111.323C50.8686 110.86 50.6855 110.413 50.4596 109.986C50.433 109.936 50.3997 109.89 50.3695 109.842C50.4005 109.738 50.4856 109.676 50.5542 109.573C50.8059 110 51.0068 110.455 51.1528 110.928C51.1952 111.074 51.0923 111.205 51.006 111.323V111.323Z" fill="#4BADE9"/>
<path d="M52.3729 112.892C52.2693 113.224 52.0404 113.364 51.7127 113.306C51.6359 113.293 51.6241 113.267 51.6345 113.197C51.6581 113.038 51.6726 112.878 51.6908 112.719C51.9075 112.813 52.1378 112.871 52.3729 112.892V112.892ZM46.0385 108.487C45.8852 108.55 45.7301 108.609 45.5796 108.677C45.512 108.708 45.4935 108.68 45.4658 108.627C45.3149 108.339 45.3858 108.071 45.6655 107.889C45.7614 108.105 45.8869 108.306 46.0385 108.487V108.487Z" fill="#DEF0FC"/>
<path d="M46.0385 108.487C45.8869 108.306 45.7614 108.105 45.6656 107.889C45.6764 107.878 45.688 107.869 45.7003 107.86C45.8787 107.751 45.8794 107.751 45.9815 107.931C46.0767 108.104 46.2028 108.258 46.3537 108.385C46.253 108.432 46.1472 108.466 46.0385 108.487V108.487ZM52.3729 112.892C52.1378 112.871 51.9075 112.813 51.6908 112.719C51.6908 112.615 51.6908 112.511 51.6908 112.39C51.8953 112.514 52.1217 112.597 52.3577 112.635C52.4184 112.643 52.4198 112.682 52.4117 112.725C52.4012 112.781 52.3861 112.837 52.3729 112.892V112.892Z" fill="#4BADE9"/>
</g>
<defs>
<clipPath id="clip0_5562_24510">
<rect width="101" height="117" fill="white"/>
</clipPath>
</defs>
</svg>
