<svg xmlns="http://www.w3.org/2000/svg" role="img" viewBox="-7.05 -1.55 554.10 600.60"><style>svg {enable-background:new 0 0 543.6 594}</style><path fill="#fff" d="M25.3 492.5c0 4.4 1 8.5 2.9 12.1s4.5 6.8 7.6 9.3c3.1 2.6 6.8 4.6 10.9 6 4.1 1.4 8.4 2.1 12.9 2.1 6 0 11.2-1.4 15.7-4.2 4.4-2.8 8.5-6.5 12.2-11l14.6 11.2c-10.7 13.9-25.7 20.8-45.1 20.8-8 0-15.3-1.4-21.8-4.1-6.5-2.7-12-6.5-16.5-11.3-4.5-4.8-8-10.4-10.4-16.9-2.4-6.5-3.6-13.5-3.6-21.1 0-7.6 1.3-14.6 4-21.1 2.6-6.5 6.3-12.2 10.9-16.9s10.2-8.5 16.6-11.3c6.4-2.7 13.4-4.1 21-4.1 9 0 16.6 1.6 22.8 4.7 6.2 3.1 11.3 7.3 15.3 12.3 4 5.1 6.9 10.8 8.7 17.2 1.8 6.4 2.7 12.8 2.7 19.4v6.9H25.3zM86.2 477c-.1-4.3-.8-8.2-2-11.8-1.2-3.6-3-6.7-5.5-9.3-2.4-2.6-5.5-4.7-9.1-6.2-3.6-1.5-7.9-2.3-12.8-2.3-4.7 0-9 .9-13 2.7-3.9 1.8-7.3 4.1-10 7-2.7 2.9-4.8 6-6.3 9.5s-2.3 7-2.3 10.4h61zm37.4-42.5h19.3v15.7h.4c2.4-5.4 6.7-9.8 12.7-13.2 6-3.4 12.9-5 20.8-5 4.9 0 9.5.8 14.1 2.3 4.5 1.5 8.4 3.8 11.8 7 3.4 3.1 6 7.2 8 12.1 2 4.9 3 10.8 3 17.5v65.4h-19.3v-60.1c0-4.7-.6-8.8-1.9-12.1-1.3-3.4-3-6.1-5.2-8.2-2.1-2.1-4.6-3.6-7.4-4.5-2.8-.9-5.7-1.4-8.7-1.4-4 0-7.7.6-11.2 1.9-3.4 1.3-6.4 3.3-9 6.1-2.6 2.8-4.6 6.3-6 10.6-1.4 4.3-2.1 9.4-2.1 15.2v52.3h-19.3V434.5zm96.3 0h22.3l30.5 77.9 29.2-77.9h20.6l-39.9 101.7h-21.2l-41.5-101.7zm103.8 50.9c0-7.4 1.4-14.4 4.2-20.8 2.8-6.4 6.6-12.1 11.5-16.9 4.9-4.9 10.6-8.7 17.2-11.5 6.6-2.8 13.7-4.2 21.2-4.2 7.6 0 14.7 1.4 21.2 4.2 6.6 2.8 12.3 6.6 17.2 11.5 4.9 4.9 8.7 10.5 11.5 16.9 2.8 6.4 4.2 13.4 4.2 20.8s-1.4 14.4-4.2 20.9c-2.8 6.5-6.6 12.2-11.5 16.9-4.9 4.8-10.6 8.6-17.2 11.4-6.6 2.8-13.7 4.2-21.2 4.2-7.6 0-14.7-1.4-21.2-4.2-6.6-2.8-12.3-6.6-17.2-11.4-4.9-4.8-8.7-10.4-11.5-16.9-2.8-6.5-4.2-13.5-4.2-20.9zm20.6 0c0 5.2.8 9.9 2.4 14.3 1.6 4.4 3.8 8.1 6.7 11.2 2.9 3.1 6.4 5.5 10.5 7.3 4.1 1.8 8.8 2.7 13.9 2.7s9.8-.9 13.9-2.7c4.1-1.8 7.6-4.2 10.5-7.3 2.9-3.1 5.1-6.8 6.7-11.2 1.6-4.4 2.4-9.1 2.4-14.3 0-5.1-.8-9.9-2.4-14.3-1.6-4.4-3.8-8.1-6.7-11.2-2.9-3.1-6.4-5.5-10.5-7.3-4.1-1.8-8.8-2.7-13.9-2.7s-9.8.9-13.9 2.7c-4.2 1.8-7.7 4.2-10.5 7.3-2.9 3.1-5.1 6.8-6.7 11.2-1.6 4.4-2.4 9.1-2.4 14.3zm89.1-50.9h22.3l30.1 79.4h.4l28.9-79.4h20.6l-48.3 123.6c-1.7 4.4-3.5 8.5-5.3 12.1-1.8 3.6-4.1 6.8-6.6 9.3-2.6 2.6-5.7 4.6-9.3 6-3.6 1.4-8.1 2.1-13.4 2.1-2.8 0-5.7-.2-8.7-.5-2.9-.4-5.7-1.1-8.4-2.3l2.3-17.6c3.8 1.6 7.7 2.4 11.5 2.4 3 0 5.5-.4 7.6-1.2 2.1-.8 3.8-1.9 5.3-3.4s2.7-3.3 3.7-5.3 2-4.3 3-6.9l6.3-16.1-42-102.2z"/><path fill="#b31aab" d="M157.9 171.8l.6 27 28.4 17.6-.6-27zm69.3 112.1l-.6-26.4-24.9-15.5c-.4-.2-.7-.5-1.1-.7l.6 26.5 26 16.1zm-88.7 35.5l-64.9-40.2-1.6-67.5 31.8-13.7-.6-27-50.8 21.9c-3.9 1.7-6.3 5.3-6.2 9.5l1.9 81c.1 4.2 2.6 8.3 6.6 10.8l77.9 48.2c3.6 2.2 8 2.9 11.7 1.7.4-.1.7-.3 1.1-.4l47.8-20.6-25.9-16.1-28.8 12.4z"/><path fill="#d163ce" d="M348.3 170.2c-.1-4.9-3.1-9.7-7.8-12.6L246 99.1l-2.9 1.3.7 28.3 74.8 46.4 1.8 75.8 28.6 17.7 1.6-.7-2.3-97.7zM235.1 303.4L147.3 249l-2.2-91.4 40-17.2-.7-31.5-62.1 26.8c-4.6 2-7.3 6.2-7.2 11l2.5 107.1c.1 4.9 3.1 9.6 7.7 12.5l102.9 63.8c4.2 2.6 9.3 3.3 13.6 2 .4-.1.9-.3 1.3-.5l60.8-26.2-30.2-18.7-38.6 16.7z"/><path fill="#e13eaf" d="M482.1 95.2l-132-81.8c-4.9-3-10.7-3.8-15.6-2.2-.5.2-1 .3-1.4.5L204.3 67.2c-5.2 2.2-8.4 7-8.2 12.6l3.2 137.3c.1 5.6 3.5 11 8.9 14.3l132 81.8c4.9 3 10.7 3.8 15.6 2.3.5-.2 1-.3 1.5-.5L486 259.5c5.2-2.2 8.3-7.1 8.2-12.6L491 109.6c-.2-5.6-3.6-11-8.9-14.4zM348 282.6l-114.7-71.1-2.8-119.3L342.4 44 457 115.1l2.8 119.3L348 282.6z"/></svg>