<svg id="Layer_1" data-name="Layer 1" xmlns="http://www.w3.org/2000/svg" viewBox="0 0 334.7 25.33"><title>Artboard 15</title><polygon points="262.44 0 252.31 25.33 258.09 25.33 264.97 7.6 269.88 20.26 261.9 20.26 260.01 25.33 277.64 25.33 267.51 0 262.44 0" style="fill:#3c494f"/><path d="M70.64,0h10V5.37H55.3V0H70.64" style="fill:#3c494f"/><rect x="65.29" y="7.62" width="5.37" height="17.71" style="fill:#3c494f"/><polygon points="28.9 3.99 28.9 5.07 28.9 10.13 28.9 16.31 28.9 25.33 52.92 25.33 52.92 20.26 33.97 20.26 33.97 16.31 33.97 15.2 48.53 15.2 48.53 10.13 33.97 10.13 33.97 5.07 52.92 5.07 52.92 0 28.9 0 28.9 3.99" style="fill:#3c494f"/><rect x="118.42" width="5.57" height="25.33" style="fill:#3c494f"/><path d="M186.93,25.33h-4.81v-10H165.45v10h-4.82V10h21.49V0h4.81ZM165.45,7.62h-4.82V0h4.82Z" style="fill:#3c494f"/><path d="M25.51,0V4.29H6.9a1.8,1.8,0,0,0-.57.1,1.82,1.82,0,0,0-.48.25A1.27,1.27,0,0,0,5.53,5a1,1,0,0,0-.12.46V25.33h0A5.41,5.41,0,0,1,0,19.92V5.73A5.93,5.93,0,0,1,.59,3.28,6,6,0,0,1,2,1.61,7.59,7.59,0,0,1,4.24.43,8,8,0,0,1,6.9,0Z" style="fill:#3c494f"/><rect x="13.8" y="10.53" width="11.71" height="4.29" style="fill:#3c494f"/><rect x="21.22" y="10.53" width="4.29" height="8.56" style="fill:#3c494f"/><path d="M25.51,21V23.2a2.12,2.12,0,0,1-2.12,2.13h-18V21Z" style="fill:#3c494f"/><path d="M206.63,0h10V5.37H191.29V0h15.34" style="fill:#3c494f"/><rect x="201.27" y="7.62" width="5.37" height="17.71" style="fill:#3c494f"/><path d="M248.14,25.33h-4.81v-10H226.66v10h-4.82V10h21.49V0h4.81ZM226.66,7.62h-4.82V0h4.82Z" style="fill:#3c494f"/><path d="M114.58,25.33h-5.37V6.86a1.4,1.4,0,0,0-.12-.58,1.56,1.56,0,0,0-.32-.47,1.51,1.51,0,0,0-.47-.32,1.43,1.43,0,0,0-.58-.12H82.9V0h24.82a6.58,6.58,0,0,1,2.65.54A7.07,7.07,0,0,1,112.57,2,7.15,7.15,0,0,1,114,4.2a6.66,6.66,0,0,1,.54,2.66Zm-23.73,0H85.48V8.18h5.37Z" style="fill:#3c494f"/><polygon points="281.75 0 277.04 0 282.52 25.33 287.19 25.33 281.75 0" style="fill:#3c494e"/><polygon points="288.18 22.86 292.87 9.62 295.77 25.33 301.02 25.33 305.31 0.03 300.64 0.03 298.32 13.73 295.79 0.08 291.4 0.08 286.38 14.53 288.18 22.86" style="fill:#3c494e"/><polyline points="334.42 0 327.3 0 313.85 11.29 313.85 0.01 308.85 0.01 308.85 25.33 313.85 25.33 313.85 18.02" style="fill:#3c494e"/><polygon points="323.05 12.24 334.7 25.33 327.51 25.33 318.93 15.71 323.05 12.24" style="fill:#3c494e"/><path d="M154.86,0V4.29h-18.6a1.83,1.83,0,0,0-1.06.35,1.44,1.44,0,0,0-.32.38,1,1,0,0,0-.12.46V25.33h0a5.41,5.41,0,0,1-5.41-5.41V5.73a5.93,5.93,0,0,1,.59-2.45,5.85,5.85,0,0,1,1.44-1.67A7.41,7.41,0,0,1,133.59.43,8.12,8.12,0,0,1,136.26,0Z" style="fill:#3c494f"/><rect x="143.15" y="10.53" width="11.71" height="4.29" style="fill:#3c494f"/><rect x="150.57" y="10.53" width="4.29" height="8.56" style="fill:#3c494f"/><path d="M154.86,21V23.2a2.12,2.12,0,0,1-2.12,2.13h-18V21Z" style="fill:#3c494f"/></svg>