<svg id="Layer_1" data-name="Layer 1" xmlns="http://www.w3.org/2000/svg" viewBox="0 0 370 260"><title>getnighthawk</title><polygon points="282.75 134.14 282.47 134.35 283.14 134.44 282.75 134.14" style="fill:none"/><polygon points="88.1 134.27 88.39 134.23 88.27 134.14 88.1 134.27" style="fill:none"/><polygon points="351.47 145.59 350.65 144.97 351.47 150.96 351.47 145.59" style="fill:#00d3a9"/><polygon points="18.53 145.59 18.53 150.96 19.34 144.97 18.53 145.59" style="fill:#00d3a9"/><polygon points="351.47 186.37 351.47 150.96 350.65 144.97 348.54 143.36 283.14 134.44 351.47 186.37" style="fill:#00d3a9"/><polygon points="143.31 115.36 130.13 128.54 185 121.05 143.31 115.36" style="fill:#00b39f"/><polygon points="226.69 115.36 185 121.05 239.87 128.54 226.69 115.36" style="fill:#00b39f"/><polygon points="88.1 134.27 21.46 143.36 19.34 144.97 18.53 150.96 18.53 187.14 88.1 134.27" style="fill:#00d3a9"/><polygon points="185 121.05 130.13 128.54 108.88 149.8 134.08 168.95 153.1 154.5 185.51 179.13 217.92 154.5 236.93 168.95 261.56 150.24 239.87 128.54 185 121.05" style="fill:#00b39f"/><polyline points="283.14 134.44 351.47 145.59 185 19.09 18.53 145.59 88.39 134.23 88.27 134.14 88.39 134.23 130.13 128.54 143.31 115.36 185 121.05 226.69 115.36 239.87 128.54 282.47 134.35" style="fill:#00b39f"/><polygon points="280.09 201.59 269.96 226.91 275.74 226.91 282.62 209.19 287.53 221.85 279.55 221.85 277.66 226.91 295.29 226.91 285.16 201.59 280.09 201.59" style="fill:#3c494f"/><path d="M88.29,201.59h10V207H73v-5.37H88.29" style="fill:#3c494f"/><rect x="82.94" y="209.2" width="5.37" height="17.71" style="fill:#3c494f"/><polygon points="46.55 205.57 46.55 206.65 46.55 211.72 46.55 217.9 46.55 226.91 70.57 226.91 70.57 221.85 51.62 221.85 51.62 217.9 51.62 216.78 66.18 216.78 66.18 211.72 51.62 211.72 51.62 206.65 70.57 206.65 70.57 201.59 46.55 201.59 46.55 205.57" style="fill:#3c494f"/><rect x="136.07" y="201.59" width="5.57" height="25.33" style="fill:#3c494f"/><path d="M204.58,226.91h-4.81V217H183.1v10h-4.82V211.58h21.49v-10h4.81ZM183.1,209.2h-4.82v-7.61h4.82Z" style="fill:#3c494f"/><path d="M43.16,201.59v4.29H24.55A1.79,1.79,0,0,0,24,206a1.69,1.69,0,0,0-.48.26,1.16,1.16,0,0,0-.32.38.93.93,0,0,0-.12.46v19.84h0a5.41,5.41,0,0,1-5.41-5.4V207.32a5.93,5.93,0,0,1,.59-2.46,6.11,6.11,0,0,1,1.43-1.67A7.89,7.89,0,0,1,21.88,202a8.12,8.12,0,0,1,2.67-.43Z" style="fill:#3c494f"/><rect x="31.45" y="212.12" width="11.71" height="4.29" style="fill:#3c494f"/><rect x="38.87" y="212.11" width="4.29" height="8.56" style="fill:#3c494f"/><path d="M43.16,222.62v2.17A2.12,2.12,0,0,1,41,226.91h-18v-4.29Z" style="fill:#3c494f"/><path d="M224.28,201.59h10V207H208.94v-5.37h15.34" style="fill:#3c494f"/><rect x="218.92" y="209.2" width="5.37" height="17.71" style="fill:#3c494f"/><path d="M265.79,226.91H261V217H244.31v10h-4.82V211.58H261v-10h4.81ZM244.31,209.2h-4.82v-7.61h4.82Z" style="fill:#3c494f"/><path d="M132.23,226.91h-5.37V208.44a1.39,1.39,0,0,0-.12-.57,1.75,1.75,0,0,0-.32-.48,1.7,1.7,0,0,0-.47-.32,1.43,1.43,0,0,0-.58-.11H100.55v-5.37h24.82a6.58,6.58,0,0,1,2.65.54,7.07,7.07,0,0,1,2.2,1.47,7.15,7.15,0,0,1,1.47,2.19,6.61,6.61,0,0,1,.54,2.65Zm-23.73,0h-5.37V209.77h5.37Z" style="fill:#3c494f"/><polygon points="299.4 201.59 294.69 201.59 300.17 226.91 304.84 226.91 299.4 201.59" style="fill:#3c494e"/><polygon points="305.83 224.45 310.51 211.2 313.42 226.91 318.67 226.91 322.96 201.62 318.29 201.62 315.96 215.32 313.44 201.67 309.05 201.67 304.03 216.12 305.83 224.45" style="fill:#3c494e"/><polyline points="352.07 201.59 344.95 201.59 331.5 212.88 331.5 201.6 326.5 201.6 326.5 226.91 331.5 226.91 331.5 219.61" style="fill:#3c494e"/><polygon points="340.7 213.82 352.35 226.91 345.17 226.91 336.58 217.29 340.7 213.82" style="fill:#3c494e"/><path d="M172.51,201.59v4.29h-18.6a1.81,1.81,0,0,0-.58.09,1.84,1.84,0,0,0-.48.26,1.3,1.3,0,0,0-.32.38.93.93,0,0,0-.12.46v19.84h0a5.41,5.41,0,0,1-5.41-5.4V207.32a5,5,0,0,1,2-4.13,7.62,7.62,0,0,1,2.21-1.17,8.12,8.12,0,0,1,2.67-.43Z" style="fill:#3c494f"/><rect x="160.8" y="212.12" width="11.71" height="4.29" style="fill:#3c494f"/><rect x="168.22" y="212.11" width="4.29" height="8.56" style="fill:#3c494f"/><path d="M172.51,222.62v2.17a2.12,2.12,0,0,1-2.12,2.12h-18v-4.29Z" style="fill:#3c494f"/></svg>