<?xml version="1.0" encoding="utf-8"?>
<!-- Generator: Adobe Illustrator 28.0.0, SVG Export Plug-In . SVG Version: 6.00 Build 0)  -->
<svg version="1.1" id="Layer_1" xmlns="http://www.w3.org/2000/svg" xmlns:xlink="http://www.w3.org/1999/xlink" x="0px" y="0px"
	 viewBox="0 0 329 263" style="enable-background:new 0 0 329 263;" xml:space="preserve">
<style type="text/css">
	.st0{fill:#326CE5;}
	.st1{fill:#FFFFFF;}
	.st2{fill:#B32700;}
	.st3{font-family:'QanelasSoft-Bold';}
	.st4{font-size:38.8827px;}
</style>
<path class="st0" d="M158.5,148.9c-0.3-0.1-0.7-0.1-1-0.1c-0.6,0-1.2,0.2-1.7,0.5c-1.1,0.5-1.9,1.4-2.3,2.5s-0.4,2.3,0.1,3.4l0,0
	l10.4,25.1c10-6.4,17.5-15.8,21.5-27L158.5,148.9L158.5,148.9z M116.7,152.4c-0.2-1-0.8-1.9-1.6-2.5c-0.8-0.6-1.8-1-2.8-1
	c-0.3,0-0.6,0-0.9,0.1l0-0.1l-26.6,4.5c4,11,11.5,20.5,21.4,26.8l10.3-24.9l-0.1-0.1C116.9,154.4,116.9,153.4,116.7,152.4
	L116.7,152.4z M139,162.2c-0.4-0.7-1-1.3-1.7-1.8c-0.7-0.4-1.5-0.6-2.3-0.6c-0.8,0-1.6,0.2-2.3,0.6c-0.7,0.4-1.3,1-1.7,1.8h0
	l-13.1,23.6c9.4,3.2,19.4,3.7,29.1,1.5c1.8-0.4,3.5-0.9,5.2-1.5L139,162.2L139,162.2z M180.4,107.3l-20.1,18l0,0.1
	c-0.6,0.5-1.1,1.2-1.3,2c-0.3,0.8-0.3,1.6-0.1,2.4s0.6,1.5,1.1,2.1c0.6,0.6,1.3,1,2.1,1.2l0,0.1l26.1,7.5
	C189.3,129.1,186.5,117.3,180.4,107.3L180.4,107.3z M143,109.3c0,0.8,0.3,1.6,0.8,2.3c0.5,0.7,1.1,1.2,1.8,1.6
	c0.7,0.4,1.6,0.5,2.4,0.4c0.8-0.1,1.6-0.4,2.3-0.9l0.1,0l22-15.6c-8.4-8.2-19.2-13.4-30.9-14.9L143,109.3L143,109.3z M119.7,112.9
	c0.7,0.5,1.4,0.8,2.3,0.8c0.8,0.1,1.6-0.1,2.4-0.4c0.7-0.4,1.4-0.9,1.8-1.6c0.5-0.7,0.7-1.5,0.7-2.3l0.1-0.1l1.5-27
	c-1.8,0.2-3.7,0.5-5.5,0.9c-9.6,2.2-18.5,7-25.6,13.9L119.7,112.9L119.7,112.9z M107.9,133.3c0.8-0.2,1.5-0.6,2.1-1.2s1-1.3,1.1-2.1
	c0.2-0.8,0.1-1.6-0.1-2.4c-0.3-0.8-0.7-1.5-1.3-2l0-0.1l-20.2-18.1c-6.2,10-8.8,21.9-7.5,33.6L107.9,133.3L107.9,133.3z
	 M127.5,141.2l7.5,3.6l7.4-3.6l1.8-8l-5.1-6.4h-8.3l-5.2,6.4L127.5,141.2z"/>
<path class="st0" d="M258.3,157.1l-21.3-92.4c-0.6-2.4-1.7-4.6-3.2-6.5c-1.5-1.9-3.5-3.5-5.7-4.5l-86.1-41.1
	c-2.2-1.1-4.7-1.6-7.1-1.6c-2.5,0-4.9,0.6-7.1,1.6l-86,41.1c-2.2,1.1-4.2,2.6-5.7,4.5s-2.6,4.1-3.2,6.5l-21.2,92.4
	c-0.5,2.3-0.5,4.8,0,7.1c0.2,0.7,0.4,1.4,0.6,2.1c0.4,1.2,1,2.3,1.6,3.3c0.3,0.4,0.6,0.9,0.9,1.3l59.6,74.1c0.3,0.3,0.5,0.6,0.8,0.9
	c0.9,1,2,1.9,3.1,2.6c1.5,0.9,3,1.6,4.7,2c1.4,0.4,2.8,0.6,4.2,0.6h0.9l94.6,0c0.6,0,1.2,0,1.7-0.1c0.8-0.1,1.6-0.2,2.4-0.5
	c0.6-0.1,1.1-0.3,1.7-0.5c0.4-0.2,0.9-0.3,1.3-0.5c0.6-0.3,1.2-0.6,1.8-1c1.5-0.9,2.8-2.1,4-3.5l1.8-2.3l57.7-71.8
	c1.1-1.4,2-2.9,2.6-4.6c0.2-0.7,0.5-1.4,0.6-2.1C258.9,161.8,258.9,159.4,258.3,157.1L258.3,157.1z M169.1,193
	c0.2,0.7,0.5,1.4,0.9,2.1c-0.5,0.9-0.7,2-0.4,3c1.3,2.9,2.8,5.6,4.6,8.2c1,1.3,1.9,2.7,2.8,4.1c0.2,0.4,0.5,1,0.7,1.4
	c0.4,0.6,0.6,1.3,0.7,2s0,1.4-0.2,2.1c-0.2,0.7-0.6,1.3-1,1.9c-0.5,0.5-1.1,1-1.7,1.3c-0.7,0.3-1.4,0.5-2.1,0.5
	c-0.7,0-1.4-0.1-2.1-0.4c-0.7-0.3-1.3-0.7-1.8-1.2c-0.5-0.5-0.9-1.1-1.1-1.8c-0.2-0.4-0.5-0.9-0.6-1.3c-0.6-1.5-1.1-3.1-1.5-4.7
	c-0.9-3-2.1-5.9-3.5-8.7c-0.6-0.9-1.6-1.4-2.6-1.6c-0.2-0.3-0.8-1.4-1.1-2c-15.3,5.8-32.2,5.8-47.5-0.1l-1.2,2.1
	c-0.8,0.1-1.6,0.5-2.2,1.1c-1.8,2.9-3.1,6-4,9.3c-0.4,1.6-0.9,3.2-1.5,4.7c-0.2,0.4-0.4,0.9-0.6,1.3v0l0,0c-0.2,0.7-0.6,1.3-1.1,1.8
	c-0.5,0.5-1.1,0.9-1.8,1.2c-0.7,0.3-1.4,0.4-2.1,0.4c-0.7,0-1.4-0.2-2.1-0.5c-0.7-0.3-1.2-0.8-1.7-1.3c-0.5-0.5-0.8-1.2-1-1.9
	c-0.2-0.7-0.3-1.4-0.2-2.1s0.3-1.4,0.7-2c0.2-0.4,0.5-1,0.7-1.4c0.8-1.4,1.8-2.8,2.8-4.1c1.8-2.6,3.4-5.4,4.7-8.4c0.1-1,0-2-0.5-2.9
	l0.9-2.2c-14.1-8.3-24.7-21.5-29.7-37.1l-2.2,0.4c-0.9-0.6-1.9-1-3-1c-3.1,0.6-6.1,1.5-9,2.6c-1.5,0.7-3,1.3-4.6,1.8
	c-0.4,0.1-0.9,0.2-1.3,0.3c0,0-0.1,0-0.1,0c0,0-0.1,0-0.1,0c-0.7,0.2-1.4,0.3-2.1,0.2c-0.7-0.1-1.4-0.3-2-0.6
	c-0.6-0.4-1.2-0.8-1.6-1.4c-0.4-0.6-0.7-1.2-0.9-1.9c-0.2-0.7-0.2-1.4,0-2.1c0.1-0.7,0.4-1.4,0.8-2c0.4-0.6,0.9-1.1,1.6-1.5
	c0.6-0.4,1.3-0.6,2-0.7l0.1,0l0,0c0.4-0.1,1-0.2,1.4-0.3c1.6-0.2,3.3-0.4,4.9-0.4c3.1-0.2,6.2-0.7,9.2-1.5c0.9-0.6,1.7-1.3,2.2-2.2
	l2.2-0.6c-2.3-16.3,1.4-32.8,10.5-46.5l-1.7-1.5c-0.1-1.1-0.4-2.1-1-3c-2.4-2-4.9-3.8-7.7-5.4c-1.5-0.7-2.9-1.6-4.3-2.5
	c-0.3-0.2-0.7-0.6-1.1-0.9L63.5,85c-1.2-0.8-2-2.1-2.2-3.5c-0.2-1.4,0.1-2.9,0.9-4.1c0.5-0.6,1.1-1.1,1.8-1.4
	c0.7-0.3,1.5-0.5,2.3-0.4c1.3,0.1,2.6,0.5,3.6,1.4c0.4,0.3,0.8,0.6,1.1,0.9c1.2,1.1,2.3,2.3,3.4,3.6c2.1,2.3,4.4,4.4,6.9,6.3
	c0.9,0.5,2,0.6,3.1,0.3c0.6,0.4,1.2,0.9,1.9,1.3c9.1-9.6,20.8-16.3,33.7-19.2c3.1-0.7,6.2-1.2,9.3-1.4l0.1-2.2
	c0.8-0.7,1.4-1.6,1.7-2.7c0.1-3.1-0.1-6.3-0.6-9.3c-0.3-1.6-0.6-3.3-0.7-4.9c0-0.4,0-0.9,0-1.3c0,0,0-0.1,0-0.1
	c-0.1-0.7,0-1.4,0.2-2.1c0.2-0.7,0.6-1.3,1.1-1.9c0.5-0.5,1.1-1,1.7-1.3c0.7-0.3,1.4-0.4,2.1-0.4c0.7,0,1.4,0.2,2.1,0.4
	c0.7,0.3,1.3,0.7,1.7,1.3c0.5,0.5,0.9,1.2,1.1,1.9c0.2,0.7,0.3,1.4,0.2,2.1c0,0.5,0,1,0,1.5c-0.1,1.6-0.4,3.3-0.7,4.9
	c-0.5,3.1-0.7,6.2-0.6,9.3c0.2,1,0.8,2,1.7,2.6c0,0.4,0.1,1.6,0.1,2.3c16.3,1.5,31.5,8.8,42.8,20.7l2-1.4c1.1,0.2,2.1,0.1,3.1-0.3
	c2.5-1.9,4.8-4,6.9-6.3c1.1-1.3,2.2-2.5,3.4-3.6c0.3-0.3,0.8-0.6,1.1-0.9c0.5-0.5,1.1-0.9,1.8-1.2c0.7-0.3,1.4-0.4,2.1-0.3
	c0.7,0,1.4,0.2,2.1,0.6c0.6,0.3,1.2,0.8,1.7,1.4c0.5,0.6,0.8,1.2,1,1.9c0.2,0.7,0.2,1.4,0.1,2.2c-0.1,0.7-0.4,1.4-0.8,2
	c-0.4,0.6-0.9,1.1-1.5,1.5c-0.3,0.3-0.8,0.7-1.1,0.9c-1.4,0.9-2.8,1.7-4.3,2.5c-2.7,1.5-5.3,3.3-7.7,5.4c-0.7,0.8-1,1.9-1,2.9
	c-0.3,0.3-1.3,1.2-1.8,1.6c9.1,13.6,13,30.1,10.7,46.4l2.1,0.6c0.5,0.9,1.3,1.7,2.2,2.2c3,0.8,6.1,1.3,9.2,1.5
	c1.7,0,3.3,0.2,4.9,0.4c0.4,0.1,1.1,0.3,1.5,0.4c0.7,0.1,1.4,0.3,2,0.7c0.6,0.4,1.1,0.9,1.6,1.5s0.7,1.3,0.8,2
	c0.1,0.7,0.1,1.4,0,2.1c-0.2,0.7-0.5,1.4-0.9,1.9c-0.4,0.6-1,1.1-1.6,1.4c-0.6,0.4-1.3,0.6-2,0.6s-1.4,0-2.1-0.2l-0.1,0
	c0,0-0.1,0-0.1,0c-0.4-0.1-1-0.2-1.3-0.3c-1.6-0.5-3.1-1.1-4.6-1.8c-2.9-1.2-5.9-2.1-9-2.6c-1.1,0-2.1,0.4-2.9,1.1
	c-0.7-0.1-1.5-0.3-2.2-0.4C193.8,171.3,183.2,184.6,169.1,193L169.1,193z"/>
<path class="st1" d="M269.6,159.4L246.4,58.7c-0.6-2.6-1.8-5-3.5-7.1c-1.7-2.1-3.8-3.8-6.2-4.9L142.8,1.8C140.3,0.6,137.7,0,135,0
	c-2.7,0-5.4,0.6-7.8,1.8L33.3,46.6c-2.4,1.2-4.5,2.9-6.2,4.9c-1.7,2.1-2.9,4.5-3.5,7.1L0.4,159.5c-0.5,2.3-0.6,4.7-0.2,7.1
	c0.4,2.3,1.3,4.6,2.6,6.6c0.3,0.5,0.7,1,1,1.4l65,80.8c1.7,2.1,3.8,3.8,6.3,4.9c2.4,1.2,5.1,1.8,7.8,1.8l104.2,0
	c2.7,0,5.3-0.6,7.8-1.8c2.4-1.2,4.6-2.8,6.3-4.9l65-80.8c1.7-2.1,2.8-4.5,3.4-7.1C270.1,164.7,270.2,162,269.6,159.4L269.6,159.4z
	 M258.3,164.1c-0.2,0.7-0.4,1.4-0.6,2.1c-0.6,1.7-1.5,3.2-2.6,4.6l-57.7,71.8l-1.8,2.3c-1.1,1.4-2.5,2.6-4,3.5
	c-0.6,0.4-1.2,0.7-1.8,1c-0.4,0.2-0.8,0.4-1.3,0.5c-0.6,0.2-1.1,0.4-1.7,0.5c-0.8,0.2-1.6,0.4-2.4,0.5c-0.6,0.1-1.1,0.1-1.7,0.1
	l-94.6,0h-0.9c-1.4,0-2.8-0.2-4.2-0.6c-1.7-0.4-3.2-1.1-4.7-2c-1.2-0.7-2.2-1.6-3.1-2.6c-0.3-0.3-0.6-0.6-0.8-0.9l-59.6-74.1
	c-0.3-0.4-0.6-0.9-0.9-1.3c-0.7-1-1.2-2.2-1.6-3.3c-0.2-0.7-0.4-1.4-0.6-2.1c-0.5-2.3-0.5-4.8,0-7.1l21.2-92.4
	c0.6-2.4,1.7-4.6,3.2-6.5c1.5-1.9,3.5-3.5,5.7-4.5l86-41.1c2.2-1.1,4.7-1.6,7.1-1.6c2.5,0,4.9,0.6,7.1,1.6l86.1,41.1
	c2.2,1.1,4.2,2.6,5.7,4.5c1.5,1.9,2.6,4.1,3.2,6.5l21.3,92.4C258.9,159.4,258.9,161.8,258.3,164.1L258.3,164.1z"/>
<path class="st1" d="M221.3,149.7c-0.4-0.1-1.1-0.3-1.5-0.4c-1.6-0.2-3.3-0.4-4.9-0.4c-3.1-0.2-6.2-0.7-9.2-1.5
	c-0.9-0.5-1.7-1.3-2.2-2.2l-2.1-0.6c2.2-16.2-1.6-32.7-10.7-46.4c0.5-0.5,1.5-1.4,1.8-1.6c-0.1-1.1,0.3-2.1,1-2.9
	c2.4-2,4.9-3.8,7.7-5.4c1.5-0.7,2.9-1.6,4.3-2.5c0.3-0.2,0.8-0.6,1.1-0.9c0.6-0.4,1.1-0.9,1.5-1.5c0.4-0.6,0.7-1.3,0.8-2
	c0.1-0.7,0.1-1.4-0.1-2.2c-0.2-0.7-0.5-1.4-1-1.9c-0.5-0.6-1-1-1.7-1.4c-0.6-0.3-1.4-0.5-2.1-0.6c-0.7,0-1.5,0.1-2.1,0.3
	c-0.7,0.3-1.3,0.6-1.8,1.2c-0.4,0.3-0.8,0.6-1.1,0.9c-1.2,1.1-2.3,2.3-3.4,3.6c-2.1,2.3-4.4,4.4-6.9,6.3c-1,0.4-2.1,0.5-3.1,0.3
	l-2,1.4c-11.3-11.8-26.5-19.2-42.8-20.7c0-0.7-0.1-1.9-0.1-2.3c-0.9-0.6-1.5-1.5-1.7-2.6c-0.1-3.1,0.1-6.3,0.6-9.3
	c0.3-1.6,0.6-3.3,0.7-4.9c0-0.4,0-1,0-1.5c0.1-0.7,0-1.4-0.2-2.1c-0.2-0.7-0.6-1.3-1.1-1.9c-0.5-0.5-1.1-1-1.7-1.3
	c-0.7-0.3-1.4-0.4-2.1-0.4c-0.7,0-1.4,0.2-2.1,0.4c-0.7,0.3-1.3,0.7-1.7,1.3c-0.5,0.5-0.9,1.2-1.1,1.9c-0.2,0.7-0.3,1.4-0.2,2.1
	c0,0,0,0.1,0,0.1c0,0.4,0,0.9,0,1.3c0.1,1.6,0.4,3.3,0.7,4.9c0.5,3.1,0.7,6.2,0.6,9.3c-0.3,1-0.9,2-1.7,2.7l-0.1,2.2
	c-3.1,0.3-6.2,0.7-9.3,1.4c-12.9,2.9-24.6,9.6-33.7,19.2c-0.6-0.4-1.2-0.9-1.9-1.3c-1,0.3-2.1,0.2-3.1-0.3c-2.5-1.9-4.8-4-6.9-6.3
	c-1.1-1.3-2.2-2.5-3.4-3.6c-0.3-0.3-0.8-0.6-1.1-0.9c-1-0.8-2.3-1.3-3.6-1.4c-0.8,0-1.6,0.1-2.3,0.4c-0.7,0.3-1.3,0.8-1.8,1.4
	c-0.8,1.2-1.2,2.6-0.9,4.1c0.2,1.4,1,2.7,2.2,3.5l0.1,0.1c0.3,0.3,0.8,0.6,1.1,0.9c1.4,0.9,2.8,1.7,4.3,2.5c2.7,1.5,5.3,3.3,7.7,5.4
	c0.6,0.9,1,1.9,1,3l1.6,1.5c-9.1,13.7-12.8,30.2-10.5,46.5l-2.2,0.6c-0.6,0.9-1.3,1.7-2.2,2.2c-3,0.8-6.1,1.3-9.2,1.5
	c-1.7,0-3.3,0.2-4.9,0.4c-0.4,0.1-0.9,0.2-1.4,0.3l0,0l-0.1,0c-0.7,0.1-1.4,0.3-2,0.7c-0.6,0.4-1.1,0.9-1.6,1.5
	c-0.4,0.6-0.7,1.3-0.8,2c-0.1,0.7-0.1,1.4,0,2.1c0.2,0.7,0.5,1.4,0.9,1.9c0.4,0.6,1,1.1,1.6,1.4s1.3,0.6,2,0.6
	c0.7,0.1,1.4,0,2.1-0.2l0.1,0c0,0,0.1,0,0.1,0c0.4-0.1,1-0.2,1.3-0.3c1.6-0.5,3.1-1.1,4.6-1.8c2.9-1.2,5.9-2.1,9-2.6
	c1.1,0.1,2.1,0.4,3,1l2.2-0.4c5,15.6,15.6,28.8,29.7,37.1l-0.9,2.2c0.4,0.9,0.6,1.9,0.5,2.9c-1.3,2.9-2.8,5.7-4.7,8.4
	c-1,1.3-1.9,2.7-2.8,4.1c-0.2,0.4-0.5,1-0.7,1.4c-0.4,0.6-0.6,1.3-0.7,2c-0.1,0.7,0,1.4,0.2,2.1c0.2,0.7,0.6,1.3,1,1.9
	c0.5,0.5,1.1,1,1.7,1.3c0.7,0.3,1.4,0.5,2.1,0.5c0.7,0,1.4-0.1,2.1-0.4c0.7-0.3,1.3-0.7,1.8-1.2c0.5-0.5,0.9-1.1,1.1-1.8l0,0v0
	c0.2-0.4,0.5-0.9,0.6-1.3c0.6-1.5,1.1-3.1,1.5-4.7c0.9-3.3,2.2-6.4,4-9.3c0.6-0.6,1.4-1,2.2-1.1l1.2-2.1c15.3,5.9,32.2,5.9,47.5,0.1
	c0.3,0.6,0.9,1.7,1.1,2c1.1,0.2,2,0.7,2.6,1.6c1.5,2.8,2.6,5.7,3.5,8.7c0.4,1.6,0.9,3.2,1.5,4.7c0.2,0.4,0.4,0.9,0.6,1.3
	c0.2,0.7,0.6,1.3,1.1,1.8s1.1,0.9,1.8,1.2c0.7,0.3,1.4,0.4,2.1,0.4c0.7,0,1.4-0.2,2.1-0.5c0.7-0.3,1.2-0.8,1.7-1.3
	c0.5-0.5,0.8-1.2,1-1.9c0.2-0.7,0.3-1.4,0.2-2.1c-0.1-0.7-0.3-1.4-0.7-2c-0.2-0.4-0.5-1-0.7-1.4c-0.8-1.4-1.8-2.8-2.8-4.1
	c-1.8-2.6-3.3-5.3-4.6-8.2c-0.3-1-0.1-2.1,0.4-3c-0.3-0.7-0.6-1.4-0.9-2.1c14.1-8.4,24.7-21.7,29.7-37.3c0.7,0.1,1.8,0.3,2.2,0.4
	c0.8-0.7,1.8-1.1,2.9-1.1c3.1,0.6,6.1,1.5,9,2.6c1.5,0.7,3,1.3,4.6,1.8c0.4,0.1,0.9,0.2,1.3,0.3c0,0,0.1,0,0.1,0l0.1,0
	c0.7,0.2,1.4,0.3,2.1,0.2c0.7-0.1,1.4-0.3,2-0.6c0.6-0.4,1.2-0.8,1.6-1.4c0.4-0.6,0.7-1.2,0.9-1.9c0.2-0.7,0.2-1.4,0-2.1
	c-0.1-0.7-0.4-1.4-0.8-2c-0.4-0.6-0.9-1.1-1.6-1.5C222.7,150,222,149.8,221.3,149.7L221.3,149.7z M172.3,97.2l-22,15.6l-0.1,0
	c-0.7,0.5-1.4,0.8-2.3,0.9c-0.8,0.1-1.6-0.1-2.4-0.4c-0.7-0.4-1.4-0.9-1.8-1.6c-0.5-0.7-0.7-1.5-0.8-2.3l0,0l-1.5-27
	C153.1,83.8,163.9,89,172.3,97.2L172.3,97.2z M130.8,126.8h8.3l5.2,6.4l-1.8,8l-7.4,3.6l-7.5-3.6l-1.9-8L130.8,126.8z M123.1,83.3
	c1.8-0.4,3.6-0.7,5.5-0.9l-1.5,27l-0.1,0.1c0,0.8-0.3,1.6-0.7,2.3c-0.5,0.7-1.1,1.2-1.8,1.6c-0.7,0.4-1.6,0.5-2.4,0.4
	c-0.8-0.1-1.6-0.4-2.3-0.8l0,0L97.5,97.2C104.6,90.3,113.4,85.4,123.1,83.3L123.1,83.3z M89.5,107.3l20.2,18.1l0,0.1
	c0.6,0.5,1.1,1.2,1.3,2c0.3,0.8,0.3,1.6,0.1,2.4s-0.6,1.5-1.1,2.1s-1.3,1-2.1,1.2l0,0.1l-25.9,7.5C80.7,129.1,83.3,117.3,89.5,107.3
	L89.5,107.3z M116.6,155.3l-10.3,24.9c-9.9-6.3-17.4-15.7-21.4-26.8l26.6-4.5l0,0.1c0.3-0.1,0.6-0.1,0.9-0.1c0.7,0,1.5,0.2,2.1,0.6
	c0.7,0.4,1.2,0.9,1.6,1.5c0.4,0.6,0.7,1.3,0.7,2.1c0.1,0.7-0.1,1.5-0.3,2.2L116.6,155.3z M147,187.4c-9.6,2.2-19.7,1.7-29.1-1.5
	l13.1-23.6h0c0.4-0.7,1-1.3,1.7-1.7c0.7-0.4,1.5-0.6,2.3-0.6c0.8,0,1.6,0.2,2.3,0.6s1.3,1,1.7,1.7h0.1l13.1,23.7
	C150.5,186.5,148.8,186.9,147,187.4L147,187.4z M163.9,180.3l-10.4-25.1l0,0c-0.5-1.1-0.5-2.3-0.1-3.4c0.4-1.1,1.2-2,2.3-2.5
	c0.5-0.3,1.1-0.4,1.7-0.5c0.3,0,0.7,0,1,0.1l0-0.1l26.8,4.5C181.4,164.5,173.8,174,163.9,180.3L163.9,180.3z M188.1,140.8l-26.1-7.5
	l0-0.1c-0.8-0.2-1.5-0.6-2.1-1.2c-0.6-0.6-1-1.3-1.1-2.1c-0.2-0.8-0.1-1.6,0.1-2.4c0.3-0.8,0.7-1.5,1.3-2l0-0.1l20.1-18
	C186.5,117.3,189.3,129.1,188.1,140.8L188.1,140.8z"/>
<path class="st2" d="M91.4,202.4c2-2.2,4.7-3.6,7.6-3.9l207.5-22.1c9.6-1,16.4,9,11.9,17.5l-27.1,51.2c-2.1,3.9-6.2,6.4-10.6,6.4H74
	c-10.4,0-15.9-12.3-8.9-20.1L91.4,202.4z"/>
<path class="st1" d="M118.5,213v15.1l-9.7-15.4c-0.3-0.4-0.6-0.6-1.1-0.6h-2.3c-0.6,0-0.9,0.3-0.9,0.9v24.2c0,0.6,0.3,0.9,0.9,0.9
	h3.3c0.6,0,0.9-0.3,0.9-0.9V222l9.7,15.4c0.3,0.4,0.6,0.6,1.1,0.6h2.3c0.6,0,0.9-0.3,0.9-0.9V213c0-0.6-0.3-0.9-0.9-0.9h-3.3
	C118.8,212.1,118.5,212.4,118.5,213z M142.3,233.1h-9.4v-5.8h8.3c0.6,0,0.9-0.3,0.9-0.9v-3c0-0.6-0.3-0.9-0.9-0.9h-8.3V217h9.2
	c0.6,0,0.9-0.3,0.9-0.9V213c0-0.6-0.3-0.9-0.9-0.9h-9.2h-4.2c-0.6,0-0.9,0.3-0.9,0.9v24.2c0,0.6,0.3,0.9,0.9,0.9h0.8h12.8
	c0.6,0,0.9-0.3,0.9-0.9V234C143.2,233.4,142.9,233.1,142.3,233.1z M175.7,212.1h-3.5c-0.5,0-0.9,0.3-1,0.8l-5,18.6l-5-18.6
	c-0.1-0.5-0.4-0.8-1-0.8h-3c-0.6,0-0.9,0.4-0.7,1l1.5,5.3l-3.7,13.2l-5-18.6c-0.1-0.5-0.4-0.8-1-0.8H145c-0.6,0-0.9,0.4-0.7,1
	l6.9,24.2c0.1,0.5,0.5,0.7,1,0.7h4.1c0.5,0,0.8-0.2,1-0.7l3.2-11.1l3.1,11.1c0.1,0.5,0.5,0.7,1,0.7h4.1c0.5,0,0.9-0.2,1-0.7
	l6.8-24.2C176.6,212.5,176.3,212.1,175.7,212.1z M188.1,216.9h3c0.6,0,0.9-0.3,0.9-0.9V213c0-0.6-0.3-0.9-0.9-0.9h-3
	c-0.6,0-0.9,0.3-0.9,0.9v3.1C187.2,216.6,187.6,216.9,188.1,216.9z M188.1,238h3c0.6,0,0.9-0.3,0.9-0.9v-16.8c0-0.6-0.3-0.9-0.9-0.9
	h-3c-0.6,0-0.9,0.3-0.9,0.9v16.8C187.2,237.7,187.6,238,188.1,238z M205.7,219c-2.3,0-4,0.9-5,2.4v-1c0-0.6-0.3-0.9-0.9-0.9h-3
	c-0.6,0-0.9,0.3-0.9,0.9v16.8c0,0.6,0.3,0.9,0.9,0.9h3c0.6,0,0.9-0.3,0.9-0.9v-9.8c0-2.8,1.5-3.9,3.3-3.9c1.7,0,3,1,3,3.1v10.6
	c0,0.6,0.3,0.9,0.9,0.9h3c0.6,0,0.9-0.3,0.9-0.9v-11C211.7,221.6,209.1,219,205.7,219z M227.6,212.4l-5,2.7
	c-0.4,0.3-0.6,0.6-0.6,1.1v3.2c0,0.7,0.4,1,1,0.6l5-2.7v19.9c0,0.6,0.3,0.9,0.9,0.9h3.3c0.6,0,0.9-0.3,0.9-0.9V213
	c0-0.6-0.3-0.9-0.9-0.9h-3.6C228.3,212.1,228,212.2,227.6,212.4z M238.6,238h3.5c0.6,0,0.9-0.3,0.9-0.9v-3.5c0-0.6-0.3-0.9-0.9-0.9
	h-3.5c-0.6,0-0.9,0.3-0.9,0.9v3.5C237.7,237.7,238,238,238.6,238z M246.9,238h15.6c0.6,0,0.9-0.3,0.9-0.9V234c0-0.6-0.3-0.9-0.9-0.9
	h-8.8l5.2-5.1c2.2-2.2,4.1-5.1,4.1-8.1c0-5.7-4.2-8.3-8.4-8.3c-4.1,0-8,2.3-8.5,7.5c0,0.6,0.3,0.9,0.9,0.9h3.4
	c0.5,0,0.8-0.3,0.9-0.9c0.3-1.8,1.6-2.6,3.5-2.6s3.2,1.2,3.2,3.4c0,1.8-1.4,3.7-3,5.4l-8.4,8.4c-0.3,0.3-0.4,0.7-0.4,1.1v2.3
	C246,237.7,246.3,238,246.9,238z"/>
<text transform="matrix(1 0 0 1 264.7686 238.4434)" class="st1 st3 st4">9</text>
</svg>
