<svg width="329" height="263" viewBox="0 0 329 263" fill="none" xmlns="http://www.w3.org/2000/svg">
<path d="M158.456 148.88C158.113 148.812 157.763 148.785 157.413 148.8C156.809 148.832 156.217 148.986 155.674 149.252C154.619 149.761 153.802 150.658 153.392 151.755C152.982 152.852 153.011 154.064 153.473 155.14L153.442 155.186L163.849 180.329C173.806 173.975 181.362 164.484 185.322 153.356L158.503 148.824L158.456 148.88ZM116.726 152.443C116.501 151.452 115.949 150.565 115.16 149.925C114.37 149.285 113.389 148.928 112.372 148.912C112.072 148.908 111.772 148.934 111.478 148.991L111.432 148.936L84.8463 153.449C88.8387 164.489 96.363 173.904 106.252 180.231L116.554 155.336L116.474 155.238C116.854 154.357 116.943 153.378 116.726 152.443V152.443ZM138.992 162.206C138.604 161.483 138.026 160.878 137.321 160.456C136.616 160.035 135.81 159.813 134.988 159.814C134.167 159.815 133.361 160.039 132.657 160.462C131.953 160.885 131.377 161.491 130.99 162.216H130.968L117.894 185.857C127.255 189.045 137.319 189.562 146.958 187.352C148.745 186.946 150.491 186.457 152.196 185.888L139.091 162.205L138.992 162.206ZM180.38 107.289L160.265 125.293L160.276 125.351C159.658 125.891 159.198 126.589 158.944 127.369C158.691 128.15 158.653 128.985 158.836 129.785C159.019 130.585 159.415 131.321 159.982 131.915C160.549 132.508 161.266 132.937 162.058 133.155L162.082 133.264L188.137 140.769C189.263 129.063 186.54 117.309 180.38 107.292V107.289ZM143.009 109.306C143.046 110.126 143.306 110.921 143.759 111.605C144.212 112.29 144.842 112.839 145.582 113.195C146.322 113.55 147.144 113.698 147.961 113.624C148.779 113.55 149.561 113.255 150.225 112.772L150.304 112.805L172.315 97.199C163.936 88.9925 153.094 83.7658 141.455 82.3225L142.984 109.299L143.009 109.306ZM119.699 112.871C120.363 113.354 121.146 113.647 121.963 113.721C122.781 113.794 123.603 113.644 124.342 113.288C125.082 112.931 125.71 112.38 126.161 111.694C126.613 111.008 126.869 110.213 126.904 109.393L127.017 109.341L128.546 82.3213C126.7 82.5431 124.867 82.8592 123.053 83.2683C113.405 85.437 104.554 90.2596 97.5017 97.1917L119.657 112.897L119.699 112.871ZM107.888 133.287C108.681 133.071 109.401 132.643 109.97 132.05C110.539 131.457 110.936 130.72 111.119 129.919C111.303 129.117 111.265 128.281 111.01 127.5C110.755 126.718 110.293 126.021 109.673 125.481L109.695 125.374L89.4679 107.283C83.2973 117.326 80.6488 129.139 81.9406 140.856L107.868 133.375L107.888 133.287ZM127.534 141.234L134.996 144.822L142.435 141.241L144.283 133.21L139.134 126.771H130.847L125.684 133.2L127.534 141.234Z" fill="#326CE5"/>
<path d="M258.344 157.059L237.083 64.706C236.511 62.3168 235.416 60.0843 233.877 58.1695C232.338 56.2547 230.393 54.7055 228.183 53.6334L142.12 12.5431C139.889 11.4787 137.449 10.9263 134.978 10.9263C132.506 10.9263 130.066 11.4787 127.835 12.5431L41.7896 53.6554C39.5786 54.7267 37.6332 56.2756 36.0936 58.1902C34.554 60.1048 33.4587 62.3374 32.8869 64.7267L11.6595 157.077C11.136 159.411 11.1343 161.832 11.6546 164.167C11.8079 164.879 12.0081 165.579 12.2538 166.264C12.6693 167.433 13.2193 168.549 13.8928 169.591C14.1845 170.036 14.492 170.469 14.8264 170.889L74.386 244.94C74.646 245.262 74.9328 245.556 75.2171 245.855C76.1517 246.85 77.2069 247.725 78.3584 248.458C79.8147 249.375 81.4018 250.065 83.0654 250.505C84.4296 250.879 85.8368 251.073 87.2513 251.082H88.1776L182.762 251.06C183.337 251.057 183.912 251.023 184.483 250.959C185.303 250.866 186.114 250.712 186.91 250.497C187.481 250.347 188.044 250.167 188.596 249.958C189.026 249.793 189.456 249.628 189.871 249.429C190.492 249.132 191.095 248.797 191.676 248.426C193.175 247.484 194.509 246.303 195.626 244.93L197.442 242.672L255.165 170.865C256.272 169.477 257.141 167.917 257.738 166.246C257.987 165.558 258.191 164.856 258.348 164.142C258.87 161.807 258.868 159.385 258.343 157.051L258.344 157.059ZM169.077 192.977C169.319 193.687 169.605 194.381 169.935 195.055C169.408 195.977 169.265 197.068 169.536 198.094C170.788 200.962 172.318 203.7 174.102 206.271C175.101 207.585 176.024 208.955 176.864 210.376C177.072 210.76 177.343 211.356 177.539 211.762C177.91 212.382 178.147 213.072 178.235 213.789C178.323 214.506 178.26 215.233 178.05 215.924C177.84 216.614 177.488 217.254 177.016 217.8C176.544 218.347 175.963 218.789 175.31 219.097C174.657 219.406 173.947 219.574 173.226 219.592C172.504 219.61 171.786 219.476 171.119 219.2C170.452 218.924 169.85 218.511 169.352 217.988C168.854 217.465 168.471 216.844 168.227 216.164C168.031 215.761 167.758 215.224 167.59 214.844C167.002 213.3 166.503 211.724 166.095 210.123C165.202 207.128 164.019 204.227 162.561 201.462C161.927 200.607 160.984 200.035 159.933 199.867C159.768 199.583 159.158 198.464 158.831 197.886C143.51 203.688 126.589 203.645 111.299 197.764L110.134 199.876C109.302 200.005 108.528 200.382 107.914 200.958C106.157 203.84 104.815 206.955 103.925 210.211C103.522 211.812 103.026 213.388 102.439 214.932C102.274 215.31 101.998 215.84 101.802 216.241V216.252L101.793 216.262C101.55 216.943 101.167 217.565 100.669 218.088C100.171 218.612 99.5681 219.025 98.9002 219.301C98.2323 219.578 97.514 219.711 96.7914 219.693C96.0688 219.674 95.3581 219.505 94.7051 219.195C94.0521 218.885 93.4714 218.442 93.0002 217.893C92.5291 217.345 92.1782 216.704 91.9699 216.012C91.7617 215.32 91.7009 214.592 91.7914 213.875C91.8819 213.158 92.1217 212.468 92.4953 211.849C92.6894 211.44 92.9493 210.848 93.1543 210.464C93.9945 209.04 94.9162 207.665 95.9148 206.347C97.732 203.709 99.293 200.903 100.577 197.968C100.713 196.973 100.554 195.96 100.118 195.055L101.055 192.81C86.9585 184.49 76.3936 171.299 71.3534 155.726L69.1091 156.108C68.2384 155.49 67.2118 155.128 66.146 155.064C63.0751 155.652 60.0685 156.537 57.1689 157.707C55.6632 158.384 54.1202 158.975 52.5473 159.476C52.1751 159.579 51.6381 159.681 51.2134 159.774C51.1792 159.786 51.1499 159.801 51.1158 159.809C51.0895 159.813 51.063 159.816 51.0364 159.817C50.3528 160.041 49.6297 160.121 48.9136 160.05C48.1974 159.98 47.5038 159.76 46.8773 159.406C46.2508 159.052 45.7052 158.571 45.2753 157.994C44.8454 157.417 44.5407 156.756 44.3808 156.054C44.221 155.353 44.2093 154.625 44.3467 153.919C44.4841 153.213 44.7675 152.543 45.1787 151.952C45.5899 151.361 46.12 150.863 46.7348 150.489C47.3497 150.115 48.0359 149.874 48.7494 149.78L48.8239 149.762L48.869 149.75C49.2998 149.648 49.8514 149.506 50.2444 149.43C51.8829 149.202 53.5332 149.07 55.187 149.032C58.3059 148.828 61.3975 148.321 64.4179 147.516C65.3131 146.946 66.0694 146.183 66.6317 145.283L68.7881 144.653C66.4482 128.399 70.1912 111.854 79.2993 98.1897L77.6481 96.7179C77.5879 95.6497 77.2294 94.6197 76.6132 93.745C74.2411 91.706 71.6755 89.9034 68.9529 88.3631C67.4828 87.6134 66.0571 86.7797 64.6828 85.8662C64.3704 85.6331 63.9554 85.2829 63.6162 85.0071L63.5393 84.9534C62.3677 84.1119 61.5769 82.8409 61.3395 81.4181C61.1022 79.9953 61.4376 78.5364 62.2725 77.3601C62.7658 76.7563 63.3945 76.2772 64.1076 75.9617C64.8206 75.6462 65.598 75.5032 66.3767 75.5442C67.6875 75.6005 68.9458 76.0752 69.967 76.8988C70.3173 77.1734 70.7969 77.5408 71.1081 77.808C72.3071 78.942 73.4399 80.144 74.5008 81.4082C76.6058 83.7208 78.9314 85.8225 81.4447 87.6834C82.3865 88.1786 83.4849 88.2851 84.5043 87.9799C85.1177 88.4274 85.7368 88.8676 86.3617 89.3004C95.4124 79.6798 107.132 72.9842 120.016 70.0732C123.083 69.3788 126.194 68.9004 129.328 68.6417L129.45 66.4646C130.25 65.7536 130.83 64.8289 131.122 63.7992C131.234 60.6744 131.042 57.546 130.548 54.4584C130.221 52.8403 129.986 51.2047 129.845 49.5598C129.832 49.1851 129.853 48.6677 129.857 48.2406C129.857 48.1917 129.845 48.1429 129.845 48.0966C129.772 47.3765 129.851 46.6492 130.076 45.9614C130.302 45.2737 130.669 44.6408 131.154 44.1037C131.639 43.5666 132.231 43.1372 132.892 42.8432C133.554 42.5491 134.269 42.397 134.993 42.3967C135.717 42.3964 136.433 42.5478 137.094 42.8412C137.756 43.1346 138.349 43.5634 138.834 44.1001C139.32 44.6367 139.687 45.2692 139.913 45.9567C140.14 46.6443 140.219 47.3716 140.146 48.0917C140.146 48.5432 140.173 49.1412 140.157 49.5561C140.016 51.2009 139.781 52.836 139.451 54.4535C138.954 57.5417 138.759 60.6708 138.867 63.7968C139.071 64.8418 139.675 65.7659 140.55 66.3718C140.569 66.744 140.63 67.9864 140.675 68.671C156.957 70.1518 172.149 77.4921 183.427 89.3285L185.387 87.9287C186.44 88.1093 187.522 87.9918 188.511 87.5894C191.024 85.7253 193.35 83.6213 195.455 81.3069C196.519 80.0421 197.654 78.84 198.857 77.7067C199.173 77.4358 199.65 77.0721 199.999 76.7963C200.516 76.2867 201.134 75.8915 201.813 75.6363C202.493 75.3811 203.219 75.2717 203.943 75.315C204.668 75.3584 205.375 75.5537 206.019 75.8881C206.663 76.2225 207.23 76.6887 207.682 77.2563C208.135 77.8239 208.463 78.4804 208.645 79.1829C208.827 79.8855 208.859 80.6185 208.74 81.3345C208.621 82.0504 208.352 82.7332 207.952 83.3386C207.551 83.9439 207.028 84.4584 206.416 84.8484C206.07 85.1279 205.614 85.5172 205.282 85.7637C203.905 86.6779 202.476 87.5116 201.002 88.2606C198.28 89.8018 195.715 91.6042 193.342 93.6425C192.651 94.4513 192.304 95.4981 192.375 96.5592C192.088 96.8228 191.082 97.7149 190.548 98.1982C199.682 111.814 203.5 128.308 201.278 144.552L203.357 145.157C203.877 146.093 204.646 146.866 205.579 147.391C208.601 148.196 211.694 148.705 214.814 148.911C216.467 148.949 218.115 149.081 219.752 149.307C220.185 149.386 220.811 149.559 221.253 149.661C221.967 149.754 222.653 149.996 223.268 150.37C223.882 150.745 224.412 151.243 224.823 151.834C225.234 152.425 225.517 153.095 225.654 153.801C225.791 154.508 225.779 155.235 225.619 155.937C225.459 156.639 225.154 157.299 224.724 157.876C224.294 158.453 223.748 158.934 223.121 159.288C222.494 159.642 221.8 159.861 221.084 159.931C220.368 160.001 219.645 159.921 218.961 159.696L218.887 159.686C218.853 159.678 218.821 159.659 218.786 159.649C218.361 159.558 217.828 159.465 217.455 159.368C215.883 158.862 214.34 158.267 212.836 157.583C209.934 156.413 206.924 155.528 203.85 154.941C202.787 154.908 201.752 155.292 200.968 156.011C200.236 155.872 199.502 155.744 198.766 155.626C193.786 171.296 183.22 184.589 169.077 192.976V192.977Z" fill="#326CE5"/>
<path d="M269.572 159.426L246.376 58.6708C245.753 56.0637 244.558 53.6275 242.879 51.5382C241.199 49.4488 239.077 47.7584 236.665 46.589L142.774 1.76429C140.341 0.602795 137.678 0 134.982 0C132.285 0 129.622 0.602795 127.189 1.76429L33.3071 46.6158C30.895 47.7842 28.7722 49.4735 27.0921 51.5617C25.412 53.65 24.2164 56.0852 23.5916 58.6915L0.43608 159.453C-0.0862296 161.775 -0.13993 164.179 0.278123 166.523C0.696176 168.867 1.57758 171.104 2.87075 173.103C3.18927 173.591 3.52731 174.064 3.89343 174.521L68.874 255.316C70.5771 257.395 72.7176 259.073 75.1432 260.231C77.5688 261.388 80.2197 261.996 82.9072 262.012L187.112 261.988C189.799 261.973 192.45 261.366 194.875 260.21C197.301 259.054 199.442 257.378 201.147 255.3L266.104 174.497C267.767 172.403 268.942 169.963 269.542 167.356C270.142 164.749 270.153 162.041 269.572 159.429V159.426ZM258.348 164.144C258.192 164.857 257.989 165.56 257.741 166.246C257.143 167.918 256.273 169.479 255.166 170.867L197.443 242.672L195.629 244.932C194.511 246.305 193.175 247.486 191.675 248.428C191.096 248.799 190.496 249.134 189.876 249.431C189.459 249.624 189.034 249.799 188.601 249.956C188.048 250.167 187.485 250.348 186.913 250.499C186.117 250.714 185.305 250.869 184.486 250.962C183.915 251.026 183.34 251.06 182.765 251.062L88.1805 251.084H87.253C85.8389 251.075 84.4321 250.881 83.0683 250.508C81.4054 250.067 79.8191 249.376 78.3637 248.459C77.2115 247.726 76.1554 246.852 75.22 245.857C74.9356 245.557 74.6489 245.263 74.3901 244.942L14.8293 170.89C14.4973 170.472 14.1861 170.038 13.8957 169.589C13.2222 168.547 12.6722 167.431 12.2567 166.262C12.0109 165.577 11.8107 164.876 11.6575 164.164C11.1374 161.83 11.139 159.409 11.6624 157.075L32.8898 64.7227C33.4619 62.3338 34.5573 60.1017 36.0969 58.1875C37.6365 56.2734 39.5818 54.7249 41.7925 53.6538L127.839 12.5452C130.07 11.4807 132.51 10.9283 134.982 10.9283C137.453 10.9283 139.893 11.4807 142.124 12.5452L228.184 53.6355C230.395 54.7075 232.34 56.2568 233.879 58.1716C235.418 60.0863 236.513 62.3188 237.084 64.708L258.346 157.059C258.869 159.393 258.87 161.813 258.348 164.146V164.144Z" fill="white" fill-opacity="0.5"/>
<path d="M221.253 149.661C220.814 149.56 220.186 149.387 219.756 149.307C218.119 149.081 216.47 148.948 214.818 148.909C211.696 148.705 208.602 148.198 205.58 147.394C204.647 146.868 203.878 146.094 203.358 145.158L201.279 144.553C203.502 128.309 199.685 111.814 190.552 98.1987C191.084 97.7154 192.092 96.8234 192.376 96.561C192.305 95.4998 192.652 94.4531 193.343 93.6443C195.715 91.606 198.281 89.8035 201.003 88.2624C202.477 87.5133 203.906 86.6796 205.283 85.7655C205.615 85.5189 206.069 85.1284 206.417 84.8502C207.029 84.4602 207.552 83.9459 207.952 83.3407C208.353 82.7354 208.621 82.0528 208.741 81.3371C208.86 80.6213 208.828 79.8884 208.646 79.1859C208.464 78.4835 208.136 77.8271 207.684 77.2595C207.232 76.6918 206.666 76.2256 206.022 75.8909C205.378 75.5563 204.671 75.3607 203.947 75.317C203.222 75.2733 202.497 75.3823 201.817 75.637C201.138 75.8918 200.519 76.2865 200.002 76.7956C199.651 77.0727 199.173 77.4363 198.86 77.7073C197.657 78.8404 196.52 80.0425 195.456 81.3074C193.351 83.6218 191.025 85.7259 188.512 87.5899C187.523 87.9923 186.441 88.1098 185.388 87.9292L183.428 89.329C172.15 77.4926 156.958 70.1523 140.676 68.6715C140.628 67.9869 140.57 66.747 140.551 66.3723C139.677 65.7659 139.074 64.8419 138.871 63.7973C138.762 60.6714 138.957 57.5422 139.454 54.4541C139.782 52.8369 140.017 51.2021 140.156 49.5579C140.172 49.1429 140.147 48.5401 140.147 48.0922C140.22 47.3721 140.14 46.6448 139.914 45.9573C139.688 45.2697 139.321 44.6372 138.835 44.1006C138.35 43.5639 137.757 43.1351 137.095 42.8417C136.434 42.5483 135.718 42.3969 134.994 42.3972C134.27 42.3976 133.555 42.5497 132.893 42.8437C132.232 43.1377 131.64 43.5671 131.155 44.1042C130.67 44.6413 130.302 45.2742 130.077 45.9619C129.852 46.6497 129.773 47.377 129.846 48.0971C129.846 48.1459 129.857 48.1923 129.858 48.2411C129.853 48.6682 129.833 49.1857 129.846 49.5591C129.987 51.2044 130.222 52.8404 130.549 54.4589C131.043 57.5466 131.235 60.6749 131.123 63.7998C130.83 64.8285 130.25 65.7523 129.451 66.4626L129.329 68.6422C126.195 68.9009 123.084 69.3793 120.017 70.0738C107.135 72.985 95.4162 79.6802 86.3663 89.2997C85.7398 88.8677 85.1191 88.4275 84.504 87.9792C83.485 88.284 82.3872 88.1776 81.4457 87.6827C78.9325 85.8222 76.6068 83.7209 74.5017 81.4087C73.442 80.1447 72.3105 78.9426 71.1127 77.8085C70.7991 77.5401 70.3195 77.1739 69.968 76.8933C68.9467 76.0696 67.6884 75.5949 66.3776 75.5386C65.5988 75.4979 64.8213 75.6413 64.1082 75.9572C63.3951 76.2731 62.7665 76.7527 62.2735 77.357C61.4386 78.5333 61.1031 79.9921 61.3405 81.4149C61.5778 82.8377 62.3687 84.1087 63.5402 84.9502L63.6196 85.0064C63.9564 85.2822 64.3713 85.6349 64.6837 85.8631C66.058 86.7774 67.4837 87.6119 68.9539 88.3624C71.6761 89.9036 74.2413 91.7069 76.613 93.7468C77.229 94.6207 77.588 95.6497 77.6491 96.7172L79.2978 98.1914C70.1906 111.856 66.4484 128.401 68.7891 144.655L66.6327 145.282C66.07 146.181 65.3136 146.943 64.4189 147.512C61.3983 148.318 58.3063 148.828 55.1867 149.034C53.5333 149.071 51.8835 149.204 50.2454 149.432C49.85 149.505 49.3008 149.644 48.87 149.751L48.8248 149.761L48.7516 149.783C48.0382 149.877 47.3522 150.119 46.7376 150.493C46.123 150.867 45.5932 151.365 45.1822 151.956C44.7712 152.546 44.488 153.216 44.3508 153.923C44.2135 154.629 44.2252 155.356 44.3852 156.058C44.5451 156.759 44.8498 157.42 45.2796 157.997C45.7095 158.574 46.255 159.055 46.8814 159.409C47.5078 159.763 48.2012 159.982 48.9173 160.053C49.6333 160.124 50.3563 160.044 51.0398 159.82L51.1167 159.807C51.1509 159.8 51.1802 159.783 51.2144 159.777C51.639 159.679 52.1736 159.578 52.547 159.477C54.1195 158.975 55.6622 158.383 57.1674 157.706C60.0679 156.536 63.0752 155.651 66.147 155.064C67.2122 155.129 68.2378 155.491 69.1076 156.11L71.3531 155.725C76.394 171.299 86.9597 184.49 101.057 192.809L100.119 195.055C100.555 195.959 100.715 196.972 100.579 197.968C99.2951 200.902 97.7341 203.707 95.917 206.344C94.918 207.662 93.9959 209.036 93.1553 210.459C92.9503 210.848 92.6903 211.442 92.4938 211.848C92.1221 212.467 91.884 213.157 91.7948 213.873C91.7057 214.589 91.7675 215.316 91.9763 216.007C92.185 216.699 92.5361 217.338 93.007 217.885C93.4778 218.432 94.058 218.875 94.7102 219.184C95.3623 219.494 96.0721 219.663 96.7937 219.682C97.5153 219.701 98.2328 219.568 98.9001 219.293C99.5674 219.017 100.17 218.605 100.668 218.083C101.167 217.561 101.55 216.94 101.794 216.261L101.803 216.251V216.239C101.998 215.836 102.275 215.308 102.44 214.931C103.027 213.388 103.523 211.811 103.926 210.21C104.816 206.955 106.158 203.84 107.915 200.958C108.529 200.381 109.302 200.004 110.135 199.874L111.302 197.763C126.592 203.642 143.512 203.685 158.831 197.883C159.159 198.467 159.769 199.582 159.93 199.864C160.982 200.032 161.926 200.606 162.56 201.463C164.018 204.227 165.202 207.128 166.096 210.123C166.504 211.723 167.003 213.3 167.591 214.843C167.759 215.224 168.031 215.758 168.228 216.164C168.472 216.843 168.855 217.464 169.353 217.987C169.851 218.51 170.453 218.923 171.12 219.199C171.787 219.475 172.505 219.609 173.227 219.591C173.948 219.574 174.658 219.405 175.311 219.096C175.964 218.788 176.545 218.346 177.017 217.8C177.489 217.253 177.841 216.614 178.051 215.923C178.261 215.232 178.324 214.505 178.236 213.788C178.148 213.071 177.911 212.381 177.54 211.762C177.343 211.355 177.073 210.761 176.869 210.375C176.028 208.955 175.106 207.584 174.107 206.27C172.322 203.7 170.793 200.961 169.54 198.093C169.268 197.068 169.41 195.976 169.936 195.055C169.606 194.381 169.32 193.686 169.078 192.976C183.221 184.59 193.787 171.297 198.767 155.626C199.434 155.733 200.594 155.935 200.971 156.012C201.755 155.293 202.788 154.909 203.851 154.942C206.924 155.529 209.932 156.414 212.833 157.584C214.339 158.267 215.882 158.863 217.456 159.368C217.829 159.466 218.359 159.558 218.787 159.652C218.822 159.662 218.854 159.677 218.888 159.687L218.961 159.698C219.644 159.922 220.367 160.001 221.083 159.93C221.798 159.859 222.491 159.64 223.117 159.286C223.743 158.932 224.289 158.451 224.718 157.874C225.148 157.298 225.453 156.638 225.613 155.937C225.773 155.235 225.785 154.509 225.648 153.803C225.511 153.097 225.229 152.427 224.819 151.836C224.408 151.246 223.879 150.747 223.265 150.373C222.651 149.998 221.966 149.756 221.253 149.661V149.661ZM172.316 97.2005L150.303 112.805L150.227 112.769C149.563 113.253 148.781 113.548 147.964 113.623C147.146 113.698 146.323 113.549 145.583 113.194C144.843 112.839 144.213 112.29 143.76 111.605C143.307 110.92 143.048 110.126 143.01 109.305L142.986 109.293L141.457 82.3191C153.095 83.7642 163.937 88.9927 172.314 97.2005H172.316ZM130.849 126.768H139.133L144.283 133.207L142.437 141.237L134.997 144.817L127.536 141.229L125.686 133.196L130.849 126.768ZM123.056 83.2637C124.87 82.8553 126.705 82.54 128.551 82.3191L127.02 109.335L126.907 109.388C126.873 110.209 126.616 111.004 126.165 111.69C125.714 112.377 125.086 112.928 124.346 113.285C123.607 113.642 122.785 113.792 121.967 113.719C121.149 113.645 120.366 113.352 119.702 112.869L119.66 112.893L97.5047 97.1846C104.558 90.2534 113.408 85.4317 123.056 83.2637V83.2637ZM89.471 107.281L109.698 125.372L109.676 125.482C110.296 126.021 110.757 126.719 111.012 127.5C111.267 128.281 111.304 129.117 111.121 129.918C110.938 130.719 110.541 131.456 109.972 132.049C109.403 132.642 108.684 133.07 107.891 133.286L107.871 133.374L81.9436 140.855C80.6518 129.138 83.3004 117.325 89.471 107.282V107.281ZM116.553 155.34L106.251 180.232C96.3638 173.902 88.8413 164.487 84.8506 153.447L111.434 148.931L111.479 148.991C111.773 148.935 112.071 148.908 112.37 148.912C113.116 148.923 113.847 149.117 114.499 149.478C115.152 149.839 115.706 150.355 116.111 150.98C116.517 151.606 116.763 152.321 116.826 153.064C116.89 153.807 116.769 154.554 116.476 155.239L116.553 155.34ZM146.96 187.35C137.321 189.561 127.257 189.044 117.896 185.858L130.97 162.216H130.992C131.381 161.494 131.958 160.89 132.662 160.469C133.366 160.048 134.171 159.826 134.991 159.825C135.811 159.824 136.616 160.045 137.321 160.465C138.026 160.885 138.604 161.487 138.994 162.209H139.092L152.199 185.889C150.497 186.457 148.751 186.945 146.96 187.353V187.35ZM163.851 180.332L153.443 155.186L153.475 155.141C153.014 154.065 152.985 152.853 153.395 151.756C153.805 150.66 154.622 149.764 155.676 149.255C156.219 148.989 156.81 148.835 157.415 148.803C157.764 148.787 158.115 148.813 158.458 148.88L158.503 148.824L185.324 153.356C181.364 164.486 173.809 173.978 163.851 180.333V180.332ZM188.14 140.767L162.083 133.262L162.058 133.152C161.267 132.933 160.55 132.505 159.982 131.911C159.415 131.318 159.019 130.582 158.837 129.782C158.654 128.981 158.691 128.147 158.945 127.366C159.198 126.585 159.658 125.888 160.276 125.347L160.267 125.295L180.381 107.293C186.54 117.31 189.264 129.063 188.139 140.768L188.14 140.767Z" fill="white" fill-opacity="0.5"/>
<path d="M91.4275 202.396C93.4062 200.209 96.1211 198.827 99.0538 198.515L306.575 176.391C316.131 175.372 322.948 185.44 318.454 193.935L291.38 245.112C289.301 249.042 285.219 251.5 280.773 251.5H74.0398C63.6356 251.5 58.161 239.164 65.1413 231.449L91.4275 202.396Z" fill="#B32700"/>
<path d="M118.451 212.988V228.121L108.757 212.692C108.498 212.285 108.128 212.1 107.684 212.1H105.353C104.798 212.1 104.502 212.433 104.502 212.988V237.149C104.502 237.704 104.798 238 105.353 238H108.683C109.275 238 109.571 237.704 109.571 237.149V222.016L119.265 237.445C119.524 237.852 119.894 238 120.375 238H122.669C123.224 238 123.557 237.704 123.557 237.149V212.988C123.557 212.433 123.224 212.1 122.669 212.1H119.339C118.784 212.1 118.451 212.433 118.451 212.988ZM142.316 233.116H132.918V227.307H141.206C141.761 227.307 142.094 227.011 142.094 226.419V223.422C142.094 222.867 141.761 222.534 141.206 222.534H132.918V216.984H142.131C142.686 216.984 143.019 216.688 143.019 216.133V212.988C143.019 212.433 142.686 212.1 142.131 212.1H132.918H128.7C128.145 212.1 127.849 212.433 127.849 212.988V237.149C127.849 237.704 128.145 238 128.7 238H129.514H142.316C142.871 238 143.204 237.704 143.204 237.149V234.004C143.204 233.449 142.871 233.116 142.316 233.116ZM175.697 212.1H172.219C171.701 212.1 171.368 212.396 171.257 212.877L166.262 231.525L161.304 212.877C161.193 212.396 160.86 212.1 160.342 212.1H157.382C156.753 212.1 156.494 212.47 156.642 213.099L158.159 218.353L154.459 231.525L149.464 212.877C149.353 212.396 149.02 212.1 148.502 212.1H145.024C144.395 212.1 144.099 212.47 144.284 213.099L151.166 237.26C151.277 237.778 151.647 238 152.128 238H156.235C156.716 238 157.049 237.778 157.197 237.26L160.379 226.16L163.524 237.26C163.672 237.778 164.005 238 164.523 238H168.593C169.074 238 169.444 237.778 169.592 237.26L176.437 213.099C176.622 212.47 176.326 212.1 175.697 212.1ZM188.115 216.91H191.149C191.704 216.91 192 216.614 192 216.059V212.988C192 212.433 191.704 212.1 191.149 212.1H188.115C187.56 212.1 187.227 212.433 187.227 212.988V216.059C187.227 216.614 187.56 216.91 188.115 216.91ZM188.115 238H191.149C191.704 238 192 237.704 192 237.149V220.388C192 219.833 191.704 219.5 191.149 219.5H188.115C187.56 219.5 187.227 219.833 187.227 220.388V237.149C187.227 237.704 187.56 238 188.115 238ZM205.674 219.019C203.38 219.019 201.678 219.87 200.642 221.424V220.388C200.642 219.833 200.346 219.5 199.754 219.5H196.757C196.202 219.5 195.869 219.833 195.869 220.388V237.149C195.869 237.704 196.202 238 196.757 238H199.754C200.346 238 200.642 237.704 200.642 237.149V227.307C200.642 224.532 202.122 223.422 203.972 223.422C205.674 223.422 206.932 224.421 206.932 226.567V237.149C206.932 237.704 207.228 238 207.783 238H210.817C211.372 238 211.705 237.704 211.705 237.149V226.197C211.705 221.646 209.115 219.019 205.674 219.019ZM227.622 212.396L222.664 215.097C222.257 215.356 222.072 215.689 222.072 216.17V219.389C222.072 220.055 222.516 220.351 223.108 219.981L228.14 217.243V237.149C228.14 237.704 228.436 238 228.991 238H232.321C232.913 238 233.209 237.704 233.209 237.149V212.988C233.209 212.433 232.913 212.1 232.321 212.1H228.732C228.288 212.1 227.992 212.174 227.622 212.396ZM238.583 238H242.098C242.653 238 242.986 237.704 242.986 237.149V233.634C242.986 233.042 242.653 232.746 242.098 232.746H238.583C238.028 232.746 237.695 233.042 237.695 233.634V237.149C237.695 237.704 238.028 238 238.583 238ZM246.874 238H262.451C263.006 238 263.302 237.704 263.302 237.149V234.004C263.302 233.412 263.006 233.116 262.451 233.116H253.608L258.825 228.01C261.045 225.827 262.895 222.904 262.895 219.944C262.895 214.246 258.677 211.619 254.496 211.619C250.426 211.619 246.467 213.913 246.023 219.13C245.986 219.722 246.319 220.055 246.874 220.055H250.241C250.759 220.055 251.055 219.759 251.129 219.204C251.425 217.391 252.72 216.577 254.607 216.577C256.494 216.577 257.826 217.761 257.826 219.944C257.826 221.757 256.42 223.681 254.792 225.346L246.43 233.745C246.134 234.078 245.986 234.411 245.986 234.855V237.149C245.986 237.704 246.319 238 246.874 238ZM273.923 220.536L278.955 213.173C279.362 212.581 279.103 212.1 278.4 212.1H274.515C274.071 212.1 273.738 212.285 273.479 212.692L265.82 224.273V224.31C264.821 225.716 264.266 227.529 264.266 229.527C264.266 234.818 268.114 238.518 273.664 238.518C279.177 238.518 283.062 234.818 283.062 229.527C283.062 224.31 279.325 220.647 273.923 220.536ZM273.664 233.708C271.259 233.708 269.372 232.154 269.372 229.527C269.372 226.9 271.259 225.309 273.664 225.309C276.032 225.309 277.956 226.937 277.956 229.527C277.956 232.117 276.032 233.708 273.664 233.708Z" fill="white"/>
</svg>
