<svg xmlns="http://www.w3.org/2000/svg" viewBox="0 0 66.02 21.72"><defs><style>.cls-1{fill:#003764;}.cls-2{fill:#0096d6;}</style></defs><title>Asset 1</title><g id="Layer_2" data-name="Layer 2"><g id="svg2"><path id="path4" class="cls-1" d="M25.36.08V.47H27V4.89h.46V.47h1.67V.08Z"/><path id="path6" class="cls-1" d="M32.93.08V2.17H30.08V.08h-.46V4.89h.46V2.56h2.85V4.89h.46V.08Z"/><path id="path8" class="cls-1" d="M34.36.08V4.89h3.35V4.5H34.82V2.6H37.5V2.21H34.82V.47h2.86V.08Z"/><path id="path10" class="cls-1" d="M25.36,16.81v4.81h.46V19.33h2.3v-.39h-2.3V17.2h2.59v-.39Z"/><path id="path12" class="cls-1" d="M31,21.33a1.88,1.88,0,0,0,1.8-2.12,1.83,1.83,0,1,0-3.61,0A1.88,1.88,0,0,0,31,21.33m0-4.62a2.26,2.26,0,0,1,2.26,2.5,2.28,2.28,0,1,1-4.53,0A2.27,2.27,0,0,1,31,16.71"/><path id="path14" class="cls-1" d="M33.92,16.81h.45v3c0,1.11.52,1.54,1.41,1.54s1.41-.43,1.41-1.54v-3h.46v3.08a1.69,1.69,0,0,1-1.87,1.83,1.69,1.69,0,0,1-1.86-1.83Z"/><path id="path16" class="cls-1" d="M38.57,16.81h.51l2.8,4.07h0V16.81h.46v4.81h-.51L39,17.55h0v4.07h-.46Z"/><path id="path18" class="cls-1" d="M43.77,21.23h1c1.38,0,2-.58,2-2s-.59-2-2-2h-1Zm-.46-4.42H45c1.46,0,2.21.82,2.21,2.4s-.75,2.37-2.21,2.41H43.31Z"/><path id="path20" class="cls-1" d="M48.6,19.73h1.89l-.93-2.46Zm.73-2.92h.51l1.89,4.81h-.5l-.58-1.5H48.46l-.58,1.5h-.49Z"/><g id="use22"><path id="path4-2" data-name="path4" class="cls-1" d="M51.19,16.81v.39h1.67v4.42h.46V17.2H55v-.39Z"/></g><path id="path24" class="cls-1" d="M55.48,16.81h.46v4.81h-.46Z"/><g id="use26"><path id="path12-2" data-name="path12" class="cls-1" d="M59,21.33a1.88,1.88,0,0,0,1.81-2.12,1.83,1.83,0,1,0-3.62,0A1.88,1.88,0,0,0,59,21.33m0-4.62a2.27,2.27,0,0,1,2.27,2.5,2.28,2.28,0,1,1-4.53,0A2.26,2.26,0,0,1,59,16.71"/></g><g id="use28"><path id="path16-2" data-name="path16" class="cls-1" d="M61.92,16.81h.51l2.8,4.07h0V16.81h.45v4.81h-.51l-2.8-4.07h0v4.07h-.46Z"/></g><path id="path30" class="cls-1" d="M25.36,6.32H28v6.39h3.81v2.2H25.36Z"/><path id="path32" class="cls-1" d="M33.55,6.32H36.2v8.59H33.55Z"/><path id="path34" class="cls-1" d="M38.17,6.32h2.71l2.51,4.6h0V6.32h2.5v8.59H43.34L40.7,10.22h0v4.69H38.17Z"/><path id="path36" class="cls-1" d="M55.7,11.59c0,2.4-1.26,3.53-3.91,3.53S47.86,14,47.86,11.59V6.32h2.65V11c0,.87,0,2,1.29,2s1.25-1.11,1.25-2V6.32H55.7Z"/><path id="path38" class="cls-1" d="M59.92,10.34l-2.83-4h3.1l1.3,2.33,1.28-2.33h2.94l-2.76,4L66,14.91H62.83l-1.47-2.56-1.52,2.56h-3Z"/><path id="path40" class="cls-2" d="M4.33,17.29V8.65H0v13H13V17.29Z"/><path id="path42" class="cls-1" d="M21.61,0H0V6.48H4.32V4.34h13v13H15.13v4.33h6.48Z"/></g></g></svg>