<?xml version="1.0" encoding="UTF-8"?>
<svg id="Layer_1" xmlns="http://www.w3.org/2000/svg" viewBox="0 0 700 700">
  <defs>
    <style>
      .cls-1 {
        fill: #fff;
      }

      .cls-2 {
        opacity: .8;
      }
    </style>
  </defs>
  <g>
    <g class="cls-2">
      <path class="cls-1" d="M327.57,368.22c11.05,6.32,20.98,11.95,30.68,18.04,4.51,2.93,8.12,2.71,12.86,0,38.8-22.33,77.59-44.21,116.39-66.09,4.51-2.48,5.86-5.64,5.86-10.6-.23-54.58-.23-109.17-.9-163.98,0-3.16-2.71-7.89-5.41-9.47-41.5-24.59-83.46-48.49-125.63-72.63-2.03-1.13-5.41-1.8-6.99-.9-11.28,6.09-22.33,12.41-34.28,19.4,3.83,2.26,6.32,4.06,9.02,5.64,39.7,22.78,79.4,45.79,119.09,68.34,5.19,2.93,7.44,6.09,7.22,12.41,0,39.47.23,78.72.68,118.19,0,6.32-1.8,9.92-7.44,13.08-24.13,13.31-48.04,27.07-72.18,40.6-16.01,9.02-31.8,18.27-48.95,27.97Z"/>
    </g>
    <path class="cls-1" d="M423.88,418.75c40.15-22.56,80.07-45.56,119.99-68.57,2.71-1.58,5.19-5.64,5.19-8.57,0-55.26-.23-110.3-.45-165.56,0-2.71-1.8-6.54-3.83-7.89-10.38-6.54-20.98-12.63-33.38-19.85v9.7c.23,52.55.23,105.11.68,157.66,0,7.44-1.8,11.5-8.57,15.11-24.13,13.31-48.04,27.07-71.95,40.83-16.24,9.25-32.48,18.72-49.4,28.42l41.73,18.72Z"/>
    <g class="cls-2">
      <path class="cls-1" d="M433.8,272.81c0-12.86.45-24.59-.23-36.09-.23-3.38-2.71-7.89-5.41-9.47-39.25-23.23-78.72-46.24-117.96-68.79-2.48-1.35-6.99-1.58-9.47-.23-48.27,27.29-96.31,54.81-144.35,82.78-2.48,1.58-4.96,5.86-4.96,8.8-.23,47.82,0,95.63.45,143.68,0,2.48.45,6.09,2.03,6.99,11.05,6.99,22.56,13.31,34.96,20.53v-10.6c-.23-45.79-.23-91.57-.68-137.36,0-5.19,1.13-8.57,6.09-11.28,34.96-19.85,69.47-39.7,103.98-59.77,4.74-2.71,8.57-3.16,13.53-.23,25.26,15.11,50.52,29.55,76.01,44.43,14.89,8.8,30,17.37,46.01,26.62Z"/>
    </g>
    <g class="cls-2">
      <path class="cls-1" d="M549.96,366.19c-5.41,2.93-8.57,4.96-11.95,6.77-39.02,22.33-77.82,44.66-116.84,67.22-4.51,2.71-7.89,3.16-12.63.23-34.96-20.53-70.15-40.6-105.33-60.67-4.96-2.71-6.09-6.09-6.09-11.28.23-43.53,0-86.84,0-130.37,0-2.71-.23-5.64-.45-9.7-10.83,6.32-20.53,12.18-30.68,17.37-4.96,2.48-6.32,6.09-6.32,11.28.23,44.66,0,89.32.45,133.75,0,3.16,2.71,7.89,5.41,9.47,47.82,27.97,95.86,55.71,144.13,83.23,2.48,1.58,7.44,1.35,10.15,0,41.73-23.46,83-47.37,124.51-71.5,2.26-1.35,5.19-4.06,5.19-6.09.68-12.41.45-25.04.45-39.7Z"/>
    </g>
    <path class="cls-1" d="M434.03,209.88c0-12.86-.23-24.13,0-35.64.23-4.96-1.58-7.89-6.09-10.38-39.7-22.78-79.17-45.79-119.09-68.34-2.71-1.58-8.12-1.58-10.83,0-47.59,26.84-95.18,54.13-142.78,81.65-2.03,1.13-4.96,2.93-4.96,4.51-.45,13.08-.23,26.39-.23,40.83,3.83-2.03,5.86-2.93,7.89-4.06,46.69-26.62,93.15-53.23,139.84-80.07,4.29-2.48,7.44-2.71,11.73-.23,33.83,19.85,68.12,39.47,102.18,59.1,6.99,4.06,13.98,7.89,22.33,12.63Z"/>
    <path class="cls-1" d="M397.26,497.91c-3.38-2.26-5.41-3.61-7.44-4.74-46.46-26.84-92.93-53.68-139.62-80.3-5.19-2.93-7.44-6.09-7.22-12.18.23-43.76,0-87.52-.23-131.27,0-2.93-.23-6.09-.45-10.15-11.95,6.77-22.33,12.63-32.48,18.95-2.26,1.35-3.83,5.19-3.83,7.67,0,46.01,0,92.25.45,138.26,0,2.93,2.48,7.22,5.19,8.8,47.59,27.97,95.63,55.49,143.68,83.23,2.26,1.35,5.86,2.26,7.89,1.13,11.28-5.86,21.88-12.41,34.06-19.4Z"/>
  </g>
  <g>
    <path class="cls-1" d="M171.05,631.71c0,2.52-.48,4.89-1.45,7.09-.96,2.24-2.29,4.19-3.97,5.83-1.68,1.65-3.63,2.96-5.83,3.92-2.24.96-4.62,1.45-7.14,1.45h-65.52v-14.74h65.52c1,0,1.84-.34,2.52-1.03.68-.68,1.03-1.52,1.03-2.52v-5.69c0-1-.34-1.84-1.03-2.52s-1.52-1.03-2.52-1.03h-47.14c-2.52,0-4.88-.48-7.09-1.45-2.24-.96-4.2-2.29-5.88-3.97-1.68-1.68-3-3.64-3.97-5.88-.96-2.21-1.45-4.57-1.45-7.09v-5.69c0-2.52.48-4.9,1.45-7.14.96-2.21,2.29-4.15,3.97-5.83,1.68-1.68,3.64-3,5.88-3.97,2.21-.96,4.57-1.45,7.09-1.45h65.52v14.84h-65.52c-.99,0-1.84.34-2.52,1.03-.68.68-1.03,1.52-1.03,2.52v5.69c0,1,.34,1.84,1.03,2.52.68.68,1.52,1.03,2.52,1.03h47.14c2.52,0,4.9.48,7.14,1.45,2.21.96,4.15,2.29,5.83,3.97,1.68,1.68,3,3.63,3.97,5.83.96,2.24,1.45,4.62,1.45,7.14v5.69Z"/>
    <rect class="cls-1" x="184.44" y="580" width="15.41" height="70"/>
    <polygon class="cls-1" points="383 591.02 383 594 383 608 383 625.08 383 650 449.36 650 449.36 636 397 636 397 625.08 397 622 437.23 622 437.23 608 397 608 397 594 449.36 594 449.36 580 383 580 383 591.02"/>
    <path class="cls-1" d="M297.13,631.71c0,2.52-.48,4.89-1.45,7.09-.96,2.24-2.29,4.19-3.97,5.83-1.68,1.65-3.63,2.96-5.83,3.92-2.24.96-4.62,1.45-7.14,1.45h-65.52v-14.74h65.52c1,0,1.84-.34,2.52-1.03.68-.68,1.03-1.52,1.03-2.52v-5.69c0-1-.34-1.84-1.03-2.52s-1.52-1.03-2.52-1.03h-47.14c-2.52,0-4.88-.48-7.09-1.45-2.24-.96-4.2-2.29-5.88-3.97-1.68-1.68-3-3.64-3.97-5.88-.96-2.21-1.45-4.57-1.45-7.09v-5.69c0-2.52.48-4.9,1.45-7.14.96-2.21,2.29-4.15,3.97-5.83,1.68-1.68,3.64-3,5.88-3.97,2.21-.96,4.57-1.45,7.09-1.45h65.52v14.84h-65.52c-.99,0-1.84.34-2.52,1.03-.68.68-1.03,1.52-1.03,2.52v5.69c0,1,.34,1.84,1.03,2.52.68.68,1.52,1.03,2.52,1.03h47.14c2.52,0,4.9.48,7.14,1.45,2.21.96,4.15,2.29,5.83,3.97,1.68,1.68,3,3.63,3.97,5.83.96,2.24,1.45,4.62,1.45,7.14v5.69Z"/>
    <path class="cls-1" d="M535.51,650h-14.15v-50.45c0-.56-.09-1.09-.27-1.59-.18-.5-.43-.93-.74-1.31s-.67-.67-1.09-.89c-.41-.22-.85-.33-1.32-.33h-56.41v-15.45h58.23c2.15,0,4.18.5,6.09,1.49,1.91,1,3.59,2.35,5.04,4.06,1.42,1.74,2.55,3.76,3.37,6.07.83,2.3,1.24,4.74,1.24,7.33v51.05ZM481.02,650h-14.15v-49.81h14.15v49.81Z"/>
    <g>
      <path class="cls-1" d="M346.84,580h27.63v14.84h-70.02v-14.84h42.39"/>
      <rect class="cls-1" x="332.04" y="601.05" width="14.84" height="48.95"/>
    </g>
    <g>
      <path class="cls-1" d="M585.22,580h27.63v14.84h-70.02v-14.84h42.39"/>
      <rect class="cls-1" x="570.42" y="601.05" width="14.84" height="48.95"/>
    </g>
  </g>
</svg>