<?xml version="1.0" encoding="utf-8"?>
<!-- Generator: Adobe Illustrator 26.0.2, SVG Export Plug-In . SVG Version: 6.00 Build 0)  -->
<svg version="1.1" id="Layer_1" xmlns="http://www.w3.org/2000/svg" xmlns:xlink="http://www.w3.org/1999/xlink" x="0px" y="0px"
	 viewBox="0 0 2500 1702" style="enable-background:new 0 0 2500 1702;" xml:space="preserve">
<style type="text/css">
	.st0{fill:#FFFFFF;}
</style>
<path class="st0" d="M588.5,1553.7H494c-3.3-159.8-12.5-310.1-27.6-450.9h-0.8l-143.8,450.9h-71.9L107,1102.8h-0.8
	c-10.6,135.2-17.3,285.5-20.1,450.9H0c5.6-201.2,19.5-389.7,41.8-565.8h117l136.2,415.7h0.8L433,987.9h112
	C569.5,1194.1,584,1382.7,588.5,1553.7 M998.1,1136.3c-38.5,209.2-89.2,361.3-152.1,456.1c-49.1,73.1-102.8,109.6-161.3,109.6
	c-15.6,0-34.8-4.7-57.7-14.1v-50.4c11.2,1.6,24.2,2.5,39.3,2.5c27.3,0,49.3-7.6,66-22.7c20.1-18.4,30.1-39.1,30.1-62
	c0-15.7-7.8-47.8-23.4-96.4l-103.6-322.7h92.8l74.4,241.3c16.7,54.8,23.7,93.1,20.9,114.9c40.7-109,69.1-227.7,85.3-356.2H998.1"/>
<g>
	<path class="st0" d="M1411.8,1396.9c0,48-17.6,87.4-52.6,118.2c-35.1,30.7-82.2,46.1-141.2,46.1c-55.2,0-108.7-17.7-160.5-52.8
		l24.2-48.6c44.6,22.3,84.9,33.5,121.2,33.5c34,0,60.6-7.6,79.8-22.6c19.2-15.1,30.7-36.1,30.7-62.8c0-33.6-23.4-62.3-66.2-86.4
		c-39.6-21.8-118.7-67.2-118.7-67.2c-42.9-31.3-64.3-65-64.3-120.4c0-45.8,16-82.9,48-111.1c32.1-28.2,73.5-42.4,124.1-42.4
		c52.4,0,100,14,142.9,41.9l-21.8,48.6c-36.7-15.6-72.9-23.4-108.6-23.4c-29,0-51.3,7-66.8,21c-15.6,13.9-25.3,31.8-25.3,53.6
		c0,33.5,23.9,62.6,67.9,87.1c40.1,21.8,121.1,68.1,121.1,68.1C1389.8,1308.6,1411.8,1341.9,1411.8,1396.9"/>
	<path class="st0" d="M1580.6,1440.5c-22.9-36.9-34.3-96.1-34.3-177.7c0-142.5,43.2-213.7,129.6-213.7c45.2,0,78.3,17.1,99.5,51.1
		c22.8,36.9,34.3,95.6,34.3,176c0,143.6-43.2,215.4-129.6,215.4C1634.9,1491.7,1601.8,1474.6,1580.6,1440.5 M1916.6,1567.3
		l-103.7-51.3c9.2-7.6,18-15.8,25.9-25.3c44-51.9,66.1-128.7,66.1-230.4c0-187.2-73.3-280.8-219.8-280.8
		c-71.9,0-127.9,23.7-168,71.3c-44,52-66,128.5-66,229.6c0,99.4,19.5,172.4,58.5,218.7c35.5,41.9,89.3,62.9,161.2,62.9
		c26.9,0,51.5-3.3,73.9-9.9l135.1,78.8L1916.6,1567.3"/>
	<path class="st0" d="M2255.2,1553.7h-268.3V987.9h90.3v496.2h178V1553.7z M2319.6,1553.6h15v-57.6h19.6v-11.8h-54.9v11.8h20.3
		L2319.6,1553.6z M2433.4,1553.6h14.1v-69.3h-21.2l-17.3,47.2l-18.8-47.2h-20.4v69.3h13.3v-52.8h0.8l19.7,52.8h10.2l19.6-52.8
		L2433.4,1553.6z"/>
</g>
<g>
	<path class="st0" d="M2368.5,798.4c-54.6-1.4-96.8,4.1-132.3,19.1c-10.2,4.1-26.6,4.1-28,17.1c5.5,5.5,6.1,14.3,11,21.9
		c8.2,13.7,22.4,32.1,35.4,41.7c14.3,10.9,28.6,21.8,43.7,31.4c26.6,16.5,56.6,26,82.5,42.4c15,9.6,30,21.9,45,32.1
		c7.5,5.5,12.2,14.4,21.8,17.7v-2.1c-4.8-6.1-6.1-15-10.9-21.9c-6.8-6.8-13.6-13-20.5-19.8c-19.8-26.7-44.4-49.9-70.9-69
		c-21.8-15.1-69.6-35.6-78.4-60.8l-1.4-1.4c15-1.4,32.8-6.9,47.1-11c23.1-6.1,44.3-4.7,68.1-10.9c10.9-2.8,21.8-6.2,32.8-9.6v-6.2
		c-12.3-12.3-21.2-28.7-34.1-40.3c-34.7-30.1-73-59.4-112.5-84.1c-21.2-13.7-48.4-22.5-70.9-34.2c-8.1-4.1-21.8-6.1-26.5-13
		c-12.3-15-19.1-34.8-28-52.6c-19.8-37.6-38.9-79.2-55.9-118.9c-12.3-26.6-19.8-53.3-34.8-77.9C1980.6,272,1904.3,201.7,1787,132.6
		c-25.2-14.4-55.2-20.5-87.2-28c-17.1-0.7-34.1-2-51.1-2.7c-10.9-4.8-21.9-17.8-31.4-24c-38.9-24.6-139-77.9-167.7-7.5
		c-18.4,44.5,27.3,88.2,43,110.8c11.6,15.7,26.6,33.5,34.7,51.2c4.8,11.6,6.1,24,10.9,36.2c10.9,30.1,21.1,63.6,35.5,91.6
		c7.5,14.4,15.6,29.4,25.2,42.3c5.5,7.6,15,10.9,17.1,23.3c-9.5,13.7-10.3,34.2-15.7,51.3c-24.5,77.2-15,172.9,19.8,229.7
		c10.9,17.1,36.8,54.7,71.6,40.3c30.7-12.3,23.9-51.2,32.7-85.4c2-8.3,0.7-13.7,4.7-19.1v1.4c9.5,19.1,19.1,37.5,28,56.7
		c21.2,33.5,58,68.3,88.7,91.6c16.3,12.4,29.3,33.5,49.7,41.1v-2.1h-1.3c-4.1-6.1-10.2-8.9-15.7-13.7c-12.3-12.3-25.9-27.4-35.5-41
		c-28.6-38.3-53.9-80.7-76.3-124.4c-10.9-21.2-20.5-44.5-29.3-65.6c-4.1-8.2-4.1-20.5-10.9-24.6c-10.3,15-25.2,28-32.7,46.4
		c-13,29.4-14.3,65.6-19.1,103.3c-2.7,0.7-1.3,0-2.7,1.4c-21.8-5.5-29.3-28-37.5-47.1c-20.5-48.6-23.9-126.5-6.1-182.6
		c4.7-14.3,25.3-59.4,17-73.1c-4.1-13-17.7-20.5-25.2-30.8c-8.8-13-18.4-29.4-24.5-43.7c-16.4-38.3-24.6-80.7-42.3-118.9
		c-8.2-17.8-22.5-36.3-34.1-52.6c-13-18.5-27.3-31.4-37.5-53.3c-3.4-7.5-8.2-19.9-2.7-28c1.3-5.5,4.1-7.5,9.6-8.9
		c8.8-7.5,34.1,2,42.9,6.1c25.2,10.2,46.4,19.9,67.5,34.2c9.6,6.8,19.8,19.8,32,23.3h14.3c21.8,4.7,46.4,1.3,66.8,7.5
		c36.1,11.6,68.8,28.7,98.2,47.2c89.3,56.7,162.9,137.4,212.7,233.8c8.2,15.7,11.6,30.1,19.1,46.4c14.3,33.6,32.1,67.7,46.3,100.5
		c14.3,32.1,28,64.9,48.4,91.6c10.2,14.3,51.1,21.9,69.5,29.4c13.6,6.1,34.8,11.6,47.1,19.1c23.2,14.3,46.3,30.8,68.2,46.5
		C2332.4,767.6,2366.5,784.7,2368.5,798.4"/>
	<path class="st0" d="M1673.1,204.3c-9.4-0.1-18.8,1.1-27.9,3.4v1.4h1.3c5.5,10.9,15.1,18.5,21.8,28c5.5,10.9,10.3,21.8,15.7,32.8
		c0.7-0.7,1.3-1.4,1.3-1.4c9.6-6.8,14.4-17.7,14.4-34.2c-4.1-4.8-4.8-9.6-8.2-14.4C1687.5,213.2,1678.6,209.8,1673.1,204.3"/>
</g>
</svg>