<svg width="92" height="107" viewBox="0 0 92 107" fill="none" xmlns="http://www.w3.org/2000/svg">
<path d="M89.6333 83.3855C87.9995 87.1238 86.0656 90.5648 83.8249 93.7285C80.7707 98.0414 78.27 101.027 76.3427 102.685C73.3552 105.406 70.1543 106.799 66.7266 106.879C64.2659 106.879 61.2983 106.185 57.844 104.778C54.3783 103.378 51.1934 102.685 48.2812 102.685C45.227 102.685 41.9513 103.378 38.4476 104.778C34.9386 106.185 32.1118 106.918 29.9505 106.991C26.6635 107.13 23.3872 105.696 20.1169 102.685C18.0297 100.881 15.4189 97.7904 12.2913 93.4115C8.93566 88.7353 6.17685 83.3128 4.01555 77.1308C1.70087 70.4534 0.540527 63.9874 0.540527 57.7274C0.540527 50.5566 2.10499 44.372 5.23857 39.1892C7.70129 35.0263 10.9776 31.7424 15.0781 29.3317C19.1787 26.9209 23.6093 25.6924 28.3807 25.6138C30.9915 25.6138 34.4151 26.4137 38.6697 27.9856C42.9123 29.5628 45.6364 30.3627 46.8308 30.3627C47.7237 30.3627 50.7499 29.4274 55.8801 27.5629C60.7315 25.8338 64.826 25.1178 68.1804 25.3999C77.2697 26.1264 84.0984 29.6751 88.6397 36.0685C80.5106 40.9467 76.4895 47.7793 76.5695 56.5445C76.6428 63.3718 79.1436 69.0532 84.0583 73.5642C86.2857 75.6579 88.7731 77.2761 91.5405 78.4253C90.9404 80.1492 90.3068 81.8003 89.6333 83.3855ZM68.7872 2.14061C68.7872 7.49183 66.8133 12.4883 62.8788 17.1129C58.1307 22.6107 52.3877 25.7875 46.1599 25.2863C46.0805 24.6443 46.0345 23.9686 46.0345 23.2586C46.0345 18.1214 48.2925 12.6236 52.3024 8.12846C54.3043 5.85247 56.8504 3.96002 59.9379 2.45037C63.0188 0.963245 65.933 0.140834 68.6738 0C68.7539 0.715375 68.7872 1.43079 68.7872 2.14054V2.14061Z" fill="black"/>
</svg>
