<svg width="92" height="107" viewBox="0 0 92 107" fill="none" xmlns="http://www.w3.org/2000/svg">
<path d="M90.4343 89.2713C89.9994 88.7755 89.3838 88.29 88.591 87.8137C88.4711 87.7359 88.1444 87.5471 87.6112 87.251C87.0765 86.9531 86.6499 86.6955 86.3311 86.4767C86.0144 86.2583 85.5978 85.882 85.0816 85.3462C84.5667 84.8115 84.1604 84.2454 83.8622 83.6505C83.5649 83.0564 83.2773 82.2535 82.9993 81.2416C82.7211 80.2297 82.5642 79.1095 82.5236 77.8798C81.968 78.3541 81.6613 79.2962 81.6015 80.7052C81.5417 82.113 81.8399 83.5498 82.4944 85.0174C83.1483 86.4857 84.1302 87.4361 85.4388 87.8735C86.7074 88.3106 87.7285 88.7753 88.503 89.2711C89.2753 89.7674 89.7723 90.3315 89.9906 90.9662C90.2088 91.6024 89.8408 92.2861 88.8896 93.0192C87.9369 93.7537 86.4103 94.4768 84.3086 95.193C81.4133 96.1834 79.3604 97.0271 78.1501 97.7202C76.9407 98.4147 75.1668 99.734 72.826 101.676C71.2388 102.986 69.5537 103.69 67.7681 103.789C65.9845 103.889 64.5357 103.235 63.4261 101.827C62.315 100.419 61.957 98.427 62.3542 95.8475C63.1079 90.8902 63.0893 87.0229 62.2964 84.2468C61.6617 82.0653 61.5219 80.1414 61.8801 78.4756C62.2366 76.8115 62.7913 75.8402 63.5459 75.562C64.2973 75.2832 65.1118 75.8788 65.9845 77.3455C66.0623 77.5437 66.2419 77.9305 66.5186 78.5058C66.796 79.0805 67.0235 79.4885 67.2038 79.7252C67.3821 79.9634 67.6497 80.2708 68.0069 80.6481C68.3634 81.0259 68.812 81.2926 69.3461 81.4523C69.881 81.6106 70.5051 81.7096 71.2203 81.749C72.5687 81.7882 73.7773 81.5108 74.8492 80.9161C75.9196 80.3214 76.724 79.6569 77.2587 78.9232C77.7934 78.1886 78.3298 77.4856 78.8647 76.8108C79.3994 76.1355 79.8659 75.7589 80.2631 75.6791C80.6988 75.6014 81.096 75.1648 81.4531 74.3705C81.8099 73.5776 82.0479 72.4772 82.1671 71.0696C82.2869 69.6611 82.1871 67.9854 81.8703 66.0428C81.275 62.5908 80.0941 58.8035 78.3298 54.6789C76.5642 50.5536 74.5923 47.3212 72.4103 44.9809C68.484 40.8169 65.8476 36.4939 64.4978 32.0116C63.1108 27.2922 62.5167 23.0482 62.7142 19.2801C62.913 16.5828 62.3277 13.6576 60.9599 10.5042C59.5923 7.35121 57.7767 4.94172 55.516 3.27594C54.0884 2.20549 52.3228 1.3826 50.2219 0.807061C48.1198 0.231518 46.017 -0.0354157 43.9149 0.00375953C41.3375 0.00375953 39.2743 0.419892 37.7281 1.2532C34.5551 2.95899 32.4536 5.03111 31.4217 7.4704C30.3898 9.90927 29.9147 12.9137 29.9935 16.4834C30.1529 24.3366 30.4694 30.4842 30.9458 34.926C30.3901 36.9888 27.9316 40.8552 23.5683 46.5269C22.7746 47.3206 22.0011 48.3913 21.2474 49.7397C20.4941 51.0885 19.899 52.2986 19.4629 53.3686C19.0261 54.439 18.4414 55.9858 17.7077 58.009C16.9736 60.0313 16.4487 61.4598 16.1311 62.292C15.8535 63.0072 15.417 63.8386 14.8225 64.7922C14.2273 65.7432 13.7504 66.6761 13.3942 67.5867C13.0381 68.4988 12.8393 69.5299 12.7997 70.6803C12.7601 71.553 12.7997 72.3069 12.9189 72.9408C13.0771 73.8941 13.3753 74.1909 13.811 73.8343C15.5966 72.4857 17.8375 73.2788 20.5341 76.2147C22.4379 78.277 25.7897 83.0764 30.5886 90.6124C30.9852 91.2863 31.3815 92.01 31.7781 92.7854C32.1757 93.5576 32.5514 94.5879 32.9087 95.8773C33.2657 97.168 33.4147 98.327 33.3549 99.3587C33.2949 100.391 32.8393 101.343 31.9864 102.214C31.1336 103.086 29.8543 103.641 28.1491 103.879C27.2364 103.998 26.1368 103.92 24.8472 103.641C23.5581 103.363 21.9219 102.908 19.9392 102.273C17.9561 101.639 16.4889 101.202 15.5368 100.964C14.1494 100.646 12.1763 100.241 9.61758 99.7444C7.0591 99.248 5.3829 98.8815 4.58981 98.6433C3.24138 98.2868 2.50789 97.7719 2.38912 97.0967C2.26992 96.5412 2.54748 95.59 3.22201 94.2422C3.89695 92.8935 4.23348 91.9208 4.23348 91.3269C4.27265 90.8898 4.25307 90.4549 4.17347 90.0179C4.0947 89.5813 4.00551 89.244 3.90611 89.006C3.80693 88.7685 3.63835 88.4113 3.40017 87.9347C3.16199 87.4592 3.00362 87.1012 2.92423 86.8645C2.21074 85.1979 2.11135 84.0662 2.62688 83.4723C2.98341 82.9566 3.83631 82.7584 5.18473 82.878C7.20746 83.0764 8.85324 82.7782 10.1227 81.9847C12.2242 80.6761 12.8595 78.5739 12.0262 75.6779C12.0262 77.0263 11.7881 78.0367 11.3121 78.7121C10.8362 79.386 10.0029 80.0805 8.81344 80.795C8.13954 81.1916 6.94907 81.4291 5.24412 81.5098C3.53895 81.589 2.40808 81.8669 1.85296 82.3427C1.45662 82.6998 1.24866 83.2354 1.22865 83.9493C1.20906 84.6646 1.29888 85.3869 1.49684 86.1214C1.6948 86.8551 1.89338 87.6972 2.09134 88.6495C2.28993 89.602 2.36869 90.3959 2.32952 91.0298C2.28993 91.4655 1.93193 92.5472 1.25803 94.2709C0.584135 95.9967 0.445354 97.3158 0.8419 98.2272C1.04049 98.6644 1.37702 99.0516 1.85316 99.3881C2.32889 99.7252 2.99321 100.013 3.84589 100.252C4.69796 100.49 5.48167 100.678 6.19599 100.817C6.90948 100.954 7.90095 101.134 9.16998 101.351C10.4392 101.568 11.4505 101.758 12.2042 101.915C14.7427 102.432 17.6377 103.284 20.8903 104.474C24.1424 105.664 26.3433 106.278 27.4936 106.317C28.6042 106.356 29.6649 106.129 30.6766 105.633C31.6878 105.138 32.5503 104.572 33.2644 103.938C33.9779 103.303 35.039 102.708 36.4466 102.153C37.8552 101.597 39.4316 101.3 41.177 101.26C41.9701 101.221 43.1204 101.171 44.6273 101.112C46.1346 101.052 47.2646 101.023 48.0183 101.023C51.4291 101.023 54.0069 101.042 55.7519 101.082C56.9419 101.122 57.874 101.31 58.5485 101.647C59.2224 101.984 59.6596 102.371 59.8572 102.807C60.0553 103.244 60.3841 103.749 60.8405 104.324C61.2956 104.899 61.8803 105.365 62.5934 105.722C64.1 106.436 65.8658 106.724 67.8889 106.585C69.9112 106.446 71.2605 106.059 71.9342 105.425C73.0446 104.354 74.5414 103.084 76.4254 101.617C78.3095 100.151 80.0068 99.0395 81.5127 98.2858C81.8295 98.1259 82.365 97.8686 83.1187 97.5112C83.8716 97.154 84.5057 96.8473 85.0212 96.5885C85.537 96.3305 86.1623 96.003 86.8945 95.6066C87.6289 95.2095 88.2238 94.8429 88.6801 94.5056C89.1363 94.1682 89.6014 93.7825 90.0777 93.3453C90.5535 92.9096 90.8608 92.4732 91.0007 92.0369C91.1376 91.6005 91.1888 91.1542 91.149 90.6982C91.1084 90.2431 90.8715 89.7683 90.4343 89.2713ZM58.5471 31.7709C58.6654 31.6922 58.7454 31.6622 58.7846 31.6818C58.8246 31.7018 58.9038 31.7814 59.0222 31.9199C59.142 32.0587 59.2497 32.1881 59.3502 32.3071C59.4487 32.425 59.5871 32.5845 59.7653 32.7824C59.9434 32.981 60.1318 33.1394 60.3293 33.2584C60.5688 33.4167 60.8555 33.5265 61.1929 33.5857C61.5302 33.6449 61.7882 33.7441 61.9674 33.8827C62.1466 34.0212 62.2756 34.2492 62.3533 34.567C62.4317 35.0037 62.3654 35.3994 62.1472 35.7564C61.9276 36.1138 61.6409 36.2728 61.2831 36.2328C60.5692 36.074 59.7955 35.4497 58.9632 34.3588C58.1314 33.2681 57.9917 32.4057 58.5471 31.7709ZM51.1694 8.65899C51.367 8.40123 51.4861 8.19306 51.5253 8.03469C51.6045 7.79589 51.6145 7.54833 51.5553 7.29057C51.4962 7.0328 51.5155 6.77504 51.6145 6.51727C51.7143 6.25951 51.9425 6.11072 52.2997 6.07113C52.6564 6.07113 53.1325 6.36891 53.7275 6.96362C53.8458 7.04322 54.0342 7.16221 54.2907 7.32057C54.5489 7.47936 54.7273 7.61793 54.8263 7.73671C54.9254 7.85507 54.9746 7.9553 54.9746 8.03406C54.8954 8.23202 54.7173 8.37206 54.4405 8.45082C54.164 8.52959 53.865 8.57001 53.5485 8.57001C53.2319 8.57001 53.0521 8.5896 53.0132 8.62919C52.6958 8.74839 52.3984 8.92655 52.1202 9.16431C51.8429 9.40249 51.6247 9.58086 51.4664 9.69985C51.3065 9.81862 51.1484 9.81862 50.99 9.69985C50.8316 9.46167 50.7718 9.29309 50.8118 9.19432C50.852 9.09555 50.9712 8.91676 51.1694 8.65899ZM22.3752 53.1898C22.6519 52.8729 22.8509 52.6151 22.9697 52.4165C23.0887 52.2179 23.1974 51.9502 23.2968 51.6134C23.396 51.2758 23.4852 51.0277 23.5646 50.8693C23.6444 50.7099 23.7636 50.6507 23.922 50.6903C24.0007 50.6707 24.0599 50.7099 24.101 50.8093C24.1401 50.9085 24.1601 50.9583 24.1601 50.9583V51.1369C24.1601 51.1969 24.1499 51.2756 24.1301 51.375C24.1101 51.4751 24.0801 51.564 24.041 51.6428C24.0007 51.7226 23.9614 51.8418 23.922 52C23.8824 52.1583 23.8432 52.2973 23.8028 52.4161C23.6444 52.8137 23.396 53.1698 23.0595 53.4874C22.7221 53.8045 22.4739 53.9435 22.3154 53.9037C22.0774 53.825 22.0978 53.5859 22.3752 53.1898ZM61.2818 89.8966C61.2027 91.1652 60.9347 92.9508 60.4783 95.2513C60.022 97.551 59.734 99.0784 59.6146 99.8315C58.7817 99.7909 58.3062 99.4835 58.187 98.9086C58.0686 98.3331 58.187 97.5902 58.5442 96.6775C59.4164 94.019 59.8713 92.1948 59.912 91.2042C59.9926 89.3794 59.7936 88.3482 59.3185 88.1106C58.8805 87.7934 58.2068 88.3888 57.2947 89.8947C55.5483 92.7508 52.039 94.4749 46.7643 95.0713C42.0057 95.706 38.7138 94.9921 36.8888 92.9285C36.4922 92.651 36.0957 92.6018 35.6993 92.7808C35.3028 92.9577 35.045 93.1473 34.9261 93.344C34.8869 93.4241 34.9261 93.5424 35.0452 93.7014C35.1642 93.8606 35.3526 94.0977 35.6104 94.4153C35.8681 94.7339 36.0763 95.05 36.2347 95.3687C37.7821 98.0649 37.6435 99.889 35.8185 100.841C35.8185 99.0178 35.6798 97.6194 35.4024 96.6481C35.1246 95.6762 34.5699 94.6058 33.7366 93.4349C32.9041 92.2653 32.329 91.3824 32.0121 90.7879C33.2015 90.6695 34.104 90.2129 34.7189 89.4194C35.3336 88.6263 35.611 87.7737 35.5518 86.8616C35.4922 85.9489 35.1455 85.195 34.5108 84.6003C34.1538 84.2437 32.309 82.7263 28.9777 80.049C25.6465 77.372 23.5838 75.5772 22.7909 74.6652C22.6315 74.5062 22.1562 74.1096 21.3627 73.4749C20.5689 72.8404 20.073 72.2855 19.875 71.8091C18.0503 67.8051 17.8523 64.5115 19.2799 61.9346L19.5177 61.6373C19.7156 61.5981 19.7356 61.9544 19.5768 62.7086C19.3391 63.8194 19.2601 64.9291 19.3391 66.0401C19.4975 68.5394 20.2116 70.403 21.4806 71.6316C22.3139 72.4659 22.8886 72.4061 23.2062 71.4538C23.4444 71.1358 23.5531 69.9662 23.5331 67.9424C23.5142 65.9207 23.5436 64.5523 23.6229 63.8378C23.9405 61.5773 24.8826 58.7804 26.449 55.4503C28.0154 52.1183 29.2554 50.3333 30.1675 50.0956C29.4534 48.9453 29.2254 47.6959 29.4834 46.3473C29.7407 44.9986 30.1579 43.8478 30.7326 42.8965C31.3071 41.9448 31.8929 40.8446 32.4872 39.5949C33.0823 38.3455 33.3797 37.2248 33.3797 36.2334C33.3797 35.9562 33.4001 35.7577 33.4397 35.6387C33.5585 35.2817 34.0544 35.7178 34.9269 36.9471C36.5927 39.4066 37.8421 40.8546 38.6752 41.2907C39.5477 41.7661 40.5189 41.7465 41.59 41.2307C42.6607 40.7152 43.9793 39.8623 45.5463 38.6729C47.1123 37.4834 48.4509 36.6105 49.5618 36.0558C49.6816 36.0156 49.8693 35.9264 50.1281 35.7877C50.3847 35.6497 50.583 35.5499 50.7214 35.4899C50.8591 35.4307 51.0381 35.3417 51.2569 35.2225C51.4736 35.1035 51.642 35.0044 51.7612 34.9248C51.8802 34.8449 51.9994 34.7558 52.1177 34.6566C52.2359 34.557 52.3151 34.4586 52.3559 34.3592C52.3957 34.26 52.4157 34.1711 52.4157 34.0914C52.3359 33.7343 52.1678 33.5159 51.9094 33.4371C51.6514 33.358 51.3049 33.4071 50.8683 33.5861C50.432 33.7647 49.9456 34.0029 49.4107 34.3C48.876 34.5974 48.2813 34.9346 47.6266 35.3115C46.9725 35.6885 46.3079 36.035 45.634 36.3528C44.9601 36.6703 44.2458 36.9479 43.4921 37.1861C42.7386 37.4236 42.0247 37.563 41.3506 37.6026C39.6848 37.6424 38.3566 37.2069 37.3651 36.294C36.7306 35.6985 36.3939 35.3219 36.3537 35.1634C36.3136 35.0052 36.4924 34.9656 36.8888 35.0444C39.0313 35.3221 40.5975 35.3613 41.5892 35.1634C42.6202 35.0052 44.0083 34.5486 45.7536 33.7949C46.111 33.6366 47.0122 33.2494 48.4613 32.6347C49.9081 32.0208 51.0292 31.5942 51.8223 31.3561C52.2992 31.2369 52.6266 31.0487 52.805 30.7909C52.9825 30.5332 53.0425 30.295 52.9825 30.0766C52.9235 29.8589 52.7943 29.6905 52.5968 29.5715C52.1594 29.3333 51.7631 29.4923 51.4074 30.0474C51.2084 30.4044 50.7912 30.752 50.1571 31.0887C49.5232 31.4263 48.9373 31.6836 48.4021 31.862C47.8668 32.0402 47.1827 32.2485 46.3494 32.4863C45.5161 32.7245 45.0608 32.8633 44.981 32.9029C42.7999 33.5768 40.7771 33.8745 38.9128 33.7949C38.0401 33.7558 37.3364 33.6263 36.8013 33.4082C36.2657 33.1906 35.8983 32.9329 35.7006 32.6349C35.502 32.3379 35.1851 31.961 34.7487 31.5046C34.312 31.0483 33.816 30.6617 33.2611 30.344C32.8646 30.146 32.7156 29.789 32.815 29.2735C32.9142 28.758 33.2215 28.222 33.737 27.6669C33.7766 27.6269 34.1834 27.3796 34.9565 26.9232C35.7298 26.4669 36.2753 26.0007 36.5931 25.5248C36.9492 24.9697 37.5643 24.3941 38.4368 23.799C38.4764 23.6406 38.5064 23.2045 38.526 22.4906C38.5456 21.7771 38.3574 21.0036 37.9609 20.1707C37.5643 19.3374 37.0284 18.9215 36.3543 18.9215C35.4022 18.8819 34.7281 19.1592 34.3315 19.7543C33.935 20.3486 33.757 21.0828 33.7964 21.9552C33.8366 22.7085 34.025 23.3724 34.3616 23.948C34.6989 24.5235 35.0065 24.8113 35.284 24.8113C35.72 24.7711 35.8588 24.9292 35.7002 25.2866C35.4624 25.7234 35.1446 26.0015 34.7483 26.1199C34.4699 26.1987 34.1623 25.9313 33.8258 25.3166C33.4884 24.7019 33.2309 23.9586 33.0525 23.0857C32.8744 22.2132 32.8043 21.4795 32.8446 20.884C32.9233 19.6545 33.2503 18.4745 33.8258 17.344C34.4014 16.2138 35.2242 15.6682 36.2947 15.7074C37.4053 15.7476 38.2985 16.4224 38.9724 17.7308C39.6473 19.0394 39.9642 20.825 39.9246 23.0855C40.0438 23.3633 40.351 23.4625 40.8471 23.3828C41.342 23.3032 41.997 23.293 42.8099 23.3528C43.6223 23.412 44.2073 23.62 44.5644 23.9771C44.6046 23.9771 44.6244 23.6792 44.6244 23.0847C43.9103 18.0879 45.6751 15.4305 49.9193 15.1129C50.5526 15.2321 51.0881 15.3811 51.5239 15.559C51.9617 15.7372 52.4259 16.0354 52.9223 16.4515C53.4193 16.8677 53.8342 17.4724 54.1715 18.2661C54.5089 19.0602 54.7769 20.0517 54.975 21.2411V23.442C54.975 24.7111 54.7162 25.4252 54.2007 25.584C53.3684 25.8613 52.7743 25.8517 52.4178 25.554C52.0604 25.256 52.0992 24.7311 52.5362 23.9774C52.9325 22.9859 52.8533 21.8348 52.2978 20.5262C51.7431 19.2178 50.731 18.6226 49.2642 18.7418C48.2723 18.7816 47.5584 19.3172 47.1221 20.348C46.6857 21.3793 46.5276 22.3908 46.6465 23.3824C46.7655 24.3739 46.9831 24.8894 47.3013 24.9288C47.5388 24.969 48.2438 25.286 49.4136 25.8811C50.5851 26.476 51.4672 26.8328 52.0613 26.9518C53.6081 27.2685 54.4893 27.7644 54.7083 28.439C54.9265 29.1139 54.8373 30.0952 54.441 31.384C54.0438 32.6736 53.9252 33.7337 54.085 34.567C54.2434 35.4405 54.5414 36.2328 54.978 36.9467C55.4143 37.6612 55.8792 38.3151 56.3756 38.9104C56.8711 39.5041 57.4552 40.6156 58.1311 42.2414C58.8044 43.868 59.4191 45.9103 59.9738 48.3694C60.013 48.409 60.1614 48.5477 60.4198 48.7859C60.6777 49.0237 60.9347 49.321 61.1935 49.678C61.4523 50.0352 61.759 50.5209 62.1162 51.1356C62.4729 51.7507 62.8607 52.653 63.2771 53.8433C63.6922 55.0327 64.0802 56.402 64.4365 57.9479C64.873 59.7735 65.101 61.8936 65.121 64.3145C65.1412 66.7334 65.2994 68.3894 65.5974 69.2821C65.8956 70.1756 66.6586 70.5422 67.8879 70.3832C69.4347 70.304 70.4274 69.4711 70.8617 67.8845C72.1709 63.2835 71.1013 57.7698 67.6499 51.3454C66.3407 48.8466 65.211 47.2004 64.2583 46.4075C65.6461 47.2006 67.0746 48.6874 68.5428 50.8695C70.0104 53.0512 70.9417 55.0944 71.3382 56.9969C71.3768 57.1959 71.4866 57.7216 71.6647 58.5735C71.8429 59.4264 71.9427 59.9227 71.9615 60.0611C71.9806 60.2001 72.0613 60.6067 72.199 61.2808C72.3386 61.9551 72.4072 62.3916 72.4072 62.5898C72.4072 62.7888 72.4264 63.1753 72.467 63.75C72.5076 64.3248 72.497 64.7711 72.437 65.0885C72.3772 65.4064 72.3186 65.833 72.2588 66.3673C72.199 66.9026 72.1005 67.4184 71.9615 67.9147C71.8246 68.4102 71.6754 68.9566 71.5164 69.5507C73.6971 70.5026 74.7881 71.3348 74.7881 72.0494C73.9559 71.3748 72.765 70.9291 71.2176 70.713C69.6699 70.494 68.234 70.7022 66.9047 71.3369C65.5755 71.9716 64.891 73.0221 64.851 74.4889C63.4234 74.4889 62.4115 74.8454 61.8174 75.5608C60.9451 76.5912 60.4896 77.9888 60.4498 79.7546C60.41 81.5187 60.5575 83.4433 60.8947 85.5242C61.2335 87.6063 61.3619 89.0631 61.2818 89.8966ZM36.3553 20.9431C36.2361 20.904 36.1371 20.7842 36.0584 20.5862C36.0584 20.2301 36.2363 20.0903 36.5935 20.1701C36.8317 20.2488 37.0603 20.5466 37.2778 21.0621C37.496 21.5777 37.5456 22.1728 37.4268 22.8471C37.4268 22.9661 37.3676 23.0261 37.2478 23.0251C36.8111 23.0251 36.6527 22.6287 36.7719 21.8356C36.8904 21.2407 36.7517 20.9431 36.3553 20.9431ZM51.7641 21.8956L51.6458 22.0738C51.329 22.2718 51.1717 22.3116 51.1717 22.193C51.0119 21.1215 50.6551 20.5068 50.1004 20.348L49.8623 20.2292C49.5841 19.9911 49.7224 19.8523 50.2771 19.8127C50.3961 19.7729 50.5745 19.8321 50.8127 19.9909C51.0508 20.1498 51.269 20.3978 51.4674 20.735C51.6649 21.0726 51.7641 21.4587 51.7641 21.8956Z" fill="black"/>
<path d="M37.9019 25.3452C37.9019 25.5833 38.0017 25.6825 38.2 25.6431C38.3584 25.6431 38.5262 25.4546 38.7052 25.0778C38.8837 24.7019 39.1915 24.4937 39.6272 24.4535V24.4529H39.0321C38.2788 24.5719 37.9019 24.8692 37.9019 25.3452Z" fill="black"/>
<path d="M43.0784 24.6319C43.4749 24.5127 43.8225 24.6027 44.1198 24.9001C44.4168 25.197 44.6454 25.3264 44.8042 25.2862C45.0413 25.1678 45.1011 24.9888 44.9821 24.7511C44.665 24.2353 44.0307 24.1957 43.0784 24.6319Z" fill="black"/>
</svg>
