<svg xmlns="http://www.w3.org/2000/svg" width="111" height="92" viewBox="0 0 111 92"><defs><style>.cls-1{opacity:.12}.cls-2{fill:#fff;fill-rule:evenodd}</style></defs><g id="flaticon1544191279-svg" class="cls-1"><path id="Path" d="M647.631,2955.8a25.029,25.029,0,0,1,2.392,19.47A26.123,26.123,0,0,1,624.889,2994h-0.116c-9.446-.36-16.787-3.98-21.819-10.76-8.992-12.12-7.921-31.37-4.271-44.17,6.219-21.83,20.956-37.07,35.837-37.07a21.4,21.4,0,0,1,2.772.18,2.969,2.969,0,0,1,2.06,1.28,2.839,2.839,0,0,1,.375,2.36l-2.71,9.51a2.913,2.913,0,0,1-2.4,2.08c-12.4,1.81-18.621,17.87-21.211,27.18a26.262,26.262,0,0,1,10.306-2.07,30.3,30.3,0,0,1,8.219,1.17A26.142,26.142,0,0,1,647.631,2955.8Z" class="cls-2" transform="translate(-596 -2902)"/><path id="Path-2" d="M706.025,2975.27A26.124,26.124,0,0,1,680.89,2994h-0.116c-9.446-.36-16.788-3.98-21.818-10.76-8.993-12.12-7.923-31.37-4.274-44.17,6.22-21.83,20.957-37.07,35.838-37.07a21.364,21.364,0,0,1,2.772.18,2.964,2.964,0,0,1,2.061,1.28,2.839,2.839,0,0,1,.375,2.36l-2.71,9.51a2.914,2.914,0,0,1-2.4,2.08c-12.4,1.81-18.622,17.87-21.213,27.18a26.267,26.267,0,0,1,10.307-2.07,30.291,30.291,0,0,1,8.218,1.17,26.137,26.137,0,0,1,15.7,12.11A25.047,25.047,0,0,1,706.025,2975.27Z" class="cls-2" data-name="Path" transform="translate(-596 -2902)"/></g></svg>