<svg xmlns="http://www.w3.org/2000/svg" xmlns:xlink="http://www.w3.org/1999/xlink" id="aee07f99-5223-45c5-8204-b56b0229636c" x="0" y="0" version="1.1" viewBox="0 0 372.5 632.3" xml:space="preserve" style="enable-background:new 0 0 372.5 632.3"><style type="text/css">.st0{fill:#e6e6e6}.st1{fill-opacity:0}.st2{fill:none;stroke:#8e8e8e;stroke-width:2;stroke-linejoin:round;stroke-miterlimit:10}.st3{fill:#7b7b7b}.st4{fill:none;stroke-width:2;stroke-linejoin:round;stroke-miterlimit:10}.st4,.st5{stroke:gray}.st5,.st6{fill:none;stroke-linejoin:round;stroke-miterlimit:10}.st5{stroke-width:4}.st6{stroke:#727272;stroke-width:2}.st7{fill:#00b39f}.st8{opacity:.2;enable-background:new}.st9{fill:#fff}.st10{fill:none;stroke:#bf9000;stroke-linejoin:round;stroke-miterlimit:10}.st10,.st11{stroke-width:2}.st11,.st12,.st13{fill:none;stroke-linejoin:round;stroke-miterlimit:10}.st11,.st12{stroke:#359ac0}.st12{stroke-width:4}.st13{stroke:#cd502f;stroke-width:2}</style><polygon points="372.5 632.3 .9 554.9 .9 193.9 372.5 0" class="st0"/><g><path d="M165.5,368.2c-5.1-2.2-6.7-25.3-8.4-48c-1.6-22.4-3.2-44.3-7.8-44.9" class="st1"/><path d="M165.5,368.2c-5.1-2.2-6.7-25.3-8.4-48c-1.6-22.4-3.2-44.3-7.8-44.9" class="st2"/><path d="M119.2,232.2L119.2,232.2c0.3-7.8,3.2-14.4,6.6-14.8l0,0c1.7-0.2,3.2,1.2,4.3,3.9c1.1,2.7,1.7,6.4,1.5,10.4 l0,0c-0.3,8.2-3.5,14.8-6.9,14.8l0,0C121.3,246.5,118.9,240.1,119.2,232.2z" class="st3"/><path d="M100.8,269.5L100.8,269.5c0.3-7.3,2.8-13.1,5.8-12.9l0,0c1.4,0.1,2.8,1.6,3.7,4.3c1,2.7,1.4,6.2,1.3,9.9l0,0 c-0.3,7.6-3,13.4-6,12.8l0,0C102.6,283.1,100.5,276.8,100.8,269.5z" class="st3"/><path d="M119.2,232.2c-6,0.2-12.2,12.4-12.6,24.4" class="st1"/><path d="M119.2,232.2c-6,0.2-12.2,12.4-12.6,24.4" class="st4"/><path d="M242,234.2L242,234.2c-6.3-4.8-8.5-17-5.1-27.6l0,0c1.7-5.1,4.5-9.3,7.9-11.6c3.5-2.3,7.2-2.5,10.5-0.4l0,0 c7,4.4,9.6,17.4,5.7,28.8l0,0C257.1,234.5,248.5,239.2,242,234.2z" class="st3"/><path d="M134.9,273.6L134.9,273.6c0.3-8.4,3.6-15,7.5-14.7l0,0c1.9,0.1,3.7,1.9,5,5c1.3,3.1,1.9,7.2,1.8,11.5l0,0 c-0.3,8.8-3.9,15.4-7.9,14.7l0,0C137.5,289.3,134.6,281.9,134.9,273.6z" class="st3"/><path d="M115.5,328.9L115.5,328.9c0.3-7.8,3.2-13.4,6.5-12.4l0,0c1.6,0.5,3.2,2.5,4.3,5.6c1.1,3.2,1.6,7.2,1.5,11.1 l0,0c-0.3,8.2-3.4,13.7-6.9,12.3l0,0C117.7,344.2,115.2,336.7,115.5,328.9z" class="st3"/><path d="M141.3,289.9c-0.3,8-5.2,10.9-9.9,13.7c-4.6,2.7-9,5.4-9.3,12.8" class="st1"/><path d="M141.3,289.9c-0.3,8-5.2,10.9-9.9,13.7c-4.6,2.7-9,5.4-9.3,12.8" class="st5"/><path d="M235.8,222.5c-4.6,0.2-7,3-9.2,5.7c-2.2,2.7-4.2,5.3-8.1,5.4" class="st1"/><path d="M235.8,222.5c-4.6,0.2-7,3-9.2,5.7c-2.2,2.7-4.2,5.3-8.1,5.4" class="st4"/><path d="M122.1,316.5c0.3-7.4-4.2-12.3-8.6-17c-4.2-4.5-8.2-8.9-8-15.8" class="st1"/><path d="M122.1,316.5c0.3-7.4-4.2-12.3-8.6-17c-4.2-4.5-8.2-8.9-8-15.8" class="st4"/><path d="M142.5,258.8c0.5-13.8-5-27.3-10.8-27.1" class="st1"/><path d="M142.5,258.8c0.5-13.8-5-27.3-10.8-27.1" class="st4"/><path d="M204.7,301.1L204.7,301.1c-5.9-1-10.2-10.2-9.8-20.4l0,0c0.2-4.9,1.4-9.6,3.5-12.9c2.1-3.4,4.9-5.2,7.7-5l0,0 c6.1,0.4,10.9,9.6,10.5,20.5l0,0C216.2,294.2,210.8,302.2,204.7,301.1z" class="st3"/><path d="M179.2,252.2L179.2,252.2c-5-0.2-8.6-8-8.3-17.4l0,0c0.2-4.5,1.2-8.9,3-12.3c1.8-3.4,4.2-5.4,6.6-5.6l0,0 c5.2-0.4,9.2,7.4,8.8,17.4l0,0C188.9,244.4,184.3,252.3,179.2,252.2z" class="st3"/><path d="M206.5,253.1L206.5,253.1c-5.9-0.2-10.2-8.7-9.9-18.9l0,0c0.2-4.9,1.4-9.7,3.5-13.3c2.1-3.7,4.9-5.9,7.8-6.1 l0,0c6.1-0.5,11,8,10.6,18.9l0,0C218.1,244.6,212.6,253.3,206.5,253.1z" class="st3"/><path d="M194.9,280.7c-1.8-0.2-2.3-11.9-2.8-23.4c-0.5-11.5-1-23-2.8-22.9" class="st1"/><path d="M194.9,280.7c-1.8-0.2-2.3-11.9-2.8-23.4c-0.5-11.5-1-23-2.8-22.9" class="st4"/><path d="M189.3,234.3c1.8,0,2.7,0,3.6,0c0.9,0,1.8,0.1,3.7,0" class="st1"/><path d="M189.3,234.3c1.8,0,2.7,0,3.6,0c0.9,0,1.8,0.1,3.7,0" class="st4"/><path d="M206.1,262.8c0.1-2.4,0.2-3.6,0.2-4.8c0.1-1.2,0.2-2.4,0.2-4.8" class="st1"/><path d="M206.1,262.8c0.1-2.4,0.2-3.6,0.2-4.8c0.1-1.2,0.2-2.4,0.2-4.8" class="st4"/><path d="M170.9,234.8c-5.3,0.1-8.3,10.6-11.2,20.9c-2.9,10.1-5.7,20.1-10.4,19.5" class="st1"/><path d="M170.9,234.8c-5.3,0.1-8.3,10.6-11.2,20.9c-2.9,10.1-5.7,20.1-10.4,19.5" class="st5"/><path d="M208.3,205L208.3,205c-5.9,0.6-10.3-7.2-9.9-17.4l0,0c0.2-4.9,1.4-9.9,3.5-13.8c2.1-3.9,4.9-6.5,7.8-7.2l0,0 c6.2-1.4,11,6.4,10.6,17.3l0,0C219.9,194.9,214.4,204.4,208.3,205z" class="st3"/><path d="M207.9,214.7c0.1-2.4,0.2-3.6,0.2-4.8c0.1-1.2,0.2-2.4,0.2-4.9" class="st1"/><path d="M207.9,214.7c0.1-2.4,0.2-3.6,0.2-4.8c0.1-1.2,0.2-2.4,0.2-4.9" class="st4"/><path d="M189.3,234.3c1.8,0,3.1-11.5,4.5-23.1c1.3-11.6,2.7-23.3,4.6-23.6" class="st1"/><path d="M189.3,234.3c1.8,0,3.1-11.5,4.5-23.1c1.3-11.6,2.7-23.3,4.6-23.6" class="st5"/><path d="M198.6,450.5L198.6,450.5c-5.8-3.7-10-14.8-9.6-25.1l0,0c0.2-4.9,1.4-9.1,3.4-11.5c2.1-2.5,4.8-3.1,7.6-1.7 l0,0c6,3.1,10.7,14.5,10.3,25.5l0,0C209.9,448.6,204.6,454.3,198.6,450.5z" class="st3"/><path d="M173.6,389.6L173.6,389.6c-4.9-2.4-8.5-11.9-8.1-21.3l0,0c0.2-4.5,1.2-8.5,3-11.1c1.8-2.6,4.1-3.6,6.5-2.7l0,0 c5.1,1.9,9,11.6,8.7,21.6l0,0C183.2,386,178.6,392,173.6,389.6z" class="st3"/><path d="M200.4,402.6L200.4,402.6c-5.8-2.8-10-13.3-9.7-23.6l0,0c0.2-4.9,1.4-9.2,3.5-12c2.1-2.8,4.8-3.8,7.6-2.8l0,0 c6,2.2,10.7,12.9,10.3,23.9l0,0C211.7,399.1,206.4,405.5,200.4,402.6z" class="st3"/><path d="M189,425.5c-1.8-1-2.3-13.1-2.7-25c-0.5-11.9-0.9-23.7-2.7-24.5" class="st1"/><path d="M189,425.5c-1.8-1-2.3-13.1-2.7-25c-0.5-11.9-0.9-23.7-2.7-24.5" class="st6"/><path d="M183.5,376c1.8,0.7,2.6,1.2,3.5,1.6c0.9,0.4,1.8,0.9,3.6,1.7" class="st1"/><path d="M183.5,376c1.8,0.7,2.6,1.2,3.5,1.6c0.9,0.4,1.8,0.9,3.6,1.7" class="st6"/><path d="M200,412.3c0.1-2.4,0.2-3.6,0.2-4.8c0.1-1.2,0.2-2.4,0.2-4.8" class="st1"/><path d="M200,412.3c0.1-2.4,0.2-3.6,0.2-4.8c0.1-1.2,0.2-2.4,0.2-4.8" class="st6"/><path d="M202.1,354.6L202.1,354.6c-5.8-2-10.1-11.8-9.7-22.1l0,0c0.2-4.9,1.4-9.4,3.5-12.4c2.1-3.1,4.8-4.5,7.6-3.8 l0,0c6.1,1.4,10.8,11.3,10.4,22.3l0,0C213.6,349.5,208.2,356.7,202.1,354.6z" class="st3"/><path d="M201.8,364.3c0.1-2.4,0.2-3.6,0.2-4.8c0.1-1.2,0.2-2.4,0.2-4.8" class="st1"/><path d="M201.8,364.3c0.1-2.4,0.2-3.6,0.2-4.8c0.1-1.2,0.2-2.4,0.2-4.8" class="st4"/><path d="M183.5,376c1.8,0.8,3.1-10.3,4.4-21.4c1.3-11.2,2.7-22.5,4.5-21.9" class="st1"/><path d="M183.5,376c1.8,0.8,3.1-10.3,4.4-21.4c1.3-11.2,2.7-22.5,4.5-21.9" class="st4"/></g><title>browsing</title><polygon points="371.6 37.9 0 215.8 0 194.8 371.6 1.2" class="st7"/><path d="M17.1,197.6c0,4.8-1.6,9.5-3.6,10.5c-2,0.9-3.6-2.1-3.6-6.9s1.6-9.4,3.6-10.4C15.5,189.7,17.1,192.7,17.1,197.6	z" class="st0"/><path d="M31.6,190.3c0,4.7-1.6,9.3-3.6,10.2c-2,0.9-3.6-2-3.6-6.7s1.6-9.2,3.6-10.2C29.9,182.7,31.6,185.7,31.6,190.3z" class="st0"/><path d="M46,183.1c0,4.7-1.6,9.3-3.6,10.2c-2,0.9-3.6-2-3.6-6.7s1.6-9.2,3.6-10.2C44.4,175.5,46,178.5,46,183.1z" class="st0"/><polygon points="271.9 569.5 44.3 542.3 49.4 477.2 279.2 476.5" class="st8"/><polygon points="266.7 566.9 39 539.6 44.1 474.5 274 473.9" class="st9"/><polygon points="79.8 504.3 69 504.5 70 492.8 80.7 492.4" class="st8"/><polygon points="79.9 503.4 67.3 503.6 68.4 489.9 81 489.5" class="st7"/><polygon points="216.9 509.5 88.9 503.6 89.7 492.7 217.9 496.2" class="st0"/><polygon points="214.2 543.9 86.8 530 87.7 519.1 215.2 530.6" class="st0"/><g><path d="M162.6,366.9c-5.1-2.2-6.7-25.3-8.4-48c-1.6-22.4-3.2-44.3-7.8-44.9" class="st1"/><path d="M162.6,366.9c-5.1-2.2-6.7-25.3-8.4-48c-1.6-22.4-3.2-44.3-7.8-44.9" class="st10"/><path d="M116.3,230.9L116.3,230.9c0.3-7.8,3.2-14.4,6.6-14.8l0,0c1.7-0.2,3.2,1.2,4.3,3.9c1.1,2.7,1.7,6.4,1.5,10.4 l0,0c-0.3,8.2-3.5,14.8-6.9,14.8l0,0C118.5,245.1,116,238.7,116.3,230.9z" class="st7"/><path d="M97.9,268.1L97.9,268.1c0.3-7.3,2.8-13.1,5.8-12.9l0,0c1.4,0.1,2.8,1.6,3.7,4.3c1,2.7,1.4,6.2,1.3,9.9l0,0 c-0.3,7.6-3,13.4-6,12.8l0,0C99.7,281.7,97.6,275.4,97.9,268.1z" class="st7"/><path d="M116.3,230.9c-6,0.2-12.2,12.4-12.6,24.4" class="st1"/><path d="M116.3,230.9c-6,0.2-12.2,12.4-12.6,24.4" class="st11"/><path d="M239.1,232.9L239.1,232.9c-6.3-4.8-8.5-17-5.1-27.6l0,0c1.7-5.1,4.5-9.3,7.9-11.6c3.5-2.3,7.2-2.5,10.5-0.4 l0,0c7,4.4,9.6,17.4,5.7,28.8l0,0C254.2,233.2,245.7,237.9,239.1,232.9z" class="st7"/><path d="M132.1,272.2L132.1,272.2c0.3-8.4,3.6-15,7.5-14.7l0,0c1.9,0.1,3.7,1.9,5,5c1.3,3.1,1.9,7.2,1.8,11.5l0,0 c-0.3,8.8-3.9,15.4-7.9,14.7l0,0C134.6,287.9,131.8,280.6,132.1,272.2z" class="st7"/><path d="M112.7,327.6L112.7,327.6c0.3-7.8,3.2-13.4,6.5-12.4l0,0c1.6,0.5,3.2,2.5,4.3,5.6c1.1,3.2,1.6,7.2,1.5,11.1 l0,0c-0.3,8.2-3.4,13.7-6.9,12.3l0,0C114.8,342.8,112.4,335.4,112.7,327.6z" class="st7"/><path d="M138.5,288.6c-0.3,8-5.2,10.9-9.9,13.7c-4.6,2.7-9,5.4-9.3,12.8" class="st1"/><path d="M138.5,288.6c-0.3,8-5.2,10.9-9.9,13.7c-4.6,2.7-9,5.4-9.3,12.8" class="st12"/><path d="M232.9,221.2c-4.6,0.2-7,3-9.2,5.7c-2.2,2.7-4.2,5.3-8.1,5.4" class="st1"/><path d="M232.9,221.2c-4.6,0.2-7,3-9.2,5.7c-2.2,2.7-4.2,5.3-8.1,5.4" class="st11"/><path d="M119.2,315.2c0.3-7.4-4.2-12.3-8.6-17c-4.2-4.5-8.2-8.9-8-15.8" class="st1"/><path d="M119.2,315.2c0.3-7.4-4.2-12.3-8.6-17c-4.2-4.5-8.2-8.9-8-15.8" class="st11"/><path d="M139.6,257.5c0.5-13.8-5-27.3-10.8-27.1" class="st1"/><path d="M139.6,257.5c0.5-13.8-5-27.3-10.8-27.1" class="st11"/><path d="M201.9,299.8L201.9,299.8c-5.9-1-10.2-10.2-9.8-20.4l0,0c0.2-4.9,1.4-9.6,3.5-12.9c2.1-3.4,4.9-5.2,7.7-5l0,0 c6.1,0.4,10.9,9.6,10.5,20.5l0,0C213.4,292.9,207.9,300.8,201.9,299.8z" class="st7"/><path d="M176.3,250.8L176.3,250.8c-5-0.2-8.6-8-8.3-17.4l0,0c0.2-4.5,1.2-8.9,3-12.3c1.8-3.4,4.2-5.4,6.6-5.6l0,0 c5.2-0.4,9.2,7.4,8.8,17.4l0,0C186.1,243,181.5,251,176.3,250.8z" class="st7"/><path d="M203.6,251.7L203.6,251.7c-5.9-0.2-10.2-8.7-9.9-18.9l0,0c0.2-4.9,1.4-9.7,3.5-13.3c2.1-3.7,4.9-5.9,7.8-6.1 l0,0c6.1-0.5,11,8,10.6,18.9l0,0C215.2,243.2,209.7,251.9,203.6,251.7z" class="st7"/><path d="M192.1,279.3c-1.8-0.2-2.3-11.9-2.8-23.4c-0.5-11.5-1-23-2.8-22.9" class="st1"/><path d="M192.1,279.3c-1.8-0.2-2.3-11.9-2.8-23.4c-0.5-11.5-1-23-2.8-22.9" class="st11"/><path d="M186.4,233c1.8,0,2.7,0,3.6,0c0.9,0,1.8,0.1,3.7,0" class="st1"/><path d="M186.4,233c1.8,0,2.7,0,3.6,0c0.9,0,1.8,0.1,3.7,0" class="st11"/><path d="M203.3,261.4c0.1-2.4,0.2-3.6,0.2-4.8c0.1-1.2,0.2-2.4,0.2-4.8" class="st1"/><path d="M203.3,261.4c0.1-2.4,0.2-3.6,0.2-4.8c0.1-1.2,0.2-2.4,0.2-4.8" class="st11"/><path d="M168,233.4c-5.3,0.1-8.3,10.6-11.2,20.9c-2.9,10.1-5.7,20.1-10.4,19.5" class="st1"/><path d="M168,233.4c-5.3,0.1-8.3,10.6-11.2,20.9c-2.9,10.1-5.7,20.1-10.4,19.5" class="st12"/><path d="M205.4,203.7L205.4,203.7c-5.9,0.6-10.3-7.2-9.9-17.4l0,0c0.2-4.9,1.4-9.9,3.5-13.8c2.1-3.9,4.9-6.5,7.8-7.2 l0,0c6.2-1.4,11,6.4,10.6,17.3l0,0C217.1,193.6,211.6,203,205.4,203.7z" class="st7"/><path d="M205,213.4c0.1-2.4,0.2-3.6,0.2-4.8c0.1-1.2,0.2-2.4,0.2-4.9" class="st1"/><path d="M205,213.4c0.1-2.4,0.2-3.6,0.2-4.8c0.1-1.2,0.2-2.4,0.2-4.9" class="st11"/><path d="M186.4,233c1.8,0,3.1-11.5,4.5-23.1c1.3-11.6,2.7-23.3,4.6-23.6" class="st1"/><path d="M186.4,233c1.8,0,3.1-11.5,4.5-23.1c1.3-11.6,2.7-23.3,4.6-23.6" class="st12"/><path d="M195.7,449.2L195.7,449.2c-5.8-3.7-10-14.8-9.6-25.1l0,0c0.2-4.9,1.4-9.1,3.4-11.5c2.1-2.5,4.8-3.1,7.6-1.7 l0,0c6,3.1,10.7,14.5,10.3,25.5l0,0C207,447.3,201.7,453,195.7,449.2z" class="st7"/><path d="M170.7,388.2L170.7,388.2c-4.9-2.4-8.5-11.9-8.1-21.3l0,0c0.2-4.5,1.2-8.5,3-11.1c1.8-2.6,4.1-3.6,6.5-2.7l0,0 c5.1,1.9,9,11.6,8.7,21.6l0,0C180.3,384.6,175.8,390.7,170.7,388.2z" class="st7"/><path d="M197.5,401.2L197.5,401.2c-5.8-2.8-10-13.3-9.7-23.6l0,0c0.2-4.9,1.4-9.2,3.5-12c2.1-2.8,4.8-3.8,7.6-2.8l0,0 c6,2.2,10.7,12.9,10.3,23.9l0,0C208.9,397.7,203.5,404.1,197.5,401.2z" class="st7"/><path d="M186.1,424.1c-1.8-1-2.3-13.1-2.7-25c-0.5-11.9-0.9-23.7-2.7-24.5" class="st1"/><path d="M186.1,424.1c-1.8-1-2.3-13.1-2.7-25c-0.5-11.9-0.9-23.7-2.7-24.5" class="st13"/><path d="M180.7,374.6c1.8,0.7,2.6,1.2,3.5,1.6c0.9,0.4,1.8,0.9,3.6,1.7" class="st1"/><path d="M180.7,374.6c1.8,0.7,2.6,1.2,3.5,1.6c0.9,0.4,1.8,0.9,3.6,1.7" class="st13"/><path d="M197.1,410.9c0.1-2.4,0.2-3.6,0.2-4.8c0.1-1.2,0.2-2.4,0.2-4.8" class="st1"/><path d="M197.1,410.9c0.1-2.4,0.2-3.6,0.2-4.8c0.1-1.2,0.2-2.4,0.2-4.8" class="st13"/><path d="M199.3,353.3L199.3,353.3c-5.8-2-10.1-11.8-9.7-22.1l0,0c0.2-4.9,1.4-9.4,3.5-12.4c2.1-3.1,4.8-4.5,7.6-3.8 l0,0c6.1,1.4,10.8,11.3,10.4,22.3l0,0C210.7,348.2,205.3,355.3,199.3,353.3z" class="st7"/><path d="M198.9,362.9c0.1-2.4,0.2-3.6,0.2-4.8c0.1-1.2,0.2-2.4,0.2-4.8" class="st1"/><path d="M198.9,362.9c0.1-2.4,0.2-3.6,0.2-4.8c0.1-1.2,0.2-2.4,0.2-4.8" class="st11"/><path d="M180.7,374.6c1.8,0.8,3.1-10.3,4.4-21.4c1.3-11.2,2.7-22.5,4.5-21.9" class="st1"/><path d="M180.7,374.6c1.8,0.8,3.1-10.3,4.4-21.4c1.3-11.2,2.7-22.5,4.5-21.9" class="st11"/></g></svg>