<?xml version="1.0" encoding="UTF-8"?>
<svg id="Layer_1" xmlns="http://www.w3.org/2000/svg" viewBox="0 0 2031.87 370.33">
  <defs>
    <style>
      .cls-1 {
        fill: #fff;
      }
    </style>
  </defs>
  <path class="cls-1" d="M347.11,246.89c0,9.36-1.79,18.15-5.37,26.35-3.58,8.32-8.49,15.55-14.73,21.66-6.25,6.14-13.47,10.99-21.67,14.57-8.32,3.58-17.16,5.37-26.52,5.37H35.46v-54.77h243.35c3.7,0,6.82-1.28,9.36-3.82,2.54-2.54,3.81-5.66,3.81-9.36v-21.14c0-3.7-1.26-6.82-3.81-9.36-2.54-2.54-5.66-3.81-9.36-3.81H103.74c-9.35,0-18.13-1.79-26.34-5.37-8.32-3.58-15.61-8.5-21.84-14.73-6.25-6.25-11.15-13.53-14.73-21.84-3.58-8.22-5.37-16.99-5.37-26.35v-21.14c0-9.36,1.79-18.21,5.37-26.52,3.58-8.22,8.49-15.43,14.73-21.67,6.23-6.25,13.51-11.15,21.84-14.73,8.2-3.58,16.99-5.37,26.34-5.37h243.37v55.11H103.74c-3.69,0-6.82,1.28-9.35,3.82-2.54,2.54-3.82,5.66-3.82,9.36v21.14c0,3.7,1.28,6.82,3.82,9.36,2.53,2.54,5.66,3.81,9.35,3.81h175.07c9.36,0,18.2,1.79,26.52,5.37,8.2,3.58,15.43,8.5,21.67,14.73,6.25,6.25,11.15,13.47,14.73,21.67,3.58,8.32,5.37,17.16,5.37,26.52v21.14Z"/>
  <rect class="cls-1" x="396.82" y="54.84" width="57.22" height="260"/>
  <polygon class="cls-1" points="1134.35 95.78 1134.35 106.84 1134.35 158.84 1134.35 222.26 1134.35 314.84 1380.83 314.84 1380.83 262.84 1186.35 262.84 1186.35 222.26 1186.35 210.84 1335.76 210.84 1335.76 158.84 1186.35 158.84 1186.35 106.84 1380.83 106.84 1380.83 54.84 1134.35 54.84 1134.35 95.78"/>
  <path class="cls-1" d="M815.4,246.89c0,9.36-1.79,18.15-5.37,26.35-3.58,8.32-8.49,15.55-14.73,21.66-6.25,6.14-13.47,10.99-21.67,14.57-8.32,3.58-17.16,5.37-26.52,5.37h-243.35v-54.77h243.35c3.7,0,6.82-1.28,9.36-3.82,2.54-2.54,3.81-5.66,3.81-9.36v-21.14c0-3.7-1.26-6.82-3.81-9.36-2.54-2.54-5.66-3.81-9.36-3.81h-175.07c-9.35,0-18.13-1.79-26.34-5.37-8.32-3.58-15.61-8.5-21.84-14.73-6.25-6.25-11.15-13.53-14.73-21.84-3.58-8.22-5.37-16.99-5.37-26.35v-21.14c0-9.36,1.79-18.21,5.37-26.52,3.58-8.22,8.49-15.43,14.73-21.67,6.23-6.25,13.51-11.15,21.84-14.73,8.2-3.58,16.99-5.37,26.34-5.37h243.37v55.11h-243.37c-3.69,0-6.82,1.28-9.35,3.82-2.54,2.54-3.82,5.66-3.82,9.36v21.14c0,3.7,1.28,6.82,3.82,9.36,2.53,2.54,5.66,3.81,9.35,3.81h175.07c9.36,0,18.2,1.79,26.52,5.37,8.2,3.58,15.43,8.5,21.67,14.73,6.25,6.25,11.15,13.47,14.73,21.67,3.58,8.32,5.37,17.16,5.37,26.52v21.14Z"/>
  <path class="cls-1" d="M1700.83,314.84h-52.57V127.46c0-2.08-.34-4.04-1.01-5.9-.67-1.85-1.58-3.46-2.73-4.85-1.16-1.39-2.5-2.48-4.04-3.3-1.54-.81-3.17-1.21-4.9-1.21h-209.54v-57.37h216.29c7.98,0,15.51,1.85,22.62,5.54,7.1,3.7,13.35,8.72,18.73,15.08,5.28,6.47,9.45,13.98,12.53,22.54,3.07,8.55,4.61,17.62,4.61,27.21v189.63ZM1498.4,314.84h-52.57v-185.01h52.57v185.01Z"/>
  <g>
    <path class="cls-1" d="M1000.02,54.84h102.64v55.12h-260.07v-55.12h157.44"/>
    <rect class="cls-1" x="945.06" y="133.04" width="55.14" height="181.8"/>
  </g>
  <g>
    <path class="cls-1" d="M1885.45,54.84h102.64v55.12h-260.07v-55.12h157.44"/>
    <rect class="cls-1" x="1830.49" y="133.04" width="55.14" height="181.8"/>
  </g>
</svg>