<svg width="700" height="232" viewBox="0 0 700 232" fill="none" xmlns="http://www.w3.org/2000/svg">
<rect width="228" height="64" rx="4" transform="matrix(-1 0 0 1 228 8)" fill="#00B39F"/>
<path d="M82.6134 105H81.4357L78.3478 100.834L77.4337 101.654V105H76.4377V96.4336H77.4337V100.705C77.6564 100.451 77.8849 100.199 78.1193 99.9492C78.3537 99.6953 78.5861 99.4395 78.8166 99.1816L81.3185 96.4336H82.4845L79.0744 100.148L82.6134 105ZM86.2315 98.4609C86.7784 98.4609 87.2471 98.582 87.6377 98.8242C88.0284 99.0664 88.3272 99.4062 88.5342 99.8438C88.7412 100.277 88.8448 100.785 88.8448 101.367V101.971H84.4092C84.4209 102.725 84.6084 103.299 84.9717 103.693C85.335 104.088 85.8467 104.285 86.5069 104.285C86.9131 104.285 87.2725 104.248 87.585 104.174C87.8975 104.1 88.2217 103.99 88.5577 103.846V104.701C88.2334 104.846 87.9112 104.951 87.5909 105.018C87.2745 105.084 86.8995 105.117 86.4659 105.117C85.8487 105.117 85.3096 104.992 84.8487 104.742C84.3916 104.488 84.0362 104.117 83.7823 103.629C83.5284 103.141 83.4014 102.543 83.4014 101.836C83.4014 101.145 83.5166 100.547 83.7471 100.043C83.9815 99.5352 84.3096 99.1445 84.7315 98.8711C85.1573 98.5977 85.6573 98.4609 86.2315 98.4609ZM86.2198 99.2578C85.7002 99.2578 85.2862 99.4277 84.9776 99.7676C84.669 100.107 84.4854 100.582 84.4268 101.191H87.8252C87.8213 100.809 87.7608 100.473 87.6436 100.184C87.5303 99.8906 87.3565 99.6641 87.1221 99.5039C86.8877 99.3398 86.587 99.2578 86.2198 99.2578ZM93.6347 98.4609C94.4355 98.4609 95.0741 98.7363 95.5507 99.2871C96.0273 99.8379 96.2655 100.666 96.2655 101.771C96.2655 102.502 96.1562 103.115 95.9374 103.611C95.7187 104.107 95.4101 104.482 95.0116 104.736C94.6171 104.99 94.1503 105.117 93.6112 105.117C93.2714 105.117 92.9726 105.072 92.7148 104.982C92.4569 104.893 92.2362 104.771 92.0527 104.619C91.8691 104.467 91.7167 104.301 91.5956 104.121H91.5253C91.537 104.273 91.5507 104.457 91.5663 104.672C91.5859 104.887 91.5956 105.074 91.5956 105.234V107.871H90.6171V98.5781H91.4198L91.5487 99.5273H91.5956C91.7206 99.332 91.873 99.1543 92.0527 98.9941C92.2323 98.8301 92.4511 98.7012 92.7089 98.6074C92.9706 98.5098 93.2792 98.4609 93.6347 98.4609ZM93.4648 99.2812C93.0194 99.2812 92.6601 99.3672 92.3866 99.5391C92.1171 99.7109 91.9198 99.9688 91.7948 100.312C91.6698 100.652 91.6034 101.08 91.5956 101.596V101.783C91.5956 102.326 91.6542 102.785 91.7714 103.16C91.8925 103.535 92.0898 103.82 92.3632 104.016C92.6405 104.211 93.0116 104.309 93.4765 104.309C93.8749 104.309 94.2069 104.201 94.4726 103.986C94.7382 103.771 94.9355 103.473 95.0644 103.09C95.1972 102.703 95.2636 102.26 95.2636 101.76C95.2636 101.002 95.1152 100.4 94.8183 99.9551C94.5253 99.5059 94.0741 99.2812 93.4648 99.2812ZM101.102 98.4609C101.903 98.4609 102.542 98.7363 103.018 99.2871C103.495 99.8379 103.733 100.666 103.733 101.771C103.733 102.502 103.624 103.115 103.405 103.611C103.186 104.107 102.878 104.482 102.479 104.736C102.085 104.99 101.618 105.117 101.079 105.117C100.739 105.117 100.44 105.072 100.182 104.982C99.9246 104.893 99.7039 104.771 99.5203 104.619C99.3367 104.467 99.1844 104.301 99.0633 104.121H98.993C99.0047 104.273 99.0184 104.457 99.034 104.672C99.0535 104.887 99.0633 105.074 99.0633 105.234V107.871H98.0848V98.5781H98.8875L99.0164 99.5273H99.0633C99.1883 99.332 99.3406 99.1543 99.5203 98.9941C99.7 98.8301 99.9187 98.7012 100.177 98.6074C100.438 98.5098 100.747 98.4609 101.102 98.4609ZM100.932 99.2812C100.487 99.2812 100.128 99.3672 99.8543 99.5391C99.5848 99.7109 99.3875 99.9688 99.2625 100.312C99.1375 100.652 99.0711 101.08 99.0633 101.596V101.783C99.0633 102.326 99.1219 102.785 99.2391 103.16C99.3602 103.535 99.5574 103.82 99.8309 104.016C100.108 104.211 100.479 104.309 100.944 104.309C101.343 104.309 101.675 104.201 101.94 103.986C102.206 103.771 102.403 103.473 102.532 103.09C102.665 102.703 102.731 102.26 102.731 101.76C102.731 101.002 102.583 100.4 102.286 99.9551C101.993 99.5059 101.542 99.2812 100.932 99.2812ZM108.025 98.4609C108.572 98.4609 109.041 98.582 109.431 98.8242C109.822 99.0664 110.121 99.4062 110.328 99.8438C110.535 100.277 110.638 100.785 110.638 101.367V101.971H106.203C106.215 102.725 106.402 103.299 106.765 103.693C107.129 104.088 107.64 104.285 108.3 104.285C108.707 104.285 109.066 104.248 109.379 104.174C109.691 104.1 110.015 103.99 110.351 103.846V104.701C110.027 104.846 109.705 104.951 109.384 105.018C109.068 105.084 108.693 105.117 108.259 105.117C107.642 105.117 107.103 104.992 106.642 104.742C106.185 104.488 105.83 104.117 105.576 103.629C105.322 103.141 105.195 102.543 105.195 101.836C105.195 101.145 105.31 100.547 105.541 100.043C105.775 99.5352 106.103 99.1445 106.525 98.8711C106.951 98.5977 107.451 98.4609 108.025 98.4609ZM108.013 99.2578C107.494 99.2578 107.08 99.4277 106.771 99.7676C106.463 100.107 106.279 100.582 106.22 101.191H109.619C109.615 100.809 109.554 100.473 109.437 100.184C109.324 99.8906 109.15 99.6641 108.916 99.5039C108.681 99.3398 108.381 99.2578 108.013 99.2578ZM113.389 105H112.411V95.8828H113.389V105ZM122.612 100.512H125.606V104.666C125.157 104.818 124.694 104.932 124.217 105.006C123.744 105.08 123.215 105.117 122.629 105.117C121.739 105.117 120.987 104.939 120.373 104.584C119.764 104.229 119.301 103.723 118.985 103.066C118.668 102.406 118.51 101.623 118.51 100.717C118.51 99.8301 118.684 99.0566 119.032 98.3965C119.383 97.7363 119.889 97.2246 120.549 96.8613C121.213 96.4941 122.01 96.3105 122.94 96.3105C123.416 96.3105 123.867 96.3555 124.293 96.4453C124.723 96.5312 125.121 96.6543 125.489 96.8145L125.108 97.6816C124.791 97.5449 124.442 97.4277 124.059 97.3301C123.68 97.2324 123.287 97.1836 122.881 97.1836C122.182 97.1836 121.582 97.3281 121.082 97.6172C120.586 97.9062 120.205 98.3145 119.94 98.8418C119.678 99.3691 119.547 99.9941 119.547 100.717C119.547 101.432 119.662 102.055 119.893 102.586C120.123 103.113 120.483 103.523 120.971 103.816C121.459 104.109 122.088 104.256 122.858 104.256C123.244 104.256 123.576 104.234 123.854 104.191C124.131 104.145 124.383 104.09 124.61 104.027V101.402H122.612V100.512ZM130.571 98.4609C130.7 98.4609 130.835 98.4688 130.976 98.4844C131.116 98.4961 131.241 98.5137 131.351 98.5371L131.228 99.4395C131.122 99.4121 131.005 99.3906 130.876 99.375C130.747 99.3594 130.626 99.3516 130.513 99.3516C130.255 99.3516 130.011 99.4043 129.78 99.5098C129.554 99.6113 129.355 99.7598 129.183 99.9551C129.011 100.146 128.876 100.379 128.779 100.652C128.681 100.922 128.632 101.223 128.632 101.555V105H127.654V98.5781H128.462L128.568 99.7617H128.609C128.741 99.5234 128.902 99.3066 129.089 99.1113C129.277 98.9121 129.493 98.7539 129.739 98.6367C129.989 98.5195 130.267 98.4609 130.571 98.4609ZM135.156 98.4609C135.703 98.4609 136.172 98.582 136.563 98.8242C136.953 99.0664 137.252 99.4062 137.459 99.8438C137.666 100.277 137.77 100.785 137.77 101.367V101.971H133.334C133.346 102.725 133.533 103.299 133.897 103.693C134.26 104.088 134.772 104.285 135.432 104.285C135.838 104.285 136.197 104.248 136.51 104.174C136.822 104.1 137.147 103.99 137.482 103.846V104.701C137.158 104.846 136.836 104.951 136.516 105.018C136.199 105.084 135.824 105.117 135.391 105.117C134.774 105.117 134.234 104.992 133.774 104.742C133.316 104.488 132.961 104.117 132.707 103.629C132.453 103.141 132.326 102.543 132.326 101.836C132.326 101.145 132.441 100.547 132.672 100.043C132.906 99.5352 133.234 99.1445 133.656 98.8711C134.082 98.5977 134.582 98.4609 135.156 98.4609ZM135.145 99.2578C134.625 99.2578 134.211 99.4277 133.902 99.7676C133.594 100.107 133.41 100.582 133.352 101.191H136.75C136.746 100.809 136.686 100.473 136.568 100.184C136.455 99.8906 136.281 99.6641 136.047 99.5039C135.813 99.3398 135.512 99.2578 135.145 99.2578ZM142.015 98.4609C142.561 98.4609 143.03 98.582 143.421 98.8242C143.811 99.0664 144.11 99.4062 144.317 99.8438C144.524 100.277 144.628 100.785 144.628 101.367V101.971H140.192C140.204 102.725 140.392 103.299 140.755 103.693C141.118 104.088 141.63 104.285 142.29 104.285C142.696 104.285 143.056 104.248 143.368 104.174C143.681 104.1 144.005 103.99 144.341 103.846V104.701C144.017 104.846 143.694 104.951 143.374 105.018C143.058 105.084 142.683 105.117 142.249 105.117C141.632 105.117 141.093 104.992 140.632 104.742C140.175 104.488 139.819 104.117 139.565 103.629C139.311 103.141 139.185 102.543 139.185 101.836C139.185 101.145 139.3 100.547 139.53 100.043C139.765 99.5352 140.093 99.1445 140.515 98.8711C140.94 98.5977 141.44 98.4609 142.015 98.4609ZM142.003 99.2578C141.483 99.2578 141.069 99.4277 140.761 99.7676C140.452 100.107 140.269 100.582 140.21 101.191H143.608C143.604 100.809 143.544 100.473 143.427 100.184C143.313 99.8906 143.14 99.6641 142.905 99.5039C142.671 99.3398 142.37 99.2578 142.003 99.2578ZM149.441 98.4609C150.203 98.4609 150.779 98.6484 151.17 99.0234C151.56 99.3945 151.756 99.9922 151.756 100.816V105H150.795V100.881C150.795 100.346 150.672 99.9453 150.426 99.6797C150.183 99.4141 149.81 99.2812 149.306 99.2812C148.596 99.2812 148.096 99.4824 147.806 99.8848C147.517 100.287 147.373 100.871 147.373 101.637V105H146.4V98.5781H147.185L147.332 99.5039H147.385C147.521 99.2773 147.695 99.0879 147.906 98.9355C148.117 98.7793 148.353 98.6621 148.615 98.584C148.877 98.502 149.152 98.4609 149.441 98.4609Z" fill="#3C494E"/>
<rect width="228" height="64" rx="4" transform="matrix(-1 0 0 1 464 8)" fill="#00D3A9"/>
<path d="M306.381 97.1895C305.908 97.1895 305.482 97.2715 305.103 97.4355C304.728 97.5957 304.408 97.8301 304.142 98.1387C303.881 98.4434 303.68 98.8125 303.539 99.2461C303.398 99.6797 303.328 100.168 303.328 100.711C303.328 101.43 303.439 102.055 303.662 102.586C303.889 103.113 304.224 103.521 304.67 103.811C305.119 104.1 305.68 104.244 306.351 104.244C306.734 104.244 307.094 104.213 307.43 104.15C307.769 104.084 308.099 104.002 308.42 103.904V104.771C308.107 104.889 307.779 104.975 307.435 105.029C307.092 105.088 306.683 105.117 306.211 105.117C305.34 105.117 304.611 104.938 304.025 104.578C303.443 104.215 303.006 103.703 302.713 103.043C302.424 102.383 302.279 101.604 302.279 100.705C302.279 100.057 302.369 99.4648 302.549 98.9297C302.732 98.3906 302.998 97.9258 303.346 97.5352C303.697 97.1445 304.127 96.8438 304.635 96.6328C305.146 96.418 305.732 96.3105 306.392 96.3105C306.826 96.3105 307.244 96.3535 307.646 96.4395C308.049 96.5254 308.412 96.6484 308.736 96.8086L308.338 97.6523C308.064 97.5273 307.764 97.4199 307.435 97.3301C307.111 97.2363 306.76 97.1895 306.381 97.1895ZM312.653 98.4727C313.419 98.4727 313.987 98.6445 314.358 98.9883C314.729 99.332 314.915 99.8809 314.915 100.635V105H314.206L314.018 104.051H313.971C313.792 104.285 313.604 104.482 313.409 104.643C313.214 104.799 312.987 104.918 312.729 105C312.475 105.078 312.163 105.117 311.792 105.117C311.401 105.117 311.053 105.049 310.749 104.912C310.448 104.775 310.21 104.568 310.034 104.291C309.862 104.014 309.776 103.662 309.776 103.236C309.776 102.596 310.03 102.104 310.538 101.76C311.046 101.416 311.819 101.229 312.858 101.197L313.966 101.15V100.758C313.966 100.203 313.846 99.8145 313.608 99.5918C313.37 99.3691 313.034 99.2578 312.6 99.2578C312.264 99.2578 311.944 99.3066 311.639 99.4043C311.335 99.502 311.046 99.6172 310.772 99.75L310.473 99.0117C310.762 98.8633 311.094 98.7363 311.469 98.6309C311.844 98.5254 312.239 98.4727 312.653 98.4727ZM313.954 101.836L312.975 101.877C312.175 101.908 311.61 102.039 311.282 102.27C310.954 102.5 310.79 102.826 310.79 103.248C310.79 103.615 310.901 103.887 311.124 104.062C311.346 104.238 311.641 104.326 312.009 104.326C312.579 104.326 313.046 104.168 313.409 103.852C313.772 103.535 313.954 103.061 313.954 102.428V101.836ZM319.957 98.4609C320.086 98.4609 320.22 98.4688 320.361 98.4844C320.502 98.4961 320.627 98.5137 320.736 98.5371L320.613 99.4395C320.507 99.4121 320.39 99.3906 320.261 99.375C320.132 99.3594 320.011 99.3516 319.898 99.3516C319.64 99.3516 319.396 99.4043 319.166 99.5098C318.939 99.6113 318.74 99.7598 318.568 99.9551C318.396 100.146 318.261 100.379 318.164 100.652C318.066 100.922 318.017 101.223 318.017 101.555V105H317.039V98.5781H317.847L317.953 99.7617H317.994C318.127 99.5234 318.287 99.3066 318.474 99.1113C318.662 98.9121 318.879 98.7539 319.125 98.6367C319.375 98.5195 319.652 98.4609 319.957 98.4609ZM323.041 98.5781V105H322.069V98.5781H323.041ZM322.567 96.1758C322.727 96.1758 322.864 96.2285 322.977 96.334C323.094 96.4355 323.153 96.5957 323.153 96.8145C323.153 97.0293 323.094 97.1895 322.977 97.2949C322.864 97.4004 322.727 97.4531 322.567 97.4531C322.399 97.4531 322.258 97.4004 322.145 97.2949C322.036 97.1895 321.981 97.0293 321.981 96.8145C321.981 96.5957 322.036 96.4355 322.145 96.334C322.258 96.2285 322.399 96.1758 322.567 96.1758ZM326.197 95.8828V98.1621C326.197 98.4238 326.189 98.6777 326.173 98.9238C326.161 99.1699 326.152 99.3613 326.144 99.498H326.197C326.372 99.209 326.626 98.9648 326.958 98.7656C327.29 98.5664 327.714 98.4668 328.23 98.4668C329.035 98.4668 329.675 98.7461 330.152 99.3047C330.632 99.8594 330.872 100.686 330.872 101.783C330.872 102.506 330.763 103.115 330.544 103.611C330.326 104.107 330.017 104.482 329.619 104.736C329.22 104.99 328.749 105.117 328.206 105.117C327.699 105.117 327.281 105.023 326.952 104.836C326.628 104.645 326.378 104.412 326.202 104.139H326.126L325.927 105H325.224V95.8828H326.197ZM328.072 99.2812C327.607 99.2812 327.238 99.373 326.964 99.5566C326.691 99.7363 326.494 100.01 326.372 100.377C326.255 100.74 326.197 101.201 326.197 101.76V101.812C326.197 102.621 326.331 103.24 326.601 103.67C326.87 104.096 327.361 104.309 328.072 104.309C328.669 104.309 329.117 104.09 329.413 103.652C329.714 103.215 329.865 102.59 329.865 101.777C329.865 100.949 329.716 100.326 329.419 99.9082C329.126 99.4902 328.677 99.2812 328.072 99.2812ZM333.664 95.8828V98.1621C333.664 98.4238 333.656 98.6777 333.641 98.9238C333.629 99.1699 333.619 99.3613 333.612 99.498H333.664C333.84 99.209 334.094 98.9648 334.426 98.7656C334.758 98.5664 335.182 98.4668 335.698 98.4668C336.502 98.4668 337.143 98.7461 337.619 99.3047C338.1 99.8594 338.34 100.686 338.34 101.783C338.34 102.506 338.231 103.115 338.012 103.611C337.793 104.107 337.485 104.482 337.086 104.736C336.688 104.99 336.217 105.117 335.674 105.117C335.166 105.117 334.748 105.023 334.42 104.836C334.096 104.645 333.846 104.412 333.67 104.139H333.594L333.395 105H332.692V95.8828H333.664ZM335.539 99.2812C335.074 99.2812 334.705 99.373 334.432 99.5566C334.158 99.7363 333.961 100.01 333.84 100.377C333.723 100.74 333.664 101.201 333.664 101.76V101.812C333.664 102.621 333.799 103.24 334.069 103.67C334.338 104.096 334.828 104.309 335.539 104.309C336.137 104.309 336.584 104.09 336.881 103.652C337.182 103.215 337.332 102.59 337.332 101.777C337.332 100.949 337.184 100.326 336.887 99.9082C336.594 99.4902 336.145 99.2812 335.539 99.2812ZM342.632 98.4609C343.179 98.4609 343.648 98.582 344.038 98.8242C344.429 99.0664 344.728 99.4062 344.935 99.8438C345.142 100.277 345.245 100.785 345.245 101.367V101.971H340.81C340.821 102.725 341.009 103.299 341.372 103.693C341.735 104.088 342.247 104.285 342.907 104.285C343.314 104.285 343.673 104.248 343.985 104.174C344.298 104.1 344.622 103.99 344.958 103.846V104.701C344.634 104.846 344.312 104.951 343.991 105.018C343.675 105.084 343.3 105.117 342.866 105.117C342.249 105.117 341.71 104.992 341.249 104.742C340.792 104.488 340.437 104.117 340.183 103.629C339.929 103.141 339.802 102.543 339.802 101.836C339.802 101.145 339.917 100.547 340.148 100.043C340.382 99.5352 340.71 99.1445 341.132 98.8711C341.558 98.5977 342.058 98.4609 342.632 98.4609ZM342.62 99.2578C342.101 99.2578 341.687 99.4277 341.378 99.7676C341.069 100.107 340.886 100.582 340.827 101.191H344.226C344.222 100.809 344.161 100.473 344.044 100.184C343.931 99.8906 343.757 99.6641 343.523 99.5039C343.288 99.3398 342.987 99.2578 342.62 99.2578ZM349.42 98.4727C350.186 98.4727 350.754 98.6445 351.125 98.9883C351.496 99.332 351.682 99.8809 351.682 100.635V105H350.973L350.785 104.051H350.738C350.559 104.285 350.371 104.482 350.176 104.643C349.98 104.799 349.754 104.918 349.496 105C349.242 105.078 348.93 105.117 348.559 105.117C348.168 105.117 347.82 105.049 347.516 104.912C347.215 104.775 346.977 104.568 346.801 104.291C346.629 104.014 346.543 103.662 346.543 103.236C346.543 102.596 346.797 102.104 347.305 101.76C347.812 101.416 348.586 101.229 349.625 101.197L350.732 101.15V100.758C350.732 100.203 350.613 99.8145 350.375 99.5918C350.137 99.3691 349.801 99.2578 349.367 99.2578C349.031 99.2578 348.711 99.3066 348.406 99.4043C348.102 99.502 347.812 99.6172 347.539 99.75L347.24 99.0117C347.529 98.8633 347.861 98.7363 348.236 98.6309C348.611 98.5254 349.006 98.4727 349.42 98.4727ZM350.721 101.836L349.742 101.877C348.941 101.908 348.377 102.039 348.049 102.27C347.721 102.5 347.557 102.826 347.557 103.248C347.557 103.615 347.668 103.887 347.891 104.062C348.113 104.238 348.408 104.326 348.775 104.326C349.346 104.326 349.812 104.168 350.176 103.852C350.539 103.535 350.721 103.061 350.721 102.428V101.836ZM356.847 98.4609C357.608 98.4609 358.184 98.6484 358.575 99.0234C358.966 99.3945 359.161 99.9922 359.161 100.816V105H358.2V100.881C358.2 100.346 358.077 99.9453 357.831 99.6797C357.589 99.4141 357.216 99.2812 356.712 99.2812C356.001 99.2812 355.501 99.4824 355.212 99.8848C354.923 100.287 354.778 100.871 354.778 101.637V105H353.806V98.5781H354.591L354.737 99.5039H354.79C354.927 99.2773 355.1 99.0879 355.311 98.9355C355.522 98.7793 355.759 98.6621 356.02 98.584C356.282 98.502 356.558 98.4609 356.847 98.4609ZM368.331 100.512H371.325V104.666C370.876 104.818 370.413 104.932 369.936 105.006C369.464 105.08 368.934 105.117 368.348 105.117C367.458 105.117 366.706 104.939 366.092 104.584C365.483 104.229 365.02 103.723 364.704 103.066C364.387 102.406 364.229 101.623 364.229 100.717C364.229 99.8301 364.403 99.0566 364.751 98.3965C365.102 97.7363 365.608 97.2246 366.268 96.8613C366.932 96.4941 367.729 96.3105 368.659 96.3105C369.135 96.3105 369.587 96.3555 370.012 96.4453C370.442 96.5312 370.84 96.6543 371.208 96.8145L370.827 97.6816C370.51 97.5449 370.161 97.4277 369.778 97.3301C369.399 97.2324 369.006 97.1836 368.6 97.1836C367.901 97.1836 367.301 97.3281 366.801 97.6172C366.305 97.9062 365.924 98.3145 365.659 98.8418C365.397 99.3691 365.266 99.9941 365.266 100.717C365.266 101.432 365.381 102.055 365.612 102.586C365.842 103.113 366.202 103.523 366.69 103.816C367.178 104.109 367.807 104.256 368.577 104.256C368.964 104.256 369.296 104.234 369.573 104.191C369.85 104.145 370.102 104.09 370.329 104.027V101.402H368.331V100.512ZM376.291 98.4609C376.419 98.4609 376.554 98.4688 376.695 98.4844C376.835 98.4961 376.96 98.5137 377.07 98.5371L376.947 99.4395C376.841 99.4121 376.724 99.3906 376.595 99.375C376.466 99.3594 376.345 99.3516 376.232 99.3516C375.974 99.3516 375.73 99.4043 375.5 99.5098C375.273 99.6113 375.074 99.7598 374.902 99.9551C374.73 100.146 374.595 100.379 374.498 100.652C374.4 100.922 374.351 101.223 374.351 101.555V105H373.373V98.5781H374.181L374.287 99.7617H374.328C374.46 99.5234 374.621 99.3066 374.808 99.1113C374.996 98.9121 375.212 98.7539 375.459 98.6367C375.709 98.5195 375.986 98.4609 376.291 98.4609ZM380.875 98.4609C381.422 98.4609 381.891 98.582 382.282 98.8242C382.672 99.0664 382.971 99.4062 383.178 99.8438C383.385 100.277 383.489 100.785 383.489 101.367V101.971H379.053C379.065 102.725 379.252 103.299 379.616 103.693C379.979 104.088 380.491 104.285 381.151 104.285C381.557 104.285 381.916 104.248 382.229 104.174C382.541 104.1 382.866 103.99 383.202 103.846V104.701C382.877 104.846 382.555 104.951 382.235 105.018C381.918 105.084 381.543 105.117 381.11 105.117C380.493 105.117 379.954 104.992 379.493 104.742C379.036 104.488 378.68 104.117 378.426 103.629C378.172 103.141 378.045 102.543 378.045 101.836C378.045 101.145 378.161 100.547 378.391 100.043C378.625 99.5352 378.954 99.1445 379.375 98.8711C379.801 98.5977 380.301 98.4609 380.875 98.4609ZM380.864 99.2578C380.344 99.2578 379.93 99.4277 379.621 99.7676C379.313 100.107 379.129 100.582 379.071 101.191H382.469C382.465 100.809 382.405 100.473 382.288 100.184C382.174 99.8906 382 99.6641 381.766 99.5039C381.532 99.3398 381.231 99.2578 380.864 99.2578ZM387.734 98.4609C388.281 98.4609 388.749 98.582 389.14 98.8242C389.531 99.0664 389.829 99.4062 390.036 99.8438C390.243 100.277 390.347 100.785 390.347 101.367V101.971H385.911C385.923 102.725 386.111 103.299 386.474 103.693C386.837 104.088 387.349 104.285 388.009 104.285C388.415 104.285 388.775 104.248 389.087 104.174C389.4 104.1 389.724 103.99 390.06 103.846V104.701C389.736 104.846 389.413 104.951 389.093 105.018C388.777 105.084 388.402 105.117 387.968 105.117C387.351 105.117 386.812 104.992 386.351 104.742C385.894 104.488 385.538 104.117 385.284 103.629C385.031 103.141 384.904 102.543 384.904 101.836C384.904 101.145 385.019 100.547 385.249 100.043C385.484 99.5352 385.812 99.1445 386.234 98.8711C386.659 98.5977 387.159 98.4609 387.734 98.4609ZM387.722 99.2578C387.202 99.2578 386.788 99.4277 386.48 99.7676C386.171 100.107 385.988 100.582 385.929 101.191H389.327C389.324 100.809 389.263 100.473 389.146 100.184C389.033 99.8906 388.859 99.6641 388.624 99.5039C388.39 99.3398 388.089 99.2578 387.722 99.2578ZM395.16 98.4609C395.922 98.4609 396.498 98.6484 396.889 99.0234C397.279 99.3945 397.475 99.9922 397.475 100.816V105H396.514V100.881C396.514 100.346 396.391 99.9453 396.145 99.6797C395.902 99.4141 395.529 99.2812 395.026 99.2812C394.315 99.2812 393.815 99.4824 393.526 99.8848C393.236 100.287 393.092 100.871 393.092 101.637V105H392.119V98.5781H392.904L393.051 99.5039H393.104C393.24 99.2773 393.414 99.0879 393.625 98.9355C393.836 98.7793 394.072 98.6621 394.334 98.584C394.596 98.502 394.871 98.4609 395.16 98.4609Z" fill="#3C494E"/>
<rect width="228" height="64" rx="4" transform="matrix(-1 0 0 1 700 8)" fill="#EBC017"/>
<path d="M551.296 102.721C551.296 103.229 551.169 103.662 550.915 104.021C550.665 104.377 550.313 104.648 549.86 104.836C549.407 105.023 548.874 105.117 548.26 105.117C547.936 105.117 547.63 105.102 547.341 105.07C547.051 105.039 546.786 104.994 546.544 104.936C546.301 104.877 546.089 104.805 545.905 104.719V103.764C546.198 103.885 546.555 103.998 546.977 104.104C547.399 104.205 547.841 104.256 548.301 104.256C548.731 104.256 549.094 104.199 549.391 104.086C549.688 103.969 549.913 103.803 550.065 103.588C550.221 103.369 550.3 103.107 550.3 102.803C550.3 102.51 550.235 102.266 550.106 102.07C549.977 101.871 549.762 101.691 549.462 101.531C549.165 101.367 548.759 101.193 548.243 101.01C547.88 100.881 547.559 100.74 547.282 100.588C547.005 100.432 546.772 100.256 546.585 100.061C546.397 99.8652 546.255 99.6387 546.157 99.3809C546.063 99.123 546.016 98.8281 546.016 98.4961C546.016 98.0391 546.132 97.6484 546.362 97.3242C546.596 96.9961 546.919 96.7461 547.329 96.5742C547.743 96.3984 548.217 96.3105 548.753 96.3105C549.21 96.3105 549.632 96.3535 550.018 96.4395C550.409 96.5254 550.766 96.6406 551.091 96.7852L550.78 97.6406C550.471 97.5117 550.143 97.4043 549.796 97.3184C549.452 97.2324 549.096 97.1895 548.729 97.1895C548.362 97.1895 548.051 97.2441 547.798 97.3535C547.548 97.459 547.356 97.6094 547.223 97.8047C547.091 98 547.024 98.2324 547.024 98.502C547.024 98.8027 547.087 99.0527 547.212 99.252C547.341 99.4512 547.544 99.6289 547.821 99.7852C548.102 99.9375 548.473 100.098 548.934 100.266C549.438 100.449 549.866 100.645 550.217 100.852C550.569 101.055 550.837 101.305 551.02 101.602C551.204 101.895 551.296 102.268 551.296 102.721ZM555.423 98.4727C556.189 98.4727 556.757 98.6445 557.129 98.9883C557.5 99.332 557.685 99.8809 557.685 100.635V105H556.976L556.789 104.051H556.742C556.562 104.285 556.375 104.482 556.179 104.643C555.984 104.799 555.757 104.918 555.5 105C555.246 105.078 554.933 105.117 554.562 105.117C554.171 105.117 553.824 105.049 553.519 104.912C553.218 104.775 552.98 104.568 552.804 104.291C552.632 104.014 552.546 103.662 552.546 103.236C552.546 102.596 552.8 102.104 553.308 101.76C553.816 101.416 554.589 101.229 555.629 101.197L556.736 101.15V100.758C556.736 100.203 556.617 99.8145 556.379 99.5918C556.14 99.3691 555.804 99.2578 555.371 99.2578C555.035 99.2578 554.714 99.3066 554.41 99.4043C554.105 99.502 553.816 99.6172 553.543 99.75L553.244 99.0117C553.533 98.8633 553.865 98.7363 554.24 98.6309C554.615 98.5254 555.009 98.4727 555.423 98.4727ZM556.724 101.836L555.746 101.877C554.945 101.908 554.38 102.039 554.052 102.27C553.724 102.5 553.56 102.826 553.56 103.248C553.56 103.615 553.671 103.887 553.894 104.062C554.117 104.238 554.412 104.326 554.779 104.326C555.349 104.326 555.816 104.168 556.179 103.852C556.543 103.535 556.724 103.061 556.724 102.428V101.836ZM562.668 99.3398H561.069V105H560.096V99.3398H558.959V98.8711L560.096 98.5488V98.1211C560.096 97.582 560.176 97.1445 560.336 96.8086C560.497 96.4688 560.729 96.2188 561.034 96.0586C561.338 95.8984 561.709 95.8184 562.147 95.8184C562.393 95.8184 562.618 95.8398 562.821 95.8828C563.028 95.9258 563.209 95.9746 563.366 96.0293L563.114 96.7969C562.981 96.7539 562.831 96.7148 562.663 96.6797C562.499 96.6406 562.331 96.6211 562.159 96.6211C561.788 96.6211 561.512 96.7422 561.332 96.9844C561.157 97.2227 561.069 97.5977 561.069 98.1094V98.5781H562.668V99.3398ZM566.706 99.3398H565.106V105H564.133V99.3398H562.997V98.8711L564.133 98.5488V98.1211C564.133 97.582 564.213 97.1445 564.374 96.8086C564.534 96.4688 564.766 96.2188 565.071 96.0586C565.375 95.8984 565.747 95.8184 566.184 95.8184C566.43 95.8184 566.655 95.8398 566.858 95.8828C567.065 95.9258 567.247 95.9746 567.403 96.0293L567.151 96.7969C567.018 96.7539 566.868 96.7148 566.7 96.6797C566.536 96.6406 566.368 96.6211 566.196 96.6211C565.825 96.6211 565.549 96.7422 565.37 96.9844C565.194 97.2227 565.106 97.5977 565.106 98.1094V98.5781H566.706V99.3398ZM570.921 98.4609C571.05 98.4609 571.185 98.4688 571.326 98.4844C571.466 98.4961 571.591 98.5137 571.701 98.5371L571.577 99.4395C571.472 99.4121 571.355 99.3906 571.226 99.375C571.097 99.3594 570.976 99.3516 570.863 99.3516C570.605 99.3516 570.361 99.4043 570.13 99.5098C569.904 99.6113 569.704 99.7598 569.533 99.9551C569.361 100.146 569.226 100.379 569.128 100.652C569.031 100.922 568.982 101.223 568.982 101.555V105H568.003V98.5781H568.812L568.917 99.7617H568.958C569.091 99.5234 569.251 99.3066 569.439 99.1113C569.626 98.9121 569.843 98.7539 570.089 98.6367C570.339 98.5195 570.617 98.4609 570.921 98.4609ZM578.571 101.777C578.571 102.305 578.502 102.775 578.365 103.189C578.229 103.604 578.031 103.953 577.774 104.238C577.516 104.523 577.203 104.742 576.836 104.895C576.473 105.043 576.061 105.117 575.6 105.117C575.17 105.117 574.776 105.043 574.416 104.895C574.061 104.742 573.752 104.523 573.49 104.238C573.233 103.953 573.031 103.604 572.887 103.189C572.746 102.775 572.676 102.305 572.676 101.777C572.676 101.074 572.795 100.477 573.033 99.9844C573.272 99.4883 573.612 99.1113 574.053 98.8535C574.498 98.5918 575.028 98.4609 575.641 98.4609C576.227 98.4609 576.739 98.5918 577.176 98.8535C577.617 99.1152 577.959 99.4941 578.201 99.9902C578.447 100.482 578.571 101.078 578.571 101.777ZM573.684 101.777C573.684 102.293 573.752 102.74 573.889 103.119C574.026 103.498 574.237 103.791 574.522 103.998C574.807 104.205 575.174 104.309 575.623 104.309C576.069 104.309 576.434 104.205 576.719 103.998C577.008 103.791 577.221 103.498 577.358 103.119C577.494 102.74 577.563 102.293 577.563 101.777C577.563 101.266 577.494 100.824 577.358 100.453C577.221 100.078 577.01 99.7891 576.725 99.5859C576.44 99.3828 576.071 99.2812 575.617 99.2812C574.949 99.2812 574.459 99.502 574.147 99.9434C573.838 100.385 573.684 100.996 573.684 101.777ZM583.413 98.4609C584.175 98.4609 584.751 98.6484 585.142 99.0234C585.532 99.3945 585.728 99.9922 585.728 100.816V105H584.767V100.881C584.767 100.346 584.644 99.9453 584.398 99.6797C584.155 99.4141 583.782 99.2812 583.278 99.2812C582.567 99.2812 582.067 99.4824 581.778 99.8848C581.489 100.287 581.345 100.871 581.345 101.637V105H580.372V98.5781H581.157L581.304 99.5039H581.357C581.493 99.2773 581.667 99.0879 581.878 98.9355C582.089 98.7793 582.325 98.6621 582.587 98.584C582.849 98.502 583.124 98.4609 583.413 98.4609ZM593.421 100.729L595.7 96.4336H596.772L593.919 101.678V105H592.923V101.725L590.063 96.4336H591.153L593.421 100.729ZM600.396 98.4609C600.943 98.4609 601.412 98.582 601.802 98.8242C602.193 99.0664 602.492 99.4062 602.699 99.8438C602.906 100.277 603.01 100.785 603.01 101.367V101.971H598.574C598.586 102.725 598.773 103.299 599.136 103.693C599.5 104.088 600.011 104.285 600.672 104.285C601.078 104.285 601.437 104.248 601.75 104.174C602.062 104.1 602.386 103.99 602.722 103.846V104.701C602.398 104.846 602.076 104.951 601.756 105.018C601.439 105.084 601.064 105.117 600.631 105.117C600.013 105.117 599.474 104.992 599.013 104.742C598.556 104.488 598.201 104.117 597.947 103.629C597.693 103.141 597.566 102.543 597.566 101.836C597.566 101.145 597.681 100.547 597.912 100.043C598.146 99.5352 598.474 99.1445 598.896 98.8711C599.322 98.5977 599.822 98.4609 600.396 98.4609ZM600.385 99.2578C599.865 99.2578 599.451 99.4277 599.142 99.7676C598.834 100.107 598.65 100.582 598.592 101.191H601.99C601.986 100.809 601.926 100.473 601.808 100.184C601.695 99.8906 601.521 99.6641 601.287 99.5039C601.052 99.3398 600.752 99.2578 600.385 99.2578ZM605.76 105H604.782V95.8828H605.76V105ZM608.916 105H607.937V95.8828H608.916V105ZM616.629 101.777C616.629 102.305 616.561 102.775 616.424 103.189C616.288 103.604 616.09 103.953 615.832 104.238C615.575 104.523 615.262 104.742 614.895 104.895C614.532 105.043 614.12 105.117 613.659 105.117C613.229 105.117 612.834 105.043 612.475 104.895C612.12 104.742 611.811 104.523 611.549 104.238C611.291 103.953 611.09 103.604 610.946 103.189C610.805 102.775 610.735 102.305 610.735 101.777C610.735 101.074 610.854 100.477 611.092 99.9844C611.33 99.4883 611.67 99.1113 612.112 98.8535C612.557 98.5918 613.086 98.4609 613.7 98.4609C614.286 98.4609 614.797 98.5918 615.235 98.8535C615.676 99.1152 616.018 99.4941 616.26 99.9902C616.506 100.482 616.629 101.078 616.629 101.777ZM611.743 101.777C611.743 102.293 611.811 102.74 611.948 103.119C612.084 103.498 612.295 103.791 612.58 103.998C612.866 104.205 613.233 104.309 613.682 104.309C614.127 104.309 614.493 104.205 614.778 103.998C615.067 103.791 615.28 103.498 615.416 103.119C615.553 102.74 615.621 102.293 615.621 101.777C615.621 101.266 615.553 100.824 615.416 100.453C615.28 100.078 615.069 99.7891 614.784 99.5859C614.498 99.3828 614.129 99.2812 613.676 99.2812C613.008 99.2812 612.518 99.502 612.205 99.9434C611.897 100.385 611.743 100.996 611.743 101.777ZM623.658 104.988L622.515 101.25C622.464 101.09 622.415 100.934 622.368 100.781C622.325 100.625 622.284 100.477 622.245 100.336C622.21 100.191 622.177 100.059 622.146 99.9375C622.118 99.8125 622.095 99.7051 622.075 99.6152H622.034C622.019 99.7051 621.997 99.8125 621.97 99.9375C621.943 100.059 621.909 100.191 621.87 100.336C621.835 100.48 621.796 100.633 621.753 100.793C621.71 100.949 621.661 101.107 621.607 101.268L620.411 104.988H619.316L617.546 98.5664H618.554L619.48 102.111C619.542 102.346 619.601 102.578 619.656 102.809C619.714 103.035 619.763 103.25 619.802 103.453C619.845 103.652 619.876 103.826 619.896 103.975H619.943C619.966 103.877 619.991 103.76 620.019 103.623C620.05 103.486 620.083 103.342 620.118 103.189C620.158 103.033 620.199 102.879 620.241 102.727C620.284 102.57 620.327 102.424 620.37 102.287L621.554 98.5664H622.603L623.745 102.281C623.804 102.469 623.861 102.664 623.915 102.867C623.974 103.07 624.027 103.268 624.074 103.459C624.12 103.646 624.154 103.814 624.173 103.963H624.22C624.236 103.83 624.265 103.666 624.308 103.471C624.351 103.275 624.4 103.061 624.454 102.826C624.513 102.592 624.574 102.354 624.636 102.111L625.574 98.5664H626.564L624.788 104.988H623.658Z" fill="#3C494E"/>
<rect width="346" height="64" rx="4" transform="matrix(-1 0 0 1 346 128)" fill="#3C494E"/>
<path d="M152.828 217.189C152.355 217.189 151.93 217.271 151.551 217.436C151.176 217.596 150.855 217.83 150.59 218.139C150.328 218.443 150.127 218.812 149.986 219.246C149.846 219.68 149.775 220.168 149.775 220.711C149.775 221.43 149.887 222.055 150.109 222.586C150.336 223.113 150.672 223.521 151.117 223.811C151.566 224.1 152.127 224.244 152.799 224.244C153.182 224.244 153.541 224.213 153.877 224.15C154.217 224.084 154.547 224.002 154.867 223.904V224.771C154.555 224.889 154.226 224.975 153.883 225.029C153.539 225.088 153.131 225.117 152.658 225.117C151.787 225.117 151.059 224.938 150.473 224.578C149.891 224.215 149.453 223.703 149.16 223.043C148.871 222.383 148.726 221.604 148.726 220.705C148.726 220.057 148.816 219.465 148.996 218.93C149.18 218.391 149.445 217.926 149.793 217.535C150.144 217.145 150.574 216.844 151.082 216.633C151.594 216.418 152.18 216.311 152.84 216.311C153.273 216.311 153.691 216.354 154.094 216.439C154.496 216.525 154.859 216.648 155.184 216.809L154.785 217.652C154.512 217.527 154.211 217.42 153.883 217.33C153.559 217.236 153.207 217.189 152.828 217.189ZM157.671 215.883V218.607C157.671 218.764 157.667 218.922 157.659 219.082C157.651 219.238 157.637 219.383 157.618 219.516H157.682C157.815 219.289 157.983 219.1 158.186 218.947C158.393 218.791 158.628 218.674 158.889 218.596C159.151 218.514 159.429 218.473 159.721 218.473C160.237 218.473 160.667 218.555 161.011 218.719C161.358 218.883 161.618 219.137 161.79 219.48C161.966 219.824 162.054 220.27 162.054 220.816V225H161.093V220.881C161.093 220.346 160.97 219.945 160.723 219.68C160.481 219.414 160.108 219.281 159.604 219.281C159.128 219.281 158.747 219.373 158.462 219.557C158.18 219.736 157.977 220.002 157.852 220.354C157.731 220.705 157.671 221.135 157.671 221.643V225H156.698V215.883H157.671ZM166.58 218.473C167.345 218.473 167.914 218.645 168.285 218.988C168.656 219.332 168.841 219.881 168.841 220.635V225H168.133L167.945 224.051H167.898C167.718 224.285 167.531 224.482 167.336 224.643C167.14 224.799 166.914 224.918 166.656 225C166.402 225.078 166.09 225.117 165.718 225.117C165.328 225.117 164.98 225.049 164.675 224.912C164.375 224.775 164.136 224.568 163.961 224.291C163.789 224.014 163.703 223.662 163.703 223.236C163.703 222.596 163.957 222.104 164.465 221.76C164.972 221.416 165.746 221.229 166.785 221.197L167.892 221.15V220.758C167.892 220.203 167.773 219.814 167.535 219.592C167.297 219.369 166.961 219.258 166.527 219.258C166.191 219.258 165.871 219.307 165.566 219.404C165.261 219.502 164.972 219.617 164.699 219.75L164.4 219.012C164.689 218.863 165.021 218.736 165.396 218.631C165.771 218.525 166.166 218.473 166.58 218.473ZM167.881 221.836L166.902 221.877C166.101 221.908 165.537 222.039 165.209 222.27C164.881 222.5 164.716 222.826 164.716 223.248C164.716 223.615 164.828 223.887 165.05 224.062C165.273 224.238 165.568 224.326 165.935 224.326C166.506 224.326 166.972 224.168 167.336 223.852C167.699 223.535 167.881 223.061 167.881 222.428V221.836ZM173.883 218.461C174.012 218.461 174.147 218.469 174.288 218.484C174.428 218.496 174.553 218.514 174.663 218.537L174.54 219.439C174.434 219.412 174.317 219.391 174.188 219.375C174.059 219.359 173.938 219.352 173.825 219.352C173.567 219.352 173.323 219.404 173.092 219.51C172.866 219.611 172.667 219.76 172.495 219.955C172.323 220.146 172.188 220.379 172.09 220.652C171.993 220.922 171.944 221.223 171.944 221.555V225H170.965V218.578H171.774L171.879 219.762H171.92C172.053 219.523 172.213 219.307 172.401 219.111C172.588 218.912 172.805 218.754 173.051 218.637C173.301 218.52 173.579 218.461 173.883 218.461ZM178.568 225.117C177.99 225.117 177.48 224.998 177.039 224.76C176.597 224.521 176.253 224.158 176.007 223.67C175.761 223.182 175.638 222.566 175.638 221.824C175.638 221.047 175.767 220.412 176.025 219.92C176.287 219.424 176.646 219.057 177.103 218.818C177.56 218.58 178.08 218.461 178.662 218.461C178.982 218.461 179.29 218.494 179.587 218.561C179.888 218.623 180.134 218.703 180.326 218.801L180.033 219.615C179.837 219.537 179.611 219.467 179.353 219.404C179.099 219.342 178.861 219.311 178.638 219.311C178.193 219.311 177.822 219.406 177.525 219.598C177.232 219.789 177.011 220.07 176.863 220.441C176.718 220.812 176.646 221.27 176.646 221.812C176.646 222.332 176.716 222.775 176.857 223.143C177.001 223.51 177.214 223.791 177.496 223.986C177.781 224.178 178.136 224.273 178.562 224.273C178.902 224.273 179.208 224.238 179.482 224.168C179.755 224.094 180.003 224.008 180.226 223.91V224.777C180.011 224.887 179.771 224.971 179.505 225.029C179.244 225.088 178.931 225.117 178.568 225.117ZM187.407 221.777C187.407 222.305 187.338 222.775 187.201 223.189C187.065 223.604 186.867 223.953 186.61 224.238C186.352 224.523 186.039 224.742 185.672 224.895C185.309 225.043 184.897 225.117 184.436 225.117C184.006 225.117 183.612 225.043 183.252 224.895C182.897 224.742 182.588 224.523 182.326 224.238C182.069 223.953 181.867 223.604 181.723 223.189C181.582 222.775 181.512 222.305 181.512 221.777C181.512 221.074 181.631 220.477 181.869 219.984C182.108 219.488 182.448 219.111 182.889 218.854C183.334 218.592 183.864 218.461 184.477 218.461C185.063 218.461 185.575 218.592 186.012 218.854C186.453 219.115 186.795 219.494 187.037 219.99C187.284 220.482 187.407 221.078 187.407 221.777ZM182.52 221.777C182.52 222.293 182.588 222.74 182.725 223.119C182.862 223.498 183.073 223.791 183.358 223.998C183.643 224.205 184.01 224.309 184.459 224.309C184.905 224.309 185.27 224.205 185.555 223.998C185.844 223.791 186.057 223.498 186.194 223.119C186.33 222.74 186.399 222.293 186.399 221.777C186.399 221.266 186.33 220.824 186.194 220.453C186.057 220.078 185.846 219.789 185.561 219.586C185.276 219.383 184.907 219.281 184.453 219.281C183.785 219.281 183.295 219.502 182.983 219.943C182.674 220.385 182.52 220.996 182.52 221.777ZM191.611 218.473C192.376 218.473 192.945 218.645 193.316 218.988C193.687 219.332 193.872 219.881 193.872 220.635V225H193.163L192.976 224.051H192.929C192.749 224.285 192.562 224.482 192.366 224.643C192.171 224.799 191.945 224.918 191.687 225C191.433 225.078 191.12 225.117 190.749 225.117C190.359 225.117 190.011 225.049 189.706 224.912C189.405 224.775 189.167 224.568 188.991 224.291C188.82 224.014 188.734 223.662 188.734 223.236C188.734 222.596 188.988 222.104 189.495 221.76C190.003 221.416 190.777 221.229 191.816 221.197L192.923 221.15V220.758C192.923 220.203 192.804 219.814 192.566 219.592C192.327 219.369 191.991 219.258 191.558 219.258C191.222 219.258 190.902 219.307 190.597 219.404C190.292 219.502 190.003 219.617 189.73 219.75L189.431 219.012C189.72 218.863 190.052 218.736 190.427 218.631C190.802 218.525 191.196 218.473 191.611 218.473ZM192.911 221.836L191.933 221.877C191.132 221.908 190.568 222.039 190.239 222.27C189.911 222.5 189.747 222.826 189.747 223.248C189.747 223.615 189.859 223.887 190.081 224.062C190.304 224.238 190.599 224.326 190.966 224.326C191.536 224.326 192.003 224.168 192.366 223.852C192.73 223.535 192.911 223.061 192.911 222.428V221.836ZM196.975 225H195.996V215.883H196.975V225Z" fill="#3C494E"/>
<rect width="346" height="64" rx="4" transform="matrix(-1 0 0 1 700 128)" fill="#51636B"/>
<path d="M499.453 225L498.398 222.281H494.964L493.916 225H492.908L496.259 216.398H497.156L500.484 225H499.453ZM498.099 221.396L497.097 218.695C497.074 218.625 497.035 218.51 496.98 218.35C496.929 218.189 496.877 218.023 496.822 217.852C496.767 217.68 496.722 217.541 496.687 217.436C496.648 217.596 496.605 217.756 496.558 217.916C496.515 218.072 496.472 218.219 496.429 218.355C496.386 218.488 496.349 218.602 496.318 218.695L495.298 221.396H498.099ZM504.219 225.117C503.641 225.117 503.131 224.998 502.69 224.76C502.249 224.521 501.905 224.158 501.659 223.67C501.413 223.182 501.29 222.566 501.29 221.824C501.29 221.047 501.418 220.412 501.676 219.92C501.938 219.424 502.297 219.057 502.754 218.818C503.211 218.58 503.731 218.461 504.313 218.461C504.633 218.461 504.942 218.494 505.239 218.561C505.54 218.623 505.786 218.703 505.977 218.801L505.684 219.615C505.489 219.537 505.262 219.467 505.004 219.404C504.75 219.342 504.512 219.311 504.29 219.311C503.844 219.311 503.473 219.406 503.176 219.598C502.883 219.789 502.663 220.07 502.514 220.441C502.37 220.812 502.297 221.27 502.297 221.812C502.297 222.332 502.368 222.775 502.508 223.143C502.653 223.51 502.866 223.791 503.147 223.986C503.432 224.178 503.788 224.273 504.213 224.273C504.553 224.273 504.86 224.238 505.133 224.168C505.407 224.094 505.655 224.008 505.877 223.91V224.777C505.663 224.887 505.422 224.971 505.157 225.029C504.895 225.088 504.582 225.117 504.219 225.117ZM510.093 225.117C509.515 225.117 509.005 224.998 508.564 224.76C508.122 224.521 507.779 224.158 507.533 223.67C507.286 223.182 507.163 222.566 507.163 221.824C507.163 221.047 507.292 220.412 507.55 219.92C507.812 219.424 508.171 219.057 508.628 218.818C509.085 218.58 509.605 218.461 510.187 218.461C510.507 218.461 510.816 218.494 511.113 218.561C511.413 218.623 511.66 218.703 511.851 218.801L511.558 219.615C511.363 219.537 511.136 219.467 510.878 219.404C510.624 219.342 510.386 219.311 510.163 219.311C509.718 219.311 509.347 219.406 509.05 219.598C508.757 219.789 508.536 220.07 508.388 220.441C508.244 220.812 508.171 221.27 508.171 221.812C508.171 222.332 508.242 222.775 508.382 223.143C508.527 223.51 508.74 223.791 509.021 223.986C509.306 224.178 509.661 224.273 510.087 224.273C510.427 224.273 510.734 224.238 511.007 224.168C511.281 224.094 511.529 224.008 511.751 223.91V224.777C511.536 224.887 511.296 224.971 511.031 225.029C510.769 225.088 510.456 225.117 510.093 225.117ZM515.867 218.461C516.414 218.461 516.883 218.582 517.274 218.824C517.664 219.066 517.963 219.406 518.17 219.844C518.377 220.277 518.481 220.785 518.481 221.367V221.971H514.045C514.057 222.725 514.244 223.299 514.608 223.693C514.971 224.088 515.483 224.285 516.143 224.285C516.549 224.285 516.908 224.248 517.221 224.174C517.533 224.1 517.858 223.99 518.194 223.846V224.701C517.869 224.846 517.547 224.951 517.227 225.018C516.91 225.084 516.535 225.117 516.102 225.117C515.485 225.117 514.946 224.992 514.485 224.742C514.028 224.488 513.672 224.117 513.418 223.629C513.164 223.141 513.037 222.543 513.037 221.836C513.037 221.145 513.153 220.547 513.383 220.043C513.617 219.535 513.946 219.145 514.367 218.871C514.793 218.598 515.293 218.461 515.867 218.461ZM515.856 219.258C515.336 219.258 514.922 219.428 514.614 219.768C514.305 220.107 514.121 220.582 514.063 221.191H517.461C517.457 220.809 517.397 220.473 517.28 220.184C517.166 219.891 516.992 219.664 516.758 219.504C516.524 219.34 516.223 219.258 515.856 219.258ZM523.294 218.461C524.056 218.461 524.632 218.648 525.023 219.023C525.413 219.395 525.609 219.992 525.609 220.816V225H524.648V220.881C524.648 220.346 524.525 219.945 524.278 219.68C524.036 219.414 523.663 219.281 523.159 219.281C522.448 219.281 521.948 219.482 521.659 219.885C521.37 220.287 521.226 220.871 521.226 221.637V225H520.253V218.578H521.038L521.185 219.504H521.237C521.374 219.277 521.548 219.088 521.759 218.936C521.97 218.779 522.206 218.662 522.468 218.584C522.73 218.502 523.005 218.461 523.294 218.461ZM529.807 224.32C529.967 224.32 530.131 224.307 530.299 224.279C530.467 224.252 530.604 224.219 530.709 224.18V224.936C530.596 224.986 530.438 225.029 530.234 225.064C530.035 225.1 529.84 225.117 529.648 225.117C529.309 225.117 529 225.059 528.723 224.941C528.445 224.82 528.223 224.617 528.055 224.332C527.891 224.047 527.809 223.652 527.809 223.148V219.34H526.895V218.865L527.814 218.484L528.201 217.09H528.787V218.578H530.668V219.34H528.787V223.119C528.787 223.521 528.879 223.822 529.062 224.021C529.25 224.221 529.498 224.32 529.807 224.32ZM539.176 220.512H542.17V224.666C541.72 224.818 541.258 224.932 540.781 225.006C540.308 225.08 539.779 225.117 539.193 225.117C538.302 225.117 537.551 224.939 536.937 224.584C536.328 224.229 535.865 223.723 535.549 223.066C535.232 222.406 535.074 221.623 535.074 220.717C535.074 219.83 535.248 219.057 535.595 218.396C535.947 217.736 536.453 217.225 537.113 216.861C537.777 216.494 538.574 216.311 539.504 216.311C539.98 216.311 540.431 216.355 540.857 216.445C541.287 216.531 541.685 216.654 542.052 216.814L541.672 217.682C541.355 217.545 541.006 217.428 540.623 217.33C540.244 217.232 539.851 217.184 539.445 217.184C538.746 217.184 538.146 217.328 537.646 217.617C537.15 217.906 536.769 218.314 536.504 218.842C536.242 219.369 536.111 219.994 536.111 220.717C536.111 221.432 536.226 222.055 536.457 222.586C536.687 223.113 537.047 223.523 537.535 223.816C538.023 224.109 538.652 224.256 539.422 224.256C539.808 224.256 540.14 224.234 540.418 224.191C540.695 224.145 540.947 224.09 541.174 224.027V221.402H539.176V220.512ZM547.135 218.461C547.264 218.461 547.399 218.469 547.54 218.484C547.68 218.496 547.805 218.514 547.915 218.537L547.792 219.439C547.686 219.412 547.569 219.391 547.44 219.375C547.311 219.359 547.19 219.352 547.077 219.352C546.819 219.352 546.575 219.404 546.344 219.51C546.118 219.611 545.919 219.76 545.747 219.955C545.575 220.146 545.44 220.379 545.342 220.652C545.245 220.922 545.196 221.223 545.196 221.555V225H544.217V218.578H545.026L545.131 219.762H545.172C545.305 219.523 545.465 219.307 545.653 219.111C545.84 218.912 546.057 218.754 546.303 218.637C546.553 218.52 546.831 218.461 547.135 218.461ZM551.72 218.461C552.267 218.461 552.736 218.582 553.126 218.824C553.517 219.066 553.816 219.406 554.023 219.844C554.23 220.277 554.334 220.785 554.334 221.367V221.971H549.898C549.91 222.725 550.097 223.299 550.46 223.693C550.824 224.088 551.335 224.285 551.996 224.285C552.402 224.285 552.761 224.248 553.074 224.174C553.386 224.1 553.71 223.99 554.046 223.846V224.701C553.722 224.846 553.4 224.951 553.08 225.018C552.763 225.084 552.388 225.117 551.955 225.117C551.337 225.117 550.798 224.992 550.337 224.742C549.88 224.488 549.525 224.117 549.271 223.629C549.017 223.141 548.89 222.543 548.89 221.836C548.89 221.145 549.005 220.547 549.236 220.043C549.47 219.535 549.798 219.145 550.22 218.871C550.646 218.598 551.146 218.461 551.72 218.461ZM551.709 219.258C551.189 219.258 550.775 219.428 550.466 219.768C550.158 220.107 549.974 220.582 549.916 221.191H553.314C553.31 220.809 553.25 220.473 553.132 220.184C553.019 219.891 552.845 219.664 552.611 219.504C552.376 219.34 552.076 219.258 551.709 219.258ZM555.092 218.578H556.135L557.553 222.305C557.635 222.523 557.711 222.734 557.782 222.938C557.852 223.137 557.914 223.328 557.969 223.512C558.024 223.695 558.067 223.873 558.098 224.045H558.139C558.194 223.85 558.272 223.594 558.373 223.277C558.475 222.957 558.584 222.631 558.702 222.299L560.043 218.578H561.092L558.297 225.943C558.149 226.338 557.975 226.682 557.776 226.975C557.58 227.268 557.342 227.492 557.061 227.648C556.78 227.809 556.44 227.889 556.041 227.889C555.858 227.889 555.696 227.877 555.555 227.854C555.414 227.834 555.293 227.811 555.192 227.783V227.004C555.278 227.023 555.381 227.041 555.502 227.057C555.627 227.072 555.756 227.08 555.889 227.08C556.131 227.08 556.34 227.033 556.516 226.939C556.696 226.85 556.85 226.717 556.979 226.541C557.108 226.365 557.219 226.156 557.313 225.914L557.664 225.012L555.092 218.578Z" fill="#3C494E"/>
</svg>
