<svg id="Layer_1" data-name="Layer 1" xmlns="http://www.w3.org/2000/svg" viewBox="0 0 470 55"><defs><style>.cls-1{fill:#3c494f;}.cls-2{fill:#3c494e;}</style></defs><polygon class="cls-1" points="72.06 11.39 72.06 13.39 72.06 22.8 72.06 34.27 72.06 51.02 116.64 51.02 116.64 41.61 81.46 41.61 81.46 34.27 81.46 32.2 108.49 32.2 108.49 22.8 81.46 22.8 81.46 13.39 116.64 13.39 116.64 3.98 72.06 3.98 72.06 11.39"/><path class="cls-1" d="M178.36,38.72a11.73,11.73,0,0,1-1,4.77,12.15,12.15,0,0,1-2.66,3.92A12.8,12.8,0,0,1,170.81,50a12,12,0,0,1-4.8,1H122V41.11h44a2.36,2.36,0,0,0,2.38-2.39V34.9A2.36,2.36,0,0,0,166,32.52H134.34a12,12,0,0,1-4.77-1A12.49,12.49,0,0,1,123,24.93a11.76,11.76,0,0,1-1-4.77V16.34a11.94,11.94,0,0,1,1-4.8,12.71,12.71,0,0,1,2.66-3.92A12.44,12.44,0,0,1,129.57,5a11.8,11.8,0,0,1,4.77-1h44V14h-44a2.29,2.29,0,0,0-1.69.69,2.33,2.33,0,0,0-.69,1.7v3.82a2.36,2.36,0,0,0,2.38,2.39H166a12,12,0,0,1,4.8,1,12.89,12.89,0,0,1,3.92,2.66,12.71,12.71,0,0,1,2.66,3.92,12,12,0,0,1,1,4.8Z"/><path class="cls-1" d="M237.69,51h-9V32.52h-35V51h-9V22.55h43.95V4h9ZM193.74,18.13h-9V4h9Z"/><path class="cls-1" d="M64.82,51h-10V16.71a2.55,2.55,0,0,0-.22-1.06,2.67,2.67,0,0,0-.59-.88,3.12,3.12,0,0,0-.88-.6A2.77,2.77,0,0,0,52.09,14H6V4H52.09A12.2,12.2,0,0,1,57,5a13.25,13.25,0,0,1,4.08,2.72,13.4,13.4,0,0,1,2.73,4.08,12.26,12.26,0,0,1,1,4.92ZM16,51H6V14H16Zm24.39,0h-10V19.18h10Z"/><path class="cls-1" d="M303.32,51h-10V16.71a2.72,2.72,0,0,0-.22-1.06,2.86,2.86,0,0,0-1.48-1.48,2.72,2.72,0,0,0-1.06-.22h-46.1V4h46.1a12.27,12.27,0,0,1,4.92,1,13.37,13.37,0,0,1,4.08,2.72,13.55,13.55,0,0,1,2.72,4.08,12.27,12.27,0,0,1,1,4.92Zm-48.85,0h-10V14h10Zm24.39,0h-10V19.18h10Z"/><polygon class="cls-1" points="328.11 3.98 309.3 51.02 320.03 51.02 332.82 18.09 341.93 41.61 326.3 41.61 322.79 51.02 356.33 51.02 337.52 3.98 328.11 3.98"/><path class="cls-1" d="M372,13h24v9.75H374.57l.09,8.93h6.43l17,19.22h11.56l-17-19.22h6.63a7.28,7.28,0,0,0,7.27-7.28v-13a7.27,7.27,0,0,0-7.27-7.27H362.8V50.91h9.37Z"/><polyline class="cls-2" points="463.48 3.98 450.26 3.98 425.29 24.95 425.29 4.01 416 4.01 416 51.02 425.29 51.02 425.29 37.45"/><polygon class="cls-2" points="442.37 26.71 464 51.02 450.66 51.02 434.71 33.15 442.37 26.71"/></svg>