<svg id="Layer_1" data-name="Layer 1" xmlns="http://www.w3.org/2000/svg" viewBox="0 0 550 150"><defs><style>.cls-1{fill:#477e96;}.cls-2{fill:#fff;}</style></defs><rect class="cls-1" x="-2.24" y="-4" width="556.17" height="156"/><polygon class="cls-2" points="112.06 58.89 112.06 60.89 112.06 70.3 112.06 81.77 112.06 98.52 156.64 98.52 156.64 89.11 121.46 89.11 121.46 81.77 121.46 79.7 148.49 79.7 148.49 70.3 121.46 70.3 121.46 60.89 156.64 60.89 156.64 51.48 112.06 51.48 112.06 58.89"/><path class="cls-2" d="M218.36,86.22a11.73,11.73,0,0,1-1,4.77,12.15,12.15,0,0,1-2.66,3.92,12.8,12.8,0,0,1-3.92,2.63,12,12,0,0,1-4.8,1H162V88.61h44a2.36,2.36,0,0,0,2.38-2.39V82.4A2.36,2.36,0,0,0,206,80H174.34a12,12,0,0,1-4.77-1A12.49,12.49,0,0,1,163,72.43a11.76,11.76,0,0,1-1-4.77V63.84a11.94,11.94,0,0,1,1-4.8,12.71,12.71,0,0,1,2.66-3.92,12.44,12.44,0,0,1,3.95-2.66,11.8,11.8,0,0,1,4.77-1h44v10h-44a2.29,2.29,0,0,0-1.69.69,2.33,2.33,0,0,0-.69,1.7v3.82a2.36,2.36,0,0,0,2.38,2.39H206a12,12,0,0,1,4.8,1,12.89,12.89,0,0,1,3.92,2.66,12.71,12.71,0,0,1,2.66,3.92,12,12,0,0,1,1,4.8Z"/><path class="cls-2" d="M277.69,98.52h-9V80h-35v18.5h-9V70.05h44V51.48h9ZM233.74,65.63h-9V51.48h9Z"/><path class="cls-2" d="M104.82,98.52h-10V64.21a2.55,2.55,0,0,0-.22-1.06,2.67,2.67,0,0,0-.59-.88,3.12,3.12,0,0,0-.88-.6,2.77,2.77,0,0,0-1.07-.22H46v-10H92.09a12.2,12.2,0,0,1,4.92,1,13.25,13.25,0,0,1,4.08,2.72,13.4,13.4,0,0,1,2.73,4.08,12.26,12.26,0,0,1,1,4.92ZM56,98.52H46V61.45H56Zm24.39,0h-10V66.68h10Z"/><path class="cls-2" d="M343.32,98.52h-10V64.21a2.72,2.72,0,0,0-.22-1.06,2.86,2.86,0,0,0-1.48-1.48,2.72,2.72,0,0,0-1.06-.22h-46.1v-10h46.1a12.27,12.27,0,0,1,4.92,1,13.37,13.37,0,0,1,4.08,2.72,13.55,13.55,0,0,1,2.72,4.08,12.27,12.27,0,0,1,1,4.92Zm-48.85,0h-10V61.45h10Zm24.39,0h-10V66.68h10Z"/><polygon class="cls-2" points="368.11 51.48 349.3 98.52 360.03 98.52 372.82 65.59 381.93 89.11 366.3 89.11 362.79 98.52 396.33 98.52 377.52 51.48 368.11 51.48"/><path class="cls-2" d="M412,60.51h24v9.75H414.57l.09,8.93h6.43l17,19.22h11.56l-17-19.22h6.63a7.28,7.28,0,0,0,7.27-7.28v-13a7.27,7.27,0,0,0-7.27-7.27H402.8V98.41h9.37Z"/><polyline class="cls-2" points="503.48 51.48 490.26 51.48 465.29 72.45 465.29 51.51 456 51.51 456 98.52 465.29 98.52 465.29 84.95"/><polygon class="cls-2" points="482.37 74.21 504 98.52 490.66 98.52 474.71 80.65 482.37 74.21"/></svg>