<svg xmlns="http://www.w3.org/2000/svg" xmlns:xlink="http://www.w3.org/1999/xlink" id="Layer_1" data-name="Layer 1" viewBox="0 0 640.64 285.14"><defs><style>.cls-1,.cls-4,.cls-5{fill:#fff}.cls-2{clip-path:url(#clip-path)}.cls-3{clip-path:url(#clip-path-2)}.cls-4{fill-rule:evenodd}.cls-5{opacity:.8}.cls-6{clip-path:url(#clip-path-3)}</style><clipPath id="clip-path"><rect width="195.6" height="1" x="433.02" y="257.52" class="cls-1"/></clipPath><clipPath id="clip-path-2"><rect width="191.3" height="1" x="12.32" y="257.52" class="cls-1"/></clipPath><clipPath id="clip-path-3"><rect width="1" height="203.5" x="246.42" y="13.32" class="cls-1"/></clipPath></defs><title>kccnc-eu-2019-white</title><path id="SVGID" d="M433.02,257.52h195.6v1H433.02Z" class="cls-1"/><rect width="195.6" height="1" x="433.02" y="257.52" class="cls-1"/><g class="cls-2"><path d="M433.02,257.52h195.6v1H433.02Z" class="cls-1"/></g><path id="SVGID-2" d="M12.32,257.52h191.3v1H12.32Z" class="cls-1" data-name="SVGID"/><rect width="191.3" height="1" x="12.32" y="257.52" class="cls-1"/><g class="cls-3"><path d="M12.32,257.52h191.3v1H12.32Z" class="cls-1"/></g><path d="M185.32,187.22c1.1-.3,2.4-.6,4.1-.9a29.60748,29.60748,0,0,1,5.2-.4,12.0312,12.0312,0,0,1,4.6.7,7.0304,7.0304,0,0,1,2.9,2.1,7.91347,7.91347,0,0,1,1.5,3.2,17.0444,17.0444,0,0,1,.5,4.1v12.4h-6.2v-11.6a8.34927,8.34927,0,0,0-.8-4.2q-.75-1.2-3-1.2a7.08412,7.08412,0,0,0-1.4.1c-.5,0-.9.1-1.3.1v16.9h-6.1v-21.3Zm-11.4,10.2a8.30857,8.30857,0,0,0-1.1-4.5,4.20314,4.20314,0,0,0-6.6,0,7.5093,7.5093,0,0,0-1.2,4.5,8.059,8.059,0,0,0,1.2,4.6,4.053,4.053,0,0,0,6.6,0,8.93969,8.93969,0,0,0,1.1-4.6m6.3,0a14.05481,14.05481,0,0,1-.7,4.7,10.70231,10.70231,0,0,1-2.2,3.7,10.00729,10.00729,0,0,1-7.8,3.2,12.30687,12.30687,0,0,1-4.4-.8,10.03718,10.03718,0,0,1-3.4-2.4,10.40256,10.40256,0,0,1-2.2-3.7,14.20622,14.20622,0,0,1,0-9.4,10.88741,10.88741,0,0,1,2.2-3.6,9.75574,9.75574,0,0,1,3.4-2.3,10.29407,10.29407,0,0,1,4.3-.8,11.758,11.758,0,0,1,4.3.8,11.34006,11.34006,0,0,1,3.4,2.3,10.88714,10.88714,0,0,1,2.2,3.6,10.39374,10.39374,0,0,1,.9,4.7m-33.7,11.5c-4.7,0-8.3-1.3-10.7-3.9-2.5-2.6-3.7-6.3-3.7-11.1a18.25929,18.25929,0,0,1,1.1-6.4,12.92465,12.92465,0,0,1,7.8-7.6,16.25515,16.25515,0,0,1,5.9-1,16.85676,16.85676,0,0,1,3.3.3c1,.2,1.9.4,2.6.6a19.68384,19.68384,0,0,1,1.9.7,3.58071,3.58071,0,0,1,1.1.6l-1.9,5.2a12.52189,12.52189,0,0,0-3.1-1.2,16.19938,16.19938,0,0,0-4-.5,9.29069,9.29069,0,0,0-2.9.5,5.98229,5.98229,0,0,0-2.5,1.6,9.65139,9.65139,0,0,0-1.8,2.8,13.17182,13.17182,0,0,0-.7,4.2,14.48212,14.48212,0,0,0,.4,3.7,9.22777,9.22777,0,0,0,1.4,3,7.5296,7.5296,0,0,0,2.6,2,8.897,8.897,0,0,0,3.8.7,18.09631,18.09631,0,0,0,2.5-.2,10.08422,10.08422,0,0,0,2-.4,13.08016,13.08016,0,0,0,1.5-.5,6.118,6.118,0,0,1,1.2-.5l1.8,5.2a12.19339,12.19339,0,0,1-3.9,1.5,19.32042,19.32042,0,0,1-5.7.7m-24.6-13.7a4.01237,4.01237,0,0,0-.3-1.5,5.38794,5.38794,0,0,0-.7-1.3,4.00166,4.00166,0,0,0-1.2-1,4.77663,4.77663,0,0,0-1.8-.4,3.42472,3.42472,0,0,0-1.8.4,2.73,2.73,0,0,0-1.2.9,4.678,4.678,0,0,0-.8,1.4,7.49111,7.49111,0,0,0-.4,1.6h8.2Zm-14.6,2.4a13.63806,13.63806,0,0,1,.9-5.1,9.47826,9.47826,0,0,1,2.4-3.6,10.04447,10.04447,0,0,1,3.3-2.2,10.72324,10.72324,0,0,1,3.9-.7,9.72434,9.72434,0,0,1,7.4,2.8q2.7,2.85,2.7,8.4v1.2c0,.4-.1.8-.1,1.1h-14.1a3.71723,3.71723,0,0,0,1.8,3,7.698,7.698,0,0,0,4.2,1.1,17.60961,17.60961,0,0,0,3.3-.3,12.543,12.543,0,0,0,2.7-.8l.8,5a8.92976,8.92976,0,0,1-1.3.5,10.62066,10.62066,0,0,1-1.9.4c-.7.1-1.4.2-2.2.3a18.48378,18.48378,0,0,1-2.3.1,12.92864,12.92864,0,0,1-5.1-.9,9.47826,9.47826,0,0,1-3.6-2.4,8.17817,8.17817,0,0,1-2.1-3.6,11.41466,11.41466,0,0,1-.7-4.3m-4.1-.2a14.03351,14.03351,0,0,1-.8,4.7,10.88744,10.88744,0,0,1-2.2,3.6,9.67247,9.67247,0,0,1-3.6,2.3,14.19412,14.19412,0,0,1-4.8.8,20.93015,20.93015,0,0,1-2.4-.1l-2.4-.3a18.45911,18.45911,0,0,1-2.3-.4c-.7-.2-1.4-.3-1.9-.5v-30.6l6.2-1v10.9a14.16052,14.16052,0,0,1,2.2-.7,9.34492,9.34492,0,0,1,2.4-.2,10.33021,10.33021,0,0,1,4.1.8,7.56065,7.56065,0,0,1,3,2.3,10.15193,10.15193,0,0,1,1.8,3.6,15.07146,15.07146,0,0,1,.7,4.8m-6.3-.1c0-4-1.5-6-4.4-6a12.2534,12.2534,0,0,0-1.9.2,11.63826,11.63826,0,0,0-1.5.6v11.3a4.12033,4.12033,0,0,0,1.2.1c.5,0,1,.1,1.5.1a4.452,4.452,0,0,0,3.8-1.7,7.3769,7.3769,0,0,0,1.3-4.6m-20.2,10.3c-1.1.3-2.4.6-4.1.9a29.60785,29.60785,0,0,1-5.2.4,12.031,12.031,0,0,1-4.6-.7,7.03062,7.03062,0,0,1-2.9-2.1,8.59286,8.59286,0,0,1-1.5-3.2,17.04534,17.04534,0,0,1-.5-4.1v-12.2h6.2v11.4a9.077,9.077,0,0,0,.8,4.3c.5.9,1.5,1.3,3,1.3a7.08352,7.08352,0,0,0,1.4-.1c.5,0,.9-.1,1.3-.1v-16.9h6.2v21.1Zm-28.6.8c-.6-.9-1.3-2-2.1-3.1a37.46268,37.46268,0,0,0-2.6-3.3c-.9-1.1-1.9-2.1-2.9-3.2a36.53174,36.53174,0,0,0-3-2.7v12.2h-6.5v-28.8h6.5v10.9c1.7-1.8,3.4-3.6,5.1-5.6,1.7-1.9,3.3-3.7,4.8-5.3h7.7c-2,2.3-3.9,4.6-5.9,6.7-2,2.2-4.1,4.3-6.3,6.5a54.0442,54.0442,0,0,1,6.7,6.8,88.54635,88.54635,0,0,1,6.2,8.7h-7.7Z" class="cls-1"/><path d="M100.12,81.12l-3.6.8c0-.5-.1-1-.1-1.5a20.7078,20.7078,0,0,1,3-10.8l7,6.2a1.38019,1.38019,0,0,0,.4.3,11.40359,11.40359,0,0,0-.8,3.3c-.2.1-.5.1-.7.2Zm13.6-21.2v9.8a8.6695,8.6695,0,0,0-2.7,1.4c-.3-.2-.6-.5-.9-.7l-7.1-5a20.07749,20.07749,0,0,1,10.7-5.5m-48.6,22.6c3.4-14.9,6.3-27.5,9.7-42.4,1.5-6.8,2.5-8.5,8.5-12,8.4-4.8,14.7-8.4,23.7-13.6,5.6-3.2,6.7-3,6.7,3.9v34.6a27.3041,27.3041,0,0,0-16.4,8.3l-3-2.1a1.44537,1.44537,0,0,1-.7-1,4.87065,4.87065,0,0,0-1.6-2.4,3.27185,3.27185,0,0,0-4.1,5.1,3.46488,3.46488,0,0,0,1.6.8c.4.1.8.1,1.2.2a2.4708,2.4708,0,0,1,.9.4l2.8,2.5a27.37853,27.37853,0,0,0-4.7,15.4c0,1,.1,2,.2,3l-6.1,1.3a6.15092,6.15092,0,0,0-1.3.1l-.9.3c-4,.8-8,1.7-12.1,2.6-5.5,1.4-5.6.3-4.4-5m55.7-12.8v-9.8a21.02786,21.02786,0,0,1,10.7,5.4l-7.7,5.5c-.1.1-.2.2-.3.2a16.93837,16.93837,0,0,0-2.7-1.3m17.2,11.6-9.6-2.2a9.46887,9.46887,0,0,0-.8-3c.1-.1.2-.2.3-.2l7.1-6.3a20.89419,20.89419,0,0,1,3.1,10.9,1.94943,1.94943,0,0,0-.1.8m-12.5-52.9c5.2,2.5,8.9,4.3,14.1,6.8,7.2,3.5,14.4,7,21.7,10.4,1.8,7.8,3.6,15.6,5.3,23.4,1.1,4.7,1.6,7.2,2.7,11.8,1.7,7.3,1.5,7.9-6,6.2l-18.5-4.2a19.26681,19.26681,0,0,0,.1-2.4,26.80631,26.80631,0,0,0-4.8-15.5l2.6-2.4a2.21973,2.21973,0,0,1,1.1-.5,5.2339,5.2339,0,0,0,2.7-1,3.27185,3.27185,0,0,0-4.1-5.1,4.07135,4.07135,0,0,0-1.2,1.4c-.2.4-.3.7-.5,1.1a1.55513,1.55513,0,0,1-.6.8l-3,2.1a27.3041,27.3041,0,0,0-16.4-8.3V31.92c.1-5,.6-5.6,4.8-3.5m-6.3,63a11.07591,11.07591,0,0,1-1.9.2,10.8687,10.8687,0,0,1-1.8-.1l-.3.6-4.4,8.1a20.76492,20.76492,0,0,0,6.6,1.1,21.86925,21.86925,0,0,0,6.7-1.1l-4.4-8a4.45256,4.45256,0,0,1-.5-.8m7.7-5.4,9.6,2.2a20.74272,20.74272,0,0,1-7.8,9.5l-3.8-9.2a9.57874,9.57874,0,0,0,2-2.5m-28.8,2.2,9.6-2.2a13.2904,13.2904,0,0,0,2.1,2.6l-.3.6-3.5,8.5a19.786,19.786,0,0,1-7.9-9.5m78.5,16.8c-4.6,5.7-6.7,8.4-11.3,14.1-5.2,6.5-9.4,11.8-14.6,18.3-3.7,4.7-6.4,4.8-12.5,4.8h-42c-8,0-8.6,0-13.5-6.2-4.9-6.1-8.7-10.9-13.5-17-3.8-4.8-4.8-6-8.6-10.8-5.9-7.4-6.9-10.1,2.3-12.1l28.4-6.4a28.08143,28.08143,0,0,0,11.9,14.4l-1.3,3a1.7646,1.7646,0,0,1-.8.9,4.53513,4.53513,0,0,0-2,2.1,3.2871,3.2871,0,1,0,5.9,2.9,5.3403,5.3403,0,0,0,.5-1.8,4.86852,4.86852,0,0,0-.1-1.2,1.803,1.803,0,0,1,.2-1l1.6-2.9a27.9736,27.9736,0,0,0,9.9,1.8,26.5201,26.5201,0,0,0,10-1.9l1.6,2.9a1.63655,1.63655,0,0,1,.2,1.2,4.49913,4.49913,0,0,0,.4,2.8,3.2871,3.2871,0,1,0,5.9-2.9,4.17681,4.17681,0,0,0-1.1-1.5,6.07028,6.07028,0,0,0-1-.7,1.242,1.242,0,0,1-.6-.8l-1.3-3.2a27.42739,27.42739,0,0,0,11.8-14.4l31.3,7.1c6.3,1.8,5.9,4,2.3,8.5" class="cls-4"/><path d="M120.82,69.72v-9.8a21.02787,21.02787,0,0,1,10.7,5.4l-7.7,5.5c-.1.1-.2.2-.3.2a16.93837,16.93837,0,0,0-2.7-1.3m17.2,11.6-9.6-2.2a9.46887,9.46887,0,0,0-.8-3c.1-.1.2-.2.3-.2l7.1-6.3a20.89419,20.89419,0,0,1,3.1,10.9,1.94943,1.94943,0,0,0-.1.8m-12.5-52.9c5.2,2.5,8.9,4.3,14.1,6.8,7.2,3.5,14.4,7,21.7,10.4,1.8,7.8,3.6,15.6,5.3,23.4,1.1,4.7,1.6,7.2,2.7,11.8,1.7,7.3,1.5,7.9-6,6.2l-18.5-4.2a19.26681,19.26681,0,0,0,.1-2.4,26.80631,26.80631,0,0,0-4.8-15.5l2.6-2.4a2.21973,2.21973,0,0,1,1.1-.5,5.2339,5.2339,0,0,0,2.7-1,3.27185,3.27185,0,0,0-4.1-5.1,4.07135,4.07135,0,0,0-1.2,1.4c-.2.4-.3.7-.5,1.1a1.55513,1.55513,0,0,1-.6.8l-3,2.1a27.3041,27.3041,0,0,0-16.4-8.3V31.92c.1-5,.6-5.6,4.8-3.5m1.4,57.6,9.6,2.2a20.74271,20.74271,0,0,1-7.8,9.5l-3.8-9.2a9.57874,9.57874,0,0,0,2-2.5m-9.6,15.1v-9.6a12.25233,12.25233,0,0,0,1.9-.2,2.50649,2.50649,0,0,0,.4.7l4.4,8a19.60952,19.60952,0,0,1-6.7,1.1m59.3,3.9c-4.6,5.7-6.7,8.4-11.3,14.1-5.2,6.5-9.4,11.8-14.6,18.3-3.7,4.7-6.4,4.8-12.5,4.8h-20.9v-34.2a26.5201,26.5201,0,0,0,10-1.9l1.6,2.9a1.6366,1.6366,0,0,1,.2,1.2,4.49913,4.49913,0,0,0,.4,2.8,3.2871,3.2871,0,0,0,5.9-2.9,4.17683,4.17683,0,0,0-1.1-1.5,6.06986,6.06986,0,0,0-1-.7,1.242,1.242,0,0,1-.6-.8l-1.3-3.2a27.42727,27.42727,0,0,0,11.8-14.4l31.3,7.1c6.1,1.7,5.7,3.9,2.1,8.4" class="cls-4"/><path d="M408.62,103.82h-16.6v38.8h38.8v-16.6h-22.2Zm83.1.2v22h-22l-.1-.1v16.7h38.8v-38.8h-16.8Zm-99.7-38.9h16.7l-.1-.2v-22h22.1l.1.1V26.32h-38.8Zm77.6-38.8v16.6h22.1v22.2h16.7V26.32Z" class="cls-1"/><path d="M467.52,65.12l-22.2-22.2h24.3V26.32h-38.8v16.7l22,22.1Zm-20,38.7h-14.7l18.4,18.4,3.8,3.8h-24.2v16.6h38.8v-16.7l-11.1-11Zm44.2-38.7v24.2l-3.8-3.8-18.3-18.4v14.7l11,11,11,11h16.8V65.12Zm-60.9,22-22.1-22h-16.7v38.7h16.6V79.62l22.2,22.2Z" class="cls-5"/><path d="M310.92,184.92l-4.2,5a9.83075,9.83075,0,0,0-7.2-3.7,8.03081,8.03081,0,0,0-8,8.3c0,4.8,3.4,8.4,8,8.4a10.57477,10.57477,0,0,0,7.2-3.4l4.3,4.5a17.50843,17.50843,0,0,1-11.8,5.2c-8.6,0-15-6.3-15-14.7,0-8.3,6.6-14.5,15.3-14.5a17.41893,17.41893,0,0,1,11.4,4.9Zm3.5,24.1v-30.3h7.1v30.3Zm35.1-11.1c0,6.8-4.8,11.3-12,11.3s-12.1-4.5-12.1-11.3,4.8-11.2,12.1-11.2C344.72,186.72,349.52,191.22,349.52,197.92Zm-16.9.1c0,3.4,2,5.7,4.9,5.7s4.9-2.3,4.9-5.7-2-5.7-4.9-5.7S332.62,194.62,332.62,198.02Zm42.2,11h-7.1v-3.7a7.79643,7.79643,0,0,1-7.2,3.9c-4.8,0-7.9-3.3-7.9-8.4v-13.9h7.1v11.9c0,2.6,1.4,4.2,3.7,4.2,2.7,0,4.3-2.2,4.3-5.2v-10.9h7.1Zm27.8,0h-7.1v-2.9a8.15186,8.15186,0,0,1-6.6,3.2c-6.2,0-10.3-4.6-10.3-11.4,0-6.7,4-11.2,10.1-11.2a8.12753,8.12753,0,0,1,6.8,3.2v-11.2h7.1v30.3Zm-7-11c0-3.4-2-5.7-4.9-5.7s-4.9,2.3-4.9,5.7,2,5.8,4.9,5.8S395.62,201.42,395.62,198.02Z" class="cls-1"/><path d="M428.52,209.02l-13.2-17.6v17.6h-6.8v-28.6h6.4l13.2,17.7v-17.7h6.8v28.6h-6.4Zm31.6-14.4v14.4h-6.9v-2.5c-1.4,1.9-3.8,2.9-6.7,2.9-4.7,0-7.6-2.9-7.6-6.9,0-4.2,3-6.6,8.5-6.7h5.8v-.3c0-2.2-1.4-3.5-4.3-3.5a16.83678,16.83678,0,0,0-6.6,1.8l-2-4.7a22.92146,22.92146,0,0,1,10.2-2.5C456.62,186.62,460.12,189.62,460.12,194.62Zm-6.9,6.9v-2h-4.5c-2.1,0-3.2.7-3.2,2.4,0,1.6,1.1,2.6,3.1,2.6C450.92,204.52,452.72,203.32,453.22,201.52Zm26,6.3a12.58373,12.58373,0,0,1-5.9,1.5c-4.3,0-7.3-2.4-7.3-7v-9.7h-3.1v-4.6h3.1v-6.1h7v6.1h5.8v4.7h-5.8v8.6c0,1.7.7,2.5,2,2.4a8.28258,8.28258,0,0,0,2.7-.7l1.5,4.8Zm10.8-27.2a3.65445,3.65445,0,0,1-3.7,3.8,3.75033,3.75033,0,0,1,0-7.5A3.51679,3.51679,0,0,1,490.02,180.62Zm-7.2,28.4v-22h7v22Zm17.9,0-8.3-22h7.3l4.7,15.6,4.8-15.6h7l-8.3,22Zm38.9-9.1h-15.5a5.14479,5.14479,0,0,0,5.2,4.1,7.85682,7.85682,0,0,0,5.3-2.2l3.7,3.6a12.4865,12.4865,0,0,1-9.6,3.9c-7.2,0-11.7-4.5-11.7-11.2,0-6.8,4.7-11.3,11.5-11.3,7.7-.1,11.6,5,11.1,13.1Zm-6.8-3.8a4.14947,4.14947,0,0,0-4.3-4.5c-2.5,0-4.1,1.8-4.6,4.5h8.9Z" class="cls-1"/><path d="M568.42,184.92l-4.2,5a9.83081,9.83081,0,0,0-7.2-3.7,8.03081,8.03081,0,0,0-8,8.3c0,4.8,3.4,8.4,8,8.4a10.57471,10.57471,0,0,0,7.2-3.4l4.3,4.5a17.50831,17.50831,0,0,1-11.8,5.2c-8.6,0-15-6.3-15-14.7,0-8.3,6.6-14.5,15.3-14.5A17.21053,17.21053,0,0,1,568.42,184.92Zm24.8,13c0,6.8-4.8,11.3-12,11.3s-12.1-4.5-12.1-11.3,4.8-11.2,12.1-11.2C588.31994,186.72,593.22,191.22,593.22,197.92Zm-17,.1c0,3.4,2,5.7,4.9,5.7s4.9-2.3,4.9-5.7-2-5.7-4.9-5.7S576.22,194.62,576.22,198.02Zm43.3-2.9v13.9h-7v-11.9c0-2.6-1.5-4.2-3.9-4.2-2.6,0-4.2,1.8-4.5,4.5v11.7h-7.1v-22h7.1v3.6a8.11676,8.11676,0,0,1,7.4-3.9c4.8-.2,8,3.1,8,8.3Z" class="cls-1"/><path id="SVGID-3" d="M246.42,13.32h1v203.5h-1Z" class="cls-1" data-name="SVGID"/><rect width="1" height="203.5" x="246.42" y="13.32" class="cls-1"/><g class="cls-6"><path d="M246.42,13.32h1v203.5h-1Z" class="cls-1"/></g><path d="M242.62,265.52h-12.8v-22.2h12.8v3.9h-8.1v4.9h7.5v3.9h-7.5v5.7h8.1v3.8Zm16.3,0-.6-2.2h-.2a4.62629,4.62629,0,0,1-2.1,1.8,7.45484,7.45484,0,0,1-3.1.6,5.76016,5.76016,0,0,1-4.5-1.6,6.5339,6.5339,0,0,1-1.5-4.6v-11.1h4.6v9.9a4.65419,4.65419,0,0,0,.7,2.8,2.33566,2.33566,0,0,0,2.1.9,3.05783,3.05783,0,0,0,2.8-1.3,7.86731,7.86731,0,0,0,.9-4.3v-8h4.6v17h-3.7Zm17.9-17.3a8.08221,8.08221,0,0,1,1.6.1l-.3,4.3a5.21189,5.21189,0,0,0-1.4-.2,5.42433,5.42433,0,0,0-3.5,1.1,4.22259,4.22259,0,0,0-1.2,3.2v8.6h-4.7v-17h3.5l.7,2.9h.2a5.82762,5.82762,0,0,1,2.1-2.3,5.14022,5.14022,0,0,1,3-.7Zm20.1,8.8a8.99085,8.99085,0,0,1-2.2,6.5,7.84856,7.84856,0,0,1-6.1,2.3,8.58294,8.58294,0,0,1-4.3-1.1,7.2742,7.2742,0,0,1-2.9-3.1,9.87876,9.87876,0,0,1-1-4.7,8.99088,8.99088,0,0,1,2.2-6.5,8.06388,8.06388,0,0,1,6.1-2.3,8.58284,8.58284,0,0,1,4.3,1.1,7.2742,7.2742,0,0,1,2.9,3.1,11.592,11.592,0,0,1,1,4.7Zm-11.8,0a7.41464,7.41464,0,0,0,.8,3.8,3.45387,3.45387,0,0,0,5.4,0,6.7221,6.7221,0,0,0,.8-3.8,7.67951,7.67951,0,0,0-.8-3.8,3.45387,3.45387,0,0,0-5.4,0A7.67948,7.67948,0,0,0,285.12,257.02Zm24.9,8.9a5.482,5.482,0,0,1-4.7-2.2h-.2a16.727,16.727,0,0,1,.2,2.5v6.9h-4.6v-24.5h3.8l.7,2.2h.2a5.32526,5.32526,0,0,1,4.8-2.5,5.56115,5.56115,0,0,1,4.7,2.3,11.15494,11.15494,0,0,1,1.7,6.5,13.19017,13.19017,0,0,1-.8,4.7,6.67756,6.67756,0,0,1-2.3,3.1,6.81829,6.81829,0,0,1-3.5,1Zm-1.3-13.9a2.97012,2.97012,0,0,0-2.5,1.1,6.22114,6.22114,0,0,0-.8,3.5v.5a7.57557,7.57557,0,0,0,.8,3.9,2.85732,2.85732,0,0,0,2.6,1.2c2.1,0,3.1-1.7,3.1-5.1a7.67952,7.67952,0,0,0-.8-3.8,2.6052,2.6052,0,0,0-2.4-1.3Zm19.4,13.9a8.78652,8.78652,0,0,1-6.4-2.3,8.627,8.627,0,0,1-2.3-6.4,9.68237,9.68237,0,0,1,2.1-6.6,7.40807,7.40807,0,0,1,5.9-2.3,7.31471,7.31471,0,0,1,5.6,2.1,8.07089,8.07089,0,0,1,2,5.7v2.2h-11a4.5669,4.5669,0,0,0,1.2,3.1,4.33131,4.33131,0,0,0,3.1,1.1,13.57535,13.57535,0,0,0,2.9-.3,20.04459,20.04459,0,0,0,2.9-1v3.6a11.42357,11.42357,0,0,1-2.6.9,32.80779,32.80779,0,0,1-3.4.2Zm-.7-14.4a2.86924,2.86924,0,0,0-2.3.9,4.16774,4.16774,0,0,0-1,2.7h6.5a4.00228,4.00228,0,0,0-.9-2.7,3.23864,3.23864,0,0,0-2.3-.9Z" class="cls-1"/><path d="M360.332,265.3623H344.91211v-3.24414l5.53711-5.59765q2.45947-2.51953,3.21387-3.49219a7.66442,7.66442,0,0,0,1.08593-1.80371,4.57823,4.57823,0,0,0,.332-1.71973,2.50876,2.50876,0,0,0-.73144-1.97656,2.83862,2.83862,0,0,0-1.9541-.64844,5.62779,5.62779,0,0,0-2.48926.58789,12.88415,12.88415,0,0,0-2.51953,1.67481l-2.53516-3.002a16.51069,16.51069,0,0,1,2.70117-1.96191,9.96052,9.96052,0,0,1,2.33789-.88281,12.00109,12.00109,0,0,1,2.83692-.3086,8.401,8.401,0,0,1,3.65137.75391,5.82471,5.82471,0,0,1,2.459,2.11231,5.61485,5.61485,0,0,1,.875,3.10839,7.62357,7.62357,0,0,1-.53516,2.85938,10.98217,10.98217,0,0,1-1.66015,2.73828,40.4863,40.4863,0,0,1-3.96,3.998l-2.83692,2.6709v.21093H360.332Z" class="cls-1"/><path d="M377.84863,254.333q0,5.77881-1.89355,8.55469a6.57082,6.57082,0,0,1-5.83106,2.77636,6.49349,6.49349,0,0,1-5.75586-2.86621q-1.93944-2.86669-1.93945-8.46484,0-5.83887,1.88672-8.60742a7.3337,7.3337,0,0,1,11.5791.12793Q377.84864,248.751,377.84863,254.333Zm-10.78808,0a17.15644,17.15644,0,0,0,.70215,5.8164,2.42982,2.42982,0,0,0,2.36132,1.75782,2.45465,2.45465,0,0,0,2.35352-1.78028,23.55211,23.55211,0,0,0-.00781-11.625,2.44321,2.44321,0,0,0-4.69922,0A17.1,17.1,0,0,0,367.06055,254.333Z" class="cls-1"/><path d="M395.60742,265.3623H380.1875v-3.24414l5.53711-5.59765q2.45947-2.51953,3.21387-3.49219a7.66442,7.66442,0,0,0,1.08593-1.80371,4.57824,4.57824,0,0,0,.332-1.71973,2.50877,2.50877,0,0,0-.73145-1.97656,2.83862,2.83862,0,0,0-1.9541-.64844,5.62779,5.62779,0,0,0-2.48926.58789,12.88415,12.88415,0,0,0-2.51953,1.67481l-2.53516-3.002a16.51069,16.51069,0,0,1,2.70117-1.96191,9.96043,9.96043,0,0,1,2.3379-.88281,12.001,12.001,0,0,1,2.83691-.3086,8.401,8.401,0,0,1,3.65137.75391,5.82471,5.82471,0,0,1,2.459,2.11231,5.61485,5.61485,0,0,1,.875,3.10839,7.62357,7.62357,0,0,1-.53516,2.85938,10.98217,10.98217,0,0,1-1.66015,2.73828,40.48514,40.48514,0,0,1-3.96,3.998l-2.83692,2.6709v.21093h9.61133Z" class="cls-1"/><path d="M413.124,254.333q0,5.77881-1.89355,8.55469a6.57082,6.57082,0,0,1-5.83106,2.77636,6.49349,6.49349,0,0,1-5.75586-2.86621q-1.93944-2.86669-1.93945-8.46484,0-5.83887,1.88672-8.60742a7.3337,7.3337,0,0,1,11.5791.12793Q413.124,248.751,413.124,254.333Zm-10.78808,0a17.15644,17.15644,0,0,0,.70215,5.8164,2.42982,2.42982,0,0,0,2.36132,1.75782,2.45465,2.45465,0,0,0,2.35352-1.78028,23.55211,23.55211,0,0,0-.00781-11.625,2.44321,2.44321,0,0,0-4.69922,0A17.1,17.1,0,0,0,402.33594,254.333Z" class="cls-1"/></svg>