<svg xmlns="http://www.w3.org/2000/svg" xmlns:xlink="http://www.w3.org/1999/xlink" id="Layer_1" data-name="Layer 1" viewBox="0 0 2400 703"><defs><style>.cls-1,.cls-29,.cls-30,.cls-31{fill:none}.cls-2,.cls-24,.cls-25{fill:#f70f47}.cls-3{fill:#fbf9fa}.cls-4{clip-path:url(#clip-path)}.cls-5{fill:#f43737}.cls-6{fill:#f85423}.cls-7{fill:#fc7038}.cls-8{fill:#ff8a50}.cls-9{fill:#f9a262}.cls-10{fill:#2aabb0}.cls-11{fill:#09a081}.cls-12{fill:#fad03d}.cls-13{fill:#0e6155}.cls-14{fill:#0b6861}.cls-15{fill:#fbcf3b}.cls-16{fill:#51bbb9}.cls-17{fill:#7bc2a8}.cls-18{fill:#a6c995}.cls-19{fill:#d3d082}.cls-20{fill:#fbd76f}.cls-21,.cls-25{opacity:.8}.cls-22{clip-path:url(#clip-path-2)}.cls-23{clip-path:url(#clip-path-3)}.cls-24{fill-rule:evenodd}.cls-25{isolation:isolate}.cls-26{clip-path:url(#clip-path-4)}.cls-27{clip-path:url(#clip-path-5)}.cls-28{fill:#3cc}.cls-29{stroke:#f55b2f}.cls-29,.cls-30,.cls-31{stroke-linecap:round;stroke-linejoin:round;stroke-width:0}.cls-30{stroke:#fad03d}.cls-31{stroke:#fbf9fa}</style><clipPath id="clip-path"><path d="M1907.199,117.48559c6.20389,8.65932,14.33843,16.51964,18.25732,26.10706,7.52949,18.42084,13.61216,37.58615,14.61473,57.82476-1.11112,5.84726-5.71709,9.92426-7.829,15.21177-3.14174,7.86589-8.1542,9.21735-15.33368,5.5444-23.82152-12.1868,15.35956-23.95,6.09166,9.82642-3.20153,11.66832,1-8,1,6,0,20.52875,14.96173-8.90788,6,17-.01914,5.86781-15.94344,26.76276-19.25451,30.736a159.06622,159.06622,0,0,1-37.68028,32.40578c-2.30322-.91712-4.79853-1.52112-6.88075-2.7986a772.42155,772.42155,0,0,0-87.79105-46.78294C1746.00373,254.03389,1717.73447,259.74883,1684,249c-12-19-7.37967-63.81537-3.00209-87.192,10.1734-23.66311,24.3687-44.52074,43.30024-62.07462,17.6559-11.10424,35.5266-21.06127,56.47285-25.64562,36.31648-7.94832,68.65587.56275,99.62652,19.152" class="cls-1"/></clipPath><clipPath id="clip-path-2"><rect width="181.029" height="1.431" x="776.278" y="422.17" class="cls-2"/></clipPath><clipPath id="clip-path-3"><rect width="181.028" height="1.431" x="75.204" y="422.17" class="cls-2"/></clipPath><clipPath id="clip-path-4"><rect width="1.431" height="291.22" x="410.071" y="76.141" class="cls-2"/></clipPath><clipPath id="clip-path-5"><rect width="271.317" height="142.741" x="1374.392" y="396.468" class="cls-1"/></clipPath></defs><title>KubeCon_NA_2019_bg</title><path d="M1469,173.15994c.14951-4.05692,11.52481-35.85683,13.10464-39.59649C1506,77,1619.29741,40.5684,1670.41453,97.24458a100.8269,100.8269,0,0,1,15.12031,22.27727c2.65769,5.28121,5.6755,5.94983,10.63555,3.75042,9.1475-4.05627,24.56988-6.02419,34.61428-4.78866-16.742,15.81-33.1902,34.59546-42.19018,55.90878" class="cls-3"/><g class="cls-4"><rect width="283.245" height="36.173" x="1660.12" y="68.679" class="cls-2"/><rect width="283.245" height="39.221" x="1660.12" y="102.935" class="cls-5"/><rect width="283.245" height="36.173" x="1660.12" y="141.76" class="cls-6"/><rect width="283.245" height="36.173" x="1660.12" y="177.537" class="cls-7"/><rect width="283.245" height="36.173" x="1660.12" y="213.315" class="cls-8"/><rect width="283.245" height="36.173" x="1660.12" y="244.225" class="cls-9"/><rect width="283.245" height="36.173" x="1660.12" y="278.307" class="cls-9"/></g><path d="M2071.49577,246.15961s-7.51246-28.10927-18.78436-42.80787c-2.112-2.754-25.6458-24.94483-28.62694-26.51315-27.51424-14.47461-55.40153-15.51-84.0188-3.0903-14.53262,6.3067-25.08664,17.95407-37.19971,27.53519-.96846,5.33422-4.98252,9.05338-6.82276,13.87677-2.73781,7.17567-7.10638,8.40841-13.36354,5.05786-20.76-11.11721-53.16085,2.20765-61.23811,33.01967-2.78937,10.64426-1.81366,12.29315,8.55182,12.30846q26.835.03867,53.67007.04109,90.19417-.01572,180.39239-.08863c3.22768-.00484,7.29249,1.39549,9.15127-2.92514C2074.79435,258.88219,2073.8839,256.00258,2071.49577,246.15961Z" class="cls-3"/><path d="M2094.39948,118.57034q-64.35567-.10972-128.71147-.21912c-6.55634-2.92688-3.44172-7.956-2.07476-11.93594,5.24864-15.28168,20.08773-24.3172,36.88194-20.51052,9.459,2.144,13.89017-.69137,19.18322-7.76747,30.80086-41.17724,90.171-37.76709,116.54051,6.28612,6.03186,10.07695,6.808,21.72142,10.32558,32.547a.52651.52651,0,0,1-.14709.03709c-10.23709,2.2-20.59743,1.68486-30.94241,1.48861" class="cls-3"/><path d="M2233.54117-263l-34.06677,34.06678s-27.57787,118.4226-25.95564,152.48938,32.44455,107.067,32.44455,107.067l63.514,28.51374,67.88642-119.35848,11.85858-161.56609Z" class="cls-1"/><path d="M2333.25207,172.30228q1.03929.50527,2.07735,1.00991" class="cls-3"/><polygon points="1834.707 401.22 1834.707 461.288 1884.001 461.288 1888.114 396.4 1834.707 401.22" class="cls-10"/><path d="M2033.69115,481.193s139.45545-91.81566,297.43585-119.1154c313.39673-54.15639,581.28225,170.40848,581.28225,170.40848L2770.16059,548H2026.37184Z" class="cls-11"/><path d="M2151.22853,545.22613s-126.21574-230.97024-443.73419-296.21758C1404.90981,186.83,1024.42346,295.16989,967.0619,588.37184c-16.97154,86.74954,326.4126,6.58424,326.4126,6.58424H2175Z" class="cls-10"/><polygon points="2231.836 563.931 2214.891 581.417 2214.891 255.022 2231.836 255.022 2231.836 563.931" class="cls-12"/><path d="M2192.1223,150.99c2.17886-2.67486,3.4972-5.817,4.95182-9.02241,1.17343,1.46,2.36154,2.79471,3.38561,4.24512,1.67076,2.36641,3.18029,4.84717,4.86688,7.20155a3.65907,3.65907,0,0,1,.37674,3.39363c-.80255,3.11549-2.31244,5.97827-3.298,9.34876a35.69858,35.69858,0,0,0,5.68571-7.7989c2.37631,4.04371,3.80465,8.32614,5.84035,12.29323,2.91806,5.68666.36063,10.32153-2.024,15.14528-.988,1.99855-2.51232,3.70825-3.145,5.91935,3.82289-2.17141,6.28836-5.57773,8.56277-9.20749.58993.46561.52021,1.17908.6612,1.78322,1.64927,7.06722,2.1482,14.29756,3.15884,21.45389.60024,4.25031-1.14732,6.535-3.96553,8.82052a20.13854,20.13854,0,0,0-4.1038,3.60178,21.189,21.189,0,0,0,8.28539-4.41085c.22658,4.2665.08213,8.29291-.07831,12.31206-.31,7.76687-.65009,15.53289-1.50793,23.26767-.14346,1.29353-.45452,1.18514-1.33732.62246a140.03444,140.03444,0,0,1-20.18184-15.13867,90.82179,90.82179,0,0,1-11.83275-13.25648,5.80911,5.80911,0,0,1-.36777-.78652c3.88.36339,7.59725.67724,11.2995-.13561-2.73357-.44831-5.41618-1.05137-8.10236-1.66-3.79972-.86086-6.68063-2.47789-8.40306-6.34768a121.59544,121.59544,0,0,1-7.2422-20.00215c-.02065-.08291.0557-.18991.14122-.45347,4.55448,1.90588,9.21058,3.39837,14.6213,3.33654-5.3406-1.47457-10.09852-3.2632-14.2478-6.41845a4.19481,4.19481,0,0,1-1.80774-2.89962,100.39633,100.39633,0,0,1-1.44187-16.48881,1.06194,1.06194,0,0,1,.30218-.99865c3.09186,2.42969,6.35414,4.54614,10.46279,4.86a50.24685,50.24685,0,0,1-7.5054-5.68789,8.41573,8.41573,0,0,1-3.00456-8.01191c.63288-5.42629,1.915-10.705,2.76649-16.54787a77.74759,77.74759,0,0,0,8.2179,8.72255,60.24891,60.24891,0,0,1-6.32628-11.61864,3.8568,3.8568,0,0,1-.09386-2.85633c1.448-4.01284,2.91194-8.02042,4.29924-12.05432.3683-1.07091.69266-.96747,1.4098-.31346,4.21107,3.84013,8.14606,7.94937,11.99481,12.14629a3.0357,3.0357,0,0,1,.8298,2.37289A44.50781,44.50781,0,0,1,2192.1223,150.99Z" class="cls-11"/><path d="M2115.23573,228.129c-1.18512-1.68154-3.21473-2.12774-5.09752-3.25711,5.56636-2.97011,11.1483-5.282,17.06617-6.058,2.75036-.36067,5.25291,2.03353,7.29513,4.136.22858.23527.26906.6608.66621.74774a1.51207,1.51207,0,0,0,.45089-.05649,11.76448,11.76448,0,0,0-2.31565-4.796c-.66726-.76877-.73016-1.15784.48149-1.25242a78.9355,78.9355,0,0,1,17.91956.48491c1.78258.26746,2.60351,1.83145,3.684,2.98905a35.00011,35.00011,0,0,0,2.42336,2.80071c-.34-1.53665-.68-3.0733-1.06348-4.80609a74.62551,74.62551,0,0,1,18.094,6.02662c2.10663,1.02524,2.14476,3.50573,2.84468,5.4562.169.47095-.251,1.26531.60221,1.31493.9222.05367.53468-.794.60769-1.23565.48751-2.94977.53538-3.09226,3.31062-1.78869a60.29975,60.29975,0,0,1,9.477,5.94212,100.33546,100.33546,0,0,1,14.39633,12.69406c.83439.88731.95094,1.32067-.26406,1.74706-8.70018,3.0532-17.2938,6.49861-26.592,7.38537a75.00107,75.00107,0,0,1-10.6163.33953c2.2111-2.65977,3.55221-5.40408,5.563-8.28992-2.72112,1.07-4.25248,2.91756-5.85346,4.58092-2.56217,2.662-5.32982,4.04855-9.18145,3.17622-4.21362-.95431-8.55772-1.31773-13.03576-2.54829a39.9988,39.9988,0,0,0,6.46676-9.20086,1.68432,1.68432,0,0,0-1.60421.72443c-2.38714,2.54623-5.38572,4.234-8.37235,5.9336a5.58749,5.58749,0,0,1-3.97422.58454c-5.17828-.951-10.163-2.60967-15.61682-3.80051a19.42762,19.42762,0,0,0,4.448-5.93653c-1.93707,1.18995-3.76057,2.52-5.78964,3.53064a8.8534,8.8534,0,0,1-6.27965.84891,85.765,85.765,0,0,0-13.97362-1.70706c1.05309-2.87523,3.23865-4.699,5.44491-7.19713a9.55439,9.55439,0,0,0-4.88812,3.04825c-2.77914,3.46057-6.269,4.75847-10.5945,4.72257-2.0692-.01719-4.14413.65445-6.56058,1.07384a71.2901,71.2901,0,0,1,6.5805-6.92606,118.17791,118.17791,0,0,1,11.00175-9.88525,9.049,9.049,0,0,1,6.47732-1.90773,26.72552,26.72552,0,0,1,6.25457.92087q.3524.05749.70491.11625A.67772.67772,0,0,0,2115.23573,228.129Z" class="cls-13"/><path d="M2190.64213,330.27531a34.5139,34.5139,0,0,0-6.594,4.3213c-.0697-1.35432-.19986-2.63066-.18758-3.92908.02007-2.11842.18041-4.25893.18637-6.37465a3.25478,3.25478,0,0,1,1.19118-2.36817c1.75465-1.79315,3.81162-3.18462,5.77744-5.0856a29.59273,29.59273,0,0,0-6.50885,3.26913c.30986-3.46116,1.26445-6.76566,1.73859-10.06318.67967-4.72687,4.07492-6.94222,7.44905-9.33975,1.398-.99333,2.98482-1.61782,4.26641-2.86952-3.10159.16723-5.93417,1.601-8.74947,3.24587-.14641-.50345.18976-.95194.35926-1.398,1.98287-5.21855,4.6956-10.16334,7.08307-15.229,1.418-3.00858,3.37189-3.93908,5.94249-4.515a15.13037,15.13037,0,0,0,3.85679-1.01954,14.25048,14.25048,0,0,0-6.59962.16728c1.63979-2.89535,3.39354-5.50891,5.15349-8.11237,3.401-5.0311,6.819-10.05169,10.52206-14.87987.61929-.80744.75337-.63261,1.0281.03215a90.73915,90.73915,0,0,1,5.33651,16.70122,64.82981,64.82981,0,0,1,1.31129,12.68762,4.736,4.736,0,0,1-.11463.64188,20.65187,20.65187,0,0,0-6.56085-3.65848c1.38758,1.20308,2.68161,2.49154,3.97541,3.78485a7.06153,7.06153,0,0,1,2.20352,6.98321,102.84562,102.84562,0,0,1-4.13013,15.62383c-.02251.06165-.11086.107-.26945.2529a20.41157,20.41157,0,0,0-7.03241-7.05547,24.14055,24.14055,0,0,1,5.53869,8.96874,3.23579,3.23579,0,0,1-.16246,2.5163,91.00467,91.00467,0,0,1-6.01137,11.37747c-.13188.20671-.22018.46069-.5883.55988-.77173-2.63163-1.77153-5.11274-4.00646-6.68307a32.63352,32.63352,0,0,1,1.96053,6.24932,6.9891,6.9891,0,0,1-1.59465,6.29256c-2.61575,3.37687-5.544,6.44088-8.45843,10.02056a54.75694,54.75694,0,0,0-1.11157-8.49159,47.97994,47.97994,0,0,1-1.179,9.77846,3.49151,3.49151,0,0,1-1.13109,1.91918c-2.49854,2.17219-5.004,4.33563-7.47635,6.54188-.65635.58571-.80014.40975-.94161-.26044-.8308-3.93519-1.391-7.95668-1.86521-12.00753a2.55364,2.55364,0,0,1,.50686-1.84375A40.92738,40.92738,0,0,1,2190.64213,330.27531Z" class="cls-13"/><path d="M2139.6344,280.89379c2.31611-2.10614,4.918-3.62572,7.23068-5.49886,3.31516-2.68506,6.69315-1.6492,10.17085-.7521,1.44087.37169,2.7665,1.1333,4.29754,1.24374-1.942-2.1999-4.50489-3.344-7.18753-4.33259.22337-.44914.699-.50131,1.07434-.67615,4.39078-2.0453,9.04566-3.36148,13.58212-5.00179,2.69431-.97422,4.42612-.14553,6.30512,1.38244a13.44143,13.44143,0,0,0,2.91491,2.18752,14.14262,14.14262,0,0,0-4.01614-4.80833c2.75606-.73235,5.4061-1.18943,8.05358-1.63508,5.11617-.8612,10.2359-1.70268,15.40613-2.20163.86465-.08344.83644.1346.58978.78835a93.46607,93.46607,0,0,1-7.12528,15.25715,60.61819,60.61819,0,0,1-7.03921,9.54532,3.877,3.877,0,0,1-.46342.348,24.25634,24.25634,0,0,0-1.63615-7.36283c.08153,1.84711.055,3.68211.02532,5.52021-.042,2.60007-.70372,4.70349-2.99576,6.35867a81.16018,81.16018,0,0,1-12.07453,7.47042c-.05133.02484-.13169-.01038-.31557-.03015a23.98305,23.98305,0,0,0,.17709-10.00834,27.11673,27.11673,0,0,1-2.24151,10.18644,2.79976,2.79976,0,0,1-1.64659,1.578,67.00953,67.00953,0,0,1-10.57384,3.20018.70878.70878,0,0,1-.69375-.06063c1.16374-2.35252,2.09951-4.77347,1.74183-7.50044a33.53764,33.53764,0,0,1-2.68769,5.68191,5.61709,5.61709,0,0,1-4.82229,3.06c-3.6314.32974-7.25532.2152-11.18878.45915a51.89193,51.89193,0,0,0,4.5725-6.563,40.21308,40.21308,0,0,1-6.72344,5.72391,2.5742,2.5742,0,0,1-1.853.45251c-2.81971-.39633-5.63816-.80376-8.46331-1.15755-.75-.09392-.72686-.32-.39785-.878,1.93182-3.27683,4.07726-6.41015,6.29178-9.49915a2.02623,2.02623,0,0,1,1.43645-.86705" class="cls-11"/><path d="M2130.43638,290.33534c.793-.9665,1.50221-1.92543,2.30944-2.793,1.317-1.41553,2.73085-2.74138,4.03785-4.1656a2.44227,2.44227,0,0,1,2.1653-.71089" class="cls-11"/><path d="M2295.53226,314.07908c.287,2.03709,1.88917,3.36047,3.04892,5.22471-6.30837.102-12.33016-.38875-17.94983-2.39937-2.61179-.93444-3.74567-4.207-4.60313-7.00974-.096-.31367.06222-.71077-.25147-.96939a1.51213,1.51213,0,0,0-.427-.15554,11.76435,11.76435,0,0,0-.12867,5.32422c.24281.98857.12119,1.36346-1.00005.89458a78.93525,78.93525,0,0,1-15.72276-8.61049c-1.464-1.0516-1.48057-2.81787-1.91355-4.341a35.00154,35.00154,0,0,0-.87788-3.59805c-.39884,1.52244-.79768,3.04489-1.24741,4.76167a74.62571,74.62571,0,0,1-13.34854-13.62089c-1.40643-1.87374-.30819-4.09818-.04069-6.1531.06457-.49617.80085-1.01125.06434-1.44483-.796-.46868-.83812.46239-1.10468.82206-1.78014,2.40207-1.88776,2.507-3.76206.08044a60.30089,60.30089,0,0,1-5.72006-9.61264,100.33475,100.33475,0,0,1-7.0153-17.86558c-.33741-1.17034-.24332-1.60912,1.03236-1.43394,9.13464,1.25441,18.35348,2.11123,27.03142,5.56623a75.00059,75.00059,0,0,1,9.60092,4.54351c-3.18134,1.35734-5.6272,3.187-8.73346,4.83692,2.90953.29,5.11534-.655,7.299-1.40422,3.49475-1.19911,6.59013-1.16954,9.619,1.36463,3.31353,2.77233,7.01285,5.07848,10.43557,8.21729a39.99841,39.99841,0,0,0-9.95342,5.23492,1.68433,1.68433,0,0,0,1.758.08764c3.28615-1.176,6.72452-1.30905,10.15765-1.45807a5.58746,5.58746,0,0,1,3.80289,1.29385c4.17337,3.20967,7.85153,6.9607,12.16054,10.50954a19.4277,19.4277,0,0,0-6.66725,3.25188c2.26666-.17463,4.49621-.52575,6.76288-.49885a8.85347,8.85347,0,0,1,5.97485,2.1109,85.76321,85.76321,0,0,0,11.654,7.89686c-2.24935,2.07761-5.02642,2.70281-8.12965,3.91849a9.55434,9.55434,0,0,0,5.74056-.48112c4.05227-1.81059,7.74976-1.37254,11.58208.63372,1.83324.95973,3.986,1.3092,6.32746,2.039a71.28934,71.28934,0,0,1-9.01632,3.159,118.1785,118.1785,0,0,1-14.30084,3.774,9.049,9.049,0,0,1-6.634-1.259,26.72582,26.72582,0,0,1-5.14475-3.67413q-.28731-.212-.57414-.42518A.67772.67772,0,0,0,2295.53226,314.07908Z" class="cls-13"/><path d="M2279.30215,166.93268a34.24578,34.24578,0,0,0,8.72872-1.45623c-.36175,1.56942-.631,3.08207-1.06576,4.5455-.70931,2.38761-1.58165,4.72716-2.2744,7.11907a3.1462,3.1462,0,0,1-2.09166,2.06018c-2.53128,1.11569-5.26825,1.61915-8.06917,2.74687a30.69522,30.69522,0,0,0,8.29284-.30952c-1.46677,3.75662-3.59918,7-5.19543,10.48581-2.28818,4.99675-6.77943,5.7356-11.30631,6.69169-1.87556.39611-3.8414.27627-5.67143,1.02549,3.50073,1.42665,7.11328,1.27938,10.77508.88418-.00058.6462-.51957.97875-.8526,1.39543-3.89575,4.87437-8.51375,9.05858-12.8095,13.549-2.55134,2.667-5.02431,2.70231-8.06755,2.015a17.31586,17.31586,0,0,0-4.61631-.85529,18.219,18.219,0,0,0,7.38777,3.2491c-2.7611,2.42322-5.55746,4.46808-8.35743,6.49828-5.41084,3.9233-10.83707,7.82588-16.51771,11.36211-.95.59138-1.04231.32361-1.132-.572a120.40638,120.40638,0,0,1-.51374-21.68633,78.09133,78.09133,0,0,1,2.6575-15.04572,4.99425,4.99425,0,0,1,.33554-.6669,31.24767,31.24767,0,0,0,6.104,7.5597c-1.15172-2.08484-2.1718-4.2176-3.19005-6.35571-1.44037-3.02445-1.88112-5.83067-.1839-9.05312a104.55161,104.55161,0,0,1,9.65624-15.53453c.045-.05806.15791-.06343.38143-.14591a30.89524,30.89524,0,0,0,5.52635,11.65082c-1.84576-4.39174-3.16935-8.557-3.24605-13.03841a3.60679,3.60679,0,0,1,.99657-2.76385,86.323,86.323,0,0,1,10.36959-9.74746c.21358-.16528.39406-.40679.83529-.32728.0041,3.38112.31047,6.71067,2.28467,9.65272a43.20316,43.20316,0,0,1-.15189-8.09576,7.2361,7.2361,0,0,1,3.81266-6.29242c4.00175-2.45984,8.24928-4.4027,12.64873-6.93649a66.84855,66.84855,0,0,0-1.51865,10.19172,51.804,51.804,0,0,1,4.48122-10.45508,3.31623,3.31623,0,0,1,1.87927-1.58323c3.48083-1.15719,6.96655-2.30085,10.42929-3.51026.91928-.32107,1.022-.04695.96186.78541-.353,4.88754-1.03466,9.73179-1.82143,14.56445a2.61017,2.61017,0,0,1-1.16115,1.82306A38.269,38.269,0,0,1,2279.30215,166.93268Z" class="cls-13"/><path d="M2276.28962,248.80918c-.34212.34044-.7917.24127-1.18773.28484-4.63269.50963-9.28116.27327-13.92169.36886-2.75612.05677-4.07886-1.23272-5.32-3.205a12.93338,12.93338,0,0,0-1.98186-2.89289,13.60816,13.60816,0,0,0,2.177,5.6212c-2.73778-.18272-5.294-.58361-7.84441-.99413-4.92855-.79333-9.85424-1.60572-14.72031-2.74587-.81378-.19068-.72081-.3807-.29433-.90044a89.93229,89.93229,0,0,1,11.20046-11.70739,58.3276,58.3276,0,0,1,9.36005-6.52817,3.73006,3.73006,0,0,1,.52971-.17418,23.33913,23.33913,0,0,0-.78008,7.2152c.49548-1.70861,1.08573-3.37284,1.67978-5.03893.8403-2.35676,2.09229-4.06968,4.69184-4.87117a78.09016,78.09016,0,0,1,13.30919-3.08382c.05444-.00681.11681.05008.27831.12482a23.076,23.076,0,0,0-3.24875,9.067,26.09158,26.09158,0,0,1,5.1852-8.59247,2.69394,2.69394,0,0,1,1.98749-.93028,64.47605,64.47605,0,0,1,10.62418.34515c.2.02582.423-.00606.61359.26926-1.78634,1.7851-3.386,3.70289-3.90123,6.29858a32.26988,32.26988,0,0,1,4.2023-4.34939,5.40471,5.40471,0,0,1,5.339-1.30135c3.41138.81968,6.6789,2.042,10.3391,3.033a49.93124,49.93124,0,0,0-6.1919,4.571,38.69323,38.69323,0,0,1,7.89344-3.14275,2.47693,2.47693,0,0,1,1.82845.15921c2.44763,1.231,4.89068,2.47179,7.35638,3.66573.65459.317.56376.51584.09175.923-2.77148,2.39057-5.69339,4.58447-8.66459,6.71665a1.94958,1.94958,0,0,1-1.57664.34712,28.58349,28.58349,0,0,1-7.0243-2.20515,25.5786,25.5786,0,0,0,5.37312,3.84931c-1.02093.63624-1.96307,1.29144-2.96642,1.83318-1.637.88384-3.33455,1.65609-4.96509,2.55094a2.34992,2.34992,0,0,1-2.19274-.02c-1.925-.75064-3.63453-1.93293-5.708-2.81985a22.92665,22.92665,0,0,0,4.53671,4.22343c-2.76059,1.20507-5.6007,1.78739-8.28631,2.78116-3.84972,1.42451-6.60888-.56161-9.50173-2.452" class="cls-11"/><polygon points="1313.925 553.962 1298.679 546.104 1298.679 174.832 1313.925 182.69 1313.925 553.962" class="cls-12"/><path d="M1340.98019,63.26462c3.64937-1.35052,6.73039-3.64806,9.98006-5.929.3036,2.09079.69328,4.0682.85729,6.06408.26752,3.25633.31288,6.53138.60269,9.78508a4.12706,4.12706,0,0,1-1.57822,3.513c-2.56462,2.56714-5.67169,4.4835-8.56026,7.1935a40.26472,40.26472,0,0,0,9.99213-4.31978c-.00793,5.29015-1.07363,10.26915-1.36859,15.28971-.42284,7.19678-5.56291,10.2347-10.64329,13.55515-2.10489,1.3757-4.56539,2.16349-6.44679,3.94928,4.95821.0805,9.3051-1.8165,13.59437-4.04.30641.79035-.17008,1.4436-.37922,2.11134-2.44649,7.81118-6.10406,15.12179-9.22208,22.65367-1.85186,4.47336-4.85865,5.69189-8.90614,6.29786-1.84909.27683-3.77383.2236-6.05062,1.14829a23.89918,23.89918,0,0,0,10.57685.46131c-2.22417,4.275-4.67128,8.1042-7.12976,11.91716-4.75093,7.36844-9.53053,14.71885-14.79529,21.74227-.88047,1.17456-1.12058.891-1.65592-.1614a157.9463,157.9463,0,0,1-10.935-26.27062,102.43858,102.43858,0,0,1-3.90159-19.65867,6.55155,6.55155,0,0,1,.09329-.97486c3.56148,2.57593,6.99326,5.01051,11.05594,6.34182-2.399-2.00165-4.65985-4.12446-6.921-6.25467-3.1985-3.01328-5.07109-6.23483-4.52752-10.9814a137.14746,137.14746,0,0,1,4.42309-23.5826c.02744-.09238.16292-.1526.397-.35968,3.33309,4.461,7.00176,8.57858,12.29408,11.61836-4.344-4.49233-7.9419-8.956-10.16555-14.39867a4.73129,4.73129,0,0,1-.09513-3.85284,113.2372,113.2372,0,0,1,8.0457-16.84609c.18257-.30359.28847-.68465.86572-.79714,1.612,4.132,3.569,8.05723,7.381,10.716a56.67315,56.67315,0,0,1-4.03338-9.82608,9.49213,9.49213,0,0,1,1.671-9.50548c3.72365-4.90943,7.9935-9.30359,12.16825-14.49245a87.69039,87.69039,0,0,0,2.987,13.18266,67.95546,67.95546,0,0,1,.51-14.91269,4.35012,4.35012,0,0,1,1.54522-2.8289c3.70585-3.06917,7.42412-6.12412,11.083-9.24854.97136-.82947,1.22723-.54314,1.54929.50313,1.89132,6.14351,3.36021,12.39031,4.69509,18.67289a3.424,3.424,0,0,1-.55324,2.78083A50.2005,50.2005,0,0,1,1340.98019,63.26462Z" class="cls-11"/><path d="M1222.086,94.16159c-.18807-2.31271-1.90434-3.909-3.08658-6.08492,7.10971.30335,13.85744,1.25514,20.05165,3.89158,2.87881,1.22528,3.93855,4.98515,4.7182,8.19782.08728.35955-.11718.79617.21888,1.10816a1.70533,1.70533,0,0,0,.47044.20344,13.26939,13.26939,0,0,0,.49785-5.9863c-.20786-1.12919-.04607-1.54324,1.18532-.941a89.032,89.032,0,0,1,17.13229,10.73739c1.57867,1.28111,1.48023,3.271,1.86678,5.01465a39.47647,39.47647,0,0,0,.74992,4.10945c.55-1.68776,1.1-3.37553,1.7202-5.27873a84.17047,84.17047,0,0,1,14.12686,16.22147c1.45936,2.203.07531,4.6348-.3621,6.93082-.10561.55438-.96877,1.08553-.16824,1.62255.86522.58048.97435-.46507,1.29833-.85237,2.16359-2.58661,2.29173-2.69762,4.24124.15884a68.01239,68.01239,0,0,1,5.80325,11.20262,113.16787,113.16787,0,0,1,6.7145,20.58094c.30233,1.34012.16729,1.82793-1.25745,1.54611-10.202-2.018-20.52524-3.59391-30.06717-8.0594a84.59269,84.59269,0,0,1-10.509-5.75229c3.67205-1.31739,6.54727-3.21535,10.15417-4.86717-3.25678-.51936-5.80307.39834-8.31149,1.09719-4.01443,1.11847-7.49773.88-10.7401-2.17421-3.5471-3.34119-7.55948-6.18306-11.20522-9.94413a45.11487,45.11487,0,0,0,11.55416-5.23442,1.89978,1.89978,0,0,0-1.97364-.21524c-3.778,1.10623-7.6583,1.02813-11.53372.96832a6.30211,6.30211,0,0,1-4.19612-1.70893c-4.48624-3.89063-8.379-8.358-12.99548-12.63947,2.96769-.79768,5.504-1.57085,7.72261-3.21947-2.56374.04636-5.09739.2939-7.64778.11334a9.98588,9.98588,0,0,1-6.58747-2.7729,96.73386,96.73386,0,0,0-12.59836-9.66412c2.6704-2.19017,5.83871-2.71,9.41341-3.87309a10.77651,10.77651,0,0,0-6.49552.16115c-4.68271,1.77-8.81688,1.03165-12.99889-1.48138-2.00052-1.20215-4.40125-1.73836-6.98927-2.7153a80.40993,80.40993,0,0,1,10.36141-2.95912,133.29323,133.29323,0,0,1,16.35231-3.30122,10.2064,10.2064,0,0,1,7.38612,1.85742,30.14415,30.14415,0,0,1,5.54918,4.478q.30943.25776.61827.5168A.76441.76441,0,0,0,1222.086,94.16159Z" class="cls-13"/><path d="M1220.60137,253.237c-3.74385-.71506-7.49055-.34828-11.37025-.08083.80389-1.9069,1.47822-3.76232,2.35112-5.519,1.42421-2.866,3.0442-5.63521,4.4484-8.51028a4.04254,4.04254,0,0,1,3.10187-2.14679c3.45017-.85428,7.02574-.88824,10.81988-1.69832a39.44015,39.44015,0,0,0-10.56571-1.43629c2.68484-4.432,6.09913-8.06754,8.88816-12.12815,3.998-5.82071,9.84612-5.76591,15.78722-5.97825,2.46149-.088,4.92353.49709,7.40523-.04789-4.1169-2.57763-8.7223-3.18758-13.4447-3.49453.14318-.81787.87345-1.12441,1.38687-1.57845,6.00595-5.31142,12.774-9.59,19.20168-14.32723,3.81753-2.81356,6.95573-2.31313,10.65648-.77219a22.2487,22.2487,0,0,0,5.655,2.1003,23.4098,23.4098,0,0,0-8.63555-5.74145c4.02932-2.45876,8.01986-4.4308,12.01174-6.38349,7.71417-3.77352,15.44326-7.51741,23.41362-10.74148,1.33294-.53917,1.39075-.17987,1.30684.97366a154.70874,154.70874,0,0,1-4.1303,27.56486,100.3394,100.3394,0,0,1-6.68074,18.45976,6.417,6.417,0,0,1-.57176.77023c-1.68235-3.96305-3.3275-7.74191-6.06023-10.915.99832,2.893,1.81943,5.8176,2.637,8.74859,1.15657,4.146,1.09587,7.79543-1.76292,11.50042a134.33761,134.33761,0,0,1-15.64783,17.53569c-.06977.06357-.21387.04548-.515.10061-.53652-5.42812-1.52827-10.73816-4.42717-15.96642,1.36832,5.96617,2.12556,11.53057,1.23476,17.22023a4.63436,4.63436,0,0,1-1.87077,3.27892,110.91826,110.91826,0,0,1-15.2751,10.05289,1.17325,1.17325,0,0,1-1.1295.23015c.74015-4.28089,1.08632-8.56312-.76416-12.72251a55.51251,55.51251,0,0,1-1.59239,10.28148,9.29769,9.29769,0,0,1-6.21338,7.12477c-5.60787,2.23162-11.41289,3.75464-17.54047,5.9922a85.89451,85.89451,0,0,0,4.16908-12.56638,66.56358,66.56358,0,0,1-7.97731,12.24668,4.261,4.261,0,0,1-2.72789,1.58985c-4.66129.6975-9.3258,1.37679-13.9757,2.14438-1.23445.20377-1.304-.16586-1.04443-1.20624,1.52426-6.10907,3.455-12.09089,5.51629-18.03487a3.35384,3.35384,0,0,1,1.87173-2.05174A49.17176,49.17176,0,0,1,1220.60137,253.237Z" class="cls-13"/><path d="M1206.45586,169.01544a29.984,29.984,0,0,0-5.23994-5.70746c1.32422-.48468,2.5626-1.01006,3.84395-1.39055,2.09055-.62074,4.22377-1.09891,6.30956-1.73385a2.75465,2.75465,0,0,1,2.511.54984c2.02823,1.32375,3.70563,3.091,5.87155,4.60679a26.87482,26.87482,0,0,0-4.1904-5.93573c3.45688-.71935,6.85537-.70509,10.17545-1.2,4.7592-.70944,7.4477,2.23224,10.31258,5.09624,1.187,1.18661,2.03856,2.686,3.46281,3.67048-.62649-3.25-2.461-5.82977-4.501-8.32721.47434-.3084.96633-.0866,1.43117-.04143,5.43772.52837,10.71432,1.91643,16.06155,2.92172,3.17585.59707,4.38366,2.39437,5.33385,4.9554a15.16119,15.16119,0,0,0,1.57879,3.7953,15.95164,15.95164,0,0,0-1.14722-6.97251c3.09727.86745,5.93383,1.94158,8.76136,3.02537,5.4641,2.09438,10.92037,4.21,16.22946,6.68726.88787.4143.73555.61.12136,1.10383a105.42093,105.42093,0,0,1-15.66365,10.74125,68.37336,68.37336,0,0,1-12.30768,5.24113,4.37283,4.37283,0,0,1-.6496.07257,27.359,27.359,0,0,0,2.62859-8.09086c-.979,1.8413-2.05609,3.60893-3.138,5.37777-1.53036,2.50211-3.37837,4.1666-6.55351,4.46159a91.53974,91.53974,0,0,1-16.01112.34044c-.0641-.00527-.122-.08553-.28933-.21009a27.05041,27.05041,0,0,0,5.90592-9.62233,30.58552,30.58552,0,0,1-8.01367,8.61266,3.15793,3.15793,0,0,1-2.50385.58981,75.58054,75.58054,0,0,1-12.10663-2.94864c-.22333-.07769-.48675-.09468-.6393-.45636,2.47844-1.61892,4.77459-3.43494,5.98938-6.28929a37.82711,37.82711,0,0,1-5.86649,3.98057,6.33556,6.33556,0,0,1-6.4383.2103c-3.71707-1.76009-7.17234-3.94756-11.13373-5.96406a58.5301,58.5301,0,0,0,8.20248-3.75675,45.35763,45.35763,0,0,1-9.81157,1.70926,2.90353,2.90353,0,0,1-2.05961-.622c-2.51248-2.0005-5.01737-4.01106-7.55952-5.97334-.67488-.52094-.52288-.7273.11649-1.081,3.75422-2.07691,7.63376-3.892,11.555-5.62447a2.28536,2.28536,0,0,1,1.89234-.01945A33.50631,33.50631,0,0,1,1206.45586,169.01544Z" class="cls-11"/><path d="M1348.01509,280.96146c-.88826,2.14359-.08978,4.34726-.031,6.82292-6.18747-3.515-11.75689-7.44174-16.06489-12.61476-2.00219-2.40418-1.229-6.23326-.45632-9.44762.08644-.35975.46765-.65491.311-1.0859-.049-.13492-.19039-.23629-.32572-.39573a13.26935,13.26935,0,0,0-3.1753,5.09913c-.33045,1.09958-.66339,1.39413-1.48413.29622a89.03249,89.03249,0,0,1-10.34274-17.37339c-.81989-1.86044.17592-3.586.62786-5.31389a39.47767,39.47767,0,0,0,1.20844-3.99871c-1.25972,1.25067-2.51944,2.50133-3.94,3.91165a84.17085,84.17085,0,0,1-5.16552-20.88113c-.293-2.62623,2.04846-4.15824,3.48563-6.00148.347-.44508,1.35743-.52369.89027-1.3669-.50489-.9114-1.07921-.03092-1.54425.16581-3.10568,1.31393-3.27036,1.35422-3.70118-2.07716a68.01216,68.01216,0,0,1-.05027-12.61642,113.16884,113.16884,0,0,1,3.41948-21.37678c.34267-1.33037.68548-1.70277,1.82452-.80172,8.15628,6.45206,16.62215,12.56606,23.074,20.8945a84.59336,84.59336,0,0,1,6.725,9.91478c-3.86853-.50387-7.29307-.12748-11.25629-.30406,2.6607,1.9486,5.34515,2.29428,7.896,2.81738,4.08238.83715,7.07281,2.63925,8.56372,6.83664,1.631,4.59186,3.904,8.95181,5.43113,13.96229a45.11469,45.11469,0,0,0-12.66956-.61631,1.89976,1.89976,0,0,0,1.65782,1.09234c3.86645.74013,7.28331,2.5807,10.70421,4.40278a6.30217,6.30217,0,0,1,2.95352,3.43577c2.21587,5.50938,3.64046,11.261,5.7938,17.17762-3.00462-.6448-5.61418-1.11449-8.34072-.66028,2.30226,1.12892,4.66958,2.0651,6.85641,3.38984a9.9858,9.9858,0,0,1,4.59562,5.47393,96.73516,96.73516,0,0,0,6.7985,14.349c-3.37567.72987-6.432-.25371-10.14346-.85046a10.7764,10.7764,0,0,0,5.853,2.82137c4.97436.56247,8.31578,3.10638,10.88973,7.25117,1.23128,1.98272,3.12261,3.55559,4.97942,5.60608a80.40879,80.40879,0,0,1-10.56979-2.09637,133.29118,133.29118,0,0,1-16.05639-4.52641,10.20638,10.20638,0,0,1-5.72409-5.0239,30.14452,30.14452,0,0,1-2.89354-6.51714q-.15768-.37059-.31423-.742A.7644.7644,0,0,0,1348.01509,280.96146Z" class="cls-13"/><path d="M1416.54779,128.70012c2.854,1.74623,6.04516,2.6047,9.31485,3.58592-1.25061,1.31755-2.37884,2.63292-3.63962,3.80569-2.057,1.91336-4.24491,3.68663-6.28831,5.61365a3.54862,3.54862,0,0,1-3.21248.80328c-3.09851-.36623-6.0461-1.44511-9.41347-1.95412a34.62107,34.62107,0,0,0,8.2344,4.45031c-3.57727,2.8095-7.50722,4.739-11.05513,7.2112-5.08581,3.54377-9.87267,1.68854-14.8186.024-2.04916-.68967-3.89046-1.93235-6.0977-2.25287,2.58387,3.39168,6.17808,5.31827,9.96219,7.03217-.37078.6275-1.06553.65326-1.62781.8673-6.57756,2.50388-13.46143,3.92344-20.20766,5.82515-4.00674,1.12947-6.42965-.253-8.99258-2.66429a19.53008,19.53008,0,0,0-3.99507-3.47569,20.54932,20.54932,0,0,0,5.3163,7.38923c-4.07088.77247-7.95926,1.15714-11.84274,1.52549-7.5047.71185-15.01249,1.39474-22.55756,1.576-1.26181.03029-1.19808-.28274-.77209-1.20431a135.806,135.806,0,0,1,11.92515-21.36411,88.07926,88.07926,0,0,1,11.20176-13.09546,5.63291,5.63291,0,0,1,.70807-.45571c.15522,3.77612.3369,7.38942,1.59944,10.8418.07544-2.6854.30624-5.34193.54188-8.00262.33331-3.76367,1.5128-6.74261,5.00794-8.9011a117.92335,117.92335,0,0,1,18.28157-9.56073c.077-.03063.18975.02884.45417.07676-1.23951,4.62489-2.06851,9.29371-1.30561,14.48567.72278-5.32433,1.82315-10.12949,4.316-14.52741a4.06814,4.06814,0,0,1,2.55166-2.11433,97.36391,97.36391,0,0,1,15.65918-3.52951,1.02986,1.02986,0,0,1,.99905.16057c-1.93309,3.28734-3.543,6.69774-3.31041,10.68719a48.729,48.729,0,0,1,4.49056-7.95261,8.16163,8.16163,0,0,1,7.30925-3.92922c5.29724-.09727,10.53709.44855,16.26309.50728a75.398,75.398,0,0,0-7.3144,9.03191,58.43069,58.43069,0,0,1,10.34363-7.59051,3.74046,3.74046,0,0,1,2.73289-.46157c4.04482.86991,8.08666,1.75576,12.14383,2.56457,1.07709.21472,1.01984.53989.48454,1.31413-3.14306,4.54636-6.58066,8.86236-10.11373,13.10688a2.944,2.944,0,0,1-2.17259,1.106A43.16391,43.16391,0,0,1,1416.54779,128.70012Z" class="cls-13"/><path d="M1395.93808,205.87913a28.85058,28.85058,0,0,0,3.01506,6.81818c-1.35641.03324-2.64713.13006-3.93232.08157-2.09682-.07914-4.18854-.30138-6.28539-.36612a2.65048,2.65048,0,0,1-2.11892-1.27571c-1.44018-1.83213-2.42381-3.96023-3.93024-6.00987a25.8589,25.8589,0,0,0,1.98809,6.70247c-3.3725-.41075-6.46548-1.4721-9.64408-2.0452-4.55639-.82152-6.09924-4.33192-7.82681-7.82592-.71575-1.44762-1.02937-3.0769-2.02375-4.41347-.43156,3.15528.44464,6.07243,1.53347,8.97788-.52744.13476-.90742-.21916-1.31715-.40372-4.793-2.159-9.17385-5.05175-13.73721-7.61748-2.71029-1.52385-3.25666-3.53448-3.33264-6.16172a14.58779,14.58779,0,0,0-.26815-3.94606,15.34843,15.34843,0,0,0-1.10528,6.70864c-2.55527-1.746-4.80916-3.6-7.05185-5.46-4.33392-3.59437-8.65415-7.20564-12.72867-11.10118-.68141-.65148-.48222-.78284.2299-1.04347a101.43461,101.43461,0,0,1,17.58929-4.9577,65.78745,65.78745,0,0,1,12.834-.98013,4.20775,4.20775,0,0,1,.61444.13425,26.32416,26.32416,0,0,0-4.89155,6.56315c1.46027-1.37616,2.9872-2.65492,4.51888-3.93331,2.16661-1.80834,4.36435-2.75529,7.34917-2.04469a88.07837,88.07837,0,0,1,14.69755,4.6288c.0568.02457.08481.11558.19889.28072a26.02785,26.02785,0,0,0-8.35093,6.94795,29.42925,29.42925,0,0,1,9.96048-5.37754,3.03853,3.03853,0,0,1,2.46395.23482,72.72355,72.72355,0,0,1,10.1244,6.422c.17957.1397.41442.23644.44188.61313-2.75826.71095-5.41117,1.65775-7.39883,3.88447a36.39719,36.39719,0,0,1,6.57464-1.8182,6.096,6.096,0,0,1,5.93274,1.7944c2.84479,2.75078,5.31915,5.81031,8.30751,8.87014a56.31676,56.31676,0,0,0-8.63461.89363,43.64224,43.64224,0,0,1,9.46953,1.46882,2.79377,2.79377,0,0,1,1.68526,1.20221c1.67277,2.5983,3.33552,5.20343,5.04711,7.776.45439.683.2522.82416-.43962.94927-4.06228.7348-8.158,1.19234-12.26629,1.56168a2.19894,2.19894,0,0,1-1.73068-.566A32.23932,32.23932,0,0,1,1395.93808,205.87913Z" class="cls-11"/><path d="M1620.2286,510.60614c.00542-2.99775.45508-46.837.69887-49.83418-.14411-18.872-.02709-37.752-.56234-56.61271-.21129-7.4574,2.37181-10.0466,9.55552-9.96462,5.20413.05983,13.013,3.40408,15.09987-2.19285,1.89616-5.08507-6.06118-8.3778-9.28247-12.77181-.84406-1.15168-1.60036-2.36956-2.32414-3.44673,1.79-3.53869,4.775-2.1826,7.10244-2.53824,5.241-.801,5.00151-3.57443,2.55168-6.98931-1.73579-2.42-3.90391-4.51477-5.86507-6.76744-3.166-3.63481-4.27447-6.83226,2.20929-7.08182,7.37982-.28418,7.59436-3.04207,3.0035-7.87065-17.72414-18.64157-35.60865-37.12775-53.08034-56.01388-4.02309-4.35024-8.54027-3.79822-13.195-3.84254-28.05439-.26673-56.11094-.40938-84.16641-.59357q-1.69515.13752-3.38815.27532-3.91529.108-7.82948.2166c-2.76622,1.35332-5.306-.2166-7.93025-.642-3.30256.252-6.74489,1.24364-9.89467.63761-22.85784-4.40093-39.26335,5.056-53.07167,23.19261-9.0051,11.82731-20.19782,21.91076-30.38286,32.80215-4.32648,4.62722-6.74814,8.68332,2.24721,10.67785,7.0591,1.56576,3.67095,5.56369.571,7.40394-5.38832,3.19911-8.37991,7.88727-11.51777,13.79968,4.645.61794,8.5316,1.13506,13.26656,1.76436-2.387,7.92107-10.32373,11.09581-13.05527,18.57426,4.63527,2.8094,9.51435,2.005,14.00335,1.55912,9.95859-.98965,13.36733,3.94059,12.96968,13.25818-.16036,3.7636-.29146,98.71251.10077,102.4426" class="cls-14"/><polygon points="1106.949 522.632 1090.417 536.004 1090.417 286.385 1106.949 286.385 1106.949 522.632" class="cls-12"/><path d="M1074.39445,154.11489c2.12568-2.60956,3.41184-5.675,4.831-8.80218,1.14479,1.42439,2.30389,2.7265,3.303,4.14151,1.63,2.30864,3.10266,4.72885,4.74809,7.02576a3.56977,3.56977,0,0,1,.36754,3.31079c-.783,3.03945-2.256,5.83235-3.21754,9.12057a34.82787,34.82787,0,0,0,5.54693-7.60854c2.3183,3.945,3.71178,8.12291,5.69778,11.99316,2.84684,5.54786.35183,10.06959-1.97457,14.7756-.96388,1.94976-2.451,3.61773-3.06819,5.77486,3.72957-2.11841,6.13486-5.44158,8.35375-8.98275.57554.45425.50752,1.15031.64506,1.7397,1.609,6.89472,2.09577,13.94856,3.08174,20.93021.58559,4.14657-1.11931,6.37547-3.86874,8.60522a19.64732,19.64732,0,0,0-4.00363,3.51387,20.672,20.672,0,0,0,8.08315-4.30319c.221,4.16236.08013,8.09048-.07639,12.01153-.30247,7.57729-.63423,15.15374-1.47112,22.69972-.14,1.262-.44343,1.15621-1.30468.60727a136.61645,136.61645,0,0,1-19.68922-14.76915,88.605,88.605,0,0,1-11.54391-12.9329,5.665,5.665,0,0,1-.3588-.76732c3.78528.35452,7.41181.66071,11.02369-.1323-2.66685-.43737-5.284-1.02571-7.90459-1.61944-3.707-.83984-6.51755-2.4174-8.19794-6.19273a118.62656,118.62656,0,0,1-7.06543-19.51392c-.02014-.08088.05434-.18527.13778-.4424,4.4433,1.85936,8.98575,3.31542,14.2644,3.2551-5.21024-1.43857-9.852-3.18355-13.9-6.26178a4.09234,4.09234,0,0,1-1.76361-2.82885,97.94414,97.94414,0,0,1-1.40668-16.08632,1.036,1.036,0,0,1,.2948-.97428c3.01639,2.37039,6.199,4.43518,10.20741,4.74138a49.02015,49.02015,0,0,1-7.3222-5.549,8.2103,8.2103,0,0,1-2.93122-7.81635c.61743-5.29384,1.8682-10.44373,2.699-16.144a75.84732,75.84732,0,0,0,8.01731,8.50964,58.77859,58.77859,0,0,1-6.17187-11.335,3.76272,3.76272,0,0,1-.09157-2.78661c1.41268-3.91489,2.84086-7.82465,4.19431-11.76009.35931-1.04477.67574-.94385,1.37538-.3058,4.10829,3.74639,7.94722,7.75532,11.702,11.8498a2.9616,2.9616,0,0,1,.80954,2.315A43.421,43.421,0,0,1,1074.39445,154.11489Z" class="cls-11"/><path d="M999.38464,229.371c-1.1562-1.6405-3.13626-2.0758-4.9731-3.17761,5.4305-2.8976,10.87618-5.153,16.64959-5.91012,2.68324-.35187,5.1247,1.98389,7.11707,4.035.223.22953.26249.64467.65.72948a1.475,1.475,0,0,0,.43988-.05511,11.47735,11.47735,0,0,0-2.25912-4.67893c-.651-.75-.71234-1.12957.46973-1.22185a77.009,77.009,0,0,1,17.48216.47307c1.73906.26094,2.53995,1.78676,3.594,2.9161a34.14836,34.14836,0,0,0,2.36421,2.73235c-.33172-1.49914-.66344-2.99829-1.03752-4.68878a72.80361,72.80361,0,0,1,17.65231,5.87951c2.0552,1.00022,2.0924,3.42016,2.77524,5.323.16489.45945-.24487,1.23442.58751,1.28283.89969.05236.52163-.77459.59286-1.20549.47561-2.87777.52231-3.01678,3.2298-1.745a58.8281,58.8281,0,0,1,9.24565,5.79708,97.885,97.885,0,0,1,14.04492,12.38421c.814.86565.92774,1.28843-.25761,1.70441-8.48781,2.97868-16.87167,6.34-25.943,7.2051a73.17048,73.17048,0,0,1-10.35717.33124c2.15713-2.59485,3.46551-5.27217,5.42717-8.08757-2.6547,1.0439-4.14867,2.84635-5.71058,4.46911-2.49963,2.59706-5.19971,3.94972-8.95733,3.09868-4.11077-.931-8.34884-1.28556-12.71757-2.48608a39.02282,39.02282,0,0,0,6.30892-8.97627,1.6432,1.6432,0,0,0-1.56506.70674c-2.32887,2.48408-5.25425,4.13067-8.168,5.78876a5.451,5.451,0,0,1-3.8772.57028c-5.05189-.92776-9.915-2.546-15.23563-3.70775a18.9535,18.9535,0,0,0,4.33941-5.79162c-1.88979,1.16091-3.66878,2.45849-5.64832,3.44447a8.6373,8.6373,0,0,1-6.12637.82818A83.67167,83.67167,0,0,0,985.889,245.673c1.02738-2.805,3.1596-4.58435,5.312-7.02145a9.32106,9.32106,0,0,0-4.7688,2.97385c-2.7113,3.37609-6.11593,4.64231-10.3359,4.60728-2.01869-.01676-4.043.63848-6.40044,1.04763a69.55127,69.55127,0,0,1,6.41988-6.757,115.29124,115.29124,0,0,1,10.7332-9.644,8.82808,8.82808,0,0,1,6.31921-1.86116,26.0724,26.0724,0,0,1,6.1019.89839q.3438.0561.68771.11341A.66118.66118,0,0,0,999.38464,229.371Z" class="cls-13"/><path d="M1072.95041,329.024a33.67158,33.67158,0,0,0-6.43307,4.21582c-.068-1.32126-.195-2.56645-.183-3.83318.01958-2.0667.176-4.155.18182-6.219a3.17529,3.17529,0,0,1,1.16211-2.31037c1.71181-1.74937,3.71857-3.10688,5.6364-4.96146a28.87058,28.87058,0,0,0-6.35,3.18933c.3023-3.37667,1.2336-6.60052,1.69616-9.81755.66308-4.61148,3.97545-6.77276,7.26723-9.11177,1.36383-.96908,2.912-1.57832,4.16226-2.79947-3.02588.16315-5.78932,1.56194-8.5359,3.16664-.14283-.49117.18512-.9287.35049-1.36392,1.93447-5.09117,4.581-9.91526,6.91017-14.85722,1.38336-2.93515,3.28959-3.84294,5.79745-4.40481a14.76064,14.76064,0,0,0,3.76264-.99465,13.90269,13.90269,0,0,0-6.43852.16319c1.59976-2.82467,3.3107-5.37443,5.02769-7.91434,3.318-4.9083,6.65255-9.80634,10.26522-14.51666.60417-.78774.735-.61718,1.003.03136a88.524,88.524,0,0,1,5.20625,16.29355,63.24809,63.24809,0,0,1,1.27928,12.37792,4.61954,4.61954,0,0,1-.11183.62622,20.148,20.148,0,0,0-6.4007-3.56919c1.35371,1.17372,2.61615,2.43073,3.87837,3.69247a6.88915,6.88915,0,0,1,2.14973,6.81275,100.335,100.335,0,0,1-4.02932,15.24246c-.022.06015-.10815.10444-.26286.24673a19.91348,19.91348,0,0,0-6.86076-6.88325,23.55134,23.55134,0,0,1,5.40349,8.74982,3.15679,3.15679,0,0,1-.15849,2.45488,88.78266,88.78266,0,0,1-5.86464,11.09976c-.12866.20166-.2148.44944-.57394.54621-.75289-2.5674-1.72829-4.98794-3.90866-6.51995a31.83761,31.83761,0,0,1,1.91267,6.09678,6.8185,6.8185,0,0,1-1.55572,6.139c-2.5519,3.29445-5.40866,6.28367-8.252,9.776a53.42015,53.42015,0,0,0-1.08444-8.28432,46.80836,46.80836,0,0,1-1.15018,9.53978,3.40625,3.40625,0,0,1-1.10348,1.87233c-2.43755,2.11917-4.88189,4.2298-7.29386,6.3822-.64032.57142-.78061.39975-.91862-.25408-.81053-3.83914-1.35707-7.76247-1.81968-11.71444a2.49124,2.49124,0,0,1,.49449-1.79874A39.92812,39.92812,0,0,1,1072.95041,329.024Z" class="cls-13"/><path d="M1023.18775,280.84783c2.25957-2.05473,4.79794-3.53722,7.05418-5.36463,3.23424-2.61952,6.52977-1.60895,9.92259-.73375,1.4057.36262,2.699,1.10564,4.19264,1.21339-1.89464-2.14621-4.39493-3.26233-7.01209-4.22683.21792-.43819.68193-.48908,1.04811-.65966,4.28361-1.99537,8.82487-3.27942,13.2506-4.8797,2.62854-.95044,4.31808-.142,6.15121,1.34871a13.114,13.114,0,0,0,2.84376,2.13412,13.79744,13.79744,0,0,0-3.9181-4.691c2.68878-.71447,5.27413-1.16039,7.857-1.59516,4.99129-.84018,9.986-1.66112,15.03008-2.1479.84354-.0814.816.13132.57538.76912a91.185,91.185,0,0,1-6.95135,14.88473,59.14014,59.14014,0,0,1-6.86739,9.31232,3.78177,3.78177,0,0,1-.45212.33947,23.66417,23.66417,0,0,0-1.5962-7.1831c.07954,1.802.05364,3.59223.02469,5.38547-.04093,2.5366-.68653,4.58867-2.92263,6.20345a79.17786,79.17786,0,0,1-11.7798,7.28807c-.05008.02424-.12847-.01013-.30787-.02941a23.39765,23.39765,0,0,0,.17278-9.764,26.45525,26.45525,0,0,1-2.1868,9.9378,2.73145,2.73145,0,0,1-1.6064,1.5395,65.3732,65.3732,0,0,1-10.31574,3.12206.69148.69148,0,0,1-.67682-.05914c1.13534-2.2951,2.04827-4.657,1.69932-7.31736a32.71813,32.71813,0,0,1-2.62209,5.54321,5.48,5.48,0,0,1-4.70457,2.98534c-3.54276.32169-7.07823.20994-10.91568.44793a50.62571,50.62571,0,0,0,4.46089-6.40276,39.23248,39.23248,0,0,1-6.55932,5.58419,2.51143,2.51143,0,0,1-1.80782.44147c-2.75088-.38666-5.50053-.78415-8.25672-1.1293-.7317-.09163-.70912-.31216-.38813-.85658,1.88466-3.19684,3.97773-6.25368,6.1382-9.26728a1.97673,1.97673,0,0,1,1.40138-.84589" class="cls-11"/><path d="M1014.21425,290.05892c.77369-.94291,1.46554-1.87843,2.25307-2.72488,1.28488-1.381,2.66419-2.67446,3.93929-4.06392a2.38266,2.38266,0,0,1,2.11244-.69353" class="cls-11"/><path d="M1175.28023,313.22309c.28,1.98737,1.84306,3.27844,2.9745,5.09717-6.15438.09953-12.02918-.37925-17.51168-2.3408-2.548-.91163-3.65424-4.10425-4.49077-6.83863-.09365-.306.0607-.69342-.24534-.94573a1.475,1.475,0,0,0-.41654-.15174,11.47716,11.47716,0,0,0-.12553,5.19425c.23688.96445.11823,1.33018-.97564.87275a77.00909,77.00909,0,0,1-15.339-8.40031c-1.42825-1.02593-1.44442-2.7491-1.86684-4.23506a34.14434,34.14434,0,0,0-.85645-3.51022c-.3891,1.48528-.7782,2.97056-1.217,4.64543a72.80414,72.80414,0,0,1-13.02271-13.2884c-1.3721-1.828-.30066-3.99815-.0397-6.00291.063-.48406.7813-.98657.06278-1.40957-.77661-.45723-.81767.45111-1.07773.802-1.73668,2.34344-1.84167,2.4458-3.67023.07847a58.8283,58.8283,0,0,1-5.58043-9.378,97.88621,97.88621,0,0,1-6.84406-17.42949c-.32918-1.14177-.23738-1.56984,1.00716-1.39893,8.91167,1.22379,17.90548,2.05969,26.3716,5.43035a73.17167,73.17167,0,0,1,9.36657,4.4326c-3.10369,1.32422-5.48984,3.10921-8.52029,4.71887,2.83851.28287,4.99048-.639,7.12088-1.37,3.40945-1.16984,6.42927-1.141,9.3842,1.33132,3.23265,2.70466,6.84168,4.95451,10.18085,8.01671a39.02242,39.02242,0,0,0-9.71046,5.10714,1.64322,1.64322,0,0,0,1.7151.0855c3.20594-1.14726,6.56038-1.2771,9.90971-1.42248a5.4511,5.4511,0,0,1,3.71007,1.26227c4.0715,3.13132,7.65988,6.79079,11.8637,10.253a18.95348,18.95348,0,0,0-6.5045,3.1725c2.21133-.17036,4.38646-.51292,6.5978-.48667a8.63734,8.63734,0,0,1,5.829,2.05938,83.67109,83.67109,0,0,0,11.36953,7.7041c-2.19444,2.02689-4.90372,2.63683-7.93121,3.82284a9.32111,9.32111,0,0,0,5.60044-.46938c3.95336-1.76639,7.5606-1.339,11.29936.61825,1.78849.9363,3.8887,1.27725,6.173,1.98922a69.55054,69.55054,0,0,1-8.79624,3.08187,115.29211,115.29211,0,0,1-13.95177,3.68183,8.828,8.828,0,0,1-6.47206-1.2283,26.07361,26.07361,0,0,1-5.01917-3.58444q-.28029-.20684-.56013-.41481A.66119.66119,0,0,0,1175.28023,313.22309Z" class="cls-13"/><path d="M1159.4463,169.66844a33.40975,33.40975,0,0,0,8.51565-1.42068c-.35292,1.53111-.61563,3.00684-1.03975,4.43455-.692,2.32933-1.543,4.61177-2.21888,6.94529a3.0694,3.0694,0,0,1-2.0406,2.0099c-2.46949,1.08845-5.13966,1.57962-7.8722,2.67982a29.94572,29.94572,0,0,0,8.09041-.302c-1.431,3.66493-3.51132,6.82915-5.06861,10.22986-2.23233,4.87478-6.61395,5.5956-11.03033,6.52835-1.82978.38644-3.74764.26953-5.533,1.00046,3.41528,1.39182,6.93965,1.24815,10.51207.8626-.00057.63042-.50689.95485-.83179,1.36136-3.80065,4.75539-8.30593,8.83747-12.49682,13.2183-2.48907,2.60188-4.90168,2.63634-7.87063,1.96577a16.89314,16.89314,0,0,0-4.50363-.8344,17.77429,17.77429,0,0,0,7.20744,3.16978c-2.69371,2.36407-5.42181,4.359-8.15343,6.33967-5.27876,3.82753-10.57255,7.63485-16.11452,11.08477-.92683.57694-1.01687.31571-1.10437-.55808a117.466,117.466,0,0,1-.5012-21.157,76.18594,76.18594,0,0,1,2.59263-14.67847,4.87383,4.87383,0,0,1,.32735-.65062,30.48491,30.48491,0,0,0,5.955,7.37518c-1.12361-2.034-2.11879-4.11465-3.11219-6.20058-1.40521-2.95062-1.8352-5.68834-.17941-8.83214a101.999,101.999,0,0,1,9.42054-15.15533c.04391-.05665.154-.06188.37211-.14235a30.14145,30.14145,0,0,0,5.39146,11.36643c-1.8007-4.28454-3.092-8.34816-3.16681-12.72016a3.51874,3.51874,0,0,1,.97224-2.69638,84.21592,84.21592,0,0,1,10.11647-9.50953c.20837-.16125.38445-.39686.8149-.31929.004,3.29859.30289,6.54686,2.2289,9.4171a42.14935,42.14935,0,0,1-.14817-7.89815,7.05946,7.05946,0,0,1,3.71959-6.13882c3.90408-2.3998,8.04792-4.29523,12.34-6.76717a65.21687,65.21687,0,0,0-1.48158,9.94294,50.53977,50.53977,0,0,1,4.37184-10.19988,3.23529,3.23529,0,0,1,1.8334-1.54458c3.39586-1.129,6.7965-2.24469,10.17471-3.42458.89685-.31323.99706-.0458.93838.76624-.34437,4.76823-1.0094,9.49424-1.777,14.20894a2.54648,2.54648,0,0,1-1.13282,1.77856A37.33473,37.33473,0,0,1,1159.4463,169.66844Z" class="cls-13"/><path d="M1156.5073,249.54639c-.33377.33213-.77238.23538-1.15874.27788-4.5196.49719-9.05461.2666-13.58187.35986-2.68884.05538-3.97929-1.20263-5.19017-3.12672a12.61751,12.61751,0,0,0-1.93348-2.82227,13.27587,13.27587,0,0,0,2.12391,5.484c-2.671-.17826-5.1648-.56937-7.65294-.96987-4.80824-.774-9.6137-1.56653-14.361-2.67884-.79392-.186-.70322-.37141-.28715-.87847a87.737,87.737,0,0,1,10.92706-11.42161,56.90323,56.90323,0,0,1,9.13158-6.36882,3.63778,3.63778,0,0,1,.51678-.16993,22.76939,22.76939,0,0,0-.761,7.03907c.48339-1.66689,1.05923-3.29051,1.63878-4.91593.81979-2.29923,2.04122-3.97034,4.57731-4.75226a76.18434,76.18434,0,0,1,12.98432-3.00855c.05312-.00664.114.04886.27152.12177a22.51294,22.51294,0,0,0-3.16945,8.84565,25.455,25.455,0,0,1,5.05863-8.38273,2.62818,2.62818,0,0,1,1.939-.90757,62.90286,62.90286,0,0,1,10.36485.33672c.19517.02519.41266-.00591.59861.26269-1.74273,1.74153-3.30336,3.61251-3.806,6.14484a31.48183,31.48183,0,0,1,4.09973-4.24323,5.27281,5.27281,0,0,1,5.20866-1.26958c3.32811.79967,6.51586,1.99213,10.08673,2.959a48.71205,48.71205,0,0,0-6.04077,4.4594,37.74866,37.74866,0,0,1,7.70077-3.066,2.41642,2.41642,0,0,1,1.78382.15532c2.38788,1.201,4.7713,2.41146,7.17682,3.57625.63861.30922.55.50325.08951.90042-2.70384,2.33222-5.55443,4.47256-8.4531,6.5527a1.902,1.902,0,0,1-1.53816.33865,27.88593,27.88593,0,0,1-6.85283-2.15132,24.95426,24.95426,0,0,0,5.242,3.75535c-.996.6207-1.91515,1.25991-2.894,1.78843-1.597.86226-3.25315,1.61566-4.8439,2.48868a2.29253,2.29253,0,0,1-2.13921-.01956c-1.878-.73232-3.54582-1.88574-5.56871-2.751a22.36683,22.36683,0,0,0,4.426,4.12034c-2.69321,1.17565-5.464,1.74376-8.084,2.71327-3.75575,1.38974-6.44756-.54789-9.2698-2.39216" class="cls-11"/><rect width="218.968" height="35.779" x="1518.107" y="537.801" class="cls-15"/><rect width="3034.411" height="32.768" x="-152.411" y="670.232" class="cls-16"/><rect width="3034.411" height="32.768" x="-152.411" y="637.464" class="cls-17"/><rect width="3034.411" height="32.768" x="-152.411" y="604.696" class="cls-18"/><rect width="3034.411" height="32.768" x="-152.411" y="571.928" class="cls-19"/><rect width="3034.411" height="32.768" x="-152.411" y="539.16" class="cls-20"/><rect width="3034.411" height="32.768" x="-152.411" y="509" class="cls-12"/><g class="cls-21"><path id="SVGID" d="M776.27836,422.16989H957.30687V423.601H776.27836Z" class="cls-2"/><rect width="181.029" height="1.431" x="776.278" y="422.17" class="cls-2"/><g class="cls-22"><path d="M776.27836,422.16989H957.30687V423.601H776.27836Z" class="cls-2"/></g></g><g class="cls-21"><path id="SVGID-2" d="M75.2045,422.16989H256.233V423.601H75.2045Z" class="cls-2" data-name="SVGID"/><rect width="181.028" height="1.431" x="75.204" y="422.17" class="cls-2"/><g class="cls-23"><path d="M75.2045,422.16989H256.233V423.601H75.2045Z" class="cls-2"/></g></g><path d="M322.777,325.00126c1.57417-.42932,3.43452-.85864,5.86733-1.28794a42.36976,42.36976,0,0,1,7.44148-.57241,17.21733,17.21733,0,0,1,6.58287,1.00173,10.061,10.061,0,0,1,4.15005,3.00523,11.32462,11.32462,0,0,1,2.14658,4.57937,24.392,24.392,0,0,1,.71553,5.86733v17.74508h-8.87254V338.59629c0-2.86212-.42932-4.86558-1.14485-6.01043s-2.14658-1.71726-4.29316-1.71726a10.13748,10.13748,0,0,0-2.00347.14311c-.71553,0-1.28794.14311-1.86038.14311v24.18483H322.777V325.00126Zm-16.314,14.45367a11.88993,11.88993,0,0,0-1.57417-6.43975,6.01489,6.01489,0,0,0-9.445,0,10.74615,10.74615,0,0,0-1.71726,6.43975,11.5328,11.5328,0,0,0,1.71726,6.58286,5.8,5.8,0,0,0,9.445,0,12.4297,12.4297,0,0,0,1.57417-6.58286m9.01565,0a20.1134,20.1134,0,0,1-1.00173,6.726,15.31566,15.31566,0,0,1-3.14832,5.2949,14.321,14.321,0,0,1-11.16221,4.57937,17.61176,17.61176,0,0,1-6.29664-1.14485,14.36371,14.36371,0,0,1-4.86558-3.43452,14.88654,14.88654,0,0,1-3.14831-5.2949,20.3298,20.3298,0,0,1,0-13.45191,15.58038,15.58038,0,0,1,3.14831-5.1518,13.961,13.961,0,0,1,4.86558-3.29144,14.73143,14.73143,0,0,1,6.15354-1.14484,16.8266,16.8266,0,0,1,6.15355,1.14484,16.22846,16.22846,0,0,1,4.86557,3.29144,15.5802,15.5802,0,0,1,3.14832,5.1518,14.87419,14.87419,0,0,1,1.28794,6.726m-48.22655,16.60024c-6.726,0-11.87776-1.86037-15.31228-5.5811-3.57764-3.72075-5.2949-9.01565-5.2949-15.88472a26.13008,26.13008,0,0,1,1.57416-9.15875,18.49587,18.49587,0,0,1,11.16222-10.876,23.2622,23.2622,0,0,1,8.44321-1.43106,24.123,24.123,0,0,1,4.72249.42933c1.43106.2862,2.719.57241,3.72075.85864a28.16625,28.16625,0,0,1,2.719,1.00173,5.12407,5.12407,0,0,1,1.57417.85864l-2.719,7.44148a17.9196,17.9196,0,0,0-4.43628-1.71726,23.182,23.182,0,0,0-5.72422-.71552,13.29547,13.29547,0,0,0-4.15.71552,8.56122,8.56122,0,0,0-3.57764,2.2897,13.81205,13.81205,0,0,0-2.5759,4.007,18.84946,18.84946,0,0,0-1.00173,6.01043,20.72479,20.72479,0,0,0,.57241,5.29489,13.20554,13.20554,0,0,0,2.00347,4.29317,10.77533,10.77533,0,0,0,3.72075,2.86211,12.732,12.732,0,0,0,5.438,1.00173,25.89736,25.89736,0,0,0,3.57764-.2862,14.43235,14.43235,0,0,0,2.86211-.57242,18.71914,18.71914,0,0,0,2.14658-.71552,8.75446,8.75446,0,0,1,1.71726-.71553l2.57591,7.44148a17.44912,17.44912,0,0,1-5.58111,2.14658,27.64839,27.64839,0,0,1-8.157,1.00174M232.0482,336.44977a5.742,5.742,0,0,0-.42932-2.14658,7.71041,7.71041,0,0,0-1.00173-1.86038,5.72678,5.72678,0,0,0-1.71727-1.43106,6.83546,6.83546,0,0,0-2.5759-.57241,4.90093,4.90093,0,0,0-2.5759.57241,3.90678,3.90678,0,0,0-1.71726,1.28795,6.69381,6.69381,0,0,0-1.14485,2.00346,10.72064,10.72064,0,0,0-.57243,2.2897h11.73465Zm-20.89347,3.29136a19.51673,19.51673,0,0,1,1.288-7.29839,13.56376,13.56376,0,0,1,3.43453-5.1518,14.37413,14.37413,0,0,1,4.72249-3.14832,15.34551,15.34551,0,0,1,5.58111-1.00173c4.43627,0,8.01391,1.28794,10.58981,4.00695s3.86385,6.726,3.86385,12.02086V340.886c0,.57241-.14311,1.14485-.14311,1.57417H220.3135a5.31949,5.31949,0,0,0,2.5759,4.29316,11.01628,11.01628,0,0,0,6.01043,1.57417,25.20055,25.20055,0,0,0,4.72249-.42932,20.83435,20.83435,0,0,0,3.86384-1.14485l1.14485,7.15528a12.77915,12.77915,0,0,1-1.86038.71553,15.19947,15.19947,0,0,1-2.719.57241c-1.00174.14311-2.00348.28621-3.14832.42932a26.44874,26.44874,0,0,1-3.29143.14312,18.50157,18.50157,0,0,1-7.29838-1.288,13.56378,13.56378,0,0,1-5.1518-3.43452,11.70344,11.70344,0,0,1-3.00521-5.15181,16.33492,16.33492,0,0,1-1.00173-6.15354m-5.86733-.14311a20.08255,20.08255,0,0,1-1.14485,6.72595,15.58026,15.58026,0,0,1-3.14831,5.15181,13.84184,13.84184,0,0,1-5.1518,3.29143,20.31249,20.31249,0,0,1-6.86907,1.14485,29.95416,29.95416,0,0,1-3.43453-.14311l-3.43454-.42933a26.4147,26.4147,0,0,1-3.29143-.57241c-1.00173-.28621-2.00348-.42932-2.719-.71553V310.26139l8.87253-1.43105v15.59849a20.26522,20.26522,0,0,1,3.14832-1.00174,13.37356,13.37356,0,0,1,3.43453-.2862,14.78322,14.78322,0,0,1,5.86733,1.14484,10.81978,10.81978,0,0,1,4.29316,3.29144,14.52794,14.52794,0,0,1,2.57591,5.1518,20.98044,20.98044,0,0,1,1.00173,6.86907m-9.01565-.28621c0-5.72422-2.14658-8.58633-6.29665-8.58633a17.53559,17.53559,0,0,0-2.719.28621,16.65426,16.65426,0,0,0-2.14658.85864v16.17093a5.89688,5.89688,0,0,0,1.71726.14311c.71552,0,1.431.14312,2.14658.14312a6.371,6.371,0,0,0,5.438-2.43279,10.28492,10.28492,0,0,0,1.86038-6.58286m-28.90732,14.883c-1.57416.42932-3.43453.85864-5.86732,1.28794a42.37,42.37,0,0,1-7.44149.57241,17.21709,17.21709,0,0,1-6.58285-1.00173,10.06108,10.06108,0,0,1-4.15006-3.00522,12.297,12.297,0,0,1-2.14659-4.57938,24.39254,24.39254,0,0,1-.71552-5.86733V324.14264h8.87254v16.314a12.98957,12.98957,0,0,0,1.14484,6.15354c.71553,1.28794,2.14658,1.86038,4.29317,1.86038a10.13688,10.13688,0,0,0,2.00348-.14312c.71552,0,1.28795-.14311,1.86037-.14311V323.99953h8.87253V354.1948Zm-40.92817,1.00173c-.85863-1.28794-1.86037-2.86211-3.00522-4.43628a53.60877,53.60877,0,0,0-3.72074-4.72248c-1.288-1.57417-2.719-3.00523-4.15006-4.57937a52.27936,52.27936,0,0,0-4.29316-3.86385v17.45887h-9.30186V313.83905h9.30186v15.59849c2.43279-2.5759,4.86559-5.15181,7.29838-8.01392,2.4328-2.719,4.72248-5.29489,6.86906-7.58459h11.01913c-2.86211,3.29143-5.58112,6.58286-8.44323,9.58806-2.86211,3.14832-5.86732,6.15354-9.01564,9.30186a77.34153,77.34153,0,0,1,9.58807,9.73118,126.7153,126.7153,0,0,1,8.87254,12.45017H126.43627Z" class="cls-2"/><path d="M200.85114,173.16632l-5.15179,1.14485c0-.71553-.14311-1.431-.14311-2.14658a29.634,29.634,0,0,1,4.29317-15.45539l10.01738,8.87254a1.97569,1.97569,0,0,0,.57243.42932,16.3185,16.3185,0,0,0-1.14485,4.72249c-.28621.1431-.71553.1431-1.00174.2862ZM220.31349,142.828v14.02433a12.40686,12.40686,0,0,0-3.86385,2.00348c-.42932-.28621-.85863-.71552-1.28795-1.00174l-10.16049-7.15527a28.73189,28.73189,0,0,1,15.31229-7.8708M150.62111,175.1698c4.86559-21.32272,9.01564-39.354,13.88123-60.67673,2.14658-9.58807,3.57764-12.164,12.30707-17.17266,12.164-7.01218,21.03651-12.02087,33.916-19.46235,8.01391-4.57938,9.58807-4.29317,9.58807,5.58111v49.5145a39.07375,39.07375,0,0,0-23.46931,11.87776l-4.29316-3.00521a2.06847,2.06847,0,0,1-1.00174-1.43106,6.97007,6.97007,0,0,0-2.28968-3.43453,4.6822,4.6822,0,0,0-5.86733,7.29838,4.95852,4.95852,0,0,0,2.28969,1.14484c.57242.1431,1.14485.1431,1.71726.28621a3.53567,3.53567,0,0,1,1.28795.57242l4.007,3.57764a39.18018,39.18018,0,0,0-6.726,22.03825c0,1.43106.1431,2.86211.2862,4.29317l-8.72943,1.86037a8.80214,8.80214,0,0,0-1.86038.14311l-1.28795.42932c-5.72422,1.14485-11.44844,2.43279-17.31576,3.72074-7.8708,1.86037-8.157.2862-6.43975-7.15528M230.474,156.85229V142.828a30.092,30.092,0,0,1,15.31228,7.7277l-11.01912,7.8708c-.1431.1431-.2862.28621-.42932.28621a13.73868,13.73868,0,0,0-3.86384-1.86037m24.61414,16.45713L241.35,170.16111a13.5501,13.5501,0,0,0-1.14485-4.29316c.14311-.14311.28621-.28621.42933-.28621l10.16048-9.01565a29.90072,29.90072,0,0,1,4.43628,15.5985,2.78971,2.78971,0,0,0-.14311,1.14485M237.19993,97.60662c7.44148,3.57764,12.73639,6.15354,20.17789,9.73118,10.30359,5.00869,20.60718,10.01738,31.05389,14.883,2.5759,11.16222,5.1518,22.32445,7.58459,33.48669,1.57417,6.726,2.2897,10.30359,3.86385,16.88645,2.43279,10.44671,2.14658,11.30534-8.58633,8.87254L264.8193,175.456a27.57379,27.57379,0,0,0,.14311-3.43453,38.36128,38.36128,0,0,0-6.86907-22.18136l3.72076-3.43453a3.17652,3.17652,0,0,1,1.57416-.71553,7.49009,7.49009,0,0,0,3.86385-1.431,4.6822,4.6822,0,1,0-5.86734-7.29838,5.82635,5.82635,0,0,0-1.71726,2.00348c-.2862.57242-.42932,1.00174-.71552,1.57415a2.22554,2.22554,0,0,1-.85865,1.14485l-4.29316,3.00521a39.07375,39.07375,0,0,0-23.46931-11.87776V102.61531c.14311-7.01217.85863-7.8708,6.86907-5.00869m-9.15875,90.15646a15.8507,15.8507,0,0,1-2.719.28621,15.5533,15.5533,0,0,1-2.5759-.14311l-.42932.85864-6.29665,11.59154a29.71556,29.71556,0,0,0,9.445,1.57416,31.296,31.296,0,0,0,9.58807-1.57416l-6.29665-11.44844c-.2862-.42932-.42932-.71553-.71552-1.14485m11.16223-7.5846,13.73813,3.14832a29.684,29.684,0,0,1-11.16224,13.595l-5.438-13.1657a16.54644,16.54644,0,0,0,2.86211-3.57764m-41.35749,3.00522,13.73812-3.14832a19.01906,19.01906,0,0,0,3.00522,3.72074l-.42933.85863-5.00869,12.30707a30.352,30.352,0,0,1-11.30534-13.73812m112.48093,24.18483c-6.58286,8.157-9.58807,12.02086-16.17093,20.17787-7.44148,9.30186-13.45191,16.88646-20.89341,26.1883-5.2949,6.726-9.15874,6.86907-17.88819,6.86907H195.27c-11.44844,0-12.30707,0-19.31924-8.87253-7.01217-8.72944-12.45018-15.59851-19.31925-24.32794-5.438-6.86907-6.86906-8.58633-12.30707-15.4554-8.44322-10.58981-9.87428-14.45365,3.29143-17.31576l40.642-9.15874a40.186,40.186,0,0,0,17.02956,20.6072l-1.86038,4.29316a2.52517,2.52517,0,0,1-1.14484,1.288,6.49,6.49,0,0,0-2.86211,3.00521,4.704,4.704,0,1,0,8.44322,4.15006,7.642,7.642,0,0,0,.71553-2.5759,6.96743,6.96743,0,0,0-.1431-1.71726,2.58032,2.58032,0,0,1,.2862-1.43106l2.28969-4.15006a40.03154,40.03154,0,0,0,14.16745,2.5759,37.95172,37.95172,0,0,0,14.31055-2.719l2.28968,4.15006a2.342,2.342,0,0,1,.28621,1.71726,6.4386,6.4386,0,0,0,.57242,4.007,4.704,4.704,0,0,0,8.44323-4.15006,5.97741,5.97741,0,0,0-1.57416-2.14659,8.68679,8.68679,0,0,0-1.431-1.00173,1.77732,1.77732,0,0,1-.85863-1.14485l-1.86038-4.57937a39.25006,39.25006,0,0,0,16.88645-20.6072l44.792,10.16049c9.01565,2.43279,8.44322,5.58112,3.29143,12.164" class="cls-24"/><path d="M230.474,156.85229V142.828a30.092,30.092,0,0,1,15.31228,7.7277l-11.01912,7.8708c-.1431.1431-.2862.28621-.42932.28621a13.73868,13.73868,0,0,0-3.86384-1.86037m24.61414,16.45713L241.35,170.16111a13.5501,13.5501,0,0,0-1.14485-4.29316c.14311-.14311.28621-.28621.42933-.28621l10.16048-9.01565a29.90072,29.90072,0,0,1,4.43628,15.5985,2.78971,2.78971,0,0,0-.14311,1.14485M237.19993,97.60662c7.44148,3.57764,12.73639,6.15354,20.17789,9.73118,10.30359,5.00869,20.60718,10.01738,31.05389,14.883,2.5759,11.16222,5.1518,22.32445,7.58459,33.48669,1.57417,6.726,2.2897,10.30359,3.86385,16.88645,2.43279,10.44671,2.14658,11.30534-8.58633,8.87254L264.8193,175.456a27.57379,27.57379,0,0,0,.14311-3.43453,38.36128,38.36128,0,0,0-6.86907-22.18136l3.72076-3.43453a3.17652,3.17652,0,0,1,1.57416-.71553,7.49009,7.49009,0,0,0,3.86385-1.431,4.6822,4.6822,0,1,0-5.86734-7.29838,5.82635,5.82635,0,0,0-1.71726,2.00348c-.2862.57242-.42932,1.00174-.71552,1.57415a2.22554,2.22554,0,0,1-.85865,1.14485l-4.29316,3.00521a39.07375,39.07375,0,0,0-23.46931-11.87776V102.61531c.14311-7.01217.85863-7.8708,6.86907-5.00869m2.00348,82.57188,13.73813,3.14831a29.684,29.684,0,0,1-11.16224,13.595l-5.438-13.16571a16.54663,16.54663,0,0,0,2.86211-3.57763m-13.73813,21.60892V188.0493a17.53327,17.53327,0,0,0,2.719-.28621,3.58661,3.58661,0,0,0,.57243,1.00174l6.29664,11.44844a32.0163,32.0163,0,0,1-9.58806,1.57415m84.86155,5.58112c-6.58286,8.157-9.58806,12.02087-16.17092,20.17788-7.44149,9.30185-13.45191,16.88645-20.89342,26.1883-5.2949,6.72595-9.15874,6.86906-17.88818,6.86906h-29.909V211.51859a37.95172,37.95172,0,0,0,14.31055-2.719l2.28969,4.15006a2.342,2.342,0,0,1,.28621,1.71726,6.43846,6.43846,0,0,0,.57242,4.007,4.704,4.704,0,0,0,8.44323-4.15006,5.97741,5.97741,0,0,0-1.57416-2.14659,8.68643,8.68643,0,0,0-1.43106-1.00173,1.77738,1.77738,0,0,1-.85863-1.14485l-1.86037-4.57937a39.25,39.25,0,0,0,16.88644-20.6072l44.792,10.16049c8.72944,2.43279,8.157,5.58112,3.00522,12.164" class="cls-24"/><path d="M642.3316,205.65127H618.57608V261.1762H674.101V237.42069H642.33156Zm118.92069.1431v31.62632H729.76907l-.14311-.28621V261.1762h55.52492V205.65127H761.10917Zm-142.67617-55.668h23.89864l-.14311-.1431V118.35691h31.48321l.28623.28621V94.6014H618.57617ZM729.626,94.6014v23.75551h31.62633v31.76942h23.89863V94.6014Z" class="cls-2"/><path d="M726.62078,150.12633l-31.76944-31.76942H729.626V94.6014H674.101v24.04172l31.48321,31.48321Zm-28.6211,55.52494H676.96315l26.33141,26.33141,5.438,5.438H674.101v23.75552H729.626V237.13449l-15.88472-15.7416Zm63.25261-55.52494v34.63154l-5.438-5.438L729.626,153.13155v21.03651l15.74161,15.7416,15.7416,15.74161h24.04171V150.12633ZM674.101,181.60955l-31.62632-31.48321H618.57608v55.52494H642.3316V171.01974L674.101,202.64606Z" class="cls-25"/><path d="M502.37444,321.70983l-6.01045,7.15528a14.06836,14.06836,0,0,0-10.30362-5.2949c-6.43974,0-11.44844,5.1518-11.44844,11.87776,0,6.86907,4.86558,12.02085,11.44844,12.02085a15.13311,15.13311,0,0,0,10.30362-4.86558l6.15352,6.43975c-4.43628,4.43628-10.876,7.44148-16.88644,7.44148-12.30708,0-21.46582-9.01565-21.46582-21.0365,0-11.87776,9.445-20.7503,21.89512-20.7503a24.33667,24.33667,0,0,1,16.314,7.01216Zm5.1518,34.34532v-43.361h10.1605v43.361Zm50.23-15.7416c0,9.73118-6.869,16.17092-17.17266,16.17092s-17.31577-6.43974-17.31577-16.17092,7.01216-16.02782,17.31577-16.02782S557.75628,330.58237,557.75628,340.31355Zm-24.18482.14311c0,4.86558,2.86211,8.157,7.01216,8.157s7.01216-3.29143,7.01216-8.157-2.86211-8.157-7.01216-8.157S533.57146,335.59108,533.57146,340.45666Zm60.3905,15.59849h-10.1605v-5.1518c-2.14658,3.72075-5.72422,5.5811-10.30361,5.5811-6.86905,0-11.30533-4.72248-11.30533-12.02085V324.57194H572.353v17.02955c0,3.72075,2.00347,6.01042,5.29492,6.01042,3.86387,0,6.15352-3.14831,6.15352-7.44148V324.57194H593.962Zm39.78331,0h-10.1605V351.9051a11.66576,11.66576,0,0,1-9.445,4.57937c-8.87256,0-14.73985-6.58286-14.73985-16.314,0-9.58806,5.72422-16.02781,14.45367-16.02781a11.631,11.631,0,0,1,9.73115,4.57937V312.6942h10.1605v43.361Zm-10.01738-15.59849c0-4.86558-2.86211-8.157-7.01216-8.157s-7.01217,3.29143-7.01217,8.157,2.86211,8.30012,7.01217,8.30012C620.86578,348.61367,623.72789,345.32226,623.72789,340.45666Zm47.08174,15.59849L651.91969,330.8686v25.18657h-9.73116V315.127h9.15874l18.89,25.32967V315.127h9.73116v40.92818h-9.15875ZM716.03094,335.448v20.60718h-9.87427v-3.57764c-2.00347,2.719-5.438,4.15006-9.58809,4.15006-6.726,0-10.876-4.15006-10.876-9.87428,0-6.01042,4.29317-9.445,12.164-9.58806h8.3001v-.42932c0-3.14832-2.00347-5.00869-6.15352-5.00869a24.09416,24.09416,0,0,0-9.445,2.5759l-2.86211-6.72595a32.80194,32.80194,0,0,1,14.59678-3.57764C711.02224,324.14264,716.03094,328.43581,716.03094,335.448Zm-9.87427,10.01738v-2.86211h-6.43975c-3.00523,0-4.5794,1.00174-4.5794,3.43453,0,2.28969,1.57417,3.72075,4.43628,3.72075C702.86521,349.75852,705.44114,348.04126,706.15667,345.46535ZM743.3641,354.481a18.00809,18.00809,0,0,1-8.44322,2.14659c-6.15352,0-10.44668-3.43453-10.44668-10.01739V332.729h-4.43628v-6.58286h4.43628v-8.72944h10.01738v8.72944h8.3001v6.72595h-8.3001v12.30709c0,2.43279,1.00176,3.57763,2.86211,3.43452a11.85275,11.85275,0,0,0,3.86387-1.00173l2.14658,6.86906Zm15.45542-38.92471a5.22972,5.22972,0,0,1-5.29492,5.438,5.36693,5.36693,0,0,1,0-10.73291A4.95812,4.95812,0,0,1,758.81952,315.55629Zm-10.44669,40.49886V324.57194h10.01739v31.48321Zm25.759,0L762.254,324.57194h10.44669l6.726,22.32447,6.86905-22.32447h10.01738l-11.87774,31.48321Zm55.668-13.02259H807.61846a7.36248,7.36248,0,0,0,7.4415,5.86734,11.24356,11.24356,0,0,0,7.58458-3.14832l5.29492,5.15181c-3.14834,3.57764-8.01387,5.5811-13.73809,5.5811-10.30362,0-16.74337-6.43974-16.74337-16.02781,0-9.73118,6.726-16.17092,16.45714-16.17092,11.01914,0,16.6002,7.29839,15.88467,18.74683Zm-9.73115-5.438c0-3.86384-2.43281-6.43975-6.15352-6.43975-3.57764,0-5.86729,2.57591-6.58282,6.43975h12.73634Zm50.94552-15.88472-6.01045,7.15528a14.06841,14.06841,0,0,0-10.30361-5.2949c-6.43975,0-11.44844,5.1518-11.44844,11.87776,0,6.86907,4.86562,12.02085,11.44844,12.02085a15.133,15.133,0,0,0,10.30361-4.86558l6.15352,6.43975c-4.43623,4.43628-10.876,7.44148-16.88643,7.44148-12.307,0-21.46583-9.01565-21.46583-21.0365,0-11.87776,9.44493-20.7503,21.89513-20.7503A24.92769,24.92769,0,0,1,871.01418,321.70983Zm35.34708,18.60372c0,9.73118-6.86905,16.17092-17.17266,16.17092s-17.31573-6.43974-17.31573-16.17092,6.869-16.02782,17.31573-16.02782C899.49221,324.28573,906.36126,330.58237,906.36126,340.31355Zm-24.18487.14311c0,4.86558,2.86211,8.157,7.01221,8.157s7.0122-3.29143,7.0122-8.157-2.86211-8.157-7.0122-8.157S882.17639,335.59108,882.17639,340.45666Zm61.8216-4.29316v19.89165H933.9806V339.02561c0-3.72076-2.14658-6.01043-5.58115-6.01043-3.7207,0-6.01045,2.5759-6.43974,6.43975v16.74334H911.79925V324.71506h10.16046v5.1518c2.28965-3.72075,5.86729-5.5811,10.58984-5.5811,7.0122-.14312,11.44844,4.57937,11.44844,11.87776Z" class="cls-2"/><g class="cls-21"><path id="SVGID-3" d="M410.07139,76.14079h1.431V367.3605h-1.431Z" class="cls-2" data-name="SVGID"/><rect width="1.431" height="291.22" x="410.071" y="76.141" class="cls-2"/><g class="cls-26"><path d="M410.07139,76.14079h1.431V367.3605h-1.431Z" class="cls-2"/></g></g><g class="cls-21"><path d="M326.06846,439.915h-8.58633L303.6009,415.87324h-.14312c.28621,4.29316.42933,7.29839.42933,9.15874V440.058h-6.01043V408.1455H306.463l13.88123,23.89862h.14311c-.2862-4.15005-.2862-7.01216-.2862-8.72945V408.2886h6.01042v31.62632ZM355.69129,427.751c0,4.007-1.00173,7.01216-3.14831,9.30186s-5.0087,3.29143-8.72945,3.29143a12.28286,12.28286,0,0,1-6.15354-1.57417,10.41,10.41,0,0,1-4.15005-4.43628,14.13753,14.13753,0,0,1-1.431-6.726c0-4.00695,1.00173-7.01216,3.14831-9.30185a11.76187,11.76187,0,0,1,8.72945-3.29143,12.28276,12.28276,0,0,1,6.15354,1.57417,10.41,10.41,0,0,1,4.15005,4.43627A14.13755,14.13755,0,0,1,355.69129,427.751Zm-16.74334,0a10.61064,10.61064,0,0,0,1.14485,5.438,4.43772,4.43772,0,0,0,3.86385,1.86038,4.28141,4.28141,0,0,0,3.86384-1.86038,13.48763,13.48763,0,0,0,0-10.876,4.94262,4.94262,0,0,0-7.72769,0C339.23416,423.45785,338.948,425.31823,338.948,427.751Zm35.91947-12.59329a10.85958,10.85958,0,0,1,2.2897.14311l-.57241,6.29664a7.4586,7.4586,0,0,0-2.00347-.28621,7.76248,7.76248,0,0,0-5.0087,1.57417,6.04267,6.04267,0,0,0-1.71726,4.57937V439.915h-6.58286V415.58707h5.00869l1.00174,4.15005h.2862a8.33944,8.33944,0,0,1,3.00523-3.29143,7.57177,7.57177,0,0,1,4.29316-1.28794Zm16.88646,19.89166a16.81882,16.81882,0,0,0,4.15005-.71553v5.00869a15.73611,15.73611,0,0,1-6.15354,1.14483c-2.719,0-4.57938-.71553-5.86734-2.00347a8.86153,8.86153,0,0,1-1.86037-6.01043V420.73884h-3.14832v-2.86211l3.72075-2.2897,1.86038-5.15181h4.29316V415.587h6.86907v5.00869h-6.86907v11.73465a2.69973,2.69973,0,0,0,.85864,2.14658,3.44889,3.44889,0,0,0,2.14659.57241ZM423.3802,439.915h-6.58286V425.74753c0-3.57764-1.28794-5.2949-3.86384-5.2949a4.37592,4.37592,0,0,0-4.007,1.86038c-.85864,1.28794-1.28794,3.29143-1.28794,6.15354V439.915h-6.58287V405.999h6.58287V412.868c0,.57242,0,1.86038-.14312,3.72076l-.2862,2.14658h.2862c1.43106-2.43279,3.86385-3.57764,7.01216-3.57764,2.86211,0,5.0087.71553,6.58286,2.2897a9.40178,9.40178,0,0,1,2.2897,6.58286V439.915Zm38.35228,0-2.2897-7.58459H447.85123l-2.2897,7.58459h-7.29839l11.30533-31.91253h8.3001L469.1739,439.915h-7.44142Zm-3.86386-13.30881c-2.14659-6.86907-3.29141-10.73291-3.57764-11.59156s-.4293-1.57417-.57242-2.14658c-.42929,1.86038-1.86035,6.43975-4.15005,13.73814Zm36.4919,13.30881h-6.58286V425.74753a7.93539,7.93539,0,0,0-.85864-4.007,3.14294,3.14294,0,0,0-2.719-1.28794,4.03959,4.03959,0,0,0-3.72075,1.86038,12.98953,12.98953,0,0,0-1.14483,6.15354V439.915h-6.58286V415.587h5.00869l.85864,3.14832h.4293a6.265,6.265,0,0,1,2.86211-2.57591,10.51744,10.51744,0,0,1,4.29317-1.00173c3.57764,0,6.15352,1.14485,7.4415,3.57764h.57241a6.265,6.265,0,0,1,2.86211-2.57591,10.51748,10.51748,0,0,1,4.29317-1.00173c2.719,0,4.86558.71553,6.29663,2.14658s2.14659,3.72075,2.14659,6.86907v15.88472H503.09V425.89064a7.93542,7.93542,0,0,0-.85864-4.007,3.14292,3.14292,0,0,0-2.719-1.28794,3.994,3.994,0,0,0-3.57764,1.71727c-.85864,1.14484-1.14483,3.00522-1.14483,5.5811V439.915Zm32.91426.42935c-3.86386,0-7.01216-1.14483-9.15874-3.29143s-3.29141-5.2949-3.29141-9.15875q0-6.22508,3.00523-9.445c2.00346-2.2897,4.86557-3.29143,8.44321-3.29143,3.43453,0,6.15352,1.00173,8.01392,3.00522a11.54994,11.54994,0,0,1,2.86211,8.157v3.29143H521.40749a6.53543,6.53543,0,0,0,1.71729,4.43628,6.1983,6.1983,0,0,0,4.43628,1.57417,19.42725,19.42725,0,0,0,4.15-.42932,28.68548,28.68548,0,0,0,4.15005-1.43105v5.15178a16.34433,16.34433,0,0,1-3.72075,1.28794c-1.28794,0-2.86211.14312-4.86558.14312Zm-.85864-20.46409a4.106,4.106,0,0,0-3.29141,1.28794,5.96434,5.96434,0,0,0-1.43105,3.86384h9.30186a5.72749,5.72749,0,0,0-1.28794-3.86384,4.106,4.106,0,0,0-3.29141-1.28794Zm29.90909-4.72249a10.85949,10.85949,0,0,1,2.2897.14311l-.57242,6.29664a7.45835,7.45835,0,0,0-2.00347-.28621,7.76245,7.76245,0,0,0-5.00869,1.57417,6.04272,6.04272,0,0,0-1.71728,4.57937V439.915h-6.58286V415.58707h5.00869l1.00175,4.15005h.28623a8.33958,8.33958,0,0,1,3.00523-3.29143,7.57177,7.57177,0,0,1,4.29316-1.28794Zm6.29663-5.86733c0-2.14659,1.14483-3.29144,3.57764-3.29144s3.57764,1.14485,3.57764,3.29144a3.3662,3.3662,0,0,1-.85864,2.43278,3.8741,3.8741,0,0,1-2.719.85865C563.9098,412.58183,562.62186,411.437,562.62186,409.2904ZM569.634,439.915h-6.58286V415.587H569.634Zm16.74336.42935c-7.58457,0-11.30532-4.15005-11.30532-12.45018,0-4.15005,1.00175-7.29839,3.14834-9.445,2.00347-2.14658,5.00869-3.29143,8.87256-3.29143a16.43677,16.43677,0,0,1,7.58457,1.71726l-2.00347,5.15181c-1.00175-.42932-2.00347-.71553-2.86211-1.00174a8.98612,8.98612,0,0,0-2.719-.42932q-5.15179,0-5.15181,7.29839c0,4.72249,1.71728,7.15528,5.15181,7.15528a9.88127,9.88127,0,0,0,3.57763-.57241,11.51283,11.51283,0,0,0,3.29141-1.57417v5.72422a10.96574,10.96574,0,0,1-3.29141,1.43107,33.82344,33.82344,0,0,1-4.29316.28623Zm28.62111-.42935-1.28795-3.29143h-.14311a8.70547,8.70547,0,0,1-3.43452,2.86214,10.45555,10.45555,0,0,1-4.5794.85864,8.06744,8.06744,0,0,1-5.5811-2.00347,7.94442,7.94442,0,0,1-2.00347-5.72422,6.40375,6.40375,0,0,1,2.719-5.72422c1.86035-1.28794,4.57939-1.86038,8.157-2.00347l4.29316-.14311v-1.00174c0-2.43279-1.28794-3.72075-3.72075-3.72075a17.24637,17.24637,0,0,0-6.86905,1.71726l-2.14662-4.43628a20.2232,20.2232,0,0,1,9.30185-2.14658c3.29141,0,5.72422.71553,7.58458,2.14658q2.57592,2.14659,2.57588,6.43975V439.915h-4.86553ZM612.995,428.60964l-2.57588.14311a8.23446,8.23446,0,0,0-4.29317,1.00174,3.03008,3.03008,0,0,0-1.43105,2.86211c0,1.86037,1.14482,2.86211,3.2914,2.86211a5.35017,5.35017,0,0,0,3.72076-1.28794,4.836,4.836,0,0,0,1.43105-3.57764v-2.00347ZM658.50255,439.915H636.17808v-4.72248l8.01392-8.01392c2.43281-2.43279,3.86387-4.15005,4.57939-5.00869a13.847,13.847,0,0,0,1.57417-2.5759,7.26823,7.26823,0,0,0,.4293-2.43279,3.497,3.497,0,0,0-1.00175-2.86211,4.30934,4.30934,0,0,0-2.86211-1.00174,7.75817,7.75817,0,0,0-3.57764.85864,17.61118,17.61118,0,0,0-3.57764,2.43279L636.035,412.2956a32.31829,32.31829,0,0,1,3.86386-2.86211,12.2264,12.2264,0,0,1,3.43453-1.28794,18.49081,18.49081,0,0,1,4.15005-.42932,12.51276,12.51276,0,0,1,5.29492,1.14484,8.26071,8.26071,0,0,1,3.57764,3.00523,8.03438,8.03438,0,0,1,1.28794,4.43628,13.29605,13.29605,0,0,1-.71553,4.15005,17.64677,17.64677,0,0,1-2.43281,4.007,69.73489,69.73489,0,0,1-5.72422,5.72422l-4.15,3.86384v.28621h13.88125Zm25.32965-15.88469c0,5.5811-.85864,9.73118-2.719,12.30708-1.86035,2.719-4.57939,4.007-8.44321,4.007a9.39653,9.39653,0,0,1-8.30011-4.15005c-1.86035-2.719-2.86211-6.86907-2.86211-12.164,0-5.58111.85865-9.73118,2.719-12.45018s4.57939-4.007,8.44322-4.007a9.3965,9.3965,0,0,1,8.3001,4.15005c2.00347,2.86211,2.86211,6.86907,2.86211,12.30708Zm-15.59849,0c0,3.86384.28623,6.726,1.00175,8.44321a3.57762,3.57762,0,0,0,6.86905,0c.71553-1.71726,1.00176-4.43628,1.00176-8.30012s-.28623-6.726-1.00176-8.44322a3.57763,3.57763,0,0,0-6.86905,0A26.07321,26.07321,0,0,0,668.23371,424.03027ZM703.867,439.915h-6.726V418.44914l.14312-3.29143a22.30305,22.30305,0,0,1-2.2897,2.14658l-3.72075,3.00523-3.29141-4.007,10.30361-8.157H703.867Zm30.9108-18.31748c0,6.29663-1.28794,11.01912-4.00694,14.02434-2.57588,3.14832-6.58286,4.57937-12.02085,4.57937a30.23379,30.23379,0,0,1-4.29317-.28623v-5.438a16.827,16.827,0,0,0,3.86387.42932,12.571,12.571,0,0,0,5.5811-1.00173,7.025,7.025,0,0,0,3.29141-3.14832,15.51339,15.51339,0,0,0,1.28794-5.86733h-.28623a7.777,7.777,0,0,1-2.86211,2.86211,8.923,8.923,0,0,1-4.15005.85864,8.23578,8.23578,0,0,1-6.58286-2.719,10.82216,10.82216,0,0,1-2.43281-7.44148,11.54994,11.54994,0,0,1,2.86211-8.157A10.56939,10.56939,0,0,1,722.9,407.287a11.054,11.054,0,0,1,6.15352,1.71726,10.42631,10.42631,0,0,1,4.00694,4.86558,15.7191,15.7191,0,0,1,1.71728,7.72769Zm-11.44844-8.44322a3.95649,3.95649,0,0,0-3.29141,1.43106,6.82231,6.82231,0,0,0-1.14483,4.15,6.02268,6.02268,0,0,0,1.00176,3.72075,4.10594,4.10594,0,0,0,3.29141,1.28794,4.64187,4.64187,0,0,0,3.43452-1.28794,3.863,3.863,0,0,0,1.43105-3.14832,6.87614,6.87614,0,0,0-1.43105-4.43628,3.66427,3.66427,0,0,0-3.29141-1.71726Z" class="cls-2"/></g><g class="cls-27"><path d="M1602.77818,512.96494c-.46035-.10613-1.1176-.28771-1.569-.37083a45.57321,45.57321,0,0,0-5.17374-.41686,50.465,50.465,0,0,1-9.68-1.58818,6.0673,6.0673,0,0,1-2.32729-2.34263l-2.17895-.63425a70.12152,70.12152,0,0,0-11.24-48.56991c.55753-.50639,1.61374-1.44113,1.91169-1.71606a4.26844,4.26844,0,0,1,1.01276-3.05616,50.50386,50.50386,0,0,1,8.02656-5.63918,44.877,44.877,0,0,0,4.48451-2.61628c.34782-.2583.82349-.6675,1.18794-.959a5.42437,5.42437,0,1,0-6.721-8.4396c-.36827.29026-.86953.67133-1.1969.95521a44.76278,44.76278,0,0,0-3.56637,3.77224,50.55138,50.55138,0,0,1-7.276,6.58289,5.99722,5.99722,0,0,1-3.27354.35549l-2.05364,1.46671a70.72514,70.72514,0,0,0-44.79639-21.645c-.04987-.71737-.11125-2.01655-.13043-2.40912a4.276,4.276,0,0,1-1.7608-2.69812,50.55226,50.55226,0,0,1,.61123-9.78994,44.8987,44.8987,0,0,0,.73526-5.13026c.01662-.43476-.009-1.06645-.009-1.53575a5.42436,5.42436,0,1,0-10.79374.00512c0,.05115.01151.09974.01279.15089-.00511.44755-.02686.98973-.01279,1.381a45.36578,45.36578,0,0,0,.73654,5.13409,50.47758,50.47758,0,0,1,.601,9.78738,5.88335,5.88335,0,0,1-1.75186,2.79018l-.12787,2.28381a70.39531,70.39531,0,0,0-9.75669,1.49995,69.42074,69.42074,0,0,0-35.25964,20.14507q-.9846-.679-1.95133-1.38358a4.262,4.262,0,0,1-3.20449-.31073,50.35975,50.35975,0,0,1-7.276-6.57393,45.08287,45.08287,0,0,0-3.551-3.77225c-.32864-.28132-.83118-.66493-1.19945-.95776a6.43193,6.43193,0,0,0-3.762-1.41939,5.19928,5.19928,0,0,0-4.30036,1.904,5.71975,5.71975,0,0,0,1.32732,7.95624l.08311.05882c.35294.289.7877.65855,1.11506.89767a45.08249,45.08249,0,0,0,4.47427,2.61883,50.33987,50.33987,0,0,1,8.02529,5.64175,5.99716,5.99716,0,0,1,1.08564,3.11242l1.72755,1.54471a69.83513,69.83513,0,0,0-11.01112,48.685l-2.25951.65727a7.4614,7.4614,0,0,1-2.31961,2.33624,50.3693,50.3693,0,0,1-9.67357,1.59457,45.09725,45.09725,0,0,0-5.17757.41686c-.41431.07673-.98973.22251-1.44113.335l-.04731.01024-.07672.023a5.41669,5.41669,0,1,0,2.39761,10.51627l.08056-.01278c.03581-.00767.06649-.02558.1023-.032.445-.101,1.00508-.20843,1.39637-.31457a45.5125,45.5125,0,0,0,4.84126-1.85544,50.54383,50.54383,0,0,1,9.40888-2.76844,5.98451,5.98451,0,0,1,3.1022,1.09586l2.35285-.4028a70.23038,70.23038,0,0,0,31.12424,38.85669l-.98334,2.35285a5.35525,5.35525,0,0,1,.48208,3.05232,52.7183,52.7183,0,0,1-4.88474,8.77718,44.99182,44.99182,0,0,0-2.89376,4.31186c-.21482.40663-.48719,1.02937-.69307,1.4552a5.41925,5.41925,0,1,0,9.74519,4.62387l.00895-.01022V582.726c.2046-.422.49487-.97567.6675-1.37081a44.631,44.631,0,0,0,1.5575-4.94611,37.74419,37.74419,0,0,1,4.17888-9.69531,4.38611,4.38611,0,0,1,2.326-1.13551l1.22374-2.2122a69.84031,69.84031,0,0,0,49.80132.1266c.34271.61122.98207,1.78,1.15085,2.07537a4.26457,4.26457,0,0,1,2.75566,1.67513,50.26185,50.26185,0,0,1,3.70574,9.07384,45.10674,45.10674,0,0,0,1.56645,4.94612c.17518.399.46034.96033.6675,1.38358a5.4218,5.4218,0,1,0,9.7567-4.61236c-.20587-.42581-.48975-1.04857-.7033-1.45264a44.83257,44.83257,0,0,0-2.89377-4.30164,50.34616,50.34616,0,0,1-4.785-8.56747,4.23775,4.23775,0,0,1,.41431-3.184,18.56617,18.56617,0,0,1-.899-2.17767,70.22771,70.22771,0,0,0,31.10889-39.13546c.6982.11126,1.91425.32353,2.30939.40407a4.26707,4.26707,0,0,1,3.01779-1.12144,50.47946,50.47946,0,0,1,9.41144,2.76844,44.92768,44.92768,0,0,0,4.84381,1.8695c.39.1023.94627.19949,1.39381.298.03709.01022.07032.02685.10613.0358l.07672.01152a5.41669,5.41669,0,1,0,2.40146-10.51626Zm-51.277-54.96866-23.06442,16.35109-.08056-.03708a4.76071,4.76071,0,0,1-7.56112-3.63031l-.02557-.01151-1.60224-28.265a56.07219,56.07219,0,0,1,32.33262,15.59281Zm-43.44861,30.981h8.68l5.39623,6.74656-1.93471,8.41531-7.79513,3.75051-7.81814-3.75946-1.93855-8.41787Zm-8.166-45.58408a57.12338,57.12338,0,0,1,5.75811-.98974l-1.6048,28.3072-.11765.05626a4.75687,4.75687,0,0,1-7.54961,3.64693l-.04476.02557-23.214-16.4598A55.582,55.582,0,0,1,1499.88663,443.39322ZM1464.696,468.55986l21.19362,18.95457-.023.11637a4.75686,4.75686,0,0,1-1.8695,8.17618l-.02173.09207-27.16658,7.83988a55.56591,55.56591,0,0,1,7.8872-35.17781Zm28.37624,50.3563-10.79374,26.08092a55.87528,55.87528,0,0,1-22.42376-28.06551l27.85453-4.73.04732.06137a4.67519,4.67519,0,0,1,.93347-.08312,4.75686,4.75686,0,0,1,4.30164,6.6302Zm31.86078,33.541a55.8,55.8,0,0,1-30.4529-1.56516l13.699-24.77151h.023a4.76326,4.76326,0,0,1,8.38462-.00766h.1023l13.73353,24.81244q-2.67383.89254-5.48958,1.5332Zm17.69887-7.35524-10.905-26.34818.03325-.04731a4.76329,4.76329,0,0,1,2.30553-6.16731,4.71271,4.71271,0,0,1,1.82219-.47313,4.58967,4.58967,0,0,1,1.09331.08057l.04732-.05882,28.1026,4.7492a55.6631,55.6631,0,0,1-22.49921,28.26627Zm25.45051-41.45507-27.3034-7.86418-.02558-.11508a4.76326,4.76326,0,0,1-1.86695-8.17874l-.01022-.055,21.076-18.86251a56.62066,56.62066,0,0,1,8.12887,35.0755Z" class="cls-28"/></g><path d="M1701.40645,597.60313S1682.75463,504.344,1683.71114,487.127s8.13028-114.30219,20.08657-133.43226,23.43434-38.26015,23.43434-38.26015l36.60448,90.43479,37.52455-57.91366,29.65162-25.34735,9.08678,81.30281-12.72587,68.3533-25.056,78.94826L1774.579,602.8639Z" class="cls-3"/><path d="M1818.09149,478.43832c.51772-5.72,1.12441-11.43455,1.64-17.15459-.51585,5.72115-1.12253,11.436-1.64,17.15378Z" class="cls-1"/><path d="M1691.94277,434.60735c-1.55806,5.29551-2.49775,10.64823-1.49781,16.18052q-.12855,3.0789-.25734,6.15767.12891-3.07889.25734-6.15667-.12855,3.0774-.25734,6.15667a114.94875,114.94875,0,0,0-.22885,41.07676l.2536,10.76166q-.12679-5.38059-.2536-10.76633Z" class="cls-1"/><path d="M1756.79773,431.70964c1.10806-4.203,1.9025-8.50963,3.12241-12.67566h-.00023C1758.70023,423.19977,1757.90579,427.50649,1756.79773,431.70964Z" class="cls-1"/><path d="M1818.15454,483.54982c-.40773,6.35178-2.48467,12.38708-4.24962,18.48181C1815.67034,495.936,1817.74751,489.90037,1818.15454,483.54982Z" class="cls-1"/><path d="M1689.99964,513.98635q-.01157-.78752.00163-1.57732Q1689.98761,513.19891,1689.99964,513.98635Z" class="cls-1"/><path d="M1746.6559,467.62068v-.00018c-.93736-.459-1.90577-.86665-2.83168-1.34455C1744.75013,466.75385,1745.71854,467.16146,1746.6559,467.62068Z" class="cls-1"/><path d="M1698.8508,568.0768c-1.75608-7.88007-3.14577-15.841-4.34957-23.839q-.80006-3.43565-1.60009-6.86693.8,3.43461,1.60032,6.86921C1695.705,552.23657,1697.09472,560.197,1698.8508,568.0768Z" class="cls-1"/><path d="M1756.28305,433.55977c-.43879,1.50289-.93035,2.98838-1.51415,4.44339" class="cls-13"/><path d="M1751.71023,443.88335c-2.01223,8.28866-4.79863,15.52018-5.05433,23.7371v.00023q-1.1034,4.06677-2.1024,8.14365c-.039.15979-.07542.32-.11442.47983q-.675,2.76933-1.29955,5.54356-.57376,2.53359-1.11109,5.0708-.55416,2.62449-1.07374,5.25237c-.36079,1.84213-.70173,3.68619-1.03379,5.53112q-.42491,2.36169-.819,4.72624-.70792,4.24149-1.3194,8.49236-1.63512,11.35659-2.628,22.77552-.33383,3.812-.602,7.63043-.59373,8.445-.88318,16.91955c-.47895,13.86633-.38227,27.78847.15319,41.75311q2.86566,1.03841,5.73249,2.07822a349.55562,349.55562,0,0,1,.75614-81.89747q1.79694-13.56459,4.82595-27.06624c3.78562-15.24393,6.97809-30.65833,11.53456-45.6821q.37095-1.22292.75684-2.44141c.92428-2.93945,1.89876-5.86448,2.95148-8.76709,1.24233-3.42541,2.58438-6.82233,4.05066-10.18369,12.98075-29.75822,26.54344-59.06276,51.08444-81.69618,7.19293-6.63385,9.715-4.65855,12.33133,3.525a179.58991,179.58991,0,0,1,4.74516,92.56817c-4.92661,23.31618-10.18738,50.09828-15.9264,66.35884-4.18324,15.16426-43.17692,100.11885-42.08616,96.12862,0,0,34.43413-51.6512,48.78169-105.2154,3.446-12.86489,14.14719-51.36082,14.14719-51.36082,5.47188-23.97926,7.80242-48.395,9.19677-72.8646,1.10853-19.44935-3.01989-38.41938-9.314-56.625-2.37211-6.86094-9.15357-7.61344-15.62655-2.6009-19.40166,15.02433-31.57653,35.19646-42.038,56.87717-4.93875,10.23574-8.97306,18.01095-15.24825,30.54807v.00027l.00024.0028c-.81523,5.98682-2.81184,10.89415-4.55788,17.40846" class="cls-13"/><path d="M1733.6693,558.18611q.29284-8.47419.88318-16.91955.26832-3.81843.602-7.63043,1.00041-11.41815,2.628-22.77552.61194-4.25076,1.3194-8.49236.39441-2.36457.819-4.72624c.33206-1.84493.673-3.689,1.03379-5.53112q.51457-2.62835,1.07374-5.25237.53628-2.53726,1.11109-5.0708.62841-2.77387,1.29955-5.54356c.039-.15985.07542-.32.11442-.47983q.99971-4.07685,2.1024-8.14365c-.93736-.45922-1.90577-.86683-2.83168-1.34473-.30872-.15932-.61253-.32647-.9091-.50587-16.52118-9.9988-26.76412-8.78922-40.37,4.78666-3.80826,3.8-4.15527,8.53177-3.968,13.55008.68772,18.42274,4.5992,36.85,5.20939,55.27568,3.09416,19.31479,5.70073,40.273,11.42387,58.89749,5.80277,3.18394,12.18725,1.31694,18.61212,1.65923C1733.287,585.97458,1733.19035,572.05244,1733.6693,558.18611Z" class="cls-2"/><path d="M1734.55248,541.26656q-.59373,8.44494-.88318,16.91955Q1733.96215,549.71192,1734.55248,541.26656Z" class="cls-2"/><path d="M1737.78255,510.86061q-1.63512,11.35659-2.628,22.77552" class="cls-29"/><path d="M1744.5535,475.76433q.99971-4.07685,2.1024-8.14365" class="cls-29"/><path d="M1743.13953,481.78772q.62841-2.77387,1.29955-5.54356" class="cls-29"/><path d="M1740.9547,492.11089q.51457-2.62835,1.07374-5.25237" class="cls-29"/><path d="M1739.102,502.36825q.39441-2.36457.819-4.72624" class="cls-29"/><path d="M1690.98626,434.60735c2.26773-33.8489,10.99279-66.05736,28.8058-95.40677,4.83179-7.9608,8.325-7.37,13.10616.1289,15.55556,24.39916,21.214,52.05653,27.02169,79.7045h.00023l.00024-.00093c2.22406-6.51338,3.74241-11.42054,4.5574-17.41033-2.25745-28.21505-7.627-55.62048-21.62828-80.65657a86.49128,86.49128,0,0,0-9.7243-14.17034c-4.53639-5.27522-10.17149-4.95854-14.26722.36794a139.84084,139.84084,0,0,0-24.00974,49.20156,458.12979,458.12979,0,0,0-14.36343,97.981c-1.90484,45.33684,2.26982,57.64972,4.34489,74.52876,2.29832,18.69561,3.1857,22.33761,7.93109,40.77074,2.53231,9.83685,5.77615,17.43576,8.71432,27.80854q1.79869.30816,3.59973.60885c1.19563-4.00145.10742-7.61928-1.12487-11.24026-.41076-1.207-.83764-2.41444-1.20123-3.63651q-.71108-2.39085-1.36237-4.79536-1.25716-4.63686-2.31256-9.31879-.11279-.4974-.223-.9955l-7.96589-49.38522c-.47825-7.65238-.84161-17.08209-.92614-20.66928-.50861-14.72136-1.46511-26.67765-.72765-41.07676" class="cls-2"/><path d="M1703.95,586.823c1.23229,3.621,2.3205,7.23881,1.12487,11.24026l.00047.00006C1706.27071,594.06189,1705.1825,590.44406,1703.95,586.823Z" class="cls-3"/><path d="M1695.64478,484.664l-.00023.00262" class="cls-12"/><path d="M1698.57711,482.19382c-.18728-5.01832,1.6184-7.70185,4.9245-11.63708,10.24265-12.19175,24.58325-13.7621,39.41351-4.78666.29657.1794.60038.34655.9091.50587.92591.4779,1.89432.88551,2.83168,1.3445,2.09748-12.53637,4.48874-16.36238,4.57608-23.7371.27342-23.08767-9.79832-44.49257-20.57744-64.90506-3.21185-6.08227-5.95152-5.64433-9.11621.3063-10.85781,20.41709-16.87752,42.30961-21.24414,64.88482a18.58635,18.58635,0,0,0-.32249,2.30614c-.15436,1.00087-.337,5.21563-.47825,6.21727" class="cls-12"/><path d="M1812.278,491.14294c1.50738-5.54146-.20574-10.2541-2.51339-15.00795-12.67181-18.53425-29.03068-16.24842-46.41215-8.21412-1.19586,2.5037-4.252,4.88988-4.94645,7.52073-9.65027,36.558-16.13166,73.27581-11.34914,111.56234,1.64586,13.175,2.79572,14.92307,16.82078,15.21345,3.28705-5.271,7.34266-10.13415,9.913-15.77589C1789.40479,552.1692,1803.22062,524.4393,1812.278,491.14294Z" class="cls-13"/><path d="M1768.36171,467.99688c10.99979-7.652,29.17336-10.04329,41.40288,8.13811,2.81766,4.189,2.59629,10.03546,3.06613,13.30231,3.31761-10.79341,3.83442-13.78839,6.90079-28.15357a46.466,46.466,0,0,0,.52-6.2892q.13767-1.85694.25267-3.71521c1.31707-21.71743.4521-43.327-4.22907-64.658-1.60429-7.31077-5.00786-8.90291-9.98817-2.48-6.35132,8.19138-13.01439,16.209-18.61937,24.8975-3.6922,5.72338-7.2443,11.52323-10.5582,17.44154q-.9941,1.77549-1.959,3.56546-.48234.89515-.9565,1.79409-.94891,1.79791-1.86467,3.61193-.48619.96381-.96281,1.93228c-2.54071,5.16572-4.86682,10.43525-6.91761,15.8345-.51281,1.34975-2.30438,9.99576-6.1304,22.43031" class="cls-12"/><path d="M1772.32924,435.45182q-.48619.96381-.96281,1.93228" class="cls-30"/><path d="M1774.19391,431.83989q-.94891,1.79791-1.86467,3.61193" class="cls-30"/><path d="M1820.25156,454.99453q-.23328,3.14623-.52,6.2892Q1820.01489,458.14064,1820.25156,454.99453Z" class="cls-12"/><path d="M1777.10942,426.48034q-.9941,1.77549-1.959,3.56546" class="cls-30"/><path d="M1813.8435,502.24542l.06142-.21379" class="cls-31"/><path d="M1763.87763,602.21739c-.01378.02219-.02709.04466-.0411.06685l.05768-.06644Z" class="cls-3"/><path d="M2013.20678,555.96619c2.67389-12.26442,2.6181-12.93351-10.26757-13.8291-15.19854-5.02133-25.24944-14.6021-27.52241-31.07226,10.55171-46.71272,27.23681-89.17062,76.01911-109.26349,3.17541-1.30791,3.37106-2.4938.46045-4.24266a3.37457,3.37457,0,0,0,.49611-1.86134c4.31505-1.81993,9.235-8.70088,13.019-1.43692,2.64721,5.082,7.579,5.63519,10.55815,9.2053-2.98667.568-6.1972-2.67639-9.47286.26582,31.322,42.90237,26.92813,88.618,12.26733,135.23222-9.10948,12.92957-21.30047,16.86257-36.48387,12.90869-15.08682-3.92892-15.26429-3.815-19.38624,11.52411-2.53016,9.41568-4.55923,16.70076-6.81327,26.19061.0705,1.82569-2.34951,7.88868-2.19478,8.62152-2.26528,11.32639-4.01866,16.91723-6.99772,27.76077.20189,1.68784-5.0381,10.64762-2.50044,7.40555a1.00936,1.00936,0,0,0-.53884,1.19812c-9.70114,5.52084-8.87448-2.34944-9.93959-7.81318q2.97816-10.03924,5.95377-20.07621.31785-1.14.64089-2.28549.934-3.76537,1.86708-7.5293" class="cls-3"/><path d="M2124.57921,435.29564a149.33934,149.33934,0,0,0-36.39044-26.346c-10.8751-5.5548-23.95686-7.48327-23.95686-7.48327,31.32122,42.90228,29.1931,90.88319,14.52521,137.50555,8.236,16.1683,22.2037,23.62724,39.50852,26.03354a16.61064,16.61064,0,0,1,2.16572.62218c21.37414,6.05475,38.054-4.30547,40.7031-26.06175C2166.082,498.91394,2153.96919,464.027,2124.57921,435.29564Z" class="cls-2"/><path d="M1975.4168,511.06483c-20.44837,13.96205-40.82623,7.23119-60.65583-1.061-12.43387-5.19943-16.60373-16.78168-13.02982-30.96185,1.5418-6.11721,3.52862-12.12228,5.311-18.17885,20.31971-36.16771,51.23158-57.38722,91.77241-65.01892q2.63572-.51685,5.2734-1.03012,4.63773-.301,9.263-.60743c3.14526.54134,5.06552.127,9.46932.22746q8.67264.57141,17.33214,1.14143,5.85885.99017,11.744,1.98309c2.91061,1.74886,2.715,2.93475-.46045,4.24266C2002.65361,421.89421,1985.96851,464.35211,1975.4168,511.06483Z" class="cls-2"/></svg>