<svg width="1041" height="664" viewBox="0 0 1041 664" fill="none" xmlns="http://www.w3.org/2000/svg">
<rect x="775.5" y="102.5" width="263" height="498" fill="#CACACA" stroke="#466BB0" stroke-width="5"/>
<path d="M350.156 337.514C350.992 335.771 350.257 333.68 348.514 332.844L320.113 319.22C318.37 318.383 316.279 319.119 315.443 320.861C314.607 322.604 315.342 324.695 317.085 325.531L342.33 337.642L330.22 362.887C329.383 364.63 330.118 366.721 331.861 367.557C333.604 368.393 335.695 367.658 336.531 365.915L350.156 337.514ZM129.161 416.302L348.161 339.302L345.839 332.698L126.839 409.698L129.161 416.302Z" fill="#D62783"/>
<path d="M354.754 532.029C356.426 531.06 356.997 528.919 356.029 527.246L340.246 499.985C339.278 498.313 337.137 497.742 335.464 498.71C333.791 499.679 333.22 501.82 334.188 503.493L348.217 527.725L323.985 541.754C322.313 542.722 321.742 544.863 322.71 546.536C323.679 548.209 325.82 548.78 327.493 547.812L354.754 532.029ZM127.098 472.382L352.098 532.382L353.902 525.618L128.902 465.618L127.098 472.382Z" fill="#D62783"/>
<path d="M774.181 127.295C776 126.643 776.947 124.639 776.295 122.819L765.67 93.1654C765.018 91.3457 763.014 90.399 761.195 91.051C759.375 91.703 758.428 93.7067 759.08 95.5264L768.525 121.886L742.165 131.33C740.346 131.982 739.399 133.986 740.051 135.805C740.703 137.625 742.707 138.572 744.526 137.92L774.181 127.295ZM517.505 7.1646L771.505 127.165L774.495 120.835L520.495 0.835397L517.505 7.1646Z" fill="#9E9E9E"/>
<path d="M72.5646 375.669C72.9343 377.567 74.7721 378.805 76.6694 378.435L107.588 372.411C109.485 372.041 110.724 370.204 110.354 368.306C109.984 366.409 108.146 365.171 106.249 365.54L78.766 370.895L73.411 343.412C73.0413 341.515 71.2036 340.276 69.3062 340.646C67.4089 341.016 66.1705 342.853 66.5402 344.751L72.5646 375.669ZM323.097 2.04413L73.0975 373.044L78.9025 376.956L328.903 5.95587L323.097 2.04413Z" fill="#9E9E9E"/>
<path d="M6.555 550.276C9.269 550.276 11.73 548.62 11.73 545.929C11.73 542.962 8.97 542.065 6.532 541.122C4.6 540.386 2.99 539.673 2.99 537.833C2.99 536.131 4.462 535.188 6.233 535.188C8.027 535.188 9.43 536.085 9.637 537.787C9.66 538.063 9.821 538.224 10.097 538.224H10.81C11.109 538.224 11.27 538.063 11.247 537.741C11.017 535.096 8.786 533.624 6.233 533.624C3.726 533.624 1.38 535.165 1.38 537.833C1.38 540.961 4.071 541.789 6.509 542.709C8.418 543.422 10.12 544.181 10.12 545.929C10.12 547.654 8.533 548.712 6.555 548.712C4.393 548.712 2.783 547.7 2.553 545.791C2.53 545.492 2.369 545.331 2.093 545.331H1.38C1.081 545.331 0.92 545.492 0.943 545.814C1.173 548.689 3.657 550.276 6.555 550.276ZM19.4535 538.224C15.8885 538.224 13.5655 540.869 13.5655 544.25C13.5655 547.723 15.9345 550.276 19.4535 550.276C21.7995 550.276 23.6855 549.057 24.4675 547.309C24.5825 547.033 24.3985 546.849 24.0535 546.849H23.3175C23.0645 546.849 22.9035 546.964 22.7655 547.171C22.1905 548.114 21.0175 548.804 19.4765 548.804C17.1305 548.804 15.4285 547.355 15.1295 545.009H23.4785H24.5595C24.8355 545.009 25.0195 544.871 25.0425 544.572V544.296C25.0425 541.145 22.9725 538.224 19.4535 538.224ZM19.4535 539.696C21.4085 539.696 23.1795 541.007 23.4555 543.537H15.1065C15.4055 541.306 17.0155 539.696 19.4535 539.696ZM32.0422 538.339C30.7772 538.454 29.6502 538.96 28.8682 540.271V538.96C28.8682 538.661 28.7072 538.5 28.4082 538.5H27.8102C27.5112 538.5 27.3502 538.661 27.3502 538.96V549.54C27.3502 549.839 27.5112 550 27.8102 550H28.4082C28.7072 550 28.8682 549.839 28.8682 549.54V543.606C28.8682 540.915 30.4782 539.903 32.2032 539.788C32.3872 539.788 32.5022 539.604 32.5022 539.328V538.776C32.5022 538.477 32.3412 538.316 32.0422 538.339ZM42.9777 538.5H42.3337C42.0807 538.5 41.8967 538.615 41.8047 538.868L38.3777 548.344L34.9507 538.868C34.8587 538.615 34.6747 538.5 34.4217 538.5H33.7777C33.4557 538.5 33.2947 538.707 33.4097 539.029L37.3197 549.632C37.4117 549.862 37.5957 550 37.8487 550H38.3317H38.9067C39.1597 550 39.3437 549.885 39.4357 549.632L43.3457 539.029C43.4607 538.707 43.2997 538.5 42.9777 538.5ZM45.8464 536.2H46.4444C46.7434 536.2 46.9044 536.039 46.9044 535.74V534.36C46.9044 534.061 46.7434 533.9 46.4444 533.9H45.8464C45.5474 533.9 45.3864 534.061 45.3864 534.36V535.74C45.3864 536.039 45.5474 536.2 45.8464 536.2ZM45.8464 550H46.4444C46.7434 550 46.9044 549.839 46.9044 549.54V538.96C46.9044 538.661 46.7434 538.5 46.4444 538.5H45.8464C45.5474 538.5 45.3864 538.661 45.3864 538.96V549.54C45.3864 549.839 45.5474 550 45.8464 550ZM60.4526 546.32H59.7856C59.5326 546.32 59.3486 546.435 59.2336 546.665C58.5666 547.953 57.1636 548.804 55.4846 548.804C52.9316 548.804 50.9536 546.803 50.9536 544.25C50.9536 541.697 52.9316 539.696 55.4846 539.696C57.1406 539.696 58.5436 540.524 59.2336 541.835C59.3486 542.065 59.5326 542.18 59.7856 542.18H60.4526C60.7746 542.18 60.9586 541.973 60.8206 541.651C59.9926 539.604 57.9226 538.224 55.4846 538.224C52.0116 538.224 49.4356 540.846 49.4356 544.25C49.4356 547.654 52.0116 550.276 55.4846 550.276C57.9226 550.276 60.0156 548.896 60.8206 546.849C60.9586 546.527 60.7746 546.32 60.4526 546.32ZM68.5082 538.224C64.9432 538.224 62.6202 540.869 62.6202 544.25C62.6202 547.723 64.9892 550.276 68.5082 550.276C70.8542 550.276 72.7402 549.057 73.5222 547.309C73.6372 547.033 73.4532 546.849 73.1082 546.849H72.3722C72.1192 546.849 71.9582 546.964 71.8202 547.171C71.2452 548.114 70.0722 548.804 68.5312 548.804C66.1852 548.804 64.4832 547.355 64.1842 545.009H72.5332H73.6142C73.8902 545.009 74.0742 544.871 74.0972 544.572V544.296C74.0972 541.145 72.0272 538.224 68.5082 538.224ZM68.5082 539.696C70.4632 539.696 72.2342 541.007 72.5102 543.537H64.1612C64.4602 541.306 66.0702 539.696 68.5082 539.696ZM87.0999 550.276C89.8139 550.276 92.2749 548.62 92.2749 545.929C92.2749 542.962 89.5149 542.065 87.0769 541.122C85.1449 540.386 83.5349 539.673 83.5349 537.833C83.5349 536.131 85.0069 535.188 86.7779 535.188C88.5719 535.188 89.9749 536.085 90.1819 537.787C90.2049 538.063 90.3659 538.224 90.6419 538.224H91.3549C91.6539 538.224 91.8149 538.063 91.7919 537.741C91.5619 535.096 89.3309 533.624 86.7779 533.624C84.2709 533.624 81.9249 535.165 81.9249 537.833C81.9249 540.961 84.6159 541.789 87.0539 542.709C88.9629 543.422 90.6649 544.181 90.6649 545.929C90.6649 547.654 89.0779 548.712 87.0999 548.712C84.9379 548.712 83.3279 547.7 83.0979 545.791C83.0749 545.492 82.9139 545.331 82.6379 545.331H81.9249C81.6259 545.331 81.4649 545.492 81.4879 545.814C81.7179 548.689 84.2019 550.276 87.0999 550.276ZM100.964 538.224C98.8944 538.224 97.2614 539.213 96.3184 540.754V538.96C96.3184 538.661 96.1574 538.5 95.8584 538.5H95.2604C94.9614 538.5 94.8004 538.661 94.8004 538.96V554.14C94.8004 554.439 94.9614 554.6 95.2604 554.6H95.8584C96.1574 554.6 96.3184 554.439 96.3184 554.14V547.769C97.2614 549.31 98.8944 550.276 100.964 550.276C104.207 550.276 106.898 547.654 106.898 544.25C106.898 540.846 104.207 538.224 100.964 538.224ZM100.849 548.804C98.2964 548.804 96.3184 546.803 96.3184 544.25C96.3184 541.697 98.2964 539.696 100.849 539.696C103.402 539.696 105.38 541.697 105.38 544.25C105.38 546.803 103.402 548.804 100.849 548.804ZM109.883 550H110.481C110.78 550 110.941 549.839 110.941 549.54V533.9C110.941 533.601 110.78 533.44 110.481 533.44H109.883C109.584 533.44 109.423 533.601 109.423 533.9V549.54C109.423 549.839 109.584 550 109.883 550ZM114.622 536.2H115.22C115.519 536.2 115.68 536.039 115.68 535.74V534.36C115.68 534.061 115.519 533.9 115.22 533.9H114.622C114.323 533.9 114.162 534.061 114.162 534.36V535.74C114.162 536.039 114.323 536.2 114.622 536.2ZM114.622 550H115.22C115.519 550 115.68 549.839 115.68 549.54V538.96C115.68 538.661 115.519 538.5 115.22 538.5H114.622C114.323 538.5 114.162 538.661 114.162 538.96V549.54C114.162 549.839 114.323 550 114.622 550ZM123.616 538.5H121.684V535.28C121.684 534.981 121.523 534.82 121.224 534.82H120.626C120.327 534.82 120.166 534.981 120.166 535.28V538.5H118.211C117.912 538.5 117.751 538.661 117.751 538.96V539.512C117.751 539.811 117.912 539.972 118.211 539.972H120.166V549.54C120.166 549.839 120.327 550 120.626 550H121.224C121.523 550 121.684 549.839 121.684 549.54V539.972H123.616C123.915 539.972 124.076 539.811 124.076 539.512V538.96C124.076 538.661 123.915 538.5 123.616 538.5ZM130.871 538.5H128.939V535.28C128.939 534.981 128.778 534.82 128.479 534.82H127.881C127.582 534.82 127.421 534.981 127.421 535.28V538.5H125.466C125.167 538.5 125.006 538.661 125.006 538.96V539.512C125.006 539.811 125.167 539.972 125.466 539.972H127.421V549.54C127.421 549.839 127.582 550 127.881 550H128.479C128.778 550 128.939 549.839 128.939 549.54V539.972H130.871C131.17 539.972 131.331 539.811 131.331 539.512V538.96C131.331 538.661 131.17 538.5 130.871 538.5ZM138.16 538.224C134.595 538.224 132.272 540.869 132.272 544.25C132.272 547.723 134.641 550.276 138.16 550.276C140.506 550.276 142.392 549.057 143.174 547.309C143.289 547.033 143.105 546.849 142.76 546.849H142.024C141.771 546.849 141.61 546.964 141.472 547.171C140.897 548.114 139.724 548.804 138.183 548.804C135.837 548.804 134.135 547.355 133.836 545.009H142.185H143.266C143.542 545.009 143.726 544.871 143.749 544.572V544.296C143.749 541.145 141.679 538.224 138.16 538.224ZM138.16 539.696C140.115 539.696 141.886 541.007 142.162 543.537H133.813C134.112 541.306 135.722 539.696 138.16 539.696ZM150.748 538.339C149.483 538.454 148.356 538.96 147.574 540.271V538.96C147.574 538.661 147.413 538.5 147.114 538.5H146.516C146.217 538.5 146.056 538.661 146.056 538.96V549.54C146.056 549.839 146.217 550 146.516 550H147.114C147.413 550 147.574 549.839 147.574 549.54V543.606C147.574 540.915 149.184 539.903 150.909 539.788C151.093 539.788 151.208 539.604 151.208 539.328V538.776C151.208 538.477 151.047 538.316 150.748 538.339Z" fill="black"/>
<path d="M894.59 315.9H890.45H889.3C889.001 315.9 888.84 316.061 888.84 316.36V331.54C888.84 331.839 889.001 332 889.3 332H889.99C890.289 332 890.45 331.839 890.45 331.54V325.56H894.59C897.258 325.56 899.42 323.375 899.42 320.73C899.42 318.062 897.258 315.9 894.59 315.9ZM894.59 324.042H890.45V317.418H894.59C896.361 317.418 897.81 318.89 897.81 320.73C897.81 322.547 896.361 324.042 894.59 324.042ZM906.39 332.276C909.748 332.276 912.439 329.654 912.439 326.25C912.439 322.846 909.748 320.224 906.39 320.224C903.032 320.224 900.341 322.846 900.341 326.25C900.341 329.654 903.032 332.276 906.39 332.276ZM906.39 330.804C903.837 330.804 901.859 328.803 901.859 326.25C901.859 323.697 903.837 321.696 906.39 321.696C908.943 321.696 910.921 323.697 910.921 326.25C910.921 328.803 908.943 330.804 906.39 330.804ZM925.927 315.9H925.329C925.03 315.9 924.869 316.061 924.869 316.36V322.754C923.903 321.213 922.27 320.224 920.223 320.224C916.98 320.224 914.289 322.846 914.289 326.25C914.289 329.654 916.98 332.276 920.223 332.276C922.27 332.276 923.903 331.31 924.869 329.769V331.54C924.869 331.839 925.03 332 925.329 332H925.927C926.226 332 926.387 331.839 926.387 331.54V316.36C926.387 316.061 926.226 315.9 925.927 315.9ZM920.338 330.804C917.785 330.804 915.807 328.803 915.807 326.25C915.807 323.697 917.785 321.696 920.338 321.696C922.891 321.696 924.869 323.697 924.869 326.25C924.869 328.803 922.891 330.804 920.338 330.804Z" fill="black"/>
<path d="M894.59 524.9H890.45H889.3C889.001 524.9 888.84 525.061 888.84 525.36V540.54C888.84 540.839 889.001 541 889.3 541H889.99C890.289 541 890.45 540.839 890.45 540.54V534.56H894.59C897.258 534.56 899.42 532.375 899.42 529.73C899.42 527.062 897.258 524.9 894.59 524.9ZM894.59 533.042H890.45V526.418H894.59C896.361 526.418 897.81 527.89 897.81 529.73C897.81 531.547 896.361 533.042 894.59 533.042ZM906.39 541.276C909.748 541.276 912.439 538.654 912.439 535.25C912.439 531.846 909.748 529.224 906.39 529.224C903.032 529.224 900.341 531.846 900.341 535.25C900.341 538.654 903.032 541.276 906.39 541.276ZM906.39 539.804C903.837 539.804 901.859 537.803 901.859 535.25C901.859 532.697 903.837 530.696 906.39 530.696C908.943 530.696 910.921 532.697 910.921 535.25C910.921 537.803 908.943 539.804 906.39 539.804ZM925.927 524.9H925.329C925.03 524.9 924.869 525.061 924.869 525.36V531.754C923.903 530.213 922.27 529.224 920.223 529.224C916.98 529.224 914.289 531.846 914.289 535.25C914.289 538.654 916.98 541.276 920.223 541.276C922.27 541.276 923.903 540.31 924.869 538.769V540.54C924.869 540.839 925.03 541 925.329 541H925.927C926.226 541 926.387 540.839 926.387 540.54V525.36C926.387 525.061 926.226 524.9 925.927 524.9ZM920.338 539.804C917.785 539.804 915.807 537.803 915.807 535.25C915.807 532.697 917.785 530.696 920.338 530.696C922.891 530.696 924.869 532.697 924.869 535.25C924.869 537.803 922.891 539.804 920.338 539.804Z" fill="black"/>
<path d="M486.433 271.731L431.085 231.518C423.199 225.789 412.52 225.789 404.634 231.518L349.286 271.731C341.4 277.461 338.1 287.617 341.113 296.887L362.254 361.953C365.266 371.223 373.905 377.5 383.653 377.5H452.067C461.814 377.5 470.453 371.223 473.466 361.953L494.607 296.887C497.619 287.617 494.319 277.461 486.433 271.731Z" fill="#326CE5" fill-opacity="0.1" stroke="#326CE5" stroke-width="5"/>
<path d="M307.558 427.425L300.152 419.743L307.328 412.475C307.604 412.199 307.466 411.9 307.075 411.9H306.086C305.856 411.9 305.695 411.969 305.534 412.13L298.45 419.26V412.36C298.45 412.061 298.289 411.9 297.99 411.9H297.3C297.001 411.9 296.84 412.061 296.84 412.36V427.54C296.84 427.839 297.001 428 297.3 428H297.99C298.289 428 298.45 427.839 298.45 427.54V420.203L305.764 427.77C305.925 427.954 306.109 428 306.339 428H307.328C307.719 428 307.834 427.724 307.558 427.425ZM317.737 416.5H317.139C316.84 416.5 316.679 416.661 316.679 416.96V422.986C316.679 425.838 314.977 426.804 313.413 426.804C311.872 426.804 310.745 425.838 310.745 424.021V416.96C310.745 416.661 310.584 416.5 310.285 416.5H309.687C309.388 416.5 309.227 416.661 309.227 416.96V424.021C309.227 426.666 310.998 428.276 313.137 428.276C314.517 428.276 315.759 427.862 316.656 426.482V427.54C316.656 427.839 316.817 428 317.116 428H317.714C318.013 428 318.174 427.839 318.174 427.54V416.96C318.174 416.661 318.013 416.5 317.714 416.5H317.737ZM327.571 416.224C325.501 416.224 323.868 417.213 322.925 418.754V412.36C322.925 412.061 322.764 411.9 322.465 411.9H321.867C321.568 411.9 321.407 412.061 321.407 412.36V427.54C321.407 427.839 321.568 428 321.867 428H322.465C322.764 428 322.925 427.839 322.925 427.54V425.769C323.868 427.31 325.501 428.276 327.571 428.276C330.814 428.276 333.505 425.654 333.505 422.25C333.505 418.846 330.814 416.224 327.571 416.224ZM327.456 426.804C324.903 426.804 322.925 424.803 322.925 422.25C322.925 419.697 324.903 417.696 327.456 417.696C330.009 417.696 331.987 419.697 331.987 422.25C331.987 424.803 330.009 426.804 327.456 426.804ZM341.227 416.224C337.662 416.224 335.339 418.869 335.339 422.25C335.339 425.723 337.708 428.276 341.227 428.276C343.573 428.276 345.459 427.057 346.241 425.309C346.356 425.033 346.172 424.849 345.827 424.849H345.091C344.838 424.849 344.677 424.964 344.539 425.171C343.964 426.114 342.791 426.804 341.25 426.804C338.904 426.804 337.202 425.355 336.903 423.009H345.252H346.333C346.609 423.009 346.793 422.871 346.816 422.572V422.296C346.816 419.145 344.746 416.224 341.227 416.224ZM341.227 417.696C343.182 417.696 344.953 419.007 345.229 421.537H336.88C337.179 419.306 338.789 417.696 341.227 417.696ZM353.816 416.339C352.551 416.454 351.424 416.96 350.642 418.271V416.96C350.642 416.661 350.481 416.5 350.182 416.5H349.584C349.285 416.5 349.124 416.661 349.124 416.96V427.54C349.124 427.839 349.285 428 349.584 428H350.182C350.481 428 350.642 427.839 350.642 427.54V421.606C350.642 418.915 352.252 417.903 353.977 417.788C354.161 417.788 354.276 417.604 354.276 417.328V416.776C354.276 416.477 354.115 416.316 353.816 416.339ZM361.416 416.224C360.013 416.224 358.771 416.661 357.874 418.041V416.96C357.874 416.661 357.713 416.5 357.414 416.5H356.816C356.517 416.5 356.356 416.661 356.356 416.96V427.54C356.356 427.839 356.517 428 356.816 428H357.414C357.713 428 357.874 427.839 357.874 427.54V421.514C357.874 418.662 359.576 417.696 361.14 417.696C362.681 417.696 363.808 418.662 363.808 420.479V427.54C363.808 427.839 363.969 428 364.268 428H364.866C365.165 428 365.326 427.839 365.326 427.54V420.479C365.326 417.834 363.555 416.224 361.416 416.224ZM373.458 416.224C369.893 416.224 367.57 418.869 367.57 422.25C367.57 425.723 369.939 428.276 373.458 428.276C375.804 428.276 377.69 427.057 378.472 425.309C378.587 425.033 378.403 424.849 378.058 424.849H377.322C377.069 424.849 376.908 424.964 376.77 425.171C376.195 426.114 375.022 426.804 373.481 426.804C371.135 426.804 369.433 425.355 369.134 423.009H377.483H378.564C378.84 423.009 379.024 422.871 379.047 422.572V422.296C379.047 419.145 376.977 416.224 373.458 416.224ZM373.458 417.696C375.413 417.696 377.184 419.007 377.46 421.537H369.111C369.41 419.306 371.02 417.696 373.458 417.696ZM385.958 416.5H384.026V413.28C384.026 412.981 383.865 412.82 383.566 412.82H382.968C382.669 412.82 382.508 412.981 382.508 413.28V416.5H380.553C380.254 416.5 380.093 416.661 380.093 416.96V417.512C380.093 417.811 380.254 417.972 380.553 417.972H382.508V427.54C382.508 427.839 382.669 428 382.968 428H383.566C383.865 428 384.026 427.839 384.026 427.54V417.972H385.958C386.257 417.972 386.418 417.811 386.418 417.512V416.96C386.418 416.661 386.257 416.5 385.958 416.5ZM393.246 416.224C389.681 416.224 387.358 418.869 387.358 422.25C387.358 425.723 389.727 428.276 393.246 428.276C395.592 428.276 397.478 427.057 398.26 425.309C398.375 425.033 398.191 424.849 397.846 424.849H397.11C396.857 424.849 396.696 424.964 396.558 425.171C395.983 426.114 394.81 426.804 393.269 426.804C390.923 426.804 389.221 425.355 388.922 423.009H397.271H398.352C398.628 423.009 398.812 422.871 398.835 422.572V422.296C398.835 419.145 396.765 416.224 393.246 416.224ZM393.246 417.696C395.201 417.696 396.972 419.007 397.248 421.537H388.899C389.198 419.306 390.808 417.696 393.246 417.696ZM402.316 419.513C402.316 418.225 403.604 417.696 404.823 417.696C405.927 417.696 407.077 418.133 407.284 419.398C407.353 419.674 407.491 419.835 407.767 419.835H408.365C408.664 419.835 408.848 419.674 408.825 419.352C408.595 417.42 406.985 416.224 404.823 416.224C402.5 416.224 400.798 417.627 400.798 419.513C400.798 423.814 407.56 422.066 407.56 424.987C407.56 426.275 406.272 426.804 404.823 426.804C403.512 426.804 402.339 426.367 402.132 425.102C402.063 424.826 401.925 424.665 401.649 424.665H401.051C400.752 424.665 400.568 424.826 400.591 425.148C400.821 427.08 402.454 428.276 404.823 428.276C407.376 428.276 409.078 426.873 409.078 424.987C409.078 420.686 402.316 422.434 402.316 419.513ZM424.372 411.9H419.312H418.162C417.863 411.9 417.702 412.061 417.702 412.36V427.54C417.702 427.839 417.863 428 418.162 428H418.392H424.372C428.811 428 431.962 424.389 431.962 419.95C431.962 415.511 428.811 411.9 424.372 411.9ZM424.372 426.482H419.312V413.418H424.372C427.96 413.418 430.398 416.339 430.398 419.95C430.398 423.561 427.96 426.482 424.372 426.482ZM439.808 416.224C436.243 416.224 433.92 418.869 433.92 422.25C433.92 425.723 436.289 428.276 439.808 428.276C442.154 428.276 444.04 427.057 444.822 425.309C444.937 425.033 444.753 424.849 444.408 424.849H443.672C443.419 424.849 443.258 424.964 443.12 425.171C442.545 426.114 441.372 426.804 439.831 426.804C437.485 426.804 435.783 425.355 435.484 423.009H443.833H444.914C445.19 423.009 445.374 422.871 445.397 422.572V422.296C445.397 419.145 443.327 416.224 439.808 416.224ZM439.808 417.696C441.763 417.696 443.534 419.007 443.81 421.537H435.461C435.76 419.306 437.37 417.696 439.808 417.696ZM453.869 416.224C451.799 416.224 450.166 417.213 449.223 418.754V416.96C449.223 416.661 449.062 416.5 448.763 416.5H448.165C447.866 416.5 447.705 416.661 447.705 416.96V432.14C447.705 432.439 447.866 432.6 448.165 432.6H448.763C449.062 432.6 449.223 432.439 449.223 432.14V425.769C450.166 427.31 451.799 428.276 453.869 428.276C457.112 428.276 459.803 425.654 459.803 422.25C459.803 418.846 457.112 416.224 453.869 416.224ZM453.754 426.804C451.201 426.804 449.223 424.803 449.223 422.25C449.223 419.697 451.201 417.696 453.754 417.696C456.307 417.696 458.285 419.697 458.285 422.25C458.285 424.803 456.307 426.804 453.754 426.804ZM462.787 428H463.385C463.684 428 463.845 427.839 463.845 427.54V411.9C463.845 411.601 463.684 411.44 463.385 411.44H462.787C462.488 411.44 462.327 411.601 462.327 411.9V427.54C462.327 427.839 462.488 428 462.787 428ZM472.425 428.276C475.783 428.276 478.474 425.654 478.474 422.25C478.474 418.846 475.783 416.224 472.425 416.224C469.067 416.224 466.376 418.846 466.376 422.25C466.376 425.654 469.067 428.276 472.425 428.276ZM472.425 426.804C469.872 426.804 467.894 424.803 467.894 422.25C467.894 419.697 469.872 417.696 472.425 417.696C474.978 417.696 476.956 419.697 476.956 422.25C476.956 424.803 474.978 426.804 472.425 426.804ZM487.787 416.868L484.613 425.792L480.933 416.845C480.841 416.592 480.657 416.5 480.404 416.5H479.76C479.415 416.5 479.277 416.707 479.415 417.029L483.854 427.908L482.382 432.071C482.267 432.393 482.428 432.6 482.75 432.6H483.417C483.67 432.6 483.854 432.485 483.946 432.232L489.351 417.029C489.466 416.707 489.305 416.5 488.983 416.5H488.316C488.063 416.5 487.879 416.615 487.787 416.868ZM502.455 416.224C501.167 416.224 499.925 416.661 499.028 418.179C498.407 416.891 497.211 416.224 495.946 416.224C494.865 416.224 493.738 416.615 492.864 417.834V416.96C492.864 416.661 492.703 416.5 492.404 416.5H491.806C491.507 416.5 491.346 416.661 491.346 416.96V427.54C491.346 427.839 491.507 428 491.806 428H492.404C492.703 428 492.864 427.839 492.864 427.54V421.054C492.864 418.432 494.52 417.696 495.67 417.696C496.889 417.696 497.947 418.432 497.947 420.249V427.54C497.947 427.839 498.108 428 498.407 428H499.005C499.304 428 499.465 427.839 499.465 427.54V421.054C499.465 418.432 501.121 417.696 502.271 417.696C503.49 417.696 504.548 418.432 504.548 420.249V427.54C504.548 427.839 504.709 428 505.008 428H505.606C505.905 428 506.066 427.839 506.066 427.54V420.249C506.066 417.604 504.364 416.224 502.432 416.224H502.455ZM514.221 416.224C510.656 416.224 508.333 418.869 508.333 422.25C508.333 425.723 510.702 428.276 514.221 428.276C516.567 428.276 518.453 427.057 519.235 425.309C519.35 425.033 519.166 424.849 518.821 424.849H518.085C517.832 424.849 517.671 424.964 517.533 425.171C516.958 426.114 515.785 426.804 514.244 426.804C511.898 426.804 510.196 425.355 509.897 423.009H518.246H519.327C519.603 423.009 519.787 422.871 519.81 422.572V422.296C519.81 419.145 517.74 416.224 514.221 416.224ZM514.221 417.696C516.176 417.696 517.947 419.007 518.223 421.537H509.874C510.173 419.306 511.783 417.696 514.221 417.696ZM527.178 416.224C525.775 416.224 524.533 416.661 523.636 418.041V416.96C523.636 416.661 523.475 416.5 523.176 416.5H522.578C522.279 416.5 522.118 416.661 522.118 416.96V427.54C522.118 427.839 522.279 428 522.578 428H523.176C523.475 428 523.636 427.839 523.636 427.54V421.514C523.636 418.662 525.338 417.696 526.902 417.696C528.443 417.696 529.57 418.662 529.57 420.479V427.54C529.57 427.839 529.731 428 530.03 428H530.628C530.927 428 531.088 427.839 531.088 427.54V420.479C531.088 417.834 529.317 416.224 527.178 416.224ZM538.737 416.5H536.805V413.28C536.805 412.981 536.644 412.82 536.345 412.82H535.747C535.448 412.82 535.287 412.981 535.287 413.28V416.5H533.332C533.033 416.5 532.872 416.661 532.872 416.96V417.512C532.872 417.811 533.033 417.972 533.332 417.972H535.287V427.54C535.287 427.839 535.448 428 535.747 428H536.345C536.644 428 536.805 427.839 536.805 427.54V417.972H538.737C539.036 417.972 539.197 417.811 539.197 417.512V416.96C539.197 416.661 539.036 416.5 538.737 416.5Z" fill="black"/>
<path d="M375.053 658.471L369.211 643.268C369.119 643.038 368.935 642.9 368.682 642.9H367.808C367.555 642.9 367.371 643.038 367.279 643.268L361.437 658.471C361.322 658.793 361.46 659 361.805 659H362.541C362.794 659 362.978 658.862 363.07 658.632L364.404 655.044H372.063L373.397 658.632C373.489 658.862 373.673 659 373.926 659H374.662C375.007 659 375.145 658.793 375.03 658.471H375.053ZM364.979 653.526L368.222 644.901L371.488 653.526H364.979ZM383.077 642.9H378.937H377.787C377.488 642.9 377.327 643.061 377.327 643.36V658.54C377.327 658.839 377.488 659 377.787 659H378.477C378.776 659 378.937 658.839 378.937 658.54V652.56H383.077C385.745 652.56 387.907 650.375 387.907 647.73C387.907 645.062 385.745 642.9 383.077 642.9ZM383.077 651.042H378.937V644.418H383.077C384.848 644.418 386.297 645.89 386.297 647.73C386.297 649.547 384.848 651.042 383.077 651.042ZM390.669 643.36V658.54C390.669 658.839 390.83 659 391.129 659H391.819C392.118 659 392.279 658.839 392.279 658.54V643.36C392.279 643.061 392.118 642.9 391.819 642.9H391.129C390.83 642.9 390.669 643.061 390.669 643.36ZM406.435 659.276C409.149 659.276 411.61 657.62 411.61 654.929C411.61 651.962 408.85 651.065 406.412 650.122C404.48 649.386 402.87 648.673 402.87 646.833C402.87 645.131 404.342 644.188 406.113 644.188C407.907 644.188 409.31 645.085 409.517 646.787C409.54 647.063 409.701 647.224 409.977 647.224H410.69C410.989 647.224 411.15 647.063 411.127 646.741C410.897 644.096 408.666 642.624 406.113 642.624C403.606 642.624 401.26 644.165 401.26 646.833C401.26 649.961 403.951 650.789 406.389 651.709C408.298 652.422 410 653.181 410 654.929C410 656.654 408.413 657.712 406.435 657.712C404.273 657.712 402.663 656.7 402.433 654.791C402.41 654.492 402.249 654.331 401.973 654.331H401.26C400.961 654.331 400.8 654.492 400.823 654.814C401.053 657.689 403.537 659.276 406.435 659.276ZM419.333 647.224C415.768 647.224 413.445 649.869 413.445 653.25C413.445 656.723 415.814 659.276 419.333 659.276C421.679 659.276 423.565 658.057 424.347 656.309C424.462 656.033 424.278 655.849 423.933 655.849H423.197C422.944 655.849 422.783 655.964 422.645 656.171C422.07 657.114 420.897 657.804 419.356 657.804C417.01 657.804 415.308 656.355 415.009 654.009H423.358H424.439C424.715 654.009 424.899 653.871 424.922 653.572V653.296C424.922 650.145 422.852 647.224 419.333 647.224ZM419.333 648.696C421.288 648.696 423.059 650.007 423.335 652.537H414.986C415.285 650.306 416.895 648.696 419.333 648.696ZM431.922 647.339C430.657 647.454 429.53 647.96 428.748 649.271V647.96C428.748 647.661 428.587 647.5 428.288 647.5H427.69C427.391 647.5 427.23 647.661 427.23 647.96V658.54C427.23 658.839 427.391 659 427.69 659H428.288C428.587 659 428.748 658.839 428.748 658.54V652.606C428.748 649.915 430.358 648.903 432.083 648.788C432.267 648.788 432.382 648.604 432.382 648.328V647.776C432.382 647.477 432.221 647.316 431.922 647.339ZM442.858 647.5H442.214C441.961 647.5 441.777 647.615 441.685 647.868L438.258 657.344L434.831 647.868C434.739 647.615 434.555 647.5 434.302 647.5H433.658C433.336 647.5 433.175 647.707 433.29 648.029L437.2 658.632C437.292 658.862 437.476 659 437.729 659H438.212H438.787C439.04 659 439.224 658.885 439.316 658.632L443.226 648.029C443.341 647.707 443.18 647.5 442.858 647.5ZM445.726 645.2H446.324C446.623 645.2 446.784 645.039 446.784 644.74V643.36C446.784 643.061 446.623 642.9 446.324 642.9H445.726C445.427 642.9 445.266 643.061 445.266 643.36V644.74C445.266 645.039 445.427 645.2 445.726 645.2ZM445.726 659H446.324C446.623 659 446.784 658.839 446.784 658.54V647.96C446.784 647.661 446.623 647.5 446.324 647.5H445.726C445.427 647.5 445.266 647.661 445.266 647.96V658.54C445.266 658.839 445.427 659 445.726 659ZM460.333 655.32H459.666C459.413 655.32 459.229 655.435 459.114 655.665C458.447 656.953 457.044 657.804 455.365 657.804C452.812 657.804 450.834 655.803 450.834 653.25C450.834 650.697 452.812 648.696 455.365 648.696C457.021 648.696 458.424 649.524 459.114 650.835C459.229 651.065 459.413 651.18 459.666 651.18H460.333C460.655 651.18 460.839 650.973 460.701 650.651C459.873 648.604 457.803 647.224 455.365 647.224C451.892 647.224 449.316 649.846 449.316 653.25C449.316 656.654 451.892 659.276 455.365 659.276C457.803 659.276 459.896 657.896 460.701 655.849C460.839 655.527 460.655 655.32 460.333 655.32ZM468.388 647.224C464.823 647.224 462.5 649.869 462.5 653.25C462.5 656.723 464.869 659.276 468.388 659.276C470.734 659.276 472.62 658.057 473.402 656.309C473.517 656.033 473.333 655.849 472.988 655.849H472.252C471.999 655.849 471.838 655.964 471.7 656.171C471.125 657.114 469.952 657.804 468.411 657.804C466.065 657.804 464.363 656.355 464.064 654.009H472.413H473.494C473.77 654.009 473.954 653.871 473.977 653.572V653.296C473.977 650.145 471.907 647.224 468.388 647.224ZM468.388 648.696C470.343 648.696 472.114 650.007 472.39 652.537H464.041C464.34 650.306 465.95 648.696 468.388 648.696Z" fill="black"/>
<path d="M456.772 504.101L425.262 488.927C419.093 485.956 411.907 485.956 405.738 488.927L374.228 504.101C368.059 507.071 363.579 512.69 362.055 519.366L354.273 553.461C352.749 560.137 354.348 567.143 358.618 572.496L380.423 599.839C384.692 605.193 391.166 608.311 398.014 608.311H432.986C439.834 608.311 446.308 605.193 450.577 599.839L472.382 572.496C476.652 567.143 478.251 560.137 476.727 553.461L468.945 519.366C467.421 512.69 462.941 507.071 456.772 504.101Z" fill="#326CE5" stroke="#326CE5" stroke-width="5"/>
<path d="M415.226 511.173C414.524 511.208 413.837 511.382 413.204 511.684L385.613 524.868C384.898 525.209 384.271 525.705 383.777 526.32C383.283 526.934 382.934 527.651 382.758 528.418L375.951 558.031C375.794 558.713 375.776 559.42 375.899 560.109C376.022 560.798 376.283 561.456 376.667 562.043C376.76 562.187 376.86 562.326 376.967 562.459L396.065 586.204C396.559 586.819 397.187 587.315 397.901 587.656C398.615 587.997 399.397 588.174 400.19 588.173L430.816 588.166C431.608 588.167 432.39 587.991 433.104 587.65C433.818 587.31 434.446 586.815 434.941 586.201L454.031 562.452C454.526 561.838 454.874 561.12 455.051 560.354C455.228 559.587 455.228 558.791 455.051 558.024L448.234 528.411C448.057 527.644 447.709 526.927 447.215 526.313C446.72 525.698 446.093 525.202 445.379 524.861L417.784 511.684C416.988 511.304 416.108 511.128 415.226 511.173V511.173Z" fill="white"/>
<path d="M415.5 521.25C414.588 521.25 413.848 522.072 413.849 523.085C413.849 523.1 413.852 523.115 413.852 523.131C413.851 523.269 413.844 523.434 413.849 523.554C413.87 524.139 413.998 524.586 414.074 525.125C414.213 526.277 414.33 527.232 414.258 528.12C414.188 528.455 413.941 528.762 413.721 528.974L413.683 529.673C412.692 529.755 411.694 529.906 410.697 530.132C406.409 531.105 402.717 533.314 399.906 536.297C399.724 536.172 399.405 535.943 399.31 535.873C399.015 535.913 398.717 536.004 398.329 535.778C397.59 535.28 396.917 534.594 396.102 533.766C395.729 533.371 395.459 532.994 395.016 532.613C394.915 532.526 394.761 532.409 394.649 532.32C394.302 532.043 393.893 531.899 393.498 531.886C392.991 531.868 392.502 532.067 392.182 532.468C391.613 533.181 391.796 534.271 392.588 534.903C392.596 534.909 392.604 534.914 392.613 534.92C392.721 535.009 392.855 535.122 392.955 535.196C393.425 535.543 393.855 535.721 394.324 535.997C395.312 536.607 396.131 537.112 396.78 537.722C397.034 537.992 397.078 538.469 397.112 538.675L397.641 539.148C394.807 543.412 393.496 548.679 394.271 554.046L393.579 554.247C393.397 554.483 393.14 554.853 392.87 554.964C392.02 555.231 391.064 555.329 389.91 555.451C389.367 555.496 388.9 555.469 388.325 555.578C388.199 555.602 388.022 555.647 387.884 555.68C387.879 555.681 387.875 555.682 387.87 555.683C387.862 555.685 387.852 555.689 387.845 555.69C386.872 555.926 386.247 556.82 386.448 557.702C386.649 558.584 387.6 559.12 388.579 558.909C388.586 558.907 388.597 558.907 388.604 558.905C388.615 558.903 388.625 558.897 388.636 558.895C388.772 558.865 388.943 558.831 389.063 558.799C389.628 558.648 390.037 558.426 390.545 558.231C391.637 557.839 392.542 557.512 393.424 557.384C393.792 557.355 394.18 557.612 394.373 557.72L395.093 557.596C396.75 562.732 400.221 566.883 404.617 569.488L404.317 570.208C404.425 570.487 404.545 570.865 404.464 571.141C404.144 571.973 403.595 572.85 402.969 573.828C402.667 574.28 402.357 574.631 402.084 575.148C402.018 575.272 401.935 575.462 401.872 575.593C401.448 576.501 401.759 577.547 402.574 577.939C403.395 578.334 404.413 577.918 404.854 577.008C404.854 577.006 404.857 577.005 404.857 577.004C404.858 577.003 404.857 577.002 404.857 577.001C404.92 576.872 405.009 576.702 405.062 576.581C405.296 576.045 405.374 575.585 405.538 575.067C405.975 573.969 406.215 572.818 406.817 572.1C406.982 571.903 407.25 571.828 407.529 571.753L407.903 571.076C411.735 572.547 416.024 572.942 420.31 571.969C421.287 571.747 422.231 571.459 423.143 571.115C423.248 571.301 423.444 571.66 423.496 571.75C423.779 571.842 424.088 571.889 424.339 572.261C424.789 573.03 425.097 573.94 425.472 575.039C425.637 575.557 425.718 576.016 425.952 576.552C426.005 576.675 426.094 576.847 426.157 576.976C426.597 577.889 427.618 578.307 428.44 577.911C429.255 577.518 429.567 576.472 429.142 575.564C429.079 575.434 428.992 575.243 428.927 575.12C428.654 574.603 428.344 574.255 428.041 573.804C427.416 572.825 426.897 572.013 426.577 571.182C426.443 570.753 426.599 570.486 426.704 570.208C426.641 570.136 426.507 569.731 426.428 569.541C430.997 566.843 434.367 562.537 435.949 557.564C436.163 557.598 436.534 557.664 436.655 557.688C436.903 557.524 437.131 557.31 437.579 557.345C438.461 557.473 439.366 557.801 440.459 558.192C440.967 558.387 441.376 558.613 441.941 558.764C442.06 558.796 442.231 558.826 442.368 558.856C442.379 558.858 442.388 558.864 442.4 558.866C442.407 558.868 442.417 558.868 442.424 558.87C443.403 559.081 444.354 558.545 444.556 557.663C444.757 556.781 444.132 555.887 443.158 555.652C443.017 555.619 442.816 555.565 442.678 555.539C442.104 555.43 441.636 555.457 441.094 555.412C439.939 555.291 438.983 555.192 438.133 554.925C437.787 554.79 437.54 554.378 437.42 554.208L436.754 554.014C437.099 551.513 437.006 548.909 436.408 546.304C435.804 543.675 434.736 541.27 433.313 539.151C433.484 538.996 433.807 538.71 433.899 538.626C433.926 538.329 433.903 538.019 434.209 537.69C434.859 537.081 435.678 536.575 436.665 535.965C437.134 535.689 437.567 535.511 438.038 535.164C438.144 535.085 438.29 534.961 438.401 534.871C439.194 534.239 439.376 533.149 438.807 532.436C438.238 531.723 437.136 531.656 436.344 532.288C436.231 532.377 436.078 532.494 435.977 532.581C435.534 532.962 435.26 533.339 434.887 533.735C434.072 534.562 433.399 535.252 432.66 535.75C432.34 535.936 431.871 535.872 431.658 535.859L431.03 536.307C427.448 532.551 422.572 530.15 417.321 529.684C417.306 529.464 417.287 529.066 417.282 528.946C417.067 528.74 416.807 528.565 416.742 528.12C416.67 527.232 416.79 526.277 416.929 525.125C417.006 524.586 417.133 524.139 417.155 523.554C417.16 523.421 417.152 523.229 417.151 523.085C417.151 522.072 416.412 521.25 415.5 521.25H415.5ZM413.432 534.059L412.942 542.722L412.906 542.74C412.873 543.515 412.236 544.134 411.452 544.134C411.132 544.134 410.836 544.031 410.595 543.855L410.581 543.862L403.478 538.827C405.661 536.68 408.453 535.093 411.671 534.363C412.259 534.229 412.847 534.13 413.432 534.059ZM417.571 534.059C421.329 534.521 424.803 536.223 427.466 538.83L420.408 543.834L420.384 543.823C419.757 544.281 418.875 544.167 418.386 543.555C418.186 543.304 418.081 543.009 418.069 542.712L418.062 542.708L417.571 534.059ZM400.902 542.062L407.387 547.864L407.38 547.899C407.966 548.408 408.052 549.291 407.564 549.903C407.364 550.154 407.096 550.322 406.809 550.401L406.802 550.429L398.488 552.829C398.065 548.959 398.977 545.198 400.902 542.062ZM430.052 542.066C431.016 543.628 431.746 545.373 432.18 547.264C432.61 549.132 432.717 550.998 432.54 552.8L424.184 550.394L424.177 550.359C423.429 550.154 422.969 549.393 423.143 548.629C423.215 548.317 423.381 548.052 423.605 547.857L423.602 547.839L430.052 542.066H430.052ZM414.17 548.312H416.827L418.478 550.376L417.885 552.952L415.5 554.099L413.107 552.949L412.515 550.373L414.17 548.312ZM422.688 555.376C422.801 555.371 422.913 555.381 423.023 555.401L423.037 555.383L431.637 556.837C430.378 560.373 427.97 563.436 424.752 565.486L421.414 557.423L421.425 557.409C421.118 556.696 421.425 555.861 422.13 555.521C422.311 555.434 422.5 555.386 422.688 555.376H422.688ZM408.245 555.412C408.901 555.421 409.49 555.876 409.642 556.544C409.714 556.857 409.679 557.167 409.561 557.441L409.586 557.472L406.283 565.454C403.195 563.473 400.735 560.506 399.419 556.866L407.945 555.419L407.959 555.436C408.054 555.419 408.151 555.41 408.245 555.412V555.412ZM415.447 558.909C415.676 558.9 415.908 558.947 416.128 559.053C416.417 559.193 416.64 559.412 416.781 559.674H416.813L421.015 567.268C420.47 567.451 419.909 567.607 419.336 567.738C416.121 568.467 412.917 568.246 410.016 567.258L414.208 559.678H414.215C414.467 559.208 414.944 558.927 415.447 558.909Z" fill="#326CE5" stroke="#326CE5" stroke-width="0.25"/>
<path d="M909.714 23C909.26 23 908.824 23.1801 908.502 23.5007C908.181 23.8213 908 24.2561 908 24.7094V53.7696C908 54.223 908.181 54.6578 908.502 54.9784C908.824 55.2989 909.26 55.479 909.714 55.479C909.979 55.4785 910.241 55.4167 910.478 55.2986C910.715 55.1804 910.921 55.009 911.08 54.7979L916.434 48.845L922.371 62.517C922.917 63.7786 924.4 64.3483 925.655 63.7791C926.893 63.2184 927.441 61.7664 926.881 60.5305L920.753 46.9987L930.286 46.9319C930.74 46.9319 931.176 46.7518 931.498 46.4312C931.819 46.1107 932 45.6759 932 45.2225C932 44.9677 931.943 44.7162 931.833 44.4863C931.723 44.2564 931.562 44.0539 931.364 43.8937L911.057 23.6477C910.897 23.4459 910.692 23.2828 910.46 23.1706C910.227 23.0585 909.973 23.0001 909.714 23Z" fill="black"/>
<path d="M117.714 571C117.26 571 116.824 571.18 116.502 571.501C116.181 571.821 116 572.256 116 572.709V601.77C116 602.223 116.181 602.658 116.502 602.978C116.824 603.299 117.26 603.479 117.714 603.479C117.979 603.479 118.241 603.417 118.478 603.299C118.715 603.18 118.921 603.009 119.08 602.798L124.434 596.845L130.371 610.517C130.917 611.779 132.4 612.348 133.655 611.779C134.893 611.218 135.441 609.766 134.881 608.531L128.753 594.999L138.286 594.932C138.74 594.932 139.176 594.752 139.498 594.431C139.819 594.111 140 593.676 140 593.222C140 592.968 139.943 592.716 139.833 592.486C139.723 592.256 139.562 592.054 139.364 591.894L119.057 571.648C118.897 571.446 118.692 571.283 118.46 571.171C118.227 571.058 117.973 571 117.714 571Z" fill="black"/>
<path d="M251.714 124C251.26 124 250.824 124.18 250.502 124.501C250.181 124.821 250 125.256 250 125.709V154.77C250 155.223 250.181 155.658 250.502 155.978C250.824 156.299 251.26 156.479 251.714 156.479C251.979 156.479 252.241 156.417 252.478 156.299C252.715 156.18 252.921 156.009 253.08 155.798L258.434 149.845L264.371 163.517C264.917 164.779 266.4 165.348 267.655 164.779C268.893 164.218 269.441 162.766 268.881 161.531L262.753 147.999L272.286 147.932C272.74 147.932 273.176 147.752 273.498 147.431C273.819 147.111 274 146.676 274 146.222C274 145.968 273.943 145.716 273.833 145.486C273.723 145.256 273.562 145.054 273.364 144.894L253.057 124.648C252.897 124.446 252.692 124.283 252.46 124.171C252.227 124.058 251.973 124 251.714 124Z" fill="black"/>
<path d="M979.714 505C979.26 505 978.824 505.18 978.502 505.501C978.181 505.821 978 506.256 978 506.709V535.77C978 536.223 978.181 536.658 978.502 536.978C978.824 537.299 979.26 537.479 979.714 537.479C979.979 537.479 980.241 537.417 980.478 537.299C980.715 537.18 980.921 537.009 981.08 536.798L986.434 530.845L992.371 544.517C992.917 545.779 994.4 546.348 995.655 545.779C996.893 545.218 997.441 543.766 996.881 542.531L990.753 528.999L1000.29 528.932C1000.74 528.932 1001.18 528.752 1001.5 528.431C1001.82 528.111 1002 527.676 1002 527.222C1002 526.968 1001.94 526.716 1001.83 526.486C1001.72 526.256 1001.56 526.054 1001.36 525.894L981.057 505.648C980.897 505.446 980.692 505.283 980.46 505.171C980.227 505.058 979.973 505 979.714 505Z" fill="black"/>
<path fill-rule="evenodd" clip-rule="evenodd" d="M41.7566 500.516C8.66904 484.778 -5.31328 445.371 10.5266 412.497C18.1332 396.711 31.7402 384.573 48.3543 378.754C64.9684 372.935 83.2285 373.912 99.1177 381.469C132.206 397.207 146.188 436.614 130.348 469.488C114.508 502.361 74.8444 516.253 41.7566 500.516V500.516Z" fill="#D62783"/>
<path fill-rule="evenodd" clip-rule="evenodd" d="M68.596 449.04C64.0356 449.04 60.4883 445.468 60.4883 440.874C60.4883 436.28 64.0356 432.707 68.596 432.707C73.1565 432.707 76.7034 436.28 76.7034 440.874C76.7034 445.468 73.1565 449.04 68.596 449.04" fill="white"/>
<path fill-rule="evenodd" clip-rule="evenodd" d="M84.431 444.701C82.4047 444.701 80.6309 443.041 80.6309 440.872C80.6309 438.83 82.2775 437.044 84.431 437.044C86.4574 437.044 88.2316 438.703 88.2316 440.872C88.2316 443.041 86.4578 444.7 84.431 444.7V444.701ZM98.1128 448.272C97.6062 450.313 95.5787 451.46 93.552 450.95C91.5256 450.44 90.3848 448.399 90.8918 446.358C91.3984 444.317 93.4247 443.165 95.4522 443.676C97.349 444.186 98.6174 445.972 98.2365 448.015C98.2365 448.015 98.2365 448.142 98.1108 448.269L98.1128 448.272ZM95.4483 438.571C93.4204 439.081 91.3937 437.805 90.8871 435.763C90.3805 433.722 91.647 431.68 93.6741 431.169C95.7004 430.659 97.7276 431.935 98.2342 433.978C98.3606 434.488 98.3606 434.998 98.2342 435.508C98.1073 436.913 97.0937 438.188 95.4471 438.571H95.4483ZM108.874 447.758C108.493 449.799 106.592 451.203 104.566 450.821C102.539 450.438 101.145 448.524 101.526 446.482C101.906 444.441 103.806 443.037 105.833 443.419C107.733 443.802 109.127 445.589 109 447.503C108.875 447.63 108.875 447.63 108.875 447.758H108.874ZM105.84 438.32C103.813 438.703 101.913 437.3 101.533 435.258C101.153 433.217 102.546 431.302 104.573 430.919C106.6 430.537 108.5 431.94 108.88 433.982C108.88 434.364 109.007 434.62 108.88 435.002C108.753 436.661 107.487 438.065 105.84 438.32ZM103.179 460.906C102.166 462.692 99.8859 463.331 98.1124 462.309C96.339 461.289 95.7051 458.992 96.7191 457.205C97.7323 455.419 100.013 454.78 101.786 455.802C103.053 456.567 103.812 457.971 103.686 459.375C103.56 459.885 103.433 460.395 103.179 460.905V460.906ZM101.786 426.198C100.013 427.219 97.7323 426.581 96.7191 424.794C95.7059 423.008 96.339 420.711 98.1124 419.69C99.8859 418.67 102.166 419.307 103.179 421.094C103.56 421.859 103.686 422.498 103.686 423.263C103.56 424.412 102.926 425.56 101.786 426.198" fill="white"/>
<path d="M68.7229 479.026C58.5888 479.026 49.2146 475.07 41.994 467.925C35.0266 460.65 31.0996 451.077 31.0996 440.998C31.0996 430.789 35.0266 421.347 42.1204 414.072C49.2146 406.928 58.7153 402.973 68.7229 402.973C77.0835 402.973 85.0644 405.652 91.6516 410.757L86.9663 416.881C81.6452 412.801 75.3109 410.631 68.7252 410.631C60.7447 410.631 53.144 413.821 47.4435 419.563C41.7454 425.306 38.7047 432.834 38.7047 441C38.7047 449.039 41.8714 456.696 47.5719 462.438C53.2724 468.18 60.7471 471.242 68.8541 471.242C75.5681 471.242 81.902 469.073 87.0951 464.989L91.6559 471.113C85.0691 476.216 77.0886 479.024 68.7276 479.024L68.7229 479.026Z" fill="white"/>
<rect x="847.5" y="175.5" width="119" height="119" rx="22.5" fill="#326CE5" stroke="#326CE5" stroke-width="5"/>
<path d="M908.804 193.673C908.049 193.711 907.31 193.897 906.629 194.219L876.96 208.288C876.192 208.652 875.517 209.181 874.986 209.837C874.454 210.493 874.08 211.258 873.89 212.076L866.57 243.678C866.401 244.406 866.382 245.16 866.515 245.895C866.647 246.631 866.928 247.332 867.341 247.959C867.441 248.112 867.548 248.261 867.663 248.404L888.199 273.743C888.731 274.398 889.406 274.928 890.174 275.292C890.941 275.655 891.783 275.844 892.635 275.844L925.568 275.836C926.42 275.837 927.261 275.649 928.029 275.286C928.797 274.923 929.472 274.394 930.004 273.739L950.532 248.396C951.064 247.74 951.439 246.974 951.629 246.156C951.819 245.338 951.819 244.488 951.629 243.67L944.298 212.069C944.108 211.251 943.734 210.485 943.202 209.83C942.671 209.174 941.996 208.644 941.228 208.28L911.555 194.219C910.699 193.813 909.753 193.626 908.804 193.673V193.673Z" fill="white"/>
<path d="M909.097 204.428C908.117 204.428 907.322 205.304 907.322 206.386C907.322 206.402 907.325 206.418 907.325 206.435C907.324 206.582 907.317 206.759 907.322 206.887C907.345 207.51 907.482 207.988 907.564 208.562C907.714 209.792 907.839 210.812 907.762 211.76C907.687 212.117 907.421 212.444 907.185 212.671L907.143 213.416C906.078 213.504 905.005 213.664 903.933 213.906C899.322 214.945 895.352 217.302 892.329 220.485C892.133 220.352 891.79 220.107 891.688 220.033C891.371 220.075 891.051 220.172 890.633 219.931C889.838 219.4 889.115 218.667 888.239 217.785C887.838 217.362 887.547 216.96 887.07 216.553C886.962 216.461 886.797 216.336 886.675 216.241C886.303 215.946 885.863 215.792 885.438 215.777C884.893 215.759 884.367 215.971 884.023 216.399C883.412 217.16 883.607 218.323 884.459 218.997C884.468 219.004 884.477 219.009 884.486 219.016C884.603 219.11 884.746 219.231 884.854 219.31C885.36 219.68 885.822 219.87 886.326 220.164C887.388 220.815 888.269 221.355 888.967 222.006C889.24 222.294 889.288 222.803 889.324 223.023L889.893 223.527C886.846 228.078 885.436 233.699 886.269 239.426L885.526 239.641C885.33 239.892 885.053 240.287 884.763 240.405C883.849 240.691 882.821 240.795 881.579 240.925C880.997 240.973 880.494 240.944 879.876 241.06C879.74 241.086 879.55 241.135 879.401 241.169C879.396 241.17 879.391 241.172 879.386 241.173C879.378 241.175 879.367 241.179 879.36 241.181C878.313 241.432 877.64 242.386 877.857 243.327C878.073 244.268 879.096 244.84 880.149 244.615C880.156 244.613 880.167 244.613 880.175 244.611C880.187 244.609 880.198 244.603 880.21 244.6C880.356 244.568 880.54 244.532 880.669 244.498C881.276 244.337 881.716 244.1 882.262 243.892C883.437 243.474 884.411 243.124 885.359 242.988C885.755 242.957 886.172 243.231 886.379 243.346L887.154 243.214C888.935 248.695 892.668 253.125 897.395 255.904L897.073 256.673C897.189 256.971 897.317 257.375 897.23 257.669C896.886 258.556 896.295 259.492 895.623 260.536C895.297 261.019 894.964 261.393 894.671 261.945C894.6 262.077 894.511 262.28 894.443 262.419C893.986 263.388 894.321 264.504 895.198 264.923C896.08 265.345 897.175 264.9 897.649 263.929C897.65 263.928 897.652 263.927 897.653 263.925C897.654 263.924 897.653 263.923 897.653 263.922C897.721 263.784 897.816 263.603 897.873 263.474C898.125 262.901 898.209 262.411 898.385 261.858C898.855 260.687 899.113 259.458 899.76 258.692C899.937 258.482 900.226 258.402 900.526 258.322L900.928 257.599C905.049 259.169 909.662 259.59 914.269 258.552C915.321 258.315 916.335 258.008 917.316 257.64C917.43 257.839 917.64 258.222 917.696 258.318C918 258.417 918.332 258.467 918.603 258.864C919.087 259.685 919.418 260.655 919.821 261.828C919.998 262.381 920.085 262.871 920.337 263.443C920.394 263.574 920.489 263.757 920.557 263.895C921.03 264.869 922.129 265.316 923.012 264.893C923.889 264.474 924.224 263.358 923.767 262.389C923.699 262.249 923.606 262.047 923.536 261.915C923.242 261.363 922.909 260.992 922.583 260.51C921.911 259.466 921.353 258.599 921.009 257.712C920.864 257.255 921.033 256.97 921.145 256.673C921.078 256.596 920.934 256.164 920.849 255.961C925.762 253.082 929.385 248.487 931.087 243.18C931.317 243.216 931.716 243.286 931.846 243.312C932.113 243.137 932.358 242.909 932.84 242.947C933.788 243.083 934.761 243.432 935.936 243.851C936.483 244.058 936.923 244.299 937.53 244.461C937.658 244.495 937.842 244.527 937.989 244.559C938.001 244.561 938.011 244.567 938.023 244.57C938.031 244.572 938.042 244.572 938.05 244.574C939.103 244.799 940.126 244.227 940.342 243.286C940.558 242.345 939.886 241.39 938.839 241.139C938.687 241.105 938.471 241.047 938.323 241.019C937.705 240.903 937.202 240.931 936.619 240.883C935.378 240.754 934.349 240.649 933.436 240.364C933.063 240.22 932.798 239.78 932.669 239.599L931.952 239.392C932.324 236.722 932.224 233.944 931.58 231.164C930.931 228.358 929.783 225.792 928.252 223.531C928.436 223.365 928.784 223.06 928.882 222.97C928.911 222.654 928.886 222.322 929.216 221.972C929.915 221.321 930.795 220.782 931.857 220.131C932.361 219.836 932.827 219.647 933.333 219.276C933.448 219.192 933.604 219.059 933.724 218.963C934.576 218.289 934.772 217.126 934.16 216.365C933.549 215.604 932.364 215.532 931.512 216.207C931.391 216.302 931.226 216.426 931.117 216.519C930.64 216.926 930.346 217.328 929.945 217.751C929.069 218.633 928.345 219.37 927.55 219.901C927.206 220.1 926.702 220.031 926.473 220.018L925.797 220.496C921.946 216.488 916.702 213.925 911.055 213.428C911.04 213.193 911.019 212.768 911.014 212.641C910.783 212.421 910.503 212.234 910.433 211.76C910.356 210.812 910.485 209.792 910.634 208.562C910.717 207.988 910.854 207.51 910.877 206.887C910.882 206.745 910.874 206.539 910.873 206.386C910.873 205.304 910.078 204.428 909.097 204.428H909.097ZM906.874 218.097L906.346 227.342L906.308 227.361C906.273 228.188 905.587 228.848 904.745 228.848C904.4 228.848 904.082 228.738 903.823 228.551L903.808 228.558L896.169 223.185C898.517 220.894 901.52 219.201 904.98 218.421C905.613 218.279 906.244 218.173 906.874 218.097ZM911.325 218.097C915.365 218.59 919.102 220.406 921.965 223.188L914.376 228.528L914.349 228.517C913.676 229.005 912.726 228.884 912.201 228.231C911.986 227.963 911.873 227.648 911.86 227.331L911.852 227.327L911.325 218.097ZM893.399 226.638L900.374 232.828L900.366 232.866C900.996 233.409 901.089 234.352 900.564 235.005C900.348 235.273 900.061 235.452 899.751 235.536L899.744 235.566L890.804 238.127C890.349 233.998 891.33 229.984 893.399 226.638ZM924.746 226.641C925.782 228.308 926.567 230.17 927.034 232.188C927.496 234.182 927.612 236.173 927.421 238.097L918.436 235.528L918.428 235.491C917.624 235.273 917.129 234.46 917.316 233.646C917.393 233.312 917.572 233.03 917.814 232.821L917.81 232.802L924.746 226.641H924.746ZM907.667 233.307H910.524L912.3 235.51L911.663 238.259L909.097 239.482L906.525 238.255L905.887 235.506L907.667 233.307ZM916.827 240.846C916.948 240.839 917.069 240.85 917.187 240.872L917.203 240.853L926.45 242.405C925.097 246.178 922.507 249.447 919.047 251.634L915.457 243.03L915.469 243.015C915.139 242.254 915.469 241.363 916.227 241C916.422 240.907 916.625 240.856 916.827 240.846H916.827ZM901.296 240.883C902.002 240.893 902.635 241.379 902.799 242.092C902.875 242.426 902.838 242.756 902.711 243.048L902.738 243.082L899.186 251.6C895.865 249.486 893.221 246.319 891.806 242.435L900.973 240.891L900.989 240.91C901.091 240.891 901.195 240.882 901.296 240.883V240.883ZM909.041 244.615C909.286 244.606 909.536 244.656 909.773 244.769C910.084 244.918 910.324 245.152 910.475 245.432H910.509L915.028 253.536C914.442 253.731 913.839 253.898 913.222 254.037C909.766 254.816 906.32 254.58 903.201 253.525L907.709 245.436H907.716C907.987 244.934 908.5 244.635 909.041 244.615Z" fill="#326CE5" stroke="#326CE5" stroke-width="0.25"/>
<rect x="847.5" y="376.5" width="119" height="119" rx="22.5" fill="#326CE5" stroke="#326CE5" stroke-width="5"/>
<path d="M908.804 394.673C908.049 394.711 907.31 394.897 906.629 395.219L876.96 409.288C876.192 409.652 875.517 410.181 874.986 410.837C874.454 411.493 874.08 412.258 873.89 413.076L866.57 444.678C866.401 445.406 866.382 446.16 866.515 446.895C866.647 447.631 866.928 448.332 867.341 448.959C867.441 449.112 867.548 449.261 867.663 449.404L888.199 474.743C888.731 475.398 889.406 475.928 890.174 476.292C890.941 476.655 891.783 476.844 892.635 476.844L925.568 476.836C926.42 476.837 927.261 476.649 928.029 476.286C928.797 475.923 929.472 475.394 930.004 474.739L950.532 449.396C951.064 448.74 951.439 447.974 951.629 447.156C951.819 446.338 951.819 445.488 951.629 444.67L944.298 413.069C944.108 412.251 943.734 411.485 943.202 410.83C942.671 410.174 941.996 409.644 941.228 409.28L911.555 395.219C910.699 394.813 909.753 394.626 908.804 394.673V394.673Z" fill="white"/>
<path d="M909.097 405.428C908.117 405.428 907.322 406.304 907.322 407.386C907.322 407.402 907.325 407.418 907.325 407.435C907.324 407.582 907.317 407.759 907.322 407.887C907.345 408.51 907.482 408.988 907.564 409.562C907.714 410.792 907.839 411.812 907.762 412.76C907.687 413.117 907.421 413.444 907.185 413.671L907.143 414.416C906.078 414.504 905.005 414.664 903.933 414.906C899.322 415.945 895.352 418.302 892.329 421.485C892.133 421.352 891.79 421.107 891.688 421.033C891.371 421.075 891.051 421.172 890.633 420.931C889.838 420.4 889.115 419.667 888.239 418.785C887.838 418.362 887.547 417.96 887.07 417.553C886.962 417.461 886.797 417.336 886.675 417.241C886.303 416.946 885.863 416.792 885.438 416.777C884.893 416.759 884.367 416.971 884.023 417.399C883.412 418.16 883.607 419.323 884.459 419.997C884.468 420.004 884.477 420.009 884.486 420.016C884.603 420.11 884.746 420.231 884.854 420.31C885.36 420.68 885.822 420.87 886.326 421.164C887.388 421.815 888.269 422.355 888.967 423.006C889.24 423.294 889.288 423.803 889.324 424.023L889.893 424.527C886.846 429.078 885.436 434.699 886.269 440.426L885.526 440.641C885.33 440.892 885.053 441.287 884.763 441.405C883.849 441.691 882.821 441.795 881.579 441.925C880.997 441.973 880.494 441.944 879.876 442.06C879.74 442.086 879.55 442.135 879.401 442.169C879.396 442.17 879.391 442.172 879.386 442.173C879.378 442.175 879.367 442.179 879.36 442.181C878.313 442.432 877.64 443.386 877.857 444.327C878.073 445.268 879.096 445.84 880.149 445.615C880.156 445.613 880.167 445.613 880.175 445.611C880.187 445.609 880.198 445.603 880.21 445.6C880.356 445.568 880.54 445.532 880.669 445.498C881.276 445.337 881.716 445.1 882.262 444.892C883.437 444.474 884.411 444.124 885.359 443.988C885.755 443.957 886.172 444.231 886.379 444.346L887.154 444.214C888.935 449.695 892.668 454.125 897.395 456.904L897.073 457.673C897.189 457.971 897.317 458.375 897.23 458.669C896.886 459.556 896.295 460.492 895.623 461.536C895.297 462.019 894.964 462.393 894.671 462.945C894.6 463.077 894.511 463.28 894.443 463.419C893.986 464.388 894.321 465.504 895.198 465.923C896.08 466.345 897.175 465.9 897.649 464.929C897.65 464.928 897.652 464.927 897.653 464.925C897.654 464.924 897.653 464.923 897.653 464.922C897.721 464.784 897.816 464.603 897.873 464.474C898.125 463.901 898.209 463.411 898.385 462.858C898.855 461.687 899.113 460.458 899.76 459.692C899.937 459.482 900.226 459.402 900.526 459.322L900.928 458.599C905.049 460.169 909.662 460.59 914.269 459.552C915.321 459.315 916.335 459.008 917.316 458.64C917.43 458.839 917.64 459.222 917.696 459.318C918 459.417 918.332 459.467 918.603 459.864C919.087 460.685 919.418 461.655 919.821 462.828C919.998 463.381 920.085 463.871 920.337 464.443C920.394 464.574 920.489 464.757 920.557 464.895C921.03 465.869 922.129 466.316 923.012 465.893C923.889 465.474 924.224 464.358 923.767 463.389C923.699 463.249 923.606 463.047 923.536 462.915C923.242 462.363 922.909 461.992 922.583 461.51C921.911 460.466 921.353 459.599 921.009 458.712C920.864 458.255 921.033 457.97 921.145 457.673C921.078 457.596 920.934 457.164 920.849 456.961C925.762 454.082 929.385 449.487 931.087 444.18C931.317 444.216 931.716 444.286 931.846 444.312C932.113 444.137 932.358 443.909 932.84 443.947C933.788 444.083 934.761 444.432 935.936 444.851C936.483 445.058 936.923 445.299 937.53 445.461C937.658 445.495 937.842 445.527 937.989 445.559C938.001 445.561 938.011 445.567 938.023 445.57C938.031 445.572 938.042 445.572 938.05 445.574C939.103 445.799 940.126 445.227 940.342 444.286C940.558 443.345 939.886 442.39 938.839 442.139C938.687 442.105 938.471 442.047 938.323 442.019C937.705 441.903 937.202 441.931 936.619 441.883C935.378 441.754 934.349 441.649 933.436 441.364C933.063 441.22 932.798 440.78 932.669 440.599L931.952 440.392C932.324 437.722 932.224 434.944 931.58 432.164C930.931 429.358 929.783 426.792 928.252 424.531C928.436 424.365 928.784 424.06 928.882 423.97C928.911 423.654 928.886 423.322 929.216 422.972C929.915 422.321 930.795 421.782 931.857 421.131C932.361 420.836 932.827 420.647 933.333 420.276C933.448 420.192 933.604 420.059 933.724 419.963C934.576 419.289 934.772 418.126 934.16 417.365C933.549 416.604 932.364 416.532 931.512 417.207C931.391 417.302 931.226 417.426 931.117 417.519C930.64 417.926 930.346 418.328 929.945 418.751C929.069 419.633 928.345 420.37 927.55 420.901C927.206 421.1 926.702 421.031 926.473 421.018L925.797 421.496C921.946 417.488 916.702 414.925 911.055 414.428C911.04 414.193 911.019 413.768 911.014 413.641C910.783 413.421 910.503 413.234 910.433 412.76C910.356 411.812 910.485 410.792 910.634 409.562C910.717 408.988 910.854 408.51 910.877 407.887C910.882 407.745 910.874 407.539 910.873 407.386C910.873 406.304 910.078 405.428 909.097 405.428H909.097ZM906.874 419.097L906.346 428.342L906.308 428.361C906.273 429.188 905.587 429.848 904.745 429.848C904.4 429.848 904.082 429.738 903.823 429.551L903.808 429.558L896.169 424.185C898.517 421.894 901.52 420.201 904.98 419.421C905.613 419.279 906.244 419.173 906.874 419.097ZM911.325 419.097C915.365 419.59 919.102 421.406 921.965 424.188L914.376 429.528L914.349 429.517C913.676 430.005 912.726 429.884 912.201 429.231C911.986 428.963 911.873 428.648 911.86 428.331L911.852 428.327L911.325 419.097ZM893.399 427.638L900.374 433.828L900.366 433.866C900.996 434.409 901.089 435.352 900.564 436.005C900.348 436.273 900.061 436.452 899.751 436.536L899.744 436.566L890.804 439.127C890.349 434.998 891.33 430.984 893.399 427.638ZM924.746 427.641C925.782 429.308 926.567 431.17 927.034 433.188C927.496 435.182 927.612 437.173 927.421 439.097L918.436 436.528L918.428 436.491C917.624 436.273 917.129 435.46 917.316 434.646C917.393 434.312 917.572 434.03 917.814 433.821L917.81 433.802L924.746 427.641H924.746ZM907.667 434.307H910.524L912.3 436.51L911.663 439.259L909.097 440.482L906.525 439.255L905.887 436.506L907.667 434.307ZM916.827 441.846C916.948 441.839 917.069 441.85 917.187 441.872L917.203 441.853L926.45 443.405C925.097 447.178 922.507 450.447 919.047 452.634L915.457 444.03L915.469 444.015C915.139 443.254 915.469 442.363 916.227 442C916.422 441.907 916.625 441.856 916.827 441.846H916.827ZM901.296 441.883C902.002 441.893 902.635 442.379 902.799 443.092C902.875 443.426 902.838 443.756 902.711 444.048L902.738 444.082L899.186 452.6C895.865 450.486 893.221 447.319 891.806 443.435L900.973 441.891L900.989 441.91C901.091 441.891 901.195 441.882 901.296 441.883V441.883ZM909.041 445.615C909.286 445.606 909.536 445.656 909.773 445.769C910.084 445.918 910.324 446.152 910.475 446.432H910.509L915.028 454.536C914.442 454.731 913.839 454.898 913.222 455.037C909.766 455.816 906.32 455.58 903.201 454.525L907.709 446.436H907.716C907.987 445.934 908.5 445.635 909.041 445.615Z" fill="#326CE5" stroke="#326CE5" stroke-width="0.25"/>
</svg>
