<svg xmlns="http://www.w3.org/2000/svg" xmlns:xlink="http://www.w3.org/1999/xlink" id="Layer_1" x="0" y="0" version="1.1" viewBox="0 0 205.8 202.2" xml:space="preserve" style="enable-background:new 0 0 205.8 202.2"><style type="text/css">.st0{opacity:.5;fill:#00b39f}.st0,.st1,.st2{enable-background:new}.st1{opacity:.61;fill:#00b39f}.st2{opacity:.81}.st2,.st3{display:none;fill:#fff}.st4{opacity:.81;fill:none;stroke:#00b39f;stroke-width:20;stroke-miterlimit:10;enable-background:new}.st5{display:none}.st6{display:inline;opacity:.81;fill:none;stroke:#fff;stroke-width:20;stroke-miterlimit:10;enable-background:new}</style><g id="Layer_1_1_"><g><path d="M138.3,42.2c12.4-0.1,22.1,9.7,22.1,22.2c0,12-10,22-22,22c-12.3,0-22.2-9.7-22.4-22.1 C115.9,52.2,125.9,42.3,138.3,42.2z" class="st0"/><path d="M140.8,115.8c-5.9,4.9-12.2,9.4-18.2,14.2c-2.6,2.1-4.4,2-6.7-0.4c-10.9-11.1-22.1-22-33-33.1 c-2.8-2.8-4.7-2.9-7.7-0.4c-14.7,12.1-29.6,24.2-44.5,36.2v41h80.6l25.3-0.2l0.2,0.2h38.3V135l-0.2-0.2v-0.6 c-8.5-6.1-17-12.3-25.3-18.5C146.4,113.3,144,113.1,140.8,115.8z" class="st1"/><path d="M69.2,173.3H30.7v-38.5H1.8v67.4h67.4V173.3z M174.9,134.8l0.2,0.2v38.3h-38.3l-0.2-0.2v29.1H204v-67.4H174.9 z M30.9,67.4l-0.2-0.3V28.8H69l0.2,0.3V0H1.8v67.4H30.9z M136.6,0v28.8h38.5v38.6H204V0H136.6z" class="st2"/><path d="M69.2,29.1l25.3-0.3h42.1V0H69.2V29.1z M136.6,173.1l-25.3,0.2H69.2v28.9h67.4V173.1z M175.1,67.4v42 l-0.2,24.8v0.6H204V67.4H175.1z M30.7,134.8V92.7l0.2-25.3H1.8v67.4H30.7z" class="st3"/></g></g><g id="Layer_2_1_"><path d="M181.5,188.6H24.3c-6.9,0-12.5-5.4-12.5-12v-151c0-6.6,5.6-12,12.5-12h157.2c6.9,0,12.5,5.4,12.5,12v151 C194,183.2,188.4,188.6,181.5,188.6z" class="st4"/></g><g id="Layer_3" class="st5"><circle cx="100.1" cy="101.3" r="86.5" class="st6"/></g></svg>