<svg xmlns="http://www.w3.org/2000/svg" xmlns:xlink="http://www.w3.org/1999/xlink" x="0" y="0" enable-background="new 0 0 210.3 210.3" version="1.1" viewBox="0 0 210.3 210.3" xml:space="preserve"><style type="text/css">.st0{opacity:.5;fill:#fff}.st0,.st1,.st2{enable-background:new}.st1{opacity:.61;fill:#fff}.st2{opacity:.81}.st2,.st3{display:none;fill:#fff}.st4{opacity:.81;fill:none;stroke:#fff;stroke-width:20;stroke-miterlimit:10}.st5{display:none}.st6{display:inline;opacity:.81;fill:none;stroke:#fff;stroke-width:20;stroke-miterlimit:10}</style><g id="Layer_1"><g><path d="M140.7,46.4c12.4-0.1,22.1,9.7,22.1,22.2c0,12-10,22-22,22c-12.3,0-22.2-9.7-22.4-22.1 C118.3,56.4,128.3,46.5,140.7,46.4z" class="st0"/><path d="M143.2,120c-5.9,4.9-12.2,9.4-18.2,14.2c-2.6,2.1-4.4,2-6.7-0.4c-10.9-11.1-22.1-22-33-33.1 c-2.8-2.8-4.7-2.9-7.7-0.4c-14.7,12.1-29.6,24.2-44.5,36.2v41h80.6l25.3-0.2l0.2,0.2h38.3v-38.3l-0.2-0.2v-0.6 c-8.5-6.1-17-12.3-25.3-18.5C148.8,117.5,146.4,117.3,143.2,120z" class="st1"/><path d="M71.6,177.5H33.1V139H4.2v67.4h67.4V177.5z M177.3,139l0.2,0.2v38.3h-38.3l-0.2-0.2v29.1h67.4V139L177.3,139z M33.3,71.6l-0.2-0.3V33h38.3l0.2,0.3V4.2H4.2v67.4H33.3z M139,4.2V33h38.5v38.6h28.9V4.2H139z" class="st2"/><path d="M71.6,33.3L96.9,33H139V4.2H71.6V33.3z M139,177.3l-25.3,0.2H71.6v28.9H139V177.3z M177.5,71.6v42l-0.2,24.8 v0.6h29.1V71.6H177.5z M33.1,139V96.9l0.2-25.3H4.2V139L33.1,139z" class="st3"/></g></g><g id="Layer_2"><path d="M180.8,192.8h-151c-6.6,0-12-5.4-12-12v-151c0-6.6,5.4-12,12-12h151c6.6,0,12,5.4,12,12v151 C192.8,187.4,187.4,192.8,180.8,192.8z" class="st4"/></g><g id="Layer_3" class="st5"><circle cx="104.3" cy="105.5" r="86.5" class="st6"/></g></svg>