<svg xmlns="http://www.w3.org/2000/svg" id="Layer_1" data-name="Layer 1" viewBox="0 0 216.71 39.64"><defs><style>.cls-1,.cls-2{fill:#3c494f}.cls-2{font-size:6.43px;font-family:Poppins-Regular,Poppins;letter-spacing:.7em}</style></defs><title>meshery-text-tag-dark</title><polygon points="134.35 4.19 134.35 5.32 134.35 10.64 134.35 17.13 134.35 26.6 159.57 26.6 159.57 21.28 139.67 21.28 139.67 17.13 139.67 15.96 154.96 15.96 154.96 10.64 139.67 10.64 139.67 5.32 159.57 5.32 159.57 0 134.35 0 134.35 4.19" class="cls-1"/><polygon points="37.36 4.19 37.36 5.32 37.36 10.64 37.36 17.13 37.36 26.6 62.57 26.6 62.57 21.28 42.68 21.28 42.68 17.13 42.68 15.96 57.96 15.96 57.96 10.64 42.68 10.64 42.68 5.32 62.57 5.32 62.57 0 37.36 0 37.36 4.19" class="cls-1"/><path d="M97.48,19.65a6.78,6.78,0,0,1-.55,2.69,7,7,0,0,1-1.51,2.22,7.34,7.34,0,0,1-2.22,1.49,6.87,6.87,0,0,1-2.71.55H65.59V21h24.9a1.31,1.31,0,0,0,1-.4,1.28,1.28,0,0,0,.39-1V17.48a1.28,1.28,0,0,0-.39-.95,1.3,1.3,0,0,0-1-.39H72.58a6.7,6.7,0,0,1-2.69-.55,7.1,7.1,0,0,1-3.75-3.74,6.79,6.79,0,0,1-.55-2.7V7a6.92,6.92,0,0,1,.55-2.72,7.18,7.18,0,0,1,1.51-2.21A7.08,7.08,0,0,1,69.89.55,6.54,6.54,0,0,1,72.58,0h24.9V5.64H72.58A1.33,1.33,0,0,0,71.23,7V9.15a1.33,1.33,0,0,0,1.35,1.35H90.49a6.7,6.7,0,0,1,2.71.55,7.11,7.11,0,0,1,3.73,3.72,6.91,6.91,0,0,1,.55,2.71Z" class="cls-1"/><path d="M131,26.6H126V16.14H106.17V26.6H101.1V10.5H126V0H131ZM106.17,8H101.1V0h5.07Z" class="cls-1"/><polygon points="203.41 9.31 196.76 0 190.11 0 200.75 15.96 200.75 26.6 206.07 26.6 206.07 15.96 216.71 0 210.15 0 203.41 9.31" class="cls-1"/><path d="M168.62,5.07h13.64V10.6h-11v5.08h2.52l9.65,10.92H190l-9.64-10.92h3.76a4.13,4.13,0,0,0,4.13-4.13V4.13A4.13,4.13,0,0,0,184.12,0H163.41V26.6h5.32Z" class="cls-1"/><path d="M33.27,26.6H27.63V7.2a1.54,1.54,0,0,0-.13-.6,1.56,1.56,0,0,0-.33-.5,1.92,1.92,0,0,0-.5-.34,1.53,1.53,0,0,0-.6-.12H0V0H26.07a6.88,6.88,0,0,1,2.78.57,7.72,7.72,0,0,1,2.31,1.54A7.48,7.48,0,0,1,32.7,4.42a6.88,6.88,0,0,1,.57,2.78Zm-27.63,0H0v-21L5.64,4.09Zm13.79,0H13.8v-18h5.63Z" class="cls-1"/><g id="_Group_" data-name="&lt;Group&gt;"><text class="cls-2" transform="translate(18.64 35.96)">THE MULTI-MESH MANAGER</text></g></svg>