<svg width="101" height="117" viewBox="0 0 101 117" fill="none" xmlns="http://www.w3.org/2000/svg">
<path fill-rule="evenodd" clip-rule="evenodd" d="M6.10352e-05 12.8494C6.10352e-05 5.75287 5.75293 0 12.8494 0H87.9066C91.3144 0 94.5827 1.35376 96.9924 3.76349C99.4022 6.17322 100.756 9.4415 100.756 12.8494V104.127C100.756 111.223 95.0031 116.976 87.9066 116.976H12.8494C5.75293 116.976 6.10352e-05 111.223 6.10352e-05 104.127V12.8494Z" fill="#EEEEEE"/>
<path d="M12.5782 35.2834V26.6897H15.3594C16.4115 26.6897 17.099 26.7314 17.4219 26.8147C17.9115 26.9501 18.323 27.2366 18.6563 27.6741C18.9896 28.1012 19.1563 28.6532 19.1563 29.3303C19.1563 29.8616 19.0574 30.3095 18.8594 30.6741C18.6719 31.0282 18.4324 31.3095 18.1407 31.5178C17.849 31.7157 17.5469 31.8512 17.2344 31.9241C16.8282 32.0074 16.2292 32.0491 15.4376 32.0491H14.3126V35.2834H12.5782ZM14.3126 28.1428V30.5803H15.2657C15.9428 30.5803 16.3959 30.5387 16.6251 30.4553C16.8646 30.3616 17.0469 30.2209 17.1719 30.0334C17.3074 29.8355 17.3751 29.6116 17.3751 29.3616C17.3751 29.0491 17.2813 28.7939 17.0938 28.5959C16.9063 28.3876 16.6719 28.2574 16.3907 28.2053C16.1928 28.1637 15.7813 28.1428 15.1563 28.1428H14.3126ZM22.1446 35.2834H20.504V29.0647H22.0352V29.9397C22.2956 29.523 22.53 29.2522 22.7383 29.1272C22.9467 28.9918 23.1811 28.9241 23.4415 28.9241C23.8165 28.9241 24.1811 29.0282 24.5352 29.2366L24.0196 30.6584C23.7383 30.4814 23.4831 30.3928 23.254 30.3928C23.0144 30.3928 22.8165 30.4605 22.6602 30.5959C22.504 30.7209 22.379 30.9501 22.2852 31.2834C22.1915 31.6064 22.1446 32.2991 22.1446 33.3616V35.2834ZM28.8458 33.2991L30.4864 33.5803C30.2781 34.1845 29.9447 34.6428 29.4864 34.9553C29.0281 35.2678 28.4603 35.4241 27.7833 35.4241C26.6999 35.4241 25.8978 35.0699 25.377 34.3616C24.9603 33.7991 24.752 33.0855 24.752 32.2209C24.752 31.1897 25.0228 30.3824 25.5645 29.7991C26.1062 29.2157 26.7885 28.9241 27.6114 28.9241C28.5385 28.9241 29.2676 29.2314 29.7989 29.8459C30.3406 30.4501 30.5958 31.3824 30.5645 32.6428H26.4395C26.4603 33.1324 26.5958 33.5126 26.8458 33.7834C27.0958 34.0543 27.4135 34.1897 27.7989 34.1897C28.0489 34.1897 28.2624 34.122 28.4395 33.9866C28.6166 33.8407 28.752 33.6116 28.8458 33.2991ZM28.9395 31.6428C28.9291 31.1637 28.8041 30.7991 28.5645 30.5491C28.3353 30.2991 28.0489 30.1741 27.7051 30.1741C27.351 30.1741 27.0541 30.3043 26.8145 30.5647C26.5853 30.8355 26.4708 31.1949 26.4708 31.6428H28.9395ZM31.7227 32.9866V31.3459H34.9571V32.9866H31.7227ZM35.8594 29.0647H37.3907V29.9709C37.599 29.6584 37.8699 29.4084 38.2032 29.2209C38.5469 29.023 38.9271 28.9241 39.3438 28.9241C40.0626 28.9241 40.6719 29.2053 41.1719 29.7678C41.6824 30.3303 41.9376 31.122 41.9376 32.1428C41.9376 33.1741 41.6824 33.9814 41.1719 34.5647C40.6615 35.1376 40.0469 35.4241 39.3282 35.4241C38.9844 35.4241 38.6719 35.3564 38.3907 35.2209C38.1094 35.0855 37.8178 34.8512 37.5157 34.5178V37.6584H35.8594V29.0647ZM37.4844 32.0647C37.4844 32.7626 37.6251 33.2782 37.9063 33.6116C38.1876 33.9449 38.5261 34.1116 38.9219 34.1116C39.3074 34.1116 39.6251 33.9605 39.8751 33.6584C40.1251 33.3459 40.2501 32.8407 40.2501 32.1428C40.2501 31.497 40.1199 31.0178 39.8594 30.7053C39.599 30.3824 39.2761 30.2209 38.8907 30.2209C38.4844 30.2209 38.1459 30.3772 37.8751 30.6897C37.6146 31.0022 37.4844 31.4605 37.4844 32.0647ZM44.8145 35.2834H43.1739V29.0647H44.7051V29.9397C44.9656 29.523 45.1999 29.2522 45.4083 29.1272C45.6166 28.9918 45.851 28.9241 46.1114 28.9241C46.4864 28.9241 46.851 29.0282 47.2051 29.2366L46.6895 30.6584C46.4083 30.4814 46.1531 30.3928 45.9239 30.3928C45.6843 30.3928 45.4864 30.4605 45.3301 30.5959C45.1739 30.7209 45.0489 30.9501 44.9551 31.2834C44.8614 31.6064 44.8145 32.2991 44.8145 33.3616V35.2834ZM47.5313 32.0803C47.5313 31.5387 47.6667 31.0126 47.9376 30.5022C48.2084 29.9814 48.5886 29.5907 49.0782 29.3303C49.5678 29.0595 50.1199 28.9241 50.7344 28.9241C51.6719 28.9241 52.4428 29.2314 53.0469 29.8459C53.6511 30.4501 53.9532 31.2209 53.9532 32.1584C53.9532 33.0959 53.6459 33.8772 53.0313 34.5022C52.4271 35.1168 51.6667 35.4241 50.7501 35.4241C50.1771 35.4241 49.6303 35.2939 49.1094 35.0334C48.599 34.773 48.2084 34.398 47.9376 33.9084C47.6667 33.4084 47.5313 32.7991 47.5313 32.0803ZM49.2188 32.1741C49.2188 32.7887 49.3646 33.2626 49.6563 33.5959C49.948 33.9189 50.3074 34.0803 50.7344 34.0803C51.1719 34.0803 51.5313 33.9189 51.8126 33.5959C52.1042 33.2626 52.2501 32.7834 52.2501 32.1584C52.2501 31.5543 52.1042 31.0907 51.8126 30.7678C51.5313 30.4345 51.1719 30.2678 50.7344 30.2678C50.3074 30.2678 49.948 30.4345 49.6563 30.7678C49.3646 31.0907 49.2188 31.5595 49.2188 32.1741ZM56.9551 35.2834L54.4395 29.0647H56.1739L57.3458 32.2366L57.6895 33.2991C57.7728 33.0282 57.8249 32.8512 57.8458 32.7678C57.9083 32.5907 57.9708 32.4137 58.0333 32.2366L59.2051 29.0647H60.9083L58.4395 35.2834H56.9551ZM61.9102 28.2209V26.6897H63.5665V28.2209H61.9102ZM61.9102 35.2834V29.0647H63.5665V35.2834H61.9102ZM64.6661 33.5022L66.3223 33.2522C66.3952 33.5751 66.5359 33.8199 66.7442 33.9866C66.963 34.1532 67.265 34.2366 67.6505 34.2366C68.0775 34.2366 68.3952 34.1584 68.6036 34.0022C68.7494 33.8876 68.8223 33.7418 68.8223 33.5647C68.8223 33.4397 68.7859 33.3355 68.713 33.2522C68.6296 33.1689 68.4473 33.0959 68.1661 33.0334C66.8327 32.7418 65.989 32.4762 65.6348 32.2366C65.1452 31.8928 64.9005 31.4241 64.9005 30.8303C64.9005 30.2887 65.1088 29.8355 65.5255 29.4709C65.9525 29.1064 66.614 28.9241 67.5098 28.9241C68.364 28.9241 68.9994 29.0647 69.4161 29.3459C69.8327 29.6168 70.1192 30.023 70.2755 30.5647L68.713 30.8459C68.6505 30.6064 68.5255 30.4241 68.338 30.2991C68.1505 30.1637 67.8848 30.0959 67.5411 30.0959C67.114 30.0959 66.8067 30.1584 66.6192 30.2834C66.4942 30.3668 66.4317 30.4762 66.4317 30.6116C66.4317 30.7366 66.4838 30.8407 66.588 30.9241C66.7338 31.0282 67.2442 31.1793 68.1192 31.3772C69.0046 31.5751 69.6192 31.8199 69.963 32.1116C70.3067 32.4032 70.4786 32.8095 70.4786 33.3303C70.4786 33.9032 70.239 34.398 69.7598 34.8147C69.2911 35.2209 68.588 35.4241 67.6505 35.4241C66.8067 35.4241 66.1348 35.2522 65.6348 34.9084C65.1452 34.5647 64.8223 34.0959 64.6661 33.5022ZM71.918 28.2209V26.6897H73.5743V28.2209H71.918ZM71.918 35.2834V29.0647H73.5743V35.2834H71.918ZM74.877 32.0803C74.877 31.5387 75.0124 31.0126 75.2833 30.5022C75.5541 29.9814 75.9343 29.5907 76.4239 29.3303C76.9135 29.0595 77.4656 28.9241 78.0801 28.9241C79.0176 28.9241 79.7885 29.2314 80.3926 29.8459C80.9968 30.4501 81.2989 31.2209 81.2989 32.1584C81.2989 33.0959 80.9916 33.8772 80.377 34.5022C79.7729 35.1168 79.0124 35.4241 78.0958 35.4241C77.5229 35.4241 76.976 35.2939 76.4551 35.0334C75.9447 34.773 75.5541 34.398 75.2833 33.9084C75.0124 33.4084 74.877 32.7991 74.877 32.0803ZM76.5645 32.1741C76.5645 32.7887 76.7104 33.2626 77.002 33.5959C77.2937 33.9189 77.6531 34.0803 78.0801 34.0803C78.5176 34.0803 78.877 33.9189 79.1583 33.5959C79.4499 33.2626 79.5958 32.7834 79.5958 32.1584C79.5958 31.5543 79.4499 31.0907 79.1583 30.7678C78.877 30.4345 78.5176 30.2678 78.0801 30.2678C77.6531 30.2678 77.2937 30.4345 77.002 30.7678C76.7104 31.0907 76.5645 31.5595 76.5645 32.1741ZM88.2383 35.2834H86.5977V32.1116C86.5977 31.4345 86.5613 30.997 86.4883 30.7991C86.4258 30.6012 86.3113 30.4501 86.1446 30.3459C85.9883 30.2314 85.8008 30.1741 85.5821 30.1741C85.2904 30.1741 85.03 30.2522 84.8008 30.4084C84.5821 30.5647 84.4311 30.773 84.3477 31.0334C84.2644 31.2939 84.2227 31.773 84.2227 32.4709V35.2834H82.5665V29.0647H84.0977V29.9709C84.6394 29.273 85.3269 28.9241 86.1602 28.9241C86.5144 28.9241 86.8425 28.9918 87.1446 29.1272C87.4467 29.2522 87.6758 29.4189 87.8321 29.6272C87.9883 29.8251 88.0925 30.0543 88.1446 30.3147C88.2071 30.5647 88.2383 30.9293 88.2383 31.4084V35.2834Z" fill="black"/>
<path fill-rule="evenodd" clip-rule="evenodd" d="M58.1389 7.12073H89.6576C93.7866 7.12073 97.1339 9.16653 97.1339 11.6902C97.1339 14.2138 93.7866 16.2596 89.6576 16.2596H58.1389C54.0099 16.2596 50.6627 14.2138 50.6627 11.6902C50.6627 9.16653 54.0099 7.12073 58.1389 7.12073Z" fill="#D9D2E9"/>
<path d="M55.9487 13.8102V9.99768H57.2612C57.5633 9.99768 57.7924 10.0133 57.9487 10.0446C58.1674 10.0966 58.3549 10.1904 58.5112 10.3258C58.7091 10.4925 58.8549 10.7112 58.9487 10.9821C59.0528 11.2425 59.1049 11.5446 59.1049 11.8883C59.1049 12.1696 59.0685 12.4248 58.9955 12.6539C58.933 12.8727 58.8497 13.0602 58.7455 13.2164C58.6414 13.3623 58.5268 13.4768 58.4018 13.5602C58.2768 13.6435 58.1258 13.706 57.9487 13.7477C57.7716 13.7893 57.5633 13.8102 57.3237 13.8102H55.9487ZM56.4643 13.3571H57.2768C57.5268 13.3571 57.7195 13.3362 57.8549 13.2946C58.0008 13.2425 58.1205 13.1748 58.2143 13.0914C58.3289 12.9768 58.4174 12.8206 58.4799 12.6227C58.5528 12.4143 58.5893 12.1643 58.5893 11.8727C58.5893 11.4768 58.5216 11.1748 58.3862 10.9664C58.2612 10.7477 58.1049 10.6018 57.9174 10.5289C57.782 10.4768 57.5633 10.4508 57.2612 10.4508H56.4643V13.3571ZM59.8121 13.8102V9.99768H62.5621V10.4508H60.3121V11.6071H62.4214V12.0602H60.3121V13.3571H62.6558V13.8102H59.8121ZM63.3503 13.8102V9.99768H64.7878C65.0482 9.99768 65.2461 10.0081 65.3815 10.0289C65.5586 10.0602 65.7097 10.1227 65.8347 10.2164C65.9701 10.2998 66.0742 10.4196 66.1472 10.5758C66.2305 10.7321 66.2722 10.9091 66.2722 11.1071C66.2722 11.43 66.168 11.706 65.9597 11.9352C65.7513 12.1539 65.3763 12.2633 64.8347 12.2633H63.8659V13.8102H63.3503ZM63.8659 11.8102H64.8503C65.1732 11.8102 65.4024 11.7529 65.5378 11.6383C65.6732 11.5133 65.7409 11.3414 65.7409 11.1227C65.7409 10.956 65.6992 10.8154 65.6159 10.7008C65.543 10.5862 65.4388 10.5133 65.3034 10.4821C65.2201 10.4612 65.0638 10.4508 64.8347 10.4508H63.8659V11.8102ZM66.8885 13.8102V9.99768H67.3885V13.3571H69.2635V13.8102H66.8885ZM69.7111 11.9508C69.7111 11.3154 69.883 10.8206 70.2267 10.4664C70.5705 10.1123 71.008 9.93518 71.5392 9.93518C71.8934 9.93518 72.2111 10.0185 72.4924 10.1852C72.7736 10.3518 72.9872 10.5862 73.133 10.8883C73.2892 11.1904 73.3674 11.5289 73.3674 11.9039C73.3674 12.2893 73.2892 12.6383 73.133 12.9508C72.9767 13.2529 72.7528 13.4821 72.4611 13.6383C72.1799 13.7946 71.8726 13.8727 71.5392 13.8727C71.1851 13.8727 70.8622 13.7893 70.5705 13.6227C70.2892 13.4456 70.0757 13.206 69.9299 12.9039C69.784 12.6018 69.7111 12.2841 69.7111 11.9508ZM70.2424 11.9664C70.2424 12.4248 70.3622 12.7893 70.6017 13.0602C70.8517 13.3206 71.1642 13.4508 71.5392 13.4508C71.9247 13.4508 72.2372 13.3154 72.4767 13.0446C72.7267 12.7737 72.8517 12.3935 72.8517 11.9039C72.8517 11.5914 72.7945 11.3206 72.6799 11.0914C72.5757 10.8623 72.4247 10.6852 72.2267 10.5602C72.0288 10.4248 71.8049 10.3571 71.5549 10.3571C71.1903 10.3571 70.8778 10.4821 70.6174 10.7321C70.3674 10.9821 70.2424 11.3935 70.2424 11.9664ZM75.0899 13.8102V12.2008L73.6212 9.99768H74.2305L74.9805 11.1383C75.1264 11.3571 75.2566 11.5758 75.3712 11.7946C75.4857 11.5966 75.6264 11.3727 75.793 11.1227L76.5274 9.99768H77.1212L75.5899 12.2008V13.8102H75.0899ZM77.5499 13.8102V9.99768H78.3156L79.2218 12.7008C79.3051 12.9508 79.3624 13.1383 79.3937 13.2633C79.4458 13.1279 79.5135 12.9248 79.5968 12.6539L80.5187 9.99768H81.1906V13.8102H80.7062V10.6227L79.5968 13.8102H79.1437L78.0343 10.5602V13.8102H77.5499ZM82.0196 13.8102V9.99768H84.7696V10.4508H82.5196V11.6071H84.629V12.0602H82.5196V13.3571H84.8633V13.8102H82.0196ZM85.5577 13.8102V9.99768H86.0734L88.0734 12.9977V9.99768H88.5577V13.8102H88.0421L86.0421 10.8102V13.8102H85.5577ZM90.3743 13.8102V10.4508H89.1243V9.99768H92.14V10.4508H90.89V13.8102H90.3743Z" fill="#351C75"/>
<path d="M71.2613 79.5788C69.894 79.5788 69.21 76.5961 68.5269 73.6133C67.8438 70.6305 67.1616 67.6478 65.7964 67.6478" stroke="#BF9000" stroke-width="2" stroke-miterlimit="10" stroke-linejoin="round"/>
<path fill-rule="evenodd" clip-rule="evenodd" d="M55.1656 61.409C55.1656 60.1665 56.1733 59.1593 57.4163 59.1593C58.0132 59.1593 58.5856 59.3963 59.0077 59.8182C59.4298 60.2401 59.6669 60.8123 59.6669 61.409C59.6669 62.6514 58.6592 63.6586 57.4163 63.6586C56.1733 63.6586 55.1656 62.6514 55.1656 61.409Z" fill="#00B39F"/>
<path fill-rule="evenodd" clip-rule="evenodd" d="M48.2576 67.6442C48.2576 66.4018 49.2653 65.3945 50.5082 65.3945C51.1052 65.3945 51.6776 65.6316 52.0997 66.0535C52.5218 66.4753 52.7589 67.0475 52.7589 67.6442C52.7589 68.8867 51.7512 69.8939 50.5082 69.8939C49.2653 69.8939 48.2576 68.8867 48.2576 67.6442Z" fill="#00B39F"/>
<path d="M55.1656 61.409C52.8359 61.409 50.5062 63.3999 50.5062 65.3908" stroke="#359AC0" stroke-width="2" stroke-miterlimit="10" stroke-linejoin="round"/>
<path fill-rule="evenodd" clip-rule="evenodd" d="M86.3012 62.1268C85.1813 61.5909 84.708 60.249 85.2442 59.1296C85.5016 58.5921 85.9622 58.1787 86.5245 57.9806C87.0868 57.7825 87.7049 57.8157 88.2426 58.0731C89.3625 58.6089 89.8358 59.9508 89.2996 61.0702C88.7635 62.1896 87.421 62.6626 86.3012 62.1268Z" fill="#00B39F"/>
<path fill-rule="evenodd" clip-rule="evenodd" d="M61.2911 67.6432C61.2911 66.4008 62.2987 65.3936 63.5417 65.3936C64.1386 65.3936 64.7111 65.6306 65.1332 66.0525C65.5552 66.4744 65.7924 67.0466 65.7924 67.6432C65.7924 68.8857 64.7847 69.8929 63.5417 69.8929C62.2987 69.8929 61.2911 68.8857 61.2911 67.6432Z" fill="#00B39F"/>
<path fill-rule="evenodd" clip-rule="evenodd" d="M55.1441 76.7638C55.1441 75.5213 56.1517 74.5141 57.3947 74.5141C57.9916 74.5141 58.5641 74.7511 58.9861 75.173C59.4083 75.5949 59.6454 76.1671 59.6454 76.7638C59.6454 78.0062 58.6377 79.0134 57.3947 79.0134C56.1517 79.0134 55.1441 78.0062 55.1441 76.7638Z" fill="#00B39F"/>
<path d="M63.5418 69.8929C63.5418 71.0482 62.0066 71.6267 60.4714 72.2035C58.9362 72.7803 57.4011 73.3553 57.4011 74.5072" stroke="#359AC0" stroke-width="4" stroke-miterlimit="10" stroke-linejoin="round"/>
<path d="M85.1516 60.847C84.341 60.847 83.9204 61.1381 83.5303 61.4292C83.1403 61.7203 82.7806 62.0114 82.0309 62.0114" stroke="#359AC0" stroke-width="2" stroke-miterlimit="10" stroke-linejoin="round"/>
<path d="M57.3947 74.5141C57.3947 73.359 55.6726 72.7807 53.9504 72.2039C52.2283 71.6271 50.5062 71.0518 50.5062 69.8998" stroke="#359AC0" stroke-width="2" stroke-miterlimit="10" stroke-linejoin="round"/>
<path d="M63.5418 65.3936C63.5418 63.4026 61.6075 61.4117 59.6733 61.4117" stroke="#359AC0" stroke-width="2" stroke-miterlimit="10" stroke-linejoin="round"/>
<path fill-rule="evenodd" clip-rule="evenodd" d="M79.7868 69.8901C78.5438 69.8901 77.5362 68.8829 77.5362 67.6404C77.5362 67.0438 77.7733 66.4716 78.1954 66.0497C78.6175 65.6278 79.1899 65.3908 79.7868 65.3908C81.0298 65.3908 82.0375 66.398 82.0375 67.6404C82.0375 68.8829 81.0298 69.8901 79.7868 69.8901Z" fill="#00B39F"/>
<path fill-rule="evenodd" clip-rule="evenodd" d="M73.639 64.254C72.396 64.254 71.3884 63.2468 71.3884 62.0043C71.3884 61.4077 71.6255 60.8354 72.0475 60.4135C72.4696 59.9917 73.0421 59.7546 73.639 59.7546C74.882 59.7546 75.8896 60.7618 75.8896 62.0043C75.8896 63.2468 74.882 64.254 73.639 64.254Z" fill="#00B39F"/>
<path fill-rule="evenodd" clip-rule="evenodd" d="M79.7868 64.254C78.5438 64.254 77.5362 63.2468 77.5362 62.0043C77.5362 61.4077 77.7733 60.8354 78.1954 60.4135C78.6175 59.9917 79.1899 59.7546 79.7868 59.7546C81.0298 59.7546 82.0375 60.7618 82.0375 62.0043C82.0375 63.2468 81.0298 64.254 79.7868 64.254Z" fill="#00B39F"/>
<path d="M77.5363 67.6404C77.1246 67.6404 76.9179 66.2317 76.713 64.823C76.5081 63.4142 76.3049 62.0055 75.8968 62.0055" stroke="#359AC0" stroke-width="2" stroke-miterlimit="10" stroke-linejoin="round"/>
<path d="M79.7868 65.3908C79.7868 65.1066 79.8012 64.9644 79.8156 64.8224C79.83 64.6805 79.8444 64.5388 79.8444 64.2552" stroke="#359AC0" stroke-width="2" stroke-miterlimit="10" stroke-linejoin="round"/>
<path d="M71.3883 62.0043C69.9893 62.0043 69.2896 63.4131 68.5903 64.8218C67.8911 66.2305 67.1922 67.6393 65.794 67.6393" stroke="#359AC0" stroke-width="4" stroke-miterlimit="10" stroke-linejoin="round"/>
<path fill-rule="evenodd" clip-rule="evenodd" d="M79.79 58.6178C78.547 58.6178 77.5394 57.6106 77.5394 56.3682C77.5394 55.7715 77.7765 55.1993 78.1985 54.7774C78.6206 54.3555 79.1931 54.1185 79.79 54.1185C81.033 54.1185 82.0406 55.1257 82.0406 56.3682C82.0406 57.6106 81.033 58.6178 79.79 58.6178Z" fill="#00B39F"/>
<path d="M79.7868 59.7547C79.7868 59.4705 79.8012 59.3282 79.8156 59.1863C79.83 59.0443 79.8444 58.9027 79.8444 58.6191" stroke="#359AC0" stroke-width="2" stroke-miterlimit="10" stroke-linejoin="round"/>
<path d="M75.8897 62.0043C76.3021 62.0043 76.5078 60.5956 76.7146 59.1868C76.9213 57.7781 77.129 56.3694 77.5435 56.3694" stroke="#359AC0" stroke-width="4" stroke-miterlimit="10" stroke-linejoin="round"/>
<path fill-rule="evenodd" clip-rule="evenodd" d="M79.6599 87.4646C78.4169 87.4646 77.4092 86.4574 77.4092 85.2149C77.4092 84.6183 77.6464 84.0461 78.0684 83.6242C78.4905 83.2023 79.063 82.9653 79.6599 82.9653C80.9029 82.9653 81.9105 83.9725 81.9105 85.2149C81.9105 86.4574 80.9029 87.4646 79.6599 87.4646Z" fill="#00B39F"/>
<path fill-rule="evenodd" clip-rule="evenodd" d="M73.5119 81.8285C72.2689 81.8285 71.2613 80.8213 71.2613 79.5788C71.2613 78.9821 71.4984 78.4099 71.9205 77.9881C72.3425 77.5662 72.915 77.3292 73.5119 77.3292C74.7549 77.3292 75.7626 78.3364 75.7626 79.5788C75.7626 80.8213 74.7549 81.8285 73.5119 81.8285Z" fill="#00B39F"/>
<path fill-rule="evenodd" clip-rule="evenodd" d="M79.6599 81.8285C78.4169 81.8285 77.4092 80.8213 77.4092 79.5788C77.4092 78.9821 77.6464 78.4099 78.0684 77.9881C78.4905 77.5662 79.063 77.3292 79.6599 77.3292C80.9029 77.3292 81.9105 78.3364 81.9105 79.5788C81.9105 80.8213 80.9029 81.8285 79.6599 81.8285Z" fill="#00B39F"/>
<path d="M77.4092 85.2149C76.9976 85.2149 76.7908 83.8062 76.5859 82.3975C76.381 80.9887 76.1778 79.58 75.7697 79.58" stroke="#CD502F" stroke-width="2" stroke-miterlimit="10" stroke-linejoin="round"/>
<path d="M75.7626 79.5788C76.1743 79.5788 76.381 79.5932 76.5859 79.6075C76.7908 79.6219 76.994 79.6363 77.402 79.6363" stroke="#CD502F" stroke-width="2" stroke-miterlimit="10" stroke-linejoin="round"/>
<path d="M79.6597 82.9653C79.6597 82.6811 79.6741 82.5388 79.6885 82.3969C79.7029 82.2549 79.7173 82.1133 79.7173 81.8297" stroke="#CD502F" stroke-width="2" stroke-miterlimit="10" stroke-linejoin="round"/>
<path fill-rule="evenodd" clip-rule="evenodd" d="M79.663 76.1924C78.42 76.1924 77.4124 75.1852 77.4124 73.9427C77.4124 73.3461 77.6495 72.7739 78.0716 72.352C78.4937 71.9301 79.0661 71.6931 79.663 71.6931C80.906 71.6931 81.9137 72.7003 81.9137 73.9427C81.9137 75.1852 80.906 76.1924 79.663 76.1924Z" fill="#00B39F"/>
<path d="M79.6597 77.3292C79.6597 77.045 79.6741 76.9027 79.6885 76.7607C79.7029 76.6188 79.7173 76.4771 79.7173 76.1935" stroke="#359AC0" stroke-width="2" stroke-miterlimit="10" stroke-linejoin="round"/>
<path d="M75.7626 79.5788C76.175 79.5788 76.3808 78.1701 76.5875 76.7614C76.7943 75.3527 77.002 73.9439 77.4164 73.9439" stroke="#359AC0" stroke-width="2" stroke-miterlimit="10" stroke-linejoin="round"/>
<path d="M59.9881 111.575L58.7225 108.216H58.6912C58.7016 108.279 58.7068 108.362 58.7068 108.466C58.7173 108.57 58.7225 108.685 58.7225 108.81C58.7329 108.924 58.7381 109.044 58.7381 109.169V111.575H58.3162V107.779H58.9725L60.1756 110.935H60.2068L61.4256 107.779H62.0662V111.575H61.6287V109.138C61.6287 109.023 61.6287 108.914 61.6287 108.81C61.6391 108.695 61.6443 108.586 61.6443 108.482C61.6548 108.378 61.6652 108.289 61.6756 108.216H61.6443L60.3631 111.575H59.9881ZM65.2334 111.575H63.1084V107.779H65.2334V108.169H63.5615V109.388H65.1396V109.779H63.5615V111.185H65.2334V111.575ZM68.2253 110.56C68.2253 110.789 68.168 110.982 68.0535 111.138C67.9389 111.294 67.7826 111.414 67.5847 111.497C67.3868 111.581 67.1472 111.622 66.866 111.622C66.7305 111.622 66.5951 111.617 66.4597 111.607C66.3347 111.596 66.2149 111.581 66.1003 111.56C65.9962 111.529 65.9024 111.492 65.8191 111.45V111.029C65.9545 111.081 66.116 111.133 66.3035 111.185C66.491 111.226 66.6889 111.247 66.8972 111.247C67.0847 111.247 67.241 111.221 67.366 111.169C67.5014 111.117 67.6003 111.044 67.6628 110.95C67.7358 110.857 67.7722 110.742 67.7722 110.607C67.7722 110.471 67.741 110.362 67.6785 110.279C67.6264 110.185 67.5326 110.101 67.3972 110.029C67.2722 109.956 67.0951 109.883 66.866 109.81C66.6993 109.747 66.5535 109.685 66.4285 109.622C66.3139 109.549 66.2149 109.471 66.1316 109.388C66.0483 109.294 65.9858 109.19 65.9441 109.075C65.9024 108.961 65.8816 108.831 65.8816 108.685C65.8816 108.487 65.9285 108.315 66.0222 108.169C66.1264 108.023 66.2722 107.914 66.4597 107.841C66.6472 107.758 66.8555 107.716 67.0847 107.716C67.293 107.716 67.4805 107.737 67.6472 107.779C67.8243 107.81 67.9858 107.862 68.1316 107.935L67.991 108.31C67.8555 108.247 67.7097 108.2 67.5535 108.169C67.3972 108.128 67.241 108.107 67.0847 108.107C66.918 108.107 66.7774 108.133 66.6628 108.185C66.5587 108.226 66.4753 108.294 66.4128 108.388C66.3503 108.471 66.3191 108.57 66.3191 108.685C66.3191 108.82 66.3451 108.935 66.3972 109.029C66.4597 109.112 66.5535 109.19 66.6785 109.263C66.8035 109.325 66.9701 109.393 67.1785 109.466C67.3972 109.549 67.5847 109.638 67.741 109.732C67.8972 109.825 68.017 109.94 68.1003 110.075C68.1837 110.2 68.2253 110.362 68.2253 110.56ZM71.8813 111.575H71.4282V109.779H69.4438V111.575H68.9907V107.779H69.4438V109.388H71.4282V107.779H71.8813V111.575ZM75.0441 111.575H72.9191V107.779H75.0441V108.169H73.3723V109.388H74.9504V109.779H73.3723V111.185H75.0441V111.575ZM76.9111 107.779C77.2236 107.779 77.4788 107.815 77.6767 107.888C77.885 107.961 78.0361 108.081 78.1298 108.247C78.234 108.404 78.2861 108.601 78.2861 108.841C78.2861 109.039 78.2496 109.206 78.1767 109.341C78.1038 109.476 78.01 109.586 77.8954 109.669C77.7809 109.753 77.6559 109.82 77.5204 109.872L78.5673 111.575H78.0517L77.1142 109.982H76.3329V111.575H75.8798V107.779H76.9111ZM76.8798 108.154H76.3329V109.607H76.9267C77.2392 109.607 77.4684 109.544 77.6142 109.419C77.76 109.294 77.8329 109.112 77.8329 108.872C77.8329 108.612 77.7548 108.43 77.5986 108.325C77.4423 108.211 77.2027 108.154 76.8798 108.154ZM80.137 109.685L81.1526 107.779H81.637L80.3714 110.107V111.575H79.9183V110.122L78.6526 107.779H79.137L80.137 109.685ZM84.4127 109.669C84.4127 109.982 84.3867 110.258 84.3346 110.497C84.2929 110.737 84.22 110.945 84.1158 111.122C84.0117 111.289 83.8815 111.414 83.7252 111.497C83.569 111.581 83.3763 111.622 83.1471 111.622C82.8658 111.622 82.6315 111.549 82.444 111.404C82.2669 111.247 82.1315 111.023 82.0377 110.732C81.944 110.44 81.8971 110.086 81.8971 109.669C81.8971 109.263 81.9388 108.914 82.0221 108.622C82.1054 108.331 82.2356 108.107 82.4127 107.95C82.6002 107.794 82.845 107.716 83.1471 107.716C83.4388 107.716 83.6731 107.794 83.8502 107.95C84.0377 108.107 84.1783 108.331 84.2721 108.622C84.3658 108.914 84.4127 109.263 84.4127 109.669ZM82.3346 109.669C82.3346 110.023 82.3606 110.32 82.4127 110.56C82.4648 110.789 82.5481 110.966 82.6627 111.091C82.7877 111.206 82.9492 111.263 83.1471 111.263C83.345 111.263 83.5013 111.206 83.6158 111.091C83.7408 110.966 83.8294 110.789 83.8815 110.56C83.944 110.32 83.9752 110.023 83.9752 109.669C83.9752 109.315 83.944 109.023 83.8815 108.794C83.8294 108.555 83.7408 108.378 83.6158 108.263C83.5013 108.148 83.345 108.091 83.1471 108.091C82.9492 108.091 82.7877 108.148 82.6627 108.263C82.5481 108.378 82.4648 108.555 82.4127 108.794C82.3606 109.023 82.3346 109.315 82.3346 109.669ZM86.1467 109.247C86.4071 109.247 86.6311 109.294 86.8186 109.388C87.0061 109.471 87.1519 109.596 87.2561 109.763C87.3603 109.93 87.4124 110.133 87.4124 110.372C87.4124 110.633 87.3551 110.857 87.2405 111.044C87.1363 111.232 86.9749 111.378 86.7561 111.482C86.5478 111.575 86.2978 111.622 86.0061 111.622C85.8082 111.622 85.6207 111.607 85.4436 111.575C85.2769 111.544 85.1363 111.492 85.0217 111.419V111.013C85.1467 111.086 85.2978 111.148 85.4749 111.2C85.6624 111.242 85.8394 111.263 86.0061 111.263C86.204 111.263 86.3707 111.232 86.5061 111.169C86.6519 111.107 86.7665 111.013 86.8499 110.888C86.9332 110.763 86.9749 110.601 86.9749 110.404C86.9749 110.154 86.8967 109.961 86.7405 109.825C86.5842 109.69 86.3394 109.622 86.0061 109.622C85.9019 109.622 85.7821 109.633 85.6467 109.654C85.5217 109.664 85.4176 109.68 85.3342 109.7L85.1155 109.56L85.2561 107.779H87.1467V108.169H85.6311L85.5374 109.31C85.5999 109.299 85.6832 109.289 85.7874 109.279C85.8915 109.258 86.0113 109.247 86.1467 109.247ZM88.0214 109.95C88.0214 109.721 88.037 109.497 88.0682 109.279C88.0995 109.06 88.1516 108.857 88.2245 108.669C88.3078 108.482 88.412 108.32 88.537 108.185C88.6724 108.039 88.8391 107.924 89.037 107.841C89.2349 107.758 89.4745 107.716 89.7557 107.716C89.8287 107.716 89.912 107.721 90.0057 107.732C90.0995 107.742 90.1724 107.753 90.2245 107.763V108.138C90.162 108.117 90.0891 108.101 90.0057 108.091C89.9224 108.081 89.8391 108.075 89.7557 108.075C89.4328 108.075 89.1776 108.148 88.9901 108.294C88.813 108.43 88.6828 108.617 88.5995 108.857C88.5162 109.096 88.4693 109.367 88.4589 109.669H88.4901C88.5422 109.575 88.6099 109.497 88.6932 109.435C88.7766 109.362 88.8755 109.305 88.9901 109.263C89.1151 109.221 89.2557 109.2 89.412 109.2C89.6307 109.2 89.8234 109.247 89.9901 109.341C90.1568 109.424 90.2818 109.555 90.3651 109.732C90.4589 109.898 90.5057 110.107 90.5057 110.357C90.5057 110.617 90.4589 110.846 90.3651 111.044C90.2714 111.232 90.1307 111.378 89.9432 111.482C89.7662 111.575 89.5578 111.622 89.3182 111.622C89.1307 111.622 88.9589 111.591 88.8026 111.529C88.6464 111.456 88.5109 111.351 88.3964 111.216C88.2818 111.07 88.188 110.893 88.1151 110.685C88.0526 110.476 88.0214 110.232 88.0214 109.95ZM89.3026 111.263C89.5422 111.263 89.7297 111.19 89.8651 111.044C90.0109 110.888 90.0839 110.659 90.0839 110.357C90.0839 110.107 90.0214 109.909 89.8964 109.763C89.7714 109.617 89.5787 109.544 89.3182 109.544C89.1516 109.544 89.0005 109.581 88.8651 109.654C88.7401 109.726 88.6412 109.82 88.5682 109.935C88.4953 110.039 88.4589 110.143 88.4589 110.247C88.4589 110.362 88.4745 110.482 88.5057 110.607C88.5474 110.721 88.5995 110.831 88.662 110.935C88.7349 111.029 88.8234 111.107 88.9276 111.169C89.0422 111.232 89.1672 111.263 89.3026 111.263Z" fill="#999999"/>
<path d="M16.6182 70.7C17.2182 68.6 18.3182 66.7 19.7182 65.2C19.2182 64.8 17.4182 63.4 17.3182 62.2C17.2182 60.3 19.0182 54 19.0182 54C19.0182 54 13.3182 60.9 13.0182 63.7C12.7182 65.9 16.2182 70.2 16.6182 70.7ZM39.6182 70.5C39.6182 70.6 39.7182 70.6 39.6182 70.5C40.2182 69.8 43.5182 65.8 43.2182 63.7C42.8182 60.9 37.2182 54 37.2182 54C37.2182 54 39.1182 60.3 38.9182 62.2C38.8182 63.3 37.1182 64.7 36.5182 65.1C38.0182 66.6 39.0182 68.4 39.6182 70.5Z" fill="#BFBFBF"/>
<path d="M39.6182 70.6C39.0182 68.5 37.9182 66.6 36.5182 65.1C34.3182 62.8 31.3182 61.4 28.1182 61.4V68.8C28.9182 68.8 29.5182 69.5 29.5182 70.2C29.5182 70.3 29.5182 70.4 29.5182 70.5C29.4182 71.2 28.8182 71.7 28.1182 71.7V74.5V87.6H28.4182C28.4182 87.6 31.4182 83.2 33.1182 81.9C35.0182 80.4 39.7182 78.6 39.7182 78.6V70.6H39.6182Z" fill="#566366"/>
<path d="M28.1182 74.5V71.7C27.4182 71.7 26.9182 71.2 26.7182 70.6C26.7182 70.5 26.6182 70.4 26.6182 70.2C26.6182 69.4 27.2182 68.8 28.0182 68.8V61.4C24.8182 61.4 21.8182 62.8 19.6182 65.1C18.2182 66.6 17.1182 68.5 16.5182 70.6V78.7C16.5182 78.7 21.2182 80.5 23.1182 82C24.7182 83.2 27.8182 87.5 27.8182 87.5H28.1182V74.5Z" fill="#7D9199"/>
<path d="M26.7182 70.3C26.7182 70.4 26.7182 70.6 26.8182 70.7C27.0182 71.3 27.5182 71.8 28.2182 71.8C28.9182 71.8 29.5182 71.3 29.6182 70.6C29.6182 70.5 29.6182 70.4 29.6182 70.3C29.6182 69.5 29.0182 68.9 28.2182 68.9C27.3182 68.8 26.7182 69.5 26.7182 70.3Z" fill="white"/>
<path d="M48.1487 110.302C48.3392 109.635 48.6885 109.032 49.1329 108.556C48.9742 108.429 48.4027 107.984 48.371 107.603C48.3392 107 48.9107 105 48.9107 105C48.9107 105 47.101 107.191 47.0058 108.08C46.9105 108.778 48.0217 110.143 48.1487 110.302ZM55.4509 110.239C55.4509 110.27 55.4827 110.27 55.4509 110.239C55.6414 110.016 56.6891 108.746 56.5939 108.08C56.4669 107.191 54.689 105 54.689 105C54.689 105 55.2922 107 55.2287 107.603C55.197 107.953 54.6572 108.397 54.4667 108.524C54.943 109 55.2604 109.572 55.4509 110.239Z" fill="#BFBFBF"/>
<path d="M55.4509 110.27C55.2604 109.604 54.9112 109 54.4667 108.524C53.7683 107.794 52.8158 107.349 51.7998 107.349V109.699C52.0538 109.699 52.2443 109.921 52.2443 110.143C52.2443 110.175 52.2443 110.207 52.2443 110.239C52.2126 110.461 52.0221 110.62 51.7998 110.62V111.508V115.668H51.8951C51.8951 115.668 52.8475 114.271 53.3873 113.858C53.9905 113.382 55.4827 112.81 55.4827 112.81V110.27H55.4509Z" fill="#566366"/>
<path d="M51.7999 111.508V110.62C51.5776 110.62 51.4189 110.461 51.3554 110.27C51.3554 110.239 51.3236 110.207 51.3236 110.143C51.3236 109.889 51.5141 109.699 51.7681 109.699V107.349C50.7521 107.349 49.7997 107.794 49.1012 108.524C48.6567 109 48.3075 109.604 48.117 110.27V112.842C48.117 112.842 49.6092 113.413 50.2124 113.89C50.7204 114.271 51.7046 115.636 51.7046 115.636H51.7999V111.508Z" fill="#7D9199"/>
<path d="M51.3553 110.175C51.3553 110.207 51.3553 110.27 51.3871 110.302C51.4506 110.493 51.6093 110.651 51.8316 110.651C52.0538 110.651 52.2443 110.493 52.2761 110.27C52.2761 110.239 52.2761 110.207 52.2761 110.175C52.2761 109.921 52.0856 109.731 51.8316 109.731C51.5458 109.699 51.3553 109.921 51.3553 110.175Z" fill="white"/>
</svg>
