<svg xmlns="http://www.w3.org/2000/svg" viewBox="0 0 113.46 113.12"><title>VertAsset 1</title><g id="Layer_2" data-name="Layer 2"><g id="Logo"><polygon points="51.08 0 22.73 16.35 22.73 16.37 22.73 55.63 33.38 61.78 33.38 22.5 51.08 12.28 51.08 0"/><polygon points="62.39 0 62.39 31.28 51.08 31.28 51.08 19.61 40.42 25.75 40.42 65.83 51.08 72 51.08 40.8 62.39 40.8 62.39 52.4 73.04 46.25 73.04 6.15 62.39 0"/><polygon points="62.39 72.01 90.74 55.66 90.74 55.64 90.74 16.38 80.09 10.23 80.09 49.51 62.39 59.72 62.39 72.01"/><path d="M11.08,106.76V98.42H3.74v8.35H0V87H3.74v8.14h7.34V87h3.74v19.78Z"/><path d="M28.51,106.76h-3l-.27-1A7.91,7.91,0,0,1,21,107.06c-2.64,0-3.77-1.81-3.77-4.31,0-2.94,1.28-4.07,4.22-4.07h3.47V97.17c0-1.6-.45-2.17-2.76-2.17a20.22,20.22,0,0,0-4,.45l-.45-2.76a18.87,18.87,0,0,1,5-.68c4.54,0,5.88,1.6,5.88,5.23Zm-3.62-5.46H22.21c-1.19,0-1.51.33-1.51,1.43s.33,1.46,1.46,1.46a5.7,5.7,0,0,0,2.73-.74Z"/><path d="M35.52,107.06a17,17,0,0,1-5-.83l.5-2.76a16.19,16.19,0,0,0,4.31.62c1.6,0,1.84-.36,1.84-1.46,0-.89-.18-1.34-2.52-1.9-3.53-.86-3.95-1.75-3.95-4.54S32,92,36.11,92a19,19,0,0,1,4.34.5l-.36,2.88a25.46,25.46,0,0,0-4-.42c-1.57,0-1.84.36-1.84,1.25,0,1.16.09,1.25,2,1.75,4,1.07,4.43,1.6,4.43,4.57C40.75,105.34,39.88,107.06,35.52,107.06Z"/><path d="M51.53,106.76V96.66c0-.77-.33-1.16-1.16-1.16a10,10,0,0,0-3.77,1.22v10H43V86.39l3.62-.5V93.4A12.76,12.76,0,0,1,51.88,92c2.41,0,3.27,1.69,3.27,4.28v10.48Z"/><path d="M57.82,90.25V86.06h3.62v4.19Zm0,16.51V92.3h3.62v14.46Z"/><path d="M64,92.42c0-3.62,2.11-5.73,7-5.73a22.39,22.39,0,0,1,5.38.65L76,90.58a29.17,29.17,0,0,0-4.84-.5c-2.58,0-3.42.89-3.42,3v7.6c0,2.11.83,3,3.42,3a29.17,29.17,0,0,0,4.84-.5l.42,3.24a22.39,22.39,0,0,1-5.38.65c-4.93,0-7-2.11-7-5.73Z"/><path d="M83.81,107.06c-5,0-6.3-2.73-6.3-5.7V97.7c0-3,1.34-5.7,6.3-5.7s6.3,2.73,6.3,5.7v3.65C90.1,104.33,88.77,107.06,83.81,107.06Zm0-12c-1.93,0-2.67.86-2.67,2.49v3.89c0,1.63.74,2.49,2.67,2.49s2.67-.86,2.67-2.49V97.59C86.48,96,85.74,95.09,83.81,95.09Z"/><path d="M99.73,95.33a28.36,28.36,0,0,0-3.83,2.11v9.33H92.27V92.3h3.06l.24,1.6a16.21,16.21,0,0,1,3.8-1.9Z"/><path d="M113.46,102c0,3.21-1.43,5.11-4.78,5.11a20,20,0,0,1-3.86-.42v6l-3.62.5V92.3h2.88l.36,1.22A7.61,7.61,0,0,1,109,92c2.91,0,4.45,1.72,4.45,5Zm-8.64,1.63A16.06,16.06,0,0,0,108,104c1.31,0,1.81-.62,1.81-1.93V96.93c0-1.19-.45-1.84-1.78-1.84a5.12,5.12,0,0,0-3.24,1.31Z"/></g></g></svg>