<?xml version="1.0" encoding="UTF-8"?><svg id="a" xmlns="http://www.w3.org/2000/svg" viewBox="0 0 1000 328.9"><defs><style>.b,.c{fill:#fff;}.c{isolation:isolate;}</style></defs><g><path class="b" d="M384.2,1.2h57.7V7.1h-25.4V74h-6.9V7.2h-25.4V1.2h0Z"/><path class="b" d="M448.7,1.2h6.9v31.6h43.2V1.2h6.9V74h-6.9V38.8h-43.2v35.2h-6.9V1.2Z"/><path class="b" d="M520.5,1.2h50.3V7.1h-43.3v26.3h40.5v5.9h-40.6v28.7h43.8v6h-50.8V1.2h.1Z"/></g><g><path class="b" d="M384.2,254.6h46.2v5.9h-39.2v26.3h34.8v5.9h-34.9v34.7h-6.9v-72.8Z"/><path class="b" d="M469.4,253.1c22.8,0,34.2,17.9,34.2,37.9s-11.4,37.9-34.2,37.9-34.4-17.9-34.4-37.9,11.4-37.9,34.4-37.9Zm0,69.9c19.2,0,27.3-16.1,27.3-32s-8.2-32-27.3-32-27.4,16.1-27.4,32,8.1,32,27.4,32Z"/><path class="b" d="M513.7,254.6h6.9v45.1c0,16.8,7.8,23.3,21.3,23.3s21.4-6.5,21.4-23.3v-45.1h6.9v46.6c0,15-8.1,27.7-28.3,27.7s-28.2-12.7-28.2-27.7v-46.6h0Z"/><path class="b" d="M584.2,254.6h7.7l42.4,61.6h.2v-61.6h6.9v72.8h-7.7l-42.4-61.6h-.2v61.6h-6.9v-72.8Z"/><path class="b" d="M656.1,254.6h25.2c22,.5,33.4,12.3,33.4,36.4s-11.4,35.9-33.4,36.4h-25.2v-72.8Zm6.9,66.9h14.8c20.9,0,30-8.7,30-30.5s-9.1-30.5-30-30.5h-14.8v61Z"/><path class="b" d="M747.2,254.6h7.7l28.5,72.8h-7.4l-8.9-22.6h-33.1l-8.8,22.6h-7.4l29.4-72.8Zm-11,44.3h28.6l-14.1-37.3-14.5,37.3Z"/><path class="b" d="M775.3,254.6h57.7v5.9h-25.4v66.9h-6.9v-66.9h-25.4v-5.9h0Z"/><path class="b" d="M840.4,254.6h6.9v72.8h-6.9v-72.8Z"/><path class="b" d="M893,253.1c22.8,0,34.2,17.9,34.2,37.9s-11.4,37.9-34.2,37.9-34.4-17.9-34.4-37.9,11.4-37.9,34.4-37.9Zm0,69.9c19.2,0,27.3-16.1,27.3-32s-8.2-32-27.3-32-27.4,16.1-27.4,32,8.1,32,27.4,32Z"/><path class="b" d="M937.9,254.6h7.7l42.4,61.6h.2v-61.6h6.9v72.8h-7.7l-42.4-61.6h-.2v61.6h-6.9v-72.8Z"/></g><g><path class="b" d="M384.2,95.7h40.1v96.8h57.6v33.4h-97.8V95.7h.1Z"/><path class="b" d="M508.2,95.7h40.1V225.9h-40.1V95.7h0Z"/><path class="b" d="M578.2,95.7h41l37.9,69.7h.4V95.7h37.9V225.9h-39l-39.9-71.1h-.4v71.1h-37.9V95.7Z"/><path class="b" d="M843.7,175.6c0,36.3-19.1,53.4-59.3,53.4s-59.5-17.1-59.5-53.4V95.7h40.1v70.9c0,13.1-.2,29.9,19.5,29.9s19-16.8,19-29.9V95.7h40.1v79.9h.1Z"/><path class="b" d="M907.5,156.6l-42.9-60.9h47.1l19.7,35.4,19.3-35.4h44.5l-41.7,61.3,46.5,68.9h-48.3l-22.2-38.8-23,38.8h-46l47-69.3Z"/></g><polygon class="c" points="65.6 261.9 65.6 131 0 131 0 327.4 196.5 327.4 196.5 261.9 65.6 261.9"/><polygon class="b" points="327.3 0 0 0 0 98.2 65.5 98.2 65.5 65.8 261.9 65.8 261.9 261.9 229.2 261.9 229.2 327.4 327.3 327.4 327.3 0"/></svg>