<svg width="64" height="64" viewBox="0 0 64 64" fill="none" xmlns="http://www.w3.org/2000/svg">
<rect width="64" height="64" rx="32" fill="#EBC017" fill-opacity="0.2"/>
<path d="M20.0016 13.9998C20.0016 13.3371 19.4643 12.7998 18.8016 12.7998C18.1388 12.7998 17.6016 13.3371 17.6016 13.9998C17.6016 21.7112 22.3237 28.2117 29.0665 30.7998C22.3237 33.3879 17.6016 39.8884 17.6016 47.5998C17.6016 48.2625 18.1388 48.7998 18.8016 48.7998C19.4643 48.7998 20.0016 48.2625 20.0016 47.5998C20.0016 38.9025 26.9043 31.9998 35.6016 31.9998H37.5045L34.753 34.7513C34.2844 35.2199 34.2844 35.9797 34.753 36.4483C35.2217 36.917 35.9815 36.917 36.4501 36.4483L41.2501 31.6483C41.7187 31.1797 41.7187 30.4199 41.2501 29.9513L36.4501 25.1513C35.9815 24.6826 35.2217 24.6826 34.753 25.1513C34.2844 25.6199 34.2844 26.3797 34.753 26.8483L37.5045 29.5998H35.6016C26.9043 29.5998 20.0016 22.6971 20.0016 13.9998ZM28.4016 17.5998C27.7388 17.5998 27.2016 18.1371 27.2016 18.7998C27.2016 19.4625 27.7388 19.9998 28.4016 19.9998H44.0016C45.2588 19.9998 46.4016 21.1425 46.4016 22.3998V39.1998C46.4016 40.4571 45.2588 41.5998 44.0016 41.5998H28.4016C27.7388 41.5998 27.2016 42.1371 27.2016 42.7998C27.2016 43.4625 27.7388 43.9998 28.4016 43.9998H44.0016C46.5843 43.9998 48.8016 41.7825 48.8016 39.1998V22.3998C48.8016 19.8171 46.5843 17.5998 44.0016 17.5998H28.4016Z" fill="#EBC017"/>
</svg>
