<svg width="448" height="176" viewBox="0 0 448 176" fill="none" xmlns="http://www.w3.org/2000/svg">
<rect x="416.5" y="12.5" width="31" height="31" rx="3.5" stroke="#D2DCDF"/>
<mask id="path-2-inside-1_19833_23406" fill="white">
<path fill-rule="evenodd" clip-rule="evenodd" d="M435 34C438.314 34 441 31.3137 441 28C441 24.6863 438.314 22 435 22C433.628 22 432.364 22.4603 431.354 23.2348C430.931 23.0828 430.475 23 430 23C428.959 23 428.012 23.3973 427.3 24.0486C424.87 24.389 423 26.4761 423 29C423 31.7614 425.239 34 428 34H435Z"/>
</mask>
<path d="M431.354 23.2348L431.015 24.1758L431.529 24.3605L431.962 24.0285L431.354 23.2348ZM427.3 24.0486L427.439 25.0389L427.746 24.9959L427.975 24.7863L427.3 24.0486ZM440 28C440 30.7614 437.761 33 435 33V35C438.866 35 442 31.866 442 28H440ZM435 23C437.761 23 440 25.2386 440 28H442C442 24.134 438.866 21 435 21V23ZM431.962 24.0285C432.804 23.3831 433.856 23 435 23V21C433.401 21 431.924 21.5375 430.745 22.4411L431.962 24.0285ZM430 24C430.358 24 430.699 24.0623 431.015 24.1758L431.692 22.2938C431.162 22.1033 430.592 22 430 22V24ZM427.975 24.7863C428.51 24.2971 429.219 24 430 24V22C428.7 22 427.514 22.4976 426.625 23.3109L427.975 24.7863ZM424 29C424 26.9817 425.496 25.3111 427.439 25.0389L427.161 23.0583C424.244 23.4669 422 25.9705 422 29H424ZM428 33C425.791 33 424 31.2091 424 29H422C422 32.3137 424.686 35 428 35V33ZM435 33H428V35H435V33Z" fill="#FDFDFD" mask="url(#path-2-inside-1_19833_23406)"/>
<rect x="416.5" y="72.5" width="31" height="31" rx="3.5" stroke="#D2DCDF"/>
<path fill-rule="evenodd" clip-rule="evenodd" d="M423 81V85C423 85.5523 423.448 86 424 86H440C440.552 86 441 85.5523 441 85V81C441 80.4477 440.552 80 440 80H424C423.448 80 423 80.4477 423 81ZM422 81V85C422 86.1046 422.895 87 424 87H440C441.105 87 442 86.1046 442 85V81C442 79.8954 441.105 79 440 79H424C422.895 79 422 79.8954 422 81ZM437 83.5V82.5C437 82.2239 437.224 82 437.5 82H438.5C438.776 82 439 82.2239 439 82.5V83.5C439 83.7761 438.776 84 438.5 84H437.5C437.224 84 437 83.7761 437 83.5ZM423 91V95C423 95.5523 423.448 96 424 96H440C440.552 96 441 95.5523 441 95V91C441 90.4477 440.552 90 440 90H424C423.448 90 423 90.4477 423 91ZM422 91V95C422 96.1046 422.895 97 424 97H440C441.105 97 442 96.1046 442 95V91C442 89.8954 441.105 89 440 89H424C422.895 89 422 89.8954 422 91ZM437 93.5V92.5C437 92.2239 437.224 92 437.5 92H438.5C438.776 92 439 92.2239 439 92.5V93.5C439 93.7761 438.776 94 438.5 94H437.5C437.224 94 437 93.7761 437 93.5Z" fill="#FDFDFD"/>
<rect x="416.5" y="132.5" width="31" height="31" rx="3.5" stroke="#D2DCDF"/>
<path d="M431.613 137.842C431.839 137.673 432.149 137.671 432.377 137.837C434.048 139.054 436.101 139.778 437.766 140.198C438.593 140.406 439.313 140.536 439.824 140.614C440.08 140.653 440.283 140.679 440.421 140.695C440.49 140.703 440.542 140.708 440.577 140.712L440.615 140.715L440.623 140.716L440.625 140.716C440.957 140.745 441.213 141.023 441.213 141.357V147.142C441.213 151.281 438.459 156.241 432.196 158.254C432.068 158.296 431.93 158.296 431.802 158.254C425.55 156.245 422.57 151.293 422.57 146.928V141.357C422.57 141.022 422.828 140.743 423.162 140.716L423.166 140.716L423.183 140.714C423.199 140.713 423.223 140.71 423.256 140.707C423.321 140.701 423.418 140.691 423.544 140.675C423.795 140.645 424.158 140.596 424.601 140.52C425.488 140.368 426.686 140.11 427.936 139.687C429.216 139.254 430.527 138.657 431.613 137.842ZM423.856 141.932L423.856 146.928C423.856 150.663 426.388 155.08 431.999 156.966C437.593 155.084 439.927 150.677 439.927 147.142V141.928C439.837 141.916 439.738 141.901 439.631 141.885C439.087 141.802 438.326 141.665 437.452 141.444C435.831 141.036 433.781 140.335 432.003 139.144C430.86 139.925 429.567 140.493 428.348 140.905C427.016 141.355 425.75 141.627 424.818 141.787C424.437 141.853 424.11 141.9 423.856 141.932Z" fill="#FDFDFD"/>
<rect x="0.5" y="0.5" width="31" height="31" rx="3.5" stroke="#D2DCDF"/>
<path d="M19.5 12.5C19.5 14.433 17.933 16 16 16C14.067 16 12.5 14.433 12.5 12.5C12.5 10.567 14.067 9 16 9C17.933 9 19.5 10.567 19.5 12.5ZM18.5 12.5C18.5 11.1193 17.3807 10 16 10C14.6193 10 13.5 11.1193 13.5 12.5C13.5 13.8807 14.6193 15 16 15C17.3807 15 18.5 13.8807 18.5 12.5ZM11.75 17C10.7835 17 9.99997 17.7835 10 18.75L10 19C10 20.1968 10.7613 21.2087 11.8425 21.8967C12.9295 22.5885 14.4008 23 16 23C17.5991 23 19.0704 22.5885 20.1575 21.8967C21.2387 21.2087 22 20.1968 22 19V18.75C22 17.7835 21.2165 17 20.25 17H11.75ZM11 18.75C11 18.3358 11.3358 18 11.75 18H20.25C20.6642 18 21 18.3358 21 18.75V19C21 19.7363 20.5301 20.4743 19.6206 21.053C18.7171 21.628 17.4383 22 16 22C14.5616 22 13.2829 21.628 12.3793 21.053C11.4699 20.4743 11 19.7363 11 19L11 18.75Z" fill="#ABBDC5"/>
<rect x="0.5" y="72.5" width="31" height="31" rx="3.5" stroke="#D2DCDF"/>
<path d="M19.5 84.5C19.5 86.433 17.933 88 16 88C14.067 88 12.5 86.433 12.5 84.5C12.5 82.567 14.067 81 16 81C17.933 81 19.5 82.567 19.5 84.5ZM18.5 84.5C18.5 83.1193 17.3807 82 16 82C14.6193 82 13.5 83.1193 13.5 84.5C13.5 85.8807 14.6193 87 16 87C17.3807 87 18.5 85.8807 18.5 84.5ZM11.75 89C10.7835 89 9.99997 89.7835 10 90.75L10 91C10 92.1968 10.7613 93.2087 11.8425 93.8967C12.9295 94.5885 14.4008 95 16 95C17.5991 95 19.0704 94.5885 20.1575 93.8967C21.2387 93.2087 22 92.1968 22 91V90.75C22 89.7835 21.2165 89 20.25 89H11.75ZM11 90.75C11 90.3358 11.3358 90 11.75 90H20.25C20.6642 90 21 90.3358 21 90.75V91C21 91.7363 20.5301 92.4743 19.6206 93.053C18.7171 93.628 17.4383 94 16 94C14.5616 94 13.2829 93.628 12.3793 93.053C11.4699 92.4743 11 91.7363 11 91L11 90.75Z" fill="#ABBDC5"/>
<rect x="0.5" y="144.5" width="31" height="31" rx="3.5" stroke="#D2DCDF"/>
<path d="M19.5 156.5C19.5 158.433 17.933 160 16 160C14.067 160 12.5 158.433 12.5 156.5C12.5 154.567 14.067 153 16 153C17.933 153 19.5 154.567 19.5 156.5ZM18.5 156.5C18.5 155.119 17.3807 154 16 154C14.6193 154 13.5 155.119 13.5 156.5C13.5 157.881 14.6193 159 16 159C17.3807 159 18.5 157.881 18.5 156.5ZM11.75 161C10.7835 161 9.99997 161.784 10 162.75L10 163C10 164.197 10.7613 165.209 11.8425 165.897C12.9295 166.588 14.4008 167 16 167C17.5991 167 19.0704 166.588 20.1575 165.897C21.2387 165.209 22 164.197 22 163V162.75C22 161.783 21.2165 161 20.25 161H11.75ZM11 162.75C11 162.336 11.3358 162 11.75 162H20.25C20.6642 162 21 162.336 21 162.75V163C21 163.736 20.5301 164.474 19.6206 165.053C18.7171 165.628 17.4383 166 16 166C14.5616 166 13.2829 165.628 12.3793 165.053C11.4699 164.474 11 163.736 11 163L11 162.75Z" fill="#ABBDC5"/>
<rect x="140.5" y="18.5" width="139" height="139" rx="7.5" stroke="#8D9FA7"/>
<g clip-path="url(#clip0_19833_23406)">
<path d="M210.359 53.6562V59.3887L215.33 56.5127L210.359 53.6562Z" fill="#00D3A9"/>
<path d="M210.359 60.5869V66.3478L215.376 63.4807L210.359 60.5869Z" fill="#00D3A9"/>
<path d="M209.643 59.3495V53.7041L204.734 56.5179L209.643 59.3495Z" fill="#00B39F"/>
<path d="M199.797 66.3264C200.76 67.8747 202.062 69.1844 203.605 70.1569V64.124L199.797 66.3264Z" fill="#00B39F"/>
<path d="M209.644 66.3187V60.6289L204.723 63.4765L209.644 66.3187Z" fill="#00B39F"/>
<path d="M204.32 69.7975L209.303 66.9499L204.32 64.0703V69.7975Z" fill="#00D3A9"/>
<path d="M215.714 69.8276V64.1094L210.738 66.9534L215.714 69.8276Z" fill="#00B39F"/>
<path d="M220.586 65.6627C221.437 64.0758 221.918 62.3173 221.993 60.5186L216.812 63.4834L220.586 65.6627Z" fill="#00B39F"/>
<path d="M216.434 62.8762L221.435 60.018L216.434 57.1455V62.8762Z" fill="#00D3A9"/>
<path d="M215.715 55.9101V50.2256L210.762 53.0643L215.715 55.9101Z" fill="#00B39F"/>
<path d="M215.714 62.8513V57.1152L210.75 59.9877L215.714 62.8513Z" fill="#00B39F"/>
<path d="M204.32 57.1045V62.8832L209.321 59.9894L204.32 57.1045Z" fill="#00D3A9"/>
<path d="M209.642 48C207.801 48.0518 205.997 48.5281 204.371 49.3918L209.642 52.4136V48Z" fill="#00B39F"/>
<path d="M204.32 50.1865V55.9314L209.325 53.0625L204.32 50.1865Z" fill="#00D3A9"/>
<path d="M203.605 49.8379C202.062 50.8109 200.76 52.1205 199.797 53.6684L203.605 55.8654V49.8379Z" fill="#00B39F"/>
<path d="M215.684 49.422C214.044 48.54 212.221 48.0531 210.359 48V52.4704L215.684 49.422Z" fill="#00D3A9"/>
<path d="M198 60.4199C198.062 62.2705 198.553 64.0814 199.435 65.7098L203.293 63.4772L198 60.4199Z" fill="#00D3A9"/>
<path d="M199.435 54.2871C198.556 55.9084 198.065 57.7111 198 59.5539L203.298 56.5161L199.435 54.2871Z" fill="#00D3A9"/>
<path d="M204.363 70.5973C205.992 71.4652 207.799 71.944 209.643 71.9962V67.5791L204.363 70.5973Z" fill="#00B39F"/>
<path d="M220.218 53.6885C219.261 52.1451 217.967 50.8375 216.434 49.8633V55.8748L220.218 53.6885Z" fill="#00D3A9"/>
<path d="M216.434 70.1369C217.975 69.1558 219.274 67.8382 220.232 66.2833L216.434 64.0898V70.1369Z" fill="#00D3A9"/>
<path d="M222.01 59.5197C221.942 57.6948 221.455 55.9098 220.587 54.3027L216.762 56.5104L222.01 59.5197Z" fill="#00B39F"/>
<path d="M210.359 71.9965C212.2 71.945 214.003 71.4686 215.629 70.6047L210.359 67.5527V71.9965Z" fill="#00D3A9"/>
<path d="M203.602 62.8318V57.165L198.68 59.986L203.602 62.8318Z" fill="#00B39F"/>
</g>
<rect x="156" y="88" width="40" height="40" rx="8" fill="#ABBDC5" fill-opacity="0.2"/>
<g clip-path="url(#clip1_19833_23406)">
<path d="M179.557 101.265C179.995 101.812 180.316 102.425 180.561 103.076C180.878 103.916 181.023 104.789 180.842 105.675C180.599 106.864 179.904 107.701 178.742 108.103C178.291 108.259 177.822 108.322 177.356 108.127C177.292 108.104 177.231 108.071 177.178 108.029C177.171 108.307 177.067 108.573 176.883 108.78C176.944 108.753 177.008 108.734 177.075 108.725C177.139 108.713 177.206 108.704 177.269 108.699C177.891 108.647 178.489 108.516 179.057 108.244C179.934 107.823 180.668 107.224 181.292 106.484C181.648 106.068 181.947 105.606 182.179 105.109C182.508 104.377 182.719 103.598 182.805 102.8C182.885 102.112 182.864 101.438 182.795 100.756C182.778 100.592 182.707 100.524 182.56 100.498C182.18 100.43 181.8 100.354 181.427 100.263C180.451 100.026 179.467 99.8249 178.489 99.5987C178.141 99.5176 177.792 99.4444 177.443 99.3672C177.699 99.6114 177.974 99.8122 178.24 100.025C178.712 100.401 179.177 100.788 179.557 101.265Z" fill="#00B39F"/>
<path d="M168.811 109.732C169.11 108.472 169.605 107.317 170.628 106.466C171.559 105.69 172.613 105.448 173.775 105.852C174.361 106.055 174.864 106.383 175.131 106.98C175.157 107.033 175.176 107.089 175.187 107.147C175.369 106.973 175.603 106.862 175.853 106.831C175.838 106.821 175.822 106.81 175.804 106.796C175.448 106.509 175.109 106.196 174.694 105.985C173.221 105.234 171.674 105.137 170.101 105.537C168.434 105.961 167.145 106.974 166.087 108.306C165.968 108.455 165.978 108.552 166.075 108.703C166.896 109.98 167.708 111.262 168.523 112.542C168.631 112.712 168.742 112.879 168.89 113.102C168.906 112.725 168.826 112.423 168.784 112.119C168.672 111.321 168.622 110.526 168.811 109.732Z" fill="#00D3A9"/>
<path d="M171.324 100.87C171.891 100.775 172.462 100.712 173.036 100.681C173.556 100.652 174.064 100.755 174.569 100.886C175.76 101.198 176.828 101.719 177.611 102.706C178.359 103.647 178.538 104.703 178.137 105.835C177.932 106.414 177.585 106.895 176.993 107.155C176.952 107.176 176.908 107.188 176.862 107.191C177.039 107.38 177.149 107.622 177.174 107.88C177.201 107.837 177.231 107.797 177.265 107.759C177.698 107.243 178.091 106.701 178.316 106.055C178.611 105.207 178.735 104.309 178.678 103.413C178.635 102.537 178.414 101.678 178.029 100.891C177.476 99.774 176.679 98.855 175.706 98.082C175.561 97.9667 175.456 97.9803 175.305 98.0776C174.053 98.883 172.793 99.6771 171.541 100.479C171.346 100.604 171.137 100.712 170.949 100.889C171.075 100.897 171.2 100.89 171.324 100.87Z" fill="#00D3A9"/>
<path d="M167.802 106.059C168.295 105.436 168.766 104.791 169.428 104.329C170.655 103.478 171.98 102.926 173.503 103.138C174.73 103.31 175.616 103.98 176.059 105.163C176.25 105.671 176.309 106.196 176.087 106.721C176.073 106.757 176.055 106.79 176.033 106.822C176.285 106.828 176.528 106.916 176.726 107.071C176.721 107.054 176.717 107.037 176.714 107.019C176.702 106.954 176.702 106.887 176.696 106.823C176.657 106.305 176.573 105.799 176.387 105.309C175.993 104.271 175.319 103.447 174.486 102.73C173.26 101.673 171.814 101.219 170.226 101.159C169.776 101.142 169.324 101.137 168.873 101.196C168.561 101.237 168.537 101.24 168.47 101.547C168.181 102.871 167.89 104.194 167.598 105.518C167.522 105.863 167.448 106.208 167.363 106.602C167.564 106.421 167.669 106.228 167.802 106.059Z" fill="#00B39F"/>
<path d="M185.927 107.31C185.103 106.027 184.289 104.738 183.466 103.454C183.357 103.284 183.271 103.094 183.087 102.905C183.14 103.353 183.178 103.743 183.233 104.13C183.348 104.939 183.347 105.74 183.133 106.535C182.798 107.785 182.24 108.895 181.189 109.702C180.614 110.146 179.948 110.346 179.232 110.356C178.731 110.362 178.253 110.217 177.81 109.979C177.422 109.771 177.093 109.501 176.898 109.095C176.836 108.967 176.81 108.889 176.83 108.837C176.641 109.025 176.394 109.143 176.129 109.172C176.198 109.216 176.264 109.266 176.326 109.32C176.694 109.619 177.062 109.918 177.494 110.124C178.7 110.697 179.974 110.819 181.27 110.615C183.225 110.308 184.707 109.208 185.923 107.698C186.033 107.559 186.019 107.454 185.927 107.31Z" fill="#00D3A9"/>
<path d="M183.336 111.008C182.125 112.227 180.671 112.907 178.924 112.912C177.704 112.916 176.412 112.114 175.979 110.939C175.8 110.452 175.681 109.959 175.865 109.446C175.914 109.31 175.947 109.223 175.985 109.18C175.72 109.177 175.463 109.084 175.258 108.917C175.28 108.983 175.293 109.051 175.298 109.12C175.336 109.496 175.356 109.878 175.469 110.241C176.069 112.179 177.36 113.504 179.184 114.307C180.349 114.82 181.589 114.977 182.864 114.845C183.433 114.785 183.436 114.795 183.55 114.296C183.863 112.918 184.177 111.539 184.481 110.158C184.531 109.926 184.624 109.696 184.619 109.396C184.548 109.493 184.509 109.544 184.472 109.596C184.119 110.085 183.762 110.58 183.336 111.008Z" fill="#00B39F"/>
<path d="M172.65 114.989C172.094 114.364 171.696 113.643 171.42 112.86C171.157 112.111 171.002 111.342 171.128 110.54C171.31 109.376 171.901 108.506 172.988 108.019C173.514 107.783 174.071 107.671 174.644 107.891C174.707 107.912 174.767 107.94 174.823 107.975C174.828 107.723 174.915 107.478 175.07 107.278C175.024 107.288 174.977 107.294 174.929 107.297C174.617 107.316 174.307 107.356 174 107.415C172.938 107.64 172.057 108.196 171.283 108.929C170.25 109.904 169.585 111.088 169.306 112.487C169.137 113.337 169.113 114.189 169.177 115.05C169.202 115.383 169.34 115.502 169.673 115.569C171.064 115.852 172.445 116.183 173.833 116.485C174.069 116.536 174.301 116.624 174.613 116.634C174.386 116.458 174.209 116.324 174.032 116.19C173.546 115.819 173.059 115.448 172.65 114.989Z" fill="#00B39F"/>
<path d="M180.946 115.103C180.451 115.19 179.953 115.251 179.456 115.299C179.048 115.339 178.634 115.359 178.234 115.299C177.655 115.217 177.09 115.062 176.551 114.838C175.712 114.487 174.952 114.023 174.388 113.29C173.707 112.406 173.478 111.421 173.813 110.345C174.003 109.736 174.315 109.193 174.931 108.898C175.041 108.846 175.116 108.821 175.17 108.829C174.985 108.644 174.867 108.402 174.835 108.143C174.808 108.182 174.778 108.22 174.747 108.256C174.464 108.599 174.174 108.937 173.969 109.336C173.473 110.301 173.292 111.326 173.319 112.405C173.333 113.202 173.498 113.988 173.803 114.723C174.336 115.995 175.184 117.03 176.259 117.887C176.427 118.021 176.548 118.035 176.736 117.913C177.819 117.211 178.912 116.522 180.001 115.829C180.362 115.599 180.721 115.368 181.085 115.133C181.067 115.116 181.045 115.103 181.02 115.098C180.995 115.092 180.969 115.094 180.946 115.103Z" fill="#00D3A9"/>
</g>
<path d="M215.715 107.428H210.572V102.285C210.572 101.969 210.317 101.714 210.001 101.714C209.685 101.714 209.429 101.969 209.429 102.285V107.428H204.286C203.97 107.428 203.715 107.684 203.715 108C203.715 108.316 203.97 108.571 204.286 108.571H209.429V113.714C209.429 114.03 209.685 114.285 210.001 114.285C210.317 114.285 210.572 114.03 210.572 113.714V108.571H215.715C216.031 108.571 216.286 108.316 216.286 108C216.286 107.684 216.031 107.428 215.715 107.428Z" fill="#FDFDFD"/>
<rect x="224" y="88" width="40" height="40" rx="8" fill="#ABBDC5" fill-opacity="0.2"/>
<g clip-path="url(#clip2_19833_23406)">
<path d="M237.518 104.323C238.049 103.343 238.792 102.495 239.694 101.844C240.596 101.193 241.632 100.755 242.726 100.563L242.282 98C240.803 98.2611 239.401 98.852 238.179 99.7292C236.956 100.607 235.945 101.748 235.219 103.07L237.518 104.323Z" fill="#00D3A9"/>
<path d="M237.629 111.76C236.936 110.599 236.572 109.27 236.576 107.916C236.575 107.031 236.734 106.153 237.047 105.326L234.609 104.435C234.208 105.551 234.002 106.729 234 107.916C234.001 109.74 234.488 111.529 235.413 113.098L237.629 111.76Z" fill="#00B39F"/>
<path d="M244.081 115.381H243.998C241.699 115.381 239.649 114.323 238.264 112.651L236.27 114.323C237.209 115.47 238.389 116.394 239.725 117.03C241.061 117.666 242.52 117.997 243.998 118H244.109L244.081 115.381Z" fill="#00D3A9"/>
<path d="M250.455 111.594C249.906 112.563 249.148 113.396 248.238 114.032C247.327 114.669 246.286 115.092 245.191 115.271L245.607 117.861C247.085 117.618 248.49 117.044 249.718 116.181C250.945 115.318 251.964 114.188 252.698 112.875L250.455 111.594Z" fill="#00B39F"/>
<path d="M250.398 104.156C251.057 105.299 251.401 106.596 251.396 107.917C251.402 108.832 251.232 109.74 250.897 110.591L253.335 111.538C253.768 110.39 253.993 109.173 254 107.945C254.001 106.164 253.532 104.415 252.642 102.875L250.398 104.156Z" fill="#00D3A9"/>
<path d="M248.481 102.771L247.922 102.209L249.24 100.883L247.922 99.5568L248.481 98.9941L250.36 100.883L248.481 102.771Z" fill="#20BDAB"/>
<path d="M244.728 102.771L244.168 102.209L245.487 100.883L244.168 99.5568L244.728 98.9941L246.606 100.883L244.728 102.771Z" fill="#20BDAB"/>
</g>
<g opacity="0.1" clip-path="url(#clip3_19833_23406)">
<g opacity="0.8">
<path d="M256.025 50.46V67.0625H219.723V50.46H256.025Z" stroke="white"/>
<path d="M183.118 82.46V87.2588H243.82C252.46 87.2588 259.422 93.869 259.422 101.967V108.76H238.381V102.239H162.078V82.46H183.118Z" stroke="white"/>
<path opacity="0.6" d="M212.634 50.46V67.0625H183.118V75.7109H162.078V50.46H212.634Z" stroke="white"/>
<path opacity="0.6" d="M259.379 115.419V128.455C259.305 132.183 257.725 135.734 254.983 138.328C252.239 140.925 248.554 142.351 244.734 142.292H208.863V125.689H238.379V115.419H259.379Z" stroke="white"/>
<path d="M181.35 116.368V125.689H201.773V142.292H176.003C172.184 142.351 168.498 140.924 165.754 138.327C163.096 135.812 161.531 132.398 161.37 128.794L161.359 128.444V116.368H181.35Z" stroke="white"/>
</g>
</g>
<path d="M140 18H280V30C280 32.2091 278.209 34 276 34H144C141.791 34 140 32.2091 140 30V18Z" fill="#00B39F" fill-opacity="0.3"/>
<circle cx="151" cy="26" r="3" fill="#FF0000"/>
<circle cx="161" cy="26" r="3" fill="#FFFF00"/>
<circle cx="171" cy="26" r="3" fill="#008000"/>
<path d="M124.354 88.3535C124.549 88.1583 124.549 87.8417 124.354 87.6464L121.172 84.4645C120.976 84.2692 120.66 84.2692 120.464 84.4645C120.269 84.6597 120.269 84.9763 120.464 85.1716L123.293 88L120.464 90.8284C120.269 91.0237 120.269 91.3403 120.464 91.5355C120.66 91.7308 120.976 91.7308 121.172 91.5355L124.354 88.3535ZM32 88.5L124 88.5L124 87.5L32 87.5L32 88.5Z" fill="#FDFDFD"/>
<path d="M293.333 88C293.333 89.4728 294.527 90.6667 296 90.6667C297.473 90.6667 298.667 89.4728 298.667 88C298.667 86.5272 297.473 85.3333 296 85.3333C294.527 85.3333 293.333 86.5272 293.333 88ZM400.354 88.3535C400.549 88.1583 400.549 87.8417 400.354 87.6464L397.172 84.4645C396.976 84.2692 396.66 84.2692 396.464 84.4645C396.269 84.6597 396.269 84.9763 396.464 85.1716L399.293 88L396.464 90.8284C396.269 91.0237 396.269 91.3403 396.464 91.5355C396.66 91.7308 396.976 91.7308 397.172 91.5355L400.354 88.3535ZM296 88.5L400 88.5L400 87.5L296 87.5L296 88.5Z" fill="#00B39F"/>
<path d="M124.354 88.3536C124.549 88.1583 124.549 87.8417 124.354 87.6464L121.172 84.4645C120.976 84.2692 120.66 84.2692 120.464 84.4645C120.269 84.6597 120.269 84.9763 120.464 85.1716L123.293 88L120.464 90.8284C120.269 91.0237 120.269 91.3403 120.464 91.5355C120.66 91.7308 120.976 91.7308 121.172 91.5355L124.354 88.3536ZM32 16.5H58V15.5H32V16.5ZM77.5 36V68H78.5V36H77.5ZM98 88.5H124V87.5H98V88.5ZM77.5 68C77.5 79.3218 86.6782 88.5 98 88.5V87.5C87.2304 87.5 78.5 78.7696 78.5 68H77.5ZM58 16.5C68.7696 16.5 77.5 25.2304 77.5 36H78.5C78.5 24.6782 69.3218 15.5 58 15.5V16.5Z" fill="#FDFDFD"/>
<path d="M124.354 87.6464C124.549 87.8417 124.549 88.1583 124.354 88.3536L121.172 91.5355C120.976 91.7308 120.66 91.7308 120.464 91.5355C120.269 91.3403 120.269 91.0237 120.464 90.8284L123.293 88L120.464 85.1716C120.269 84.9763 120.269 84.6597 120.464 84.4645C120.66 84.2692 120.976 84.2692 121.172 84.4645L124.354 87.6464ZM32 159.5H58V160.5H32V159.5ZM77.5 140V108H78.5V140H77.5ZM98 87.5H124V88.5H98V87.5ZM77.5 108C77.5 96.6782 86.6782 87.5 98 87.5V88.5C87.2304 88.5 78.5 97.2304 78.5 108H77.5ZM58 159.5C68.7696 159.5 77.5 150.77 77.5 140H78.5C78.5 151.322 69.3218 160.5 58 160.5V159.5Z" fill="#FDFDFD"/>
<path d="M293.333 88C293.333 89.4728 294.527 90.6667 296 90.6667C297.473 90.6667 298.667 89.4728 298.667 88C298.667 86.5272 297.473 85.3333 296 85.3333C294.527 85.3333 293.333 86.5272 293.333 88ZM400.354 30.3536C400.549 30.1583 400.549 29.8417 400.354 29.6464L397.172 26.4645C396.976 26.2692 396.66 26.2692 396.464 26.4645C396.269 26.6597 396.269 26.9763 396.464 27.1716L399.293 30L396.464 32.8284C396.269 33.0237 396.269 33.3403 396.464 33.5355C396.66 33.7308 396.976 33.7308 397.172 33.5355L400.354 30.3536ZM296 88.5H328V87.5H296V88.5ZM348.5 68V50H347.5V68H348.5ZM368 30.5H400V29.5H368V30.5ZM348.5 50C348.5 39.2304 357.23 30.5 368 30.5V29.5C356.678 29.5 347.5 38.6782 347.5 50H348.5ZM328 88.5C339.322 88.5 348.5 79.3218 348.5 68H347.5C347.5 78.7696 338.77 87.5 328 87.5V88.5Z" fill="#00B39F"/>
<path d="M293.333 88C293.333 89.4728 294.527 90.6667 296 90.6667C297.473 90.6667 298.667 89.4728 298.667 88C298.667 86.5272 297.473 85.3333 296 85.3333C294.527 85.3333 293.333 86.5272 293.333 88ZM400.354 146.354C400.549 146.158 400.549 145.842 400.354 145.646L397.172 142.464C396.976 142.269 396.66 142.269 396.464 142.464C396.269 142.66 396.269 142.976 396.464 143.172L399.293 146L396.464 148.828C396.269 149.024 396.269 149.34 396.464 149.536C396.66 149.731 396.976 149.731 397.172 149.536L400.354 146.354ZM296 88.5H328V87.5H296V88.5ZM347.5 108V126H348.5V108H347.5ZM368 146.5H400V145.5H368V146.5ZM347.5 126C347.5 137.322 356.678 146.5 368 146.5V145.5C357.23 145.5 348.5 136.77 348.5 126H347.5ZM328 88.5C338.77 88.5 347.5 97.2304 347.5 108H348.5C348.5 96.6782 339.322 87.5 328 87.5V88.5Z" fill="#00B39F"/>
<defs>
<clipPath id="clip0_19833_23406">
<rect width="24" height="24" fill="white" transform="translate(198 48)"/>
</clipPath>
<clipPath id="clip1_19833_23406">
<rect width="20" height="20" fill="white" transform="translate(166 98)"/>
</clipPath>
<clipPath id="clip2_19833_23406">
<rect width="20" height="20" fill="white" transform="translate(234 98)"/>
</clipPath>
<clipPath id="clip3_19833_23406">
<rect width="100" height="94" fill="white" transform="translate(160 49)"/>
</clipPath>
</defs>
</svg>
