<svg width="64" height="64" viewBox="0 0 64 64" fill="none" xmlns="http://www.w3.org/2000/svg">
<rect width="64" height="64" rx="32" fill="#EBC017" fill-opacity="0.2"/>
<path d="M21.9972 20.0517C24.3747 18.059 27.3557 16.7628 30.6263 16.4768V19.6253C30.6263 20.3847 31.2419 21.0003 32.0013 21.0003C32.7607 21.0003 33.3763 20.3847 33.3763 19.6253V16.4768C41.0378 17.1466 47.1101 23.3606 47.5581 31.0837H44.3763C43.6169 31.0837 43.0013 31.6993 43.0013 32.4587C43.0013 33.2181 43.6169 33.8337 44.3763 33.8337H47.4827C47.0047 38.0716 44.8733 41.6223 41.675 44.2256C41.086 44.705 40.9972 45.571 41.4766 46.16C41.956 46.7489 42.822 46.8378 43.411 46.3584C47.493 43.0358 50.1396 38.3037 50.3243 32.637C50.3319 32.5786 50.3358 32.5191 50.3358 32.4587C50.3358 32.4221 50.3343 32.3859 50.3315 32.35C50.3336 32.2338 50.3346 32.1173 50.3346 32.0003C50.3346 21.8751 42.1265 13.667 32.0013 13.667C21.8761 13.667 13.668 21.8751 13.668 32.0003C13.668 37.9627 16.4602 42.9156 20.5794 46.3483C21.1628 46.8344 22.0298 46.7556 22.5159 46.1722C23.0021 45.5889 22.9233 44.7218 22.3399 44.2357C19.2026 41.6213 17.017 38.063 16.5236 33.8337H19.6256C20.385 33.8337 21.0006 33.2181 21.0006 32.4587C21.0006 31.6993 20.385 31.0837 19.6256 31.0837H16.4445C16.6446 27.6334 17.9673 24.4843 20.0527 21.9962L22.3207 24.2643C22.8577 24.8012 23.7283 24.8012 24.2652 24.2643C24.8022 23.7273 24.8022 22.8567 24.2652 22.3197L21.9972 20.0517ZM40.7259 22.1628C40.2892 21.8248 39.669 21.8365 39.246 22.1908L38.8477 22.5251C38.594 22.7381 38.2308 23.0436 37.7925 23.4132C36.9161 24.1522 35.7388 25.1482 34.536 26.1756C33.3341 27.2022 32.1031 28.2631 31.1208 29.131C30.6301 29.5645 30.1968 29.954 29.8582 30.269C29.5433 30.562 29.2488 30.8465 29.0886 31.0447C27.8914 32.5252 28.1476 34.6748 29.6608 35.8461C31.174 37.0173 33.3713 36.7666 34.5684 35.2862C34.7286 35.0881 34.9439 34.7421 35.1629 34.375C35.3984 33.9801 35.6861 33.4779 36.0044 32.911C36.6417 31.7761 37.4138 30.36 38.1585 28.9794C38.9036 27.5979 39.6236 26.2478 40.157 25.2434C40.4238 24.741 40.6441 24.325 40.7977 24.0344L41.0385 23.5783C41.2936 23.094 41.1626 22.5008 40.7259 22.1628Z" fill="#EBC017"/>
</svg>
