<svg width="64" height="64" viewBox="0 0 64 64" fill="none" xmlns="http://www.w3.org/2000/svg">
<rect width="64" height="64" rx="32" fill="#EBC017" fill-opacity="0.2"/>
<path d="M32 47.125C27.05 47.125 22.2375 44.65 19.35 40.25H26.5V37.5H15.5V48.5H18.25V43.4125C21.6875 47.5375 26.6375 49.875 32 49.875V47.125ZM52.625 41.625V38.875H49.7375C49.6 38.05 49.1875 37.225 48.775 36.4L50.8375 34.3375L48.9125 32.4125L46.85 34.475C46.1625 34.0625 45.3375 33.65 44.375 33.5125V30.625H41.625V33.5125C40.8 33.65 39.975 34.0625 39.15 34.475L37.0875 32.4125L35.1625 34.3375L37.225 36.4C36.8125 37.0875 36.4 37.9125 36.2625 38.875H33.375V41.625H36.2625C36.4 42.45 36.8125 43.275 37.225 44.1L35.1625 46.1625L37.0875 48.0875L39.15 46.025C39.8375 46.4375 40.6625 46.85 41.625 46.9875V49.875H44.375V46.9875C45.2 46.85 46.025 46.4375 46.85 46.025L48.9125 48.0875L50.8375 46.1625L48.775 44.1C49.1875 43.4125 49.6 42.5875 49.7375 41.625H52.625ZM43 44.375C40.6625 44.375 38.875 42.5875 38.875 40.25C38.875 37.9125 40.6625 36.125 43 36.125C45.3375 36.125 47.125 37.9125 47.125 40.25C47.125 42.5875 45.3375 44.375 43 44.375ZM37.5 23.75H44.65C40.1125 16.7375 30.7625 14.8125 23.75 19.35C19.4875 22.1 16.875 26.9125 16.875 32H14.125C14.125 22.1 22.1 14.125 32 14.125C37.3625 14.125 42.3125 16.4625 45.75 20.5875V15.5H48.5V26.5H37.5V23.75Z" fill="#EBC017"/>
</svg>
