<?xml version="1.0" encoding="UTF-8"?>
<!DOCTYPE svg PUBLIC "-//W3C//DTD SVG 1.1//EN" "http://www.w3.org/Graphics/SVG/1.1/DTD/svg11.dtd">
<!-- Creator: CorelDRAW 2018 (64-Bit Evaluation Version) -->
<svg xmlns="http://www.w3.org/2000/svg" xml:space="preserve" width="1.83364in" height="1.91434in" version="1.1" 
style="shape-rendering:geometricPrecision; text-rendering:geometricPrecision; image-rendering:optimizeQuality; fill-rule:evenodd; clip-rule:evenodd;"
viewBox="0 0 999.41 1527.69"
 xmlns:xlink="http://www.w3.org/1999/xlink">
 <defs>
  <style type="text/css">
   <![CDATA[
    .fil4 {fill:none}
    .fil0 {fill:#210D15}
    .fil2 {fill:#B70569}
    .fil5 {fill:#EEEEF0}
    .fil1 {fill:deeppink}
    .fil6 {fill:#210D15;fill-rule:nonzero}
    .fil3 {fill:#FEFEFE;fill-rule:nonzero}
   ]]>
  </style>
    <clipPath id="id0">
     <path d="M529.62 710.97c31.44,-1.92 28.01,-3.71 48.6,-21.69 13.18,-11.53 24.85,-20.18 38.03,-29.93 46.68,-34.87 45.58,-36.52 10.02,-76.47 -81,-90.89 -189.19,-194.96 -269.65,-284.89l-134.83 -142.38c-36.52,-37.48 -47.37,-12.36 -78.26,14.14 -39.4,33.77 -10.02,53.27 14.69,83.48 107.92,131.39 276.65,333.22 371.25,457.88l0.14 -0.14z"/>
    </clipPath>
    <clipPath id="id1">
     <path d="M232.23 145.17l290.66 308.92c27.46,29.24 83.61,76.89 97.62,105.99 14.83,-8.65 60.96,-53.96 75.79,-69.47 28.83,-30.07 60.55,-44.21 62.2,-88.28l-389.37 -269.79c-43.93,-29.93 -64.25,-66.45 -137.02,12.63l0.14 0z"/>
    </clipPath>
    <clipPath id="id2">
     <path d="M351.95 99.99c6.45,8.51 178.07,129.47 194.82,137.85 27.6,13.87 182.47,41.6 234.23,54.37 22.1,5.49 21.01,1.37 28.15,17.03 -28.97,11.67 -167.64,-37.76 -213.5,-37.89l165.31 114.23c21.28,8.24 59.86,16.61 83.75,14.42 11.67,-22.52 34.46,-146.5 40.78,-184.53 8.92,-53.96 -34.87,-42.43 -159.4,-67l-287.09 -52.45c-36.8,-6.59 -68.1,-22.79 -87.18,3.98l0.14 -0z"/>
    </clipPath>
    <clipPath id="id3">
     <path d="M416.76 71.71l8.37 4.53c6.18,2.47 6.32,2.88 13.18,4.81l408.32 73.59c-5.08,-27.32 -30.21,-85.26 -41.88,-117.94 -17.85,-49.7 -23.34,-37.76 -114.64,-27.87 -49.29,5.36 -98.03,11.67 -148.14,16.48 -26.22,2.47 -50.25,4.81 -76.06,7.55 -37.34,4.12 -42.15,3.71 -48.88,38.72l-0.27 0.14z"/>
    </clipPath>
 </defs>
 <g id="Layer_x0020_1">
  <metadata id="CorelCorpID_0Corel-Layer"/>
  <g id="_975775616032">
   <path class="fil0" d="M46.88 597.56c-14.14,17.03 -17.3,12.49 -35.84,20.87 -1.1,22.24 3.43,26.91 10.85,40.5 -11.95,7.41 -22.79,11.26 -21.83,28.83 1.23,23.2 -2.75,3.57 7.14,15.1l17.16 13.32c-4.53,105.86 14.83,96.52 111.76,96.11 107.5,-0.41 94.32,1.65 141.97,67.14 30.21,41.46 54.92,80.87 80.59,128.92l67.55 140.87c74.28,-27.32 213.49,-64.67 236.29,-179.31 -47.51,-31.71 -116.43,-135.65 -147.18,-191.39 -13.32,42.84 -26.09,80.73 -71.26,99.13 -51.9,21.14 -98.31,-20.32 -114.78,-55.06 -26.91,-56.29 -28.83,-204.02 115.05,-193.04 -22.79,-23.62 -92.95,-120.13 -133.18,-161.87 -121.23,41.33 -110.25,61.51 -139.77,108.6 -6.18,9.89 0.55,2.75 -7.28,8.65l-27.87 -77.98c84.71,-4.94 73.45,-16.61 124.8,-38.58 21.97,-9.34 26.36,-7.83 38.03,-17.99l-65.49 -81c-24.16,-29.66 -43.52,-55.33 -69.06,-82.1 -75.24,76.75 -25.54,90.34 -62.74,107.37 -32.4,-40.78 48.05,-106.82 49.29,-121.37 3.71,-42.84 -47.09,15.65 -68.51,79.08 -23.62,69.47 23.2,102.42 -22.38,147.05 -49.98,48.88 -73.32,32.26 -23.89,84.58 6.86,7.28 5.08,3.3 10.3,13.45l0.28 0.14z"/>
   <path class="fil1" d="M529.62 710.97c31.44,-1.92 28.01,-3.71 48.6,-21.69 13.18,-11.53 24.85,-20.18 38.03,-29.93 46.68,-34.87 45.58,-36.52 10.02,-76.47 -81,-90.89 -189.19,-194.96 -269.65,-284.89l-134.83 -142.38c-36.52,-37.48 -47.37,-12.36 -78.26,14.14 -39.4,33.77 -10.02,53.27 14.69,83.48 107.92,131.39 276.65,333.22 371.25,457.88l0.14 -0.14z"/>
   <path class="fil2" d="M529.62 710.97c31.44,-1.92 28.01,-3.71 48.6,-21.69 13.18,-11.53 24.85,-20.18 38.03,-29.93 46.68,-34.87 45.58,-36.52 10.02,-76.47 -81,-90.89 -189.19,-194.96 -269.65,-284.89l-134.83 -142.38c-36.52,-37.48 -47.37,-12.36 -78.26,14.14 -39.4,33.77 -10.02,53.27 14.69,83.48 107.92,131.39 276.65,333.22 371.25,457.88l0.14 -0.14z"/>
   <g style="clip-path:url(#id0)">
    <g>
     <polygon id="1" class="fil3" points="223.72,150.11 131.18,231.66 122.67,222.05 205.46,148.87 200.1,142.69 209.85,134.18 223.72,149.83 223.58,149.97 "/>
     <path id="_2" class="fil3" d="M191.45 206.26c-10.57,9.47 -17.16,20.32 -19.63,32.68 -2.47,12.08 -0.14,22.1 6.73,29.93 7,7.83 16.61,11.4 28.97,10.44 12.63,-0.96 24.16,-6.18 34.74,-15.51 10.71,-9.34 17.3,-20.18 19.77,-32.54 2.47,-12.08 0.14,-22.1 -6.86,-29.93 -6.86,-7.83 -16.48,-11.26 -28.83,-10.44 -12.63,0.96 -24.16,6.04 -34.87,15.38l0 0zm-8.24 -9.34c13.18,-11.53 27.6,-17.71 43.39,-18.54 16.06,-0.82 28.7,3.98 38.03,14.55 9.34,10.57 12.63,23.75 9.75,39.54 -2.75,15.51 -10.71,29.11 -23.89,40.64 -13.04,11.67 -27.46,17.85 -43.25,18.54 -15.93,0.96 -28.7,-3.98 -38.03,-14.55 -9.34,-10.57 -12.49,-23.75 -9.75,-39.4 2.75,-15.51 10.71,-29.11 23.75,-40.78l0 -0z"/>
     <path id="_3" class="fil3" d="M264.77 288.5c-10.57,9.47 -17.16,20.32 -19.63,32.68 -2.47,12.08 -0.14,22.1 6.73,29.93 7,7.83 16.61,11.4 28.97,10.44 12.63,-0.96 24.16,-6.18 34.74,-15.51 10.71,-9.34 17.3,-20.18 19.77,-32.54 2.47,-12.08 0.14,-22.1 -6.86,-29.93 -6.86,-7.83 -16.48,-11.26 -28.83,-10.44 -12.63,0.96 -24.16,6.04 -34.87,15.38l0 0zm-8.24 -9.34c13.18,-11.53 27.6,-17.71 43.39,-18.54 16.06,-0.82 28.7,3.98 38.03,14.55 9.34,10.57 12.63,23.75 9.75,39.54 -2.75,15.51 -10.71,29.11 -23.89,40.64 -13.04,11.67 -27.46,17.85 -43.25,18.54 -15.93,0.96 -28.7,-3.98 -38.03,-14.55 -9.34,-10.57 -12.49,-23.75 -9.75,-39.4 2.75,-15.51 10.71,-29.11 23.75,-40.78l0 -0z"/>
     <path id="_4" class="fil3" d="M337.95 370.61c-10.57,9.47 -17.16,20.32 -19.63,32.68 -2.47,12.08 -0.14,22.1 6.73,29.93 7,7.83 16.61,11.4 28.97,10.44 12.63,-0.96 24.16,-6.18 34.74,-15.51 10.71,-9.34 17.3,-20.18 19.77,-32.54 2.47,-12.08 0.14,-22.1 -6.86,-29.93 -6.86,-7.83 -16.48,-11.26 -28.83,-10.44 -12.63,0.96 -24.16,6.04 -34.87,15.38l0 0zm-8.24 -9.34c13.18,-11.53 27.6,-17.71 43.39,-18.54 16.06,-0.82 28.7,3.98 38.03,14.55 9.34,10.57 12.63,23.75 9.75,39.54 -2.75,15.51 -10.71,29.11 -23.89,40.64 -13.04,11.67 -27.46,17.85 -43.25,18.54 -15.93,0.96 -28.7,-3.98 -38.03,-14.55 -9.34,-10.57 -12.49,-23.75 -9.75,-39.4 2.75,-15.51 10.71,-29.11 23.75,-40.78l0 -0z"/>
     <polygon id="_5" class="fil3" points="463.16,418.52 370.63,500.21 362.11,490.47 445.04,417.43 439.55,411.25 449.3,402.6 463.16,418.25 463.03,418.39 "/>
     <polygon id="_6" class="fil3" points="482.8,440.63 390.26,522.18 381.75,512.57 464.68,439.39 459.18,433.21 468.93,424.7 482.8,440.35 482.66,440.49 "/>
     <path id="_7" class="fil3" d="M450.53 496.78c-10.57,9.47 -17.16,20.32 -19.63,32.68 -2.47,12.08 -0.14,22.1 6.73,29.93 7,7.83 16.61,11.4 28.97,10.44 12.63,-0.96 24.16,-6.18 34.74,-15.51 10.71,-9.34 17.3,-20.18 19.77,-32.54 2.47,-12.08 0.14,-22.1 -6.86,-29.93 -6.86,-7.83 -16.48,-11.26 -28.83,-10.44 -12.63,0.96 -24.16,6.04 -34.87,15.38l0 0zm-8.24 -9.34c13.18,-11.53 27.6,-17.71 43.39,-18.54 16.06,-0.82 28.7,3.98 38.03,14.55 9.34,10.57 12.63,23.75 9.75,39.54 -2.75,15.51 -10.71,29.11 -23.89,40.64 -13.04,11.67 -27.46,17.85 -43.25,18.54 -15.93,0.96 -28.7,-3.98 -38.03,-14.55 -9.34,-10.57 -12.49,-23.75 -9.75,-39.4 2.75,-15.51 10.71,-29.11 23.75,-40.78l0 -0z"/>
     <path id="_8" class="fil3" d="M523.85 579.02c-10.57,9.47 -17.16,20.32 -19.63,32.68 -2.47,12.08 -0.14,22.1 6.73,29.93 7,7.83 16.61,11.4 28.97,10.44 12.63,-0.96 24.16,-6.18 34.73,-15.51 10.71,-9.34 17.3,-20.18 19.77,-32.54 2.47,-12.08 0.14,-22.1 -6.86,-29.93 -6.86,-7.83 -16.48,-11.26 -28.83,-10.44 -12.63,0.96 -24.16,6.04 -34.87,15.38l0 0zm-8.24 -9.34c13.18,-11.53 27.59,-17.71 43.38,-18.54 16.06,-0.82 28.7,3.98 38.03,14.55 9.34,10.57 12.63,23.75 9.75,39.54 -2.75,15.51 -10.71,29.11 -23.89,40.64 -13.04,11.67 -27.46,17.85 -43.25,18.54 -15.93,0.96 -28.7,-3.98 -38.03,-14.55 -9.34,-10.57 -12.49,-23.75 -9.75,-39.4 2.75,-15.51 10.71,-29.11 23.75,-40.78l0 -0z"/>
     <polygon id="_9" class="fil3" points="648.93,626.94 556.39,708.63 547.88,698.88 630.8,625.7 625.31,619.53 635.06,611.01 648.93,626.67 648.79,626.8 "/>
    </g>
   </g>
   <path class="fil4" d="M529.62 710.97c31.44,-1.92 28.01,-3.71 48.6,-21.69 13.18,-11.53 24.85,-20.18 38.03,-29.93 46.68,-34.87 45.58,-36.52 10.02,-76.47 -81,-90.89 -189.19,-194.96 -269.65,-284.89l-134.83 -142.38c-36.52,-37.48 -47.37,-12.36 -78.26,14.14 -39.4,33.77 -10.02,53.27 14.69,83.48 107.92,131.39 276.65,333.22 371.25,457.88l0.14 -0.14z"/>
   <path class="fil1" d="M232.23 145.17l290.66 308.92c27.46,29.24 83.61,76.89 97.62,105.99 14.83,-8.65 60.96,-53.96 75.79,-69.47 28.83,-30.07 60.55,-44.21 62.2,-88.28l-389.37 -269.79c-43.93,-29.93 -64.25,-66.45 -137.02,12.63l0.14 0z"/>
   <path class="fil2" d="M232.23 145.17l290.66 308.92c27.46,29.24 83.61,76.89 97.62,105.99 14.83,-8.65 60.96,-53.96 75.79,-69.47 28.83,-30.07 60.55,-44.21 62.2,-88.28l-389.37 -269.79c-43.93,-29.93 -64.25,-66.45 -137.02,12.63l0.14 0z"/>
   <g style="clip-path:url(#id1)">
    <g>
     <polygon id="1" class="fil3" points="513.83,235.37 422.11,339.58 411.13,329.97 493.51,236.61 486.5,230.56 496.12,219.58 513.83,235.09 513.69,235.23 "/>
     <path id="_2_1" class="fil3" d="M485.82 302.78c-10.44,12.08 -16.34,25.12 -17.3,39.27 -0.96,13.87 2.88,24.71 11.81,32.4 8.92,7.83 20.04,10.44 33.77,7.69 13.87,-2.88 26.09,-10.3 36.52,-22.24 10.57,-11.95 16.48,-24.99 17.57,-39.13 0.96,-13.87 -2.88,-24.71 -11.81,-32.54 -8.79,-7.83 -20.04,-10.3 -33.64,-7.55 -13.87,2.88 -26.09,10.16 -36.8,22.1l-0.13 0zm-10.57 -9.34c13.04,-14.69 28.28,-23.62 45.86,-26.77 17.71,-3.16 32.54,0.41 44.48,10.85 11.95,10.57 17.44,24.71 16.34,42.7 -0.82,17.71 -7.83,33.91 -20.87,48.6 -12.91,14.83 -28.14,23.75 -45.58,26.91 -17.71,3.3 -32.54,-0.41 -44.48,-10.85 -11.81,-10.44 -17.3,-24.71 -16.34,-42.7 0.82,-17.71 7.83,-34.05 20.73,-48.74l-0.14 0z"/>
     <path id="_3_2" class="fil3" d="M578.9 384.34c-10.44,12.08 -16.34,25.12 -17.3,39.27 -0.96,13.87 2.88,24.71 11.67,32.4 8.92,7.83 20.04,10.3 33.77,7.69 13.87,-2.88 26.09,-10.3 36.52,-22.24 10.57,-11.95 16.48,-24.99 17.57,-39.13 0.96,-13.87 -2.88,-24.71 -11.81,-32.54 -8.79,-7.83 -20.04,-10.3 -33.64,-7.55 -13.87,2.88 -26.09,10.16 -36.8,22.1l0 0zm-10.57 -9.34c13.04,-14.69 28.28,-23.62 45.86,-26.77 17.71,-3.16 32.54,0.41 44.48,10.85 11.95,10.57 17.44,24.71 16.34,42.7 -0.82,17.71 -7.83,33.91 -20.87,48.6 -12.91,14.83 -28.15,23.75 -45.58,26.91 -17.71,3.3 -32.54,-0.41 -44.48,-10.85 -11.81,-10.44 -17.3,-24.71 -16.34,-42.7 0.82,-17.71 7.83,-34.05 20.73,-48.74l-0.14 0z"/>
     <polygon id="_4_3" class="fil3" points="725.26,420.44 633.41,524.52 622.57,514.91 704.8,421.54 697.8,415.5 707.55,404.52 725.26,420.03 725.12,420.31 "/>
    </g>
   </g>
   <path class="fil4" d="M232.23 145.17l290.66 308.92c27.46,29.24 83.61,76.89 97.62,105.99 14.83,-8.65 60.96,-53.96 75.79,-69.47 28.83,-30.07 60.55,-44.21 62.2,-88.28l-389.37 -269.79c-43.93,-29.93 -64.25,-66.45 -137.02,12.63l0.14 0z"/>
   <path class="fil1" d="M351.95 99.99c6.45,8.51 178.07,129.47 194.82,137.85 27.6,13.87 182.47,41.6 234.23,54.37 22.1,5.49 21.01,1.37 28.15,17.03 -28.97,11.67 -167.64,-37.76 -213.5,-37.89l165.31 114.23c21.28,8.24 59.86,16.61 83.75,14.42 11.67,-22.52 34.46,-146.5 40.78,-184.53 8.92,-53.96 -34.87,-42.43 -159.4,-67l-287.09 -52.45c-36.8,-6.59 -68.1,-22.79 -87.18,3.98l0.14 -0z"/>
   <path class="fil2" d="M351.95 99.99c6.45,8.51 178.07,129.47 194.82,137.85 27.6,13.87 182.47,41.6 234.23,54.37 22.1,5.49 21.01,1.37 28.15,17.03 -28.97,11.67 -167.64,-37.76 -213.5,-37.89l165.31 114.23c21.28,8.24 59.86,16.61 83.75,14.42 11.67,-22.52 34.46,-146.5 40.78,-184.53 8.92,-53.96 -34.87,-42.43 -159.4,-67l-287.09 -52.45c-36.8,-6.59 -68.1,-22.79 -87.18,3.98l0.14 -0z"/>
   <g style="clip-path:url(#id2)">
    <g>
     <path id="1" class="fil3" d="M491.31 160.4c-2.88,13.32 -1.65,25.54 3.43,36.52 5.08,10.71 12.49,17.16 22.24,19.22 9.89,2.2 19.36,-0.69 28.42,-8.37 9.2,-7.96 15.24,-18.54 17.99,-31.85 2.88,-13.32 1.78,-25.54 -3.3,-36.52 -5.08,-10.71 -12.49,-17.16 -22.38,-19.36 -9.89,-2.06 -19.22,0.69 -28.28,8.37 -9.2,7.96 -15.24,18.54 -18.12,31.85l0 0.14zm-11.81 -2.47c3.57,-16.48 11.26,-29.38 23.07,-38.99 11.81,-9.75 24.44,-13.32 37.62,-10.44 13.32,2.88 23.34,11.26 30.07,24.99 6.73,13.59 8.37,28.56 4.67,45.03 -3.43,16.48 -11.12,29.52 -22.79,39.13 -11.81,9.75 -24.44,13.32 -37.62,10.44 -13.18,-2.88 -23.2,-11.26 -30.07,-24.99 -6.73,-13.59 -8.37,-28.56 -4.94,-45.03l0 -0.14z"/>
     <polygon id="_2_5" class="fil3" points="615.43,126.36 590.44,242.37 578.22,239.76 600.6,135.83 592.91,134.18 595.52,121.96 615.29,126.22 615.15,126.36 "/>
     <path id="_3_6" class="fil3" d="M622.57 188.41c-2.88,13.32 -1.65,25.54 3.43,36.52 5.08,10.71 12.49,17.16 22.24,19.22 9.89,2.2 19.36,-0.69 28.42,-8.37 9.2,-7.96 15.24,-18.54 17.99,-31.85 2.88,-13.32 1.78,-25.54 -3.3,-36.52 -5.08,-10.71 -12.49,-17.16 -22.38,-19.36 -9.89,-2.06 -19.22,0.69 -28.28,8.37 -9.2,7.96 -15.24,18.54 -18.12,31.85l0 0.14zm-11.81 -2.47c3.57,-16.48 11.26,-29.38 23.07,-38.99 11.81,-9.75 24.44,-13.32 37.62,-10.44 13.32,2.88 23.34,11.26 30.07,24.99 6.73,13.59 8.37,28.56 4.67,45.03 -3.43,16.48 -11.12,29.52 -22.79,39.13 -11.81,9.75 -24.44,13.32 -37.62,10.44 -13.18,-2.88 -23.2,-11.26 -30.07,-24.99 -6.73,-13.59 -8.37,-28.56 -4.94,-45.03l0 -0.14z"/>
     <path id="_4_7" class="fil3" d="M726.09 210.52c-2.88,13.32 -1.65,25.54 3.43,36.52 5.08,10.71 12.49,17.16 22.24,19.22 9.89,2.2 19.36,-0.69 28.42,-8.37 9.2,-7.96 15.24,-18.54 17.99,-31.85 2.88,-13.32 1.78,-25.54 -3.3,-36.52 -5.08,-10.71 -12.49,-17.16 -22.38,-19.36 -9.89,-2.06 -19.22,0.69 -28.28,8.37 -9.2,7.96 -15.24,18.54 -18.12,31.85l0 0.14zm-11.81 -2.47c3.57,-16.48 11.26,-29.38 23.07,-38.99 11.81,-9.75 24.44,-13.32 37.62,-10.44 13.32,2.88 23.34,11.26 30.07,24.99 6.73,13.59 8.37,28.56 4.67,45.03 -3.43,16.48 -11.12,29.52 -22.79,39.13 -11.81,9.75 -24.44,13.32 -37.62,10.44 -13.18,-2.88 -23.2,-11.26 -30.07,-24.99 -6.73,-13.59 -8.37,-28.56 -4.94,-45.03l0 -0.14z"/>
     <polygon id="_5_8" class="fil3" points="850.2,176.61 825.21,292.62 813,289.88 835.51,185.94 827.69,184.3 830.29,172.08 850.07,176.33 850.07,176.47 "/>
     <polygon id="_6_9" class="fil3" points="877.94,182.51 852.95,298.53 840.87,295.92 863.25,191.85 855.42,190.2 858.03,177.98 877.8,182.24 877.8,182.51 "/>
    </g>
   </g>
   <path class="fil4" d="M351.95 99.99c6.45,8.51 178.07,129.47 194.82,137.85 27.6,13.87 182.47,41.6 234.23,54.37 22.1,5.49 21.01,1.37 28.15,17.03 -28.97,11.67 -167.64,-37.76 -213.5,-37.89l165.31 114.23c21.28,8.24 59.86,16.61 83.75,14.42 11.67,-22.52 34.46,-146.5 40.78,-184.53 8.92,-53.96 -34.87,-42.43 -159.4,-67l-287.09 -52.45c-36.8,-6.59 -68.1,-22.79 -87.18,3.98l0.14 -0z"/>
   <path class="fil1" d="M416.76 71.71l8.37 4.53c6.18,2.47 6.32,2.88 13.18,4.81l408.32 73.59c-5.08,-27.32 -30.21,-85.26 -41.88,-117.94 -17.85,-49.7 -23.34,-37.76 -114.64,-27.87 -49.29,5.36 -98.03,11.67 -148.14,16.48 -26.22,2.47 -50.25,4.81 -76.06,7.55 -37.34,4.12 -42.15,3.71 -48.88,38.72l-0.27 0.14z"/>
   <path class="fil2" d="M416.76 71.71l8.37 4.53c6.18,2.47 6.32,2.88 13.18,4.81l408.32 73.59c-5.08,-27.32 -30.21,-85.26 -41.88,-117.94 -17.85,-49.7 -23.34,-37.76 -114.64,-27.87 -49.29,5.36 -98.03,11.67 -148.14,16.48 -26.22,2.47 -50.25,4.81 -76.06,7.55 -37.34,4.12 -42.15,3.71 -48.88,38.72l-0.27 0.14z"/>
   <g style="clip-path:url(#id3)">
    <g>
     <path id="1" class="fil3" d="M468.52 45.76c-1.78,12.08 0,22.93 5.22,32.4 5.08,9.34 12.22,14.55 21.01,15.93 8.92,1.23 17.3,-1.78 24.85,-9.2 7.69,-7.69 12.49,-17.44 14.14,-29.52 1.78,-12.08 0.14,-22.93 -5.08,-32.4 -5.08,-9.34 -12.22,-14.69 -21.14,-15.93 -8.92,-1.23 -17.16,1.78 -24.71,9.2 -7.69,7.69 -12.49,17.44 -14.28,29.52zm-10.71 -1.51c2.2,-14.83 8.37,-27.05 18.26,-36.25 10.02,-9.47 21.01,-13.32 33.09,-11.53 12.08,1.78 21.56,8.65 28.28,20.59 6.86,11.81 9.2,25.12 6.86,39.95 -2.2,14.97 -8.24,27.05 -18.12,36.25 -10.02,9.47 -21.01,13.32 -33.09,11.53 -11.95,-1.78 -21.42,-8.65 -28.28,-20.59 -6.86,-11.67 -9.2,-25.12 -7,-39.95z"/>
     <polygon id="_2_11" class="fil3" points="577.26,7.73 561.88,112.9 550.89,111.25 564.63,17.07 557.62,16.11 559.27,4.99 577.12,7.59 577.12,7.73 "/>
     <polygon id="_3_12" class="fil3" points="602.38,11.44 587,116.47 576.02,114.96 589.75,20.64 582.75,19.68 584.4,8.56 602.24,11.16 602.24,11.3 "/>
     <path id="_4_13" class="fil3" d="M612.54 66.36c-1.78,12.08 0,22.93 5.22,32.4 5.08,9.34 12.22,14.55 21.01,15.93 8.92,1.23 17.3,-1.78 24.85,-9.2 7.69,-7.69 12.49,-17.44 14.14,-29.52 1.78,-12.08 0.14,-22.93 -5.08,-32.4 -5.08,-9.34 -12.22,-14.69 -21.14,-15.93 -8.92,-1.23 -17.16,1.78 -24.71,9.2 -7.69,7.69 -12.49,17.44 -14.28,29.52zm-10.71 -1.51c2.2,-14.83 8.37,-27.05 18.26,-36.25 10.02,-9.47 21.01,-13.32 33.09,-11.53 12.08,1.78 21.56,8.65 28.28,20.59 6.86,11.81 9.2,25.12 6.86,39.95 -2.2,14.97 -8.24,27.05 -18.12,36.25 -10.02,9.47 -21.01,13.32 -33.09,11.53 -11.95,-1.78 -21.42,-8.65 -28.28,-20.59 -6.86,-11.67 -9.2,-25.12 -7,-39.95z"/>
     <polygon id="_5_14" class="fil3" points="721.28,28.33 705.9,133.5 694.92,131.99 708.65,37.66 701.65,36.7 703.3,25.58 721.14,28.19 721.14,28.33 "/>
     <path id="_6_15" class="fil3" d="M731.3 83.38c-1.78,12.08 0,22.93 5.22,32.4 5.08,9.34 12.22,14.55 21.01,15.93 8.92,1.23 17.3,-1.78 24.85,-9.2 7.69,-7.69 12.49,-17.44 14.14,-29.52 1.78,-12.08 0.14,-22.93 -5.08,-32.4 -5.08,-9.34 -12.22,-14.69 -21.14,-15.93 -8.92,-1.23 -17.16,1.78 -24.71,9.2 -7.69,7.69 -12.49,17.44 -14.28,29.52zm-10.71 -1.51c2.2,-14.83 8.37,-27.05 18.26,-36.25 10.02,-9.47 21.01,-13.32 33.09,-11.53 12.08,1.78 21.56,8.65 28.28,20.59 6.86,11.81 9.2,25.12 6.86,39.95 -2.2,14.97 -8.24,27.05 -18.12,36.25 -10.02,9.47 -21.01,13.32 -33.09,11.53 -11.95,-1.78 -21.42,-8.65 -28.28,-20.59 -6.86,-11.67 -9.2,-25.12 -7,-39.95z"/>
     <polygon id="_7_16" class="fil3" points="840.18,45.35 824.8,150.52 813.68,149.01 827.55,54.69 820.55,53.73 822.19,42.6 840.04,45.21 840.04,45.35 "/>
    </g>
   </g>
   <path class="fil4" d="M416.76 71.71l8.37 4.53c6.18,2.47 6.32,2.88 13.18,4.81l408.32 73.59c-5.08,-27.32 -30.21,-85.26 -41.88,-117.94 -17.85,-49.7 -23.34,-37.76 -114.64,-27.87 -49.29,5.36 -98.03,11.67 -148.14,16.48 -26.22,2.47 -50.25,4.81 -76.06,7.55 -37.34,4.12 -42.15,3.71 -48.88,38.72l-0.27 0.14z"/>
   <path class="fil0" d="M468.24 675.27c21.42,157.2 -113.13,146.77 -109.84,35.29 0.69,-24.16 5.22,-22.93 -3.71,-36.93 -42.43,104.9 -7.28,191.8 63.98,189.61 55.06,-1.78 90.2,-73.59 75.24,-137.43 -5.36,-22.79 -8.79,-31.58 -22.38,-47.23 -0.69,-0.82 -2.2,-2.33 -3.3,-3.43l0 0.14z"/>
   <path class="fil0" d="M409.07 647.26c-60.69,28.28 -26.36,146.77 15.38,126.45 45.86,-22.38 30.48,-147.73 -15.38,-126.45z"/>
   <path class="fil5" d="M30.54 552.11c29.24,3.98 41.19,-20.73 50.52,-45.72 -23.34,9.34 -9.61,7.14 -29.66,23.07 -13.59,10.71 -14.69,3.02 -20.87,22.65z"/>
   <path class="fil5" d="M21.62 621.17c8.92,11.53 -13.73,-0.55 11.95,16.61 7.96,5.36 14,6.18 23.75,9.61 -6.86,-22.79 -6.04,-24.44 -35.7,-26.22z"/>
   <path class="fil5" d="M16.54 673.62c7.69,6.18 -20.59,15.38 15.93,5.08 17.03,-4.81 3.02,-0.55 8.37,-11.95l-24.3 7 0 -0.14z"/>
   <polygon class="fil3" points="330.26,94.78 254.06,181.14 245,173.17 313.24,95.74 307.47,90.66 315.57,81.6 330.26,94.5 330.12,94.64 "/>
   <path id="_1_17" class="fil3" d="M306.92 150.66c-8.65,10.02 -13.45,20.87 -14.42,32.54 -0.82,11.53 2.47,20.46 9.75,26.91 7.41,6.45 16.61,8.65 28.01,6.32 11.53,-2.33 21.69,-8.51 30.34,-18.54 8.79,-9.89 13.59,-20.73 14.55,-32.4 0.82,-11.53 -2.47,-20.46 -9.75,-26.91 -7.28,-6.45 -16.61,-8.51 -28.01,-6.32 -11.53,2.33 -21.69,8.51 -30.48,18.4zm-8.79 -7.69c10.85,-12.22 23.48,-19.63 38.03,-22.24 14.69,-2.61 27.05,0.27 36.8,9.06 9.89,8.79 14.42,20.59 13.59,35.42 -0.69,14.69 -6.45,28.15 -17.3,40.37 -10.71,12.22 -23.34,19.77 -37.89,22.24 -14.69,2.75 -27.05,-0.27 -36.93,-9.06 -9.89,-8.65 -14.42,-20.46 -13.59,-35.42 0.69,-14.69 6.45,-28.28 17.3,-40.5l0 0.14z"/>
   <path id="_2_18" class="fil3" d="M384.22 218.34c-8.65,10.02 -13.45,20.87 -14.42,32.54 -0.82,11.53 2.47,20.46 9.75,26.91 7.41,6.45 16.61,8.65 28.01,6.32 11.53,-2.33 21.69,-8.51 30.34,-18.54 8.79,-9.89 13.59,-20.73 14.55,-32.4 0.82,-11.53 -2.47,-20.46 -9.75,-26.91 -7.28,-6.45 -16.61,-8.51 -28.01,-6.32 -11.53,2.33 -21.69,8.51 -30.48,18.4zm-8.79 -7.69c10.85,-12.22 23.48,-19.63 38.03,-22.24 14.69,-2.61 27.05,0.27 36.8,9.06 9.89,8.79 14.42,20.59 13.59,35.42 -0.69,14.69 -6.45,28.15 -17.3,40.37 -10.71,12.22 -23.34,19.77 -37.89,22.24 -14.69,2.75 -27.05,-0.27 -36.93,-9.06 -9.89,-8.65 -14.42,-20.46 -13.59,-35.42 0.69,-14.69 6.45,-28.28 17.3,-40.5l0 0.14z"/>
   <path class="fil6" d="M484.84 1166.79c4.11,-1.2 3.8,1.72 -0.42,14.43 11.54,-3.33 23.78,-7.1 36.72,-11.52 0.88,-11.05 -1.2,-18.98 -6.12,-23.36 -4.52,-4.03 -11.31,-4.32 -22.23,0.21 -10.79,4.48 -18.12,8.82 -24.16,14.43 -6.05,5.61 -11.41,12.72 -17.3,22.34 -8.7,14.21 -4.47,19.98 2.46,23.76 8.11,4.42 18.85,6.42 15.62,16.01 -1.97,5.82 -4.19,9.57 -10.09,10.19 -7.31,0.77 -4.19,-6.79 -0.42,-15.89 -11.61,1.26 -22.05,2.05 -31.34,2.49 -5.98,9.61 -10.08,18.14 -8.23,24.27 1.92,6.38 11.41,10.74 32.5,9.12 26.2,-2.01 42.65,-8.24 52.05,-15.43 9.59,-7.33 11.59,-15.55 12.38,-24.57 1.38,-15.66 -12.5,-18.58 -24.48,-21.34 -10.46,-2.41 -19.48,-4.71 -15.83,-13.73 3.27,-8.06 5.31,-10.35 8.9,-11.4zm97.88 -66.67c3.31,6.4 6.61,12.83 9.92,19.24 3.3,6.4 6.61,12.82 9.88,19.24 -8.69,5.54 -17.62,10.82 -26.63,15.89 -2.08,-6.96 -4.15,-13.89 -6.23,-20.83 -2.08,-6.94 -4.15,-13.89 -6.23,-20.83 -9.78,5.63 -19.45,11.22 -29.02,16.08 0.32,17.85 0.61,35.65 0.91,53.5 0.3,17.83 0.6,35.65 0.91,53.5 18.99,-6.1 38.16,-13.68 57.29,-22.24 -1.97,-6.59 -3.96,-13.17 -5.91,-19.76 -1.95,-6.58 -3.9,-13.22 -5.87,-19.78 10.2,-5.49 20.29,-11.26 30.07,-17.41 3.17,6.07 6.3,12.17 9.43,18.27 3.13,6.1 6.26,12.17 9.39,18.24 17.23,-11.17 33.24,-23.13 48.26,-35.25 -11.61,-13.15 -23.25,-26.27 -34.86,-39.44 -11.58,-13.14 -23.21,-26.3 -34.82,-39.44 -8.47,7.19 -17.37,14.19 -26.52,21.01zm73.02 -40.72c6.51,-9.31 12.24,-18.5 16.95,-27.62 -6.75,-3.14 -13.51,-6.28 -20.29,-9.42 -3.55,8.19 -7.93,16.45 -13.61,24.34 -5.93,8.24 -13.08,16.06 -20.65,23.94 12.7,12.24 25.45,24.41 38.16,36.65 12.68,12.21 25.43,24.46 38.13,36.67 13.01,-12.85 25.22,-25.18 35.73,-37.91 9.84,-11.92 18.08,-24.15 26.48,-35.37 -6.75,-3.14 -13.54,-6.28 -20.29,-9.42 -7.77,11.08 -16.14,22.62 -25.18,34.65 -6.61,-4.35 -13.19,-8.7 -19.8,-13.05 5.87,-7.89 11.33,-15.61 16.5,-23.18 -6.51,-3.28 -12.98,-6.61 -19.45,-9.91 -4.54,7.03 -9.43,14.19 -14.74,21.43 -5.98,-3.93 -11.92,-7.89 -17.94,-11.8z"/>
   <path class="fil6" d="M392.65 1333.05c-4.06,-0.18 -5.79,-1.38 -4.9,-5.7 0.9,-4.35 4.48,-11.92 11.22,-25.05 6.59,-12.82 10.69,-20.46 13.96,-24.86 3.31,-4.44 5.69,-5.66 8.8,-5.64 5.64,0.03 4.16,6.12 0.42,14.67 8.43,-0.06 17.23,-0.11 26.61,-0.81 3.11,-9.93 3.08,-17.96 0.16,-23.46 -2.94,-5.54 -8.33,-8.95 -17.6,-8.89 -11.33,0.08 -19.31,3.51 -27.4,11.08 -7.98,7.47 -16.24,19.13 -26.92,36.33 -11.02,17.75 -17.54,29.61 -17.23,37.57 0.32,8.03 8.04,12.26 25.76,13.3 14.21,0.83 26.11,-2.64 35.09,-8.64 8.98,-6 14.75,-14.65 17.86,-24.58 -10.64,0.53 -20.76,0.53 -30.45,0.48 -3.85,8.84 -8.01,14.52 -15.39,14.2zm62.33 -25.64c9.59,4.18 19.77,8.59 31.09,11.78 11.88,3.35 24.76,5.67 38.25,7.83 -0.05,-6.17 -0.05,-12.34 -0.1,-18.52 -16.07,-2.36 -31.03,-5.33 -44.89,-8.87 15.17,-8.11 30.14,-16.81 44.79,-25.61 0,-6.17 0,-12.37 0,-18.55 -10.54,7.32 -21.3,14.83 -32.46,21.8 -11.02,6.89 -22.5,12.99 -33.83,19.13 -0.89,3.68 -1.9,7.35 -2.84,11zm121.61 -81.62c-3.16,17.82 -6.84,35.69 -12.17,53.22 -5.47,18.02 -12.7,36.02 -20.39,53.78 11.33,-2.8 22.66,-6.42 34.09,-10.13 6.06,-18.01 11.66,-35.93 15.33,-54.26 3.55,-17.76 5.48,-35.46 6.85,-53.05 -7.9,3.73 -15.81,7.1 -23.71,10.44zm119.35 -18.38c-13.28,2.69 -26.23,5.33 -39.2,7.38 -12.74,2.01 -25.45,3.45 -37.94,4.41 2.53,5.53 5.06,11.05 7.59,16.55 16.81,-2.3 33.72,-5.47 50.69,-9.2 -11.01,13.63 -23.24,26.99 -36.52,40.12 2.53,5.53 5.06,11.05 7.59,16.55 10.96,-11.14 21.49,-21.97 30.72,-33.53 8.9,-11.14 16.7,-22.61 24.13,-33.69 -2.32,-2.86 -4.74,-5.7 -7.06,-8.59zm80.35 -60.15c-18.55,-12.4 -31.57,-19.16 -42.52,-20.06 -10.8,-0.89 -19.62,4.29 -31.35,15.88 -7.56,7.46 -15.91,14.56 -24.4,21.94 11.17,12.2 22.28,24.42 33.41,36.64 11.11,12.21 22.29,24.41 33.4,36.61 12.44,-9.06 24.98,-17.58 36.31,-26.91 17.51,-14.42 24.7,-25.21 23.03,-34.96 -1.65,-9.61 -12.43,-18.83 -30.98,-31.23 1.05,0.67 2.05,1.37 3.11,2.08zm-24.08 18.04c13.54,10.63 19.95,16.75 20.97,21.83 1.03,5.1 -3.27,9.26 -11.33,16.1 -8.17,-7.35 -16.38,-14.71 -24.55,-22.05 -8.21,-7.36 -16.39,-14.73 -24.55,-22.11 6.27,-5.95 10.05,-9.09 15.6,-8.16 5.68,0.95 13.17,5.92 26.66,16.61 -0.89,-0.76 -1.84,-1.49 -2.79,-2.22zm15.6 -63.32c4.95,-6.45 9.64,-12.85 14.12,-19.19 -7.32,-3.4 -14.65,-6.79 -21.97,-10.19 -7.59,11.78 -16.18,23.74 -25.77,35.97 15.91,10.04 31.83,20.06 47.74,30.08 15.91,10.02 31.88,20.06 47.84,30.05 14.91,-15.21 29.3,-29.77 43.1,-43.74 -7.32,-3.4 -14.7,-6.79 -22.02,-10.19 -6.48,7.01 -13.12,14.14 -19.92,21.41 -7.53,-4.07 -15.02,-8.16 -22.6,-12.23 4.37,-4.99 8.69,-9.9 12.86,-14.76 -7.17,-3.45 -14.28,-6.9 -21.45,-10.38 -3.69,4.71 -7.59,9.45 -11.54,14.25 -6.74,-3.7 -13.59,-7.38 -20.39,-11.08z"/>
   <path class="fil6" d="M469.53 1482.37c1.24,-8.84 2.4,-17.66 3.67,-26.46 1.27,-8.85 2.48,-17.65 3.72,-26.5 9.54,-0.89 19.3,-2 29.28,-3.58 0.76,-8.52 1.51,-16.94 2.21,-25.46 -9.55,1.68 -18.82,2.72 -27.93,3.65 1.24,-8.81 2.48,-17.72 3.67,-26.57 12.19,-1.4 24.75,-3.33 37.7,-5.91 0.49,-8.49 1.08,-17.01 1.62,-25.49 -23.24,4.51 -45.3,7.16 -66.44,9.74 -4.26,21.3 -8.6,42.57 -12.89,63.8 -4.28,21.22 -8.57,42.5 -12.89,63.73 12.35,0.11 25.13,-0.21 38.29,-0.97zm122.47 -73c9.33,2.79 12.74,10.85 14.51,19.51 1.79,8.77 1.83,18.22 4.69,23.74 16.5,-6.09 33.22,-12.57 50.05,-19.51 -4.75,-5.44 -6.53,-16.87 -10.41,-26.96 -3.88,-10.1 -9.98,-19.01 -22.81,-20.09 11.97,-9.85 14.04,-21.77 11.11,-35.8 -2.68,-12.85 -8.75,-20.48 -19.63,-22.98 -10.53,-2.43 -25.75,0.26 -47.51,6.77 -12,3.59 -23.89,6.8 -35.59,9.31 -0.7,21.73 -1.48,43.47 -2.21,65.23 -0.73,21.73 -1.46,43.5 -2.16,65.23 15.21,-3.15 30.63,-7.02 46.43,-10.96 -0.38,-8.13 -0.81,-16.19 -1.19,-24.31 -0.38,-8.06 -0.86,-16.15 -1.24,-24.24 5.28,-1.65 10.62,-3.26 15.96,-4.94zm-18.82 -52.09c18.82,-5.73 23.3,-1.57 24.81,12.6 1.51,14.15 -2.43,19.01 -22.92,25.31 -0.27,-6.34 -0.6,-12.67 -0.92,-18.94 -0.32,-6.3 -0.65,-12.64 -0.97,-18.98zm75.88 -52.42c5.23,19.87 10.41,39.78 15.64,59.61 5.23,19.87 10.41,39.74 15.58,59.65 16.99,-8.09 33.71,-17.44 50.37,-26.96 -7.23,-18.58 -14.51,-37.17 -21.79,-55.71 -7.28,-18.55 -14.51,-37.16 -21.79,-55.75 -12.57,6.91 -25.29,13.18 -38.02,19.16zm157.2 14.46c-6.75,5.4 -11.34,7.47 -16.23,4.83 -4.87,-2.62 -10.17,-10.01 -18.5,-23.31 -8.17,-13.05 -12.53,-21.19 -13.48,-27.1 -0.94,-5.87 1.63,-9.58 7.39,-13.78 9.99,-7.29 16.23,-3.29 22.27,4.62 13,-10.96 25.61,-21.77 37.91,-32.62 -7.87,-7.63 -17.5,-11.1 -29.12,-9.99 -11.52,1.1 -25.08,7.1 -41.79,18.94 -22.55,15.98 -34.44,27.98 -38.34,41.64 -3.97,13.87 -0.05,29.07 9.06,49.48 9.43,21.12 17.83,33.71 31.76,35.34 14.21,1.66 34.48,-7.6 64.12,-32.29 21.38,-17.81 32.55,-34.38 36.67,-47.55 3.96,-12.65 1.08,-22.73 -6.8,-30.36 -13.21,12.28 -26.75,24.7 -40.77,37.2 6.26,8.09 7.59,15.57 -4.15,24.95zm26.69 -141.17c8.9,14.61 17.7,29.9 25.67,46.11 8.16,16.62 15.32,34.34 22.44,52.74 11.49,-13.1 22.65,-25.92 33.54,-38.42 -2.97,-4.4 -5.99,-8.77 -8.95,-13.17 7.93,-9.13 14.99,-18.44 21.95,-27.61 5.28,1.25 10.62,2.47 16.02,3.58 8.52,-11.71 16.88,-23.02 24.97,-33.94 -18.93,-1.29 -37.62,-2.75 -56.08,-5.19 -18.37,-2.43 -36.62,-5.77 -54.9,-9.52 -7.76,8.41 -16.02,16.79 -24.64,25.42zm39.26 4.44c6.04,1.97 12.13,3.8 18.17,5.62 5.98,1.8 12.08,3.51 18.17,5.08 -4.48,5.69 -9.06,11.42 -13.91,17.15 -3.61,-4.76 -7.24,-9.49 -11.06,-14.14 -3.78,-4.62 -7.6,-9.2 -11.38,-13.71z"/>
   <path class="fil2" d="M314.82 1425.95c0.86,0.64 0.42,-0.05 1.15,1.15 0.62,1.03 0.43,0.97 0.76,2.24l5.93 -0.35c0.55,-0.26 -0.4,0.04 1.28,-0.5 0.19,-0.06 1.07,-0.3 1.25,-0.34 1.51,-0.34 2.13,-0.41 3.75,-0.52 -0.42,-0.88 6.69,-0 7.84,0.03 2.43,-1.29 -0.31,-1.29 2.93,-1.78 6.34,-0.97 4.32,2.45 6.95,3.77 1.92,0.97 4.18,0.17 6.03,0.97 3.74,1.62 0.72,6.82 -0.05,10.22l-1.72 3.85c4.3,0.26 10.66,0.01 14.16,-0.54l16.02 -0.54 11.55 -0.35 24.81 -0.66c-1.08,1.29 -0.64,1 -3.49,1.77 -1.37,0.37 -2.71,0.99 -3.85,1.38 -2.59,0.89 -4.84,1.5 -7.42,2.54 -8.09,3.25 -41.61,13.38 -45.35,15.63 -0.64,3.42 0.73,4.22 0.12,7.03 -0.53,2.45 -10.7,10.43 -5.48,18.84 3.27,5.26 0.12,17.75 3.7,22.85l1.39 2.42 12.54 -1.43 -11.31 4.48c-0.94,7.88 -2.87,3.29 1.41,9.06 4.93,1.16 2.36,0.17 5.77,-1.28 3.43,-0.65 6.42,3.89 16.78,-5.79 2.31,-2.16 4.02,-4.07 6.21,-5.99 4.74,-4.17 2.02,-3.42 3.97,-8.88 2.2,-1.93 4.61,-1.09 5.64,-4.1 0.64,-1.88 0.92,-7.6 1.01,-9.61 4.11,-1.8 11.71,-7.76 14.31,-10.91 2.44,-2.95 0.14,-3.07 -0.23,-5.87 -0.26,-1.96 0.14,-4.6 -0.14,-7.08 -4.3,-0.93 -12.86,1.26 -17.86,0.74l16.73 -5.77c0.38,-10.38 -0.47,-5.46 4.33,-10.41 1.66,-1.71 1.84,-1.95 3.35,-3.96 2.13,-2.84 5.08,-5.02 8.62,-5.82l3.15 -2.54c1.15,-0.93 0.04,-0.2 1.36,-1.01 0.36,-2.9 6.05,-10.07 7.53,-13.85l-63.73 1.61c5.08,-2.81 43.2,-9.73 49.41,-13.04 -0.49,-2.86 -5.05,-3.98 -5.34,-8.74 -1.6,-0.92 -3.03,-5.04 -3.71,-7.48 -1.33,-4.76 1.06,-5.2 -1.8,-9.2 -4.68,-0.04 -75.1,14.04 -88.55,14.62 3.07,-2.06 53.4,-18.52 62,-21.73 2.01,-0.75 18.34,-6.37 20.19,-7.78l-1.87 -5.65c-3.3,-0.32 -6.07,-0.19 -9.42,-0.76 -5.35,-0.91 -3.73,-0.16 -6.95,-3.3 -9.39,-2.82 -7.93,2.84 -8.16,5.25 -2.28,-0.8 -3.23,-1.06 -5.6,-1.81 -2.84,-0.9 -0.82,-1.78 -2.14,-4.14 -3.92,-0.5 -3.39,0.26 -6.68,-1.49 -2.09,-1.11 -3.99,-0.3 -6.64,0.18 -4.04,0.75 -10,2.22 -13.95,2.32l19.74 -8.16 -0.21 -4.88c-3.86,0.07 -6.86,0.96 -10.52,0.62 -13.2,-1.22 -10.32,1.48 -15.46,2.06 -6,0.66 -5.98,-1.98 -9.54,2.25 -3.02,3.59 -2.31,2.45 -3.65,3.02 -3.78,1.62 -2.68,3.69 -4.79,7.72 -2.18,4.19 -4.07,2.22 -6.94,5.67 -0.89,1.07 -1.79,2.62 -2.83,3.35 -1.88,1.32 -2.84,0.36 -3.94,2.49 -0.01,0.01 -2.9,10.29 -2.97,10.7l16.48 -2.8 -17.08 6.5c-0.43,2.28 -0.6,4.78 -1.12,6.98 -1.42,6.02 -6.22,3.05 1.55,13.56 2.33,3.15 1.45,8.1 3.65,9.1 2.05,0.94 18.51,-2.61 22.53,-2.64l-17.98 4.99c1.1,1.42 0.45,0.33 0.63,1.48z"/>
   <path class="fil6" d="M287.8 1342.47c7.48,0.88 8.36,7.18 -0.9,21.08 -17.88,26.83 -35.78,53.67 -53.64,80.47 -8.34,12.5 -16.05,26.66 -18.6,38.79 -2.59,12.29 0.03,22.68 11.99,27.4 3.03,1.19 6.05,2.37 9.07,3.56 3.02,1.19 6.05,2.39 9.09,3.56 8.27,-13.95 16.56,-27.95 24.85,-41.94 -2.45,-0.77 -4.91,-1.58 -7.36,-2.39 -6.45,-2.13 -6.08,-12.68 1.8,-25.38 16.88,-27.19 33.77,-54.35 50.64,-81.53 11.02,-17.77 12.89,-28.72 10.55,-34.89 9.45,-5.14 20.39,-14.95 31.61,-33.02 16.86,-27.14 33.74,-54.32 50.61,-81.5 7.91,-12.74 17.96,-22.44 23.6,-23.47 2.17,-0.4 4.31,-0.77 6.48,-1.17 8.29,-13.99 16.58,-27.99 24.88,-41.98 -2.57,0.66 -5.13,1.38 -7.7,2.06 -2.55,0.67 -5.1,1.37 -7.68,2.06 -10.12,2.72 -21.28,12.04 -32.05,23.54 -10.73,11.45 -21.17,25.3 -29.49,37.79 -17.88,26.84 -35.77,53.69 -53.64,80.5 -9.22,13.84 -17.68,19.28 -25.06,18.81 -6.36,9.22 -12.69,18.47 -19.05,27.65z"/>
   <path class="fil6" d="M875.2 1052.54c-6.05,4.8 -4.41,9.88 8.77,14.87 25.43,9.63 50.87,19.27 76.28,28.88 11.85,4.49 23.8,10.53 30.58,17.95 6.87,7.52 8.58,16.55 0.17,26.63 -2.13,2.55 -4.26,5.09 -6.38,7.63 -2.13,2.55 -4.25,5.09 -6.4,7.64 -12.34,-5.59 -24.73,-11.18 -37.11,-16.78 1.8,-1.92 3.59,-3.88 5.37,-5.83 4.69,-5.13 0.38,-12.62 -11.16,-17.5 -24.71,-10.45 -49.42,-20.87 -74.12,-31.33 -16.14,-6.84 -21.89,-13.78 -22.24,-19.58 -10.01,1.5 -23.06,0.42 -39.48,-6.52 -24.68,-10.43 -49.38,-20.87 -74.08,-31.32 -11.58,-4.9 -23.83,-6.39 -29.03,-4.01 -2,0.91 -3.97,1.83 -5.97,2.74 -12.38,-5.6 -24.76,-11.19 -37.15,-16.79 2.45,-0.95 4.89,-1.84 7.35,-2.77 2.43,-0.92 4.87,-1.84 7.33,-2.76 9.66,-3.63 22.72,-3.03 36.26,-0.63 13.5,2.39 27.65,6.7 39.49,11.18 25.44,9.64 50.88,19.28 76.29,28.91 13.11,4.97 22.39,4.25 28.5,-0.2 8.92,3.19 17.83,6.42 26.73,9.59z"/>
  </g>
 </g>
</svg>
