<svg id="Layer_1" data-name="Layer 1" xmlns="http://www.w3.org/2000/svg" viewBox="0 0 405 405"><defs><style>.cls-1{fill:none;stroke:#fff;stroke-miterlimit:10;stroke-width:5px;}.cls-2{fill:#fff;}</style></defs><title>slack_white_trim</title><g id="Dark_Blue" data-name="Dark Blue"><path class="cls-1" d="M351.65,401.28H53.35A49.72,49.72,0,0,1,3.63,351.59V53.41A49.72,49.72,0,0,1,53.35,3.72h298.3a49.72,49.72,0,0,1,49.72,49.69V351.59A49.72,49.72,0,0,1,351.65,401.28Z"/></g><g id="surface1"><path class="cls-2" d="M218.1,80.8A18.38,18.38,0,0,0,210,82a20.12,20.12,0,0,0-12.6,25.5l8.4,24.9-48,16.2-7.8-24A20.12,20.12,0,0,0,124.5,112c-10.5,3.6-16.5,15-12.9,25.5l7.8,23.7-24.9,8.4a20.45,20.45,0,0,0-12.6,25.8A20.12,20.12,0,0,0,107.4,208l24.9-8.1,16.2,47.7-24,7.8a20.12,20.12,0,0,0-12.6,25.5c3.6,10.5,15,16.5,25.5,12.9l23.7-7.8,8.4,24.6a20.45,20.45,0,0,0,25.8,12.6,20.12,20.12,0,0,0,12.6-25.5l-8.4-24.9,47.7-16.2,7.8,24a20.12,20.12,0,0,0,25.5,12.6c10.5-3.6,16.5-15,12.9-25.5L285.6,244l24.9-8.4a20.45,20.45,0,0,0,12.6-25.8,20.12,20.12,0,0,0-25.5-12.6l-24.9,8.4-16.2-47.7,24-7.8a20.12,20.12,0,0,0,12.6-25.5c-3.6-10.5-15-16.5-25.5-12.9l-23.7,7.8-8.4-24.9A19.86,19.86,0,0,0,218.1,80.8Zm.3,90,16.2,47.7-47.7,16.2L170.7,187Z"/></g></svg>