<svg id="Layer_1" data-name="Layer 1" xmlns="http://www.w3.org/2000/svg" viewBox="0 0 405 405"><defs><style>.cls-1{fill:none;stroke:#fff;stroke-miterlimit:10;stroke-width:5px;}.cls-2{fill:#fff;}</style></defs><title>youtube_white_trim</title><path class="cls-1" d="M351.65,4.22H53.35A49.63,49.63,0,0,0,3.63,53.81V351.19a49.63,49.63,0,0,0,49.72,49.59h298.3a49.7,49.7,0,0,0,49.72-49.59V53.81A49.63,49.63,0,0,0,351.65,4.22Zm-182.76,247V153.6l85.91,48.8Z"/><path class="cls-2" d="M360.8,122.35A41.5,41.5,0,0,0,331.6,93c-25.8-6.9-129.1-6.9-129.1-6.9S99.2,86.05,73.4,93a41.5,41.5,0,0,0-29.2,29.4c-6.9,25.9-6.9,80.1-6.9,80.1s0,54.1,6.9,80.1A41.5,41.5,0,0,0,73.4,312c25.8,7,129.1,7,129.1,7s103.3,0,129.1-7a41.5,41.5,0,0,0,29.2-29.4c6.9-25.9,6.9-80.1,6.9-80.1S367.7,148.35,360.8,122.35ZM168.7,251.55v-98.2l86.4,49.1Z"/></svg>