<svg xmlns="http://www.w3.org/2000/svg" viewBox="0 0 400 400">
    <path
    fill="currentColor"
    d="M358.3,119.9c-3.8-14.3-15-25.6-29.2-29.4C303.3,83.6,200,83.6,200,83.6s-103.3,0-129.1,6.9
    c-14.2,3.8-25.4,15.1-29.2,29.4c-6.9,25.9-6.9,80.1-6.9,80.1s0,54.1,6.9,80.1c3.8,14.3,15,25.6,29.2,29.4c25.8,7,129.1,7,129.1,7
    s103.3,0,129.1-7c14.2-3.8,25.4-15.1,29.2-29.4c6.9-25.9,6.9-80.1,6.9-80.1S365.2,145.9,358.3,119.9z"
    />
    <polygon fill="#FFFFFF" points="166.2,249.1 252.6,200 166.2,150.9 " />
</svg>