<svg width="1200" height="675" viewBox="0 0 1200 675" fill="none" xmlns="http://www.w3.org/2000/svg">
<g clip-path="url(#clip0_16955_2627)">
<path d="M0 9.99999C0 4.47714 4.47715 0 10 0H1190C1195.52 0 1200 4.47715 1200 10V575C1200 630.229 1155.23 675 1100 675H9.99999C4.47714 675 0 670.523 0 665V9.99999Z" fill="white"/>
<rect width="1200" height="675" fill="#00B39F"/>
<g filter="url(#filter0_d_16955_2627)">
<path d="M23 0H1177V325.5C1177 505.269 1031.27 651 851.5 651H23V0Z" fill="#202020"/>
</g>
<g filter="url(#filter1_d_16955_2627)">
<path d="M1019.22 404.443V418.993L1064.25 411.692L1019.22 404.443Z" fill="#00D3A9"/>
<path d="M1019.22 422.039V436.661L1064.66 429.384L1019.22 422.039Z" fill="#00D3A9"/>
<path d="M1012.74 418.892V404.563L968.273 411.705L1012.74 418.892Z" fill="#00B39F"/>
<path d="M923.533 436.609C932.252 440.536 944.066 443.868 958.039 446.331V431.013L923.533 436.609Z" fill="#00B39F"/>
<path d="M1012.74 436.591V422.145L968.162 429.374L1012.74 436.591Z" fill="#00B39F"/>
<path d="M964.523 445.422L1009.67 438.19L964.523 430.879V445.422Z" fill="#00D3A9"/>
<path d="M1067.74 445.498V430.979L1022.67 438.201L1067.74 445.498Z" fill="#00B39F"/>
<path d="M1111.89 434.941C1119.39 431.02 1123.92 426.589 1124.64 421.879L1077.67 429.39L1111.89 434.941Z" fill="#00B39F"/>
<path d="M1074.22 427.851L1119.52 420.595L1074.22 413.298V427.851Z" fill="#00D3A9"/>
<path d="M1067.74 410.163V395.734L1022.88 402.938L1067.74 410.163Z" fill="#00B39F"/>
<path d="M1067.74 427.785V413.222L1022.77 420.515L1067.74 427.785Z" fill="#00B39F"/>
<path d="M964.523 413.195V427.865L1009.82 420.519L964.523 413.195Z" fill="#00D3A9"/>
<path d="M1012.74 390.08C995.522 390.221 979.31 391.485 964.998 393.614L1012.74 401.304V390.08Z" fill="#00B39F"/>
<path d="M964.523 395.633V410.214L1009.86 402.934L964.523 395.633Z" fill="#00D3A9"/>
<path d="M958.039 394.748C944.075 397.214 932.258 400.546 923.533 404.474L958.039 410.052V394.748Z" fill="#00B39F"/>
<path d="M1067.45 393.687C1053.02 391.513 1036.63 390.242 1019.22 390.08V401.449L1067.45 393.687Z" fill="#00D3A9"/>
<path d="M907.271 421.611C907.87 426.459 912.504 431.024 920.279 435.048L955.216 429.38L907.271 421.611Z" fill="#00D3A9"/>
<path d="M920.274 406.042C912.537 410.042 907.912 414.583 907.295 419.406L955.284 411.699L920.274 406.042Z" fill="#00D3A9"/>
<path d="M964.914 447.451C979.248 449.591 995.492 450.859 1012.74 451V439.789L964.914 447.451Z" fill="#00B39F"/>
<path d="M1108.5 404.513C1099.84 400.595 1088.1 397.277 1074.22 394.8V410.073L1108.5 404.513Z" fill="#00D3A9"/>
<path d="M1074.22 446.28C1088.18 443.796 1099.98 440.443 1108.66 436.495L1074.22 430.927V446.28Z" fill="#00D3A9"/>
<path d="M1124.67 419.327C1124 414.548 1119.41 410.052 1111.76 406.083L1077.21 411.685L1124.67 419.327Z" fill="#00B39F"/>
<path d="M1019.22 451C1036.43 450.858 1052.64 449.598 1066.95 447.468L1019.22 439.737V451Z" fill="#00D3A9"/>
<path d="M958.041 427.734V413.35L913.439 420.512L958.041 427.734Z" fill="#00B39F"/>
<path d="M1015.5 362.906C1006.58 345.177 997.704 329.098 990.195 312.298C974.448 277.074 958.898 241.725 944.32 205.918C937.077 188.13 932.326 169.349 934.298 149.143C937.672 114.6 962.647 82.6207 993.788 74.1039C1038.01 62.0108 1079.58 86.0108 1094.41 132.919C1100.78 153.067 1098.2 173.229 1091.87 193.091C1079.08 233.253 1061.42 270.986 1043.49 308.577C1035.86 324.567 1027.58 340.181 1019.56 355.947C1018.6 357.821 1017.45 359.578 1015.5 362.906ZM1016.29 224.567C1048.8 224.267 1075.78 194.614 1075.46 159.516C1075.14 123.971 1047.92 95.1547 1014.74 95.2615C983.923 95.3614 955.878 125.897 956.195 158.972C956.543 195.644 983.303 224.867 1016.29 224.567Z" fill="#00D3A9"/>
</g>
<path d="M84.4141 41.1696V50.4362L92.6057 45.7786L84.4141 41.1696Z" fill="#00D3A9"/>
<path d="M84.4141 52.3765V61.7159L92.6799 57.0583L84.4141 52.3765Z" fill="#00D3A9"/>
<path d="M83.2293 50.3878V41.2424L75.1367 45.803L83.2293 50.3878Z" fill="#00B39F"/>
<path d="M66.9746 61.6674C68.5585 64.166 70.7116 66.3008 73.2607 67.8775V58.1014L66.9746 61.6674Z" fill="#00B39F"/>
<path d="M83.2287 61.6676V52.4495L75.1113 57.0585L83.2287 61.6676Z" fill="#00B39F"/>
<path d="M74.4375 67.2954L82.6538 62.6863L74.4375 58.0287V67.2954Z" fill="#00D3A9"/>
<path d="M93.2554 67.3443V58.0776L85.0391 62.6867L93.2554 67.3443Z" fill="#00B39F"/>
<path d="M101.299 60.6004C102.71 58.029 103.502 55.1908 103.625 52.2798L95.0625 57.0829L101.299 60.6004Z" fill="#00B39F"/>
<path d="M94.4375 56.0885L102.703 51.4551L94.4375 46.8218V56.0885Z" fill="#00D3A9"/>
<path d="M93.2509 44.808V35.6141L85.084 40.199L93.2509 44.808Z" fill="#00B39F"/>
<path d="M93.2502 56.0401V46.7734L85.0586 51.4068L93.2502 56.0401Z" fill="#00B39F"/>
<path d="M74.4375 46.7489V56.1126L82.7034 51.4065L74.4375 46.7489Z" fill="#00D3A9"/>
<path d="M83.2309 32C80.1868 32.0728 77.2171 32.849 74.5195 34.256L83.2309 39.1562V32Z" fill="#00B39F"/>
<path d="M74.4375 35.5415V44.8567L82.7034 40.1991L74.4375 35.5415Z" fill="#00D3A9"/>
<path d="M73.2607 34.9836C70.7116 36.5604 68.5585 38.6709 66.9746 41.1938L73.2607 44.7598V35.0079V34.9836Z" fill="#00B39F"/>
<path d="M93.1996 34.3045C90.5021 32.8733 87.4828 32.097 84.4141 32V39.229L93.1996 34.3045Z" fill="#00D3A9"/>
<path d="M64 52.1099C64.099 55.1179 64.9157 58.0289 66.3758 60.6731L72.7361 57.0586L64 52.1099Z" fill="#00D3A9"/>
<path d="M66.3758 42.188C64.9157 44.8079 64.1237 47.7431 64 50.7269L72.7361 45.8025L66.351 42.188H66.3758Z" fill="#00D3A9"/>
<path d="M74.5195 68.5816C77.2171 69.9886 80.1868 70.7648 83.2309 70.8376V63.6814L74.5195 68.5573V68.5816Z" fill="#00B39F"/>
<path d="M100.674 41.2179C99.0901 38.7192 96.9618 36.6088 94.4375 35.032V44.7596L100.674 41.2179Z" fill="#00D3A9"/>
<path d="M94.4375 67.8537C96.9866 66.277 99.1149 64.1422 100.699 61.6194L94.4375 58.0776V67.878V67.8537Z" fill="#00D3A9"/>
<path d="M103.642 50.6544C103.519 47.6949 102.727 44.8082 101.291 42.2125L94.9805 45.7785L103.642 50.6544Z" fill="#00B39F"/>
<path d="M84.4141 70.8617C87.4581 70.7889 90.4278 70.0127 93.1254 68.6057L84.4141 63.657V70.8617Z" fill="#00D3A9"/>
<path d="M73.2619 56.0157V46.8461L65.1445 51.4066L73.2619 56.0157Z" fill="#00B39F"/>
<path d="M230.887 43.9442V44.9828V49.5701V55.196V63.5051H253.227V58.8312H235.567V55.196V54.2439H249.165V49.5701H235.567V44.9828H253.227V40.309H230.887V43.9442Z" fill="#FBFBFB"/>
<path d="M144.707 43.9442V44.9828V49.5701V55.196V63.5051H167.135V58.8312H149.475V55.196V54.2439H163.073V49.5701H149.475V44.9828H167.135V40.309H144.707V43.9442Z" fill="#FBFBFB"/>
<path d="M198.127 57.4464C198.127 58.3119 197.951 59.0909 197.597 59.7833C197.244 60.5623 196.803 61.1681 196.273 61.6875C195.743 62.2068 195.037 62.6395 194.33 62.9857C193.536 63.332 192.741 63.5051 191.946 63.5051H169.871V58.6581H191.946C192.299 58.6581 192.564 58.5716 192.829 58.3119C193.094 58.0522 193.182 57.7926 193.182 57.4464V55.5422C193.182 55.196 193.094 54.9363 192.829 54.6767C192.564 54.417 192.299 54.3305 191.946 54.3305H176.052C175.169 54.3305 174.374 54.1574 173.668 53.8112C172.873 53.465 172.255 53.0322 171.725 52.5129C171.196 51.9936 170.754 51.3011 170.401 50.6087C170.048 49.9163 169.871 49.1373 169.871 48.2718V46.3676C169.871 45.5021 170.048 44.7231 170.401 44.0307C170.754 43.3383 171.196 42.6459 171.725 42.1266C172.255 41.6072 172.962 41.1745 173.668 40.8283C174.374 40.4821 175.169 40.309 176.052 40.309H198.127V45.2425H176.052C175.699 45.2425 175.434 45.329 175.169 45.5887C174.904 45.8483 174.816 46.108 174.816 46.4542V48.3584C174.816 48.7046 174.904 48.9642 175.169 49.2239C175.434 49.4835 175.699 49.5701 176.052 49.5701H191.946C192.829 49.5701 193.624 49.7432 194.33 50.0894C195.037 50.4356 195.743 50.8684 196.273 51.3877C196.803 51.907 197.244 52.5994 197.597 53.2919C197.951 54.0708 198.127 54.8498 198.127 55.6288V57.4464Z" fill="#FBFBFB"/>
<path d="M227.885 63.5051H223.382V54.417H205.81V63.5051H201.307V49.4835H223.382V40.309H227.885V63.5051ZM205.81 47.3197H201.307V40.3955H205.81V47.3197Z" fill="#FBFBFB"/>
<path d="M292.168 48.4449L286.252 40.309H280.336L289.784 54.2439V63.5051H294.552V54.2439L304 40.309H298.173L292.168 48.4449Z" fill="#FBFBFB"/>
<path d="M261.263 44.7231H273.361V46.3676V48.0121V49.6566H263.648V54.0708H265.855L274.42 63.5916H280.248L271.683 54.0708H274.685C274.773 54.0708 274.862 54.0708 275.038 54.0708C277.069 54.0708 278.747 52.4263 278.747 50.4356V48.0121V46.3676V43.9442C278.747 41.9535 277.069 40.309 275.038 40.309C274.95 40.309 274.862 40.309 274.685 40.309H261.175H261.087H256.672V63.4185H261.352L261.263 44.7231Z" fill="#FBFBFB"/>
<path d="M140.645 44.2038C139.673 41.9534 137.289 40.3089 134.728 40.3955H111.594V45.329V63.5916H116.627V45.2424C123.514 45.2424 134.993 45.1559 135.258 45.329C137.024 44.8097 135.788 62.8126 136.141 63.4185H141.174C140.909 61.8605 141.616 45.2424 140.645 44.2038Z" fill="#FBFBFB"/>
<path d="M128.9 47.839H123.867V63.505H128.9V47.839Z" fill="#FBFBFB"/>
<g filter="url(#filter2_d_16955_2627)">
<path d="M128.53 223C129.88 223 130.6 223.72 130.6 225.07V284.02C130.6 285.28 129.88 286 128.53 286H122.23C120.97 286 120.25 285.28 120.25 284.02V240.19L105.13 274.12C104.68 275.2 103.96 275.65 102.79 275.65H98.02C96.94 275.65 96.13 275.2 95.68 274.12L80.65 240.19V284.02C80.65 285.28 79.93 286 78.58 286H72.28C71.02 286 70.3 285.28 70.3 284.02V225.07C70.3 223.72 71.02 223 72.28 223H78.58H80.65C81.82 223 82.54 223.45 82.99 224.53L100.45 263.68L117.82 224.53C118.27 223.45 119.08 223 120.16 223H125.2H128.53ZM163.591 239.83C177.001 239.83 185.821 250.63 185.821 263.59C185.821 264.4 185.821 265.12 185.731 265.84C185.641 267.1 184.831 267.73 183.571 267.73H176.011H150.001C151.531 275.11 157.021 278.89 163.861 278.89C168.181 278.89 171.691 277.09 173.671 274.57C174.391 273.76 175.021 273.31 176.101 273.31H181.861C183.391 273.31 184.201 274.21 183.571 275.47C180.331 282.76 172.951 287.17 163.771 287.17C149.371 287.17 140.011 277 140.011 263.5C140.011 250.18 149.461 239.83 163.591 239.83ZM150.001 259.72H176.011C174.751 252.07 169.261 248.74 163.501 248.74C156.211 248.74 151.351 252.97 150.001 259.72ZM202.491 253.69C202.491 262.69 227.511 256.21 227.511 273.4C227.511 282.22 219.771 287.17 209.781 287.17C200.601 287.17 193.221 282.76 192.231 274.21C192.141 272.86 192.951 272.14 194.211 272.14H199.791C201.051 272.14 201.501 272.77 201.951 273.94C202.761 277.18 205.911 278.44 209.781 278.44C214.551 278.44 217.791 276.82 217.791 273.4C217.791 264.4 192.771 270.79 192.771 253.69C192.771 244.87 200.511 239.83 209.781 239.83C218.241 239.83 225.441 244.24 226.431 252.79C226.611 254.23 225.801 254.95 224.451 254.95H218.871C217.701 254.95 217.161 254.23 216.711 253.06C215.991 249.91 213.021 248.56 209.781 248.56C205.731 248.56 202.491 250.27 202.491 253.69ZM259.16 239.83C267.53 239.83 274.01 246.22 274.01 257.02V284.02C274.01 285.28 273.29 286 272.03 286H266.36C265.01 286 264.29 285.28 264.29 284.02V257.65C264.29 251.8 260.78 248.92 256.1 248.92C250.97 248.92 246.38 251.98 246.38 260.17V284.02C246.38 285.28 245.66 286 244.4 286H238.73C237.38 286 236.66 285.28 236.66 284.02V225.07C236.66 223.72 237.38 223 238.73 223H244.4C245.66 223 246.38 223.72 246.38 225.07V246.13C249.26 241.72 253.67 239.83 259.16 239.83ZM343.159 223C344.509 223 345.229 223.72 345.229 225.07V284.02C345.229 285.28 344.509 286 343.159 286H336.859C335.599 286 334.879 285.28 334.879 284.02V240.19L319.759 274.12C319.309 275.2 318.589 275.65 317.419 275.65H312.649C311.569 275.65 310.759 275.2 310.309 274.12L295.279 240.19V284.02C295.279 285.28 294.559 286 293.209 286H286.909C285.649 286 284.929 285.28 284.929 284.02V225.07C284.929 223.72 285.649 223 286.909 223H293.209H295.279C296.449 223 297.169 223.45 297.619 224.53L315.079 263.68L332.449 224.53C332.899 223.45 333.709 223 334.789 223H339.829H343.159ZM374.53 239.83C384.52 239.83 392.44 245.95 392.44 257.2V284.02C392.44 285.28 391.72 286 390.37 286H384.88C383.62 286 382.9 285.28 382.9 284.02V281.77C380.11 285.28 375.79 287.17 370.12 287.17C362.02 287.17 354.64 282.49 354.64 272.95C354.64 263.41 362.02 258.64 370.12 258.64C375.79 258.64 380.11 260.53 382.9 263.23V257.65C382.9 251.44 379.3 248.92 374.53 248.92C370.48 248.92 367.24 250.72 366.43 254.05C365.98 255.22 365.53 255.85 364.27 255.85H358.69C357.43 255.85 356.62 255.13 356.71 253.78C357.79 245.05 365.26 239.83 374.53 239.83ZM373.18 279.61C379.03 279.61 382.9 276.82 382.9 272.95C382.9 268.81 379.03 266.2 373.18 266.2C367.15 266.2 364.36 269.08 364.36 272.95C364.36 276.82 367.15 279.61 373.18 279.61ZM428.07 239.83C440.31 239.83 450.39 250.18 450.39 263.5C450.39 276.91 440.31 287.17 428.07 287.17C420.96 287.17 415.65 284.29 412.23 279.61V302.02C412.23 303.28 411.51 304 410.25 304H404.58C403.23 304 402.51 303.28 402.51 302.02V243.07C402.51 241.72 403.23 241 404.58 241H410.25C411.51 241 412.23 241.72 412.23 243.07V247.48C415.65 242.8 420.96 239.83 428.07 239.83ZM426.45 277.9C434.55 277.9 440.67 271.87 440.67 263.5C440.67 255.13 434.55 249.1 426.45 249.1C418.35 249.1 412.23 255.13 412.23 263.5C412.23 271.87 418.35 277.9 426.45 277.9ZM540.109 252.88V252.97C541.369 252.97 542.089 253.69 542.089 254.95V262.24V284.02C542.089 285.37 541.369 286.09 540.109 286.09H534.259C532.909 286.09 532.189 285.37 532.189 284.02V277.45C527.599 283.93 519.949 287.17 511.039 287.17C492.769 287.17 479.269 272.77 479.269 254.5C479.269 236.23 492.949 221.83 511.939 221.83C525.619 221.83 537.319 230.11 541.369 241.45C541.909 242.8 541.189 243.7 539.749 243.7H532.819C531.739 243.7 531.019 243.25 530.479 242.26C527.329 236.23 520.129 231.91 511.939 231.91C498.619 231.91 489.619 241.54 489.619 254.5C489.619 267.91 498.889 277.54 511.939 277.54C521.659 277.54 530.659 272.68 531.919 262.15H514.909C513.559 262.15 512.839 261.43 512.839 260.17V254.95C512.839 253.6 513.559 252.88 514.909 252.88H540.109ZM586.915 241C588.265 241 588.985 241.72 588.985 243.07V284.02C588.985 285.28 588.265 286 586.915 286H581.245C579.985 286 579.265 285.28 579.265 284.02V280.96C576.295 285.37 571.975 287.17 566.485 287.17C558.115 287.17 551.635 280.78 551.635 269.98V243.07C551.635 241.72 552.355 241 553.615 241H559.285C560.635 241 561.355 241.72 561.355 243.07V269.44C561.355 275.2 564.865 278.08 569.545 278.08C574.675 278.08 579.265 275.11 579.265 266.83V243.07C579.265 241.72 579.985 241 581.245 241H586.915ZM602.334 233.8C600.984 233.8 600.264 233.08 600.264 231.82V225.07C600.264 223.72 600.984 223 602.334 223H608.004C609.264 223 609.984 223.72 609.984 225.07V231.82C609.984 233.08 609.264 233.8 608.004 233.8H602.334ZM602.334 286C600.984 286 600.264 285.28 600.264 284.02V243.07C600.264 241.72 600.984 241 602.334 241H608.004C609.264 241 609.984 241.72 609.984 243.07V284.02C609.984 285.28 609.264 286 608.004 286H602.334ZM664.649 223C665.999 223 666.719 223.72 666.719 225.07V284.02C666.719 285.28 665.999 286 664.649 286H658.979C657.719 286 656.999 285.28 656.999 284.02V279.61C653.579 284.29 648.269 287.17 641.159 287.17C628.919 287.17 618.839 276.91 618.839 263.5C618.839 250.18 628.919 239.83 641.159 239.83C648.269 239.83 653.579 242.8 656.999 247.48V225.07C656.999 223.72 657.719 223 658.979 223H664.649ZM642.779 277.9C650.879 277.9 656.999 271.87 656.999 263.5C656.999 255.13 650.879 249.1 642.779 249.1C634.679 249.1 628.559 255.13 628.559 263.5C628.559 271.87 634.679 277.9 642.779 277.9ZM699.109 239.83C712.519 239.83 721.339 250.63 721.339 263.59C721.339 264.4 721.339 265.12 721.249 265.84C721.159 267.1 720.349 267.73 719.089 267.73H711.529H685.519C687.049 275.11 692.539 278.89 699.379 278.89C703.699 278.89 707.209 277.09 709.189 274.57C709.909 273.76 710.539 273.31 711.619 273.31H717.379C718.909 273.31 719.719 274.21 719.089 275.47C715.849 282.76 708.469 287.17 699.289 287.17C684.889 287.17 675.529 277 675.529 263.5C675.529 250.18 684.979 239.83 699.109 239.83ZM685.519 259.72H711.529C710.269 252.07 704.779 248.74 699.019 248.74C691.729 248.74 686.869 252.97 685.519 259.72ZM90.01 341.1C84.43 341.1 81.46 343.98 81.46 350.1V351H90.1C91.36 351 92.08 351.72 92.08 353.07V358.38C92.08 359.64 91.36 360.36 90.1 360.36H81.46V394.02C81.46 395.28 80.74 396 79.39 396H73.72C72.46 396 71.74 395.28 71.74 394.02V360.36H66.88C65.62 360.36 64.9 359.64 64.9 358.38V353.07C64.9 351.72 65.62 351 66.88 351H71.74V350.1C71.74 338.58 77.86 331.65 90.1 331.74C91.36 331.74 92.08 332.64 92.08 333.9V339.21C92.08 340.47 91.36 341.1 90.01 341.1ZM118.156 397.17C104.926 397.17 94.3961 386.91 94.3961 373.5C94.3961 360.18 104.926 349.83 118.156 349.83C131.296 349.83 141.916 360.18 141.916 373.5C141.916 386.91 131.296 397.17 118.156 397.17ZM118.156 387.72C126.076 387.72 132.196 381.69 132.196 373.5C132.196 365.31 126.076 359.28 118.156 359.28C110.236 359.28 104.116 365.31 104.116 373.5C104.116 381.69 110.236 387.72 118.156 387.72ZM171.225 350.37C172.575 350.19 173.295 351 173.295 352.26V358.65C173.295 359.91 172.755 360.63 171.765 360.63C165.915 360.81 160.335 364.05 160.335 372.87V394.02C160.335 395.28 159.615 396 158.265 396H152.595C151.335 396 150.615 395.28 150.615 394.02V353.07C150.615 351.72 151.335 351 152.595 351H158.265C159.615 351 160.335 351.72 160.335 353.07V357.75C162.675 353.07 166.635 350.82 171.225 350.37ZM238.192 335.07C238.192 333.72 238.912 333 240.172 333H246.472C247.822 333 248.542 333.72 248.542 335.07V394.02C248.542 395.28 247.822 396 246.472 396H242.062C240.982 396 240.082 395.64 239.542 394.74L213.892 353.25V394.02C213.892 395.28 213.172 396 211.822 396H205.522C204.262 396 203.542 395.28 203.542 394.02V335.07C203.542 333.72 204.262 333 205.522 333H210.022C211.102 333 211.912 333.45 212.452 334.35L238.192 375.75V335.07ZM281.541 349.83C294.951 349.83 303.771 360.63 303.771 373.59C303.771 374.4 303.771 375.12 303.681 375.84C303.591 377.1 302.781 377.73 301.521 377.73H293.961H267.951C269.481 385.11 274.971 388.89 281.811 388.89C286.131 388.89 289.641 387.09 291.621 384.57C292.341 383.76 292.971 383.31 294.051 383.31H299.811C301.341 383.31 302.151 384.21 301.521 385.47C298.281 392.76 290.901 397.17 281.721 397.17C267.321 397.17 257.961 387 257.961 373.5C257.961 360.18 267.411 349.83 281.541 349.83ZM267.951 369.72H293.961C292.701 362.07 287.211 358.74 281.451 358.74C274.161 358.74 269.301 362.97 267.951 369.72ZM365.742 351H365.652C367.092 351 367.812 351.9 367.362 353.34L353.682 394.38C353.322 395.46 352.422 396 351.342 396H346.572H345.312C344.142 396 343.332 395.46 342.972 394.38L337.122 376.74L331.182 394.38C330.822 395.46 329.922 396 328.842 396H325.062H322.812C321.642 396 320.832 395.46 320.472 394.38L306.792 353.34C306.342 351.9 306.972 351 308.412 351H314.622C315.702 351 316.512 351.54 316.872 352.71L326.412 384.48L332.982 364.41L329.292 353.34C328.842 351.9 329.562 351 331.002 351H335.772C336.942 351 337.662 351.54 338.022 352.71L348.012 383.67L357.282 352.71C357.642 351.54 358.362 351 359.532 351H365.742ZM414.812 380.25C416.252 380.25 417.062 381.15 416.522 382.59C413.552 391.23 405.002 397.17 395.012 397.17C381.332 397.17 371.252 386.91 371.252 373.5C371.252 360.18 381.332 349.83 395.012 349.83C405.002 349.83 413.462 355.77 416.522 364.5C417.062 365.85 416.252 366.75 414.812 366.75H408.602C407.522 366.75 406.712 366.3 406.172 365.31C404.012 361.62 399.872 359.37 395.012 359.37C387.092 359.37 380.972 365.4 380.972 373.5C380.972 381.6 387.092 387.63 395.012 387.63C399.872 387.63 404.012 385.38 406.172 381.78C406.712 380.79 407.432 380.25 408.602 380.25H414.812ZM446.164 397.17C432.934 397.17 422.404 386.91 422.404 373.5C422.404 360.18 432.934 349.83 446.164 349.83C459.304 349.83 469.924 360.18 469.924 373.5C469.924 386.91 459.304 397.17 446.164 397.17ZM446.164 387.72C454.084 387.72 460.204 381.69 460.204 373.5C460.204 365.31 454.084 359.28 446.164 359.28C438.244 359.28 432.124 365.31 432.124 373.5C432.124 381.69 438.244 387.72 446.164 387.72ZM523.533 349.83H523.443C531.633 349.83 537.573 355.32 537.573 365.67V394.02C537.573 395.28 536.853 396 535.503 396H529.833C528.573 396 527.853 395.28 527.853 394.02V366.3C527.853 360.9 524.703 358.92 521.013 358.92C517.413 358.92 512.913 361.08 512.913 368.37V394.02C512.913 395.28 512.193 396 510.933 396H505.263C503.913 396 503.193 395.28 503.193 394.02V366.3C503.193 360.9 500.043 358.92 496.443 358.92C492.843 358.92 488.343 361.08 488.343 368.37V394.02C488.343 395.28 487.623 396 486.273 396H480.603C479.343 396 478.623 395.28 478.623 394.02V353.07C478.623 351.72 479.343 351 480.603 351H486.273C487.623 351 488.343 351.72 488.343 353.07V355.68C491.133 351.63 495.093 349.83 499.593 349.83C504.363 349.83 508.413 352.08 510.843 356.4C513.993 351.81 518.313 349.83 523.533 349.83ZM568.855 349.83C582.265 349.83 591.085 360.63 591.085 373.59C591.085 374.4 591.085 375.12 590.995 375.84C590.905 377.1 590.095 377.73 588.835 377.73H581.275H555.265C556.795 385.11 562.285 388.89 569.125 388.89C573.445 388.89 576.955 387.09 578.935 384.57C579.655 383.76 580.285 383.31 581.365 383.31H587.125C588.655 383.31 589.465 384.21 588.835 385.47C585.595 392.76 578.215 397.17 569.035 397.17C554.635 397.17 545.275 387 545.275 373.5C545.275 360.18 554.725 349.83 568.855 349.83ZM555.265 369.72H581.275C580.015 362.07 574.525 358.74 568.765 358.74C561.475 358.74 556.615 362.97 555.265 369.72ZM619.995 350.37C621.345 350.19 622.065 351 622.065 352.26V358.65C622.065 359.91 621.525 360.63 620.535 360.63C614.685 360.81 609.105 364.05 609.105 372.87V394.02C609.105 395.28 608.385 396 607.035 396H601.365C600.105 396 599.385 395.28 599.385 394.02V353.07C599.385 351.72 600.105 351 601.365 351H607.035C608.385 351 609.105 351.72 609.105 353.07V357.75C611.445 353.07 615.405 350.82 619.995 350.37ZM636.495 363.69C636.495 372.69 661.515 366.21 661.515 383.4C661.515 392.22 653.775 397.17 643.785 397.17C634.605 397.17 627.225 392.76 626.235 384.21C626.145 382.86 626.955 382.14 628.215 382.14H633.795C635.055 382.14 635.505 382.77 635.955 383.94C636.765 387.18 639.915 388.44 643.785 388.44C648.555 388.44 651.795 386.82 651.795 383.4C651.795 374.4 626.775 380.79 626.775 363.69C626.775 354.87 634.515 349.83 643.785 349.83C652.245 349.83 659.445 354.24 660.435 362.79C660.615 364.23 659.805 364.95 658.455 364.95H652.875C651.705 364.95 651.165 364.23 650.715 363.06C649.995 359.91 647.025 358.56 643.785 358.56C639.735 358.56 636.495 360.27 636.495 363.69Z" fill="#F0F0F0"/>
</g>
</g>
<defs>
<filter id="filter0_d_16955_2627" x="2" y="-21" width="1196" height="693" filterUnits="userSpaceOnUse" color-interpolation-filters="sRGB">
<feFlood flood-opacity="0" result="BackgroundImageFix"/>
<feColorMatrix in="SourceAlpha" type="matrix" values="0 0 0 0 0 0 0 0 0 0 0 0 0 0 0 0 0 0 127 0" result="hardAlpha"/>
<feMorphology radius="9" operator="dilate" in="SourceAlpha" result="effect1_dropShadow_16955_2627"/>
<feOffset/>
<feGaussianBlur stdDeviation="6"/>
<feComposite in2="hardAlpha" operator="out"/>
<feColorMatrix type="matrix" values="0 0 0 0 0 0 0 0 0 0 0 0 0 0 0 0 0 0 0.5 0"/>
<feBlend mode="normal" in2="BackgroundImageFix" result="effect1_dropShadow_16955_2627"/>
<feBlend mode="normal" in="SourceGraphic" in2="effect1_dropShadow_16955_2627" result="shape"/>
</filter>
<filter id="filter1_d_16955_2627" x="903.271" y="71" width="225.395" height="388" filterUnits="userSpaceOnUse" color-interpolation-filters="sRGB">
<feFlood flood-opacity="0" result="BackgroundImageFix"/>
<feColorMatrix in="SourceAlpha" type="matrix" values="0 0 0 0 0 0 0 0 0 0 0 0 0 0 0 0 0 0 127 0" result="hardAlpha"/>
<feOffset dy="4"/>
<feGaussianBlur stdDeviation="2"/>
<feComposite in2="hardAlpha" operator="out"/>
<feColorMatrix type="matrix" values="0 0 0 0 0 0 0 0 0 0 0 0 0 0 0 0 0 0 0.25 0"/>
<feBlend mode="normal" in2="BackgroundImageFix" result="effect1_dropShadow_16955_2627"/>
<feBlend mode="normal" in="SourceGraphic" in2="effect1_dropShadow_16955_2627" result="shape"/>
</filter>
<filter id="filter2_d_16955_2627" x="60.9004" y="221.83" width="664.439" height="183.34" filterUnits="userSpaceOnUse" color-interpolation-filters="sRGB">
<feFlood flood-opacity="0" result="BackgroundImageFix"/>
<feColorMatrix in="SourceAlpha" type="matrix" values="0 0 0 0 0 0 0 0 0 0 0 0 0 0 0 0 0 0 127 0" result="hardAlpha"/>
<feOffset dy="4"/>
<feGaussianBlur stdDeviation="2"/>
<feComposite in2="hardAlpha" operator="out"/>
<feColorMatrix type="matrix" values="0 0 0 0 0 0 0 0 0 0 0 0 0 0 0 0 0 0 0.25 0"/>
<feBlend mode="normal" in2="BackgroundImageFix" result="effect1_dropShadow_16955_2627"/>
<feBlend mode="normal" in="SourceGraphic" in2="effect1_dropShadow_16955_2627" result="shape"/>
</filter>
<clipPath id="clip0_16955_2627">
<path d="M0 9.99999C0 4.47714 4.47715 0 10 0H1190C1195.52 0 1200 4.47715 1200 10V575C1200 630.229 1155.23 675 1100 675H9.99999C4.47714 675 0 670.523 0 665V9.99999Z" fill="white"/>
</clipPath>
</defs>
</svg>
