<svg id="Layer_5" fill="#fff" enable-background="new 0 0 64 64" height="512" viewBox="0 0 64 64" width="512" xmlns="http://www.w3.org/2000/svg"><g><path d="m55 13c-.075 0-.15.001-.226.004-.914-4.055-4.527-7.004-8.774-7.004-1.161 0-2.314.227-3.386.661-1.927-3.47-5.597-5.661-9.614-5.661-6.046 0-10.968 4.903-11 10.941-.59.292-1.124.659-1.625 1.059h-14.375c-2.757 0-5 2.243-5 5v30c0 2.757 2.243 5 5 5h10.612l-1.333 4h-.279c-2.757 0-5 2.243-5 5v1h36v-1c0-2.757-2.243-5-5-5h-.279l-1.333-4h10.612c2.757 0 5-2.243 5-5v-19c4.411 0 8-3.589 8-8s-3.589-8-8-8zm-11.171 48h-31.658c.413-1.164 1.525-2 2.829-2h26c1.304 0 2.416.836 2.829 2zm-5.217-4h-21.224l1.333-4h18.558zm14.388-9c0 1.654-1.346 3-3 3h-44c-1.654 0-3-1.346-3-3v-30c0-1.654 1.346-3 3-3h12.528c-.415.62-.746 1.291-.996 2h-10.532c-1.103 0-2 .897-2 2v24c0 1.103.897 2 2 2h42c1.103 0 2-.897 2-2v-14h2zm-12-13v-6h2v8h-24v2h26v-10h4v14h-42v-24h10.07c-.036.33-.07.662-.07 1 0 4.963 4.038 9 9 9h13v4h-14v2zm14-8h-29c-3.86 0-7-3.141-7-7 0-2.874 1.728-5.424 4.401-6.496l.668-.268-.053-.886c-.007-.116-.016-.232-.016-.35 0-4.963 4.038-9 9-9 3.568 0 6.802 2.114 8.239 5.387l.439.999.958-.524c1.027-.564 2.191-.862 3.364-.862 3.561 0 6.549 2.666 6.951 6.201l.117 1.029 1.025-.153c.349-.053.637-.077.907-.077 3.309 0 6 2.691 6 6s-2.691 6-6 6z"/><path d="m26 12h2c0-2.757 2.243-5 5-5v-2c-3.86 0-7 3.141-7 7z"/><path d="m55 23h-2v2h2c2.206 0 4-1.794 4-4h-2c0 1.103-.897 2-2 2z"/><path d="m43 47h8v2h-8z"/><path d="m39 47h2v2h-2z"/><path d="m21 20h2c0-1.654 1.346-3 3-3v-2c-2.757 0-5 2.243-5 5z"/><path d="m13 35c-1.654 0-3 1.346-3 3s1.346 3 3 3 3-1.346 3-3-1.346-3-3-3zm0 4c-.551 0-1-.448-1-1s.449-1 1-1 1 .448 1 1-.449 1-1 1z"/><path d="m21 33h2v2h-2z"/></g></svg>