<svg xmlns="http://www.w3.org/2000/svg" xmlns:xlink="http://www.w3.org/1999/xlink" id="Capa_1" x="0" y="0" fill="#fff" version="1.1" viewBox="0 0 469.333 469.333" xml:space="preserve" style="enable-background:new 0 0 469.333 469.333"><g><g><g><path d="M469.333,320v-42.667c0-23.531-19.146-42.667-42.667-42.667v-192C426.667,19.135,407.521,0,384,0H42.667 C19.146,0,0,19.135,0,42.667V256c0,23.531,19.146,42.667,42.667,42.667h42.667V320c0,12.805,5.786,24.174,14.746,32 c-8.96,7.826-14.746,19.195-14.746,32v42.667c0,23.531,19.146,42.667,42.667,42.667h298.667 c23.521,0,42.667-19.135,42.667-42.667V384c0-12.805-5.786-24.174-14.746-32C463.547,344.174,469.333,332.805,469.333,320z M378.216,21.333L224.667,146.01c-6.896,4.385-16.854,3.677-21.896,0.563L48.458,21.333H378.216z M85.333,277.333H42.667 c-11.771,0-21.333-9.573-21.333-21.333V42.667c0-4.68,1.819-8.785,4.384-12.307l164.512,133.443 c6.938,4.49,14.917,6.865,23.104,6.865c7.875,0,15.583-2.198,22.333-6.375c0.604-0.323,1.188-0.708,1.75-1.156L400.951,30.363 c2.564,3.521,4.383,7.625,4.383,12.303v192H128C104.479,234.667,85.333,253.802,85.333,277.333z M448,426.667 c0,11.76-9.563,21.333-21.333,21.333H128c-11.771,0-21.333-9.573-21.333-21.333V384c0-11.76,9.563-21.333,21.333-21.333h298.667 C438.438,362.667,448,372.24,448,384V426.667z M448,320c0,11.76-9.563,21.333-21.333,21.333H128 c-11.771,0-21.333-9.573-21.333-21.333v-42.667c0-11.76,9.563-21.333,21.333-21.333h298.667c11.771,0,21.333,9.573,21.333,21.333 V320z"/><path d="M138.667,277.333c-5.896,0-10.667,4.771-10.667,10.667v21.333c0,5.896,4.771,10.667,10.667,10.667 s10.667-4.771,10.667-10.667V288C149.333,282.104,144.562,277.333,138.667,277.333z"/><path d="M181.333,277.333c-5.896,0-10.667,4.771-10.667,10.667v21.333c0,5.896,4.771,10.667,10.667,10.667 c5.896,0,10.667-4.771,10.667-10.667V288C192,282.104,187.229,277.333,181.333,277.333z"/><path d="M224,277.333c-5.896,0-10.667,4.771-10.667,10.667v21.333c0,5.896,4.771,10.667,10.667,10.667 c5.896,0,10.667-4.771,10.667-10.667V288C234.667,282.104,229.896,277.333,224,277.333z"/><circle cx="405.333" cy="298.667" r="21.333"/><circle cx="341.333" cy="298.667" r="21.333"/><path d="M138.667,384c-5.896,0-10.667,4.771-10.667,10.667V416c0,5.896,4.771,10.667,10.667,10.667s10.667-4.771,10.667-10.667 v-21.333C149.333,388.771,144.562,384,138.667,384z"/><path d="M181.333,384c-5.896,0-10.667,4.771-10.667,10.667V416c0,5.896,4.771,10.667,10.667,10.667 c5.896,0,10.667-4.771,10.667-10.667v-21.333C192,388.771,187.229,384,181.333,384z"/><path d="M224,384c-5.896,0-10.667,4.771-10.667,10.667V416c0,5.896,4.771,10.667,10.667,10.667 c5.896,0,10.667-4.771,10.667-10.667v-21.333C234.667,388.771,229.896,384,224,384z"/><circle cx="405.333" cy="405.333" r="21.333"/><circle cx="341.333" cy="405.333" r="21.333"/></g></g></g></svg>