<svg xmlns="http://www.w3.org/2000/svg" xmlns:xlink="http://www.w3.org/1999/xlink" id="Layer_1" x="0" y="0" version="1.1" viewBox="0 0 100 100" xml:space="preserve" style="enable-background:new 0 0 100 100"><style type="text/css">.st0{fill:#ed1c40}</style><g id="color_x5F_fill"><path d="M81,74.3c-0.7,0.8-1.9,1.4-3.1,1.7c-3.2,0.8-7,0-10-1.4c-9.6-4.2-7.5-14.9-3.3-22.2c1.3-2.2,2.5-4.4,3.8-6.7 c1-1.8,3.1-4.7,2.3-6.9c-0.9-2.3-3.2-2.3-4.8-0.4c-1.5,1.8-2.7,4.5-3.7,6.6c-1.1,2.3-6.7,14.5-6.7,14.5c-1,2-2.8,4.8-4.6,6.4 c-1.4,1.2-4,1.5-5.6,0.3c-1.3-0.9-1.5-2.2-1.3-3.6c1.2-6.6,11.2-22,4.3-23.1c-2.7-0.4-3.4,2.5-4.2,4.4c-1.4,3.1-2.4,6.4-3.8,9.4 c-1.7,3.5-2.9,7.2-3.8,11c-0.7,3-1.6,6.9-5.1,7.8c-9.5,2.5-12.3-3.7-12.3-3.7c-1.5-4.9-0.1-9.3,1.4-14.1c1.1-3.7,1.8-7.4,3.3-11 c2.6-6.3,5.2-19.6,14.5-18.7c2.4,0.2,5.1,1.4,7.1,2.6c1.9,1.1,3.3,1.7,5.5,0.5c2.1-1.1,3.1-3.3,5.6-4c2.7-0.8,4.5,0.4,6.5,2 c2.8,2.3,3.2,1.3,5.5,0.7c1.9-0.5,4.2-0.7,6.3-0.4c11,1.9,4,15.9,1.4,21.5c-1.7,3.7-9.8,18.4-2.6,20.4c2.2,0.6,5,0.3,6.8,1.9 C82.2,71.6,82,73.1,81,74.3z" class="st0"/></g></svg>