<svg xmlns="http://www.w3.org/2000/svg" viewBox="0 0 218.18 56.19"><defs><style>.cls-1{fill:#fff;}.cls-2{fill:#00b39f;}</style></defs><g id="Layer_2" data-name="Layer 2"><g id="Layer_1-2" data-name="Layer 1"><g id="Layer_2-2" data-name="Layer 2"><g id="Layer_1-2-2" data-name="Layer 1-2"><polygon class="cls-1" points="112.35 13.24 112.35 26.66 157.54 19.93 112.35 13.24"/><polygon class="cls-1" points="112.35 29.47 112.35 42.95 157.95 36.24 112.35 29.47"/><polygon class="cls-1" points="105.85 26.57 105.85 13.35 61.22 19.94 105.85 26.57"/><path class="cls-1" d="M16.33,42.9c8.75,3.62,20.61,6.7,34.62,9V37.76Z"/><polygon class="cls-1" points="105.85 42.89 105.85 29.56 61.11 36.23 105.85 42.89"/><polygon class="cls-1" points="57.45 51.03 102.76 44.36 57.45 37.62 57.45 51.03"/><polygon class="cls-1" points="161.05 51.1 161.05 37.71 115.81 44.37 161.05 51.1"/><path class="cls-1" d="M205.37,41.35c7.53-3.61,12.08-7.7,12.8-12L171,36.25Z"/><polygon class="cls-1" points="167.56 34.83 213.02 28.14 167.56 21.41 167.56 34.83"/><polygon class="cls-1" points="161.05 18.51 161.05 5.21 116.02 11.85 161.05 18.51"/><polygon class="cls-1" points="161.05 34.77 161.05 21.34 115.92 28.06 161.05 34.77"/><polygon class="cls-2" points="109.1 56.19 109.11 56.19 109.09 56.19 109.1 56.19"/><polygon class="cls-1" points="57.45 21.31 57.45 34.84 102.92 28.07 57.45 21.31"/><path class="cls-1" d="M105.85,0A378.29,378.29,0,0,0,57.93,3.26l47.92,7.09Z"/><polygon class="cls-1" points="57.45 5.12 57.45 18.56 102.96 11.85 57.45 5.12"/><path class="cls-1" d="M51,4.3c-14,2.28-25.88,5.35-34.63,9L51,18.41Z"/><path class="cls-1" d="M160.75,3.32A378.52,378.52,0,0,0,112.35,0V10.46Z"/><path class="cls-1" d="M0,29.07c.6,4.47,5.25,8.68,13.05,12.39l35.07-5.23Z"/><path class="cls-1" d="M13.05,14.76C5.28,18.41.64,22.59,0,27l48.16-7.11Z"/><path class="cls-1" d="M57.84,52.9a377.71,377.71,0,0,0,48,3.27V45.84Z"/><path class="cls-1" d="M202,13.31c-8.7-3.62-20.49-6.68-34.41-9V18.39Z"/><path class="cls-1" d="M167.56,51.82c14-2.29,25.85-5.38,34.56-9l-34.56-5.13Z"/><path class="cls-1" d="M218.18,27c-.67-4.41-5.28-8.56-13-12.22l-34.67,5.17Z"/><path class="cls-1" d="M112.35,56.17a379.83,379.83,0,0,0,47.9-3.25l-47.9-7.16Z"/><polygon class="cls-1" points="50.95 34.72 50.95 21.45 6.19 28.06 50.95 34.72"/></g></g></g></g></svg>