<svg id="Layer_1" data-name="Layer 1" xmlns="http://www.w3.org/2000/svg" viewBox="0 0 760 150"><defs><style>.cls-1{fill:#3c494e;}.cls-2{fill:#647881;}.cls-3{fill:#00b39f;}.cls-4{fill:#00d3a9;}.cls-5{fill:#477e96;}.cls-6{fill:#3c494f;}</style></defs><g id="Needle"><path class="cls-1" d="M122,104.59a11.93,11.93,0,1,0,10.94,12.85A11.94,11.94,0,0,0,122,104.59Zm-1.3,16.79a4.92,4.92,0,1,1,5.3-4.51A5,5,0,0,1,120.67,121.38Z"/><path class="cls-1" d="M158.72,53c-1.46,1-2.81,2.08-4.22,3.16l-5.25,8.34L138.71,81.08,128.17,97.71l-2.65,4.17L124.23,104a7.13,7.13,0,0,1-.68,1,3.1,3.1,0,0,0-.68,1c-.39,1.7-.73,3.39-1.07,5.13a1.77,1.77,0,0,0,0,.51,4.86,4.86,0,0,1,3.43,2.2,4.42,4.42,0,0,1,.45-.28c1.47-1,2.82-2.09,4.23-3.16a2.5,2.5,0,0,0,.62-1.07,11.79,11.79,0,0,1,.62-1.07l1.3-2.09,2.65-4.17,10.54-16.63,10.54-16.63,5.24-8.34c.4-1.69.74-3.44,1.08-5.19s.56-3.49.78-5.3C161.66,50.92,160.13,51.88,158.72,53Z"/></g><g id="Gauge"><path class="cls-2" d="M59.27,48.55a162.21,162.21,0,0,1,17.92-8.12l-1.52-7.49A181.58,181.58,0,0,0,56.79,43.65Z"/><path class="cls-3" d="M174.66,36.32l15.5-17.48A178.2,178.2,0,0,0,159.89,15l-9,16.47A167.54,167.54,0,0,1,174.66,36.32Z"/><path class="cls-2" d="M55.72,50.41l-2.26-4.56c-4.68,3.21-9.24,6.65-13.58,10.26l2.36,2.81C46.64,55.88,51.15,53.06,55.72,50.41Z"/><path class="cls-4" d="M204.65,48.44,227.87,32a166.12,166.12,0,0,0-33.31-12.18l-15.73,17.7A162,162,0,0,1,204.65,48.44Z"/><path class="cls-1" d="M39,61.24l-2.14-2.6a153.49,153.49,0,0,0-11.61,11L27,71C30.86,67.61,34.86,64.34,39,61.24Z"/><path class="cls-4" d="M231.82,34.06,208.54,50.53a170.18,170.18,0,0,1,28.24,20.12l30.27-11.78A169,169,0,0,0,231.82,34.06Z"/><path class="cls-1" d="M22.46,72.57A191.1,191.1,0,0,0,6.11,93.14,167,167,0,0,1,24,73.75Z"/><path class="cls-5" d="M104.36,21.78l-.62,11.16a157.39,157.39,0,0,1,17.93-2.26L125.56,17A187,187,0,0,0,104.36,21.78Z"/><path class="cls-3" d="M125.84,30.46c2-.06,4.12-.12,6.2-.12,4.91,0,9.81.23,14.6.68l8.8-16.12a175.67,175.67,0,0,0-25.65,1.52Z"/><path class="cls-5" d="M80.86,39a151.69,151.69,0,0,1,18.88-5.3L100.36,23a167.84,167.84,0,0,0-21,8.17Z"/></g><polygon class="cls-6" points="362.18 65.16 362.18 67.16 362.18 76.56 362.18 88.04 362.18 104.78 406.76 104.78 406.76 95.38 371.58 95.38 371.58 88.04 371.58 85.97 398.61 85.97 398.61 76.56 371.58 76.56 371.58 67.16 406.76 67.16 406.76 57.75 362.18 57.75 362.18 65.16"/><path class="cls-6" d="M468.48,92.49a11.76,11.76,0,0,1-1,4.77,12.28,12.28,0,0,1-2.67,3.92,12.86,12.86,0,0,1-3.92,2.63,11.92,11.92,0,0,1-4.79,1h-44v-9.9h44a2.29,2.29,0,0,0,1.69-.69,2.33,2.33,0,0,0,.69-1.7V88.67a2.36,2.36,0,0,0-2.38-2.39H424.46a11.79,11.79,0,0,1-4.77-1,12.78,12.78,0,0,1-3.95-2.66,12.61,12.61,0,0,1-2.66-4,11.79,11.79,0,0,1-1-4.77V70.11a11.94,11.94,0,0,1,1-4.8,12.58,12.58,0,0,1,6.61-6.59,12,12,0,0,1,4.77-1h44v10h-44a2.28,2.28,0,0,0-1.69.69,2.32,2.32,0,0,0-.7,1.7v3.82a2.3,2.3,0,0,0,.7,1.69,2.28,2.28,0,0,0,1.69.69h31.67a12.1,12.1,0,0,1,4.79,1,12.73,12.73,0,0,1,6.59,6.59,12,12,0,0,1,1,4.8Z"/><path class="cls-6" d="M527.8,104.78h-9V86.28h-35v18.5h-9V76.31h44V57.75h9ZM483.86,71.9h-9V57.75h9Z"/><path class="cls-6" d="M354.94,104.78H345V70.48a2.77,2.77,0,0,0-.22-1.07,2.93,2.93,0,0,0-1.47-1.47,2.77,2.77,0,0,0-1.07-.22H296.12v-10h46.09a12.23,12.23,0,0,1,4.92,1,12.62,12.62,0,0,1,6.81,6.81,12.23,12.23,0,0,1,1,4.92Zm-48.85,0h-10V67.72h10Zm24.39,0h-10V73h10Z"/><path class="cls-6" d="M593.43,104.78h-10V70.48a2.6,2.6,0,0,0-.22-1.07,2.73,2.73,0,0,0-.59-.87,3,3,0,0,0-.88-.6,2.77,2.77,0,0,0-1.07-.22H534.61v-10H580.7a12.28,12.28,0,0,1,4.93,1,12.65,12.65,0,0,1,6.8,6.81,12.23,12.23,0,0,1,1,4.92Zm-48.85,0h-10V67.72h10Zm24.4,0H559V73h10Z"/><polygon class="cls-6" points="618.23 57.75 599.42 104.78 610.15 104.78 622.93 71.86 632.05 95.38 616.41 95.38 612.9 104.78 646.45 104.78 627.64 57.75 618.23 57.75"/><path class="cls-6" d="M662.09,66.78h24v9.74H664.69l.09,8.93h6.42l17,19.23h11.56l-17-19.23h6.62a7.27,7.27,0,0,0,7.28-7.27V65.13a7.28,7.28,0,0,0-7.28-7.28H652.92v46.83h9.37Z"/><polyline class="cls-1" points="753.59 57.75 740.38 57.75 715.4 78.72 715.4 57.78 706.12 57.78 706.12 104.78 715.4 104.78 715.4 91.22"/><polygon class="cls-1" points="732.49 80.47 754.12 104.78 740.77 104.78 724.83 86.91 732.49 80.47"/></svg>