<svg width="655" height="299" viewBox="0 0 655 299" fill="none" xmlns="http://www.w3.org/2000/svg">
<path d="M10 29H644.933C649.352 29 652.933 32.5817 652.933 37V289C652.933 293.418 649.352 297 644.933 297H10C5.58173 297 2 293.418 2 289V37C2 32.5817 5.58172 29 10 29Z" stroke="#326CE5" stroke-width="4"/>
<rect x="268.799" y="16.334" width="112" height="37.3333" rx="10" fill="#326CE5"/>
<path d="M290.579 39.1748V34.2793C290.579 33.9043 290.503 33.5791 290.351 33.3037C290.204 33.0225 289.981 32.8057 289.683 32.6533C289.384 32.501 289.015 32.4248 288.575 32.4248C288.165 32.4248 287.805 32.4951 287.494 32.6357C287.189 32.7764 286.949 32.9609 286.773 33.1895C286.604 33.418 286.519 33.6641 286.519 33.9277H284.893C284.893 33.5879 284.98 33.251 285.156 32.917C285.332 32.583 285.584 32.2812 285.912 32.0117C286.246 31.7363 286.645 31.5195 287.107 31.3613C287.576 31.1973 288.098 31.1152 288.672 31.1152C289.363 31.1152 289.973 31.2324 290.5 31.4668C291.033 31.7012 291.449 32.0557 291.748 32.5303C292.053 32.999 292.205 33.5879 292.205 34.2969V38.7266C292.205 39.043 292.231 39.3799 292.284 39.7373C292.343 40.0947 292.428 40.4023 292.539 40.6602V40.8008H290.843C290.761 40.6133 290.696 40.3643 290.649 40.0537C290.603 39.7373 290.579 39.4443 290.579 39.1748ZM290.86 35.0352L290.878 36.1777H289.234C288.771 36.1777 288.358 36.2158 287.995 36.292C287.632 36.3623 287.327 36.4707 287.081 36.6172C286.835 36.7637 286.647 36.9482 286.519 37.1709C286.39 37.3877 286.325 37.6426 286.325 37.9355C286.325 38.2344 286.393 38.5068 286.527 38.7529C286.662 38.999 286.864 39.1953 287.134 39.3418C287.409 39.4824 287.746 39.5527 288.145 39.5527C288.643 39.5527 289.082 39.4473 289.463 39.2363C289.844 39.0254 290.146 38.7676 290.368 38.4629C290.597 38.1582 290.72 37.8623 290.737 37.5752L291.432 38.3574C291.391 38.6035 291.279 38.876 291.098 39.1748C290.916 39.4736 290.673 39.7607 290.368 40.0361C290.069 40.3057 289.712 40.5312 289.296 40.7129C288.886 40.8887 288.423 40.9766 287.907 40.9766C287.263 40.9766 286.697 40.8506 286.211 40.5986C285.73 40.3467 285.355 40.0098 285.086 39.5879C284.822 39.1602 284.69 38.6826 284.69 38.1553C284.69 37.6455 284.79 37.1973 284.989 36.8105C285.188 36.418 285.476 36.0928 285.851 35.835C286.226 35.5713 286.677 35.3721 287.204 35.2373C287.731 35.1025 288.32 35.0352 288.971 35.0352H290.86ZM296.389 33.1191V44.457H294.754V31.291H296.248L296.389 33.1191ZM302.796 35.9668V36.1514C302.796 36.8428 302.714 37.4844 302.55 38.0762C302.386 38.6621 302.146 39.1719 301.829 39.6055C301.519 40.0391 301.135 40.376 300.678 40.6162C300.221 40.8564 299.696 40.9766 299.104 40.9766C298.501 40.9766 297.968 40.877 297.505 40.6777C297.042 40.4785 296.649 40.1885 296.327 39.8076C296.005 39.4268 295.747 38.9697 295.554 38.4365C295.366 37.9033 295.237 37.3027 295.167 36.6348V35.6504C295.237 34.9473 295.369 34.3174 295.562 33.7607C295.756 33.2041 296.011 32.7295 296.327 32.3369C296.649 31.9385 297.039 31.6367 297.496 31.4316C297.953 31.2207 298.48 31.1152 299.078 31.1152C299.676 31.1152 300.206 31.2324 300.669 31.4668C301.132 31.6953 301.521 32.0234 301.838 32.4512C302.154 32.8789 302.392 33.3916 302.55 33.9893C302.714 34.5811 302.796 35.2402 302.796 35.9668ZM301.161 36.1514V35.9668C301.161 35.4922 301.111 35.0469 301.012 34.6309C300.912 34.209 300.757 33.8398 300.546 33.5234C300.341 33.2012 300.077 32.9492 299.755 32.7676C299.433 32.5801 299.049 32.4863 298.604 32.4863C298.193 32.4863 297.836 32.5566 297.531 32.6973C297.232 32.8379 296.978 33.0283 296.767 33.2686C296.556 33.5029 296.383 33.7725 296.248 34.0771C296.119 34.376 296.022 34.6865 295.958 35.0088V37.2852C296.075 37.6953 296.239 38.082 296.45 38.4453C296.661 38.8027 296.942 39.0928 297.294 39.3154C297.646 39.5322 298.088 39.6406 298.621 39.6406C299.061 39.6406 299.438 39.5498 299.755 39.3682C300.077 39.1807 300.341 38.9258 300.546 38.6035C300.757 38.2812 300.912 37.9121 301.012 37.4961C301.111 37.0742 301.161 36.626 301.161 36.1514ZM306.496 33.1191V44.457H304.861V31.291H306.355L306.496 33.1191ZM312.903 35.9668V36.1514C312.903 36.8428 312.821 37.4844 312.657 38.0762C312.493 38.6621 312.253 39.1719 311.937 39.6055C311.626 40.0391 311.242 40.376 310.785 40.6162C310.328 40.8564 309.804 40.9766 309.212 40.9766C308.608 40.9766 308.075 40.877 307.612 40.6777C307.149 40.4785 306.757 40.1885 306.435 39.8076C306.112 39.4268 305.854 38.9697 305.661 38.4365C305.474 37.9033 305.345 37.3027 305.274 36.6348V35.6504C305.345 34.9473 305.477 34.3174 305.67 33.7607C305.863 33.2041 306.118 32.7295 306.435 32.3369C306.757 31.9385 307.146 31.6367 307.604 31.4316C308.061 31.2207 308.588 31.1152 309.186 31.1152C309.783 31.1152 310.313 31.2324 310.776 31.4668C311.239 31.6953 311.629 32.0234 311.945 32.4512C312.262 32.8789 312.499 33.3916 312.657 33.9893C312.821 34.5811 312.903 35.2402 312.903 35.9668ZM311.269 36.1514V35.9668C311.269 35.4922 311.219 35.0469 311.119 34.6309C311.02 34.209 310.864 33.8398 310.653 33.5234C310.448 33.2012 310.185 32.9492 309.862 32.7676C309.54 32.5801 309.156 32.4863 308.711 32.4863C308.301 32.4863 307.943 32.5566 307.639 32.6973C307.34 32.8379 307.085 33.0283 306.874 33.2686C306.663 33.5029 306.49 33.7725 306.355 34.0771C306.227 34.376 306.13 34.6865 306.065 35.0088V37.2852C306.183 37.6953 306.347 38.082 306.558 38.4453C306.769 38.8027 307.05 39.0928 307.401 39.3154C307.753 39.5322 308.195 39.6406 308.729 39.6406C309.168 39.6406 309.546 39.5498 309.862 39.3682C310.185 39.1807 310.448 38.9258 310.653 38.6035C310.864 38.2812 311.02 37.9121 311.119 37.4961C311.219 37.0742 311.269 36.626 311.269 36.1514ZM314.907 39.9395C314.907 39.6641 314.992 39.4326 315.162 39.2451C315.338 39.0518 315.59 38.9551 315.918 38.9551C316.246 38.9551 316.495 39.0518 316.665 39.2451C316.841 39.4326 316.929 39.6641 316.929 39.9395C316.929 40.209 316.841 40.4375 316.665 40.625C316.495 40.8125 316.246 40.9062 315.918 40.9062C315.59 40.9062 315.338 40.8125 315.162 40.625C314.992 40.4375 314.907 40.209 314.907 39.9395ZM314.916 32.1787C314.916 31.9033 315.001 31.6719 315.171 31.4844C315.347 31.291 315.599 31.1943 315.927 31.1943C316.255 31.1943 316.504 31.291 316.674 31.4844C316.85 31.6719 316.938 31.9033 316.938 32.1787C316.938 32.4482 316.85 32.6768 316.674 32.8643C316.504 33.0518 316.255 33.1455 315.927 33.1455C315.599 33.1455 315.347 33.0518 315.171 32.8643C315.001 32.6768 314.916 32.4482 314.916 32.1787ZM320.963 33.3213V40.8008H319.337V31.291H320.875L320.963 33.3213ZM320.576 35.6855L319.899 35.6592C319.905 35.0088 320.002 34.4082 320.189 33.8574C320.377 33.3008 320.641 32.8174 320.98 32.4072C321.32 31.9971 321.725 31.6807 322.193 31.458C322.668 31.2295 323.192 31.1152 323.767 31.1152C324.235 31.1152 324.657 31.1797 325.032 31.3086C325.407 31.4316 325.727 31.6309 325.99 31.9062C326.26 32.1816 326.465 32.5391 326.605 32.9785C326.746 33.4121 326.816 33.9424 326.816 34.5693V40.8008H325.182V34.5518C325.182 34.0537 325.108 33.6553 324.962 33.3564C324.815 33.0518 324.602 32.832 324.32 32.6973C324.039 32.5566 323.693 32.4863 323.283 32.4863C322.879 32.4863 322.51 32.5713 322.176 32.7412C321.848 32.9111 321.563 33.1455 321.323 33.4443C321.089 33.7432 320.904 34.0859 320.77 34.4727C320.641 34.8535 320.576 35.2578 320.576 35.6855ZM335.447 31.291H336.924V40.5986C336.924 41.4365 336.754 42.1514 336.414 42.7432C336.074 43.335 335.6 43.7832 334.99 44.0879C334.387 44.3984 333.689 44.5537 332.898 44.5537C332.57 44.5537 332.184 44.501 331.738 44.3955C331.299 44.2959 330.865 44.123 330.438 43.877C330.016 43.6367 329.661 43.3115 329.374 42.9014L330.227 41.9346C330.625 42.415 331.041 42.749 331.475 42.9365C331.914 43.124 332.348 43.2178 332.775 43.2178C333.291 43.2178 333.736 43.1211 334.111 42.9277C334.486 42.7344 334.776 42.4473 334.981 42.0664C335.192 41.6914 335.298 41.2285 335.298 40.6777V33.3828L335.447 31.291ZM328.899 36.1514V35.9668C328.899 35.2402 328.984 34.5811 329.154 33.9893C329.33 33.3916 329.579 32.8789 329.901 32.4512C330.229 32.0234 330.625 31.6953 331.088 31.4668C331.551 31.2324 332.072 31.1152 332.652 31.1152C333.25 31.1152 333.771 31.2207 334.217 31.4316C334.668 31.6367 335.049 31.9385 335.359 32.3369C335.676 32.7295 335.925 33.2041 336.106 33.7607C336.288 34.3174 336.414 34.9473 336.484 35.6504V36.459C336.42 37.1562 336.294 37.7832 336.106 38.3398C335.925 38.8965 335.676 39.3711 335.359 39.7637C335.049 40.1562 334.668 40.458 334.217 40.6689C333.766 40.874 333.238 40.9766 332.635 40.9766C332.066 40.9766 331.551 40.8564 331.088 40.6162C330.631 40.376 330.238 40.0391 329.91 39.6055C329.582 39.1719 329.33 38.6621 329.154 38.0762C328.984 37.4844 328.899 36.8428 328.899 36.1514ZM330.525 35.9668V36.1514C330.525 36.626 330.572 37.0713 330.666 37.4873C330.766 37.9033 330.915 38.2695 331.114 38.5859C331.319 38.9023 331.58 39.1514 331.896 39.333C332.213 39.5088 332.591 39.5967 333.03 39.5967C333.569 39.5967 334.015 39.4824 334.366 39.2539C334.718 39.0254 334.996 38.7236 335.201 38.3486C335.412 37.9736 335.576 37.5664 335.693 37.127V35.0088C335.629 34.6865 335.529 34.376 335.395 34.0771C335.266 33.7725 335.096 33.5029 334.885 33.2686C334.68 33.0283 334.425 32.8379 334.12 32.6973C333.815 32.5566 333.458 32.4863 333.048 32.4863C332.603 32.4863 332.219 32.5801 331.896 32.7676C331.58 32.9492 331.319 33.2012 331.114 33.5234C330.915 33.8398 330.766 34.209 330.666 34.6309C330.572 35.0469 330.525 35.4922 330.525 35.9668ZM341.16 31.291V40.8008H339.525V31.291H341.16ZM339.402 28.7686C339.402 28.5049 339.481 28.2822 339.64 28.1006C339.804 27.9189 340.044 27.8281 340.36 27.8281C340.671 27.8281 340.908 27.9189 341.072 28.1006C341.242 28.2822 341.327 28.5049 341.327 28.7686C341.327 29.0205 341.242 29.2373 341.072 29.4189C340.908 29.5947 340.671 29.6826 340.36 29.6826C340.044 29.6826 339.804 29.5947 339.64 29.4189C339.481 29.2373 339.402 29.0205 339.402 28.7686ZM345.396 33.3213V40.8008H343.771V31.291H345.309L345.396 33.3213ZM345.01 35.6855L344.333 35.6592C344.339 35.0088 344.436 34.4082 344.623 33.8574C344.811 33.3008 345.074 32.8174 345.414 32.4072C345.754 31.9971 346.158 31.6807 346.627 31.458C347.102 31.2295 347.626 31.1152 348.2 31.1152C348.669 31.1152 349.091 31.1797 349.466 31.3086C349.841 31.4316 350.16 31.6309 350.424 31.9062C350.693 32.1816 350.898 32.5391 351.039 32.9785C351.18 33.4121 351.25 33.9424 351.25 34.5693V40.8008H349.615V34.5518C349.615 34.0537 349.542 33.6553 349.396 33.3564C349.249 33.0518 349.035 32.832 348.754 32.6973C348.473 32.5566 348.127 32.4863 347.717 32.4863C347.312 32.4863 346.943 32.5713 346.609 32.7412C346.281 32.9111 345.997 33.1455 345.757 33.4443C345.522 33.7432 345.338 34.0859 345.203 34.4727C345.074 34.8535 345.01 35.2578 345.01 35.6855ZM354.818 31.291L356.901 34.7539L359.011 31.291H360.918L357.807 35.9844L361.015 40.8008H359.134L356.937 37.2324L354.739 40.8008H352.85L356.049 35.9844L352.946 31.291H354.818Z" fill="white" fill-opacity="0.5"/>
<path d="M403.857 23.9731L364.825 3.68353C363.329 2.90595 361.668 2.5 359.982 2.5H273.799C269.657 2.5 266.299 5.85787 266.299 10V49.0667C266.299 53.2088 269.657 56.5667 273.799 56.5667H360.016C361.673 56.5667 363.307 56.1743 364.784 55.4218L403.81 35.5317C408.52 33.1313 408.547 26.4114 403.857 23.9731Z" fill="#326CE5" stroke="#326CE5" stroke-width="5"/>
<path d="M293.778 33.1738V28.2783C293.778 27.9033 293.702 27.5781 293.55 27.3027C293.403 27.0215 293.181 26.8047 292.882 26.6523C292.583 26.5 292.214 26.4238 291.774 26.4238C291.364 26.4238 291.004 26.4941 290.693 26.6348C290.389 26.7754 290.148 26.96 289.973 27.1885C289.803 27.417 289.718 27.6631 289.718 27.9268H288.092C288.092 27.5869 288.18 27.25 288.355 26.916C288.531 26.582 288.783 26.2803 289.111 26.0107C289.445 25.7354 289.844 25.5186 290.307 25.3604C290.775 25.1963 291.297 25.1143 291.871 25.1143C292.562 25.1143 293.172 25.2314 293.699 25.4658C294.232 25.7002 294.648 26.0547 294.947 26.5293C295.252 26.998 295.404 27.5869 295.404 28.2959V32.7256C295.404 33.042 295.431 33.3789 295.483 33.7363C295.542 34.0938 295.627 34.4014 295.738 34.6592V34.7998H294.042C293.96 34.6123 293.896 34.3633 293.849 34.0527C293.802 33.7363 293.778 33.4434 293.778 33.1738ZM294.06 29.0342L294.077 30.1768H292.434C291.971 30.1768 291.558 30.2148 291.194 30.291C290.831 30.3613 290.526 30.4697 290.28 30.6162C290.034 30.7627 289.847 30.9473 289.718 31.1699C289.589 31.3867 289.524 31.6416 289.524 31.9346C289.524 32.2334 289.592 32.5059 289.727 32.752C289.861 32.998 290.063 33.1943 290.333 33.3408C290.608 33.4814 290.945 33.5518 291.344 33.5518C291.842 33.5518 292.281 33.4463 292.662 33.2354C293.043 33.0244 293.345 32.7666 293.567 32.4619C293.796 32.1572 293.919 31.8613 293.937 31.5742L294.631 32.3564C294.59 32.6025 294.479 32.875 294.297 33.1738C294.115 33.4727 293.872 33.7598 293.567 34.0352C293.269 34.3047 292.911 34.5303 292.495 34.7119C292.085 34.8877 291.622 34.9756 291.106 34.9756C290.462 34.9756 289.896 34.8496 289.41 34.5977C288.93 34.3457 288.555 34.0088 288.285 33.5869C288.021 33.1592 287.89 32.6816 287.89 32.1543C287.89 31.6445 287.989 31.1963 288.188 30.8096C288.388 30.417 288.675 30.0918 289.05 29.834C289.425 29.5703 289.876 29.3711 290.403 29.2363C290.931 29.1016 291.52 29.0342 292.17 29.0342H294.06ZM299.588 27.1182V38.4561H297.953V25.29H299.447L299.588 27.1182ZM305.995 29.9658V30.1504C305.995 30.8418 305.913 31.4834 305.749 32.0752C305.585 32.6611 305.345 33.1709 305.028 33.6045C304.718 34.0381 304.334 34.375 303.877 34.6152C303.42 34.8555 302.896 34.9756 302.304 34.9756C301.7 34.9756 301.167 34.876 300.704 34.6768C300.241 34.4775 299.849 34.1875 299.526 33.8066C299.204 33.4258 298.946 32.9688 298.753 32.4355C298.565 31.9023 298.437 31.3018 298.366 30.6338V29.6494C298.437 28.9463 298.568 28.3164 298.762 27.7598C298.955 27.2031 299.21 26.7285 299.526 26.3359C299.849 25.9375 300.238 25.6357 300.695 25.4307C301.152 25.2197 301.68 25.1143 302.277 25.1143C302.875 25.1143 303.405 25.2314 303.868 25.4658C304.331 25.6943 304.721 26.0225 305.037 26.4502C305.354 26.8779 305.591 27.3906 305.749 27.9883C305.913 28.5801 305.995 29.2393 305.995 29.9658ZM304.36 30.1504V29.9658C304.36 29.4912 304.311 29.0459 304.211 28.6299C304.111 28.208 303.956 27.8389 303.745 27.5225C303.54 27.2002 303.276 26.9482 302.954 26.7666C302.632 26.5791 302.248 26.4854 301.803 26.4854C301.393 26.4854 301.035 26.5557 300.73 26.6963C300.432 26.8369 300.177 27.0273 299.966 27.2676C299.755 27.502 299.582 27.7715 299.447 28.0762C299.318 28.375 299.222 28.6855 299.157 29.0078V31.2842C299.274 31.6943 299.438 32.0811 299.649 32.4443C299.86 32.8018 300.142 33.0918 300.493 33.3145C300.845 33.5312 301.287 33.6396 301.82 33.6396C302.26 33.6396 302.638 33.5488 302.954 33.3672C303.276 33.1797 303.54 32.9248 303.745 32.6025C303.956 32.2803 304.111 31.9111 304.211 31.4951C304.311 31.0732 304.36 30.625 304.36 30.1504ZM309.695 27.1182V38.4561H308.061V25.29H309.555L309.695 27.1182ZM316.103 29.9658V30.1504C316.103 30.8418 316.021 31.4834 315.856 32.0752C315.692 32.6611 315.452 33.1709 315.136 33.6045C314.825 34.0381 314.441 34.375 313.984 34.6152C313.527 34.8555 313.003 34.9756 312.411 34.9756C311.808 34.9756 311.274 34.876 310.812 34.6768C310.349 34.4775 309.956 34.1875 309.634 33.8066C309.312 33.4258 309.054 32.9688 308.86 32.4355C308.673 31.9023 308.544 31.3018 308.474 30.6338V29.6494C308.544 28.9463 308.676 28.3164 308.869 27.7598C309.062 27.2031 309.317 26.7285 309.634 26.3359C309.956 25.9375 310.346 25.6357 310.803 25.4307C311.26 25.2197 311.787 25.1143 312.385 25.1143C312.982 25.1143 313.513 25.2314 313.976 25.4658C314.438 25.6943 314.828 26.0225 315.145 26.4502C315.461 26.8779 315.698 27.3906 315.856 27.9883C316.021 28.5801 316.103 29.2393 316.103 29.9658ZM314.468 30.1504V29.9658C314.468 29.4912 314.418 29.0459 314.318 28.6299C314.219 28.208 314.063 27.8389 313.853 27.5225C313.647 27.2002 313.384 26.9482 313.062 26.7666C312.739 26.5791 312.355 26.4854 311.91 26.4854C311.5 26.4854 311.143 26.5557 310.838 26.6963C310.539 26.8369 310.284 27.0273 310.073 27.2676C309.862 27.502 309.689 27.7715 309.555 28.0762C309.426 28.375 309.329 28.6855 309.265 29.0078V31.2842C309.382 31.6943 309.546 32.0811 309.757 32.4443C309.968 32.8018 310.249 33.0918 310.601 33.3145C310.952 33.5312 311.395 33.6396 311.928 33.6396C312.367 33.6396 312.745 33.5488 313.062 33.3672C313.384 33.1797 313.647 32.9248 313.853 32.6025C314.063 32.2803 314.219 31.9111 314.318 31.4951C314.418 31.0732 314.468 30.625 314.468 30.1504ZM318.106 33.9385C318.106 33.6631 318.191 33.4316 318.361 33.2441C318.537 33.0508 318.789 32.9541 319.117 32.9541C319.445 32.9541 319.694 33.0508 319.864 33.2441C320.04 33.4316 320.128 33.6631 320.128 33.9385C320.128 34.208 320.04 34.4365 319.864 34.624C319.694 34.8115 319.445 34.9053 319.117 34.9053C318.789 34.9053 318.537 34.8115 318.361 34.624C318.191 34.4365 318.106 34.208 318.106 33.9385ZM318.115 26.1777C318.115 25.9023 318.2 25.6709 318.37 25.4834C318.546 25.29 318.798 25.1934 319.126 25.1934C319.454 25.1934 319.703 25.29 319.873 25.4834C320.049 25.6709 320.137 25.9023 320.137 26.1777C320.137 26.4473 320.049 26.6758 319.873 26.8633C319.703 27.0508 319.454 27.1445 319.126 27.1445C318.798 27.1445 318.546 27.0508 318.37 26.8633C318.2 26.6758 318.115 26.4473 318.115 26.1777ZM324.162 27.3203V34.7998H322.536V25.29H324.074L324.162 27.3203ZM323.775 29.6846L323.099 29.6582C323.104 29.0078 323.201 28.4072 323.389 27.8564C323.576 27.2998 323.84 26.8164 324.18 26.4062C324.52 25.9961 324.924 25.6797 325.393 25.457C325.867 25.2285 326.392 25.1143 326.966 25.1143C327.435 25.1143 327.856 25.1787 328.231 25.3076C328.606 25.4307 328.926 25.6299 329.189 25.9053C329.459 26.1807 329.664 26.5381 329.805 26.9775C329.945 27.4111 330.016 27.9414 330.016 28.5684V34.7998H328.381V28.5508C328.381 28.0527 328.308 27.6543 328.161 27.3555C328.015 27.0508 327.801 26.8311 327.52 26.6963C327.238 26.5557 326.893 26.4854 326.482 26.4854C326.078 26.4854 325.709 26.5703 325.375 26.7402C325.047 26.9102 324.763 27.1445 324.522 27.4434C324.288 27.7422 324.104 28.085 323.969 28.4717C323.84 28.8525 323.775 29.2568 323.775 29.6846ZM338.646 25.29H340.123V34.5977C340.123 35.4355 339.953 36.1504 339.613 36.7422C339.273 37.334 338.799 37.7822 338.189 38.0869C337.586 38.3975 336.889 38.5527 336.098 38.5527C335.77 38.5527 335.383 38.5 334.938 38.3945C334.498 38.2949 334.064 38.1221 333.637 37.876C333.215 37.6357 332.86 37.3105 332.573 36.9004L333.426 35.9336C333.824 36.4141 334.24 36.748 334.674 36.9355C335.113 37.123 335.547 37.2168 335.975 37.2168C336.49 37.2168 336.936 37.1201 337.311 36.9268C337.686 36.7334 337.976 36.4463 338.181 36.0654C338.392 35.6904 338.497 35.2275 338.497 34.6768V27.3818L338.646 25.29ZM332.099 30.1504V29.9658C332.099 29.2393 332.184 28.5801 332.354 27.9883C332.529 27.3906 332.778 26.8779 333.101 26.4502C333.429 26.0225 333.824 25.6943 334.287 25.4658C334.75 25.2314 335.271 25.1143 335.852 25.1143C336.449 25.1143 336.971 25.2197 337.416 25.4307C337.867 25.6357 338.248 25.9375 338.559 26.3359C338.875 26.7285 339.124 27.2031 339.306 27.7598C339.487 28.3164 339.613 28.9463 339.684 29.6494V30.458C339.619 31.1553 339.493 31.7822 339.306 32.3389C339.124 32.8955 338.875 33.3701 338.559 33.7627C338.248 34.1553 337.867 34.457 337.416 34.668C336.965 34.873 336.438 34.9756 335.834 34.9756C335.266 34.9756 334.75 34.8555 334.287 34.6152C333.83 34.375 333.438 34.0381 333.109 33.6045C332.781 33.1709 332.529 32.6611 332.354 32.0752C332.184 31.4834 332.099 30.8418 332.099 30.1504ZM333.725 29.9658V30.1504C333.725 30.625 333.771 31.0703 333.865 31.4863C333.965 31.9023 334.114 32.2686 334.313 32.585C334.519 32.9014 334.779 33.1504 335.096 33.332C335.412 33.5078 335.79 33.5957 336.229 33.5957C336.769 33.5957 337.214 33.4814 337.565 33.2529C337.917 33.0244 338.195 32.7227 338.4 32.3477C338.611 31.9727 338.775 31.5654 338.893 31.126V29.0078C338.828 28.6855 338.729 28.375 338.594 28.0762C338.465 27.7715 338.295 27.502 338.084 27.2676C337.879 27.0273 337.624 26.8369 337.319 26.6963C337.015 26.5557 336.657 26.4854 336.247 26.4854C335.802 26.4854 335.418 26.5791 335.096 26.7666C334.779 26.9482 334.519 27.2002 334.313 27.5225C334.114 27.8389 333.965 28.208 333.865 28.6299C333.771 29.0459 333.725 29.4912 333.725 29.9658ZM344.359 25.29V34.7998H342.725V25.29H344.359ZM342.602 22.7676C342.602 22.5039 342.681 22.2812 342.839 22.0996C343.003 21.918 343.243 21.8271 343.56 21.8271C343.87 21.8271 344.107 21.918 344.271 22.0996C344.441 22.2812 344.526 22.5039 344.526 22.7676C344.526 23.0195 344.441 23.2363 344.271 23.418C344.107 23.5938 343.87 23.6816 343.56 23.6816C343.243 23.6816 343.003 23.5938 342.839 23.418C342.681 23.2363 342.602 23.0195 342.602 22.7676ZM348.596 27.3203V34.7998H346.97V25.29H348.508L348.596 27.3203ZM348.209 29.6846L347.532 29.6582C347.538 29.0078 347.635 28.4072 347.822 27.8564C348.01 27.2998 348.273 26.8164 348.613 26.4062C348.953 25.9961 349.357 25.6797 349.826 25.457C350.301 25.2285 350.825 25.1143 351.399 25.1143C351.868 25.1143 352.29 25.1787 352.665 25.3076C353.04 25.4307 353.359 25.6299 353.623 25.9053C353.893 26.1807 354.098 26.5381 354.238 26.9775C354.379 27.4111 354.449 27.9414 354.449 28.5684V34.7998H352.814V28.5508C352.814 28.0527 352.741 27.6543 352.595 27.3555C352.448 27.0508 352.234 26.8311 351.953 26.6963C351.672 26.5557 351.326 26.4854 350.916 26.4854C350.512 26.4854 350.143 26.5703 349.809 26.7402C349.48 26.9102 349.196 27.1445 348.956 27.4434C348.722 27.7422 348.537 28.085 348.402 28.4717C348.273 28.8525 348.209 29.2568 348.209 29.6846ZM358.018 25.29L360.101 28.7529L362.21 25.29H364.117L361.006 29.9834L364.214 34.7998H362.333L360.136 31.2314L357.938 34.7998H356.049L359.248 29.9834L356.146 25.29H358.018Z" fill="white" fill-opacity="0.8"/>
</svg>
