<svg width="auto" viewBox="0 0 655 299" fill="none" xmlns="http://www.w3.org/2000/svg">
  <path
    d="M540.433 104.731L485.085 64.5185C477.199 58.789 466.52 58.789 458.634 64.5185L403.286 104.731C395.4 110.461 392.1 120.617 395.113 129.887L416.254 194.953C419.266 204.223 427.905 210.5 437.653 210.5H506.067C515.814 210.5 524.453 204.223 527.466 194.953L548.607 129.887C551.619 120.617 548.319 110.461 540.433 104.731Z"
    fill="#326CE5" fill-opacity="0.1" stroke="#326CE5" stroke-width="5" />
  <path fill-rule="evenodd" clip-rule="evenodd"
    d="M528.568 187.01C518.437 182.182 514.156 170.091 519.006 160.005C521.335 155.161 525.501 151.437 530.588 149.652C535.675 147.866 541.265 148.166 546.13 150.485C556.261 155.313 560.542 167.404 555.692 177.49C550.842 187.577 538.698 191.839 528.568 187.01V187.01Z"
    fill="#326CE5" />
  <path
    d="M537.156 156.602C536.927 156.613 536.704 156.67 536.498 156.768L527.518 161.039C527.285 161.149 527.081 161.31 526.92 161.509C526.759 161.709 526.646 161.941 526.589 162.189L524.373 171.784C524.322 172.005 524.316 172.234 524.356 172.457C524.396 172.68 524.481 172.894 524.606 173.084C524.637 173.13 524.669 173.175 524.704 173.219L530.919 180.912C531.08 181.111 531.285 181.272 531.517 181.382C531.749 181.493 532.004 181.55 532.262 181.55L542.229 181.548C542.487 181.548 542.742 181.491 542.974 181.381C543.207 181.27 543.411 181.11 543.572 180.911L549.785 173.216C549.946 173.017 550.06 172.785 550.117 172.536C550.175 172.288 550.175 172.03 550.117 171.782L547.898 162.187C547.841 161.939 547.728 161.706 547.567 161.507C547.406 161.308 547.202 161.147 546.969 161.037L537.988 156.768C537.729 156.644 537.443 156.587 537.156 156.602V156.602Z"
    fill="white" />
  <path
    d="M537.245 159.867C536.948 159.867 536.707 160.133 536.707 160.462C536.707 160.467 536.708 160.472 536.709 160.477C536.708 160.521 536.706 160.575 536.707 160.614C536.714 160.803 536.756 160.948 536.781 161.123C536.826 161.496 536.864 161.806 536.841 162.093C536.818 162.202 536.738 162.301 536.666 162.37L536.653 162.596C536.331 162.623 536.006 162.672 535.682 162.745C534.286 163.06 533.085 163.776 532.17 164.742C532.11 164.702 532.007 164.628 531.976 164.605C531.88 164.618 531.783 164.647 531.656 164.574C531.416 164.413 531.197 164.191 530.932 163.923C530.81 163.794 530.722 163.672 530.578 163.549C530.545 163.521 530.495 163.483 530.459 163.454C530.346 163.364 530.213 163.318 530.084 163.313C529.919 163.307 529.76 163.372 529.656 163.502C529.471 163.733 529.53 164.086 529.788 164.291C529.791 164.293 529.793 164.294 529.796 164.296C529.831 164.325 529.875 164.362 529.907 164.386C530.061 164.498 530.2 164.556 530.353 164.645C530.674 164.843 530.941 165.007 531.152 165.204C531.235 165.292 531.249 165.446 531.26 165.513L531.433 165.666C530.51 167.048 530.084 168.754 530.336 170.493L530.111 170.558C530.051 170.635 529.967 170.755 529.88 170.79C529.603 170.877 529.292 170.909 528.916 170.948C528.74 170.963 528.588 170.954 528.401 170.989C528.359 170.997 528.302 171.012 528.257 171.022C528.255 171.023 528.254 171.023 528.252 171.024C528.25 171.024 528.247 171.025 528.244 171.026C527.928 171.102 527.724 171.392 527.79 171.678C527.855 171.963 528.165 172.137 528.483 172.069C528.486 172.068 528.489 172.068 528.491 172.067C528.495 172.067 528.498 172.065 528.502 172.064C528.546 172.054 528.602 172.044 528.641 172.033C528.824 171.984 528.958 171.912 529.123 171.849C529.479 171.722 529.773 171.616 530.06 171.575C530.18 171.565 530.306 171.648 530.369 171.683L530.603 171.643C531.142 173.307 532.272 174.652 533.703 175.496L533.605 175.729C533.641 175.82 533.679 175.943 533.653 176.032C533.549 176.301 533.37 176.586 533.167 176.903C533.068 177.049 532.967 177.163 532.878 177.33C532.857 177.37 532.83 177.432 532.81 177.474C532.671 177.768 532.773 178.107 533.038 178.234C533.305 178.362 533.637 178.227 533.78 177.933C533.78 177.932 533.781 177.932 533.781 177.932C533.781 177.931 533.781 177.931 533.781 177.93C533.802 177.889 533.831 177.834 533.848 177.794C533.924 177.621 533.949 177.472 534.003 177.304C534.145 176.948 534.223 176.575 534.419 176.343C534.473 176.279 534.56 176.254 534.651 176.23L534.772 176.011C536.02 176.487 537.416 176.615 538.81 176.3C539.128 176.228 539.436 176.135 539.732 176.023C539.767 176.084 539.83 176.2 539.847 176.229C539.939 176.259 540.04 176.274 540.122 176.395C540.268 176.644 540.368 176.939 540.49 177.295C540.544 177.463 540.57 177.611 540.647 177.785C540.664 177.825 540.693 177.88 540.713 177.922C540.856 178.218 541.189 178.354 541.456 178.225C541.722 178.098 541.823 177.759 541.685 177.465C541.664 177.423 541.636 177.361 541.615 177.321C541.526 177.153 541.425 177.041 541.327 176.895C541.123 176.578 540.954 176.314 540.85 176.045C540.806 175.906 540.857 175.82 540.891 175.729C540.871 175.706 540.827 175.575 540.802 175.513C542.289 174.639 543.385 173.244 543.9 171.633C543.97 171.644 544.091 171.665 544.13 171.673C544.211 171.62 544.285 171.551 544.431 171.562C544.718 171.603 545.012 171.71 545.368 171.837C545.533 171.9 545.666 171.973 545.85 172.022C545.889 172.032 545.945 172.042 545.989 172.051C545.993 172.052 545.996 172.054 546 172.055C546.002 172.055 546.005 172.056 546.008 172.056C546.326 172.124 546.636 171.951 546.701 171.665C546.767 171.379 546.563 171.089 546.247 171.013C546.2 171.003 546.135 170.985 546.09 170.977C545.903 170.941 545.751 170.95 545.575 170.936C545.199 170.896 544.888 170.865 544.611 170.778C544.498 170.734 544.418 170.601 544.379 170.546L544.162 170.483C544.275 169.672 544.244 168.829 544.05 167.985C543.853 167.133 543.506 166.354 543.042 165.667C543.098 165.617 543.203 165.524 543.233 165.497C543.242 165.401 543.234 165.3 543.334 165.194C543.545 164.996 543.812 164.832 544.133 164.635C544.286 164.545 544.427 164.488 544.58 164.375C544.615 164.35 544.662 164.309 544.698 164.28C544.956 164.076 545.016 163.722 544.83 163.491C544.645 163.26 544.287 163.239 544.029 163.443C543.992 163.472 543.942 163.51 543.909 163.538C543.765 163.662 543.676 163.784 543.555 163.912C543.289 164.18 543.07 164.404 542.83 164.565C542.726 164.625 542.573 164.605 542.504 164.6L542.299 164.746C541.134 163.529 539.546 162.751 537.837 162.6C537.833 162.528 537.826 162.4 537.825 162.361C537.755 162.294 537.67 162.237 537.649 162.093C537.626 161.806 537.665 161.496 537.71 161.123C537.735 160.948 537.776 160.803 537.784 160.614C537.785 160.571 537.783 160.508 537.782 160.462C537.782 160.133 537.542 159.867 537.245 159.867H537.245ZM536.572 164.017L536.412 166.824L536.401 166.83C536.39 167.081 536.182 167.282 535.928 167.282C535.823 167.282 535.727 167.248 535.649 167.191L535.644 167.194L533.332 165.562C534.043 164.866 534.951 164.352 535.999 164.116C536.19 164.072 536.381 164.04 536.572 164.017ZM537.919 164.017C539.142 164.167 540.273 164.718 541.139 165.563L538.842 167.184L538.834 167.181C538.63 167.329 538.343 167.292 538.184 167.094C538.119 167.013 538.085 166.917 538.081 166.821L538.079 166.82L537.919 164.017ZM532.494 166.61L534.605 168.49L534.602 168.501C534.793 168.666 534.821 168.953 534.662 169.151C534.597 169.232 534.51 169.287 534.416 169.312L534.414 169.321L531.708 170.099C531.57 168.845 531.867 167.626 532.494 166.61ZM541.981 166.612C542.295 167.118 542.532 167.683 542.674 168.296C542.813 168.901 542.848 169.505 542.791 170.09L540.071 169.31L540.069 169.298C539.825 169.232 539.676 168.985 539.732 168.738C539.756 168.637 539.81 168.551 539.883 168.488L539.882 168.482L541.981 166.612H541.981ZM536.812 168.635H537.677L538.214 169.304L538.021 170.139L537.245 170.51L536.466 170.138L536.273 169.303L536.812 168.635ZM539.584 170.924C539.621 170.922 539.658 170.926 539.693 170.932L539.698 170.926L542.497 171.397C542.087 172.543 541.303 173.536 540.256 174.2L539.17 171.587L539.173 171.583C539.073 171.352 539.173 171.081 539.403 170.971C539.462 170.943 539.523 170.927 539.584 170.924H539.584ZM534.884 170.936C535.097 170.939 535.289 171.086 535.338 171.303C535.362 171.404 535.35 171.504 535.312 171.593L535.32 171.603L534.245 174.189C533.24 173.547 532.44 172.586 532.011 171.407L534.786 170.938L534.791 170.944C534.822 170.938 534.853 170.935 534.884 170.936V170.936ZM537.228 172.069C537.302 172.066 537.378 172.081 537.449 172.115C537.543 172.161 537.616 172.232 537.662 172.317H537.672L539.04 174.777C538.862 174.836 538.68 174.887 538.493 174.929C537.447 175.166 536.404 175.094 535.46 174.774L536.825 172.318H536.827C536.909 172.165 537.064 172.075 537.228 172.069Z"
    fill="#326CE5" stroke="#326CE5" stroke-width="0.25" />
  <path
    d="M179.387 94C170.15 78 147.056 78 137.818 94L92.7846 172C83.547 188 95.094 208 113.569 208H203.636C222.111 208 233.658 188 224.42 172L179.387 94Z"
    fill="#326CE5" />
  <g clip-path="url(#clip0_9982_31528)">
    <path
      d="M152.956 162.219C153.063 162.199 153.171 162.191 153.28 162.196C153.467 162.205 153.65 162.251 153.819 162.329C154.146 162.479 154.399 162.744 154.526 163.068C154.653 163.391 154.644 163.749 154.501 164.066L154.511 164.08L151.285 171.497C148.199 169.623 145.857 166.823 144.63 163.54L152.942 162.203L152.956 162.219ZM165.89 163.271C165.959 162.978 166.13 162.717 166.375 162.528C166.62 162.339 166.924 162.234 167.239 162.229C167.332 162.228 167.425 162.236 167.516 162.252L167.53 162.236L175.77 163.567C174.533 166.824 172.201 169.602 169.136 171.469L165.943 164.124L165.968 164.096C165.85 163.836 165.822 163.547 165.89 163.271V163.271ZM158.989 166.151C159.109 165.937 159.288 165.759 159.507 165.635C159.725 165.51 159.975 165.445 160.23 165.445C160.484 165.445 160.734 165.511 160.952 165.636C161.17 165.761 161.349 165.94 161.469 166.154H161.476L165.528 173.128C162.626 174.069 159.507 174.221 156.52 173.569C155.966 173.449 155.425 173.305 154.897 173.138L158.958 166.151L158.989 166.151ZM146.162 149.95L152.396 155.261L152.393 155.278C152.584 155.437 152.727 155.643 152.805 155.873C152.884 156.104 152.895 156.35 152.839 156.586C152.782 156.822 152.659 157.039 152.484 157.214C152.308 157.389 152.086 157.516 151.84 157.58L151.833 157.612L143.758 159.827C143.409 156.373 144.253 152.906 146.162 149.95V149.95ZM157.744 150.545C157.732 150.787 157.652 151.021 157.512 151.223C157.371 151.425 157.176 151.587 156.947 151.692C156.717 151.797 156.462 151.84 156.209 151.818C155.956 151.796 155.713 151.71 155.508 151.567L155.483 151.577L148.661 146.973C151.258 144.552 154.618 143.01 158.226 142.584L157.752 150.542L157.744 150.545ZM164.968 151.597C164.762 151.739 164.52 151.826 164.266 151.847C164.013 151.869 163.758 151.825 163.529 151.719C163.3 151.614 163.105 151.452 162.965 151.249C162.826 151.047 162.746 150.813 162.735 150.571L162.7 150.555L162.226 142.584C162.798 142.649 163.367 142.742 163.929 142.863C166.919 143.503 169.662 144.926 171.848 146.971L164.981 151.604L164.968 151.597ZM168.629 157.619C168.383 157.555 168.16 157.429 167.984 157.254C167.807 157.079 167.684 156.862 167.627 156.626C167.571 156.389 167.582 156.143 167.661 155.912C167.74 155.681 167.883 155.476 168.076 155.317L168.069 155.285L174.338 149.948C176.25 152.911 177.071 156.396 176.67 159.853L168.635 157.646L168.629 157.619ZM162.54 159.964L160.227 161.022L157.922 159.966L157.349 157.597L158.945 155.697H161.513L163.113 157.594L162.54 159.964Z"
      fill="white" />
    <path
      d="M121.999 164.632L128.588 137.386C128.765 136.681 129.105 136.023 129.582 135.458C130.059 134.893 130.661 134.436 131.346 134.12L158.019 121.997C158.711 121.683 159.467 121.521 160.233 121.521C160.999 121.521 161.755 121.683 162.446 121.997L189.114 134.126C189.799 134.442 190.402 134.899 190.879 135.464C191.357 136.029 191.696 136.688 191.873 137.392L198.452 164.637C198.614 165.326 198.615 166.04 198.454 166.729C198.406 166.939 198.344 167.145 198.268 167.347C198.139 167.692 197.969 168.022 197.76 168.329C197.67 168.46 197.574 168.588 197.471 168.712L179.012 190.558C178.931 190.653 178.842 190.74 178.754 190.828C178.464 191.122 178.137 191.38 177.781 191.596C177.329 191.866 176.837 192.07 176.322 192.2C175.899 192.31 175.463 192.367 175.024 192.37H174.737L145.423 192.364C145.245 192.363 145.067 192.353 144.89 192.334C144.636 192.306 144.385 192.261 144.138 192.198C143.961 192.153 143.786 192.1 143.615 192.038C143.482 191.99 143.349 191.941 143.22 191.883C143.028 191.795 142.841 191.696 142.661 191.587C142.196 191.309 141.783 190.96 141.436 190.555L140.874 189.889L122.984 168.705C122.641 168.295 122.372 167.835 122.187 167.342C122.109 167.139 122.046 166.932 121.997 166.721C121.836 166.033 121.836 165.318 121.999 164.63L121.999 164.632ZM149.665 175.228C149.59 175.438 149.501 175.643 149.399 175.841C149.562 176.113 149.606 176.435 149.522 176.738C149.134 177.584 148.66 178.392 148.107 179.15C147.798 179.538 147.512 179.942 147.251 180.361C147.187 180.475 147.103 180.65 147.042 180.77C146.927 180.953 146.854 181.157 146.826 181.368C146.799 181.579 146.819 181.794 146.884 181.998C146.949 182.202 147.058 182.39 147.204 182.551C147.35 182.713 147.531 182.843 147.733 182.934C147.935 183.025 148.155 183.075 148.379 183.08C148.603 183.085 148.825 183.046 149.032 182.964C149.239 182.883 149.425 182.761 149.579 182.607C149.734 182.453 149.852 182.269 149.928 182.069C149.989 181.95 150.074 181.792 150.125 181.679C150.308 181.224 150.462 180.759 150.589 180.287C150.866 179.403 151.232 178.547 151.684 177.732C151.881 177.479 152.173 177.31 152.499 177.261C152.55 177.177 152.739 176.847 152.84 176.677C157.588 178.388 162.833 178.375 167.571 176.641L167.933 177.264C168.19 177.302 168.43 177.413 168.621 177.583C169.165 178.433 169.581 179.352 169.857 180.313C169.982 180.785 170.136 181.25 170.317 181.705C170.368 181.817 170.454 181.973 170.515 182.091V182.095L170.517 182.098C170.593 182.298 170.712 182.482 170.866 182.636C171.02 182.791 171.207 182.913 171.414 182.994C171.621 183.076 171.844 183.115 172.068 183.11C172.292 183.104 172.512 183.054 172.714 182.963C172.917 182.871 173.097 182.741 173.243 182.579C173.389 182.417 173.497 182.228 173.562 182.024C173.627 181.82 173.645 181.605 173.617 181.393C173.589 181.182 173.515 180.978 173.399 180.796C173.339 180.675 173.258 180.501 173.195 180.387C172.935 179.967 172.649 179.561 172.339 179.173C171.776 178.394 171.292 177.567 170.895 176.701C170.852 176.407 170.902 176.108 171.037 175.841L170.746 175.179C175.115 172.724 178.389 168.833 179.952 164.239L180.647 164.351C180.917 164.169 181.235 164.062 181.565 164.043C182.517 164.217 183.449 164.478 184.348 164.823C184.814 165.023 185.293 165.197 185.78 165.345C185.895 165.375 186.062 165.405 186.193 165.433C186.204 165.436 186.213 165.441 186.224 165.443C186.232 165.444 186.24 165.445 186.248 165.445C186.46 165.512 186.684 165.535 186.906 165.514C187.128 165.494 187.343 165.429 187.537 165.324C187.731 165.22 187.901 165.078 188.034 164.908C188.167 164.737 188.261 164.543 188.311 164.336C188.361 164.129 188.364 163.914 188.322 163.706C188.279 163.497 188.191 163.299 188.064 163.125C187.936 162.951 187.772 162.804 187.581 162.694C187.391 162.583 187.178 162.512 186.957 162.485L186.934 162.479L186.92 162.476C186.787 162.446 186.616 162.404 186.494 162.381C185.986 162.314 185.474 162.275 184.962 162.264C183.995 162.204 183.037 162.054 182.101 161.817C181.824 161.648 181.589 161.423 181.415 161.158L180.747 160.972C181.472 156.177 180.312 151.296 177.489 147.265L178.001 146.83C178.019 146.515 178.13 146.211 178.321 145.953C179.057 145.352 179.852 144.82 180.696 144.366C181.151 144.144 181.593 143.898 182.019 143.629C182.116 143.56 182.244 143.457 182.35 143.375L182.373 143.36C182.736 143.111 182.982 142.736 183.055 142.317C183.129 141.897 183.025 141.467 182.766 141.12C182.613 140.941 182.418 140.8 182.197 140.707C181.976 140.614 181.735 140.572 181.494 140.584C181.088 140.6 180.698 140.74 180.381 140.983C180.273 141.064 180.124 141.173 180.028 141.252C179.656 141.586 179.305 141.941 178.976 142.314C178.324 142.996 177.603 143.616 176.824 144.165C176.532 144.311 176.192 144.343 175.876 144.253C175.686 144.385 175.494 144.514 175.3 144.642C172.495 141.804 168.863 139.829 164.87 138.97C163.919 138.765 162.955 138.624 161.984 138.548L161.946 137.906C161.698 137.696 161.518 137.423 161.428 137.119C161.393 136.197 161.453 135.274 161.606 134.364C161.707 133.886 161.78 133.404 161.824 132.918C161.828 132.808 161.821 132.655 161.82 132.529C161.82 132.515 161.824 132.501 161.824 132.487C161.846 132.274 161.822 132.06 161.752 131.857C161.682 131.654 161.568 131.467 161.418 131.309C161.268 131.15 161.084 131.024 160.879 130.937C160.674 130.85 160.452 130.805 160.228 130.805C160.004 130.805 159.782 130.85 159.577 130.936C159.372 131.023 159.188 131.149 159.038 131.308C158.887 131.466 158.773 131.653 158.703 131.855C158.633 132.058 158.608 132.273 158.631 132.485C158.631 132.618 158.623 132.795 158.628 132.917C158.671 133.402 158.744 133.885 158.847 134.362C159.001 135.273 159.061 136.196 159.027 137.118C158.964 137.427 158.777 137.699 158.506 137.878C158.5 137.988 158.481 138.354 158.467 138.556C153.421 138.993 148.713 141.159 145.217 144.651L144.61 144.238C144.283 144.291 143.948 144.256 143.641 144.138C142.863 143.588 142.142 142.967 141.489 142.284C141.16 141.911 140.808 141.556 140.435 141.222C140.337 141.142 140.189 141.035 140.081 140.954C139.921 140.803 139.729 140.687 139.519 140.611C139.308 140.536 139.083 140.504 138.859 140.517C138.634 140.529 138.415 140.587 138.215 140.686C138.016 140.784 137.84 140.922 137.7 141.089C137.56 141.257 137.458 141.45 137.402 141.658C137.345 141.865 137.335 142.081 137.372 142.292C137.409 142.504 137.492 142.705 137.617 142.884C137.741 143.062 137.903 143.214 138.092 143.329C138.2 143.411 138.341 143.526 138.444 143.599C138.871 143.869 139.314 144.115 139.77 144.336C140.614 144.79 141.409 145.322 142.144 145.923C142.358 146.162 142.466 146.471 142.444 146.784C142.533 146.862 142.845 147.125 143.01 147.267C140.179 151.284 138.996 156.15 139.685 160.942L139.04 161.121C138.879 161.397 138.641 161.625 138.352 161.78C137.415 162.018 136.457 162.168 135.49 162.229C134.978 162.24 134.467 162.279 133.959 162.345C133.825 162.369 133.631 162.42 133.494 162.45C133.273 162.477 133.06 162.549 132.87 162.659C132.679 162.769 132.515 162.916 132.388 163.091C132.26 163.265 132.172 163.463 132.13 163.671C132.087 163.88 132.091 164.094 132.141 164.301C132.191 164.508 132.285 164.703 132.418 164.873C132.552 165.044 132.721 165.185 132.915 165.29C133.109 165.394 133.324 165.459 133.546 165.479C133.768 165.5 133.992 165.477 134.204 165.41L134.227 165.407C134.238 165.405 134.248 165.399 134.259 165.397C134.39 165.369 134.556 165.342 134.671 165.313C135.158 165.164 135.636 164.988 136.103 164.787C137.002 164.442 137.935 164.181 138.888 164.007C139.217 163.998 139.538 164.111 139.781 164.323C140.008 164.282 140.235 164.244 140.463 164.209C142.007 168.832 145.281 172.754 149.665 175.228V175.228Z"
      fill="white" />
  </g>
  <path
    d="M63.0654 243.648V260H60.8979V243.648H63.0654ZM72.937 243.648L66.1426 251.274L62.3242 255.238L61.9648 252.925L64.8398 249.758L70.3315 243.648H72.937ZM70.8481 260L64.7949 252.026L66.0864 250.308L73.4312 260H70.8481ZM82.1909 257.192V247.849H84.2798V260H82.292L82.1909 257.192ZM82.584 254.632L83.4487 254.609C83.4487 255.418 83.3626 256.167 83.1904 256.855C83.0257 257.537 82.7562 258.128 82.3818 258.63C82.0075 259.132 81.5171 259.525 80.9106 259.809C80.3042 260.086 79.5667 260.225 78.6982 260.225C78.1068 260.225 77.564 260.139 77.0698 259.966C76.5832 259.794 76.1639 259.528 75.812 259.169C75.4601 258.81 75.1868 258.342 74.9922 257.765C74.805 257.189 74.7114 256.496 74.7114 255.688V247.849H76.7891V255.71C76.7891 256.257 76.849 256.709 76.9688 257.069C77.096 257.421 77.2645 257.701 77.4741 257.911C77.6912 258.113 77.9308 258.256 78.1929 258.338C78.4624 258.42 78.7394 258.461 79.0239 258.461C79.9074 258.461 80.6074 258.293 81.124 257.956C81.6406 257.612 82.0112 257.151 82.2358 256.575C82.4679 255.991 82.584 255.343 82.584 254.632ZM87.4355 242.75H89.5244V257.642L89.3447 260H87.4355V242.75ZM97.7339 253.823V254.059C97.7339 254.943 97.6291 255.762 97.4194 256.519C97.2098 257.267 96.9028 257.919 96.4985 258.473C96.0942 259.027 95.6001 259.457 95.0161 259.764C94.4321 260.071 93.762 260.225 93.0059 260.225C92.2347 260.225 91.5571 260.094 90.9731 259.832C90.3966 259.562 89.91 259.176 89.5132 258.675C89.1164 258.173 88.7982 257.567 88.5586 256.855C88.3265 256.144 88.1655 255.343 88.0757 254.452V253.419C88.1655 252.521 88.3265 251.716 88.5586 251.004C88.7982 250.293 89.1164 249.687 89.5132 249.185C89.91 248.676 90.3966 248.29 90.9731 248.028C91.5496 247.759 92.2197 247.624 92.9834 247.624C93.7471 247.624 94.4246 247.774 95.0161 248.073C95.6076 248.365 96.1017 248.785 96.4985 249.331C96.9028 249.878 97.2098 250.533 97.4194 251.296C97.6291 252.053 97.7339 252.895 97.7339 253.823ZM95.645 254.059V253.823C95.645 253.217 95.5889 252.648 95.4766 252.116C95.3643 251.577 95.1846 251.105 94.9375 250.701C94.6904 250.289 94.3647 249.967 93.9604 249.735C93.5562 249.496 93.0583 249.376 92.4668 249.376C91.9427 249.376 91.486 249.466 91.0967 249.646C90.7148 249.825 90.3892 250.069 90.1196 250.375C89.8501 250.675 89.6292 251.019 89.457 251.409C89.2923 251.791 89.1688 252.187 89.0864 252.599V255.306C89.2062 255.83 89.4009 256.335 89.6704 256.822C89.9474 257.301 90.3143 257.694 90.771 258.001C91.2352 258.308 91.8079 258.461 92.4893 258.461C93.0508 258.461 93.5299 258.349 93.9268 258.125C94.3311 257.892 94.6567 257.574 94.9038 257.17C95.1584 256.766 95.3455 256.298 95.4653 255.766C95.5851 255.235 95.645 254.666 95.645 254.059ZM105.404 260.225C104.558 260.225 103.791 260.082 103.102 259.798C102.421 259.506 101.833 259.098 101.339 258.574C100.852 258.05 100.478 257.428 100.216 256.709C99.9538 255.991 99.8228 255.205 99.8228 254.351V253.879C99.8228 252.891 99.9688 252.011 100.261 251.24C100.553 250.462 100.95 249.803 101.451 249.264C101.953 248.725 102.522 248.317 103.158 248.04C103.795 247.763 104.453 247.624 105.135 247.624C106.003 247.624 106.752 247.774 107.381 248.073C108.017 248.373 108.538 248.792 108.942 249.331C109.346 249.863 109.646 250.492 109.84 251.218C110.035 251.937 110.132 252.723 110.132 253.576V254.508H101.058V252.812H108.055V252.655C108.025 252.116 107.912 251.592 107.718 251.083C107.531 250.574 107.231 250.155 106.819 249.825C106.408 249.496 105.846 249.331 105.135 249.331C104.663 249.331 104.229 249.432 103.832 249.634C103.435 249.829 103.095 250.121 102.81 250.51C102.526 250.9 102.305 251.375 102.147 251.937C101.99 252.498 101.912 253.146 101.912 253.879V254.351C101.912 254.928 101.99 255.47 102.147 255.979C102.312 256.481 102.548 256.923 102.855 257.305C103.169 257.687 103.548 257.986 103.989 258.203C104.438 258.42 104.948 258.529 105.517 258.529C106.25 258.529 106.872 258.379 107.381 258.08C107.89 257.78 108.335 257.38 108.717 256.878L109.975 257.877C109.713 258.274 109.38 258.652 108.976 259.012C108.571 259.371 108.073 259.663 107.482 259.888C106.898 260.112 106.205 260.225 105.404 260.225ZM114.636 249.758V260H112.558V247.849H114.58L114.636 249.758ZM118.432 247.781L118.42 249.713C118.248 249.675 118.083 249.653 117.926 249.646C117.777 249.631 117.604 249.623 117.41 249.623C116.931 249.623 116.507 249.698 116.141 249.848C115.774 249.997 115.463 250.207 115.208 250.477C114.954 250.746 114.752 251.068 114.602 251.442C114.46 251.809 114.366 252.214 114.321 252.655L113.737 252.992C113.737 252.258 113.808 251.57 113.951 250.926C114.1 250.282 114.329 249.713 114.636 249.219C114.943 248.717 115.332 248.328 115.804 248.051C116.283 247.766 116.852 247.624 117.511 247.624C117.66 247.624 117.833 247.643 118.027 247.68C118.222 247.71 118.357 247.744 118.432 247.781ZM122.43 250.443V260H120.352V247.849H122.317L122.43 250.443ZM121.936 253.464L121.071 253.43C121.078 252.599 121.202 251.832 121.441 251.128C121.681 250.417 122.018 249.799 122.452 249.275C122.886 248.751 123.403 248.347 124.002 248.062C124.608 247.77 125.278 247.624 126.012 247.624C126.611 247.624 127.15 247.706 127.629 247.871C128.109 248.028 128.517 248.283 128.854 248.635C129.198 248.987 129.46 249.443 129.64 250.005C129.819 250.559 129.909 251.236 129.909 252.038V260H127.82V252.015C127.82 251.379 127.727 250.87 127.54 250.488C127.352 250.098 127.079 249.818 126.72 249.646C126.36 249.466 125.919 249.376 125.395 249.376C124.878 249.376 124.406 249.485 123.979 249.702C123.56 249.919 123.197 250.218 122.89 250.6C122.591 250.982 122.355 251.42 122.183 251.914C122.018 252.401 121.936 252.917 121.936 253.464ZM138.107 260.225C137.261 260.225 136.494 260.082 135.805 259.798C135.124 259.506 134.536 259.098 134.042 258.574C133.555 258.05 133.181 257.428 132.919 256.709C132.657 255.991 132.526 255.205 132.526 254.351V253.879C132.526 252.891 132.672 252.011 132.964 251.24C133.256 250.462 133.653 249.803 134.154 249.264C134.656 248.725 135.225 248.317 135.861 248.04C136.498 247.763 137.157 247.624 137.838 247.624C138.706 247.624 139.455 247.774 140.084 248.073C140.72 248.373 141.241 248.792 141.645 249.331C142.049 249.863 142.349 250.492 142.543 251.218C142.738 251.937 142.835 252.723 142.835 253.576V254.508H133.761V252.812H140.758V252.655C140.728 252.116 140.616 251.592 140.421 251.083C140.234 250.574 139.934 250.155 139.522 249.825C139.111 249.496 138.549 249.331 137.838 249.331C137.366 249.331 136.932 249.432 136.535 249.634C136.138 249.829 135.798 250.121 135.513 250.51C135.229 250.9 135.008 251.375 134.851 251.937C134.693 252.498 134.615 253.146 134.615 253.879V254.351C134.615 254.928 134.693 255.47 134.851 255.979C135.015 256.481 135.251 256.923 135.558 257.305C135.873 257.687 136.251 257.986 136.692 258.203C137.142 258.42 137.651 258.529 138.22 258.529C138.953 258.529 139.575 258.379 140.084 258.08C140.593 257.78 141.039 257.38 141.42 256.878L142.678 257.877C142.416 258.274 142.083 258.652 141.679 259.012C141.274 259.371 140.777 259.663 140.185 259.888C139.601 260.112 138.909 260.225 138.107 260.225ZM150.349 247.849V249.443H143.779V247.849H150.349ZM146.002 244.895H148.08V256.99C148.08 257.402 148.144 257.713 148.271 257.922C148.398 258.132 148.563 258.271 148.765 258.338C148.967 258.405 149.184 258.439 149.417 258.439C149.589 258.439 149.768 258.424 149.956 258.394C150.15 258.357 150.296 258.327 150.394 258.304L150.405 260C150.24 260.052 150.023 260.101 149.753 260.146C149.491 260.198 149.173 260.225 148.799 260.225C148.29 260.225 147.822 260.124 147.395 259.921C146.968 259.719 146.628 259.382 146.373 258.911C146.126 258.431 146.002 257.788 146.002 256.979V244.895ZM157.828 260.225C156.982 260.225 156.215 260.082 155.526 259.798C154.845 259.506 154.257 259.098 153.763 258.574C153.276 258.05 152.902 257.428 152.64 256.709C152.378 255.991 152.247 255.205 152.247 254.351V253.879C152.247 252.891 152.393 252.011 152.685 251.24C152.977 250.462 153.373 249.803 153.875 249.264C154.377 248.725 154.946 248.317 155.582 248.04C156.218 247.763 156.877 247.624 157.559 247.624C158.427 247.624 159.176 247.774 159.805 248.073C160.441 248.373 160.961 248.792 161.366 249.331C161.77 249.863 162.069 250.492 162.264 251.218C162.459 251.937 162.556 252.723 162.556 253.576V254.508H153.482V252.812H160.479V252.655C160.449 252.116 160.336 251.592 160.142 251.083C159.954 250.574 159.655 250.155 159.243 249.825C158.831 249.496 158.27 249.331 157.559 249.331C157.087 249.331 156.653 249.432 156.256 249.634C155.859 249.829 155.518 250.121 155.234 250.51C154.949 250.9 154.729 251.375 154.571 251.937C154.414 252.498 154.335 253.146 154.335 253.879V254.351C154.335 254.928 154.414 255.47 154.571 255.979C154.736 256.481 154.972 256.923 155.279 257.305C155.593 257.687 155.971 257.986 156.413 258.203C156.862 258.42 157.371 258.529 157.94 258.529C158.674 258.529 159.296 258.379 159.805 258.08C160.314 257.78 160.759 257.38 161.141 256.878L162.399 257.877C162.137 258.274 161.804 258.652 161.399 259.012C160.995 259.371 160.497 259.663 159.906 259.888C159.322 260.112 158.629 260.225 157.828 260.225ZM172.057 256.777C172.057 256.477 171.99 256.2 171.855 255.946C171.728 255.684 171.462 255.448 171.058 255.238C170.661 255.021 170.062 254.834 169.261 254.677C168.587 254.535 167.977 254.366 167.43 254.171C166.891 253.977 166.431 253.741 166.049 253.464C165.674 253.187 165.386 252.861 165.184 252.487C164.982 252.112 164.881 251.674 164.881 251.173C164.881 250.694 164.986 250.241 165.195 249.814C165.412 249.387 165.716 249.009 166.105 248.68C166.502 248.35 166.977 248.092 167.531 247.905C168.085 247.718 168.703 247.624 169.384 247.624C170.358 247.624 171.189 247.796 171.877 248.141C172.566 248.485 173.094 248.945 173.461 249.522C173.828 250.091 174.011 250.724 174.011 251.42H171.934C171.934 251.083 171.833 250.757 171.63 250.443C171.436 250.121 171.147 249.855 170.766 249.646C170.391 249.436 169.931 249.331 169.384 249.331C168.808 249.331 168.34 249.421 167.98 249.601C167.629 249.773 167.37 249.994 167.206 250.263C167.048 250.533 166.97 250.817 166.97 251.117C166.97 251.341 167.007 251.543 167.082 251.723C167.164 251.895 167.307 252.056 167.509 252.206C167.711 252.348 167.995 252.483 168.362 252.61C168.729 252.738 169.197 252.865 169.766 252.992C170.762 253.217 171.582 253.486 172.226 253.801C172.869 254.115 173.349 254.501 173.663 254.958C173.978 255.414 174.135 255.968 174.135 256.62C174.135 257.151 174.022 257.638 173.798 258.08C173.581 258.521 173.263 258.903 172.843 259.225C172.431 259.54 171.937 259.787 171.361 259.966C170.792 260.139 170.152 260.225 169.44 260.225C168.37 260.225 167.464 260.034 166.723 259.652C165.981 259.27 165.42 258.776 165.038 258.169C164.656 257.563 164.465 256.923 164.465 256.249H166.554C166.584 256.818 166.749 257.271 167.048 257.608C167.348 257.937 167.715 258.173 168.149 258.315C168.583 258.45 169.014 258.518 169.44 258.518C170.009 258.518 170.485 258.443 170.867 258.293C171.256 258.143 171.552 257.937 171.754 257.675C171.956 257.413 172.057 257.114 172.057 256.777ZM191.598 255.867C191.598 255.485 191.538 255.148 191.418 254.856C191.306 254.557 191.104 254.287 190.812 254.048C190.528 253.808 190.131 253.58 189.622 253.363C189.12 253.146 188.484 252.925 187.712 252.7C186.904 252.461 186.174 252.195 185.522 251.903C184.871 251.603 184.313 251.263 183.849 250.881C183.385 250.499 183.029 250.061 182.782 249.567C182.535 249.073 182.412 248.507 182.412 247.871C182.412 247.235 182.543 246.647 182.805 246.108C183.067 245.569 183.441 245.101 183.928 244.704C184.422 244.3 185.01 243.985 185.691 243.761C186.372 243.536 187.132 243.424 187.971 243.424C189.199 243.424 190.239 243.66 191.093 244.131C191.954 244.596 192.609 245.206 193.058 245.962C193.507 246.711 193.732 247.512 193.732 248.365H191.576C191.576 247.751 191.445 247.208 191.183 246.737C190.921 246.258 190.524 245.883 189.992 245.614C189.461 245.337 188.787 245.198 187.971 245.198C187.2 245.198 186.563 245.314 186.062 245.546C185.56 245.778 185.186 246.093 184.938 246.49C184.699 246.887 184.579 247.34 184.579 247.849C184.579 248.193 184.65 248.507 184.792 248.792C184.942 249.069 185.171 249.327 185.478 249.567C185.792 249.806 186.189 250.027 186.668 250.229C187.155 250.432 187.735 250.626 188.409 250.813C189.337 251.076 190.138 251.368 190.812 251.689C191.486 252.011 192.04 252.375 192.474 252.779C192.916 253.176 193.242 253.629 193.451 254.138C193.668 254.639 193.777 255.208 193.777 255.845C193.777 256.511 193.642 257.114 193.373 257.653C193.103 258.192 192.717 258.652 192.216 259.034C191.714 259.416 191.111 259.712 190.408 259.921C189.711 260.124 188.933 260.225 188.072 260.225C187.316 260.225 186.571 260.12 185.837 259.91C185.111 259.701 184.448 259.386 183.849 258.967C183.258 258.548 182.782 258.031 182.423 257.417C182.071 256.796 181.895 256.077 181.895 255.261H184.051C184.051 255.822 184.16 256.305 184.377 256.709C184.594 257.106 184.89 257.436 185.264 257.698C185.646 257.96 186.076 258.154 186.556 258.282C187.042 258.402 187.548 258.461 188.072 258.461C188.828 258.461 189.468 258.357 189.992 258.147C190.516 257.937 190.913 257.638 191.183 257.249C191.46 256.859 191.598 256.399 191.598 255.867ZM201.268 260.225C200.422 260.225 199.654 260.082 198.965 259.798C198.284 259.506 197.696 259.098 197.202 258.574C196.715 258.05 196.341 257.428 196.079 256.709C195.817 255.991 195.686 255.205 195.686 254.351V253.879C195.686 252.891 195.832 252.011 196.124 251.24C196.416 250.462 196.813 249.803 197.314 249.264C197.816 248.725 198.385 248.317 199.021 248.04C199.658 247.763 200.317 247.624 200.998 247.624C201.867 247.624 202.615 247.774 203.244 248.073C203.881 248.373 204.401 248.792 204.805 249.331C205.209 249.863 205.509 250.492 205.704 251.218C205.898 251.937 205.996 252.723 205.996 253.576V254.508H196.921V252.812H203.918V252.655C203.888 252.116 203.776 251.592 203.581 251.083C203.394 250.574 203.094 250.155 202.683 249.825C202.271 249.496 201.709 249.331 200.998 249.331C200.526 249.331 200.092 249.432 199.695 249.634C199.299 249.829 198.958 250.121 198.673 250.51C198.389 250.9 198.168 251.375 198.011 251.937C197.854 252.498 197.775 253.146 197.775 253.879V254.351C197.775 254.928 197.854 255.47 198.011 255.979C198.175 256.481 198.411 256.923 198.718 257.305C199.033 257.687 199.411 257.986 199.853 258.203C200.302 258.42 200.811 258.529 201.38 258.529C202.114 258.529 202.735 258.379 203.244 258.08C203.753 257.78 204.199 257.38 204.581 256.878L205.838 257.877C205.576 258.274 205.243 258.652 204.839 259.012C204.435 259.371 203.937 259.663 203.345 259.888C202.761 260.112 202.069 260.225 201.268 260.225ZM210.499 249.758V260H208.421V247.849H210.443L210.499 249.758ZM214.295 247.781L214.284 249.713C214.111 249.675 213.947 249.653 213.79 249.646C213.64 249.631 213.468 249.623 213.273 249.623C212.794 249.623 212.371 249.698 212.004 249.848C211.637 249.997 211.326 250.207 211.072 250.477C210.817 250.746 210.615 251.068 210.465 251.442C210.323 251.809 210.229 252.214 210.185 252.655L209.601 252.992C209.601 252.258 209.672 251.57 209.814 250.926C209.964 250.282 210.192 249.713 210.499 249.219C210.806 248.717 211.195 248.328 211.667 248.051C212.146 247.766 212.715 247.624 213.374 247.624C213.524 247.624 213.696 247.643 213.891 247.68C214.085 247.71 214.22 247.744 214.295 247.781ZM220.112 258.125L223.437 247.849H225.559L221.19 260H219.798L220.112 258.125ZM217.338 247.849L220.764 258.181L221 260H219.607L215.205 247.849H217.338ZM229.815 247.849V260H227.727V247.849H229.815ZM227.569 244.625C227.569 244.289 227.67 244.004 227.873 243.772C228.082 243.54 228.389 243.424 228.793 243.424C229.19 243.424 229.493 243.54 229.703 243.772C229.92 244.004 230.029 244.289 230.029 244.625C230.029 244.947 229.92 245.224 229.703 245.457C229.493 245.681 229.19 245.793 228.793 245.793C228.389 245.793 228.082 245.681 227.873 245.457C227.67 245.224 227.569 244.947 227.569 244.625ZM238.014 258.518C238.508 258.518 238.965 258.417 239.384 258.214C239.803 258.012 240.147 257.735 240.417 257.383C240.687 257.024 240.84 256.616 240.877 256.159H242.854C242.817 256.878 242.573 257.548 242.124 258.169C241.682 258.783 241.102 259.281 240.383 259.663C239.665 260.037 238.875 260.225 238.014 260.225C237.1 260.225 236.303 260.064 235.622 259.742C234.948 259.42 234.386 258.978 233.937 258.417C233.495 257.855 233.162 257.211 232.938 256.485C232.72 255.751 232.612 254.976 232.612 254.16V253.688C232.612 252.872 232.72 252.101 232.938 251.375C233.162 250.641 233.495 249.994 233.937 249.432C234.386 248.871 234.948 248.429 235.622 248.107C236.303 247.785 237.1 247.624 238.014 247.624C238.965 247.624 239.796 247.819 240.507 248.208C241.218 248.59 241.776 249.114 242.18 249.78C242.592 250.439 242.817 251.188 242.854 252.026H240.877C240.84 251.525 240.698 251.072 240.451 250.667C240.211 250.263 239.882 249.941 239.462 249.702C239.051 249.455 238.568 249.331 238.014 249.331C237.377 249.331 236.842 249.458 236.408 249.713C235.981 249.96 235.64 250.297 235.386 250.724C235.139 251.143 234.959 251.611 234.847 252.127C234.742 252.637 234.689 253.157 234.689 253.688V254.16C234.689 254.692 234.742 255.216 234.847 255.732C234.951 256.249 235.127 256.717 235.375 257.136C235.629 257.556 235.97 257.892 236.396 258.147C236.831 258.394 237.37 258.518 238.014 258.518ZM250.232 260.225C249.386 260.225 248.619 260.082 247.93 259.798C247.249 259.506 246.661 259.098 246.167 258.574C245.68 258.05 245.306 257.428 245.044 256.709C244.782 255.991 244.651 255.205 244.651 254.351V253.879C244.651 252.891 244.797 252.011 245.089 251.24C245.381 250.462 245.778 249.803 246.279 249.264C246.781 248.725 247.35 248.317 247.986 248.04C248.623 247.763 249.282 247.624 249.963 247.624C250.831 247.624 251.58 247.774 252.209 248.073C252.845 248.373 253.366 248.792 253.77 249.331C254.174 249.863 254.474 250.492 254.668 251.218C254.863 251.937 254.96 252.723 254.96 253.576V254.508H245.886V252.812H252.883V252.655C252.853 252.116 252.741 251.592 252.546 251.083C252.359 250.574 252.059 250.155 251.647 249.825C251.236 249.496 250.674 249.331 249.963 249.331C249.491 249.331 249.057 249.432 248.66 249.634C248.263 249.829 247.923 250.121 247.638 250.51C247.354 250.9 247.133 251.375 246.976 251.937C246.818 252.498 246.74 253.146 246.74 253.879V254.351C246.74 254.928 246.818 255.47 246.976 255.979C247.14 256.481 247.376 256.923 247.683 257.305C247.998 257.687 248.376 257.986 248.817 258.203C249.267 258.42 249.776 258.529 250.345 258.529C251.078 258.529 251.7 258.379 252.209 258.08C252.718 257.78 253.164 257.38 253.545 256.878L254.803 257.877C254.541 258.274 254.208 258.652 253.804 259.012C253.399 259.371 252.902 259.663 252.31 259.888C251.726 260.112 251.034 260.225 250.232 260.225Z"
    fill="currentColor" />
  <path
    d="M353.065 243.648V260H350.898V243.648H353.065ZM362.937 243.648L356.143 251.274L352.324 255.238L351.965 252.925L354.84 249.758L360.332 243.648H362.937ZM360.848 260L354.795 252.026L356.086 250.308L363.431 260H360.848ZM372.191 257.192V247.849H374.28V260H372.292L372.191 257.192ZM372.584 254.632L373.449 254.609C373.449 255.418 373.363 256.167 373.19 256.855C373.026 257.537 372.756 258.128 372.382 258.63C372.007 259.132 371.517 259.525 370.911 259.809C370.304 260.086 369.567 260.225 368.698 260.225C368.107 260.225 367.564 260.139 367.07 259.966C366.583 259.794 366.164 259.528 365.812 259.169C365.46 258.81 365.187 258.342 364.992 257.765C364.805 257.189 364.711 256.496 364.711 255.688V247.849H366.789V255.71C366.789 256.257 366.849 256.709 366.969 257.069C367.096 257.421 367.264 257.701 367.474 257.911C367.691 258.113 367.931 258.256 368.193 258.338C368.462 258.42 368.739 258.461 369.024 258.461C369.907 258.461 370.607 258.293 371.124 257.956C371.641 257.612 372.011 257.151 372.236 256.575C372.468 255.991 372.584 255.343 372.584 254.632ZM377.436 242.75H379.524V257.642L379.345 260H377.436V242.75ZM387.734 253.823V254.059C387.734 254.943 387.629 255.762 387.419 256.519C387.21 257.267 386.903 257.919 386.499 258.473C386.094 259.027 385.6 259.457 385.016 259.764C384.432 260.071 383.762 260.225 383.006 260.225C382.235 260.225 381.557 260.094 380.973 259.832C380.397 259.562 379.91 259.176 379.513 258.675C379.116 258.173 378.798 257.567 378.559 256.855C378.326 256.144 378.166 255.343 378.076 254.452V253.419C378.166 252.521 378.326 251.716 378.559 251.004C378.798 250.293 379.116 249.687 379.513 249.185C379.91 248.676 380.397 248.29 380.973 248.028C381.55 247.759 382.22 247.624 382.983 247.624C383.747 247.624 384.425 247.774 385.016 248.073C385.608 248.365 386.102 248.785 386.499 249.331C386.903 249.878 387.21 250.533 387.419 251.296C387.629 252.053 387.734 252.895 387.734 253.823ZM385.645 254.059V253.823C385.645 253.217 385.589 252.648 385.477 252.116C385.364 251.577 385.185 251.105 384.938 250.701C384.69 250.289 384.365 249.967 383.96 249.735C383.556 249.496 383.058 249.376 382.467 249.376C381.943 249.376 381.486 249.466 381.097 249.646C380.715 249.825 380.389 250.069 380.12 250.375C379.85 250.675 379.629 251.019 379.457 251.409C379.292 251.791 379.169 252.187 379.086 252.599V255.306C379.206 255.83 379.401 256.335 379.67 256.822C379.947 257.301 380.314 257.694 380.771 258.001C381.235 258.308 381.808 258.461 382.489 258.461C383.051 258.461 383.53 258.349 383.927 258.125C384.331 257.892 384.657 257.574 384.904 257.17C385.158 256.766 385.346 256.298 385.465 255.766C385.585 255.235 385.645 254.666 385.645 254.059ZM395.404 260.225C394.558 260.225 393.791 260.082 393.102 259.798C392.421 259.506 391.833 259.098 391.339 258.574C390.852 258.05 390.478 257.428 390.216 256.709C389.954 255.991 389.823 255.205 389.823 254.351V253.879C389.823 252.891 389.969 252.011 390.261 251.24C390.553 250.462 390.95 249.803 391.451 249.264C391.953 248.725 392.522 248.317 393.158 248.04C393.795 247.763 394.453 247.624 395.135 247.624C396.003 247.624 396.752 247.774 397.381 248.073C398.017 248.373 398.538 248.792 398.942 249.331C399.346 249.863 399.646 250.492 399.84 251.218C400.035 251.937 400.132 252.723 400.132 253.576V254.508H391.058V252.812H398.055V252.655C398.025 252.116 397.912 251.592 397.718 251.083C397.531 250.574 397.231 250.155 396.819 249.825C396.408 249.496 395.846 249.331 395.135 249.331C394.663 249.331 394.229 249.432 393.832 249.634C393.435 249.829 393.095 250.121 392.81 250.51C392.526 250.9 392.305 251.375 392.147 251.937C391.99 252.498 391.912 253.146 391.912 253.879V254.351C391.912 254.928 391.99 255.47 392.147 255.979C392.312 256.481 392.548 256.923 392.855 257.305C393.169 257.687 393.548 257.986 393.989 258.203C394.438 258.42 394.948 258.529 395.517 258.529C396.25 258.529 396.872 258.379 397.381 258.08C397.89 257.78 398.335 257.38 398.717 256.878L399.975 257.877C399.713 258.274 399.38 258.652 398.976 259.012C398.571 259.371 398.073 259.663 397.482 259.888C396.898 260.112 396.205 260.225 395.404 260.225ZM404.636 249.758V260H402.558V247.849H404.58L404.636 249.758ZM408.432 247.781L408.42 249.713C408.248 249.675 408.083 249.653 407.926 249.646C407.777 249.631 407.604 249.623 407.41 249.623C406.931 249.623 406.507 249.698 406.141 249.848C405.774 249.997 405.463 250.207 405.208 250.477C404.954 250.746 404.752 251.068 404.602 251.442C404.46 251.809 404.366 252.214 404.321 252.655L403.737 252.992C403.737 252.258 403.808 251.57 403.951 250.926C404.1 250.282 404.329 249.713 404.636 249.219C404.943 248.717 405.332 248.328 405.804 248.051C406.283 247.766 406.852 247.624 407.511 247.624C407.66 247.624 407.833 247.643 408.027 247.68C408.222 247.71 408.357 247.744 408.432 247.781ZM412.43 250.443V260H410.352V247.849H412.317L412.43 250.443ZM411.936 253.464L411.071 253.43C411.078 252.599 411.202 251.832 411.441 251.128C411.681 250.417 412.018 249.799 412.452 249.275C412.886 248.751 413.403 248.347 414.002 248.062C414.608 247.77 415.278 247.624 416.012 247.624C416.611 247.624 417.15 247.706 417.629 247.871C418.109 248.028 418.517 248.283 418.854 248.635C419.198 248.987 419.46 249.443 419.64 250.005C419.819 250.559 419.909 251.236 419.909 252.038V260H417.82V252.015C417.82 251.379 417.727 250.87 417.54 250.488C417.352 250.098 417.079 249.818 416.72 249.646C416.36 249.466 415.919 249.376 415.395 249.376C414.878 249.376 414.406 249.485 413.979 249.702C413.56 249.919 413.197 250.218 412.89 250.6C412.591 250.982 412.355 251.42 412.183 251.914C412.018 252.401 411.936 252.917 411.936 253.464ZM428.107 260.225C427.261 260.225 426.494 260.082 425.805 259.798C425.124 259.506 424.536 259.098 424.042 258.574C423.555 258.05 423.181 257.428 422.919 256.709C422.657 255.991 422.526 255.205 422.526 254.351V253.879C422.526 252.891 422.672 252.011 422.964 251.24C423.256 250.462 423.653 249.803 424.154 249.264C424.656 248.725 425.225 248.317 425.861 248.04C426.498 247.763 427.157 247.624 427.838 247.624C428.706 247.624 429.455 247.774 430.084 248.073C430.72 248.373 431.241 248.792 431.645 249.331C432.049 249.863 432.349 250.492 432.543 251.218C432.738 251.937 432.835 252.723 432.835 253.576V254.508H423.761V252.812H430.758V252.655C430.728 252.116 430.616 251.592 430.421 251.083C430.234 250.574 429.934 250.155 429.522 249.825C429.111 249.496 428.549 249.331 427.838 249.331C427.366 249.331 426.932 249.432 426.535 249.634C426.138 249.829 425.798 250.121 425.513 250.51C425.229 250.9 425.008 251.375 424.851 251.937C424.693 252.498 424.615 253.146 424.615 253.879V254.351C424.615 254.928 424.693 255.47 424.851 255.979C425.015 256.481 425.251 256.923 425.558 257.305C425.873 257.687 426.251 257.986 426.692 258.203C427.142 258.42 427.651 258.529 428.22 258.529C428.953 258.529 429.575 258.379 430.084 258.08C430.593 257.78 431.039 257.38 431.42 256.878L432.678 257.877C432.416 258.274 432.083 258.652 431.679 259.012C431.274 259.371 430.777 259.663 430.185 259.888C429.601 260.112 428.909 260.225 428.107 260.225ZM440.349 247.849V249.443H433.779V247.849H440.349ZM436.002 244.895H438.08V256.99C438.08 257.402 438.144 257.713 438.271 257.922C438.398 258.132 438.563 258.271 438.765 258.338C438.967 258.405 439.184 258.439 439.417 258.439C439.589 258.439 439.768 258.424 439.956 258.394C440.15 258.357 440.296 258.327 440.394 258.304L440.405 260C440.24 260.052 440.023 260.101 439.753 260.146C439.491 260.198 439.173 260.225 438.799 260.225C438.29 260.225 437.822 260.124 437.395 259.921C436.968 259.719 436.628 259.382 436.373 258.911C436.126 258.431 436.002 257.788 436.002 256.979V244.895ZM447.828 260.225C446.982 260.225 446.215 260.082 445.526 259.798C444.845 259.506 444.257 259.098 443.763 258.574C443.276 258.05 442.902 257.428 442.64 256.709C442.378 255.991 442.247 255.205 442.247 254.351V253.879C442.247 252.891 442.393 252.011 442.685 251.24C442.977 250.462 443.373 249.803 443.875 249.264C444.377 248.725 444.946 248.317 445.582 248.04C446.218 247.763 446.877 247.624 447.559 247.624C448.427 247.624 449.176 247.774 449.805 248.073C450.441 248.373 450.961 248.792 451.366 249.331C451.77 249.863 452.069 250.492 452.264 251.218C452.459 251.937 452.556 252.723 452.556 253.576V254.508H443.482V252.812H450.479V252.655C450.449 252.116 450.336 251.592 450.142 251.083C449.954 250.574 449.655 250.155 449.243 249.825C448.831 249.496 448.27 249.331 447.559 249.331C447.087 249.331 446.653 249.432 446.256 249.634C445.859 249.829 445.518 250.121 445.234 250.51C444.949 250.9 444.729 251.375 444.571 251.937C444.414 252.498 444.335 253.146 444.335 253.879V254.351C444.335 254.928 444.414 255.47 444.571 255.979C444.736 256.481 444.972 256.923 445.279 257.305C445.593 257.687 445.971 257.986 446.413 258.203C446.862 258.42 447.371 258.529 447.94 258.529C448.674 258.529 449.296 258.379 449.805 258.08C450.314 257.78 450.759 257.38 451.141 256.878L452.399 257.877C452.137 258.274 451.804 258.652 451.399 259.012C450.995 259.371 450.497 259.663 449.906 259.888C449.322 260.112 448.629 260.225 447.828 260.225ZM462.057 256.777C462.057 256.477 461.99 256.2 461.855 255.946C461.728 255.684 461.462 255.448 461.058 255.238C460.661 255.021 460.062 254.834 459.261 254.677C458.587 254.535 457.977 254.366 457.43 254.171C456.891 253.977 456.431 253.741 456.049 253.464C455.674 253.187 455.386 252.861 455.184 252.487C454.982 252.112 454.881 251.674 454.881 251.173C454.881 250.694 454.986 250.241 455.195 249.814C455.412 249.387 455.716 249.009 456.105 248.68C456.502 248.35 456.977 248.092 457.531 247.905C458.085 247.718 458.703 247.624 459.384 247.624C460.358 247.624 461.189 247.796 461.877 248.141C462.566 248.485 463.094 248.945 463.461 249.522C463.828 250.091 464.011 250.724 464.011 251.42H461.934C461.934 251.083 461.833 250.757 461.63 250.443C461.436 250.121 461.147 249.855 460.766 249.646C460.391 249.436 459.931 249.331 459.384 249.331C458.808 249.331 458.34 249.421 457.98 249.601C457.629 249.773 457.37 249.994 457.206 250.263C457.048 250.533 456.97 250.817 456.97 251.117C456.97 251.341 457.007 251.543 457.082 251.723C457.164 251.895 457.307 252.056 457.509 252.206C457.711 252.348 457.995 252.483 458.362 252.61C458.729 252.738 459.197 252.865 459.766 252.992C460.762 253.217 461.582 253.486 462.226 253.801C462.869 254.115 463.349 254.501 463.663 254.958C463.978 255.414 464.135 255.968 464.135 256.62C464.135 257.151 464.022 257.638 463.798 258.08C463.581 258.521 463.263 258.903 462.843 259.225C462.431 259.54 461.937 259.787 461.361 259.966C460.792 260.139 460.152 260.225 459.44 260.225C458.37 260.225 457.464 260.034 456.723 259.652C455.981 259.27 455.42 258.776 455.038 258.169C454.656 257.563 454.465 256.923 454.465 256.249H456.554C456.584 256.818 456.749 257.271 457.048 257.608C457.348 257.937 457.715 258.173 458.149 258.315C458.583 258.45 459.014 258.518 459.44 258.518C460.009 258.518 460.485 258.443 460.867 258.293C461.256 258.143 461.552 257.937 461.754 257.675C461.956 257.413 462.057 257.114 462.057 256.777ZM477.308 260H473.894L473.917 258.237H477.308C478.476 258.237 479.449 257.993 480.228 257.507C481.007 257.013 481.591 256.324 481.98 255.44C482.377 254.549 482.575 253.509 482.575 252.318V251.319C482.575 250.383 482.463 249.552 482.238 248.826C482.014 248.092 481.684 247.474 481.25 246.973C480.816 246.464 480.284 246.078 479.655 245.816C479.034 245.554 478.319 245.423 477.51 245.423H473.827V243.648H477.51C478.581 243.648 479.558 243.828 480.441 244.188C481.325 244.539 482.085 245.052 482.721 245.726C483.365 246.392 483.859 247.201 484.204 248.152C484.548 249.095 484.72 250.158 484.72 251.341V252.318C484.72 253.501 484.548 254.568 484.204 255.519C483.859 256.462 483.361 257.267 482.71 257.934C482.066 258.6 481.287 259.113 480.374 259.472C479.468 259.824 478.446 260 477.308 260ZM475.051 243.648V260H472.883V243.648H475.051ZM492.705 260.225C491.859 260.225 491.092 260.082 490.403 259.798C489.722 259.506 489.134 259.098 488.64 258.574C488.153 258.05 487.779 257.428 487.517 256.709C487.255 255.991 487.124 255.205 487.124 254.351V253.879C487.124 252.891 487.27 252.011 487.562 251.24C487.854 250.462 488.25 249.803 488.752 249.264C489.254 248.725 489.823 248.317 490.459 248.04C491.095 247.763 491.754 247.624 492.436 247.624C493.304 247.624 494.053 247.774 494.682 248.073C495.318 248.373 495.838 248.792 496.243 249.331C496.647 249.863 496.946 250.492 497.141 251.218C497.336 251.937 497.433 252.723 497.433 253.576V254.508H488.359V252.812H495.355V252.655C495.326 252.116 495.213 251.592 495.019 251.083C494.831 250.574 494.532 250.155 494.12 249.825C493.708 249.496 493.147 249.331 492.436 249.331C491.964 249.331 491.53 249.432 491.133 249.634C490.736 249.829 490.395 250.121 490.111 250.51C489.826 250.9 489.605 251.375 489.448 251.937C489.291 252.498 489.212 253.146 489.212 253.879V254.351C489.212 254.928 489.291 255.47 489.448 255.979C489.613 256.481 489.849 256.923 490.156 257.305C490.47 257.687 490.848 257.986 491.29 258.203C491.739 258.42 492.248 258.529 492.817 258.529C493.551 258.529 494.173 258.379 494.682 258.08C495.191 257.78 495.636 257.38 496.018 256.878L497.276 257.877C497.014 258.274 496.681 258.652 496.276 259.012C495.872 259.371 495.374 259.663 494.783 259.888C494.199 260.112 493.506 260.225 492.705 260.225ZM501.937 250.185V264.672H499.848V247.849H501.757L501.937 250.185ZM510.124 253.823V254.059C510.124 254.943 510.019 255.762 509.809 256.519C509.599 257.267 509.292 257.919 508.888 258.473C508.491 259.027 508.001 259.457 507.417 259.764C506.833 260.071 506.163 260.225 505.407 260.225C504.636 260.225 503.954 260.097 503.363 259.843C502.771 259.588 502.27 259.218 501.858 258.731C501.446 258.244 501.117 257.66 500.87 256.979C500.63 256.298 500.465 255.53 500.375 254.677V253.419C500.465 252.521 500.634 251.716 500.881 251.004C501.128 250.293 501.454 249.687 501.858 249.185C502.27 248.676 502.768 248.29 503.352 248.028C503.936 247.759 504.609 247.624 505.373 247.624C506.137 247.624 506.814 247.774 507.406 248.073C507.997 248.365 508.495 248.785 508.899 249.331C509.304 249.878 509.607 250.533 509.809 251.296C510.019 252.053 510.124 252.895 510.124 253.823ZM508.035 254.059V253.823C508.035 253.217 507.971 252.648 507.844 252.116C507.716 251.577 507.518 251.105 507.249 250.701C506.986 250.289 506.65 249.967 506.238 249.735C505.826 249.496 505.336 249.376 504.767 249.376C504.243 249.376 503.786 249.466 503.396 249.646C503.015 249.825 502.689 250.069 502.419 250.375C502.15 250.675 501.929 251.019 501.757 251.409C501.592 251.791 501.469 252.187 501.386 252.599V255.508C501.536 256.032 501.746 256.526 502.015 256.99C502.285 257.447 502.644 257.818 503.093 258.102C503.542 258.379 504.108 258.518 504.789 258.518C505.351 258.518 505.833 258.402 506.238 258.169C506.65 257.93 506.986 257.604 507.249 257.192C507.518 256.781 507.716 256.309 507.844 255.777C507.971 255.238 508.035 254.666 508.035 254.059ZM515.031 242.75V260H512.942V242.75H515.031ZM517.816 254.059V253.801C517.816 252.925 517.944 252.112 518.198 251.364C518.453 250.608 518.82 249.952 519.299 249.398C519.778 248.837 520.358 248.403 521.04 248.096C521.721 247.781 522.485 247.624 523.331 247.624C524.184 247.624 524.951 247.781 525.633 248.096C526.322 248.403 526.906 248.837 527.385 249.398C527.871 249.952 528.242 250.608 528.497 251.364C528.751 252.112 528.878 252.925 528.878 253.801V254.059C528.878 254.935 528.751 255.747 528.497 256.496C528.242 257.245 527.871 257.9 527.385 258.461C526.906 259.015 526.325 259.45 525.644 259.764C524.97 260.071 524.207 260.225 523.353 260.225C522.5 260.225 521.732 260.071 521.051 259.764C520.369 259.45 519.785 259.015 519.299 258.461C518.82 257.9 518.453 257.245 518.198 256.496C517.944 255.747 517.816 254.935 517.816 254.059ZM519.894 253.801V254.059C519.894 254.666 519.965 255.238 520.107 255.777C520.25 256.309 520.463 256.781 520.748 257.192C521.04 257.604 521.403 257.93 521.837 258.169C522.271 258.402 522.777 258.518 523.353 258.518C523.922 258.518 524.42 258.402 524.847 258.169C525.281 257.93 525.64 257.604 525.925 257.192C526.209 256.781 526.423 256.309 526.565 255.777C526.715 255.238 526.79 254.666 526.79 254.059V253.801C526.79 253.202 526.715 252.637 526.565 252.105C526.423 251.566 526.206 251.09 525.914 250.679C525.629 250.259 525.27 249.93 524.835 249.69C524.409 249.451 523.907 249.331 523.331 249.331C522.762 249.331 522.26 249.451 521.826 249.69C521.399 249.93 521.04 250.259 520.748 250.679C520.463 251.09 520.25 251.566 520.107 252.105C519.965 252.637 519.894 253.202 519.894 253.801ZM534.718 258.742L538.099 247.849H540.322L535.448 261.875C535.336 262.175 535.186 262.497 534.999 262.841C534.819 263.193 534.587 263.526 534.303 263.841C534.018 264.155 533.674 264.41 533.27 264.604C532.873 264.807 532.397 264.908 531.843 264.908C531.679 264.908 531.469 264.885 531.214 264.84C530.96 264.795 530.78 264.758 530.675 264.728L530.664 263.043C530.724 263.051 530.818 263.058 530.945 263.066C531.08 263.081 531.173 263.088 531.226 263.088C531.697 263.088 532.098 263.025 532.427 262.897C532.757 262.778 533.034 262.572 533.258 262.28C533.49 261.995 533.689 261.602 533.854 261.101L534.718 258.742ZM532.236 247.849L535.392 257.282L535.931 259.472L534.438 260.236L529.968 247.849H532.236ZM544.264 250.263V260H542.175V247.849H544.152L544.264 250.263ZM543.837 253.464L542.872 253.43C542.879 252.599 542.988 251.832 543.197 251.128C543.407 250.417 543.718 249.799 544.129 249.275C544.541 248.751 545.054 248.347 545.668 248.062C546.282 247.77 546.993 247.624 547.802 247.624C548.371 247.624 548.895 247.706 549.374 247.871C549.853 248.028 550.269 248.279 550.621 248.624C550.972 248.968 551.246 249.41 551.44 249.949C551.635 250.488 551.732 251.139 551.732 251.903V260H549.655V252.004C549.655 251.368 549.546 250.858 549.329 250.477C549.119 250.095 548.82 249.818 548.431 249.646C548.041 249.466 547.585 249.376 547.061 249.376C546.447 249.376 545.934 249.485 545.522 249.702C545.11 249.919 544.781 250.218 544.534 250.6C544.287 250.982 544.107 251.42 543.995 251.914C543.89 252.401 543.837 252.917 543.837 253.464ZM551.71 252.318L550.317 252.745C550.325 252.079 550.433 251.439 550.643 250.825C550.86 250.211 551.171 249.664 551.575 249.185C551.987 248.706 552.492 248.328 553.091 248.051C553.69 247.766 554.375 247.624 555.146 247.624C555.798 247.624 556.374 247.71 556.876 247.882C557.385 248.055 557.812 248.32 558.156 248.68C558.508 249.032 558.774 249.485 558.954 250.039C559.133 250.593 559.223 251.251 559.223 252.015V260H557.134V251.993C557.134 251.311 557.026 250.784 556.809 250.409C556.599 250.027 556.299 249.762 555.91 249.612C555.528 249.455 555.072 249.376 554.54 249.376C554.083 249.376 553.679 249.455 553.327 249.612C552.975 249.769 552.68 249.986 552.44 250.263C552.2 250.533 552.017 250.843 551.89 251.195C551.77 251.547 551.71 251.922 551.71 252.318ZM567.41 260.225C566.564 260.225 565.797 260.082 565.108 259.798C564.427 259.506 563.839 259.098 563.345 258.574C562.858 258.05 562.484 257.428 562.222 256.709C561.96 255.991 561.829 255.205 561.829 254.351V253.879C561.829 252.891 561.975 252.011 562.267 251.24C562.559 250.462 562.955 249.803 563.457 249.264C563.959 248.725 564.528 248.317 565.164 248.04C565.8 247.763 566.459 247.624 567.141 247.624C568.009 247.624 568.758 247.774 569.387 248.073C570.023 248.373 570.543 248.792 570.948 249.331C571.352 249.863 571.652 250.492 571.846 251.218C572.041 251.937 572.138 252.723 572.138 253.576V254.508H563.064V252.812H570.061V252.655C570.031 252.116 569.918 251.592 569.724 251.083C569.536 250.574 569.237 250.155 568.825 249.825C568.413 249.496 567.852 249.331 567.141 249.331C566.669 249.331 566.235 249.432 565.838 249.634C565.441 249.829 565.1 250.121 564.816 250.51C564.531 250.9 564.311 251.375 564.153 251.937C563.996 252.498 563.917 253.146 563.917 253.879V254.351C563.917 254.928 563.996 255.47 564.153 255.979C564.318 256.481 564.554 256.923 564.861 257.305C565.175 257.687 565.553 257.986 565.995 258.203C566.444 258.42 566.953 258.529 567.522 258.529C568.256 258.529 568.878 258.379 569.387 258.08C569.896 257.78 570.341 257.38 570.723 256.878L571.981 257.877C571.719 258.274 571.386 258.652 570.981 259.012C570.577 259.371 570.079 259.663 569.488 259.888C568.904 260.112 568.211 260.225 567.41 260.225ZM576.642 250.443V260H574.564V247.849H576.529L576.642 250.443ZM576.147 253.464L575.283 253.43C575.29 252.599 575.414 251.832 575.653 251.128C575.893 250.417 576.23 249.799 576.664 249.275C577.098 248.751 577.615 248.347 578.214 248.062C578.82 247.77 579.49 247.624 580.224 247.624C580.823 247.624 581.362 247.706 581.841 247.871C582.32 248.028 582.729 248.283 583.065 248.635C583.41 248.987 583.672 249.443 583.852 250.005C584.031 250.559 584.121 251.236 584.121 252.038V260H582.032V252.015C582.032 251.379 581.939 250.87 581.751 250.488C581.564 250.098 581.291 249.818 580.932 249.646C580.572 249.466 580.131 249.376 579.606 249.376C579.09 249.376 578.618 249.485 578.191 249.702C577.772 249.919 577.409 250.218 577.102 250.6C576.803 250.982 576.567 251.42 576.395 251.914C576.23 252.401 576.147 252.917 576.147 253.464ZM592.364 247.849V249.443H585.794V247.849H592.364ZM588.018 244.895H590.096V256.99C590.096 257.402 590.159 257.713 590.287 257.922C590.414 258.132 590.579 258.271 590.781 258.338C590.983 258.405 591.2 258.439 591.432 258.439C591.604 258.439 591.784 258.424 591.971 258.394C592.166 258.357 592.312 258.327 592.409 258.304L592.42 260C592.256 260.052 592.039 260.101 591.769 260.146C591.507 260.198 591.189 260.225 590.814 260.225C590.305 260.225 589.837 260.124 589.411 259.921C588.984 259.719 588.643 259.382 588.389 258.911C588.142 258.431 588.018 257.788 588.018 256.979V244.895Z"
    fill="currentColor" />
  <path
    d="M10 29H644.933C649.352 29 652.933 32.5817 652.933 37V289C652.933 293.418 649.352 297 644.933 297H10C5.58173 297 2 293.418 2 289V37C2 32.5817 5.58172 29 10 29Z"
    stroke="#326CE5" stroke-width="4" />
  <rect x="268.799" y="16.334" width="112" height="37.3333" rx="10" fill="#326CE5" />
  <path
    d="M290.579 39.1748V34.2793C290.579 33.9043 290.503 33.5791 290.351 33.3037C290.204 33.0225 289.981 32.8057 289.683 32.6533C289.384 32.501 289.015 32.4248 288.575 32.4248C288.165 32.4248 287.805 32.4951 287.494 32.6357C287.189 32.7764 286.949 32.9609 286.773 33.1895C286.604 33.418 286.519 33.6641 286.519 33.9277H284.893C284.893 33.5879 284.98 33.251 285.156 32.917C285.332 32.583 285.584 32.2812 285.912 32.0117C286.246 31.7363 286.645 31.5195 287.107 31.3613C287.576 31.1973 288.098 31.1152 288.672 31.1152C289.363 31.1152 289.973 31.2324 290.5 31.4668C291.033 31.7012 291.449 32.0557 291.748 32.5303C292.053 32.999 292.205 33.5879 292.205 34.2969V38.7266C292.205 39.043 292.231 39.3799 292.284 39.7373C292.343 40.0947 292.428 40.4023 292.539 40.6602V40.8008H290.843C290.761 40.6133 290.696 40.3643 290.649 40.0537C290.603 39.7373 290.579 39.4443 290.579 39.1748ZM290.86 35.0352L290.878 36.1777H289.234C288.771 36.1777 288.358 36.2158 287.995 36.292C287.632 36.3623 287.327 36.4707 287.081 36.6172C286.835 36.7637 286.647 36.9482 286.519 37.1709C286.39 37.3877 286.325 37.6426 286.325 37.9355C286.325 38.2344 286.393 38.5068 286.527 38.7529C286.662 38.999 286.864 39.1953 287.134 39.3418C287.409 39.4824 287.746 39.5527 288.145 39.5527C288.643 39.5527 289.082 39.4473 289.463 39.2363C289.844 39.0254 290.146 38.7676 290.368 38.4629C290.597 38.1582 290.72 37.8623 290.737 37.5752L291.432 38.3574C291.391 38.6035 291.279 38.876 291.098 39.1748C290.916 39.4736 290.673 39.7607 290.368 40.0361C290.069 40.3057 289.712 40.5312 289.296 40.7129C288.886 40.8887 288.423 40.9766 287.907 40.9766C287.263 40.9766 286.697 40.8506 286.211 40.5986C285.73 40.3467 285.355 40.0098 285.086 39.5879C284.822 39.1602 284.69 38.6826 284.69 38.1553C284.69 37.6455 284.79 37.1973 284.989 36.8105C285.188 36.418 285.476 36.0928 285.851 35.835C286.226 35.5713 286.677 35.3721 287.204 35.2373C287.731 35.1025 288.32 35.0352 288.971 35.0352H290.86ZM296.389 33.1191V44.457H294.754V31.291H296.248L296.389 33.1191ZM302.796 35.9668V36.1514C302.796 36.8428 302.714 37.4844 302.55 38.0762C302.386 38.6621 302.146 39.1719 301.829 39.6055C301.519 40.0391 301.135 40.376 300.678 40.6162C300.221 40.8564 299.696 40.9766 299.104 40.9766C298.501 40.9766 297.968 40.877 297.505 40.6777C297.042 40.4785 296.649 40.1885 296.327 39.8076C296.005 39.4268 295.747 38.9697 295.554 38.4365C295.366 37.9033 295.237 37.3027 295.167 36.6348V35.6504C295.237 34.9473 295.369 34.3174 295.562 33.7607C295.756 33.2041 296.011 32.7295 296.327 32.3369C296.649 31.9385 297.039 31.6367 297.496 31.4316C297.953 31.2207 298.48 31.1152 299.078 31.1152C299.676 31.1152 300.206 31.2324 300.669 31.4668C301.132 31.6953 301.521 32.0234 301.838 32.4512C302.154 32.8789 302.392 33.3916 302.55 33.9893C302.714 34.5811 302.796 35.2402 302.796 35.9668ZM301.161 36.1514V35.9668C301.161 35.4922 301.111 35.0469 301.012 34.6309C300.912 34.209 300.757 33.8398 300.546 33.5234C300.341 33.2012 300.077 32.9492 299.755 32.7676C299.433 32.5801 299.049 32.4863 298.604 32.4863C298.193 32.4863 297.836 32.5566 297.531 32.6973C297.232 32.8379 296.978 33.0283 296.767 33.2686C296.556 33.5029 296.383 33.7725 296.248 34.0771C296.119 34.376 296.022 34.6865 295.958 35.0088V37.2852C296.075 37.6953 296.239 38.082 296.45 38.4453C296.661 38.8027 296.942 39.0928 297.294 39.3154C297.646 39.5322 298.088 39.6406 298.621 39.6406C299.061 39.6406 299.438 39.5498 299.755 39.3682C300.077 39.1807 300.341 38.9258 300.546 38.6035C300.757 38.2812 300.912 37.9121 301.012 37.4961C301.111 37.0742 301.161 36.626 301.161 36.1514ZM306.496 33.1191V44.457H304.861V31.291H306.355L306.496 33.1191ZM312.903 35.9668V36.1514C312.903 36.8428 312.821 37.4844 312.657 38.0762C312.493 38.6621 312.253 39.1719 311.937 39.6055C311.626 40.0391 311.242 40.376 310.785 40.6162C310.328 40.8564 309.804 40.9766 309.212 40.9766C308.608 40.9766 308.075 40.877 307.612 40.6777C307.149 40.4785 306.757 40.1885 306.435 39.8076C306.112 39.4268 305.854 38.9697 305.661 38.4365C305.474 37.9033 305.345 37.3027 305.274 36.6348V35.6504C305.345 34.9473 305.477 34.3174 305.67 33.7607C305.863 33.2041 306.118 32.7295 306.435 32.3369C306.757 31.9385 307.146 31.6367 307.604 31.4316C308.061 31.2207 308.588 31.1152 309.186 31.1152C309.783 31.1152 310.313 31.2324 310.776 31.4668C311.239 31.6953 311.629 32.0234 311.945 32.4512C312.262 32.8789 312.499 33.3916 312.657 33.9893C312.821 34.5811 312.903 35.2402 312.903 35.9668ZM311.269 36.1514V35.9668C311.269 35.4922 311.219 35.0469 311.119 34.6309C311.02 34.209 310.864 33.8398 310.653 33.5234C310.448 33.2012 310.185 32.9492 309.862 32.7676C309.54 32.5801 309.156 32.4863 308.711 32.4863C308.301 32.4863 307.943 32.5566 307.639 32.6973C307.34 32.8379 307.085 33.0283 306.874 33.2686C306.663 33.5029 306.49 33.7725 306.355 34.0771C306.227 34.376 306.13 34.6865 306.065 35.0088V37.2852C306.183 37.6953 306.347 38.082 306.558 38.4453C306.769 38.8027 307.05 39.0928 307.401 39.3154C307.753 39.5322 308.195 39.6406 308.729 39.6406C309.168 39.6406 309.546 39.5498 309.862 39.3682C310.185 39.1807 310.448 38.9258 310.653 38.6035C310.864 38.2812 311.02 37.9121 311.119 37.4961C311.219 37.0742 311.269 36.626 311.269 36.1514ZM314.907 39.9395C314.907 39.6641 314.992 39.4326 315.162 39.2451C315.338 39.0518 315.59 38.9551 315.918 38.9551C316.246 38.9551 316.495 39.0518 316.665 39.2451C316.841 39.4326 316.929 39.6641 316.929 39.9395C316.929 40.209 316.841 40.4375 316.665 40.625C316.495 40.8125 316.246 40.9062 315.918 40.9062C315.59 40.9062 315.338 40.8125 315.162 40.625C314.992 40.4375 314.907 40.209 314.907 39.9395ZM314.916 32.1787C314.916 31.9033 315.001 31.6719 315.171 31.4844C315.347 31.291 315.599 31.1943 315.927 31.1943C316.255 31.1943 316.504 31.291 316.674 31.4844C316.85 31.6719 316.938 31.9033 316.938 32.1787C316.938 32.4482 316.85 32.6768 316.674 32.8643C316.504 33.0518 316.255 33.1455 315.927 33.1455C315.599 33.1455 315.347 33.0518 315.171 32.8643C315.001 32.6768 314.916 32.4482 314.916 32.1787ZM320.963 33.3213V40.8008H319.337V31.291H320.875L320.963 33.3213ZM320.576 35.6855L319.899 35.6592C319.905 35.0088 320.002 34.4082 320.189 33.8574C320.377 33.3008 320.641 32.8174 320.98 32.4072C321.32 31.9971 321.725 31.6807 322.193 31.458C322.668 31.2295 323.192 31.1152 323.767 31.1152C324.235 31.1152 324.657 31.1797 325.032 31.3086C325.407 31.4316 325.727 31.6309 325.99 31.9062C326.26 32.1816 326.465 32.5391 326.605 32.9785C326.746 33.4121 326.816 33.9424 326.816 34.5693V40.8008H325.182V34.5518C325.182 34.0537 325.108 33.6553 324.962 33.3564C324.815 33.0518 324.602 32.832 324.32 32.6973C324.039 32.5566 323.693 32.4863 323.283 32.4863C322.879 32.4863 322.51 32.5713 322.176 32.7412C321.848 32.9111 321.563 33.1455 321.323 33.4443C321.089 33.7432 320.904 34.0859 320.77 34.4727C320.641 34.8535 320.576 35.2578 320.576 35.6855ZM335.447 31.291H336.924V40.5986C336.924 41.4365 336.754 42.1514 336.414 42.7432C336.074 43.335 335.6 43.7832 334.99 44.0879C334.387 44.3984 333.689 44.5537 332.898 44.5537C332.57 44.5537 332.184 44.501 331.738 44.3955C331.299 44.2959 330.865 44.123 330.438 43.877C330.016 43.6367 329.661 43.3115 329.374 42.9014L330.227 41.9346C330.625 42.415 331.041 42.749 331.475 42.9365C331.914 43.124 332.348 43.2178 332.775 43.2178C333.291 43.2178 333.736 43.1211 334.111 42.9277C334.486 42.7344 334.776 42.4473 334.981 42.0664C335.192 41.6914 335.298 41.2285 335.298 40.6777V33.3828L335.447 31.291ZM328.899 36.1514V35.9668C328.899 35.2402 328.984 34.5811 329.154 33.9893C329.33 33.3916 329.579 32.8789 329.901 32.4512C330.229 32.0234 330.625 31.6953 331.088 31.4668C331.551 31.2324 332.072 31.1152 332.652 31.1152C333.25 31.1152 333.771 31.2207 334.217 31.4316C334.668 31.6367 335.049 31.9385 335.359 32.3369C335.676 32.7295 335.925 33.2041 336.106 33.7607C336.288 34.3174 336.414 34.9473 336.484 35.6504V36.459C336.42 37.1562 336.294 37.7832 336.106 38.3398C335.925 38.8965 335.676 39.3711 335.359 39.7637C335.049 40.1562 334.668 40.458 334.217 40.6689C333.766 40.874 333.238 40.9766 332.635 40.9766C332.066 40.9766 331.551 40.8564 331.088 40.6162C330.631 40.376 330.238 40.0391 329.91 39.6055C329.582 39.1719 329.33 38.6621 329.154 38.0762C328.984 37.4844 328.899 36.8428 328.899 36.1514ZM330.525 35.9668V36.1514C330.525 36.626 330.572 37.0713 330.666 37.4873C330.766 37.9033 330.915 38.2695 331.114 38.5859C331.319 38.9023 331.58 39.1514 331.896 39.333C332.213 39.5088 332.591 39.5967 333.03 39.5967C333.569 39.5967 334.015 39.4824 334.366 39.2539C334.718 39.0254 334.996 38.7236 335.201 38.3486C335.412 37.9736 335.576 37.5664 335.693 37.127V35.0088C335.629 34.6865 335.529 34.376 335.395 34.0771C335.266 33.7725 335.096 33.5029 334.885 33.2686C334.68 33.0283 334.425 32.8379 334.12 32.6973C333.815 32.5566 333.458 32.4863 333.048 32.4863C332.603 32.4863 332.219 32.5801 331.896 32.7676C331.58 32.9492 331.319 33.2012 331.114 33.5234C330.915 33.8398 330.766 34.209 330.666 34.6309C330.572 35.0469 330.525 35.4922 330.525 35.9668ZM341.16 31.291V40.8008H339.525V31.291H341.16ZM339.402 28.7686C339.402 28.5049 339.481 28.2822 339.64 28.1006C339.804 27.9189 340.044 27.8281 340.36 27.8281C340.671 27.8281 340.908 27.9189 341.072 28.1006C341.242 28.2822 341.327 28.5049 341.327 28.7686C341.327 29.0205 341.242 29.2373 341.072 29.4189C340.908 29.5947 340.671 29.6826 340.36 29.6826C340.044 29.6826 339.804 29.5947 339.64 29.4189C339.481 29.2373 339.402 29.0205 339.402 28.7686ZM345.396 33.3213V40.8008H343.771V31.291H345.309L345.396 33.3213ZM345.01 35.6855L344.333 35.6592C344.339 35.0088 344.436 34.4082 344.623 33.8574C344.811 33.3008 345.074 32.8174 345.414 32.4072C345.754 31.9971 346.158 31.6807 346.627 31.458C347.102 31.2295 347.626 31.1152 348.2 31.1152C348.669 31.1152 349.091 31.1797 349.466 31.3086C349.841 31.4316 350.16 31.6309 350.424 31.9062C350.693 32.1816 350.898 32.5391 351.039 32.9785C351.18 33.4121 351.25 33.9424 351.25 34.5693V40.8008H349.615V34.5518C349.615 34.0537 349.542 33.6553 349.396 33.3564C349.249 33.0518 349.035 32.832 348.754 32.6973C348.473 32.5566 348.127 32.4863 347.717 32.4863C347.312 32.4863 346.943 32.5713 346.609 32.7412C346.281 32.9111 345.997 33.1455 345.757 33.4443C345.522 33.7432 345.338 34.0859 345.203 34.4727C345.074 34.8535 345.01 35.2578 345.01 35.6855ZM354.818 31.291L356.901 34.7539L359.011 31.291H360.918L357.807 35.9844L361.015 40.8008H359.134L356.937 37.2324L354.739 40.8008H352.85L356.049 35.9844L352.946 31.291H354.818Z"
    fill="white" fill-opacity="0.5" />
  <path
    d="M403.857 23.9731L364.825 3.68353C363.329 2.90595 361.668 2.5 359.982 2.5H273.799C269.657 2.5 266.299 5.85787 266.299 10V49.0667C266.299 53.2088 269.657 56.5667 273.799 56.5667H360.016C361.673 56.5667 363.307 56.1743 364.784 55.4218L403.81 35.5317C408.52 33.1313 408.547 26.4114 403.857 23.9731Z"
    fill="#326CE5" stroke="#326CE5" stroke-width="5" />
  <path
    d="M293.778 33.1738V28.2783C293.778 27.9033 293.702 27.5781 293.55 27.3027C293.403 27.0215 293.181 26.8047 292.882 26.6523C292.583 26.5 292.214 26.4238 291.774 26.4238C291.364 26.4238 291.004 26.4941 290.693 26.6348C290.389 26.7754 290.148 26.96 289.973 27.1885C289.803 27.417 289.718 27.6631 289.718 27.9268H288.092C288.092 27.5869 288.18 27.25 288.355 26.916C288.531 26.582 288.783 26.2803 289.111 26.0107C289.445 25.7354 289.844 25.5186 290.307 25.3604C290.775 25.1963 291.297 25.1143 291.871 25.1143C292.562 25.1143 293.172 25.2314 293.699 25.4658C294.232 25.7002 294.648 26.0547 294.947 26.5293C295.252 26.998 295.404 27.5869 295.404 28.2959V32.7256C295.404 33.042 295.431 33.3789 295.483 33.7363C295.542 34.0938 295.627 34.4014 295.738 34.6592V34.7998H294.042C293.96 34.6123 293.896 34.3633 293.849 34.0527C293.802 33.7363 293.778 33.4434 293.778 33.1738ZM294.06 29.0342L294.077 30.1768H292.434C291.971 30.1768 291.558 30.2148 291.194 30.291C290.831 30.3613 290.526 30.4697 290.28 30.6162C290.034 30.7627 289.847 30.9473 289.718 31.1699C289.589 31.3867 289.524 31.6416 289.524 31.9346C289.524 32.2334 289.592 32.5059 289.727 32.752C289.861 32.998 290.063 33.1943 290.333 33.3408C290.608 33.4814 290.945 33.5518 291.344 33.5518C291.842 33.5518 292.281 33.4463 292.662 33.2354C293.043 33.0244 293.345 32.7666 293.567 32.4619C293.796 32.1572 293.919 31.8613 293.937 31.5742L294.631 32.3564C294.59 32.6025 294.479 32.875 294.297 33.1738C294.115 33.4727 293.872 33.7598 293.567 34.0352C293.269 34.3047 292.911 34.5303 292.495 34.7119C292.085 34.8877 291.622 34.9756 291.106 34.9756C290.462 34.9756 289.896 34.8496 289.41 34.5977C288.93 34.3457 288.555 34.0088 288.285 33.5869C288.021 33.1592 287.89 32.6816 287.89 32.1543C287.89 31.6445 287.989 31.1963 288.188 30.8096C288.388 30.417 288.675 30.0918 289.05 29.834C289.425 29.5703 289.876 29.3711 290.403 29.2363C290.931 29.1016 291.52 29.0342 292.17 29.0342H294.06ZM299.588 27.1182V38.4561H297.953V25.29H299.447L299.588 27.1182ZM305.995 29.9658V30.1504C305.995 30.8418 305.913 31.4834 305.749 32.0752C305.585 32.6611 305.345 33.1709 305.028 33.6045C304.718 34.0381 304.334 34.375 303.877 34.6152C303.42 34.8555 302.896 34.9756 302.304 34.9756C301.7 34.9756 301.167 34.876 300.704 34.6768C300.241 34.4775 299.849 34.1875 299.526 33.8066C299.204 33.4258 298.946 32.9688 298.753 32.4355C298.565 31.9023 298.437 31.3018 298.366 30.6338V29.6494C298.437 28.9463 298.568 28.3164 298.762 27.7598C298.955 27.2031 299.21 26.7285 299.526 26.3359C299.849 25.9375 300.238 25.6357 300.695 25.4307C301.152 25.2197 301.68 25.1143 302.277 25.1143C302.875 25.1143 303.405 25.2314 303.868 25.4658C304.331 25.6943 304.721 26.0225 305.037 26.4502C305.354 26.8779 305.591 27.3906 305.749 27.9883C305.913 28.5801 305.995 29.2393 305.995 29.9658ZM304.36 30.1504V29.9658C304.36 29.4912 304.311 29.0459 304.211 28.6299C304.111 28.208 303.956 27.8389 303.745 27.5225C303.54 27.2002 303.276 26.9482 302.954 26.7666C302.632 26.5791 302.248 26.4854 301.803 26.4854C301.393 26.4854 301.035 26.5557 300.73 26.6963C300.432 26.8369 300.177 27.0273 299.966 27.2676C299.755 27.502 299.582 27.7715 299.447 28.0762C299.318 28.375 299.222 28.6855 299.157 29.0078V31.2842C299.274 31.6943 299.438 32.0811 299.649 32.4443C299.86 32.8018 300.142 33.0918 300.493 33.3145C300.845 33.5312 301.287 33.6396 301.82 33.6396C302.26 33.6396 302.638 33.5488 302.954 33.3672C303.276 33.1797 303.54 32.9248 303.745 32.6025C303.956 32.2803 304.111 31.9111 304.211 31.4951C304.311 31.0732 304.36 30.625 304.36 30.1504ZM309.695 27.1182V38.4561H308.061V25.29H309.555L309.695 27.1182ZM316.103 29.9658V30.1504C316.103 30.8418 316.021 31.4834 315.856 32.0752C315.692 32.6611 315.452 33.1709 315.136 33.6045C314.825 34.0381 314.441 34.375 313.984 34.6152C313.527 34.8555 313.003 34.9756 312.411 34.9756C311.808 34.9756 311.274 34.876 310.812 34.6768C310.349 34.4775 309.956 34.1875 309.634 33.8066C309.312 33.4258 309.054 32.9688 308.86 32.4355C308.673 31.9023 308.544 31.3018 308.474 30.6338V29.6494C308.544 28.9463 308.676 28.3164 308.869 27.7598C309.062 27.2031 309.317 26.7285 309.634 26.3359C309.956 25.9375 310.346 25.6357 310.803 25.4307C311.26 25.2197 311.787 25.1143 312.385 25.1143C312.982 25.1143 313.513 25.2314 313.976 25.4658C314.438 25.6943 314.828 26.0225 315.145 26.4502C315.461 26.8779 315.698 27.3906 315.856 27.9883C316.021 28.5801 316.103 29.2393 316.103 29.9658ZM314.468 30.1504V29.9658C314.468 29.4912 314.418 29.0459 314.318 28.6299C314.219 28.208 314.063 27.8389 313.853 27.5225C313.647 27.2002 313.384 26.9482 313.062 26.7666C312.739 26.5791 312.355 26.4854 311.91 26.4854C311.5 26.4854 311.143 26.5557 310.838 26.6963C310.539 26.8369 310.284 27.0273 310.073 27.2676C309.862 27.502 309.689 27.7715 309.555 28.0762C309.426 28.375 309.329 28.6855 309.265 29.0078V31.2842C309.382 31.6943 309.546 32.0811 309.757 32.4443C309.968 32.8018 310.249 33.0918 310.601 33.3145C310.952 33.5312 311.395 33.6396 311.928 33.6396C312.367 33.6396 312.745 33.5488 313.062 33.3672C313.384 33.1797 313.647 32.9248 313.853 32.6025C314.063 32.2803 314.219 31.9111 314.318 31.4951C314.418 31.0732 314.468 30.625 314.468 30.1504ZM318.106 33.9385C318.106 33.6631 318.191 33.4316 318.361 33.2441C318.537 33.0508 318.789 32.9541 319.117 32.9541C319.445 32.9541 319.694 33.0508 319.864 33.2441C320.04 33.4316 320.128 33.6631 320.128 33.9385C320.128 34.208 320.04 34.4365 319.864 34.624C319.694 34.8115 319.445 34.9053 319.117 34.9053C318.789 34.9053 318.537 34.8115 318.361 34.624C318.191 34.4365 318.106 34.208 318.106 33.9385ZM318.115 26.1777C318.115 25.9023 318.2 25.6709 318.37 25.4834C318.546 25.29 318.798 25.1934 319.126 25.1934C319.454 25.1934 319.703 25.29 319.873 25.4834C320.049 25.6709 320.137 25.9023 320.137 26.1777C320.137 26.4473 320.049 26.6758 319.873 26.8633C319.703 27.0508 319.454 27.1445 319.126 27.1445C318.798 27.1445 318.546 27.0508 318.37 26.8633C318.2 26.6758 318.115 26.4473 318.115 26.1777ZM324.162 27.3203V34.7998H322.536V25.29H324.074L324.162 27.3203ZM323.775 29.6846L323.099 29.6582C323.104 29.0078 323.201 28.4072 323.389 27.8564C323.576 27.2998 323.84 26.8164 324.18 26.4062C324.52 25.9961 324.924 25.6797 325.393 25.457C325.867 25.2285 326.392 25.1143 326.966 25.1143C327.435 25.1143 327.856 25.1787 328.231 25.3076C328.606 25.4307 328.926 25.6299 329.189 25.9053C329.459 26.1807 329.664 26.5381 329.805 26.9775C329.945 27.4111 330.016 27.9414 330.016 28.5684V34.7998H328.381V28.5508C328.381 28.0527 328.308 27.6543 328.161 27.3555C328.015 27.0508 327.801 26.8311 327.52 26.6963C327.238 26.5557 326.893 26.4854 326.482 26.4854C326.078 26.4854 325.709 26.5703 325.375 26.7402C325.047 26.9102 324.763 27.1445 324.522 27.4434C324.288 27.7422 324.104 28.085 323.969 28.4717C323.84 28.8525 323.775 29.2568 323.775 29.6846ZM338.646 25.29H340.123V34.5977C340.123 35.4355 339.953 36.1504 339.613 36.7422C339.273 37.334 338.799 37.7822 338.189 38.0869C337.586 38.3975 336.889 38.5527 336.098 38.5527C335.77 38.5527 335.383 38.5 334.938 38.3945C334.498 38.2949 334.064 38.1221 333.637 37.876C333.215 37.6357 332.86 37.3105 332.573 36.9004L333.426 35.9336C333.824 36.4141 334.24 36.748 334.674 36.9355C335.113 37.123 335.547 37.2168 335.975 37.2168C336.49 37.2168 336.936 37.1201 337.311 36.9268C337.686 36.7334 337.976 36.4463 338.181 36.0654C338.392 35.6904 338.497 35.2275 338.497 34.6768V27.3818L338.646 25.29ZM332.099 30.1504V29.9658C332.099 29.2393 332.184 28.5801 332.354 27.9883C332.529 27.3906 332.778 26.8779 333.101 26.4502C333.429 26.0225 333.824 25.6943 334.287 25.4658C334.75 25.2314 335.271 25.1143 335.852 25.1143C336.449 25.1143 336.971 25.2197 337.416 25.4307C337.867 25.6357 338.248 25.9375 338.559 26.3359C338.875 26.7285 339.124 27.2031 339.306 27.7598C339.487 28.3164 339.613 28.9463 339.684 29.6494V30.458C339.619 31.1553 339.493 31.7822 339.306 32.3389C339.124 32.8955 338.875 33.3701 338.559 33.7627C338.248 34.1553 337.867 34.457 337.416 34.668C336.965 34.873 336.438 34.9756 335.834 34.9756C335.266 34.9756 334.75 34.8555 334.287 34.6152C333.83 34.375 333.438 34.0381 333.109 33.6045C332.781 33.1709 332.529 32.6611 332.354 32.0752C332.184 31.4834 332.099 30.8418 332.099 30.1504ZM333.725 29.9658V30.1504C333.725 30.625 333.771 31.0703 333.865 31.4863C333.965 31.9023 334.114 32.2686 334.313 32.585C334.519 32.9014 334.779 33.1504 335.096 33.332C335.412 33.5078 335.79 33.5957 336.229 33.5957C336.769 33.5957 337.214 33.4814 337.565 33.2529C337.917 33.0244 338.195 32.7227 338.4 32.3477C338.611 31.9727 338.775 31.5654 338.893 31.126V29.0078C338.828 28.6855 338.729 28.375 338.594 28.0762C338.465 27.7715 338.295 27.502 338.084 27.2676C337.879 27.0273 337.624 26.8369 337.319 26.6963C337.015 26.5557 336.657 26.4854 336.247 26.4854C335.802 26.4854 335.418 26.5791 335.096 26.7666C334.779 26.9482 334.519 27.2002 334.313 27.5225C334.114 27.8389 333.965 28.208 333.865 28.6299C333.771 29.0459 333.725 29.4912 333.725 29.9658ZM344.359 25.29V34.7998H342.725V25.29H344.359ZM342.602 22.7676C342.602 22.5039 342.681 22.2812 342.839 22.0996C343.003 21.918 343.243 21.8271 343.56 21.8271C343.87 21.8271 344.107 21.918 344.271 22.0996C344.441 22.2812 344.526 22.5039 344.526 22.7676C344.526 23.0195 344.441 23.2363 344.271 23.418C344.107 23.5938 343.87 23.6816 343.56 23.6816C343.243 23.6816 343.003 23.5938 342.839 23.418C342.681 23.2363 342.602 23.0195 342.602 22.7676ZM348.596 27.3203V34.7998H346.97V25.29H348.508L348.596 27.3203ZM348.209 29.6846L347.532 29.6582C347.538 29.0078 347.635 28.4072 347.822 27.8564C348.01 27.2998 348.273 26.8164 348.613 26.4062C348.953 25.9961 349.357 25.6797 349.826 25.457C350.301 25.2285 350.825 25.1143 351.399 25.1143C351.868 25.1143 352.29 25.1787 352.665 25.3076C353.04 25.4307 353.359 25.6299 353.623 25.9053C353.893 26.1807 354.098 26.5381 354.238 26.9775C354.379 27.4111 354.449 27.9414 354.449 28.5684V34.7998H352.814V28.5508C352.814 28.0527 352.741 27.6543 352.595 27.3555C352.448 27.0508 352.234 26.8311 351.953 26.6963C351.672 26.5557 351.326 26.4854 350.916 26.4854C350.512 26.4854 350.143 26.5703 349.809 26.7402C349.48 26.9102 349.196 27.1445 348.956 27.4434C348.722 27.7422 348.537 28.085 348.402 28.4717C348.273 28.8525 348.209 29.2568 348.209 29.6846ZM358.018 25.29L360.101 28.7529L362.21 25.29H364.117L361.006 29.9834L364.214 34.7998H362.333L360.136 31.2314L357.938 34.7998H356.049L359.248 29.9834L356.146 25.29H358.018Z"
    fill="white" fill-opacity="0.8" />
  <defs>
    <clipPath id="clip0_9982_31528">
      <rect width="78" height="72" fill="white" transform="matrix(-1 0 0 1 200.523 120)" />
    </clipPath>
  </defs>
</svg>