<svg width="auto" viewBox="0 0 655 294" fill="none" xmlns="http://www.w3.org/2000/svg">
  <path
    d="M540.433 99.7313L485.085 59.5185C477.199 53.789 466.52 53.789 458.634 59.5185L403.286 99.7313C395.4 105.461 392.1 115.617 395.113 124.887L416.254 189.953C419.266 199.223 427.905 205.5 437.653 205.5H506.067C515.814 205.5 524.453 199.223 527.466 189.953L548.607 124.887C551.619 115.617 548.319 105.461 540.433 99.7313Z"
    fill="#326CE5" fill-opacity="0.1" stroke="#326CE5" stroke-width="5" />
  <path fill-rule="evenodd" clip-rule="evenodd"
    d="M528.568 182.01C518.437 177.182 514.156 165.091 519.006 155.005C521.335 150.161 525.501 146.437 530.588 144.652C535.675 142.866 541.265 143.166 546.13 145.485C556.261 150.313 560.542 162.404 555.692 172.49C550.842 182.577 538.698 186.839 528.568 182.01V182.01Z"
    fill="#326CE5" />
  <path
    d="M537.156 151.602C536.927 151.613 536.704 151.67 536.498 151.768L527.518 156.039C527.285 156.149 527.081 156.31 526.92 156.509C526.759 156.709 526.646 156.941 526.589 157.189L524.373 166.784C524.322 167.005 524.316 167.234 524.356 167.457C524.396 167.68 524.481 167.894 524.606 168.084C524.637 168.13 524.669 168.175 524.704 168.219L530.919 175.912C531.08 176.111 531.285 176.272 531.517 176.382C531.749 176.493 532.004 176.55 532.262 176.55L542.229 176.548C542.487 176.548 542.742 176.491 542.974 176.381C543.207 176.27 543.411 176.11 543.572 175.911L549.785 168.216C549.946 168.017 550.06 167.785 550.117 167.536C550.175 167.288 550.175 167.03 550.117 166.782L547.898 157.187C547.841 156.939 547.728 156.706 547.567 156.507C547.406 156.308 547.202 156.147 546.969 156.037L537.988 151.768C537.729 151.644 537.443 151.587 537.156 151.602V151.602Z"
    fill="white" />
  <path
    d="M537.245 154.867C536.948 154.867 536.707 155.133 536.707 155.462C536.707 155.467 536.708 155.472 536.709 155.477C536.708 155.521 536.706 155.575 536.707 155.614C536.714 155.803 536.756 155.948 536.781 156.123C536.826 156.496 536.864 156.806 536.841 157.093C536.818 157.202 536.738 157.301 536.666 157.37L536.653 157.596C536.331 157.623 536.006 157.672 535.682 157.745C534.286 158.06 533.085 158.776 532.17 159.742C532.11 159.702 532.007 159.628 531.976 159.605C531.88 159.618 531.783 159.647 531.656 159.574C531.416 159.413 531.197 159.191 530.932 158.923C530.81 158.794 530.722 158.672 530.578 158.549C530.545 158.521 530.495 158.483 530.459 158.454C530.346 158.364 530.213 158.318 530.084 158.313C529.919 158.307 529.76 158.372 529.656 158.502C529.471 158.733 529.53 159.086 529.788 159.291C529.791 159.293 529.793 159.294 529.796 159.296C529.831 159.325 529.875 159.362 529.907 159.386C530.061 159.498 530.2 159.556 530.353 159.645C530.674 159.843 530.941 160.007 531.152 160.204C531.235 160.292 531.249 160.446 531.26 160.513L531.433 160.666C530.51 162.048 530.084 163.754 530.336 165.493L530.111 165.558C530.051 165.635 529.967 165.755 529.88 165.79C529.603 165.877 529.292 165.909 528.916 165.948C528.74 165.963 528.588 165.954 528.401 165.989C528.359 165.997 528.302 166.012 528.257 166.022C528.255 166.023 528.254 166.023 528.252 166.024C528.25 166.024 528.247 166.025 528.244 166.026C527.928 166.102 527.724 166.392 527.79 166.678C527.855 166.963 528.165 167.137 528.483 167.069C528.486 167.068 528.489 167.068 528.491 167.067C528.495 167.067 528.498 167.065 528.502 167.064C528.546 167.054 528.602 167.044 528.641 167.033C528.824 166.984 528.958 166.912 529.123 166.849C529.479 166.722 529.773 166.616 530.06 166.575C530.18 166.565 530.306 166.648 530.369 166.683L530.603 166.643C531.142 168.307 532.272 169.652 533.703 170.496L533.605 170.729C533.641 170.82 533.679 170.943 533.653 171.032C533.549 171.301 533.37 171.586 533.167 171.903C533.068 172.049 532.967 172.163 532.878 172.33C532.857 172.37 532.83 172.432 532.81 172.474C532.671 172.768 532.773 173.107 533.038 173.234C533.305 173.362 533.637 173.227 533.78 172.933C533.78 172.932 533.781 172.932 533.781 172.932C533.781 172.931 533.781 172.931 533.781 172.93C533.802 172.889 533.831 172.834 533.848 172.794C533.924 172.621 533.949 172.472 534.003 172.304C534.145 171.948 534.223 171.575 534.419 171.343C534.473 171.279 534.56 171.254 534.651 171.23L534.772 171.011C536.02 171.487 537.416 171.615 538.81 171.3C539.128 171.228 539.436 171.135 539.732 171.023C539.767 171.084 539.83 171.2 539.847 171.229C539.939 171.259 540.04 171.274 540.122 171.395C540.268 171.644 540.368 171.939 540.49 172.295C540.544 172.463 540.57 172.611 540.647 172.785C540.664 172.825 540.693 172.88 540.713 172.922C540.856 173.218 541.189 173.354 541.456 173.225C541.722 173.098 541.823 172.759 541.685 172.465C541.664 172.423 541.636 172.361 541.615 172.321C541.526 172.153 541.425 172.041 541.327 171.895C541.123 171.578 540.954 171.314 540.85 171.045C540.806 170.906 540.857 170.82 540.891 170.729C540.871 170.706 540.827 170.575 540.802 170.513C542.289 169.639 543.385 168.244 543.9 166.633C543.97 166.644 544.091 166.665 544.13 166.673C544.211 166.62 544.285 166.551 544.431 166.562C544.718 166.603 545.012 166.71 545.368 166.837C545.533 166.9 545.666 166.973 545.85 167.022C545.889 167.032 545.945 167.042 545.989 167.051C545.993 167.052 545.996 167.054 546 167.055C546.002 167.055 546.005 167.056 546.008 167.056C546.326 167.124 546.636 166.951 546.701 166.665C546.767 166.379 546.563 166.089 546.247 166.013C546.2 166.003 546.135 165.985 546.09 165.977C545.903 165.941 545.751 165.95 545.575 165.936C545.199 165.896 544.888 165.865 544.611 165.778C544.498 165.734 544.418 165.601 544.379 165.546L544.162 165.483C544.275 164.672 544.244 163.829 544.05 162.985C543.853 162.133 543.506 161.354 543.042 160.667C543.098 160.617 543.203 160.524 543.233 160.497C543.242 160.401 543.234 160.3 543.334 160.194C543.545 159.996 543.812 159.832 544.133 159.635C544.286 159.545 544.427 159.488 544.58 159.375C544.615 159.35 544.662 159.309 544.698 159.28C544.956 159.076 545.016 158.722 544.83 158.491C544.645 158.26 544.287 158.239 544.029 158.443C543.992 158.472 543.942 158.51 543.909 158.538C543.765 158.662 543.676 158.784 543.555 158.912C543.289 159.18 543.07 159.404 542.83 159.565C542.726 159.625 542.573 159.605 542.504 159.6L542.299 159.746C541.134 158.529 539.546 157.751 537.837 157.6C537.833 157.528 537.826 157.4 537.825 157.361C537.755 157.294 537.67 157.237 537.649 157.093C537.626 156.806 537.665 156.496 537.71 156.123C537.735 155.948 537.776 155.803 537.784 155.614C537.785 155.571 537.783 155.508 537.782 155.462C537.782 155.133 537.542 154.867 537.245 154.867H537.245ZM536.572 159.017L536.412 161.824L536.401 161.83C536.39 162.081 536.182 162.282 535.928 162.282C535.823 162.282 535.727 162.248 535.649 162.191L535.644 162.194L533.332 160.562C534.043 159.866 534.951 159.352 535.999 159.116C536.19 159.072 536.381 159.04 536.572 159.017ZM537.919 159.017C539.142 159.167 540.273 159.718 541.139 160.563L538.842 162.184L538.834 162.181C538.63 162.329 538.343 162.292 538.184 162.094C538.119 162.013 538.085 161.917 538.081 161.821L538.079 161.82L537.919 159.017ZM532.494 161.61L534.605 163.49L534.602 163.501C534.793 163.666 534.821 163.953 534.662 164.151C534.597 164.232 534.51 164.287 534.416 164.312L534.414 164.321L531.708 165.099C531.57 163.845 531.867 162.626 532.494 161.61ZM541.981 161.612C542.295 162.118 542.532 162.683 542.674 163.296C542.813 163.901 542.848 164.505 542.791 165.09L540.071 164.31L540.069 164.298C539.825 164.232 539.676 163.985 539.732 163.738C539.756 163.637 539.81 163.551 539.883 163.488L539.882 163.482L541.981 161.612H541.981ZM536.812 163.635H537.677L538.214 164.304L538.021 165.139L537.245 165.51L536.466 165.138L536.273 164.303L536.812 163.635ZM539.584 165.924C539.621 165.922 539.658 165.926 539.693 165.932L539.698 165.926L542.497 166.397C542.087 167.543 541.303 168.536 540.256 169.2L539.17 166.587L539.173 166.583C539.073 166.352 539.173 166.081 539.403 165.971C539.462 165.943 539.523 165.927 539.584 165.924H539.584ZM534.884 165.936C535.097 165.939 535.289 166.086 535.338 166.303C535.362 166.404 535.35 166.504 535.312 166.593L535.32 166.603L534.245 169.189C533.24 168.547 532.44 167.586 532.011 166.407L534.786 165.938L534.791 165.944C534.822 165.938 534.853 165.935 534.884 165.936V165.936ZM537.228 167.069C537.302 167.066 537.378 167.081 537.449 167.115C537.543 167.161 537.616 167.232 537.662 167.317H537.672L539.04 169.777C538.862 169.836 538.68 169.887 538.493 169.929C537.447 170.166 536.404 170.094 535.46 169.774L536.825 167.318H536.827C536.909 167.165 537.064 167.075 537.228 167.069Z"
    fill="#326CE5" stroke="#326CE5" stroke-width="0.25" />
  <path
    d="M179.387 89C170.15 73 147.056 73 137.818 89L92.7846 167C83.547 183 95.094 203 113.569 203H203.636C222.111 203 233.658 183 224.42 167L179.387 89Z"
    fill="#326CE5" />
  <g clip-path="url(#clip0_9982_31553)">
    <path
      d="M152.956 157.219C153.063 157.199 153.171 157.191 153.28 157.196C153.467 157.205 153.65 157.251 153.819 157.329C154.146 157.479 154.399 157.744 154.526 158.068C154.653 158.391 154.644 158.749 154.501 159.066L154.511 159.08L151.285 166.497C148.199 164.623 145.857 161.823 144.63 158.54L152.942 157.203L152.956 157.219ZM165.89 158.271C165.959 157.978 166.13 157.717 166.375 157.528C166.62 157.339 166.924 157.234 167.239 157.229C167.332 157.228 167.425 157.236 167.516 157.252L167.53 157.236L175.77 158.567C174.533 161.824 172.201 164.602 169.136 166.469L165.943 159.124L165.968 159.096C165.85 158.836 165.822 158.547 165.89 158.271V158.271ZM158.989 161.151C159.109 160.937 159.288 160.759 159.507 160.635C159.725 160.51 159.975 160.445 160.23 160.445C160.484 160.445 160.734 160.511 160.952 160.636C161.17 160.761 161.349 160.94 161.469 161.154H161.476L165.528 168.128C162.626 169.069 159.507 169.221 156.52 168.569C155.966 168.449 155.425 168.305 154.897 168.138L158.958 161.151L158.989 161.151ZM146.162 144.95L152.396 150.261L152.393 150.278C152.584 150.437 152.727 150.643 152.805 150.873C152.884 151.104 152.895 151.35 152.839 151.586C152.782 151.822 152.659 152.039 152.484 152.214C152.308 152.389 152.086 152.516 151.84 152.58L151.833 152.612L143.758 154.827C143.409 151.373 144.253 147.906 146.162 144.95V144.95ZM157.744 145.545C157.732 145.787 157.652 146.021 157.512 146.223C157.371 146.425 157.176 146.587 156.947 146.692C156.717 146.797 156.462 146.84 156.209 146.818C155.956 146.796 155.713 146.71 155.508 146.567L155.483 146.577L148.661 141.973C151.258 139.552 154.618 138.01 158.226 137.584L157.752 145.542L157.744 145.545ZM164.968 146.597C164.762 146.739 164.52 146.826 164.266 146.847C164.013 146.869 163.758 146.825 163.529 146.719C163.3 146.614 163.105 146.452 162.965 146.249C162.826 146.047 162.746 145.813 162.735 145.571L162.7 145.555L162.226 137.584C162.798 137.649 163.367 137.742 163.929 137.863C166.919 138.503 169.662 139.926 171.848 141.971L164.981 146.604L164.968 146.597ZM168.629 152.619C168.383 152.555 168.16 152.429 167.984 152.254C167.807 152.079 167.684 151.862 167.627 151.626C167.571 151.389 167.582 151.143 167.661 150.912C167.74 150.681 167.883 150.476 168.076 150.317L168.069 150.285L174.338 144.948C176.25 147.911 177.071 151.396 176.67 154.853L168.635 152.646L168.629 152.619ZM162.54 154.964L160.227 156.022L157.922 154.966L157.349 152.597L158.945 150.697H161.513L163.113 152.594L162.54 154.964Z"
      fill="white" />
    <path
      d="M121.999 159.632L128.588 132.386C128.765 131.681 129.105 131.023 129.582 130.458C130.059 129.893 130.661 129.436 131.346 129.12L158.019 116.997C158.711 116.683 159.467 116.521 160.233 116.521C160.999 116.521 161.755 116.683 162.446 116.997L189.114 129.126C189.799 129.442 190.402 129.899 190.879 130.464C191.357 131.029 191.696 131.688 191.873 132.392L198.452 159.637C198.614 160.326 198.615 161.04 198.454 161.729C198.406 161.939 198.344 162.145 198.268 162.347C198.139 162.692 197.969 163.022 197.76 163.329C197.67 163.46 197.574 163.588 197.471 163.712L179.012 185.558C178.931 185.653 178.842 185.74 178.754 185.828C178.464 186.122 178.137 186.38 177.781 186.596C177.329 186.866 176.837 187.07 176.322 187.2C175.899 187.31 175.463 187.367 175.024 187.37H174.737L145.423 187.364C145.245 187.363 145.067 187.353 144.89 187.334C144.636 187.306 144.385 187.261 144.138 187.198C143.961 187.153 143.786 187.1 143.615 187.038C143.482 186.99 143.349 186.941 143.22 186.883C143.028 186.795 142.841 186.696 142.661 186.587C142.196 186.309 141.783 185.96 141.436 185.555L140.874 184.889L122.984 163.705C122.641 163.295 122.372 162.835 122.187 162.342C122.109 162.139 122.046 161.932 121.997 161.721C121.836 161.033 121.836 160.318 121.999 159.63L121.999 159.632ZM149.665 170.228C149.59 170.438 149.501 170.643 149.399 170.841C149.562 171.113 149.606 171.435 149.522 171.738C149.134 172.584 148.66 173.392 148.107 174.15C147.798 174.538 147.512 174.942 147.251 175.361C147.187 175.475 147.103 175.65 147.042 175.77C146.927 175.953 146.854 176.157 146.826 176.368C146.799 176.579 146.819 176.794 146.884 176.998C146.949 177.202 147.058 177.39 147.204 177.551C147.35 177.713 147.531 177.843 147.733 177.934C147.935 178.025 148.155 178.075 148.379 178.08C148.603 178.085 148.825 178.046 149.032 177.964C149.239 177.883 149.425 177.761 149.579 177.607C149.734 177.453 149.852 177.269 149.928 177.069C149.989 176.95 150.074 176.792 150.125 176.679C150.308 176.224 150.462 175.759 150.589 175.287C150.866 174.403 151.232 173.547 151.684 172.732C151.881 172.479 152.173 172.31 152.499 172.261C152.55 172.177 152.739 171.847 152.84 171.677C157.588 173.388 162.833 173.375 167.571 171.641L167.933 172.264C168.19 172.302 168.43 172.413 168.621 172.583C169.165 173.433 169.581 174.352 169.857 175.313C169.982 175.785 170.136 176.25 170.317 176.705C170.368 176.817 170.454 176.973 170.515 177.091V177.095L170.517 177.098C170.593 177.298 170.712 177.482 170.866 177.636C171.02 177.791 171.207 177.913 171.414 177.994C171.621 178.076 171.844 178.115 172.068 178.11C172.292 178.104 172.512 178.054 172.714 177.963C172.917 177.871 173.097 177.741 173.243 177.579C173.389 177.417 173.497 177.228 173.562 177.024C173.627 176.82 173.645 176.605 173.617 176.393C173.589 176.182 173.515 175.978 173.399 175.796C173.339 175.675 173.258 175.501 173.195 175.387C172.935 174.967 172.649 174.561 172.339 174.173C171.776 173.394 171.292 172.567 170.895 171.701C170.852 171.407 170.902 171.108 171.037 170.841L170.746 170.179C175.115 167.724 178.389 163.833 179.952 159.239L180.647 159.351C180.917 159.169 181.235 159.062 181.565 159.043C182.517 159.217 183.449 159.478 184.348 159.823C184.814 160.023 185.293 160.197 185.78 160.345C185.895 160.375 186.062 160.405 186.193 160.433C186.204 160.436 186.213 160.441 186.224 160.443C186.232 160.444 186.24 160.445 186.248 160.445C186.46 160.512 186.684 160.535 186.906 160.514C187.128 160.494 187.343 160.429 187.537 160.324C187.731 160.22 187.901 160.078 188.034 159.908C188.167 159.737 188.261 159.543 188.311 159.336C188.361 159.129 188.364 158.914 188.322 158.706C188.279 158.497 188.191 158.299 188.064 158.125C187.936 157.951 187.772 157.804 187.581 157.694C187.391 157.583 187.178 157.512 186.957 157.485L186.934 157.479L186.92 157.476C186.787 157.446 186.616 157.404 186.494 157.381C185.986 157.314 185.474 157.275 184.962 157.264C183.995 157.204 183.037 157.054 182.101 156.817C181.824 156.648 181.589 156.423 181.415 156.158L180.747 155.972C181.472 151.177 180.312 146.296 177.489 142.265L178.001 141.83C178.019 141.515 178.13 141.211 178.321 140.953C179.057 140.352 179.852 139.82 180.696 139.366C181.151 139.144 181.593 138.898 182.019 138.629C182.116 138.56 182.244 138.457 182.35 138.375L182.373 138.36C182.736 138.111 182.982 137.736 183.055 137.317C183.129 136.897 183.025 136.467 182.766 136.12C182.613 135.941 182.418 135.8 182.197 135.707C181.976 135.614 181.735 135.572 181.494 135.584C181.088 135.6 180.698 135.74 180.381 135.983C180.273 136.064 180.124 136.173 180.028 136.252C179.656 136.586 179.305 136.941 178.976 137.314C178.324 137.996 177.603 138.616 176.824 139.165C176.532 139.311 176.192 139.343 175.876 139.253C175.686 139.385 175.494 139.514 175.3 139.642C172.495 136.804 168.863 134.829 164.87 133.97C163.919 133.765 162.955 133.624 161.984 133.548L161.946 132.906C161.698 132.696 161.518 132.423 161.428 132.119C161.393 131.197 161.453 130.274 161.606 129.364C161.707 128.886 161.78 128.404 161.824 127.918C161.828 127.808 161.821 127.655 161.82 127.529C161.82 127.515 161.824 127.501 161.824 127.487C161.846 127.274 161.822 127.06 161.752 126.857C161.682 126.654 161.568 126.467 161.418 126.309C161.268 126.15 161.084 126.024 160.879 125.937C160.674 125.85 160.452 125.805 160.228 125.805C160.004 125.805 159.782 125.85 159.577 125.936C159.372 126.023 159.188 126.149 159.038 126.308C158.887 126.466 158.773 126.653 158.703 126.855C158.633 127.058 158.608 127.273 158.631 127.485C158.631 127.618 158.623 127.795 158.628 127.917C158.671 128.402 158.744 128.885 158.847 129.362C159.001 130.273 159.061 131.196 159.027 132.118C158.964 132.427 158.777 132.699 158.506 132.878C158.5 132.988 158.481 133.354 158.467 133.556C153.421 133.993 148.713 136.159 145.217 139.651L144.61 139.238C144.283 139.291 143.948 139.256 143.641 139.138C142.863 138.588 142.142 137.967 141.489 137.284C141.16 136.911 140.808 136.556 140.435 136.222C140.337 136.142 140.189 136.035 140.081 135.954C139.921 135.803 139.729 135.687 139.519 135.611C139.308 135.536 139.083 135.504 138.859 135.517C138.634 135.529 138.415 135.587 138.215 135.686C138.016 135.784 137.84 135.922 137.7 136.089C137.56 136.257 137.458 136.45 137.402 136.658C137.345 136.865 137.335 137.081 137.372 137.292C137.409 137.504 137.492 137.705 137.617 137.884C137.741 138.062 137.903 138.214 138.092 138.329C138.2 138.411 138.341 138.526 138.444 138.599C138.871 138.869 139.314 139.115 139.77 139.336C140.614 139.79 141.409 140.322 142.144 140.923C142.358 141.162 142.466 141.471 142.444 141.784C142.533 141.862 142.845 142.125 143.01 142.267C140.179 146.284 138.996 151.15 139.685 155.942L139.04 156.121C138.879 156.397 138.641 156.625 138.352 156.78C137.415 157.018 136.457 157.168 135.49 157.229C134.978 157.24 134.467 157.279 133.959 157.345C133.825 157.369 133.631 157.42 133.494 157.45C133.273 157.477 133.06 157.549 132.87 157.659C132.679 157.769 132.515 157.916 132.388 158.091C132.26 158.265 132.172 158.463 132.13 158.671C132.087 158.88 132.091 159.094 132.141 159.301C132.191 159.508 132.285 159.703 132.418 159.873C132.552 160.044 132.721 160.185 132.915 160.29C133.109 160.394 133.324 160.459 133.546 160.479C133.768 160.5 133.992 160.477 134.204 160.41L134.227 160.407C134.238 160.405 134.248 160.399 134.259 160.397C134.39 160.369 134.556 160.342 134.671 160.313C135.158 160.164 135.636 159.988 136.103 159.787C137.002 159.442 137.935 159.181 138.888 159.007C139.217 158.998 139.538 159.111 139.781 159.323C140.008 159.282 140.235 159.244 140.463 159.209C142.007 163.832 145.281 167.754 149.665 170.228V170.228Z"
      fill="white" />
  </g>
  <path
    d="M71.558 255.425L64.152 247.743L71.328 240.475C71.604 240.199 71.466 239.9 71.075 239.9H70.086C69.856 239.9 69.695 239.969 69.534 240.13L62.45 247.26V240.36C62.45 240.061 62.289 239.9 61.99 239.9H61.3C61.001 239.9 60.84 240.061 60.84 240.36V255.54C60.84 255.839 61.001 256 61.3 256H61.99C62.289 256 62.45 255.839 62.45 255.54V248.203L69.764 255.77C69.925 255.954 70.109 256 70.339 256H71.328C71.719 256 71.834 255.724 71.558 255.425ZM81.7366 244.5H81.1386C80.8396 244.5 80.6786 244.661 80.6786 244.96V250.986C80.6786 253.838 78.9766 254.804 77.4126 254.804C75.8716 254.804 74.7446 253.838 74.7446 252.021V244.96C74.7446 244.661 74.5836 244.5 74.2846 244.5H73.6866C73.3876 244.5 73.2266 244.661 73.2266 244.96V252.021C73.2266 254.666 74.9976 256.276 77.1366 256.276C78.5166 256.276 79.7586 255.862 80.6556 254.482V255.54C80.6556 255.839 80.8166 256 81.1156 256H81.7136C82.0126 256 82.1736 255.839 82.1736 255.54V244.96C82.1736 244.661 82.0126 244.5 81.7136 244.5H81.7366ZM91.5709 244.224C89.5009 244.224 87.8679 245.213 86.9249 246.754V240.36C86.9249 240.061 86.7639 239.9 86.4649 239.9H85.8669C85.5679 239.9 85.4069 240.061 85.4069 240.36V255.54C85.4069 255.839 85.5679 256 85.8669 256H86.4649C86.7639 256 86.9249 255.839 86.9249 255.54V253.769C87.8679 255.31 89.5009 256.276 91.5709 256.276C94.8139 256.276 97.5049 253.654 97.5049 250.25C97.5049 246.846 94.8139 244.224 91.5709 244.224ZM91.4559 254.804C88.9029 254.804 86.9249 252.803 86.9249 250.25C86.9249 247.697 88.9029 245.696 91.4559 245.696C94.0089 245.696 95.9869 247.697 95.9869 250.25C95.9869 252.803 94.0089 254.804 91.4559 254.804ZM105.227 244.224C101.662 244.224 99.3389 246.869 99.3389 250.25C99.3389 253.723 101.708 256.276 105.227 256.276C107.573 256.276 109.459 255.057 110.241 253.309C110.356 253.033 110.172 252.849 109.827 252.849H109.091C108.838 252.849 108.677 252.964 108.539 253.171C107.964 254.114 106.791 254.804 105.25 254.804C102.904 254.804 101.202 253.355 100.903 251.009H109.252H110.333C110.609 251.009 110.793 250.871 110.816 250.572V250.296C110.816 247.145 108.746 244.224 105.227 244.224ZM105.227 245.696C107.182 245.696 108.953 247.007 109.229 249.537H100.88C101.179 247.306 102.789 245.696 105.227 245.696ZM117.816 244.339C116.551 244.454 115.424 244.96 114.642 246.271V244.96C114.642 244.661 114.481 244.5 114.182 244.5H113.584C113.285 244.5 113.124 244.661 113.124 244.96V255.54C113.124 255.839 113.285 256 113.584 256H114.182C114.481 256 114.642 255.839 114.642 255.54V249.606C114.642 246.915 116.252 245.903 117.977 245.788C118.161 245.788 118.276 245.604 118.276 245.328V244.776C118.276 244.477 118.115 244.316 117.816 244.339ZM125.416 244.224C124.013 244.224 122.771 244.661 121.874 246.041V244.96C121.874 244.661 121.713 244.5 121.414 244.5H120.816C120.517 244.5 120.356 244.661 120.356 244.96V255.54C120.356 255.839 120.517 256 120.816 256H121.414C121.713 256 121.874 255.839 121.874 255.54V249.514C121.874 246.662 123.576 245.696 125.14 245.696C126.681 245.696 127.808 246.662 127.808 248.479V255.54C127.808 255.839 127.969 256 128.268 256H128.866C129.165 256 129.326 255.839 129.326 255.54V248.479C129.326 245.834 127.555 244.224 125.416 244.224ZM137.458 244.224C133.893 244.224 131.57 246.869 131.57 250.25C131.57 253.723 133.939 256.276 137.458 256.276C139.804 256.276 141.69 255.057 142.472 253.309C142.587 253.033 142.403 252.849 142.058 252.849H141.322C141.069 252.849 140.908 252.964 140.77 253.171C140.195 254.114 139.022 254.804 137.481 254.804C135.135 254.804 133.433 253.355 133.134 251.009H141.483H142.564C142.84 251.009 143.024 250.871 143.047 250.572V250.296C143.047 247.145 140.977 244.224 137.458 244.224ZM137.458 245.696C139.413 245.696 141.184 247.007 141.46 249.537H133.111C133.41 247.306 135.02 245.696 137.458 245.696ZM149.958 244.5H148.026V241.28C148.026 240.981 147.865 240.82 147.566 240.82H146.968C146.669 240.82 146.508 240.981 146.508 241.28V244.5H144.553C144.254 244.5 144.093 244.661 144.093 244.96V245.512C144.093 245.811 144.254 245.972 144.553 245.972H146.508V255.54C146.508 255.839 146.669 256 146.968 256H147.566C147.865 256 148.026 255.839 148.026 255.54V245.972H149.958C150.257 245.972 150.418 245.811 150.418 245.512V244.96C150.418 244.661 150.257 244.5 149.958 244.5ZM157.246 244.224C153.681 244.224 151.358 246.869 151.358 250.25C151.358 253.723 153.727 256.276 157.246 256.276C159.592 256.276 161.478 255.057 162.26 253.309C162.375 253.033 162.191 252.849 161.846 252.849H161.11C160.857 252.849 160.696 252.964 160.558 253.171C159.983 254.114 158.81 254.804 157.269 254.804C154.923 254.804 153.221 253.355 152.922 251.009H161.271H162.352C162.628 251.009 162.812 250.871 162.835 250.572V250.296C162.835 247.145 160.765 244.224 157.246 244.224ZM157.246 245.696C159.201 245.696 160.972 247.007 161.248 249.537H152.899C153.198 247.306 154.808 245.696 157.246 245.696ZM166.316 247.513C166.316 246.225 167.604 245.696 168.823 245.696C169.927 245.696 171.077 246.133 171.284 247.398C171.353 247.674 171.491 247.835 171.767 247.835H172.365C172.664 247.835 172.848 247.674 172.825 247.352C172.595 245.42 170.985 244.224 168.823 244.224C166.5 244.224 164.798 245.627 164.798 247.513C164.798 251.814 171.56 250.066 171.56 252.987C171.56 254.275 170.272 254.804 168.823 254.804C167.512 254.804 166.339 254.367 166.132 253.102C166.063 252.826 165.925 252.665 165.649 252.665H165.051C164.752 252.665 164.568 252.826 164.591 253.148C164.821 255.08 166.454 256.276 168.823 256.276C171.376 256.276 173.078 254.873 173.078 252.987C173.078 248.686 166.316 250.434 166.316 247.513ZM186.417 256.276C189.131 256.276 191.592 254.62 191.592 251.929C191.592 248.962 188.832 248.065 186.394 247.122C184.462 246.386 182.852 245.673 182.852 243.833C182.852 242.131 184.324 241.188 186.095 241.188C187.889 241.188 189.292 242.085 189.499 243.787C189.522 244.063 189.683 244.224 189.959 244.224H190.672C190.971 244.224 191.132 244.063 191.109 243.741C190.879 241.096 188.648 239.624 186.095 239.624C183.588 239.624 181.242 241.165 181.242 243.833C181.242 246.961 183.933 247.789 186.371 248.709C188.28 249.422 189.982 250.181 189.982 251.929C189.982 253.654 188.395 254.712 186.417 254.712C184.255 254.712 182.645 253.7 182.415 251.791C182.392 251.492 182.231 251.331 181.955 251.331H181.242C180.943 251.331 180.782 251.492 180.805 251.814C181.035 254.689 183.519 256.276 186.417 256.276ZM199.316 244.224C195.751 244.224 193.428 246.869 193.428 250.25C193.428 253.723 195.797 256.276 199.316 256.276C201.662 256.276 203.548 255.057 204.33 253.309C204.445 253.033 204.261 252.849 203.916 252.849H203.18C202.927 252.849 202.766 252.964 202.628 253.171C202.053 254.114 200.88 254.804 199.339 254.804C196.993 254.804 195.291 253.355 194.992 251.009H203.341H204.422C204.698 251.009 204.882 250.871 204.905 250.572V250.296C204.905 247.145 202.835 244.224 199.316 244.224ZM199.316 245.696C201.271 245.696 203.042 247.007 203.318 249.537H194.969C195.268 247.306 196.878 245.696 199.316 245.696ZM211.905 244.339C210.64 244.454 209.513 244.96 208.731 246.271V244.96C208.731 244.661 208.57 244.5 208.271 244.5H207.673C207.374 244.5 207.213 244.661 207.213 244.96V255.54C207.213 255.839 207.374 256 207.673 256H208.271C208.57 256 208.731 255.839 208.731 255.54V249.606C208.731 246.915 210.341 245.903 212.066 245.788C212.25 245.788 212.365 245.604 212.365 245.328V244.776C212.365 244.477 212.204 244.316 211.905 244.339ZM222.84 244.5H222.196C221.943 244.5 221.759 244.615 221.667 244.868L218.24 254.344L214.813 244.868C214.721 244.615 214.537 244.5 214.284 244.5H213.64C213.318 244.5 213.157 244.707 213.272 245.029L217.182 255.632C217.274 255.862 217.458 256 217.711 256H218.194H218.769C219.022 256 219.206 255.885 219.298 255.632L223.208 245.029C223.323 244.707 223.162 244.5 222.84 244.5ZM225.709 242.2H226.307C226.606 242.2 226.767 242.039 226.767 241.74V240.36C226.767 240.061 226.606 239.9 226.307 239.9H225.709C225.41 239.9 225.249 240.061 225.249 240.36V241.74C225.249 242.039 225.41 242.2 225.709 242.2ZM225.709 256H226.307C226.606 256 226.767 255.839 226.767 255.54V244.96C226.767 244.661 226.606 244.5 226.307 244.5H225.709C225.41 244.5 225.249 244.661 225.249 244.96V255.54C225.249 255.839 225.41 256 225.709 256ZM240.315 252.32H239.648C239.395 252.32 239.211 252.435 239.096 252.665C238.429 253.953 237.026 254.804 235.347 254.804C232.794 254.804 230.816 252.803 230.816 250.25C230.816 247.697 232.794 245.696 235.347 245.696C237.003 245.696 238.406 246.524 239.096 247.835C239.211 248.065 239.395 248.18 239.648 248.18H240.315C240.637 248.18 240.821 247.973 240.683 247.651C239.855 245.604 237.785 244.224 235.347 244.224C231.874 244.224 229.298 246.846 229.298 250.25C229.298 253.654 231.874 256.276 235.347 256.276C237.785 256.276 239.878 254.896 240.683 252.849C240.821 252.527 240.637 252.32 240.315 252.32ZM248.371 244.224C244.806 244.224 242.483 246.869 242.483 250.25C242.483 253.723 244.852 256.276 248.371 256.276C250.717 256.276 252.603 255.057 253.384 253.309C253.5 253.033 253.316 252.849 252.971 252.849H252.235C251.982 252.849 251.821 252.964 251.683 253.171C251.108 254.114 249.935 254.804 248.394 254.804C246.048 254.804 244.346 253.355 244.047 251.009H252.396H253.477C253.753 251.009 253.937 250.871 253.96 250.572V250.296C253.96 247.145 251.89 244.224 248.371 244.224ZM248.371 245.696C250.326 245.696 252.097 247.007 252.373 249.537H244.024C244.323 247.306 245.933 245.696 248.371 245.696Z"
    fill="currentColor" />
  <path
    d="M361.558 255.425L354.152 247.743L361.328 240.475C361.604 240.199 361.466 239.9 361.075 239.9H360.086C359.856 239.9 359.695 239.969 359.534 240.13L352.45 247.26V240.36C352.45 240.061 352.289 239.9 351.99 239.9H351.3C351.001 239.9 350.84 240.061 350.84 240.36V255.54C350.84 255.839 351.001 256 351.3 256H351.99C352.289 256 352.45 255.839 352.45 255.54V248.203L359.764 255.77C359.925 255.954 360.109 256 360.339 256H361.328C361.719 256 361.834 255.724 361.558 255.425ZM371.737 244.5H371.139C370.84 244.5 370.679 244.661 370.679 244.96V250.986C370.679 253.838 368.977 254.804 367.413 254.804C365.872 254.804 364.745 253.838 364.745 252.021V244.96C364.745 244.661 364.584 244.5 364.285 244.5H363.687C363.388 244.5 363.227 244.661 363.227 244.96V252.021C363.227 254.666 364.998 256.276 367.137 256.276C368.517 256.276 369.759 255.862 370.656 254.482V255.54C370.656 255.839 370.817 256 371.116 256H371.714C372.013 256 372.174 255.839 372.174 255.54V244.96C372.174 244.661 372.013 244.5 371.714 244.5H371.737ZM381.571 244.224C379.501 244.224 377.868 245.213 376.925 246.754V240.36C376.925 240.061 376.764 239.9 376.465 239.9H375.867C375.568 239.9 375.407 240.061 375.407 240.36V255.54C375.407 255.839 375.568 256 375.867 256H376.465C376.764 256 376.925 255.839 376.925 255.54V253.769C377.868 255.31 379.501 256.276 381.571 256.276C384.814 256.276 387.505 253.654 387.505 250.25C387.505 246.846 384.814 244.224 381.571 244.224ZM381.456 254.804C378.903 254.804 376.925 252.803 376.925 250.25C376.925 247.697 378.903 245.696 381.456 245.696C384.009 245.696 385.987 247.697 385.987 250.25C385.987 252.803 384.009 254.804 381.456 254.804ZM395.227 244.224C391.662 244.224 389.339 246.869 389.339 250.25C389.339 253.723 391.708 256.276 395.227 256.276C397.573 256.276 399.459 255.057 400.241 253.309C400.356 253.033 400.172 252.849 399.827 252.849H399.091C398.838 252.849 398.677 252.964 398.539 253.171C397.964 254.114 396.791 254.804 395.25 254.804C392.904 254.804 391.202 253.355 390.903 251.009H399.252H400.333C400.609 251.009 400.793 250.871 400.816 250.572V250.296C400.816 247.145 398.746 244.224 395.227 244.224ZM395.227 245.696C397.182 245.696 398.953 247.007 399.229 249.537H390.88C391.179 247.306 392.789 245.696 395.227 245.696ZM407.816 244.339C406.551 244.454 405.424 244.96 404.642 246.271V244.96C404.642 244.661 404.481 244.5 404.182 244.5H403.584C403.285 244.5 403.124 244.661 403.124 244.96V255.54C403.124 255.839 403.285 256 403.584 256H404.182C404.481 256 404.642 255.839 404.642 255.54V249.606C404.642 246.915 406.252 245.903 407.977 245.788C408.161 245.788 408.276 245.604 408.276 245.328V244.776C408.276 244.477 408.115 244.316 407.816 244.339ZM415.416 244.224C414.013 244.224 412.771 244.661 411.874 246.041V244.96C411.874 244.661 411.713 244.5 411.414 244.5H410.816C410.517 244.5 410.356 244.661 410.356 244.96V255.54C410.356 255.839 410.517 256 410.816 256H411.414C411.713 256 411.874 255.839 411.874 255.54V249.514C411.874 246.662 413.576 245.696 415.14 245.696C416.681 245.696 417.808 246.662 417.808 248.479V255.54C417.808 255.839 417.969 256 418.268 256H418.866C419.165 256 419.326 255.839 419.326 255.54V248.479C419.326 245.834 417.555 244.224 415.416 244.224ZM427.458 244.224C423.893 244.224 421.57 246.869 421.57 250.25C421.57 253.723 423.939 256.276 427.458 256.276C429.804 256.276 431.69 255.057 432.472 253.309C432.587 253.033 432.403 252.849 432.058 252.849H431.322C431.069 252.849 430.908 252.964 430.77 253.171C430.195 254.114 429.022 254.804 427.481 254.804C425.135 254.804 423.433 253.355 423.134 251.009H431.483H432.564C432.84 251.009 433.024 250.871 433.047 250.572V250.296C433.047 247.145 430.977 244.224 427.458 244.224ZM427.458 245.696C429.413 245.696 431.184 247.007 431.46 249.537H423.111C423.41 247.306 425.02 245.696 427.458 245.696ZM439.958 244.5H438.026V241.28C438.026 240.981 437.865 240.82 437.566 240.82H436.968C436.669 240.82 436.508 240.981 436.508 241.28V244.5H434.553C434.254 244.5 434.093 244.661 434.093 244.96V245.512C434.093 245.811 434.254 245.972 434.553 245.972H436.508V255.54C436.508 255.839 436.669 256 436.968 256H437.566C437.865 256 438.026 255.839 438.026 255.54V245.972H439.958C440.257 245.972 440.418 245.811 440.418 245.512V244.96C440.418 244.661 440.257 244.5 439.958 244.5ZM447.246 244.224C443.681 244.224 441.358 246.869 441.358 250.25C441.358 253.723 443.727 256.276 447.246 256.276C449.592 256.276 451.478 255.057 452.26 253.309C452.375 253.033 452.191 252.849 451.846 252.849H451.11C450.857 252.849 450.696 252.964 450.558 253.171C449.983 254.114 448.81 254.804 447.269 254.804C444.923 254.804 443.221 253.355 442.922 251.009H451.271H452.352C452.628 251.009 452.812 250.871 452.835 250.572V250.296C452.835 247.145 450.765 244.224 447.246 244.224ZM447.246 245.696C449.201 245.696 450.972 247.007 451.248 249.537H442.899C443.198 247.306 444.808 245.696 447.246 245.696ZM456.316 247.513C456.316 246.225 457.604 245.696 458.823 245.696C459.927 245.696 461.077 246.133 461.284 247.398C461.353 247.674 461.491 247.835 461.767 247.835H462.365C462.664 247.835 462.848 247.674 462.825 247.352C462.595 245.42 460.985 244.224 458.823 244.224C456.5 244.224 454.798 245.627 454.798 247.513C454.798 251.814 461.56 250.066 461.56 252.987C461.56 254.275 460.272 254.804 458.823 254.804C457.512 254.804 456.339 254.367 456.132 253.102C456.063 252.826 455.925 252.665 455.649 252.665H455.051C454.752 252.665 454.568 252.826 454.591 253.148C454.821 255.08 456.454 256.276 458.823 256.276C461.376 256.276 463.078 254.873 463.078 252.987C463.078 248.686 456.316 250.434 456.316 247.513ZM478.372 239.9H473.312H472.162C471.863 239.9 471.702 240.061 471.702 240.36V255.54C471.702 255.839 471.863 256 472.162 256H472.392H478.372C482.811 256 485.962 252.389 485.962 247.95C485.962 243.511 482.811 239.9 478.372 239.9ZM478.372 254.482H473.312V241.418H478.372C481.96 241.418 484.398 244.339 484.398 247.95C484.398 251.561 481.96 254.482 478.372 254.482ZM493.808 244.224C490.243 244.224 487.92 246.869 487.92 250.25C487.92 253.723 490.289 256.276 493.808 256.276C496.154 256.276 498.04 255.057 498.822 253.309C498.937 253.033 498.753 252.849 498.408 252.849H497.672C497.419 252.849 497.258 252.964 497.12 253.171C496.545 254.114 495.372 254.804 493.831 254.804C491.485 254.804 489.783 253.355 489.484 251.009H497.833H498.914C499.19 251.009 499.374 250.871 499.397 250.572V250.296C499.397 247.145 497.327 244.224 493.808 244.224ZM493.808 245.696C495.763 245.696 497.534 247.007 497.81 249.537H489.461C489.76 247.306 491.37 245.696 493.808 245.696ZM507.869 244.224C505.799 244.224 504.166 245.213 503.223 246.754V244.96C503.223 244.661 503.062 244.5 502.763 244.5H502.165C501.866 244.5 501.705 244.661 501.705 244.96V260.14C501.705 260.439 501.866 260.6 502.165 260.6H502.763C503.062 260.6 503.223 260.439 503.223 260.14V253.769C504.166 255.31 505.799 256.276 507.869 256.276C511.112 256.276 513.803 253.654 513.803 250.25C513.803 246.846 511.112 244.224 507.869 244.224ZM507.754 254.804C505.201 254.804 503.223 252.803 503.223 250.25C503.223 247.697 505.201 245.696 507.754 245.696C510.307 245.696 512.285 247.697 512.285 250.25C512.285 252.803 510.307 254.804 507.754 254.804ZM516.787 256H517.385C517.684 256 517.845 255.839 517.845 255.54V239.9C517.845 239.601 517.684 239.44 517.385 239.44H516.787C516.488 239.44 516.327 239.601 516.327 239.9V255.54C516.327 255.839 516.488 256 516.787 256ZM526.425 256.276C529.783 256.276 532.474 253.654 532.474 250.25C532.474 246.846 529.783 244.224 526.425 244.224C523.067 244.224 520.376 246.846 520.376 250.25C520.376 253.654 523.067 256.276 526.425 256.276ZM526.425 254.804C523.872 254.804 521.894 252.803 521.894 250.25C521.894 247.697 523.872 245.696 526.425 245.696C528.978 245.696 530.956 247.697 530.956 250.25C530.956 252.803 528.978 254.804 526.425 254.804ZM541.787 244.868L538.613 253.792L534.933 244.845C534.841 244.592 534.657 244.5 534.404 244.5H533.76C533.415 244.5 533.277 244.707 533.415 245.029L537.854 255.908L536.382 260.071C536.267 260.393 536.428 260.6 536.75 260.6H537.417C537.67 260.6 537.854 260.485 537.946 260.232L543.351 245.029C543.466 244.707 543.305 244.5 542.983 244.5H542.316C542.063 244.5 541.879 244.615 541.787 244.868ZM556.455 244.224C555.167 244.224 553.925 244.661 553.028 246.179C552.407 244.891 551.211 244.224 549.946 244.224C548.865 244.224 547.738 244.615 546.864 245.834V244.96C546.864 244.661 546.703 244.5 546.404 244.5H545.806C545.507 244.5 545.346 244.661 545.346 244.96V255.54C545.346 255.839 545.507 256 545.806 256H546.404C546.703 256 546.864 255.839 546.864 255.54V249.054C546.864 246.432 548.52 245.696 549.67 245.696C550.889 245.696 551.947 246.432 551.947 248.249V255.54C551.947 255.839 552.108 256 552.407 256H553.005C553.304 256 553.465 255.839 553.465 255.54V249.054C553.465 246.432 555.121 245.696 556.271 245.696C557.49 245.696 558.548 246.432 558.548 248.249V255.54C558.548 255.839 558.709 256 559.008 256H559.606C559.905 256 560.066 255.839 560.066 255.54V248.249C560.066 245.604 558.364 244.224 556.432 244.224H556.455ZM568.221 244.224C564.656 244.224 562.333 246.869 562.333 250.25C562.333 253.723 564.702 256.276 568.221 256.276C570.567 256.276 572.453 255.057 573.235 253.309C573.35 253.033 573.166 252.849 572.821 252.849H572.085C571.832 252.849 571.671 252.964 571.533 253.171C570.958 254.114 569.785 254.804 568.244 254.804C565.898 254.804 564.196 253.355 563.897 251.009H572.246H573.327C573.603 251.009 573.787 250.871 573.81 250.572V250.296C573.81 247.145 571.74 244.224 568.221 244.224ZM568.221 245.696C570.176 245.696 571.947 247.007 572.223 249.537H563.874C564.173 247.306 565.783 245.696 568.221 245.696ZM581.178 244.224C579.775 244.224 578.533 244.661 577.636 246.041V244.96C577.636 244.661 577.475 244.5 577.176 244.5H576.578C576.279 244.5 576.118 244.661 576.118 244.96V255.54C576.118 255.839 576.279 256 576.578 256H577.176C577.475 256 577.636 255.839 577.636 255.54V249.514C577.636 246.662 579.338 245.696 580.902 245.696C582.443 245.696 583.57 246.662 583.57 248.479V255.54C583.57 255.839 583.731 256 584.03 256H584.628C584.927 256 585.088 255.839 585.088 255.54V248.479C585.088 245.834 583.317 244.224 581.178 244.224ZM592.737 244.5H590.805V241.28C590.805 240.981 590.644 240.82 590.345 240.82H589.747C589.448 240.82 589.287 240.981 589.287 241.28V244.5H587.332C587.033 244.5 586.872 244.661 586.872 244.96V245.512C586.872 245.811 587.033 245.972 587.332 245.972H589.287V255.54C589.287 255.839 589.448 256 589.747 256H590.345C590.644 256 590.805 255.839 590.805 255.54V245.972H592.737C593.036 245.972 593.197 245.811 593.197 245.512V244.96C593.197 244.661 593.036 244.5 592.737 244.5Z"
    fill="currentColor" />
  <defs>
    <clipPath id="clip0_9982_31553">
      <rect width="78" height="72" fill="white" transform="matrix(-1 0 0 1 200.523 115)" />
    </clipPath>
  </defs>
</svg>