<svg xmlns="http://www.w3.org/2000/svg" role="img" viewBox="77.58 -0.42 204.10 360.10"><defs><style>.cls-2{fill:#fff}</style></defs><path fill="none" d="M115.75968 213.38929c.93515 4.33 3.48237 7.67742 6.5698 10.651 9.77047 9.4102 21.75705 13.01841 35.01168 13.14316a9.911 9.911 0 0 0 9.78439-6.11882 26.03007 26.03007 0 0 0 2.69638-11.58962 39.38017 39.38017 0 0 0-1.93123-11.67861c-3.199-11.03014-9.7355-19.3656-20.03872-24.61861a13.88739 13.88739 0 0 0-7.15773-1.61767 20.24735 20.24735 0 0 0-10.37232 3.857 36.37082 36.37082 0 0 0-14.20074 19.83306 15.78442 15.78442 0 0 0-.36151 8.13911zm17.75951 4.0881a16.70857 16.70857 0 0 1 19.16319-14.69749 3.67461 3.67461 0 0 1 2.9996 2.6115 3.1144 3.1144 0 0 1-1.202 3.47335c-.26963.23971-.52116.501-.77036.76251-2.01136 2.11124-2.21633 4.45622-.57837 6.57539 1.9226 2.48745 4.26648 3.03458 6.89174 1.59109.4722-.25961.9088-.58381 1.36327-.87607 2.27634-1.46393 4.3488-.62112 4.74949 2.10363a13.349 13.349 0 0 1-3.05642 10.85827 14.68109 14.68109 0 0 1-12.15478 5.73376c-2.94619-.23008-5.78489-.14061-8.45259-1.44294a16.8627 16.8627 0 0 1-8.95277-16.693zm64.68913 19.43874a29.20315 29.20315 0 0 0 5.29552.0712 67.813 67.813 0 0 0 7.38423-.46661 46.51676 46.51676 0 0 0 27.03377-14.37251 16.83929 16.83929 0 0 0 4.29936-16.615c-2.53222-9.611-8.38031-16.70163-16.88274-21.68593a14.79438 14.79438 0 0 0-8.41295-2.03756 21.72765 21.72765 0 0 0-13.82539 6.03332 47.3721 47.3721 0 0 0-13.51533 22.96168 28.96136 28.96136 0 0 0 1.9732 20.74185 8.82375 8.82375 0 0 0 6.65033 5.36956zm-1.80267-29.54a16.43917 16.43917 0 0 1 14.42381-4.53006 3.30264 3.30264 0 0 1 2.12159 5.59563c-.48223.59486-1.05454 1.116-1.54772 1.70271a4.4701 4.4701 0 0 0-.30664 5.73477 5.08772 5.08772 0 0 0 5.62976 2.51286 16.24263 16.24263 0 0 0 3.07033-1.37726c2.93345-1.44481 5.15973-.06016 5.19478 3.20667.08263 7.70019-7.17964 15.16121-14.89484 15.299-.67732.012-1.35511.00155-2.2946.00155-4.2434-.08107-8.436-1.01691-11.653-4.48972a16.37885 16.37885 0 0 1-3.969-9.44783c-.65726-5.3106.06157-10.36645 4.22553-14.20835zm16.49161-96.43525c.301 1.00051.60317 2.001.87677 3.009 1.18022 4.34219 2.21 9.504.89916 14.8709l-.34846 1.42685a50.16962 50.16962 0 0 0 4.03175 10.80768c1.60407 2.99789 2.58764 3.14961 5.14053.97774 4.52058-3.84606 8.05254-8.52877 11.39748-13.35847a184.25351 184.25351 0 0 0 20.6094-39.25882 149.79959 149.79959 0 0 0 9.022-36.19827 36.58313 36.58313 0 0 0-3.29007-21.09714c-4.40227-8.79538-13.78807-12.20072-21.38271-11.30374-3.67933.4345-6.67107 2.42364-9.34593 4.87486-4.64424 4.25615-7.41811 9.7233-9.855 15.39844a107.56871 107.56871 0 0 0-7.35384 27.95858c-.7779 5.63208-1.43548 11.2749-1.68591 16.96505-.1665 3.78356-.631 7.56821-.4457 11.3492.14551 2.97006.093 5.95093.4188 8.91687a10.97055 10.97055 0 0 1 .11854 2.30424l.452-.01026zm-67.24646 13.48859l-.21142-2.0601c-.097-.88113-.19152-1.76225-.24748-2.64586a52.07566 52.07566 0 0 1 2.01222-16.94469l.57332-2.1229.33135.3305.0042-.034a39.508 39.508 0 0 0-.00482-8.23931c-.24165-2.33386-.1333-4.683-.28339-7.0287a203.9264 203.9264 0 0 0-2.97729-24.16864 94.32442 94.32442 0 0 0-8.43115-25.50719 34.28907 34.28907 0 0 0-9.602-12.08832 15.698 15.698 0 0 0-12.66444-3.02074c-8.42376 1.4012-14.28981 6.03456-17.25746 14.21845a36.20637 36.20637 0 0 0-2.31233 13.93421A97.67855 97.67855 0 0 0 96.922 65.6573a165.45486 165.45486 0 0 0 10.765 32.90626 179.50585 179.50585 0 0 0 20.75483 35.469 51.07766 51.07766 0 0 0 7.98475 8.44568c1.90939 1.58254 2.97053 1.45966 4.21495-.69418a48.79092 48.79092 0 0 0 4.96526-13.704c.17605-.76632.31565-1.542.47826-2.31225q-.16673-.65139-.31348-1.31119z"/><path d="M191.63961 340.78043a40.34886 40.34886 0 0 0 22.74629-14.86406l.35569-.44523c-2.1142 1.47124-4.15 2.78577-6.15232 3.97345-11.70023 6.93955-24.11928 9.02266-36.9077 6.20082-7.85612-1.73488-15.905-4.92484-25.27339-10.0213a54.18388 54.18388 0 0 0 21.37456 13.69752 40.90185 40.90185 0 0 0 23.85687 1.4588zM119.5071 147.49546c1.08384 1.91443.9245 2.62743-.54806 4.03081a59.33048 59.33048 0 0 0-16.40416 26.79048c-2.30456 7.92607-1.92828 15.97091-1.21248 24.04691q.96212 10.85551 1.80608 21.72138c.36556 4.7229.42393 9.47752.97347 14.17656 1.03347 8.83665 1.64216 17.70191 2.24968 26.57074.42245 6.1674.80409 12.34241 2.35725 18.3636 2.07744 8.05339 5.31364 15.69234 8.42594 23.37271 1.16048 2.86373 2.39285 5.70888 3.67435 8.7035l.328-.40061a5.093 5.093 0 0 0 .82578-2.61787c.04726-.33952.09576-.67779.1567-1.00984a67.15342 67.15342 0 0 1 10.54114-25.17763 101.44081 101.44081 0 0 1 15.29064-17.88488 57.12138 57.12138 0 0 1 15.82043-10.78614 34.88373 34.88373 0 0 1 17.84881-2.787 49.84742 49.84742 0 0 1 20.703 7.20569 84.622 84.622 0 0 1 22.31973 19.15838 80.8332 80.8332 0 0 1 12.9476 21.16562c.03482.08954.06716.18406.097.2823l.09335.00521c3.49309-8.42057 6.55969-16.98844 8.17449-25.992 1.56847-8.74563 2.88976-17.53557 4.32633-26.305 1.41457-8.63494 2.87523-17.26189 4.0881-25.92948q2.00736-14.34663 3.723-28.73c.81467-6.79459 1.143-13.5664-.16284-20.353-2.04129-10.60931-6.67582-19.66726-15.37753-26.38365-1.78907-1.38091-1.92812-2.28877-.7371-4.29516a286.15553 286.15553 0 0 0 15.9633-31.60565c7.41664-16.972 13.94189-34.24707 16.24668-52.79233a75.61311 75.61311 0 0 0-.388-24.13544c-2.89085-14.64253-14.10893-26.09978-28.41032-28.66737-8.308-1.4916-15.68736.52381-21.66736 6.72448a50.249 50.249 0 0 0-10.37924 16.514C206.024 48.454 202.79232 67.30466 201.00434 86.45954c-.67335 7.21385-1.24527 14.43726-1.85326 21.65725l.05736-.022.37061.2593.056-.02425c.14675-.0597.29226-.11752.43777-.16105a16.2373 16.2373 0 0 1 4.25078-.74059l1.83438-.05224-.59322 1.73676a11.3714 11.3714 0 0 1-1.11182 2.27587 14.887 14.887 0 0 0-1.79334 4.56169 10.24683 10.24683 0 0 0 .10447 5.25068 1.51075 1.51075 0 0 0 .14426.3476c.03233-.0199.17038-.03918.41289-.12312a3.31624 3.31624 0 0 0 1.07327-.67282 8.42528 8.42528 0 0 0 2.49973-4.05864 35.64927 35.64927 0 0 0 1.05578-10.23521l.05845-8.33243 2.4276 7.34249c.2052.61872.46388 1.2623.72753 1.92081.02729.068.05387.13805.08115.20637-.058-2.74745-.28767-5.48829-.40776-8.23341-.12032-2.75086.03762-5.49513.14333-8.24413.51145-13.30033 1.896-26.48664 5.51581-39.33382 2.34458-8.32124 5.46124-16.36569 10.84514-23.26777 2.92894-3.75472 6.54073-6.83438 11.36685-7.83256 6.28819-1.30062 11.99225.48836 17.03314 4.19544 4.72827 3.47724 7.04611 8.577 8.39772 14.12705a44.91181 44.91181 0 0 1 .3591 17.29174 156.9395 156.9395 0 0 1-10.65937 38.24827 179.87419 179.87419 0 0 1-22.03081 39.01707 56.69369 56.69369 0 0 1-8.44669 9.11951c-2.22092 1.89081-3.51757 1.73535-4.95445-.78692a46.59863 46.59863 0 0 1-4.485-11.78744l-.21492-.09125c-.08457.16914-.16665.37434-.26241.61934a6.85916 6.85916 0 0 1-.62182 1.29277.8245.8245 0 0 0 .02612 1.05026c2.55445 4.30985 2.53082 8.8902 2.1714 12.80272a48.608 48.608 0 0 1-2.13907 9.65318l2.49227 6.7132-4.74824-5.68222a1.47037 1.47037 0 0 1-.32833-1.12425 33.39258 33.39258 0 0 0-1.48864-7.69942 11.2596 11.2596 0 0 0-1.74733-3.318 36.99969 36.99969 0 0 1-1.64534 11.50622 94.20551 94.20551 0 0 1-3.532 9.744l-.592 1.465-1.09923-.38732c-.1532.32552-.30578.65128-.46124.97626.04252-.36143.09794-.72341.152-1.08524l-.99173-.34938c1.05213-3.45858.70888-7.28653-1.07824-12.04721a34.69062 34.69062 0 0 0-8.52644-12.55337 30.27653 30.27653 0 0 1-.06094 7.32508c-.86433 5.58646-3.1713 10.92544-7.26041 16.80291a2.57414 2.57414 0 0 1-1.23991 1.09565l-2.07316.81584.34946-2.20126a10.77836 10.77836 0 0 0 .20272-2.62907 51.9066 51.9066 0 0 0-4.507-15.97712 1.32757 1.32757 0 0 0-.07462-.148 1.56723 1.56723 0 0 0-.245.11442 5.51092 5.51092 0 0 0-2.0346 2.13285 17.38262 17.38262 0 0 0-1.94009 5.32281 77.23269 77.23269 0 0 0-1.37423 10.42424c-.19525 2.66016-.194 5.23949-.1654 7.41214l.01492 1.16654-.268.02751.00311.0098-.74859.07423q-.01074 1.17489-.02286 2.34994c-.286-.75333-.5371-1.51157-.79647-2.26864l-1.32853.13175-.31962-.98248a71.01113 71.01113 0 0 1-3.532-21.35093 23.73616 23.73616 0 0 0-1.34065 9.305l.11317 2.18882.46512 4.92359-.24-.587.03482.65789-3.41132-8.00038c-.44274-1.02228-.88548-2.0458-1.29837-3.08051a51.22994 51.22994 0 0 1-3.29442-12.26111 13.25525 13.25525 0 0 1 .19525-5.35763.92958.92958 0 0 0 .04851-.27609c-.00747-.00124-.05348-.051-.16665-.12436a10.36379 10.36379 0 0 1-3.60036-4.11026 41.52335 41.52335 0 0 1-3.089-7.94892 50.24813 50.24813 0 0 1-5.31931 15.39611c-1.41916 2.52631-2.70058 2.62029-4.942.67546-5.8966-5.11636-10.37411-11.37875-14.55152-17.88807a183.46638 183.46638 0 0 1-20.65464-43.19348 145.066 145.066 0 0 1-5.8697-25.19044 60.18222 60.18222 0 0 1-.72248-9.41379 33.91766 33.91766 0 0 1 4.345-16.27459c3.2341-5.63512 8.3657-8.71291 14.59878-10.0126 8.68353-1.81067 14.8723 2.28419 19.70651 8.87832 5.10377 6.96193 8.03885 14.97856 10.33976 23.221a137.30845 137.30845 0 0 1 3.86 20.93158c.72241 6.13125 1.17478 12.27207 1.4117 18.44437.10633 2.76944.06793 5.5266.01251 8.285a238.58924 238.58924 0 0 1 1.07218-2.83878l3.64513-9.54187-.60441 8.57183a59.28812 59.28812 0 0 0 .23878 9.21418 46.51545 46.51545 0 0 0 1.00859 6.61433 86.35058 86.35058 0 0 1 4.10777-12.521l1.0459-5.4279.31 1.13786c-.68439-9.32035-1.49222-18.62741-3.07375-27.85115-1.7837-10.40326-3.67147-20.78421-7.05746-30.818a66.64755 66.64755 0 0 0-11.33327-21.39523c-6.57835-8.006-16.15606-10.82407-26.052-7.71737-8.338 2.61757-15.43723 6.98712-20.24214 14.50792-5.318 8.3238-6.96271 17.65084-6.86967 27.29679.08294 8.59819 1.65592 17.04022 3.68353 25.3885 3.35419 13.81 8.57074 26.94586 14.39668 39.86307 5.0265 11.14437 10.71486 21.94787 16.7352 32.58183zm70.07769 63.3093a47.3721 47.3721 0 0 1 13.51533-22.96168 21.72765 21.72765 0 0 1 13.82539-6.03332 14.79438 14.79438 0 0 1 8.41295 2.03756c8.50243 4.9843 14.35052 12.075 16.88274 21.68593a16.83929 16.83929 0 0 1-4.29936 16.615 46.51676 46.51676 0 0 1-27.03377 14.37251 67.813 67.813 0 0 1-7.38423.46661 29.20315 29.20315 0 0 1-5.29552-.0712 8.82375 8.82375 0 0 1-6.65033-5.36952 28.96136 28.96136 0 0 1-1.9732-20.74189zm-59.26286-25.38765a20.24735 20.24735 0 0 1 10.37232-3.857 13.88739 13.88739 0 0 1 7.15773 1.61767c10.30322 5.253 16.83975 13.58847 20.03872 24.61861a39.38017 39.38017 0 0 1 1.93123 11.67861 26.03007 26.03007 0 0 1-2.69638 11.58962 9.911 9.911 0 0 1-9.78439 6.11882c-13.25463-.12475-25.24121-3.733-35.01168-13.14316-3.08743-2.97356-5.63465-6.321-6.5698-10.651a15.78442 15.78442 0 0 1 .36151-8.13912 36.37082 36.37082 0 0 1 14.20074-19.83305z" class="cls-2"/><path d="M237.28664 303.67274c1.8926 6.716 2.24331 13.40861-.395 20.028-2.48722 6.24039-6.69587 11.22438-11.75907 15.47952a51.7208 51.7208 0 0 1-30.41407 12.04736 124.24784 124.24784 0 0 1-14.735.3371c-11.44007-.54316-22.88885-1.193-33.91035-4.7578-6.1332-1.9837-11.74415-4.85978-16.206-9.669-4.41611-4.76006-6.56031-10.47322-7.24813-16.84006-.16626-1.539.05379-3.1193-.47732-4.61906-.12281.42711-.2457.8543-.45852 1.59443-.28806-.67926-.57091-1.33933-.85408-2.001l-.12716.1553.24.67655a8.5561 8.5561 0 0 1 .32334 2.644c.01368.56337.02736 1.128.0883 1.68638.77355 7.15843 3.25214 12.90532 7.58 17.569 4.15751 4.4821 9.47907 7.66459 16.74819 10.01508 10.7165 3.46605 21.39569 4.2085 34.24131 4.81913 1.43144.06716 2.86039.09576 4.26447.09576 3.90256 0 7.6136-.22012 10.622-.43652a53.21543 53.21543 0 0 0 31.14216-12.34194c5.82026-4.89127 9.78625-10.11956 12.12306-15.98335 2.48854-6.24186 2.63156-13.06077.43777-20.84476l-.24749-.87552-.4638-.02589c-.1724.41554-.34037.83247-.51472 1.2473z" class="cls-2"/><path d="M167.36013 340.52284a42.456 42.456 0 0 0 24.57881 1.49471 41.89619 41.89619 0 0 0 23.445-15.30851 21.71319 21.71319 0 0 0 3.75542-5.7528 1.48928 1.48928 0 0 0-1.01069.4802 110.27662 110.27662 0 0 1-10.18889 6.913c-11.21606 6.652-23.15872 8.88415-35.98336 6.05213-9.11655-2.01323-17.50346-5.80231-25.626-10.27151-1.59731-.87887-3.185-1.77507-4.85434-2.70641a1.22385 1.22385 0 0 0 .43442.97487 55.22709 55.22709 0 0 0 25.44963 18.12432zm4.32144-4.87743c12.78842 2.82184 25.20747.73873 36.9077-6.20082 2.00227-1.18768 4.03812-2.50221 6.15232-3.97345l-.35569.44523a40.34886 40.34886 0 0 1-22.74629 14.86406 40.90185 40.90185 0 0 1-23.85687-1.4588 54.18388 54.18388 0 0 1-21.37456-13.69752c9.36839 5.09646 17.41727 8.28642 25.27339 10.0213zm65.92943-33.50756a80.8332 80.8332 0 0 0-12.9476-21.16562 84.622 84.622 0 0 0-22.31973-19.15838 49.84742 49.84742 0 0 0-20.703-7.20569 34.88373 34.88373 0 0 0-17.84881 2.787 57.12138 57.12138 0 0 0-15.82043 10.78614 101.44081 101.44081 0 0 0-15.29064 17.88488 67.15342 67.15342 0 0 0-10.54114 25.17763c-.06094.332-.10944.67032-.1567 1.00984a5.093 5.093 0 0 1-.82578 2.61787l-.328.40061c.28317.6617.566 1.32177.85408 2.001.21282-.74013.33571-1.16732.45852-1.59443.99693-4.41907 1.74429-8.89682 3.28439-13.18444a76.05991 76.05991 0 0 1 12.28715-21.80952c5.643-7.07371 11.80306-13.64016 19.4207-18.66146a38.10684 38.10684 0 0 1 16.98946-6.50458 37.39009 37.39009 0 0 1 12.46188.82345c9.15565 2.13332 17.05374 6.7331 24.3349 12.46343a86.63847 86.63847 0 0 1 24.55207 30.66747c.66558 1.37034 1.2124 2.79836 1.81432 4.19956.17435-.41483.34232-.83176.51472-1.2473l-.09335-.00521c-.02985-.09819-.06219-.19271-.09701-.28225z" class="cls-2"/><path d="M129.86722 337.13787c4.46181 4.80926 10.07276 7.68534 16.206 9.669 11.0215 3.56483 22.47028 4.21464 33.91035 4.7578a124.24784 124.24784 0 0 0 14.735-.3371 51.7208 51.7208 0 0 0 30.41407-12.04736c5.0632-4.25514 9.27185-9.23913 11.75907-15.47952 2.63832-6.61938 2.28761-13.312.395-20.028v-.00008c-.67118-.03754-.69271-.64755-.85819-1.06044a79.74647 79.74647 0 0 0-12.74955-20.8331 82.96224 82.96224 0 0 0-21.9862-18.86985 48.87174 48.87174 0 0 0-20.1784-7.03437 33.50351 33.50351 0 0 0-17.20507 2.68379 55.93415 55.93415 0 0 0-15.46824 10.553 99.55047 99.55047 0 0 0-15.09888 17.65985 66.36251 66.36251 0 0 0-10.3497 24.70426c-.26552 1.42639-.24772 2.97908-1.25064 4.20291.53111 1.49976.31106 3.08.47732 4.61906.68775 6.36693 2.83195 12.08009 7.24806 16.84015zm-5.36089-24.53225c.041-.30221.08332-.60193.138-.89667a64.648 64.648 0 0 1 10.15811-24.23245 98.94525 98.94525 0 0 1 14.90759-17.43468 54.63253 54.63253 0 0 1 15.11652-10.31854 32.337 32.337 0 0 1 16.5604-2.58056 47.33248 47.33248 0 0 1 19.65583 6.86244 82.06113 82.06113 0 0 1 21.65064 18.58132 78.32458 78.32458 0 0 1 12.55213 20.499c.01989.0485.03482.10322.051.15794a2.4295 2.4295 0 0 0 .93522 1.3991c1.85676 6.96193 1.68389 13.04834-.52233 18.5863-2.17763 5.46334-5.90484 10.36206-11.39678 14.976a50.73216 50.73216 0 0 1-29.6846 11.75246 124.37609 124.37609 0 0 1-14.583.33578c-12.6541-.60068-23.16167-1.32821-33.5797-4.69725-6.83757-2.2112-11.81464-5.17481-15.66373-9.32486-3.94111-4.24705-6.2033-9.51638-6.91591-16.1102-.05224-.48751-.06219-.97875-.07338-1.47a12.56433 12.56433 0 0 0-.27484-2.78328 8.27269 8.27269 0 0 0 .96883-3.30185z" class="cls-2"/><path d="M166.93706 341.72436a46.07915 46.07915 0 0 0 15.35281 2.71985 42.17966 42.17966 0 0 0 9.94918-1.18892 43.3718 43.3718 0 0 0 24.14166-15.75452l.43777-.54844a20.29928 20.29928 0 0 0 3.5133-5.54791l.63674-1.69882-1.81323-.02239h-.03229a2.6236 2.6236 0 0 0-1.761.73748 108.85011 108.85011 0 0 1-10.07105 6.8326c-11.12566 6.59879-22.92289 8.58613-35.05964 5.90483-7.80512-1.72369-15.84032-4.94722-25.28582-10.14318-1.0571-.582-2.11047-1.17151-3.185-1.77344l-3.45858-1.9289-.09825 2.05078a2.38977 2.38977 0 0 0 .70888 1.82567 56.72117 56.72117 0 0 0 26.02452 18.53531zm-20.6066-17.59426c8.12249 4.4692 16.5094 8.25828 25.626 10.27151 12.82464 2.832 24.7673.59991 35.98336-6.05213a110.27662 110.27662 0 0 0 10.18889-6.913 1.48928 1.48928 0 0 1 1.01069-.4802 21.71319 21.71319 0 0 1-3.75542 5.7528 41.89619 41.89619 0 0 1-23.445 15.30851 42.456 42.456 0 0 1-24.57881-1.49471 55.22709 55.22709 0 0 1-25.44959-18.12428 1.22385 1.22385 0 0 1-.43442-.97487c1.66932.93127 3.25699 1.8275 4.8543 2.70637z" class="cls-2"/><path d="M191.43192 321.13828a4.27565 4.27565 0 0 0 1.79707.4017 4.77134 4.77134 0 0 0 1.85428-.39548 92.44642 92.44642 0 0 0 15.65875-8.16579 61.05461 61.05461 0 0 0 5.972-4.47712 17.6359 17.6359 0 0 0 5.97572-9.60842l.04975-.22012c.43279-1.90776.924-4.07046.06094-6.25554-1.6752-4.23462-7.881-8.44188-12.52974-8.49287-.04851 0-.097-.00124-.14551-.00124-6.34633 0-10.83838 4.48708-11.19655 11.20525a28.63412 28.63412 0 0 1-4.05553 13.21872l-.15173.26241c-.05969.10571-.11939.21142-.1853.31713-.919 1.475-1.92143 2.94744-2.89148 4.37142-.58451.85812-1.169 1.71623-1.7411 2.58181a3.54951 3.54951 0 0 0-.61561 2.99843 3.6108 3.6108 0 0 0 2.14404 2.25971zm-.46645-4.556c1.54251-2.33254 3.17309-4.60927 4.65109-6.98152.12405-.19914.23287-.40318.3521-.60387a29.73914 29.73914 0 0 0 4.23174-13.79935c.3253-6.10312 4.36746-10.0604 10.05714-9.999 4.073.04391 9.86258 3.90536 11.35838 7.6883.74782 1.89112.25821 3.83812-.16906 5.72559a16.36107 16.36107 0 0 1-5.561 8.92184 60.24336 60.24336 0 0 1-5.84926 4.384 92.38319 92.38319 0 0 1-15.44663 8.05191 3.13736 3.13736 0 0 1-2.6269.0098c-1.5675-.7221-1.95147-1.9554-.9976-3.39772zm-42.25778-6.65299c.888.71385 1.85925 1.4302 3.05564 2.25349a111.65962 111.65962 0 0 0 15.19114 8.315 12.04093 12.04093 0 0 0 2.88775.88921 4.19121 4.19121 0 0 0 .8009.07835 4.26322 4.26322 0 0 0 3.31183-1.66276c.94891-1.16032.82579-2.5246-.36563-4.053a9.99258 9.99258 0 0 1-.90662-1.52969 10.50238 10.50238 0 0 0-1.24115-2.00227 27.438 27.438 0 0 1-2.9574-4.27068 29.67962 29.67962 0 0 1-3.66627-13.22742c-.347-6.24933-4.99075-10.78988-11.04233-10.7961h-.0112a12.90186 12.90186 0 0 0-8.92689 3.61528 12.17814 12.17814 0 0 0-2.0259 16.10025 27.4794 27.4794 0 0 0 5.89613 6.29034zm-3.00924-21.45306a11.66 11.66 0 0 1 8.07539-3.27957 9.75282 9.75282 0 0 1 9.77335 9.59419 31.121 31.121 0 0 0 3.82794 13.78178 28.83217 28.83217 0 0 0 3.0928 4.46531c.83876.99391 1.26307 2.39868 2.1166 3.49364.54472.69885 1.10561 1.583.38367 2.46483a2.90867 2.90867 0 0 1-2.8806 1.14089 10.79523 10.79523 0 0 1-2.58274-.78707 109.72337 109.72337 0 0 1-15.01843-8.21538c-1.01357-.69869-2.01393-1.42009-2.98172-2.19744a26.28193 26.28193 0 0 1-5.62828-5.99819 10.87771 10.87771 0 0 1 1.82202-14.46299z" class="cls-2"/><path d="M133.74211 286.77158a99.55047 99.55047 0 0 1 15.09889-17.65985 55.93415 55.93415 0 0 1 15.46824-10.553 33.50351 33.50351 0 0 1 17.20507-2.68379 48.87174 48.87174 0 0 1 20.1784 7.03437 82.96224 82.96224 0 0 1 21.9862 18.86985 79.74647 79.74647 0 0 1 12.74955 20.8331c.16548.41289.187 1.0229.85819 1.06044-.60192-1.4012-1.14874-2.82922-1.81432-4.19956a86.63847 86.63847 0 0 0-24.55207-30.66747c-7.28116-5.73033-15.17925-10.33011-24.3349-12.46343a37.39009 37.39009 0 0 0-12.46188-.82345 38.10684 38.10684 0 0 0-16.98946 6.50458c-7.61764 5.0213-13.77773 11.58775-19.4207 18.66146a76.05991 76.05991 0 0 0-12.28715 21.80952c-1.5401 4.28762-2.28746 8.76537-3.28439 13.18444 1.00292-1.22383.98512-2.77652 1.25064-4.20291a66.36251 66.36251 0 0 1 10.34969-24.7043zm77.51074-176.88229a1.18884 1.18884 0 0 1 .63674.82462c1.37587 4.47363 2.67835 8.971 2.48007 13.71672-.05807 1.38993.09793 2.89288-.93235 4.08833.7259.29949.70157 1.03884.86239 1.64084.00785.02946.0171.05837.025.08783l.34846-1.42685c1.3108-5.367.28106-10.52871-.89916-14.8709-.2736-1.008-.57581-2.00849-.87677-3.009l-.74122-2.36729-.452.01026a3.63206 3.63206 0 0 1-.35957 1.28182.84926.84926 0 0 1-.09149.00171l-.00015.02168zm-64.04873-7.11047a52.07566 52.07566 0 0 0-2.01222 16.94469c.056.88361.15048 1.76473.24748 2.64586l.21142 2.0601.12079.0272c-.0593-.26544-.13454-.52412-.18919-.79142l-.02238-.15546-.15048-1.73489.80852.17683c-.06288-.44561-.067-.903-.08915-1.34282a49.89773 49.89773 0 0 1 1.50061-15.888c.16175-.587.21865-1.23572.78972-1.62474-.59734-.626-.39012-1.3925-.31045-2.10977l-.33135-.3305zm39.92758-.34666l.00016.00007a2.543 2.543 0 0 1 1.75843.69435c-.2237-.36377-.42781-.73608-.66574-1.09332l-2.83427-4.25763.36144 3.62578c.047.01819.09483.03264.14177.05114a2.42554 2.42554 0 0 1 1.23821.97961zm7.59355 10.09592a13.80008 13.80008 0 0 1 4.3083-3.00263h.00008c.03988-.46948.07788-.93911.11745-1.40866l-.57317.21927a13.81044 13.81044 0 0 0-4.27387 2.8607c.04089.15452.0897.30422.126.46147.06871.29824.02448.63884.29521.86985zM159.49648 99.5427l-.00008.00016.00008-.00008a80.88578 80.88578 0 0 1 .55583 9.22521 26.84733 26.84733 0 0 0 2.81942 7.026c1.57625-4.20523 2.869-8.24545 1.70022-12.815 1.50474.94875 2.2231 2.35524 3.33787 3.36578.26816-.33913.55008-.65346.83278-.96632a11.58286 11.58286 0 0 1-1.02578-1.134 10.32587 10.32587 0 0 0-2.46615-2.34241l-2.70617-1.70628.79344 3.09917a16.1616 16.1616 0 0 1-.674 9.2633 26.64762 26.64762 0 0 1-1.37672-4.10155l-.05472-.21826-.12685-.18655a5.85109 5.85109 0 0 1-.71012-2.94433c-.03358-.45579-.06965-.91035-.13183-1.35619a5.69394 5.69394 0 0 1 .11939-2.69561 2.08564 2.08564 0 0 0 .0684-1.26354L159.32 95.639q.06891.93891.138 1.87767c.04843.67279.02728 1.35057.03848 2.02603z" class="cls-2"/><path d="M211.25285 109.88906l.00015-.02168-.00917.00023.009.02168zm-12.46227 44.25913a38.4123 38.4123 0 0 0-10.28729-14.56435c-.05371-.04935-.16175-.03956-.40209-.09133 1.9617 10.45308-2.0025 19.10373-7.95864 27.21557a.70259.70259 0 0 1-.30189-.847c.79492-5.66481-1.14377-10.82734-2.93983-16.01195-.3832-1.10614-.93219-2.15555-1.30171-3.26535-.38389-1.15324-.962-1.08492-1.82544-.52085a8.15085 8.15085 0 0 0-2.97558 3.93342 40.02818 40.02818 0 0 0-2.32872 10.63147 95.72973 95.72973 0 0 0-.57457 10.31768c.08441.27943.15686.56057.24484.83954l.47072 1.49377.268-.02751-.01492-1.16654c-.02861-2.17265-.02985-4.752.1654-7.41214a77.23269 77.23269 0 0 1 1.37423-10.42424 17.38262 17.38262 0 0 1 1.94009-5.32281 5.51092 5.51092 0 0 1 2.0346-2.13285 1.56723 1.56723 0 0 1 .245-.11442 1.32757 1.32757 0 0 1 .07462.148 51.9066 51.9066 0 0 1 4.507 15.97712 10.77836 10.77836 0 0 1-.20272 2.62907l-.34946 2.20126 2.07316-.81584a2.57414 2.57414 0 0 0 1.23991-1.09565c4.08911-5.87747 6.39608-11.21645 7.26041-16.80291a30.27653 30.27653 0 0 0 .06094-7.32508 34.69062 34.69062 0 0 1 8.52644 12.55337c1.78712 4.76068 2.13037 8.58863 1.07824 12.04721l.99173.34938a26.2143 26.2143 0 0 0 .47772-4.76868 23.75341 23.75341 0 0 0-1.57019-7.62736zm14.64471-25.62674c-.5235 1.08773-1.028 2.18524-1.579 3.2589a1.21063 1.21063 0 0 0 .0607 1.36032c2.436 3.94585 2.63715 8.26426 2.18237 12.73641a47.12591 47.12591 0 0 1-2.25955 9.79551h-.00008c-.025.24974-.04586.59679-.33353.58233-.35405-.0178-.15522-.38172-.19743-.59539-.63193-4.07636-.88042-8.26364-3.45617-11.7722a2.86231 2.86231 0 0 0-1.70294-1.35993c.54184 8.728-2.37583 16.51617-5.95738 24.12581l1.09923.38732.592-1.465a94.20551 94.20551 0 0 0 3.532-9.744 36.99969 36.99969 0 0 0 1.64534-11.50622 11.2596 11.2596 0 0 1 1.74733 3.318 33.39258 33.39258 0 0 1 1.48864 7.69942 1.47037 1.47037 0 0 0 .32833 1.12425l4.74824 5.68222-2.49227-6.7132a48.608 48.608 0 0 0 2.13907-9.65318c.35942-3.91252.383-8.49287-2.1714-12.80272a.8245.8245 0 0 1-.02612-1.05026 6.85916 6.85916 0 0 0 .62182-1.29277c.09576-.245.17784-.4502.26241-.61934l.21492.09125c-.05923-.23435-.12149-.46761-.17877-.70266-.07372-.30199-.20384-.5902-.30776-.88487zM157.96415 99.929a86.35058 86.35058 0 0 0-4.10777 12.521 46.51545 46.51545 0 0 1-1.00859-6.61433 59.28812 59.28812 0 0 1-.23878-9.21418l.60441-8.57183-3.64513 9.54187a238.72036 238.72036 0 0 0-1.07218 2.83878q-.02658 1.32355-.05425 2.648 1.45845-3.82142 2.91705-7.64283c.2153 6.84363.43022 13.61855 2.58717 20.19643a90.73738 90.73738 0 0 1 5.02223-15.84965l.00032.00008q.264-.12.52777-.23948l.00008-.00016c-.0112-.67546.01-1.35324-.0384-2.02606q-.06751-.939-.138-1.87767l-.31-1.13786z" class="cls-2"/><path d="M199.03371 109.52545a19.08522 19.08522 0 0 1 4.8018-1.27194c.33112-.05791.80868-.20878.99857.12514.16742.29451-.06421.68844-.26008 1.00184a19.33041 19.33041 0 0 0-2.85681 6.66042 12.52253 12.52253 0 0 0 .14931 5.48542c.24158.932.75622 1.231 1.70613.79337 2.32927-1.073 3.39741-3.08044 4.18984-5.35507.88843-2.55048.85307-5.21453 1.04661-7.84678.10789-1.46813.01943-2.95063.25775-4.4898q1.08849 2.61971 2.177 5.23956l.00917-.00023c.01734-.75793.0077-1.51477-.00824-2.27137-.02728-.06832-.05386-.13835-.08115-.20637-.26365-.65851-.52233-1.30209-.72753-1.92081l-2.4276-7.34249-.05845 8.33243a35.64927 35.64927 0 0 1-1.05585 10.23521 8.42528 8.42528 0 0 1-2.49973 4.05864 3.31624 3.31624 0 0 1-1.07327.67282c-.24251.08394-.38056.10322-.41289.12312a1.51075 1.51075 0 0 1-.14426-.3476 10.24683 10.24683 0 0 1-.10447-5.25068 14.887 14.887 0 0 1 1.79334-4.56169 11.3714 11.3714 0 0 0 1.11182-2.27587l.59322-1.73676-1.83438.05224a16.2373 16.2373 0 0 0-4.25078.74059c-.14551.04353-.291.10135-.43777.16105l-.056.02425-.37061-.2593-.05736.022c-.03957.46955-.07757.93918-.11745 1.40866z" class="cls-2"/><path d="M159.18556 100.62079a.826.826 0 0 0 .03669-.49412c-.01.05161-.0192.10353-.02814.15553a77.28219 77.28219 0 0 0-4.48 14.30163c-.0904.48937-.17971 1.15045-.71945 1.18084-.63869.036-.76422-.67872-.90421-1.17571a45.97866 45.97866 0 0 1-1.51072-8.64739 60.33231 60.33231 0 0 1-.24056-9.40982c-.74977 1.96543-1.46277 3.76343-2.1097 5.58654-.14535.40963-.23621.89473-.78178 1.00914l-.01462-.016a50.815 50.815 0 0 0-1.96993 16.53273c.05037.80464.1347 1.60733.222 2.40972l.422.09226a1.92316 1.92316 0 0 1 .97051.52583c-.02036-.02044-.03093-.04469-.05269-.06444l-.05473-.51424c-.09078-.84195-.18281-1.68452-.23629-2.529a48.9726 48.9726 0 0 1 1.77344-15.53688 2.15508 2.15508 0 0 0 .59944-.6896c.05845.91968.12934 1.82381.204 2.70991a46.81207 46.81207 0 0 0 1.55456 8.88772l.03482.12872c.1368.50989.57829 2.08124 2.16643 1.97242 1.51227-.08581 1.79334-1.6354 1.90029-2.22178a57.038 57.038 0 0 1 2.07938-7.78584 6.31074 6.31074 0 0 0 .82329 2.256 27.78175 27.78175 0 0 0 2.90019 7.14662l1.34811 2.33245.94641-2.52273a27.47487 27.47487 0 0 0 2.23111-9.7334c.14675.16727.29971.3333.46015.495a3.31093 3.31093 0 0 0 .62431 1.03658c.05223.064.10571.12747.153.19525a38.46345 38.46345 0 0 1 4.06051 6.85747c.28728.67157.5671 1.34749.88921 2.1285l2.06569 4.98142.84444-4.02754a53.10616 53.10616 0 0 1 2.97107-9.74522 40.72415 40.72415 0 0 0 3.46356 10.51441 1.95476 1.95476 0 0 0 1.57072 1.3077 1.85372 1.85372 0 0 0 1.659-1.021 22.25486 22.25486 0 0 0 3.915-10.6083c1.08073 2.31567 1.98486 4.69414 2.833 7.00173l.87677 2.38842 3.02331-4.65559a13.64908 13.64908 0 0 1 3.34292-2.455 2.576 2.576 0 0 0 1.56078-.21764 1.89122 1.89122 0 0 1 .19276-.07462c.48751-.1455.93647-.26365 1.36428-.3563a17.38132 17.38132 0 0 0-1.99854 5.16735 12.89476 12.89476 0 0 0 .16292 6.53039 2.8926 2.8926 0 0 0 1.40283 1.87169 3.00339 3.00339 0 0 0 2.42263.0087 5.77493 5.77493 0 0 0 1.90651-1.15286 10.88872 10.88872 0 0 0 3.26706-5.24072 26.65571 26.65571 0 0 0 1.0372-6.06838l.092.30656c.29474.97813.58949 1.95626.85811 2.94185 1.05462 3.8808 1.98486 8.44622 1.00238 13.07072a4.84277 4.84277 0 0 0-1.24738 2.02093 4.68125 4.68125 0 0 1-.37806.82267 3.33847 3.33847 0 0 0-.03483 3.74773c2.1826 3.68306 2.14778 7.76346 1.82443 11.2693a31.93724 31.93724 0 0 1-.57829 3.69985q-.29475-1.1995-.67157-2.38034a13.73453 13.73453 0 0 0-2.13659-4.07419l-.08829-.11814c-.45145-.61685-1.51477-2.05824-3.18747-1.44636-1.5073.55218-1.38169 2.13161-1.32822 2.80566l.0199.27858a34.51725 34.51725 0 0 1-1.54709 10.82346c-.35817 1.26354-.76858 2.50967-1.20758 3.7384a30.01176 30.01176 0 0 0-1.55954-5.62377 37.29317 37.29317 0 0 0-9.2291-13.57565 4.27555 4.27555 0 0 1-.286-.32583c-.42532-.51114-1.5558-1.86423-3.11409-1.05462-1.37671.71883-1.05212 2.26717-.91283 2.92879a4.1872 4.1872 0 0 1 .08083.45145 28.4066 28.4066 0 0 1-.0286 6.85249 34.716 34.716 0 0 1-5.07159 13.05207 55.74029 55.74029 0 0 0-4.604-15.77068 2.677 2.677 0 0 0-1.57321-1.58317 2.81113 2.81113 0 0 0-2.3194.33952 7.96518 7.96518 0 0 0-2.99346 3.06932 20.15327 20.15327 0 0 0-2.23608 6.08392 79.64116 79.64116 0 0 0-1.42149 10.76625c-.02044.2778-.03956.5556-.05534.83339.33089 1.53505.72217 3.06334 1.15753 4.58634.00458-1.77352.03606-3.54766.167-5.327a78.77459 78.77459 0 0 1 1.39872-10.59478 18.88 18.88 0 0 1 2.08785-5.70345 6.771 6.771 0 0 1 2.51341-2.60155c.96685-.53741 1.66936-.36509 2.1065.64032a53.46169 53.46169 0 0 1 4.6074 16.36569 11.82554 11.82554 0 0 1-.21305 2.9476 1.39446 1.39446 0 0 0 .65936-.63846c3.44405-4.94885 6.11564-10.24352 7.04814-16.26985a29.53056 29.53056 0 0 0 .03886-7.16122c-.066-.73679-.54511-1.774.1525-2.13775.837-.43637 1.37112.624 1.92089 1.162a36.21326 36.21326 0 0 1 8.92682 13.11285c1.59031 4.2385 2.401 8.5978 1.10358 12.86475a110.54466 110.54466 0 0 0 4.08079-11.07988 35.91008 35.91008 0 0 0 1.59506-11.21894c-.025-.65027-.24018-1.57889.47375-1.83982.83184-.30407 1.35884.51464 1.81658 1.12939a12.57584 12.57584 0 0 1 1.94491 3.69946 34.1575 34.1575 0 0 1 1.54966 8.08316c.01414.1-.04944.21336.03272.312a.85944.85944 0 0 1-.00443-.37566 47.79118 47.79118 0 0 0 2.153-9.609c.386-4.1872.22432-8.28719-1.99777-12.03484a2.07994 2.07994 0 0 1 .00474-2.40016c.58141-.88664.64141-2.0779 1.60213-2.74286.02682.00917.05029.02028.07532.03062 1.18123-4.83709.3811-9.55268-.89123-14.23431-.4003-1.47326-.85959-2.9305-1.29191-4.39482l-.009-.02168c-.52909.01189-.65773-.45308-.798-.82275-.41492-1.09418-.88595-2.168-1.21917-3.17612-.02549 3.69208.01384 7.49818-1.11531 11.19709a9.66871 9.66871 0 0 1-2.88425 4.64992 4.567 4.567 0 0 1-1.48981.9126c-1.17292.407-1.82272.14-2.1903-1.05313a11.60194 11.60194 0 0 1-.13385-5.89 16.06921 16.06921 0 0 1 1.91514-4.89709 10.3924 10.3924 0 0 0 1.03114-2.08738 14.80682 14.80682 0 0 0-3.92246.6882c-.451.13455-.89838.49-1.4033.13649h-.00016a13.80008 13.80008 0 0 0-4.3083 3.00263c-.53189.8191-1.06386 1.63812-1.72548 2.65674a58.15619 58.15619 0 0 0-5.83465-12.446 34.88668 34.88668 0 0 1 .56369 5.38515 20.99546 20.99546 0 0 1-3.74066 10.41336c-.55086.84887-.78474.30967-1.05119-.22191a41.103 41.103 0 0 1-3.62943-11.81775c-.114-.68634-.22813-1.3726-.37721-2.26973a51.88035 51.88035 0 0 0-4.784 13.68547c-.55264-1.33008-.957-2.33106-1.38286-3.32279a39.336 39.336 0 0 0-4.18984-7.09034c-.25549-.36182-.6219-.668-.6638-1.15543v-.00007c-1.11477-1.01054-1.83313-2.417-3.33787-3.36578 1.1688 4.56955-.124 8.60977-1.70022 12.815a26.84733 26.84733 0 0 1-2.81942-7.026c-.999-1.46828-.82143-3.21133-1.04987-4.84027a6.851 6.851 0 0 1 .18312-3.30697zm8.45291 74.35809c-.01088-.53065-.01811-1.0606-.02705-1.59086l-.304.03016a5.55536 5.55536 0 0 1 .33105 1.5607z" class="cls-2"/><path d="M148.44769 103.12743c.54557-.11441.63643-.59951.78178-1.00914.64693-1.82311 1.35993-3.62111 2.1097-5.58654a60.33231 60.33231 0 0 0 .24056 9.40982 45.97866 45.97866 0 0 0 1.51072 8.64739c.14.497.26552 1.2117.90421 1.17571.53974-.03039.629-.69147.71945-1.18084a77.28219 77.28219 0 0 1 4.48-14.30163c.00894-.052.01811-.10392.02814-.15553a.596.596 0 0 0-.254-.3441l.00039-.00023-.00032-.00008a90.73738 90.73738 0 0 0-5.02223 15.84965c-2.15695-6.57788-2.37187-13.3528-2.58717-20.19643q-1.45857 3.82142-2.91705 7.64283l-.00879.03311zm-2.236 21.42827l-.4401-.099q.14749.65956.31348 1.31119c.05861-.27764.12732-.553.19486-.8285-.00388-.01834-.00971-.037-.01352-.05534-.02241-.10263-.03855-.21394-.05472-.32835zm8.4369 26.31742c-.94144-3.61155-2.00974-7.70314-1.18271-12.04845.0199-.10322.04228-.22012-.42035-.56337a12.60114 12.60114 0 0 1-3.8951-5.05853 39.10832 39.10832 0 0 1-2.69437-7.54248c-.05448.30485-.11651.60744-.17449.9112a41.52335 41.52335 0 0 0 3.089 7.94892 10.36379 10.36379 0 0 0 3.60036 4.11026c.11317.07337.15918.12312.16665.12436a.92958.92958 0 0 1-.04851.27609 13.25525 13.25525 0 0 0-.19525 5.35763 51.22994 51.22994 0 0 0 3.29442 12.26111c.41289 1.03471.85563 2.05823 1.29837 3.08051l3.41132 8.00038-.03482-.65789.24.587-3.60906-8.83362a62.45158 62.45158 0 0 1-2.84546-7.95312zM167.865 173.363l.748-.074-.003-.01-.745.076v.008zm-1.842.1818l-.3134-.99368a72.16111 72.16111 0 0 1-3.36531-23.71012 25.02941 25.02941 0 0 0-2.052 10.24268l.81086 8.57618-.46512-4.92359-.11317-2.18882a23.73616 23.73616 0 0 1 1.34065-9.305 71.01113 71.01113 0 0 0 3.532 21.35093l.31962.98248 1.32853-.13175-.00148-.00428zm.40914-8.19688l.00186-.02845c-.176-.81668-.3413-1.63454-.48758-2.454.14791.82871.30741 1.65653.48572 2.48245zm-1.41279-25.18757l-2.35546 3.81178c-.01446.00629-.03063.01865-.04524.02534a1.87087 1.87087 0 0 1 .77277-.182 1.58773 1.58773 0 0 1 .6666.1455 1.661 1.661 0 0 1 .74626.749 1.97842 1.97842 0 0 0-.12195-.23039z" class="cls-2"/><path d="M146.80872 123.38465a2.68512 2.68512 0 0 1-.59066-1.43292l-.80852-.17683.15048 1.73489.02238.15546c.05465.2673.12989.526.18919.79142l.4401.099c.01617.11441.03233.22572.05472.32832.00381.01834.00964.037.01352.05534a13.67084 13.67084 0 0 1 .4666-1.56777c.02223.00337.04147.00873.06219.01309zm14.54063 28.18243a21.02959 21.02959 0 0 1 .99492-2.72608 72.16111 72.16111 0 0 0 3.36531 23.71012l.3134.99368 1.02111-.10494c-.14185-.41405-.30065-.82578-.43567-1.24084a68.796 68.796 0 0 1-3.26628-26.90031 25.85414 25.85414 0 0 0-4.08934 15.314c-.62921-1.47769-1.28593-2.94433-1.88242-4.43516a49.72356 49.72356 0 0 1-3.21467-11.9561 11.887 11.887 0 0 1 .15818-4.84035 1.42351 1.42351 0 0 0-.65136-1.81985 9.16222 9.16222 0 0 1-3.15933-3.62313 40.65334 40.65334 0 0 1-3.6735-10.52762l-.00015-.00015q-.17175 1.12965-.37349 2.24991a39.10832 39.10832 0 0 0 2.69437 7.54248 12.60114 12.60114 0 0 0 3.8951 5.05853c.46263.34325.44025.46015.42035.56337-.827 4.34531.24127 8.4369 1.18271 12.04845a62.45158 62.45158 0 0 0 2.84546 7.95312l3.60906 8.83362-.81086-8.57618a21.13022 21.13022 0 0 1 1.0571-7.51657zm6.54547 19.37842c-.00521.37566-.01345.75116-.01741 1.127q-.00677.64125-.01244 1.283l.74541-.07664-.47072-1.49377c-.08798-.27902-.16043-.56016-.24484-.83959z" class="cls-2"/><path d="M166.43214 165.34792c-.17831-.82593-.33781-1.65374-.48572-2.48247-.04081-.22829-.07493-.45712-.11341-.68556q-.1764-1.04793-.32094-2.09819c-.03941-.28728-.078-.57472-.11379-.86223q-.14271-1.148-.2471-2.29787c-.014-.15515-.033-.31-.04594-.46505-.07594-.90755-.13027-1.816-.16991-2.72475-.01127-.25876-.01679-.51751-.02511-.77627q-.03335-1.03486-.03567-2.07021c-.00055-.27274-.0021-.54541.00062-.81816.00925-.91867.03055-1.83741.077-2.75584.00746-.16416.02736-.32584.04477-.48876a6.0083 6.0083 0 0 0 .04477-1.32572 2.31385 2.31385 0 0 0-.14488-.612 1.621 1.621 0 0 0-.09258-.17489 1.661 1.661 0 0 0-.74626-.749 1.58773 1.58773 0 0 0-.6666-.1455 1.87087 1.87087 0 0 0-.77277.182 2.49888 2.49888 0 0 0-.39377.2209 3.91205 3.91205 0 0 0-1.21007 1.52844 26.63148 26.63148 0 0 0-2.11544 5.12134c-.25122.88174-.5 1.81821-.70515 2.78825-.40543-1.12052-.776-2.26095-1.08073-3.42749-.87428-3.34914-1.86547-7.146-1.14539-10.92668a2.9985 2.9985 0 0 0-1.40408-3.0861 10.1675 10.1675 0 0 1-3.1029-4.086 35.52215 35.52215 0 0 1-2.70244-7.77154c-.01244-.05783-.0199-.11939-.02736-.1822-.00863-.06521-.02254-.15537-.04066-.25487-.00489-.0272-.01018-.05013-.01624-.07928a3.00527 3.00527 0 0 0-.0855-.32008c-.007-.02161-.011-.04019-.01881-.06211a2.34892 2.34892 0 0 0-.18251-.39206c-.018-.03117-.04-.05985-.06-.0907a1.89847 1.89847 0 0 0-.25-.30532 1.92316 1.92316 0 0 0-.97051-.52583l-.422-.09226c.04835.44483.09794.88952.14224 1.33466.65735.14769.58879.77713.68455 1.23425a37.21542 37.21542 0 0 0 2.79323 8.04375 11.45851 11.45851 0 0 0 3.49908 4.572 1.77828 1.77828 0 0 1 .91276 1.82482c-.75155 3.94492.17986 7.71877 1.16413 11.488a69.24587 69.24587 0 0 0 3.14339 8.65174 22.16035 22.16035 0 0 1 1.10016-7.98577 25.42306 25.42306 0 0 1 2.01658-4.87665 2.76587 2.76587 0 0 1 .80463-1.07319c.46078-.31822.77013-.21849.82921.35794a10.63656 10.63656 0 0 1-.09545 1.62078 70.46276 70.46276 0 0 0 3.24459 24.92136c.22122-.023.44336-.04446.66535-.06631-.00917-.73173.00008-1.46361.00195-2.19542-.43536-1.523-.82664-3.05129-1.15753-4.58634zm.87486 8.07008l.304-.03v-.006l-.305.031.001.005z" class="cls-2"/><path d="M166.92423 172.16754c.11574.36718.21756.73631.33921 1.10272.0157.04726.027.0953.04244.14263l.30547-.03132c-.00715-.42673-.0164-.85376-.02177-1.28034-.22199.02185-.44413.0433-.66535.06631zm-3.24459-24.92136a10.63656 10.63656 0 0 0 .09545-1.62078c-.05908-.57643-.36843-.67616-.82921-.35794a2.76587 2.76587 0 0 0-.80463 1.07319 25.42306 25.42306 0 0 0-2.01658 4.87665 22.16035 22.16035 0 0 0-1.10016 7.98577 69.24587 69.24587 0 0 1-3.14339-8.65174c-.98427-3.76926-1.91568-7.54311-1.16413-11.488a1.77828 1.77828 0 0 0-.91276-1.82482 11.45851 11.45851 0 0 1-3.49908-4.572 37.21542 37.21542 0 0 1-2.79323-8.04375c-.09576-.45712-.0272-1.08656-.68455-1.23425l.00226.02161-.00008.00024.00015.00015a40.65334 40.65334 0 0 0 3.6735 10.52762 9.16222 9.16222 0 0 0 3.15933 3.62313 1.42351 1.42351 0 0 1 .65136 1.81985 11.887 11.887 0 0 0-.15818 4.84035 49.72356 49.72356 0 0 0 3.21467 11.9561c.59649 1.49083 1.25321 2.95747 1.88242 4.43516a25.85414 25.85414 0 0 1 4.08934-15.314 68.796 68.796 0 0 0 3.26628 26.90031c.10486-.0112.2108-.0206.31581-.03148a70.46276 70.46276 0 0 1-3.24459-24.92137zm36.05144 20.38329c.15546-.325.308-.65074.46124-.97626l-.30928-.109c-.05404.36185-.10944.72379-.15196 1.08526z" class="cls-2"/><path d="M206.1497 142.5274a2.86231 2.86231 0 0 1 1.70294 1.35993c2.57575 3.50856 2.82424 7.69584 3.45617 11.7722l.531.013v.00008h.00008a47.12591 47.12591 0 0 0 2.25955-9.79551c.45478-4.47215.25362-8.79056-2.18237-12.73641a1.21063 1.21063 0 0 1-.0607-1.36032c.55093-1.07366 1.05546-2.17117 1.579-3.2589l.0007-.003c-.025-.01034-.0485-.02145-.07532-.03062-.96072.665-1.02072 1.85622-1.60213 2.74286a2.07994 2.07994 0 0 0-.00474 2.40016c2.22209 3.74765 2.38376 7.84764 1.99777 12.03484a47.79118 47.79118 0 0 1-2.153 9.609.85944.85944 0 0 0 .00443.37566c-.08216-.09864-.01858-.21205-.03272-.312a34.1575 34.1575 0 0 0-1.54966-8.08316 12.57584 12.57584 0 0 0-1.94491-3.69946c-.45774-.61475-.98474-1.43346-1.81658-1.12939-.71393.26093-.4987 1.18955-.47375 1.83982a35.91008 35.91008 0 0 1-1.59506 11.21894 110.54466 110.54466 0 0 1-4.08079 11.07988c1.29743-4.267.48673-8.62625-1.10358-12.86475a36.21326 36.21326 0 0 0-8.92682-13.11285c-.54977-.538-1.08384-1.5984-1.92089-1.162-.69761.36376-.21849 1.401-.1525 2.13775a29.53056 29.53056 0 0 1-.03886 7.16122c-.9325 6.02633-3.60409 11.321-7.04814 16.26985a1.39446 1.39446 0 0 1-.65936.63846 11.82554 11.82554 0 0 0 .21305-2.9476 53.46169 53.46169 0 0 0-4.6074-16.36569c-.43714-1.00541-1.13965-1.17773-2.1065-.64032a6.771 6.771 0 0 0-2.51341 2.60155 18.88 18.88 0 0 0-2.08785 5.70345 78.77459 78.77459 0 0 0-1.39872 10.59478c-.131 1.77934-.16245 3.55348-.167 5.327.09918.34682.19867.69357.30329 1.03969a95.72973 95.72973 0 0 1 .57457-10.31768 40.02818 40.02818 0 0 1 2.32872-10.63147 8.15085 8.15085 0 0 1 2.97558-3.93342c.86348-.56407 1.44155-.63239 1.82544.52085.36952 1.1098.91851 2.15921 1.30171 3.26535 1.79606 5.18461 3.73475 10.34714 2.93983 16.01195a.70259.70259 0 0 0 .30189.847c5.95614-8.11184 9.92034-16.76249 7.95864-27.21557.24034.05177.34838.042.40209.09133a38.4123 38.4123 0 0 1 10.28729 14.56435 23.75341 23.75341 0 0 1 1.57018 7.62736 26.2143 26.2143 0 0 1-.47772 4.76868l.30928.109c3.58145-7.6097 6.49912-15.39788 5.95728-24.12587z" class="cls-2"/><path d="M167.87741 172.07248c.004-.37582.0122-.75132.01741-1.127-.10462-.34612-.20411-.69287-.30329-1.03969-.00187.73181-.01112 1.46369-.00195 2.19542.096-.00946.19168-.01949.28783-.02873zm-.23894 2.9064a5.55536 5.55536 0 0 0-.331-1.5607l-.26186.026c.25937.75707.51043 1.51531.79647 2.26864q.01365-1.17535.02286-2.34994l-.25348.02518c.0089.53022.01613 1.06017.02701 1.59082zm-.33247-1.56588l-.262.027.002.004.261-.026-.001-.005z" class="cls-2"/><path d="M167.611 173.382v.006l.254-.025v-.008l-.254.027zm-.68677-1.21446c-.105.01088-.21095.02028-.31581.03148.135.41506.29382.82679.43567 1.24084l.26179-.027c-.01547-.04733-.02674-.09537-.04244-.14263-.12165-.36638-.22344-.73551-.33921-1.10269z" class="cls-2"/><path d="M167.61135 173.38157l.25362-.02612q.00584-.64137.01244-1.283c-.09615.00924-.19183.01927-.28783.02875.00542.42661.01462.85364.02177 1.28037zM200.437 109.389a14.80682 14.80682 0 0 1 3.92246-.6882 10.3924 10.3924 0 0 1-1.03114 2.08738 16.06921 16.06921 0 0 0-1.91514 4.89709 11.60194 11.60194 0 0 0 .13385 5.89c.36758 1.19312 1.01738 1.46012 2.1903 1.05313a4.567 4.567 0 0 0 1.48981-.9126 9.66871 9.66871 0 0 0 2.88425-4.64992c1.12915-3.69891 1.08982-7.505 1.11531-11.19709.33322 1.00813.80425 2.08194 1.21917 3.17612.14022.36967.26886.83464.798.82275q-1.0885-2.61983-2.177-5.23956c-.23832 1.53917-.14986 3.02167-.25775 4.4898-.19354 2.63225-.15818 5.2963-1.04661 7.84678-.79243 2.27463-1.86057 4.282-4.18984 5.35507-.94991.43761-1.46455.13859-1.70613-.79337a12.52253 12.52253 0 0 1-.14931-5.48542 19.33041 19.33041 0 0 1 2.85681-6.66042c.19587-.3134.4275-.70733.26008-1.00184-.18989-.33392-.66745-.183-.99857-.12514a19.08522 19.08522 0 0 0-4.8018 1.27194c.50488.3535.95225-.00199 1.40325-.1365zm-31.30242-3.65154l.04353.49746.00124-.00062a1.30066 1.30066 0 0 1 .1766.19774c.08954.11006.17784.22074.25868.33516a41.56031 41.56031 0 0 1 4.206 7.06267 50.79592 50.79592 0 0 1 3.98091-10.19106l1.739-3.33461-.7451-.00062v-.00039a14.85434 14.85434 0 0 0-10.05286 5.07524c.00769.00708.01492.01625.02262.02324zm10.43987-5.43326l.98924 5.98357a40.64364 40.64364 0 0 0 3.03077 10.456 18.66941 18.66941 0 0 0 2.86163-8.68749 15.60027 15.60027 0 0 0-.2935-3.282c-.10074-.63426-.20147-1.26851-.2649-1.909l-.146-1.46385a16.09308 16.09308 0 0 0-4.57258-1.0962v.00039q-.80223-.00083-1.60466-.00142z" class="cls-2"/><path d="M167.90982 106.34482a2.7309 2.7309 0 0 1 .79741.72039 37.596 37.596 0 0 1 5.33828 9.86818 51.39414 51.39414 0 0 1 3.9164-11.67683.44608.44608 0 0 0 .0272-.0677c.00575-.00848.015-.0227.03335-.05317.22673-.37512.36143-.97238.86107-.92955.5416.04648.51634.67414.5856 1.08773a55.82654 55.82654 0 0 0 1.75649 7.78289 28.20963 28.20963 0 0 0 1.79731 4.522c.38156.73142.7367.69916 1.13311.03746 2.431-4.05771 3.90513-8.32248 2.91666-13.14651-.11736-.57285-.56857-1.18239-.033-1.78284.0433.00264.08325.0087.12359.01446l-.03156-.28908h.00016l-.00016-.00007a2.42554 2.42554 0 0 0-1.23821-.97961c-.04694-.0185-.09475-.03295-.14177-.05114l.146 1.46385c.06343.64048.16416 1.27473.2649 1.909a15.60027 15.60027 0 0 1 .2935 3.282 18.66941 18.66941 0 0 1-2.86163 8.68749 40.64364 40.64364 0 0 1-3.03077-10.456l-.98924-5.98357h-.03389l-1.739 3.33461a50.79592 50.79592 0 0 0-3.98091 10.19106 41.56031 41.56031 0 0 0-4.206-7.06267c-.08084-.11442-.16914-.2251-.25868-.33516a1.30066 1.30066 0 0 0-.1766-.19774l-.00124.00062-.04353-.49746-.36936-.33579c-.0077-.007-.01493-.01616-.02262-.02324-.2827.31286-.56462.62719-.83278.96632z" class="cls-2"/><path d="M172.76346 114.59059c.42587.99173.83022 1.99271 1.38286 3.32279a51.88035 51.88035 0 0 1 4.784-13.68547c.14908.89713.26318 1.58339.37721 2.26973a41.103 41.103 0 0 0 3.62943 11.81775c.26645.53158.50033 1.07078 1.05119.22191a20.99546 20.99546 0 0 0 3.74066-10.41336 34.88668 34.88668 0 0 0-.56369-5.38515l-.00186-.01748c-.04034-.00576-.08029-.01182-.12359-.01446-.53554.60045-.08433 1.21.033 1.78284.98847 4.824-.48564 9.0888-2.91666 13.14651-.39641.6617-.75155.694-1.13311-.03746a28.20963 28.20963 0 0 1-1.79731-4.522 55.82654 55.82654 0 0 1-1.75649-7.78289c-.06926-.41359-.044-1.04125-.5856-1.08773-.49964-.04283-.63434.55443-.86107.92955-.01835.03047-.0276.04469-.03335.05317a.44608.44608 0 0 1-.0272.0677 51.39414 51.39414 0 0 0-3.9164 11.67683 37.596 37.596 0 0 0-5.33828-9.86818 2.7309 2.7309 0 0 0-.79741-.72039c.0419.48744.40831.79361.6638 1.15543a39.336 39.336 0 0 1 4.18987 7.09036zm8.3762-31.16726l.00178-.0007c.58436-.22277 1.17261-.436 1.75246-.66986a6.924 6.924 0 1 0-9.59505-6.70061c-.09669 3.5395 1.60913 5.76959 5.5113 7.20522a5.29232 5.29232 0 0 1 2.32951.16595z" class="cls-2"/><path d="M181.17914 100.30521l-.03754-16.88118-.00194-.0007a2.18909 2.18909 0 0 1-2.32951-.166l-.01469 17.04581a2.18558 2.18558 0 0 1 2.38368.00207z" class="cls-2"/><path d="M179.54056 100.3042l.02573-.04936.00816.04936q.80226.00059 1.60469.0014v-.00039a2.18558 2.18558 0 0 0-2.38368-.002v.00039z" class="cls-2"/><path d="M179.54056 100.3042h.03389l-.00816-.04936zm1.5991-16.88087a5.29232 5.29232 0 0 0-2.32951-.166 2.18909 2.18909 0 0 0 2.32951.166zm12.72359 28.16673c.14582-.134.29435-.2614.44079-.3933a14.74547 14.74547 0 0 0-4.60351-7.34374c-.26684-.23738-.52948-.49551-.81024-.72644a55.53915 55.53915 0 0 1 4.41705 9.24635z" class="cls-2"/><path d="M187.21627 102.62974a.19346.19346 0 0 1-.03529.09366c.85128.13136 1.03192.94144 1.33995 1.54663a59.81323 59.81323 0 0 1 4.45016 10.04424c.78186-.56345.97113-1.49339 1.75416-1.78619-.27073-.231-.2265-.57161-.29521-.86985-.0363-.15725-.08511-.307-.126-.46147-.14644.1319-.295.2593-.44079.3933l-.55591.78287a55.53915 55.53915 0 0 0-4.41705-9.24635 2.543 2.543 0 0 0-1.75843-.69435.20666.20666 0 0 1 .08441.19751z" class="cls-2"/><path d="M192.99977 115.18482a27009.08883 27009.08883 0 0 0 1.72548-2.65674c-.783.2928-.9723 1.22274-1.75416 1.78619a59.81323 59.81323 0 0 0-4.45016-10.04427c-.308-.60519-.48867-1.41527-1.33995-1.54663-.00521.00576-.0101.01539-.01586.01539a58.15619 58.15619 0 0 1 5.83465 12.44606z" class="cls-2"/><path d="M187.21627 102.62974a.20666.20666 0 0 0-.08441-.19751h-.00016l.03156.28908.01772.00209a.19346.19346 0 0 0 .03529-.09366z" class="cls-2"/><path d="M187.181 102.7234l-.01772-.00209.00186.01748c.00574 0 .01063-.00963.01586-.01539zm-27.83065-1.71918a34.93931 34.93931 0 0 0 .702 7.76377 80.88578 80.88578 0 0 0-.55583-9.22521l-.00008.00008a.85544.85544 0 0 0-.228.3926c.31214.27485.08634.73826.08191 1.06876z" class="cls-2"/><path d="M159.4964 99.54286q-.26385.11961-.52777.23948a.77605.77605 0 0 1 .29979.15312.85544.85544 0 0 1 .22798-.3926zm-.22798.3926c-.01865.06241-.03358.12631-.04617.19121a.826.826 0 0 1-.03669.49412 6.851 6.851 0 0 0-.18312 3.30693c.22844 1.62894.05091 3.372 1.04987 4.84027a34.93931 34.93931 0 0 1-.702-7.76377c.00447-.3305.23027-.79391-.08189-1.06876z" class="cls-2"/><path d="M159.22225 100.12667c.01259-.0649.02752-.1288.04617-.19121a.77605.77605 0 0 0-.29979-.15312l-.00039.00023a.596.596 0 0 1 .25401.3441zm-13.61544 27.95344a48.79092 48.79092 0 0 1-4.96526 13.704c-1.24442 2.15384-2.30556 2.27672-4.21495.69418a51.07766 51.07766 0 0 1-7.98475-8.44568 179.50585 179.50585 0 0 1-20.75483-35.469A165.45486 165.45486 0 0 1 96.922 65.6573a97.67855 97.67855 0 0 1-2.34186-16.60509A36.20637 36.20637 0 0 1 96.89248 35.118c2.96765-8.18389 8.8337-12.81725 17.25746-14.21845a15.698 15.698 0 0 1 12.66444 3.02074 34.28907 34.28907 0 0 1 9.602 12.08832 94.32442 94.32442 0 0 1 8.43115 25.50719 203.9264 203.9264 0 0 1 2.97729 24.16864c.15009 2.34567.04174 4.69484.28339 7.0287a39.508 39.508 0 0 1 .00482 8.23931l-.0042.034.1288.1284c.08169-.22533.175-.4589.25852-.68447.05542-2.75841.09382-5.51557-.01251-8.285-.23692-6.1723-.68929-12.31312-1.4117-18.44437a137.30845 137.30845 0 0 0-3.86-20.93158c-2.30091-8.24242-5.236-16.25905-10.33976-23.221-4.83421-6.59413-11.023-10.689-19.70651-8.87832-6.23308 1.29969-11.36468 4.37748-14.59878 10.0126a33.91766 33.91766 0 0 0-4.345 16.27459 60.18222 60.18222 0 0 0 .72248 9.41379 145.066 145.066 0 0 0 5.8697 25.19044 183.46638 183.46638 0 0 0 20.65465 43.19347c4.17741 6.50932 8.65492 12.77171 14.55152 17.88807 2.24144 1.94483 3.52286 1.85085 4.942-.67546a50.24813 50.24813 0 0 0 5.31931-15.39611c-.07307-.26458-.12826-.53687-.1965-.80363-.16259.77028-.30219 1.54592-.47824 2.31224z" class="cls-2"/><path d="M148.10879 100.98642c-.07967.71727-.28689 1.48375.31045 2.10977.00824-.0056.01415-.01236.02262-.01788q.02553-1.32461.05425-2.648c-.08356.22557-.17683.45914-.25852.68447zm-1.82886 23.95294c-.06754.27547-.13625.55086-.19486.8285.06824.26676.12343.53905.1965.80363.058-.30376.12-.60635.17449-.9112-.05681-.23979-.1256-.48184-.17613-.72093z" class="cls-2"/><path d="M146.74653 123.37159a13.67084 13.67084 0 0 0-.4666 1.56777c.05053.23909.11932.48114.17613.72093q.20019-1.1208.37349-2.24991l-.02083-.02573c-.02072-.00436-.03996-.00972-.06219-.01306zm.88299-18.65066a49.89773 49.89773 0 0 0-1.50061 15.888c.02215.43978.02627.89721.08915 1.34282l.46707.10214c-.08729-.80239-.17162-1.60508-.222-2.40972a50.815 50.815 0 0 1 1.96993-16.53273l-.01383-.01523c-.57106.389-.62796 1.03772-.78971 1.62472z" class="cls-2"/><path d="M146.80872 123.38465l.01865.00388c-.0443-.44514-.09389-.88983-.14224-1.33466l-.46707-.10214a2.68512 2.68512 0 0 0 .59066 1.43292zm.01865.00388l-.01865-.00388.02083.02573.00008-.00024zm1.6057-20.27711l.00879-.03311c-.00847.00552-.01438.01228-.02262.01788zm63.27099 5.47243a10.97055 10.97055 0 0 0-.11854-2.30424c-.32576-2.96594-.27329-5.94681-.4188-8.91687-.1853-3.781.2792-7.56564.4457-11.3492.25043-5.69015.908-11.333 1.68591-16.96505a107.56871 107.56871 0 0 1 7.35384-27.95858c2.43693-5.67514 5.2108-11.14229 9.855-15.39844 2.67486-2.45122 5.6666-4.44036 9.34593-4.87486 7.59464-.897 16.98044 2.50836 21.38271 11.30374a36.58313 36.58313 0 0 1 3.29007 21.09714 149.79959 149.79959 0 0 1-9.022 36.19827 184.25351 184.25351 0 0 1-20.6094 39.25882c-3.34494 4.8297-6.8769 9.51241-11.39748 13.35847-2.55289 2.17187-3.53646 2.02015-5.14053-.97774a50.16962 50.16962 0 0 1-4.03175-10.80768l-.00723.02946-.39571-.168a46.59863 46.59863 0 0 0 4.485 11.78744c1.43688 2.52227 2.73353 2.67773 4.95445.78692a56.69369 56.69369 0 0 0 8.44669-9.11951 179.87419 179.87419 0 0 0 22.03081-39.01707A156.9395 156.9395 0 0 0 264.4981 56.2986a44.91181 44.91181 0 0 0-.3591-17.29174c-1.35161-5.55009-3.66945-10.64981-8.39772-14.127-5.04089-3.70708-10.74495-5.49606-17.03314-4.19544-4.82612.99818-8.43791 4.07784-11.36685 7.83256-5.3839 6.90208-8.50056 14.94653-10.84514 23.26777-3.61979 12.84718-5.00436 26.03349-5.51581 39.33382-.10571 2.749-.26365 5.49327-.14333 8.24413.12009 2.74512.34978 5.486.40776 8.23341.13082.32762.26241.65649.38895.9894z" class="cls-2"/><path d="M211.34449 109.86567a3.63206 3.63206 0 0 0 .35957-1.28182l-.07035.00156c-.12654-.33291-.25813-.66178-.38895-.9894.01594.7566.02558 1.51344.00824 2.27137a.84926.84926 0 0 0 .09149-.00171zm2.98024 20.38196c-.00793-.02946-.01718-.05837-.025-.08783-.16082-.602-.13649-1.34135-.86239-1.64084l-.002.00249c.10392.29467.234.58288.30773.88493.05728.23505.11954.46831.17877.70266l.39571.168zm-2.43514-19.53372a1.18884 1.18884 0 0 0-.63674-.82462c.43232 1.46432.89161 2.92156 1.29191 4.39482 1.27233 4.68163 2.07246 9.39722.89123 14.23431l.00132.00054c1.03028-1.19545.87428-2.6984.93235-4.08833.19828-4.74563-1.1042-9.24309-2.48007-13.71672z" class="cls-2"/><path d="M213.435 128.521l.002-.002-.001-.001-.001.003zm-2.12619 27.13853c.04221.21367-.15662.57759.19743.59539.28767.01446.3085-.33259.33353-.58233a.34725.34725 0 0 1-.53096-.01306z" class="cls-2"/><path d="M211.30881 155.65953a.34725.34725 0 0 0 .531.01306v-.00008zm-18.81233 163.16432a1.86446 1.86446 0 0 0 1.59933-.02736 89.95962 89.95962 0 0 0 15.23591-7.93944 58.55376 58.55376 0 0 0 5.72575-4.29058 15.13566 15.13566 0 0 0 5.14745-8.23543l.051-.22136c.38553-1.69883.74992-3.30313.1766-4.75571-1.2822-3.24094-6.615-6.84254-10.18919-6.88234-.03856 0-.07835-.00124-.11691-.00124-4.97707 0-8.36849 3.43992-8.65329 8.79382a31.16084 31.16084 0 0 1-4.41 14.38277l-.12561.22013c-.07835.1368-.1567.2736-.24127.40916-.94517 1.516-1.96247 3.01087-2.94619 4.456-.5783.84817-1.15659 1.69634-1.72245 2.55321a1.2503 1.2503 0 0 0-.28977.89667 1.32447 1.32447 0 0 0 .75864.6417z" class="cls-2"/><path d="M191.963 319.98a3.13736 3.13736 0 0 0 2.6269-.0098 92.38319 92.38319 0 0 0 15.44663-8.05191 60.24336 60.24336 0 0 0 5.84926-4.384 16.36107 16.36107 0 0 0 5.561-8.92184c.42727-1.88747.91688-3.83447.16906-5.72559-1.4958-3.78294-7.28536-7.64439-11.35838-7.6883-5.68968-.06141-9.73184 3.89587-10.05714 9.999a29.73914 29.73914 0 0 1-4.23174 13.79935c-.11923.20069-.228.40473-.3521.60387-1.478 2.37225-3.10858 4.649-4.65109 6.98152-.9538 1.44228-.56983 2.67558.9976 3.3977zm.0646-2.69452c.56586-.85687 1.14415-1.705 1.72245-2.55321.98372-1.44511 2.001-2.94 2.94619-4.456.08457-.13556.16292-.27236.24127-.40916l.12561-.22013a31.16084 31.16084 0 0 0 4.41-14.38277c.2848-5.3539 3.67622-8.79382 8.65329-8.79382.03856 0 .07835.00124.11691.00124 3.57424.0398 8.907 3.6414 10.18919 6.88234.57332 1.45258.20893 3.05688-.1766 4.75571l-.051.22136a15.13566 15.13566 0 0 1-5.14745 8.23543 58.55376 58.55376 0 0 1-5.72575 4.29058 89.95962 89.95962 0 0 1-15.23591 7.93944 1.86446 1.86446 0 0 1-1.59933.02736 1.32447 1.32447 0 0 1-.75862-.64172 1.2503 1.2503 0 0 1 .28978-.89667zm-41.7256-9.34105c.83946.67281 1.76225 1.35309 2.9064 2.14156a109.86726 109.86726 0 0 0 14.8479 8.116 9.69113 9.69113 0 0 0 2.27712.68525 1.65306 1.65306 0 0 0 1.65032-.69769c.056-.11317.0485-.29474-.40419-.87553a12.0673 12.0673 0 0 1-1.15908-1.92143 8.44572 8.44572 0 0 0-.92527-1.53217 30.38054 30.38054 0 0 1-3.22975-4.66243 32.15374 32.15374 0 0 1-3.98962-14.33676 8.5026 8.5026 0 0 0-8.50281-8.39088h-.00871a10.435 10.435 0 0 0-7.20568 2.94371 9.58827 9.58827 0 0 0-1.618 12.82448 24.97739 24.97739 0 0 0 5.36137 5.70589z" class="cls-2"/><path d="M149.50471 308.93741c.96779.77735 1.96815 1.49875 2.98172 2.19744a109.72337 109.72337 0 0 0 15.01843 8.21538 10.79523 10.79523 0 0 0 2.58274.78707 2.90867 2.90867 0 0 0 2.8806-1.14089c.72194-.88183.16105-1.766-.38367-2.46483-.85353-1.095-1.27784-2.49973-2.1166-3.49364a28.83217 28.83217 0 0 1-3.0928-4.46531 31.121 31.121 0 0 1-3.82794-13.78178 9.75282 9.75282 0 0 0-9.77335-9.59419 11.66 11.66 0 0 0-8.07539 3.27957 10.87771 10.87771 0 0 0-1.822 14.463 26.28193 26.28193 0 0 0 5.62826 5.99818zm-2.946-19.52331a10.435 10.435 0 0 1 7.20568-2.94371h.00871a8.5026 8.5026 0 0 1 8.50281 8.39088 32.15374 32.15374 0 0 0 3.98962 14.33676 30.38054 30.38054 0 0 0 3.22975 4.66243 8.44572 8.44572 0 0 1 .92527 1.53217 12.0673 12.0673 0 0 0 1.15908 1.92143c.45269.58079.46015.76236.40419.87553a1.65306 1.65306 0 0 1-1.65032.69769 9.69113 9.69113 0 0 1-2.27712-.68525 109.86726 109.86726 0 0 1-14.8479-8.116c-1.14415-.78847-2.06694-1.46875-2.9064-2.14156a24.97739 24.97739 0 0 1-5.36136-5.70585 9.58827 9.58827 0 0 1 1.61795-12.82452zm-4.08671-55.24371c2.6677 1.30233 5.5064 1.21286 8.45259 1.44294a14.68109 14.68109 0 0 0 12.15478-5.73376 13.349 13.349 0 0 0 3.05642-10.85827c-.40069-2.72475-2.47315-3.56756-4.74949-2.10363-.45447.29226-.89107.61646-1.36327.87607-2.62526 1.44349-4.96914.89636-6.89174-1.59109-1.638-2.11917-1.433-4.46415.57837-6.57539.2492-.26156.50073-.5228.77036-.76251a3.1144 3.1144 0 0 0 1.202-3.47335 3.67461 3.67461 0 0 0-2.9996-2.6115 16.70857 16.70857 0 0 0-19.16319 14.69749 16.8627 16.8627 0 0 0 8.95277 16.693zm53.67715-3.13819c3.217 3.47281 7.40957 4.40865 11.653 4.48972.93949 0 1.61728.01049 2.2946-.00155 7.7152-.13774 14.97747-7.59876 14.89484-15.299-.035-3.26683-2.26133-4.65148-5.19478-3.20667a16.24263 16.24263 0 0 1-3.07033 1.37726 5.08772 5.08772 0 0 1-5.62976-2.51286 4.4701 4.4701 0 0 1 .30664-5.73477c.49318-.58669 1.06549-1.10785 1.54772-1.70271a3.30264 3.30264 0 0 0-2.12159-5.59563 16.43917 16.43917 0 0 0-14.42381 4.53006c-4.164 3.84194-4.88279 8.89775-4.22552 14.20827a16.37885 16.37885 0 0 0 3.96899 9.44788z" class="cls-2"/></svg>