<svg width="2714" height="1391" viewBox="0 0 2714 1391" fill="none" xmlns="http://www.w3.org/2000/svg">
<rect width="2714" height="1391" fill="white"/>
<g clip-path="url(#clip0_238_80)">
<path d="M2588.03 139H2136.33V356.593H2588.03V139Z" fill="#00B39F"/>
<path d="M2629 872.014V781.748C2629 678.027 2541.67 593.877 2434.03 593.877H1705.06V534.556H1438.17V791.41H2362.11V871.769L2629 872.014Z" fill="#00B39F"/>
<path d="M1705.06 463.371V356.593H2062.45V139H1438.17V463.371H1705.06Z" fill="#00D3A9"/>
<path d="M2362.12 941.854V1068.57H2004.72V1286.04H2445.04C2546.69 1286.04 2628.51 1206.78 2628.51 1108.93V941.854H2362.12Z" fill="#00D3A9"/>
<path d="M1683.65 953.718V1068.57H1930.48V1286.04H1612.47C1511.32 1286.04 1429 1206.78 1429 1108.93V953.718H1683.65Z" fill="#00B39F"/>
</g>
<path d="M418.199 117C353.799 128.6 294.199 161.4 248.599 210.2C217.799 243.4 199.399 273.4 184.599 314.6C164.999 370.2 164.199 385 165.799 725C167.799 1077.8 165.799 1056.6 196.999 1121C235.399 1200.2 307.799 1259.8 394.999 1283.8C426.599 1292.6 432.599 1292.6 732.999 1294.2C1103.8 1295.8 1109 1295.4 1183 1257.8C1241 1228.6 1285 1182.6 1315 1121C1346.2 1057.8 1345 1073.8 1345 702.6C1345 387.4 1344.6 371 1337 341.8C1306.6 221.8 1205 131.8 1081.4 115.4C1030.6 108.6 456.599 109.8 418.199 117ZM1161 609.4V983H1204.6C1228.6 983 1251 984.2 1254.6 985.4C1260.2 987.4 1261 996.6 1261 1045.4V1103L764.199 1103.8C490.599 1104.6 263.799 1104.2 259.799 1103.4C253.399 1102.2 252.999 1097 253.799 1043.4L254.999 985L298.199 983.8L340.999 982.6V817V651H454.999H568.999V817V983H600.999H632.999L633.799 739.8L634.999 497H748.999H862.999L864.199 739.8L864.999 983H896.999H928.999V609V235L1042.2 234.2C1104.2 233.4 1156.2 233.4 1158.2 234.2C1159.8 235 1161 403.8 1161 609.4Z" fill="#AD0000"/>
<path d="M957 635V1011H897H837V767V523H749H661V767V1011H602.2H543L544.2 845L545.4 679H455H365V845V1011H323H281V1045V1079H757H1233V1045V1011H1183H1133V635V259H1045H957V635Z" fill="black"/>
<defs>
<clipPath id="clip0_238_80">
<rect width="1200" height="1147.04" fill="white" transform="translate(1429 139)"/>
</clipPath>
</defs>
</svg>
