<?xml version="1.0" encoding="utf-8" ?>
<!DOCTYPE svg PUBLIC "-//W3C//DTD SVG 1.0//EN" "http://www.w3.org/TR/2001/REC-SVG-20010904/DTD/svg10.dtd">

<svg xmlns="http://www.w3.org/2000/svg" xmlns:xlink="http://www.w3.org/1999/xlink" viewBox="-3 -2 6 4" width="600" height="400">

	<title>Circle Moire</title>
	<desc></desc>
	<style type="text/css">
	<![CDATA[
	]]>
	</style>

	<defs>
		<g id="moire_circle">
<!--
			<circle cx="0" cy="0" r="0.03" stroke="black" stroke-width="0.04" fill="none" />
			<circle cx="0" cy="0" r="0.13" stroke="black" stroke-width="0.04" fill="none" />
			<circle cx="0" cy="0" r="0.23" stroke="black" stroke-width="0.04" fill="none" />
			<circle cx="0" cy="0" r="0.33" stroke="black" stroke-width="0.04" fill="none" />
			<circle cx="0" cy="0" r="0.43" stroke="black" stroke-width="0.04" fill="none" />
			<circle cx="0" cy="0" r="0.53" stroke="black" stroke-width="0.04" fill="none" />
			<circle cx="0" cy="0" r="0.63" stroke="black" stroke-width="0.04" fill="none" />
			<circle cx="0" cy="0" r="0.73" stroke="black" stroke-width="0.04" fill="none" />
			<circle cx="0" cy="0" r="0.83" stroke="black" stroke-width="0.04" fill="none" />
			<circle cx="0" cy="0" r="0.93" stroke="black" stroke-width="0.04" fill="none" />
-->
			<circle cx="0" cy="0" r="0.08" stroke="black" stroke-width="0.04" fill="none" />
			<circle cx="0" cy="0" r="0.18" stroke="black" stroke-width="0.04" fill="none" />
			<circle cx="0" cy="0" r="0.28" stroke="black" stroke-width="0.04" fill="none" />
			<circle cx="0" cy="0" r="0.38" stroke="black" stroke-width="0.04" fill="none" />
			<circle cx="0" cy="0" r="0.48" stroke="black" stroke-width="0.04" fill="none" />
			<circle cx="0" cy="0" r="0.58" stroke="black" stroke-width="0.04" fill="none" />
			<circle cx="0" cy="0" r="0.68" stroke="black" stroke-width="0.04" fill="none" />
			<circle cx="0" cy="0" r="0.78" stroke="black" stroke-width="0.04" fill="none" />
			<circle cx="0" cy="0" r="0.88" stroke="black" stroke-width="0.04" fill="none" />
			<circle cx="0" cy="0" r="0.98" stroke="black" stroke-width="0.04" fill="none" />
<!--
			<circle cx="0" cy="0" r="1.03" stroke="black" stroke-width="0.04" fill="none" />
			<circle cx="0" cy="0" r="1.13" stroke="black" stroke-width="0.04" fill="none" />
			<circle cx="0" cy="0" r="1.23" stroke="black" stroke-width="0.04" fill="none" />
			<circle cx="0" cy="0" r="1.33" stroke="black" stroke-width="0.04" fill="none" />
			<circle cx="0" cy="0" r="1.43" stroke="black" stroke-width="0.04" fill="none" />
			<circle cx="0" cy="0" r="1.53" stroke="black" stroke-width="0.04" fill="none" />
			<circle cx="0" cy="0" r="1.63" stroke="black" stroke-width="0.04" fill="none" />
			<circle cx="0" cy="0" r="1.73" stroke="black" stroke-width="0.04" fill="none" />
			<circle cx="0" cy="0" r="1.83" stroke="black" stroke-width="0.04" fill="none" />
			<circle cx="0" cy="0" r="1.93" stroke="black" stroke-width="0.04" fill="none" />
-->
			<circle cx="0" cy="0" r="1.08" stroke="black" stroke-width="0.04" fill="none" />
			<circle cx="0" cy="0" r="1.18" stroke="black" stroke-width="0.04" fill="none" />
			<circle cx="0" cy="0" r="1.28" stroke="black" stroke-width="0.04" fill="none" />
			<circle cx="0" cy="0" r="1.38" stroke="black" stroke-width="0.04" fill="none" />
			<circle cx="0" cy="0" r="1.48" stroke="black" stroke-width="0.04" fill="none" />
			<circle cx="0" cy="0" r="1.58" stroke="black" stroke-width="0.04" fill="none" />
			<circle cx="0" cy="0" r="1.68" stroke="black" stroke-width="0.04" fill="none" />
			<circle cx="0" cy="0" r="1.78" stroke="black" stroke-width="0.04" fill="none" />
			<circle cx="0" cy="0" r="1.88" stroke="black" stroke-width="0.04" fill="none" />
			<circle cx="0" cy="0" r="1.98" stroke="black" stroke-width="0.04" fill="none" />
		</g>
	</defs>

	<use xlink:href="#moire_circle" transform="translate(0.5 0)">
		<animateTransform attributeName="transform" type="translate" values="-1,0;1,0;-1,0" keyTimes="0.0;0.5;1.0" dur="30s" repeatCount="indefinite"/>
	</use>
	<use xlink:href="#moire_circle" transform="translate(-0.5 0)">
		<animateTransform attributeName="transform" type="translate" values="1,0;-1,0;1,0" keyTimes="0.0;0.5;1.0" dur="30s" repeatCount="indefinite"/>
	</use>
</svg>
