
<svg width="336" height="538" viewBox="0 0 336 538" fill="none" xmlns="http://www.w3.org/2000/svg">
<path d="M39.5273 206.467C39.5975 178.742 62.3394 156.07 90.0649 156.07C117.72 156.14 140.532 178.952 140.462 206.678C140.392 234.333 117.51 257.145 89.8543 257.075C62.199 257.005 39.5273 234.263 39.5273 206.467ZM90.0649 243.107C110.28 243.107 126.564 226.682 126.564 206.467C126.564 186.323 110.069 170.038 89.8543 170.108C69.8499 170.179 53.6357 186.463 53.5655 206.538C53.4954 226.823 69.8499 243.107 90.0649 243.107Z" fill="#EAB308"/>
<path d="M90.2051 132.416C62.4094 132.486 39.5973 109.955 39.5973 82.159C39.5271 54.3634 62.0585 31.6917 89.8541 31.6215C117.65 31.5513 140.462 54.1528 140.532 81.8081C140.602 109.604 118.001 132.346 90.2051 132.416ZM53.5653 82.159C53.6355 102.374 70.1304 118.729 90.2051 118.588C110.49 118.378 126.634 102.093 126.564 81.8081C126.494 61.8738 110.139 45.6597 90.0647 45.5895C69.7795 45.5193 53.4952 61.8738 53.5653 82.159Z" fill="#00B39F"/>
<path d="M89.9244 280.8C117.72 280.729 140.462 303.401 140.462 331.127C140.532 358.852 117.86 381.524 89.9946 381.594C62.1287 381.594 39.457 359.063 39.457 331.267C39.5272 303.401 62.1287 280.8 89.9244 280.8ZM90.1349 367.626C110.35 367.556 126.634 351.201 126.564 330.986C126.494 310.982 110.139 294.768 90.1349 294.627C69.8497 294.557 53.4952 311.052 53.5654 331.477C53.6356 351.552 70.0603 367.696 90.1349 367.626Z" fill="#B32700"/>
<path d="M229.394 76.6139C212.127 76.6139 194.79 76.6139 177.523 76.6139C172.188 76.6139 168.889 74.087 168.538 69.7352C168.187 65.5939 170.855 62.1545 174.996 61.5228C176.049 61.3824 177.102 61.3824 178.154 61.3824C212.408 61.3824 246.661 61.3824 280.914 61.3824C282.388 61.3824 284.002 61.4526 285.406 61.8036C288.775 62.7161 290.881 65.7343 290.811 69.1035C290.741 72.4726 288.495 75.3505 285.126 76.1927C283.792 76.5437 282.318 76.5437 280.984 76.5437C263.717 76.6139 246.52 76.6139 229.394 76.6139Z" fill="#00B39F"/>
<path d="M229.815 325.722C212.408 325.722 195 325.722 177.593 325.722C172.048 325.722 168.749 323.055 168.538 318.562C168.328 314.421 171.136 311.122 175.277 310.631C176.33 310.49 177.383 310.561 178.435 310.561C212.548 310.561 246.661 310.561 280.774 310.561C281.967 310.561 283.16 310.49 284.283 310.631C288.074 311.192 290.811 314.421 290.811 318.141C290.811 321.791 288.214 324.809 284.494 325.441C283.231 325.652 281.967 325.652 280.633 325.652C263.647 325.722 246.731 325.722 229.815 325.722Z" fill="#B32700"/>
<path d="M229.675 186.112C247.293 186.112 264.981 186.042 282.599 186.112C289.126 186.112 292.847 192.218 289.688 197.413C287.933 200.29 285.196 201.133 281.897 201.063C255.224 200.992 228.622 201.063 201.949 201.063C193.667 201.063 185.384 201.063 177.031 201.063C171.697 201.063 168.398 198.185 168.398 193.552C168.398 188.92 171.627 186.112 177.031 186.112C194.649 186.042 212.197 186.112 229.675 186.112Z" fill="#EAB308" stroke="#EAB308" stroke-width="0.70191"/>
<path d="M222.726 87.4935C237.817 87.4935 252.838 87.4935 267.929 87.4935C272.702 87.4935 275.72 89.4589 276.703 92.9684C277.896 97.3203 275.229 101.602 270.736 102.514C269.964 102.655 269.122 102.655 268.28 102.655C237.817 102.655 207.284 102.655 176.821 102.655C170.012 102.655 166.082 96.8289 169.1 91.4242C170.855 88.3358 173.732 87.4935 177.102 87.4935C192.333 87.5637 207.564 87.4935 222.726 87.4935Z" fill="#00D3A9"/>
<path d="M222.305 351.833C207.143 351.833 191.912 351.903 176.751 351.833C170.293 351.833 166.362 346.428 168.889 341.164C170.574 337.654 173.592 336.672 177.312 336.672C192.754 336.742 208.126 336.672 223.568 336.672C238.378 336.672 253.259 336.672 268.069 336.672C273.263 336.672 276.422 339.128 276.913 343.27C277.475 348.323 274.035 351.833 268.28 351.833C252.908 351.833 237.606 351.833 222.305 351.833Z" fill="#D32A00"/>
<path d="M222.585 227.104C207.143 227.104 191.701 227.174 176.259 227.104C170.153 227.104 166.503 221.909 168.749 216.715C170.153 213.486 172.82 212.153 176.329 212.153C185.595 212.223 194.79 212.153 204.055 212.153C225.463 212.153 246.871 212.153 268.28 212.153C272.982 212.153 275.93 214.259 276.703 217.979C277.755 223.032 274.386 227.104 268.841 227.104C253.469 227.174 238.027 227.104 222.585 227.104Z" fill="#FACC15" stroke="#FACC15" stroke-width="0.70191"/>
<path d="M83.6071 209.556C80.7994 206.397 78.7639 203.8 76.4476 201.554C73.289 198.466 69.0073 198.536 66.1295 201.484C63.1815 204.362 63.1113 208.713 66.1295 211.802C70.2006 216.013 74.3419 220.155 78.5533 224.226C81.8523 227.384 85.8532 227.384 89.1522 224.155C97.3645 216.013 105.577 207.871 113.649 199.589C114.772 198.395 115.684 196.641 115.965 195.096C116.527 191.727 114.912 189.13 111.894 187.656C108.876 186.182 105.928 186.673 103.541 189.13C97.1539 195.518 90.8367 202.116 83.6071 209.556Z" fill="white"/>
<path d="M83.6071 209.556C90.8367 202.116 97.1539 195.518 103.541 189.06C105.928 186.603 108.876 186.112 111.894 187.586C114.912 189.06 116.527 191.657 115.965 195.026C115.684 196.641 114.772 198.395 113.649 199.518C105.577 207.801 97.3645 215.943 89.1522 224.085C85.8532 227.314 81.8523 227.384 78.5533 224.155C74.3419 220.084 70.2006 215.943 66.1295 211.732C63.1113 208.573 63.1815 204.291 66.1295 201.414C69.0775 198.536 73.289 198.395 76.4476 201.484C78.7639 203.8 80.7994 206.327 83.6071 209.556Z" fill="#FACC15"/>
<path d="M83.6775 84.6859C90.4158 77.8072 96.4522 71.5602 102.489 65.4536C106.49 61.4527 110.49 61.1017 113.789 64.3305C117.088 67.5593 116.808 71.7707 112.947 75.6312C105.226 83.4225 97.4349 91.1435 89.6437 98.9347C85.5726 103.006 81.8525 103.006 77.8516 99.0049C74.0613 95.2145 70.2008 91.4242 66.4807 87.6339C63.1115 84.1946 63.0413 79.8427 66.1999 76.8245C69.2883 73.8765 73.3594 74.0169 76.7988 77.3158C79.0449 79.4918 81.0804 81.8783 83.6775 84.6859Z" fill="#00D3A9"/>
<path d="M89.9944 340.953C86.4147 344.884 83.5369 348.183 80.5187 351.201C76.9389 354.781 72.5871 354.851 69.4285 351.552C66.3401 348.394 66.4805 344.182 69.8496 340.673C72.7275 337.654 75.7457 334.636 78.6235 331.618C78.6937 331.548 78.6937 331.407 78.9745 330.916C76.1668 328.108 73.289 325.09 70.341 322.142C66.5507 318.211 66.1997 314.07 69.4285 310.701C72.7275 307.262 77.1495 307.542 81.0802 311.543C83.958 314.421 86.6253 317.51 90.205 321.44C93.0829 318.071 95.329 315.263 97.8559 312.737C102.839 307.683 106.84 307.051 110.49 310.631C114.07 314.211 113.508 318.422 108.595 323.265C105.998 325.792 103.19 328.038 99.6808 331.127C103.682 334.777 106.981 337.584 109.999 340.602C113.579 344.112 113.649 348.604 110.42 351.763C107.191 354.992 102.98 354.851 99.3299 351.131C96.3818 348.113 93.6444 344.954 89.9944 340.953Z" fill="#D32A00"/>
<path d="M89.798 406.322C103.171 406.322 116 411.62 125.476 421.057C134.952 430.493 140.304 443.3 140.36 456.673C140.43 484.412 117.747 507.094 89.8683 507.164C76.4958 507.174 63.6673 501.87 54.2049 492.421C44.7426 482.972 39.4214 470.151 39.4121 456.778C39.4028 443.406 44.7061 430.577 54.1553 421.115C63.6045 411.653 76.4256 406.332 89.798 406.322V406.322ZM90.0087 493.19C97.2429 493.175 104.31 491.013 110.313 486.976C116.316 482.939 120.985 477.211 123.728 470.516C126.47 463.822 127.163 456.464 125.717 449.376C124.271 442.288 120.753 435.789 115.608 430.703C110.463 425.617 103.924 422.174 96.819 420.811C89.7145 419.448 82.3651 420.225 75.7031 423.045C69.0411 425.865 63.3667 430.6 59.3998 436.649C55.433 442.699 53.3523 449.79 53.4219 457.024C53.5145 466.66 57.4123 475.869 64.2656 482.643C71.119 489.418 80.3723 493.209 90.0087 493.19V493.19Z" fill="#7A848E"/>
<path d="M76.3784 443.204H80.6339C80.7641 443.19 80.8958 443.205 81.0194 443.248C81.143 443.291 81.2553 443.361 81.3483 443.454C81.4412 443.546 81.5123 443.658 81.5564 443.781C81.6004 443.904 81.6164 444.036 81.603 444.166V469.32C81.6164 469.451 81.6004 469.582 81.5564 469.706C81.5123 469.829 81.4412 469.941 81.3483 470.033C81.2553 470.125 81.143 470.195 81.0194 470.239C80.8958 470.282 80.7641 470.297 80.6339 470.283H77.7337C77.4955 470.297 77.2578 470.247 77.0453 470.139C76.8329 470.03 76.6535 469.866 76.5258 469.665L67.2843 455.198V469.32C67.299 469.451 67.284 469.583 67.2404 469.707C67.1968 469.831 67.1257 469.943 67.0325 470.036C66.9393 470.128 66.8263 470.199 66.7021 470.241C66.5779 470.284 66.4456 470.298 66.3152 470.283H62.0596C61.9281 470.301 61.7943 470.288 61.6682 470.247C61.5422 470.205 61.4274 470.135 61.3326 470.042C61.2377 469.949 61.1653 469.836 61.1209 469.711C61.0765 469.586 61.0613 469.452 61.0765 469.32V444.166C61.062 444.036 61.0769 443.905 61.1201 443.781C61.1633 443.658 61.2337 443.546 61.3261 443.454C61.4186 443.361 61.5306 443.291 61.6539 443.248C61.7772 443.204 61.9087 443.19 62.0386 443.204H64.9458C65.1818 443.191 65.4169 443.242 65.6268 443.351C65.8366 443.459 66.0137 443.622 66.1397 443.822L75.4093 458.288V444.166C75.3959 444.036 75.4119 443.904 75.4559 443.781C75.5 443.658 75.5711 443.546 75.664 443.454C75.757 443.361 75.8693 443.291 75.9929 443.248C76.1165 443.205 76.2482 443.19 76.3784 443.204V443.204Z" fill="#969696"/>
<path d="M83.0426 474.152C82.5792 474.152 82.3404 473.885 82.537 473.45L97.5088 439.798C97.5537 439.651 97.6484 439.525 97.7765 439.44C97.9047 439.355 98.0584 439.318 98.2111 439.335H99.2223C99.6858 439.335 99.9246 439.602 99.7209 440.037L84.7421 473.688C84.6984 473.836 84.604 473.964 84.4755 474.048C84.347 474.133 84.1927 474.17 84.0398 474.152H83.0426Z" fill="#969696"/>
<path d="M120.676 470.283H115.915C115.666 470.306 115.418 470.237 115.218 470.088C115.018 469.938 114.881 469.72 114.833 469.475L113.815 466.013H104.321L103.302 469.461C103.255 469.706 103.117 469.924 102.918 470.073C102.718 470.223 102.469 470.292 102.221 470.268H97.4597C96.7574 470.268 96.4133 469.882 96.6451 469.187L104.847 444.012C104.912 443.768 105.059 443.554 105.264 443.406C105.469 443.259 105.719 443.187 105.971 443.204H112.165C112.416 443.186 112.665 443.258 112.869 443.405C113.074 443.553 113.219 443.767 113.281 444.012L121.469 469.201C121.715 469.896 121.371 470.283 120.676 470.283ZM112.094 460.226L109.068 449.974L106.02 460.226H112.094Z" fill="#969696"/>
<path d="M230.732 450.656C213.324 450.656 195.917 450.656 178.51 450.656C172.965 450.656 169.666 447.989 169.455 443.496C169.244 439.355 172.052 436.056 176.193 435.565C177.246 435.424 178.299 435.495 179.352 435.495C213.465 435.495 247.578 435.495 281.69 435.495C282.884 435.495 284.077 435.424 285.2 435.565C288.99 436.126 291.728 439.355 291.728 443.075C291.728 446.725 289.131 449.743 285.411 450.375C284.147 450.586 282.884 450.586 281.55 450.586C264.564 450.656 247.648 450.656 230.732 450.656Z" fill="#7A848E" stroke="#7A848E" stroke-width="0.70191"/>
<path d="M222.156 476.833C206.994 476.833 191.763 476.903 176.602 476.833C170.144 476.833 166.213 471.428 168.74 466.164C170.425 462.654 173.443 461.671 177.163 461.671C192.605 461.741 207.977 461.671 223.419 461.671C238.229 461.671 253.11 461.671 267.92 461.671C273.114 461.671 276.273 464.128 276.764 468.269C277.326 473.323 273.886 476.833 268.131 476.833C252.759 476.833 237.457 476.833 222.156 476.833Z" fill="#969696" stroke="#969696" stroke-width="0.70191"/>
</svg>
