<svg width="454" height="56" viewBox="0 0 454 56" fill="none" xmlns="http://www.w3.org/2000/svg">
<g clip-path="url(#clip0_13674_19465)">
<path d="M69.9015 56H58.0521V15.1478C58.0572 14.713 57.9678 14.2823 57.7903 13.8855C57.6297 13.4913 57.3902 13.1342 57.0865 12.8363C56.7863 12.5355 56.4305 12.2961 56.039 12.1314C55.6429 11.9535 55.2129 11.864 54.7788 11.8691H0V0.000315064H54.7788C56.7884 -0.0129805 58.7786 0.39466 60.6217 1.19705C62.4525 1.96562 64.1192 3.07859 65.5316 4.47572C66.93 5.8876 68.0416 7.55779 68.8049 9.39372C69.606 11.2398 70.013 13.2332 69.9997 15.2461L69.9015 56ZM11.8494 56H0V11.8691L11.8494 8.59044V56ZM40.8345 56H28.9851V18.0986H40.9163L40.8345 56Z" fill="#FBFBFB"/>
<path d="M76 8.82224V11.2V22.4V36.0597V56H130V44.8H87.3904V36.0597V33.6H120.127V22.4H87.3904V11.2H130V0H76V8.82224Z" fill="#FBFBFB"/>
<path d="M202.951 41.3565C202.968 43.307 202.578 45.2397 201.807 47.0302C201.07 48.784 199.993 50.3728 198.637 51.7036C197.291 53.0204 195.719 54.0816 193.996 54.8357C192.194 55.6106 190.253 56.0069 188.293 55.9999H136V44.1933H188.293C188.665 44.1977 189.035 44.1273 189.38 43.9863C189.725 43.8453 190.038 43.6365 190.301 43.3722C190.565 43.1079 190.773 42.7934 190.913 42.4473C191.054 42.1011 191.124 41.7302 191.12 41.3565V36.7978C191.122 36.4246 191.05 36.0548 190.909 35.7096C190.768 35.3644 190.56 35.0508 190.297 34.787C190.034 34.5231 189.721 34.3142 189.377 34.1724C189.033 34.0307 188.665 33.9588 188.293 33.9609H150.707C148.763 33.9781 146.838 33.5871 145.053 32.8131C141.523 31.2991 138.709 28.4809 137.193 24.942C136.423 23.1453 136.033 21.2076 136.049 19.2519V14.7096C136.036 12.7436 136.426 10.7958 137.193 8.98667C137.946 7.2468 139.022 5.66643 140.363 4.32963C141.706 2.97447 143.299 1.89404 145.053 1.1484C146.838 0.374345 148.763 -0.0166434 150.707 0.000542966H203V11.8399H150.707C150.334 11.8285 149.962 11.8955 149.616 12.0367C149.27 12.1779 148.957 12.3901 148.697 12.6598C148.431 12.9221 148.221 13.2364 148.08 13.5833C147.94 13.9303 147.872 14.3024 147.88 14.6768V19.2191C147.872 19.5935 147.94 19.9656 148.08 20.3125C148.221 20.6595 148.431 20.9738 148.697 21.236C148.957 21.5057 149.27 21.718 149.616 21.8592C149.962 22.0004 150.334 22.0674 150.707 22.0559H188.293C190.253 22.049 192.194 22.4452 193.996 23.2202C195.727 23.9801 197.302 25.0592 198.637 26.4014C199.978 27.7382 201.054 29.3186 201.807 31.0585C202.574 32.862 202.963 34.8043 202.951 36.765V41.3565Z" fill="#FBFBFB"/>
<path d="M271 56H260.495V33.9607H219.505V56H209V22.0884H260.495V0H271V56ZM219.505 16.7754H209V0H219.505V16.7754Z" fill="#FBFBFB"/>
<path d="M277 8.82224V11.2V22.4V36.0597V56H330V44.8H288.183V36.0597V33.6H320.307V22.4H288.183V11.2H330V0H277V8.82224Z" fill="#FBFBFB"/>
<path d="M346.954 10.6752H375.626V22.318H352.538V32.9932H357.827L378.115 55.9508H392L371.712 32.9932H379.637C380.777 32.9932 381.906 32.7684 382.958 32.3317C384.011 31.8949 384.968 31.2547 385.774 30.4477C386.58 29.6406 387.219 28.6826 387.655 27.6281C388.091 26.5737 388.316 25.4435 388.316 24.3022V8.69107C388.316 7.54974 388.091 6.41958 387.655 5.36513C387.219 4.31068 386.58 3.35258 385.774 2.54554C384.968 1.7385 384.011 1.09832 382.958 0.661549C381.906 0.224782 380.777 0 379.637 0H336V56H347.184L346.954 10.6752Z" fill="#FBFBFB"/>
<path d="M426.008 19.5959L412.004 0H398L420.4 33.6V56H431.6V33.6L454 0H440.176L426.008 19.5959Z" fill="#FBFBFB"/>
</g>
<defs>
<clipPath id="clip0_13674_19465">
<rect width="454" height="56" fill="white"/>
</clipPath>
</defs>
</svg>
