<svg width="90%" height="90%" viewBox="0 0 820 820" fill="none" xmlns="http://www.w3.org/2000/svg">
<path opacity="0.25" d="M574.911 637.893L295.234 666.521L130.603 438.628L245.65 182.107L525.326 153.479L689.957 381.372L574.911 637.893Z" stroke="#00B39F" stroke-width="50"/>
<g filter="url(#filter0_d_13914_17955)">
<rect x="424.503" y="249.453" width="302.302" height="109.677" rx="10" fill="#1E2117"/>
<path d="M514.352 296.016C514.249 295.964 513.965 295.964 513.862 295.912C513.759 295.861 513.372 295.861 513.192 295.861C512.083 295.861 511.284 296.299 510.846 297.073L504.968 306.766L497.568 306.895C496.357 306.895 495.325 307.875 495.325 309.138C495.325 309.473 495.403 309.783 495.532 310.066H483.672C483.801 309.783 483.879 309.473 483.879 309.138C483.879 307.875 482.847 306.895 481.636 306.895H474.236L468.358 297.073C467.92 296.299 467.095 295.861 466.012 295.861C465.858 295.861 465.471 295.861 465.342 295.912C465.239 295.964 464.955 295.964 464.852 296.016C457.324 297.743 457.298 313.805 457.35 316.873C457.35 319.683 458.329 320.92 460.366 321.694C460.856 321.926 461.475 322.029 461.965 322.029H474.907V333.218C474.907 334.868 476.17 336.131 477.82 336.131C479.47 336.131 480.733 334.868 480.733 333.218V319.219C480.733 318.445 480.398 317.62 479.857 317.13C479.264 316.537 478.49 316.202 477.768 316.202H469.132V309.731L464.646 302.1C464.414 301.765 464.543 301.378 464.8 301.223C465.136 300.991 465.522 301.12 465.677 301.378L470.885 310.221C470.911 310.273 470.962 310.324 470.988 310.401V314.449H508.216V310.401C508.268 310.35 508.293 310.298 508.319 310.221L513.527 301.378C513.682 301.094 514.068 300.991 514.404 301.223C514.687 301.378 514.79 301.765 514.558 302.1L510.072 309.731V316.202H501.461C500.74 316.202 499.992 316.537 499.373 317.13C498.832 317.62 498.497 318.445 498.497 319.219V333.218C498.497 334.868 499.76 336.131 501.41 336.131C503.06 336.131 504.323 334.868 504.323 333.218V322.029H517.265C517.755 322.029 518.374 321.926 518.864 321.694C520.9 320.92 521.88 319.683 521.88 316.873C521.932 313.83 521.906 297.743 514.352 296.016Z" fill="#FBFBFB"/>
<path d="M513.566 292.475C514.667 289.818 513.405 286.772 510.748 285.671C508.09 284.57 505.044 285.832 503.943 288.489C502.842 291.147 504.104 294.193 506.762 295.294C509.419 296.395 512.465 295.133 513.566 292.475Z" fill="#FBFBFB"/>
<path d="M475.256 292.478C476.356 289.82 475.094 286.774 472.437 285.673C469.78 284.573 466.733 285.834 465.633 288.492C464.532 291.149 465.794 294.196 468.451 295.296C471.108 296.397 474.155 295.135 475.256 292.478Z" fill="#FBFBFB"/>
<path d="M486.225 288.771V288.926H489.112H490.118H493.005V288.771C493.005 287.121 493.65 285.523 494.81 284.311C495.996 283.048 496.743 281.32 496.743 279.438C496.743 275.468 493.469 272.245 489.473 272.323C485.58 272.426 482.486 275.674 482.538 279.541C482.564 281.372 483.286 283.048 484.472 284.285C485.554 285.523 486.225 287.095 486.225 288.771Z" fill="#FBFBFB"/>
<path d="M493.005 289.931H486.225V291.272H493.005V289.931Z" fill="#FBFBFB"/>
<path d="M488.597 294.005H490.633C491.381 294.005 492 293.386 492 292.638V292.303H487.256V292.638C487.23 293.386 487.849 294.005 488.597 294.005Z" fill="#FBFBFB"/>
<path d="M543.643 314.616C547.585 314.616 550.987 312.294 552.31 308.919C552.445 308.595 552.229 308.352 551.851 308.352H550.906C550.609 308.352 550.393 308.487 550.258 308.757C549.151 311.16 546.586 312.78 543.643 312.78C538.864 312.78 535.624 309.243 535.624 304.842C535.624 300.441 538.864 296.904 543.643 296.904C546.586 296.904 549.151 298.524 550.258 300.927C550.393 301.197 550.609 301.332 550.906 301.332H551.851C552.229 301.332 552.418 301.089 552.283 300.711C550.96 297.363 547.558 295.068 543.643 295.068C537.838 295.068 533.734 299.442 533.734 304.842C533.734 310.242 537.838 314.616 543.643 314.616ZM561.348 314.616C565.29 314.616 568.449 311.538 568.449 307.542C568.449 303.546 565.29 300.468 561.348 300.468C557.406 300.468 554.247 303.546 554.247 307.542C554.247 311.538 557.406 314.616 561.348 314.616ZM561.348 312.888C558.351 312.888 556.029 310.539 556.029 307.542C556.029 304.545 558.351 302.196 561.348 302.196C564.345 302.196 566.667 304.545 566.667 307.542C566.667 310.539 564.345 312.888 561.348 312.888ZM571.971 314.292H572.673C573.024 314.292 573.213 314.103 573.213 313.752V295.392C573.213 295.041 573.024 294.852 572.673 294.852H571.971C571.62 294.852 571.431 295.041 571.431 295.392V313.752C571.431 314.103 571.62 314.292 571.971 314.292ZM577.535 314.292H578.237C578.588 314.292 578.777 314.103 578.777 313.752V295.392C578.777 295.041 578.588 294.852 578.237 294.852H577.535C577.184 294.852 576.995 295.041 576.995 295.392V313.752C576.995 314.103 577.184 314.292 577.535 314.292ZM587.418 300.468C584.61 300.468 582.612 302.115 582.315 304.41C582.288 304.788 582.504 304.977 582.855 304.977H583.557C583.881 304.977 584.043 304.788 584.124 304.464C584.394 302.925 585.852 302.196 587.418 302.196C589.146 302.196 590.766 303.087 590.766 305.517V307.704C589.848 306.543 588.282 305.922 586.581 305.922C584.097 305.922 581.748 307.353 581.748 310.269C581.748 313.185 584.097 314.616 586.581 314.616C588.282 314.616 589.848 314.103 590.766 312.78V313.752C590.766 314.103 590.955 314.292 591.306 314.292H592.008C592.359 314.292 592.548 314.103 592.548 313.752V305.517C592.548 302.385 590.442 300.468 587.418 300.468ZM587.013 312.942C584.61 312.942 583.53 311.808 583.53 310.269C583.53 308.73 584.61 307.596 587.013 307.596C589.173 307.596 590.766 308.622 590.766 310.269C590.766 311.808 589.173 312.942 587.013 312.942ZM603.241 300.468C600.811 300.468 598.894 301.629 597.787 303.438V295.932C597.787 295.581 597.598 295.392 597.247 295.392H596.545C596.194 295.392 596.005 295.581 596.005 295.932V313.752C596.005 314.103 596.194 314.292 596.545 314.292H597.247C597.598 314.292 597.787 314.103 597.787 313.752V311.673C598.894 313.482 600.811 314.616 603.241 314.616C607.048 314.616 610.207 311.538 610.207 307.542C610.207 303.546 607.048 300.468 603.241 300.468ZM603.106 312.888C600.109 312.888 597.787 310.539 597.787 307.542C597.787 304.545 600.109 302.196 603.106 302.196C606.103 302.196 608.425 304.545 608.425 307.542C608.425 310.539 606.103 312.888 603.106 312.888ZM619.462 314.616C623.404 314.616 626.563 311.538 626.563 307.542C626.563 303.546 623.404 300.468 619.462 300.468C615.52 300.468 612.361 303.546 612.361 307.542C612.361 311.538 615.52 314.616 619.462 314.616ZM619.462 312.888C616.465 312.888 614.143 310.539 614.143 307.542C614.143 304.545 616.465 302.196 619.462 302.196C622.459 302.196 624.781 304.545 624.781 307.542C624.781 310.539 622.459 312.888 619.462 312.888ZM635.053 300.603C633.568 300.738 632.245 301.332 631.327 302.871V301.332C631.327 300.981 631.138 300.792 630.787 300.792H630.085C629.734 300.792 629.545 300.981 629.545 301.332V313.752C629.545 314.103 629.734 314.292 630.085 314.292H630.787C631.138 314.292 631.327 314.103 631.327 313.752V306.786C631.327 303.627 633.217 302.439 635.242 302.304C635.458 302.304 635.593 302.088 635.593 301.764V301.116C635.593 300.765 635.404 300.576 635.053 300.603ZM642.631 300.468C639.823 300.468 637.825 302.115 637.528 304.41C637.501 304.788 637.717 304.977 638.068 304.977H638.77C639.094 304.977 639.256 304.788 639.337 304.464C639.607 302.925 641.065 302.196 642.631 302.196C644.359 302.196 645.979 303.087 645.979 305.517V307.704C645.061 306.543 643.495 305.922 641.794 305.922C639.31 305.922 636.961 307.353 636.961 310.269C636.961 313.185 639.31 314.616 641.794 314.616C643.495 314.616 645.061 314.103 645.979 312.78V313.752C645.979 314.103 646.168 314.292 646.519 314.292H647.221C647.572 314.292 647.761 314.103 647.761 313.752V305.517C647.761 302.385 645.655 300.468 642.631 300.468ZM642.226 312.942C639.823 312.942 638.743 311.808 638.743 310.269C638.743 308.73 639.823 307.596 642.226 307.596C644.386 307.596 645.979 308.622 645.979 310.269C645.979 311.808 644.386 312.942 642.226 312.942ZM656.753 300.792H654.485V297.012C654.485 296.661 654.296 296.472 653.945 296.472H653.243C652.892 296.472 652.703 296.661 652.703 297.012V300.792H650.408C650.057 300.792 649.868 300.981 649.868 301.332V301.98C649.868 302.331 650.057 302.52 650.408 302.52H652.703V313.752C652.703 314.103 652.892 314.292 653.243 314.292H653.945C654.296 314.292 654.485 314.103 654.485 313.752V302.52H656.753C657.104 302.52 657.293 302.331 657.293 301.98V301.332C657.293 300.981 657.104 300.792 656.753 300.792ZM660.275 298.092H660.977C661.328 298.092 661.517 297.903 661.517 297.552V295.932C661.517 295.581 661.328 295.392 660.977 295.392H660.275C659.924 295.392 659.735 295.581 659.735 295.932V297.552C659.735 297.903 659.924 298.092 660.275 298.092ZM660.275 314.292H660.977C661.328 314.292 661.517 314.103 661.517 313.752V301.332C661.517 300.981 661.328 300.792 660.977 300.792H660.275C659.924 300.792 659.735 300.981 659.735 301.332V313.752C659.735 314.103 659.924 314.292 660.275 314.292ZM671.589 314.616C675.531 314.616 678.69 311.538 678.69 307.542C678.69 303.546 675.531 300.468 671.589 300.468C667.647 300.468 664.488 303.546 664.488 307.542C664.488 311.538 667.647 314.616 671.589 314.616ZM671.589 312.888C668.592 312.888 666.27 310.539 666.27 307.542C666.27 304.545 668.592 302.196 671.589 302.196C674.586 302.196 676.908 304.545 676.908 307.542C676.908 310.539 674.586 312.888 671.589 312.888ZM687.612 300.468C685.965 300.468 684.507 300.981 683.454 302.601V301.332C683.454 300.981 683.265 300.792 682.914 300.792H682.212C681.861 300.792 681.672 300.981 681.672 301.332V313.752C681.672 314.103 681.861 314.292 682.212 314.292H682.914C683.265 314.292 683.454 314.103 683.454 313.752V306.678C683.454 303.33 685.452 302.196 687.288 302.196C689.097 302.196 690.42 303.33 690.42 305.463V313.752C690.42 314.103 690.609 314.292 690.96 314.292H691.662C692.013 314.292 692.202 314.103 692.202 313.752V305.463C692.202 302.358 690.123 300.468 687.612 300.468Z" fill="white"/>
<rect x="425.003" y="249.953" width="301.302" height="108.677" rx="9.5" stroke="#00B39F"/>
</g>
<g filter="url(#filter1_d_13914_17955)">
<rect x="93.6294" y="463.276" width="302.302" height="109.677" rx="10" fill="#1E2117"/>
<g clip-path="url(#clip0_13914_17955)">
<path d="M170.28 520.698V538.781H134.114V502.615H147.082C147.211 500.781 147.65 499.05 148.322 497.448H134.114C131.272 497.448 128.947 499.773 128.947 502.615V538.781C128.947 541.623 131.272 543.948 134.114 543.948H170.28C173.122 543.948 175.447 541.623 175.447 538.781V525.865L170.28 520.698ZM166.405 533.615H137.989L145.093 524.496L150.156 530.592L157.26 521.447L166.405 533.615ZM173.639 510.081C174.775 508.272 175.447 506.18 175.447 503.906C175.447 497.474 170.255 492.281 163.822 492.281C157.39 492.281 152.197 497.474 152.197 503.906C152.197 510.339 157.39 515.531 163.796 515.531C166.07 515.531 168.188 514.86 169.97 513.723L178.03 521.783L181.699 518.115L173.639 510.081ZM163.822 510.365C160.257 510.365 157.364 507.471 157.364 503.906C157.364 500.341 160.257 497.448 163.822 497.448C167.387 497.448 170.28 500.341 170.28 503.906C170.28 507.471 167.387 510.365 163.822 510.365Z" fill="white"/>
</g>
<path d="M207.93 526.333H199.83V509.755C199.83 509.404 199.641 509.215 199.29 509.215H198.48C198.129 509.215 197.94 509.404 197.94 509.755V527.575C197.94 527.926 198.129 528.115 198.48 528.115H199.02H207.93C208.281 528.115 208.47 527.926 208.47 527.575V526.873C208.47 526.522 208.281 526.333 207.93 526.333ZM216.512 528.439C220.454 528.439 223.613 525.361 223.613 521.365C223.613 517.369 220.454 514.291 216.512 514.291C212.57 514.291 209.411 517.369 209.411 521.365C209.411 525.361 212.57 528.439 216.512 528.439ZM216.512 526.711C213.515 526.711 211.193 524.362 211.193 521.365C211.193 518.368 213.515 516.019 216.512 516.019C219.509 516.019 221.831 518.368 221.831 521.365C221.831 524.362 219.509 526.711 216.512 526.711ZM239.447 514.615H238.745C238.394 514.615 238.205 514.804 238.205 515.155V517.261C237.071 515.452 235.154 514.291 232.751 514.291C228.944 514.291 225.785 517.369 225.785 521.365C225.785 525.361 228.944 528.439 232.751 528.439C235.154 528.439 237.071 527.305 238.205 525.496V527.575C238.205 530.329 236.477 532.111 233.21 532.111C230.591 532.111 228.944 530.599 228.593 529.276C228.512 528.952 228.35 528.79 228.026 528.79H227.324C226.973 528.79 226.757 528.979 226.784 529.357C227.162 531.922 230.132 533.839 233.21 533.839C236.828 533.839 239.987 531.679 239.987 527.575V515.155C239.987 514.804 239.798 514.615 239.447 514.615ZM232.886 526.711C229.889 526.711 227.567 524.362 227.567 521.365C227.567 518.368 229.889 516.019 232.886 516.019C235.883 516.019 238.205 518.368 238.205 521.365C238.205 524.362 235.883 526.711 232.886 526.711ZM256.315 528.439C259.501 528.439 262.39 526.495 262.39 523.336C262.39 519.853 259.15 518.8 256.288 517.693C254.02 516.829 252.13 515.992 252.13 513.832C252.13 511.834 253.858 510.727 255.937 510.727C258.043 510.727 259.69 511.78 259.933 513.778C259.96 514.102 260.149 514.291 260.473 514.291H261.31C261.661 514.291 261.85 514.102 261.823 513.724C261.553 510.619 258.934 508.891 255.937 508.891C252.994 508.891 250.24 510.7 250.24 513.832C250.24 517.504 253.399 518.476 256.261 519.556C258.502 520.393 260.5 521.284 260.5 523.336C260.5 525.361 258.637 526.603 256.315 526.603C253.777 526.603 251.887 525.415 251.617 523.174C251.59 522.823 251.401 522.634 251.077 522.634H250.24C249.889 522.634 249.7 522.823 249.727 523.201C249.997 526.576 252.913 528.439 256.315 528.439ZM270.758 514.615H268.49V510.835C268.49 510.484 268.301 510.295 267.95 510.295H267.248C266.897 510.295 266.708 510.484 266.708 510.835V514.615H264.413C264.062 514.615 263.873 514.804 263.873 515.155V515.803C263.873 516.154 264.062 516.343 264.413 516.343H266.708V527.575C266.708 527.926 266.897 528.115 267.248 528.115H267.95C268.301 528.115 268.49 527.926 268.49 527.575V516.343H270.758C271.109 516.343 271.298 516.154 271.298 515.803V515.155C271.298 514.804 271.109 514.615 270.758 514.615ZM279.248 514.426C277.763 514.561 276.44 515.155 275.522 516.694V515.155C275.522 514.804 275.333 514.615 274.982 514.615H274.28C273.929 514.615 273.74 514.804 273.74 515.155V527.575C273.74 527.926 273.929 528.115 274.28 528.115H274.982C275.333 528.115 275.522 527.926 275.522 527.575V520.609C275.522 517.45 277.412 516.262 279.437 516.127C279.653 516.127 279.788 515.911 279.788 515.587V514.939C279.788 514.588 279.599 514.399 279.248 514.426ZM287.515 514.291C283.33 514.291 280.603 517.396 280.603 521.365C280.603 525.442 283.384 528.439 287.515 528.439C290.269 528.439 292.483 527.008 293.401 524.956C293.536 524.632 293.32 524.416 292.915 524.416H292.051C291.754 524.416 291.565 524.551 291.403 524.794C290.728 525.901 289.351 526.711 287.542 526.711C284.788 526.711 282.79 525.01 282.439 522.256H292.24H293.509C293.833 522.256 294.049 522.094 294.076 521.743V521.419C294.076 517.72 291.646 514.291 287.515 514.291ZM287.515 516.019C289.81 516.019 291.889 517.558 292.213 520.528H282.412C282.763 517.909 284.653 516.019 287.515 516.019ZM301.645 514.291C298.837 514.291 296.839 515.938 296.542 518.233C296.515 518.611 296.731 518.8 297.082 518.8H297.784C298.108 518.8 298.27 518.611 298.351 518.287C298.621 516.748 300.079 516.019 301.645 516.019C303.373 516.019 304.993 516.91 304.993 519.34V521.527C304.075 520.366 302.509 519.745 300.808 519.745C298.324 519.745 295.975 521.176 295.975 524.092C295.975 527.008 298.324 528.439 300.808 528.439C302.509 528.439 304.075 527.926 304.993 526.603V527.575C304.993 527.926 305.182 528.115 305.533 528.115H306.235C306.586 528.115 306.775 527.926 306.775 527.575V519.34C306.775 516.208 304.669 514.291 301.645 514.291ZM301.24 526.765C298.837 526.765 297.757 525.631 297.757 524.092C297.757 522.553 298.837 521.419 301.24 521.419C303.4 521.419 304.993 522.445 304.993 524.092C304.993 525.631 303.4 526.765 301.24 526.765ZM323.246 514.291C321.734 514.291 320.276 514.804 319.223 516.586C318.494 515.074 317.09 514.291 315.605 514.291C314.336 514.291 313.013 514.75 311.987 516.181V515.155C311.987 514.804 311.798 514.615 311.447 514.615H310.745C310.394 514.615 310.205 514.804 310.205 515.155V527.575C310.205 527.926 310.394 528.115 310.745 528.115H311.447C311.798 528.115 311.987 527.926 311.987 527.575V519.961C311.987 516.883 313.931 516.019 315.281 516.019C316.712 516.019 317.954 516.883 317.954 519.016V527.575C317.954 527.926 318.143 528.115 318.494 528.115H319.196C319.547 528.115 319.736 527.926 319.736 527.575V519.961C319.736 516.883 321.68 516.019 323.03 516.019C324.461 516.019 325.703 516.883 325.703 519.016V527.575C325.703 527.926 325.892 528.115 326.243 528.115H326.945C327.296 528.115 327.485 527.926 327.485 527.575V519.016C327.485 515.911 325.487 514.291 323.219 514.291H323.246ZM331.497 511.915H332.199C332.55 511.915 332.739 511.726 332.739 511.375V509.755C332.739 509.404 332.55 509.215 332.199 509.215H331.497C331.146 509.215 330.957 509.404 330.957 509.755V511.375C330.957 511.726 331.146 511.915 331.497 511.915ZM331.497 528.115H332.199C332.55 528.115 332.739 527.926 332.739 527.575V515.155C332.739 514.804 332.55 514.615 332.199 514.615H331.497C331.146 514.615 330.957 514.804 330.957 515.155V527.575C330.957 527.926 331.146 528.115 331.497 528.115ZM342.46 514.291C340.813 514.291 339.355 514.804 338.302 516.424V515.155C338.302 514.804 338.113 514.615 337.762 514.615H337.06C336.709 514.615 336.52 514.804 336.52 515.155V527.575C336.52 527.926 336.709 528.115 337.06 528.115H337.762C338.113 528.115 338.302 527.926 338.302 527.575V520.501C338.302 517.153 340.3 516.019 342.136 516.019C343.945 516.019 345.268 517.153 345.268 519.286V527.575C345.268 527.926 345.457 528.115 345.808 528.115H346.51C346.861 528.115 347.05 527.926 347.05 527.575V519.286C347.05 516.181 344.971 514.291 342.46 514.291ZM363.347 514.615H362.645C362.294 514.615 362.105 514.804 362.105 515.155V517.261C360.971 515.452 359.054 514.291 356.651 514.291C352.844 514.291 349.685 517.369 349.685 521.365C349.685 525.361 352.844 528.439 356.651 528.439C359.054 528.439 360.971 527.305 362.105 525.496V527.575C362.105 530.329 360.377 532.111 357.11 532.111C354.491 532.111 352.844 530.599 352.493 529.276C352.412 528.952 352.25 528.79 351.926 528.79H351.224C350.873 528.79 350.657 528.979 350.684 529.357C351.062 531.922 354.032 533.839 357.11 533.839C360.728 533.839 363.887 531.679 363.887 527.575V515.155C363.887 514.804 363.698 514.615 363.347 514.615ZM356.786 526.711C353.789 526.711 351.467 524.362 351.467 521.365C351.467 518.368 353.789 516.019 356.786 516.019C359.783 516.019 362.105 518.368 362.105 521.365C362.105 524.362 359.783 526.711 356.786 526.711Z" fill="white"/>
<rect x="94.1294" y="463.776" width="301.302" height="108.677" rx="9.5" stroke="#00B39F"/>
</g>
<g filter="url(#filter2_d_13914_17955)">
<rect x="254.919" y="338.854" width="265.436" height="161.289" rx="10" fill="#1E2117"/>
<path d="M315.752 410.098H314.969H313.808C313.484 410.098 313.268 410.233 313.133 410.53L307.49 422.95L301.847 410.53C301.712 410.233 301.496 410.098 301.172 410.098H300.578H299.228C298.85 410.098 298.661 410.314 298.661 410.692V428.431C298.661 428.809 298.85 428.998 299.228 428.998H300.578C300.956 428.998 301.145 428.809 301.145 428.431V414.256L306.221 425.38C306.356 425.704 306.572 425.812 306.869 425.812H308.111C308.435 425.812 308.624 425.704 308.759 425.38L313.835 414.256V428.431C313.835 428.809 314.051 428.998 314.402 428.998H315.752C316.13 428.998 316.346 428.809 316.346 428.431V410.692C316.346 410.314 316.13 410.098 315.752 410.098ZM326.355 415.174C322.143 415.174 319.362 418.279 319.362 422.248C319.362 426.325 322.17 429.349 326.382 429.349C329.136 429.349 331.35 427.972 332.295 425.839C332.457 425.488 332.241 425.245 331.809 425.245H330.513C330.189 425.245 330 425.38 329.811 425.623C329.19 426.568 327.975 427.243 326.409 427.243C324.033 427.243 322.197 425.812 321.792 423.328H330.594H332.349C332.7 423.328 332.943 423.166 332.97 422.788C332.97 422.626 332.97 422.464 332.97 422.302C332.97 418.495 330.432 415.174 326.355 415.174ZM321.792 421.276C322.143 418.927 323.844 417.361 326.355 417.361C328.38 417.361 330.243 418.63 330.594 421.276H321.792ZM337.514 419.17C337.514 417.901 338.756 417.334 340.079 417.334C341.213 417.334 342.32 417.793 342.563 419.008C342.671 419.359 342.833 419.548 343.157 419.548H344.345C344.723 419.548 344.966 419.359 344.912 418.954C344.642 416.524 342.617 415.174 340.079 415.174C337.325 415.174 335.165 416.74 335.165 419.17C335.165 424.273 342.887 422.275 342.887 425.353C342.887 426.622 341.645 427.162 340.079 427.162C338.729 427.162 337.568 426.73 337.325 425.488C337.217 425.164 337.055 424.975 336.704 424.975H335.516C335.165 424.975 334.922 425.164 334.949 425.569C335.246 427.972 337.298 429.349 340.079 429.349C343.076 429.349 345.236 427.783 345.236 425.353C345.236 420.25 337.514 422.248 337.514 419.17ZM354.518 415.174C352.871 415.174 351.494 415.714 350.522 417.172V410.692C350.522 410.314 350.306 410.098 349.955 410.098H348.74C348.362 410.098 348.173 410.314 348.173 410.692V428.431C348.173 428.809 348.362 428.998 348.74 428.998H349.955C350.306 428.998 350.522 428.809 350.522 428.431V421.33C350.522 418.414 352.196 417.388 353.897 417.388C355.49 417.388 356.678 418.387 356.678 420.331V428.431C356.678 428.809 356.894 428.998 357.272 428.998H358.46C358.838 428.998 359.027 428.809 359.027 428.431V420.25C359.027 417.064 357.029 415.174 354.518 415.174ZM368.516 415.174C364.304 415.174 361.523 418.279 361.523 422.248C361.523 426.325 364.331 429.349 368.543 429.349C371.297 429.349 373.511 427.972 374.456 425.839C374.618 425.488 374.402 425.245 373.97 425.245H372.674C372.35 425.245 372.161 425.38 371.972 425.623C371.351 426.568 370.136 427.243 368.57 427.243C366.194 427.243 364.358 425.812 363.953 423.328H372.755H374.51C374.861 423.328 375.104 423.166 375.131 422.788C375.131 422.626 375.131 422.464 375.131 422.302C375.131 418.495 372.593 415.174 368.516 415.174ZM363.953 421.276C364.304 418.927 366.005 417.361 368.516 417.361C370.541 417.361 372.404 418.63 372.755 421.276H363.953ZM383.563 415.309C382.159 415.444 380.89 416.065 380.08 417.55V416.092C380.08 415.714 379.864 415.525 379.513 415.525H378.298C377.92 415.525 377.731 415.714 377.731 416.092V428.431C377.731 428.809 377.92 429.025 378.298 429.025H379.513C379.864 429.025 380.08 428.809 380.08 428.431V421.789C380.08 418.873 381.862 417.793 383.752 417.712C383.995 417.712 384.157 417.496 384.157 417.145V415.876C384.157 415.498 383.941 415.282 383.563 415.309ZM394.748 415.984L391.4 425.623L387.512 415.957C387.404 415.633 387.161 415.498 386.864 415.498H385.568C385.136 415.498 384.947 415.768 385.109 416.173L390.212 428.863L388.511 433.75C388.376 434.155 388.565 434.398 388.97 434.398H390.293C390.617 434.398 390.86 434.263 390.968 433.939L397.178 416.173C397.313 415.768 397.124 415.498 396.719 415.498H395.396C395.072 415.498 394.856 415.66 394.748 415.984ZM415.254 429.349C419.304 429.349 422.787 426.919 424.029 423.409C424.164 423.058 423.948 422.788 423.543 422.788H422.031C421.734 422.788 421.518 422.95 421.356 423.247C420.357 425.461 417.981 426.919 415.254 426.919C410.853 426.919 407.883 423.706 407.883 419.548C407.883 415.417 410.853 412.204 415.254 412.204C417.981 412.204 420.357 413.662 421.356 415.876C421.518 416.173 421.734 416.308 422.031 416.308H423.543C423.948 416.308 424.137 416.065 424.029 415.66C422.76 412.177 419.277 409.774 415.254 409.774C409.476 409.774 405.372 414.121 405.372 419.548C405.372 425.002 409.476 429.349 415.254 429.349ZM427.262 428.998H428.477C428.828 428.998 429.044 428.809 429.044 428.431V410.152C429.044 409.774 428.828 409.558 428.477 409.558H427.262C426.884 409.558 426.695 409.774 426.695 410.152V428.431C426.695 428.809 426.884 428.998 427.262 428.998ZM438.972 429.349C442.914 429.349 446.073 426.271 446.073 422.248C446.073 418.252 442.914 415.174 438.972 415.174C435.003 415.174 431.844 418.252 431.844 422.248C431.844 426.271 435.003 429.349 438.972 429.349ZM438.972 427.054C436.272 427.054 434.193 424.975 434.193 422.248C434.193 419.521 436.272 417.442 438.972 417.442C441.645 417.442 443.724 419.521 443.724 422.248C443.724 424.975 441.645 427.054 438.972 427.054ZM458.833 415.498H457.618C457.267 415.498 457.051 415.714 457.051 416.092V423.193C457.051 426.109 455.377 427.108 453.676 427.108C452.083 427.108 450.895 426.109 450.895 424.192V416.092C450.895 415.714 450.679 415.498 450.301 415.498H449.113C448.735 415.498 448.546 415.714 448.546 416.092V424.273C448.546 427.432 450.544 429.349 453.055 429.349C454.675 429.349 456.079 428.809 457.051 427.351V428.431C457.051 428.809 457.24 428.998 457.618 428.998H458.833C459.184 428.998 459.4 428.809 459.4 428.431V416.092C459.4 415.714 459.184 415.498 458.833 415.498ZM475.935 410.098H474.72C474.369 410.098 474.153 410.314 474.153 410.692V417.793C473.073 416.173 471.345 415.174 469.05 415.174C465.324 415.174 462.219 418.252 462.219 422.248C462.219 426.271 465.324 429.349 469.05 429.349C471.345 429.349 473.073 428.35 474.153 426.73V428.431C474.153 428.809 474.369 428.998 474.72 428.998H475.935C476.313 428.998 476.502 428.809 476.502 428.431V410.692C476.502 410.314 476.313 410.098 475.935 410.098ZM469.374 427.081C466.647 427.081 464.568 425.002 464.568 422.248C464.568 419.494 466.647 417.415 469.374 417.415C472.074 417.415 474.153 419.494 474.153 422.248C474.153 425.002 472.074 427.081 469.374 427.081Z" fill="white"/>
<rect x="255.419" y="339.354" width="264.436" height="160.289" rx="9.5" stroke="#00B39F"/>
</g>
<g filter="url(#filter3_d_13914_17955)">
<rect x="329.805" y="560.596" width="190" height="83" rx="10" fill="#1E2117"/>
<path d="M379.54 593.196H378.973H378.136C377.839 593.196 377.65 593.304 377.515 593.601L371.44 606.696L365.365 593.601C365.23 593.304 365.041 593.196 364.744 593.196H364.15H363.34C362.989 593.196 362.8 593.385 362.8 593.736V611.556C362.8 611.907 362.989 612.096 363.34 612.096H364.15C364.501 612.096 364.69 611.907 364.69 611.556V596.409L370.306 608.424C370.441 608.721 370.63 608.829 370.927 608.829H371.953C372.25 608.829 372.439 608.721 372.574 608.424L378.19 596.409V611.556C378.19 611.907 378.379 612.096 378.73 612.096H379.54C379.891 612.096 380.08 611.907 380.08 611.556V593.736C380.08 593.385 379.891 593.196 379.54 593.196ZM388.985 598.272C386.177 598.272 384.179 599.919 383.882 602.214C383.855 602.592 384.071 602.781 384.422 602.781H385.124C385.448 602.781 385.61 602.592 385.691 602.268C385.961 600.729 387.419 600 388.985 600C390.713 600 392.333 600.891 392.333 603.321V605.508C391.415 604.347 389.849 603.726 388.148 603.726C385.664 603.726 383.315 605.157 383.315 608.073C383.315 610.989 385.664 612.42 388.148 612.42C389.849 612.42 391.415 611.907 392.333 610.584V611.556C392.333 611.907 392.522 612.096 392.873 612.096H393.575C393.926 612.096 394.115 611.907 394.115 611.556V603.321C394.115 600.189 392.009 598.272 388.985 598.272ZM388.58 610.746C386.177 610.746 385.097 609.612 385.097 608.073C385.097 606.534 386.177 605.4 388.58 605.4C390.74 605.4 392.333 606.426 392.333 608.073C392.333 609.612 390.74 610.746 388.58 610.746ZM403.512 598.272C401.865 598.272 400.407 598.785 399.354 600.405V599.136C399.354 598.785 399.165 598.596 398.814 598.596H398.112C397.761 598.596 397.572 598.785 397.572 599.136V611.556C397.572 611.907 397.761 612.096 398.112 612.096H398.814C399.165 612.096 399.354 611.907 399.354 611.556V604.482C399.354 601.134 401.352 600 403.188 600C404.997 600 406.32 601.134 406.32 603.267V611.556C406.32 611.907 406.509 612.096 406.86 612.096H407.562C407.913 612.096 408.102 611.907 408.102 611.556V603.267C408.102 600.162 406.023 598.272 403.512 598.272ZM419.761 599.028L416.035 609.504L411.715 599.001C411.607 598.704 411.391 598.596 411.094 598.596H410.338C409.933 598.596 409.771 598.839 409.933 599.217L415.144 611.988L413.416 616.875C413.281 617.253 413.47 617.496 413.848 617.496H414.631C414.928 617.496 415.144 617.361 415.252 617.064L421.597 599.217C421.732 598.839 421.543 598.596 421.165 598.596H420.382C420.085 598.596 419.869 598.731 419.761 599.028ZM443.73 598.272C442.218 598.272 440.76 598.785 439.707 600.567C438.978 599.055 437.574 598.272 436.089 598.272C434.82 598.272 433.497 598.731 432.471 600.162V599.136C432.471 598.785 432.282 598.596 431.931 598.596H431.229C430.878 598.596 430.689 598.785 430.689 599.136V611.556C430.689 611.907 430.878 612.096 431.229 612.096H431.931C432.282 612.096 432.471 611.907 432.471 611.556V603.942C432.471 600.864 434.415 600 435.765 600C437.196 600 438.438 600.864 438.438 602.997V611.556C438.438 611.907 438.627 612.096 438.978 612.096H439.68C440.031 612.096 440.22 611.907 440.22 611.556V603.942C440.22 600.864 442.164 600 443.514 600C444.945 600 446.187 600.864 446.187 602.997V611.556C446.187 611.907 446.376 612.096 446.727 612.096H447.429C447.78 612.096 447.969 611.907 447.969 611.556V602.997C447.969 599.892 445.971 598.272 443.703 598.272H443.73ZM457.731 612.42C461.673 612.42 464.832 609.342 464.832 605.346C464.832 601.35 461.673 598.272 457.731 598.272C453.789 598.272 450.63 601.35 450.63 605.346C450.63 609.342 453.789 612.42 457.731 612.42ZM457.731 610.692C454.734 610.692 452.412 608.343 452.412 605.346C452.412 602.349 454.734 600 457.731 600C460.728 600 463.05 602.349 463.05 605.346C463.05 608.343 460.728 610.692 457.731 610.692ZM473.322 598.407C471.837 598.542 470.514 599.136 469.596 600.675V599.136C469.596 598.785 469.407 598.596 469.056 598.596H468.354C468.003 598.596 467.814 598.785 467.814 599.136V611.556C467.814 611.907 468.003 612.096 468.354 612.096H469.056C469.407 612.096 469.596 611.907 469.596 611.556V604.59C469.596 601.431 471.486 600.243 473.511 600.108C473.727 600.108 473.862 599.892 473.862 599.568V598.92C473.862 598.569 473.673 598.38 473.322 598.407ZM481.589 598.272C477.404 598.272 474.677 601.377 474.677 605.346C474.677 609.423 477.458 612.42 481.589 612.42C484.343 612.42 486.557 610.989 487.475 608.937C487.61 608.613 487.394 608.397 486.989 608.397H486.125C485.828 608.397 485.639 608.532 485.477 608.775C484.802 609.882 483.425 610.692 481.616 610.692C478.862 610.692 476.864 608.991 476.513 606.237H486.314H487.583C487.907 606.237 488.123 606.075 488.15 605.724V605.4C488.15 601.701 485.72 598.272 481.589 598.272ZM481.589 600C483.884 600 485.963 601.539 486.287 604.509H476.486C476.837 601.89 478.727 600 481.589 600Z" fill="white"/>
<rect x="330.305" y="561.096" width="189" height="82" rx="9.5" stroke="#00B39F"/>
</g>
<g filter="url(#filter4_d_13914_17955)">
<rect x="109.297" y="297.379" width="227.648" height="82.9487" rx="10" fill="#1E2117"/>
<path d="M154.476 349.178C159.984 349.178 164.25 344.804 164.25 339.404C164.25 334.004 159.984 329.63 154.476 329.63C148.968 329.63 144.702 334.004 144.702 339.404C144.702 344.804 148.968 349.178 154.476 349.178ZM154.476 347.342C149.994 347.342 146.592 343.805 146.592 339.404C146.592 335.003 149.994 331.466 154.476 331.466C158.958 331.466 162.36 335.003 162.36 339.404C162.36 343.805 158.958 347.342 154.476 347.342ZM174.448 335.03C172.018 335.03 170.101 336.191 168.994 338V335.894C168.994 335.543 168.805 335.354 168.454 335.354H167.752C167.401 335.354 167.212 335.543 167.212 335.894V353.714C167.212 354.065 167.401 354.254 167.752 354.254H168.454C168.805 354.254 168.994 354.065 168.994 353.714V346.235C170.101 348.044 172.018 349.178 174.448 349.178C178.255 349.178 181.414 346.1 181.414 342.104C181.414 338.108 178.255 335.03 174.448 335.03ZM174.313 347.45C171.316 347.45 168.994 345.101 168.994 342.104C168.994 339.107 171.316 336.758 174.313 336.758C177.31 336.758 179.632 339.107 179.632 342.104C179.632 345.101 177.31 347.45 174.313 347.45ZM190.479 335.03C186.294 335.03 183.567 338.135 183.567 342.104C183.567 346.181 186.348 349.178 190.479 349.178C193.233 349.178 195.447 347.747 196.365 345.695C196.5 345.371 196.284 345.155 195.879 345.155H195.015C194.718 345.155 194.529 345.29 194.367 345.533C193.692 346.64 192.315 347.45 190.506 347.45C187.752 347.45 185.754 345.749 185.403 342.995H195.204H196.473C196.797 342.995 197.013 342.833 197.04 342.482V342.158C197.04 338.459 194.61 335.03 190.479 335.03ZM190.479 336.758C192.774 336.758 194.853 338.297 195.177 341.267H185.376C185.727 338.648 187.617 336.758 190.479 336.758ZM205.689 335.03C204.042 335.03 202.584 335.543 201.531 337.163V335.894C201.531 335.543 201.342 335.354 200.991 335.354H200.289C199.938 335.354 199.749 335.543 199.749 335.894V348.314C199.749 348.665 199.938 348.854 200.289 348.854H200.991C201.342 348.854 201.531 348.665 201.531 348.314V341.24C201.531 337.892 203.529 336.758 205.365 336.758C207.174 336.758 208.497 337.892 208.497 340.025V348.314C208.497 348.665 208.686 348.854 209.037 348.854H209.739C210.09 348.854 210.279 348.665 210.279 348.314V340.025C210.279 336.92 208.2 335.03 205.689 335.03ZM226.278 349.178C229.464 349.178 232.353 347.234 232.353 344.075C232.353 340.592 229.113 339.539 226.251 338.432C223.983 337.568 222.093 336.731 222.093 334.571C222.093 332.573 223.821 331.466 225.9 331.466C228.006 331.466 229.653 332.519 229.896 334.517C229.923 334.841 230.112 335.03 230.436 335.03H231.273C231.624 335.03 231.813 334.841 231.786 334.463C231.516 331.358 228.897 329.63 225.9 329.63C222.957 329.63 220.203 331.439 220.203 334.571C220.203 338.243 223.362 339.215 226.224 340.295C228.465 341.132 230.463 342.023 230.463 344.075C230.463 346.1 228.6 347.342 226.278 347.342C223.74 347.342 221.85 346.154 221.58 343.913C221.553 343.562 221.364 343.373 221.04 343.373H220.203C219.852 343.373 219.663 343.562 219.69 343.94C219.96 347.315 222.876 349.178 226.278 349.178ZM241.609 349.178C245.551 349.178 248.71 346.1 248.71 342.104C248.71 338.108 245.551 335.03 241.609 335.03C237.667 335.03 234.508 338.108 234.508 342.104C234.508 346.1 237.667 349.178 241.609 349.178ZM241.609 347.45C238.612 347.45 236.29 345.101 236.29 342.104C236.29 339.107 238.612 336.758 241.609 336.758C244.606 336.758 246.928 339.107 246.928 342.104C246.928 345.101 244.606 347.45 241.609 347.45ZM261.358 335.354H260.656C260.305 335.354 260.116 335.543 260.116 335.894V342.968C260.116 346.316 258.118 347.45 256.282 347.45C254.473 347.45 253.15 346.316 253.15 344.183V335.894C253.15 335.543 252.961 335.354 252.61 335.354H251.908C251.557 335.354 251.368 335.543 251.368 335.894V344.183C251.368 347.288 253.447 349.178 255.958 349.178C257.578 349.178 259.036 348.692 260.089 347.072V348.314C260.089 348.665 260.278 348.854 260.629 348.854H261.331C261.682 348.854 261.871 348.665 261.871 348.314V335.894C261.871 335.543 261.682 335.354 261.331 335.354H261.358ZM271.175 335.165C269.69 335.3 268.367 335.894 267.449 337.433V335.894C267.449 335.543 267.26 335.354 266.909 335.354H266.207C265.856 335.354 265.667 335.543 265.667 335.894V348.314C265.667 348.665 265.856 348.854 266.207 348.854H266.909C267.26 348.854 267.449 348.665 267.449 348.314V341.348C267.449 338.189 269.339 337.001 271.364 336.866C271.58 336.866 271.715 336.65 271.715 336.326V335.678C271.715 335.327 271.526 335.138 271.175 335.165ZM285.463 344.534H284.68C284.383 344.534 284.167 344.669 284.032 344.939C283.249 346.451 281.602 347.45 279.631 347.45C276.634 347.45 274.312 345.101 274.312 342.104C274.312 339.107 276.634 336.758 279.631 336.758C281.575 336.758 283.222 337.73 284.032 339.269C284.167 339.539 284.383 339.674 284.68 339.674H285.463C285.841 339.674 286.057 339.431 285.895 339.053C284.923 336.65 282.493 335.03 279.631 335.03C275.554 335.03 272.53 338.108 272.53 342.104C272.53 346.1 275.554 349.178 279.631 349.178C282.493 349.178 284.95 347.558 285.895 345.155C286.057 344.777 285.841 344.534 285.463 344.534ZM294.919 335.03C290.734 335.03 288.007 338.135 288.007 342.104C288.007 346.181 290.788 349.178 294.919 349.178C297.673 349.178 299.887 347.747 300.805 345.695C300.94 345.371 300.724 345.155 300.319 345.155H299.455C299.158 345.155 298.969 345.29 298.807 345.533C298.132 346.64 296.755 347.45 294.946 347.45C292.192 347.45 290.194 345.749 289.843 342.995H299.644H300.913C301.237 342.995 301.453 342.833 301.48 342.482V342.158C301.48 338.459 299.05 335.03 294.919 335.03ZM294.919 336.758C297.214 336.758 299.293 338.297 299.617 341.267H289.816C290.167 338.648 292.057 336.758 294.919 336.758Z" fill="white"/>
<rect x="109.797" y="297.879" width="226.648" height="81.9487" rx="9.5" stroke="#00B39F"/>
</g>
<g filter="url(#filter5_d_13914_17955)">
<rect x="442.936" y="458.668" width="189.86" height="114.285" rx="10" fill="#1E2117"/>
<path d="M472.39 510.135C476.332 510.135 479.734 507.813 481.057 504.438C481.192 504.114 480.976 503.871 480.598 503.871H479.653C479.356 503.871 479.14 504.006 479.005 504.276C477.898 506.679 475.333 508.299 472.39 508.299C467.611 508.299 464.371 504.762 464.371 500.361C464.371 495.96 467.611 492.423 472.39 492.423C475.333 492.423 477.898 494.043 479.005 496.446C479.14 496.716 479.356 496.851 479.653 496.851H480.598C480.976 496.851 481.165 496.608 481.03 496.23C479.707 492.882 476.305 490.587 472.39 490.587C466.585 490.587 462.481 494.961 462.481 500.361C462.481 505.761 466.585 510.135 472.39 510.135ZM484.477 509.811H485.179C485.53 509.811 485.719 509.622 485.719 509.271V490.911C485.719 490.56 485.53 490.371 485.179 490.371H484.477C484.126 490.371 483.937 490.56 483.937 490.911V509.271C483.937 509.622 484.126 509.811 484.477 509.811ZM495.791 510.135C499.733 510.135 502.892 507.057 502.892 503.061C502.892 499.065 499.733 495.987 495.791 495.987C491.849 495.987 488.69 499.065 488.69 503.061C488.69 507.057 491.849 510.135 495.791 510.135ZM495.791 508.407C492.794 508.407 490.472 506.058 490.472 503.061C490.472 500.064 492.794 497.715 495.791 497.715C498.788 497.715 501.11 500.064 501.11 503.061C501.11 506.058 498.788 508.407 495.791 508.407ZM515.54 496.311H514.838C514.487 496.311 514.298 496.5 514.298 496.851V503.925C514.298 507.273 512.3 508.407 510.464 508.407C508.655 508.407 507.332 507.273 507.332 505.14V496.851C507.332 496.5 507.143 496.311 506.792 496.311H506.09C505.739 496.311 505.55 496.5 505.55 496.851V505.14C505.55 508.245 507.629 510.135 510.14 510.135C511.76 510.135 513.218 509.649 514.271 508.029V509.271C514.271 509.622 514.46 509.811 514.811 509.811H515.513C515.864 509.811 516.053 509.622 516.053 509.271V496.851C516.053 496.5 515.864 496.311 515.513 496.311H515.54ZM532.701 490.911H531.999C531.648 490.911 531.459 491.1 531.459 491.451V498.957C530.325 497.148 528.408 495.987 526.005 495.987C522.198 495.987 519.039 499.065 519.039 503.061C519.039 507.057 522.198 510.135 526.005 510.135C528.408 510.135 530.325 509.001 531.459 507.192V509.271C531.459 509.622 531.648 509.811 531.999 509.811H532.701C533.052 509.811 533.241 509.622 533.241 509.271V491.451C533.241 491.1 533.052 490.911 532.701 490.911ZM526.14 508.407C523.143 508.407 520.821 506.058 520.821 503.061C520.821 500.064 523.143 497.715 526.14 497.715C529.137 497.715 531.459 500.064 531.459 503.061C531.459 506.058 529.137 508.407 526.14 508.407ZM554.834 491.451V506.031L545.87 491.262C545.735 491.019 545.519 490.911 545.222 490.911H544.574C544.223 490.911 544.034 491.1 544.034 491.451V509.271C544.034 509.622 544.223 509.811 544.574 509.811H545.384C545.735 509.811 545.924 509.622 545.924 509.271V494.691L554.888 509.46C555.023 509.703 555.239 509.811 555.536 509.811H556.184C556.535 509.811 556.724 509.622 556.724 509.271V491.451C556.724 491.1 556.535 490.911 556.184 490.911H555.374C555.023 490.911 554.834 491.1 554.834 491.451ZM565.63 495.987C562.822 495.987 560.824 497.634 560.527 499.929C560.5 500.307 560.716 500.496 561.067 500.496H561.769C562.093 500.496 562.255 500.307 562.336 499.983C562.606 498.444 564.064 497.715 565.63 497.715C567.358 497.715 568.978 498.606 568.978 501.036V503.223C568.06 502.062 566.494 501.441 564.793 501.441C562.309 501.441 559.96 502.872 559.96 505.788C559.96 508.704 562.309 510.135 564.793 510.135C566.494 510.135 568.06 509.622 568.978 508.299V509.271C568.978 509.622 569.167 509.811 569.518 509.811H570.22C570.571 509.811 570.76 509.622 570.76 509.271V501.036C570.76 497.904 568.654 495.987 565.63 495.987ZM565.225 508.461C562.822 508.461 561.742 507.327 561.742 505.788C561.742 504.249 562.822 503.115 565.225 503.115C567.385 503.115 568.978 504.141 568.978 505.788C568.978 507.327 567.385 508.461 565.225 508.461ZM579.753 496.311H577.485V492.531C577.485 492.18 577.296 491.991 576.945 491.991H576.243C575.892 491.991 575.703 492.18 575.703 492.531V496.311H573.408C573.057 496.311 572.868 496.5 572.868 496.851V497.499C572.868 497.85 573.057 498.039 573.408 498.039H575.703V509.271C575.703 509.622 575.892 509.811 576.243 509.811H576.945C577.296 509.811 577.485 509.622 577.485 509.271V498.039H579.753C580.104 498.039 580.293 497.85 580.293 497.499V496.851C580.293 496.5 580.104 496.311 579.753 496.311ZM583.274 493.611H583.976C584.327 493.611 584.516 493.422 584.516 493.071V491.451C584.516 491.1 584.327 490.911 583.976 490.911H583.274C582.923 490.911 582.734 491.1 582.734 491.451V493.071C582.734 493.422 582.923 493.611 583.274 493.611ZM583.274 509.811H583.976C584.327 509.811 584.516 509.622 584.516 509.271V496.851C584.516 496.5 584.327 496.311 583.976 496.311H583.274C582.923 496.311 582.734 496.5 582.734 496.851V509.271C582.734 509.622 582.923 509.811 583.274 509.811ZM598.153 496.311H597.397C597.1 496.311 596.884 496.446 596.776 496.743L592.753 507.867L588.73 496.743C588.622 496.446 588.406 496.311 588.109 496.311H587.353C586.975 496.311 586.786 496.554 586.921 496.932L591.511 509.379C591.619 509.649 591.835 509.811 592.132 509.811H592.699H593.374C593.671 509.811 593.887 509.676 593.995 509.379L598.585 496.932C598.72 496.554 598.531 496.311 598.153 496.311ZM606.951 495.987C602.766 495.987 600.039 499.092 600.039 503.061C600.039 507.138 602.82 510.135 606.951 510.135C609.705 510.135 611.919 508.704 612.837 506.652C612.972 506.328 612.756 506.112 612.351 506.112H611.487C611.19 506.112 611.001 506.247 610.839 506.49C610.164 507.597 608.787 508.407 606.978 508.407C604.224 508.407 602.226 506.706 601.875 503.952H611.676H612.945C613.269 503.952 613.485 503.79 613.512 503.439V503.115C613.512 499.416 611.082 495.987 606.951 495.987ZM606.951 497.715C609.246 497.715 611.325 499.254 611.649 502.224H601.848C602.199 499.605 604.089 497.715 606.951 497.715ZM519.384 522.911H514.659H508.044C507.693 522.911 507.504 523.1 507.504 523.451V524.153C507.504 524.504 507.693 524.693 508.044 524.693H512.769V541.271C512.769 541.622 512.958 541.811 513.309 541.811H514.119C514.47 541.811 514.659 541.622 514.659 541.271V524.693H519.384C519.735 524.693 519.924 524.504 519.924 524.153V523.451C519.924 523.1 519.735 522.911 519.384 522.911ZM526.219 542.135C530.161 542.135 533.32 539.057 533.32 535.061C533.32 531.065 530.161 527.987 526.219 527.987C522.277 527.987 519.118 531.065 519.118 535.061C519.118 539.057 522.277 542.135 526.219 542.135ZM526.219 540.407C523.222 540.407 520.9 538.058 520.9 535.061C520.9 532.064 523.222 529.715 526.219 529.715C529.216 529.715 531.538 532.064 531.538 535.061C531.538 538.058 529.216 540.407 526.219 540.407ZM542.593 542.135C546.535 542.135 549.694 539.057 549.694 535.061C549.694 531.065 546.535 527.987 542.593 527.987C538.651 527.987 535.492 531.065 535.492 535.061C535.492 539.057 538.651 542.135 542.593 542.135ZM542.593 540.407C539.596 540.407 537.274 538.058 537.274 535.061C537.274 532.064 539.596 529.715 542.593 529.715C545.59 529.715 547.912 532.064 547.912 535.061C547.912 538.058 545.59 540.407 542.593 540.407ZM553.216 541.811H553.918C554.269 541.811 554.458 541.622 554.458 541.271V522.911C554.458 522.56 554.269 522.371 553.918 522.371H553.216C552.865 522.371 552.676 522.56 552.676 522.911V541.271C552.676 541.622 552.865 541.811 553.216 541.811ZM559.616 531.848C559.616 530.336 561.128 529.715 562.559 529.715C563.855 529.715 565.205 530.228 565.448 531.713C565.529 532.037 565.691 532.226 566.015 532.226H566.717C567.068 532.226 567.284 532.037 567.257 531.659C566.987 529.391 565.097 527.987 562.559 527.987C559.832 527.987 557.834 529.634 557.834 531.848C557.834 536.897 565.772 534.845 565.772 538.274C565.772 539.786 564.26 540.407 562.559 540.407C561.02 540.407 559.643 539.894 559.4 538.409C559.319 538.085 559.157 537.896 558.833 537.896H558.131C557.78 537.896 557.564 538.085 557.591 538.463C557.861 540.731 559.778 542.135 562.559 542.135C565.556 542.135 567.554 540.488 567.554 538.274C567.554 533.225 559.616 535.277 559.616 531.848Z" fill="white"/>
<rect x="443.436" y="459.168" width="188.86" height="113.285" rx="9.5" stroke="#00B39F"/>
</g>
<defs>
<filter id="filter0_d_13914_17955" x="420.503" y="249.453" width="310.302" height="117.677" filterUnits="userSpaceOnUse" color-interpolation-filters="sRGB">
<feFlood flood-opacity="0" result="BackgroundImageFix"/>
<feColorMatrix in="SourceAlpha" type="matrix" values="0 0 0 0 0 0 0 0 0 0 0 0 0 0 0 0 0 0 127 0" result="hardAlpha"/>
<feOffset dy="4"/>
<feGaussianBlur stdDeviation="2"/>
<feComposite in2="hardAlpha" operator="out"/>
<feColorMatrix type="matrix" values="0 0 0 0 0 0 0 0 0 0 0 0 0 0 0 0 0 0 0.25 0"/>
<feBlend mode="normal" in2="BackgroundImageFix" result="effect1_dropShadow_13914_17955"/>
<feBlend mode="normal" in="SourceGraphic" in2="effect1_dropShadow_13914_17955" result="shape"/>
</filter>
<filter id="filter1_d_13914_17955" x="89.6294" y="463.276" width="310.302" height="117.677" filterUnits="userSpaceOnUse" color-interpolation-filters="sRGB">
<feFlood flood-opacity="0" result="BackgroundImageFix"/>
<feColorMatrix in="SourceAlpha" type="matrix" values="0 0 0 0 0 0 0 0 0 0 0 0 0 0 0 0 0 0 127 0" result="hardAlpha"/>
<feOffset dy="4"/>
<feGaussianBlur stdDeviation="2"/>
<feComposite in2="hardAlpha" operator="out"/>
<feColorMatrix type="matrix" values="0 0 0 0 0 0 0 0 0 0 0 0 0 0 0 0 0 0 0.25 0"/>
<feBlend mode="normal" in2="BackgroundImageFix" result="effect1_dropShadow_13914_17955"/>
<feBlend mode="normal" in="SourceGraphic" in2="effect1_dropShadow_13914_17955" result="shape"/>
</filter>
<filter id="filter2_d_13914_17955" x="250.919" y="338.854" width="273.436" height="169.289" filterUnits="userSpaceOnUse" color-interpolation-filters="sRGB">
<feFlood flood-opacity="0" result="BackgroundImageFix"/>
<feColorMatrix in="SourceAlpha" type="matrix" values="0 0 0 0 0 0 0 0 0 0 0 0 0 0 0 0 0 0 127 0" result="hardAlpha"/>
<feOffset dy="4"/>
<feGaussianBlur stdDeviation="2"/>
<feComposite in2="hardAlpha" operator="out"/>
<feColorMatrix type="matrix" values="0 0 0 0 0 0 0 0 0 0 0 0 0 0 0 0 0 0 0.25 0"/>
<feBlend mode="normal" in2="BackgroundImageFix" result="effect1_dropShadow_13914_17955"/>
<feBlend mode="normal" in="SourceGraphic" in2="effect1_dropShadow_13914_17955" result="shape"/>
</filter>
<filter id="filter3_d_13914_17955" x="325.805" y="560.596" width="198" height="91" filterUnits="userSpaceOnUse" color-interpolation-filters="sRGB">
<feFlood flood-opacity="0" result="BackgroundImageFix"/>
<feColorMatrix in="SourceAlpha" type="matrix" values="0 0 0 0 0 0 0 0 0 0 0 0 0 0 0 0 0 0 127 0" result="hardAlpha"/>
<feOffset dy="4"/>
<feGaussianBlur stdDeviation="2"/>
<feComposite in2="hardAlpha" operator="out"/>
<feColorMatrix type="matrix" values="0 0 0 0 0 0 0 0 0 0 0 0 0 0 0 0 0 0 0.25 0"/>
<feBlend mode="normal" in2="BackgroundImageFix" result="effect1_dropShadow_13914_17955"/>
<feBlend mode="normal" in="SourceGraphic" in2="effect1_dropShadow_13914_17955" result="shape"/>
</filter>
<filter id="filter4_d_13914_17955" x="105.297" y="297.379" width="235.648" height="90.9487" filterUnits="userSpaceOnUse" color-interpolation-filters="sRGB">
<feFlood flood-opacity="0" result="BackgroundImageFix"/>
<feColorMatrix in="SourceAlpha" type="matrix" values="0 0 0 0 0 0 0 0 0 0 0 0 0 0 0 0 0 0 127 0" result="hardAlpha"/>
<feOffset dy="4"/>
<feGaussianBlur stdDeviation="2"/>
<feComposite in2="hardAlpha" operator="out"/>
<feColorMatrix type="matrix" values="0 0 0 0 0 0 0 0 0 0 0 0 0 0 0 0 0 0 0.25 0"/>
<feBlend mode="normal" in2="BackgroundImageFix" result="effect1_dropShadow_13914_17955"/>
<feBlend mode="normal" in="SourceGraphic" in2="effect1_dropShadow_13914_17955" result="shape"/>
</filter>
<filter id="filter5_d_13914_17955" x="438.936" y="458.668" width="197.86" height="122.285" filterUnits="userSpaceOnUse" color-interpolation-filters="sRGB">
<feFlood flood-opacity="0" result="BackgroundImageFix"/>
<feColorMatrix in="SourceAlpha" type="matrix" values="0 0 0 0 0 0 0 0 0 0 0 0 0 0 0 0 0 0 127 0" result="hardAlpha"/>
<feOffset dy="4"/>
<feGaussianBlur stdDeviation="2"/>
<feComposite in2="hardAlpha" operator="out"/>
<feColorMatrix type="matrix" values="0 0 0 0 0 0 0 0 0 0 0 0 0 0 0 0 0 0 0.25 0"/>
<feBlend mode="normal" in2="BackgroundImageFix" result="effect1_dropShadow_13914_17955"/>
<feBlend mode="normal" in="SourceGraphic" in2="effect1_dropShadow_13914_17955" result="shape"/>
</filter>
<clipPath id="clip0_13914_17955">
<rect width="62" height="62" fill="white" transform="translate(123.78 487.115)"/>
</clipPath>
</defs>
</svg>
