<svg id="Layer_1" data-name="Layer 1" xmlns="http://www.w3.org/2000/svg" viewBox="0 0 550 225"><defs><style>.cls-1{fill:#fff;}.cls-2{opacity:0.4;}.cls-3{opacity:0.8;}.cls-4{opacity:0.2;}.cls-5{opacity:0.6;}</style></defs><title>smp-white-text-side</title><g id="Title"><path class="cls-1" d="M465,140.25H453.66V101.13a2.47,2.47,0,0,0-.19-1.15,1.89,1.89,0,0,0-.77-1,4.14,4.14,0,0,0-.95-.76,2.36,2.36,0,0,0-1.15-.2H398.25V86.75H450.4A13.67,13.67,0,0,1,456,87.9,15.06,15.06,0,0,1,460.57,91a14.8,14.8,0,0,1,3.06,4.6,13.71,13.71,0,0,1,1.15,5.56v39.12Zm-55.42,0H398.25V98.06h11.31Zm27.23,0H425.48V104h11.31Z"/><path class="cls-1" d="M388.66,126.25a12.83,12.83,0,0,1-1.15,5.37,12.19,12.19,0,0,1-3.07,4.41A14.07,14.07,0,0,1,380,139.1a12.8,12.8,0,0,1-5.37,1.15h-50V128.94h50a2.49,2.49,0,0,0,1.92-.77,2.46,2.46,0,0,0,.77-1.92v-4.41a2.46,2.46,0,0,0-.77-1.92,2.48,2.48,0,0,0-1.92-.76H338.61a13,13,0,0,1-5.37-1.15,12.27,12.27,0,0,1-4.41-3.07,16.52,16.52,0,0,1-3.06-4.41,12.83,12.83,0,0,1-1.15-5.37v-4.41a12.19,12.19,0,0,1,1.15-5.37A12,12,0,0,1,328.83,91a17,17,0,0,1,4.41-3.07,12.86,12.86,0,0,1,5.37-1.15h50.05V98.06H338.61a2.63,2.63,0,0,0-2.68,2.69v4.41a2.61,2.61,0,0,0,2.68,2.68h36.05A12.33,12.33,0,0,1,380,109a12.19,12.19,0,0,1,4.41,3.07,14.18,14.18,0,0,1,3.07,4.41,12.83,12.83,0,0,1,1.15,5.37Z"/><path class="cls-1" d="M517.52,118.2h.76a8.19,8.19,0,0,0,8.25-8.25V95a8.19,8.19,0,0,0-8.25-8.25h-41.8v53.5h10.74L487,96.91h27.42v10.93H492.4V118.2"/></g><g id="Gauge"><g class="cls-2"><path class="cls-1" d="M78.94,67.33a176.47,176.47,0,0,1,19.87-9L97.12,50A203.06,203.06,0,0,0,76.19,61.89Z"/></g><g class="cls-3"><path class="cls-1" d="M206.87,53.77l17.19-19.38a196.79,196.79,0,0,0-33.56-4.31l-10,18.25A186,186,0,0,1,206.87,53.77Z"/></g><g class="cls-2"><path class="cls-1" d="M75,69.39l-2.5-5.06C67.31,67.89,62.25,71.7,57.44,75.7l2.62,3.13C64.94,75.45,69.94,72.33,75,69.39Z"/></g><path class="cls-1" d="M240.13,67.2,265.88,49a184.81,184.81,0,0,0-36.94-13.5L211.5,55.14A180.65,180.65,0,0,1,240.13,67.2Z"/><g class="cls-4"><path class="cls-1" d="M56.5,81.39l-2.38-2.87A167.34,167.34,0,0,0,41.25,90.77l1.87,1.5C47.44,88.45,51.88,84.83,56.5,81.39Z"/></g><path class="cls-1" d="M270.25,51.27,244.44,69.52a189,189,0,0,1,31.31,22.31l33.56-13.06A186.84,186.84,0,0,0,270.25,51.27Z"/><g class="cls-4"><path class="cls-1" d="M38.12,94A212.44,212.44,0,0,0,20,116.77a184.66,184.66,0,0,1,19.81-21.5Z"/></g><g class="cls-5"><path class="cls-1" d="M128.94,37.64,128.25,50a170.56,170.56,0,0,1,19.88-2.5l4.31-15.13A208.3,208.3,0,0,0,128.94,37.64Z"/></g><g class="cls-3"><path class="cls-1" d="M152.75,47.27c2.25-.07,4.56-.13,6.87-.13,5.44,0,10.88.25,16.19.75L185.56,30a194.16,194.16,0,0,0-28.44,1.68Z"/></g><g class="cls-5"><path class="cls-1" d="M102.87,56.77a170,170,0,0,1,20.94-5.88L124.5,39a187.49,187.49,0,0,0-23.31,9.06Z"/></g></g><g id="Needle" class="cls-3"><path class="cls-1" d="M149.08,129.45a13.23,13.23,0,1,0,12.13,14.25A13.24,13.24,0,0,0,149.08,129.45Zm-1.44,18.63a5.46,5.46,0,1,1,5.88-5A5.51,5.51,0,0,1,147.64,148.08Z"/><path class="cls-1" d="M189.83,72.2c-1.62,1.13-3.12,2.32-4.69,3.5L179.33,85l-11.69,18.44L156,121.83,153,126.45l-1.44,2.32a7.29,7.29,0,0,1-.75,1.12,3.38,3.38,0,0,0-.75,1.13c-.44,1.87-.81,3.75-1.18,5.68a1.6,1.6,0,0,0-.07.57,5.39,5.39,0,0,1,3.82,2.43,4,4,0,0,1,.5-.31c1.62-1.12,3.12-2.31,4.68-3.5a2.79,2.79,0,0,0,.69-1.19,12,12,0,0,1,.69-1.18l1.44-2.32,2.93-4.62,11.69-18.44L187,89.7l5.81-9.25c.44-1.87.81-3.81,1.19-5.75s.62-3.87.87-5.87C193.08,70,191.39,71,189.83,72.2Z"/></g></svg>