<svg width="60" height="60" viewBox="0 0 60 60" fill="none" xmlns="http://www.w3.org/2000/svg">
<rect width="60" height="60" rx="10" fill="#CEF0FF"/>
<path fill-rule="evenodd" clip-rule="evenodd" d="M29.319 34.8587C27.0893 34.8587 25.355 33.1245 25.355 30.8948C25.355 28.6652 27.0893 26.9308 29.319 26.9308C31.5487 26.9308 33.2829 28.6652 33.2829 30.8948C33.2829 33.1245 31.5487 34.8587 29.319 34.8587Z" fill="#477E96"/>
<path fill-rule="evenodd" clip-rule="evenodd" d="M37.0609 32.753C36.0701 32.753 35.2029 31.9475 35.2029 30.8948C35.2029 29.9037 36.0079 29.0366 37.0609 29.0366C38.0516 29.0366 38.919 29.8419 38.919 30.8948C38.919 31.9475 38.0518 32.7528 37.0609 32.7528V32.753ZM43.7501 34.4865C43.5025 35.4773 42.5112 36.0341 41.5203 35.7864C40.5295 35.5387 39.9718 34.548 40.2196 33.5573C40.4673 32.5665 41.458 32.0078 42.4493 32.2555C43.3767 32.5032 43.9969 33.3701 43.8106 34.3617C43.8106 34.3617 43.8106 34.4232 43.7492 34.485L43.7501 34.4865ZM42.4474 29.7777C41.4559 30.0254 40.465 29.406 40.2173 28.4149C39.9697 27.4242 40.5889 26.4329 41.58 26.185C42.5707 25.9374 43.5618 26.5569 43.8095 27.5482C43.8713 27.7959 43.8713 28.0436 43.8095 28.2913C43.7475 28.9729 43.2519 29.5919 42.4468 29.7777H42.4474ZM49.0113 34.2369C48.8251 35.2277 47.8958 35.9093 46.9051 35.7236C45.9144 35.5377 45.2328 34.6087 45.419 33.6177C45.6045 32.627 46.5336 31.9454 47.5245 32.1311C48.4538 32.3169 49.1354 33.184 49.0733 34.1131C49.0119 34.1749 49.0119 34.1749 49.0119 34.2369H49.0113ZM47.5279 29.656C46.5372 29.8419 45.6079 29.1607 45.4223 28.1696C45.2364 27.1788 45.9176 26.2496 46.9087 26.0637C47.8994 25.878 48.8287 26.5591 49.0144 27.5502C49.0144 27.736 49.0764 27.8599 49.0144 28.0455C48.9526 28.8508 48.3332 29.5322 47.5279 29.656ZM46.2273 40.6186C45.732 41.4857 44.617 41.7956 43.7499 41.2999C42.8829 40.8045 42.573 39.6896 43.0687 38.8225C43.5641 37.9554 44.679 37.6455 45.5461 38.1413C46.1655 38.5128 46.5368 39.194 46.475 39.8754C46.4132 40.1231 46.3512 40.3708 46.2273 40.6184V40.6186ZM45.5461 23.7724C44.679 24.2677 43.5641 23.958 43.0687 23.0908C42.5734 22.2237 42.8829 21.1089 43.7499 20.6134C44.617 20.118 45.7318 20.4275 46.2273 21.295C46.4132 21.6663 46.475 21.976 46.475 22.3475C46.4132 22.9051 46.1035 23.4625 45.5461 23.7722" fill="#477E96"/>
<path d="M29.3808 49.4134C24.4261 49.4134 19.8429 47.4934 16.3125 44.0251C12.9061 40.4943 10.9861 35.8479 10.9861 30.9557C10.9861 26.0002 12.9061 21.4171 16.3744 17.8863C19.8429 14.4187 24.4879 12.4987 29.3808 12.4987C33.4685 12.4987 37.3705 13.7992 40.5911 16.2773L38.3004 19.2497C35.6988 17.2692 32.6018 16.2161 29.382 16.2161C25.4802 16.2161 21.764 17.7645 18.9769 20.5514C16.191 23.3387 14.7044 26.993 14.7044 30.9567C14.7044 34.8587 16.2526 38.5748 19.0397 41.3619C21.8268 44.149 25.4813 45.6355 29.445 45.6355C32.7276 45.6355 35.8244 44.5825 38.3634 42.6005L40.5933 45.5727C37.3728 48.0495 33.471 49.4127 29.3831 49.4127L29.3808 49.4134Z" fill="#477E96"/>
</svg>
