<svg xmlns="http://www.w3.org/2000/svg" viewBox="0 0 994.66 1218.7"><defs><style>.cls-1{opacity:0.6;}.cls-2,.cls-4{fill:#fff;}.cls-3,.cls-4{opacity:0.8;}.cls-5{fill:none;}</style></defs><g id="Layer_1" data-name="Layer 1"><g class="cls-1"><path class="cls-2" d="M717.8,596.1a29,29,0,0,0-21.4,8.6c-52.8,51.4-124.2,79.9-198.4,79.9s-144.1-28.6-198.3-80c-5.7-5.7-14.3-8.6-21.4-8.6C122.7,607.5,0,738.8,0,895.8v138.4a185.18,185.18,0,0,0,185.5,185.5H809.1a185.18,185.18,0,0,0,185.5-185.5V895.8C996.1,738.8,873.4,607.5,717.8,596.1Z"/><g class="cls-3"><path class="cls-2" d="M498.1,581.8h0c138.4,0,252.6-112.7,252.6-252.6C750.7,190.8,636.5,78,498.1,78S245.5,190.8,245.5,330.6C245.5,469.1,359.6,581.8,498.1,581.8Zm0-446.7c107,0,195.5,87,195.5,195.5,0,107-87,195.5-195.5,195.5h0c-107,0-195.5-87-195.5-195.5S391,135.1,498.1,135.1Z"/></g></g><path class="cls-4" d="M836.2,246.5H810.4C785,107.4,655.3,1,498.1,1S210,107.4,185.4,246.5H159.8c-37.2,0-67,28.6-67.1,61.3V412c0,34.3,30,62.8,67.1,62.8H204c12.8,0,22.8-10,22.8-21.4V298.3a12.1,12.1,0,0,0,.1-1.9C226.9,158,348.3,45.2,498.1,45.2S769.2,158,769.2,296.4V424.2c-70.5,45.6-161.3,58.6-269.7,41.9-12.9-1.4-24.3,7.2-25.7,18.6-2.9,11.5,5.7,21.4,17.1,24.3,113,18.2,208.2,4.5,286.8-39a23.45,23.45,0,0,0,14.3,4.8h44.3c37.1,0,67-28.6,67-61.3V309.3C903.3,275,873.3,246.5,836.2,246.5ZM181.1,432.1h-20c-11.4,0-20-8.6-20-18.6V309.4c0-10,8.6-18.6,20-18.6h20Zm673.8-20.2c0,10-8.6,18.6-20,18.6h-20V289.2h20c11.4,0,20,8.6,20,18.6Z"/><g class="cls-1"><path class="cls-2" d="M353.74,875.73a133.13,133.13,0,0,1,94-67.5l-8-46a181.53,181.53,0,0,0-127.5,91Z"/></g><path class="cls-2" d="M355.74,1009.23a133.42,133.42,0,0,1-19-69,130.14,130.14,0,0,1,8.5-46.5l-44-16a184.54,184.54,0,0,0-11,62.5,182.54,182.54,0,0,0,25.5,93Z"/><g class="cls-1"><path class="cls-2" d="M472.24,1074.23h-1.5c-41.5,0-78.5-19-103.5-49l-36,30a181.18,181.18,0,0,0,139.5,66h2Z"/></g><path class="cls-2" d="M587.24,1006.23a134.07,134.07,0,0,1-95,66l7.5,46.5a180.18,180.18,0,0,0,128-89.5Z"/><g class="cls-3"><path class="cls-2" d="M586.24,872.73a133.46,133.46,0,0,1,18,67.5,128,128,0,0,1-9,48l44,17a184.66,184.66,0,0,0,12-64.5,180.8,180.8,0,0,0-24.5-91Z"/></g><rect class="cls-5" x="541.54" y="780.08" width="44" height="67.8"/><polygon class="cls-2" points="551.63 847.88 541.54 837.78 565.34 813.98 541.54 790.17 551.63 780.08 585.54 813.98 551.63 847.88"/><rect class="cls-5" x="473.74" y="780.08" width="44" height="67.8"/><polygon class="cls-2" points="483.83 847.88 473.74 837.78 497.54 813.98 473.74 790.17 483.83 780.08 517.74 813.98 483.83 847.88"/></g></svg>