<svg xmlns="http://www.w3.org/2000/svg" width="40" height="40" fill="none" viewBox="0 0 40 40"><rect width="40" height="40" fill="#FFF9E3" rx="5"/><path fill="#EBC017" d="M10.7 12.2C10.0403 12.2 9.50005 12.7402 9.50005 13.4V24.8C9.50005 25.0191 9.5645 25.223 9.6688 25.4H8.30005V26.3C8.30005 27.125 8.97505 27.8 9.80005 27.8H30.2001C31.025 27.8 31.7001 27.125 31.7001 26.3V25.4H30.3313C30.4356 25.223 30.5 25.0191 30.5 24.8V13.4C30.5 12.7402 29.9598 12.2 29.3 12.2H10.7ZM10.7 12.8H29.3C29.6352 12.8 29.9 13.0648 29.9 13.4V24.8C29.9 25.1351 29.6352 25.4 29.3 25.4H22.1V26L21.8 25.7C21.8 25.8699 21.67 26 21.5 26H18.5C18.3301 26 18.2 25.8699 18.2 25.7L17.9 26V25.4H10.7C10.3649 25.4 10.1 25.1351 10.1 24.8V13.4C10.1 13.0648 10.3649 12.8 10.7 12.8ZM11.6 14C11.4348 14 11.3 14.1347 11.3 14.3C11.3 14.4652 11.4348 14.6 11.6 14.6C11.7653 14.6 11.9 14.4652 11.9 14.3C11.9 14.1347 11.7653 14 11.6 14ZM12.8 14C12.6348 14 12.5 14.1347 12.5 14.3C12.5 14.4652 12.6348 14.6 12.8 14.6C12.9653 14.6 13.1 14.4652 13.1 14.3C13.1 14.1347 12.9653 14 12.8 14ZM14 14C13.8348 14 13.7 14.1347 13.7 14.3C13.7 14.4652 13.8348 14.6 14 14.6C14.1653 14.6 14.3 14.4652 14.3 14.3C14.3 14.1347 14.1653 14 14 14ZM15.2 14C15.0348 14 14.9 14.1347 14.9 14.3C14.9 14.4652 15.0348 14.6 15.2 14.6C15.3653 14.6 15.5 14.4652 15.5 14.3C15.5 14.1347 15.3653 14 15.2 14ZM16.4 14C16.2348 14 16.1 14.1347 16.1 14.3C16.1 14.4652 16.2348 14.6 16.4 14.6C16.5653 14.6 16.7 14.4652 16.7 14.3C16.7 14.1347 16.5653 14 16.4 14ZM17.6 14C17.4348 14 17.3 14.1347 17.3 14.3C17.3 14.4652 17.4348 14.6 17.6 14.6C17.7653 14.6 17.9 14.4652 17.9 14.3C17.9 14.1347 17.7653 14 17.6 14ZM18.8 14C18.6348 14 18.5 14.1347 18.5 14.3C18.5 14.4652 18.6348 14.6 18.8 14.6C18.9653 14.6 19.1 14.4652 19.1 14.3C19.1 14.1347 18.9653 14 18.8 14ZM20 14C19.8348 14 19.7 14.1347 19.7 14.3C19.7 14.4652 19.8348 14.6 20 14.6C20.1653 14.6 20.3 14.4652 20.3 14.3C20.3 14.1347 20.1653 14 20 14ZM21.2 14C21.0348 14 20.9 14.1347 20.9 14.3C20.9 14.4652 21.0348 14.6 21.2 14.6C21.3653 14.6 21.5 14.4652 21.5 14.3C21.5 14.1347 21.3653 14 21.2 14ZM22.4 14C22.2348 14 22.1 14.1347 22.1 14.3C22.1 14.4652 22.2348 14.6 22.4 14.6C22.5653 14.6 22.7 14.4652 22.7 14.3C22.7 14.1347 22.5653 14 22.4 14ZM23.6 14C23.4348 14 23.3 14.1347 23.3 14.3C23.3 14.4652 23.4348 14.6 23.6 14.6C23.7653 14.6 23.9 14.4652 23.9 14.3C23.9 14.1347 23.7653 14 23.6 14ZM24.8 14C24.6348 14 24.5 14.1347 24.5 14.3C24.5 14.4652 24.6348 14.6 24.8 14.6C24.9653 14.6 25.1 14.4652 25.1 14.3C25.1 14.1347 24.9653 14 24.8 14ZM26 14C25.8348 14 25.7001 14.1347 25.7001 14.3C25.7001 14.4652 25.8348 14.6 26 14.6C26.1653 14.6 26.3 14.4652 26.3 14.3C26.3 14.1347 26.1653 14 26 14ZM27.2001 14C27.0348 14 26.9 14.1347 26.9 14.3C26.9 14.4652 27.0348 14.6 27.2001 14.6C27.3653 14.6 27.5 14.4652 27.5 14.3C27.5 14.1347 27.3653 14 27.2001 14ZM28.4 14C28.2348 14 28.1 14.1347 28.1 14.3C28.1 14.4652 28.2348 14.6 28.4 14.6C28.5653 14.6 28.7001 14.4652 28.7001 14.3C28.7001 14.1347 28.5653 14 28.4 14ZM11.6 15.2C11.4348 15.2 11.3 15.3347 11.3 15.5C11.3 15.6652 11.4348 15.8 11.6 15.8C11.7653 15.8 11.9 15.6652 11.9 15.5C11.9 15.3347 11.7653 15.2 11.6 15.2ZM28.4 15.2C28.2348 15.2 28.1 15.3347 28.1 15.5C28.1 15.6652 28.2348 15.8 28.4 15.8C28.5653 15.8 28.7001 15.6652 28.7001 15.5C28.7001 15.3347 28.5653 15.2 28.4 15.2ZM11.6 16.4C11.4348 16.4 11.3 16.5347 11.3 16.7C11.3 16.8652 11.4348 17 11.6 17C11.7653 17 11.9 16.8652 11.9 16.7C11.9 16.5347 11.7653 16.4 11.6 16.4ZM28.4 16.4C28.2348 16.4 28.1 16.5347 28.1 16.7C28.1 16.8652 28.2348 17 28.4 17C28.5653 17 28.7001 16.8652 28.7001 16.7C28.7001 16.5347 28.5653 16.4 28.4 16.4ZM25.4 17.2636L22.0532 20.2437L20.0141 18.2046L16.4141 21.4777L14.6188 19.6812L13.9813 20.3187L16.386 22.7222L19.986 19.448L22.018 21.4812L26 17.9363L25.4 17.2636ZM11.6 17.6C11.4348 17.6 11.3 17.7347 11.3 17.9C11.3 18.0652 11.4348 18.2 11.6 18.2C11.7653 18.2 11.9 18.0652 11.9 17.9C11.9 17.7347 11.7653 17.6 11.6 17.6ZM28.4 17.6C28.2348 17.6 28.1 17.7347 28.1 17.9C28.1 18.0652 28.2348 18.2 28.4 18.2C28.5653 18.2 28.7001 18.0652 28.7001 17.9C28.7001 17.7347 28.5653 17.6 28.4 17.6ZM11.6 18.8C11.4348 18.8 11.3 18.9347 11.3 19.1C11.3 19.2652 11.4348 19.4 11.6 19.4C11.7653 19.4 11.9 19.2652 11.9 19.1C11.9 18.9347 11.7653 18.8 11.6 18.8ZM28.4 18.8C28.2348 18.8 28.1 18.9347 28.1 19.1C28.1 19.2652 28.2348 19.4 28.4 19.4C28.5653 19.4 28.7001 19.2652 28.7001 19.1C28.7001 18.9347 28.5653 18.8 28.4 18.8ZM11.6 20C11.4348 20 11.3 20.1347 11.3 20.3C11.3 20.4652 11.4348 20.6 11.6 20.6C11.7653 20.6 11.9 20.4652 11.9 20.3C11.9 20.1347 11.7653 20 11.6 20ZM28.4 20C28.2348 20 28.1 20.1347 28.1 20.3C28.1 20.4652 28.2348 20.6 28.4 20.6C28.5653 20.6 28.7001 20.4652 28.7001 20.3C28.7001 20.1347 28.5653 20 28.4 20ZM11.6 21.2C11.4348 21.2 11.3 21.3347 11.3 21.5C11.3 21.6652 11.4348 21.8 11.6 21.8C11.7653 21.8 11.9 21.6652 11.9 21.5C11.9 21.3347 11.7653 21.2 11.6 21.2ZM28.4 21.2C28.2348 21.2 28.1 21.3347 28.1 21.5C28.1 21.6652 28.2348 21.8 28.4 21.8C28.5653 21.8 28.7001 21.6652 28.7001 21.5C28.7001 21.3347 28.5653 21.2 28.4 21.2ZM11.6 22.4C11.4348 22.4 11.3 22.5347 11.3 22.7C11.3 22.8652 11.4348 23 11.6 23C11.7653 23 11.9 22.8652 11.9 22.7C11.9 22.5347 11.7653 22.4 11.6 22.4ZM28.4 22.4C28.2348 22.4 28.1 22.5347 28.1 22.7C28.1 22.8652 28.2348 23 28.4 23C28.5653 23 28.7001 22.8652 28.7001 22.7C28.7001 22.5347 28.5653 22.4 28.4 22.4ZM11.6 23.6C11.4348 23.6 11.3 23.7347 11.3 23.9C11.3 24.0652 11.4348 24.2 11.6 24.2C11.7653 24.2 11.9 24.0652 11.9 23.9C11.9 23.7347 11.7653 23.6 11.6 23.6ZM28.4 23.6C28.2348 23.6 28.1 23.7347 28.1 23.9C28.1 24.0652 28.2348 24.2 28.4 24.2C28.5653 24.2 28.7001 24.0652 28.7001 23.9C28.7001 23.7347 28.5653 23.6 28.4 23.6ZM8.90005 26H17.7254C17.8579 26.3316 18.1227 26.6 18.5 26.6H21.5C21.8774 26.6 22.1422 26.3316 22.2747 26H31.1V26.3C31.1 26.8003 30.7004 27.2 30.2001 27.2H9.80005C9.29966 27.2 8.90005 26.8003 8.90005 26.3V26Z"/></svg>