<svg xmlns="http://www.w3.org/2000/svg" width="30.871" height="33.076" viewBox="0 0 30.871 33.076"><g id="education" transform="translate(-5.998 -1.999)"><path id="Path_567" fill="#fff" d="M26.205,13.41a.551.551,0,0,1-.39-.161l-1.654-1.654a.551.551,0,0,1,0-.779l1.654-1.654a.551.551,0,1,1,.78.78l-1.264,1.264,1.264,1.264a.551.551,0,0,1-.39.941Z" data-name="Path 567" transform="translate(-8.078 -3.142)"/><path id="Path_568" fill="#fff" d="M35.551,13.41a.551.551,0,0,1-.39-.941l1.264-1.264L35.162,9.941a.551.551,0,1,1,.78-.78l1.654,1.654a.551.551,0,0,1,0,.779l-1.654,1.654A.551.551,0,0,1,35.551,13.41Z" data-name="Path 568" transform="translate(-13.014 -3.142)"/><path id="Path_569" fill="#fff" d="M30.551,13.512a.538.538,0,0,1-.135-.017.551.551,0,0,1-.4-.669l1.1-4.41a.551.551,0,1,1,1.069.268l-1.1,4.41a.551.551,0,0,1-.534.417Z" data-name="Path 569" transform="translate(-10.77 -2.693)"/><path id="Path_570" fill="#fff" d="M27.063,15.362a.547.547,0,0,1-.39-.162l-1.319-1.32a6.064,6.064,0,1,1,3.418,0l-1.32,1.32a.547.547,0,0,1-.389.162Zm0-12.26a4.961,4.961,0,0,0-1.281,9.753.551.551,0,0,1,.249.143l1.033,1.032L28.1,13a.551.551,0,0,1,.249-.143A4.961,4.961,0,0,0,27.063,3.1Z" data-name="Path 570" transform="translate(-6.732 0)"/><path id="Path_571" fill="#fff" d="M36.777,43.681l-1.8-2.7a1.643,1.643,0,0,0-.312-2.955v-3.96a.551.551,0,0,0-.346-.512L20.537,28.039a.561.561,0,0,0-.41,0L6.345,33.552a.551.551,0,0,0,0,1.024l5.166,2.066v8.447a1.654,1.654,0,0,0,1.654,1.654H27.5a1.654,1.654,0,0,0,1.654-1.654V36.642l4.41-1.764v3.146a1.643,1.643,0,0,0-.312,2.956l-1.8,2.7a.551.551,0,0,0,.459.856h4.41a.551.551,0,0,0,.459-.857Zm-8.727,1.408a.551.551,0,0,1-.551.551H13.165a.551.551,0,0,1-.551-.551V37.083l7.513,3.005a.557.557,0,0,0,.41,0l7.513-3.005Zm.337-9.328-8.054,3.222-8.054-3.222-4.243-1.7,12.3-4.919,12.3,4.919Zm5.727,3.264a.551.551,0,1,1-.551.551A.551.551,0,0,1,34.113,39.025Zm-1.175,4.41,1.175-1.764,1.175,1.764Z" data-name="Path 571" transform="translate(0 -11.668)"/><path id="Path_572" fill="#fff" d="M20,56.551a.551.551,0,0,0,.551.551H32.679a.551.551,0,0,0,0-1.1H20.551A.551.551,0,0,0,20,56.551Z" data-name="Path 572" transform="translate(-6.283 -24.233)"/><path id="Path_573" fill="#fff" d="M54,19h1.1v1.1H54Z" data-name="Path 573" transform="translate(-21.541 -7.629)"/><path id="Path_574" fill="#fff" d="M56,17h1.1v1.1H56Z" data-name="Path 574" transform="translate(-22.438 -6.732)"/><path id="Path_575" fill="#fff" d="M52,17h1.1v1.1H52Z" data-name="Path 575" transform="translate(-20.643 -6.732)"/><path id="Path_576" fill="#fff" d="M54,15h1.1v1.1H54Z" data-name="Path 576" transform="translate(-21.541 -5.834)"/><path id="Path_577" fill="#fff" d="M45,27h1.1v1.1H45Z" data-name="Path 577" transform="translate(-17.502 -11.219)"/><path id="Path_578" fill="#fff" d="M47,25h1.1v1.1H47Z" data-name="Path 578" transform="translate(-18.399 -10.322)"/><path id="Path_579" fill="#fff" d="M43,25h1.1v1.1H43Z" data-name="Path 579" transform="translate(-16.604 -10.322)"/><path id="Path_580" fill="#fff" d="M45,23h1.1v1.1H45Z" data-name="Path 580" transform="translate(-17.502 -9.424)"/><path id="Path_581" fill="#fff" d="M8,19H9.1v1.1H8Z" data-name="Path 581" transform="translate(-0.898 -7.629)"/><path id="Path_582" fill="#fff" d="M6,17H7.1v1.1H6Z" data-name="Path 582" transform="translate(-0.001 -6.732)"/><path id="Path_583" fill="#fff" d="M10,17h1.1v1.1H10Z" data-name="Path 583" transform="translate(-1.796 -6.732)"/><path id="Path_584" fill="#fff" d="M8,15H9.1v1.1H8Z" data-name="Path 584" transform="translate(-0.898 -5.834)"/><path id="Path_585" fill="#fff" d="M17,27h1.1v1.1H17Z" data-name="Path 585" transform="translate(-4.937 -11.219)"/><path id="Path_586" fill="#fff" d="M15,25h1.1v1.1H15Z" data-name="Path 586" transform="translate(-4.04 -10.322)"/><path id="Path_587" fill="#fff" d="M19,25h1.1v1.1H19Z" data-name="Path 587" transform="translate(-5.835 -10.322)"/><path id="Path_588" fill="#fff" d="M17,23h1.1v1.1H17Z" data-name="Path 588" transform="translate(-4.937 -9.424)"/></g></svg>