<svg xmlns="http://www.w3.org/2000/svg" width="33.076" height="33.076" viewBox="0 0 33.076 33.076"><g id="Source_code_config" data-name="Source code config" transform="translate(-2 -2)"><path id="Path_622" fill="#fff" d="M25.294,59.308H7.654A1.654,1.654,0,0,1,6,57.654v-1.1a.551.551,0,1,1,1.1,0v1.1a.551.551,0,0,0,.551.551h17.64a.551.551,0,1,1,0,1.1Z" data-name="Path 622" transform="translate(-1.795 -24.232)"/><path id="Path_623" fill="#fff" d="M18.205,41.307a.551.551,0,0,1-.305-.093l-1.654-1.1a.551.551,0,0,1,0-.917l1.654-1.1a.551.551,0,0,1,.612.917l-.968.644.966.644a.551.551,0,0,1-.3,1.01Z" data-name="Path 623" transform="translate(-6.283 -16.154)"/><path id="Path_624" fill="#fff" d="M32.551,41.307a.551.551,0,0,1-.307-1.01l.968-.644-.966-.644a.551.551,0,1,1,.612-.917l1.654,1.1a.551.551,0,0,1,0,.917l-1.654,1.1a.551.551,0,0,1-.308.093Z" data-name="Path 624" transform="translate(-13.461 -16.154)"/><path id="Path_625" fill="#fff" d="M22.551,41.409a.551.551,0,0,1-.523-.725l1.1-3.308a.552.552,0,0,1,1.047.348l-1.1,3.308A.551.551,0,0,1,22.551,41.409Z" data-name="Path 625" transform="translate(-8.975 -15.705)"/><path id="Path_626" fill="#fff" d="M26,42h1.1v1.1H26Z" data-name="Path 626" transform="translate(-10.77 -17.949)"/><path id="Path_627" fill="#fff" d="M29,42h1.1v1.1H29Z" data-name="Path 627" transform="translate(-12.116 -17.949)"/><path id="Path_628" fill="#fff" d="M21,29h1.1v1.1H21Z" data-name="Path 628" transform="translate(-8.526 -12.116)"/><path id="Path_629" fill="#fff" d="M25,29h6.615v1.1H25Z" data-name="Path 629" transform="translate(-10.321 -12.116)"/><path id="Path_630" fill="#fff" d="M39,29h2.205v1.1H39Z" data-name="Path 630" transform="translate(-16.603 -12.116)"/><path id="Path_631" fill="#fff" d="M17,33h3.308v1.1H17Z" data-name="Path 631" transform="translate(-6.731 -13.911)"/><path id="Path_632" fill="#fff" d="M25,33h1.1v1.1H25Z" data-name="Path 632" transform="translate(-10.321 -13.911)"/><path id="Path_633" fill="#fff" d="M10,5h1.1V6.1H10Z" data-name="Path 633" transform="translate(-3.59 -1.346)"/><path id="Path_634" fill="#fff" d="M14,5h1.1V6.1H14Z" data-name="Path 634" transform="translate(-5.385 -1.346)"/><path id="Path_635" fill="#fff" d="M18,5h1.1V6.1H18Z" data-name="Path 635" transform="translate(-7.18 -1.346)"/><path id="Path_636" fill="#fff" d="M29.7,2H7.654A1.654,1.654,0,0,0,6,3.654v21.5a.551.551,0,0,0,1.1,0V6.41H30.256V21.294a.551.551,0,0,0,1.1,0V3.654A1.654,1.654,0,0,0,29.7,2ZM7.1,5.308V3.654A.551.551,0,0,1,7.654,3.1H29.7a.551.551,0,0,1,.551.551V5.308Z" data-name="Path 636" transform="translate(-1.795)"/><path id="Path_637" fill="#fff" d="M12.551,14a.551.551,0,0,0-.551.551V30.538a.551.551,0,1,0,1.1,0V14.551A.551.551,0,0,0,12.551,14Z" data-name="Path 637" transform="translate(-4.487 -5.385)"/><path id="Path_638" fill="#fff" d="M18.2,16.307a.551.551,0,0,0,.307-1.01l-.968-.644.966-.644a.551.551,0,1,0-.612-.917l-1.654,1.1a.551.551,0,0,0,0,.917l1.654,1.1A.551.551,0,0,0,18.2,16.307Z" data-name="Path 638" transform="translate(-6.281 -4.936)"/><path id="Path_639" fill="#fff" d="M27.093,16.062a.551.551,0,0,0,.765.153l1.654-1.1a.551.551,0,0,0,0-.917l-1.654-1.1a.551.551,0,1,0-.612.917l.967.644-.966.644a.551.551,0,0,0-.154.765Z" data-name="Path 639" transform="translate(-11.218 -4.936)"/><path id="Path_640" fill="#fff" d="M23.828,12.028a.551.551,0,0,0-.7.349l-1.1,3.308a.552.552,0,0,0,1.047.348l1.1-3.308a.551.551,0,0,0-.35-.7Z" data-name="Path 640" transform="translate(-8.974 -4.487)"/><path id="Path_641" fill="#fff" d="M17,21h3.308v1.1H17Z" data-name="Path 641" transform="translate(-6.731 -8.526)"/><path id="Path_642" fill="#fff" d="M25,21h1.1v1.1H25Z" data-name="Path 642" transform="translate(-10.321 -8.526)"/><path id="Path_643" fill="#fff" d="M21,25h6.615v1.1H21Z" data-name="Path 643" transform="translate(-8.526 -10.321)"/><path id="Path_644" fill="#fff" d="M39,25h4.961v1.1H39Z" data-name="Path 644" transform="translate(-16.603 -10.321)"/><path id="Path_645" fill="#fff" d="M35,25h1.1v1.1H35Z" data-name="Path 645" transform="translate(-14.808 -10.321)"/><path id="Path_646" fill="#fff" d="M49.205,51.41a2.205,2.205,0,1,1,2.205-2.205A2.205,2.205,0,0,1,49.205,51.41Zm0-3.308a1.1,1.1,0,1,0,1.1,1.1A1.1,1.1,0,0,0,49.205,48.1Z" data-name="Path 646" transform="translate(-20.193 -20.193)"/><path id="Path_647" fill="#fff" d="M47.166,52.128H44.961a.551.551,0,0,1-.551-.551V50.153l-.068-.028-1.009,1.009a.551.551,0,0,1-.779,0l-1.56-1.56a.551.551,0,0,1,0-.78L42,47.788l-.029-.071H40.551A.551.551,0,0,1,40,47.166V44.961a.551.551,0,0,1,.551-.551h1.423c.009-.023.018-.046.028-.068l-1.009-1.009a.551.551,0,0,1,0-.779l1.56-1.56a.551.551,0,0,1,.78,0l1,1.009.072-.029V40.551A.551.551,0,0,1,44.961,40h2.205a.551.551,0,0,1,.551.551v1.423l.071.029,1-1.012a.551.551,0,0,1,.78,0l1.56,1.56a.551.551,0,0,1,0,.779L50.125,44.34c.01.022.019.045.028.068h1.424a.551.551,0,0,1,.551.551v2.205a.551.551,0,0,1-.551.551H50.153l-.029.071,1.012,1.008a.551.551,0,0,1,0,.78l-1.56,1.56a.551.551,0,0,1-.779,0l-1.009-1.009-.069.028v1.423a.551.551,0,0,1-.551.551Zm-1.654-1.1h1.1V49.763a.551.551,0,0,1,.391-.528,3.336,3.336,0,0,0,.629-.259.551.551,0,0,1,.654.094l.895.895.779-.779-.893-.89a.551.551,0,0,1-.162-.39.573.573,0,0,1,.067-.27,3.3,3.3,0,0,0,.26-.63.551.551,0,0,1,.528-.391h1.262v-1.1H49.763a.551.551,0,0,1-.528-.391,3.3,3.3,0,0,0-.26-.63.551.551,0,0,1,.094-.654l.895-.895-.779-.78-.889.893a.572.572,0,0,1-.662.095,3.336,3.336,0,0,0-.629-.259.551.551,0,0,1-.39-.528V41.1h-1.1v1.262a.551.551,0,0,1-.391.528,3.335,3.335,0,0,0-.629.259.571.571,0,0,1-.662-.095l-.889-.893-.779.78.895.895a.551.551,0,0,1,.094.654,3.3,3.3,0,0,0-.26.63.551.551,0,0,1-.528.391H41.1v1.1h1.262a.551.551,0,0,1,.528.391,3.3,3.3,0,0,0,.26.63.551.551,0,0,1,.067.264.563.563,0,0,1-.162.4l-.893.89.779.779.895-.895a.551.551,0,0,1,.654-.094,3.336,3.336,0,0,0,.629.259.551.551,0,0,1,.391.528Z" data-name="Path 647" transform="translate(-17.052 -17.052)"/><path id="Path_648" fill="#fff" d="M21.541,48.712l-3.308-1.654A.551.551,0,0,0,17.987,47H4.205a2.205,2.205,0,0,0,0,4.41H17.987a.551.551,0,0,0,.246-.055L21.541,49.7a.551.551,0,0,0,0-.987Zm-17.336,1.6a1.1,1.1,0,1,1,0-2.205ZM7.513,48.1h9.143l-.551.551H7.513Zm-1.1,2.205h-1.1V48.1h1.1Zm1.1-.551H16.1l.551.551H7.513Zm10.584.432-.985-.983.985-.983,1.965.983Z" data-name="Path 648" transform="translate(0 -20.193)"/></g></svg>