<svg width="361" height="361" viewBox="0 0 361 361" fill="none" xmlns="http://www.w3.org/2000/svg">
<path d="M259.469 236.906C262.459 236.903 265.327 235.714 267.442 233.598C269.557 231.483 270.746 228.616 270.75 225.625V157.938C270.746 154.947 269.557 152.079 267.442 149.964C265.327 147.849 262.46 146.66 259.469 146.656H67.6875C64.6968 146.66 61.8294 147.849 59.7142 149.964C57.5991 152.079 56.4099 154.947 56.4062 157.938V225.625C56.4098 228.616 57.599 231.483 59.7142 233.598C61.8294 235.713 64.6966 236.903 67.6875 236.906H259.469ZM188.559 179.026C190.474 175.455 193.448 172.565 197.073 170.755C200.389 169.18 204.036 168.42 207.707 168.544C213.221 168.544 217.528 169.7 220.629 172.013H220.628C223.746 174.354 225.879 177.773 226.611 181.602L217.705 183.268V183.269C217.153 181.195 215.91 179.374 214.18 178.103C212.284 176.79 210.015 176.126 207.711 176.21C204.203 176.043 200.795 177.402 198.365 179.937C196.052 182.421 194.896 186.107 194.896 190.995C194.896 196.266 196.068 200.219 198.41 202.855V202.857C200.735 205.483 204.114 206.932 207.619 206.805C209.556 206.793 211.473 206.418 213.27 205.699C215.011 205.045 216.649 204.142 218.132 203.02V197.379H207.857V189.896H227.185V207.589C224.804 209.709 222.031 211.34 219.02 212.39C215.571 213.752 211.898 214.456 208.189 214.466C203.954 214.567 199.767 213.559 196.04 211.543C192.631 209.642 189.907 206.717 188.255 203.181C186.502 199.485 185.611 195.439 185.649 191.35C185.571 187.063 186.571 182.825 188.559 179.026ZM138.835 180.389C139.842 178.132 141.242 176.069 142.971 174.301C144.592 172.59 146.546 171.229 148.712 170.302C151.751 169.079 155.008 168.48 158.285 168.544C164.83 168.544 170.066 170.573 173.994 174.633C177.923 178.692 179.888 184.338 179.888 191.569C179.888 198.74 177.939 204.35 174.041 208.399C170.144 212.449 164.933 214.475 158.409 214.475C151.804 214.475 146.553 212.461 142.655 208.431C138.755 204.401 136.805 198.851 136.805 191.78C136.689 187.884 137.38 184.006 138.836 180.389L138.835 180.389ZM100.656 169.664H109.623V206.23L131.921 206.231V213.714H100.656V169.664Z" fill="#326CE5"/>
<path d="M158.38 206.808C161.743 206.901 164.971 205.483 167.18 202.945C169.472 200.37 170.619 196.508 170.619 191.356C170.619 186.267 169.502 182.47 167.271 179.964V179.966C164.926 177.558 161.707 176.203 158.346 176.211C154.985 176.219 151.772 177.591 149.44 180.012C147.177 182.55 146.047 186.373 146.048 191.479C146.048 196.508 147.209 200.32 149.532 202.915C151.753 205.466 154.998 206.894 158.38 206.808V206.808Z" fill="#326CE5"/>
<path d="M282.031 11.2812H90.2497C84.2682 11.2883 78.5325 13.6668 74.3031 17.8972C70.0728 22.1266 67.6941 27.8623 67.6872 33.8438V135.375H78.9684V33.8438C78.972 30.853 80.1612 27.9856 82.2764 25.8705C84.3916 23.7553 87.2588 22.5661 90.2497 22.5625H282.031C285.022 22.566 287.889 23.7552 290.004 25.8705C292.119 27.9857 293.309 30.8529 293.312 33.8438V269.381C293.309 269.838 293.278 270.297 293.221 270.75H242.545C238.059 270.755 233.758 272.54 230.586 275.713C227.413 278.884 225.628 283.185 225.623 287.672V338.348C225.17 338.405 224.711 338.436 224.254 338.439H90.248C87.2573 338.436 84.3899 337.246 82.2748 335.131C80.1596 333.016 78.9704 330.149 78.9668 327.158V248.189H67.6855V327.158C67.6926 333.139 70.0711 338.875 74.3015 343.105C78.5309 347.335 84.2666 349.713 90.248 349.72H224.254C230.241 349.736 235.986 347.357 240.209 343.113L297.984 285.338C302.228 281.114 304.607 275.37 304.592 269.383V33.8454C304.585 27.8639 302.206 22.1282 297.976 17.8988C293.746 13.6685 288.011 11.2898 282.029 11.2829L282.031 11.2812Z" fill="#326CE5"/>
<path d="M190.556 89.6548C190.416 89.6271 190.274 89.6162 190.131 89.6225C189.885 89.6355 189.644 89.6981 189.423 89.8064C188.993 90.0138 188.66 90.3791 188.493 90.826C188.326 91.2729 188.338 91.767 188.526 92.2054L188.513 92.2238L192.753 102.467C196.81 99.8789 199.888 96.0122 201.501 91.4785L190.575 89.6319L190.556 89.6548ZM173.555 91.1066C173.463 90.7027 173.238 90.3415 172.917 90.0806C172.595 89.8197 172.195 89.6743 171.781 89.6677C171.659 89.6662 171.537 89.677 171.417 89.7L171.398 89.6776L160.567 91.5163C162.193 96.0142 165.259 99.8497 169.288 102.428L173.485 92.2849L173.452 92.2451C173.607 91.8863 173.643 91.4874 173.555 91.1066V91.1066ZM182.626 95.0841C182.468 94.7892 182.233 94.5428 181.946 94.3711C181.658 94.1994 181.33 94.109 180.995 94.1094C180.66 94.1098 180.332 94.2011 180.045 94.3734C179.758 94.5458 179.524 94.7928 179.366 95.0881H179.357L174.031 104.72C177.845 106.018 181.945 106.229 185.872 105.329C186.6 105.163 187.311 104.964 188.006 104.732L182.667 95.0836L182.626 95.0841ZM199.488 72.7104L191.293 80.0455L191.297 80.0689C191.046 80.289 190.858 80.5732 190.755 80.8912C190.652 81.2093 190.636 81.5494 190.711 81.8754C190.785 82.2015 190.947 82.5013 191.178 82.743C191.409 82.9847 191.701 83.1594 192.023 83.2484L192.033 83.2927L202.648 86.3504C203.107 81.5813 201.998 76.7927 199.488 72.7114V72.7104ZM184.263 73.5323C184.278 73.8664 184.384 74.19 184.568 74.4689C184.753 74.7478 185.009 74.9715 185.311 75.1163C185.612 75.2611 185.947 75.3216 186.28 75.2913C186.614 75.261 186.932 75.1411 187.203 74.9443L187.235 74.9577L196.202 68.5996C192.789 65.2562 188.371 63.1268 183.63 62.5388L184.253 73.5293L184.263 73.5323ZM174.766 74.9846C175.037 75.1812 175.356 75.3009 175.689 75.3307C176.022 75.3606 176.357 75.2996 176.658 75.1542C176.959 75.0088 177.215 74.7845 177.399 74.5051C177.583 74.2257 177.687 73.9017 177.702 73.5676L177.747 73.5462L178.37 62.5383C177.618 62.6287 176.871 62.7575 176.133 62.9242C172.202 63.8077 168.596 65.7725 165.723 68.5966L174.749 74.995L174.766 74.9846ZM169.954 83.3021C170.278 83.214 170.571 83.0398 170.802 82.7981C171.034 82.5565 171.196 82.2564 171.271 81.9299C171.345 81.6034 171.33 81.2628 171.226 80.9444C171.122 80.6261 170.934 80.3418 170.681 80.1221L170.69 80.0783L162.45 72.7079C159.936 76.7997 158.857 81.6123 159.383 86.3857L169.946 83.3379L169.954 83.3021ZM177.958 86.5398L180.998 88.0016L184.029 86.5428L184.782 83.2708L182.684 80.6476H179.308L177.205 83.2668L177.958 86.5398Z" fill="#326CE5"/>
<path d="M231.252 92.9868L222.589 55.3617C222.356 54.3883 221.91 53.4787 221.283 52.6987C220.656 51.9186 219.864 51.2874 218.963 50.8506L183.901 34.1101C182.992 33.6765 181.998 33.4514 180.991 33.4514C179.984 33.4514 178.99 33.6765 178.081 34.1101L143.026 50.8596C142.125 51.296 141.332 51.9271 140.705 52.7071C140.078 53.4871 139.631 54.3967 139.399 55.3701L130.75 92.9943C130.537 93.9453 130.536 94.9316 130.748 95.8829C130.811 96.1727 130.892 96.4581 130.992 96.7371C131.162 97.2133 131.386 97.6681 131.66 98.0925C131.779 98.2739 131.904 98.4504 132.041 98.6215L156.306 128.79C156.411 128.921 156.528 129.041 156.644 129.163C157.025 129.569 157.455 129.925 157.924 130.224C158.517 130.597 159.164 130.878 159.842 131.057C160.397 131.21 160.971 131.289 161.547 131.293H161.924L200.459 131.284C200.693 131.283 200.927 131.269 201.16 131.242C201.494 131.205 201.824 131.142 202.149 131.054C202.381 130.993 202.611 130.92 202.835 130.835C203.011 130.768 203.186 130.7 203.355 130.619C203.608 130.498 203.854 130.362 204.09 130.211C204.701 129.827 205.245 129.346 205.7 128.786L206.44 127.866L229.956 98.6115C230.407 98.0463 230.761 97.4105 231.004 96.7297C231.106 96.4497 231.189 96.1634 231.253 95.8725C231.466 94.9213 231.465 93.9348 231.251 92.9838L231.252 92.9868ZM194.883 107.62C194.982 107.91 195.099 108.192 195.233 108.467C195.018 108.842 194.96 109.287 195.07 109.705C195.58 110.873 196.204 111.989 196.931 113.036C197.338 113.571 197.713 114.13 198.056 114.709C198.14 114.865 198.251 115.108 198.331 115.273C198.482 115.526 198.578 115.807 198.614 116.099C198.65 116.391 198.624 116.687 198.539 116.969C198.453 117.25 198.31 117.511 198.118 117.733C197.925 117.956 197.689 118.136 197.423 118.262C197.157 118.388 196.868 118.456 196.574 118.463C196.279 118.471 195.987 118.416 195.715 118.304C195.444 118.191 195.198 118.023 194.995 117.81C194.793 117.597 194.636 117.344 194.537 117.067C194.457 116.903 194.346 116.684 194.278 116.529C194.038 115.9 193.835 115.258 193.669 114.606C193.305 113.385 192.823 112.204 192.229 111.077C191.971 110.729 191.586 110.496 191.158 110.427C191.091 110.311 190.842 109.856 190.709 109.62C184.467 111.984 177.574 111.966 171.344 109.571L170.869 110.431C170.53 110.483 170.215 110.637 169.965 110.872C169.249 112.046 168.702 113.315 168.34 114.642C168.176 115.294 167.974 115.936 167.735 116.565C167.667 116.719 167.555 116.935 167.475 117.098V117.103L167.472 117.107C167.373 117.384 167.216 117.637 167.013 117.851C166.81 118.064 166.565 118.232 166.293 118.345C166.021 118.458 165.728 118.512 165.434 118.504C165.139 118.497 164.85 118.428 164.584 118.302C164.318 118.175 164.081 117.995 163.889 117.771C163.697 117.548 163.554 117.287 163.469 117.005C163.385 116.723 163.36 116.426 163.397 116.134C163.434 115.842 163.531 115.561 163.683 115.309C163.762 115.142 163.868 114.901 163.952 114.744C164.294 114.164 164.67 113.604 165.077 113.067C165.817 111.993 166.453 110.849 166.976 109.654C167.031 109.248 166.966 108.836 166.789 108.467L167.171 107.552C161.428 104.163 157.123 98.7886 155.07 92.4439L154.156 92.5995C153.801 92.3477 153.383 92.2005 152.949 92.1744C151.697 92.4138 150.473 92.7743 149.291 93.2508C148.678 93.5267 148.049 93.7674 147.408 93.9717C147.257 94.0135 147.038 94.0553 146.865 94.093C146.851 94.098 146.839 94.104 146.825 94.1075C146.814 94.109 146.804 94.11 146.793 94.1104C146.514 94.2021 146.22 94.2345 145.928 94.2057C145.636 94.1769 145.354 94.0875 145.098 93.9432C144.843 93.799 144.621 93.603 144.446 93.3678C144.27 93.1327 144.146 92.8636 144.081 92.5777C144.016 92.2918 144.011 91.9955 144.067 91.7077C144.123 91.4199 144.239 91.147 144.406 90.9063C144.574 90.6657 144.79 90.4627 145.04 90.3104C145.291 90.158 145.57 90.0596 145.861 90.0215L145.891 90.0141L145.91 90.0091C146.085 89.9678 146.31 89.9097 146.47 89.8788C147.138 89.7862 147.81 89.732 148.484 89.7167C149.754 89.6337 151.014 89.4269 152.244 89.0992C152.609 88.8669 152.917 88.5561 153.146 88.1894L154.025 87.9328C153.072 81.3108 154.597 74.57 158.307 69.0032L157.635 68.4036C157.61 67.9683 157.464 67.5487 157.213 67.1924C156.247 66.3617 155.201 65.6273 154.092 64.9998C153.493 64.6943 152.912 64.3547 152.352 63.9825C152.225 63.8875 152.056 63.7448 151.918 63.6325L151.887 63.6106C151.409 63.2678 151.087 62.75 150.99 62.1703C150.894 61.5906 151.03 60.9963 151.37 60.5171C151.571 60.2711 151.828 60.0759 152.118 59.9473C152.409 59.8188 152.725 59.7605 153.042 59.7772C153.577 59.8002 154.089 59.9936 154.505 60.3291C154.648 60.441 154.843 60.5907 154.97 60.6995C155.459 61.1615 155.92 61.6512 156.352 62.1663C157.21 63.1085 158.157 63.9647 159.181 64.7228C159.565 64.9246 160.013 64.968 160.428 64.8436C160.678 65.026 160.93 65.2053 161.185 65.3816C164.872 61.4621 169.647 58.7343 174.896 57.5483C176.145 57.2654 177.413 57.0705 178.689 56.9651L178.739 56.0781C179.065 55.7885 179.301 55.4117 179.42 54.9923C179.466 53.7192 179.388 52.4447 179.186 51.1867C179.053 50.5275 178.957 49.8612 178.9 49.191C178.895 49.0384 178.903 48.8276 178.905 48.6535C178.905 48.6336 178.9 48.6138 178.9 48.5949C178.87 48.3015 178.902 48.0052 178.994 47.725C179.086 47.4448 179.235 47.187 179.433 46.9681C179.631 46.7493 179.872 46.5744 180.142 46.4546C180.411 46.3348 180.702 46.2728 180.997 46.2727C181.292 46.2726 181.584 46.3342 181.853 46.4538C182.123 46.5733 182.364 46.748 182.562 46.9667C182.76 47.1853 182.91 47.443 183.002 47.7231C183.094 48.0032 183.126 48.2995 183.097 48.5929C183.097 48.7768 183.108 49.0205 183.101 49.1895C183.044 49.8596 182.948 50.5258 182.813 51.1847C182.611 52.4429 182.531 53.7177 182.576 54.9913C182.659 55.417 182.905 55.7935 183.261 56.0403C183.269 56.192 183.294 56.6981 183.312 56.9771C189.946 57.5803 196.135 60.5708 200.73 65.393L201.528 64.8228C201.957 64.8964 202.398 64.8485 202.801 64.6845C203.825 63.9251 204.772 63.0679 205.63 62.125C206.063 61.6097 206.526 61.12 207.016 60.6583C207.145 60.5479 207.339 60.3997 207.481 60.2874C207.692 60.0798 207.944 59.9187 208.22 59.8148C208.497 59.7108 208.793 59.6662 209.088 59.6839C209.383 59.7015 209.671 59.7811 209.934 59.9173C210.196 60.0536 210.427 60.2435 210.611 60.4748C210.796 60.706 210.929 60.9734 211.004 61.2597C211.078 61.5459 211.091 61.8446 211.042 62.1362C210.994 62.4279 210.884 62.7061 210.721 62.9527C210.558 63.1994 210.345 63.4089 210.095 63.5678C209.955 63.6817 209.769 63.8403 209.634 63.9407C209.072 64.3132 208.49 64.6528 207.89 64.958C206.781 65.5859 205.736 66.3202 204.769 67.1506C204.488 67.4801 204.346 67.9066 204.375 68.3389C204.258 68.4463 203.848 68.8098 203.631 69.0066C207.352 74.5536 208.908 81.2736 208.002 87.8915L208.849 88.1382C209.061 88.5192 209.374 88.8342 209.754 89.048C210.986 89.3762 212.246 89.5837 213.517 89.6675C214.19 89.683 214.862 89.7367 215.529 89.8286C215.705 89.8609 215.96 89.9315 216.14 89.9728C216.431 90.011 216.711 90.1095 216.961 90.262C217.211 90.4145 217.427 90.6176 217.595 90.8583C217.762 91.099 217.878 91.372 217.933 91.6598C217.989 91.9477 217.984 92.244 217.919 92.5299C217.854 92.8157 217.73 93.0848 217.554 93.3199C217.379 93.5549 217.157 93.7508 216.901 93.895C216.646 94.0391 216.363 94.1284 216.071 94.157C215.78 94.1856 215.485 94.153 215.207 94.0612L215.176 94.0573C215.162 94.0538 215.149 94.0463 215.135 94.0423C214.962 94.005 214.745 93.9673 214.593 93.9275C213.952 93.7216 213.324 93.4789 212.711 93.2006C211.529 92.7237 210.303 92.3632 209.05 92.1242C208.617 92.1105 208.195 92.267 207.876 92.5602C207.578 92.5035 207.279 92.4511 206.979 92.4031C204.95 98.7873 200.645 104.203 194.883 107.62V107.62Z" fill="#326CE5"/>
<path d="M235.826 93.9512L226.376 52.9029C226.122 51.8408 225.635 50.8482 224.951 49.997C224.266 49.1458 223.402 48.4571 222.419 47.9807L184.167 29.7188C183.176 29.2456 182.091 29 180.993 29C179.894 29 178.809 29.2456 177.818 29.7188L139.57 47.9916C138.587 48.4676 137.722 49.1559 137.038 50.0066C136.353 50.8574 135.866 51.8495 135.611 52.9114L126.178 93.9622C125.965 94.9085 125.943 95.8878 126.113 96.8426C126.284 97.7975 126.643 98.7089 127.17 99.5233C127.299 99.7221 127.437 99.9151 127.586 100.101L154.06 133.018C154.754 133.865 155.626 134.548 156.614 135.02C157.602 135.491 158.682 135.739 159.777 135.746L202.231 135.736C203.326 135.73 204.405 135.482 205.394 135.011C206.382 134.54 207.254 133.858 207.949 133.011L234.413 100.092C235.09 99.2381 235.569 98.244 235.813 97.1819C236.058 96.1199 236.062 95.0166 235.826 93.9527V93.9512ZM231.253 95.8734C231.189 96.164 231.107 96.4502 231.005 96.73C230.762 97.4111 230.408 98.0471 229.956 98.6124L206.44 127.866L205.701 128.787C205.245 129.347 204.701 129.828 204.09 130.212C203.854 130.362 203.609 130.499 203.357 130.62C203.187 130.699 203.014 130.77 202.837 130.834C202.612 130.92 202.383 130.994 202.15 131.055C201.825 131.143 201.495 131.206 201.161 131.244C200.928 131.27 200.694 131.284 200.46 131.284L161.925 131.293H161.548C160.971 131.29 160.398 131.211 159.843 131.059C159.165 130.879 158.519 130.598 157.926 130.224C157.457 129.925 157.026 129.569 156.645 129.164C156.529 129.042 156.412 128.922 156.307 128.791L132.042 98.6219C131.906 98.4515 131.78 98.2748 131.661 98.0918C131.387 97.6675 131.163 97.2127 130.993 96.7365C130.893 96.4573 130.812 96.1718 130.749 95.8818C130.537 94.9307 130.538 93.9445 130.751 92.9936L139.4 55.3685C139.633 54.3952 140.079 53.4859 140.706 52.706C141.333 51.9262 142.126 51.2953 143.027 50.859L178.083 34.111C178.991 33.6773 179.986 33.4523 180.993 33.4523C181.999 33.4523 182.994 33.6773 183.902 34.111L218.964 50.8515C219.864 51.2882 220.657 51.9194 221.284 52.6995C221.911 53.4796 222.357 54.3892 222.59 55.3625L231.252 92.9872C231.465 93.9377 231.466 94.9237 231.253 95.8744V95.8734Z" fill="white" fill-opacity="0.5"/>
<path d="M216.14 89.9731C215.961 89.9318 215.706 89.8612 215.53 89.8289C214.863 89.7367 214.192 89.6825 213.518 89.6668C212.247 89.5837 210.986 89.3768 209.755 89.0493C209.375 88.8351 209.061 88.5198 208.85 88.1384L208.003 87.8918C208.908 81.274 207.353 74.554 203.632 69.0069C203.849 68.81 204.26 68.4466 204.376 68.3397C204.347 67.9073 204.488 67.4809 204.769 67.1514C205.736 66.321 206.781 65.5866 207.89 64.9587C208.491 64.6536 209.073 64.3139 209.634 63.9415C209.769 63.8411 209.954 63.682 210.096 63.5686C210.345 63.4097 210.558 63.2002 210.721 62.9536C210.884 62.707 210.994 62.4289 211.043 62.1373C211.091 61.8457 211.078 61.5471 211.004 61.2609C210.93 60.9748 210.796 60.7074 210.612 60.4761C210.428 60.2448 210.197 60.0549 209.935 59.9185C209.673 59.7822 209.385 59.7025 209.089 59.6847C208.794 59.6669 208.499 59.7113 208.222 59.8151C207.945 59.9189 207.693 60.0797 207.483 60.2871C207.339 60.4 207.144 60.5481 207.017 60.6585C206.527 61.1202 206.064 61.6099 205.631 62.1252C204.773 63.0681 203.825 63.9254 202.801 64.6848C202.398 64.8487 201.958 64.8966 201.529 64.823L200.73 65.3933C196.135 60.5711 189.946 57.5806 183.312 56.9773C183.293 56.6984 183.269 56.1932 183.262 56.0406C182.906 55.7935 182.66 55.4171 182.577 54.9915C182.533 53.718 182.612 52.4431 182.815 51.185C182.948 50.5261 183.044 49.8601 183.101 49.1903C183.107 49.0212 183.097 48.7756 183.097 48.5931C183.127 48.2998 183.094 48.0034 183.002 47.7233C182.91 47.4432 182.76 47.1855 182.563 46.9669C182.365 46.7483 182.123 46.5736 181.854 46.454C181.584 46.3345 181.293 46.2728 180.998 46.2729C180.703 46.2731 180.411 46.3351 180.142 46.4548C179.872 46.5746 179.631 46.7496 179.433 46.9684C179.236 47.1872 179.086 47.445 178.994 47.7252C178.903 48.0054 178.871 48.3018 178.9 48.5951C178.9 48.615 178.905 48.6339 178.905 48.6538C178.903 48.8278 178.895 49.0386 178.9 49.1908C178.958 49.8611 179.053 50.5276 179.187 51.187C179.388 52.4449 179.466 53.7194 179.42 54.9925C179.301 55.4116 179.065 55.788 178.739 56.0774L178.69 56.9654C177.413 57.0708 176.145 57.2656 174.896 57.5486C169.648 58.7347 164.873 61.4623 161.186 65.3814C160.931 65.2054 160.678 65.026 160.428 64.8434C160.013 64.9676 159.565 64.9242 159.182 64.7226C158.158 63.9646 157.21 63.1085 156.353 62.1665C155.921 61.6515 155.46 61.1618 154.972 60.6998C154.844 60.5904 154.649 60.4412 154.506 60.3269C154.09 59.9913 153.577 59.7979 153.043 59.775C152.726 59.7584 152.409 59.8168 152.118 59.9455C151.828 60.0742 151.572 60.2696 151.371 60.5158C151.031 60.995 150.894 61.5894 150.991 62.1691C151.087 62.7487 151.41 63.2665 151.887 63.6094L151.919 63.6322C152.056 63.7446 152.225 63.8883 152.353 63.9813C152.913 64.3538 153.493 64.6937 154.092 64.9995C155.201 65.6274 156.247 66.3621 157.213 67.1931C157.464 67.5492 157.61 67.9684 157.635 68.4033L158.307 69.0039C154.596 74.5709 153.072 81.3117 154.025 87.9336L153.147 88.1891C152.918 88.5553 152.609 88.8656 152.245 89.0975C151.014 89.426 149.755 89.6336 148.484 89.7175C147.81 89.7328 147.138 89.7869 146.47 89.8796C146.309 89.9094 146.086 89.9661 145.91 90.0098L145.892 90.0138L145.862 90.0228C145.571 90.061 145.292 90.1594 145.041 90.3119C144.791 90.4643 144.575 90.6673 144.408 90.9079C144.24 91.1485 144.125 91.4215 144.069 91.7092C144.013 91.997 144.018 92.2933 144.083 92.5791C144.148 92.8649 144.272 93.134 144.447 93.3691C144.622 93.6041 144.845 93.8001 145.1 93.9444C145.355 94.0886 145.638 94.178 145.929 94.2068C146.221 94.2356 146.516 94.2032 146.794 94.1117L146.825 94.1067C146.839 94.1037 146.851 94.0968 146.865 94.0943C147.038 94.0545 147.256 94.0132 147.408 93.972C148.049 93.7675 148.677 93.5266 149.291 93.2505C150.472 92.774 151.697 92.4135 152.949 92.1741C153.383 92.2007 153.801 92.3483 154.155 92.6002L155.07 92.4436C157.124 98.7885 161.428 104.162 167.172 107.552L166.789 108.467C166.967 108.835 167.032 109.248 166.977 109.653C166.454 110.849 165.818 111.992 165.077 113.066C164.67 113.603 164.295 114.163 163.952 114.743C163.869 114.901 163.763 115.143 163.683 115.309C163.531 115.561 163.434 115.842 163.398 116.133C163.362 116.425 163.387 116.722 163.472 117.003C163.557 117.285 163.7 117.545 163.892 117.768C164.084 117.991 164.32 118.171 164.586 118.297C164.851 118.423 165.141 118.492 165.435 118.5C165.729 118.508 166.021 118.454 166.293 118.341C166.565 118.229 166.81 118.061 167.013 117.849C167.216 117.636 167.372 117.383 167.472 117.106L167.475 117.102V117.097C167.555 116.933 167.668 116.718 167.735 116.564C167.974 115.936 168.176 115.294 168.34 114.641C168.703 113.315 169.25 112.046 169.965 110.872C170.216 110.637 170.531 110.483 170.87 110.43L171.346 109.57C177.575 111.965 184.468 111.983 190.709 109.619C190.842 109.857 191.091 110.311 191.157 110.426C191.585 110.495 191.97 110.728 192.228 111.077C192.822 112.204 193.305 113.385 193.669 114.606C193.835 115.258 194.038 115.9 194.278 116.529C194.346 116.684 194.457 116.902 194.538 117.067C194.637 117.344 194.793 117.597 194.996 117.81C195.199 118.023 195.444 118.191 195.716 118.303C195.987 118.416 196.28 118.47 196.574 118.463C196.868 118.456 197.157 118.387 197.423 118.262C197.689 118.136 197.926 117.956 198.118 117.733C198.31 117.51 198.454 117.25 198.539 116.969C198.625 116.687 198.65 116.391 198.615 116.099C198.579 115.807 198.482 115.526 198.331 115.273C198.251 115.108 198.141 114.866 198.058 114.708C197.715 114.13 197.34 113.571 196.933 113.036C196.205 111.989 195.582 110.873 195.072 109.705C194.961 109.287 195.019 108.842 195.233 108.467C195.099 108.192 194.982 107.909 194.884 107.62C200.646 104.203 204.95 98.7875 206.979 92.4033C207.251 92.4466 207.724 92.5291 207.877 92.5604C208.197 92.2675 208.618 92.111 209.051 92.1244C210.303 92.3636 211.528 92.7241 212.71 93.2008C213.323 93.4792 213.952 93.7219 214.593 93.9277C214.745 93.9675 214.961 94.0053 215.135 94.0436C215.15 94.0475 215.163 94.0535 215.177 94.0575L215.206 94.062C215.485 94.1533 215.779 94.1856 216.071 94.1567C216.362 94.1278 216.645 94.0384 216.9 93.8942C217.155 93.75 217.377 93.5542 217.552 93.3192C217.727 93.0843 217.851 92.8154 217.916 92.5297C217.982 92.2441 217.987 91.948 217.931 91.6603C217.875 91.3727 217.76 91.0998 217.593 90.8592C217.426 90.6186 217.21 90.4155 216.96 90.2629C216.71 90.1103 216.431 90.0116 216.14 89.9731V89.9731ZM196.203 68.6002L187.235 74.9578L187.204 74.9429C186.933 75.14 186.615 75.2602 186.282 75.2907C185.948 75.3212 185.613 75.2609 185.312 75.1162C185.01 74.9714 184.754 74.7477 184.569 74.4687C184.384 74.1898 184.279 73.866 184.264 73.5319L184.254 73.5269L183.631 62.5374C188.372 63.1262 192.789 65.2563 196.202 68.6002H196.203ZM179.309 80.6462H182.684L184.782 83.2694L184.03 86.5409L180.999 87.9997L177.959 86.5379L177.205 83.2649L179.309 80.6462ZM176.134 62.9222C176.873 62.7559 177.621 62.6274 178.373 62.5374L177.749 73.5438L177.703 73.5657C177.689 73.8999 177.585 74.224 177.401 74.5035C177.217 74.7831 176.961 75.0075 176.66 75.153C176.359 75.2985 176.024 75.3596 175.69 75.3298C175.357 75.3 175.038 75.1803 174.768 74.9837L174.75 74.9936L165.724 68.5937C168.598 65.7699 172.203 63.8055 176.134 62.9222V62.9222ZM162.451 72.707L170.692 80.0774L170.683 80.1222C170.935 80.3419 171.124 80.6261 171.227 80.9445C171.331 81.2628 171.346 81.6033 171.272 81.9297C171.197 82.256 171.035 82.556 170.804 82.7977C170.572 83.0393 170.279 83.2135 169.956 83.3017L169.947 83.3375L159.385 86.3853C158.858 81.6119 159.937 76.7992 162.451 72.7075V72.707ZM173.484 92.2865L169.288 102.428C165.259 99.8492 162.195 96.0134 160.569 91.5153L171.399 89.6757L171.418 89.7001C171.537 89.6772 171.659 89.6664 171.781 89.6678C172.084 89.6723 172.382 89.7515 172.648 89.8985C172.914 90.0455 173.139 90.2556 173.305 90.5105C173.47 90.7653 173.57 91.0569 173.596 91.3595C173.622 91.6622 173.573 91.9665 173.453 92.2457L173.484 92.2865ZM185.873 105.328C181.946 106.228 177.846 106.018 174.032 104.72L179.358 95.0882H179.367C179.526 94.7939 179.761 94.548 180.048 94.3764C180.334 94.2049 180.662 94.1142 180.996 94.1138C181.331 94.1135 181.659 94.2037 181.946 94.3747C182.233 94.5457 182.468 94.7912 182.627 95.0852H182.667L188.007 104.733C187.314 104.964 186.602 105.163 185.873 105.329V105.328ZM192.754 102.469L188.514 92.2238L188.527 92.2054C188.339 91.7672 188.327 91.2733 188.494 90.8266C188.661 90.38 188.994 90.0149 189.423 89.8075C189.645 89.6991 189.886 89.6366 190.132 89.6235C190.274 89.6169 190.417 89.6275 190.557 89.6548L190.575 89.632L201.502 91.4786C199.889 96.0128 196.811 99.8801 192.754 102.469V102.469ZM202.65 86.3495L192.034 83.2918L192.024 83.247C191.701 83.158 191.409 82.9833 191.178 82.7416C190.947 82.4999 190.786 82.2001 190.711 81.874C190.637 81.548 190.652 81.2079 190.755 80.8898C190.859 80.5717 191.046 80.2876 191.298 80.0675L191.294 80.0461L199.489 72.712C201.998 76.793 203.108 81.5812 202.649 86.35L202.65 86.3495Z" fill="white" fill-opacity="0.5"/>
</svg>
