<svg width="83" height="62" viewBox="0 0 83 62" fill="none" xmlns="http://www.w3.org/2000/svg">
<path d="M82.5266 53.7285H0.473145V53.7695H82.5266V53.7285Z" fill="#EBEBEB"/>
<path d="M74.3049 56.3691H68.8696V56.4102H74.3049V56.3691Z" fill="#EBEBEB"/>
<path d="M54.8284 56.8154H53.4023V56.8565H54.8284V56.8154Z" fill="#EBEBEB"/>
<path d="M68.7054 54.8462H65.5562V54.8872H68.7054V54.8462Z" fill="#EBEBEB"/>
<path d="M16.1698 55.1221H9.08203V55.1631H16.1698V55.1221Z" fill="#EBEBEB"/>
<path d="M18.6711 55.1221H17.6323V55.1631H18.6711V55.1221Z" fill="#EBEBEB"/>
<path d="M37.4219 55.8145H22.0483V55.8555H37.4219V55.8145Z" fill="#EBEBEB"/>
<path d="M39.3665 46.4095H7.67906C7.43083 46.409 7.1929 46.3101 7.01753 46.1344C6.84215 45.9587 6.74365 45.7206 6.74365 45.4724V0.928846C6.74581 0.682033 6.84527 0.446039 7.02041 0.272125C7.19555 0.0982112 7.43224 0.000422803 7.67906 0H39.3665C39.615 0 39.8534 0.0987248 40.0291 0.274456C40.2048 0.450187 40.3035 0.688529 40.3035 0.937051V45.4724C40.3035 45.7209 40.2048 45.9593 40.0291 46.135C39.8534 46.3107 39.615 46.4095 39.3665 46.4095ZM7.67906 0.0328215C7.44171 0.0332562 7.21422 0.12785 7.04654 0.29584C6.87886 0.46383 6.78468 0.691489 6.78468 0.928846V45.4724C6.78468 45.7098 6.87886 45.9374 7.04654 46.1054C7.21422 46.2734 7.44171 46.368 7.67906 46.3684H39.3665C39.604 46.368 39.8316 46.2735 39.9996 46.1055C40.1675 45.9376 40.2621 45.7099 40.2625 45.4724V0.928846C40.2621 0.691338 40.1675 0.463683 39.9996 0.29574C39.8316 0.127797 39.604 0.0332553 39.3665 0.0328215H7.67906Z" fill="#EBEBEB"/>
<path d="M74.8644 46.4095H43.1753C42.9269 46.409 42.6889 46.3102 42.5132 46.1345C42.3376 45.9589 42.2387 45.7208 42.2383 45.4724V0.928846C42.2409 0.681883 42.3407 0.445891 42.5161 0.272023C42.6915 0.0981538 42.9284 0.000418192 43.1753 0H74.8644C75.1109 0.000854094 75.3472 0.0988333 75.522 0.272701C75.6968 0.446569 75.796 0.682316 75.7982 0.928846V45.4724C75.7982 45.7204 75.6999 45.9582 75.5249 46.1338C75.3498 46.3095 75.1123 46.4086 74.8644 46.4095ZM43.1753 0.0328215C42.9378 0.0332553 42.7102 0.127797 42.5422 0.29574C42.3743 0.463683 42.2797 0.691338 42.2793 0.928846V45.4724C42.2797 45.7099 42.3743 45.9376 42.5422 46.1055C42.7102 46.2735 42.9378 46.368 43.1753 46.3684H74.8644C75.1019 46.368 75.3296 46.2735 75.4975 46.1055C75.6654 45.9376 75.76 45.7099 75.7604 45.4724V0.928846C75.76 0.691338 75.6654 0.463683 75.4975 0.29574C75.3296 0.127797 75.1019 0.0332553 74.8644 0.0328215H43.1753Z" fill="#EBEBEB"/>
<path d="M50.7291 31.4331L74.2178 31.4331V7.16168L50.7291 7.16168V31.4331Z" fill="#EBEBEB"/>
<path d="M49.9088 31.4331L73.3975 31.4331V7.16168L49.9088 7.16168V31.4331Z" fill="#F0F0F0"/>
<path d="M72.805 7.73779H50.5308V30.8687H72.805V7.73779Z" fill="#E0E0E0"/>
<path d="M72.8048 7.73779H51.0869V30.8687H72.8048V7.73779Z" fill="#F5F5F5"/>
<path d="M61.7197 30.8701H62.1611V7.73923H61.7197V30.8701Z" fill="#EBEBEB"/>
<path d="M64.7012 7.73779L70.8913 30.8687H71.4854L65.2952 7.73779H64.7012Z" fill="white"/>
<path d="M61.5322 31.3115H61.9097V7.3798H61.5322V31.3115Z" fill="#F0F0F0"/>
<path d="M66.9478 7.73779L72.8047 29.628V17.5957L70.1675 7.73779H66.9478Z" fill="white"/>
<path d="M51.0869 9.83643V12.0568L56.1217 30.8684H56.7158L51.0869 9.83643Z" fill="white"/>
<path d="M51.0869 14.3198V26.3521L52.2947 30.8684H55.5145L51.0869 14.3198Z" fill="white"/>
<path d="M70.3649 33.5977H52.5658C52.1815 33.5977 51.8129 33.7503 51.5412 34.0221C51.2694 34.2938 51.1167 34.6624 51.1167 35.0467L49.1475 47.5943H69.8446L71.8139 35.0467C71.8139 34.6624 71.6613 34.2938 71.3895 34.0221C71.1177 33.7503 70.7492 33.5977 70.3649 33.5977Z" fill="#EBEBEB"/>
<path d="M49.1981 38.4504L49.2211 38.3848H42.3286V53.6467H50.8622V40.2146C50.8686 39.7619 50.6984 39.3245 50.3878 38.9951C50.0771 38.6658 49.6504 38.4704 49.1981 38.4504Z" fill="#E0E0E0"/>
<path d="M42.2564 38.4453C41.7872 38.4453 41.3372 38.6317 41.0055 38.9635C40.6737 39.2952 40.4873 39.7452 40.4873 40.2144V53.6465H44.0238V40.2144C44.0238 39.7455 43.8376 39.2958 43.5062 38.964C43.1748 38.6323 42.7253 38.4457 42.2564 38.4453Z" fill="#F0F0F0"/>
<path d="M69.0551 38.4504L69.078 38.3848H62.1855V53.6467H70.7191V40.2146C70.7255 39.7619 70.5554 39.3245 70.2447 38.9951C69.9341 38.6658 69.5074 38.4704 69.0551 38.4504Z" fill="#E0E0E0"/>
<path d="M60.3443 42.8975H45.1792V53.6465H60.3443V42.8975Z" fill="#E0E0E0"/>
<path d="M46.167 41.7964H63.2341V45.5233H46.167C45.9216 45.5233 45.6787 45.4748 45.4521 45.3807C45.2255 45.2866 45.0196 45.1487 44.8465 44.9749C44.6733 44.8011 44.5361 44.5948 44.4428 44.3679C44.3495 44.1409 44.3019 43.8978 44.3027 43.6524C44.3049 43.1594 44.5023 42.6874 44.8517 42.3395C45.201 41.9917 45.674 41.7964 46.167 41.7964Z" fill="#F5F5F5"/>
<path d="M62.1133 38.4453C61.6441 38.4453 61.1942 38.6317 60.8624 38.9635C60.5306 39.2952 60.3442 39.7452 60.3442 40.2144V53.6465H63.8807V40.2144C63.8807 39.7455 63.6946 39.2958 63.3632 38.964C63.0318 38.6323 62.5822 38.4457 62.1133 38.4453Z" fill="#F0F0F0"/>
<path d="M66.9448 47.7798H69.8446L71.8139 35.0467C71.8139 34.8563 71.7763 34.6677 71.7034 34.4918C71.6305 34.3159 71.5236 34.1561 71.3889 34.0215C71.2541 33.8869 71.0942 33.7802 70.9182 33.7075C70.7422 33.6348 70.5536 33.5974 70.3632 33.5977C69.9789 33.5977 69.6103 33.7503 69.3385 34.0221C69.0668 34.2938 68.9141 34.6624 68.9141 35.0467L66.9448 47.7798Z" fill="#E0E0E0"/>
<path d="M12.9159 47.6385C12.9159 47.5729 12.696 41.1268 11.6473 40.1077C10.6282 39.123 9.45651 40.0699 9.40727 40.1077L9.30225 39.983C9.31537 39.9715 10.6364 38.8933 11.7639 39.983C12.8584 41.048 13.0767 47.3579 13.0767 47.6271L12.9159 47.6385Z" fill="#E0E0E0"/>
<path d="M13.0058 48.904C13.0058 48.8269 12.2902 41.1647 15.0883 37.9531L15.2114 38.0614C12.4593 41.2189 13.1617 48.8104 13.1699 48.8925L13.0058 48.904Z" fill="#E0E0E0"/>
<path d="M12.9024 48.095L12.7383 48.0836C12.7383 47.9966 13.2864 39.3744 11.2334 37.4855L11.345 37.3657C13.4554 39.3055 12.927 47.7373 12.9024 48.095Z" fill="#E0E0E0"/>
<path d="M13.17 48.0835H13.0059C13.0059 47.8456 13.0731 42.2594 14.6601 41.3551C14.8107 41.2572 14.9827 41.197 15.1615 41.1796C15.3403 41.1622 15.5207 41.188 15.6874 41.255C16.6474 41.6505 17.1233 43.3589 17.143 43.4311L16.9789 43.4754C16.9789 43.4574 16.5046 41.772 15.6201 41.406C15.4764 41.3497 15.3213 41.3285 15.1677 41.3442C15.0141 41.3599 14.8665 41.4121 14.7372 41.4963C13.2356 42.3595 13.17 48.0327 13.17 48.0835Z" fill="#E0E0E0"/>
<path d="M12.5515 48.0931L12.3874 48.0848C12.3874 48.0405 12.6254 43.6687 11.4471 42.1294C11.1599 41.7552 10.8497 41.578 10.5231 41.601C9.7502 41.6551 9.10197 42.7858 9.09541 42.7973L8.95264 42.7169C8.98053 42.6677 9.65009 41.4976 10.51 41.4369C10.8957 41.4106 11.2551 41.6092 11.5767 42.0293C12.7944 43.6179 12.563 47.9191 12.5515 48.0931Z" fill="#E0E0E0"/>
<path d="M12.8107 48.689C12.7779 48.264 12.0394 38.283 13.3391 36.5254L13.4721 36.6222C12.2068 38.3322 12.9666 48.5725 12.9797 48.6759L12.8107 48.689Z" fill="#E0E0E0"/>
<path d="M16.0418 42.2657C16.0418 42.2657 15.2607 42.5529 15.4921 43.2323C15.7235 43.9117 18.1966 45.0292 18.1966 45.0292C18.1966 45.0292 19.2288 44.0823 18.2802 42.5414C17.3317 41.0004 16.0632 41.7799 16.0418 42.2657Z" fill="#EBEBEB"/>
<path d="M12.6499 40.9726C12.6499 40.9726 13.4803 40.9381 13.5279 41.6536C13.5755 42.3691 11.7227 44.3515 11.7227 44.3515C11.7227 44.3515 10.4098 43.874 10.6888 42.0885C10.9678 40.303 12.4431 40.5344 12.6499 40.9726Z" fill="#EBEBEB"/>
<path d="M11.9457 37.5462C11.9457 37.5462 12.5004 37.4871 12.4561 37.149C12.4118 36.811 10.303 35.9396 9.05908 37.3476C9.05908 37.3476 9.855 38.7163 11.007 38.7343C12.1591 38.7524 11.9457 37.5462 11.9457 37.5462Z" fill="#EBEBEB"/>
<path d="M12.9782 36.7272C12.9782 36.7272 12.4859 36.97 12.3366 36.6599C12.1872 36.3497 13.5263 34.4986 15.325 35.0319C15.325 35.0319 15.3725 36.6139 14.4043 37.2375C13.4361 37.8611 12.9782 36.7272 12.9782 36.7272Z" fill="#EBEBEB"/>
<path d="M10.3559 41.9932C10.3559 41.9932 10.7383 41.6847 10.3264 41.5337C9.91444 41.3827 7.88936 41.4254 7.86475 43.4308C7.86475 43.4308 10.223 43.823 10.5151 43.0582C10.8072 42.2935 10.3559 41.9932 10.3559 41.9932Z" fill="#EBEBEB"/>
<path d="M15.1638 37.4969C15.1638 37.4969 14.7815 37.1868 15.1934 37.0374C15.6053 36.8881 17.6304 36.9291 17.655 38.9345C17.655 38.9345 15.2968 39.3251 15.0047 38.562C14.7125 37.7989 15.1638 37.4969 15.1638 37.4969Z" fill="#EBEBEB"/>
<path d="M13.9169 39.1116C13.9169 39.1116 13.8841 38.7358 14.1861 38.8835C14.488 39.0312 15.5449 40.1685 14.4503 41.2483C14.4503 41.2483 12.9733 40.1586 13.2441 39.5908C13.5149 39.023 13.9169 39.1116 13.9169 39.1116Z" fill="#EBEBEB"/>
<path d="M10.0142 39.6449C10.0142 39.6449 10.2439 39.3463 9.90915 39.3085C9.57438 39.2708 8.07444 39.6728 8.43219 41.1695C8.43219 41.1695 10.2587 41.0317 10.3375 40.4097C10.4162 39.7877 10.0142 39.6449 10.0142 39.6449Z" fill="#EBEBEB"/>
<path d="M16.1865 53.6466H9.91929L9.24316 46.7837H16.8643L16.1865 53.6466Z" fill="#F0F0F0"/>
<path d="M17.1989 46.0269H8.9082V47.5416H17.1989V46.0269Z" fill="#E6E6E6"/>
<path d="M41.4999 61.1397C59.0728 61.1397 73.3186 60.308 73.3186 59.282C73.3186 58.256 59.0728 57.4243 41.4999 57.4243C23.9269 57.4243 9.68115 58.256 9.68115 59.282C9.68115 60.308 23.9269 61.1397 41.4999 61.1397Z" fill="#F5F5F5"/>
<path d="M42.7241 2.70461V49.9674C42.7244 50.0591 42.7063 50.1498 42.6711 50.2344C42.6358 50.3189 42.5841 50.3956 42.5188 50.46C42.4536 50.5243 42.3762 50.575 42.2911 50.609C42.206 50.6431 42.115 50.6598 42.0234 50.6583H20.0331C19.869 50.6602 19.7109 50.5971 19.5933 50.4827C19.5331 50.4227 19.4856 50.3513 19.4535 50.2727C19.4213 50.1941 19.4053 50.1098 19.4062 50.0249V2.64717C19.4033 2.57388 19.4149 2.50075 19.4404 2.43196C19.4658 2.36317 19.5046 2.30007 19.5544 2.24627C19.6042 2.19246 19.6642 2.14901 19.7308 2.1184C19.7975 2.08779 19.8695 2.07062 19.9428 2.06787H26.1887C26.2761 2.06923 26.361 2.09668 26.4327 2.14668C26.5043 2.19668 26.5594 2.26696 26.5908 2.34849L26.8501 2.98523C26.8819 3.06633 26.9371 3.13614 27.0087 3.18581C27.0803 3.23547 27.165 3.26276 27.2521 3.26421H34.8946C34.9813 3.26381 35.0659 3.23751 35.1376 3.18868C35.2092 3.13984 35.2646 3.07071 35.2967 2.99015L35.556 2.35014C35.5873 2.26842 35.6423 2.19792 35.7139 2.14764C35.7855 2.09735 35.8705 2.06958 35.958 2.06787H42.1137C42.2786 2.0726 42.4351 2.14202 42.5494 2.26116C42.6636 2.38029 42.7264 2.53958 42.7241 2.70461Z" fill="#00B39F"/>
<path opacity="0.6" d="M42.7239 5.84229H19.4043V45.5234H42.7239V5.84229Z" fill="white"/>
<path opacity="0.6" d="M22.304 3.97168H22.6289V3.53844H22.304V3.97168Z" fill="white"/>
<path opacity="0.6" d="M21.7757 3.97168H22.1006V3.39402H21.7757V3.97168Z" fill="white"/>
<path opacity="0.6" d="M21.2439 3.97168H21.5688V3.24961H21.2439V3.97168Z" fill="white"/>
<path opacity="0.6" d="M20.7156 3.97168H21.0405V3.10519H20.7156V3.97168Z" fill="white"/>
<path opacity="0.6" d="M39.7472 3.38086H39.5552V3.8141H39.7472V3.38086Z" fill="white"/>
<path opacity="0.6" d="M39.8782 3.97168H41.4126V3.22171H39.8782V3.97168Z" fill="white"/>
<g opacity="0.1">
<path d="M29.8957 3.26421L23.182 28.4103L23.1082 28.6926L22.9868 29.1455L22.9096 29.4278L19.4043 42.5564V26.6708L25.9686 2.06787H26.1819C26.2693 2.06923 26.3542 2.09668 26.4259 2.14668C26.4975 2.19668 26.5526 2.26696 26.584 2.34849L26.8433 2.98523C26.8751 3.06633 26.9303 3.13614 27.0019 3.1858C27.0735 3.23547 27.1582 3.26276 27.2453 3.26421H29.8957Z" fill="white"/>
<path d="M42.7241 16.1055V31.9976L38.5377 47.6813L38.436 48.062L37.7451 50.65H33.5029L34.1938 48.0637L34.3038 47.6485L34.8585 45.5709L34.97 45.1557L35.1916 44.3237L35.3032 43.9085L35.5247 43.0765L35.6347 42.6613L39.1252 29.5885V29.5869L39.2861 28.9846V28.9829L42.7241 16.1055Z" fill="white"/>
<path d="M32.1948 3.26416L25.5239 28.2527L25.4829 28.4021L25.1185 29.7724L25.0775 29.9217L19.5914 50.4745C19.5313 50.4145 19.4837 50.3431 19.4516 50.2644C19.4195 50.1858 19.4034 50.1015 19.4043 50.0166V47.5993L24.1241 29.9217L24.1651 29.7724L24.5294 28.4021L24.5704 28.2527L31.2414 3.26416H32.1948Z" fill="white"/>
</g>
<path opacity="0.9" d="M41.252 9.21314V8.96533L41.124 8.95385C41.1067 8.87258 41.0744 8.79524 41.0288 8.72574L41.1109 8.62727L40.9353 8.45168L40.8368 8.53373C40.7681 8.48682 40.6904 8.45444 40.6087 8.43855L40.5972 8.31055H40.3511L40.3396 8.43855C40.2579 8.45444 40.1803 8.48682 40.1115 8.53373L40.0114 8.45168L39.8374 8.62727L39.9195 8.72574C39.8726 8.79451 39.8402 8.87213 39.8243 8.95385L39.6963 8.96533V9.21314L39.8243 9.22462C39.8402 9.30634 39.8726 9.38396 39.9195 9.45273L39.8374 9.5512L40.0114 9.72679L40.1115 9.64474C40.1803 9.69164 40.2579 9.72403 40.3396 9.73992L40.3511 9.86792H40.5989L40.6104 9.73992C40.6921 9.72403 40.7697 9.69164 40.8385 9.64474L40.9369 9.72679L41.1125 9.5512L41.0305 9.45273C41.076 9.38323 41.1083 9.30588 41.1257 9.22462L41.252 9.21314ZM40.4725 9.42319C40.4076 9.42319 40.3441 9.40394 40.2902 9.36788C40.2362 9.33181 40.1941 9.28055 40.1693 9.22058C40.1444 9.16061 40.1379 9.09461 40.1506 9.03095C40.1633 8.96728 40.1945 8.9088 40.2404 8.8629C40.2863 8.81699 40.3448 8.78573 40.4085 8.77307C40.4722 8.76041 40.5381 8.76691 40.5981 8.79175C40.6581 8.81659 40.7094 8.85866 40.7454 8.91263C40.7815 8.96661 40.8007 9.03006 40.8007 9.09498C40.8007 9.18203 40.7662 9.26551 40.7046 9.32706C40.643 9.38861 40.5596 9.42319 40.4725 9.42319Z" fill="white"/>
<path d="M23.031 9.05718L22.1941 8.36629C22.188 8.36149 22.1805 8.35889 22.1727 8.35889C22.165 8.35889 22.1575 8.36149 22.1514 8.36629L21.3145 9.05718C21.3088 9.06139 21.3047 9.0673 21.3027 9.07404C21.3006 9.08079 21.3008 9.088 21.3032 9.09462C21.3056 9.10125 21.3101 9.10692 21.3159 9.11082C21.3218 9.11471 21.3288 9.11662 21.3358 9.11625H21.5229C21.5317 9.11624 21.5403 9.11965 21.5467 9.12576C21.5531 9.13187 21.5569 9.14022 21.5573 9.14907V9.78581C21.5573 9.79467 21.5607 9.8032 21.5668 9.80962C21.573 9.81603 21.5813 9.81985 21.5902 9.82027H22.7537C22.7625 9.81985 22.7709 9.81603 22.777 9.80962C22.7831 9.8032 22.7865 9.79467 22.7865 9.78581V9.14907C22.7865 9.14462 22.7874 9.14022 22.7891 9.13612C22.7909 9.13203 22.7935 9.12834 22.7967 9.12527C22.7999 9.1222 22.8037 9.11981 22.8079 9.11826C22.8121 9.11672 22.8165 9.11603 22.821 9.11625H23.008C23.0152 9.11703 23.0225 9.11542 23.0286 9.11167C23.0348 9.10793 23.0396 9.10225 23.0422 9.09552C23.0448 9.08879 23.0451 9.08139 23.0431 9.07446C23.0411 9.06752 23.0368 9.06145 23.031 9.05718Z" fill="white"/>
<g opacity="0.6">
<path d="M40.0372 47.1478H41.3156C41.3401 47.1474 41.3635 47.1374 41.3807 47.1199C41.3979 47.1024 41.4075 47.0788 41.4075 47.0543C41.4075 47.0299 41.3978 47.0066 41.3806 46.9893C41.3634 46.9721 41.34 46.9624 41.3156 46.9624H40.0372C40.0128 46.9624 39.9895 46.9721 39.9722 46.9893C39.955 47.0066 39.9453 47.0299 39.9453 47.0543C39.9453 47.0788 39.9549 47.1024 39.9721 47.1199C39.9893 47.1374 40.0127 47.1474 40.0372 47.1478Z" fill="white"/>
<path d="M41.3156 47.4268H40.0372C40.0128 47.4268 39.9895 47.4364 39.9722 47.4537C39.955 47.4709 39.9453 47.4943 39.9453 47.5187C39.9453 47.5432 39.9549 47.5667 39.9721 47.5842C39.9893 47.6017 40.0127 47.6118 40.0372 47.6122H41.3156C41.3401 47.6118 41.3635 47.6017 41.3807 47.5842C41.3979 47.5667 41.4075 47.5432 41.4075 47.5187C41.4075 47.4943 41.3978 47.4709 41.3806 47.4537C41.3634 47.4364 41.34 47.4268 41.3156 47.4268Z" fill="white"/>
<path d="M41.3156 47.8979H40.0372C40.0128 47.8979 39.9895 47.9076 39.9722 47.9249C39.955 47.9421 39.9453 47.9655 39.9453 47.9898C39.9453 48.0142 39.955 48.0376 39.9722 48.0548C39.9895 48.0721 40.0128 48.0817 40.0372 48.0817H41.3156C41.34 48.0817 41.3634 48.0721 41.3806 48.0548C41.3978 48.0376 41.4075 48.0142 41.4075 47.9898C41.4075 47.9655 41.3978 47.9421 41.3806 47.9249C41.3634 47.9076 41.34 47.8979 41.3156 47.8979Z" fill="white"/>
<path d="M31.6398 47.427H31.0933V46.8805C31.0904 46.858 31.0793 46.8374 31.0622 46.8225C31.0452 46.8075 31.0233 46.7993 31.0006 46.7993C30.978 46.7993 30.9561 46.8075 30.939 46.8225C30.922 46.8374 30.9109 46.858 30.9079 46.8805V47.427H30.3614C30.3371 47.427 30.3137 47.4367 30.2964 47.4539C30.2792 47.4711 30.2695 47.4945 30.2695 47.5189C30.2695 47.5434 30.2792 47.5669 30.2963 47.5844C30.3135 47.6019 30.3369 47.612 30.3614 47.6124H30.9079V48.1589C30.9109 48.1814 30.922 48.202 30.939 48.2169C30.9561 48.2318 30.978 48.2401 31.0006 48.2401C31.0233 48.2401 31.0452 48.2318 31.0622 48.2169C31.0793 48.202 31.0904 48.1814 31.0933 48.1589V47.6124H31.6398C31.6643 47.612 31.6877 47.6019 31.7049 47.5844C31.7221 47.5669 31.7317 47.5434 31.7317 47.5189C31.7317 47.4945 31.722 47.4711 31.7048 47.4539C31.6876 47.4367 31.6642 47.427 31.6398 47.427Z" fill="white"/>
<path d="M21.8362 46.9182H20.8221C20.7974 46.9186 20.7738 46.9286 20.7564 46.9461C20.7389 46.9635 20.7289 46.9871 20.7285 47.0117V48.0341C20.7289 48.0587 20.739 48.082 20.7565 48.0992C20.774 48.1164 20.7975 48.126 20.8221 48.126H21.8444C21.8688 48.126 21.8922 48.1163 21.9094 48.0991C21.9267 48.0819 21.9363 48.0585 21.9363 48.0341V47.0117C21.9364 46.9989 21.9338 46.9862 21.9286 46.9744C21.9235 46.9626 21.9161 46.9519 21.9067 46.9432C21.8973 46.9344 21.8862 46.9276 21.8741 46.9233C21.8619 46.919 21.8491 46.9173 21.8362 46.9182ZM21.7427 47.9406H20.9058V47.0987H21.7427V47.9406Z" fill="white"/>
</g>
<g opacity="0.6">
<path d="M30.3111 44.4208C30.2951 44.4207 30.2796 44.4155 30.2668 44.406L29.6103 43.9777C29.5997 43.9727 29.5902 43.9655 29.5826 43.9566C29.575 43.9477 29.5694 43.9372 29.5662 43.9259C29.5629 43.9146 29.5622 43.9028 29.5639 43.8912C29.5656 43.8795 29.5699 43.8684 29.5763 43.8586C29.5827 43.8488 29.5911 43.8404 29.601 43.8341C29.6109 43.8278 29.6221 43.8237 29.6337 43.8221C29.6453 43.8205 29.6572 43.8213 29.6684 43.8247C29.6797 43.828 29.6901 43.8338 29.699 43.8415L30.3127 44.2403L30.9265 43.8415C30.9448 43.8295 30.9671 43.8252 30.9886 43.8295C31.0101 43.8338 31.029 43.8464 31.0414 43.8645C31.0531 43.8828 31.0571 43.9049 31.0524 43.9262C31.0478 43.9474 31.035 43.9659 31.0167 43.9777L30.3603 44.406C30.346 44.4162 30.3287 44.4214 30.3111 44.4208Z" fill="#00B39F"/>
<path d="M30.3112 44.0859C30.2955 44.0856 30.2802 44.0811 30.2669 44.0728L29.6105 43.6445C29.5921 43.6324 29.5792 43.6136 29.5746 43.5921C29.57 43.5706 29.574 43.5481 29.5858 43.5296C29.5979 43.5116 29.6165 43.4991 29.6377 43.4948C29.6589 43.4905 29.681 43.4947 29.6991 43.5066L30.3128 43.9054L30.9266 43.5066C30.9449 43.4947 30.9672 43.4904 30.9886 43.4949C31.0099 43.4994 31.0287 43.5121 31.0407 43.5304C31.0526 43.5487 31.0568 43.571 31.0524 43.5924C31.0479 43.6138 31.0351 43.6325 31.0169 43.6445L30.3604 44.0728C30.3456 44.0816 30.3285 44.0862 30.3112 44.0859Z" fill="#00B39F"/>
</g>
<path opacity="0.1" d="M41.3092 16.1055C41.1474 16.1059 40.9924 16.1704 40.878 16.2848C40.7636 16.3991 40.6992 16.5542 40.6987 16.7159V42.0426C40.6987 42.2045 40.763 42.3598 40.8775 42.4743C40.992 42.5887 41.1473 42.6531 41.3092 42.6531C41.4711 42.6531 41.6264 42.5887 41.7409 42.4743C41.8554 42.3598 41.9197 42.2045 41.9197 42.0426V16.7159C41.9197 16.6358 41.9039 16.5564 41.8732 16.4823C41.8425 16.4083 41.7976 16.341 41.7409 16.2843C41.6842 16.2276 41.6169 16.1826 41.5428 16.1519C41.4688 16.1213 41.3894 16.1055 41.3092 16.1055Z" fill="black"/>
<path opacity="0.6" d="M41.3092 16.2764C41.1786 16.2764 41.0534 16.3282 40.9611 16.4206C40.8688 16.5129 40.8169 16.6381 40.8169 16.7687V20.1854C40.8336 20.3028 40.8921 20.4101 40.9817 20.4878C41.0712 20.5655 41.1858 20.6083 41.3043 20.6083C41.4228 20.6083 41.5374 20.5655 41.6269 20.4878C41.7165 20.4101 41.775 20.3028 41.7917 20.1854V16.7638C41.7904 16.6357 41.7394 16.5132 41.6493 16.4222C41.5592 16.3312 41.4372 16.2789 41.3092 16.2764Z" fill="white"/>
<path d="M29.2492 8.50098L28.8274 9.7925H28.4992L28.2153 8.91781L27.9215 9.7925H27.5933L27.1699 8.50098H27.4801L27.7706 9.40849L28.0758 8.50098H28.3712L28.6666 9.41505L28.9669 8.50098H29.2492Z" fill="white"/>
<path d="M29.3789 8.50073C29.3788 8.47788 29.3835 8.45526 29.3926 8.43432C29.4018 8.41339 29.4152 8.39459 29.4321 8.37914C29.4489 8.36369 29.4688 8.35193 29.4904 8.34461C29.5121 8.33729 29.535 8.33457 29.5578 8.33663C29.5797 8.33461 29.6019 8.33703 29.6229 8.34376C29.6439 8.35048 29.6633 8.36137 29.68 8.37577C29.6967 8.39016 29.7103 8.40778 29.72 8.42756C29.7298 8.44734 29.7354 8.46887 29.7367 8.49089C29.7308 8.53416 29.7094 8.57384 29.6765 8.60256C29.6436 8.63129 29.6015 8.64712 29.5578 8.64712C29.5141 8.64712 29.4719 8.63129 29.439 8.60256C29.4061 8.57384 29.3848 8.53416 29.3789 8.49089V8.50073ZM29.4134 8.79941H29.7022V9.78405H29.4134V8.79941Z" fill="white"/>
<path d="M29.8726 9.70042L29.9694 9.49364C30.0736 9.55572 30.1927 9.58859 30.314 9.58882C30.4469 9.58882 30.4978 9.55436 30.4978 9.49856C30.4978 9.33446 29.8972 9.49857 29.8972 9.10471C29.8972 8.91763 30.0613 8.77649 30.3567 8.77649C30.4893 8.77416 30.6205 8.804 30.739 8.86347L30.6422 9.0686C30.5553 9.01897 30.4567 8.99347 30.3567 8.99476C30.227 8.99476 30.1729 9.03414 30.1729 9.08666C30.1729 9.25076 30.7719 9.08666 30.7719 9.4838C30.7719 9.6676 30.6078 9.79888 30.3025 9.79888C30.1531 9.804 30.0049 9.77006 29.8726 9.70042Z" fill="white"/>
<path d="M31.965 9.22303V9.79248H31.6762V9.26734C31.6762 9.10323 31.6024 9.03431 31.476 9.03431C31.3496 9.03431 31.2364 9.118 31.2364 9.3018V9.79412H30.9492V8.42383H31.2364V8.90466C31.2788 8.86512 31.3287 8.83434 31.383 8.81406C31.4374 8.79379 31.4952 8.78443 31.5531 8.7865C31.6104 8.78267 31.6677 8.79154 31.7211 8.81248C31.7745 8.83343 31.8226 8.86592 31.862 8.90764C31.9014 8.94936 31.931 8.99927 31.9488 9.0538C31.9667 9.10832 31.9722 9.16611 31.965 9.22303Z" fill="white"/>
<path d="M32.2246 8.42188H32.5134V9.79217H32.2246V8.42188Z" fill="white"/>
<path d="M32.7446 8.50089C32.7445 8.47804 32.7492 8.45542 32.7584 8.43448C32.7675 8.41354 32.781 8.39475 32.7978 8.3793C32.8146 8.36385 32.8345 8.35209 32.8562 8.34477C32.8778 8.33745 32.9007 8.33473 32.9235 8.33679C32.9456 8.33453 32.9679 8.33678 32.9891 8.3434C33.0103 8.35002 33.0299 8.36086 33.0468 8.37529C33.0637 8.38971 33.0774 8.4074 33.0873 8.4273C33.0971 8.44719 33.1028 8.46888 33.104 8.49104C33.1041 8.51405 33.0994 8.53682 33.0902 8.55788C33.0809 8.57894 33.0673 8.59782 33.0503 8.6133C33.0333 8.62877 33.0132 8.64049 32.9914 8.6477C32.9695 8.65492 32.9464 8.65745 32.9235 8.65515C32.9016 8.65717 32.8794 8.65475 32.8584 8.64802C32.8374 8.6413 32.818 8.63041 32.8013 8.61601C32.7846 8.60161 32.771 8.584 32.7613 8.56422C32.7515 8.54444 32.7459 8.5229 32.7446 8.50089ZM32.7807 8.79957H33.0679V9.78421H32.7807V8.79957Z" fill="white"/>
<path d="M33.2402 9.70048L33.3354 9.4937C33.4397 9.55578 33.5587 9.58866 33.68 9.58889C33.813 9.58889 33.8638 9.55442 33.8638 9.49863C33.8638 9.33452 33.2632 9.49863 33.2632 9.10477C33.2632 8.91769 33.4273 8.77656 33.7227 8.77656C33.8554 8.77369 33.9867 8.80356 34.1051 8.86353L34.0099 9.06867C33.9223 9.01919 33.8233 8.99372 33.7227 8.99482C33.5947 8.99482 33.5389 9.0342 33.5389 9.08672C33.5389 9.25083 34.1379 9.08672 34.1379 9.48386C34.1379 9.66766 33.9738 9.79894 33.6702 9.79894C33.5207 9.80452 33.3724 9.77056 33.2402 9.70048Z" fill="white"/>
<path d="M34.9566 9.74475C34.8861 9.788 34.8046 9.80968 34.7219 9.80711C34.6729 9.81376 34.6231 9.80925 34.5761 9.79393C34.5291 9.77861 34.4861 9.75286 34.4505 9.71862C34.4148 9.68438 34.3874 9.64253 34.3701 9.59619C34.3529 9.54985 34.3464 9.50022 34.351 9.451V9.04237H34.1968V8.82083H34.351V8.57959H34.6382V8.82083H34.886V9.04237H34.6382V9.44772C34.636 9.46471 34.6375 9.48199 34.6428 9.4983C34.6481 9.5146 34.657 9.52952 34.6688 9.54195C34.6806 9.55438 34.695 9.56401 34.711 9.57014C34.727 9.57627 34.7442 9.57873 34.7613 9.57736C34.8031 9.57856 34.844 9.56586 34.8778 9.54126L34.9566 9.74475Z" fill="white"/>
<path opacity="0.3" d="M21.0438 11.3496H41.0862C41.1957 11.3494 41.3042 11.3708 41.4055 11.4126C41.5067 11.4544 41.5987 11.5158 41.6762 11.5933C41.7536 11.6708 41.815 11.7627 41.8568 11.864C41.8987 11.9652 41.9201 12.0737 41.9199 12.1833C41.9201 12.2929 41.8987 12.4015 41.8569 12.5028C41.8151 12.6041 41.7537 12.6962 41.6763 12.7738C41.5988 12.8514 41.5069 12.913 41.4056 12.955C41.3043 12.997 41.1958 13.0186 41.0862 13.0186H21.0438C20.9341 13.0186 20.8255 12.997 20.7241 12.955C20.6228 12.913 20.5307 12.8515 20.4532 12.7739C20.3756 12.6964 20.3141 12.6043 20.2721 12.5029C20.2301 12.4016 20.2085 12.293 20.2085 12.1833C20.2085 12.0737 20.2301 11.9651 20.2721 11.8639C20.3141 11.7626 20.3757 11.6706 20.4533 11.5932C20.5308 11.5158 20.6229 11.4544 20.7243 11.4126C20.8256 11.3708 20.9342 11.3494 21.0438 11.3496Z" fill="black"/>
<path d="M40.7695 12.3986C40.6804 12.3982 40.5949 12.3629 40.5316 12.3001C40.5 12.2691 40.475 12.2321 40.458 12.1912C40.4411 12.1503 40.4326 12.1064 40.4331 12.0621C40.4326 12.0179 40.4411 11.974 40.458 11.9331C40.475 11.8922 40.5 11.8552 40.5316 11.8242C40.5628 11.7929 40.5999 11.7681 40.6408 11.7512C40.6816 11.7343 40.7253 11.7256 40.7695 11.7256C40.8137 11.7256 40.8575 11.7343 40.8983 11.7512C40.9392 11.7681 40.9763 11.7929 41.0075 11.8242C41.0391 11.8552 41.0641 11.8922 41.081 11.9331C41.098 11.974 41.1064 12.0179 41.106 12.0621C41.1076 12.1078 41.0996 12.1532 41.0827 12.1956C41.0657 12.238 41.0401 12.2764 41.0075 12.3083C40.9429 12.3681 40.8576 12.4005 40.7695 12.3986ZM40.7695 11.8898C40.747 11.8893 40.7246 11.8933 40.7037 11.9018C40.6828 11.9103 40.6639 11.923 40.6481 11.9391C40.632 11.9552 40.6192 11.9744 40.6104 11.9955C40.6017 12.0167 40.5972 12.0393 40.5972 12.0621C40.5969 12.0848 40.6012 12.1073 40.61 12.1282C40.6187 12.1491 40.6317 12.168 40.6481 12.1836C40.681 12.2145 40.7244 12.2317 40.7695 12.2317C40.8147 12.2317 40.8581 12.2145 40.891 12.1836C40.9074 12.168 40.9204 12.1491 40.9291 12.1282C40.9379 12.1073 40.9422 12.0848 40.9419 12.0621C40.9419 12.0393 40.9374 12.0167 40.9287 11.9955C40.9199 11.9744 40.9071 11.9552 40.891 11.9391C40.8752 11.923 40.8563 11.9103 40.8354 11.9018C40.8145 11.8933 40.7921 11.8893 40.7695 11.8898Z" fill="white"/>
<path d="M41.2681 12.6366C41.2465 12.6363 41.2259 12.6274 41.2107 12.612L40.8825 12.2936C40.8674 12.278 40.8589 12.2571 40.8589 12.2354C40.8589 12.2136 40.8674 12.1927 40.8825 12.1771C40.8901 12.1694 40.8992 12.1633 40.9092 12.1591C40.9192 12.155 40.9299 12.1528 40.9407 12.1528C40.9516 12.1528 40.9623 12.155 40.9723 12.1591C40.9823 12.1633 40.9914 12.1694 40.999 12.1771L41.319 12.4971C41.334 12.5125 41.3425 12.5331 41.3425 12.5546C41.3425 12.576 41.334 12.5967 41.319 12.612C41.3054 12.6258 41.2874 12.6345 41.2681 12.6366Z" fill="white"/>
<path opacity="0.6" d="M39.7274 25.1313H20.5662C20.3687 25.1313 20.2085 25.2915 20.2085 25.4891V33.2481C20.2085 33.4457 20.3687 33.6058 20.5662 33.6058H39.7274C39.925 33.6058 40.0851 33.4457 40.0851 33.2481V25.4891C40.0851 25.2915 39.925 25.1313 39.7274 25.1313Z" fill="#00B39F"/>
<path d="M28.0282 25.957H21.0815V32.3408H28.0282V25.957Z" fill="#00B39F"/>
<path opacity="0.6" d="M28.0282 25.957H21.0815V32.3408H28.0282V25.957Z" fill="white"/>
<path opacity="0.3" d="M27.6918 26.2935H21.436V31.9863H27.6918V26.2935Z" fill="white"/>
<path opacity="0.3" d="M27.6918 30.7815V31.986H21.4377L21.436 29.2028L22.7276 28.0737L24.6427 29.9413L25.6569 29.2028L27.6918 30.7815Z" fill="white"/>
<g opacity="0.6">
<path d="M26.6497 28.0722C26.6497 28.1718 26.6202 28.2692 26.5648 28.3521C26.5094 28.4349 26.4308 28.4995 26.3387 28.5376C26.2466 28.5758 26.1453 28.5857 26.0476 28.5663C25.9499 28.5469 25.8601 28.4989 25.7897 28.4284C25.7192 28.358 25.6712 28.2682 25.6518 28.1705C25.6323 28.0727 25.6423 27.9714 25.6804 27.8794C25.7186 27.7873 25.7831 27.7086 25.866 27.6533C25.9489 27.5979 26.0463 27.5684 26.1459 27.5684C26.2121 27.5681 26.2777 27.581 26.339 27.6063C26.4002 27.6315 26.4558 27.6686 26.5026 27.7154C26.5495 27.7623 26.5866 27.8179 26.6118 27.8791C26.637 27.9403 26.6499 28.0059 26.6497 28.0722Z" fill="white"/>
<path opacity="0.3" d="M26.6497 28.0722C26.6497 28.1718 26.6202 28.2692 26.5648 28.3521C26.5094 28.4349 26.4308 28.4995 26.3387 28.5376C26.2466 28.5758 26.1453 28.5857 26.0476 28.5663C25.9499 28.5469 25.8601 28.4989 25.7897 28.4284C25.7192 28.358 25.6712 28.2682 25.6518 28.1705C25.6323 28.0727 25.6423 27.9714 25.6804 27.8794C25.7186 27.7873 25.7831 27.7086 25.866 27.6533C25.9489 27.5979 26.0463 27.5684 26.1459 27.5684C26.2121 27.5681 26.2777 27.581 26.339 27.6063C26.4002 27.6315 26.4558 27.6686 26.5026 27.7154C26.5495 27.7623 26.5866 27.8179 26.6118 27.8791C26.637 27.9403 26.6499 28.0059 26.6497 28.0722Z" fill="white"/>
</g>
<g opacity="0.3">
<path d="M36.0941 26.5036H29.2836C29.2283 26.5036 29.1753 26.4816 29.1362 26.4425C29.0972 26.4034 29.0752 26.3504 29.0752 26.2952C29.0752 26.2679 29.0806 26.2408 29.0911 26.2157C29.1016 26.1905 29.117 26.1676 29.1363 26.1484C29.1557 26.1291 29.1787 26.1139 29.204 26.1037C29.2293 26.0934 29.2563 26.0882 29.2836 26.0884H36.0941C36.1213 26.0882 36.1483 26.0934 36.1734 26.1037C36.1986 26.114 36.2215 26.1292 36.2408 26.1485C36.26 26.1677 36.2752 26.1906 36.2855 26.2158C36.2958 26.241 36.301 26.2679 36.3008 26.2952C36.301 26.3225 36.2959 26.3495 36.2856 26.3748C36.2753 26.4001 36.2601 26.4231 36.2408 26.4424C36.2216 26.4618 36.1988 26.4772 36.1736 26.4877C36.1484 26.4982 36.1213 26.5036 36.0941 26.5036Z" fill="white"/>
<path d="M38.7542 27.7492H29.2836C29.2563 27.7494 29.2293 27.7442 29.204 27.7339C29.1787 27.7236 29.1557 27.7084 29.1363 27.6892C29.117 27.67 29.1016 27.6471 29.0911 27.6219C29.0806 27.5967 29.0752 27.5697 29.0752 27.5424C29.0752 27.4871 29.0972 27.4341 29.1362 27.395C29.1753 27.3559 29.2283 27.334 29.2836 27.334H38.7542C38.8095 27.334 38.8625 27.3559 38.9016 27.395C38.9407 27.4341 38.9626 27.4871 38.9626 27.5424C38.9626 27.5697 38.9572 27.5967 38.9467 27.6219C38.9363 27.6471 38.9209 27.67 38.9015 27.6892C38.8821 27.7084 38.8591 27.7236 38.8339 27.7339C38.8086 27.7442 38.7815 27.7494 38.7542 27.7492Z" fill="white"/>
<path d="M33.104 28.9963H29.2836C29.2283 28.9963 29.1753 28.9743 29.1362 28.9352C29.0972 28.8961 29.0752 28.8431 29.0752 28.7878C29.0752 28.7605 29.0806 28.7335 29.0911 28.7083C29.1016 28.6831 29.117 28.6603 29.1363 28.641C29.1557 28.6218 29.1787 28.6066 29.204 28.5963C29.2293 28.586 29.2563 28.5808 29.2836 28.5811H33.104C33.1312 28.5808 33.1582 28.586 33.1834 28.5964C33.2086 28.6067 33.2315 28.6219 33.2507 28.6411C33.27 28.6604 33.2852 28.6833 33.2955 28.7084C33.3058 28.7336 33.311 28.7606 33.3108 28.7878C33.311 28.8151 33.3058 28.8422 33.2955 28.8675C33.2852 28.8927 33.27 28.9157 33.2508 28.9351C33.2316 28.9545 33.2087 28.9699 33.1835 28.9804C33.1583 28.9908 33.1313 28.9963 33.104 28.9963Z" fill="white"/>
</g>
<path d="M29.1573 31.1146C29.3411 30.816 29.6939 30.9308 29.8745 31.1622C30.0566 30.9292 30.4078 30.8143 30.5932 31.113C30.9034 31.6168 30.265 32.0845 29.9631 32.2617L29.8777 32.3143L29.7908 32.2617C29.4888 32.0861 28.8471 31.6201 29.1573 31.1146Z" fill="white"/>
<g opacity="0.6">
<path d="M32.0093 31.1953H33.03L32.9824 32.3211H32.0585L32.0093 31.1953Z" fill="white"/>
<path d="M32.7118 30.9295L32.6642 30.8311H32.377L32.3277 30.9295L31.9175 30.9771V31.0887H33.1237V30.9771L32.7118 30.9295Z" fill="white"/>
</g>
<g opacity="0.6">
<path d="M35.8151 30.8721H35.5526C35.5383 30.8719 35.5243 30.8767 35.5132 30.8857C35.5021 30.8947 35.4946 30.9073 35.4919 30.9214L35.4738 31.0067H34.2069H34.1954H34.1856C34.1856 31.0067 34.1856 31.0067 34.1774 31.0149V31.0248V31.0346C34.1766 31.0389 34.1766 31.0434 34.1774 31.0477L34.3119 31.8075C34.3146 31.8217 34.3221 31.8346 34.3332 31.8439C34.3442 31.8531 34.3582 31.8583 34.3726 31.8584H35.3835C35.3978 31.8587 35.4118 31.8539 35.4229 31.8449C35.434 31.8359 35.4416 31.8232 35.4443 31.8092L35.5969 31.0641C35.5984 31.0555 35.5984 31.0466 35.5969 31.0379L35.61 30.9673H35.8234C35.8379 30.9649 35.8512 30.9574 35.8608 30.9462C35.8704 30.9349 35.8756 30.9206 35.8756 30.9058C35.8756 30.891 35.8704 30.8767 35.8608 30.8654C35.8512 30.8541 35.8379 30.8466 35.8234 30.8442L35.8151 30.8721ZM35.3967 31.3907H35.1308L35.1456 31.1298H35.4492L35.3967 31.3907ZM34.7402 31.3907L34.7288 31.1298H35.0241L35.0094 31.3907H34.7402ZM35.0028 31.5138L34.988 31.7665H34.7583L34.7468 31.5138H35.0028ZM34.2988 31.1298H34.6073L34.6188 31.3907H34.3464L34.2988 31.1298ZM34.3661 31.5138H34.6237L34.6352 31.7665H34.4104L34.3661 31.5138ZM35.3212 31.7665H35.1111L35.1259 31.5138H35.3721L35.3212 31.7665Z" fill="white"/>
<path d="M34.4152 32.0142C34.3846 32.0138 34.3546 32.0226 34.329 32.0394C34.3035 32.0561 34.2834 32.0801 34.2715 32.1082C34.2596 32.1364 34.2563 32.1675 34.262 32.1975C34.2678 32.2275 34.2824 32.2552 34.3039 32.2769C34.3254 32.2987 34.3529 32.3135 34.3828 32.3196C34.4128 32.3257 34.4439 32.3227 34.4722 32.3111C34.5005 32.2995 34.5247 32.2797 34.5417 32.2543C34.5587 32.2289 34.5678 32.199 34.5678 32.1684C34.5678 32.1278 34.5518 32.0888 34.5232 32.0599C34.4946 32.031 34.4558 32.0146 34.4152 32.0142Z" fill="white"/>
<path d="M35.4376 32.0142C35.4071 32.0138 35.3771 32.0226 35.3515 32.0394C35.3259 32.0561 35.3059 32.0801 35.294 32.1082C35.282 32.1364 35.2787 32.1675 35.2845 32.1975C35.2903 32.2275 35.3048 32.2552 35.3263 32.2769C35.3478 32.2987 35.3753 32.3135 35.4053 32.3196C35.4353 32.3257 35.4664 32.3227 35.4946 32.3111C35.5229 32.2995 35.5471 32.2797 35.5641 32.2543C35.5812 32.2289 35.5903 32.199 35.5903 32.1684C35.5903 32.1278 35.5742 32.0888 35.5457 32.0599C35.5171 32.031 35.4783 32.0146 35.4376 32.0142Z" fill="white"/>
</g>
<path opacity="0.6" d="M39.7274 34.1572H20.5662C20.3687 34.1572 20.2085 34.3174 20.2085 34.515V42.274C20.2085 42.4715 20.3687 42.6317 20.5662 42.6317H39.7274C39.925 42.6317 40.0851 42.4715 40.0851 42.274V34.515C40.0851 34.3174 39.925 34.1572 39.7274 34.1572Z" fill="#00B39F"/>
<path d="M28.0282 34.9829H21.0815V41.3667H28.0282V34.9829Z" fill="#00B39F"/>
<path opacity="0.6" d="M28.0282 34.9829H21.0815V41.3667H28.0282V34.9829Z" fill="white"/>
<path opacity="0.3" d="M27.6918 35.3193H21.436V41.0122H27.6918V35.3193Z" fill="white"/>
<path opacity="0.3" d="M27.6918 39.8074V41.0119H21.4377L21.436 38.2287L22.7276 37.0996L24.6427 38.9671L25.6569 38.2287L27.6918 39.8074Z" fill="white"/>
<g opacity="0.6">
<path d="M26.6497 37.0981C26.6497 37.1977 26.6202 37.2951 26.5648 37.378C26.5094 37.4608 26.4308 37.5254 26.3387 37.5635C26.2466 37.6016 26.1453 37.6116 26.0476 37.5922C25.9499 37.5727 25.8601 37.5248 25.7897 37.4543C25.7192 37.3838 25.6712 37.2941 25.6518 37.1963C25.6323 37.0986 25.6423 36.9973 25.6804 36.9053C25.7186 36.8132 25.7831 36.7345 25.866 36.6791C25.9489 36.6238 26.0463 36.5942 26.1459 36.5942C26.2121 36.594 26.2777 36.6069 26.339 36.6322C26.4002 36.6574 26.4558 36.6945 26.5026 36.7413C26.5495 36.7881 26.5866 36.8438 26.6118 36.905C26.637 36.9662 26.6499 37.0318 26.6497 37.0981Z" fill="white"/>
<path opacity="0.3" d="M26.6497 37.0981C26.6497 37.1977 26.6202 37.2951 26.5648 37.378C26.5094 37.4608 26.4308 37.5254 26.3387 37.5635C26.2466 37.6016 26.1453 37.6116 26.0476 37.5922C25.9499 37.5727 25.8601 37.5248 25.7897 37.4543C25.7192 37.3838 25.6712 37.2941 25.6518 37.1963C25.6323 37.0986 25.6423 36.9973 25.6804 36.9053C25.7186 36.8132 25.7831 36.7345 25.866 36.6791C25.9489 36.6238 26.0463 36.5942 26.1459 36.5942C26.2121 36.594 26.2777 36.6069 26.339 36.6322C26.4002 36.6574 26.4558 36.6945 26.5026 36.7413C26.5495 36.7881 26.5866 36.8438 26.6118 36.905C26.637 36.9662 26.6499 37.0318 26.6497 37.0981Z" fill="white"/>
</g>
<g opacity="0.3">
<path d="M36.0941 35.5295H29.2836C29.2283 35.5295 29.1753 35.5075 29.1362 35.4684C29.0972 35.4293 29.0752 35.3763 29.0752 35.321C29.0752 35.2937 29.0806 35.2667 29.0911 35.2415C29.1016 35.2163 29.117 35.1935 29.1363 35.1742C29.1557 35.155 29.1787 35.1398 29.204 35.1295C29.2293 35.1192 29.2563 35.114 29.2836 35.1143H36.0941C36.1213 35.114 36.1483 35.1192 36.1734 35.1296C36.1986 35.1399 36.2215 35.1551 36.2408 35.1743C36.26 35.1936 36.2752 35.2165 36.2855 35.2417C36.2958 35.2668 36.301 35.2938 36.3008 35.321C36.301 35.3483 36.2959 35.3754 36.2856 35.4007C36.2753 35.4259 36.2601 35.4489 36.2408 35.4683C36.2216 35.4877 36.1988 35.5031 36.1736 35.5136C36.1484 35.5241 36.1213 35.5295 36.0941 35.5295Z" fill="white"/>
<path d="M38.7542 36.7751H29.2836C29.2563 36.7753 29.2293 36.7701 29.204 36.7598C29.1787 36.7495 29.1557 36.7343 29.1363 36.7151C29.117 36.6959 29.1016 36.673 29.0911 36.6478C29.0806 36.6226 29.0752 36.5956 29.0752 36.5683C29.0752 36.513 29.0972 36.46 29.1362 36.4209C29.1753 36.3818 29.2283 36.3599 29.2836 36.3599H38.7542C38.8095 36.3599 38.8625 36.3818 38.9016 36.4209C38.9407 36.46 38.9626 36.513 38.9626 36.5683C38.9626 36.5956 38.9572 36.6226 38.9467 36.6478C38.9363 36.673 38.9209 36.6959 38.9015 36.7151C38.8821 36.7343 38.8591 36.7495 38.8339 36.7598C38.8086 36.7701 38.7815 36.7753 38.7542 36.7751Z" fill="white"/>
<path d="M33.104 38.0221H29.2836C29.2283 38.0221 29.1753 38.0002 29.1362 37.9611C29.0972 37.922 29.0752 37.869 29.0752 37.8137C29.0752 37.7864 29.0806 37.7594 29.0911 37.7342C29.1016 37.709 29.117 37.6861 29.1363 37.6669C29.1557 37.6477 29.1787 37.6325 29.204 37.6222C29.2293 37.6119 29.2563 37.6067 29.2836 37.6069H33.104C33.1312 37.6067 33.1582 37.6119 33.1834 37.6222C33.2086 37.6325 33.2315 37.6478 33.2507 37.667C33.27 37.6863 33.2852 37.7091 33.2955 37.7343C33.3058 37.7595 33.311 37.7865 33.3108 37.8137C33.311 37.841 33.3058 37.8681 33.2955 37.8933C33.2852 37.9186 33.27 37.9416 33.2508 37.961C33.2316 37.9804 33.2087 37.9957 33.1835 38.0062C33.1583 38.0167 33.1313 38.0221 33.104 38.0221Z" fill="white"/>
</g>
<path d="M29.1573 40.1405C29.3411 39.8418 29.6939 39.9567 29.8745 40.1881C30.0566 39.9551 30.4078 39.8402 30.5932 40.1389C30.9034 40.6427 30.265 41.1104 29.9631 41.2876L29.8777 41.3401L29.7908 41.2876C29.4888 41.112 28.8471 40.646 29.1573 40.1405Z" fill="white"/>
<g opacity="0.6">
<path d="M32.0093 40.2197H33.03L32.9824 41.3471H32.0585L32.0093 40.2197Z" fill="white"/>
<path d="M32.7118 39.9554L32.6642 39.8569H32.377L32.3277 39.9554L31.9175 40.003V40.1146H33.1237V40.003L32.7118 39.9554Z" fill="white"/>
</g>
<g opacity="0.6">
<path d="M35.8151 39.898H35.5526C35.5383 39.8978 35.5243 39.9026 35.5132 39.9116C35.5021 39.9206 35.4946 39.9332 35.4919 39.9472L35.4738 40.0326H34.2069H34.1954H34.1856L34.1774 40.0408V40.0506V40.0605C34.1766 40.0648 34.1766 40.0693 34.1774 40.0736L34.3119 40.8334C34.3146 40.8476 34.3221 40.8605 34.3332 40.8697C34.3442 40.879 34.3582 40.8842 34.3726 40.8843H35.3835C35.3978 40.8846 35.4118 40.8798 35.4229 40.8708C35.434 40.8617 35.4416 40.8491 35.4443 40.8351L35.5969 40.09C35.5984 40.0813 35.5984 40.0725 35.5969 40.0638L35.61 39.9932H35.8234C35.8379 39.9908 35.8512 39.9833 35.8608 39.972C35.8704 39.9608 35.8756 39.9464 35.8756 39.9317C35.8756 39.9169 35.8704 39.9026 35.8608 39.8913C35.8512 39.88 35.8379 39.8725 35.8234 39.8701L35.8151 39.898ZM35.3967 40.4166H35.1308L35.1456 40.1557H35.4492L35.3967 40.4166ZM34.7402 40.4166L34.7288 40.1557H35.0241L35.0094 40.4166H34.7402ZM35.0028 40.5397L34.988 40.7924H34.7583L34.7468 40.5397H35.0028ZM34.2988 40.1557H34.6073L34.6188 40.4166H34.3464L34.2988 40.1557ZM34.3661 40.5397H34.6237L34.6352 40.7924H34.4104L34.3661 40.5397ZM35.3212 40.7924H35.1111L35.1259 40.5397H35.3721L35.3212 40.7924Z" fill="white"/>
<path d="M34.4152 41.04C34.3846 41.0397 34.3546 41.0485 34.329 41.0652C34.3035 41.082 34.2834 41.106 34.2715 41.1341C34.2596 41.1623 34.2563 41.1934 34.262 41.2234C34.2678 41.2534 34.2824 41.2811 34.3039 41.3028C34.3254 41.3245 34.3529 41.3394 34.3828 41.3455C34.4128 41.3516 34.4439 41.3486 34.4722 41.337C34.5005 41.3254 34.5247 41.3056 34.5417 41.2802C34.5587 41.2548 34.5678 41.2249 34.5678 41.1943C34.5678 41.1537 34.5518 41.1147 34.5232 41.0858C34.4946 41.0569 34.4558 41.0405 34.4152 41.04Z" fill="white"/>
<path d="M35.4376 41.04C35.4071 41.0397 35.3771 41.0485 35.3515 41.0652C35.3259 41.082 35.3059 41.106 35.294 41.1341C35.282 41.1623 35.2787 41.1934 35.2845 41.2234C35.2903 41.2534 35.3048 41.2811 35.3263 41.3028C35.3478 41.3245 35.3753 41.3394 35.4053 41.3455C35.4353 41.3516 35.4664 41.3486 35.4946 41.337C35.5229 41.3254 35.5471 41.3056 35.5641 41.2802C35.5812 41.2548 35.5903 41.2249 35.5903 41.1943C35.5903 41.1537 35.5742 41.1147 35.5457 41.0858C35.5171 41.0569 35.4783 41.0405 35.4376 41.04Z" fill="white"/>
</g>
<path opacity="0.6" d="M39.7274 16.1055H20.5662C20.3687 16.1055 20.2085 16.2656 20.2085 16.4632V24.2222C20.2085 24.4198 20.3687 24.58 20.5662 24.58H39.7274C39.925 24.58 40.0851 24.4198 40.0851 24.2222V16.4632C40.0851 16.2656 39.925 16.1055 39.7274 16.1055Z" fill="#00B39F"/>
<path d="M28.0282 16.9312H21.0815V23.3149H28.0282V16.9312Z" fill="#00B39F"/>
<path opacity="0.6" d="M28.0282 16.9312H21.0815V23.3149H28.0282V16.9312Z" fill="white"/>
<path opacity="0.3" d="M27.6918 17.2676H21.436V22.9605H27.6918V17.2676Z" fill="white"/>
<path opacity="0.3" d="M27.6918 21.7556V22.9602H21.4377L21.436 20.1769L22.7276 19.0479L24.6427 20.9154L25.6569 20.1769L27.6918 21.7556Z" fill="white"/>
<g opacity="0.6">
<path d="M26.6497 19.0463C26.6497 19.1459 26.6202 19.2433 26.5648 19.3262C26.5094 19.409 26.4308 19.4736 26.3387 19.5118C26.2466 19.5499 26.1453 19.5599 26.0476 19.5404C25.9499 19.521 25.8601 19.473 25.7897 19.4025C25.7192 19.3321 25.6712 19.2423 25.6518 19.1446C25.6323 19.0468 25.6423 18.9456 25.6804 18.8535C25.7186 18.7614 25.7831 18.6827 25.866 18.6274C25.9489 18.572 26.0463 18.5425 26.1459 18.5425C26.2121 18.5423 26.2777 18.5551 26.339 18.5804C26.4002 18.6056 26.4558 18.6427 26.5026 18.6896C26.5495 18.7364 26.5866 18.792 26.6118 18.8532C26.637 18.9145 26.6499 18.9801 26.6497 19.0463Z" fill="white"/>
<path opacity="0.3" d="M26.6497 19.0463C26.6497 19.1459 26.6202 19.2433 26.5648 19.3262C26.5094 19.409 26.4308 19.4736 26.3387 19.5118C26.2466 19.5499 26.1453 19.5599 26.0476 19.5404C25.9499 19.521 25.8601 19.473 25.7897 19.4025C25.7192 19.3321 25.6712 19.2423 25.6518 19.1446C25.6323 19.0468 25.6423 18.9456 25.6804 18.8535C25.7186 18.7614 25.7831 18.6827 25.866 18.6274C25.9489 18.572 26.0463 18.5425 26.1459 18.5425C26.2121 18.5423 26.2777 18.5551 26.339 18.5804C26.4002 18.6056 26.4558 18.6427 26.5026 18.6896C26.5495 18.7364 26.5866 18.792 26.6118 18.8532C26.637 18.9145 26.6499 18.9801 26.6497 19.0463Z" fill="white"/>
</g>
<g opacity="0.3">
<path d="M36.0941 17.4777H29.2836C29.2562 17.4777 29.2291 17.4723 29.2039 17.4618C29.1786 17.4514 29.1556 17.436 29.1362 17.4167C29.1169 17.3973 29.1015 17.3743 29.0911 17.349C29.0806 17.3238 29.0752 17.2967 29.0752 17.2693C29.0752 17.242 29.0806 17.215 29.0911 17.1898C29.1016 17.1646 29.117 17.1417 29.1363 17.1225C29.1557 17.1033 29.1787 17.0881 29.204 17.0778C29.2293 17.0675 29.2563 17.0623 29.2836 17.0625H36.0941C36.1213 17.0623 36.1483 17.0675 36.1734 17.0778C36.1986 17.0881 36.2215 17.1033 36.2408 17.1226C36.26 17.1418 36.2752 17.1647 36.2855 17.1899C36.2958 17.2151 36.301 17.2421 36.3008 17.2693C36.301 17.2966 36.2959 17.3236 36.2856 17.3489C36.2753 17.3742 36.2601 17.3972 36.2408 17.4166C36.2216 17.4359 36.1988 17.4513 36.1736 17.4618C36.1484 17.4723 36.1213 17.4777 36.0941 17.4777Z" fill="white"/>
<path d="M38.7542 18.7233H29.2836C29.2563 18.7235 29.2293 18.7183 29.204 18.708C29.1787 18.6977 29.1557 18.6825 29.1363 18.6633C29.117 18.6441 29.1016 18.6212 29.0911 18.596C29.0806 18.5708 29.0752 18.5438 29.0752 18.5165C29.0752 18.4612 29.0972 18.4082 29.1362 18.3691C29.1753 18.3301 29.2283 18.3081 29.2836 18.3081H38.7542C38.8095 18.3081 38.8625 18.3301 38.9016 18.3691C38.9407 18.4082 38.9626 18.4612 38.9626 18.5165C38.9626 18.5438 38.9572 18.5708 38.9467 18.596C38.9363 18.6212 38.9209 18.6441 38.9015 18.6633C38.8821 18.6825 38.8591 18.6977 38.8339 18.708C38.8086 18.7183 38.7815 18.7235 38.7542 18.7233Z" fill="white"/>
<path d="M33.104 19.9704H29.2836C29.2283 19.9704 29.1753 19.9484 29.1362 19.9093C29.0972 19.8702 29.0752 19.8172 29.0752 19.762C29.0752 19.7347 29.0806 19.7076 29.0911 19.6824C29.1016 19.6573 29.117 19.6344 29.1363 19.6152C29.1557 19.5959 29.1787 19.5807 29.204 19.5704C29.2293 19.5602 29.2563 19.555 29.2836 19.5552H33.104C33.1312 19.555 33.1582 19.5602 33.1834 19.5705C33.2086 19.5808 33.2315 19.596 33.2507 19.6153C33.27 19.6345 33.2852 19.6574 33.2955 19.6826C33.3058 19.7078 33.311 19.7347 33.3108 19.762C33.311 19.7892 33.3058 19.8163 33.2955 19.8416C33.2852 19.8669 33.27 19.8899 33.2508 19.9092C33.2316 19.9286 33.2087 19.944 33.1835 19.9545C33.1583 19.965 33.1313 19.9704 33.104 19.9704Z" fill="white"/>
</g>
<path d="M29.1573 22.0888C29.3411 21.7901 29.6939 21.905 29.8745 22.1363C30.0566 21.9033 30.4078 21.7884 30.5932 22.0871C30.9034 22.5909 30.265 23.0586 29.9631 23.2359L29.8777 23.2884L29.7908 23.2359C29.4888 23.0603 28.8471 22.5942 29.1573 22.0888Z" fill="white"/>
<g opacity="0.6">
<path d="M32.0093 22.1694H33.03L32.9824 23.2952H32.0585L32.0093 22.1694Z" fill="white"/>
<path d="M32.7118 21.9036L32.6642 21.8052H32.377L32.3277 21.9036L31.9175 21.9512V22.0628H33.1237V21.9512L32.7118 21.9036Z" fill="white"/>
</g>
<g opacity="0.6">
<path d="M35.8151 21.8463H35.5526C35.5383 21.846 35.5243 21.8508 35.5132 21.8598C35.5021 21.8688 35.4946 21.8814 35.4919 21.8955L35.4738 21.9808H34.2069H34.1954H34.1856C34.1856 21.9808 34.1856 21.9808 34.1774 21.989V21.9989V22.0087C34.1766 22.0131 34.1766 22.0175 34.1774 22.0219L34.3119 22.7817C34.3146 22.7959 34.3221 22.8087 34.3332 22.818C34.3442 22.8273 34.3582 22.8324 34.3726 22.8325H35.3835C35.3978 22.8328 35.4118 22.828 35.4229 22.819C35.434 22.81 35.4416 22.7974 35.4443 22.7833L35.5969 22.0383C35.5984 22.0296 35.5984 22.0207 35.5969 22.012L35.61 21.9414H35.8234C35.8379 21.939 35.8512 21.9315 35.8608 21.9203C35.8704 21.909 35.8756 21.8947 35.8756 21.8799C35.8756 21.8651 35.8704 21.8508 35.8608 21.8395C35.8512 21.8283 35.8379 21.8208 35.8234 21.8184L35.8151 21.8463ZM35.3967 22.3648H35.1308L35.1456 22.1039H35.4492L35.3967 22.3648ZM34.7402 22.3648L34.7288 22.1039H35.0241L35.0094 22.3648H34.7402ZM35.0028 22.4879L34.988 22.7406H34.7583L34.7468 22.4879H35.0028ZM34.2988 22.1039H34.6073L34.6188 22.3648H34.3464L34.2988 22.1039ZM34.3661 22.4879H34.6237L34.6352 22.7406H34.4104L34.3661 22.4879ZM35.3212 22.7406H35.1111L35.1259 22.4879H35.3721L35.3212 22.7406Z" fill="white"/>
<path d="M34.4152 22.9883C34.3846 22.988 34.3546 22.9967 34.329 23.0135C34.3035 23.0302 34.2834 23.0542 34.2715 23.0824C34.2596 23.1105 34.2563 23.1416 34.262 23.1716C34.2678 23.2017 34.2824 23.2293 34.3039 23.251C34.3254 23.2728 34.3529 23.2876 34.3828 23.2937C34.4128 23.2998 34.4439 23.2968 34.4722 23.2852C34.5005 23.2736 34.5247 23.2538 34.5417 23.2284C34.5587 23.203 34.5678 23.1731 34.5678 23.1426C34.5678 23.1019 34.5518 23.0629 34.5232 23.034C34.4946 23.0052 34.4558 22.9887 34.4152 22.9883Z" fill="white"/>
<path d="M35.4376 22.9883C35.4071 22.988 35.3771 22.9967 35.3515 23.0135C35.3259 23.0302 35.3059 23.0542 35.294 23.0824C35.282 23.1105 35.2787 23.1416 35.2845 23.1716C35.2903 23.2017 35.3048 23.2293 35.3263 23.251C35.3478 23.2728 35.3753 23.2876 35.4053 23.2937C35.4353 23.2998 35.4664 23.2968 35.4946 23.2852C35.5229 23.2736 35.5471 23.2538 35.5641 23.2284C35.5812 23.203 35.5903 23.1731 35.5903 23.1426C35.5903 23.1019 35.5742 23.0629 35.5457 23.034C35.5171 23.0052 35.4783 22.9887 35.4376 22.9883Z" fill="white"/>
</g>
<path d="M54.9828 29.7231L53.6207 30.9473C53.6207 30.9473 54.1475 31.3625 54.2902 31.5085C54.433 31.6546 53.6683 32.1354 53.4418 32.0009C53.2153 31.8663 52.874 31.2657 52.7443 31.0162C52.6147 30.7668 53.2367 30.368 53.2367 30.368L54.3378 29.2964L54.9828 29.7231Z" fill="#B97964"/>
<path d="M57.2393 27.0773C57.1918 28.062 54.6891 30.1379 54.6891 30.1379L53.9014 29.621C53.9014 29.621 55.9052 27.5024 55.6442 26.8624C55.5523 26.6375 55.234 26.3536 54.8614 26.0828C54.3614 25.7317 53.8402 25.4116 53.3008 25.1245L53.8768 23.7082L54.3314 22.5923C55.1782 22.9386 57.2886 26.1025 57.2393 27.0773Z" fill="#00B39F"/>
<path opacity="0.2" d="M54.8614 26.0929C54.3614 25.7417 53.8402 25.4216 53.3008 25.1345L53.8768 23.7183C54.3461 24.2024 55.0699 25.1378 54.8614 26.0929Z" fill="black"/>
<path d="M41.3127 23.3753L38.4867 22.2265C38.4867 22.2265 38.2668 21.8606 38.0781 21.813C37.8894 21.7654 36.7242 21.8376 36.6356 21.9771C36.547 22.1166 36.7292 22.9995 36.9638 23.0733C37.1985 23.1472 38.1995 22.942 38.2865 22.8862L40.8121 24.1777L41.3127 23.3753Z" fill="#B97964"/>
<path d="M57.443 58.3547L56.4124 58.5369L55.9906 57.1321L55.605 55.8439L56.7931 55.4287L57.1377 56.9779L57.443 58.3547Z" fill="#B97964"/>
<path opacity="0.2" d="M57.1425 57.0088L55.9954 57.1598L55.6064 55.8568L56.7929 55.4351L57.1425 57.0088Z" fill="black"/>
<path d="M50.565 58.3811H49.5196L49.3473 56.978L49.1914 55.6667L50.4337 55.478L50.5043 57.0174L50.565 58.3811Z" fill="#B97964"/>
<path opacity="0.2" d="M50.5043 57.1106L49.3473 57.0597L49.1914 55.7074L50.4337 55.499L50.5043 57.1106Z" fill="black"/>
<path d="M57.2391 55.8834L55.5455 56.1821C53.8371 51.9153 52.6211 48.369 51.771 45.42C51.3082 43.8281 50.9423 42.4135 50.6649 41.1532L50.7372 45.7876V56.2428H49.0206C44.8375 36.3859 47.8029 31.7696 47.8029 31.7696L52.8065 30.9326C53.0048 31.86 53.1451 32.7989 53.2267 33.7438L53.4515 35.4029L55.4076 45.507L57.2391 55.8834Z" fill="#00B39F"/>
<g opacity="0.5">
<path d="M57.2394 55.8835L55.5458 56.1821C53.9851 52.2912 52.8347 48.9893 51.9945 46.1995C51.9141 45.9353 51.8304 45.676 51.7566 45.42C51.3365 43.9759 51.0575 42.6761 50.7293 41.511C50.7159 41.3919 50.6895 41.2747 50.6505 41.1614L50.7293 45.7958V56.2511H49.0209C46.4658 44.1071 46.5773 37.6594 47.0516 34.4888C47.3536 32.467 47.8032 31.7958 47.8032 31.7958L52.8068 30.9507C53.0052 31.8764 53.1455 32.8137 53.227 33.7569L53.2942 34.2492L53.4584 35.4078L55.4145 45.5103L57.2394 55.8835Z" fill="white"/>
</g>
<path d="M55.2812 55.9717L57.3818 55.2759L57.3523 56.1686L55.616 56.7233L55.2812 55.9717Z" fill="#00B39F"/>
<path opacity="0.6" d="M55.2812 55.9717L57.3818 55.2759L57.3523 56.1686L55.616 56.7233L55.2812 55.9717Z" fill="white"/>
<path d="M48.7959 56.0685L50.9867 55.7485L50.8029 56.6232L48.9961 56.8677L48.7959 56.0685Z" fill="#00B39F"/>
<path opacity="0.6" d="M48.7959 56.0685L50.9867 55.7485L50.8029 56.6232L48.9961 56.8677L48.7959 56.0685Z" fill="white"/>
<path opacity="0.2" d="M52.0026 46.1992C51.9222 45.935 51.8385 45.6757 51.7647 45.4197C51.3462 43.9756 51.0656 42.6759 50.7373 41.5107L50.5732 39.3642C50.5732 39.3642 51.6432 37.006 51.2428 35.3452C51.2789 35.4404 51.9878 37.2489 51.7105 39.054C51.6456 41.4396 51.7432 43.8269 52.0026 46.1992Z" fill="black"/>
<path d="M51.8023 20.9186C51.7915 20.9314 51.7794 20.9429 51.7662 20.9531C51.5941 21.1233 51.39 21.2578 51.1656 21.3486C50.5092 21.5931 50.0316 21.5587 49.6886 21.2912C49.2062 20.8858 48.9961 20.0833 48.9288 19.0921C48.8893 18.6987 48.9126 18.3016 48.9978 17.9155C48.9969 17.91 48.9969 17.9045 48.9978 17.8991C48.9978 17.8859 48.9978 17.8679 49.0092 17.8548C49.0654 17.6361 49.1755 17.435 49.3295 17.2699C49.4834 17.1048 49.6763 16.9809 49.8905 16.9095C50.0758 16.8419 50.2678 16.7946 50.4632 16.7684C52.3784 16.5025 53.1316 19.6353 51.8023 20.9186Z" fill="#B97964"/>
<path opacity="0.2" d="M51.7661 20.9532C51.5907 21.1151 51.3848 21.2406 51.1606 21.3224C50.5041 21.5653 50.0249 21.5095 49.6836 21.2371C50.1018 21.286 50.5244 21.196 50.8865 20.9811C51.0215 20.9103 51.1708 20.8711 51.3231 20.8662C51.4754 20.8614 51.6269 20.8911 51.7661 20.9532Z" fill="black"/>
<path d="M52.303 22.4352C52.6066 22.9095 52.0158 23.3673 52.0158 23.3673C50.7489 23.3066 50.3305 22.7995 50.3305 22.7995C51.0673 21.979 50.3042 20.7383 50.3042 20.7383L50.5241 20.7597L51.9207 20.5332C51.9207 20.5332 51.8173 21.3537 51.8271 21.5359C51.8878 22.4582 52.303 22.4352 52.303 22.4352Z" fill="#B97964"/>
<path d="M48.9946 17.9041C48.9946 17.9041 49.0619 19.2613 50.4092 19.6765C50.4092 19.6765 51.1362 21.0025 51.9436 20.9188C53.0464 20.8055 53.8128 19.1136 53.2286 17.5759C52.4721 15.5754 49.3228 15.8085 48.9946 17.9041Z" fill="#263238"/>
<path d="M49.7148 19.3727C49.6886 19.1626 49.8117 18.7884 50.1448 18.795C50.4779 18.8016 50.7815 19.6155 49.9807 19.9011C49.8691 19.9438 49.7706 19.8108 49.7148 19.3727Z" fill="#B97964"/>
<path d="M49.4082 58.1823H50.5767C50.6008 58.1828 50.624 58.1913 50.6427 58.2064C50.6615 58.2216 50.6746 58.2426 50.6801 58.266L50.9197 59.3491C50.9245 59.3722 50.9247 59.396 50.9202 59.4191C50.9158 59.4423 50.9069 59.4643 50.8939 59.484C50.8809 59.5036 50.8642 59.5205 50.8447 59.5337C50.8252 59.5469 50.8033 59.5561 50.7802 59.5608C50.7671 59.5625 50.7539 59.5625 50.7408 59.5608C50.2632 59.5526 50.2255 59.5231 49.6249 59.5231C49.2556 59.5231 48.1397 59.5625 47.6293 59.5625C47.119 59.5625 47.0533 59.0587 47.2617 59.0111C48.1988 58.8076 48.9028 58.5188 49.2048 58.2545C49.2609 58.2054 49.3337 58.1795 49.4082 58.1823Z" fill="#263238"/>
<path d="M49.0058 58.3957C48.9235 58.4022 48.8414 58.3808 48.7727 58.335C48.7482 58.3161 48.7294 58.2907 48.7187 58.2617C48.7079 58.2327 48.7056 58.2012 48.712 58.1709C48.7118 58.1542 48.7164 58.1378 48.7251 58.1236C48.7338 58.1093 48.7463 58.0979 48.7613 58.0905C48.8958 58.0215 49.2897 58.2628 49.3324 58.2907C49.3374 58.2931 49.3414 58.2972 49.3438 58.3023C49.3462 58.3074 49.3468 58.3131 49.3455 58.3186C49.345 58.3244 49.3426 58.3299 49.3388 58.3343C49.335 58.3387 49.3298 58.3418 49.3241 58.3432C49.2203 58.3723 49.1135 58.3899 49.0058 58.3957ZM48.8253 58.1446C48.8129 58.1413 48.7999 58.1413 48.7875 58.1446C48.7875 58.1446 48.7711 58.1561 48.7695 58.1791C48.7672 58.1981 48.7694 58.2173 48.776 58.2353C48.7825 58.2533 48.7932 58.2694 48.8072 58.2825C48.9435 58.3448 49.0984 58.353 49.2405 58.3054C49.1138 58.2255 48.9728 58.1709 48.8253 58.1446Z" fill="#00B39F"/>
<path d="M49.318 58.3533H49.3032C49.1785 58.286 48.9356 58.0169 48.9602 57.8889C48.9644 57.8676 48.9759 57.8484 48.9926 57.8347C49.0094 57.8209 49.0304 57.8134 49.0521 57.8134C49.0741 57.8111 49.0964 57.8132 49.1175 57.8197C49.1387 57.8262 49.1583 57.8369 49.1752 57.8512C49.3163 57.9644 49.3393 58.3139 49.3393 58.332C49.3396 58.3371 49.3386 58.3423 49.3363 58.3469C49.3339 58.3515 49.3305 58.3554 49.3262 58.3582C49.3231 58.3572 49.3204 58.3555 49.318 58.3533ZM49.0735 57.861H49.0587C49.0226 57.861 49.0193 57.884 49.0177 57.8905C49.0013 57.9693 49.1572 58.1728 49.2819 58.2663C49.2732 58.1278 49.2229 57.9951 49.1375 57.8856C49.1198 57.8698 49.0972 57.8605 49.0735 57.8594V57.861Z" fill="#00B39F"/>
<path d="M56.3728 58.1823H57.5396C57.5639 58.1822 57.5874 58.1905 57.6063 58.2057C57.6251 58.221 57.6381 58.2423 57.643 58.266L57.8826 59.3491C57.8877 59.3721 57.8881 59.3959 57.8839 59.419C57.8796 59.4421 57.8709 59.4642 57.858 59.4839C57.8452 59.5036 57.8286 59.5205 57.8091 59.5337C57.7897 59.547 57.7678 59.5562 57.7448 59.5608H57.7054C57.2278 59.5526 57.1885 59.5231 56.5895 59.5231C56.2186 59.5231 55.1043 59.5625 54.5939 59.5625C54.0835 59.5625 54.0163 59.0587 54.2263 59.0111C55.1634 58.8076 55.8674 58.5188 56.1677 58.2546C56.2244 58.2053 56.2978 58.1795 56.3728 58.1823Z" fill="#263238"/>
<path d="M55.9709 58.3957C55.888 58.4024 55.8054 58.381 55.7362 58.335C55.7128 58.3152 55.695 58.2897 55.6846 58.2609C55.6742 58.232 55.6716 58.201 55.6771 58.1709C55.6767 58.1541 55.6812 58.1377 55.6899 58.1234C55.6986 58.1091 55.7113 58.0977 55.7263 58.0905C55.8609 58.0215 56.2531 58.2628 56.2974 58.2907C56.3023 58.2933 56.3062 58.2975 56.3085 58.3025C56.3109 58.3075 56.3116 58.3131 56.3106 58.3186C56.3098 58.3243 56.3074 58.3297 56.3036 58.3341C56.2998 58.3385 56.2948 58.3416 56.2892 58.3432C56.1853 58.3721 56.0786 58.3897 55.9709 58.3957ZM55.7887 58.1446C55.7769 58.1415 55.7644 58.1415 55.7526 58.1446C55.7444 58.1446 55.7345 58.1561 55.7345 58.1791C55.7318 58.1981 55.7339 58.2175 55.7404 58.2355C55.747 58.2535 55.758 58.2697 55.7723 58.2825C55.9086 58.3448 56.0634 58.353 56.2055 58.3054C56.0785 58.2251 55.9368 58.1704 55.7887 58.1446Z" fill="#00B39F"/>
<path d="M56.2807 58.3532H56.2692C56.1429 58.2859 55.9 58.0168 55.9246 57.8888C55.9294 57.8675 55.9413 57.8484 55.9582 57.8347C55.9752 57.821 55.9963 57.8135 56.0181 57.8133C56.0399 57.8112 56.0618 57.8134 56.0827 57.8199C56.1035 57.8264 56.1229 57.837 56.1396 57.851C56.2807 57.9642 56.3037 58.3138 56.3119 58.3318C56.3118 58.3369 56.3105 58.3419 56.3083 58.3464C56.306 58.351 56.3027 58.355 56.2988 58.3581C56.2923 58.3586 56.286 58.3568 56.2807 58.3532ZM56.0362 57.8609H56.0231C55.9853 57.8609 55.982 57.8838 55.9804 57.8904C55.9656 57.9692 56.1199 58.1727 56.2446 58.2662C56.2373 58.1276 56.1875 57.9947 56.1018 57.8855C56.0836 57.8694 56.0604 57.8601 56.0362 57.8592V57.8609Z" fill="#00B39F"/>
<path d="M47.803 31.7922C47.803 31.7922 47.1466 25.4052 48.7876 22.7975C48.7876 22.7975 51.0851 22 54.3312 22.5989C54.3312 22.5989 53.1184 27.084 52.9773 31.7889L47.803 31.7922Z" fill="#263238"/>
<path d="M53.8914 30.6192L48.4758 30.7619C48.1067 29.8396 47.8782 28.8671 47.7981 27.8769C47.7345 27.139 47.7251 26.3975 47.7702 25.6582C47.813 24.8302 47.9228 24.0069 48.0984 23.1966C49.4818 21.672 54.3213 22.5943 54.3213 22.5943C53.5943 26.0586 53.8914 30.6192 53.8914 30.6192Z" fill="#00B39F"/>
<path d="M49.2127 16.944C49.1783 16.8537 48.686 17.3148 48.663 17.3493C48.5569 17.4979 48.4946 17.6732 48.4833 17.8554C48.472 18.0376 48.5121 18.2194 48.599 18.3799C48.791 18.7081 49.1898 18.9362 49.2242 19.3153C49.239 19.4893 49.1701 19.6599 49.1701 19.8355C49.181 20.067 49.2803 20.2855 49.4474 20.446C49.7674 20.7742 50.2926 20.9137 50.3254 21.4454C50.3207 21.6786 50.3037 21.9114 50.2745 22.1429C50.2611 22.2592 50.2754 22.3771 50.3161 22.4869C50.3569 22.5967 50.4231 22.6953 50.5092 22.7747C50.6551 22.8549 50.8114 22.9145 50.9736 22.9519C51.1295 23.0094 51.2871 23.1374 51.2805 23.3031C51.2562 23.4081 51.2199 23.51 51.1722 23.6067C51.1539 23.7031 51.1642 23.8028 51.2018 23.8935C51.2394 23.9842 51.3027 24.0619 51.3839 24.1171C51.7006 24.36 52.2175 24.3337 52.4719 24.6701C52.5159 24.7172 52.549 24.7734 52.5689 24.8347C52.5889 24.896 52.5951 24.9609 52.5873 25.0248C52.5795 25.0888 52.5578 25.1503 52.5237 25.205C52.4896 25.2596 52.4439 25.3062 52.3899 25.3413C52.3899 25.3413 53.0003 25.384 53.1086 24.7998C53.156 24.9462 53.1439 25.1055 53.0748 25.2431C53.0057 25.3807 52.8852 25.4855 52.7394 25.535C52.7394 25.535 53.3203 25.6219 53.4303 24.8867C53.4803 24.9882 53.5637 25.0694 53.6665 25.1167C53.7693 25.1639 53.8853 25.1743 53.9948 25.146C53.9948 25.146 53.5452 24.9918 53.8898 24.506C54.0867 24.2287 54.346 23.9448 54.3821 23.5919C54.4281 23.1981 54.1031 22.8978 54.1589 22.5023C54.2098 22.1314 54.5626 21.8639 54.6513 21.4996C54.6984 21.2656 54.6557 21.0224 54.5315 20.8185C54.3427 20.4903 53.9669 20.3262 53.9669 19.9094C53.9669 19.5812 54.0999 19.2628 54.1704 18.9395C54.2339 18.7145 54.2153 18.4743 54.1179 18.2617C54.013 18.1054 53.882 17.9683 53.7306 17.8564C53.2892 17.4609 53.5173 16.8406 53.1201 16.4057C53.0283 16.3032 52.914 16.2232 52.7862 16.1719C52.6584 16.1207 52.5206 16.0996 52.3833 16.1103C52.225 16.1415 52.0688 16.1826 51.9156 16.2334C51.5874 16.3138 51.3904 16.1497 51.1394 15.979C50.7324 15.7033 50.1449 15.5737 49.687 15.8034C49.4841 15.9048 49.3244 16.0758 49.2373 16.2853C49.1502 16.4948 49.1415 16.7286 49.2127 16.944Z" fill="#263238"/>
<path d="M50.0005 20.9615C49.8764 20.9691 49.7521 20.9512 49.6353 20.9088C49.5184 20.8665 49.4115 20.8007 49.3211 20.7154C49.1077 20.4938 49.0815 20.1869 49.0831 19.8948V19.8161C49.0831 19.5125 49.0831 19.2515 48.919 18.9955C48.8665 18.9151 48.8041 18.8314 48.745 18.7625C48.624 18.6245 48.5244 18.469 48.4497 18.3014C48.4089 18.1993 48.3896 18.09 48.393 17.9801C48.3963 17.8703 48.4224 17.7623 48.4693 17.663C48.6991 17.1707 49.3326 16.9294 49.5213 16.8671C49.5308 16.8636 49.5414 16.864 49.5506 16.8684C49.5599 16.8727 49.567 16.8805 49.5705 16.89C49.574 16.8996 49.5735 16.9102 49.5692 16.9194C49.5649 16.9286 49.5571 16.9358 49.5475 16.9393C49.1717 17.0656 48.7106 17.3315 48.5399 17.6958C48.4968 17.7855 48.4729 17.8832 48.4698 17.9827C48.4667 18.0822 48.4844 18.1812 48.5219 18.2735C48.5933 18.4338 48.6891 18.5821 48.8058 18.7133C48.8665 18.7904 48.9288 18.8692 48.983 18.9529C49.1635 19.2269 49.1602 19.5125 49.157 19.8144V19.8932C49.157 20.1755 49.1799 20.4659 49.3736 20.6661C49.6444 20.9451 50.0776 20.9074 50.4255 20.8434C50.4354 20.8423 50.4453 20.8449 50.4532 20.8508C50.4612 20.8567 50.4667 20.8654 50.4686 20.8751C50.4704 20.8848 50.4685 20.8949 50.4633 20.9033C50.4581 20.9118 50.4498 20.9179 50.4403 20.9205C50.2951 20.9467 50.148 20.9604 50.0005 20.9615Z" fill="#263238"/>
<path d="M53.9192 24.8063C53.9131 24.8062 53.9071 24.8046 53.9017 24.8018C53.8963 24.7989 53.8916 24.7948 53.888 24.7899C53.7469 24.5864 54.0521 24.2401 54.2655 24.0104C54.3106 23.9633 54.3533 23.914 54.3935 23.8627C54.4881 23.7508 54.5437 23.6111 54.5517 23.4648C54.5597 23.3184 54.5197 23.1735 54.4378 23.052L54.3803 22.9716C54.2491 22.7878 54.0997 22.5777 54.2162 22.325C54.2672 22.2252 54.3318 22.1329 54.4082 22.0509C54.4768 21.9793 54.5353 21.8987 54.5822 21.8113C54.6588 21.6622 54.6737 21.489 54.6236 21.329C54.5736 21.1691 54.4626 21.0352 54.3147 20.9563C54.3102 20.9539 54.3062 20.9507 54.303 20.9467C54.2998 20.9427 54.2975 20.9381 54.2961 20.9332C54.2947 20.9283 54.2943 20.9232 54.295 20.9181C54.2957 20.9131 54.2973 20.9082 54.2999 20.9038C54.3056 20.8952 54.3143 20.889 54.3242 20.8863C54.3342 20.8836 54.3448 20.8845 54.3541 20.889C54.5177 20.9791 54.6401 21.1291 54.6955 21.3075C54.7509 21.4859 54.735 21.6789 54.6511 21.8458C54.6009 21.9385 54.5391 22.0245 54.4673 22.1018C54.3955 22.1776 54.3347 22.2633 54.2868 22.3562C54.1916 22.5695 54.3163 22.7435 54.4509 22.9273L54.5083 23.0093C54.5995 23.1435 54.6443 23.3038 54.636 23.4658C54.6277 23.6279 54.5667 23.7828 54.4624 23.907C54.4211 23.9615 54.3768 24.0135 54.3295 24.0629C54.1506 24.2598 53.8519 24.5929 53.957 24.7456C53.9629 24.7539 53.9653 24.7642 53.9638 24.7743C53.9623 24.7844 53.9569 24.7935 53.9487 24.7997C53.9401 24.8056 53.9295 24.8079 53.9192 24.8063Z" fill="#263238"/>
<path opacity="0.2" d="M47.8029 27.877C47.7394 27.1391 47.73 26.3975 47.775 25.6583C48.3773 25.1561 48.845 24.7983 48.845 24.7983C48.845 24.7983 49.0206 26.6839 47.8029 27.877Z" fill="black"/>
<path d="M49.0931 22.6465C49.0931 22.6465 49.5297 24.8472 47.7606 25.9516C47.7606 25.9516 43.5283 25.9401 42.7241 25.6775C41.92 25.415 39.4683 23.8018 39.4683 23.8018L40.0869 22.7269C40.0869 22.7269 42.4534 23.5655 43.1672 23.8018C43.8811 24.0381 49.0931 22.6465 49.0931 22.6465Z" fill="#00B39F"/>
<path d="M54.6176 13.3507L59.6786 13.3436C60.0131 13.3432 60.2838 13.0717 60.2833 12.7372L60.2763 7.67616C60.2758 7.34172 60.0043 7.07099 59.6699 7.07145L54.6088 7.07852C54.2744 7.07899 54.0036 7.35048 54.0041 7.68492L54.0112 12.746C54.0116 13.0804 54.2831 13.3512 54.6176 13.3507Z" fill="#00B39F"/>
<path d="M57.8207 13.0302C57.8207 13.0302 57.0002 14.9108 55.1523 15.4918C55.1523 15.4918 56.1714 14.9059 56.096 12.9448L57.8207 13.0302Z" fill="#00B39F"/>
<g opacity="0.7">
<path d="M57.712 9.28209C57.712 8.97193 57.456 8.75859 57.0195 8.75859C56.8548 8.74841 56.69 8.77781 56.539 8.84433C56.3879 8.91085 56.255 9.01256 56.1513 9.14096L55.7969 8.88987C56.0644 8.54525 56.4861 8.34668 57.0523 8.34668C57.7514 8.34668 58.201 8.67489 58.201 9.20988C58.201 10.0189 57.3428 10.0731 57.3428 10.7082H56.8504C56.8586 9.94672 57.712 9.84662 57.712 9.28209ZM56.7914 11.4992C56.792 11.4374 56.8109 11.3772 56.8457 11.3261C56.8804 11.275 56.9295 11.2354 56.9867 11.2121C57.044 11.1888 57.1068 11.183 57.1673 11.1953C57.2279 11.2077 57.2834 11.2376 57.327 11.2814C57.3706 11.3252 57.4002 11.3809 57.4123 11.4415C57.4243 11.5021 57.4181 11.5649 57.3945 11.622C57.371 11.6791 57.3311 11.728 57.2798 11.7625C57.2285 11.797 57.1682 11.8156 57.1065 11.8159C57.0647 11.8168 57.0232 11.8092 56.9844 11.7936C56.9457 11.778 56.9105 11.7547 56.881 11.725C56.8516 11.6954 56.8284 11.6601 56.813 11.6213C56.7976 11.5825 56.7902 11.5409 56.7914 11.4992Z" fill="white"/>
</g>
</svg>
