<svg width="61" height="60" viewBox="0 0 61 60" fill="none" xmlns="http://www.w3.org/2000/svg">
<g clip-path="url(#clip0_9505_14670)">
<path d="M54.9227 3.75732H15.4706C12.3954 3.75732 9.89335 6.25936 9.89335 9.33462V14.0313V45.088H1.38063C0.894286 45.088 0.5 45.4823 0.5 45.9687V50.6653C0.5 53.7406 3.00204 56.2426 6.0773 56.2426H45.5294C48.6046 56.2426 51.1067 53.7406 51.1067 50.6653V14.9119H59.6194C60.1057 14.9119 60.5 14.5176 60.5 14.0313V9.33462C60.5 6.25936 57.998 3.75732 54.9227 3.75732ZM6.0773 54.4814C3.97319 54.4814 2.26125 52.7695 2.26125 50.6653V46.8493H10.7694C10.7709 46.8493 10.7724 46.8495 10.774 46.8495C10.7755 46.8495 10.777 46.8493 10.7786 46.8493H39.9521V50.6653C39.9521 52.1401 40.5274 53.483 41.4654 54.4814H6.0773ZM49.3454 50.6653C49.3454 52.7695 47.6335 54.4814 45.5294 54.4814C43.4252 54.4814 41.7133 52.7695 41.7133 50.6653V45.9687C41.7133 45.4823 41.319 45.088 40.8327 45.088H11.6546V14.0313V9.33462C11.6546 7.23051 13.3665 5.51858 15.4706 5.51858H50.8608C49.9222 6.51709 49.3454 7.8594 49.3454 9.33462V14.0313V50.6653ZM58.7387 13.1507H51.1067V9.33462C51.1067 7.23051 52.8186 5.51858 54.9227 5.51858C57.0268 5.51858 58.7387 7.23051 58.7387 9.33462V13.1507Z" fill="#00B39F"/>
<path d="M19.228 12.2114H17.3494C16.863 12.2114 16.4688 12.6057 16.4688 13.0921C16.4688 13.5784 16.863 13.9727 17.3494 13.9727H19.228C19.7144 13.9727 20.1087 13.5784 20.1087 13.0921C20.1087 12.6057 19.7144 12.2114 19.228 12.2114Z" fill="#00B39F"/>
<path d="M43.6505 12.2114H22.9851C22.4988 12.2114 22.1045 12.6057 22.1045 13.0921C22.1045 13.5784 22.4988 13.9727 22.9851 13.9727H43.6505C44.1368 13.9727 44.5311 13.5784 44.5311 13.0921C44.5311 12.6057 44.1368 12.2114 43.6505 12.2114Z" fill="#00B39F"/>
<path d="M19.228 16.9082H17.3494C16.863 16.9082 16.4688 17.3025 16.4688 17.7888C16.4688 18.2752 16.863 18.6695 17.3494 18.6695H19.228C19.7144 18.6695 20.1087 18.2752 20.1087 17.7888C20.1087 17.3025 19.7144 16.9082 19.228 16.9082Z" fill="#00B39F"/>
<path d="M22.9851 18.6695H39.8931C40.3795 18.6695 40.7738 18.2752 40.7738 17.7888C40.7738 17.3025 40.3795 16.9082 39.8931 16.9082H22.9851C22.4988 16.9082 22.1045 17.3025 22.1045 17.7888C22.1045 18.2752 22.4988 18.6695 22.9851 18.6695Z" fill="#00B39F"/>
<path d="M19.228 21.6045H17.3494C16.863 21.6045 16.4688 21.9988 16.4688 22.4851C16.4688 22.9715 16.863 23.3657 17.3494 23.3657H19.228C19.7144 23.3657 20.1087 22.9715 20.1087 22.4851C20.1087 21.9988 19.7144 21.6045 19.228 21.6045Z" fill="#00B39F"/>
<path d="M43.6505 21.6045H22.9851C22.4988 21.6045 22.1045 21.9988 22.1045 22.4851C22.1045 22.9715 22.4988 23.3657 22.9851 23.3657H43.6505C44.1368 23.3657 44.5311 22.9715 44.5311 22.4851C44.5311 21.9988 44.1368 21.6045 43.6505 21.6045Z" fill="#00B39F"/>
<path d="M19.228 26.3013H17.3494C16.863 26.3013 16.4688 26.6956 16.4688 27.1819C16.4688 27.6682 16.863 28.0625 17.3494 28.0625H19.228C19.7144 28.0625 20.1087 27.6682 20.1087 27.1819C20.1087 26.6956 19.7144 26.3013 19.228 26.3013Z" fill="#00B39F"/>
<path d="M22.9851 28.0625H41.7718C42.2582 28.0625 42.6524 27.6682 42.6524 27.1819C42.6524 26.6956 42.2582 26.3013 41.7718 26.3013H22.9851C22.4988 26.3013 22.1045 26.6956 22.1045 27.1819C22.1045 27.6682 22.4988 28.0625 22.9851 28.0625Z" fill="#00B39F"/>
<path d="M19.228 30.998H17.3494C16.863 30.998 16.4688 31.3923 16.4688 31.8787C16.4688 32.365 16.863 32.7593 17.3494 32.7593H19.228C19.7144 32.7593 20.1087 32.365 20.1087 31.8787C20.1087 31.3923 19.7144 30.998 19.228 30.998Z" fill="#00B39F"/>
<path d="M22.9851 32.7593H38.0145C38.5008 32.7593 38.8951 32.365 38.8951 31.8787C38.8951 31.3923 38.5008 30.998 38.0145 30.998H22.9851C22.4988 30.998 22.1045 31.3923 22.1045 31.8787C22.1045 32.365 22.4988 32.7593 22.9851 32.7593Z" fill="#00B39F"/>
<path d="M19.228 35.6948H17.3494C16.863 35.6948 16.4688 36.0891 16.4688 36.5755C16.4688 37.0618 16.863 37.4561 17.3494 37.4561H19.228C19.7144 37.4561 20.1087 37.0618 20.1087 36.5755C20.1087 36.0891 19.7144 35.6948 19.228 35.6948Z" fill="#00B39F"/>
<path d="M43.6505 35.6948H22.9851C22.4988 35.6948 22.1045 36.0891 22.1045 36.5755C22.1045 37.0618 22.4988 37.4561 22.9851 37.4561H43.6505C44.1368 37.4561 44.5311 37.0618 44.5311 36.5755C44.5311 36.0891 44.1368 35.6948 43.6505 35.6948Z" fill="#00B39F"/>
<path d="M19.228 40.3916H17.3494C16.863 40.3916 16.4688 40.7859 16.4688 41.2722C16.4688 41.7586 16.863 42.1529 17.3494 42.1529H19.228C19.7144 42.1529 20.1087 41.7586 20.1087 41.2722C20.1087 40.7859 19.7144 40.3916 19.228 40.3916Z" fill="#00B39F"/>
<path d="M40.8325 40.3916H22.9851C22.4988 40.3916 22.1045 40.7859 22.1045 41.2722C22.1045 41.7586 22.4988 42.1529 22.9851 42.1529H40.8325C41.3188 42.1529 41.7131 41.7586 41.7131 41.2722C41.7131 40.7859 41.3188 40.3916 40.8325 40.3916Z" fill="#00B39F"/>
</g>
<defs>
<clipPath id="clip0_9505_14670">
<rect width="60" height="60" fill="white" transform="translate(0.5)"/>
</clipPath>
</defs>
</svg>
