<svg width="84" height="60" viewBox="0 0 84 60" fill="none" xmlns="http://www.w3.org/2000/svg">
<path d="M83.0266 53.6619H0.973145V53.697H83.0266V53.6619Z" fill="#EBEBEB"/>
<path d="M74.8049 55.9197H69.3696V55.9548H74.8049V55.9197Z" fill="#EBEBEB"/>
<path d="M55.3284 56.3019H53.9023V56.337H55.3284V56.3019Z" fill="#EBEBEB"/>
<path d="M69.2048 54.618H61.3818V54.6531H69.2048V54.618Z" fill="#EBEBEB"/>
<path d="M13.4676 54.8533H9.58154V54.8884H13.4676V54.8533Z" fill="#EBEBEB"/>
<path d="M19.1714 54.8533H14.9292V54.8884H19.1714V54.8533Z" fill="#EBEBEB"/>
<path d="M33.1567 55.4462H22.5488V55.4813H33.1567V55.4462Z" fill="#EBEBEB"/>
<path d="M39.8665 47.4036H8.17906C7.93083 47.4032 7.6929 47.3186 7.51753 47.1684C7.34215 47.0181 7.24365 46.8145 7.24365 46.6023V8.51217C7.24581 8.30112 7.34527 8.09931 7.52041 7.9506C7.69555 7.80188 7.93224 7.71826 8.17906 7.7179H39.8665C40.115 7.7179 40.3534 7.80232 40.5291 7.95259C40.7048 8.10286 40.8035 8.30667 40.8035 8.51919V46.6023C40.8035 46.8148 40.7048 47.0186 40.5291 47.1689C40.3534 47.3191 40.115 47.4036 39.8665 47.4036V47.4036ZM8.17906 7.74596C7.94171 7.74633 7.71422 7.82722 7.54654 7.97087C7.37886 8.11453 7.28468 8.3092 7.28468 8.51217V46.6023C7.28468 46.8052 7.37886 46.9999 7.54654 47.1436C7.71422 47.2872 7.94171 47.3681 8.17906 47.3685H39.8665C40.104 47.3681 40.3316 47.2873 40.4996 47.1436C40.6675 47 40.7621 46.8054 40.7625 46.6023V8.51217C40.7621 8.30907 40.6675 8.1144 40.4996 7.97079C40.3316 7.82718 40.104 7.74633 39.8665 7.74596H8.17906Z" fill="#EBEBEB"/>
<path d="M75.3644 47.4036H43.6753C43.4269 47.4032 43.1889 47.3186 43.0132 47.1685C42.8376 47.0183 42.7387 46.8147 42.7383 46.6023V8.51217C42.7409 8.30099 42.8407 8.09919 43.0161 7.95051C43.1915 7.80183 43.4284 7.71825 43.6753 7.7179H75.3644C75.6109 7.71863 75.8472 7.80241 76.022 7.95109C76.1968 8.09977 76.296 8.30136 76.2982 8.51217V46.6023C76.2982 46.8143 76.1999 47.0177 76.0249 47.1679C75.8498 47.3181 75.6123 47.4028 75.3644 47.4036V47.4036ZM43.6753 7.74596C43.4378 7.74633 43.2102 7.82718 43.0422 7.97079C42.8743 8.1144 42.7797 8.30907 42.7793 8.51217V46.6023C42.7797 46.8054 42.8743 47 43.0422 47.1436C43.2102 47.2873 43.4378 47.3681 43.6753 47.3685H75.3644C75.6019 47.3681 75.8296 47.2873 75.9975 47.1436C76.1654 47 76.26 46.8054 76.2604 46.6023V8.51217C76.26 8.30907 76.1654 8.1144 75.9975 7.97079C75.8296 7.82718 75.6019 7.74633 75.3644 7.74596H43.6753Z" fill="#EBEBEB"/>
<path d="M10.2014 53.6619H14.7144L14.7144 38.9187H10.2014L10.2014 53.6619Z" fill="#E6E6E6"/>
<path d="M11.0575 53.6625H10.1992V51.5772H11.9552L11.0575 53.6625Z" fill="#F0F0F0"/>
<path d="M35.9504 53.6619H40.4634V38.9187H35.9504V53.6619Z" fill="#E6E6E6"/>
<path d="M10.2007 52.3826H36.7007V38.9193H10.2007L10.2007 52.3826Z" fill="#F0F0F0"/>
<path d="M27.9614 39.6021V49.7761H35.8172V39.6021H27.9614Z" fill="#E6E6E6"/>
<path d="M31.1141 40.185H32.6682C33.0017 40.1847 33.3316 40.1265 33.638 40.0138C33.9443 39.9011 34.2207 39.7364 34.4504 39.5297H29.3286C29.5587 39.7368 29.8356 39.9017 30.1425 40.0144C30.4495 40.127 30.7801 40.1851 31.1141 40.185Z" fill="#F0F0F0"/>
<path d="M19.522 39.6021V49.7761H27.3778V39.6021H19.522Z" fill="#E6E6E6"/>
<path d="M22.5929 40.185H24.147C24.4811 40.1851 24.8116 40.127 25.1186 40.0144C25.4255 39.9017 25.7025 39.7368 25.9325 39.5297H20.8091C21.0389 39.7366 21.3156 39.9014 21.6223 40.0141C21.9289 40.1267 22.2592 40.1849 22.5929 40.185Z" fill="#F0F0F0"/>
<path d="M11.0806 39.6012V49.7752H18.9364V39.6012H11.0806Z" fill="#E6E6E6"/>
<path d="M14.1527 40.185H15.7068C16.0405 40.1849 16.3708 40.1267 16.6774 40.0141C16.9841 39.9014 17.2608 39.7366 17.4906 39.5297H12.3672C12.5972 39.7368 12.8742 39.9017 13.1811 40.0144C13.4881 40.127 13.8186 40.1851 14.1527 40.185Z" fill="#F0F0F0"/>
<path d="M35.8422 53.6625H36.7005V51.5772H34.9429L35.8422 53.6625Z" fill="#F0F0F0"/>
<path d="M46.547 30.2956L71.4092 30.2956V10.3826L46.547 10.3826V30.2956Z" fill="#E6E6E6"/>
<path d="M45.656 30.2956L70.9941 30.2956V10.3826L45.656 10.3826V30.2956Z" fill="#F0F0F0"/>
<path d="M46.547 31.7148L71.4092 31.7148V30.2961L46.547 30.2961V31.7148Z" fill="#E6E6E6"/>
<path d="M44.1677 31.7148L69.5059 31.7148V30.2961L44.1677 30.2961V31.7148Z" fill="#F0F0F0"/>
<path d="M69.7437 29.225V11.4507L46.9049 11.4507V29.225H69.7437Z" fill="#FAFAFA"/>
<path d="M67.3528 29.2264L60.0156 11.4521H56.5513L63.8885 29.2264H67.3528Z" fill="white"/>
<path d="M69.1648 23.1961C69.1411 23.1957 69.1186 23.1874 69.102 23.173C69.0855 23.1585 69.0762 23.1391 69.0762 23.1189V12.1464C69.0762 12.1364 69.0785 12.1266 69.0829 12.1174C69.0874 12.1082 69.0939 12.0998 69.1021 12.0928C69.1104 12.0858 69.1201 12.0802 69.1309 12.0764C69.1416 12.0726 69.1532 12.0706 69.1648 12.0706C69.1884 12.0706 69.2112 12.0786 69.228 12.0927C69.2449 12.1069 69.2546 12.1262 69.255 12.1464V23.1189C69.255 23.129 69.2527 23.1391 69.2482 23.1484C69.2436 23.1578 69.237 23.1663 69.2286 23.1735C69.2202 23.1806 69.2103 23.1863 69.1993 23.1902C69.1884 23.1941 69.1766 23.1961 69.1648 23.1961V23.1961Z" fill="#F0F0F0"/>
<path d="M63.1449 29.2264L55.8076 11.4521H54.457L61.7943 29.2264H63.1449Z" fill="white"/>
<path d="M47.0625 29.225V11.4507H46.9033V29.225H47.0625Z" fill="#E6E6E6"/>
<path d="M45.3594 12.8193H70.2232L70.3381 11.8679H45.4743L45.3594 12.8193Z" fill="#E6E6E6"/>
<path d="M45.3594 13.5159H70.2232L70.3381 12.563H45.4743L45.3594 13.5159Z" fill="#E6E6E6"/>
<path d="M45.3594 14.3529H70.2232L70.3381 13.4001H45.4743L45.3594 14.3529Z" fill="#E6E6E6"/>
<path d="M45.3594 15.2835H70.2232L70.3381 14.332H45.4743L45.3594 15.2835Z" fill="#E6E6E6"/>
<path d="M45.3594 16.3991H70.2232L70.3381 15.4462H45.4743L45.3594 16.3991Z" fill="#E6E6E6"/>
<path d="M45.3594 17.6514H70.2232L70.3381 16.7H45.4743L45.3594 17.6514Z" fill="#E6E6E6"/>
<path d="M66.9146 53.0155H71.375V42.8148H66.9146V53.0155Z" fill="#F0F0F0"/>
<path d="M48.5233 53.6619H70.5186V53.015H48.5233V53.6619Z" fill="#F0F0F0"/>
<path d="M66.9151 42.8142H47.667V53.0149H66.9151V42.8142Z" fill="#F5F5F5"/>
<path d="M65.1601 44.0707H49.4189V47.4162H65.1601V44.0707Z" fill="#F0F0F0"/>
<path d="M65.1601 48.4141H49.4189V51.7596H65.1601V48.4141Z" fill="#F0F0F0"/>
<path d="M55.302 45.9731H59.2767C59.3954 45.9731 59.4917 45.8908 59.4917 45.7893V45.6981C59.4917 45.5966 59.3954 45.5143 59.2767 45.5143H55.302C55.1833 45.5143 55.0871 45.5966 55.0871 45.6981V45.7893C55.0871 45.8908 55.1833 45.9731 55.302 45.9731Z" fill="#F5F5F5"/>
<path d="M55.302 50.3165H59.2767C59.3954 50.3165 59.4917 50.2342 59.4917 50.1327V50.0415C59.4917 49.94 59.3954 49.8576 59.2767 49.8576H55.302C55.1833 49.8576 55.0871 49.94 55.0871 50.0415V50.1327C55.0871 50.2342 55.1833 50.3165 55.302 50.3165Z" fill="#F5F5F5"/>
<path d="M27.0535 37.3279C27.933 37.1504 28.4777 36.3969 28.2701 35.6448C28.0625 34.8928 27.1813 34.427 26.3019 34.6045C25.4224 34.782 24.8777 35.5356 25.0853 36.2876C25.2929 37.0396 26.1741 37.5054 27.0535 37.3279Z" fill="#F5F5F5"/>
<path d="M24.1961 37.2088C25.0756 37.0313 25.6203 36.2778 25.4127 35.5257C25.2051 34.7737 24.3239 34.3079 23.4444 34.4854C22.565 34.6629 22.0203 35.4165 22.2279 36.1685C22.4355 36.9206 23.3167 37.3863 24.1961 37.2088Z" fill="#F5F5F5"/>
<path d="M20.2777 37.4548C21.1571 37.2774 21.7018 36.5238 21.4942 35.7718C21.2867 35.0197 20.4054 34.554 19.526 34.7315C18.6465 34.909 18.1019 35.6625 18.3094 36.4145C18.517 37.1666 19.3982 37.6323 20.2777 37.4548Z" fill="#F5F5F5"/>
<path d="M21.9647 38.1012C22.8441 37.9237 23.3888 37.1702 23.1812 36.4181C22.9737 35.6661 22.0925 35.2003 21.213 35.3778C20.3335 35.5553 19.7889 36.3089 19.9964 37.0609C20.204 37.8129 21.0852 38.2787 21.9647 38.1012Z" fill="#F5F5F5"/>
<path d="M30.4843 36.4693C30.4843 36.4693 30.3005 38.9433 23.2275 38.9433C16.1545 38.9433 15.9707 36.4693 15.9707 36.4693H30.4843Z" fill="#E6E6E6"/>
<path d="M12.1771 26.7935H18.29L18.29 13.7932H12.1771L12.1771 26.7935Z" fill="#E6E6E6"/>
<path d="M10.8707 26.7935H17.7222L17.7222 13.7932H10.8707L10.8707 26.7935Z" fill="#F5F5F5"/>
<path d="M16.6782 25.9577V14.6273H11.9142V25.9577H16.6782Z" fill="white"/>
<path d="M21.825 22.2659H27.938L27.938 9.26565H21.825V22.2659Z" fill="#E6E6E6"/>
<path d="M20.5201 22.2659H27.3716L27.3716 9.26565H20.5201V22.2659Z" fill="#F5F5F5"/>
<path d="M26.3276 21.4292V10.0989H21.5636V21.4292H26.3276Z" fill="white"/>
<path d="M30.658 30.2956H36.771V17.2953H30.658V30.2956Z" fill="#E6E6E6"/>
<path d="M29.3531 30.2956H36.2046V17.2953H29.3531V30.2956Z" fill="#F5F5F5"/>
<path d="M35.1597 29.4607V18.1304H30.3956V29.4607H35.1597Z" fill="white"/>
<path d="M41.9999 60C59.5728 60 73.8186 59.2888 73.8186 58.4115C73.8186 57.5342 59.5728 56.8229 41.9999 56.8229C24.4269 56.8229 10.1812 57.5342 10.1812 58.4115C10.1812 59.2888 24.4269 60 41.9999 60Z" fill="#F5F5F5"/>
<path d="M71.6408 24.9451L72.12 25.9218L69.6026 27.1287L69.125 26.152L71.6408 24.9451Z" fill="#FF8B7B"/>
<path d="M70.0012 18.5812L70.6248 19.4947L68.6375 21.4453L68.0122 20.5318L70.0012 18.5812Z" fill="#FF8B7B"/>
<path d="M70.6351 19.6591L69.3321 19.008C69.3107 18.9974 69.2942 18.981 69.2852 18.9613C69.2763 18.9417 69.2754 18.92 69.2828 18.8999L69.6275 17.9821C69.6361 17.9599 69.6504 17.9396 69.6695 17.9228C69.6885 17.9059 69.7118 17.893 69.7375 17.8849C69.7632 17.8768 69.7907 17.8738 69.8179 17.876C69.8452 17.8783 69.8715 17.8858 69.8949 17.8979C70.3101 18.114 70.6022 18.2881 71.129 18.5519C71.4572 18.7147 72.1432 19.0206 72.5929 19.2437C73.0425 19.4668 72.8407 19.8766 72.6323 19.8191C71.7034 19.5623 71.2488 19.6198 70.8468 19.69C70.7742 19.7025 70.6987 19.6915 70.6351 19.6591V19.6591Z" fill="#263238"/>
<path d="M71.9819 26.0324L71.058 25.1904C71.0411 25.1751 71.0309 25.1553 71.0291 25.1344C71.0273 25.1134 71.034 25.0925 71.0481 25.0753L71.6832 24.2796C71.6985 24.2601 71.7187 24.2438 71.7424 24.2319C71.7661 24.2201 71.7926 24.213 71.82 24.2112C71.8474 24.2095 71.8748 24.2131 71.9003 24.2218C71.9258 24.2305 71.9487 24.244 71.9671 24.2614C72.2954 24.5715 72.7549 25.0276 73.1733 25.4107C73.6657 25.8584 73.838 26.0085 74.4123 26.5334C74.7602 26.8505 74.4813 27.235 74.3024 27.1326C73.4819 26.6512 73.2045 26.3846 72.256 26.1643C72.152 26.1432 72.057 26.0975 71.9819 26.0324Z" fill="#263238"/>
<path d="M41.6718 30.3419C41.5241 31.1587 41.3649 31.9796 41.1958 32.7949L40.6871 35.2774C40.6141 35.5821 40.464 35.8695 40.2473 36.1194C40.0515 36.3415 39.8174 36.5369 39.5531 36.6989C39.0863 36.9733 38.5711 37.1818 38.0269 37.3164C37.5266 37.4444 37.0144 37.5355 36.4958 37.5886C36.2415 37.6153 35.9871 37.6322 35.7344 37.6462C35.4816 37.6602 35.2322 37.6644 34.9614 37.6574L34.9023 36.8645C35.3454 36.7874 35.8164 36.6975 36.2579 36.5839C36.6957 36.4777 37.1245 36.3459 37.5412 36.1896C37.9195 36.0531 38.2718 35.8691 38.5865 35.6437C38.7109 35.5528 38.8178 35.4458 38.9033 35.3265C38.9681 35.2332 39.01 35.1296 39.0264 35.022L39.092 34.4326C39.115 34.2221 39.1445 34.0116 39.1708 33.8053C39.2282 33.3843 39.2889 32.9718 39.3546 32.5578C39.4859 31.727 39.6385 30.9033 39.8157 30.0781L41.6718 30.3419Z" fill="#FF8B7B"/>
<path d="M41.8484 30.6454C41.8238 30.8587 41.7844 31.079 41.7384 31.2979C41.5988 31.9242 41.4152 32.5428 41.1887 33.1503L39.1866 32.6563C39.1866 32.6563 38.6943 31.0692 39.1866 29.8076C39.6789 28.546 41.1657 28.459 41.7335 29.4568C41.8911 29.7276 41.9058 30.1711 41.8484 30.6454Z" fill="#263238"/>
<path opacity="0.2" d="M41.8484 30.6454C41.8238 30.8587 41.7844 31.079 41.7384 31.2979C41.5988 31.9242 41.4152 32.5428 41.1887 33.1503L39.1866 32.6563C39.1866 32.6563 38.6943 31.0692 39.1866 29.8076C39.6789 28.546 41.1657 28.459 41.7335 29.4568C41.8911 29.7276 41.9058 30.1711 41.8484 30.6454Z" fill="white"/>
<path opacity="0.2" d="M41.8489 30.6459C41.8243 30.8593 41.7849 31.0796 41.7389 31.2985L40.9053 31.1582C40.9742 30.7947 41.4386 30.3316 41.8489 30.6459Z" fill="black"/>
<path d="M35.5607 36.7736L34.2085 36.8199L34.8026 38.0731C35.0564 38.0728 35.3034 38.003 35.5074 37.874C35.7115 37.7449 35.8619 37.5634 35.9365 37.356L35.5607 36.7736Z" fill="#FF8B7B"/>
<path d="M33.1968 37.4259L34.1896 38.0798L34.8017 38.0728L34.2077 36.8196L33.1968 37.4259Z" fill="#FF8B7B"/>
<path opacity="0.2" d="M69.6042 27.129L70.9006 26.5059L70.4214 25.5292L69.125 26.1522L69.6042 27.129Z" fill="black"/>
<path opacity="0.2" d="M68.0122 20.5305L68.6375 21.4441L69.7156 20.3874L68.8869 19.6717L68.0122 20.5305Z" fill="black"/>
<path d="M41.5682 30.9906C42.9434 30.5444 45.5921 29.8806 50.2018 29.3796L48.8775 23.8309C44.8421 23.8983 41.4927 24.635 36.832 25.8924C36.832 25.8924 37.2423 27.269 37.7215 28.0984C38.13 28.822 38.587 29.5248 39.0901 30.2034C39.1459 30.2735 39.2034 30.3437 39.2543 30.4097C39.511 30.7112 39.8772 30.9316 40.2957 31.0367C40.7142 31.1417 41.1615 31.1256 41.5682 30.9906Z" fill="#263238"/>
<path opacity="0.2" d="M41.5682 30.9906C42.9434 30.5444 45.5921 29.8806 50.2018 29.3796L48.8775 23.8309C44.8421 23.8983 41.4927 24.635 36.832 25.8924C36.832 25.8924 37.2423 27.269 37.7215 28.0984C38.13 28.822 38.587 29.5248 39.0901 30.2034C39.1459 30.2735 39.2034 30.3437 39.2543 30.4097C39.511 30.7112 39.8772 30.9316 40.2957 31.0367C40.7142 31.1417 41.1615 31.1256 41.5682 30.9906Z" fill="white"/>
<path d="M47.9624 23.5849L46.3135 23.7142L47.0081 30.1913L48.6571 30.062L47.9624 23.5849Z" fill="#263238"/>
<path d="M47.4732 27.2247L46.8266 27.2766C46.7854 27.2799 46.7439 27.2761 46.7044 27.2656C46.6649 27.2551 46.6282 27.238 46.5964 27.2153C46.5647 27.1926 46.5386 27.1647 46.5195 27.1334C46.5004 27.102 46.4888 27.0677 46.4852 27.0324V27.0324C46.4814 26.9973 46.4857 26.9619 46.4979 26.9282C46.5101 26.8945 46.53 26.8632 46.5563 26.8361C46.5827 26.809 46.6151 26.7866 46.6516 26.7702C46.6881 26.7538 46.7281 26.7437 46.7692 26.7405L47.4157 26.69C47.4986 26.6838 47.581 26.7058 47.6449 26.7513C47.7088 26.7967 47.7492 26.862 47.7571 26.9328V26.9328C47.7609 26.9679 47.7566 27.0033 47.7444 27.037C47.7322 27.0707 47.7124 27.102 47.686 27.1291C47.6596 27.1562 47.6272 27.1786 47.5907 27.195C47.5542 27.2114 47.5143 27.2215 47.4732 27.2247V27.2247Z" fill="white"/>
<path d="M47.6996 29.3798L47.053 29.4303C47.0119 29.4336 46.9705 29.4299 46.9311 29.4194C46.8917 29.409 46.8551 29.392 46.8234 29.3695C46.7917 29.3469 46.7655 29.3192 46.7463 29.288C46.7272 29.2568 46.7154 29.2226 46.7117 29.1875V29.1875C46.7044 29.1167 46.7301 29.0462 46.7833 28.9915C46.8365 28.9369 46.9128 28.9024 46.9956 28.8956L47.6422 28.8451C47.6832 28.8418 47.7246 28.8455 47.764 28.8559C47.8034 28.8664 47.84 28.8833 47.8718 28.9059C47.9035 28.9284 47.9297 28.9561 47.9488 28.9874C47.968 29.0186 47.9798 29.0527 47.9835 29.0879V29.0879C47.9873 29.123 47.983 29.1584 47.9708 29.1921C47.9586 29.2258 47.9388 29.2571 47.9124 29.2842C47.886 29.3113 47.8536 29.3337 47.8171 29.3501C47.7806 29.3665 47.7407 29.3766 47.6996 29.3798V29.3798Z" fill="white"/>
<path d="M47.3484 0H47.0645V24.2268H47.3484V0Z" fill="#263238"/>
<path opacity="0.2" d="M39.0654 26.1943C39.0654 26.1943 40.3422 25.668 41.0347 24.8345C40.549 24.9439 40.0506 25.0618 39.5397 25.1881L39.0654 26.1943Z" fill="black"/>
<path d="M35.0884 29.6243C35.9664 29.3815 37.5024 28.8244 37.7223 28.0989C37.7223 28.0989 38.6462 27.9024 39.4635 29.1598C40.3628 30.5435 39.0909 30.2025 39.0909 30.2025C38.3886 29.5485 37.7469 29.8797 37.2168 30.3035L35.0884 29.6243Z" fill="#FF8B7B"/>
<path opacity="0.2" d="M35.9556 29.9007L37.2159 30.302C37.3379 30.2019 37.4697 30.1109 37.6098 30.0298C37.3735 29.7646 36.7466 29.5443 36.3724 29.6818C36.2192 29.7328 36.0781 29.807 35.9556 29.9007V29.9007Z" fill="black"/>
<path d="M31.5675 29.1325C31.3312 28.8883 31.0752 28.8518 30.8027 28.9921C31.5379 29.5394 31.4854 30.9301 32.6506 31.2894C33.8157 31.6486 34.6888 30.4712 34.9694 30.0264C35.059 29.9003 35.0895 29.7499 35.0547 29.6054C35.4404 29.1381 33.9995 28.5164 34.4246 27.8962C34.889 27.2156 34.2867 26.8886 33.1117 26.6332C33.2807 27.3545 31.4493 28.3873 31.5675 29.1325Z" fill="#263238"/>
<path d="M35.0419 28.7962C36.1775 29.1976 36.8668 29.3828 37.2606 30.0592C37.8547 31.0752 36.8323 32.1431 35.5785 32.0407C34.4511 31.9481 32.7887 31.3081 32.7116 30.2009C32.6942 29.9571 32.7501 29.7135 32.8739 29.4933C32.9976 29.2731 33.1851 29.0836 33.4187 28.9429C33.6522 28.8021 33.9239 28.7148 34.208 28.6891C34.4921 28.6634 34.7792 28.7003 35.0419 28.7962Z" fill="#FF8B7B"/>
<path d="M35.5162 29.5257C34.927 29.6099 33.3024 29.7348 32.9249 28.7272C32.5475 27.7197 34.717 27.6453 34.7793 26.8173C35.7197 26.945 35.5326 27.3576 36.1365 28.02C37.1113 29.0977 36.5238 29.3812 35.5162 29.5257Z" fill="#263238"/>
<path d="M32.1535 30.7028C31.7776 30.3043 31.7497 29.1592 32.4357 28.2807C33.1217 27.4022 32.8969 28.2316 33.7748 27.8681C33.5746 28.407 33.8881 29.4749 33.6911 30.2369C33.4368 31.2291 32.7935 31.3848 32.1535 30.7028Z" fill="#263238"/>
<path d="M35.9081 28.8032C36.1731 28.9392 36.3647 29.1591 36.4414 29.415C36.5399 29.7546 36.1805 29.9146 35.8113 29.8108C35.4831 29.7168 35.0301 29.4277 35.0958 29.0909C35.1119 29.0175 35.1492 28.9488 35.2042 28.8909C35.2592 28.8329 35.3303 28.7876 35.4109 28.7591C35.4915 28.7305 35.5792 28.7196 35.666 28.7273C35.7528 28.735 35.836 28.7611 35.9081 28.8032V28.8032Z" fill="#FF8B7B"/>
<path d="M36.0917 29.1887C36.1026 29.2204 36.1022 29.2542 36.0905 29.2857C36.0789 29.3173 36.0566 29.3451 36.0264 29.3658C35.9963 29.3865 35.9596 29.3991 35.9211 29.4019C35.8825 29.4048 35.8439 29.3978 35.81 29.3818C35.7762 29.3658 35.7486 29.3416 35.7308 29.3123C35.7131 29.2829 35.7059 29.2497 35.7102 29.2168C35.7145 29.184 35.7302 29.1529 35.7552 29.1277C35.7801 29.1025 35.8133 29.0841 35.8505 29.075C35.9001 29.0628 35.9533 29.068 35.9985 29.0893C36.0437 29.1106 36.0772 29.1463 36.0917 29.1887V29.1887Z" fill="#263238"/>
<path d="M37.6442 31.2937C37.6344 31.2923 37.6257 31.2877 37.6199 31.2809C37.614 31.2741 37.6116 31.2656 37.613 31.2572C37.6945 30.799 37.5601 30.3317 37.2392 29.9582C36.9183 29.5846 36.4371 29.3351 35.9013 29.2645C35.8964 29.264 35.8916 29.2627 35.8872 29.2605C35.8829 29.2584 35.879 29.2556 35.876 29.2522C35.8729 29.2488 35.8707 29.2449 35.8694 29.2408C35.8681 29.2366 35.8678 29.2323 35.8685 29.228C35.8701 29.2197 35.8755 29.2123 35.8835 29.2073C35.8915 29.2023 35.9014 29.2002 35.9112 29.2014C36.4668 29.2744 36.9658 29.5329 37.2987 29.9202C37.6316 30.3074 37.7712 30.7919 37.6868 31.2671C37.6848 31.2752 37.6794 31.2825 37.6715 31.2874C37.6636 31.2923 37.6539 31.2946 37.6442 31.2937V31.2937Z" fill="#263238"/>
<path d="M37.5688 31.7848C37.5302 31.7802 37.4951 31.7631 37.471 31.7369C37.4468 31.7108 37.4354 31.6776 37.4392 31.6445L37.5015 31.2235C37.5065 31.1903 37.5264 31.1601 37.5571 31.1394C37.5878 31.1186 37.6268 31.109 37.6656 31.1126V31.1126C37.7046 31.1168 37.74 31.1338 37.7645 31.16C37.789 31.1862 37.8007 31.2195 37.7969 31.2529L37.7346 31.6739C37.7285 31.7069 37.708 31.7367 37.6772 31.7573C37.6465 31.7779 37.6077 31.7877 37.5688 31.7848V31.7848Z" fill="#263238"/>
<path d="M50.2046 29.3793C50.2046 29.3793 57.7256 32.2785 61.3983 31.5208C65.2171 30.7307 70.8197 26.967 70.8197 26.967L70.009 25.3125C70.009 25.3125 64.8101 28.0658 61.016 28.6538C56.8772 29.2881 52.5087 25.1764 49.3315 25.7321L50.2046 29.3793Z" fill="#263238"/>
<path opacity="0.2" d="M52.412 26.9329C52.9044 27.8492 55.617 28.4541 57.2056 28.179C55.7385 27.6878 54.2943 26.9623 52.9388 26.4193C52.5154 26.5231 52.2791 26.6859 52.412 26.9329Z" fill="black"/>
<path d="M49.7319 27.4105C49.7319 27.4105 56.9805 28.2918 60.2988 27.04C63.9321 25.6676 69.7087 20.9917 69.7087 20.9917L68.2744 19.674C68.2744 19.674 63.5694 22.8062 59.9049 23.8671C55.922 25.0192 51.9211 23.3058 48.8818 23.8306C49.384 25.9609 49.7319 27.4105 49.7319 27.4105Z" fill="#263238"/>
<path d="M70.0028 20.9947L68.1681 19.4847L67.6167 19.9787L69.5171 21.5981L70.0028 20.9947Z" fill="#263238"/>
<path opacity="0.2" d="M70.0028 20.9947L68.1681 19.4847L67.6167 19.9787L69.5171 21.5981L70.0028 20.9947Z" fill="white"/>
<path d="M70.9506 27.0963L70.0037 25.1976L69.2554 25.4643L70.3024 27.6534L70.9506 27.0963Z" fill="#263238"/>
<path opacity="0.2" d="M70.9506 27.0963L70.0037 25.1976L69.2554 25.4643L70.3024 27.6534L70.9506 27.0963Z" fill="white"/>
<path d="M34.7631 30.3957C34.8583 30.4237 34.9174 30.4883 34.8961 30.536C34.8747 30.5837 34.7812 30.609 34.686 30.5823C34.5908 30.5556 34.5334 30.4883 34.5547 30.442C34.5761 30.3957 34.6696 30.369 34.7631 30.3957Z" fill="#263238"/>
<path d="M34.3965 31.3096C34.4916 31.3377 34.5507 31.4022 34.5294 31.45C34.508 31.4977 34.4145 31.5229 34.3193 31.4949C34.2241 31.4668 34.1667 31.4022 34.188 31.3545C34.2094 31.3068 34.3029 31.2816 34.3965 31.3096Z" fill="#263238"/>
<path d="M34.5615 31.0333C34.8126 31.2144 35.0335 31.424 35.218 31.6564C35.2862 31.6145 35.343 31.5604 35.3843 31.4979C35.4257 31.4354 35.4507 31.3659 35.4575 31.2943L34.5615 31.0333Z" fill="#FF5652"/>
<path d="M35.8822 30.9351C35.8877 30.9979 35.8844 31.061 35.8723 31.1231C35.8719 31.1264 35.8708 31.1296 35.8689 31.1325C35.867 31.1353 35.8644 31.1378 35.8613 31.1398C35.8582 31.1418 35.8547 31.1432 35.8509 31.1439C35.8472 31.1447 35.8433 31.1448 35.8395 31.1442C35.8319 31.1431 35.8252 31.1396 35.8206 31.1344C35.816 31.1292 35.8139 31.1226 35.8149 31.1161C35.8379 31.0115 35.8315 30.9038 35.7961 30.8018C35.7607 30.6998 35.6974 30.6064 35.6114 30.5295C35.6063 30.5244 35.6035 30.518 35.6035 30.5113C35.6035 30.5046 35.6063 30.4981 35.6114 30.493C35.6169 30.4885 35.6243 30.486 35.6319 30.486C35.6396 30.486 35.6469 30.4885 35.6524 30.493C35.7887 30.612 35.8703 30.7689 35.8822 30.9351V30.9351Z" fill="#263238"/>
<path d="M34.5309 30.0082C34.5302 30.018 34.526 30.0274 34.519 30.0352C34.512 30.0429 34.5024 30.0487 34.4915 30.0517C34.4209 30.0691 34.3561 30.1008 34.3027 30.144C34.2493 30.1872 34.2088 30.2408 34.1847 30.3001C34.1837 30.3073 34.1809 30.3142 34.1765 30.3204C34.1722 30.3266 34.1663 30.3319 34.1593 30.336C34.1523 30.34 34.1444 30.3428 34.1361 30.344C34.1278 30.3453 34.1192 30.345 34.1111 30.3431C34.1029 30.3413 34.0953 30.338 34.0887 30.3335C34.0822 30.3289 34.0768 30.3232 34.0731 30.3167C34.0693 30.3103 34.0672 30.3032 34.0669 30.296C34.0666 30.2887 34.0682 30.2815 34.0714 30.2749C34.1008 30.1993 34.151 30.1309 34.2178 30.0754C34.2847 30.02 34.3662 29.9791 34.4554 29.9563C34.4702 29.9523 34.4863 29.9535 34.5001 29.9595C34.5139 29.9656 34.5244 29.976 34.5293 29.9886C34.5315 29.995 34.5321 30.0017 34.5309 30.0082V30.0082Z" fill="#263238"/>
<path d="M33.8736 31.5899C33.8725 31.6018 33.866 31.6129 33.8556 31.6208C33.8502 31.6255 33.8439 31.6292 33.8368 31.6317C33.8298 31.6342 33.8222 31.6355 33.8146 31.6355C33.8069 31.6355 33.7993 31.6342 33.7923 31.6317C33.7853 31.6292 33.7789 31.6255 33.7735 31.6208C33.7058 31.5661 33.6544 31.4983 33.6239 31.4231C33.5933 31.3478 33.5844 31.2674 33.5979 31.1886C33.5993 31.1821 33.6022 31.1759 33.6064 31.1703C33.6107 31.1648 33.6162 31.16 33.6226 31.1564C33.629 31.1527 33.6363 31.1502 33.6439 31.149C33.6515 31.1478 33.6593 31.1479 33.6669 31.1493C33.682 31.152 33.6953 31.1597 33.7039 31.1707C33.7125 31.1817 33.7157 31.1952 33.7128 31.2082C33.703 31.2707 33.7109 31.3342 33.7357 31.3936C33.7605 31.4529 33.8017 31.5063 33.8556 31.5492C33.8619 31.5545 33.8667 31.5609 33.8698 31.5679C33.873 31.5749 33.8742 31.5824 33.8736 31.5899V31.5899Z" fill="#263238"/>
<path d="M37.3525 25.3391C37.4461 25.1371 37.5331 24.9631 37.6332 24.7778C37.7333 24.5926 37.8317 24.42 37.9351 24.2418C38.1435 23.8895 38.3684 23.5401 38.6112 23.2005C38.8541 22.8609 39.115 22.5255 39.399 22.1985L39.6156 21.9544L39.8486 21.7172C39.9225 21.6372 40.0127 21.56 40.0915 21.4828L40.2162 21.3678L40.2474 21.3397L40.3015 21.2934C40.3394 21.2606 40.3794 21.2297 40.4213 21.2008C40.6787 21.0312 40.9718 20.9055 41.2845 20.8303C41.5322 20.7692 41.7844 20.7224 42.0394 20.69C42.5095 20.6297 42.9837 20.5964 43.459 20.5903C44.3765 20.5758 45.2939 20.6228 46.2028 20.7307L46.1684 21.5249C45.3035 21.5923 44.4223 21.6751 43.5788 21.7846C43.1671 21.8371 42.759 21.9083 42.3562 21.9979C42.175 22.0371 41.9973 22.0873 41.8245 22.148C41.7097 22.1838 41.6035 22.237 41.511 22.3052C41.511 22.3052 41.511 22.3052 41.511 22.3052C41.511 22.3052 41.511 22.2982 41.511 22.3052L41.488 22.3304L41.3961 22.4315C41.3338 22.4988 41.2714 22.5718 41.214 22.6378L41.0367 22.8497L40.8726 23.07C40.6495 23.3675 40.4328 23.6748 40.2293 23.992C40.0258 24.3091 39.8289 24.6319 39.6402 24.9602C39.545 25.123 39.4515 25.2872 39.3612 25.4514L39.1019 25.937L37.3525 25.3391Z" fill="#FF8B7B"/>
<path d="M36.8718 26.0217C36.4238 25.0857 38.8411 22.7688 38.8411 22.7688L40.6462 23.4943C40.6462 23.4943 40.492 24.9594 39.6009 26.0203C38.6655 27.1443 37.3805 27.084 36.8718 26.0217Z" fill="#263238"/>
<path opacity="0.2" d="M36.8718 26.0217C36.4238 25.0857 38.8411 22.7688 38.8411 22.7688L40.6462 23.4943C40.6462 23.4943 40.492 24.9594 39.6009 26.0203C38.6655 27.1443 37.3805 27.084 36.8718 26.0217Z" fill="white"/>
<path d="M71.0979 19.6776C71.1732 19.7093 71.2339 19.7617 71.2702 19.8264C71.2798 19.8497 71.2826 19.8747 71.2783 19.8992C71.274 19.9236 71.2628 19.9468 71.2456 19.9667C71.2369 19.9793 71.2244 19.9896 71.2094 19.9966C71.1943 20.0035 71.1773 20.0068 71.1603 20.006C71.006 19.999 70.7845 19.6454 70.7599 19.6061C70.7566 19.6019 70.7549 19.597 70.7549 19.592C70.7549 19.5871 70.7566 19.5822 70.7599 19.578C70.7634 19.5744 70.768 19.5717 70.7732 19.5702C70.7784 19.5687 70.784 19.5685 70.7894 19.5696C70.8967 19.5954 71.0002 19.6317 71.0979 19.6776V19.6776ZM71.1258 19.9457C71.1373 19.9517 71.1502 19.9555 71.1636 19.9569C71.1718 19.9569 71.1833 19.9569 71.1964 19.9387C71.2088 19.9254 71.217 19.9098 71.2205 19.8931C71.2239 19.8764 71.2224 19.8593 71.2161 19.8432C71.1865 19.7717 71.052 19.7029 70.8468 19.637C70.9155 19.7544 71.0102 19.8593 71.1258 19.9457V19.9457Z" fill="#00B39F"/>
<path d="M70.8003 19.5722C70.8003 19.5722 70.8085 19.5722 70.8118 19.5806C70.8873 19.6873 70.9628 19.9946 70.8709 20.0858C70.8558 20.0994 70.8358 20.1084 70.8141 20.1112C70.7924 20.114 70.7702 20.1105 70.7511 20.1013C70.7306 20.0936 70.7122 20.0824 70.697 20.0684C70.6817 20.0544 70.67 20.0379 70.6625 20.0199C70.5985 19.8711 70.7527 19.5989 70.7593 19.5834C70.7616 19.5794 70.7651 19.5761 70.7694 19.5736C70.7737 19.5711 70.7787 19.5697 70.7839 19.5694C70.7867 19.5688 70.7897 19.5688 70.7925 19.5692C70.7953 19.5697 70.798 19.5707 70.8003 19.5722ZM70.7626 20.0507H70.7757C70.8102 20.0634 70.8217 20.0507 70.8266 20.0507C70.8824 19.9974 70.8496 19.7785 70.7872 19.6522C70.7244 19.7603 70.7004 19.8819 70.7183 20.0016C70.7266 20.0216 70.7421 20.0388 70.7626 20.0507V20.0507Z" fill="#00B39F"/>
<path d="M72.4925 26.228C72.5719 26.2888 72.6247 26.371 72.6418 26.461C72.6429 26.4837 72.6374 26.5063 72.626 26.5269C72.6146 26.5474 72.5975 26.5652 72.5762 26.5789C72.5638 26.5876 72.5491 26.5936 72.5333 26.5963C72.5176 26.599 72.5013 26.5983 72.4859 26.5943C72.3218 26.5494 72.1659 26.0905 72.1478 26.033C72.1464 26.0281 72.1467 26.0229 72.1488 26.0181C72.1508 26.0134 72.1545 26.0093 72.1593 26.0063C72.1643 26.003 72.1703 26.0012 72.1766 26.0012C72.1828 26.0012 72.1889 26.003 72.1938 26.0063C72.301 26.0724 72.401 26.1466 72.4925 26.228V26.228ZM72.458 26.5227C72.4707 26.5349 72.4864 26.5445 72.504 26.5508C72.5092 26.5534 72.5151 26.5547 72.5212 26.5547C72.5272 26.5547 72.5332 26.5534 72.5384 26.5508C72.5528 26.542 72.5644 26.5304 72.5724 26.517C72.5804 26.5036 72.5845 26.4887 72.5844 26.4736C72.5844 26.3866 72.4498 26.2519 72.2299 26.1088C72.2783 26.2567 72.3554 26.3966 72.458 26.5227V26.5227Z" fill="#00B39F"/>
<path d="M72.1953 26.0144V26.0228C72.2478 26.1561 72.2544 26.4971 72.1362 26.5645C72.11 26.5799 72.064 26.5898 72.0017 26.5449C71.9798 26.5281 71.962 26.5078 71.9494 26.4852C71.9367 26.4626 71.9294 26.438 71.9278 26.4129C71.9147 26.2403 72.1346 26.0242 72.1444 26.0144C72.1487 26.0124 72.1535 26.0114 72.1584 26.0114C72.1632 26.0114 72.168 26.0124 72.1723 26.0144C72.1758 26.0127 72.1798 26.0118 72.1838 26.0118C72.1879 26.0118 72.1918 26.0127 72.1953 26.0144V26.0144ZM72.0312 26.4957L72.0443 26.507C72.0837 26.5364 72.1018 26.5266 72.1067 26.5238C72.1773 26.4831 72.1937 26.2333 72.1576 26.0846C72.0647 26.1759 72.0074 26.2897 71.9935 26.4101C71.9932 26.4417 72.0067 26.4722 72.0312 26.4957V26.4957Z" fill="#00B39F"/>
<path d="M45.855 21.4456L46.9233 22.0069L47.1203 20.6654C47.1203 20.6654 46.0864 20.3552 45.832 20.8057L45.855 21.4456Z" fill="#FF8B7B"/>
<path d="M48.2641 21.9649L48.356 20.8577L47.1203 20.671L46.9233 22.0126L48.2641 21.9649Z" fill="#FF8B7B"/>
<path d="M55.8371 41.3359H18.7275V43.0943H55.8371V41.3359Z" fill="#00B39F"/>
<path opacity="0.2" d="M55.8374 41.3359H46.1929V43.0943H55.8374V41.3359Z" fill="black"/>
<path d="M53.1587 43.0947H55.489V58.0119C55.489 58.1176 55.4399 58.2189 55.3525 58.2937C55.2651 58.3684 55.1466 58.4104 55.0229 58.4104H53.6297C53.5061 58.4104 53.3875 58.3684 53.3001 58.2937C53.2127 58.2189 53.1636 58.1176 53.1636 58.0119V43.0947H53.1587Z" fill="#00B39F"/>
<path opacity="0.2" d="M54.3262 43.0947H55.4897V58.0119C55.4897 58.1176 55.4406 58.2189 55.3532 58.2937C55.2658 58.3684 55.1472 58.4104 55.0236 58.4104H54.3278V43.0947H54.3262Z" fill="black"/>
<path d="M19.0771 43.0947H21.4025V58.0119C21.4025 58.1176 21.3534 58.2189 21.266 58.2937C21.1786 58.3684 21.0601 58.4104 20.9365 58.4104H19.5432C19.4196 58.4104 19.3011 58.3684 19.2137 58.2937C19.1263 58.2189 19.0771 58.1176 19.0771 58.0119V43.0947Z" fill="#00B39F"/>
<path opacity="0.2" d="M20.2393 43.0947H21.4028V58.0119C21.4028 58.1176 21.3537 58.2189 21.2663 58.2937C21.1789 58.3684 21.0603 58.4104 20.9367 58.4104H20.2393V43.0947Z" fill="black"/>
<path d="M27.5586 43.0947H29.884V58.0119C29.884 58.1176 29.8349 58.2189 29.7475 58.2937C29.6601 58.3684 29.5415 58.4104 29.4179 58.4104H28.0247C27.9635 58.4104 27.9028 58.4001 27.8463 58.3801C27.7898 58.36 27.7384 58.3307 27.6951 58.2937C27.6518 58.2567 27.6175 58.2127 27.5941 58.1644C27.5706 58.116 27.5586 58.0642 27.5586 58.0119V43.0947V43.0947Z" fill="#00B39F"/>
<path opacity="0.2" d="M28.7217 43.0947H29.8852V58.0119C29.8852 58.1176 29.8361 58.2189 29.7487 58.2937C29.6613 58.3684 29.5427 58.4104 29.4191 58.4104H28.7233V43.0947H28.7217Z" fill="black"/>
<path d="M53.6514 45.6462H20.8218V49.0942H53.6514V45.6462Z" fill="#00B39F"/>
<path opacity="0.2" d="M53.6515 45.6462H46.1929V49.0942H53.6515V45.6462Z" fill="black"/>
<path d="M44.6807 43.0947H47.0061V58.0119C47.0061 58.1176 46.957 58.2189 46.8696 58.2937C46.7822 58.3684 46.6636 58.4104 46.54 58.4104H45.1467C45.0231 58.4104 44.9046 58.3684 44.8172 58.2937C44.7298 58.2189 44.6807 58.1176 44.6807 58.0119V43.0947V43.0947Z" fill="#00B39F"/>
<path opacity="0.2" d="M45.8433 43.0947H47.0068V58.0119C47.0068 58.1176 46.9577 58.2189 46.8703 58.2937C46.7829 58.3684 46.6643 58.4104 46.5407 58.4104H45.8449V43.0947H45.8433Z" fill="black"/>
<path d="M24.465 39.9626C24.4888 39.8633 24.5009 39.7622 24.5011 39.6609H20.9531C20.9521 39.9538 21.0505 40.2408 21.2363 40.4869C21.4222 40.733 21.6875 40.9277 22.0002 41.0474C22.3129 41.1671 22.6594 41.2067 22.9979 41.1614C23.3364 41.116 23.6522 40.9877 23.9071 40.792C24.0357 40.8554 24.1885 40.8726 24.3319 40.8397C24.4029 40.8234 24.4695 40.7953 24.5278 40.757C24.5861 40.7187 24.6351 40.671 24.6718 40.6165C24.7085 40.5621 24.7324 40.502 24.742 40.4396C24.7515 40.3773 24.7467 40.314 24.7276 40.2532C24.7086 40.1925 24.6757 40.1356 24.6309 40.0857C24.5862 40.0359 24.5303 39.994 24.4667 39.9626H24.465ZM24.1811 40.705C24.1316 40.7049 24.0826 40.6968 24.0367 40.6811C24.2101 40.5198 24.3406 40.3283 24.4191 40.1198C24.4826 40.1618 24.5291 40.2199 24.552 40.2857C24.5749 40.3515 24.5731 40.4219 24.5468 40.4868C24.5206 40.5517 24.4712 40.6079 24.4055 40.6476C24.3399 40.6872 24.2614 40.7083 24.1811 40.7078V40.705Z" fill="#00B39F"/>
<path opacity="0.3" d="M24.465 39.9626C24.4888 39.8633 24.5009 39.7622 24.5011 39.6609H20.9531C20.9521 39.9538 21.0505 40.2408 21.2363 40.4869C21.4222 40.733 21.6875 40.9277 22.0002 41.0474C22.3129 41.1671 22.6594 41.2067 22.9979 41.1614C23.3364 41.116 23.6522 40.9877 23.9071 40.792C24.0357 40.8554 24.1885 40.8726 24.3319 40.8397C24.4029 40.8234 24.4695 40.7953 24.5278 40.757C24.5861 40.7187 24.6351 40.671 24.6718 40.6165C24.7085 40.5621 24.7324 40.502 24.742 40.4396C24.7515 40.3773 24.7467 40.314 24.7276 40.2532C24.7086 40.1925 24.6757 40.1356 24.6309 40.0857C24.5862 40.0359 24.5303 39.994 24.4667 39.9626H24.465ZM24.1811 40.705C24.1316 40.7049 24.0826 40.6968 24.0367 40.6811C24.2101 40.5198 24.3406 40.3283 24.4191 40.1198C24.4826 40.1618 24.5291 40.2199 24.552 40.2857C24.5749 40.3515 24.5731 40.4219 24.5468 40.4868C24.5206 40.5517 24.4712 40.6079 24.4055 40.6476C24.3399 40.6872 24.2614 40.7083 24.1811 40.7078V40.705Z" fill="#FAFAFA"/>
<path d="M20.5298 41.0201C20.5298 41.1942 21.5144 41.3359 22.7272 41.3359C23.9399 41.3359 24.9229 41.1956 24.9229 41.0201H20.5298Z" fill="#00B39F"/>
<path opacity="0.6" d="M20.5298 41.0201C20.5298 41.1942 21.5144 41.3359 22.7272 41.3359C23.9399 41.3359 24.9229 41.1956 24.9229 41.0201H20.5298Z" fill="#FAFAFA"/>
<path d="M34.4505 36.3108H25.4443L26.6111 41.0554H35.619L34.4505 36.3108Z" fill="#263238"/>
<path d="M34.2852 36.3108H25.2773L26.4441 41.0554V41.3361H35.452V41.0554L34.2852 36.3108Z" fill="#00B39F"/>
<path opacity="0.5" d="M34.2852 36.3108H25.2773L26.4441 41.0554V41.3361H35.452V41.0554L34.2852 36.3108Z" fill="#FAFAFA"/>
<path d="M35.4525 41.3345H38.5049V41.0539H35.4525V41.3345Z" fill="#263238"/>
<path d="M54.7921 40.3049H44.0283V41.3364H54.7921V40.3049Z" fill="#00B39F"/>
<path opacity="0.8" d="M51.318 40.3049H44.0283V41.3364H51.318V40.3049Z" fill="#FAFAFA"/>
<path opacity="0.5" d="M51.3164 41.3345H54.7905V40.3031H51.3164V41.3345Z" fill="#FAFAFA"/>
<path opacity="0.4" d="M51.8053 40.6165H54.9692V40.5534H51.8053V40.6165Z" fill="#00B39F"/>
<path opacity="0.4" d="M51.5871 40.7997H54.3228V40.7366H51.5871V40.7997Z" fill="#00B39F"/>
<path opacity="0.4" d="M52.1232 41.0476H54.8589V40.9845H52.1232V41.0476Z" fill="#00B39F"/>
<path opacity="0.1" d="M49.6573 41.0457H43.7593V41.1089H49.6573V41.0457Z" fill="#00B39F"/>
<path opacity="0.1" d="M50.3957 40.7872H45.2969V40.8503H50.3957V40.7872Z" fill="#00B39F"/>
<path opacity="0.1" d="M49.0846 40.4523H43.9858V40.5155H49.0846V40.4523Z" fill="#00B39F"/>
</svg>
