<svg width="60" height="60" viewBox="0 0 60 60" fill="none" xmlns="http://www.w3.org/2000/svg">
<g clip-path="url(#clip0_9505_14687)">
<path d="M17 28H43C43.2652 28 43.5196 27.8946 43.7071 27.7071C43.8946 27.5196 44 27.2652 44 27C44 26.7348 43.8946 26.4804 43.7071 26.2929C43.5196 26.1054 43.2652 26 43 26H17C16.7348 26 16.4804 26.1054 16.2929 26.2929C16.1054 26.4804 16 26.7348 16 27C16 27.2652 16.1054 27.5196 16.2929 27.7071C16.4804 27.8946 16.7348 28 17 28V28ZM17 36H43C43.2652 36 43.5196 35.8946 43.7071 35.7071C43.8946 35.5196 44 35.2652 44 35C44 34.7348 43.8946 34.4804 43.7071 34.2929C43.5196 34.1054 43.2652 34 43 34H17C16.7348 34 16.4804 34.1054 16.2929 34.2929C16.1054 34.4804 16 34.7348 16 35C16 35.2652 16.1054 35.5196 16.2929 35.7071C16.4804 35.8946 16.7348 36 17 36V36ZM31 50H17C16.7348 50 16.4804 50.1054 16.2929 50.2929C16.1054 50.4804 16 50.7348 16 51C16 51.2652 16.1054 51.5196 16.2929 51.7071C16.4804 51.8946 16.7348 52 17 52H31C31.2652 52 31.5196 51.8946 31.7071 51.7071C31.8946 51.5196 32 51.2652 32 51C32 50.7348 31.8946 50.4804 31.7071 50.2929C31.5196 50.1054 31.2652 50 31 50ZM29 20H43C43.2652 20 43.5196 19.8946 43.7071 19.7071C43.8946 19.5196 44 19.2652 44 19C44 18.7348 43.8946 18.4804 43.7071 18.2929C43.5196 18.1054 43.2652 18 43 18H29C28.7348 18 28.4804 18.1054 28.2929 18.2929C28.1054 18.4804 28 18.7348 28 19C28 19.2652 28.1054 19.5196 28.2929 19.7071C28.4804 19.8946 28.7348 20 29 20Z" fill="#00B39F"/>
<path d="M55.708 58.292L50 52.586C51.2838 51.0065 51.9888 49.0354 51.998 47C51.998 43.888 50.408 41.14 48 39.524V13C47.9999 12.7353 47.8949 12.4814 47.708 12.294L35.708 0.294C35.6151 0.200835 35.5048 0.12691 35.3833 0.0764606C35.2618 0.0260109 35.1315 2.78694e-05 35 0L8 0C5.794 0 4 1.794 4 4V56C4 58.206 5.794 60 8 60H44C46.206 60 48 58.206 48 56V54.476C48.21 54.336 48.388 54.156 48.586 54L54.292 59.708C54.3846 59.8016 54.4949 59.8759 54.6164 59.9266C54.7379 59.9774 54.8683 60.0035 55 60.0035C55.1317 60.0035 55.2621 59.9774 55.3836 59.9266C55.5051 59.8759 55.6154 59.8016 55.708 59.708C55.8011 59.6151 55.875 59.5048 55.9254 59.3833C55.9758 59.2618 56.0018 59.1315 56.0018 59C56.0018 58.8685 55.9758 58.7382 55.9254 58.6167C55.875 58.4952 55.8011 58.3849 55.708 58.292ZM49.998 47C49.998 50.86 46.858 54 42.998 54C39.138 54 36 50.86 36 47C36 43.14 39.14 40 43 40C46.86 40 49.998 43.14 49.998 47ZM36 3.414L44.588 12H38C36.898 12 36 11.102 36 10V3.414ZM46 56C46 57.102 45.102 58 44 58H8C6.898 58 6 57.102 6 56V4C6 3.46957 6.21071 2.96086 6.58579 2.58579C6.96086 2.21071 7.46957 2 8 2H34V10C34 12.206 35.794 14 38 14H46V38.554C45.0394 38.1979 44.0244 38.0105 43 38C39.886 38 37.14 39.59 35.524 42H13C12.7348 42 12.4804 42.1054 12.2929 42.2929C12.1054 42.4804 12 42.7348 12 43C12 43.2652 12.1054 43.5196 12.2929 43.7071C12.4804 43.8946 12.7348 44 13 44H34.552C34.1966 44.9607 34.0099 45.9757 34 47C34 51.962 38.038 56 43 56C44.0245 55.9902 45.0396 55.8027 46 55.446V56Z" fill="#00B39F"/>
</g>
<defs>
<clipPath id="clip0_9505_14687">
<rect width="60" height="60" fill="white"/>
</clipPath>
</defs>
</svg>
