<svg width="2500" height="1465" viewBox="0 0 2500 1465" fill="none" xmlns="http://www.w3.org/2000/svg">
<g clip-path="url(#clip0_23378_3763)">
<path d="M712.643 532.061C712.643 562.208 715.902 586.652 721.606 604.577C728.124 622.503 736.272 642.058 747.679 663.243C751.753 669.761 753.383 676.279 753.383 681.983C753.383 690.131 748.494 698.279 737.902 706.427L686.57 740.648C679.237 745.537 671.903 747.981 665.385 747.981C657.237 747.981 649.089 743.907 640.941 736.574C629.534 724.352 619.757 711.315 611.609 698.279C603.461 684.427 595.313 668.946 586.35 650.206C522.796 725.167 442.946 762.647 346.8 762.647C278.358 762.647 223.767 743.092 183.842 703.982C143.917 664.872 123.547 612.725 123.547 547.542C123.547 478.284 147.991 422.063 197.693 379.694C247.396 337.325 313.394 316.14 397.318 316.14C425.021 316.14 453.539 318.585 483.686 322.659C513.833 326.733 544.796 333.251 577.387 340.584V281.104C577.387 219.18 564.351 175.996 539.092 150.737C513.019 125.478 469.02 113.256 406.28 113.256C377.763 113.256 348.43 116.516 318.283 123.849C288.135 131.182 258.803 140.145 230.285 151.552C217.248 157.255 207.471 160.514 201.767 162.144C196.064 163.774 191.99 164.588 188.73 164.588C177.323 164.588 171.62 156.44 171.62 139.33V99.4049C171.62 86.3682 173.249 76.5907 177.323 70.8871C181.397 65.1835 188.73 59.48 200.138 53.7764C228.655 39.1101 262.877 26.8882 302.802 17.1107C342.727 6.51835 385.096 1.62959 429.91 1.62959C526.87 1.62959 597.757 23.629 643.386 67.6279C688.199 111.627 711.014 178.44 711.014 268.067V532.061H712.643ZM381.837 655.909C408.725 655.909 436.428 651.021 465.76 641.243C495.093 631.466 521.166 613.54 543.166 589.096C556.203 573.615 565.98 556.504 570.869 536.949C575.758 517.394 579.017 493.765 579.017 466.062V431.841C555.388 426.137 530.129 421.249 504.056 417.989C477.982 414.73 452.724 413.101 427.465 413.101C372.874 413.101 332.949 423.693 306.061 445.692C279.173 467.692 266.136 498.654 266.136 539.394C266.136 577.689 275.913 606.207 296.283 625.762C315.838 646.132 344.356 655.909 381.837 655.909ZM1036.12 743.907C1021.45 743.907 1011.67 741.463 1005.15 735.759C998.636 730.87 992.932 719.463 988.044 703.982L796.567 74.1463C791.678 57.8504 789.234 47.2581 789.234 41.5545C789.234 28.5178 795.752 21.1846 808.789 21.1846H888.639C904.12 21.1846 914.712 23.629 920.416 29.3326C926.934 34.2214 931.823 45.6285 936.712 61.1096L1073.6 600.503L1200.7 61.1096C1204.78 44.8137 1209.67 34.2214 1216.19 29.3326C1222.7 24.4438 1234.11 21.1846 1248.78 21.1846H1313.96C1329.44 21.1846 1340.03 23.629 1346.55 29.3326C1353.07 34.2214 1358.77 45.6285 1362.03 61.1096L1490.77 607.022L1631.73 61.1096C1636.62 44.8137 1642.32 34.2214 1648.03 29.3326C1654.55 24.4438 1665.14 21.1846 1679.8 21.1846H1755.58C1768.62 21.1846 1775.95 27.703 1775.95 41.5545C1775.95 45.6285 1775.13 49.7025 1774.32 54.5912C1773.51 59.48 1771.88 65.9983 1768.62 74.9611L1572.25 704.797C1567.36 721.093 1561.66 731.685 1555.14 736.574C1548.62 741.463 1538.03 744.722 1524.18 744.722H1454.11C1438.62 744.722 1428.03 742.278 1421.51 736.574C1415 730.87 1409.29 720.278 1406.03 703.982L1279.74 178.44L1154.26 703.167C1150.19 719.463 1145.3 730.056 1138.78 735.759C1132.26 741.463 1120.86 743.907 1106.19 743.907H1036.12ZM2083.13 765.907C2040.76 765.907 1998.39 761.018 1957.65 751.24C1916.91 741.463 1885.13 730.87 1863.95 718.649C1850.91 711.315 1841.95 703.167 1838.69 695.834C1835.43 688.501 1833.8 680.353 1833.8 673.02V631.466C1833.8 614.355 1840.32 606.207 1852.54 606.207C1857.43 606.207 1862.32 607.022 1867.21 608.651C1872.1 610.281 1879.43 613.54 1887.58 616.799C1915.28 629.021 1945.43 638.799 1977.2 645.317C2009.8 651.835 2041.57 655.095 2074.16 655.095C2125.5 655.095 2165.42 646.132 2193.12 628.206C2220.83 610.281 2235.49 584.207 2235.49 550.801C2235.49 527.987 2228.16 509.246 2213.49 493.765C2198.83 478.284 2171.12 464.433 2131.2 451.396L2013.05 414.73C1953.57 395.99 1909.58 368.287 1882.69 331.621C1855.8 295.77 1841.95 255.845 1841.95 213.476C1841.95 179.255 1849.28 149.107 1863.95 123.034C1878.61 96.9605 1898.17 74.1463 1922.61 56.2208C1947.06 37.4805 1974.76 23.629 2007.35 13.8515C2039.94 4.07397 2074.16 0 2110.02 0C2127.94 0 2146.68 0.814794 2164.61 3.25918C2183.35 5.70356 2200.46 8.96274 2217.57 12.2219C2233.86 16.2959 2249.34 20.3699 2264.01 25.2586C2278.68 30.1474 2290.08 35.0362 2298.23 39.9249C2309.64 46.4433 2317.79 52.9616 2322.68 60.2948C2327.57 66.8131 2330.01 75.7759 2330.01 87.183V125.478C2330.01 142.589 2323.49 151.552 2311.27 151.552C2304.75 151.552 2294.16 148.293 2280.31 141.774C2233.86 120.59 2181.72 109.997 2123.87 109.997C2077.42 109.997 2040.76 117.33 2015.5 132.811C1990.24 148.293 1977.2 171.922 1977.2 205.328C1977.2 228.142 1985.35 247.697 2001.65 263.179C2017.94 278.66 2048.09 294.141 2091.27 307.992L2206.98 344.658C2265.64 363.398 2308.01 389.472 2333.27 422.878C2358.53 456.285 2370.75 494.58 2370.75 536.949C2370.75 571.986 2363.42 603.763 2349.56 631.466C2334.9 659.169 2315.34 683.612 2290.08 703.167C2264.83 723.537 2234.68 738.204 2199.64 748.796C2162.98 760.203 2124.68 765.907 2083.13 765.907Z" fill="#252F3E"/>
<path fill-rule="evenodd" clip-rule="evenodd" d="M2237.12 1161.9C1969.05 1359.89 1579.58 1465 1244.7 1465C775.381 1465 352.503 1291.45 33.1032 1003.01C7.84458 980.197 30.6588 949.235 60.8062 967.161C406.279 1167.6 832.416 1289 1273.22 1289C1570.62 1289 1897.35 1227.08 2198.01 1099.97C2242.83 1079.6 2281.12 1129.3 2237.12 1161.9Z" fill="#FF9900"/>
<path fill-rule="evenodd" clip-rule="evenodd" d="M2348.75 1034.79C2314.53 990.79 2122.24 1013.6 2035.05 1024.2C2008.98 1027.46 2004.91 1004.64 2028.54 987.531C2181.72 879.978 2433.49 910.94 2462.82 946.791C2492.15 983.457 2454.67 1235.23 2311.27 1355.82C2289.27 1374.56 2268.08 1364.78 2277.86 1340.34C2310.45 1259.67 2382.97 1077.97 2348.75 1034.79Z" fill="#FF9900"/>
</g>
<defs>
<clipPath id="clip0_23378_3763">
<rect width="2500" height="1465" fill="white"/>
</clipPath>
</defs>
</svg>
