<svg width="612" height="612" viewBox="0 0 612 612" fill="none" xmlns="http://www.w3.org/2000/svg">
<path d="M409.558 0.000219522C421.911 10.6144 423.116 15.7033 415.104 30.823C400.303 59.0188 394.078 90.9296 397.196 122.621C397.022 125.31 397.773 127.978 399.322 130.182C400.873 132.387 403.13 133.995 405.72 134.74C430.072 143.658 451.755 158.624 468.729 178.23C470.035 180.146 471.919 181.594 474.107 182.362C476.297 183.129 478.672 183.176 480.889 182.496C511.787 176.226 540.174 161.046 562.547 138.829C564.704 135.911 567.626 133.646 570.988 132.281C574.351 130.917 578.024 130.507 581.607 131.096C595.398 134.447 599.073 150.311 588.281 161.167C564.899 185.247 535.489 202.62 503.112 211.477C494.536 213.789 493.725 216.373 496.611 224.365C511.219 264.82 508.233 302.768 477.968 335.785C474.487 339.585 475.457 341.877 477.653 345.367C506.843 390.588 524.97 442.051 530.562 495.584C533.014 520.349 533.283 545.193 523.337 568.779C513.774 591.452 498.059 606.938 472.544 610.325C472.169 610.374 471.921 611.369 471.611 611.922H440.585C440.16 609.091 437.538 609.391 435.799 608.932C403.161 599.613 374.142 580.559 352.617 554.315C347.933 548.974 345.616 548.656 340.002 552.997C322.103 567.706 300.867 577.799 278.158 582.387C255.449 586.975 231.959 585.919 209.753 579.313C198.143 576.15 187.731 565.83 175.528 569.223C163.617 573.635 152.152 579.168 141.286 585.745C133.918 589.436 126.695 593.458 119.141 596.713C116.634 597.794 110.968 601.219 112.58 593.055C116.366 573.882 119.945 554.667 123.76 535.5C124.403 532.717 124.33 529.82 123.549 527.074C122.767 524.327 121.303 521.826 119.292 519.798C81.1112 474.74 71.4254 424.332 92.9456 368.864C95.7841 361.549 93.9959 359.42 87.419 356.339C55.5447 342.699 28.8346 319.277 11.1511 289.455C6.69786 281.593 3.67839 272.918 0 264.615V235.674C2.51658 230.198 4.66128 224.512 7.61458 219.283C19.825 197.666 39.6048 185.68 62.3209 178.2C119.417 160.153 180.48 158.79 238.324 174.27C253.307 177.931 261.116 177.215 270.957 163.35C290.815 135.379 321.183 125.436 354.83 125.046C359.575 124.99 364.037 126.325 363.341 118.027C360.646 82.5416 368.022 47.0169 384.617 15.536C387.429 9.39137 391.737 4.04983 397.148 0L409.558 0.000219522ZM52.0064 220.741C33.573 232.749 28.9057 250.363 38.8465 269.374C40.671 272.864 41.8893 274.702 46.345 272.671C56.2602 268.15 66.477 264.288 76.5709 260.159C83.7344 258.754 90.7049 256.497 97.3344 253.441C87.3961 245.058 79.0857 234.918 72.8184 223.527C66.0901 211.662 66.0423 211.679 54.2905 218.828C53.481 219.406 52.7173 220.045 52.0064 220.741ZM493.853 550.335C494.718 546.669 495.716 543.028 496.407 539.329C496.938 536.472 496.852 533.928 492.849 533.375C477.305 530.876 462.389 525.402 448.917 517.257V538.912C447.72 549.408 446.762 559.94 445.213 570.382C444.526 575.007 445.301 576.709 450.363 577.596C471.946 581.379 487.028 572.174 493.853 550.335ZM413.331 563.359C415.032 564.515 416.676 565.765 418.444 566.81C429.285 573.216 430.548 572.683 431.873 560.46C434.122 540.297 434.099 519.942 431.804 499.782C430.268 482.254 426.799 464.952 421.463 448.185C410.229 468.628 392.535 484.771 371.147 494.085C356.402 500.729 356.4 500.729 365.636 514.206C365.857 514.468 366.108 514.705 366.381 514.916C377.904 534.607 394.009 551.225 413.331 563.359ZM63.7817 300.196C80.1513 315.886 100.208 327.202 122.101 333.1C123.971 333.829 125.796 334.707 127.716 335.259C139.767 338.736 139.554 338.692 140.697 326.416C142.433 305.377 150.443 285.339 163.69 268.901C165.627 266.486 169.515 264.983 168.857 260.324C133.717 260.917 98.9528 267.658 66.1392 280.246C61.1931 282.195 53.0407 283.063 52.6603 287.841C52.2596 292.873 58.7237 297.122 63.7817 300.196ZM403.805 446.955C409.495 439.158 416.271 430.531 413.475 420.96C403.857 389.769 390.626 359.81 374.047 331.694C369.528 338.461 363.92 342.561 361.879 349.381C353.375 361.856 347.478 375.921 344.543 390.733C336.395 419.725 337.463 450.533 347.593 478.892C349.108 482.885 349.974 486.374 356.01 483.977C375.588 476.211 392.881 465.761 403.805 446.955ZM283.266 289.809C288.392 285.263 292.398 279.592 294.971 273.243C267.348 267.054 239.332 262.789 211.121 260.473C204.504 259.679 197.796 260.823 191.814 263.766C185.834 266.71 180.836 271.326 177.427 277.054C161.822 293.293 156.56 313.463 155.062 335.166C154.666 340.909 157.983 341.06 162.073 341.089C184.769 341.731 207.338 337.485 228.249 328.636C249.16 319.789 267.924 306.547 283.266 289.809ZM250.478 551.362C276.896 550.976 302.338 541.322 322.36 524.084C325.775 521.246 328.401 518.882 325.207 513.902C322.361 509.469 321.878 504.705 313.738 505.675C280.627 509.848 247.091 502.465 218.794 484.773C199.894 473.977 183.618 459.136 171.126 441.313C158.635 423.489 150.239 403.124 146.54 381.676C145.04 373.286 140.384 372.972 134.111 371.48C126.447 369.656 126.239 375.537 124.592 379.331C119.346 391.33 116.311 404.178 115.634 417.258C111.893 489.003 187.411 551.135 250.478 551.362ZM497.749 511.223C494.509 462.789 479.923 415.797 455.165 374.043C445.951 356.718 434.224 340.851 420.364 326.959C417.153 323.578 413.115 321.093 408.65 319.753C404.184 318.412 399.445 318.261 394.903 319.315C388.058 320.784 386.287 322.775 390.32 329.987C417.021 375.728 435.059 426.002 443.53 478.284C444.362 485.551 447.211 492.442 451.755 498.176C456.3 503.907 462.358 508.255 469.245 510.725C476.205 513.615 483.379 515.962 490.7 517.746C497.585 519.741 498.637 517.042 497.749 511.223ZM154.965 198.116C132.578 197.779 110.239 200.292 88.4862 205.596C83.4122 206.818 81.4943 208.202 84.5342 213.642C91.2111 226.905 101.215 238.211 113.568 246.452C116.89 248.897 121.024 249.968 125.115 249.445C181.125 241.518 238.127 244.23 293.133 257.44C301.293 259.283 302.712 256.941 302.146 249.818C300.915 234.298 289.813 227.547 277.504 222.292C238.644 206.259 197.003 198.045 154.965 198.116ZM295.598 431.856C303.59 433.782 306.21 429.863 306.216 420.842C306.666 401.602 310.267 382.565 316.878 364.49C322.801 347.002 322.966 347.069 307.934 335.489C305.65 333.959 303.535 332.192 301.62 330.218C297.86 325.76 294.812 326.445 290.564 329.964C272.133 345.487 250.796 357.184 227.794 364.37C220.2 366.695 220.309 370.495 222.032 376.468C227.35 391.997 237.204 405.576 250.318 415.449C263.432 425.323 279.204 431.037 295.598 431.856Z" fill="black"/>
<path d="M250.478 551.363C187.411 551.132 111.894 489.002 115.634 417.257C116.311 404.177 119.346 391.329 124.592 379.33C126.239 375.534 126.447 369.655 134.111 371.479C140.384 372.971 145.04 373.285 146.54 381.675C150.239 403.123 158.635 423.488 171.126 441.312C183.617 459.135 199.895 473.976 218.794 484.772C247.091 502.464 280.627 509.847 313.738 505.674C321.878 504.704 322.361 509.468 325.207 513.901C328.401 518.881 325.775 521.245 322.36 524.083C302.338 541.321 276.896 550.975 250.478 551.363Z" fill="#FBE04C"/>
<path d="M497.748 511.223C498.635 517.042 497.583 519.741 490.7 517.744C483.377 515.962 476.204 513.615 469.244 510.725C462.357 508.254 456.3 503.907 451.756 498.174C447.21 492.442 444.36 485.551 443.528 478.284C435.058 426 417.019 375.728 390.319 329.986C386.285 322.774 388.056 320.784 394.901 319.315C399.443 318.261 404.183 318.412 408.648 319.753C413.114 321.093 417.153 323.578 420.362 326.959C434.222 340.851 445.95 356.717 455.164 374.043C479.921 415.797 494.508 462.789 497.748 511.223ZM154.964 198.116C197.001 198.045 238.642 206.259 277.504 222.292C289.811 227.547 300.913 234.298 302.145 249.818C302.711 256.939 301.292 259.283 293.131 257.44C238.128 244.23 181.124 241.518 125.113 249.445C121.023 249.967 116.889 248.896 113.567 246.452C101.214 238.211 91.2098 226.905 84.5329 213.641C81.4931 208.202 83.4106 206.818 88.4848 205.596C110.238 200.292 132.577 197.779 154.964 198.116Z" fill="#DEF0FC"/>
<path d="M295.596 431.856C279.202 431.038 263.43 425.321 250.316 415.449C237.202 405.575 227.349 391.998 222.03 376.468C220.307 370.496 220.198 366.696 227.792 364.37C250.794 357.185 272.132 345.488 290.563 329.964C294.81 326.445 297.859 325.76 301.619 330.218C303.533 332.192 305.648 333.957 307.932 335.489C322.964 347.068 322.8 347.002 316.877 364.49C310.265 382.565 306.664 401.601 306.214 420.842C306.209 429.863 303.589 433.78 295.596 431.856Z" fill="#FBE04C"/>
<path d="M283.267 289.809C267.925 306.547 249.162 319.789 228.251 328.637C207.339 337.486 184.77 341.732 162.074 341.089C157.984 341.06 154.667 340.909 155.063 335.166C156.561 313.463 161.823 293.294 177.43 277.055C213.06 277.554 248.538 281.83 283.267 289.809ZM403.807 446.955C392.882 465.761 375.59 476.211 356.011 483.978C349.975 486.374 349.109 482.886 347.594 478.892C337.464 450.534 336.397 419.725 344.544 390.734C347.48 375.921 353.376 361.857 361.881 349.382C363.868 352.549 366.06 355.611 367.813 358.904C382.698 386.989 394.755 416.485 403.807 446.955Z" fill="#DEF0FC"/>
<path d="M63.7799 300.196C58.722 297.123 52.2577 292.873 52.6584 287.841C53.0388 283.064 61.1914 282.196 66.1373 280.247C98.9508 267.659 133.715 260.917 168.856 260.324C169.513 264.983 165.626 266.486 163.688 268.902C150.441 285.34 142.431 305.377 140.695 326.416C139.552 338.693 139.765 338.737 127.714 335.26C125.794 334.707 123.969 333.829 122.099 333.101C122.913 315.228 126.668 297.614 133.214 280.964C109.293 284.142 85.9269 290.614 63.7799 300.196ZM366.379 514.916C366.106 514.706 365.855 514.469 365.633 514.207C356.398 500.729 356.4 500.729 371.145 494.085C392.533 484.771 410.227 468.628 421.461 448.185C426.797 464.95 430.266 482.255 431.802 499.783C434.097 519.942 434.12 540.297 431.871 560.46C430.546 572.683 429.283 573.217 418.441 566.81C416.674 565.766 415.03 564.515 413.329 563.36C416.642 541.257 416.756 518.793 413.672 496.658C412.958 489.683 410.003 491.651 406.502 494.405C394.388 503.468 380.821 510.405 366.379 514.916Z" fill="#4BADE9"/>
<path d="M366.379 514.915C380.82 510.404 394.39 503.467 406.503 494.404C410.007 491.652 412.96 489.682 413.673 496.657C416.758 518.792 416.643 541.256 413.331 563.359C394.009 551.224 377.904 534.606 366.379 514.915ZM63.7812 300.195C85.9284 290.613 109.294 284.141 133.215 280.963C126.669 297.613 122.914 315.227 122.1 333.1C100.207 327.201 80.1507 315.885 63.7812 300.195Z" fill="#DEF0FC"/>
<path d="M283.267 289.809C248.538 281.83 213.061 277.554 177.43 277.055C180.838 271.325 185.836 266.71 191.817 263.767C197.798 260.824 204.505 259.68 211.122 260.474C239.333 262.79 267.349 267.054 294.972 273.243C292.399 279.593 288.393 285.263 283.267 289.809ZM403.806 446.956C394.755 416.486 382.698 386.989 367.813 358.904C366.059 355.611 363.87 352.549 361.881 349.382C363.921 342.562 369.529 338.461 374.05 331.693C390.627 359.811 403.86 389.77 413.476 420.961C416.272 430.531 409.496 439.158 403.806 446.956Z" fill="#4BADE9"/>
<path d="M493.856 550.335C487.03 572.174 471.948 581.378 450.366 577.594C445.303 576.708 444.529 575.006 445.215 570.382C446.765 559.937 447.723 549.405 448.92 538.913C463.193 545.093 478.365 548.948 493.856 550.335ZM76.5739 260.159C66.4799 264.288 56.263 268.147 46.3478 272.668C41.8919 274.701 40.674 272.864 38.8495 269.373C28.9087 250.363 33.5759 232.749 52.0075 220.74C58.3208 234.96 66.5895 248.227 76.5739 260.159Z" fill="#DEF0FC"/>
<path d="M76.5741 260.159C66.5897 248.226 58.321 234.959 52.0078 220.74C52.7195 220.046 53.4837 219.405 54.2938 218.827C66.0454 211.679 66.0932 211.661 72.8215 223.526C79.0888 234.917 87.3992 245.057 97.3375 253.44C90.708 256.496 83.7377 258.753 76.5741 260.159ZM493.856 550.334C478.365 548.948 463.195 545.092 448.92 538.913C448.92 532.059 448.92 525.208 448.92 517.254C462.392 525.401 477.307 530.875 492.852 533.374C496.855 533.927 496.941 536.471 496.41 539.328C495.719 543.027 494.721 546.668 493.856 550.334Z" fill="#4BADE9"/>
</svg>
