<svg id="Layer_1" data-name="Layer 1" xmlns="http://www.w3.org/2000/svg" viewBox="0 0 1600 1600"><defs><style>.cls-1{fill:#3c494f;}.cls-2{fill:#00d3a9;}.cls-3{fill:#00b39f;}</style></defs><polygon class="cls-1" points="265.05 1324.66 265.05 1332.66 265.05 1370.33 265.05 1416.27 265.05 1483.34 443.6 1483.34 443.6 1445.67 302.72 1445.67 302.72 1416.27 302.72 1408 410.95 1408 410.95 1370.33 302.72 1370.33 302.72 1332.66 443.6 1332.66 443.6 1294.99 265.05 1294.99 265.05 1324.66"/><path class="cls-1" d="M690.76,1434.11a47.1,47.1,0,0,1-3.9,19.09,48.39,48.39,0,0,1-10.67,15.69,51.5,51.5,0,0,1-15.7,10.55,48,48,0,0,1-19.21,3.9H465v-39.68H641.28a9.44,9.44,0,0,0,9.54-9.55V1418.8a9.43,9.43,0,0,0-9.54-9.54H514.46a47.29,47.29,0,0,1-19.08-3.89,50.15,50.15,0,0,1-26.49-26.5,47.26,47.26,0,0,1-3.89-19.09v-15.31a48.12,48.12,0,0,1,3.89-19.21,50.41,50.41,0,0,1,26.49-26.37,47.13,47.13,0,0,1,19.08-3.9h176.3v39.93H514.46a9.46,9.46,0,0,0-9.54,9.55v15.31a9.43,9.43,0,0,0,9.54,9.54H641.28a48,48,0,0,1,19.21,3.9,50.66,50.66,0,0,1,26.37,26.37,48,48,0,0,1,3.9,19.21Z"/><path class="cls-1" d="M928.32,1483.34H892.41v-74.08H752.34v74.08H716.43v-114h176V1295h35.91Zm-176-131.7H716.43V1295h35.91Z"/><path class="cls-1" d="M236.08,1483.34H196.15V1346a10.63,10.63,0,0,0-.88-4.27,11.23,11.23,0,0,0-2.38-3.51,11.42,11.42,0,0,0-3.52-2.39,10.63,10.63,0,0,0-4.27-.88H.53V1295H185.1a49.16,49.16,0,0,1,19.72,4,50.47,50.47,0,0,1,27.24,27.25,49.07,49.07,0,0,1,4,19.71Zm-195.63,0H.53V1334.92H40.45Zm97.69,0H98.21v-127.5h39.93Z"/><path class="cls-1" d="M1191.14,1483.34h-39.93V1346a10.63,10.63,0,0,0-.88-4.27,11.26,11.26,0,0,0-2.39-3.51,11.38,11.38,0,0,0-3.51-2.39,10.7,10.7,0,0,0-4.27-.88H955.58V1295h184.58a49.11,49.11,0,0,1,19.71,4,50.44,50.44,0,0,1,27.25,27.25,49.24,49.24,0,0,1,4,19.71Zm-195.63,0H955.58V1334.92h39.93Zm97.69,0h-39.93v-127.5h39.93Z"/><polygon class="cls-1" points="1290.44 1294.99 1215.1 1483.34 1258.07 1483.34 1309.27 1351.5 1345.76 1445.67 1283.16 1445.67 1269.11 1483.34 1403.44 1483.34 1328.11 1294.99 1290.44 1294.99"/><path class="cls-1" d="M1567.85,1405.2h2.7a28.81,28.81,0,0,0,28.92-29.13l-.06-19.58-.05-13.5-.07-19.58a28.81,28.81,0,0,0-29.13-28.92h-2.7l-108,.38h-.67L1423,1295l.66,188.34,37.8-.14-1.21-152.56,96.54-.34,0,12.83.05,12.83,0,12.82-77.63.27.13,36.46"/><polygon class="cls-2" points="810.27 1051.48 810.27 1093.71 952.49 1072.52 810.27 1051.48"/><polygon class="cls-2" points="810.27 1102.55 810.27 1144.99 953.79 1123.87 810.27 1102.55"/><polygon class="cls-3" points="789.79 1093.42 789.79 1051.83 649.32 1072.56 789.79 1093.42"/><path class="cls-3" d="M508,1144.84c27.54,11.4,64.86,21.07,109,28.22V1128.6Z"/><polygon class="cls-3" points="789.79 1144.79 789.79 1102.86 648.98 1123.84 789.79 1144.79"/><polygon class="cls-2" points="637.47 1170.42 780.07 1149.43 637.47 1128.21 637.47 1170.42"/><polygon class="cls-3" points="963.54 1170.64 963.54 1128.5 821.15 1149.46 963.54 1170.64"/><path class="cls-3" d="M1103,1140c23.7-11.38,38-24.24,40.28-37.91L994.9,1123.89Z"/><polygon class="cls-2" points="984.02 1119.42 1127.12 1098.36 984.02 1077.18 984.02 1119.42"/><polygon class="cls-3" points="963.54 1068.08 963.54 1026.2 821.82 1047.11 963.54 1068.08"/><polygon class="cls-3" points="963.54 1119.23 963.54 1076.96 821.49 1098.13 963.54 1119.23"/><path class="cls-3" d="M800,1186.65h0Z"/><polygon class="cls-2" points="637.47 1076.88 637.47 1119.46 780.57 1098.14 637.47 1076.88"/><path class="cls-3" d="M789.79,1009.79c-54.39.41-105.6,4.08-150.81,10.26l150.81,22.32Z"/><polygon class="cls-2" points="637.47 1025.91 637.47 1068.23 780.69 1047.1 637.47 1025.91"/><path class="cls-3" d="M617,1023.34c-44.11,7.16-81.44,16.83-109,28.23l109,16.19Z"/><path class="cls-2" d="M962.6,1020.26c-45.58-6.31-97.34-10-152.33-10.47v33Z"/><path class="cls-2" d="M456.63,1101.31c1.89,14.07,16.53,27.32,41.09,39l110.36-16.45Z"/><path class="cls-2" d="M497.7,1056.12c-24.44,11.61-39.05,24.79-41,38.79l151.59-22.37Z"/><path class="cls-3" d="M638.7,1176.31c45.28,6.21,96.59,9.89,151.09,10.3v-32.54Z"/><path class="cls-2" d="M1092.33,1051.68c-27.37-11.37-64.47-21-108.31-28.19v44.33Z"/><path class="cls-2" d="M984,1172.91c44.11-7.21,81.39-16.94,108.8-28.4L984,1128.35Z"/><path class="cls-3" d="M1143.37,1094.68c-2.11-13.87-16.61-26.92-40.77-38.44L993.47,1072.5Z"/><path class="cls-2" d="M810.27,1186.61c54.36-.41,105.55-4.07,150.75-10.25l-150.75-22.44Z"/><polygon class="cls-3" points="616.99 1119.08 616.99 1077.33 476.1 1098.12 616.99 1119.08"/><path class="cls-2" d="M798.5,930.92c-28.18-51.46-56.21-98.13-79.93-146.89-49.74-102.24-98.86-204.84-144.91-308.77C550.78,423.63,535.77,369.12,542,310.47c10.66-100.26,89.55-193.08,187.92-217.8,139.7-35.1,271,34.56,317.84,170.71,20.14,58.48,12,117-8,174.65-40.42,116.57-96.21,226.09-152.84,335.2-24.09,46.41-50.26,91.73-75.59,137.49C808.31,916.16,804.67,921.26,798.5,930.92ZM801,529.39c102.7-.87,187.91-86.94,186.91-188.81-1-103.17-87-186.81-191.82-186.5C698.76,154.37,610.17,243,611.17,339,612.27,445.44,696.8,530.26,801,529.39Z"/></svg>