<svg id="Layer_1" data-name="Layer 1" xmlns="http://www.w3.org/2000/svg" viewBox="0 0 400 400"><defs><style>.cls-1{fill:#00d3a9;}.cls-2{fill:#00b39f;}</style></defs><polygon class="cls-1" points="203.49 341.54 203.49 355.9 251.84 348.7 203.49 341.54"/><polygon class="cls-1" points="203.49 358.91 203.49 373.34 252.29 366.15 203.49 358.91"/><polygon class="cls-2" points="196.53 355.8 196.53 341.66 148.77 348.71 196.53 355.8"/><path class="cls-2" d="M100.73,373.29c9.37,3.87,22.06,7.16,37.05,9.59V367.77Z"/><polygon class="cls-2" points="196.53 373.27 196.53 359.01 148.65 366.14 196.53 373.27"/><polygon class="cls-1" points="144.74 381.98 193.22 374.85 144.74 367.63 144.74 381.98"/><polygon class="cls-2" points="255.6 382.06 255.6 367.73 207.19 374.86 255.6 382.06"/><path class="cls-2" d="M303,371.62c8.06-3.86,12.92-8.24,13.7-12.88l-50.47,7.42Z"/><polygon class="cls-1" points="262.56 364.64 311.22 357.48 262.56 350.28 262.56 364.64"/><polygon class="cls-2" points="255.6 347.19 255.6 332.95 207.42 340.06 255.6 347.19"/><polygon class="cls-2" points="255.6 364.58 255.6 350.21 207.31 357.4 255.6 364.58"/><polygon class="cls-2" points="200.01 387.5 200.02 387.5 200 387.5 200.01 387.5"/><polygon class="cls-1" points="144.74 350.18 144.74 364.66 193.4 357.41 144.74 350.18"/><path class="cls-2" d="M196.53,327.37a405.78,405.78,0,0,0-51.27,3.49l51.27,7.59Z"/><polygon class="cls-1" points="144.74 332.85 144.74 347.24 193.44 340.06 144.74 332.85"/><path class="cls-2" d="M137.78,332c-15,2.43-27.69,5.72-37,9.6l37.05,5.5Z"/><path class="cls-1" d="M255.28,330.93a403.41,403.41,0,0,0-51.79-3.56v11.2Z"/><path class="cls-1" d="M83.26,358.48c.64,4.79,5.62,9.29,14,13.26l37.52-5.59Z"/><path class="cls-1" d="M97.22,343.12c-8.31,3.95-13.28,8.43-14,13.19l51.54-7.6Z"/><path class="cls-2" d="M145.16,384a403.28,403.28,0,0,0,51.37,3.51V376.42Z"/><path class="cls-1" d="M299.39,341.61c-9.31-3.86-21.92-7.14-36.83-9.58V347.1Z"/><path class="cls-1" d="M262.56,382.83c15-2.45,27.67-5.76,37-9.65l-37-5.5Z"/><path class="cls-2" d="M316.74,356.23c-.72-4.71-5.65-9.15-13.86-13.07l-37.1,5.53Z"/><path class="cls-1" d="M203.49,387.49A405.45,405.45,0,0,0,254.74,384l-51.25-7.63Z"/><polygon class="cls-2" points="137.78 364.53 137.78 350.33 89.88 357.4 137.78 364.53"/><path class="cls-1" d="M199.49,300.56c-9.58-17.5-19.11-33.37-27.17-49.95-16.91-34.75-33.62-69.64-49.27-105-7.78-17.56-12.88-36.09-10.76-56,3.62-34.08,30.44-65.64,63.89-74,47.49-11.93,92.12,11.75,108.06,58,6.84,19.88,4.07,39.77-2.73,59.38-13.74,39.63-32.71,76.87-52,114-8.19,15.78-17.09,31.19-25.7,46.75C202.82,295.54,201.59,297.27,199.49,300.56ZM200.33,164c34.91-.29,63.88-29.56,63.54-64.19-.34-35.08-29.59-63.51-65.21-63.41-33.08.1-63.2,30.21-62.86,62.85C136.17,135.5,164.91,164.34,200.33,164Z"/></svg>