<svg width="612" height="672" viewBox="0 0 612 672" fill="none" xmlns="http://www.w3.org/2000/svg">
<path d="M71.4305 329.69C83.2756 288.232 104.992 250.723 132.63 221.11C122.76 213.213 87.224 185.574 85.2498 161.884C83.2756 124.374 118.811 0 118.811 0C118.811 0 6.28212 136.219 0.359544 191.497C-5.56304 234.929 63.5337 319.819 71.4305 329.69ZM525.495 325.742C525.495 327.716 527.469 327.716 525.495 325.742C537.34 311.923 602.488 232.955 596.566 191.497C588.669 136.219 478.114 0 478.114 0C478.114 0 515.624 124.374 511.675 161.884C509.701 183.6 476.14 211.239 464.295 219.135C493.908 248.748 513.65 284.284 525.495 325.742Z" fill="#BFBFBF"/>
<path d="M525.493 327.716C513.648 286.258 491.932 248.748 464.293 219.135C420.861 173.729 361.635 146.09 298.461 146.09V292.18C314.254 292.18 326.1 306 326.1 319.819C326.1 321.793 326.1 323.767 326.1 325.742C324.125 339.561 312.28 349.432 298.461 349.432V404.709V663.329H304.384C304.384 663.329 363.609 576.464 397.171 550.8C434.68 521.187 527.467 485.651 527.467 485.651V327.716H525.493Z" fill="#566366"/>
<path d="M298.459 404.709V349.432C284.64 349.432 274.769 339.561 270.821 327.716C270.821 325.742 268.846 323.767 268.846 319.819C268.846 304.026 280.692 292.18 296.485 292.18V146.09C233.311 146.09 174.085 173.729 130.653 219.135C103.014 248.748 81.2983 286.258 69.4531 327.716V487.626C69.4531 487.626 162.24 523.161 199.75 552.774C231.337 576.464 292.537 661.355 292.537 661.355H298.459V404.709Z" fill="#7D9199"/>
<path d="M270.82 321.794C270.82 323.768 270.82 327.717 272.795 329.691C276.743 341.536 286.614 351.407 300.433 351.407C314.253 351.407 326.098 341.536 328.072 327.717C328.072 325.743 328.072 323.768 328.072 321.794C328.072 306.001 316.227 294.155 300.433 294.155C282.665 292.181 270.82 306.001 270.82 321.794Z" fill="white"/>
</svg>
