<?xml version="1.0" standalone="no"?><!DOCTYPE svg PUBLIC "-//W3C//DTD SVG 1.1//EN" "http://www.w3.org/Graphics/SVG/1.1/DTD/svg11.dtd"><svg t="1622009568606" class="icon" viewBox="0 0 1024 1024" version="1.1" xmlns="http://www.w3.org/2000/svg" p-id="548" xmlns:xlink="http://www.w3.org/1999/xlink" width="200" height="200"><defs><style type="text/css"></style></defs><path d="M189.866667 622.933333v78.933334l328.533333 189.866666 206.933333-119.466666 21.333334 36.266666L518.4 938.666667 149.333333 725.333333v-102.4h40.533334zM518.4 166.4c19.2 0 34.133333 14.933333 34.133333 34.133333 0 14.933333-10.666667 27.733333-25.6 32v61.866667c10.666667 2.133333 19.2 12.8 23.466667 23.466667l204.8 25.6c4.266667-12.8 17.066667-21.333333 32-21.333334 19.2 0 34.133333 14.933333 34.133333 34.133334 0 19.2-14.933333 34.133333-34.133333 34.133333h-4.266667l-76.8 189.866667c8.533333 6.4 14.933333 17.066667 14.933334 27.733333 0 4.266667 0 8.533333-2.133334 10.666667l44.8 25.6c6.4-6.4 14.933333-10.666667 25.6-10.666667 19.2 0 34.133333 14.933333 34.133334 34.133333s-14.933333 34.133333-34.133334 34.133334c-19.2 0-34.133333-14.933333-34.133333-34.133334v-8.533333l-46.933333-25.6c-4.266667 4.266667-12.8 6.4-21.333334 6.4-4.266667 0-10.666667 0-14.933333-2.133333l-128 164.266666c4.266667 6.4 6.4 12.8 6.4 21.333334 0 19.2-14.933333 34.133333-34.133333 34.133333s-34.133333-14.933333-34.133334-34.133333c0-8.533333 2.133333-14.933333 6.4-21.333334L362.666667 637.866667c-4.266667 2.133333-8.533333 2.133333-12.8 2.133333-8.533333 0-17.066667-4.266667-23.466667-8.533333l-44.8 25.6c0 2.133333 2.133333 6.4 2.133333 8.533333 0 19.2-14.933333 34.133333-34.133333 34.133333s-36.266667-14.933333-36.266667-34.133333 14.933333-34.133333 34.133334-34.133333c8.533333 0 19.2 4.266667 23.466666 10.666666l44.8-25.6c0-4.266667-2.133333-6.4-2.133333-10.666666 0-10.666667 4.266667-21.333333 12.8-27.733334l-76.8-189.866666h-2.133333c-19.2 0-34.133333-14.933333-34.133334-34.133334 0-19.2 14.933333-34.133333 34.133334-34.133333 14.933333 0 25.6 8.533333 32 21.333333l204.8-25.6c4.266667-10.666667 12.8-21.333333 25.6-23.466666v-61.866667c-14.933333-4.266667-25.6-17.066667-25.6-32 0-17.066667 14.933333-32 34.133333-32z m0 635.733333c-10.666667 0-21.333333 8.533333-21.333333 21.333334 0 10.666667 8.533333 21.333333 21.333333 21.333333s21.333333-8.533333 21.333333-21.333333c-2.133333-12.8-10.666667-21.333333-21.333333-21.333334z m136.533333-183.466666H379.733333c-2.133333 4.266667-2.133333 6.4-6.4 8.533333l130.133334 162.133333c4.266667-2.133333 8.533333-2.133333 12.8-2.133333 4.266667 0 8.533333 0 12.8 2.133333l128-164.266666c2.133333 0 0-4.266667-2.133334-6.4z m21.333334-441.6l211.2 121.6v426.666666L810.666667 770.133333l-21.333334-36.266666 55.466667-32V322.133333l-192-110.933333 23.466667-34.133333z m-428.8 469.333333c-10.666667 0-21.333333 8.533333-21.333334 21.333333s8.533333 21.333333 21.333334 21.333334 21.333333-8.533333 21.333333-21.333334-10.666667-21.333333-21.333333-21.333333z m541.866666 0c-10.666667 0-21.333333 8.533333-21.333333 21.333333s8.533333 21.333333 21.333333 21.333334c10.666667 0 21.333333-8.533333 21.333334-21.333334s-10.666667-21.333333-21.333334-21.333333z m-102.4-59.733333c-10.666667 0-21.333333 8.533333-21.333333 21.333333s8.533333 21.333333 21.333333 21.333333c10.666667 0 21.333333-8.533333 21.333334-21.333333s-8.533333-21.333333-21.333334-21.333333z m-337.066666 0c-10.666667 0-21.333333 8.533333-21.333334 21.333333s8.533333 21.333333 21.333334 21.333333c10.666667 0 21.333333-8.533333 21.333333-21.333333s-10.666667-21.333333-21.333333-21.333333z m168.533333-226.133334c-4.266667 0-8.533333 0-10.666667-2.133333l-132.266666 224c4.266667 4.266667 6.4 10.666667 8.533333 17.066667h270.933333c0-6.4 4.266667-12.8 8.533334-17.066667l-132.266667-226.133333c-4.266667 4.266667-8.533333 4.266667-12.8 4.266666z m-34.133333-25.6l-202.666667 25.6c-2.133333 10.666667-6.4 19.2-14.933333 23.466667l76.8 189.866667h4.266666c4.266667 0 8.533333 0 10.666667 2.133333L490.666667 352c-2.133333-6.4-4.266667-10.666667-6.4-17.066667z m59.733333 14.933334L676.266667 576c4.266667-2.133333 6.4-2.133333 10.666666-2.133333h4.266667L768 384c-6.4-6.4-12.8-12.8-12.8-23.466667l-202.666667-25.6c-2.133333 4.266667-4.266667 10.666667-8.533333 14.933334zM518.4 85.333333l91.733333 53.333334-21.333333 36.266666-70.4-40.533333-328.533333 187.733333v224H149.333333V298.666667L518.4 85.333333z m268.8 249.6c-10.666667 0-21.333333 8.533333-21.333333 21.333334s8.533333 21.333333 21.333333 21.333333 21.333333-8.533333 21.333333-21.333333-10.666667-21.333333-21.333333-21.333334z m-537.6 0c-10.666667 0-21.333333 8.533333-21.333333 21.333334s8.533333 21.333333 21.333333 21.333333c10.666667 0 21.333333-8.533333 21.333333-21.333333s-10.666667-21.333333-21.333333-21.333334z m268.8-27.733333c-10.666667 0-21.333333 8.533333-21.333333 21.333333 0 10.666667 8.533333 21.333333 21.333333 21.333334s21.333333-8.533333 21.333333-21.333334c-2.133333-12.8-10.666667-21.333333-21.333333-21.333333z m0-128c-10.666667 0-21.333333 8.533333-21.333333 21.333333s8.533333 21.333333 21.333333 21.333334 21.333333-8.533333 21.333333-21.333334-10.666667-21.333333-21.333333-21.333333z" fill="#FF6A00" p-id="549"></path></svg>