<svg width="41" height="48" viewBox="0 0 41 48" fill="none" xmlns="http://www.w3.org/2000/svg">
<path d="M3.69995 25.1001H1.69995V33.7001H3.69995V25.1001Z" fill="#EF9337"/>
<path d="M38.5 15.4004H36.5V23.1004H38.5V15.4004Z" fill="#EF9337"/>
<path d="M38.5 25.1001H36.5V33.7001H38.5V25.1001Z" fill="#EF9337"/>
<path d="M30.7999 9.5L31.7999 7.7L37.5 10.8L36.5 12.6L30.7999 9.5ZM21.2 4.3L22.2 2.5L28.2999 5.8L27.2999 7.6L21.2 4.3Z" fill="#EF9337"/>
<path d="M21.3 24.3003H19.3V32.2003H21.3V24.3003Z" fill="#EF9337"/>
<path d="M3.90002 12.8L2.90002 11L8.80002 7.8L9.80002 9.6L3.90002 12.8ZM13.3 7.7L12.3 5.9L17.6 3L18.6 4.8L13.3 7.7Z" fill="#EF9337"/>
<path d="M18.7 22.2004L13.4 19.4004L14.3 17.6004L19.6 20.4004L18.7 22.2004ZM9.8 17.5004L4.5 14.7004L5.4 12.9004L10.7 15.7004L9.8 17.5004Z" fill="#EF9337"/>
<path d="M22.6 22.0002L21.7 20.2002L27.0999 17.6002L28 19.4002L22.6 22.0002ZM31.5999 17.6002L30.7 15.8002L36.0999 13.2002L37 15.0002L31.5999 17.6002Z" fill="#EF9337"/>
<path d="M18.1 45.7L12.1 42.5L13 40.7L19 43.9L18.1 45.7ZM9.10005 41.1L3.80005 38.3L4.70005 36.5L10 39.3L9.10005 41.1Z" fill="#EF9337"/>
<path d="M3.69995 15.4004H1.69995V23.1004H3.69995V15.4004Z" fill="#EF9337"/>
<path d="M21.3 35.3003H19.3V43.2003H21.3V35.3003Z" fill="#EF9337"/>
<path d="M2.7 16.2001C2 16.2001 1.3 15.9001 0.8 15.4001C0.3 14.9001 0 14.2001 0 13.5001C0 12.8001 0.3 12.1001 0.8 11.6001C1.8 10.6001 3.6 10.6001 4.6 11.6001C5.1 12.1001 5.4 12.8001 5.4 13.5001C5.4 14.2001 5.1 14.9001 4.6 15.4001C4.1 15.9001 3.4 16.2001 2.7 16.2001ZM2.7 12.8001C2.5 12.8001 2.3 12.9001 2.2 13.0001C2.1 13.1001 2 13.3001 2 13.5001C2 13.7001 2.1 13.9001 2.2 14.0001C2.5 14.3001 2.9 14.3001 3.2 14.0001C3.3 13.9001 3.4 13.7001 3.4 13.5001C3.4 13.3001 3.3 13.1001 3.2 13.0001C3.1 12.9001 2.9 12.8001 2.7 12.8001Z" fill="#EF9337"/>
<path d="M2.7 38.6C2 38.6 1.3 38.3 0.8 37.8C0.3 37.3 0 36.6 0 35.9C0 35.2 0.3 34.5 0.8 34C1.8 33 3.6 33 4.6 34C5.1 34.5 5.4 35.2 5.4 35.9C5.4 36.6 5.1 37.3 4.6 37.8C4.1 38.3 3.4 38.6 2.7 38.6ZM2.7 35.2C2.5 35.2 2.3 35.3 2.2 35.4C2.1 35.5 2 35.7 2 35.9C2 36.1 2.1 36.3 2.2 36.4C2.5 36.7 2.9 36.7 3.2 36.4C3.3 36.3 3.4 36.1 3.4 35.9C3.4 35.7 3.3 35.5 3.2 35.4C3.1 35.3 2.9 35.2 2.7 35.2Z" fill="#EF9337"/>
<path d="M20.3 47.6003C19.6 47.6003 18.9 47.3003 18.4 46.8003C17.9 46.3003 17.6 45.6003 17.6 44.9003C17.6 44.2003 17.9 43.5003 18.4 43.0003C19.5 41.9003 21.2 41.9003 22.2 43.0003C23.3 44.1003 23.3 45.8003 22.2 46.8003C21.6 47.3003 21 47.6003 20.3 47.6003ZM20.3 44.1003C20.1 44.1003 19.9 44.2003 19.8 44.3003C19.5 44.6003 19.5 45.0003 19.8 45.3003C20.1 45.6003 20.5 45.6003 20.8 45.3003C21.1 45.0003 21.1 44.6003 20.8 44.3003C20.6 44.2003 20.4 44.1003 20.3 44.1003Z" fill="#EF9337"/>
<path d="M20.3 25.1003C19.6 25.1003 18.9 24.8003 18.4 24.3003C17.9 23.8003 17.6 23.1003 17.6 22.4003C17.6 21.7003 17.9 21.0003 18.4 20.5003C19.5 19.4003 21.2 19.4003 22.2 20.5003C23.3 21.6003 23.3 23.3003 22.2 24.3003C21.6 24.9003 21 25.1003 20.3 25.1003ZM20.3 21.7003C20.1 21.7003 19.9 21.8003 19.8 21.9003C19.5 22.2003 19.5 22.6003 19.8 22.9003C20.1 23.2003 20.5 23.2003 20.8 22.9003C21.1 22.6003 21.1 22.2003 20.8 21.9003C20.6 21.8003 20.4 21.7003 20.3 21.7003Z" fill="#EF9337"/>
<path d="M37.6 38.6C36.9 38.6 36.2 38.3 35.7 37.8C34.6 36.7 34.6 35 35.7 34C36.7 33 38.5 33 39.5 34C40 34.5 40.3 35.2 40.3 35.9C40.3 36.6 40 37.3 39.5 37.8C39 38.3 38.3 38.6 37.6 38.6ZM37.6 35.2C37.4 35.2 37.2 35.3 37.1 35.4C36.8 35.7 36.8 36.1 37.1 36.4C37.4 36.7 37.8 36.7 38.1 36.4C38.4 36.1 38.4 35.7 38.1 35.4C38 35.3 37.8 35.2 37.6 35.2Z" fill="#EF9337"/>
<path d="M37.6 16.2001C36.9 16.2001 36.2 15.9001 35.7 15.4001C34.6 14.3001 34.6 12.6001 35.7 11.6001C36.7 10.6001 38.5 10.6001 39.5 11.6001C40.6 12.7001 40.6 14.4001 39.5 15.4001C39 15.9001 38.3 16.2001 37.6 16.2001ZM37.6 12.8001C37.4 12.8001 37.2 12.9001 37.1 13.0001C36.8 13.3001 36.8 13.7001 37.1 14.0001C37.4 14.3001 37.8 14.3001 38.1 14.0001C38.4 13.7001 38.4 13.3001 38.1 13.0001C38 12.9001 37.8 12.8001 37.6 12.8001Z" fill="#EF9337"/>
<path d="M20.3 6.0002C19.6 6.0002 18.9 5.70019 18.4 5.20019C17.9 4.70019 17.6 4.0002 17.6 3.3002C17.6 2.6002 17.9 1.9002 18.4 1.4002C19.5 0.300195 21.2 0.300195 22.2 1.4002C23.3 2.5002 23.3 4.20019 22.2 5.20019C21.6 5.70019 21 6.0002 20.3 6.0002ZM20.3 2.6002C20.1 2.6002 19.9 2.7002 19.8 2.8002C19.5 3.1002 19.5 3.5002 19.8 3.8002C20.1 4.1002 20.5 4.1002 20.8 3.8002C21.1 3.5002 21.1 3.1002 20.8 2.8002C20.6 2.6002 20.4 2.6002 20.3 2.6002Z" fill="#EF9337"/>
<path d="M21.6 44L27.4 41L28.3 42.8L22.5 45.8L21.6 44ZM30.3 39.5L36 36.5L36.9 38.3L31.2 41.3L30.3 39.5Z" fill="#EF9337"/>
</svg>
