<svg xmlns="http://www.w3.org/2000/svg" xmlns:svg="http://www.w3.org/2000/svg" id="svg98" width="206.988" height="234" version="1.1" viewBox="0 0 206.988 234"><metadata id="metadata102"/><defs id="defs77"><style id="style75">.cls-1{fill:#ff576b}</style></defs><title id="title79">Asset 9</title><path id="conduit-mark" d="m 193.41695,186.12557 a 8.31,8.31 0 0 0 -5.35,1.91 100.14,100.14 0 1 1 0.15,-141.620004 v 0 a 8.35,8.35 0 0 1 -0.54,11.13 8.48,8.48 0 0 1 -12,0 v 0 a 83.42,83.42 0 1 0 0.57,118.670004 24.94,24.94 0 0 0 0.11,-35.36 25.19,25.19 0 0 0 -35.57,-0.1 33.17,33.17 0 1 1 0.14,-47.300004 v 0 a 8.87,8.87 0 0 0 5.3,1.88 8.37,8.37 0 0 0 8.37,-8.37 8.54,8.54 0 0 0 -1.69,-5.25 v 0 a 50.23,50.23 0 1 0 -0.14,71.000004 c 3.3,-3.3 8.44,-3.64 11.75,-0.34 a 8.45,8.45 0 0 1 -0.09,12 v 0 a 66.72,66.72 0 1 1 -0.57,-94.940004 v 0 a 25.071412,25.071412 0 0 0 36.12,-34.78 l 0.06,-0.06 c -0.14,-0.13 -0.29,-0.25 -0.42,-0.38 -0.13,-0.13 -0.16,-0.21 -0.25,-0.31 v 0 a 117,117 0 1 0 0.56,165.630004 7.87,7.87 0 0 0 1.75,-5.24 8.22,8.22 0 0 0 -8.26,-8.17 z" class="cls-1" style="fill:#ff576b"/></svg>