<svg xmlns="http://www.w3.org/2000/svg" width="40" height="39" fill="none" viewBox="0 0 40 39"><path fill="#fff" fill-rule="evenodd" d="M19.2786 23.4842C16.9762 23.4842 15.1036 21.6423 15.1036 19.3093C15.1036 17.0069 16.9455 15.1343 19.2786 15.1343C21.581 15.1343 23.4536 16.9762 23.4536 19.3093C23.4536 21.6116 21.6117 23.4842 19.2786 23.4842Z" clip-rule="evenodd"/><path fill="#fff" fill-rule="evenodd" d="M27.4137 21.2435C26.3392 21.2435 25.4797 20.3839 25.4797 19.3095C25.4797 18.235 26.3392 17.3755 27.4137 17.3755C28.4881 17.3755 29.3477 18.235 29.3477 19.3095C29.3477 20.3839 28.4881 21.2435 27.4137 21.2435Z" clip-rule="evenodd"/><path fill="#fff" fill-rule="evenodd" d="M34.4436 23.0545C34.198 24.0982 33.1236 24.7122 32.1105 24.4359C31.0668 24.1903 30.4528 23.1159 30.7291 22.1028C30.9747 21.0591 32.0491 20.4451 33.0622 20.7214C34.0445 20.967 34.6585 21.9187 34.505 22.901C34.4743 22.9317 34.4743 22.9931 34.4436 23.0545Z" clip-rule="evenodd"/><path fill="#fff" fill-rule="evenodd" d="M33.0929 18.0816C32.0491 18.3271 31.0054 17.6825 30.7905 16.6387C30.5449 15.595 31.1896 14.5512 32.2333 14.3364C33.2771 14.0908 34.3208 14.7354 34.5357 15.7792C34.5971 16.0248 34.5971 16.3011 34.5664 16.5466C34.4436 17.2834 33.891 17.9281 33.0929 18.0816Z" clip-rule="evenodd"/><path fill="#fff" fill-rule="evenodd" d="M39.9386 22.8395C39.7544 23.8833 38.7414 24.5893 37.6976 24.4052C36.6539 24.221 35.9478 23.2079 36.132 22.1642C36.3162 21.1204 37.2985 20.4144 38.373 20.5986C39.3553 20.7828 40.0614 21.673 39.9693 22.6554C39.9693 22.7167 39.9386 22.7781 39.9386 22.8395Z" clip-rule="evenodd"/><path fill="#fff" fill-rule="evenodd" d="M38.373 18.0199C37.3292 18.2041 36.3469 17.498 36.1627 16.4236C35.9785 15.3798 36.6846 14.3975 37.759 14.2133C38.8027 14.0291 39.7851 14.7351 39.9693 15.8096C40 15.9938 40 16.1473 40 16.3008C39.9079 17.1296 39.2632 17.8664 38.373 18.0199Z" clip-rule="evenodd"/><path fill="#fff" fill-rule="evenodd" d="M37.0223 29.5013C36.5004 30.4222 35.3339 30.7599 34.3822 30.2381C33.4613 29.7162 33.1236 28.5496 33.6454 27.598C34.1673 26.677 35.3339 26.3394 36.2855 26.8612C36.9609 27.2296 37.3293 27.9664 37.2372 28.7031C37.2679 28.9794 37.1758 29.2557 37.0223 29.5013Z" clip-rule="evenodd"/><path fill="#fff" fill-rule="evenodd" d="M36.3469 11.8186C35.426 12.3405 34.2594 12.0028 33.7068 11.0819C33.185 10.1609 33.5226 8.99437 34.4436 8.4418C35.3646 7.91992 36.5311 8.25761 37.0837 9.17856C37.2986 9.54694 37.3599 9.91532 37.3293 10.2837C37.2679 10.9284 36.8995 11.4809 36.3469 11.8186Z" clip-rule="evenodd"/><path fill="#fff" d="M19.3707 38.7107C14.1827 38.7107 9.33231 36.7153 5.6792 33.0622C1.9954 29.3784 0 24.528 0 19.3707C0 14.1827 1.9954 9.33231 5.6485 5.6792C9.33231 1.9954 14.1827 0 19.3707 0C23.6685 0 27.7206 1.38143 31.1282 3.99079L28.7337 7.06063C26.0322 4.97314 22.7782 3.8987 19.34 3.8987C15.2264 3.8987 11.3277 5.49501 8.38066 8.41136C5.46431 11.3277 3.868 15.2264 3.868 19.34C3.868 23.4843 5.46431 27.3523 8.38066 30.2993C11.297 33.2157 15.1957 34.812 19.34 34.812C22.7782 34.812 26.0322 33.7068 28.7337 31.65L31.0975 34.7506C27.7206 37.3292 23.6378 38.7107 19.3707 38.7107Z"/></svg>