<svg width="52" height="58" viewBox="0 0 52 58" fill="none" xmlns="http://www.w3.org/2000/svg">
<path fill-rule="evenodd" clip-rule="evenodd" d="M1.08334 22.395H4.29098V26.738H8.16622V22.395H11.3739V34.5944H8.16622V29.9424H4.29098V34.5944H1.08334V22.395ZM15.0537 34.5944V22.395H22.6413V25.0464H18.2613V27.0308H22.1366V29.7309H18.2613V31.9756H22.6413V34.5944H15.0537ZM26.1583 34.5944V22.395H29.366V31.3738H33.7623V34.5944H26.1583ZM38.7284 22.395L43.7109 26.9169L48.6769 22.395H50.1261V34.5944H46.9021V28.3321L43.7109 31.2437L40.5031 28.3483V34.5944H37.2792V22.395H38.7284Z" fill="#0F1689"/>
<path fill-rule="evenodd" clip-rule="evenodd" d="M37.3867 42.2748C38.3077 41.6298 40.4316 43.0736 42.1302 45.4996C43.8289 47.9257 44.4593 50.4151 43.5382 51.0602C42.617 51.7051 40.4932 50.2613 38.7945 47.8353C37.0958 45.4094 36.4654 42.9198 37.3867 42.2748Z" fill="#0F1689"/>
<path fill-rule="evenodd" clip-rule="evenodd" d="M15.4401 42.2748C14.5189 41.6298 12.395 43.0736 10.6963 45.4996C8.99764 47.9257 8.36734 50.4151 9.2885 51.0602C10.2096 51.7051 12.3335 50.2613 14.0321 47.8353C15.7307 45.4094 16.3612 42.9198 15.4401 42.2748Z" fill="#0F1689"/>
<path fill-rule="evenodd" clip-rule="evenodd" d="M26.4022 46.0732C25.2777 46.0732 24.3661 48.4741 24.3661 51.4357C24.3661 54.3974 25.2777 56.798 26.4022 56.798C27.5267 56.798 28.4383 54.3974 28.4383 51.4357C28.4383 48.4741 27.5267 46.0732 26.4022 46.0732Z" fill="#0F1689"/>
<path d="M10.5071 16.9584C13.8858 12.0571 19.5137 8.84814 25.8858 8.84814C32.2693 8.84814 37.9062 12.0688 41.2828 16.9851M41.8959 37.4559C38.6162 42.9048 32.6731 46.5455 25.8858 46.5455C19.2842 46.5455 13.4812 43.1013 10.1507 37.8991" stroke="#0F1689" stroke-width="5"/>
<path fill-rule="evenodd" clip-rule="evenodd" d="M37.3867 14.6002C38.3077 15.2452 40.4316 13.8014 42.1302 11.3754C43.8289 8.94933 44.4593 6.45987 43.5382 5.81485C42.617 5.16987 40.4932 6.61365 38.7945 9.03964C37.0958 11.4657 36.4654 13.9552 37.3867 14.6002Z" fill="#0F1689"/>
<path fill-rule="evenodd" clip-rule="evenodd" d="M14.8983 14.0582C13.9773 14.7032 11.8534 13.2594 10.1546 10.8334C8.45601 8.40738 7.82568 5.91788 8.74684 5.27286C9.66792 4.62787 11.7917 6.07165 13.4905 8.49767C15.1891 10.9237 15.8195 13.4132 14.8983 14.0582Z" fill="#0F1689"/>
<path fill-rule="evenodd" clip-rule="evenodd" d="M25.9911 9.71915C25.0936 9.71915 24.3661 7.80305 24.3661 5.4394C24.3661 3.07577 25.0936 1.15967 25.9911 1.15967C26.8886 1.15967 27.6161 3.07577 27.6161 5.4394C27.6161 7.80305 26.8886 9.71915 25.9911 9.71915Z" fill="#0F1689"/>
</svg>
