<svg xmlns="http://www.w3.org/2000/svg" width="40" height="38" fill="none" viewBox="0 0 40 38"><path fill="#fff" d="M36.569 7.50977V22.0815L39.2387 23.6359V9.06419L36.569 7.50977ZM0.777161 23.6359L3.44689 22.0815V7.50977L0.777161 9.06419V23.6359ZM13.8644 23.4924L26.1515 30.6268V27.526L14.6487 20.8459L13.8644 21.3003V23.4924ZM26.8565 34.764L13.8644 27.2151V30.3159L17.3342 32.3327L13.1593 34.756C12.882 34.9154 12.882 35.33 13.1593 35.4894L15.1953 36.6771L20.004 33.8871L24.8126 36.6771L26.8486 35.4894C27.1338 35.3379 27.1338 34.9234 26.8565 34.764Z"/><path fill="#fff" d="M36.569 16.1988V29.1204C36.569 29.4473 36.9175 29.6545 37.2027 29.4871L39.0327 28.4269C39.1595 28.3552 39.2466 28.2117 39.2466 28.0602V14.6523L36.569 16.1988ZM31.3246 32.8989L33.0437 31.8945C33.2417 31.7829 33.3605 31.5677 33.3605 31.3445V18.0641L30.6908 19.6185V32.5402C30.6908 32.859 31.0394 33.0663 31.3246 32.8989ZM24.8126 36.6853L27.2764 35.2584C27.4032 35.1867 27.4903 35.0432 27.4903 34.8917V21.4759L24.8126 23.0303V36.6853ZM12.7395 35.2504L15.2032 36.6773V23.0303L12.5335 21.4759V34.8838C12.5335 35.0352 12.6127 35.1787 12.7395 35.2504ZM6.9722 31.9025L8.69129 32.9069C8.96856 33.0663 9.32505 32.867 9.32505 32.5402V19.6106L6.65532 18.0561V31.3445C6.65532 31.5756 6.77415 31.7909 6.9722 31.9025ZM1.09404 28.4907L2.81313 29.4951C3.0904 29.6545 3.44689 29.4552 3.44689 29.1284V16.1988L0.777161 14.6523V27.9407C0.777161 28.1639 0.895991 28.3711 1.09404 28.4907Z"/><path fill="#fff" d="M39.2387 9.06443L36.569 7.51001L31.7603 10.3L28.5598 8.44266L32.7347 6.01936C33.012 5.85993 33.012 5.44542 32.7347 5.28599L31.0077 4.28159C30.8096 4.16999 30.572 4.16999 30.3739 4.28159L25.8821 6.88824L22.6816 5.0309L26.8565 2.6076C27.1338 2.44817 27.1338 2.03366 26.8565 1.87423L25.1295 0.869833C24.9315 0.758233 24.6938 0.758233 24.4958 0.869833L20.004 3.47648L15.5122 0.869833C15.3141 0.758233 15.0765 0.758233 14.8784 0.869833L13.1514 1.87423C12.8741 2.03366 12.8741 2.44817 13.1514 2.6076L36.5531 16.2068L39.2229 14.6524L34.4142 11.8624L39.2387 9.06443ZM9.00817 4.28159L7.28908 5.28599C7.01181 5.44542 7.01181 5.85993 7.28908 6.01936L30.6908 19.6186L33.3605 18.0641L9.64193 4.28159C9.44388 4.16999 9.20622 4.16999 9.00817 4.28159ZM0.777161 9.06443L5.58584 11.8544L0.777161 14.6524L3.45481 16.1988L8.25557 13.4088L11.464 15.2742L6.65532 18.0641L9.32505 19.6186L14.1337 16.8206L17.3342 18.6859L12.5256 21.4759L15.2032 23.0303L20.004 20.2324L24.8126 23.0303L27.4824 21.4759L3.44689 7.51001L0.777161 9.06443Z"/></svg>