<svg width="36" height="40" viewBox="0 0 36 40" fill="none" xmlns="http://www.w3.org/2000/svg">
<path opacity="0.8" d="M34.575 9.2459L19.0391 0.287516C18.3934 -0.0958386 17.6066 -0.0958386 16.9811 0.287516L1.44515 9.2459C0.77932 9.60908 0.395966 10.2951 0.395966 11.0416V28.9786C0.395966 29.3417 0.476672 29.6847 0.678437 30.0076C0.860026 30.3304 1.12232 30.5725 1.44515 30.7541L16.9811 39.7125C17.6267 40.0958 18.4136 40.0958 19.0391 39.7125L34.575 30.7541C35.2207 30.3909 35.604 29.7049 35.604 28.9584V11.0416C35.604 10.2951 35.2207 9.60908 34.575 9.2459ZM26.9685 26.8802C26.9685 27.9496 26.0202 28.8172 24.7087 28.8172C23.7604 28.8172 22.6507 28.4338 21.9849 27.6066L13.0265 16.913V26.8398C13.0265 27.9496 12.1387 28.8373 11.029 28.8373C9.91929 28.8373 9.03153 27.9496 9.03153 26.8398V13.14C9.03153 12.0706 9.97982 11.203 11.2913 11.203C12.2396 11.203 13.3493 11.5864 14.0151 12.4136L14.6204 13.14L22.9735 23.1274V13.1803C22.9735 12.0706 23.8613 11.1829 24.971 11.1829C26.0807 11.1829 26.9685 12.0706 26.9685 13.1803V26.8802Z" fill="white"/>
</svg>
