<?xml version="1.0" standalone="no"?>
<!DOCTYPE svg PUBLIC "-//W3C//DTD SVG 20010904//EN"
 "http://www.w3.org/TR/2001/REC-SVG-20010904/DTD/svg10.dtd">
<svg version="1.0" xmlns="http://www.w3.org/2000/svg"
 width="230.000000pt" height="44.000000pt" viewBox="0 0 230.000000 44.000000"
 preserveAspectRatio="xMidYMid meet">
<metadata>
Created by potrace 1.16, written by Peter Selinger 2001-2019
</metadata>
<g transform="translate(0.000000,44.000000) scale(0.100000,-0.100000)"
fill="#ffffff" stroke="none">
<path d="M40 405 c0 -3 42 -88 92 -190 l93 -185 92 183 c51 100 93 185 93 190
0 4 -83 7 -185 7 -102 0 -185 -2 -185 -5z"/>
<path d="M450 286 c0 -155 13 -195 75 -231 77 -46 175 -26 222 44 21 31 23 45
23 172 l0 139 -55 0 -55 0 0 -125 c0 -121 -1 -125 -24 -140 -19 -13 -29 -14
-45 -6 -19 10 -21 22 -23 139 l-3 127 -57 3 -58 3 0 -125z"/>
<path d="M820 220 l0 -190 141 0 140 0 -3 53 -3 52 -82 3 -83 3 0 134 0 135
-55 0 -55 0 0 -190z"/>
<path d="M1219 382 c-123 -64 -135 -233 -23 -319 29 -21 50 -28 100 -31 54 -4
70 -1 107 21 47 28 74 61 87 108 l9 29 -56 0 c-47 0 -58 -4 -75 -25 -14 -18
-29 -25 -54 -25 -47 0 -70 14 -83 50 -28 83 73 147 135 85 20 -20 35 -25 74
-25 55 0 61 10 36 58 -30 58 -103 102 -170 102 -18 0 -58 -12 -87 -28z"/>
<path d="M1585 229 c-49 -99 -91 -184 -93 -189 -2 -6 69 -10 186 -10 l190 0
-95 188 c-52 103 -96 188 -96 188 -1 1 -42 -79 -92 -177z"/>
<path d="M1890 221 l0 -191 50 0 50 0 0 80 c0 44 2 80 5 80 3 0 51 -34 105
-75 54 -41 104 -75 110 -75 7 0 10 58 8 183 l-3 182 -52 3 -53 3 0 -80 c0 -45
-3 -81 -6 -81 -3 0 -53 36 -110 81 l-104 80 0 -190z"/>
</g>
</svg>
