
<svg id="Layer_1" data-name="Layer 1" xmlns="http://www.w3.org/2000/svg" viewBox="0 0 500 500"><defs><style>.cls-1{fill:#fff;}</style></defs><g id="F1L4Xu"><path class="cls-1" d="M415.69109,338.68259c13.50671-13.84814,29.0993-25.75178,40.54136-41.83339,21.799-30.63813,19.936-49.85468-8.39-73.78128-5.12275-4.32713-7.55619-7.35317-4.7901-14.08391,2.37925-5.78957,3.47714-12.20564,4.46182-18.45187,5.45139-34.58089-10.159-56.05549-44.92535-58.486-12.13169-.84813-15.19126-5.015-17.74687-15.639-8.59186-35.7168-31.94327-49.5643-68.46313-41.173-9.405,2.161-15.752,2.08049-22.95688-6.26046-27.86581-32.25981-55.02127-32.53066-84.91534-.32134-8.90539,9.59511-14.42695,10.93316-26.437,4.99183-30.38539-15.03148-55.25939-2.86319-64.44394,32.76215-4.32628,16.781-10.49853,24.33248-27.93016,27.85027-28.93264,5.83873-41.36171,31.00641-32.85282,64.21,3.47458,13.55857,4.32424,21.643-9.50246,30.7186C26.332,242.97463,24.04973,261.81805,37.094,284.0383a150.58936,150.58936,0,0,0,17.04809,22.79783c5.9126,6.72323,12.878,12.52059,18.28876,19.838-22.46355-13.12449-42.90416-28.60248-56.99286-50.7543-15.74573-24.75715-12.38016-44.466,12.31161-60.26777,12.60252-8.06509,13.73672-14.70488,9.843-28.56729-11.75294-41.843,4.72868-65.83756,48.10681-72.345,8.42423-1.26378,12.23018-4.03681,13.79075-12.08969a111.16075,111.16075,0,0,1,6.38977-21.85359c13.36273-31.77975,37.949-41.88642,69.389-27.00872,12.00052,5.67874,18.62133,5.3364,28.33233-4.89422,33.7938-35.602,64.29473-34.63316,96.47783,2.30493,6.49605,7.45579,12.30733,7.00684,19.87112,5.12385,45.49549-11.326,76.04086,8.92755,80.16066,48.04252.79015,7.50207,4.51717,11.53592,12.55759,10.22048a8.38588,8.38588,0,0,1,1.90312.01074c44.72168,3.07281,62.7079,27.12438,51.39331,70.447-3.40461,13.036-4.863,21.56906,9.07929,30.83641,22.18639,14.74712,24.413,37.77742,10.05715,62.07762C473.16559,298.16086,444.37182,324.11647,415.69109,338.68259Z"/><path class="cls-1" d="M194.91656,381.98992c-40.01729,8.04408-81.84553,7.373-120.77087,26.213,87.35426,31.92987,245.51736,36.3155,352.10767.81157-19.21059-12.04094-39.94235-14.28387-59.99589-18.03426-19.82309-3.70732-39.9037-6.03724-60.23677-9.02507,2.14389-8.39492,5.28172-12.24668,13.55824-10.65231,32.29891,6.22187,65.20316,9.63972,96.31867,21.20608,7.556,2.80876,17.44554,4.07169,18.34436,13.99628,1.01233,11.17815-5.63957,22.25328-15.51355,23.70931-27.93516,4.11928-52.07054,24.3447-78.4151,24.47752-26.2917.13272-48.78694-.48922-73.40867,13.09-18.63711,10.27868-42.78632,2.61522-59.25309-14.27142-6.31447-6.47553-10.28558-5.8905-17.5655-2.63955-22.08279,9.86123-43.62987,7.861-62.1646-8.12551-6.55923-5.65744-12.25943-7.0452-20.37332-6.17717a40.71467,40.71467,0,0,1-25.624-5.41268c-9.26958-5.55645-16.44238-12.89454-15.65994-24.20581.71152-10.28646,10.61649-11.40571,18.06026-14.22643,31.055-11.76787,63.89278-15.541,96.28848-21.37424C188.95572,369.847,192.093,373.885,194.91656,381.98992Z"/></g><rect class="cls-1" x="135.54351" y="258.3606" width="58.87357" height="58.87356"/><rect class="cls-1" x="212.27446" y="258.3606" width="58.87356" height="58.87356"/><rect class="cls-1" x="135.54351" y="335.09155" width="58.87357" height="58.87356"/><rect class="cls-1" x="328.71379" y="142.72495" width="58.873" height="58.873" transform="translate(-16.83674 303.67542) rotate(-45)"/><polygon class="cls-1" points="211.158 206.184 211.158 206.742 263.335 232.97 289.842 180.514 237.386 154.006 211.158 206.184"/><rect class="cls-1" x="305.07475" y="245.97716" width="58.87492" height="58.87491" transform="translate(-62.14539 449.81179) rotate(-63.19922)"/><rect class="cls-1" x="135.54351" y="181.62964" width="58.87357" height="58.87356"/><rect class="cls-1" x="212.27446" y="335.09155" width="58.87356" height="58.87356"/><rect class="cls-1" x="289.28443" y="335.09155" width="58.87356" height="58.87356"/></svg>
