<svg xmlns="http://www.w3.org/2000/svg" viewBox="0 0 164.86 269.18"><defs><style>.cls-1{fill:#fff;isolation:isolate;opacity:0.8;}</style></defs><g id="Layer_2" data-name="Layer 2"><g id="Layer_1-2" data-name="Layer 1"><g id="Layer_2-2" data-name="Layer 2"><g id="Layer_1-2-2" data-name="Layer 1-2"><path class="cls-1" d="M81.86,269.18c-9-16.35-17.86-31.18-25.4-46.67-15.8-32.48-31.41-65.08-46-98.1C3.19,108-1.54,90.69.46,72.06c3.38-31.85,28.45-61.35,59.7-69.2,44.38-11.15,86.08,11,101,54.24,6.4,18.58,3.81,37.16-2.55,55.48-12.84,37-30.57,71.83-48.56,106.5-7.65,14.74-16,29.14-24,43.68C85,264.49,83.81,266.11,81.86,269.18Zm.78-127.57c32.62-.28,59.7-27.62,59.38-60-.32-32.77-27.65-59.35-60.94-59.25C50.17,22.45,22,50.6,22.34,81.1c.35,33.84,27.2,60.79,60.3,60.51Z"/></g></g></g></g></svg>