<svg width="auto" viewBox="0 0 1366 805" fill="none" xmlns="http://www.w3.org/2000/svg">
  <rect x="523" y="478" width="342" height="256.5" fill="#E75225" fill-opacity="0.1" />
  <rect x="525.5" y="480.5" width="337" height="251.5" stroke="#E75225" stroke-opacity="0.5" stroke-width="5"
    stroke-dasharray="10 10" />
  <path fill-rule="evenodd" clip-rule="evenodd"
    d="M843.129 687.55C821.838 677.356 812.841 651.831 823.034 630.538C827.928 620.313 836.684 612.451 847.374 608.682C858.065 604.912 869.815 605.545 880.039 610.44C901.33 620.634 910.327 646.159 900.134 667.452C889.942 688.745 864.42 697.743 843.129 687.55Z"
    fill="#E75225" />
  <g clip-path="url(#clip0_9911_32905)">
    <path d="M862.373 634.297V647.329L873.324 640.791L862.373 634.297Z" fill="white" />
    <path d="M862.373 650.054V663.151L873.426 656.633L862.373 650.054Z" fill="white" />
    <path d="M860.798 647.241V634.406L849.984 640.803L860.798 647.241Z" fill="white" fill-opacity="0.8" />
    <path d="M839.104 663.102C841.225 666.622 844.093 669.599 847.492 671.81V658.095L839.104 663.102Z" fill="white"
      fill-opacity="0.8" />
    <path d="M860.798 663.086V650.15L849.957 656.624L860.798 663.086Z" fill="white" fill-opacity="0.8" />
    <path d="M849.072 670.994L860.051 664.52L849.072 657.974V670.994Z" fill="white" />
    <path d="M874.176 671.063V658.062L863.213 664.528L874.176 671.063Z" fill="white" fill-opacity="0.8" />
    <path d="M884.906 661.594C886.78 657.987 887.84 653.989 888.005 649.899L876.592 656.64L884.906 661.594Z"
      fill="white" fill-opacity="0.8" />
    <path d="M875.754 655.258L886.772 648.76L875.754 642.229V655.258Z" fill="white" />
    <path d="M874.176 639.421V626.498L863.264 632.952L874.176 639.421Z" fill="white" fill-opacity="0.8" />
    <path d="M874.176 655.202V642.161L863.24 648.691L874.176 655.202Z" fill="white" fill-opacity="0.8" />
    <path d="M849.072 642.137V655.274L860.09 648.695L849.072 642.137Z" fill="white" />
    <path d="M860.799 621.438C856.743 621.556 852.769 622.639 849.186 624.603L860.799 631.472V621.438Z" fill="white"
      fill-opacity="0.8" />
    <path d="M849.072 626.409V639.47L860.098 632.948L849.072 626.409Z" fill="white" />
    <path d="M847.492 625.617C844.094 627.829 841.226 630.807 839.104 634.326L847.492 639.32V625.617Z" fill="white"
      fill-opacity="0.8" />
    <path d="M874.104 624.671C870.491 622.666 866.474 621.559 862.373 621.438V631.602L874.104 624.671Z" fill="white" />
    <path d="M835.146 649.674C835.283 653.881 836.366 657.998 838.308 661.7L846.807 656.624L835.146 649.674Z"
      fill="white" />
    <path d="M838.308 635.731C836.372 639.417 835.29 643.516 835.146 647.705L846.819 640.799L838.308 635.731Z"
      fill="white" />
    <path d="M849.166 672.813C852.753 674.786 856.735 675.875 860.799 675.993V665.951L849.166 672.813Z" fill="white"
      fill-opacity="0.8" />
    <path d="M884.092 634.37C881.982 630.861 879.132 627.889 875.754 625.674V639.341L884.092 634.37Z" fill="white" />
    <path d="M875.754 671.766C879.15 669.536 882.011 666.54 884.123 663.005L875.754 658.019V671.766Z" fill="white" />
    <path d="M888.041 647.629C887.891 643.48 886.818 639.422 884.906 635.769L876.479 640.788L888.041 647.629Z"
      fill="white" fill-opacity="0.8" />
    <path d="M862.373 675.993C866.428 675.876 870.401 674.793 873.982 672.829L862.373 665.891V675.993Z" fill="white" />
    <path d="M847.492 655.157V642.274L836.646 648.688L847.492 655.157Z" fill="white" fill-opacity="0.8" />
  </g>
  <path
    d="M702.61 531.861C697.097 529.577 690.903 529.577 685.39 531.861L647.664 547.487C642.151 549.771 637.771 554.151 635.487 559.664L619.861 597.39C617.577 602.903 617.577 609.097 619.861 614.61L635.487 652.336C637.771 657.849 642.151 662.229 647.664 664.513L685.39 680.139C690.903 682.423 697.097 682.423 702.61 680.139L740.336 664.513C745.849 662.229 750.229 657.849 752.513 652.336L768.139 614.61C770.423 609.097 770.423 602.903 768.139 597.39L752.513 559.664C750.229 554.151 745.849 549.771 740.336 547.487L702.61 531.861Z"
    fill="#E75225" stroke="#E75225" stroke-width="5" />
  <path
    d="M694.099 556C721.524 556.006 744.034 578.544 744 605.961C743.965 633.795 721.546 656.02 693.525 656C666.13 655.981 643.981 633.419 644 605.554C644.019 578.307 666.577 555.994 694.099 556ZM678.939 573.548C679.567 576.667 678.957 579.577 678.027 582.439C677.383 584.421 676.493 586.329 675.962 588.337C675.086 591.647 674.093 594.976 673.728 598.361C673.204 603.229 675.102 607.516 678.349 611.78L663.422 608.612C663.448 609.087 663.42 609.267 663.472 609.42C664.887 613.609 667.377 617.139 670.167 620.467C670.463 620.819 671.135 621 671.633 621.001C686.517 621.028 701.401 621.027 716.284 621.007C716.746 621.007 717.362 620.919 717.645 620.618C720.835 617.238 723.275 613.388 724.8 608.538L708.997 611.657C710.04 609.598 711.23 607.787 711.914 605.797C714.253 598.991 713.284 592.411 709.925 586.204C707.23 581.224 704.744 576.265 706.089 570.263C703.243 573.096 702.15 576.702 701.456 580.419C700.773 584.08 700.371 587.795 699.842 591.509C699.766 591.397 699.669 591.314 699.654 591.218C699.593 590.828 699.536 590.435 699.515 590.042C699.193 583.958 698.015 578.096 695.526 572.497C694.062 569.202 692.447 565.832 693.957 561.901C692.935 562.444 692.011 562.984 691.35 563.755C689.374 566.055 688.557 568.818 688.347 571.842C688.167 574.426 687.921 577.023 687.446 579.564C686.946 582.234 686.154 584.852 684.374 587.306C683.655 582.064 683.575 576.879 678.939 573.548ZM717.315 625.595H670.633V633.769H717.315V625.595ZM679.888 637.992C679.85 644.799 686.728 649.87 695.229 649.502C702.274 649.197 708.509 643.611 707.973 637.992H679.888Z"
    fill="white" />
  <g filter="url(#filter0_d_9911_32905)">
    <rect x="1014" y="668" width="103" height="30" rx="5" fill="#009639" />
    <path
      d="M1024.25 688.196C1026.07 688.196 1027.62 687.202 1027.62 685.326C1027.62 683.254 1025.77 682.75 1024.34 682.232C1023.45 681.896 1022.78 681.588 1022.78 680.86C1022.78 680.3 1023.24 679.894 1024.04 679.894C1024.79 679.894 1025.27 680.202 1025.39 680.86C1025.42 681.07 1025.53 681.168 1025.73 681.168H1026.99C1027.21 681.168 1027.34 681.056 1027.33 680.832C1027.16 678.9 1025.65 678.018 1024.04 678.018C1022.4 678.018 1020.84 678.984 1020.84 680.86C1020.84 682.946 1022.57 683.506 1023.98 683.996C1024.9 684.332 1025.69 684.626 1025.69 685.326C1025.69 685.9 1025.23 686.32 1024.25 686.32C1023.29 686.32 1022.73 685.97 1022.62 685.312C1022.58 685.088 1022.48 684.99 1022.27 684.99H1021.01C1020.8 684.99 1020.68 685.102 1020.69 685.326C1020.84 687.286 1022.43 688.196 1024.25 688.196ZM1032.99 680.818C1032.12 680.818 1031.48 681.14 1031.09 681.728V678.536C1031.09 678.326 1030.97 678.2 1030.75 678.2H1029.62C1029.41 678.2 1029.28 678.326 1029.28 678.536V687.678C1029.28 687.888 1029.41 688 1029.62 688H1030.75C1030.97 688 1031.09 687.888 1031.09 687.678V683.954C1031.09 682.904 1031.65 682.484 1032.35 682.484C1032.99 682.484 1033.47 682.862 1033.47 683.674V687.678C1033.47 687.888 1033.58 688 1033.79 688H1034.94C1035.15 688 1035.27 687.888 1035.27 687.678V683.534C1035.27 681.812 1034.29 680.818 1032.99 680.818ZM1037.57 680.02H1038.72C1038.93 680.02 1039.04 679.908 1039.04 679.698V678.536C1039.04 678.326 1038.93 678.2 1038.72 678.2H1037.57C1037.36 678.2 1037.23 678.326 1037.23 678.536V679.698C1037.23 679.908 1037.36 680.02 1037.57 680.02ZM1037.57 688H1038.72C1038.93 688 1039.04 687.888 1039.04 687.678V681.336C1039.04 681.126 1038.93 681 1038.72 681H1037.57C1037.36 681 1037.23 681.126 1037.23 681.336V687.678C1037.23 687.888 1037.36 688 1037.57 688ZM1046.93 681H1045.7C1045.52 681 1045.39 681.098 1045.33 681.28L1043.88 685.788L1042.42 681.28C1042.37 681.098 1042.23 681 1042.04 681H1040.83C1040.59 681 1040.46 681.154 1040.55 681.392L1042.86 687.734C1042.91 687.916 1043.04 688 1043.22 688H1043.56H1044.52C1044.7 688 1044.83 687.916 1044.9 687.734L1047.2 681.392C1047.28 681.154 1047.17 681 1046.93 681ZM1051.08 680.818C1049.64 680.818 1048.42 681.602 1048.24 683.044C1048.23 683.268 1048.37 683.38 1048.58 683.38H1049.7C1049.89 683.38 1049.96 683.282 1050.05 683.086C1050.16 682.708 1050.55 682.484 1051.08 682.484C1051.74 682.484 1052.16 682.834 1052.16 683.66V684.416C1051.75 684.052 1051.15 683.786 1050.27 683.786C1049.02 683.786 1047.9 684.528 1047.9 685.998C1047.9 687.468 1049.02 688.196 1050.27 688.196C1051.15 688.196 1051.75 687.888 1052.16 687.398V687.678C1052.16 687.888 1052.29 688.014 1052.5 688.014H1053.59C1053.81 688.014 1053.92 687.888 1053.92 687.678V683.562C1053.92 681.742 1052.62 680.818 1051.08 680.818ZM1050.87 686.866C1050.09 686.866 1049.71 686.502 1049.71 685.998C1049.71 685.494 1050.09 685.13 1050.87 685.13C1051.67 685.13 1052.16 685.452 1052.16 685.998C1052.16 686.502 1051.67 686.866 1050.87 686.866ZM1062.99 680.818C1062.18 680.818 1061.55 681.14 1061.07 681.742C1060.71 681.14 1060.1 680.818 1059.38 680.818C1058.68 680.818 1058.07 681.126 1057.7 681.686V681.336C1057.7 681.126 1057.58 681 1057.37 681H1056.23C1056.02 681 1055.89 681.126 1055.89 681.336V687.678C1055.89 687.888 1056.02 688 1056.23 688H1057.37C1057.58 688 1057.7 687.888 1057.7 687.678V683.674C1057.7 682.764 1058.24 682.484 1058.73 682.484C1059.22 682.484 1059.63 682.722 1059.63 683.422V687.678C1059.63 687.888 1059.75 688 1059.96 688H1061.1C1061.32 688 1061.43 687.888 1061.43 687.678V683.674C1061.43 682.764 1061.98 682.484 1062.47 682.484C1062.95 682.484 1063.37 682.722 1063.37 683.422V687.678C1063.37 687.888 1063.48 688 1063.7 688H1064.84C1065.05 688 1065.17 687.888 1065.17 687.678V683.282C1065.17 681.672 1064.32 680.818 1062.99 680.818ZM1078.57 687.608L1075.1 682.974L1078.43 678.606C1078.6 678.382 1078.49 678.2 1078.22 678.2H1076.75C1076.58 678.2 1076.46 678.27 1076.34 678.41L1073.14 682.54V678.536C1073.14 678.326 1073.03 678.2 1072.8 678.2H1071.54C1071.33 678.2 1071.22 678.326 1071.22 678.536V687.678C1071.22 687.888 1071.33 688 1071.54 688H1072.8C1073.03 688 1073.14 687.888 1073.14 687.678V683.408L1076.48 687.804C1076.58 687.944 1076.72 688 1076.89 688H1078.36C1078.64 688 1078.72 687.832 1078.57 687.608ZM1085.44 681H1084.3C1084.09 681 1083.97 681.126 1083.97 681.336V685.06C1083.97 686.11 1083.42 686.516 1082.71 686.516C1082.08 686.516 1081.6 686.138 1081.6 685.34V681.336C1081.6 681.126 1081.47 681 1081.26 681H1080.12C1079.91 681 1079.79 681.126 1079.79 681.336V685.48C1079.79 687.188 1080.76 688.196 1082.06 688.196C1082.93 688.196 1083.57 687.874 1083.97 687.286V687.678C1083.97 687.888 1084.09 688 1084.3 688H1085.44C1085.66 688 1085.77 687.888 1085.77 687.678V681.336C1085.77 681.126 1085.66 681 1085.44 681ZM1095.01 680.818C1094.2 680.818 1093.57 681.14 1093.09 681.742C1092.73 681.14 1092.13 680.818 1091.4 680.818C1090.7 680.818 1090.1 681.126 1089.72 681.686V681.336C1089.72 681.126 1089.61 681 1089.4 681H1088.25C1088.04 681 1087.91 681.126 1087.91 681.336V687.678C1087.91 687.888 1088.04 688 1088.25 688H1089.4C1089.61 688 1089.72 687.888 1089.72 687.678V683.674C1089.72 682.764 1090.27 682.484 1090.76 682.484C1091.25 682.484 1091.65 682.722 1091.65 683.422V687.678C1091.65 687.888 1091.78 688 1091.99 688H1093.12C1093.35 688 1093.46 687.888 1093.46 687.678V683.674C1093.46 682.764 1094 682.484 1094.49 682.484C1094.97 682.484 1095.39 682.722 1095.39 683.422V687.678C1095.39 687.888 1095.5 688 1095.73 688H1096.86C1097.07 688 1097.2 687.888 1097.2 687.678V683.282C1097.2 681.672 1096.34 680.818 1095.01 680.818ZM1101.96 680.818C1100.52 680.818 1099.3 681.602 1099.12 683.044C1099.1 683.268 1099.24 683.38 1099.45 683.38H1100.57C1100.77 683.38 1100.84 683.282 1100.92 683.086C1101.04 682.708 1101.43 682.484 1101.96 682.484C1102.62 682.484 1103.04 682.834 1103.04 683.66V684.416C1102.63 684.052 1102.03 683.786 1101.15 683.786C1099.9 683.786 1098.78 684.528 1098.78 685.998C1098.78 687.468 1099.9 688.196 1101.15 688.196C1102.03 688.196 1102.63 687.888 1103.04 687.398V687.678C1103.04 687.888 1103.16 688.014 1103.37 688.014H1104.47C1104.69 688.014 1104.8 687.888 1104.8 687.678V683.562C1104.8 681.742 1103.5 680.818 1101.96 680.818ZM1101.75 686.866C1100.97 686.866 1100.59 686.502 1100.59 685.998C1100.59 685.494 1100.97 685.13 1101.75 685.13C1102.55 685.13 1103.04 685.452 1103.04 685.998C1103.04 686.502 1102.55 686.866 1101.75 686.866ZM1110.16 680.902C1109.46 680.986 1108.88 681.35 1108.58 682.064V681.336C1108.58 681.126 1108.46 681 1108.25 681H1107.11C1106.9 681 1106.77 681.126 1106.77 681.336V687.678C1106.77 687.888 1106.9 688 1107.11 688H1108.25C1108.46 688 1108.58 687.888 1108.58 687.678V684.556C1108.58 683.31 1109.39 682.862 1110.24 682.862C1110.41 682.862 1110.49 682.75 1110.49 682.54V681.21C1110.49 681 1110.38 680.86 1110.16 680.902Z"
      fill="white" />
    <path
      d="M1001.71 636C1001.26 636 1000.82 636.18 1000.5 636.501C1000.18 636.821 1000 637.256 1000 637.709V666.77C1000 667.223 1000.18 667.658 1000.5 667.978C1000.82 668.299 1001.26 668.479 1001.71 668.479C1001.98 668.479 1002.24 668.417 1002.48 668.299C1002.71 668.18 1002.92 668.009 1003.08 667.798L1008.43 661.845L1009 660.979C1011.13 660.26 1009 661 1010.5 660.5C1011.74 659.939 1010.02 660.654 1012 659.979L1012.75 659.999L1022.29 659.932C1022.74 659.932 1023.18 659.752 1023.5 659.431C1023.82 659.111 1024 658.676 1024 658.222C1024 657.968 1023.94 657.716 1023.83 657.486C1023.72 657.256 1023.56 657.054 1023.36 656.894L1003.06 636.648C1002.9 636.446 1002.69 636.283 1002.46 636.171C1002.23 636.058 1001.97 636 1001.71 636Z"
      fill="#009639" />
  </g>
  <g filter="url(#filter1_d_9911_32905)">
    <rect x="744.5" y="46" width="64" height="30" rx="5" fill="#9D0FB0" />
    <path
      d="M754.915 66.196C756.735 66.196 758.289 65.202 758.289 63.326C758.289 61.254 756.441 60.75 755.013 60.232C754.117 59.896 753.445 59.588 753.445 58.86C753.445 58.3 753.907 57.894 754.705 57.894C755.461 57.894 755.937 58.202 756.063 58.86C756.091 59.07 756.203 59.168 756.399 59.168H757.659C757.883 59.168 758.009 59.056 757.995 58.832C757.827 56.9 756.315 56.018 754.705 56.018C753.067 56.018 751.513 56.984 751.513 58.86C751.513 60.946 753.235 61.506 754.649 61.996C755.573 62.332 756.357 62.626 756.357 63.326C756.357 63.9 755.895 64.32 754.915 64.32C753.963 64.32 753.403 63.97 753.291 63.312C753.249 63.088 753.151 62.99 752.941 62.99H751.681C751.471 62.99 751.345 63.102 751.359 63.326C751.513 65.286 753.095 66.196 754.915 66.196ZM762.764 58.818C761.322 58.818 760.104 59.602 759.922 61.044C759.908 61.268 760.048 61.38 760.258 61.38H761.378C761.574 61.38 761.644 61.282 761.728 61.086C761.84 60.708 762.232 60.484 762.764 60.484C763.422 60.484 763.842 60.834 763.842 61.66V62.416C763.436 62.052 762.834 61.786 761.952 61.786C760.706 61.786 759.586 62.528 759.586 63.998C759.586 65.468 760.706 66.196 761.952 66.196C762.834 66.196 763.436 65.888 763.842 65.398V65.678C763.842 65.888 763.968 66.014 764.178 66.014H765.27C765.494 66.014 765.606 65.888 765.606 65.678V61.562C765.606 59.742 764.304 58.818 762.764 58.818ZM762.554 64.866C761.77 64.866 761.392 64.502 761.392 63.998C761.392 63.494 761.77 63.13 762.554 63.13C763.352 63.13 763.842 63.452 763.842 63.998C763.842 64.502 763.352 64.866 762.554 64.866ZM770.961 58.902C770.261 58.986 769.687 59.35 769.379 60.064V59.336C769.379 59.126 769.267 59 769.057 59H767.909C767.699 59 767.573 59.126 767.573 59.336V65.678C767.573 65.888 767.699 66 767.909 66H769.057C769.267 66 769.379 65.888 769.379 65.678V62.556C769.379 61.31 770.191 60.862 771.045 60.862C771.213 60.862 771.297 60.75 771.297 60.54V59.21C771.297 59 771.185 58.86 770.961 58.902ZM775.453 58.818C774.011 58.818 772.793 59.602 772.611 61.044C772.597 61.268 772.737 61.38 772.947 61.38H774.067C774.263 61.38 774.333 61.282 774.417 61.086C774.529 60.708 774.921 60.484 775.453 60.484C776.111 60.484 776.531 60.834 776.531 61.66V62.416C776.125 62.052 775.523 61.786 774.641 61.786C773.395 61.786 772.275 62.528 772.275 63.998C772.275 65.468 773.395 66.196 774.641 66.196C775.523 66.196 776.125 65.888 776.531 65.398V65.678C776.531 65.888 776.657 66.014 776.867 66.014H777.959C778.183 66.014 778.295 65.888 778.295 65.678V61.562C778.295 59.742 776.993 58.818 775.453 58.818ZM775.243 64.866C774.459 64.866 774.081 64.502 774.081 63.998C774.081 63.494 774.459 63.13 775.243 63.13C776.041 63.13 776.531 63.452 776.531 63.998C776.531 64.502 776.041 64.866 775.243 64.866ZM789.582 64.152H786.278V56.536C786.278 56.326 786.166 56.2 785.942 56.2H784.682C784.472 56.2 784.36 56.326 784.36 56.536V65.678C784.36 65.888 784.472 66 784.682 66H785.34H789.582C789.806 66 789.918 65.888 789.918 65.678V64.488C789.918 64.278 789.806 64.152 789.582 64.152ZM791.743 58.02H792.891C793.101 58.02 793.213 57.908 793.213 57.698V56.536C793.213 56.326 793.101 56.2 792.891 56.2H791.743C791.533 56.2 791.407 56.326 791.407 56.536V57.698C791.407 57.908 791.533 58.02 791.743 58.02ZM791.743 66H792.891C793.101 66 793.213 65.888 793.213 65.678V59.336C793.213 59.126 793.101 59 792.891 59H791.743C791.533 59 791.407 59.126 791.407 59.336V65.678C791.407 65.888 791.533 66 791.743 66ZM799.076 58.818C798.208 58.818 797.564 59.14 797.172 59.728V59.336C797.172 59.126 797.06 59 796.836 59H795.702C795.492 59 795.366 59.126 795.366 59.336V65.678C795.366 65.888 795.492 66 795.702 66H796.836C797.06 66 797.172 65.888 797.172 65.678V61.954C797.172 60.904 797.732 60.484 798.432 60.484C799.076 60.484 799.552 60.862 799.552 61.674V65.678C799.552 65.888 799.664 66 799.874 66H801.022C801.232 66 801.358 65.888 801.358 65.678V61.534C801.358 59.812 800.378 58.818 799.076 58.818Z"
      fill="white" />
    <path
      d="M726.714 14C726.26 14 725.824 14.1801 725.502 14.5007C725.181 14.8213 725 15.2561 725 15.7094V44.7696C725 45.223 725.181 45.6578 725.502 45.9784C725.824 46.2989 726.26 46.479 726.714 46.479C726.979 46.4785 727.241 46.4167 727.478 46.2986C727.715 46.1804 727.921 46.009 728.08 45.7979L733.434 39.845L734 38.9795C736.128 38.2598 734 39 735.5 38.5C736.738 37.9393 735.019 38.6536 737 37.9795L737.753 37.9987L747.286 37.9319C747.74 37.9319 748.176 37.7518 748.498 37.4312C748.819 37.1107 749 36.6759 749 36.2225C749 35.9677 748.943 35.7162 748.833 35.4863C748.723 35.2564 748.562 35.0539 748.364 34.8937L728.057 14.6477C727.897 14.4459 727.692 14.2828 727.46 14.1706C727.227 14.0585 726.973 14.0001 726.714 14Z"
      fill="#9D0FB0" />
  </g>
  <g filter="url(#filter2_d_9911_32905)">
    <rect x="1253.5" y="532" width="96" height="30" rx="5" fill="#1A1A1A" />
    <path
      d="M1263.13 552.196C1264.82 552.196 1266.42 551.23 1266.42 549.102V542.536C1266.42 542.326 1266.31 542.2 1266.08 542.2H1264.82C1264.61 542.2 1264.5 542.326 1264.5 542.536V549.102C1264.5 549.914 1264 550.32 1263.13 550.32C1262.37 550.32 1261.88 549.998 1261.78 549.2C1261.76 548.976 1261.64 548.864 1261.45 548.864H1260.17C1259.96 548.864 1259.84 548.976 1259.85 549.214C1260.01 551.314 1261.52 552.196 1263.13 552.196ZM1268.85 544.02H1270C1270.21 544.02 1270.32 543.908 1270.32 543.698V542.536C1270.32 542.326 1270.21 542.2 1270 542.2H1268.85C1268.64 542.2 1268.52 542.326 1268.52 542.536V543.698C1268.52 543.908 1268.64 544.02 1268.85 544.02ZM1268.85 552H1270C1270.21 552 1270.32 551.888 1270.32 551.678V545.336C1270.32 545.126 1270.21 545 1270 545H1268.85C1268.64 545 1268.52 545.126 1268.52 545.336V551.678C1268.52 551.888 1268.64 552 1268.85 552ZM1279.57 544.818C1278.76 544.818 1278.13 545.14 1277.65 545.742C1277.29 545.14 1276.69 544.818 1275.96 544.818C1275.26 544.818 1274.66 545.126 1274.28 545.686V545.336C1274.28 545.126 1274.17 545 1273.96 545H1272.81C1272.6 545 1272.47 545.126 1272.47 545.336V551.678C1272.47 551.888 1272.6 552 1272.81 552H1273.96C1274.17 552 1274.28 551.888 1274.28 551.678V547.674C1274.28 546.764 1274.83 546.484 1275.32 546.484C1275.81 546.484 1276.21 546.722 1276.21 547.422V551.678C1276.21 551.888 1276.34 552 1276.55 552H1277.68C1277.91 552 1278.02 551.888 1278.02 551.678V547.674C1278.02 546.764 1278.56 546.484 1279.05 546.484C1279.53 546.484 1279.95 546.722 1279.95 547.422V551.678C1279.95 551.888 1280.06 552 1280.29 552H1281.42C1281.63 552 1281.76 551.888 1281.76 551.678V547.282C1281.76 545.672 1280.9 544.818 1279.57 544.818ZM1290.8 544.818C1289.99 544.818 1289.36 545.14 1288.89 545.742C1288.52 545.14 1287.92 544.818 1287.19 544.818C1286.49 544.818 1285.89 545.126 1285.51 545.686V545.336C1285.51 545.126 1285.4 545 1285.19 545H1284.04C1283.83 545 1283.71 545.126 1283.71 545.336V551.678C1283.71 551.888 1283.83 552 1284.04 552H1285.19C1285.4 552 1285.51 551.888 1285.51 551.678V547.674C1285.51 546.764 1286.06 546.484 1286.55 546.484C1287.04 546.484 1287.44 546.722 1287.44 547.422V551.678C1287.44 551.888 1287.57 552 1287.78 552H1288.91C1289.14 552 1289.25 551.888 1289.25 551.678V547.674C1289.25 546.764 1289.8 546.484 1290.29 546.484C1290.76 546.484 1291.18 546.722 1291.18 547.422V551.678C1291.18 551.888 1291.29 552 1291.52 552H1292.65C1292.86 552 1292.99 551.888 1292.99 551.678V547.282C1292.99 545.672 1292.13 544.818 1290.8 544.818ZM1298.93 545.28L1297.59 549.41L1296.02 545.266C1295.96 545.098 1295.84 545 1295.66 545H1294.42C1294.17 545 1294.07 545.168 1294.16 545.392L1296.68 551.902L1295.82 554.436C1295.74 554.674 1295.87 554.8 1296.1 554.8H1297.34C1297.52 554.8 1297.67 554.73 1297.73 554.534L1300.81 545.378C1300.89 545.14 1300.78 545 1300.54 545H1299.3C1299.11 545 1298.99 545.098 1298.93 545.28ZM1317.5 542.2H1316.19C1315.99 542.2 1315.86 542.312 1315.82 542.494L1313.93 549.55L1312.06 542.494C1312.01 542.312 1311.89 542.2 1311.69 542.2H1310.57C1310.33 542.2 1310.24 542.34 1310.29 542.578L1310.87 544.566L1309.47 549.55L1307.58 542.494C1307.53 542.312 1307.41 542.2 1307.21 542.2H1305.9C1305.66 542.2 1305.55 542.34 1305.62 542.578L1308.22 551.72C1308.26 551.916 1308.4 552 1308.58 552H1310.14C1310.32 552 1310.45 551.916 1310.5 551.72L1311.71 547.52L1312.9 551.72C1312.95 551.916 1313.08 552 1313.27 552H1314.81C1315 552 1315.14 551.916 1315.19 551.72L1317.78 542.578C1317.85 542.34 1317.74 542.2 1317.5 542.2ZM1321.96 552.196C1324 552.196 1325.66 550.586 1325.66 548.5C1325.66 546.428 1324 544.818 1321.96 544.818C1319.9 544.818 1318.25 546.428 1318.25 548.5C1318.25 550.586 1319.9 552.196 1321.96 552.196ZM1321.96 550.432C1320.88 550.432 1320.06 549.634 1320.06 548.5C1320.06 547.366 1320.88 546.568 1321.96 546.568C1323.02 546.568 1323.85 547.366 1323.85 548.5C1323.85 549.634 1323.02 550.432 1321.96 550.432ZM1331.14 544.818C1330.27 544.818 1329.63 545.14 1329.23 545.728V545.336C1329.23 545.126 1329.12 545 1328.9 545H1327.76C1327.55 545 1327.43 545.126 1327.43 545.336V551.678C1327.43 551.888 1327.55 552 1327.76 552H1328.9C1329.12 552 1329.23 551.888 1329.23 551.678V547.954C1329.23 546.904 1329.79 546.484 1330.49 546.484C1331.14 546.484 1331.61 546.862 1331.61 547.674V551.678C1331.61 551.888 1331.73 552 1331.94 552H1333.08C1333.29 552 1333.42 551.888 1333.42 551.678V547.534C1333.42 545.812 1332.44 544.818 1331.14 544.818ZM1342.17 545H1341.08C1340.87 545 1340.74 545.126 1340.74 545.336V545.868C1340.24 545.224 1339.48 544.818 1338.43 544.818C1336.55 544.818 1335.01 546.428 1335.01 548.402C1335.01 550.376 1336.55 551.986 1338.43 551.986C1339.48 551.986 1340.24 551.58 1340.74 550.936V551.678C1340.74 552.77 1340.05 553.386 1338.93 553.386C1338.01 553.386 1337.45 552.98 1337.3 552.49C1337.23 552.308 1337.13 552.196 1336.93 552.196H1335.78C1335.57 552.196 1335.43 552.322 1335.45 552.546C1335.66 554.142 1337.24 554.996 1338.93 554.996C1340.68 554.996 1342.5 553.974 1342.5 551.678V545.336C1342.5 545.126 1342.39 545 1342.17 545ZM1338.78 550.306C1337.65 550.306 1336.82 549.508 1336.82 548.402C1336.82 547.282 1337.65 546.484 1338.78 546.484C1339.91 546.484 1340.74 547.282 1340.74 548.402C1340.74 549.508 1339.91 550.306 1338.78 550.306Z"
      fill="white" />
    <path
      d="M1237.71 500C1237.26 500 1236.82 500.18 1236.5 500.501C1236.18 500.821 1236 501.256 1236 501.709V530.77C1236 531.223 1236.18 531.658 1236.5 531.978C1236.82 532.299 1237.26 532.479 1237.71 532.479C1237.98 532.479 1238.24 532.417 1238.48 532.299C1238.71 532.18 1238.92 532.009 1239.08 531.798L1244.43 525.845L1245 524.979C1247.13 524.26 1245 525 1246.5 524.5C1247.74 523.939 1246.02 524.654 1248 523.979L1248.75 523.999L1258.29 523.932C1258.74 523.932 1259.18 523.752 1259.5 523.431C1259.82 523.111 1260 522.676 1260 522.222C1260 521.968 1259.94 521.716 1259.83 521.486C1259.72 521.256 1259.56 521.054 1259.36 520.894L1239.06 500.648C1238.9 500.446 1238.69 500.283 1238.46 500.171C1238.23 500.058 1237.97 500 1237.71 500Z"
      fill="#1A1A1A" />
  </g>
  <rect x="435.5" y="111.5" width="855" height="250" fill="#326CE5" fill-opacity="0.1" stroke="#326CE5"
    stroke-width="5" />
  <path
    d="M428.475 222.475C429.842 221.108 429.842 218.892 428.475 217.525L406.201 195.251C404.834 193.884 402.618 193.884 401.251 195.251C399.884 196.618 399.884 198.834 401.251 200.201L421.05 220L401.251 239.799C399.884 241.166 399.884 243.382 401.251 244.749C402.618 246.116 404.834 246.116 406.201 244.749L428.475 222.475ZM184 223.5L426 223.5L426 216.5L184 216.5L184 223.5Z"
    fill="#D62783" />
  <path
    d="M879.387 178C870.15 162 847.056 162 837.818 178L792.785 256C783.547 272 795.094 292 813.569 292H903.636C922.111 292 933.658 272 924.42 256L879.387 178Z"
    fill="#326CE5" />
  <g clip-path="url(#clip1_9911_32905)">
    <path
      d="M852.956 246.219C853.063 246.199 853.171 246.191 853.28 246.196C853.467 246.205 853.65 246.251 853.819 246.329C854.146 246.479 854.399 246.744 854.526 247.068C854.653 247.391 854.644 247.749 854.501 248.066L854.511 248.08L851.285 255.497C848.199 253.623 845.857 250.823 844.63 247.54L852.942 246.203L852.956 246.219ZM865.89 247.271C865.959 246.978 866.13 246.717 866.375 246.528C866.62 246.339 866.924 246.234 867.239 246.229C867.332 246.228 867.425 246.236 867.516 246.252L867.53 246.236L875.77 247.567C874.533 250.824 872.201 253.602 869.136 255.469L865.943 248.124L865.968 248.096C865.85 247.836 865.822 247.547 865.89 247.271ZM858.989 250.151C859.109 249.937 859.288 249.759 859.507 249.635C859.725 249.51 859.975 249.445 860.23 249.445C860.484 249.445 860.734 249.511 860.952 249.636C861.17 249.761 861.349 249.94 861.469 250.154H861.476L865.528 257.128C862.626 258.069 859.507 258.221 856.52 257.569C855.966 257.449 855.425 257.305 854.897 257.138L858.958 250.151L858.989 250.151ZM846.162 233.95L852.396 239.261L852.393 239.278C852.584 239.437 852.727 239.643 852.805 239.873C852.884 240.104 852.895 240.35 852.839 240.586C852.782 240.822 852.659 241.039 852.484 241.214C852.308 241.389 852.086 241.516 851.84 241.58L851.833 241.612L843.758 243.827C843.409 240.373 844.253 236.906 846.162 233.95V233.95ZM857.744 234.545C857.732 234.787 857.652 235.021 857.512 235.223C857.371 235.425 857.176 235.587 856.947 235.692C856.717 235.797 856.462 235.84 856.209 235.818C855.956 235.796 855.713 235.71 855.508 235.567L855.483 235.577L848.661 230.973C851.258 228.552 854.618 227.01 858.226 226.584L857.752 234.542L857.744 234.545ZM864.968 235.597C864.762 235.739 864.52 235.826 864.266 235.847C864.013 235.869 863.758 235.825 863.529 235.719C863.3 235.614 863.105 235.452 862.965 235.249C862.826 235.047 862.746 234.813 862.735 234.571L862.7 234.555L862.226 226.584C862.798 226.649 863.367 226.742 863.929 226.863C866.919 227.503 869.662 228.926 871.848 230.971L864.981 235.604L864.968 235.597ZM868.629 241.619C868.383 241.555 868.16 241.429 867.984 241.254C867.807 241.079 867.684 240.862 867.627 240.626C867.571 240.389 867.582 240.143 867.661 239.912C867.74 239.681 867.883 239.476 868.076 239.317L868.069 239.285L874.338 233.948C876.25 236.911 877.071 240.396 876.67 243.853L868.635 241.646L868.629 241.619ZM862.54 243.964L860.227 245.022L857.922 243.966L857.349 241.597L858.945 239.697H861.513L863.113 241.594L862.54 243.964Z"
      fill="white" />
    <path
      d="M821.999 248.632L828.588 221.386C828.765 220.681 829.105 220.023 829.582 219.458C830.059 218.893 830.661 218.436 831.346 218.12L858.019 205.997C858.711 205.683 859.467 205.521 860.233 205.521C860.999 205.521 861.755 205.683 862.446 205.997L889.114 218.126C889.799 218.442 890.402 218.899 890.879 219.464C891.357 220.029 891.696 220.688 891.873 221.392L898.452 248.637C898.614 249.326 898.615 250.04 898.454 250.729C898.406 250.939 898.344 251.145 898.268 251.347C898.139 251.692 897.969 252.022 897.76 252.329C897.67 252.46 897.574 252.588 897.471 252.712L879.012 274.558C878.931 274.653 878.842 274.74 878.754 274.828C878.464 275.122 878.137 275.38 877.781 275.596C877.329 275.866 876.837 276.07 876.322 276.2C875.899 276.31 875.463 276.367 875.024 276.37H874.737L845.423 276.364C845.245 276.363 845.067 276.353 844.89 276.334C844.636 276.306 844.385 276.261 844.138 276.198C843.961 276.153 843.786 276.1 843.615 276.038C843.482 275.99 843.349 275.941 843.22 275.883C843.028 275.795 842.841 275.696 842.661 275.587C842.196 275.309 841.783 274.96 841.436 274.555L840.874 273.889L822.984 252.705C822.641 252.295 822.372 251.835 822.187 251.342C822.109 251.139 822.046 250.932 821.997 250.721C821.836 250.033 821.836 249.318 821.999 248.63L821.999 248.632ZM849.665 259.228C849.59 259.438 849.501 259.643 849.399 259.841C849.562 260.113 849.606 260.435 849.522 260.738C849.134 261.584 848.66 262.392 848.107 263.15C847.798 263.538 847.512 263.942 847.251 264.361C847.187 264.475 847.103 264.65 847.042 264.77C846.927 264.953 846.854 265.157 846.826 265.368C846.799 265.579 846.819 265.794 846.884 265.998C846.949 266.202 847.058 266.39 847.204 266.551C847.35 266.713 847.531 266.843 847.733 266.934C847.935 267.025 848.155 267.075 848.379 267.08C848.603 267.085 848.825 267.046 849.032 266.964C849.239 266.883 849.425 266.761 849.579 266.607C849.734 266.453 849.852 266.269 849.928 266.069C849.989 265.95 850.074 265.792 850.125 265.679C850.308 265.224 850.462 264.759 850.589 264.287C850.866 263.403 851.232 262.547 851.684 261.732C851.881 261.479 852.173 261.31 852.499 261.261C852.55 261.177 852.739 260.847 852.84 260.677C857.588 262.388 862.833 262.375 867.571 260.641L867.933 261.264C868.19 261.302 868.43 261.413 868.621 261.583C869.165 262.433 869.581 263.352 869.857 264.313C869.982 264.785 870.136 265.25 870.317 265.705C870.368 265.817 870.454 265.973 870.515 266.091V266.095L870.517 266.098C870.593 266.298 870.712 266.482 870.866 266.636C871.02 266.791 871.207 266.913 871.414 266.994C871.621 267.076 871.844 267.115 872.068 267.11C872.292 267.104 872.512 267.054 872.714 266.963C872.917 266.871 873.097 266.741 873.243 266.579C873.389 266.417 873.497 266.228 873.562 266.024C873.627 265.82 873.645 265.605 873.617 265.393C873.589 265.182 873.515 264.978 873.399 264.796C873.339 264.675 873.258 264.501 873.195 264.387C872.935 263.967 872.649 263.561 872.339 263.173C871.776 262.394 871.292 261.567 870.895 260.701C870.852 260.407 870.902 260.108 871.037 259.841L870.746 259.179C875.115 256.724 878.389 252.833 879.952 248.239L880.647 248.351C880.917 248.169 881.235 248.062 881.565 248.043C882.517 248.217 883.449 248.478 884.348 248.823C884.814 249.023 885.293 249.197 885.78 249.345C885.895 249.375 886.062 249.405 886.193 249.433C886.204 249.436 886.213 249.441 886.224 249.443C886.232 249.444 886.24 249.445 886.248 249.445C886.46 249.512 886.684 249.535 886.906 249.514C887.128 249.494 887.343 249.429 887.537 249.324C887.731 249.22 887.901 249.078 888.034 248.908C888.167 248.737 888.261 248.543 888.311 248.336C888.361 248.129 888.364 247.914 888.322 247.706C888.279 247.497 888.191 247.299 888.064 247.125C887.936 246.951 887.772 246.804 887.581 246.694C887.391 246.583 887.178 246.512 886.957 246.485L886.934 246.479L886.92 246.476C886.786 246.446 886.616 246.404 886.494 246.381C885.986 246.314 885.474 246.275 884.962 246.264C883.995 246.204 883.037 246.054 882.101 245.817C881.824 245.648 881.589 245.423 881.415 245.158L880.747 244.972C881.472 240.177 880.312 235.296 877.489 231.265L878.001 230.83C878.019 230.515 878.13 230.211 878.321 229.953C879.057 229.352 879.852 228.82 880.696 228.366C881.151 228.144 881.593 227.898 882.019 227.629C882.116 227.56 882.244 227.457 882.35 227.375L882.373 227.36C882.736 227.111 882.982 226.736 883.055 226.317C883.129 225.897 883.025 225.467 882.766 225.12C882.613 224.941 882.418 224.8 882.197 224.707C881.976 224.614 881.735 224.572 881.494 224.584C881.088 224.6 880.698 224.74 880.381 224.983C880.273 225.064 880.124 225.173 880.028 225.252C879.656 225.586 879.305 225.941 878.976 226.314C878.324 226.996 877.603 227.616 876.824 228.165C876.532 228.311 876.192 228.343 875.876 228.253C875.686 228.385 875.494 228.514 875.3 228.642C872.495 225.804 868.863 223.829 864.87 222.97C863.919 222.765 862.955 222.624 861.984 222.548L861.946 221.906C861.698 221.696 861.518 221.423 861.428 221.119C861.393 220.197 861.453 219.274 861.606 218.364C861.707 217.886 861.78 217.404 861.824 216.918C861.828 216.808 861.821 216.655 861.82 216.529C861.82 216.515 861.824 216.501 861.824 216.487C861.846 216.274 861.822 216.06 861.752 215.857C861.682 215.654 861.568 215.467 861.418 215.309C861.268 215.15 861.084 215.024 860.879 214.937C860.674 214.85 860.452 214.805 860.228 214.805C860.004 214.805 859.782 214.85 859.577 214.936C859.372 215.023 859.188 215.149 859.038 215.308C858.887 215.466 858.773 215.653 858.703 215.855C858.633 216.058 858.608 216.273 858.631 216.485C858.631 216.618 858.623 216.795 858.628 216.917C858.671 217.402 858.744 217.885 858.847 218.362C859.001 219.273 859.061 220.196 859.027 221.118C858.964 221.427 858.777 221.699 858.506 221.878C858.5 221.988 858.481 222.354 858.467 222.556C853.421 222.993 848.713 225.159 845.217 228.651L844.61 228.238C844.283 228.291 843.948 228.256 843.641 228.138C842.863 227.588 842.142 226.967 841.489 226.284C841.16 225.911 840.808 225.556 840.435 225.222C840.337 225.142 840.189 225.035 840.081 224.954C839.921 224.803 839.729 224.687 839.519 224.611C839.308 224.536 839.083 224.504 838.859 224.517C838.634 224.529 838.415 224.587 838.215 224.686C838.016 224.784 837.84 224.922 837.7 225.089C837.56 225.257 837.458 225.45 837.402 225.658C837.345 225.865 837.335 226.081 837.372 226.292C837.409 226.504 837.492 226.705 837.617 226.884C837.741 227.062 837.903 227.214 838.092 227.329C838.2 227.411 838.341 227.526 838.444 227.599C838.871 227.869 839.314 228.115 839.77 228.336C840.614 228.79 841.409 229.322 842.144 229.923C842.358 230.162 842.466 230.471 842.444 230.784C842.533 230.862 842.845 231.125 843.01 231.267C840.179 235.284 838.996 240.15 839.685 244.942L839.04 245.121C838.879 245.397 838.641 245.625 838.352 245.78C837.415 246.018 836.457 246.168 835.49 246.229C834.978 246.24 834.467 246.279 833.959 246.345C833.825 246.369 833.631 246.42 833.494 246.45C833.273 246.477 833.06 246.549 832.87 246.659C832.679 246.769 832.515 246.916 832.388 247.091C832.26 247.265 832.172 247.463 832.13 247.671C832.087 247.88 832.091 248.094 832.141 248.301C832.191 248.508 832.285 248.703 832.418 248.873C832.552 249.044 832.721 249.185 832.915 249.29C833.109 249.394 833.324 249.459 833.546 249.479C833.768 249.5 833.992 249.477 834.204 249.41L834.227 249.407C834.238 249.405 834.248 249.399 834.259 249.397C834.39 249.369 834.556 249.342 834.671 249.313C835.158 249.164 835.636 248.988 836.103 248.787C837.002 248.442 837.935 248.181 838.888 248.007C839.217 247.998 839.538 248.111 839.781 248.323C840.008 248.282 840.235 248.244 840.463 248.209C842.007 252.832 845.281 256.754 849.665 259.228Z"
      fill="white" />
  </g>
  <path
    d="M36.84 312.36V327.54C36.84 327.839 37.001 328 37.3 328H37.99C38.289 328 38.45 327.839 38.45 327.54V312.36C38.45 312.061 38.289 311.9 37.99 311.9H37.3C37.001 311.9 36.84 312.061 36.84 312.36ZM46.9708 316.224C45.5678 316.224 44.3258 316.661 43.4288 318.041V316.96C43.4288 316.661 43.2678 316.5 42.9688 316.5H42.3708C42.0718 316.5 41.9108 316.661 41.9108 316.96V327.54C41.9108 327.839 42.0718 328 42.3708 328H42.9688C43.2678 328 43.4288 327.839 43.4288 327.54V321.514C43.4288 318.662 45.1308 317.696 46.6948 317.696C48.2358 317.696 49.3628 318.662 49.3628 320.479V327.54C49.3628 327.839 49.5238 328 49.8228 328H50.4208C50.7198 328 50.8808 327.839 50.8808 327.54V320.479C50.8808 317.834 49.1098 316.224 46.9708 316.224ZM64.7631 316.5H64.1651C63.8661 316.5 63.7051 316.661 63.7051 316.96V318.754C62.7391 317.213 61.1061 316.224 59.0591 316.224C55.8161 316.224 53.1251 318.846 53.1251 322.25C53.1251 325.654 55.8161 328.276 59.0591 328.276C61.1061 328.276 62.7391 327.31 63.7051 325.769V327.54C63.7051 329.886 62.2331 331.404 59.4501 331.404C57.2191 331.404 55.8161 330.116 55.5171 328.989C55.4481 328.713 55.3101 328.575 55.0341 328.575H54.4361C54.1371 328.575 53.9531 328.736 53.9761 329.058C54.2981 331.243 56.8281 332.876 59.4501 332.876C62.5321 332.876 65.2231 331.036 65.2231 327.54V316.96C65.2231 316.661 65.0621 316.5 64.7631 316.5ZM59.1741 326.804C56.6211 326.804 54.6431 324.803 54.6431 322.25C54.6431 319.697 56.6211 317.696 59.1741 317.696C61.7271 317.696 63.7051 319.697 63.7051 322.25C63.7051 324.803 61.7271 326.804 59.1741 326.804ZM73.1291 316.339C71.8641 316.454 70.7371 316.96 69.9551 318.271V316.96C69.9551 316.661 69.7941 316.5 69.4951 316.5H68.8971C68.5981 316.5 68.4371 316.661 68.4371 316.96V327.54C68.4371 327.839 68.5981 328 68.8971 328H69.4951C69.7941 328 69.9551 327.839 69.9551 327.54V321.606C69.9551 318.915 71.5651 317.903 73.2901 317.788C73.4741 317.788 73.5891 317.604 73.5891 317.328V316.776C73.5891 316.477 73.4281 316.316 73.1291 316.339ZM80.1713 316.224C76.6063 316.224 74.2833 318.869 74.2833 322.25C74.2833 325.723 76.6523 328.276 80.1713 328.276C82.5173 328.276 84.4033 327.057 85.1853 325.309C85.3003 325.033 85.1163 324.849 84.7713 324.849H84.0353C83.7823 324.849 83.6213 324.964 83.4833 325.171C82.9083 326.114 81.7353 326.804 80.1943 326.804C77.8483 326.804 76.1463 325.355 75.8473 323.009H84.1963H85.2773C85.5533 323.009 85.7373 322.871 85.7603 322.572V322.296C85.7603 319.145 83.6903 316.224 80.1713 316.224ZM80.1713 317.696C82.1263 317.696 83.8973 319.007 84.1733 321.537H75.8243C76.1233 319.306 77.7333 317.696 80.1713 317.696ZM89.241 319.513C89.241 318.225 90.529 317.696 91.748 317.696C92.852 317.696 94.002 318.133 94.209 319.398C94.278 319.674 94.416 319.835 94.692 319.835H95.29C95.589 319.835 95.773 319.674 95.75 319.352C95.52 317.42 93.91 316.224 91.748 316.224C89.425 316.224 87.723 317.627 87.723 319.513C87.723 323.814 94.485 322.066 94.485 324.987C94.485 326.275 93.197 326.804 91.748 326.804C90.437 326.804 89.264 326.367 89.057 325.102C88.988 324.826 88.85 324.665 88.574 324.665H87.976C87.677 324.665 87.493 324.826 87.516 325.148C87.746 327.08 89.379 328.276 91.748 328.276C94.301 328.276 96.003 326.873 96.003 324.987C96.003 320.686 89.241 322.434 89.241 319.513ZM99.5955 319.513C99.5955 318.225 100.884 317.696 102.103 317.696C103.207 317.696 104.357 318.133 104.564 319.398C104.633 319.674 104.771 319.835 105.047 319.835H105.645C105.944 319.835 106.128 319.674 106.105 319.352C105.875 317.42 104.265 316.224 102.103 316.224C99.7795 316.224 98.0775 317.627 98.0775 319.513C98.0775 323.814 104.84 322.066 104.84 324.987C104.84 326.275 103.552 326.804 102.103 326.804C100.792 326.804 99.6185 326.367 99.4115 325.102C99.3425 324.826 99.2045 324.665 98.9285 324.665H98.3305C98.0315 324.665 97.8475 324.826 97.8705 325.148C98.1005 327.08 99.7335 328.276 102.103 328.276C104.656 328.276 106.358 326.873 106.358 324.987C106.358 320.686 99.5955 322.434 99.5955 319.513ZM129.472 319.881H123.262C122.963 319.881 122.802 320.042 122.802 320.341V320.939C122.802 321.238 122.963 321.399 123.262 321.399H128.322V321.79C128.322 324.987 125.585 326.712 122.388 326.712C118.432 326.712 115.672 323.699 115.672 319.95C115.672 316.201 118.432 313.188 122.388 313.188C124.895 313.188 127.08 314.568 128.023 316.615C128.138 316.845 128.322 316.96 128.575 316.96H129.38C129.702 316.96 129.863 316.753 129.748 316.431C128.621 313.579 125.723 311.624 122.388 311.624C117.558 311.624 114.062 315.35 114.062 319.95C114.062 324.55 117.558 328.276 122.388 328.276C124.78 328.276 127.08 327.425 128.299 325.539V327.54C128.299 327.839 128.46 328 128.759 328H129.449C129.748 328 129.909 327.839 129.909 327.54V321.399V320.341C129.909 320.042 129.748 319.881 129.449 319.881H129.472ZM137.175 316.224C134.783 316.224 133.081 317.627 132.828 319.582C132.805 319.904 132.989 320.065 133.288 320.065H133.886C134.162 320.065 134.3 319.904 134.369 319.628C134.599 318.317 135.841 317.696 137.175 317.696C138.647 317.696 140.027 318.455 140.027 320.525V322.388C139.245 321.399 137.911 320.87 136.462 320.87C134.346 320.87 132.345 322.089 132.345 324.573C132.345 327.057 134.346 328.276 136.462 328.276C137.911 328.276 139.245 327.839 140.027 326.712V327.54C140.027 327.839 140.188 328 140.487 328H141.085C141.384 328 141.545 327.839 141.545 327.54V320.525C141.545 317.857 139.751 316.224 137.175 316.224ZM136.83 326.85C134.783 326.85 133.863 325.884 133.863 324.573C133.863 323.262 134.783 322.296 136.83 322.296C138.67 322.296 140.027 323.17 140.027 324.573C140.027 325.884 138.67 326.85 136.83 326.85ZM149.205 316.5H147.273V313.28C147.273 312.981 147.112 312.82 146.813 312.82H146.215C145.916 312.82 145.755 312.981 145.755 313.28V316.5H143.8C143.501 316.5 143.34 316.661 143.34 316.96V317.512C143.34 317.811 143.501 317.972 143.8 317.972H145.755V327.54C145.755 327.839 145.916 328 146.215 328H146.813C147.112 328 147.273 327.839 147.273 327.54V317.972H149.205C149.504 317.972 149.665 317.811 149.665 317.512V316.96C149.665 316.661 149.504 316.5 149.205 316.5ZM156.494 316.224C152.929 316.224 150.606 318.869 150.606 322.25C150.606 325.723 152.975 328.276 156.494 328.276C158.84 328.276 160.726 327.057 161.508 325.309C161.623 325.033 161.439 324.849 161.094 324.849H160.358C160.105 324.849 159.944 324.964 159.806 325.171C159.231 326.114 158.058 326.804 156.517 326.804C154.171 326.804 152.469 325.355 152.17 323.009H160.519H161.6C161.876 323.009 162.06 322.871 162.083 322.572V322.296C162.083 319.145 160.013 316.224 156.494 316.224ZM156.494 317.696C158.449 317.696 160.22 319.007 160.496 321.537H152.147C152.446 319.306 154.056 317.696 156.494 317.696ZM177.414 316.5H176.747C176.494 316.5 176.333 316.615 176.241 316.868L173.136 326.229L170.031 316.868C169.939 316.615 169.778 316.5 169.525 316.5H168.858C168.536 316.5 168.375 316.707 168.49 317.029L169.64 320.41L167.616 326.275L164.511 316.868C164.419 316.615 164.258 316.5 164.005 316.5H163.338C163.016 316.5 162.855 316.707 162.97 317.029L166.65 327.632C166.742 327.885 166.926 328 167.179 328H167.57H168.053C168.306 328 168.49 327.885 168.582 327.632L170.376 322.526L172.17 327.632C172.262 327.885 172.446 328 172.699 328H173.09H173.573C173.826 328 174.01 327.885 174.102 327.632L177.782 317.029C177.897 316.707 177.736 316.5 177.414 316.5ZM183.602 316.224C181.21 316.224 179.508 317.627 179.255 319.582C179.232 319.904 179.416 320.065 179.715 320.065H180.313C180.589 320.065 180.727 319.904 180.796 319.628C181.026 318.317 182.268 317.696 183.602 317.696C185.074 317.696 186.454 318.455 186.454 320.525V322.388C185.672 321.399 184.338 320.87 182.889 320.87C180.773 320.87 178.772 322.089 178.772 324.573C178.772 327.057 180.773 328.276 182.889 328.276C184.338 328.276 185.672 327.839 186.454 326.712V327.54C186.454 327.839 186.615 328 186.914 328H187.512C187.811 328 187.972 327.839 187.972 327.54V320.525C187.972 317.857 186.178 316.224 183.602 316.224ZM183.257 326.85C181.21 326.85 180.29 325.884 180.29 324.573C180.29 323.262 181.21 322.296 183.257 322.296C185.097 322.296 186.454 323.17 186.454 324.573C186.454 325.884 185.097 326.85 183.257 326.85ZM197.914 316.868L194.74 325.792L191.06 316.845C190.968 316.592 190.784 316.5 190.531 316.5H189.887C189.542 316.5 189.404 316.707 189.542 317.029L193.981 327.908L192.509 332.071C192.394 332.393 192.555 332.6 192.877 332.6H193.544C193.797 332.6 193.981 332.485 194.073 332.232L199.478 317.029C199.593 316.707 199.432 316.5 199.11 316.5H198.443C198.19 316.5 198.006 316.615 197.914 316.868Z"
    fill="currentColor" />
  <path
    d="M525.555 327.276C528.269 327.276 530.73 325.62 530.73 322.929C530.73 319.962 527.97 319.065 525.532 318.122C523.6 317.386 521.99 316.673 521.99 314.833C521.99 313.131 523.462 312.188 525.233 312.188C527.027 312.188 528.43 313.085 528.637 314.787C528.66 315.063 528.821 315.224 529.097 315.224H529.81C530.109 315.224 530.27 315.063 530.247 314.741C530.017 312.096 527.786 310.624 525.233 310.624C522.726 310.624 520.38 312.165 520.38 314.833C520.38 317.961 523.071 318.789 525.509 319.709C527.418 320.422 529.12 321.181 529.12 322.929C529.12 324.654 527.533 325.712 525.555 325.712C523.393 325.712 521.783 324.7 521.553 322.791C521.53 322.492 521.369 322.331 521.093 322.331H520.38C520.081 322.331 519.92 322.492 519.943 322.814C520.173 325.689 522.657 327.276 525.555 327.276ZM538.454 315.224C534.889 315.224 532.566 317.869 532.566 321.25C532.566 324.723 534.935 327.276 538.454 327.276C540.8 327.276 542.686 326.057 543.468 324.309C543.583 324.033 543.399 323.849 543.054 323.849H542.318C542.065 323.849 541.904 323.964 541.766 324.171C541.191 325.114 540.018 325.804 538.477 325.804C536.131 325.804 534.429 324.355 534.13 322.009H542.479H543.56C543.836 322.009 544.02 321.871 544.043 321.572V321.296C544.043 318.145 541.973 315.224 538.454 315.224ZM538.454 316.696C540.409 316.696 542.18 318.007 542.456 320.537H534.107C534.406 318.306 536.016 316.696 538.454 316.696ZM551.042 315.339C549.777 315.454 548.65 315.96 547.868 317.271V315.96C547.868 315.661 547.707 315.5 547.408 315.5H546.81C546.511 315.5 546.35 315.661 546.35 315.96V326.54C546.35 326.839 546.511 327 546.81 327H547.408C547.707 327 547.868 326.839 547.868 326.54V320.606C547.868 317.915 549.478 316.903 551.203 316.788C551.387 316.788 551.502 316.604 551.502 316.328V315.776C551.502 315.477 551.341 315.316 551.042 315.339ZM561.978 315.5H561.334C561.081 315.5 560.897 315.615 560.805 315.868L557.378 325.344L553.951 315.868C553.859 315.615 553.675 315.5 553.422 315.5H552.778C552.456 315.5 552.295 315.707 552.41 316.029L556.32 326.632C556.412 326.862 556.596 327 556.849 327H557.332H557.907C558.16 327 558.344 326.885 558.436 326.632L562.346 316.029C562.461 315.707 562.3 315.5 561.978 315.5ZM564.846 313.2H565.444C565.743 313.2 565.904 313.039 565.904 312.74V311.36C565.904 311.061 565.743 310.9 565.444 310.9H564.846C564.547 310.9 564.386 311.061 564.386 311.36V312.74C564.386 313.039 564.547 313.2 564.846 313.2ZM564.846 327H565.444C565.743 327 565.904 326.839 565.904 326.54V315.96C565.904 315.661 565.743 315.5 565.444 315.5H564.846C564.547 315.5 564.386 315.661 564.386 315.96V326.54C564.386 326.839 564.547 327 564.846 327ZM579.453 323.32H578.786C578.533 323.32 578.349 323.435 578.234 323.665C577.567 324.953 576.164 325.804 574.485 325.804C571.932 325.804 569.954 323.803 569.954 321.25C569.954 318.697 571.932 316.696 574.485 316.696C576.141 316.696 577.544 317.524 578.234 318.835C578.349 319.065 578.533 319.18 578.786 319.18H579.453C579.775 319.18 579.959 318.973 579.821 318.651C578.993 316.604 576.923 315.224 574.485 315.224C571.012 315.224 568.436 317.846 568.436 321.25C568.436 324.654 571.012 327.276 574.485 327.276C576.923 327.276 579.016 325.896 579.821 323.849C579.959 323.527 579.775 323.32 579.453 323.32ZM587.508 315.224C583.943 315.224 581.62 317.869 581.62 321.25C581.62 324.723 583.989 327.276 587.508 327.276C589.854 327.276 591.74 326.057 592.522 324.309C592.637 324.033 592.453 323.849 592.108 323.849H591.372C591.119 323.849 590.958 323.964 590.82 324.171C590.245 325.114 589.072 325.804 587.531 325.804C585.185 325.804 583.483 324.355 583.184 322.009H591.533H592.614C592.89 322.009 593.074 321.871 593.097 321.572V321.296C593.097 318.145 591.027 315.224 587.508 315.224ZM587.508 316.696C589.463 316.696 591.234 318.007 591.51 320.537H583.161C583.46 318.306 585.07 316.696 587.508 316.696ZM601.385 311.36V326.54C601.385 326.839 601.546 327 601.845 327H602.535C602.834 327 602.995 326.839 602.995 326.54V311.36C602.995 311.061 602.834 310.9 602.535 310.9H601.845C601.546 310.9 601.385 311.061 601.385 311.36ZM611.516 315.224C610.113 315.224 608.871 315.661 607.974 317.041V315.96C607.974 315.661 607.813 315.5 607.514 315.5H606.916C606.617 315.5 606.456 315.661 606.456 315.96V326.54C606.456 326.839 606.617 327 606.916 327H607.514C607.813 327 607.974 326.839 607.974 326.54V320.514C607.974 317.662 609.676 316.696 611.24 316.696C612.781 316.696 613.908 317.662 613.908 319.479V326.54C613.908 326.839 614.069 327 614.368 327H614.966C615.265 327 615.426 326.839 615.426 326.54V319.479C615.426 316.834 613.655 315.224 611.516 315.224ZM623.075 315.5H621.143V312.28C621.143 311.981 620.982 311.82 620.683 311.82H620.085C619.786 311.82 619.625 311.981 619.625 312.28V315.5H617.67C617.371 315.5 617.21 315.661 617.21 315.96V316.512C617.21 316.811 617.371 316.972 617.67 316.972H619.625V326.54C619.625 326.839 619.786 327 620.085 327H620.683C620.982 327 621.143 326.839 621.143 326.54V316.972H623.075C623.374 316.972 623.535 316.811 623.535 316.512V315.96C623.535 315.661 623.374 315.5 623.075 315.5ZM630.364 315.224C626.799 315.224 624.476 317.869 624.476 321.25C624.476 324.723 626.845 327.276 630.364 327.276C632.71 327.276 634.596 326.057 635.378 324.309C635.493 324.033 635.309 323.849 634.964 323.849H634.228C633.975 323.849 633.814 323.964 633.676 324.171C633.101 325.114 631.928 325.804 630.387 325.804C628.041 325.804 626.339 324.355 626.04 322.009H634.389H635.47C635.746 322.009 635.93 321.871 635.953 321.572V321.296C635.953 318.145 633.883 315.224 630.364 315.224ZM630.364 316.696C632.319 316.696 634.09 318.007 634.366 320.537H626.017C626.316 318.306 627.926 316.696 630.364 316.696ZM642.952 315.339C641.687 315.454 640.56 315.96 639.778 317.271V315.96C639.778 315.661 639.617 315.5 639.318 315.5H638.72C638.421 315.5 638.26 315.661 638.26 315.96V326.54C638.26 326.839 638.421 327 638.72 327H639.318C639.617 327 639.778 326.839 639.778 326.54V320.606C639.778 317.915 641.388 316.903 643.113 316.788C643.297 316.788 643.412 316.604 643.412 316.328V315.776C643.412 315.477 643.251 315.316 642.952 315.339ZM650.645 312.073C650.967 312.073 651.128 311.935 651.128 311.636V311.084C651.128 310.808 650.967 310.601 650.668 310.601C647.862 310.555 646.298 312.188 646.298 315.04V315.5H644.803C644.504 315.5 644.343 315.661 644.343 315.96V316.512C644.343 316.811 644.504 316.972 644.803 316.972H646.298V326.54C646.298 326.839 646.459 327 646.758 327H647.356C647.655 327 647.816 326.839 647.816 326.54V316.972H650.668C650.967 316.972 651.128 316.811 651.128 316.512V315.96C651.128 315.661 650.967 315.5 650.668 315.5H647.816V315.04C647.816 312.993 648.736 312.05 650.645 312.073ZM656.663 315.224C654.271 315.224 652.569 316.627 652.316 318.582C652.293 318.904 652.477 319.065 652.776 319.065H653.374C653.65 319.065 653.788 318.904 653.857 318.628C654.087 317.317 655.329 316.696 656.663 316.696C658.135 316.696 659.515 317.455 659.515 319.525V321.388C658.733 320.399 657.399 319.87 655.95 319.87C653.834 319.87 651.833 321.089 651.833 323.573C651.833 326.057 653.834 327.276 655.95 327.276C657.399 327.276 658.733 326.839 659.515 325.712V326.54C659.515 326.839 659.676 327 659.975 327H660.573C660.872 327 661.033 326.839 661.033 326.54V319.525C661.033 316.857 659.239 315.224 656.663 315.224ZM656.318 325.85C654.271 325.85 653.351 324.884 653.351 323.573C653.351 322.262 654.271 321.296 656.318 321.296C658.158 321.296 659.515 322.17 659.515 323.573C659.515 324.884 658.158 325.85 656.318 325.85ZM674.305 323.32H673.638C673.385 323.32 673.201 323.435 673.086 323.665C672.419 324.953 671.016 325.804 669.337 325.804C666.784 325.804 664.806 323.803 664.806 321.25C664.806 318.697 666.784 316.696 669.337 316.696C670.993 316.696 672.396 317.524 673.086 318.835C673.201 319.065 673.385 319.18 673.638 319.18H674.305C674.627 319.18 674.811 318.973 674.673 318.651C673.845 316.604 671.775 315.224 669.337 315.224C665.864 315.224 663.288 317.846 663.288 321.25C663.288 324.654 665.864 327.276 669.337 327.276C671.775 327.276 673.868 325.896 674.673 323.849C674.811 323.527 674.627 323.32 674.305 323.32ZM682.361 315.224C678.796 315.224 676.473 317.869 676.473 321.25C676.473 324.723 678.842 327.276 682.361 327.276C684.707 327.276 686.593 326.057 687.375 324.309C687.49 324.033 687.306 323.849 686.961 323.849H686.225C685.972 323.849 685.811 323.964 685.673 324.171C685.098 325.114 683.925 325.804 682.384 325.804C680.038 325.804 678.336 324.355 678.037 322.009H686.386H687.467C687.743 322.009 687.927 321.871 687.95 321.572V321.296C687.95 318.145 685.88 315.224 682.361 315.224ZM682.361 316.696C684.316 316.696 686.087 318.007 686.363 320.537H678.014C678.313 318.306 679.923 316.696 682.361 316.696Z"
    fill="currentColor" />
  <path
    d="M776.558 326.425L769.152 318.743L776.328 311.475C776.604 311.199 776.466 310.9 776.075 310.9H775.086C774.856 310.9 774.695 310.969 774.534 311.13L767.45 318.26V311.36C767.45 311.061 767.289 310.9 766.99 310.9H766.3C766.001 310.9 765.84 311.061 765.84 311.36V326.54C765.84 326.839 766.001 327 766.3 327H766.99C767.289 327 767.45 326.839 767.45 326.54V319.203L774.764 326.77C774.925 326.954 775.109 327 775.339 327H776.328C776.719 327 776.834 326.724 776.558 326.425ZM786.737 315.5H786.139C785.84 315.5 785.679 315.661 785.679 315.96V321.986C785.679 324.838 783.977 325.804 782.413 325.804C780.872 325.804 779.745 324.838 779.745 323.021V315.96C779.745 315.661 779.584 315.5 779.285 315.5H778.687C778.388 315.5 778.227 315.661 778.227 315.96V323.021C778.227 325.666 779.998 327.276 782.137 327.276C783.517 327.276 784.759 326.862 785.656 325.482V326.54C785.656 326.839 785.817 327 786.116 327H786.714C787.013 327 787.174 326.839 787.174 326.54V315.96C787.174 315.661 787.013 315.5 786.714 315.5H786.737ZM796.571 315.224C794.501 315.224 792.868 316.213 791.925 317.754V311.36C791.925 311.061 791.764 310.9 791.465 310.9H790.867C790.568 310.9 790.407 311.061 790.407 311.36V326.54C790.407 326.839 790.568 327 790.867 327H791.465C791.764 327 791.925 326.839 791.925 326.54V324.769C792.868 326.31 794.501 327.276 796.571 327.276C799.814 327.276 802.505 324.654 802.505 321.25C802.505 317.846 799.814 315.224 796.571 315.224ZM796.456 325.804C793.903 325.804 791.925 323.803 791.925 321.25C791.925 318.697 793.903 316.696 796.456 316.696C799.009 316.696 800.987 318.697 800.987 321.25C800.987 323.803 799.009 325.804 796.456 325.804ZM810.227 315.224C806.662 315.224 804.339 317.869 804.339 321.25C804.339 324.723 806.708 327.276 810.227 327.276C812.573 327.276 814.459 326.057 815.241 324.309C815.356 324.033 815.172 323.849 814.827 323.849H814.091C813.838 323.849 813.677 323.964 813.539 324.171C812.964 325.114 811.791 325.804 810.25 325.804C807.904 325.804 806.202 324.355 805.903 322.009H814.252H815.333C815.609 322.009 815.793 321.871 815.816 321.572V321.296C815.816 318.145 813.746 315.224 810.227 315.224ZM810.227 316.696C812.182 316.696 813.953 318.007 814.229 320.537H805.88C806.179 318.306 807.789 316.696 810.227 316.696ZM822.816 315.339C821.551 315.454 820.424 315.96 819.642 317.271V315.96C819.642 315.661 819.481 315.5 819.182 315.5H818.584C818.285 315.5 818.124 315.661 818.124 315.96V326.54C818.124 326.839 818.285 327 818.584 327H819.182C819.481 327 819.642 326.839 819.642 326.54V320.606C819.642 317.915 821.252 316.903 822.977 316.788C823.161 316.788 823.276 316.604 823.276 316.328V315.776C823.276 315.477 823.115 315.316 822.816 315.339ZM830.416 315.224C829.013 315.224 827.771 315.661 826.874 317.041V315.96C826.874 315.661 826.713 315.5 826.414 315.5H825.816C825.517 315.5 825.356 315.661 825.356 315.96V326.54C825.356 326.839 825.517 327 825.816 327H826.414C826.713 327 826.874 326.839 826.874 326.54V320.514C826.874 317.662 828.576 316.696 830.14 316.696C831.681 316.696 832.808 317.662 832.808 319.479V326.54C832.808 326.839 832.969 327 833.268 327H833.866C834.165 327 834.326 326.839 834.326 326.54V319.479C834.326 316.834 832.555 315.224 830.416 315.224ZM842.458 315.224C838.893 315.224 836.57 317.869 836.57 321.25C836.57 324.723 838.939 327.276 842.458 327.276C844.804 327.276 846.69 326.057 847.472 324.309C847.587 324.033 847.403 323.849 847.058 323.849H846.322C846.069 323.849 845.908 323.964 845.77 324.171C845.195 325.114 844.022 325.804 842.481 325.804C840.135 325.804 838.433 324.355 838.134 322.009H846.483H847.564C847.84 322.009 848.024 321.871 848.047 321.572V321.296C848.047 318.145 845.977 315.224 842.458 315.224ZM842.458 316.696C844.413 316.696 846.184 318.007 846.46 320.537H838.111C838.41 318.306 840.02 316.696 842.458 316.696ZM854.958 315.5H853.026V312.28C853.026 311.981 852.865 311.82 852.566 311.82H851.968C851.669 311.82 851.508 311.981 851.508 312.28V315.5H849.553C849.254 315.5 849.093 315.661 849.093 315.96V316.512C849.093 316.811 849.254 316.972 849.553 316.972H851.508V326.54C851.508 326.839 851.669 327 851.968 327H852.566C852.865 327 853.026 326.839 853.026 326.54V316.972H854.958C855.257 316.972 855.418 316.811 855.418 316.512V315.96C855.418 315.661 855.257 315.5 854.958 315.5ZM862.246 315.224C858.681 315.224 856.358 317.869 856.358 321.25C856.358 324.723 858.727 327.276 862.246 327.276C864.592 327.276 866.478 326.057 867.26 324.309C867.375 324.033 867.191 323.849 866.846 323.849H866.11C865.857 323.849 865.696 323.964 865.558 324.171C864.983 325.114 863.81 325.804 862.269 325.804C859.923 325.804 858.221 324.355 857.922 322.009H866.271H867.352C867.628 322.009 867.812 321.871 867.835 321.572V321.296C867.835 318.145 865.765 315.224 862.246 315.224ZM862.246 316.696C864.201 316.696 865.972 318.007 866.248 320.537H857.899C858.198 318.306 859.808 316.696 862.246 316.696ZM871.316 318.513C871.316 317.225 872.604 316.696 873.823 316.696C874.927 316.696 876.077 317.133 876.284 318.398C876.353 318.674 876.491 318.835 876.767 318.835H877.365C877.664 318.835 877.848 318.674 877.825 318.352C877.595 316.42 875.985 315.224 873.823 315.224C871.5 315.224 869.798 316.627 869.798 318.513C869.798 322.814 876.56 321.066 876.56 323.987C876.56 325.275 875.272 325.804 873.823 325.804C872.512 325.804 871.339 325.367 871.132 324.102C871.063 323.826 870.925 323.665 870.649 323.665H870.051C869.752 323.665 869.568 323.826 869.591 324.148C869.821 326.08 871.454 327.276 873.823 327.276C876.376 327.276 878.078 325.873 878.078 323.987C878.078 319.686 871.316 321.434 871.316 318.513ZM891.417 327.276C894.131 327.276 896.592 325.62 896.592 322.929C896.592 319.962 893.832 319.065 891.394 318.122C889.462 317.386 887.852 316.673 887.852 314.833C887.852 313.131 889.324 312.188 891.095 312.188C892.889 312.188 894.292 313.085 894.499 314.787C894.522 315.063 894.683 315.224 894.959 315.224H895.672C895.971 315.224 896.132 315.063 896.109 314.741C895.879 312.096 893.648 310.624 891.095 310.624C888.588 310.624 886.242 312.165 886.242 314.833C886.242 317.961 888.933 318.789 891.371 319.709C893.28 320.422 894.982 321.181 894.982 322.929C894.982 324.654 893.395 325.712 891.417 325.712C889.255 325.712 887.645 324.7 887.415 322.791C887.392 322.492 887.231 322.331 886.955 322.331H886.242C885.943 322.331 885.782 322.492 885.805 322.814C886.035 325.689 888.519 327.276 891.417 327.276ZM904.316 315.224C900.751 315.224 898.428 317.869 898.428 321.25C898.428 324.723 900.797 327.276 904.316 327.276C906.662 327.276 908.548 326.057 909.33 324.309C909.445 324.033 909.261 323.849 908.916 323.849H908.18C907.927 323.849 907.766 323.964 907.628 324.171C907.053 325.114 905.88 325.804 904.339 325.804C901.993 325.804 900.291 324.355 899.992 322.009H908.341H909.422C909.698 322.009 909.882 321.871 909.905 321.572V321.296C909.905 318.145 907.835 315.224 904.316 315.224ZM904.316 316.696C906.271 316.696 908.042 318.007 908.318 320.537H899.969C900.268 318.306 901.878 316.696 904.316 316.696ZM916.905 315.339C915.64 315.454 914.513 315.96 913.731 317.271V315.96C913.731 315.661 913.57 315.5 913.271 315.5H912.673C912.374 315.5 912.213 315.661 912.213 315.96V326.54C912.213 326.839 912.374 327 912.673 327H913.271C913.57 327 913.731 326.839 913.731 326.54V320.606C913.731 317.915 915.341 316.903 917.066 316.788C917.25 316.788 917.365 316.604 917.365 316.328V315.776C917.365 315.477 917.204 315.316 916.905 315.339ZM927.84 315.5H927.196C926.943 315.5 926.759 315.615 926.667 315.868L923.24 325.344L919.813 315.868C919.721 315.615 919.537 315.5 919.284 315.5H918.64C918.318 315.5 918.157 315.707 918.272 316.029L922.182 326.632C922.274 326.862 922.458 327 922.711 327H923.194H923.769C924.022 327 924.206 326.885 924.298 326.632L928.208 316.029C928.323 315.707 928.162 315.5 927.84 315.5ZM930.709 313.2H931.307C931.606 313.2 931.767 313.039 931.767 312.74V311.36C931.767 311.061 931.606 310.9 931.307 310.9H930.709C930.41 310.9 930.249 311.061 930.249 311.36V312.74C930.249 313.039 930.41 313.2 930.709 313.2ZM930.709 327H931.307C931.606 327 931.767 326.839 931.767 326.54V315.96C931.767 315.661 931.606 315.5 931.307 315.5H930.709C930.41 315.5 930.249 315.661 930.249 315.96V326.54C930.249 326.839 930.41 327 930.709 327ZM945.315 323.32H944.648C944.395 323.32 944.211 323.435 944.096 323.665C943.429 324.953 942.026 325.804 940.347 325.804C937.794 325.804 935.816 323.803 935.816 321.25C935.816 318.697 937.794 316.696 940.347 316.696C942.003 316.696 943.406 317.524 944.096 318.835C944.211 319.065 944.395 319.18 944.648 319.18H945.315C945.637 319.18 945.821 318.973 945.683 318.651C944.855 316.604 942.785 315.224 940.347 315.224C936.874 315.224 934.298 317.846 934.298 321.25C934.298 324.654 936.874 327.276 940.347 327.276C942.785 327.276 944.878 325.896 945.683 323.849C945.821 323.527 945.637 323.32 945.315 323.32ZM953.371 315.224C949.806 315.224 947.483 317.869 947.483 321.25C947.483 324.723 949.852 327.276 953.371 327.276C955.717 327.276 957.603 326.057 958.384 324.309C958.5 324.033 958.316 323.849 957.971 323.849H957.235C956.982 323.849 956.821 323.964 956.683 324.171C956.108 325.114 954.935 325.804 953.394 325.804C951.048 325.804 949.346 324.355 949.047 322.009H957.396H958.477C958.753 322.009 958.937 321.871 958.96 321.572V321.296C958.96 318.145 956.89 315.224 953.371 315.224ZM953.371 316.696C955.326 316.696 957.097 318.007 957.373 320.537H949.024C949.323 318.306 950.933 316.696 953.371 316.696Z"
    fill="currentColor" />
  <path fill-rule="evenodd" clip-rule="evenodd"
    d="M88.7566 279.516C55.669 263.778 41.6867 224.371 57.5266 191.497C65.1332 175.711 78.7402 163.573 95.3543 157.754C111.968 151.935 130.229 152.912 146.118 160.469C179.206 176.207 193.188 215.614 177.348 248.488C161.508 281.361 121.844 295.253 88.7566 279.516Z"
    fill="#D62783" />
  <path fill-rule="evenodd" clip-rule="evenodd"
    d="M116.371 228.067C111.811 228.067 108.264 224.494 108.264 219.9C108.264 215.307 111.811 211.733 116.371 211.733C120.932 211.733 124.479 215.307 124.479 219.9C124.479 224.494 120.932 228.067 116.371 228.067Z"
    fill="white" />
  <path fill-rule="evenodd" clip-rule="evenodd"
    d="M132.206 223.728C130.18 223.728 128.406 222.069 128.406 219.9C128.406 217.858 130.053 216.071 132.206 216.071C134.233 216.071 136.007 217.73 136.007 219.9C136.007 222.069 134.233 223.728 132.206 223.728V223.728ZM145.888 227.3C145.382 229.341 143.354 230.488 141.327 229.978C139.301 229.467 138.16 227.426 138.667 225.385C139.174 223.344 141.2 222.193 143.228 222.703C145.124 223.213 146.393 224.999 146.012 227.042C146.012 227.042 146.012 227.169 145.886 227.296L145.888 227.3ZM143.224 217.598C141.196 218.109 139.169 216.832 138.662 214.791C138.156 212.749 139.422 210.707 141.449 210.196C143.476 209.686 145.503 210.963 146.01 213.005C146.136 213.515 146.136 214.026 146.01 214.536C145.883 215.94 144.869 217.215 143.223 217.598H143.224ZM156.649 226.785C156.268 228.826 154.367 230.231 152.341 229.848C150.315 229.465 148.921 227.551 149.302 225.51C149.681 223.468 151.581 222.064 153.608 222.447C155.509 222.83 156.903 224.616 156.776 226.53C156.65 226.658 156.65 226.658 156.65 226.785H156.649ZM153.615 217.348C151.589 217.73 149.688 216.327 149.308 214.285C148.928 212.244 150.321 210.329 152.349 209.946C154.375 209.564 156.276 210.967 156.655 213.009C156.655 213.392 156.782 213.647 156.655 214.029C156.529 215.688 155.262 217.092 153.615 217.348ZM150.955 239.933C149.942 241.72 147.661 242.358 145.888 241.337C144.114 240.316 143.481 238.019 144.494 236.233C145.508 234.446 147.788 233.808 149.562 234.829C150.828 235.595 151.588 236.998 151.461 238.402C151.335 238.912 151.208 239.422 150.955 239.933V239.933ZM149.562 205.226C147.788 206.246 145.508 205.608 144.494 203.822C143.481 202.035 144.114 199.738 145.888 198.718C147.661 197.697 149.941 198.335 150.955 200.122C151.335 200.887 151.461 201.525 151.461 202.29C151.335 203.439 150.702 204.587 149.562 205.225"
    fill="white" />
  <path
    d="M116.498 258.053C106.364 258.053 96.99 254.097 89.7694 246.952C82.802 239.677 78.875 230.105 78.875 220.026C78.875 209.816 82.802 200.374 89.8958 193.1C96.99 185.956 106.491 182 116.498 182C124.859 182 132.84 184.679 139.427 189.785L134.742 195.908C129.421 191.828 123.086 189.659 116.501 189.659C108.52 189.659 100.919 192.849 95.2189 198.59C89.5208 204.333 86.4801 211.862 86.4801 220.028C86.4801 228.067 89.6468 235.723 95.3473 241.465C101.048 247.207 108.522 250.27 116.629 250.27C123.343 250.27 129.677 248.1 134.87 244.017L139.431 250.14C132.845 255.243 124.864 258.051 116.503 258.051L116.498 258.053Z"
    fill="white" />
  <path fill-rule="evenodd" clip-rule="evenodd"
    d="M572.757 285.516C539.669 269.778 525.687 230.371 541.527 197.497C549.133 181.711 562.74 169.573 579.354 163.754C595.968 157.935 614.229 158.912 630.118 166.469C663.206 182.207 677.188 221.614 661.348 254.488C645.508 287.361 605.844 301.253 572.757 285.516Z"
    fill="#D62783" />
  <path fill-rule="evenodd" clip-rule="evenodd"
    d="M599.596 234.04C595.036 234.04 591.488 230.468 591.488 225.874C591.488 221.28 595.036 217.707 599.596 217.707C604.156 217.707 607.703 221.28 607.703 225.874C607.703 230.468 604.156 234.04 599.596 234.04Z"
    fill="white" />
  <path fill-rule="evenodd" clip-rule="evenodd"
    d="M615.431 229.702C613.405 229.702 611.631 228.042 611.631 225.873C611.631 223.831 613.277 222.045 615.431 222.045C617.457 222.045 619.232 223.704 619.232 225.873C619.232 228.042 617.458 229.701 615.431 229.701V229.702ZM629.113 233.273C628.606 235.314 626.579 236.461 624.552 235.951C622.526 235.441 621.385 233.4 621.892 231.359C622.398 229.318 624.425 228.166 626.452 228.677C628.349 229.187 629.617 230.973 629.237 233.016C629.237 233.016 629.237 233.143 629.111 233.27L629.113 233.273ZM626.448 223.572C624.42 224.082 622.394 222.806 621.887 220.764C621.38 218.723 622.647 216.681 624.674 216.17C626.7 215.66 628.728 216.936 629.234 218.979C629.361 219.489 629.361 219.999 629.234 220.509C629.107 221.914 628.094 223.189 626.447 223.572H626.448ZM639.874 232.759C639.493 234.8 637.592 236.204 635.566 235.822C633.539 235.439 632.145 233.525 632.526 231.483C632.906 229.442 634.806 228.038 636.833 228.42C638.733 228.803 640.127 230.59 640 232.504C639.875 232.631 639.875 232.631 639.875 232.759H639.874ZM636.84 223.321C634.813 223.704 632.913 222.301 632.533 220.259C632.153 218.218 633.546 216.303 635.573 215.92C637.6 215.538 639.5 216.941 639.88 218.983C639.88 219.365 640.007 219.621 639.88 220.003C639.753 221.662 638.487 223.066 636.84 223.321ZM634.179 245.907C633.166 247.693 630.886 248.332 629.112 247.31C627.339 246.29 626.705 243.993 627.719 242.206C628.732 240.42 631.013 239.781 632.786 240.803C634.053 241.568 634.812 242.972 634.686 244.376C634.56 244.886 634.433 245.396 634.179 245.906V245.907ZM632.786 211.199C631.013 212.22 628.732 211.582 627.719 209.795C626.706 208.009 627.339 205.712 629.112 204.691C630.886 203.671 633.166 204.308 634.179 206.095C634.56 206.86 634.686 207.499 634.686 208.264C634.56 209.413 633.926 210.561 632.786 211.199"
    fill="white" />
  <path
    d="M599.723 264.027C589.589 264.027 580.215 260.071 572.994 252.926C566.027 245.651 562.1 236.078 562.1 225.999C562.1 215.79 566.027 206.348 573.12 199.073C580.215 191.929 589.715 187.974 599.723 187.974C608.084 187.974 616.064 190.653 622.652 195.758L617.966 201.882C612.645 197.802 606.311 195.632 599.725 195.632C591.745 195.632 584.144 198.822 578.444 204.564C572.745 210.306 569.705 217.835 569.705 226.001C569.705 234.04 572.871 241.697 578.572 247.439C584.272 253.181 591.747 256.243 599.854 256.243C606.568 256.243 612.902 254.074 618.095 249.99L622.656 256.114C616.069 261.217 608.089 264.025 599.728 264.025L599.723 264.027Z"
    fill="white" />
  <path
    d="M837.48 365.371C837.685 363.449 836.293 361.725 834.371 361.52L803.049 358.177C801.127 357.972 799.403 359.364 799.198 361.286C798.992 363.208 800.384 364.932 802.306 365.138L830.148 368.109L827.177 395.951C826.972 397.873 828.364 399.597 830.286 399.802C832.208 400.007 833.932 398.616 834.138 396.694L837.48 365.371ZM696.198 480.724L836.198 367.724L831.802 362.276L691.802 475.276L696.198 480.724Z"
    fill="#E75225" />
  <path
    d="M1094.59 310.9H1090.45H1089.3C1089 310.9 1088.84 311.061 1088.84 311.36V326.54C1088.84 326.839 1089 327 1089.3 327H1089.99C1090.29 327 1090.45 326.839 1090.45 326.54V320.56H1094.59C1097.26 320.56 1099.42 318.375 1099.42 315.73C1099.42 313.062 1097.26 310.9 1094.59 310.9ZM1094.59 319.042H1090.45V312.418H1094.59C1096.36 312.418 1097.81 313.89 1097.81 315.73C1097.81 317.547 1096.36 319.042 1094.59 319.042ZM1106.39 327.276C1109.75 327.276 1112.44 324.654 1112.44 321.25C1112.44 317.846 1109.75 315.224 1106.39 315.224C1103.03 315.224 1100.34 317.846 1100.34 321.25C1100.34 324.654 1103.03 327.276 1106.39 327.276ZM1106.39 325.804C1103.84 325.804 1101.86 323.803 1101.86 321.25C1101.86 318.697 1103.84 316.696 1106.39 316.696C1108.94 316.696 1110.92 318.697 1110.92 321.25C1110.92 323.803 1108.94 325.804 1106.39 325.804ZM1125.93 310.9H1125.33C1125.03 310.9 1124.87 311.061 1124.87 311.36V317.754C1123.9 316.213 1122.27 315.224 1120.22 315.224C1116.98 315.224 1114.29 317.846 1114.29 321.25C1114.29 324.654 1116.98 327.276 1120.22 327.276C1122.27 327.276 1123.9 326.31 1124.87 324.769V326.54C1124.87 326.839 1125.03 327 1125.33 327H1125.93C1126.23 327 1126.39 326.839 1126.39 326.54V311.36C1126.39 311.061 1126.23 310.9 1125.93 310.9ZM1120.34 325.804C1117.79 325.804 1115.81 323.803 1115.81 321.25C1115.81 318.697 1117.79 316.696 1120.34 316.696C1122.89 316.696 1124.87 318.697 1124.87 321.25C1124.87 323.803 1122.89 325.804 1120.34 325.804Z"
    fill="currentColor" />
  <path
    d="M592.902 745.9H588.762H587.612C587.313 745.9 587.152 746.061 587.152 746.36V761.54C587.152 761.839 587.313 762 587.612 762H588.302C588.601 762 588.762 761.839 588.762 761.54V755.56H592.902C595.57 755.56 597.732 753.375 597.732 750.73C597.732 748.062 595.57 745.9 592.902 745.9ZM592.902 754.042H588.762V747.418H592.902C594.673 747.418 596.122 748.89 596.122 750.73C596.122 752.547 594.673 754.042 592.902 754.042ZM604.731 750.339C603.466 750.454 602.339 750.96 601.557 752.271V750.96C601.557 750.661 601.396 750.5 601.097 750.5H600.499C600.2 750.5 600.039 750.661 600.039 750.96V761.54C600.039 761.839 600.2 762 600.499 762H601.097C601.396 762 601.557 761.839 601.557 761.54V755.606C601.557 752.915 603.167 751.903 604.892 751.788C605.076 751.788 605.191 751.604 605.191 751.328V750.776C605.191 750.477 605.03 750.316 604.731 750.339ZM611.934 762.276C615.292 762.276 617.983 759.654 617.983 756.25C617.983 752.846 615.292 750.224 611.934 750.224C608.576 750.224 605.885 752.846 605.885 756.25C605.885 759.654 608.576 762.276 611.934 762.276ZM611.934 760.804C609.381 760.804 607.403 758.803 607.403 756.25C607.403 753.697 609.381 751.696 611.934 751.696C614.487 751.696 616.465 753.697 616.465 756.25C616.465 758.803 614.487 760.804 611.934 760.804ZM631.609 750.224C630.321 750.224 629.079 750.661 628.182 752.179C627.561 750.891 626.365 750.224 625.1 750.224C624.019 750.224 622.892 750.615 622.018 751.834V750.96C622.018 750.661 621.857 750.5 621.558 750.5H620.96C620.661 750.5 620.5 750.661 620.5 750.96V761.54C620.5 761.839 620.661 762 620.96 762H621.558C621.857 762 622.018 761.839 622.018 761.54V755.054C622.018 752.432 623.674 751.696 624.824 751.696C626.043 751.696 627.101 752.432 627.101 754.249V761.54C627.101 761.839 627.262 762 627.561 762H628.159C628.458 762 628.619 761.839 628.619 761.54V755.054C628.619 752.432 630.275 751.696 631.425 751.696C632.644 751.696 633.702 752.432 633.702 754.249V761.54C633.702 761.839 633.863 762 634.162 762H634.76C635.059 762 635.22 761.839 635.22 761.54V754.249C635.22 751.604 633.518 750.224 631.586 750.224H631.609ZM643.375 750.224C639.81 750.224 637.487 752.869 637.487 756.25C637.487 759.723 639.856 762.276 643.375 762.276C645.721 762.276 647.607 761.057 648.389 759.309C648.504 759.033 648.32 758.849 647.975 758.849H647.239C646.986 758.849 646.825 758.964 646.687 759.171C646.112 760.114 644.939 760.804 643.398 760.804C641.052 760.804 639.35 759.355 639.051 757.009H647.4H648.481C648.757 757.009 648.941 756.871 648.964 756.572V756.296C648.964 753.145 646.894 750.224 643.375 750.224ZM643.375 751.696C645.33 751.696 647.101 753.007 647.377 755.537H639.028C639.327 753.306 640.937 751.696 643.375 751.696ZM655.875 750.5H653.943V747.28C653.943 746.981 653.782 746.82 653.483 746.82H652.885C652.586 746.82 652.425 746.981 652.425 747.28V750.5H650.47C650.171 750.5 650.01 750.661 650.01 750.96V751.512C650.01 751.811 650.171 751.972 650.47 751.972H652.425V761.54C652.425 761.839 652.586 762 652.885 762H653.483C653.782 762 653.943 761.839 653.943 761.54V751.972H655.875C656.174 751.972 656.335 751.811 656.335 751.512V750.96C656.335 750.661 656.174 750.5 655.875 750.5ZM663.475 750.224C662.072 750.224 660.83 750.661 659.933 752.041V746.36C659.933 746.061 659.772 745.9 659.473 745.9H658.875C658.576 745.9 658.415 746.061 658.415 746.36V761.54C658.415 761.839 658.576 762 658.875 762H659.473C659.772 762 659.933 761.839 659.933 761.54V755.514C659.933 752.662 661.635 751.696 663.199 751.696C664.74 751.696 665.867 752.662 665.867 754.479V761.54C665.867 761.839 666.028 762 666.327 762H666.925C667.224 762 667.385 761.839 667.385 761.54V754.479C667.385 751.834 665.614 750.224 663.475 750.224ZM675.517 750.224C671.952 750.224 669.629 752.869 669.629 756.25C669.629 759.723 671.998 762.276 675.517 762.276C677.863 762.276 679.749 761.057 680.531 759.309C680.646 759.033 680.462 758.849 680.117 758.849H679.381C679.128 758.849 678.967 758.964 678.829 759.171C678.254 760.114 677.081 760.804 675.54 760.804C673.194 760.804 671.492 759.355 671.193 757.009H679.542H680.623C680.899 757.009 681.083 756.871 681.106 756.572V756.296C681.106 753.145 679.036 750.224 675.517 750.224ZM675.517 751.696C677.472 751.696 679.243 753.007 679.519 755.537H671.17C671.469 753.306 673.079 751.696 675.517 751.696ZM691.648 750.5H691.05C690.751 750.5 690.59 750.661 690.59 750.96V756.986C690.59 759.838 688.888 760.804 687.324 760.804C685.783 760.804 684.656 759.838 684.656 758.021V750.96C684.656 750.661 684.495 750.5 684.196 750.5H683.598C683.299 750.5 683.138 750.661 683.138 750.96V758.021C683.138 760.666 684.909 762.276 687.048 762.276C688.428 762.276 689.67 761.862 690.567 760.482V761.54C690.567 761.839 690.728 762 691.027 762H691.625C691.924 762 692.085 761.839 692.085 761.54V750.96C692.085 750.661 691.924 750.5 691.625 750.5H691.648ZM696.491 753.513C696.491 752.225 697.779 751.696 698.998 751.696C700.102 751.696 701.252 752.133 701.459 753.398C701.528 753.674 701.666 753.835 701.942 753.835H702.54C702.839 753.835 703.023 753.674 703 753.352C702.77 751.42 701.16 750.224 698.998 750.224C696.675 750.224 694.973 751.627 694.973 753.513C694.973 757.814 701.735 756.066 701.735 758.987C701.735 760.275 700.447 760.804 698.998 760.804C697.687 760.804 696.514 760.367 696.307 759.102C696.238 758.826 696.1 758.665 695.824 758.665H695.226C694.927 758.665 694.743 758.826 694.766 759.148C694.996 761.08 696.629 762.276 698.998 762.276C701.551 762.276 703.253 760.873 703.253 758.987C703.253 754.686 696.491 756.434 696.491 753.513ZM719.283 762.276C723.975 762.276 727.609 758.55 727.609 753.95C727.609 749.35 723.975 745.624 719.283 745.624C714.591 745.624 710.957 749.35 710.957 753.95C710.957 758.55 714.591 762.276 719.283 762.276ZM719.283 760.712C715.465 760.712 712.567 757.699 712.567 753.95C712.567 750.201 715.465 747.188 719.283 747.188C723.101 747.188 725.999 750.201 725.999 753.95C725.999 757.699 723.101 760.712 719.283 760.712ZM736.296 750.224C734.226 750.224 732.593 751.213 731.65 752.754V750.96C731.65 750.661 731.489 750.5 731.19 750.5H730.592C730.293 750.5 730.132 750.661 730.132 750.96V766.14C730.132 766.439 730.293 766.6 730.592 766.6H731.19C731.489 766.6 731.65 766.439 731.65 766.14V759.769C732.593 761.31 734.226 762.276 736.296 762.276C739.539 762.276 742.23 759.654 742.23 756.25C742.23 752.846 739.539 750.224 736.296 750.224ZM736.181 760.804C733.628 760.804 731.65 758.803 731.65 756.25C731.65 753.697 733.628 751.696 736.181 751.696C738.734 751.696 740.712 753.697 740.712 756.25C740.712 758.803 738.734 760.804 736.181 760.804ZM749.953 750.224C746.388 750.224 744.065 752.869 744.065 756.25C744.065 759.723 746.434 762.276 749.953 762.276C752.299 762.276 754.185 761.057 754.967 759.309C755.082 759.033 754.898 758.849 754.553 758.849H753.817C753.564 758.849 753.403 758.964 753.265 759.171C752.69 760.114 751.517 760.804 749.976 760.804C747.63 760.804 745.928 759.355 745.629 757.009H753.978H755.059C755.335 757.009 755.519 756.871 755.542 756.572V756.296C755.542 753.145 753.472 750.224 749.953 750.224ZM749.953 751.696C751.908 751.696 753.679 753.007 753.955 755.537H745.606C745.905 753.306 747.515 751.696 749.953 751.696ZM762.541 750.339C761.276 750.454 760.149 750.96 759.367 752.271V750.96C759.367 750.661 759.206 750.5 758.907 750.5H758.309C758.01 750.5 757.849 750.661 757.849 750.96V761.54C757.849 761.839 758.01 762 758.309 762H758.907C759.206 762 759.367 761.839 759.367 761.54V755.606C759.367 752.915 760.977 751.903 762.702 751.788C762.886 751.788 763.001 751.604 763.001 751.328V750.776C763.001 750.477 762.84 750.316 762.541 750.339ZM768.997 750.224C766.605 750.224 764.903 751.627 764.65 753.582C764.627 753.904 764.811 754.065 765.11 754.065H765.708C765.984 754.065 766.122 753.904 766.191 753.628C766.421 752.317 767.663 751.696 768.997 751.696C770.469 751.696 771.849 752.455 771.849 754.525V756.388C771.067 755.399 769.733 754.87 768.284 754.87C766.168 754.87 764.167 756.089 764.167 758.573C764.167 761.057 766.168 762.276 768.284 762.276C769.733 762.276 771.067 761.839 771.849 760.712V761.54C771.849 761.839 772.01 762 772.309 762H772.907C773.206 762 773.367 761.839 773.367 761.54V754.525C773.367 751.857 771.573 750.224 768.997 750.224ZM768.652 760.85C766.605 760.85 765.685 759.884 765.685 758.573C765.685 757.262 766.605 756.296 768.652 756.296C770.492 756.296 771.849 757.17 771.849 758.573C771.849 759.884 770.492 760.85 768.652 760.85ZM781.027 750.5H779.095V747.28C779.095 746.981 778.934 746.82 778.635 746.82H778.037C777.738 746.82 777.577 746.981 777.577 747.28V750.5H775.622C775.323 750.5 775.162 750.661 775.162 750.96V751.512C775.162 751.811 775.323 751.972 775.622 751.972H777.577V761.54C777.577 761.839 777.738 762 778.037 762H778.635C778.934 762 779.095 761.839 779.095 761.54V751.972H781.027C781.326 751.972 781.487 751.811 781.487 751.512V750.96C781.487 750.661 781.326 750.5 781.027 750.5ZM788.477 762.276C791.835 762.276 794.526 759.654 794.526 756.25C794.526 752.846 791.835 750.224 788.477 750.224C785.119 750.224 782.428 752.846 782.428 756.25C782.428 759.654 785.119 762.276 788.477 762.276ZM788.477 760.804C785.924 760.804 783.946 758.803 783.946 756.25C783.946 753.697 785.924 751.696 788.477 751.696C791.03 751.696 793.008 753.697 793.008 756.25C793.008 758.803 791.03 760.804 788.477 760.804ZM801.758 750.339C800.493 750.454 799.366 750.96 798.584 752.271V750.96C798.584 750.661 798.423 750.5 798.124 750.5H797.526C797.227 750.5 797.066 750.661 797.066 750.96V761.54C797.066 761.839 797.227 762 797.526 762H798.124C798.423 762 798.584 761.839 798.584 761.54V755.606C798.584 752.915 800.194 751.903 801.919 751.788C802.103 751.788 802.218 751.604 802.218 751.328V750.776C802.218 750.477 802.057 750.316 801.758 750.339Z"
    fill="currentColor" />
  <rect x="1045" y="168" width="124" height="124" rx="25" fill="#326CE5" />
  <path
    d="M1108.8 188.673C1108.05 188.711 1107.31 188.897 1106.63 189.219L1076.96 203.288C1076.19 203.652 1075.52 204.181 1074.99 204.837C1074.45 205.493 1074.08 206.258 1073.89 207.076L1066.57 238.678C1066.4 239.406 1066.38 240.16 1066.51 240.895C1066.65 241.631 1066.93 242.332 1067.34 242.959C1067.44 243.112 1067.55 243.261 1067.66 243.404L1088.2 268.743C1088.73 269.398 1089.41 269.928 1090.17 270.292C1090.94 270.655 1091.78 270.844 1092.64 270.844L1125.57 270.836C1126.42 270.837 1127.26 270.649 1128.03 270.286C1128.8 269.923 1129.47 269.394 1130 268.739L1150.53 243.396C1151.06 242.74 1151.44 241.974 1151.63 241.156C1151.82 240.338 1151.82 239.488 1151.63 238.67L1144.3 207.069C1144.11 206.251 1143.73 205.485 1143.2 204.83C1142.67 204.174 1142 203.644 1141.23 203.28L1111.55 189.219C1110.7 188.813 1109.75 188.626 1108.8 188.673Z"
    fill="white" />
  <path
    d="M1109.1 199.428C1108.12 199.428 1107.32 200.304 1107.32 201.386C1107.32 201.402 1107.33 201.418 1107.33 201.435C1107.32 201.582 1107.32 201.759 1107.32 201.887C1107.35 202.51 1107.48 202.988 1107.56 203.562C1107.71 204.792 1107.84 205.812 1107.76 206.76C1107.69 207.117 1107.42 207.444 1107.19 207.671L1107.14 208.416C1106.08 208.504 1105 208.664 1103.93 208.906C1099.32 209.945 1095.35 212.302 1092.33 215.485C1092.13 215.352 1091.79 215.107 1091.69 215.033C1091.37 215.075 1091.05 215.172 1090.63 214.931C1089.84 214.4 1089.11 213.667 1088.24 212.785C1087.84 212.362 1087.55 211.96 1087.07 211.553C1086.96 211.461 1086.8 211.336 1086.68 211.241C1086.3 210.946 1085.86 210.792 1085.44 210.777C1084.89 210.759 1084.37 210.971 1084.02 211.399C1083.41 212.16 1083.61 213.323 1084.46 213.997C1084.47 214.004 1084.48 214.009 1084.49 214.016C1084.6 214.11 1084.75 214.231 1084.85 214.31C1085.36 214.68 1085.82 214.87 1086.33 215.164C1087.39 215.815 1088.27 216.355 1088.97 217.006C1089.24 217.294 1089.29 217.803 1089.32 218.023L1089.89 218.527C1086.85 223.078 1085.44 228.699 1086.27 234.426L1085.53 234.641C1085.33 234.892 1085.05 235.287 1084.76 235.405C1083.85 235.691 1082.82 235.795 1081.58 235.925C1081 235.973 1080.49 235.944 1079.88 236.06C1079.74 236.086 1079.55 236.135 1079.4 236.169C1079.4 236.17 1079.39 236.172 1079.39 236.173C1079.38 236.175 1079.37 236.179 1079.36 236.181C1078.31 236.432 1077.64 237.386 1077.86 238.327C1078.07 239.268 1079.1 239.84 1080.15 239.615C1080.16 239.613 1080.17 239.613 1080.18 239.611C1080.19 239.609 1080.2 239.603 1080.21 239.6C1080.36 239.568 1080.54 239.532 1080.67 239.498C1081.28 239.337 1081.72 239.1 1082.26 238.892C1083.44 238.474 1084.41 238.124 1085.36 237.988C1085.75 237.957 1086.17 238.231 1086.38 238.346L1087.15 238.214C1088.93 243.695 1092.67 248.125 1097.4 250.904L1097.07 251.673C1097.19 251.971 1097.32 252.375 1097.23 252.669C1096.89 253.556 1096.3 254.492 1095.62 255.536C1095.3 256.019 1094.96 256.393 1094.67 256.945C1094.6 257.077 1094.51 257.28 1094.44 257.419C1093.99 258.388 1094.32 259.504 1095.2 259.923C1096.08 260.345 1097.18 259.9 1097.65 258.929C1097.65 258.928 1097.65 258.927 1097.65 258.925C1097.65 258.924 1097.65 258.923 1097.65 258.922C1097.72 258.784 1097.82 258.603 1097.87 258.474C1098.12 257.901 1098.21 257.411 1098.39 256.858C1098.86 255.687 1099.11 254.458 1099.76 253.692C1099.94 253.482 1100.23 253.402 1100.53 253.322L1100.93 252.599C1105.05 254.169 1109.66 254.59 1114.27 253.552C1115.32 253.315 1116.34 253.008 1117.32 252.64C1117.43 252.839 1117.64 253.222 1117.7 253.318C1118 253.417 1118.33 253.467 1118.6 253.864C1119.09 254.685 1119.42 255.655 1119.82 256.828C1120 257.381 1120.09 257.871 1120.34 258.443C1120.39 258.574 1120.49 258.757 1120.56 258.895C1121.03 259.869 1122.13 260.316 1123.01 259.893C1123.89 259.474 1124.22 258.358 1123.77 257.389C1123.7 257.249 1123.61 257.047 1123.54 256.915C1123.24 256.363 1122.91 255.992 1122.58 255.51C1121.91 254.466 1121.35 253.599 1121.01 252.712C1120.86 252.255 1121.03 251.97 1121.15 251.673C1121.08 251.596 1120.93 251.164 1120.85 250.961C1125.76 248.082 1129.39 243.487 1131.09 238.18C1131.32 238.216 1131.72 238.286 1131.85 238.312C1132.11 238.137 1132.36 237.909 1132.84 237.947C1133.79 238.083 1134.76 238.432 1135.94 238.851C1136.48 239.058 1136.92 239.299 1137.53 239.461C1137.66 239.495 1137.84 239.527 1137.99 239.559C1138 239.561 1138.01 239.567 1138.02 239.57C1138.03 239.572 1138.04 239.572 1138.05 239.574C1139.1 239.799 1140.13 239.227 1140.34 238.286C1140.56 237.345 1139.89 236.39 1138.84 236.139C1138.69 236.105 1138.47 236.047 1138.32 236.019C1137.71 235.903 1137.2 235.931 1136.62 235.883C1135.38 235.754 1134.35 235.649 1133.44 235.364C1133.06 235.22 1132.8 234.78 1132.67 234.599L1131.95 234.392C1132.32 231.722 1132.22 228.944 1131.58 226.164C1130.93 223.358 1129.78 220.792 1128.25 218.531C1128.44 218.365 1128.78 218.06 1128.88 217.97C1128.91 217.654 1128.89 217.322 1129.22 216.972C1129.91 216.321 1130.8 215.782 1131.86 215.131C1132.36 214.836 1132.83 214.647 1133.33 214.276C1133.45 214.192 1133.6 214.059 1133.72 213.963C1134.58 213.289 1134.77 212.126 1134.16 211.365C1133.55 210.604 1132.36 210.532 1131.51 211.207C1131.39 211.302 1131.23 211.426 1131.12 211.519C1130.64 211.926 1130.35 212.328 1129.94 212.751C1129.07 213.633 1128.35 214.37 1127.55 214.901C1127.21 215.1 1126.7 215.031 1126.47 215.018L1125.8 215.496C1121.95 211.488 1116.7 208.925 1111.06 208.428C1111.04 208.193 1111.02 207.768 1111.01 207.641C1110.78 207.421 1110.5 207.234 1110.43 206.76C1110.36 205.812 1110.48 204.792 1110.63 203.562C1110.72 202.988 1110.85 202.51 1110.88 201.887C1110.88 201.745 1110.87 201.539 1110.87 201.386C1110.87 200.304 1110.08 199.428 1109.1 199.428H1109.1ZM1106.87 213.097L1106.35 222.342L1106.31 222.361C1106.27 223.188 1105.59 223.848 1104.75 223.848C1104.4 223.848 1104.08 223.738 1103.82 223.551L1103.81 223.558L1096.17 218.185C1098.52 215.894 1101.52 214.201 1104.98 213.421C1105.61 213.279 1106.24 213.173 1106.87 213.097ZM1111.32 213.097C1115.37 213.59 1119.1 215.406 1121.96 218.188L1114.38 223.528L1114.35 223.517C1113.68 224.005 1112.73 223.884 1112.2 223.231C1111.99 222.963 1111.87 222.648 1111.86 222.331L1111.85 222.327L1111.32 213.097ZM1093.4 221.638L1100.37 227.828L1100.37 227.866C1101 228.409 1101.09 229.352 1100.56 230.005C1100.35 230.273 1100.06 230.452 1099.75 230.536L1099.74 230.566L1090.8 233.127C1090.35 228.998 1091.33 224.984 1093.4 221.638ZM1124.75 221.641C1125.78 223.308 1126.57 225.17 1127.03 227.188C1127.5 229.182 1127.61 231.173 1127.42 233.097L1118.44 230.528L1118.43 230.491C1117.62 230.273 1117.13 229.46 1117.32 228.646C1117.39 228.312 1117.57 228.03 1117.81 227.821L1117.81 227.802L1124.75 221.641H1124.75ZM1107.67 228.307H1110.52L1112.3 230.51L1111.66 233.259L1109.1 234.482L1106.52 233.255L1105.89 230.506L1107.67 228.307ZM1116.83 235.846C1116.95 235.839 1117.07 235.85 1117.19 235.872L1117.2 235.853L1126.45 237.405C1125.1 241.178 1122.51 244.447 1119.05 246.634L1115.46 238.03L1115.47 238.015C1115.14 237.254 1115.47 236.363 1116.23 236C1116.42 235.907 1116.62 235.856 1116.83 235.846H1116.83ZM1101.3 235.883C1102 235.893 1102.63 236.379 1102.8 237.092C1102.88 237.426 1102.84 237.756 1102.71 238.048L1102.74 238.082L1099.19 246.6C1095.87 244.486 1093.22 241.319 1091.81 237.435L1100.97 235.891L1100.99 235.91C1101.09 235.891 1101.2 235.882 1101.3 235.883V235.883ZM1109.04 239.615C1109.29 239.606 1109.54 239.656 1109.77 239.769C1110.08 239.918 1110.32 240.152 1110.47 240.432H1110.51L1115.03 248.536C1114.44 248.731 1113.84 248.898 1113.22 249.037C1109.77 249.816 1106.32 249.58 1103.2 248.525L1107.71 240.436H1107.72C1107.99 239.934 1108.5 239.635 1109.04 239.615Z"
    fill="#326CE5" />
  <g filter="url(#filter3_d_9911_32905)">
    <rect x="276.5" y="107" width="112" height="30" rx="5" fill="#5FD4FF" />
    <path
      d="M291.533 126.594L288.831 123.29C289.923 122.772 290.665 121.68 290.665 120.462C290.665 118.656 289.209 117.2 287.417 117.2H285.625H284.029C283.819 117.2 283.707 117.326 283.707 117.536V126.678C283.707 126.888 283.819 127 284.029 127H285.289C285.513 127 285.625 126.888 285.625 126.678V123.612H286.829L289.433 126.804C289.545 126.958 289.671 127 289.853 127H291.337C291.617 127 291.701 126.804 291.533 126.594ZM285.625 119.006H287.417C288.145 119.006 288.747 119.65 288.747 120.462C288.747 121.274 288.145 121.904 287.417 121.904H285.625V119.006ZM296.634 120.28L295.29 124.41L293.722 120.266C293.666 120.098 293.54 120 293.358 120H292.126C291.874 120 291.776 120.168 291.86 120.392L294.38 126.902L293.526 129.436C293.442 129.674 293.568 129.8 293.806 129.8H295.038C295.22 129.8 295.374 129.73 295.43 129.534L298.51 120.378C298.594 120.14 298.482 120 298.244 120H296.998C296.816 120 296.69 120.098 296.634 120.28ZM302.38 119.818C300.938 119.818 299.72 120.602 299.538 122.044C299.524 122.268 299.664 122.38 299.874 122.38H300.994C301.19 122.38 301.26 122.282 301.344 122.086C301.456 121.708 301.848 121.484 302.38 121.484C303.038 121.484 303.458 121.834 303.458 122.66V123.416C303.052 123.052 302.45 122.786 301.568 122.786C300.322 122.786 299.202 123.528 299.202 124.998C299.202 126.468 300.322 127.196 301.568 127.196C302.45 127.196 303.052 126.888 303.458 126.398V126.678C303.458 126.888 303.584 127.014 303.794 127.014H304.886C305.11 127.014 305.222 126.888 305.222 126.678V122.562C305.222 120.742 303.92 119.818 302.38 119.818ZM302.17 125.866C301.386 125.866 301.008 125.502 301.008 124.998C301.008 124.494 301.386 124.13 302.17 124.13C302.968 124.13 303.458 124.452 303.458 124.998C303.458 125.502 302.968 125.866 302.17 125.866ZM310.899 119.818C310.031 119.818 309.387 120.14 308.995 120.728V120.336C308.995 120.126 308.883 120 308.659 120H307.525C307.315 120 307.189 120.126 307.189 120.336V126.678C307.189 126.888 307.315 127 307.525 127H308.659C308.883 127 308.995 126.888 308.995 126.678V122.954C308.995 121.904 309.555 121.484 310.255 121.484C310.899 121.484 311.375 121.862 311.375 122.674V126.678C311.375 126.888 311.487 127 311.697 127H312.845C313.055 127 313.181 126.888 313.181 126.678V122.534C313.181 120.812 312.201 119.818 310.899 119.818ZM327.302 126.636L324.18 117.48C324.124 117.298 323.984 117.2 323.802 117.2H321.982C321.8 117.2 321.66 117.298 321.604 117.48L318.482 126.636C318.398 126.874 318.524 127 318.762 127H320.162C320.344 127 320.484 126.916 320.54 126.734L321.002 125.25H324.768L325.244 126.734C325.3 126.916 325.426 127 325.622 127H327.022C327.26 127 327.372 126.874 327.302 126.636ZM321.59 123.444L322.892 119.342L324.194 123.444H321.59ZM332.497 119.818C331.629 119.818 330.985 120.14 330.593 120.728V120.336C330.593 120.126 330.481 120 330.257 120H329.123C328.913 120 328.787 120.126 328.787 120.336V126.678C328.787 126.888 328.913 127 329.123 127H330.257C330.481 127 330.593 126.888 330.593 126.678V122.954C330.593 121.904 331.153 121.484 331.853 121.484C332.497 121.484 332.973 121.862 332.973 122.674V126.678C332.973 126.888 333.085 127 333.295 127H334.443C334.653 127 334.779 126.888 334.779 126.678V122.534C334.779 120.812 333.799 119.818 332.497 119.818ZM343.528 117.2H342.394C342.184 117.2 342.058 117.326 342.058 117.536V120.84C341.554 120.196 340.812 119.818 339.79 119.818C337.914 119.818 336.374 121.428 336.374 123.5C336.374 125.586 337.914 127.196 339.79 127.196C340.812 127.196 341.554 126.818 342.058 126.174V126.678C342.058 126.888 342.184 127 342.394 127H343.528C343.752 127 343.864 126.888 343.864 126.678V117.536C343.864 117.326 343.752 117.2 343.528 117.2ZM340.126 125.474C339.006 125.474 338.18 124.676 338.18 123.5C338.18 122.324 339.006 121.526 340.126 121.526C341.232 121.526 342.058 122.324 342.058 123.5C342.058 124.676 341.232 125.474 340.126 125.474ZM349.347 119.818C347.149 119.818 345.637 121.428 345.637 123.5C345.637 125.6 347.107 127.196 349.389 127.196C350.817 127.196 351.965 126.538 352.497 125.362C352.595 125.152 352.469 124.998 352.217 124.998H351.097C350.929 124.998 350.817 125.068 350.691 125.194C350.411 125.488 349.949 125.698 349.417 125.698C348.521 125.698 347.765 125.25 347.513 124.256H351.027H352.469C352.665 124.256 352.805 124.158 352.819 123.948C352.833 123.808 352.847 123.668 352.847 123.514C352.847 121.442 351.419 119.818 349.347 119.818ZM347.513 122.828C347.723 121.96 348.381 121.442 349.333 121.442C350.089 121.442 350.831 121.834 351.041 122.828H347.513ZM357.956 119.902C357.256 119.986 356.682 120.35 356.374 121.064V120.336C356.374 120.126 356.262 120 356.052 120H354.904C354.694 120 354.568 120.126 354.568 120.336V126.678C354.568 126.888 354.694 127 354.904 127H356.052C356.262 127 356.374 126.888 356.374 126.678V123.556C356.374 122.31 357.186 121.862 358.04 121.862C358.208 121.862 358.292 121.75 358.292 121.54V120.21C358.292 120 358.18 119.86 357.956 119.902ZM361.271 122.044C361.271 121.638 361.635 121.4 362.209 121.4C362.629 121.4 362.979 121.582 363.077 121.932C363.161 122.128 363.245 122.24 363.441 122.24H364.561C364.771 122.24 364.911 122.114 364.883 121.89C364.715 120.476 363.525 119.818 362.209 119.818C360.753 119.818 359.465 120.56 359.465 122.044C359.465 124.732 363.245 123.766 363.245 124.97C363.245 125.376 362.881 125.6 362.209 125.6C361.705 125.6 361.327 125.432 361.201 125.068C361.117 124.886 361.047 124.774 360.851 124.774H359.731C359.521 124.774 359.381 124.9 359.409 125.124C359.563 126.524 360.781 127.196 362.209 127.196C363.763 127.196 365.051 126.468 365.051 124.97C365.051 122.268 361.271 123.262 361.271 122.044ZM370.097 127.196C372.141 127.196 373.793 125.586 373.793 123.5C373.793 121.428 372.141 119.818 370.097 119.818C368.039 119.818 366.387 121.428 366.387 123.5C366.387 125.586 368.039 127.196 370.097 127.196ZM370.097 125.432C369.019 125.432 368.193 124.634 368.193 123.5C368.193 122.366 369.019 121.568 370.097 121.568C371.161 121.568 371.987 122.366 371.987 123.5C371.987 124.634 371.161 125.432 370.097 125.432ZM379.274 119.818C378.406 119.818 377.762 120.14 377.37 120.728V120.336C377.37 120.126 377.258 120 377.034 120H375.9C375.69 120 375.564 120.126 375.564 120.336V126.678C375.564 126.888 375.69 127 375.9 127H377.034C377.258 127 377.37 126.888 377.37 126.678V122.954C377.37 121.904 377.93 121.484 378.63 121.484C379.274 121.484 379.75 121.862 379.75 122.674V126.678C379.75 126.888 379.862 127 380.072 127H381.22C381.43 127 381.556 126.888 381.556 126.678V122.534C381.556 120.812 380.576 119.818 379.274 119.818Z"
      fill="currentColor" />
    <path
      d="M258.714 75C258.26 75 257.824 75.1801 257.502 75.5007C257.181 75.8213 257 76.2561 257 76.7094V105.77C257 106.223 257.181 106.658 257.502 106.978C257.824 107.299 258.26 107.479 258.714 107.479C258.979 107.479 259.241 107.417 259.478 107.299C259.715 107.18 259.921 107.009 260.08 106.798L265.434 100.845L266 99.9795C268.128 99.2598 266 100 267.5 99.5C268.738 98.9393 267.019 99.6536 269 98.9795L269.753 98.9987L279.286 98.9319C279.74 98.9319 280.176 98.7518 280.498 98.4312C280.819 98.1107 281 97.6759 281 97.2225C281 96.9677 280.943 96.7162 280.833 96.4863C280.723 96.2564 280.562 96.0539 280.364 95.8937L260.057 75.6477C259.897 75.4459 259.692 75.2828 259.46 75.1706C259.227 75.0585 258.973 75.0001 258.714 75Z"
      fill="#5FD4FF" />
  </g>
  <defs>
    <filter id="filter0_d_9911_32905" x="996" y="636" width="125" height="70" filterUnits="userSpaceOnUse"
      color-interpolation-filters="sRGB">
      <feFlood flood-opacity="0" result="BackgroundImageFix" />
      <feColorMatrix in="SourceAlpha" type="matrix" values="0 0 0 0 0 0 0 0 0 0 0 0 0 0 0 0 0 0 127 0"
        result="hardAlpha" />
      <feOffset dy="4" />
      <feGaussianBlur stdDeviation="2" />
      <feComposite in2="hardAlpha" operator="out" />
      <feColorMatrix type="matrix" values="0 0 0 0 0 0 0 0 0 0 0 0 0 0 0 0 0 0 0.25 0" />
      <feBlend mode="normal" in2="BackgroundImageFix" result="effect1_dropShadow_9911_32905" />
      <feBlend mode="normal" in="SourceGraphic" in2="effect1_dropShadow_9911_32905" result="shape" />
    </filter>
    <filter id="filter1_d_9911_32905" x="721" y="14" width="91.5" height="70" filterUnits="userSpaceOnUse"
      color-interpolation-filters="sRGB">
      <feFlood flood-opacity="0" result="BackgroundImageFix" />
      <feColorMatrix in="SourceAlpha" type="matrix" values="0 0 0 0 0 0 0 0 0 0 0 0 0 0 0 0 0 0 127 0"
        result="hardAlpha" />
      <feOffset dy="4" />
      <feGaussianBlur stdDeviation="2" />
      <feComposite in2="hardAlpha" operator="out" />
      <feColorMatrix type="matrix" values="0 0 0 0 0 0 0 0 0 0 0 0 0 0 0 0 0 0 0.25 0" />
      <feBlend mode="normal" in2="BackgroundImageFix" result="effect1_dropShadow_9911_32905" />
      <feBlend mode="normal" in="SourceGraphic" in2="effect1_dropShadow_9911_32905" result="shape" />
    </filter>
    <filter id="filter2_d_9911_32905" x="1232" y="500" width="121.5" height="70" filterUnits="userSpaceOnUse"
      color-interpolation-filters="sRGB">
      <feFlood flood-opacity="0" result="BackgroundImageFix" />
      <feColorMatrix in="SourceAlpha" type="matrix" values="0 0 0 0 0 0 0 0 0 0 0 0 0 0 0 0 0 0 127 0"
        result="hardAlpha" />
      <feOffset dy="4" />
      <feGaussianBlur stdDeviation="2" />
      <feComposite in2="hardAlpha" operator="out" />
      <feColorMatrix type="matrix" values="0 0 0 0 0 0 0 0 0 0 0 0 0 0 0 0 0 0 0.25 0" />
      <feBlend mode="normal" in2="BackgroundImageFix" result="effect1_dropShadow_9911_32905" />
      <feBlend mode="normal" in="SourceGraphic" in2="effect1_dropShadow_9911_32905" result="shape" />
    </filter>
    <filter id="filter3_d_9911_32905" x="253" y="75" width="139.5" height="70" filterUnits="userSpaceOnUse"
      color-interpolation-filters="sRGB">
      <feFlood flood-opacity="0" result="BackgroundImageFix" />
      <feColorMatrix in="SourceAlpha" type="matrix" values="0 0 0 0 0 0 0 0 0 0 0 0 0 0 0 0 0 0 127 0"
        result="hardAlpha" />
      <feOffset dy="4" />
      <feGaussianBlur stdDeviation="2" />
      <feComposite in2="hardAlpha" operator="out" />
      <feColorMatrix type="matrix" values="0 0 0 0 0 0 0 0 0 0 0 0 0 0 0 0 0 0 0.25 0" />
      <feBlend mode="normal" in2="BackgroundImageFix" result="effect1_dropShadow_9911_32905" />
      <feBlend mode="normal" in="SourceGraphic" in2="effect1_dropShadow_9911_32905" result="shape" />
    </filter>
    <clipPath id="clip0_9911_32905">
      <rect width="52.875" height="54.5625" fill="white" transform="translate(835.146 621.438)" />
    </clipPath>
    <clipPath id="clip1_9911_32905">
      <rect width="78" height="72" fill="white" transform="matrix(-1 0 0 1 900.523 204)" />
    </clipPath>
  </defs>
</svg>