<svg xmlns="http://www.w3.org/2000/svg" xmlns:xlink="http://www.w3.org/1999/xlink" id="Layer_1" x="0" y="0" version="1.1" viewBox="0 0 170.1 159.2" xml:space="preserve" style="enable-background:new 0 0 170.1 159.2"><style type="text/css">.st0{fill:#00a79d}.st1{fill:#92278f}.st2{fill:#f7941d}.st3{fill:#fec02b}.st4{fill:#ed2e90}</style><title>ccoss_logo_expandido_blanco_curvas</title><path d="M69.5,56.4c10-5.5,22.2-5.4,32.2,0.3l26.2-44.9l-2.5-1.3C113.8,4.4,101,0.9,87.9,0.1c-14.5-0.8-29,2.5-41.7,9.5	L43.6,11C43.6,11,69.5,56.4,69.5,56.4z M50.9,12.9c11.4-5.7,24-8.4,36.8-7.7c11.5,0.6,22.8,3.6,33.1,8.6	c-3.9,7.1-16.6,29.6-20.4,36.2c-0.9-0.4-2-0.7-3.1-1c1.6-3.3,4.1-8.5,6.6-13.7c2.4-5,4.3-9,5.6-11.8c0.8-1.7,1.4-3,1.8-4	c0.2-0.5,0.4-0.9,0.5-1.2c0.9-2.4-0.6-3.4-1.1-3.6c-21.6-11.4-48.2-1.7-49.4-1.3l-2.6,1l13.9,30.3L90.7,44L98,23.4l-10.5-1	l-2.7,16.7l-9,0.4l-10-22c6.7-2,25-6.1,40.4,0.8c-2.3,5.2-9.1,19.4-14.1,29.6c-6.1-1-13.4-1-20.3,2C67.8,43.1,54.8,20.1,50.9,12.9z" class="st0"/><path d="M117.9,86.4c-0.3,11.4-6.5,21.9-16.3,27.7l25.7,45.2l2.3-1.5c11.1-7,20.6-16.3,27.8-27.3	c8-12.2,12.4-26.3,12.7-40.9v-2.9C170.1,86.6,117.9,86.3,117.9,86.4z M164.8,91.9c-0.7,12.7-4.8,25-11.7,35.7	c-6.3,9.6-14.5,17.9-24,24.3c-4.2-6.9-17.3-29.2-21.1-35.8c0.8-0.6,1.6-1.3,2.4-2.1c2,3,5.3,7.8,8.6,12.6c3.1,4.6,5.6,8.2,7.4,10.8	c1.1,1.6,2,2.7,2.6,3.6c0.4,0.5,0.6,0.8,0.8,1.1c1.6,1.9,3.2,1.1,3.7,0.9c20.7-13,25.6-40.9,25.8-42.1l0.5-2.7l-33.2-3.1l-8.5,16.1	l14.2,16.6l6.1-8.6l-13.1-10.6l4.2-8l24.1,2.3c-1.7,6.8-7.2,24.8-20.9,34.6c-3.3-4.6-12.2-17.6-18.6-27c4-4.8,7.6-11.2,8.4-18.6	C130.2,91.5,156.7,91.7,164.8,91.9z" class="st1"/><path d="M52.2,84.4c0.3-11.4,6.5-21.9,16.3-27.7L42.8,11.5L40.5,13c-11.1,7-20.6,16.3-27.8,27.3	C4.7,52.5,0.3,66.7,0,81.2v2.9C0,84.1,52.2,84.4,52.2,84.4z M5.3,78.8C6,66.1,10,53.8,17,43.1c6.3-9.6,14.5-17.9,24.1-24.4	c4.2,6.9,17.3,29.2,21.1,35.8c-0.8,0.6-1.6,1.3-2.4,2.1c-2-3-5.3-7.8-8.6-12.6c-3.1-4.5-5.6-8.2-7.4-10.8c-1.1-1.5-2-2.7-2.5-3.6	c-0.3-0.5-0.6-0.8-0.8-1.1c-1.6-1.9-3.2-1.1-3.7-0.9C16.1,40.9,11.2,68.9,11,70l-0.5,2.7l33.2,3.2l8.5-16.1L37.9,43.2l-6.1,8.6	l13.1,10.6l-4.2,8l-24-2.3c1.7-6.8,7.2-24.7,20.9-34.6c3.3,4.6,12.2,17.6,18.6,27c-4,4.8-7.6,11.2-8.4,18.6	C39.9,79.2,13.5,79,5.3,78.8z" class="st2"/><path d="M102.3,57.2c9.8,6,15.8,16.6,15.8,28l52,0.3l-0.2-2.8c-0.5-13.1-3.9-26-9.8-37.7c-6.6-13-16.6-23.9-29.1-31.4	l-2.5-1.5C128.6,12.2,102.2,57.2,102.3,57.2z M130.6,19.4c10.6,7,19.3,16.6,25,28c5.2,10.3,8.3,21.5,9.1,33	c-8.1,0.2-33.9,0.4-41.6,0.4c-0.2-1-0.4-2.1-0.6-3.2c3.6-0.3,9.4-0.7,15.2-1.1c5.5-0.4,9.9-0.8,13-1.1c1.9-0.2,3.4-0.3,4.4-0.4	c0.6-0.1,1-0.1,1.3-0.2c2.5-0.4,2.6-2.2,2.6-2.8c-0.9-24.4-22.7-42.6-23.6-43.4l-2.1-1.8l-19.3,27.2l9.7,15.4l21.5-4l-4.4-9.6	l-15.8,6l-4.8-7.6l14-19.7c5.1,4.8,17.8,18.6,19.5,35.4c-5.6,0.6-21.3,1.8-32.7,2.6C118.8,66.7,115,60.4,109,56	C112.9,49.2,126.3,26.4,130.6,19.4z" class="st3"/><path d="M67.9,113c-9.8-6-15.8-16.6-15.8-28L0,84.7l0.2,2.8c0.5,13.1,3.9,26,9.8,37.7c6.6,13,16.6,23.9,29.1,31.4	l2.5,1.4C41.6,158.1,67.9,113,67.9,113z M39.6,150.9c-10.6-7-19.3-16.6-25-28c-5.2-10.3-8.3-21.5-9.1-33c8.1-0.2,33.9-0.4,41.6-0.4	c0.2,1,0.4,2,0.6,3.2c-3.6,0.3-9.4,0.7-15.2,1.1c-5.5,0.4-9.9,0.8-13,1.1c-1.9,0.2-3.4,0.3-4.4,0.4l-1.3,0.2	c-2.5,0.4-2.6,2.2-2.6,2.8c0.9,24.4,22.7,42.6,23.6,43.4l2.1,1.8l19.3-27.2l-9.7-15.4l-21.5,4l4.4,9.6l15.8-6l4.8,7.6l-14,19.7	c-5.1-4.9-17.8-18.6-19.5-35.4c5.6-0.6,21.3-1.8,32.7-2.6c2.2,5.8,5.9,12.2,11.9,16.5C57.3,121,43.8,143.9,39.6,150.9z" class="st4"/></svg>