<?xml version="1.0" encoding="utf-8"?>
<!-- Generator: Adobe Illustrator 21.1.0, SVG Export Plug-In . SVG Version: 6.00 Build 0)  -->
<svg version="1.1" id="Layer_1" xmlns="http://www.w3.org/2000/svg" xmlns:xlink="http://www.w3.org/1999/xlink" x="0px" y="0px"
	 viewBox="0 0 432 432" style="enable-background:new 0 0 432 432;" xml:space="preserve">
<style type="text/css">
	.st0{fill:none;}
	.st1{opacity:0.75;}
</style>
<g>
	<polygon class="st0" points="278.9,145.6 226.6,145.6 148.2,67.2 147.7,66.8 69.3,66.8 69.3,66.8 69.3,145.2 69.7,145.6 148.2,224 
		148.2,276.3 69.3,197.5 69.3,283.6 69.3,362.5 148.2,362.5 207.3,362.5 234.3,362.5 220.8,349 155.5,283.6 207.8,283.6 247,322.8 
		286.2,362.1 286.6,362.5 365.1,362.5 365.1,284.1 364.6,283.6 325.4,244.4 286.2,205.2 286.2,152.9 351.5,218.3 365.1,231.8 
		365.1,204.8 365.1,145.6 365.1,66.8 286.2,66.8 200,66.8 	"/>
	<polygon class="st1" points="69.3,362.5 69.3,283.6 10.1,283.6 10.1,421.7 148.2,421.7 148.2,362.5 	"/>
	<polygon class="st1" points="365.1,284.1 365.1,362.5 286.6,362.5 286.2,362.1 286.2,421.7 424.2,421.7 424.2,283.6 364.6,283.6 	
		"/>
	<polygon class="st1" points="69.3,145.2 69.3,66.8 69.3,66.8 147.7,66.8 148.2,67.2 148.2,7.6 10.1,7.6 10.1,145.6 69.7,145.6 	"/>
	<polygon class="st1" points="286.2,7.6 286.2,66.8 365.1,66.8 365.1,145.6 424.2,145.6 424.2,7.6 	"/>
	<polygon points="226.6,145.6 278.9,145.6 200,66.8 286.2,66.8 286.2,7.6 148.2,7.6 148.2,67.2 	"/>
	<polygon points="247,322.8 207.8,283.6 155.5,283.6 220.8,349 234.3,362.5 207.3,362.5 148.2,362.5 148.2,421.7 286.2,421.7 
		286.2,362.1 	"/>
	<polygon points="365.1,204.8 365.1,231.8 351.5,218.3 286.2,152.9 286.2,205.2 325.4,244.4 364.6,283.6 424.2,283.6 424.2,145.6 
		365.1,145.6 	"/>
	<polygon points="69.3,197.5 148.2,276.3 148.2,224 69.7,145.6 10.1,145.6 10.1,283.6 69.3,283.6 	"/>
</g>
</svg>
