<svg id="Layer_1" data-name="Layer 1" xmlns="http://www.w3.org/2000/svg" viewBox="0 0 360 360"><defs><style>.cls-1{fill:#bcedc4;}.cls-2{fill:#42a7b6;}.cls-3{fill:#2a2dde;}.cls-4{fill:#fb8143;}</style></defs><title>servicemeshinterface-icon-color</title><path class="cls-1" d="M123.2829,244.95884,58.00658,179.68247,163.04824,74.64081a14.841,14.841,0,0,1-17.24586-16.51664L39.4208,164.50575a14.91932,14.91932,0,1,1-.8886,29.46484L106.88656,262.325V244.95884Z"/><path class="cls-1" d="M234.62263,89.26957l-75.17349,75.1735c.38189-.0293.76406-.05822,1.15345-.05822A14.90287,14.90287,0,0,1,175.17867,182.476l76.38376-76.3836A54.12168,54.12168,0,0,1,234.62263,89.26957Z"/><path class="cls-1" d="M265.05029,179.306a14.956,14.956,0,0,1,.22838-2.51724l-68.17018,68.17012h17.21v16.55258L281.713,194.1171A14.85732,14.85732,0,0,1,265.05029,179.306Z"/><circle class="cls-2" cx="41.23377" cy="59.93715" r="14.92107" transform="translate(-9.06844 7.37887) rotate(-9.21748)"/><path class="cls-2" d="M160.60259,74.85826a14.8421,14.8421,0,1,0-14.92111-14.92111A14.95153,14.95153,0,0,0,160.60259,74.85826Z"/><path class="cls-2" d="M55.93739,181.75166a14.84766,14.84766,0,1,0-14.70361,12.47542A14.95224,14.95224,0,0,0,55.93739,181.75166Z"/><path class="cls-2" d="M160.60259,164.38485c-.38939,0-.77156.02892-1.15345.05822a14.75552,14.75552,0,1,0,1.15345-.05822Z"/><path class="cls-2" d="M279.97141,164.38485A14.91689,14.91689,0,1,0,294.89252,179.306,14.91313,14.91313,0,0,0,279.97141,164.38485Z"/><circle class="cls-2" cx="279.97141" cy="298.67479" r="14.92111"/><circle class="cls-2" cx="41.23377" cy="298.67479" r="14.92111" transform="translate(-199.11787 116.6365) rotate(-45)"/><path class="cls-3" d="M197.10849,244.95884H106.88656V352.39075h107.432V244.95884Zm-24.569,62.6415a14.83974,14.83974,0,1,1,2.98427-8.92557A14.98055,14.98055,0,0,1,172.53944,307.60034Z"/><path class="cls-4" d="M279.97135,6.818a53.716,53.716,0,1,0,53.716,53.716A53.77694,53.77694,0,0,0,279.97135,6.818Zm0,68.6371A14.92112,14.92112,0,1,1,294.89247,60.534,14.93791,14.93791,0,0,1,279.97135,75.45511Z"/></svg>