<svg id="Layer_1" data-name="Layer 1" xmlns="http://www.w3.org/2000/svg" viewBox="0 0 3204.0796 673.42381"><defs><style>.cls-1{fill:none;}.cls-2{fill:#fff;}</style></defs><title>servicemeshinterface-horizontal-white</title><path class="cls-1" d="M1449.70766,527.54681c-12.084,0-19.08,7.844-20.564,19.292h38.16C1467.30373,537.08679,1462.63967,528.18279,1449.70766,527.54681Z"/><path class="cls-1" d="M2829.58364,576.09478c0,7.42,6.14819,12.296,18.23217,12.296a54.44577,54.44577,0,0,0,15.26392-2.332v-18.444a61.60718,61.60718,0,0,0-17.384-2.332C2835.73183,565.28283,2829.58364,568.6748,2829.58364,576.09478Z"/><path class="cls-1" d="M934.33168,527.54681c-12.084,0-19.08,7.844-20.564,19.292h38.16C951.92775,537.08679,947.26369,528.18279,934.33168,527.54681Z"/><path class="cls-1" d="M1810.70375,527.54681c-12.084,0-19.08008,7.844-20.56408,19.292h38.16C1828.2997,537.08679,1823.63564,528.18279,1810.70375,527.54681Z"/><path class="cls-1" d="M2547.66371,527.54681c-12.084,0-19.08007,7.844-20.564,19.292h38.15991C2565.25966,537.08679,2560.5956,528.18279,2547.66371,527.54681Z"/><path class="cls-1" d="M3086.57167,527.54681c-12.084,0-19.08008,7.844-20.564,19.292h38.15991C3104.16762,537.08679,3099.5038,528.18279,3086.57167,527.54681Z"/><circle class="cls-2" cx="80.61171" cy="135.65081" r="25"/><path class="cls-2" d="M480.61171,310.65081a25.002,25.002,0,0,0-24.64325,20.80829l-114.192,114.19171H218.0837L108.71425,336.28167,284.67977,160.31616a24.99895,24.99895,0,1,0-28.87958-27.68879L77.58827,310.83929a24.99512,24.99512,0,0,0-1.48687,49.39789L190.61171,474.7478v150.903h180V473.38451L483.51882,360.4771a24.99783,24.99783,0,0,0-2.90711-49.82629ZM305.43794,538.5584a24.86729,24.86729,0,0,1-4.82623,12.09278,25.13923,25.13923,0,0,1-4.99963,4.99963,25.0011,25.0011,0,0,1-30.00073,0,25.13928,25.13928,0,0,1-4.99964-4.99963,25.00111,25.00111,0,0,1,0-30.00074,25.13928,25.13928,0,0,1,4.99964-4.99963,24.87344,24.87344,0,0,1,10.8081-4.64319,24.92876,24.92876,0,0,1,6.8-.22113,24.869,24.869,0,0,1,12.39258,4.86432,25.13923,25.13923,0,0,1,4.99963,4.99963,24.88767,24.88767,0,0,1,5,15.00037A25.21857,25.21857,0,0,1,305.43794,538.5584Z"/><circle class="cls-2" cx="480.61171" cy="535.65081" r="25"/><circle class="cls-2" cx="80.61171" cy="535.65081" r="25"/><path class="cls-2" d="M480.61171,46.65081a89.96,89.96,0,0,0-75.99658,138.16162L278.69637,310.73119a24.99665,24.99665,0,1,0,26.34649,30.22187L433.003,212.99291a89.98763,89.98763,0,1,0,47.6087-166.3421Zm4.06989,114.66351a24.98329,24.98329,0,0,1-29.06989-24.66351c0-.16742.0094-.33252.0127-.49914a24.99213,24.99213,0,0,1,49.97461,0c.00329.16662.01269.33172.01269.49914A25.03646,25.03646,0,0,1,484.6816,161.31432Z"/><path class="cls-2" d="M2547.4518,503.59081c-30.104,0-52.57617,22.26-52.57617,54.06,0,33.708,22.47217,53,53.636,53,21.83619,0,35.61622-7.42,44.52-14.204-.8479-7.844-4.876-16.324-11.448-21.41205-7.844,5.088-16.96,10.176-29.67994,10.176-15.052,0-22.896-6.36-24.80395-20.564h66.99194a87.39724,87.39724,0,0,0,1.06006-14.84C2595.15175,521.61083,2575.85976,503.59081,2547.4518,503.59081Zm-20.352,43.248c1.48389-11.448,8.48-19.292,20.564-19.292,12.93189.636,17.596,9.54,17.596,19.292Z"/><path class="cls-2" d="M3134.05971,549.80682c0-28.196-19.292-46.216-47.7-46.216-30.104,0-52.57593,22.26-52.57593,54.06,0,33.708,22.47192,53,53.636,53,21.83593,0,35.616-7.42,44.51977-14.204-.8479-7.844-4.876-16.324-11.448-21.41205-7.844,5.088-16.96,10.176-29.67993,10.176-15.052,0-22.896-6.36-24.80395-20.564h66.99194A87.37157,87.37157,0,0,0,3134.05971,549.80682Zm-68.052-2.968c1.48388-11.448,8.48-19.292,20.564-19.292,12.93213.636,17.596,9.54,17.596,19.292Z"/><path class="cls-2" d="M2724.93959,508.46679h-13.1438a64.30461,64.30461,0,0,0-1.272,13.144,55.397,55.397,0,0,0,1.272,12.508h13.1438v72.928a83.90231,83.90231,0,0,0,16.11206,1.272,75.05124,75.05124,0,0,0,15.47608-1.272v-72.716h22.04809a61.84792,61.84792,0,0,0,1.48389-12.932,63.55518,63.55518,0,0,0-1.48389-12.932h-22.04809v-3.18c0-9.964,4.876-13.78,13.144-13.78a23.34553,23.34553,0,0,1,12.93189,3.604c5.936-4.028,11.66015-13.568,12.29614-22.048-5.30005-3.604-14.62818-7.42-27.34815-7.42C2743.38368,465.64282,2725.78774,479.84679,2724.93959,508.46679Z"/><path class="cls-2" d="M2996.34365,576.73083c-4.45191,4.028-9.752,7.42-19.50391,7.42-16.324,0-23.74414-12.508-23.74414-27.56,0-15.476,8.05615-27.136,23.53223-27.136a26.24908,26.24908,0,0,1,17.80786,6.996c7.844-4.876,14.416-13.78,16.324-22.26-5.936-5.3-19.50391-11.236-34.98-11.236-31.16406,0-54.48389,20.988-54.48389,54.06,0,33.92,21.2,53.636,55.332,53.636,16.324,0,28.61987-6.572,35.82788-13.144C3009.91176,587.96679,3004.18764,580.54681,2996.34365,576.73083Z"/><path class="cls-2" d="M2624.53578,518.64282v88.404a98.68308,98.68308,0,0,0,31.58789,0v-72.08c3.39209-1.696,8.90406-2.968,15.47608-2.968a43.90934,43.90934,0,0,1,12.084,1.484c5.72388-7.208,8.6919-16.96,8.90406-27.348-5.936-1.908-13.78-2.968-23.32007-2.968C2647.21962,503.1668,2631.53163,512.28283,2624.53578,518.64282Z"/><path class="cls-2" d="M2845.05971,503.59081c-22.0481,0-37.948,9.54-43.67212,14.628a27.63989,27.63989,0,0,0,13.56812,20.14c5.3-4.028,15.47607-8.692,27.3479-8.692,14.84008,0,20.77612,6.148,20.77612,14.84v4.02795c-6.148-1.908-13.144-2.756-21.19995-2.96795-25.6521-.212-43.884,10.6-43.884,31.8,0,22.048,16.748,33.072,45.58007,33.072a135.155,135.155,0,0,0,50.87989-9.96405v-52.788C2894.45571,516.31078,2874.31581,503.59081,2845.05971,503.59081Zm18.02,82.468a54.44577,54.44577,0,0,1-15.26392,2.332c-12.084,0-18.23217-4.876-18.23217-12.296s6.14819-10.812,16.11206-10.812a61.60718,61.60718,0,0,1,17.384,2.332Z"/><path class="cls-2" d="M2462.73574,577.36681c-3.39209,2.968-8.05591,5.936-13.992,5.936-9.32812,0-14.62817-3.816-14.62817-15.264v-34.132h35.19214a69.65768,69.65768,0,0,0,1.48388-13.356,61.15758,61.15758,0,0,0-1.48388-12.508h-35.19214v-26.5a90.8063,90.8063,0,0,0-15.26392-1.272,105.20733,105.20733,0,0,0-16.11206,1.272v26.5h-17.17187a85.80393,85.80393,0,0,0-1.06006,12.72,84.645,84.645,0,0,0,1.06006,13.144h17.17187v41.976c0,24.592,17.384,34.344,40.49219,34.344,15.26392,0,25.43994-5.512,32.648-11.236C2474.81972,590.5108,2468.88368,580.97082,2462.73574,577.36681Z"/><path class="cls-2" d="M1242.32765,455.46679a18.95589,18.95589,0,0,0-19.08,18.868,19.08121,19.08121,0,1,0,19.08-18.868Z"/><path class="cls-2" d="M1168.21169,506.55883c-5.724,29.044-12.932,54.908-18.656,69.112-.42395,1.484-.848,2.968-1.272,4.876-.42395-1.908-.848-3.392-1.272-4.876-5.088-12.932-13.144-40.068-18.868-69.112a101.821,101.821,0,0,0-11.66-.63605,112.789,112.789,0,0,0-22.684,2.332c8.48,38.16,18.23206,67.628,38.37207,98.792a78.63118,78.63118,0,0,0,15.688,1.484,76.554,76.554,0,0,0,15.476-1.484c18.23206-29.892,28.832-59.784,37.948-98.792a95.29356,95.29356,0,0,0-20.776-2.332A110.67505,110.67505,0,0,0,1168.21169,506.55883Z"/><path class="cls-2" d="M1362.44777,576.73083c-4.452,4.028-9.75207,7.42-19.504,7.42-16.324,0-23.744-12.508-23.744-27.56,0-15.476,8.056-27.136,23.532-27.136a26.24915,26.24915,0,0,1,17.808,6.996c7.844-4.876,14.416-13.78,16.324-22.26-5.93591-5.3-19.5039-11.236-34.98-11.236-31.16394,0-54.484,20.988-54.484,54.06,0,33.92,21.20007,53.636,55.332,53.636,16.324,0,28.62-6.572,35.828-13.144C1376.01576,587.96679,1370.29177,580.54681,1362.44777,576.73083Z"/><path class="cls-2" d="M1011.20375,518.64282v88.404a98.68388,98.68388,0,0,0,31.588,0v-72.08c3.392-1.696,8.90393-2.968,15.476-2.968a43.90939,43.90939,0,0,1,12.084,1.484c5.724-7.208,8.692-16.96,8.90405-27.348-5.936-1.908-13.78-2.968-23.32006-2.968C1033.88771,503.1668,1018.19972,512.28283,1011.20375,518.64282Z"/><path class="cls-2" d="M812.93971,523.09478c-24.38-5.936-27.348-8.904-27.348-15.688,0-6.36,6.78406-11.024,19.292-11.024a60.42353,60.42353,0,0,1,34.76807,10.6c8.692-5.08795,13.99194-15.9,14.62793-25.652-8.05591-6.36-23.744-13.992-47.276-13.992-31.376,0-52.152,16.748-52.152,42.824.212,27.348,20.352,36.252,43.248,41.764,23.95593,6.148,27.348,10.176,27.348,17.172,0,7.42-5.936,12.296-21.20007,12.296-15.9,0-30.104-5.724-39.008-12.932-7.844,4.876-13.568,14.204-14.628,25.228,8.692,7.632,25.652,16.74805,53,16.74805,32.648,0,53.212-16.324,52.57605-45.79206C855.76369,540.26684,838.37966,529.45483,812.93971,523.09478Z"/><path class="cls-2" d="M934.11977,503.59081c-30.104,0-52.57605,22.26-52.57605,54.06,0,33.708,22.472,53,53.636,53,21.83606,0,35.616-7.42,44.52-14.204-.848-7.844-4.876-16.324-11.448-21.41205-7.844,5.088-16.96,10.176-29.68006,10.176-15.052,0-22.896-6.36-24.80395-20.564h66.99194a87.38492,87.38492,0,0,0,1.06006-14.84C981.81972,521.61083,962.52773,503.59081,934.11977,503.59081Zm-20.352,43.248c1.484-11.448,8.48-19.292,20.564-19.292,12.932.636,17.59607,9.54,17.59607,19.292Z"/><path class="cls-2" d="M1226.42775,506.34679v100.7a99.854,99.854,0,0,0,15.688,1.272,96.60816,96.60816,0,0,0,15.9-1.272v-100.7a104.61367,104.61367,0,0,0-15.9-1.272A95.91842,95.91842,0,0,0,1226.42775,506.34679Z"/><path class="cls-2" d="M2055.18373,502.95483a56.11288,56.11288,0,0,0-21.624,4.24v-39.008a109.50985,109.50985,0,0,0-16.11206-1.272,95.913,95.913,0,0,0-15.688,1.272v138.86a109.51488,109.51488,0,0,0,16.11206,1.272,95.91071,95.91071,0,0,0,15.688-1.272v-70.808a35.50574,35.50574,0,0,1,17.17212-4.664c12.93188,0,18.65576,6.996,18.65576,19.504v55.968a97.85626,97.85626,0,0,0,15.68823,1.272,100.48683,100.48683,0,0,0,15.89991-1.272v-64.024C2100.97573,520.55084,2085.28774,502.95483,2055.18373,502.95483Z"/><path class="cls-2" d="M2312.08779,502.95483c-25.01612,0-43.03614,9.752-50.88013,16.748v87.344a97.8533,97.8533,0,0,0,15.688,1.272,100.48735,100.48735,0,0,0,15.90014-1.272v-71.232a34.10156,34.10156,0,0,1,16.96-4.24c11.23584,0,19.08008,5.088,19.08008,19.504v55.968a100.00748,100.00748,0,0,0,31.79981,0v-61.056C2360.63564,521.18682,2345.58364,502.95483,2312.08779,502.95483Z"/><path class="cls-2" d="M2192.81581,471.15484v135.892a105.20681,105.20681,0,0,0,16.11182,1.272,93.34112,93.34112,0,0,0,15.47607-1.272v-135.892a85.2252,85.2252,0,0,0-16.11206-1.272A75.04254,75.04254,0,0,0,2192.81581,471.15484Z"/><path class="cls-2" d="M1449.49575,503.59081c-30.104,0-52.57605,22.26-52.57605,54.06,0,33.708,22.472,53,53.636,53,21.83606,0,35.61609-7.42,44.52-14.204-.848-7.844-4.876-16.324-11.448-21.41205-7.844,5.088-16.96,10.176-29.67993,10.176-15.052,0-22.89612-6.36-24.80408-20.564h66.99207a87.39709,87.39709,0,0,0,1.05994-14.84C1497.1957,521.61083,1477.9037,503.59081,1449.49575,503.59081Zm-20.35206,43.248c1.484-11.448,8.48-19.292,20.564-19.292,12.932.636,17.59607,9.54,17.59607,19.292Z"/><path class="cls-2" d="M1810.49159,503.59081c-30.10388,0-52.57592,22.26-52.57592,54.06,0,33.708,22.472,53,53.636,53,21.83594,0,35.616-7.42,44.52-14.204-.8479-7.844-4.876-16.324-11.448-21.41205-7.844,5.088-16.96,10.176-29.67993,10.176-15.052,0-22.896-6.36-24.80407-20.564h66.99206a87.39724,87.39724,0,0,0,1.06006-14.84C1858.19179,521.61083,1838.8998,503.59081,1810.49159,503.59081Zm-20.35192,43.248c1.484-11.448,8.4801-19.292,20.56408-19.292,12.93189.636,17.596,9.54,17.596,19.292Z"/><path class="cls-2" d="M1935.48769,544.7188c-15.8999-2.968-20.352-4.876-20.352-9.964s4.66406-7.208,14.62817-7.208a64.028,64.028,0,0,1,29.468,7.42c5.72388-4.452,9.752-11.872,11.02392-22.048-6.99609-4.452-19.928-9.328-40.916-9.328-25.228,0-44.30811,11.872-44.30811,32.648,0,22.26,17.384,28.196,33.92017,31.588,16.53589,2.968,21.83594,5.724,21.83594,11.024,0,4.452-3.39209,8.056-13.144,8.056-15.26391,0-25.6521-5.512-33.072-10.176-6.148,3.816-10.812,11.236-12.50805,21.2,6.572,5.512,21.83618,12.72,44.52,12.72,29.468,0,45.58007-13.144,45.58007-34.132C1972.16371,554.68279,1955.41567,548.11083,1935.48769,544.7188Z"/><path class="cls-2" d="M1693.76369,471.15484l-33.91992,83.952-2.12,6.784-2.54407-6.784-36.676-83.952a121.455,121.455,0,0,0-17.172-1.272,62.60371,62.60371,0,0,0-15.9,1.696v135.468a88.53162,88.53162,0,0,0,14.416,1.272,93.56451,93.56451,0,0,0,14.84009-1.272v-65.72l-.848-17.596,4.876,12.932,24.592,58.936a109.71641,109.71641,0,0,0,13.356.848,99.54791,99.54791,0,0,0,13.144-.848l23.31994-58.724,5.30005-15.476-1.06006,19.928v65.72a95.66649,95.66649,0,0,0,14.84,1.272,88.52924,88.52924,0,0,0,14.416-1.272v-135.68a85.97929,85.97929,0,0,0-16.11193-1.484A103.40694,103.40694,0,0,0,1693.76369,471.15484Z"/></svg>