<svg xmlns="http://www.w3.org/2000/svg" xmlns:xlink="http://www.w3.org/1999/xlink" id="Layer_1" x="0" y="0" version="1.1" viewBox="0 0 24 24" xml:space="preserve" style="enable-background:new 0 0 24 24"><g><path style="fill:#303c42" d="M23.77,11.079c-0.069-0.045-1.498-0.947-2.849-0.732c-0.327-1.369-1.583-2.222-1.645-2.263 c-0.203-0.135-0.47-0.106-0.638,0.069c-0.1,0.104-0.967,1.074-0.722,3.282c0.018,0.152-0.028,0.303-0.126,0.411 C17.704,11.945,17.582,12,17.448,12H17V9.5C17,9.224,16.776,9,16.5,9H14V6.5v-3C14,3.224,13.776,3,13.5,3h-3 C10.223,3,10,3.224,10,3.5V6H7.5h-3C4.223,6,4,6.224,4,6.5V9H1.5C1.223,9,1,9.224,1,9.5V12H0.5C0.223,12,0,12.224,0,12.5 C0,20.172,5.595,21,8,21c6.193,0,10.498-3.762,12.377-7.077c2.476-0.395,3.509-2.094,3.554-2.168 C24.067,11.523,23.997,11.225,23.77,11.079z"/><rect style="fill:#42a5f5" width="2" height="2" x="14" y="10"/><rect style="fill:#42a5f5" width="2" height="2" x="11" y="10"/><rect style="fill:#42a5f5" width="2" height="2" x="8" y="10"/><rect style="fill:#42a5f5" width="2" height="2" x="5" y="10"/><rect style="fill:#42a5f5" width="2" height="2" x="11" y="7"/><rect style="fill:#42a5f5" width="2" height="2" x="11" y="4"/><rect style="fill:#42a5f5" width="2" height="2" x="8" y="7"/><rect style="fill:#42a5f5" width="2" height="2" x="5" y="7"/><rect style="fill:#42a5f5" width="2" height="2" x="2" y="10"/><path style="fill:#42a5f5" d="M20.002,12.965c-0.162,0.02-0.305,0.116-0.382,0.261C17.942,16.351,13.891,20,8,20 c-2.546,0-6.772-0.924-6.991-7h16.439c0.422,0,0.809-0.173,1.089-0.486c0.287-0.321,0.424-0.754,0.375-1.189 c-0.113-1.02,0.053-1.687,0.214-2.069C19.501,9.617,20,10.241,20,11c0,0.173,0.09,0.334,0.237,0.426 c0.146,0.089,0.331,0.099,0.486,0.021c0.595-0.3,1.44-0.048,2.015,0.212C22.306,12.114,21.437,12.797,20.002,12.965z"/><path style="opacity:.1" d="M20.002,12.465c-0.162,0.02-0.305,0.116-0.382,0.261C17.942,15.851,13.891,19.5,8,19.5 c-2.472,0-6.518-0.886-6.951-6.5h-0.04C1.227,19.076,5.454,20,8,20c5.892,0,9.942-3.649,11.62-6.774 c0.077-0.145,0.22-0.241,0.382-0.261c1.436-0.168,2.305-0.851,2.736-1.306c-0.116-0.053-0.249-0.102-0.384-0.15 C21.862,11.908,21.1,12.336,20.002,12.465z"/><circle style="fill:#303c42" cx="5.041" cy="16" r="1"/><circle style="fill:#fff" cx="5.469" cy="15.729" r=".323"/><linearGradient id="SVGID_1_" x1="1.556" x2="21.3" y1="8.195" y2="17.401" gradientUnits="userSpaceOnUse"><stop offset="0" style="stop-color:#fff;stop-opacity:.2"/><stop offset="1" style="stop-color:#fff;stop-opacity:0"/></linearGradient><path style="fill:url(#SVGID_1_)" d="M23.77,11.079c-0.069-0.045-1.498-0.947-2.849-0.732c-0.327-1.369-1.583-2.222-1.645-2.263 c-0.203-0.135-0.47-0.106-0.638,0.069c-0.1,0.104-0.967,1.074-0.722,3.282c0.018,0.152-0.028,0.303-0.126,0.411 C17.704,11.945,17.582,12,17.448,12H17V9.5C17,9.224,16.776,9,16.5,9H14V6.5v-3C14,3.224,13.776,3,13.5,3h-3 C10.223,3,10,3.224,10,3.5V6H7.5h-3C4.223,6,4,6.224,4,6.5V9H1.5C1.223,9,1,9.224,1,9.5V12H0.5C0.223,12,0,12.224,0,12.5 C0,20.172,5.595,21,8,21c6.193,0,10.498-3.762,12.377-7.077c2.476-0.395,3.509-2.094,3.554-2.168 C24.067,11.523,23.997,11.225,23.77,11.079z"/></g><metadata><rdf:RDF xmlns:dc="http://purl.org/dc/elements/1.1/" xmlns:rdf="http://www.w3.org/1999/02/22-rdf-syntax-ns#" xmlns:rdfs="http://www.w3.org/2000/01/rdf-schema#"><rdf:Description about="https://iconscout.com/legal#licenses" dc:date="2017-03-22" dc:description="social; media; social media; logo; docker" dc:format="image/svg+xml" dc:language="en" dc:publisher="Iconscout" dc:title="social; media; social media; logo; docker"><dc:creator><rdf:Bag><rdf:li>Alpár - Etele Méder</rdf:li></rdf:Bag></dc:creator></rdf:Description></rdf:RDF></metadata></svg>