<svg xmlns="http://www.w3.org/2000/svg" id="Layer_1" data-name="Layer 1" viewBox="0 0 405 405"><defs><style>.cls-1{fill:none;stroke:#fff;stroke-miterlimit:10;stroke-width:5px}.cls-2{fill:#fff}</style></defs><title>docker_white_trim</title><g id="Dark_Blue" data-name="Dark Blue"><path d="M351.65,401.28H53.35A49.72,49.72,0,0,1,3.63,351.59V53.41A49.72,49.72,0,0,1,53.35,3.72h298.3a49.72,49.72,0,0,1,49.72,49.69V351.59A49.72,49.72,0,0,1,351.65,401.28Z" class="cls-1"/></g><path d="M364.53,170.3c-11.4-6.7-26.6-7.5-39.4-3.7-1.6-13.8-10.6-25.8-21.3-34.3l-4.3-3.5-3.7,4.3c-7.2,8.3-9.3,22.1-8.3,32.7.8,7.7,3.2,15.7,8,22.1-3.7,2.1-7.7,5.1-11.4,6.4-7.5,2.7-15.7,5.3-23.7,5.3h-17.8V162.1H208V95.5h-39.9v31.9h-66.5V162H66.93v37.3H37.13l-.5,4c-1.3,17,.8,33.5,8,49.2l2.9,5.9.3.5c21,35.7,57.8,50.6,97.9,50.6,77.7,0,141.9-34.9,171.1-108.1,19.7,1.1,39.9-4.8,49.5-23.7l2.4-4.8-4.2-2.6Zm-257.7-34.9h26.6v29.3h-26.6Zm34.9,117.7a8.3,8.3,0,1,1-8.3-8.3A8.55,8.55,0,0,1,141.73,253.1ZM106.83,170h26.6v29.3h-26.6Zm-34.6,0h29.3v29.3H72.23ZM146,303.7c-42.1-.3-64.7-14.4-83.3-33,5.6.3,10.9.5,15.7.5,4.3,0,8.5,0,12.5-.3a122.44,122.44,0,0,0,26.9-4c6.1,14.1,17.3,27.1,37.3,36.7l-9.1.1Zm22.1-104.4h-29.3V170h29.3Zm0-34.6h-29.3V135.4h29.3Zm34.6,34.6h-29.3V170h29.3v29.3Zm0-34.6h-29.3V135.4h29.3v29.3Zm0-34.6h-29.3V100.8h29.3v29.3Zm34.6,69.2H208V170h29.3Zm-101.7,48.5a4.34,4.34,0,0,0-2.1-.5,5.9,5.9,0,1,0,5.9,5.9,5.89,5.89,0,0,0-.5-2.1,2.33,2.33,0,0,1-2.1,1.3,2.43,2.43,0,0,1-2.4-2.4A2.58,2.58,0,0,1,135.63,247.8Z" class="cls-2"/></svg>