<?xml version="1.0" encoding="utf-8"?>
<!-- Generator: Adobe Illustrator 22.0.1, SVG Export Plug-In . SVG Version: 6.00 Build 0)  -->
<svg version="1.1" id="Layer_1" xmlns="http://www.w3.org/2000/svg" xmlns:xlink="http://www.w3.org/1999/xlink" x="0px" y="0px"
	 viewBox="0 0 265.5 199" style="enable-background:new 0 0 265.5 199;" xml:space="preserve">
<style type="text/css">
	.st0{fill:#00B39F;}
</style>
<path class="st0" d="M260.4,65.7c2-1.6,5-0.1,5,2.4v106c0,13.7-11.1,24.9-24.9,24.9H24.9C11.2,199,0,187.9,0,174.1v-106
	c0-2.6,3-4,5-2.4c11.6,9,27,20.5,79.9,58.9c10.9,8,29.4,24.8,47.8,24.7c18.5,0.2,37.3-17,47.8-24.7
	C233.4,86.2,248.8,74.7,260.4,65.7z M132.7,132.7c12,0.2,29.3-15.1,38.1-21.5c68.8-49.9,74-54.3,89.9-66.7c3-2.3,4.8-6,4.8-9.8v-9.8
	c0-13.7-11.1-24.9-24.9-24.9H24.9C11.2,0,0,11.1,0,24.9v9.8c0,3.8,1.8,7.4,4.8,9.8c15.9,12.4,21.1,16.8,89.9,66.7
	C103.4,117.5,120.7,132.9,132.7,132.7L132.7,132.7z"/>
</svg>
