<svg xmlns="http://www.w3.org/2000/svg" xmlns:xlink="http://www.w3.org/1999/xlink" id="Layer_1" x="0" y="0" version="1.1" viewBox="0 0 400 355.6" xml:space="preserve" style="enable-background:new 0 0 400 355.6"><path d="M372.5,90.8c-4.1-15.6-16.3-27.9-31.8-32C312.6,51.2,200,51.2,200,51.2s-112.6,0-140.6,7.6c-15.5,4.2-27.7,16.4-31.8,32	C20,119.1,20,178,20,178s0,58.9,7.5,87.2c4.1,15.6,16.3,27.4,31.8,31.5c28.1,7.6,140.6,7.6,140.6,7.6s112.6,0,140.6-7.6	c15.5-4.2,27.7-15.9,31.8-31.5C380,237,380,178,380,178S380,119.1,372.5,90.8z M163.2,231.6v-107l94.1,53.5L163.2,231.6L163.2,231.6	z"/></svg>