<svg width="209" height="208" viewBox="0 0 209 208" fill="none" xmlns="http://www.w3.org/2000/svg">
<g filter="url(#filter0_dddd_16209_38782)">
<path d="M105.857 195.984C105.076 196.765 103.81 196.765 103.029 195.984L12.3007 105.256C11.5196 104.475 11.5196 103.209 12.3007 102.427L103.029 11.6991C103.81 10.9181 105.076 10.9181 105.857 11.6991L196.586 102.427C197.367 103.209 197.367 104.475 196.586 105.256L105.857 195.984Z" fill="url(#paint0_linear_16209_38782)" shape-rendering="crispEdges"/>
<path d="M100.908 198.106L103.018 195.995L100.908 198.106C102.86 200.058 106.026 200.058 107.979 198.106L105.863 195.99L107.979 198.106L198.707 107.377L196.602 105.272L198.707 107.377C200.66 105.425 200.66 102.259 198.707 100.306L196.591 102.422L198.707 100.306L107.979 9.57779C106.026 7.62517 102.86 7.62517 100.908 9.57779L10.1794 100.306C8.22673 102.259 8.22673 105.425 10.1794 107.377L100.908 198.106Z" stroke="#F6F8F8" stroke-width="6" shape-rendering="crispEdges"/>
</g>
<g filter="url(#filter1_di_16209_38782)">
<path d="M105.857 185.14C105.076 185.922 103.81 185.922 103.029 185.14L23.1478 105.259C22.3668 104.478 22.3668 103.212 23.1478 102.431L103.029 22.5497C103.81 21.7686 105.076 21.7686 105.857 22.5497L185.739 102.431C186.52 103.212 186.52 104.478 185.739 105.259L105.857 185.14Z" fill="#252E31"/>
</g>
<path d="M103.699 23.0392C104.48 22.2582 105.746 22.2582 106.527 23.0392L186.192 102.704C186.973 103.485 186.973 104.751 186.192 105.532L106.527 185.197C105.746 185.978 104.48 185.978 103.699 185.197L24.0343 105.532C23.2533 104.751 23.2533 103.485 24.0343 102.704L103.699 23.0392Z" fill="url(#paint1_linear_16209_38782)"/>
<g filter="url(#filter2_d_16209_38782)">
<path d="M133.801 135.909C128.797 135.909 123.794 134.243 119.402 131.229C110.619 137.292 99.3887 137.292 90.6057 131.229C86.2143 134.243 81.2108 135.909 76.2074 135.909H69.0083V143H76.2074C81.1748 143 86.0703 141.759 90.6057 139.49C99.6767 144.064 110.331 144.064 119.402 139.49C123.938 141.795 128.833 143 133.801 143H141V135.909H133.801ZM76.0274 128.818H76.2074C81.9668 128.818 87.0782 125.698 90.6057 121.727C94.1333 125.698 99.2447 128.818 105.004 128.818C110.763 128.818 115.875 125.698 119.402 121.727C122.93 125.698 128.041 128.818 133.801 128.818H133.981L140.784 105.135C141.072 104.213 141 103.22 140.568 102.369C140.136 101.518 139.344 100.88 138.408 100.596L133.801 99.1073V82.7273C133.801 78.8273 130.561 75.6364 126.602 75.6364H115.803V65H94.2053V75.6364H83.4066C79.447 75.6364 76.2074 78.8273 76.2074 82.7273V99.1073L71.564 100.596C70.6281 100.88 69.8362 101.518 69.4042 102.369C68.9723 103.22 68.8643 104.213 69.1882 105.135L76.0274 128.818ZM83.4066 82.7273H126.602V96.8027L105.004 89.8182L83.4066 96.8027V82.7273Z" fill="#FBFBFB"/>
</g>
<g clip-path="url(#clip0_16209_38782)">
<path d="M108.913 101.596C109.395 102.197 109.748 102.871 110.018 103.588C110.366 104.511 110.525 105.472 110.326 106.446C110.059 107.754 109.295 108.675 108.016 109.117C107.52 109.289 107.004 109.358 106.492 109.143C106.421 109.118 106.355 109.082 106.295 109.036C106.288 109.341 106.173 109.634 105.971 109.862C106.038 109.832 106.109 109.812 106.182 109.802C106.253 109.789 106.327 109.779 106.396 109.772C107.08 109.716 107.738 109.571 108.363 109.272C109.327 108.81 110.135 108.151 110.821 107.336C111.213 106.879 111.542 106.37 111.797 105.824C112.159 105.019 112.391 104.162 112.486 103.284C112.574 102.528 112.55 101.785 112.474 101.036C112.456 100.855 112.378 100.78 112.216 100.751C111.798 100.677 111.38 100.593 110.97 100.494C109.896 100.233 108.814 100.011 107.738 99.7625C107.355 99.6732 106.971 99.5927 106.587 99.5078C106.869 99.7765 107.171 99.9974 107.464 100.231C107.983 100.645 108.495 101.071 108.913 101.596Z" fill="#00B39F"/>
<path d="M97.0927 110.909C97.4218 109.524 97.9665 108.253 99.0913 107.316C100.115 106.463 101.275 106.197 102.553 106.641C103.198 106.864 103.751 107.225 104.045 107.882C104.074 107.94 104.095 108.002 104.107 108.066C104.307 107.874 104.564 107.752 104.839 107.718C104.822 107.707 104.805 107.695 104.786 107.679C104.393 107.363 104.02 107.019 103.564 106.787C101.944 105.961 100.242 105.854 98.512 106.295C96.6777 106.761 95.2598 107.875 94.0964 109.34C93.9658 109.505 93.9764 109.611 94.0839 109.777C94.9861 111.182 95.8796 112.592 96.776 114C96.8946 114.187 97.017 114.37 97.1799 114.616C97.1973 114.201 97.1095 113.869 97.0628 113.535C96.9399 112.657 96.885 111.782 97.0927 110.909Z" fill="#00D3A9"/>
<path d="M99.8543 101.157C100.477 101.053 101.106 100.983 101.737 100.949C102.309 100.917 102.868 101.03 103.424 101.175C104.734 101.518 105.908 102.091 106.77 103.177C107.592 104.212 107.79 105.374 107.348 106.619C107.123 107.255 106.741 107.784 106.09 108.071C106.045 108.093 105.996 108.106 105.946 108.11C106.141 108.318 106.262 108.584 106.289 108.868C106.319 108.821 106.352 108.776 106.389 108.735C106.866 108.167 107.298 107.571 107.545 106.86C107.87 105.928 108.006 104.94 107.944 103.954C107.897 102.99 107.653 102.046 107.229 101.18C106.621 99.9514 105.745 98.9405 104.675 98.0902C104.515 97.9633 104.4 97.9783 104.233 98.0853C102.856 98.9713 101.47 99.8448 100.092 100.727C99.8784 100.864 99.6485 100.983 99.4418 101.177C99.5796 101.186 99.718 101.179 99.8543 101.157Z" fill="#00D3A9"/>
<path d="M95.9826 106.864C96.5247 106.178 97.0428 105.468 97.7715 104.961C99.121 104.024 100.578 103.418 102.254 103.651C103.603 103.84 104.579 104.577 105.066 105.878C105.275 106.437 105.341 107.015 105.096 107.592C105.08 107.631 105.06 107.668 105.036 107.702C105.314 107.709 105.581 107.806 105.799 107.977C105.793 107.958 105.789 107.939 105.785 107.919C105.773 107.849 105.772 107.775 105.767 107.704C105.724 107.135 105.631 106.577 105.426 106.038C104.993 104.896 104.251 103.99 103.336 103.202C101.986 102.039 100.396 101.54 98.6497 101.473C98.1542 101.455 97.6568 101.449 97.1604 101.514C96.8178 101.559 96.7917 101.563 96.718 101.9C96.3996 103.357 96.0797 104.813 95.7584 106.269C95.6751 106.648 95.5936 107.028 95.5001 107.461C95.7204 107.262 95.836 107.049 95.9826 106.864Z" fill="#00B39F"/>
<path d="M115.919 108.244C115.013 106.832 114.117 105.414 113.212 104.002C113.092 103.815 112.997 103.606 112.796 103.398C112.853 103.891 112.895 104.32 112.956 104.746C113.082 105.635 113.081 106.517 112.846 107.391C112.477 108.766 111.863 109.987 110.707 110.875C110.074 111.363 109.342 111.584 108.555 111.594C108.003 111.601 107.478 111.441 106.99 111.18C106.564 110.951 106.202 110.654 105.987 110.207C105.92 110.066 105.891 109.98 105.912 109.923C105.705 110.13 105.433 110.26 105.141 110.292C105.217 110.341 105.29 110.395 105.358 110.454C105.763 110.783 106.167 111.112 106.643 111.339C107.969 111.97 109.37 112.104 110.796 111.879C112.947 111.541 114.577 110.331 115.914 108.67C116.036 108.517 116.021 108.402 115.919 108.244Z" fill="#00D3A9"/>
<path d="M113.068 112.307C111.736 113.648 110.137 114.397 108.214 114.403C106.872 114.406 105.452 113.525 104.975 112.232C104.778 111.697 104.647 111.154 104.85 110.589C104.904 110.44 104.94 110.345 104.981 110.297C104.69 110.294 104.408 110.192 104.182 110.008C104.206 110.08 104.221 110.155 104.225 110.231C104.268 110.645 104.29 111.065 104.413 111.464C105.074 113.596 106.494 115.054 108.5 115.937C109.782 116.502 111.146 116.674 112.548 116.528C113.175 116.463 113.178 116.474 113.303 115.925C113.647 114.408 113.993 112.892 114.327 111.373C114.383 111.118 114.484 110.865 114.479 110.535C114.401 110.642 114.358 110.698 114.318 110.755C113.929 111.293 113.536 111.837 113.068 112.307Z" fill="#00B39F"/>
<path d="M101.315 116.685C100.703 115.998 100.265 115.204 99.9612 114.343C99.672 113.52 99.5019 112.673 99.6402 111.791C99.8407 110.51 100.49 109.553 101.687 109.018C102.265 108.758 102.877 108.635 103.508 108.877C103.577 108.9 103.643 108.931 103.705 108.97C103.71 108.692 103.806 108.423 103.976 108.203C103.925 108.213 103.874 108.22 103.822 108.223C103.478 108.245 103.137 108.288 102.799 108.354C101.631 108.602 100.662 109.213 99.8108 110.019C98.6749 111.091 97.9428 112.394 97.6363 113.933C97.4498 114.868 97.4237 115.805 97.4946 116.753C97.5216 117.118 97.6729 117.249 98.0392 117.323C99.5694 117.634 101.089 117.998 102.615 118.33C102.875 118.387 103.13 118.484 103.474 118.494C103.224 118.301 103.03 118.154 102.835 118.006C102.3 117.598 101.764 117.189 101.315 116.685Z" fill="#00B39F"/>
<path d="M110.439 116.812C109.895 116.909 109.347 116.975 108.8 117.028C108.352 117.072 107.896 117.094 107.456 117.028C106.82 116.939 106.198 116.768 105.605 116.521C104.682 116.135 103.846 115.624 103.226 114.819C102.477 113.846 102.224 112.762 102.593 111.579C102.802 110.909 103.146 110.312 103.823 109.987C103.944 109.93 104.027 109.903 104.085 109.911C103.882 109.708 103.752 109.442 103.717 109.156C103.687 109.2 103.655 109.241 103.621 109.281C103.309 109.658 102.99 110.03 102.764 110.469C102.219 111.53 102.02 112.658 102.05 113.845C102.066 114.721 102.246 115.586 102.582 116.395C103.168 117.794 104.101 118.933 105.284 119.875C105.469 120.023 105.602 120.038 105.808 119.904C107 119.132 108.202 118.374 109.4 117.611C109.797 117.358 110.192 117.104 110.593 116.846C110.573 116.827 110.548 116.813 110.521 116.807C110.493 116.801 110.465 116.803 110.439 116.812Z" fill="#00D3A9"/>
</g>
<defs>
<filter id="filter0_dddd_16209_38782" x="0.714844" y="0.117188" width="207.457" height="207.453" filterUnits="userSpaceOnUse" color-interpolation-filters="sRGB">
<feFlood flood-opacity="0" result="BackgroundImageFix"/>
<feColorMatrix in="SourceAlpha" type="matrix" values="0 0 0 0 0 0 0 0 0 0 0 0 0 0 0 0 0 0 127 0" result="hardAlpha"/>
<feOffset dy="1"/>
<feGaussianBlur stdDeviation="2"/>
<feComposite in2="hardAlpha" operator="out"/>
<feColorMatrix type="matrix" values="0 0 0 0 0 0 0 0 0 0 0 0 0 0 0 0 0 0 0.25 0"/>
<feBlend mode="normal" in2="BackgroundImageFix" result="effect1_dropShadow_16209_38782"/>
<feColorMatrix in="SourceAlpha" type="matrix" values="0 0 0 0 0 0 0 0 0 0 0 0 0 0 0 0 0 0 127 0" result="hardAlpha"/>
<feOffset dy="-1"/>
<feGaussianBlur stdDeviation="2"/>
<feComposite in2="hardAlpha" operator="out"/>
<feColorMatrix type="matrix" values="0 0 0 0 0 0 0 0 0 0 0 0 0 0 0 0 0 0 0.25 0"/>
<feBlend mode="normal" in2="effect1_dropShadow_16209_38782" result="effect2_dropShadow_16209_38782"/>
<feColorMatrix in="SourceAlpha" type="matrix" values="0 0 0 0 0 0 0 0 0 0 0 0 0 0 0 0 0 0 127 0" result="hardAlpha"/>
<feOffset dx="-1"/>
<feGaussianBlur stdDeviation="2"/>
<feComposite in2="hardAlpha" operator="out"/>
<feColorMatrix type="matrix" values="0 0 0 0 0 0 0 0 0 0 0 0 0 0 0 0 0 0 0.25 0"/>
<feBlend mode="normal" in2="effect2_dropShadow_16209_38782" result="effect3_dropShadow_16209_38782"/>
<feColorMatrix in="SourceAlpha" type="matrix" values="0 0 0 0 0 0 0 0 0 0 0 0 0 0 0 0 0 0 127 0" result="hardAlpha"/>
<feOffset dx="1"/>
<feGaussianBlur stdDeviation="2"/>
<feComposite in2="hardAlpha" operator="out"/>
<feColorMatrix type="matrix" values="0 0 0 0 0 0 0 0 0 0 0 0 0 0 0 0 0 0 0.25 0"/>
<feBlend mode="normal" in2="effect3_dropShadow_16209_38782" result="effect4_dropShadow_16209_38782"/>
<feBlend mode="normal" in="SourceGraphic" in2="effect4_dropShadow_16209_38782" result="shape"/>
</filter>
<filter id="filter1_di_16209_38782" x="18.562" y="15.9609" width="171.762" height="171.766" filterUnits="userSpaceOnUse" color-interpolation-filters="sRGB">
<feFlood flood-opacity="0" result="BackgroundImageFix"/>
<feColorMatrix in="SourceAlpha" type="matrix" values="0 0 0 0 0 0 0 0 0 0 0 0 0 0 0 0 0 0 127 0" result="hardAlpha"/>
<feOffset dy="-2"/>
<feGaussianBlur stdDeviation="2"/>
<feComposite in2="hardAlpha" operator="out"/>
<feColorMatrix type="matrix" values="0 0 0 0 0 0 0 0 0 0 0 0 0 0 0 0 0 0 0.25 0"/>
<feBlend mode="normal" in2="BackgroundImageFix" result="effect1_dropShadow_16209_38782"/>
<feBlend mode="normal" in="SourceGraphic" in2="effect1_dropShadow_16209_38782" result="shape"/>
<feColorMatrix in="SourceAlpha" type="matrix" values="0 0 0 0 0 0 0 0 0 0 0 0 0 0 0 0 0 0 127 0" result="hardAlpha"/>
<feOffset dy="2"/>
<feGaussianBlur stdDeviation="2"/>
<feComposite in2="hardAlpha" operator="arithmetic" k2="-1" k3="1"/>
<feColorMatrix type="matrix" values="0 0 0 0 0 0 0 0 0 0 0 0 0 0 0 0 0 0 0.25 0"/>
<feBlend mode="normal" in2="shape" result="effect2_innerShadow_16209_38782"/>
</filter>
<filter id="filter2_d_16209_38782" x="64.9999" y="65" width="80" height="86" filterUnits="userSpaceOnUse" color-interpolation-filters="sRGB">
<feFlood flood-opacity="0" result="BackgroundImageFix"/>
<feColorMatrix in="SourceAlpha" type="matrix" values="0 0 0 0 0 0 0 0 0 0 0 0 0 0 0 0 0 0 127 0" result="hardAlpha"/>
<feOffset dy="4"/>
<feGaussianBlur stdDeviation="2"/>
<feComposite in2="hardAlpha" operator="out"/>
<feColorMatrix type="matrix" values="0 0 0 0 0 0 0 0 0 0 0 0 0 0 0 0 0 0 0.25 0"/>
<feBlend mode="normal" in2="BackgroundImageFix" result="effect1_dropShadow_16209_38782"/>
<feBlend mode="normal" in="SourceGraphic" in2="effect1_dropShadow_16209_38782" result="shape"/>
</filter>
<linearGradient id="paint0_linear_16209_38782" x1="104.443" y1="197.398" x2="104.443" y2="10.2849" gradientUnits="userSpaceOnUse">
<stop stop-color="#00D3A9" stop-opacity="0.6"/>
<stop offset="1" stop-color="#00B39F"/>
</linearGradient>
<linearGradient id="paint1_linear_16209_38782" x1="163.753" y1="13.1769" x2="54.4247" y2="186.611" gradientUnits="userSpaceOnUse">
<stop stop-color="white" stop-opacity="0.17"/>
<stop offset="0.486111" stop-color="#252E31" stop-opacity="0.16"/>
<stop offset="1" stop-color="#252E31"/>
</linearGradient>
<clipPath id="clip0_16209_38782">
<rect width="22" height="22" fill="white" transform="translate(94 98)"/>
</clipPath>
</defs>
</svg>
