<svg width="101" height="117" viewBox="0 0 101 117" fill="none" xmlns="http://www.w3.org/2000/svg">
<path fill-rule="evenodd" clip-rule="evenodd" d="M0 12.8494C0 5.75287 5.75288 0 12.8494 0H87.9065C91.3144 0 94.5827 1.35376 96.9924 3.76349C99.4021 6.17322 100.756 9.44153 100.756 12.8494V104.127C100.756 111.223 95.003 116.976 87.9065 116.976H12.8494C5.75288 116.976 0 111.223 0 104.127V12.8494Z" fill="#EEEEEE"/>
<path d="M17.2081 36.0034V28.3784H18.755V31.3784H21.7706V28.3784H23.3019V36.0034H21.7706V32.6753H18.755V36.0034H17.2081ZM26.6225 36.0034V29.6597H24.3569V28.3784H30.4194V29.6597H28.1537V36.0034H26.6225ZM33.1317 36.0034V29.6597H30.8661V28.3784H36.9286V29.6597H34.663V36.0034H33.1317ZM37.9223 36.0034V28.3784H40.391C41.3285 28.3784 41.9379 28.4149 42.2191 28.4878C42.6566 28.6024 43.0212 28.8524 43.3129 29.2378C43.615 29.6232 43.766 30.118 43.766 30.7222C43.766 31.1909 43.6775 31.5868 43.5004 31.9097C43.3337 32.2222 43.1202 32.4722 42.8598 32.6597C42.5993 32.8368 42.3337 32.9566 42.0629 33.0191C41.6879 33.092 41.1514 33.1284 40.4535 33.1284H39.4535V36.0034H37.9223ZM39.4535 29.6597V31.8316H40.2973C40.9014 31.8316 41.3077 31.7951 41.516 31.7222C41.7243 31.6389 41.8858 31.5139 42.0004 31.3472C42.115 31.1701 42.1723 30.967 42.1723 30.7378C42.1723 30.467 42.0889 30.243 41.9223 30.0659C41.766 29.8784 41.5629 29.7639 41.3129 29.7222C41.1254 29.6805 40.7556 29.6597 40.2035 29.6597H39.4535ZM47.7666 36.0034V28.3784H50.0791L51.4541 33.5816L52.8291 28.3784H55.1416V36.0034H53.7041V30.0034L52.1885 36.0034H50.7041L49.2041 30.0034V36.0034H47.7666ZM59.8621 34.2378L61.3152 34.4878C61.1277 35.0191 60.8308 35.4253 60.4246 35.7066C60.0183 35.9878 59.5131 36.1284 58.909 36.1284C57.9506 36.1284 57.2423 35.8159 56.784 35.1909C56.4194 34.6805 56.2371 34.0451 56.2371 33.2847C56.2371 32.368 56.4767 31.6493 56.9558 31.1284C57.435 30.6076 58.0392 30.3472 58.7683 30.3472C59.5912 30.3472 60.2371 30.6232 60.7058 31.1753C61.185 31.717 61.4142 32.5451 61.3933 33.6597H57.7371C57.7475 34.0972 57.8621 34.4357 58.0808 34.6753C58.31 34.9149 58.5912 35.0347 58.9246 35.0347C59.1537 35.0347 59.3465 34.9722 59.5027 34.8472C59.659 34.7222 59.7787 34.5191 59.8621 34.2378ZM59.9402 32.7691C59.9298 32.342 59.8204 32.0191 59.6121 31.8003C59.4037 31.5816 59.1485 31.4722 58.8465 31.4722C58.534 31.4722 58.2735 31.5868 58.0652 31.8159C57.8569 32.0555 57.7527 32.3732 57.7527 32.7691H59.9402ZM65.1167 30.4722V31.6441H64.1167V33.8628C64.1167 34.3212 64.1271 34.5868 64.1479 34.6597C64.1688 34.7326 64.2104 34.7951 64.2729 34.8472C64.3459 34.8889 64.4292 34.9097 64.5229 34.9097C64.6584 34.9097 64.8563 34.8628 65.1167 34.7691L65.2417 35.9097C64.8979 36.0555 64.5125 36.1284 64.0854 36.1284C63.825 36.1284 63.5854 36.0868 63.3667 36.0034C63.1584 35.9097 63.0021 35.7951 62.8979 35.6597C62.8042 35.5139 62.7365 35.3212 62.6948 35.0816C62.6636 34.9149 62.6479 34.5712 62.6479 34.0503V31.6441H61.9761V30.4722H62.6479V29.3784L64.1167 28.5191V30.4722H65.1167ZM67.5403 36.0034H66.0716V30.4722H67.4309V31.2691C67.6601 30.8941 67.8684 30.6493 68.0559 30.5347C68.2434 30.4097 68.4518 30.3472 68.6809 30.3472C69.0143 30.3472 69.3372 30.4409 69.6497 30.6284L69.1966 31.9097C68.9466 31.743 68.7174 31.6597 68.5091 31.6597C68.3007 31.6597 68.1236 31.717 67.9778 31.8316C67.8424 31.9462 67.733 32.1545 67.6497 32.4566C67.5768 32.7482 67.5403 33.3628 67.5403 34.3003V36.0034ZM70.2811 29.7222V28.3784H71.7498V29.7222H70.2811ZM70.2811 36.0034V30.4722H71.7498V36.0034H70.2811ZM78.0542 32.1128L76.6167 32.3784C76.5646 32.0868 76.45 31.868 76.2729 31.7222C76.1063 31.5764 75.8875 31.5034 75.6167 31.5034C75.2521 31.5034 74.9604 31.6284 74.7417 31.8784C74.5334 32.1284 74.4292 32.5503 74.4292 33.1441C74.4292 33.8003 74.5386 34.2639 74.7573 34.5347C74.9761 34.8055 75.2677 34.9409 75.6323 34.9409C75.9136 34.9409 76.1427 34.8628 76.3198 34.7066C76.4969 34.5399 76.6219 34.2639 76.6948 33.8784L78.1323 34.1284C77.9865 34.7847 77.7 35.2847 77.2729 35.6284C76.8459 35.9618 76.2782 36.1284 75.5698 36.1284C74.7677 36.1284 74.1219 35.8732 73.6323 35.3628C73.1532 34.8524 72.9136 34.1493 72.9136 33.2534C72.9136 32.3368 73.1532 31.6232 73.6323 31.1128C74.1219 30.6024 74.7782 30.3472 75.6011 30.3472C76.2677 30.3472 76.799 30.493 77.1948 30.7847C77.6011 31.0764 77.8875 31.5191 78.0542 32.1128ZM78.6526 34.4253L80.1213 34.2066C80.1838 34.4878 80.3088 34.7014 80.4963 34.8472C80.6942 34.993 80.9599 35.0659 81.2932 35.0659C81.6786 35.0659 81.9651 34.9982 82.1526 34.8628C82.2776 34.7691 82.3401 34.6389 82.3401 34.4722C82.3401 34.3576 82.3088 34.2639 82.2463 34.1909C82.1734 34.1284 82.0067 34.0659 81.7463 34.0034C80.5692 33.743 79.8244 33.5087 79.5119 33.3003C79.0744 32.9982 78.8557 32.5816 78.8557 32.0503C78.8557 31.5712 79.0432 31.1701 79.4182 30.8472C79.8036 30.5139 80.3922 30.3472 81.1838 30.3472C81.9338 30.3472 82.4911 30.4722 82.8557 30.7222C83.2307 30.9722 83.4859 31.3368 83.6213 31.8159L82.2463 32.0659C82.1838 31.8576 82.0692 31.6962 81.9026 31.5816C81.7463 31.467 81.5119 31.4097 81.1994 31.4097C80.8244 31.4097 80.5536 31.4618 80.3869 31.5659C80.2724 31.6389 80.2151 31.7378 80.2151 31.8628C80.2151 31.967 80.2619 32.0555 80.3557 32.1284C80.4911 32.2222 80.9442 32.3576 81.7151 32.5347C82.4963 32.7118 83.0432 32.9305 83.3557 33.1909C83.6578 33.4514 83.8088 33.8107 83.8088 34.2691C83.8088 34.7795 83.5953 35.217 83.1682 35.5816C82.7515 35.9462 82.1265 36.1284 81.2932 36.1284C80.5432 36.1284 79.9494 35.9774 79.5119 35.6753C79.0744 35.3628 78.788 34.9462 78.6526 34.4253Z" fill="black"/>
<path d="M57.6851 111.919L56.4194 108.56H56.3882C56.3986 108.622 56.4038 108.706 56.4038 108.81C56.4142 108.914 56.4194 109.029 56.4194 109.154C56.4299 109.268 56.4351 109.388 56.4351 109.513V111.919H56.0132V108.122H56.6694L57.8726 111.279H57.9038L59.1226 108.122H59.7632V111.919H59.3257V109.482C59.3257 109.367 59.3257 109.258 59.3257 109.154C59.3361 109.039 59.3413 108.93 59.3413 108.826C59.3517 108.721 59.3621 108.633 59.3726 108.56H59.3413L58.0601 111.919H57.6851ZM62.9304 111.919H60.8054V108.122H62.9304V108.513H61.2585V109.732H62.8366V110.122H61.2585V111.529H62.9304V111.919ZM65.9223 110.904C65.9223 111.133 65.865 111.326 65.7504 111.482C65.6358 111.638 65.4796 111.758 65.2816 111.841C65.0837 111.924 64.8441 111.966 64.5629 111.966C64.4275 111.966 64.2921 111.961 64.1566 111.951C64.0316 111.94 63.9119 111.924 63.7973 111.904C63.6931 111.872 63.5994 111.836 63.516 111.794V111.372C63.6514 111.424 63.8129 111.477 64.0004 111.529C64.1879 111.57 64.3858 111.591 64.5941 111.591C64.7816 111.591 64.9379 111.565 65.0629 111.513C65.1983 111.461 65.2973 111.388 65.3598 111.294C65.4327 111.201 65.4691 111.086 65.4691 110.951C65.4691 110.815 65.4379 110.706 65.3754 110.622C65.3233 110.529 65.2296 110.445 65.0941 110.372C64.9691 110.299 64.7921 110.227 64.5629 110.154C64.3962 110.091 64.2504 110.029 64.1254 109.966C64.0108 109.893 63.9119 109.815 63.8285 109.732C63.7452 109.638 63.6827 109.534 63.641 109.419C63.5994 109.305 63.5785 109.174 63.5785 109.029C63.5785 108.831 63.6254 108.659 63.7191 108.513C63.8233 108.367 63.9691 108.258 64.1566 108.185C64.3441 108.102 64.5525 108.06 64.7816 108.06C64.99 108.06 65.1775 108.081 65.3441 108.122C65.5212 108.154 65.6827 108.206 65.8285 108.279L65.6879 108.654C65.5525 108.591 65.4066 108.544 65.2504 108.513C65.0941 108.471 64.9379 108.451 64.7816 108.451C64.615 108.451 64.4744 108.477 64.3598 108.529C64.2556 108.57 64.1723 108.638 64.1098 108.732C64.0473 108.815 64.016 108.914 64.016 109.029C64.016 109.164 64.0421 109.279 64.0941 109.372C64.1566 109.456 64.2504 109.534 64.3754 109.607C64.5004 109.669 64.6671 109.737 64.8754 109.81C65.0941 109.893 65.2816 109.982 65.4379 110.076C65.5941 110.169 65.7139 110.284 65.7973 110.419C65.8806 110.544 65.9223 110.706 65.9223 110.904ZM69.5783 111.919H69.1252V110.122H67.1408V111.919H66.6877V108.122H67.1408V109.732H69.1252V108.122H69.5783V111.919ZM72.7411 111.919H70.6161V108.122H72.7411V108.513H71.0692V109.732H72.6474V110.122H71.0692V111.529H72.7411V111.919ZM74.608 108.122C74.9205 108.122 75.1757 108.159 75.3736 108.232C75.582 108.305 75.733 108.424 75.8268 108.591C75.9309 108.747 75.983 108.945 75.983 109.185C75.983 109.383 75.9465 109.549 75.8736 109.685C75.8007 109.82 75.707 109.93 75.5924 110.013C75.4778 110.096 75.3528 110.164 75.2174 110.216L76.2643 111.919H75.7486L74.8111 110.326H74.0299V111.919H73.5768V108.122H74.608ZM74.5768 108.497H74.0299V109.951H74.6236C74.9361 109.951 75.1653 109.888 75.3111 109.763C75.457 109.638 75.5299 109.456 75.5299 109.216C75.5299 108.956 75.4518 108.773 75.2955 108.669C75.1393 108.555 74.8997 108.497 74.5768 108.497ZM77.834 110.029L78.8496 108.122H79.334L78.0683 110.451V111.919H77.6152V110.466L76.3496 108.122H76.834L77.834 110.029ZM82.1097 110.013C82.1097 110.326 82.0837 110.602 82.0316 110.841C81.9899 111.081 81.917 111.289 81.8128 111.466C81.7087 111.633 81.5784 111.758 81.4222 111.841C81.2659 111.924 81.0732 111.966 80.8441 111.966C80.5628 111.966 80.3284 111.893 80.1409 111.747C79.9639 111.591 79.8284 111.367 79.7347 111.076C79.6409 110.784 79.5941 110.43 79.5941 110.013C79.5941 109.607 79.6357 109.258 79.7191 108.966C79.8024 108.674 79.9326 108.451 80.1097 108.294C80.2972 108.138 80.542 108.06 80.8441 108.06C81.1357 108.06 81.3701 108.138 81.5472 108.294C81.7347 108.451 81.8753 108.674 81.9691 108.966C82.0628 109.258 82.1097 109.607 82.1097 110.013ZM80.0316 110.013C80.0316 110.367 80.0576 110.664 80.1097 110.904C80.1618 111.133 80.2451 111.31 80.3597 111.435C80.4847 111.549 80.6462 111.607 80.8441 111.607C81.042 111.607 81.1982 111.549 81.3128 111.435C81.4378 111.31 81.5264 111.133 81.5784 110.904C81.6409 110.664 81.6722 110.367 81.6722 110.013C81.6722 109.659 81.6409 109.367 81.5784 109.138C81.5264 108.898 81.4378 108.721 81.3128 108.607C81.1982 108.492 81.042 108.435 80.8441 108.435C80.6462 108.435 80.4847 108.492 80.3597 108.607C80.2451 108.721 80.1618 108.898 80.1097 109.138C80.0576 109.367 80.0316 109.659 80.0316 110.013ZM85.125 111.919H82.6406V111.56L83.6562 110.529C83.8437 110.331 84 110.159 84.125 110.013C84.2604 109.867 84.3593 109.721 84.4218 109.576C84.4947 109.43 84.5312 109.268 84.5312 109.091C84.5312 108.883 84.4635 108.721 84.3281 108.607C84.2031 108.492 84.0364 108.435 83.8281 108.435C83.651 108.435 83.4895 108.466 83.3437 108.529C83.2083 108.591 83.0677 108.68 82.9218 108.794L82.6875 108.497C82.7916 108.414 82.901 108.341 83.0156 108.279C83.1302 108.206 83.2552 108.154 83.3906 108.122C83.5364 108.081 83.6822 108.06 83.8281 108.06C84.0677 108.06 84.2708 108.102 84.4375 108.185C84.6145 108.268 84.7447 108.388 84.8281 108.544C84.9218 108.69 84.9687 108.867 84.9687 109.076C84.9687 109.273 84.927 109.461 84.8437 109.638C84.7708 109.805 84.6614 109.977 84.5156 110.154C84.3697 110.32 84.2031 110.497 84.0156 110.685L83.1875 111.513V111.529H85.125V111.919ZM86.9371 108.06C87.1558 108.06 87.3485 108.096 87.5152 108.169C87.6923 108.232 87.8277 108.331 87.9215 108.466C88.0256 108.602 88.0777 108.768 88.0777 108.966C88.0777 109.122 88.0413 109.258 87.9683 109.372C87.9058 109.487 87.8173 109.586 87.7027 109.669C87.5881 109.753 87.4631 109.831 87.3277 109.904C87.4944 109.977 87.6402 110.06 87.7652 110.154C87.9006 110.247 88.0048 110.357 88.0777 110.482C88.1506 110.607 88.1871 110.758 88.1871 110.935C88.1871 111.154 88.135 111.341 88.0308 111.497C87.9371 111.643 87.7965 111.758 87.609 111.841C87.4215 111.924 87.2027 111.966 86.9527 111.966C86.6819 111.966 86.4527 111.93 86.2652 111.857C86.0777 111.773 85.9319 111.659 85.8277 111.513C85.734 111.357 85.6871 111.169 85.6871 110.951C85.6871 110.773 85.7235 110.622 85.7965 110.497C85.8694 110.372 85.9683 110.263 86.0933 110.169C86.2183 110.076 86.3538 109.992 86.4996 109.919C86.3746 109.857 86.26 109.784 86.1558 109.701C86.0517 109.607 85.9683 109.503 85.9058 109.388C85.8433 109.263 85.8121 109.122 85.8121 108.966C85.8121 108.768 85.859 108.607 85.9527 108.482C86.0569 108.346 86.1923 108.242 86.359 108.169C86.536 108.096 86.7288 108.06 86.9371 108.06ZM86.109 110.951C86.109 111.148 86.1767 111.31 86.3121 111.435C86.4579 111.56 86.6663 111.622 86.9371 111.622C87.2079 111.622 87.411 111.56 87.5465 111.435C87.6923 111.31 87.7652 111.143 87.7652 110.935C87.7652 110.81 87.734 110.701 87.6715 110.607C87.609 110.513 87.5152 110.43 87.3902 110.357C87.2652 110.273 87.1194 110.201 86.9527 110.138L86.859 110.107C86.7027 110.169 86.5673 110.242 86.4527 110.326C86.3485 110.409 86.2652 110.503 86.2027 110.607C86.1402 110.701 86.109 110.815 86.109 110.951ZM86.9371 108.419C86.7288 108.419 86.5569 108.471 86.4215 108.576C86.2965 108.669 86.234 108.805 86.234 108.982C86.234 109.117 86.2652 109.232 86.3277 109.326C86.3902 109.409 86.4735 109.487 86.5777 109.56C86.6923 109.622 86.8173 109.68 86.9527 109.732C87.0881 109.68 87.2079 109.622 87.3121 109.56C87.4163 109.487 87.4944 109.404 87.5465 109.31C87.609 109.216 87.6402 109.107 87.6402 108.982C87.6402 108.794 87.5725 108.654 87.4371 108.56C87.3121 108.466 87.1454 108.419 86.9371 108.419Z" fill="#999999"/>
<path fill-rule="evenodd" clip-rule="evenodd" d="M59.9183 8.28168H91.4369C95.566 8.28168 98.9132 10.3046 98.9132 12.8001C98.9132 15.2956 95.566 17.3185 91.4369 17.3185H59.9183C55.7893 17.3185 52.442 15.2956 52.442 12.8001C52.442 10.3046 55.7893 8.28168 59.9183 8.28168Z" fill="#E6B8AF"/>
<path d="M55.15 13.0607C55.15 12.4253 55.3219 11.9305 55.6656 11.5764C56.0094 11.2222 56.4469 11.0451 56.9781 11.0451C57.3323 11.0451 57.65 11.1284 57.9313 11.2951C58.2125 11.4618 58.4261 11.6961 58.5719 11.9982C58.7281 12.3003 58.8063 12.6389 58.8063 13.0139C58.8063 13.3993 58.7281 13.7482 58.5719 14.0607C58.4156 14.3628 58.1917 14.592 57.9 14.7482C57.6188 14.9045 57.3115 14.9826 56.9781 14.9826C56.624 14.9826 56.3011 14.8993 56.0094 14.7326C55.7281 14.5555 55.5146 14.3159 55.3688 14.0139C55.2229 13.7118 55.15 13.3941 55.15 13.0607ZM55.6813 13.0764C55.6813 13.5347 55.8011 13.8993 56.0406 14.1701C56.2906 14.4305 56.6031 14.5607 56.9781 14.5607C57.3636 14.5607 57.6761 14.4253 57.9156 14.1545C58.1656 13.8836 58.2906 13.5034 58.2906 13.0139C58.2906 12.7014 58.2334 12.4305 58.1188 12.2014C58.0146 11.9722 57.8636 11.7951 57.6656 11.6701C57.4677 11.5347 57.2438 11.467 56.9938 11.467C56.6292 11.467 56.3167 11.592 56.0563 11.842C55.8063 12.092 55.6813 12.5034 55.6813 13.0764ZM59.435 14.9201V11.1076H60.8725C61.1642 11.1076 61.3934 11.1493 61.56 11.2326C61.7371 11.3055 61.8725 11.4253 61.9663 11.592C62.0705 11.7482 62.1225 11.9097 62.1225 12.0764C62.1225 12.243 62.0757 12.3993 61.9819 12.5451C61.8986 12.6909 61.7684 12.8055 61.5913 12.8889C61.8205 12.9618 61.9975 13.0816 62.1225 13.2482C62.2475 13.4045 62.31 13.592 62.31 13.8107C62.31 13.9878 62.2736 14.1545 62.2007 14.3107C62.1278 14.467 62.034 14.5868 61.9194 14.6701C61.8048 14.7534 61.6642 14.8159 61.4975 14.8576C61.3309 14.8993 61.1278 14.9201 60.8882 14.9201H59.435ZM59.935 12.7014H60.7632C60.9923 12.7014 61.1538 12.6909 61.2475 12.6701C61.3725 12.6284 61.4663 12.5659 61.5288 12.4826C61.6017 12.3889 61.6382 12.2743 61.6382 12.1389C61.6382 12.0139 61.6069 11.9045 61.5444 11.8107C61.4819 11.717 61.3934 11.6545 61.2788 11.6232C61.1642 11.5816 60.9715 11.5607 60.7007 11.5607H59.935V12.7014ZM59.935 14.467H60.8882C61.0548 14.467 61.1694 14.4618 61.2319 14.4514C61.3465 14.4305 61.4403 14.3993 61.5132 14.3576C61.5965 14.3055 61.6642 14.2326 61.7163 14.1389C61.7684 14.0451 61.7944 13.9357 61.7944 13.8107C61.7944 13.6753 61.758 13.5555 61.685 13.4514C61.6121 13.3368 61.508 13.2586 61.3725 13.217C61.2475 13.1753 61.0653 13.1545 60.8257 13.1545H59.935V14.467ZM62.8326 13.7014L63.317 13.6545C63.3378 13.842 63.3899 13.9982 63.4732 14.1232C63.5566 14.2482 63.6816 14.3472 63.8482 14.4201C64.0253 14.493 64.2232 14.5295 64.442 14.5295C64.6295 14.5295 64.7962 14.5034 64.942 14.4514C65.0982 14.3889 65.2076 14.3107 65.2701 14.217C65.343 14.1128 65.3795 14.0034 65.3795 13.8889C65.3795 13.7639 65.343 13.6597 65.2701 13.5764C65.2076 13.4826 65.0982 13.4045 64.942 13.342C64.8378 13.3003 64.6087 13.2378 64.2545 13.1545C63.9107 13.0711 63.6659 12.993 63.5201 12.9201C63.343 12.8264 63.2076 12.7118 63.1139 12.5764C63.0305 12.4305 62.9889 12.2691 62.9889 12.092C62.9889 11.9045 63.0409 11.7274 63.1451 11.5607C63.2597 11.3836 63.4212 11.2534 63.6295 11.1701C63.8378 11.0868 64.0722 11.0451 64.3326 11.0451C64.6139 11.0451 64.8587 11.092 65.067 11.1857C65.2857 11.2691 65.4524 11.3993 65.567 11.5764C65.6816 11.7534 65.7441 11.9566 65.7545 12.1857L65.2701 12.217C65.2493 11.9774 65.1607 11.7951 65.0045 11.6701C64.8587 11.5451 64.6399 11.4826 64.3482 11.4826C64.0462 11.4826 63.8222 11.5399 63.6764 11.6545C63.5409 11.7691 63.4732 11.9045 63.4732 12.0607C63.4732 12.1961 63.5201 12.3055 63.6139 12.3889C63.718 12.4826 63.9732 12.5764 64.3795 12.6701C64.7857 12.7639 65.067 12.842 65.2232 12.9045C65.442 13.0086 65.6034 13.1389 65.7076 13.2951C65.8222 13.4514 65.8795 13.6336 65.8795 13.842C65.8795 14.0503 65.817 14.243 65.692 14.4201C65.5774 14.5972 65.4107 14.7378 65.192 14.842C64.9837 14.9357 64.7389 14.9826 64.4576 14.9826C64.1139 14.9826 63.8222 14.9357 63.5826 14.842C63.3534 14.7378 63.1712 14.5868 63.0357 14.3889C62.9107 14.1805 62.843 13.9514 62.8326 13.7014ZM66.5739 14.9201V11.1076H69.3239V11.5607H67.0739V12.717H69.1833V13.1701H67.0739V14.467H69.4177V14.9201H66.5739ZM70.1277 14.9201V11.1076H71.8152C72.159 11.1076 72.4194 11.1441 72.5965 11.217C72.7736 11.2795 72.9142 11.3993 73.0184 11.5764C73.1225 11.743 73.1746 11.9357 73.1746 12.1545C73.1746 12.4149 73.0861 12.6389 72.909 12.8264C72.7319 13.0139 72.4611 13.1336 72.0965 13.1857C72.2319 13.2482 72.3361 13.3107 72.409 13.3732C72.5548 13.5086 72.6902 13.6805 72.8152 13.8889L73.4871 14.9201H72.8465L72.3465 14.1232C72.2007 13.8941 72.0809 13.7222 71.9871 13.6076C71.8934 13.4826 71.8048 13.3993 71.7215 13.3576C71.6486 13.3055 71.5757 13.2691 71.5027 13.2482C71.4402 13.2378 71.3465 13.2326 71.2215 13.2326H70.6277V14.9201H70.1277ZM70.6277 12.7951H71.7215C71.9507 12.7951 72.1277 12.7691 72.2527 12.717C72.3882 12.6649 72.4871 12.5868 72.5496 12.4826C72.6225 12.3784 72.659 12.2691 72.659 12.1545C72.659 11.967 72.5913 11.8159 72.4559 11.7014C72.3309 11.5868 72.1225 11.5295 71.8309 11.5295H70.6277V12.7951ZM74.9573 14.9201L73.4729 11.1076H74.0198L75.0198 13.8732C75.1032 14.1024 75.1709 14.3107 75.2229 14.4982C75.275 14.2899 75.3427 14.0816 75.4261 13.8732L76.4573 11.1076H76.9729L75.4729 14.9201H74.9573ZM76.6153 14.9201L78.0684 11.1076H78.6153L80.1778 14.9201H79.5997L79.1622 13.7639H77.5684L77.1466 14.9201H76.6153ZM77.7091 13.3576H79.0059L78.5997 12.2951C78.4851 11.9722 78.3966 11.7118 78.3341 11.5139C78.282 11.7534 78.2143 11.993 78.1309 12.2326L77.7091 13.3576ZM80.5598 14.9201V11.1076H81.9973C82.2889 11.1076 82.5181 11.1493 82.6848 11.2326C82.8618 11.3055 82.9973 11.4253 83.091 11.592C83.1952 11.7482 83.2473 11.9097 83.2473 12.0764C83.2473 12.243 83.2004 12.3993 83.1066 12.5451C83.0233 12.6909 82.8931 12.8055 82.716 12.8889C82.9452 12.9618 83.1223 13.0816 83.2473 13.2482C83.3723 13.4045 83.4348 13.592 83.4348 13.8107C83.4348 13.9878 83.3983 14.1545 83.3254 14.3107C83.2525 14.467 83.1587 14.5868 83.0441 14.6701C82.9295 14.7534 82.7889 14.8159 82.6223 14.8576C82.4556 14.8993 82.2525 14.9201 82.0129 14.9201H80.5598ZM81.0598 12.7014H81.8879C82.117 12.7014 82.2785 12.6909 82.3723 12.6701C82.4973 12.6284 82.591 12.5659 82.6535 12.4826C82.7264 12.3889 82.7629 12.2743 82.7629 12.1389C82.7629 12.0139 82.7316 11.9045 82.6691 11.8107C82.6066 11.717 82.5181 11.6545 82.4035 11.6232C82.2889 11.5816 82.0962 11.5607 81.8254 11.5607H81.0598V12.7014ZM81.0598 14.467H82.0129C82.1795 14.467 82.2941 14.4618 82.3566 14.4514C82.4712 14.4305 82.565 14.3993 82.6379 14.3576C82.7212 14.3055 82.7889 14.2326 82.841 14.1389C82.8931 14.0451 82.9191 13.9357 82.9191 13.8107C82.9191 13.6753 82.8827 13.5555 82.8098 13.4514C82.7368 13.3368 82.6327 13.2586 82.4973 13.217C82.3723 13.1753 82.19 13.1545 81.9504 13.1545H81.0598V14.467ZM84.2229 14.9201V11.1076H84.7229V14.9201H84.2229ZM85.5939 14.9201V11.1076H86.0939V14.467H87.9689V14.9201H85.5939ZM88.6665 14.9201V11.1076H89.1665V14.9201H88.6665ZM91.0219 14.9201V11.5607H89.7719V11.1076H92.7875V11.5607H91.5375V14.9201H91.0219ZM94.3859 14.9201V13.3107L92.9171 11.1076H93.5265L94.2765 12.2482C94.4223 12.467 94.5525 12.6857 94.6671 12.9045C94.7817 12.7066 94.9223 12.4826 95.089 12.2326L95.8234 11.1076H96.4171L94.8859 13.3107V14.9201H94.3859Z" fill="#5B0F00"/>
<path d="M96 37H8V98H96V37Z" fill="#EEEEEE"/>
<path d="M49.3328 106C49.3328 106.015 49.3328 106.031 49.3328 106.047C49.3328 106.597 48.8872 107.042 48.3376 107.042C47.7879 107.042 47.3424 106.596 47.3424 106.047C47.3424 106.031 47.3424 106.015 47.3424 106H44V114.68H52.68V106H49.3328Z" fill="#654FF0"/>
<path d="M46.0162 110.678H46.5915L46.9842 112.769H46.9913L47.4633 110.678H48.0014L48.4278 112.795H48.4361L48.8838 110.678H49.448L48.7148 113.751H48.144L47.7212 111.659H47.7101L47.2575 113.751H46.676L46.0162 110.678ZM50.0965 110.678H51.0034L51.904 113.751H51.3106L51.1147 113.067H50.0817L49.9305 113.751H49.3525L50.0965 110.678ZM50.4418 111.435L50.1909 112.563H50.9718L50.6837 111.435H50.4418Z" fill="white"/>
<g clip-path="url(#clip0_5721_25209)">
<path d="M55.5752 47C55.5752 47.0706 55.5752 47.1412 55.5752 47.2157C55.5752 49.749 53.5216 51.802 50.9889 51.802C48.4556 51.802 46.4026 49.7484 46.4026 47.2157C46.4026 47.1412 46.4026 47.0706 46.4026 47H31V87H71V47H55.5752Z" fill="#654FF0"/>
<path d="M40.2915 68.5562H42.9425L44.7523 78.1948H44.785L46.9601 68.5562H49.4399L51.4046 78.3131H51.4431L53.5059 68.5562H56.1059L52.7275 82.719H50.0967L48.1484 73.0804H48.0974L46.0118 82.719H43.332L40.2915 68.5562ZM59.0948 68.5562H63.2739L67.4242 82.719H64.6895L63.7869 79.5673H59.0261L58.3294 82.719H55.666L59.0948 68.5562ZM60.6856 72.0471L59.5294 77.2431H63.1281L61.8007 72.0471H60.6856Z" fill="white"/>
</g>
<defs>
<clipPath id="clip0_5721_25209">
<rect width="40" height="40" fill="white" transform="translate(31 47)"/>
</clipPath>
</defs>
</svg>
