<svg width="auto" viewBox="0 0 1366 795" fill="none" xmlns="http://www.w3.org/2000/svg">
  <style>
    .colorMode1 {
      fill: #fff
    }
  </style>
  <path
    d="M36.84 312.36V327.54C36.84 327.839 37.001 328 37.3 328H37.99C38.289 328 38.45 327.839 38.45 327.54V312.36C38.45 312.061 38.289 311.9 37.99 311.9H37.3C37.001 311.9 36.84 312.061 36.84 312.36ZM46.9708 316.224C45.5678 316.224 44.3258 316.661 43.4288 318.041V316.96C43.4288 316.661 43.2678 316.5 42.9688 316.5H42.3708C42.0718 316.5 41.9108 316.661 41.9108 316.96V327.54C41.9108 327.839 42.0718 328 42.3708 328H42.9688C43.2678 328 43.4288 327.839 43.4288 327.54V321.514C43.4288 318.662 45.1308 317.696 46.6948 317.696C48.2358 317.696 49.3628 318.662 49.3628 320.479V327.54C49.3628 327.839 49.5238 328 49.8228 328H50.4208C50.7198 328 50.8808 327.839 50.8808 327.54V320.479C50.8808 317.834 49.1098 316.224 46.9708 316.224ZM64.7631 316.5H64.1651C63.8661 316.5 63.7051 316.661 63.7051 316.96V318.754C62.7391 317.213 61.1061 316.224 59.0591 316.224C55.8161 316.224 53.1251 318.846 53.1251 322.25C53.1251 325.654 55.8161 328.276 59.0591 328.276C61.1061 328.276 62.7391 327.31 63.7051 325.769V327.54C63.7051 329.886 62.2331 331.404 59.4501 331.404C57.2191 331.404 55.8161 330.116 55.5171 328.989C55.4481 328.713 55.3101 328.575 55.0341 328.575H54.4361C54.1371 328.575 53.9531 328.736 53.9761 329.058C54.2981 331.243 56.8281 332.876 59.4501 332.876C62.5321 332.876 65.2231 331.036 65.2231 327.54V316.96C65.2231 316.661 65.0621 316.5 64.7631 316.5ZM59.1741 326.804C56.6211 326.804 54.6431 324.803 54.6431 322.25C54.6431 319.697 56.6211 317.696 59.1741 317.696C61.7271 317.696 63.7051 319.697 63.7051 322.25C63.7051 324.803 61.7271 326.804 59.1741 326.804ZM73.1291 316.339C71.8641 316.454 70.7371 316.96 69.9551 318.271V316.96C69.9551 316.661 69.7941 316.5 69.4951 316.5H68.8971C68.5981 316.5 68.4371 316.661 68.4371 316.96V327.54C68.4371 327.839 68.5981 328 68.8971 328H69.4951C69.7941 328 69.9551 327.839 69.9551 327.54V321.606C69.9551 318.915 71.5651 317.903 73.2901 317.788C73.4741 317.788 73.5891 317.604 73.5891 317.328V316.776C73.5891 316.477 73.4281 316.316 73.1291 316.339ZM80.1713 316.224C76.6063 316.224 74.2833 318.869 74.2833 322.25C74.2833 325.723 76.6523 328.276 80.1713 328.276C82.5173 328.276 84.4033 327.057 85.1853 325.309C85.3003 325.033 85.1163 324.849 84.7713 324.849H84.0353C83.7823 324.849 83.6213 324.964 83.4833 325.171C82.9083 326.114 81.7353 326.804 80.1943 326.804C77.8483 326.804 76.1463 325.355 75.8473 323.009H84.1963H85.2773C85.5533 323.009 85.7373 322.871 85.7603 322.572V322.296C85.7603 319.145 83.6903 316.224 80.1713 316.224ZM80.1713 317.696C82.1263 317.696 83.8973 319.007 84.1733 321.537H75.8243C76.1233 319.306 77.7333 317.696 80.1713 317.696ZM89.241 319.513C89.241 318.225 90.529 317.696 91.748 317.696C92.852 317.696 94.002 318.133 94.209 319.398C94.278 319.674 94.416 319.835 94.692 319.835H95.29C95.589 319.835 95.773 319.674 95.75 319.352C95.52 317.42 93.91 316.224 91.748 316.224C89.425 316.224 87.723 317.627 87.723 319.513C87.723 323.814 94.485 322.066 94.485 324.987C94.485 326.275 93.197 326.804 91.748 326.804C90.437 326.804 89.264 326.367 89.057 325.102C88.988 324.826 88.85 324.665 88.574 324.665H87.976C87.677 324.665 87.493 324.826 87.516 325.148C87.746 327.08 89.379 328.276 91.748 328.276C94.301 328.276 96.003 326.873 96.003 324.987C96.003 320.686 89.241 322.434 89.241 319.513ZM99.5955 319.513C99.5955 318.225 100.884 317.696 102.103 317.696C103.207 317.696 104.357 318.133 104.564 319.398C104.633 319.674 104.771 319.835 105.047 319.835H105.645C105.944 319.835 106.128 319.674 106.105 319.352C105.875 317.42 104.265 316.224 102.103 316.224C99.7795 316.224 98.0775 317.627 98.0775 319.513C98.0775 323.814 104.84 322.066 104.84 324.987C104.84 326.275 103.552 326.804 102.103 326.804C100.792 326.804 99.6185 326.367 99.4115 325.102C99.3425 324.826 99.2045 324.665 98.9285 324.665H98.3305C98.0315 324.665 97.8475 324.826 97.8705 325.148C98.1005 327.08 99.7335 328.276 102.103 328.276C104.656 328.276 106.358 326.873 106.358 324.987C106.358 320.686 99.5955 322.434 99.5955 319.513ZM129.472 319.881H123.262C122.963 319.881 122.802 320.042 122.802 320.341V320.939C122.802 321.238 122.963 321.399 123.262 321.399H128.322V321.79C128.322 324.987 125.585 326.712 122.388 326.712C118.432 326.712 115.672 323.699 115.672 319.95C115.672 316.201 118.432 313.188 122.388 313.188C124.895 313.188 127.08 314.568 128.023 316.615C128.138 316.845 128.322 316.96 128.575 316.96H129.38C129.702 316.96 129.863 316.753 129.748 316.431C128.621 313.579 125.723 311.624 122.388 311.624C117.558 311.624 114.062 315.35 114.062 319.95C114.062 324.55 117.558 328.276 122.388 328.276C124.78 328.276 127.08 327.425 128.299 325.539V327.54C128.299 327.839 128.46 328 128.759 328H129.449C129.748 328 129.909 327.839 129.909 327.54V321.399V320.341C129.909 320.042 129.748 319.881 129.449 319.881H129.472ZM137.175 316.224C134.783 316.224 133.081 317.627 132.828 319.582C132.805 319.904 132.989 320.065 133.288 320.065H133.886C134.162 320.065 134.3 319.904 134.369 319.628C134.599 318.317 135.841 317.696 137.175 317.696C138.647 317.696 140.027 318.455 140.027 320.525V322.388C139.245 321.399 137.911 320.87 136.462 320.87C134.346 320.87 132.345 322.089 132.345 324.573C132.345 327.057 134.346 328.276 136.462 328.276C137.911 328.276 139.245 327.839 140.027 326.712V327.54C140.027 327.839 140.188 328 140.487 328H141.085C141.384 328 141.545 327.839 141.545 327.54V320.525C141.545 317.857 139.751 316.224 137.175 316.224ZM136.83 326.85C134.783 326.85 133.863 325.884 133.863 324.573C133.863 323.262 134.783 322.296 136.83 322.296C138.67 322.296 140.027 323.17 140.027 324.573C140.027 325.884 138.67 326.85 136.83 326.85ZM149.205 316.5H147.273V313.28C147.273 312.981 147.112 312.82 146.813 312.82H146.215C145.916 312.82 145.755 312.981 145.755 313.28V316.5H143.8C143.501 316.5 143.34 316.661 143.34 316.96V317.512C143.34 317.811 143.501 317.972 143.8 317.972H145.755V327.54C145.755 327.839 145.916 328 146.215 328H146.813C147.112 328 147.273 327.839 147.273 327.54V317.972H149.205C149.504 317.972 149.665 317.811 149.665 317.512V316.96C149.665 316.661 149.504 316.5 149.205 316.5ZM156.494 316.224C152.929 316.224 150.606 318.869 150.606 322.25C150.606 325.723 152.975 328.276 156.494 328.276C158.84 328.276 160.726 327.057 161.508 325.309C161.623 325.033 161.439 324.849 161.094 324.849H160.358C160.105 324.849 159.944 324.964 159.806 325.171C159.231 326.114 158.058 326.804 156.517 326.804C154.171 326.804 152.469 325.355 152.17 323.009H160.519H161.6C161.876 323.009 162.06 322.871 162.083 322.572V322.296C162.083 319.145 160.013 316.224 156.494 316.224ZM156.494 317.696C158.449 317.696 160.22 319.007 160.496 321.537H152.147C152.446 319.306 154.056 317.696 156.494 317.696ZM177.414 316.5H176.747C176.494 316.5 176.333 316.615 176.241 316.868L173.136 326.229L170.031 316.868C169.939 316.615 169.778 316.5 169.525 316.5H168.858C168.536 316.5 168.375 316.707 168.49 317.029L169.64 320.41L167.616 326.275L164.511 316.868C164.419 316.615 164.258 316.5 164.005 316.5H163.338C163.016 316.5 162.855 316.707 162.97 317.029L166.65 327.632C166.742 327.885 166.926 328 167.179 328H167.57H168.053C168.306 328 168.49 327.885 168.582 327.632L170.376 322.526L172.17 327.632C172.262 327.885 172.446 328 172.699 328H173.09H173.573C173.826 328 174.01 327.885 174.102 327.632L177.782 317.029C177.897 316.707 177.736 316.5 177.414 316.5ZM183.602 316.224C181.21 316.224 179.508 317.627 179.255 319.582C179.232 319.904 179.416 320.065 179.715 320.065H180.313C180.589 320.065 180.727 319.904 180.796 319.628C181.026 318.317 182.268 317.696 183.602 317.696C185.074 317.696 186.454 318.455 186.454 320.525V322.388C185.672 321.399 184.338 320.87 182.889 320.87C180.773 320.87 178.772 322.089 178.772 324.573C178.772 327.057 180.773 328.276 182.889 328.276C184.338 328.276 185.672 327.839 186.454 326.712V327.54C186.454 327.839 186.615 328 186.914 328H187.512C187.811 328 187.972 327.839 187.972 327.54V320.525C187.972 317.857 186.178 316.224 183.602 316.224ZM183.257 326.85C181.21 326.85 180.29 325.884 180.29 324.573C180.29 323.262 181.21 322.296 183.257 322.296C185.097 322.296 186.454 323.17 186.454 324.573C186.454 325.884 185.097 326.85 183.257 326.85ZM197.914 316.868L194.74 325.792L191.06 316.845C190.968 316.592 190.784 316.5 190.531 316.5H189.887C189.542 316.5 189.404 316.707 189.542 317.029L193.981 327.908L192.509 332.071C192.394 332.393 192.555 332.6 192.877 332.6H193.544C193.797 332.6 193.981 332.485 194.073 332.232L199.478 317.029C199.593 316.707 199.432 316.5 199.11 316.5H198.443C198.19 316.5 198.006 316.615 197.914 316.868Z"
    class="colorMode1" />
  <path d=" M89.8195 273.781C57.9687 258.82 44.5579 221.4 59.7734 190.215C67.0856 175.228 80.1734 163.69 96.1715
    158.157C112.171 152.623 129.756 153.552 145.055 160.739L146.118 158.476L145.055 160.739C176.906 175.7 190.316
    213.119 175.101 244.305C159.872 275.517 121.695 288.753 89.8195 273.781Z" fill="#D62783" stroke="#5FD4FF"
    stroke-width="5" />
  <path fill-rule="evenodd" clip-rule="evenodd"
    d="M116.373 225.233C111.813 225.233 108.266 221.705 108.266 217.168C108.266 212.632 111.813 209.103 116.373 209.103C120.934 209.103 124.481 212.632 124.481 217.168C124.481 221.705 120.934 225.233 116.373 225.233"
    fill="white" />
  <path fill-rule="evenodd" clip-rule="evenodd"
    d="M132.206 220.949C130.18 220.949 128.406 219.31 128.406 217.168C128.406 215.151 130.053 213.387 132.206 213.387C134.233 213.387 136.007 215.026 136.007 217.168C136.007 219.31 134.233 220.948 132.206 220.948V220.949ZM145.888 224.476C145.382 226.492 143.354 227.624 141.327 227.121C139.301 226.617 138.16 224.601 138.667 222.585C139.174 220.569 141.2 219.432 143.228 219.936C145.124 220.44 146.393 222.204 146.012 224.222C146.012 224.222 146.012 224.347 145.886 224.473L145.888 224.476ZM143.224 214.895C141.196 215.399 139.169 214.139 138.662 212.122C138.156 210.106 139.422 208.09 141.449 207.585C143.476 207.081 145.503 208.342 146.01 210.359C146.136 210.863 146.136 211.367 146.01 211.871C145.883 213.257 144.869 214.517 143.223 214.895H143.224ZM156.649 223.968C156.268 225.984 154.367 227.371 152.341 226.993C150.315 226.615 148.921 224.724 149.302 222.708C149.681 220.692 151.581 219.306 153.608 219.683C155.509 220.061 156.903 221.826 156.776 223.716C156.65 223.842 156.65 223.842 156.65 223.968H156.649ZM153.615 214.647C151.589 215.026 149.688 213.639 149.308 211.623C148.928 209.607 150.321 207.716 152.349 207.338C154.375 206.961 156.276 208.346 156.655 210.363C156.655 210.741 156.782 210.993 156.655 211.371C156.529 213.009 155.262 214.395 153.615 214.647ZM150.955 236.952C149.942 238.717 147.661 239.347 145.888 238.338C144.114 237.331 143.481 235.062 144.494 233.298C145.508 231.534 147.788 230.903 149.562 231.912C150.828 232.668 151.588 234.054 151.461 235.44C151.335 235.944 151.208 236.448 150.955 236.952V236.952ZM149.562 202.676C147.788 203.684 145.508 203.054 144.494 201.289C143.481 199.525 144.114 197.257 145.888 196.249C147.661 195.241 149.941 195.871 150.955 197.636C151.335 198.391 151.461 199.021 151.461 199.777C151.335 200.912 150.702 202.046 149.562 202.676"
    fill="white" />
  <path
    d="M116.498 254.847C106.364 254.847 96.99 250.941 89.7694 243.884C82.802 236.7 78.875 227.246 78.875 217.292C78.875 207.21 82.802 197.885 89.8958 190.701C96.99 183.646 106.491 179.739 116.498 179.739C124.859 179.739 132.84 182.385 139.427 187.427L134.742 193.475C129.421 189.445 123.086 187.302 116.501 187.302C108.52 187.302 100.919 190.453 95.2189 196.123C89.5208 201.794 86.4801 209.23 86.4801 217.294C86.4801 225.234 89.6468 232.795 95.3473 238.465C101.048 244.136 108.522 247.16 116.629 247.16C123.343 247.16 129.677 245.018 134.87 240.985L139.431 247.033C132.845 252.072 124.864 254.846 116.503 254.846L116.498 254.847Z"
    fill="white" />
  <g filter="url(#filter0_d_12744_17713)">
    <rect x="176.5" y="261" width="112" height="30" rx="5" fill="#5FD4FF" />
    <path
      d="M191.533 280.594L188.831 277.29C189.923 276.772 190.665 275.68 190.665 274.462C190.665 272.656 189.209 271.2 187.417 271.2H185.625H184.029C183.819 271.2 183.707 271.326 183.707 271.536V280.678C183.707 280.888 183.819 281 184.029 281H185.289C185.513 281 185.625 280.888 185.625 280.678V277.612H186.829L189.433 280.804C189.545 280.958 189.671 281 189.853 281H191.337C191.617 281 191.701 280.804 191.533 280.594ZM185.625 273.006H187.417C188.145 273.006 188.747 273.65 188.747 274.462C188.747 275.274 188.145 275.904 187.417 275.904H185.625V273.006ZM196.634 274.28L195.29 278.41L193.722 274.266C193.666 274.098 193.54 274 193.358 274H192.126C191.874 274 191.776 274.168 191.86 274.392L194.38 280.902L193.526 283.436C193.442 283.674 193.568 283.8 193.806 283.8H195.038C195.22 283.8 195.374 283.73 195.43 283.534L198.51 274.378C198.594 274.14 198.482 274 198.244 274H196.998C196.816 274 196.69 274.098 196.634 274.28ZM202.38 273.818C200.938 273.818 199.72 274.602 199.538 276.044C199.524 276.268 199.664 276.38 199.874 276.38H200.994C201.19 276.38 201.26 276.282 201.344 276.086C201.456 275.708 201.848 275.484 202.38 275.484C203.038 275.484 203.458 275.834 203.458 276.66V277.416C203.052 277.052 202.45 276.786 201.568 276.786C200.322 276.786 199.202 277.528 199.202 278.998C199.202 280.468 200.322 281.196 201.568 281.196C202.45 281.196 203.052 280.888 203.458 280.398V280.678C203.458 280.888 203.584 281.014 203.794 281.014H204.886C205.11 281.014 205.222 280.888 205.222 280.678V276.562C205.222 274.742 203.92 273.818 202.38 273.818ZM202.17 279.866C201.386 279.866 201.008 279.502 201.008 278.998C201.008 278.494 201.386 278.13 202.17 278.13C202.968 278.13 203.458 278.452 203.458 278.998C203.458 279.502 202.968 279.866 202.17 279.866ZM210.899 273.818C210.031 273.818 209.387 274.14 208.995 274.728V274.336C208.995 274.126 208.883 274 208.659 274H207.525C207.315 274 207.189 274.126 207.189 274.336V280.678C207.189 280.888 207.315 281 207.525 281H208.659C208.883 281 208.995 280.888 208.995 280.678V276.954C208.995 275.904 209.555 275.484 210.255 275.484C210.899 275.484 211.375 275.862 211.375 276.674V280.678C211.375 280.888 211.487 281 211.697 281H212.845C213.055 281 213.181 280.888 213.181 280.678V276.534C213.181 274.812 212.201 273.818 210.899 273.818ZM227.302 280.636L224.18 271.48C224.124 271.298 223.984 271.2 223.802 271.2H221.982C221.8 271.2 221.66 271.298 221.604 271.48L218.482 280.636C218.398 280.874 218.524 281 218.762 281H220.162C220.344 281 220.484 280.916 220.54 280.734L221.002 279.25H224.768L225.244 280.734C225.3 280.916 225.426 281 225.622 281H227.022C227.26 281 227.372 280.874 227.302 280.636ZM221.59 277.444L222.892 273.342L224.194 277.444H221.59ZM232.497 273.818C231.629 273.818 230.985 274.14 230.593 274.728V274.336C230.593 274.126 230.481 274 230.257 274H229.123C228.913 274 228.787 274.126 228.787 274.336V280.678C228.787 280.888 228.913 281 229.123 281H230.257C230.481 281 230.593 280.888 230.593 280.678V276.954C230.593 275.904 231.153 275.484 231.853 275.484C232.497 275.484 232.973 275.862 232.973 276.674V280.678C232.973 280.888 233.085 281 233.295 281H234.443C234.653 281 234.779 280.888 234.779 280.678V276.534C234.779 274.812 233.799 273.818 232.497 273.818ZM243.528 271.2H242.394C242.184 271.2 242.058 271.326 242.058 271.536V274.84C241.554 274.196 240.812 273.818 239.79 273.818C237.914 273.818 236.374 275.428 236.374 277.5C236.374 279.586 237.914 281.196 239.79 281.196C240.812 281.196 241.554 280.818 242.058 280.174V280.678C242.058 280.888 242.184 281 242.394 281H243.528C243.752 281 243.864 280.888 243.864 280.678V271.536C243.864 271.326 243.752 271.2 243.528 271.2ZM240.126 279.474C239.006 279.474 238.18 278.676 238.18 277.5C238.18 276.324 239.006 275.526 240.126 275.526C241.232 275.526 242.058 276.324 242.058 277.5C242.058 278.676 241.232 279.474 240.126 279.474ZM249.347 273.818C247.149 273.818 245.637 275.428 245.637 277.5C245.637 279.6 247.107 281.196 249.389 281.196C250.817 281.196 251.965 280.538 252.497 279.362C252.595 279.152 252.469 278.998 252.217 278.998H251.097C250.929 278.998 250.817 279.068 250.691 279.194C250.411 279.488 249.949 279.698 249.417 279.698C248.521 279.698 247.765 279.25 247.513 278.256H251.027H252.469C252.665 278.256 252.805 278.158 252.819 277.948C252.833 277.808 252.847 277.668 252.847 277.514C252.847 275.442 251.419 273.818 249.347 273.818ZM247.513 276.828C247.723 275.96 248.381 275.442 249.333 275.442C250.089 275.442 250.831 275.834 251.041 276.828H247.513ZM257.956 273.902C257.256 273.986 256.682 274.35 256.374 275.064V274.336C256.374 274.126 256.262 274 256.052 274H254.904C254.694 274 254.568 274.126 254.568 274.336V280.678C254.568 280.888 254.694 281 254.904 281H256.052C256.262 281 256.374 280.888 256.374 280.678V277.556C256.374 276.31 257.186 275.862 258.04 275.862C258.208 275.862 258.292 275.75 258.292 275.54V274.21C258.292 274 258.18 273.86 257.956 273.902ZM261.271 276.044C261.271 275.638 261.635 275.4 262.209 275.4C262.629 275.4 262.979 275.582 263.077 275.932C263.161 276.128 263.245 276.24 263.441 276.24H264.561C264.771 276.24 264.911 276.114 264.883 275.89C264.715 274.476 263.525 273.818 262.209 273.818C260.753 273.818 259.465 274.56 259.465 276.044C259.465 278.732 263.245 277.766 263.245 278.97C263.245 279.376 262.881 279.6 262.209 279.6C261.705 279.6 261.327 279.432 261.201 279.068C261.117 278.886 261.047 278.774 260.851 278.774H259.731C259.521 278.774 259.381 278.9 259.409 279.124C259.563 280.524 260.781 281.196 262.209 281.196C263.763 281.196 265.051 280.468 265.051 278.97C265.051 276.268 261.271 277.262 261.271 276.044ZM270.097 281.196C272.141 281.196 273.793 279.586 273.793 277.5C273.793 275.428 272.141 273.818 270.097 273.818C268.039 273.818 266.387 275.428 266.387 277.5C266.387 279.586 268.039 281.196 270.097 281.196ZM270.097 279.432C269.019 279.432 268.193 278.634 268.193 277.5C268.193 276.366 269.019 275.568 270.097 275.568C271.161 275.568 271.987 276.366 271.987 277.5C271.987 278.634 271.161 279.432 270.097 279.432ZM279.274 273.818C278.406 273.818 277.762 274.14 277.37 274.728V274.336C277.37 274.126 277.258 274 277.034 274H275.9C275.69 274 275.564 274.126 275.564 274.336V280.678C275.564 280.888 275.69 281 275.9 281H277.034C277.258 281 277.37 280.888 277.37 280.678V276.954C277.37 275.904 277.93 275.484 278.63 275.484C279.274 275.484 279.75 275.862 279.75 276.674V280.678C279.75 280.888 279.862 281 280.072 281H281.22C281.43 281 281.556 280.888 281.556 280.678V276.534C281.556 274.812 280.576 273.818 279.274 273.818Z"
      fill="black" />
    <path
      d="M158.714 231.093C158.26 231.093 157.824 231.271 157.502 231.588C157.181 231.904 157 232.334 157 232.781V261.481C157 261.928 157.181 262.358 157.502 262.674C157.824 262.991 158.26 263.169 158.714 263.169C158.979 263.168 159.241 263.107 159.478 262.991C159.715 262.874 159.921 262.705 160.08 262.496L165.434 256.617L166 255.762C168.128 255.052 166 255.783 167.5 255.289C168.738 254.735 167.019 255.441 169 254.775L169.753 254.794L179.286 254.728C179.74 254.728 180.176 254.55 180.498 254.233C180.819 253.917 181 253.487 181 253.04C181 252.788 180.943 252.54 180.833 252.313C180.723 252.086 180.562 251.886 180.364 251.727L160.057 231.733C159.897 231.534 159.692 231.373 159.46 231.262C159.227 231.151 158.973 231.093 158.714 231.093Z"
      fill="#5FD4FF" />
  </g>
  <defs>
    <filter id="filter0_d_12744_17713" x="153" y="231.093" width="139.5" height="67.9067" filterUnits="userSpaceOnUse"
      color-interpolation-filters="sRGB">
      <feFlood flood-opacity="0" result="BackgroundImageFix" />
      <feColorMatrix in="SourceAlpha" type="matrix" values="0 0 0 0 0 0 0 0 0 0 0 0 0 0 0 0 0 0 127 0"
        result="hardAlpha" />
      <feOffset dy="4" />
      <feGaussianBlur stdDeviation="2" />
      <feComposite in2="hardAlpha" operator="out" />
      <feColorMatrix type="matrix" values="0 0 0 0 0 0 0 0 0 0 0 0 0 0 0 0 0 0 0.25 0" />
      <feBlend mode="normal" in2="BackgroundImageFix" result="effect1_dropShadow_12744_17713" />
      <feBlend mode="normal" in="SourceGraphic" in2="effect1_dropShadow_12744_17713" result="shape" />
    </filter>
  </defs>
</svg>