<?xml version="1.0" encoding="UTF-8"?>
<svg id="Layer_1" xmlns="http://www.w3.org/2000/svg" xmlns:xlink="http://www.w3.org/1999/xlink" version="1.1" viewBox="0 0 282 288">
  <!-- Generator: Adobe Illustrator 29.1.0, SVG Export Plug-In . SVG Version: 2.1.0 Build 142)  -->
  <defs>
    <style>
      .st0, .st1 {
        fill: #00b39f;
      }

      .st2 {
        fill: #e2f5fc;
      }

      .st3 {
        filter: url(#drop-shadow-1);
      }

      .st4 {
        fill: #50e6ff;
      }

      .st5, .st6, .st7, .st8, .st9, .st10 {
        fill-rule: evenodd;
      }

      .st5, .st11 {
        fill: #fff;
      }

      .st12 {
        fill: url(#linear-gradient2);
      }

      .st13 {
        fill: url(#linear-gradient1);
      }

      .st14 {
        fill: url(#linear-gradient3);
      }

      .st15 {
        fill: url(#linear-gradient5);
      }

      .st16 {
        fill: url(#linear-gradient4);
      }

      .st17 {
        fill: #e75225;
      }

      .st18 {
        stroke: #326ce5;
        stroke-width: .2px;
      }

      .st18, .st7 {
        fill: #326ce5;
      }

      .st19 {
        fill: #fea777;
        opacity: .5;
      }

      .st19, .st20 {
        isolation: isolate;
      }

      .st21 {
        fill: #fe6b3c;
      }

      .st22 {
        fill: #fe733e;
      }

      .st23 {
        fill: #53b1e0;
      }

      .st24 {
        fill: #090b0b;
      }

      .st6 {
        fill: #d62783;
      }

      .st25, .st20 {
        fill: #fe6446;
      }

      .st26 {
        fill: #00d3a9;
      }

      .st27 {
        fill: none;
        stroke: url(#linear-gradient);
        stroke-width: 3px;
      }

      .st8 {
        fill: #4040b2;
      }

      .st28 {
        fill: #9cebff;
      }

      .st29 {
        fill: #cdecf6;
      }

      .st30 {
        fill: #099cec;
      }

      .st31 {
        fill: #070909;
      }

      .st32 {
        fill: #b5d2f3;
      }

      .st1 {
        stroke: #00b39f;
      }

      .st9 {
        fill: #5c4ee5;
      }

      .st20 {
        opacity: .3;
      }

      .st10 {
        fill: #009639;
      }
    </style>
    <linearGradient id="linear-gradient" x1="-677.5" y1="193.3" x2="-677.5" y2="72.4" gradientTransform="translate(819 288) scale(1 -1)" gradientUnits="userSpaceOnUse">
      <stop offset="0" stop-color="#00b39f"/>
      <stop offset="1" stop-color="#000"/>
    </linearGradient>
    <linearGradient id="linear-gradient1" x1="-658.5" y1="252.8" x2="-663.9" y2="263" gradientTransform="translate(819 288) scale(1 -1)" gradientUnits="userSpaceOnUse">
      <stop offset="0" stop-color="#1988d9"/>
      <stop offset=".9" stop-color="#54aef0"/>
    </linearGradient>
    <linearGradient id="linear-gradient2" x1="-660.9" y1="255.7" x2="-657.1" y2="249.3" gradientTransform="translate(819 288) scale(1 -1)" gradientUnits="userSpaceOnUse">
      <stop offset="0" stop-color="#54aef0"/>
      <stop offset=".3" stop-color="#4fabee"/>
      <stop offset=".5" stop-color="#41a2e9"/>
      <stop offset=".7" stop-color="#2a93e0"/>
      <stop offset=".9" stop-color="#1988d9"/>
    </linearGradient>
    <linearGradient id="linear-gradient3" x1="-744.2" y1="180.5" x2="-744.2" y2="204" gradientTransform="translate(819 288) scale(1 -1)" gradientUnits="userSpaceOnUse">
      <stop offset="0" stop-color="#0071ff"/>
      <stop offset="1" stop-color="#009bff"/>
    </linearGradient>
    <linearGradient id="linear-gradient4" x1="-751.7" y1="189" x2="-736.9" y2="189" gradientTransform="translate(819 288) scale(1 -1)" gradientUnits="userSpaceOnUse">
      <stop offset="0" stop-color="#0050fa"/>
      <stop offset="1" stop-color="#00a0ff" stop-opacity="0"/>
    </linearGradient>
    <linearGradient id="linear-gradient5" x1="-740.9" y1="186.4" x2="-740.9" y2="201.3" gradientTransform="translate(819 288) scale(1 -1)" gradientUnits="userSpaceOnUse">
      <stop offset="0" stop-color="#00a0dc"/>
      <stop offset="1" stop-color="#3cfaff"/>
    </linearGradient>
    <filter id="drop-shadow-1" x="77" y="111" width="130" height="160" filterUnits="userSpaceOnUse">
      <feOffset dx="1" dy="1"/>
      <feGaussianBlur result="blur" stdDeviation="2"/>
      <feFlood flood-color="#000" flood-opacity=".3"/>
      <feComposite in2="blur" operator="in"/>
      <feComposite in="SourceGraphic"/>
    </filter>
  </defs>
  <path class="st17" d="M215.5,13c6.3,0,11.5,5.2,11.5,11.5,0,6.4-5.2,11.5-11.6,11.5-6.3,0-11.4-5.2-11.4-11.6,0-6.3,5.2-11.4,11.5-11.4ZM212,17c.1.7,0,1.4-.2,2-.1.5-.4.9-.5,1.4-.2.8-.4,1.5-.5,2.3-.1,1.1.3,2.1,1.1,3.1l-3.4-.7c0,.1,0,.2,0,.2.3,1,.9,1.8,1.5,2.5,0,0,.2.1.3.1,3.4,0,6.8,0,10.3,0,.1,0,.2,0,.3,0,.7-.8,1.3-1.7,1.6-2.8l-3.6.7c.2-.5.5-.9.7-1.3.5-1.6.3-3.1-.5-4.5-.6-1.1-1.2-2.3-.9-3.7-.7.7-.9,1.5-1.1,2.3-.2.8-.2,1.7-.4,2.6,0,0,0,0,0,0,0,0,0-.2,0-.3,0-1.4-.3-2.7-.9-4-.3-.8-.7-1.5-.4-2.4-.2.1-.4.2-.6.4-.5.5-.6,1.2-.7,1.9,0,.6,0,1.2-.2,1.8-.1.6-.3,1.2-.7,1.8-.2-1.2-.2-2.4-1.2-3.2ZM220.9,29h-10.7v1.9h10.7v-1.9ZM212.3,31.9c0,1.6,1.6,2.7,3.5,2.6,1.6,0,3.1-1.4,2.9-2.6h-6.5Z"/>
  <circle class="st27" cx="141.5" cy="191.4" r="95.1"/>
  <path class="st10" d="M244.5,76.8c-11-5.2-15.6-18.4-10.3-29.3,2.5-5.3,7-9.3,12.5-11.2,5.5-1.9,11.5-1.6,16.8.9,11,5.2,15.6,18.4,10.3,29.3-5.2,11-18.4,15.6-29.3,10.3h0Z"/>
  <path class="st11" d="M259.7,54.3l-3.8,1.9c0,.2.1.5.1.7,0,.2,0,.5-.2.6l3.5,2c.3-.4.8-.6,1.3-.6l.2-3.9s0,0-.1,0c-.5-.1-.9-.4-1.1-.7Z"/>
  <path class="st11" d="M266.1,49.7l-11.3-6c-.5-.3-1-.3-1.5,0l-11.2,6c-.5.2-.7.7-.7,1.2v11.9c0,.2,0,.5.2.7.1.2.3.4.5.5l11.3,6c.5.3,1,.3,1.5,0l11.3-6c.5-.2.7-.7.7-1.2v-11.9c0-.5-.3-.9-.7-1.2ZM261.4,58.8c1,.2,1.7,1.1,1.6,2s-1.2,1.6-2.2,1.4c-1-.2-1.7-1.1-1.6-2,0-.1,0-.3.1-.4l-3.6-1.9c-.3.4-.9.7-1.5.7s-1.2-.3-1.5-.7l-3.6,1.9c0,.2.1.4.1.6s0,.5-.2.7l3.7,2c.3-.4.9-.7,1.5-.7,1.1,0,1.9.8,1.9,1.7s-.9,1.8-1.9,1.8-1.9-.8-1.9-1.8,0-.5.2-.7l-3.7-2c-.3.4-.9.7-1.5.7-1.1,0-1.9-.8-1.9-1.8s.9-1.7,1.9-1.7,1.2.3,1.5.7l3.6-1.9c0-.2-.1-.4-.1-.6,0-.9.7-1.6,1.7-1.7v-4.1c-.5,0-1-.3-1.3-.7l-3.8,2.1c0,.2.2.4.2.7,0,1-.9,1.8-1.9,1.8s-1.9-.8-1.9-1.8.9-1.7,1.9-1.7,1.2.3,1.5.7l3.8-2.1c0-.2-.2-.4-.2-.7,0-1,.9-1.7,1.9-1.7s1.9.8,1.9,1.7-.7,1.6-1.7,1.7v4.1c.5,0,1,.3,1.3.6l3.7-2c-.1-.3-.2-.7-.1-1,.2-1,1.2-1.6,2.2-1.4,1,.2,1.7,1.1,1.5,2.1-.2.8-.8,1.3-1.6,1.4v3.9s0,0,0,0Z"/>
  <path class="st7" d="M120.7,86.3c-8.5-4.1-12-14.2-8-22.7,1.9-4.1,5.4-7.2,9.7-8.7,4.3-1.5,8.9-1.2,13,.7,8.5,4.1,12,14.2,8,22.7-4.1,8.5-14.2,12-22.7,8h0Z"/>
  <path class="st11" d="M127.8,60.6c-.2,0-.4,0-.5.1l-7.5,3.6c-.2,0-.4.2-.5.4-.1.2-.2.4-.3.6l-1.9,8.1c0,.2,0,.4,0,.6,0,.2.1.4.2.5,0,0,0,0,0,.1l5.2,6.5c.1.2.3.3.5.4.2,0,.4.1.6.1h8.3c.2,0,.4,0,.6-.1.2,0,.4-.2.5-.4l5.2-6.5c.1-.2.2-.4.3-.6,0-.2,0-.4,0-.6l-1.9-8.1c0-.2-.1-.4-.3-.6-.1-.2-.3-.3-.5-.4l-7.5-3.6c-.2-.1-.5-.2-.7-.1h0Z"/>
  <path class="st18" d="M127.9,63.3c-.2,0-.4.2-.4.5s0,0,0,0c0,0,0,0,0,.1,0,.2,0,.3,0,.4,0,.3,0,.6,0,.8,0,0,0,.2-.1.2v.2c-.3,0-.6,0-.8.1-1.2.3-2.2.9-2.9,1.7,0,0-.1,0-.2-.1,0,0-.2,0-.3,0-.2-.1-.4-.3-.6-.5-.1-.1-.2-.2-.3-.3,0,0,0,0-.1,0,0,0-.2-.1-.3-.1-.1,0-.3,0-.4.2-.2.2-.1.5.1.7,0,0,0,0,0,0,0,0,0,0,0,0,.1,0,.2.1.4.2.3.2.5.3.7.5,0,0,0,.2,0,.3h.1c-.8,1.3-1.1,2.7-.9,4.2h-.2c0,.1-.1.2-.2.2-.2,0-.5,0-.8.1-.1,0-.3,0-.4,0,0,0,0,0-.1,0,0,0,0,0,0,0,0,0,0,0,0,0-.3,0-.4.3-.4.5s.3.4.6.3c0,0,0,0,0,0,0,0,0,0,0,0,0,0,0,0,.1,0,.2,0,.3-.1.4-.2.3-.1.5-.2.8-.2,0,0,.2,0,.3,0h.2c.5,1.4,1.4,2.5,2.6,3.2v.2c0,0,0,.2,0,.3,0,.2-.2.5-.4.7,0,.1-.2.2-.2.4,0,0,0,0,0,.1-.1.2,0,.5.2.6.2.1.5,0,.6-.3,0,0,0,0,0,0,0,0,0,0,0,0,0,0,0,0,0-.1,0-.1,0-.3.1-.4.1-.3.2-.6.3-.8,0,0,.1,0,.2,0v-.2c1.1.4,2.3.5,3.5.2.3,0,.5-.1.8-.2,0,0,0,.1,0,.2,0,0,.2,0,.2.1.1.2.2.5.3.8,0,.1,0,.3.1.4,0,0,0,0,0,.1.1.2.4.4.6.3.2-.1.3-.4.2-.6,0,0,0,0,0-.1,0-.1-.2-.2-.2-.4-.2-.3-.3-.5-.4-.7,0-.1,0-.2,0-.3,0,0,0-.1,0-.2,1.2-.7,2.2-1.9,2.6-3.3,0,0,.2,0,.2,0,0,0,.1-.1.3,0,.2,0,.5.1.8.2.1,0,.2.1.4.2,0,0,0,0,.1,0,0,0,0,0,0,0,0,0,0,0,0,0,.3,0,.5,0,.6-.3,0-.2-.1-.5-.4-.5,0,0,0,0-.1,0-.2,0-.3,0-.4,0-.3,0-.6,0-.8-.1,0,0-.2-.1-.2-.2h-.2c0-.7,0-1.4,0-2.2-.2-.7-.5-1.4-.8-1.9,0,0,.1-.1.2-.1,0,0,0-.2,0-.3.2-.2.4-.3.7-.5.1,0,.2-.1.4-.2,0,0,0,0,0,0,.2-.2.3-.5.1-.7-.2-.2-.5-.2-.7,0,0,0,0,0-.1,0-.1.1-.2.2-.3.3-.2.2-.4.4-.6.5,0,0-.2,0-.3,0h-.2c-1-.9-2.3-1.6-3.7-1.7,0,0,0-.2,0-.2,0,0-.1-.1-.1-.2,0-.2,0-.5,0-.8,0-.1,0-.3,0-.4,0,0,0,0,0-.1,0-.3-.2-.5-.4-.5h0ZM127.4,66.8v2.4c-.1,0-.1,0-.1,0,0,.2-.2.4-.4.4s-.2,0-.2,0h0s-1.9-1.4-1.9-1.4c.6-.6,1.4-1,2.2-1.2.2,0,.3,0,.5,0ZM128.5,66.8c1,.1,2,.6,2.7,1.3l-1.9,1.4h0c-.2.1-.4,0-.5,0,0,0,0-.1,0-.2h0s-.1-2.4-.1-2.4ZM123.9,69l1.8,1.6h0c.2.1.2.4,0,.6,0,0-.1.1-.2.1h0s-2.3.7-2.3.7c-.1-1.1.1-2.1.7-2.9ZM131.9,69c.3.4.5.9.6,1.4.1.5.1,1,0,1.5l-2.3-.7h0c-.2,0-.3-.3-.3-.5,0,0,0-.2.1-.2h0s1.8-1.6,1.8-1.6h0ZM127.6,70.7h.7l.4.6-.2.7-.6.3-.7-.3-.2-.7.5-.6ZM129.9,72.6s0,0,0,0h0s2.3.4,2.3.4c-.3,1-1,1.8-1.9,2.4l-.9-2.2h0c0-.2,0-.4.2-.5,0,0,0,0,.2,0h0ZM125.9,72.6c.2,0,.3.1.4.3,0,0,0,.2,0,.2h0s-.9,2.2-.9,2.2c-.8-.5-1.5-1.3-1.9-2.3l2.3-.4h0s0,0,0,0h0ZM127.9,73.6c0,0,.1,0,.2,0,0,0,.1,0,.2.2h0l1.1,2.1c-.1,0-.3,0-.5.1-.9.2-1.7.1-2.5-.1l1.1-2.1h0c0-.1.2-.2.3-.2Z"/>
  <path class="st6" d="M15.4,92.3c-5.6-2.7-8-9.4-5.3-14.9,1.3-2.7,3.6-4.7,6.4-5.7,2.8-1,5.9-.8,8.6.5,5.6,2.7,8,9.4,5.3,14.9-2.7,5.6-9.4,7.9-15,5.3h0Z"/>
  <path class="st5" d="M20,83.6c-.8,0-1.4-.6-1.4-1.4s.6-1.4,1.4-1.4,1.4.6,1.4,1.4-.6,1.4-1.4,1.4"/>
  <path class="st5" d="M22.7,82.8c-.3,0-.6-.3-.6-.6s.3-.6.6-.6.6.3.6.6-.3.6-.6.6h0ZM25,83.4c0,.3-.4.5-.8.5-.3,0-.5-.4-.5-.8,0-.3.4-.5.8-.5.3,0,.5.4.5.7,0,0,0,0,0,0h0ZM24.5,81.8c-.3,0-.7-.1-.8-.5,0-.3.1-.7.5-.8.3,0,.7.1.8.5,0,0,0,.2,0,.3,0,.2-.2.5-.5.5h0ZM26.8,83.3c0,.3-.4.6-.7.5-.3,0-.6-.4-.5-.7,0-.3.4-.6.7-.5.3,0,.6.4.5.7t0,0h0ZM26.3,81.7c-.3,0-.7-.2-.7-.5,0-.3.2-.7.5-.7.3,0,.7.2.7.5,0,0,0,.1,0,.2,0,.3-.2.5-.5.6ZM25.8,85.6c-.2.3-.6.4-.9.2-.3-.2-.4-.6-.2-.9.2-.3.6-.4.9-.2.2.1.3.4.3.6,0,0,0,.2,0,.3h0ZM25.6,79.7c-.3.2-.7,0-.9-.2-.2-.3,0-.7.2-.9.3-.2.7,0,.9.2,0,.1,0,.2,0,.4,0,.2-.1.4-.3.5"/>
  <path class="st11" d="M20,88.7c-1.7,0-3.3-.7-4.5-1.9-1.2-1.2-1.8-2.9-1.8-4.6s.7-3.3,1.9-4.6c1.2-1.2,2.8-1.9,4.5-1.9s2.8.5,3.9,1.3l-.8,1c-.9-.7-2-1.1-3.1-1.1s-2.6.5-3.6,1.5c-1,1-1.5,2.3-1.5,3.6s.5,2.7,1.5,3.6,2.2,1.5,3.6,1.5,2.2-.4,3.1-1.1l.8,1c-1.1.9-2.5,1.3-3.9,1.3h0Z"/>
  <path class="st26" d="M202.9,77.8v6.9l6-3.5-6-3.5Z"/>
  <path class="st26" d="M202.9,86.2v7l6.1-3.5-6.1-3.5Z"/>
  <path class="st0" d="M202.1,84.7v-6.8l-5.9,3.4,5.9,3.4Z"/>
  <path class="st0" d="M190.2,93.2c1.2,1.9,2.7,3.5,4.6,4.6v-7.3l-4.6,2.7Z"/>
  <path class="st0" d="M202.1,93.2v-6.9l-5.9,3.4,5.9,3.4Z"/>
  <path class="st26" d="M195.6,97.4l6-3.4-6-3.5v6.9Z"/>
  <path class="st0" d="M209.4,97.4v-6.9l-6,3.4,6,3.5Z"/>
  <path class="st0" d="M215.3,92.4c1-1.9,1.6-4,1.7-6.2l-6.3,3.6,4.6,2.6Z"/>
  <path class="st26" d="M210.3,89l6-3.5-6-3.5v6.9Z"/>
  <path class="st0" d="M209.4,80.6v-6.9l-6,3.4,6,3.4Z"/>
  <path class="st0" d="M209.4,89v-6.9l-6,3.5,6,3.5Z"/>
  <path class="st26" d="M195.6,82v7l6-3.5-6-3.5Z"/>
  <path class="st0" d="M202.1,71c-2.2,0-4.4.6-6.4,1.7l6.4,3.7v-5.3Z"/>
  <path class="st26" d="M195.6,73.6v6.9l6-3.5-6-3.5Z"/>
  <path class="st0" d="M194.8,73.2c-1.9,1.2-3.4,2.8-4.6,4.6l4.6,2.7v-7.3Z"/>
  <path class="st26" d="M209.4,72.7c-2-1.1-4.2-1.7-6.4-1.7v5.4l6.4-3.7Z"/>
  <path class="st26" d="M188,86c0,2.2.7,4.4,1.7,6.4l4.7-2.7-6.4-3.7Z"/>
  <path class="st26" d="M189.7,78.6c-1.1,2-1.7,4.1-1.7,6.4l6.4-3.7-4.7-2.7Z"/>
  <path class="st0" d="M195.7,98.3c2,1,4.2,1.6,6.4,1.7v-5.3l-6.4,3.6Z"/>
  <path class="st26" d="M214.8,77.9c-1.2-1.9-2.7-3.4-4.6-4.6v7.3l4.6-2.6Z"/>
  <path class="st26" d="M210.3,97.8c1.9-1.2,3.4-2.8,4.6-4.7l-4.6-2.7v7.3Z"/>
  <path class="st0" d="M217,84.9c0-2.2-.7-4.4-1.7-6.3l-4.6,2.7,6.3,3.6Z"/>
  <path class="st26" d="M202.9,100c2.2,0,4.4-.6,6.4-1.7l-6.4-3.7v5.4Z"/>
  <path class="st0" d="M194.8,88.9v-6.9l-5.9,3.4,5.9,3.4Z"/>
  <path class="st1" d="M29.1,54.1c-2.2-1.1-3.2-3.8-2.1-6,.5-1.1,1.4-1.9,2.6-2.3,1.1-.4,2.4-.3,3.4.2l.2-.5-.2.5c2.2,1.1,3.2,3.8,2.1,6-1.1,2.2-3.8,3.2-6,2.1Z"/>
  <path class="st1" d="M244.1,153.1c-2.2-1.1-3.2-3.8-2.1-6,.5-1.1,1.4-1.9,2.6-2.3,1.1-.4,2.4-.3,3.4.2l.2-.5-.2.5c2.2,1.1,3.2,3.8,2.1,6-1.1,2.2-3.8,3.2-6,2.1Z"/>
  <path class="st1" d="M181.1,9.1c-2.2-1.1-3.2-3.8-2.1-6,.5-1.1,1.4-1.9,2.6-2.3,1.1-.4,2.4-.3,3.4.2l.2-.5-.2.5c2.2,1.1,3.2,3.8,2.1,6-1.1,2.2-3.8,3.2-6,2.1Z"/>
  <path class="st1" d="M24.1,175.1c-2.2-1.1-3.2-3.8-2.1-6,.5-1.1,1.4-1.9,2.6-2.3,1.1-.4,2.4-.3,3.4.2l.2-.5-.2.5c2.2,1.1,3.2,3.8,2.1,6-1.1,2.2-3.8,3.2-6,2.1Z"/>
  <path class="st1" d="M111.7,20.9c-.6,1.2,0,2.7,1.2,3.3,1.2.6,2.7,0,3.3-1.2.6-1.2,0-2.7-1.2-3.3l.2-.4-.2.4c-.6-.3-1.3-.3-1.9-.1s-1.1.7-1.4,1.3ZM111.7,20.9l-.5-.2.5.2Z"/>
  <path class="st1" d="M78.7,62.9c-.6,1.2,0,2.7,1.2,3.3,1.2.6,2.7,0,3.3-1.2s0-2.7-1.2-3.3l.2-.4-.2.4c-.6-.3-1.3-.3-1.9-.1-.6.2-1.1.7-1.4,1.3ZM78.7,62.9l-.5-.2.5.2Z"/>
  <path class="st1" d="M182.7,56.9c-.6,1.2,0,2.7,1.2,3.3,1.2.6,2.7,0,3.3-1.2.6-1.2,0-2.7-1.2-3.3l.2-.4-.2.4c-.6-.3-1.3-.3-1.9-.1-.6.2-1.1.7-1.4,1.3ZM182.7,56.9l-.5-.2.5.2Z"/>
  <path class="st1" d="M276.7,124.9c-.6,1.2,0,2.7,1.2,3.3,1.2.6,2.7,0,3.3-1.2s0-2.7-1.2-3.3l.2-.4-.2.4c-.6-.3-1.3-.3-1.9-.1-.6.2-1.1.7-1.4,1.3ZM276.7,124.9l-.5-.2.5.2Z"/>
  <path class="st1" d="M239.7,85.9c-.6,1.2,0,2.7,1.2,3.3,1.2.6,2.7,0,3.3-1.2.6-1.2,0-2.7-1.2-3.3l.2-.4-.2.4c-.6-.3-1.3-.3-1.9-.1-.6.2-1.1.7-1.4,1.3ZM239.7,85.9l-.5-.2.5.2Z"/>
  <path class="st1" d="M38.7,98.9c-.6,1.2,0,2.7,1.2,3.3s2.7,0,3.3-1.2c.6-1.2,0-2.7-1.2-3.3l.2-.4-.2.4c-.6-.3-1.3-.3-1.9-.1-.6.2-1.1.7-1.4,1.3ZM38.7,98.9l-.5-.2.5.2Z"/>
  <path class="st1" d="M242.7,14.9c-.6,1.2,0,2.7,1.2,3.3,1.2.6,2.7,0,3.3-1.2.6-1.2,0-2.7-1.2-3.3l.2-.4-.2.4c-.6-.3-1.3-.3-1.9-.1-.6.2-1.1.7-1.4,1.3ZM242.7,14.9l-.5-.2.5.2Z"/>
  <path class="st1" d="M.7,118.9c-.6,1.2,0,2.7,1.2,3.3,1.2.6,2.7,0,3.3-1.2.6-1.2,0-2.7-1.2-3.3l.2-.4-.2.4c-.6-.3-1.3-.3-1.9-.1-.6.2-1.1.7-1.4,1.3ZM.7,118.9l-.5-.2.5.2Z"/>
  <path class="st9" d="M41.4,140.1v-9.5l-8.2-4.8v9.5l8.2,4.8ZM41.4,129.6l-8.2-4.8v-9.5l8.2,4.8v9.5Z"/>
  <path class="st8" d="M50.5,124.8v-9.5l-8.2,4.8v9.5l8.2-4.8Z"/>
  <path class="st9" d="M32.2,124.3v-9.5l-8.2-4.8v9.5l8.2,4.8Z"/>
  <path class="st11" d="M243,120.1c0,1.2-.8,1.8-2,1.8s-2-.7-2-1.8c0,0,.7,1,2,1s2-1,2-1h0Z"/>
  <path class="st2" d="M241.1,124.7c6.2,0,11.2-5,11.2-11.2s-5-11.2-11.2-11.2-11.2,5-11.2,11.2,5,11.2,11.2,11.2Z"/>
  <path class="st29" d="M241.1,122.9c5,0,9.1-4.1,9.1-9.1s-4.1-9.1-9.1-9.1-9.1,4.1-9.1,9.1,4.1,9.1,9.1,9.1Z"/>
  <path class="st11" d="M237.6,105.8c0,0,.1,0,.2,0,0,0,.1,0,.2-.1,0,0,0-.1.1-.2,0,0,0-.1,0-.2s0-.1,0-.2c0,0,0-.1-.1-.2,0,0-.1,0-.2-.1,0,0-.1,0-.2,0-.1,0-.3,0-.4.2-.1.1-.2.2-.2.4s0,.3.2.4c.1.1.2.2.4.2ZM233.6,119.3s0,0,0,0c0,0,0,0,0,0,0,0,0,0,0,0,0,0,0,0,0,0,0,0,0,0,0,0,0,0,0,0,0,0,0,0,0,0,0,0,0,0,0,0,0,0-3.6-4.7-1.5-10.7,2.6-13.1,0,0,0,0,0-.1,0,0,0,0,0-.1s0,0-.1,0c0,0,0,0-.1,0-4.3,2.5-6.5,8.8-2.7,13.6Z"/>
  <path class="st32" d="M229.8,111.3s0,0,0,0c0,0,0,0,0,0,0,0,0,0,0,0,0,0,0,0,0,0s0,0,0,0c0,0,0,0,0,0,0,0,0,0,0,0,0,0,0,0,0,0h.3ZM229.5,115.7s0,0,0,0c0,0,0,0,0,0,0,0,0,0,0,0,0,0,0,0,0,0s0,0,0,0c0,0,0,0,0,0,0,0,0,0,0,0,0,0,0,0,0,0h-.3ZM252.6,111.3s0,0,0-.1c0,0,0,0-.1,0s0,0-.1,0c0,0,0,0,0,.1h.3ZM252.3,115.7s0,0,0,.1c0,0,0,0,.1,0s0,0,.1,0c0,0,0,0,0-.1h-.3ZM241,125.1c6.4,0,11.5-5.2,11.5-11.5h-.3c0,6.2-5,11.2-11.2,11.2v.3ZM252.6,113.5c0-6.4-5.2-11.5-11.5-11.5v.3c6.2,0,11.2,5,11.2,11.2h.3ZM241,102c-6.4,0-11.5,5.2-11.5,11.5h.3c0-6.2,5-11.2,11.2-11.2v-.3ZM229.5,113.5c0,6.4,5.2,11.5,11.5,11.5v-.3c-6.2,0-11.2-5-11.2-11.2h-.3ZM229.5,111.3v4.4h.3v-4.4h-.3ZM252.3,111.3v4.4h.3v-4.4h-.3Z"/>
  <path class="st32" d="M229.9,111.4c0,0,0-.1,0-.2,0,0,0-.1,0-.2,0,0,0,0-.1-.1s-.1,0-.2,0-.1,0-.2,0c0,0-.1,0-.1.1,0,0,0,0,0,.2,0,0,0,.1,0,.2v4.4c0,0,0,.1,0,.2,0,0,0,.1,0,.2s0,0,.1.1c0,0,.1,0,.2,0s.1,0,.2,0c0,0,.1,0,.1-.1,0,0,0,0,0-.2,0,0,0-.1,0-.2v-4.4ZM253.1,111.4c0,0,0-.1,0-.2,0,0,0-.1,0-.2,0,0,0,0-.1-.1s-.1,0-.2,0-.1,0-.2,0c0,0-.1,0-.1.1,0,0,0,0,0,.2,0,0,0,.1,0,.2v4.4c0,0,0,.1,0,.2,0,0,0,.1,0,.2s0,0,.1.1c0,0,.1,0,.2,0s.1,0,.2,0c0,0,.1,0,.1-.1,0,0,0,0,0-.2,0,0,0-.1,0-.2v-4.4Z"/>
  <path class="st22" d="M236.1,130.5c.5-.2.4-.4.4-.5l-.3-3.8-.2-1.9-.3-12c0-2.8,2.1-5.5,5.3-5.5s5.4,2.6,5.4,5.5c0,5.7-.2,7.9-.5,12,0,.6,0,1.4-.1,1.9-.1,2.6-.3,3.8-.3,3.9,0,.1-.1.3.4.5.5.2,1.7.5,1.7.6s-2,0-2,0c-1.2,0-1.2-.9-1.2-1.1s-.3-3.8-.3-3.8v4.7c-.1.2,0,.5.7.7,0,0,1.6.2,1.6.3s-1.9,0-1.9,0c-1.5,0-1.5-.9-1.5-.9l-.3-3.8s-.1,3.8-.1,4.4,0,.7,1.2.9c.6.2,1.7.3,1.7.4s-2.6,0-2.6,0c-1.4-.1-1.5-1.1-1.5-1.1l-.5-1.9-.5,1.9s-.2,1-1.6,1.1c0,0-2.3,0-2.3,0s.9-.2,1.5-.4c.8-.2,1.2-.5,1.2-.9s-.1-4.4-.1-4.4l-.3,3.8s0,.9-1.5.9c0,0-2.1,0-2.1,0s1.8-.3,1.8-.3c.7-.2.8-.5.8-.7v-4.7c-.1,0-.4,3.6-.4,3.8s0,1.2-1.2,1.2c0,0-2,0-2-.2s1.1-.3,1.6-.5h0Z"/>
  <path class="st25" d="M236,124.2s-.2.5-.7.8c-.5.3-1.1.4-1.6.5,0,0,.7.4,1.6.3.6,0,.8,0,.9.4l-.2-1.9h0ZM246,124.2s.3.5.8.8c.5.3,1.1.4,1.6.5,0,0-.7.4-1.6.3-.6,0-.8,0-.9.4v-1.9Z"/>
  <path class="st20" d="M246,124.1v-.7c-2.6,1.2-5,1.1-5,1.1,0,0-2.4.1-5-1.1v.6s1.8,1.1,5,1.1,5-1.1,5-1.1Z"/>
  <path class="st19" d="M238.9,110c0,0,.2,0,.3,0,0,0,.2,0,.2-.2,0,0,.1-.2.2-.2,0,0,0-.2,0-.3s0-.2,0-.3c0,0,0-.2-.2-.2,0,0-.2-.1-.2-.2,0,0-.2,0-.3,0-.2,0-.4,0-.5.2-.1.1-.2.3-.2.5,0,.2,0,.4.2.5.1.1.3.2.5.2Z"/>
  <path class="st21" d="M246.4,112.3s0-.9-.3-2c-1.1-3-3.8-3.6-5.3-3.6,0,0,2.1,1,2.2,4.1,0,1.4,0,1.4,0,1.4h3.4Z"/>
  <path class="st11" d="M243,120.1c0,1.2-.8,1.8-2,1.8s-2-.7-2-1.8c0,0,.7,1,2,1s2-1,2-1h0Z"/>
  <path class="st11" d="M243,120.1c0,1.2-.8,1.8-2,1.8s-2-.7-2-1.8c0,0,.7,1,2,1s2-1,2-1h0Z"/>
  <path class="st11" d="M243,120.1c0,1.2-.5,3-2,3s-2-2-2-3c0,0,0,1.8,2,1.8s2-1.8,2-1.8h0Z"/>
  <path class="st31" d="M243,120.1c0,1.2-.5,3-2,3s-2-2-2-3c0,0,0,1.8,2,1.8s2-1.8,2-1.8h0Z"/>
  <path class="st25" d="M237.2,118.3c.4,0,.8,0,1.2-.2.4-.2.7-.4,1-.7.3-.3.5-.7.7-1,.2-.4.2-.8.2-1.2,0-1.8-1.4-3.2-3.2-3.2s-.8,0-1.2.2c-.4.2-.7.4-1,.7-.3.3-.5.7-.7,1-.2.4-.2.8-.2,1.2,0,1.8,1.4,3.2,3.2,3.2Z"/>
  <path class="st11" d="M237.2,117.7c.3,0,.7,0,1-.2.3-.1.6-.3.8-.5s.4-.5.5-.8.2-.6.2-1,0-.7-.2-1c-.1-.3-.3-.6-.5-.8s-.5-.4-.8-.5c-.3-.1-.6-.2-1-.2s-.7,0-1,.2c-.3.1-.6.3-.8.5s-.4.5-.5.8c-.1.3-.2.6-.2,1s0,.7.2,1,.3.6.5.8.5.4.8.5c.3.1.6.2,1,.2Z"/>
  <path class="st24" d="M237.1,115.5c.1,0,.2,0,.3,0,0,0,.2,0,.3-.2,0,0,.1-.2.2-.3,0,0,0-.2,0-.3s0-.2,0-.3c0,0,0-.2-.2-.3,0,0-.2-.1-.3-.2,0,0-.2,0-.3,0-.2,0-.4,0-.5.2-.1.1-.2.3-.2.5s0,.4.2.5c.1.1.3.2.5.2Z"/>
  <path class="st25" d="M244.8,118.3c.4,0,.8,0,1.2-.2.4-.2.7-.4,1-.7.3-.3.5-.7.7-1,.2-.4.2-.8.2-1.2,0-1.8-1.4-3.2-3.2-3.2s-.8,0-1.2.2c-.4.2-.7.4-1,.7-.3.3-.5.7-.7,1-.2.4-.2.8-.2,1.2,0,1.8,1.4,3.2,3.2,3.2Z"/>
  <path class="st11" d="M244.7,117.7c.3,0,.7,0,1-.2.3-.1.6-.3.8-.5s.4-.5.5-.8c.1-.3.2-.6.2-1s0-.7-.2-1-.3-.6-.5-.8-.5-.4-.8-.5c-.3-.1-.6-.2-1-.2s-.7,0-1,.2c-.3.1-.6.3-.8.5-.2.2-.4.5-.5.8s-.2.6-.2,1,0,.7.2,1c.1.3.3.6.5.8.2.2.5.4.8.5.3.1.6.2,1,.2Z"/>
  <path class="st24" d="M244.7,115.5c.2,0,.4,0,.5-.2.1-.1.2-.3.2-.5,0-.2,0-.4-.2-.6-.1-.1-.3-.2-.5-.2s-.2,0-.3,0c0,0-.2,0-.3.2,0,0-.1.2-.2.3,0,0,0,.2,0,.3s0,.2,0,.3c0,0,0,.2.2.3,0,0,.2.1.3.2,0,0,.2,0,.3,0h0Z"/>
  <path class="st4" d="M146.2,31.9l9.2,6,9.4-6,1.2,1.4-10.6,6.8-10.4-6.8,1.2-1.4Z"/>
  <path class="st11" d="M146.9,31.2l8.5-10.2,8.7,10.2-8.7,5.5-8.5-5.5Z"/>
  <path class="st4" d="M155.4,21v15.7l-8.5-5.5,8.5-10.2Z"/>
  <path class="st13" d="M155.4,21v15.7l8.7-5.5-8.7-10.2Z"/>
  <path class="st23" d="M155.4,29.1l8.7,2.1-8.7,5.5v-7.6Z"/>
  <path class="st28" d="M155.4,36.7l-8.5-5.5,8.5-2.1v7.6Z"/>
  <path class="st12" d="M155.4,40.1l10.6-6.8-1.2-1.4-9.4,6v2.2Z"/>
  <path class="st30" d="M71.8,16.4h-4.9v4.4h4.9v-4.4Z"/>
  <path class="st30" d="M71.8,21.7h-4.9v4.4h4.9v-4.4Z"/>
  <path class="st30" d="M66,16.4h-4.9v4.4h4.9v-4.4Z"/>
  <path class="st30" d="M77.5,21.7h-4.9v4.4h4.9v-4.4Z"/>
  <path class="st30" d="M71.8,11h-4.9v4.5h4.9v-4.5Z"/>
  <path class="st30" d="M60.3,16.4h-4.9v4.4h4.9v-4.4Z"/>
  <path class="st30" d="M66,21.7h-4.9v4.4h4.9v-4.4Z"/>
  <path class="st30" d="M92.1,23.7c-1.1-.7-3.5-1-5.4-.6-.2-1.8-1.2-3.3-3-4.7l-1-.7-.7,1c-1.4,2-1.7,5.4-.3,7.6-.6.3-1.9.8-3.6.8h-32c-.6,3.7.4,8.6,3.2,11.9,2.7,3.2,6.8,4.9,12.2,4.9,11.6,0,20.2-5.3,24.2-15,1.6,0,5,0,6.7-3.3.1-.2.5-1,.6-1.3l-1-.7Z"/>
  <path class="st30" d="M54.5,21.7h-4.9v4.4h4.9v-4.4Z"/>
  <path class="st30" d="M60.3,21.7h-4.9v4.4h4.9v-4.4Z"/>
  <path class="st14" d="M74.8,84c-2.3,0-4.6.7-6.5,2-1.9,1.3-3.4,3.1-4.3,5.3-.9,2.1-1.1,4.5-.7,6.8.5,2.3,1.6,4.4,3.2,6,1.6,1.6,3.7,2.8,6,3.2,2.3.5,4.6.2,6.8-.7,2.1-.9,4-2.4,5.3-4.3,1.3-1.9,2-4.2,2-6.5,0-3.1-1.2-6.1-3.4-8.3-2.2-2.2-5.2-3.4-8.3-3.4ZM74.8,99.9c-.8,0-1.6-.2-2.3-.7-.7-.5-1.2-1.1-1.5-1.9-.3-.8-.4-1.6-.2-2.4.2-.8.6-1.6,1.1-2.1.6-.6,1.3-1,2.1-1.1.8-.2,1.7,0,2.4.2.8.3,1.4.9,1.9,1.5.5.7.7,1.5.7,2.3s-.4,2.2-1.2,3c-.8.8-1.8,1.2-2.9,1.2h0Z"/>
  <path class="st16" d="M81.3,100.6c-.8.5-1.8.8-2.8.9-1,.1-2,0-2.9-.2-.9-.3-1.8-.7-2.6-1.3-.8-.6-1.4-1.3-1.9-2.2-.4-.6-.6-1.3-.6-2,0-.7.1-1.4.5-2,.3-.6.8-1.2,1.4-1.5.6-.4,1.3-.6,2-.7-1.4,0-2.8.5-3.9,1.3-1.2.8-2.1,1.9-2.6,3.3-.5,1.3-.7,2.7-.4,4.1.2,1.4.9,2.7,1.8,3.7,1,1,2.2,1.8,3.6,2.2,1.4.4,2.8.3,4.2,0,1.4-.4,2.6-1.2,3.5-2.3.9-1.1,1.5-2.4,1.7-3.8-.3.2-.5.4-.8.6Z"/>
  <path class="st15" d="M84,90.4c-.9-1.6-2.3-2.7-4.1-3.3-1.7-.6-3.6-.5-5.2.2.3.1.6.3.9.4,1.7,1,2.9,2.6,3.5,4.5.5,1.9.2,3.9-.7,5.6-.1.2-.2.4-.4.5-.4.5-1,1-1.6,1.2-.6.3-1.3.4-2,.3-.7,0-1.3-.3-1.9-.7-.6-.4-1-.9-1.4-1.5,0,0,0,0,0,0,1,1.7,2.6,3,4.5,3.5,1.9.5,3.9.2,5.7-.8,1.7-1,3-2.6,3.5-4.5.5-1.9.2-3.9-.8-5.7Z"/>
  <g class="st3">
    <path d="M139.6,263.8c.6-.5,1.2-1.3,1.3-2,0-6.9,0-13.8,0-20.5-5.3-.8-9.8-1.2-14.2-2.2-12.5-3-23.5-9.1-32.4-18.4-8-8.4-11.9-18.3-12.2-30-.3-14.1,2.6-27.2,10.1-39.2,5.5-8.7,12.7-15.3,22.5-18.8,1.8-.7,3.6-1.6,5.2-2.7,10.1-7.4,21.5-11.4,33.8-13.2,1.4-.2,2.9,0,4.3,0,0,.4.1.7.2,1.1-10.7,2.5-21.8,4.2-31.3,10,11.4-1.5,22.8-3.2,34-6.4,4.1-1.2,8.6-1,12.9-1.5,0,.3.1.7.2,1-7.3,1.6-14.5,3.2-21.8,4.9,36.5,9.4,50.6,41.2,47.3,65.5-3.6,26.8-24.2,45-56.3,49.6.3,6.7.6,13.5,1,20.3,0,.5.6,1.1,1,1.6M128.7,132.1c-1.1.4-1.4.6-1.8.7-1.1.2-2.2.4-3.3.5-9.2.6-17,4.3-23.1,11-11.6,12.8-15.9,28.1-15.5,45.1.3,10.9,3.9,20.5,11.6,28.3,15.3,15.5,33.8,22.4,55.4,19.2,29.5-4.5,49.2-31,43.8-61.2-3.8-21.5-17.4-35.4-37.2-43.4-10.7-4.4-21.9-4-33.7-1.4,1.4.5,2.2.8,3.8,1.3ZM140.9,266"/>
    <path d="M179.7,196.2c-.9.8-1.7,1.8-2.7,2.3-11.3,5.4-23,9.1-35.6,9.4-10.2.2-20.3.3-30.2-2.4-2.1-.6-4.1-1.5-6.2-2.3.1-.5.2-.9.3-1.4,1.3.2,2.7.1,3.9.5,15.2,4.3,30.5,4.5,45.9,1.6,7.4-1.4,14.6-3.6,21.1-7.7.8-.5,2-.5,3-.8.2.3.3.5.5.8Z"/>
    <path d="M124.1,168.8c.3-2.7.5-5.3,1.6-7.7,1.2-2.7,3.1-2.9,5.4-1.2,5.1,3.8,5.2,13,0,16.9-2,1.5-4.3,1.4-5.5-.8-1.1-2.2-1.3-4-1.6-7.2Z"/>
    <path d="M144.8,168.6c0-3.1,0-6.2,2.4-8.7,1.8-1.9,3.3-2,5.3-.1,4.1,3.9,3.3,13.9-1.5,17.1-2.4,1.6-4.6.8-5.4-1.9-.2-.6-.3-1.3-.3-1.9-.2-1.5-.3-3-.4-4.4Z"/>
    <path d="M163.2,159.1c-4.1-2.9-7.9-5.5-11.7-8.2,2.9-2.6,9.2,1.7,11.7,8.2Z"/>
    <path d="M131.1,151c-4.3,3-8.8,6.2-13.2,9.3-1.1-2.9,6.8-8.7,13.2-9.3Z"/>
  </g>
</svg>