<svg xmlns="http://www.w3.org/2000/svg" width="54" height="71" fill="none" viewBox="0 0 54 71"><path fill="#fff" d="M52.6676 59.1589C52.417 58.8304 52.0623 58.5086 51.6054 58.1929C51.5363 58.1414 51.348 58.0163 51.0408 57.8201C50.7326 57.6226 50.4868 57.4519 50.3031 57.3069C50.1206 57.1622 49.8806 56.9128 49.5831 56.5578C49.2864 56.2035 49.0523 55.8283 48.8804 55.434C48.7091 55.0403 48.5434 54.5083 48.3832 53.8377C48.2229 53.1671 48.1325 52.4248 48.109 51.6099C47.7889 51.9242 47.6122 52.5485 47.5777 53.4823C47.5432 54.4152 47.7151 55.3673 48.0922 56.3399C48.469 57.3129 49.0349 57.9427 49.7889 58.2326C50.52 58.5223 51.1084 58.8302 51.5547 59.1587C51.9997 59.4877 52.2861 59.8615 52.4119 60.2821C52.5377 60.7037 52.3256 61.1568 51.7774 61.6426C51.2284 62.1293 50.3487 62.6085 49.1376 63.0831C47.4693 63.7395 46.2863 64.2986 45.5888 64.7579C44.8919 65.2181 43.8697 66.0924 42.5208 67.3797C41.6062 68.2471 40.6351 68.7141 39.6062 68.7799C38.5784 68.846 37.7435 68.4123 37.1041 67.4793C36.4639 66.5466 36.2576 65.2263 36.4864 63.5169C36.9208 60.2317 36.9101 57.6689 36.4532 55.8292C36.0874 54.3836 36.0068 53.1086 36.2132 52.0047C36.4187 50.9019 36.7384 50.2583 37.1732 50.0739C37.6062 49.8892 38.0755 50.2838 38.5784 51.2558C38.6232 51.3872 38.7267 51.6435 38.8862 52.0247C39.046 52.4056 39.1771 52.676 39.281 52.8328C39.3838 52.9907 39.538 53.1944 39.7438 53.4444C39.9492 53.6948 40.2078 53.8715 40.5155 53.9773C40.8238 54.0823 41.1834 54.1479 41.5955 54.174C42.3726 54.1999 43.069 54.0161 43.6867 53.622C44.3035 53.2279 44.767 52.7875 45.0751 52.3013C45.3833 51.8146 45.6924 51.3486 46.0006 50.9015C46.3087 50.454 46.5776 50.2044 46.8064 50.1515C47.0575 50.1 47.2864 49.8107 47.4922 49.2843C47.6978 48.7589 47.8349 48.0296 47.9036 47.0968C47.9726 46.1635 47.9151 45.053 47.7326 43.7657C47.3895 41.4781 46.7091 38.9683 45.6924 36.235C44.6749 33.5012 43.5386 31.3591 42.2813 29.8083C40.0188 27.0488 38.4995 24.184 37.7217 21.2137C36.9224 18.0862 36.5801 15.2737 36.6939 12.7766C36.8085 10.9892 36.4712 9.0507 35.683 6.96099C34.8949 4.87155 33.8487 3.27481 32.5459 2.17092C31.7233 1.46155 30.7059 0.916233 29.4952 0.534828C28.2839 0.153424 27.0722 -0.0234695 25.8608 0.00249139C24.3756 0.00249139 23.1867 0.278257 22.2957 0.830479C20.4673 1.96088 19.2563 3.33405 18.6617 4.95053C18.067 6.56674 17.7932 8.55772 17.8386 10.9233C17.9305 16.1275 18.1129 20.2015 18.3874 23.145C18.0671 24.5119 16.6505 27.0742 14.1361 30.8327C13.6788 31.3587 13.233 32.0682 12.7987 32.9618C12.3646 33.8557 12.0217 34.6576 11.7704 35.3667C11.5187 36.076 11.1817 37.1011 10.7589 38.4418C10.3359 39.7819 10.0334 40.7286 9.85043 41.2801C9.69048 41.754 9.43892 42.305 9.09634 42.9369C8.75339 43.5671 8.47853 44.1854 8.27332 44.7888C8.06811 45.3932 7.95355 46.0765 7.93074 46.8389C7.90792 47.4172 7.93074 47.9168 7.99942 48.3369C8.09056 48.9687 8.26239 49.1653 8.51348 48.929C9.54243 48.0353 10.8337 48.5609 12.3877 50.5064C13.4847 51.8731 15.4162 55.0536 18.1816 60.0476C18.4101 60.4942 18.6385 60.9738 18.867 61.4876C19.0961 61.9994 19.3126 62.6821 19.5185 63.5366C19.7242 64.3919 19.8101 65.16 19.7756 65.8437C19.741 66.5275 19.4785 67.1584 18.9871 67.7358C18.4956 68.3138 17.7584 68.6816 16.7758 68.8393C16.2499 68.9181 15.6162 68.8662 14.8731 68.6814C14.1303 68.4975 13.1874 68.1955 12.0449 67.775C10.9021 67.3549 10.0566 67.0652 9.50796 66.9074C8.70848 66.6967 7.57146 66.4286 6.09702 66.0993C4.6227 65.7703 3.65679 65.5275 3.19977 65.3696C2.42275 65.1333 2.00007 64.7921 1.93163 64.3447C1.86294 63.9766 2.02288 63.3462 2.41158 62.453C2.80051 61.5593 2.99444 60.9147 2.99444 60.5211C3.01701 60.2314 3.00573 59.9432 2.95986 59.6537C2.91447 59.3644 2.86307 59.1408 2.8058 58.9831C2.74864 58.8257 2.65149 58.589 2.51424 58.2732C2.377 57.958 2.28574 57.7208 2.23999 57.5639C1.82884 56.4595 1.77156 55.7095 2.06863 55.316C2.27409 54.9742 2.76557 54.8429 3.5426 54.9221C4.7082 55.0536 5.65657 54.856 6.38809 54.3301C7.59908 53.4629 7.9652 52.0699 7.485 50.1507C7.485 51.0443 7.34776 51.7139 7.0735 52.1614C6.79924 52.608 6.31905 53.0683 5.63364 53.5418C5.24531 53.8046 4.5593 53.962 3.57682 54.0154C2.59422 54.0679 1.94255 54.2521 1.62266 54.5674C1.39427 54.8041 1.27444 55.159 1.26291 55.6321C1.25162 56.1061 1.30338 56.5847 1.41745 57.0715C1.53152 57.5577 1.64596 58.1157 1.76003 58.7468C1.87447 59.378 1.91986 59.9041 1.89728 60.3242C1.87447 60.613 1.66817 61.3298 1.27984 62.4721C0.891507 63.6157 0.811535 64.4898 1.04004 65.0938C1.15448 65.3836 1.3484 65.6401 1.62278 65.8631C1.89692 66.0866 2.27973 66.2771 2.77109 66.4355C3.26209 66.5934 3.71371 66.7181 4.12534 66.8098C4.53648 66.9009 5.10782 67.0199 5.83909 67.1637C6.57049 67.3077 7.15323 67.4335 7.58755 67.5379C9.05035 67.8801 10.7186 68.4452 12.5929 69.2334C14.467 70.0221 15.7352 70.429 16.3981 70.4551C17.0381 70.481 17.6493 70.3304 18.2323 70.0014C18.815 69.6735 19.312 69.2987 19.7235 68.8781C20.1347 68.4574 20.7461 68.0629 21.5572 67.6953C22.3689 67.3272 23.2773 67.1301 24.2831 67.1037C24.7401 67.0778 25.403 67.0446 26.2714 67.0054C27.1399 66.9657 27.7911 66.9463 28.2254 66.9463C30.1908 66.9463 31.6763 66.959 32.6819 66.9854C33.3676 67.0123 33.9048 67.1367 34.2934 67.3603C34.6818 67.5833 34.9337 67.8399 35.0475 68.1285C35.1617 68.4184 35.3512 68.7528 35.6142 69.1342C35.8764 69.5151 36.2134 69.8241 36.6243 70.0604C37.4924 70.5339 38.51 70.7243 39.6758 70.6322C40.8412 70.5405 41.6187 70.284 42.0069 69.8635C42.6468 69.1541 43.5093 68.3126 44.595 67.3404C45.6807 66.3684 46.6587 65.6321 47.5265 65.1327C47.7091 65.0267 48.0177 64.8562 48.452 64.6194C48.8858 64.3827 49.2512 64.1794 49.5483 64.0079C49.8455 63.8369 50.2059 63.6199 50.6278 63.3572C51.051 63.094 51.3938 62.8511 51.6568 62.6276C51.9196 62.404 52.1876 62.1484 52.4621 61.8587C52.7363 61.5699 52.9134 61.2808 52.9939 60.9916C53.0728 60.7024 53.1024 60.4067 53.0794 60.1045C53.056 59.8029 52.9195 59.4882 52.6676 59.1589ZM34.2926 21.0542C34.3608 21.002 34.4069 20.9821 34.4295 20.9951C34.4525 21.0083 34.4982 21.0611 34.5664 21.1529C34.6354 21.2449 34.6975 21.3306 34.7554 21.4095C34.8122 21.4876 34.8919 21.5933 34.9946 21.7245C35.0972 21.8561 35.2058 21.961 35.3196 22.0399C35.4576 22.1448 35.6228 22.2176 35.8172 22.2568C36.0116 22.296 36.1603 22.3618 36.2636 22.4536C36.3668 22.5454 36.4412 22.6965 36.486 22.9071C36.5311 23.1965 36.4929 23.4587 36.3672 23.6953C36.2406 23.9321 36.0754 24.0375 35.8692 24.011C35.4578 23.9057 35.012 23.492 34.5324 22.7691C34.053 22.0464 33.9726 21.4748 34.2926 21.0542ZM30.0412 5.7382C30.1551 5.56738 30.2237 5.42943 30.2463 5.32448C30.292 5.16623 30.2977 5.00218 30.2636 4.83136C30.2295 4.66054 30.2407 4.48973 30.2977 4.31891C30.3552 4.14809 30.4867 4.0495 30.6925 4.02326C30.8981 4.02326 31.1725 4.22059 31.5153 4.6147C31.5835 4.66745 31.6921 4.7463 31.8399 4.85125C31.9887 4.95647 32.0914 5.0483 32.1485 5.12701C32.2056 5.20545 32.234 5.27187 32.234 5.32407C32.1884 5.45525 32.0857 5.54805 31.9262 5.60025C31.7669 5.65244 31.5946 5.67923 31.4122 5.67923C31.2298 5.67923 31.1261 5.69221 31.1037 5.71845C30.9208 5.79744 30.7495 5.91551 30.5891 6.07307C30.4293 6.2309 30.3036 6.34911 30.2123 6.42796C30.1202 6.50667 30.0291 6.50667 29.9378 6.42796C29.8466 6.27012 29.8121 6.15841 29.8352 6.09295C29.8583 6.0275 29.927 5.90902 30.0412 5.7382ZM13.4486 35.2482C13.608 35.0381 13.7227 34.8673 13.7912 34.7357C13.8597 34.6041 13.9224 34.4267 13.9797 34.2035C14.0368 33.9798 14.0882 33.8153 14.134 33.7104C14.18 33.6048 14.2487 33.5655 14.3399 33.5918C14.3853 33.5788 14.4194 33.6048 14.4431 33.6706C14.4656 33.7364 14.4772 33.7694 14.4772 33.7694V33.8877C14.4772 33.9275 14.4713 33.9797 14.4599 34.0455C14.4483 34.1118 14.4311 34.1708 14.4085 34.223C14.3853 34.2759 14.3626 34.3549 14.3399 34.4597C14.3171 34.5646 14.2945 34.6567 14.2712 34.7354C14.18 34.9989 14.0368 35.2349 13.8429 35.4454C13.6485 35.6555 13.5055 35.7476 13.4141 35.7213C13.277 35.6691 13.2887 35.5107 13.4486 35.2482ZM35.8685 59.5733C35.8229 60.414 35.6685 61.5973 35.4055 63.1218C35.1425 64.6457 34.9766 65.6579 34.9078 66.157C34.4278 66.1301 34.1538 65.9264 34.0851 65.5454C34.0169 65.164 34.0851 64.6717 34.2909 64.0669C34.7936 62.3051 35.0557 61.0963 35.0791 60.4398C35.1256 59.2305 35.0109 58.5471 34.7371 58.3897C34.4847 58.1795 34.0965 58.5741 33.5709 59.572C32.5646 61.4647 30.5423 62.6073 27.5028 63.0025C24.7607 63.4231 22.8637 62.95 21.812 61.5825C21.5835 61.3986 21.355 61.366 21.1266 61.4846C20.8981 61.6018 20.7496 61.7275 20.681 61.8578C20.6584 61.9109 20.681 61.9893 20.7497 62.0947C20.8183 62.2002 20.9268 62.3573 21.0753 62.5678C21.2239 62.7789 21.3438 62.9884 21.4351 63.1995C22.3268 64.9863 22.2469 66.1951 21.1953 66.826C21.1953 65.6178 21.1153 64.691 20.9555 64.0474C20.7954 63.4033 20.4758 62.694 19.9956 61.9181C19.5159 61.143 19.1845 60.5579 19.0018 60.1639C19.6872 60.0855 20.2073 59.7829 20.5616 59.2571C20.9159 58.7315 21.0757 58.1664 21.0416 57.562C21.0073 56.9572 20.8075 56.4576 20.4417 56.0634C20.236 55.8272 19.1729 54.8216 17.2533 53.0474C15.3337 51.2734 14.145 50.084 13.6881 49.4796C13.5963 49.3742 13.3224 49.1114 12.8651 48.6908C12.4077 48.2703 12.1219 47.9026 12.0079 47.5869C10.9563 44.9335 10.8423 42.7509 11.6649 41.0433L11.8019 40.8462C11.916 40.8202 11.9275 41.0564 11.836 41.5561C11.699 42.2923 11.6535 43.0276 11.699 43.7639C11.7903 45.4202 12.2018 46.6551 12.9331 47.4693C13.4133 48.0222 13.7444 47.9826 13.9274 47.3515C14.0647 47.1408 14.1274 46.3657 14.1158 45.0245C14.1049 43.6848 14.1219 42.7779 14.1676 42.3044C14.3506 40.8064 14.8935 38.953 15.7961 36.7462C16.6987 34.5381 17.4133 33.3552 17.9389 33.1977C17.5274 32.4354 17.396 31.6074 17.5447 30.7137C17.693 29.82 17.9334 29.0573 18.2646 28.4269C18.5956 27.7963 18.9331 27.0672 19.2756 26.239C19.6186 25.4111 19.7899 24.6684 19.7899 24.0114C19.7899 23.8277 19.8017 23.6961 19.8245 23.6173C19.8929 23.3807 20.1787 23.6697 20.6815 24.4843C21.6414 26.1142 22.3614 27.0738 22.8415 27.3628C23.3442 27.6778 23.9039 27.6648 24.5211 27.323C25.1381 26.9814 25.8979 26.4162 26.8009 25.628C27.7033 24.8398 28.4747 24.2613 29.1148 23.8937C29.1839 23.8671 29.2921 23.808 29.4412 23.716C29.589 23.6246 29.7033 23.5584 29.7831 23.5187C29.8624 23.4795 29.9656 23.4205 30.0917 23.3415C30.2165 23.2626 30.3136 23.1969 30.3822 23.1442C30.4508 23.0913 30.5195 23.0322 30.5877 22.9664C30.6558 22.9004 30.7014 22.8353 30.725 22.7694C30.7479 22.7037 30.7594 22.6447 30.7594 22.5919C30.7134 22.3553 30.6165 22.2105 30.4676 22.1583C30.319 22.1059 30.1193 22.1385 29.8677 22.2571C29.6163 22.3754 29.336 22.5333 29.0278 22.7302C28.7196 22.9272 28.3769 23.1507 27.9997 23.4005C27.6227 23.6503 27.2398 23.8799 26.8515 24.0905C26.4631 24.3009 26.0515 24.4849 25.6172 24.6427C25.183 24.8001 24.7716 24.8925 24.3831 24.9188C23.4232 24.9451 22.6579 24.6565 22.0865 24.0516C21.7209 23.6569 21.5268 23.4074 21.5037 23.3023C21.4806 23.1975 21.5836 23.1712 21.812 23.2234C23.0467 23.4075 23.9492 23.4335 24.5206 23.3023C25.1148 23.1975 25.9146 22.8949 26.9204 22.3954C27.1263 22.2905 27.6457 22.0339 28.4807 21.6266C29.3144 21.2197 29.9604 20.9371 30.4174 20.7792C30.6923 20.7003 30.8809 20.5756 30.9837 20.4047C31.086 20.2339 31.1206 20.0761 31.086 19.9314C31.052 19.7871 30.9776 19.6755 30.8638 19.5966C30.6117 19.4388 30.3833 19.5442 30.1784 19.912C30.0637 20.1486 29.8233 20.3789 29.4579 20.6021C29.0926 20.8258 28.7549 20.9963 28.4466 21.1145C28.1381 21.2326 27.7439 21.3707 27.2637 21.5282C26.7835 21.6861 26.5211 21.778 26.4751 21.8043C25.2183 22.2509 24.0527 22.4482 22.9783 22.3954C22.4755 22.3695 22.07 22.2837 21.7616 22.1391C21.453 21.995 21.2413 21.8242 21.1273 21.6267C21.0129 21.4299 20.8303 21.1801 20.5788 20.8777C20.3271 20.5753 20.0414 20.3191 19.7216 20.1085C19.4931 19.9773 19.4072 19.7408 19.4645 19.3992C19.5217 19.0575 19.6988 18.7024 19.9958 18.3345C20.0187 18.308 20.253 18.1441 20.6985 17.8416C21.1441 17.5392 21.4585 17.2303 21.6416 16.9149C21.8468 16.5471 22.2013 16.1657 22.7041 15.7713C22.7269 15.6663 22.7442 15.3773 22.7555 14.9042C22.7668 14.4314 22.6583 13.9188 22.4298 13.3668C22.2013 12.8146 21.8925 12.539 21.504 12.539C20.9554 12.5128 20.5669 12.6966 20.3384 13.0909C20.1099 13.4848 20.0074 13.9713 20.0301 14.5494C20.0532 15.0486 20.1618 15.4886 20.3557 15.87C20.5501 16.2514 20.7274 16.4421 20.8873 16.4421C21.1385 16.4155 21.2185 16.5203 21.1271 16.7571C20.9901 17.0465 20.807 17.2309 20.5786 17.3093C20.4182 17.3615 20.2409 17.1843 20.047 16.777C19.8526 16.3696 19.7042 15.877 19.6014 15.2986C19.4987 14.7204 19.4584 14.2342 19.4815 13.8395C19.5269 13.0248 19.7153 12.2428 20.047 11.4937C20.3787 10.7447 20.8528 10.3831 21.4697 10.4091C22.1097 10.4357 22.6244 10.8829 23.0127 11.7499C23.4016 12.6172 23.5843 13.8004 23.5614 15.2984C23.6301 15.4825 23.8071 15.5483 24.093 15.4955C24.3782 15.4427 24.7556 15.436 25.2241 15.4756C25.6922 15.5148 26.0293 15.6526 26.2351 15.8893C26.2583 15.8893 26.2697 15.6919 26.2697 15.2979C25.8582 11.9866 26.8751 10.2256 29.3209 10.0151C29.6858 10.0941 29.9944 10.1928 30.2455 10.3108C30.4978 10.4288 30.7653 10.6264 31.0513 10.9022C31.3377 11.178 31.5768 11.5787 31.7712 12.1047C31.9656 12.631 32.12 13.288 32.2342 14.0762V15.5347C32.2342 16.3757 32.0851 16.8489 31.788 16.9541C31.3084 17.1379 30.9661 17.1316 30.7606 16.9343C30.5547 16.7368 30.577 16.3889 30.8288 15.8895C31.0572 15.2324 31.0116 14.4696 30.6915 13.6024C30.3718 12.7354 29.7886 12.341 28.9434 12.42C28.3718 12.4463 27.9604 12.8012 27.7089 13.4844C27.4575 14.1678 27.3664 14.8381 27.4349 15.4952C27.5035 16.1523 27.6289 16.4939 27.8122 16.52C27.9491 16.5466 28.3553 16.7567 29.0294 17.1511C29.7045 17.5453 30.2128 17.7817 30.5552 17.8606C31.4465 18.0705 31.9543 18.3991 32.0805 18.8461C32.2062 19.2934 32.1548 19.9437 31.9265 20.7977C31.6976 21.6524 31.6293 22.3548 31.7214 22.9071C31.8126 23.4859 31.9843 24.011 32.2359 24.4841C32.4873 24.9576 32.7552 25.3909 33.0413 25.7854C33.3268 26.1788 33.6634 26.9154 34.0529 27.9928C34.4409 29.0707 34.7951 30.4241 35.1148 32.0537C35.1374 32.08 35.2228 32.1719 35.3717 32.3298C35.5204 32.4873 35.6685 32.6844 35.8176 32.9209C35.9667 33.1576 36.1435 33.4795 36.3493 33.8869C36.5549 34.2945 36.7783 34.8925 37.0183 35.6812C37.2575 36.4694 37.481 37.3768 37.6864 38.4013C37.9379 39.6111 38.0693 41.0161 38.0808 42.6204C38.0925 44.2233 38.1836 45.3207 38.3553 45.9123C38.5272 46.5044 38.9669 46.7473 39.6752 46.642C40.5666 46.5895 41.1386 46.0376 41.3889 44.9861C42.1433 41.9371 41.527 38.2833 39.5381 34.0259C38.7836 32.37 38.1327 31.279 37.5837 30.7536C38.3834 31.2792 39.2066 32.2645 40.0526 33.7105C40.8983 35.1563 41.435 36.5103 41.6635 37.7711C41.6857 37.903 41.749 38.2514 41.8517 38.8159C41.9543 39.3811 42.0118 39.71 42.0226 39.8017C42.0337 39.8938 42.0802 40.1632 42.1595 40.6099C42.24 41.0568 42.2795 41.3461 42.2795 41.4774C42.2795 41.6093 42.2905 41.8654 42.3139 42.2463C42.3374 42.6272 42.3312 42.9229 42.2967 43.1333C42.2622 43.344 42.2285 43.6266 42.194 43.9807C42.1595 44.3355 42.1027 44.6772 42.0226 45.0062C41.9437 45.3345 41.8578 45.6966 41.7662 46.0903C43.0228 46.7211 43.6515 47.2726 43.6515 47.7461C43.1719 47.2992 42.4857 47.0038 41.594 46.8606C40.7021 46.7154 39.8747 46.8534 39.1087 47.274C38.3427 47.6946 37.9483 48.3908 37.9252 49.3628C37.1026 49.3628 36.5195 49.599 36.1771 50.0731C35.6745 50.756 35.412 51.6821 35.389 52.8523C35.3661 54.0214 35.4511 55.2968 35.6454 56.6757C35.8407 58.0555 35.9146 59.0209 35.8685 59.5733ZM21.5046 13.8787C21.4359 13.8528 21.3789 13.7734 21.3335 13.6422C21.3335 13.4062 21.4361 13.3135 21.6419 13.3664C21.7791 13.4186 21.9108 13.616 22.0362 13.9576C22.1619 14.2992 22.1905 14.6936 22.1221 15.1405C22.1221 15.2193 22.088 15.2591 22.0189 15.2584C21.7672 15.2584 21.676 14.9958 21.7447 14.4702C21.813 14.0759 21.733 13.8787 21.5046 13.8787ZM30.3839 14.51L30.3157 14.628C30.1332 14.7592 30.0426 14.7856 30.0426 14.707C29.9505 13.9969 29.7449 13.5896 29.4252 13.4844L29.288 13.4056C29.1277 13.2478 29.2074 13.1558 29.5271 13.1296C29.5956 13.1032 29.6984 13.1424 29.8357 13.2477C29.9729 13.353 30.0986 13.5174 30.2129 13.7408C30.3268 13.9645 30.3839 14.2204 30.3839 14.51Z"/><path fill="#fff" d="M22.3955 16.7959C22.3955 16.9537 22.453 17.0195 22.5673 16.9934C22.6586 16.9934 22.7553 16.8684 22.8584 16.6187C22.9613 16.3696 23.1387 16.2317 23.3898 16.205V16.2046H23.0468C22.6127 16.2834 22.3955 16.4805 22.3955 16.7959Z"/><path fill="#fff" d="M25.3789 16.3232C25.6074 16.2442 25.8077 16.3039 25.9791 16.5009C26.1502 16.6977 26.2819 16.7835 26.3734 16.7568C26.51 16.6784 26.5445 16.5598 26.4759 16.4022C26.2932 16.0604 25.9277 16.0342 25.3789 16.3232Z"/></svg>