<svg width="369" height="279" viewBox="0 0 369 279" fill="none" xmlns="http://www.w3.org/2000/svg">
<path fill-rule="evenodd" clip-rule="evenodd" d="M292.663 233H296.414C296.772 233 297.077 233.292 297.077 233.663V237.414C297.077 237.772 296.786 238.077 296.414 238.077H292.663C292.305 238.077 292 237.786 292 237.414V233.663C292.013 233.305 292.305 233 292.663 233Z" fill="#BCD918"/>
<path fill-rule="evenodd" clip-rule="evenodd" d="M302.817 233H337.02C337.378 233 337.682 233.292 337.682 233.663V237.414C337.682 237.772 337.391 238.077 337.02 238.077H302.817C302.459 238.077 302.155 237.786 302.155 237.414V233.663C302.155 233.305 302.446 233 302.817 233Z" fill="#04BDD9"/>
<path fill-rule="evenodd" clip-rule="evenodd" d="M337.02 243.155H333.268C332.91 243.155 332.605 243.446 332.605 243.817V247.569C332.605 247.94 332.897 248.232 333.268 248.232H337.02C337.378 248.232 337.683 247.94 337.683 247.569V243.817C337.683 243.446 337.378 243.155 337.02 243.155Z" fill="#BCD918"/>
<path fill-rule="evenodd" clip-rule="evenodd" d="M316.724 243.155H292.663C292.305 243.155 292 243.459 292 243.817V247.569C292 247.927 292.292 248.232 292.663 248.232H316.724C317.082 248.232 317.387 247.94 317.387 247.569V243.817C317.387 243.446 317.095 243.155 316.724 243.155Z" fill="#04BDD9"/>
<path fill-rule="evenodd" clip-rule="evenodd" d="M326.878 243.155H323.127C322.769 243.155 322.464 243.446 322.464 243.817V247.569C322.464 247.94 322.756 248.232 323.127 248.232H326.878C327.236 248.232 327.541 247.94 327.541 247.569V243.817C327.528 243.446 327.236 243.155 326.878 243.155Z" fill="#BCD918"/>
<path fill-rule="evenodd" clip-rule="evenodd" d="M326.878 253.296H302.817C302.459 253.296 302.155 253.588 302.155 253.959V257.71C302.155 258.068 302.446 258.373 302.817 258.373H326.878C327.236 258.373 327.541 258.082 327.541 257.71V253.959C327.528 253.588 327.236 253.296 326.878 253.296Z" fill="#04BDD9"/>
<path fill-rule="evenodd" clip-rule="evenodd" d="M337.02 253.296H333.268C332.91 253.296 332.605 253.588 332.605 253.959V257.71C332.605 258.082 332.897 258.373 333.268 258.373H337.02C337.378 258.373 337.683 258.082 337.683 257.71V253.959C337.683 253.588 337.378 253.296 337.02 253.296ZM296.414 253.296H292.663C292.305 253.296 292 253.588 292 253.959V257.71C292 258.082 292.292 258.373 292.663 258.373H296.414C296.772 258.373 297.077 258.082 297.077 257.71V253.959C297.077 253.588 296.786 253.296 296.414 253.296ZM292.663 263.437H296.414C296.772 263.437 297.077 263.729 297.077 264.1V267.852C297.077 268.21 296.786 268.515 296.414 268.515H292.663C292.305 268.515 292 268.223 292 267.852V264.1C292.013 263.742 292.305 263.437 292.663 263.437Z" fill="#BCD918"/>
<path fill-rule="evenodd" clip-rule="evenodd" d="M312.959 263.437H337.02C337.378 263.437 337.682 263.729 337.682 264.1V267.852C337.682 268.21 337.391 268.515 337.02 268.515H312.959C312.601 268.515 312.296 268.223 312.296 267.852V264.1C312.296 263.742 312.588 263.437 312.959 263.437Z" fill="#04BDD9"/>
<path fill-rule="evenodd" clip-rule="evenodd" d="M302.817 263.437H306.569C306.927 263.437 307.232 263.729 307.232 264.1V267.852C307.232 268.21 306.94 268.515 306.569 268.515H302.817C302.459 268.515 302.155 268.223 302.155 267.852V264.1C302.155 263.742 302.446 263.437 302.817 263.437ZM337.02 273.605H333.268C332.91 273.605 332.605 273.897 332.605 274.268V278.02C332.605 278.391 332.897 278.682 333.268 278.682H337.02C337.378 278.682 337.682 278.391 337.682 278.02V274.268C337.682 273.897 337.378 273.605 337.02 273.605Z" fill="#BCD918"/>
<path fill-rule="evenodd" clip-rule="evenodd" d="M326.878 273.605H292.676C292.318 273.605 292.013 273.897 292.013 274.268V278.02C292.013 278.378 292.305 278.683 292.676 278.683H326.878C327.236 278.683 327.541 278.391 327.541 278.02V274.268C327.528 273.897 327.236 273.605 326.878 273.605Z" fill="#04BDD9"/>
<path d="M193.106 107.085V139.604L221.303 123.289L193.106 107.085Z" fill="#00D3A9"/>
<path d="M193.106 146.4V179.081L221.566 162.816L193.106 146.4Z" fill="#00D3A9"/>
<path d="M189.05 139.382V107.357L161.206 123.319L189.05 139.382Z" fill="#00B39F"/>
<path d="M133.189 178.96C138.652 187.743 146.037 195.172 154.789 200.689V166.466L133.189 178.96Z" fill="#00B39F"/>
<path d="M189.05 178.919V146.642L161.135 162.796L189.05 178.919Z" fill="#00B39F"/>
<path d="M158.855 198.652L187.123 182.499L158.855 166.164V198.652Z" fill="#00D3A9"/>
<path d="M223.493 198.824V166.385L195.265 182.519L223.493 198.824Z" fill="#00B39F"/>
<path d="M251.125 175.198C255.951 166.196 258.679 156.221 259.105 146.017L229.717 162.836L251.125 175.198Z" fill="#00B39F"/>
<path d="M227.558 159.388L255.927 143.174L227.558 126.879V159.388Z" fill="#00D3A9"/>
<path d="M223.493 119.871V87.6245L195.396 103.728L223.493 119.871Z" fill="#00B39F"/>
<path d="M223.492 159.247V126.708L195.335 143.002L223.492 159.247Z" fill="#00B39F"/>
<path d="M158.855 126.647V159.428L187.224 143.012L158.855 126.647Z" fill="#00D3A9"/>
<path d="M189.05 75C178.607 75.2938 168.373 77.9959 159.147 82.8953L189.05 100.037V75Z" fill="#00B39F"/>
<path d="M158.855 87.4026V119.992L187.244 103.717L158.855 87.4026Z" fill="#00D3A9"/>
<path d="M154.789 85.4263C146.04 90.9459 138.655 98.3751 133.189 107.156L154.789 119.619V85.4263Z" fill="#00B39F"/>
<path d="M223.311 83.0667C214.008 78.0635 203.665 75.3012 193.106 75V100.36L223.311 83.0667Z" fill="#00D3A9"/>
<path d="M123 145.453C123.353 155.95 126.14 166.223 131.142 175.461L153.024 162.796L123 145.453Z" fill="#00D3A9"/>
<path d="M131.141 110.665C126.155 119.862 123.369 130.088 123 140.542L153.054 123.309L131.141 110.665Z" fill="#00D3A9"/>
<path d="M159.097 203.19C168.333 208.113 178.586 210.83 189.05 211.126V186.068L159.097 203.19Z" fill="#00B39F"/>
<path d="M249.027 107.267C243.595 98.5115 236.257 91.0941 227.558 85.5674V119.669L249.027 107.267Z" fill="#00D3A9"/>
<path d="M227.558 200.578C236.302 195.012 243.669 187.538 249.108 178.718L227.558 166.275V200.578Z" fill="#00D3A9"/>
<path d="M259.196 140.35C258.81 129.998 256.048 119.872 251.125 110.756L229.425 123.279L259.196 140.35Z" fill="#00B39F"/>
<path d="M193.106 211.125C203.546 210.833 213.777 208.131 222.998 203.23L193.106 185.917V211.125Z" fill="#00D3A9"/>
<path d="M154.789 159.136V126.99L126.864 142.992L154.789 159.136Z" fill="#00B39F"/>
<circle cx="191" cy="143" r="78.5" stroke="#00D3A9" stroke-width="3"/>
<path fill-rule="evenodd" clip-rule="evenodd" d="M39.9645 245.298V223.428L21.022 212.489V234.359L39.9645 245.298ZM39.9645 221.038L21.022 210.098V188.22L39.9645 199.159V221.038Z" fill="#5C4EE5"/>
<path fill-rule="evenodd" clip-rule="evenodd" d="M61 210.089V188.21L42.0486 199.15V221.029L61 210.089Z" fill="#4040B2"/>
<path fill-rule="evenodd" clip-rule="evenodd" d="M18.9425 208.818V186.939L0 176V197.879L18.9425 208.818Z" fill="#5C4EE5"/>
<path d="M69.8178 13.281H62.2969V20.1211H69.8178V13.281Z" fill="#099CEC"/>
<path d="M69.8178 21.4827H62.2969V28.2436H69.8178V21.4827Z" fill="#099CEC"/>
<path d="M60.9358 13.281H53.4148V20.1211H60.9358V13.281Z" fill="#099CEC"/>
<path d="M78.7131 21.4827H71.1921V28.2436H78.7131V21.4827Z" fill="#099CEC"/>
<path d="M69.8178 5H62.2969V11.9034H69.8178V5Z" fill="#099CEC"/>
<path d="M52.0371 13.281H44.5161V20.1211H52.0371V13.281Z" fill="#099CEC"/>
<path d="M60.9358 21.4827H53.4148V28.2436H60.9358V21.4827Z" fill="#099CEC"/>
<path d="M101.31 24.6496C99.6632 23.5413 95.8948 23.1454 92.9973 23.6996C92.6173 20.9762 91.0973 18.5853 88.3264 16.4478L86.7272 15.387L85.6664 16.9862C83.5763 20.1529 83.0063 25.3621 85.2388 28.798C84.2413 29.3364 82.3096 30.0647 79.7288 30.0172H30.2804C29.2829 35.7965 30.9455 43.3016 35.2839 48.4633C39.4956 53.4509 45.829 56.0001 54.11 56.0001C72.0178 56.0001 85.2863 47.7508 91.4773 32.7564C93.9156 32.8039 99.1724 32.7722 101.864 27.6105C102.038 27.3255 102.608 26.1063 102.83 25.663L101.31 24.6496Z" fill="#099CEC"/>
<path d="M43.1691 21.4827H43.1533H35.6482V28.2436H43.1691V21.4827Z" fill="#099CEC"/>
<path d="M52.0371 21.4827H44.5161V28.2436H52.0371V21.4827Z" fill="#099CEC"/>
<path fill-rule="evenodd" clip-rule="evenodd" d="M271.798 36.1333C262.335 31.6028 258.337 20.2583 262.866 10.7947C265.042 6.25005 268.933 2.75582 273.685 1.08069C278.436 -0.594452 283.658 -0.313273 288.202 1.86233C297.665 6.39281 301.663 17.7373 297.133 27.201C292.604 36.6646 281.26 40.6638 271.798 36.1333V36.1333Z" fill="#326CE5"/>
<path d="M279.82 7.34874C279.607 7.35949 279.398 7.41237 279.206 7.50429L270.818 11.512C270.601 11.6157 270.41 11.7666 270.26 11.9534C270.109 12.1402 270.004 12.3582 269.95 12.5912L267.881 21.5936C267.833 21.801 267.827 22.0158 267.865 22.2253C267.902 22.4348 267.982 22.6348 268.098 22.8133C268.127 22.857 268.157 22.8992 268.19 22.9399L273.995 30.1583C274.146 30.3451 274.336 30.4959 274.553 30.5996C274.77 30.7032 275.008 30.757 275.249 30.7569L284.56 30.7548C284.8 30.755 285.038 30.7013 285.255 30.5979C285.472 30.4945 285.663 30.3439 285.814 30.1573L291.617 22.9377C291.767 22.7509 291.873 22.5328 291.927 22.2997C291.981 22.0666 291.981 21.8246 291.927 21.5915L289.855 12.5891C289.801 12.3561 289.695 12.1381 289.545 11.9512C289.395 11.7644 289.204 11.6136 288.987 11.5099L280.598 7.50429C280.356 7.38866 280.088 7.33518 279.82 7.34874V7.34874Z" fill="white"/>
<path d="M279.904 10.4124C279.626 10.4124 279.402 10.6621 279.402 10.9702C279.402 10.9749 279.403 10.9794 279.403 10.9841C279.402 11.026 279.4 11.0764 279.402 11.1129C279.408 11.2905 279.447 11.4265 279.47 11.5902C279.512 11.9406 279.548 12.231 279.526 12.501C279.505 12.6028 279.43 12.6959 279.363 12.7606L279.351 12.973C279.05 12.9979 278.747 13.0436 278.444 13.1124C277.14 13.4084 276.018 14.0799 275.163 14.9865C275.108 14.9487 275.011 14.8791 274.982 14.8578C274.892 14.8699 274.802 14.8975 274.684 14.8288C274.459 14.6776 274.254 14.4688 274.007 14.2174C273.893 14.0971 273.811 13.9825 273.676 13.8666C273.646 13.8402 273.599 13.8046 273.565 13.7775C273.459 13.6935 273.335 13.6497 273.215 13.6456C273.061 13.6403 272.912 13.7006 272.815 13.8226C272.642 14.0394 272.697 14.3707 272.938 14.5628C272.941 14.5647 272.943 14.5662 272.946 14.5681C272.979 14.595 273.019 14.6293 273.05 14.6518C273.193 14.7574 273.324 14.8115 273.466 14.8953C273.766 15.0808 274.015 15.2345 274.213 15.4199C274.29 15.5021 274.303 15.6469 274.314 15.7095L274.474 15.8533C273.613 17.1496 273.214 18.7508 273.45 20.3824L273.24 20.4435C273.184 20.5151 273.106 20.6277 273.024 20.6613C272.766 20.7426 272.475 20.7725 272.124 20.8093C271.959 20.823 271.817 20.8148 271.642 20.8479C271.604 20.8552 271.55 20.8692 271.508 20.879C271.507 20.8794 271.506 20.8798 271.504 20.8801C271.502 20.8806 271.499 20.8818 271.497 20.8823C271.201 20.9538 271.011 21.2257 271.072 21.4937C271.133 21.7618 271.422 21.9248 271.72 21.8606C271.722 21.8601 271.725 21.86 271.727 21.8595C271.731 21.8588 271.734 21.8571 271.737 21.8563C271.778 21.8472 271.83 21.8371 271.867 21.8273C272.038 21.7814 272.163 21.7138 272.317 21.6546C272.649 21.5355 272.925 21.436 273.193 21.3972C273.305 21.3884 273.422 21.4663 273.481 21.4991L273.7 21.4615C274.204 23.0229 275.259 24.2848 276.595 25.0767L276.504 25.2955C276.537 25.3805 276.573 25.4954 276.549 25.5794C276.451 25.8321 276.284 26.0988 276.094 26.3961C276.002 26.5335 275.908 26.6401 275.825 26.7973C275.805 26.835 275.78 26.8927 275.761 26.9325C275.632 27.2086 275.726 27.5265 275.974 27.6459C276.224 27.7659 276.533 27.6393 276.667 27.3627C276.667 27.3623 276.668 27.362 276.668 27.3616C276.668 27.3613 276.668 27.3608 276.668 27.3605C276.687 27.3213 276.714 27.2697 276.73 27.2329C276.802 27.0699 276.825 26.9303 276.875 26.7727C277.008 26.439 277.081 26.0889 277.264 25.8707C277.314 25.811 277.396 25.788 277.48 25.7654L277.594 25.5594C278.759 26.0066 280.063 26.1266 281.366 25.8308C281.663 25.7633 281.95 25.676 282.227 25.5712C282.259 25.6279 282.318 25.7369 282.334 25.7643C282.42 25.7923 282.514 25.8067 282.591 25.9198C282.728 26.1536 282.821 26.4301 282.935 26.7641C282.985 26.9217 283.01 27.0613 283.081 27.2243C283.097 27.2614 283.124 27.3137 283.143 27.353C283.277 27.6305 283.588 27.7576 283.837 27.6373C284.085 27.5179 284.18 27.2 284.051 26.9239C284.032 26.8842 284.005 26.8264 283.985 26.7888C283.902 26.6315 283.808 26.526 283.716 26.3886C283.526 26.0913 283.368 25.8443 283.271 25.5916C283.23 25.4613 283.278 25.3802 283.31 25.2955C283.291 25.2737 283.25 25.1506 283.226 25.0928C284.615 24.2727 285.639 22.9637 286.12 21.4519C286.185 21.4621 286.298 21.4821 286.335 21.4894C286.41 21.4396 286.48 21.3747 286.616 21.3854C286.884 21.4241 287.159 21.5237 287.491 21.6428C287.645 21.702 287.77 21.7706 287.942 21.8166C287.978 21.8263 288.03 21.8354 288.071 21.8445C288.075 21.8453 288.078 21.847 288.081 21.8477C288.083 21.8482 288.086 21.8483 288.089 21.8488C288.386 21.9129 288.675 21.75 288.737 21.4819C288.798 21.2139 288.608 20.9419 288.312 20.8705C288.269 20.8607 288.208 20.8441 288.166 20.8361C287.991 20.8031 287.849 20.8112 287.684 20.7975C287.333 20.7607 287.042 20.7308 286.784 20.6495C286.679 20.6086 286.604 20.4833 286.567 20.4317L286.365 20.3727C286.47 19.6122 286.441 18.8207 286.26 18.0288C286.076 17.2295 285.751 16.4984 285.319 15.8543C285.371 15.8071 285.469 15.7201 285.497 15.6945C285.505 15.6044 285.498 15.51 285.591 15.4102C285.789 15.2248 286.038 15.0711 286.338 14.8857C286.48 14.8018 286.612 14.7478 286.755 14.6422C286.788 14.6183 286.832 14.5804 286.866 14.5531C287.106 14.361 287.162 14.0297 286.989 13.8129C286.816 13.5962 286.481 13.5758 286.24 13.7679C286.206 13.795 286.159 13.8304 286.129 13.8569C285.994 13.9729 285.911 14.0874 285.797 14.2077C285.55 14.4592 285.345 14.669 285.12 14.8202C285.023 14.8769 284.88 14.8573 284.816 14.8535L284.625 14.9897C283.536 13.848 282.053 13.118 280.457 12.9762C280.453 12.9093 280.447 12.7884 280.445 12.752C280.38 12.6895 280.301 12.6361 280.281 12.501C280.259 12.231 280.296 11.9406 280.338 11.5902C280.361 11.4265 280.4 11.2905 280.407 11.1129C280.408 11.0725 280.406 11.0138 280.406 10.9702C280.406 10.6621 280.181 10.4123 279.904 10.4124H279.904ZM279.275 14.3064L279.126 16.94L279.115 16.9453C279.105 17.1809 278.911 17.3691 278.673 17.3691C278.576 17.3691 278.486 17.3377 278.412 17.2843L278.408 17.2864L276.249 15.7557C276.912 15.103 277.761 14.6208 278.74 14.3986C278.918 14.3581 279.097 14.328 279.275 14.3064ZM280.533 14.3064C281.675 14.4469 282.732 14.9641 283.541 15.7567L281.396 17.2779L281.388 17.2747C281.198 17.4137 280.93 17.3792 280.781 17.1931C280.72 17.1169 280.688 17.0272 280.685 16.9367L280.682 16.9357L280.533 14.3064ZM275.466 16.7394L277.437 18.5029L277.435 18.5137C277.613 18.6684 277.639 18.9368 277.491 19.123C277.43 19.1992 277.349 19.2504 277.261 19.2742L277.259 19.2828L274.732 20.0123C274.603 18.836 274.881 17.6926 275.466 16.7394ZM284.328 16.7404C284.621 17.2153 284.842 17.7456 284.974 18.3206C285.105 18.8886 285.138 19.4557 285.084 20.0037L282.544 19.2721L282.541 19.2614C282.314 19.1992 282.174 18.9678 282.227 18.7357C282.249 18.6406 282.299 18.5602 282.368 18.5008L282.367 18.4954L284.328 16.7404H284.328ZM279.499 18.6392H280.307L280.809 19.2667L280.629 20.0498L279.904 20.3985L279.176 20.0487L278.996 19.2656L279.499 18.6392ZM282.089 20.7868C282.123 20.7851 282.157 20.7881 282.191 20.7943L282.195 20.7889L284.809 21.2309C284.427 22.3058 283.695 23.237 282.716 23.8602L281.702 21.409L281.705 21.4047C281.612 21.1881 281.705 20.9341 281.919 20.8308C281.974 20.8043 282.032 20.7897 282.089 20.7868H282.089ZM277.698 20.7975C277.898 20.8003 278.077 20.9388 278.123 21.1419C278.145 21.2369 278.134 21.3311 278.098 21.4143L278.106 21.424L277.102 23.8505C276.163 23.2481 275.415 22.3462 275.015 21.2395L277.607 20.7997L277.611 20.805C277.64 20.7997 277.67 20.7971 277.698 20.7975V20.7975ZM279.888 21.8606C279.957 21.858 280.028 21.8723 280.095 21.9046C280.182 21.9469 280.25 22.0135 280.293 22.0934H280.303L281.58 24.4019C281.414 24.4575 281.244 24.505 281.07 24.5446C280.093 24.7664 279.119 24.6992 278.237 24.3987L279.511 22.0945H279.513C279.59 21.9515 279.735 21.8662 279.888 21.8606Z" fill="#326CE5" stroke="#326CE5" stroke-width="0.25"/>
<line x1="117.178" y1="182.467" x2="75.178" y2="198.467" stroke="#00D3A9"/>
<line x1="249.283" y1="210.588" x2="281.283" y2="232.588" stroke="#00D3A9"/>
<circle cx="75" cy="198" r="5" fill="url(#paint0_linear_15459_21866)"/>
<circle cx="278" cy="231" r="5" fill="url(#paint1_linear_15459_21866)"/>
<line x1="129.657" y1="85.3641" x2="97.7855" y2="55.3748" stroke="#00D3A9"/>
<circle cx="100.04" cy="57.3229" r="5" transform="rotate(50.4182 100.04 57.3229)" fill="url(#paint2_linear_15459_21866)"/>
<line x1="237.624" y1="72.6705" x2="262.353" y2="44.412" stroke="#00D3A9"/>
<line x1="276" y1="139.5" x2="322" y2="139.5" stroke="#00D3A9"/>
<circle cx="262.043" cy="45.0428" r="5" transform="rotate(129.899 262.043 45.0428)" fill="url(#paint3_linear_15459_21866)"/>
<circle cx="323.047" cy="139.047" r="5" transform="rotate(139.716 323.047 139.047)" fill="url(#paint4_linear_15459_21866)"/>
<path d="M333 156.25H369L346.5 163L333 156.25Z" fill="#466BB0"/>
<path d="M333 154L346.5 151.75V127L333 154Z" fill="#466BB0"/>
<path d="M348.5 151.75L368.75 154L348.5 109V151.75Z" fill="#466BB0"/>
<defs>
<linearGradient id="paint0_linear_15459_21866" x1="69.6" y1="193" x2="81.1429" y2="200.283" gradientUnits="userSpaceOnUse">
<stop stop-color="#00B39F"/>
<stop offset="0.557429" stop-color="#0FECAC"/>
<stop offset="1" stop-color="#00B39F"/>
</linearGradient>
<linearGradient id="paint1_linear_15459_21866" x1="272.6" y1="226" x2="284.143" y2="233.283" gradientUnits="userSpaceOnUse">
<stop stop-color="#00B39F"/>
<stop offset="0.557429" stop-color="#0FECAC"/>
<stop offset="1" stop-color="#00B39F"/>
</linearGradient>
<linearGradient id="paint2_linear_15459_21866" x1="94.6396" y1="52.3229" x2="106.182" y2="59.6059" gradientUnits="userSpaceOnUse">
<stop stop-color="#00B39F"/>
<stop offset="0.557429" stop-color="#0FECAC"/>
<stop offset="1" stop-color="#00B39F"/>
</linearGradient>
<linearGradient id="paint3_linear_15459_21866" x1="256.643" y1="40.0428" x2="268.186" y2="47.3258" gradientUnits="userSpaceOnUse">
<stop stop-color="#00B39F"/>
<stop offset="0.557429" stop-color="#0FECAC"/>
<stop offset="1" stop-color="#00B39F"/>
</linearGradient>
<linearGradient id="paint4_linear_15459_21866" x1="317.647" y1="134.047" x2="329.19" y2="141.33" gradientUnits="userSpaceOnUse">
<stop stop-color="#00B39F"/>
<stop offset="0.557429" stop-color="#0FECAC"/>
<stop offset="1" stop-color="#00B39F"/>
</linearGradient>
</defs>
</svg>
