<svg width="101" height="117" viewBox="0 0 101 117" fill="none" xmlns="http://www.w3.org/2000/svg">
<path fill-rule="evenodd" clip-rule="evenodd" d="M0 12.8494C0 5.75287 5.7529 0 12.8494 0H87.9065C91.3144 0 94.5827 1.35376 96.9924 3.76349C99.4022 6.17322 100.756 9.4415 100.756 12.8494V104.127C100.756 111.223 95.0031 116.976 87.9065 116.976H12.8494C5.7529 116.976 0 111.223 0 104.127V12.8494Z" fill="#EEEEEE"/>
<path d="M14.5566 35.2834V26.6897H17.166L18.7129 32.5491L20.2598 26.6897H22.8535V35.2834H21.2441V28.5178L19.541 35.2834H17.8691L16.1816 28.5178V35.2834H14.5566ZM28.6621 35.2834V34.3459C28.4434 34.6793 28.1465 34.9449 27.7715 35.1428C27.4069 35.3303 27.0163 35.4241 26.5996 35.4241C26.1829 35.4241 25.8079 35.3355 25.4746 35.1584C25.1413 34.9709 24.9017 34.7105 24.7559 34.3772C24.61 34.0439 24.5371 33.5855 24.5371 33.0022V29.0647H26.1777V31.9241C26.1777 32.7991 26.209 33.3355 26.2715 33.5334C26.334 33.7314 26.4434 33.8876 26.5996 34.0022C26.7663 34.1168 26.9694 34.1741 27.209 34.1741C27.4902 34.1741 27.7402 34.0959 27.959 33.9397C28.1882 33.7834 28.3444 33.5907 28.4277 33.3616C28.5111 33.1324 28.5527 32.5751 28.5527 31.6897V29.0647H30.1934V35.2834H28.6621ZM31.8984 35.2834V26.6897H33.5547V35.2834H31.8984ZM38.0918 29.0647V30.3772H36.9668V32.8772C36.9668 33.3876 36.9772 33.6845 36.998 33.7678C37.0189 33.8512 37.0658 33.9241 37.1387 33.9866C37.222 34.0387 37.3158 34.0647 37.4199 34.0647C37.5762 34.0647 37.7949 34.0074 38.0762 33.8928L38.2168 35.1741C37.8418 35.3407 37.4095 35.4241 36.9199 35.4241C36.6283 35.4241 36.3626 35.3772 36.123 35.2834C35.8835 35.1793 35.7064 35.0491 35.5918 34.8928C35.4876 34.7262 35.4095 34.5126 35.3574 34.2522C35.3262 34.0543 35.3105 33.6637 35.3105 33.0803V30.3772H34.5605V29.0647H35.3105V27.8303L36.9668 26.8616V29.0647H38.0918ZM39.2285 28.2209V26.6897H40.8848V28.2209H39.2285ZM39.2285 35.2834V29.0647H40.8848V35.2834H39.2285ZM42.375 32.9866V31.3459H45.6094V32.9866H42.375ZM52.0742 32.1272L53.7461 32.6584C53.4961 33.5959 53.069 34.2939 52.4648 34.7522C51.8607 35.2001 51.1003 35.4241 50.1836 35.4241C49.0378 35.4241 48.0951 35.0387 47.3555 34.2678C46.6263 33.4866 46.2617 32.4189 46.2617 31.0647C46.2617 29.6376 46.6315 28.5282 47.3711 27.7366C48.1107 26.9449 49.0846 26.5491 50.293 26.5491C51.3451 26.5491 52.1992 26.8564 52.8555 27.4709C53.2409 27.8459 53.5326 28.3772 53.7305 29.0647L52.0117 29.4709C51.9076 29.023 51.694 28.6741 51.3711 28.4241C51.0482 28.1637 50.6576 28.0334 50.1992 28.0334C49.5638 28.0334 49.0482 28.2626 48.6523 28.7209C48.2565 29.1689 48.0586 29.9084 48.0586 30.9397C48.0586 32.023 48.2513 32.7939 48.6367 33.2522C49.0326 33.7105 49.543 33.9397 50.168 33.9397C50.6263 33.9397 51.0221 33.7939 51.3555 33.5022C51.6888 33.2105 51.9284 32.7522 52.0742 32.1272ZM55.2246 35.2834V26.6897H56.8809V35.2834H55.2246ZM62.6523 35.2834V34.3459C62.4336 34.6793 62.1367 34.9449 61.7617 35.1428C61.3971 35.3303 61.0065 35.4241 60.5898 35.4241C60.1732 35.4241 59.7982 35.3355 59.4648 35.1584C59.1315 34.9709 58.8919 34.7105 58.7461 34.3772C58.6003 34.0439 58.5273 33.5855 58.5273 33.0022V29.0647H60.168V31.9241C60.168 32.7991 60.1992 33.3355 60.2617 33.5334C60.3242 33.7314 60.4336 33.8876 60.5898 34.0022C60.7565 34.1168 60.9596 34.1741 61.1992 34.1741C61.4805 34.1741 61.7305 34.0959 61.9492 33.9397C62.1784 33.7834 62.3346 33.5907 62.418 33.3616C62.5013 33.1324 62.543 32.5751 62.543 31.6897V29.0647H64.1836V35.2834H62.6523ZM65.3105 33.5022L66.9668 33.2522C67.0397 33.5751 67.1803 33.8199 67.3887 33.9866C67.6074 34.1532 67.9095 34.2366 68.2949 34.2366C68.722 34.2366 69.0397 34.1584 69.248 34.0022C69.3939 33.8876 69.4668 33.7418 69.4668 33.5647C69.4668 33.4397 69.4303 33.3355 69.3574 33.2522C69.2741 33.1689 69.0918 33.0959 68.8105 33.0334C67.4772 32.7418 66.6335 32.4762 66.2793 32.2366C65.7897 31.8928 65.5449 31.4241 65.5449 30.8303C65.5449 30.2887 65.7533 29.8355 66.1699 29.4709C66.597 29.1064 67.2585 28.9241 68.1543 28.9241C69.0085 28.9241 69.6439 29.0647 70.0605 29.3459C70.4772 29.6168 70.7637 30.023 70.9199 30.5647L69.3574 30.8459C69.2949 30.6064 69.1699 30.4241 68.9824 30.2991C68.7949 30.1637 68.5293 30.0959 68.1855 30.0959C67.7585 30.0959 67.4512 30.1584 67.2637 30.2834C67.1387 30.3668 67.0762 30.4762 67.0762 30.6116C67.0762 30.7366 67.1283 30.8407 67.2324 30.9241C67.3783 31.0282 67.8887 31.1793 68.7637 31.3772C69.6491 31.5751 70.2637 31.8199 70.6074 32.1116C70.9512 32.4032 71.123 32.8095 71.123 33.3303C71.123 33.9032 70.8835 34.398 70.4043 34.8147C69.9355 35.2209 69.2324 35.4241 68.2949 35.4241C67.4512 35.4241 66.7793 35.2522 66.2793 34.9084C65.7897 34.5647 65.4668 34.0959 65.3105 33.5022ZM75.4219 29.0647V30.3772H74.2969V32.8772C74.2969 33.3876 74.3073 33.6845 74.3281 33.7678C74.349 33.8512 74.3958 33.9241 74.4688 33.9866C74.5521 34.0387 74.6458 34.0647 74.75 34.0647C74.9062 34.0647 75.125 34.0074 75.4062 33.8928L75.5469 35.1741C75.1719 35.3407 74.7396 35.4241 74.25 35.4241C73.9583 35.4241 73.6927 35.3772 73.4531 35.2834C73.2135 35.1793 73.0365 35.0491 72.9219 34.8928C72.8177 34.7262 72.7396 34.5126 72.6875 34.2522C72.6562 34.0543 72.6406 33.6637 72.6406 33.0803V30.3772H71.8906V29.0647H72.6406V27.8303L74.2969 26.8616V29.0647H75.4219ZM80.168 33.2991L81.8086 33.5803C81.6003 34.1845 81.2669 34.6428 80.8086 34.9553C80.3503 35.2678 79.7826 35.4241 79.1055 35.4241C78.0221 35.4241 77.2201 35.0699 76.6992 34.3616C76.2826 33.7991 76.0742 33.0855 76.0742 32.2209C76.0742 31.1897 76.3451 30.3824 76.8867 29.7991C77.4284 29.2157 78.1107 28.9241 78.9336 28.9241C79.8607 28.9241 80.5898 29.2314 81.1211 29.8459C81.6628 30.4501 81.918 31.3824 81.8867 32.6428H77.7617C77.7826 33.1324 77.918 33.5126 78.168 33.7834C78.418 34.0543 78.7357 34.1897 79.1211 34.1897C79.3711 34.1897 79.5846 34.122 79.7617 33.9866C79.9388 33.8407 80.0742 33.6116 80.168 33.2991ZM80.2617 31.6428C80.2513 31.1637 80.1263 30.7991 79.8867 30.5491C79.6576 30.2991 79.3711 30.1741 79.0273 30.1741C78.6732 30.1741 78.3763 30.3043 78.1367 30.5647C77.9076 30.8355 77.793 31.1949 77.793 31.6428H80.2617ZM84.8105 35.2834H83.1699V29.0647H84.7012V29.9397C84.9616 29.523 85.196 29.2522 85.4043 29.1272C85.6126 28.9918 85.847 28.9241 86.1074 28.9241C86.4824 28.9241 86.847 29.0282 87.2012 29.2366L86.6855 30.6584C86.4043 30.4814 86.1491 30.3928 85.9199 30.3928C85.6803 30.3928 85.4824 30.4605 85.3262 30.5959C85.1699 30.7209 85.0449 30.9501 84.9512 31.2834C84.8574 31.6064 84.8105 32.2991 84.8105 33.3616V35.2834Z" fill="black"/>
<path fill-rule="evenodd" clip-rule="evenodd" d="M58.1389 7.12079H89.6575C93.7866 7.12079 97.1338 9.1666 97.1338 11.6902C97.1338 14.2139 93.7866 16.2597 89.6575 16.2597H58.1389C54.0098 16.2597 50.6626 14.2139 50.6626 11.6902C50.6626 9.1666 54.0098 7.12079 58.1389 7.12079Z" fill="#D9D2E9"/>
<path d="M55.9487 13.8102V9.99774H57.2612C57.5633 9.99774 57.7925 10.0134 57.9487 10.0446C58.1675 10.0967 58.355 10.1905 58.5112 10.3259C58.7091 10.4925 58.855 10.7113 58.9487 10.9821C59.0529 11.2425 59.105 11.5446 59.105 11.8884C59.105 12.1696 59.0685 12.4248 58.9956 12.654C58.9331 12.8727 58.8498 13.0602 58.7456 13.2165C58.6414 13.3623 58.5269 13.4769 58.4019 13.5602C58.2769 13.6436 58.1258 13.7061 57.9487 13.7477C57.7716 13.7894 57.5633 13.8102 57.3237 13.8102H55.9487ZM56.4644 13.3571H57.2769C57.5269 13.3571 57.7196 13.3363 57.855 13.2946C58.0008 13.2425 58.1206 13.1748 58.2144 13.0915C58.3289 12.9769 58.4175 12.8207 58.48 12.6227C58.5529 12.4144 58.5894 12.1644 58.5894 11.8727C58.5894 11.4769 58.5216 11.1748 58.3862 10.9665C58.2612 10.7477 58.105 10.6019 57.9175 10.529C57.7821 10.4769 57.5633 10.4509 57.2612 10.4509H56.4644V13.3571ZM59.8122 13.8102V9.99774H62.5622V10.4509H60.3122V11.6071H62.4215V12.0602H60.3122V13.3571H62.6559V13.8102H59.8122ZM63.3504 13.8102V9.99774H64.7879C65.0483 9.99774 65.2462 10.0082 65.3816 10.029C65.5587 10.0602 65.7097 10.1227 65.8347 10.2165C65.9702 10.2998 66.0743 10.4196 66.1472 10.5759C66.2306 10.7321 66.2722 10.9092 66.2722 11.1071C66.2722 11.43 66.1681 11.7061 65.9597 11.9352C65.7514 12.154 65.3764 12.2634 64.8347 12.2634H63.866V13.8102H63.3504ZM63.866 11.8102H64.8504C65.1733 11.8102 65.4025 11.753 65.5379 11.6384C65.6733 11.5134 65.741 11.3415 65.741 11.1227C65.741 10.9561 65.6993 10.8155 65.616 10.7009C65.5431 10.5863 65.4389 10.5134 65.3035 10.4821C65.2202 10.4613 65.0639 10.4509 64.8347 10.4509H63.866V11.8102ZM66.8885 13.8102V9.99774H67.3885V13.3571H69.2635V13.8102H66.8885ZM69.7112 11.9509C69.7112 11.3154 69.8831 10.8207 70.2268 10.4665C70.5706 10.1123 71.0081 9.93524 71.5393 9.93524C71.8935 9.93524 72.2112 10.0186 72.4924 10.1852C72.7737 10.3519 72.9872 10.5863 73.1331 10.8884C73.2893 11.1905 73.3674 11.529 73.3674 11.904C73.3674 12.2894 73.2893 12.6384 73.1331 12.9509C72.9768 13.2529 72.7528 13.4821 72.4612 13.6384C72.1799 13.7946 71.8726 13.8727 71.5393 13.8727C71.1851 13.8727 70.8622 13.7894 70.5706 13.6227C70.2893 13.4457 70.0758 13.2061 69.9299 12.904C69.7841 12.6019 69.7112 12.2842 69.7112 11.9509ZM70.2424 11.9665C70.2424 12.4248 70.3622 12.7894 70.6018 13.0602C70.8518 13.3207 71.1643 13.4509 71.5393 13.4509C71.9247 13.4509 72.2372 13.3154 72.4768 13.0446C72.7268 12.7738 72.8518 12.3936 72.8518 11.904C72.8518 11.5915 72.7945 11.3207 72.6799 11.0915C72.5758 10.8623 72.4247 10.6852 72.2268 10.5602C72.0289 10.4248 71.8049 10.3571 71.5549 10.3571C71.1903 10.3571 70.8778 10.4821 70.6174 10.7321C70.3674 10.9821 70.2424 11.3936 70.2424 11.9665ZM75.09 13.8102V12.2009L73.6212 9.99774H74.2306L74.9806 11.1384C75.1264 11.3571 75.2566 11.5759 75.3712 11.7946C75.4858 11.5967 75.6264 11.3727 75.7931 11.1227L76.5275 9.99774H77.1212L75.59 12.2009V13.8102H75.09ZM77.55 13.8102V9.99774H78.3156L79.2219 12.7009C79.3052 12.9509 79.3625 13.1384 79.3938 13.2634C79.4459 13.1279 79.5136 12.9248 79.5969 12.654L80.5188 9.99774H81.1906V13.8102H80.7063V10.6227L79.5969 13.8102H79.1438L78.0344 10.5602V13.8102H77.55ZM82.0197 13.8102V9.99774H84.7697V10.4509H82.5197V11.6071H84.629V12.0602H82.5197V13.3571H84.8634V13.8102H82.0197ZM85.5578 13.8102V9.99774H86.0735L88.0735 12.9977V9.99774H88.5578V13.8102H88.0422L86.0422 10.8102V13.8102H85.5578ZM90.3744 13.8102V10.4509H89.1244V9.99774H92.14V10.4509H90.89V13.8102H90.3744Z" fill="#351C75"/>
<path d="M34.2894 88.6758C33.1105 88.6758 32.5206 86.1034 31.9316 83.531C31.3426 80.9587 30.7545 78.3864 29.5774 78.3864" stroke="#BF9000" stroke-width="2" stroke-miterlimit="10" stroke-linejoin="round"/>
<path fill-rule="evenodd" clip-rule="evenodd" d="M20.4109 73.006C20.4109 71.9345 21.2797 71.0659 22.3515 71.0659C22.8662 71.0659 23.3598 71.2703 23.7237 71.6342C24.0876 71.998 24.2921 72.4915 24.2921 73.006C24.2921 74.0775 23.4232 74.9461 22.3515 74.9461C21.2797 74.9461 20.4109 74.0775 20.4109 73.006Z" fill="#00B39F"/>
<path fill-rule="evenodd" clip-rule="evenodd" d="M14.4546 78.3833C14.4546 77.3118 15.3234 76.4432 16.3952 76.4432C16.9099 76.4432 17.4035 76.6476 17.7674 77.0114C18.1313 77.3753 18.3358 77.8687 18.3358 78.3833C18.3358 79.4548 17.4669 80.3234 16.3952 80.3234C15.3234 80.3234 14.4546 79.4548 14.4546 78.3833Z" fill="#00B39F"/>
<path d="M20.4109 73.006C18.4021 73.006 16.3933 74.723 16.3933 76.44" stroke="#359AC0" stroke-width="2" stroke-miterlimit="10" stroke-linejoin="round"/>
<path fill-rule="evenodd" clip-rule="evenodd" d="M47.2574 73.625C46.2918 73.1629 45.8837 72.0057 46.346 71.0403C46.568 70.5767 46.9651 70.2203 47.4499 70.0494C47.9348 69.8785 48.4677 69.9072 48.9314 70.1291C49.897 70.5913 50.3051 71.7485 49.8428 72.7139C49.3805 73.6792 48.223 74.0872 47.2574 73.625Z" fill="#00B39F"/>
<path fill-rule="evenodd" clip-rule="evenodd" d="M25.6926 78.3824C25.6926 77.3109 26.5615 76.4423 27.6332 76.4423C28.1479 76.4423 28.6415 76.6467 29.0054 77.0106C29.3694 77.3744 29.5738 77.8679 29.5738 78.3824C29.5738 79.4539 28.705 80.3225 27.6332 80.3225C26.5615 80.3225 25.6926 79.4539 25.6926 78.3824Z" fill="#00B39F"/>
<path fill-rule="evenodd" clip-rule="evenodd" d="M20.3923 86.248C20.3923 85.1765 21.2612 84.3079 22.3329 84.3079C22.8476 84.3079 23.3412 84.5123 23.7051 84.8762C24.0691 85.24 24.2735 85.7335 24.2735 86.248C24.2735 87.3195 23.4047 88.1881 22.3329 88.1881C21.2612 88.1881 20.3923 87.3195 20.3923 86.248Z" fill="#00B39F"/>
<path d="M27.6332 80.3225C27.6332 81.3188 26.3095 81.8178 24.9858 82.3152C23.6621 82.8126 22.3384 83.3086 22.3384 84.3019" stroke="#359AC0" stroke-width="4" stroke-miterlimit="10" stroke-linejoin="round"/>
<path d="M46.2662 72.5214C45.5673 72.5214 45.2046 72.7724 44.8683 73.0234C44.5319 73.2745 44.2219 73.5255 43.5754 73.5255" stroke="#359AC0" stroke-width="2" stroke-miterlimit="10" stroke-linejoin="round"/>
<path d="M22.3329 84.3079C22.3329 83.3117 20.848 82.813 19.3631 82.3156C17.8782 81.8182 16.3933 81.3221 16.3933 80.3285" stroke="#359AC0" stroke-width="2" stroke-miterlimit="10" stroke-linejoin="round"/>
<path d="M27.6332 76.4423C27.6332 74.7253 25.9654 73.0084 24.2976 73.0084" stroke="#359AC0" stroke-width="2" stroke-miterlimit="10" stroke-linejoin="round"/>
<path fill-rule="evenodd" clip-rule="evenodd" d="M41.6403 80.3202C40.5685 80.3202 39.6997 79.4515 39.6997 78.3801C39.6997 77.8655 39.9042 77.372 40.2681 77.0082C40.632 76.6443 41.1256 76.4399 41.6403 76.4399C42.7121 76.4399 43.5809 77.3086 43.5809 78.3801C43.5809 79.4515 42.7121 80.3202 41.6403 80.3202Z" fill="#00B39F"/>
<path fill-rule="evenodd" clip-rule="evenodd" d="M36.3395 75.4596C35.2678 75.4596 34.3989 74.5909 34.3989 73.5195C34.3989 73.0049 34.6034 72.5114 34.9673 72.1476C35.3312 71.7838 35.8249 71.5793 36.3395 71.5793C37.4113 71.5793 38.2801 72.448 38.2801 73.5195C38.2801 74.5909 37.4113 75.4596 36.3395 75.4596Z" fill="#00B39F"/>
<path fill-rule="evenodd" clip-rule="evenodd" d="M41.6403 75.4596C40.5685 75.4596 39.6997 74.5909 39.6997 73.5195C39.6997 73.0049 39.9042 72.5114 40.2681 72.1476C40.632 71.7838 41.1256 71.5793 41.6403 71.5793C42.7121 71.5793 43.5809 72.448 43.5809 73.5195C43.5809 74.5909 42.7121 75.4596 41.6403 75.4596Z" fill="#00B39F"/>
<path d="M39.6997 78.3801C39.3448 78.3801 39.1666 77.1652 38.9899 75.9503C38.8132 74.7354 38.638 73.5205 38.2861 73.5205" stroke="#359AC0" stroke-width="2" stroke-miterlimit="10" stroke-linejoin="round"/>
<path d="M41.6404 76.4399C41.6404 76.1948 41.6528 76.0721 41.6652 75.9497C41.6776 75.8273 41.69 75.7051 41.69 75.4606" stroke="#359AC0" stroke-width="2" stroke-miterlimit="10" stroke-linejoin="round"/>
<path d="M34.3988 73.5195C33.1925 73.5195 32.5892 74.7343 31.9863 75.9492C31.3833 77.1641 30.7807 78.379 29.5752 78.379" stroke="#359AC0" stroke-width="4" stroke-miterlimit="10" stroke-linejoin="round"/>
<path fill-rule="evenodd" clip-rule="evenodd" d="M41.6432 70.599C40.5715 70.599 39.7026 69.7303 39.7026 68.6589C39.7026 68.1443 39.9071 67.6508 40.271 67.287C40.6349 66.9232 41.1285 66.7188 41.6432 66.7188C42.715 66.7188 43.5838 67.5874 43.5838 68.6589C43.5838 69.7303 42.715 70.599 41.6432 70.599Z" fill="#00B39F"/>
<path d="M41.6404 71.5793C41.6404 71.3342 41.6528 71.2115 41.6652 71.0891C41.6776 70.9667 41.69 70.8445 41.69 70.6" stroke="#359AC0" stroke-width="2" stroke-miterlimit="10" stroke-linejoin="round"/>
<path d="M38.28 73.5195C38.6357 73.5195 38.813 72.3046 38.9913 71.0897C39.1695 69.8748 39.3487 68.6599 39.706 68.6599" stroke="#359AC0" stroke-width="4" stroke-miterlimit="10" stroke-linejoin="round"/>
<path fill-rule="evenodd" clip-rule="evenodd" d="M41.5309 95.4764C40.4592 95.4764 39.5903 94.6078 39.5903 93.5363C39.5903 93.0218 39.7948 92.5283 40.1587 92.1645C40.5227 91.8006 41.0163 91.5962 41.5309 91.5962C42.6027 91.5962 43.4716 92.4648 43.4716 93.5363C43.4716 94.6078 42.6027 95.4764 41.5309 95.4764Z" fill="#00B39F"/>
<path fill-rule="evenodd" clip-rule="evenodd" d="M36.2299 90.6158C35.1581 90.6158 34.2893 89.7472 34.2893 88.6757C34.2893 88.1612 34.4938 87.6677 34.8577 87.3038C35.2216 86.94 35.7152 86.7356 36.2299 86.7356C37.3017 86.7356 38.1705 87.6042 38.1705 88.6757C38.1705 89.7472 37.3017 90.6158 36.2299 90.6158Z" fill="#00B39F"/>
<path fill-rule="evenodd" clip-rule="evenodd" d="M41.5309 90.6158C40.4592 90.6158 39.5903 89.7472 39.5903 88.6757C39.5903 88.1612 39.7948 87.6677 40.1587 87.3038C40.5227 86.94 41.0163 86.7356 41.5309 86.7356C42.6027 86.7356 43.4716 87.6042 43.4716 88.6757C43.4716 89.7472 42.6027 90.6158 41.5309 90.6158Z" fill="#00B39F"/>
<path d="M39.5903 93.5363C39.2354 93.5363 39.0572 92.3214 38.8805 91.1065C38.7038 89.8916 38.5286 88.6768 38.1768 88.6768" stroke="#CD502F" stroke-width="2" stroke-miterlimit="10" stroke-linejoin="round"/>
<path d="M41.5309 91.5962C41.5309 91.3511 41.5433 91.2285 41.5557 91.106C41.5681 90.9836 41.5805 90.8615 41.5805 90.6169" stroke="#CD502F" stroke-width="2" stroke-miterlimit="10" stroke-linejoin="round"/>
<path fill-rule="evenodd" clip-rule="evenodd" d="M41.5336 85.7552C40.4619 85.7552 39.593 84.8866 39.593 83.8151C39.593 83.3006 39.7975 82.8071 40.1614 82.4432C40.5254 82.0794 41.019 81.875 41.5336 81.875C42.6054 81.875 43.4742 82.7436 43.4742 83.8151C43.4742 84.8866 42.6054 85.7552 41.5336 85.7552Z" fill="#00B39F"/>
<path d="M41.5309 86.7356C41.5309 86.4905 41.5433 86.3679 41.5557 86.2455C41.5681 86.123 41.5805 86.0009 41.5805 85.7563" stroke="#359AC0" stroke-width="2" stroke-miterlimit="10" stroke-linejoin="round"/>
<path d="M38.1707 88.6758C38.5263 88.6758 38.7036 87.4608 38.8819 86.246C39.0602 85.0311 39.2393 83.8162 39.5966 83.8162" stroke="#359AC0" stroke-width="2" stroke-miterlimit="10" stroke-linejoin="round"/>
<path d="M59.9883 111.575L58.7227 108.216H58.6914C58.7018 108.279 58.707 108.362 58.707 108.466C58.7174 108.57 58.7227 108.685 58.7227 108.81C58.7331 108.924 58.7383 109.044 58.7383 109.169V111.575H58.3164V107.779H58.9727L60.1758 110.935H60.207L61.4258 107.779H62.0664V111.575H61.6289V109.138C61.6289 109.023 61.6289 108.914 61.6289 108.81C61.6393 108.695 61.6445 108.586 61.6445 108.482C61.6549 108.378 61.6654 108.289 61.6758 108.216H61.6445L60.3633 111.575H59.9883ZM65.2336 111.575H63.1086V107.779H65.2336V108.169H63.5617V109.388H65.1398V109.779H63.5617V111.185H65.2336V111.575ZM68.2255 110.56C68.2255 110.789 68.1682 110.982 68.0536 111.138C67.939 111.294 67.7828 111.414 67.5849 111.497C67.387 111.581 67.1474 111.622 66.8661 111.622C66.7307 111.622 66.5953 111.617 66.4599 111.607C66.3349 111.596 66.2151 111.581 66.1005 111.56C65.9963 111.529 65.9026 111.492 65.8192 111.45V111.029C65.9547 111.081 66.1161 111.133 66.3036 111.185C66.4911 111.226 66.689 111.247 66.8974 111.247C67.0849 111.247 67.2411 111.221 67.3661 111.169C67.5015 111.117 67.6005 111.044 67.663 110.95C67.7359 110.857 67.7724 110.742 67.7724 110.607C67.7724 110.471 67.7411 110.362 67.6786 110.279C67.6265 110.185 67.5328 110.101 67.3974 110.029C67.2724 109.956 67.0953 109.883 66.8661 109.81C66.6995 109.747 66.5536 109.685 66.4286 109.622C66.314 109.549 66.2151 109.471 66.1317 109.388C66.0484 109.294 65.9859 109.19 65.9442 109.075C65.9026 108.961 65.8817 108.831 65.8817 108.685C65.8817 108.487 65.9286 108.315 66.0224 108.169C66.1265 108.023 66.2724 107.914 66.4599 107.841C66.6474 107.758 66.8557 107.716 67.0849 107.716C67.2932 107.716 67.4807 107.737 67.6474 107.779C67.8245 107.81 67.9859 107.862 68.1317 107.935L67.9911 108.31C67.8557 108.247 67.7099 108.2 67.5536 108.169C67.3974 108.128 67.2411 108.107 67.0849 108.107C66.9182 108.107 66.7776 108.133 66.663 108.185C66.5588 108.226 66.4755 108.294 66.413 108.388C66.3505 108.471 66.3192 108.57 66.3192 108.685C66.3192 108.82 66.3453 108.935 66.3974 109.029C66.4599 109.112 66.5536 109.19 66.6786 109.263C66.8036 109.325 66.9703 109.393 67.1786 109.466C67.3974 109.549 67.5849 109.638 67.7411 109.732C67.8974 109.825 68.0172 109.94 68.1005 110.075C68.1838 110.2 68.2255 110.362 68.2255 110.56ZM71.8815 111.575H71.4284V109.779H69.444V111.575H68.9909V107.779H69.444V109.388H71.4284V107.779H71.8815V111.575ZM75.0443 111.575H72.9193V107.779H75.0443V108.169H73.3724V109.388H74.9506V109.779H73.3724V111.185H75.0443V111.575ZM76.9112 107.779C77.2237 107.779 77.4789 107.815 77.6768 107.888C77.8852 107.961 78.0362 108.081 78.13 108.247C78.2341 108.404 78.2862 108.601 78.2862 108.841C78.2862 109.039 78.2498 109.206 78.1768 109.341C78.1039 109.476 78.0102 109.586 77.8956 109.669C77.781 109.753 77.656 109.82 77.5206 109.872L78.5675 111.575H78.0518L77.1143 109.982H76.3331V111.575H75.88V107.779H76.9112ZM76.88 108.154H76.3331V109.607H76.9268C77.2393 109.607 77.4685 109.544 77.6143 109.419C77.7602 109.294 77.8331 109.112 77.8331 108.872C77.8331 108.612 77.755 108.43 77.5987 108.325C77.4425 108.211 77.2029 108.154 76.88 108.154ZM80.1372 109.685L81.1528 107.779H81.6372L80.3716 110.107V111.575H79.9184V110.122L78.6528 107.779H79.1372L80.1372 109.685ZM84.4129 109.669C84.4129 109.982 84.3869 110.258 84.3348 110.497C84.2931 110.737 84.2202 110.945 84.116 111.122C84.0119 111.289 83.8817 111.414 83.7254 111.497C83.5692 111.581 83.3764 111.622 83.1473 111.622C82.866 111.622 82.6317 111.549 82.4442 111.404C82.2671 111.247 82.1317 111.023 82.0379 110.732C81.9442 110.44 81.8973 110.086 81.8973 109.669C81.8973 109.263 81.9389 108.914 82.0223 108.622C82.1056 108.331 82.2358 108.107 82.4129 107.95C82.6004 107.794 82.8452 107.716 83.1473 107.716C83.4389 107.716 83.6733 107.794 83.8504 107.95C84.0379 108.107 84.1785 108.331 84.2723 108.622C84.366 108.914 84.4129 109.263 84.4129 109.669ZM82.3348 109.669C82.3348 110.023 82.3608 110.32 82.4129 110.56C82.465 110.789 82.5483 110.966 82.6629 111.091C82.7879 111.206 82.9494 111.263 83.1473 111.263C83.3452 111.263 83.5014 111.206 83.616 111.091C83.741 110.966 83.8296 110.789 83.8817 110.56C83.9442 110.32 83.9754 110.023 83.9754 109.669C83.9754 109.315 83.9442 109.023 83.8817 108.794C83.8296 108.555 83.741 108.378 83.616 108.263C83.5014 108.148 83.3452 108.091 83.1473 108.091C82.9494 108.091 82.7879 108.148 82.6629 108.263C82.5483 108.378 82.465 108.555 82.4129 108.794C82.3608 109.023 82.3348 109.315 82.3348 109.669ZM86.5532 111.575H86.1313V108.888C86.1313 108.784 86.1313 108.695 86.1313 108.622C86.1313 108.549 86.1313 108.482 86.1313 108.419C86.1313 108.357 86.1365 108.294 86.1469 108.232C86.0948 108.284 86.0427 108.331 85.9907 108.372C85.949 108.404 85.8917 108.45 85.8188 108.513L85.3813 108.857L85.1625 108.56L86.1938 107.779H86.5532V111.575ZM90.334 108.654C90.334 108.831 90.3028 108.982 90.2403 109.107C90.1778 109.232 90.084 109.336 89.959 109.419C89.8445 109.492 89.709 109.544 89.5528 109.575V109.591C89.8549 109.633 90.0788 109.732 90.2247 109.888C90.3809 110.044 90.459 110.247 90.459 110.497C90.459 110.716 90.407 110.914 90.3028 111.091C90.1986 111.258 90.0372 111.388 89.8184 111.482C89.6101 111.575 89.3393 111.622 89.0059 111.622C88.808 111.622 88.6205 111.607 88.4434 111.575C88.2768 111.544 88.1153 111.492 87.959 111.419V111.013C88.1153 111.096 88.2872 111.159 88.4747 111.2C88.6622 111.242 88.8445 111.263 89.0215 111.263C89.3653 111.263 89.6153 111.195 89.7715 111.06C89.9278 110.924 90.0059 110.737 90.0059 110.497C90.0059 110.331 89.959 110.195 89.8653 110.091C89.782 109.987 89.657 109.914 89.4903 109.872C89.334 109.82 89.1465 109.794 88.9278 109.794H88.5372V109.419H88.9278C89.1361 109.419 89.308 109.393 89.4434 109.341C89.5893 109.279 89.6986 109.195 89.7715 109.091C89.8549 108.976 89.8965 108.841 89.8965 108.685C89.8965 108.497 89.8288 108.351 89.6934 108.247C89.5684 108.143 89.3965 108.091 89.1778 108.091C89.0424 108.091 88.9174 108.107 88.8028 108.138C88.6986 108.159 88.5945 108.195 88.4903 108.247C88.3965 108.289 88.3028 108.341 88.209 108.404L87.9903 108.107C88.1257 108.003 88.2924 107.914 88.4903 107.841C88.6882 107.758 88.9174 107.716 89.1778 107.716C89.5632 107.716 89.8497 107.805 90.0372 107.982C90.2351 108.159 90.334 108.383 90.334 108.654Z" fill="#999999"/>
<path d="M67.7684 59.9203C66.5895 59.9203 65.9997 57.348 65.4106 54.7756C64.8217 52.2032 64.2335 49.6309 63.0564 49.6309" stroke="#BF9000" stroke-width="2" stroke-miterlimit="10" stroke-linejoin="round"/>
<path fill-rule="evenodd" clip-rule="evenodd" d="M53.8899 44.2506C53.8899 43.1791 54.7587 42.3105 55.8305 42.3105C56.3452 42.3105 56.8388 42.5149 57.2027 42.8787C57.5666 43.2426 57.7711 43.7361 57.7711 44.2506C57.7711 45.3221 56.9023 46.1907 55.8305 46.1907C54.7587 46.1907 53.8899 45.3221 53.8899 44.2506Z" fill="#00B39F"/>
<path fill-rule="evenodd" clip-rule="evenodd" d="M47.9335 49.6278C47.9335 48.5564 48.8023 47.6877 49.8741 47.6877C50.3888 47.6877 50.8824 47.8922 51.2463 48.256C51.6102 48.6198 51.8147 49.1133 51.8147 49.6278C51.8147 50.6993 50.9459 51.568 49.8741 51.568C48.8023 51.568 47.9335 50.6993 47.9335 49.6278Z" fill="#00B39F"/>
<path d="M53.8899 44.2505C51.8811 44.2505 49.8723 45.9675 49.8723 47.6845" stroke="#359AC0" stroke-width="2" stroke-miterlimit="10" stroke-linejoin="round"/>
<path fill-rule="evenodd" clip-rule="evenodd" d="M80.7364 44.8696C79.7708 44.4074 79.3627 43.2502 79.825 42.2849C80.047 41.8213 80.4441 41.4648 80.9289 41.2939C81.4138 41.1231 81.9467 41.1518 82.4104 41.3737C83.376 41.8358 83.784 42.9931 83.3218 43.9584C82.8595 44.9238 81.702 45.3317 80.7364 44.8696Z" fill="#00B39F"/>
<path fill-rule="evenodd" clip-rule="evenodd" d="M59.1716 49.627C59.1716 48.5555 60.0405 47.6869 61.1122 47.6869C61.6269 47.6869 62.1205 47.8913 62.4845 48.2551C62.8484 48.619 63.0529 49.1125 63.0529 49.627C63.0529 50.6985 62.184 51.5671 61.1122 51.5671C60.0405 51.5671 59.1716 50.6985 59.1716 49.627Z" fill="#00B39F"/>
<path fill-rule="evenodd" clip-rule="evenodd" d="M53.8713 57.4926C53.8713 56.4211 54.7402 55.5525 55.8119 55.5525C56.3266 55.5525 56.8202 55.7569 57.1841 56.1207C57.5481 56.4846 57.7525 56.978 57.7525 57.4926C57.7525 58.5641 56.8837 59.4327 55.8119 59.4327C54.7402 59.4327 53.8713 58.5641 53.8713 57.4926Z" fill="#00B39F"/>
<path d="M61.1122 51.5671C61.1122 52.5634 59.7885 53.0623 58.4648 53.5598C57.1411 54.0572 55.8174 54.5531 55.8174 55.5465" stroke="#359AC0" stroke-width="4" stroke-miterlimit="10" stroke-linejoin="round"/>
<path d="M79.7452 43.7659C79.0463 43.7659 78.6837 44.017 78.3473 44.268C78.011 44.519 77.7009 44.7701 77.0544 44.7701" stroke="#359AC0" stroke-width="2" stroke-miterlimit="10" stroke-linejoin="round"/>
<path d="M55.8119 55.5525C55.8119 54.5563 54.327 54.0576 52.8421 53.5602C51.3572 53.0627 49.8723 52.5666 49.8723 51.5731" stroke="#359AC0" stroke-width="2" stroke-miterlimit="10" stroke-linejoin="round"/>
<path d="M61.1122 47.6869C61.1122 45.9699 59.4444 44.2529 57.7766 44.2529" stroke="#359AC0" stroke-width="2" stroke-miterlimit="10" stroke-linejoin="round"/>
<path fill-rule="evenodd" clip-rule="evenodd" d="M75.1193 51.5647C74.0475 51.5647 73.1787 50.6961 73.1787 49.6246C73.1787 49.1101 73.3832 48.6166 73.7471 48.2527C74.1111 47.8889 74.6046 47.6845 75.1193 47.6845C76.1911 47.6845 77.0599 48.5531 77.0599 49.6246C77.0599 50.6961 76.1911 51.5647 75.1193 51.5647Z" fill="#00B39F"/>
<path fill-rule="evenodd" clip-rule="evenodd" d="M69.8185 46.7041C68.7468 46.7041 67.8779 45.8355 67.8779 44.764C67.8779 44.2495 68.0824 43.756 68.4463 43.3922C68.8103 43.0283 69.3039 42.8239 69.8185 42.8239C70.8903 42.8239 71.7592 43.6925 71.7592 44.764C71.7592 45.8355 70.8903 46.7041 69.8185 46.7041Z" fill="#00B39F"/>
<path fill-rule="evenodd" clip-rule="evenodd" d="M75.1193 46.7041C74.0475 46.7041 73.1787 45.8355 73.1787 44.764C73.1787 44.2495 73.3832 43.756 73.7471 43.3922C74.1111 43.0283 74.6046 42.8239 75.1193 42.8239C76.1911 42.8239 77.0599 43.6925 77.0599 44.764C77.0599 45.8355 76.1911 46.7041 75.1193 46.7041Z" fill="#00B39F"/>
<path d="M73.1787 49.6246C72.8238 49.6246 72.6456 48.4097 72.4689 47.1948C72.2921 45.9799 72.117 44.765 71.7651 44.765" stroke="#359AC0" stroke-width="2" stroke-miterlimit="10" stroke-linejoin="round"/>
<path d="M75.1194 47.6845C75.1194 47.4394 75.1318 47.3167 75.1442 47.1943C75.1566 47.0719 75.169 46.9497 75.169 46.7051" stroke="#359AC0" stroke-width="2" stroke-miterlimit="10" stroke-linejoin="round"/>
<path d="M67.8778 44.764C66.6715 44.764 66.0682 45.9789 65.4653 47.1938C64.8623 48.4087 64.2597 49.6236 63.0542 49.6236" stroke="#359AC0" stroke-width="4" stroke-miterlimit="10" stroke-linejoin="round"/>
<path fill-rule="evenodd" clip-rule="evenodd" d="M75.1223 41.8435C74.0505 41.8435 73.1816 40.9749 73.1816 39.9034C73.1816 39.3889 73.3861 38.8954 73.75 38.5316C74.114 38.1677 74.6076 37.9633 75.1223 37.9633C76.194 37.9633 77.0628 38.8319 77.0628 39.9034C77.0628 40.9749 76.194 41.8435 75.1223 41.8435Z" fill="#00B39F"/>
<path d="M75.1194 42.8239C75.1194 42.5788 75.1318 42.4561 75.1442 42.3337C75.1566 42.2113 75.169 42.0891 75.169 41.8445" stroke="#359AC0" stroke-width="2" stroke-miterlimit="10" stroke-linejoin="round"/>
<path d="M71.759 44.764C72.1147 44.764 72.292 43.5491 72.4703 42.3342C72.6485 41.1193 72.8276 39.9044 73.185 39.9044" stroke="#359AC0" stroke-width="4" stroke-miterlimit="10" stroke-linejoin="round"/>
<path fill-rule="evenodd" clip-rule="evenodd" d="M75.0099 66.721C73.9382 66.721 73.0693 65.8524 73.0693 64.7809C73.0693 64.2663 73.2738 63.7728 73.6377 63.409C74.0016 63.0452 74.4952 62.8408 75.0099 62.8408C76.0817 62.8408 76.9505 63.7094 76.9505 64.7809C76.9505 65.8524 76.0817 66.721 75.0099 66.721Z" fill="#00B39F"/>
<path fill-rule="evenodd" clip-rule="evenodd" d="M69.7089 61.8604C68.6371 61.8604 67.7683 60.9918 67.7683 59.9203C67.7683 59.4057 67.9727 58.9122 68.3367 58.5484C68.7006 58.1846 69.1942 57.9802 69.7089 57.9802C70.7807 57.9802 71.6495 58.8488 71.6495 59.9203C71.6495 60.9918 70.7807 61.8604 69.7089 61.8604Z" fill="#00B39F"/>
<path fill-rule="evenodd" clip-rule="evenodd" d="M75.0099 61.8604C73.9382 61.8604 73.0693 60.9918 73.0693 59.9203C73.0693 59.4057 73.2738 58.9122 73.6377 58.5484C74.0016 58.1846 74.4952 57.9802 75.0099 57.9802C76.0817 57.9802 76.9505 58.8488 76.9505 59.9203C76.9505 60.9918 76.0817 61.8604 75.0099 61.8604Z" fill="#00B39F"/>
<path d="M73.0694 64.7809C72.7144 64.7809 72.5362 63.566 72.3595 62.3511C72.1828 61.1362 72.0076 59.9213 71.6558 59.9213" stroke="#CD502F" stroke-width="2" stroke-miterlimit="10" stroke-linejoin="round"/>
<path d="M75.0098 62.8408C75.0098 62.5957 75.0222 62.473 75.0346 62.3506C75.047 62.2282 75.0594 62.106 75.0594 61.8615" stroke="#CD502F" stroke-width="2" stroke-miterlimit="10" stroke-linejoin="round"/>
<path fill-rule="evenodd" clip-rule="evenodd" d="M75.0126 56.9998C73.9409 56.9998 73.072 56.1312 73.072 55.0597C73.072 54.5451 73.2765 54.0516 73.6404 53.6878C74.0043 53.324 74.4979 53.1196 75.0126 53.1196C76.0844 53.1196 76.9532 53.9882 76.9532 55.0597C76.9532 56.1312 76.0844 56.9998 75.0126 56.9998Z" fill="#00B39F"/>
<path d="M75.0098 57.9802C75.0098 57.7351 75.0222 57.6124 75.0346 57.49C75.047 57.3676 75.0594 57.2454 75.0594 57.0008" stroke="#359AC0" stroke-width="2" stroke-miterlimit="10" stroke-linejoin="round"/>
<path d="M71.6495 59.9203C72.0052 59.9203 72.1825 58.7054 72.3608 57.4905C72.539 56.2756 72.7182 55.0607 73.0755 55.0607" stroke="#359AC0" stroke-width="2" stroke-miterlimit="10" stroke-linejoin="round"/>
<g clip-path="url(#clip0_5562_24523)">
<path d="M52.4395 106.55C52.6476 106.81 52.8 107.1 52.9165 107.41C53.067 107.808 53.1357 108.223 53.0497 108.643C52.9344 109.207 52.6043 109.605 52.0524 109.796C51.8381 109.87 51.6154 109.9 51.394 109.807C51.3634 109.796 51.3348 109.78 51.3093 109.761C51.3062 109.892 51.2566 110.018 51.1692 110.117C51.1982 110.104 51.2289 110.095 51.2603 110.091C51.2907 110.085 51.3228 110.081 51.3525 110.078C51.6479 110.054 51.9321 109.991 52.2021 109.862C52.6183 109.663 52.9671 109.379 53.2634 109.027C53.4329 108.83 53.5747 108.61 53.6851 108.375C53.8412 108.027 53.9415 107.657 53.9823 107.279C54.0204 106.952 54.0102 106.632 53.9775 106.308C53.9696 106.23 53.9359 106.198 53.8657 106.186C53.6855 106.154 53.5051 106.118 53.3278 106.074C52.8641 105.962 52.3966 105.866 51.9321 105.759C51.7669 105.72 51.601 105.686 51.4354 105.649C51.5569 105.765 51.6874 105.86 51.8137 105.961C52.0379 106.14 52.2589 106.324 52.4395 106.55Z" fill="#00B39F"/>
<path d="M47.3355 110.569C47.4776 109.971 47.7128 109.422 48.1985 109.018C48.6408 108.65 49.1415 108.535 49.6934 108.727C49.9719 108.823 50.2106 108.979 50.3375 109.262C50.3501 109.287 50.3592 109.314 50.3644 109.342C50.4509 109.259 50.5617 109.206 50.6805 109.192C50.6732 109.187 50.6657 109.182 50.6574 109.175C50.488 109.039 50.3269 108.89 50.13 108.79C49.4303 108.433 48.6953 108.387 47.9484 108.578C47.1563 108.779 46.544 109.259 46.0416 109.892C45.9852 109.963 45.9898 110.008 46.0362 110.08C46.4258 110.686 46.8116 111.295 47.1987 111.903C47.2499 111.983 47.3028 112.062 47.3731 112.168C47.3806 111.989 47.3428 111.846 47.3226 111.702C47.2695 111.323 47.2458 110.945 47.3355 110.569Z" fill="#00D3A9"/>
<path d="M48.5281 106.362C48.7972 106.317 49.0686 106.287 49.341 106.272C49.5883 106.259 49.8297 106.308 50.0694 106.37C50.6351 106.518 51.1422 106.765 51.5144 107.234C51.8694 107.681 51.9547 108.182 51.7641 108.719C51.6667 108.994 51.5021 109.222 51.2209 109.345C51.2014 109.355 51.1802 109.361 51.1585 109.362C51.2427 109.452 51.2949 109.567 51.3069 109.69C51.3195 109.669 51.3339 109.65 51.3497 109.632C51.5558 109.387 51.7422 109.13 51.8492 108.823C51.9895 108.421 52.048 107.994 52.0213 107.569C52.0009 107.153 51.8959 106.746 51.7127 106.372C51.45 105.842 51.0717 105.406 50.6097 105.039C50.5408 104.984 50.4908 104.991 50.419 105.037C49.8243 105.419 49.2257 105.796 48.6309 106.177C48.5385 106.236 48.4393 106.287 48.35 106.371C48.4095 106.375 48.4693 106.372 48.5281 106.362V106.362Z" fill="#00D3A9"/>
<path d="M46.8561 108.825C47.0903 108.529 47.314 108.223 47.6287 108.004C48.2114 107.6 48.8407 107.338 49.5641 107.439C50.1469 107.521 50.5681 107.838 50.7785 108.4C50.8688 108.641 50.8971 108.89 50.7914 109.14C50.7848 109.156 50.7762 109.172 50.7658 109.187C50.8854 109.19 51.0009 109.232 51.095 109.306C51.0926 109.298 51.0907 109.289 51.0892 109.281C51.0838 109.25 51.0836 109.218 51.0811 109.188C51.0626 108.942 51.0224 108.702 50.9341 108.469C50.7468 107.976 50.4266 107.585 50.0313 107.245C49.4486 106.743 48.7619 106.528 48.0079 106.499C47.7939 106.491 47.5791 106.489 47.3648 106.517C47.2168 106.537 47.2056 106.538 47.1737 106.684C47.0362 107.312 46.8981 107.94 46.7594 108.569C46.7234 108.732 46.6882 108.896 46.6478 109.083C46.7429 108.997 46.7929 108.905 46.8561 108.825Z" fill="#00B39F"/>
<path d="M55.4651 109.419C55.0738 108.81 54.687 108.198 54.2963 107.589C54.2445 107.508 54.2033 107.418 54.1163 107.328C54.1413 107.541 54.1594 107.726 54.1856 107.91C54.2401 108.293 54.2397 108.674 54.1382 109.051C53.979 109.644 53.7136 110.171 53.2145 110.554C52.9413 110.765 52.6252 110.86 52.2851 110.864C52.0468 110.868 51.8202 110.799 51.6094 110.686C51.4254 110.587 51.2689 110.459 51.1763 110.266C51.1471 110.205 51.1347 110.168 51.144 110.144C51.0543 110.233 50.9369 110.289 50.811 110.303C50.8439 110.324 50.8752 110.347 50.9047 110.373C51.0795 110.515 51.2541 110.657 51.4595 110.755C52.0322 111.027 52.6372 111.084 53.253 110.987C54.1819 110.842 54.8857 110.32 55.463 109.603C55.5155 109.537 55.509 109.487 55.4651 109.419Z" fill="#00D3A9"/>
<path d="M54.2338 111.174C53.6586 111.753 52.9681 112.076 52.1379 112.078C51.5585 112.08 50.945 111.699 50.7392 111.142C50.654 110.911 50.5974 110.676 50.6851 110.433C50.7084 110.368 50.7242 110.327 50.7419 110.307C50.616 110.305 50.4943 110.261 50.3966 110.182C50.4071 110.213 50.4135 110.245 50.4155 110.278C50.4339 110.457 50.4432 110.638 50.4967 110.81C50.7818 111.73 51.3949 112.359 52.2613 112.74C52.8149 112.984 53.4041 113.058 54.0095 112.995C54.28 112.967 54.2815 112.972 54.3354 112.735C54.484 112.081 54.6334 111.426 54.7774 110.771C54.8016 110.661 54.8455 110.552 54.8434 110.409C54.8095 110.455 54.7911 110.479 54.7735 110.504C54.6055 110.736 54.4361 110.971 54.2338 111.174Z" fill="#00B39F"/>
<path d="M49.1586 113.063C48.8945 112.767 48.7055 112.425 48.5742 112.053C48.4493 111.698 48.3758 111.332 48.4356 110.952C48.5221 110.399 48.8027 109.986 49.3192 109.755C49.569 109.643 49.8335 109.59 50.1059 109.695C50.1357 109.704 50.1642 109.718 50.1908 109.735C50.1931 109.615 50.2342 109.498 50.308 109.404C50.2859 109.408 50.2636 109.411 50.2412 109.412C50.0929 109.422 49.9454 109.44 49.7995 109.469C49.2953 109.576 48.877 109.839 48.5092 110.187C48.0187 110.65 47.7026 111.212 47.5702 111.876C47.4897 112.279 47.4784 112.684 47.509 113.093C47.5207 113.25 47.586 113.307 47.7442 113.339C48.405 113.473 49.0614 113.63 49.7203 113.773C49.8324 113.798 49.9427 113.84 50.0911 113.844C49.9831 113.761 49.8992 113.697 49.8152 113.633C49.5841 113.457 49.3527 113.281 49.1586 113.063Z" fill="#00B39F"/>
<path d="M53.0986 113.118C52.8636 113.16 52.6272 113.188 52.391 113.211C52.1972 113.23 52.0006 113.239 51.8104 113.211C51.5358 113.172 51.2672 113.099 51.0112 112.992C50.6129 112.826 50.2518 112.605 49.9837 112.258C49.6603 111.838 49.5513 111.37 49.7105 110.86C49.8008 110.571 49.9492 110.313 50.2418 110.173C50.2938 110.148 50.3296 110.136 50.355 110.14C50.2672 110.052 50.2113 109.938 50.196 109.814C50.1831 109.833 50.1692 109.851 50.1544 109.868C50.02 110.031 49.8822 110.191 49.7846 110.381C49.5492 110.839 49.4632 111.325 49.4759 111.838C49.4828 112.216 49.5609 112.589 49.7059 112.938C49.959 113.541 50.3617 114.033 50.8726 114.439C50.9523 114.503 51.0097 114.51 51.099 114.452C51.6135 114.119 52.1327 113.792 52.6501 113.463C52.8214 113.353 52.9918 113.244 53.165 113.132C53.1564 113.124 53.1456 113.118 53.1339 113.116C53.1221 113.113 53.1099 113.114 53.0986 113.118V113.118Z" fill="#00D3A9"/>
</g>
<defs>
<clipPath id="clip0_5562_24523">
<rect width="9.5" height="9.49292" fill="white" transform="translate(46 105)"/>
</clipPath>
</defs>
</svg>
