<svg width="104" height="120" viewBox="0 0 104 120" fill="none" xmlns="http://www.w3.org/2000/svg">
<path fill-rule="evenodd" clip-rule="evenodd" d="M2 13.8494C2 6.75287 7.75287 1 14.8494 1H89.9065C93.3144 1 96.5827 2.35376 98.9924 4.76352C101.402 7.17325 102.756 10.4415 102.756 13.8494V105.127C102.756 112.224 97.003 117.976 89.9065 117.976H14.8494C7.75287 117.976 2 112.224 2 105.127V13.8494Z" fill="#EEEEEE"/>
<path d="M20.8926 36.2835V27.6897H23.502L25.0488 33.5491L26.5957 27.6897H29.1895V36.2835H27.5801V29.5179L25.877 36.2835H24.2051L22.5176 29.5179V36.2835H20.8926ZM34.998 36.2835V35.346C34.7793 35.6793 34.4824 35.9449 34.1074 36.1429C33.7428 36.3304 33.3522 36.4241 32.9355 36.4241C32.5189 36.4241 32.1439 36.3356 31.8105 36.1585C31.4772 35.971 31.2376 35.7106 31.0918 35.3772C30.946 35.0439 30.873 34.5856 30.873 34.0022V30.0647H32.5137V32.9241C32.5137 33.7991 32.5449 34.3356 32.6074 34.5335C32.6699 34.7314 32.7793 34.8876 32.9355 35.0022C33.1022 35.1168 33.3053 35.1741 33.5449 35.1741C33.8262 35.1741 34.0762 35.096 34.2949 34.9397C34.5241 34.7835 34.6803 34.5908 34.7637 34.3616C34.847 34.1324 34.8887 33.5751 34.8887 32.6897V30.0647H36.5293V36.2835H34.998ZM41.0938 30.0647V31.3772H39.9688V33.8772C39.9688 34.3876 39.9792 34.6845 40 34.7679C40.0208 34.8512 40.0677 34.9241 40.1406 34.9866C40.224 35.0387 40.3177 35.0647 40.4219 35.0647C40.5781 35.0647 40.7969 35.0074 41.0781 34.8929L41.2188 36.1741C40.8438 36.3408 40.4115 36.4241 39.9219 36.4241C39.6302 36.4241 39.3646 36.3772 39.125 36.2835C38.8854 36.1793 38.7083 36.0491 38.5938 35.8929C38.4896 35.7262 38.4115 35.5126 38.3594 35.2522C38.3281 35.0543 38.3125 34.6637 38.3125 34.0804V31.3772H37.5625V30.0647H38.3125V28.8304L39.9688 27.8616V30.0647H41.0938ZM46.3242 36.2835V35.346C46.1055 35.6793 45.8086 35.9449 45.4336 36.1429C45.069 36.3304 44.6784 36.4241 44.2617 36.4241C43.8451 36.4241 43.4701 36.3356 43.1367 36.1585C42.8034 35.971 42.5638 35.7106 42.418 35.3772C42.2721 35.0439 42.1992 34.5856 42.1992 34.0022V30.0647H43.8398V32.9241C43.8398 33.7991 43.8711 34.3356 43.9336 34.5335C43.9961 34.7314 44.1055 34.8876 44.2617 35.0022C44.4284 35.1168 44.6315 35.1741 44.8711 35.1741C45.1523 35.1741 45.4023 35.096 45.6211 34.9397C45.8503 34.7835 46.0065 34.5908 46.0898 34.3616C46.1732 34.1324 46.2148 33.5751 46.2148 32.6897V30.0647H47.8555V36.2835H46.3242ZM50.7949 31.9554L49.2949 31.6897C49.4616 31.0856 49.748 30.6429 50.1543 30.3616C50.571 30.0699 51.1855 29.9241 51.998 29.9241C52.7272 29.9241 53.2689 30.0126 53.623 30.1897C53.9876 30.3564 54.2428 30.5751 54.3887 30.846C54.5345 31.1064 54.6074 31.596 54.6074 32.3147L54.5918 34.2366C54.5918 34.7887 54.6178 35.1949 54.6699 35.4554C54.722 35.7054 54.821 35.9814 54.9668 36.2835H53.3418C53.3001 36.1689 53.248 36.0074 53.1855 35.7991C53.1543 35.6949 53.1335 35.6272 53.123 35.596C52.8418 35.8772 52.5397 36.0856 52.2168 36.221C51.9043 36.3564 51.5658 36.4241 51.2012 36.4241C50.5553 36.4241 50.0449 36.2522 49.6699 35.9085C49.3053 35.5543 49.123 35.1116 49.123 34.5804C49.123 34.2262 49.2064 33.9137 49.373 33.6429C49.5501 33.372 49.7897 33.1637 50.0918 33.0179C50.3939 32.8616 50.8314 32.7314 51.4043 32.6272C52.1647 32.4814 52.696 32.346 52.998 32.221V32.0647C52.998 31.7418 52.9199 31.5126 52.7637 31.3772C52.6074 31.2418 52.3105 31.1741 51.873 31.1741C51.5814 31.1741 51.3522 31.2314 51.1855 31.346C51.0293 31.4606 50.8991 31.6637 50.7949 31.9554ZM52.998 33.2991C52.7897 33.3616 52.4564 33.4449 51.998 33.5491C51.5397 33.6429 51.2376 33.7366 51.0918 33.8304C50.8835 33.9866 50.7793 34.1793 50.7793 34.4085C50.7793 34.6376 50.8626 34.8408 51.0293 35.0179C51.2064 35.1845 51.4251 35.2679 51.6855 35.2679C51.9876 35.2679 52.2741 35.1689 52.5449 34.971C52.7428 34.8251 52.873 34.6429 52.9355 34.4241C52.9772 34.2887 52.998 34.0231 52.998 33.6272V33.2991ZM56.2344 36.2835V27.6897H57.8906V36.2835H56.2344ZM64.8555 36.2835V29.1429H62.3086V27.6897H69.1211V29.1429H66.5898V36.2835H64.8555ZM70.2949 36.2835V27.7679H72.0293V34.8304H76.3418V36.2835H70.2949ZM77.1406 33.4866L78.8281 33.3304C78.9323 33.8929 79.1354 34.3095 79.4375 34.5804C79.75 34.8408 80.1719 34.971 80.7031 34.971C81.2552 34.971 81.6719 34.8564 81.9531 34.6272C82.2448 34.3876 82.3906 34.1064 82.3906 33.7835C82.3906 33.5856 82.3281 33.4137 82.2031 33.2679C82.0885 33.122 81.8802 32.997 81.5781 32.8929C81.3802 32.8199 80.9219 32.6949 80.2031 32.5179C79.2656 32.2887 78.6094 32.0074 78.2344 31.6741C77.7135 31.1949 77.4531 30.6168 77.4531 29.9397C77.4531 29.5022 77.5729 29.096 77.8125 28.721C78.0625 28.3356 78.4219 28.0439 78.8906 27.846C79.3594 27.6481 79.9219 27.5491 80.5781 27.5491C81.6615 27.5491 82.474 27.7887 83.0156 28.2679C83.5573 28.7366 83.8438 29.3616 83.875 30.1429L82.1406 30.221C82.0677 29.7835 81.9062 29.471 81.6562 29.2835C81.4167 29.0856 81.0521 28.9866 80.5625 28.9866C80.0625 28.9866 79.6667 29.0908 79.375 29.2991C79.1979 29.4241 79.1094 29.6012 79.1094 29.8304C79.1094 30.0283 79.1927 30.2001 79.3594 30.346C79.5781 30.5335 80.1094 30.7262 80.9531 30.9241C81.7969 31.122 82.4219 31.3304 82.8281 31.5491C83.2344 31.7574 83.5521 32.0491 83.7812 32.4241C84.0104 32.7887 84.125 33.2418 84.125 33.7835C84.125 34.2731 83.9844 34.7366 83.7031 35.1741C83.4323 35.6012 83.0469 35.9189 82.5469 36.1272C82.0469 36.3356 81.4271 36.4397 80.6875 36.4397C79.5938 36.4397 78.7552 36.1897 78.1719 35.6897C77.599 35.1793 77.2552 34.4449 77.1406 33.4866Z" fill="black"/>
<path fill-rule="evenodd" clip-rule="evenodd" d="M58.1406 10.121H89.6592C93.7882 10.121 97.1355 12.144 97.1355 14.6395C97.1355 17.1349 93.7882 19.1579 89.6592 19.1579H58.1406C54.0115 19.1579 50.6643 17.1349 50.6643 14.6395C50.6643 12.144 54.0115 10.121 58.1406 10.121Z" fill="#FFF2CC"/>
<path d="M60.6643 15.5407L61.1487 15.4938C61.1695 15.6813 61.2216 15.8376 61.3049 15.9626C61.3883 16.0876 61.5133 16.1865 61.6799 16.2595C61.857 16.3324 62.0549 16.3688 62.2737 16.3688C62.4612 16.3688 62.6278 16.3428 62.7737 16.2907C62.9299 16.2282 63.0393 16.1501 63.1018 16.0563C63.1747 15.9522 63.2112 15.8428 63.2112 15.7282C63.2112 15.6032 63.1747 15.499 63.1018 15.4157C63.0393 15.322 62.9299 15.2438 62.7737 15.1813C62.6695 15.1397 62.4403 15.0772 62.0862 14.9938C61.7424 14.9105 61.4976 14.8324 61.3518 14.7595C61.1747 14.6657 61.0393 14.5511 60.9456 14.4157C60.8622 14.2699 60.8206 14.1084 60.8206 13.9313C60.8206 13.7438 60.8726 13.5668 60.9768 13.4001C61.0914 13.223 61.2528 13.0928 61.4612 13.0095C61.6695 12.9261 61.9039 12.8845 62.1643 12.8845C62.4456 12.8845 62.6903 12.9313 62.8987 13.0251C63.1174 13.1084 63.2841 13.2386 63.3987 13.4157C63.5133 13.5928 63.5758 13.7959 63.5862 14.0251L63.1018 14.0563C63.081 13.8168 62.9924 13.6345 62.8362 13.5095C62.6903 13.3845 62.4716 13.322 62.1799 13.322C61.8778 13.322 61.6539 13.3793 61.5081 13.4938C61.3726 13.6084 61.3049 13.7438 61.3049 13.9001C61.3049 14.0355 61.3518 14.1449 61.4456 14.2282C61.5497 14.322 61.8049 14.4157 62.2112 14.5095C62.6174 14.6032 62.8987 14.6813 63.0549 14.7438C63.2737 14.848 63.4351 14.9782 63.5393 15.1345C63.6539 15.2907 63.7112 15.473 63.7112 15.6813C63.7112 15.8897 63.6487 16.0824 63.5237 16.2595C63.4091 16.4365 63.2424 16.5772 63.0237 16.6813C62.8153 16.7751 62.5706 16.822 62.2893 16.822C61.9456 16.822 61.6539 16.7751 61.4143 16.6813C61.1851 16.5772 61.0028 16.4261 60.8674 16.2282C60.7424 16.0199 60.6747 15.7907 60.6643 15.5407ZM64.4056 16.7595V12.947H67.1556V13.4001H64.9056V14.5563H67.015V15.0095H64.9056V16.3063H67.2494V16.7595H64.4056ZM70.6626 15.4157L71.1782 15.5563C71.074 15.9626 70.8813 16.2751 70.6001 16.4938C70.3292 16.7126 69.9959 16.822 69.6001 16.822C69.1834 16.822 68.8449 16.7386 68.5844 16.572C68.3344 16.4053 68.1417 16.1657 68.0063 15.8532C67.8709 15.5303 67.8032 15.1865 67.8032 14.822C67.8032 14.4261 67.8761 14.0824 68.0219 13.7907C68.1782 13.4886 68.3969 13.2647 68.6782 13.1188C68.9594 12.9626 69.2667 12.8845 69.6001 12.8845C69.9855 12.8845 70.3084 12.9834 70.5688 13.1813C70.8292 13.3688 71.0115 13.6397 71.1157 13.9938L70.6157 14.1032C70.5219 13.8324 70.3917 13.6345 70.2251 13.5095C70.0584 13.374 69.8501 13.3063 69.6001 13.3063C69.298 13.3063 69.048 13.3793 68.8501 13.5251C68.6626 13.6605 68.5272 13.848 68.4438 14.0876C68.3605 14.3272 68.3188 14.572 68.3188 14.822C68.3188 15.1449 68.3657 15.4313 68.4594 15.6813C68.5532 15.9209 68.699 16.1032 68.8969 16.2282C69.1053 16.3428 69.324 16.4001 69.5532 16.4001C69.8344 16.4001 70.074 16.3168 70.2719 16.1501C70.4699 15.9834 70.6001 15.7386 70.6626 15.4157ZM74.2916 12.947H74.8073V15.1501C74.8073 15.5355 74.7604 15.8428 74.6666 16.072C74.5833 16.2907 74.427 16.473 74.1979 16.6188C73.9791 16.7543 73.6823 16.822 73.3073 16.822C72.9531 16.822 72.6614 16.7647 72.4323 16.6501C72.2031 16.5251 72.0416 16.348 71.9479 16.1188C71.8541 15.8793 71.8073 15.5563 71.8073 15.1501V12.947H72.3073V15.1501C72.3073 15.4834 72.3385 15.7282 72.401 15.8845C72.4635 16.0407 72.5677 16.1605 72.7135 16.2438C72.8698 16.3272 73.0573 16.3688 73.276 16.3688C73.6406 16.3688 73.901 16.2855 74.0573 16.1188C74.2135 15.9522 74.2916 15.6293 74.2916 15.1501V12.947ZM75.6551 16.7595V12.947H77.3426C77.6863 12.947 77.9467 12.9834 78.1238 13.0563C78.3009 13.1188 78.4415 13.2386 78.5457 13.4157C78.6499 13.5824 78.7019 13.7751 78.7019 13.9938C78.7019 14.2543 78.6134 14.4782 78.4363 14.6657C78.2592 14.8532 77.9884 14.973 77.6238 15.0251C77.7592 15.0876 77.8634 15.1501 77.9363 15.2126C78.0821 15.348 78.2176 15.5199 78.3426 15.7282L79.0144 16.7595H78.3738L77.8738 15.9626C77.728 15.7334 77.6082 15.5615 77.5144 15.447C77.4207 15.322 77.3321 15.2386 77.2488 15.197C77.1759 15.1449 77.103 15.1084 77.0301 15.0876C76.9676 15.0772 76.8738 15.072 76.7488 15.072H76.1551V16.7595H75.6551ZM76.1551 14.6345H77.2488C77.478 14.6345 77.6551 14.6084 77.7801 14.5563C77.9155 14.5043 78.0144 14.4261 78.0769 14.322C78.1499 14.2178 78.1863 14.1084 78.1863 13.9938C78.1863 13.8063 78.1186 13.6553 77.9832 13.5407C77.8582 13.4261 77.6499 13.3688 77.3582 13.3688H76.1551V14.6345ZM79.581 16.7595V12.947H80.081V16.7595H79.581ZM81.9363 16.7595V13.4001H80.6863V12.947H83.702V13.4001H82.452V16.7595H81.9363ZM85.3004 16.7595V15.1501L83.8316 12.947H84.441L85.191 14.0876C85.3368 14.3063 85.467 14.5251 85.5816 14.7438C85.6962 14.5459 85.8368 14.322 86.0035 14.072L86.7379 12.947H87.3316L85.8004 15.1501V16.7595H85.3004Z" fill="#7F6000"/>
<path d="M53.7972 85.0052C51.4574 85.0052 50.2867 79.8985 49.1176 74.7917C47.9486 69.6849 46.7813 64.5781 44.445 64.5781" stroke="#BF9000" stroke-width="2" stroke-miterlimit="10" stroke-linejoin="round"/>
<path fill-rule="evenodd" clip-rule="evenodd" d="M26.252 53.8967C26.252 51.7695 27.9764 50.0451 30.1036 50.0451C31.1251 50.0451 32.1048 50.4509 32.8271 51.1732C33.5494 51.8955 33.9552 52.8752 33.9552 53.8967C33.9552 56.0239 32.2308 57.7484 30.1036 57.7484C27.9764 57.7484 26.252 56.0239 26.252 53.8967Z" fill="#00B39F"/>
<path fill-rule="evenodd" clip-rule="evenodd" d="M14.4298 64.572C14.4298 62.4448 16.1542 60.7204 18.2814 60.7204C19.3029 60.7204 20.2826 61.1262 21.0049 61.8485C21.7273 62.5708 22.1331 63.5505 22.1331 64.572C22.1331 66.6992 20.4086 68.4236 18.2814 68.4236C16.1542 68.4236 14.4298 66.6992 14.4298 64.572Z" fill="#00B39F"/>
<path d="M26.252 53.8967C22.265 53.8967 18.278 57.3054 18.278 60.714" stroke="#359AC0" stroke-width="2" stroke-miterlimit="10" stroke-linejoin="round"/>
<path fill-rule="evenodd" clip-rule="evenodd" d="M79.5355 55.1257C77.619 54.2082 76.8091 51.9108 77.7266 49.9943C78.1672 49.0739 78.9553 48.3663 79.9177 48.0271C80.88 47.6878 81.9377 47.7448 82.858 48.1854C84.7745 49.1029 85.5844 51.4002 84.6669 53.3168C83.7494 55.2333 81.452 56.0432 79.5355 55.1257Z" fill="#00B39F"/>
<path fill-rule="evenodd" clip-rule="evenodd" d="M36.7347 64.5703C36.7347 62.4431 38.4592 60.7187 40.5864 60.7187C41.6079 60.7187 42.5876 61.1245 43.3099 61.8468C44.0322 62.5691 44.438 63.5488 44.438 64.5703C44.438 66.6975 42.7136 68.4219 40.5864 68.4219C38.4592 68.4219 36.7347 66.6975 36.7347 64.5703Z" fill="#00B39F"/>
<path fill-rule="evenodd" clip-rule="evenodd" d="M26.215 80.1856C26.215 78.0584 27.9395 76.334 30.0667 76.334C31.0882 76.334 32.0678 76.7398 32.7902 77.4621C33.5125 78.1844 33.9183 79.1641 33.9183 80.1856C33.9183 82.3128 32.1938 84.0372 30.0667 84.0372C27.9395 84.0372 26.215 82.3128 26.215 80.1856Z" fill="#00B39F"/>
<path d="M40.5864 68.4219C40.5864 70.3999 37.9592 71.3904 35.332 72.3779C32.7047 73.3654 30.0775 74.35 30.0775 76.3221" stroke="#359AC0" stroke-width="4" stroke-miterlimit="10" stroke-linejoin="round"/>
<path d="M77.5683 52.9346C76.181 52.9346 75.4613 53.433 74.7937 53.9314C74.1261 54.4297 73.5107 54.9281 72.2277 54.9281" stroke="#359AC0" stroke-width="2" stroke-miterlimit="10" stroke-linejoin="round"/>
<path d="M30.0666 76.334C30.0666 74.3564 27.1194 73.3663 24.1723 72.3788C21.2251 71.3913 18.278 70.4063 18.278 68.4338" stroke="#359AC0" stroke-width="2" stroke-miterlimit="10" stroke-linejoin="round"/>
<path d="M40.5864 60.7187C40.5864 57.3101 37.2762 53.9014 33.9661 53.9014" stroke="#359AC0" stroke-width="2" stroke-miterlimit="10" stroke-linejoin="round"/>
<path fill-rule="evenodd" clip-rule="evenodd" d="M68.3873 68.4172C66.2601 68.4172 64.5356 66.6928 64.5356 64.5656C64.5356 63.5441 64.9414 62.5644 65.6638 61.8421C66.3861 61.1198 67.3658 60.714 68.3873 60.714C70.5145 60.714 72.2389 62.4384 72.2389 64.5656C72.2389 66.6928 70.5145 68.4172 68.3873 68.4172Z" fill="#00B39F"/>
<path fill-rule="evenodd" clip-rule="evenodd" d="M57.8661 58.7676C55.739 58.7676 54.0145 57.0432 54.0145 54.916C54.0145 53.8945 54.4203 52.9148 55.1426 52.1925C55.865 51.4702 56.8446 51.0644 57.8661 51.0644C59.9933 51.0644 61.7178 52.7888 61.7178 54.916C61.7178 57.0432 59.9933 58.7676 57.8661 58.7676Z" fill="#00B39F"/>
<path fill-rule="evenodd" clip-rule="evenodd" d="M68.3873 58.7676C66.2601 58.7676 64.5356 57.0432 64.5356 54.916C64.5356 53.8945 64.9414 52.9148 65.6638 52.1925C66.3861 51.4702 67.3658 51.0644 68.3873 51.0644C70.5145 51.0644 72.2389 52.7888 72.2389 54.916C72.2389 57.0432 70.5145 58.7676 68.3873 58.7676Z" fill="#00B39F"/>
<path d="M64.5356 64.5656C63.8312 64.5656 63.4774 62.1537 63.1267 59.7419C62.776 57.33 62.4283 54.9181 61.73 54.9181" stroke="#359AC0" stroke-width="2" stroke-miterlimit="10" stroke-linejoin="round"/>
<path d="M61.7178 54.916C62.4222 54.916 62.776 54.9283 63.1267 54.9406C63.4774 54.9529 63.8251 54.9652 64.5234 54.9652" stroke="#359AC0" stroke-width="2" stroke-miterlimit="10" stroke-linejoin="round"/>
<path d="M68.3873 60.714C68.3873 60.2274 68.3996 59.9839 68.4119 59.7408C68.4242 59.4978 68.4365 59.2553 68.4365 58.7697" stroke="#359AC0" stroke-width="2" stroke-miterlimit="10" stroke-linejoin="round"/>
<path d="M54.0146 54.916C51.6205 54.916 50.423 57.3279 49.2263 59.7398C48.0296 62.1516 46.8336 64.5635 44.4409 64.5635" stroke="#359AC0" stroke-width="4" stroke-miterlimit="10" stroke-linejoin="round"/>
<path fill-rule="evenodd" clip-rule="evenodd" d="M68.3928 49.1181C66.2656 49.1181 64.5411 47.3937 64.5411 45.2665C64.5411 44.245 64.9469 43.2653 65.6693 42.543C66.3916 41.8206 67.3712 41.4149 68.3928 41.4149C70.52 41.4149 72.2444 43.1393 72.2444 45.2665C72.2444 47.3937 70.52 49.1181 68.3928 49.1181Z" fill="#00B39F"/>
<path d="M68.3873 51.0644C68.3873 50.5778 68.3996 50.3343 68.4119 50.0912C68.4242 49.8482 68.4365 49.6057 68.4365 49.1201" stroke="#359AC0" stroke-width="2" stroke-miterlimit="10" stroke-linejoin="round"/>
<path d="M61.7178 54.916C62.4236 54.916 62.7756 52.5041 63.1294 50.0923C63.4832 47.6804 63.8387 45.2685 64.548 45.2685" stroke="#359AC0" stroke-width="4" stroke-miterlimit="10" stroke-linejoin="round"/>
<path fill-rule="evenodd" clip-rule="evenodd" d="M68.1699 98.5064C66.0427 98.5064 64.3182 96.782 64.3182 94.6548C64.3182 93.6333 64.724 92.6536 65.4464 91.9313C66.1687 91.209 67.1483 90.8032 68.1699 90.8032C70.2971 90.8032 72.0215 92.5276 72.0215 94.6548C72.0215 96.782 70.2971 98.5064 68.1699 98.5064Z" fill="#00B39F"/>
<path fill-rule="evenodd" clip-rule="evenodd" d="M57.6489 88.8569C55.5217 88.8569 53.7972 87.1324 53.7972 85.0052C53.7972 83.9837 54.203 83.0041 54.9254 82.2817C55.6477 81.5594 56.6273 81.1536 57.6489 81.1536C59.776 81.1536 61.5005 82.8781 61.5005 85.0052C61.5005 87.1324 59.776 88.8569 57.6489 88.8569Z" fill="#00B39F"/>
<path fill-rule="evenodd" clip-rule="evenodd" d="M68.1699 88.8569C66.0427 88.8569 64.3182 87.1324 64.3182 85.0052C64.3182 83.9837 64.724 83.0041 65.4464 82.2817C66.1687 81.5594 67.1483 81.1536 68.1699 81.1536C70.2971 81.1536 72.0215 82.8781 72.0215 85.0052C72.0215 87.1324 70.2971 88.8569 68.1699 88.8569Z" fill="#00B39F"/>
<path d="M64.3183 94.6548C63.6138 94.6548 63.2601 92.243 62.9094 89.8311C62.5587 87.4192 62.211 85.0073 61.5126 85.0073" stroke="#CD502F" stroke-width="2" stroke-miterlimit="10" stroke-linejoin="round"/>
<path d="M61.5005 85.0052C62.2049 85.0052 62.5587 85.0176 62.9094 85.0299C63.2601 85.0422 63.6078 85.0545 64.3061 85.0545" stroke="#CD502F" stroke-width="2" stroke-miterlimit="10" stroke-linejoin="round"/>
<path d="M68.1699 90.8032C68.1699 90.3166 68.1823 90.0731 68.1945 89.83C68.2068 89.587 68.2191 89.3445 68.2191 88.8589" stroke="#CD502F" stroke-width="2" stroke-miterlimit="10" stroke-linejoin="round"/>
<path fill-rule="evenodd" clip-rule="evenodd" d="M68.1754 79.2073C66.0482 79.2073 64.3238 77.4828 64.3238 75.3557C64.3238 74.3341 64.7296 73.3545 65.4519 72.6321C66.1742 71.9098 67.1539 71.504 68.1754 71.504C70.3026 71.504 72.027 73.2285 72.027 75.3557C72.027 77.4828 70.3026 79.2073 68.1754 79.2073Z" fill="#00B39F"/>
<path d="M68.1699 81.1536C68.1699 80.6671 68.1823 80.4235 68.1945 80.1805C68.2068 79.9374 68.2191 79.6949 68.2191 79.2094" stroke="#359AC0" stroke-width="2" stroke-miterlimit="10" stroke-linejoin="round"/>
<path d="M61.5005 85.0052C62.2063 85.0052 62.5583 82.5934 62.9121 80.1815C63.2659 77.7696 63.6214 75.3577 64.3307 75.3577" stroke="#359AC0" stroke-width="2" stroke-miterlimit="10" stroke-linejoin="round"/>
<path d="M58.0999 115.336L56.8342 111.977H56.803C56.8134 112.039 56.8186 112.123 56.8186 112.227C56.829 112.331 56.8342 112.446 56.8342 112.571C56.8446 112.685 56.8499 112.805 56.8499 112.93V115.336H56.428V111.539H57.0842L58.2874 114.696H58.3186L59.5374 111.539H60.178V115.336H59.7405V112.899C59.7405 112.784 59.7405 112.675 59.7405 112.571C59.7509 112.456 59.7561 112.347 59.7561 112.243C59.7665 112.138 59.7769 112.05 59.7874 111.977H59.7561L58.4749 115.336H58.0999ZM63.3452 115.336H61.2202V111.539H63.3452V111.93H61.6733V113.149H63.2514V113.539H61.6733V114.946H63.3452V115.336ZM66.3371 114.321C66.3371 114.55 66.2798 114.743 66.1652 114.899C66.0506 115.055 65.8944 115.175 65.6964 115.258C65.4985 115.342 65.2589 115.383 64.9777 115.383C64.8423 115.383 64.7069 115.378 64.5714 115.368C64.4464 115.357 64.3267 115.342 64.2121 115.321C64.1079 115.289 64.0142 115.253 63.9308 115.211V114.789C64.0662 114.842 64.2277 114.894 64.4152 114.946C64.6027 114.987 64.8006 115.008 65.0089 115.008C65.1964 115.008 65.3527 114.982 65.4777 114.93C65.6131 114.878 65.7121 114.805 65.7746 114.711C65.8475 114.618 65.8839 114.503 65.8839 114.368C65.8839 114.232 65.8527 114.123 65.7902 114.039C65.7381 113.946 65.6444 113.862 65.5089 113.789C65.3839 113.717 65.2069 113.644 64.9777 113.571C64.811 113.508 64.6652 113.446 64.5402 113.383C64.4256 113.31 64.3267 113.232 64.2433 113.149C64.16 113.055 64.0975 112.951 64.0558 112.836C64.0142 112.722 63.9933 112.592 63.9933 112.446C63.9933 112.248 64.0402 112.076 64.1339 111.93C64.2381 111.784 64.3839 111.675 64.5714 111.602C64.7589 111.519 64.9673 111.477 65.1964 111.477C65.4048 111.477 65.5923 111.498 65.7589 111.539C65.936 111.571 66.0975 111.623 66.2433 111.696L66.1027 112.071C65.9673 112.008 65.8214 111.961 65.6652 111.93C65.5089 111.888 65.3527 111.868 65.1964 111.868C65.0298 111.868 64.8891 111.894 64.7746 111.946C64.6704 111.987 64.5871 112.055 64.5246 112.149C64.4621 112.232 64.4308 112.331 64.4308 112.446C64.4308 112.581 64.4569 112.696 64.5089 112.789C64.5714 112.873 64.6652 112.951 64.7902 113.024C64.9152 113.086 65.0819 113.154 65.2902 113.227C65.5089 113.31 65.6964 113.399 65.8527 113.493C66.0089 113.586 66.1287 113.701 66.2121 113.836C66.2954 113.961 66.3371 114.123 66.3371 114.321ZM69.9931 115.336H69.5399V113.539H67.5556V115.336H67.1024V111.539H67.5556V113.149H69.5399V111.539H69.9931V115.336ZM73.1559 115.336H71.0309V111.539H73.1559V111.93H71.484V113.149H73.0621V113.539H71.484V114.946H73.1559V115.336ZM75.0228 111.539C75.3353 111.539 75.5905 111.576 75.7884 111.649C75.9968 111.722 76.1478 111.842 76.2415 112.008C76.3457 112.164 76.3978 112.362 76.3978 112.602C76.3978 112.8 76.3613 112.967 76.2884 113.102C76.2155 113.237 76.1218 113.347 76.0072 113.43C75.8926 113.513 75.7676 113.581 75.6322 113.633L76.679 115.336H76.1634L75.2259 113.743H74.4447V115.336H73.9915V111.539H75.0228ZM74.9915 111.914H74.4447V113.368H75.0384C75.3509 113.368 75.5801 113.305 75.7259 113.18C75.8718 113.055 75.9447 112.873 75.9447 112.633C75.9447 112.373 75.8665 112.19 75.7103 112.086C75.554 111.972 75.3145 111.914 74.9915 111.914ZM78.2487 113.446L79.2644 111.539H79.7487L78.4831 113.868V115.336H78.03V113.883L76.7644 111.539H77.2487L78.2487 113.446ZM82.5245 113.43C82.5245 113.743 82.4984 114.019 82.4464 114.258C82.4047 114.498 82.3318 114.706 82.2276 114.883C82.1234 115.05 81.9932 115.175 81.837 115.258C81.6807 115.342 81.488 115.383 81.2589 115.383C80.9776 115.383 80.7432 115.31 80.5557 115.164C80.3786 115.008 80.2432 114.784 80.1495 114.493C80.0557 114.201 80.0089 113.847 80.0089 113.43C80.0089 113.024 80.0505 112.675 80.1339 112.383C80.2172 112.092 80.3474 111.868 80.5245 111.711C80.712 111.555 80.9568 111.477 81.2589 111.477C81.5505 111.477 81.7849 111.555 81.962 111.711C82.1495 111.868 82.2901 112.092 82.3839 112.383C82.4776 112.675 82.5245 113.024 82.5245 113.43ZM80.4464 113.43C80.4464 113.784 80.4724 114.081 80.5245 114.321C80.5766 114.55 80.6599 114.727 80.7745 114.852C80.8995 114.967 81.0609 115.024 81.2589 115.024C81.4568 115.024 81.613 114.967 81.7276 114.852C81.8526 114.727 81.9411 114.55 81.9932 114.321C82.0557 114.081 82.087 113.784 82.087 113.43C82.087 113.076 82.0557 112.784 81.9932 112.555C81.9411 112.315 81.8526 112.138 81.7276 112.024C81.613 111.909 81.4568 111.852 81.2589 111.852C81.0609 111.852 80.8995 111.909 80.7745 112.024C80.6599 112.138 80.5766 112.315 80.5245 112.555C80.4724 112.784 80.4464 113.076 80.4464 113.43ZM84.6647 115.336H84.2429V112.649C84.2429 112.545 84.2429 112.456 84.2429 112.383C84.2429 112.31 84.2429 112.243 84.2429 112.18C84.2429 112.118 84.2481 112.055 84.2585 111.993C84.2064 112.045 84.1543 112.092 84.1022 112.133C84.0606 112.164 84.0033 112.211 83.9304 112.274L83.4929 112.618L83.2741 112.321L84.3054 111.539H84.6647V115.336ZM88.7737 114.461H88.2112V115.336H87.7894V114.461H85.9456V114.086L87.7581 111.508H88.2112V114.071H88.7737V114.461ZM87.7894 114.071V112.821C87.7894 112.727 87.7894 112.644 87.7894 112.571C87.7894 112.487 87.7894 112.414 87.7894 112.352C87.7998 112.279 87.805 112.217 87.805 112.164C87.8154 112.102 87.8206 112.039 87.8206 111.977H87.7894C87.7581 112.05 87.7217 112.123 87.68 112.196C87.6383 112.269 87.5967 112.336 87.555 112.399L86.3831 114.071H87.7894Z" fill="#999999"/>
<g clip-path="url(#clip0_5934_25947)">
<path d="M51.4395 109.55C51.6476 109.81 51.7999 110.1 51.9165 110.41C52.0669 110.808 52.1356 111.223 52.0496 111.643C51.9344 112.207 51.6043 112.605 51.0524 112.796C50.838 112.87 50.6153 112.9 50.3939 112.807C50.3634 112.796 50.3348 112.78 50.3092 112.761C50.3061 112.892 50.2565 113.018 50.1691 113.117C50.1981 113.104 50.2288 113.095 50.2603 113.091C50.2907 113.085 50.3227 113.081 50.3525 113.078C50.6478 113.054 50.9321 112.991 51.202 112.862C51.6182 112.663 51.967 112.379 52.2634 112.027C52.4328 111.83 52.5746 111.61 52.685 111.375C52.8411 111.027 52.9414 110.657 52.9822 110.279C53.0203 109.952 53.0101 109.632 52.9774 109.308C52.9695 109.23 52.9358 109.198 52.8657 109.186C52.6854 109.154 52.505 109.118 52.3277 109.074C51.864 108.962 51.3966 108.866 50.9321 108.759C50.7668 108.72 50.601 108.686 50.4353 108.649C50.5568 108.765 50.6873 108.86 50.8137 108.961C51.0378 109.14 51.2588 109.324 51.4395 109.55Z" fill="#00B39F"/>
<path d="M46.3355 113.569C46.4776 112.971 46.7128 112.422 47.1985 112.018C47.6408 111.65 48.1415 111.535 48.6934 111.727C48.9719 111.823 49.2106 111.979 49.3375 112.262C49.3501 112.287 49.3592 112.314 49.3644 112.342C49.4509 112.259 49.5617 112.206 49.6805 112.192C49.6732 112.187 49.6657 112.182 49.6574 112.175C49.488 112.039 49.3269 111.89 49.13 111.79C48.4303 111.433 47.6953 111.387 46.9484 111.578C46.1563 111.779 45.544 112.259 45.0416 112.892C44.9852 112.963 44.9898 113.008 45.0362 113.08C45.4258 113.686 45.8116 114.295 46.1987 114.903C46.2499 114.983 46.3028 115.062 46.3731 115.168C46.3806 114.989 46.3428 114.846 46.3226 114.702C46.2695 114.323 46.2458 113.945 46.3355 113.569Z" fill="#00D3A9"/>
<path d="M47.5282 109.362C47.7973 109.317 48.0686 109.287 48.3411 109.272C48.5883 109.259 48.8297 109.308 49.0695 109.37C49.6351 109.518 50.1423 109.765 50.5144 110.234C50.8695 110.681 50.9548 111.182 50.7642 111.719C50.6668 111.994 50.5021 112.222 50.221 112.345C50.2015 112.355 50.1803 112.361 50.1585 112.362C50.2428 112.452 50.295 112.567 50.3069 112.69C50.3196 112.669 50.3339 112.65 50.3498 112.632C50.5558 112.387 50.7423 112.13 50.8493 111.823C50.9896 111.421 51.0481 110.994 51.0214 110.569C51.001 110.153 50.8959 109.746 50.7127 109.372C50.4501 108.842 50.0718 108.406 49.6097 108.039C49.5409 107.984 49.4909 107.991 49.4191 108.037C48.8243 108.419 48.2258 108.796 47.631 109.177C47.5386 109.236 47.4393 109.287 47.35 109.371C47.4096 109.375 47.4693 109.372 47.5282 109.362Z" fill="#00D3A9"/>
<path d="M45.8562 111.825C46.0903 111.529 46.3141 111.223 46.6287 111.004C47.2115 110.6 47.8408 110.338 48.5642 110.439C49.1469 110.521 49.5681 110.838 49.7785 111.4C49.8689 111.641 49.8972 111.89 49.7914 112.14C49.7848 112.156 49.7762 112.172 49.7658 112.187C49.8855 112.19 50.001 112.232 50.0951 112.306C50.0927 112.298 50.0907 112.289 50.0893 112.281C50.0838 112.25 50.0836 112.218 50.0811 112.188C50.0626 111.942 50.0224 111.702 49.9342 111.469C49.7469 110.976 49.4266 110.585 49.0314 110.245C48.4487 109.743 47.7619 109.528 47.0079 109.499C46.794 109.491 46.5792 109.489 46.3648 109.517C46.2169 109.537 46.2056 109.538 46.1738 109.684C46.0363 110.312 45.8982 110.94 45.7594 111.569C45.7234 111.732 45.6883 111.896 45.6479 112.083C45.743 111.997 45.7929 111.905 45.8562 111.825Z" fill="#00B39F"/>
<path d="M54.465 112.419C54.0738 111.81 53.6869 111.198 53.2963 110.589C53.2444 110.508 53.2032 110.418 53.1162 110.328C53.1412 110.541 53.1593 110.726 53.1855 110.91C53.2401 111.293 53.2397 111.674 53.1381 112.051C52.9789 112.644 52.7135 113.171 52.2145 113.554C51.9412 113.765 51.6251 113.86 51.285 113.864C51.0468 113.868 50.8201 113.799 50.6093 113.686C50.4253 113.587 50.2688 113.459 50.1762 113.266C50.1471 113.205 50.1346 113.168 50.144 113.144C50.0542 113.233 49.9368 113.289 49.811 113.303C49.8439 113.324 49.8752 113.347 49.9046 113.373C50.0794 113.515 50.254 113.657 50.4595 113.755C51.0322 114.027 51.6372 114.084 52.253 113.987C53.1818 113.842 53.8856 113.32 54.463 112.603C54.5154 112.537 54.5089 112.487 54.465 112.419Z" fill="#00D3A9"/>
<path d="M53.2338 114.174C52.6586 114.753 51.9681 115.076 51.1379 115.078C50.5585 115.08 49.945 114.699 49.7392 114.142C49.654 113.911 49.5974 113.676 49.6851 113.433C49.7084 113.368 49.7242 113.327 49.7419 113.307C49.616 113.305 49.4943 113.261 49.3966 113.182C49.4071 113.213 49.4135 113.245 49.4155 113.278C49.4339 113.457 49.4432 113.638 49.4967 113.81C49.7818 114.73 50.3949 115.359 51.2613 115.74C51.8149 115.984 52.4041 116.058 53.0095 115.995C53.28 115.967 53.2815 115.972 53.3354 115.735C53.484 115.081 53.6334 114.426 53.7774 113.771C53.8016 113.661 53.8455 113.552 53.8434 113.409C53.8095 113.455 53.7911 113.479 53.7735 113.504C53.6055 113.736 53.4361 113.971 53.2338 114.174Z" fill="#00B39F"/>
<path d="M48.1586 116.063C47.8945 115.767 47.7055 115.425 47.5742 115.053C47.4493 114.698 47.3758 114.332 47.4356 113.952C47.5221 113.399 47.8027 112.986 48.3192 112.755C48.569 112.643 48.8335 112.59 49.1059 112.695C49.1357 112.704 49.1642 112.718 49.1908 112.735C49.1931 112.615 49.2342 112.498 49.308 112.404C49.2859 112.408 49.2636 112.411 49.2412 112.412C49.0929 112.422 48.9454 112.44 48.7995 112.469C48.2953 112.576 47.877 112.839 47.5092 113.187C47.0187 113.65 46.7026 114.212 46.5702 114.876C46.4897 115.279 46.4784 115.684 46.509 116.093C46.5207 116.25 46.586 116.307 46.7442 116.339C47.405 116.473 48.0614 116.63 48.7203 116.773C48.8324 116.798 48.9427 116.84 49.0911 116.844C48.9831 116.761 48.8992 116.697 48.8152 116.633C48.5841 116.457 48.3527 116.281 48.1586 116.063Z" fill="#00B39F"/>
<path d="M52.0986 116.118C51.8636 116.16 51.6272 116.188 51.391 116.211C51.1972 116.23 51.0006 116.239 50.8104 116.211C50.5358 116.172 50.2672 116.099 50.0112 115.992C49.6129 115.826 49.2518 115.605 48.9837 115.258C48.6603 114.838 48.5513 114.37 48.7105 113.86C48.8008 113.571 48.9492 113.313 49.2418 113.173C49.2938 113.148 49.3296 113.136 49.355 113.14C49.2672 113.052 49.2113 112.938 49.196 112.814C49.1831 112.833 49.1692 112.851 49.1544 112.868C49.02 113.031 48.8822 113.191 48.7846 113.381C48.5492 113.839 48.4632 114.325 48.4759 114.838C48.4828 115.216 48.5609 115.589 48.7059 115.938C48.959 116.541 49.3617 117.033 49.8726 117.439C49.9523 117.503 50.0097 117.51 50.099 117.452C50.6135 117.119 51.1327 116.792 51.6501 116.463C51.8214 116.353 51.9918 116.244 52.165 116.132C52.1564 116.124 52.1456 116.118 52.1339 116.116C52.1221 116.113 52.1099 116.114 52.0986 116.118Z" fill="#00D3A9"/>
</g>
<defs>
<clipPath id="clip0_5934_25947">
<rect width="9.5" height="9.49292" fill="white" transform="translate(45 108)"/>
</clipPath>
</defs>
</svg>
