<svg xmlns="http://www.w3.org/2000/svg" width="41" height="39" fill="none" viewBox="0 0 41 39"><path fill="#fff" d="M39.7383 19.4172C39.7057 19.1287 39.5642 18.8722 39.3466 18.6798C39.2378 18.573 39.1181 18.4982 38.9766 18.4554C38.9657 18.4234 38.944 18.3913 38.9331 18.3593C38.759 17.8463 38.5958 17.3334 38.4216 16.8204C38.3455 16.596 38.2693 16.3609 38.204 16.1365C37.7905 14.8648 37.3662 13.5824 36.9527 12.3107C36.8221 11.9047 36.6806 11.4986 36.5392 11.0925C36.5283 11.0497 36.5065 10.9963 36.4956 10.9536C36.3651 10.5368 36.2236 10.12 36.093 9.70326C36.0713 9.61777 36.006 9.54296 36.0713 9.45747C36.1366 9.32924 36.1801 9.19031 36.1801 9.0407C36.2345 8.43158 35.8319 7.87588 35.2334 7.73696C35.0811 7.69421 34.9178 7.68353 34.7655 7.7049C34.6132 7.75833 34.4935 7.69421 34.3738 7.59804C34.1126 7.40568 33.8406 7.22401 33.5686 7.03166C33.5577 7.02097 33.5359 6.9996 33.525 6.98891C32.3281 6.14468 31.142 5.30046 29.945 4.44554C29.401 4.06083 28.846 3.66544 28.302 3.28073C28.1605 3.17386 28.019 3.067 27.8667 2.97082C27.7361 2.88533 27.6382 2.79984 27.6491 2.62886C27.6491 2.60748 27.6382 2.58611 27.6273 2.57542C27.6164 2.56474 27.6164 2.55405 27.6164 2.55405C27.4858 1.93424 26.6371 1.50678 25.9625 1.95561C25.8972 1.98767 25.8428 2.03042 25.7992 2.08385C25.7557 2.12659 25.6904 2.14797 25.636 2.13728C25.4619 2.11591 25.2987 2.10522 25.1246 2.08385C25.1137 2.08385 25.1028 2.07316 25.0919 2.07316C25.0702 2.06248 25.0375 2.06248 25.0158 2.06248H24.9287C24.9178 2.06248 24.907 2.05179 24.8961 2.05179C24.8743 2.0411 24.8417 2.0411 24.8199 2.0411C24.7873 2.0411 24.7655 2.0411 24.7329 2.0411C24.722 2.03042 24.7111 2.03042 24.7002 2.03042C24.6784 2.01973 24.6458 2.01973 24.624 2.01973H24.5588C24.3194 1.98767 24.0909 1.9663 23.8515 1.93424C23.1877 1.85943 22.5239 1.78463 21.8602 1.72051C21.3923 1.66708 20.9244 1.62433 20.4456 1.5709C20.1409 1.54953 19.8362 1.51747 19.5316 1.47472C19.2051 1.43198 18.8896 1.39992 18.5631 1.35717C18.5087 1.35717 18.4543 1.32511 18.4216 1.28237C18.3455 1.15413 18.2367 1.04727 18.1061 0.983148C17.9429 0.854911 17.7361 0.780106 17.5185 0.76942C17.5185 0.758733 17.5185 0.758733 17.5185 0.748047H17.3117C17.3009 0.780106 17.2791 0.76942 17.2573 0.76942C16.92 0.812165 16.6153 0.993834 16.4195 1.26099C16.3651 1.31443 16.3215 1.38923 16.2998 1.46404C16.278 1.51747 16.2345 1.5709 16.1801 1.59227C16.0822 1.63502 15.9733 1.68845 15.8754 1.74188C15.8645 1.75257 15.8428 1.75257 15.8319 1.76326C14.352 2.47925 12.8721 3.19523 11.3923 3.91122C11.0767 4.06083 10.772 4.21044 10.4674 4.36005C10.0321 4.5631 9.60772 4.76614 9.17247 4.97987C9.04189 5.0333 8.91131 5.09742 8.78074 5.16153C8.65016 5.23634 8.54135 5.27909 8.42165 5.17222C8.42165 5.17222 8.41077 5.17222 8.39989 5.17222C8.35636 5.15085 8.31284 5.12948 8.26931 5.1081C7.64907 4.89437 6.96354 5.21497 6.74592 5.82409C6.64798 6.09125 6.65886 6.39047 6.76768 6.65763C6.78944 6.70038 6.8112 6.75381 6.83297 6.79656C6.86561 6.87136 6.94178 6.91411 6.96354 6.9996C6.95266 7.01028 6.94178 7.02097 6.9309 7.03166C6.23449 8.02549 5.54896 9.03002 4.85255 10.0239C4.51523 10.5047 4.17791 10.9963 3.85147 11.4772C3.74265 11.6375 3.62296 11.7978 3.51414 11.9581C3.27475 12.3107 3.02448 12.6634 2.78509 13.0054C2.69804 13.1229 2.61099 13.2511 2.52394 13.3794C2.50217 13.4221 2.44777 13.4542 2.40424 13.4542C1.88193 13.5076 1.45756 13.8816 1.34875 14.3839C1.33786 14.4053 1.35963 14.448 1.3161 14.4587V14.79C1.35963 14.822 1.34875 14.8648 1.35963 14.9075C1.44668 15.2709 1.71871 15.5701 2.0778 15.709C2.13221 15.7304 2.12132 15.7838 2.12132 15.8266C2.12132 16.4784 2.12132 17.1303 2.13221 17.7715C2.13221 17.7822 2.13221 17.8036 2.13221 17.8142C2.13221 19.2997 2.13221 20.7958 2.13221 22.2812C2.13221 22.3025 2.13221 22.3132 2.13221 22.3346C2.14309 22.7834 2.14309 23.2323 2.13221 23.6811C1.72959 23.82 1.4358 24.1513 1.35963 24.5574C1.34875 24.6001 1.37051 24.6429 1.32698 24.6749V24.9421C1.34875 24.9421 1.34875 24.9635 1.34875 24.9848C1.44668 25.5726 1.97987 26 2.58922 25.968C2.63275 25.968 2.64363 25.9893 2.66539 26.0107C2.75244 26.1283 2.8395 26.2565 2.93743 26.3741C3.08977 26.5771 3.23123 26.7908 3.39445 26.9832C3.40533 26.9939 3.40533 27.0152 3.41621 27.0259C3.76441 27.5068 4.1235 27.9877 4.48259 28.4579C4.67845 28.7251 4.8852 28.9815 5.08106 29.2487C5.16811 29.3663 5.25517 29.4838 5.34222 29.6014C5.60337 29.9433 5.86452 30.296 6.12568 30.6379C6.12568 30.6486 6.12568 30.6593 6.13656 30.67C6.44124 31.0761 6.74592 31.4822 7.06148 31.8882C7.14853 32.0058 7.25734 32.1234 7.17029 32.2836C7.12676 32.3264 7.14853 32.3798 7.14853 32.4333C7.08324 33.1172 7.60555 33.7263 8.30195 33.7797C8.46518 33.7904 8.63928 33.7797 8.8025 33.7263C8.93308 33.6515 9.05277 33.6943 9.18335 33.7584C9.25952 33.8011 9.34657 33.8439 9.43362 33.8866C9.60772 33.9614 9.76006 34.0683 9.94505 34.1217C9.96681 34.1324 9.99945 34.1538 10.0212 34.1645C11.1746 34.7201 12.3281 35.2865 13.4706 35.8422C13.9712 36.0773 14.4608 36.3231 14.9614 36.5582C15.2334 36.6971 15.5054 36.8361 15.7884 36.9536C15.8754 36.9857 15.9407 37.0498 15.9733 37.1353C15.9951 37.1673 16.0169 37.1994 16.0386 37.2208C16.278 37.5627 16.6589 37.7871 17.0724 37.8192C17.0724 37.8299 17.0724 37.8299 17.0724 37.8406H17.3226C17.3335 37.8085 17.3662 37.8192 17.3879 37.8192C17.6055 37.7978 17.8014 37.723 17.9755 37.6055C18.019 37.5948 18.0734 37.5627 18.1061 37.52C18.1714 37.4452 18.2584 37.4131 18.3564 37.4131C18.3999 37.4131 18.4325 37.4131 18.4761 37.4131C20.043 37.4131 21.6099 37.4131 23.1768 37.4131C23.4706 37.4238 23.7535 37.3811 24.0256 37.2742C24.1235 37.2315 24.2323 37.1994 24.3302 37.1673C24.7546 37.0177 25.179 36.8788 25.6034 36.7292C25.6251 36.7185 25.6578 36.7185 25.6795 36.7078C26.3324 36.4834 26.9853 36.259 27.6382 36.0346C27.6926 36.0132 27.7579 35.9918 27.8123 36.0346C28.204 36.2376 28.6828 36.2376 29.0745 36.0239C29.4445 35.8422 29.6948 35.5003 29.7601 35.1049C29.7709 34.9766 29.8471 34.8591 29.9668 34.795C30.8373 34.1858 31.697 33.5767 32.5566 32.9569C32.8939 32.7111 33.2312 32.476 33.5794 32.2302C33.7427 32.102 33.9168 31.9844 34.1017 31.8669C34.3085 31.728 34.5152 31.5783 34.722 31.4287C34.7546 31.4074 34.7873 31.3646 34.8417 31.4074C35.0484 31.5249 35.2769 31.5783 35.5163 31.5463C36.1801 31.4929 36.6697 30.9265 36.6153 30.2853C36.5936 30.0395 36.4956 29.8151 36.3433 29.6227C36.3107 29.5907 36.3324 29.5693 36.3324 29.5372C36.3433 29.5266 36.3433 29.5159 36.3542 29.5052C36.4848 29.0564 36.6262 28.6182 36.7568 28.1694C36.8112 27.9984 36.8656 27.8381 36.92 27.6671C37.1703 26.8443 37.4206 26.0321 37.6708 25.2092C37.8449 24.6749 38.0082 24.1299 38.1714 23.5956C38.2476 23.3391 38.3237 23.0826 38.4108 22.8262C38.6284 22.1209 38.846 21.4263 39.0637 20.7209C39.0637 20.6568 39.1072 20.5927 39.1725 20.582C39.2813 20.5393 39.3792 20.4752 39.4554 20.4004C39.6404 20.2401 39.7818 20.0263 39.8362 19.7912C39.8471 19.7485 39.8362 19.7057 39.8798 19.6737V19.4065C39.7492 19.4279 39.7383 19.4279 39.7383 19.4172ZM34.1017 30.5097C34.1235 30.5845 34.08 30.67 34.0147 30.7021C33.8515 30.7982 33.6991 30.9158 33.5468 31.0226C33.3944 31.1188 33.2421 31.2257 33.1115 31.3432C33.1115 31.3539 33.1006 31.3646 33.0898 31.3753C32.6219 31.6852 32.1648 31.9951 31.7078 32.3264C31.4249 32.5187 31.142 32.7218 30.8591 32.9141C30.3694 33.2454 29.8906 33.5874 29.401 33.9187C29.3683 33.94 29.3466 33.9828 29.2922 33.94C29.2378 33.8866 29.1725 33.8332 29.1181 33.7797C29.2378 33.5553 29.3574 33.3309 29.4771 33.0958C29.6295 32.8393 29.7709 32.5722 29.9015 32.305C30.0321 32.102 30.13 31.8882 30.2388 31.6745C30.3803 31.4608 30.4782 31.2257 30.5979 31.0013C30.6741 30.8517 30.7611 30.7127 30.8373 30.5631C30.957 30.328 31.0876 30.0929 31.2073 29.8578C31.4358 29.4411 31.6643 29.0243 31.8819 28.5968C31.8928 28.5861 31.8928 28.5755 31.9037 28.5648C32.0452 28.3083 32.1757 28.0518 32.3063 27.7847C32.4369 27.5175 32.5892 27.2717 32.7198 27.0152C32.7633 26.9404 32.8069 26.8656 32.8504 26.7801C32.981 26.545 33.1006 26.2886 33.2421 26.0642C33.2747 26.0855 33.3183 26.1069 33.3727 26.1069C33.438 26.139 33.5141 26.1603 33.5794 26.1603C33.6774 26.139 33.7753 26.2138 33.7862 26.3099C33.7862 26.3206 33.7862 26.342 33.7862 26.3527C33.7862 26.3634 33.7971 26.3741 33.7971 26.3741C33.8406 26.5664 33.895 26.7695 33.9603 26.9511C33.982 27.0794 34.0256 27.2076 34.0691 27.3358C34.1017 27.4748 34.1453 27.6137 34.1888 27.7526C34.2323 27.945 34.2867 28.148 34.352 28.3297C34.3847 28.4793 34.4282 28.6289 34.4826 28.7678C34.537 28.9495 34.5805 29.1205 34.624 29.3021C34.6349 29.3235 34.6458 29.3449 34.6458 29.3769C34.6458 29.3876 34.6349 29.3876 34.6349 29.3983C34.624 29.409 34.624 29.409 34.6132 29.4197C34.6132 29.4197 34.6132 29.4197 34.6132 29.4304C34.3955 29.5693 34.2323 29.7723 34.1561 30.0181C34.1453 30.0288 34.1453 30.0288 34.1344 30.0395C34.1017 30.1998 34.08 30.3601 34.1017 30.5097ZM9.6186 32.7752C9.71654 32.1875 9.40098 31.6211 8.84602 31.3967C8.81338 31.386 8.76986 31.386 8.75897 31.3326C8.79162 31.215 8.81338 31.0868 8.82426 30.9585C8.86779 30.7769 8.90043 30.5845 8.93308 30.3922C8.94396 30.3815 8.94396 30.3708 8.94396 30.3494C8.9766 30.2105 9.00925 30.0716 9.02013 29.9326C9.05277 29.8151 9.07453 29.6975 9.08542 29.58C9.12894 29.4304 9.1507 29.2808 9.17247 29.1205C9.18335 29.1098 9.18335 29.0991 9.17247 29.0777C9.19423 28.9922 9.25952 28.9495 9.34657 28.9281C9.37921 28.9174 9.41186 28.8961 9.43362 28.8854C9.47715 28.8854 9.50979 28.8212 9.57508 28.8747C9.85799 29.1632 10.1409 29.4411 10.4238 29.7189C10.6741 29.9647 10.9135 30.1998 11.1638 30.4349C11.3814 30.67 11.6208 30.8944 11.8493 31.1188C12.0343 31.3112 12.2084 31.5035 12.4042 31.6745C12.6327 31.8989 12.8504 32.1127 13.0789 32.3371L14.0691 33.3095C14.3411 33.5874 14.624 33.8759 14.907 34.1431C15.1681 34.3996 15.4293 34.6667 15.6904 34.9232C15.7122 34.9552 15.7448 34.9873 15.7775 35.0087C15.908 35.1262 16.0277 35.2438 16.1366 35.372C15.9951 35.5003 15.8863 35.6605 15.8101 35.8422C15.7666 35.8422 15.7122 35.8422 15.6687 35.8209C15.6578 35.8209 15.6469 35.8209 15.636 35.8209C15.6143 35.8102 15.6034 35.7995 15.5816 35.7888C14.0909 35.0621 12.5892 34.3354 11.0985 33.6088C10.7612 33.4485 10.4238 33.2882 10.0865 33.1279C10.0756 33.1172 10.0539 33.1065 10.043 33.0851C9.94505 33.021 9.83623 32.9676 9.72742 32.9248C9.66213 32.9035 9.6186 32.8393 9.62949 32.7645C9.6186 32.7966 9.6186 32.7859 9.6186 32.7752ZM35.4293 28.5541C35.4075 28.5755 35.3857 28.5968 35.3749 28.5541C35.3749 28.5541 35.364 28.5541 35.364 28.5434C35.3096 28.3083 35.2552 28.0839 35.2008 27.8488C35.1572 27.6778 35.1137 27.5068 35.0702 27.3358L34.907 26.6733C34.8852 26.513 34.8308 26.3741 34.7981 26.2138C34.7873 26.171 34.7764 26.1176 34.7655 26.0748C34.722 25.968 34.7437 25.8504 34.8308 25.7756C35.0702 25.5085 35.1899 25.1665 35.1572 24.8138C35.1572 24.7818 35.1572 24.7604 35.1464 24.7284C35.1464 24.7177 35.1464 24.6963 35.1355 24.6856V24.6429C35.1137 24.5467 35.2225 24.5146 35.2443 24.4398C35.266 24.4184 35.2769 24.3971 35.2987 24.3757C35.4728 24.194 35.636 24.0017 35.7884 23.7986C35.9516 23.6277 36.1039 23.446 36.2454 23.2643C36.278 23.2216 36.3107 23.1788 36.3542 23.1468C36.55 22.9437 36.735 22.73 36.8983 22.5056C37.0724 22.3239 37.2247 22.1316 37.377 21.9499C37.4859 21.8216 37.5838 21.7041 37.6926 21.5759C37.7361 21.5438 37.747 21.4583 37.8232 21.4583C37.8232 21.5117 37.8123 21.5545 37.7905 21.6079C37.747 21.7255 37.7035 21.843 37.6817 21.9606V21.9713C37.6708 21.9819 37.6708 21.9926 37.6708 22.0033C37.3335 22.9972 36.9962 23.9803 36.6589 24.9741C36.3868 25.7649 36.1148 26.5664 35.8536 27.3572C35.7775 27.5603 35.7013 27.7633 35.6469 27.977C35.5598 28.148 35.4946 28.351 35.4293 28.5541ZM5.32045 25.7649C5.29869 25.7542 5.27693 25.7542 5.25517 25.7649C5.11371 25.6474 4.95049 25.5726 4.7655 25.5298V25.5191C4.75462 25.4978 4.73286 25.4871 4.72198 25.4764C4.53699 25.3909 4.34113 25.3054 4.15614 25.2092C4.13438 25.1986 4.11262 25.1986 4.09086 25.2092C4.03645 25.1558 3.96028 25.1131 3.88411 25.0917C3.7753 25.0596 3.71001 24.9528 3.73177 24.8459C3.76441 24.4719 3.59031 24.0979 3.27475 23.8734C3.23123 23.8414 3.20946 23.788 3.23123 23.7345C3.27475 23.5849 3.3074 23.4246 3.35092 23.275C3.3618 23.2323 3.37268 23.1895 3.3618 23.1468C3.38357 23.1361 3.39445 23.1147 3.39445 23.0933C3.43797 22.9437 3.47062 22.8048 3.50326 22.6552C3.51414 22.6231 3.51414 22.5911 3.49238 22.5697C3.51414 22.5697 3.53591 22.5483 3.53591 22.527C3.60119 22.3239 3.64472 22.1102 3.67736 21.8965C3.68824 21.8858 3.69913 21.8644 3.71001 21.843C3.75353 21.6934 3.78618 21.5545 3.81882 21.4049C3.8297 21.3728 3.8297 21.3408 3.80794 21.3194V21.3087C3.87323 21.3194 3.86235 21.2553 3.87323 21.2232C3.93852 20.9988 3.99292 20.7744 4.04733 20.5393C4.05821 20.4965 4.07997 20.4645 4.03645 20.4217C4.09086 20.4004 4.09086 20.3576 4.10174 20.3149C4.19967 19.9408 4.2976 19.5668 4.38465 19.1928C4.39554 19.1607 4.39554 19.118 4.39554 19.0752C4.39554 19.0539 4.39554 19.0325 4.39554 19.0218C4.40642 18.9684 4.42818 18.9149 4.43906 18.8615C4.52611 18.5516 4.5914 18.231 4.68933 17.9211C4.77638 18.1562 4.86344 18.3913 4.95049 18.6264C4.97225 18.6905 4.99401 18.7547 5.01577 18.8081C5.13547 19.1394 5.25517 19.4706 5.37486 19.8019C5.49456 20.1439 5.61425 20.4752 5.73395 20.8171L6.15832 21.9926C6.1692 22.014 6.1692 22.0354 6.18008 22.0567C6.48476 22.9117 6.78944 23.7666 7.105 24.6215C7.2247 24.9421 7.34439 25.2734 7.46409 25.594C7.45321 25.6046 7.45321 25.6153 7.45321 25.6153C7.45321 25.6581 7.46409 25.6901 7.48585 25.7222C7.59466 26.0321 7.71436 26.3313 7.80141 26.6305C7.77965 26.6305 7.76877 26.6412 7.75788 26.6519C7.71436 26.7374 7.61643 26.7908 7.5185 26.7695C7.5185 26.7588 7.50761 26.7588 7.50761 26.7481C7.37704 26.6733 7.23558 26.5985 7.08324 26.545C7.02883 26.5237 6.97443 26.4702 6.90914 26.4916C6.83297 26.4061 6.71327 26.3527 6.59358 26.342C6.59358 26.342 6.59358 26.342 6.59358 26.3527C6.52829 26.2779 6.44124 26.2351 6.3433 26.2244C6.3433 26.2244 6.3433 26.2138 6.33242 26.2138C6.20185 26.139 6.07127 26.0748 5.92981 26.0214C5.91893 26.0214 5.90805 26.0214 5.90805 26.0214C5.7013 25.9252 5.51632 25.8397 5.32045 25.7649ZM9.83623 5.56762C9.84711 5.55693 9.85799 5.54625 9.86888 5.53556C9.90152 5.51419 9.94505 5.5035 9.97769 5.48213C10.1627 5.39664 10.3477 5.32183 10.5218 5.21497C10.685 5.16153 10.8373 5.08673 10.9897 5.00124C11.0332 5.01192 11.0549 4.97987 11.0876 4.96918C11.9799 4.55241 12.8613 4.13564 13.7427 3.71887C14.2106 3.50514 14.6676 3.28073 15.1246 3.05631C15.2878 2.98151 15.4401 2.9067 15.6034 2.82121C15.7992 2.73572 15.9951 2.65023 16.1801 2.55405C16.2563 2.5113 16.3215 2.5113 16.3433 2.60748L16.3542 2.61817C16.3759 2.65023 16.3977 2.68229 16.4086 2.71435C16.3324 2.85327 16.2671 2.99219 16.2018 3.13112C16.1148 3.28073 16.0386 3.44102 15.9733 3.60132C15.8645 3.79367 15.7666 3.99672 15.6795 4.19976C15.5816 4.38143 15.4837 4.5631 15.4075 4.75545C15.2987 4.94781 15.2008 5.15085 15.1137 5.35389C15.0375 5.49281 14.9614 5.63174 14.907 5.77066C14.8308 5.90958 14.7546 6.05919 14.7002 6.2088C14.6676 6.27292 14.6349 6.32635 14.6023 6.39047C14.5914 6.43322 14.5479 6.45459 14.5043 6.45459C14.167 6.46528 13.8623 6.62557 13.6447 6.88205C13.623 6.92479 13.5685 6.93548 13.525 6.91411C13.4271 6.88205 13.3183 6.86067 13.2203 6.82861C13.0136 6.77518 12.8177 6.72175 12.611 6.65763C12.3716 6.58283 12.1322 6.51871 11.8928 6.46528C11.6969 6.40116 11.5011 6.34773 11.3052 6.30498C11.2617 6.29429 11.2073 6.27292 11.1638 6.26223C11.0005 6.2088 10.8373 6.16606 10.6741 6.134C10.5109 6.08057 10.3585 6.02713 10.1844 5.99507L9.57508 5.83478V5.82409C9.53155 5.78135 9.47715 5.78135 9.42274 5.75997C9.5642 5.69586 9.71654 5.64242 9.83623 5.56762ZM37.5403 18.9043C37.2791 19.289 37.2682 19.7805 37.5185 20.1759C37.5185 20.2294 37.5403 20.2721 37.5729 20.3042C37.6164 20.3469 37.6164 20.3897 37.5729 20.4324C37.5185 20.4752 37.4859 20.5286 37.4641 20.5927C37.4423 20.5927 37.4314 20.5927 37.4206 20.6034C37.29 20.7103 37.1921 20.8492 37.0724 20.9667C37.0615 20.9774 37.0615 20.9881 37.0724 20.9988C37.0397 20.9881 37.0179 21.0202 36.9962 21.0415C36.8438 21.1912 36.7133 21.3514 36.5609 21.5011C36.5283 21.5224 36.5065 21.5652 36.5065 21.6079C36.4412 21.64 36.3868 21.6827 36.3433 21.7468C36.2671 21.811 36.2018 21.8858 36.1692 21.9819C36.1583 21.9713 36.1366 21.9819 36.1257 21.9926C36.006 22.1102 35.8863 22.2384 35.7775 22.3667C35.7666 22.3773 35.7666 22.3987 35.7775 22.4094C35.7775 22.4094 35.7775 22.4094 35.7775 22.4201C35.7339 22.3987 35.7122 22.4415 35.6904 22.4628C35.549 22.6018 35.4184 22.7514 35.2769 22.8903C35.2225 22.9437 35.1572 22.9972 35.1246 23.072C35.0919 23.072 35.0702 23.0826 35.0593 23.1147C34.9831 23.2109 34.8852 23.2857 34.809 23.3819C34.7437 23.4353 34.6893 23.5101 34.6567 23.5742C34.5914 23.5849 34.5588 23.6383 34.5261 23.6811C34.5043 23.7131 34.4826 23.7131 34.4608 23.6918C34.4935 23.6704 34.5152 23.6383 34.5152 23.5956C34.537 23.4139 34.5479 23.2323 34.5588 23.0506C34.5588 23.0185 34.5588 22.9865 34.5479 22.9651C34.5479 22.9544 34.5588 22.9544 34.5588 22.9437C34.5914 22.8048 34.6023 22.6659 34.6023 22.5163C34.5914 22.4735 34.6023 22.4201 34.6132 22.3773C34.624 22.3453 34.624 22.3132 34.624 22.2812C34.624 22.2384 34.624 22.1957 34.6349 22.1529C34.6458 22.1209 34.6458 22.0888 34.6458 22.0567C34.6458 22.014 34.6458 21.9819 34.6567 21.9499C34.6676 21.9285 34.6567 21.8965 34.6458 21.8751C34.6458 21.8751 34.6458 21.8751 34.6349 21.8751C34.6458 21.8323 34.6458 21.7789 34.6567 21.7362C34.722 21.0843 34.7764 20.4431 34.8417 19.7912C34.8852 19.321 34.9287 18.8508 34.9722 18.3699C34.9722 18.3379 34.9722 18.3058 34.9722 18.2738C34.9831 18.231 34.994 18.1883 34.9831 18.1455C35.0267 17.7074 35.0702 17.2586 35.1137 16.8204L35.2225 15.6556C35.2225 15.6342 35.2225 15.6128 35.2225 15.5915C35.2334 15.5487 35.2443 15.506 35.2334 15.4632C35.2334 15.4312 35.2334 15.3991 35.2334 15.3564C35.2443 15.3136 35.2552 15.2709 35.2443 15.2281C35.2552 15.0999 35.2769 14.9717 35.2878 14.8221C35.3422 14.9075 35.3966 14.961 35.4401 15.0251C35.6143 15.3029 35.7992 15.5808 35.9842 15.8586C36.1257 16.0937 36.2889 16.3288 36.4521 16.5639C36.6262 16.8418 36.8112 17.1196 36.9962 17.3868C37.1376 17.6112 37.2791 17.8356 37.4423 18.06C37.4423 18.1028 37.4641 18.1455 37.4967 18.1883C37.562 18.2951 37.6273 18.402 37.7035 18.5089C37.747 18.5409 37.747 18.605 37.7144 18.6478C37.7035 18.6585 37.7035 18.6585 37.6926 18.6692C37.6164 18.7333 37.562 18.8081 37.5403 18.9043ZM10.6306 25.5833C10.6306 25.5833 10.6415 25.5833 10.6306 25.5833C10.6741 25.5833 10.685 25.5512 10.6959 25.5298C10.7394 25.423 10.8047 25.3161 10.8482 25.1986C10.8591 25.1772 10.87 25.1451 10.87 25.1238C10.957 25.0169 11.0114 24.8993 11.0549 24.7711C11.0658 24.7925 11.0767 24.8032 11.0876 24.8245C11.5228 25.3802 11.9581 25.9359 12.3934 26.5023C12.4151 26.5344 12.4369 26.5664 12.4695 26.5878C12.339 26.5985 12.2193 26.6092 12.0887 26.6305C12.0669 26.6305 12.0452 26.6412 12.0234 26.6626C12.0125 26.6519 12.0016 26.6519 11.9907 26.6519C11.8493 26.6519 11.7078 26.6733 11.5773 26.7053C11.5773 26.716 11.5664 26.716 11.5664 26.7267C11.4576 26.684 11.3379 26.7053 11.2399 26.7695C11.229 26.7588 11.2182 26.7588 11.2073 26.7588C11.0767 26.7588 10.9461 26.7695 10.8156 26.8015C10.8047 26.8015 10.7829 26.8122 10.772 26.8229C10.7612 26.8229 10.7503 26.8229 10.7394 26.8229C10.587 26.8229 10.4456 26.8443 10.3041 26.887C10.3041 26.8977 10.3041 26.8977 10.3041 26.9084H10.2933C10.2497 26.8656 10.1736 26.8763 10.1409 26.9191C10.1409 26.9191 10.1409 26.9191 10.1409 26.9298C10.0321 26.9084 10.0321 26.9084 10.0865 26.8015C10.1083 26.7695 10.1191 26.7267 10.1191 26.6947C10.1409 26.684 10.1627 26.6626 10.1736 26.6412C10.228 26.5344 10.2824 26.4275 10.315 26.3099C10.3259 26.3099 10.3477 26.2993 10.3477 26.2779C10.4129 26.171 10.4674 26.0535 10.5 25.9359C10.5 25.9359 10.5 25.9252 10.4891 25.9252C10.5762 25.8077 10.6306 25.7008 10.6306 25.5833ZM13.1768 27.4534C13.3509 27.6671 13.525 27.8915 13.6991 28.1053C13.9168 28.3938 14.1344 28.6823 14.3629 28.9602C14.4935 29.1418 14.624 29.3128 14.7655 29.4838C14.8852 29.6441 15.0049 29.8044 15.1246 29.954C15.1464 29.9754 15.1681 29.9861 15.2008 29.9861C15.3966 29.9861 15.6034 29.9861 15.7992 29.9968L16.2127 30.0074C16.5936 30.0288 16.9744 30.0288 17.3553 30.0288C17.7361 30.0502 18.1279 30.0502 18.5087 30.0502C18.5631 30.0502 18.6066 30.0609 18.661 30.0609C18.8569 30.0716 19.0637 30.0716 19.2595 30.0716C19.2051 30.1998 19.1398 30.3173 19.0854 30.4456C19.0201 30.5845 18.9548 30.7234 18.8787 30.8624C18.8243 30.9799 18.7699 31.0975 18.7046 31.215C18.6284 31.3432 18.574 31.4715 18.5087 31.6104L18.3128 32.0058C18.2367 32.1661 18.1605 32.3264 18.0843 32.4867C18.0299 32.5936 17.9864 32.6897 17.932 32.7966C17.8776 32.9035 17.8232 33.021 17.7688 33.1279C17.7035 33.2561 17.6382 33.395 17.5838 33.5233C17.5076 33.6515 17.4532 33.7797 17.3879 33.9187C17.3117 34.0469 17.2573 34.1751 17.2029 34.3141C17.1485 34.3889 17.1159 34.4744 17.0832 34.5598C17.0288 34.6453 16.9853 34.7415 16.9418 34.8377C16.8874 34.8591 16.8656 34.8163 16.833 34.795C16.8003 34.7522 16.7568 34.7201 16.7024 34.6881C16.7024 34.6667 16.6915 34.656 16.6697 34.6347C16.5065 34.4316 16.2998 34.2606 16.1148 34.0683C16.093 34.0469 16.0713 34.0255 16.0386 34.0362C16.0604 33.9935 16.0169 33.9721 15.9951 33.9507C15.8101 33.7691 15.636 33.5874 15.451 33.4164C15.4293 33.395 15.4075 33.3737 15.3749 33.363C15.3749 33.3523 15.364 33.3416 15.364 33.3309C15.2443 33.2027 15.1246 33.0851 14.9831 32.9676H14.9722C14.9287 32.85 14.8308 32.7645 14.7111 32.7218C14.7111 32.7218 14.7111 32.7218 14.7002 32.7218C14.6567 32.6042 14.5588 32.5081 14.4391 32.4546C14.3629 32.3157 14.2541 32.2088 14.1235 32.1234H14.1126C14.0256 32.0379 13.9385 31.9524 13.8623 31.8669C13.7427 31.7173 13.5794 31.6211 13.4597 31.4715C13.2639 31.2577 13.0462 31.044 12.8395 30.8517C12.8177 30.8196 12.796 30.7982 12.7633 30.7662C12.5566 30.5631 12.339 30.3494 12.1322 30.1464C12.1213 30.125 12.1104 30.1143 12.0996 30.1036C11.4902 29.4945 10.8917 28.8961 10.2824 28.2976C10.1736 28.1907 10.0865 28.0946 10.1627 27.945L10.1736 27.9022H10.2171L10.5979 27.8595C10.6741 27.8488 10.7503 27.8381 10.8264 27.8167C10.8917 27.806 10.957 27.806 11.0223 27.7954C11.2073 27.774 11.3923 27.7526 11.5664 27.7205C11.7078 27.7099 11.8493 27.6885 11.9907 27.6564C12.1213 27.6457 12.241 27.6351 12.3716 27.6137L12.8177 27.5496C12.9265 27.4854 13.0354 27.4748 13.1768 27.4534ZM28.3999 33.1706C28.3346 33.2561 28.2802 33.3416 28.2367 33.4485C28.2149 33.5019 28.1605 33.5446 28.0952 33.5553C27.9973 33.5981 27.8885 33.566 27.8232 33.4805C27.8123 33.4591 27.7905 33.4485 27.7579 33.4378C27.6708 33.3095 27.5729 33.1813 27.475 33.0744C27.377 32.9248 27.2573 32.7859 27.1376 32.6577C27.0724 32.5615 27.0071 32.476 26.92 32.3905C26.8547 32.2943 26.7894 32.2088 26.7024 32.1234C26.6262 32.0058 26.5392 31.8989 26.4412 31.7921L26.1692 31.4608C26.0821 31.3326 25.9733 31.2043 25.8645 31.0868C25.7992 30.9799 25.7231 30.8837 25.636 30.7982C25.5816 30.7127 25.5163 30.6379 25.451 30.5738C25.3966 30.4883 25.3313 30.4028 25.2552 30.328C25.2334 30.2639 25.1572 30.2319 25.1572 30.1677C25.2008 30.1677 25.2225 30.125 25.2443 30.1036C25.4184 29.9006 25.5816 29.6975 25.7557 29.4838C25.9189 29.3021 26.0822 29.1098 26.2345 28.9174C26.2889 28.8747 26.3324 28.8319 26.3651 28.7785C26.6371 28.4472 26.92 28.1159 27.1921 27.7954C27.3662 27.603 27.5294 27.4 27.7035 27.2076C28.019 26.8336 28.3346 26.4702 28.6502 26.0962C28.5413 26.0428 28.4216 26.0962 28.3128 26.0962C28.2149 26.0962 28.117 26.0962 28.019 26.1176C27.8885 26.1283 27.747 26.139 27.6164 26.139L27.3009 26.1603C27.1268 26.171 26.9527 26.1817 26.7786 26.1924C26.6697 26.1924 26.5718 26.1924 26.463 26.2138C26.3651 26.2138 26.2671 26.2138 26.1692 26.2351C26.0713 26.2351 25.9733 26.2351 25.8754 26.2565C25.7231 26.2565 25.5816 26.2672 25.4293 26.2779C25.2443 26.2886 25.0593 26.2993 24.8852 26.3206C24.7546 26.3313 24.6132 26.3313 24.4826 26.342C24.3194 26.3527 24.1453 26.3634 23.982 26.3847C23.8297 26.3847 23.6882 26.3954 23.5359 26.4061C23.5141 26.4061 23.4924 26.4061 23.4815 26.4061C23.4706 26.4061 23.4597 26.4061 23.4489 26.4061C23.3292 26.4275 23.2095 26.4275 23.0898 26.4168C22.8613 26.3954 22.7524 26.4916 22.7198 26.6947C22.7198 26.7053 22.7198 26.7053 22.7198 26.716C22.698 26.7588 22.6763 26.8015 22.6436 26.8336C22.5783 26.9084 22.6001 26.9725 22.6763 27.0259C22.7198 27.09 22.7633 27.1542 22.8286 27.2076C22.8721 27.2717 22.9157 27.3358 22.981 27.3893C23.0354 27.4748 23.1006 27.5496 23.1659 27.6244C23.2203 27.6992 23.2856 27.774 23.34 27.8488L23.4597 27.9984C23.4924 28.0625 23.5359 28.1159 23.5903 28.1587C23.6338 28.2228 23.6774 28.2869 23.7427 28.3404C23.7971 28.4259 23.8623 28.5007 23.9276 28.5755C23.982 28.6503 24.0473 28.7251 24.1017 28.7999C24.167 28.8854 24.2323 28.9709 24.3085 29.0563C24.3411 29.1205 24.3847 29.1739 24.4391 29.2166C24.4935 29.3021 24.5588 29.3769 24.624 29.4411C24.6893 29.5372 24.7655 29.6227 24.8417 29.7082C24.8852 29.7723 24.9287 29.8365 24.994 29.8899C25.0484 29.9647 25.1137 30.0395 25.1681 30.1143C25.1681 30.1357 25.1464 30.1357 25.1246 30.1357C24.8417 30.1357 24.5479 30.125 24.265 30.125C24.1779 30.1143 24.1017 30.1143 24.0147 30.1357C24.1561 30.3067 24.2976 30.4883 24.4391 30.6593C24.4935 30.7448 24.5588 30.8303 24.6349 30.9051C24.6893 30.9906 24.7546 31.0654 24.8199 31.1402C24.8852 31.2471 24.9614 31.3432 25.0484 31.4287C25.1355 31.557 25.2334 31.6852 25.3422 31.7921C25.4293 31.9203 25.5381 32.0485 25.636 32.1661C25.7231 32.273 25.8101 32.3798 25.8863 32.4867C25.9516 32.5722 26.0277 32.6577 26.093 32.7432C26.1583 32.8393 26.2236 32.9248 26.2998 33.0103C26.4086 33.1599 26.5174 33.2989 26.6371 33.4378C26.735 33.566 26.833 33.6943 26.9418 33.8225C26.9418 33.8332 26.9418 33.8332 26.9418 33.8439C26.9418 33.8545 26.9527 33.8652 26.9527 33.8866C27.0071 33.9828 27.0071 33.9828 26.8983 34.0042C26.7242 34.0255 26.5501 34.0362 26.3759 34.079C26.3542 34.0896 26.3324 34.1003 26.3107 34.111C25.9298 34.1538 25.549 34.1858 25.1681 34.2499C25.0049 34.2713 24.8417 34.282 24.6785 34.3034C24.0038 34.3782 23.3183 34.4637 22.6436 34.5385C21.9146 34.624 21.1746 34.7095 20.4456 34.795C20.1736 34.827 19.9124 34.8591 19.6404 34.9018C19.4989 34.9125 19.3575 34.9232 19.216 34.9446C18.9766 34.9766 18.7372 35.0087 18.4869 35.0407C18.4652 35.0407 18.4543 35.0301 18.4325 35.0301C18.302 35.0301 18.1823 35.0407 18.0517 35.0621C18.0082 35.0621 17.9538 35.0835 17.9429 35.0194C17.9973 34.9339 18.0082 34.8163 18.0734 34.7308C18.1279 34.6453 18.1605 34.5599 18.1931 34.4637C18.2693 34.3247 18.3455 34.1751 18.3999 34.0255C18.4652 33.908 18.5196 33.7904 18.5631 33.6729C18.6393 33.534 18.7046 33.4057 18.759 33.2561C18.8243 33.1386 18.8787 33.021 18.9222 32.9035C18.9766 32.8073 19.031 32.7004 19.0745 32.5936C19.1616 32.4333 19.2378 32.2623 19.303 32.102C19.3792 31.9737 19.4336 31.8455 19.488 31.7066C19.5533 31.589 19.6077 31.4608 19.6621 31.3432C19.7383 31.215 19.7927 31.0868 19.8471 30.9478C19.9233 30.8196 19.9886 30.6807 20.043 30.5311C20.1191 30.3815 20.1953 30.2212 20.2715 30.0716C20.6415 30.0822 21.0114 30.0822 21.3923 30.0929C21.8166 30.1036 22.241 30.1036 22.6545 30.1143C23.0898 30.125 23.525 30.1357 23.9603 30.1464C23.982 30.1143 23.9494 30.1036 23.9385 30.0822C23.8623 29.9861 23.7753 29.8899 23.6991 29.783L23.525 29.5586C23.4706 29.4945 23.4271 29.4304 23.3727 29.3769C23.3292 29.3021 23.2639 29.238 23.2095 29.1739C23.1442 29.0884 23.0789 29.0029 23.0136 28.9281C22.9374 28.8426 22.8721 28.7464 22.796 28.661C22.7416 28.5755 22.6654 28.49 22.5892 28.4152C22.5457 28.3404 22.4913 28.2656 22.426 28.2014C22.3716 28.1159 22.3063 28.0305 22.2301 27.9557C22.1648 27.8488 22.0887 27.7526 22.0016 27.6671C21.9363 27.5389 21.8493 27.4427 21.6752 27.5175H21.6643C21.4793 27.4961 21.4032 27.6137 21.3596 27.7633C21.3052 27.8915 21.2399 28.0091 21.1855 28.1373L21.0441 28.4259C21.0005 28.5113 20.957 28.6075 20.9135 28.693C20.87 28.7892 20.8264 28.8854 20.7829 28.9815C20.7285 29.0991 20.6741 29.2166 20.6197 29.3342C20.5653 29.4304 20.5218 29.5266 20.4782 29.6227L20.3477 29.8899C20.315 29.954 20.2933 30.0181 20.2606 30.0716C19.9777 30.0609 19.6839 30.0609 19.401 30.0502C19.3575 30.0502 19.303 30.0716 19.2595 30.0288C19.2813 29.9754 19.303 29.9219 19.3357 29.8685C19.3901 29.7723 19.4445 29.6655 19.488 29.5586C19.5316 29.4731 19.5642 29.3876 19.6077 29.3128C19.6621 29.206 19.7057 29.1098 19.7601 29.0029C19.7927 28.9495 19.8145 28.8961 19.8362 28.8319C19.8798 28.7892 19.8689 28.7358 19.9015 28.6823C19.9233 28.6396 19.945 28.5968 19.9668 28.5648C19.9886 28.5434 20.0103 28.5113 20.0103 28.4793L20.0756 28.351C20.1191 28.2976 20.1409 28.2335 20.1627 28.1694C20.2171 28.0839 20.2497 28.0091 20.2824 27.9129C20.3368 27.8274 20.3803 27.7419 20.4129 27.6457C20.4565 27.5816 20.4891 27.5068 20.5109 27.432C20.5979 27.2824 20.5979 27.2824 20.4782 27.1755C20.4674 27.1649 20.4456 27.1542 20.4347 27.1435C20.3694 27.0687 20.3041 26.9939 20.2388 26.9191C20.1736 26.8229 20.1191 26.716 20.0756 26.5985C20.0539 26.513 20.0103 26.5023 19.9233 26.513C19.6839 26.5557 19.4336 26.5771 19.1942 26.6198C18.9875 26.6519 18.7807 26.6733 18.574 26.7053C18.5631 26.7053 18.5413 26.7053 18.5305 26.716C18.3346 26.7267 18.1279 26.7588 17.932 26.8015C17.7796 26.8122 17.6273 26.8336 17.475 26.8656C17.3226 26.8763 17.1812 26.8977 17.0288 26.9298C16.8765 26.9404 16.735 26.9618 16.5827 26.9939C16.4304 27.0046 16.2889 27.0259 16.1366 27.058C16.0277 27.058 15.9298 27.0794 15.821 27.1007C15.7666 27.1007 15.7231 27.1007 15.6687 27.1221C15.636 27.1221 15.5925 27.1114 15.5598 27.1435C15.4837 27.1435 15.4184 27.1435 15.3531 27.1649C15.2769 27.1649 15.2116 27.1755 15.1464 27.1862C15.0484 27.2076 14.9396 27.2183 14.8417 27.2397C14.8199 27.2397 14.809 27.2397 14.7873 27.2503C14.6893 27.2503 14.5914 27.261 14.4935 27.2931C14.352 27.3038 14.2106 27.3251 14.0691 27.3465C14.0582 27.3465 14.0364 27.3465 14.0256 27.3572C13.9168 27.3572 13.7971 27.3786 13.6882 27.4C13.6012 27.4 13.5033 27.4213 13.4162 27.4427C13.34 27.4534 13.253 27.4641 13.1551 27.4748C12.9374 27.1969 12.7416 26.9404 12.5348 26.684C12.4913 26.6305 12.5022 26.6198 12.5566 26.5985L12.6219 26.5878C12.6763 26.5771 12.7307 26.5771 12.796 26.5664L13.1115 26.5237C13.2421 26.513 13.3836 26.4916 13.5141 26.4702C13.6447 26.4596 13.7644 26.4489 13.895 26.4275C14.0038 26.4168 14.1235 26.3954 14.2323 26.3847C14.3194 26.3741 14.4173 26.3634 14.5043 26.342C14.5588 26.342 14.6023 26.342 14.6567 26.3206C14.7002 26.3206 14.7437 26.3313 14.7873 26.2993C14.8634 26.2993 14.9396 26.2886 15.0158 26.2779C15.179 26.2565 15.3422 26.2351 15.4946 26.2138C15.5925 26.2031 15.6904 26.1924 15.7884 26.171C15.8319 26.1817 15.8754 26.171 15.9189 26.1496C15.9625 26.1496 16.006 26.1603 16.0495 26.1283C16.1039 26.1283 16.1692 26.139 16.2127 26.1069C16.2889 26.1069 16.3651 26.0962 16.4412 26.0855C16.5501 26.0748 16.648 26.0535 16.7568 26.0428C16.8983 26.0321 17.0397 26.0107 17.1812 25.9893C17.3117 25.9787 17.4314 25.968 17.562 25.9466C17.747 25.9252 17.932 25.9145 18.1061 25.8718C18.302 25.8611 18.4869 25.8291 18.6719 25.8077C18.8787 25.7756 19.0963 25.7542 19.303 25.7222C19.4554 25.7008 19.6077 25.6794 19.7709 25.6581C19.858 25.6474 19.9559 25.6367 20.043 25.626C20.1083 25.6153 20.1409 25.5405 20.0974 25.4978C20.0647 25.4764 20.0321 25.455 19.9995 25.4337C19.945 25.3802 19.8906 25.3482 19.8362 25.3054C19.7927 25.2734 19.7383 25.2306 19.6948 25.1986C19.6295 25.1344 19.5533 25.081 19.4771 25.0383C19.3683 24.9421 19.2486 24.8459 19.1181 24.7711C18.9331 24.6215 18.7372 24.4719 18.5413 24.333C18.2258 24.0872 17.9102 23.8521 17.5838 23.6063C17.3009 23.3926 17.0071 23.1788 16.7242 22.9651C16.5392 22.8155 16.3542 22.6659 16.1583 22.5376C16.0495 22.4415 15.9298 22.3453 15.7992 22.2705C15.7122 22.217 15.6469 22.1209 15.549 22.0781C15.5163 22.0461 15.4837 22.014 15.4401 21.9926C15.3857 21.9392 15.3205 21.8858 15.2552 21.843L15.0267 21.6614C14.9722 21.6186 14.9178 21.5759 14.8634 21.5331C14.7764 21.469 14.6785 21.3942 14.5914 21.3301C14.5043 21.2553 14.4064 21.1805 14.2976 21.1057C14.2106 21.0202 14.1017 20.9454 14.0038 20.8919C13.9276 20.8171 13.8406 20.753 13.7535 20.6889C13.7209 20.6675 13.71 20.6355 13.6556 20.6568C13.5903 20.6889 13.525 20.6996 13.4597 20.7209L13.2748 20.7423H13.1442C13.1006 20.7423 13.0462 20.6996 13.0027 20.7423C12.9592 20.7958 12.9374 20.8599 12.9157 20.924C12.8939 20.9774 12.8613 21.0309 12.8395 21.095C12.7851 21.2018 12.7307 21.3194 12.6763 21.4263C12.5892 21.6079 12.5022 21.7789 12.4151 21.9606C12.3716 22.0461 12.339 22.1316 12.2954 22.2064C12.2737 22.2491 12.2519 22.3025 12.2193 22.3453C12.1866 22.388 12.1648 22.4415 12.154 22.4842C12.0996 22.5804 12.056 22.6766 12.0125 22.7727C11.9472 22.8796 11.8928 22.9865 11.8493 23.104C11.784 23.2323 11.7187 23.3712 11.6534 23.4994C11.599 23.617 11.5446 23.7345 11.4793 23.8521C11.4249 23.9696 11.3705 24.0872 11.3052 24.2047C11.2726 24.2688 11.2399 24.333 11.2182 24.3864C11.1638 24.4933 11.1094 24.6108 11.0549 24.7177C10.8917 24.5146 10.7285 24.3116 10.5653 24.1085C10.5435 24.0872 10.5435 24.0231 10.4891 24.0551L10.3694 24.3436C10.3041 24.4933 10.228 24.6322 10.1627 24.7818C10.1083 24.8993 10.0539 25.0169 9.99945 25.1344C9.93416 25.2627 9.86888 25.3909 9.81447 25.5298C9.74918 25.6688 9.68389 25.8077 9.6186 25.9466C9.5642 26.0642 9.50979 26.1817 9.45538 26.2993C9.42274 26.3847 9.36833 26.3954 9.28128 26.3527C9.19423 26.3099 9.08542 26.2886 8.98748 26.2779C8.87867 26.2565 8.78074 26.2565 8.67192 26.2672C8.57399 26.2886 8.53046 26.2351 8.5087 26.1496C8.46518 26 8.42165 25.8504 8.35636 25.7008C8.35636 25.6688 8.34548 25.6367 8.3346 25.6046C8.00816 24.6856 7.68172 23.7773 7.35527 22.8582C7.2247 22.4842 7.08324 22.0995 6.94178 21.7255C6.85473 21.4476 6.7568 21.1698 6.64798 20.8919C6.55005 20.6141 6.463 20.3362 6.35419 20.0584C6.2889 19.8981 6.25625 19.7164 6.18008 19.5561C6.18008 19.5454 6.18008 19.5241 6.19096 19.5134C6.14744 19.3531 6.10391 19.2035 6.03863 19.0539C6.02774 19.0218 6.01686 18.9897 5.97334 18.9897C5.98422 18.9684 5.98422 18.947 5.98422 18.9256C5.94069 18.7547 5.8754 18.5944 5.81012 18.4341C5.81012 18.4234 5.79923 18.4127 5.78835 18.4127C5.78835 18.3806 5.78835 18.3486 5.77747 18.3272C5.71218 18.1455 5.6469 17.9639 5.58161 17.7822C5.57073 17.7501 5.55984 17.7288 5.53808 17.7181C5.53808 17.6753 5.5272 17.6433 5.51632 17.6005C5.48367 17.4937 5.45103 17.3868 5.4075 17.2906C5.37486 17.2265 5.39662 17.1837 5.46191 17.1517C5.51632 17.141 5.57073 17.1089 5.61425 17.0555C5.62513 17.0662 5.6469 17.0662 5.65778 17.0555C5.73395 17.0021 5.821 16.97 5.91893 16.97C6.03863 17.0341 6.15832 17.0876 6.27802 17.141C6.40859 17.2158 6.53917 17.2692 6.68063 17.3227C6.8112 17.3975 6.94178 17.4509 7.08324 17.5043C7.21382 17.5791 7.35527 17.6433 7.49673 17.6967C7.59467 17.7501 7.70348 17.8036 7.81229 17.8463C7.89934 17.8997 7.98639 17.9425 8.08433 17.9745C8.17138 18.028 8.25843 18.0707 8.35636 18.1028C8.47606 18.1669 8.59575 18.2203 8.71545 18.2738C8.83514 18.3379 8.95484 18.3913 9.07453 18.4341C9.19423 18.4982 9.31392 18.5516 9.43362 18.5944C9.48803 18.6157 9.54243 18.6478 9.58596 18.6692C9.69477 18.7012 9.79271 18.7547 9.87976 18.8188C9.79271 19.1607 9.71654 19.492 9.62949 19.834L9.41186 20.6782L9.24864 21.3408C9.18335 21.5865 9.11806 21.843 9.05277 22.0888C9.04189 22.1209 9.05277 22.1529 9.08542 22.1743C9.20511 22.3346 9.33569 22.4842 9.45538 22.6445C9.5642 22.7834 9.66213 22.933 9.78183 23.0613C9.90152 23.2323 10.0321 23.3926 10.1627 23.5528L10.5 24.0017C10.5653 23.991 10.5544 23.9269 10.587 23.8734C10.6197 23.7986 10.6632 23.7238 10.6959 23.649C10.7503 23.5528 10.8047 23.446 10.8482 23.3391C10.8917 23.275 10.9244 23.2002 10.957 23.1147C11.0223 22.9972 11.0767 22.8796 11.1311 22.7621C11.1746 22.6979 11.2073 22.6231 11.229 22.5483C11.2835 22.4521 11.3379 22.3453 11.3814 22.2384C11.4576 22.0888 11.5337 21.9392 11.599 21.7896C11.6861 21.6293 11.7622 21.469 11.8275 21.3087C11.9037 21.1805 11.9581 21.0522 12.0125 20.9133C12.1104 20.7209 12.1975 20.5286 12.2954 20.3362C12.3172 20.3042 12.3063 20.2721 12.2845 20.2401C12.1866 20.1118 12.1104 19.9729 12.0669 19.8233C12.056 19.7805 12.0234 19.7592 11.9907 19.7592C11.9146 19.7164 11.8275 19.6737 11.7405 19.6416C11.6534 19.5989 11.5555 19.5561 11.4684 19.5134C11.3705 19.46 11.2726 19.4172 11.1746 19.3851C11.1094 19.3424 11.0332 19.3103 10.957 19.289C10.9135 19.2569 10.8591 19.2355 10.8156 19.2249C10.7394 19.1821 10.6632 19.1394 10.587 19.118L10.3912 19.0218C10.3259 18.9791 10.2497 18.9577 10.1844 18.9363C10.13 18.9043 10.0756 18.8722 10.0212 18.8508C9.98857 18.8295 9.95593 18.8081 9.92328 18.8081C9.92328 18.7974 9.9124 18.7867 9.92328 18.7653C9.97769 18.5302 10.043 18.2844 10.0974 18.0493C10.0974 18.028 10.1191 18.0173 10.13 18.0173L10.2497 18.0707C10.3368 18.1242 10.4238 18.1669 10.5218 18.199C10.5762 18.231 10.6306 18.2631 10.6959 18.2844C10.7829 18.3379 10.87 18.3806 10.9679 18.4127C11.0223 18.4554 11.0876 18.4768 11.1529 18.4982C11.1964 18.5302 11.2399 18.5409 11.2835 18.5516C11.3705 18.5944 11.4684 18.6371 11.5555 18.6798C11.6099 18.7119 11.6752 18.744 11.7405 18.7653C11.7949 18.7867 11.8384 18.8188 11.8928 18.8401C11.9255 18.8508 11.9472 18.8615 11.9799 18.8722C12.0016 18.8936 12.0343 18.9043 12.0669 18.9043C12.1975 18.9791 12.1975 18.9791 12.2737 18.8615C12.2845 18.8508 12.2954 18.8295 12.2954 18.8188C12.3716 18.7333 12.4586 18.6478 12.5457 18.573C12.6654 18.4982 12.7851 18.4447 12.9265 18.402C12.981 18.3913 12.981 18.3486 12.981 18.3165C12.9918 18.2096 13.0027 18.1028 13.0245 17.9852C13.068 17.6112 13.1115 17.2265 13.1551 16.8525L13.2203 16.3395C13.2312 16.2113 13.253 16.0724 13.2639 15.9441C13.2748 15.8693 13.2856 15.7945 13.2856 15.7197C13.3074 15.6342 13.3183 15.5594 13.3183 15.4739C13.3183 15.4419 13.3183 15.4205 13.3292 15.3884C13.34 15.3564 13.3509 15.3243 13.3509 15.2816L13.3618 15.1961C13.3836 15.0572 13.4053 14.9075 13.4162 14.7579C13.438 14.6083 13.4597 14.4694 13.4597 14.3198C13.4815 14.2129 13.4924 14.1167 13.5033 14.0099L13.5468 13.7C13.5577 13.5717 13.5794 13.4328 13.5903 13.3046L13.6338 12.9947C13.6556 12.8558 13.6774 12.7061 13.6774 12.5565C13.71 12.4069 13.7209 12.2573 13.7318 12.097L13.7753 11.7444C13.7971 11.6589 13.7971 11.5841 13.7971 11.4986C14.0691 11.349 14.352 11.2421 14.6349 11.1139C14.6458 11.1032 14.6567 11.1139 14.6676 11.1246C14.6567 11.21 14.6567 11.3062 14.6458 11.3917C14.624 11.5093 14.6023 11.6268 14.6023 11.7444C14.5805 11.8619 14.5588 11.9795 14.5588 12.097C14.5479 12.1291 14.537 12.1611 14.537 12.2039V12.2466C14.5152 12.3107 14.5152 12.3855 14.5152 12.4497C14.4935 12.5672 14.4717 12.6848 14.4717 12.8023C14.4499 12.8664 14.4391 12.9199 14.4499 12.984C14.4282 13.1015 14.4064 13.2191 14.4064 13.3366C14.3738 13.4969 14.352 13.6572 14.352 13.8175C14.3194 13.9458 14.3085 14.074 14.3085 14.2129C14.2976 14.2877 14.2867 14.3625 14.2758 14.4373C14.2758 14.4801 14.2758 14.5228 14.2758 14.5656C14.2541 14.6297 14.2432 14.6831 14.2541 14.7472C14.2323 14.8648 14.2106 14.9823 14.2106 15.0999C14.1779 15.2709 14.1561 15.4419 14.1453 15.6235C14.1344 15.6556 14.1235 15.6876 14.1235 15.7304V15.7518C14.1017 15.8266 14.1017 15.9014 14.1017 15.9762C14.08 16.0082 14.08 16.0403 14.08 16.083V16.1472C14.0364 16.2006 14.0691 16.2754 14.0582 16.3288L14.0473 16.3395C14.0364 16.3716 14.0364 16.4036 14.0364 16.4357L14.0256 16.5105C13.9929 16.6815 13.9712 16.8525 13.9603 17.0341C13.9168 17.2692 13.895 17.5043 13.8732 17.7394C13.8297 17.9532 13.8188 18.1776 13.7862 18.3913C13.7753 18.4661 13.7971 18.5089 13.8732 18.5302L14.08 18.7012C14.1126 18.7333 14.1344 18.7547 14.167 18.7867C14.1888 18.8508 14.2323 18.8188 14.2758 18.7974C14.3085 18.7867 14.3302 18.7867 14.3629 18.776C14.4173 18.7653 14.4826 18.744 14.5261 18.7226C14.5588 18.7119 14.5914 18.7012 14.6349 18.7012C14.6676 18.6905 14.7002 18.6905 14.722 18.6692C14.7546 18.6692 14.7981 18.6585 14.8199 18.6478L14.8852 18.6264L15.0375 18.5837C15.1246 18.5623 15.2116 18.5302 15.2878 18.5089C15.3749 18.4768 15.4728 18.4554 15.5598 18.4234C15.6687 18.3913 15.7884 18.3593 15.8972 18.3165C15.9733 18.2951 16.0604 18.2738 16.1366 18.2417C16.2127 18.231 16.2889 18.199 16.3651 18.1669C16.4195 18.1562 16.4848 18.1348 16.5392 18.1135C16.6153 18.1028 16.6806 18.0814 16.7459 18.0493C16.7786 18.0493 16.8221 18.0387 16.8547 18.028C16.9091 18.0173 16.9744 17.9959 17.0288 17.9745C17.0941 17.9532 17.1594 17.9318 17.2138 17.9104C17.2682 17.9104 17.3117 17.889 17.3662 17.8677C17.4206 17.857 17.475 17.8356 17.5294 17.8249L17.7035 17.7715C17.7796 17.7608 17.8558 17.7394 17.932 17.7074C18.019 17.6753 18.1061 17.6539 18.1823 17.6219C18.4978 17.5257 18.8243 17.4295 19.1398 17.3334C19.586 17.1944 20.0212 17.0555 20.4674 16.9166C20.5762 16.8952 20.685 16.8632 20.7829 16.8204C20.8482 16.8097 20.9135 16.7883 20.9679 16.7563C21.0441 16.7456 21.1202 16.7242 21.1855 16.6922C21.229 16.6922 21.2726 16.6815 21.3052 16.6494C21.3596 16.6387 21.4032 16.6174 21.4576 16.6067C21.5228 16.596 21.5881 16.5746 21.6534 16.5426C21.7296 16.5319 21.7949 16.5105 21.8602 16.4784L21.9255 16.4571C21.9907 16.4357 22.0669 16.4143 22.1322 16.393C22.1975 16.3823 22.2628 16.3609 22.3281 16.3288C22.4042 16.3181 22.4695 16.2968 22.5348 16.2647C22.6219 16.254 22.7089 16.222 22.796 16.1899C22.9157 16.1685 23.0245 16.1258 23.1333 16.083C23.2312 16.0617 23.3183 16.0403 23.4053 15.9976C23.5033 15.9762 23.5903 15.9548 23.6774 15.9121C23.7209 15.9121 23.7644 15.8907 23.8079 15.8693C23.8297 15.8693 23.8406 15.8693 23.8515 15.8479C23.9059 15.8479 23.9603 15.8266 24.0147 15.8052C24.0364 15.8052 24.0582 15.8052 24.08 15.7838C24.1017 15.7838 24.1235 15.7838 24.1453 15.7625C24.1888 15.7625 24.2323 15.7411 24.265 15.7197C24.3194 15.709 24.3629 15.6876 24.4173 15.677C24.4499 15.677 24.4717 15.6663 24.5043 15.6556C24.5914 15.6449 24.5479 15.5808 24.5588 15.5274C24.5588 15.506 24.5696 15.4846 24.5696 15.4632C24.6132 15.3671 24.5696 15.3136 24.4935 15.2602C24.2976 15.1213 24.1126 14.9823 23.9168 14.8434C23.6991 14.6938 23.5033 14.5228 23.2748 14.3839C23.0245 14.1916 22.7742 13.9992 22.5131 13.8282C22.339 13.7 22.1649 13.5611 21.9907 13.4435C21.8819 13.3473 21.7514 13.2618 21.6317 13.187C21.5664 13.1657 21.5337 13.0802 21.4684 13.0588C21.414 13.0267 21.3596 12.984 21.3052 12.9519C21.2073 12.8558 21.1094 12.7703 20.9897 12.7061C20.8591 12.5993 20.7176 12.4924 20.5653 12.3962C20.4782 12.3214 20.3803 12.2466 20.2715 12.1932C20.2171 12.1398 20.1518 12.0863 20.0865 12.0436C20.0539 12.0222 20.0212 11.9902 19.9777 11.9688C19.9124 11.926 19.8471 11.8833 19.7927 11.8299C19.6839 11.7337 19.5751 11.6589 19.4554 11.5841C19.3357 11.4772 19.216 11.3917 19.0745 11.3169C19.0092 11.2528 18.944 11.1994 18.8678 11.1566L18.6937 11.0284C18.5958 10.9536 18.4978 10.8788 18.3999 10.8146L18.1931 10.6543C18.0843 10.5689 17.9755 10.4941 17.8558 10.4086C17.747 10.3231 17.6382 10.2376 17.5185 10.1628C17.4314 10.0987 17.3335 10.0239 17.2465 9.95973C17.2573 9.91699 17.3009 9.91699 17.3335 9.9063C17.5511 9.81012 17.7688 9.71395 17.9864 9.60708C18.019 9.5964 18.0626 9.5964 18.0626 9.54296L17.747 9.32924C17.6273 9.23306 17.4967 9.13688 17.3662 9.06207C17.29 8.98727 17.2029 8.92315 17.1159 8.86972C17.0288 8.79491 16.9418 8.7308 16.8438 8.66668C16.7568 8.59187 16.6589 8.51707 16.5501 8.45295C16.463 8.37814 16.3759 8.31403 16.278 8.24991C16.1801 8.16442 16.0713 8.08961 15.9625 8.02549C15.9516 7.99343 15.908 7.99343 15.908 7.96137C16.0277 7.95069 16.1583 7.94 16.278 7.92931C16.5392 7.91863 16.8003 7.89726 17.0615 7.87588C17.2682 7.87588 17.4859 7.85451 17.6926 7.83314C17.9429 7.82245 18.204 7.80108 18.4543 7.79039C19.401 7.72627 20.3477 7.65147 21.2943 7.58735C21.5228 7.56598 21.7622 7.5446 21.9907 7.53392C22.1649 7.53392 22.339 7.52323 22.5022 7.49117L22.7089 7.48049C22.7633 7.49117 22.8069 7.48049 22.8613 7.4698C22.9048 7.4698 22.9483 7.4698 22.9918 7.4698C23.0462 7.4698 23.0898 7.4698 23.1442 7.45911H23.1986C23.3183 7.44843 23.438 7.44843 23.5577 7.43774C23.8079 7.41637 24.0473 7.39499 24.2976 7.37362C24.6023 7.36294 24.8961 7.34156 25.2008 7.3095C25.3313 7.27744 25.4728 7.32019 25.5598 7.42705C25.5598 7.42705 25.5707 7.43774 25.5816 7.43774C25.6469 7.50186 25.7339 7.55529 25.821 7.58735C25.8972 7.59804 25.9516 7.67284 25.9407 7.74765C25.9407 7.75833 25.9407 7.75833 25.9407 7.76902C25.9407 7.77971 25.9298 7.80108 25.9298 7.82245C25.9189 7.8652 25.9189 7.90794 25.9189 7.94V7.96137L25.8972 8.35677C25.8754 8.48501 25.8754 8.62393 25.8754 8.75217C25.8536 8.88041 25.8536 9.01933 25.8536 9.14757C25.8319 9.2758 25.821 9.39335 25.8319 9.52159C25.8101 9.63914 25.8101 9.75669 25.8101 9.87424C25.7992 9.88493 25.7992 9.9063 25.7992 9.91699C25.7884 10.0239 25.7775 10.12 25.7884 10.2269C25.7666 10.3444 25.7666 10.462 25.7666 10.5795C25.7231 10.6971 25.7666 10.836 25.7231 10.9536C25.7013 10.9429 25.6795 10.9429 25.6687 10.9322C25.4293 10.8146 25.179 10.6864 24.9396 10.5689C24.4935 10.3444 24.0473 10.1093 23.5903 9.89561C23.4815 9.84218 23.3618 9.78875 23.2639 9.72463C22.426 9.30786 21.5881 8.89109 20.7503 8.47432C20.6959 8.44226 20.6306 8.44226 20.5762 8.46364C19.7818 8.82697 18.9984 9.17962 18.204 9.53228C18.1714 9.55365 18.1387 9.56434 18.0952 9.56434C18.0843 9.61777 18.1387 9.61777 18.1714 9.64983C18.2584 9.71395 18.3455 9.77806 18.4216 9.84218C18.4325 9.86355 18.4543 9.87424 18.4869 9.88493C18.5305 9.92767 18.574 9.95973 18.6284 9.99179C18.7481 10.088 18.8678 10.1735 18.9875 10.259C19.1072 10.3551 19.2269 10.4513 19.3575 10.5261C19.4336 10.6009 19.5207 10.6543 19.6077 10.7078L19.9668 10.9749C20.0865 11.0711 20.2171 11.1566 20.3477 11.2421C20.4782 11.349 20.6197 11.4558 20.772 11.552C20.9026 11.6589 21.0332 11.7551 21.1746 11.8405C21.3052 11.9474 21.4358 12.0436 21.5773 12.1291C21.6969 12.2253 21.8166 12.3107 21.9472 12.3962C22.0887 12.5138 22.2301 12.61 22.3825 12.7061C22.4478 12.7596 22.5131 12.813 22.5783 12.8558C22.7851 13.0054 22.9918 13.155 23.1986 13.3046C23.2095 13.3153 23.2312 13.3366 23.2421 13.3473C23.7862 13.7427 24.3411 14.1488 24.8852 14.5442C25.0375 14.6511 25.0375 14.6511 25.2008 14.5442C25.2334 14.5228 25.266 14.5015 25.2987 14.4801C25.3313 14.4587 25.3749 14.448 25.4075 14.4373C25.4946 14.416 25.5381 14.3625 25.5163 14.277C25.5272 14.1702 25.5272 14.0526 25.5381 13.9458L25.549 13.7748C25.5598 13.7107 25.5707 13.6465 25.5598 13.5931C25.5598 13.5504 25.5598 13.5076 25.5598 13.4649C25.5707 13.3794 25.5816 13.2832 25.5816 13.1977C25.5925 13.0802 25.5925 12.9626 25.6034 12.8451L25.6251 12.5138C25.636 12.4069 25.636 12.2894 25.6469 12.1825C25.6578 12.0756 25.6578 11.9581 25.6687 11.8512L25.6904 11.4986C25.7013 11.381 25.7013 11.2635 25.7122 11.1459V11.1032V11.0177V10.9749C25.7339 10.9322 25.7557 10.9322 25.7992 10.9536C26.0495 11.0818 26.2998 11.21 26.5501 11.3276C26.5609 11.2742 26.5718 11.2314 26.5609 11.178C26.5718 11.0497 26.5827 10.9322 26.5827 10.804L26.6262 10.3231L26.6589 9.9063C26.6697 9.86355 26.6806 9.82081 26.6697 9.77806L26.6915 9.48953C26.7024 9.38267 26.7024 9.26512 26.7133 9.15825L26.7568 8.66668C26.7677 8.55981 26.7677 8.44226 26.7786 8.3354C26.7894 8.19648 26.8003 8.05755 26.8112 7.91863C26.8112 7.91863 26.8112 7.91863 26.8112 7.90794L26.8221 7.83314C26.8221 7.84382 26.8221 7.85451 26.8112 7.8652C26.8112 7.85451 26.8112 7.84382 26.8221 7.83314C26.833 7.73696 26.8438 7.65147 26.8547 7.5446C26.8765 7.56598 26.8874 7.56598 26.9091 7.57666C27.9755 8.43158 29.0419 9.2758 30.0974 10.1307C30.4674 10.4192 30.8264 10.7078 31.1964 11.007C31.4576 11.2207 31.7187 11.4238 31.9799 11.6375L32.4042 11.9795C32.5022 12.065 32.611 12.1504 32.7198 12.2253C32.9157 12.3962 33.1224 12.5565 33.3292 12.7168C33.3944 12.7703 33.4597 12.8237 33.525 12.8771C33.5794 12.9199 33.6447 12.9519 33.6882 13.0054C33.7318 13.0695 33.6338 13.1229 33.623 13.187C33.6012 13.2618 33.5359 13.3046 33.4597 13.3153C33.4053 13.3153 33.3618 13.3366 33.3183 13.358C33.1659 13.3794 33.0245 13.4221 32.8721 13.4649L32.3825 13.5931C32.2301 13.6359 32.0778 13.6786 31.9146 13.7107L31.4902 13.8175C31.3814 13.8496 31.2835 13.871 31.1746 13.903C31.0767 13.9244 30.9788 13.9458 30.8808 13.9885C30.7612 13.9992 30.6523 14.0313 30.5435 14.074C30.4129 14.0954 30.2824 14.1274 30.1627 14.1702C30.1083 14.1702 30.0647 14.1809 30.0103 14.2022C29.945 14.2343 29.9233 14.2022 29.9124 14.1488C29.8253 13.732 29.7383 13.3153 29.6512 12.8985C29.6404 12.8451 29.5968 12.8237 29.5533 12.8023C28.7154 12.3855 27.8776 11.9795 27.0397 11.5627C26.9635 11.5199 26.8874 11.4772 26.8112 11.4451C26.735 11.3917 26.648 11.3597 26.5501 11.3383V11.5199C26.5392 11.5306 26.5392 11.5413 26.5392 11.552C26.5283 11.6375 26.5174 11.723 26.5174 11.8085C26.4956 11.894 26.4956 11.9902 26.4956 12.0756C26.4956 12.097 26.4848 12.1184 26.4848 12.1398C26.463 12.268 26.463 12.3855 26.4521 12.5138C26.4521 12.5565 26.4521 12.5886 26.4521 12.6313C26.4304 12.8023 26.4195 12.9733 26.4086 13.155C26.3868 13.2511 26.3759 13.358 26.3868 13.4649C26.3651 13.5504 26.3651 13.6465 26.3651 13.732C26.3542 13.7748 26.3433 13.8282 26.3542 13.8816V13.903C26.3433 14.0206 26.3433 14.1381 26.3215 14.2557C26.2998 14.3091 26.3324 14.3732 26.3977 14.3946H26.4086C26.6262 14.4694 26.8221 14.6083 26.9635 14.79C27.0941 14.9503 27.0941 14.9503 27.29 14.8862C27.3009 14.8862 27.3117 14.8755 27.3226 14.8755C27.4314 14.8541 27.5403 14.8327 27.6382 14.79C27.747 14.7686 27.8558 14.7472 27.9646 14.7045C28.0734 14.6831 28.1931 14.6618 28.2911 14.619C28.3455 14.619 28.4108 14.5976 28.4543 14.5763C28.5631 14.5549 28.6719 14.5335 28.7699 14.4908C28.8787 14.4694 28.9875 14.448 29.0854 14.4053C29.1725 14.3946 29.2595 14.3732 29.3357 14.3412C29.4119 14.3305 29.4989 14.3091 29.5751 14.277C29.673 14.2557 29.7709 14.2343 29.8689 14.2129C29.9342 14.2129 29.9233 14.2664 29.9342 14.2984C29.9886 14.5549 30.043 14.8114 30.1083 15.0572C29.9777 15.0892 29.8362 15.1106 29.7057 15.1426C29.6621 15.1533 29.6186 15.164 29.5751 15.1747C29.4771 15.1961 29.3792 15.2174 29.2813 15.2495C29.1833 15.2602 29.0854 15.2816 28.9875 15.3136C28.9222 15.3243 28.8569 15.3457 28.7916 15.3564L28.5196 15.4205C28.4543 15.4205 28.389 15.4419 28.3346 15.4632L28.1605 15.506C28.0734 15.5274 27.9755 15.5487 27.8885 15.5701C27.8014 15.5808 27.7144 15.6022 27.6382 15.6342C27.5947 15.6235 27.5511 15.6556 27.5076 15.6556L27.3444 15.6983C27.2791 15.6876 27.2573 15.7197 27.2465 15.7731C27.2356 15.8373 27.2247 15.8907 27.2138 15.9548C27.1921 16.0189 27.1703 16.0724 27.1376 16.1365C27.1268 16.1685 27.1268 16.2006 27.1485 16.222C27.3117 16.393 27.475 16.5746 27.6382 16.7456C27.7688 16.9059 27.9102 17.0555 28.0626 17.2051C28.1605 17.3227 28.2693 17.4402 28.3781 17.5578C28.4434 17.6433 28.5305 17.7288 28.6066 17.8142C28.7046 17.9318 28.8134 18.0493 28.9222 18.1669C29.0528 18.3058 29.1725 18.4447 29.303 18.5837C29.3792 18.6692 29.4554 18.7547 29.5316 18.8401C29.5968 18.9256 29.6621 19.0004 29.7383 19.0646C29.8254 19.1821 29.9342 19.289 30.0321 19.3958C30.1083 19.492 30.1953 19.5882 30.2824 19.6737C30.3803 19.7912 30.4891 19.9088 30.5979 20.0263C30.685 20.1332 30.772 20.2294 30.87 20.3256C31.0005 20.4645 31.1202 20.6141 31.2508 20.753C31.2508 20.7744 31.2726 20.7851 31.2943 20.7958C31.3052 20.7637 31.2943 20.7316 31.2726 20.7103C31.1094 19.9622 30.957 19.2035 30.7938 18.4554C30.7394 18.1883 30.6632 17.9318 30.6197 17.6646C30.5653 17.3975 30.5109 17.1196 30.4456 16.8632C30.3803 16.5746 30.3259 16.2754 30.2606 15.9869C30.2062 15.6983 30.13 15.4098 30.0865 15.1106C30.228 15.0785 30.3694 15.0358 30.5109 15.0037C30.6523 14.9823 30.7938 14.9503 30.9353 14.9075C31.0332 14.8969 31.1311 14.8755 31.229 14.8434C31.3487 14.8327 31.4576 14.8007 31.5773 14.7686C31.6643 14.7579 31.7622 14.7366 31.8493 14.7045C32.0125 14.6831 32.1648 14.6404 32.3172 14.5976C32.4478 14.5763 32.5783 14.5442 32.7089 14.5121C32.883 14.4801 33.0462 14.448 33.2203 14.3946C33.3074 14.3839 33.3944 14.3625 33.4815 14.3412C33.5468 14.3198 33.5686 14.3412 33.5903 14.3946C33.623 14.4694 33.6774 14.5442 33.7427 14.5976C33.8841 14.7793 34.0909 14.9075 34.3085 14.961C34.3411 14.9717 34.3847 14.9823 34.4173 14.993C34.4935 15.0037 34.5152 15.0251 34.5043 15.1106C34.4826 15.2281 34.4826 15.3564 34.4717 15.4846V15.4953C34.4717 15.4953 34.4717 15.4846 34.4608 15.4846C34.4391 15.4953 34.4173 15.5274 34.4173 15.5487C34.3955 15.7411 34.3738 15.9334 34.3738 16.1365C34.3738 16.1579 34.3738 16.1792 34.3847 16.2006C34.3738 16.2968 34.3629 16.3823 34.3629 16.4784V16.5426C34.352 16.5746 34.3411 16.6067 34.352 16.6494C34.352 16.6922 34.352 16.7242 34.3411 16.767C34.3411 16.7777 34.3302 16.7883 34.3302 16.799C34.3194 16.8204 34.3194 16.8525 34.3194 16.8845V16.9807C34.3085 16.9914 34.3085 17.0128 34.3085 17.0341C34.2758 17.2265 34.265 17.4295 34.2541 17.6219C34.2432 17.6433 34.2432 17.6753 34.2323 17.6967C34.1779 18.2951 34.1126 18.9043 34.0582 19.5027C33.9385 20.7103 33.8188 21.9178 33.6991 23.1361C33.6882 23.2323 33.6774 23.3177 33.6665 23.4246L33.5141 23.275C33.4053 23.1468 33.2965 23.0185 33.1768 22.901C33.0898 22.7941 33.0027 22.6979 32.9048 22.6124C32.8177 22.5056 32.7198 22.3987 32.6219 22.3025C32.5131 22.1743 32.4042 22.0461 32.2845 21.9285C32.1757 21.8003 32.056 21.6827 31.9472 21.5545C31.8493 21.4369 31.7514 21.3301 31.6317 21.2232C31.5446 21.0843 31.414 20.9881 31.3161 20.8492C31.2943 20.8492 31.2943 20.8706 31.2943 20.8919C31.3596 21.1805 31.414 21.4583 31.4793 21.7468C31.4793 21.7789 31.4902 21.811 31.4902 21.843C31.5337 22.0354 31.5664 22.2384 31.6099 22.4308C31.6099 22.4521 31.6099 22.4628 31.5881 22.4735C31.4576 22.3346 31.327 22.1957 31.2073 22.0567C31.1638 21.9926 31.1094 21.9285 31.0441 21.8644C30.9897 21.7789 30.9135 21.7041 30.8373 21.64C30.7503 21.5331 30.6632 21.4263 30.5653 21.3301C30.4782 21.2232 30.3912 21.1163 30.2932 21.0202C30.228 20.9347 30.1627 20.8599 30.0865 20.7958C30.0103 20.6996 29.9342 20.6141 29.8471 20.5286C29.7927 20.4645 29.7383 20.4004 29.6839 20.3362C29.6404 20.2507 29.5424 20.208 29.488 20.1332C29.4119 20.0156 29.3139 19.9195 29.216 19.8233C29.1398 19.7164 29.0419 19.6096 28.944 19.5134C28.8895 19.4386 28.8243 19.3638 28.759 19.3103C28.7263 19.2462 28.6719 19.1928 28.6175 19.1394C28.574 19.0966 28.5305 19.0432 28.4869 19.0004C28.4543 18.9363 28.389 18.8936 28.3346 18.8295C28.2584 18.7226 28.1714 18.6264 28.0843 18.5409C27.9755 18.4234 27.8776 18.3058 27.7688 18.1883C27.7035 18.1135 27.6273 18.0387 27.562 17.9639C27.4641 17.8356 27.3553 17.7181 27.2465 17.6112C27.1703 17.5043 27.0941 17.4082 26.9962 17.3227C26.9309 17.2372 26.8656 17.1624 26.7894 17.0983C26.7242 17.0235 26.648 16.938 26.5936 16.8632C26.5501 16.8097 26.5174 16.8204 26.4739 16.8525L26.4086 16.8738L26.278 16.9166L26.191 16.938L26.0495 16.9593H26.0277C25.9733 16.9593 25.9189 16.9593 25.8645 16.9593C25.7992 16.9486 25.7775 16.9807 25.7666 17.0341C25.7448 17.0662 25.7339 17.1089 25.7122 17.141L25.7013 17.1731C25.6795 17.2051 25.6578 17.2372 25.6578 17.2799C25.636 17.3013 25.6251 17.3334 25.6143 17.3654C25.5816 17.4082 25.5598 17.4616 25.549 17.515C25.5272 17.5257 25.5272 17.5471 25.5272 17.5685C25.5054 17.6005 25.4837 17.6326 25.4837 17.6753C25.451 17.7181 25.4293 17.7715 25.4184 17.8249C25.3857 17.8784 25.3531 17.9425 25.3422 18.0173C25.2987 18.0814 25.2769 18.1562 25.2552 18.2203C25.2225 18.2631 25.2008 18.3165 25.1899 18.3699C25.1572 18.4127 25.1355 18.4661 25.1246 18.5195C25.0811 18.5944 25.0484 18.6798 25.0158 18.7653C24.9722 18.8295 24.9505 18.9043 24.9287 18.9684C24.907 18.9897 24.8961 19.0218 24.8961 19.0539C24.8634 19.1073 24.8417 19.1607 24.8308 19.2142C24.7764 19.3103 24.7329 19.4065 24.7002 19.5027C24.6567 19.5775 24.6132 19.663 24.5914 19.7592C24.5588 19.8126 24.5261 19.8767 24.5152 19.9515C24.4608 20.0477 24.4173 20.1546 24.3847 20.2614C24.3085 20.411 24.2323 20.5713 24.1779 20.7423C24.167 20.753 24.1561 20.7744 24.1561 20.7851C23.9929 21.1591 23.8406 21.5224 23.6774 21.8965C23.5577 22.1743 23.4489 22.4521 23.3292 22.73C23.253 22.8903 23.1877 23.0399 23.1224 23.2109L22.9918 23.5208C22.9483 23.5956 22.9157 23.6704 22.8939 23.7452C22.8613 23.8093 22.8286 23.8841 22.8069 23.9482C22.7524 24.0444 22.7198 24.1406 22.6872 24.2368C22.6545 24.2795 22.6327 24.333 22.6219 24.3864C22.6001 24.4291 22.5892 24.4719 22.5675 24.5039C22.5348 24.5574 22.5022 24.6215 22.4913 24.6963C22.4478 24.7711 22.4151 24.8459 22.3934 24.9207C22.3281 25.0062 22.3172 25.081 22.426 25.1344C22.4478 25.1558 22.4695 25.1772 22.4913 25.1986C22.5131 25.2413 22.5566 25.284 22.6001 25.3268C22.6327 25.3695 22.6545 25.4123 22.6872 25.4443C22.698 25.4871 22.7198 25.5298 22.7524 25.5619C22.7524 25.5833 22.7524 25.594 22.7742 25.6046C22.8177 25.6153 22.8721 25.6153 22.9265 25.6046C22.9374 25.6046 22.9483 25.594 22.9483 25.5833L22.9265 25.6046C22.981 25.6153 23.0462 25.6046 23.1006 25.594H23.1986C23.2856 25.594 23.3727 25.594 23.4489 25.5726H23.5577C23.5903 25.5833 23.6338 25.5726 23.6665 25.5619C23.6991 25.5726 23.7318 25.5619 23.7753 25.5619C23.8079 25.5619 23.8515 25.5619 23.8841 25.5619C23.9276 25.5619 23.9603 25.5619 24.0038 25.5512C24.0147 25.5512 24.0256 25.5512 24.0256 25.5405C24.08 25.5405 24.1235 25.5405 24.1779 25.5405H24.1888H24.1779C24.2214 25.5405 24.265 25.5405 24.3194 25.5298C24.3302 25.5298 24.3411 25.5298 24.352 25.5191H24.4173H24.5043C24.5588 25.5298 24.6023 25.5191 24.6567 25.5085C24.7002 25.5085 24.7546 25.5085 24.7981 25.4978H24.8199C24.8743 25.5085 24.9178 25.4978 24.9722 25.4871H24.9831H24.994C25.0593 25.4871 25.1355 25.4871 25.2008 25.4871H25.2116C25.2334 25.4871 25.266 25.4764 25.2878 25.4764H25.3313C25.3966 25.4764 25.4619 25.4764 25.5272 25.4764C25.549 25.4764 25.5816 25.4657 25.6034 25.4657H25.6469C25.7339 25.4764 25.821 25.4657 25.8972 25.4443C25.9516 25.4443 26.006 25.4443 26.0713 25.4337C26.1148 25.4337 26.1474 25.4337 26.191 25.423C26.2018 25.423 26.2127 25.423 26.2236 25.4123C26.3324 25.4123 26.4304 25.4123 26.5392 25.3909C26.5827 25.3909 26.6262 25.3909 26.6589 25.3909H26.6806C26.7133 25.3909 26.7568 25.3909 26.7894 25.3802C26.8003 25.3802 26.8221 25.3802 26.833 25.3695L26.9635 25.3589C27.0288 25.3695 27.0941 25.3589 27.1594 25.3482C27.2465 25.3482 27.3226 25.3482 27.4097 25.3375C27.4314 25.3375 27.4532 25.3375 27.475 25.3268C27.562 25.3268 27.6382 25.3268 27.7252 25.3161C27.747 25.3161 27.7688 25.3161 27.7905 25.3054C27.8667 25.3054 27.9429 25.3054 28.019 25.2947C28.1496 25.2947 28.2802 25.284 28.3999 25.2627C28.4216 25.2627 28.4434 25.2627 28.4652 25.2627C28.5522 25.2627 28.6502 25.2627 28.7372 25.2413C28.8243 25.252 28.9222 25.2413 29.0092 25.2199C29.1289 25.2199 29.2486 25.2199 29.3683 25.1986C29.4119 25.1986 29.4554 25.1986 29.4989 25.1986C29.5098 25.2413 29.4771 25.252 29.4554 25.2734C29.2269 25.5512 28.9984 25.8291 28.759 26.1069C28.8351 26.0962 28.9004 26.0962 28.9766 26.0855C29.1398 26.0748 29.2922 26.0748 29.4554 26.0428C29.6839 26.0428 29.9124 26.0214 30.13 26C30.3368 26 30.5544 25.9787 30.7612 25.9573C30.87 25.9573 30.9897 25.9573 31.0985 25.9359C31.3052 25.9359 31.512 25.9252 31.7078 25.8932C31.8058 25.9039 31.9037 25.8932 32.0016 25.8718C32.1431 25.8718 32.2954 25.8611 32.4369 25.8504C32.4586 25.8611 32.5131 25.8397 32.4804 25.8932C32.4478 25.9466 32.4151 26 32.3934 26.0535C32.1104 26.5664 31.8275 27.09 31.5446 27.603C31.4032 27.8274 31.2943 28.0625 31.1746 28.2869C31.0658 28.4579 30.9788 28.6289 30.8917 28.7999C30.8156 28.9174 30.7503 29.0457 30.685 29.1739C30.6415 29.238 30.6088 29.3021 30.5762 29.3663C30.5653 29.3769 30.5544 29.3769 30.5435 29.3876C30.4456 29.5159 30.3694 29.6655 30.315 29.8151C30.315 29.8151 30.315 29.8151 30.3259 29.8151C30.2933 29.8258 30.2824 29.8471 30.2606 29.8792C30.1844 30.0181 30.0974 30.157 30.0321 30.296C29.9777 30.3601 29.945 30.4349 29.9342 30.5204C29.8906 30.5311 29.8798 30.5631 29.858 30.5952C29.7492 30.8089 29.6295 31.0013 29.5207 31.215C29.4989 31.2471 29.4771 31.2898 29.488 31.3326C29.4445 31.3432 29.4227 31.386 29.401 31.4287C29.2922 31.6318 29.1833 31.8455 29.0637 32.0485C29.0419 32.0806 29.0201 32.1234 29.0419 32.1661C29.0201 32.1661 29.0092 32.1768 28.9984 32.1875C28.9004 32.3264 28.8351 32.4867 28.7481 32.6363C28.7372 32.6577 28.7372 32.679 28.7481 32.7004C28.7263 32.7004 28.7154 32.7111 28.7046 32.7218C28.6175 32.8607 28.5413 33.0103 28.4543 33.1599C28.3999 33.1386 28.3999 33.1492 28.3999 33.1706ZM3.63384 18.7226C3.55767 19.0218 3.4815 19.3317 3.40533 19.6309C3.31828 19.9622 3.24211 20.2935 3.15506 20.6248C3.07889 20.8706 3.02448 21.1163 2.97007 21.3728C2.94831 21.4049 2.93743 21.4476 2.94831 21.4904C2.91567 21.4797 2.92655 21.4476 2.92655 21.4156C2.92655 21.2873 2.91567 21.1591 2.91567 21.0309C2.91567 20.582 2.91567 20.1439 2.91567 19.6951C2.91567 19.4065 2.91567 19.1287 2.91567 18.8401C2.91567 18.8401 2.91567 18.8401 2.91567 18.8295C2.91567 18.7974 2.91567 18.7546 2.90478 18.7226C2.90478 18.4554 2.90478 18.1883 2.90478 17.9211C2.90478 17.2265 2.90478 16.5212 2.90478 15.8266C2.90478 15.7945 2.88302 15.7411 2.94831 15.7304C3.02448 15.6983 3.08977 15.6663 3.16594 15.6235C3.25299 15.5701 3.34004 15.506 3.40533 15.4312C3.75353 15.0678 3.8297 14.4587 3.56855 14.074L3.40533 13.8496C3.40533 13.8282 3.39445 13.7962 3.37268 13.7855C3.3074 13.732 3.32916 13.6786 3.37268 13.6252C3.45974 13.5183 3.52502 13.4114 3.60119 13.3046C3.62296 13.2725 3.6556 13.2511 3.63384 13.2084C3.68824 13.2191 3.69913 13.1657 3.72089 13.1336C4.16703 12.4924 4.61316 11.8512 5.0593 11.21C5.55984 10.4834 6.07127 9.75669 6.57181 9.01933C6.65886 8.88041 6.7568 8.74148 6.86561 8.61325C6.86561 8.63462 6.85473 8.66668 6.84385 8.68805C6.77856 8.86972 6.72415 9.0407 6.65886 9.22237C6.5827 9.44679 6.49564 9.66051 6.44124 9.88493C6.36507 10.1093 6.27802 10.3444 6.20185 10.5689C6.09303 10.9001 5.98422 11.2207 5.8754 11.552C5.86452 11.5627 5.86452 11.5841 5.85364 11.5948C5.50544 12.61 5.15723 13.6145 4.80903 14.6297C4.75462 14.7793 4.72198 14.9075 4.53699 14.9503C4.43906 14.9823 4.36289 15.0251 4.28672 15.0999C3.81882 15.4419 3.68824 16.0724 3.96028 16.5746C3.98204 16.6387 4.01469 16.6922 4.06909 16.7349C4.11262 16.7884 4.13438 16.8525 4.10174 16.9166C3.92764 17.5364 3.78618 18.1348 3.63384 18.7226ZM32.2301 8.37814C32.241 8.38883 32.2519 8.38883 32.2628 8.39952C32.4913 8.47432 32.7307 8.52775 32.9592 8.59187C32.981 8.60256 33.0027 8.60256 33.0136 8.59187L33.0245 8.60256C33.1877 8.65599 33.3509 8.70942 33.5141 8.74148C33.5686 8.76286 33.6012 8.77354 33.6012 8.83766C33.6012 8.90178 33.6012 8.9659 33.6012 9.0407C33.6012 9.05139 33.6012 9.06207 33.6121 9.07276C33.623 9.08345 33.623 9.08345 33.6338 9.09413C33.6774 9.52159 33.9494 9.89561 34.352 10.0666C34.352 10.0773 34.3629 10.0773 34.3629 10.088C34.4608 10.1628 34.5914 10.1948 34.722 10.1735C34.7329 10.1841 34.7329 10.1841 34.7437 10.1948C34.7655 10.2162 34.7764 10.2376 34.7764 10.2696V10.2803C34.7764 10.5047 34.7437 10.7292 34.7546 10.9536C34.722 11.1994 34.722 11.4451 34.7111 11.7016C34.7002 11.7123 34.6893 11.7123 34.6893 11.723C34.6567 11.9047 34.6458 12.0863 34.6676 12.268C34.6676 12.2787 34.6785 12.2787 34.6785 12.2894C34.6349 12.3107 34.6458 12.3535 34.6458 12.3855C34.6458 12.4497 34.624 12.4817 34.5588 12.4924C34.537 12.4924 34.5261 12.5031 34.5152 12.5138C34.4282 12.4924 34.3411 12.439 34.2758 12.3749C34.1344 12.2573 33.982 12.1504 33.8406 12.0329C33.8079 12.0115 33.7862 11.9795 33.7427 11.9795C33.7318 11.9474 33.71 11.9153 33.6774 11.894C33.5468 11.7871 33.4053 11.6802 33.2639 11.5734C33.1551 11.4879 33.0462 11.4131 32.9265 11.349C32.9157 11.3169 32.8939 11.2848 32.8613 11.2635C32.5675 11.0391 32.2845 10.804 31.9799 10.5902C31.9581 10.5689 31.9363 10.5475 31.9037 10.5582V10.5475C31.8711 10.5261 31.8493 10.4941 31.8166 10.4727C31.4576 10.1948 31.0985 9.91699 30.7285 9.63914C30.7285 9.62845 30.7285 9.62845 30.7285 9.61777C30.7067 9.56434 30.6523 9.53228 30.6088 9.50022C29.7818 8.85903 28.9548 8.21785 28.1279 7.56598C27.9973 7.44843 27.8667 7.35225 27.7144 7.26676H27.7035C27.6491 7.18127 27.5403 7.13852 27.475 7.06372C27.5294 7.06372 27.5729 7.10646 27.6273 7.08509C27.6273 7.08509 27.6382 7.08509 27.6382 7.09578C27.8232 7.17058 28.019 7.22401 28.2149 7.26676C28.2258 7.26676 28.2367 7.26676 28.2367 7.26676C28.2367 7.26676 28.2367 7.26676 28.2475 7.26676C28.2584 7.27744 28.2802 7.28813 28.2911 7.28813C28.4761 7.34156 28.661 7.39499 28.8569 7.44843C28.8787 7.45911 28.9113 7.44843 28.9331 7.43774C28.9331 7.45911 28.9548 7.4698 28.9657 7.48049C29.0963 7.52323 29.2378 7.55529 29.3683 7.58735C29.3792 7.58735 29.3901 7.58735 29.401 7.57666L29.4119 7.58735C29.5642 7.65147 29.7274 7.69421 29.9015 7.73696C29.9233 7.74765 29.9559 7.74765 29.9777 7.73696V7.72627C30.0865 7.82245 30.228 7.83314 30.3694 7.85451C30.3694 7.84382 30.3694 7.84382 30.3694 7.83314C30.3803 7.85451 30.4021 7.87588 30.4347 7.87588C30.587 7.91863 30.7394 7.96137 30.8917 8.00412C30.9135 8.01481 30.9461 8.01481 30.9679 8.00412L30.9788 8.01481C31.0985 8.06824 31.229 8.1003 31.3596 8.13236C31.4576 8.1751 31.5555 8.19648 31.6643 8.19648L31.6752 8.18579C31.8275 8.28197 32.0016 8.32471 32.1866 8.3354C32.2193 8.35677 32.2193 8.36746 32.2301 8.37814ZM37.4206 16.5426C37.377 16.4998 37.3662 16.4357 37.3009 16.4143C37.29 16.393 37.2682 16.3609 37.2573 16.3395C37.0832 16.083 36.92 15.8159 36.735 15.5701C36.735 15.5274 36.7024 15.506 36.6915 15.4846C36.4412 15.1106 36.2018 14.7472 35.9516 14.3732C35.9407 14.3198 35.8754 14.2877 35.8863 14.2236C35.9189 14.1167 35.9516 14.0099 35.9733 13.8923C36.0169 13.4862 35.8536 13.0909 35.549 12.8237C35.5054 12.7916 35.4946 12.7489 35.4946 12.6955C35.5054 12.5458 35.5054 12.3855 35.5163 12.2359C35.5272 11.9795 35.5381 11.723 35.549 11.4558C35.5707 11.4345 35.5707 11.4131 35.5707 11.381C35.5707 11.3276 35.5707 11.2742 35.5925 11.2207C35.6034 11.1139 35.6034 10.9963 35.6034 10.8895C35.6469 11.0711 35.7122 11.2421 35.7884 11.4131C35.7884 11.4451 35.7884 11.4772 35.7992 11.5093C35.8754 11.7871 35.9733 12.0543 36.0604 12.3321C36.3868 13.3366 36.7133 14.3412 37.0506 15.335C37.1921 15.7731 37.3335 16.2113 37.4859 16.6601C37.4532 16.6067 37.4423 16.5746 37.4206 16.5426ZM24.167 25.4764C24.167 25.4764 24.1779 25.4764 24.167 25.4764V25.4764ZM29.9668 25.1131C29.9559 25.1024 29.9559 25.1024 29.945 25.0917C29.7927 25.0917 29.6404 25.1024 29.488 25.1238C29.6295 24.9848 29.7383 24.8245 29.8689 24.6856C29.9342 24.6215 29.9886 24.5467 30.0321 24.4612C30.0647 24.4505 30.0974 24.4184 30.1191 24.3864C30.2171 24.2795 30.3041 24.162 30.4021 24.0551C30.4565 23.991 30.5218 23.9376 30.5326 23.8521C30.6741 23.7345 30.8047 23.5956 30.9026 23.4353C30.9026 23.4246 30.9026 23.4246 30.9026 23.4139C30.9353 23.4032 30.9679 23.3819 30.9897 23.3498C31.0332 23.2964 31.0767 23.2429 31.1202 23.1895C31.2835 22.9865 31.4793 22.7941 31.6208 22.5804C31.6208 22.5804 31.6208 22.5804 31.6208 22.5697C31.6969 22.6766 31.7949 22.7621 31.8819 22.8689C31.8928 22.8903 31.9146 22.901 31.9472 22.901C32.0125 23.0399 32.1213 23.1681 32.2519 23.2536H32.2628C32.3172 23.3819 32.4151 23.4994 32.5348 23.5635C32.5675 23.6918 32.6763 23.7452 32.7416 23.8414C32.7524 23.8628 32.7742 23.8628 32.796 23.8628C32.8504 23.9376 32.8395 24.0017 32.7633 24.0765C32.611 24.2582 32.5131 24.4719 32.4804 24.707C32.4804 24.7818 32.4695 24.8459 32.4369 24.91H32.426C32.4042 24.8993 32.3825 24.8993 32.3607 24.8993C32.2628 24.91 32.1648 24.91 32.056 24.9314C32.0234 24.9314 31.9907 24.9528 31.969 24.9741C31.9581 24.9635 31.9581 24.9635 31.9472 24.9528C31.8166 24.9421 31.6752 24.9528 31.5446 24.9741C31.5337 24.9741 31.5228 24.9848 31.512 24.9848C31.5011 24.9741 31.4902 24.9635 31.4684 24.9635C31.3487 24.9635 31.229 24.9741 31.1094 24.9955C31.0876 24.9955 31.0658 25.0169 31.0549 25.0276C31.0441 25.0169 31.0441 25.0169 31.0332 25.0062C30.8808 24.9848 30.7176 25.0062 30.5762 25.0489C30.5653 25.0383 30.5544 25.0276 30.5435 25.0276C30.4129 25.0276 30.2824 25.0276 30.1627 25.0489C30.0974 25.0703 30.0212 25.0489 29.9668 25.1131ZM13.7209 11.5093C13.6556 11.5199 13.6012 11.5413 13.5468 11.5948C13.5468 11.6054 13.5359 11.6054 13.5359 11.6161C13.4271 11.6589 13.3292 11.7016 13.2203 11.755C12.6545 12.0115 12.0887 12.268 11.512 12.5245C11.4576 12.5458 11.414 12.5993 11.4032 12.6527C11.327 12.9626 11.2508 13.2725 11.1746 13.5824C11.1202 13.7962 11.0767 13.9992 11.0223 14.2129C11.0114 14.2129 11.0114 14.2129 11.0005 14.2129C10.9897 14.2236 10.9788 14.2343 10.9788 14.245C10.9244 14.448 10.87 14.6618 10.8156 14.8648C10.8047 14.8969 10.8047 14.9182 10.8264 14.9503C10.8156 14.961 10.8156 14.961 10.8047 14.961C10.7938 14.9717 10.7829 14.993 10.7829 15.0037C10.7067 15.2602 10.6523 15.5274 10.587 15.7945C10.5762 15.8266 10.5762 15.8586 10.5979 15.88L10.6088 15.8907C10.5979 15.9121 10.587 15.8693 10.5762 15.8907C10.5435 15.9228 10.5326 15.9655 10.5326 16.0189C10.3912 16.596 10.2388 17.1624 10.0974 17.7394C10.0647 17.8249 10.0539 17.9211 10.043 18.0066V18.0173C9.90152 17.9318 9.74918 17.857 9.58596 17.7929C9.57508 17.7822 9.55332 17.7929 9.54243 17.8036C9.42274 17.7394 9.30304 17.686 9.17247 17.6433C9.05277 17.5685 8.92219 17.515 8.79162 17.4723C8.69369 17.4082 8.58487 17.3547 8.47606 17.3227C8.38901 17.2692 8.30196 17.2158 8.20402 17.1944C8.10609 17.141 8.00816 17.0983 7.91022 17.0555C7.82317 17.0021 7.73612 16.9593 7.63819 16.9273C7.50761 16.8525 7.36616 16.7884 7.21382 16.7349C7.07236 16.6601 6.92002 16.5853 6.76768 16.5319C6.64798 16.4678 6.51741 16.4036 6.38683 16.3716C6.3433 16.3395 6.29978 16.3075 6.25625 16.2968C6.19097 16.2754 6.18008 16.2433 6.19096 16.1792C6.21273 16.0617 6.20185 15.9548 6.18008 15.8373C6.18008 15.8266 6.18008 15.8159 6.19096 15.8052C6.14744 15.709 6.18008 15.5915 6.27802 15.538C6.2889 15.5274 6.29978 15.506 6.31066 15.4846C6.3433 15.4846 6.36507 15.4632 6.38683 15.4419C6.49564 15.3457 6.60446 15.2495 6.71327 15.1533C6.73503 15.132 6.74592 15.1213 6.7568 15.0999C6.77856 15.0999 6.80032 15.0999 6.8112 15.0785C6.89826 14.9823 7.00707 14.9182 7.09412 14.8221C7.105 14.8114 7.11588 14.79 7.12676 14.7686C7.15941 14.7686 7.18117 14.7579 7.20293 14.7366C7.28999 14.6404 7.3988 14.5763 7.48585 14.4801C7.50761 14.4587 7.54026 14.4373 7.54026 14.4053C7.58378 14.4267 7.60555 14.3839 7.62731 14.3625C7.79053 14.2129 7.96463 14.074 8.12785 13.9244C8.14962 13.903 8.19314 13.8923 8.17138 13.8496C8.2149 13.8603 8.23667 13.8282 8.26931 13.7962C8.56311 13.5504 8.84602 13.2939 9.13982 13.0374C9.17247 13.016 9.19423 12.9947 9.20511 12.9626C9.23775 12.9626 9.24864 12.9412 9.2704 12.9199C9.57508 12.6634 9.858 12.3962 10.1627 12.1398C10.1953 12.1184 10.2171 12.0863 10.2171 12.0436C10.2824 12.0543 10.315 12.0115 10.3477 11.9795C10.685 11.6802 11.0332 11.381 11.3705 11.0818C11.7296 10.7612 12.0887 10.4513 12.4478 10.1307C12.8286 9.78875 13.2203 9.45747 13.6012 9.11551C13.7209 9.01933 13.8297 8.91247 13.9494 8.81629C13.9712 8.79491 14.0038 8.77354 14.0364 8.79491C14.0691 8.81629 14.0582 8.83766 14.0582 8.86972C14.0582 8.90178 14.0473 8.94452 14.08 8.9659L14.0147 9.50022C13.982 9.63914 13.9712 9.77806 13.9712 9.91699C13.9494 10.0345 13.9276 10.1521 13.9276 10.2696C13.895 10.4406 13.8732 10.6116 13.8623 10.7933C13.8297 10.9536 13.8079 11.1139 13.8079 11.2742L13.7971 11.2848C13.7427 11.3383 13.7318 11.4238 13.7209 11.5093C13.7318 11.5093 13.7318 11.5093 13.7209 11.5093ZM14.6785 10.6543C14.7002 10.5154 14.722 10.3658 14.722 10.2162C14.7437 10.0666 14.7546 9.92767 14.7764 9.77806L14.8199 9.40404C14.8417 9.2758 14.8526 9.15825 14.8634 9.03001L14.8743 9.01933C14.8852 8.91247 14.9722 8.81629 15.0811 8.79491C15.1355 8.77354 15.2008 8.75217 15.2443 8.70942C15.2769 8.68805 15.3205 8.67736 15.364 8.67736C15.4184 8.76285 15.5054 8.82697 15.6034 8.84835C15.6687 8.9659 15.7884 9.05139 15.9189 9.08345C15.9733 9.17963 16.0604 9.24374 16.1692 9.26512C16.2127 9.35061 16.2998 9.41473 16.3977 9.4361C16.3868 9.47884 16.4195 9.50022 16.4521 9.52159C16.5174 9.57502 16.5936 9.61777 16.648 9.6712C16.6697 9.69257 16.6915 9.71395 16.735 9.69257C16.7242 9.72463 16.7459 9.73532 16.7677 9.75669C16.8765 9.84218 16.9853 9.91699 17.0941 9.99179C16.92 10.0452 16.7568 10.12 16.5936 10.1948C16.1039 10.4192 15.6143 10.633 15.1246 10.8574C14.9505 10.9322 14.7764 11.007 14.6132 11.1032C14.6458 10.9643 14.6676 10.8253 14.6676 10.6757C14.6893 10.665 14.6785 10.6543 14.6785 10.6543ZM19.3357 3.47308C19.5316 3.57995 19.7383 3.67612 19.945 3.76161C20.1627 3.87917 20.3803 3.97534 20.6088 4.07152C20.8808 4.21044 21.1638 4.33868 21.4467 4.46692C21.6643 4.58447 21.8928 4.68065 22.1104 4.77682C22.2628 4.86232 22.426 4.93712 22.6001 5.00124C22.8286 5.11879 23.068 5.23634 23.3074 5.33252C23.525 5.45007 23.7427 5.55693 23.9712 5.64242C24.3194 5.81341 24.6676 5.9737 25.0267 6.134C25.0158 6.19812 25.0158 6.26223 25.0049 6.31567C24.994 6.35841 24.994 6.40116 24.9831 6.43322L24.3955 6.48665C23.895 6.5294 23.3836 6.57214 22.883 6.61489L21.599 6.72175C21.5555 6.71106 21.512 6.72175 21.4684 6.73244L21.3487 6.74312C21.3052 6.74312 21.2617 6.74312 21.2182 6.75381L21.0985 6.7645C21.0549 6.7645 21.0114 6.7645 20.9679 6.77518C20.9244 6.77518 20.8808 6.77518 20.8482 6.77518C20.8264 6.77518 20.8047 6.77518 20.7829 6.77518C20.1953 6.81793 19.5968 6.87136 19.0092 6.92479C18.7263 6.94617 18.4434 6.97822 18.1605 6.9996L18.0408 7.01028C17.9973 7.01028 17.9538 7.01028 17.9102 7.02097C17.8667 7.02097 17.8341 7.02097 17.7905 7.03166C17.7361 7.03166 17.6926 7.03166 17.6382 7.05303C17.5947 7.05303 17.5511 7.05303 17.5076 7.06372C17.4641 7.05303 17.4206 7.06372 17.377 7.0744C17.1376 7.09577 16.8874 7.10646 16.648 7.12783C16.4739 7.13852 16.2889 7.15989 16.1148 7.18127L15.9951 7.19195C15.9516 7.19195 15.908 7.19195 15.8645 7.20264C15.7775 7.22401 15.7339 7.18127 15.7013 7.10646C15.6687 7.02097 15.6143 6.95685 15.549 6.89273C15.4401 6.80724 15.451 6.72175 15.5272 6.61489C15.5381 6.59351 15.549 6.58283 15.549 6.56145C15.6143 6.43322 15.6687 6.30498 15.7339 6.18743C15.7339 6.18743 15.7448 6.18743 15.7448 6.17674C15.8101 6.09125 15.8645 5.99507 15.908 5.88821C15.9298 5.86684 15.9298 5.83478 15.908 5.81341C16.006 5.7386 16.0277 5.61036 16.093 5.51419C16.1039 5.5035 16.1039 5.48213 16.1039 5.46075C16.1801 5.35389 16.2345 5.24703 16.278 5.12948C16.2889 5.11879 16.278 5.1081 16.278 5.08673C16.3107 5.07604 16.3324 5.04398 16.3433 5.01193C16.4195 4.86232 16.4848 4.71271 16.5609 4.5631C16.5718 4.54172 16.5827 4.50966 16.5718 4.48829C16.5936 4.48829 16.6045 4.46692 16.6153 4.45623C16.6806 4.31731 16.7568 4.17838 16.8221 4.03946C16.8438 4.01809 16.8438 3.98603 16.833 3.96466C16.8438 3.95397 16.8547 3.94328 16.8656 3.9326C16.9527 3.7723 17.0288 3.62269 17.105 3.4624C17.1159 3.44102 17.1159 3.41965 17.105 3.39828C17.1159 3.38759 17.1376 3.3769 17.1376 3.36622C17.1812 3.22729 17.3009 3.21661 17.4314 3.22729C17.66 3.23798 17.8885 3.17386 18.0843 3.04563C18.1496 3.00288 18.2258 2.99219 18.302 3.03494C18.4108 3.07768 18.4978 3.15249 18.6284 3.15249H18.6393C18.846 3.25935 19.0963 3.36622 19.3357 3.47308ZM5.54896 14.9075C5.69042 14.4908 5.83188 14.0633 5.98422 13.6465C6.1692 13.0909 6.36507 12.5352 6.55005 11.9795C6.70239 11.5413 6.85473 11.0925 7.00707 10.6543C7.01795 10.633 7.02883 10.6223 7.0506 10.6009C7.07236 10.5689 7.09412 10.5368 7.105 10.4941C7.23558 10.0987 7.36616 9.71395 7.50761 9.31855C7.5185 9.28649 7.52938 9.25443 7.5185 9.22237C7.5185 9.22237 7.50761 9.22237 7.50761 9.21168C7.55114 9.201 7.56202 9.15825 7.5729 9.12619C7.68172 8.85903 7.75789 8.59187 7.84494 8.32471C7.85582 8.29265 7.8667 8.26059 7.85582 8.23922C7.85582 8.23922 7.8667 8.23922 7.8667 8.22853C7.88846 8.19648 7.91022 8.16442 7.92111 8.13236C7.99728 7.91863 8.06256 7.71559 8.13873 7.50186C8.1605 7.43774 8.20402 7.39499 8.25843 7.37362C8.61752 7.25607 8.90043 6.98891 9.02013 6.64695C9.05277 6.56145 9.0963 6.55077 9.18335 6.57214C9.28128 6.6042 9.37921 6.63626 9.48803 6.63626H9.49891C9.50979 6.65763 9.54243 6.66832 9.5642 6.66832C9.66213 6.70038 9.77094 6.72175 9.86888 6.75381C9.90152 6.7645 9.92328 6.7645 9.95593 6.74312V6.75381C10.1409 6.8393 10.3368 6.89273 10.5435 6.92479H10.5544C10.5653 6.94617 10.587 6.95685 10.6197 6.95685C10.7612 6.9996 10.9026 7.03166 11.0441 7.0744C11.0767 7.08509 11.1094 7.09577 11.142 7.0744C11.142 7.08509 11.142 7.08509 11.142 7.09578C11.3379 7.18127 11.5446 7.2347 11.7622 7.26676H11.7731C11.784 7.27744 11.7949 7.28813 11.8166 7.28813C11.9799 7.34156 12.1431 7.38431 12.2954 7.42705C12.3172 7.43774 12.3498 7.42705 12.3716 7.41637C12.3716 7.41637 12.3716 7.41637 12.3825 7.41637C12.3825 7.42705 12.3825 7.42705 12.3825 7.43774C12.5239 7.50186 12.6654 7.5446 12.8177 7.56598C12.8395 7.56598 12.8504 7.56598 12.8613 7.55529C12.9918 7.59804 13.1224 7.64078 13.2639 7.66215C13.34 7.67284 13.4053 7.73696 13.3944 7.81176C13.3944 7.82245 13.3944 7.82245 13.3944 7.83314C13.3944 7.87588 13.4053 7.91863 13.4162 7.95069C13.438 8.00412 13.3944 8.02549 13.3618 8.05755C12.3825 8.93384 11.4032 9.82081 10.4238 10.6971C10.0539 11.0284 9.69477 11.3597 9.33569 11.6802C8.99836 11.9688 8.67192 12.268 8.34548 12.5672C8.14962 12.7275 7.95375 12.8985 7.77965 13.0802C7.60555 13.2191 7.44233 13.3687 7.28999 13.5183C7.105 13.6572 6.9309 13.8282 6.76768 13.9885C6.57181 14.1595 6.37595 14.3412 6.18008 14.5121C5.9951 14.6831 5.79923 14.8434 5.61425 15.0144C5.50544 15.0144 5.53808 14.961 5.54896 14.9075ZM19.216 2.2014C19.2378 2.22277 19.2595 2.22277 19.2813 2.22277C19.3901 2.23346 19.4989 2.24414 19.6186 2.24414C19.6512 2.24414 19.6839 2.24414 19.7165 2.23346C20.4129 2.30826 21.1202 2.38307 21.8166 2.45787C22.5022 2.53268 23.1877 2.60748 23.8732 2.6716C24.2323 2.71435 24.6023 2.74641 24.9614 2.77847C24.9831 2.78915 24.994 2.78915 25.0158 2.79984C25.1572 2.84258 25.2987 2.86396 25.4401 2.86396H25.4293C25.4075 2.9067 25.4075 2.97082 25.4401 3.01357C25.451 3.02425 25.451 3.02425 25.4619 3.03494C25.4837 3.16318 25.5272 3.29141 25.6034 3.40896C25.8863 3.84711 26.4412 4.03946 26.8874 3.86848C27.018 3.83642 27.1376 3.7723 27.2356 3.68681C27.2465 3.68681 27.2573 3.6975 27.2682 3.6975C27.29 3.70818 27.3009 3.70818 27.3226 3.71887C27.3879 3.76161 27.4423 3.80436 27.5076 3.84711C27.8993 4.12495 28.2911 4.39211 28.6828 4.66996C28.7046 4.69133 28.7263 4.71271 28.759 4.72339C29.5207 5.25771 30.2715 5.79203 31.0332 6.32635C31.3596 6.56145 31.6861 6.78587 32.0234 7.01028C32.1322 7.09577 32.241 7.17058 32.3607 7.25607C32.3716 7.26676 32.4151 7.26676 32.3934 7.29882C32.1431 7.2347 31.8928 7.17058 31.6425 7.10646H31.6317C31.6208 7.09578 31.6099 7.09578 31.599 7.09578C31.2943 7.02097 31.0005 6.94617 30.6959 6.86067C30.4891 6.78587 30.2715 6.7645 30.0647 6.70038C30.0539 6.68969 30.043 6.68969 30.0321 6.67901C29.7057 6.59351 29.3792 6.50802 29.0528 6.43322C28.9984 6.41184 28.9331 6.39047 28.8678 6.37979C28.6066 6.31567 28.3455 6.23018 28.0734 6.18743C27.8776 6.134 27.6926 6.09125 27.4967 6.03782C27.4532 6.02713 27.4206 5.99507 27.4097 5.95233C27.3553 5.80272 27.2573 5.6638 27.1376 5.55693C26.7786 5.22565 26.2563 5.12948 25.7992 5.32183C25.7339 5.33252 25.6795 5.36458 25.636 5.40732C25.5816 5.45007 25.5163 5.45007 25.4619 5.41801C25.0049 5.20428 24.5479 4.99055 24.0909 4.77682C24.0582 4.76614 24.0147 4.75545 23.982 4.73408C23.5794 4.53104 23.1768 4.32799 22.7633 4.14633C22.7524 4.14633 22.7416 4.13564 22.7307 4.13564C22.4695 3.99672 22.1975 3.86848 21.9255 3.75093C21.8275 3.70818 21.7405 3.65475 21.6425 3.612C21.4576 3.51583 21.2726 3.43034 21.0767 3.35553C20.8047 3.20592 20.5218 3.067 20.228 2.94945C20.2171 2.92807 20.2062 2.91739 20.1844 2.9067C19.9995 2.79984 19.8145 2.71435 19.6186 2.61817C19.586 2.60748 19.5533 2.5968 19.5207 2.60748C19.4989 2.58611 19.4771 2.56474 19.4445 2.55405C19.2704 2.45787 19.0854 2.39375 18.9113 2.29758C18.8895 2.28689 18.8678 2.28689 18.8351 2.28689C18.7807 2.24414 18.7263 2.2014 18.661 2.16934C18.7154 2.15865 18.7699 2.14797 18.8243 2.15865C18.9548 2.18003 19.0854 2.19071 19.2051 2.19071C19.2051 2.21209 19.216 2.2014 19.216 2.2014ZM4.17791 26.7908C4.17791 26.7801 4.17791 26.7801 4.17791 26.7908C4.18879 26.7374 4.15614 26.716 4.13438 26.684C4.04733 26.5664 3.96028 26.4489 3.87323 26.3313C3.76441 26.1924 3.66648 26.0428 3.54679 25.9039C3.57943 25.9145 3.60119 25.9252 3.63384 25.9359C3.67736 25.9573 3.71001 25.9787 3.76441 25.9573C3.99292 26.0855 4.23231 26.1924 4.4717 26.2993C4.72198 26.4382 4.97225 26.5557 5.22252 26.6733C5.39662 26.7695 5.58161 26.8656 5.76659 26.9404C5.98422 27.058 6.20185 27.1755 6.43036 27.2717C6.59358 27.3679 6.76768 27.4427 6.94178 27.5175C7.0506 27.5816 7.15941 27.6351 7.2791 27.6778C7.36616 27.7099 7.32263 27.7954 7.35527 27.8488C7.37704 28.2869 7.77965 28.7999 8.22579 28.9495C8.35636 28.9815 8.36724 29.0563 8.32372 29.1632C8.32372 29.1846 8.31284 29.1953 8.31284 29.2166C8.28019 29.3556 8.25843 29.4945 8.22579 29.6334C8.18226 29.8365 8.13873 30.0288 8.09521 30.2319C8.06256 30.3601 8.0408 30.499 8.00816 30.6273L7.87758 31.2471H7.8667C7.84494 31.2577 7.83406 31.2898 7.83406 31.3112C7.82317 31.3753 7.77965 31.418 7.71436 31.4287C7.64907 31.4394 7.62731 31.386 7.59466 31.3432C7.08324 30.6593 6.57181 29.9647 6.06039 29.2808C5.65778 28.7358 5.25517 28.1907 4.85255 27.6564C4.65669 27.3893 4.46082 27.1221 4.26496 26.8656C4.25408 26.8336 4.2432 26.7695 4.17791 26.7908ZM23.3836 36.4727C23.3292 36.4834 23.2748 36.4834 23.2312 36.4834C21.9255 36.4834 20.6197 36.4834 19.3139 36.4834C19.1181 36.4834 18.9222 36.4834 18.7372 36.4834C18.6937 36.4834 18.6502 36.4834 18.6284 36.4513C18.6284 36.4407 18.6175 36.4407 18.6066 36.43C18.6066 36.3338 18.5958 36.2269 18.574 36.1308C18.5413 35.9705 18.5413 35.9705 18.7046 35.9491C19.4663 35.8529 20.2388 35.7567 21.0005 35.6606C21.1311 35.6499 21.2617 35.6285 21.3814 35.6178C22.1322 35.5216 22.8721 35.4255 23.623 35.34C23.8732 35.3079 24.1235 35.2758 24.3738 35.2438C24.4173 35.2438 24.4608 35.2438 24.5152 35.2331C24.8743 35.1903 25.2443 35.1369 25.6034 35.0942C25.9189 35.0514 26.2454 35.0087 26.5609 34.9659C26.6697 34.9552 26.7894 34.9446 26.8983 34.9232C26.9635 34.9125 26.9853 34.9232 26.9853 34.9873C26.9853 35.0407 26.9853 35.0942 27.0071 35.1476C27.018 35.2117 26.9853 35.2331 26.9309 35.2545C26.463 35.4148 25.9951 35.5751 25.5272 35.746C25.1355 35.885 24.7437 36.0239 24.352 36.1628C24.3302 36.1628 24.3194 36.1628 24.3085 36.1521C24.2758 36.1521 24.2323 36.1628 24.1997 36.1842C23.9276 36.2804 23.6556 36.3872 23.3836 36.4727Z"/><path fill="#fff" d="M22.2737 22.9117C22.2954 22.8797 22.3172 22.8476 22.3172 22.8049C22.339 22.7621 22.3607 22.7194 22.3716 22.6766C22.426 22.5911 22.4587 22.5056 22.4695 22.4095C22.5348 22.2919 22.5784 22.1744 22.6219 22.0568C22.6545 21.982 22.6872 21.9072 22.7198 21.8324C22.883 21.4797 23.0354 21.1164 23.1768 20.7531C23.2312 20.5928 23.3183 20.4432 23.3618 20.2722C23.4489 20.1226 23.5142 19.973 23.5686 19.8127C23.6012 19.6844 23.6883 19.5776 23.7209 19.4386C23.7862 19.3211 23.8406 19.1929 23.8841 19.0646C23.9168 18.9471 24.0038 18.8616 24.0147 18.7333C24.0691 18.6478 24.1126 18.541 24.1344 18.4448C24.1779 18.37 24.2106 18.2952 24.2323 18.2204C24.2759 18.1242 24.3194 18.028 24.352 17.9319C24.3956 17.825 24.4391 17.7288 24.4826 17.6219C24.5261 17.5471 24.5588 17.4617 24.5914 17.3762C24.6349 17.3014 24.6676 17.2159 24.7002 17.1304C24.7438 17.0449 24.7873 16.9594 24.809 16.8632C24.8308 16.8205 24.8526 16.7884 24.8743 16.7457C24.9287 16.6709 24.907 16.6174 24.8417 16.5426C24.7438 16.4358 24.6458 16.393 24.5153 16.4678C24.4064 16.4892 24.2976 16.5213 24.1997 16.564C24.1126 16.5854 24.0256 16.6067 23.9494 16.6388L23.7209 16.7136C23.6339 16.7457 23.5359 16.767 23.4489 16.7991L23.1768 16.8846C23.1007 16.906 23.0245 16.938 22.9374 16.9594C22.8395 16.9915 22.7416 17.0235 22.6437 17.0556L22.3716 17.1411C22.2628 17.1731 22.1431 17.2052 22.0343 17.2479C21.9364 17.2693 21.8275 17.3014 21.7405 17.3441C21.6208 17.3655 21.5011 17.4082 21.3814 17.451C21.3052 17.4617 21.24 17.483 21.1747 17.5151C21.0876 17.5471 20.9897 17.5685 20.9026 17.6006C20.7938 17.6326 20.6959 17.6647 20.5871 17.6968C20.4891 17.7181 20.4021 17.7395 20.315 17.7822C20.1953 17.8143 20.0756 17.8571 19.9559 17.8891C19.6839 17.9746 19.401 18.0601 19.129 18.1563C18.9875 18.1883 18.846 18.2311 18.7046 18.2845C18.6284 18.3059 18.5522 18.3273 18.4761 18.3486C18.3673 18.3807 18.2693 18.4127 18.1605 18.4555C18.0735 18.4769 17.9864 18.4982 17.9102 18.541C17.8885 18.541 17.8667 18.541 17.845 18.5624C17.7797 18.573 17.7144 18.5944 17.6491 18.6158C17.6056 18.6265 17.5512 18.6478 17.5076 18.6585C17.4641 18.6585 17.4206 18.6799 17.3771 18.7013C17.3553 18.7013 17.3335 18.7013 17.3118 18.7227C17.2574 18.7227 17.203 18.744 17.1594 18.7654C17.1377 18.7654 17.1159 18.7654 17.0941 18.7868C17.0506 18.7868 17.0071 18.7975 16.9636 18.8295C16.8656 18.8402 16.7786 18.8723 16.6915 18.915C16.5936 18.9364 16.5065 18.9578 16.4195 19.0005C16.3542 19.0112 16.2889 19.0326 16.2345 19.0539C16.1366 19.0753 16.0495 19.0967 15.9625 19.1394C15.919 19.1394 15.8754 19.1608 15.8428 19.1822C15.7666 19.1929 15.7013 19.2142 15.6252 19.2463C15.549 19.257 15.4837 19.2783 15.4184 19.3104C15.3422 19.3211 15.277 19.3425 15.2117 19.3745C15.1029 19.3959 14.994 19.428 14.8961 19.4707C14.7982 19.4921 14.7111 19.5134 14.6241 19.5562C14.5588 19.5776 14.5044 19.5883 14.4391 19.6096C14.4064 19.6096 14.3847 19.6417 14.3847 19.6737C14.3738 19.7913 14.3303 19.9088 14.265 20.005C14.2432 20.0371 14.2323 20.0585 14.2759 20.0905C14.3738 20.1653 14.4826 20.2294 14.5805 20.3042C14.6567 20.379 14.7438 20.4325 14.8308 20.4859C14.9179 20.5607 15.0049 20.6248 15.1029 20.689C15.1899 20.7531 15.277 20.8172 15.3531 20.8706C15.4293 20.9347 15.5055 20.9882 15.5816 21.0416C15.6252 21.095 15.6904 21.1271 15.7449 21.1698C15.7993 21.2233 15.8537 21.2553 15.9081 21.2981C15.9951 21.3729 16.0822 21.4477 16.1801 21.5011C16.278 21.5866 16.3869 21.6614 16.4957 21.7362L16.7895 21.9606C16.9418 22.0782 17.0941 22.1957 17.2465 22.2919C17.3444 22.3881 17.4641 22.4736 17.5838 22.5377C17.66 22.6125 17.747 22.6766 17.8341 22.7301C18.0626 22.9224 18.3129 23.0934 18.5522 23.2644C18.6284 23.3178 18.7046 23.3712 18.7808 23.4354C18.8352 23.4888 18.9005 23.5422 18.9657 23.585C19.1072 23.6918 19.2487 23.788 19.3901 23.8949C19.5207 23.9911 19.6513 24.0872 19.7927 24.1834C19.8907 24.2582 19.9886 24.333 20.0865 24.4078C20.1953 24.4933 20.315 24.5788 20.4238 24.6536C20.5109 24.7177 20.6088 24.7925 20.6959 24.8567C20.7285 24.8887 20.7721 24.8887 20.8156 24.8673C20.9353 24.8032 21.0767 24.7605 21.2182 24.7712C21.4685 24.8032 21.5229 24.6536 21.5773 24.4826C21.5773 24.4719 21.5773 24.4613 21.5882 24.4506C21.6534 24.333 21.697 24.2155 21.7405 24.0979C21.784 24.0231 21.8167 23.9376 21.8493 23.8521C21.9037 23.756 21.9364 23.6598 21.9799 23.5636C22.0343 23.4674 22.0778 23.3606 22.1105 23.2537C22.1322 23.2216 22.154 23.1896 22.154 23.1575C22.1758 23.1255 22.1866 23.0934 22.1866 23.0506C22.241 22.9865 22.2737 22.9545 22.2737 22.9117Z"/></svg>