<svg width="101" height="117" viewBox="0 0 101 117" fill="none" xmlns="http://www.w3.org/2000/svg">
<path fill-rule="evenodd" clip-rule="evenodd" d="M0 12.8494C0 5.75287 5.75287 0 12.8494 0H87.9065C91.3144 0 94.5827 1.35376 96.9924 3.76349C99.4021 6.17322 100.756 9.44153 100.756 12.8494V104.127C100.756 111.223 95.003 116.976 87.9065 116.976H12.8494C5.75287 116.976 0 111.223 0 104.127V12.8494Z" fill="#EEEEEE"/>
<path d="M8.4375 33.5191L9.9375 33.3784C10.0208 33.8784 10.1979 34.2482 10.4688 34.4878C10.75 34.717 11.125 34.8316 11.5938 34.8316C12.0938 34.8316 12.4688 34.7274 12.7188 34.5191C12.9688 34.3107 13.0938 34.0659 13.0938 33.7847C13.0938 33.6076 13.0417 33.4566 12.9375 33.3316C12.8333 33.2066 12.6458 33.0972 12.375 33.0034C12.1979 32.9409 11.7865 32.8264 11.1406 32.6597C10.3177 32.4618 9.73958 32.2118 9.40625 31.9097C8.9375 31.493 8.70312 30.9826 8.70312 30.3784C8.70312 29.9826 8.8125 29.618 9.03125 29.2847C9.26042 28.9409 9.57812 28.6805 9.98438 28.5034C10.401 28.3264 10.901 28.2378 11.4844 28.2378C12.4427 28.2378 13.1615 28.4514 13.6406 28.8784C14.1302 29.2951 14.3906 29.8524 14.4219 30.5503L12.875 30.6284C12.8125 30.2326 12.6719 29.9514 12.4531 29.7847C12.2344 29.6076 11.9062 29.5191 11.4688 29.5191C11.0208 29.5191 10.6719 29.6128 10.4219 29.8003C10.2656 29.9149 10.1875 30.0712 10.1875 30.2691C10.1875 30.4462 10.2604 30.6024 10.4062 30.7378C10.6042 30.8941 11.0781 31.0607 11.8281 31.2378C12.5781 31.4149 13.1302 31.6024 13.4844 31.8003C13.849 31.9878 14.1302 32.2482 14.3281 32.5816C14.5365 32.9045 14.6406 33.3055 14.6406 33.7847C14.6406 34.2222 14.5156 34.6337 14.2656 35.0191C14.026 35.3941 13.6823 35.6753 13.2344 35.8628C12.7969 36.0503 12.2448 36.1441 11.5781 36.1441C10.6198 36.1441 9.88021 35.9201 9.35938 35.4722C8.83854 35.0243 8.53125 34.3732 8.4375 33.5191ZM15.9201 29.7222V28.3784H17.3889V29.7222H15.9201ZM15.9201 36.0034V30.4722H17.3889V36.0034H15.9201ZM23.912 36.0034H22.4433V33.1909C22.4433 32.5868 22.412 32.2014 22.3495 32.0347C22.287 31.8576 22.1829 31.7222 22.037 31.6284C21.9016 31.5243 21.735 31.4722 21.537 31.4722C21.287 31.4722 21.0579 31.5451 20.8495 31.6909C20.6516 31.8264 20.5162 32.0087 20.4433 32.2378C20.3704 32.467 20.3339 32.8889 20.3339 33.5034V36.0034H18.8652V30.4722H20.2245V31.2847C20.7037 30.6597 21.3131 30.3472 22.0527 30.3472C22.3756 30.3472 22.6672 30.4097 22.9277 30.5347C23.1985 30.6493 23.4016 30.7951 23.537 30.9722C23.6725 31.1493 23.7662 31.3524 23.8183 31.5816C23.8808 31.8107 23.912 32.1389 23.912 32.5659V36.0034ZM25.2494 36.3628L26.9213 36.5659C26.9525 36.7639 27.0203 36.8993 27.1244 36.9722C27.2598 37.0764 27.4734 37.1284 27.765 37.1284C28.1505 37.1284 28.4369 37.0712 28.6244 36.9566C28.7598 36.8837 28.8588 36.7587 28.9213 36.5816C28.963 36.467 28.9838 36.243 28.9838 35.9097V35.1128C28.5463 35.7066 27.9942 36.0034 27.3275 36.0034C26.588 36.0034 26.0046 35.6909 25.5775 35.0659C25.2338 34.5659 25.0619 33.9462 25.0619 33.2066C25.0619 32.2795 25.2859 31.5712 25.7338 31.0816C26.1817 30.592 26.7338 30.3472 27.39 30.3472C28.0775 30.3472 28.64 30.6493 29.0775 31.2534V30.4722H30.4525V35.4409C30.4525 36.0868 30.3953 36.5712 30.2807 36.8941C30.1765 37.217 30.0255 37.4722 29.8275 37.6597C29.64 37.8472 29.3848 37.993 29.0619 38.0972C28.739 38.2014 28.3275 38.2534 27.8275 38.2534C26.89 38.2534 26.2234 38.092 25.8275 37.7691C25.4421 37.4462 25.2494 37.0399 25.2494 36.5503C25.2494 36.4982 25.2494 36.4357 25.2494 36.3628ZM26.5619 33.1284C26.5619 33.7118 26.6765 34.1389 26.9057 34.4097C27.1348 34.6805 27.4109 34.8159 27.7338 34.8159C28.0984 34.8159 28.4005 34.6805 28.64 34.4097C28.89 34.1284 29.015 33.7118 29.015 33.1597C29.015 32.5868 28.8953 32.1649 28.6557 31.8941C28.4265 31.6128 28.1296 31.4722 27.765 31.4722C27.4213 31.4722 27.1348 31.6076 26.9057 31.8784C26.6765 32.1493 26.5619 32.5659 26.5619 33.1284ZM31.8993 36.0034V28.3784H33.3681V36.0034H31.8993ZM38.0631 34.2378L39.5162 34.4878C39.3287 35.0191 39.0318 35.4253 38.6256 35.7066C38.2193 35.9878 37.7141 36.1284 37.11 36.1284C36.1516 36.1284 35.4433 35.8159 34.985 35.1909C34.6204 34.6805 34.4381 34.0451 34.4381 33.2847C34.4381 32.368 34.6777 31.6493 35.1568 31.1284C35.636 30.6076 36.2402 30.3472 36.9693 30.3472C37.7922 30.3472 38.4381 30.6232 38.9068 31.1753C39.386 31.717 39.6152 32.5451 39.5943 33.6597H35.9381C35.9485 34.0972 36.0631 34.4357 36.2818 34.6753C36.511 34.9149 36.7922 35.0347 37.1256 35.0347C37.3547 35.0347 37.5475 34.9722 37.7037 34.8472C37.86 34.7222 37.9797 34.5191 38.0631 34.2378ZM38.1412 32.7691C38.1308 32.342 38.0214 32.0191 37.8131 31.8003C37.6047 31.5816 37.3495 31.4722 37.0475 31.4722C36.735 31.4722 36.4745 31.5868 36.2662 31.8159C36.0579 32.0555 35.9537 32.3732 35.9537 32.7691H38.1412ZM43.3177 30.4722V31.6441H42.3177V33.8628C42.3177 34.3212 42.3281 34.5868 42.349 34.6597C42.3698 34.7326 42.4115 34.7951 42.474 34.8472C42.5469 34.8889 42.6302 34.9097 42.724 34.9097C42.8594 34.9097 43.0573 34.8628 43.3177 34.7691L43.4427 35.9097C43.099 36.0555 42.7135 36.1284 42.2865 36.1284C42.026 36.1284 41.7865 36.0868 41.5677 36.0034C41.3594 35.9097 41.2031 35.7951 41.099 35.6597C41.0052 35.5139 40.9375 35.3212 40.8958 35.0816C40.8646 34.9149 40.849 34.5712 40.849 34.0503V31.6441H40.1771V30.4722H40.849V29.3784L42.3177 28.5191V30.4722H43.3177ZM43.9913 33.1597C43.9913 32.6805 44.1111 32.2118 44.3507 31.7534C44.5903 31.2951 44.9288 30.9462 45.3663 30.7066C45.8142 30.467 46.3038 30.3472 46.8351 30.3472C47.6788 30.3472 48.3663 30.6232 48.8976 31.1753C49.4288 31.717 49.6944 32.3993 49.6944 33.2222C49.6944 34.0555 49.4236 34.7482 48.8819 35.3003C48.3507 35.8524 47.6736 36.1284 46.8507 36.1284C46.3507 36.1284 45.8663 36.0139 45.3976 35.7847C44.9392 35.5555 44.5903 35.2222 44.3507 34.7847C44.1111 34.3368 43.9913 33.7951 43.9913 33.1597ZM45.4913 33.2378C45.4913 33.7899 45.6215 34.2118 45.8819 34.5034C46.1424 34.7951 46.4653 34.9409 46.8507 34.9409C47.2257 34.9409 47.5434 34.7951 47.8038 34.5034C48.0642 34.2118 48.1944 33.7899 48.1944 33.2378C48.1944 32.6962 48.0642 32.2795 47.8038 31.9878C47.5434 31.6962 47.2257 31.5503 46.8507 31.5503C46.4653 31.5503 46.1424 31.6962 45.8819 31.9878C45.6215 32.2795 45.4913 32.6962 45.4913 33.2378ZM55.8756 36.0034H54.4068V33.1909C54.4068 32.5868 54.3756 32.2014 54.3131 32.0347C54.2506 31.8576 54.1464 31.7222 54.0006 31.6284C53.8652 31.5243 53.6985 31.4722 53.5006 31.4722C53.2506 31.4722 53.0214 31.5451 52.8131 31.6909C52.6152 31.8264 52.4798 32.0087 52.4068 32.2378C52.3339 32.467 52.2975 32.8889 52.2975 33.5034V36.0034H50.8287V30.4722H52.1881V31.2847C52.6673 30.6597 53.2766 30.3472 54.0162 30.3472C54.3391 30.3472 54.6308 30.4097 54.8912 30.5347C55.162 30.6493 55.3652 30.7951 55.5006 30.9722C55.636 31.1493 55.7298 31.3524 55.7818 31.5816C55.8443 31.8107 55.8756 32.1389 55.8756 32.5659V36.0034ZM66.4705 35.0347C66.8455 35.3055 67.2517 35.5191 67.6892 35.6753L67.1267 36.7691C66.8976 36.6962 66.6736 36.6024 66.4549 36.4878C66.4028 36.4566 66.059 36.2274 65.4236 35.8003C64.9236 36.0191 64.3715 36.1284 63.7674 36.1284C62.5903 36.1284 61.6684 35.7847 61.0017 35.0972C60.3455 34.4097 60.0174 33.4409 60.0174 32.1909C60.0174 30.9409 60.3507 29.9722 61.0174 29.2847C61.684 28.5868 62.5851 28.2378 63.7205 28.2378C64.8559 28.2378 65.7517 28.5868 66.408 29.2847C67.0747 29.9722 67.408 30.9409 67.408 32.1909C67.408 32.8472 67.3142 33.4253 67.1267 33.9253C66.9913 34.3107 66.7726 34.6805 66.4705 35.0347ZM65.2205 34.1597C65.4184 33.9305 65.5642 33.6545 65.658 33.3316C65.7622 32.9982 65.8142 32.618 65.8142 32.1909C65.8142 31.3055 65.6215 30.6493 65.2361 30.2222C64.8507 29.7847 64.3403 29.5659 63.7049 29.5659C63.0799 29.5659 62.5695 29.7847 62.1736 30.2222C61.7882 30.6597 61.5955 31.3159 61.5955 32.1909C61.5955 33.0764 61.7882 33.743 62.1736 34.1909C62.5695 34.6284 63.0642 34.8472 63.658 34.8472C63.8872 34.8472 64.1007 34.8107 64.2986 34.7378C63.9861 34.5399 63.6684 34.3837 63.3455 34.2691L63.7674 33.3784C64.2778 33.5555 64.7622 33.8159 65.2205 34.1597ZM72.2436 36.0034V35.1753C72.0353 35.467 71.7645 35.7014 71.4311 35.8784C71.1082 36.0451 70.7697 36.1284 70.4155 36.1284C70.0405 36.1284 69.702 36.0503 69.3999 35.8941C69.1082 35.7274 68.8947 35.4982 68.7593 35.2066C68.6343 34.9045 68.5718 34.493 68.5718 33.9722V30.4722H70.0405V33.0191C70.0405 33.7899 70.0666 34.2639 70.1186 34.4409C70.1707 34.618 70.2645 34.7587 70.3999 34.8628C70.5457 34.967 70.728 35.0191 70.9468 35.0191C71.1968 35.0191 71.4207 34.9514 71.6186 34.8159C71.8166 34.6701 71.952 34.4982 72.0249 34.3003C72.0978 34.092 72.1343 33.5972 72.1343 32.8159V30.4722H73.603V36.0034H72.2436ZM78.3154 34.2378L79.7685 34.4878C79.581 35.0191 79.2841 35.4253 78.8779 35.7066C78.4716 35.9878 77.9664 36.1284 77.3623 36.1284C76.4039 36.1284 75.6956 35.8159 75.2373 35.1909C74.8727 34.6805 74.6904 34.0451 74.6904 33.2847C74.6904 32.368 74.93 31.6493 75.4091 31.1284C75.8883 30.6076 76.4925 30.3472 77.2216 30.3472C78.0446 30.3472 78.6904 30.6232 79.1591 31.1753C79.6383 31.717 79.8675 32.5451 79.8466 33.6597H76.1904C76.2008 34.0972 76.3154 34.4357 76.5341 34.6753C76.7633 34.9149 77.0446 35.0347 77.3779 35.0347C77.6071 35.0347 77.7998 34.9722 77.956 34.8472C78.1123 34.7222 78.2321 34.5191 78.3154 34.2378ZM78.3935 32.7691C78.3831 32.342 78.2737 32.0191 78.0654 31.8003C77.8571 31.5816 77.6019 31.4722 77.2998 31.4722C76.9873 31.4722 76.7269 31.5868 76.5185 31.8159C76.3102 32.0555 76.206 32.3732 76.206 32.7691H78.3935ZM84.6794 36.0034V35.1753C84.4711 35.467 84.2002 35.7014 83.8669 35.8784C83.544 36.0451 83.2054 36.1284 82.8513 36.1284C82.4763 36.1284 82.1377 36.0503 81.8356 35.8941C81.544 35.7274 81.3304 35.4982 81.195 35.2066C81.07 34.9045 81.0075 34.493 81.0075 33.9722V30.4722H82.4763V33.0191C82.4763 33.7899 82.5023 34.2639 82.5544 34.4409C82.6065 34.618 82.7002 34.7587 82.8356 34.8628C82.9815 34.967 83.1638 35.0191 83.3825 35.0191C83.6325 35.0191 83.8565 34.9514 84.0544 34.8159C84.2523 34.6701 84.3877 34.4982 84.4606 34.3003C84.5336 34.092 84.57 33.5972 84.57 32.8159V30.4722H86.0388V36.0034H84.6794ZM90.7512 34.2378L92.2043 34.4878C92.0168 35.0191 91.7199 35.4253 91.3137 35.7066C90.9074 35.9878 90.4022 36.1284 89.798 36.1284C88.8397 36.1284 88.1314 35.8159 87.673 35.1909C87.3084 34.6805 87.1262 34.0451 87.1262 33.2847C87.1262 32.368 87.3657 31.6493 87.8449 31.1284C88.3241 30.6076 88.9282 30.3472 89.6574 30.3472C90.4803 30.3472 91.1262 30.6232 91.5949 31.1753C92.0741 31.717 92.3032 32.5451 92.2824 33.6597H88.6262C88.6366 34.0972 88.7512 34.4357 88.9699 34.6753C89.1991 34.9149 89.4803 35.0347 89.8137 35.0347C90.0428 35.0347 90.2355 34.9722 90.3918 34.8472C90.548 34.7222 90.6678 34.5191 90.7512 34.2378ZM90.8293 32.7691C90.8189 32.342 90.7095 32.0191 90.5012 31.8003C90.2928 31.5816 90.0376 31.4722 89.7355 31.4722C89.423 31.4722 89.1626 31.5868 88.9543 31.8159C88.7459 32.0555 88.6418 32.3732 88.6418 32.7691H90.8293Z" fill="black"/>
<path fill-rule="evenodd" clip-rule="evenodd" d="M58.1389 7.12073H89.6575C93.7865 7.12073 97.1338 9.14371 97.1338 11.6392C97.1338 14.1346 93.7865 16.1576 89.6575 16.1576H58.1389C54.0098 16.1576 50.6626 14.1346 50.6626 11.6392C50.6626 9.14371 54.0098 7.12073 58.1389 7.12073Z" fill="#B6D7A8"/>
<path d="M55.1483 13.7592V10.3998H53.8983V9.94666H56.9139V10.3998H55.6639V13.7592H55.1483ZM57.4498 13.7592V9.94666H59.1373C59.4811 9.94666 59.7415 9.9831 59.9186 10.056C60.0957 10.1185 60.2363 10.2383 60.3405 10.4154C60.4446 10.5821 60.4967 10.7748 60.4967 10.9935C60.4967 11.2539 60.4082 11.4779 60.2311 11.6654C60.054 11.8529 59.7832 11.9727 59.4186 12.0248C59.554 12.0873 59.6582 12.1498 59.7311 12.2123C59.8769 12.3477 60.0123 12.5196 60.1373 12.7279L60.8092 13.7592H60.1686L59.6686 12.9623C59.5227 12.7331 59.403 12.5612 59.3092 12.4467C59.2155 12.3217 59.1269 12.2383 59.0436 12.1967C58.9707 12.1446 58.8977 12.1081 58.8248 12.0873C58.7623 12.0769 58.6686 12.0717 58.5436 12.0717H57.9498V13.7592H57.4498ZM57.9498 11.6342H59.0436C59.2727 11.6342 59.4498 11.6081 59.5748 11.556C59.7102 11.5039 59.8092 11.4258 59.8717 11.3217C59.9446 11.2175 59.9811 11.1081 59.9811 10.9935C59.9811 10.806 59.9134 10.655 59.778 10.5404C59.653 10.4258 59.4446 10.3685 59.153 10.3685H57.9498V11.6342ZM60.8758 13.7592L62.3289 9.94666H62.8758L64.4383 13.7592H63.8601L63.4226 12.6029H61.8289L61.407 13.7592H60.8758ZM61.9695 12.1967H63.2664L62.8601 11.1342C62.7456 10.8112 62.657 10.5508 62.5945 10.3529C62.5424 10.5925 62.4747 10.8321 62.3914 11.0717L61.9695 12.1967ZM64.8671 13.7592V9.94666H67.4452V10.3998H65.3671V11.5717H67.164V12.0248H65.3671V13.7592H64.8671ZM68.1217 13.7592V9.94666H70.6998V10.3998H68.6217V11.5717H70.4186V12.0248H68.6217V13.7592H68.1217ZM71.4389 13.7592V9.94666H71.9389V13.7592H71.4389ZM75.5442 12.4154L76.0598 12.556C75.9556 12.9623 75.7629 13.2748 75.4817 13.4935C75.2109 13.7123 74.8775 13.8217 74.4817 13.8217C74.065 13.8217 73.7265 13.7383 73.4661 13.5717C73.2161 13.405 73.0234 13.1654 72.8879 12.8529C72.7525 12.53 72.6848 12.1862 72.6848 11.8217C72.6848 11.4258 72.7577 11.0821 72.9036 10.7904C73.0598 10.4883 73.2786 10.2644 73.5598 10.1185C73.8411 9.96227 74.1484 9.88416 74.4817 9.88416C74.8671 9.88416 75.19 9.9831 75.4504 10.181C75.7109 10.3685 75.8931 10.6394 75.9973 10.9935L75.4973 11.1029C75.4036 10.8321 75.2734 10.6342 75.1067 10.5092C74.94 10.3737 74.7317 10.306 74.4817 10.306C74.1796 10.306 73.9296 10.3789 73.7317 10.5248C73.5442 10.6602 73.4088 10.8477 73.3254 11.0873C73.2421 11.3269 73.2004 11.5717 73.2004 11.8217C73.2004 12.1446 73.2473 12.431 73.3411 12.681C73.4348 12.9206 73.5806 13.1029 73.7786 13.2279C73.9869 13.3425 74.2056 13.3998 74.4348 13.3998C74.7161 13.3998 74.9556 13.3164 75.1536 13.1498C75.3515 12.9831 75.4817 12.7383 75.5442 12.4154ZM78.138 13.7592V9.94666H78.9036L79.8098 12.6498C79.8932 12.8998 79.9505 13.0873 79.9817 13.2123C80.0338 13.0769 80.1015 12.8737 80.1848 12.6029L81.1067 9.94666H81.7786V13.7592H81.2942V10.5717L80.1848 13.7592H79.7317L78.6223 10.5092V13.7592H78.138ZM84.3888 12.2592V11.8217L85.9982 11.806V13.2279C85.7482 13.4258 85.493 13.5769 85.2326 13.681C84.9722 13.7748 84.7013 13.8217 84.4201 13.8217C84.0451 13.8217 83.7013 13.7435 83.3888 13.5873C83.0867 13.4206 82.8576 13.1862 82.7013 12.8842C82.5451 12.5821 82.4669 12.2435 82.4669 11.8685C82.4669 11.4935 82.5451 11.1498 82.7013 10.8373C82.8576 10.5144 83.0815 10.2748 83.3732 10.1185C83.6649 9.96227 83.9982 9.88416 84.3732 9.88416C84.6544 9.88416 84.9044 9.93103 85.1232 10.0248C85.3524 10.1081 85.5294 10.2331 85.6544 10.3998C85.7794 10.556 85.8732 10.7592 85.9357 11.0092L85.4826 11.1342C85.4305 10.9467 85.3576 10.7956 85.2638 10.681C85.1805 10.5664 85.0607 10.4779 84.9044 10.4154C84.7482 10.3425 84.5763 10.306 84.3888 10.306C84.1492 10.306 83.9461 10.3425 83.7794 10.4154C83.6128 10.4883 83.4774 10.5821 83.3732 10.6967C83.269 10.8112 83.1909 10.9362 83.1388 11.0717C83.0347 11.3112 82.9826 11.5664 82.9826 11.8373C82.9826 12.181 83.0399 12.4675 83.1544 12.6967C83.2794 12.9258 83.4513 13.0977 83.6701 13.2123C83.8992 13.3164 84.1388 13.3685 84.3888 13.3685C84.6076 13.3685 84.8211 13.3269 85.0294 13.2435C85.2378 13.1602 85.394 13.0717 85.4982 12.9779V12.2592H84.3888ZM86.7207 13.7592V9.94666H87.4863L88.3926 12.6498C88.4759 12.8998 88.5332 13.0873 88.5645 13.2123C88.6166 13.0769 88.6843 12.8737 88.7676 12.6029L89.6895 9.94666H90.3613V13.7592H89.877V10.5717L88.7676 13.7592H88.3145L87.2051 10.5092V13.7592H86.7207ZM92.1435 13.7592V10.3998H90.8935V9.94666H93.9091V10.3998H92.6591V13.7592H92.1435Z" fill="#38761D"/>
<path d="M57.6851 111.919L56.4194 108.56H56.3882C56.3986 108.622 56.4038 108.706 56.4038 108.81C56.4142 108.914 56.4194 109.029 56.4194 109.154C56.4299 109.268 56.4351 109.388 56.4351 109.513V111.919H56.0132V108.122H56.6694L57.8726 111.279H57.9038L59.1226 108.122H59.7632V111.919H59.3257V109.482C59.3257 109.367 59.3257 109.258 59.3257 109.154C59.3361 109.039 59.3413 108.93 59.3413 108.826C59.3517 108.721 59.3621 108.633 59.3726 108.56H59.3413L58.0601 111.919H57.6851ZM62.9304 111.919H60.8054V108.122H62.9304V108.513H61.2585V109.732H62.8366V110.122H61.2585V111.529H62.9304V111.919ZM65.9223 110.904C65.9223 111.133 65.865 111.326 65.7504 111.482C65.6358 111.638 65.4796 111.758 65.2816 111.841C65.0837 111.924 64.8441 111.966 64.5629 111.966C64.4275 111.966 64.2921 111.961 64.1566 111.951C64.0316 111.94 63.9119 111.924 63.7973 111.904C63.6931 111.872 63.5994 111.836 63.516 111.794V111.372C63.6514 111.424 63.8129 111.477 64.0004 111.529C64.1879 111.57 64.3858 111.591 64.5941 111.591C64.7816 111.591 64.9379 111.565 65.0629 111.513C65.1983 111.461 65.2973 111.388 65.3598 111.294C65.4327 111.201 65.4691 111.086 65.4691 110.951C65.4691 110.815 65.4379 110.706 65.3754 110.622C65.3233 110.529 65.2296 110.445 65.0941 110.372C64.9691 110.299 64.7921 110.227 64.5629 110.154C64.3962 110.091 64.2504 110.029 64.1254 109.966C64.0108 109.893 63.9119 109.815 63.8285 109.732C63.7452 109.638 63.6827 109.534 63.641 109.419C63.5994 109.305 63.5785 109.174 63.5785 109.029C63.5785 108.831 63.6254 108.659 63.7191 108.513C63.8233 108.367 63.9691 108.258 64.1566 108.185C64.3441 108.102 64.5525 108.06 64.7816 108.06C64.99 108.06 65.1775 108.081 65.3441 108.122C65.5212 108.154 65.6827 108.206 65.8285 108.279L65.6879 108.654C65.5525 108.591 65.4066 108.544 65.2504 108.513C65.0941 108.471 64.9379 108.451 64.7816 108.451C64.615 108.451 64.4744 108.477 64.3598 108.529C64.2556 108.57 64.1723 108.638 64.1098 108.732C64.0473 108.815 64.016 108.914 64.016 109.029C64.016 109.164 64.0421 109.279 64.0941 109.372C64.1566 109.456 64.2504 109.534 64.3754 109.607C64.5004 109.669 64.6671 109.737 64.8754 109.81C65.0941 109.893 65.2816 109.982 65.4379 110.076C65.5941 110.169 65.7139 110.284 65.7973 110.419C65.8806 110.544 65.9223 110.706 65.9223 110.904ZM69.5783 111.919H69.1252V110.122H67.1408V111.919H66.6877V108.122H67.1408V109.732H69.1252V108.122H69.5783V111.919ZM72.7411 111.919H70.6161V108.122H72.7411V108.513H71.0692V109.732H72.6474V110.122H71.0692V111.529H72.7411V111.919ZM74.608 108.122C74.9205 108.122 75.1757 108.159 75.3736 108.232C75.582 108.305 75.733 108.424 75.8268 108.591C75.9309 108.747 75.983 108.945 75.983 109.185C75.983 109.383 75.9465 109.549 75.8736 109.685C75.8007 109.82 75.707 109.93 75.5924 110.013C75.4778 110.096 75.3528 110.164 75.2174 110.216L76.2643 111.919H75.7486L74.8111 110.326H74.0299V111.919H73.5768V108.122H74.608ZM74.5768 108.497H74.0299V109.951H74.6236C74.9361 109.951 75.1653 109.888 75.3111 109.763C75.457 109.638 75.5299 109.456 75.5299 109.216C75.5299 108.956 75.4518 108.773 75.2955 108.669C75.1393 108.555 74.8997 108.497 74.5768 108.497ZM77.834 110.029L78.8496 108.122H79.334L78.0683 110.451V111.919H77.6152V110.466L76.3496 108.122H76.834L77.834 110.029ZM82.1097 110.013C82.1097 110.326 82.0837 110.602 82.0316 110.841C81.9899 111.081 81.917 111.289 81.8128 111.466C81.7087 111.633 81.5784 111.758 81.4222 111.841C81.2659 111.924 81.0732 111.966 80.8441 111.966C80.5628 111.966 80.3284 111.893 80.1409 111.747C79.9639 111.591 79.8284 111.367 79.7347 111.076C79.6409 110.784 79.5941 110.43 79.5941 110.013C79.5941 109.607 79.6357 109.258 79.7191 108.966C79.8024 108.674 79.9326 108.451 80.1097 108.294C80.2972 108.138 80.542 108.06 80.8441 108.06C81.1357 108.06 81.3701 108.138 81.5472 108.294C81.7347 108.451 81.8753 108.674 81.9691 108.966C82.0628 109.258 82.1097 109.607 82.1097 110.013ZM80.0316 110.013C80.0316 110.367 80.0576 110.664 80.1097 110.904C80.1618 111.133 80.2451 111.31 80.3597 111.435C80.4847 111.549 80.6462 111.607 80.8441 111.607C81.042 111.607 81.1982 111.549 81.3128 111.435C81.4378 111.31 81.5264 111.133 81.5784 110.904C81.6409 110.664 81.6722 110.367 81.6722 110.013C81.6722 109.659 81.6409 109.367 81.5784 109.138C81.5264 108.898 81.4378 108.721 81.3128 108.607C81.1982 108.492 81.042 108.435 80.8441 108.435C80.6462 108.435 80.4847 108.492 80.3597 108.607C80.2451 108.721 80.1618 108.898 80.1097 109.138C80.0576 109.367 80.0316 109.659 80.0316 110.013ZM85.125 111.919H82.6406V111.56L83.6562 110.529C83.8437 110.331 84 110.159 84.125 110.013C84.2604 109.867 84.3593 109.721 84.4218 109.576C84.4947 109.43 84.5312 109.268 84.5312 109.091C84.5312 108.883 84.4635 108.721 84.3281 108.607C84.2031 108.492 84.0364 108.435 83.8281 108.435C83.651 108.435 83.4895 108.466 83.3437 108.529C83.2083 108.591 83.0677 108.68 82.9218 108.794L82.6875 108.497C82.7916 108.414 82.901 108.341 83.0156 108.279C83.1302 108.206 83.2552 108.154 83.3906 108.122C83.5364 108.081 83.6822 108.06 83.8281 108.06C84.0677 108.06 84.2708 108.102 84.4375 108.185C84.6145 108.268 84.7447 108.388 84.8281 108.544C84.9218 108.69 84.9687 108.867 84.9687 109.076C84.9687 109.273 84.927 109.461 84.8437 109.638C84.7708 109.805 84.6614 109.977 84.5156 110.154C84.3697 110.32 84.2031 110.497 84.0156 110.685L83.1875 111.513V111.529H85.125V111.919ZM88.0308 108.997C88.0308 109.174 87.9996 109.326 87.9371 109.451C87.8746 109.576 87.7808 109.68 87.6558 109.763C87.5413 109.836 87.4058 109.888 87.2496 109.919V109.935C87.5517 109.977 87.7756 110.076 87.9215 110.232C88.0777 110.388 88.1558 110.591 88.1558 110.841C88.1558 111.06 88.1038 111.258 87.9996 111.435C87.8954 111.602 87.734 111.732 87.5152 111.826C87.3069 111.919 87.036 111.966 86.7027 111.966C86.5048 111.966 86.3173 111.951 86.1402 111.919C85.9735 111.888 85.8121 111.836 85.6558 111.763V111.357C85.8121 111.44 85.984 111.503 86.1715 111.544C86.359 111.586 86.5413 111.607 86.7183 111.607C87.0621 111.607 87.3121 111.539 87.4683 111.404C87.6246 111.268 87.7027 111.081 87.7027 110.841C87.7027 110.674 87.6558 110.539 87.5621 110.435C87.4788 110.331 87.3538 110.258 87.1871 110.216C87.0308 110.164 86.8433 110.138 86.6246 110.138H86.234V109.763H86.6246C86.8329 109.763 87.0048 109.737 87.1402 109.685C87.286 109.622 87.3954 109.539 87.4683 109.435C87.5517 109.32 87.5933 109.185 87.5933 109.029C87.5933 108.841 87.5256 108.695 87.3902 108.591C87.2652 108.487 87.0933 108.435 86.8746 108.435C86.7392 108.435 86.6142 108.451 86.4996 108.482C86.3954 108.503 86.2913 108.539 86.1871 108.591C86.0933 108.633 85.9996 108.685 85.9058 108.747L85.6871 108.451C85.8225 108.346 85.9892 108.258 86.1871 108.185C86.385 108.102 86.6142 108.06 86.8746 108.06C87.26 108.06 87.5465 108.148 87.734 108.326C87.9319 108.503 88.0308 108.727 88.0308 108.997Z" fill="#999999"/>
<path d="M50.3328 106C50.3328 106.015 50.3328 106.031 50.3328 106.047C50.3328 106.597 49.8872 107.042 49.3376 107.042C48.7879 107.042 48.3424 106.596 48.3424 106.047C48.3424 106.031 48.3424 106.015 48.3424 106H45V114.68H53.68V106H50.3328Z" fill="#654FF0"/>
<path d="M47.0162 110.678H47.5915L47.9842 112.769H47.9913L48.4633 110.678H49.0014L49.4278 112.795H49.4361L49.8838 110.678H50.448L49.7148 113.751H49.144L48.7212 111.659H48.7101L48.2575 113.751H47.676L47.0162 110.678ZM51.0965 110.678H52.0034L52.904 113.751H52.3106L52.1147 113.067H51.0817L50.9305 113.751H50.3525L51.0965 110.678ZM51.4418 111.435L51.1909 112.563H51.9718L51.6837 111.435H51.4418Z" fill="white"/>
<path d="M59.7886 64.9241L58.9153 68.8499H61.6336L60.6311 64.9241H59.7886Z" fill="#654FF0"/>
<g clip-path="url(#clip0_5736_25097)">
<path d="M54.5752 50C54.5752 50.0706 54.5752 50.1412 54.5752 50.2157C54.5752 52.749 52.5216 54.802 49.9889 54.802C47.4556 54.802 45.4026 52.7484 45.4026 50.2157C45.4026 50.1412 45.4026 50.0706 45.4026 50H30V90H70V50H54.5752Z" fill="#654FF0"/>
<path d="M39.2915 71.5562H41.9425L43.7523 81.1948H43.785L45.9601 71.5562H48.4399L50.4046 81.3131H50.4431L52.5059 71.5562H55.1059L51.7275 85.719H49.0967L47.1484 76.0804H47.0974L45.0118 85.719H42.332L39.2915 71.5562ZM58.0948 71.5562H62.2739L66.4242 85.719H63.6895L62.7869 82.5673H58.0261L57.3294 85.719H54.666L58.0948 71.5562ZM59.6856 75.0471L58.5294 80.2431H62.1281L60.8007 75.0471H59.6856Z" fill="white"/>
</g>
<defs>
<clipPath id="clip0_5736_25097">
<rect width="40" height="40" fill="white" transform="translate(30 50)"/>
</clipPath>
</defs>
</svg>
