<svg width="101" height="117" viewBox="0 0 101 117" fill="none" xmlns="http://www.w3.org/2000/svg">
<path fill-rule="evenodd" clip-rule="evenodd" d="M0 12.8494C0 5.75287 5.75287 0 12.8494 0H87.9065C91.3144 0 94.5827 1.35376 96.9924 3.76349C99.4021 6.17322 100.756 9.44153 100.756 12.8494V104.127C100.756 111.223 95.003 116.976 87.9065 116.976H12.8494C5.75287 116.976 0 111.223 0 104.127V12.8494Z" fill="#EEEEEE"/>
<path d="M8.4375 33.5191L9.9375 33.3784C10.0208 33.8784 10.1979 34.2482 10.4688 34.4878C10.75 34.717 11.125 34.8316 11.5938 34.8316C12.0938 34.8316 12.4688 34.7274 12.7188 34.5191C12.9688 34.3107 13.0938 34.0659 13.0938 33.7847C13.0938 33.6076 13.0417 33.4566 12.9375 33.3316C12.8333 33.2066 12.6458 33.0972 12.375 33.0034C12.1979 32.9409 11.7865 32.8264 11.1406 32.6597C10.3177 32.4618 9.73958 32.2118 9.40625 31.9097C8.9375 31.493 8.70312 30.9826 8.70312 30.3784C8.70312 29.9826 8.8125 29.618 9.03125 29.2847C9.26042 28.9409 9.57812 28.6805 9.98438 28.5034C10.401 28.3264 10.901 28.2378 11.4844 28.2378C12.4427 28.2378 13.1615 28.4514 13.6406 28.8784C14.1302 29.2951 14.3906 29.8524 14.4219 30.5503L12.875 30.6284C12.8125 30.2326 12.6719 29.9514 12.4531 29.7847C12.2344 29.6076 11.9062 29.5191 11.4688 29.5191C11.0208 29.5191 10.6719 29.6128 10.4219 29.8003C10.2656 29.9149 10.1875 30.0712 10.1875 30.2691C10.1875 30.4462 10.2604 30.6024 10.4062 30.7378C10.6042 30.8941 11.0781 31.0607 11.8281 31.2378C12.5781 31.4149 13.1302 31.6024 13.4844 31.8003C13.849 31.9878 14.1302 32.2482 14.3281 32.5816C14.5365 32.9045 14.6406 33.3055 14.6406 33.7847C14.6406 34.2222 14.5156 34.6337 14.2656 35.0191C14.026 35.3941 13.6823 35.6753 13.2344 35.8628C12.7969 36.0503 12.2448 36.1441 11.5781 36.1441C10.6198 36.1441 9.88021 35.9201 9.35938 35.4722C8.83854 35.0243 8.53125 34.3732 8.4375 33.5191ZM15.9201 29.7222V28.3784H17.3889V29.7222H15.9201ZM15.9201 36.0034V30.4722H17.3889V36.0034H15.9201ZM23.912 36.0034H22.4433V33.1909C22.4433 32.5868 22.412 32.2014 22.3495 32.0347C22.287 31.8576 22.1829 31.7222 22.037 31.6284C21.9016 31.5243 21.735 31.4722 21.537 31.4722C21.287 31.4722 21.0579 31.5451 20.8495 31.6909C20.6516 31.8264 20.5162 32.0087 20.4433 32.2378C20.3704 32.467 20.3339 32.8889 20.3339 33.5034V36.0034H18.8652V30.4722H20.2245V31.2847C20.7037 30.6597 21.3131 30.3472 22.0527 30.3472C22.3756 30.3472 22.6672 30.4097 22.9277 30.5347C23.1985 30.6493 23.4016 30.7951 23.537 30.9722C23.6725 31.1493 23.7662 31.3524 23.8183 31.5816C23.8808 31.8107 23.912 32.1389 23.912 32.5659V36.0034ZM25.2494 36.3628L26.9213 36.5659C26.9525 36.7639 27.0203 36.8993 27.1244 36.9722C27.2598 37.0764 27.4734 37.1284 27.765 37.1284C28.1505 37.1284 28.4369 37.0712 28.6244 36.9566C28.7598 36.8837 28.8588 36.7587 28.9213 36.5816C28.963 36.467 28.9838 36.243 28.9838 35.9097V35.1128C28.5463 35.7066 27.9942 36.0034 27.3275 36.0034C26.588 36.0034 26.0046 35.6909 25.5775 35.0659C25.2338 34.5659 25.0619 33.9462 25.0619 33.2066C25.0619 32.2795 25.2859 31.5712 25.7338 31.0816C26.1817 30.592 26.7338 30.3472 27.39 30.3472C28.0775 30.3472 28.64 30.6493 29.0775 31.2534V30.4722H30.4525V35.4409C30.4525 36.0868 30.3953 36.5712 30.2807 36.8941C30.1765 37.217 30.0255 37.4722 29.8275 37.6597C29.64 37.8472 29.3848 37.993 29.0619 38.0972C28.739 38.2014 28.3275 38.2534 27.8275 38.2534C26.89 38.2534 26.2234 38.092 25.8275 37.7691C25.4421 37.4462 25.2494 37.0399 25.2494 36.5503C25.2494 36.4982 25.2494 36.4357 25.2494 36.3628ZM26.5619 33.1284C26.5619 33.7118 26.6765 34.1389 26.9057 34.4097C27.1348 34.6805 27.4109 34.8159 27.7338 34.8159C28.0984 34.8159 28.4005 34.6805 28.64 34.4097C28.89 34.1284 29.015 33.7118 29.015 33.1597C29.015 32.5868 28.8953 32.1649 28.6557 31.8941C28.4265 31.6128 28.1296 31.4722 27.765 31.4722C27.4213 31.4722 27.1348 31.6076 26.9057 31.8784C26.6765 32.1493 26.5619 32.5659 26.5619 33.1284ZM31.8993 36.0034V28.3784H33.3681V36.0034H31.8993ZM38.0631 34.2378L39.5162 34.4878C39.3287 35.0191 39.0318 35.4253 38.6256 35.7066C38.2193 35.9878 37.7141 36.1284 37.11 36.1284C36.1516 36.1284 35.4433 35.8159 34.985 35.1909C34.6204 34.6805 34.4381 34.0451 34.4381 33.2847C34.4381 32.368 34.6777 31.6493 35.1568 31.1284C35.636 30.6076 36.2402 30.3472 36.9693 30.3472C37.7922 30.3472 38.4381 30.6232 38.9068 31.1753C39.386 31.717 39.6152 32.5451 39.5943 33.6597H35.9381C35.9485 34.0972 36.0631 34.4357 36.2818 34.6753C36.511 34.9149 36.7922 35.0347 37.1256 35.0347C37.3547 35.0347 37.5475 34.9722 37.7037 34.8472C37.86 34.7222 37.9797 34.5191 38.0631 34.2378ZM38.1412 32.7691C38.1308 32.342 38.0214 32.0191 37.8131 31.8003C37.6047 31.5816 37.3495 31.4722 37.0475 31.4722C36.735 31.4722 36.4745 31.5868 36.2662 31.8159C36.0579 32.0555 35.9537 32.3732 35.9537 32.7691H38.1412ZM43.3177 30.4722V31.6441H42.3177V33.8628C42.3177 34.3212 42.3281 34.5868 42.349 34.6597C42.3698 34.7326 42.4115 34.7951 42.474 34.8472C42.5469 34.8889 42.6302 34.9097 42.724 34.9097C42.8594 34.9097 43.0573 34.8628 43.3177 34.7691L43.4427 35.9097C43.099 36.0555 42.7135 36.1284 42.2865 36.1284C42.026 36.1284 41.7865 36.0868 41.5677 36.0034C41.3594 35.9097 41.2031 35.7951 41.099 35.6597C41.0052 35.5139 40.9375 35.3212 40.8958 35.0816C40.8646 34.9149 40.849 34.5712 40.849 34.0503V31.6441H40.1771V30.4722H40.849V29.3784L42.3177 28.5191V30.4722H43.3177ZM43.9913 33.1597C43.9913 32.6805 44.1111 32.2118 44.3507 31.7534C44.5903 31.2951 44.9288 30.9462 45.3663 30.7066C45.8142 30.467 46.3038 30.3472 46.8351 30.3472C47.6788 30.3472 48.3663 30.6232 48.8976 31.1753C49.4288 31.717 49.6944 32.3993 49.6944 33.2222C49.6944 34.0555 49.4236 34.7482 48.8819 35.3003C48.3507 35.8524 47.6736 36.1284 46.8507 36.1284C46.3507 36.1284 45.8663 36.0139 45.3976 35.7847C44.9392 35.5555 44.5903 35.2222 44.3507 34.7847C44.1111 34.3368 43.9913 33.7951 43.9913 33.1597ZM45.4913 33.2378C45.4913 33.7899 45.6215 34.2118 45.8819 34.5034C46.1424 34.7951 46.4653 34.9409 46.8507 34.9409C47.2257 34.9409 47.5434 34.7951 47.8038 34.5034C48.0642 34.2118 48.1944 33.7899 48.1944 33.2378C48.1944 32.6962 48.0642 32.2795 47.8038 31.9878C47.5434 31.6962 47.2257 31.5503 46.8507 31.5503C46.4653 31.5503 46.1424 31.6962 45.8819 31.9878C45.6215 32.2795 45.4913 32.6962 45.4913 33.2378ZM55.8756 36.0034H54.4068V33.1909C54.4068 32.5868 54.3756 32.2014 54.3131 32.0347C54.2506 31.8576 54.1464 31.7222 54.0006 31.6284C53.8652 31.5243 53.6985 31.4722 53.5006 31.4722C53.2506 31.4722 53.0214 31.5451 52.8131 31.6909C52.6152 31.8264 52.4798 32.0087 52.4068 32.2378C52.3339 32.467 52.2975 32.8889 52.2975 33.5034V36.0034H50.8287V30.4722H52.1881V31.2847C52.6673 30.6597 53.2766 30.3472 54.0162 30.3472C54.3391 30.3472 54.6308 30.4097 54.8912 30.5347C55.162 30.6493 55.3652 30.7951 55.5006 30.9722C55.636 31.1493 55.7298 31.3524 55.7818 31.5816C55.8443 31.8107 55.8756 32.1389 55.8756 32.5659V36.0034ZM66.4705 35.0347C66.8455 35.3055 67.2517 35.5191 67.6892 35.6753L67.1267 36.7691C66.8976 36.6962 66.6736 36.6024 66.4549 36.4878C66.4028 36.4566 66.059 36.2274 65.4236 35.8003C64.9236 36.0191 64.3715 36.1284 63.7674 36.1284C62.5903 36.1284 61.6684 35.7847 61.0017 35.0972C60.3455 34.4097 60.0174 33.4409 60.0174 32.1909C60.0174 30.9409 60.3507 29.9722 61.0174 29.2847C61.684 28.5868 62.5851 28.2378 63.7205 28.2378C64.8559 28.2378 65.7517 28.5868 66.408 29.2847C67.0747 29.9722 67.408 30.9409 67.408 32.1909C67.408 32.8472 67.3142 33.4253 67.1267 33.9253C66.9913 34.3107 66.7726 34.6805 66.4705 35.0347ZM65.2205 34.1597C65.4184 33.9305 65.5642 33.6545 65.658 33.3316C65.7622 32.9982 65.8142 32.618 65.8142 32.1909C65.8142 31.3055 65.6215 30.6493 65.2361 30.2222C64.8507 29.7847 64.3403 29.5659 63.7049 29.5659C63.0799 29.5659 62.5695 29.7847 62.1736 30.2222C61.7882 30.6597 61.5955 31.3159 61.5955 32.1909C61.5955 33.0764 61.7882 33.743 62.1736 34.1909C62.5695 34.6284 63.0642 34.8472 63.658 34.8472C63.8872 34.8472 64.1007 34.8107 64.2986 34.7378C63.9861 34.5399 63.6684 34.3837 63.3455 34.2691L63.7674 33.3784C64.2778 33.5555 64.7622 33.8159 65.2205 34.1597ZM72.2436 36.0034V35.1753C72.0353 35.467 71.7645 35.7014 71.4311 35.8784C71.1082 36.0451 70.7697 36.1284 70.4155 36.1284C70.0405 36.1284 69.702 36.0503 69.3999 35.8941C69.1082 35.7274 68.8947 35.4982 68.7593 35.2066C68.6343 34.9045 68.5718 34.493 68.5718 33.9722V30.4722H70.0405V33.0191C70.0405 33.7899 70.0666 34.2639 70.1186 34.4409C70.1707 34.618 70.2645 34.7587 70.3999 34.8628C70.5457 34.967 70.728 35.0191 70.9468 35.0191C71.1968 35.0191 71.4207 34.9514 71.6186 34.8159C71.8166 34.6701 71.952 34.4982 72.0249 34.3003C72.0978 34.092 72.1343 33.5972 72.1343 32.8159V30.4722H73.603V36.0034H72.2436ZM78.3154 34.2378L79.7685 34.4878C79.581 35.0191 79.2841 35.4253 78.8779 35.7066C78.4716 35.9878 77.9664 36.1284 77.3623 36.1284C76.4039 36.1284 75.6956 35.8159 75.2373 35.1909C74.8727 34.6805 74.6904 34.0451 74.6904 33.2847C74.6904 32.368 74.93 31.6493 75.4091 31.1284C75.8883 30.6076 76.4925 30.3472 77.2216 30.3472C78.0446 30.3472 78.6904 30.6232 79.1591 31.1753C79.6383 31.717 79.8675 32.5451 79.8466 33.6597H76.1904C76.2008 34.0972 76.3154 34.4357 76.5341 34.6753C76.7633 34.9149 77.0446 35.0347 77.3779 35.0347C77.6071 35.0347 77.7998 34.9722 77.956 34.8472C78.1123 34.7222 78.2321 34.5191 78.3154 34.2378ZM78.3935 32.7691C78.3831 32.342 78.2737 32.0191 78.0654 31.8003C77.8571 31.5816 77.6019 31.4722 77.2998 31.4722C76.9873 31.4722 76.7269 31.5868 76.5185 31.8159C76.3102 32.0555 76.206 32.3732 76.206 32.7691H78.3935ZM84.6794 36.0034V35.1753C84.4711 35.467 84.2002 35.7014 83.8669 35.8784C83.544 36.0451 83.2054 36.1284 82.8513 36.1284C82.4763 36.1284 82.1377 36.0503 81.8356 35.8941C81.544 35.7274 81.3304 35.4982 81.195 35.2066C81.07 34.9045 81.0075 34.493 81.0075 33.9722V30.4722H82.4763V33.0191C82.4763 33.7899 82.5023 34.2639 82.5544 34.4409C82.6065 34.618 82.7002 34.7587 82.8356 34.8628C82.9815 34.967 83.1638 35.0191 83.3825 35.0191C83.6325 35.0191 83.8565 34.9514 84.0544 34.8159C84.2523 34.6701 84.3877 34.4982 84.4606 34.3003C84.5336 34.092 84.57 33.5972 84.57 32.8159V30.4722H86.0388V36.0034H84.6794ZM90.7512 34.2378L92.2043 34.4878C92.0168 35.0191 91.7199 35.4253 91.3137 35.7066C90.9074 35.9878 90.4022 36.1284 89.798 36.1284C88.8397 36.1284 88.1314 35.8159 87.673 35.1909C87.3084 34.6805 87.1262 34.0451 87.1262 33.2847C87.1262 32.368 87.3657 31.6493 87.8449 31.1284C88.3241 30.6076 88.9282 30.3472 89.6574 30.3472C90.4803 30.3472 91.1262 30.6232 91.5949 31.1753C92.0741 31.717 92.3032 32.5451 92.2824 33.6597H88.6262C88.6366 34.0972 88.7512 34.4357 88.9699 34.6753C89.1991 34.9149 89.4803 35.0347 89.8137 35.0347C90.0428 35.0347 90.2355 34.9722 90.3918 34.8472C90.548 34.7222 90.6678 34.5191 90.7512 34.2378ZM90.8293 32.7691C90.8189 32.342 90.7095 32.0191 90.5012 31.8003C90.2928 31.5816 90.0376 31.4722 89.7355 31.4722C89.423 31.4722 89.1626 31.5868 88.9543 31.8159C88.7459 32.0555 88.6418 32.3732 88.6418 32.7691H90.8293Z" fill="black"/>
<path fill-rule="evenodd" clip-rule="evenodd" d="M58.1389 7.12073H89.6575C93.7865 7.12073 97.1338 9.14371 97.1338 11.6392C97.1338 14.1346 93.7865 16.1576 89.6575 16.1576H58.1389C54.0098 16.1576 50.6626 14.1346 50.6626 11.6392C50.6626 9.14371 54.0098 7.12073 58.1389 7.12073Z" fill="#B6D7A8"/>
<path d="M55.1483 13.7592V10.3998H53.8983V9.94666H56.9139V10.3998H55.6639V13.7592H55.1483ZM57.4498 13.7592V9.94666H59.1373C59.4811 9.94666 59.7415 9.98311 59.9186 10.056C60.0957 10.1185 60.2363 10.2383 60.3405 10.4154C60.4446 10.5821 60.4967 10.7748 60.4967 10.9935C60.4967 11.2539 60.4082 11.4779 60.2311 11.6654C60.054 11.8529 59.7832 11.9727 59.4186 12.0248C59.554 12.0873 59.6582 12.1498 59.7311 12.2123C59.8769 12.3477 60.0123 12.5196 60.1373 12.7279L60.8092 13.7592H60.1686L59.6686 12.9623C59.5227 12.7331 59.403 12.5612 59.3092 12.4467C59.2155 12.3217 59.1269 12.2383 59.0436 12.1967C58.9707 12.1446 58.8977 12.1081 58.8248 12.0873C58.7623 12.0769 58.6686 12.0717 58.5436 12.0717H57.9498V13.7592H57.4498ZM57.9498 11.6342H59.0436C59.2727 11.6342 59.4498 11.6081 59.5748 11.556C59.7102 11.5039 59.8092 11.4258 59.8717 11.3217C59.9446 11.2175 59.9811 11.1081 59.9811 10.9935C59.9811 10.806 59.9134 10.655 59.778 10.5404C59.653 10.4258 59.4446 10.3685 59.153 10.3685H57.9498V11.6342ZM60.8758 13.7592L62.3289 9.94666H62.8758L64.4383 13.7592H63.8601L63.4226 12.6029H61.8289L61.407 13.7592H60.8758ZM61.9695 12.1967H63.2664L62.8601 11.1342C62.7456 10.8112 62.657 10.5508 62.5945 10.3529C62.5424 10.5925 62.4747 10.8321 62.3914 11.0717L61.9695 12.1967ZM64.8671 13.7592V9.94666H67.4452V10.3998H65.3671V11.5717H67.164V12.0248H65.3671V13.7592H64.8671ZM68.1217 13.7592V9.94666H70.6998V10.3998H68.6217V11.5717H70.4186V12.0248H68.6217V13.7592H68.1217ZM71.4389 13.7592V9.94666H71.9389V13.7592H71.4389ZM75.5442 12.4154L76.0598 12.556C75.9556 12.9623 75.7629 13.2748 75.4817 13.4935C75.2109 13.7123 74.8775 13.8217 74.4817 13.8217C74.065 13.8217 73.7265 13.7383 73.4661 13.5717C73.2161 13.405 73.0234 13.1654 72.8879 12.8529C72.7525 12.53 72.6848 12.1862 72.6848 11.8217C72.6848 11.4258 72.7577 11.0821 72.9036 10.7904C73.0598 10.4883 73.2786 10.2644 73.5598 10.1185C73.8411 9.96228 74.1484 9.88416 74.4817 9.88416C74.8671 9.88416 75.19 9.98311 75.4504 10.181C75.7109 10.3685 75.8931 10.6394 75.9973 10.9935L75.4973 11.1029C75.4036 10.8321 75.2734 10.6342 75.1067 10.5092C74.94 10.3737 74.7317 10.306 74.4817 10.306C74.1796 10.306 73.9296 10.3789 73.7317 10.5248C73.5442 10.6602 73.4088 10.8477 73.3254 11.0873C73.2421 11.3269 73.2004 11.5717 73.2004 11.8217C73.2004 12.1446 73.2473 12.431 73.3411 12.681C73.4348 12.9206 73.5806 13.1029 73.7786 13.2279C73.9869 13.3425 74.2056 13.3998 74.4348 13.3998C74.7161 13.3998 74.9556 13.3164 75.1536 13.1498C75.3515 12.9831 75.4817 12.7383 75.5442 12.4154ZM78.138 13.7592V9.94666H78.9036L79.8098 12.6498C79.8932 12.8998 79.9505 13.0873 79.9817 13.2123C80.0338 13.0769 80.1015 12.8737 80.1848 12.6029L81.1067 9.94666H81.7786V13.7592H81.2942V10.5717L80.1848 13.7592H79.7317L78.6223 10.5092V13.7592H78.138ZM84.3888 12.2592V11.8217L85.9982 11.806V13.2279C85.7482 13.4258 85.493 13.5769 85.2326 13.681C84.9722 13.7748 84.7013 13.8217 84.4201 13.8217C84.0451 13.8217 83.7013 13.7435 83.3888 13.5873C83.0867 13.4206 82.8576 13.1862 82.7013 12.8842C82.5451 12.5821 82.4669 12.2435 82.4669 11.8685C82.4669 11.4935 82.5451 11.1498 82.7013 10.8373C82.8576 10.5144 83.0815 10.2748 83.3732 10.1185C83.6649 9.96228 83.9982 9.88416 84.3732 9.88416C84.6544 9.88416 84.9044 9.93103 85.1232 10.0248C85.3524 10.1081 85.5294 10.2331 85.6544 10.3998C85.7794 10.556 85.8732 10.7592 85.9357 11.0092L85.4826 11.1342C85.4305 10.9467 85.3576 10.7956 85.2638 10.681C85.1805 10.5664 85.0607 10.4779 84.9044 10.4154C84.7482 10.3425 84.5763 10.306 84.3888 10.306C84.1492 10.306 83.9461 10.3425 83.7794 10.4154C83.6128 10.4883 83.4774 10.5821 83.3732 10.6967C83.269 10.8112 83.1909 10.9362 83.1388 11.0717C83.0347 11.3112 82.9826 11.5664 82.9826 11.8373C82.9826 12.181 83.0399 12.4675 83.1544 12.6967C83.2794 12.9258 83.4513 13.0977 83.6701 13.2123C83.8992 13.3164 84.1388 13.3685 84.3888 13.3685C84.6076 13.3685 84.8211 13.3269 85.0294 13.2435C85.2378 13.1602 85.394 13.0717 85.4982 12.9779V12.2592H84.3888ZM86.7207 13.7592V9.94666H87.4863L88.3926 12.6498C88.4759 12.8998 88.5332 13.0873 88.5645 13.2123C88.6166 13.0769 88.6843 12.8737 88.7676 12.6029L89.6895 9.94666H90.3613V13.7592H89.877V10.5717L88.7676 13.7592H88.3145L87.2051 10.5092V13.7592H86.7207ZM92.1435 13.7592V10.3998H90.8935V9.94666H93.9091V10.3998H92.6591V13.7592H92.1435Z" fill="#38761D"/>
<path d="M57.6851 111.919L56.4194 108.56H56.3882C56.3986 108.622 56.4038 108.706 56.4038 108.81C56.4142 108.914 56.4194 109.029 56.4194 109.154C56.4299 109.268 56.4351 109.388 56.4351 109.513V111.919H56.0132V108.122H56.6694L57.8726 111.279H57.9038L59.1226 108.122H59.7632V111.919H59.3257V109.482C59.3257 109.367 59.3257 109.258 59.3257 109.154C59.3361 109.039 59.3413 108.93 59.3413 108.826C59.3517 108.721 59.3621 108.633 59.3726 108.56H59.3413L58.0601 111.919H57.6851ZM62.9304 111.919H60.8054V108.122H62.9304V108.513H61.2585V109.732H62.8366V110.122H61.2585V111.529H62.9304V111.919ZM65.9223 110.904C65.9223 111.133 65.865 111.326 65.7504 111.482C65.6358 111.638 65.4796 111.758 65.2816 111.841C65.0837 111.924 64.8441 111.966 64.5629 111.966C64.4275 111.966 64.2921 111.961 64.1566 111.951C64.0316 111.94 63.9119 111.924 63.7973 111.904C63.6931 111.872 63.5994 111.836 63.516 111.794V111.372C63.6514 111.424 63.8129 111.477 64.0004 111.529C64.1879 111.57 64.3858 111.591 64.5941 111.591C64.7816 111.591 64.9379 111.565 65.0629 111.513C65.1983 111.461 65.2973 111.388 65.3598 111.294C65.4327 111.201 65.4691 111.086 65.4691 110.951C65.4691 110.815 65.4379 110.706 65.3754 110.622C65.3233 110.529 65.2296 110.445 65.0941 110.372C64.9691 110.299 64.7921 110.227 64.5629 110.154C64.3962 110.091 64.2504 110.029 64.1254 109.966C64.0108 109.893 63.9119 109.815 63.8285 109.732C63.7452 109.638 63.6827 109.534 63.641 109.419C63.5994 109.305 63.5785 109.174 63.5785 109.029C63.5785 108.831 63.6254 108.659 63.7191 108.513C63.8233 108.367 63.9691 108.258 64.1566 108.185C64.3441 108.102 64.5525 108.06 64.7816 108.06C64.99 108.06 65.1775 108.081 65.3441 108.122C65.5212 108.154 65.6827 108.206 65.8285 108.279L65.6879 108.654C65.5525 108.591 65.4066 108.544 65.2504 108.513C65.0941 108.471 64.9379 108.451 64.7816 108.451C64.615 108.451 64.4744 108.477 64.3598 108.529C64.2556 108.57 64.1723 108.638 64.1098 108.732C64.0473 108.815 64.016 108.914 64.016 109.029C64.016 109.164 64.0421 109.279 64.0941 109.372C64.1566 109.456 64.2504 109.534 64.3754 109.607C64.5004 109.669 64.6671 109.737 64.8754 109.81C65.0941 109.893 65.2816 109.982 65.4379 110.076C65.5941 110.169 65.7139 110.284 65.7973 110.419C65.8806 110.544 65.9223 110.706 65.9223 110.904ZM69.5783 111.919H69.1252V110.122H67.1408V111.919H66.6877V108.122H67.1408V109.732H69.1252V108.122H69.5783V111.919ZM72.7411 111.919H70.6161V108.122H72.7411V108.513H71.0692V109.732H72.6474V110.122H71.0692V111.529H72.7411V111.919ZM74.608 108.122C74.9205 108.122 75.1757 108.159 75.3736 108.232C75.582 108.305 75.733 108.424 75.8268 108.591C75.9309 108.747 75.983 108.945 75.983 109.185C75.983 109.383 75.9465 109.549 75.8736 109.685C75.8007 109.82 75.707 109.93 75.5924 110.013C75.4778 110.096 75.3528 110.164 75.2174 110.216L76.2643 111.919H75.7486L74.8111 110.326H74.0299V111.919H73.5768V108.122H74.608ZM74.5768 108.497H74.0299V109.951H74.6236C74.9361 109.951 75.1653 109.888 75.3111 109.763C75.457 109.638 75.5299 109.456 75.5299 109.216C75.5299 108.956 75.4518 108.773 75.2955 108.669C75.1393 108.555 74.8997 108.497 74.5768 108.497ZM77.834 110.029L78.8496 108.122H79.334L78.0683 110.451V111.919H77.6152V110.466L76.3496 108.122H76.834L77.834 110.029ZM82.1097 110.013C82.1097 110.326 82.0837 110.602 82.0316 110.841C81.9899 111.081 81.917 111.289 81.8128 111.466C81.7087 111.633 81.5784 111.758 81.4222 111.841C81.2659 111.924 81.0732 111.966 80.8441 111.966C80.5628 111.966 80.3284 111.893 80.1409 111.747C79.9639 111.591 79.8284 111.367 79.7347 111.076C79.6409 110.784 79.5941 110.43 79.5941 110.013C79.5941 109.607 79.6357 109.258 79.7191 108.966C79.8024 108.674 79.9326 108.451 80.1097 108.294C80.2972 108.138 80.542 108.06 80.8441 108.06C81.1357 108.06 81.3701 108.138 81.5472 108.294C81.7347 108.451 81.8753 108.674 81.9691 108.966C82.0628 109.258 82.1097 109.607 82.1097 110.013ZM80.0316 110.013C80.0316 110.367 80.0576 110.664 80.1097 110.904C80.1618 111.133 80.2451 111.31 80.3597 111.435C80.4847 111.549 80.6462 111.607 80.8441 111.607C81.042 111.607 81.1982 111.549 81.3128 111.435C81.4378 111.31 81.5264 111.133 81.5784 110.904C81.6409 110.664 81.6722 110.367 81.6722 110.013C81.6722 109.659 81.6409 109.367 81.5784 109.138C81.5264 108.898 81.4378 108.721 81.3128 108.607C81.1982 108.492 81.042 108.435 80.8441 108.435C80.6462 108.435 80.4847 108.492 80.3597 108.607C80.2451 108.721 80.1618 108.898 80.1097 109.138C80.0576 109.367 80.0316 109.659 80.0316 110.013ZM85.125 111.919H82.6406V111.56L83.6562 110.529C83.8437 110.331 84 110.159 84.125 110.013C84.2604 109.867 84.3593 109.721 84.4218 109.576C84.4947 109.43 84.5312 109.268 84.5312 109.091C84.5312 108.883 84.4635 108.721 84.3281 108.607C84.2031 108.492 84.0364 108.435 83.8281 108.435C83.651 108.435 83.4895 108.466 83.3437 108.529C83.2083 108.591 83.0677 108.68 82.9218 108.794L82.6875 108.497C82.7916 108.414 82.901 108.341 83.0156 108.279C83.1302 108.206 83.2552 108.154 83.3906 108.122C83.5364 108.081 83.6822 108.06 83.8281 108.06C84.0677 108.06 84.2708 108.102 84.4375 108.185C84.6145 108.268 84.7447 108.388 84.8281 108.544C84.9218 108.69 84.9687 108.867 84.9687 109.076C84.9687 109.273 84.927 109.461 84.8437 109.638C84.7708 109.805 84.6614 109.977 84.5156 110.154C84.3697 110.32 84.2031 110.497 84.0156 110.685L83.1875 111.513V111.529H85.125V111.919ZM88.0308 108.997C88.0308 109.174 87.9996 109.326 87.9371 109.451C87.8746 109.576 87.7808 109.68 87.6558 109.763C87.5413 109.836 87.4058 109.888 87.2496 109.919V109.935C87.5517 109.977 87.7756 110.076 87.9215 110.232C88.0777 110.388 88.1558 110.591 88.1558 110.841C88.1558 111.06 88.1038 111.258 87.9996 111.435C87.8954 111.602 87.734 111.732 87.5152 111.826C87.3069 111.919 87.036 111.966 86.7027 111.966C86.5048 111.966 86.3173 111.951 86.1402 111.919C85.9735 111.888 85.8121 111.836 85.6558 111.763V111.357C85.8121 111.44 85.984 111.503 86.1715 111.544C86.359 111.586 86.5413 111.607 86.7183 111.607C87.0621 111.607 87.3121 111.539 87.4683 111.404C87.6246 111.268 87.7027 111.081 87.7027 110.841C87.7027 110.674 87.6558 110.539 87.5621 110.435C87.4788 110.331 87.3538 110.258 87.1871 110.216C87.0308 110.164 86.8433 110.138 86.6246 110.138H86.234V109.763H86.6246C86.8329 109.763 87.0048 109.737 87.1402 109.685C87.286 109.622 87.3954 109.539 87.4683 109.435C87.5517 109.32 87.5933 109.185 87.5933 109.029C87.5933 108.841 87.5256 108.695 87.3902 108.591C87.2652 108.487 87.0933 108.435 86.8746 108.435C86.7392 108.435 86.6142 108.451 86.4996 108.482C86.3954 108.503 86.2913 108.539 86.1871 108.591C86.0933 108.633 85.9996 108.685 85.9058 108.747L85.6871 108.451C85.8225 108.346 85.9892 108.258 86.1871 108.185C86.385 108.102 86.6142 108.06 86.8746 108.06C87.26 108.06 87.5465 108.148 87.734 108.326C87.9319 108.503 88.0308 108.727 88.0308 108.997Z" fill="#999999"/>
<g clip-path="url(#clip0_5562_24520)">
<path d="M50.3328 106C50.3328 106.015 50.3328 106.031 50.3328 106.047C50.3328 106.597 49.8872 107.042 49.3376 107.042C48.7879 107.042 48.3424 106.596 48.3424 106.047C48.3424 106.031 48.3424 106.015 48.3424 106H45V114.68H53.68V106H50.3328Z" fill="#654FF0"/>
<path d="M47.0162 110.678H47.5915L47.9842 112.769H47.9913L48.4633 110.678H49.0014L49.4278 112.795H49.4361L49.8838 110.678H50.448L49.7148 113.751H49.144L48.7212 111.659H48.7101L48.2575 113.751H47.676L47.0162 110.678ZM51.0965 110.678H52.0034L52.904 113.751H52.3106L52.1147 113.067H51.0817L50.9305 113.751H50.3525L51.0965 110.678ZM51.4418 111.435L51.1909 112.563H51.9718L51.6837 111.435H51.4418Z" fill="white"/>
</g>
<rect x="8" y="41" width="88" height="61" fill="#EEEEEE"/>
<path d="M17.523 89.9981H16.2341L15.0154 85.7185C14.9629 85.5313 14.8974 85.2617 14.8188 84.9098C14.7402 84.5578 14.6924 84.3135 14.6756 84.1768C14.6419 84.3865 14.5885 84.658 14.5155 84.9912C14.4425 85.3244 14.3807 85.5734 14.3302 85.7382L13.1423 89.9981H11.8702L10.9435 86.4037L10 82.8205H11.1991L12.2241 86.999C12.3679 87.5855 12.4823 88.1787 12.5667 88.7766C12.6022 88.4977 12.6565 88.1869 12.7295 87.8443C12.8025 87.5017 12.8681 87.2209 12.9261 87.0018L14.0943 82.8093H15.2569L16.4559 87.0215C16.6096 87.5964 16.7305 88.1796 16.8182 88.7682C16.8944 88.1709 17.0126 87.5797 17.172 86.999L18.1942 82.8261H19.382L17.523 89.9981Z" fill="#393939"/>
<path d="M25.3606 89.9981H21.3029V82.8205H25.3606V83.8118H22.4739V85.7775H25.1781V86.7603H22.4739V89.0069H25.3606V89.9981Z" fill="#393939"/>
<path d="M27.8177 82.8205H29.9491C30.9376 82.8205 31.6518 82.9647 32.0918 83.253C32.312 83.4023 32.489 83.6072 32.6049 83.8468C32.7207 84.0864 32.7714 84.3523 32.7517 84.6177C32.7656 84.9925 32.6517 85.3608 32.4287 85.6624C32.1963 85.9499 31.8628 86.1378 31.4964 86.1875V86.2352C31.9248 86.286 32.322 86.4846 32.6197 86.7969C32.8686 87.1168 32.995 87.5152 32.9763 87.9201C32.99 88.2075 32.9362 88.4941 32.8191 88.757C32.7021 89.0198 32.5251 89.2516 32.3024 89.4337C31.7584 89.8281 31.0944 90.0216 30.4237 89.9813H27.8177V82.8205ZM28.9916 85.7859H30.1148C30.4883 85.8141 30.862 85.7332 31.1903 85.5528C31.311 85.4598 31.4058 85.3373 31.4658 85.1973C31.5257 85.0572 31.5489 84.9041 31.5329 84.7525C31.5438 84.6092 31.5156 84.4656 31.4513 84.337C31.387 84.2084 31.2891 84.0997 31.1679 84.0224C30.8076 83.8472 30.4077 83.7697 30.0081 83.7977H28.9916V85.7859ZM28.9916 86.7379V89.0097H30.2384C30.6333 89.0396 31.0273 88.9411 31.3616 88.7289C31.4886 88.6208 31.5878 88.4837 31.6509 88.3293C31.7139 88.1749 31.7389 88.0076 31.7239 87.8415C31.7376 87.6801 31.7097 87.5179 31.6429 87.3704C31.576 87.2229 31.4724 87.0951 31.342 86.999C30.9915 86.7907 30.5864 86.6928 30.1794 86.7182L28.9916 86.7379Z" fill="#393939"/>
<path d="M40.5134 89.9981L39.6204 87.7151H36.742L35.8575 89.9981H35.015L37.8512 82.7868H38.5533L41.3755 89.9925L40.5134 89.9981ZM39.3592 86.9653L38.5168 84.7413C38.4082 84.4605 38.2968 84.1151 38.1826 83.7051C38.1029 84.0598 38.0026 84.4095 37.8821 84.7525L37.0397 86.9766L39.3592 86.9653Z" fill="#393939"/>
<path d="M47.9213 88.0886C47.9341 88.372 47.8782 88.6543 47.7584 88.9115C47.6386 89.1687 47.4585 89.3931 47.2333 89.5657C46.6883 89.9455 46.032 90.1323 45.3687 90.0964C44.6974 90.1296 44.0269 90.0175 43.403 89.7679V88.9648C43.7141 89.0895 44.0367 89.1836 44.3661 89.2456C44.7051 89.3163 45.0505 89.3521 45.3967 89.3523C45.8392 89.3833 46.28 89.2721 46.6548 89.035C46.7919 88.9338 46.9021 88.8005 46.9755 88.6467C47.049 88.4929 47.0835 88.3234 47.076 88.1532C47.0858 87.9391 47.0342 87.7267 46.9272 87.541C46.7984 87.3561 46.6269 87.2048 46.4273 87.1001C46.0848 86.9192 45.7279 86.7671 45.3602 86.6452C44.8207 86.4868 44.3287 86.1974 43.9281 85.8028C43.6308 85.4441 43.4777 84.9876 43.4984 84.5223C43.4896 84.2685 43.5415 84.0163 43.65 83.7867C43.7584 83.5571 43.9202 83.3568 44.1218 83.2024C44.5993 82.8558 45.1808 82.6824 45.7702 82.711C46.4457 82.704 47.1151 82.8379 47.7359 83.1041L47.4748 83.8314C46.9299 83.5927 46.3426 83.4657 45.7478 83.458C45.381 83.4361 45.0171 83.5347 44.7116 83.7388C44.59 83.8302 44.4925 83.9498 44.4274 84.0872C44.3623 84.2247 44.3317 84.3759 44.3381 84.5279C44.3293 84.7405 44.3768 84.9516 44.4757 85.14C44.5911 85.3225 44.7504 85.4731 44.939 85.5781C45.2575 85.7565 45.5922 85.9041 45.9387 86.019C46.5153 86.1857 47.0463 86.4815 47.4916 86.8839C47.7863 87.2142 47.9405 87.6464 47.9213 88.0886V88.0886Z" fill="#393939"/>
<path d="M54.9473 88.0886C54.9601 88.372 54.9042 88.6543 54.7844 88.9115C54.6646 89.1687 54.4845 89.3931 54.2593 89.5657C53.7143 89.9455 53.058 90.1323 52.3947 90.0964C51.7234 90.1296 51.0529 90.0175 50.429 89.7679V88.9648C50.7401 89.0895 51.0627 89.1836 51.3922 89.2456C51.7311 89.3163 52.0765 89.3521 52.4227 89.3523C52.8652 89.3833 53.306 89.2721 53.6808 89.035C53.8179 88.9338 53.9281 88.8005 54.0015 88.6467C54.075 88.4929 54.1095 88.3234 54.102 88.1532C54.1118 87.9391 54.0602 87.7267 53.9532 87.541C53.8244 87.3561 53.6529 87.2048 53.4533 87.1001C53.1108 86.9192 52.7539 86.7671 52.3862 86.6452C51.8467 86.4868 51.3547 86.1974 50.9541 85.8028C50.6568 85.4441 50.5037 84.9876 50.5244 84.5223C50.5156 84.2685 50.5675 84.0163 50.676 83.7867C50.7844 83.5571 50.9462 83.3568 51.1478 83.2024C51.6254 82.8558 52.2068 82.6824 52.7962 82.711C53.4717 82.704 54.1411 82.8379 54.7619 83.1041L54.5008 83.8314C53.9559 83.5927 53.3686 83.4657 52.7738 83.458C52.407 83.4361 52.0431 83.5347 51.7376 83.7388C51.616 83.8302 51.5185 83.9498 51.4534 84.0872C51.3883 84.2247 51.3577 84.3759 51.3641 84.5279C51.3553 84.7405 51.4028 84.9516 51.5017 85.14C51.6171 85.3225 51.7764 85.4731 51.965 85.5781C52.2835 85.7565 52.6183 85.9041 52.9647 86.019C53.5413 86.1857 54.0723 86.4815 54.5176 86.8839C54.8123 87.2142 54.9665 87.6464 54.9473 88.0886V88.0886Z" fill="#393939"/>
<path d="M61.9228 89.9981H57.924V82.8205H61.9256V83.5619H58.758V85.8758H61.7318V86.6115H58.758V89.2456H61.9256L61.9228 89.9981Z" fill="#393939"/>
<path d="M68.199 89.9981L65.7643 83.6293H65.725C65.7699 84.1329 65.7933 84.7319 65.7952 85.4265V89.9925H65.0258V82.8205H66.2838L68.5556 88.7401H68.5949L70.8779 82.8205H72.1248V89.9981H71.2823V85.3731C71.2823 84.8433 71.3057 84.2676 71.3525 83.6461H71.3132L68.8589 89.9981H68.199Z" fill="#393939"/>
<path d="M75.6069 82.8205H77.6344C78.5873 82.8205 79.2763 82.9628 79.7012 83.2473C79.9156 83.3978 80.0871 83.6014 80.1989 83.8382C80.3107 84.0751 80.3589 84.337 80.3387 84.5981C80.3533 84.981 80.2263 85.3559 79.982 85.6511C79.7093 85.9462 79.3415 86.1361 78.943 86.1875V86.2352C80.0326 86.4224 80.5774 86.9953 80.5774 87.9538C80.5917 88.2375 80.5404 88.5206 80.4274 88.7812C80.3144 89.0418 80.1428 89.2728 79.9259 89.4562C79.4018 89.8447 78.7573 90.0356 78.1062 89.9953H75.6013L75.6069 82.8205ZM76.4494 85.8926H77.8226C78.265 85.9267 78.7077 85.829 79.0947 85.6118C79.2314 85.5 79.3384 85.3562 79.406 85.193C79.4736 85.0298 79.4998 84.8524 79.4822 84.6767C79.4956 84.5061 79.4624 84.335 79.3863 84.1817C79.3101 84.0284 79.1938 83.8986 79.0497 83.8062C78.6239 83.5928 78.1491 83.4959 77.6737 83.5254H76.4466L76.4494 85.8926ZM76.4494 86.6003V89.2849H77.9461C78.4073 89.3175 78.8666 89.1992 79.2547 88.9479C79.4066 88.8202 79.5257 88.6579 79.6019 88.4747C79.6781 88.2914 79.7093 88.0926 79.6928 87.8948C79.7066 87.7065 79.6726 87.5176 79.5941 87.3458C79.5156 87.174 79.395 87.0248 79.2435 86.912C78.8291 86.6733 78.3529 86.5638 77.8759 86.5975L76.4494 86.6003Z" fill="#393939"/>
<path d="M83.6298 89.9981V82.8205H84.4722V89.2456H87.6398V90.001L83.6298 89.9981Z" fill="#393939"/>
<path d="M92.1806 86.4093L94.0958 82.8205H95L92.6046 87.2125V89.9953H91.7622V87.2518L89.3724 82.8177H90.2851L92.1806 86.4093Z" fill="#393939"/>
<path d="M55.9274 46C55.9274 46.0534 55.9274 46.1067 55.9274 46.1629C55.9274 47.0819 55.5623 47.9633 54.9124 48.6132C54.2626 49.263 53.3812 49.6281 52.4621 49.6281C51.5431 49.6281 50.6617 49.263 50.0118 48.6132C49.3619 47.9633 48.9969 47.0819 48.9969 46.1629C48.9969 46.1067 48.9969 46.0534 48.9969 46H37.3599V76.2214H67.5812V46H55.9274ZM51.7825 72.9864L50.3111 65.7048H50.2858L48.6936 72.9864H46.6661L44.369 62.2873H46.3712L47.7416 69.5688H47.7669L49.4181 62.2873H51.2911L52.7738 69.6587H52.7991L54.3632 62.2873H56.3289L53.7763 72.9864H51.7825ZM62.8074 72.9864L62.125 70.605H58.5221L57.997 72.9864H55.9948L58.5839 62.2873H61.7431L64.891 72.9864H62.8074Z" fill="#654FF0"/>
<path d="M59.7886 64.9241L58.9153 68.8499H61.6336L60.6311 64.9241H59.7886Z" fill="#654FF0"/>
<defs>
<clipPath id="clip0_5562_24520">
<rect width="8.68" height="8.68" fill="white" transform="translate(45 106)"/>
</clipPath>
</defs>
</svg>
