<?xml version="1.0" encoding="UTF-8"?>
<!DOCTYPE svg PUBLIC "-//W3C//DTD SVG 1.1//EN" "http://www.w3.org/Graphics/SVG/1.1/DTD/svg11.dtd">
<svg xmlns="http://www.w3.org/2000/svg" version="1.1" width="200px" height="200px" style="shape-rendering:geometricPrecision; text-rendering:geometricPrecision; image-rendering:optimizeQuality; fill-rule:evenodd; clip-rule:evenodd" xmlns:xlink="http://www.w3.org/1999/xlink">
<g><path style="opacity:0.99" fill="#0197d1" d="M 94.5,2.5 C 107.991,1.7123 120.991,3.7123 133.5,8.5C 134.129,11.2166 132.796,12.5499 129.5,12.5C 117.752,9.19781 105.752,7.53114 93.5,7.5C 92.1266,7.65668 90.7932,7.49001 89.5,7C 91.3617,5.63431 93.0283,4.13431 94.5,2.5 Z"/></g>
<g><path style="opacity:0.992" fill="#0395bd" d="M 94.5,2.5 C 93.0283,4.13431 91.3617,5.63431 89.5,7C 90.7932,7.49001 92.1266,7.65668 93.5,7.5C 54.0011,12.6917 27.1677,34.0251 13,71.5C 9.95333,82.9592 8.78666,94.6259 9.5,106.5C 8.67243,100.681 8.17243,94.6807 8,88.5C 5.83699,90.1413 4.33699,92.1413 3.5,94.5C 8.00564,46.8287 33.339,16.6621 79.5,4C 84.4814,3.25218 89.4814,2.75218 94.5,2.5 Z"/></g>
<g><path style="opacity:0.985" fill="#0383c7" d="M 133.5,8.5 C 146.471,13.133 157.471,20.4663 166.5,30.5C 164.738,31.2623 163.738,32.5956 163.5,34.5C 153.469,25.1324 142.136,17.7991 129.5,12.5C 132.796,12.5499 134.129,11.2166 133.5,8.5 Z"/></g>
<g><path style="opacity:0.989" fill="#0394d2" d="M 85.5,46.5 C 87.6074,47.4682 89.9407,47.8016 92.5,47.5C 91.1667,48.8333 89.8333,50.1667 88.5,51.5C 87.5,51.5 86.5,51.5 85.5,51.5C 85.0233,54.0252 83.6899,56.0252 81.5,57.5C 78.9788,60.0176 76.4788,60.0176 74,57.5C 62.6926,68.8953 51.5259,80.3953 40.5,92C 41.3366,93.0113 41.67,94.1779 41.5,95.5C 42.5,95.5 43.5,95.5 44.5,95.5C 44.5,97.5 44.5,99.5 44.5,101.5C 42.6412,101.461 41.3079,102.294 40.5,104C 44.3705,107.702 48.0371,111.536 51.5,115.5C 48.7287,114.227 47.062,115.227 46.5,118.5C 42.676,115.176 39.0093,111.676 35.5,108C 31.8733,107.436 28.7066,105.936 26,103.5C 25.1747,99.7887 25.3414,96.122 26.5,92.5C 30.0383,90.2315 33.705,88.2315 37.5,86.5C 47.1523,76.3475 56.9857,66.3475 67,56.5C 68.8821,52.4296 70.0488,48.0963 70.5,43.5C 72.8333,42.1667 75.1667,40.8333 77.5,39.5C 81.1695,40.9543 83.8362,43.2876 85.5,46.5 Z"/></g>
<g><path style="opacity:0.999" fill="#0191dd" d="M 116.5,57.5 C 116.5,56.8333 116.167,56.5 115.5,56.5C 115.5,55.8333 115.167,55.5 114.5,55.5C 113.766,54.2921 113.433,52.9587 113.5,51.5C 105.167,51.5 96.8333,51.5 88.5,51.5C 89.8333,50.1667 91.1667,48.8333 92.5,47.5C 99.5,47.5 106.5,47.5 113.5,47.5C 113.5,46.5 113.5,45.5 113.5,44.5C 115.765,42.358 118.432,40.6913 121.5,39.5C 124.136,40.9705 126.636,42.6372 129,44.5C 129.207,48.0894 129.707,51.5894 130.5,55C 129.125,57.4772 127.291,58.3106 125,57.5C 123.915,58.2931 122.748,58.9598 121.5,59.5C 119.925,58.5435 118.258,57.8769 116.5,57.5 Z"/></g>
<g><path style="opacity:0.989" fill="#0479cc" d="M 166.5,30.5 C 175.107,38.3536 181.773,47.687 186.5,58.5C 184.167,58.8333 182.833,60.1667 182.5,62.5C 177.676,52.1992 171.343,42.8659 163.5,34.5C 163.738,32.5956 164.738,31.2623 166.5,30.5 Z"/></g>
<g><path style="opacity:0.286" fill="#004e73" d="M 113.5,44.5 C 113.5,45.5 113.5,46.5 113.5,47.5C 106.5,47.5 99.5,47.5 92.5,47.5C 89.9407,47.8016 87.6074,47.4682 85.5,46.5C 95.0966,47.0974 104.43,46.4308 113.5,44.5 Z"/></g>
<g><path style="opacity:0.412" fill="#004a6e" d="M 85.5,52.5 C 85.5,52.1667 85.5,51.8333 85.5,51.5C 86.5,51.5 87.5,51.5 88.5,51.5C 96.8333,51.5 105.167,51.5 113.5,51.5C 113.433,52.9587 113.766,54.2921 114.5,55.5C 114.5,55.8333 114.5,56.1667 114.5,56.5C 113.609,55.8902 112.609,55.5569 111.5,55.5C 111.804,54.8501 112.137,54.1835 112.5,53.5C 103.525,52.5018 94.5246,52.1685 85.5,52.5 Z"/></g>
<g><path style="opacity:0.977" fill="#037bbd" d="M 111.5,55.5 C 112.609,55.5569 113.609,55.8902 114.5,56.5C 114.833,56.5 115.167,56.5 115.5,56.5C 116.167,56.5 116.5,56.8333 116.5,57.5C 114.59,63.6851 111.59,64.5184 107.5,60C 108.699,58.3057 110.032,56.8057 111.5,55.5 Z"/></g>
<g><path style="opacity:0.991" fill="#0374d3" d="M 186.5,58.5 C 190.226,66.3571 192.559,74.6904 193.5,83.5C 192.817,85.1765 191.483,85.8432 189.5,85.5C 187.339,77.8755 185.006,70.2088 182.5,62.5C 182.833,60.1667 184.167,58.8333 186.5,58.5 Z"/></g>
<g><path style="opacity:0.97" fill="#0470b5" d="M 132.5,59.5 C 135.439,59.918 137.772,61.418 139.5,64C 136.293,68.8112 133.459,68.6445 131,63.5C 130.7,61.9343 131.2,60.601 132.5,59.5 Z"/></g>
<g><path style="opacity:0.993" fill="#0484c9" d="M 85.5,51.5 C 85.5,51.8333 85.5,52.1667 85.5,52.5C 89.233,57.7405 93.5663,62.5738 98.5,67C 100.417,66.9725 102.084,66.1392 103.5,64.5C 107.438,66.899 107.438,69.399 103.5,72C 107.01,75.3427 110.343,78.8427 113.5,82.5C 110.762,80.8661 108.762,81.5328 107.5,84.5C 98.1516,76.1181 89.4849,67.1181 81.5,57.5C 83.6899,56.0252 85.0233,54.0252 85.5,51.5 Z"/></g>
<g><path style="opacity:0.985" fill="#046fba" d="M 142.5,67.5 C 148.339,70.2529 148.673,73.2529 143.5,76.5C 141.684,75.1851 140.017,73.6851 138.5,72C 140.041,70.6288 141.375,69.1288 142.5,67.5 Z"/></g>
<g><path style="opacity:0.993" fill="#0c70ac" d="M 92.5,74.5 C 94.6056,74.679 96.2723,75.679 97.5,77.5C 96.2993,79.9095 94.6326,81.9095 92.5,83.5C 90.8333,82.5 89.5,81.1667 88.5,79.5C 89.8569,77.8144 91.1902,76.1477 92.5,74.5 Z"/></g>
<g><path style="opacity:0.991" fill="#026fc2" d="M 150.5,77.5 C 156.599,79.4405 157.266,82.1071 152.5,85.5C 150.684,84.1851 149.017,82.6851 147.5,81C 148.71,79.9609 149.71,78.7942 150.5,77.5 Z"/></g>
<g><path style="opacity:0.986" fill="#008ce4" d="M 113.5,82.5 C 114.96,84.4628 116.627,86.2962 118.5,88C 121.599,88.3874 124.266,89.5541 126.5,91.5C 125.07,91.4208 123.736,91.7542 122.5,92.5C 120,95.887 117,98.5537 113.5,100.5C 103.985,100.173 94.6517,100.506 85.5,101.5C 85.4431,102.609 85.1098,103.609 84.5,104.5C 84.8333,107.5 83.5,108.833 80.5,108.5C 78.6943,107.976 77.0276,107.309 75.5,106.5C 78.1009,102.229 81.4342,98.5628 85.5,95.5C 94.5246,95.8315 103.525,95.4982 112.5,94.5C 112.977,93.5224 113.643,92.6891 114.5,92C 111.961,89.6303 109.628,87.1303 107.5,84.5C 108.762,81.5328 110.762,80.8661 113.5,82.5 Z"/></g>
<g><path style="opacity:0.989" fill="#028cd7" d="M 85.5,95.5 C 81.4342,98.5628 78.1009,102.229 75.5,106.5C 71.9395,105.103 68.7728,103.103 66,100.5C 65.5065,98.8659 65.3398,97.1992 65.5,95.5C 66.8333,95.5 68.1667,95.5 69.5,95.5C 69.33,94.1779 69.6634,93.0113 70.5,92C 75.2539,89.8651 79.7539,87.3651 84,84.5C 88.468,86.6046 88.6347,89.1046 84.5,92C 85.3366,93.0113 85.67,94.1779 85.5,95.5 Z"/></g>
<g><path style="opacity:0.012" fill="#01274f" d="M 193.5,83.5 C 194.404,84.209 194.737,85.209 194.5,86.5C 192.585,86.7845 190.919,86.4511 189.5,85.5C 191.483,85.8432 192.817,85.1765 193.5,83.5 Z"/></g>
<g><path style="opacity:1" fill="#009ed5" d="M 9.5,106.5 C 9.5,107.833 9.5,109.167 9.5,110.5C 8.19701,112.142 6.86368,113.809 5.5,115.5C 3.7789,108.747 3.11224,101.747 3.5,94.5C 4.33699,92.1413 5.83699,90.1413 8,88.5C 8.17243,94.6807 8.67243,100.681 9.5,106.5 Z"/></g>
<g><path style="opacity:1" fill="#017be3" d="M 162.5,106.5 C 162.103,105.475 161.437,105.308 160.5,106C 161.252,106.671 161.586,107.504 161.5,108.5C 158.083,114.018 155.916,113.685 155,107.5C 156.481,106.529 157.315,105.196 157.5,103.5C 157.5,102.5 157.5,101.5 157.5,100.5C 151.167,100.5 144.833,100.5 138.5,100.5C 139.833,98.8333 141.167,97.1667 142.5,95.5C 147.167,95.5 151.833,95.5 156.5,95.5C 156.36,93.8762 157.027,92.7096 158.5,92C 155.823,89.4864 156.323,87.6531 160,86.5C 164.454,87.8283 168.621,89.8283 172.5,92.5C 175.849,100.654 173.349,105.654 165,107.5C 164.098,107.257 163.265,106.923 162.5,106.5 Z"/></g>
<g><path style="opacity:0.991" fill="#0380db" d="M 126.5,91.5 C 128.532,92.0478 129.532,93.3812 129.5,95.5C 133.833,95.5 138.167,95.5 142.5,95.5C 141.167,97.1667 139.833,98.8333 138.5,100.5C 135.287,100.19 132.287,100.523 129.5,101.5C 128.969,103.624 127.635,105.124 125.5,106C 123.212,106.822 120.878,107.489 118.5,108C 113.867,113.635 108.867,118.968 103.5,124C 106.859,126.034 107.192,128.368 104.5,131C 102.068,131.148 100.068,130.482 98.5,129C 93.5376,133.452 89.2043,138.285 85.5,143.5C 87.9479,144.473 90.6146,144.806 93.5,144.5C 92.5,145.833 91.5,147.167 90.5,148.5C 88.5853,148.216 86.9187,148.549 85.5,149.5C 81.7914,156.851 76.7914,157.851 70.5,152.5C 69.5159,149.572 69.1826,146.572 69.5,143.5C 72.0892,142.581 74.0892,140.914 75.5,138.5C 75.811,137.522 76.4777,136.855 77.5,136.5C 78.6199,137.833 79.9532,138.333 81.5,138C 92.5481,126.638 103.215,115.138 113.5,103.5C 113.5,102.5 113.5,101.5 113.5,100.5C 117,98.5537 120,95.887 122.5,92.5C 123.736,91.7542 125.07,91.4208 126.5,91.5 Z"/></g>
<g><path style="opacity:0.939" fill="#0088c9" d="M 51.5,95.5 C 54.1667,95.5 56.8333,95.5 59.5,95.5C 59.5,97.5 59.5,99.5 59.5,101.5C 56.8333,101.5 54.1667,101.5 51.5,101.5C 51.5,99.5 51.5,97.5 51.5,95.5 Z"/></g>
<g><path style="opacity:0.031" fill="#00253d" d="M 85.5,101.5 C 94.6517,100.506 103.985,100.173 113.5,100.5C 113.5,101.5 113.5,102.5 113.5,103.5C 104.43,101.569 95.0966,100.903 85.5,101.5 Z"/></g>
<g><path style="opacity:0.031" fill="#00223e" d="M 129.5,101.5 C 132.287,100.523 135.287,100.19 138.5,100.5C 144.833,100.5 151.167,100.5 157.5,100.5C 157.5,101.5 157.5,102.5 157.5,103.5C 148.43,101.569 139.097,100.903 129.5,101.5 Z"/></g>
<g><path style="opacity:0.149" fill="#06294e" d="M 162.5,106.5 C 162.672,107.492 162.338,108.158 161.5,108.5C 161.586,107.504 161.252,106.671 160.5,106C 161.437,105.308 162.103,105.475 162.5,106.5 Z"/></g>
<g><path style="opacity:0.978" fill="#0c6daf" d="M 84.5,104.5 C 88.0013,106.347 88.3347,108.68 85.5,111.5C 83.2671,112.016 81.6004,111.016 80.5,108.5C 83.5,108.833 84.8333,107.5 84.5,104.5 Z"/></g>
<g><path style="opacity:0.978" fill="#0763ba" d="M 148.5,113.5 C 152.955,113.763 154.122,115.763 152,119.5C 149.045,122.44 146.878,121.94 145.5,118C 146.315,116.357 147.315,114.857 148.5,113.5 Z"/></g>
<g><path style="opacity:0.984" fill="#096db4" d="M 91.5,112.5 C 93.8122,114.146 95.8122,116.146 97.5,118.5C 96.5197,119.981 95.353,121.315 94,122.5C 91.9824,120.65 90.1491,118.65 88.5,116.5C 89.5244,115.148 90.5244,113.815 91.5,112.5 Z"/></g>
<g><path style="opacity:0.995" fill="#0666c0" d="M 140.5,121.5 C 142.296,122.793 143.963,124.293 145.5,126C 143.983,127.685 142.316,129.185 140.5,130.5C 139.019,129.52 137.685,128.353 136.5,127C 137.965,125.226 139.298,123.392 140.5,121.5 Z"/></g>
<g><path style="opacity:0.986" fill="#047fcc" d="M 51.5,115.5 C 58.8612,123.862 66.8612,131.528 75.5,138.5C 74.0892,140.914 72.0892,142.581 69.5,143.5C 62.258,134.918 54.5913,126.585 46.5,118.5C 47.062,115.227 48.7287,114.227 51.5,115.5 Z"/></g>
<g><path style="opacity:0.991" fill="#0289c7" d="M 9.5,110.5 C 11.8579,123.243 16.1912,135.243 22.5,146.5C 20.0882,146.694 19.0882,148.027 19.5,150.5C 11.822,140.129 7.15534,128.462 5.5,115.5C 6.86368,113.809 8.19701,112.142 9.5,110.5 Z"/></g>
<g><path style="opacity:0.989" fill="#0364d2" d="M 100.5,193.5 C 102.785,192.521 104.452,190.855 105.5,188.5C 142.937,183.71 169.104,164.044 184,129.5C 185.976,123.265 187.476,116.932 188.5,110.5C 190.5,110.5 192.5,110.5 194.5,110.5C 186.298,155.869 159.631,183.369 114.5,193C 109.845,193.499 105.179,193.666 100.5,193.5 Z"/></g>
<g><path style="opacity:0.977" fill="#0265bd" d="M 132.5,130.5 C 137.793,133.706 137.459,136.706 131.5,139.5C 130.019,138.52 128.685,137.353 127.5,136C 129.373,134.296 131.04,132.463 132.5,130.5 Z"/></g>
<g><path style="opacity:0.989" fill="#0767b9" d="M 116.5,138.5 C 115.833,138.5 115.5,138.833 115.5,139.5C 115.167,139.5 114.833,139.5 114.5,139.5C 113.609,140.11 112.609,140.443 111.5,140.5C 106.193,137.873 106.193,135.206 111.5,132.5C 113.938,133.931 115.604,135.931 116.5,138.5 Z"/></g>
<g><path style="opacity:0.996" fill="#017be5" d="M 113.5,151.5 C 113.5,150.5 113.5,149.5 113.5,148.5C 105.833,148.5 98.1667,148.5 90.5,148.5C 91.5,147.167 92.5,145.833 93.5,144.5C 100.167,144.5 106.833,144.5 113.5,144.5C 113.433,143.041 113.766,141.708 114.5,140.5C 115.167,140.5 115.5,140.167 115.5,139.5C 116.167,139.5 116.5,139.167 116.5,138.5C 118.484,138.617 120.15,137.95 121.5,136.5C 124.086,138.043 126.586,139.709 129,141.5C 131.249,149.089 128.749,154.089 121.5,156.5C 118.432,155.309 115.765,153.642 113.5,151.5 Z"/></g>
<g><path style="opacity:0.298" fill="#004074" d="M 114.5,139.5 C 114.5,139.833 114.5,140.167 114.5,140.5C 113.766,141.708 113.433,143.041 113.5,144.5C 106.833,144.5 100.167,144.5 93.5,144.5C 90.6146,144.806 87.9479,144.473 85.5,143.5C 94.5246,143.832 103.525,143.498 112.5,142.5C 112.137,141.817 111.804,141.15 111.5,140.5C 112.609,140.443 113.609,140.11 114.5,139.5 Z"/></g>
<g><path style="opacity:0.537" fill="#00579d" d="M 85.5,149.5 C 86.9187,148.549 88.5853,148.216 90.5,148.5C 98.1667,148.5 105.833,148.5 113.5,148.5C 113.5,149.5 113.5,150.5 113.5,151.5C 104.43,149.569 95.0966,148.903 85.5,149.5 Z"/></g>
<g><path style="opacity:0.994" fill="#0381cf" d="M 22.5,146.5 C 26.4605,150.397 29.9605,154.731 33,159.5C 38.028,163.699 42.8613,168.032 47.5,172.5C 45.7376,173.262 44.7376,174.596 44.5,176.5C 34.0981,169.766 25.7647,161.099 19.5,150.5C 19.0882,148.027 20.0882,146.694 22.5,146.5 Z"/></g>
<g><path style="opacity:0.993" fill="#0177d0" d="M 47.5,172.5 C 56.3709,177.937 65.7043,182.27 75.5,185.5C 71.7135,184.979 70.0468,186.313 70.5,189.5C 60.9574,186.729 52.2908,182.395 44.5,176.5C 44.7376,174.596 45.7376,173.262 47.5,172.5 Z"/></g>
<g><path style="opacity:0.969" fill="#0075e0" d="M 75.5,185.5 C 85.3787,187.625 95.3787,188.625 105.5,188.5C 104.452,190.855 102.785,192.521 100.5,193.5C 90.1816,194.233 80.1816,192.9 70.5,189.5C 70.0468,186.313 71.7135,184.979 75.5,185.5 Z"/></g>
</svg>
