<svg xmlns="http://www.w3.org/2000/svg" xmlns:xlink="http://www.w3.org/1999/xlink" id="Layer_1" x="0" y="0" version="1.1" viewBox="0 0 278 78" xml:space="preserve" style="enable-background:new 0 0 278 78"><title>wordmark-primary-horiz-orange</title><path d="M237.7,70.9l-1,2.6l1.3,0.2l-0.1,0.5l-1.8-0.1l-1.6,0.1l-0.1-0.5l1.2-0.2l3.7-9.1l0.9-0.2l3.9,9.3l1.2,0.2l-0.1,0.5	l-2.1-0.1l-2,0.1l-0.1-0.5l1.3-0.2l-1-2.6L237.7,70.9L237.7,70.9L237.7,70.9z M239.7,66.5l-0.1-0.8l-1.7,4.5h3.2L239.7,66.5	L239.7,66.5z M251.7,72.3c0,0.6,0.1,0.8,0.2,1h0.8l0.1,0.5l-1.9,0.4l-0.4-1.1l-2.2,1.3c-2,0-2.3-0.7-2.3-2.3v-3.7l-1.1,0.1l-0.1-0.5	l1.8-0.4l0.7-0.1v4.7c0,0.7,0.3,1,1.1,1c0.5,0,1.1-0.4,1.6-0.7l0.3-0.2v-4l-0.9,0.1l-0.1-0.5l1.7-0.4l0.8-0.1V72.3L251.7,72.3z M257.4,68.3c-0.4-0.2-0.7-0.3-1.1-0.3c-0.6,0-1.1,0.3-1.1,0.8c0,0.5,0.4,0.7,1,1l1.1,0.5c1,0.5,1.4,1,1.4,1.8	c0,1.3-1.1,1.7-2.8,2.1c-0.9,0-1.9-0.4-2.3-0.6l-0.3-1.6h1l0.5,1.2c0.4,0.2,0.8,0.4,1.2,0.4c0.8,0,1.2-0.5,1.2-1.1	c0-0.5-0.3-0.8-1.1-1.2l-1.2-0.6c-0.7-0.3-1.2-0.8-1.2-1.6c0-1,1-1.5,2.7-1.9c0.8,0,1.7,0.3,2.1,0.6v1.4h-0.8L257.4,68.3L257.4,68.3	z M259.2,68.4v-0.2l0.5-0.5h1v-0.9l1-0.9h0.4v1.9h2.3v0.6h-2.2v4.1c0,0.4,0.2,0.8,0.8,0.8c0.4,0,0.8-0.2,1.2-0.3l0.2,0.5l-1.7,0.9	c-1.7,0-1.9-0.6-1.9-1.8v-4.2L259.2,68.4L259.2,68.4z M267,74.1l-1.7,0.1l-0.1-0.5l1-0.1v-5.1l-1,0.1l-0.1-0.5l1.8-0.4l0.7-0.1v6	l1.1,0.1l-0.1,0.5L267,74.1L267,74.1z M266.3,64.5l1.1-0.1l0.4,0.1l0.1,0.8l-0.2,0.7l-1.1,0.1l-0.4-0.1l-0.1-0.8L266.3,64.5z M271.3,74.1l-1.7,0.1l-0.1-0.5l1-0.1v-5.1l-1,0.1l-0.1-0.5l1.8-0.4l0.7-0.1l0.1,1.2l2.2-1.4c1.9,0,2.2,0.6,2.2,2.3v3.9l1.1,0.1	l-0.1,0.5l-1.7-0.1l-1.4,0.1l-0.1-0.5l0.8-0.1v-4c0-0.7-0.4-1-1-1c-0.5,0-1,0.3-1.5,0.6l-0.5,0.3v4.2l0.8,0.1l-0.1,0.5L271.3,74.1	L271.3,74.1z M222.9,67.3c1.9,0,2.4,0.5,2.4,2.2v2.8c0,0.6,0.1,0.8,0.2,1h0.8l0.1,0.5l-1.9,0.4l-0.5-1.1l-1.8,1.2	c-1.3,0-2.2-0.7-2.2-1.8c0-0.5,0.2-0.9,0.5-1.3l3.4-1v-0.7c0-0.8-0.1-1.4-0.9-1.4c-0.4,0-0.9,0.1-1.2,0.3l-0.2,1.1h-1.3v-1.1	L222.9,67.3L222.9,67.3z M223.9,70.8l-2.2,0.8c-0.2,0.2-0.3,0.5-0.3,0.8c0,0.7,0.4,1,0.9,1c0.4,0,0.8-0.2,1-0.4l0.6-0.4	C223.9,72.6,223.9,70.8,223.9,70.8z M226.3,68.4v-0.2l0.5-0.5h1v-0.9l1-0.9h0.4v1.9h2.3v0.6h-2.3v4.1c0,0.4,0.2,0.8,0.8,0.8	c0.4,0,0.8-0.2,1.2-0.3l0.2,0.5l-1.7,0.9c-1.7,0-1.9-0.6-1.9-1.8v-4.2L226.3,68.4L226.3,68.4z M186.9,74.2l-2.4-0.1l-2.5,0.1	l-0.1-0.5l1.8-0.2V65l-2.3,0l-0.7,1.8h-0.6v-2.5l4.3,0.1l4.3-0.1v2.5h-0.6l-0.7-1.8l-2.3,0v8.5l1.7,0.2	C186.9,73.7,186.9,74.2,186.9,74.2z M189.5,70.6c0,1.6,0.9,2.7,2.5,2.7c0.6,0,1.3-0.3,1.9-0.6l0.2,0.5c-0.7,0.5-1.7,0.9-2.6,1.1	c-1.8,0-3.4-1.2-3.4-3.4c0-2.1,1.3-3.2,3.4-3.6c2,0,2.6,1.2,2.6,2.6v0.6L189.5,70.6L189.5,70.6L189.5,70.6z M192.5,69.9	c0-1.1-0.2-1.8-1.4-1.8c-0.9,0-1.5,0.8-1.6,2L192.5,69.9z M197.5,73.7l-0.1,0.5l-1.2-0.1l-1.6,0.1l-0.1-0.5l1.1-0.1l2.2-2.6	l-2.2-2.8l-0.9-0.2l0.1-0.5l1.7,0.1l1.4-0.1l0.1,0.5l-0.6,0.2l1.1,1.6l0.1,0.4l1.4-1.9l-0.7-0.2l0.1-0.5l1.2,0.1l1.6-0.1l0.1,0.5	l-1.1,0.2l-2,2.2l2.3,3.1l0.9,0.1l-0.1,0.5l-1.7-0.1l-1.4,0.1l-0.1-0.5l0.6-0.1l-1.3-1.8l-0.1-0.3l-1.6,2.1L197.5,73.7z M206,67.3	c1.9,0,2.4,0.5,2.4,2.2v2.8c0,0.6,0.1,0.8,0.2,1h0.7l0.1,0.5l-1.9,0.4l-0.5-1.1l-1.8,1.2c-1.3,0-2.2-0.7-2.2-1.8	c0-0.5,0.2-0.9,0.5-1.3l3.4-1v-0.7c0-0.8-0.1-1.4-0.9-1.4c-0.4,0-0.9,0.1-1.2,0.3l-0.2,1.1h-1.3v-1.1C203.3,68.5,206,67.3,206,67.3z M206.9,70.8l-2.2,0.8c-0.2,0.2-0.3,0.5-0.3,0.8c0,0.7,0.4,1,0.9,1c0.4,0,0.8-0.2,1-0.4l0.6-0.4C206.9,72.6,206.9,70.8,206.9,70.8z M214,68.3c-0.2-0.1-0.6-0.3-1.1-0.3c-0.6,0-1.1,0.3-1.1,0.8c0,0.5,0.4,0.7,1,1l1.1,0.5c1,0.5,1.4,1,1.4,1.8c0,1.3-1.1,1.7-2.8,2.1	c-0.9,0-1.9-0.4-2.3-0.6l-0.3-1.6h1l0.5,1.2c0.3,0.2,0.8,0.4,1.2,0.4c0.8,0,1.2-0.5,1.2-1.1c0-0.5-0.3-0.8-1.1-1.2l-1.2-0.6	c-0.7-0.3-1.3-0.8-1.3-1.6c0-1,1-1.5,2.7-1.9c0.8,0,1.7,0.3,2.1,0.6v1.4h-0.8L214,68.3L214,68.3z M170.2,70.7c0,2.1-1.4,3.3-3.7,3.6	c-2,0-3.3-1.5-3.3-3.3c0-2.1,1.4-3.3,3.7-3.7C168.8,67.3,170.2,68.8,170.2,70.7z M166.9,73.7c1.2,0,1.8-1.1,1.8-2.7	c0-1.8-0.9-3-2.2-3c-1.2,0-1.8,1.1-1.8,2.7C164.6,72.3,165.5,73.7,166.9,73.7z M173.5,67.7h1.9v0.7h-1.9v5.2l1.7,0.1l-0.1,0.5	l-2.3-0.1l-1.7,0.1l-0.1-0.5l1.1-0.1v-5.2h-1.3v-0.2l0.5-0.5h0.9v-0.1c0-0.8,0.3-1.4,0.8-2l1.3-1.3h1.9v1.1h-1.9l-0.3,0.4	c-0.2,0.3-0.3,0.7-0.3,1.6L173.5,67.7L173.5,67.7z M100.6,64.8l0.1-0.5l1.9,0.1l1.7-0.1l0.1,0.5l-1.3,0.2v5.7c0,1.8-0.8,3-3.8,3.7	c-2.9,0-4-1.5-4-3.7V65L94,64.8l0.1-0.5l2.1,0.1l2-0.1l0.1,0.5L97,65v5.9c0,1.7,0.8,2.7,2.5,2.7c1.6,0,2.4-1,2.4-2.8V65	C102,65,100.6,64.8,100.6,64.8z M106.5,74.1l-1.7,0.1l-0.1-0.5l1-0.1v-5.1l-1,0.1l-0.1-0.5l1.8-0.4l0.7-0.1l0.1,1.2l2.2-1.4	c1.9,0,2.2,0.6,2.2,2.3v3.9l1.1,0.1l-0.1,0.5l-1.7-0.1l-1.4,0.1l-0.1-0.5l0.8-0.1v-4c0-0.7-0.4-1-1-1c-0.5,0-1,0.3-1.6,0.6l-0.4,0.3	v4.2l0.8,0.1l-0.1,0.5L106.5,74.1L106.5,74.1z M115.1,74.1l-1.7,0.1l-0.1-0.5l1-0.1v-5.1l-1,0.1l-0.1-0.5l1.8-0.4l0.8-0.1v6l1.1,0.1	l-0.1,0.5C116.8,74.2,115.1,74.1,115.1,74.1z M114.3,64.5l1.1-0.1l0.4,0.1l0.1,0.8l-0.2,0.7l-1.1,0.1l-0.4-0.1l-0.1-0.8L114.3,64.5z M121.1,73.3l1.8-5.1l-0.7-0.2l0.1-0.5l1.3,0.1l1.3-0.1l0.1,0.5l-1,0.2l-2.4,5.8l-1.1,0.4l-2.6-6.2l-0.9-0.2l0.1-0.5l1.7,0.1	l1.6-0.1l0.1,0.5l-1,0.2l1.6,4.1C121,72.3,121.1,73.3,121.1,73.3z M126.4,70.6c0,1.6,0.9,2.7,2.5,2.7c0.6,0,1.3-0.3,1.9-0.6l0.2,0.5	c-0.7,0.5-1.7,0.9-2.6,1.1c-1.8,0-3.5-1.2-3.5-3.4c0-2.1,1.3-3.2,3.4-3.6c2,0,2.6,1.2,2.6,2.6v0.6L126.4,70.6	C126.4,70.6,126.4,70.6,126.4,70.6z M129.4,69.9c0-1.1-0.2-1.8-1.4-1.8c-0.9,0-1.5,0.8-1.6,2L129.4,69.9z M134.3,69.4l1.7-2h1.2v1.4	h-1.1c-0.4,0.1-1,0.5-1.4,1l-0.3,0.3v3.3l1.6,0.1l-0.1,0.5l-2.2-0.1l-1.7,0.1l-0.1-0.5l1-0.1v-5.1l-1,0.1l-0.1-0.5l1.8-0.4l0.6-0.1	L134.3,69.4L134.3,69.4z M141.9,68.3c-0.2-0.1-0.6-0.3-1.1-0.3c-0.6,0-1.1,0.3-1.1,0.8c0,0.5,0.4,0.7,1,1l1.1,0.5	c1,0.5,1.4,1,1.4,1.8c0,1.3-1.1,1.7-2.8,2.1c-0.9,0-1.9-0.4-2.3-0.6l-0.3-1.6h1l0.5,1.2c0.3,0.2,0.8,0.4,1.2,0.4	c0.8,0,1.2-0.5,1.2-1.1c0-0.5-0.3-0.8-1.1-1.2l-1.2-0.6c-0.7-0.3-1.3-0.8-1.3-1.6c0-1,1-1.5,2.7-1.9c0.8,0,1.7,0.3,2.1,0.6v1.4h-0.8	L141.9,68.3L141.9,68.3z M146,74.1l-1.7,0.1l-0.1-0.5l1-0.1v-5.1l-1,0.1l-0.1-0.5l1.8-0.4l0.7-0.1v6l1.1,0.1l-0.1,0.5L146,74.1	L146,74.1z M145.3,64.5l1.1-0.1l0.4,0.1l0.1,0.8l-0.2,0.7l-1.1,0.1l-0.4-0.1l-0.1-0.8L145.3,64.5L145.3,64.5z M153.5,77.4V76h1.3	l1.5-2.1l-0.6,0.2l-2.5-5.9h-2.3v4.3c0,0.4,0.2,0.8,0.8,0.8c0.4,0,0.9-0.2,1.3-0.4l0.2,0.5l-1.9,1c-1.7,0-1.9-0.6-1.9-1.8v-4.2H148	v-0.2l0.5-0.5h1v-0.9l1-0.9h0.4v1.8h4.7l0.1,0.5l-1,0.2l1.7,4.1l0.1,1l1.9-5.1l-0.7-0.2l0.1-0.5l1.3,0.1l1.3-0.1l0.1,0.5l-1,0.2	l-2.4,5.7l-1.7,3.5L153.5,77.4L153.5,77.4L153.5,77.4z M82,74.1l-1.4,0.1l-0.1-0.5l0.7-0.1v-4c0-0.7-0.4-1-1-1c-0.5,0-1,0.3-1.6,0.6	l-0.4,0.3v4.2l0.8,0.1L79,74.2l-1.4-0.1L76,74.2l-0.1-0.5l0.9-0.1V65L76.3,65l-3-0.1v8.5l1.7,0.2l-0.1,0.5l-2.4-0.1L70,74.2	l-0.1-0.5l1.8-0.2V65L69.4,65l-0.7,1.8h-0.6v-2.5l4.3,0l3.7,0l1.6-0.2h0.5v4.5l2.2-1.3c1.9,0,2.2,0.7,2.2,2.4v3.7l1.1,0.1l-0.1,0.5	L82,74.1L82,74.1z M85.9,70.6c0,1.6,0.9,2.7,2.5,2.7c0.6,0,1.3-0.3,1.9-0.6l0.2,0.5c-0.7,0.5-1.7,0.9-2.6,1.1	c-1.8,0-3.5-1.2-3.5-3.4c0-2.1,1.3-3.2,3.4-3.6c2,0,2.6,1.2,2.6,2.6v0.6L85.9,70.6C85.9,70.6,85.9,70.6,85.9,70.6z M88.9,69.9	c0-1.1-0.2-1.8-1.4-1.8c-0.9,0-1.5,0.8-1.6,2L88.9,69.9z M266.1,25.3c5.5,2.4,10.4,5.9,10.4,13c0,6.6-4.5,13-17.6,15.7	c-6.5,0-10.8-1.8-14.5-4.8l-1.5-9.5h4.9l2.4,6c2.1,2.6,5.9,4.4,9.9,4.4c6,0,9.5-3.8,9.5-8.9c0-4.8-3.1-7.5-7.3-9.3l-8.5-3.7	c-5-2.2-9.2-5.4-9.2-11.6c0-7.6,7-12.1,16.8-14.2c4.4,0,9.3,1.5,12.8,4.1V16h-3.5l-2-6.4c-1.8-1.9-4.1-3.4-8.3-3.4	c-5.6,0-8.8,3-8.8,7.7c0,3.9,2.7,6.2,6.6,7.9L266.1,25.3L266.1,25.3z M218.6,3l18.3,46.7l5.5,0.8l-0.4,2.4l-9.7-0.2l-9.2,0.2	l-0.4-2.4l6-0.9l-4.8-13.1h-17.3l-4.6,13.1l6.1,0.9l-0.4,2.4l-8.4-0.2l-5.7,0.2l-8.2-0.2l-10,0.2l-0.4-2.5l6-0.9L170.1,32l-12,17.5	l5.7,0.8l-0.4,2.5l-8.2-0.2l-7.8,0.2l-0.4-2.5l5.5-0.8l15.1-20.8L153.3,6.8l-5.5-0.8l0.4-2.4l10,0.3l9.9-0.3l0.4,2.4l-6,0.9	l9.9,16.4L183.6,7l-6.1-0.9l0.4-2.4l8.2,0.2l8.2-0.2l0.4,2.4l-5.5,0.8l-14.4,19.8l15.6,22.9l3.4,0.5l3.4-0.5l17.4-45.4L218.6,3	L218.6,3z M207.7,33h14.9L215,12L207.7,33L207.7,33z M137.2,49.3l4.7-9.5h2.7l-2.4,13l-27.8-0.2l-9.7,0.2l-0.4-2.4l6.3-0.9V7	l-6.3-0.9l0.4-2.4l9.7,0.2l27.8-0.2l0.7,12.6h-2.4l-3.9-9.1L118,6.9v18.7l9.8-0.3l2.8-7.3h2.5l-0.7,8.8l0.7,9.5h-2.5l-2.8-7.3	l-9.8-0.3v21L137.2,49.3L137.2,49.3z M60.2,3.6l20.1,0.2l20.2-0.2V16h-2.7l-3.2-8.9L84,7v42.5l8.1,0.9l-0.4,2.4l-11.4-0.2l-11.8,0.2	l-0.4-2.4l8.4-0.9V7L66.1,7.1L62.9,16h-2.7L60.2,3.6L60.2,3.6z M47.3,1.7v20c0,7.4-0.7,16.9-6.5,25.3c-1.2,1.7-2.6,3.4-4.1,4.9l0,0	c-3.1,3-7.2,5.8-13.1,9.1c-5.9-3.3-10-6.1-13.1-9.1l0,0c-1.6-1.5-3-3.1-4.1-4.9C0.7,38.7,0,29.1,0,21.7v-20l0.9-0.1	C1.1,1.6,13.8,0,23.7,0c9.9,0,22.6,1.6,22.7,1.6C46.4,1.6,47.3,1.7,47.3,1.7z M39.1,45.8c5.3-7.8,6-16.9,6-24l-21.5-1.2L2.2,21.8	c0,7.1,0.7,16.2,6.1,24c1.1,1.7,2.5,3.2,3.9,4.6c4.7,4.3,10,6.7,11.5,7.3c1.5-0.6,6.8-3,11.5-7.3C36.7,48.9,38,47.4,39.1,45.8	L39.1,45.8z M3.3,3.5L2.2,19.3h42.9L44,3.5c-4-0.4-13-1.3-20.4-1.3C16.3,2.2,7.3,3.1,3.3,3.5L3.3,3.5z M39,34.3l-0.6,0.1	c-0.1,0.4-0.1,0.8-0.3,1.2c0.7-0.4,1.5-0.7,2.4-0.8l0.6-0.1v0.6c0,1.3-0.4,2.6-1.3,3.6c-0.9,1-2.1,1.6-3.4,1.7l-0.5,0.1	c-0.1,0.4-0.3,0.8-0.5,1.1c0.6-0.2,1.2-0.3,1.8-0.3c0.2,0,0.4,0,0.7,0l0.6,0.1l-0.1,0.6c-0.3,1.3-1,2.4-2.1,3.2c-0.9,0.6-1.9,1-3,1	c-0.2,0-0.4,0-0.7,0l-0.5-0.1c-0.2,0.4-0.5,0.7-0.8,1c0.8-0.1,1.7-0.1,2.5,0.2l0.5,0.2l-0.2,0.5c-0.5,1.2-1.5,2.2-2.7,2.7	c-0.7,0.3-1.4,0.5-2.1,0.5c-0.6,0-1.2-0.1-1.7-0.3L27.1,51c-0.7,0.6-1.4,1.1-2.5,1.9c0.5,0.3,1,0.7,1.6,1.1l-1,0.6	c-0.6-0.4-1.1-0.7-1.5-1c-0.5,0.3-1,0.7-1.5,1l-1-0.6c0.6-0.4,1.1-0.7,1.6-1.1c-1.1-0.7-1.8-1.3-2.5-1.9l-0.4,0.1	c-0.5,0.2-1.1,0.3-1.7,0.3c-0.7,0-1.4-0.2-2.1-0.5c-1.2-0.5-2.2-1.5-2.7-2.7L13,47.7l0.5-0.2c0.8-0.3,1.6-0.3,2.5-0.2	c-0.3-0.3-0.5-0.6-0.8-1l-0.5,0.1c-0.2,0-0.4,0-0.6,0c-1.1,0-2.2-0.3-3-1C10,44.6,9.3,43.5,9,42.2l-0.1-0.6l0.6-0.1	c0.2,0,0.4,0,0.6,0c0.6,0,1.2,0.1,1.8,0.3c-0.2-0.3-0.4-0.7-0.5-1.1l-0.5-0.1C9.6,40.6,8.4,40,7.5,39c-0.9-1-1.4-2.2-1.3-3.6v-0.6	l0.6,0.1c0.8,0.1,1.7,0.3,2.4,0.8c-0.1-0.4-0.2-0.8-0.3-1.2l-0.5-0.1C7,33.9,6,33.1,5.3,32c-0.7-1.1-0.9-2.5-0.6-3.8l0.1-0.6	l0.6,0.2c0.6,0.2,1.2,0.5,1.7,0.9c-0.1-0.6-0.1-1.3,0-1.9c0.2-1.3,1-2.4,2-3.2l0.4-0.4l0.3,0.5c0.7,1.1,0.9,2.4,0.7,3.7	c-0.3,1.3-1,2.4-2,3.2C8.8,31,9,31.5,9,32c0.3-0.9,0.8-1.6,1.6-2.2l0.5-0.4l0.4,0.5c0.8,1.1,1.1,2.4,0.9,3.7	c-0.2,1.3-0.8,2.5-1.8,3.3l0,0c0.3,0.4,0.5,0.9,0.7,1.3c0.1-0.9,0.5-1.8,1.1-2.5l0.4-0.5l0.4,0.4c1,0.9,1.6,2.1,1.7,3.4	c0.1,1.3-0.3,2.6-1.1,3.7l0,0c0.4,0.3,0.7,0.7,1,1.1c-0.1-0.9,0.1-1.8,0.5-2.7l0.3-0.5l0.5,0.3c1.1,0.7,2,1.7,2.4,3	c0.4,1.3,0.2,2.6-0.4,3.8l0,0c0.5,0.2,0.8,0.6,1.2,0.9c-0.2-0.9-0.3-1.8,0-2.7l0.1-0.6l0.5,0.2c1.3,0.4,2.3,1.3,2.9,2.5	c0.6,1.1,0.8,2.4,0.5,3.7c0.2,0.1,0.3,0.2,0.5,0.4c0.2-0.1,0.4-0.2,0.5-0.4c-0.3-1.2-0.1-2.5,0.5-3.7c0.6-1.2,1.7-2,2.9-2.5l0.5-0.2	l0.1,0.6c0.2,0.9,0.2,1.8,0,2.7c0.3-0.4,0.7-0.7,1.2-0.9v0c-0.6-1.2-0.7-2.5-0.4-3.8c0.4-1.3,1.2-2.3,2.4-3l0.5-0.3l0.3,0.5	c0.4,0.8,0.6,1.8,0.5,2.7c0.3-0.4,0.6-0.8,1-1.1l0,0c-0.8-1-1.2-2.3-1.1-3.6c0.1-1.3,0.7-2.5,1.7-3.4l0.4-0.4l0.4,0.5	c0.6,0.8,0.9,1.6,1.1,2.5c0.2-0.5,0.4-0.9,0.7-1.3l0,0c-1-0.8-1.7-2-1.8-3.3c-0.2-1.3,0.2-2.6,0.9-3.7l0.4-0.5l0.5,0.4	c0.7,0.6,1.3,1.4,1.6,2.2c0.1-0.5,0.2-0.9,0.4-1.4c-1.1-0.8-1.8-1.9-2-3.2c-0.2-1.3,0-2.6,0.7-3.7l0.3-0.5l0.5,0.4	c1.1,0.8,1.8,1.9,2,3.2c0.1,0.6,0.1,1.3,0,1.9c0.5-0.4,1.1-0.7,1.7-0.9l0.6-0.2l0.1,0.6c0.3,1.3,0.1,2.6-0.6,3.8	C41.3,33.1,40.2,34,39,34.3L39,34.3z M38.9,38.3c0.6-0.6,0.9-1.4,1-2.2c-0.8,0.2-1.5,0.6-2.1,1.2c-0.6,0.6-0.9,1.4-1,2.2	C37.7,39.3,38.4,38.9,38.9,38.3L38.9,38.3z M36,33.5c0.1,0.8,0.5,1.6,1,2.2c0.4-0.7,0.5-1.6,0.4-2.4c-0.1-0.8-0.5-1.6-1-2.2	C36,31.8,35.9,32.7,36,33.5L36,33.5z M37.6,27.2c0.2,0.8,0.6,1.6,1.1,2.1c0.3-0.8,0.4-1.6,0.3-2.4c-0.2-0.8-0.6-1.6-1.1-2.1	C37.5,25.6,37.4,26.4,37.6,27.2z M41.6,29.1c-0.7,0.3-1.4,0.9-1.8,1.6c-0.4,0.7-0.6,1.5-0.5,2.4c0.7-0.4,1.4-0.9,1.8-1.6	C41.4,30.7,41.6,29.9,41.6,29.1z M35.5,44.5c0.7-0.5,1.2-1.2,1.4-1.9c-0.8,0-1.6,0.3-2.3,0.8c-0.7,0.5-1.2,1.1-1.4,1.9	C34.1,45.3,34.8,45,35.5,44.5L35.5,44.5z M33.6,39.2c-0.1,0.8,0.1,1.6,0.5,2.4c0.5-0.7,0.8-1.4,0.9-2.2c0.1-0.8-0.1-1.6-0.5-2.4	C34,37.6,33.6,38.4,33.6,39.2z M31.4,44.8c0.2-0.8,0.2-1.6,0-2.4c-0.6,0.5-1.1,1.2-1.3,2c-0.2,0.8-0.2,1.6,0,2.4	C30.7,46.3,31.2,45.6,31.4,44.8z M32.7,48.4c-0.8-0.1-1.6,0-2.4,0.3c-0.8,0.3-1.4,0.9-1.8,1.6c0.2,0,0.5,0.1,0.7,0.1	c0.6,0,1.1-0.1,1.7-0.4C31.6,49.6,32.3,49.1,32.7,48.4z M25.6,48.7c-0.4,0.7-0.6,1.5-0.5,2.4c0.7-0.4,1.3-1,1.7-1.7	c0.4-0.7,0.5-1.5,0.5-2.4C26.6,47.4,26,48,25.6,48.7z M16.4,50c0.7,0.3,1.6,0.4,2.4,0.3c-0.4-0.7-1.1-1.3-1.8-1.6	c-0.8-0.4-1.6-0.4-2.4-0.3C15,49.1,15.6,49.6,16.4,50L16.4,50z M15.8,44.8c0.2,0.8,0.7,1.5,1.3,2c0.2-0.8,0.3-1.6,0-2.4	c-0.2-0.8-0.7-1.5-1.3-2C15.6,43.2,15.6,44,15.8,44.8z M20,47c-0.1,0.8,0.1,1.6,0.5,2.3c0.4,0.7,1,1.3,1.7,1.7	c0.1-0.8-0.1-1.6-0.5-2.4C21.3,48,20.7,47.4,20,47z M11.7,44.5c0.7,0.5,1.4,0.7,2.2,0.8c-0.3-0.8-0.8-1.4-1.4-1.9	c-0.7-0.5-1.5-0.8-2.3-0.8C10.6,43.4,11.1,44.1,11.7,44.5z M12.8,37c-0.4,0.7-0.6,1.5-0.5,2.4c0.1,0.8,0.4,1.6,0.9,2.2	c0.4-0.7,0.6-1.5,0.5-2.4C13.6,38.4,13.3,37.7,12.8,37z M8.3,38.3c0.5,0.6,1.3,1,2.1,1.2c-0.1-0.8-0.5-1.6-1-2.2	c-0.6-0.6-1.3-1-2.1-1.2C7.4,36.9,7.8,37.6,8.3,38.3z M8,33c0.1-0.8-0.1-1.7-0.5-2.4c-0.4-0.7-1-1.3-1.8-1.6	c-0.1,0.8,0.1,1.6,0.5,2.4C6.7,32.1,7.3,32.7,8,33z M8.2,27c-0.1,0.8-0.1,1.7,0.3,2.4c0.6-0.6,1-1.3,1.1-2.1c0.1-0.8,0-1.6-0.3-2.4	C8.8,25.4,8.4,26.2,8.2,27z M9.9,33.3c-0.1,0.8,0,1.7,0.4,2.4c0.5-0.6,0.9-1.4,1-2.2c0.1-0.8,0-1.7-0.4-2.4	C10.4,31.7,10,32.5,9.9,33.3z M13.6,29.1C13.6,29.1,13.6,29.1,13.6,29.1c0-0.1,0-0.1,0-0.1h7.6l2.4-7.2c0,0,0-0.1,0.1-0.1	c0,0,0.1,0,0.1,0.1l2.4,7.2h7.6c0,0,0.1,0,0.1,0c0,0.1,0,0.1,0,0.1l-6.2,4.5l2.4,7.3c0,0,0,0,0,0.1h0l-6.2-4.5l-6.2,4.5h0	c0,0,0,0,0,0l2.4-7.3L13.6,29.1L13.6,29.1z M22.3,30.4l-3.8,0.3l3,2.4l-1,3.7l3.2-2l3.2,2l-0.9-3.7l2.9-2.4l-3.8-0.2l-1.4-3.6	L22.3,30.4z M35.8,10.2L35.8,10.2l-1,0v2.2h1V14h-1v3h-0.7c-1.5,0-3-0.2-4.5-0.5c-1.2-0.2-2.4-0.4-3.4-0.4c-0.8,0-1.4,0.1-1.9,0.4	H23c-0.5-0.2-1.1-0.4-1.9-0.4c-1,0-2.1,0.2-3.4,0.4c-1.4,0.2-3,0.5-4.5,0.5h-0.7v-3h-1v-1.6h1v-2.2h-1V8.5h1V5.7h0.7	c1.4,0,2.9-0.2,4.3-0.4C18.8,5.2,20,5,21.1,5c1,0,1.9,0.2,2.6,0.5C24.4,5.2,25.3,5,26.3,5c1.1,0,2.3,0.2,3.5,0.4	c1.4,0.2,2.8,0.4,4.3,0.4h0.7v2.8h1C35.8,8.6,35.8,10.2,35.8,10.2z M17.5,15.2c1.3-0.2,2.5-0.4,3.6-0.4c0.6,0,1.1,0.1,1.6,0.2	L23,7.8V6.6c-0.5-0.2-1.1-0.3-1.9-0.3c-1,0-2.1,0.2-3.4,0.4C16.6,6.8,15.5,7,14.4,7l-0.3,8.6C15.2,15.6,16.4,15.4,17.5,15.2z M29.8,15.2c1.1,0.2,2.3,0.4,3.4,0.4L32.9,7c-1.1-0.1-2.2-0.2-3.3-0.4c-1.2-0.2-2.4-0.4-3.4-0.4c-0.8,0-1.4,0.1-1.9,0.3v1.2l0.2,7.2	c0.5-0.1,1-0.2,1.6-0.2C27.3,14.9,28.5,15,29.8,15.2L29.8,15.2z M16.7,10.5L16.7,10.5l0,1.1l-1.3,0.2l0-1.1	C15.5,10.7,16.7,10.5,16.7,10.5z M18.5,7.8c1.1-0.2,2.2-0.3,3.2-0.2l0,1.1c-0.9-0.1-2,0-3.1,0.2C18.5,8.9,18.5,7.8,18.5,7.8z M17.7,12.9L17.7,12.9l0.1,1.1h-0.1c-0.8,0.1-1.5,0.2-2.3,0.3l0-1.1c0.7-0.1,1.4-0.2,2.1-0.3C17.6,12.9,17.6,12.9,17.7,12.9z M18.5,12.8c1.1-0.1,2.1-0.2,3-0.2l0,1.1c-0.9-0.1-1.9,0.1-3,0.2V12.8z M17.6,10.4c1.4-0.2,2.8-0.4,4.1-0.3l0,1.1	c-1.1-0.1-2.4,0.1-3.9,0.3c-0.1,0-0.1,0-0.1,0V10.4z M28.3,7.8v1.1c-1-0.1-1.9-0.2-2.7-0.1l0-1.1C26.5,7.6,27.4,7.6,28.3,7.8z M31.8,8.2l0,1.1c-0.7-0.1-1.4-0.2-2.1-0.3c-0.2,0-0.4-0.1-0.5-0.1V7.8c0.2,0.1,0.5,0.1,0.7,0.1C30.5,8.1,31.1,8.1,31.8,8.2z M28.1,10.2v1.1c-0.8-0.1-1.6-0.2-2.3-0.1l0-1.1C26.5,10.1,27.2,10.1,28.1,10.2z M31.9,10.7l0,1.1c-0.8-0.1-1.5-0.2-2.2-0.3	c-0.2,0-0.5-0.1-0.8-0.1v-1.1c0.3,0.1,0.6,0.1,0.9,0.1C30.5,10.5,31.2,10.6,31.9,10.7L31.9,10.7z M29.7,14L29.7,14l0-1.1	c0.1,0,0.1,0,0.1,0c0.7,0.1,1.4,0.2,2.1,0.3l0,1.1C31.2,14.2,30.5,14.1,29.7,14z M28.9,12.8v1.1c-1.1-0.2-2.2-0.3-3.1-0.2l0-1.1	C26.8,12.5,27.8,12.6,28.9,12.8z M17.7,7.9V9h-0.1c-0.7,0.1-1.4,0.2-2.1,0.3l0-1.1c0.7-0.1,1.3-0.2,2-0.3	C17.6,7.9,17.6,7.9,17.7,7.9z"/></svg>