<svg xmlns="http://www.w3.org/2000/svg" xmlns:xlink="http://www.w3.org/1999/xlink" id="Layer_1" viewBox="0 0 626 265"><style>.st0{opacity:.8}.st1{clip-path:url(#SVGID_3_)}.st2{clip-path:url(#SVGID_4_)}.st3{fill:#647881}.st4{clip-path:url(#SVGID_7_)}.st5{clip-path:url(#SVGID_8_)}.st6,.st7{fill:#647881}.st6{fill-rule:evenodd;clip-rule:evenodd}.st7{opacity:.8}.st8{clip-path:url(#SVGID_11_)}.st9{clip-path:url(#SVGID_12_)}</style><g class="st0"><defs><path id="SVGID_1_" d="M494.7 248.4h126.5v1H494.7z"/></defs><defs><path id="SVGID_2_" d="M493.7 247.4h128.5v3H493.7z"/></defs><use fill="#647881" overflow="visible" xlink:href="#SVGID_1_"/><use fill="#647881" overflow="visible" xlink:href="#SVGID_2_"/><clipPath id="SVGID_3_"><use overflow="visible" xlink:href="#SVGID_1_"/></clipPath><clipPath id="SVGID_4_" class="st1"><use overflow="visible" xlink:href="#SVGID_2_"/></clipPath><g class="st2"><path d="M494.7 248.4h126.5v1H494.7z" class="st3"/><path d="M493.7 247.4h128.5v3H493.7z" class="st3"/></g></g><g class="st0"><defs><path id="SVGID_5_" d="M4.8 248.4h126.5v1H4.8z"/></defs><defs><path id="SVGID_6_" d="M3.8 247.4h128.5v3H3.8z"/></defs><use fill="#647881" overflow="visible" xlink:href="#SVGID_5_"/><use fill="#647881" overflow="visible" xlink:href="#SVGID_6_"/><clipPath id="SVGID_7_"><use overflow="visible" xlink:href="#SVGID_5_"/></clipPath><clipPath id="SVGID_8_" class="st4"><use overflow="visible" xlink:href="#SVGID_6_"/></clipPath><g class="st5"><path d="M4.8 248.4h126.5v1H4.8z" class="st3"/><path d="M3.8 247.4h128.5v3H3.8z" class="st3"/></g></g><path d="M177.9 180.5c1.1-.3 2.4-.6 4.1-.9 1.7-.3 3.4-.4 5.2-.4 1.9 0 3.4.2 4.6.7 1.2.5 2.2 1.2 2.9 2.1.7.9 1.2 1.9 1.5 3.2.3 1.2.5 2.6.5 4.1v12.4h-6.2V190c0-2-.3-3.4-.8-4.2-.5-.8-1.5-1.2-3-1.2-.4 0-.9 0-1.4.1-.5 0-.9.1-1.3.1v16.9h-6.2v-21.2zm-11.5 10.2c0-1.9-.4-3.4-1.1-4.5-.8-1.1-1.9-1.6-3.3-1.6s-2.5.5-3.3 1.6c-.8 1.1-1.2 2.6-1.2 4.5s.4 3.4 1.2 4.6c.8 1.1 1.9 1.7 3.3 1.7s2.5-.6 3.3-1.7c.8-1.2 1.1-2.7 1.1-4.6m6.4 0c0 1.7-.2 3.3-.7 4.7-.5 1.4-1.2 2.6-2.2 3.7-.9 1-2.1 1.8-3.4 2.4-1.3.6-2.8.8-4.4.8-1.6 0-3.1-.3-4.4-.8-1.3-.6-2.4-1.3-3.4-2.4-.9-1-1.7-2.2-2.2-3.7-.5-1.4-.8-3-.8-4.7 0-1.7.3-3.3.8-4.7.5-1.4 1.3-2.6 2.2-3.6 1-1 2.1-1.8 3.4-2.3 1.3-.6 2.8-.8 4.3-.8 1.6 0 3 .3 4.3.8 1.3.6 2.4 1.3 3.4 2.3.9 1 1.7 2.2 2.2 3.6.6 1.4.9 2.9.9 4.7m-33.7 11.5c-4.7 0-8.3-1.3-10.7-3.9-2.5-2.6-3.7-6.3-3.7-11.1 0-2.4.4-4.5 1.1-6.4.7-1.9 1.8-3.5 3.1-4.7 1.3-1.3 2.9-2.3 4.7-2.9 1.8-.7 3.8-1 5.9-1 1.2 0 2.3.1 3.3.3 1 .2 1.9.4 2.6.6.7.2 1.4.5 1.9.7.5.2.9.4 1.1.6l-1.9 5.2c-.9-.5-1.9-.9-3.1-1.2-1.2-.3-2.5-.5-4-.5-1 0-2 .2-2.9.5-1 .3-1.8.9-2.5 1.6-.7.7-1.3 1.7-1.8 2.8-.4 1.2-.7 2.6-.7 4.2 0 1.3.1 2.6.4 3.7.3 1.2.8 2.1 1.4 3 .7.8 1.5 1.5 2.6 2s2.3.7 3.8.7c.9 0 1.8-.1 2.5-.2.8-.1 1.4-.2 2-.4.6-.2 1.1-.3 1.5-.5.4-.2.8-.4 1.2-.5l1.8 5.2c-.9.6-2.2 1.1-3.9 1.5-1.6.5-3.5.7-5.7.7m-24.7-13.7c0-.5-.1-1-.3-1.5-.2-.5-.4-.9-.7-1.3-.3-.4-.7-.7-1.2-1-.5-.2-1.1-.4-1.8-.4s-1.3.1-1.8.4c-.5.2-.9.5-1.2.9-.3.4-.6.8-.8 1.4-.2.5-.3 1-.4 1.6h8.2zm-14.5 2.4c0-1.9.3-3.6.9-5.1.6-1.5 1.4-2.7 2.4-3.6 1-1 2.1-1.7 3.3-2.2 1.3-.5 2.6-.7 3.9-.7 3.1 0 5.6.9 7.4 2.8 1.8 1.9 2.7 4.7 2.7 8.4v1.2c0 .4-.1.8-.1 1.1h-14.1c.1 1.3.7 2.3 1.8 3 1.1.7 2.5 1.1 4.2 1.1 1.1 0 2.3-.1 3.3-.3 1.1-.2 2-.5 2.7-.8l.8 5c-.3.2-.8.3-1.3.5-.6.2-1.2.3-1.9.4-.7.1-1.4.2-2.2.3-.8.1-1.6.1-2.3.1-2 0-3.7-.3-5.1-.9-1.5-.6-2.7-1.4-3.6-2.4-1-1-1.7-2.2-2.1-3.6-.5-1.2-.7-2.7-.7-4.3m-4.1-.2c0 1.7-.3 3.3-.8 4.7-.5 1.4-1.3 2.6-2.2 3.6-1 1-2.2 1.8-3.6 2.3-1.4.5-3 .8-4.8.8-.7 0-1.5 0-2.4-.1l-2.4-.3c-.8-.1-1.5-.2-2.3-.4-.7-.2-1.4-.3-1.9-.5v-30.6l6.2-1v10.9c.7-.3 1.4-.5 2.2-.7.7-.2 1.6-.2 2.4-.2 1.6 0 2.9.3 4.1.8 1.2.5 2.2 1.3 3 2.3.8 1 1.4 2.2 1.8 3.6.5 1.5.7 3.1.7 4.8m-6.3-.2c0-4-1.5-6-4.4-6-.6 0-1.3.1-1.9.2-.6.2-1.1.4-1.5.6v11.3c.3.1.7.1 1.2.1s1 .1 1.5.1c1.7 0 3-.6 3.8-1.7.8-1.1 1.3-2.7 1.3-4.6m-20.2 10.4c-1.1.3-2.4.6-4.1.9-1.7.3-3.4.4-5.2.4-1.9 0-3.4-.2-4.6-.7-1.2-.5-2.2-1.2-2.9-2.1-.7-.9-1.2-2-1.5-3.2-.3-1.2-.5-2.6-.5-4.1v-12.2h6.2v11.4c0 2 .3 3.4.8 4.3.5.9 1.5 1.3 3 1.3.4 0 .9 0 1.4-.1.5 0 .9-.1 1.3-.1v-16.9h6.2v21.1zm-28.6.7c-.6-.9-1.3-2-2.1-3.1s-1.6-2.2-2.6-3.3c-.9-1.1-1.9-2.1-2.9-3.2-1-1-2-1.9-3-2.7v12.2h-6.5v-28.8h6.5v10.9c1.7-1.8 3.4-3.6 5.1-5.6 1.7-1.9 3.3-3.7 4.8-5.3h7.7c-2 2.3-3.9 4.6-5.9 6.7-2 2.2-4.1 4.3-6.3 6.5 2.3 1.9 4.5 4.2 6.7 6.8 2.1 2.6 4.2 5.5 6.2 8.7h-7.7z" class="st3"/><path d="M92.7 74.4l-3.6.8c0-.5-.1-1-.1-1.5 0-3.8 1-7.5 3-10.8l7 6.2c.1.1.2.2.4.3-.4 1-.7 2.1-.8 3.3-.2.1-.5.1-.7.2l-5.2 1.5zm13.6-21.2V63c-1 .3-1.9.8-2.7 1.4-.3-.2-.6-.5-.9-.7l-7.1-5c2.9-2.9 6.6-4.8 10.7-5.5M57.6 75.8c3.4-14.9 6.3-27.5 9.7-42.4 1.5-6.7 2.5-8.5 8.6-12 8.4-4.8 14.7-8.4 23.7-13.6 5.6-3.2 6.7-3 6.7 3.9v34.6c-6.3.8-12.1 3.7-16.4 8.3l-3-2.1c-.4-.3-.6-.5-.7-1-.4-1.1-.7-1.6-1.6-2.4-1.4-1.1-3.5-.9-4.6.5-1.1 1.4-.9 3.5.5 4.6.5.4 1 .7 1.6.8.4.1.8.1 1.2.2.4.1.6.2.9.4l2.8 2.5c-3.1 4.6-4.7 9.9-4.7 15.4 0 1 .1 2 .2 3l-6.1 1.3c-.4 0-.8 0-1.3.1l-.9.3c-4 .8-8 1.7-12.1 2.6-5.5 1.4-5.7.3-4.5-5M113.4 63v-9.8c4 .7 7.7 2.6 10.7 5.4l-7.7 5.5c-.1.1-.2.2-.3.2-.9-.5-1.8-1-2.7-1.3m17.1 11.5l-9.6-2.2c-.1-1.1-.4-2.1-.8-3 .1-.1.2-.2.3-.2l7.1-6.3c2 3.3 3.1 7 3.1 10.9 0 .3 0 .5-.1.8M118 21.6c5.2 2.5 8.9 4.3 14.1 6.8 7.2 3.5 14.4 7 21.7 10.4 1.8 7.8 3.6 15.6 5.3 23.4 1.1 4.7 1.6 7.2 2.7 11.8 1.7 7.3 1.5 7.9-6 6.2L137.3 76c.1-.8.1-1.6.1-2.4 0-5.6-1.6-10.9-4.8-15.5l2.6-2.4c.4-.3.6-.4 1.1-.5 1.1-.2 1.8-.3 2.7-1 1.4-1.1 1.7-3.2.5-4.6-1.1-1.4-3.2-1.7-4.6-.5-.5.4-.9.8-1.2 1.4-.2.4-.3.7-.5 1.1-.1.3-.3.6-.6.8l-3 2.1c-4.4-4.6-10.1-7.5-16.4-8.3V25.1c.2-4.9.6-5.5 4.8-3.5m-6.3 63.1c-.6.1-1.2.2-1.9.2-.6 0-1.2 0-1.8-.1l-.3.6-4.4 8.1c2.1.7 4.3 1.1 6.6 1.1s4.5-.4 6.7-1.1l-4.4-8c-.2-.4-.4-.6-.5-.8m7.8-5.4l9.6 2.2c-1.6 3.9-4.3 7.2-7.8 9.5l-3.8-9.2c.8-.8 1.4-1.6 2-2.5m-28.9 2.2l9.6-2.2c.6 1 1.3 1.8 2.1 2.6l-.3.6-3.6 8.5c-3.5-2.3-6.2-5.6-7.8-9.5m78.5 16.8c-4.6 5.7-6.7 8.4-11.3 14.1-5.2 6.5-9.4 11.8-14.6 18.3-3.7 4.7-6.4 4.8-12.5 4.8H88.8c-8 0-8.6 0-13.5-6.2-4.9-6.1-8.7-10.9-13.5-17-3.8-4.8-4.8-6-8.6-10.8-5.9-7.4-6.9-10.1 2.3-12.1L83.8 83c2.2 6 6.4 11.1 11.9 14.4l-1.3 3c-.2.4-.4.7-.8.9-.9.6-1.5 1-2 2.1-.8 1.6-.1 3.6 1.5 4.4 1.6.8 3.6.1 4.4-1.5.3-.6.4-1.1.5-1.8 0-.4 0-.8-.1-1.2 0-.4 0-.6.2-1l1.6-2.9c3.2 1.2 6.5 1.8 9.9 1.8 3.4 0 6.8-.6 10-1.9l1.6 2.9c.2.4.3.7.2 1.2-.1 1.1-.1 1.8.4 2.8.8 1.6 2.8 2.3 4.4 1.5 1.6-.8 2.3-2.8 1.5-4.4-.3-.6-.6-1.1-1.1-1.5-.3-.3-.7-.5-1-.7-.3-.2-.5-.4-.6-.8l-1.3-3.2c5.5-3.3 9.7-8.4 11.8-14.4l31.3 7.1c6.4 1.7 6 4 2.3 8.5" class="st6"/><path d="M113.4 63v-9.8c4 .7 7.7 2.6 10.7 5.4l-7.7 5.5c-.1.1-.2.2-.3.2-.9-.5-1.8-1-2.7-1.3m17.1 11.5l-9.6-2.2c-.1-1.1-.4-2.1-.8-3 .1-.1.2-.2.3-.2l7.1-6.3c2 3.3 3.1 7 3.1 10.9 0 .3 0 .5-.1.8M118 21.6c5.2 2.5 8.9 4.3 14.1 6.8 7.2 3.5 14.4 7 21.7 10.4 1.8 7.8 3.6 15.6 5.3 23.4 1.1 4.7 1.6 7.2 2.7 11.8 1.7 7.3 1.5 7.9-6 6.2L137.3 76c.1-.8.1-1.6.1-2.4 0-5.6-1.6-10.9-4.8-15.5l2.6-2.4c.4-.3.6-.4 1.1-.5 1.1-.2 1.8-.3 2.7-1 1.4-1.1 1.7-3.2.5-4.6-1.1-1.4-3.2-1.7-4.6-.5-.5.4-.9.8-1.2 1.4-.2.4-.3.7-.5 1.1-.1.3-.3.6-.6.8l-3 2.1c-4.4-4.6-10.1-7.5-16.4-8.3V25.1c.2-4.9.6-5.5 4.8-3.5m1.5 57.7l9.6 2.2c-1.6 3.9-4.3 7.2-7.8 9.5l-3.8-9.2c.8-.8 1.4-1.6 2-2.5m-9.7 15.1v-9.6c.6 0 1.3-.1 1.9-.2.1.2.2.5.4.7l4.4 8c-2.2.7-4.4 1.1-6.7 1.1m59.3 3.9c-4.6 5.7-6.7 8.4-11.3 14.1-5.2 6.5-9.4 11.8-14.6 18.3-3.7 4.7-6.4 4.8-12.5 4.8h-20.9v-34.3c3.4 0 6.8-.6 10-1.9l1.6 2.9c.2.4.3.7.2 1.2-.1 1.1-.1 1.8.4 2.8.8 1.6 2.8 2.3 4.4 1.5 1.6-.8 2.3-2.8 1.5-4.4-.3-.6-.6-1.1-1.1-1.5-.3-.3-.7-.5-1-.7-.3-.2-.5-.4-.6-.8l-1.3-3.2c5.5-3.3 9.7-8.4 11.8-14.4l31.3 7.1c6.2 1.7 5.8 4 2.1 8.5" class="st6"/><path d="M401.2 97.1h-16.7v38.8h38.8v-16.6h-22.1zM484.3 97.2v22.1h-22.1l-.1-.1v16.7h38.8V97.1h-16.7zM384.5 58.3h16.8l-.1-.1v-22h22l.1.1V19.5h-38.8zM462.1 19.5v16.7h22.2v22.1h16.6V19.5z" class="st3"/><path d="M460.1 58.3l-22.2-22.1h24.2V19.5h-38.8v16.8l22.1 22zM440.1 97.1h-14.7l18.3 18.4 3.8 3.8h-24.2v16.6h38.8v-16.7l-11-11.1zM484.3 58.3v24.2l-3.8-3.8-18.4-18.3v14.7l11 11 11.1 11h16.7V58.3zM423.3 80.4l-22-22.1h-16.8v38.8h16.7V72.9l22.1 22.2z" class="st7"/><path d="M303.4 178.2l-4.2 5c-1.9-2.3-4.7-3.7-7.2-3.7-4.5 0-8 3.6-8 8.3 0 4.8 3.4 8.4 8 8.4 2.4 0 5.2-1.3 7.2-3.4l4.3 4.5c-3.1 3.1-7.6 5.2-11.8 5.2-8.6 0-15-6.3-15-14.7 0-8.3 6.6-14.5 15.3-14.5 4.1.1 8.5 2 11.4 4.9zM306.9 202.3V172h7.1v30.3h-7.1zM342.1 191.2c0 6.8-4.8 11.3-12 11.3S318 198 318 191.2c0-6.8 4.8-11.2 12.1-11.2 7.2 0 12 4.4 12 11.2zm-17 .1c0 3.4 2 5.7 4.9 5.7 2.9 0 4.9-2.3 4.9-5.7 0-3.4-2-5.7-4.9-5.7-2.9 0-4.9 2.3-4.9 5.7zM367.4 202.3h-7.1v-3.6c-1.5 2.6-4 3.9-7.2 3.9-4.8 0-7.9-3.3-7.9-8.4v-13.9h7.1v11.9c0 2.6 1.4 4.2 3.7 4.2 2.7 0 4.3-2.2 4.3-5.2v-10.9h7.1v22zM395.2 202.3h-7.1v-2.9c-1.6 2-3.8 3.2-6.6 3.2-6.2 0-10.3-4.6-10.3-11.4 0-6.7 4-11.2 10.1-11.2 2.9 0 5.2 1.1 6.8 3.2V172h7.1v30.3zm-7.1-11c0-3.4-2-5.7-4.9-5.7-2.9 0-4.9 2.3-4.9 5.7 0 3.4 2 5.8 4.9 5.8 3 0 4.9-2.4 4.9-5.8zM421.1 202.3l-13.2-17.6v17.6h-6.8v-28.6h6.4l13.2 17.7v-17.7h6.8v28.6h-6.4zM452.7 187.9v14.4h-6.9v-2.5c-1.4 1.9-3.8 2.9-6.7 2.9-4.7 0-7.6-2.9-7.6-6.9 0-4.2 3-6.6 8.5-6.7h5.8v-.3c0-2.2-1.4-3.5-4.3-3.5-1.8 0-4.3.7-6.6 1.8l-2-4.7c3.4-1.6 6.5-2.5 10.2-2.5 6 0 9.5 3 9.6 8zm-7 6.9v-2h-4.5c-2.1 0-3.2.7-3.2 2.4 0 1.6 1.1 2.6 3.1 2.6 2.3 0 4.2-1.2 4.6-3zM471.7 201.1c-1.6.9-3.8 1.5-5.9 1.5-4.3 0-7.3-2.4-7.3-7v-9.7h-3.1v-4.6h3.1v-6.1h7v6.1h5.8v4.7h-5.8v8.6c0 1.7.7 2.5 2 2.4.7 0 1.7-.3 2.7-.7l1.5 4.8zM482.6 173.9c0 2.2-1.6 3.8-3.7 3.8-2.2 0-3.7-1.6-3.7-3.8 0-2.2 1.6-3.7 3.7-3.7s3.7 1.5 3.7 3.7zm-7.3 28.4v-22h7v22h-7zM493.3 202.3l-8.3-22h7.3l4.7 15.6 4.8-15.6h7l-8.3 22h-7.2zM532.1 193.1h-15.5c.7 2.6 2.6 4.1 5.2 4.1 1.9 0 3.8-.8 5.3-2.2l3.7 3.6c-2.2 2.5-5.6 3.9-9.6 3.9-7.2 0-11.7-4.5-11.7-11.2 0-6.8 4.7-11.3 11.5-11.3 7.8 0 11.6 5.1 11.1 13.1zm-6.7-3.8c0-2.7-1.7-4.5-4.3-4.5-2.5 0-4.1 1.8-4.6 4.5h8.9zM561 178.2l-4.2 5c-1.9-2.3-4.7-3.7-7.2-3.7-4.5 0-8 3.6-8 8.3 0 4.8 3.4 8.4 8 8.4 2.4 0 5.2-1.3 7.2-3.4l4.3 4.5c-3.1 3.1-7.6 5.2-11.8 5.2-8.6 0-15-6.3-15-14.7 0-8.3 6.6-14.5 15.3-14.5 4.1.1 8.5 2 11.4 4.9zM585.7 191.2c0 6.8-4.8 11.3-12 11.3s-12.1-4.5-12.1-11.3c0-6.8 4.8-11.2 12.1-11.2 7.2 0 12 4.4 12 11.2zm-17 .1c0 3.4 2 5.7 4.9 5.7 2.9 0 4.9-2.3 4.9-5.7 0-3.4-2-5.7-4.9-5.7-2.9 0-4.9 2.3-4.9 5.7zM612 188.4v13.9h-7v-11.9c0-2.6-1.5-4.2-3.9-4.2-2.6 0-4.2 1.8-4.5 4.5v11.7h-7.1v-22h7.1v3.6c1.6-2.6 4.1-3.9 7.4-3.9 4.8-.2 8 3.1 8 8.3z" class="st3"/><g class="st0"><defs><path id="SVGID_9_" d="M238.9 6.6h1v203.5h-1z"/></defs><defs><path id="SVGID_10_" d="M237.9 5.6h3v205.5h-3z"/></defs><use fill="#647881" overflow="visible" xlink:href="#SVGID_9_"/><use fill="#647881" overflow="visible" xlink:href="#SVGID_10_"/><clipPath id="SVGID_11_"><use overflow="visible" xlink:href="#SVGID_9_"/></clipPath><clipPath id="SVGID_12_" class="st8"><use overflow="visible" xlink:href="#SVGID_10_"/></clipPath><g class="st9"><path d="M238.9 6.6h1v203.5h-1z" class="st3"/><path d="M237.9 5.6h3v205.5h-3z" class="st3"/></g></g><g class="st0"><path d="M180.3 260.5h-6l-9.7-16.8h-.1c.2 3 .3 5.1.3 6.3v10.5h-4.2v-22.2h5.9l9.6 16.6h.1c-.2-2.9-.2-4.9-.2-6.1v-10.5h4.2v22.2zM200.9 252c0 2.8-.7 4.9-2.2 6.5-1.5 1.6-3.5 2.3-6.1 2.3-1.6 0-3.1-.4-4.3-1.1-1.2-.7-2.2-1.7-2.9-3.1-.7-1.3-1-2.9-1-4.7 0-2.8.7-4.9 2.2-6.5s3.5-2.3 6.1-2.3c1.6 0 3.1.4 4.3 1.1 1.2.7 2.2 1.7 2.9 3.1s1 2.9 1 4.7zm-11.7 0c0 1.7.3 3 .8 3.8s1.5 1.3 2.7 1.3c1.2 0 2.1-.4 2.7-1.3.5-.9.8-2.1.8-3.8 0-1.7-.3-2.9-.8-3.8s-1.4-1.3-2.7-1.3c-1.2 0-2.1.4-2.7 1.3-.5.8-.8 2.1-.8 3.8zM214.2 243.2c.6 0 1.1 0 1.6.1l-.3 4.3c-.4-.1-.8-.2-1.4-.2-1.5 0-2.6.4-3.5 1.1-.8.8-1.2 1.8-1.2 3.2v8.6h-4.6v-17h3.5l.7 2.9h.2c.5-1 1.2-1.7 2.1-2.3s1.9-.7 2.9-.7zM226 257.1c.8 0 1.8-.2 2.9-.5v3.4c-1.2.5-2.6.8-4.3.8-1.9 0-3.2-.5-4-1.4-.8-.9-1.3-2.3-1.3-4.2V247h-2.2v-2l2.6-1.5 1.3-3.6h3v3.6h4.8v3.5H224v8.2c0 .7.2 1.1.6 1.5.3.3.8.4 1.4.4zM248.1 260.5h-4.6v-9.9c0-2.5-.9-3.7-2.7-3.7-1.3 0-2.2.4-2.8 1.3s-.9 2.3-.9 4.3v8h-4.6v-23.6h4.6v4.8c0 .4 0 1.3-.1 2.6l-.1 1.4h.2c1-1.7 2.7-2.5 4.9-2.5 2 0 3.5.5 4.5 1.6s1.5 2.6 1.5 4.6v11.1zM274.9 260.5l-1.6-5.3h-8.1l-1.6 5.3h-5.1l7.8-22.3h5.8l7.9 22.3h-5.1zm-2.8-9.2c-1.5-4.8-2.3-7.5-2.5-8.1-.2-.6-.3-1.1-.4-1.5-.3 1.3-1.3 4.5-2.9 9.6h5.8zM297.6 260.5H293v-9.9c0-1.2-.2-2.1-.6-2.8-.4-.6-1.1-.9-1.9-.9-1.2 0-2 .4-2.6 1.3s-.8 2.3-.8 4.3v8h-4.6v-17h3.5l.6 2.2h.3c.5-.8 1.1-1.4 2-1.8s1.8-.7 3-.7c2.5 0 4.3.8 5.2 2.5h.4c.5-.8 1.1-1.4 2-1.8.9-.4 1.9-.7 3-.7 1.9 0 3.4.5 4.4 1.5 1 1 1.5 2.6 1.5 4.7v11.1h-4.6v-9.9c0-1.2-.2-2.1-.6-2.8-.4-.6-1.1-.9-1.9-.9-1.1 0-2 .4-2.5 1.2-.6.8-.8 2.1-.8 3.9v8.5zM320.6 260.8c-2.7 0-4.9-.8-6.4-2.3-1.5-1.5-2.3-3.6-2.3-6.4 0-2.8.7-5 2.1-6.6 1.4-1.6 3.4-2.3 5.9-2.3 2.4 0 4.3.7 5.6 2.1s2 3.3 2 5.7v2.2h-11c0 1.3.4 2.3 1.2 3.1.7.7 1.8 1.1 3.1 1.1 1 0 2-.1 2.9-.3.9-.2 1.9-.6 2.9-1v3.6c-.8.4-1.7.7-2.6.9s-2.1.2-3.4.2zm-.6-14.3c-1 0-1.8.3-2.3.9-.6.6-.9 1.5-1 2.7h6.5c0-1.1-.3-2-.9-2.7-.6-.6-1.4-.9-2.3-.9zM340.8 243.2c.6 0 1.1 0 1.6.1l-.3 4.3c-.4-.1-.8-.2-1.4-.2-1.5 0-2.6.4-3.5 1.1-.8.8-1.2 1.8-1.2 3.2v8.6h-4.6v-17h3.5l.7 2.9h.2c.5-1 1.2-1.7 2.1-2.3s1.8-.7 2.9-.7zM345.2 239.1c0-1.5.8-2.3 2.5-2.3s2.5.8 2.5 2.3c0 .7-.2 1.3-.6 1.7-.4.4-1.1.6-1.9.6-1.6 0-2.5-.7-2.5-2.3zm4.9 21.4h-4.6v-17h4.6v17zM361.8 260.8c-5.3 0-7.9-2.9-7.9-8.7 0-2.9.7-5.1 2.2-6.6 1.4-1.5 3.5-2.3 6.2-2.3 2 0 3.7.4 5.3 1.2l-1.4 3.6c-.7-.3-1.4-.5-2-.7s-1.3-.3-1.9-.3c-2.4 0-3.6 1.7-3.6 5.1 0 3.3 1.2 5 3.6 5 .9 0 1.7-.1 2.5-.4.8-.2 1.5-.6 2.3-1.1v4c-.8.5-1.5.8-2.3 1s-1.8.2-3 .2zM381.7 260.5l-.9-2.3h-.1c-.8 1-1.6 1.7-2.4 2-.8.4-1.9.6-3.2.6-1.6 0-2.9-.5-3.9-1.4-.9-.9-1.4-2.3-1.4-4 0-1.8.6-3.1 1.9-4 1.3-.9 3.2-1.3 5.7-1.4l2.9-.1v-.7c0-1.7-.9-2.6-2.6-2.6-1.4 0-3 .4-4.8 1.2l-1.5-3.1c2-1 4.1-1.5 6.5-1.5 2.3 0 4 .5 5.2 1.5 1.2 1 1.8 2.5 1.8 4.5v11.3h-3.2zm-1.4-7.9l-1.8.1c-1.3 0-2.3.3-3 .7-.7.4-1 1.1-1 2 0 1.3.7 2 2.2 2 1.1 0 1.9-.3 2.6-.9.6-.6 1-1.4 1-2.5v-1.4zM412.1 260.5h-15.5v-3.3l5.6-5.6c1.7-1.7 2.7-2.9 3.2-3.5.5-.7.9-1.3 1.1-1.8.2-.6.3-1.1.3-1.7 0-.9-.2-1.6-.7-2s-1.1-.7-2-.7c-.9 0-1.7.2-2.5.6-.8.4-1.7 1-2.5 1.7l-2.6-3c1.1-.9 2-1.6 2.7-2 .7-.4 1.5-.7 2.4-.9.9-.2 1.8-.3 2.9-.3 1.4 0 2.6.3 3.7.8s1.9 1.2 2.5 2.1.9 2 .9 3.1c0 1-.2 2-.5 2.9s-.9 1.8-1.7 2.8c-.8.9-2.1 2.3-4 4l-2.9 2.7v.2h9.7v3.9zM429.8 249.4c0 3.9-.6 6.8-1.9 8.6-1.3 1.9-3.2 2.8-5.9 2.8-2.6 0-4.5-1-5.8-2.9-1.3-1.9-2-4.8-2-8.5 0-3.9.6-6.8 1.9-8.7 1.3-1.9 3.2-2.8 5.8-2.8 2.6 0 4.5 1 5.8 2.9s2.1 4.9 2.1 8.6zm-10.9 0c0 2.7.2 4.7.7 5.9s1.3 1.8 2.4 1.8c1.1 0 1.9-.6 2.4-1.8.5-1.2.7-3.1.7-5.8 0-2.7-.2-4.7-.7-5.9s-1.3-1.8-2.4-1.8c-1.1 0-1.9.6-2.4 1.8-.5 1.1-.7 3.1-.7 5.8zM443.7 260.5H439v-15l.1-2.3c-.8.8-1.3 1.3-1.6 1.5l-2.6 2.1-2.3-2.8 7.2-5.7h3.9v22.2zM457.5 238c2.1 0 3.8.5 5.1 1.5 1.3 1 2 2.3 2 3.9 0 1.1-.3 2.1-.9 3-.6.9-1.6 1.7-3 2.4 1.7.9 2.9 1.8 3.6 2.8.7 1 1.1 2 1.1 3.2 0 1.8-.7 3.3-2.1 4.4-1.4 1.1-3.3 1.7-5.6 1.7-2.4 0-4.3-.5-5.7-1.5-1.4-1-2.1-2.5-2.1-4.4 0-1.3.3-2.4 1-3.4s1.8-1.8 3.2-2.6c-1.3-.8-2.2-1.7-2.7-2.6-.6-.9-.8-1.9-.8-3 0-1.6.7-2.9 2-3.9 1.1-1 2.8-1.5 4.9-1.5zm-3.4 16.6c0 .9.3 1.5.9 2 .6.5 1.4.7 2.5.7 1.2 0 2-.3 2.6-.8s.9-1.2.9-2c0-.7-.3-1.3-.9-1.9-.6-.6-1.5-1.2-2.8-1.9-2.1 1.1-3.2 2.4-3.2 3.9zm3.4-13.1c-.8 0-1.4.2-1.9.6s-.7 1-.7 1.6c0 .6.2 1.2.6 1.6.4.5 1.1 1 2.1 1.5 1-.5 1.7-.9 2.1-1.4.4-.5.6-1 .6-1.7s-.3-1.3-.8-1.7c-.6-.3-1.2-.5-2-.5z" class="st3"/></g></svg>