<svg width="389" height="389" viewBox="0 0 389 389" fill="none" xmlns="http://www.w3.org/2000/svg">
<g clip-path="url(#clip0)">
<rect width="389" height="389" rx="194.5" fill="white"/>
<path d="M115.858 383.242C105.752 385.65 99.0143 379.316 93.7791 368.796C85.3117 351.628 76.7077 334.565 67.5574 317.868C65.1647 314.172 63.8163 309.721 63.6942 305.115C63.572 300.51 64.6822 295.973 66.8746 292.116C83.4452 258.984 99.5151 225.59 115.813 192.301C121.412 180.996 124.917 180.838 131.2 191.516C139.257 205.282 138.529 218.681 131.2 232.761C120.729 252.441 111.215 272.75 100.926 292.587C98.7703 296.235 97.6712 300.572 97.7856 304.98C97.9001 309.388 99.2223 313.642 101.564 317.135C110.122 332.837 118.18 348.54 126.283 364.713C134.796 381.724 134.295 382.666 115.858 383.242Z" fill="#00B39F" fill-opacity="0.1"/>
<path d="M289.667 268.981C273.188 268.981 256.708 268.981 240.274 268.981C229.257 268.981 227.391 265.16 232.399 253.645C238.681 239.147 249.197 233.703 262.945 234.017C282.338 234.541 301.731 234.017 321.079 234.593C325.802 235.14 330.551 233.903 334.609 231.07C338.666 228.237 341.811 223.962 343.567 218.891C350.942 201.985 359.546 185.864 367.831 169.481C373.294 159.013 376.344 159.012 382.49 169.062C390.548 182.2 391.595 194.186 382.945 208.213C374.61 222.025 367.315 236.628 361.14 251.866C355.722 264.899 347.482 269.243 335.737 268.877C320.396 268.406 305.009 268.877 289.667 268.877V268.981Z" fill="#00B39F" fill-opacity="0.1"/>
<path d="M333.78 74.6916C332.354 79.2995 330.698 83.8084 328.818 88.1956C312.429 120.926 295.98 153.587 279.47 186.178C273.552 197.903 270.001 197.746 263.537 186.178C260.102 180.418 258.305 173.574 258.395 166.59C258.484 159.606 260.456 152.826 264.038 147.184C274.736 127.242 284.796 106.777 295.495 86.7824C297.742 83.2115 298.952 78.9162 298.952 74.5084C298.952 70.1006 297.742 65.8053 295.495 62.2344C286.39 45.1188 277.695 27.5845 269.091 9.89316C263.628 -1.15084 265.13 -3.34917 275.919 -4.97175C289.576 -7.01305 298.681 -1.51723 304.918 13.086C311.838 29.2071 320.487 44.4907 328.226 60.1931C330.32 64.8515 331.913 69.9286 333.78 74.6916Z" fill="#00D3A9" fill-opacity="0.1"/>
<path d="M85.0391 29.9372C88.3623 4.76112 95.9648 -3.09006 115.13 -3.56114C130.836 -3.92752 146.542 -4.29391 162.247 -5.02669C166.816 -5.62889 171.436 -4.62598 175.499 -2.15003C179.562 0.325916 182.878 4.15877 185.009 8.84374C201.398 41.4523 218.515 73.5898 235.54 105.989C236.886 108.838 238.087 111.774 239.137 114.782C226.754 126.507 209.592 122.372 199.804 105.099C193.659 94.2646 188.605 82.5402 182.869 71.2868C161.473 29.0474 161.473 29.0998 118.636 29.8849C107.528 30.0943 96.3745 29.9372 85.0391 29.9372Z" fill="#00B39F" fill-opacity="0.1"/>
<path d="M255.296 382.457C207.542 382.981 219.196 388.058 196.116 344.196C183.414 320.171 171.214 295.728 159.014 271.389C153.687 260.921 155.417 257.519 165.933 256.263C181.229 254.431 190.562 263.538 197.481 277.932C207.041 297.769 217.147 317.24 226.662 337.078C228.3 341.063 230.991 344.352 234.351 346.476C237.71 348.6 241.567 349.451 245.372 348.907C263.263 348.279 281.154 348.279 299.045 348.54C308.741 348.54 309.47 351.524 306.055 361.678C300.638 377.904 290.623 383.766 276.192 382.615C269.181 382.091 262.216 382.457 255.296 382.457Z" fill="#00D3A9" fill-opacity="0.1"/>
<path d="M15.8415 225.067C-1.68512 209.364 -3.91578 197.483 5.4621 177.959C13.0646 161.891 20.7125 145.874 28.224 129.648C30.0652 124.782 33.1499 120.674 37.0688 117.869C40.9877 115.065 45.5555 113.697 50.1664 113.946C83.3987 113.58 116.677 112.428 149.909 111.643C152.822 111.643 155.69 112.166 158.467 112.428C161.153 130.852 149.363 146.136 131.153 147.287C119.772 148.02 108.391 147.287 96.8282 147.287C53.7627 147.602 53.8083 147.654 32.8218 191.254C27.3135 202.56 21.5775 213.708 15.8415 225.067Z" fill="#00D3A9" fill-opacity="0.1"/>
</g>
<defs>
<clipPath id="clip0">
<rect width="389" height="389" rx="194.5" fill="white"/>
</clipPath>
</defs>
</svg>
