<svg xmlns="http://www.w3.org/2000/svg" role="img" viewBox="-3.67 -1.67 295.10 245.85">
    <style>
        svg {
            enable-background: new 0 0 288 242
        }
    </style>
    <style>
        .st0,
        .st1 {
            fill: #fff
        }

        .st1 {
            opacity: .8
        }
    </style>
    <path
        d="M57 221.6h1.8l7.6 16.8h-2l-2-4.4h-9.1l-2 4.4h-1.9l7.6-16.8zm4.6 10.7l-3.8-8.5-3.8 8.5h7.6zm9-10.6h1.9l6.1 9.1 6.1-9.1h1.9v16.7h-1.9v-13.5l-6.1 8.9h-.1l-6.1-8.9v13.5h-1.8v-16.7zm21.6 0h7.1c1.9 0 3.4.5 4.4 1.5.7.7 1.1 1.6 1.1 2.7 0 2.2-1.3 3.3-2.6 3.9 2 .6 3.6 1.7 3.6 4 0 2.9-2.4 4.6-6.1 4.6h-7.4v-16.7zm10.6 4.4c0-1.6-1.3-2.7-3.7-2.7H94v5.7h5c2.2 0 3.8-1 3.8-3zm-3.5 4.7H94v5.9h5.6c2.5 0 4.1-1.1 4.1-3 .1-1.8-1.5-2.9-4.4-2.9zm17-9.2h1.8l7.6 16.8h-2l-2-4.4h-9.1l-2 4.4h-1.9l7.6-16.8zm4.6 10.7l-3.8-8.5-3.8 8.5h7.6zm7.5 3.7l1.2-1.4c1.7 1.6 3.4 2.4 5.7 2.4 2.2 0 3.7-1.2 3.7-2.8 0-1.5-.8-2.4-4.3-3.2-3.8-.8-5.6-2.1-5.6-4.8 0-2.6 2.3-4.6 5.5-4.6 2.4 0 4.2.7 5.9 2l-1.1 1.5c-1.5-1.3-3.1-1.8-4.8-1.8-2.2 0-3.5 1.2-3.5 2.7 0 1.6.9 2.5 4.5 3.2 3.7.8 5.4 2.2 5.4 4.7 0 2.9-2.4 4.7-5.7 4.7-2.7 0-4.9-.9-6.9-2.6zm16 0l1.2-1.4c1.7 1.6 3.4 2.4 5.7 2.4 2.2 0 3.7-1.2 3.7-2.8 0-1.5-.8-2.4-4.3-3.2-3.8-.8-5.6-2.1-5.6-4.8 0-2.6 2.3-4.6 5.5-4.6 2.4 0 4.2.7 5.9 2l-1.1 1.5c-1.5-1.3-3.1-1.8-4.8-1.8-2.2 0-3.6 1.2-3.6 2.7 0 1.6.9 2.5 4.5 3.2 3.7.8 5.4 2.2 5.4 4.7 0 2.9-2.4 4.7-5.7 4.7-2.6 0-4.8-.9-6.8-2.6zm23.1-14.4h1.8l7.6 16.8h-2l-2-4.4h-9.1l-2 4.4h-1.9l7.6-16.8zm4.7 10.7l-3.8-8.5-3.8 8.5h7.6zm8.9-10.6h5.8c5.2 0 8.9 3.6 8.9 8.3 0 4.7-3.6 8.3-8.9 8.3h-5.8v-16.6zm1.9 1.7v13.2h3.9c4.2 0 6.9-2.9 6.9-6.6 0-3.7-2.7-6.6-6.9-6.6H183zm17 6.7c0-4.6 3.5-8.7 8.5-8.7 5.1 0 8.5 4 8.5 8.6s-3.5 8.6-8.5 8.6c-5.1.1-8.5-3.9-8.5-8.5zm15 0c0-3.8-2.8-6.9-6.6-6.9s-6.5 3-6.5 6.8 2.8 6.9 6.6 6.9 6.5-3 6.5-6.8zm6.9-8.4h7.2c2 0 3.7.6 4.7 1.7.8.8 1.3 2 1.3 3.3 0 2.8-1.9 4.4-4.5 4.9l5.1 6.8h-2.3l-4.8-6.5h-4.8v6.5h-1.9v-16.7zm7 8.5c2.5 0 4.3-1.3 4.3-3.4 0-2-1.6-3.3-4.3-3.3h-5.1v6.8h5.1z"
        class="st0" />
    <g id="XMLID_1295_">
        <path id="XMLID_2528_"
            d="M93.9 189.6c1.5 0 2.7-.6 3.7-1.8l2 2c-1.6 1.8-3.4 2.6-5.5 2.6s-3.9-.7-5.2-2c-1.4-1.3-2.1-3-2.1-5.1 0-2 .7-3.7 2.1-5.1 1.4-1.4 3.1-2 5.1-2 2.3 0 4.1.9 5.7 2.6l-1.9 2.2c-1-1.2-2.2-1.8-3.6-1.8-1.2 0-2.1.4-3 1.1-.8.8-1.2 1.8-1.2 3 0 1.3.4 2.3 1.2 3.1.7.8 1.6 1.2 2.7 1.2z"
            class="st0" />
        <path id="XMLID_2526_" d="M102 192.3v-13.7h3.1v11h5.9v2.7h-9z" class="st0" />
        <path id="XMLID_2523_"
            d="M124.4 190.4c-1.4 1.4-3.1 2-5.1 2-2 0-3.7-.7-5.1-2-1.4-1.4-2.1-3-2.1-5.1 0-2 .7-3.7 2.1-5.1 1.4-1.4 3.1-2 5.1-2 2 0 3.7.7 5.1 2 1.4 1.4 2.1 3 2.1 5.1 0 2.1-.7 3.8-2.1 5.1zm-1.1-5c0-1.2-.4-2.3-1.2-3.1-.8-.9-1.8-1.3-2.9-1.3-1.1 0-2.1.4-2.9 1.3-.8.9-1.2 1.9-1.2 3.1 0 1.2.4 2.3 1.2 3.1.8.9 1.8 1.3 2.9 1.3 1.1 0 2.1-.4 2.9-1.3.8-.9 1.2-1.9 1.2-3.1z"
            class="st0" />
        <path id="XMLID_2521_"
            d="M132.7 188.8c.5.6 1.2 1 2.1 1 .9 0 1.6-.3 2.1-1 .5-.6.8-1.5.8-2.6v-7.6h3.1v7.7c0 2-.6 3.5-1.7 4.6-1.1 1.1-2.5 1.6-4.2 1.6-1.7 0-3.1-.5-4.2-1.6s-1.7-2.6-1.7-4.6v-7.7h3.1v7.6c-.2 1.1.1 1.9.6 2.6z"
            class="st0" />
        <path id="XMLID_2449_"
            d="M154.3 180.4c1.3 1.2 2 2.9 2 5s-.6 3.8-1.9 5.1c-1.3 1.2-3.2 1.9-5.9 1.9h-4.7v-13.7h4.9c2.4-.1 4.3.5 5.6 1.7zm-2.2 8.1c.8-.7 1.1-1.7 1.1-3.1 0-1.4-.4-2.4-1.1-3.1-.8-.7-1.9-1.1-3.5-1.1h-1.7v8.4h1.9c1.4 0 2.5-.3 3.3-1.1z"
            class="st0" />
        <path id="XMLID_2447_" d="M173.8 178.6h3.1v13.7h-3.1l-6.5-8.6v8.6h-3.1v-13.7h2.9l6.7 8.8v-8.8z" class="st0" />
        <path id="XMLID_2444_"
            d="M190 192.3l-1.3-3H183l-1.3 3h-3.3l5.9-13.7h3l5.9 13.7H190zm-4.2-9.6l-1.7 4h3.4l-1.7-4z" class="st0" />
        <path id="XMLID_2442_" d="M199.7 181.2v11.1h-3.1v-11.1h-3.9v-2.7h10.9v2.7h-3.9z" class="st0" />
        <path id="XMLID_2440_" d="M205.8 178.6h3.1v13.7h-3.1v-13.7z" class="st0" />
        <path id="XMLID_2369_" d="M217.3 187.3l3.5-8.8h3.3l-5.5 13.7H216l-5.5-13.7h3.3l3.5 8.8z" class="st0" />
        <path id="XMLID_2367_" d="M235.7 178.6v2.7h-6.8v2.8h6.2v2.6h-6.2v2.9h7.1v2.7h-10.1v-13.7h9.8z" class="st0" />
        <path id="XMLID_2365_"
            d="M90.4 204c.8 0 1.5-.3 2.1-1l1.1 1.1c-.9 1-1.9 1.5-3.1 1.5s-2.2-.4-2.9-1.1c-.8-.7-1.2-1.7-1.2-2.8 0-1.1.4-2.1 1.2-2.9s1.7-1.1 2.9-1.1c1.3 0 2.3.5 3.2 1.4l-1.1 1.2c-.5-.7-1.2-1-2-1-.6 0-1.2.2-1.7.6-.5.4-.7 1-.7 1.7s.2 1.3.7 1.7c.4.5.9.7 1.5.7z"
            class="st0" />
        <path id="XMLID_2362_"
            d="M101.3 204.5c-.8.8-1.7 1.1-2.9 1.1-1.1 0-2.1-.4-2.9-1.1-.8-.8-1.2-1.7-1.2-2.8 0-1.1.4-2.1 1.2-2.8.8-.8 1.7-1.1 2.9-1.1 1.1 0 2.1.4 2.9 1.1.8.8 1.2 1.7 1.2 2.8-.1 1.1-.5 2-1.2 2.8zm-.6-2.8c0-.7-.2-1.3-.7-1.8-.4-.5-1-.7-1.6-.7-.6 0-1.2.2-1.6.7-.4.5-.7 1.1-.7 1.8s.2 1.3.7 1.8c.4.5 1 .7 1.6.7.6 0 1.2-.2 1.6-.7.5-.6.7-1.2.7-1.8z"
            class="st0" />
        <path id="XMLID_2360_" d="M110.8 200.7l-2.1 4.2h-1l-2.1-4.2v4.8h-1.7v-7.7h2.3l2 4.2 2-4.2h2.3v7.7h-1.7v-4.8z"
            class="st0" />
        <path id="XMLID_1480_"
            d="M119.7 198.5c.5.5.8 1.2.8 2.1 0 1-.3 1.6-.8 2.1-.6.4-1.4.7-2.5.7h-1v2.1h-1.7v-7.7h2.7c1.1 0 2 .3 2.5.7zm-1.3 3.1c.2-.2.3-.6.3-1s-.1-.8-.4-.9c-.3-.2-.7-.3-1.3-.3h-1v2.6h1.2c.7-.1 1-.2 1.2-.4z"
            class="st0" />
        <path id="XMLID_1467_"
            d="M123.9 203.6c.3.4.7.5 1.2.5s.9-.2 1.2-.5c.3-.4.4-.8.4-1.5v-4.3h1.7v4.3c0 1.1-.3 2-.9 2.6-.6.6-1.4.9-2.4.9s-1.8-.3-2.4-.9c-.6-.6-.9-1.5-.9-2.6v-4.3h1.7v4.3c0 .6.1 1.1.4 1.5z"
            class="st0" />
        <path id="XMLID_1465_" d="M133.4 199.3v6.2h-1.7v-6.2h-2.2v-1.5h6.1v1.5h-2.2z" class="st0" />
        <path id="XMLID_1463_" d="M136.8 197.8h1.7v7.7h-1.7v-7.7z" class="st0" />
        <path id="XMLID_1461_" d="M145.9 197.8h1.7v7.7h-1.7l-3.7-4.8v4.8h-1.7v-7.7h1.6l3.8 5v-5z" class="st0" />
        <path id="XMLID_1390_"
            d="M154.5 201.6h1.7v2.7c-.8.9-1.8 1.3-3.2 1.3-1.1 0-2.1-.4-2.8-1.1-.8-.7-1.2-1.7-1.2-2.8 0-1.1.4-2.1 1.2-2.9.8-.8 1.7-1.1 2.8-1.1 1.1 0 2.1.4 2.9 1.1l-.9 1.3c-.3-.3-.7-.5-1-.6-.3-.1-.6-.2-.9-.2-.7 0-1.2.2-1.7.7-.4.4-.7 1-.7 1.8 0 .7.2 1.3.6 1.7.4.4.9.7 1.5.7s1.1-.1 1.5-.3v-2.3z"
            class="st0" />
        <path id="XMLID_1388_" d="M165.9 197.8v1.5h-3.6v1.7h3.4v1.5h-3.4v3h-1.7v-7.7h5.3z" class="st0" />
        <path id="XMLID_1385_"
            d="M173.9 204.5c-.8.8-1.7 1.1-2.9 1.1-1.1 0-2.1-.4-2.9-1.1-.8-.8-1.2-1.7-1.2-2.8 0-1.1.4-2.1 1.2-2.8.8-.8 1.7-1.1 2.9-1.1 1.1 0 2.1.4 2.9 1.1.8.8 1.2 1.7 1.2 2.8-.1 1.1-.5 2-1.2 2.8zm-.6-2.8c0-.7-.2-1.3-.7-1.8-.4-.5-1-.7-1.6-.7s-1.2.2-1.6.7c-.4.5-.7 1.1-.7 1.8s.2 1.3.7 1.8c.4.5 1 .7 1.6.7s1.2-.2 1.6-.7c.5-.6.7-1.2.7-1.8z"
            class="st0" />
        <path id="XMLID_1383_"
            d="M178.5 203.6c.3.4.7.5 1.2.5s.9-.2 1.2-.5c.3-.4.4-.8.4-1.5v-4.3h1.7v4.3c0 1.1-.3 2-.9 2.6-.6.6-1.4.9-2.4.9s-1.8-.3-2.4-.9c-.6-.6-.9-1.5-.9-2.6v-4.3h1.7v4.3c0 .6.1 1.1.4 1.5z"
            class="st0" />
        <path id="XMLID_1381_" d="M190.2 197.8h1.7v7.7h-1.7l-3.7-4.8v4.8h-1.7v-7.7h1.6l3.8 5v-5z" class="st0" />
        <path id="XMLID_1378_"
            d="M199.7 198.9c.7.7 1.1 1.6 1.1 2.8 0 1.2-.4 2.1-1.1 2.8-.7.7-1.8 1-3.3 1h-2.6v-7.7h2.7c1.4 0 2.4.4 3.2 1.1zm-1.3 4.5c.4-.4.6-1 .6-1.7 0-.8-.2-1.3-.6-1.7-.4-.4-1.1-.6-1.9-.6h-1v4.7h1.1c.8-.1 1.4-.3 1.8-.7z"
            class="st0" />
        <path id="XMLID_1375_"
            d="M207.5 205.6l-.7-1.7h-3.2l-.7 1.7H201l3.3-7.7h1.7l3.3 7.7h-1.8zm-2.3-5.5l-1 2.2h1.9l-.9-2.2z"
            class="st0" />
        <path id="XMLID_1373_" d="M212.9 199.3v6.2h-1.7v-6.2H209v-1.5h6.1v1.5h-2.2z" class="st0" />
        <path id="XMLID_1301_" d="M216.4 197.8h1.7v7.7h-1.7v-7.7z" class="st0" />
        <path id="XMLID_1298_"
            d="M226.5 204.5c-.8.8-1.7 1.1-2.9 1.1-1.1 0-2.1-.4-2.9-1.1-.8-.8-1.2-1.7-1.2-2.8 0-1.1.4-2.1 1.2-2.8.8-.8 1.7-1.1 2.9-1.1 1.1 0 2.1.4 2.9 1.1.8.8 1.2 1.7 1.2 2.8-.1 1.1-.4 2-1.2 2.8zm-.6-2.8c0-.7-.2-1.3-.7-1.8-.4-.5-1-.7-1.6-.7-.6 0-1.2.2-1.6.7-.4.5-.7 1.1-.7 1.8s.2 1.3.7 1.8c.4.5 1 .7 1.6.7.6 0 1.2-.2 1.6-.7.5-.6.7-1.2.7-1.8z"
            class="st0" />
        <path id="XMLID_1296_" d="M234.5 197.8h1.7v7.7h-1.7l-3.7-4.8v4.8h-1.7v-7.7h1.6l3.8 5v-5z" class="st0" />
    </g>
    <g id="XMLID_1290_">
        <path id="XMLID_1294_" d="M53.8 196.4h-4.2v9.9h9.9v-4.2h-5.7z" class="st0" />
        <path id="XMLID_1293_" d="M75 196.5v5.6h-5.6v-.1 4.3h9.8v-9.9H75z" class="st0" />
        <path id="XMLID_1292_" d="M49.6 186.6h4.3l-.1-.1v-5.6h5.7v-4.2h-9.9z" class="st0" />
        <path id="XMLID_1291_" d="M69.4 176.7v4.2H75v5.7h4.2v-9.9z" class="st0" />
    </g>
    <g id="XMLID_1285_">
        <path id="XMLID_1289_" d="M68.8 186.6l-5.6-5.7h6.2v-4.2h-9.9v4.2l5.6 5.7z" class="st1" />
        <path id="XMLID_1288_" d="M63.7 196.4H60l4.7 4.7.9 1h-6.1v4.2h9.9V202l-2.8-2.8z" class="st0" opacity=".8" />
        <path id="XMLID_1287_" d="M75 186.6v6.1l-1-.9-4.6-4.7v3.7l2.8 2.8 2.8 2.8h4.2v-9.8z" class="st1" />
        <path id="XMLID_1286_" d="M59.5 192.2l-5.6-5.6h-4.3v9.8h4.2v-6.1l5.7 5.6z" class="st1" />
    </g>
    <path
        d="M8.9 85.9c-1.8 3-3.2 6.2-4.3 9.5l15.2-4.5 4.5-1.3-15.4-3.7zm18.8 2.7l-.2-20.8c-7.2 4-13.3 9.7-17.7 16.7l7.9 1.9 9.7 2.3.3-.1z"
        class="st0" />
    <path
        d="M9.8 84.5l7.9 1.9-7.9-1.9zm53.8-6.4l-.1-7.2-.1-7.9c-3.9-1-7.9-1.4-11.9-1.4-7.9 0-15.4 1.8-22.4 5.4l.2 21.2 34.3-10.1zM29.1 67l.2 21.2zm78.7-17.4l-.2-17.8-12.3-2.9-10-2.4C76.1 37 70.5 49.9 69.2 63.8l-.1 1-1-.3c-1-.4-2.1-.7-3.1-1l.1 14.9 43 10.2-.3-39zm9.4 26.8c4.2 0 7.6 3.2 8 7.2l5.8-1.7 12.9-3.8-.5-56.5-34.3 10 .1 14.7.3 35.2c1.3-2.9 4.2-5.1 7.7-5.1zm-7.6 5.2l-.3-35.2zm33.8-62l.7.1 23.7-6.9c-10-5.8-21.3-8.8-33-8.8-6.5 0-12.9.9-19 2.8-11.2 3.4-21.3 9.7-29.4 18.3l21.8 5.2 34.5-10.1.6-.2.1-.4zm1.6 2l.2 23.9.3 32.9 11.4 2.7 4.3 1c1-3.3 4.2-5.7 7.7-5.7 4.5 0 8.1 3.6 8.1 8.1 0 .4 0 .8-.1 1.3l2.5.6 9.1 2.2-.3-39-.2-17.9-43-10.1zm0 0l.2 23.8zm58.5 62.6l20.3-5.9-.3-37.5c-8.9.1-19.6 3.3-25.7 6.3l-.8.4-.3-.8c-.3-.9-.7-1.7-1-2.6-1.7-3.9-3.7-7.6-6.1-11.1l.5 55.2 13.4-4zm-13.4 4l-.5-55.2zm-20.4-74.3l-22.4 6.6 40.1 9.5c-4.9-6.4-10.8-11.8-17.7-16.1z"
        class="st0" />
    <path
        d="M169.7 13.9l-22.4 6.6h.1l22.3-6.6zM15 114.5l-13-3.1c.1 14.8 6.7 28.6 18.2 38l-.2-26.9-.1-6.8-4.9-1.2zm36.2 46.1h5.1l-.5-54.9-34.3 10v4.8l.3 30.2c8.6 6.4 18.8 9.8 29.4 9.9zm-29.3-9.9l-.3-30.2.3 30.2zm32.9-46.4l1-.3v-.3l.7.1 48.7-14.2L65.1 80l-1.2-.3L4.1 97.2c-1.2 4.1-1.9 8.4-2 12.7l2.8.7 15.9 3.8 34-10.1zM65.1 80l-1.2-.3 1.2.3z"
        class="st0" />
    <path
        d="M2.1 109.9l2.8.6-2.8-.6zm55.3-4.4l.5 55.1h42.9l-.1-15.4-.3-29.5zm0 0l.5 55.1-.5-55.1zm44.8 39.1l.1 16h34.3l-.2-25.6c-11.7-2.4-21.2-10.7-25-22.1l-9.5 2.8.3 28.9zm.2 16l-.2-16zm41.9-80.9l-19.1 5.6c-.4 4.2-3.9 7.3-8 7.3-2.5 0-4.8-1.1-6.3-3.1l-51 15 41.4 9.8 9.9-2.9c-.8-2.9-1.2-5.9-1.2-9v-.8h34.4l41.4-12.1-9.1-2.2c-1.2 3.2-4.2 5.3-7.5 5.3-4.5 0-8.1-3.6-8.1-8.1 0-.3 0-.6.1-.9L145.5 80l-1.2-.3zm1.2.3l-1.2-.3zm-34.7 9.5l-1.8.5-.7.2-48.6 14.2.1.1 51-15zm-2.5.7l.7-.2-.7.2zm65.9 23.9c-4.9 12.9-17.3 21.5-31.1 21.5-1.6 0-3.3-.1-5-.4l.2 25.3h42.9l-.1-15.4-.3-29.4-6.6-1.6zm-36.1 21.2l.2 25.3-.2-25.3zm44.3-19.6l.3 28.9.1 16h33.8v-4.4l-.4-50.4-33.8 9.9zm.4 44.9l-.2-16zm31.5-55.9l-.4-.1 2.3-.7v-.4l.8.2 48.2-14.1-24.6-5.8-16.6-3.9-74.3 21.7h26.6v.8c0 3.5-.6 6.9-1.7 10.3l6.6 1.6.3.1 32.8-9.7zm-39.6 8l6.6 1.5-6.6-1.5zm50.7-34.1l42.7 10.1.3-.1-.1-15.7-.1-16.2c-9.9-9-23.9-14.3-41.7-15.8-.4 0-.9-.1-1.4-.1l.3 37v.8zm0-.8v.8zm58.3 6.3c-1.8-7.3-4.6-13.7-8.5-19.3-1.6-2.4-3.5-4.6-5.6-6.6l.3 30 13.8-4.1zm-14-25.9l.2 30zm-39.5 50.3l-12.5-3 .3 36.6.2 18.5h7.6c2.8.1 5.4.1 7.8 0 16.6-.4 24.2-3 27.2-4.6.1-.1.2-.1.3-.2v-5.3l-.1-17-.2-17.8-30.6-7.2zm-12 52l-.2-18.4zm45.2-6.5v.2c9.1-6.3 19.8-18 22-39.2.2-2 .4-4.1.5-6.3l-15 4.4-8.6 2.5.3 39 .8-.6zm-2-39.7l24.5-7.2c.2-7.7-.4-14.9-1.8-21.5l-47.4 13.9-16.7 4.9 41.4 9.9z"
        class="st0" />
    <path d="M220 104.4l16.7-4.9-16.8 4.9z" class="st0" />
</svg>