<svg id="Layer_1" data-name="Layer 1" xmlns="http://www.w3.org/2000/svg" viewBox="0 0 760 150"><defs><style>.cls-1{opacity:0.4;}.cls-2{fill:#fff;}.cls-3{opacity:0.8;}.cls-4{opacity:0.2;}.cls-5{opacity:0.6;}</style></defs><g id="Gauge"><g class="cls-1"><path class="cls-2" d="M57.19,49.46a158.58,158.58,0,0,1,17.92-8.12l-1.52-7.5A183.42,183.42,0,0,0,54.71,44.55Z"/></g><g class="cls-3"><path class="cls-2" d="M172.58,37.22l15.5-17.47a177.19,177.19,0,0,0-30.27-3.89l-9,16.46A167.54,167.54,0,0,1,172.58,37.22Z"/></g><g class="cls-1"><path class="cls-2" d="M53.64,51.32l-2.26-4.57C46.7,50,42.14,53.4,37.8,57l2.36,2.82C44.56,56.78,49.07,54,53.64,51.32Z"/></g><path class="cls-2" d="M202.57,49.34l23.23-16.4a166.43,166.43,0,0,0-33.32-12.18l-15.73,17.7A162.89,162.89,0,0,1,202.57,49.34Z"/><g class="cls-4"><path class="cls-2" d="M37,62.14l-2.14-2.59a151.53,151.53,0,0,0-11.61,11L24.89,72C28.78,68.51,32.78,65.24,37,62.14Z"/></g><path class="cls-2" d="M229.74,35,206.46,51.43A170.77,170.77,0,0,1,234.7,71.55L265,59.77A168.61,168.61,0,0,0,229.74,35Z"/><g class="cls-4"><path class="cls-2" d="M20.38,73.47A190.24,190.24,0,0,0,4,94.05,166.24,166.24,0,0,1,21.9,74.65Z"/></g><g class="cls-5"><path class="cls-2" d="M102.29,22.68l-.62,11.16a154.71,154.71,0,0,1,17.92-2.25l3.89-13.65A191.27,191.27,0,0,0,102.29,22.68Z"/></g><g class="cls-3"><path class="cls-2" d="M123.76,31.36c2-.06,4.12-.11,6.2-.11,4.91,0,9.81.22,14.6.67l8.8-16.12a177.08,177.08,0,0,0-25.65,1.52Z"/></g><g class="cls-5"><path class="cls-2" d="M78.78,39.93a153.43,153.43,0,0,1,18.88-5.3l.62-10.71a169.4,169.4,0,0,0-21,8.17Z"/></g></g><g id="Needle" class="cls-3"><path class="cls-2" d="M120.46,105.49a11.93,11.93,0,1,0,10.93,12.85A11.95,11.95,0,0,0,120.46,105.49Zm-1.3,16.8a4.92,4.92,0,1,1,5.3-4.51A5,5,0,0,1,119.16,122.29Z"/><path class="cls-2" d="M157.21,53.85c-1.47,1-2.82,2.09-4.23,3.16l-5.24,8.34L137.2,82,126.66,98.61,124,102.78l-1.3,2.09a6,6,0,0,1-.68,1,2.87,2.87,0,0,0-.67,1c-.4,1.69-.74,3.38-1.07,5.13a1.49,1.49,0,0,0-.06.51,4.82,4.82,0,0,1,3.44,2.19,2.94,2.94,0,0,1,.45-.28c1.46-1,2.82-2.08,4.23-3.15a2.59,2.59,0,0,0,.62-1.08,10.87,10.87,0,0,1,.62-1.07l1.29-2.08,2.65-4.17,10.54-16.63,10.55-16.63,5.24-8.35c.39-1.69.73-3.43,1.07-5.18s.56-3.5.79-5.3C160.14,51.82,158.62,52.78,157.21,53.85Z"/></g><polygon class="cls-2" points="363.71 66.06 363.71 68.06 363.71 77.47 363.71 88.94 363.71 105.69 408.3 105.69 408.3 96.28 373.12 96.28 373.12 88.94 373.12 86.87 400.14 86.87 400.14 77.47 373.12 77.47 373.12 68.06 408.3 68.06 408.3 58.66 363.71 58.66 363.71 66.06"/><path class="cls-2" d="M470,93.4a11.72,11.72,0,0,1-1,4.76,12,12,0,0,1-2.66,3.92,13,13,0,0,1-3.92,2.64,12.18,12.18,0,0,1-4.8,1h-44V95.78h44A2.36,2.36,0,0,0,460,93.4V89.57a2.36,2.36,0,0,0-2.38-2.38H426a11.88,11.88,0,0,1-4.76-1,12.41,12.41,0,0,1-4-2.67,12.64,12.64,0,0,1-2.67-4,11.76,11.76,0,0,1-1-4.77V71a12,12,0,0,1,1-4.8,12.74,12.74,0,0,1,2.67-3.92,12.23,12.23,0,0,1,4-2.66,11.71,11.71,0,0,1,4.76-1h44v10H426a2.32,2.32,0,0,0-1.69.7,2.29,2.29,0,0,0-.69,1.69v3.82A2.36,2.36,0,0,0,426,77.22h31.67a12,12,0,0,1,4.8,1,12.89,12.89,0,0,1,3.92,2.66A12.54,12.54,0,0,1,469,84.77a12,12,0,0,1,1,4.8Z"/><path class="cls-2" d="M529.34,105.69h-9V87.19h-35v18.5h-9V77.22h43.94V58.65h9Zm-44-32.89h-9V58.65h9Z"/><path class="cls-2" d="M356.48,105.69h-10V71.38a2.55,2.55,0,0,0-.22-1.06,2.67,2.67,0,0,0-.59-.88,2.86,2.86,0,0,0-.88-.6,2.72,2.72,0,0,0-1.07-.21H297.65v-10h46.09a12.28,12.28,0,0,1,4.93,1,12.67,12.67,0,0,1,6.8,6.8,12.27,12.27,0,0,1,1,4.92Zm-48.86,0h-10V68.63h10Zm24.4,0h-10V73.85h10Z"/><path class="cls-2" d="M595,105.69H585V71.38a2.72,2.72,0,0,0-.22-1.06,2.86,2.86,0,0,0-.6-.88,2.94,2.94,0,0,0-.87-.6,2.8,2.8,0,0,0-1.07-.21H536.15v-10h46.09a12.27,12.27,0,0,1,4.92,1,12.65,12.65,0,0,1,6.81,6.8,12.44,12.44,0,0,1,1,4.92Zm-48.85,0h-10V68.63h10Zm24.39,0h-10V73.85h10Z"/><polygon class="cls-2" points="619.77 58.66 600.95 105.69 611.68 105.69 624.47 72.77 633.58 96.28 617.95 96.28 614.44 105.69 647.99 105.69 629.17 58.66 619.77 58.66"/><path class="cls-2" d="M663.63,67.69h24v9.74H666.23l.09,8.93h6.42l17,19.23h11.56l-17-19.23h6.63a7.27,7.27,0,0,0,7.27-7.28V66a7.26,7.26,0,0,0-7.27-7.27H654.46v46.83h9.36Z"/><polyline class="cls-2" points="755.13 58.66 741.92 58.66 716.94 79.62 716.94 58.68 707.66 58.68 707.66 105.69 716.94 105.69 716.94 92.12"/><polygon class="cls-2" points="734.02 81.38 755.65 105.69 742.31 105.69 726.36 87.82 734.02 81.38"/></svg>