<svg id="Layer_1" data-name="Layer 1" xmlns="http://www.w3.org/2000/svg" viewBox="0 0 760 150"><defs><style>.cls-1{fill:#647881;}.cls-2{fill:#00b39f;}.cls-3{fill:#00d3a9;}.cls-4{fill:#9fbfcd;}.cls-5{fill:#477e96;}.cls-6{fill:#fff;}</style></defs><g id="Gauge"><path class="cls-1" d="M59.28,48.55A162.21,162.21,0,0,1,77.2,40.43l-1.52-7.49A180.56,180.56,0,0,0,56.8,43.65Z"/><path class="cls-2" d="M174.67,36.32l15.5-17.48A178.2,178.2,0,0,0,159.9,15l-9,16.47A167.54,167.54,0,0,1,174.67,36.32Z"/><path class="cls-1" d="M55.72,50.41l-2.25-4.56c-4.68,3.21-9.25,6.65-13.59,10.26l2.37,2.81C46.65,55.88,51.16,53.06,55.72,50.41Z"/><path class="cls-3" d="M204.66,48.44,227.88,32a166.12,166.12,0,0,0-33.31-12.18l-15.73,17.7A162,162,0,0,1,204.66,48.44Z"/><path class="cls-4" d="M39,61.24l-2.14-2.6a155.55,155.55,0,0,0-11.62,11L27,71Q32.8,65.9,39,61.24Z"/><path class="cls-3" d="M231.83,34.06,208.55,50.53a170.18,170.18,0,0,1,28.24,20.12l30.27-11.78A169,169,0,0,0,231.83,34.06Z"/><path class="cls-4" d="M22.47,72.57A191.1,191.1,0,0,0,6.12,93.14,167,167,0,0,1,24,73.75Z"/><path class="cls-5" d="M104.37,21.78l-.62,11.16a157.39,157.39,0,0,1,17.93-2.26L125.57,17A187,187,0,0,0,104.37,21.78Z"/><path class="cls-2" d="M125.85,30.46c2-.06,4.12-.12,6.2-.12,4.91,0,9.81.23,14.6.68l8.8-16.12a175.59,175.59,0,0,0-25.65,1.52Z"/><path class="cls-5" d="M80.87,39a151.21,151.21,0,0,1,18.88-5.3L100.37,23a168.58,168.58,0,0,0-21,8.17Z"/></g><g id="Needle"><path class="cls-6" d="M122.54,104.59a11.93,11.93,0,1,0,10.94,12.85A11.94,11.94,0,0,0,122.54,104.59Zm-1.29,16.79a4.92,4.92,0,1,1,5.3-4.51A5,5,0,0,1,121.25,121.38Z"/><path class="cls-6" d="M159.3,53c-1.47,1-2.82,2.08-4.23,3.16l-5.24,8.34L139.29,81.08,128.74,97.71l-2.65,4.17L124.8,104a7.13,7.13,0,0,1-.68,1,3.1,3.1,0,0,0-.68,1c-.39,1.7-.73,3.39-1.07,5.13a1.77,1.77,0,0,0-.05.51,4.9,4.9,0,0,1,3.44,2.2,2.94,2.94,0,0,1,.45-.28c1.46-1,2.82-2.09,4.22-3.16a2.52,2.52,0,0,0,.63-1.07,8.42,8.42,0,0,1,.62-1.07l1.29-2.09,2.65-4.17,10.54-16.63L156.7,68.73,162,60.39c.39-1.69.73-3.44,1.07-5.19s.56-3.49.79-5.3C162.23,50.92,160.71,51.88,159.3,53Z"/></g><polygon class="cls-6" points="361.19 65.16 361.19 67.16 361.19 76.56 361.19 88.04 361.19 104.78 405.78 104.78 405.78 95.38 370.6 95.38 370.6 88.04 370.6 85.97 397.63 85.97 397.63 76.56 370.6 76.56 370.6 67.16 405.78 67.16 405.78 57.75 361.19 57.75 361.19 65.16"/><path class="cls-6" d="M467.5,92.49a11.93,11.93,0,0,1-1,4.77,12.28,12.28,0,0,1-2.67,3.92,13,13,0,0,1-3.92,2.63,11.94,11.94,0,0,1-4.8,1h-44v-9.9h44a2.36,2.36,0,0,0,2.39-2.39V88.67a2.36,2.36,0,0,0-2.39-2.39H423.47a11.71,11.71,0,0,1-4.76-1,12.49,12.49,0,0,1-6.62-6.61,12,12,0,0,1-1-4.77V70.11a12.11,12.11,0,0,1,1-4.8,12.64,12.64,0,0,1,6.62-6.59,11.88,11.88,0,0,1,4.76-1h44v10h-44a2.36,2.36,0,0,0-2.38,2.39v3.82a2.36,2.36,0,0,0,2.38,2.38h31.67a12.11,12.11,0,0,1,4.8,1,12.73,12.73,0,0,1,6.59,6.59,12.15,12.15,0,0,1,1,4.8Z"/><path class="cls-6" d="M526.82,104.78h-9V86.28h-35v18.5h-9V76.31h43.94V57.75h9ZM482.88,71.9h-9V57.75h9Z"/><path class="cls-6" d="M354,104.78H344V70.48a2.77,2.77,0,0,0-.22-1.07,2.94,2.94,0,0,0-.6-.87,2.86,2.86,0,0,0-.88-.6,2.72,2.72,0,0,0-1.06-.22H295.14v-10h46.09a12.26,12.26,0,0,1,4.92,1,12.56,12.56,0,0,1,6.8,6.81,12.24,12.24,0,0,1,1,4.92Zm-48.85,0h-10V67.72h10Zm24.39,0h-10V73h10Z"/><path class="cls-6" d="M592.45,104.78h-10V70.48a2.6,2.6,0,0,0-.22-1.07,2.73,2.73,0,0,0-.59-.87,3.12,3.12,0,0,0-.88-.6,2.77,2.77,0,0,0-1.07-.22H533.63v-10h46.09a12.19,12.19,0,0,1,4.92,1,12.62,12.62,0,0,1,6.81,6.81,12.23,12.23,0,0,1,1,4.92Zm-48.85,0h-10V67.72h10Zm24.39,0H558V73h10Z"/><polygon class="cls-6" points="617.25 57.75 598.44 104.78 609.16 104.78 621.95 71.86 631.07 95.38 615.43 95.38 611.92 104.78 645.47 104.78 626.65 57.75 617.25 57.75"/><path class="cls-6" d="M661.11,66.78h24v9.74H663.71l.09,8.93h6.42l17,19.23h11.56l-17-19.23h6.63a7.27,7.27,0,0,0,7.28-7.27V65.13a7.28,7.28,0,0,0-7.28-7.28H651.94v46.83h9.37Z"/><polyline class="cls-6" points="752.61 57.75 739.4 57.75 714.42 78.72 714.42 57.78 705.14 57.78 705.14 104.78 714.42 104.78 714.42 91.22"/><polygon class="cls-6" points="731.5 80.47 753.13 104.78 739.79 104.78 723.85 86.91 731.5 80.47"/></svg>