<svg id="Layer_1" data-name="Layer 1" xmlns="http://www.w3.org/2000/svg" viewBox="0 0 2000 721.75"><defs><style>.cls-1{fill:none;}</style></defs><g id="Layer_2" data-name="Layer 2"><g id="Layer_1-2" data-name="Layer 1-2"><path d="M560.5,253.32a3.44,3.44,0,0,1,.54-3.27c13.74-17.34,26.21-37.3,26.21-52.61,0-34-19.41-61.65-61.65-61.65-20.93,0-36.29,6.8-46.38,17.75a3.53,3.53,0,0,1-3.69,1,315.24,315.24,0,0,0-49.35-11.68,3.44,3.44,0,0,0-3.78,4.31c3.49,13.08,24.44,96.22,41.31,159.51,10.21,38.3-16.23,75.92-55.87,75.8H383.3c-40.05,0-64.35-37.75-55.13-75.39C343.75,243.48,365.09,161,368.56,147.4a3.43,3.43,0,0,0-3.74-4.29,269.5,269.5,0,0,0-57.17,13.09,3.53,3.53,0,0,1-3.88-1.07c-10.09-11.86-25.82-19.28-47.62-19.28-42.24,0-61.65,27.6-61.65,61.66,0,17.85,17,42,33.1,61a3.53,3.53,0,0,1,.64,3.36l-27.48,79.82a.53.53,0,0,0,0,.25c-.73,2.79-11.34,49.89,69.29,124.86,24.13,22.47,108.19,103.45,123.3,117.91a3.38,3.38,0,0,0,4.69,0c15.53-14.44,102.73-95.37,127-117.91,87.12-81.25,66.37-125.11,66.37-125.11Z"/><path d="M412.08,329.63H379.24a9.85,9.85,0,0,1-9.84-9.85v0l-4.08-40.43a9.84,9.84,0,0,1,9.84-9.85H416a9.84,9.84,0,0,1,9.86,9.82v0l-3.92,40.43a9.85,9.85,0,0,1-9.79,9.89Z"/><polygon points="969.19 220.64 896.83 220.64 812.07 332.19 794.88 332.19 794.88 220.64 729.71 220.64 729.71 500.52 794.88 500.52 794.88 381.76 812.86 381.76 896.83 500.52 973.59 500.52 865.25 352.17 969.19 220.64"/><path d="M1132.83,451.69h-52.16c-10.79,0-14.4-1.2-18-4.8s-4.81-8.8-4.81-18V280.6h-61.5V435.73c0,32,4,43.58,12.79,52.79,8.39,8.39,20.41,12.38,39.6,12.38h26.78c20,0,29.18-4.4,57.16-29.48v29.21h61.57v-220h-61.45Z"/><path d="M1552.52,292.53c-8.39-8.39-20.4-12.38-39.18-12.38h-18.78c-20.79,0-30,4.39-60,32a36.87,36.87,0,0,0-10.38-19.59c-8.42-8.39-20.41-12.38-39.19-12.38h-18.8c-20.4,0-29.18,4-57.57,29.48v-29h-61.23v220h61.07V329h44.08c10.8,0,14.79,1.59,18.39,5.2,3.2,3.19,4.79,8.39,4.79,18V500.54H1437V329h43.2c10.8,0,14.79,1.59,18.39,5.2,3.2,3.19,4.81,8.39,4.81,18V500.54h62V345.39C1565.34,312.94,1561.73,301.39,1552.52,292.53Z"/><path d="M1787.23,293.05c-8-8.39-21.18-12.41-43.57-12.41h-67.87c-20,0-29.25,2.95-56.85,28.08v20.09l100.37.18c9.21,0,13.2.79,16,3.2,2.79,3.2,4,7.16,4,28.75v11.64a283.65,283.65,0,0,0-60.16-6.4c-39.6,0-52.39,4.79-62.39,14.79-8.68,8.7-12.76,23.33-13.47,46.21v8.37c0,32,4,43.56,12.79,52.77,8.42,8.39,20.41,12.4,39.6,12.4h26.78c19.91,0,29.11-4.38,56.85-29.3h0v29.16h61.22V351.83C1800.51,314.64,1797.23,303.05,1787.23,293.05Zm-99.6,158.58c-10.79,0-14.38-1.21-18-4.81s-4.81-8.78-4.81-18V403.39l74.43-.34v24.22h0v24.31Z"/><rect class="cls-1" width="2000" height="721.75"/></g></g></svg>