<svg xmlns="http://www.w3.org/2000/svg" xmlns:xlink="http://www.w3.org/1999/xlink" id="Layer_1" x="0" y="0" version="1.1" viewBox="0 0 512 412.6" xml:space="preserve" style="enable-background:new 0 0 512 412.6"><style type="text/css">.st0{fill:#657981}.st1{fill:#477e96;stroke:#000;stroke-width:12;stroke-miterlimit:10}</style><g><path d="M445.9,162.6c13.9,3.5,17,11,16.9,22.8c-0.6,59.3-0.3,118.7-0.3,179.3c12.7,0,25.1,0.2,37.5-0.1 c8.6-0.2,11.9,3.8,11.9,12.2c0,21-13.8,35.7-34.4,35.7c-147.7,0-295.3,0.1-443,0c-22.8,0-35.8-14-34.6-36.1 c0.5-8.5,4.1-12,12.5-11.8c11.9,0.3,23.9,0.1,37.1,0.1c0-5.8,0-10.8,0-15.8c0-79.6,0-159.2,0-238.8c0-25.7,7.7-33.2,33.6-33.2 c36.8,0,73.6,0,111.3,0c0,5.2,0,9.3,0,14.2c-2.6,0.5-5.3,1.4-8,1.4c-34,0.1-68.1,0.5-102.1-0.1c-13.3-0.2-18.6,3.4-18.4,17.9 c0.7,79.1,0.6,158.2,0.1,237.3c-0.1,13.3,4.4,17.3,17.5,17.3c115.1-0.4,230.1-0.4,345.2,0c13.1,0,17.6-4,17.5-17.3 C445.6,286.2,445.9,224.9,445.9,162.6z M17.6,381.4c0.6,13.4,8.8,15.1,18.6,15c50.3-0.1,100.6,0,151,0c95.4,0,190.7-0.1,286.1,0.1 c10.4,0,18.9-1.2,20.6-15.1C335,381.4,177.1,381.4,17.6,381.4z"/><path d="M195.5,108.7c-0.3,6.1-0.5,10.3-0.8,16.1c-31.6,0-62.5,0-94.3,0c0,69.8,0,138,0,207.1c104.1,0,207.3,0,312.1,0 c0-44.6,0-88.5,0-133.6c6-0.3,10.5-0.6,16.6-0.9c0,26.8,0,52.6,0,78.3c0,19.6-0.3,39.3,0.1,58.9c0.2,9.9-3.5,13.7-13.4,13.7 c-106.4-0.2-212.8-0.2-319.2,0c-9.6,0-13.7-3.2-13.7-13.4c0.3-70.9,0.2-141.8,0.1-212.8c0-7.2,0.3-13.6,10.2-13.5 C126.8,108.8,160.2,108.7,195.5,108.7z"/><path d="M17.6,381.4c159.5,0,317.4,0,476.2,0c-1.7,13.9-10.2,15.1-20.6,15.1c-95.4-0.2-190.7-0.1-286.1-0.1 c-50.3,0-100.6,0-151,0C26.3,396.5,18.1,394.8,17.6,381.4z" class="st0"/><g><path d="M423.5,93.5h-9.1c-6.2,0-12.1-2.3-16.6-6.9c-4.4-4.5-6.8-10.2-6.8-16.5c0-6.5,2.7-12.5,7.5-17l5.7-5.7 c1-1,1.5-2.3,1.5-3.7c0-1.4-0.6-2.7-1.6-3.7l-13.4-13.3c-0.9-0.8-2.3-1.4-3.8-1.4c-1.4,0-2.8,0.5-3.8,1.4l-5.5,5.5 c-4.6,4.9-10.7,7.6-17.2,7.6c-6.3,0-12.2-2.4-16.7-6.7c-4.6-4.5-7.2-10.4-7.2-16.6V7.5c0-2.9-2.1-5.5-4.8-5.5h-18.4 c-2.7,0-5.1,2.5-5.1,5.5v9.1c0,6.3-2.5,12.1-7.1,16.6c-4.5,4.3-10.4,6.7-16.6,6.7c-6.4,0-12.5-2.6-16.9-7.5l-5.7-5.7l-0.1-0.1 l-0.1-0.1c-0.8-0.8-2.2-1.3-3.7-1.3c-1.4,0-2.8,0.5-3.8,1.4L241,40.1c-1.3,1.3-1.5,2.9-1.5,3.7c0,0.8,0.2,2.3,1.5,3.7l5.5,5.5 c4.9,4.5,7.6,10.6,7.6,17.1c0,6.2-2.4,12-6.8,16.6c-4.5,4.6-10.4,6.9-16.6,6.9h-9.1c-3,0-5.5,2.6-5.5,5.3v9.1v9.2 c0,2.7,2.5,5.3,5.5,5.3h9.2c6.2,0,12.1,2.3,16.6,6.9c4.4,4.5,6.8,10.2,6.8,16.5c0,6.5-2.7,12.6-7.6,17.2l-5.5,5.4 c-2,2-2,5.4,0,7.3l13.4,13.4l0.1,0.1l0.1,0.1c0.8,0.8,2.2,1.3,3.7,1.3c1.4,0,2.8-0.5,3.8-1.4l5.6-5.6c4.4-4.8,10.5-7.5,16.9-7.5 c6.2,0,12.1,2.4,16.6,6.7c4.6,4.5,7,10.4,7,16.6v9.1c0,2.9,2.5,5.5,5.2,5.5h18.3c2.8,0,5.4-2.5,5.4-5.5v-9.1 c0-6.3,2.4-12.1,7-16.6c4.5-4.3,10.3-6.7,16.6-6.7c6.4,0,12.5,2.7,17.2,7.6l5.5,5.5c0.9,0.9,2.3,1.4,3.8,1.4 c1.4,0,2.8-0.5,3.8-1.4l13.4-13.4c2-2,2-5.4,0-7.4l-5.7-5.7c-4.9-4.5-7.5-10.5-7.5-17c0-6.3,2.4-12.2,6.8-16.7 c4.5-4.6,10.4-7.2,16.6-7.2h9.1c3,0,4.4-2.2,4.4-4.8v-9.1v-9C428,96.5,426.8,93.5,423.5,93.5z M363.4,148.8 c-10.9,10.9-25.4,16.9-40.9,16.9c-15.4,0-30-6-40.9-16.9c-10.9-11-16.9-25.4-16.9-40.9s6-30,16.9-40.9 c10.9-10.9,25.4-16.9,40.9-16.9c15.5,0,30,6,40.9,16.9c10.9,11,16.9,25.4,16.9,40.9C380.4,123.4,374.3,137.9,363.4,148.8z" class="st1"/></g></g></svg>