<svg version="1.0" xmlns="http://www.w3.org/2000/svg"
 width="200.000000pt" height="200.000000pt" viewBox="0 0 200.000000 200.000000"
 preserveAspectRatio="xMidYMid meet">

<g transform="translate(0.000000,200.000000) scale(0.100000,-0.100000)"
fill="#00b39f" stroke="none">
<path d="M496 1889 c-24 -19 -26 -27 -26 -90 l0 -69 -120 0 c-133 0 -178 -13
-219 -66 -41 -52 -42 -77 -39 -674 l3 -575 23 -37 c13 -20 40 -47 60 -60 37
-23 37 -23 491 -26 l453 -3 -5 23 c-3 13 -9 44 -12 70 l-7 48 -422 0 c-315 0
-425 3 -434 12 -9 9 -12 116 -12 420 l0 408 670 0 670 0 0 -184 0 -184 28 -6
c15 -3 46 -8 70 -11 l42 -7 0 351 c0 377 -2 395 -53 449 -38 41 -59 47 -192
52 l-130 5 -5 72 c-3 40 -11 78 -18 85 -18 18 -141 22 -172 6 -22 -12 -26 -21
-30 -88 l-5 -75 -202 -3 -203 -2 0 65 c0 57 -3 69 -25 90 -21 21 -33 25 -88
25 -50 0 -70 -5 -91 -21z"/>
<path d="M592 1158 c-7 -7 -12 -40 -12 -78 0 -38 5 -71 12 -78 7 -7 39 -12 73
-12 34 0 66 5 73 12 7 7 12 40 12 78 0 38 -5 71 -12 78 -7 7 -39 12 -73 12
-34 0 -66 -5 -73 -12z"/>
<path d="M833 1163 c-9 -3 -13 -30 -13 -83 0 -89 1 -90 81 -90 80 0 89 9 89
88 0 40 -5 73 -12 80 -12 12 -120 16 -145 5z"/>
<path d="M1062 1158 c-7 -7 -12 -40 -12 -78 0 -38 5 -71 12 -78 7 -7 39 -12
73 -12 34 0 66 5 73 12 7 7 12 41 12 84 0 56 -3 73 -16 78 -28 11 -130 6 -142
-6z"/>
<path d="M1303 1163 c-9 -3 -13 -30 -13 -83 0 -89 1 -90 81 -90 80 0 89 9 89
88 0 40 -5 73 -12 80 -12 12 -120 16 -145 5z"/>
<path d="M352 928 c-12 -12 -17 -114 -6 -142 5 -13 22 -16 84 -16 89 0 90 1
90 81 0 80 -9 89 -88 89 -40 0 -73 -5 -80 -12z"/>
<path d="M591 926 c-7 -9 -11 -41 -9 -83 l3 -68 80 0 80 0 3 74 c2 53 -1 77
-10 82 -23 15 -134 10 -147 -5z"/>
<path d="M824 927 c-3 -8 -4 -45 -2 -83 l3 -69 80 0 80 0 3 68 c2 42 -2 74 -9
83 -16 19 -147 20 -155 1z"/>
<path d="M1061 926 c-7 -9 -11 -40 -9 -83 l3 -68 80 0 80 0 0 80 0 80 -71 3
c-52 2 -74 -1 -83 -12z"/>
<path d="M1473 756 c-150 -49 -256 -206 -239 -354 13 -111 80 -214 173 -264
223 -121 496 37 497 287 1 96 -24 163 -85 230 -67 73 -138 107 -232 111 -43 2
-89 -2 -114 -10z m160 -358 l-108 -108 -65 65 -65 66 35 29 35 29 26 -25 c14
-13 29 -24 35 -24 5 0 41 31 79 70 l69 70 33 -32 33 -32 -107 -108z"/>
<path d="M352 698 c-12 -12 -17 -114 -6 -142 5 -13 22 -16 84 -16 89 0 90 1
90 81 0 80 -9 89 -88 89 -40 0 -73 -5 -80 -12z"/>
<path d="M591 696 c-7 -9 -11 -41 -9 -83 l3 -68 80 0 80 0 3 74 c2 53 -1 77
-10 82 -23 15 -134 10 -147 -5z"/>
<path d="M824 697 c-3 -8 -4 -45 -2 -83 l3 -69 80 0 80 0 3 68 c2 42 -2 74 -9
83 -16 19 -147 20 -155 1z"/>
</g>
</svg>
