<svg xmlns="http://www.w3.org/2000/svg" xmlns:xlink="http://www.w3.org/1999/xlink" id="Layer_1" width="391.1" height="74" x="0" style="enable-background:new 0 0 391.1 74" y="0" version="1.1" viewBox="0 0 391.1 74" xml:space="preserve"><style type="text/css">.st0{fill:#d3002d}</style><polygon points="196.6 16.3 196.6 5.8 152.5 5.8 152.5 69.1 196.6 69.1 196.6 58.6 163.1 58.6 163.1 42.7 194.9 42.7 194.9 32.2 163.1 32.2 163.1 16.3" class="st0"/><polygon points="229.2 69.1 229.2 5.8 239.8 5.8 239.8 58.6 270.3 58.6 270.3 69.1" class="st0"/><polygon points="278.9 69.1 278.9 5.8 289.4 5.8 289.4 58.6 319.9 58.6 319.9 69.1" class="st0"/><rect width="10.6" height="63.3" x="207.6" y="5.8" class="st0"/><path d="M20.7,21.9c-4.1,4.1-6.6,9.7-6.6,15.9c0,6.2,2.5,11.8,6.6,15.9c4.1,4.1,9.7,6.6,15.9,6.6	c6.2,0,11.8-2.5,15.9-6.6C56.5,49.5,59,44,59,37.8c0-6.2-2.5-11.8-6.6-15.9c-4.1-4.1-9.7-6.6-15.9-6.6	C30.3,15.3,24.8,17.8,20.7,21.9 M3.6,37.8c0-18.2,14.8-33,33-33c18.2,0,33,14.8,33,33c0,18.2-14.8,33-33,33	C18.3,70.7,3.6,56,3.6,37.8" class="st0"/><path d="M102.2,32.2V16.3h21.3c4.4,0,7.9,3.5,7.9,7.9c0,4.4-3.5,7.9-7.9,7.9H102.2z M128.7,42	c7.6-2.3,13.2-9.3,13.2-17.7c0-10.2-8.3-18.5-18.5-18.5H91.6v63.3h10.6V42.7h14.7l15.9,26.4h12.3L128.7,42z" class="st0"/><path d="M84.1,12.5c0,4.3-3.5,7.8-7.8,7.8c-4.3,0-7.8-3.5-7.8-7.8c0-4.3,3.5-7.8,7.8-7.8C80.7,4.8,84.1,8.2,84.1,12.5" class="st0"/><polygon points="366.9 5.8 354.1 5.8 337.9 29.3 321.6 5.8 308.8 5.8 332.6 40.2 332.6 69.1 343.1 69.1 343.1 40.3" class="st0"/><g><path d="M379.4,18.8c-3.6,0-6.6-2.9-6.6-6.6c0-3.6,2.9-6.6,6.6-6.6c3.6,0,6.6,2.9,6.6,6.6 C386,15.8,383.1,18.8,379.4,18.8 M379.4,4.4c-4.3,0-7.8,3.5-7.8,7.8c0,4.3,3.5,7.8,7.8,7.8c4.3,0,7.8-3.5,7.8-7.8 C387.2,7.9,383.7,4.4,379.4,4.4" class="st0"/><path d="M377.5,9.5h3.1c0.6,0,1,0.4,1,1c0,0.6-0.4,1-1,1h-3.1V9.5z M382.9,10.5c0-1.3-1-2.3-2.3-2.3h-4.4v8h1.3v-3.3 h2.2l1.6,3.3h1.5l-1.6-3.4C382.2,12.5,382.9,11.6,382.9,10.5" class="st0"/></g></svg>