<svg width="1654" height="1080" viewBox="0 0 1654 1080" fill="none" xmlns="http://www.w3.org/2000/svg">
    <g clip-path="url(#clip0_21866_679)">
        <rect width="1654" height="1080" rx="16" fill="url(#paint0_linear_21866_679)"/>
        <g filter="url(#filter0_f_21866_679)">
            <ellipse cx="827" cy="637.5" rx="493" ry="312.5" fill="#00B39F"/>
        </g>
        <g style="mix-blend-mode:overlay" opacity="0.2" clip-path="url(#clip1_21866_679)">
            <path d="M1652.43 2.28217H1130.07C1051.72 2.1248 972.899 2.1248 888.891 2.28217H1.6875V0.157584H888.891C972.899 0.000206523 1051.84 0.000206523 1130.07 0.157584H1652.31V2.28217H1652.43Z" fill="white"/>
            <path d="M737.508 59.0166C726.179 59.0166 714.849 59.0166 703.64 59.0166H1.6875V56.8921H703.64C724.13 56.8921 744.62 56.8921 765.23 56.8921C920.228 52.1707 1074.26 52.1707 1236.01 56.8921C1251.92 56.8921 1267.59 56.8921 1282.9 56.8921H1652.55V59.0166H1282.9C1267.59 59.0166 1251.92 59.0166 1235.89 59.0166C1074.14 54.2953 920.349 54.2953 765.35 59.0166C756.07 59.0166 746.789 59.0166 737.629 59.0166H737.508Z" fill="white"/>
            <path d="M703.76 115.908C684.114 115.751 664.709 115.751 645.425 115.672H642.653H1.56641V113.548H645.425C664.709 113.548 684.114 113.626 703.76 113.784C768.845 113.784 835.858 112.682 900.823 111.58C1031.6 109.456 1166.95 107.253 1295.91 113.39C1313.27 113.469 1330.14 113.548 1346.53 113.548H1652.43V115.672H1346.53C1330.02 115.672 1313.15 115.672 1295.67 115.515C1166.83 109.377 1031.6 111.58 900.823 113.705C835.979 114.728 768.845 115.83 703.76 115.908Z" fill="white"/>
            <path d="M643.497 173.351C622.043 172.722 602.156 172.407 582.63 172.407H1.6875V170.282H582.751C602.276 170.282 622.164 170.597 643.617 171.227C715.693 170.991 789.697 170.361 861.17 169.81C1021.71 168.473 1187.8 167.135 1346.17 170.046C1376.67 170.282 1404.75 170.282 1431.99 170.282H1652.31V172.407H1431.99C1405.95 172.407 1376.55 172.407 1346.05 172.171C1187.68 169.181 1021.71 170.597 861.17 171.935C789.697 172.564 715.693 173.115 643.497 173.351Z" fill="white"/>
            <path d="M1048.71 257.154C1020.87 257.154 992.906 255.974 964.462 253.22C927.942 250.23 892.507 246.767 858.277 243.384C782.465 235.908 710.751 228.905 632.408 227.489C615.534 227.331 598.902 227.882 582.751 229.141H1.6875V227.017H582.751C598.781 225.758 615.655 225.207 632.649 225.364C711.233 226.781 782.947 233.862 859 241.338C893.23 244.722 928.665 248.184 965.185 251.174C1065.1 260.931 1159.72 250.702 1260 239.843C1303.75 235.121 1348.94 230.164 1394.5 227.174C1425.6 227.174 1454.53 227.174 1480.92 227.174H1652.55V229.299H1480.92C1454.41 229.299 1425.6 229.299 1394.62 229.299C1349.43 232.367 1304.23 237.246 1260.48 241.967C1188.4 249.758 1119.22 257.312 1048.83 257.312L1048.71 257.154Z" fill="white"/>
            <path d="M1153.45 357.482C1075.47 355.2 999.535 339.069 926.134 323.489C847.912 306.885 767.038 289.731 681.222 288.158C666.397 287.135 649.403 286.033 632.529 285.482C615.655 284.931 599.022 285.089 582.872 285.876H1.6875V283.751H582.751C598.902 282.964 615.655 282.807 632.649 283.358C649.644 283.908 666.759 285.01 681.463 286.033C767.64 287.607 848.755 304.761 927.219 321.443C1000.5 337.023 1076.19 353.076 1153.69 355.358C1207.2 355.358 1251.68 337.574 1298.68 318.767C1326.53 307.594 1355.45 296.105 1386.19 288.708C1401.98 285.089 1416.92 282.885 1431.87 281.941C1448.14 280.918 1464.77 281.548 1481.16 283.751H1652.55V285.876H1480.92C1464.53 283.672 1448.26 283.121 1432.23 284.066C1417.65 285.01 1402.94 287.135 1387.39 290.754C1356.9 297.994 1328.21 309.482 1300.49 320.577C1255.17 338.676 1208.29 357.482 1153.69 357.482H1153.45Z" fill="white"/>
            <path d="M1125.73 424.682C1089.93 424.682 1053.17 420.197 1014.96 409.495C922.277 381.561 826.458 352.682 719.67 348.276C699.06 346.544 675.919 344.656 652.416 343.476C628.551 342.217 605.772 341.981 582.751 342.61H1.6875V340.485H582.751C605.772 339.856 628.672 340.092 652.778 341.351C676.28 342.531 699.542 344.499 720.032 346.151C827.301 350.636 923.362 379.594 1016.29 407.607C1154.17 446.164 1274.46 402.728 1390.77 360.787C1402.46 356.617 1414.03 352.367 1425.6 348.276C1446.93 343.082 1466.82 339.935 1486.47 338.518C1508.76 336.944 1530.22 337.574 1552.4 340.485H1652.31V342.61H1552.03C1529.98 339.699 1508.64 339.069 1486.83 340.643C1467.42 342.059 1447.9 345.207 1426.93 350.243C1415.6 354.256 1403.91 358.426 1392.33 362.676C1307.36 393.364 1220.22 424.761 1125.61 424.761L1125.73 424.682Z" fill="white"/>
            <path d="M1185.27 460.407C1091.38 460.407 997.486 446.321 905.524 432.551C842.488 423.108 777.283 413.272 713.523 408.394C690.141 405.718 666.277 402.649 642.292 399.423C622.405 399.423 602.397 399.423 582.63 399.423H1.6875V397.299H582.751C602.517 397.299 622.525 397.299 642.774 397.299C667 400.525 690.985 403.594 714.126 406.269C777.885 411.226 843.211 420.984 906.367 430.505C1041.6 450.807 1181.53 471.817 1318.57 447.187C1341.23 443.174 1363.41 437.902 1384.74 431.528C1407.04 424.918 1429.1 416.892 1450.19 407.685C1478.75 396.512 1503.1 396.826 1528.89 397.22C1536.37 397.299 1544.2 397.456 1552.27 397.22C1583.73 397.22 1608.8 397.22 1626.04 397.22H1652.55V399.344H1626.04C1608.8 399.344 1583.85 399.344 1552.4 399.344C1544.32 399.502 1536.49 399.344 1528.89 399.344C1503.58 398.951 1479.72 398.636 1452 409.495C1430.78 418.702 1408.61 426.807 1386.07 433.495C1364.61 439.869 1342.2 445.141 1319.42 449.233C1274.94 457.18 1230.1 460.407 1185.39 460.407H1185.27Z" fill="white"/>
            <path d="M1146.22 494.951C1011.59 494.951 883.949 482.203 765.953 456.866C744.861 456.079 725.215 456.079 703.64 456H1.6875V453.875H703.64C725.456 453.875 745.222 453.954 766.435 454.741H766.797C911.309 485.823 1070.04 497.941 1238.78 490.859C1264.21 489.443 1290.49 487.475 1317.13 485.036C1389.44 478.505 1466.22 468.354 1552.03 454.112C1583.73 453.875 1609.04 453.875 1625.92 453.875H1652.43V456H1625.92C1609.04 456 1583.73 456 1552.4 456.157C1466.94 470.4 1389.92 480.551 1317.49 487.082C1290.85 489.521 1264.46 491.41 1238.9 492.905C1207.57 494.243 1176.71 494.872 1146.1 494.872L1146.22 494.951Z" fill="white"/>
            <path d="M1181.77 541.928C1091.38 541.928 1004.6 532.328 914.322 522.335C885.878 519.187 856.469 515.882 827.181 513.049C806.45 512.813 786.081 512.813 765.35 512.813H1.6875V510.689H765.23C786.081 510.689 806.571 510.689 827.543 511.003C857.072 513.915 886.481 517.141 914.925 520.289C1038.59 533.981 1155.26 546.885 1283.98 535.476C1313.87 532.485 1342.68 528.472 1370.4 524.617C1430.9 516.197 1488.15 508.249 1552.4 510.767C1573.25 510.689 1591.33 510.689 1606.27 510.689H1652.43V512.813H1606.03C1591.21 512.813 1573.13 512.813 1552.27 512.892C1488.4 510.374 1431.39 518.243 1371 526.662C1343.16 530.518 1314.47 534.531 1284.34 537.521C1249.39 540.669 1215.28 541.928 1181.77 541.928Z" fill="white"/>
            <path d="M1171.89 579.463C1080.77 579.463 985.795 576.787 888.771 569.548C868.281 569.548 847.671 569.548 826.94 569.548H622.164C548.401 570.571 466.201 570.807 363.752 570.335C346.155 570.335 328.679 570.178 311.202 570.02C293.726 569.863 276.37 569.705 259.255 569.548C233.703 569.548 209.357 569.548 186.577 569.548H1.6875V567.423H186.818C209.477 567.423 233.824 567.423 259.496 567.423C276.731 567.581 293.967 567.817 311.443 567.896C328.92 568.053 346.396 568.132 363.993 568.21C466.442 568.682 548.521 568.446 622.405 567.423H827.181C847.791 567.423 868.401 567.423 889.132 567.423C1111.02 583.948 1322.79 576.866 1500.57 567.659C1530.82 567.345 1557.22 567.345 1581.56 567.345H1652.55V569.469H1581.56C1557.22 569.469 1530.82 569.469 1500.69 569.784C1400.53 574.899 1289.52 579.463 1172.01 579.463H1171.89Z" fill="white"/>
            <path d="M1215.76 627.226C1136.09 627.226 1057.03 626.912 981.095 626.204C955.543 626.204 929.991 626.204 904.319 626.204H827.06C744.74 626.676 662.179 625.653 582.269 624.63C451.014 622.977 315.18 621.246 177.778 626.44C151.021 626.44 126.192 626.361 102.087 626.204H1.6875V624.079H101.966C126.192 624.236 150.901 624.315 177.658 624.315C315.18 619.122 451.014 620.853 582.389 622.505C662.299 623.528 744.861 624.551 827.181 624.079H904.439C930.112 624.079 955.663 624.079 981.215 624.079C1129.95 625.338 1290.01 625.417 1444.4 624.158C1475.86 624 1504.79 624 1530.22 624H1652.55V626.125H1530.22C1504.79 626.125 1475.86 626.125 1444.4 626.282C1368.95 626.912 1292.06 627.226 1215.88 627.226H1215.76Z" fill="white"/>
            <path d="M1233.48 684.04C1192.26 684.04 1151.28 683.646 1112.47 682.938H888.77C831.76 681.128 774.269 678.453 718.585 675.856C529.598 667.122 334.223 658.072 139.57 681.443C120.045 682.151 99.3143 682.623 72.075 683.017C27.3593 683.017 1.56641 683.017 1.56641 683.017V680.892C1.56641 680.892 27.3593 680.892 72.075 680.892C99.1937 680.499 119.924 680.026 139.209 679.397C334.102 656.026 529.718 665.076 718.826 673.81C774.51 676.407 832.122 679.082 888.891 680.892H1112.59C1190.09 682.387 1276.63 682.387 1356.3 680.892H1652.43V683.017H1356.42C1316.52 683.804 1274.94 684.118 1233.6 684.118L1233.48 684.04Z" fill="white"/>
            <path d="M47.6085 739.672C18.1998 739.672 1.6875 739.672 1.6875 739.672V737.548C1.6875 737.548 18.1998 737.548 47.488 737.548C68.4598 736.525 96.1811 734.951 123.902 732.276C334.585 685.299 570.337 686.794 888.288 737.233C910.224 737.39 931.919 737.469 950.481 737.469H1652.43V739.594H950.481C931.919 739.594 910.104 739.594 887.927 739.358C570.337 688.997 335.067 687.423 124.746 734.322C96.6632 737.076 68.8214 738.571 47.729 739.594L47.6085 739.672Z" fill="white"/>
            <path d="M78.343 797.744C68.0982 797.744 57.6123 797.272 47.1264 796.407C18.1998 796.407 1.6875 796.407 1.6875 796.407V794.282C1.6875 794.282 18.1998 794.282 47.3675 794.282C69.6651 796.171 91.2395 796.013 111.729 793.967C153.793 787.83 190.434 775.397 229.364 762.177C266.246 749.666 304.332 736.761 347.481 729.679C470.901 711.108 579.497 732.354 694.48 754.938C753.9 766.584 815.249 778.623 878.646 784.525C902.872 787.279 926.496 790.426 950.842 794.204H1011.35H1652.43V796.328H950.481C925.893 792.472 902.27 789.325 878.164 786.649C814.646 780.748 753.057 768.63 693.516 756.984C579.015 734.479 470.781 713.312 348.325 731.725C305.538 738.728 267.571 751.554 230.931 764.066C191.88 777.364 154.878 789.876 112.332 796.013C101.243 797.115 89.9137 797.666 78.343 797.666V797.744Z" fill="white"/>
            <path d="M113.055 855.423C106.667 855.423 100.159 855.109 93.2885 854.4C82.682 854.243 71.5935 853.85 60.8666 853.456C56.407 853.299 51.9475 853.141 47.6085 852.984H1.6875V850.859H47.729C52.1886 851.017 56.6481 851.174 61.1076 851.331C71.8346 851.725 82.9231 852.118 93.6501 852.276C153.914 858.177 193.085 835.751 234.426 812.066C261.907 796.328 290.231 780.04 325.545 772.328C402.201 752.341 486.57 764.302 551.534 777.05C576.001 782.4 600.469 788.066 624.213 793.495C708.582 813.01 788.371 831.423 879.128 839.056C901.667 842.204 924.326 845.823 950.722 850.387C970.609 850.859 990.857 850.938 1010.38 850.938H1652.43V853.063H1010.38C990.737 853.063 970.488 853.063 950.24 852.512C923.603 847.948 900.944 844.328 878.526 841.181C787.527 833.469 707.618 815.056 623.128 795.541C599.504 790.112 575.037 784.446 550.57 779.095C486.208 766.505 402.562 754.545 326.75 774.374C291.918 781.928 263.835 798.059 236.596 813.718C199.353 835.122 163.797 855.502 113.176 855.502L113.055 855.423Z" fill="white"/>
            <path d="M1652.43 909.797H1010.02C990.496 909.797 970.368 909.718 950.24 909.167H949.758C926.496 904.21 903.234 899.725 880.334 895.79C819.708 890.912 754.141 877.141 690.744 863.843C529.116 829.849 362.065 794.754 232.98 892.564C214.057 908.066 182.72 907.751 152.347 907.436C135.232 907.279 117.515 907.122 102.087 909.797H101.725C80.8741 909.797 62.6745 909.797 47.8496 909.797H1.6875V907.672H47.8496C62.6745 907.672 80.7536 907.672 101.484 907.672C117.273 904.997 135.112 905.154 152.347 905.312C183.202 905.548 212.37 905.862 230.449 891.226C360.98 792.315 529.116 827.646 691.708 861.876C754.864 875.174 820.311 888.866 880.816 893.744C903.957 897.679 927.339 902.164 950.481 907.121C970.488 907.672 990.496 907.751 1009.9 907.751H1011.23H1652.31V909.876L1652.43 909.797Z" fill="white"/>
            <path d="M1652.43 966.531H1007.85C989.049 966.531 969.765 966.531 950.481 966.217C926.134 962.518 902.752 959.213 880.695 956.223C857.674 952.997 834.533 950.007 809.945 947.016C773.426 943.082 735.942 937.731 699.542 932.538C542.133 910.19 379.421 887.056 232.739 963.62C223.82 966.531 212.972 966.216 201.281 965.823C192.242 965.508 182.961 965.194 173.439 966.217C146.803 966.453 122.938 966.453 101.846 966.453H1.6875V964.328H101.966C123.059 964.328 146.923 964.328 173.319 964.171C182.961 963.148 192.362 963.462 201.643 963.777C213.334 964.171 223.338 964.485 231.172 961.967C378.698 884.853 542.254 908.066 700.386 930.571C736.665 935.764 774.149 941.036 810.548 945.049C835.136 948.039 858.277 951.03 881.298 954.256C903.354 957.167 926.857 960.551 950.842 964.249C969.765 964.407 989.049 964.485 1007.85 964.485H1011.47H1652.55V966.61L1652.43 966.531Z" fill="white"/>
            <path d="M1652.43 1023.27H950.481C927.098 1021.06 903.716 1019.17 880.816 1017.44C857.915 1015.71 834.654 1014.22 811.753 1012.96C793.072 1011.78 768.484 1010.28 743.655 1008.94C718.224 1007.53 695.565 1006.43 674.231 1005.56C569.613 997.928 456.559 1000.45 328.679 1013.27C303.73 1016.34 281.311 1019.57 260.099 1023.19H259.737C228.761 1023.19 199.835 1023.19 173.439 1023.19H1.6875V1021.06H173.319C199.714 1021.06 228.52 1021.06 259.375 1021.06C280.468 1017.52 303.006 1014.3 327.956 1011.15C456.197 998.322 569.493 995.804 674.352 1003.44C695.565 1004.3 718.344 1005.4 743.776 1006.82C768.604 1008.16 793.313 1009.65 811.994 1010.83C834.895 1012.09 858.277 1013.59 881.177 1015.32C904.078 1016.97 927.46 1018.94 950.722 1021.06H1011.47H1652.55V1023.19L1652.43 1023.27Z" fill="white"/>
            <path d="M1652.43 1080H888.891C844.296 1079.37 799.58 1078.98 755.949 1078.66C710.51 1078.35 664.228 1078.27 619.15 1078.27C574.073 1078.27 532.25 1078.43 491.391 1078.66C446.796 1078.98 401.96 1079.37 358.329 1079.92C344.83 1079.92 331.451 1080 318.434 1080H307.587H1.6875V1077.88H318.434C331.451 1077.88 344.709 1077.88 358.208 1077.8C401.96 1077.25 446.675 1076.85 491.271 1076.54C533.455 1076.3 576.845 1076.14 623.61 1076.14C667.361 1076.14 711.957 1076.3 755.829 1076.54C799.46 1076.77 844.175 1077.25 888.771 1077.8H950.24H1652.19V1079.92L1652.43 1080Z" fill="white"/>
            <path d="M3.25424 1.18066H0V1078.9H3.25424V1.18066Z" fill="white"/>
            <path d="M90.1559 1078.9H86.9017V966.846C86.9017 949.613 86.9017 930.728 86.9017 910.584C86.2991 882.413 85.8169 854.164 85.6964 826.702C85.4554 799.476 85.4554 771.62 85.6964 744C85.9375 716.774 86.2991 688.604 86.9017 660.433C87.0222 647.292 87.0222 633.994 87.0222 620.617V1.18066H90.2765V620.617C90.2765 633.994 90.2765 647.213 90.1559 660.433C89.5533 688.604 89.1917 716.695 88.9507 743.922C88.7096 771.62 88.7096 799.397 88.9507 826.623C89.1917 854.086 89.5533 882.256 90.1559 910.505C90.1559 930.728 90.1559 949.613 90.1559 966.846V1078.9Z" fill="white"/>
            <path d="M177.054 1078.9H173.8V1013.43C173.8 999.659 173.8 984.079 173.8 966.689C164.278 861.246 165.242 760.289 167.412 675.463C169.461 644.066 171.63 612.04 173.8 580.407V1.18066H177.054V580.407C174.764 612.118 172.715 644.145 170.666 675.541C168.497 760.368 167.532 861.246 177.054 966.689C177.054 984.079 177.054 999.738 177.054 1013.43V1078.9Z" fill="white"/>
            <path d="M263.954 1078.9H260.7V1061.59C260.7 1050.33 260.7 1034.05 260.7 1013.19C220.564 873.836 217.431 733.771 251.902 608.341L253.348 600.551C255.638 588.197 258.049 575.607 260.58 562.938C260.7 551.528 260.7 539.804 260.7 528.394V1.18066H263.954V528.472C263.954 539.804 263.954 551.607 263.713 563.174C261.182 575.922 258.772 588.591 256.482 600.945L255.035 608.813C220.685 734.007 223.698 873.836 263.834 1013.12C263.834 1034.12 263.834 1050.49 263.834 1061.67V1078.98L263.954 1078.9Z" fill="white"/>
            <path d="M347.603 1079.06C343.505 1062.53 340.01 1047.66 336.755 1033.73C293.727 880.918 260.823 731.961 330.729 590.479C335.309 577.889 341.094 562.151 347.482 546.728C347.603 534.374 347.603 522.099 347.603 509.823V1.18066H350.857V509.745C350.857 522.099 350.857 534.453 350.737 546.807V547.043C344.349 562.545 338.563 578.282 333.863 590.951C264.198 732.118 296.981 880.682 340.01 1033.26C343.264 1047.27 346.759 1062.14 350.857 1078.66L347.603 1078.98V1079.06Z" fill="white"/>
            <path d="M437.636 1077.8H434.382C435.105 1065.05 434.382 1051.99 432.212 1039C424.016 999.423 401.357 960.551 379.421 922.938C345.914 865.417 311.323 805.928 324.461 740.066C330.969 708.118 355.316 680.499 378.939 653.823C407.866 621.089 437.756 587.174 434.382 545.154C434.382 533.272 434.382 521.548 434.382 509.745V1.18066H437.636V509.745C437.636 521.548 437.636 533.272 437.636 545.076C441.131 587.725 410.999 621.876 381.832 654.925C358.449 681.443 334.223 708.827 327.835 740.381C314.818 805.692 349.289 864.945 382.675 922.23C404.611 960 427.391 998.951 435.587 1038.77C437.756 1051.83 438.48 1064.97 437.756 1077.8H437.636Z" fill="white"/>
            <path d="M521.042 1075.12C521.042 1058.83 518.511 1043.17 513.69 1027.12C504.771 1011.62 495.008 995.489 485.607 979.987C409.554 854.4 330.97 724.643 499.106 602.125L499.468 601.967C519.475 593.233 528.153 571.043 521.404 545.312V509.823V1.25928H524.658V545.154C531.528 571.436 522.489 594.413 501.517 603.699C334.827 725.194 413.049 854.322 488.741 979.2C498.142 994.781 507.905 1010.83 516.944 1026.57C521.886 1042.94 524.296 1058.75 524.417 1075.12H521.163H521.042Z" fill="white"/>
            <path d="M607.941 1073.94C602.759 1057.02 597.696 1040.5 591.791 1023.9C502.962 872.735 443.301 714.177 606.616 580.092C608.062 565.456 608.182 550.977 608.182 540.04V342.138C607.58 285.089 607.58 228.59 608.182 169.495V1.18066H611.437V169.574C610.834 228.669 610.834 285.089 611.437 342.138V540.04C611.437 551.135 611.196 565.692 609.749 580.564V580.879L609.388 581.115C446.675 714.492 506.216 872.42 594.804 1023.27C600.71 1039.95 605.892 1056.55 611.075 1073.47L607.821 1073.86L607.941 1073.94Z" fill="white"/>
            <path d="M694.963 1075.36C691.949 1059.78 689.177 1044.59 686.646 1030.27L684.718 1022.32C681.705 1010.2 678.691 997.692 675.075 985.338C584.318 847.161 630.721 708.984 694.48 580.328C695.204 562.702 695.204 544.84 695.204 527.45V439.554C696.047 425.548 696.65 410.833 697.132 395.804C697.614 381.089 697.855 366.295 697.976 351.817C694.722 259.043 694.842 170.991 695.204 88.6823V1.18066H698.458V88.6823C698.096 170.991 697.976 259.043 701.23 351.817C701.23 366.295 700.868 381.168 700.386 395.882C699.904 410.912 699.302 425.627 698.458 439.633V527.45C698.458 544.84 698.458 562.859 697.735 580.486V580.8C634.096 709.141 587.814 846.846 678.209 984.709C681.946 997.299 685.079 1009.81 687.972 1021.93L689.9 1029.88C692.431 1044.28 695.204 1059.38 698.217 1075.04L694.963 1075.28V1075.36Z" fill="white"/>
            <path d="M781.982 1077.8C781.259 1063 780.656 1047.58 780.174 1032C779.692 1018.47 779.21 1004.85 778.728 991.24V985.889C735.338 879.266 755.707 765.404 775.233 655.24C777.282 643.672 779.331 632.105 781.38 620.538C781.862 607.712 781.862 594.807 781.862 580.486V509.823C784.152 499.515 786.201 489.286 787.888 478.505C789.575 468.433 790.901 458.204 791.986 447.974C803.557 358.977 796.687 270.925 790.058 185.705C785.96 133.141 781.741 78.7675 781.862 24.5512V1.18066H785.116V24.4725C785.116 78.6889 789.214 132.984 793.312 185.548C799.941 270.846 806.811 359.056 795.24 448.132C794.156 458.282 792.709 468.591 791.142 478.663C789.334 489.443 787.406 499.672 785.116 509.902V580.407C785.116 594.728 785.116 607.633 784.634 620.617C782.585 632.263 780.536 643.909 778.487 655.476C758.841 765.404 738.592 879.03 781.741 985.574L781.982 991.161C782.464 1004.77 782.826 1018.39 783.429 1031.92C783.911 1047.5 784.513 1062.93 785.236 1077.72H781.982V1077.8Z" fill="white"/>
            <path d="M872.137 1078.9H868.883V934.82C868.883 916.564 868.642 901.534 868.16 887.607C863.941 837.482 865.508 786.964 867.195 738.02C868.039 712.525 868.883 686.164 868.883 660.354V594.806C868.883 583.79 868.883 572.774 868.883 561.679V561.285C877.802 547.2 885.395 532.643 891.542 517.849C916.732 416.813 901.425 312.629 886.6 211.829C876.355 142.505 865.869 70.7409 868.883 1.10156H872.137C869.124 70.6622 879.73 142.347 889.855 211.593C904.679 312.472 919.986 416.813 894.676 518.243C888.529 533.115 880.935 547.751 872.137 561.836C872.137 572.852 872.137 583.79 872.137 594.728V660.275C872.137 686.085 871.293 712.525 870.45 738.02C868.883 786.885 867.195 837.403 871.414 887.449C871.896 901.377 872.137 916.406 872.137 934.741V1078.82V1078.9Z" fill="white"/>
            <path d="M958.917 1078.9H955.663V966.767C955.904 915.305 955.904 863.056 955.663 811.358V658.466C955.663 645.089 955.663 631.633 955.663 618.02C955.663 591.187 958.676 571.672 964.943 554.597C973.019 532.8 986.759 515.725 1007.01 502.348C1040.51 475.279 1057.51 446.794 1057.51 417.836C1051.48 359.292 1027.86 302.164 1004.96 246.925C972.416 168.394 938.789 87.2657 955.663 0.865723L958.917 1.10179C942.043 87.0297 975.67 168 1008.09 246.295C1030.99 301.613 1054.74 358.898 1060.76 417.758C1060.76 447.266 1043.53 476.144 1009.42 503.685C989.531 516.826 976.032 533.587 968.077 554.99C961.81 571.908 959.037 591.266 958.917 617.941C958.917 631.476 958.917 644.931 958.917 658.387V811.279C959.158 862.977 959.158 915.226 958.917 966.689V1078.82V1078.9Z" fill="white"/>
            <path d="M1045.82 1078.9H1042.56V660.354C1030.87 621.01 1050.28 586.859 1068.48 561.521C1076.19 550.82 1084.75 540.433 1092.1 531.698C1145.37 483.226 1165.98 425.941 1151.88 365.98C1138.26 326.085 1119.58 287.764 1101.5 250.623C1061 167.528 1022.8 89.0755 1042.56 0.944336L1045.82 1.25909C1026.17 88.9181 1064.26 167.134 1104.63 249.993C1122.71 287.134 1141.4 325.613 1155.01 365.587C1169.36 426.177 1148.51 484.013 1094.75 532.879C1087.52 541.456 1078.96 551.843 1071.37 562.466C1053.29 587.489 1034.13 621.246 1045.7 660.197V693.718V1078.9H1045.82Z" fill="white"/>
            <path d="M1132.72 1078.9H1129.46V693.718C1116.81 636.669 1151.04 587.252 1184.18 539.567C1188.28 533.666 1192.38 527.764 1196.36 521.862C1203.95 510.61 1213.71 495.738 1221.79 480.236C1239.75 449.784 1246.01 416.892 1239.02 389.744C1227.69 363.856 1215.4 338.125 1203.35 313.259C1153.57 209.547 1106.56 111.659 1129.46 1.10156L1132.72 1.41632C1109.94 111.502 1156.82 209.233 1206.48 312.708C1218.41 337.574 1230.83 363.384 1242.16 389.351C1249.27 416.97 1242.88 450.334 1224.8 481.023C1216.85 496.525 1206.96 511.475 1199.37 522.728C1195.39 528.629 1191.29 534.531 1187.2 540.433C1152.72 590.085 1120.3 636.984 1132.72 693.561V1078.9Z" fill="white"/>
            <path d="M1219.62 1078.9H1216.36V693.718C1207.69 641.863 1230.47 595.043 1254.69 545.548C1261.92 530.676 1269.4 515.331 1275.9 499.909C1281.93 485.509 1286.51 472.604 1289.77 460.407C1293.14 398.243 1272.17 335.922 1251.8 275.646C1228.9 207.581 1205.16 137.154 1216.12 66.2561C1216.12 46.0331 1216.24 29.6659 1216.24 18.4921V1.18066H1219.5V18.4921C1219.5 29.7446 1219.5 46.0331 1219.38 66.4135C1208.41 137.154 1232.03 207.345 1254.93 275.253C1275.3 335.686 1296.39 398.164 1292.9 460.722C1289.52 473.076 1284.94 486.059 1278.92 500.538C1272.41 515.961 1264.94 531.384 1257.58 546.256C1233.48 595.594 1210.82 642.099 1219.5 693.64V1078.98L1219.62 1078.9Z" fill="white"/>
            <path d="M1306.52 1078.9H1303.26V691.751C1317.97 606.846 1333.04 519.187 1336.77 431.764C1337.37 413.194 1337.49 396.118 1337.01 379.751C1335.33 337.259 1327.73 295.004 1320.38 254.086C1312.18 208.525 1303.75 161.391 1303.14 113.154C1303.14 99.3053 1303.14 86.479 1303.14 74.8331V1.18066H1306.4V74.9118C1306.4 86.5577 1306.4 99.3839 1306.4 113.233C1307 161.312 1315.44 208.368 1323.63 253.928C1330.99 294.846 1338.58 337.181 1340.27 379.83C1340.75 396.276 1340.63 413.272 1340.03 431.922C1336.29 519.423 1321.22 607.082 1306.52 691.987V1078.98V1078.9Z" fill="white"/>
            <path d="M1393.42 1078.9H1390.16V693.718C1390.16 681.364 1390.16 668.931 1390.16 656.42C1401.25 555.148 1404.51 458.361 1400.05 360.394C1399.44 346.309 1398.6 332.145 1397.64 318.374C1392.45 287.449 1391.61 254.007 1390.65 221.587C1390.4 214.505 1390.28 207.581 1390.04 200.813V1.18066H1393.3V200.892C1393.54 207.659 1393.66 214.584 1393.9 221.666C1394.74 254.007 1395.71 287.45 1400.77 318.295C1401.73 332.145 1402.58 346.309 1403.18 360.394C1407.64 458.361 1404.39 555.227 1393.3 656.577C1393.3 669.01 1393.3 681.443 1393.3 693.797V1078.98L1393.42 1078.9Z" fill="white"/>
            <path d="M1480.2 1078.9H1476.95V640.525C1476.95 628.879 1476.95 617.233 1477.07 605.666C1477.43 579.463 1478.27 552.236 1478.99 525.954C1481.16 452.853 1483.33 377.312 1477.07 305.076C1476.95 294.217 1476.95 283.594 1476.95 273.207V1.18066H1480.2V273.128C1480.2 283.515 1480.2 294.059 1480.32 304.918C1486.59 377.233 1484.42 452.853 1482.25 525.954C1481.53 552.315 1480.68 579.463 1480.32 605.666C1480.2 617.312 1480.2 628.958 1480.2 640.525V1078.9Z" fill="white"/>
            <path d="M1567.1 1078.9H1563.84V540.04C1565.53 488.971 1565.53 432.315 1563.84 380.538V1.18066H1567.1V380.538C1568.79 432.315 1568.79 488.971 1567.1 540.04V1078.9Z" fill="white"/>
            <path d="M1654 1.18066H1650.75V1078.9H1654V1.18066Z" fill="white"/>
        </g>
    </g>
    <defs>
        <filter id="filter0_f_21866_679" x="-644.175" y="-653.175" width="2942.35" height="2581.35" filterUnits="userSpaceOnUse" color-interpolation-filters="sRGB">
            <feFlood flood-opacity="0" result="BackgroundImageFix"/>
            <feBlend mode="normal" in="SourceGraphic" in2="BackgroundImageFix" result="shape"/>
            <feGaussianBlur stdDeviation="489.087" result="effect1_foregroundBlur_21866_679"/>
        </filter>
        <linearGradient id="paint0_linear_21866_679" x1="0" y1="0" x2="1763.3" y2="854.442" gradientUnits="userSpaceOnUse">
            <stop/>
            <stop offset="1"/>
        </linearGradient>
        <clipPath id="clip0_21866_679">
            <rect width="1654" height="1080" rx="16" fill="white"/>
        </clipPath>
        <clipPath id="clip1_21866_679">
            <rect width="1654" height="1080" fill="white"/>
        </clipPath>
    </defs>
</svg>
