<svg width="994" height="155" viewBox="0 0 994 155" fill="none" xmlns="http://www.w3.org/2000/svg">
    <path d="M75.472 74.0877C76.896 74.0877 77.608 74.9777 77.163 76.4017L60.075 134.697C59.719 135.854 58.918 136.388 57.85 136.388H49.573C48.416 136.388 47.615 135.854 47.348 134.697L39.16 106.929L30.972 134.697C30.616 135.854 29.815 136.388 28.747 136.388H20.47C19.313 136.388 18.512 135.854 18.245 134.697L1.068 76.4017C0.712 74.9777 1.335 74.0877 2.759 74.0877H9.167C10.324 74.0877 11.125 74.7107 11.392 75.8677L25.009 123.928L34.532 91.2647L30.171 76.4017C29.815 74.9777 30.438 74.0877 31.862 74.0877H37.38C38.537 74.0877 39.338 74.7107 39.605 75.8677L53.222 123.928L66.928 75.8677C67.195 74.7107 67.907 74.0877 69.064 74.0877H75.472ZM104.339 90.7307C112.616 90.7307 119.024 97.0497 119.024 107.73V134.43C119.024 135.676 118.312 136.388 117.066 136.388H111.459C110.124 136.388 109.412 135.676 109.412 134.43V108.353C109.412 102.568 105.941 99.7197 101.313 99.7197C96.2403 99.7197 91.7013 102.746 91.7013 110.845V134.43C91.7013 135.676 90.9893 136.388 89.7433 136.388H84.1363C82.8013 136.388 82.0893 135.676 82.0893 134.43V76.1347C82.0893 74.7997 82.8013 74.0877 84.1363 74.0877H89.7433C90.9893 74.0877 91.7013 74.7997 91.7013 76.1347V96.9607C94.5493 92.5997 98.9103 90.7307 104.339 90.7307ZM131.157 84.7677C129.822 84.7677 129.11 84.0557 129.11 82.8097V76.1347C129.11 74.7997 129.822 74.0877 131.157 74.0877H136.764C138.01 74.0877 138.722 74.7997 138.722 76.1347V82.8097C138.722 84.0557 138.01 84.7677 136.764 84.7677H131.157ZM131.157 136.388C129.822 136.388 129.11 135.676 129.11 134.43V93.9347C129.11 92.5997 129.822 91.8877 131.157 91.8877H136.764C138.01 91.8877 138.722 92.5997 138.722 93.9347V134.43C138.722 135.676 138.01 136.388 136.764 136.388H131.157ZM169.907 91.8877C171.242 91.8877 171.954 92.5997 171.954 93.9347V99.1857C171.954 100.432 171.242 101.144 169.907 101.144H163.766V134.43C163.766 135.676 163.054 136.388 161.719 136.388H156.112C154.866 136.388 154.154 135.676 154.154 134.43V101.144H147.924C146.589 101.144 145.877 100.432 145.877 99.1857V93.9347C145.877 92.5997 146.589 91.8877 147.924 91.8877H154.154V79.6947C154.154 78.3597 154.866 77.6477 156.112 77.6477H161.719C163.054 77.6477 163.766 78.3597 163.766 79.6947V91.8877H169.907ZM198.697 90.7307C211.958 90.7307 220.68 101.411 220.68 114.227C220.68 115.028 220.68 115.74 220.591 116.452C220.502 117.698 219.701 118.321 218.455 118.321H210.979H185.258C186.771 125.619 192.2 129.357 198.964 129.357C203.236 129.357 206.707 127.577 208.665 125.085C209.377 124.284 210 123.839 211.068 123.839H216.764C218.277 123.839 219.078 124.729 218.455 125.975C215.251 133.184 207.953 137.545 198.875 137.545C184.635 137.545 175.379 127.488 175.379 114.138C175.379 100.966 184.724 90.7307 198.697 90.7307ZM185.258 110.4H210.979C209.733 102.835 204.304 99.5417 198.608 99.5417C191.399 99.5417 186.593 103.725 185.258 110.4ZM254.163 90.7307C266.267 90.7307 276.235 100.966 276.235 114.138C276.235 127.399 266.267 137.545 254.163 137.545C247.132 137.545 241.881 134.697 238.499 130.069V134.43C238.499 135.676 237.787 136.388 236.541 136.388H230.934C229.599 136.388 228.887 135.676 228.887 134.43V76.1347C228.887 74.7997 229.599 74.0877 230.934 74.0877H236.541C237.787 74.0877 238.499 74.7997 238.499 76.1347V98.2957C241.881 93.6677 247.132 90.7307 254.163 90.7307ZM252.561 128.378C260.571 128.378 266.623 122.415 266.623 114.138C266.623 105.861 260.571 99.8977 252.561 99.8977C244.551 99.8977 238.499 105.861 238.499 114.138C238.499 122.415 244.551 128.378 252.561 128.378ZM306.04 137.545C292.957 137.545 282.544 127.399 282.544 114.138C282.544 100.966 292.957 90.7307 306.04 90.7307C319.034 90.7307 329.536 100.966 329.536 114.138C329.536 127.399 319.034 137.545 306.04 137.545ZM306.04 128.2C313.872 128.2 319.924 122.237 319.924 114.138C319.924 106.039 313.872 100.076 306.04 100.076C298.208 100.076 292.156 106.039 292.156 114.138C292.156 122.237 298.208 128.2 306.04 128.2ZM354.535 90.7307C364.414 90.7307 372.246 96.7827 372.246 107.908V134.43C372.246 135.676 371.534 136.388 370.199 136.388H364.77C363.524 136.388 362.812 135.676 362.812 134.43V132.205C360.053 135.676 355.781 137.545 350.174 137.545C342.164 137.545 334.866 132.917 334.866 123.483C334.866 114.049 342.164 109.332 350.174 109.332C355.781 109.332 360.053 111.201 362.812 113.871V108.353C362.812 102.212 359.252 99.7197 354.535 99.7197C350.53 99.7197 347.326 101.5 346.525 104.793C346.08 105.95 345.635 106.573 344.389 106.573H338.871C337.625 106.573 336.824 105.861 336.913 104.526C337.981 95.8927 345.368 90.7307 354.535 90.7307ZM353.2 130.069C358.985 130.069 362.812 127.31 362.812 123.483C362.812 119.389 358.985 116.808 353.2 116.808C347.237 116.808 344.478 119.656 344.478 123.483C344.478 127.31 347.237 130.069 353.2 130.069ZM402.585 91.2647C403.92 91.0867 404.632 91.8877 404.632 93.1337V99.4527C404.632 100.699 404.098 101.411 403.119 101.411C397.334 101.589 391.816 104.793 391.816 113.515V134.43C391.816 135.676 391.104 136.388 389.769 136.388H384.162C382.916 136.388 382.204 135.676 382.204 134.43V93.9347C382.204 92.5997 382.916 91.8877 384.162 91.8877H389.769C391.104 91.8877 391.816 92.5997 391.816 93.9347V98.5627C394.13 93.9347 398.046 91.7097 402.585 91.2647ZM452.74 74.0877C454.075 74.0877 454.787 74.7997 454.787 76.1347V134.43C454.787 135.676 454.075 136.388 452.74 136.388H447.133C445.887 136.388 445.175 135.676 445.175 134.43V130.069C441.793 134.697 436.542 137.545 429.511 137.545C417.407 137.545 407.439 127.399 407.439 114.138C407.439 100.966 417.407 90.7307 429.511 90.7307C436.542 90.7307 441.793 93.6677 445.175 98.2957V76.1347C445.175 74.7997 445.887 74.0877 447.133 74.0877H452.74ZM431.113 128.378C439.123 128.378 445.175 122.415 445.175 114.138C445.175 105.861 439.123 99.8977 431.113 99.8977C423.103 99.8977 417.051 105.861 417.051 114.138C417.051 122.415 423.103 128.378 431.113 128.378ZM540.039 91.8877C540.929 91.8877 541.463 92.5107 541.107 93.4897L526.244 135.32C525.977 136.121 525.443 136.388 524.731 136.388H523.129H522.061C521.349 136.388 520.815 136.121 520.548 135.32L512.716 113.426L504.884 135.32C504.617 136.121 504.083 136.388 503.371 136.388H501.769H500.701C499.989 136.388 499.455 136.121 499.188 135.32L484.325 93.4897C483.969 92.5107 484.414 91.8877 485.393 91.8877H487.44C488.152 91.8877 488.597 92.2437 488.864 92.9557L502.036 131.137L510.58 107.196L505.685 93.4897C505.329 92.5107 505.774 91.8877 506.753 91.8877H508.8C509.512 91.8877 509.957 92.2437 510.224 92.9557L523.396 131.137L536.479 92.9557C536.746 92.2437 537.28 91.8877 537.992 91.8877H540.039ZM550.964 82.9877C550.163 82.9877 549.629 82.5427 549.629 81.6527V75.4227C549.629 74.6217 550.163 74.0877 550.964 74.0877H552.833C553.723 74.0877 554.168 74.6217 554.168 75.4227V81.6527C554.168 82.5427 553.723 82.9877 552.833 82.9877H550.964ZM550.964 136.388C550.163 136.388 549.629 135.943 549.629 135.053V93.2227C549.629 92.4217 550.163 91.8877 550.964 91.8877H552.833C553.723 91.8877 554.168 92.4217 554.168 93.2227V135.053C554.168 135.943 553.723 136.388 552.833 136.388H550.964ZM585.772 91.8877C586.662 91.8877 587.107 92.4217 587.107 93.2227V94.9137C587.107 95.8037 586.662 96.2487 585.772 96.2487H577.406V135.053C577.406 135.943 576.872 136.388 576.071 136.388H574.202C573.312 136.388 572.867 135.943 572.867 135.053V96.2487H564.412C563.522 96.2487 563.077 95.8037 563.077 94.9137V93.2227C563.077 92.4217 563.522 91.8877 564.412 91.8877H572.867V78.9827C572.867 78.1817 573.312 77.6477 574.202 77.6477H576.071C576.872 77.6477 577.406 78.1817 577.406 78.9827V91.8877H585.772ZM615.176 90.9087C623.453 90.9087 630.128 96.7827 630.128 107.018V135.053C630.128 135.943 629.683 136.388 628.793 136.388H627.013C626.123 136.388 625.678 135.943 625.678 135.053V107.018C625.678 99.4527 620.961 95.2697 614.464 95.2697C607.522 95.2697 600.58 99.8977 600.58 111.29V135.053C600.58 135.943 600.135 136.388 599.245 136.388H597.376C596.486 136.388 596.041 135.943 596.041 135.053V75.4227C596.041 74.6217 596.486 74.0877 597.376 74.0877H599.245C600.135 74.0877 600.58 74.6217 600.58 75.4227V99.1857C603.962 93.0447 609.48 90.9087 615.176 90.9087ZM722.013 74.0877C723.348 74.0877 724.06 74.7997 724.06 76.1347V134.43C724.06 135.676 723.348 136.388 722.013 136.388H715.783C714.537 136.388 713.825 135.676 713.825 134.43V91.0867L698.873 124.64C698.428 125.708 697.716 126.153 696.559 126.153H691.842C690.774 126.153 689.973 125.708 689.528 124.64L674.665 91.0867V134.43C674.665 135.676 673.953 136.388 672.618 136.388H666.388C665.142 136.388 664.43 135.676 664.43 134.43V76.1347C664.43 74.7997 665.142 74.0877 666.388 74.0877H672.618H674.665C675.822 74.0877 676.534 74.5327 676.979 75.6007L694.245 114.316L711.422 75.6007C711.867 74.5327 712.668 74.0877 713.736 74.0877H718.72H722.013ZM756.685 90.7307C769.946 90.7307 778.668 101.411 778.668 114.227C778.668 115.028 778.668 115.74 778.579 116.452C778.49 117.698 777.689 118.321 776.443 118.321H768.967H743.246C744.759 125.619 750.188 129.357 756.952 129.357C761.224 129.357 764.695 127.577 766.653 125.085C767.365 124.284 767.988 123.839 769.056 123.839H774.752C776.265 123.839 777.066 124.729 776.443 125.975C773.239 133.184 765.941 137.545 756.863 137.545C742.623 137.545 733.367 127.488 733.367 114.138C733.367 100.966 742.712 90.7307 756.685 90.7307ZM743.246 110.4H768.967C767.721 102.835 762.292 99.5417 756.596 99.5417C749.387 99.5417 744.581 103.725 743.246 110.4ZM795.152 104.437C795.152 113.337 819.894 106.929 819.894 123.928C819.894 132.65 812.24 137.545 802.361 137.545C793.283 137.545 785.985 133.184 785.006 124.729C784.917 123.394 785.718 122.682 786.964 122.682H792.482C793.728 122.682 794.173 123.305 794.618 124.462C795.419 127.666 798.534 128.912 802.361 128.912C807.078 128.912 810.282 127.31 810.282 123.928C810.282 115.028 785.54 121.347 785.54 104.437C785.54 95.7147 793.194 90.7307 802.361 90.7307C810.727 90.7307 817.847 95.0917 818.826 103.547C819.004 104.971 818.203 105.683 816.868 105.683H811.35C810.193 105.683 809.659 104.971 809.214 103.814C808.502 100.699 805.565 99.3637 802.361 99.3637C798.356 99.3637 795.152 101.055 795.152 104.437ZM851.192 90.7307C859.469 90.7307 865.877 97.0497 865.877 107.73V134.43C865.877 135.676 865.165 136.388 863.919 136.388H858.312C856.977 136.388 856.265 135.676 856.265 134.43V108.353C856.265 102.568 852.794 99.7197 848.166 99.7197C843.093 99.7197 838.554 102.746 838.554 110.845V134.43C838.554 135.676 837.842 136.388 836.596 136.388H830.989C829.654 136.388 828.942 135.676 828.942 134.43V76.1347C828.942 74.7997 829.654 74.0877 830.989 74.0877H836.596C837.842 74.0877 838.554 74.7997 838.554 76.1347V96.9607C841.402 92.5997 845.763 90.7307 851.192 90.7307ZM896.877 90.7307C910.138 90.7307 918.86 101.411 918.86 114.227C918.86 115.028 918.86 115.74 918.771 116.452C918.682 117.698 917.881 118.321 916.635 118.321H909.159H883.438C884.951 125.619 890.38 129.357 897.144 129.357C901.416 129.357 904.887 127.577 906.845 125.085C907.557 124.284 908.18 123.839 909.248 123.839H914.944C916.457 123.839 917.258 124.729 916.635 125.975C913.431 133.184 906.133 137.545 897.055 137.545C882.815 137.545 873.559 127.488 873.559 114.138C873.559 100.966 882.904 90.7307 896.877 90.7307ZM883.438 110.4H909.159C907.913 102.835 902.484 99.5417 896.788 99.5417C889.579 99.5417 884.773 103.725 883.438 110.4ZM947.449 91.2647C948.784 91.0867 949.496 91.8877 949.496 93.1337V99.4527C949.496 100.699 948.962 101.411 947.983 101.411C942.198 101.589 936.68 104.793 936.68 113.515V134.43C936.68 135.676 935.968 136.388 934.633 136.388H929.026C927.78 136.388 927.068 135.676 927.068 134.43V93.9347C927.068 92.5997 927.78 91.8877 929.026 91.8877H934.633C935.968 91.8877 936.68 92.5997 936.68 93.9347V98.5627C938.994 93.9347 942.91 91.7097 947.449 91.2647ZM983.323 93.5787C983.679 92.4217 984.48 91.8877 985.548 91.8877H991.689C993.113 91.8877 993.825 92.7777 993.291 94.2017L973.266 152.586C972.91 153.743 972.02 154.188 970.952 154.188H964.811C963.387 154.188 962.675 153.387 963.209 151.963L968.727 135.854L952.262 94.2017C951.728 92.8667 952.351 91.8877 953.864 91.8877H959.916C960.984 91.8877 961.785 92.4217 962.141 93.4897L973.533 122.593L983.323 93.5787Z" fill="white"/>
    <path d="M348.959 55.8135C347.538 56.6644 347.075 58.5067 347.926 59.9283C348.777 61.35 350.619 61.8126 352.041 60.9617L348.959 55.8135ZM739.5 64.3876L725.698 32.6149L705.083 60.4542L739.5 64.3876ZM352.041 60.9617C467.343 -8.05457 618.823 -12.7927 716.164 50.8336L719.446 45.8113C619.814 -19.313 465.823 -14.1374 348.959 55.8135L352.041 60.9617Z" fill="#00D3A9"/>
</svg>
