<svg version="1.0" xmlns="http://www.w3.org/2000/svg"
 width="860.000000pt" height="919.000000pt" viewBox="0 0 860.000000 919.000000"
 preserveAspectRatio="xMidYMid meet">

<g transform="translate(0.000000,919.000000) scale(0.100000,-0.100000)"
fill="#00b39f" stroke="none">
<path d="M2895 8764 c-45 -23 -66 -45 -86 -89 -23 -50 -23 -89 -1 -138 9 -21
149 -179 312 -353 162 -174 294 -320 293 -324 -1 -5 -138 -221 -305 -482 -189
-296 -305 -488 -311 -513 -20 -87 -40 -60 730 -940 395 -451 733 -830 752
-842 l34 -23 1304 0 c1453 0 1345 -5 1401 68 l27 35 5 566 5 566 268 3 267 2
0 -1155 0 -1155 175 0 175 0 0 1154 0 1154 123 4 c118 3 125 4 160 31 62 47
86 116 67 189 -10 39 -114 146 -1098 1131 -615 616 -1103 1097 -1124 1108 -36
19 -75 19 -1590 19 -1389 0 -1556 -2 -1583 -16z m3910 -1224 l890 -890 -1325
0 -1325 1 -380 406 c-209 223 -581 620 -827 882 -246 262 -448 479 -448 484 0
4 568 7 1263 7 l1262 0 890 -890z m-2535 -581 c394 -419 604 -636 626 -645 28
-12 189 -14 919 -14 l885 0 0 -445 0 -445 -1127 2 -1128 3 -543 620 c-299 341
-581 663 -627 716 l-84 96 237 372 c130 204 239 371 243 371 3 0 273 -284 599
-631z"/>
<path d="M651 6814 c-128 -34 -236 -126 -298 -252 l-38 -76 0 -2315 0 -2316
28 -60 c63 -133 164 -225 294 -265 64 -20 92 -20 1199 -20 l1134 0 0 -27 c0
-54 -31 -157 -66 -224 -82 -155 -270 -278 -429 -279 -100 -1 -183 -55 -205
-134 -23 -82 18 -173 93 -207 41 -18 86 -19 1316 -19 l1275 0 44 21 c130 63
131 247 1 315 -17 8 -71 20 -120 25 -144 15 -245 65 -346 171 -79 84 -142 231
-143 331 l0 27 1134 0 c1107 0 1135 0 1199 20 130 40 231 132 294 265 l28 60
3 1423 2 1422 -175 0 -175 0 0 -885 0 -885 -3020 0 -3020 0 0 1728 c0 1351 3
1732 13 1751 6 13 25 34 40 45 28 21 32 21 932 24 l903 2 -34 58 c-42 70 -63
136 -71 225 l-6 67 -866 -1 c-724 0 -875 -3 -920 -15z m6047 -4564 l-3 -320
-33 -32 -32 -33 -2936 -3 c-3228 -2 -2979 -7 -3017 57 -15 26 -17 65 -17 340
l0 311 3020 0 3021 0 -3 -320z m-2657 -817 c12 -129 74 -292 155 -405 l34 -48
-549 0 -550 0 36 53 c84 123 153 311 153 417 0 26 3 50 7 53 4 4 164 6 357 5
l351 -3 6 -72z"/>
<path d="M3665 2395 c-5 -2 -22 -6 -37 -9 -71 -16 -137 -119 -124 -193 16 -84
95 -153 176 -153 80 0 160 69 175 152 12 65 -32 151 -94 182 -28 14 -80 25
-96 21z"/>
<path d="M7694 3630 c-103 -21 -212 -110 -256 -207 -17 -38 -22 -67 -22 -133
0 -76 4 -95 38 -175 44 -104 157 -309 246 -444 52 -79 64 -92 75 -80 29 30
178 278 239 398 69 136 106 241 106 300 0 50 -26 135 -55 180 -78 122 -235
190 -371 161z"/>
</g>
</svg>
