<svg id="Layer_1" data-name="Layer 1" xmlns="http://www.w3.org/2000/svg" viewBox="0 0 612 792"><defs><style>.cls-1{fill:#3c494e;}.cls-2{fill:#00b39f;}.cls-3{fill:#00d3a9;}.cls-4{fill:#0e0e0e;}</style></defs><path class="cls-1" d="M394.32,339.88l-5-.11-.55,24.92,23.63.52.11-5-18.64-.41Z"/><path class="cls-1" d="M425.43,340.57l-10.52,24.69,5.69.13,7.15-17.29,4.56,12.56-8.29-.18-2,4.94,17.78.39-9.43-25.13Z"/><path class="cls-1" d="M447.22,349.78l-6-8.87-6.22-.13L444.6,356l-.22,10,5,.11.22-10,10.29-14.73-6.15-.14Z"/><path class="cls-1" d="M461.93,345.3l0,1.06-.11,5-.13,6.08-.2,8.87,23.63.52.11-5-18.64-.41.09-3.89,0-1.1,14.32.32.11-5-14.32-.32.11-5,18.64.41.11-5L462,341.37Z"/><path class="cls-1" d="M493.63,346.83l12.79.28-.12,5.18L494.9,352l0,4.75,3.42.08,8.81,10.43,6.15.14L504.42,357l3.54.08a3.87,3.87,0,0,0,4-3.78l.15-6.95a3.87,3.87,0,0,0-3.78-4L488.89,342l-.55,24.91,5,.11.32-20.17Z"/><path class="cls-2" d="M541.74,343.24l-9.81-.22-.11,4.72,9.81.22Z"/><path class="cls-2" d="M542.27,359.18l0-2a4.16,4.16,0,0,0-4.16-4.18l-15.82-.35,0-1.29-5.81-.12-.12,5.58,20.08.44,0,1.74,5.8.13Z"/><path class="cls-3" d="M522.4,349.87l.05-2.33,7.77.17.1-4.73-13.56-.29-.16,7.05Z"/><path class="cls-3" d="M536.45,360.57l-.06,2.75-7.77-.17-.1,4.72,9.56.21a3.91,3.91,0,0,0,4.07-3.76l.08-3.62-5.79-.13Z"/><path class="cls-2" d="M521.7,360.5l-.05,2.5,5.38.11-.11,4.73-6.9-.15a3.92,3.92,0,0,1-3.9-3.94l.07-3.38,5.52.12Z"/><path class="cls-4" d="M238.81,479.36c-2.21,1.7-.49,3.09-.35,4.36q2.86,26,6,52c3.43,28.57,6.45,57.18,10.24,85.7,3.66,27.52,6.88,55.1,10.19,82.67.91,7.6,2.29,15.16,2.19,22.86,0,.49,0,1.2.25,1.43,3,2.43.39,3-1.25,3.31-5,.79-10,1.28-15,1.89-12.6,1.56-25.2,3-37.94,2.7a30,30,0,0,1-7.84-.89c-1.2-.36-2.6-.74-2.82-2.17s.87-2.27,1.81-3.1a14.87,14.87,0,0,1,5.32-2.76c16.79-5.33,33.79-7.63,51.22-3.37.72.17,1.47.23,2.67.41-.94-8.76-1.75-17.35-2.8-25.92-3.39-27.68-6.71-55.37-10.35-83q-5.18-39.42-9.17-79c-2.07-20.51-3.72-41.09-7.43-61.35-5.64-30.77-1.92-61.41-.12-92.09,1.13-19.32,2.82-38.61,4.45-57.9,1.94-22.79,4.52-45.51,7.22-68.22.1-.84.5-1.72-.05-2.5-70,22.59-135.43,56.57-204.88,82.67,2.06,1.72,3.25,1,4.27.77,35.58-7.7,71.55-13.47,106.86-22.47,9-2.28,17.11-6.42,25.41-10.27,10.59-4.91,21.15-10,32.93-11.39a37.1,37.1,0,0,1,7.14-.25c3.4.25,4.27,2.44,2.13,5.15a17.06,17.06,0,0,1-6.42,4.49c-9.7,4.61-20.15,6.9-30.44,9.64-2.47.65-4.79.66-2,4.17,2.57,3.24,1.22,7.95-2.57,10.49a16.8,16.8,0,0,1-16.16,1.68c-4.82-1.85-6-5.66-5.27-10.62-10.1,2.32-19.71,4.74-29.4,6.72q-41.68,8.5-83.44,16.69a73,73,0,0,1-9,.94c-1.61.11-3.5.28-4.15-1.73s1.19-2.84,2.54-3.57A188.32,188.32,0,0,1,53,328.34c43-17.15,85.25-36.06,127.89-54,18.94-8,38.51-14.44,57.79-21.59a4.56,4.56,0,0,1,.71-.24c5.1-1.21,7.86-4.12,7.88-9.67a42.44,42.44,0,0,1,1.4-9.67c.71-2.95-.31-4-3.1-4.49-16.48-2.93-30.91-10.35-43.65-20.93-15-12.43-22.94-28.26-23.28-48.14-.37-21.86,4.74-41.76,17.87-59.39,7.39-9.91,16.66-17.28,28.56-21.23,9.1-3,18.05-6.47,27.4-9-16.29-8.52-32.94-6.86-49.82-2,4-3.74,8.73-5.63,13.95-6.68a62.77,62.77,0,0,1,34.13,2.51,20.62,20.62,0,0,1,7.78,4.46,4.19,4.19,0,0,0,2.18,1.36c4.67.34,9.35.5,14.76.76C268.37,62,259.28,60,249.92,58.57c-1.61-.24-3.24-.38-4.86-.6-.65-.09-1.33-.39-1.37-1.07-.05-.93.75-1.25,1.53-1.28,6.42-.21,12.78-.11,19,2.09,7,2.5,13,6.14,16.63,13,1,1.9,3.63,2.06,5.59,2.82,18.7,7.2,34.29,18.35,44.8,35.73,29.79,49.3-.51,103.33-44.52,116.87a86.09,86.09,0,0,1-29,3.65c-3.91-.16-5.61.92-5.81,5A85,85,0,0,1,250,247.48c-.54,2.7.1,3.92,2.77,5,17.06,6.68,34.92,10.18,52.8,13.52,18.75,3.51,37.45,7.41,56.39,9.86,1.13.14,2.65.3,2.63,1.56,0,1.62-1.66,2.12-3.05,2.2-4.3.23-8.52-.62-12.71-1.38-28.77-5.24-57.7-9.73-85.82-18a106,106,0,0,1-10.93-4c-2.21-.93-2.94-.69-3.25,1.9-2.58,21.46-4.66,43-6.54,64.51-3,34.06-5.79,68.14-7.25,102.3-.39,9.17-.31,18.36-.41,27.53A8,8,0,0,0,235,455c7.79,22.82,12.73,46.44,19.69,69.49,11.08,36.73,23.88,72.92,34.68,109.74,8.33,28.39,16.79,56.74,26.61,84.66,2.79,8,2.85,8,11.21,6.6,13.32-2.26,26.55-1.31,39.76.93a3.49,3.49,0,0,1,.73.14c2.22.93,5.86.67,5.95,3.65s-3.29,4.17-5.87,5c-5.88,1.92-11.94,1.21-17.95.7-10.15-.85-20-3.76-30.18-4.41-3.35-.22-4.64-2.82-5.56-5.45-3.53-10.18-7.2-20.33-10.31-30.64-17.44-57.74-35.67-115.22-53.51-172.83C245.9,508.45,242.65,494,238.81,479.36ZM243,78.61a9.32,9.32,0,0,1-1.78.79,29.31,29.31,0,0,1-3.73.5c-15.07.91-27.15,7.52-36.44,19.29-13,16.44-18.41,35.36-18.38,56.1,0,15.25,4,29.24,14.52,40.48,22.33,23.74,49.79,34,82.06,27.95,42.6-8,67.46-49.47,56.47-91.36-8.6-32.78-44.48-63.75-87.39-57.66-3.06.44-6.23.62-9.32,2C240.19,78,241.8,77,243,78.61ZM216.06,297.23c-5.56-.71-10.11.62-14.65,1.75-13.76,3.43-26,10.59-38.71,16.42-3.45,1.58-4,5.44-1.24,8.17s6.21,3.22,9.82,2.72c5.91-.81,7-3,4.31-8.22s-2.46-6.27,3.16-8c7.43-2.26,15-4.07,22.46-6.26C206.19,302.37,211.12,300.69,216.06,297.23Zm45.69,431.34c-18.45-6.41-36.38-3.22-54.1,3.15C225.85,733.88,243.75,731,261.75,728.57Zm69.57-.68c8.91,4.24,30.88,6,38.12,2.82A121.22,121.22,0,0,0,331.32,727.89Z"/><path class="cls-4" d="M442.06,502.42c-20.43,0-49.6.05-78.77,0-5.4,0-10.79-.66-16.19-.87-1.81-.07-2.61-.87-3.23-2.47a31.44,31.44,0,0,1-2.09-10.27c-.63-16.45,1.85-32.61,4.7-48.69,5.18-29.18,9-58.58,14.26-87.74A587,587,0,0,0,369.59,236c-.13-6.3,0-6.23,6.5-6.11,22.88.43,45.76.75,68.63,1.27,3.21.08,4.5-.71,5.12-4.06,1.78-9.6,6.88-14.28,15.47-15.46,5.05-.7,8.8,1.15,11.92,4.88,2.7,3.23,5,6.75,5.53,10.94.38,3.12,1.73,3.81,4.61,3.83q38.48.36,76.94,1c1.61,0,3.57-.6,4.74.52s-.67,2.69-.56,4.17c.48,5.88.65,11.8,1.42,17.65,3.22,24.49,1.87,48.92-.7,73.35q-3.69,35.06-8.75,69.93C558,414.63,554.73,431.28,552,448a218.34,218.34,0,0,0-2.65,48.85c0,.25,0,.5,0,.75.66,6.92.66,6.87-6.58,7C512.11,505,481.46,503.75,442.06,502.42Zm4.59-3.75c18,.6,35.23,1.26,52.44,1.73,14.45.39,28.9.71,43.35-.13,2.38-.14,2.74-.71,2.49-3.07-.95-8.9-.54-17.82.16-26.73,1.38-17.31,4.79-34.3,7.91-51.34,3.8-20.76,6-41.75,8.76-62.67,3.25-24.92,6.26-49.9,6-75.08-.12-13.8-1.48-27.6-2-41.4-.13-3.4-1-4.55-4.53-4.54q-37.32,0-74.66-.28c-2.69,0-3.71,1.08-4.42,3.43a29.48,29.48,0,0,1-8.87,13.31c-4.53,4.13-9.52,4.54-15,2-6.55-3.05-9.55-8.27-9.55-15.32,0-2.62-.73-3.84-3.67-3.61a98.63,98.63,0,0,1-10.17-.09c-19.35-.55-38.72.13-58-1.51-4.47-.39-4.59-.35-4.5,4.33.17,9,1.15,18.07.74,27.13-1.19,26.23-2.69,52.39-7.06,78.38-6.35,37.88-12.13,75.86-17.83,113.84-1.9,12.65-3.45,25.4-.66,38.23.49,2.27,1.46,2.93,3.37,3,5.65.3,11.3.67,17,.81C394.43,499.81,420.94,498.45,446.65,498.67ZM479,233.81c.4-6.69-2.58-11.84-7.37-16.17-5.39-4.87-13.33-3.74-16.33,2.84a31.14,31.14,0,0,0-1.47,22.42c2.16,7,12.79,10.85,17.55,6.58C475.94,245.37,479.35,240.44,479,233.81Z"/><path class="cls-4" d="M580.84,239.13c-.22-7.9-5.93-11.47-11.54-15-1.45-.91-3.28-1.2-4.86-2-1.15-.54-3.43-.61-3-2.08.46-1.69,2.63-1.46,4.23-1.11,5.93,1.28,11,3.91,14.68,9C583,231.64,581.6,235.35,580.84,239.13Z"/><path class="cls-4" d="M326.37,496.14c6.69,7.81,15.33,12.74,25.36,17.11C340.79,514.2,327.21,505,326.37,496.14Z"/><path class="cls-4" d="M555.23,486c2.09,1.61,2.73,3.92,3.7,6,1.5,3.15,2.83,6.38,4.23,9.57.36.83.68,1.74-.33,2.29a1.61,1.61,0,0,1-1.32-.27C558.6,501.6,554.36,490,555.23,486Z"/><path class="cls-2" d="M216.06,297.23c-4.94,3.46-9.87,5.14-14.85,6.6-7.45,2.19-15,4-22.46,6.26-5.62,1.71-5.87,2.71-3.16,8s1.6,7.41-4.31,8.22c-3.61.5-7.07-.06-9.82-2.72s-2.21-6.59,1.24-8.17c12.75-5.83,25-13,38.71-16.42C206,297.85,210.5,296.52,216.06,297.23Z"/><path class="cls-2" d="M261.75,728.57c-18,2.41-35.9,5.31-54.1,3.15C225.37,725.35,243.3,722.16,261.75,728.57Z"/><path class="cls-2" d="M331.32,727.89a121.22,121.22,0,0,1,38.12,2.82C362.2,733.85,340.23,732.13,331.32,727.89Z"/><path class="cls-2" d="M479,233.81c.37,6.63-3,11.56-7.62,15.67-4.76,4.27-15.39.41-17.55-6.58a31.14,31.14,0,0,1,1.47-22.42c3-6.58,10.94-7.71,16.33-2.84C476.4,222,479.38,227.12,479,233.81Z"/><path class="cls-4" d="M256.58,193.1a82.61,82.61,0,0,1-36.7-8.33A40.61,40.61,0,0,1,206.49,174a7.66,7.66,0,0,1-2.14-3.89c-.09-.72-.26-1.57.54-2s1.45.09,2,.65c1.27,1.38,2.45,2.85,3.74,4.22,7.3,7.73,16.84,11,26.8,13.51,19.7,4.88,38.56,3.17,56.37-7.08,6.8-3.92,12.45-9.29,18.39-14.31.76-.65,1.48-1.36,2.28-2,.57-.42,1.25-1,2-.26s.17,1.42-.18,2a6.8,6.8,0,0,1-1.14,1.48C298.91,182.53,280.37,193.54,256.58,193.1Z"/><path class="cls-4" d="M251.41,133.83c.5,4.85-1.65,8.37-5.33,11-3.45,2.43-7.24.85-7.73-3.37a25.78,25.78,0,0,1,3.56-16.9c2-3.29,4.57-3.24,6.81-.11A13.77,13.77,0,0,1,251.41,133.83Z"/><path class="cls-4" d="M279.4,132.52a12.32,12.32,0,0,1-4.75,10.9c-1.88,1.53-4,2.13-6.25.8a5.29,5.29,0,0,1-2.66-5.72c.74-5,2.08-9.8,5.27-13.83,2.87-3.62,5.71-3.08,7.47,1.23A17.82,17.82,0,0,1,279.4,132.52Z"/><path class="cls-4" d="M278.81,101.54c7.05,1.13,13.76,3.82,18.86,9.7.58.67,1.68,1.56.78,2.58s-2,.19-2.73-.31c-6.16-4.14-12.59-7.67-19.86-9.47-.64-.16-1.39-.53-1.11-1.2C275.42,101.16,277.05,101.81,278.81,101.54Z"/><path class="cls-4" d="M245.54,103.48c-6.74,4.08-13.52,8-19.52,13a1.65,1.65,0,0,1-2.08.28c-.54-.39-.28-.93.09-1.26,6.25-5.45,11.93-11.87,21.06-12.43C245.17,103.09,245.26,103.24,245.54,103.48Z"/></svg>