<?xml version="1.0" encoding="utf-8"?>
<!-- Generator: Adobe Illustrator 25.3.1, SVG Export Plug-In . SVG Version: 6.00 Build 0)  -->
<svg version="1.1" id="Layer_1" xmlns="http://www.w3.org/2000/svg" xmlns:xlink="http://www.w3.org/1999/xlink" x="0px" y="0px"
	 viewBox="0 0 1638 840" style="enable-background:new 0 0 1638 840;" xml:space="preserve">
<style type="text/css">
	.st0{fill:#70510B;}
	.st1{fill:#00B39F;}
	.st2{fill:#00D3A9;}
	.st3{fill:#7C4203;}
	.st4{fill:#333231;}
</style>
<path class="st0" d="M817.8,191.6c0.1-0.1-0.4,1.5-0.4,1.7c0,0.1-0.4,0.7-0.4,0.8c0,0.6-0.5,0.5,0.1,0.6c0.6,0.2,1.2,0.1,1.8,0.1
	c0.8,0,1.6,0.1,2.3,0.2c0.3,0.1,0.5,0.1,0.8,0.1c0.2,0,0.5-0.1,0.7-0.1c1.3-0.3,2.6-0.4,3.8-0.2c0.7,0.1,1.4,0.3,2.1,0.2
	c0.4,0,0.8-0.1,1.2-0.2c0.8-0.2,1.6-0.3,2.4-0.5c0.2,0,0.5-0.1,0.7-0.2c0.1-0.1,0.3-0.2,0.4-0.2c0.5-0.3,0.9-0.6,1.4-0.9
	c0.4-0.3,0.8-0.6,1.1-1c0.3-0.6,0.2-1.3,0-1.9s-0.5-1.2-0.7-1.8c-0.2-0.7-0.1-1.4-0.4-2.1c-0.5-1.2-1.9-1.7-2.6-2.7
	c-0.1-0.1-0.2-0.3-0.3-0.4c-0.1-0.2-0.3-0.3-0.5-0.4c-2.1-1.6-4.5-2.8-6.9-3.6c-0.9-0.3-1.8-0.5-2.7-0.6c-0.4,0-0.9,0-1.2,0.2
	c-0.3,0.2-0.4,0.7-0.6,1c-0.4,1-0.8,2-1.1,3.1c-0.7,2.1,0.4,3.4-0.2,5.6C818.1,189.8,818.1,190.4,817.8,191.6z"/>
<g>
	<g id="Stckie_-_2">
		<path d="M927.4,788.2c-10.6-15.4-17.6-32.7-23.6-50.2c-13.8-39.8-27.9-79.5-39.5-119.9c-8.1-28.4-12.6-57.9-18.3-87
			c-1.8-9-2.2-18.4-3.2-27.6l-1.1-0.2c-0.5,1.5-0.9,3-1.2,4.6c-3.5,42.2-4.6,84.4-1.6,126.7c2.1,28.6,5,57.2,7.7,85.8
			c1.6,16.7,3.7,33.4,5.3,50.2c0.4,3.8,1,6.9,5.5,7.4c1.4,0.2,2.8,1.1,4.1,1.8c6.4,3.1,7.4,8.2,2.8,13.7c-5.2,6.2-12.2,8.8-19.9,9.2
			c-8.7,0.5-17.5,0.3-26.2,0c-2.7-0.2-5.4-0.8-7.9-1.9c-9.1-3.5-10.5-10.8-3.4-17.4c6.1-5.7,13.6-8,21.7-8.4c6.1-0.3,12.2,0,19,0
			c-0.5-5.3-1.2-11.2-1.8-17.1c-2.7-27.3-5.2-54.7-8-82c-3.6-33.3-5.1-66.9-4.4-100.4c0.6-23.4,2.5-46.7,4-70
			c0.3-2.7-0.2-5.4-1.5-7.8c-0.3-0.6-0.7-1.2-1.1-1.8c-5.5-7.8-6.9-17.1-9.3-26.1c-2.7-10.3-1.2-19.8,2.6-29.5
			c12.7-32.7,25.3-65.6,33.7-99.7c3.3-13.4,5.2-27.1,7.7-40.6c0.6-2.7-0.3-5.5-2.2-7.4c-3.8-4.2-7.2-9-10.8-13.4
			c-1.5-1.8-1.6-3.4,0.1-5c6.5-5.9,13.2-11.8,20.3-18.2c5.4,6.4,10.3,11.9,14.8,17.6c0.6,0.8,0,3.2-0.8,4.2
			c-3.7,4.2-7.9,8-11.5,12.2c-1.6,1.9-2.6,4.2-2.9,6.7c-1.9,21.2-3.4,42.5-5.2,63.8c-2,23.4-4.8,46.8-6.1,70.3
			c-1.3,21.3-5.5,41.6-16.4,60.2c-2.4,4.1-2.6,8.2-2.1,12.9c4.4,39.7,12.3,78.9,23.5,117.3c14.9,51,31.5,101.5,53.8,150
			c4.9,10.6,4.9,10.3,16.4,9.2c19.1-1.9,37.2,2.2,54.3,10.8c2.7,1.4,6.3,2.9,5.4,6.8s-4.6,5.1-8,5c-9.7-0.3-19.4-0.6-29-1.9
			c-11.1-1.4-22.1-3.8-33.1-5.9c-2.3-0.5-4.5-1.3-6.5-2.4c-4.3-2.1-5-4.8-2.7-9.1L927.4,788.2c1.2,0.7,2.4,1.3,3.6,1.8
			c19.8,5.3,40.1,8.2,60.6,8.8c1.1-0.1,2.2-0.3,3.2-0.6c0.1-0.5,0.2-1,0.3-1.5c-4.7-2.2-9.3-4.8-14.2-6.6
			C963.3,783.8,945.5,780,927.4,788.2z M832.7,799.9l0.2-0.7c4.9-0.4,9.9-0.4,14.6-1.4c4.1-0.8,8.1-2.3,11.7-4.4
			c2-1.3,3.4-4.6,3.6-7.2c0.1-1.1-3.1-3.2-5.1-3.7c-11.2-3.2-22.7-5.1-34.3-3.1c-4.5,1-8.8,2.8-12.6,5.3c-5.4,3.4-4.8,9.1,1.3,11
			C818.8,797.7,825.8,798.5,832.7,799.9z"/>
		<path class="st1" d="M841.2,504.9c-1.8-2.3-3.5-4.7-5-7.2c-0.3-0.6-0.7-1.2-1.1-1.8c-5.5-7.8-6.9-17.1-9.3-26.1
			c-2.7-10.3-1.2-19.8,2.6-29.5c12.7-32.7,25.3-65.6,33.7-99.7c3.3-13.4,5.2-27.1,7.7-40.6c0.6-2.7-0.3-5.5-2.2-7.4
			c-3.9-4.2-7.2-9-10.8-13.4c-1.5-1.8-1.6-3.4,0.1-5c6.5-5.9,13.1-11.8,20.3-18.2c5.4,6.4,10.3,11.9,14.8,17.6
			c0.6,0.8,0,3.2-0.8,4.2c-3.7,4.2-7.9,8-11.5,12.2c-1.6,1.9-2.6,4.2-2.9,6.7c-1.9,21.2-3.4,42.5-5.3,63.8
			c-2,23.4-4.8,46.8-6.1,70.3c-1.2,21.4-5.5,41.7-16.4,60.3C846.6,495,846.7,497.6,841.2,504.9"/>
		<path d="M894.1,482c1.6-0.5,3.2-1.3,4.8-1.3c8.8-0.2,17.5-0.2,26.3-0.3c1.6,0,3.3,0,5.2,0c0.2-2.5,0.2-4.8,0.6-7
			c1.2-7.1,4.7-13.6,9.9-18.5c2.1-1.7,4.5-3,7.1-3.8c3.8-1.3,4.6-3.4,3-7c-3-6.6-5.8-13.3-8.2-20.1c-10.3-28.6-24.5-55.5-37.6-82.8
			c-7-14.7-13.9-29.4-20.8-44.1c-0.6-1.3-1-2.7-1.5-4.1l0.9-0.7c1.1,0.8,2.1,1.6,2.9,2.6c2.3,3.2,4.4,6.6,6.2,10.1
			c15.9,32.8,32,65.6,47.3,98.7c6,13,10.1,26.8,15.2,40.7l3.5-0.9c6.8-1.8,14.9-1.3,19.2,6.1c0.9,1.2,2,2.2,3.4,2.8
			c7.2,3.4,11.2,9,11.8,16.9c0.3,3.8,0.4,7.6,0.7,12.2c19.1-1.3,37.4,1.2,54.8,8.5v1.3c-2,0-4,0-6.1,0c-2,0-4.1-0.3-7.3-0.5v131.8
			l11.7-0.9c0.2-4.4,0.5-8.6,0.5-12.7c-0.3-35.4-0.6-70.9-0.9-106.3c0-3.2,0.4-6.5,0.7-9.8l1.8-0.1c0.5,1.9,0.8,3.7,0.9,5.6
			c0.4,30.7,0.7,61.3,1,91.9c0.1,7.5-0.1,15,0,22.6c0,3.2,0.5,6.5,0.8,10.6c-2.5,0.6-5.5,1.5-8.5,1.9c-5.3,0.8-10.6,1.8-15.9,1.8
			c-9.4,0-18.8-0.2-28.1-1.1c-25.2-2.4-50.3-5-75.5-7.9c-8.5-1-17-2.9-25.5-4.2c-3.4-0.5-5-2.4-5.2-5.7c-0.7-11.2-1.8-22.3-2.1-33.5
			c-0.8-27.3-1.2-54.7-1.7-82.1c-0.1-5.3,0.2-6.6,2.6-9.1c0.5,1.5,0.9,3.1,1.2,4.8c0.8,18.6,1.8,37.1,2.3,55.7
			c0.5,18.2,0.6,36.4,1,54.6c0.3,12.2,0.4,12.4,12.4,13.7c35.1,3.9,70.1,7.6,105.2,11.3c5.9,0.6,12,0.1,18.4,0.1
			c0.2-45.1-3-89.4,0.6-134l-14.6-4.5v137.4l-1,0.4c-0.7-1.1-1.2-2.3-1.6-3.5c-0.3-1.8-0.3-3.5-0.3-5.3
			c-0.3-38.8-0.6-77.7-0.9-116.5c0-4.3,0.5-8.7,0.7-13.4H894.6L894.1,482z M940.7,480.3H984c0.6-6.2-2.6-13.2-7.6-16.5
			c-3.9,4-8.4,7.1-14.5,6.8c-6.1-0.3-10.6-3.4-13.8-8.8l-1.2,0.2L940.7,480.3z M965.5,465.5c3.6,0.1,6.8-2.1,8-5.5
			c1.6-4,0.3-7.7-3-9.7c-3.6-2.2-7.9-3.1-12-4.5c-0.8,0-1.5,0.4-2,1c-2.5,3.6-5.1,7.3-3.2,12.1C954.8,462.7,959.9,465.6,965.5,465.5
			L965.5,465.5z M948.5,455.1c-6,1.1-7.1,3.1-4.8,7.8L948.5,455.1z M989,467.8l-1.7,0.2c0.2,4.2,0.4,8.5,0.7,12.7
			c0.7,0.1,1.5,0.2,2.2,0.2C989.7,476.2,989.4,472,989,467.8z M939.2,475.4c-0.9-1.4-1.7-2.7-2.5-3.9c-0.5,1.1-1.6,2.2-1.5,3.2
			c0.4,1.9,1,3.7,1.8,5.5C937.6,478.7,938.3,477.3,939.2,475.4L939.2,475.4z M984.7,465.8l2.3-1.1c-0.9-1.6-1.8-3.2-2.8-4.8
			c-0.1-0.1-1.3,0.5-2,0.7C983,462.3,983.8,464,984.7,465.8L984.7,465.8z M939,463.6l-1.5,0.2l0.8,6.3
			C941.5,465.9,941.5,465.9,939,463.6z"/>
		<path d="M879,67.8c6.8,0.4,12.3,1,17.9-2.4c13.9-8.6,29-13.6,45.6-11.2c2.9,0.6,5.7,1.7,8.3,3.2c1.2,0.6,1.8,2.3,2.5,4.3
			c-19.4-7.2-37-3.2-55.1,6.9c3.4,0.9,5.7,1.4,7.9,2.1c45.2,14.3,70.7,52.1,70.1,92.5c-0.5,34.8-24.4,69.3-58.3,82.7
			c-43.2,17.2-90.6,0.7-116.6-31.6c-4.2-5.2-7.1-11.4-10.9-17.6c4.7-0.9,6.7,0.5,8.5,3.5c17.6,28.6,43.7,43.5,76.7,46.8
			c19,1.9,37.1-1.5,53.7-11.3c22.3-13.1,36.4-32.9,40.4-58c6.2-38.7-11.8-73.1-46-93.2c-20.6-12.1-42.5-13.8-65.4-9.4
			c-0.8,0.2-1.5,0.5-2.8,0.9l4.8,1.4l0.1,1c-1.8,0.6-3.6,1-5.5,1.2c-21.1,1-36.3,11.7-47.4,28.9c-9.3,14.4-15,30-15.8,47.3
			c-0.1,1.4-0.3,2.7-0.5,4.1c-0.1,0.6-0.3,1.2-0.5,1.7c-3-0.5-4.3-2-3.9-5c2.7-25.2,12-47.4,30.7-64.9c4.8-4.5,10.4-8,16.5-10.5
			c12-4.7,24.6-8.2,36.8-12.4c2.2-0.8,4.3-2.6,6-4.3c6.6-6.5,12.6-13.7,19.5-19.7c6.4-5.4,14.5-8.1,22.9-7.7
			c2.2,0.2,4.3,1.1,6.1,2.5c-9.4,1.7-18.9,2.3-27,7.8C890.8,52.5,884.9,59.4,879,67.8z"/>
		<path d="M638.4,259.6c-1.9,0.7-3.8,1.6-5.6,2.6c-7.2,4.9-15.2,4.8-23.3,4.1c-9.3-0.7-15.3-8.4-14-17.6c0.4-2.8,1.3-5.6,1.7-7.6
			c-3.6-3.7-8-6.6-10-10.7c-2.3-4.6-0.1-9.6,3.6-13.7l-1.7-2.3c-4.2-6-3.1-12.8,3.1-16.6c8.2-5,17.3-8.3,26.8-9.7l3.1-0.4
			c-0.3-8-1-15.8-0.7-23.5c0.5-10.6,3-20.8,10-29.4c2.4-3.3,6.5-4.9,10.5-4.1c3.9,0.5,6.7,2.3,7.2,6.1c0.8,6.2,1.6,12.5,1.2,18.7
			c-1,16.9-2.8,33.8-4,50.7c-0.2,2.7,0.8,5.6,1.6,8.3c1.9,6.8,4.3,13.5,5.7,20.4c1.7,7.2-0.9,14.6-6.7,19.2c-3.6,3-3.5,5.8-1.8,9.9
			c12.4,29.4,26.8,57.8,44.9,84.1c1.5,2.2,2.8,3,5.6,2.8c18.8-1.8,36.6-7.9,54.3-13.8c37.3-12.6,73.8-27.4,109.3-44.3
			c1.3-0.6,2.6-1.1,4-1.6l0.7,1.2c-2,1.4-3.8,3.1-5.9,4.1c-16.9,7.8-33.6,15.8-50.8,23c-30.5,12.9-61.4,24.6-93.7,32.2
			c-7.4,1.7-15,2.9-22.5,4c-1,0.1-2.7-1.1-3.4-2.2c-5.4-7.7-11.1-15.3-15.9-23.4c-12.9-21.1-23.6-43.5-32-66.8
			C639.5,262.1,639,261,638.4,259.6z M607.4,239.6l-0.4,1.2c-0.7,0.3-1.5,0.4-2.3,0.4c-3.8-0.9-4.4,1.6-4.8,4.3
			c-1.2,8.3,3.4,15,11.7,16.4c3.6,0.6,7.4,0.7,11,0.1c8.8-1.5,16.3-6.3,23.1-11.8c2.3-1.8,3.8-5.8,4.1-8.9c0.7-7.3-1-14.3-4-21.1
			c-1.4-3.2-2.8-6.7-2.9-10.1c-0.3-10.2-0.2-20.5,0.3-30.7c0.6-12.4,1.9-24.8,2.6-37.2c0.2-3.1-0.3-7-4-7.7c-3.8-0.9-7.6,1-9.3,4.6
			c-1.5,2.7-2.8,5.6-3.9,8.5c-4.2,12.4-3.5,25.1-2,37.8c0.1,1.1,1.9,2.3,3.2,2.8c5.1,1.9,10.5,7.7,8.5,11.5
			c-3.2,6.1,0.3,10,2.2,14.7c0.6,1.2,1,2.6,1,3.9c-0.8,7.3-1.2,14.7-2.9,21.8c-1.3,5.5-7.1,9-11.3,8.3c4.2-3.5,8.4-6.7,9.1-12.7
			c0.5-4.7,0.3-5.2-4.1-5.5c0.1-0.2,0.2-0.5,0.4-0.7c5.4-4.9,5.7-7.8,3.4-14.9c-1.9-5.9-6.1-4.3-11-4.1c2.2-1.7,3.9-3.1,5.6-4.3
			c2.6-1.9,5.1-3.8,4-7.7c-1.1-3.9-3.7-6.2-7.9-6.6c-12.1-1-23,2.6-33.2,8.6c-4.2,2.5-4.2,8.2-0.3,11.5c0.9,0.7,1.8,1.2,2.8,1.7
			c4.3,2.1,8.7,4.2,13.4,6.4c-6.2,3.8-11.1,0.4-16.4-2.2c-0.8,1.8-1.5,3.6-2.1,5.5c-1.2,4.8,1.9,7.4,5.3,9.6
			C600,235.3,603.7,237.4,607.4,239.6z"/>
		<path d="M930.6,191.6c-1.4,1.1-2.7,2.7-4.4,3.4c-24.8,10.6-50.9,15.6-77.4,18.9c-5.4,0.7-10.9,0.7-16.4,1.2
			c-2.8,0.2-4.5-1-5.3-3.5c-1.3-4.3-2.3-8.7-3.3-12.7c-11.5-1.7-23.1-3.3-34.7-5.2c-10-1.7-19.8-3.9-29.8-5.5
			c-4.9-0.8-8.6-3.2-12.2-6.1c-0.9-0.8-1.6-1.8-2.1-3c-3.1-7.5,1.8-18.6,8.8-22.7c4.3-2.5,7.8-1.8,11.8-0.2
			c14.9,5.6,29.9,11.2,45,16.6c3.1,1.1,6.6,1.5,10.2,2.3c0.3-2.4,0.5-4.4,0.9-6.4c0.7-2.9,2.2-3.9,5.4-2.7
			c30.7,11.5,62.5,19.9,94.9,25.1c2.5,0.4,5.1-0.3,7.6-0.4L930.6,191.6z M756.3,157.5c5.7,2.3,7.5,7.1,8.4,12.4
			c0.9,5.6-0.5,10.4-6,14.4l35.1,6.2l1-1.3c-1.7-4.2-2.9-8.8-5.1-12.7C782.4,163.7,768.3,162.5,756.3,157.5z M838.7,193.2l-2.9,4.9
			c1.3-10.7-5.7-18.7-15.2-18.5l-2.8,14.7l18-1.3c-1.9,3-7.2,1.8-6.2,6.3c0.6,2.9,0.9,6,1.9,8.7c1.3,3.4,7.4,3.9,14.4,1.4
			c0-3.9,0.1-7.9-0.1-11.8c-0.2-1.2-1-2.3-2.1-2.9C842.1,194.1,840.4,193.6,838.7,193.2z M792,171.4c1.5,3.3,3.1,6,3.8,8.8
			c0.7,2.8,0.4,6,0.9,8.9c0.2,0.9,1.6,2,2.6,2.2c4.5,0.9,9.1,1.6,13.7,2.3c0.9,0.2,1.9,0.2,2.7-0.2c3.1-2.1,2.5-14.1-1-15.3
			C807.5,175.6,800,173.7,792,171.4z M761.4,171.2c-1.2-3.2-2.6-6.3-4.2-9.3c-1.5-2.6-4.3-3-5.7,0.1c-1.8,3.7-3,7.8-3.5,11.9
			c-0.3,4.1,3.9,7.1,8,6.9C759.5,180.5,761.5,177.7,761.4,171.2L761.4,171.2z M824.7,175.8c3.1,1.5,6.1,2.4,8.2,4.3
			c2.1,1.9,3.1,5.1,5.1,7.1c1.5,1.5,3.8,2.1,5.8,3.1c0.7-1.4,1.2-2.9,1.6-4.5c0.2-2.4,0.2-4.8,0.1-7.2l-19.5-7.1
			C825.6,173.1,825.2,174.3,824.7,175.8L824.7,175.8z M849.7,179.6c0,3.6-0.4,6.5,0.1,9.2c0.5,1.5,1.7,2.8,3.2,3.4
			c2.2,0.8,4.5,1.2,6.8,1.1c1.2-0.3,2.3-1.1,2.7-2.3c0.3-2,0.3-4.1-0.1-6.1c-0.2-1-0.8-1.8-1.7-2.3
			C857.3,181.5,853.7,180.7,849.7,179.6L849.7,179.6z M863.3,207.6c1.1-9.8-1.7-12.1-12.8-10.6v12.2c0.6,0.1,1.1,0.2,1.7,0.1
			C855.8,208.8,859.5,208.2,863.3,207.6L863.3,207.6z M867.3,184.6c-1.9,9-1.4,9.6,7,9.7c1.5,0.1,3,0.1,4.5,0
			c1.1-0.2,3.1-1.1,3.1-1.4c-0.3-1.6-0.7-3.9-1.8-4.3C876,186.8,871.6,185.8,867.3,184.6L867.3,184.6z M867.1,207l16-3
			c-0.3-2-0.6-3.6-0.8-5.3h-15.1V207z M903.7,199.1l-0.2-1.2c-4.4,0.2-8.7,0.6-13.1,0.6c-3.4,0-3.9,1.5-2.6,4.6L903.7,199.1z
			 M887,190.1l-1.2,1.4c1,0.9,2,2.5,3,2.5c4.3,0.3,8.7,0.1,13.1,0.1l0.1-1.3L887,190.1z"/>
		<path d="M906.1,143.8c-4.9,0-8.9-4-8.9-9c0-0.1,0-0.2,0-0.3c0-5.9,5-10.6,11.3-10.6c5.5,0,9.2,4.2,9.2,10.3
			C917.8,138.7,911.5,143.7,906.1,143.8z"/>
		<path d="M746.4,145.3l-3-0.1c1.6-3.2,3-6,4.4-8.7c0.9-1.7,1.8-3.4,2.5-5.1c2.2-5.4,1.8-7.1-2.4-11.1c-1.9-1.8-3.7-3.6-5.4-5.6
			c-3-3.7-2.6-7,1.2-9.8c2.3-1.7,4.8-3.1,7.1-4.8c4.9-3.6,5.1-7.3,0.9-11.6c-2.8-2.8-5.7-5.5-8.4-8.4c-3.5-3.8-4-7.2-1-11.5
			c2.5-3.7,5.7-6.9,8.5-10.3l1.1,0.8c-2.2,3.2-4.2,6.5-6.6,9.4c-2.7,3.3-2.3,6.2,0.5,9.1c3,3,6,5.9,8.9,9c4.1,4.4,4.1,8.8-0.2,12.9
			c-2.8,2.4-5.7,4.7-8.8,6.7c-3,2.2-3.2,4.5-0.7,7.1c2,2.1,3.8,4.3,5.9,6.3c3.3,3.2,3.8,6.9,1.9,10.8c-1.7,3.6-3.9,6.9-5.6,10.4
			C746.7,142,746.7,143.5,746.4,145.3z"/>
		<path d="M853.5,131.5c0.2-5.5,3.6-8.6,9.3-8.4c4.2,0,7.6,3.4,7.6,7.5c0,0.2,0,0.5,0,0.7c-0.2,5-4.7,9.6-9.5,9.5
			C856.2,140.8,853.3,137.1,853.5,131.5z"/>
		<path d="M876,97.6c-15.1-4.2-26.8,1.6-37.2,11.1c-2.8,2.5-5.4,5.3-8.9,7.6c0.3-1,0.2-2.2,0.8-3c8.8-12.4,20.4-20.3,36-21.2
			C870.8,91.8,873.6,94,876,97.6z"/>
		<path d="M925.9,129.9c-7.1-14.7-20.2-17.2-34.2-17.9c0.2-0.7,0.3-1.4,0.5-2.1c7.3-1.7,15-1.1,22,1.7
			C922.7,115.4,926.8,120.6,925.9,129.9z"/>
		<path d="M805.6,162.1c0.9-1.6,1.4-3.5,2.6-4.9c4.1-4.4,15.2-6.6,20.6-4.1c1.3,0.7,2.4,1.7,3.2,3c0.3,0.8,0.2,1.8-0.4,2.5
			c-0.8,0.4-1.7,0.4-2.4,0c-3.3-2.8-7.3-2.7-11.2-2.5c-3.6,0.2-6.6,1.4-8.6,4.6c-0.7,0.8-1.6,1.6-2.5,2.1L805.6,162.1z"/>
		<path d="M753.6,77.3c-5.6-4.3-2.5-12.4,3.3-15.4C752.3,66.3,751.8,71.5,753.6,77.3z"/>
		<path d="M754.5,114.4c0.2-3.2-0.1-5.8,0.7-7.9c1.4-3.3,3-6.5,4.8-9.5c0.6,2.2,0.2,4.9-1.8,7.8C756.5,107.3,756,110.4,754.5,114.4z
			"/>
		<path class="st1" d="M832.7,799.9c-6.9-1.4-14-2.2-20.6-4.2c-6.1-1.9-6.8-7.6-1.3-11c3.8-2.6,8.1-4.4,12.7-5.3
			c11.6-2,23.1,0,34.3,3.1c2,0.6,5.2,2.7,5.1,3.7c-0.3,2.6-1.6,5.9-3.6,7.2c-3.6,2.2-7.5,3.7-11.7,4.4c-4.8,1-9.8,1-14.6,1.4
			L832.7,799.9z"/>
		<path class="st1" d="M927.4,788.2c18.2-8.2,35.9-4.4,53.5,1.9c4.9,1.8,9.5,4.3,14.2,6.6c-0.1,0.5-0.2,1-0.3,1.5
			c-1,0.3-2.1,0.5-3.2,0.6c-20.5-0.6-40.8-3.5-60.6-8.8C929.8,789.5,928.6,788.9,927.4,788.2L927.4,788.2z"/>
		<path class="st1" d="M965.5,465.5c-5.6,0-10.7-2.9-12.2-6.6c-1.9-4.8,0.7-8.5,3.2-12.1c0.5-0.6,1.2-1,2-1c4.1,1.3,8.4,2.3,12,4.5
			c3.3,2,4.6,5.7,3,9.7C972.3,463.4,969,465.6,965.5,465.5z"/>
		<path class="st1" d="M607.4,239.6c-3.7-2.2-7.5-4.3-11.1-6.6c-3.5-2.2-6.5-4.8-5.3-9.6c0.6-1.8,1.3-3.6,2.1-5.4
			c5.4,2.6,10.2,6,16.4,2.2c-4.8-2.3-9.1-4.3-13.4-6.4c-1-0.5-1.9-1-2.8-1.7c-3.9-3.3-3.9-9,0.3-11.5c10.2-6.1,21.1-9.6,33.2-8.6
			c4.2,0.3,6.7,2.6,7.9,6.6s-1.3,5.8-4,7.7c-1.7,1.2-3.4,2.6-5.6,4.3c4.9-0.2,9.1-1.9,11,4.1c2.3,7.1,2,10-3.4,14.9
			c-0.2,0.2-0.3,0.4-0.4,0.7c4.4,0.3,4.6,0.9,4,5.5c-0.7,5.9-4.9,9.2-9,12.7c4.2,0.7,10-2.8,11.3-8.3c1.7-7.1,2.1-14.5,2.9-21.8
			c0-1.4-0.4-2.7-1-3.9c-1.9-4.7-5.4-8.5-2.2-14.7c2-3.8-3.4-9.6-8.5-11.5c-1.3-0.5-3.1-1.7-3.2-2.8c-1.5-12.7-2.1-25.4,2-37.8
			c1.1-2.9,2.4-5.8,3.9-8.5c1.6-3.5,5.5-5.4,9.3-4.6c3.7,0.7,4.2,4.7,4,7.7c-0.7,12.4-2,24.8-2.6,37.2c-0.5,10.2-0.6,20.5-0.3,30.7
			c0.1,3.4,1.5,6.9,2.9,10.1c2.9,6.8,4.7,13.8,4,21.1c-0.3,3.1-1.8,7-4.1,8.9c-6.8,5.4-14.3,10.3-23.1,11.8c-3.6,0.6-7.4,0.6-11-0.1
			c-8.3-1.4-12.9-8.1-11.7-16.4c0.4-2.8,1-5.2,4.8-4.3c0.8,0,1.6-0.1,2.3-0.4L607.4,239.6z"/>
	</g>
	<path class="st1" d="M978.6,529.2l-19-0.8l-0.4,9.2l19,0.8L978.6,529.2z"/>
	<path class="st1" d="M979,560.1l0.2-3.8c0.1-4.5-3.4-8.2-7.9-8.3c0,0,0,0,0,0l-30.7-1.3l0.1-2.5l-11.2-0.5l-0.4,10.8l38.9,1.6
		l-0.1,3.4L979,560.1L979,560.1z"/>
	<path class="st2" d="M940.8,541.3l0.2-4.5l15.1,0.6l0.4-9.2l-26.3-1.1l-0.6,13.7L940.8,541.3z"/>
	<path class="st2" d="M967.7,562.6l-0.2,5.3l-15-0.6l-0.4,9.2l18.5,0.8c4.2,0.2,7.7-3,8-7.1l0.3-7L967.7,562.6L967.7,562.6z"/>
	<path class="st1" d="M939.1,561.9l-0.2,4.8l10.4,0.4l-0.4,9.2l-13.4-0.6c-4.2-0.1-7.5-3.6-7.4-7.8c0,0,0,0,0,0l0.3-6.5L939.1,561.9
		L939.1,561.9z"/>
</g>
<path class="st0" d="M756.3,157.5c5.7,2.3,7.5,7.1,8.4,12.4c0.9,5.6-0.5,10.4-6,14.4l35.1,6.2l1-1.3c-1.7-4.2-2.9-8.8-5.1-12.7
	C782.4,163.7,768.3,162.5,756.3,157.5z"/>
<path class="st3" d="M792,171.4c1.5,3.3,3.1,6,3.8,8.8c0.7,2.8,0.4,6,0.9,8.9c0.2,0.9,1.6,2,2.6,2.2c4.5,0.9,9.1,1.6,13.7,2.3
	c0.9,0.2,1.9,0.2,2.7-0.2c3.1-2.1,2.5-14.1-1-15.3C807.5,175.6,800,173.7,792,171.4z"/>
<path class="st4" d="M761.4,171.2c-1.2-3.2-2.6-6.3-4.2-9.3c-1.5-2.6-4.3-3-5.7,0.1c-1.8,3.7-3,7.8-3.5,11.9c-0.3,4.1,3.9,7.1,8,6.9
	C759.5,180.5,761.5,177.7,761.4,171.2L761.4,171.2z"/>
</svg>
