<?xml version="1.0" encoding="UTF-8"?>
<svg xmlns="http://www.w3.org/2000/svg" version="1.1" viewBox="0 0 438.8 398.4">
  <!-- Generator: Adobe Illustrator 28.6.0, SVG Export Plug-In . SVG Version: 1.2.0 Build 709)  -->
  <g>
    <g id="Layer_1">
      <path d="M361.8,155.3c-1.7,2.9-7.4.9-11.1-2.2-4.4-3.7-10.2-9.4-10.2-13.1s4.5-1.6,9.5.5,14.2,10.7,11.8,14.8Z" fill="#00b39f"/>
      <path d="M48.5,178.5c.5,3.3-1.5,12-5.2,14.4s-6-1-6-4.7.8-12.7,6.2-13.3,4.2-2.6,5,3.6Z" fill="#00b39f"/>
      <path d="M100.8,169c2.6,2.1,5.4,7.1.5,7.1s-12.6-3.4-12.6-7.1-7.3-4.5-1.8-5,8.4.5,14,5.1Z" fill="#00b39f"/>
      <path d="M143.4,216.1c.5,3.3-4.8,7.5-9.7,7.5s-6-1-6-4.7,3.7-9,9.1-9.6,5.8.7,6.7,6.9Z" fill="#00b39f"/>
      <path d="M204.4,207.8c-.8,3.2-6.2,7.2-11.1,7.2s-6-1-6-4.7,1.5-9.6,6.9-10.1,12.4-1.4,10.2,7.6Z" fill="#00b39f"/>
      <path d="M105,244.2c-3.1-.7-6,5.7-7.6,12.4s-2,14.4,1.6,14.6,5.2-8.9,6.9-10.6" fill="#00b39f"/>
      <path d="M391.3,264.2c9.3-5.2,5.8,27.8-1,21.6" fill="#00b39f"/>
      <path d="M361.7,262.1c3.4-1.6,3,11.4-1.5,15.5-3.6,3.3-4.5.9-4.3-2.9" fill="#00b39f"/>
      <path d="M297.6,146c0,3.8-4.7,8.6-10.1,11.1-4.4,2.1-4.3.9-4.3-2.9s7.7-16.7,12.8-14.9,1.6,2.9,1.6,6.7Z" fill="#00b39f"/>
      <path d="M287.6,263.9c-.4-11.6-.9-13.7-2.3-16.2l-2.7,1.2c-.4,1,.7,16.4,1,17.4l1.9.4c1.2-.3,2.1-1.5,2.1-2.7Z" fill="#00b39f"/>
      <path d="M0,5.7" stroke="#000" stroke-miterlimit="10" stroke-width=".5"/>
      <path d="M126.4,49.9c-1.7-1.9-3.9-3.5-6.3-4.1-.7-.3-1.3-.5-2.4-.5v-.2c.4-1,1.7-1.4,2.8-1.3,1.1,0,1.9.8,2.7,1.4,1.5,1.2,2.6,2.8,3.3,4.5,0,0-.2.1-.2.1h0Z"/>
      <path d="M28.7,77.1c-.8-.8,0-2.1.8-2.4.9-.1,1.6,0,2.2-.8,1.1-1.3,2.8-1.6,4.3-.7,0,0,0,.2,0,.2-.6.7-1.2,1.1-1.9,1.4-.7.2-1.4.2-2.1.1-.4,0-.8,0-1,.2-.3.2-.4.7-.6.9-.2.3-.4.4-.7.5-.3.1-.5.1-.9.5h-.2Z"/>
      <path d="M52.6,71c.7-.4,1.2-.4,1.7-.2.5.4.9.8,1.6.6,1.2-.3,2.4,0,3.2,1.1,0,0,0,.1,0,.1-.7.3-1.2.4-1.8.3-.6-.1-1.1-.4-1.5-.8-.2-.2-.5-.3-.8-.4-.3,0-.6.2-.9.2-.6,0-1.1-.3-1.5-.9h0Z"/>
      <path d="M382.8,71.9c-.5-1.8,3.4-4.1,5-4.3.8,0,1.5,0,2.3.4v.2c-.6.7-1.2,1-1.8,1.3-1.3.4-2.7.4-3.9,1.1-.6.3-1.2.6-1.3,1.3,0,0-.2,0-.2,0h0Z"/>
      <path d="M411.6,73.1c-1.4-1-2.8-1.9-4-3.1-.3-.5-.6-1-.7-1.7h.1c1.3,0,2.1.9,2.7,1.9.7.9,1.3,1.8,2,2.7h-.1Z"/>
      <path d="M253.4,64.4c-.4-.2-.8-.4-1-.8,0-.4.4-1,.7-1.3,1.4-.9,2.4-.8,3.8-1.1.3.3.6.5.9.9-.2.4-.4.8-.5,1.1h-.7c-.6.2-1.8.4-2.2.7,0,0,0-.1,0,0-.3,0-.6.3-1,.6h0Z"/>
      <path d="M273.2,61.1c.6-.5,1.1-.6,1.8-.3,0,0,1.6.4,1.6.4.5.1,1.9.4,2.4.6.2.3.4.6.6.9-.3.2-.7.4-1,.5-.5-.1-1.9-.4-2.4-.6l-1.6-.4c-.7,0-1.1-.4-1.4-1.1h0Z"/>
      <path d="M152.4,71.2c.1-.8.5-1.2,1.3-1.3,1.4-.4,2.8-.5,4.2-.3.2.3.5.5.7.9-.3.2-.6.4-.9.6-.7-.1-1.5-.1-2.2,0-.7,0-1.4.2-2.1.5,0,0-1-.4-1-.4h0Z"/>
      <path d="M223.8,208.3c0,3.8-4,6.8-8.9,6.8s-8.9-3.1-8.9-6.8,3.7-8.6,8.9-6.8,8.9,3.1,8.9,6.8Z" fill="#00b39f"/>
      <path d="M149.2,268.9c0,1.5-.4,1.6-.6,2.9-.4,3-.8,6.3-1.6,6.3s-2.2-4.1-2.2-9.2,1-6,2.2-6,2.2.9,2.2,6Z" fill="#00b39f" stroke="#000" stroke-miterlimit="10"/>
      <path d="M188.9,258.4c0,5.1-1,9.2-2.2,9.2s-.3-3.4-.7-5-1.5-1.6-1.5-4.2c0-5.1,1-9.2,2.2-9.2s2.2,4.1,2.2,9.2Z" fill="#00b39f" stroke="#000" stroke-miterlimit="10"/>
      <path d="M168.3,151.4c-4.7,9.7-4.2,16.3-3.3,17.2,1.9-10.1,1.4-7.1,3.3-17.2Z"/>
      <path d="M246.6,382.2c2.3,0,.7-1.7-.8,8.9-.6,0-1.2,0-1.7-.1"/>
      <g>
        <path d="M404.9,395c.8-4.6-18.6-9.6-11.4-.3,0,2.8,9.5,2.4,11.4.3Z" fill="#00b39f"/>
        <path d="M73.6,388.5c-18.4-1.8-14.6,9.5-8.7,5.3s1-1.5,2.5-2.3" fill="#00b39f"/>
        <path d="M134.7,387.7c-18.4-1.8-15.7,10.9-9.1,6.2s1.4-2.4,2.9-3.2" fill="#00b39f"/>
        <path d="M342.3,395.4c-5.5.9-18.8-1-17.7-2.2.8-.8,10-6,19.4,0" fill="#00b39f"/>
        <path d="M291.4,397.4c4.1-.2,5.3-.9,6.7-3.3.2,0-.9-.9-.7-.9-1.9-.7-1.6.4-3.3-.4-2.8-1.3-5.7.9-5.7,4.1" fill="#00b39f"/>
        <path d="M288.1,392.8c.2,0,.4-2.8.7-2.8-1.9-.7-3.7-1.2-5.6-1.6-2-.3-4-.5-6-.6,0,0-.2,0-.2,0-2.8,0-5.7.4-8.5,1.2-1.1.3-2.1.6-3.2,1,7.6,0,17-.7,22.9,2.7Z" fill="#00b39f"/>
        <path d="M248,394.1c0,2.4-11.1,1.8-16.5.9s-.4-.8-.4-1.1c-.1-1.1,3.9-2.4,8.9-2.4,4.5,0,8,1.1,8,2.6Z" fill="#00b39f"/>
        <path d="M216.2,393.3c0,2.4-13,1.3-18.4.4s-.4-.8-.4-1.1c-.1-1.1,3.9-2.4,8.9-2.4,4.5,0,10,1.7,9.9,3.2Z" fill="#00b39f"/>
        <path d="M162.1,56.4c.8-.2-2,0,0,0h0Z" fill="none"/>
        <path d="M161.2,56.7c.3,0,.5-.2.8-.2-.2,0-.5,0-.8.2Z" fill="none"/>
        <path d="M213,263.1c-2.6-9.6-5.1-19.3-7.7-29.3-1.9,1.9-1.7,4.1-2.3,6-14.1,46.2-27.4,92.7-39.8,139.3,10.2-.2,20.8-.3,31.8-.3,0-12.8,0-27.1.4-38.1.6-15.1-5.2-29.2-6.4-44,9.1,24.9,8.7,55.1,7.8,82.1,13.3,0,27.1.4,41.4,1,3.1.1,6.2.3,9.3.4-3.5-10.7-6.6-21.5-9.4-32.4-7.4-28.5-17.2-56.3-25-84.7Z" fill="none"/>
        <path d="M135.2,222.4c4.6,0,7.6-3,7.5-7.7-.3-2.7-1.2-5.1-5-4.9-4.7.2-8.5,3.7-8.5,7.9,0,4.2,2.8,4.8,6,4.8Z" fill="none"/>
        <path d="M156.1,54.8c0,.1-.2.2-.3.3.3-.3.3-.3.3-.3Z" fill="none"/>
        <path d="M321.1,231.7c-.1-.6-.2-1.3-.8-1.5-12.2,48.7-23,97.6-30.8,147.2-.2,1.5-.4,3-.7,4.5,20.2.9,39.5,1.8,57.1,2.7.6-4.2,1.7-8.4,2.8-13.8,1.8,4.7.3,7.7-.3,10.8-.2,1-.3,2-.4,3.1,2.1.1,4.2.2,6.3.4-7.4-28.6-15.7-57-21.2-86.1-4.2-22.4-8.1-44.9-12.1-67.3Z" fill="none"/>
        <path d="M96.6,264.9c-.1,1.9,0,4.4,2.4,5,2.4.6,2.9-1.8,3.6-3.4,3.1-7,3.7-14.3,1.7-21.8-4.5,6.1-7.2,12.8-7.7,20.2Z" fill="none"/>
        <path d="M151.9,74.1c.8-15.7-10.3-32.5-25.7-38.8-.3,1.6,2.3,1.8,1.4,4-7.5-5.2-15.2-9.5-24.8-6.9,6.6,1,13.1,2.5,18.8,7.2-3,1.3-4.6-.5-6.5-1.3-9.9-4.2-19.9-6-29.7-.1-16.4,9.7-23.1,39.5-12.1,55.2,11.3,16.2,30.8,22.6,48.8,18.1,17.7-4.4,29-18.9,29.9-37.3ZM115.3,52c2.9-.7,3.5,2.3,4.6,4.2.4.7.5,1.6.5,2.4,0,2.9.2,6.1-3.6,6.5-3.6.3-3.7-3-4.4-5.5-.2-.6-.1-1.3-.2-2-.2-2.6.6-5,3.1-5.6ZM96.7,55.7c.8-1,2.1-1.2,3.2-.6,2.9,1.6,3.7,4.4,4,7.5-.4,2.2-.4,5-3.3,5.4-2.6.4-3.5-1.9-4.4-3.9,0-.1,0-.3-.1-.5-.9-2.7-1.4-5.5.6-7.9ZM82.7,58.1c-1.5-4.8,1.7-9.2,7.5-10.5-3.5,2.7-6.7,5.7-7.5,10.5ZM90.3,93.1c16.6-1.6,32.8-4.6,48.7-13.8-6.8,8.5-36.4,16.7-48.7,13.8Z" fill="none"/>
        <path d="M154.3,74.1c-.6,17.2-12.9,33.1-29.7,38.9-2.4.8-6.6,0-6.7,2.9-.1,3.7.8,7.8,4.1,10.9,8.3,7.9,16.4,16.1,24.5,24.3,2.1,2.1,4.5,3.9,5.8,6.7-.3.3-.6.6-.9.9-10-10-20.1-20-31-30.9,2,14.9,4,28.6,5.7,42.3,1.7,13.7,2.4,27.5,2.6,42.4,4.2-3.5,7.9-5.2,12.3-4.5,1.7.3,2.8-.7,4-1.6,5.4-4.2,10.7-8.4,15.7-13.2,1.2-1.2,2.3-2.7,5.3-3.5-5.9,6.7-11.8,11.7-18,16.4-2.5,1.9-4,3.6-3.6,7.3.8,7.2-4.7,11.9-12,10.7-3-.5-3.8,0-3.8,3-.1,5.4.3,10.5,2.2,15.6,8.8,24.1,17.4,48.3,22.7,73.4,3.5,16.3,5.8,32.8,7.5,49.4.2,2.3.7,4.6-.8,7.1-3.7-44.7-15.8-87.4-32-130.5-1,7.9-1.7,14.3-2.6,20.8-4.5,34.4-12.9,68-22.2,101.3-1.7,6.1-3.3,12.3-4.8,18.5,6.6-.7,13.6-1.2,21-1.8-4.2-11.2-7.4-22.8-10.5-34.4.4-.1.8-.3,1.3-.4,3.7,11.5,7.4,23.1,11,34.6,5.2-.3,10.5-.7,16.1-.9,3.8-14.3,11.1-35.7,14.1-47.1.5.1,1,.3,1.5.4-3.1,11.2-9.7,32.4-13.9,46.6,7-.3,14.2-.6,21.7-.8,4.8-18.1,9.7-36.2,14.8-54.2,8.7-30.4,17.7-60.6,26.7-90.9,2.1-7.2.6-14.5,1.2-23-5.1,4.3-9.9,9.3-15.1,4.5-5.4-5-.9-10.7,2-16-17.3-5.2-31.4-15.4-45.2-26.2-3.6-2.8-3.2-4.4,0-6.9,19.7-15.7,39.2-31.5,58.8-47.3,1.9-1.5,4.7-2.6,4.7-5.5,0-4.8,0-9.7-.6-14.5-.2-2.1-2.8-1.4-4.2-1.5-9.9-1-18.6-4.9-26.5-10.7-10.4-7.6-15.2-18.2-15.3-30.3-.5.5-.9.8-.4.2-.3.2-1,.5-1.7.7-.3.2-.6.3-.8.3h-.7s0,0-.1,0l-6.6.4c0,0-.1,0-.2,0,1.9,5.1,2.9,10.5,2.6,15.9ZM147.4,278.8c-4.1-2.6-3.1-6.8-2.8-10.4,1.8-21.6,11.3-49.2,16.7-70,0-.3.4-.4.9-1-.2,6.7-4.4,19.9-6.1,25.9-3.7,12.7-7.2,25.6-9.6,38.6-1,5.4-1.5,11.4.9,17ZM187.9,248.9c1.4,2.8,1.1,5.6-.2,8.5-.2-1.8-.4-3.6-.7-5.6-1.8,1.8-1,4.1-1.9,5.6-1.1.5-1.1-.3-1.1-.6,0-2.8.2-5.7,2.6-7.7.3-.2,1.2-.2,1.3,0ZM181.8,197.8c3.1,10.8,6.1,38.2,5.4,49.1-1.6,0-5-37.3-5.7-48.6,0-.3.2-.2.2-.5ZM174.3,197.6c2.9,1.1,2,3.1,1.9,4.5-.1,11.7-.2,23.3-.7,34.9-.3,5.4.6,10.4,2.3,15.6,3,9,5.4,18.1,8.1,27.2.4,1.5.9,3.1-.5,5.4-3.9-12.3-6.3-24.3-11.2-37.1-5.5,25.3-10.9,49.1-17.3,72.7-.4,0-.8-.2-1.3-.3,4.8-20.1,9.4-40.3,14.4-60.4,5.1-20.5,2.7-41.8,4.3-62.5ZM204,104.3c.4-1.3.7-2.5,1-3.8,0,0,.3-.1.9-.4,1.1,1.5.4,3,0,4.4-4.3,14.6-13.2,25-28.2,29-4.7,1.3-6.6,2.9-5.3,7.7.1.5.2,1.3-.7,1.6-2.8-1.7.2-6.4-3.4-7.4-2.7-.7-5.7,0-8.4-.6-12.3-2.1-22.6-7.8-30-18-.7-1-2.8-2.4-.8-3.7,1.5-.9,2,1.2,2.8,2.1,11.6,14.4,26.5,20.4,44.7,16.5,14.8-3.2,23.3-13.3,27.4-27.5ZM189.5,107.7c-13.4,5.6-27.2,9-42,5.6,7-.4,14.1.3,21.1-1,7-1.3,13.9-3,20.9-4.6ZM167.6,81.8c2.9,0,3.5,3.1,3.7,5.5.2,2.3-.6,4.9-3.2,4.8-3.2-.1-2.3-3.4-2.9-5,0-2.6,0-5.4,2.3-5.3ZM159.3,82.5c2.5,0,3.2,3,3.1,5.4-.1,2.3-.6,5.1-3.4,5.2-3.8.2-2.2-3.2-2.7-4.7.1-2.8-.3-6.1,3.1-6Z" fill="none"/>
        <path d="M393.2,285.8c3.9-8.3,3.5-17.5-.8-22.3-.7,7.7-2.4,15.1.8,22.3Z" fill="none"/>
        <path d="M357.3,274.2c-.1,1.2-.7,3,.7,3.5,1.7.6,1.9-1.4,2.5-2.4,2.1-4.2,3.2-8.6,2.3-13.5-2.3,4-5,7.7-5.5,12.4Z" fill="none"/>
        <path d="M293.2,140.9c-3.8,3.3-6.8,7.2-8.6,12-.3,1-.4,2,.5,2.7.9.7,1.8.5,2.8,0,4-1.5,8.7-7.7,8.9-11.8,0-1.2,0-2.4-1-3.2-.9-.8-1.9-.5-2.7.2Z" fill="none"/>
        <path d="M99.1,175.1c.9.3,2,.9,2.8,0,1-1.2,0-2.2-.7-3.1-3.3-4.9-8.1-6.9-14.7-7.6,3,5.9,7.3,8.9,12.6,10.7Z" fill="none"/>
        <path d="M39.5,191.9c2.3,1.8,4.8-2,5.6-2.1.1-1.3,3-6.6,2.5-9.9-.5-3.4-2-5.5-5.9-4-.5,1.2-1.5,2.9-2.4,4.3-.3,1.6-1.2,3.2-1.2,4.9,0,2.4-.9,5.1,1.4,6.8Z" fill="none"/>
        <path d="M299.8,101.6c7.9,4.7,16.4,6.6,25.7,6.4,22.3-.6,39.7-17.6,39.8-39.9-.1-2.6.2-5.6-.6-8.6-10-34.6-41.4-41.5-67.2-27.7-.4.2-.8.6-1.2.9-8.3,5.9-13,14.3-15,24-4.1,19.9-.7,33.5,18.6,45ZM340.4,48.3c-3.3-2.6-4.7-6.3-9.1-6.3,4.2-2.4,7.7,0,9.1,6.3ZM324.9,53.9c.2-3,1.1-6.8,4.7-6.5,3.7.2,2.6,4.3,3.1,6.9-.5,3.4-.3,8.2-4.8,7.8-4.3-.3-3.1-5.1-3-8.2ZM316.3,55c-.2,3.3-1.3,6.8-4.9,7-3.6.2-4-3.2-4.1-6.3,1-2.8-.1-7.7,4.7-7.7,3.8,0,4.5,3.8,4.3,7.1ZM310,41.3c-4.4,0-5.9,3.7-9.1,6.3,1.4-6.4,4.9-8.7,9.1-6.3ZM349.3,80.3c-11.1,11.5-42.1,15.5-55.3,6.5,20.1,4.6,38.4,4.2,55.3-6.5Z" fill="none"/>
        <path d="M285.1,266.5c3.2-7.2,2.4-13.8-1.8-17.6.2,5.8-1,11.4,1.8,17.6Z" fill="none"/>
        <path d="M164.6,56.8c.6,15,9.2,27,26.6,34.6,6.5,2.9,13.3,3.8,20.4,3.8,24.3,0,42.2-21,41.1-40.8.3-22.6-16.7-41.8-39-44.7-11.4-1.5-21.4,2.7-31.1,7.3-7,3.3-11.1,10.1-13.8,17.2-3,7.8-4.4,15.1-4.3,21.8.5.2.3.4,0,.8ZM225.5,32.3c-2.7-1.8-5.3-3.7-9.1-6.3,5.4.3,7.9,2.4,9.1,6.3ZM212.2,39c0-1.7-.4-5.3,3.9-6,2.6-.4,4.6,4.3,3.9,8.5-.1.8-.4,1.6-.7,2.4-.9,2.1-2.1,4.2-4.6,3.8-2.5-.3-2.4-2.8-2.5-4.8,0-.8,0-1.7,0-3.9ZM204.4,39.9c-.6,3.5-1.1,7.6-5,7.8-3.9.2-4-3.8-4-6.7,0-3.1,0-7.3,3.8-7.6,3.5-.3,4.8,3.3,5.2,6.5ZM197.5,26.1c-3.8,2.6-6.5,4.4-9.1,6.3,1.3-3.9,3.7-6,9.1-6.3ZM238.9,62.2c-11.3,10.1-45.5,13.1-57.6,5.1,19.8,4.5,39.1,4.3,57.6-5.1Z" fill="none"/>
        <path d="M206.6,202.4c2.6-3.2,5.8-2.8,8.9-2.2,1.7.3,3.3.3,4.8-.5,18-9.7,34.9-21.1,51.2-32.9-19.2-17.2-43.3-27.8-60.1-49.2-2,29-5.4,56.5-4.9,84.8ZM258.1,159c.4,5.5-1.2,9.4-2.8,13.3.2-4.2.7-8.3,2.8-13.3Z" fill="none"/>
        <path d="M211.5,201.7c-4.1.3-4.1,3.8-4.3,6.7-.3,4.2,2.6,6.6,7.4,6.6,4.7,0,8.8-2.7,8.6-5.7-.2-3.5-6.8-7.9-11.7-7.5Z" fill="none"/>
        <path d="M194.2,200.2c-2.9,0-5.7,4.7-5.8,9.3,0,3.7,1.9,5.4,4.9,5.6,4.7-.2,9.7-5.5,9.4-9.4-.2-2.8-4.6-5.6-8.5-5.5Z" fill="none"/>
        <path d="M208.9,118.4c-.8.1-1.2,0-1.4.2-17.2,13.9-34.4,27.8-51.6,41.7,0,0,0,0,0,0,5.4,6.1,10.8,12.2,16.3,18.3.3-.2.7-.4,1-.6-.5-9.5-.9-19-1.4-28.4.5,0,1,0,1.5,0,1.2,12.6,2.1,25.2,2.1,38.2-4.9-2.5-3.9-8-7.4-11-4.2-3.5-7.5-8-11.2-12-1.3-1.3-1.8-2.7-.9-4.4,0,0,0,0,0,0h0c-2.7,2.1-5.3,4.5-8.2,6.5-3.1,2.1-2.8,3.6.2,5.7,15.8,11.4,31.6,22.7,51.3,26.8,3.8.8,4.4.1,4.5-3.4.7-21.5,2.4-42.9,4.4-64.3.4-4.4.5-8.8.8-13.3ZM181.6,191c-2-2-4.8-31-6.2-39.9,2.5.3,7.7,38.6,6.2,39.9Z" fill="none"/>
        <path d="M162.3,56.4c.8-.1,1.3-.7,2.2-.4,0,0,0,0,0,0-.1-6.7,1.3-14,4.3-21.8,2.7-7.1,6.8-13.9,13.8-17.2,9.7-4.6,19.7-8.8,31.1-7.3,22.3,2.9,39.2,22.1,39,44.7,1,19.7-16.9,40.7-41.1,40.8-7.1,0-13.9-.9-20.4-3.8-17.4-7.7-26-19.6-26.6-34.6,0,0,0,.1-.1.2-.3.6-1.1.7-1.5.2-.2-.3-.5-.5-.7-.6,0,0,0,0,0,0,0,12.1,4.9,22.7,15.3,30.3,7.9,5.8,16.6,9.8,26.5,10.7,1.5.1,4-.6,4.2,1.5.5,4.8.7,9.6.6,14.5,0,2.9-2.8,4-4.7,5.5-19.5,15.8-39.1,31.7-58.8,47.3-3.3,2.6-3.7,4.1,0,6.9,13.8,10.8,27.9,21,45.2,26.2-3,5.3-7.5,11.1-2,16,5.2,4.7,10-.3,15.1-4.5-.6,8.5.9,15.8-1.2,23-8.9,30.3-18,60.6-26.7,90.9-5.2,18-10,36.1-14.8,54.2.7,0,1.4,0,2.1,0,12.4-46.7,25.7-93.1,39.8-139.3.6-1.9.4-4.1,2.3-6,2.6,10.1,5.1,19.7,7.7,29.3,7.8,28.4,17.6,56.2,25,84.7,2.8,10.9,5.9,21.7,9.4,32.4,1,0,2,0,3,.1-14-49.6-29.9-98.7-43.4-148.5-1.5-5.4-.7-10.8-.7-16.4,8.6,2.6,15.1,1.4,18.1-3.3,2.9-4.7.2-7.9-3.6-10.8,1.6-.9,2.8-1.6,3.9-2.2,16.7-9.2,32.4-19.8,47.9-30.8,2.6-1.8,3-3.1,0-4.9-12-7.5-22.3-17.4-34.4-24.8-7.3-4.5-13.4-10.3-19.5-16.3-5.3-5.2-7.9-10.7-7.8-18.4,0-4.9,1.1-6.2,5.9-6.9,18.1-2.8,30.4-13.4,36.4-30.4,5.7-16.1,1.9-30.9-9.1-43.8-6.6-7.8-15.5-12.4-25.6-15.4,4.7-2.7,10.1-2.2,14.5-4.5-11.2-.6-21.3,5.6-32.9,4.5,6.7-4,14.3-4.6,21.2-7.2-2.5-.7-4.8-.2-7.2.3-9.1,1.9-16.6,7.4-24.9,11.1-11.7,5.2-19.4,13.4-23.5,25.1-2.2,6.4-3.4,12.6-3.6,18.5,0,0,.1,0,.2,0,1.1-.2.5.6,0,1.2ZM193.3,215.1c-3-.2-4.9-1.9-4.9-5.6,0-4.6,2.8-9.2,5.8-9.3,3.9,0,8.3,2.7,8.5,5.5.3,3.9-4.7,9.2-9.4,9.4ZM203.7,196c-.1,3.5-.6,4.2-4.5,3.4-19.7-4.1-35.4-15.4-51.3-26.8-3-2.1-3.2-3.6-.2-5.7,2.9-2,5.5-4.3,8.2-6.5h0c0,0,0,0,0,0,0,0,0,0,0,0,17.2-13.9,34.4-27.8,51.6-41.7.2-.2.6-.1,1.4-.2-.3,4.5-.4,8.9-.8,13.3-2,21.4-3.7,42.8-4.4,64.3ZM223.3,209.2c.1,3-3.9,5.7-8.6,5.7-4.9,0-7.7-2.4-7.4-6.6.2-2.9.2-6.4,4.3-6.7,5-.4,11.6,4,11.7,7.5ZM211.6,117.6c16.8,21.4,40.9,32,60.1,49.2-16.3,11.7-33.2,23.2-51.2,32.9-1.6.8-3.1.8-4.8.5-3.1-.5-6.3-.9-8.9,2.2-.5-28.3,3-55.8,4.9-84.8Z"/>
        <path d="M103.5,364.3c9.3-33.4,17.7-66.9,22.2-101.3.8-6.5,1.6-13,2.6-20.8,16.3,43.2,28.3,85.8,32,130.5,1.4-2.5,1-4.8.8-7.1-1.7-16.6-4.1-33.1-7.5-49.4-5.3-25.1-14-49.3-22.7-73.4-1.9-5.2-2.3-10.3-2.2-15.6,0-2.9.9-3.5,3.8-3,7.3,1.2,12.7-3.5,12-10.7-.4-3.7,1.1-5.4,3.6-7.3,6.1-4.7,12-9.7,18-16.4-3,.7-4.1,2.3-5.3,3.5-4.9,4.8-10.3,9-15.7,13.2-1.2.9-2.3,1.9-4,1.6-4.4-.7-8.1,1-12.3,4.5-.2-14.9-.9-28.7-2.6-42.4-1.7-13.7-3.7-27.4-5.7-42.3,10.9,10.9,21,20.9,31,30.9.3-.3.6-.6.9-.9-1.3-2.7-3.7-4.6-5.8-6.7-8.1-8.2-16.2-16.3-24.5-24.3-3.2-3.1-4.2-7.1-4.1-10.9,0-2.9,4.3-2.1,6.7-2.9,16.8-5.9,29.1-21.8,29.7-38.9.2-5.5-.8-10.9-2.6-15.9-.4.1-.9.2-1.2,0-1.4-.5-.3-1.1.7-1.3-5.5-13.3-17.4-24.1-31.8-26.9-16.4-3.3-43.2,5-50.3,26.9-5.5,16.9-4.5,34.1,7.7,45,9.3,8.2,19.9,13.2,32.5,13.3,6.3,0,7.8,1.4,7.5,7.9-.6,12-1.8,23.9-3.5,35.8-6.8-2.2-13.4-4.6-20-6.5-8.3-2.4-16.4-5.6-24.5-8.6-3.3-1.3-4-4-4.2-6.7-.2-2.5,2.6-2.1,4.1-2.7,5.5-2.2,10.5-5.1,14.6-9.3,3.2-3.3,6.1-7,7.4-11.6-.9.1-1.4.4-1.7,1-8.6,15.5-22.2,21.1-39.3,19.9-15-1-32.6-13.7-34.9-27.2-5.8-34.4,17.2-52.7,47.5-48.7,1.5.2,3,1.5,4.7,0-1.6-2.1-3.9-2.3-5.8-2.3-4.1,0-1.6-2.2-1.2-4-3.8,3.9-8.4,3.5-13.1,4,1.3-2.6,4.3-3,5.6-6.2-3.5,1.5-5.7,3.7-7.9,5.7-1.6,1.5-3.8,3.6-5.5,3.1-5.1-1.7-7.1,2.5-10.1,4.5-16.3,10.7-23,38.4-12.4,54.4,9.5,14.3,23.9,20.3,40.9,19.1,3.9-.3,5.1.8,6,4.4.9,3.5-1.1,4.9-3,6.7-12.1,11.2-24.3,22.3-36.4,33.5-1.5,1.4-3.8,2.6-3.7,6,3.8-1.6,12.8-3.9,16-5.7,1.5-.8,1.9-3.3-.9-1.8-3.6,1.4-7.3,2.7-10.9,4.1-.2-.3-.4-.5-.6-.8,13.4-12.3,26.8-24.6,40.5-37.3,2.8,6.5,3,13.3,5.7,19.2.4-.1.8-.2,1.3-.3-1.5-6.3-2.9-12.7-4.6-19.9,14.4,6.6,28.8,10,42.4,15.9-3,1-6.1,1.9-9.1,2.9,2.9,1.1,8.5-1.1,12.7-3,0,1,0,1.8,0,2.6-2.7,22.7-5.6,45.3-8.2,68-.7,6.4-2.2,12.2-5.5,17.9-3.2,5.4-5.3,11.5-5.1,18.1,0,2.3.4,4.4,2.8,5.3,2.6.9,4.6-.4,5.9-2.5,4.6-7.2,6.4-15.6,4-23.4-1.3-4.3-1.2-7.8-.7-11.7,4.2-32.5,8.5-65.1,11.1-97.8,0-.9-.2-2.1,1.5-2.3,1.3,9.1,2.6,18.1,3.8,27.2,5.1,40.7,5.4,81.3-2.1,121.9-6.3,33.6-15.4,66.5-24,99.5.7,0,1.3-.1,2-.2,1.5-6.2,3.1-12.4,4.8-18.5ZM137.7,209.7c3.8-.2,4.7,2.3,5,4.9,0,4.7-3,7.7-7.5,7.7-3.2,0-6-.6-6-4.8,0-4.2,3.8-7.7,8.5-7.9ZM102.6,266.5c-.7,1.6-1.2,4-3.6,3.4-2.3-.6-2.5-3-2.4-5,.5-7.4,3.2-14.1,7.7-20.2,2.1,7.5,1.5,14.8-1.7,21.8ZM73.2,93.3c-10.9-15.7-4.2-45.4,12.1-55.2,9.8-5.8,19.8-4.1,29.7.1,1.9.8,3.5,2.6,6.5,1.3-5.7-4.6-12.1-6.1-18.8-7.2,9.5-2.7,17.3,1.7,24.8,6.9.9-2.2-1.7-2.5-1.4-4,15.4,6.3,26.5,23.2,25.7,38.8-1,18.4-12.2,32.9-29.9,37.3-18,4.5-37.5-2-48.8-18.1Z"/>
        <path d="M150.4,58.2h1.2c0-.3-.1-.4-.2-.6-.7.5.3-.2-1,.6Z"/>
        <path d="M412.9,57.9c16.7,7.7,26.8,26.3,22.5,43.5-6.3,25.8-28.5,33.2-49,28-15.4-3.9-26.7-13.2-29.8-30.4-1.7,3.6-1.8,3.6-.7,6.9,4.9,15.1,16.5,22.3,30.9,26.3,8.3,2.3,8.5,2.2,7.3,11.1-.1,1-.4,2-.6,2.9-8.6,32.3-17.3,64.5-25.9,96.8-2,7.5-3.9,15.1-8.4,21.7-2.1,3.1-3.6,6.8-3.9,10.7-.1,1.8-.3,3.9,2,4.6,2,.6,3-1.2,3.8-2.6,1.7-3.2,3.3-6.6,3.5-10.3.2-3.3,0-6.7.8-9.8,5.7-21.5,11.7-43,17.6-64.5,2.5-9.2,5-18.4,7.5-27.6-4,33.1-9.2,65.9-16.7,98.3-7.5,32.4-16.6,64.4-22.6,97.1.4.1.9.2,1.3.3,8.5-36.3,17.1-72.5,25.6-108.8,2.6,45,1.9,90,8.4,135.1,2.2-1.5,1.4-2.9,1.3-4.1-1.8-18.4-3.8-36.8-4.4-55.3-.8-23.1-1.5-46.3-2.2-69.4-.2-6.1-1.2-12.2-.1-18.4,5-28.2,10.3-56.3,13.5-84.8.1-1,0-2.1,1.6-2.7-.2,22.8-.3,45.2-2.4,67.7-1.8,19.2-2.9,38.5-4.3,57.7-.2,2.6-.3,5.4.9,7.9,1.2,2.4,2.8,3.5,4.8.7,3.1-4.2,3.5-19.6,0-23.5-1.9-2.1-1.9-4-1.9-6.3.3-15.8,2.4-31.6,3.4-47.3,1.4-23.4,3.1-46.9-.2-70.3-.6-4,.4-5.6,5.1-6.1,16.9-1.5,28.5-10.9,34.5-26.4,5.7-14.6,2.4-28.1-7.5-40.1-3.2-3.9-7.2-6.7-11.8-9.8,2.5-1.2,5.1-.6,7.1-2.3-5.4-1.5-10.9,2-16.1-1.9,3.3-.7,6.2-1.4,9.1-2-6.1-1.4-11.7,1.3-18.5,1.4,4.3-2.4,8.3-2.2,12.6-3.2-6.6-2.1-36.3,7.8-41.2,13.9,5.6-3.4,11.3-4.1,16.3-6.1,9.6-3.8,18.1-2.5,26.8,1.5ZM360.4,275.3c-.5,1.1-.8,3-2.5,2.4-1.5-.5-.8-2.3-.7-3.5.5-4.7,3.1-8.5,5.5-12.4.9,4.9-.2,9.3-2.3,13.5ZM393.2,285.8c-3.2-7.2-1.5-14.6-.8-22.3,4.3,4.9,4.8,14,.8,22.3Z"/>
        <path d="M303.9,106.8c4.6,2,9.5,3.1,14.5,3.6,6.3.6,6.1.7,5.3,6.8-.4,2.8-2.1,3.5-4.1,4.3-17.8,7.1-35.5,14.2-53.3,21.3-2.1.9-4.6,1.4-6.6,4.9,9.9-1.3,18.8-2,27.4-4.3,0-.4-.1-.8-.2-1.2-6.2.9-12.3,1.8-18.5,2.6,0-.3-.2-.6-.3-.9,18.2-7.2,36.4-14.4,54.7-21.7.8,4.9-1.7,9.4.6,13.8.9-3.5,1.5-7,1.6-10.6,0-3.6,1.4-3.8,4.3-2.4,12,5.7,24.4,10.7,36.1,17.2,1,.5,2.8.5,2.6,2.4-2.4.6-5-.6-8.2,1.5,3.9.3,6.8.7,9.7.8,1.6,0,3.9.9,4.5-.9.7-2.2-1.8-2.9-3.3-3.7-13.2-7.5-27.1-13.5-41.1-19.2-2.4-1-4.6-1.5-3.9-5.1.6-3,.6-5.3,4.8-6,17.9-2.9,29.8-13.6,35.6-30.5,7.3-21.2-4.8-44.8-27.4-54.2-2.6-1.1-4.4-2.4-5.8-4.9-3.4-5.9-8.9-8.6-14.5-7.5,5.3,2,10.2,4.3,12.9,9.8-3.9.4-6.8-.2-9.5-2.8-4.2-4-11.1-4.7-15.7-2.2,5,.3,10.2,0,15.3,5.2-10.5-.2-20.1-4.3-29.2,2,6.3-1.5,12.1-2.8,18.8-.4-7,3-13.7,4.6-18.9,9.4-24.2,22.3-18.1,60,11.9,72.9ZM296.3,32.7c.4-.3.8-.6,1.2-.9,25.9-13.8,57.3-6.9,67.2,27.7.8,3,.5,6,.6,8.6,0,22.3-17.5,39.4-39.8,39.9-9.3.2-17.8-1.6-25.7-6.4-19.3-11.5-22.7-25.1-18.6-45,2-9.6,6.7-18.1,15-24Z"/>
        <path d="M289.5,377.5c7.8-49.6,18.5-98.6,30.8-147.2.6.1.7.8.8,1.5,4,22.4,7.9,44.9,12.1,67.3,5.5,29.1,13.8,57.5,21.2,86.1.8,0,1.6,0,2.4.1,0-.3-.2-.6-.2-.9-10.4-40.9-21.3-81.8-27.9-123.6-2.5-16.1-7.4-31.8-7-48.3.5-20.8,1.1-41.6,1.7-62.5,0-1.6.8-3.5-.8-5-1.6,1.6-1.2,3.3-1.3,4.9-1.2,20.1-1.4,40.3-1.8,60.4,0,5,.1,10-.7,14.9-3.4,19.7-8.9,38.9-13.3,58.4-7.4,32.5-13.2,65.3-18.9,98.2.8,0,1.5,0,2.3,0,.3-1.5.5-3,.7-4.5Z"/>
        <path d="M285.1,376.8c0-.8.2-1.6,0-2.3-5.7-33.5-11.6-66.9-17.2-100.4-1.8-11-4.8-21.9-4.9-33,.8-19.8.9-40,1.4-60,0-1.5,0-3,0-4.5-2.2,2.2-2,4.7-2,7.1-.5,19-.2,38-1.6,57-2.8,37.2-8.6,74.1-10.3,111.4-.3,7.3-.9,14.6-1.3,21.9.6,0,1.2,0,1.7.1,2.1-40.5,5.7-80.8,11.3-121.2,7,41.5,14.1,82.9,21.1,124.4.6,2.5,1.1,4,1.3,4.8.2,0,.3,0,.5,0,0-1.5-.4-5,0-5Z"/>
        <path d="M79.4,384.1c.5-5.8,1-11.6,1.4-17.4,2.2-33.4,6.1-66.7,4.7-100.2,0-1,.1-2,.2-3,8.4,23.9,13,48.7,20.3,72.7-.9-7.2-2.7-14.3-4.2-21.4-4.7-23.1-13.3-45.4-16.9-68.7-3-19.4-5-38.9-8.6-58.2-1.1-5.5-1.5-11.3-3.7-16.8-1.8,1.2-1,2.4-.8,3.4,2,11.5,4.3,22.9,6,34.4,2.4,16.4,5.7,32.9,6.2,49.5,1,33.3-1.5,66.6-4.3,99.8-.8,9.1-1.2,18.1-1.7,27.2.5,0,1-.1,1.5-.2,0-.3,0-.7,0-1Z"/>
        <path d="M340.5,142.7c3.3,6.7,8.8,11.2,15.5,14.2,2.3,1,4.9,1.9,6.8-.6,1.8-2.3,1.3-4.8-.2-7-4.6-6.9-16.5-12.4-25.2-12,.5.2,6.4,2,6.9,2.2,1.2.5,2.4,1,3.5,1.5,5,2.1,9.6,4.7,12.7,9.3,1,1.4,1.8,3.2.7,4.7-1.3,1.8-3.1.3-4.5-.3-6.6-3.2-12.2-7.8-15.1-14.7-1.1-2.5-2.1-2.9-4.2-2.7-7.3.5-14.6,1.2-21.9,1.3-5.4,0-10.8,2.9-16.4-.4-1.7-1-4.4-.6-6.2.9-3.8,3.5-7.6,7-9.7,11.9-.9,2.1-2.2,4.7,0,6.4,2.3,1.8,4.7.2,6.9-1.2,5.6-3.8,9-9,9.3-17.4,1.7,3.6,3.6,2.8,5.4,2.6,10-.8,19.9-1.4,29.9-2.2,2.9-.2,4.4.7,5.8,3.4ZM296.8,143.8c-.2,4.1-4.9,10.3-8.9,11.8-1,.4-1.9.6-2.8,0-.9-.7-.9-1.8-.5-2.7,1.7-4.8,4.8-8.6,8.6-12,.8-.7,1.8-1,2.7-.2.9.8,1,2,1,3.2Z"/>
        <path d="M156.9,320.8c6.4-23.6,11.8-47.4,17.3-72.7,4.9,12.8,7.2,24.8,11.2,37.1,1.4-2.3,1-3.9.5-5.4-2.7-9.1-5.1-18.3-8.1-27.2-1.7-5.1-2.6-10.1-2.3-15.6.6-11.6.6-23.3.7-34.9,0-1.4.9-3.4-1.9-4.5-1.5,20.8.8,42-4.3,62.5-5,20.1-9.6,40.2-14.4,60.4.4,0,.8.2,1.3.3Z"/>
        <path d="M225.8,97.3c-2.3,1.7-1.3,3.3-.8,4.8,4.6,16,16.6,23.4,31.6,27.1,8.4,2.1,8.5,1.7,8.9,10.2,0,.2.4.4.6.6,2-1.3,1.4-3.4,1.3-5-.4-3.8,1-5,4.9-5.4,6-.6,11.6-3,16.6-6.5,5.4-3.8,9.7-8.6,12.2-14.9-.4.6-.9-.2-1.3.3-9.5,14.1-22.9,21.3-39.5,18.8-17.2-2.6-29.9-11.7-34.4-30Z"/>
        <path d="M131.9,115.3c-.8-.9-1.3-3.1-2.8-2.1-1.9,1.2.1,2.7.8,3.7,7.4,10.3,17.6,15.9,30,18,2.8.5,5.8-.1,8.4.6,3.6.9.6,5.6,3.4,7.4.9-.3.8-1.1.7-1.6-1.3-4.7.6-6.4,5.3-7.7,15-4,23.9-14.4,28.2-29,.4-1.4,1.1-2.8,0-4.4-.6.2-.8.3-.9.4-.4,1.3-.7,2.5-1,3.8-4.1,14.2-12.6,24.3-27.4,27.5-18.1,3.9-33.1-2.1-44.7-16.5Z"/>
        <path d="M53.3,174.9c5.4-1.5,10.7-3.5,16.1-5.1,4.2-1.3,8.7-1.9,12.6-3.7,2.2-1.1,2.5-.8,3.6,1,3,5.1,7.4,8.5,13.1,10,1.8.5,3.8.7,5-1.1,1.2-1.8.3-3.5-.7-5.1-3.6-5.7-11.6-9.5-18.2-7.5-12.8,3.9-25.7,7.5-38.9,9.7-1.2.2-4.6,1.1-5.9,3.1-1,1.6-1.6,3-1.9,4,.3-.6.7-1.2,1.2-1.7.1.6.1,1.2,0,1.8.9-1.4,1.9-3.1,2.4-4.3,3.9-1.4,5.3.7,5.9,4,.5,3.3-2.3,8.6-2.5,9.9,0,0,.2,0,.2.1.6,0,.8.1.8.4,1.5-1,3.6-7,3.1-10.1-.5-3.5,1.1-4.5,4-5.4ZM101.2,172c.6.9,1.7,1.9.7,3.1-.7.9-1.9.3-2.8,0-5.3-1.8-9.6-4.8-12.6-10.7,6.6.7,11.4,2.8,14.7,7.6Z"/>
        <path d="M281.7,263.2c.3,1.8.7,4.4,3.3,4.3,2.3,0,3.1-2.3,3.3-4.4.4-5.7,1-11.4-3.3-16.1-1.4-1.5-1.4-3.3-1.5-5.1-2.2-23.2-5.1-49.1-10-72-.6,7.3,1.5,17.2,2.4,24.3,2.6,20.4,6.7,40.7,5.6,61.4-.1,2.5,0,5,.4,7.5ZM283.4,248.9c4.2,3.8,5,10.4,1.8,17.6-2.8-6.2-1.6-11.8-1.8-17.6Z"/>
        <path d="M188.9,296.8c1.2,14.8,6.9,28.9,6.4,44-.4,11-.4,25.3-.4,38.1.6,0,1.2,0,1.8,0,1-27,1.3-57.2-7.8-82.1Z"/>
        <path d="M348.7,371c-1.1,5.3-2.2,9.6-2.8,13.8.7,0,1.4,0,2.1.1,0-1.1.2-2.1.4-3.1.5-3.1,2.1-6.1.3-10.8Z"/>
        <path d="M156.1,223.3c1.7-6,5.9-19.2,6.1-25.9-.5.6-.9.7-.9,1-5.4,20.8-14.9,48.4-16.7,70-.3,3.7-1.3,7.9,2.8,10.4-2.4-5.6-1.9-11.6-.9-17,2.4-13,5.9-25.8,9.6-38.6Z"/>
        <path d="M240.1,245.1c5.3-19.3,10.6-40.5,13.3-60.4-6.7,18.7-11.3,40.7-13.3,60.4Z"/>
        <path d="M424.1,103.2c-17.8,7-35,6.5-52.2.9,11,8.6,43.5,7.5,52.2-.9Z"/>
        <path d="M390.6,85.6c.4-1.4.6-2.9.5-4.4-.2-2.5-1.2-4.6-4-4.9-2.8-.3-2.8,2.3-3.5,4-.5,1.2-.5,2.6-.7,3.8,0,2.5,0,5.5,3.2,5.8,2.8.3,3.9-2.1,4.5-4.4Z"/>
        <path d="M276.5,53.9c.8.2,1.7.4,1.9-.8.2-1.2-.8-1.3-1.6-1.5-2.8-.7-5.7-1.3-9.1-2.1,3.5-2.6,6.3-4.6,9-6.6-5.2.9-8.4,5-12.8,7.1-.3-.3-.6-.7-.9-1,2.7-2.5,5.4-5.1,8-7.6-5.4,2.3-8.1,7.9-13.3,10.6,6.4,0,12.6.2,18.7,1.9Z"/>
        <path d="M404.1,87.7c1.1-1.3,1.3-3,1.3-5.4,0-.5-.1-1.7-.5-2.8-.6-1.6-1.5-3.3-3.5-2.8-2.5.6-3,3-3.1,5.1-.2,2.6-1.1,5.5,1.7,7.3,1.7,1.1,3.1-.2,4.2-1.5Z"/>
        <path d="M147.6,113.3c14.8,3.4,28.6,0,42-5.6-7,1.6-13.9,3.3-20.9,4.6-7,1.3-14.1.6-21.1,1Z"/>
        <path d="M109.1,346.7c3.1,11.6,6.3,23.1,10.5,34.4.6,0,1.2,0,1.8-.1-3.7-11.5-7.4-23.1-11-34.6-.4.1-.8.3-1.3.4Z"/>
        <path d="M77,108.7c-13.9,6.4-28.6,8.4-43.8,7.7,15.6,3.1,30.1-.1,43.8-7.7Z"/>
        <path d="M256.1,83.9c4.1-.5,4.1-4.1,4.7-7.2-.7-1.9,0-5.5-2.9-4.8-3.9,1-4,5.2-4.5,8.7-.3,2,.9,3.6,2.7,3.3Z"/>
        <path d="M151.6,333c-3,11.4-10.3,32.8-14.1,47.1.6,0,1.1,0,1.7,0,4.1-14.2,10.8-35.3,13.9-46.6-.5-.1-1-.3-1.5-.4Z"/>
        <path d="M43.1,87c-.2-2.7-.4-6.3-3.8-6.5-3-.2-2.7,3-3,5.4.3,2.5.3,5.7,3.6,6.1,3.2.3,3.4-2.7,3.2-4.9Z"/>
        <path d="M273.3,104.4c3.3-.7,6.4-1.2,8.4-3.1-12.6,1.6-25.2,4.5-37.8.4,9.3,4.3,20.2,4.6,29.4,2.7Z"/>
        <path d="M61,83.1c0-2.8-.5-6.2-3.8-6.6-2.6-.3-2.8,2.6-2.9,5,.3,2.4,0,5.7,3.4,6.1,2.8.4,3.4-2.4,3.4-4.5Z"/>
        <path d="M270,83.9c3.2-.6,3.7-3.4,3.5-6.9-.6-1.6-.2-5.3-3.6-4.7-3.6.7-2.9,4.7-2.9,7.5,0,2,.2,4.5,3,4Z"/>
        <path d="M159,93.2c2.8-.2,3.3-2.9,3.4-5.2.1-2.4-.6-5.3-3.1-5.4-3.3-.1-2.9,3.2-3.1,6,.6,1.5-1,4.9,2.7,4.7Z"/>
        <path d="M168.1,92.1c2.6.1,3.4-2.5,3.2-4.8-.2-2.5-.8-5.5-3.7-5.5-2.3,0-2.4,2.8-2.3,5.3.6,1.6-.3,4.8,2.9,5Z"/>
        <path d="M187.2,246.9c.7-10.9-2.3-38.2-5.4-49.1,0,.3-.2.2-.2.5.7,11.2,4.1,48.6,5.7,48.6Z"/>
        <path d="M316.6,142.2c7.1.6,14.1,1.1,21.2,1.7,0-.5,0-.9,0-1.4-7-1.7-14.1-1.5-21.2-1.6,0,.4,0,.9,0,1.3Z"/>
        <path d="M45.2,190.2c0,0,0-.1,0-.3-.8.1-3.3,3.8-5.6,2.1-2.3-1.7-1.5-4.4-1.4-6.8,0-1.7,1-3.2,1.2-4.9-1,1.5-1.8,2.6-1.8,2.5.1-.2,0-1.1.5-2.5-1.4,2.4-1.7,5.2-1.8,7.9,0,2.6.3,5.4,3.3,5.8,2.2.4,6.3-2.5,6.5-3.6-.3.2-.7.2-.9-.2Z"/>
        <path d="M39.4,180.3c0-.6,0-1.2,0-1.8-.5.5-.9,1.1-1.2,1.7-.4,1.4-.4,2.3-.5,2.5,0,.1.8-1,1.8-2.5Z"/>
        <path d="M45.4,190c0-.1-.1-.1-.2-.1,0,.2,0,.3,0,.3.3.4.6.4.9.2,0-.3-.1-.5-.8-.4Z"/>
        <path d="M184.1,256.7c0,.3,0,1.1,1.1.6.9-1.5,0-3.8,1.9-5.6.2,2.1.5,3.8.7,5.6,1.3-2.9,1.5-5.7.2-8.5,0-.2-1-.2-1.3,0-2.3,2.1-2.6,4.9-2.6,7.7Z"/>
        <path d="M380.3,137.3c3.2,3.9,1.8,7.5-.9,11.9,5.6-4.5,5.8-8.7.9-11.9Z"/>
        <path d="M260.4,151.1c-2.5-2.3-2.1-5.5-2.7-9.1-2.3,5.6-1.8,7.1,2.7,9.1Z"/>
        <path d="M238.9,62.2c-18.5,9.4-37.8,9.6-57.6,5.1,12.1,7.9,46.3,4.9,57.6-5.1Z"/>
        <path d="M195.5,40.9c0,2.9.1,7,4,6.7,3.9-.2,4.4-4.3,5-7.8-.3-3.2-1.7-6.8-5.2-6.5-3.8.3-3.7,4.5-3.8,7.6Z"/>
        <path d="M214.7,47.8c2.5.3,3.7-1.8,4.6-3.8.3-.8.6-1.6.7-2.4.7-4.2-1.3-8.9-3.9-8.5-4.3.7-3.8,4.3-3.9,6,0,2.3,0,3.1,0,3.9.1,2,0,4.5,2.5,4.8Z"/>
        <path d="M216.3,26c3.8,2.6,6.5,4.4,9.1,6.3-1.3-3.9-3.7-6-9.1-6.3Z"/>
        <path d="M258.1,159c-2.2,5-2.6,9.1-2.8,13.3,1.6-3.9,3.2-7.8,2.8-13.3Z"/>
        <path d="M156.8,164.8c3.7,4,7.1,8.5,11.2,12,3.5,3,2.5,8.5,7.4,11,0-13-.9-25.6-2.1-38.2-.5,0-1,0-1.5,0,.5,9.5.9,19,1.4,28.4-.3.2-.7.4-1,.6-5.4-6.1-10.8-12.2-16.3-18.3-.9,1.7-.3,3.1.9,4.4Z"/>
        <path d="M155.9,160.3s0,0,0,0c0,0,0,0,0,0,0,0,0,0,0,0Z"/>
        <path d="M155.9,160.3s0,0,0,0c0,0,0,0,0,0,0,0,0,0,0,0Z"/>
        <path d="M175.4,151.1c1.3,8.9,4.2,37.9,6.2,39.9,1.6-1.3-3.7-39.6-6.2-39.9Z"/>
        <path d="M138.9,79.3c-15.8,9.2-32,12.2-48.7,13.8,12.3,2.9,41.9-5.3,48.7-13.8Z"/>
        <path d="M96.3,64.1c.9,2,1.8,4.3,4.4,3.9,2.9-.4,2.9-3.2,3.3-5.4-.3-3.1-1.2-5.9-4-7.5-1.1-.6-2.4-.4-3.2.6-2.1,2.5-1.5,5.2-.6,7.9,0,.2,0,.3.1.5Z"/>
        <path d="M112.3,59.6c.7,2.5.9,5.8,4.4,5.5,3.8-.3,3.7-3.6,3.6-6.5,0-.8-.1-1.7-.5-2.4-1-1.9-1.6-4.9-4.6-4.2-2.5.6-3.3,3-3.1,5.6,0,.7,0,1.3.2,2Z"/>
        <path d="M82.7,58.1c.7-4.8,3.9-7.8,7.5-10.5-5.8,1.3-9,5.7-7.5,10.5Z"/>
        <path d="M349.3,80.3c-17,10.7-35.2,11.1-55.3,6.5,13.2,9.1,44.3,5.1,55.3-6.5Z"/>
        <path d="M307.4,55.6c0,3.2.5,6.6,4.1,6.3,3.6-.2,4.8-3.7,4.9-7,.2-3.3-.5-7.1-4.3-7.1-4.8,0-3.7,4.9-4.7,7.7Z"/>
        <path d="M327.9,62.1c4.5.3,4.3-4.5,4.8-7.8-.6-2.6.5-6.7-3.1-6.9-3.5-.2-4.5,3.5-4.7,6.5-.2,3.1-1.3,7.9,3,8.2Z"/>
        <path d="M340.4,48.3c-1.4-6.4-4.9-8.7-9.1-6.3,4.4,0,5.9,3.7,9.1,6.3Z"/>
        <path d="M188.4,32.3c2.7-1.8,5.3-3.7,9.1-6.3-5.4.3-7.9,2.4-9.1,6.3Z"/>
        <path d="M310,41.3c-4.2-2.4-7.7,0-9.1,6.3,3.3-2.6,4.7-6.3,9.1-6.3Z"/>
        <path d="M161.2,56.7c.3-.2.6-.3.8-.2-2,0,.8-.2,0,0,0,0,.1,0,.2,0,0-.4,0-.8,0-1.2-2,.4-1.8,0-4,.3.6-1.3-.5-2.1.5-2.9s1.5-4.3,2.2-5.9c-1.6.7-3.5,6.5-4.8,8.1,0,0,0,0-.3.3-.8.8-1.8,1.7-2.7,2.3-.4.3-.9.5-1.3.7l6.6-.4c-.4,0,.2-.3,2.7-1Z"/>
        <path d="M155.9,55.1c0,0,.2-.2.3-.3-.2.2-1.1,1-.3.3Z"/>
        <path d="M162.1,56.4c0,0-.1.2-.2.2-.5.6,0,.3.4-.2,0,0,0,0,0,0,0,0-.1,0-.2,0Z"/>
        <path d="M162.2,56.4c0,0-.1,0-.2,0,0,0,.1,0,.2,0,0,0,0,0,0,0Z"/>
        <path d="M158.6,57.7h-.1s0,0,.1,0Z"/>
        <path d="M158.5,57.7h.1c.3,0,.9-.2,1.5-.3.3-.2.7-.5,1.1-.7-2.6.7-3.1,1-2.7,1Z"/>
        <path d="M161.2,56.7c-.4.2-.7.5-1.1.7.7-.2,1.3-.4,1.7-.7,0,0,.1-.1.2-.2-.3,0-.6.2-.8.2Z"/>
        <path d="M162.1,56.4c0,.1-.2.2-.2.2.1,0,.2-.2.2-.2Z"/>
        <path d="M151.9,57.2c.7-.5,0-.5-.8-.3,0,.2.2.4.3.7.1,0,.3-.2.5-.3Z"/>
        <path d="M159.3,57.6c.2,0,.5-.1.8-.3-.6.2-1.2.3-1.5.3h.7Z"/>
        <path d="M151.9,58.1h-.2s0,0,0,0c0,0,.1,0,.2,0Z"/>
        <path d="M164.5,56c0,.3,0,.5,0,.8.2-.3.5-.6,0-.8Z"/>
        <path d="M162.3,56.4c.6-.6,1.2-1.4,0-1.2,0,0-.1,0-.2,0,0,.4,0,.8,0,1.2,0,0,0,0,.1,0Z"/>
        <path d="M162.2,56.5s0,0,0,0c0,0,0,0,0,0,0,0,0,0,0,0Z"/>
        <path d="M162.9,57.2c.4.5,1.2.4,1.5-.2,0,0,0-.1.1-.2,0-.2,0-.5,0-.8,0,0,0,0,0,0-.9-.3-1.4.3-2.2.4,0,0,0,0,0,0,.2.1.5.4.7.6Z"/>
        <path d="M162.2,56.5s0,0,0,0c0,0,0,0-.1,0,0,0,0,0,0,0,0,0,0,0,0,0Z"/>
        <path d="M150.4,58.2c1.3-.8.4-.2,1-.6,0-.2-.2-.4-.3-.7-1,.2-2.2.8-.7,1.3Z"/>
        <path d="M151.7,58.1s0,0,0,0h-1.2c.4.2.8.2,1.2,0Z"/>
        <path d="M240,245.3c-.7,4.3-1.3,8.1-1.8,11.9-.2,1.7-.8,3.6,1,4.9,0,0,0,0,0,0h0s0,0,0,0c0,0,.1-.1.2-.2.6-2.5,2.1-6.9,2.8-9.3.7-2.4-2.6-4.8-2.2-7.3Z" fill="#00b39f"/>
        <path d="M238.2,257.2c.5-3.8,1.1-7.6,1.8-11.9-2.5,4.1-4.4,12.4-3.8,16,.4,2.4.5,2.4,3,.8-1.8-1.3-1.2-3.2-1-4.9Z"/>
        <path d="M239.3,262s0,0,0,0c0,0,0,0,.1,0h0s0,0,0,0Z"/>
        <path d="M239.3,262.1h0s0-.1,0-.2c0,0-.1.1-.2.2,0,0,0,0,0,0Z"/>
        <path d="M240,245.3c-.4,2.5,2.9,4.9,2.2,7.3-.7,2.3-2.2,6.8-2.8,9.3,2.2-2.1,4.3-7.5,4.7-9.9.4-2.5-4.1-4-4.1-6.6Z"/>
        <path d="M67.3,394.2c6.6,3,15.6,2.7,25.2-1-9.1-1.3-16.9-2.2-25.2,1Z" fill="#00b39f"/>
        <path d="M389,394.3c-9.6-4.7-19.5-5.5-29.5-1.1,9.8,2.9,19.6,4.3,29.5,1.1Z" fill="#00b39f"/>
        <path d="M169.3,393.6c6.1,1.6,12.2,1.7,18.4.3-6.1-2.2-12.3-1.1-18.4-.3Z" fill="#00b39f"/>
        <path d="M277,393.1c-2.1-.4-4.2-.6-6.3-.6,0,0,.2,0,.2,0,2,0,4,.2,6,.6Z" fill="#00b39f"/>
        <path d="M282.9,394.8c-.1,0-.2,0-.3-.1-.2,0-.4,0-.7.1h1Z" fill="#00b39f"/>
        <path d="M262.2,393.8c-1.1.3-2.2.6-3.2,1,1.1-.4,2.2-.7,3.2-1Z" fill="#00b39f"/>
        <path d="M126.5,394.7c0,.4.2.8.4,1.1v-2.7c-.3.4-.4.9-.4,1.6Z"/>
        <path d="M153,391.3c-7.3-1.8-14.9-1.7-22.3,0-1,.2-2.1.5-2.9,1s-.7.5-.9.9v2.7c.8,1.2,2.6,1.4,4,1.6,7.6,1,15.3.8,22.9-.7,1.6-.3,2.9-1,3.9-2v-4.4c-.8,1.2-2.1,1.5-4.6.9ZM129.6,394.2c8.1-2.9,16.1-2.6,24.1,0-8,1.7-16.1,2.1-24.1,0Z"/>
        <path d="M129.6,394.2c8.1,2.1,16.1,1.7,24.1,0-8-2.6-16.1-2.9-24.1,0Z" fill="#00b39f"/>
        <path d="M158.7,387.6c-.3,1.2-.6,2.1-1.1,2.8v4.4c1.2-1.2,2-2.8,2.6-4.8,1-3.6,1.9-7.2,2.9-10.8-.7,0-1.4,0-2.1,0-.7,2.8-1.5,5.6-2.2,8.4Z"/>
        <path d="M251.4,391.7c.8,2.1,1.1,4.9,4.1,5,9.5.4,19,.8,28.5.2,1.5,0,3.2-.8,3.2-2.6,0-1.6-1.7-1.9-2.9-2.3-6.2-1.7-12.5-1.7-18.8-1.2-3.7.3-8,3.3-10.8.5-2.5-2.4-3.1-6.9-4.1-10.5,0-.2-.1-.3-.1-.5-1,0-2,0-3-.1,1.3,3.8,2.6,7.7,4,11.5ZM270.7,392.6c2.1,0,4.2.2,6.3.6,2,.3,4,.8,6,1.5-.1,0-.3,0-.4,0,.1,0,.2,0,.3.1h-1c-3.6.6-7.3.2-10.9.2-4,0-7.9.8-11.9-.2,1.1-.4,2.2-.7,3.2-1,2.8-.8,5.6-1.2,8.5-1.2Z"/>
        <path d="M281.9,394.8c.2,0,.4,0,.7-.1-1.9-.7-3.7-1.2-5.6-1.6-2-.3-4-.5-6-.6,0,0-.2,0-.2,0-2.8,0-5.7.4-8.5,1.2-1.1.3-2.1.6-3.2,1h22.9Z" fill="#00b39f"/>
        <path d="M270.9,395.1c3.6,0,7.3.3,10.9-.2h-22.9c4,1,7.9.3,11.9.2Z" fill="#00b39f"/>
        <path d="M262.2,393.8c2.8-.8,5.6-1.2,8.5-1.2-2.9,0-5.7.4-8.5,1.2Z" fill="#00b39f"/>
        <path d="M283,394.6c-2-.6-4-1.1-6-1.5,1.8.3,3.7.9,5.6,1.6.1,0,.3,0,.4,0Z" fill="#00b39f"/>
        <path d="M90,390.9c-6.4-1.3-12.9-1.5-19.3.2-2.2.6-5.2,1.3-5,3.9.2,2.8,3.4,2.8,5.6,3,6.4.8,12.6,0,18.8-1.7,4-1.1,6.2-3.4,7.1-7.4.5-2,1-4.1,1.5-6.1-.7,0-1.3.1-2,.2-.4,1.6-.8,3.2-1.2,4.8-.9,3.4-2.6,3.7-5.4,3.1ZM67.3,394.2c8.4-3.2,16.1-2.3,25.2-1-9.6,3.7-18.6,4.1-25.2,1Z"/>
        <path d="M281,386.5c-6.5-.9-13.1,1.3-19.3,3.7,1.7,1.3,9.3-2,16.5-2,3.8,0,10.3,0,9.5,4.7-.2,1,1.1-.2,1.3,0,1.8-3.1-2.8-4.5-1.3-7.6.5-1,.8-2.1,1-3.3-.8,0-1.5,0-2.3,0,0,.1,0,.3,0,.4-.6,3.3-1.4,4.8-5.4,4.2Z"/>
        <path d="M356.2,392.5c.4,1.5,1.2,2.4,2.5,2.8,9.7,2.9,19.6,3.7,29.6,1.6,1.6-.4,3.4-1.4,3.4-3.2,0-1.7-1.8-2.2-3.2-2.6-7.9-2.7-15.9-3.5-24.1-1.8-6.1,1.3-6.3,1.4-7.7-3.8-.8,0-1.6,0-2.4-.1.6,2.4,1.3,4.9,1.9,7.3ZM389,394.3c-10,3.2-19.8,1.8-29.5-1.1,10.1-4.4,19.9-3.6,29.5,1.1Z"/>
        <path d="M285.2,381.8" fill="#00b39f"/>
        <path d="M79.4,385.1c-.5,0-1,.1-1.5.2,0,1-.1,2-.2,3,1.6-.6,1.7-1.9,1.7-3.2Z"/>
        <path d="M77.7,388.4s0,0,0,0h0s0,0,0,0c0,0,0,0-.1,0,0,0,.1,0,0,0Z" fill="#00b39f"/>
        <path d="M194.9,392.2c.4,0,.9,0,1.3,0,.2-4.3.3-8.7.5-13.2-.6,0-1.2,0-1.8,0,0,4.7,0,9.3,0,13.3Z"/>
        <path d="M345.6,386.8c-.4,3.6-1.6,4.1-4.9,3.6-5.4-.8-11-.8-16.1,1.7-1.8.8-3.5,2-.9,3.9,3.2,2.3,16.9,1.6,20.5-1.1-6.4.1-12.6,1-18.7-1.5,1.3-.4,2.5-1,3.8-1.1,2.3-.3,4.7-.2,6.9-.5,3.4-.5,7.7,2.8,9.8.4,1.5-1.7,1.7-4.6,2-7.4-.7,0-1.4,0-2.1-.1-.1.7-.2,1.4-.3,2.1Z"/>
        <path d="M188.1,391.2c-5.6-.6-11.4-.9-16.9.1-4.6.8-8.2,1.3-8.4-4.4-.3,3.3-2.5,7,1.7,8.4,7.8,2.7,16,2.6,24.1.8,1.5-.3,3.2-1.1,3.1-2.8-.1-1.8-2-2-3.5-2.2ZM169.3,393.6c6.1-.8,12.3-1.9,18.4.3-6.1,1.4-12.3,1.3-18.4-.3Z"/>
        <path d="M162.8,385.6c0,.5,0,.9,0,1.3,0-.4,0-.9,0-1.3Z" fill="#00b39f"/>
        <path d="M121.8,386.5c.4-.1.9-.3,1.3-.4-.5-1.7-1.1-3.4-1.6-5.1-.6,0-1.2,0-1.8.1.7,1.8,1.4,3.6,2.1,5.4Z"/>
        <path d="M136,386.3c.4.1.9.2,1.3.3.5-2,1.2-4.2,1.9-6.7-.6,0-1.2,0-1.7,0-.6,2.3-1.1,4.4-1.5,6.2Z"/>
        <path d="M214.4,391.4c-5.8-1.5-11.6-1.9-17.4.3,5,.6,10.1-.4,14.9,1.2-4.2,1.7-10.3-.3-14.6.9,5.1,2.4,12.3,1.4,17.6,1,.4,0,1.1-.8,1.2-1.4.2-1.3-.9-1.8-1.8-2Z"/>
        <path d="M402.5,391.4c-3.9-1.8-8.1-2.9-12.5-1.8,3.7,1.4,7.8,1.2,11.3,3.2.8.5,2,.9,1.8,2.1-.2,1.3-1.5,1-2.4,1.1-2.5,0-4.9,0-7.4,0,2.5,2.5,5.4,2,8.1,1.8,1.7-.1,3.4-.7,3.8-2.6.4-2.1-1.2-3.1-2.7-3.7Z"/>
        <path d="M120.9,393.5c-.7-3.5,2.1-2.8,3.8-3.5,3.4-1.4,7.2-.3,10.5-2.4-4.3-.7-8.5-.2-12.5,1.2-1.8.6-3.3,1.5-4.1,3.4-.4.9.6,3.4,1.6,3.5,7.3.9,5.5-1,5.6-1.7,0-.3-4.9-.2-4.9-.4Z"/>
        <path d="M59.3,393.1c-.2.9.5,1.8,1.4,1.9.1,0,4.1.4,4.9,0,0,0,.3-.7-1-.9-1.1-.2-3.3,0-3.3-.3-.7-2.1,2.8-3.1,5.2-3.9,3.3-1,7.7-1,11.1-1.6-.6-.1-.6-.6-1.3-.6-8.6-.5-16,1.6-17,5.4Z"/>
        <path d="M77.5,388.3c0,0,.1,0,.2,0h0s0,0,0,0Z" fill="#00b39f"/>
        <path d="M77.6,388.3h0s0,0,0,0c0,0,0,0,0,0Z" fill="#00b39f"/>
        <path d="M232.1,392.8c-2.4,1.2-2.1,2.8.2,3.1,5,.7,16.6.5,16.1-1.4-5.5-1.1-10.2,1.6-14.5-.4-.5.4-1.2.5-1.8-1.2Z"/>
        <path d="M290.3,389.9c.2.8.6,2.2,1.2,2.6,1.8,1.2,7.8.6,4,4.2-.1.1-5.3-.3-7.5-.2-1,0-.8,1.2-.8,1.3,1.9,0,12.8.3,12.1-2.4-.9-3.5-5.7-4.5-8.9-5.6Z"/>
        <path d="M234.7,393.2c3.4-.5,7.6-1,12.1.5.7.2,1.3-.4,2.1-.5-.5-.1-5.1-2-5.6-2-3.9-.8-8.2-.4-11.7,2.1.1.1.1.6.2.7.5.4.8.5,1.3.8.5-.3,1.5-1.6,1.5-1.6Z"/>
      </g>
    </g>
  </g>
</svg>