<svg version="1.0" xmlns="http://www.w3.org/2000/svg"
 width="225.000000pt" height="225.000000pt" viewBox="0 0 225.000000 225.000000"
 preserveAspectRatio="xMidYMid meet">

<g transform="translate(0.000000,225.000000) scale(0.100000,-0.100000)"
fill="#00b39f" stroke="none">
<path d="M1574 2236 c-252 -58 -407 -320 -337 -569 l16 -59 -121 -121 -122
-122 -208 208 -208 208 -1 48 c0 26 -6 59 -13 72 -7 13 -58 70 -113 127 -74
74 -108 102 -126 102 -34 0 -231 -196 -231 -229 0 -29 176 -212 227 -236 19
-9 54 -17 78 -17 43 -1 46 -4 251 -209 l208 -208 -109 -114 -110 -113 -40 15
c-60 22 -227 21 -293 -2 -125 -44 -236 -151 -282 -275 -27 -72 -36 -190 -18
-257 11 -44 17 -50 41 -53 25 -3 45 13 151 118 l123 121 86 -12 c47 -6 90 -15
96 -18 10 -7 21 -54 35 -155 5 -39 4 -40 -119 -166 -69 -70 -125 -131 -125
-134 0 -49 112 -76 231 -56 277 47 453 334 364 594 l-14 41 111 112 112 113
28 -27 27 -26 -25 -32 c-15 -21 -24 -45 -24 -70 0 -33 9 -46 70 -109 61 -63
70 -77 70 -110 0 -20 6 -49 14 -64 8 -15 131 -142 273 -284 218 -217 264 -257
295 -263 20 -4 47 -4 60 0 28 9 304 278 324 317 17 32 18 71 3 101 -6 12 -129
140 -273 285 -266 268 -301 295 -351 276 -12 -5 -37 13 -90 66 -63 63 -77 72
-109 72 -24 0 -48 -9 -70 -25 l-33 -26 -26 27 -27 28 124 123 c109 109 126
122 144 112 41 -22 155 -32 228 -21 246 39 423 274 385 511 -20 124 -43 121
-196 -31 -120 -119 -121 -119 -161 -114 -102 15 -148 25 -155 35 -4 6 -12 50
-18 97 l-11 86 120 121 c126 128 139 152 97 180 -34 22 -159 28 -233 11z"/>
</g>
</svg>
