<svg version="1.0" xmlns="http://www.w3.org/2000/svg"
 width="1199.000000pt" height="1280.000000pt" viewBox="0 0 1199.000000 1280.000000"
 preserveAspectRatio="xMidYMid meet">
<metadata>
Created by potrace 1.15, written by Peter Selinger 2001-2017
</metadata>
<g transform="translate(0.000000,1280.000000) scale(0.100000,-0.100000)"
fill="#00b39f" stroke="none">
<path d="M8685 12213 c-105 -9 -105 -9 -105 -61 -1 -228 -312 -333 -472 -160
l-38 42 -43 -24 c-54 -30 -157 -99 -157 -106 0 -3 10 -24 22 -47 26 -50 30
-150 9 -211 -17 -50 -83 -121 -136 -148 -61 -32 -160 -36 -220 -9 -57 25 -42
38 -122 -108 -29 -53 -53 -103 -53 -112 0 -9 10 -20 23 -26 43 -20 88 -66 114
-117 36 -69 38 -169 4 -238 -41 -86 -150 -158 -238 -158 -21 0 -23 -4 -23 -49
0 -27 -2 -56 -6 -64 -4 -10 6 -16 36 -21 139 -22 229 -129 230 -272 0 -104
-39 -174 -129 -234 l-22 -15 55 -108 c72 -143 68 -139 115 -115 129 64 298 4
362 -130 35 -70 33 -169 -4 -240 l-27 -54 22 -18 c13 -10 65 -44 117 -75 79
-48 96 -54 103 -41 35 63 133 127 192 125 27 -1 28 -2 9 -7 -17 -5 -1 -13 65
-30 48 -13 105 -30 127 -37 l40 -14 -35 30 c-19 17 -25 26 -13 20 61 -31 123
-143 123 -221 0 -37 1 -37 46 -44 26 -3 82 -6 125 -6 76 0 79 1 79 23 0 48 31
124 67 166 37 44 121 91 158 90 11 0 2 -6 -20 -13 -23 -7 -50 -18 -60 -24 -18
-11 -18 -12 5 -7 14 3 54 12 90 19 60 13 63 15 40 25 -22 10 -19 10 20 5 92
-11 169 -65 225 -158 9 -14 22 -10 120 39 154 78 153 77 132 119 -83 175 55
387 251 386 27 0 73 -11 107 -25 45 -19 61 -22 67 -12 4 6 35 54 67 105 l60
93 -54 52 c-79 77 -102 167 -70 273 29 97 125 175 233 190 48 6 50 8 56 43 8
47 8 266 0 323 l-6 45 -68 5 c-149 11 -250 123 -250 277 0 90 56 184 135 228
15 9 13 16 -15 63 -17 29 -49 79 -70 111 l-40 58 -47 -21 c-65 -29 -151 -29
-220 2 -57 24 -128 93 -119 116 3 7 0 13 -6 11 -15 -3 -36 67 -37 123 0 25 6
63 14 85 8 22 15 43 15 46 0 3 -52 32 -115 65 -109 55 -116 58 -127 40 -38
-65 -135 -137 -184 -135 -18 0 -18 1 1 9 18 8 17 9 -8 9 -33 1 -180 36 -217
52 l-25 11 20 -24 c11 -12 2 -7 -19 12 -43 39 -73 98 -84 163 l-7 42 -75 1
c-41 1 -93 -1 -115 -3z m374 -259 c14 -12 -19 -1 -35 12 -18 14 -18 14 6 3 14
-6 27 -13 29 -15z m38 -10 c-3 -3 -12 -4 -19 -1 -8 3 -5 6 6 6 11 1 17 -2 13
-5z m81 -11 c-10 -2 -28 -2 -40 0 -13 2 -5 4 17 4 22 1 32 -1 23 -4z m-183
-856 c404 -192 320 -780 -124 -868 -118 -23 -276 24 -367 108 -194 181 -203
482 -20 665 101 100 200 139 343 134 81 -3 101 -7 168 -39z"/>
<path d="M8400 11940 c-25 -11 -39 -19 -32 -19 16 -1 82 26 82 33 0 4 -1 6 -2
5 -2 -1 -23 -9 -48 -19z"/>
<path d="M9673 11679 c9 -14 29 -34 44 -45 28 -20 62 -41 53 -32 -65 62 -110
98 -97 77z"/>
<path d="M4944 11623 c-17 -80 -38 -139 -69 -198 -38 -74 -93 -147 -104 -140
-5 2 -19 -7 -32 -21 -32 -35 -108 -90 -172 -125 -28 -16 -48 -29 -43 -29 21 0
127 66 186 116 l65 56 -64 -62 c-72 -68 -185 -129 -291 -157 -126 -34 -304
-22 -433 29 -49 19 -23 17 37 -3 86 -28 103 -23 21 7 -107 38 -109 38 -101 26
5 -8 1 -10 -9 -5 -11 4 -13 8 -5 13 6 4 -14 22 -49 44 -33 20 -84 59 -114 86
-30 27 -57 47 -60 44 -16 -16 -126 189 -142 264 -5 24 -11 32 -23 28 -10 -2
-51 -12 -92 -21 -162 -37 -360 -101 -592 -193 l-26 -11 20 -63 c32 -95 31
-286 -1 -388 -73 -237 -236 -405 -466 -482 -60 -20 -90 -23 -210 -23 -107 0
-154 5 -200 19 -84 26 -206 90 -260 138 l-46 40 -57 -53 c-81 -77 -217 -222
-301 -323 l-73 -87 76 -80 c150 -159 217 -369 186 -580 -49 -339 -324 -590
-665 -606 -60 -3 -124 0 -160 7 -99 20 -95 22 -116 -45 -50 -156 -139 -564
-139 -639 0 -11 9 -16 29 -16 17 0 65 -11 108 -25 200 -63 367 -219 447 -415
39 -94 49 -166 44 -297 -4 -99 -10 -131 -35 -199 -53 -142 -139 -255 -261
-341 -67 -48 -173 -97 -235 -108 -20 -4 -37 -9 -37 -12 0 -5 49 -199 71 -281
11 -40 14 -43 38 -38 14 4 64 9 111 12 193 14 384 -56 532 -194 279 -260 291
-708 27 -996 l-56 -61 55 -70 c77 -97 255 -295 346 -385 l76 -74 57 56 c32 31
80 70 108 87 55 35 195 91 222 90 16 0 16 -2 -2 -10 -14 -7 -9 -7 20 -3 22 4
76 10 120 15 l80 8 -100 -3 c-55 -2 -89 1 -75 5 14 4 66 7 115 8 324 3 606
-214 686 -527 28 -111 26 -266 -5 -368 -12 -44 -26 -87 -30 -96 -9 -20 2 -25
189 -93 121 -44 375 -117 451 -129 l40 -7 18 58 c34 108 86 193 171 279 72 73
199 164 211 151 3 -2 -14 -15 -38 -27 -58 -30 -126 -81 -168 -126 -33 -34 -31
-34 23 9 86 70 164 117 242 148 74 30 77 40 5 14 -24 -8 -45 -13 -48 -11 -2 3
27 14 65 27 46 14 104 23 180 26 137 7 227 -11 339 -67 91 -44 198 -125 188
-142 -4 -6 -3 -8 4 -4 15 9 97 -101 137 -186 19 -40 42 -103 51 -139 l16 -65
81 12 c166 24 525 108 543 127 3 2 0 16 -5 30 -22 58 -32 184 -21 272 21 166
89 306 205 421 130 129 283 194 465 199 94 2 97 2 30 -4 l-75 -7 62 -2 c63 -2
169 -25 280 -60 72 -23 77 -14 8 13 -26 9 -44 19 -41 22 2 3 38 -11 78 -30 82
-40 173 -110 230 -178 l38 -46 -50 -87 c-51 -89 -145 -285 -138 -290 1 -2 27
-16 56 -31 71 -38 146 -121 185 -202 30 -64 32 -74 32 -183 0 -109 -2 -119
-32 -183 -69 -145 -207 -243 -358 -254 l-75 -6 0 -107 0 -107 61 -7 c218 -22
399 -252 375 -477 -13 -127 -93 -259 -197 -327 l-58 -38 77 -155 c43 -85 90
-173 105 -196 l27 -42 64 30 c130 61 264 59 395 -7 159 -79 250 -240 238 -418
-6 -92 -24 -148 -67 -212 -16 -25 -30 -47 -30 -49 0 -14 354 -235 376 -235 5
0 17 12 26 28 47 79 177 171 263 187 l30 5 -32 -12 c-29 -12 -22 -13 75 -13
140 -1 226 -28 332 -108 30 -23 58 -41 62 -39 12 3 55 -79 72 -137 9 -30 16
-83 16 -117 l0 -62 93 -6 c112 -7 218 -10 273 -8 l41 2 5 69 c4 49 14 89 36
135 47 100 170 221 204 200 6 -4 8 -3 4 4 -14 23 85 47 199 47 103 0 114 -2
178 -32 82 -39 174 -124 207 -190 12 -26 24 -49 25 -51 9 -12 350 161 405 206
l22 18 -22 43 c-106 210 -13 486 200 589 135 65 277 64 407 -4 l63 -33 55 77
c29 42 80 122 111 176 l58 99 -25 16 c-54 33 -132 124 -162 189 -27 57 -32 81
-35 164 -4 80 0 108 18 162 57 171 219 293 398 298 54 1 63 4 68 22 19 76 18
527 -1 615 -6 29 -6 29 -98 33 -147 8 -256 64 -339 173 -64 85 -82 143 -83
270 0 103 2 114 32 177 36 76 107 158 170 195 l44 25 -32 57 c-42 76 -174 274
-192 289 -12 10 -22 9 -48 -7 -19 -11 -61 -27 -94 -35 -157 -42 -320 3 -435
117 -46 47 -66 78 -38 61 7 -4 8 -3 4 5 -4 6 -11 9 -16 6 -14 -8 -58 95 -71
167 -14 78 -1 186 31 249 l20 38 -95 56 c-88 52 -285 149 -290 143 -1 -2 -12
-21 -26 -43 -32 -54 -94 -120 -137 -147 -39 -24 -56 -27 -189 -35 -134 -7
-221 16 -328 87 -67 45 -72 45 -30 -1 l40 -44 -48 45 c-80 75 -137 198 -137
297 l0 43 -112 0 c-62 0 -170 -5 -240 -11 l-128 -12 0 -58 c0 -163 -102 -319
-258 -392 -57 -27 -81 -32 -164 -35 -79 -4 -108 0 -162 18 -79 26 -175 94
-212 150 -15 22 -31 40 -37 40 -17 0 -113 -56 -228 -132 l-106 -71 34 -66
c115 -224 29 -488 -195 -598 -75 -38 -77 -38 -196 -38 -111 0 -126 2 -180 28
l-59 27 64 51 c112 89 313 275 393 364 l78 85 -55 60 c-69 74 -139 211 -162
315 -13 57 -16 105 -13 184 9 188 73 334 204 465 135 135 277 196 479 204 103
4 132 1 203 -18 46 -12 85 -20 88 -17 23 23 166 479 188 597 l6 35 -59 18
c-93 29 -179 85 -266 172 -315 313 -262 835 109 1083 66 44 175 91 249 107 27
5 28 7 22 53 -24 173 -75 404 -130 587 -30 99 -134 395 -139 395 0 0 -35 -12
-76 -26 -91 -32 -277 -44 -369 -25 -270 58 -471 246 -546 511 -26 89 -26 260
-1 355 32 122 132 290 204 344 l27 21 -145 143 c-80 78 -193 182 -253 231
l-107 88 -65 -60 c-257 -235 -668 -244 -933 -20 -118 100 -206 250 -238 408
-16 79 -16 132 -1 289 2 22 -5 27 -58 43 -152 47 -526 128 -591 128 -7 0 -16
-12 -20 -27z m-1071 -462 c20 -12 37 -25 37 -27 0 -20 -174 116 -191 149 -7
12 17 -5 52 -38 35 -34 81 -71 102 -84z m732 -2196 c286 -47 529 -171 728
-372 368 -371 481 -911 295 -1398 -208 -541 -749 -882 -1328 -835 -850 68
-1408 914 -1139 1724 147 443 533 784 984 870 44 8 89 17 100 19 49 11 278 6
360 -8z m4764 -3761 c14 -12 -19 -1 -35 12 -18 14 -18 14 6 3 14 -6 27 -13 29
-15z m336 -9 c-16 -8 -37 -14 -45 -14 -8 0 1 7 20 14 46 18 64 17 25 0z m-238
-21 c-3 -3 -12 -4 -19 -1 -8 3 -5 6 6 6 11 1 17 -2 13 -5z m170 0 c-3 -3 -12
-4 -19 -1 -8 3 -5 6 6 6 11 1 17 -2 13 -5z m-69 -11 c-10 -2 -26 -2 -35 0 -10
3 -2 5 17 5 19 0 27 -2 18 -5z m-3180 -430 c-10 -2 -26 -2 -35 0 -10 3 -2 5
17 5 19 0 27 -2 18 -5z m79 -19 c-3 -3 -12 -4 -19 -1 -8 3 -5 6 6 6 11 1 17
-2 13 -5z m2536 -791 c-13 -2 -35 -2 -50 0 -16 2 -5 4 22 4 28 0 40 -2 28 -4z
m77 -15 c-26 -5 -21 -6 20 -3 36 2 74 -3 110 -15 30 -10 49 -18 41 -19 -7 -1
28 -21 78 -46 50 -25 104 -57 120 -70 34 -29 49 -33 30 -7 -11 14 -9 13 9 -2
12 -11 20 -21 17 -24 -3 -3 17 -29 44 -57 211 -223 276 -552 167 -840 -104
-273 -362 -482 -635 -512 -63 -7 -64 -8 -26 -13 22 -4 -11 -6 -75 -7 -77 0
-105 2 -85 8 22 6 13 7 -30 4 -37 -2 -50 -1 -35 4 23 7 22 8 -15 14 -22 4 -51
9 -65 12 -14 2 -7 -2 15 -10 34 -13 35 -15 10 -11 -37 6 -148 46 -142 52 2 2
21 -3 42 -11 20 -9 39 -14 41 -12 3 2 -22 14 -53 26 -32 12 -82 38 -111 57
-30 20 -56 33 -59 31 -2 -3 16 -17 41 -32 47 -27 64 -45 24 -24 -41 21 -79 51
-74 57 8 7 -24 42 -37 42 -6 0 -2 -10 9 -22 17 -21 16 -21 -9 1 -15 14 -25 27
-22 29 9 9 -27 42 -38 35 -5 -3 -7 -2 -4 4 4 6 -14 37 -39 69 -25 32 -63 95
-84 139 -208 438 15 960 476 1114 51 17 112 32 135 32 l44 2 -40 6 c-22 3 23
6 100 6 82 0 126 -3 105 -7z m-263 -4 c-3 -3 -12 -4 -19 -1 -8 3 -5 6 6 6 11
1 17 -2 13 -5z m-40 -10 c-3 -3 -12 -4 -19 -1 -8 3 -5 6 6 6 11 1 17 -2 13 -5z
m-107 -34 c-8 -5 -19 -10 -25 -10 -5 0 -3 5 5 10 8 5 20 10 25 10 6 0 3 -5 -5
-10z m650 -10 c19 -11 31 -19 25 -19 -5 0 -26 8 -45 19 -19 11 -30 19 -25 19
6 0 26 -8 45 -19z m132 -78 c7 -7 -12 1 -40 19 -29 17 -52 34 -52 36 0 7 81
-41 92 -55z m-962 -6 c0 -2 -8 -10 -17 -17 -16 -13 -17 -12 -4 4 13 16 21 21
21 13z m-50 -39 c0 -2 -19 -21 -42 -42 l-43 -40 40 43 c36 39 45 47 45 39z
m1125 -47 c21 -22 37 -40 34 -40 -3 0 -23 18 -44 40 -21 22 -37 40 -34 40 3 0
23 -18 44 -40z m56 -67 c13 -16 12 -17 -3 -4 -10 7 -18 15 -18 17 0 8 8 3 21
-13z m176 -535 c-2 -18 -4 -6 -4 27 0 33 2 48 4 33 2 -15 2 -42 0 -60z m-1476
-455 c13 -16 12 -17 -3 -4 -10 7 -18 15 -18 17 0 8 8 3 21 -13z m34 -43 c10
-11 16 -20 13 -20 -3 0 -13 9 -23 20 -10 11 -16 20 -13 20 3 0 13 -9 23 -20z
m260 -208 c-3 -3 -11 0 -18 7 -9 10 -8 11 6 5 10 -3 15 -9 12 -12z m572 -58
c-3 -3 -12 -4 -19 -1 -8 3 -5 6 6 6 11 1 17 -2 13 -5z m-44 -11 c-7 -2 -21 -2
-30 0 -10 3 -4 5 12 5 17 0 24 -2 18 -5z m-885 -1210 c-21 -2 -57 -2 -80 0
-24 2 -7 4 37 4 44 0 63 -2 43 -4z m178 -49 c18 -14 18 -14 -6 -3 -31 14 -36
19 -24 19 6 0 19 -7 30 -16z m108 -83 c52 -54 23 -39 -34 18 -30 31 -41 46
-25 34 17 -12 43 -35 59 -52z"/>
<path d="M3103 7665 c0 -44 2 -61 4 -37 2 23 2 59 0 80 -2 20 -4 1 -4 -43z"/>
<path d="M5703 7665 c0 -38 2 -53 4 -32 2 20 2 52 0 70 -2 17 -4 1 -4 -38z"/>
<path d="M9138 3893 c7 -3 16 -2 19 1 4 3 -2 6 -13 5 -11 0 -14 -3 -6 -6z"/>
<path d="M9178 3883 c7 -3 16 -2 19 1 4 3 -2 6 -13 5 -11 0 -14 -3 -6 -6z"/>
<path d="M8958 2303 c7 -3 16 -2 19 1 4 3 -2 6 -13 5 -11 0 -14 -3 -6 -6z"/>
<path d="M4465 11095 c-25 -12 -26 -14 -5 -9 28 7 60 23 45 23 -5 0 -23 -6
-40 -14z"/>
<path d="M4355 11070 c-27 -7 -27 -8 -5 -8 14 0 39 4 55 8 27 7 27 8 5 8 -14
0 -38 -4 -55 -8z"/>
<path d="M4133 11063 c9 -2 23 -2 30 0 6 3 -1 5 -18 5 -16 0 -22 -2 -12 -5z"/>
<path d="M4208 11053 c17 -2 47 -2 65 0 17 2 3 4 -33 4 -36 0 -50 -2 -32 -4z"/>
<path d="M6457 10654 c-3 -3 -56 -9 -119 -13 l-113 -8 90 -1 c50 -1 112 5 140
12 28 8 41 15 29 15 -11 1 -23 -2 -27 -5z"/>
<path d="M2038 10433 c7 -3 16 -2 19 1 4 3 -2 6 -13 5 -11 0 -14 -3 -6 -6z"/>
<path d="M2088 10423 c12 -2 32 -2 45 0 12 2 2 4 -23 4 -25 0 -35 -2 -22 -4z"/>
<path d="M7800 9804 c14 -16 27 -31 30 -34 3 -3 18 -20 33 -38 30 -38 35 -35
10 6 -24 39 -55 72 -78 84 -17 9 -16 6 5 -18z"/>
<path d="M9178 9373 c7 -3 16 -2 19 1 4 3 -2 6 -13 5 -11 0 -14 -3 -6 -6z"/>
<path d="M8193 5133 c9 -2 25 -2 35 0 9 3 1 5 -18 5 -19 0 -27 -2 -17 -5z"/>
<path d="M2018 4913 c7 -3 16 -2 19 1 4 3 -2 6 -13 5 -11 0 -14 -3 -6 -6z"/>
<path d="M10424 4704 c38 -42 108 -86 156 -98 14 -4 -8 11 -49 33 -41 22 -90
55 -110 73 -36 33 -36 33 3 -8z"/>
<path d="M4158 4273 c12 -2 30 -2 40 0 9 3 -1 5 -23 4 -22 0 -30 -2 -17 -4z"/>
<path d="M4288 4273 c12 -2 32 -2 45 0 12 2 2 4 -23 4 -25 0 -35 -2 -22 -4z"/>
<path d="M4098 4263 c6 -2 18 -2 25 0 6 3 1 5 -13 5 -14 0 -19 -2 -12 -5z"/>
<path d="M4368 4263 c6 -2 18 -2 25 0 6 3 1 5 -13 5 -14 0 -19 -2 -12 -5z"/>
<path d="M4435 4250 c11 -5 27 -9 35 -9 9 0 8 4 -5 9 -11 5 -27 9 -35 9 -9 0
-8 -4 5 -9z"/>
<path d="M4572 4194 c36 -20 85 -52 108 -71 22 -19 43 -33 45 -31 11 11 -182
138 -210 138 -5 -1 20 -17 57 -36z"/>
<path d="M7300 1765 c35 -19 82 -52 105 -73 l40 -37 -39 42 c-34 37 -139 103
-162 103 -5 0 20 -16 56 -35z"/>
<path d="M9406 1031 c-17 -3 28 -6 98 -6 70 0 117 3 104 7 -29 8 -164 8 -202
-1z"/>
</g>
</svg>
