<svg version="1.0" xmlns="http://www.w3.org/2000/svg"
 width="225.000000pt" height="225.000000pt" viewBox="0 0 225.000000 225.000000"
 preserveAspectRatio="xMidYMid meet">

<g transform="translate(0.000000,225.000000) scale(0.100000,-0.100000)"
fill="#00b39f" stroke="none">
<path d="M1004 1916 c-29 -29 -34 -41 -34 -83 l0 -49 -54 -17 c-70 -23 -165
-86 -216 -145 -55 -64 -108 -174 -120 -252 -5 -36 -10 -169 -10 -296 l0 -232
-90 -85 c-79 -75 -90 -90 -90 -120 0 -22 8 -41 21 -53 20 -18 48 -19 673 -21
693 -3 688 -3 712 45 21 43 6 67 -97 148 l-98 79 -1 156 0 156 -57 6 c-126 13
-266 122 -314 244 -35 88 -33 217 4 297 31 67 32 76 13 76 -25 0 -46 30 -46
65 0 74 -43 115 -121 115 -33 0 -47 -6 -75 -34z"/>
<path d="M1509 1876 c-102 -27 -181 -95 -228 -196 -22 -46 -26 -69 -26 -140 0
-72 4 -93 27 -140 35 -71 97 -133 167 -168 49 -24 67 -27 151 -27 80 0 103 4
145 25 239 116 267 447 51 595 -85 57 -192 77 -287 51z m101 -346 c0 -143 -1
-150 -20 -150 -19 0 -20 7 -20 130 l0 130 -23 -15 c-24 -15 -37 -12 -37 11 0
17 47 43 78 44 22 0 22 -1 22 -150z"/>
<path d="M920 455 c-33 -40 45 -136 125 -153 75 -16 131 3 184 63 34 39 42 89
15 99 -9 3 -82 6 -164 6 -118 0 -150 -3 -160 -15z"/>
</g>
</svg>
