<svg version="1.0" xmlns="http://www.w3.org/2000/svg"
 width="922.000000pt" height="980.000000pt" viewBox="0 0 922.000000 980.000000"
 preserveAspectRatio="xMidYMid meet">

<g transform="translate(0.000000,980.000000) scale(0.100000,-0.100000)"
fill="#00b39f" stroke="none">
<path d="M4320 9789 c-697 -61 -1292 -314 -1777 -755 -306 -278 -579 -732
-648 -1074 -29 -147 -36 -281 -42 -786 l-6 -510 -54 -29 c-100 -52 -198 -188
-223 -312 -8 -34 -11 -116 -8 -212 l4 -156 57 -167 c77 -227 159 -434 209
-531 59 -115 184 -240 289 -291 123 -60 214 -67 389 -30 24 5 30 -6 137 -223
242 -495 456 -815 728 -1088 287 -288 571 -450 925 -527 90 -19 134 -22 310
-22 176 0 220 3 310 22 656 143 1124 589 1620 1547 117 225 205 371 275 455
70 84 124 187 174 332 51 150 64 242 59 425 -3 125 -7 155 -26 196 -47 105
-135 179 -216 183 l-41 2 1 43 c0 24 8 105 17 179 28 226 37 381 37 664 0 363
-15 487 -87 726 -139 463 -480 844 -970 1082 -895 435 -2075 306 -2769 -301
-216 -188 -387 -435 -483 -697 -120 -328 -152 -890 -80 -1429 31 -233 34 -279
20 -271 -14 9 -28 41 -88 201 -67 180 -98 232 -155 264 l-48 26 0 351 c0 622
33 834 172 1109 264 523 748 947 1313 1149 320 114 594 159 965 159 479 0 887
-94 1270 -294 450 -235 786 -578 1014 -1037 140 -279 143 -299 161 -1017 9
-308 19 -578 25 -600 19 -81 106 -122 188 -89 49 19 76 53 87 109 4 22 6 328
6 681 l-1 641 -45 134 c-60 179 -114 304 -187 435 -406 732 -1179 1210 -2143
1324 -123 15 -537 21 -665 9z m-495 -2160 c259 -228 453 -363 706 -489 289
-146 598 -245 980 -314 221 -41 675 -86 859 -86 54 0 72 -4 77 -15 15 -40 -39
-432 -116 -839 -17 -88 -29 -162 -26 -164 2 -3 25 39 50 93 84 182 169 285
236 285 39 0 101 -50 129 -106 20 -40 25 -68 28 -152 10 -240 -64 -428 -263
-672 -47 -57 -64 -89 -259 -493 -260 -538 -489 -850 -772 -1052 -162 -117
-385 -210 -557 -234 -100 -14 -388 -14 -536 0 -236 22 -456 116 -661 283 -106
86 -225 207 -297 302 -97 127 -290 440 -279 451 3 3 74 -33 158 -79 259 -143
359 -184 708 -285 184 -53 247 -67 347 -75 127 -12 295 -2 375 22 65 19 120
69 161 149 31 61 37 82 37 135 0 75 -38 160 -97 219 -59 59 -105 69 -356 74
l-217 5 -54 -26 c-49 -24 -146 -114 -172 -161 -10 -18 -15 -19 -59 -7 -225 60
-544 224 -780 401 -110 83 -324 285 -355 336 -11 18 -31 72 -45 121 -14 49
-73 229 -130 399 -57 171 -107 329 -111 351 -6 39 -4 43 28 68 19 14 48 26 64
26 70 0 153 -100 239 -285 25 -54 47 -96 49 -94 2 2 -7 60 -20 129 -101 514
-143 910 -116 1097 32 226 344 612 589 729 77 37 242 93 273 93 18 1 69 -38
185 -140z"/>
<path d="M3005 3039 c-33 -9 -285 -78 -560 -153 -821 -224 -1118 -315 -1378
-422 -244 -100 -491 -244 -614 -358 -79 -73 -144 -170 -204 -305 -117 -264
-179 -534 -209 -911 -9 -125 -30 -684 -30 -827 l0 -63 4600 0 4600 0 0 63 c0
144 -21 702 -31 827 -30 387 -87 637 -208 910 -93 209 -172 301 -379 438 -326
215 -662 335 -1817 647 -236 64 -474 130 -528 146 -55 17 -101 28 -103 26 -3
-2 0 -24 5 -48 14 -58 14 -380 0 -510 -14 -144 -61 -277 -184 -527 -151 -308
-330 -616 -489 -842 -199 -283 -503 -586 -764 -761 l-103 -69 -121 82 c-385
263 -739 675 -1030 1198 -88 157 -243 465 -300 594 -85 194 -119 439 -98 713
6 91 10 166 8 167 -1 1 -30 -5 -63 -15z"/>
<path d="M4184 2652 c-61 -59 -130 -128 -152 -153 l-42 -46 68 -99 c37 -54
113 -146 168 -204 l102 -105 -164 -410 c-90 -225 -163 -413 -161 -417 1 -4 31
-49 67 -99 86 -122 213 -249 393 -393 l147 -118 93 74 c191 154 341 305 461
462 l58 75 -161 405 c-89 223 -161 412 -161 419 0 7 39 56 86 108 94 104 234
284 234 301 0 23 -143 176 -243 259 l-58 49 -312 -1 -312 0 -111 -107z"/>
</g>
</svg>
