<svg width="360" height="360" viewBox="0 0 360 360" fill="none" xmlns="http://www.w3.org/2000/svg">
<g clip-path="url(#clip0_2_15)">
<path d="M268 26H92C55.5492 26 26 55.5492 26 92V268C26 304.451 55.5492 334 92 334H268C304.451 334 334 304.451 334 268V92C334 55.5492 304.451 26 268 26Z" stroke="white" stroke-width="52"/>
<path fill-rule="evenodd" clip-rule="evenodd" d="M164 108C159.582 108 156 111.582 156 116V145.287C156 147.496 157.791 149.287 160 149.287H169C171.209 149.287 173 151.078 173 153.287V175.496C173 177.706 171.209 179.496 169 179.496H160C157.791 179.496 156 181.287 156 183.496V215.177C156 216.87 157.065 218.379 158.659 218.946L173 224.047C171.412 228.415 167 252 167 252H184L203.253 225.091C203.739 224.412 204 223.598 204 222.764V116C204 111.582 200.418 108 196 108H164Z" fill="white"/>
</g>
<defs>
<clipPath id="clip0_2_15">
<rect width="360" height="360" fill="white"/>
</clipPath>
</defs>
</svg>