<svg xmlns="http://www.w3.org/2000/svg" xmlns:xlink="http://www.w3.org/1999/xlink" width="20" height="20" version="1.1" viewBox="0 0 20 20"><title/><desc/><g id="Page-1" fill="none" fill-rule="evenodd" stroke="none" stroke-width="1"><g id="Core" fill="#00d3a9" transform="translate(-128.000000, -86.000000)"><g id="check-circle-outline" transform="translate(128.000000, 86.000000)"><path id="Shape" d="M5.9,8.1 L4.5,9.5 L9,14 L19,4 L17.6,2.6 L9,11.2 L5.9,8.1 L5.9,8.1 Z M18,10 C18,14.4 14.4,18 10,18 C5.6,18 2,14.4 2,10 C2,5.6 5.6,2 10,2 C10.8,2 11.5,2.1 12.2,2.3 L13.8,0.7 C12.6,0.3 11.3,0 10,0 C4.5,0 0,4.5 0,10 C0,15.5 4.5,20 10,20 C15.5,20 20,15.5 20,10 L18,10 L18,10 Z"/></g></g></g></svg>