<svg xmlns="http://www.w3.org/2000/svg" xmlns:xlink="http://www.w3.org/1999/xlink" style="enable-background:new 0 0 550 550" id="Layer_1" x="0" y="0" version="1.1" viewBox="0 0 550 550" xml:space="preserve"><style type="text/css">.st0{display:none}.st1{display:inline}.st2{fill:#647881}.st3{fill:#00b39f}.st4{fill:#00d3a9}.st5{fill:#3c494e}.st6{display:inline;fill:#00b39f}.st7{fill:#477e96}.st8{fill:#3c494f}.st10,.st11,.st9{display:inline}.st9{fill:none}.st10{fill:#3c494e}.st11{fill:#647881}.st12{fill:#b32700}.st12,.st13,.st14{display:inline}.st13{fill:#d32a00}.st14{fill:#e72a00}</style><g class="st0"><path d="M335.1,262.1" class="st1"/><path d="M54.5,308c2.1-4.5,5.1-8.3,8.2-12.1c11-14,24.3-25.6,39-35.5c12.9-8.5,26.7-15.4,41.3-20.4 c13.7-4.8,27.8-7.8,42.3-9.5c15-1.7,29.8-0.9,44.7,1.2c5.6,0.8,5.6,0.9,4.3,6.4c-0.9,3.9-0.9,3.9-4.9,3c-12.5-2.8-25.2-4.1-38-3.5 c-4.5,0.2-9,0.6-13.6,1.1c-32.6,3.2-61.7,15-88.1,34.1c-12.9,9.3-24.1,20.4-33.5,33.3C55.6,306.7,55,307.3,54.5,308z" class="st1"/><path d="M300.9,287.2c-1.7-1.2-3.9-2-5.3-3.8c-1.1-1.5,0.4-2.5,1.1-3.5c3.5-5.1,7.2-10.2,10.7-15.4 c1.2-1.8,2.1-2.1,3.9-0.8c4.6,3.3,4.6,3.2,1.3,7.8c-3.4,4.7-6.7,9.5-10.1,14.2C302,286.3,301.9,287,300.9,287.2z" class="st1"/><path d="M277.4,245.8c-0.1,0.3-0.3,0.8-0.5,1.2c-2.5,5.9-5,11.8-7.5,17.7c-1.3,3.1-1.6,3.3-4.8,1.9 c-5.1-2.2-4.3-1.5-2.4-5.9c2.3-5.6,4.9-11.1,7.1-16.8c0.7-1.8,1.7-2,3.2-1.3c1.2,0.6,2.4,1.1,3.7,1.6 C276.9,244.5,277.4,244.8,277.4,245.8z" class="st1"/><path d="M373.4,331.6c0,0.7-0.6,1-1.1,1.3c-6.2,3.7-12.4,7.4-18.6,11.2c-0.1,0.1-0.3,0.2-0.4,0.2 c-2.8-0.2-2.8-3.1-4.2-4.7c-0.8-0.8-0.6-1.9,0.5-2.5c6.2-3.7,12.4-7.4,18.7-11.1c0.5-0.3,1-0.5,1.6-0.2 C370.1,326,373.4,331.2,373.4,331.6z" class="st1"/><path d="M329.9,313c-0.6,0-0.9-0.3-1.3-0.7c-1-1.1-2-2.2-3.1-3.3c-1-1-0.9-1.8,0.1-2.7c5.2-4.8,10.4-9.6,15.5-14.4 c1-0.9,1.8-1,2.7,0c0.1,0.1,0.2,0.2,0.4,0.4c4.8,5.1,4.4,3.8-0.1,8c-4.1,3.9-8.3,7.7-12.5,11.5C331.1,312.3,330.6,312.9,329.9,313z" class="st1"/></g><g class="st0"><path d="M203.3,376.4c-1,0-2-0.4-2.7-1.3L60.1,205.4c-1.2-1.5-1-3.7,0.5-4.9s3.7-1,4.9,0.5l140.4,169.8 c1.2,1.5,1,3.7-0.5,4.9C204.9,376.1,204.1,376.4,203.3,376.4z" class="st1"/></g><g class="st0"><path d="M203.3,376.4c-1.3,0-2.5-0.7-3.1-1.9L96.5,166.3c-0.9-1.7-0.2-3.8,1.6-4.7c1.7-0.9,3.8-0.2,4.7,1.6 l103.7,208.1c0.9,1.7,0.2,3.8-1.6,4.7C204.4,376.3,203.7,376.4,203.3,376.4z" class="st1"/></g><g class="st0"><path d="M203.3,376.4c-0.3,0-0.6,0-1-0.1c-1.9-0.5-2.9-2.5-2.4-4.3L283,79.1c0.5-1.9,2.5-2.9,4.3-2.4 c1.9,0.5,2.9,2.5,2.4,4.3l-83.1,292.9C206.1,375.4,204.7,376.4,203.3,376.4z" class="st1"/></g><g class="st0"><path d="M203.3,376.4c-0.8,0-1.5-0.2-2.1-0.7L34.8,246.5c-1.5-1.2-1.8-3.4-0.6-4.9s3.4-1.8,4.9-0.6l166.2,129.2 c1.5,1.2,1.8,3.4,0.6,4.9C205.4,375.9,204.4,376.4,203.3,376.4z" class="st1"/></g><g class="st0"><path d="M203.3,376.4c-0.6,0-1.1-0.1-1.7-0.4c-1.7-0.9-2.3-3.1-1.4-4.7L357.9,82.4c0.9-1.7,3.1-2.3,4.7-1.4 s2.3,3.1,1.4,4.7L206.4,374.6C205.7,375.7,204.6,376.4,203.3,376.4z" class="st1"/></g><g class="st0"><path d="M203.3,376.4c-1.6,0-3.1-1.2-3.4-2.8l-46.8-237.2c-0.4-1.9,0.9-3.7,2.8-4.1c1.9-0.4,3.7,0.9,4.1,2.8 l46.8,237.1c0.4,1.9-0.9,3.7-2.8,4.1C203.7,376.4,203.4,376.4,203.3,376.4z" class="st1"/></g><g class="st0"><path d="M203.3,376.4c-0.1,0-0.1,0-0.2,0c-1.9-0.1-3.4-1.8-3.3-3.7l15.1-262.2c0.1-1.9,1.8-3.4,3.7-3.3 s3.4,1.8,3.3,3.7l-15.2,262.2C206.6,375,205.1,376.4,203.3,376.4z" class="st1"/></g><g class="st0"><path d="M203.3,376.4c-0.8,0-1.7-0.3-2.3-0.9c-1.4-1.3-1.6-3.5-0.3-4.9l208.8-234.8c1.3-1.4,3.5-1.6,4.9-0.3 c1.4,1.3,1.6,3.5,0.3,4.9L205.9,375.2C205.1,376,204.3,376.4,203.3,376.4z" class="st1"/></g><g class="st0"><path d="M203.3,376.4c-1.1,0-2.2-0.5-2.9-1.5c-1.1-1.6-0.7-3.8,0.8-4.9l295.9-209c1.6-1.1,3.8-0.7,4.9,0.8 s0.7,3.8-0.8,4.9l-295.9,209C204.6,376.2,203.9,376.4,203.3,376.4z" class="st1"/></g><g class="st0"><path d="M203.3,376.4c-1.4,0-2.7-0.8-3.3-2.2c-0.7-1.8,0.2-3.8,2-4.5l426.5-165.9c1.8-0.7,3.8,0.2,4.5,2 s-0.2,3.8-2,4.5L204.6,376.2C204.1,376.3,203.6,376.4,203.3,376.4z" class="st1"/></g><g id="Gauge"><g><path d="M137.6,155.8c10.3-5.4,20.9-10.3,31.8-14.4l-2.7-13.3c-11.6,5.7-22.7,12-33.5,19L137.6,155.8z" class="st2"/></g><g><path d="M342.3,134.1l27.5-31c-17.3-3.8-35.3-6.1-53.7-6.9l-16,29.2C314.5,127.3,328.5,130.2,342.3,134.1z" class="st3"/></g><g><path d="M131.3,159.1l-4-8.1c-8.3,5.7-16.4,11.8-24.1,18.2l4.2,5C115.2,168.8,123.2,163.8,131.3,159.1z" class="st2"/></g><g><path d="M395.5,155.6l41.2-29.1c-18.6-9.2-38.4-16.4-59.1-21.6l-27.9,31.4C365.5,141.4,380.9,147.9,395.5,155.6z" class="st4"/></g><g><path d="M101.7,178.3l-3.8-4.6c-7.2,6.2-14.1,12.7-20.6,19.6l3,2.4C87.2,189.6,94.3,183.8,101.7,178.3z" class="st5"/></g><g><path d="M443.7,130.1l-41.3,29.2c17.8,10.1,34.6,22.1,50.1,35.7l53.7-20.9C487.5,157,466.5,142.1,443.7,130.1z" class="st4"/></g><g><path d="M72.3,198.4c-10.5,11.5-20.2,23.7-29,36.5C53,222.6,63.6,211,75,200.5L72.3,198.4z" class="st5"/></g><g class="st0"><path d="M511.7,179.5l-53.4,20.8c62.5,58.2,102.1,144.4,102.1,240.6c0,56.6-13.7,109.6-37.7,155.6 c44.3-50.9,72.9-115.9,77.1-187.4C605.2,319.1,570.7,237,511.7,179.5z" class="st6"/></g><g><path d="M217.6,108.3l-1.1,19.8c10.4-1.9,21-3.3,31.8-4l6.9-24.2C242.4,102,229.9,104.8,217.6,108.3z" class="st7"/></g><g><path d="M255.7,123.7c3.6-0.1,7.3-0.2,11-0.2c8.7,0,17.4,0.4,25.9,1.2l15.6-28.6c-15.4-0.2-30.6,0.7-45.5,2.7 L255.7,123.7z" class="st3"/></g><g><path d="M175.9,138.9c10.9-3.8,22.1-7,33.5-9.4l1.1-19c-12.8,4-25.3,8.9-37.3,14.5L175.9,138.9z" class="st7"/></g></g><g id="Title"><g><path d="M338,451.5h-18.1v-62.6c0-0.6,0-1.2-0.3-1.8c-0.3-0.6-0.6-1.2-1.2-1.5c-0.3-0.3-0.9-0.9-1.5-1.2 c-0.6-0.3-1.2-0.3-1.8-0.3h-83.8v-18.1h83.4c3.1,0,6.1,0.6,8.9,1.8c2.8,1.2,5.2,2.8,7.4,4.9c2.1,2.1,3.7,4.6,4.9,7.4 s1.8,5.8,1.8,8.9v62.6H338z M249.4,451.5h-18.1V384h18.1V451.5z M292.9,451.5h-18.1v-58h18.1V451.5z" class="st8"/></g><g><path d="M215.9,429.1c0,3.1-0.6,5.8-1.8,8.6c-1.2,2.8-2.8,5.2-4.9,7.1c-2.1,2.1-4.3,3.7-7.1,4.9s-5.5,1.8-8.6,1.8 h-80.1v-18.1h80.1c1.2,0,2.1-0.3,3.1-1.2c0.9-0.9,1.2-1.8,1.2-3.1v-7.1c0-1.2-0.3-2.1-1.2-3.1c-0.9-0.9-1.8-1.2-3.1-1.2h-57.7 c-3.1,0-5.8-0.6-8.6-1.8s-5.2-2.8-7.1-4.9c-2.1-2.1-3.7-4.6-4.9-7.1c-1.2-2.8-1.8-5.5-1.8-8.6v-7.1c0-3.1,0.6-6.1,1.8-8.6 c1.2-2.8,2.8-5.2,4.9-7.1c2.1-2.1,4.6-3.7,7.1-4.9c2.8-1.2,5.5-1.8,8.6-1.8h80.1V384h-80.1c-1.2,0-2.1,0.3-3.1,1.2 c-0.9,0.9-1.2,1.8-1.2,3.1v7.1c0,1.2,0.3,2.1,1.2,3.1c0.9,0.9,1.8,1.2,3.1,1.2h57.7c3.1,0,6.1,0.6,8.6,1.8 c2.8,1.2,5.2,2.8,7.1,4.9c2.1,2.1,3.7,4.3,4.9,7.1s1.8,5.5,1.8,8.6V429.1z" class="st8"/></g><path d="M422.1,416.2c0.3,0,0.6,0,1.2,0c7.4,0,13.2-5.8,13.2-13.2v-8.9V388v-8.9c0-7.4-5.8-13.2-13.2-13.2 c-0.3,0-0.6,0-1.2,0H373h-0.3h-16.3v85.6h17.2l-0.3-69.3h43.9v5.8v5.8v5.8h-35.3v16.6" class="st8"/></g><g id="Needle"><path d="M249.8,255.2c-11.7-0.9-21.9,7.8-22.8,19.4c-0.9,11.7,7.8,21.9,19.4,22.8c11.7,0.9,21.9-7.8,22.8-19.4 C270.2,266.3,261.5,256.1,249.8,255.2z M247.5,285c-4.8-0.4-8.3-4.6-8-9.4c0.4-4.8,4.6-8.3,9.4-8c4.8,0.4,8.3,4.6,8,9.4 C256.5,281.8,252.2,285.3,247.5,285z" class="st5"/><path d="M315,163.6c-2.6,1.8-5,3.7-7.5,5.6l-9.3,14.8l-18.7,29.5L260.8,243l-4.7,7.4l-2.3,3.7 c-0.4,0.6-0.7,1.3-1.2,1.8c-0.5,0.6-1,1.1-1.2,1.8c-0.7,3-1.3,6-1.9,9.1c-0.1,0.3-0.1,0.6-0.1,0.9c2.6,0.4,4.8,1.8,6.1,3.9 c0.2-0.2,0.5-0.3,0.8-0.5c2.6-1.8,5-3.7,7.5-5.6c0.6-0.5,0.8-1.2,1.1-1.9c0.3-0.7,0.7-1.2,1.1-1.9l2.3-3.7l4.7-7.4l18.7-29.5 l18.7-29.5l9.3-14.8c0.7-3,1.3-6.1,1.9-9.2c0.6-3.1,1-6.2,1.4-9.4C320.2,160,317.5,161.7,315,163.6z" class="st5"/></g><g id="Ticks" class="st0"><path d="M346.9,217.2l-18.3,20.5c13.2,4.2,26,9.5,38.3,15.7l24.8-17.5C377.4,228.3,362.4,222,346.9,217.2z" class="st9"/><path d="M298.3,206.9L286.8,228c11.6,1.7,23.2,4.2,34.4,7.5l18.2-20.5C326,211.2,312.3,208.5,298.3,206.9z" class="st9"/><path d="M83.5,275l3.1,2.4c7.2-4.9,14.6-9.5,22.3-13.8l-4.1-5C97.3,263.8,90.3,269.3,83.5,275z" class="st9"/><path d="M140.3,237.6l4.5,9c9.4-3.8,18.9-7.1,28.6-9.9l-2.5-12.5C160.3,228.1,150.2,232.6,140.3,237.6z" class="st9"/><path d="M58.5,299.4c7-6.2,14.4-12.1,22.1-17.7l-2.5-1.9C71.2,285.9,64.5,292.5,58.5,299.4z" class="st9"/><path d="M398.5,239.6L373.8,257c15.4,8.3,29.8,18.2,42.9,29.3l29.5-11.5C432,261.4,415.9,249.5,398.5,239.6z" class="st9"/><path d="M110.6,254.8l4.5,5.5c7.5-4,15.3-7.7,23.1-11l-4.2-8.4C125.9,245.1,118.2,249.8,110.6,254.8z" class="st9"/><path d="M216.6,210.9l-1,16.8c8.8-1.2,17.6-1.9,26.3-2.2l5.4-19.1C237.1,207.3,226.9,208.8,216.6,210.9z" class="st9"/><path d="M177.4,221.8l2.6,13c9.5-2.5,19-4.5,28.5-6.1l0.9-16.3C198.7,214.9,188.1,218.1,177.4,221.8z" class="st9"/><path d="M422.6,291.5c40.9,37.1,67.5,87.3,67.5,144.5c0,55.4-20.6,106-54.5,144.6c45.7-40.2,74.5-99,74.5-164.6 c0-52.9-22.7-99.8-58.4-135.9L422.6,291.5z" class="st9"/><path d="M270.1,205.3c-5.1,0-10.2,0.2-15.4,0.5l-5.5,19.5c0.3,0,0.6,0,0.9,0c9.8,0,19.5,0.6,29.2,1.7l11.4-20.8 C283.9,205.6,277.1,205.3,270.1,205.3z" class="st9"/><path d="M104.7,258.7l4.1,5c2.1-1.2,4.2-2.3,6.3-3.4l-4.5-5.5C108.6,256.1,106.7,257.4,104.7,258.7z" class="st10"/><path d="M134.1,240.8l4.2,8.4c2.2-0.9,4.3-1.8,6.5-2.7l-4.5-9C138.2,238.6,136.1,239.7,134.1,240.8z" class="st11"/><path d="M247.4,206.3l-5.4,19.1c2.4-0.1,4.9-0.1,7.3-0.1l5.5-19.5C252.3,205.9,249.7,206.1,247.4,206.3z" class="st12"/><path d="M78,279.7l2.5,1.9c2-1.4,4-2.8,6-4.2l-3.1-2.4C81.7,276.6,79.8,278.1,78,279.7z" class="st10"/><path d="M290.7,206.2l-11.4,20.9c2.5,0.3,5,0.6,7.4,1l11.5-21.1C295.7,206.6,293.3,206.4,290.7,206.2z" class="st12"/><path d="M170.9,224.2l2.5,12.5c2.2-0.7,4.5-1.3,6.8-1.9l-2.6-13C175.3,222.5,173.1,223.3,170.9,224.2z" class="st11"/><path d="M209.6,212.4l-0.9,16.3c2.4-0.4,4.7-0.7,7.1-1l1-16.8C214.3,211.4,211.9,211.9,209.6,212.4z" class="st12"/><path d="M339.5,215l-18.2,20.5c2.5,0.7,4.9,1.5,7.4,2.2l18.3-20.5C344.4,216.4,342,215.7,339.5,215z" class="st13"/><path d="M391.6,235.9l-24.8,17.5c2.3,1.2,4.7,2.4,7,3.6l24.7-17.4C396.1,238.3,394,237.1,391.6,235.9z" class="st13"/><path d="M446.3,274.8l-29.5,11.5c2,1.7,4,3.4,5.9,5.2l29.1-11.3C450,278.4,448.1,276.6,446.3,274.8z" class="st14"/></g></svg>