<svg width="101" height="117" viewBox="0 0 101 117" fill="none" xmlns="http://www.w3.org/2000/svg">
<path fill-rule="evenodd" clip-rule="evenodd" d="M0 12.8494C0 5.75287 5.75287 0 12.8494 0H87.9065C91.3144 0 94.5827 1.35376 96.9924 3.76349C99.4021 6.17322 100.756 9.44153 100.756 12.8494V104.127C100.756 111.223 95.003 116.976 87.9065 116.976H12.8494C5.75287 116.976 0 111.223 0 104.127V12.8494Z" fill="#EEEEEE"/>
<path d="M13.7334 34.1272L15.4053 34.6584C15.1553 35.5959 14.7282 36.2939 14.124 36.7522C13.5199 37.2001 12.7594 37.4241 11.8428 37.4241C10.6969 37.4241 9.75423 37.0387 9.01465 36.2678C8.28548 35.4866 7.9209 34.4189 7.9209 33.0647C7.9209 31.6376 8.29069 30.5282 9.03027 29.7366C9.76986 28.9449 10.7438 28.5491 11.9521 28.5491C13.0042 28.5491 13.8584 28.8564 14.5146 29.4709C14.9001 29.8459 15.1917 30.3772 15.3896 31.0647L13.6709 31.4709C13.5667 31.023 13.3532 30.6741 13.0303 30.4241C12.7074 30.1637 12.3167 30.0334 11.8584 30.0334C11.223 30.0334 10.7074 30.2626 10.3115 30.7209C9.91569 31.1689 9.71777 31.9084 9.71777 32.9397C9.71777 34.023 9.91048 34.7939 10.2959 35.2522C10.6917 35.7105 11.2021 35.9397 11.8271 35.9397C12.2855 35.9397 12.6813 35.7939 13.0146 35.5022C13.348 35.2105 13.5876 34.7522 13.7334 34.1272ZM16.8838 30.2209V28.6897H18.54V30.2209H16.8838ZM16.8838 37.2834V31.0647H18.54V37.2834H16.8838ZM21.7959 37.2834H20.1553V31.0647H21.6865V31.9397C21.9469 31.523 22.1813 31.2522 22.3896 31.1272C22.598 30.9918 22.8324 30.9241 23.0928 30.9241C23.4678 30.9241 23.8324 31.0282 24.1865 31.2366L23.6709 32.6584C23.3896 32.4814 23.1344 32.3928 22.9053 32.3928C22.6657 32.3928 22.4678 32.4605 22.3115 32.5959C22.1553 32.7209 22.0303 32.9501 21.9365 33.2834C21.8428 33.6064 21.7959 34.2991 21.7959 35.3616V37.2834ZM30.3096 32.8928L28.7002 33.1897C28.6377 32.8668 28.5075 32.6272 28.3096 32.4709C28.1221 32.3043 27.8773 32.2209 27.5752 32.2209C27.1585 32.2209 26.8252 32.3616 26.5752 32.6428C26.3356 32.9241 26.2158 33.398 26.2158 34.0647C26.2158 34.8043 26.3408 35.3251 26.5908 35.6272C26.8408 35.9293 27.1742 36.0803 27.5908 36.0803C27.9033 36.0803 28.1585 35.9918 28.3564 35.8147C28.5544 35.6376 28.695 35.3303 28.7783 34.8928L30.4033 35.1741C30.2367 35.9137 29.9137 36.4762 29.4346 36.8616C28.9554 37.2366 28.3148 37.4241 27.5127 37.4241C26.6064 37.4241 25.8825 37.1376 25.3408 36.5647C24.7992 35.9918 24.5283 35.1949 24.5283 34.1741C24.5283 33.1532 24.7992 32.3564 25.3408 31.7834C25.8825 31.2105 26.6169 30.9241 27.5439 30.9241C28.3044 30.9241 28.9085 31.0855 29.3564 31.4084C29.8044 31.7314 30.1221 32.2262 30.3096 32.8928ZM35.6553 37.2834V36.3459C35.4365 36.6793 35.1396 36.9449 34.7646 37.1428C34.4001 37.3303 34.0094 37.4241 33.5928 37.4241C33.1761 37.4241 32.8011 37.3355 32.4678 37.1584C32.1344 36.9709 31.8949 36.7105 31.749 36.3772C31.6032 36.0439 31.5303 35.5855 31.5303 35.0022V31.0647H33.1709V33.9241C33.1709 34.7991 33.2021 35.3355 33.2646 35.5334C33.3271 35.7314 33.4365 35.8876 33.5928 36.0022C33.7594 36.1168 33.9626 36.1741 34.2021 36.1741C34.4834 36.1741 34.7334 36.0959 34.9521 35.9397C35.1813 35.7834 35.3376 35.5907 35.4209 35.3616C35.5042 35.1324 35.5459 34.5751 35.5459 33.6897V31.0647H37.1865V37.2834H35.6553ZM38.8916 30.2209V28.6897H40.5479V30.2209H38.8916ZM38.8916 37.2834V31.0647H40.5479V37.2834H38.8916ZM45.085 31.0647V32.3772H43.96V34.8772C43.96 35.3876 43.9704 35.6845 43.9912 35.7678C44.012 35.8512 44.0589 35.9241 44.1318 35.9866C44.2152 36.0387 44.3089 36.0647 44.4131 36.0647C44.5693 36.0647 44.7881 36.0074 45.0693 35.8928L45.21 37.1741C44.835 37.3407 44.4027 37.4241 43.9131 37.4241C43.6214 37.4241 43.3558 37.3772 43.1162 37.2834C42.8766 37.1793 42.6995 37.0491 42.585 36.8928C42.4808 36.7262 42.4027 36.5126 42.3506 36.2522C42.3193 36.0543 42.3037 35.6637 42.3037 35.0803V32.3772H41.5537V31.0647H42.3037V29.8303L43.96 28.8616V31.0647H45.085ZM49.5713 28.6897H53.0088C53.6859 28.6897 54.1911 28.7209 54.5244 28.7834C54.8577 28.8355 55.1546 28.9553 55.415 29.1428C55.6859 29.3199 55.9098 29.5595 56.0869 29.8616C56.264 30.1532 56.3525 30.4866 56.3525 30.8616C56.3525 31.2574 56.2432 31.6272 56.0244 31.9709C55.8057 32.3043 55.514 32.5543 55.1494 32.7209C55.6702 32.8668 56.0713 33.1272 56.3525 33.5022C56.6338 33.8668 56.7744 34.2991 56.7744 34.7991C56.7744 35.1845 56.6807 35.5647 56.4932 35.9397C56.3161 36.3043 56.0713 36.5959 55.7588 36.8147C55.4463 37.0334 55.0557 37.1689 54.5869 37.2209C54.3057 37.2522 53.6077 37.273 52.4932 37.2834H49.5713V28.6897ZM51.3057 30.1272V32.1116H52.4463C53.1234 32.1116 53.5452 32.1012 53.7119 32.0803C54.0036 32.0491 54.2327 31.9501 54.3994 31.7834C54.5765 31.6064 54.665 31.3772 54.665 31.0959C54.665 30.8355 54.5921 30.622 54.4463 30.4553C54.3005 30.2887 54.0817 30.1897 53.79 30.1584C53.613 30.1376 53.1182 30.1272 52.3057 30.1272H51.3057ZM51.3057 33.5334V35.8303H52.915C53.54 35.8303 53.9359 35.8147 54.1025 35.7834C54.363 35.7314 54.5713 35.6168 54.7275 35.4397C54.8942 35.2626 54.9775 35.0178 54.9775 34.7053C54.9775 34.4553 54.915 34.2418 54.79 34.0647C54.665 33.8772 54.4827 33.7418 54.2432 33.6584C54.014 33.5751 53.5036 33.5334 52.7119 33.5334H51.3057ZM59.7998 37.2834H58.1592V31.0647H59.6904V31.9397C59.9508 31.523 60.1852 31.2522 60.3936 31.1272C60.6019 30.9918 60.8363 30.9241 61.0967 30.9241C61.4717 30.9241 61.8363 31.0282 62.1904 31.2366L61.6748 32.6584C61.3936 32.4814 61.1383 32.3928 60.9092 32.3928C60.6696 32.3928 60.4717 32.4605 60.3154 32.5959C60.1592 32.7209 60.0342 32.9501 59.9404 33.2834C59.8467 33.6064 59.7998 34.2991 59.7998 35.3616V37.2834ZM66.501 35.2991L68.1416 35.5803C67.9333 36.1845 67.5999 36.6428 67.1416 36.9553C66.6833 37.2678 66.1156 37.4241 65.4385 37.4241C64.3551 37.4241 63.5531 37.0699 63.0322 36.3616C62.6156 35.7991 62.4072 35.0855 62.4072 34.2209C62.4072 33.1897 62.6781 32.3824 63.2197 31.7991C63.7614 31.2157 64.4437 30.9241 65.2666 30.9241C66.1937 30.9241 66.9229 31.2314 67.4541 31.8459C67.9958 32.4501 68.251 33.3824 68.2197 34.6428H64.0947C64.1156 35.1324 64.251 35.5126 64.501 35.7834C64.751 36.0543 65.0687 36.1897 65.4541 36.1897C65.7041 36.1897 65.9176 36.122 66.0947 35.9866C66.2718 35.8407 66.4072 35.6116 66.501 35.2991ZM66.5947 33.6428C66.5843 33.1637 66.4593 32.7991 66.2197 32.5491C65.9906 32.2991 65.7041 32.1741 65.3604 32.1741C65.0062 32.1741 64.7093 32.3043 64.4697 32.5647C64.2406 32.8355 64.126 33.1949 64.126 33.6428H66.5947ZM70.7998 32.9553L69.2998 32.6897C69.4665 32.0855 69.7529 31.6428 70.1592 31.3616C70.5758 31.0699 71.1904 30.9241 72.0029 30.9241C72.7321 30.9241 73.2738 31.0126 73.6279 31.1897C73.9925 31.3564 74.2477 31.5751 74.3936 31.8459C74.5394 32.1064 74.6123 32.5959 74.6123 33.3147L74.5967 35.2366C74.5967 35.7887 74.6227 36.1949 74.6748 36.4553C74.7269 36.7053 74.8258 36.9814 74.9717 37.2834H73.3467C73.305 37.1689 73.2529 37.0074 73.1904 36.7991C73.1592 36.6949 73.1383 36.6272 73.1279 36.5959C72.8467 36.8772 72.5446 37.0855 72.2217 37.2209C71.9092 37.3564 71.5706 37.4241 71.2061 37.4241C70.5602 37.4241 70.0498 37.2522 69.6748 36.9084C69.3102 36.5543 69.1279 36.1116 69.1279 35.5803C69.1279 35.2262 69.2113 34.9137 69.3779 34.6428C69.555 34.372 69.7946 34.1637 70.0967 34.0178C70.3988 33.8616 70.8363 33.7314 71.4092 33.6272C72.1696 33.4814 72.7008 33.3459 73.0029 33.2209V33.0647C73.0029 32.7418 72.9248 32.5126 72.7686 32.3772C72.6123 32.2418 72.3154 32.1741 71.8779 32.1741C71.5863 32.1741 71.3571 32.2314 71.1904 32.3459C71.0342 32.4605 70.904 32.6637 70.7998 32.9553ZM73.0029 34.2991C72.7946 34.3616 72.4613 34.4449 72.0029 34.5491C71.5446 34.6428 71.2425 34.7366 71.0967 34.8303C70.8883 34.9866 70.7842 35.1793 70.7842 35.4084C70.7842 35.6376 70.8675 35.8407 71.0342 36.0178C71.2113 36.1845 71.43 36.2678 71.6904 36.2678C71.9925 36.2678 72.279 36.1689 72.5498 35.9709C72.7477 35.8251 72.8779 35.6428 72.9404 35.4241C72.9821 35.2887 73.0029 35.023 73.0029 34.6272V34.2991ZM76.1768 37.2834V28.6897H77.833V33.2522L79.7549 31.0647H81.7861L79.6611 33.3303L81.9424 37.2834H80.1611L78.5986 34.4866L77.833 35.2834V37.2834H76.1768ZM86.5225 35.2991L88.1631 35.5803C87.9548 36.1845 87.6214 36.6428 87.1631 36.9553C86.7048 37.2678 86.137 37.4241 85.46 37.4241C84.3766 37.4241 83.5745 37.0699 83.0537 36.3616C82.637 35.7991 82.4287 35.0855 82.4287 34.2209C82.4287 33.1897 82.6995 32.3824 83.2412 31.7991C83.7829 31.2157 84.4652 30.9241 85.2881 30.9241C86.2152 30.9241 86.9443 31.2314 87.4756 31.8459C88.0173 32.4501 88.2725 33.3824 88.2412 34.6428H84.1162C84.137 35.1324 84.2725 35.5126 84.5225 35.7834C84.7725 36.0543 85.0902 36.1897 85.4756 36.1897C85.7256 36.1897 85.9391 36.122 86.1162 35.9866C86.2933 35.8407 86.4287 35.6116 86.5225 35.2991ZM86.6162 33.6428C86.6058 33.1637 86.4808 32.7991 86.2412 32.5491C86.012 32.2991 85.7256 32.1741 85.3818 32.1741C85.0277 32.1741 84.7308 32.3043 84.4912 32.5647C84.262 32.8355 84.1475 33.1949 84.1475 33.6428H86.6162ZM91.165 37.2834H89.5244V31.0647H91.0557V31.9397C91.3161 31.523 91.5505 31.2522 91.7588 31.1272C91.9671 30.9918 92.2015 30.9241 92.4619 30.9241C92.8369 30.9241 93.2015 31.0282 93.5557 31.2366L93.04 32.6584C92.7588 32.4814 92.5036 32.3928 92.2744 32.3928C92.0348 32.3928 91.8369 32.4605 91.6807 32.5959C91.5244 32.7209 91.3994 32.9501 91.3057 33.2834C91.2119 33.6064 91.165 34.2991 91.165 35.3616V37.2834Z" fill="black"/>
<path fill-rule="evenodd" clip-rule="evenodd" d="M58.1389 7.12073H89.6575C93.7866 7.12073 97.1338 9.14371 97.1338 11.6392C97.1338 14.1346 93.7866 16.1576 89.6575 16.1576H58.1389C54.0099 16.1576 50.6626 14.1346 50.6626 11.6392C50.6626 9.14371 54.0099 7.12073 58.1389 7.12073Z" fill="#B6D7A8"/>
<path d="M55.1483 13.7592V10.3998H53.8983V9.94666H56.9139V10.3998H55.6639V13.7592H55.1483ZM57.4498 13.7592V9.94666H59.1373C59.4811 9.94666 59.7415 9.98311 59.9186 10.056C60.0957 10.1185 60.2363 10.2383 60.3405 10.4154C60.4446 10.5821 60.4967 10.7748 60.4967 10.9935C60.4967 11.2539 60.4082 11.4779 60.2311 11.6654C60.054 11.8529 59.7832 11.9727 59.4186 12.0248C59.554 12.0873 59.6582 12.1498 59.7311 12.2123C59.8769 12.3477 60.0123 12.5196 60.1373 12.7279L60.8092 13.7592H60.1686L59.6686 12.9623C59.5227 12.7331 59.403 12.5612 59.3092 12.4467C59.2155 12.3217 59.1269 12.2383 59.0436 12.1967C58.9707 12.1446 58.8977 12.1081 58.8248 12.0873C58.7623 12.0769 58.6686 12.0717 58.5436 12.0717H57.9498V13.7592H57.4498ZM57.9498 11.6342H59.0436C59.2727 11.6342 59.4498 11.6081 59.5748 11.556C59.7102 11.5039 59.8092 11.4258 59.8717 11.3217C59.9446 11.2175 59.9811 11.1081 59.9811 10.9935C59.9811 10.806 59.9134 10.655 59.778 10.5404C59.653 10.4258 59.4446 10.3685 59.153 10.3685H57.9498V11.6342ZM60.8758 13.7592L62.3289 9.94666H62.8758L64.4383 13.7592H63.8601L63.4226 12.6029H61.8289L61.407 13.7592H60.8758ZM61.9695 12.1967H63.2664L62.8601 11.1342C62.7456 10.8112 62.657 10.5508 62.5945 10.3529C62.5424 10.5925 62.4747 10.8321 62.3914 11.0717L61.9695 12.1967ZM64.8671 13.7592V9.94666H67.4452V10.3998H65.3671V11.5717H67.1639V12.0248H65.3671V13.7592H64.8671ZM68.1217 13.7592V9.94666H70.6998V10.3998H68.6217V11.5717H70.4186V12.0248H68.6217V13.7592H68.1217ZM71.4388 13.7592V9.94666H71.9388V13.7592H71.4388ZM75.5442 12.4154L76.0598 12.556C75.9556 12.9623 75.7629 13.2748 75.4817 13.4935C75.2109 13.7123 74.8775 13.8217 74.4817 13.8217C74.065 13.8217 73.7265 13.7383 73.4661 13.5717C73.2161 13.405 73.0234 13.1654 72.8879 12.8529C72.7525 12.53 72.6848 12.1862 72.6848 11.8217C72.6848 11.4258 72.7577 11.0821 72.9036 10.7904C73.0598 10.4883 73.2786 10.2644 73.5598 10.1185C73.8411 9.96228 74.1484 9.88416 74.4817 9.88416C74.8671 9.88416 75.19 9.98311 75.4504 10.181C75.7109 10.3685 75.8931 10.6394 75.9973 10.9935L75.4973 11.1029C75.4036 10.8321 75.2734 10.6342 75.1067 10.5092C74.94 10.3737 74.7317 10.306 74.4817 10.306C74.1796 10.306 73.9296 10.3789 73.7317 10.5248C73.5442 10.6602 73.4088 10.8477 73.3254 11.0873C73.2421 11.3269 73.2004 11.5717 73.2004 11.8217C73.2004 12.1446 73.2473 12.431 73.3411 12.681C73.4348 12.9206 73.5806 13.1029 73.7786 13.2279C73.9869 13.3425 74.2056 13.3998 74.4348 13.3998C74.7161 13.3998 74.9556 13.3164 75.1536 13.1498C75.3515 12.9831 75.4817 12.7383 75.5442 12.4154ZM78.1379 13.7592V9.94666H78.9036L79.8098 12.6498C79.8931 12.8998 79.9504 13.0873 79.9817 13.2123C80.0338 13.0769 80.1015 12.8737 80.1848 12.6029L81.1067 9.94666H81.7786V13.7592H81.2942V10.5717L80.1848 13.7592H79.7317L78.6223 10.5092V13.7592H78.1379ZM84.3888 12.2592V11.8217L85.9982 11.806V13.2279C85.7482 13.4258 85.493 13.5769 85.2326 13.681C84.9722 13.7748 84.7013 13.8217 84.4201 13.8217C84.0451 13.8217 83.7013 13.7435 83.3888 13.5873C83.0867 13.4206 82.8576 13.1862 82.7013 12.8842C82.5451 12.5821 82.4669 12.2435 82.4669 11.8685C82.4669 11.4935 82.5451 11.1498 82.7013 10.8373C82.8576 10.5144 83.0815 10.2748 83.3732 10.1185C83.6649 9.96228 83.9982 9.88416 84.3732 9.88416C84.6544 9.88416 84.9044 9.93103 85.1232 10.0248C85.3524 10.1081 85.5294 10.2331 85.6544 10.3998C85.7794 10.556 85.8732 10.7592 85.9357 11.0092L85.4826 11.1342C85.4305 10.9467 85.3576 10.7956 85.2638 10.681C85.1805 10.5664 85.0607 10.4779 84.9044 10.4154C84.7482 10.3425 84.5763 10.306 84.3888 10.306C84.1492 10.306 83.9461 10.3425 83.7794 10.4154C83.6128 10.4883 83.4774 10.5821 83.3732 10.6967C83.269 10.8112 83.1909 10.9362 83.1388 11.0717C83.0347 11.3112 82.9826 11.5664 82.9826 11.8373C82.9826 12.181 83.0399 12.4675 83.1544 12.6967C83.2794 12.9258 83.4513 13.0977 83.6701 13.2123C83.8992 13.3164 84.1388 13.3685 84.3888 13.3685C84.6076 13.3685 84.8211 13.3269 85.0294 13.2435C85.2378 13.1602 85.394 13.0717 85.4982 12.9779V12.2592H84.3888ZM86.7207 13.7592V9.94666H87.4863L88.3926 12.6498C88.4759 12.8998 88.5332 13.0873 88.5645 13.2123C88.6165 13.0769 88.6842 12.8737 88.7676 12.6029L89.6895 9.94666H90.3613V13.7592H89.877V10.5717L88.7676 13.7592H88.3145L87.2051 10.5092V13.7592H86.7207ZM92.1435 13.7592V10.3998H90.8935V9.94666H93.9091V10.3998H92.6591V13.7592H92.1435Z" fill="#38761D"/>
<path d="M57.6851 111.919L56.4194 108.56H56.3882C56.3986 108.622 56.4038 108.706 56.4038 108.81C56.4142 108.914 56.4194 109.029 56.4194 109.154C56.4299 109.268 56.4351 109.388 56.4351 109.513V111.919H56.0132V108.122H56.6694L57.8726 111.279H57.9038L59.1226 108.122H59.7632V111.919H59.3257V109.482C59.3257 109.367 59.3257 109.258 59.3257 109.154C59.3361 109.039 59.3413 108.93 59.3413 108.826C59.3517 108.721 59.3621 108.633 59.3726 108.56H59.3413L58.0601 111.919H57.6851ZM62.9304 111.919H60.8054V108.122H62.9304V108.513H61.2585V109.732H62.8366V110.122H61.2585V111.529H62.9304V111.919ZM65.9223 110.904C65.9223 111.133 65.865 111.326 65.7504 111.482C65.6358 111.638 65.4796 111.758 65.2816 111.841C65.0837 111.924 64.8441 111.966 64.5629 111.966C64.4275 111.966 64.2921 111.961 64.1566 111.951C64.0316 111.94 63.9119 111.924 63.7973 111.904C63.6931 111.872 63.5994 111.836 63.516 111.794V111.372C63.6514 111.424 63.8129 111.477 64.0004 111.529C64.1879 111.57 64.3858 111.591 64.5941 111.591C64.7816 111.591 64.9379 111.565 65.0629 111.513C65.1983 111.461 65.2973 111.388 65.3598 111.294C65.4327 111.201 65.4691 111.086 65.4691 110.951C65.4691 110.815 65.4379 110.706 65.3754 110.622C65.3233 110.529 65.2296 110.445 65.0941 110.372C64.9691 110.299 64.7921 110.227 64.5629 110.154C64.3962 110.091 64.2504 110.029 64.1254 109.966C64.0108 109.893 63.9119 109.815 63.8285 109.732C63.7452 109.638 63.6827 109.534 63.641 109.419C63.5994 109.305 63.5785 109.174 63.5785 109.029C63.5785 108.831 63.6254 108.659 63.7191 108.513C63.8233 108.367 63.9691 108.258 64.1566 108.185C64.3441 108.102 64.5525 108.06 64.7816 108.06C64.99 108.06 65.1775 108.081 65.3441 108.122C65.5212 108.154 65.6827 108.206 65.8285 108.279L65.6879 108.654C65.5525 108.591 65.4066 108.544 65.2504 108.513C65.0941 108.471 64.9379 108.451 64.7816 108.451C64.615 108.451 64.4744 108.477 64.3598 108.529C64.2556 108.57 64.1723 108.638 64.1098 108.732C64.0473 108.815 64.016 108.914 64.016 109.029C64.016 109.164 64.0421 109.279 64.0941 109.372C64.1566 109.456 64.2504 109.534 64.3754 109.607C64.5004 109.669 64.6671 109.737 64.8754 109.81C65.0941 109.893 65.2816 109.982 65.4379 110.076C65.5941 110.169 65.7139 110.284 65.7973 110.419C65.8806 110.544 65.9223 110.706 65.9223 110.904ZM69.5783 111.919H69.1252V110.122H67.1408V111.919H66.6877V108.122H67.1408V109.732H69.1252V108.122H69.5783V111.919ZM72.7411 111.919H70.6161V108.122H72.7411V108.513H71.0692V109.732H72.6474V110.122H71.0692V111.529H72.7411V111.919ZM74.608 108.122C74.9205 108.122 75.1757 108.159 75.3736 108.232C75.582 108.305 75.733 108.424 75.8268 108.591C75.9309 108.747 75.983 108.945 75.983 109.185C75.983 109.383 75.9465 109.549 75.8736 109.685C75.8007 109.82 75.707 109.93 75.5924 110.013C75.4778 110.096 75.3528 110.164 75.2174 110.216L76.2643 111.919H75.7486L74.8111 110.326H74.0299V111.919H73.5768V108.122H74.608ZM74.5768 108.497H74.0299V109.951H74.6236C74.9361 109.951 75.1653 109.888 75.3111 109.763C75.457 109.638 75.5299 109.456 75.5299 109.216C75.5299 108.956 75.4518 108.773 75.2955 108.669C75.1393 108.555 74.8997 108.497 74.5768 108.497ZM77.834 110.029L78.8496 108.122H79.334L78.0683 110.451V111.919H77.6152V110.466L76.3496 108.122H76.834L77.834 110.029ZM82.1097 110.013C82.1097 110.326 82.0837 110.602 82.0316 110.841C81.9899 111.081 81.917 111.289 81.8128 111.466C81.7087 111.633 81.5785 111.758 81.4222 111.841C81.266 111.924 81.0733 111.966 80.8441 111.966C80.5628 111.966 80.3285 111.893 80.141 111.747C79.9639 111.591 79.8285 111.367 79.7347 111.076C79.641 110.784 79.5941 110.43 79.5941 110.013C79.5941 109.607 79.6358 109.258 79.7191 108.966C79.8024 108.674 79.9326 108.451 80.1097 108.294C80.2972 108.138 80.542 108.06 80.8441 108.06C81.1358 108.06 81.3701 108.138 81.5472 108.294C81.7347 108.451 81.8753 108.674 81.9691 108.966C82.0628 109.258 82.1097 109.607 82.1097 110.013ZM80.0316 110.013C80.0316 110.367 80.0576 110.664 80.1097 110.904C80.1618 111.133 80.2451 111.31 80.3597 111.435C80.4847 111.549 80.6462 111.607 80.8441 111.607C81.042 111.607 81.1983 111.549 81.3128 111.435C81.4378 111.31 81.5264 111.133 81.5785 110.904C81.641 110.664 81.6722 110.367 81.6722 110.013C81.6722 109.659 81.641 109.367 81.5785 109.138C81.5264 108.898 81.4378 108.721 81.3128 108.607C81.1983 108.492 81.042 108.435 80.8441 108.435C80.6462 108.435 80.4847 108.492 80.3597 108.607C80.2451 108.721 80.1618 108.898 80.1097 109.138C80.0576 109.367 80.0316 109.659 80.0316 110.013ZM85.1562 110.013C85.1562 110.326 85.1302 110.602 85.0781 110.841C85.0364 111.081 84.9635 111.289 84.8593 111.466C84.7552 111.633 84.625 111.758 84.4687 111.841C84.3125 111.924 84.1198 111.966 83.8906 111.966C83.6093 111.966 83.375 111.893 83.1875 111.747C83.0104 111.591 82.875 111.367 82.7812 111.076C82.6875 110.784 82.6406 110.43 82.6406 110.013C82.6406 109.607 82.6823 109.258 82.7656 108.966C82.8489 108.674 82.9791 108.451 83.1562 108.294C83.3437 108.138 83.5885 108.06 83.8906 108.06C84.1823 108.06 84.4166 108.138 84.5937 108.294C84.7812 108.451 84.9218 108.674 85.0156 108.966C85.1093 109.258 85.1562 109.607 85.1562 110.013ZM83.0781 110.013C83.0781 110.367 83.1041 110.664 83.1562 110.904C83.2083 111.133 83.2916 111.31 83.4062 111.435C83.5312 111.549 83.6927 111.607 83.8906 111.607C84.0885 111.607 84.2448 111.549 84.3593 111.435C84.4843 111.31 84.5729 111.133 84.625 110.904C84.6875 110.664 84.7187 110.367 84.7187 110.013C84.7187 109.659 84.6875 109.367 84.625 109.138C84.5729 108.898 84.4843 108.721 84.3593 108.607C84.2448 108.492 84.0885 108.435 83.8906 108.435C83.6927 108.435 83.5312 108.492 83.4062 108.607C83.2916 108.721 83.2083 108.898 83.1562 109.138C83.1041 109.367 83.0781 109.659 83.0781 110.013ZM88.0309 108.997C88.0309 109.174 87.9996 109.326 87.9371 109.451C87.8746 109.576 87.7809 109.68 87.6559 109.763C87.5413 109.836 87.4059 109.888 87.2496 109.919V109.935C87.5517 109.977 87.7756 110.076 87.9215 110.232C88.0777 110.388 88.1559 110.591 88.1559 110.841C88.1559 111.06 88.1038 111.258 87.9996 111.435C87.8954 111.602 87.734 111.732 87.5152 111.826C87.3069 111.919 87.0361 111.966 86.7027 111.966C86.5048 111.966 86.3173 111.951 86.1402 111.919C85.9736 111.888 85.8121 111.836 85.6559 111.763V111.357C85.8121 111.44 85.984 111.503 86.1715 111.544C86.359 111.586 86.5413 111.607 86.7184 111.607C87.0621 111.607 87.3121 111.539 87.4684 111.404C87.6246 111.268 87.7027 111.081 87.7027 110.841C87.7027 110.674 87.6559 110.539 87.5621 110.435C87.4788 110.331 87.3538 110.258 87.1871 110.216C87.0309 110.164 86.8434 110.138 86.6246 110.138H86.234V109.763H86.6246C86.8329 109.763 87.0048 109.737 87.1402 109.685C87.2861 109.622 87.3954 109.539 87.4684 109.435C87.5517 109.32 87.5934 109.185 87.5934 109.029C87.5934 108.841 87.5256 108.695 87.3902 108.591C87.2652 108.487 87.0934 108.435 86.8746 108.435C86.7392 108.435 86.6142 108.451 86.4996 108.482C86.3954 108.503 86.2913 108.539 86.1871 108.591C86.0934 108.633 85.9996 108.685 85.9059 108.747L85.6871 108.451C85.8225 108.346 85.9892 108.258 86.1871 108.185C86.385 108.102 86.6142 108.06 86.8746 108.06C87.26 108.06 87.5465 108.148 87.734 108.326C87.9319 108.503 88.0309 108.727 88.0309 108.997Z" fill="#999999"/>
<g clip-path="url(#clip0_5562_24518)">
<path d="M27.5574 53.1911C27.5574 51.111 29.2379 49.4304 31.318 49.4304C32.3098 49.4304 33.2741 49.8299 33.9766 50.5324C34.6792 51.235 35.0786 52.1992 35.0786 53.1911C35.0786 55.2711 33.3981 56.9517 31.318 56.9517C29.2379 56.9655 27.5574 55.2711 27.5574 53.1911Z" fill="#00B39F"/>
<path d="M16 63.6327C16 61.5526 17.6806 59.872 19.7606 59.872C20.7524 59.872 21.7167 60.2715 22.4192 60.974C23.1218 61.6766 23.5213 62.6408 23.5213 63.6327C23.5213 65.7127 21.8407 67.3933 19.7606 67.3933C17.6806 67.3933 16 65.7127 16 63.6327Z" fill="#00B39F"/>
<path d="M27.5574 53.1911C23.659 53.1911 19.7606 56.5247 19.7606 59.8583" stroke="#359AC0" stroke-miterlimit="10" stroke-linejoin="round"/>
<path d="M79.6277 54.4033C77.7543 53.5079 76.9691 51.2625 77.8645 49.3891C78.2915 48.4937 79.0629 47.805 79.9996 47.4606C80.9364 47.13 81.9695 47.1851 82.8787 47.6121C84.7521 48.5075 85.5373 50.7529 84.6419 52.6263C83.7327 54.4997 81.4874 55.2987 79.6277 54.4033Z" fill="#00B39F"/>
<path d="M37.7924 63.6327C37.7924 61.5526 39.4729 59.872 41.553 59.872C42.5448 59.872 43.5091 60.2715 44.2116 60.974C44.9141 61.6766 45.3136 62.6408 45.3136 63.6327C45.3136 65.7127 43.633 67.3933 41.553 67.3933C39.4867 67.3933 37.7924 65.7127 37.7924 63.6327Z" fill="#00B39F"/>
<path d="M27 78.7606C27 76.6806 28.6806 75 30.7606 75C31.7524 75 32.7167 75.3995 33.4192 76.102C34.1218 76.8046 34.5213 77.7688 34.5213 78.7606C34.5213 80.8407 32.8407 82.5213 30.7606 82.5213C28.6806 82.535 27 80.8407 27 78.7606Z" fill="#DFE300"/>
<path d="M34 79.5C37.3075 80.927 39.1783 79.8776 42.5 80.5" stroke="#DFE300"/>
<path d="M41.5668 67.3933C41.5668 69.3218 39.0046 70.2861 36.4287 71.2504C33.8665 72.2146 31.2905 73.1789 31.2905 75.1074" stroke="#359AC0" stroke-miterlimit="10" stroke-linejoin="round"/>
<path d="M77.6992 52.2543C76.3355 52.2543 75.6329 52.7365 74.9855 53.2324C74.338 53.7145 73.7319 54.2104 72.4784 54.2104" stroke="#359AC0" stroke-miterlimit="10" stroke-linejoin="round"/>
<path d="M31.2767 75.1212C31.2767 73.1927 28.3977 72.2284 25.5187 71.2641C22.6396 70.2999 19.7606 69.3356 19.7606 67.4071" stroke="#359AC0" stroke-miterlimit="10" stroke-linejoin="round"/>
<path d="M41.5668 59.8583C41.5668 56.5247 38.3296 53.1911 35.0924 53.1911" stroke="#359AC0" stroke-miterlimit="10" stroke-linejoin="round"/>
<path d="M68.7315 67.3933C66.6514 67.3933 64.9708 65.7127 64.9708 63.6327C64.9708 62.6408 65.3703 61.6766 66.0728 60.974C66.7754 60.2715 67.7396 59.872 68.7315 59.872C70.8115 59.872 72.4921 61.5526 72.4921 63.6327C72.4921 65.6989 70.8115 67.3933 68.7315 67.3933Z" fill="#00B39F"/>
<path d="M58.4414 57.9573C56.3614 57.9573 54.6808 56.2767 54.6808 54.1967C54.6808 53.2048 55.0803 52.2406 55.7828 51.538C56.4853 50.8355 57.4496 50.436 58.4414 50.436C60.5215 50.436 62.202 52.1166 62.202 54.1967C62.2158 56.2767 60.5215 57.9573 58.4414 57.9573Z" fill="#00B39F"/>
<path d="M68.7315 57.9573C66.6514 57.9573 64.9708 56.2767 64.9708 54.1967C64.9708 53.2048 65.3703 52.2406 66.0728 51.538C66.7754 50.8355 67.7396 50.436 68.7315 50.436C70.8115 50.436 72.4921 52.1166 72.4921 54.1967C72.4921 56.2767 70.8115 57.9573 68.7315 57.9573Z" fill="#00B39F"/>
<path d="M64.9571 63.6189C64.2683 63.6189 63.9239 61.2633 63.5795 58.9078C63.2352 56.5522 62.8908 54.1966 62.202 54.1966" stroke="#359AC0" stroke-miterlimit="10" stroke-linejoin="round"/>
<path d="M62.2158 54.1966C62.9046 54.1966 63.249 54.2104 63.5796 54.2242C63.9239 54.238 64.2683 54.2517 64.9571 54.2517" stroke="#359AC0" stroke-width="2" stroke-miterlimit="10" stroke-linejoin="round"/>
<path d="M68.7314 59.8583C68.7314 59.3899 68.7452 59.1419 68.759 58.9078C68.7728 58.6736 68.7865 58.4256 68.7865 57.9573" stroke="#359AC0" stroke-miterlimit="10" stroke-linejoin="round"/>
<path d="M54.6807 54.1966C52.339 54.1966 51.1681 56.5522 49.9972 58.9078C48.8263 61.2633 47.6554 63.6189 45.3136 63.6189" stroke="#359AC0" stroke-miterlimit="10" stroke-linejoin="round"/>
<path d="M68.7315 48.5213C66.6514 48.5213 64.9708 46.8407 64.9708 44.7606C64.9708 43.7688 65.3703 42.8046 66.0728 42.102C66.7754 41.3995 67.7396 41 68.7315 41C70.8115 41 72.4921 42.6806 72.4921 44.7606C72.4921 46.8407 70.8115 48.5213 68.7315 48.5213Z" fill="#00B39F"/>
<path d="M68.7314 50.436C68.7314 49.9677 68.7452 49.7197 68.759 49.4855C68.7728 49.2513 68.7865 49.0034 68.7865 48.535" stroke="#359AC0" stroke-miterlimit="10" stroke-linejoin="round"/>
<path d="M62.2158 54.1966C62.9046 54.1966 63.249 51.8411 63.5933 49.4855C63.9377 47.13 64.2821 44.7744 64.9709 44.7744" stroke="#359AC0" stroke-miterlimit="10" stroke-linejoin="round"/>
<path d="M68.5111 96.7896C66.4311 96.7896 64.7505 95.109 64.7505 93.0289C64.7505 92.0371 65.15 91.0729 65.8525 90.3703C66.555 89.6678 67.5193 89.2683 68.5111 89.2683C70.5912 89.2683 72.2718 90.9489 72.2718 93.0289C72.2718 95.109 70.5912 96.7896 68.5111 96.7896Z" fill="#00B39F"/>
<path d="M58.2348 87.3536C56.1547 87.3536 54.4741 85.673 54.4741 83.5929C54.4741 82.6011 54.8736 81.6369 55.5761 80.9343C56.2787 80.2318 57.2429 79.8323 58.2348 79.8323C60.3148 79.8323 61.9954 81.5129 61.9954 83.5929C61.9954 85.673 60.3148 87.3536 58.2348 87.3536Z" fill="#00B39F"/>
<path d="M68.5111 87.3536C66.4311 87.3536 64.7505 85.673 64.7505 83.5929C64.7505 82.6011 65.15 81.6369 65.8525 80.9343C66.555 80.2318 67.5193 79.8323 68.5111 79.8323C70.5912 79.8323 72.2718 81.5129 72.2718 83.5929C72.2718 85.673 70.5912 87.3536 68.5111 87.3536Z" fill="#00B39F"/>
<path d="M64.7504 93.0289C64.0617 93.0289 63.7173 90.6734 63.3867 88.3178C63.0423 85.9623 62.6979 83.6067 62.0092 83.6067" stroke="#CD502F" stroke-miterlimit="10" stroke-linejoin="round"/>
<path d="M61.9954 83.5929C62.6841 83.5929 63.0285 83.6067 63.3591 83.6205C63.7035 83.6342 64.0479 83.648 64.7366 83.648" stroke="#CD502F" stroke-miterlimit="10" stroke-linejoin="round"/>
<path d="M68.5111 89.2683C68.5111 88.8 68.5249 88.552 68.5387 88.3178C68.5524 88.0836 68.5662 87.8357 68.5662 87.3673" stroke="#CD502F" stroke-miterlimit="10" stroke-linejoin="round"/>
<path d="M68.5249 77.9313C66.4449 77.9313 64.7643 76.2508 64.7643 74.1707C64.7643 73.1789 65.1638 72.2146 65.8663 71.5121C66.5688 70.8095 67.5331 70.4101 68.5249 70.4101C70.605 70.4101 72.2855 72.0906 72.2855 74.1707C72.2855 76.2508 70.605 77.9313 68.5249 77.9313Z" fill="#00B39F"/>
<path d="M68.5111 79.8323C68.5111 79.3639 68.5249 79.116 68.5387 78.8818C68.5524 78.6476 68.5662 78.3997 68.5662 77.9313" stroke="#DFE300" stroke-miterlimit="10" stroke-linejoin="round"/>
<path d="M61.9954 83.5929C62.6841 83.5929 63.0285 81.2374 63.3729 78.8818C63.7173 76.5262 64.0616 74.1707 64.7504 74.1707" stroke="#DFE300" stroke-miterlimit="10" stroke-linejoin="round"/>
<circle cx="43.5" cy="81.5" r="4" stroke="#CD502F"/>
<path d="M45 82.5C48.3075 83.927 50.6783 83.3776 54 84" stroke="#DFE300"/>
</g>
<g clip-path="url(#clip1_5562_24518)">
<path d="M51.4395 106.55C51.6476 106.81 51.8 107.1 51.9165 107.41C52.067 107.808 52.1357 108.223 52.0497 108.643C51.9344 109.207 51.6043 109.605 51.0524 109.796C50.8381 109.87 50.6154 109.9 50.394 109.807C50.3634 109.796 50.3348 109.78 50.3093 109.761C50.3062 109.892 50.2566 110.018 50.1692 110.117C50.1982 110.104 50.2289 110.095 50.2603 110.091C50.2907 110.085 50.3228 110.081 50.3525 110.078C50.6479 110.054 50.9321 109.991 51.2021 109.862C51.6183 109.663 51.9671 109.379 52.2634 109.027C52.4329 108.83 52.5747 108.61 52.6851 108.375C52.8412 108.027 52.9415 107.657 52.9823 107.279C53.0204 106.952 53.0102 106.632 52.9775 106.308C52.9696 106.23 52.9359 106.198 52.8657 106.186C52.6855 106.154 52.5051 106.118 52.3278 106.074C51.8641 105.962 51.3966 105.866 50.9321 105.759C50.7669 105.72 50.601 105.686 50.4354 105.649C50.5569 105.765 50.6874 105.86 50.8137 105.961C51.0379 106.14 51.2589 106.324 51.4395 106.55Z" fill="#00B39F"/>
<path d="M46.3355 110.569C46.4776 109.971 46.7128 109.422 47.1985 109.018C47.6408 108.65 48.1415 108.535 48.6934 108.727C48.9719 108.823 49.2106 108.979 49.3375 109.262C49.3501 109.287 49.3592 109.314 49.3644 109.342C49.4509 109.259 49.5617 109.206 49.6805 109.192C49.6732 109.187 49.6657 109.182 49.6574 109.175C49.488 109.039 49.3269 108.89 49.13 108.79C48.4303 108.433 47.6953 108.387 46.9484 108.578C46.1563 108.779 45.544 109.259 45.0416 109.892C44.9852 109.963 44.9898 110.008 45.0362 110.08C45.4258 110.686 45.8116 111.295 46.1987 111.903C46.2499 111.983 46.3028 112.062 46.3731 112.168C46.3806 111.989 46.3428 111.846 46.3226 111.702C46.2695 111.323 46.2458 110.945 46.3355 110.569Z" fill="#00D3A9"/>
<path d="M47.5281 106.362C47.7972 106.317 48.0686 106.287 48.341 106.272C48.5883 106.259 48.8297 106.308 49.0694 106.37C49.6351 106.518 50.1422 106.765 50.5144 107.234C50.8694 107.681 50.9547 108.182 50.7641 108.719C50.6667 108.994 50.5021 109.222 50.2209 109.345C50.2014 109.355 50.1802 109.361 50.1585 109.362C50.2427 109.452 50.2949 109.567 50.3069 109.69C50.3195 109.669 50.3339 109.65 50.3497 109.632C50.5558 109.387 50.7422 109.13 50.8492 108.823C50.9895 108.421 51.048 107.994 51.0213 107.569C51.0009 107.153 50.8959 106.746 50.7127 106.372C50.45 105.842 50.0717 105.406 49.6097 105.039C49.5408 104.984 49.4908 104.991 49.419 105.037C48.8243 105.419 48.2257 105.796 47.6309 106.177C47.5385 106.236 47.4393 106.287 47.35 106.371C47.4095 106.375 47.4693 106.372 47.5281 106.362V106.362Z" fill="#00D3A9"/>
<path d="M45.8561 108.825C46.0903 108.529 46.314 108.223 46.6287 108.004C47.2114 107.6 47.8407 107.338 48.5641 107.439C49.1469 107.521 49.5681 107.838 49.7785 108.4C49.8688 108.641 49.8971 108.89 49.7914 109.14C49.7848 109.156 49.7762 109.172 49.7658 109.187C49.8854 109.19 50.0009 109.232 50.095 109.306C50.0926 109.298 50.0907 109.289 50.0892 109.281C50.0838 109.25 50.0836 109.218 50.0811 109.188C50.0626 108.942 50.0224 108.702 49.9341 108.469C49.7468 107.976 49.4266 107.585 49.0313 107.245C48.4486 106.743 47.7619 106.528 47.0079 106.499C46.7939 106.491 46.5791 106.489 46.3648 106.517C46.2168 106.537 46.2056 106.538 46.1737 106.684C46.0362 107.312 45.8981 107.94 45.7594 108.569C45.7234 108.732 45.6882 108.896 45.6478 109.083C45.7429 108.997 45.7929 108.905 45.8561 108.825Z" fill="#00B39F"/>
<path d="M54.4651 109.419C54.0738 108.81 53.687 108.198 53.2963 107.589C53.2445 107.508 53.2033 107.418 53.1163 107.328C53.1413 107.541 53.1594 107.726 53.1856 107.91C53.2401 108.293 53.2397 108.674 53.1382 109.051C52.979 109.644 52.7136 110.171 52.2145 110.554C51.9413 110.765 51.6252 110.86 51.2851 110.864C51.0468 110.868 50.8202 110.799 50.6094 110.686C50.4254 110.587 50.2689 110.459 50.1763 110.266C50.1471 110.205 50.1347 110.168 50.144 110.144C50.0543 110.233 49.9369 110.289 49.811 110.303C49.8439 110.324 49.8752 110.347 49.9047 110.373C50.0795 110.515 50.2541 110.657 50.4595 110.755C51.0322 111.027 51.6372 111.084 52.253 110.987C53.1819 110.842 53.8857 110.32 54.463 109.603C54.5155 109.537 54.509 109.487 54.4651 109.419Z" fill="#00D3A9"/>
<path d="M53.2338 111.174C52.6586 111.753 51.9681 112.076 51.1379 112.078C50.5585 112.08 49.945 111.699 49.7392 111.142C49.654 110.911 49.5974 110.676 49.6851 110.433C49.7084 110.368 49.7242 110.327 49.7419 110.307C49.616 110.305 49.4943 110.261 49.3966 110.182C49.4071 110.213 49.4135 110.245 49.4155 110.278C49.4339 110.457 49.4432 110.638 49.4967 110.81C49.7818 111.73 50.3949 112.359 51.2613 112.74C51.8149 112.984 52.4041 113.058 53.0095 112.995C53.28 112.967 53.2815 112.972 53.3354 112.735C53.484 112.081 53.6334 111.426 53.7774 110.771C53.8016 110.661 53.8455 110.552 53.8434 110.409C53.8095 110.455 53.7911 110.479 53.7735 110.504C53.6055 110.736 53.4361 110.971 53.2338 111.174Z" fill="#00B39F"/>
<path d="M48.1586 113.063C47.8945 112.767 47.7055 112.425 47.5742 112.053C47.4493 111.698 47.3758 111.333 47.4356 110.952C47.5221 110.399 47.8027 109.986 48.3192 109.755C48.569 109.643 48.8335 109.59 49.1059 109.695C49.1357 109.705 49.1642 109.718 49.1908 109.735C49.1931 109.615 49.2342 109.498 49.308 109.404C49.2859 109.408 49.2636 109.411 49.2412 109.412C49.0929 109.422 48.9454 109.44 48.7995 109.469C48.2953 109.576 47.877 109.839 47.5092 110.187C47.0187 110.65 46.7026 111.212 46.5702 111.876C46.4897 112.279 46.4784 112.684 46.509 113.093C46.5207 113.25 46.586 113.307 46.7442 113.339C47.405 113.473 48.0614 113.63 48.7203 113.773C48.8324 113.798 48.9427 113.84 49.0911 113.844C48.9831 113.761 48.8992 113.697 48.8152 113.633C48.5841 113.457 48.3527 113.281 48.1586 113.063Z" fill="#00B39F"/>
<path d="M52.0986 113.118C51.8636 113.16 51.6272 113.188 51.391 113.211C51.1972 113.23 51.0006 113.239 50.8104 113.211C50.5358 113.172 50.2672 113.099 50.0112 112.992C49.6129 112.826 49.2518 112.605 48.9837 112.258C48.6603 111.838 48.5513 111.37 48.7105 110.86C48.8008 110.571 48.9492 110.313 49.2418 110.173C49.2938 110.148 49.3296 110.136 49.355 110.14C49.2672 110.052 49.2113 109.938 49.196 109.814C49.1831 109.833 49.1692 109.851 49.1544 109.868C49.02 110.031 48.8822 110.191 48.7846 110.381C48.5492 110.839 48.4632 111.325 48.4759 111.838C48.4828 112.216 48.5609 112.589 48.7059 112.938C48.959 113.541 49.3617 114.033 49.8726 114.439C49.9523 114.503 50.0097 114.51 50.099 114.452C50.6135 114.119 51.1327 113.792 51.6501 113.463C51.8214 113.353 51.9918 113.244 52.165 113.132C52.1564 113.124 52.1456 113.118 52.1339 113.116C52.1221 113.113 52.1099 113.114 52.0986 113.118V113.118Z" fill="#00D3A9"/>
</g>
<defs>
<clipPath id="clip0_5562_24518">
<rect width="69" height="55.7896" fill="white" transform="translate(16 41)"/>
</clipPath>
<clipPath id="clip1_5562_24518">
<rect width="9.5" height="9.49292" fill="white" transform="translate(45 105)"/>
</clipPath>
</defs>
</svg>
