<svg width="101" height="117" viewBox="0 0 101 117" fill="none" xmlns="http://www.w3.org/2000/svg">
<path fill-rule="evenodd" clip-rule="evenodd" d="M0 12.8494C0 5.75287 5.75287 0 12.8494 0H87.9065C91.3144 0 94.5827 1.35376 96.9924 3.76349C99.4021 6.17322 100.756 9.44153 100.756 12.8494V104.127C100.756 111.223 95.003 116.976 87.9065 116.976H12.8494C5.75287 116.976 0 111.223 0 104.127V12.8494Z" fill="#EEEEEE"/>
<path d="M10.0903 28.3784H11.6216V33.2066C11.6216 33.8316 11.5643 34.3159 11.4497 34.6597C11.3039 35.1076 11.033 35.467 10.6372 35.7378C10.2518 35.9982 9.73617 36.1284 9.09033 36.1284C8.34033 36.1284 7.76221 35.9201 7.35596 35.5034C6.94971 35.0764 6.74658 34.4566 6.74658 33.6441L8.19971 33.4722C8.21012 33.9097 8.27262 34.2222 8.38721 34.4097C8.55387 34.6805 8.80908 34.8159 9.15283 34.8159C9.48617 34.8159 9.72575 34.717 9.87158 34.5191C10.0174 34.3212 10.0903 33.9149 10.0903 33.3003V28.3784ZM14.345 36.0034L12.5168 28.3784H14.095L15.2512 33.6128L16.6418 28.3784H18.47L19.8137 33.7066L20.9856 28.3784H22.5325L20.6731 36.0034H19.0481L17.5325 30.3003L16.0168 36.0034H14.345ZM25.0435 36.0034V29.6597H22.7778V28.3784H28.8403V29.6597H26.5747V36.0034H25.0435ZM34.5134 36.0034V29.6597H32.2477V28.3784H38.3102V29.6597H36.0446V36.0034H34.5134ZM40.106 36.0034H38.6372V30.4722H39.9966V31.2691C40.2258 30.8941 40.4341 30.6493 40.6216 30.5347C40.8091 30.4097 41.0174 30.3472 41.2466 30.3472C41.5799 30.3472 41.9028 30.4409 42.2153 30.6284L41.7622 31.9097C41.5122 31.743 41.283 31.6597 41.0747 31.6597C40.8664 31.6597 40.6893 31.717 40.5435 31.8316C40.408 31.9462 40.2987 32.1545 40.2153 32.4566C40.1424 32.7482 40.106 33.3628 40.106 34.3003V36.0034ZM43.9404 32.1597L42.6123 31.9253C42.7582 31.3941 43.0134 30.9982 43.3779 30.7378C43.7425 30.4774 44.2842 30.3472 45.0029 30.3472C45.6592 30.3472 46.1436 30.4253 46.4561 30.5816C46.779 30.7378 47.0029 30.9357 47.1279 31.1753C47.2634 31.4149 47.3311 31.8524 47.3311 32.4878L47.3154 34.1909C47.3154 34.6701 47.3363 35.0295 47.3779 35.2691C47.43 35.4982 47.5186 35.743 47.6436 36.0034H46.2061C46.1644 35.9097 46.1175 35.7639 46.0654 35.5659C46.0342 35.4826 46.0134 35.4253 46.0029 35.3941C45.7529 35.6441 45.4873 35.8316 45.2061 35.9566C44.9248 36.0712 44.6227 36.1284 44.2998 36.1284C43.7269 36.1284 43.2738 35.9774 42.9404 35.6753C42.6175 35.3628 42.4561 34.967 42.4561 34.4878C42.4561 34.1753 42.529 33.8993 42.6748 33.6597C42.8311 33.4201 43.0446 33.2378 43.3154 33.1128C43.5863 32.9774 43.9717 32.8576 44.4717 32.7534C45.1592 32.6284 45.6332 32.5087 45.8936 32.3941V32.2534C45.8936 31.9722 45.8207 31.7743 45.6748 31.6597C45.5394 31.5347 45.279 31.4722 44.8936 31.4722C44.6436 31.4722 44.4457 31.5243 44.2998 31.6284C44.154 31.7326 44.0342 31.9097 43.9404 32.1597ZM45.8936 33.3472C45.7061 33.4097 45.4092 33.4878 45.0029 33.5816C44.5967 33.6649 44.3311 33.7482 44.2061 33.8316C44.0186 33.967 43.9248 34.1389 43.9248 34.3472C43.9248 34.5451 43.9977 34.7222 44.1436 34.8784C44.2998 35.0243 44.4977 35.0972 44.7373 35.0972C44.9977 35.0972 45.2477 35.0087 45.4873 34.8316C45.6644 34.7066 45.779 34.5451 45.8311 34.3472C45.8727 34.2222 45.8936 33.9878 45.8936 33.6441V33.3472ZM53.8044 36.0034H52.3357V33.1909C52.3357 32.5868 52.3044 32.2014 52.2419 32.0347C52.1794 31.8576 52.0753 31.7222 51.9294 31.6284C51.794 31.5243 51.6274 31.4722 51.4294 31.4722C51.1794 31.4722 50.9503 31.5451 50.7419 31.6909C50.544 31.8264 50.4086 32.0087 50.3357 32.2378C50.2628 32.467 50.2263 32.8889 50.2263 33.5034V36.0034H48.7576V30.4722H50.1169V31.2847C50.5961 30.6597 51.2055 30.3472 51.9451 30.3472C52.268 30.3472 52.5597 30.4097 52.8201 30.5347C53.0909 30.6493 53.294 30.7951 53.4294 30.9722C53.5649 31.1493 53.6586 31.3524 53.7107 31.5816C53.7732 31.8107 53.8044 32.1389 53.8044 32.5659V36.0034ZM54.7668 34.4253L56.2356 34.2066C56.2981 34.4878 56.4231 34.7014 56.6106 34.8472C56.8085 34.993 57.0741 35.0659 57.4075 35.0659C57.7929 35.0659 58.0793 34.9982 58.2668 34.8628C58.3918 34.7691 58.4543 34.6389 58.4543 34.4722C58.4543 34.3576 58.4231 34.2639 58.3606 34.1909C58.2877 34.1284 58.121 34.0659 57.8606 34.0034C56.6835 33.743 55.9387 33.5087 55.6262 33.3003C55.1887 32.9982 54.97 32.5816 54.97 32.0503C54.97 31.5712 55.1575 31.1701 55.5325 30.8472C55.9179 30.5139 56.5064 30.3472 57.2981 30.3472C58.0481 30.3472 58.6054 30.4722 58.97 30.7222C59.345 30.9722 59.6002 31.3368 59.7356 31.8159L58.3606 32.0659C58.2981 31.8576 58.1835 31.6962 58.0168 31.5816C57.8606 31.467 57.6262 31.4097 57.3137 31.4097C56.9387 31.4097 56.6679 31.4618 56.5012 31.5659C56.3866 31.6389 56.3293 31.7378 56.3293 31.8628C56.3293 31.967 56.3762 32.0555 56.47 32.1284C56.6054 32.2222 57.0585 32.3576 57.8293 32.5347C58.6106 32.7118 59.1575 32.9305 59.47 33.1909C59.772 33.4514 59.9231 33.8107 59.9231 34.2691C59.9231 34.7795 59.7095 35.217 59.2825 35.5816C58.8658 35.9462 58.2408 36.1284 57.4075 36.1284C56.6575 36.1284 56.0637 35.9774 55.6262 35.6753C55.1887 35.3628 54.9023 34.9462 54.7668 34.4253ZM60.5683 30.4722H61.3808V30.0659C61.3808 29.5972 61.4277 29.2482 61.5215 29.0191C61.6256 28.7899 61.8079 28.6024 62.0683 28.4566C62.3392 28.3107 62.6777 28.2378 63.084 28.2378C63.5006 28.2378 63.9069 28.3003 64.3027 28.4253L64.0996 29.4566C63.8704 29.3941 63.6465 29.3628 63.4277 29.3628C63.2194 29.3628 63.0683 29.4149 62.9746 29.5191C62.8913 29.6128 62.8496 29.8003 62.8496 30.0816V30.4722H63.9277V31.6284H62.8496V36.0034H61.3808V31.6284H60.5683V30.4722ZM64.4138 33.1597C64.4138 32.6805 64.5336 32.2118 64.7732 31.7534C65.0128 31.2951 65.3513 30.9462 65.7888 30.7066C66.2367 30.467 66.7263 30.3472 67.2576 30.3472C68.1013 30.3472 68.7888 30.6232 69.3201 31.1753C69.8513 31.717 70.1169 32.3993 70.1169 33.2222C70.1169 34.0555 69.8461 34.7482 69.3044 35.3003C68.7732 35.8524 68.0961 36.1284 67.2732 36.1284C66.7732 36.1284 66.2888 36.0139 65.8201 35.7847C65.3617 35.5555 65.0128 35.2222 64.7732 34.7847C64.5336 34.3368 64.4138 33.7951 64.4138 33.1597ZM65.9138 33.2378C65.9138 33.7899 66.044 34.2118 66.3044 34.5034C66.5649 34.7951 66.8878 34.9409 67.2732 34.9409C67.6482 34.9409 67.9659 34.7951 68.2263 34.5034C68.4867 34.2118 68.6169 33.7899 68.6169 33.2378C68.6169 32.6962 68.4867 32.2795 68.2263 31.9878C67.9659 31.6962 67.6482 31.5503 67.2732 31.5503C66.8878 31.5503 66.5649 31.6962 66.3044 31.9878C66.044 32.2795 65.9138 32.6962 65.9138 33.2378ZM72.6731 36.0034H71.2043V30.4722H72.5637V31.2691C72.7929 30.8941 73.0012 30.6493 73.1887 30.5347C73.3762 30.4097 73.5845 30.3472 73.8137 30.3472C74.147 30.3472 74.47 30.4409 74.7825 30.6284L74.3293 31.9097C74.0793 31.743 73.8502 31.6597 73.6418 31.6597C73.4335 31.6597 73.2564 31.717 73.1106 31.8316C72.9752 31.9462 72.8658 32.1545 72.7825 32.4566C72.7095 32.7482 72.6731 33.3628 72.6731 34.3003V36.0034ZM75.3044 30.4722H76.6482V31.2378C77.1274 30.6441 77.7003 30.3472 78.3669 30.3472C78.7211 30.3472 79.0284 30.4201 79.2888 30.5659C79.5492 30.7118 79.7628 30.9357 79.9294 31.2378C80.1794 30.9357 80.4451 30.7118 80.7263 30.5659C81.0076 30.4201 81.3044 30.3472 81.6169 30.3472C82.0232 30.3472 82.3669 30.4305 82.6482 30.5972C82.9294 30.7639 83.1378 31.0087 83.2732 31.3316C83.3774 31.5607 83.4294 31.9409 83.4294 32.4722V36.0034H81.9763V32.8472C81.9763 32.2951 81.9242 31.9409 81.8201 31.7847C81.6847 31.5764 81.4763 31.4722 81.1951 31.4722C80.9867 31.4722 80.794 31.5347 80.6169 31.6597C80.4399 31.7847 80.3097 31.967 80.2263 32.2066C80.143 32.4462 80.1013 32.8264 80.1013 33.3472V36.0034H78.6482V32.9722C78.6482 32.4409 78.6222 32.0972 78.5701 31.9409C78.518 31.7847 78.4347 31.6701 78.3201 31.5972C78.2159 31.5139 78.0701 31.4722 77.8826 31.4722C77.6534 31.4722 77.4503 31.5347 77.2732 31.6597C77.0961 31.7743 76.9659 31.9462 76.8826 32.1753C76.8097 32.4045 76.7732 32.7847 76.7732 33.3159V36.0034H75.3044V30.4722ZM88.0921 34.2378L89.5452 34.4878C89.3577 35.0191 89.0608 35.4253 88.6546 35.7066C88.2483 35.9878 87.7431 36.1284 87.1389 36.1284C86.1806 36.1284 85.4723 35.8159 85.0139 35.1909C84.6493 34.6805 84.4671 34.0451 84.4671 33.2847C84.4671 32.368 84.7066 31.6493 85.1858 31.1284C85.665 30.6076 86.2691 30.3472 86.9983 30.3472C87.8212 30.3472 88.4671 30.6232 88.9358 31.1753C89.415 31.717 89.6441 32.5451 89.6233 33.6597H85.9671C85.9775 34.0972 86.0921 34.4357 86.3108 34.6753C86.54 34.9149 86.8212 35.0347 87.1546 35.0347C87.3837 35.0347 87.5764 34.9722 87.7327 34.8472C87.8889 34.7222 88.0087 34.5191 88.0921 34.2378ZM88.1702 32.7691C88.1598 32.342 88.0504 32.0191 87.8421 31.8003C87.6337 31.5816 87.3785 31.4722 87.0764 31.4722C86.7639 31.4722 86.5035 31.5868 86.2952 31.8159C86.0868 32.0555 85.9827 32.3732 85.9827 32.7691H88.1702ZM92.2217 36.0034H90.7529V30.4722H92.1123V31.2691C92.3415 30.8941 92.5498 30.6493 92.7373 30.5347C92.9248 30.4097 93.1331 30.3472 93.3623 30.3472C93.6956 30.3472 94.0186 30.4409 94.3311 30.6284L93.8779 31.9097C93.6279 31.743 93.3988 31.6597 93.1904 31.6597C92.9821 31.6597 92.805 31.717 92.6592 31.8316C92.5238 31.9462 92.4144 32.1545 92.3311 32.4566C92.2581 32.7482 92.2217 33.3628 92.2217 34.3003V36.0034Z" fill="black"/>
<path fill-rule="evenodd" clip-rule="evenodd" d="M58.1389 7.12073H89.6575C93.7865 7.12073 97.1338 9.14371 97.1338 11.6392C97.1338 14.1346 93.7865 16.1576 89.6575 16.1576H58.1389C54.0098 16.1576 50.6626 14.1346 50.6626 11.6392C50.6626 9.14371 54.0098 7.12073 58.1389 7.12073Z" fill="#B6D7A8"/>
<path d="M55.1484 13.7592V10.3998H53.8984V9.94666H56.9141V10.3998H55.6641V13.7592H55.1484ZM57.45 13.7592V9.94666H59.1375C59.4812 9.94666 59.7416 9.98311 59.9187 10.056C60.0958 10.1185 60.2364 10.2383 60.3406 10.4154C60.4447 10.5821 60.4968 10.7748 60.4968 10.9935C60.4968 11.2539 60.4083 11.4779 60.2312 11.6654C60.0541 11.8529 59.7833 11.9727 59.4187 12.0248C59.5541 12.0873 59.6583 12.1498 59.7312 12.2123C59.877 12.3477 60.0125 12.5196 60.1375 12.7279L60.8093 13.7592H60.1687L59.6687 12.9623C59.5229 12.7331 59.4031 12.5612 59.3093 12.4467C59.2156 12.3217 59.127 12.2383 59.0437 12.1967C58.9708 12.1446 58.8979 12.1081 58.825 12.0873C58.7625 12.0769 58.6687 12.0717 58.5437 12.0717H57.95V13.7592H57.45ZM57.95 11.6342H59.0437C59.2729 11.6342 59.45 11.6081 59.575 11.556C59.7104 11.5039 59.8093 11.4258 59.8718 11.3217C59.9447 11.2175 59.9812 11.1081 59.9812 10.9935C59.9812 10.806 59.9135 10.655 59.7781 10.5404C59.6531 10.4258 59.4447 10.3685 59.1531 10.3685H57.95V11.6342ZM60.8759 13.7592L62.329 9.94666H62.8759L64.4384 13.7592H63.8603L63.4228 12.6029H61.829L61.4071 13.7592H60.8759ZM61.9696 12.1967H63.2665L62.8603 11.1342C62.7457 10.8112 62.6571 10.5508 62.5946 10.3529C62.5426 10.5925 62.4748 10.8321 62.3915 11.0717L61.9696 12.1967ZM64.8672 13.7592V9.94666H67.4453V10.3998H65.3672V11.5717H67.1641V12.0248H65.3672V13.7592H64.8672ZM68.1218 13.7592V9.94666H70.7V10.3998H68.6218V11.5717H70.4187V12.0248H68.6218V13.7592H68.1218ZM71.439 13.7592V9.94666H71.939V13.7592H71.439ZM75.5443 12.4154L76.0599 12.556C75.9558 12.9623 75.7631 13.2748 75.4818 13.4935C75.211 13.7123 74.8776 13.8217 74.4818 13.8217C74.0651 13.8217 73.7266 13.7383 73.4662 13.5717C73.2162 13.405 73.0235 13.1654 72.8881 12.8529C72.7526 12.53 72.6849 12.1862 72.6849 11.8217C72.6849 11.4258 72.7579 11.0821 72.9037 10.7904C73.0599 10.4883 73.2787 10.2644 73.5599 10.1185C73.8412 9.96228 74.1485 9.88416 74.4818 9.88416C74.8672 9.88416 75.1901 9.98311 75.4506 10.181C75.711 10.3685 75.8933 10.6394 75.9974 10.9935L75.4974 11.1029C75.4037 10.8321 75.2735 10.6342 75.1068 10.5092C74.9401 10.3737 74.7318 10.306 74.4818 10.306C74.1797 10.306 73.9297 10.3789 73.7318 10.5248C73.5443 10.6602 73.4089 10.8477 73.3256 11.0873C73.2422 11.3269 73.2006 11.5717 73.2006 11.8217C73.2006 12.1446 73.2474 12.431 73.3412 12.681C73.4349 12.9206 73.5808 13.1029 73.7787 13.2279C73.987 13.3425 74.2058 13.3998 74.4349 13.3998C74.7162 13.3998 74.9558 13.3164 75.1537 13.1498C75.3516 12.9831 75.4818 12.7383 75.5443 12.4154ZM78.1381 13.7592V9.94666H78.9037L79.81 12.6498C79.8933 12.8998 79.9506 13.0873 79.9818 13.2123C80.0339 13.0769 80.1016 12.8737 80.185 12.6029L81.1068 9.94666H81.7787V13.7592H81.2943V10.5717L80.185 13.7592H79.7318L78.6225 10.5092V13.7592H78.1381ZM84.3889 12.2592V11.8217L85.9983 11.806V13.2279C85.7483 13.4258 85.4931 13.5769 85.2327 13.681C84.9723 13.7748 84.7014 13.8217 84.4202 13.8217C84.0452 13.8217 83.7014 13.7435 83.3889 13.5873C83.0869 13.4206 82.8577 13.1862 82.7014 12.8842C82.5452 12.5821 82.4671 12.2435 82.4671 11.8685C82.4671 11.4935 82.5452 11.1498 82.7014 10.8373C82.8577 10.5144 83.0817 10.2748 83.3733 10.1185C83.665 9.96228 83.9983 9.88416 84.3733 9.88416C84.6546 9.88416 84.9046 9.93103 85.1233 10.0248C85.3525 10.1081 85.5296 10.2331 85.6546 10.3998C85.7796 10.556 85.8733 10.7592 85.9358 11.0092L85.4827 11.1342C85.4306 10.9467 85.3577 10.7956 85.2639 10.681C85.1806 10.5664 85.0608 10.4779 84.9046 10.4154C84.7483 10.3425 84.5764 10.306 84.3889 10.306C84.1494 10.306 83.9462 10.3425 83.7796 10.4154C83.6129 10.4883 83.4775 10.5821 83.3733 10.6967C83.2692 10.8112 83.191 10.9362 83.1389 11.0717C83.0348 11.3112 82.9827 11.5664 82.9827 11.8373C82.9827 12.181 83.04 12.4675 83.1546 12.6967C83.2796 12.9258 83.4514 13.0977 83.6702 13.2123C83.8994 13.3164 84.1389 13.3685 84.3889 13.3685C84.6077 13.3685 84.8212 13.3269 85.0296 13.2435C85.2379 13.1602 85.3942 13.0717 85.4983 12.9779V12.2592H84.3889ZM86.7208 13.7592V9.94666H87.4865L88.3927 12.6498C88.476 12.8998 88.5333 13.0873 88.5646 13.2123C88.6167 13.0769 88.6844 12.8737 88.7677 12.6029L89.6896 9.94666H90.3615V13.7592H89.8771V10.5717L88.7677 13.7592H88.3146L87.2052 10.5092V13.7592H86.7208ZM92.1436 13.7592V10.3998H90.8936V9.94666H93.9092V10.3998H92.6592V13.7592H92.1436Z" fill="#38761D"/>
<path d="M57.6851 111.919L56.4194 108.56H56.3882C56.3986 108.622 56.4038 108.706 56.4038 108.81C56.4142 108.914 56.4194 109.029 56.4194 109.154C56.4299 109.268 56.4351 109.388 56.4351 109.513V111.919H56.0132V108.122H56.6694L57.8726 111.279H57.9038L59.1226 108.122H59.7632V111.919H59.3257V109.482C59.3257 109.367 59.3257 109.258 59.3257 109.154C59.3361 109.039 59.3413 108.93 59.3413 108.826C59.3517 108.721 59.3621 108.633 59.3726 108.56H59.3413L58.0601 111.919H57.6851ZM62.9304 111.919H60.8054V108.122H62.9304V108.513H61.2585V109.732H62.8366V110.122H61.2585V111.529H62.9304V111.919ZM65.9223 110.904C65.9223 111.133 65.865 111.326 65.7504 111.482C65.6358 111.638 65.4796 111.758 65.2816 111.841C65.0837 111.924 64.8441 111.966 64.5629 111.966C64.4275 111.966 64.2921 111.961 64.1566 111.951C64.0316 111.94 63.9119 111.924 63.7973 111.904C63.6931 111.872 63.5994 111.836 63.516 111.794V111.372C63.6514 111.424 63.8129 111.477 64.0004 111.529C64.1879 111.57 64.3858 111.591 64.5941 111.591C64.7816 111.591 64.9379 111.565 65.0629 111.513C65.1983 111.461 65.2973 111.388 65.3598 111.294C65.4327 111.201 65.4691 111.086 65.4691 110.951C65.4691 110.815 65.4379 110.706 65.3754 110.622C65.3233 110.529 65.2296 110.445 65.0941 110.372C64.9691 110.299 64.7921 110.227 64.5629 110.154C64.3962 110.091 64.2504 110.029 64.1254 109.966C64.0108 109.893 63.9119 109.815 63.8285 109.732C63.7452 109.638 63.6827 109.534 63.641 109.419C63.5994 109.305 63.5785 109.174 63.5785 109.029C63.5785 108.831 63.6254 108.659 63.7191 108.513C63.8233 108.367 63.9691 108.258 64.1566 108.185C64.3441 108.102 64.5525 108.06 64.7816 108.06C64.99 108.06 65.1775 108.081 65.3441 108.122C65.5212 108.154 65.6827 108.206 65.8285 108.279L65.6879 108.654C65.5525 108.591 65.4066 108.544 65.2504 108.513C65.0941 108.471 64.9379 108.451 64.7816 108.451C64.615 108.451 64.4744 108.477 64.3598 108.529C64.2556 108.57 64.1723 108.638 64.1098 108.732C64.0473 108.815 64.016 108.914 64.016 109.029C64.016 109.164 64.0421 109.279 64.0941 109.372C64.1566 109.456 64.2504 109.534 64.3754 109.607C64.5004 109.669 64.6671 109.737 64.8754 109.81C65.0941 109.893 65.2816 109.982 65.4379 110.076C65.5941 110.169 65.7139 110.284 65.7973 110.419C65.8806 110.544 65.9223 110.706 65.9223 110.904ZM69.5783 111.919H69.1252V110.122H67.1408V111.919H66.6877V108.122H67.1408V109.732H69.1252V108.122H69.5783V111.919ZM72.7411 111.919H70.6161V108.122H72.7411V108.513H71.0692V109.732H72.6474V110.122H71.0692V111.529H72.7411V111.919ZM74.608 108.122C74.9205 108.122 75.1757 108.159 75.3736 108.232C75.582 108.305 75.733 108.424 75.8268 108.591C75.9309 108.747 75.983 108.945 75.983 109.185C75.983 109.383 75.9465 109.549 75.8736 109.685C75.8007 109.82 75.707 109.93 75.5924 110.013C75.4778 110.096 75.3528 110.164 75.2174 110.216L76.2643 111.919H75.7486L74.8111 110.326H74.0299V111.919H73.5768V108.122H74.608ZM74.5768 108.497H74.0299V109.951H74.6236C74.9361 109.951 75.1653 109.888 75.3111 109.763C75.457 109.638 75.5299 109.456 75.5299 109.216C75.5299 108.956 75.4518 108.773 75.2955 108.669C75.1393 108.555 74.8997 108.497 74.5768 108.497ZM77.834 110.029L78.8496 108.122H79.334L78.0683 110.451V111.919H77.6152V110.466L76.3496 108.122H76.834L77.834 110.029ZM82.1097 110.013C82.1097 110.326 82.0837 110.602 82.0316 110.841C81.9899 111.081 81.917 111.289 81.8128 111.466C81.7087 111.633 81.5784 111.758 81.4222 111.841C81.2659 111.924 81.0732 111.966 80.8441 111.966C80.5628 111.966 80.3284 111.893 80.1409 111.747C79.9639 111.591 79.8284 111.367 79.7347 111.076C79.6409 110.784 79.5941 110.43 79.5941 110.013C79.5941 109.607 79.6357 109.258 79.7191 108.966C79.8024 108.674 79.9326 108.451 80.1097 108.294C80.2972 108.138 80.542 108.06 80.8441 108.06C81.1357 108.06 81.3701 108.138 81.5472 108.294C81.7347 108.451 81.8753 108.674 81.9691 108.966C82.0628 109.258 82.1097 109.607 82.1097 110.013ZM80.0316 110.013C80.0316 110.367 80.0576 110.664 80.1097 110.904C80.1618 111.133 80.2451 111.31 80.3597 111.435C80.4847 111.549 80.6462 111.607 80.8441 111.607C81.042 111.607 81.1982 111.549 81.3128 111.435C81.4378 111.31 81.5264 111.133 81.5784 110.904C81.6409 110.664 81.6722 110.367 81.6722 110.013C81.6722 109.659 81.6409 109.367 81.5784 109.138C81.5264 108.898 81.4378 108.721 81.3128 108.607C81.1982 108.492 81.042 108.435 80.8441 108.435C80.6462 108.435 80.4847 108.492 80.3597 108.607C80.2451 108.721 80.1618 108.898 80.1097 109.138C80.0576 109.367 80.0316 109.659 80.0316 110.013ZM84.9843 108.997C84.9843 109.174 84.9531 109.326 84.8906 109.451C84.8281 109.576 84.7343 109.68 84.6093 109.763C84.4947 109.836 84.3593 109.888 84.2031 109.919V109.935C84.5052 109.977 84.7291 110.076 84.875 110.232C85.0312 110.388 85.1093 110.591 85.1093 110.841C85.1093 111.06 85.0572 111.258 84.9531 111.435C84.8489 111.602 84.6875 111.732 84.4687 111.826C84.2604 111.919 83.9895 111.966 83.6562 111.966C83.4583 111.966 83.2708 111.951 83.0937 111.919C82.927 111.888 82.7656 111.836 82.6093 111.763V111.357C82.7656 111.44 82.9375 111.503 83.125 111.544C83.3125 111.586 83.4947 111.607 83.6718 111.607C84.0156 111.607 84.2656 111.539 84.4218 111.404C84.5781 111.268 84.6562 111.081 84.6562 110.841C84.6562 110.674 84.6093 110.539 84.5156 110.435C84.4322 110.331 84.3072 110.258 84.1406 110.216C83.9843 110.164 83.7968 110.138 83.5781 110.138H83.1875V109.763H83.5781C83.7864 109.763 83.9583 109.737 84.0937 109.685C84.2395 109.622 84.3489 109.539 84.4218 109.435C84.5052 109.32 84.5468 109.185 84.5468 109.029C84.5468 108.841 84.4791 108.695 84.3437 108.591C84.2187 108.487 84.0468 108.435 83.8281 108.435C83.6927 108.435 83.5677 108.451 83.4531 108.482C83.3489 108.503 83.2447 108.539 83.1406 108.591C83.0468 108.633 82.9531 108.685 82.8593 108.747L82.6406 108.451C82.776 108.346 82.9427 108.258 83.1406 108.185C83.3385 108.102 83.5677 108.06 83.8281 108.06C84.2135 108.06 84.5 108.148 84.6875 108.326C84.8854 108.503 84.9843 108.727 84.9843 108.997ZM88.359 111.044H87.7965V111.919H87.3746V111.044H85.5308V110.669L87.3433 108.091H87.7965V110.654H88.359V111.044ZM87.3746 110.654V109.404C87.3746 109.31 87.3746 109.227 87.3746 109.154C87.3746 109.07 87.3746 108.997 87.3746 108.935C87.385 108.862 87.3902 108.799 87.3902 108.747C87.4006 108.685 87.4058 108.622 87.4058 108.56H87.3746C87.3433 108.633 87.3069 108.706 87.2652 108.779C87.2235 108.852 87.1819 108.919 87.1402 108.982L85.9683 110.654H87.3746Z" fill="#999999"/>
<rect x="6" y="41" width="88" height="61" fill="#EEEEEE"/>
<path d="M15.523 88.9982H14.2341L13.0154 84.7185C12.9629 84.5313 12.8974 84.2617 12.8188 83.9098C12.7402 83.5578 12.6924 83.3135 12.6756 83.1768C12.6419 83.3865 12.5885 83.658 12.5155 83.9912C12.4425 84.3245 12.3807 84.5734 12.3302 84.7382L11.1423 88.9982H9.87023L8.94354 85.4037L8 81.8205H9.19908L10.2241 85.999C10.3679 86.5855 10.4823 87.1787 10.5667 87.7766C10.6022 87.4977 10.6565 87.1869 10.7295 86.8443C10.8025 86.5017 10.8681 86.2209 10.9261 86.0019L12.0943 81.8093H13.2569L14.4559 86.0215C14.6096 86.5964 14.7305 87.1796 14.8182 87.7682C14.8944 87.1709 15.0126 86.5797 15.172 85.999L16.1942 81.8261H17.382L15.523 88.9982Z" fill="#393939"/>
<path d="M23.3606 88.9982H19.3029V81.8205H23.3606V82.8118H20.4739V84.7775H23.1781V85.7604H20.4739V88.0069H23.3606V88.9982Z" fill="#393939"/>
<path d="M25.8177 81.8205H27.9491C28.9376 81.8205 29.6518 81.9647 30.0918 82.253C30.312 82.4023 30.489 82.6072 30.6049 82.8468C30.7207 83.0864 30.7714 83.3523 30.7517 83.6177C30.7656 83.9925 30.6517 84.3608 30.4287 84.6624C30.1963 84.9499 29.8628 85.1378 29.4964 85.1875V85.2352C29.9248 85.286 30.322 85.4846 30.6197 85.7969C30.8686 86.1168 30.995 86.5152 30.9763 86.9201C30.99 87.2075 30.9362 87.4941 30.8191 87.757C30.7021 88.0198 30.5251 88.2516 30.3024 88.4337C29.7584 88.8281 29.0944 89.0216 28.4237 88.9813H25.8177V81.8205ZM26.9916 84.7859H28.1148C28.4883 84.8141 28.862 84.7332 29.1903 84.5528C29.311 84.4598 29.4058 84.3373 29.4658 84.1973C29.5257 84.0572 29.5489 83.9041 29.5329 83.7525C29.5438 83.6092 29.5156 83.4656 29.4513 83.337C29.387 83.2084 29.2891 83.0997 29.1679 83.0224C28.8076 82.8472 28.4077 82.7697 28.0081 82.7978H26.9916V84.7859ZM26.9916 85.7379V88.0097H28.2384C28.6333 88.0396 29.0273 87.9411 29.3616 87.7289C29.4886 87.6208 29.5878 87.4837 29.6509 87.3293C29.7139 87.1749 29.7389 87.0076 29.7239 86.8415C29.7376 86.6801 29.7097 86.5179 29.6429 86.3704C29.576 86.2229 29.4724 86.0951 29.342 85.999C28.9915 85.7907 28.5864 85.6928 28.1794 85.7182L26.9916 85.7379Z" fill="#393939"/>
<path d="M38.5134 88.9982L37.6204 86.7151H34.742L33.8575 88.9982H33.015L35.8512 81.7868H36.5533L39.3755 88.9925L38.5134 88.9982ZM37.3592 85.9654L36.5168 83.7413C36.4082 83.4605 36.2968 83.1151 36.1826 82.7051C36.1029 83.0598 36.0026 83.4095 35.8821 83.7525L35.0397 85.9766L37.3592 85.9654Z" fill="#393939"/>
<path d="M45.9213 87.0886C45.9341 87.372 45.8782 87.6544 45.7584 87.9115C45.6386 88.1687 45.4585 88.3931 45.2333 88.5657C44.6883 88.9455 44.032 89.1323 43.3687 89.0964C42.6974 89.1296 42.0269 89.0175 41.403 88.7679V87.9648C41.7141 88.0895 42.0367 88.1836 42.3661 88.2456C42.7051 88.3163 43.0505 88.3521 43.3967 88.3523C43.8392 88.3833 44.28 88.2721 44.6548 88.035C44.7919 87.9338 44.9021 87.8005 44.9755 87.6467C45.049 87.4929 45.0835 87.3234 45.076 87.1532C45.0858 86.9391 45.0342 86.7267 44.9272 86.541C44.7984 86.3561 44.6269 86.2049 44.4273 86.1001C44.0848 85.9192 43.7279 85.7671 43.3602 85.6452C42.8207 85.4868 42.3287 85.1974 41.9281 84.8028C41.6308 84.4441 41.4777 83.9876 41.4984 83.5223C41.4896 83.2685 41.5415 83.0163 41.65 82.7867C41.7584 82.5571 41.9202 82.3568 42.1218 82.2024C42.5993 81.8558 43.1808 81.6824 43.7702 81.711C44.4457 81.704 45.1151 81.8379 45.7359 82.1041L45.4748 82.8314C44.9299 82.5927 44.3426 82.4657 43.7478 82.458C43.381 82.4361 43.0171 82.5347 42.7116 82.7388C42.59 82.8302 42.4925 82.9498 42.4274 83.0872C42.3623 83.2247 42.3317 83.3759 42.3381 83.5279C42.3293 83.7405 42.3768 83.9516 42.4757 84.1401C42.5911 84.3225 42.7504 84.4731 42.939 84.5781C43.2575 84.7565 43.5922 84.9041 43.9387 85.019C44.5153 85.1857 45.0463 85.4815 45.4916 85.8839C45.7863 86.2142 45.9405 86.6464 45.9213 87.0886V87.0886Z" fill="#393939"/>
<path d="M52.9473 87.0886C52.9601 87.372 52.9042 87.6544 52.7844 87.9115C52.6646 88.1687 52.4845 88.3931 52.2593 88.5657C51.7143 88.9455 51.058 89.1323 50.3947 89.0964C49.7234 89.1296 49.0529 89.0175 48.429 88.7679V87.9648C48.7401 88.0895 49.0627 88.1836 49.3922 88.2456C49.7311 88.3163 50.0765 88.3521 50.4227 88.3523C50.8652 88.3833 51.306 88.2721 51.6808 88.035C51.8179 87.9338 51.9281 87.8005 52.0015 87.6467C52.075 87.4929 52.1095 87.3234 52.102 87.1532C52.1118 86.9391 52.0602 86.7267 51.9532 86.541C51.8244 86.3561 51.6529 86.2049 51.4533 86.1001C51.1108 85.9192 50.7539 85.7671 50.3862 85.6452C49.8467 85.4868 49.3547 85.1974 48.9541 84.8028C48.6568 84.4441 48.5037 83.9876 48.5244 83.5223C48.5156 83.2685 48.5675 83.0163 48.676 82.7867C48.7844 82.5571 48.9462 82.3568 49.1478 82.2024C49.6254 81.8558 50.2068 81.6824 50.7962 81.711C51.4717 81.704 52.1411 81.8379 52.7619 82.1041L52.5008 82.8314C51.9559 82.5927 51.3686 82.4657 50.7738 82.458C50.407 82.4361 50.0431 82.5347 49.7376 82.7388C49.616 82.8302 49.5185 82.9498 49.4534 83.0872C49.3883 83.2247 49.3577 83.3759 49.3641 83.5279C49.3553 83.7405 49.4028 83.9516 49.5017 84.1401C49.6171 84.3225 49.7764 84.4731 49.965 84.5781C50.2835 84.7565 50.6183 84.9041 50.9647 85.019C51.5413 85.1857 52.0723 85.4815 52.5176 85.8839C52.8123 86.2142 52.9665 86.6464 52.9473 87.0886V87.0886Z" fill="#393939"/>
<path d="M59.9228 88.9982H55.924V81.8205H59.9256V82.5619H56.758V84.8758H59.7318V85.6115H56.758V88.2456H59.9256L59.9228 88.9982Z" fill="#393939"/>
<path d="M66.199 88.9982L63.7643 82.6293H63.725C63.7699 83.1329 63.7933 83.7319 63.7952 84.4265V88.9925H63.0258V81.8205H64.2838L66.5556 87.7401H66.5949L68.8779 81.8205H70.1248V88.9982H69.2823V84.3731C69.2823 83.8433 69.3057 83.2676 69.3525 82.6461H69.3132L66.8589 88.9982H66.199Z" fill="#393939"/>
<path d="M73.6069 81.8205H75.6344C76.5873 81.8205 77.2763 81.9628 77.7012 82.2474C77.9156 82.3978 78.0871 82.6014 78.1989 82.8382C78.3107 83.0751 78.3589 83.337 78.3387 83.5981C78.3533 83.981 78.2263 84.3559 77.982 84.6511C77.7093 84.9462 77.3415 85.1361 76.943 85.1875V85.2352C78.0326 85.4224 78.5774 85.9953 78.5774 86.9538C78.5917 87.2375 78.5404 87.5206 78.4274 87.7812C78.3144 88.0418 78.1428 88.2728 77.9259 88.4562C77.4018 88.8447 76.7573 89.0356 76.1062 88.9953H73.6013L73.6069 81.8205ZM74.4494 84.8926H75.8226C76.265 84.9267 76.7077 84.829 77.0947 84.6118C77.2314 84.5 77.3384 84.3562 77.406 84.193C77.4736 84.0298 77.4998 83.8524 77.4822 83.6767C77.4956 83.5061 77.4624 83.335 77.3863 83.1817C77.3101 83.0284 77.1938 82.8986 77.0497 82.8062C76.6239 82.5928 76.1491 82.4959 75.6737 82.5254H74.4466L74.4494 84.8926ZM74.4494 85.6003V88.2849H75.9461C76.4073 88.3175 76.8666 88.1992 77.2547 87.9479C77.4066 87.8202 77.5257 87.6579 77.6019 87.4747C77.6781 87.2914 77.7093 87.0926 77.6928 86.8948C77.7066 86.7065 77.6726 86.5176 77.5941 86.3458C77.5156 86.174 77.395 86.0248 77.2435 85.912C76.8291 85.6733 76.3529 85.5638 75.8759 85.5975L74.4494 85.6003Z" fill="#393939"/>
<path d="M81.6298 88.9982V81.8205H82.4722V88.2456H85.6398V89.001L81.6298 88.9982Z" fill="#393939"/>
<path d="M90.1806 85.4093L92.0958 81.8205H93L90.6046 86.2125V88.9953H89.7622V86.2518L87.3724 81.8177H88.2851L90.1806 85.4093Z" fill="#393939"/>
<path d="M53.9274 45C53.9274 45.0534 53.9274 45.1067 53.9274 45.1629C53.9274 46.0819 53.5623 46.9633 52.9124 47.6132C52.2626 48.263 51.3812 48.6281 50.4621 48.6281C49.5431 48.6281 48.6617 48.263 48.0118 47.6132C47.3619 46.9633 46.9969 46.0819 46.9969 45.1629C46.9969 45.1067 46.9969 45.0534 46.9969 45H35.3599V75.2214H65.5812V45H53.9274ZM49.7825 71.9864L48.3111 64.7048H48.2858L46.6936 71.9864H44.6661L42.369 61.2873H44.3712L45.7416 68.5688H45.7669L47.4181 61.2873H49.2911L50.7738 68.6587H50.7991L52.3632 61.2873H54.3289L51.7763 71.9864H49.7825ZM60.8074 71.9864L60.125 69.605H56.5221L55.997 71.9864H53.9948L56.5839 61.2873H59.7431L62.891 71.9864H60.8074Z" fill="#654FF0"/>
<path d="M57.7886 63.9241L56.9153 67.8499H59.6336L58.6311 63.9241H57.7886Z" fill="#654FF0"/>
<g clip-path="url(#clip0_5562_24521)">
<path d="M49.3328 106C49.3328 106.015 49.3328 106.031 49.3328 106.047C49.3328 106.597 48.8872 107.042 48.3376 107.042C47.7879 107.042 47.3424 106.596 47.3424 106.047C47.3424 106.031 47.3424 106.015 47.3424 106H44V114.68H52.68V106H49.3328Z" fill="#654FF0"/>
<path d="M46.0162 110.678H46.5915L46.9842 112.769H46.9913L47.4633 110.678H48.0014L48.4278 112.795H48.4361L48.8838 110.678H49.448L48.7148 113.751H48.144L47.7212 111.659H47.7101L47.2575 113.751H46.676L46.0162 110.678ZM50.0965 110.678H51.0034L51.904 113.751H51.3106L51.1147 113.067H50.0817L49.9305 113.751H49.3525L50.0965 110.678ZM50.4418 111.435L50.1909 112.563H50.9718L50.6837 111.435H50.4418Z" fill="white"/>
</g>
<defs>
<clipPath id="clip0_5562_24521">
<rect width="8.68" height="8.68" fill="white" transform="translate(44 106)"/>
</clipPath>
</defs>
</svg>
