<svg id="Layer_1" data-name="Layer 1" xmlns="http://www.w3.org/2000/svg" viewBox="0 0 141.73 141.73"><title>5-dark-bg</title><rect width="141.73" height="141.73" style="fill:#3c494f"/><rect id="_Path_" data-name="&lt;Path&gt;" x="79.63" y="23.97" width="36.93" height="17.79" style="fill:#00b39f"/><path id="_Path_2" data-name="&lt;Path&gt;" d="M119.92,83.9V76.53c0-8.49-7.14-15.37-15.94-15.37H44.38V56.31H22.56v21H98.1V83.9Z" style="fill:#00b39f"/><polygon id="_Path_3" data-name="&lt;Path&gt;" points="44.38 50.5 44.38 41.76 73.6 41.76 73.6 23.97 22.56 23.97 22.56 50.5 44.38 50.5" style="fill:#00d3a9"/><path id="_Path_4" data-name="&lt;Path&gt;" d="M98.1,89.62V100H68.88v17.79h36a14.77,14.77,0,0,0,15-14.49V89.62Z" style="fill:#00d3a9"/><path id="_Path_5" data-name="&lt;Path&gt;" d="M42.63,90.58V100H62.85v17.79h-26a14.77,14.77,0,0,1-15-14.49V90.58Z" style="fill:#00b39f"/></svg>