<svg id="Layer_1" data-name="Layer 1" xmlns="http://www.w3.org/2000/svg" viewBox="0 0 129.83 124.1"><title>5-dark-no-trim</title><rect y="0.01" width="129.83" height="124.08" style="fill:#3c494f"/><rect id="_Path_" data-name="&lt;Path&gt;" x="76.33" y="1.01" width="48.08" height="23.15" style="fill:#00b39f"/><path id="_Path_2" data-name="&lt;Path&gt;" d="M128.77,79v-9.6c0-11.05-9.29-20-20.76-20H30.44V43.1H2V70.47h98.34V79Z" style="fill:#00b39f"/><polygon id="_Path_3" data-name="&lt;Path&gt;" points="30.44 35.54 30.44 24.16 68.47 24.16 68.47 1.01 2.03 1.01 2.03 35.54 30.44 35.54" style="fill:#00d3a9"/><path id="_Path_4" data-name="&lt;Path&gt;" d="M100.37,86.46V99.94h-38v23.15H109.2c10.81,0,19.57-8.44,19.57-18.86V86.46Z" style="fill:#00d3a9"/><path id="_Path_5" data-name="&lt;Path&gt;" d="M28.16,87.71V99.94H54.48v23.15H20.63c-10.81,0-19.58-8.44-19.58-18.86V87.71Z" style="fill:#00b39f"/></svg>