<?xml version="1.0" encoding="utf-8"?>
<!-- Generator: Adobe Illustrator 26.3.1, SVG Export Plug-In . SVG Version: 6.00 Build 0)  -->
<svg version="1.1" id="Layer_1" xmlns="http://www.w3.org/2000/svg" xmlns:xlink="http://www.w3.org/1999/xlink" x="0px" y="0px"
	 viewBox="0 0 105 105" style="enable-background:new 0 0 105 105;" xml:space="preserve">
<style type="text/css">
	.st0{fill:#FFFFFF;}
	.st1{fill-rule:evenodd;clip-rule:evenodd;fill:#FFFFFF;}
</style>
<g>
	<path class="st0" d="M52.4,6.6c12,0,23.4,4.7,31.9,13.2c8.5,8.5,13.2,19.8,13.2,31.9c0,6.3-1.3,12.6-3.9,18.3
		c-0.7,1.5-2.5,2.1-3.9,1.3c-1.3-0.7-1.9-2.3-1.3-3.7c2.2-5,3.4-10.5,3.4-16c0-3.7-0.5-7.3-1.5-10.7c-0.4-1.6-2.1-2.4-3.6-1.9
		l-0.1,0c-1.4,0.5-2.1,2-1.7,3.4c0.5,1.9,0.9,3.9,1.1,6c0.2,1.7-1.2,3.1-2.8,3.1c-1.5,0-2.7-1.1-2.8-2.6c-0.6-6.2-3.1-11.8-7-16.1
		c-1.1-1.2-3-1.2-4.1,0c-0.8,0.9-0.9,2.2-0.4,3.2c0.2,0.2,0.3,0.5,0.5,0.7l0,0l0,0c1,1.4,2.1,3,3,4.6c0.5,1.1,0.3,2.8-1.3,3.5
		c-1.3,0.6-3,0.1-3.7-1.2c-0.4-0.8-0.9-1.6-1.5-2.3c-0.3-0.4-0.5-0.8-0.8-1.2c0.8-0.8,1.6-1.7,2.1-2.7c1.7-3.1,2-6.9,0.8-9.7
		c-0.9-2.1-2.4-3.5-4.4-4.1c-0.4-0.1-0.9-0.2-1.4-0.2c-1.1,0-2.5,0.3-3.8,1.9c-0.3-0.9-0.8-1.7-1.3-2.3c-1.3-1.5-3.1-2.4-5.1-2.4
		c-0.2,0-0.4,0-0.6,0c-1.3,0.1-2.5,0.8-3.4,2c-0.5,0.7-0.9,1.6-1.2,2.8c-0.5,1.8-0.8,3.9-1.1,6.1l0,0.3c-0.2,1.6-0.4,3.2-0.7,4.6
		c-0.4,1.8-0.8,2.3-0.8,2.3c-2.8,3.3-3.5,6.8-3.2,10.9c-1.9,0.4-4.6,1.5-5.8,3.7c-1,1.8-1.4,3.7-1.2,5.4c-1.1-0.1-2.3-0.2-3.5-0.2
		c-4.1,0-7.6,1.1-10.6,3.4c-5.1,3.9-4.8,8-4.1,10.1c1.6,5.3,8.3,8.6,16.1,10.8l1.7,3c2.1,3.6,4.5,6.7,7.3,9.3
		c-7.6-2-14.6-6-20.3-11.7C12.1,75.1,7.4,63.8,7.3,51.9c0-12.2,4.7-23.6,13.3-32.1C29.1,11.3,40.5,6.6,52.4,6.6z"/>
	<path class="st0" d="M36.7,74.5c-0.2,0-0.4-0.1-0.6-0.1c-13.7-2.8-9.6-7.5-2.9-7.2c0.5,0,1.1,0.1,1.6,0.2l3.3-3.2
		c0,0-4-1.5-7.8-1.5c-2.6,0-5.5,0.6-8.1,2.6c-7.7,6.3,0.7,13.6,24.3,16.5c-0.6-1-1-2.1-1.2-3.3c-0.6,0.2-1.1,0.2-1.4,0.3
		c-0.3,0-0.7,0.1-1,0.1c-2.5,0-4.5-1.3-5.8-3.4C37,75,36.8,74.8,36.7,74.5z"/>
	<path class="st0" d="M62.6,87.9c5.2-1.7,4.8-4-5.6-5.2c0.5-0.7,0.8-1.5,1.1-2.4l0-0.2c0.1-0.6,0.2-1.3,0.2-1.8c0.5,0,1.1,0,1.6-0.1
		c0.7-0.2,1.4-0.5,2-0.9c2.8,0.3,5.8,0.7,8.8,1.1c24.5,3.4,10,21.3-8.4,21.3c-8.8,0-18.6-4.1-25.4-15.9L48,84.9
		c0,0,6.3,3.4,11.6,3.4C60.6,88.3,61.6,88.2,62.6,87.9z"/>
	<path class="st1" d="M55.8,32.7c1-5.3-0.6-9.1-3.9-9.1c-0.1,0-0.3,0-0.4,0c-2,0.2-2.5,4.2-3,8.4c-0.5,3.5-0.9,7.1-2.3,8.7
		c-3.4,4-3.6,9.5-1.4,12.3c1.5,1.9,5.7,4.4,9.5,4.4c3.6,0,7-1.2,8.2-4.4c2-7.3-6.4-11-6.4-11s5.3-0.3,8.4-5.9c2.2-4,1.2-8.7-1.8-9.6
		c-0.2-0.1-0.4-0.1-0.6-0.1c-1.8,0-2.6,2.6-3.4,5.1c-0.3,1.1-0.7,2.1-1.1,2.9c-2.7,5.6-5.2,5.9-5.7,5.9h-0.1
		C51.9,40.4,54.9,38.2,55.8,32.7z M53.6,47c0,1-0.9,1.9-1.9,1.9h0c-1.1,0-1.9-0.9-1.9-2c0-1,0.9-1.9,1.9-1.9h0
		C52.7,45,53.6,45.9,53.6,47z"/>
	<path class="st0" d="M43.2,54.8c-0.5-0.6-1.2-1.5-1.7-2.4c-1.1,0-3.1,1-4,2.6c-2,3.4-0.2,6.4,1.8,6.4c0.2,0,0.4,0,0.7-0.1
		c1.6-0.5,1.4-1.6,1.2-2.6c-0.2-0.7-0.3-1.4,0.3-1.8c0.2-0.1,0.4-0.2,0.5-0.2c0.2,0,0.4,0.1,0.6,0.1c0.2,0.1,0.3,0.1,0.5,0.1
		c0.4,0,0.7-0.3,1-0.7C44.2,56,43.8,55.5,43.2,54.8z"/>
	<path class="st0" d="M46.1,57.4c0.4,0,1,0.3,1.6,0.6c0.8,0.4,1.7,0.9,2.9,1.2c1.4,0.3,2.9,0.4,3.7,0.4c1,0,1.8-0.1,2.7-0.3
		c0.6-0.1,1.2-0.2,2.1-0.3c0.3,0,0.6-0.1,0.9-0.1c2.7,0,4.2,1.4,6.3,4.8c2.4,3.9,3,7.7,0.6,8.2c-0.3,0.1-0.6,0.1-0.8,0.1
		c-2,0-2.5-1.8-3.4-5c-0.8-2.6-2-3.7-2.7-3.7c-0.2,0-0.3,0.1-0.4,0.2c-0.3,0.5,0,1,0.5,1.9c0.5,0.8,1.2,1.8,1.6,3.4
		c0.8,2.9,0.2,6-2.4,6.6c-0.3,0.1-0.7,0.1-0.9,0.1c-0.9,0-1.5-0.4-1.9-0.7c-0.3-0.2-0.5-0.4-0.8-0.4c-0.4,0-0.4,0.8-0.3,1.8
		c0.2,2.2,0.5,5.6-3.3,5.8c-3.3,0-4.9-4.3-3.2-8.4c1-2.6,3.2-3.2,4.7-3.6c1-0.3,1.7-0.5,1.8-1c0.3-1.3-0.8-1.6-2.8-2.1
		c-0.6-0.1-1.2-0.3-1.8-0.5c-4.4-1.3-6.8-5.8-5.8-7.6C45.2,58.1,45.6,57.4,46.1,57.4z"/>
	<path class="st0" d="M46.1,66.6c-0.3-0.3-0.9-0.4-1.6-0.4c-1.6,0-3.9,1.4-4.8,2.9c-1.3,2.9-0.4,6.6,3.2,6.6c0.2,0,0.4,0,0.6,0
		c2.4-0.3,2.4-1.4,2.3-2.5c0-0.7,0-1.4,0.5-2c0.3-0.3,0.8-0.5,1.3-0.6c0.7-0.2,1.5-0.4,1.8-1.2c0.2-0.7-0.4-1-1.3-1.4
		C47.5,67.6,46.7,67.2,46.1,66.6z"/>
</g>
</svg>