<svg width="68" height="48" viewBox="0 0 68 48" fill="none" xmlns="http://www.w3.org/2000/svg">
<g clip-path="url(#clip0_1998_27)">
<path d="M64.9903 24H9.00971C7.34749 24 6 25.7909 6 28V44C6 46.2091 7.34749 48 9.00971 48H64.9903C66.6525 48 68 46.2091 68 44V28C68 25.7909 66.6525 24 64.9903 24Z" fill="#6750A3"/>
<path d="M1.11026 0C0.816179 0 0.533769 0.113739 0.325188 0.315638C0.117255 0.518175 0 0.792251 0 1.07849V19.4148C0 19.7011 0.117255 19.9758 0.325188 20.1777C0.533769 20.3802 0.816179 20.4939 1.11026 20.4939C1.28192 20.4933 1.45166 20.4543 1.60518 20.3796C1.7587 20.3054 1.89214 20.1969 1.99513 20.064L5.46328 16.3077L5.8299 15.7615C7.20835 15.3072 5.8299 15.7742 6.80155 15.4593C7.60348 15.1053 6.48997 15.5558 7.7732 15.1309L8.26096 15.143L14.4387 15.1008C14.7302 15.1008 15.0152 14.9871 15.2225 14.7846C15.4298 14.5827 15.5464 14.3079 15.5464 14.0217C15.5464 13.8613 15.5075 13.7022 15.4363 13.5572C15.365 13.4122 15.2614 13.2844 15.1318 13.1834L1.98023 0.408917C1.87658 0.281133 1.7438 0.178262 1.59352 0.107981C1.44259 0.0370613 1.27804 0 1.11026 0Z" fill="#6750A3"/>
<g>
<path fill="#fff" d="M30.5,40.2h-1.5c-.2,0-.3,0-.4-.2l-2.6-3.2h-1.2v3c0,.2-.1.3-.3.3h-1.2c-.2,0-.3-.1-.3-.3v-9.1c0-.2.1-.3.3-.3h3.3c1.8,0,3.2,1.4,3.2,3.2s-.7,2.3-1.8,2.8l2.7,3.3c.2.2,0,.4-.2.4ZM24.9,35.2h1.8c.7,0,1.3-.6,1.3-1.4s-.6-1.4-1.3-1.4h-1.8v2.9Z"/>
<path fill="#fff" d="M35.6,33.3h1.2c.2,0,.4.1.3.4l-3.1,9.1c0,.2-.2.3-.4.3h-1.2c-.2,0-.4-.1-.3-.4l.8-2.5-2.5-6.5c0-.2,0-.4.3-.4h1.2c.2,0,.3,0,.4.3l1.5,4.1,1.3-4.1c0-.2.2-.3.4-.3Z"/>
<path fill="#fff" d="M43.3,35.8v4.1c0,.2-.1.3-.3.3h-1.1c-.2,0-.3-.1-.3-.3v-.3c-.4.5-1,.8-1.9.8s-2.3-.7-2.3-2.2,1.1-2.2,2.3-2.2,1.5.3,1.9.6v-.7c0-.8-.4-1.2-1.1-1.2s-.9.2-1,.6c0,.2-.1.3-.3.3h-1.1c-.2,0-.3-.1-.3-.3.2-1.4,1.4-2.2,2.8-2.2s2.8.9,2.8,2.7ZM41.5,38.2c0-.5-.5-.9-1.3-.9s-1.2.4-1.2.9.4.9,1.2.9,1.3-.4,1.3-.9Z"/>
<path fill="#fff" d="M50.7,35.8v4.1c0,.2-.1.3-.3.3h-1.1c-.2,0-.3-.1-.3-.3v-4c0-.8-.5-1.2-1.1-1.2s-1.3.4-1.3,1.4v3.7c0,.2-.1.3-.3.3h-1.1c-.2,0-.3-.1-.3-.3v-6.3c0-.2.1-.3.3-.3h1.1c.2,0,.3.1.3.3v.4c.4-.6,1-.9,1.9-.9,1.3,0,2.3,1,2.3,2.7Z"/>
</g>
</g>
<defs>
<clipPath id="clip0_1998_27">
<rect width="68" height="48" fill="white"/>
</clipPath>
</defs>
</svg>
