<svg xmlns="http://www.w3.org/2000/svg" width="48.871" height="52.361" viewBox="0 0 48.871 52.361"><g id="Group_1258" data-name="Group 1258" transform="translate(-794 -2244.925)"><g id="education" transform="translate(794 2244.925)"><path id="Path_567" fill="#52de97" d="M27.491,15.981a.873.873,0,0,1-.617-.256l-2.618-2.618a.873.873,0,0,1,0-1.234l2.618-2.618a.873.873,0,1,1,1.234,1.234l-2,2,2,2a.873.873,0,0,1-.617,1.49Z" data-name="Path 567" transform="translate(-8.29 -2.89)"/><path id="Path_568" fill="#52de97" d="M35.873,15.981a.873.873,0,0,1-.617-1.49l2-2-2-2A.873.873,0,1,1,36.49,9.256l2.618,2.618a.873.873,0,0,1,0,1.234L36.49,15.726A.873.873,0,0,1,35.873,15.981Z" data-name="Path 568" transform="translate(-9.691 -2.89)"/><path id="Path_569" fill="#52de97" d="M30.873,16.727a.852.852,0,0,1-.213-.026.873.873,0,0,1-.634-1.059L31.77,8.661a.873.873,0,1,1,1.693.424l-1.745,6.981a.873.873,0,0,1-.846.661Z" data-name="Path 569" transform="translate(-9.054 -2.763)"/><path id="Path_570" fill="#52de97" d="M30.6,23.153a.867.867,0,0,1-.617-.256l-2.088-2.089a9.6,9.6,0,1,1,5.411,0L31.215,22.9a.867.867,0,0,1-.615.256Zm0-19.408a7.854,7.854,0,0,0-2.028,15.44.873.873,0,0,1,.394.227L30.6,21.047l1.635-1.635a.873.873,0,0,1,.394-.227A7.854,7.854,0,0,0,30.6,3.745Z" data-name="Path 570" transform="translate(-7.908 -1.999)"/><path id="Path_571" fill="#52de97" d="M54.723,52.823l-2.85-4.276a2.6,2.6,0,0,0-.494-4.678V37.6a.873.873,0,0,0-.548-.811L29.014,28.062a.888.888,0,0,0-.649,0L6.548,36.789a.873.873,0,0,0,0,1.621l8.179,3.271V55.053a2.618,2.618,0,0,0,2.618,2.618H40.034a2.618,2.618,0,0,0,2.618-2.618V41.681l6.981-2.793v4.98a2.6,2.6,0,0,0-.494,4.68l-2.85,4.276a.873.873,0,0,0,.726,1.355H54a.873.873,0,0,0,.726-1.357Zm-13.816,2.23a.873.873,0,0,1-.873.873H17.344a.873.873,0,0,1-.873-.873V42.379l11.893,4.758a.881.881,0,0,0,.649,0l11.893-4.758Zm.533-14.766-12.751,5.1-12.751-5.1L9.222,37.6l19.468-7.787L48.157,37.6Zm9.066,5.167a.873.873,0,1,1-.873.873A.873.873,0,0,1,50.506,45.454Zm-1.86,6.981,1.86-2.793,1.86,2.793Z" data-name="Path 571" transform="translate(-5.998 -5.31)"/><path id="Path_572" fill="#52de97" d="M20,56.873a.873.873,0,0,0,.873.873h19.2a.873.873,0,0,0,0-1.745h-19.2A.873.873,0,0,0,20,56.873Z" data-name="Path 572" transform="translate(-7.781 -8.875)"/><path id="Path_573" fill="#52de97" d="M54,19h1.745v1.745H54Z" data-name="Path 573" transform="translate(-12.11 -4.164)"/><path id="Path_574" fill="#52de97" d="M56,17h1.745v1.745H56Z" data-name="Path 574" transform="translate(-12.365 -3.909)"/><path id="Path_575" fill="#52de97" d="M52,17h1.745v1.745H52Z" data-name="Path 575" transform="translate(-11.855 -3.909)"/><path id="Path_576" fill="#52de97" d="M54,15h1.745v1.745H54Z" data-name="Path 576" transform="translate(-12.11 -3.654)"/><path id="Path_577" fill="#52de97" d="M45,27h1.745v1.745H45Z" data-name="Path 577" transform="translate(-10.964 -5.182)"/><path id="Path_578" fill="#52de97" d="M47,25h1.745v1.745H47Z" data-name="Path 578" transform="translate(-11.219 -4.928)"/><path id="Path_579" fill="#52de97" d="M43,25h1.745v1.745H43Z" data-name="Path 579" transform="translate(-10.709 -4.928)"/><path id="Path_580" fill="#52de97" d="M45,23h1.745v1.745H45Z" data-name="Path 580" transform="translate(-10.964 -4.673)"/><path id="Path_581" fill="#52de97" d="M8,19H9.745v1.745H8Z" data-name="Path 581" transform="translate(-6.253 -4.164)"/><path id="Path_582" fill="#52de97" d="M6,17H7.745v1.745H6Z" data-name="Path 582" transform="translate(-5.998 -3.909)"/><path id="Path_583" fill="#52de97" d="M10,17h1.745v1.745H10Z" data-name="Path 583" transform="translate(-6.508 -3.909)"/><path id="Path_584" fill="#52de97" d="M8,15H9.745v1.745H8Z" data-name="Path 584" transform="translate(-6.253 -3.654)"/><path id="Path_585" fill="#52de97" d="M17,27h1.745v1.745H17Z" data-name="Path 585" transform="translate(-7.399 -5.182)"/><path id="Path_586" fill="#52de97" d="M15,25h1.745v1.745H15Z" data-name="Path 586" transform="translate(-7.144 -4.928)"/><path id="Path_587" fill="#52de97" d="M19,25h1.745v1.745H19Z" data-name="Path 587" transform="translate(-7.654 -4.928)"/><path id="Path_588" fill="#52de97" d="M17,23h1.745v1.745H17Z" data-name="Path 588" transform="translate(-7.399 -4.673)"/></g></g></svg>