<svg xmlns="http://www.w3.org/2000/svg" id="Layer_1" data-name="Layer 1" viewBox="0 0 661.62 177.63"><title>layer5-white</title><rect width="661.62" height="177.63" style="fill:none"/><polygon points="65.84 41.92 47.09 41.92 47.09 135.71 135.99 135.71 135.99 116.95 65.84 116.95 65.84 41.92" style="fill:#fff"/><polygon points="182.92 41.92 145.41 135.71 166.8 135.71 192.3 70.06 210.47 116.95 179.3 116.95 172.3 135.71 239.19 135.71 201.68 41.92 182.92 41.92" style="fill:#fff"/><polygon points="265.67 74.75 242.22 41.92 218.78 41.92 256.29 98.19 256.29 135.71 275.05 135.71 275.05 98.19 312.56 41.92 289.41 41.92 265.67 74.75" style="fill:#fff"/><polygon points="320.64 56.69 320.64 60.68 320.64 79.44 320.64 102.31 320.64 135.71 409.55 135.71 409.55 116.95 339.4 116.95 339.4 102.31 339.4 98.19 393.29 98.19 393.29 79.44 339.4 79.44 339.4 60.68 409.55 60.68 409.55 41.92 320.64 41.92 320.64 56.69" style="fill:#fff"/><path d="M440,59.81h48.1v19.5H445.2l.18,17.89h12.87l34,38.51h23.15l-34-38.51h13.28a14.57,14.57,0,0,0,14.56-14.57V56.49a14.56,14.56,0,0,0-14.56-14.57h-73v93.79h18.75Z" style="fill:#fff"/><rect id="_Path_" width="36.93" height="17.79" x="583.7" y="41.92" data-name="&lt;Path&gt;" style="fill:#fff"/><path id="_Path_2" d="M624,101.85V94.47c0-8.48-7.14-15.36-16-15.36H548.45V74.26H526.62v21h75.54v6.57Z" data-name="&lt;Path&gt;" style="fill:#fff"/><polygon id="_Path_3" points="548.45 68.45 548.45 59.71 577.66 59.71 577.66 41.92 526.62 41.92 526.62 68.45 548.45 68.45" data-name="&lt;Path&gt;" style="fill:#fff;opacity:.6000000000000001"/><path id="_Path_4" d="M602.16,107.56v10.36H573v17.79h36c8.3,0,15-6.49,15-14.49V107.56Z" data-name="&lt;Path&gt;" style="fill:#fff;opacity:.6000000000000001"/><path id="_Path_5" d="M546.7,108.53v9.39h20.21v17.79h-26c-8.3,0-15-6.49-15-14.49V108.53Z" data-name="&lt;Path&gt;" style="fill:#fff"/></svg>