<svg id="Layer_1" data-name="Layer 1" xmlns="http://www.w3.org/2000/svg" viewBox="0 0 576.9 93.78"><title>layer5-white-no-trim</title><rect x="-47.08" y="-41.92" width="661.62" height="177.63" style="fill:none"/><polygon points="18.76 0 0 0 0 93.78 88.91 93.78 88.91 75.03 18.76 75.03 18.76 0" style="fill:#fff"/><polygon points="135.84 0 98.33 93.78 119.72 93.78 145.22 28.14 163.39 75.03 132.22 75.03 125.22 93.78 192.11 93.78 154.59 0 135.84 0" style="fill:#fff"/><polygon points="218.58 32.83 195.14 0 171.69 0 209.2 56.27 209.2 93.78 227.96 93.78 227.96 56.27 265.47 0 242.32 0 218.58 32.83" style="fill:#fff"/><polygon points="273.56 14.77 273.56 18.76 273.56 37.51 273.56 60.39 273.56 93.78 362.46 93.78 362.46 75.03 292.32 75.03 292.32 60.39 292.32 56.27 346.21 56.27 346.21 37.51 292.32 37.51 292.32 18.76 362.46 18.76 362.46 0 273.56 0 273.56 14.77" style="fill:#fff"/><path d="M392.92,17.88H441V37.39H398.12l.18,17.88h12.87l34,38.51h23.16l-34-38.51h13.27a14.56,14.56,0,0,0,14.57-14.56V14.57A14.57,14.57,0,0,0,447.59,0h-73V93.78h18.76Z" style="fill:#fff"/><rect id="_Path_" data-name="&lt;Path&gt;" x="536.61" width="36.93" height="17.79" style="fill:#fff"/><path id="_Path_2" data-name="&lt;Path&gt;" d="M576.9,59.93V52.55c0-8.48-7.14-15.36-15.94-15.36h-59.6V32.34H479.54v21h75.54v6.57Z" style="fill:#fff"/><polygon id="_Path_3" data-name="&lt;Path&gt;" points="501.36 26.52 501.36 17.79 530.58 17.79 530.58 0 479.54 0 479.54 26.52 501.36 26.52" style="fill:#fff;opacity:0.6000000000000001"/><path id="_Path_4" data-name="&lt;Path&gt;" d="M555.08,65.64V76H525.86V93.78h36c8.31,0,15-6.48,15-14.48V65.64Z" style="fill:#fff;opacity:0.6000000000000001"/><path id="_Path_5" data-name="&lt;Path&gt;" d="M499.61,66.61V76h20.22V93.78h-26c-8.31,0-15-6.48-15-14.48V66.61Z" style="fill:#fff"/></svg>