<?xml version="1.0" encoding="utf-8"?>
<!-- Generator: Adobe Illustrator 22.0.1, SVG Export Plug-In . SVG Version: 6.00 Build 0)  -->
<svg version="1.1" id="Layer_1" xmlns:v="http://vecta.io"
	 xmlns="http://www.w3.org/2000/svg" xmlns:xlink="http://www.w3.org/1999/xlink" x="0px" y="0px" viewBox="0 0 297.3 216.2"
	 style="enable-background:new 0 0 297.3 216.2;" xml:space="preserve">
<style type="text/css">
	.st0{fill:#FFFFFF;}
	.st1{opacity:0.8;}
</style>
<g>
	<g id="j4rmrkxifl" transform="translate(0 0)">
		<g id="j4rmrkptef" transform="translate(33.4399 0)">
			<path class="st0" d="M102.7,54.9L56.9,72.5V0l45.8,15.8V54.9z"/>
		</g>
		<g id="j4rmrkqfeg" transform="translate(18.260199999999998 0.2164)">
			<path class="st0" d="M31.1,12.1v47.3L65,72.2V0.4L31.1,12.1z M34.7,55.9l-1.8-0.6V16.1l1.8-0.6l1.8-0.6l1.8-0.6v42.7l-1.8-0.6
				L34.7,55.9z M43.6,58.2l-2.4-0.6V13.8l2.4-0.6l2.4-0.6l2.4-0.6V60L46,59.4L43.6,58.2z M54.3,61.7l-3-1.2V10.9l3-0.6l3-1.2L60.8,8
				v55.5l-3.6-1.2L54.3,61.7z"/>
		</g>
		<g id="j4rmrkr6eh" transform="translate(72.8202 0)">
			<path class="st0" d="M169.8,54.9L124,72.5V0l45.8,15.8V54.9z"/>
		</g>
		<g id="j4rmrkrnei" transform="translate(57.6399 0.2164)">
			<path class="st0" d="M98.1,12.1v47.3L132,72.2V0.4L98.1,12.1z M101.7,55.9l-1.8-0.6V16.1l1.8-0.6l1.8-0.6l1.8-0.6v42.7l-1.8-0.6
				L101.7,55.9z M110.6,58.2l-2.4-0.6V13.8l2.4-0.6l2.4-0.6l2.4-0.6V60l-2.4-0.6L110.6,58.2z M121.3,61.7l-3-1.2V10.9l3-0.6l3-1.2
				l3.6-1.2v55.5l-3.6-1.2L121.3,61.7z"/>
		</g>
		<g id="j4rmrkrvej" transform="translate(33.4399 53.1894)">
			<path class="st0" d="M102.7,145.5L56.9,163V90.6l45.8,15.8V145.5z"/>
		</g>
		<g id="j4rmrks6ek" transform="translate(18.2602 53.4053)">
			<path class="st0" d="M31.1,102.6V150L65,162.8V90.9L31.1,102.6z M34.7,146.4l-1.8-0.6v-39.2l1.8-0.6l1.8-0.6l1.8-0.6v42.7
				l-1.8-0.6L34.7,146.4z M43.6,148.8l-2.4-0.6v-43.8l2.4-0.6l2.4-0.6l2.4-0.6v47.9L46,150L43.6,148.8z M54.3,152.3l-3-1.2v-49.7
				l3-0.6l3-1.2l3.6-1.2V154l-3.6-1.2L54.3,152.3z"/>
		</g>
		<g id="j4rmrkseel" transform="translate(72.8202 53.1894)">
			<path class="st0" d="M169.8,145.5L124,163V90.6l45.8,15.8V145.5z"/>
		</g>
		<g id="j4rmrkspem" transform="translate(57.6399 53.4053)">
			<path class="st0" d="M98.1,102.6V150l33.9,12.9V90.9L98.1,102.6z M101.7,146.4l-1.8-0.6v-39.2l1.8-0.6l1.8-0.6l1.8-0.6v42.7
				l-1.8-0.6L101.7,146.4z M110.6,148.8l-2.4-0.6v-43.8l2.4-0.6l2.4-0.6l2.4-0.6v47.9L113,150L110.6,148.8z M121.3,152.3l-3-1.2
				v-49.7l3-0.6l3-1.2l3.6-1.2V154l-3.6-1.2L121.3,152.3z"/>
		</g>
		<g id="j4rmrkt5en" transform="translate(54.5601 26.5947)">
			<path class="st0" d="M138.1,100.2l-45.2,16.9V45.3l45.2,15.8V100.2z"/>
		</g>
		<g id="j4rmrktheo" transform="translate(39.1601 26.5947)">
			<path class="st0" d="M66.7,57v47.3l33.9,12.9V45.3L66.7,57z M70.2,100.8l-1.8-0.6V61.1l1.8-0.6l1.8-0.6l1.8-0.6V102l-1.8-0.6
				L70.2,100.8z M79.2,103.7l-2.4-0.6V59.3l2.4-0.6l2.4-0.6l2.4-0.6v47.9l-2.4-0.6L79.2,103.7z M89.9,107.2l-3-1.2V56.4l3-0.6l3-1.2
				l3.6-1.2V109l-3.6-1.2L89.9,107.2z"/>
		</g>
		<g id="j4rmrktrep" transform="translate(15.4 26.5947)">
			<path class="st0" d="M71.4,100.2l-45.2,16.9V45.3l45.2,15.8V100.2z"/>
		</g>
		<g id="j4rmrku6eq" transform="translate(0 26.5947)">
			<path class="st0" d="M0,57v47.3l33.9,12.9V45.3L0,57z M3.6,100.8l-1.8-0.6V61.1l1.8-0.6l1.8-0.6l1.8-0.6V102l-1.8-0.6L3.6,100.8z
				 M12.5,103.7l-2.4-0.6V59.3l2.4-0.6l2.4-0.6l2.4-0.6v47.9l-2.4-0.6L12.5,103.7z M23.2,107.2l-3-1.2V56.4l3-0.6l3-1.2l3.6-1.2V109
				l-3.6-1.2L23.2,107.2z"/>
		</g>
		<g id="j4rmrkuder" transform="translate(93.2798 26.5947)">
			<path class="st0" d="M204,100.2l-45.2,16.9V45.3L204,61.1V100.2z"/>
		</g>
		<g id="j4rmrkukes" transform="translate(33.4399 0)" class="st1">
			<path class="st0" d="M102.7,54.9L56.9,72.5V0l45.8,15.8V54.9z"/>
		</g>
		<g id="j4rmrkutet" transform="translate(72.8202 0)" class="st1">
			<path class="st0" d="M169.8,54.9L124,72.5V0l45.8,15.8V54.9z"/>
		</g>
		<g id="j4rmrkv0eu" transform="translate(33.4399 53.1894)" class="st1">
			<path class="st0" d="M102.7,145.5L56.9,163V90.6l45.8,15.8V145.5z"/>
		</g>
		<g id="j4rmrkv6ev" transform="translate(72.8202 53.1894)" class="st1">
			<path class="st0" d="M169.8,145.5L124,163V90.6l45.8,15.8V145.5z"/>
		</g>
		<g id="j4rmrkvfew" transform="translate(54.5601 26.5947)" class="st1">
			<path class="st0" d="M138.1,100.2l-45.2,16.9V45.3l45.2,15.8V100.2z"/>
		</g>
		<g id="j4rmrkvmex" transform="translate(15.4 26.5947)" class="st1">
			<path class="st0" d="M71.4,100.2l-45.2,16.9V45.3l45.2,15.8V100.2z"/>
		</g>
		<g id="j4rmrkvsey" transform="translate(93.2798 26.5947)" class="st1">
			<path class="st0" d="M204,100.2l-45.2,16.9V45.3L204,61.1V100.2z"/>
		</g>
		<g id="j4rmrkw4ez" transform="translate(77.8798 26.5947)">
			<path class="st0" d="M132.6,57v47.3l33.9,12.9V45.3L132.6,57z M136.2,100.8l-1.8-0.6V61.1l1.8-0.6l1.8-0.6l1.8-0.6V102l-1.8-0.6
				L136.2,100.8z M145.1,103.7l-2.4-0.6V59.3l2.4-0.6l2.4-0.6l2.4-0.6v47.9l-2.4-0.6L145.1,103.7z M155.8,107.2l-3-1.2V56.4l3-0.6
				l3-1.2l3.6-1.2V109l-3.6-1.2L155.8,107.2z"/>
		</g>
	</g>
</g>
</svg>
