<svg xmlns="http://www.w3.org/2000/svg" width="54" height="71" fill="none" viewBox="0 0 54 71"><path fill="#fff" d="M51.9935 54.9794C51.0568 57.4442 49.948 59.7131 48.6633 61.799C46.9122 64.6427 45.4785 66.611 44.3735 67.7041C42.6606 69.4983 40.8254 70.4171 38.8602 70.4694C37.4494 70.4694 35.7479 70.0121 33.7674 69.0846C31.7804 68.1613 29.9544 67.7041 28.2847 67.7041C26.5336 67.7041 24.6555 68.1613 22.6467 69.0846C20.6349 70.0121 19.0141 70.4955 17.775 70.5434C15.8904 70.6349 14.012 69.6899 12.137 67.7041C10.9403 66.5152 9.44344 64.4772 7.65027 61.59C5.72635 58.5068 4.14461 54.9315 2.90545 50.8555C1.57835 46.4528 0.913086 42.1895 0.913086 38.062C0.913086 33.334 1.81005 29.2562 3.60666 25.8391C5.01864 23.0942 6.89707 20.929 9.24806 19.3396C11.5991 17.7501 14.1393 16.9401 16.875 16.8883C18.3718 16.8883 20.3347 17.4156 22.7741 18.4521C25.2065 19.492 26.7683 20.0193 27.4531 20.0193C27.9651 20.0193 29.7001 19.4027 32.6414 18.1733C35.423 17.0333 37.7705 16.5612 39.6937 16.7472C44.905 17.2262 48.8201 19.566 51.4238 23.7814C46.7631 26.9979 44.4576 31.5029 44.5035 37.2821C44.5456 41.7836 45.9793 45.5296 48.7972 48.5039C50.0742 49.8844 51.5003 50.9513 53.087 51.709C52.7429 52.8456 52.3797 53.9343 51.9935 54.9794ZM40.0416 1.41139C40.0416 4.93967 38.9099 8.23401 36.6541 11.2832C33.9318 14.9081 30.6391 17.0028 27.0685 16.6723C27.023 16.249 26.9966 15.8035 26.9966 15.3353C26.9966 11.9482 28.2912 8.32328 30.5902 5.35943C31.738 3.85877 33.1978 2.611 34.968 1.61563C36.7344 0.635107 38.4052 0.0928578 39.9766 0C40.0225 0.471676 40.0416 0.943381 40.0416 1.41135V1.41139Z"/></svg>