<svg xmlns="http://www.w3.org/2000/svg" xmlns:xlink="http://www.w3.org/1999/xlink" id="Layer_1" x="0" y="0" version="1.1" viewBox="0 0 640 448.1" xml:space="preserve" style="enable-background:new 0 0 640 448.1"><style type="text/css">.st0{fill:#fff}</style><path d="M349.9,204.3h-66.1v-59.4h66.1V204.3L349.9,204.3z M349.9,0h-66.1v60.7h66.1V0z M428.1,144.8H362v59.4h66.1	L428.1,144.8L428.1,144.8z M271.8,72.7h-66.1v60.1h66.1V72.7z M349.9,72.7h-66.1v60.1h66.1V72.7z M626.7,172.7	c-14.4-9.7-47.6-13.2-73.1-8.4c-3.3-24-16.7-44.9-41.1-63.7l-14-9.3l-9.3,14c-18.4,27.8-23.4,73.6-3.7,103.8	c-8.7,4.7-25.8,11.1-48.4,10.7H2.4c-8.7,50.8,5.8,116.8,44,162.1c37.1,43.9,92.7,66.2,165.4,66.2c157.4,0,273.9-72.5,328.4-204.2	c21.4,0.4,67.6,0.1,91.3-45.2c1.5-2.5,6.6-13.2,8.5-17.1L626.7,172.7L626.7,172.7z M115.6,144.8h-66v59.4h66.1L115.6,144.8	L115.6,144.8z M193.7,144.8h-66.1v59.4h66.1V144.8z M271.8,144.8h-66.1v59.4h66.1V144.8z M193.7,72.7h-66.1v60.1h66.1V72.7z" class="st0"/></svg>