<svg width="76" height="76" viewBox="0 0 76 76" fill="none" xmlns="http://www.w3.org/2000/svg">
<path d="M73.712 18.4787L40.0488 1.41281C38.8615 0.811068 37.3985 0.811068 36.2112 1.41281L2.54805 18.4787C1.36082 19.0804 0.630005 20.1928 0.630005 21.3962V55.5268C0.630005 56.7302 1.36082 57.8426 2.54805 58.4443L36.2112 75.5102C37.3985 76.1119 38.8615 76.1119 40.0488 75.5102L73.712 58.4443C74.8992 57.8426 75.63 56.7302 75.63 55.5268V21.3962C75.63 20.1928 74.8992 19.0804 73.712 18.4787ZM69.0939 52.2609L57.3496 46.3072V30.6233L40.0061 39.4122V57.0024L55.4742 49.1611L67.2185 55.1148L38.1293 69.8611L9.04011 55.1148L20.7844 49.1611L36.2539 57.0024V39.4122L18.9104 30.6233V46.3072L7.16615 52.2609V22.7683L36.2553 8.02193V19.9293L20.7858 27.7707L38.1293 36.5595L55.4728 27.7707L40.0047 19.9293V8.02193L69.0939 22.7683V52.2609Z" fill="white"/>
</svg>
