<svg width="128" height="128" viewBox="0 0 128 128" fill="none" xmlns="http://www.w3.org/2000/svg">
<path d="M27.791 115.22L1.54099 69.75C-0.513012 66.192 -0.513012 61.809 1.54099 58.251L27.791 12.781C29.845 9.22301 33.641 7.03101 37.75 7.03101H90.25C94.358 7.03101 98.154 9.22301 100.209 12.781L126.459 58.251C128.513 61.809 128.513 66.192 126.459 69.75L100.209 115.22C98.155 118.778 94.359 120.969 90.25 120.969H37.75C33.642 120.969 29.845 118.777 27.791 115.22Z" fill="#BBBBBB"/>
<path d="M89.03 47.993L65.354 34.323C64.519 33.841 63.49 33.841 62.655 34.323L38.979 47.993C38.144 48.475 37.63 49.366 37.63 50.33V77.669C37.63 78.633 38.144 79.524 38.979 80.006L62.655 93.676C63.49 94.158 64.519 94.158 65.354 93.676L89.03 80.006C89.865 79.524 90.379 78.633 90.379 77.669V50.33C90.379 49.366 89.865 48.475 89.03 47.993ZM85.782 75.053L77.522 70.284V57.721L65.324 64.761V78.851L76.203 72.57L84.463 77.339L64.004 89.151L43.545 77.339L51.805 72.57L62.685 78.851V64.761L50.487 57.721V70.284L42.227 75.053V51.429L62.686 39.617V49.155L51.806 55.436L64.004 62.476L76.202 55.436L65.323 49.155V39.617L85.782 51.429V75.053Z" fill="white"/>
</svg>
