<svg xmlns="http://www.w3.org/2000/svg" width="96" height="105" fill="none" viewBox="0 0 96 105"><path fill="#0F1689" fill-rule="evenodd" d="M2 41.3451H7.92181V49.3629H15.0761V41.3451H20.9979V63.8671H15.0761V55.2787H7.92181V63.8671H2V41.3451ZM27.7914 63.8671V41.3451H41.7994V46.2399H33.7132V49.9034H40.8675V54.8883H33.7132V59.0323H41.7994V63.8671H27.7914ZM48.2923 63.8671V41.3451H54.2141V57.9213H62.3303V63.8671H48.2923ZM71.4986 41.3451L80.6969 49.6932L89.8652 41.3451H92.5405V63.8671H86.5887V52.3058L80.6969 57.681L74.7751 52.3358V63.8671H68.8232V41.3451H71.4986Z" clip-rule="evenodd"/><path fill="#0F1689" fill-rule="evenodd" d="M69.0213 78.0458C70.7218 76.8551 74.6427 79.5206 77.7788 83.9993C80.9148 88.4781 82.0785 93.0741 80.378 94.2649C78.6774 95.4556 74.7565 92.7901 71.6205 88.3114C68.4844 83.8326 67.3207 79.2366 69.0213 78.0458Z" clip-rule="evenodd"/><path fill="#0F1689" fill-rule="evenodd" d="M28.5048 78.0458C26.8043 76.8551 22.8834 79.5205 19.7473 83.9993C16.6113 88.4781 15.4476 93.0741 17.1482 94.2649C18.8487 95.4556 22.7696 92.7901 25.9056 88.3114C29.0417 83.8326 30.2054 79.2366 28.5048 78.0458Z" clip-rule="evenodd"/><path fill="#0F1689" fill-rule="evenodd" d="M48.7425 85.0584C46.6665 85.0584 44.9836 89.4907 44.9836 94.9583C44.9836 100.426 46.6665 104.858 48.7425 104.858C50.8185 104.858 52.5015 100.426 52.5015 94.9583C52.5015 89.4907 50.8185 85.0584 48.7425 85.0584Z" clip-rule="evenodd"/><path stroke="#0F1689" stroke-width="20" d="M19.3981 31.3079C25.6355 22.2594 36.0257 16.3352 47.7894 16.3352C59.5745 16.3352 69.9811 22.281 76.2147 31.3573M77.3466 69.1497C71.2918 79.209 60.3198 85.9305 47.7894 85.9305C35.6019 85.9305 24.8886 79.5717 18.7402 69.9677L77.3466 69.1497Z"/><path fill="#0F1689" fill-rule="evenodd" d="M69.0213 26.954C70.7218 28.1448 74.6427 25.4793 77.7788 21.0006C80.9148 16.5218 82.0785 11.9258 80.378 10.735C78.6774 9.54427 74.7565 12.2097 71.6205 16.6885C68.4844 21.1673 67.3207 25.7633 69.0213 26.954Z" clip-rule="evenodd"/><path fill="#0F1689" fill-rule="evenodd" d="M28.5048 26.954C26.8043 28.1448 22.8834 25.4793 19.7473 21.0006C16.6113 16.5218 15.4476 11.9258 17.1482 10.735C18.8487 9.54427 22.7696 12.2097 25.9056 16.6885C29.0417 21.1673 30.2054 25.7633 28.5048 26.954Z" clip-rule="evenodd"/><path fill="#0F1689" fill-rule="evenodd" d="M48.7425 19.9415C46.6665 19.9415 44.9836 15.5092 44.9836 10.0416C44.9836 4.57406 46.6665 0.141724 48.7425 0.141724C50.8185 0.141724 52.5015 4.57406 52.5015 10.0416C52.5015 15.5092 50.8185 19.9415 48.7425 19.9415Z" clip-rule="evenodd"/><path stroke="#0F1689" stroke-width="20" d="M19.3981 73.692C25.6355 82.7405 36.0257 88.6647 47.7894 88.6647C59.5745 88.6647 69.9811 82.7189 76.2147 73.6426M77.3466 35.8502C71.2918 25.7909 60.3198 19.0693 47.7894 19.0693C35.6019 19.0693 24.8886 25.4281 18.7402 35.0321L77.3466 35.8502Z"/></svg>