<svg xmlns="http://www.w3.org/2000/svg" xmlns:xlink="http://www.w3.org/1999/xlink" xml:space="preserve" width="297mm" height="210mm" style="shape-rendering:geometricPrecision; text-rendering:geometricPrecision; image-rendering:optimizeQuality; fill-rule:evenodd; clip-rule:evenodd" viewBox="0 0 297 210">
 <defs>
  <style type="text/css">
   <![CDATA[
    .fil4 {fill:#FFF}
    .fil2 {fill:#FFF}
    .fil0 {fill:#000}
    .fil1 {fill:#666}
    .fil3 {fill:#000}
    .fil6 {fill:#333}
    .fil7 {fill:#111}
    .fil8 {fill:#111}
    .fil9 {fill:#111}
    .fil10 {fill:#333}
    .fil12 {fill:#000}
    .fil11 {fill:white;fill-rule:nonzero}
    .fil5 {fill:black;fill-opacity:0.219608}
   ]]>
  </style>
 </defs>
 <g id="Layer_x0020_1">
  <metadata id="CorelCorpID_0Corel-Layer"/>
  <polygon class="fil0" points="44.1983,191.471 56.3159,191.518 55.8872,179.281 44.6463,179.327 "/>
  <polygon class="fil0" points="170.173,191.248 182.291,191.295 181.862,179.058 170.621,179.104 "/>
  <polygon class="fil1" points="44.2141,180.273 182.103,180.32 177.226,168.083 49.3128,168.129 "/>
  <path class="fil2" d="M12.4114 88.4537l0 28.3777c0.8807,1.3879 0.4757,17.0975 1.0961,20.5095 1.1431,6.286 0.8218,13.4487 2.0491,19.5567 0.5572,2.773 1.148,6.5851 2.4568,8.5073 2.0272,2.9771 3.5209,2.5103 7.4257,3.216 4.1444,0.749 15.9125,0.4512 20.8321,0.4512l139.953 0c15.0931,0 22.497,-4.958 28.1174,-14.5202 4.9296,-8.3867 8.661,-17.9505 14.0036,-25.9832 4.2393,-6.3738 6.2168,-9.0982 12.2025,-10.5399 12.9523,-3.1193 2.7081,-2.154 15.9974,-2.154l0 -28.3778c-11.9892,-0.637 -4.6288,1.4224 -15.7619,-1.9354 -11.6012,-4.3801 -18.0852,-20.6221 -23.5302,-31.6129 -2.6847,-5.4194 -9.867,-12.502 -14.5782,-15.8054 -6.7646,-4.743 -12.8964,-3.5426 -23.8675,-3.5426 -18.2671,0 -35.9873,-0.3225 -54.498,-0.3225l-65.7846 0c-8.5582,0 -16.6459,0.3225 -24.8305,0.3225 -10.4142,0 -15.3606,-1.1203 -17.3453,7.8075 -1.6992,7.6428 -1.4734,14.3907 -2.7166,22.4363 -0.3767,2.4376 -1.018,23.2889 -1.2213,23.6092z"/>
  <path class="fil2" d="M250.804 84.9777l0 30.9575c0,2.595 2.0285,5.482 4.5146,5.482l3.8548 0c2.4999,0 2.5169,-5.7386 2.5169,-8.5179l-5.1447 0c-1.3275,0 -0.582,1.2067 -0.582,-0.1889l0 -21.6057c-0.0937,-1.3091 -0.1867,0.1654 2.2295,-0.4834l4.8222 0c0,-2.3757 -0.9833,-9.5132 -3.197,-9.5132l-4.4997 0c-2.2996,0 -4.5146,2.3145 -4.5146,3.8696z"/>
  <g id="_241902104">
   <path id="_243723512" class="fil3" d="M272.946 92.7297l0 16.8762c0,2.0744 -0.9134,3.2455 -2.9396,3.2455l-24.3188 0 0 -22.718 24.9721 0c1.0692,0 2.2863,1.2191 2.2863,2.5963z"/>
   <ellipse id="_243712160" class="fil7" cx="255.141" cy="103.284" rx="1.72274" ry="1.72125"/>
   <ellipse id="_243712688" class="fil4" cx="249.495" cy="94.7649" rx="1.99543" ry="1.9937"/>
   <ellipse id="_243712640" class="fil4" cx="258.426" cy="108.357" rx="1.63665" ry="1.63523"/>
   <ellipse id="_241903408" class="fil4" cx="267.716" cy="96.5018" rx="2.45438" ry="2.45225"/>
   <ellipse id="_241903600" class="fil4" cx="257.566" cy="97.9268" rx="2.45438" ry="2.45225"/>
   <ellipse id="_242213928" class="fil4" cx="249.667" cy="107.841" rx="2.45438" ry="2.45225"/>
   <ellipse id="_243715544" class="fil4" cx="264.25" cy="104.119" rx="3.43122" ry="3.42824"/>
  </g>
  <path class="fil5" d="M19.4065 89.8468l0 24.956c0.7816,1.2206 0.4222,15.036 0.9728,18.0366 1.0145,5.528 0.7293,11.8271 1.8186,17.1986 0.4945,2.4386 1.0188,5.7911 2.1804,7.4815 1.7991,2.6182 3.1248,2.2076 6.5903,2.8282 3.6782,0.6587 14.1225,0.3968 18.4886,0.3968l124.21 0c13.3953,0 27.1443,-3.9013 32.1325,-12.3105 4.375,-7.3754 7.6867,-15.7861 12.4282,-22.8502 3.7624,-5.6053 5.6841,-7.4485 10.8299,-9.269 6.7461,-2.3868 9.9956,-3.2495 16.63,-3.4633l0 -22.7182c-10.6405,-0.5602 -6.5404,0.5819 -16.421,-2.371 -10.2962,-3.8519 -16.0508,-18.1356 -20.8832,-27.8011 -8.5333,-19.1076 -30.7298,-17.3387 -41.2989,-17.474 -16.2121,0 -31.939,-0.2836 -48.3673,-0.2836l-58.3843 0c-7.5955,0 -14.7734,0.2836 -22.0372,0.2836 -9.2427,0 -13.6326,-0.9852 -15.3941,6.8661 -1.508,6.7213 -1.3076,12.6555 -2.411,19.7311 -0.3343,2.1437 -0.9035,20.4807 -1.0839,20.7624z"/>
  <g id="_242105080">
   <rect id="_241924808" class="fil6" x="134.511" y="71.1527" width="47.7369" height="27.7257"/>
   <rect id="_243711992" class="fil7" x="97.5149" y="71.1527" width="48.3994" height="27.7257"/>
   <rect id="_242105488" class="fil8" x="43.2592" y="55.2318" width="3.80296" height="28.174" rx="1.6434" ry="1.6434"/>
   <polygon id="_241903072" class="fil9" points="49.0151,79.819 41.6602,79.819 40.5705,80.2272 39.7533,80.6352 39.4809,81.0434 39.2085,81.4517 38.9361,81.8599 38.6637,82.2679 38.3913,83.0844 38.1189,84.7171 38.1189,99.8197 62.9078,99.8197 62.9078,83.9008 62.6354,82.6762 62.363,82.2679 62.0905,81.4517 61.5458,81.0434 61.2734,80.6352 60.7285,80.2272 59.6389,79.819 52.0116,79.819 "/>
   <rect id="_241903768" class="fil10" x="33.076" y="98.5321" width="55.0232" height="27.0128" rx="5.2346" ry="5.2346"/>
   <path id="_241901528" class="fil8" d="M33.076 119.644l-8.1636 0 -0.4082 0.4082 -0.4081 0.4082 -0.4082 1.2245 0 0.4082 0.4082 1.2245 0.4081 0.4082 0.4082 0.4082 0.8164 0.4082 2.449 0 0.8164 -0.4082c1.9746,1.7162 7.8894,34.142 11.0208,35.7033 47.4503,3.1189 95.7861,2.9297 144.855,0l11.0692 -24.2744 0.4082 -0.8163 0.4082 -0.8164 0.4081 -1.2245 0.4082 -1.2245 0.4082 -1.2246 0.4082 -1.6327 0.4081 -4.0817 2.4491 0 0.8164 -0.4082 0.4081 -0.4082 0.4082 -0.4082 0 -2.449 -0.4082 -0.8164 -0.8163 -0.4082 -4.8981 0 -15.1027 0 -18.368 0 -15.1026 0 -41.6342 0 -8.1636 0 -7.3473 0 -7.7554 0 -50.2059 0z"/>
   <rect id="_241902536" class="fil6" x="93.2907" y="97.3073" width="52.7794" height="22.3367"/>
   <rect id="_5192312" class="fil7" x="134.666" y="97.3073" width="52.7794" height="22.3367"/>
   <rect id="_243713048" class="fil2" x="39.4188" y="104.954" width="19.9079" height="3.23185" rx="1.4356" ry="1.4356"/>
   <rect id="_242106568" class="fil2" x="39.8346" y="110.568" width="19.9079" height="3.23185" rx="1.4356" ry="1.4356"/>
  </g>
  <path class="fil11" d="M131.83 150.512l-1.8312 -3.0087 -1.1257 1.0634 0 1.6496c0,0.3995 -0.1063,0.7081 -0.3164,0.9234 -0.2101,0.2153 -0.4513,0.3216 -0.7237,0.3216 -0.319,0 -0.5706,-0.1063 -0.7548,-0.319 -0.1815,-0.2127 -0.2723,-0.5265 -0.2723,-0.9415l0 -8.8448c0,-0.4617 0.0882,-0.8118 0.2671,-1.053 0.1764,-0.2413 0.4306,-0.3606 0.76,-0.3606 0.319,0 0.5706,0.109 0.76,0.3268 0.1867,0.2179 0.2801,0.5395 0.2801,0.9649l0 5.0293 2.3318 -2.4459c0.2905,-0.3061 0.511,-0.5136 0.6614,-0.6251 0.153,-0.1115 0.3372,-0.166 0.5551,-0.166 0.2594,0 0.4746,0.083 0.6458,0.2464 0.1738,0.166 0.2594,0.3709 0.2594,0.6199 0,0.3035 -0.2827,0.7081 -0.843,1.2165l-1.1023 1.009 2.1269 3.3434c0.1582,0.249 0.2697,0.4383 0.3372,0.568 0.07,0.1297 0.1037,0.2516 0.1037,0.3683 0,0.3294 -0.0908,0.5888 -0.2697,0.7781 -0.179,0.1894 -0.4176,0.2853 -0.7107,0.2853 -0.2542,0 -0.4488,-0.0674 -0.5836,-0.2049 -0.1375,-0.1374 -0.3217,-0.3838 -0.5551,-0.7444zm5.4391 -6.308l0 5.9968c0,0.415 -0.0985,0.7288 -0.2957,0.9415 -0.1971,0.2127 -0.4487,0.319 -0.7521,0.319 -0.3061,0 -0.5525,-0.1089 -0.7419,-0.3268 -0.1893,-0.2178 -0.2853,-0.5291 -0.2853,-0.9337l0 -5.9346c0,-0.4124 0.096,-0.721 0.2853,-0.9285 0.1894,-0.2075 0.4358,-0.3113 0.7419,-0.3113 0.3034,0 0.555,0.1038 0.7521,0.3113 0.1972,0.2075 0.2957,0.498 0.2957,0.8663zm-1.0271 -2.1425c-0.2879,0 -0.5343,-0.0882 -0.7392,-0.2671 -0.2049,-0.1764 -0.3087,-0.428 -0.3087,-0.7496 0,-0.2957 0.1064,-0.5369 0.3165,-0.7263 0.2101,-0.1893 0.4539,-0.2853 0.7314,-0.2853 0.2698,0 0.5084,0.0856 0.7159,0.2594 0.2075,0.1712 0.3112,0.4228 0.3112,0.7522 0,0.319 -0.1011,0.568 -0.3034,0.747 -0.2023,0.179 -0.4436,0.2697 -0.7237,0.2697zm5.0553 2.1114l0 0.2516c0.3657,-0.4825 0.7652,-0.8352 1.1957,-1.0609 0.4332,-0.2257 0.9312,-0.3372 1.494,-0.3372 0.5473,0 1.0349,0.1193 1.4655,0.358 0.4306,0.236 0.7522,0.5732 0.9649,1.0089 0.1375,0.2542 0.2256,0.5266 0.2671,0.8223 0.039,0.2931 0.0597,0.6666 0.0597,1.1231l0 3.8621c0,0.415 -0.096,0.7288 -0.2853,0.9415 -0.1894,0.2127 -0.4358,0.319 -0.7418,0.319 -0.3087,0 -0.5577,-0.1089 -0.7522,-0.3268 -0.192,-0.2178 -0.2879,-0.5291 -0.2879,-0.9337l0 -3.4575c0,-0.6848 -0.096,-1.2087 -0.2853,-1.5718 -0.1894,-0.3606 -0.5681,-0.5421 -1.1335,-0.5421 -0.3709,0 -0.7081,0.1089 -1.0116,0.3294 -0.3035,0.2204 -0.5265,0.5239 -0.6666,0.9104 -0.1011,0.3086 -0.153,0.8845 -0.153,1.7326l0 2.599c0,0.4202 -0.0986,0.734 -0.2931,0.9441 -0.1945,0.2101 -0.4461,0.3164 -0.7548,0.3164 -0.3009,0 -0.5447,-0.1089 -0.7392,-0.3268 -0.192,-0.2178 -0.2879,-0.5291 -0.2879,-0.9337l0 -5.9968c0,-0.3943 0.0856,-0.69 0.2593,-0.8845 0.1712,-0.1945 0.4073,-0.2931 0.7056,-0.2931 0.1815,0 0.3475,0.0441 0.4954,0.1297 0.1452,0.0856 0.2645,0.2153 0.3527,0.3865 0.0882,0.1738 0.1323,0.3839 0.1323,0.6303zm13.1971 6.1031l0 -0.2049c-0.2776,0.319 -0.5525,0.5784 -0.8248,0.7781 -0.2698,0.1997 -0.5655,0.3528 -0.8819,0.4565 -0.3165,0.1038 -0.6614,0.1556 -1.0375,0.1556 -0.4954,0 -0.9545,-0.1063 -1.3773,-0.3164 -0.4228,-0.2101 -0.7911,-0.5084 -1.0998,-0.9 -0.3086,-0.3891 -0.5421,-0.8482 -0.7029,-1.3747 -0.1582,-0.5266 -0.2386,-1.0972 -0.2386,-1.7093 0,-1.2969 0.3164,-2.3085 0.9493,-3.0321 0.6329,-0.7237 1.4681,-1.0868 2.5004,-1.0868 0.5991,0 1.1023,0.1037 1.5122,0.3086 0.4098,0.2049 0.8118,0.5188 1.2009,0.9468l0 -3.0633c0,-0.4254 0.0856,-0.747 0.2542,-0.9649 0.1711,-0.2178 0.4124,-0.3268 0.7262,-0.3268 0.3139,0 0.5551,0.1012 0.7263,0.3009 0.1686,0.1997 0.2542,0.4954 0.2542,0.8845l0 9.1482c0,0.3942 -0.0908,0.6925 -0.2724,0.8897 -0.1841,0.1971 -0.4202,0.2956 -0.7081,0.2956 -0.2827,0 -0.5187,-0.1037 -0.7029,-0.3086 -0.1842,-0.2049 -0.2775,-0.4954 -0.2775,-0.8767zm-4.08 -3.0477c0,0.5629 0.0882,1.0427 0.2619,1.437 0.1738,0.3942 0.415,0.6925 0.7185,0.8922 0.3035,0.1997 0.6355,0.3009 0.996,0.3009 0.3632,0 0.6977,-0.096 0.9986,-0.2853 0.3009,-0.1894 0.5421,-0.4799 0.7211,-0.8741 0.179,-0.3917 0.2697,-0.8819 0.2697,-1.4707 0,-0.5499 -0.0907,-1.0271 -0.2697,-1.424 -0.179,-0.3968 -0.4228,-0.7003 -0.7289,-0.9104 -0.306,-0.2101 -0.6432,-0.3164 -1.0063,-0.3164 -0.3813,0 -0.7211,0.1063 -1.0194,0.3216 -0.2983,0.2153 -0.5291,0.5265 -0.6951,0.9286 -0.1634,0.402 -0.2464,0.8689 -0.2464,1.4006z"/>
  <g id="_242108632">
   <polygon id="_241901792" class="fil12" points="139.95,77.5813 139.871,77.6078 139.738,77.6344 139.658,77.661 139.579,77.6875 139.499,77.714 139.419,77.7406 139.366,77.7671 139.34,77.7937 139.233,77.8203 139.154,77.8468 139.101,77.8734 139.047,77.8999 138.994,77.9264 138.915,77.953 138.888,77.9795 138.808,78.0061 138.782,78.0327 138.755,78.0592 138.676,78.0858 138.623,78.1123 138.543,78.1389 138.463,78.1654 138.437,78.192 138.357,78.2185 138.33,78.2451 138.277,78.2716 138.198,78.2982 138.171,78.3247 138.118,78.3513 138.065,78.3778 138.012,78.4044 137.932,78.4309 137.879,78.4575 137.826,78.484 137.773,78.5106 137.693,78.5371 137.666,78.5637 137.613,78.5902 137.56,78.6168 137.507,78.6433 137.428,78.6699 137.401,78.6964 137.321,78.723 137.268,78.7495 137.215,78.7761 137.135,78.8026 137.082,78.8292 137.056,78.8557 137.003,78.8823 136.95,78.9088 136.896,78.9354 136.843,78.962 136.79,78.9885 136.711,79.015 136.657,79.0416 136.578,79.0681 136.525,79.0947 136.498,79.1213 136.418,79.1478 136.392,79.1744 136.312,79.2009 136.286,79.2274 136.206,79.254 136.179,79.2805 136.1,79.3071 136.047,79.3337 135.994,79.3602 135.94,79.3868 135.861,79.4133 135.834,79.4399 135.781,79.4664 135.728,79.493 135.648,79.5195 135.622,79.5461 135.542,79.5726 135.515,79.5992 135.436,79.6257 135.383,79.6523 135.303,79.6788 135.276,79.7054 135.197,79.7319 135.17,79.7585 135.09,79.785 135.064,79.8116 134.984,79.8381 134.958,79.8647 134.905,79.8912 134.825,79.9178 134.745,79.9443 134.719,79.9709 134.639,79.9974 134.613,80.024 134.559,80.0505 134.48,80.0771 134.427,80.1036 134.374,80.1302 134.347,80.1567 134.294,80.1833 134.188,80.2098 134.161,80.2364 134.081,80.263 134.055,80.2895 133.975,80.316 133.949,80.3426 133.869,80.3691 133.842,80.3957 133.763,80.4222 133.736,80.4488 133.683,80.4754 133.603,80.5019 133.524,80.5284 133.471,80.555 133.417,80.5815 133.391,80.6081 133.311,80.6347 133.258,80.6612 133.205,80.6878 133.152,80.7143 133.125,80.7409 133.072,80.7674 132.966,80.794 132.94,80.8205 132.86,80.8471 132.833,80.8736 132.754,80.9002 132.727,80.9267 132.647,80.9533 132.594,80.9798 132.568,81.0064 132.515,81.0329 132.462,81.0595 132.382,81.086 132.302,81.1126 132.249,81.1391 132.196,81.1657 132.143,81.1922 132.09,81.2188 132.037,81.2453 131.983,81.2719 131.957,81.2984 131.904,81.325 131.824,81.3515 131.771,81.3781 131.691,81.4046 131.638,81.4312 131.612,81.4577 131.532,81.4843 131.479,81.5108 131.426,81.5374 131.373,81.564 131.346,81.5905 131.266,81.617 131.24,81.6436 131.16,81.6701 131.081,81.6967 131.027,81.7232 130.974,81.7498 130.921,81.7764 130.868,81.8029 130.815,81.8295 130.788,81.856 130.709,81.8825 130.682,81.9091 130.602,81.9357 130.549,81.9622 130.496,81.9888 130.417,82.0153 130.363,82.0419 130.31,82.0684 130.257,82.095 130.204,82.1215 130.151,82.1481 130.125,82.1746 130.045,82.2012 130.018,82.2277 129.939,82.2543 129.859,82.2808 129.806,82.3074 129.753,82.3339 129.7,82.3605 129.673,82.387 129.593,82.4136 129.567,82.4401 129.487,82.4667 129.461,82.4932 129.381,82.5198 129.354,82.5463 129.248,82.5729 129.195,82.5994 129.142,82.626 129.089,82.6525 129.036,82.6791 129.009,82.7056 128.929,82.7322 128.876,82.7587 128.823,82.7853 128.77,82.8118 128.717,82.8384 128.664,82.865 128.584,82.8915 128.558,82.918 128.478,82.9446 128.425,82.9711 128.372,82.9977 128.345,83.0242 128.266,83.0508 128.212,83.0774 128.159,83.1039 128.106,83.1305 128.027,83.157 127.973,83.1835 127.92,83.2101 127.867,83.2367 127.814,83.2632 127.788,83.2898 127.708,83.3163 127.655,83.3429 127.602,83.3694 127.549,83.396 127.495,83.4225 127.442,83.4491 127.363,83.4756 127.31,83.5022 127.256,83.5287 127.23,83.5553 127.15,83.5818 127.097,83.6084 127.044,83.6349 126.991,83.6615 126.938,83.688 126.885,83.7146 126.805,83.7411 126.752,83.7677 126.699,83.7942 126.646,83.8208 126.593,83.8473 126.539,83.8739 126.486,83.9004 126.433,83.927 126.38,83.9535 126.327,83.9801 126.3,84.0066 126.221,84.0332 126.141,84.0597 126.088,84.0863 126.035,84.1128 125.982,84.1394 125.929,84.166 125.876,84.1925 125.822,84.219 125.769,84.2456 125.743,84.2721 125.663,84.2987 125.61,84.3252 125.53,84.3518 125.477,84.3784 125.424,84.4049 125.371,84.4315 125.318,84.458 125.265,84.4845 125.212,84.5111 125.159,84.5377 125.105,84.5642 125.079,84.5908 124.999,84.6173 124.92,84.6439 124.866,84.6704 124.813,84.697 124.76,84.7235 124.707,84.7501 124.654,84.7766 124.601,84.8032 124.548,84.8297 124.521,84.8563 124.441,84.8828 124.415,84.9094 124.309,84.9359 124.256,84.9625 124.202,84.989 124.149,85.0156 124.096,85.0421 124.043,85.0687 123.99,85.0952 123.963,85.1218 123.884,85.1483 123.831,85.1749 123.778,85.2014 123.698,85.228 123.645,85.2545 123.592,85.2811 123.539,85.3076 123.485,85.3342 123.432,85.3607 123.379,85.3873 123.326,85.4138 123.273,85.4404 123.22,85.467 123.167,85.4935 123.087,85.52 123.034,85.5466 122.981,85.5731 122.928,85.5997 122.875,85.6262 122.822,85.6528 122.768,85.6794 122.715,85.7059 122.662,85.7325 122.609,85.759 122.556,85.7855 122.503,85.8121 122.423,85.8387 122.37,85.8652 122.29,85.8918 122.264,85.9183 122.211,85.9449 122.158,85.9714 122.078,85.998 122.051,86.0245 121.972,86.0511 121.945,86.0776 121.866,86.1042 121.812,86.1307 121.759,86.1573 121.706,86.1838 121.653,86.2104 121.6,86.2369 121.547,86.2635 121.494,86.29 121.441,86.3166 121.388,86.3431 121.334,86.3697 121.281,86.3962 121.202,86.4228 121.149,86.4493 121.069,86.4759 121.042,86.5024 120.989,86.529 120.936,86.5555 120.856,86.5821 120.83,86.6086 120.777,86.6352 120.724,86.6617 120.67,86.6883 120.591,86.7148 120.511,86.7414 120.485,86.768 120.432,86.7945 120.378,86.821 120.299,86.8476 120.272,86.8741 120.192,86.9007 120.166,86.9272 120.113,86.9538 120.06,86.9804 119.98,87.0069 119.927,87.0335 119.874,87.06 119.821,87.0865 119.768,87.1131 119.714,87.1397 119.635,87.1662 119.608,87.1928 119.555,87.2193 119.502,87.2459 119.449,87.2724 119.369,87.299 119.29,87.3255 119.263,87.3521 119.183,87.3786 119.157,87.4052 119.104,87.4317 119.024,87.4583 118.997,87.4848 118.944,87.5114 118.918,87.5379 118.838,87.5645 118.758,87.591 118.705,87.6176 118.652,87.6441 118.599,87.6707 118.519,87.6972 118.493,87.7238 118.44,87.7503 118.387,87.7769 118.334,87.8034 118.28,87.83 118.227,87.8565 118.148,87.8831 118.095,87.9096 118.041,87.9362 117.988,87.9627 117.935,87.9893 117.882,88.0158 117.829,88.0424 117.802,88.0689 117.776,88.0955 117.749,88.1221 117.67,88.1486 117.643,88.1751 117.59,88.2017 117.537,88.2282 117.51,88.2548 117.484,88.2814 117.457,88.3079 117.404,88.3345 117.378,88.361 117.351,88.3875 117.298,88.4141 117.298,88.4672 117.245,88.4672 117.218,88.4938 117.192,88.5203 117.165,88.5469 117.138,88.5734 117.112,88.6 117.059,88.6265 117.032,88.6531 117.006,88.6796 116.979,88.7062 116.953,88.7327 116.926,88.7593 116.899,88.8124 116.873,88.8389 116.846,88.8655 116.82,88.892 116.793,88.9186 116.767,88.9451 116.74,88.9982 116.714,89.0248 116.687,89.0513 116.66,89.0779 116.634,89.1044 116.607,89.131 116.581,89.1841 116.554,89.2372 116.528,89.2637 116.501,89.3168 116.475,89.3699 116.448,89.3965 116.421,89.4231 116.395,89.4761 116.368,89.5292 116.342,89.5558 116.315,89.6089 116.289,89.662 116.262,89.7417 116.236,89.7682 116.209,89.8479 116.182,89.8744 116.156,89.9541 116.129,90.0072 116.103,90.0868 116.076,90.1134 116.05,90.193 116.023,90.2727 115.997,90.3789 115.97,90.5116 115.943,90.6178 115.917,90.6975 115.89,90.8568 115.864,90.9099 115.837,91.0692 115.811,91.1489 115.784,91.2551 115.757,91.3613 115.731,91.4675 115.704,91.5737 115.678,91.7861 115.651,91.8657 115.625,91.9985 115.598,92.0781 115.572,92.2109 115.545,92.3171 115.518,92.4233 115.492,92.5295 115.465,92.6092 115.439,92.7419 115.412,92.8216 115.386,93.034 115.359,93.1667 115.333,93.2464 115.306,93.3791 115.28,93.4588 115.253,93.565 115.226,93.6712 115.2,93.7774 115.173,93.9102 115.147,93.9898 115.12,94.1491 115.094,94.2819 115.067,94.4146 115.041,94.5474 115.014,94.6271 114.987,94.7332 114.961,94.8395 114.934,94.9457 114.908,95.0519 114.881,95.1315 114.855,95.2908 114.828,95.3705 114.802,95.5298 114.775,95.7156 114.748,95.7953 114.722,95.9015 114.695,96.0077 114.669,96.0874 114.642,96.2201 114.616,96.3263 114.589,96.4591 114.563,96.5387 114.536,96.6715 114.509,96.7777 114.483,96.9635 114.456,97.0963 114.43,97.1759 114.403,97.2556 114.377,97.3884 114.35,97.468 114.324,97.6273 114.297,97.7069 114.27,97.8397 114.244,97.9194 114.217,98.0787 114.191,98.2645 114.164,98.3442 114.138,98.4238 114.111,98.5566 114.084,98.6362 114.058,98.7955 114.031,98.8487 114.005,99.0079 113.978,99.0876 113.952,99.2204 113.925,99.3 113.899,99.4859 113.872,99.5921 113.846,99.7248 113.819,99.8045 113.792,99.9372 113.766,100.017 113.739,100.15 113.713,100.256 113.686,100.389 113.66,100.468 113.633,100.628 113.607,100.734 113.58,100.893 113.553,100.973 113.527,101.106 113.5,101.185 113.474,101.318 113.447,101.397 113.421,101.53 113.394,101.637 113.368,101.769 113.341,101.849 113.314,102.061 113.288,102.141 113.261,102.274 113.235,102.353 113.208,102.486 113.182,102.566 113.155,102.699 113.128,102.778 113.102,102.938 113.075,103.017 113.049,103.123 113.022,103.309 112.996,103.442 112.969,103.522 112.943,103.654 112.916,103.734 112.889,103.867 112.863,103.947 112.836,104.106 112.81,104.185 112.783,104.292 112.757,104.398 112.73,104.584 112.704,104.69 112.677,104.796 112.65,104.902 112.624,105.035 112.597,105.115 112.571,105.248 112.544,105.327 112.518,105.433 112.491,105.566 112.465,105.646 112.438,105.778 112.411,105.964 112.385,106.071 112.358,106.203 112.332,106.283 112.305,106.416 112.279,106.495 112.252,106.602 112.226,106.708 112.199,106.814 112.172,106.947 112.146,107.053 112.119,107.212 112.093,107.372 112.066,107.451 112.04,107.584 112.013,107.664 111.987,107.77 111.96,107.876 111.933,107.982 111.907,108.115 111.88,108.195 111.854,108.354 111.827,108.54 111.801,108.593 111.774,108.752 111.748,108.832 111.721,108.912 111.694,109.044 111.668,109.124 111.641,109.257 111.615,109.336 111.588,109.496 111.562,109.602 111.535,109.761 111.509,109.92 111.482,110 111.455,110.106 111.429,110.213 111.402,110.292 111.376,110.425 111.349,110.505 111.323,110.664 111.296,110.744 111.269,110.876 111.243,111.062 111.216,111.168 111.19,111.275 111.163,111.381 111.137,111.46 111.11,111.593 111.084,111.673 111.057,111.832 111.03,111.885 111.004,112.045 110.977,112.124 110.951,112.31 110.924,112.443 110.898,112.522 110.871,112.629 110.845,112.761 110.818,112.841 110.792,112.974 110.765,113.054 110.738,113.213 110.712,113.319 110.685,113.505 110.685,114.567 110.712,114.753 110.738,114.859 110.765,115.018 110.792,115.071 110.818,115.204 110.845,115.257 110.871,115.337 110.898,115.39 110.924,115.47 110.951,115.549 110.977,115.629 111.004,115.682 111.03,115.762 111.057,115.815 111.084,115.868 111.11,115.921 111.137,115.948 111.163,116.001 111.19,116.027 111.216,116.08 111.243,116.107 111.269,116.187 111.296,116.24 111.323,116.266 111.349,116.319 111.376,116.346 111.402,116.399 111.429,116.425 111.455,116.452 111.482,116.479 111.509,116.505 111.535,116.558 111.562,116.585 111.588,116.611 111.615,116.664 111.641,116.691 111.668,116.718 111.694,116.771 111.721,116.797 111.748,116.824 111.774,116.85 111.801,116.877 111.827,116.903 111.854,116.957 111.88,116.983 111.907,117.036 111.933,117.063 111.96,117.089 111.987,117.116 112.013,117.142 112.04,117.169 112.066,117.195 112.093,117.249 112.119,117.275 112.146,117.302 112.172,117.355 112.199,117.381 112.226,117.434 112.279,117.461 112.305,117.514 112.332,117.541 112.358,117.567 112.385,117.62 112.411,117.647 112.438,117.673 112.465,117.7 112.491,117.753 112.518,117.78 112.544,117.806 112.571,117.833 112.597,117.886 112.624,117.912 112.65,117.939 112.677,117.965 112.704,118.019 112.757,118.019 112.757,118.072 112.783,118.125 112.81,118.151 112.836,118.178 112.863,118.231 112.916,118.231 112.916,118.284 112.943,118.311 112.969,118.337 112.996,118.364 113.022,118.39 113.049,118.443 113.075,118.47 113.102,118.496 113.128,118.549 113.155,118.576 113.182,118.603 113.208,118.629 113.235,118.656 113.261,118.709 113.288,118.735 113.314,118.762 113.341,118.815 113.368,118.842 113.394,118.868 113.421,118.895 113.447,118.921 113.474,118.974 113.5,119.001 113.527,119.027 113.553,119.054 113.58,119.081 113.607,119.134 113.633,119.16 113.66,119.213 113.686,119.24 113.713,119.266 113.739,119.293 113.766,119.346 113.819,119.346 113.819,119.399 113.846,119.426 113.872,119.452 113.899,119.479 113.925,119.532 113.952,119.559 113.978,119.612 114.005,119.638 114.031,119.665 114.058,119.691 114.084,119.744 114.111,119.771 114.138,119.797 114.164,119.824 114.217,119.824 114.217,119.877 114.244,119.93 114.27,119.957 114.297,120.01 114.324,120.036 114.35,120.063 114.377,120.09 114.403,120.116 114.43,120.143 114.456,120.169 114.483,120.222 114.509,120.249 114.536,120.302 114.563,120.328 114.589,120.355 114.616,120.382 114.642,120.408 114.669,120.461 114.695,120.488 114.722,120.514 114.748,120.541 114.775,120.567 114.802,120.621 114.828,120.647 114.855,120.674 114.881,120.727 114.908,120.753 114.934,120.78 114.961,120.806 114.987,120.833 115.014,120.886 115.041,120.913 115.067,120.939 115.094,120.966 115.12,121.019 115.147,121.045 115.173,121.098 115.2,121.125 115.226,121.152 115.253,121.178 115.28,121.231 115.333,121.231 115.333,121.284 115.386,121.284 115.386,121.337 115.412,121.391 115.439,121.417 115.465,121.444 115.492,121.497 115.545,121.497 115.545,121.55 115.572,121.576 115.598,121.603 115.625,121.629 115.651,121.656 115.678,121.709 115.704,121.736 115.731,121.789 115.757,121.815 115.784,121.842 115.811,121.868 115.837,121.895 115.864,121.948 115.89,121.975 115.917,122.001 115.943,122.028 115.97,122.081 115.997,122.107 116.023,122.134 116.05,122.161 116.076,122.214 116.103,122.24 116.129,122.267 116.156,122.293 116.182,122.346 116.209,122.373 116.236,122.399 116.262,122.426 116.289,122.453 116.315,122.506 116.342,122.532 116.368,122.559 116.395,122.612 116.421,122.638 116.448,122.665 116.475,122.692 116.501,122.745 116.554,122.745 116.554,122.798 116.581,122.824 116.607,122.877 116.634,122.904 116.66,122.93 116.687,122.957 116.714,123.01 116.74,123.037 116.767,123.063 116.793,123.09 116.82,123.116 116.846,123.143 116.873,123.196 116.899,123.223 116.926,123.276 116.953,123.302 116.979,123.329 117.006,123.355 117.032,123.408 117.059,123.435 117.085,123.462 117.112,123.488 117.138,123.515 117.165,123.541 117.192,123.594 117.218,123.621 117.245,123.674 117.298,123.674 117.298,123.727 117.324,123.754 117.351,123.78 117.378,123.807 117.404,123.86 117.431,123.886 117.457,123.913 117.484,123.939 117.51,123.993 117.537,124.019 117.563,124.072 117.617,124.072 117.617,124.125 117.643,124.152 117.67,124.178 117.696,124.205 117.723,124.231 117.749,124.285 117.776,124.338 117.802,124.364 117.829,124.391 117.856,124.417 117.882,124.47 117.909,124.497 117.935,124.524 117.962,124.55 118.015,124.55 118.015,124.603 118.041,124.63 118.068,124.683 118.095,124.709 118.121,124.763 118.148,124.789 118.174,124.816 118.201,124.842 118.227,124.869 118.254,124.895 118.28,124.948 118.307,124.975 118.334,125.001 118.36,125.055 118.387,125.081 118.413,125.108 118.44,125.134 118.466,125.187 118.493,125.214 118.519,125.24 118.546,125.267 118.572,125.293 118.599,125.347 118.626,125.373 118.652,125.4 118.679,125.453 118.705,125.479 118.732,125.506 118.758,125.559 118.812,125.559 118.812,125.612 118.838,125.639 118.865,125.665 118.891,125.692 118.918,125.718 118.944,125.771 118.971,125.825 118.997,125.851 119.024,125.878 119.051,125.904 119.077,125.931 119.104,125.957 119.13,126.01 119.183,126.01 119.183,126.064 119.21,126.09 119.236,126.143 119.263,126.17 119.29,126.223 119.343,126.223 119.343,126.276 119.369,126.302 119.396,126.329 119.422,126.356 119.449,126.409 119.475,126.435 119.502,126.462 119.528,126.488 119.555,126.541 119.582,126.568 119.608,126.595 119.635,126.621 119.661,126.674 119.688,126.701 119.714,126.727 119.741,126.754 119.768,126.807 119.821,126.807 119.821,126.86 119.847,126.887 119.874,126.94 119.9,126.966 119.927,126.993 119.953,127.019 119.98,127.072 120.007,127.099 120.033,127.126 120.06,127.152 120.086,127.179 120.113,127.205 120.139,127.258 120.166,127.285 120.192,127.338 120.219,127.364 120.246,127.391 120.272,127.418 120.299,127.444 120.325,127.471 120.352,127.524 120.378,127.55 120.405,127.577 120.432,127.63 120.458,127.656 120.485,127.683 120.511,127.736 120.538,127.763 120.564,127.789 120.591,127.816 120.617,127.842 120.644,127.869 120.67,127.922 120.697,127.949 120.724,127.975 120.75,128.028 120.777,128.055 120.803,128.081 120.83,128.108 120.856,128.134 120.883,128.188 120.909,128.214 120.936,128.241 120.963,128.267 120.989,128.294 121.016,128.347 121.042,128.373 121.069,128.4 121.095,128.453 121.122,128.48 121.149,128.506 121.175,128.559 121.202,128.586 121.228,128.612 121.255,128.639 121.281,128.666 121.308,128.719 121.334,128.745 121.361,128.772 121.388,128.825 121.414,128.851 121.441,128.878 121.467,128.904 121.494,128.931 121.52,128.958 121.547,128.984 121.573,129.011 121.6,129.064 121.626,129.117 121.653,129.143 121.68,129.197 121.706,129.223 121.733,129.25 121.786,129.25 121.786,129.303 121.812,129.329 121.839,129.356 121.866,129.409 121.892,129.435 121.919,129.488 121.945,129.515 121.972,129.542 121.998,129.568 122.025,129.595 122.051,129.621 122.078,129.674 122.105,129.701 122.131,129.727 122.158,129.754 122.184,129.807 122.211,129.834 122.237,129.86 122.264,129.887 122.29,129.94 122.317,129.967 122.344,129.993 122.37,130.02 122.397,130.073 122.423,130.099 122.45,130.126 122.476,130.152 122.503,130.205 122.529,130.232 122.556,130.285 122.609,130.285 122.609,130.338 122.636,130.365 122.662,130.391 122.689,130.418 122.715,130.444 122.742,130.471 122.768,130.524 122.795,130.551 122.822,130.604 122.848,130.63 122.875,130.657 122.901,130.683 122.928,130.736 122.981,130.736 122.981,130.79 123.007,130.816 123.034,130.869 123.087,130.869 123.087,130.922 123.114,130.949 123.14,131.002 123.167,131.029 123.193,131.055 123.22,131.082 123.246,131.135 123.299,131.135 123.299,131.188 123.326,131.214 123.353,131.241 123.379,131.294 123.406,131.321 123.432,131.347 123.459,131.4 123.512,131.4 123.512,131.453 123.539,131.48 123.565,131.506 123.592,131.56 123.618,131.586 123.645,131.613 123.671,131.639 123.698,131.666 123.724,131.719 123.751,131.745 123.778,131.772 123.804,131.825 123.831,131.852 123.857,131.878 123.884,131.905 123.91,131.931 123.937,131.958 123.963,132.011 123.99,132.064 124.017,132.09 124.043,132.117 124.07,132.144 124.096,132.17 124.123,132.197 124.149,132.25 124.202,132.25 124.202,132.303 124.229,132.33 124.256,132.356 124.282,132.409 124.309,132.462 124.335,132.489 124.362,132.515 124.415,132.515 124.415,132.568 124.441,132.595 124.468,132.648 124.495,132.675 124.521,132.701 124.548,132.728 124.574,132.781 124.601,132.807 124.627,132.834 124.654,132.861 124.68,132.914 124.707,132.94 124.734,132.967 124.76,132.993 124.787,133.02 124.813,133.073 124.84,133.1 124.866,133.126 124.893,133.179 124.92,133.206 124.946,133.232 124.973,133.285 124.999,133.312 125.026,133.338 125.052,133.365 125.079,133.392 125.105,133.418 125.132,133.445 125.159,133.498 125.185,133.524 125.212,133.577 125.238,133.604 125.265,133.631 125.291,133.657 125.318,133.684 125.344,133.71 125.371,133.763 125.397,133.79 125.424,133.816 125.451,133.869 125.477,133.896 125.504,133.923 125.53,133.976 125.583,133.976 125.583,134.029 125.61,134.055 125.637,134.082 125.663,134.135 125.716,134.135 125.716,134.188 125.743,134.215 125.769,134.268 125.796,134.294 125.822,134.321 125.849,134.347 125.876,134.4 125.929,134.4 125.929,134.454 125.955,134.48 125.982,134.533 126.008,134.56 126.035,134.586 126.061,134.613 126.088,134.666 126.141,134.666 126.141,134.719 126.168,134.746 126.194,134.772 126.221,134.799 126.247,134.825 126.274,134.852 126.3,134.878 126.327,134.905 126.354,134.932 126.38,134.958 126.407,134.985 126.433,135.011 126.46,135.038 126.486,135.064 126.513,135.091 126.539,135.117 126.566,135.144 126.619,135.17 126.646,135.197 126.672,135.224 126.699,135.25 126.752,135.277 126.778,135.303 126.805,135.33 126.832,135.356 126.885,135.383 126.911,135.409 126.964,135.436 126.991,135.463 127.071,135.489 127.097,135.516 127.15,135.542 127.177,135.569 127.23,135.595 127.256,135.622 127.31,135.648 127.363,135.675 127.416,135.702 127.495,135.728 127.522,135.755 127.602,135.781 127.681,135.808 127.734,135.834 127.788,135.861 127.867,135.887 127.947,135.914 128.027,135.94 128.106,135.967 128.239,135.994 128.319,136.02 128.478,136.047 153.175,136.047 153.335,136.02 153.414,135.994 153.547,135.967 153.6,135.94 153.707,135.914 153.76,135.887 153.839,135.861 153.919,135.834 153.972,135.808 154.025,135.781 154.131,135.755 154.158,135.728 154.238,135.702 154.291,135.675 154.344,135.648 154.397,135.622 154.424,135.595 154.477,135.569 154.503,135.542 154.556,135.516 154.583,135.489 154.663,135.463 154.689,135.436 154.742,135.409 154.769,135.383 154.795,135.356 154.848,135.33 154.875,135.303 154.902,135.277 154.955,135.25 154.981,135.224 155.008,135.197 155.034,135.17 155.088,135.144 155.114,135.117 155.141,135.091 155.167,135.064 155.194,135.038 155.22,135.011 155.247,134.985 155.273,134.958 155.3,134.932 155.327,134.905 155.353,134.878 155.38,134.852 155.406,134.825 155.433,134.799 155.459,134.772 155.486,134.746 155.512,134.719 155.512,134.666 155.565,134.666 155.592,134.613 155.619,134.586 155.645,134.56 155.672,134.533 155.698,134.48 155.725,134.454 155.751,134.427 155.778,134.4 155.804,134.347 155.831,134.321 155.858,134.294 155.884,134.268 155.911,134.215 155.937,134.188 155.937,134.135 155.99,134.135 156.017,134.082 156.043,134.055 156.07,134.029 156.07,133.976 156.123,133.976 156.15,133.923 156.176,133.896 156.203,133.869 156.229,133.816 156.256,133.79 156.283,133.763 156.309,133.71 156.336,133.684 156.362,133.657 156.389,133.631 156.415,133.604 156.442,133.577 156.468,133.524 156.495,133.498 156.522,133.445 156.548,133.418 156.575,133.392 156.601,133.365 156.628,133.338 156.654,133.312 156.681,133.285 156.707,133.232 156.734,133.206 156.761,133.179 156.787,133.126 156.814,133.1 156.84,133.073 156.867,133.02 156.893,132.993 156.92,132.967 156.946,132.94 156.973,132.914 157,132.861 157.026,132.834 157.053,132.807 157.079,132.781 157.106,132.728 157.132,132.701 157.159,132.675 157.185,132.648 157.212,132.595 157.238,132.568 157.238,132.515 157.292,132.515 157.318,132.489 157.345,132.462 157.371,132.409 157.398,132.356 157.424,132.33 157.451,132.303 157.451,132.25 157.504,132.25 157.531,132.197 157.557,132.17 157.584,132.144 157.61,132.117 157.637,132.09 157.663,132.064 157.69,132.011 157.717,131.958 157.743,131.931 157.77,131.905 157.796,131.878 157.823,131.852 157.849,131.825 157.876,131.772 157.902,131.745 157.929,131.719 157.956,131.666 157.982,131.639 158.009,131.613 158.035,131.586 158.062,131.56 158.088,131.506 158.115,131.48 158.141,131.453 158.141,131.4 158.195,131.4 158.221,131.347 158.248,131.321 158.274,131.294 158.301,131.241 158.327,131.214 158.354,131.188 158.354,131.135 158.407,131.135 158.434,131.082 158.46,131.055 158.487,131.029 158.513,131.002 158.54,130.949 158.566,130.922 158.593,130.869 158.619,130.843 158.646,130.816 158.673,130.79 158.673,130.736 158.726,130.736 158.752,130.683 158.779,130.657 158.805,130.63 158.832,130.604 158.858,130.551 158.885,130.524 158.912,130.471 158.938,130.444 158.965,130.418 158.991,130.391 159.018,130.365 159.044,130.338 159.071,130.285 159.098,130.259 159.124,130.232 159.151,130.205 159.177,130.152 159.204,130.126 159.23,130.099 159.257,130.073 159.283,130.02 159.31,129.993 159.337,129.967 159.363,129.94 159.39,129.887 159.416,129.86 159.443,129.834 159.469,129.807 159.496,129.754 159.522,129.727 159.549,129.701 159.576,129.674 159.602,129.621 159.629,129.595 159.655,129.568 159.682,129.542 159.708,129.515 159.735,129.488 159.761,129.435 159.788,129.409 159.815,129.356 159.841,129.329 159.868,129.276 159.921,129.25 159.947,129.223 159.974,129.17 160,129.143 160.027,129.117 160.054,129.064 160.08,129.011 160.107,128.984 160.133,128.958 160.16,128.931 160.186,128.904 160.213,128.878 160.239,128.851 160.266,128.798 160.292,128.772 160.319,128.745 160.346,128.719 160.372,128.666 160.399,128.639 160.425,128.612 160.452,128.586 160.478,128.533 160.505,128.506 160.531,128.48 160.558,128.453 160.585,128.4 160.611,128.373 160.638,128.347 160.664,128.294 160.691,128.267 160.717,128.241 160.744,128.214 160.771,128.188 160.797,128.134 160.824,128.108 160.85,128.081 160.877,128.055 160.903,128.028 160.93,127.975 160.93,127.922 160.983,127.922 161.01,127.869 161.036,127.842 161.063,127.816 161.089,127.789 161.116,127.763 161.142,127.736 161.169,127.683 161.195,127.656 161.222,127.63 161.249,127.577 161.275,127.55 161.302,127.497 161.328,127.471 161.355,127.444 161.381,127.418 161.408,127.391 161.434,127.364 161.461,127.338 161.488,127.285 161.514,127.258 161.541,127.205 161.567,127.179 161.594,127.152 161.62,127.126 161.62,127.072 161.673,127.072 161.7,127.019 161.726,126.993 161.753,126.966 161.78,126.94 161.806,126.887 161.833,126.86 161.833,126.807 161.886,126.807 161.912,126.754 161.939,126.727 161.966,126.701 161.992,126.674 162.019,126.621 162.045,126.595 162.072,126.568 162.098,126.541 162.125,126.488 162.152,126.462 162.178,126.435 162.205,126.382 162.231,126.356 162.258,126.329 162.284,126.302 162.311,126.276 162.337,126.223 162.364,126.196 162.39,126.17 162.417,126.143 162.444,126.09 162.47,126.064 162.47,126.01 162.523,126.01 162.55,125.957 162.576,125.931 162.603,125.904 162.63,125.878 162.656,125.851 162.683,125.798 162.709,125.771 162.736,125.718 162.762,125.692 162.789,125.665 162.815,125.639 162.842,125.612 162.869,125.559 162.895,125.532 162.922,125.506 162.948,125.479 162.975,125.453 163.001,125.4 163.028,125.373 163.054,125.347 163.081,125.293 163.107,125.267 163.134,125.24 163.161,125.214 163.187,125.187 163.214,125.134 163.24,125.108 163.267,125.081 163.293,125.055 163.32,125.001 163.346,124.975 163.373,124.948 163.4,124.895 163.426,124.869 163.453,124.842 163.479,124.816 163.506,124.789 163.532,124.763 163.559,124.709 163.586,124.683 163.612,124.63 163.639,124.603 163.639,124.55 163.692,124.55 163.692,124.497 163.745,124.497 163.771,124.444 163.798,124.417 163.825,124.391 163.851,124.338 163.878,124.311 163.904,124.258 163.931,124.231 163.957,124.205 163.984,124.178 164.01,124.152 164.037,124.125 164.037,124.072 164.09,124.072 164.117,124.019 164.143,123.993 164.17,123.939 164.196,123.913 164.223,123.886 164.249,123.86 164.276,123.807 164.303,123.78 164.329,123.754 164.356,123.727 164.382,123.674 164.409,123.647 164.435,123.621 164.462,123.594 164.488,123.541 164.515,123.515 164.541,123.488 164.568,123.462 164.595,123.408 164.621,123.382 164.648,123.355 164.674,123.329 164.701,123.302 164.727,123.276 164.754,123.223 164.78,123.196 164.807,123.143 164.834,123.116 164.86,123.09 164.887,123.063 164.913,123.037 164.94,123.01 164.966,122.957 164.993,122.93 165.019,122.904 165.046,122.877 165.073,122.824 165.099,122.771 165.126,122.745 165.152,122.718 165.179,122.692 165.205,122.665 165.205,122.612 165.259,122.612 165.285,122.559 165.312,122.532 165.338,122.506 165.365,122.453 165.391,122.426 165.418,122.399 165.418,122.346 165.471,122.346 165.498,122.293 165.524,122.267 165.551,122.24 165.577,122.187 165.604,122.161 165.63,122.134 165.657,122.107 165.683,122.054 165.71,122.028 165.737,122.001 165.763,121.975 165.79,121.922 165.816,121.895 165.843,121.868 165.869,121.842 165.896,121.815 165.923,121.789 165.949,121.736 165.976,121.683 166.002,121.656 166.029,121.629 166.055,121.603 166.082,121.576 166.108,121.55 166.108,121.497 166.161,121.497 166.188,121.444 166.215,121.417 166.241,121.391 166.268,121.337 166.268,121.284 166.321,121.284 166.347,121.231 166.374,121.205 166.4,121.178 166.427,121.152 166.454,121.125 166.48,121.072 166.507,121.045 166.533,121.019 166.56,120.966 166.586,120.939 166.613,120.913 166.64,120.886 166.666,120.833 166.693,120.806 166.719,120.78 166.746,120.753 166.772,120.727 166.799,120.674 166.825,120.647 166.852,120.621 166.879,120.567 166.905,120.541 166.932,120.514 166.958,120.488 166.985,120.461 167.011,120.408 167.038,120.382 167.064,120.355 167.091,120.328 167.118,120.302 167.144,120.249 167.171,120.222 167.197,120.169 167.224,120.143 167.25,120.116 167.277,120.09 167.303,120.063 167.33,120.036 167.357,119.983 167.383,119.957 167.41,119.93 167.436,119.877 167.463,119.824 167.516,119.797 167.542,119.771 167.569,119.718 167.596,119.691 167.622,119.665 167.622,119.612 167.675,119.612 167.702,119.559 167.728,119.532 167.755,119.479 167.781,119.452 167.808,119.426 167.834,119.399 167.834,119.346 167.888,119.346 167.914,119.293 167.941,119.266 167.967,119.213 167.994,119.187 168.02,119.16 168.047,119.134 168.074,119.081 168.1,119.054 168.127,119.027 168.153,119.001 168.18,118.948 168.206,118.921 168.233,118.895 168.259,118.868 168.286,118.842 168.313,118.815 168.339,118.762 168.366,118.735 168.392,118.682 168.419,118.656 168.445,118.629 168.472,118.603 168.498,118.576 168.525,118.549 168.552,118.496 168.578,118.47 168.605,118.443 168.631,118.39 168.631,118.337 168.684,118.337 168.684,118.284 168.737,118.284 168.764,118.231 168.791,118.204 168.817,118.178 168.844,118.151 168.87,118.098 168.897,118.072 168.923,118.019 168.95,117.992 168.976,117.965 169.003,117.939 169.03,117.912 169.056,117.886 169.083,117.833 169.109,117.806 169.136,117.78 169.162,117.726 169.189,117.7 169.215,117.673 169.242,117.647 169.268,117.594 169.295,117.567 169.322,117.541 169.348,117.488 169.375,117.461 169.401,117.434 169.428,117.408 169.454,117.381 169.481,117.355 169.508,117.302 169.534,117.275 169.561,117.222 169.587,117.195 169.614,117.169 169.64,117.142 169.667,117.116 169.694,117.089 169.72,117.063 169.747,117.01 169.773,116.983 169.8,116.957 169.8,116.877 169.853,116.877 169.879,116.85 169.906,116.824 169.933,116.771 169.959,116.744 169.986,116.718 170.012,116.691 170.039,116.664 170.065,116.611 170.092,116.585 170.118,116.532 170.145,116.505 170.172,116.479 170.198,116.425 170.225,116.399 170.251,116.372 170.278,116.346 170.304,116.293 170.331,116.266 170.357,116.213 170.384,116.187 170.411,116.107 170.437,116.08 170.464,116.027 170.49,115.974 170.517,115.948 170.543,115.894 170.57,115.868 170.596,115.788 170.623,115.762 170.649,115.682 170.676,115.629 170.703,115.523 170.729,115.47 170.756,115.39 170.782,115.337 170.809,115.257 170.835,115.177 170.862,115.071 170.888,114.992 170.915,114.859 170.942,114.753 170.968,114.54 170.968,113.531 170.942,113.319 170.915,113.213 170.888,113.054 170.862,112.974 170.835,112.841 170.809,112.761 170.782,112.629 170.756,112.549 170.729,112.443 170.703,112.31 170.676,112.124 170.649,112.045 170.623,111.885 170.596,111.832 170.57,111.673 170.543,111.593 170.517,111.46 170.49,111.381 170.464,111.275 170.437,111.168 170.411,111.089 170.384,110.876 170.357,110.744 170.331,110.664 170.304,110.505 170.278,110.425 170.251,110.292 170.225,110.213 170.198,110.106 170.172,110 170.145,109.92 170.118,109.788 170.092,109.602 170.065,109.496 170.039,109.363 170.012,109.257 169.986,109.15 169.959,109.044 169.933,108.938 169.906,108.832 169.879,108.752 169.853,108.619 169.826,108.54 169.8,108.354 169.773,108.195 169.747,108.115 169.72,107.982 169.694,107.876 169.667,107.796 169.64,107.664 169.614,107.584 169.587,107.451 169.561,107.372 169.534,107.239 169.508,107.053 169.481,106.947 169.454,106.814 169.428,106.734 169.401,106.628 169.375,106.522 169.348,106.416 169.322,106.283 169.295,106.203 169.268,106.071 169.242,105.991 169.215,105.805 169.189,105.672 169.162,105.566 169.136,105.46 169.109,105.354 169.083,105.274 169.056,105.115 169.03,105.035 169.003,104.902 168.976,104.823 168.95,104.69 168.923,104.584 168.897,104.398 168.87,104.292 168.844,104.185 168.817,104.106 168.791,103.947 168.764,103.893 168.737,103.734 168.711,103.654 168.684,103.522 168.658,103.442 168.631,103.309 168.605,103.15 168.578,103.017 168.552,102.938 168.525,102.805 168.498,102.725 168.472,102.592 168.445,102.513 168.419,102.353 168.392,102.274 168.366,102.141 168.339,102.061 168.313,101.876 168.286,101.796 168.259,101.637 168.233,101.557 168.206,101.424 168.18,101.345 168.153,101.212 168.127,101.106 168.1,100.973 168.074,100.893 168.047,100.76 168.02,100.628 167.994,100.468 167.967,100.389 167.941,100.256 167.914,100.176 167.888,100.043 167.861,99.9638 167.834,99.8311 167.808,99.7248 167.781,99.5921 167.755,99.5124 167.728,99.3266 167.702,99.2469 167.675,99.0876 167.649,99.0079 167.622,98.8752 167.596,98.7955 167.569,98.6628 167.542,98.5831 167.516,98.4504 167.489,98.3442 167.463,98.2645 167.436,98.0787 167.41,97.9459 167.383,97.8397 167.357,97.7069 167.33,97.6273 167.303,97.4945 167.277,97.4149 167.25,97.2821 167.224,97.2025 167.197,97.1228 167.171,96.9901 167.144,96.8042 167.118,96.698 167.091,96.5387 167.064,96.4856 167.038,96.3263 167.011,96.2467 166.985,96.1139 166.958,96.0342 166.932,95.9281 166.905,95.8218 166.879,95.7422 166.852,95.5563 166.825,95.397 166.799,95.3174 166.772,95.1581 166.746,95.0784 166.719,94.9722 166.693,94.866 166.666,94.7598 166.64,94.6536 166.613,94.5739 166.586,94.4412 166.56,94.3084 166.533,94.1491 166.507,94.0164 166.48,93.9367 166.454,93.8039 166.427,93.6978 166.4,93.5915 166.374,93.4854 166.347,93.4057 166.321,93.2729 166.294,93.1933 166.268,93.0605 166.241,92.8481 166.215,92.7685 166.188,92.6357 166.161,92.5561 166.135,92.4499 166.108,92.3171 166.082,92.2375 166.055,92.1047 166.029,92.0251 166.002,91.8923 165.976,91.8126 165.949,91.6002 165.923,91.494 165.896,91.3878 165.869,91.2816 165.843,91.1754 165.816,91.0958 165.79,90.9365 165.763,90.8568 165.737,90.7241 165.71,90.6444 165.683,90.5116 165.657,90.3789 165.63,90.2992 165.604,90.2196 165.577,90.1399 165.551,90.0868 165.524,90.0072 165.498,89.9541 165.471,89.901 165.444,89.8479 165.418,89.7948 165.391,89.7417 165.365,89.662 165.338,89.6089 165.312,89.5558 165.285,89.5292 165.259,89.4761 165.232,89.4231 165.205,89.3965 165.179,89.3699 165.152,89.3168 165.126,89.2903 165.099,89.2372 165.073,89.2106 165.046,89.1575 165.019,89.1044 164.993,89.0779 164.966,89.0513 164.94,89.0248 164.913,88.9982 164.887,88.9451 164.86,88.9186 164.834,88.892 164.807,88.8655 164.78,88.8389 164.754,88.8124 164.727,88.7858 164.701,88.7593 164.674,88.7062 164.621,88.7062 164.621,88.6531 164.595,88.6265 164.541,88.6 164.515,88.5734 164.488,88.5469 164.462,88.5203 164.435,88.4938 164.409,88.4672 164.356,88.4672 164.356,88.4141 164.303,88.3875 164.276,88.361 164.249,88.3345 164.196,88.3079 164.17,88.2814 164.143,88.2548 164.117,88.2282 164.064,88.2017 164.01,88.1751 163.984,88.1486 163.904,88.1221 163.878,88.0955 163.851,88.0689 163.825,88.0424 163.771,88.0158 163.718,87.9893 163.665,87.9627 163.612,87.9362 163.559,87.9096 163.506,87.8831 163.426,87.8565 163.373,87.83 163.32,87.8034 163.293,87.7769 163.214,87.7503 163.161,87.7238 163.134,87.6972 163.054,87.6707 163.028,87.6441 162.948,87.6176 162.895,87.591 162.815,87.5645 162.736,87.5379 162.709,87.5114 162.656,87.4848 162.63,87.4583 162.576,87.4317 162.497,87.4052 162.47,87.3786 162.39,87.3521 162.364,87.3255 162.284,87.299 162.205,87.2724 162.152,87.2459 162.098,87.2193 162.045,87.1928 162.019,87.1662 161.939,87.1397 161.912,87.1131 161.833,87.0865 161.806,87.06 161.726,87.0335 161.673,87.0069 161.594,86.9804 161.541,86.9538 161.488,86.9272 161.461,86.9007 161.381,86.8741 161.355,86.8476 161.275,86.821 161.222,86.7945 161.169,86.768 161.142,86.7414 161.063,86.7148 160.983,86.6883 160.93,86.6617 160.877,86.6352 160.824,86.6086 160.797,86.5821 160.717,86.5555 160.664,86.529 160.611,86.5024 160.585,86.4759 160.505,86.4493 160.452,86.4228 160.372,86.3962 160.319,86.3697 160.266,86.3431 160.239,86.3166 160.16,86.29 160.107,86.2635 160.054,86.2369 160,86.2104 159.947,86.1838 159.894,86.1573 159.841,86.1307 159.788,86.1042 159.708,86.0776 159.682,86.0511 159.602,86.0245 159.576,85.998 159.496,85.9714 159.443,85.9449 159.39,85.9183 159.363,85.8918 159.283,85.8652 159.23,85.8387 159.177,85.8121 159.098,85.7855 159.044,85.759 158.991,85.7325 158.938,85.7059 158.885,85.6794 158.832,85.6528 158.779,85.6262 158.726,85.5997 158.673,85.5731 158.619,85.5466 158.566,85.52 158.487,85.4935 158.434,85.467 158.381,85.4404 158.327,85.4138 158.274,85.3873 158.221,85.3607 158.168,85.3342 158.115,85.3076 158.062,85.2811 158.009,85.2545 157.956,85.228 157.876,85.2014 157.823,85.1749 157.77,85.1483 157.69,85.1218 157.663,85.0952 157.61,85.0687 157.557,85.0421 157.504,85.0156 157.451,84.989 157.398,84.9625 157.345,84.9359 157.238,84.9094 157.212,84.8828 157.132,84.8563 157.106,84.8297 157.053,84.8032 157,84.7766 156.946,84.7501 156.893,84.7235 156.84,84.697 156.787,84.6704 156.734,84.6439 156.654,84.6173 156.575,84.5908 156.548,84.5642 156.495,84.5377 156.442,84.5111 156.389,84.4845 156.336,84.458 156.283,84.4315 156.229,84.4049 156.176,84.3784 156.123,84.3518 156.043,84.3252 155.99,84.2987 155.911,84.2721 155.884,84.2456 155.831,84.219 155.778,84.1925 155.725,84.166 155.672,84.1394 155.619,84.1128 155.565,84.0863 155.512,84.0597 155.433,84.0332 155.353,84.0066 155.3,83.9801 155.273,83.9535 155.22,83.927 155.167,83.9004 155.114,83.8739 155.061,83.8473 155.008,83.8208 154.955,83.7942 154.902,83.7677 154.848,83.7411 154.742,83.7146 154.716,83.688 154.663,83.6615 154.61,83.6349 154.556,83.6084 154.503,83.5818 154.424,83.5553 154.397,83.5287 154.344,83.5022 154.291,83.4756 154.211,83.4491 154.158,83.4225 154.105,83.396 154.052,83.3694 153.999,83.3429 153.946,83.3163 153.866,83.2898 153.839,83.2632 153.786,83.2367 153.733,83.2101 153.653,83.1835 153.627,83.157 153.521,83.1305 153.494,83.1039 153.441,83.0774 153.388,83.0508 153.308,83.0242 153.282,82.9977 153.229,82.9711 153.175,82.9446 153.096,82.918 153.069,82.8915 152.989,82.865 152.936,82.8384 152.883,82.8118 152.83,82.7853 152.75,82.7587 152.724,82.7322 152.644,82.7056 152.618,82.6791 152.565,82.6525 152.512,82.626 152.458,82.5994 152.379,82.5729 152.299,82.5463 152.273,82.5198 152.193,82.4932 152.166,82.4667 152.087,82.4401 152.06,82.4136 151.98,82.387 151.954,82.3605 151.874,82.3339 151.848,82.3074 151.768,82.2808 151.715,82.2543 151.635,82.2277 151.609,82.2012 151.529,82.1746 151.502,82.1481 151.449,82.1215 151.396,82.095 151.343,82.0684 151.29,82.0419 151.237,82.0153 151.157,81.9888 151.077,81.9622 151.051,81.9357 150.971,81.9091 150.945,81.8825 150.865,81.856 150.839,81.8295 150.759,81.8029 150.732,81.7764 150.679,81.7498 150.599,81.7232 150.573,81.6967 150.493,81.6701 150.414,81.6436 150.36,81.617 150.307,81.5905 150.281,81.564 150.228,81.5374 150.174,81.5108 150.121,81.4843 150.042,81.4577 150.015,81.4312 149.935,81.4046 149.882,81.3781 149.803,81.3515 149.723,81.325 149.696,81.2984 149.643,81.2719 149.617,81.2453 149.564,81.2188 149.484,81.1922 149.458,81.1657 149.378,81.1391 149.351,81.1126 149.272,81.086 149.192,81.0595 149.139,81.0329 149.086,81.0064 149.033,80.9798 149.006,80.9533 148.926,80.9267 148.9,80.9002 148.82,80.8736 148.794,80.8471 148.714,80.8205 148.661,80.794 148.581,80.7674 148.528,80.7409 148.475,80.7143 148.448,80.6878 148.369,80.6612 148.342,80.6347 148.262,80.6081 148.209,80.5815 148.156,80.555 148.13,80.5284 148.05,80.5019 147.97,80.4754 147.917,80.4488 147.891,80.4222 147.811,80.3957 147.785,80.3691 147.705,80.3426 147.652,80.316 147.599,80.2895 147.572,80.263 147.492,80.2364 147.439,80.2098 147.36,80.1833 147.306,80.1567 147.253,80.1302 147.227,80.1036 147.147,80.0771 147.094,80.0505 147.041,80.024 147.014,79.9974 146.935,79.9709 146.882,79.9443 146.828,79.9178 146.749,79.8912 146.696,79.8647 146.669,79.8381 146.589,79.8116 146.563,79.785 146.483,79.7585 146.43,79.7319 146.377,79.7054 146.35,79.6788 146.271,79.6523 146.218,79.6257 146.138,79.5992 146.085,79.5726 146.032,79.5461 145.979,79.5195 145.926,79.493 145.872,79.4664 145.819,79.4399 145.766,79.4133 145.713,79.3868 145.66,79.3602 145.607,79.3337 145.554,79.3071 145.474,79.2805 145.421,79.254 145.368,79.2274 145.315,79.2009 145.262,79.1744 145.208,79.1478 145.155,79.1213 145.102,79.0947 145.049,79.0681 144.996,79.0416 144.943,79.015 144.863,78.9885 144.81,78.962 144.757,78.9354 144.704,78.9088 144.651,78.8823 144.598,78.8557 144.545,78.8292 144.492,78.8026 144.438,78.7761 144.385,78.7495 144.332,78.723 144.226,78.6964 144.199,78.6699 144.12,78.6433 144.093,78.6168 144.04,78.5902 143.987,78.5637 143.934,78.5371 143.881,78.5106 143.828,78.484 143.774,78.4575 143.721,78.4309 143.642,78.4044 143.562,78.3778 143.535,78.3513 143.482,78.3247 143.429,78.2982 143.376,78.2716 143.323,78.2451 143.27,78.2185 143.217,78.192 143.164,78.1654 143.111,78.1389 143.004,78.1123 142.978,78.0858 142.898,78.0592 142.872,78.0327 142.818,78.0061 142.765,77.9795 142.712,77.953 142.659,77.9264 142.606,77.8999 142.553,77.8734 142.5,77.8468 142.393,77.8203 142.314,77.7937 142.287,77.7671 142.234,77.7406 142.128,77.714 142.075,77.6875 141.969,77.661 141.916,77.6344 141.783,77.6078 141.703,77.5813 141.544,77.5547 140.11,77.5547 "/>
   <path id="_241902272" class="fil2" d="M116.767 93.5915l-0.2921 1.4869 -0.0291 0.0055 -1.3997 6.0699 -0.3732 1.7603 -0.057 0.0765c0,0.3126 -0.2338,0.9815 -0.2902,1.3029 -0.0801,0.4555 -0.2004,0.8546 -0.3054,1.3143 -0.2003,0.8776 -0.4321,1.7814 -0.6016,2.6378 -0.1719,0.8685 -0.4641,1.7714 -0.6022,2.6105 -0.1325,0.8051 -0.5376,1.843 -0.5376,2.7018l0 0.0266c0,1.5615 0.7752,2.4217 1.5073,3.2722 0.3656,0.4248 0.7154,0.8844 1.0639,1.3259 0.3579,0.4532 0.7285,0.8753 1.0777,1.3386 0.6816,0.9042 1.442,1.7704 2.1452,2.661 0.6931,0.878 1.414,1.8231 2.1398,2.6664 0.3676,0.427 0.7138,0.8822 1.064,1.3258 0.3501,0.4435 0.7351,0.8742 1.067,1.3228 0.3271,0.4421 0.7197,0.882 1.067,1.3228 0.3229,0.41 0.7308,0.9719 1.0776,1.3388 0.3661,0.3874 0.704,0.9113 1.0622,1.3275 0.3773,0.4383 0.7054,0.8947 1.0761,1.3404 0.4476,0.5383 0.6365,0.7563 1.2465,1.1433 0.4315,0.2737 1.1837,0.5367 1.8798,0.5367l22.044 0.0175 0.9538 -0.1237c0.0682,-0.0457 0.2972,-0.1048 0.4084,-0.1493 0.1795,-0.0718 0.2521,-0.1131 0.4063,-0.1779 0.2885,-0.1211 0.481,-0.279 0.715,-0.4534 0.3373,-0.2514 0.8443,-0.89 1.0994,-1.2373 0.6407,-0.872 1.4318,-1.7049 2.0714,-2.5754 0.6418,-0.8735 1.4335,-1.7051 2.0716,-2.5753 0.6338,-0.8644 1.3919,-1.7261 2.0664,-2.5804 1.3678,-1.7326 2.7739,-3.4171 4.1428,-5.1509 0.3392,-0.4296 0.6789,-0.8594 1.0335,-1.2766 0.3541,-0.4166 0.6744,-0.9031 1.0358,-1.301 0.3249,-0.3575 0.7429,-0.8915 1.0111,-1.299 0.2349,-0.3571 0.5626,-1.1994 0.5626,-1.774l0 -0.6372c0,-0.0038 -0.1346,-0.5548 -0.1489,-0.6212 -0.0457,-0.213 -0.107,-0.456 -0.138,-0.632 -0.053,-0.3016 -0.2049,-1.0116 -0.2975,-1.2691 -0.0406,-0.1129 -0.1053,-0.4765 -0.1432,-0.6267 -0.0529,-0.2094 -0.093,-0.4185 -0.1526,-0.6175 -0.1082,-0.3616 -0.1865,-0.8933 -0.2774,-1.2892 -0.102,-0.4447 -0.1977,-0.7956 -0.2863,-1.2536 -0.0457,-0.2363 -0.1097,-0.3593 -0.1494,-0.6207 -0.022,-0.1446 -0.0972,-0.4854 -0.1435,-0.653 -0.1163,-0.4207 -0.5736,-2.1793 -0.5698,-2.5362l-0.0376 -0.081 -0.3342 -1.5386 -0.0356 -0.0814 -0.6587 -2.7564c0,-0.3256 -0.2105,-0.7559 -0.2388,-1.1419 -0.005,-0.0681 -0.1082,-0.4436 -0.1311,-0.5591 -0.0429,-0.2165 -0.1038,-0.3486 -0.146,-0.571 -0.0567,-0.2989 -0.1616,-0.8866 -0.2549,-1.1258 -0.0984,-0.2519 -0.1763,-0.8303 -0.2686,-1.1386 -0.101,-0.3374 -0.1493,-0.7657 -0.2517,-1.1291 -0.0946,-0.3364 -0.1918,-0.807 -0.266,-1.1412 -0.2169,-0.9759 -0.3666,-1.259 -0.891,-1.9236 -0.4401,-0.5578 -0.9671,-0.8368 -1.6421,-1.1461 -0.1408,-0.0645 -0.3109,-0.158 -0.4664,-0.224 -0.0818,-0.0347 -0.4071,-0.1835 -0.4685,-0.222 -0.28,-0.1754 -0.6571,-0.2897 -0.9491,-0.4583 -0.2693,-0.1554 -0.6419,-0.2924 -0.9394,-0.4414 -0.3174,-0.1589 -0.6312,-0.3143 -0.9419,-0.4654 -0.6376,-0.31 -1.2716,-0.6139 -1.9128,-0.902 -0.6086,-0.2735 -1.2705,-0.5996 -1.8809,-0.9073 -0.6307,-0.318 -1.2546,-0.5868 -1.8856,-0.9028 -0.6305,-0.3157 -1.2552,-0.5925 -1.8849,-0.9033 -0.3055,-0.1508 -0.6548,-0.324 -0.957,-0.4503 -0.2827,-0.1182 -0.6961,-0.37 -0.9593,-0.4481 -0.1707,-0.0507 -0.7171,-0.3463 -0.9353,-0.4456 -0.301,-0.137 -0.6565,-0.3003 -0.9557,-0.4517 -0.6251,-0.3164 -1.2671,-0.5928 -1.9029,-0.9119 -0.6312,-0.3168 -1.2522,-0.5861 -1.8855,-0.9027 -0.6444,-0.3223 -1.2268,-0.6283 -2.1866,-0.6283l-0.0531 0c-0.8604,0 -1.2712,0.2833 -1.8694,0.5205 -0.2256,0.0895 -0.615,0.268 -0.8068,0.3882 -0.2036,0.1275 -0.6001,0.2644 -0.8389,0.3826 -1.081,0.5347 -2.1674,1.0184 -3.2478,1.5586 -2.1524,1.0763 -4.3482,2.0376 -6.4976,3.1151 -1.0845,0.5437 -2.1635,1.0244 -3.2482,1.5583 -0.5439,0.2677 -1.0788,0.5131 -1.6252,0.7646 -0.2024,0.0932 -0.6174,0.3311 -0.8057,0.3894 -0.1037,0.032 -0.729,0.3307 -0.8288,0.3926 -0.1925,0.1195 -0.5892,0.285 -0.8087,0.3863 -0.1843,0.0849 -0.6553,0.3442 -0.806,0.3889 -0.4506,0.1338 -1.0697,0.7295 -1.3556,1.0609 -0.3275,0.3797 -0.6667,1.0459 -0.7659,1.6504 -0.0331,0.2017 -0.4232,1.862 -0.4757,1.9404z"/>
   <path id="_243726104" class="fil12" d="M139.632 87.4848l0 0.4248c0,0.4945 0.1189,0.8957 0.1803,1.3067 0.0593,0.3978 0.1118,0.9875 0.1118,1.4015l0 0.5842c0,0.3597 -0.2629,0.5146 -0.3984,0.7168 0,0.4872 0.1112,0.4666 -0.2711,0.5254 -0.2512,0.0387 -0.4747,0.0242 -0.723,0.0737 -0.2311,0.046 -0.4803,0.0616 -0.6845,0.1122 -0.16,0.0397 -0.5356,0.1384 -0.6881,0.1345l-0.0764 0.057c-0.3951,0 -1.8686,0.5694 -2.2345,0.7131 -0.6424,0.2522 -1.3963,0.6442 -1.9561,0.9915 -0.5269,0.3268 -1.3103,0.8054 -1.738,1.2095 -0.2558,0.2417 -0.5405,0.4338 -0.7968,0.6902 -0.144,0.1441 -0.636,0.6381 -0.7679,0.7296l-0.4208 -0.3008 -0.3184 0.0292 -0.0531 0c-0.9272,0 -2.6562,-2.8941 -3.7179,-2.8941l-0.1859 0c-0.2625,0 -0.5464,0.1561 -0.7065,0.276 -0.1173,0.088 -0.3823,0.4712 -0.3823,0.6267l0 0.4249c0,0.0163 0.1182,0.3432 0.1326,0.3719 0.0641,0.1286 0.1102,0.1924 0.1966,0.3079 0.0824,0.1102 0.4268,0.373 0.5523,0.4567 0.3911,0.2609 0.8606,0.5086 1.2688,0.7494 0.323,0.1906 0.9328,0.5804 1.1897,0.8284 0.2359,0.2278 0.3073,0.2352 0.3992,0.6098 0.1234,0.5034 0.1903,0.287 0.4036,0.6054 -0.1174,0.2218 -0.3452,0.5872 -0.494,0.8071 -0.1766,0.2611 -0.3036,0.5956 -0.4616,0.8661 -0.3271,0.5594 -0.5064,1.2598 -0.7886,1.8666 -0.0614,0.1318 -0.2699,0.8605 -0.2943,1.0068 -0.0612,0.3673 -0.1842,0.6816 -0.2483,1.0793 -0.1242,0.7718 -0.2626,1.4749 -0.2626,2.3925l-0.0253 0.7985 0.158 1.8832c-0.2758,0.0229 -0.4849,0.1512 -0.63,0.3259 -0.2144,0.258 -0.2219,0.2963 -0.5919,0.3906 -0.507,0.1292 -1.1011,0.2425 -1.6989,0.2662 -0.4718,0.0188 -1.3661,0.0791 -1.7349,0.2037 -0.2599,0.0878 -0.4506,0.1876 -0.6228,0.3597 -0.0984,0.0984 -0.3514,0.4652 -0.3514,0.6311l0 0.4248c0,0.2011 0.2693,0.5331 0.3913,0.6443 0.1553,0.1414 0.4624,0.285 0.7506,0.285l0.1063 0c0.4839,0 1.6861,-0.4239 1.9651,-0.6107 0.1904,0 0.6764,-0.2401 0.9043,-0.2907 0.2675,-0.0594 0.6813,-0.2138 0.9812,-0.2138 0.3003,0 0.5597,0.239 0.6374,0.239 0.1764,0 0.3394,-0.0797 0.3718,-0.0797l0.1561 0.0005 0.0298 0.2385c0.0515,0.0769 0.2315,0.5438 0.2697,0.6596 0.0807,0.2451 0.1771,0.4481 0.2882,0.6677 0.2202,0.4349 0.3747,0.838 0.6268,1.2584 0.2313,0.3856 0.4614,0.8168 0.7227,1.1626 0.274,0.3623 0.543,0.7111 0.8119,1.0734 0.5324,0.7173 1.247,1.2834 1.8681,1.9025 0.2583,0.2576 0.7425,0.6063 1.0531,0.8322 0.1083,0.0788 1.1313,0.7414 1.1313,0.7541 0,0.1189 -0.1859,0.3884 -0.1859,0.4779 0,0.1314 0.1062,0.2928 0.1062,0.4514l0 0.1858c0,0.2639 -0.8282,1.577 -0.9931,1.848 -0.1768,0.2904 -0.3904,0.5465 -0.5791,0.8282 -0.0893,0.1333 -0.446,0.8239 -0.446,0.9878l0 0.239c0,0.6001 0.4917,1.1682 1.0888,1.1682 1.2619,0 1.4634,-1.4282 1.7964,-2.399 0.169,-0.4927 0.3484,-1.0946 0.5755,-1.5221 0.1262,-0.2373 0.2362,-0.4431 0.4923,-0.5433 0.2186,-0.0855 0.2133,-0.006 0.3276,-0.2035 0.0741,-0.1279 0.1426,-0.1862 0.1809,-0.3502 0.2257,0.005 0.9204,0.2957 1.1957,0.371 0.3327,0.0911 0.921,0.2748 1.249,0.3178 0.4319,0.0566 0.9093,0.137 1.3557,0.2111 0.3721,0.0617 1.094,0.0825 1.5108,0.0825l0.7967 0c0.8496,0 1.87,-0.1754 2.6002,-0.321 0.4354,-0.0867 0.7802,-0.205 1.1729,-0.2876 0.2689,-0.0566 0.9277,-0.3425 1.1398,-0.3473 0.0301,0.1293 0.1079,0.2181 0.1678,0.3368 0.0854,0.1693 0.1558,0.1088 0.3243,0.1802 0.247,0.1046 0.3642,0.3202 0.4816,0.554 0.2346,0.4671 0.3995,0.9413 0.5764,1.4681 0.1633,0.4864 0.3063,1.1088 0.5219,1.5227 0.2107,0.4041 0.566,0.9033 1.1679,0.9033l0.1328 0c0.5863,0 1.0622,-0.5721 1.0622,-1.1682 0,-0.7488 -0.6612,-1.5096 -0.9826,-1.9914 -0.1895,-0.2841 -1.0356,-1.6265 -1.0356,-1.9648l0 -0.1327c0,-0.0928 0.1327,-0.3692 0.1327,-0.3717 0,-0.0013 -0.1637,-0.4092 -0.1859,-0.5045 0.3864,-0.2587 0.7625,-0.4954 1.1529,-0.759 0.3865,-0.261 0.7207,-0.5725 1.0828,-0.8556 0.673,-0.5262 1.3252,-1.3105 1.8871,-1.9633 0.4878,-0.5668 1.1961,-1.6084 1.5428,-2.3074 0.2231,-0.4499 0.4162,-0.8351 0.6327,-1.3056 0.1033,-0.2244 0.172,-0.4561 0.2792,-0.6767 0.1002,-0.2061 0.1438,-0.539 0.2482,-0.7398l0.2649 0.0314c0.0479,0.0321 0.0467,0.0531 0.1062,0.0531l0.1328 0c0.0736,0 0.2619,-0.2389 0.5842,-0.2389 0.4583,0 1.4953,0.3575 1.8503,0.5131 0.1383,0.0607 0.3043,0.0763 0.4423,0.1419 0.1407,0.067 0.2675,0.1482 0.4157,0.1951 0.1716,0.0542 0.7566,0.265 0.9299,0.265l0.2391 0c0.357,0 0.6235,-0.0981 0.8284,-0.2603 0.1436,-0.1138 0.4197,-0.4671 0.4197,-0.6955l0 -0.3452c0,-0.4627 -0.5226,-0.8744 -0.8943,-1.0176 -0.5587,-0.2152 -1.0823,-0.1044 -1.6976,-0.2143 -0.1876,-0.0336 -0.6946,-0.0936 -0.8609,-0.0952 -0.1931,-0.0018 -0.6225,-0.1226 -0.8022,-0.1537 -0.3244,-0.0563 -0.4757,-0.1073 -0.6563,-0.2997 -0.0819,-0.0873 -0.134,-0.1881 -0.208,-0.27 -0.0796,-0.0881 -0.2423,-0.0803 -0.3513,-0.1532 -0.0617,0 -0.1651,0.011 -0.1414,-0.0515l0.1149 -1.515 0 -0.9293c0,-0.614 -0.0972,-1.9975 -0.2489,-2.4329 -0.0621,-0.1783 -0.0694,-0.356 -0.102,-0.5617 -0.0281,-0.177 -0.1037,-0.3597 -0.1481,-0.5423 -0.0917,-0.3763 -0.2097,-0.69 -0.3129,-1.0413 -0.1799,-0.6122 -0.5131,-1.3732 -0.7811,-1.9007 -0.1518,-0.2984 -0.3162,-0.5914 -0.4777,-0.8766 -0.0533,-0.0941 -0.5053,-0.8352 -0.5053,-0.8488 0,-0.0718 0.3311,-0.3267 0.3983,-0.3717 0,-0.6283 0.3483,-0.8484 0.728,-1.1042 0.3792,-0.2554 0.7381,-0.4815 1.1204,-0.7384 0.6221,-0.4181 1.8961,-0.8568 1.8961,-1.8214l0 -0.2921c0,-0.4879 -0.5499,-0.9293 -1.0888,-0.9293l-0.2125 0c-0.6877,0 -1.5396,1.1278 -1.9452,1.5334 -0.2557,0.2557 -0.5989,0.637 -0.8804,0.8456 -0.5184,0.3843 -0.3689,0.4885 -1.2641,0.4885 -0.069,0.0462 -0.3544,0.2921 -0.4249,0.2921 -0.0577,0 -0.8687,-0.8041 -0.9755,-0.9098 -0.2803,-0.2774 -0.7236,-0.5934 -1.0472,-0.8382 -0.6849,-0.5181 -1.5372,-1.0411 -2.3325,-1.4382 -0.7903,-0.3945 -1.7988,-0.7892 -2.7302,-1.0405 -0.4809,-0.1298 -1.0004,-0.2494 -1.5339,-0.3516 -0.2767,-0.053 -0.5682,-0.0674 -0.8326,-0.1233 -0.5105,-0.108 -0.427,0.1721 -0.427,-0.529 -0.2591,-0.3867 -0.4249,-0.2516 -0.4249,-1.0089 0,-0.2941 0.0456,-0.5188 0.054,-0.7691 0.0057,-0.1704 0.0319,-0.6128 0.0625,-0.7871 0.0861,-0.4906 0.2022,-0.9465 0.2022,-1.4972l0 -0.2124c0,-0.6611 -0.5223,-1.301 -1.1685,-1.301l-0.0266 0c-0.3511,0 -0.6373,0.1719 -0.8171,0.3514 -0.1264,0.1263 -0.3779,0.5668 -0.3779,0.7903z"/>
   <path id="_243712808" class="fil2" d="M132.223 98.9814c0,0.0908 2.4651,1.7701 2.7425,1.9841 0.429,0.3311 0.9303,0.6718 1.3846,0.9787 0.333,0.2248 1.0493,0.8606 1.5028,0.8606l0.1859 0c0.226,0 0.5284,-0.21 0.6444,-0.3381 0.2531,-0.2797 0.175,-0.4934 0.2957,-0.6983l0.3346 -5.8669 0 -0.3186c-0.6609,0.055 -1.5826,0.2716 -2.1413,0.4612 -0.3439,0.1166 -0.6538,0.2059 -0.9696,0.3315 -0.3314,0.1319 -0.5946,0.276 -0.9155,0.4122 -0.444,0.1885 -1.2697,0.7079 -1.6373,0.9916 -0.1792,0.1383 -1.4268,1.0839 -1.4268,1.202z"/>
   <path id="_242107312" class="fil2" d="M145.023 111.806l0 0.3186c0,0.2034 1.0585,2.6226 1.2135,3.0083 0.2073,0.5153 0.424,0.9975 0.6229,1.5013 0.0916,0.2321 0.5945,1.3701 0.6068,1.5174 0.1991,-0.0165 1.4221,-1.0076 1.6001,-1.1881 0.5099,-0.5171 0.8774,-0.8586 1.3549,-1.4331 0.4154,-0.4997 0.8003,-1.0756 1.1294,-1.6587 0.1539,-0.2725 0.8551,-1.6379 0.8518,-1.9134l-6.2375 -1.0285 -0.2124 0c-0.4229,0 -0.9295,0.4808 -0.9295,0.8762z"/>
   <path id="_242107000" class="fil2" d="M128.531 107.265l-0.0104 0.6909 0.0679 1.1033 3.3417 -0.9445c0.2104,-0.1409 1.5894,-0.4435 1.9652,-0.5842 0.3275,-0.1226 0.6634,-0.1561 0.9407,-0.3339 0.2188,-0.1402 0.4934,-0.449 0.4934,-0.7812l0 -0.1328c0,-0.588 -0.7086,-1.1017 -1.0553,-1.4142 -0.2113,-0.1905 -0.455,-0.3717 -0.651,-0.5704 -0.1497,-0.1517 -0.4974,-0.4748 -0.6573,-0.5908 -0.4273,-0.3101 -0.868,-0.821 -1.3062,-1.1633 -0.429,-0.3352 -0.8874,-0.8816 -1.3228,-1.1732 -0.2914,0.195 -1.0572,2.1104 -1.2321,2.6181 -0.2678,0.7776 -0.5738,2.2636 -0.5738,3.2762z"/>
   <path id="_242108416" class="fil2" d="M146.324 106.177l0 0.1328c0,1.0419 1.3221,1.1407 2.1275,1.4042 0.2098,0.0686 0.4692,0.1466 0.6859,0.1904 0.1951,0.0394 0.5135,0.1747 0.6705,0.2058 0.3627,0.072 1.1438,0.3768 1.3991,0.3884l1.8794 0.5453 0.0626 -1.1145 0 -0.1593c0,-0.9118 -0.1616,-1.7253 -0.2899,-2.498 -0.0532,-0.3202 -0.183,-0.8311 -0.2866,-1.1207 -0.0678,-0.1896 -0.353,-0.9217 -0.353,-1.0543 -0.1201,-0.0804 -0.3171,-0.7035 -0.4299,-0.8712 -0.1476,-0.2194 -0.3454,-0.6135 -0.473,-0.8546 -0.2184,0.0509 -2.198,1.9898 -2.6026,2.2834 -0.4216,0.306 -0.8568,0.8311 -1.2906,1.1523 -0.1576,0.1166 -0.4963,0.4347 -0.6414,0.5801 -0.1929,0.1934 -0.458,0.419 -0.458,0.7899z"/>
   <path id="_243716120" class="fil2" d="M136.896 119.452c0.542,0.2601 2.5423,0.6373 3.3726,0.6373l0.9295 0c0.6744,0 1.3307,-0.0805 1.8961,-0.2018 0.2945,-0.0632 0.577,-0.1018 0.8601,-0.1756 0.2381,-0.062 0.5795,-0.2004 0.8023,-0.2599 -0.0339,-0.1459 -0.7354,-1.3827 -0.8602,-1.5825 -0.1583,-0.2536 -0.2857,-0.5238 -0.4319,-0.7896 -0.153,-0.2779 -0.3042,-0.5148 -0.4463,-0.8017 -0.256,-0.5168 -0.6432,-1.0653 -0.8674,-1.5754 -0.1946,-0.4425 -0.6238,-1.2247 -1.2448,-1.2247l-0.1063 0c-0.3871,0 -0.6446,0.1793 -0.813,0.4084 -0.1157,0.1573 -0.374,0.6097 -0.4535,0.7945 -0.1029,0.2394 -0.3032,0.546 -0.4338,0.7876 -0.1438,0.2661 -0.308,0.5356 -0.4499,0.7981 -0.2885,0.5338 -0.5988,1.0555 -0.8821,1.5873 -0.145,0.2723 -0.2739,0.5288 -0.4253,0.7962 -0.0739,0.1307 -0.4222,0.7122 -0.4461,0.8018z"/>
   <path id="_242107384" class="fil2" d="M129.356 111.973l-0.081 -0.0081c0.0206,0.2481 0.7153,1.6866 0.8606,1.9009 0.1889,0.2787 0.3407,0.5644 0.5309,0.8497 0.1903,0.2854 0.3798,0.5243 0.5842,0.7967 0.732,0.9755 1.8879,1.9278 2.9107,2.6125 0.0904,-0.0662 1.1362,-2.6755 1.2778,-3.0237 0.2073,-0.5097 1.1919,-2.6542 1.1919,-3.1096 0,-0.5427 -0.4474,-1.0355 -0.9826,-1.0355l-0.3183 0.0019 -5.9742 1.0152z"/>
   <path id="_242105416" class="fil2" d="M143.748 102.778c0.5172,0 1.1481,-0.5902 1.5083,-0.8285 0.4709,-0.3114 0.9269,-0.654 1.3867,-0.9766 0.9166,-0.643 1.8358,-1.3454 2.7615,-1.9652 -0.1829,-0.273 -1.1019,-0.9807 -1.4181,-1.2107 -0.2616,-0.1903 -0.5239,-0.3375 -0.7861,-0.5151 -0.2661,-0.1802 -0.5868,-0.303 -0.8551,-0.4725 -0.6102,-0.3853 -3.0614,-1.2267 -4.0312,-1.2267 0.1101,1.3231 0.1386,2.7228 0.2388,4.0625 0.0505,0.6756 0.0803,1.3281 0.1054,2.0453 0.0213,0.6113 0.4423,1.0875 1.0898,1.0875z"/>
   <path id="_242108152" class="fil2" d="M138.702 107.292l0.3984 1.8586c0.1431,0.0757 1.6975,0.823 1.7261,0.823 0.1122,0 1.3698,-0.6808 1.617,-0.7729 0.1473,-0.055 0.1347,-0.2176 0.1786,-0.4056 0.0426,-0.1824 0.0736,-0.3236 0.1058,-0.5048 0.0522,-0.2928 0.1521,-0.6671 0.2231,-0.9718 -0.1054,-0.1573 -1.1471,-1.4868 -1.2216,-1.4868l-1.8058 0c-0.0752,0 -1.1188,1.3068 -1.2216,1.4603z"/>
  </g>
 </g>
</svg>