<?xml version="1.0" encoding="utf-8"?>
<!-- Generator: Adobe Illustrator 26.0.2, SVG Export Plug-In . SVG Version: 6.00 Build 0)  -->
<svg version="1.1" id="Layer_1" xmlns="http://www.w3.org/2000/svg" xmlns:xlink="http://www.w3.org/1999/xlink" x="0px" y="0px"
	 viewBox="0 0 169.1 164.6" style="enable-background:new 0 0 169.1 164.6;" xml:space="preserve">
<style type="text/css">
	.st0{filter:url(#Adobe_OpacityMaskFilter);}
	.st1{fill-rule:evenodd;clip-rule:evenodd;fill:#FFFFFF;}
	.st2{mask:url(#mask-2_00000049219296922345946450000003159706255118513801_);fill-rule:evenodd;clip-rule:evenodd;fill:#326DE6;}
	.st3{fill-rule:evenodd;clip-rule:evenodd;fill:#1FBFCF;}
	.st4{fill-rule:evenodd;clip-rule:evenodd;fill:#C9E9EC;}
	.st5{fill-rule:evenodd;clip-rule:evenodd;fill:#326DE6;}
</style>
<desc>Created with Sketch.</desc>
<g id="Page-1">
	<g id="logo">
		<g id="outline">
			<g id="Clip-2">
			</g>
			<defs>
				<filter id="Adobe_OpacityMaskFilter" filterUnits="userSpaceOnUse" x="0" y="0" width="169.1" height="164.6">
					<feColorMatrix  type="matrix" values="1 0 0 0 0  0 1 0 0 0  0 0 1 0 0  0 0 0 1 0"/>
				</filter>
			</defs>
			
				<mask maskUnits="userSpaceOnUse" x="0" y="0" width="169.1" height="164.6" id="mask-2_00000049219296922345946450000003159706255118513801_">
				<g class="st0">
					<polygon id="path-1_00000100350177711797001680000011236571930023923135_" class="st1" points="169.1,0 0,0 0,164.6 
						169.1,164.6 					"/>
				</g>
			</mask>
			<path id="Fill-1" class="st2" d="M84.7,0L84.7,0c-2.3,0-4.6,0.5-6.8,1.5L22.6,28c-4.4,2.1-7.4,5.9-8.5,10.6L0.4,97.9
				c-1.1,4.7,0,9.5,3.1,13.3l38.3,47.5c3,3.7,7.4,5.8,12.1,5.8h61.3c4.7,0,9.2-2.1,12.1-5.8l38.3-47.5c3.1-3.7,4.2-8.6,3.1-13.3
				L155,38.6c-1.1-4.7-4.2-8.5-8.5-10.6L91.4,1.5C89.3,0.5,87,0,84.7,0 M84.7,5.1c1.5,0,3.1,0.3,4.5,1l55.3,26.3
				c2.8,1.4,5,4,5.7,7.1l13.7,59.4c0.8,3.2,0,6.4-2.1,9l-38.3,47.5c-2,2.5-5,3.9-8.2,3.9H54c-3.2,0-6.2-1.4-8.2-3.9L7.5,107.9
				c-2-2.5-2.7-5.8-2.1-9l13.7-59.4c0.8-3.2,2.8-5.8,5.7-7.1L80.1,6C81.5,5.5,83.2,5.1,84.7,5.1"/>
		</g>
		<path id="Fill-4" class="st3" d="M52.7,145.5c2,2.5,4.9,3.8,8,3.8l48.1-0.1c3.1,0,6-1.4,7.9-3.8l29.3-36.9
			c0.8-1.2,0.8-3.4,0.8-5.3V51.6l-63,36.3v0l-63-36.3v51.5c0,1.9,0.7,3.8,1.9,5.4L52.7,145.5z"/>
		<polygon id="Fill-6" class="st4" points="83.8,87.9 146.8,51.6 83.7,15.3 20.8,51.6 		"/>
		<path id="Fill-8" class="st5" d="M98.8,115.9c-1.8,1.2-4.3,0.8-5.8-1c-0.5-0.5-0.7-1.1-0.8-1.8l-1.5-26.8
			c11.3,1.3,21.7,6.4,29.6,14.3L98.8,115.9z M76.5,112.5c-0.2,2.3-2,4.3-4.4,4.3c-0.7,0-1.5-0.2-2-0.5l-21.9-15.6
			c6.7-6.7,15.1-11.3,24.5-13.5c1.8-0.3,3.5-0.7,5.3-1L76.5,112.5z M137.9,101.4l1.6-1.5v-0.3c0-0.8,0.2-1.6,0.8-2.5
			c2-1.8,4.4-3.3,7.4-5.1c0.5-0.3,1-0.5,1.5-0.8c1-0.5,1.8-1,2.8-1.6c0.2-0.2,0.5-0.3,0.8-0.7c0.2-0.2,0.3-0.2,0.3-0.3
			c2.3-2,2.8-5.3,1.1-7.4c-0.8-1.2-2.3-1.8-3.8-1.8c-1.3,0-2.5,0.5-3.6,1.3l-0.3,0.3c-0.3,0.2-0.5,0.5-0.8,0.7
			c-0.8,0.8-1.5,1.5-2.1,2.3c-0.3,0.3-0.7,0.8-1.1,1.2c-2.3,2.5-4.4,4.4-6.6,5.9c-0.5,0.3-1,0.5-1.5,0.5c-0.3,0-0.7,0-1-0.2h-0.3
			l-2,1.3c-2.1-2.3-4.4-4.3-6.7-6.2c-9.9-7.7-21.9-12.5-34.3-13.6l-0.2-2.1l-0.3-0.3c-0.5-0.5-1.2-1-1.3-2.1
			c-0.2-2.6,0.2-5.6,0.5-8.9v-0.2c0-0.5,0.2-1.2,0.3-1.6c0.2-1,0.3-2,0.5-3.1v-1V53c0-3-2.3-5.4-5.1-5.4c-1.3,0-2.6,0.7-3.6,1.6
			s-1.5,2.3-1.5,3.8v0.3v1c0,1.2,0.2,2.1,0.5,3.1c0.2,0.5,0.2,1,0.3,1.6v0.2c0.3,3.3,0.8,6.2,0.5,8.9c-0.2,1.2-0.8,1.6-1.3,2.1
			c-0.2,0.2-0.2,0.2-0.3,0.3l-0.2,2.1C76,73,73,73.3,70.1,74c-12.7,2.8-23.8,9.2-32.5,18.4l-1.6-1.2h-0.3c-0.3,0-0.7,0.2-1,0.2
			c-0.5,0-1-0.2-1.5-0.5c-2.1-1.5-4.3-3.6-6.6-6.1c-0.3-0.3-0.7-0.8-1.1-1.1c-0.7-0.8-1.3-1.5-2.1-2.3c-0.2-0.2-0.5-0.3-0.8-0.7
			c-0.2-0.2-0.3-0.2-0.3-0.3c-1-0.8-2.3-1.3-3.6-1.3c-1.5,0-3,0.7-3.8,1.8c-1.6,2.1-1.2,5.4,1.1,7.4c0.2,0,0.2,0.2,0.3,0.2
			c0.3,0.2,0.5,0.5,0.8,0.7c1,0.7,1.8,1.2,2.8,1.6c0.5,0.2,1,0.5,1.5,0.8c3,1.8,5.4,3.3,7.4,5.1c0.8,0.8,0.8,1.6,0.8,2.5v0.3
			l1.6,1.5c-0.3,0.5-0.7,0.8-0.8,1.3c-1.9,3-3.6,6.2-4.9,9.5l9.4,11.6c1.3-4.5,3.1-8.8,5.6-12.8l19.6,17.4c1.8,1.5,2,4.3,0.5,6.1
			c-0.5,0.7-1.2,1.2-2,1.3l-11.3,3.3l5.6,6.9c2,2.5,4.9,3.8,8,3.8l48.1-0.1c3.1,0,6-1.4,7.9-3.8l5.3-6.6l-11.5-3.3
			c-2.3-0.7-3.6-3-3.1-5.3c0.2-0.7,0.5-1.3,1-1.8l19.9-17.9c2.4,4,4.3,8.5,5.7,13.3l9.6-12C141.9,108.2,140.1,104.7,137.9,101.4
			L137.9,101.4z"/>
		<g id="Clip-13">
		</g>
	</g>
</g>
</svg>
