<svg width="91" height="84" viewBox="0 0 91 84" fill="none" xmlns="http://www.w3.org/2000/svg">
<path d="M90.5406 21.8729C89.5269 19.7619 88.3468 17.7268 86.9852 15.8132L72.4009 21.1439C74.0954 22.8905 75.5175 24.8496 76.6824 26.9454L90.5406 21.8729ZM26.0912 38.0625L11.5068 43.3932C11.6884 45.7472 12.0969 48.0556 12.6566 50.3337L26.5148 45.2764C26.0609 42.9072 25.8945 40.4924 26.0912 38.0625Z" fill="black"/>
<path d="M58.6629 17.7835C61.707 19.2019 64.3271 21.1184 66.5534 23.3819L81.1532 18.0853C77.1095 12.4265 71.5967 7.70333 64.8572 4.5646C43.9874 -5.1232 19.089 3.90064 9.35074 24.6947C6.20058 31.4249 5.03441 38.5625 5.57963 45.4888L20.1794 40.1922C20.4217 37.0384 21.1941 33.8845 22.6026 30.8514C28.9332 17.3459 45.1081 11.4758 58.6629 17.7835Z" fill="black"/>
<path d="M74.0852 44.4131C73.8588 47.5679 73.0589 50.7228 71.6402 53.7569C65.3468 67.2671 49.2282 73.1391 35.7207 66.8293C32.6871 65.4104 30.046 63.5084 27.8425 61.2441L13.3237 66.5274C17.3383 72.1881 22.8319 76.9128 29.5479 80.0526C50.3451 89.7437 75.1567 80.7168 84.846 59.9157C87.9852 53.1833 89.1473 46.0433 88.5889 39.1298L74.0852 44.4131Z" fill="black"/>
<path d="M77.6846 26.7145L63.862 31.7419C66.4273 36.3466 67.6496 41.6458 67.2422 46.9752L81.759 41.6911C81.3516 36.4825 79.9633 31.3947 77.6846 26.7145ZM13.8227 49.9796L0 55.007C1.26758 60.0496 3.47076 64.8355 6.5039 69.108L21.0207 63.8239C17.2934 59.9892 14.8035 55.1429 13.8227 49.9796Z" fill="black"/>
<path d="M88.4209 18.0097C87.9671 17.2675 87.4831 16.5252 86.9688 15.8132L72.3877 21.1302C73.0229 21.7816 73.6128 22.4784 74.1876 23.2055L88.4209 18.0097ZM26.0275 40.9288C25.9972 39.9594 26.0124 38.9747 26.088 37.9901L11.5068 43.3071C11.5825 44.2463 11.7035 45.1703 11.8396 46.0944L26.0275 40.9288Z" fill="black"/>
<path d="M88.5952 39.1298L74.0782 44.4465C73.9273 46.5428 73.5198 48.6543 72.8558 50.7355L88.6556 44.9326C88.7612 42.9882 88.7462 41.059 88.5952 39.1298ZM13.3237 66.7009C14.4404 68.2807 15.6779 69.7998 17.0209 71.2277L32.8207 65.4249C30.9796 64.2552 29.3046 62.9032 27.8257 61.3842L13.3237 66.7009Z" fill="black"/>
</svg>
