<svg xmlns="http://www.w3.org/2000/svg" width="62" height="65" fill="none" viewBox="0 0 62 65"><path fill="#fff" d="M61.4344 16.3906C60.753 14.7585 59.9596 13.1851 59.0442 11.7057L49.2393 15.827C50.3785 17.1773 51.3346 18.692 52.1177 20.3124L61.4344 16.3906ZM18.1057 28.9073L8.30078 33.0287C8.42283 34.8487 8.69745 36.6334 9.07378 38.3947L18.3905 34.4847C18.0853 32.653 17.9735 30.786 18.1057 28.9073Z"/><path fill="#fff" d="M40.0037 13.2289C42.0503 14.3256 43.8118 15.8072 45.3085 17.5572L55.1238 13.4622C52.4052 9.08726 48.699 5.4356 44.1681 3.00894C30.1375 -4.48104 13.3986 2.49561 6.85163 18.5722C4.7338 23.7755 3.9498 29.2939 4.31635 34.6488L14.1317 30.5539C14.2946 28.1155 14.8138 25.6772 15.7608 23.3322C20.0168 12.8906 30.891 8.35226 40.0037 13.2289Z"/><path fill="#fff" d="M50.3719 33.8172C50.2197 36.2564 49.6819 38.6955 48.7281 41.0413C44.4971 51.4865 33.6607 56.0263 24.5797 51.148C22.5403 50.051 20.7647 48.5805 19.2833 46.8299L9.52246 50.9146C12.2214 55.2911 15.9147 58.944 20.4298 61.3714C34.4116 68.8639 51.0922 61.8849 57.6062 45.8029C59.7167 40.5978 60.498 35.0777 60.1225 29.7325L50.3719 33.8172Z"/><path fill="#fff" d="M52.7921 20.1338L43.4993 24.0207C45.2239 27.5807 46.0457 31.6777 45.7718 35.7981L55.5313 31.7128C55.2574 27.6858 54.324 23.7522 52.7921 20.1338ZM9.85829 38.1209L0.56543 42.0078C1.41761 45.9063 2.89879 49.6065 4.93794 52.9097L14.6975 48.8244C12.1917 45.8596 10.5177 42.1128 9.85829 38.1209Z"/><path fill="#fff" d="M60.0094 13.4039C59.7043 12.83 59.3789 12.2561 59.0332 11.7057L49.2304 15.8164C49.6575 16.32 50.0541 16.8588 50.4405 17.4209L60.0094 13.4039ZM18.0629 31.1234C18.0425 30.3739 18.0527 29.6126 18.1036 28.8514L8.30078 32.9621C8.35163 33.6883 8.43298 34.4027 8.5245 35.1171L18.0629 31.1234Z"/><path fill="#fff" d="M60.1268 29.7325L50.3671 33.8431C50.2657 35.4638 49.9918 37.0963 49.5454 38.7053L60.1674 34.2189C60.2384 32.7156 60.2283 31.2241 60.1268 29.7325ZM9.52246 51.0488C10.2732 52.2702 11.1051 53.4446 12.008 54.5486L22.6301 50.0622C21.3924 49.1579 20.2663 48.1126 19.272 46.9382L9.52246 51.0488Z"/></svg>