<svg width="47" height="60" viewBox="0 0 47 60" fill="none" xmlns="http://www.w3.org/2000/svg">
<g clip-path="url(#clip0_28_280)">
<path d="M12.514 0.0543611C12.2167 0.0635851 11.8965 0.173386 11.5336 0.45985C10.6444 0.116874 9.78208 -0.00227921 9.01079 0.695957C7.8205 0.541501 7.43316 0.860267 7.1399 1.23233C6.87854 1.22692 5.1838 0.963615 4.4067 2.12286C2.45366 1.89181 1.83647 3.27161 2.53581 4.55836C2.13694 5.17586 1.72364 5.7859 2.65643 6.96306C2.32646 7.61871 2.53099 8.32994 3.30829 9.19069C3.10316 10.1123 3.50638 10.7626 4.22962 11.2695C4.09436 12.5307 5.38623 13.264 5.77203 13.5253C5.92015 14.2602 6.22887 14.9537 7.70451 15.3372C7.94786 16.4323 8.8347 16.6216 9.69345 16.8513C6.85508 18.5012 4.42102 20.672 4.4375 25.998L4.02174 26.7396C0.767089 28.719 -2.161 35.0807 2.41776 40.2517C2.71684 41.8702 3.21844 43.0326 3.66502 44.3193C4.33301 49.5039 8.69247 51.9316 9.84231 52.2186C11.5272 53.5021 13.3218 54.72 15.7502 55.573C18.0394 57.934 20.5194 58.8338 23.013 58.8323C23.0495 58.8323 23.0868 58.8326 23.1234 58.8323C25.6169 58.8338 28.097 57.934 30.3862 55.573C32.8146 54.72 34.6091 53.5021 36.294 52.2186C37.4439 51.9316 41.8033 49.5039 42.4713 44.3193C42.9179 43.0326 43.4195 41.8702 43.7186 40.2517C48.2974 35.0807 45.3693 28.719 42.1146 26.7396L41.6989 25.998C41.7153 20.672 39.2812 18.5012 36.4429 16.8513C37.3016 16.6216 38.1884 16.4323 38.4318 15.3372C39.9074 14.9537 40.2162 14.2602 40.3644 13.5253C40.7501 13.264 42.0419 12.5307 41.9067 11.2695C42.6299 10.7626 43.0332 10.1123 42.828 9.19069C43.6054 8.32994 43.8099 7.61871 43.4799 6.96306C44.4127 5.7859 43.9994 5.17586 43.6006 4.55836C44.2999 3.27161 43.6827 1.89181 41.7296 2.12286C40.9526 0.963615 39.2578 1.22692 38.9965 1.23233C38.7032 0.860267 38.3158 0.541501 37.1255 0.695957C36.3543 -0.00227921 35.4919 0.116874 34.6027 0.45985C33.5467 -0.373499 32.8476 0.29451 32.0493 0.547106C30.7702 0.129277 30.478 0.701575 29.8498 0.934631C28.4557 0.639962 28.0319 1.28149 27.363 1.95862L26.5854 1.94322C24.4821 3.18273 23.4373 5.7066 23.0669 7.00413C22.6963 5.70641 21.6538 3.18251 19.5509 1.94322L18.7734 1.95862C18.1044 1.28149 17.6805 0.639962 16.2865 0.934631C15.6584 0.701575 15.366 0.129277 14.0871 0.547106C13.5632 0.38134 13.0813 0.0367513 12.514 0.0543611Z" fill="black"/>
<path d="M8.32671 5.5068C13.9068 8.38371 17.1507 10.7109 18.9279 12.693C18.0178 16.3408 13.2698 16.5073 11.5338 16.4049C11.8892 16.2395 12.1859 16.0414 12.291 15.7369C11.8554 15.4272 10.3108 15.7042 9.23242 15.0983C9.64666 15.0126 9.84041 14.9289 10.0342 14.6233C9.01538 14.2982 7.91796 14.0183 7.27253 13.4799C7.62084 13.4843 7.94604 13.5579 8.40095 13.2424C7.4884 12.7506 6.51463 12.3609 5.75807 11.6092C6.22989 11.5977 6.73859 11.6045 6.88649 11.431C6.05125 10.9136 5.34657 10.3381 4.76328 9.70866C5.42356 9.78837 5.7024 9.71974 5.86201 9.60474C5.23065 8.95808 4.4316 8.41203 4.0506 7.61516C4.54085 7.78413 4.98938 7.8488 5.31264 7.60031C5.09811 7.11631 4.17888 6.83083 3.64972 5.69981C4.16581 5.74985 4.7132 5.81241 4.82267 5.69981C4.58268 4.72347 4.17164 4.17476 3.7685 3.60631C4.87307 3.5899 6.54658 3.6106 6.47076 3.51722L5.78777 2.81938C6.86669 2.52888 7.97069 2.86603 8.77214 3.11633C9.132 2.83238 8.76577 2.4733 8.32671 2.1067C9.24362 2.22911 10.0722 2.43991 10.8211 2.7303C11.2212 2.369 10.5613 2.00771 10.242 1.64642C11.6587 1.91517 12.2588 2.29279 12.8552 2.67091C13.2879 2.25611 12.88 1.90359 12.588 1.54248C13.656 1.93808 14.2063 2.44877 14.7854 2.95301C14.9818 2.68798 15.2843 2.49373 14.919 1.85428C15.6774 2.29141 16.2486 2.80652 16.6711 3.38359C17.1403 3.08483 16.9506 2.67625 16.9531 2.29972C17.7413 2.94081 18.2414 3.62306 18.8536 4.28929C18.977 4.1995 19.085 3.89495 19.1803 3.41328C21.0606 5.23741 23.7173 9.83198 19.8633 11.6537C16.585 8.94795 12.6678 6.98186 8.32671 5.5068Z" fill="#75A928"/>
<path d="M37.9351 5.5068C32.3549 8.38371 29.1111 10.7109 27.3339 12.693C28.244 16.3408 32.9919 16.5073 34.728 16.4049C34.3725 16.2395 34.076 16.0414 33.9707 15.7369C34.4064 15.4272 35.9511 15.7042 37.0293 15.0983C36.6151 15.0126 36.4214 14.9289 36.2276 14.6233C37.2464 14.2982 38.3438 14.0183 38.9893 13.4799C38.6409 13.4843 38.3158 13.5579 37.8608 13.2424C38.7734 12.7506 39.7471 12.3609 40.5037 11.6092C40.0319 11.5977 39.5231 11.6045 39.3753 11.431C40.2105 10.9136 40.9153 10.3381 41.4985 9.70866C40.8382 9.78837 40.5594 9.71974 40.3997 9.60474C41.0311 8.95808 41.8301 8.41203 42.2111 7.61516C41.7209 7.78413 41.2724 7.8488 40.9492 7.60031C41.1637 7.11631 42.0828 6.83083 42.6121 5.69981C42.096 5.74985 41.5486 5.81241 41.4391 5.69981C41.6791 4.72347 42.0901 4.17476 42.4933 3.60631C41.3887 3.5899 39.7153 3.6106 39.7911 3.51722L40.474 2.81938C39.3951 2.52888 38.2911 2.86603 37.4896 3.11633C37.1298 2.83238 37.4961 2.4733 37.9351 2.1067C37.0181 2.22911 36.1896 2.43991 35.4407 2.7303C35.0406 2.369 35.7005 2.00771 36.0197 1.64642C34.6031 1.91517 34.003 2.29279 33.4065 2.67091C32.9738 2.25611 33.3818 1.90359 33.6738 1.54248C32.6057 1.93808 32.0556 2.44877 31.4763 2.95301C31.28 2.68798 30.9774 2.49373 31.3427 1.85428C30.5844 2.29141 30.0131 2.80652 29.5907 3.38359C29.1215 3.08483 29.3111 2.67625 29.3086 2.29972C28.5205 2.94081 28.0203 3.62306 27.4081 4.28929C27.2848 4.1995 27.1768 3.89495 27.0815 3.41328C25.2011 5.23741 22.5444 9.83198 26.3985 11.6537C29.6768 8.94795 33.5939 6.98186 37.9351 5.5068Z" fill="#75A928"/>
<path d="M29.8889 42.6524C29.8889 44.287 29.1846 45.8548 27.9311 47.0107C26.6776 48.1666 24.9774 48.816 23.2047 48.816C21.432 48.816 19.7318 48.1666 18.4784 47.0107C17.2248 45.8548 16.5206 44.287 16.5206 42.6524C16.5206 41.0177 17.2248 39.45 18.4784 38.2941C19.7318 37.1382 21.432 36.4888 23.2047 36.4888C24.9774 36.4888 26.6776 37.1382 27.9311 38.2941C29.1846 39.45 29.8889 41.0177 29.8889 42.6524Z" fill="#BC1142"/>
<path d="M19.3364 25.0449C20.6664 25.9163 21.531 27.3736 21.7402 29.0965C21.9493 30.8193 21.4858 32.6664 20.4516 34.2315C19.4173 35.7965 17.8971 36.9514 16.2254 37.4419C14.5536 37.9324 12.8672 37.7185 11.5372 36.8471C10.2072 35.9757 9.34258 34.5184 9.13344 32.7956C8.92431 31.0727 9.38784 29.2256 10.4221 27.6605C11.4563 26.0955 12.9765 24.9406 14.6483 24.4501C16.32 23.9596 18.0063 24.1735 19.3364 25.0449Z" fill="#BC1142"/>
<path d="M26.8124 24.7167C25.4823 25.5881 24.6178 27.0455 24.4086 28.7683C24.1995 30.4911 24.663 32.3382 25.6972 33.9033C26.7315 35.4684 28.2517 36.6233 29.9235 37.1138C31.5952 37.6044 33.2815 37.3903 34.6116 36.5191C35.9415 35.6477 36.8062 34.1903 37.0154 32.4675C37.2245 30.7446 36.761 28.8975 35.7266 27.3324C34.6925 25.7673 33.1723 24.6125 31.5005 24.122C29.8288 23.6314 28.1424 23.8453 26.8124 24.7167Z" fill="#BC1142"/>
<path d="M5.4948 28.0112C8.48529 27.2099 6.50424 40.3821 4.07131 39.3013C1.39515 37.1485 0.533143 30.8445 5.4948 28.0112Z" fill="#BC1142"/>
<path d="M40.05 27.8477C37.0595 27.0463 39.0405 40.2185 41.4735 39.1377C44.1496 36.9851 45.0117 30.6809 40.05 27.8477Z" fill="#BC1142"/>
<path d="M29.8909 18.0392C35.0512 17.1678 39.3447 20.2337 39.1718 25.8293C39.0021 27.9745 27.9899 18.3586 29.8909 18.0392Z" fill="#BC1142"/>
<path d="M15.6334 17.8746C10.473 17.0032 6.1795 20.0691 6.35233 25.6648C6.52207 27.8099 17.5343 18.194 15.6334 17.8746Z" fill="#BC1142"/>
<path d="M23.0458 16.5689C19.9659 16.4888 17.01 18.8548 17.003 20.2271C16.9943 21.8946 19.438 23.6018 23.0668 23.6452C26.7725 23.6717 29.137 22.2786 29.1489 20.5577C29.1625 18.6081 25.7786 16.5388 23.0458 16.5689Z" fill="#BC1142"/>
<path d="M23.2338 50.7624C25.9191 50.6452 29.5222 51.6274 29.5292 52.9302C29.5739 54.1952 26.2615 57.0537 23.0557 56.9984C19.7356 57.1416 16.48 54.2788 16.5227 53.2865C16.4731 51.8316 20.5655 50.6956 23.2338 50.7624Z" fill="#BC1142"/>
<path d="M13.3156 43.0418C15.2274 45.3449 16.0989 49.3915 14.5035 50.5843C12.9941 51.4948 9.32864 51.1198 6.72333 47.3772C4.96628 44.2367 5.19273 41.0408 6.42638 40.1019C8.27125 38.9781 11.1217 40.496 13.3156 43.0418Z" fill="#BC1142"/>
<path d="M32.7693 42.3115C30.7008 44.7342 29.5491 49.1532 31.0581 50.5766C32.5008 51.6824 36.3738 51.5279 39.2348 47.5582C41.3122 44.892 40.6162 40.4394 39.4294 39.2574C37.6667 37.894 35.1363 39.6389 32.7693 42.3115Z" fill="#BC1142"/>
</g>
<defs>
<clipPath id="clip0_28_280">
<rect width="46.1539" height="60" fill="white"/>
</clipPath>
</defs>
</svg>
