<svg width="800" height="316" viewBox="0 0 800 316" fill="none" xmlns="http://www.w3.org/2000/svg">
<g clip-path="url(#clip0_27484_6188)">
<path d="M781.046 313.84C777.864 313.84 774.915 313.044 772.201 311.453C769.486 309.862 767.287 307.709 765.602 304.995C764.011 302.28 763.215 299.285 763.215 296.009V261.189H754.65V241.532H764.479L772.903 222.578H785.96V241.532H799.018V255.573L793.963 261.189H785.96V288.989C785.96 290.112 786.241 290.954 786.803 291.516C787.364 292.077 788.16 292.358 789.189 292.358H800V313.84H781.046Z" fill="#1C1C3F"/>
<path d="M696.311 313.839V294.182H722.987C724.017 294.182 724.766 293.948 725.234 293.48C725.795 292.919 726.076 292.217 726.076 291.374V290.532C726.076 289.689 725.795 289.034 725.234 288.566C724.766 288.098 723.923 287.677 722.706 287.303L710.21 283.512C707.122 282.482 704.548 281.312 702.488 280.002C700.523 278.598 698.978 276.866 697.855 274.807C696.825 272.654 696.311 270.127 696.311 267.225V259.362C696.311 256.086 697.106 253.091 698.697 250.377C700.382 247.662 702.582 245.509 705.296 243.918C708.011 242.327 710.959 241.531 714.142 241.531H746.856V255.572L741.801 261.188H722.566C721.536 261.188 720.741 261.422 720.179 261.89C719.711 262.264 719.477 262.872 719.477 263.715V264.417C719.477 265.166 719.758 265.821 720.319 266.383C720.881 266.944 721.723 267.365 722.847 267.646L735.483 271.577C738.572 272.513 741.099 273.683 743.065 275.088C745.124 276.398 746.668 278.083 747.698 280.142C748.728 282.201 749.242 284.682 749.242 287.583V296.008C749.242 299.284 748.447 302.279 746.856 304.993C745.264 307.708 743.111 309.861 740.397 311.452C737.683 313.043 734.687 313.839 731.411 313.839H696.311Z" fill="#1C1C3F"/>
<path d="M646.155 313.844C642.879 313.844 639.884 313.049 637.17 311.457C634.455 309.866 632.302 307.713 630.711 304.999C629.12 302.284 628.324 299.289 628.324 296.013V257.964C628.324 254.688 629.12 251.693 630.711 248.978C632.302 246.264 634.455 244.111 637.17 242.52C639.884 240.928 642.879 240.133 646.155 240.133H668.339C671.521 240.133 674.47 240.928 677.184 242.52C679.899 244.111 682.052 246.264 683.643 248.978C685.328 251.693 686.17 254.688 686.17 257.964V285.764H651.069V291.801C651.069 292.924 651.35 293.767 651.912 294.328C652.473 294.89 653.269 295.171 654.299 295.171H682.8V313.844H646.155ZM650.508 270.6H663.846V261.895C663.846 260.772 663.565 259.976 663.004 259.508C662.536 258.947 661.74 258.666 660.617 258.666H653.877C652.754 258.666 651.912 258.947 651.35 259.508C650.789 259.976 650.508 260.772 650.508 261.895V270.6Z" fill="#1C1C3F"/>
<path d="M581.74 232.691C581.74 229.414 582.536 226.419 584.127 223.705C585.718 220.99 587.871 218.837 590.586 217.246C593.3 215.655 596.295 214.859 599.571 214.859H625.546V234.516H607.715C606.685 234.516 605.889 234.797 605.328 235.358C604.766 235.826 604.485 236.622 604.485 237.745V248.556H619.93V262.316L617.262 268.212H604.485V313.843H581.74V232.691Z" fill="#1C1C3F"/>
<path d="M529.348 313.844V241.537H543.669L546.898 249.259H547.6C548.723 246.919 550.502 244.813 552.935 242.941C555.369 241.069 558.177 240.133 561.359 240.133H572.592V263.018H556.024C555.088 263.018 554.339 263.206 553.778 263.58C553.216 263.861 552.795 264.282 552.514 264.844C552.233 265.405 552.093 266.154 552.093 267.09V313.844H529.348Z" fill="#1C1C3F"/>
<path d="M477.509 313.844C474.233 313.844 471.238 313.049 468.523 311.457C465.809 309.866 463.656 307.713 462.065 304.999C460.473 302.284 459.678 299.289 459.678 296.013V257.964C459.678 254.688 460.473 251.693 462.065 248.978C463.656 246.264 465.809 244.111 468.523 242.52C471.238 240.928 474.233 240.133 477.509 240.133H499.693C502.875 240.133 505.823 240.928 508.538 242.52C511.252 244.111 513.405 246.264 514.996 248.978C516.681 251.693 517.524 254.688 517.524 257.964V285.764H482.423V291.801C482.423 292.924 482.704 293.767 483.265 294.328C483.827 294.89 484.623 295.171 485.652 295.171H514.154V313.844H477.509ZM481.861 270.6H495.2V261.895C495.2 260.772 494.919 259.976 494.357 259.508C493.889 258.947 493.094 258.666 491.97 258.666H485.231C484.108 258.666 483.265 258.947 482.704 259.508C482.142 259.976 481.861 260.772 481.861 261.895V270.6Z" fill="#1C1C3F"/>
<path d="M389.92 313.853V216.273H412.665V248.987H413.367C414.397 246.741 416.082 244.728 418.422 242.95C420.855 241.078 423.663 240.142 426.846 240.142H431.058C434.334 240.142 437.282 240.891 439.903 242.388C442.524 243.886 444.583 245.992 446.081 248.706C447.672 251.327 448.468 254.229 448.468 257.411V296.022C448.468 299.298 447.625 302.294 445.941 305.008C444.349 307.722 442.197 309.875 439.482 311.466C436.768 313.058 433.819 313.853 430.637 313.853H389.92ZM422.915 292.793C424.038 292.793 424.833 292.512 425.301 291.951C425.863 291.389 426.144 290.593 426.144 289.564V264.432C426.144 263.308 425.863 262.513 425.301 262.045C424.833 261.483 424.038 261.202 422.915 261.202H417.579C416.269 261.202 415.239 261.39 414.49 261.764C413.742 262.138 413.133 262.747 412.665 263.589C412.291 264.338 412.104 265.321 412.104 266.538V292.793H422.915Z" fill="#1C1C3F"/>
<path d="M336.558 315.248C333.282 315.248 330.286 314.453 327.572 312.861C324.857 311.27 322.705 309.117 321.113 306.403C319.522 303.688 318.727 300.693 318.727 297.417V257.964C318.727 254.688 319.522 251.693 321.113 248.978C322.705 246.264 324.857 244.111 327.572 242.52C330.286 240.928 333.282 240.133 336.558 240.133H359.443C362.626 240.133 365.574 240.928 368.289 242.52C371.003 244.111 373.156 246.264 374.747 248.978C376.432 251.693 377.275 254.688 377.275 257.964V297.417C377.275 300.693 376.432 303.688 374.747 306.403C373.156 309.117 371.003 311.27 368.289 312.861C365.574 314.453 362.626 315.248 359.443 315.248H336.558ZM351.721 294.188C352.844 294.188 353.64 293.907 354.108 293.345C354.67 292.784 354.95 291.988 354.95 290.959V264.422C354.95 263.299 354.67 262.504 354.108 262.036C353.64 261.474 352.844 261.193 351.721 261.193H344.28C343.157 261.193 342.314 261.474 341.753 262.036C341.191 262.504 340.91 263.299 340.91 264.422V290.959C340.91 291.988 341.191 292.784 341.753 293.345C342.314 293.907 343.157 294.188 344.28 294.188H351.721Z" fill="#1C1C3F"/>
<path d="M291.282 313.84C288.1 313.84 285.152 313.044 282.437 311.453C279.723 309.862 277.523 307.709 275.838 304.995C274.247 302.28 273.451 299.285 273.451 296.009V261.189H264.887V241.532H274.715L283.139 222.578H296.197V241.532H309.254V255.573L304.199 261.189H296.197V288.989C296.197 290.112 296.477 290.954 297.039 291.516C297.601 292.077 298.396 292.358 299.426 292.358H310.237V313.84H291.282Z" fill="#1C1C3F"/>
<path d="M200.98 313.853V216.273H223.726V267.24H229.061L238.608 241.546H259.248V252.076L248.296 276.927L260.23 303.323V313.853H238.889L229.061 287.879H223.726V313.853H200.98Z" fill="#1C1C3F"/>
<path d="M158.448 313.839C155.172 313.839 152.177 313.043 149.463 311.452C146.748 309.861 144.595 307.708 143.004 304.993C141.413 302.279 140.617 299.284 140.617 296.008V259.362C140.617 256.086 141.413 253.091 143.004 250.377C144.595 247.662 146.748 245.509 149.463 243.918C152.177 242.327 155.172 241.531 158.448 241.531H189.758V257.958L185.125 263.013H166.592C165.562 263.013 164.766 263.294 164.205 263.855C163.643 264.417 163.362 265.259 163.362 266.383V288.987C163.362 290.111 163.643 290.953 164.205 291.515C164.766 292.076 165.562 292.357 166.592 292.357H189.758V313.839H158.448Z" fill="#1C1C3F"/>
<path d="M88.7458 315.243C85.4698 315.243 82.5213 314.494 79.9005 312.996C77.2796 311.499 75.1736 309.439 73.5824 306.819C72.0847 304.104 71.3359 301.156 71.3359 297.973V286.881C71.3359 283.699 72.0847 280.797 73.5824 278.176C75.1736 275.462 77.2796 273.356 79.9005 271.858C82.5213 270.361 85.4698 269.612 88.7458 269.612H106.015V263.294C106.015 262.17 105.735 261.375 105.173 260.907C104.705 260.345 103.909 260.064 102.786 260.064H77.654V241.531H111.351C114.627 241.531 117.575 242.28 120.196 243.778C122.817 245.275 124.876 247.381 126.374 250.096C127.965 252.717 128.761 255.618 128.761 258.801V313.839H114.44L111.21 306.117H110.508C109.385 308.457 107.56 310.563 105.033 312.435C102.599 314.307 99.7909 315.243 96.6084 315.243H88.7458ZM101.101 296.99C102.225 296.99 103.161 296.803 103.909 296.429C104.752 295.961 105.36 295.352 105.735 294.603C106.203 293.761 106.437 292.778 106.437 291.655V284.775H96.468C95.3448 284.775 94.5024 285.056 93.9408 285.618C93.3791 286.179 93.0983 287.022 93.0983 288.145V293.761C93.0983 294.791 93.3791 295.586 93.9408 296.148C94.5024 296.71 95.3448 296.99 96.468 296.99H101.101Z" fill="#1C1C3F"/>
<path d="M0 313.844V215.562H23.4473V253.471H35.8027V215.562H59.25V313.844H35.8027V275.234H23.4473V313.844H0Z" fill="#1C1C3F"/>
<path d="M416.709 152.266H405.887V163.088H416.709V152.266Z" fill="#A0A0FF"/>
<path d="M427.531 152.266H416.709V163.088H427.531V152.266Z" fill="#A0A0FF"/>
<path d="M427.531 141.438H416.709V152.26H427.531V141.438Z" fill="#5A5AB5"/>
<path d="M438.351 130.617H427.529V141.439H438.351V130.617Z" fill="#A0A0FF"/>
<path d="M438.351 119.789H427.529V130.611H438.351V119.789Z" fill="#5A5AB5"/>
<path d="M416.709 11.5781H405.887V0.756025H416.709V11.5781Z" fill="#A0A0FF"/>
<path d="M427.531 11.5781H416.709V0.756025H427.531V11.5781Z" fill="#A0A0FF"/>
<path d="M427.531 22.3906H416.709V11.5685H427.531V22.3906Z" fill="#5A5AB5"/>
<path d="M438.351 33.2188H427.529V22.3967H438.351V33.2188Z" fill="#A0A0FF"/>
<path d="M438.351 44.0391H427.529V33.217H438.351V44.0391Z" fill="#5A5AB5"/>
<path d="M384.242 152.266H395.064V163.088H384.242V152.266Z" fill="#A0A0FF"/>
<path d="M373.418 152.266H384.24V163.088H373.418V152.266Z" fill="#A0A0FF"/>
<path d="M373.418 141.438H384.24V152.26H373.418V141.438Z" fill="#5A5AB5"/>
<path d="M362.598 130.617H373.42V141.439H362.598V130.617Z" fill="#A0A0FF"/>
<path d="M362.598 119.789H373.42V130.611H362.598V119.789Z" fill="#5A5AB5"/>
<path d="M384.242 11.5781L395.064 11.5781V0.756025L384.242 0.756025V11.5781Z" fill="#A0A0FF"/>
<path d="M373.418 11.5781L384.24 11.5781V0.756025L373.418 0.756025V11.5781Z" fill="#A0A0FF"/>
<path d="M373.418 22.3906H384.24V11.5685L373.418 11.5685V22.3906Z" fill="#5A5AB5"/>
<path d="M362.598 33.2188H373.42V22.3966H362.598V33.2188Z" fill="#A0A0FF"/>
<path d="M362.598 44.0391H373.42V33.217H362.598V44.0391Z" fill="#5A5AB5"/>
<path d="M438.351 0.75H427.529V11.5721H438.351V0.75Z" fill="#5A5AB5"/>
<path d="M449.174 11.5781H438.352V22.4002H449.174V11.5781Z" fill="#A0A0FF"/>
<path d="M459.998 11.5781H449.176V22.4002H459.998V11.5781Z" fill="#5A5AB5"/>
<path d="M470.818 22.3906H459.996V33.2127H470.818V22.3906Z" fill="#5A5AB5"/>
<path d="M481.64 33.2188H470.818V44.0409H481.64V33.2188Z" fill="#5A5AB5"/>
<path d="M492.463 44.0391H481.641V54.8612H492.463V44.0391Z" fill="#5A5AB5"/>
<path d="M492.463 54.8594H481.641V65.6815H492.463V54.8594Z" fill="#5A5AB5"/>
<path d="M503.285 65.6797H492.463V76.5018H503.285V65.6797Z" fill="#5A5AB5"/>
<path d="M438.351 163.078H427.529V152.256H438.351V163.078Z" fill="#5A5AB5"/>
<path d="M449.174 152.266H438.352V141.444H449.174V152.266Z" fill="#A0A0FF"/>
<path d="M459.998 152.266H449.176V141.444H459.998V152.266Z" fill="#5A5AB5"/>
<path d="M470.818 141.438H459.996V130.616H470.818V141.438Z" fill="#5A5AB5"/>
<path d="M481.64 130.617H470.818V119.795H481.64V130.617Z" fill="#5A5AB5"/>
<path d="M492.463 119.789H481.641V108.967H492.463V119.789Z" fill="#5A5AB5"/>
<path d="M492.463 108.969H481.641V98.1471H492.463V108.969Z" fill="#5A5AB5"/>
<path d="M503.285 98.1484H492.463V87.3263H503.285V98.1484Z" fill="#5A5AB5"/>
<path d="M362.598 0.75H373.42V11.5721H362.598V0.75Z" fill="#5A5AB5"/>
<path d="M351.776 11.5781H362.598V22.4002H351.776V11.5781Z" fill="#A0A0FF"/>
<path d="M340.953 11.5781H351.775V22.4002H340.953V11.5781Z" fill="#5A5AB5"/>
<path d="M330.131 22.3906H340.953V33.2127H330.131V22.3906Z" fill="#5A5AB5"/>
<path d="M319.309 33.2188H330.131V44.0408H319.309V33.2188Z" fill="#5A5AB5"/>
<path d="M308.488 44.0391H319.311V54.8612H308.488V44.0391Z" fill="#5A5AB5"/>
<path d="M308.488 54.8594H319.311V65.6815H308.488V54.8594Z" fill="#5A5AB5"/>
<path d="M297.664 65.6797H308.486V76.5018H297.664V65.6797Z" fill="#5A5AB5"/>
<path d="M362.598 163.078H373.42V152.256H362.598V163.078Z" fill="#5A5AB5"/>
<path d="M351.776 152.266H362.598V141.444H351.776V152.266Z" fill="#A0A0FF"/>
<path d="M340.953 152.266H351.775V141.444H340.953V152.266Z" fill="#5A5AB5"/>
<path d="M330.131 141.438H340.953V130.616H330.131V141.438Z" fill="#5A5AB5"/>
<path d="M319.309 130.617H330.131V119.795H319.309V130.617Z" fill="#5A5AB5"/>
<path d="M308.488 119.789H319.311V108.967H308.488V119.789Z" fill="#5A5AB5"/>
<path d="M308.488 108.969H319.311V98.1471H308.488V108.969Z" fill="#5A5AB5"/>
<path d="M297.664 98.1484H308.486V87.3263H297.664V98.1484Z" fill="#5A5AB5"/>
<path d="M459.998 0.75H449.176V11.5721H459.998V0.75Z" fill="#A0A0FF"/>
<path d="M470.818 11.5781H459.996V22.4002H470.818V11.5781Z" fill="#A0A0FF"/>
<path d="M470.818 0.75H459.996V11.5721H470.818V0.75Z" fill="#5A5AB5"/>
<path d="M481.64 11.5781H470.818V22.4002H481.64V11.5781Z" fill="#5A5AB5"/>
<path d="M492.463 22.3906H481.641V33.2127H492.463V22.3906Z" fill="#5A5AB5"/>
<path d="M492.463 11.5781H481.641V22.4002H492.463V11.5781Z" fill="#A0A0FF"/>
<path d="M503.285 22.3906H492.463V33.2127H503.285V22.3906Z" fill="#A0A0FF"/>
<path d="M514.107 33.2188H503.285V44.0409H514.107V33.2188Z" fill="#5A5AB5"/>
<path d="M524.928 44.0391H514.105V54.8612H524.928V44.0391Z" fill="#5A5AB5"/>
<path d="M535.75 54.8594H524.928V65.6815H535.75V54.8594Z" fill="#5A5AB5"/>
<path d="M535.75 65.6797H524.928V76.5018H535.75V65.6797Z" fill="#A0A0FF"/>
<path d="M449.174 0.75H438.352V11.5721H449.174V0.75Z" fill="#A0A0FF"/>
<path d="M459.998 163.078H449.176V152.256H459.998V163.078Z" fill="#A0A0FF"/>
<path d="M449.174 163.078H438.352V152.256H449.174V163.078Z" fill="#A0A0FF"/>
<path d="M470.818 152.266H459.996V141.444H470.818V152.266Z" fill="#A0A0FF"/>
<path d="M470.818 163.078H459.996V152.256H470.818V163.078Z" fill="#5A5AB5"/>
<path d="M481.64 152.266H470.818V141.444H481.64V152.266Z" fill="#5A5AB5"/>
<path d="M492.463 141.438H481.641V130.616H492.463V141.438Z" fill="#5A5AB5"/>
<path d="M492.463 152.266H481.641V141.444H492.463V152.266Z" fill="#A0A0FF"/>
<path d="M503.285 141.438H492.463V130.616H503.285V141.438Z" fill="#A0A0FF"/>
<path d="M514.107 130.617H503.285V119.795H514.107V130.617Z" fill="#5A5AB5"/>
<path d="M524.928 119.789H514.105V108.967H524.928V119.789Z" fill="#5A5AB5"/>
<path d="M535.75 108.969H524.928V98.1471H535.75V108.969Z" fill="#5A5AB5"/>
<path d="M535.75 98.1484H524.928V87.3263H535.75V98.1484Z" fill="#A0A0FF"/>
<path d="M340.953 0.75H351.775V11.5721H340.953V0.75Z" fill="#A0A0FF"/>
<path d="M330.131 11.5781H340.953V22.4002H330.131V11.5781Z" fill="#A0A0FF"/>
<path d="M330.131 0.75H340.953V11.5721H330.131V0.75Z" fill="#5A5AB5"/>
<path d="M319.309 11.5781H330.131V22.4002H319.309V11.5781Z" fill="#5A5AB5"/>
<path d="M308.488 22.3906H319.311V33.2127H308.488V22.3906Z" fill="#5A5AB5"/>
<path d="M308.488 11.5781H319.311V22.4002H308.488V11.5781Z" fill="#A0A0FF"/>
<path d="M297.664 22.3906H308.486V33.2127H297.664V22.3906Z" fill="#A0A0FF"/>
<path d="M286.842 33.2188H297.664V44.0408H286.842V33.2188Z" fill="#5A5AB5"/>
<path d="M276.022 44.0391H286.844V54.8612H276.022V44.0391Z" fill="#5A5AB5"/>
<path d="M265.199 54.8594H276.021V65.6815H265.199V54.8594Z" fill="#5A5AB5"/>
<path d="M265.199 65.6797H276.021V76.5018H265.199V65.6797Z" fill="#A0A0FF"/>
<path d="M351.776 0.75H362.598V11.5721H351.776V0.75Z" fill="#A0A0FF"/>
<path d="M340.953 163.078H351.775V152.256H340.953V163.078Z" fill="#A0A0FF"/>
<path d="M351.776 163.078H362.598V152.256H351.776V163.078Z" fill="#A0A0FF"/>
<path d="M330.131 152.266H340.953V141.444H330.131V152.266Z" fill="#A0A0FF"/>
<path d="M330.131 163.078H340.953V152.256H330.131V163.078Z" fill="#5A5AB5"/>
<path d="M319.309 152.266H330.131V141.444H319.309V152.266Z" fill="#5A5AB5"/>
<path d="M308.488 141.438H319.311V130.616H308.488V141.438Z" fill="#5A5AB5"/>
<path d="M308.488 152.266H319.311V141.444H308.488V152.266Z" fill="#A0A0FF"/>
<path d="M297.664 141.438H308.486V130.616H297.664V141.438Z" fill="#A0A0FF"/>
<path d="M286.842 130.617H297.664V119.795H286.842V130.617Z" fill="#5A5AB5"/>
<path d="M276.022 119.789H286.844V108.967H276.022V119.789Z" fill="#5A5AB5"/>
<path d="M265.199 108.969H276.021V98.1471H265.199V108.969Z" fill="#5A5AB5"/>
<path d="M265.199 98.1484H276.021V87.3263H265.199V98.1484Z" fill="#A0A0FF"/>
<path d="M503.285 11.5781H492.463V22.4002H503.285V11.5781Z" fill="#5A5AB5"/>
<path d="M514.107 11.5781H503.285V22.4002H514.107V11.5781Z" fill="#5A5AB5"/>
<path d="M514.107 22.3906H503.285V33.2127H514.107V22.3906Z" fill="#A0A0FF"/>
<path d="M524.928 22.3906H514.105V33.2127H524.928V22.3906Z" fill="#5A5AB5"/>
<path d="M535.75 22.3906H524.928V33.2127H535.75V22.3906Z" fill="#5A5AB5"/>
<path d="M535.75 33.2188H524.928V44.0409H535.75V33.2188Z" fill="#A0A0FF"/>
<path d="M546.572 33.2188H535.75V44.0409H546.572V33.2188Z" fill="#5A5AB5"/>
<path d="M546.572 44.0391H535.75V54.8612H546.572V44.0391Z" fill="#A0A0FF"/>
<path d="M557.394 44.0391H546.572V54.8612H557.394V44.0391Z" fill="#5A5AB5"/>
<path d="M568.219 54.8594H557.396V65.6815H568.219V54.8594Z" fill="#5A5AB5"/>
<path d="M568.219 65.6797H557.396V76.5018H568.219V65.6797Z" fill="#5A5AB5"/>
<path d="M503.285 152.266H492.463V141.444H503.285V152.266Z" fill="#5A5AB5"/>
<path d="M514.107 152.266H503.285V141.444H514.107V152.266Z" fill="#5A5AB5"/>
<path d="M514.107 141.438H503.285V130.616H514.107V141.438Z" fill="#A0A0FF"/>
<path d="M524.928 141.438H514.105V130.616H524.928V141.438Z" fill="#5A5AB5"/>
<path d="M535.75 141.438H524.928V130.616H535.75V141.438Z" fill="#5A5AB5"/>
<path d="M535.75 130.617H524.928V119.795H535.75V130.617Z" fill="#A0A0FF"/>
<path d="M546.572 130.617H535.75V119.795H546.572V130.617Z" fill="#5A5AB5"/>
<path d="M546.572 119.789H535.75V108.967H546.572V119.789Z" fill="#A0A0FF"/>
<path d="M557.394 119.789H546.572V108.967H557.394V119.789Z" fill="#5A5AB5"/>
<path d="M568.219 108.969H557.396V98.1471H568.219V108.969Z" fill="#5A5AB5"/>
<path d="M568.219 98.1484H557.396V87.3263H568.219V98.1484Z" fill="#5A5AB5"/>
<path d="M297.664 11.5781H308.486V22.4002H297.664V11.5781Z" fill="#5A5AB5"/>
<path d="M286.842 11.5781H297.664V22.4002H286.842V11.5781Z" fill="#5A5AB5"/>
<path d="M286.842 22.3906H297.664V33.2127H286.842V22.3906Z" fill="#A0A0FF"/>
<path d="M276.022 22.3906H286.844V33.2127H276.022V22.3906Z" fill="#5A5AB5"/>
<path d="M265.199 22.3906H276.021V33.2127H265.199V22.3906Z" fill="#5A5AB5"/>
<path d="M265.199 33.2188H276.021V44.0408H265.199V33.2188Z" fill="#A0A0FF"/>
<path d="M254.377 33.2188H265.199V44.0408H254.377V33.2188Z" fill="#5A5AB5"/>
<path d="M254.377 44.0391H265.199V54.8612H254.377V44.0391Z" fill="#A0A0FF"/>
<path d="M243.555 44.0391H254.377V54.8612H243.555V44.0391Z" fill="#5A5AB5"/>
<path d="M232.733 54.8594H243.555V65.6815H232.733V54.8594Z" fill="#5A5AB5"/>
<path d="M232.733 65.6797H243.555V76.5018H232.733V65.6797Z" fill="#5A5AB5"/>
<path d="M297.664 152.266H308.486V141.444H297.664V152.266Z" fill="#5A5AB5"/>
<path d="M286.842 152.266H297.664V141.444H286.842V152.266Z" fill="#5A5AB5"/>
<path d="M286.842 141.438H297.664V130.616H286.842V141.438Z" fill="#A0A0FF"/>
<path d="M276.022 141.438H286.844V130.616H276.022V141.438Z" fill="#5A5AB5"/>
<path d="M265.199 141.438H276.021V130.616H265.199V141.438Z" fill="#5A5AB5"/>
<path d="M265.199 130.617H276.021V119.795H265.199V130.617Z" fill="#A0A0FF"/>
<path d="M254.377 130.617H265.199V119.795H254.377V130.617Z" fill="#5A5AB5"/>
<path d="M254.377 119.789H265.199V108.967H254.377V119.789Z" fill="#A0A0FF"/>
<path d="M243.555 119.789H254.377V108.967H243.555V119.789Z" fill="#5A5AB5"/>
<path d="M232.733 108.969H243.555V98.1471H232.733V108.969Z" fill="#5A5AB5"/>
<path d="M232.733 98.1484H243.555V87.3263H232.733V98.1484Z" fill="#5A5AB5"/>
<path d="M405.887 141.438H395.064V152.26H405.887V141.438Z" fill="#A0A0FF"/>
<path d="M405.887 119.789H395.064V130.611H405.887V119.789Z" fill="#A0A0FF"/>
<path d="M405.887 22.3906H395.064V33.2127H405.887V22.3906Z" fill="#5A5AB5"/>
<path d="M405.887 0.75H395.064V11.5721H405.887V0.75Z" fill="#5A5AB5"/>
<path d="M405.887 152.266H395.064V163.088H405.887V152.266Z" fill="#5A5AB5"/>
<path d="M405.887 130.617H395.064V141.439H405.887V130.617Z" fill="#5A5AB5"/>
<path d="M405.887 33.2188H395.064V44.0409H405.887V33.2188Z" fill="#A0A0FF"/>
<path d="M405.887 11.5781H395.064V22.4002H405.887V11.5781Z" fill="#A0A0FF"/>
<path d="M297.664 87.3299V76.5078H286.842V87.3299H297.664Z" fill="#5A5AB5"/>
<path d="M276.021 87.3299V76.5078H265.199V87.3299H276.021Z" fill="#5A5AB5"/>
<path d="M503.285 87.3299V76.5078H492.463V87.3299H503.285Z" fill="#A0A0FF"/>
<path d="M319.311 87.3299V76.5078H308.488V87.3299H319.311Z" fill="#5A5AB5"/>
<path d="M524.928 87.33V76.5078H514.106V87.33H524.928Z" fill="#A0A0FF"/>
<path d="M481.641 87.3299V76.5078H470.819V87.3299H481.641Z" fill="#A0A0FF"/>
<path d="M546.572 87.3299V76.5078H535.75V87.3299H546.572Z" fill="#A0A0FF"/>
<path d="M557.396 87.3299V76.5078H546.574V87.3299H557.396Z" fill="#5A5AB5"/>
<path d="M568.217 87.33V76.5078H557.395V87.33H568.217Z" fill="#5A5AB5"/>
<path d="M340.953 87.3299V76.5078H330.131V87.3299H340.953Z" fill="#5A5AB5"/>
<path d="M286.844 87.3299V76.5078H276.022V87.3299H286.844Z" fill="#A0A0FF"/>
<path d="M265.199 87.3299V76.5078H254.377V87.3299H265.199Z" fill="#A0A0FF"/>
<path d="M254.377 87.3299V76.5078H243.555V87.3299H254.377Z" fill="#5A5AB5"/>
<path d="M243.555 87.3299V76.5078H232.733V87.3299H243.555Z" fill="#5A5AB5"/>
<path d="M330.131 87.3299V76.5078H319.309V87.3299H330.131Z" fill="#A0A0FF"/>
<path d="M492.463 87.3299V76.5078H481.641V87.3299H492.463Z" fill="#5A5AB5"/>
<path d="M308.486 87.3299V76.5078H297.664V87.3299H308.486Z" fill="#A0A0FF"/>
<path d="M514.105 87.3299V76.5078H503.283V87.3299H514.105Z" fill="#5A5AB5"/>
<path d="M470.818 87.3299V76.5078H459.996V87.3299H470.818Z" fill="#5A5AB5"/>
<path d="M535.75 87.33V76.5078H524.928V87.33H535.75Z" fill="#5A5AB5"/>
<path d="M351.775 130.617H340.953V141.439H351.775V130.617Z" fill="#A0A0FF"/>
<path d="M459.998 130.617H449.176V141.439H459.998V130.617Z" fill="#A0A0FF"/>
<path d="M351.775 33.2188H340.953V22.3967H351.775V33.2188Z" fill="#A0A0FF"/>
<path d="M459.998 33.2188H449.176V22.3967H459.998V33.2188Z" fill="#A0A0FF"/>
<path d="M408.633 102.908V60.9297H446.413V68.7257L442.215 72.9235H421.826V78.3207H439.217V90.3145H421.826V102.908H408.633Z" fill="#5A5AB5"/>
<path d="M358.865 102.908V60.9297H372.058V75.9219H390.049V60.9297H403.242V102.908H390.049V87.9157H372.058V102.908H358.865Z" fill="#5A5AB5"/>
</g>
<defs>
<clipPath id="clip0_27484_6188">
<rect width="800" height="316" fill="white"/>
</clipPath>
</defs>
</svg>
