<svg xmlns="http://www.w3.org/2000/svg" role="img" viewBox="-17.76 -12.76 1859.52 499.52"><defs><radialGradient id="a" cx="724.688" cy="570.092" r="127.064" gradientTransform="scale(1 -1) rotate(65.374 1116.693 -222.483)" gradientUnits="userSpaceOnUse"><stop offset="0"/><stop offset="0" stop-color="#000505"/><stop offset="0" stop-color="#011214"/><stop offset="0" stop-color="#03282c"/><stop offset="0" stop-color="#05474f"/><stop offset="0" stop-color="#076f7b"/><stop offset="0" stop-color="#0aa0b0"/><stop offset="0" stop-color="#0ed8ee"/><stop offset=".143" stop-color="#0ed3ee"/><stop offset=".324" stop-color="#0dc3ed"/><stop offset=".526" stop-color="#0da9eb"/><stop offset=".742" stop-color="#0c85e9"/><stop offset=".967" stop-color="#0a57e6"/><stop offset="1" stop-color="#0a50e6"/></radialGradient><radialGradient id="b" cx="235.82" cy="242.572" r="216.214" gradientTransform="matrix(1 0 0 -1 0 480)" gradientUnits="userSpaceOnUse"><stop offset="0" stop-color="#0ed8ee"/><stop offset=".238" stop-color="#0ed5ee"/><stop offset=".407" stop-color="#0ecced"/><stop offset=".553" stop-color="#0dbcec"/><stop offset=".688" stop-color="#0da6eb"/><stop offset=".814" stop-color="#0c8ae9"/><stop offset=".932" stop-color="#0b67e7"/><stop offset="1" stop-color="#0a50e6"/></radialGradient></defs><path fill="#0a50e6" d="M571.41663 192.41168a5.83714 5.83714 0 0 1 1.30023 3.96478v82.02622a5.65121 5.65121 0 0 1-1.36493 3.96478 4.93814 4.93814 0 0 1-3.83478 1.495 5.41612 5.41612 0 0 1-4.29016-2.20978l-53.94733-72.14691v68.89694a5.64862 5.64862 0 0 1-1.36493 3.96478 4.77442 4.77442 0 0 1-3.70474 1.495 4.57124 4.57124 0 0 1-3.64-1.495 5.82436 5.82436 0 0 1-1.29962-3.96478v-82.02625a5.65482 5.65482 0 0 1 1.36492-3.96478 4.9338 4.9338 0 0 1 3.83478-1.495 5.54214 5.54214 0 0 1 4.41956 2.20977l53.81729 72.14692v-68.89691a5.65775 5.65775 0 0 1 1.36493-3.96478 4.7743 4.7743 0 0 1 3.70477-1.495 4.57289 4.57289 0 0 1 3.64001 1.495zm75.13623 77.28132a4.33564 4.33564 0 0 1 1.04016 2.98993q0 3.25059-4.54956 5.97983a39.38531 39.38531 0 0 1-9.88 4.09482 39.87854 39.87854 0 0 1-10.13934 1.36493q-14.69173 0-23.20392-8.70972-8.5155-8.7079-8.51434-24.04877a37.73443 37.73443 0 0 1 3.76947-17.22407A28.14126 28.14126 0 0 1 605.6701 222.505a29.25572 29.25572 0 0 1 15.53443-4.15951q12.34845 0 19.6286 8.05959 7.27946 8.06144 7.28009 21.839a5.60025 5.60025 0 0 1-1.04016 3.77006 4.31968 4.31968 0 0 1-3.38 1.16959h-41.85773q1.17023 22.36032 21.18884 22.35909a24.83441 24.83441 0 0 0 8.70972-1.36493 56.81763 56.81763 0 0 0 7.79956-3.70475q3.37875-1.95035 4.54956-1.95034a3.20361 3.20361 0 0 1 2.46985 1.1702zm-38.543-37.95817q-5.00583 5.2009-5.91449 14.68954h36.788q-.26193-9.619-4.80963-14.75426-4.55172-5.13406-12.7392-5.135-8.32067 0-13.3247 5.19968zm90.28055 47.96747a3.74171 3.74171 0 0 1-1.625 3.31528 7.62926 7.62926 0 0 1-4.87494.84485l-3.5094-.26q-10.40186-.78012-15.33966-6.23987-4.94175-5.45916-4.93964-16.50925v-32.62853h-8.70972a4.97973 4.97973 0 0 1-3.4447-1.10489 3.72468 3.72468 0 0 1-1.23492-2.92461 4.09053 4.09053 0 0 1 1.23492-3.11993 4.80619 4.80619 0 0 1 3.4447-1.17021h8.70972V205.2162a5.04582 5.04582 0 0 1 1.43024-3.83476 5.41072 5.41072 0 0 1 3.89947-1.36493 5.23431 5.23431 0 0 1 3.77008 1.36493 5.05466 5.05466 0 0 1 1.42963 3.83476v14.68894h14.4295a4.62568 4.62568 0 0 1 3.3147 1.17021 4.09714 4.09714 0 0 1 1.23492 3.11993 3.73057 3.73057 0 0 1-1.23492 2.92461 4.78785 4.78785 0 0 1-3.3147 1.10489h-14.4295v33.14854q0 7.15037 2.92523 10.33469 2.92466 3.18649 8.77441 3.5747l3.51.26q4.54808.39013 4.54958 4.15959zM801.635 218.86555a5.347 5.347 0 0 1 3.5094 1.29963 4.06216 4.06216 0 0 1 1.5603 3.25 5.56135 5.56135 0 0 1-.39007 1.94973l-21.57892 54.59746a6.21957 6.21957 0 0 1-2.27509 2.66516 5.9463 5.9463 0 0 1-3.3147.97486 5.72635 5.72635 0 0 1-3.18463-.97486 6.20712 6.20712 0 0 1-2.27508-2.66516l-17.93891-45.6277-17.80951 45.6277a5.32778 5.32778 0 0 1-2.20977 2.66516 6.18428 6.18428 0 0 1-8.96979-2.66516l-21.579-54.46747a5.3028 5.3028 0 0 1-.38947-1.81971 4.37359 4.37359 0 0 1 1.7544-3.51 5.94661 5.94661 0 0 1 3.83539-1.42964 4.51478 4.51478 0 0 1 4.41955 3.11993L732.608 269.823l18.32959-47.57744a6.11064 6.11064 0 0 1 2.14447-2.59985 5.1865 5.1865 0 0 1 2.92523-.91016 5.39733 5.39733 0 0 1 3.05463.91016 5.32528 5.32528 0 0 1 2.01508 2.59985l18.329 47.4474 17.93891-47.70746a4.43083 4.43083 0 0 1 4.29009-3.11995zm29.57252 61.2268A26.842 26.842 0 0 1 820.6781 268.588a42.49835 42.49835 0 0 1 0-34.7082 26.86256 26.86256 0 0 1 10.52942-11.50429 30.48915 30.48915 0 0 1 15.79443-4.03011 30.84439 30.84439 0 0 1 15.85913 4.03011 26.744 26.744 0 0 1 10.59412 11.50429 42.49835 42.49835 0 0 1 0 34.7082 26.72371 26.72371 0 0 1-10.59412 11.50431 30.8262 30.8262 0 0 1-15.85913 4.03012 30.47144 30.47144 0 0 1-15.79443-4.03008zm30.15863-10.85416q5.00226-6.17331 5.00433-18.00421-.00009-11.56838-5.06964-17.87421-5.06908-6.30337-14.29889-6.30459-9.23172 0-14.2995 6.30459-5.07 6.307-5.0697 17.87421 0 11.69934 5.00433 17.9389 5.00309 6.24019 14.36481 6.2399 9.35898-.00004 14.36426-6.17459zm69.61114-46.2131a4.62019 4.62019 0 0 1-1.17022 3.31527 6.21219 6.21219 0 0 1-4.02948 1.495l-3.90009.38946q-8.71069.78018-12.9345 6.17518a19.95091 19.95091 0 0 0-4.22485 12.67389v31.58887a5.00582 5.00582 0 0 1-1.42963 3.89948 5.39527 5.39527 0 0 1-3.77 1.30023 5.46737 5.46737 0 0 1-3.83477-1.36493 4.92916 4.92916 0 0 1-1.495-3.83475v-54.85758a4.82708 4.82708 0 0 1 1.5603-3.83477 5.52364 5.52364 0 0 1 3.76947-1.36494 4.78983 4.78983 0 0 1 4.946 4.62836q.00723.22068-.00574.44133v7.27946a19.74088 19.74088 0 0 1 7.73425-8.70911 26.177 26.177 0 0 1 11.50428-3.51l1.82031-.13q5.45906-.39011 5.45967 4.41955zm63.0459 56.02771a4.72843 4.72843 0 0 1-1.36493 3.37939 4.41385 4.41385 0 0 1-3.31469 1.43024 5.49288 5.49288 0 0 1-3.51-1.56028l-33.92865-29.24847v25.609a4.935 4.935 0 0 1-1.49433 3.83475 5.29435 5.29435 0 0 1-3.70538 1.36493 5.4674 5.4674 0 0 1-3.83478-1.36493 4.92918 4.92918 0 0 1-1.495-3.83475v-82.5463a4.93189 4.93189 0 0 1 1.495-3.83476 5.4674 5.4674 0 0 1 3.83478-1.36493 5.29426 5.29426 0 0 1 3.70538 1.36493 4.93775 4.93775 0 0 1 1.49433 3.83476v52.77774l31.06878-28.46893a4.785 4.785 0 0 1 8.31964 3.25 5.1825 5.1825 0 0 1-1.8197 3.90008l-25.609 22.87856 28.07886 24.43884a5.69735 5.69735 0 0 1 2.07969 4.16013zm61.91663 2.1939a38.10506 38.10506 0 0 1-14.23413-7.86425 5.96569 5.96569 0 0 1-1.94971-4.55021 5.10437 5.10437 0 0 1 1.03955-3.18466 3.04108 3.04108 0 0 1 2.47046-1.36493 6.29383 6.29383 0 0 1 3.63941 1.42966 43.81021 43.81021 0 0 0 27.55871 9.35983q11.17841 0 17.15943-4.28955 5.97747-4.28984 5.97924-12.21972a9.81655 9.81655 0 0 0-2.85925-7.34478 20.67118 20.67118 0 0 0-7.54016-4.48487 113.96621 113.96621 0 0 0-12.60913-3.5094 122.68749 122.68749 0 0 1-17.48413-5.19971 27.22164 27.22164 0 0 1-11.04956-7.79955q-4.22571-5.07-4.22486-13.25929a23.56811 23.56811 0 0 1 4.22486-13.8447 27.34349 27.34349 0 0 1 11.82971-9.35922 43.03624 43.03624 0 0 1 17.35412-3.31527 50.3345 50.3345 0 0 1 16.964 2.79519 35.75166 35.75166 0 0 1 13.19458 7.99428 6.34468 6.34468 0 0 1 2.07972 4.55019 5.10868 5.10868 0 0 1-1.04017 3.18464 3.0449 3.0449 0 0 1-2.46984 1.36495 7.90281 7.90281 0 0 1-3.77-1.43025 44.25535 44.25535 0 0 0-11.8291-7.27947 36.97346 36.97346 0 0 0-13.12928-2.07976q-10.79187 0-16.76928 4.48488-5.981 4.48488-5.97986 12.54447 0 6.89124 5.265 10.33409 5.2641 3.44652 16.184 6.04515 11.82751 2.86051 18.589 5.2644a27.87036 27.87036 0 0 1 11.24487 7.21475q4.485 4.81084 4.48487 12.86924a22.498 22.498 0 0 1-4.22486 13.51934 27.44851 27.44851 0 0 1-11.895 9.0998 44.63031 44.63031 0 0 1-17.54882 3.25 59.39121 59.39121 0 0 1-18.65439-2.92527zm120.828-11.6343a4.33581 4.33581 0 0 1 1.04016 2.98989q0 3.25059-4.54956 5.97983a39.38687 39.38687 0 0 1-9.87988 4.09482 39.87736 39.87736 0 0 1-10.1394 1.36493q-14.69166 0-23.204-8.70972-8.51569-8.70789-8.51441-24.04876a37.73439 37.73439 0 0 1 3.76941-17.22408 28.1405 28.1405 0 0 1 10.59473-11.63492 29.25537 29.25537 0 0 1 15.53442-4.15951q12.34863 0 19.62854 8.0596 7.27937 8.0614 7.28 21.839a5.60092 5.60092 0 0 1-1.04016 3.77007 4.31978 4.31978 0 0 1-3.38 1.16958h-41.85766q1.17023 22.36032 21.18884 22.35909a24.83441 24.83441 0 0 0 8.70972-1.36493 56.81424 56.81424 0 0 0 7.79956-3.70474q3.37866-1.95035 4.54956-1.95035a3.2037 3.2037 0 0 1 2.47013 1.1702zm-38.543-37.95818q-5.00592 5.20093-5.91455 14.68955h36.788q-.26184-9.619-4.80957-14.75426-4.55165-5.13408-12.73926-5.135-8.3205 0-13.32459 5.1997zm93.65934-8.70972a4.62077 4.62077 0 0 1-1.17017 3.31528 6.21236 6.21236 0 0 1-4.02954 1.495l-3.9.38946q-8.7105.78012-12.93457 6.17519a19.95082 19.95082 0 0 0-4.22485 12.67387v31.58888a5.006 5.006 0 0 1-1.42969 3.89948 5.39508 5.39508 0 0 1-3.77 1.30023 5.46732 5.46732 0 0 1-3.83471-1.36493 4.92917 4.92917 0 0 1-1.495-3.83478v-54.85749a4.82709 4.82709 0 0 1 1.5603-3.83477 5.52384 5.52384 0 0 1 3.76941-1.36493 4.78977 4.78977 0 0 1 4.94605 4.62825q.00732.22074-.00574.44143v7.27946a19.74016 19.74016 0 0 1 7.73425-8.70911 26.17747 26.17747 0 0 1 11.50428-3.51l1.82031-.13q5.45905-.39012 5.45967 4.41948zm64.47619-4.2895a5.347 5.347 0 0 1 3.5094 1.29962 4.062 4.062 0 0 1 1.5603 3.25 4.12242 4.12242 0 0 1-.52014 2.07974l-25.34839 54.59748a6.07364 6.07364 0 0 1-2.34045 2.66516 6.26285 6.26285 0 0 1-3.3794.97488 6.04637 6.04637 0 0 1-3.25-.97488 6.95726 6.95726 0 0 1-2.46984-2.66516l-25.219-54.59746a3.85031 3.85031 0 0 1-.52014-1.94974 4.25594 4.25594 0 0 1 1.755-3.38 5.94625 5.94625 0 0 1 3.83471-1.42965 4.69724 4.69724 0 0 1 2.53516.78014 4.98631 4.98631 0 0 1 1.885 2.20978l21.709 48.74763 21.70838-48.48759a4.75 4.75 0 0 1 4.55041-3.11995zm18.19776-15.59914a6.26837 6.26837 0 0 1-1.94971-4.81024 6.11936 6.11936 0 0 1 1.94971-4.67961 7.97268 7.97268 0 0 1 10.14 0 6.11936 6.11936 0 0 1 1.94971 4.67961 6.26844 6.26844 0 0 1-1.94971 4.81024 7.97268 7.97268 0 0 1-10.14 0zm1.23486 79.361a4.92924 4.92924 0 0 1-1.495-3.83478v-54.8575a4.93166 4.93166 0 0 1 1.495-3.83476 5.46462 5.46462 0 0 1 3.83472-1.36493 5.23436 5.23436 0 0 1 3.77 1.36493 5.0534 5.0534 0 0 1 1.42968 3.83476v54.8575a5.00611 5.00611 0 0 1-1.42968 3.89948 5.3952 5.3952 0 0 1-3.77 1.30023 5.46746 5.46746 0 0 1-3.83472-1.3649zm40.42798-2.40508a26.92472 26.92472 0 0 1-10.52942-11.43958 41.23625 41.23625 0 0 1 .13-34.44815 28.33353 28.33353 0 0 1 10.72412-11.69963 30.0883 30.0883 0 0 1 15.85975-4.15951 36.23581 36.23581 0 0 1 9.814 1.36494 27.08927 27.08927 0 0 1 8.515 3.96479 11.56949 11.56949 0 0 1 3.31469 3.05462 5.94315 5.94315 0 0 1 .97486 3.31528 4.511 4.511 0 0 1-.97486 2.98991 3.14551 3.14551 0 0 1-2.53515 1.1696 4.37211 4.37211 0 0 1-1.94971-.52009 12.14675 12.14675 0 0 1-1.755-1.03957 9.34873 9.34873 0 0 0-.97485-.65011 42.00231 42.00231 0 0 0-6.43457-3.51 19.1262 19.1262 0 0 0-7.47485-1.2996q-9.49 0-14.75428 6.43461-5.2641 6.43433-5.2644 17.87421 0 11.44021 5.2644 17.67885 5.265 6.24018 14.75428 6.23989a20.078 20.078 0 0 0 7.60486-1.30023 34.93161 34.93161 0 0 0 6.43457-3.5094 31.08339 31.08339 0 0 1 2.72985-1.56027 5.1666 5.1666 0 0 1 2.20984-.65011 3.01478 3.01478 0 0 1 2.40515 1.17019 4.514 4.514 0 0 1 .97486 2.98993 5.39033 5.39033 0 0 1-.91016 3.05463 12.71735 12.71735 0 0 1-3.37939 3.05523 30.91807 30.91807 0 0 1-8.775 3.96479 36.87394 36.87394 0 0 1-10.3341 1.495 30.21308 30.21308 0 0 1-15.66449-4.03022zm104.57824-10.39938a4.33577 4.33577 0 0 1 1.04017 2.98989q0 3.25059-4.54957 5.97983a39.38687 39.38687 0 0 1-9.87988 4.09482 39.8773 39.8773 0 0 1-10.1394 1.36493q-14.69166 0-23.204-8.70972-8.5155-8.70789-8.51441-24.04876a37.73452 37.73452 0 0 1 3.76941-17.22408 28.1405 28.1405 0 0 1 10.59473-11.63492 29.25542 29.25542 0 0 1 15.53442-4.15951q12.34845 0 19.62854 8.0596 7.27936 8.0614 7.28 21.839a5.60087 5.60087 0 0 1-1.04016 3.77007 4.31976 4.31976 0 0 1-3.38 1.16958h-41.85767q1.17 22.36032 21.18884 22.35909a24.83438 24.83438 0 0 0 8.70972-1.36493 56.81369 56.81369 0 0 0 7.79956-3.70474q3.37884-1.95035 4.54956-1.95035a3.2037 3.2037 0 0 1 2.47014 1.1702zm-38.543-37.95818q-5.00592 5.20093-5.91456 14.68955h36.788q-.26184-9.619-4.80957-14.75426-4.55183-5.13408-12.73926-5.135-8.3205 0-13.32458 5.1997zm172.48014-39.32312a5.65783 5.65783 0 0 1 1.365 3.96478v82.28627a5.39032 5.39032 0 0 1-1.30017 3.76944 4.67167 4.67167 0 0 1-3.63941 1.43024 4.27088 4.27088 0 0 1-3.51-1.43024 5.76311 5.76311 0 0 1-1.17016-3.76944V212.155l-28.20825 54.07736q-1.82209 3.77247-5.32972 3.77-3.3825 0-5.32971-3.77l-28.33891-53.42725v65.777a5.56408 5.56408 0 0 1-1.23486 3.76944 4.46965 4.46965 0 0 1-3.57471 1.43024 4.67031 4.67031 0 0 1-3.64-1.43024 5.38487 5.38487 0 0 1-1.29956-3.76944v-82.28623a5.49387 5.49387 0 0 1 1.42969-3.96478 5.146 5.146 0 0 1 3.9-1.495q3.24792 0 5.19971 3.77006l33.01855 63.30655 32.62842-63.30656a7.5431 7.5431 0 0 1 2.27454-2.92522 5.05863 5.05863 0 0 1 2.92517-.84483 4.93806 4.93806 0 0 1 3.83438 1.495zm75.32967 77.2813a4.33581 4.33581 0 0 1 1.04016 2.98989q-.00018 3.25059-4.54956 5.97983a39.387 39.387 0 0 1-9.87988 4.09482 39.87738 39.87738 0 0 1-10.13941 1.36493q-14.69183 0-23.204-8.70972-8.51568-8.70789-8.5144-24.04876a37.73439 37.73439 0 0 1 3.76941-17.22408 28.14031 28.14031 0 0 1 10.59473-11.63492 29.25537 29.25537 0 0 1 15.53442-4.15951q12.34845 0 19.62854 8.0596 7.27954 8.0614 7.28 21.839a5.60092 5.60092 0 0 1-1.04016 3.77007 4.31978 4.31978 0 0 1-3.38 1.16958h-41.85766q1.17023 22.36032 21.18884 22.35909a24.83441 24.83441 0 0 0 8.70972-1.36493 56.81424 56.81424 0 0 0 7.79956-3.70474q3.37866-1.95035 4.54956-1.95035a3.20371 3.20371 0 0 1 2.47013 1.1702zm-38.543-37.95818q-5.00574 5.20093-5.91455 14.68955h36.788q-.26165-9.619-4.80957-14.75426-4.55181-5.13408-12.73925-5.135-8.3205 0-13.32471 5.1997zm66.81538 50.95741a34.58821 34.58821 0 0 1-9.55457-4.02951 12.79452 12.79452 0 0 1-3.31469-2.9252 5.55015 5.55015 0 0 1-.97486-3.31467 4.07066 4.07066 0 0 1 .97486-2.79458 3.2261 3.2261 0 0 1 2.53515-1.1055q1.55933 0 4.54956 1.95035a43.28721 43.28721 0 0 0 7.73426 3.70474 28.76439 28.76439 0 0 0 9.55456 1.36493q7.02045 0 10.91943-2.46982a7.95854 7.95854 0 0 0 3.9-7.15 7.08091 7.08091 0 0 0-1.4303-4.61429 11.82618 11.82618 0 0 0-4.9397-3.11994 70.36017 70.36017 0 0 0-10.2694-2.79519q-11.44026-2.46769-16.37928-6.62935a14.004 14.004 0 0 1-4.93969-11.30956 16.36338 16.36338 0 0 1 3.12-9.8793 20.99183 20.99183 0 0 1 8.64441-6.76 30.45349 30.45349 0 0 1 12.54443-2.46984 35.32243 35.32243 0 0 1 9.81458 1.365 29.23986 29.23986 0 0 1 8.3844 3.83476q4.418 3.11964 4.42016 6.49992a4.15341 4.15341 0 0 1-1.04016 2.8599 3.20582 3.20582 0 0 1-2.46985 1.16958q-1.56024 0-4.67956-2.20977a41.32442 41.32442 0 0 0-6.89-3.64 21.84433 21.84433 0 0 0-8.05957-1.29962q-6.112 0-9.81457 2.72987a8.59871 8.59871 0 0 0-3.70471 7.27946 7.30928 7.30928 0 0 0 1.365 4.6149 11.27735 11.27735 0 0 0 4.55017 3.11994 52.94705 52.94705 0 0 0 9.16443 2.66456 65.49379 65.49379 0 0 1 13.71411 4.29015 15.94828 15.94828 0 0 1 6.95471 5.71979 16.14931 16.14931 0 0 1 2.07971 8.57907 15.55855 15.55855 0 0 1-6.8894 13.19458q-6.8921 5.00592-18.19959 5.005a44.23243 44.23243 0 0 1-11.37403-1.43036zm102.62962-58.04216q5.71929 6.307 5.71985 18.78437v35.22828a5.0529 5.0529 0 0 1-1.42969 3.83478 5.23713 5.23713 0 0 1-3.77 1.36493 5.41349 5.41349 0 0 1-3.89941-1.36493 5.04426 5.04426 0 0 1-1.4303-3.83478v-34.96823q.00018-8.44873-3.4447-12.47977-3.44568-4.028-10.98487-4.02949-8.7105 0-13.90881 5.32973-5.20074 5.33187-5.20032 14.42889v31.7189a4.74352 4.74352 0 0 1-5.19971 5.19971 5.41352 5.41352 0 0 1-3.89941-1.36493 5.0443 5.0443 0 0 1-1.4303-3.83478v-82.67633a4.82035 4.82035 0 0 1 1.495-3.63943 5.32126 5.32126 0 0 1 3.83471-1.43025 5.187 5.187 0 0 1 3.83472 1.36493 5.00583 5.00583 0 0 1 1.365 3.70475v34.0587a21.10058 21.10058 0 0 1 8.70972-8.70971 26.59205 26.59205 0 0 1 12.73987-2.98992q11.1782 0 16.89865 6.30458z"/><path fill="none" d="M205.864 420.033l104.45-12.548-35.161-45.04-42.246-.776-27.043 58.364zm88.26509-279.30946l2.26276-38.25733a14.18357 14.18357 0 0 1-5.96924-3.84053l-108.27527 7.91994 25.06917 18.59969 29.32935-13.46666zM97.609 349.353q-.60256-.19382-1.183-.433c-.24473-.09821-.48367-.2056-.72225-.31525q-.15349-.07209-.30527-.147a16.112 16.112 0 0 1-9.077-13.85086L42.351 312.53984l47.89547 65.60355a14.37741 14.37741 0 0 1 1.93407-1.01364l5.68454-27.68808c-.08-.02426-.15644-.05628-.2359-.0817zm18.673-24.057l28.595-3.793-16.528-21.524-12.067 25.317zm-9.05317 24.14787l-4.96345 27.26562a14.43958 14.43958 0 0 1 9.37333 17.90088l70.47663 34.89263a16.444 16.444 0 0 1 4.10381-6.14948L111.045 347.7033a16.02514 16.02514 0 0 1-3.81617 1.74057zm234.55584-170.39133l41.36926-10.77895a14.406 14.406 0 0 1 1.51575-3.05737l-77.8139-63.42467-3.26212 43.70591 34.852 17.57922zm-4.80749 125.71283L371.822 302.398c-.00518-.16181-.02441-.31989-.02441-.48294a14.978 14.978 0 0 1 4.5285-10.74274l-14.58261-16.6253.051.24423zm-160.06787-190.7437a13.87654 13.87654 0 0 1-4.9289 2.34321l-3.10385 26.3843 28.87956-13.26013zm207.85113 171.16338l9.4498-97.43219a13.60211 13.60211 0 0 1-10.92017-7.95784l-39.44717 9.10511 13.80261 66.03946zM212.994 429.865a16.385 16.385 0 0 1 .9435 5.4487c0 .24838-.02628.49-.03717.73569l54.54326-.0564 41.21041-14.7419a15.42768 15.42768 0 0 1-.501-3.678zm94.72243-339.60409l-.00286.03839c.18792-.12725.21154-.15467.00286-.03839zM300.82108 74.79a14.18848 14.18848 0 0 1 13.21622 9.04268l57.15255 15.24742-58.98077-42.254a12.52021 12.52021 0 0 1-20.57327-9.59176l.00164-.033-77.325-8.39065c-.03778.29888-.07935.5966-.1357.88934l78.45149 37.70577a14.115 14.115 0 0 1 8.19284-2.6158zm-256.067 228.59246l44.58861 21.14521a16.19777 16.19777 0 0 1 2.22766-2.49393L56.05944 220.94309l-17.14215 68.57426a13.4444 13.4444 0 0 1 5.83679 13.86508zM411.2265 173.14882a14.41546 14.41546 0 0 1-1.15628 5.67128l19.28064 29.79762-22.74121-70.48672-.96565 23.617a14.42822 14.42822 0 0 1 5.5825 11.40082zM298.99942 95.38791l-.166-.13526c-.15135.18655-.07231.21613.166.13526zm-117.36093 1.99201l105.00165-8.67869a14.16593 14.16593 0 0 1 .50589-3.47843L209.07715 48.026a13.75947 13.75947 0 0 1-11.02835 2.75259l-19.90759 41.65188a13.61749 13.61749 0 0 1 3.49728 4.94945zM66.5035 187.902l88.68394-81.14656a13.93867 13.93867 0 0 1-.54677-3.52674l-49.33386-13.70788a13.63164 13.63164 0 0 1-10.15989 10.03393l-29.54316 87.858c.30862.14925.60475.318.89974.48925zm-20.41487 11.7499a13.60825 13.60825 0 0 1 9.08654-12.7926l.10307-.41235.10375.348c.29644-.10039.59331-.199.898-.27922l24.99695-74.33957-41.38719 60.72259a13.50616 13.50616 0 0 1-4.08787 23.39076l.1425 67.49692 13.74473-54.98124a13.53211 13.53211 0 0 1-3.60048-9.15329zM168.39525 88.89575l21.00624-43.3827a13.94118 13.94118 0 0 1-1.43257-2.30731l-79.06348 37.84917 48.48623 13.46765a13.91767 13.91767 0 0 1 11.00358-5.62681zm144.90462 6.3569l80.24539 63.80059a14.47828 14.47828 0 0 1 2.89279-.35455l1.265-26.78839a14.35326 14.35326 0 0 1-13.13639-15.47475q.04707-.576.14039-1.14687zm66.92194 220.14758l-46.833 89.27148a15.51217 15.51217 0 0 1 2.47537 2.14874L390.47 368.32534a13.52944 13.52944 0 0 1 6.18792-14.238l-10.58142-37.17987a14.9262 14.9262 0 0 1-5.85469-1.50724zm-265.29793-83.80196l-46.45272-21.58618a13.52072 13.52072 0 0 1-5.32615 2.7796L99.89059 318.0313a15.66134 15.66134 0 0 1 9.40655 1.33533c.03334.01541.06906.026.10228.04168l12.85-27.37335-16.85609-21.9519zm44.24586-84.39218l3.72054-31.6257c-.36818-.16472-.73-.34027-1.08057-.53509l-89.38077 79.79838a12.75165 12.75165 0 0 1 .67247 7.25541l44.05759 20.47335 15.66883-63.2714zm-6.68561 184.20375l-33.7998 4.76691c.00006.01739.00261-2.19153.00261-2.17411a4.34 4.34 0 0 1-.23547 1.75733 16.05945 16.05945 0 0 1-.63859 3.04471l77.15664 78.34881 26.59732-55.6929-46.66573-.8569zm175.83359-16.18579l-39.30737 47.475-.611-.0112 31.39291 40a15.34476 15.34476 0 0 1 3.21552-.68975l48.10464-89.6449zm73.43628-15.02133a15.14632 15.14632 0 0 1 .10428 1.71234c0 5.32852-1.99652 8.2861-4.96844 11.67035l7.664 31.9404 28.23861-84.55176-31.279 37.33337a14.05616 14.05616 0 0 1 .24055 1.8953zm24.87579-60.07216a13.561 13.561 0 0 1 5.312-10.71883l-28.20737-43.59028c-.09552.05268-.19424.09953-.291.1501l-9.528 102.69012c.11044.05908.21551.1254.32425.18729l36.221-39.28594a13.56239 13.56239 0 0 1-3.83088-9.43246z"/><path fill="url(#a)" d="M309.60089 187.43819l32.18378-8.38565-3.339-15.97586-34.852-17.57922-2.623 35.14337a15.0493 15.0493 0 0 1 8.63022 6.79736zm-63.06245 144.81293l-13.63071 29.41769 42.24572.77573-24.1738-30.96588a16.09141 16.09141 0 0 1-4.44121.77246zm81.77928-17.02707l-66.61093 4.4686a16.03816 16.03816 0 0 1-2.54874 5.73657l29.2414 37.2586.611.0112zM283.693 203.78821L166.40709 240.6446c-.08609 2.26136-.73509 3.24963-1.79612 5.09974l74.43009 55.84677a16.04337 16.04337 0 0 1 6.93429-1.58282c.385 0 .76211.0311 1.14039.05762l39.10115-93.73313a13.68129 13.68129 0 0 1-2.52389-2.54457zm12.95294 6.27479c-.50131 0-.99606-.027-1.48471-.0749l-39.21761 93.48388a16.17 16.17 0 0 1 4.926 6.46411l76.10758-5.17071 24.81738-29.97415-.051-.24424-58.08721-66.22381a14.9547 14.9547 0 0 1-7.01043 1.73982zm13.39093-8.22852l47.60858 53.10514-13.80261-66.03945-32.23239 7.43978a14.91433 14.91433 0 0 1-1.57358 5.49453zm-18.27997-21.00295l2.37216-40.108-57.58322-29.04489-29.32934 13.46666 79.28225 58.82231a14.998 14.998 0 0 1 5.25815-3.13608zM230.43 320.41686l-77.9459 10.993 22.417 29.19385 46.66572.8569 15.28758-32.01108a16.14739 16.14739 0 0 1-6.4244-9.03267zM163.65906 231.947l117.28424-36.86086a13.46527 13.46527 0 0 1 .59946-3.43128l-83.78664-62.16581-28.87956 13.26014-10.02487 85.21681a13.64923 13.64923 0 0 1 4.80737 3.981zm-13.86101-5.07932l9.37168-79.66158-26.34188 12.0949-15.66885 63.27144 23.77124 11.04635a13.61108 13.61108 0 0 1 8.86781-6.75111zm81.76056 82.05949l-73.194-56.36717a12.82444 12.82444 0 0 1-7.87187.964l-22.1433 46.455 16.52756 21.524 86.1526-11.42624c.15955-.39248.34022-.77306.52901-1.14959zm-92.03386-65.89708l-24.60087-11.43182-9.53055 38.48479 16.85611 21.9519 20.24339-43.12269a13.52693 13.52693 0 0 1-2.96808-5.88218z"/><path fill="url(#b)" d="M444.99359 227.39734L412.088 125.39509l-.54981-.71453a14.43725 14.43725 0 0 0-16.42428-21.09848L316.6717 46.94362a12.50531 12.50531 0 0 0-21.89377-7.98668l-82.289-9.11977c-.09646-.13526-.21041-.25623-.3116-.38784a13.93809 13.93809 0 0 0-24.794 2.80923l-87.354 42.99388a13.56743 13.56743 0 0 0-18.1964 19.90323l-50.9266 74.72142a13.57607 13.57607 0 0 0-4.22611 26.32608l.19508 91.85059a13.5952 13.5952 0 0 0 4.5043 26.43463c.35036 0 .679-.07739 1.02289-.10345l51.85845 71.03381a14.4277 14.4277 0 0 0 19.75962 18.0657l78.54731 38.79194a1.6778 1.6778 0 0 0 .20012.34512 16.4225 16.4225 0 0 0 26.21405 4.44864c.12365.01269.23572.037.36466.04434h60.67982l46.83234-16.38315a15.416 15.416 0 0 0 23.14374-12.48208l56.75961-41.02045a13.562 13.562 0 0 0 17.20248-20.618l31.294-103.82936a13.57384 13.57384 0 0 0-.265-25.38411zM406.60965 138.131l22.74121 70.48667-19.28064-29.79763A14.44862 14.44862 0 0 0 405.644 161.748zm-8.90655-6.22074l-1.265 26.78839a14.479 14.479 0 0 0-2.89279.35456L313.2999 95.25266l71.40717 20.036a14.35327 14.35327 0 0 0 11.84915 16.48122q.57037.09327 1.14685.1404zm-183.39058-93.0996l77.325 8.39065-.00165.033a12.52021 12.52021 0 0 0 20.57321 9.59174l58.98077 42.25405-57.15255-15.24746a14.16609 14.16609 0 0 0-21.409-6.42682L214.17682 39.7c.05635-.29274.09792-.59046.1357-.88934zm93.401 51.48863l.00286-.03839c.20873-.11627.18511-.08885-.00284.03839zm-8.71412 5.08862c-.23834.08086-.31738.05129-.166-.13526zm-100.9506-44.6093a13.75946 13.75946 0 0 0 11.02835-2.75261L287.146 85.22281a14.16593 14.16593 0 0 0-.50589 3.47843l-105.00162 8.67868a13.61732 13.61732 0 0 0-3.49728-4.94947zm-10.07986-7.57293a13.94019 13.94019 0 0 0 1.43257 2.30732l-21.00626 43.38275a13.91767 13.91767 0 0 0-11.00358 5.62681l-48.48623-13.46765zm-92.822 56.34907a13.63165 13.63165 0 0 0 10.15989-10.03393l49.33386 13.70787a13.93829 13.93829 0 0 0 .54677 3.52674L66.5035 187.902c-.295-.17123-.59112-.34-.89974-.48921zm-59.345 96.73476a13.50616 13.50616 0 0 0 4.08787-23.39078L81.277 112.17618 56.28 186.51577c-.30472.08018-.60159.17883-.898.27922l-.10375-.348-.10307.41235a13.50807 13.50807 0 0 0-5.48607 21.94589l-13.74473 54.9812zm3.11541 93.22784l17.14209-68.57426 35.51091 101.09065a16.19777 16.19777 0 0 0-2.22766 2.49393l-44.58861-21.14521a13.44441 13.44441 0 0 0-5.83679-13.86508zm53.26323 87.61237a14.37741 14.37741 0 0 0-1.93407 1.01364l-47.89557-65.60355 43.97047 22.067a16.11206 16.11206 0 0 0 9.077 13.85086q.1517.07521.30527.147c.23858.10965.47752.217.72225.31525q.58056.23877 1.183.433l.0202.007c.07947.02542.15589.05744.23591.0817zm89.93476 52.37328l-70.47664-34.89263a14.43957 14.43957 0 0 0-9.37332-17.90088l4.96344-27.26562a16.02546 16.02546 0 0 0 3.81614-1.74057l75.17419 75.65026a16.444 16.444 0 0 0-4.10381 6.14944zm86.32827 6.49l-54.54326.0564c.01089-.2457.03717-.48734.03717-.73569a16.3847 16.3847 0 0 0-.9435-5.4487l96.159-12.292a15.42768 15.42768 0 0 0 .501 3.678zm54.56418-33.995a15.34476 15.34476 0 0 0-3.21552.68975l-31.39291-40-13.24591-.24325 35.161 45.04016L205.86473 420.033l27.043-58.3642-11.34092-.20822-26.59732 55.6929-77.15665-78.34881a16.05945 16.05945 0 0 0 .63859-3.04471 4.34 4.34 0 0 0 .23547-1.75733c0-.01739-.00255 2.1915-.00261 2.17411l33.79981-4.76691-7.6071-9.90683-28.595 3.79251 12.06744-25.31651-6.1-7.944-12.85 27.37335c-.03322-.01562-.06894-.02627-.10228-.04168a15.66134 15.66134 0 0 0-9.40655-1.33533L63.145 212.79169a13.52072 13.52072 0 0 0 5.32615-2.7796l46.45272 21.58616 2.23514-9.02581-44.05757-20.47335a12.75174 12.75174 0 0 0-.67248-7.25541l89.38077-79.79837c.35052.19483.71238.37037 1.08056.53508l-3.72053 31.6257 9.70682-4.45691 3.10385-26.3843a13.87649 13.87649 0 0 0 4.92889-2.34321l20.8468 15.46738 9.46041-4.34373-25.06917-18.59969 108.27525-7.91994a14.18366 14.18366 0 0 0 5.96924 3.84053l-2.26276 38.25734 9.4646 4.77391 3.26212-43.70591 77.8139 63.42469a14.406 14.406 0 0 0-1.51575 3.05737l-41.36929 10.77892 2.0582 9.84763 39.44713-9.10511a13.60209 13.60209 0 0 0 10.92017 7.95784l-9.44977 97.43215-27.115-30.24543 4.098 19.60737 14.58264 16.62533a14.978 14.978 0 0 0-4.52844 10.74274c0 .163.01923.32113.02442.48294l-34.84485 2.36737-8.65949 10.45871 42.79474-2.87088zm67.18969-36.36814a13.63116 13.63116 0 0 0 .27259 2.69547l-54.60584 38.49508a15.51368 15.51368 0 0 0-2.47537-2.14874l46.833-89.27148a14.9262 14.9262 0 0 0 5.85473 1.50723l10.58148 37.17984a13.59415 13.59415 0 0 0-6.46057 11.54257zm4.04206-76.78091c-.10874-.06189-.21381-.12821-.32425-.18729l9.528-102.69012c.0968-.05057.1955-.09742.291-.1501l28.20746 43.59028a13.49644 13.49644 0 0 0-1.48127 20.15129zm10.31424 56.67685l-7.66394-31.9404c2.97192-3.38422 4.96844-6.3418 4.96844-11.67035a15.14632 15.14632 0 0 0-.10428-1.71234 14.05128 14.05128 0 0 0-.2406-1.89533l31.279-37.33337z"/></svg>