<svg xmlns="http://www.w3.org/2000/svg" width="50.534" height="62.562" viewBox="0 0 50.534 62.562"><g id="security" transform="translate(-80.217 -57.781)"><path id="Path_6867" fill="#52de97" d="M298.621,161.252l-23.467-11.544a1.723,1.723,0,0,0-1.534,0l-23.569,11.51A1.825,1.825,0,0,0,249,162.8v22.023c0,5.835,3.853,12.983,8.677,16.273l15.706,10.686a1.821,1.821,0,0,0,1.012.306,1.792,1.792,0,0,0,1-.307L291,201.1c4.824-3.29,8.535-10.438,8.535-16.273v-21.99A1.7,1.7,0,0,0,298.621,161.252Zm-2.615,23.572c0,4.631-3.162,10.749-6.992,13.36l-14.639,10.009-14.731-10.009c-3.828-2.611-7.119-8.729-7.119-13.36V163.9l21.741-10.647,21.741,10.679Z" data-name="Path 6867" transform="translate(-168.783 -91.747)"/><path id="Path_6868" fill="#52de97" d="M302.509,236.465a1.763,1.763,0,0,0-2.493,2.493l5.631,5.631a1.763,1.763,0,0,0,2.493,0l12-12a1.763,1.763,0,1,0-2.493-2.493l-10.75,10.75Z" data-name="Path 6868" transform="translate(-204.446 -148.283)"/></g></svg>