<svg xmlns="http://www.w3.org/2000/svg" id="Layer_1" data-name="Layer 1" viewBox="0 0 661.62 177.63"><title>layer5-tag-gray</title><g id="_Group_" data-name="&lt;Group&gt;"><text transform="translate(78.19 151.94)" style="font-size:16.96721076965332px;fill:#3c494f;stroke:#3c494f;stroke-linejoin:round;stroke-width:.4196700155735016px;font-family:Poppins-Regular,Poppins;letter-spacing:.7000232134496367em">THE SERVICE MESH COMPANY</text></g><polygon points="65.84 34.73 47.09 34.73 47.09 128.51 135.99 128.51 135.99 109.76 65.84 109.76 65.84 34.73" style="fill:#3c494f"/><polygon points="182.92 34.73 145.41 128.51 166.8 128.51 192.3 62.87 210.47 109.76 179.3 109.76 172.3 128.51 239.19 128.51 201.68 34.73 182.92 34.73" style="fill:#3c494f"/><polygon points="265.67 67.56 242.22 34.73 218.78 34.73 256.29 91 256.29 128.51 275.05 128.51 275.05 91 312.56 34.73 289.41 34.73 265.67 67.56" style="fill:#3c494f"/><polygon points="320.64 49.5 320.64 53.49 320.64 72.24 320.64 95.12 320.64 128.51 409.55 128.51 409.55 109.76 339.4 109.76 339.4 95.12 339.4 91 393.29 91 393.29 72.24 339.4 72.24 339.4 53.49 409.55 53.49 409.55 34.73 320.64 34.73 320.64 49.5" style="fill:#3c494f"/><path d="M440,52.61h48.1V72.12H445.2L445.38,90h12.87l34,38.51h23.15L481.4,90h13.28a14.56,14.56,0,0,0,14.56-14.56V49.3a14.56,14.56,0,0,0-14.56-14.57h-73v93.78h18.75Z" style="fill:#3c494f"/><rect id="_Path_" width="36.93" height="17.79" x="583.7" y="35.14" data-name="&lt;Path&gt;" style="fill:#828c8c"/><path id="_Path_2" d="M624,95.06V87.69c0-8.49-7.14-15.36-16-15.36H548.45V67.47H526.62v21h75.54v6.56Z" data-name="&lt;Path&gt;" style="fill:#828c8c"/><polygon id="_Path_3" points="548.45 61.66 548.45 52.92 577.66 52.92 577.66 35.13 526.62 35.13 526.62 61.66 548.45 61.66" data-name="&lt;Path&gt;" style="fill:#a0aaaa"/><path id="_Path_4" d="M602.16,100.78v10.35H573v17.79h36c8.3,0,15-6.49,15-14.49V100.78Z" data-name="&lt;Path&gt;" style="fill:#a0aaaa"/><path id="_Path_5" d="M546.7,101.74v9.39h20.21v17.79h-26c-8.3,0-15-6.49-15-14.49V101.74Z" data-name="&lt;Path&gt;" style="fill:#828c8c"/></svg>