<svg xmlns="http://www.w3.org/2000/svg" id="Layer_1" data-name="Layer 1" viewBox="0 0 661.62 177.63"><title>layer5-tag-dark-bg</title><rect width="661.62" height="177.63" style="fill:#3c494f"/><g id="_Group_" data-name="&lt;Group&gt;"><text transform="translate(73.66 157.77)" style="font-size:16.96721076965332px;fill:#fff;stroke:#fff;stroke-linejoin:round;stroke-width:.4196700155735016px;font-family:Poppins-Regular,Poppins;letter-spacing:.7000232134496367em">THE SERVICE MESH COMPANY</text></g><polygon points="61.12 36.56 42.36 36.56 42.36 130.34 131.26 130.34 131.26 111.59 61.12 111.59 61.12 36.56" style="fill:#fff"/><polygon points="178.2 36.56 140.69 130.34 162.08 130.34 187.58 64.69 205.75 111.59 174.58 111.59 167.58 130.34 234.47 130.34 196.95 36.56 178.2 36.56" style="fill:#fff"/><polygon points="260.94 69.38 237.5 36.56 214.05 36.56 251.56 92.83 251.56 130.34 270.32 130.34 270.32 92.83 307.83 36.56 284.68 36.56 260.94 69.38" style="fill:#fff"/><polygon points="315.92 51.33 315.92 55.32 315.92 74.07 315.92 96.95 315.92 130.34 404.82 130.34 404.82 111.59 334.68 111.59 334.68 96.95 334.68 92.83 388.57 92.83 388.57 74.07 334.68 74.07 334.68 55.32 404.82 55.32 404.82 36.56 315.92 36.56 315.92 51.33" style="fill:#fff"/><path d="M435.28,54.44h48.11V74H440.48l.18,17.88h12.87l34,38.51h23.15l-34-38.51H490a14.56,14.56,0,0,0,14.57-14.56V51.12A14.56,14.56,0,0,0,490,36.56h-73v93.78h18.76Z" style="fill:#fff"/><rect id="_Path_" width="36.93" height="17.79" x="578.97" y="36.96" data-name="&lt;Path&gt;" style="fill:#00b39f"/><path id="_Path_2" d="M619.26,96.89V89.51c0-8.48-7.14-15.36-16-15.36H543.72V69.3H521.9v21h75.54v6.57Z" data-name="&lt;Path&gt;" style="fill:#00b39f"/><polygon id="_Path_3" points="543.72 63.49 543.72 54.75 572.94 54.75 572.94 36.96 521.9 36.96 521.9 63.49 543.72 63.49" data-name="&lt;Path&gt;" style="fill:#00d3a9"/><path id="_Path_4" d="M597.44,102.61V113H568.22v17.79h36a14.77,14.77,0,0,0,15-14.49V102.61Z" data-name="&lt;Path&gt;" style="fill:#00d3a9"/><path id="_Path_5" d="M542,103.57V113h20.22v17.79h-26a14.77,14.77,0,0,1-15-14.49V103.57Z" data-name="&lt;Path&gt;" style="fill:#00b39f"/></svg>