<svg xmlns="http://www.w3.org/2000/svg" id="Layer_1" data-name="Layer 1" viewBox="0 0 661.62 177.63"><title>layer5-tag-black-bg</title><rect width="661.62" height="177.63"/><g id="_Group_" data-name="&lt;Group&gt;"><text transform="translate(78.38 157.77)" style="font-size:16.96721076965332px;fill:#fff;stroke:#fff;stroke-linejoin:round;stroke-width:.4196700155735016px;font-family:Poppins-Regular,Poppins;letter-spacing:.7000232134496367em">THE SERVICE MESH COMPANY</text></g><polygon points="65.84 36.56 47.09 36.56 47.09 130.34 135.99 130.34 135.99 111.59 65.84 111.59 65.84 36.56" style="fill:#fff"/><polygon points="182.92 36.56 145.41 130.34 166.8 130.34 192.3 64.69 210.47 111.59 179.3 111.59 172.3 130.34 239.19 130.34 201.68 36.56 182.92 36.56" style="fill:#fff"/><polygon points="265.67 69.38 242.22 36.56 218.78 36.56 256.29 92.83 256.29 130.34 275.05 130.34 275.05 92.83 312.56 36.56 289.41 36.56 265.67 69.38" style="fill:#fff"/><polygon points="320.64 51.33 320.64 55.32 320.64 74.07 320.64 96.95 320.64 130.34 409.55 130.34 409.55 111.59 339.4 111.59 339.4 96.95 339.4 92.83 393.29 92.83 393.29 74.07 339.4 74.07 339.4 55.32 409.55 55.32 409.55 36.56 320.64 36.56 320.64 51.33" style="fill:#fff"/><path d="M440,54.44h48.1V74H445.2l.18,17.88h12.87l34,38.51h23.15l-34-38.51h13.28a14.56,14.56,0,0,0,14.56-14.56V51.12a14.56,14.56,0,0,0-14.56-14.56h-73v93.78h18.75Z" style="fill:#fff"/><rect id="_Path_" width="36.93" height="17.79" x="583.7" y="36.96" data-name="&lt;Path&gt;" style="fill:#fff"/><path id="_Path_2" d="M624,96.89V89.51c0-8.48-7.14-15.36-16-15.36H548.45V69.3H526.62v21h75.54v6.57Z" data-name="&lt;Path&gt;" style="fill:#fff"/><polygon id="_Path_3" points="548.45 63.49 548.45 54.75 577.66 54.75 577.66 36.96 526.62 36.96 526.62 63.49 548.45 63.49" data-name="&lt;Path&gt;" style="fill:#fff;opacity:.6000000000000001"/><path id="_Path_4" d="M602.16,102.61V113H573v17.79h36c8.3,0,15-6.49,15-14.49V102.61Z" data-name="&lt;Path&gt;" style="fill:#fff;opacity:.6000000000000001"/><path id="_Path_5" d="M546.7,103.57V113h20.21v17.79h-26c-8.3,0-15-6.49-15-14.49V103.57Z" data-name="&lt;Path&gt;" style="fill:#fff"/></svg>