<svg xmlns="http://www.w3.org/2000/svg" id="Layer_1" data-name="Layer 1" viewBox="0 0 661.62 177.63"><title>layer5-tag-community-light-bg</title><g id="_Group_" data-name="&lt;Group&gt;"><text transform="translate(52.78 151.94)" style="font-size:16.96721076965332px;fill:#3c494f;stroke:#3c494f;stroke-linejoin:round;stroke-width:.4196700155735016px;font-family:Poppins-Regular,Poppins;letter-spacing:.7000232134496367em">THE SERVICE MESH COMMUNITY</text></g><polygon points="61.12 34.73 42.36 34.73 42.36 128.51 131.26 128.51 131.26 109.76 61.12 109.76 61.12 34.73" style="fill:#3c494f"/><polygon points="178.2 34.73 140.69 128.51 162.08 128.51 187.58 62.87 205.75 109.76 174.58 109.76 167.58 128.51 234.47 128.51 196.95 34.73 178.2 34.73" style="fill:#3c494f"/><polygon points="260.94 67.56 237.5 34.73 214.05 34.73 251.56 91 251.56 128.51 270.32 128.51 270.32 91 307.83 34.73 284.68 34.73 260.94 67.56" style="fill:#3c494f"/><polygon points="315.92 49.5 315.92 53.49 315.92 72.25 315.92 95.12 315.92 128.51 404.82 128.51 404.82 109.76 334.68 109.76 334.68 95.12 334.68 91 388.57 91 388.57 72.25 334.68 72.25 334.68 53.49 404.82 53.49 404.82 34.73 315.92 34.73 315.92 49.5" style="fill:#3c494f"/><path d="M435.28,52.61h48.11V72.12H440.48L440.66,90h12.87l34,38.51h23.15L476.68,90H490a14.56,14.56,0,0,0,14.57-14.56V49.3A14.57,14.57,0,0,0,490,34.73h-73v93.78h18.76Z" style="fill:#3c494f"/><rect id="_Path_" width="36.93" height="17.79" x="578.97" y="35.14" data-name="&lt;Path&gt;" style="fill:#00b39f"/><path id="_Path_2" d="M619.26,95.06V87.69c0-8.49-7.14-15.36-16-15.36H543.72V67.47H521.9v21h75.54v6.56Z" data-name="&lt;Path&gt;" style="fill:#00b39f"/><polygon id="_Path_3" points="543.72 61.66 543.72 52.92 572.94 52.92 572.94 35.14 521.9 35.14 521.9 61.66 543.72 61.66" data-name="&lt;Path&gt;" style="fill:#00d3a9"/><path id="_Path_4" d="M597.44,100.78v10.35H568.22v17.79h36a14.77,14.77,0,0,0,15-14.49V100.78Z" data-name="&lt;Path&gt;" style="fill:#00d3a9"/><path id="_Path_5" d="M542,101.74v9.39h20.22v17.79h-26a14.77,14.77,0,0,1-15-14.49V101.74Z" data-name="&lt;Path&gt;" style="fill:#00b39f"/></svg>