<svg xmlns="http://www.w3.org/2000/svg" width="91" height="89" fill="none" viewBox="0 0 91 89"><path fill="#326CE5" d="M53.2174 50.3032C53.1023 50.2804 52.9848 50.2714 52.8675 50.2766C52.665 50.2873 52.4666 50.3388 52.2844 50.428C51.9307 50.5987 51.6566 50.8994 51.5192 51.2672C51.3817 51.6351 51.3915 52.0418 51.5465 52.4026L51.5359 52.4177L55.0259 60.8493C58.3649 58.7186 60.8985 55.5359 62.2264 51.8043L53.233 50.2844L53.2174 50.3032ZM39.224 51.4982C39.1483 51.1658 38.9633 50.8684 38.6986 50.6537C38.4338 50.4389 38.1046 50.3193 37.7638 50.3138C37.6632 50.3126 37.5627 50.3215 37.4638 50.3404L37.4487 50.322L28.5334 51.8354C29.8722 55.5376 32.3954 58.6946 35.7115 60.8165L39.1663 52.4681L39.1393 52.4353C39.2668 52.14 39.2965 51.8116 39.224 51.4982ZM46.6905 54.7721C46.5603 54.5293 46.3666 54.3265 46.1302 54.1852C45.8937 54.0439 45.6233 53.9694 45.3478 53.9698C45.0724 53.9701 44.8022 54.0452 44.5661 54.1871C44.3299 54.329 44.1368 54.5323 44.0071 54.7753H43.9998L39.6156 62.7031C42.7547 63.7718 46.1294 63.9454 49.3616 63.2044C49.961 63.068 50.5465 62.9043 51.1181 62.7133L46.7237 54.7717L46.6905 54.7721ZM60.5694 36.3564L53.8239 42.3938L53.8276 42.4131C53.6204 42.5943 53.4661 42.8282 53.3811 43.09C53.296 43.3518 53.2835 43.6317 53.3448 43.9001C53.406 44.1684 53.5388 44.4152 53.729 44.6142C53.9192 44.8131 54.1598 44.9569 54.4251 45.0302L54.4333 45.0666L63.1705 47.5834C63.5482 43.658 62.6349 39.7165 60.5694 36.3572V36.3564ZM48.0373 37.0328C48.05 37.3078 48.1369 37.5742 48.2888 37.8038C48.4407 38.0333 48.652 38.2175 48.9001 38.3367C49.1482 38.4558 49.424 38.5056 49.6982 38.4807C49.9723 38.4557 50.2346 38.357 50.4571 38.1951L50.4837 38.2061L57.8648 32.9728C55.0551 30.2209 51.4193 28.4681 47.5164 27.9842L48.0291 37.0304L48.0373 37.0328ZM40.2209 38.2282C40.4435 38.3901 40.7059 38.4885 40.9801 38.5131C41.2542 38.5377 41.5299 38.4875 41.7778 38.3678C42.0257 38.2482 42.2366 38.0635 42.3878 37.8336C42.5391 37.6036 42.6252 37.3369 42.637 37.0619L42.6747 37.0443L43.1874 27.9838C42.5684 28.0581 41.9536 28.1641 41.3455 28.3013C38.11 29.0286 35.1423 30.6458 32.7772 32.9703L40.2065 38.2368L40.2209 38.2282ZM36.2603 45.0744C36.5262 45.0018 36.7674 44.8584 36.9582 44.6595C37.1491 44.4606 37.2823 44.2136 37.3437 43.9449C37.4051 43.6762 37.3924 43.3958 37.307 43.1338C37.2216 42.8717 37.0666 42.6377 36.8586 42.4569L36.8659 42.4209L30.0832 36.3543C28.014 39.7222 27.1258 43.6835 27.559 47.6125L36.2533 45.1038L36.2603 45.0744ZM42.8482 47.7393L45.3503 48.9425L47.845 47.7418L48.4646 45.0486L46.738 42.8894H43.9593L42.2278 45.0453L42.8482 47.7393Z"/><path fill="#326CE5" d="M86.7136 53.0454L79.5838 22.0764C79.3921 21.2752 79.0249 20.5265 78.5088 19.8844C77.9927 19.2423 77.3405 18.7228 76.5993 18.3633L47.7394 4.5843C46.9914 4.22736 46.1731 4.04211 45.3443 4.04211C44.5156 4.04211 43.6973 4.22736 42.9493 4.5843L14.0951 18.3707C13.3537 18.73 12.7013 19.2493 12.1851 19.8914C11.6688 20.5334 11.3015 21.2821 11.1097 22.0833L3.99146 53.0516C3.8159 53.8343 3.81534 54.6462 3.98983 55.4292C4.04121 55.6678 4.10834 55.9027 4.19076 56.1323C4.33007 56.5242 4.51451 56.8986 4.74037 57.2479C4.83818 57.3973 4.9413 57.5425 5.05344 57.6833L25.0259 82.5151C25.1131 82.6231 25.2092 82.7217 25.3046 82.822C25.618 83.1557 25.9718 83.449 26.358 83.6949C26.8463 84.0023 27.3785 84.2337 27.9364 84.3812C28.3938 84.5066 28.8657 84.5717 29.3401 84.5748H29.6507L61.3683 84.5674C61.5611 84.5665 61.7537 84.5552 61.9453 84.5334C62.2201 84.5023 62.4922 84.4506 62.7593 84.3787C62.9507 84.3283 63.1393 84.268 63.3244 84.1978C63.4689 84.1426 63.6129 84.0873 63.7521 84.0206C63.9604 83.9209 64.1626 83.8085 64.3573 83.6843C64.8599 83.3683 65.3073 82.9722 65.682 82.5118L66.291 81.7547L85.6475 57.6751C86.0185 57.2099 86.31 56.6865 86.5102 56.1262C86.5938 55.8957 86.6621 55.6601 86.7148 55.4206C86.8897 54.6377 86.8892 53.8257 86.7132 53.043L86.7136 53.0454ZM56.7791 65.0901C56.8601 65.3283 56.9562 65.5611 57.0668 65.7871C56.8902 66.096 56.8421 66.462 56.9329 66.8061C57.3529 67.7677 57.8658 68.686 58.4643 69.548C58.7993 69.9886 59.1085 70.4483 59.3904 70.9246C59.46 71.0535 59.5508 71.2532 59.6167 71.3895C59.741 71.5973 59.8205 71.8288 59.85 72.0691C59.8795 72.3094 59.8584 72.5533 59.788 72.7849C59.7176 73.0166 59.5995 73.231 59.4413 73.4143C59.2831 73.5975 59.0882 73.7457 58.8693 73.8492C58.6504 73.9527 58.4123 74.0092 58.1703 74.0151C57.9282 74.021 57.6876 73.9763 57.4639 73.8836C57.2402 73.791 57.0383 73.6525 56.8713 73.4772C56.7043 73.3019 56.5759 73.0936 56.4942 72.8656C56.4283 72.7306 56.3367 72.5505 56.2806 72.4228C56.0833 71.9053 55.9159 71.3767 55.7793 70.8399C55.4798 69.8355 55.0829 68.8627 54.5941 67.9356C54.3815 67.6489 54.0651 67.4568 53.7126 67.4007C53.6574 67.3053 53.4528 66.93 53.3431 66.7365C48.2056 68.6821 42.5315 68.6675 37.4041 66.6956L37.0133 67.4035C36.7343 67.4469 36.4748 67.5734 36.2689 67.7665C35.6799 68.7331 35.2297 69.7775 34.9315 70.8694C34.7962 71.4062 34.6297 71.9348 34.433 72.4523C34.3778 72.5792 34.2853 72.7568 34.2194 72.8914V72.8951L34.2165 72.8984C34.135 73.1266 34.0066 73.3353 33.8395 73.5108C33.6724 73.6864 33.4703 73.825 33.2463 73.9177C33.0224 74.0104 32.7815 74.0551 32.5392 74.0489C32.2969 74.0427 32.0586 73.9859 31.8396 73.882C31.6206 73.778 31.4259 73.6294 31.2679 73.4455C31.1099 73.2617 30.9922 73.0468 30.9224 72.8147C30.8526 72.5826 30.8322 72.3384 30.8625 72.098C30.8929 71.8575 30.9733 71.6261 31.0986 71.4186C31.1636 71.2815 31.2508 71.083 31.3195 70.9541C31.6013 70.4765 31.9104 70.0156 32.2452 69.5737C32.8546 68.689 33.3781 67.7481 33.8085 66.7639C33.8543 66.4302 33.8008 66.0905 33.6547 65.7871L33.969 65.0341C29.2419 62.2441 25.6991 57.8208 24.0089 52.5985L23.2563 52.7266C22.9643 52.5194 22.6201 52.3982 22.2627 52.3767C21.2329 52.5738 20.2247 52.8705 19.2524 53.2627C18.7475 53.4898 18.23 53.688 17.7026 53.8561C17.5778 53.8905 17.3977 53.9249 17.2553 53.956C17.2438 53.9601 17.234 53.965 17.2225 53.9679C17.2137 53.9692 17.2048 53.97 17.1959 53.9703C16.9667 54.0457 16.7242 54.0724 16.4841 54.0487C16.2439 54.025 16.0113 53.9514 15.8012 53.8327C15.5911 53.7139 15.4082 53.5526 15.264 53.3591C15.1199 53.1655 15.0177 52.944 14.9641 52.7087C14.9105 52.4734 14.9066 52.2295 14.9526 51.9926C14.9987 51.7557 15.0937 51.5311 15.2316 51.333C15.3695 51.135 15.5473 50.9679 15.7534 50.8425C15.9596 50.7171 16.1897 50.6361 16.429 50.6047L16.454 50.5986L16.4691 50.5945C16.6136 50.5605 16.7986 50.5127 16.9303 50.4873C17.4798 50.411 18.0332 50.3665 18.5878 50.3539C19.6336 50.2855 20.6704 50.1153 21.6832 49.8456C21.9834 49.6544 22.237 49.3985 22.4256 49.0967L23.1487 48.8855C22.364 43.435 23.6192 37.8867 26.6735 33.3046L26.1198 32.8111C26.0996 32.4529 25.9794 32.1075 25.7727 31.8142C24.9773 31.1304 24.1169 30.5259 23.204 30.0094C22.711 29.758 22.2329 29.4785 21.772 29.1721C21.6673 29.094 21.5281 28.9765 21.4144 28.884L21.3886 28.866C20.9957 28.5838 20.7305 28.1576 20.6509 27.6805C20.5713 27.2034 20.6838 26.7142 20.9638 26.3197C21.1292 26.1172 21.34 25.9566 21.5791 25.8508C21.8183 25.745 22.0789 25.697 22.3401 25.7108C22.7796 25.7297 23.2016 25.8889 23.544 26.1651C23.6615 26.2571 23.8223 26.3803 23.9267 26.4699C24.3287 26.8502 24.7086 27.2533 25.0644 27.6772C25.7702 28.4527 26.5501 29.1575 27.3929 29.7815C27.7087 29.9476 28.077 29.9833 28.4189 29.8809C28.6246 30.031 28.8322 30.1786 29.0417 30.3237C32.0768 27.0976 36.0068 24.8523 40.3273 23.8762C41.3556 23.6433 42.399 23.4829 43.4498 23.3961L43.4907 22.6661C43.759 22.4277 43.9535 22.1176 44.0513 21.7723C44.089 20.7244 44.0246 19.6754 43.859 18.64C43.7492 18.0974 43.6705 17.5489 43.6233 16.9973C43.6188 16.8717 43.6257 16.6981 43.6274 16.5549C43.6274 16.5385 43.6233 16.5222 43.6233 16.5066C43.5988 16.2652 43.6252 16.0213 43.7007 15.7906C43.7763 15.56 43.8994 15.3478 44.0621 15.1677C44.2247 14.9876 44.4234 14.8436 44.6451 14.745C44.8669 14.6464 45.1069 14.5954 45.3496 14.5953C45.5923 14.5951 45.8323 14.6459 46.0541 14.7443C46.276 14.8427 46.4748 14.9865 46.6376 15.1665C46.8004 15.3464 46.9237 15.5585 46.9995 15.7891C47.0753 16.0196 47.102 16.2635 47.0777 16.505C47.0777 16.6564 47.0867 16.8569 47.0813 16.9961C47.0341 17.5476 46.955 18.0959 46.8444 18.6383C46.6778 19.6739 46.6123 20.7232 46.6488 21.7715C46.7171 22.1219 46.9196 22.4318 47.2131 22.635C47.2193 22.7598 47.2397 23.1764 47.2549 23.406C52.7149 23.9025 57.8092 26.364 61.5913 30.3331L62.2485 29.8637C62.6015 29.9243 62.9644 29.8849 63.2962 29.75C64.1388 29.1249 64.9187 28.4193 65.6247 27.6432C65.9813 27.2191 66.3621 26.816 66.7653 26.436C66.8713 26.3451 67.0313 26.2232 67.1483 26.1307C67.3216 25.9598 67.529 25.8273 67.7568 25.7417C67.9847 25.6561 68.228 25.6194 68.4709 25.6339C68.7139 25.6485 68.9511 25.714 69.1671 25.8261C69.3831 25.9383 69.5731 26.0946 69.7248 26.2849C69.8765 26.4753 69.9865 26.6954 70.0476 26.931C70.1087 27.1666 70.1195 27.4124 70.0795 27.6525C70.0395 27.8925 69.9494 28.1215 69.8151 28.3245C69.6808 28.5275 69.5054 28.7 69.3001 28.8308C69.1843 28.9245 69.0312 29.0551 68.9199 29.1378C68.4581 29.4443 67.9789 29.7239 67.4847 29.9751C66.5719 30.4919 65.7116 31.0963 64.9159 31.7798C64.6843 32.051 64.568 32.402 64.5918 32.7579C64.4956 32.8463 64.158 33.1454 63.9792 33.3075C67.0421 37.8732 68.3224 43.4044 67.5772 48.8516L68.2746 49.0545C68.4489 49.3682 68.7067 49.6274 69.0194 49.8035C70.0327 50.0736 71.07 50.2444 72.1165 50.3134C72.6705 50.3261 73.2233 50.3703 73.7723 50.446C73.9175 50.4726 74.1275 50.5307 74.2756 50.5646C74.5149 50.5961 74.745 50.6772 74.9511 50.8027C75.1573 50.9282 75.335 51.0953 75.4728 51.2934C75.6106 51.4916 75.7055 51.7163 75.7515 51.9532C75.7975 52.1902 75.7934 52.4341 75.7397 52.6693C75.686 52.9046 75.5837 53.1261 75.4394 53.3196C75.2952 53.5131 75.1121 53.6743 74.9019 53.793C74.6918 53.9116 74.4591 53.9851 74.2189 54.0086C73.9788 54.0322 73.7363 54.0053 73.5071 53.9298L73.4821 53.9265C73.4706 53.9237 73.46 53.9175 73.4481 53.9142C73.3057 53.8835 73.1269 53.8525 73.0021 53.8197C72.4747 53.6503 71.9575 53.4505 71.4531 53.2214C70.4799 52.8289 69.4707 52.5322 68.4399 52.3354C68.0832 52.3241 67.7362 52.453 67.4733 52.6943C67.2277 52.6477 66.9816 52.6045 66.735 52.565C65.065 57.8198 61.5217 62.2774 56.7791 65.0897V65.0901Z"/><path fill="#fff" d="M90.4782 53.8394L82.6998 20.0527C82.4907 19.1784 82.0901 18.3615 81.5269 17.6609C80.9637 16.9602 80.2519 16.3934 79.4431 16.0012L47.9583 0.969926C47.1423 0.580435 46.2494 0.378296 45.3452 0.378296C44.4409 0.378296 43.5481 0.580435 42.732 0.969926L11.2501 16.0102C10.4412 16.402 9.72941 16.9685 9.16601 17.6688C8.60261 18.369 8.20169 19.1856 7.99217 20.0596L0.227288 53.8484C0.0521389 54.6273 0.0341313 55.4333 0.174319 56.2193C0.314507 57.0053 0.610074 57.7554 1.04372 58.4257C1.15053 58.5894 1.26389 58.7482 1.38666 58.9012L23.1769 85.9948C23.748 86.692 24.4658 87.2547 25.2792 87.6428C26.0926 88.0309 26.9815 88.2349 27.8828 88.2403L62.8264 88.2321C63.7274 88.227 64.6162 88.0234 65.4296 87.6358C66.243 87.2482 66.9611 86.6861 67.5326 85.9895L89.3151 58.8935C89.873 58.191 90.2669 57.3728 90.4681 56.4986C90.6693 55.6244 90.6727 54.7163 90.4782 53.8406V53.8394ZM86.7144 55.4215C86.662 55.6607 86.5939 55.8963 86.5106 56.1266C86.3102 56.6872 86.0184 57.2107 85.6471 57.676L66.2906 81.7547L65.6824 82.5126C65.3074 82.9732 64.8595 83.3692 64.3565 83.6851C64.1624 83.8093 63.961 83.9216 63.7533 84.0215C63.6133 84.0861 63.4708 84.1448 63.3256 84.1975C63.1403 84.268 62.9514 84.3288 62.7597 84.3796C62.4926 84.4516 62.2205 84.5035 61.9457 84.5347C61.7541 84.5563 61.5615 84.5675 61.3687 84.5682L29.6511 84.5756H29.3401C28.8659 84.5726 28.3941 84.5077 27.9368 84.3824C27.3792 84.2346 26.8472 84.0029 26.3592 83.6953C25.9728 83.4496 25.6186 83.1565 25.305 82.8228C25.2096 82.7222 25.1135 82.6235 25.0267 82.5159L5.05384 57.6838C4.94253 57.5435 4.83817 57.3981 4.74077 57.2475C4.51492 56.8982 4.33048 56.5238 4.19117 56.1319C4.10872 55.9021 4.0416 55.6671 3.99023 55.4284C3.81581 54.6456 3.81636 53.8338 3.99187 53.0512L11.1102 22.0821C11.302 21.281 11.6694 20.5325 12.1856 19.8906C12.7019 19.2487 13.3542 18.7295 14.0955 18.3703L42.9501 4.58513C43.6981 4.22819 44.5164 4.04295 45.3452 4.04295C46.1739 4.04295 46.9922 4.22819 47.7402 4.58513L76.5993 18.3642C77.3405 18.7237 77.9927 19.2432 78.5088 19.8853C79.0249 20.5274 79.3921 21.276 79.5838 22.0772L86.7136 53.0459C86.8891 53.8283 86.8894 54.6398 86.7144 55.4223V55.4215Z"/><path fill="#fff" d="M74.2752 50.5651C74.1279 50.5311 73.9176 50.473 73.7731 50.4464C73.2242 50.3705 72.6713 50.326 72.1173 50.313C71.0706 50.2446 70.0331 50.0743 69.0194 49.8047C68.7066 49.6285 68.4488 49.3689 68.2746 49.055L67.5772 48.852C68.3227 43.4049 67.0427 37.8737 63.98 33.3079C64.1585 33.1459 64.4965 32.8467 64.5919 32.7587C64.5681 32.4029 64.6844 32.0519 64.916 31.7806C65.7116 31.0971 66.572 30.4927 67.4848 29.9759C67.9789 29.7247 68.4581 29.4452 68.92 29.1386C69.0313 29.0559 69.1835 28.925 69.3001 28.8317C69.5053 28.7009 69.6808 28.5284 69.815 28.3255C69.9493 28.1225 70.0394 27.8936 70.0795 27.6536C70.1195 27.4136 70.1087 27.1678 70.0477 26.9323C69.9866 26.6967 69.8767 26.4766 69.7252 26.2862C69.5736 26.0959 69.3836 25.9395 69.1677 25.8273C68.9518 25.7151 68.7147 25.6495 68.4718 25.6349C68.2289 25.6202 67.9856 25.6568 67.7578 25.7422C67.5299 25.8276 67.3226 25.96 67.1492 26.1307C67.0313 26.2236 66.8709 26.3456 66.7661 26.4364C66.3626 26.8164 65.9815 27.2195 65.6248 27.6437C64.9187 28.4198 64.1389 29.1253 63.2962 29.7504C62.9644 29.8853 62.6015 29.9248 62.2486 29.8642L61.5913 30.3336C57.8092 26.3644 52.715 23.903 47.2549 23.4064C47.2389 23.1768 47.2193 22.761 47.2132 22.6354C46.9199 22.4321 46.7177 22.1222 46.6496 21.7719C46.6131 20.7237 46.6786 19.6744 46.8453 18.6388C46.9552 18.0965 47.0338 17.5483 47.0806 16.9969C47.0859 16.8578 47.0777 16.6556 47.0777 16.5054C47.102 16.264 47.0754 16.0201 46.9996 15.7895C46.9238 15.559 46.8005 15.3469 46.6376 15.1669C46.4748 14.9869 46.276 14.8431 46.0542 14.7447C45.8323 14.6464 45.5923 14.5956 45.3496 14.5957C45.1069 14.5958 44.8669 14.6468 44.6452 14.7454C44.4234 14.844 44.2248 14.988 44.0621 15.1681C43.8994 15.3482 43.7763 15.5604 43.7008 15.7911C43.6252 16.0217 43.5988 16.2656 43.6233 16.5071C43.6233 16.5234 43.627 16.539 43.6274 16.5554C43.6258 16.6986 43.6188 16.8721 43.6233 16.9973C43.6705 17.5491 43.7492 18.0977 43.859 18.6404C44.0247 19.6758 44.0891 20.7249 44.0514 21.7727C43.9534 22.1177 43.7588 22.4275 43.4907 22.6657L43.4498 23.3966C42.399 23.4833 41.3556 23.6437 40.3273 23.8766C36.0074 24.8529 32.0777 27.098 29.043 30.3238C28.8329 30.1789 28.6248 30.0313 28.4185 29.881C28.0768 29.9832 27.7086 29.9475 27.3929 29.7815C26.5502 29.1576 25.7703 28.453 25.0644 27.6776C24.709 27.2538 24.3296 26.8507 23.9279 26.4704C23.8228 26.3803 23.6619 26.2576 23.5441 26.1634C23.2016 25.8872 22.7796 25.7281 22.3401 25.7092C22.0789 25.6955 21.8182 25.7436 21.5791 25.8495C21.3399 25.9555 21.1292 26.1163 20.9638 26.319C20.6838 26.7134 20.5714 27.2026 20.651 27.6797C20.7305 28.1568 20.9957 28.583 21.3886 28.8652L21.4152 28.8841C21.5282 28.9765 21.6673 29.0948 21.7721 29.1713C22.2329 29.478 22.711 29.7578 23.204 30.0095C24.1169 30.5263 24.9771 31.131 25.7724 31.815C25.9789 32.1081 26.0993 32.4531 26.1198 32.8111L26.6727 33.3055C23.6187 37.8876 22.3638 43.436 23.1487 48.8864L22.4256 49.0967C22.2369 49.3981 21.9833 49.6536 21.6833 49.8444C20.6703 50.1148 19.6335 50.2857 18.5874 50.3547C18.0329 50.3673 17.4797 50.4119 16.9304 50.4881C16.7978 50.5127 16.6136 50.5593 16.4692 50.5954L16.454 50.5986L16.4295 50.606C16.1902 50.6374 15.9602 50.7185 15.7541 50.8439C15.548 50.9694 15.3703 51.1365 15.2325 51.3345C15.0947 51.5326 14.9997 51.7572 14.9537 51.9941C14.9077 52.231 14.9116 52.4748 14.9652 52.7101C15.0189 52.9453 15.121 53.1668 15.2652 53.3603C15.4093 53.5538 15.5923 53.7151 15.8023 53.8338C16.0124 53.9526 16.2449 54.0262 16.485 54.0499C16.7251 54.0736 16.9676 54.0469 17.1968 53.9716L17.2226 53.9675C17.234 53.965 17.2438 53.9593 17.2553 53.9572C17.3977 53.9245 17.577 53.8905 17.7022 53.8566C18.2295 53.6882 18.7468 53.49 19.2516 53.2628C20.2242 52.8705 21.2327 52.5738 22.2627 52.3768C22.6199 52.3986 22.9639 52.5201 23.2556 52.7275L24.0085 52.5986C25.6989 57.821 29.242 62.2443 33.9694 65.0341L33.6547 65.7871C33.801 66.0905 33.8547 66.4302 33.809 66.7639C33.3785 67.7479 32.855 68.6885 32.2457 69.5729C31.9107 70.0147 31.6015 70.4755 31.3196 70.9529C31.2508 71.083 31.1637 71.2823 31.0978 71.4186C30.9731 71.6261 30.8933 71.8574 30.8634 72.0976C30.8335 72.3378 30.8542 72.5816 30.9242 72.8134C30.9942 73.0451 31.1119 73.2596 31.2698 73.4431C31.4277 73.6265 31.6223 73.7749 31.841 73.8787C32.0597 73.9825 32.2977 74.0393 32.5397 74.0456C32.7816 74.0518 33.0223 74.0073 33.246 73.915C33.4698 73.8227 33.6717 73.6845 33.8389 73.5094C34.006 73.3343 34.1347 73.1262 34.2166 72.8984L34.2194 72.8951V72.891C34.2849 72.756 34.3778 72.5788 34.4331 72.4523C34.6298 71.9348 34.7962 71.4063 34.9315 70.8694C35.2297 69.7776 35.6799 68.7331 36.2689 67.7666C36.4748 67.5733 36.7343 67.4467 37.0133 67.4032L37.405 66.6952C42.5322 68.6668 48.2059 68.6812 53.3431 66.7357C53.4528 66.9313 53.6574 67.3054 53.7114 67.3999C54.0643 67.4563 54.3809 67.6487 54.5934 67.936C55.0823 68.863 55.4795 69.8356 55.7793 70.84C55.9159 71.3768 56.0833 71.9053 56.2806 72.4229C56.3367 72.5506 56.428 72.7298 56.4943 72.8657C56.5759 73.0936 56.7044 73.3019 56.8714 73.4773C57.0384 73.6526 57.2402 73.791 57.4639 73.8837C57.6876 73.9763 57.9282 74.0211 58.1703 74.0152C58.4123 74.0092 58.6505 73.9527 58.8694 73.8492C59.0883 73.7457 59.2831 73.5976 59.4413 73.4143C59.5995 73.231 59.7176 73.0166 59.788 72.785C59.8584 72.5533 59.8795 72.3095 59.85 72.0691C59.8205 71.8288 59.7411 71.5973 59.6167 71.3896C59.5509 71.2533 59.46 71.054 59.3917 70.9247C59.1098 70.4483 58.8006 69.9886 58.4656 69.548C57.867 68.6861 57.3541 67.7677 56.9342 66.8061C56.843 66.4622 56.8906 66.0962 57.0668 65.7871C56.9562 65.5611 56.8601 65.3283 56.7791 65.0902C61.5217 62.2778 65.0651 57.8202 66.735 52.5654C66.9585 52.601 67.3477 52.669 67.4741 52.6947C67.7368 52.4536 68.0835 52.3248 68.4399 52.3358C69.4703 52.5327 70.4791 52.8294 71.4519 53.2218C71.9567 53.451 72.4743 53.6508 73.0021 53.8201C73.1269 53.8529 73.3049 53.884 73.4482 53.9155C73.46 53.9188 73.4707 53.9237 73.4821 53.927L73.5067 53.9306C73.7358 54.0058 73.9781 54.0324 74.2181 54.0086C74.4581 53.9849 74.6905 53.9113 74.9004 53.7926C75.1104 53.6739 75.2932 53.5127 75.4373 53.3193C75.5814 53.1259 75.6836 52.9046 75.7373 52.6695C75.791 52.4344 75.795 52.1906 75.7491 51.9539C75.7033 51.7171 75.6085 51.4925 75.4709 51.2945C75.3333 51.0964 75.1559 50.9292 74.95 50.8036C74.7441 50.678 74.5143 50.5968 74.2752 50.5651ZM57.8648 32.9732L50.4834 38.2061L50.4576 38.1938C50.2352 38.356 49.9729 38.455 49.6987 38.4801C49.4246 38.5052 49.1487 38.4556 48.9005 38.3364C48.6523 38.2173 48.441 38.0331 48.2891 37.8035C48.1372 37.5739 48.0503 37.3074 48.0378 37.0324L48.0296 37.0283L47.5168 27.9829C51.4196 28.4675 55.0552 30.2208 57.8644 32.9732H57.8648ZM43.9597 42.8882H46.7376L48.4646 45.0473L47.8454 47.7401L45.3507 48.9408L42.8486 47.7376L42.2282 45.0436L43.9597 42.8882ZM41.3463 28.2997C41.9548 28.1627 42.5699 28.057 43.1891 27.9829L42.6755 37.0422L42.6379 37.0602C42.6263 37.3353 42.5403 37.6021 42.389 37.8322C42.2378 38.0623 42.027 38.247 41.7791 38.3668C41.5311 38.4865 41.2554 38.5368 40.9811 38.5123C40.7069 38.4877 40.4444 38.3893 40.2217 38.2274L40.2074 38.2356L32.7781 32.9678C35.1432 30.6436 38.111 29.0267 41.3463 28.2997ZM30.0841 36.3535L36.8668 42.42L36.8594 42.4568C37.0673 42.6377 37.2222 42.8717 37.3076 43.1337C37.393 43.3957 37.4056 43.676 37.3442 43.9446C37.2828 44.2132 37.1496 44.4602 36.9589 44.6591C36.7681 44.8579 36.527 45.0013 36.2611 45.0739L36.2542 45.1034L27.5599 47.612C27.1267 43.6831 28.0149 39.7218 30.0841 36.3539V36.3535ZM39.1655 52.4693L35.7111 60.8165C32.3955 58.6941 29.8729 55.5368 28.5347 51.8345L37.4492 50.3204L37.4643 50.3404C37.5627 50.3215 37.6628 50.3126 37.763 50.3138C38.013 50.3175 38.2582 50.3827 38.477 50.5037C38.6958 50.6247 38.8815 50.7977 39.0176 51.0074C39.1536 51.2171 39.236 51.4572 39.2573 51.7063C39.2786 51.9554 39.2382 52.2059 39.1397 52.4357L39.1655 52.4693ZM49.3621 63.2036C46.1299 63.9448 42.7553 63.7715 39.6161 62.7031L44.0002 54.7753H44.0076C44.138 54.5331 44.3314 54.3307 44.5675 54.1895C44.8036 54.0483 45.0735 53.9736 45.3485 53.9733C45.6236 53.9731 45.8936 54.0473 46.13 54.188C46.3663 54.3288 46.5602 54.5309 46.691 54.7729H46.7237L51.1189 62.7137C50.5484 62.9041 49.9628 63.0677 49.3621 63.2044V63.2036ZM55.0263 60.85L51.5363 52.4177L51.547 52.4025C51.3922 52.0418 51.3825 51.6353 51.52 51.2677C51.6574 50.9 51.9314 50.5995 52.2848 50.4288C52.4671 50.3396 52.6654 50.2881 52.868 50.2774C52.9852 50.272 53.1027 50.2806 53.2179 50.3032L53.233 50.2843L62.2269 51.8042C60.8992 55.5364 58.3655 58.7195 55.0263 60.8504V60.85ZM63.1714 47.5825L54.4333 45.0657L54.4252 45.0289C54.1598 44.9556 53.9193 44.8119 53.7291 44.6129C53.5389 44.4139 53.4061 44.1672 53.3448 43.8988C53.2836 43.6304 53.2961 43.3505 53.3811 43.0887C53.4661 42.8269 53.6204 42.593 53.8277 42.4118L53.8244 42.3942L60.5695 36.3576C62.6349 39.7166 63.5483 43.6578 63.171 47.583L63.1714 47.5825Z"/></svg>
