<svg width="122" height="35" viewBox="0 0 122 35" fill="none" xmlns="http://www.w3.org/2000/svg">
<path d="M1.04419 6.98825C1.76619 5.63025 3.88019 3.49224 5.74019 2.23825C8.54619 0.348245 10.4232 -0.0337551 16.7262 0.00224492C29.2372 0.0742449 35.8282 3.44425 35.8282 9.76825C35.8282 12.5322 35.0132 14.0432 31.9482 16.9582C28.4202 20.3152 16.8052 25.9582 13.4242 25.9582C11.5442 25.9582 10.8282 23.7182 10.8282 17.8312C10.8282 10.4772 13.6672 7.96824 22.0332 7.92824C28.8592 7.89524 28.3982 6.68924 21.1002 5.48624C14.9222 4.46824 11.0552 5.61825 9.31119 8.99225C7.44519 12.6002 7.38619 22.8182 9.19119 29.7782C11.0702 37.0202 9.30519 36.0282 4.53519 27.1592C0.20519 19.1102 -1.17081 11.1562 1.04419 6.98825Z" fill="black"/>
<path d="M45.3942 22H42.4283L46.9474 8.90909H50.5142L55.027 22H52.0611L48.782 11.9006H48.6797L45.3942 22ZM45.2088 16.8544H52.2145V19.0149H45.2088V16.8544ZM54.4996 8.90909H57.5998L60.5849 14.5469H60.7127L63.6978 8.90909H66.7979L62.0231 17.3722V22H59.2745V17.3722L54.4996 8.90909ZM69.2301 22H66.2642L70.7834 8.90909H74.3501L78.8629 22H75.897L72.6179 11.9006H72.5156L69.2301 22ZM69.0447 16.8544H76.0504V19.0149H69.0447V16.8544ZM84.6046 22V8.90909H89.7694C90.7623 8.90909 91.6081 9.09872 92.307 9.47798C93.0059 9.85298 93.5385 10.375 93.905 11.044C94.2757 11.7088 94.4611 12.4759 94.4611 13.3452C94.4611 14.2145 94.2736 14.9815 93.8986 15.6463C93.5236 16.3111 92.9803 16.8288 92.2686 17.1996C91.5613 17.5703 90.7047 17.7557 89.699 17.7557H86.4071V15.5376H89.2516C89.7843 15.5376 90.2232 15.446 90.5684 15.2628C90.9178 15.0753 91.1777 14.8175 91.3482 14.4893C91.5229 14.157 91.6103 13.7756 91.6103 13.3452C91.6103 12.9105 91.5229 12.5312 91.3482 12.2074C91.1777 11.8793 90.9178 11.6257 90.5684 11.4467C90.2189 11.2635 89.7757 11.1719 89.2388 11.1719H87.3723V22H84.6046ZM97.0036 22H94.0376L98.5568 8.90909H102.124L106.636 22H103.67L100.391 11.9006H100.289L97.0036 22ZM96.8182 16.8544H103.824V19.0149H96.8182V16.8544ZM106.109 8.90909H109.209L112.194 14.5469H112.322L115.307 8.90909H118.407L113.632 17.3722V22H110.884V17.3722L106.109 8.90909Z" fill="black"/>
</svg>
