<svg xmlns="http://www.w3.org/2000/svg" xmlns:xlink="http://www.w3.org/1999/xlink" id="Layer_1" x="0" y="0" version="1.1" viewBox="0 0 41.2 33.2" xml:space="preserve" style="enable-background:new 0 0 41.2 33.2"><style type="text/css">.st0{fill:#cc9b00}.st1{fill:#fcc000}.st2{fill:#fcce3a}.st3{fill:#011c2b}.st4{fill:#025074}.st5{fill:#c2c2c2}.st6{fill:#b68b00}.st7{fill:#dea900}.st8{fill:#a27b00}.st9{fill:#379780}.st10{fill:#008f7f}.st11{fill:#00b39f}.st12{fill:#c2b6a1}.st13{fill:#fff}.st14{fill:#d3b8a6}.st15{fill:#dcceb6}.st16{fill:#edceba}.st17{fill:#f0e7d8}.st18{fill:#02374f}.st19{fill:#491a09}.st20{fill:#037ab0}.st21{fill:#025e87}.st22{fill:#025375}.st23{fill:#00473d}.st24{fill:#006458}.st25{fill:#00d3a9}.st26{fill:#6f3b21}.st27{fill:#5c311b}.st28{fill:#99522d}.st29{fill:#854727}.st30{fill:#6f3c21}.st31{fill:#b76236}.st32{fill:#e0b477}.st33{fill:#bb884f}.st34{fill:#efcd90}.st35{fill:#f7ecea}.st36{fill:#c2ab9d}.st37{fill:#5c4123}</style><g><path d="M14.2,24.9v1.2l10.7,5.7v-1.2L14.2,24.9z" class="st0"/><path d="M24.9,30.6v1.2l1.2-0.7v-1.2L24.9,30.6z" class="st1"/><path d="M14.2,24.9l10.7,5.7l1.2-0.7l-10.7-5.7L14.2,24.9z" class="st2"/><path d="M26.1,17.4l0.1,1.2l10.7,5.7l-0.1-1.2L26.1,17.4z" class="st0"/><path d="M36.8,23.1l0.1,1.2l1.1-0.8v-1.2C38,22.3,36.8,23.1,36.8,23.1z" class="st1"/><path d="M26.1,17.4l10.7,5.7l1.2-0.8l-10.7-5.7L26.1,17.4z" class="st2"/><path d="M9.6,18.7c0.3-0.2,0.8-0.2,1.4,0c0.1,0,0.1,0.1,0.2,0.1c0.8,0.4,1.5,1.3,1.9,2.2c0.2,0.5,0.4,1,0.4,1.5 c0,0.7-0.2,1.2-0.6,1.4l-1.4,0.9c0.4-0.2,0.6-0.7,0.6-1.4c0-0.5-0.2-1-0.4-1.5c-0.4-0.9-1.1-1.7-1.9-2.2c-0.1,0-0.1-0.1-0.2-0.1 c-0.5-0.2-1-0.2-1.4,0L9.6,18.7z" class="st3"/><path d="M9.7,19.7c-1.2-0.6-2.2-0.1-2.1,1.3c0,1.4,1.1,3,2.3,3.7c1.2,0.6,2.2,0.1,2.1-1.3S10.9,20.3,9.7,19.7z" class="st4"/><path d="M9.7,21c-0.6-0.3-1,0-1,0.6s0.5,1.4,1.1,1.7s1,0,1-0.6S10.3,21.3,9.7,21z" class="st5"/><path d="M2.6,14.9c0.3-0.2,0.8-0.2,1.4,0c0.1,0,0.1,0.1,0.2,0.1c0.8,0.4,1.5,1.3,1.9,2.2c0.2,0.5,0.4,1,0.4,1.5 c0,0.7-0.2,1.2-0.6,1.4L4.5,21c0.4-0.2,0.6-0.7,0.6-1.4c0-0.5-0.2-1-0.4-1.5c-0.4-0.9-1.1-1.7-1.9-2.2c-0.1,0-0.1-0.1-0.2-0.1 c-0.5-0.2-1-0.2-1.4,0C1.2,15.8,2.6,14.9,2.6,14.9z" class="st3"/><path d="M2.7,15.9c-1.2-0.6-2.2-0.1-2.1,1.3c0,1.4,1.1,3,2.3,3.7C4.1,21.5,5.1,21,5,19.6S3.9,16.6,2.7,15.9z" class="st4"/><path d="M2.7,17.2c-0.6-0.3-1,0-1,0.6s0.5,1.4,1.1,1.7s1,0,1-0.6S3.3,17.5,2.7,17.2z" class="st5"/><path d="M16.8,10.4L27.2,16v0.6l-10.3-5.5L16.8,10.4z" class="st6"/><path d="M27.2,16v0.6l0.8-0.5v-0.6L27.2,16z" class="st7"/><path d="M16.8,9.5l11.2,6L27.2,16l-10.4-5.6V9.5z" class="st8"/><path d="M0,13.5l0.1,4.1l12.3,6.5l-0.1-4L0,13.5z" class="st9"/><path d="M12.3,20.1l0.1,4l11.9-7.4l-0.1-4.1L12.3,20.1z" class="st10"/><path d="M0,13.5l12.3,6.6l11.9-7.5L11.8,6L0,13.5z" class="st11"/><path d="M4.2,18.1v0.6l10.7,5.8v-0.7L4.2,18.1z" class="st6"/><path d="M14.9,23.8v0.7l0.8-0.5v-0.7L14.9,23.8z" class="st7"/><path d="M4.2,18.1l10.7,5.7l0.8-0.5L5,17.6L4.2,18.1z" class="st8"/><path d="M15.5,20.2l13.1-8.3l-1.4-0.8L14,19.4L15.5,20.2z" class="st2"/><path d="M15.6,25.7l13.2-8.3l-0.2-5.5l-13.1,8.3C15.5,20.2,15.6,25.7,15.6,25.7z" class="st1"/><path d="M14,19.4l0.2,5.5l1.4,0.8l-0.1-5.5L14,19.4z" class="st0"/><path d="M13.1,12.9l-2.4-1.2v1.7l2.4,1.3V12.9z" class="st12"/><path d="M15.3,11.5l-2.4-1.3l-2.2,1.5l2.4,1.2C13.1,12.9,15.3,11.5,15.3,11.5z" class="st13"/><path d="M13.1,12.9v1.8l2.3-1.4l-0.1-1.8C15.3,11.5,13.1,12.9,13.1,12.9z" class="st14"/><path d="M13.1,13.9l-3.3-1.8v0.3l3.3,1.7V13.9z" class="st15"/><path d="M16.2,11.9l-3.3-1.8l-3.1,2l3.3,1.8L16.2,11.9z" class="st13"/><path d="M13.1,13.9v0.2l3.1-1.9v-0.3C16.2,11.9,13.1,13.9,13.1,13.9z" class="st16"/><path d="M9.9,7.8L9.6,7.6l0.2,4.5l0.2,0.1C10,12.2,9.9,7.8,9.9,7.8z" class="st15"/><path d="M13,5.8l-0.2-0.1L9.6,7.6l0.3,0.2C9.9,7.8,13,5.8,13,5.8z" class="st13"/><path d="M9.9,7.8l0.1,4.4l3.2-1.9L13,5.8L9.9,7.8z" class="st17"/><path d="M15.9,12l-0.1-0.1l-0.3,0.6h0.1C15.7,12.4,15.8,12.2,15.9,12z M15.5,12.6c-0.2,0.1-0.2,0.2-0.3,0.2h0.1 L15.5,12.6z M15.4,12.8L15.1,13h0.2C15.3,12.9,15.3,12.9,15.4,12.8z M15.2,13H15l-0.1,0.1L15.2,13C15.1,13,15.2,13,15.2,13z M15.9,11.6l-0.1-0.1L15.9,11.6z M15.1,13.1h-0.2H15.1C15,13.1,15,13.1,15.1,13.1z M15,13.1h-0.2c-0.2,0.1-0.4,0.2-0.5,0.2h0.2 C14.7,13.3,14.8,13.3,15,13.1z" class="st18"/><g><path d="M15.8,11.3l-0.2-0.1C15.7,11.3,15.7,11.3,15.8,11.3C15.9,11.4,15.8,11.3,15.8,11.3z" class="st18"/><path d="M15.9,11.4l-0.1-0.1L15.9,11.4L15.9,11.4L15.9,11.4z M15.9,11.5l-0.1-0.1L15.9,11.5 C15.9,11.6,15.9,11.6,15.9,11.5z" class="st18"/></g><path d="M15.9,11.6l-1.8,1.2h0.2C14.3,12.8,15.9,11.6,15.9,11.6z" class="st18"/><path d="M14.3,12.8h-0.2H14.3z" class="st19"/><path d="M16,11l-0.2-0.1c-0.1-0.1-0.4-0.1-0.7,0.1l0.2,0.1C15.6,11,15.8,10.9,16,11z M15.3,11.2l-0.2-0.1H15 L15.3,11.2z" class="st20"/><g><path d="M15.3,11.2l-0.2-0.1c-0.1,0.1-0.2,0.1-0.2,0.2l0.2,0.1C15.1,11.3,15.2,11.3,15.3,11.2z M15,11.4l-0.2-0.1 l-0.3,0.3l0.2,0.1C14.9,11.6,15,11.5,15,11.4z" class="st20"/><path d="M14.8,11.7l-0.2-0.1c-0.1,0.1-0.2,0.3-0.3,0.4l0.2,0.1C14.6,11.9,14.7,11.8,14.8,11.7z" class="st20"/><path d="M14.5,12l-0.2-0.1c-0.2,0.3-0.4,0.7-0.4,1h0.2C14.2,12.7,14.3,12.4,14.5,12z M14.1,13h-0.2v0.3h0.2V13z" class="st20"/><path d="M14.1,13.2h-0.2c0,0.1,0,0.1,0.1,0.2h0.2C14.1,13.4,14.1,13.3,14.1,13.2z M14.2,13.4H14 C14,13.4,14,13.5,14.2,13.4l0.1,0.1C14.2,13.5,14.2,13.4,14.2,13.4z M14.3,13.5h-0.2H14.3z" class="st20"/></g><path d="M16.1,11.6c-0.1,0.5-0.6,1.2-1.1,1.6s-0.9,0.4-0.9-0.1c0-0.6,0.5-1.5,1.2-2C15.9,10.8,16.2,11,16.1,11.6z M15.2,11.5c-0.4,0.3-0.8,0.9-0.9,1.3l1.6-1.2C15.9,11.3,15.7,11.2,15.2,11.5z M15.1,13.1c0.3-0.3,0.7-0.7,0.8-1.1l-1.5,1.2 C14.4,13.4,14.7,13.4,15.1,13.1z" class="st21"/><path d="M15.1,12.4l0.3-0.2L15.1,12.4l-0.2,0.1L15.1,12.4z" class="st21"/><path d="M16.8,16l0.3-0.2l-1.7-3.6l-0.3,0.2L16.8,16z" class="st18"/><path d="M15.1,12.4L15,12.6l1.6,3.5l0.2-0.1L15.1,12.4z" class="st22"/><path d="M3.6,12.7L13.7,18l-3.4-9.4L3.4,4.7C3.4,4.7,3.6,12.7,3.6,12.7z M4.3,12.4L4.1,6.1l6.2,3.3l3.1,7.9 C13.4,17.3,4.3,12.4,4.3,12.4z" class="st23"/><path d="M3.2,12.9l10.7,5.7l-3.5-9.7L3,5C3,5,3.2,12.9,3.2,12.9z M3.8,12.5L3.6,6.2l6.2,3.3l3.1,7.9L3.8,12.5z" class="st24"/><path d="M10.2,9.6l3.7,8.6l7.4-4.6l-3.3-9L10.2,9.6z M10.7,9.3L17.5,5l3.1,8.1L14,17.2C14,17.2,10.7,9.3,10.7,9.3z" class="st24"/><path d="M10.4,8.9l3.5,9.7l7.8-4.9L18.2,4L10.4,8.9z M11.1,9.2l6.8-4.3l3.2,8.5l-6.8,4.3L11.1,9.2z" class="st9"/><path d="M10.4,8.9L18.2,4l-7.4-4L2.9,4.9L10.4,8.9z" class="st25"/><path d="M19.1,31.9v0.7l1,0.6v-0.7L19.1,31.9z" class="st26"/><path d="M20.1,32.5v0.7L41.2,20l-0.1-0.7C41.1,19.3,20.1,32.5,20.1,32.5z" class="st27"/><path d="M19.1,31.9l1,0.6l21-13.2l-1-0.5C40.1,18.8,19.1,31.9,19.1,31.9z" class="st28"/><path d="M14.1,28.5l0.1,0.7l1,0.6v-0.7L14.1,28.5z" class="st26"/><path d="M15.2,29.1v0.7l21-13.2v-0.7L15.2,29.1z" class="st27"/><path d="M14.1,28.5l1.1,0.6l21-13.2l-1-0.5L14.1,28.5z" class="st28"/><path d="M40.7,23v0.6l-1.6,1V24L40.7,23z" class="st29"/><path d="M39.1,24v0.6l-11.2-6V18L39.1,24z" class="st30"/><path d="M40.7,23l-1.6,1l-11.2-6l1.6-1L40.7,23z" class="st31"/><path d="M35.3,26.3v0.6l-1.6,1v-0.6L35.3,26.3z" class="st29"/><path d="M33.7,27.3v0.6L22.5,22v-0.6L33.7,27.3z" class="st30"/><path d="M35.3,26.3l-1.6,1l-11.2-5.9l1.6-1L35.3,26.3z" class="st31"/><path d="M28.9,30.4V31l-1.6,1.1v-0.6L28.9,30.4z" class="st29"/><path d="M27.3,31.5v0.6l-11.2-6v-0.6L27.3,31.5z" class="st30"/><path d="M28.9,30.4l-1.6,1.1l-11.2-6l1.6-1L28.9,30.4z" class="st31"/><g><path d="M24.3,18.3l0.2,4.6l5.5,3l-0.2-4.7L24.3,18.3z" class="st32"/><path d="M29.8,21.2l0.2,4.7l7.6-4.8l-0.2-4.7L29.8,21.2z" class="st33"/><path d="M24.3,18.3l5.5,2.9l7.6-4.8L32,13.5C32,13.5,24.3,18.3,24.3,18.3z" class="st34"/><path d="M34.1,14.6l1.1,0.6L27.6,20l-1.2-0.6L34.1,14.6z" class="st35"/><path d="M27.6,20l-1.2-0.6l0.1,1.1l1.1,0.6C27.6,21.1,27.6,20,27.6,20z" class="st36"/><g><path d="M25.1,22.7L25.1,22.7l0.8,0.5v-0.1L25.1,22.7z M25.2,22.7l0.1-0.6l0.1,0.1l-0.2-0.3L25.1,22l0.1,0.1 C25.2,22.1,25.2,22.7,25.2,22.7z M25.6,22.9L25.6,22.9l0.1-0.5h0.1l-0.1-0.3l-0.2,0.2h0.1C25.6,22.3,25.6,22.9,25.6,22.9z" class="st37"/><path d="M25.9,23.4L25.1,23c-0.2-0.1-0.3-0.3-0.3-0.4v-0.8c0-0.2,0.1-0.2,0.3-0.1l0.8,0.4c0.2,0.1,0.3,0.3,0.3,0.4 v0.8C26.2,23.4,26.1,23.5,25.9,23.4z M25,21.6c-0.1-0.1-0.2,0-0.2,0.1v0.8c0,0.1,0.1,0.3,0.2,0.4l0.8,0.4c0.1,0.1,0.2,0,0.2-0.1 v-0.8c0-0.1-0.1-0.3-0.2-0.4L25,21.6z" class="st37"/></g><g><path d="M27.6,23.6c0,0-0.1-0.1-0.2-0.1c-0.1-0.1-0.2-0.1-0.2-0.1l-0.1-0.1v0.6c0,0.1-0.1,0.1-0.1,0 c-0.1,0-0.1-0.1-0.1-0.2c0,0,0,0.1,0.1,0.1h0.1v-0.5c-0.1,0-0.1-0.1-0.1,0c0,0-0.1-0.1-0.2-0.1c-0.1-0.1-0.2-0.1-0.2-0.1 c0-0.2,0.2-0.3,0.5-0.2C27.4,23.1,27.6,23.4,27.6,23.6z" class="st37"/><path d="M27.6,24.3l-0.8-0.4c-0.2-0.1-0.3-0.3-0.3-0.4v-0.8c0-0.2,0.1-0.2,0.3-0.1l0.8,0.4c0.2,0.1,0.3,0.3,0.3,0.4 v0.8C27.8,24.3,27.7,24.4,27.6,24.3z M26.7,22.5c-0.1-0.1-0.2,0-0.2,0.1v0.8c0,0.1,0.1,0.3,0.2,0.4l0.8,0.4 c0.1,0.1,0.2,0,0.2-0.1v-0.8c0-0.1-0.1-0.3-0.2-0.4L26.7,22.5z" class="st37"/></g><g><path d="M29,24.2c0,0.1-0.1,0.2-0.2,0.1v0.4l0.1,0.1v0.1l-0.3-0.2v-0.1l0.1,0.1v-0.4c-0.1-0.1-0.2-0.2-0.2-0.4v-0.3 l0.4,0.2C28.9,23.8,29,24.2,29,24.2z" class="st37"/><path d="M29.2,25.2l-0.8-0.4c-0.2-0.1-0.3-0.3-0.3-0.4v-0.8c0-0.2,0.1-0.2,0.3-0.1l0.8,0.4c0.2,0.1,0.3,0.3,0.3,0.4 v0.8C29.5,25.2,29.4,25.2,29.2,25.2z M28.3,23.4c-0.1-0.1-0.2,0-0.2,0.1v0.8c0,0.1,0.1,0.3,0.2,0.4l0.8,0.4 c0.1,0.1,0.2,0,0.2-0.1v-0.8c0-0.1-0.1-0.3-0.2-0.4L28.3,23.4z" class="st37"/></g></g><g><path d="M14.6,24.3l0.1,4.7l5.5,2.9L20,27.2L14.6,24.3z" class="st32"/><path d="M20,27.2l0.2,4.7l7.6-4.8l-0.2-4.6C27.6,22.5,20,27.2,20,27.2z" class="st33"/><path d="M14.6,24.3l5.4,2.9l7.6-4.7l-5.4-2.9C22.2,19.6,14.6,24.3,14.6,24.3z" class="st34"/><path d="M24.3,20.7l1.1,0.6l-7.6,4.8l-1.1-0.6L24.3,20.7z" class="st35"/><path d="M17.8,26.1l-1.1-0.6v1.1l1.1,0.6V26.1z" class="st36"/><g><path d="M15.3,28.7L15.3,28.7l0.8,0.6v-0.1L15.3,28.7z M15.4,28.7l0.1,0.1v-0.6l0.1,0.1l-0.1-0.4l-0.2,0.2l0.1,0.1 V28.7z M15.9,29v-0.6l0.1,0.1l-0.1-0.3l-0.1,0.1v0.1C15.8,28.4,15.9,29,15.9,29z" class="st37"/><path d="M16.1,29.5l-0.8-0.4C15.1,29,15,28.8,15,28.7v-0.8c0-0.2,0.1-0.2,0.3-0.1l0.8,0.4c0.2,0.1,0.3,0.3,0.3,0.4 v0.8C16.4,29.5,16.3,29.5,16.1,29.5z M15.3,27.7c-0.1-0.1-0.2,0-0.2,0.1v0.8c0,0.1,0.1,0.3,0.2,0.4l0.8,0.4 c0.1,0.1,0.2,0,0.2-0.1v-0.8c0-0.1-0.1-0.3-0.2-0.4L15.3,27.7z" class="st37"/></g><g><path d="M17.9,29.7C17.9,29.7,17.9,29.6,17.9,29.7c0,0-0.1-0.1-0.2-0.1c-0.1-0.1-0.2-0.1-0.2-0.1l-0.1-0.1V30 c0,0.1-0.1,0.1-0.1,0c-0.1,0-0.1-0.1-0.1-0.2c0,0,0,0.1,0.1,0.1h0.1v-0.5c-0.1,0-0.1-0.1-0.1,0c0,0-0.1-0.1-0.2-0.1 c-0.1-0.1-0.2-0.1-0.2-0.1c0-0.2,0.2-0.3,0.5-0.2C17.6,29.1,17.9,29.4,17.9,29.7z" class="st37"/><path d="M17.8,30.3L17,29.9c-0.2-0.1-0.3-0.3-0.3-0.4v-0.8c0-0.2,0.1-0.2,0.3-0.1l0.8,0.4c0.2,0.1,0.3,0.3,0.3,0.4 v0.8C18.1,30.4,17.9,30.4,17.8,30.3z M16.9,28.6c-0.1-0.1-0.2,0-0.2,0.1v0.8c0,0.1,0.1,0.3,0.2,0.4l0.8,0.4 c0.1,0.1,0.2,0,0.2-0.1v-0.8c0-0.1-0.1-0.3-0.2-0.4L16.9,28.6z" class="st37"/></g><g><path d="M19.2,30.2c0,0.1-0.1,0.2-0.2,0.1v0.4l0.1,0.1v0.1l-0.3-0.2v-0.1l0.1,0.1v-0.4c-0.1-0.1-0.2-0.2-0.2-0.4 v-0.3l0.4,0.2L19.2,30.2z" class="st37"/><path d="M19.4,31.2l-0.8-0.4c-0.2-0.1-0.3-0.3-0.3-0.4v-0.8c0-0.2,0.1-0.2,0.3-0.1l0.8,0.4c0.2,0.1,0.3,0.3,0.3,0.4 v0.8C19.7,31.2,19.6,31.3,19.4,31.2z M18.5,29.4c-0.1-0.1-0.2,0-0.2,0.1v0.8c0,0.1,0.1,0.3,0.2,0.4l0.8,0.4 c0.1,0.1,0.2,0,0.2-0.1v-0.8c0-0.1-0.1-0.3-0.2-0.4L18.5,29.4z" class="st37"/></g></g><g><path d="M17.5,17.3l0.2,4.7l5.4,2.9l-0.2-4.7L17.5,17.3z" class="st32"/><path d="M22.9,20.2l0.2,4.7l7.6-4.8l-0.1-4.6L22.9,20.2z" class="st33"/><path d="M17.5,17.3l5.4,2.9l7.7-4.7l-5.5-2.9L17.5,17.3z" class="st34"/><path d="M27.2,13.7l1.2,0.6l-7.7,4.8l-1.1-0.6L27.2,13.7z" class="st35"/><path d="M20.7,19.1l-1.1-0.6v1.1l1.2,0.6L20.7,19.1z" class="st36"/><g><path d="M18.2,21.7L18.2,21.7l0.9,0.6v-0.1L18.2,21.7z M18.4,21.7L18.4,21.7v-0.5h0.1l-0.1-0.3l-0.1,0.2L18.4,21.7z M18.8,22l0.1-0.6l0.1,0.1l-0.2-0.3l-0.1,0.1l0.1,0.1C18.8,21.4,18.8,22,18.8,22z" class="st37"/><path d="M19.1,22.5l-0.8-0.4C18.1,22,18,21.8,18,21.7v-0.8c0-0.2,0.1-0.2,0.3-0.1l0.8,0.4c0.2,0.1,0.3,0.3,0.3,0.4 v0.8C19.3,22.5,19.2,22.5,19.1,22.5z M18.2,20.7c-0.1-0.1-0.2,0-0.2,0.1v0.8c0,0.1,0.1,0.3,0.2,0.4l0.8,0.4 c0.1,0.1,0.2,0,0.2-0.1v-0.8c0-0.1-0.1-0.3-0.2-0.4L18.2,20.7z" class="st37"/></g><g><path d="M20.8,22.6c0,0-0.1-0.1-0.2-0.1c-0.1-0.1-0.2-0.1-0.2-0.1l-0.1-0.1v0.6c0,0.1-0.1,0.1-0.1,0 c-0.1,0-0.1-0.1-0.1-0.2c0,0,0,0.1,0.1,0.1h0.1v-0.5c-0.1,0-0.1-0.1-0.1,0c0,0-0.1-0.1-0.2-0.1c-0.1-0.1-0.2-0.1-0.2-0.1 c0-0.2,0.2-0.3,0.5-0.2C20.6,22.1,20.8,22.4,20.8,22.6C20.8,22.6,20.8,22.7,20.8,22.6z" class="st37"/><path d="M20.7,23.3l-0.8-0.4c-0.2-0.1-0.3-0.3-0.3-0.4v-0.8c0-0.2,0.1-0.2,0.3-0.1l0.8,0.4c0.2,0.1,0.3,0.3,0.3,0.4 v0.8C21,23.4,20.9,23.4,20.7,23.3z M19.8,21.6c-0.1-0.1-0.2,0-0.2,0.1v0.8c0,0.1,0.1,0.3,0.2,0.4l0.8,0.4c0.1,0.1,0.2,0,0.2-0.1 v-0.8c0-0.1-0.1-0.3-0.2-0.4L19.8,21.6z" class="st37"/></g><g><path d="M22.1,23.2c0,0.1-0.1,0.2-0.2,0.1v0.4l0.1,0.1v0.1l-0.3-0.2v-0.1l0.1,0.1v-0.4c-0.1-0.1-0.2-0.2-0.2-0.4 v-0.3l0.4,0.2C22,22.8,22.1,23.2,22.1,23.2z" class="st37"/><path d="M22.3,24.2l-0.8-0.4c-0.2-0.1-0.3-0.3-0.3-0.4v-0.8c0-0.2,0.1-0.2,0.3-0.1l0.8,0.4c0.2,0.1,0.3,0.3,0.3,0.4 v0.8C22.6,24.2,22.5,24.3,22.3,24.2z M21.5,22.4c-0.1-0.1-0.2,0-0.2,0.1v0.8c0,0.1,0.1,0.3,0.2,0.4l0.8,0.4 c0.1,0.1,0.2,0,0.2-0.1v-0.8c0-0.1-0.1-0.3-0.2-0.4L21.5,22.4z" class="st37"/></g></g></g></svg>