<svg width="60" height="60" viewBox="0 0 60 60" fill="none" xmlns="http://www.w3.org/2000/svg">
<path d="M0 0V13.8261H18.6382V0H0ZM17.4902 10.7826H1.18177V2.95652H17.4902V10.7826ZM3.41024 42.4348V44.087H0.742825V48.2609H3.14012V49.913H0.742825V54.5217H3.37648V56.1739H0V42.4348H3.41024ZM5.23354 56.2609H4.49072V46.087H5.16601V48C5.43613 46.6957 5.90884 45.913 6.48284 45.913C7.39449 45.913 7.93472 47.4783 7.93472 49.7391V56.2609H7.1919V49.8261C7.1919 48.5217 6.92178 47.6522 6.31401 47.6522C5.80754 47.6522 5.33483 48.5217 5.19978 49.7391V56.2609H5.23354ZM10.9398 56.5217C9.96061 56.5217 9.55543 55.3913 9.55543 53.3913V47.8261H8.71131V46.087H9.55543V43.4783H10.2983V46.087H11.4125V47.7391H10.2983V53.1304C10.2983 54.3478 10.5684 54.6957 11.0073 54.6957C11.1424 54.6957 11.2437 54.6957 11.345 54.5217H11.4125V56.1739C11.3112 56.3478 11.1424 56.5217 10.9398 56.5217ZM14.1474 56.5217C12.8306 56.5217 12.0203 54.5217 12.0203 51.3043C12.0203 48.087 12.7968 45.913 13.9111 45.913C15.0929 45.913 15.6669 47.913 15.6669 50.8696V51.8261H12.7631C12.8644 53.8261 13.4046 54.7826 14.1474 54.7826C14.6201 54.7826 14.9578 54.6087 15.2954 53.913H15.363V55.5652C15.0591 56.2609 14.5864 56.5217 14.1474 56.5217ZM12.7631 50.4348H14.9578C14.924 48.6087 14.5526 47.5652 13.9111 47.5652C13.2696 47.5652 12.8644 48.7826 12.7631 50.4348ZM18.8745 48C18.7732 47.913 18.6044 47.7391 18.4693 47.7391C17.9966 47.7391 17.6252 48.6087 17.4902 49.913V56.1739H16.7473V46.087H17.4226V48.2609C17.659 46.6087 18.0642 45.913 18.5369 45.913C18.7057 45.913 18.8745 46 18.9083 46.087L18.8745 48ZM20.3602 54.6087V60H19.6173V46.087H20.2926V47.8261C20.529 46.7826 20.9679 45.8261 21.5757 45.8261C22.7575 45.8261 23.399 48.2609 23.399 51.0435C23.399 53.8261 22.7575 56.3478 21.5757 56.3478C21.0692 56.3478 20.6303 55.5652 20.3602 54.6087ZM22.6899 51.0435C22.6899 48.9565 22.251 47.6522 21.4406 47.6522C20.9679 47.6522 20.5965 48.2609 20.3602 49.3913V52.8696C20.5965 53.913 20.9679 54.6087 21.4406 54.6087C22.251 54.6087 22.6899 53.2174 22.6899 51.0435ZM26.6742 48C26.5729 47.913 26.4041 47.7391 26.269 47.7391C25.7963 47.7391 25.4249 48.6087 25.2898 49.913V56.1739H24.547V46.087H25.2223V48.2609C25.4586 46.6087 25.8638 45.913 26.3365 45.913C26.5053 45.913 26.6742 46 26.7079 46.087V48H26.6742ZM27.9235 45.1304C27.6533 45.1304 27.417 44.5217 27.417 43.8261C27.417 43.1304 27.6533 42.5217 27.9235 42.5217C28.1936 42.5217 28.4299 43.1304 28.4299 43.8261C28.4299 44.5217 28.1936 45.1304 27.9235 45.1304ZM28.2611 56.2609H27.5183V46.087H28.2611V56.2609ZM29.4429 53.8261H29.5104C29.8481 54.5217 30.3208 54.8696 30.7597 54.8696C31.1987 54.8696 31.5701 54.4348 31.5701 53.5652C31.5701 52.6956 31.2662 52.4348 30.6246 51.913C30.0844 51.3913 29.4429 50.9565 29.4429 48.9565C29.4429 46.9565 30.0844 45.8261 30.8948 45.8261C31.3675 45.8261 31.7727 46.087 32.1103 46.6957V48.4348H32.0428C31.7389 47.8261 31.3675 47.4783 30.8948 47.4783C30.4221 47.4783 30.1857 48 30.1857 48.7826C30.1857 49.6522 30.4558 49.8261 31.0974 50.3478C31.6714 50.8696 32.3129 51.3913 32.3129 53.3043C32.3129 55.3913 31.6376 56.5217 30.7935 56.5217C30.287 56.5217 29.7468 56.1739 29.4429 55.5652V53.8261ZM35.2842 56.5217C33.9674 56.5217 33.157 54.5217 33.157 51.3043C33.157 48.087 33.9336 45.913 35.0478 45.913C36.2296 45.913 36.8036 47.913 36.8036 50.8696V51.8261H33.8998C34.0011 53.8261 34.5414 54.7826 35.2842 54.7826C35.7569 54.7826 36.0945 54.6087 36.4322 53.913H36.4997V55.5652C36.1958 56.2609 35.7231 56.5217 35.2842 56.5217ZM33.8998 50.4348H36.0945C36.0608 48.6087 35.6894 47.5652 35.0478 47.5652C34.4401 47.5652 34.0011 48.7826 33.8998 50.4348ZM4.49072 22.7826V36.6087H3.34271V30.8696H1.18177V36.6087H0V22.7826H1.18177V28.2609H3.34271V22.7826H4.49072ZM7.6646 36.8696C6.17895 36.8696 5.40236 34.7826 5.40236 31.4783C5.40236 28.1739 6.21272 26 7.42825 26C8.71131 26 9.35284 28.087 9.35284 31.2174V32.3478H6.6179C6.71919 34.087 7.22566 34.5217 7.73213 34.5217C8.20484 34.5217 8.54249 34.3478 8.94767 33.8261H9.08272V36C8.71131 36.6087 8.17108 36.8696 7.6646 36.8696ZM6.58413 30.4348H8.17108C8.13731 28.8696 7.86719 28.1739 7.39449 28.1739C7.02307 28.1739 6.65166 28.6957 6.58413 30.4348ZM10.7034 36.6087L9.85931 26.6087V26.2609H10.9398L11.3787 32.6087L11.48 34.6087L11.6488 32.6087L12.1891 26.2609H13.4046L13.9449 32.6087L14.1137 34.6087L14.2487 32.6087L14.6877 26.2609H15.7006V26.6087L14.8565 36.6087H13.3708L12.8981 31.0435L12.7631 28.9565L12.628 31.0435L12.1553 36.6087H10.7034ZM17.8278 36.8696C16.9837 36.8696 16.5447 35.8261 16.5447 33.4783V22.7826H17.7265V33.2174C17.7265 33.913 17.8616 34.1739 18.1317 34.1739C18.233 34.1739 18.368 34.087 18.4356 34H18.4693V36.5217C18.3005 36.6957 18.0304 36.8696 17.8278 36.8696ZM21.0355 36.8696C19.5498 36.8696 18.7732 34.7826 18.7732 31.4783C18.7732 28.1739 19.5836 26 20.7991 26C22.0822 26 22.7237 28.087 22.7237 31.2174V32.3478H19.9887C20.09 34.087 20.5965 34.5217 21.103 34.5217C21.5757 34.5217 21.9133 34.3478 22.3185 33.8261H22.4536V36C22.0484 36.6087 21.5082 36.8696 21.0355 36.8696ZM19.955 30.4348H21.5419C21.5082 28.8696 21.238 28.1739 20.7653 28.1739C20.3939 28.1739 20.0225 28.6957 19.955 30.4348ZM26.6404 32.7826V28.6957H24.9184V32.6956C24.9184 33.7391 25.0535 34.2609 25.4249 34.2609C25.5262 34.2609 25.695 34.1739 25.7625 34.087H25.8638V36.5217C25.695 36.6957 25.4924 36.8696 25.121 36.8696C24.1418 36.8696 23.7029 35.6522 23.7029 32.8696V28.6957H22.9938V26.2609H23.7029V23.7391H24.8846V26.2609H26.6066V23.7391H27.7884V26.2609H28.7676V28.6957H27.7884V32.6956C27.7884 33.7391 27.9235 34.2609 28.2949 34.2609C28.3962 34.2609 28.565 34.1739 28.6325 34.087H28.7338V36.5217C28.565 36.6957 28.3624 36.8696 27.991 36.8696C27.0793 36.8696 26.6404 35.6522 26.6404 32.7826ZM32.2116 32.3478V36.6087H31.0636V22.7826H33.157C34.3388 22.7826 35.1154 24.4348 35.1154 27.5652C35.1154 30.6087 34.3388 32.3478 33.157 32.3478H32.2116ZM33.0557 25.3043H32.2116V29.7391H33.0557C33.6297 29.7391 33.9336 28.8696 33.9336 27.5652C33.8998 26.2609 33.6297 25.3043 33.0557 25.3043ZM38.0529 35.0435C37.8165 36.1739 37.3776 36.6957 36.8374 36.6957C36.0945 36.6957 35.4868 35.5652 35.4868 33.5652C35.4868 31.4783 36.027 30.3478 37.04 30.3478C37.3776 30.3478 37.7153 30.4348 38.0191 30.6087V30C38.0191 28.8696 37.7153 28.4348 37.1075 28.4348C36.6685 28.4348 36.2971 28.6957 35.9932 29.0435H35.8582V26.7826C36.1621 26.3478 36.7023 26 37.2425 26C38.4918 26 39.1671 27.4783 39.1671 30V36.6087H38.0529V35.0435ZM38.0191 33.3043V32C37.8165 31.8261 37.5802 31.8261 37.3438 31.8261C36.8711 31.8261 36.6348 32.2609 36.6348 33.2174C36.6348 34.1739 36.8711 34.5217 37.2425 34.5217C37.614 34.5217 37.9178 34.087 38.0191 33.3043ZM40.045 31.3913C40.045 28 40.9567 25.913 42.1384 25.913C42.6111 25.913 43.0163 26.1739 43.2527 26.6087V29.2174H43.1176C42.8813 28.6957 42.6111 28.5217 42.2397 28.5217C41.6657 28.5217 41.193 29.5652 41.193 31.3043C41.193 33.0435 41.6657 34.087 42.2397 34.087C42.5774 34.087 42.8813 33.8261 43.1176 33.3913H43.2527V36C42.9826 36.4348 42.6111 36.6957 42.1384 36.6957C40.9567 36.8696 40.045 34.7826 40.045 31.3913ZM45.3123 31.5652V36.6087H44.1306V22.7826H45.3123V30.6087L45.5824 29.5652L46.6629 26.1739H47.9122V26.5217L46.4266 30.8696L47.9122 36.1739V36.5217H46.5954L45.6162 32.6956L45.3123 31.5652ZM50.7485 35.0435C50.5121 36.1739 50.0732 36.6957 49.5329 36.6957C48.7901 36.6957 48.1823 35.5652 48.1823 33.5652C48.1823 31.4783 48.7226 30.3478 49.7355 30.3478C50.0732 30.3478 50.4108 30.4348 50.7147 30.6087V30C50.7147 28.8696 50.4108 28.4348 49.803 28.4348C49.3641 28.4348 48.9927 28.6957 48.6888 29.0435H48.5537V26.7826C48.8576 26.3478 49.3979 26 49.9381 26C51.1874 26 51.8627 27.4783 51.8627 30V36.6087H50.7485V35.0435ZM50.7147 33.3043V32C50.5121 31.8261 50.2757 31.8261 50.0394 31.8261C49.5667 31.8261 49.3303 32.2609 49.3303 33.2174C49.3303 34.1739 49.5667 34.5217 49.9381 34.5217C50.3095 34.5217 50.6134 34.087 50.7147 33.3043ZM54.0574 28.3478C54.26 26.7826 54.7327 26.1739 55.2054 26.1739C55.3742 26.1739 55.4755 26.2609 55.5431 26.3478V29.2174H55.408C55.2729 29.0435 55.1716 28.9565 55.0028 28.9565C54.5301 28.9565 54.1925 29.4783 54.1249 30.6957V36.6957H52.9432V26.1739H54.0574V28.3478ZM58.8858 35.1304C58.6156 36.1739 58.2105 36.8696 57.6702 36.8696C56.5898 36.8696 55.8807 34.6087 55.8807 31.4783C55.8807 28.3478 56.556 26 57.6702 26C58.1429 26 58.5481 26.5217 58.8182 27.4783V22.7826H60V36.6087H58.8858V35.1304ZM58.8182 33.2174V29.5652C58.6156 28.7826 58.3118 28.4348 57.9741 28.4348C57.4339 28.4348 57.0962 29.4783 57.0962 31.4783C57.0962 33.3913 57.4676 34.4348 57.9741 34.4348C58.3118 34.3478 58.6156 34 58.8182 33.2174Z" fill="black"/>
</svg>
