<svg xmlns="http://www.w3.org/2000/svg" width="1200" height="800" fill="#0071c5" viewBox="-44.7 -49.128 387.4 294.769"><path d="M87.799 83.354v48.122h-15.32V70.989l31.626.03c13.433 0 18.009 9.473 18.009 18.078v42.379h-15.291v-42.3c0-3.604-1.866-5.822-6.366-5.822H87.799zm104.164-.723c-5.236 0-9.288 2.692-10.98 6.346-1.004 2.194-1.348 3.875-1.466 6.561h23.567c-.303-6.561-3.278-12.907-11.121-12.907m-12.446 23.333c0 7.835 4.87 13.602 13.567 13.602 6.766 0 10.129-1.875 14.041-5.767l9.461 9.034c-6.058 5.98-12.415 9.613-23.615 9.613-14.664 0-28.697-7.996-28.697-31.3 0-19.91 12.252-31.183 28.353-31.183 16.32 0 25.748 13.197 25.748 30.483v5.518h-38.858M151.343 131.4c-12.48 0-17.775-8.687-17.775-17.267V54.508h15.295v16.48h11.53v12.366h-11.53v29.82c0 3.514 1.66 5.465 5.308 5.465h6.222V131.4h-9.05M58.85 62.63H43.426V47.978H58.85zm.039 69.482c-11.55-1.11-15.48-8.116-15.48-16.2l.018-44.923h15.462v61.123zm183.829-1.293c-11.526-1.111-15.437-8.106-15.437-16.18V45.894h15.437zm53.965-74.99C282.693-12.377 150.297-16.695 64.96 35.256v5.736C150.21-2.82 271.117-2.561 282.133 60.259c3.685 20.772-8.02 42.429-28.925 54.877v16.286c25.162-9.205 50.967-39.055 43.475-75.594M141.559 175.16c-58.897 5.445-120.27-3.104-128.858-49.127-4.204-22.687 6.132-46.737 19.843-61.676v-7.988C7.86 78.013-5.535 105.414 2.177 137.792c9.843 41.518 62.517 65.047 142.916 57.233 31.81-3.104 73.444-13.333 102.389-29.22v-22.569c-26.264 15.64-69.726 28.573-105.923 31.924"/><path d="M260.562 50.458c0-.748-.437-.986-1.436-.986h-.965v2.118c.14 0 .841.026.965.026.999 0 1.436-.334 1.436-1.034v-.124zm1.504 5.253h-1.143a.272.272 0 01-.238-.152l-1.56-2.643c-.027-.054-.162-.118-.215-.118h-.7v2.621c0 .14-.097.292-.281.292h-1.034c-.13 0-.258-.152-.258-.292v-6.631c0-.384.149-.544.473-.594.365-.048 1.357-.08 1.892-.08 1.899 0 3.048.56 3.048 2.344v.124c0 1.104-.55 1.687-1.402 1.972l1.617 2.734c.01.056.048.131.048.196 0 .107-.064.227-.247.227m-2.714-8.794c-2.813 0-5.088 2.322-5.088 5.12a5.09 5.09 0 005.088 5.086c2.799 0 5.096-2.286 5.096-5.087 0-2.797-2.297-5.12-5.096-5.12m0 11.261a6.133 6.133 0 01-6.145-6.14 6.138 6.138 0 016.145-6.144c3.381 0 6.16 2.766 6.16 6.143 0 3.383-2.779 6.141-6.16 6.141"/></svg>