<?xml version="1.0" encoding="utf-8"?>
<!-- Generator: Adobe Illustrator 26.0.2, SVG Export Plug-In . SVG Version: 6.00 Build 0)  -->
<svg version="1.1" id="Layer_1" xmlns="http://www.w3.org/2000/svg" xmlns:xlink="http://www.w3.org/1999/xlink" x="0px" y="0px"
	 viewBox="0 0 544.5 211.2" style="enable-background:new 0 0 544.5 211.2;" xml:space="preserve">
<style type="text/css">
	.st0{fill:#515151;}
</style>
<rect id="rect4" y="3" class="st0" width="39.4" height="39.4"/>
<g id="g10">
	<path id="path6" d="M38.4,208.3V66.3H1.1v141.9H38.4z M286.4,209.7v-34.8c-4.5,0.1-9-0.2-13.5-0.9c-3.3-0.3-6.4-1.7-8.8-3.9
		c-2-2-3.2-4.8-3.9-8.4c-0.6-4.6-0.9-9.1-0.8-13.7V98.3h27.1v-32h-27.1V10.9h-37.5v137.3c0,11.6,1,21.5,2.9,29.3s5.3,14,10,18.8
		s10.8,8.1,18.2,10.2s17.1,3.1,28.5,3.1H286.4z M500.7,208.3V0h-37.5v208.3H500.7z M185.8,80.2c-10.4-11.2-25-16.8-43.5-16.8
		c-8.5-0.1-16.9,1.8-24.5,5.5c-7.3,3.6-13.6,8.7-18.5,15.1l-2.1,2.7V66.3H60.3v141.9h37.2v-72.9c0.4-13.3,3.6-23.1,9.8-29.5
		c6.1-6.5,14.7-10.2,23.7-10.1c10.8,0,19.1,3.4,24.6,9.8s8.1,15.6,8.1,27.2l0,0v0.3l0,0v75h37.7v-80.5
		C201.5,107.4,196.2,91.4,185.8,80.2z M443.9,137c0-9.8-1.8-19.6-5.3-28.8c-3.5-8.7-8.6-16.6-15-23.4c-6.5-6.8-14.4-12.1-23.1-15.7
		c-9.4-3.8-19.5-5.8-29.7-5.6c-9.9,0-19.7,1.9-28.9,5.8c-8.7,3.7-16.7,9.1-23.4,15.7c-6.7,6.7-12,14.7-15.7,23.4
		c-3.9,9.1-5.9,19-5.8,28.9c-0.1,9.9,1.8,19.7,5.5,28.9c3.5,8.7,8.7,16.7,15.3,23.4c6.7,6.8,14.8,12.1,23.7,15.7
		c9.6,4,20,6,30.4,5.9c31.7,0,51.3-14.4,63.1-27.9L408,162.8c-5.6,6.7-19.1,15.9-35.9,15.9c-10.5,0-19.2-2.4-25.8-7.3
		c-6.6-4.9-11.4-11.8-13.5-19.8l-0.4-1.3h111.5L443.9,137z M332.7,124c0-10.4,11.9-28.5,37.6-28.6s37.7,18.1,37.7,28.5L332.7,124z"
		/>
	<path id="path8" d="M543.3,189.8c-1.4-3.3-4-5.9-7.3-7.3c-1.7-0.7-3.5-1.1-5.3-1.1c-1.8,0-3.6,0.4-5.3,1.1c-3.3,1.4-5.9,4-7.3,7.3
		c-0.7,1.7-1.1,3.5-1.1,5.3c0.1,5.5,3.4,10.5,8.4,12.6c1.7,0.7,3.5,1.1,5.3,1.1c5.5-0.1,10.5-3.4,12.6-8.4
		C544.8,197,544.8,193.2,543.3,189.8L543.3,189.8z M541.1,199.6c-0.5,1.4-1.4,2.6-2.4,3.6c-1,1-2.3,1.8-3.6,2.4
		c-1.4,0.6-3,0.9-4.5,0.8c-1.5,0-3.1-0.3-4.5-0.8c-2.8-1.1-4.9-3.2-6-6c-0.6-1.4-0.9-3-0.8-4.5c0-1.5,0.3-3.1,0.8-4.5
		c1.1-2.7,3.3-4.9,6-6c1.4-0.6,3-0.9,4.5-0.8c1.5,0,3.1,0.3,4.5,0.8c2.7,1.1,4.9,3.3,6,6c0.6,1.4,0.9,3,0.8,4.5
		C542,196.7,541.7,198.2,541.1,199.6z M533.2,196.2c1-0.1,2-0.5,2.7-1.3c0.8-0.8,1.2-1.9,1.1-3.1c0.1-1.3-0.4-2.6-1.4-3.5
		c-1.2-0.9-2.7-1.4-4.2-1.3h-6.2v15.9h3v-6.5h2.1l3.9,6.5h3.1L533.2,196.2z M531.7,194h-3.5v-4.5h3.5c0.4,0,0.9,0.1,1.3,0.3
		c0.4,0.1,0.7,0.4,0.8,0.7c0.4,0.8,0.4,1.7,0,2.5c-0.2,0.3-0.5,0.5-0.8,0.7C532.6,193.8,532.2,193.9,531.7,194L531.7,194z"/>
</g>
</svg>
