<?xml version="1.0" encoding="utf-8"?>
<!-- Generator: Adobe Illustrator 27.4.0, SVG Export Plug-In . SVG Version: 6.00 Build 0)  -->
<svg version="1.1" id="Layer_1" xmlns="http://www.w3.org/2000/svg" xmlns:xlink="http://www.w3.org/1999/xlink" x="0px" y="0px"
	 viewBox="0 0 412 122" style="enable-background:new 0 0 412 122;" xml:space="preserve">
<style type="text/css">
	.st0{fill:#333333;}
	.st1{fill:#999999;}
	.st2{fill:#666666;}
	.st3{font-family:'ArialMT';}
	.st4{font-size:38.8148px;}
</style>
<g>
	<path d="M258.7,30.7c4.4,0,8.8,0,13.3,0c0,4.4,0,8.5,0,12.8c-7.3,0-14.5,0-22,0c0.6,1.6,1.1,2.9,1.6,4.2c1.3,3.6,1,3,4.4,2.1
		c2.6-0.7,5-1.7,7.5-2.6c1.7-0.5,3.4-0.9,5-1.4c0.7-0.2,1.1-0.1,1.3,0.8c0.2,1.4,0.6,2.7,1,4.3c-0.5,0.2-1.1,0.5-1.7,0.7
		c-1.1,0.4-2.2,0.8-3.3,1.2c-0.9,0.3-1.1,0.8-0.7,1.6c2.7,4.8,5.7,9.5,9.5,13.5c0.7,0.8,0.7,1.2,0,1.9c-1.4,1.3-2.7,2.6-4.1,4.1
		c-1.2-1.3-2.4-2.4-3.4-3.7c-3.3-4.2-6.4-8.5-8.7-13.3c-0.6-1.2-1.2-1.7-2.5-1.1c-0.2,0.1-0.6,0.1-0.9,0.2c0.1,0.3,0.1,0.6,0.2,0.9
		c1.2,2.9,2.3,5.9,3.5,8.8c0.7,1.7,0.9,3.5,0.6,5.4c-0.4,2.3-2.2,3.8-4.5,3.8c-5.7,0-11.5,0-17.2,0c-0.5,0-0.9,0-1.4,0
		c0-2.1,0-4.1,0-6.3c0.8-0.1,1.5-0.2,2.2-0.2c2.9,0,5.8,0,8.7,0c0.7,0,1.5-0.1,2.2-0.4c1.2-0.5,1.6-1.8,1.2-3
		c-0.4-1-0.8-2.1-1.2-3.1c-8.4,3.2-16.5,6.6-24.9,9.1c-0.4-1.4-0.7-2.6-1.1-3.8c-0.3-0.9-0.1-1.3,0.7-1.6c3.5-1.2,7-2.5,10.4-3.8
		c3.9-1.4,7.7-2.9,11.5-4.4c1.3-0.5,1.5-1.4,0.6-2.3c-0.3-0.3-1.2-0.5-1.6-0.3c-3.9,1.5-7.7,3-11.6,4.5c-3.1,1.2-6.1,2.3-9.2,3.4
		c-0.2,0.1-0.8-0.1-0.9-0.4c-0.4-1-0.6-2-0.9-3c-0.4-1.3-0.2-1.8,1.1-2.3c5.5-2.1,11-4.2,16.6-6.2c0.9-0.3,1.8-0.7,2.8-1.1
		c0.7-0.3,1.7-0.2,1.4-1.4c-0.4-1.3-1.3-1.9-2.4-1.5c-1.6,0.6-3.2,1.4-4.8,2c-4,1.6-8,3.1-12.1,4.7c-2.5,0.9-3.1,0.6-3.7-2
		c-0.3-1.7-0.4-1.8,1.4-2.4c3.9-1.5,7.9-2.9,11.8-4.4c0.7-0.3,1.3-0.6,2-0.9c0-0.2,0-0.3-0.1-0.5c-0.6-0.1-1.3-0.2-1.9-0.2
		c-3.3,0-6.6,0-10.1,0c0-3,0-6.1,0-9.1c-0.2-0.1-0.3-0.2-0.3-0.1c-2,0.5-2.2,0.4-2.6-1.6c-0.2-0.8-0.4-1.7-0.7-2.5
		c-0.5-1.1,0-1.5,0.9-1.8c1-0.3,2.1-0.4,3.1-0.8c4.3-1.6,7.2-4.6,8.4-9.1c0.3-1.1,0.8-1.5,1.9-1.4c1.5,0.1,3,0,4.6,0
		c-0.1,1.4-0.2,2.6-0.3,4c8,0,16,0,24.1,0c0,1.5,0,2.8,0,4.1c0,0.4-0.3,0.8-0.5,1.1c-1,1.1-2.1,2.1-3.1,3.1c-0.3,0.3-0.6,0.7-0.9,1
		C258.6,30.4,258.7,30.5,258.7,30.7z M252.1,26.4c-0.1-0.1-0.2-0.2-0.3-0.4c-3.7,0-7.4,0.2-11.1-0.1c-2.9-0.2-5.2,0.4-6.8,2.9
		c-0.4,0.6-0.9,1-1.5,1.8c0.9,0.1,1.4,0.2,1.8,0.2c3.5,0,7-0.1,10.5,0.2c2.1,0.1,3.7-0.3,5-2C250.4,28,251.3,27.2,252.1,26.4z
		 M265,34.4c-3.5,0-6.8,0-10.1,0c-3.7,0-3.4-0.6-3.5,3.5c0,1,0.4,1.2,1.2,1.2c3.8,0,7.6,0,11.5,0c0.3,0,0.5-0.1,0.8-0.1
		C265,37.4,265,35.9,265,34.4z M244.3,39c0-1.2,0-2.3,0-3.3s-0.3-1.3-1.3-1.3c-2.9,0.1-5.7,0-8.6,0c-3.4,0-3.6,0.2-3.3,3.7
		c0.1,0.7,0.3,1,1.1,1c1.7,0,3.5,0,5.2,0C239.6,39,241.9,39,244.3,39z"/>
	<path d="M188.8,25.3c6.5,0,12.8,0,19.1,0c0,2.3,0,4.5,0,6.9c-2.6,0-5.2,0-7.8,0c-4.6,0-9.2-0.1-13.9,0c-0.4,0-1,0.4-1.2,0.7
		c-1.1,1.5-2.1,3.1-3.2,4.6c-0.8,1.1-1.1,1.1-2.3,0.3s-2.4-1.6-3.5-2.4c-0.1,0.1-0.3,0.2-0.4,0.3c0,0.4,0,0.9,0,1.3
		c0,6.2,0.1,12.4,0.2,18.6c0,0.8-0.2,1.1-1.1,1.1c-1.9-0.1-3.7,0-5.6,0c-0.7,0-1,0.2-1,1c0.1,3.4-0.4,2.7,2.7,2.8
		c1.6,0.1,3.2,0.1,4.9,0.1c0.1,0,0.2,0.1,0.4,0.2c0,2,0,4,0,6.2c-2.6,0-5.2,0-7.9,0c0,2.7,0,5.2,0,7.9c-2.4,0-4.7,0-7.2,0
		c0-1.3,0-2.7,0-4c0-3.7,0-3.7-3.6-3.8c-1.4,0-2.7,0-4.2,0c0-2.1,0-4.2,0-6.5c1.9,0,3.7,0,5.6,0c0.7,0,1.8-0.1,1.9-0.4
		c0.3-0.9,0.2-2,0.1-2.9c0-0.2-0.7-0.4-1-0.4c-2.2,0-4.3,0-6.5,0c0-7.8,0-15.7,0-23.9c2.1,0,4.1,0,6.1,0c1.7,0,1.7-0.1,1.7-1.7
		c0-0.7-0.1-1.3-0.1-2.1c-2.6,0-5.1,0-7.7,0c0-2.2,0-4.2,0-6.5c2,0,4,0,6,0c1.7,0,1.7,0,1.7-1.7c0-0.8,0-1.6,0-2.5
		c2.4,0,4.8,0,7.2,0c0,1.4,0,2.7,0,4.2c1.5,0,2.9,0,4.3,0c1.1,0,2.2,0,3.2,0c0.9-0.1,1.2,0.3,1.2,1.2c0,1.7,0,3.4,0,5.3
		c-2.8,0-5.7,0-8.5,0c-0.1,0.3-0.2,0.4-0.2,0.5c-0.2,3.5-0.2,3.5,3.4,3.5c0.9,0,1.8-0.1,2.7,0c1.4,0.2,2.2-0.5,2.8-1.6
		c2.3-4.1,4.6-8.2,6.8-12.3c0.4-0.7,0.7-0.9,1.5-0.6c1.5,0.6,3,0.8,4.5,1.3s1.6,0.8,0.8,2.2C190.1,22.9,189.5,24,188.8,25.3z
		 M159.1,51c2.8,0,5.6,0,8.4,0c2.4,0,2.4,0,2.3-2.4c0-1-0.4-1.4-1.4-1.4c-2,0-4,0-6,0C158.8,47.1,158.8,47.1,159.1,51z M159.1,42
		c2.7,0,5.4,0,8.1,0c2.8,0,2.7,0,2.5-2.7c-0.1-0.8-0.3-1.1-1.2-1.1c-2.1,0-4.1,0-6.2-0.1C158.7,38.1,158.7,38.1,159.1,42z"/>
	<path d="M309.5,56.7c1.5-1.3,2.9-2.6,4.4-3.9c0.7-0.7,1.1-0.2,1.6,0.2c1.9,1.5,3.7,3.1,5.6,4.6c0.5,0.4,1.1,0.8,1.7,1.2
		c2.9-2.9,6.5-5.1,9.1-8.8c-7.9,0-15.5,0-23.1,0c0-2.4,0-4.6,0-6.9c10.1,0,20.1,0,30,0c0,2.7-0.1,5.4,0,8c0.1,1.3-0.4,2.2-1.3,3.1
		c-2.5,2.4-5,4.8-7.5,7.2c-0.4,0.4-0.9,0.9-1.4,1.4c4.2,2.9,8.8,4.6,13.5,6.3c-0.6,1.4-1.1,2.7-1.7,3.9c-1.1,2.4-1.5,2.6-4,1.8
		c-6.6-2.2-8.7-3.2-14.3-6.9c-2.4,1.5-4.7,3.1-7.2,4.5c-1.7,1-3.5,1.7-5.3,2.4c-1.7,0.7-2.1,0.4-2.8-1.3c-0.5-1.4-1.2-2.8-1.7-4.1
		c3.7-1.8,7.3-3.6,10.8-5.3c-2.4-2.4-4.7-4.6-7-6.9C309.1,57.1,309.3,56.9,309.5,56.7z"/>
	<path d="M372.3,45.1c-0.6-2.3-1.1-4.4-1.7-6.6c6.2-1,10.9-3.6,13.4-9.9c-2.1,0-3.9,0-5.7,0c-0.3,0-0.6,0.5-0.8,0.7
		c-1.7,1.8-3.6,3.5-6,4.4c-0.8,0.3-1.3,0.3-1.7-0.6c-0.6-1.5-1.3-3.1-1.8-4.7c-0.1-0.4,0.2-1.2,0.4-1.3c1.7-0.5,2.8-1.8,3.6-3.1
		c1.2-1.8,2.2-3.6,3-5.6c0.5-1.2,1.1-1.8,2.4-1.5c1.8,0.3,3.6,0.7,5.6,1.1c-0.4,0.8-0.6,1.5-1,2.2c-0.5,0.9-0.2,1.4,0.8,1.4
		c1.1,0,2.2,0,3.4,0c5.8,0,11.6,0,17.4,0c0.7,0,1.5,0.1,2.1,0.1c1.3,5.3-1,9.5-3.9,13.6c-1.8-1-3.6-1.9-5.4-2.9
		c0.7-1.3,1.4-2.5,2.3-4.1c-1.3,0-2.2,0-3,0c-0.5,0-0.9,0-1.4,0c-2.7,0-2.7,0-3.6,2.5c-0.2,0.5-0.4,0.9-0.6,1.4
		c2,1.1,3.9,2.2,5.9,3.3c2.2,1.2,4.3,2.3,6.5,3.4c1,0.5,1.1,1,0.6,1.9c-0.8,1.2-1.5,2.5-2.2,3.7c-0.5,0.8-1,0.9-1.8,0.5
		c-3.9-2.1-7.8-4.2-11.7-6.3c-0.7-0.4-1.2-0.5-1.9,0.1c-3.2,2.9-7.1,4.5-11.1,5.8C373.8,45.1,373,45,372.3,45.1z"/>
	<path d="M193.3,46.6c-0.8-0.1-1.2-0.2-1.7-0.2c-2.5,0-5.1,0-7.6,0.1c-0.9,0-1.2-0.2-1.2-1.1c0.1-1.5,0.1-3,0-4.5
		c0-0.8,0.2-1.1,1.1-1.1c6.2,0,12.5,0,18.7,0.1c0.3,0,0.8,0.5,0.8,0.8c0.1,1.6,0.1,3.2-0.1,4.7c-0.1,0.9-0.5,1.8-0.9,2.5
		c-4.3,6.2-8.7,12.3-13,18.5c-0.6,0.9-0.3,1.6,0.9,1.6c1.6,0.1,3.2,0,4.9,0c1.4,0,2.7,0,4.1,0c1.7,0,2.4-0.6,2.5-2.4
		c0.1-1.5,0-3,0-4.6c1.1,0,2,0,3,0s2,0,3.1,0c0,0.4,0.1,0.7,0.1,1.1c0,2.7,0,5.5,0,8.2c0,2-1.6,3.7-3.6,3.7c-7.5,0-15,0-22.5,0
		c-1.9,0-2.8-1.1-2.9-2.9c-0.2-2,0.5-3.7,1.6-5.4c4-5.9,7.9-11.9,11.9-17.9C192.7,47.5,192.9,47.2,193.3,46.6z"/>
	<path d="M292,52.8c-1.7,0.2-3.2,0.5-4.8,0.7c-0.4-1.7-0.9-3.7-1.2-5.6c0-0.3,0.4-0.8,0.7-0.9c1.4-0.4,2.8-0.8,4.2-1
		c0.7-0.1,1.1-0.4,1.1-1.2c-0.1-3.4-0.1-6.7-0.2-10.1c0-0.7-0.3-1-1-1c-1.2,0-2.4,0-3.7,0c0-2.2,0-4.4,0-6.8c1.1,0,2.2-0.1,3.2,0
		c1.2,0.1,1.5-0.4,1.5-1.5c-0.1-2.1,0-4.2,0-6.4c2.4,0,4.7,0,7.1,0c0,2.6,0,5.2,0,7.9c1.7,0,3.3,0,5,0c0,2.4,0,4.5,0,6.7
		c-1.6,0-3.2,0-4.8,0c0,3.4,0,6.8,0,10.4c0.7-0.1,1.4,0,2-0.2c1.1-0.3,1.5,0.2,1.7,1.1c0.2,0.9,0.3,1.9,0.4,2.8
		c0.1,0.7,0.4,1.4,0.6,2.2c-1.5,0.4-3.1,0.8-4.8,1.2c0,0.4,0,0.8,0,1.3c0,4-0.1,8,0.1,12c0.2,5.6-5.3,10.6-9.6,10.8
		c-0.4,0-0.9,0.1-1.5,0.2c0-2.1-0.1-4.1,0.1-6.2c0-0.4,0.7-0.8,1.2-1c2.1-0.8,2.8-1.7,2.8-3.8C292,60.7,292,56.9,292,52.8z"/>
	<path d="M354.9,69.1c2.2-0.4,4.2-0.6,6.2-1.2c4.8-1.3,9.6-2.6,13.2-6.4c1.3-1.4,2.2-3.1,2.7-5c0.1-0.3,0.3-0.7,0.5-0.7
		c2.1,0,4.3,0,6.6,0c-0.3,1.1-0.5,1.9-0.8,2.7c-0.3,0.7-0.1,1.2,0.6,1.6c4.8,2.8,9.7,5.5,15.1,7c2.5,0.7,5.1,1.2,7.6,1.8
		c0.2,0,0.3,0.1,0.4,0.2c-0.8,1.7-1.5,3.3-2.3,5c-0.4,1-1,1.3-2.2,1.1c-7-1.2-13.3-4.1-19.4-7.5c-0.7-0.4-1.4-0.6-1.9-1.1
		c-1-0.9-1.7-0.7-2.5,0.1c-4.4,4-9.6,6.3-15.3,7.6c-1.6,0.4-3.2,0.6-4.7,0.9c-0.8,0.1-1.3-0.1-1.5-1.1c-0.3-1.3-1-2.4-1.5-3.7
		C355.3,70,355.1,69.6,354.9,69.1z"/>
	<path d="M312,19.2c7.2,0,14.2,0,21.2,0c0.9,0,1.2,0.2,1.2,1.1c0,2.8,0,5.6-0.1,8.4c0,2.8,1.5,4.3,4.3,4.3c0.9,0,1.8,0,2.9,0
		c0,2.2,0,4.4,0,6.5c0,0.2-0.4,0.5-0.6,0.5c-4.3,0.2-8.2-0.5-11.2-4c-1.7-2.1-2.2-4.6-2.3-7.2c0-0.5,0.1-1.1-0.1-1.6
		c-0.1-0.4-0.6-0.8-0.9-0.9c-2.3-0.1-4.6-0.1-6.9,0c-0.4,0-0.9,0.7-1.1,1.2c-0.5,1.5-0.6,3-1.2,4.4c-1.5,3.9-4.3,6.6-7.7,8.8
		c-0.2,0.1-0.9,0-1-0.2c-0.9-1.7-1.7-3.4-2.5-5.2c-0.1-0.3,0.1-1,0.3-1.2c4-3,5.3-7.2,5.5-11.9C312,21.3,312,20.2,312,19.2z"/>
	<path d="M366,61.6c-2.4,0-4.6,0-6.9,0c0-4.5,0-9.1,0-13.8c0.5,0,0.9,0,1.3,0c13.4,0,26.8,0,40.2,0c1,0,1.4,0.2,1.4,1.3
		c-0.1,4,0,8,0,12.1c-2.3,0-4.6,0-6.9,0c0-2.6,0-5.3,0-8c-9.7,0-19.3,0-29.1,0C366,55.9,366,58.6,366,61.6z"/>
	<path d="M368.1,37.8c-3.4,2.4-6.7,4.6-9.9,6.8c-0.8,0.5-1.7,1.5-2.3,1.4c-0.7-0.1-1.1-1.4-1.7-2.1c-0.6-0.8-1.2-1.5-1.8-2.2
		c-0.5-0.6-0.6-1,0.2-1.5c3.1-2,6.1-4.1,9.1-6.1c0.8-0.5,1.6-1,2.6-1.7C365.5,34.2,366.8,35.9,368.1,37.8z"/>
	<path d="M365.7,24.9c-1.6,1.8-3,3.4-4.5,5.1c-2.6-2.2-5.1-4.4-7.6-6.7c-0.2-0.2-0.2-1,0-1.2c1.1-1.3,2.3-2.5,3.5-3.7
		c0.2-0.2,0.7-0.2,0.8-0.1C360.5,20.5,363,22.6,365.7,24.9z"/>
</g>
<polygon points="40.9,61 1.3,61 48.1,3.4 67.8,27.5 "/>
<polygon class="st0" points="94.7,61 134.3,61 87.5,3.4 67.8,27.5 "/>
<polygon class="st1" points="40.9,61.7 1.3,61.7 48.1,119.3 67.8,95.2 "/>
<polygon class="st2" points="94.7,61.7 134.3,61.7 87.5,119.3 48.1,119.3 "/>
<text transform="matrix(0.9518 0 0 1 151.4209 110.0461)" class="st3 st4">Metabit Trading</text>
</svg>
