<svg xmlns="http://www.w3.org/2000/svg" xmlns:xlink="http://www.w3.org/1999/xlink" id="Layer_1" x="0" y="0"
    version="1.1" viewBox="0 0 382.4 90" xml:space="preserve" style="enable-background:new 0 0 382.4 90">
    <style type="text/css">
        .st0 {
            fill: #e00
        }

        .st1 {
            fill: white;
        }
    </style>
    <path
        d="M79.4,51.9c7.8,0,19.1-1.6,19.1-10.9c0-0.7,0-1.4-0.2-2.1l-4.7-20.2c-1.1-4.4-2-6.5-9.8-10.4	C77.7,5.1,64.5,0,60.6,0c-3.6,0-4.7,4.7-9,4.7c-4.2,0-7.3-3.5-11.2-3.5c-3.8,0-6.2,2.6-8.1,7.8c0,0-5.3,14.8-5.9,17	c-0.1,0.4-0.2,0.8-0.1,1.2C26.3,33,49,51.8,79.4,51.9 M99.7,44.7c1.1,5.1,1.1,5.7,1.1,6.3c0,8.8-9.8,13.6-22.8,13.6	c-29.2,0-54.8-17.1-54.8-28.4c0-1.6,0.3-3.1,0.9-4.6C13.6,32.2,0,34.1,0,46.1C0,65.8,46.6,90,83.5,90c28.3,0,35.4-12.8,35.4-22.9	C119,59.1,112.1,50.1,99.7,44.7"
        class="st0" />
    <path
        d="M99.7,44.7c1.1,5.1,1.1,5.7,1.1,6.3c0,8.8-9.8,13.6-22.8,13.6c-29.2,0-54.8-17.1-54.8-28.4c0-1.6,0.3-3.1,0.9-4.6l2.3-5.7	c-0.1,0.4-0.2,0.8-0.1,1.2c0,5.8,22.7,24.7,53.1,24.7c7.8,0,19.1-1.6,19.1-10.9c0-0.7,0-1.4-0.2-2.1L99.7,44.7L99.7,44.7z M362,57.7	c0,7.4,4.5,11,12.6,11c2.5-0.1,5-0.4,7.4-1.1v-8.6c-1.6,0.5-3.2,0.7-4.8,0.7c-3.4,0-4.6-1.1-4.6-4.2V42.4h9.7v-8.9h-9.7V22.3	l-10.6,2.3v8.9H355v8.9h7V57.7L362,57.7z M328.9,57.9c0-2.3,2.3-3.4,5.8-3.4c2.1,0,4.2,0.3,6.3,0.8v4.5c-2,1.1-4.3,1.7-6.6,1.6	C330.9,61.4,328.9,60.1,328.9,57.9L328.9,57.9z M332.2,68.9c3.8,0,6.8-0.8,9.6-2.7v2.1h10.5V46c0-8.5-5.7-13.1-15.2-13.1	c-5.3,0-10.6,1.2-16.2,3.8l3.8,7.8c4.1-1.7,7.5-2.8,10.5-2.8c4.4,0,6.6,1.7,6.6,5.2v1.7c-2.6-0.7-5.2-1-7.9-1	c-8.9,0-14.3,3.8-14.3,10.5C319.5,64.2,324.4,68.9,332.2,68.9L332.2,68.9L332.2,68.9z M274.4,68.3h11.3v-18h18.9v18h11.3v-46h-11.3	v17.7h-18.9V22.3h-11.3L274.4,68.3L274.4,68.3z M231.3,50.9c0-5,3.9-8.8,9.1-8.8c2.7-0.1,5.3,0.9,7.4,2.7v12.2	c-2,1.9-4.6,2.9-7.4,2.8C235.3,59.7,231.3,55.9,231.3,50.9L231.3,50.9L231.3,50.9z M248,68.3h10.5V20l-10.6,2.3v13.1	c-2.7-1.5-5.8-2.3-8.9-2.3c-10.1,0-18.1,7.8-18.1,17.8l0,0.2c0,9.7,8,17.7,17.7,17.7h0.1c3.4,0,6.6-1,9.3-3L248,68.3z M199.7,41.6	c3.4,0,6.2,2.2,7.3,5.5h-14.5C193.5,43.6,196.2,41.6,199.7,41.6z M181.8,50.9c0,10.1,8.3,18,18.9,18c5.9,0,10.1-1.6,14.5-5.3l-7-6.2	c-1.6,1.7-4.1,2.6-7,2.6c-3.7,0.1-7.1-2.1-8.5-5.5h24.8v-2.6c0-11-7.4-19-17.5-19l-0.3,0c-9.8,0-17.9,8.1-17.9,17.9L181.8,50.9	L181.8,50.9L181.8,50.9z M163.4,31.9c3.8,0,5.9,2.4,5.9,5.2s-2.1,5.2-5.9,5.2h-11.2V31.9H163.4z M140.9,68.3h11.3V51.5h8.6l8.7,16.8	h12.7l-10.1-18.4c5.3-2.1,8.7-7.3,8.7-12.9c0-8.3-6.5-14.7-16.2-14.7h-23.6L140.9,68.3L140.9,68.3z"
        class="st1" />
</svg>