<svg xmlns="http://www.w3.org/2000/svg" width="60" height="60" fill="none" viewBox="0 0 60 60"><path fill="#000" d="M51.3022 54.5385L51.0863 56.5385L51.3669 56.6923L51.3453 57.0769L50.9568 57L50.6115 57.0769L50.5899 56.6923L50.8489 56.5385L51.6475 49.5385L51.8417 49.3846L52.6835 56.5385L52.9424 56.6923L52.9209 57.0769L52.4676 57L52.036 57.0769L52.0144 56.6923L52.295 56.5385L52.0791 54.5385H51.3022ZM51.7338 51.1538L51.7122 50.5385L51.3453 54H52.036L51.7338 51.1538ZM54.3237 55.6154C54.3237 56.0769 54.3453 56.2308 54.3669 56.3846H54.5396L54.5611 56.7692L54.1511 57.0769L54.0647 56.2308L53.5899 57.2308C53.1583 57.2308 53.0935 56.6923 53.0935 55.4615V52.6154L52.8561 52.6923L52.8345 52.3077L53.223 52L53.3741 51.9231V55.5385C53.3741 56.0769 53.4388 56.3077 53.6115 56.3077C53.7194 56.3077 53.8489 56 53.9568 55.7692L54.0216 55.6154V52.5385L53.8273 52.6154L53.8058 52.2308L54.1727 51.9231L54.3453 51.8462V55.6154H54.3237ZM55.554 52.5385C55.4676 52.3846 55.4029 52.3077 55.3165 52.3077C55.187 52.3077 55.0791 52.5385 55.0791 52.9231C55.0791 53.3077 55.1655 53.4615 55.295 53.6923L55.5324 54.0769C55.7482 54.4615 55.8345 54.8462 55.8345 55.4615C55.8345 56.4615 55.5971 56.7692 55.2302 57.0769C55.036 57.0769 54.8201 56.7692 54.7338 56.6154L54.6691 55.3846H54.8849L54.9928 56.3077C55.0791 56.4615 55.1655 56.6154 55.2518 56.6154C55.4245 56.6154 55.5108 56.2308 55.5108 55.7692C55.5108 55.3846 55.446 55.1539 55.2734 54.8462L55.0144 54.3846C54.8633 54.1538 54.7554 53.7692 54.7554 53.1538C54.7554 52.3846 54.9712 52 55.3381 51.6923C55.5108 51.6923 55.705 51.9231 55.7914 52.1539V53.2308H55.6187L55.554 52.5385ZM55.9424 52.6154V52.4615L56.0504 52.0769H56.2662V51.3846L56.482 50.6923H56.5683V52.1539H57.0647V52.6154H56.5899V55.7692C56.5899 56.0769 56.6331 56.3846 56.7626 56.3846C56.8489 56.3846 56.9353 56.2308 57.0216 56.1538L57.0647 56.5385L56.6978 57.2308C56.3309 57.2308 56.2878 56.7692 56.2878 55.8462V52.6154H55.9424ZM57.6259 57L57.259 57.0769L57.2374 56.6923L57.4532 56.6154V52.6923L57.2374 52.7692L57.2158 52.3846L57.6043 52.0769L57.7554 52V56.6154L57.9928 56.6923L57.9712 57.0769L57.6259 57ZM57.4748 49.6154L57.7122 49.5385L57.7986 49.6154L57.8201 50.2308L57.777 50.7692L57.5396 50.8462L57.4532 50.7692L57.4317 50.1538L57.4748 49.6154ZM58.554 57L58.187 57.0769L58.1655 56.6923L58.3813 56.6154V52.6923L58.1655 52.7692L58.1439 52.3846L58.5324 52.0769L58.6834 52L58.705 52.9231L59.1799 51.8462C59.5899 51.8462 59.6547 52.3077 59.6547 53.6154V56.6154L59.8921 56.6923L59.8705 57.0769L59.5036 57L59.2014 57.0769L59.1799 56.6923L59.3525 56.6154V53.5385C59.3525 53 59.2662 52.7692 59.1367 52.7692C59.0288 52.7692 58.9209 53 58.8129 53.2308L58.705 53.4615V56.6923L58.8777 56.7692L58.8561 57.1539L58.554 57ZM48.1079 51.7692C48.518 51.7692 48.6259 52.1538 48.6259 53.4615V55.6154C48.6259 56.0769 48.6475 56.2308 48.6691 56.3846H48.8417L48.8633 56.7692L48.4532 57.0769L48.3453 56.2308L47.9568 57.1539C47.6763 57.1539 47.482 56.6154 47.482 55.7692C47.482 55.3846 47.5252 55.0769 47.5899 54.7692L48.3237 54V53.4615C48.3237 52.8462 48.3022 52.3846 48.1295 52.3846C48.0432 52.3846 47.9352 52.4615 47.8705 52.6154L47.8273 53.4615H47.5468V52.6154L48.1079 51.7692ZM48.3237 54.4615L47.8489 55.0769C47.8058 55.2308 47.7842 55.4615 47.7842 55.6923C47.7842 56.2308 47.8705 56.4615 47.9784 56.4615C48.0647 56.4615 48.1511 56.3077 48.1942 56.1538L48.3237 55.8462V54.4615ZM48.8417 52.6154V52.4615L48.9496 52.0769H49.1655V51.3846L49.3813 50.6923H49.4676V52.1539H49.964V52.6154H49.4676V55.7692C49.4676 56.0769 49.5108 56.3846 49.6403 56.3846C49.7266 56.3846 49.8129 56.2308 49.8993 56.1538L49.9424 56.5385L49.5755 57.2308C49.2086 57.2308 49.1655 56.7692 49.1655 55.8462V52.6154H48.8417ZM40.3381 57.0769L39.8201 57L39.2806 57.0769L39.259 56.6923L39.6475 56.5385V50H39.1511L39 51.3846H38.8705V49.4615L39.7986 49.5385L40.7266 49.4615V51.3846H40.5971L40.446 50H39.9496V56.5385L40.3165 56.6923C40.3381 56.6923 40.3381 57.0769 40.3381 57.0769ZM40.8993 54.3077C40.8993 55.5385 41.0935 56.3846 41.4388 56.3846C41.5683 56.3846 41.7194 56.1538 41.8489 55.9231L41.8921 56.3077C41.741 56.6923 41.5252 57 41.3309 57.1539C40.9424 57.1539 40.5971 56.2308 40.5971 54.5385C40.5971 52.9231 40.8777 52.0769 41.3309 51.7692C41.7626 51.7692 41.8921 52.6923 41.8921 53.7692V54.2308L40.8993 54.3077ZM41.5468 53.7692C41.5468 52.9231 41.5036 52.3846 41.2446 52.3846C41.0504 52.3846 40.9209 53 40.8993 53.9231L41.5468 53.7692ZM42.6259 56.6923L42.6043 57.0769L42.3453 57L42 57.0769L41.9784 56.6923L42.2158 56.6154L42.6906 54.6154L42.2158 52.4615L42.0216 52.3077L42.0432 51.9231L42.4101 52L42.7122 51.9231L42.7338 52.3077L42.6043 52.4615L42.8417 53.6923L42.8633 54L43.1655 52.5385L43.0144 52.3846L43.036 52L43.295 52.0769L43.6403 52L43.6619 52.3846L43.4245 52.5385L42.9928 54.2308L43.4892 56.6154L43.6834 56.6923L43.6619 57.0769L43.295 57L42.9928 57.0769L42.9712 56.6923L43.1007 56.6154L42.8201 55.2308L42.7986 55L42.4532 56.6154L42.6259 56.6923ZM44.4604 51.7692C44.8705 51.7692 44.9784 52.1538 44.9784 53.4615V55.6154C44.9784 56.0769 45 56.2308 45.0216 56.3846H45.1727L45.1942 56.7692L44.7842 57.0769L44.6763 56.2308L44.2878 57.1539C44.0072 57.1539 43.8129 56.6154 43.8129 55.7692C43.8129 55.3846 43.8561 55.0769 43.9209 54.7692L44.6547 54V53.4615C44.6547 52.8462 44.6331 52.3846 44.4604 52.3846C44.3741 52.3846 44.2662 52.4615 44.2014 52.6154L44.1583 53.4615H43.8777V52.6154C43.8777 52.6923 44.4604 51.7692 44.4604 51.7692ZM44.6547 54.4615L44.1799 55.0769C44.1367 55.2308 44.1151 55.4615 44.1151 55.6923C44.1151 56.2308 44.2014 56.4615 44.3094 56.4615C44.3957 56.4615 44.482 56.3077 44.5252 56.1538L44.6547 55.8462V54.4615ZM46.187 52.5385C46.1439 52.4615 46.0576 52.3077 45.9496 52.3077C45.8201 52.3077 45.7122 52.5385 45.7122 52.9231C45.7122 53.3077 45.7986 53.4615 45.9281 53.6923L46.1655 54.0769C46.3813 54.4615 46.4676 54.8462 46.4676 55.4615C46.4676 56.4615 46.2302 56.7692 45.8633 57.0769C45.6691 57.0769 45.4532 56.7692 45.3669 56.6154L45.3022 55.3846H45.518L45.6259 56.3077C45.6906 56.4615 45.7986 56.6154 45.8849 56.6154C46.0576 56.6154 46.1439 56.2308 46.1439 55.7692C46.1439 55.3846 46.0791 55.1539 45.9065 54.8462L45.6475 54.3846C45.4964 54.1538 45.3669 53.7692 45.3669 53.1538C45.3669 52.3846 45.5827 52 45.9496 51.6923C46.1223 51.6923 46.3165 51.9231 46.4029 52.1539V53.2308H46.2302L46.187 52.5385ZM36.7338 54.3846C36.7338 56 36.4317 56.9231 35.9352 57.1539C35.5036 57.1539 35.223 56 35.223 54.6154C35.223 53 35.5252 52.0769 36.0216 51.7692C36.4317 51.7692 36.7338 52.9231 36.7338 54.3846ZM36.0216 56.6923C36.2806 56.6923 36.4101 55.8462 36.4101 54.6154C36.4101 53.2308 36.2158 52.3077 35.9352 52.3077C35.6763 52.3077 35.5468 53.1538 35.5468 54.3846C35.5252 55.6154 35.7194 56.6923 36.0216 56.6923ZM37.446 52.0769H37.8561V52.6154H37.446V56.6154L37.8129 56.6923L37.7914 57.0769L37.295 57L36.9281 57.0769L36.9065 56.6923L37.1439 56.6154V52.6154H36.8633V52.4615L36.9712 52.0769H37.1655V52C37.1655 51.3846 37.2302 50.9231 37.3381 50.4615L37.6187 49.4615H38.0288V50.3077H37.6187L37.554 50.6154C37.5108 50.8462 37.4892 51.1538 37.4892 51.8462L37.446 52.0769ZM21.7122 49.8462L21.7338 49.4615L22.1439 49.5385L22.5108 49.4615L22.5324 49.8462L22.2518 50V54.3846C22.2518 55.7692 22.0791 56.6923 21.4317 57.2308C20.8058 57.2308 20.5683 56.0769 20.5683 54.3846V50L20.2878 49.8462L20.3094 49.4615L20.7626 49.5385L21.1942 49.4615L21.2158 49.8462L20.9353 50V54.5385C20.9353 55.8462 21.1079 56.6154 21.4748 56.6154C21.8201 56.6154 21.9928 55.8462 21.9928 54.4615V50C22.0144 50 21.7122 49.8462 21.7122 49.8462ZM22.9856 57L22.6187 57.0769L22.5971 56.6923L22.8129 56.6154V52.6923L22.5971 52.7692L22.5755 52.3846L22.964 52.0769L23.1151 52L23.1367 52.9231L23.6115 51.8462C24.0216 51.8462 24.0863 52.3077 24.0863 53.6154V56.6154L24.3237 56.6923L24.3022 57.0769L23.9353 57L23.6331 57.0769L23.6115 56.6923L23.7842 56.6154V53.5385C23.7842 53 23.6978 52.7692 23.5683 52.7692C23.4604 52.7692 23.3525 53 23.223 53.2308L23.1367 53.4615V56.6923L23.3094 56.7692L23.2878 57.1539L22.9856 57ZM24.8417 57L24.4748 57.0769L24.4532 56.6923L24.6691 56.6154V52.6923L24.4532 52.7692L24.4317 52.3846L24.8201 52.0769L24.9928 52V56.6154L25.2302 56.6923L25.2086 57.0769L24.8417 57ZM24.6691 49.6154L24.9065 49.5385L24.9928 49.6154L25.0144 50.2308L24.9712 50.7692L24.7338 50.8462L24.6475 50.7692L24.6259 50.1538L24.6691 49.6154ZM26.1367 56.3846L26.5252 52.4615L26.3741 52.3077L26.3957 51.9231L26.6763 52L26.9568 51.9231L26.9784 52.3077L26.7626 52.4615L26.2446 56.9231L26.0072 57.2308L25.446 52.4615L25.2518 52.3077L25.2734 51.9231L25.6403 52L25.9856 51.9231L26.0072 52.3077L25.7914 52.4615L26.1367 55.6154C26.1151 55.6154 26.1367 56.3846 26.1367 56.3846ZM27.2806 54.3077C27.2806 55.5385 27.4748 56.3846 27.8201 56.3846C27.9496 56.3846 28.1007 56.1538 28.2302 55.9231L28.2734 56.3077C28.1223 56.6923 27.9065 57 27.7122 57.1539C27.3237 57.1539 26.9568 56.2308 26.9568 54.5385C26.9568 52.9231 27.2374 52.0769 27.6906 51.7692C28.1223 51.7692 28.2518 52.6923 28.2518 53.7692V54.2308L27.2806 54.3077ZM27.9281 53.7692C27.9281 52.9231 27.8849 52.3846 27.6259 52.3846C27.4317 52.3846 27.3022 53 27.2806 53.9231L27.9281 53.7692ZM28.9856 53.3846L29.3525 51.8462H29.6115V52.9231H29.3741C29.2878 53 29.1583 53.3077 29.0719 53.6923L29.0072 53.9231V56.4615L29.3525 56.5385L29.3309 56.9231L28.8561 56.8462L28.4892 56.9231L28.4676 56.5385L28.6835 56.4615V52.5385L28.4676 52.6154L28.446 52.2308L28.8345 51.9231L28.964 51.8462L28.9856 53.3846ZM30.6259 52.5385C30.5827 52.4615 30.4964 52.3077 30.3885 52.3077C30.259 52.3077 30.1511 52.5385 30.1511 52.9231C30.1511 53.3077 30.2374 53.4615 30.3669 53.6923L30.6043 54.0769C30.8201 54.4615 30.9065 54.8462 30.9065 55.4615C30.9065 56.4615 30.6691 56.7692 30.3022 57.0769C30.1079 57.0769 29.8921 56.7692 29.8058 56.6154L29.741 55.3846H29.9568L30.0647 56.3077C30.1295 56.4615 30.2374 56.6154 30.3237 56.6154C30.4964 56.6154 30.5827 56.2308 30.5827 55.7692C30.5827 55.3846 30.518 55.1539 30.3453 54.8462L30.0863 54.3846C29.9352 54.1538 29.8058 53.7692 29.8058 53.1538C29.8058 52.3846 30.0216 52 30.3885 51.6923C30.5612 51.6923 30.7554 51.9231 30.8417 52.1539V53.2308H30.6691L30.6259 52.5385ZM31.5108 57L31.1439 57.0769L31.1223 56.6923L31.3381 56.6154V52.6923L31.1223 52.7692L31.1007 52.3846L31.4892 52.0769L31.6403 52V56.6154L31.8777 56.6923L31.8561 57.0769L31.5108 57ZM31.3597 49.6154L31.5971 49.5385L31.6835 49.6154L31.705 50.2308L31.6619 50.7692L31.4245 50.8462L31.3381 50.7692L31.3165 50.1538L31.3597 49.6154ZM33.1295 59.5385V58.4615H33.4101L33.7338 56.8462L33.6043 57L33.0647 52.4615H32.5683V55.7692C32.5683 56.0769 32.6115 56.3846 32.741 56.3846C32.8273 56.3846 32.9352 56.2308 33.0216 56.0769L33.0647 56.4615L32.6547 57.2308C32.2878 57.2308 32.2446 56.7692 32.2446 55.8462V52.6154H31.9424V52.4615L32.0504 52.0769H32.2662V51.3846L32.482 50.6923H32.5683V52.0769H33.5827L33.6043 52.4615L33.3885 52.6154L33.7554 55.7692L33.777 56.5385L34.187 52.6154L34.036 52.4615L34.0576 52.0769L34.3381 52.1539L34.6187 52.0769L34.6403 52.4615L34.4245 52.6154L33.9065 57L33.5396 59.6923L33.1295 59.5385ZM17.6978 57L17.3957 57.0769L17.3741 56.6923L17.5252 56.6154V53.5385C17.5252 53 17.4388 52.7692 17.3094 52.7692C17.2014 52.7692 17.0935 53 16.964 53.2308L16.8777 53.4615V56.6923L17.0504 56.7692V57.0769L16.7482 57L16.4029 57.0769L16.3813 56.6923L16.5755 56.6154V50H16.4676L15.8201 49.9231V56.4615L16.187 56.6154L16.1655 57L15.6475 56.9231L15.1079 57.0769L15.0863 56.6923L15.4748 56.5385V50H14.9784L14.8273 51.3846H14.6978V49.4615H15.6259H16.4245L16.7698 49.3077H16.8777V52.7692L17.3525 51.7692C17.7626 51.7692 17.8273 52.3077 17.8273 53.6154V56.4615L18.0647 56.5385L18.0432 56.9231L17.6978 57ZM18.5396 54.3077C18.5396 55.5385 18.7338 56.3846 19.0791 56.3846C19.2086 56.3846 19.3597 56.1538 19.4892 55.9231L19.5324 56.3077C19.3813 56.6923 19.1655 57 18.9712 57.1539C18.5827 57.1539 18.2158 56.2308 18.2158 54.5385C18.2158 52.9231 18.4964 52.0769 18.9496 51.7692C19.3813 51.7692 19.5108 52.6923 19.5108 53.7692V54.2308L18.5396 54.3077ZM19.187 53.7692C19.187 52.9231 19.1439 52.3846 18.8849 52.3846C18.6906 52.3846 18.5612 53 18.5396 53.9231L19.187 53.7692ZM57.4317 19.4615C58.6187 21.3077 59.6763 24 59.6763 29.4615C59.6763 34.5385 58.705 39.4615 55.8777 41.5385C54.4748 41.5385 53.5468 40.1538 52.7482 37.8462L52.4245 30.5385H53.482L54 35.1538C54.4532 37.1538 55.2734 38.5385 56.1367 38.5385C57.4317 38.5385 58.187 35.6154 58.187 31.6923C58.187 28 57.518 25.9231 56.6115 24.5385L54.777 21.6923C53.6978 20 52.7914 17.5385 52.7914 12.7692C52.7914 6.92308 54.3022 3.46154 56.4173 1.84615C57.3669 1.84615 58.4245 3 59.1799 5V12.3077H58.4245L57.9928 7.38462C57.6043 5.92308 57.1079 4.76923 56.2014 4.76923C54.9928 4.76923 54.3022 7.07692 54.3022 10.6923C54.3022 13.6923 54.8849 15.4615 55.7266 16.7692L57.4317 19.4615ZM47.1799 2.30769L51.1295 38.2308L52.3165 38.8462L52.2302 40.6923L50.1367 40.5385L48.1511 40.6923L48.0647 38.8462L49.3597 38.1538L48.3237 28.0769H44.5899L43.5971 38.1538L44.9137 38.8462L44.8273 40.6923L43.0144 40.5385L41.7842 40.6923L40.0144 40.5385L37.8561 40.6923L37.7698 38.7692L39.0647 38.0769L36.7122 24.6154L34.1223 38.0769L35.3525 38.6923L35.2662 40.6154L33.4964 40.4615L31.8129 40.6154L31.7266 38.6923L32.9137 38.0769L36.1727 22.0769L33.0863 5.23077L31.8993 4.61538L31.9856 2.76923L34.1439 3L36.2806 2.76923L36.3669 4.61538L35.0719 5.30769L37.2086 17.9231L39.6259 5.38462L38.3094 4.69231L38.3957 2.84615L40.1655 3L41.9352 2.84615L42.0216 4.69231L40.8345 5.30769L37.7266 20.5385L41.0935 38.1538L41.8273 38.5385L42.5611 38.1538L46.3165 3.23077L47.1799 2.30769ZM44.8273 25.3846H48.0432L46.4029 9.23077L44.8273 25.3846ZM29.6115 37.9231L30.6259 30.6154H31.2086L30.6906 40.6154L24.6906 40.4615L22.5971 40.6154L22.5108 38.7692L23.8705 38.0769V5.38462L22.5108 4.69231L22.5971 2.84615L24.6906 3L30.6906 2.84615L30.8417 12.5385H30.3237L29.482 5.53846L25.4676 5.30769V19.6923L27.5827 19.4615L28.187 13.8462H28.7266L28.5755 20.6154L28.7266 27.9231H28.187L27.5827 22.3077L25.4676 22.0769V38.2308L29.6115 37.9231ZM12.9928 2.76923L17.3309 2.92308L21.6906 2.76923V12.3077H21.1079L20.4173 5.46154L18.1295 5.38462V38.0769L19.8777 38.7692L19.7914 40.6154L17.3309 40.4615L14.7842 40.6154L14.6978 38.7692L16.5108 38.0769V5.38462L14.2662 5.46154L13.5755 12.3077H12.9928V2.76923ZM10.2086 1.30769V16.6923C10.2086 22.3846 10.0576 29.6923 8.80575 36.1538C8.54676 37.4615 8.2446 38.7692 7.92086 39.9231C7.2518 42.2308 6.36691 44.3846 5.09352 46.9231C3.82014 44.3846 2.93525 42.2308 2.26619 39.9231C1.92086 38.7692 1.61871 37.5385 1.38129 36.1538C0.151079 29.7692 0 22.3846 0 16.6923V1.30769L0.194245 1.23077C0.23741 1.23077 2.97842 0 5.11511 0C7.2518 0 9.99281 1.23077 10.0144 1.23077L10.2086 1.30769ZM8.43885 35.2308C9.58273 29.2308 9.73381 22.2308 9.73381 16.7692L5.09352 15.8462L0.47482 16.7692C0.47482 22.2308 0.625899 29.2308 1.79137 35.2308C2.02878 36.5385 2.33094 37.6923 2.63309 38.7692C3.64748 42.0769 4.79137 43.9231 5.11511 44.3846C5.43885 43.9231 6.58273 42.0769 7.59712 38.7692C7.92086 37.6154 8.20144 36.4615 8.43885 35.2308ZM0.71223 2.69231L0.47482 14.8462H9.73381L9.4964 2.69231C8.63309 2.38462 6.69065 1.69231 5.09352 1.69231C3.51799 1.69231 1.57554 2.38462 0.71223 2.69231ZM8.41727 26.3846L8.28777 26.4615C8.26619 26.7692 8.26619 27.0769 8.22302 27.3846C8.3741 27.0769 8.54676 26.8462 8.74101 26.7692L8.8705 26.6923V27.1538C8.8705 28.1538 8.78417 29.1538 8.58993 29.9231C8.39568 30.6923 8.13669 31.1538 7.85612 31.2308L7.7482 31.3077C7.72662 31.6154 7.68345 31.9231 7.64029 32.1538C7.76978 32 7.89928 31.9231 8.02878 31.9231C8.07194 31.9231 8.11511 31.9231 8.17986 31.9231L8.30935 32L8.28777 32.4615C8.22302 33.4615 8.07194 34.3077 7.83453 34.9231C7.64029 35.3846 7.42446 35.6923 7.18705 35.6923C7.14388 35.6923 7.10072 35.6923 7.03597 35.6923L6.92806 35.6154C6.88489 35.9231 6.82014 36.1538 6.7554 36.3846C6.92806 36.3077 7.1223 36.3077 7.29496 36.5385L7.40288 36.6923L7.35971 37.0769C7.2518 38 7.03597 38.7692 6.77698 39.1538C6.6259 39.3846 6.47482 39.5385 6.32374 39.5385C6.19424 39.5385 6.06475 39.4615 5.95683 39.3077L5.84892 39.2308C5.69784 39.6923 5.54676 40.0769 5.30935 40.6923C5.41727 40.9231 5.52518 41.2308 5.65468 41.5385L5.43885 42C5.30935 41.6923 5.20144 41.4615 5.11511 41.2308C5.00719 41.4615 4.89928 41.7692 4.79137 42L4.57554 41.5385C4.70504 41.2308 4.81295 41 4.92086 40.6923C4.68345 40.1538 4.53237 39.6923 4.38129 39.2308L4.29496 39.3077C4.18705 39.4615 4.05755 39.5385 3.92806 39.5385C3.77698 39.5385 3.6259 39.3846 3.47482 39.1538C3.21583 38.7692 3 38 2.89209 37.0769L2.80576 36.6923L2.91367 36.5385C3.08633 36.3077 3.25899 36.3077 3.45324 36.3846C3.38849 36.1538 3.34532 35.9231 3.28058 35.6154L3.17266 35.6923C3.1295 35.6923 3.08633 35.6923 3.04317 35.6923C2.80576 35.6923 2.56835 35.4615 2.39568 34.9231C2.15827 34.3077 2.00719 33.4615 1.94245 32.4615L1.92086 32L2.05036 31.9231C2.09353 31.9231 2.13669 31.9231 2.17986 31.9231C2.30935 31.9231 2.43885 32 2.56835 32.1538C2.52518 31.9231 2.48201 31.6154 2.46043 31.3077L2.35252 31.2308C2.07194 31.2308 1.81295 30.7692 1.61871 30C1.42446 29.2308 1.31655 28.3077 1.33813 27.2308V26.7692L1.46763 26.8462C1.64029 26.9231 1.83453 27.0769 1.98561 27.4615C1.96403 27.1538 1.94245 26.8462 1.92086 26.5385L1.81295 26.4615C1.51079 26.0769 1.29496 25.4615 1.14388 24.6154C0.992806 23.7692 0.94964 22.6923 1.01439 21.6923L1.03597 21.2308L1.16547 21.3846C1.29496 21.5385 1.42446 21.7692 1.53237 22.0769C1.51079 21.6154 1.51079 21.0769 1.53237 20.6154C1.57554 19.6154 1.7482 18.7692 1.96403 18.1538L2.05036 17.8462L2.11511 18.2308C2.26619 19.0769 2.30935 20.0769 2.26619 21.0769C2.20144 22.0769 2.05036 22.9231 1.83453 23.5385C1.89928 23.8462 1.94245 24.2308 1.94245 24.6154C2.00719 23.9231 2.11511 23.3846 2.28777 22.9231L2.39568 22.6154L2.48201 23C2.65468 23.8462 2.71942 24.8462 2.67626 25.8462C2.63309 26.8462 2.5036 27.7692 2.28777 28.3846C2.35252 28.6923 2.39568 29.0769 2.43885 29.3846C2.46043 28.6923 2.54676 28 2.67626 27.4615L2.76259 27.0769L2.84892 27.3846C3.06475 28.0769 3.19424 29 3.21583 30C3.23741 31 3.15108 32 2.97842 32.8462C3.06475 33.0769 3.1295 33.3846 3.19424 33.6923C3.17266 33 3.21583 32.3077 3.30216 31.6154L3.36691 31.2308L3.47482 31.4615C3.71223 32 3.90647 32.7692 3.99281 33.7692C4.07914 34.7692 4.03597 35.7692 3.90647 36.6923C4.01439 36.8462 4.07914 37.1538 4.16547 37.3846C4.1223 36.6923 4.10072 36 4.16547 35.3077L4.18705 34.8462L4.29496 35C4.57554 35.3077 4.79137 36 4.92086 36.9231C5.05036 37.7692 5.09352 38.7692 5.02878 39.7692C5.07194 39.8462 5.09352 39.9231 5.13669 40.0769C5.17986 40 5.22302 39.9231 5.2446 39.7692C5.17986 38.8462 5.22302 37.8462 5.35252 36.9231C5.48201 36 5.71942 35.3846 5.97842 35L6.08633 34.8462L6.10791 35.3077C6.15108 36 6.15108 36.6923 6.10791 37.3846C6.17266 37.0769 6.25899 36.8462 6.36691 36.6923C6.23741 35.7692 6.21583 34.7692 6.28058 33.7692C6.36691 32.7692 6.53957 32 6.79856 31.4615L6.90647 31.2308L6.97122 31.6154C7.05755 32.2308 7.10072 33 7.07914 33.6923C7.14388 33.3846 7.20863 33.0769 7.29496 32.8462C7.1223 32.0769 7.03597 31.0769 7.05755 30.0769C7.07914 29.0769 7.20863 28.1538 7.42446 27.4615L7.51079 27.1538L7.59712 27.5385C7.72662 28.1538 7.79137 28.7692 7.83453 29.4615C7.8777 29.0769 7.92086 28.7692 7.98561 28.4615C7.76978 27.8462 7.6187 26.9231 7.59712 25.9231C7.55396 24.9231 7.64029 23.9231 7.79137 23.0769L7.8777 22.6923L7.98561 23C8.13669 23.4615 8.26619 24.0769 8.33093 24.6923C8.35252 24.3077 8.3741 24 8.41727 23.6154C8.17986 23 8.02878 22.1538 7.98561 21.1538C7.94245 20.1538 7.98561 19.1538 8.13669 18.3077L8.20144 17.9231L8.30935 18.2308C8.54676 18.8462 8.69784 19.6923 8.74101 20.6923C8.76259 21.1538 8.76259 21.6923 8.74101 22.1538C8.84892 21.8462 8.97842 21.6154 9.10791 21.4615L9.23741 21.3077L9.25899 21.7692C9.32374 22.7692 9.28057 23.7692 9.1295 24.6923C8.91367 25.4615 8.67626 26.1538 8.41727 26.3846ZM8.39568 29.4615C8.52518 29 8.58993 28.3846 8.61151 27.7692C8.43885 27.9231 8.28777 28.2308 8.15827 28.6923C8.02878 29.1538 7.96403 29.7692 7.94245 30.3846C8.13669 30.2308 8.28777 29.9231 8.39568 29.4615ZM7.76978 25.7692C7.79137 26.3846 7.8777 27 7.98561 27.4615C8.07194 26.9231 8.09352 26.2308 8.07194 25.6154C8.05036 25 7.96403 24.3846 7.85612 23.9231C7.76978 24.4615 7.7482 25.1538 7.76978 25.7692ZM8.11511 20.9231C8.15827 21.5385 8.2446 22.1538 8.35252 22.5385C8.41727 21.9231 8.43885 21.3077 8.41727 20.6923C8.3741 20.0769 8.28777 19.4615 8.17986 19.0769C8.09352 19.6923 8.07194 20.3077 8.11511 20.9231ZM8.97842 22.3846C8.82734 22.6154 8.67626 23.0769 8.58993 23.6154C8.5036 24.1538 8.46043 24.7692 8.48201 25.4615C8.63309 25.1538 8.78417 24.7692 8.8705 24.2308C8.93525 23.6154 8.97842 23 8.97842 22.3846ZM7.66187 34.2308C7.81295 33.8462 7.92086 33.3077 7.96403 32.7692C7.79137 32.7692 7.6187 33 7.46763 33.3846C7.31655 33.7692 7.20863 34.2308 7.16547 34.8462C7.35971 34.8462 7.51079 34.6154 7.66187 34.2308ZM7.2518 30.1538C7.23022 30.7692 7.27338 31.3846 7.35971 32C7.46763 31.4615 7.53237 30.9231 7.55396 30.3077C7.57554 29.6923 7.53237 29.0769 7.44604 28.4615C7.33813 28.9231 7.2518 29.5385 7.2518 30.1538ZM6.77698 34.4615C6.82014 33.8462 6.82014 33.2308 6.77698 32.6154C6.64748 33 6.53957 33.5385 6.4964 34.1538C6.45324 34.7692 6.45324 35.3846 6.4964 36C6.6259 35.6154 6.73381 35.0769 6.77698 34.4615ZM7.05755 37.2308C6.88489 37.1538 6.71223 37.2308 6.53957 37.4615C6.36691 37.6923 6.23741 38.1538 6.15108 38.6923C6.19424 38.6923 6.25899 38.7692 6.30216 38.7692C6.43165 38.7692 6.53957 38.6923 6.66906 38.4615C6.82014 38.1538 6.97122 37.7692 7.05755 37.2308ZM5.52518 37.4615C5.43885 38 5.39568 38.6154 5.41727 39.3077C5.56835 39 5.69784 38.5385 5.78417 38C5.8705 37.4615 5.89209 36.8462 5.89209 36.1538C5.74101 36.4615 5.61151 36.9231 5.52518 37.4615ZM3.53957 38.4615C3.69065 38.6923 3.88489 38.7692 4.05755 38.6923C3.97122 38.1538 3.82014 37.6923 3.66906 37.4615C3.4964 37.1538 3.32374 37.1538 3.15108 37.2308C3.23741 37.7692 3.36691 38.1538 3.53957 38.4615ZM3.41007 34.4615C3.45324 35.0769 3.56115 35.6154 3.69065 36C3.73381 35.3846 3.7554 34.7692 3.69065 34.1538C3.64748 33.5385 3.53957 33 3.41007 32.6154C3.36691 33.2308 3.36691 33.8462 3.41007 34.4615ZM4.31655 36.1538C4.29496 36.7692 4.33813 37.3846 4.42446 37.9231C4.51079 38.4615 4.64029 38.9231 4.79137 39.2308C4.81295 38.6154 4.76978 38 4.68345 37.3846C4.59712 36.9231 4.46763 36.4615 4.31655 36.1538ZM2.52518 34.2308C2.67626 34.6154 2.82734 34.7692 3 34.8462C2.93525 34.2308 2.82734 33.7692 2.69784 33.3846C2.54676 33 2.3741 32.7692 2.20144 32.7692C2.28777 33.3846 2.39568 33.9231 2.52518 34.2308ZM2.76259 28.4615C2.67626 29 2.63309 29.6154 2.65468 30.3077C2.67626 30.9231 2.74101 31.5385 2.84892 32C2.93525 31.4615 2.97842 30.8462 2.95683 30.1538C2.93525 29.5385 2.8705 29 2.76259 28.4615ZM1.79137 29.4615C1.89928 29.9231 2.07194 30.2308 2.2446 30.3846C2.22302 29.7692 2.13669 29.1538 2.02878 28.6923C1.89928 28.2308 1.7482 27.9231 1.57554 27.7692C1.59712 28.3846 1.68345 28.9231 1.79137 29.4615ZM1.72662 25.3846C1.7482 24.7692 1.70504 24.0769 1.61871 23.5385C1.53237 23 1.40288 22.5385 1.23022 22.3077C1.20863 22.9231 1.2518 23.5385 1.33813 24.1538C1.44604 24.6923 1.57554 25.1538 1.72662 25.3846ZM1.76978 20.7692C1.7482 21.3846 1.7482 22.0769 1.83453 22.6154C1.96403 22.1538 2.05036 21.6154 2.07194 21C2.09353 20.3846 2.07194 19.7692 2.00719 19.1538C1.89928 19.5385 1.81295 20.1538 1.76978 20.7692ZM2.13669 25.6154C2.11511 26.2308 2.13669 26.9231 2.22302 27.4615C2.33094 27 2.41727 26.3846 2.43885 25.7692C2.46043 25.1538 2.43885 24.4615 2.35252 23.9231C2.2446 24.3846 2.15827 25 2.13669 25.6154ZM2.93525 22.3846C2.93525 22.3077 2.93525 22.3077 2.93525 22.3077H4.57554L5.09352 16.7692C5.09352 16.7692 5.09353 16.6923 5.11511 16.6923C5.11511 16.6923 5.13669 16.6923 5.13669 16.7692L5.65468 22.3077H7.29496H7.31655C7.31655 22.3846 7.31655 22.3846 7.31655 22.3846L5.97842 25.8462L6.4964 31.4615C6.4964 31.4615 6.4964 31.4615 6.4964 31.5385L5.15827 28.0769L3.82014 31.5385L4.33813 25.9231L2.93525 22.3846ZM4.81295 23.3846L3.99281 23.6154L4.64029 25.4615L4.42446 28.3077L5.11511 26.7692L5.80576 28.3077L5.61151 25.4615L6.23741 23.6154L5.41727 23.4615L5.11511 20.6923L4.81295 23.3846ZM7.72662 7.84615H7.51079V9.53846H7.72662V10.7692H7.51079V13.0769H7.35971C7.03597 13.0769 6.71223 12.9231 6.38849 12.6923C6.1295 12.5385 5.8705 12.3846 5.65468 12.3846C5.48201 12.3846 5.35252 12.4615 5.2446 12.6923H4.96403C4.85611 12.5385 4.72662 12.3846 4.55396 12.3846C4.33813 12.3846 4.10072 12.5385 3.82014 12.6923C3.51799 12.8462 3.17266 13.0769 2.84892 13.0769H2.69784V10.7692H2.48201V9.53846H2.69784V7.84615H2.48201V6.53846H2.69784V4.38462H2.84892C3.15108 4.38462 3.47482 4.23077 3.77698 4.07692C4.05755 4 4.31655 3.84615 4.55396 3.84615C4.76978 3.84615 4.96403 4 5.11511 4.23077C5.26619 4 5.46043 3.84615 5.67626 3.84615C5.91367 3.84615 6.17266 4 6.43165 4.15385C6.73381 4.30769 7.03597 4.46154 7.35971 4.46154H7.51079V6.61539H7.72662V7.84615ZM3.77698 11.6923C4.05755 11.5385 4.31655 11.3846 4.55396 11.3846C4.68345 11.3846 4.79137 11.4615 4.89928 11.5385L4.96403 6V5.07692C4.85611 4.92308 4.72662 4.84615 4.55396 4.84615C4.33813 4.84615 4.10072 5 3.82014 5.15385C3.58273 5.23077 3.34532 5.38462 3.10791 5.38462L3.04317 12C3.28058 12 3.53957 11.8462 3.77698 11.6923ZM6.43165 11.6923C6.66906 11.8462 6.92806 12 7.16547 12L7.10072 5.38462C6.86331 5.30769 6.6259 5.23077 6.38849 5.07692C6.1295 4.92308 5.8705 4.76923 5.65468 4.76923C5.48201 4.76923 5.35252 4.84615 5.2446 5V5.92308L5.28777 11.4615C5.39568 11.3846 5.5036 11.3077 5.63309 11.3077C5.89209 11.4615 6.15108 11.5385 6.43165 11.6923ZM3.60432 8.07692V8.92308L3.32374 9.07692V8.23077C3.34532 8.23077 3.60432 8.07692 3.60432 8.07692ZM3.99281 6C4.23022 5.84615 4.46763 5.76923 4.68345 5.84615V6.69231C4.48921 6.61538 4.2518 6.69231 4.01439 6.84615C3.99281 6.84615 3.99281 6 3.99281 6ZM3.82014 9.92308L3.84173 10.7692H3.82014C3.64748 10.8462 3.4964 10.9231 3.32374 11V10.1538C3.47482 10.0769 3.6259 10 3.77698 9.92308C3.79856 9.92308 3.79856 9.92308 3.82014 9.92308ZM3.99281 9.84615C4.23022 9.76923 4.44604 9.69231 4.64029 9.69231V10.5385C4.44604 10.4615 4.23022 10.6154 3.99281 10.6923V9.84615ZM3.79856 8C4.10072 7.84615 4.40288 7.69231 4.68345 7.76923V8.61539C4.44604 8.53846 4.16547 8.69231 3.84173 8.84615C3.82014 8.84615 3.82014 8.84615 3.82014 8.84615V8H3.79856ZM6.10791 6V6.84615C5.89209 6.76923 5.69784 6.69231 5.52518 6.76923V5.92308C5.71942 5.84615 5.91367 5.84615 6.10791 6ZM6.86331 6.30769V7.15385C6.71223 7.07692 6.56115 7 6.41007 6.92308C6.36691 6.92308 6.32374 6.84615 6.30216 6.84615V6C6.34532 6.07692 6.41007 6.07692 6.45324 6.07692C6.58273 6.23077 6.71223 6.23077 6.86331 6.30769ZM6.06475 7.84615V8.69231C5.89209 8.61539 5.71942 8.53846 5.56835 8.61539V7.76923C5.71942 7.76923 5.8705 7.76923 6.06475 7.84615ZM6.88489 8.23077V9.07692C6.71223 9 6.56115 8.92308 6.41007 8.84615C6.36691 8.84615 6.30216 8.76923 6.23741 8.76923V7.92308C6.30216 8 6.36691 8 6.43165 8C6.58273 8.07692 6.73381 8.15385 6.88489 8.23077ZM6.41007 10.7692V9.92308C6.43165 9.92308 6.43165 9.92308 6.43165 9.92308C6.58273 10 6.73381 10.0769 6.88489 10.1538V11C6.73381 10.9231 6.58273 10.8462 6.41007 10.7692ZM6.23741 9.84615V10.6923C6 10.5385 5.76259 10.4615 5.56835 10.5385V9.69231C5.78417 9.61539 6 9.69231 6.23741 9.84615ZM3.82014 6.07692V6.92308H3.79856C3.64748 7 3.4964 7.07692 3.34532 7.15385V6.30769C3.4964 6.23077 3.6259 6.15385 3.77698 6.07692C3.79856 6.07692 3.79856 6.07692 3.82014 6.07692Z"/></svg>