<svg width="541" height="446" viewBox="0 0 541 446" fill="none" xmlns="http://www.w3.org/2000/svg">
<rect x="2" y="2" width="537" height="442" rx="48" fill="#222222" stroke="url(#paint0_radial_12290_16757)" stroke-width="3"/>
<rect x="170.5" y="131.5" width="262" height="161" fill="#444444" stroke="#666666" stroke-width="3"/>
<path fill-rule="evenodd" clip-rule="evenodd" d="M232.891 208.561C215.46 200.216 208.094 179.318 216.438 161.885C220.446 153.513 227.614 147.077 236.366 143.991C245.119 140.905 254.739 141.423 263.109 145.431C280.54 153.776 287.906 174.674 279.562 192.107C271.217 209.54 250.322 216.907 232.891 208.561V208.561Z" fill="#009639"/>
<path d="M259.422 171.688L251.916 175.447C252.109 175.874 252.189 176.361 252.173 176.847C252.157 177.304 252.044 177.747 251.852 178.145L258.94 182.095C259.583 181.358 260.531 180.872 261.576 180.798L261.897 173.103C261.817 173.088 261.752 173.073 261.672 173.059C260.724 172.852 259.952 172.351 259.422 171.688Z" fill="white"/>
<path d="M272.171 162.503L249.701 150.607C248.785 150.105 247.644 150.105 246.711 150.607L224.258 162.503C223.325 162.99 222.763 163.889 222.763 164.877V188.67C222.747 189.157 222.892 189.628 223.149 190.041C223.406 190.454 223.792 190.808 224.242 191.044L246.711 202.94C247.628 203.441 248.769 203.441 249.701 202.94L272.171 191.044C273.103 190.557 273.666 189.658 273.666 188.67V164.877C273.666 163.904 273.103 162.99 272.171 162.503ZM262.816 180.636C264.89 180.945 266.304 182.744 265.967 184.646C265.629 186.547 263.668 187.845 261.595 187.535C259.521 187.225 258.107 185.427 258.445 183.525C258.493 183.26 258.573 183.024 258.67 182.788L251.437 179.073C250.746 179.943 249.621 180.503 248.367 180.503C247.113 180.503 245.988 179.943 245.297 179.088L238.064 182.788C238.241 183.186 238.337 183.628 238.337 184.085C238.337 184.587 238.225 185.058 238.016 185.486L245.377 189.51C246.069 188.7 247.161 188.184 248.367 188.184C250.472 188.184 252.176 189.746 252.176 191.677C252.176 193.609 250.472 195.171 248.367 195.171C246.261 195.171 244.558 193.609 244.558 191.677C244.558 191.176 244.67 190.704 244.879 190.277L237.518 186.252C236.827 187.063 235.75 187.579 234.528 187.579C232.423 187.579 230.719 186.017 230.719 184.085C230.719 182.154 232.423 180.592 234.528 180.592C235.782 180.592 236.907 181.152 237.598 182.007L244.831 178.292C244.654 177.894 244.558 177.452 244.558 176.995C244.558 175.211 246.004 173.751 247.885 173.53V165.319C246.856 165.201 245.956 164.7 245.345 163.977L237.695 168.076C237.887 168.488 238 168.96 238 169.432C238 171.363 236.296 172.926 234.191 172.926C232.085 172.926 230.381 171.363 230.381 169.432C230.381 167.501 232.085 165.938 234.191 165.938C235.428 165.938 236.521 166.469 237.212 167.309L244.863 163.211C244.67 162.798 244.558 162.326 244.558 161.855C244.558 159.923 246.261 158.361 248.367 158.361C250.472 158.361 252.176 159.923 252.176 161.855C252.176 163.638 250.73 165.098 248.849 165.319V173.53C249.862 173.648 250.762 174.135 251.356 174.827L258.718 170.818C258.429 170.199 258.332 169.491 258.477 168.769C258.879 166.867 260.872 165.629 262.945 165.997C265.018 166.366 266.368 168.194 265.967 170.095C265.645 171.614 264.295 172.719 262.704 172.896V180.606C262.736 180.621 262.784 180.636 262.816 180.636Z" fill="white"/>
<path fill-rule="evenodd" clip-rule="evenodd" d="M354.322 270.66C337.389 262.552 330.234 242.252 338.34 225.317C342.233 217.184 349.196 210.931 357.699 207.934C366.201 204.936 375.546 205.439 383.678 209.333C400.611 217.44 407.766 237.74 399.66 254.675C391.554 271.61 371.255 278.767 354.322 270.66V270.66Z" fill="#326CE5"/>
<path d="M368.678 219.15C368.296 219.17 367.922 219.264 367.578 219.429L352.568 226.601C352.18 226.786 351.838 227.056 351.57 227.39C351.301 227.725 351.111 228.115 351.015 228.532L347.312 244.641C347.227 245.012 347.217 245.397 347.284 245.772C347.351 246.147 347.493 246.504 347.702 246.824C347.753 246.902 347.807 246.978 347.865 247.05L358.254 259.968C358.523 260.302 358.865 260.572 359.253 260.757C359.642 260.943 360.067 261.039 360.498 261.039L377.159 261.035C377.59 261.035 378.015 260.939 378.404 260.754C378.792 260.569 379.134 260.3 379.403 259.966L389.788 247.047C390.057 246.712 390.247 246.322 390.343 245.905C390.439 245.488 390.439 245.054 390.343 244.637L386.634 228.528C386.538 228.111 386.349 227.721 386.08 227.386C385.811 227.052 385.47 226.782 385.081 226.597L370.07 219.429C369.637 219.222 369.158 219.126 368.678 219.15V219.15Z" fill="white"/>
<path d="M368.827 224.633C368.331 224.633 367.928 225.08 367.928 225.631C367.928 225.639 367.93 225.648 367.93 225.656C367.93 225.731 367.926 225.821 367.928 225.886C367.94 226.204 368.01 226.448 368.051 226.741C368.127 227.368 368.19 227.887 368.151 228.37C368.113 228.552 367.979 228.719 367.859 228.835L367.838 229.215C367.299 229.26 366.756 229.341 366.214 229.465C363.881 229.994 361.873 231.196 360.344 232.818C360.245 232.75 360.071 232.626 360.02 232.588C359.859 232.609 359.697 232.659 359.486 232.536C359.084 232.265 358.718 231.892 358.275 231.442C358.072 231.226 357.925 231.022 357.683 230.814C357.629 230.767 357.545 230.703 357.484 230.655C357.295 230.504 357.073 230.426 356.858 230.419C356.582 230.409 356.316 230.517 356.142 230.735C355.833 231.123 355.932 231.716 356.363 232.06C356.367 232.063 356.372 232.066 356.376 232.069C356.435 232.117 356.508 232.179 356.562 232.219C356.818 232.408 357.052 232.505 357.307 232.655C357.844 232.987 358.29 233.262 358.643 233.594C358.781 233.741 358.805 234 358.824 234.112L359.112 234.369C357.57 236.689 356.857 239.554 357.278 242.474L356.902 242.583C356.803 242.711 356.663 242.913 356.516 242.973C356.054 243.119 355.534 243.172 354.906 243.238C354.611 243.262 354.356 243.248 354.044 243.307C353.975 243.32 353.879 243.345 353.804 243.363C353.801 243.363 353.799 243.364 353.796 243.365C353.792 243.366 353.787 243.368 353.783 243.368C353.253 243.496 352.913 243.983 353.022 244.463C353.132 244.942 353.649 245.234 354.182 245.119C354.186 245.118 354.191 245.118 354.195 245.117C354.201 245.116 354.207 245.113 354.213 245.111C354.287 245.095 354.38 245.077 354.445 245.06C354.752 244.977 354.975 244.856 355.251 244.751C355.846 244.537 356.338 244.359 356.818 244.29C357.018 244.274 357.229 244.413 357.334 244.472L357.726 244.405C358.627 247.199 360.515 249.457 362.907 250.874L362.743 251.266C362.802 251.418 362.867 251.624 362.823 251.774C362.649 252.226 362.35 252.703 362.01 253.235C361.845 253.481 361.677 253.672 361.528 253.953C361.493 254.021 361.447 254.124 361.413 254.195C361.182 254.689 361.352 255.258 361.795 255.472C362.242 255.687 362.796 255.46 363.035 254.965C363.036 254.964 363.037 254.964 363.037 254.963C363.037 254.962 363.037 254.962 363.037 254.961C363.071 254.891 363.12 254.799 363.149 254.733C363.276 254.441 363.318 254.191 363.408 253.909C363.645 253.312 363.776 252.686 364.103 252.295C364.193 252.188 364.339 252.147 364.49 252.107L364.694 251.738C366.779 252.538 369.112 252.753 371.443 252.224C371.975 252.103 372.488 251.947 372.985 251.759C373.042 251.861 373.148 252.056 373.177 252.105C373.331 252.155 373.499 252.181 373.635 252.383C373.88 252.801 374.048 253.296 374.252 253.894C374.341 254.176 374.385 254.426 374.513 254.717C374.542 254.784 374.59 254.877 374.624 254.948C374.863 255.444 375.419 255.672 375.866 255.456C376.31 255.243 376.479 254.674 376.248 254.18C376.214 254.109 376.167 254.005 376.131 253.938C375.982 253.657 375.814 253.468 375.649 253.222C375.309 252.69 375.027 252.248 374.853 251.796C374.78 251.562 374.865 251.417 374.922 251.266C374.888 251.227 374.815 251.007 374.772 250.903C377.257 249.436 379.09 247.093 379.951 244.388C380.067 244.406 380.269 244.442 380.335 244.455C380.47 244.366 380.594 244.25 380.838 244.269C381.318 244.338 381.81 244.516 382.404 244.729C382.681 244.835 382.903 244.958 383.211 245.04C383.276 245.058 383.369 245.074 383.443 245.09C383.449 245.092 383.454 245.095 383.46 245.096C383.464 245.097 383.47 245.097 383.474 245.098C384.006 245.213 384.524 244.921 384.633 244.442C384.742 243.962 384.402 243.475 383.873 243.347C383.796 243.33 383.687 243.3 383.612 243.286C383.299 243.227 383.045 243.241 382.75 243.217C382.122 243.151 381.602 243.097 381.139 242.952C380.951 242.879 380.817 242.654 380.752 242.562L380.389 242.457C380.577 241.096 380.526 239.679 380.201 238.262C379.872 236.832 379.291 235.524 378.517 234.371C378.61 234.287 378.786 234.131 378.836 234.085C378.85 233.924 378.838 233.755 379.005 233.576C379.358 233.245 379.803 232.97 380.341 232.638C380.596 232.488 380.832 232.391 381.087 232.202C381.145 232.159 381.224 232.092 381.285 232.043C381.716 231.699 381.815 231.106 381.506 230.718C381.197 230.33 380.597 230.294 380.166 230.637C380.105 230.686 380.021 230.749 379.966 230.797C379.725 231.004 379.576 231.209 379.373 231.424C378.93 231.874 378.564 232.25 378.162 232.521C377.988 232.622 377.733 232.587 377.617 232.58L377.275 232.824C375.327 230.781 372.674 229.474 369.817 229.221C369.809 229.101 369.799 228.885 369.796 228.82C369.679 228.708 369.538 228.612 369.503 228.37C369.463 227.887 369.529 227.368 369.604 226.741C369.646 226.448 369.715 226.204 369.727 225.886C369.73 225.814 369.725 225.709 369.725 225.631C369.725 225.08 369.323 224.633 368.827 224.633H368.827ZM367.702 231.601L367.435 236.314L367.416 236.323C367.398 236.745 367.051 237.082 366.625 237.082C366.45 237.082 366.289 237.026 366.159 236.93L366.151 236.934L362.287 234.195C363.474 233.027 364.993 232.164 366.744 231.766C367.064 231.694 367.383 231.64 367.702 231.601ZM369.954 231.601C371.998 231.852 373.888 232.778 375.336 234.196L371.497 236.918L371.484 236.913C371.143 237.162 370.663 237.1 370.397 236.767C370.288 236.63 370.231 236.47 370.224 236.308L370.22 236.306L369.954 231.601ZM360.885 235.955L364.414 239.111L364.41 239.13C364.728 239.407 364.775 239.887 364.51 240.22C364.401 240.357 364.255 240.448 364.099 240.491L364.095 240.506L359.572 241.812C359.342 239.707 359.838 237.661 360.885 235.955ZM376.743 235.957C377.268 236.806 377.665 237.755 377.901 238.784C378.134 239.801 378.193 240.816 378.097 241.796L373.551 240.487L373.547 240.468C373.14 240.357 372.89 239.943 372.985 239.527C373.024 239.357 373.114 239.213 373.236 239.107L373.234 239.097L376.743 235.957H376.743ZM368.103 239.354H369.549L370.447 240.477L370.124 241.879L368.827 242.503L367.525 241.877L367.203 240.476L368.103 239.354ZM372.737 243.198C372.799 243.194 372.86 243.2 372.919 243.211L372.927 243.201L377.605 243.992C376.921 245.916 375.611 247.582 373.86 248.697L372.044 244.311L372.05 244.303C371.883 243.916 372.05 243.461 372.434 243.276C372.532 243.229 372.635 243.203 372.737 243.198H372.737ZM364.88 243.217C365.237 243.222 365.557 243.47 365.64 243.833C365.679 244.003 365.66 244.172 365.596 244.321L365.609 244.338L363.813 248.68C362.133 247.602 360.795 245.988 360.079 244.008L364.717 243.221L364.725 243.23C364.776 243.221 364.829 243.216 364.88 243.217V243.217ZM368.798 245.119C368.922 245.115 369.049 245.14 369.168 245.198C369.326 245.274 369.447 245.393 369.524 245.536H369.541L371.827 249.667C371.53 249.766 371.225 249.851 370.913 249.922C369.165 250.319 367.422 250.199 365.844 249.661L368.124 245.538H368.128C368.265 245.282 368.524 245.129 368.798 245.119Z" fill="#326CE5" stroke="#326CE5" stroke-width="0.25"/>
<path d="M94.0671 318C112.716 318.004 128.023 333.104 128 351.474C127.976 370.123 112.732 385.013 93.6771 385C75.0485 384.987 59.987 369.871 60 351.201C60.0127 332.946 75.3521 317.996 94.0671 318ZM83.7584 329.757C84.1859 331.847 83.7706 333.797 83.1384 335.714C82.7005 337.042 82.0953 338.32 81.7341 339.666C81.1386 341.884 80.463 344.114 80.2152 346.382C79.8589 349.643 81.1494 352.516 83.3576 355.372L73.207 353.25C73.2248 353.568 73.2059 353.689 73.2409 353.791C74.203 356.598 75.8961 358.963 77.7939 361.193C77.9947 361.429 78.4519 361.55 78.7904 361.55C88.9113 361.569 99.0324 361.568 109.153 361.555C109.467 361.554 109.886 361.495 110.079 361.294C112.248 359.029 113.907 356.45 114.944 353.2L104.198 355.29C104.907 353.91 105.716 352.697 106.181 351.364C107.772 346.804 107.113 342.395 104.829 338.237C102.997 334.9 101.306 331.578 102.22 327.556C100.285 329.454 99.542 331.87 99.0703 334.361C98.6057 336.814 98.3319 339.303 97.9723 341.791C97.9212 341.716 97.8549 341.661 97.8446 341.596C97.803 341.335 97.7642 341.072 97.75 340.808C97.5315 336.732 96.7299 332.804 95.038 329.053C94.0421 326.845 92.9439 324.588 93.9705 321.954C93.2757 322.318 92.6478 322.679 92.1977 323.196C90.8544 324.737 90.2988 326.588 90.1559 328.614C90.0338 330.346 89.8663 332.085 89.5431 333.788C89.2034 335.577 88.6648 337.331 87.4545 338.975C86.9656 335.463 86.9112 331.989 83.7584 329.757ZM109.854 364.629H78.1102V370.106H109.854V364.629ZM84.4042 372.935C84.3779 377.495 89.0551 380.893 94.8357 380.647C99.6261 380.442 103.866 376.699 103.501 372.935H84.4042Z" fill="#E75225"/>
<defs>
<radialGradient id="paint0_radial_12290_16757" cx="0" cy="0" r="1" gradientUnits="userSpaceOnUse" gradientTransform="translate(275 222.5) rotate(-39.0392) scale(330.237 401.215)">
<stop offset="0.526351" stop-color="#00B39F"/>
<stop offset="1" stop-color="#00B39F" stop-opacity="0"/>
</radialGradient>
</defs>
</svg>
