<svg width="852" height="356" viewBox="0 0 852 356" fill="none" xmlns="http://www.w3.org/2000/svg">
<path d="M640.605 147.55L711.669 186.356" stroke="#CFCFCF" stroke-width="5"/>
<path d="M643.41 136.329L721.019 121.835" stroke="#CFCFCF" stroke-width="5"/>
<path d="M765.904 114.354L851.001 97.99" stroke="url(#paint0_linear_12523_17700)" stroke-width="5"/>
<path d="M748.137 205.526L829.49 248.54" stroke="url(#paint1_linear_12523_17700)" stroke-width="5"/>
<path d="M212.328 144.745L143.135 184.486" stroke="#CFCFCF" stroke-width="5"/>
<path d="M211.393 136.329L131.91 122.302" stroke="#CFCFCF" stroke-width="5"/>
<path d="M89.834 113.887L1.00011 97.99" stroke="url(#paint2_linear_12523_17700)" stroke-width="5"/>
<path d="M106.672 203.656L25.3187 246.67" stroke="url(#paint3_linear_12523_17700)" stroke-width="5"/>
<g filter="url(#filter0_d_12523_17700)">
<circle cx="384.062" cy="169.932" r="2.10857" fill="#666666"/>
</g>
<g filter="url(#filter1_d_12523_17700)">
<path d="M472.621 171.901L536.72 236" stroke="black" stroke-opacity="0.1" stroke-width="5"/>
<circle cx="470.511" cy="169.932" r="2.10857" transform="rotate(-90 470.511 169.932)" fill="#666666"/>
</g>
<path d="M342.57 138.814H251.921" stroke="url(#paint4_linear_12523_17700)" stroke-width="5"/>
<path d="M290.879 272.948L213.266 353.271" stroke="url(#paint5_linear_12523_17700)" stroke-width="5"/>
<path d="M564.859 270.143L641.537 353.271" stroke="url(#paint6_linear_12523_17700)" stroke-width="5"/>
<path d="M381.578 172.422L319.862 236.008" stroke="url(#paint7_linear_12523_17700)" stroke-width="5"/>
<path d="M472.281 172.422L535.868 236.008" stroke="url(#paint8_linear_12523_17700)" stroke-width="5"/>
<path d="M512.492 138.759L601.326 138.759" stroke="url(#paint9_linear_12523_17700)" stroke-width="5"/>
<g filter="url(#filter2_d_12523_17700)">
<circle cx="345.455" cy="138.715" r="2.10857" transform="rotate(45 345.455 138.715)" fill="#666666"/>
</g>
<g filter="url(#filter3_d_12523_17700)">
<circle cx="507.934" cy="138.816" r="2.10857" transform="rotate(-135 507.934 138.816)" fill="#666666"/>
</g>
<path d="M534.945 267.263L571.659 260.954L550.717 268.674L534.945 267.263Z" fill="url(#paint10_linear_12523_17700)"/>
<path d="M534.274 266.004L547.374 262.379L540.025 248.529L534.274 266.004Z" fill="url(#paint11_linear_12523_17700)"/>
<path d="M549.675 261.984L570.995 259.694L536.982 238.062L549.675 261.984Z" fill="url(#paint12_linear_12523_17700)"/>
<g filter="url(#filter4_d_12523_17700)">
<path d="M536.23 265.958L572.944 259.65L552.057 267.473L536.23 265.958Z" fill="#466BB0"/>
<path d="M535.542 264.665L548.624 261.006L541.074 246.777L535.542 264.665Z" fill="#466BB0"/>
<path d="M550.921 260.611L572.258 258.356L537.881 236.035L550.921 260.611Z" fill="#466BB0"/>
</g>
<g filter="url(#filter5_d_12523_17700)">
<path d="M323.246 262.479L327.873 248.766C327.989 248.41 328.013 248.051 327.943 247.715C327.873 247.379 327.71 247.075 327.467 246.823L317.943 237.125C317.696 236.874 317.374 236.683 317 236.567C316.627 236.451 316.211 236.413 315.783 236.454L299.282 238.075C298.857 238.119 298.431 238.241 298.036 238.432C297.641 238.623 297.286 238.879 296.996 239.182L285.946 250.9C285.668 251.197 285.463 251.53 285.343 251.876C285.306 251.981 285.277 252.087 285.256 252.193C285.219 252.374 285.208 252.553 285.221 252.728C285.227 252.803 285.237 252.877 285.252 252.951L287.97 265.943C287.982 265.999 288 266.053 288.018 266.108C288.075 266.289 288.16 266.459 288.272 266.614C288.414 266.808 288.596 266.978 288.81 267.117C288.984 267.232 289.181 267.325 289.394 267.393L289.534 267.436L303.837 271.874C303.924 271.9 304.014 271.923 304.106 271.94C304.238 271.966 304.373 271.983 304.512 271.991C304.611 271.997 304.711 271.999 304.813 271.996C304.892 271.993 304.971 271.991 305.05 271.983C305.17 271.971 305.289 271.953 305.408 271.93C305.715 271.87 306.017 271.77 306.303 271.634L306.769 271.408L321.593 264.231C321.878 264.092 322.142 263.918 322.375 263.716C322.471 263.633 322.561 263.546 322.645 263.455C322.923 263.158 323.128 262.824 323.247 262.478L323.246 262.479ZM306.699 263.234C306.676 263.343 306.66 263.452 306.653 263.56C306.495 263.662 306.38 263.806 306.334 263.96C306.28 264.414 306.279 264.862 306.331 265.3C306.37 265.528 306.393 265.76 306.4 265.995C306.398 266.058 306.389 266.152 306.384 266.218C306.387 266.32 306.365 266.427 306.317 266.529C306.269 266.632 306.198 266.729 306.108 266.815C306.017 266.9 305.91 266.971 305.792 267.024C305.674 267.078 305.549 267.111 305.424 267.123C305.299 267.135 305.178 267.125 305.067 267.093C304.956 267.062 304.859 267.01 304.782 266.94C304.704 266.871 304.648 266.786 304.617 266.691C304.586 266.595 304.581 266.492 304.602 266.387C304.607 266.322 304.611 266.235 304.618 266.175C304.66 265.935 304.718 265.694 304.793 265.455C304.912 265 304.979 264.545 304.994 264.096C304.97 263.949 304.876 263.826 304.732 263.753C304.731 263.706 304.734 263.524 304.733 263.429C301.924 263.508 299.369 262.708 297.557 261.18L297.201 261.416C297.065 261.395 296.916 261.411 296.774 261.461C296.263 261.776 295.796 262.141 295.385 262.548C295.188 262.749 294.979 262.943 294.76 263.128C294.703 263.173 294.616 263.232 294.552 263.279L294.551 263.28L294.549 263.281C294.454 263.363 294.344 263.431 294.224 263.48C294.104 263.528 293.978 263.557 293.853 263.564C293.729 263.57 293.609 263.555 293.501 263.519C293.394 263.482 293.301 263.425 293.228 263.352C293.156 263.279 293.106 263.19 293.081 263.093C293.056 262.995 293.058 262.891 293.085 262.785C293.112 262.68 293.165 262.577 293.239 262.483C293.314 262.388 293.409 262.305 293.518 262.237C293.582 262.19 293.671 262.12 293.735 262.077C293.983 261.92 294.239 261.774 294.502 261.64C295.001 261.362 295.475 261.049 295.918 260.705C296.023 260.575 296.085 260.428 296.096 260.282L296.429 260.017C295.004 258.21 294.526 255.898 295.086 253.517L294.714 253.464C294.635 253.338 294.511 253.24 294.355 253.181C293.841 253.118 293.311 253.099 292.773 253.124C292.488 253.146 292.205 253.155 291.924 253.15C291.859 253.147 291.769 253.136 291.697 253.129C291.691 253.129 291.685 253.129 291.68 253.129C291.675 253.128 291.671 253.127 291.667 253.126C291.544 253.125 291.428 253.102 291.326 253.059C291.224 253.015 291.138 252.953 291.073 252.875C291.008 252.796 290.967 252.704 290.951 252.605C290.935 252.505 290.945 252.4 290.98 252.296C291.015 252.192 291.075 252.091 291.156 252C291.237 251.909 291.337 251.83 291.449 251.768C291.561 251.706 291.684 251.663 291.808 251.64C291.933 251.617 292.057 251.616 292.173 251.637L292.186 251.638L292.194 251.638C292.268 251.645 292.363 251.651 292.429 251.659C292.696 251.705 292.957 251.764 293.21 251.836C293.699 251.955 294.21 252.03 294.735 252.061C294.918 252.024 295.097 251.955 295.259 251.857L295.638 251.872C296.665 249.524 298.635 247.422 301.173 245.968L301.048 245.688C301.13 245.538 301.163 245.379 301.144 245.23C300.958 244.838 300.723 244.469 300.443 244.129C300.284 243.957 300.139 243.775 300.009 243.585C299.982 243.538 299.949 243.471 299.921 243.417L299.914 243.406C299.808 243.235 299.796 243.023 299.881 242.816C299.966 242.609 300.141 242.423 300.367 242.301C300.493 242.241 300.628 242.204 300.763 242.194C300.898 242.184 301.027 242.201 301.141 242.243C301.335 242.313 301.485 242.437 301.569 242.598C301.599 242.653 301.64 242.726 301.665 242.777C301.75 242.99 301.819 243.208 301.872 243.432C301.994 243.849 302.167 244.248 302.389 244.622C302.489 244.735 302.646 244.801 302.827 244.807C302.881 244.897 302.938 244.987 302.995 245.076C305.181 244.176 307.521 243.804 309.716 244.008C310.239 244.057 310.75 244.137 311.246 244.248L311.449 243.954C311.63 243.894 311.797 243.794 311.928 243.666C312.21 243.241 312.447 242.801 312.635 242.353C312.722 242.115 312.826 241.879 312.944 241.645C312.974 241.593 313.021 241.523 313.058 241.464C313.062 241.458 313.064 241.45 313.068 241.444C313.118 241.341 313.192 241.245 313.285 241.161C313.377 241.077 313.486 241.007 313.605 240.956C313.724 240.904 313.85 240.873 313.975 240.864C314.1 240.854 314.221 240.867 314.331 240.901C314.44 240.935 314.536 240.989 314.611 241.061C314.686 241.132 314.739 241.219 314.767 241.316C314.795 241.412 314.797 241.517 314.772 241.622C314.748 241.727 314.698 241.831 314.626 241.927C314.588 241.989 314.541 242.073 314.504 242.129C314.343 242.349 314.168 242.563 313.981 242.77C313.644 243.172 313.348 243.594 313.1 244.029C313.042 244.183 313.054 244.338 313.135 244.463C313.107 244.515 313.01 244.689 312.959 244.785C315.295 245.754 316.969 247.477 317.669 249.637L318.085 249.536C318.228 249.61 318.402 249.645 318.586 249.636C319.124 249.497 319.654 249.317 320.169 249.097C320.437 248.973 320.711 248.86 320.989 248.761C321.06 248.738 321.163 248.711 321.239 248.689C321.36 248.643 321.487 248.618 321.612 248.615C321.736 248.611 321.855 248.63 321.961 248.67C322.067 248.71 322.157 248.77 322.226 248.847C322.295 248.923 322.341 249.014 322.362 249.113C322.382 249.213 322.376 249.318 322.344 249.424C322.312 249.529 322.254 249.631 322.175 249.724C322.096 249.817 321.998 249.899 321.886 249.963C321.774 250.028 321.651 250.074 321.526 250.099C321.45 250.121 321.348 250.154 321.276 250.172C320.991 250.233 320.704 250.281 320.417 250.315C319.875 250.399 319.334 250.527 318.802 250.696C318.629 250.775 318.488 250.903 318.408 251.052C318.343 251.075 318.115 251.151 317.993 251.192C318.218 253.496 317.395 255.946 315.68 258.078L315.943 258.259C315.942 258.412 315.992 258.555 316.089 258.671C316.477 258.924 316.902 259.139 317.356 259.314C317.603 259.397 317.841 259.492 318.069 259.6C318.128 259.632 318.208 259.685 318.266 259.719C318.366 259.766 318.449 259.831 318.511 259.912C318.572 259.992 318.609 260.086 318.621 260.186C318.633 260.287 318.619 260.393 318.58 260.496C318.541 260.6 318.477 260.7 318.393 260.789C318.31 260.878 318.207 260.954 318.093 261.014C317.979 261.073 317.856 261.113 317.731 261.133C317.606 261.152 317.483 261.15 317.369 261.126C317.254 261.102 317.152 261.057 317.068 260.994L317.057 260.989C317.053 260.986 317.05 260.982 317.045 260.979C316.989 260.946 316.916 260.909 316.868 260.878C316.673 260.734 316.49 260.58 316.321 260.415C315.981 260.118 315.601 259.855 315.187 259.629C315.029 259.575 314.839 259.579 314.66 259.642C314.561 259.588 314.461 259.536 314.36 259.485C312.276 261.409 309.55 262.743 306.699 263.234Z" fill="url(#paint13_radial_12523_17700)" fill-opacity="0.8" shape-rendering="crispEdges"/>
</g>
<path d="M308.15 254.724C308.105 254.699 308.055 254.68 308.002 254.666C307.91 254.642 307.81 254.635 307.708 254.645C307.51 254.664 307.317 254.744 307.167 254.869C307.018 254.995 306.924 255.155 306.905 255.318L306.896 255.323L306.399 259.106C308.388 258.728 310.275 257.828 311.764 256.547L308.161 254.719L308.15 254.724ZM301.684 253.275C301.731 253.134 301.721 252.992 301.656 252.871C301.591 252.751 301.475 252.659 301.326 252.61C301.282 252.596 301.235 252.586 301.187 252.579L301.185 252.57L296.884 251.941C296.58 253.576 296.93 255.16 297.881 256.446L301.424 253.647L301.42 253.63C301.548 253.532 301.64 253.407 301.684 253.275ZM304.189 255.581C304.19 255.468 304.153 255.362 304.083 255.274C304.013 255.187 303.912 255.12 303.79 255.083C303.668 255.045 303.531 255.038 303.392 255.061C303.254 255.084 303.119 255.137 303.003 255.215L303 255.214L299.148 257.721C300.276 258.57 301.723 259.1 303.329 259.253C303.627 259.282 303.925 259.298 304.223 259.301L304.203 255.586L304.189 255.581ZM314.766 250.265L310.329 251.707L310.326 251.715C310.191 251.757 310.067 251.828 309.966 251.919C309.865 252.01 309.792 252.118 309.754 252.231C309.716 252.345 309.715 252.46 309.751 252.564C309.787 252.668 309.858 252.757 309.958 252.823L309.952 252.838L313.201 255.022C314.316 253.535 314.866 251.865 314.766 250.265L314.766 250.265ZM309.071 248.812C309.01 248.922 308.984 249.038 308.996 249.149C309.007 249.26 309.056 249.361 309.137 249.441C309.218 249.522 309.327 249.579 309.454 249.607C309.581 249.635 309.721 249.632 309.858 249.599L309.867 249.607L314.39 248.568C313.815 247.104 312.634 245.918 311.028 245.194L309.068 248.81L309.071 248.812ZM305.332 248.209C305.391 248.303 305.483 248.378 305.598 248.425C305.713 248.472 305.847 248.49 305.985 248.477C306.124 248.465 306.261 248.421 306.384 248.352C306.506 248.282 306.609 248.189 306.68 248.083L306.701 248.082L309.118 244.6C308.827 244.544 308.53 244.502 308.228 244.472C306.624 244.314 304.923 244.541 303.317 245.128L305.323 248.211L305.332 248.209ZM301.929 250.35C302.064 250.358 302.205 250.335 302.337 250.283C302.469 250.231 302.588 250.153 302.68 250.056C302.772 249.959 302.834 249.847 302.86 249.733C302.885 249.618 302.874 249.506 302.826 249.406L302.838 249.393L301.31 246.085C299.582 247.122 298.233 248.553 297.474 250.153L301.919 250.361L301.929 250.35ZM304.193 252.298L305.006 253.112L306.398 252.984L307.322 252.013L307.082 250.93L305.855 250.549L304.57 251.157L304.193 252.298Z" fill="#326CE5"/>
<path d="M322.272 260.39L326.611 247.273C326.72 246.933 326.739 246.589 326.667 246.266C326.594 245.944 326.432 245.651 326.191 245.408L316.783 236.051C316.539 235.809 316.223 235.624 315.857 235.511C315.491 235.397 315.085 235.357 314.669 235.395L298.599 236.844C298.185 236.884 297.772 236.998 297.389 237.179C297.006 237.36 296.663 237.603 296.384 237.891L285.756 249.054C285.49 249.337 285.293 249.655 285.181 249.986C285.146 250.087 285.119 250.188 285.1 250.289C285.066 250.462 285.057 250.634 285.073 250.802C285.08 250.874 285.09 250.945 285.105 251.016L287.919 263.487C287.931 263.542 287.95 263.593 287.968 263.646C288.026 263.82 288.111 263.983 288.222 264.132C288.363 264.32 288.542 264.483 288.753 264.618C288.924 264.73 289.117 264.82 289.325 264.886L289.463 264.929L303.465 269.273C303.55 269.299 303.638 269.321 303.728 269.339C303.857 269.364 303.989 269.381 304.124 269.39C304.221 269.396 304.319 269.398 304.418 269.396C304.495 269.394 304.572 269.392 304.649 269.385C304.765 269.375 304.882 269.358 304.998 269.336C305.296 269.281 305.589 269.187 305.866 269.058L306.318 268.845L320.683 262.059C320.959 261.927 321.214 261.762 321.438 261.57C321.53 261.491 321.618 261.408 321.699 261.321C321.965 261.038 322.161 260.72 322.273 260.389L322.272 260.39ZM306.147 261.009C306.126 261.113 306.112 261.218 306.106 261.321C305.953 261.418 305.844 261.555 305.8 261.703C305.753 262.137 305.758 262.567 305.814 262.987C305.855 263.206 305.88 263.428 305.89 263.654C305.889 263.714 305.881 263.805 305.877 263.867C305.882 263.966 305.861 264.067 305.816 264.165C305.771 264.264 305.703 264.356 305.615 264.438C305.528 264.519 305.424 264.587 305.31 264.637C305.196 264.687 305.074 264.718 304.953 264.729C304.831 264.739 304.712 264.729 304.604 264.698C304.496 264.667 304.4 264.617 304.324 264.55C304.248 264.483 304.192 264.401 304.161 264.309C304.129 264.218 304.123 264.118 304.142 264.018C304.146 263.956 304.149 263.873 304.155 263.815C304.193 263.585 304.247 263.355 304.316 263.126C304.427 262.691 304.487 262.255 304.495 261.825C304.471 261.683 304.377 261.565 304.235 261.494C304.234 261.449 304.234 261.274 304.233 261.183C301.495 261.242 298.994 260.458 297.207 258.983L296.863 259.206C296.73 259.185 296.585 259.199 296.447 259.247C295.953 259.545 295.502 259.893 295.107 260.28C294.917 260.472 294.716 260.656 294.504 260.832C294.449 260.874 294.365 260.931 294.303 260.975L294.303 260.976L294.301 260.977C294.209 261.055 294.102 261.12 293.986 261.166C293.87 261.211 293.747 261.238 293.626 261.244C293.505 261.249 293.387 261.234 293.282 261.198C293.177 261.163 293.085 261.108 293.014 261.037C292.942 260.966 292.892 260.881 292.867 260.787C292.841 260.694 292.841 260.593 292.867 260.493C292.892 260.392 292.942 260.294 293.013 260.204C293.085 260.114 293.176 260.034 293.282 259.97C293.344 259.925 293.43 259.859 293.492 259.818C293.732 259.669 293.979 259.531 294.234 259.404C294.717 259.14 295.175 258.843 295.603 258.517C295.704 258.392 295.763 258.251 295.771 258.112L296.092 257.86C294.68 256.119 294.185 253.899 294.702 251.621L294.339 251.568C294.26 251.446 294.137 251.352 293.985 251.294C293.482 251.23 292.966 251.208 292.442 251.229C292.164 251.249 291.888 251.255 291.614 251.249C291.551 251.245 291.463 251.234 291.392 251.227C291.386 251.227 291.381 251.228 291.375 251.227C291.371 251.226 291.367 251.226 291.363 251.224C291.243 251.223 291.13 251.2 291.03 251.158C290.929 251.115 290.844 251.055 290.78 250.979C290.716 250.904 290.675 250.816 290.658 250.72C290.641 250.624 290.649 250.524 290.683 250.424C290.716 250.324 290.773 250.228 290.851 250.142C290.928 250.055 291.025 249.98 291.133 249.921C291.242 249.863 291.361 249.822 291.482 249.801C291.604 249.78 291.725 249.78 291.838 249.8L291.85 249.801L291.858 249.802C291.93 249.808 292.023 249.815 292.088 249.823C292.349 249.868 292.604 249.926 292.851 249.998C293.33 250.114 293.828 250.189 294.341 250.223C294.519 250.189 294.693 250.123 294.849 250.031L295.22 250.047C296.191 247.803 298.086 245.8 300.542 244.422L300.417 244.153C300.494 244.01 300.525 243.858 300.504 243.715C300.319 243.338 300.085 242.983 299.807 242.655C299.65 242.489 299.507 242.314 299.377 242.131C299.35 242.086 299.317 242.021 299.289 241.969L299.282 241.958C299.177 241.794 299.163 241.59 299.243 241.392C299.323 241.194 299.491 241.018 299.71 240.902C299.832 240.845 299.964 240.811 300.095 240.802C300.226 240.794 300.353 240.811 300.465 240.852C300.654 240.919 300.802 241.04 300.886 241.195C300.916 241.247 300.957 241.317 300.981 241.367C301.067 241.571 301.137 241.781 301.192 241.996C301.316 242.397 301.49 242.78 301.711 243.14C301.81 243.248 301.964 243.313 302.14 243.32C302.194 243.407 302.25 243.493 302.308 243.579C304.427 242.73 306.705 242.388 308.848 242.598C309.358 242.648 309.857 242.728 310.342 242.838L310.537 242.557C310.713 242.5 310.874 242.406 311 242.284C311.27 241.878 311.495 241.458 311.673 241.029C311.755 240.802 311.853 240.576 311.966 240.353C311.994 240.303 312.039 240.236 312.074 240.18C312.078 240.174 312.08 240.167 312.084 240.161C312.132 240.063 312.202 239.971 312.291 239.891C312.381 239.811 312.486 239.744 312.602 239.696C312.717 239.648 312.839 239.619 312.961 239.61C313.083 239.602 313.201 239.615 313.308 239.648C313.415 239.681 313.509 239.734 313.583 239.803C313.657 239.872 313.71 239.956 313.739 240.049C313.767 240.141 313.77 240.242 313.748 240.342C313.726 240.443 313.678 240.542 313.609 240.634C313.573 240.693 313.528 240.773 313.492 240.827C313.338 241.036 313.171 241.24 312.991 241.438C312.667 241.821 312.384 242.223 312.147 242.639C312.092 242.786 312.107 242.935 312.187 243.055C312.16 243.105 312.068 243.271 312.019 243.363C314.31 244.306 315.963 245.969 316.673 248.044L317.077 247.95C317.218 248.022 317.388 248.056 317.567 248.049C318.09 247.919 318.605 247.749 319.104 247.542C319.364 247.425 319.629 247.319 319.899 247.225C319.968 247.204 320.068 247.178 320.142 247.158C320.26 247.115 320.383 247.091 320.505 247.089C320.626 247.086 320.742 247.105 320.846 247.144C320.95 247.183 321.038 247.242 321.107 247.315C321.175 247.389 321.221 247.476 321.242 247.571C321.263 247.667 321.258 247.768 321.228 247.869C321.198 247.97 321.144 248.068 321.068 248.156C320.992 248.245 320.897 248.322 320.789 248.383C320.68 248.445 320.561 248.488 320.439 248.511C320.365 248.532 320.266 248.562 320.197 248.579C319.919 248.636 319.64 248.68 319.361 248.711C318.833 248.788 318.308 248.907 317.791 249.066C317.623 249.141 317.487 249.263 317.412 249.405C317.348 249.427 317.126 249.498 317.008 249.537C317.257 251.746 316.485 254.09 314.839 256.123L315.098 256.298C315.099 256.445 315.15 256.582 315.246 256.694C315.628 256.939 316.044 257.148 316.489 257.318C316.731 257.399 316.964 257.492 317.188 257.597C317.246 257.628 317.325 257.679 317.382 257.713C317.48 257.758 317.562 257.821 317.622 257.899C317.683 257.976 317.721 258.066 317.734 258.163C317.747 258.259 317.735 258.36 317.698 258.459C317.661 258.559 317.6 258.654 317.519 258.739C317.439 258.823 317.34 258.896 317.23 258.952C317.119 259.008 316.999 259.047 316.878 259.064C316.756 259.082 316.636 259.079 316.524 259.055C316.412 259.031 316.312 258.988 316.229 258.927L316.219 258.922C316.214 258.919 316.211 258.915 316.207 258.913C316.151 258.881 316.08 258.844 316.033 258.814C315.841 258.676 315.661 258.526 315.494 258.367C315.159 258.08 314.785 257.826 314.378 257.607C314.223 257.554 314.039 257.557 313.864 257.615C313.767 257.563 313.669 257.513 313.57 257.463C311.562 259.294 308.921 260.556 306.147 261.009Z" fill="#326CE5"/>
<path d="M317.381 257.713C317.325 257.679 317.246 257.628 317.188 257.598C316.965 257.493 316.731 257.399 316.49 257.318C316.044 257.148 315.628 256.939 315.245 256.694C315.15 256.583 315.099 256.445 315.098 256.299L314.839 256.123C316.485 254.09 317.257 251.747 317.009 249.537C317.126 249.498 317.348 249.427 317.411 249.406C317.487 249.263 317.623 249.141 317.791 249.067C318.307 248.908 318.833 248.789 319.361 248.711C319.64 248.68 319.919 248.637 320.197 248.58C320.266 248.563 320.365 248.532 320.439 248.511C320.561 248.488 320.68 248.445 320.789 248.384C320.897 248.322 320.992 248.245 321.068 248.157C321.143 248.068 321.198 247.97 321.228 247.869C321.258 247.769 321.263 247.667 321.242 247.572C321.221 247.477 321.175 247.389 321.107 247.316C321.039 247.242 320.95 247.184 320.846 247.145C320.742 247.106 320.626 247.087 320.505 247.089C320.384 247.091 320.26 247.115 320.142 247.158C320.068 247.178 319.968 247.204 319.899 247.225C319.629 247.319 319.364 247.425 319.104 247.542C318.605 247.749 318.09 247.919 317.567 248.049C317.388 248.056 317.218 248.022 317.077 247.95L316.673 248.044C315.963 245.969 314.309 244.306 312.019 243.363C312.068 243.271 312.16 243.105 312.187 243.055C312.107 242.935 312.093 242.786 312.147 242.64C312.385 242.224 312.667 241.821 312.991 241.438C313.171 241.241 313.338 241.037 313.492 240.827C313.528 240.773 313.573 240.693 313.609 240.634C313.678 240.542 313.726 240.443 313.748 240.342C313.77 240.242 313.767 240.142 313.739 240.049C313.71 239.956 313.657 239.872 313.583 239.803C313.509 239.734 313.415 239.681 313.308 239.648C313.201 239.615 313.083 239.602 312.961 239.61C312.839 239.619 312.717 239.648 312.601 239.696C312.486 239.744 312.38 239.811 312.291 239.891C312.202 239.971 312.132 240.063 312.084 240.161C312.08 240.167 312.078 240.174 312.074 240.18C312.039 240.236 311.994 240.303 311.966 240.353C311.853 240.576 311.755 240.802 311.672 241.03C311.495 241.458 311.27 241.878 311 242.284C310.874 242.406 310.713 242.5 310.537 242.557L310.342 242.838C309.857 242.728 309.358 242.648 308.848 242.598C306.705 242.389 304.428 242.73 302.308 243.579C302.251 243.493 302.194 243.407 302.14 243.32C301.964 243.313 301.81 243.248 301.711 243.14C301.49 242.78 301.316 242.397 301.192 241.996C301.137 241.781 301.067 241.571 300.982 241.367C300.957 241.317 300.916 241.247 300.887 241.194C300.802 241.039 300.654 240.919 300.465 240.851C300.353 240.81 300.226 240.793 300.095 240.802C299.964 240.811 299.832 240.845 299.71 240.901C299.491 241.018 299.323 241.194 299.243 241.392C299.163 241.59 299.177 241.793 299.282 241.958L299.289 241.969C299.317 242.021 299.35 242.086 299.377 242.13C299.507 242.314 299.65 242.489 299.807 242.655C300.085 242.983 300.318 243.338 300.504 243.715C300.524 243.858 300.494 244.01 300.417 244.153L300.541 244.423C298.086 245.8 296.19 247.803 295.219 250.047L294.849 250.031C294.693 250.123 294.52 250.188 294.341 250.222C293.828 250.189 293.329 250.114 292.851 249.998C292.603 249.927 292.348 249.868 292.087 249.823C292.023 249.814 291.93 249.807 291.858 249.802L291.85 249.801L291.838 249.801C291.725 249.78 291.603 249.78 291.482 249.801C291.361 249.822 291.242 249.863 291.133 249.922C291.025 249.981 290.928 250.056 290.851 250.142C290.773 250.229 290.716 250.325 290.683 250.425C290.65 250.524 290.641 250.625 290.658 250.721C290.675 250.816 290.717 250.905 290.781 250.98C290.845 251.055 290.93 251.116 291.03 251.158C291.13 251.2 291.244 251.223 291.363 251.225L291.375 251.227C291.381 251.228 291.387 251.227 291.392 251.227C291.463 251.234 291.55 251.245 291.614 251.249C291.887 251.255 292.164 251.249 292.441 251.229C292.965 251.208 293.482 251.23 293.985 251.294C294.137 251.352 294.259 251.446 294.338 251.568L294.702 251.62C294.185 253.899 294.68 256.119 296.092 257.86L295.771 258.112C295.763 258.251 295.704 258.392 295.603 258.517C295.176 258.843 294.717 259.14 294.234 259.403C293.98 259.531 293.732 259.669 293.492 259.817C293.43 259.859 293.344 259.925 293.282 259.97C293.176 260.034 293.085 260.114 293.014 260.204C292.943 260.294 292.893 260.392 292.868 260.493C292.843 260.593 292.843 260.693 292.868 260.787C292.893 260.88 292.943 260.965 293.015 261.036C293.086 261.106 293.178 261.161 293.283 261.197C293.388 261.233 293.505 261.248 293.626 261.243C293.747 261.237 293.87 261.211 293.986 261.165C294.102 261.119 294.209 261.055 294.301 260.977L294.303 260.976L294.304 260.975C294.365 260.931 294.449 260.874 294.504 260.832C294.716 260.656 294.917 260.472 295.107 260.28C295.502 259.893 295.953 259.545 296.447 259.247C296.585 259.199 296.73 259.185 296.863 259.206L297.207 258.982C298.994 260.458 301.495 261.241 304.233 261.183C304.234 261.275 304.234 261.449 304.235 261.494C304.377 261.564 304.47 261.683 304.495 261.825C304.486 262.255 304.427 262.691 304.316 263.126C304.247 263.355 304.193 263.585 304.155 263.815C304.149 263.873 304.146 263.955 304.142 264.018C304.123 264.118 304.129 264.218 304.161 264.309C304.192 264.401 304.248 264.483 304.324 264.55C304.4 264.617 304.496 264.667 304.604 264.698C304.712 264.729 304.831 264.739 304.953 264.729C305.074 264.718 305.196 264.687 305.31 264.637C305.424 264.587 305.528 264.519 305.615 264.437C305.703 264.356 305.771 264.264 305.816 264.165C305.861 264.067 305.882 263.966 305.877 263.867C305.881 263.805 305.889 263.714 305.89 263.654C305.881 263.429 305.856 263.206 305.814 262.987C305.758 262.567 305.754 262.137 305.801 261.703C305.844 261.555 305.953 261.418 306.106 261.321C306.112 261.218 306.126 261.113 306.147 261.009C308.921 260.556 311.562 259.295 313.57 257.464C313.66 257.508 313.815 257.588 313.865 257.616C314.039 257.557 314.223 257.554 314.378 257.607C314.785 257.826 315.158 258.08 315.493 258.367C315.66 258.526 315.841 258.676 316.033 258.814C316.08 258.844 316.151 258.881 316.206 258.913C316.211 258.916 316.214 258.919 316.219 258.922L316.229 258.927C316.312 258.988 316.412 259.031 316.524 259.055C316.636 259.079 316.756 259.082 316.877 259.064C316.999 259.046 317.118 259.008 317.229 258.952C317.339 258.896 317.438 258.823 317.518 258.738C317.599 258.653 317.659 258.558 317.696 258.459C317.733 258.36 317.746 258.259 317.733 258.163C317.72 258.066 317.682 257.976 317.622 257.899C317.561 257.821 317.479 257.758 317.381 257.713ZM314.39 248.568L309.867 249.607L309.859 249.599C309.721 249.632 309.581 249.635 309.454 249.607C309.327 249.579 309.218 249.522 309.137 249.441C309.056 249.361 309.007 249.259 308.996 249.149C308.984 249.038 309.01 248.921 309.071 248.812L309.069 248.809L311.029 245.193C312.634 245.918 313.815 247.104 314.39 248.568L314.39 248.568ZM305.856 250.548L307.082 250.929L307.322 252.012L306.398 252.983L305.006 253.112L304.193 252.297L304.57 251.156L305.856 250.548ZM308.228 244.472C308.53 244.501 308.827 244.544 309.118 244.6L306.702 248.081L306.681 248.083C306.609 248.189 306.507 248.282 306.384 248.351C306.262 248.421 306.124 248.464 305.986 248.477C305.848 248.49 305.714 248.472 305.599 248.425C305.483 248.378 305.391 248.303 305.332 248.209L305.324 248.21L303.318 245.127C304.924 244.54 306.625 244.313 308.228 244.472ZM301.31 246.085L302.838 249.393L302.826 249.406C302.874 249.506 302.886 249.619 302.86 249.733C302.834 249.847 302.772 249.959 302.68 250.056C302.588 250.153 302.469 250.231 302.337 250.283C302.205 250.335 302.064 250.358 301.929 250.35L301.919 250.361L297.475 250.152C298.233 248.553 299.583 247.122 301.31 246.085ZM301.423 253.647L297.881 256.446C296.93 255.159 296.58 253.576 296.884 251.941L301.185 252.57L301.187 252.579C301.235 252.586 301.281 252.596 301.325 252.61C301.435 252.646 301.527 252.705 301.595 252.782C301.662 252.86 301.702 252.953 301.711 253.054C301.721 253.155 301.699 253.26 301.648 253.361C301.597 253.461 301.519 253.554 301.42 253.63L301.423 253.647ZM303.329 259.253C301.724 259.1 300.276 258.57 299.148 257.721L303 255.214L303.003 255.215C303.119 255.138 303.254 255.085 303.392 255.062C303.53 255.039 303.668 255.047 303.789 255.084C303.91 255.122 304.012 255.188 304.082 255.275C304.152 255.363 304.189 255.469 304.188 255.582L304.203 255.586L304.223 259.301C303.925 259.298 303.627 259.282 303.329 259.253L303.329 259.253ZM306.399 259.106L306.896 255.323L306.905 255.318C306.924 255.155 307.018 254.995 307.167 254.869C307.317 254.744 307.51 254.664 307.708 254.645C307.81 254.635 307.91 254.642 308.002 254.666C308.055 254.68 308.104 254.699 308.15 254.724L308.161 254.719L311.764 256.547C310.275 257.828 308.388 258.729 306.399 259.106ZM313.201 255.022L309.952 252.838L309.958 252.822C309.858 252.757 309.787 252.668 309.751 252.564C309.715 252.459 309.716 252.345 309.754 252.231C309.792 252.117 309.865 252.009 309.966 251.918C310.067 251.827 310.191 251.757 310.327 251.714L310.329 251.707L314.766 250.265C314.866 251.865 314.316 253.535 313.201 255.022L313.201 255.022Z" fill="white"/>
<path d="M143.404 194.671C143.404 200.352 135.031 204.957 124.702 204.957C114.373 204.957 106 200.352 106 194.671C106 188.99 114.373 184.385 124.702 184.385C135.031 184.385 143.404 188.99 143.404 194.671Z" fill="url(#paint14_radial_12523_17700)" fill-opacity="0.8"/>
<g filter="url(#filter6_d_12523_17700)">
<path fill-rule="evenodd" clip-rule="evenodd" d="M116.586 202.384C107.309 199.953 103.389 193.868 107.83 188.791C109.963 186.353 113.778 184.478 118.436 183.58C123.094 182.681 128.213 182.832 132.668 183.999C141.945 186.429 145.865 192.515 141.424 197.592C136.983 202.669 125.863 204.814 116.586 202.384V202.384Z" fill="#F49322"/>
<path d="M114.887 189.929L114.303 189.386L117.75 188.42L118.334 188.963L114.887 189.929ZM120.38 188.39L119.795 187.847L122.892 186.972L123.476 187.515L120.38 188.39Z" fill="white"/>
<path d="M123.536 192.765L120.439 191.92L120.965 191.377L124.061 192.222L123.536 192.765ZM118.335 191.347L115.238 190.502L115.764 189.959L118.861 190.804L118.335 191.347Z" fill="white"/>
<path d="M125.813 192.705L125.287 192.162L128.442 191.377L128.968 191.92L125.813 192.705ZM131.072 191.377L130.546 190.834L133.701 190.05L134.227 190.593L131.072 191.377Z" fill="white"/>
<path d="M123.19 199.856L119.684 198.89L120.21 198.347L123.716 199.313L123.19 199.856ZM117.931 198.468L114.834 197.623L115.36 197.08L118.457 197.925L117.931 198.468Z" fill="white"/>
<path d="M114.774 190.713H113.605V193.037H114.774V190.713Z" fill="white"/>
<path d="M125.057 196.718H123.889V199.101H125.057V196.718Z" fill="white"/>
<path d="M114.189 190.955C113.78 190.955 113.371 190.864 113.079 190.713C112.787 190.563 112.611 190.351 112.611 190.14C112.611 189.929 112.787 189.718 113.079 189.567C113.663 189.265 114.715 189.265 115.299 189.567C115.591 189.718 115.767 189.929 115.767 190.14C115.767 190.351 115.591 190.563 115.299 190.713C115.007 190.864 114.598 190.955 114.189 190.955ZM114.189 189.929C114.072 189.929 113.955 189.959 113.897 189.989C113.838 190.019 113.78 190.08 113.78 190.14C113.78 190.201 113.838 190.261 113.897 190.291C114.072 190.382 114.306 190.382 114.481 190.291C114.54 190.261 114.598 190.201 114.598 190.14C114.598 190.08 114.54 190.019 114.481 189.989C114.423 189.959 114.306 189.929 114.189 189.929Z" fill="white"/>
<path d="M114.189 197.714C113.78 197.714 113.371 197.623 113.079 197.472C112.787 197.321 112.611 197.11 112.611 196.899C112.611 196.688 112.787 196.476 113.079 196.326C113.663 196.024 114.715 196.024 115.299 196.326C115.591 196.476 115.767 196.688 115.767 196.899C115.767 197.11 115.591 197.321 115.299 197.472C115.007 197.623 114.598 197.714 114.189 197.714ZM114.189 196.688C114.072 196.688 113.955 196.718 113.897 196.748C113.838 196.778 113.78 196.838 113.78 196.899C113.78 196.959 113.838 197.02 113.897 197.05C114.072 197.14 114.306 197.14 114.481 197.05C114.54 197.02 114.598 196.959 114.598 196.899C114.598 196.838 114.54 196.778 114.481 196.748C114.423 196.718 114.306 196.688 114.189 196.688Z" fill="white"/>
<path d="M124.47 200.429C124.061 200.429 123.652 200.339 123.36 200.188C123.068 200.037 122.893 199.826 122.893 199.614C122.893 199.403 123.068 199.192 123.36 199.041C124.003 198.709 124.996 198.709 125.58 199.041C126.223 199.373 126.223 199.886 125.58 200.188C125.23 200.339 124.879 200.429 124.47 200.429ZM124.47 199.373C124.353 199.373 124.236 199.403 124.178 199.433C124.003 199.524 124.003 199.645 124.178 199.735C124.353 199.826 124.587 199.826 124.762 199.735C124.938 199.645 124.938 199.524 124.762 199.433C124.646 199.403 124.529 199.373 124.47 199.373Z" fill="white"/>
<path d="M124.47 193.64C124.061 193.64 123.652 193.55 123.36 193.399C123.068 193.248 122.893 193.037 122.893 192.826C122.893 192.614 123.068 192.403 123.36 192.252C124.003 191.92 124.996 191.92 125.58 192.252C126.223 192.584 126.223 193.097 125.58 193.399C125.23 193.58 124.879 193.64 124.47 193.64ZM124.47 192.614C124.353 192.614 124.236 192.645 124.178 192.675C124.003 192.765 124.003 192.886 124.178 192.977C124.353 193.067 124.587 193.067 124.762 192.977C124.938 192.886 124.938 192.765 124.762 192.675C124.646 192.645 124.529 192.614 124.47 192.614Z" fill="white"/>
<path d="M134.586 197.714C134.177 197.714 133.768 197.623 133.476 197.472C132.833 197.14 132.833 196.627 133.476 196.326C134.061 196.024 135.112 196.024 135.697 196.326C135.989 196.476 136.164 196.688 136.164 196.899C136.164 197.11 135.989 197.321 135.697 197.472C135.404 197.623 134.995 197.714 134.586 197.714ZM134.586 196.688C134.47 196.688 134.353 196.718 134.294 196.748C134.119 196.838 134.119 196.959 134.294 197.05C134.47 197.14 134.703 197.14 134.879 197.05C135.054 196.959 135.054 196.838 134.879 196.748C134.82 196.718 134.703 196.688 134.586 196.688Z" fill="white"/>
<path d="M134.586 190.955C134.177 190.955 133.768 190.864 133.476 190.713C132.833 190.381 132.833 189.868 133.476 189.567C134.061 189.265 135.112 189.265 135.697 189.567C136.339 189.899 136.339 190.412 135.697 190.713C135.404 190.864 134.995 190.955 134.586 190.955ZM134.586 189.929C134.47 189.929 134.353 189.959 134.294 189.989C134.119 190.08 134.119 190.2 134.294 190.291C134.47 190.381 134.703 190.381 134.879 190.291C135.054 190.2 135.054 190.08 134.879 189.989C134.82 189.959 134.703 189.929 134.586 189.929Z" fill="white"/>
<path d="M124.47 187.877C124.061 187.877 123.652 187.787 123.36 187.636C123.068 187.485 122.893 187.274 122.893 187.062C122.893 186.851 123.068 186.64 123.36 186.489C124.003 186.157 124.996 186.157 125.58 186.489C126.223 186.821 126.223 187.334 125.58 187.636C125.23 187.787 124.879 187.877 124.47 187.877ZM124.47 186.851C124.353 186.851 124.236 186.881 124.178 186.912C124.003 187.002 124.003 187.123 124.178 187.213C124.353 187.304 124.587 187.304 124.762 187.213C124.938 187.123 124.938 187.002 124.762 186.912C124.646 186.851 124.529 186.851 124.47 186.851Z" fill="white"/>
<path d="M114.774 193.64H113.605V196.235H114.774V193.64Z" fill="white"/>
<path d="M135.112 190.713H133.943V193.037H135.112V190.713Z" fill="white"/>
<path d="M135.112 193.64H133.943V196.235H135.112V193.64Z" fill="white"/>
<path d="M130.611 188.933L131.196 188.39L134.526 189.325L133.942 189.868L130.611 188.933ZM125.002 187.364L125.586 186.821L129.151 187.817L128.566 188.36L125.002 187.364Z" fill="white"/>
<path d="M125.059 193.399H123.891V195.782H125.059V193.399Z" fill="white"/>
<path d="M125.232 199.343L128.621 198.438L129.147 198.981L125.758 199.886L125.232 199.343ZM130.316 197.985L133.647 197.08L134.172 197.623L130.842 198.528L130.316 197.985Z" fill="white"/>
</g>
<path d="M640.404 139.838C640.404 146.036 632.031 151.059 621.702 151.059C611.373 151.059 603 146.036 603 139.838C603 133.641 611.373 128.617 621.702 128.617C632.031 128.617 640.404 133.641 640.404 139.838Z" fill="url(#paint15_radial_12523_17700)" fill-opacity="0.8"/>
<path d="M640.5 137.5C640 144.5 632.502 147.852 622 148.352C611.502 147.852 603 144.5 603 137.102C603 130.889 611.507 125.852 622 125.852C632.493 125.852 638 130.5 640.5 137.5Z" fill="white"/>
<g filter="url(#filter7_d_12523_17700)">
<path d="M609.702 134.444C610.691 133.445 612.076 132.581 613.756 131.918C615.435 131.254 617.365 130.808 619.402 130.612L618.577 128C615.822 128.266 613.21 128.868 610.933 129.762C608.657 130.656 606.773 131.82 605.42 133.167L609.702 134.444Z" fill="#00D3A9"/>
<path d="M609.909 142.024C608.62 140.841 607.942 139.486 607.949 138.106C607.946 137.204 608.243 136.309 608.826 135.466L604.285 134.558C603.538 135.696 603.154 136.896 603.15 138.106C603.151 139.964 604.06 141.788 605.782 143.387L609.909 142.024Z" fill="#00B39F"/>
<path d="M621.929 145.714H621.774C617.491 145.714 613.673 144.636 611.094 142.932L607.379 144.636C609.129 145.805 611.327 146.747 613.815 147.395C616.303 148.042 619.021 148.38 621.774 148.383H621.98L621.929 145.714Z" fill="#00D3A9"/>
<path d="M633.797 141.854C632.775 142.841 631.364 143.69 629.668 144.339C627.972 144.987 626.033 145.419 623.994 145.601L624.768 148.241C627.522 147.994 630.138 147.408 632.425 146.529C634.711 145.649 636.609 144.498 637.976 143.16L633.797 141.854Z" fill="#00B39F"/>
<path d="M633.693 134.274C634.92 135.438 635.561 136.761 635.551 138.106C635.562 139.039 635.247 139.964 634.622 140.831L639.162 141.797C639.969 140.626 640.389 139.386 640.401 138.135C640.403 136.32 639.531 134.537 637.873 132.968L633.693 134.274Z" fill="#00D3A9"/>
<path d="M630.122 132.863L629.08 132.289L631.536 130.938L629.08 129.587L630.122 129.013L633.62 130.938L630.122 132.863Z" fill="#20BDAB"/>
<path d="M623.128 132.863L622.086 132.29L624.542 130.938L622.086 129.587L623.128 129.014L626.626 130.938L623.128 132.863Z" fill="#20BDAB"/>
</g>
<path d="M250.408 140.073C250.408 146.012 242.035 150.827 231.706 150.827C221.377 150.827 213.004 146.012 213.004 140.073C213.004 134.134 221.377 129.32 231.706 129.32C242.035 129.32 250.408 134.134 250.408 140.073Z" fill="url(#paint16_radial_12523_17700)" fill-opacity="0.8"/>
<ellipse cx="232.5" cy="137.785" rx="18.5" ry="9.785" fill="white"/>
<g filter="url(#filter8_d_12523_17700)">
<path fill-rule="evenodd" clip-rule="evenodd" d="M230.927 140.346C228.747 140.346 227.051 139.389 227.051 138.158C227.051 136.926 228.747 135.969 230.927 135.969C233.108 135.969 234.804 136.926 234.804 138.158C234.804 139.389 233.108 140.346 230.927 140.346Z" fill="#E03875"/>
</g>
<g filter="url(#filter9_d_12523_17700)">
<path fill-rule="evenodd" clip-rule="evenodd" d="M238.501 139.184C237.532 139.184 236.684 138.739 236.684 138.158C236.684 137.61 237.471 137.131 238.501 137.131C239.47 137.131 240.318 137.576 240.318 138.158C240.318 138.739 239.47 139.184 238.501 139.184ZM245.043 140.141C244.8 140.688 243.831 140.995 242.862 140.858C241.893 140.722 241.347 140.175 241.59 139.628C241.832 139.081 242.801 138.772 243.77 138.909C244.677 139.046 245.284 139.524 245.102 140.072C245.102 140.072 245.103 140.107 245.043 140.141ZM243.769 137.541C242.799 137.677 241.83 137.335 241.588 136.788C241.345 136.241 241.951 135.694 242.92 135.557C243.889 135.42 244.858 135.762 245.101 136.31C245.161 136.446 245.161 136.583 245.101 136.72C245.04 137.096 244.556 137.438 243.769 137.541ZM250.188 140.003C250.005 140.55 249.097 140.926 248.128 140.824C247.159 140.721 246.492 140.208 246.675 139.661C246.856 139.114 247.765 138.738 248.734 138.84C249.642 138.943 250.309 139.422 250.249 139.935C250.188 139.969 250.188 139.969 250.188 140.003ZM248.737 137.473C247.768 137.576 246.859 137.2 246.678 136.653C246.496 136.106 247.162 135.592 248.132 135.49C249.1 135.387 250.009 135.763 250.191 136.311C250.191 136.413 250.252 136.482 250.191 136.584C250.13 137.029 249.525 137.405 248.737 137.473ZM247.465 143.527C246.981 144.005 245.89 144.177 245.042 143.903C244.194 143.629 243.891 143.014 244.376 142.535C244.861 142.056 245.951 141.885 246.799 142.159C247.405 142.364 247.768 142.74 247.707 143.116C247.647 143.253 247.586 143.39 247.465 143.527ZM246.799 134.225C245.951 134.498 244.861 134.327 244.376 133.848C243.892 133.37 244.194 132.754 245.042 132.481C245.89 132.207 246.98 132.378 247.465 132.857C247.647 133.062 247.707 133.233 247.707 133.438C247.647 133.746 247.344 134.054 246.799 134.225Z" fill="#E03875"/>
</g>
<g filter="url(#filter10_d_12523_17700)">
<path d="M230.989 148.383C226.144 148.383 221.662 147.323 218.209 145.408C214.878 143.458 213 140.892 213 138.191C213 135.455 214.878 132.924 218.269 130.975C221.662 129.06 226.204 128 230.989 128C234.987 128 238.803 128.718 241.952 130.086L239.712 131.728C237.168 130.634 234.139 130.053 230.99 130.053C227.175 130.053 223.54 130.908 220.815 132.446C218.09 133.985 216.636 136.003 216.636 138.192C216.636 140.346 218.15 142.398 220.876 143.937C223.602 145.476 227.176 146.297 231.052 146.297C234.262 146.297 237.291 145.715 239.774 144.621L241.954 146.262C238.805 147.63 234.989 148.382 230.991 148.382L230.989 148.383Z" fill="#E03875"/>
</g>
<g filter="url(#filter11_d_12523_17700)">
<path d="M762.408 117.156C762.408 122.837 754.035 127.442 743.706 127.442C733.377 127.442 725.004 122.837 725.004 117.156C725.004 111.475 733.377 106.87 743.706 106.87C754.035 106.87 762.408 111.475 762.408 117.156Z" fill="url(#paint17_radial_12523_17700)" fill-opacity="0.8" shape-rendering="crispEdges"/>
</g>
<path d="M761.5 113.648C761 120.648 753.502 124 743 124.5C732.502 124 724 120.648 724 113.25C724 107.037 732.507 102 743 102C753.493 102 759 106.648 761.5 113.648Z" fill="white"/>
<path d="M743.664 105C753.881 105.001 762.267 109.596 762.254 115.185C762.241 120.859 753.889 125.389 743.45 125.385C733.244 125.381 724.993 120.782 725 115.102C725.007 109.547 733.411 104.999 743.664 105ZM738.016 108.577C738.25 109.213 738.023 109.806 737.676 110.39C737.437 110.794 737.105 111.183 736.907 111.592C736.581 112.267 736.211 112.945 736.075 113.635C735.88 114.628 736.587 115.502 737.797 116.371L732.236 115.725C732.245 115.822 732.235 115.859 732.254 115.89C732.781 116.744 733.709 117.463 734.748 118.142C734.858 118.213 735.109 118.25 735.294 118.25C740.839 118.256 746.384 118.256 751.929 118.252C752.101 118.252 752.33 118.234 752.436 118.172C753.624 117.483 754.533 116.699 755.101 115.71L749.214 116.346C749.602 115.926 750.046 115.557 750.301 115.151C751.172 113.764 750.811 112.422 749.56 111.157C748.556 110.142 747.63 109.131 748.131 107.907C747.07 108.485 746.663 109.22 746.405 109.978C746.15 110.724 746 111.481 745.803 112.239C745.775 112.216 745.739 112.199 745.733 112.179C745.711 112.1 745.689 112.02 745.682 111.939C745.562 110.699 745.123 109.504 744.196 108.363C743.65 107.691 743.048 107.004 743.611 106.203C743.23 106.314 742.886 106.424 742.64 106.581C741.904 107.05 741.599 107.613 741.521 108.229C741.454 108.756 741.362 109.286 741.185 109.804C740.999 110.348 740.704 110.881 740.041 111.382C739.773 110.313 739.743 109.256 738.016 108.577ZM752.313 119.187H734.922V120.853H752.313V119.187ZM738.37 121.714C738.356 123.102 740.918 124.136 744.085 124.06C746.709 123.998 749.032 122.859 748.832 121.714H738.37Z" fill="#E75225"/>
<path d="M748.404 198.091C748.404 203.256 740.031 207.442 729.702 207.442C719.373 207.442 711 203.256 711 198.091C711 192.927 719.373 188.74 729.702 188.74C740.031 188.74 748.404 192.927 748.404 198.091Z" fill="url(#paint18_radial_12523_17700)" fill-opacity="0.8"/>
<g filter="url(#filter12_d_12523_17700)">
<path fill-rule="evenodd" clip-rule="evenodd" d="M721.586 204.384C712.309 201.953 708.389 195.868 712.83 190.791C714.963 188.353 718.778 186.478 723.436 185.58C728.094 184.681 733.213 184.832 737.668 185.999C746.945 188.429 750.865 194.515 746.424 199.592C741.983 204.669 730.863 206.814 721.586 204.384V204.384Z" fill="#9D0FB0"/>
<path d="M726.212 191.405L726.247 191.416L729.255 192.355C729.356 192.387 729.471 192.403 729.587 192.403C729.703 192.403 729.817 192.387 729.918 192.355L732.902 191.426C733.133 191.354 733.407 191.334 733.663 191.372C733.92 191.41 734.139 191.503 734.274 191.629C734.409 191.756 734.448 191.907 734.384 192.05C734.319 192.193 734.156 192.316 733.93 192.392L733.895 192.403L732.173 192.941C732.121 192.957 732.077 192.981 732.047 193.009C732.017 193.038 732.001 193.07 732.001 193.104C732.001 193.137 732.017 193.169 732.047 193.198C732.077 193.227 732.121 193.25 732.173 193.266L736.823 194.718C736.924 194.75 737.038 194.767 737.155 194.767C737.271 194.767 737.385 194.75 737.486 194.718L740.363 193.82C740.594 193.747 740.868 193.727 741.125 193.765C741.383 193.802 741.603 193.895 741.738 194.022C741.874 194.149 741.913 194.3 741.848 194.444C741.783 194.587 741.619 194.71 741.391 194.786L741.357 194.798L739.737 195.302C739.685 195.318 739.642 195.342 739.611 195.371C739.581 195.399 739.565 195.432 739.565 195.465C739.565 195.498 739.581 195.531 739.611 195.559C739.642 195.588 739.685 195.612 739.737 195.628L741.364 196.136C741.596 196.208 741.768 196.327 741.842 196.469C741.916 196.61 741.887 196.762 741.761 196.891C741.636 197.021 741.423 197.118 741.169 197.161C740.915 197.205 740.641 197.191 740.405 197.124L740.37 197.113L737.485 196.212C737.384 196.181 737.27 196.164 737.154 196.164C737.038 196.164 736.923 196.181 736.822 196.212L732.12 197.68C732.068 197.697 732.025 197.72 731.995 197.749C731.964 197.777 731.948 197.81 731.948 197.843C731.948 197.876 731.964 197.909 731.995 197.937C732.025 197.966 732.068 197.99 732.12 198.006L734.063 198.612C734.292 198.685 734.462 198.804 734.534 198.945C734.607 199.086 734.578 199.237 734.453 199.365C734.328 199.494 734.116 199.591 733.864 199.635C733.612 199.679 733.339 199.666 733.103 199.6L733.068 199.589L729.869 198.59C729.768 198.559 729.654 198.542 729.538 198.542C729.422 198.542 729.308 198.559 729.206 198.59L725.978 199.599C725.747 199.672 725.474 199.691 725.217 199.653C724.961 199.615 724.741 199.523 724.607 199.396C724.472 199.27 724.432 199.119 724.496 198.976C724.56 198.833 724.723 198.71 724.95 198.633L724.984 198.622L726.954 198.006C726.992 197.994 727.026 197.978 727.054 197.958C727.081 197.939 727.101 197.917 727.113 197.893C727.125 197.87 727.128 197.845 727.123 197.82C727.118 197.796 727.104 197.773 727.082 197.751C727.052 197.721 727.008 197.697 726.954 197.68L722.294 196.226C722.193 196.194 722.079 196.178 721.962 196.178C721.846 196.178 721.732 196.194 721.631 196.226L718.887 197.081C718.656 197.154 718.382 197.174 718.125 197.136C717.868 197.098 717.648 197.005 717.513 196.878C717.378 196.751 717.339 196.6 717.404 196.457C717.469 196.314 717.633 196.191 717.86 196.114L717.894 196.103L719.378 195.641C719.43 195.625 719.474 195.601 719.504 195.572C719.534 195.544 719.55 195.511 719.55 195.478C719.55 195.445 719.534 195.412 719.504 195.384C719.474 195.355 719.43 195.331 719.378 195.315L717.897 194.852C717.667 194.78 717.498 194.661 717.425 194.52C717.352 194.379 717.382 194.228 717.507 194.1C717.632 193.971 717.843 193.874 718.095 193.83C718.347 193.786 718.621 193.799 718.856 193.865L718.892 193.876L721.633 194.731C721.734 194.763 721.848 194.78 721.964 194.78C722.08 194.78 722.194 194.763 722.295 194.731L727 193.265C727.052 193.249 727.096 193.225 727.126 193.196C727.156 193.168 727.172 193.135 727.172 193.102C727.172 193.069 727.156 193.036 727.126 193.008C727.096 192.979 727.052 192.955 727 192.939L725.253 192.393C725.023 192.321 724.854 192.201 724.781 192.061C724.708 191.92 724.737 191.769 724.863 191.64C724.988 191.511 725.199 191.415 725.451 191.371C725.703 191.327 725.976 191.34 726.212 191.406V191.405ZM729.254 193.849L724.549 195.316C724.496 195.332 724.453 195.356 724.423 195.384C724.393 195.413 724.377 195.446 724.377 195.479C724.377 195.512 724.393 195.545 724.423 195.573C724.453 195.602 724.496 195.625 724.549 195.642L729.206 197.096C729.307 197.127 729.421 197.144 729.537 197.144C729.653 197.144 729.768 197.127 729.869 197.096L734.57 195.628C734.622 195.612 734.666 195.588 734.696 195.559C734.726 195.531 734.742 195.498 734.742 195.465C734.742 195.432 734.726 195.399 734.696 195.371C734.666 195.342 734.622 195.318 734.57 195.302L729.917 193.849C729.815 193.818 729.701 193.801 729.585 193.801C729.469 193.801 729.355 193.818 729.254 193.849H729.254Z" fill="white"/>
</g>
<path d="M129.406 119.156C129.406 125.353 121.033 130.377 110.704 130.377C100.375 130.377 92.002 125.353 92.002 119.156C92.002 112.959 100.375 107.935 110.704 107.935C121.033 107.935 129.406 112.959 129.406 119.156Z" fill="url(#paint19_radial_12523_17700)" fill-opacity="0.8"/>
<g filter="url(#filter13_d_12523_17700)">
<path fill-rule="evenodd" clip-rule="evenodd" d="M102.586 126.384C93.3091 123.953 89.3888 117.868 93.8299 112.791C95.9626 110.353 99.7776 108.478 104.436 107.58C109.094 106.681 114.213 106.832 118.668 107.999C127.945 110.429 131.865 116.515 127.424 121.592C122.983 126.669 111.863 128.814 102.586 126.384V126.384Z" fill="#009639"/>
<path d="M115.492 115.946L112.309 116.819C112.39 116.918 112.424 117.031 112.418 117.144C112.411 117.25 112.363 117.352 112.281 117.445L115.287 118.362C115.56 118.19 115.962 118.078 116.405 118.06L116.541 116.275C116.507 116.271 116.48 116.268 116.446 116.265C116.044 116.217 115.717 116.1 115.492 115.946Z" fill="white"/>
<path d="M120.899 113.815L111.37 111.055C110.981 110.938 110.497 110.938 110.102 111.055L100.58 113.815C100.184 113.928 99.9458 114.137 99.9458 114.366V119.887C99.939 120 100 120.11 100.109 120.205C100.218 120.301 100.382 120.383 100.573 120.438L110.102 123.199C110.49 123.315 110.974 123.315 111.37 123.199L120.899 120.438C121.294 120.325 121.532 120.116 121.532 119.887V114.366C121.532 114.14 121.294 113.928 120.899 113.815ZM116.932 118.023C117.811 118.095 118.411 118.512 118.268 118.953C118.124 119.395 117.293 119.696 116.414 119.624C115.534 119.552 114.934 119.135 115.078 118.693C115.098 118.632 115.132 118.577 115.173 118.522L112.106 117.66C111.813 117.862 111.336 117.992 110.804 117.992C110.272 117.992 109.795 117.862 109.502 117.664L106.435 118.522C106.51 118.615 106.551 118.717 106.551 118.823C106.551 118.94 106.503 119.049 106.414 119.148L109.536 120.082C109.829 119.894 110.293 119.774 110.804 119.774C111.697 119.774 112.419 120.137 112.419 120.585C112.419 121.033 111.697 121.396 110.804 121.396C109.911 121.396 109.188 121.033 109.188 120.585C109.188 120.469 109.236 120.359 109.325 120.26L106.203 119.326C105.91 119.514 105.453 119.634 104.935 119.634C104.042 119.634 103.32 119.271 103.32 118.823C103.32 118.375 104.042 118.013 104.935 118.013C105.467 118.013 105.944 118.143 106.237 118.341L109.304 117.479C109.229 117.387 109.188 117.284 109.188 117.178C109.188 116.764 109.802 116.425 110.599 116.374V114.469C110.163 114.441 109.781 114.325 109.522 114.157L106.278 115.108C106.36 115.204 106.407 115.313 106.407 115.423C106.407 115.871 105.685 116.234 104.792 116.234C103.899 116.234 103.177 115.871 103.177 115.423C103.177 114.975 103.899 114.612 104.792 114.612C105.317 114.612 105.78 114.735 106.074 114.93L109.318 113.979C109.236 113.884 109.188 113.774 109.188 113.665C109.188 113.216 109.911 112.854 110.804 112.854C111.697 112.854 112.419 113.216 112.419 113.665C112.419 114.079 111.806 114.417 111.008 114.469V116.374C111.438 116.401 111.819 116.514 112.072 116.675L115.193 115.744C115.071 115.601 115.03 115.437 115.091 115.269C115.262 114.828 116.107 114.54 116.986 114.626C117.865 114.711 118.438 115.136 118.268 115.577C118.131 115.929 117.559 116.186 116.884 116.227V118.016C116.897 118.019 116.918 118.023 116.932 118.023Z" fill="white"/>
</g>
<g filter="url(#filter14_d_12523_17700)">
<ellipse cx="427" cy="142.5" rx="77" ry="24.5" fill="url(#paint20_radial_12523_17700)" fill-opacity="0.5" shape-rendering="crispEdges"/>
</g>
<path d="M504 139C504 147.5 483 159 427 159.5C381 159.911 350 149.5 350 139.5C350 125.969 384.474 111 427 111C469.526 111 504 125.469 504 139Z" fill="white"/>
<path d="M429.291 129.335V138.767L461.053 134.037L429.291 129.335Z" fill="#00D3A9"/>
<path d="M429.291 140.743V150.217L461.341 145.501L429.291 140.743Z" fill="#00D3A9"/>
<path d="M424.72 138.704V129.412L393.352 134.044L424.72 138.704Z" fill="#00B39F"/>
<path d="M361.801 150.182C367.951 152.726 376.287 154.891 386.134 156.508V146.569L361.801 150.182Z" fill="#00B39F"/>
<path d="M424.719 150.175V140.806L393.273 145.494L424.719 150.175Z" fill="#00B39F"/>
<path d="M390.701 155.896L422.548 151.208L390.701 146.471V155.896Z" fill="#00D3A9"/>
<path d="M463.52 155.945V146.534L431.723 151.215L463.52 155.945Z" fill="#00B39F"/>
<path d="M494.667 149.093C499.959 146.555 503.157 143.681 503.663 140.658L470.51 145.508L494.667 149.093Z" fill="#00B39F"/>
<path d="M468.096 144.51L500.048 139.808L468.096 135.078V144.51Z" fill="#00D3A9"/>
<path d="M463.519 133.039V123.691L431.869 128.358L463.519 133.039Z" fill="#00B39F"/>
<path d="M463.517 144.468V135.028L431.797 139.752L463.517 144.468Z" fill="#00B39F"/>
<path d="M390.701 135.007V144.517L422.66 139.759L390.701 135.007Z" fill="#00D3A9"/>
<path d="M424.722 120.029C413.458 120.078 402.208 120.843 391.041 122.321L424.722 127.304V120.029Z" fill="#00B39F"/>
<path d="M390.701 123.628V133.074L422.688 128.358L390.701 123.628Z" fill="#00D3A9"/>
<path d="M386.17 123.052C376.33 124.654 367.98 126.812 361.83 129.377L386.17 132.969V123.052Z" fill="#00B39F"/>
<path d="M463.309 122.363C452.031 120.858 440.669 120.079 429.291 120.029V127.381L463.309 122.363Z" fill="#00D3A9"/>
<path d="M350.324 140.461C350.746 143.603 354.014 146.562 359.496 149.17L384.146 145.494L350.324 140.461Z" fill="#00D3A9"/>
<path d="M359.496 130.404C354.035 132.969 350.774 135.907 350.324 139.035L384.174 134.037L359.496 130.404Z" fill="#00D3A9"/>
<path d="M390.979 157.211C402.164 158.691 413.433 159.458 424.716 159.509V152.249L390.979 157.211Z" fill="#00B39F"/>
<path d="M492.301 129.385C486.186 126.84 477.899 124.689 468.115 123.059V132.955L492.301 129.385Z" fill="#00D3A9"/>
<path d="M468.096 156.452C477.936 154.842 486.265 152.67 492.386 150.126L468.096 146.52V156.452Z" fill="#00D3A9"/>
<path d="M503.675 138.986C503.204 135.886 499.964 132.969 494.538 130.397L470.17 134.03L503.675 138.986Z" fill="#00B39F"/>
<path d="M429.291 159.509C440.55 159.459 451.795 158.696 462.958 157.225L429.291 152.192V159.509Z" fill="#00D3A9"/>
<path d="M386.136 144.432V135.105L354.676 139.751L386.136 144.432Z" fill="#00B39F"/>
<defs>
<filter id="filter0_d_12523_17700" x="377.953" y="167.824" width="12.2168" height="18.2172" filterUnits="userSpaceOnUse" color-interpolation-filters="sRGB">
<feFlood flood-opacity="0" result="BackgroundImageFix"/>
<feColorMatrix in="SourceAlpha" type="matrix" values="0 0 0 0 0 0 0 0 0 0 0 0 0 0 0 0 0 0 127 0" result="hardAlpha"/>
<feOffset dy="10"/>
<feGaussianBlur stdDeviation="2"/>
<feComposite in2="hardAlpha" operator="out"/>
<feColorMatrix type="matrix" values="0 0 0 0 0 0 0 0 0 0 0 0 0 0 0 0 0 0 0.25 0"/>
<feBlend mode="normal" in2="BackgroundImageFix" result="effect1_dropShadow_12523_17700"/>
<feBlend mode="normal" in="SourceGraphic" in2="effect1_dropShadow_12523_17700" result="shape"/>
</filter>
<filter id="filter1_d_12523_17700" x="464.402" y="167.823" width="78.0859" height="83.9448" filterUnits="userSpaceOnUse" color-interpolation-filters="sRGB">
<feFlood flood-opacity="0" result="BackgroundImageFix"/>
<feColorMatrix in="SourceAlpha" type="matrix" values="0 0 0 0 0 0 0 0 0 0 0 0 0 0 0 0 0 0 127 0" result="hardAlpha"/>
<feOffset dy="10"/>
<feGaussianBlur stdDeviation="2"/>
<feComposite in2="hardAlpha" operator="out"/>
<feColorMatrix type="matrix" values="0 0 0 0 0 0 0 0 0 0 0 0 0 0 0 0 0 0 0.25 0"/>
<feBlend mode="normal" in2="BackgroundImageFix" result="effect1_dropShadow_12523_17700"/>
<feBlend mode="normal" in="SourceGraphic" in2="effect1_dropShadow_12523_17700" result="shape"/>
</filter>
<filter id="filter2_d_12523_17700" x="339.346" y="136.607" width="12.2188" height="18.2172" filterUnits="userSpaceOnUse" color-interpolation-filters="sRGB">
<feFlood flood-opacity="0" result="BackgroundImageFix"/>
<feColorMatrix in="SourceAlpha" type="matrix" values="0 0 0 0 0 0 0 0 0 0 0 0 0 0 0 0 0 0 127 0" result="hardAlpha"/>
<feOffset dy="10"/>
<feGaussianBlur stdDeviation="2"/>
<feComposite in2="hardAlpha" operator="out"/>
<feColorMatrix type="matrix" values="0 0 0 0 0 0 0 0 0 0 0 0 0 0 0 0 0 0 0.25 0"/>
<feBlend mode="normal" in2="BackgroundImageFix" result="effect1_dropShadow_12523_17700"/>
<feBlend mode="normal" in="SourceGraphic" in2="effect1_dropShadow_12523_17700" result="shape"/>
</filter>
<filter id="filter3_d_12523_17700" x="501.824" y="136.707" width="12.2188" height="18.2172" filterUnits="userSpaceOnUse" color-interpolation-filters="sRGB">
<feFlood flood-opacity="0" result="BackgroundImageFix"/>
<feColorMatrix in="SourceAlpha" type="matrix" values="0 0 0 0 0 0 0 0 0 0 0 0 0 0 0 0 0 0 127 0" result="hardAlpha"/>
<feOffset dy="10"/>
<feGaussianBlur stdDeviation="2"/>
<feComposite in2="hardAlpha" operator="out"/>
<feColorMatrix type="matrix" values="0 0 0 0 0 0 0 0 0 0 0 0 0 0 0 0 0 0 0.25 0"/>
<feBlend mode="normal" in2="BackgroundImageFix" result="effect1_dropShadow_12523_17700"/>
<feBlend mode="normal" in="SourceGraphic" in2="effect1_dropShadow_12523_17700" result="shape"/>
</filter>
<filter id="filter4_d_12523_17700" x="531.543" y="236.035" width="45.4004" height="39.4382" filterUnits="userSpaceOnUse" color-interpolation-filters="sRGB">
<feFlood flood-opacity="0" result="BackgroundImageFix"/>
<feColorMatrix in="SourceAlpha" type="matrix" values="0 0 0 0 0 0 0 0 0 0 0 0 0 0 0 0 0 0 127 0" result="hardAlpha"/>
<feOffset dy="4"/>
<feGaussianBlur stdDeviation="2"/>
<feComposite in2="hardAlpha" operator="out"/>
<feColorMatrix type="matrix" values="0 0 0 0 0 0 0 0 0 0 0 0 0 0 0 0 0 0 0.25 0"/>
<feBlend mode="normal" in2="BackgroundImageFix" result="effect1_dropShadow_12523_17700"/>
<feBlend mode="normal" in="SourceGraphic" in2="effect1_dropShadow_12523_17700" result="shape"/>
</filter>
<filter id="filter5_d_12523_17700" x="281.215" y="234.438" width="50.7676" height="43.5592" filterUnits="userSpaceOnUse" color-interpolation-filters="sRGB">
<feFlood flood-opacity="0" result="BackgroundImageFix"/>
<feColorMatrix in="SourceAlpha" type="matrix" values="0 0 0 0 0 0 0 0 0 0 0 0 0 0 0 0 0 0 127 0" result="hardAlpha"/>
<feOffset dy="2"/>
<feGaussianBlur stdDeviation="2"/>
<feComposite in2="hardAlpha" operator="out"/>
<feColorMatrix type="matrix" values="0 0 0 0 0 0 0 0 0 0 0 0 0 0 0 0 0 0 0.25 0"/>
<feBlend mode="normal" in2="BackgroundImageFix" result="effect1_dropShadow_12523_17700"/>
<feBlend mode="normal" in="SourceGraphic" in2="effect1_dropShadow_12523_17700" result="shape"/>
</filter>
<filter id="filter6_d_12523_17700" x="102" y="183" width="45.2539" height="28.385" filterUnits="userSpaceOnUse" color-interpolation-filters="sRGB">
<feFlood flood-opacity="0" result="BackgroundImageFix"/>
<feColorMatrix in="SourceAlpha" type="matrix" values="0 0 0 0 0 0 0 0 0 0 0 0 0 0 0 0 0 0 127 0" result="hardAlpha"/>
<feOffset dy="4"/>
<feGaussianBlur stdDeviation="2"/>
<feComposite in2="hardAlpha" operator="out"/>
<feColorMatrix type="matrix" values="0 0 0 0 0 0 0 0 0 0 0 0 0 0 0 0 0 0 0.25 0"/>
<feBlend mode="normal" in2="BackgroundImageFix" result="effect1_dropShadow_12523_17700"/>
<feBlend mode="normal" in="SourceGraphic" in2="effect1_dropShadow_12523_17700" result="shape"/>
</filter>
<filter id="filter7_d_12523_17700" x="599.15" y="128" width="45.25" height="28.3828" filterUnits="userSpaceOnUse" color-interpolation-filters="sRGB">
<feFlood flood-opacity="0" result="BackgroundImageFix"/>
<feColorMatrix in="SourceAlpha" type="matrix" values="0 0 0 0 0 0 0 0 0 0 0 0 0 0 0 0 0 0 127 0" result="hardAlpha"/>
<feOffset dy="4"/>
<feGaussianBlur stdDeviation="2"/>
<feComposite in2="hardAlpha" operator="out"/>
<feColorMatrix type="matrix" values="0 0 0 0 0 0 0 0 0 0 0 0 0 0 0 0 0 0 0.25 0"/>
<feBlend mode="normal" in2="BackgroundImageFix" result="effect1_dropShadow_12523_17700"/>
<feBlend mode="normal" in="SourceGraphic" in2="effect1_dropShadow_12523_17700" result="shape"/>
</filter>
<filter id="filter8_d_12523_17700" x="223.051" y="135.969" width="15.7539" height="12.3774" filterUnits="userSpaceOnUse" color-interpolation-filters="sRGB">
<feFlood flood-opacity="0" result="BackgroundImageFix"/>
<feColorMatrix in="SourceAlpha" type="matrix" values="0 0 0 0 0 0 0 0 0 0 0 0 0 0 0 0 0 0 127 0" result="hardAlpha"/>
<feOffset dy="4"/>
<feGaussianBlur stdDeviation="2"/>
<feComposite in2="hardAlpha" operator="out"/>
<feColorMatrix type="matrix" values="0 0 0 0 0 0 0 0 0 0 0 0 0 0 0 0 0 0 0.25 0"/>
<feBlend mode="normal" in2="BackgroundImageFix" result="effect1_dropShadow_12523_17700"/>
<feBlend mode="normal" in="SourceGraphic" in2="effect1_dropShadow_12523_17700" result="shape"/>
</filter>
<filter id="filter9_d_12523_17700" x="232.684" y="132.35" width="21.5684" height="19.6835" filterUnits="userSpaceOnUse" color-interpolation-filters="sRGB">
<feFlood flood-opacity="0" result="BackgroundImageFix"/>
<feColorMatrix in="SourceAlpha" type="matrix" values="0 0 0 0 0 0 0 0 0 0 0 0 0 0 0 0 0 0 127 0" result="hardAlpha"/>
<feOffset dy="4"/>
<feGaussianBlur stdDeviation="2"/>
<feComposite in2="hardAlpha" operator="out"/>
<feColorMatrix type="matrix" values="0 0 0 0 0 0 0 0 0 0 0 0 0 0 0 0 0 0 0.25 0"/>
<feBlend mode="normal" in2="BackgroundImageFix" result="effect1_dropShadow_12523_17700"/>
<feBlend mode="normal" in="SourceGraphic" in2="effect1_dropShadow_12523_17700" result="shape"/>
</filter>
<filter id="filter10_d_12523_17700" x="209" y="128" width="36.9551" height="28.3829" filterUnits="userSpaceOnUse" color-interpolation-filters="sRGB">
<feFlood flood-opacity="0" result="BackgroundImageFix"/>
<feColorMatrix in="SourceAlpha" type="matrix" values="0 0 0 0 0 0 0 0 0 0 0 0 0 0 0 0 0 0 127 0" result="hardAlpha"/>
<feOffset dy="4"/>
<feGaussianBlur stdDeviation="2"/>
<feComposite in2="hardAlpha" operator="out"/>
<feColorMatrix type="matrix" values="0 0 0 0 0 0 0 0 0 0 0 0 0 0 0 0 0 0 0.25 0"/>
<feBlend mode="normal" in2="BackgroundImageFix" result="effect1_dropShadow_12523_17700"/>
<feBlend mode="normal" in="SourceGraphic" in2="effect1_dropShadow_12523_17700" result="shape"/>
</filter>
<filter id="filter11_d_12523_17700" x="721.004" y="104.87" width="45.4043" height="28.572" filterUnits="userSpaceOnUse" color-interpolation-filters="sRGB">
<feFlood flood-opacity="0" result="BackgroundImageFix"/>
<feColorMatrix in="SourceAlpha" type="matrix" values="0 0 0 0 0 0 0 0 0 0 0 0 0 0 0 0 0 0 127 0" result="hardAlpha"/>
<feOffset dy="2"/>
<feGaussianBlur stdDeviation="2"/>
<feComposite in2="hardAlpha" operator="out"/>
<feColorMatrix type="matrix" values="0 0 0 0 0 0 0 0 0 0 0 0 0 0 0 0 0 0 0.25 0"/>
<feBlend mode="normal" in2="BackgroundImageFix" result="effect1_dropShadow_12523_17700"/>
<feBlend mode="normal" in="SourceGraphic" in2="effect1_dropShadow_12523_17700" result="shape"/>
</filter>
<filter id="filter12_d_12523_17700" x="707" y="185" width="45.2539" height="28.385" filterUnits="userSpaceOnUse" color-interpolation-filters="sRGB">
<feFlood flood-opacity="0" result="BackgroundImageFix"/>
<feColorMatrix in="SourceAlpha" type="matrix" values="0 0 0 0 0 0 0 0 0 0 0 0 0 0 0 0 0 0 127 0" result="hardAlpha"/>
<feOffset dy="4"/>
<feGaussianBlur stdDeviation="2"/>
<feComposite in2="hardAlpha" operator="out"/>
<feColorMatrix type="matrix" values="0 0 0 0 0 0 0 0 0 0 0 0 0 0 0 0 0 0 0.25 0"/>
<feBlend mode="normal" in2="BackgroundImageFix" result="effect1_dropShadow_12523_17700"/>
<feBlend mode="normal" in="SourceGraphic" in2="effect1_dropShadow_12523_17700" result="shape"/>
</filter>
<filter id="filter13_d_12523_17700" x="88" y="107" width="45.2539" height="28.385" filterUnits="userSpaceOnUse" color-interpolation-filters="sRGB">
<feFlood flood-opacity="0" result="BackgroundImageFix"/>
<feColorMatrix in="SourceAlpha" type="matrix" values="0 0 0 0 0 0 0 0 0 0 0 0 0 0 0 0 0 0 127 0" result="hardAlpha"/>
<feOffset dy="4"/>
<feGaussianBlur stdDeviation="2"/>
<feComposite in2="hardAlpha" operator="out"/>
<feColorMatrix type="matrix" values="0 0 0 0 0 0 0 0 0 0 0 0 0 0 0 0 0 0 0.25 0"/>
<feBlend mode="normal" in2="BackgroundImageFix" result="effect1_dropShadow_12523_17700"/>
<feBlend mode="normal" in="SourceGraphic" in2="effect1_dropShadow_12523_17700" result="shape"/>
</filter>
<filter id="filter14_d_12523_17700" x="346" y="116" width="162" height="57" filterUnits="userSpaceOnUse" color-interpolation-filters="sRGB">
<feFlood flood-opacity="0" result="BackgroundImageFix"/>
<feColorMatrix in="SourceAlpha" type="matrix" values="0 0 0 0 0 0 0 0 0 0 0 0 0 0 0 0 0 0 127 0" result="hardAlpha"/>
<feOffset dy="2"/>
<feGaussianBlur stdDeviation="2"/>
<feComposite in2="hardAlpha" operator="out"/>
<feColorMatrix type="matrix" values="0 0 0 0 0 0 0 0 0 0 0 0 0 0 0 0 0 0 0.25 0"/>
<feBlend mode="normal" in2="BackgroundImageFix" result="effect1_dropShadow_12523_17700"/>
<feBlend mode="normal" in="SourceGraphic" in2="effect1_dropShadow_12523_17700" result="shape"/>
</filter>
<linearGradient id="paint0_linear_12523_17700" x1="850" y1="98" x2="765.959" y2="114.632" gradientUnits="userSpaceOnUse">
<stop stop-color="white"/>
<stop offset="1" stop-color="#CFCFCF"/>
</linearGradient>
<linearGradient id="paint1_linear_12523_17700" x1="827" y1="247" x2="748.246" y2="205.319" gradientUnits="userSpaceOnUse">
<stop stop-color="white"/>
<stop offset="1" stop-color="#CFCFCF"/>
</linearGradient>
<linearGradient id="paint2_linear_12523_17700" x1="0.999995" y1="98" x2="89.8784" y2="113.634" gradientUnits="userSpaceOnUse">
<stop stop-color="white"/>
<stop offset="1" stop-color="#CFCFCF"/>
</linearGradient>
<linearGradient id="paint3_linear_12523_17700" x1="25.002" y1="247" x2="106.558" y2="203.442" gradientUnits="userSpaceOnUse">
<stop stop-color="white"/>
<stop offset="1" stop-color="#CFCFCF"/>
</linearGradient>
<linearGradient id="paint4_linear_12523_17700" x1="320.331" y1="138.755" x2="261.887" y2="138.755" gradientUnits="userSpaceOnUse">
<stop stop-color="#00B39F"/>
<stop offset="1" stop-color="#CFCFCF"/>
</linearGradient>
<linearGradient id="paint5_linear_12523_17700" x1="213" y1="353" x2="290.84" y2="272.91" gradientUnits="userSpaceOnUse">
<stop stop-color="white"/>
<stop offset="1" stop-color="#CFCFCF"/>
</linearGradient>
<linearGradient id="paint6_linear_12523_17700" x1="639.498" y1="350.5" x2="564.831" y2="270.169" gradientUnits="userSpaceOnUse">
<stop stop-color="white"/>
<stop offset="1" stop-color="#CFCFCF"/>
</linearGradient>
<linearGradient id="paint7_linear_12523_17700" x1="366.395" y1="187.981" x2="326.605" y2="228.976" gradientUnits="userSpaceOnUse">
<stop stop-color="#00B39F"/>
<stop offset="1" stop-color="#CFCFCF"/>
</linearGradient>
<linearGradient id="paint8_linear_12523_17700" x1="487.84" y1="188.064" x2="528.835" y2="229.059" gradientUnits="userSpaceOnUse">
<stop stop-color="#00B39F"/>
<stop offset="1" stop-color="#CFCFCF"/>
</linearGradient>
<linearGradient id="paint9_linear_12523_17700" x1="534.286" y1="138.818" x2="591.559" y2="138.818" gradientUnits="userSpaceOnUse">
<stop stop-color="#00B39F"/>
<stop offset="1" stop-color="#CFCFCF"/>
</linearGradient>
<linearGradient id="paint10_linear_12523_17700" x1="553.302" y1="264.108" x2="553.99" y2="268.112" gradientUnits="userSpaceOnUse">
<stop offset="0.9999" stop-color="#466BB0" stop-opacity="0.5"/>
<stop offset="1" stop-color="#466BB0"/>
</linearGradient>
<linearGradient id="paint11_linear_12523_17700" x1="533.142" y1="249.712" x2="535.893" y2="265.725" gradientUnits="userSpaceOnUse">
<stop offset="0.9999" stop-color="#466BB0" stop-opacity="0.5"/>
<stop offset="1" stop-color="#466BB0"/>
</linearGradient>
<linearGradient id="paint12_linear_12523_17700" x1="547.308" y1="236.287" x2="551.894" y2="262.976" gradientUnits="userSpaceOnUse">
<stop offset="0.9999" stop-color="#466BB0" stop-opacity="0.5"/>
<stop offset="1" stop-color="#466BB0"/>
</linearGradient>
<radialGradient id="paint13_radial_12523_17700" cx="0" cy="0" r="1" gradientUnits="userSpaceOnUse" gradientTransform="translate(306.809 253.101) rotate(121.66) scale(19.4237 18.9739)">
<stop offset="0.114893" stop-color="#326CE5" stop-opacity="0"/>
<stop offset="1" stop-color="#326CE5" stop-opacity="0.5"/>
</radialGradient>
<radialGradient id="paint14_radial_12523_17700" cx="0" cy="0" r="1" gradientUnits="userSpaceOnUse" gradientTransform="translate(124.801 209.62) rotate(-90) scale(25.0535 53.2508)">
<stop offset="0.14375" stop-color="#8F5E24"/>
<stop offset="1" stop-color="#D9D9D9" stop-opacity="0"/>
</radialGradient>
<radialGradient id="paint15_radial_12523_17700" cx="0" cy="0" r="1" gradientUnits="userSpaceOnUse" gradientTransform="translate(621.801 156.146) rotate(-90) scale(27.3311 53.2508)">
<stop offset="0.14375" stop-color="#00D3A9"/>
<stop offset="1" stop-color="#D9D9D9" stop-opacity="0"/>
</radialGradient>
<radialGradient id="paint16_radial_12523_17700" cx="0" cy="0" r="1" gradientUnits="userSpaceOnUse" gradientTransform="translate(231.804 155.702) rotate(-90) scale(26.1923 53.2508)">
<stop offset="0.14375" stop-color="#E03875"/>
<stop offset="1" stop-color="#D9D9D9" stop-opacity="0"/>
</radialGradient>
<radialGradient id="paint17_radial_12523_17700" cx="0" cy="0" r="1" gradientUnits="userSpaceOnUse" gradientTransform="translate(743.804 132.105) rotate(-90) scale(25.0535 53.2508)">
<stop offset="0.14375" stop-color="#E75225"/>
<stop offset="1" stop-color="#D9D9D9" stop-opacity="0"/>
</radialGradient>
<radialGradient id="paint18_radial_12523_17700" cx="0" cy="0" r="1" gradientUnits="userSpaceOnUse" gradientTransform="translate(729.801 211.681) rotate(-90) scale(22.7759 53.2508)">
<stop offset="0.14375" stop-color="#9D0FB0"/>
<stop offset="1" stop-color="#D9D9D9" stop-opacity="0"/>
</radialGradient>
<radialGradient id="paint19_radial_12523_17700" cx="0" cy="0" r="1" gradientUnits="userSpaceOnUse" gradientTransform="translate(110.803 135.464) rotate(-90) scale(27.3311 53.2508)">
<stop offset="0.14375" stop-color="#009639"/>
<stop offset="1" stop-color="#D9D9D9" stop-opacity="0"/>
</radialGradient>
<radialGradient id="paint20_radial_12523_17700" cx="0" cy="0" r="1" gradientUnits="userSpaceOnUse" gradientTransform="translate(427.406 178.106) rotate(-90) scale(59.6743 219.246)">
<stop offset="0.14375" stop-color="#00D3A9" stop-opacity="0.44"/>
<stop offset="1" stop-color="#D9D9D9" stop-opacity="0"/>
</radialGradient>
</defs>
</svg>
