<svg width="850" height="360" viewBox="0 0 850 360" fill="none" xmlns="http://www.w3.org/2000/svg">
<g filter="url(#filter0_f_12472_16699)">
<path d="M426.824 113.276C422.995 106.517 419.226 100.387 416.019 93.9833C409.297 80.5564 402.657 67.0799 396.45 53.4298C393.357 46.6502 391.345 39.4903 392.196 31.7889C393.634 18.6224 404.299 6.42746 417.593 3.18236C436.472 -1.42693 454.211 7.72964 460.558 25.6046C463.281 33.2853 462.179 40.9661 459.474 48.5394C454.011 63.8348 446.469 78.2331 438.816 92.5653C435.562 98.6587 432.01 104.611 428.606 110.622C428.147 111.337 427.653 112.007 426.824 113.276ZM427.156 60.5401C441.032 60.4243 452.552 49.1223 452.416 35.7367C452.28 22.19 440.654 11.2021 426.492 11.2434C413.343 11.2807 401.368 22.9176 401.504 35.5259C401.653 49.515 413.075 60.6558 427.156 60.5401Z" fill="#3C494F" fill-opacity="0.32"/>
</g>
<path d="M426.564 117.276C422.735 110.517 418.966 104.387 415.759 97.9833C409.037 84.5564 402.397 71.0799 396.19 57.4298C393.098 50.6502 391.085 43.4903 391.936 35.7889C393.374 22.6224 404.039 10.4275 417.333 7.18236C436.212 2.57307 453.952 11.7296 460.299 29.6046C463.021 37.2854 461.919 44.9661 459.214 52.5394C453.752 67.8348 446.209 82.2331 438.556 96.5653C435.302 102.659 431.75 108.611 428.347 114.622C427.887 115.337 427.394 116.007 426.564 117.276ZM426.896 64.5401C440.773 64.4243 452.293 53.1223 452.156 39.7367C452.02 26.19 440.394 15.2021 426.232 15.2434C413.083 15.2807 401.108 26.9176 401.244 39.5259C401.393 53.515 412.815 64.6558 426.896 64.5401Z" fill="url(#paint0_linear_12472_16699)"/>
<defs>
<filter id="filter0_f_12472_16699" x="390" y="0" width="74.1328" height="115.276" filterUnits="userSpaceOnUse" color-interpolation-filters="sRGB">
<feFlood flood-opacity="0" result="BackgroundImageFix"/>
<feBlend mode="normal" in="SourceGraphic" in2="BackgroundImageFix" result="shape"/>
<feGaussianBlur stdDeviation="1" result="effect1_foregroundBlur_12472_16699"/>
</filter>
<linearGradient id="paint0_linear_12472_16699" x1="426.806" y1="6" x2="426.806" y2="117.276" gradientUnits="userSpaceOnUse">
<stop offset="0.158107" stop-color="#00D3A9"/>
<stop offset="0.569565" stop-color="#13816B"/>
<stop offset="1" stop-color="#272828"/>
</linearGradient>
</defs>
</svg>
