<svg id="Layer_1" data-name="Layer 1" xmlns="http://www.w3.org/2000/svg" viewBox="0 0 327 196.34"><title>getnighthawk-logo_1</title><polygon points="175.3 100.36 163.53 101.97 152.7 100.49 147.33 99.76 143.08 130.92 134.13 196.51 163.53 157.83 192.93 196.51 183.98 130.92 179.73 99.76 175.3 100.36" style="fill:#00d3a9"/><path d="M326.22,125.46h0L179.1,13.66A154,154,0,0,0,163.62-.1l-.09-.08h0a.39.39,0,0,1-.1.08,155.57,155.57,0,0,0-15.5,13.78L2.92,123.87,68.31,115l0,0,.37-.06-.12-.09.12.09h0l20.27-2.76,20.72-2.83,9.67-9.67,23.77,31.27,4.25-31.16,5.37.73L163.53,102l11.77-1.61,4.43-.6L184,130.92l23.76-31.27,9.68,9.67,21.16,2.89L259.26,115l.66.09h0l64.2,8.76ZM183.43,98.81c0,.15.06.29.08.43C183.49,99.1,183.46,99,183.43,98.81Z" style="fill:#00b39f"/><line x1="68.65" y1="114.91" x2="68.53" y2="114.82" style="fill:none;stroke:#00b39f;stroke-linecap:round;stroke-linejoin:round;stroke-width:0px"/><path d="M209.66,133.73l.51.31-.21-.41Z" style="fill:#00b39f"/><path d="M118.87,132.51h0a1,1,0,0,0-.08.18l0,0,.1-.08.06,0h0Z" style="fill:#00b39f"/><path d="M118.87,132.51l0,0" style="fill:none;stroke:#00b39f;stroke-linecap:round;stroke-linejoin:round;stroke-width:0px"/><path d="M183.51,99.24c0-.14,0-.28-.08-.43" style="fill:none;stroke:#00b39f;stroke-linecap:round;stroke-linejoin:round;stroke-width:0px"/><polygon points="326.22 125.46 326.22 125.46 324.14 123.88 259.94 115.12 259.91 115.12 327.02 166.12 327.02 131.34 326.22 125.46" style="fill:#00d3a9"/><polygon points="2.92 123.87 2.86 123.88 0.78 125.46 -0.02 131.34 -0.02 166.88 68.28 114.97 68.31 114.95 2.92 123.87" style="fill:#00d3a9"/></svg>