<svg id="Layer_1" data-name="Layer 1" xmlns="http://www.w3.org/2000/svg" viewBox="0 0 327 196.34"><title>getnighthawk-logo_trans_1</title><g style="opacity:0.8"><polygon points="175.3 100.19 163.53 101.79 152.7 100.32 147.33 99.58 143.08 130.74 134.13 196.34 163.53 157.65 192.93 196.34 183.98 130.74 179.73 99.58 175.3 100.19" style="fill:#fff"/></g><path d="M326.22,125.28h0L179.1,13.48A152.73,152.73,0,0,0,163.62-.27l-.09-.08h0l-.1.08a154.33,154.33,0,0,0-15.5,13.78L2.92,123.7l65.39-8.92h0l.37-.05-.12-.09.12.09h0L88.92,112l20.72-2.83,9.67-9.67,23.77,31.27,4.25-31.16,5.37.74,10.83,1.47,11.77-1.6,4.43-.61L184,130.74l23.76-31.27,9.68,9.67L238.58,112l20.68,2.82.66.09h0l64.2,8.75ZM183.43,98.64c0,.14.06.28.08.43C183.49,98.92,183.46,98.78,183.43,98.64Z" style="fill:#fff"/><line x1="68.65" y1="114.74" x2="68.53" y2="114.65" style="fill:#fff"/><path d="M209.66,133.55l.51.32-.21-.42Z" style="fill:#fff"/><path d="M118.87,132.33h0a1,1,0,0,0-.08.18l0,0,.1-.08.06,0h0Z" style="fill:#fff"/><path d="M118.87,132.33l0,0" style="fill:#fff"/><path d="M183.51,99.07c0-.15,0-.29-.08-.43" style="fill:#fff"/><g style="opacity:0.8"><polygon points="326.22 125.28 326.22 125.28 324.14 123.7 259.94 114.95 259.91 114.94 327.02 165.94 327.02 131.17 326.22 125.28" style="fill:#fff"/></g><g style="opacity:0.8"><polygon points="2.92 123.7 2.86 123.7 0.78 125.28 -0.02 131.17 -0.02 166.7 68.28 114.79 68.31 114.78 2.92 123.7" style="fill:#fff"/></g></svg>