<?xml version="1.0" standalone="no"?>
<!DOCTYPE svg PUBLIC "-//W3C//DTD SVG 20010904//EN"
 "http://www.w3.org/TR/2001/REC-SVG-20010904/DTD/svg10.dtd">
<svg version="1.0" xmlns="http://www.w3.org/2000/svg"
 width="1280.000000pt" height="640.000000pt" viewBox="0 0 1280.000000 640.000000"
 preserveAspectRatio="xMidYMid meet">

<g transform="translate(0.000000,640.000000) scale(0.100000,-0.100000)"
fill="#000000" stroke="none">
<path d="M0 6162 l0 -237 1658 -828 1657 -828 468 3 467 3 -2125 1062 -2125
1063 0 -238z"/>
<path d="M1441 6396 c2 -2 878 -441 1947 -975 l1942 -971 0 975 0 975 -1947 0
c-1070 0 -1944 -2 -1942 -4z"/>
<path d="M5760 5120 l0 -1280 -2880 0 -2880 0 0 -640 0 -640 2880 0 2880 0 0
-1280 0 -1280 640 0 640 0 0 1280 0 1280 2880 0 2880 0 0 640 0 640 -2880 0
-2880 0 0 1280 0 1280 -640 0 -640 0 0 -1280z"/>
<path d="M7470 5425 l0 -975 1943 971 c1068 534 1944 973 1946 975 2 2 -872 4
-1942 4 l-1947 0 0 -975z"/>
<path d="M9720 5335 l-2125 -1064 475 0 475 0 2125 1064 2125 1064 -475 0
-475 0 -2125 -1064z"/>
<path d="M0 4975 l0 -705 1413 1 1412 0 -1405 704 c-773 387 -1408 704 -1412
704 -5 1 -8 -316 -8 -704z"/>
<path d="M11380 4975 l-1405 -704 1413 0 1412 -1 0 705 c0 388 -3 705 -7 704
-5 0 -640 -317 -1413 -704z"/>
<path d="M0 1425 c0 -388 3 -705 8 -704 4 0 639 317 1412 704 l1405 704 -1412
0 -1413 1 0 -705z"/>
<path d="M2130 1065 l-2125 -1064 475 0 475 0 2125 1064 2125 1064 -475 0
-475 0 -2125 -1064z"/>
<path d="M8551 2126 c2 -2 959 -481 2127 -1065 l2122 -1061 0 238 0 237 -1655
828 -1655 827 -472 0 c-259 0 -469 -2 -467 -4z"/>
<path d="M11380 1425 c773 -387 1408 -704 1413 -704 4 -1 7 316 7 704 l0 705
-1412 -1 -1413 0 1405 -704z"/>
<path d="M3380 975 l-1945 -974 1948 0 1947 -1 0 975 c0 536 -1 975 -2 974 -2
0 -878 -438 -1948 -974z"/>
<path d="M7470 975 l0 -975 1947 0 c1070 0 1944 2 1942 4 -2 2 -878 441 -1946
975 l-1943 971 0 -975z"/>
</g>
</svg>
