<?xml version="1.0" encoding="utf-8"?>
<!-- Generator: Adobe Illustrator 26.0.2, SVG Export Plug-In . SVG Version: 6.00 Build 0)  -->
<svg version="1.1" id="Layer_1" xmlns="http://www.w3.org/2000/svg" xmlns:xlink="http://www.w3.org/1999/xlink" x="0px"
	y="0px" viewBox="0 0 2243.2 2220.1" style="enable-background:new 0 0 2243.2 2220.1;" xml:space="preserve">
	<style type="text/css">
		.st0 {
			fill: #FFFFFF;
		}

		.st1 {
			fill: #FFFFFF;
		}

		.st2 {
			fill: #FFFFFF;
		}

		.st3 {
			fill: #FFFFFF;
		}

		.st4 {
			fill: #FFFFFF;
		}

		.st5 {
			fill: #FFFFFF;
		}

		.st6 {
			fill: #FFFFFF;
		}

		.st7 {
			fill: #FFFFFF;
		}

		.st8 {
			fill: #FFFFFF;
		}

		.st9 {
			fill: #FFFFFF;
		}

		.st10 {
			fill: #FFFFFF;
		}

		.st11 {
			fill: #FFFFFF;
		}

		.st12 {
			fill: #FFFFFF;
		}

		.st13 {
			fill: #FFFFFF;
		}

		.st14 {
			fill: #FFFFFF;
		}

		.st15 {
			fill: #FFFFFF;
		}

		.st16 {
			fill: #FFFFFF;
		}

		.st17 {
			fill: #FFFFFF;
		}

		.st18 {
			fill: #FFFFFF;
		}

		.st19 {
			fill: #FFFFFF;
		}

		.st20 {
			fill: #FFFFFF;
		}

		.st21 {
			fill: #FFFFFF;
		}

		.st22 {
			fill: #FFFFFF;
		}

		.st23 {
			fill: #D1D2D4;
		}

		.st24 {
			fill: #FFFFFF;
		}

		.st25 {
			fill: #FFFFFF;
		}

		.st26 {
			fill: #FFFFFF;
		}

		.st27 {
			fill: #FFFFFF;
		}

		.st28 {
			fill: #FFFFFF;
		}

		.st29 {
			fill: #FFFFFF;
		}

		.st30 {
			fill: #FFFFFF;
		}

		.st31 {
			fill: #FFFFFF;
		}

		.st32 {
			fill: #FFFFFF;
		}

		.st33 {
			fill: #FFFFFF;
		}

		.st34 {
			fill: #FFFFFF;
		}

		.st35 {
			fill: #FFFFFF;
		}

		.st36 {
			fill: #FFFFFF;
		}

		.st37 {
			fill: #FFFFFF;
		}

		.st38 {
			fill: #FFFFFF;
		}

		.st39 {
			fill: #FFFFFF;
		}

		.st40 {
			fill: #FFFFFF;
		}

		.st41 {
			fill: #FFFFFF;
		}

		.st42 {
			fill: #FFFFFF;
		}

		.st43 {
			fill: #FFFFFF;
		}

		.st44 {
			fill: #FFFFFF;
		}

		.st45 {
			fill: #C1A581;
		}

		.st46 {
			fill: #D5E4DC;
		}

		.st47 {
			fill: #7E6C54;
		}

		.st48 {
			fill: #7CA9C2;
		}

		.st49 {
			fill: #554939;
		}

		.st50 {
			fill: #C4C4C4;
		}

		.st51 {
			fill: #F1F6F3;
		}

		.st52 {
			fill: #F0F5F2;
		}

		.st53 {
			fill: #E9F1ED;
		}

		.st54 {
			fill: #ACCBBA;
		}

		.st55 {
			fill: #ADCBBB;
		}

		.st56 {
			fill: #BDD4C7;
		}

		.st57 {
			fill: #B3CFBF;
		}

		.st58 {
			fill: #D0E1D8;
		}

		.st59 {
			fill: #C3D8CC;
		}

		.st60 {
			fill: #CADED3;
		}

		.st61 {
			fill: #C9DDD2;
		}

		.st62 {
			fill: #F0F6F3;
		}

		.st63 {
			fill: #F0F5F3;
		}

		.st64 {
			fill: #E0EBE5;
		}

		.st65 {
			fill: #D3E3DA;
		}

		.st66 {
			fill: #C8DCD1;
		}

		.st67 {
			fill: #D0E0D8;
		}

		.st68 {
			fill: #DAE7E0;
		}

		.st69 {
			fill: #CFE1D7;
		}

		.st70 {
			fill: #D3E2DA;
		}

		.st71 {
			fill: #D8E6DE;
		}

		.st72 {
			fill: #CADCD2;
		}

		.st73 {
			fill: #C0D4C9;
		}

		.st74 {
			fill: #C8DBD1;
		}

		.st75 {
			fill: #C7DBD1;
		}

		.st76 {
			fill: #B8CFC3;
		}

		.st77 {
			fill: #BED4C8;
		}

		.st78 {
			fill: #E5EDE9;
		}

		.st79 {
			fill: #BDD3C8;
		}

		.st80 {
			fill: #C0D6CA;
		}

		.st81 {
			fill: #476DB4;
		}

		.st82 {
			fill: #476DB5;
		}

		.st83 {
			fill: #4A6FB6;
		}

		.st84 {
			fill: #488965;
		}

		.st85 {
			fill: #438A63;
		}

		.st86 {
			fill: #488664;
		}

		.st87 {
			fill: #478B65;
		}

		.st88 {
			fill: #337A54;
		}

		.st89 {
			fill: #317A52;
		}

		.st90 {
			fill: #347E54;
		}

		.st91 {
			fill: #4E8D6B;
		}

		.st92 {
			fill: #F6F9F7;
		}

		.st93 {
			fill: #488565;
		}

		.st94 {
			fill: #468664;
		}

		.st95 {
			fill: #468363;
		}

		.st96 {
			fill: #357955;
		}

		.st97 {
			fill: #377C57;
		}

		.st98 {
			fill: #347955;
		}

		.st99 {
			fill: #2D744F;
		}

		.st100 {
			fill: #4E896A;
		}

		.st101 {
			fill: #3A825A;
		}

		.st102 {
			fill: #307D53;
		}

		.st103 {
			fill: #2C7B4F;
		}

		.st104 {
			fill: #398059;
		}

		.st105 {
			fill: #378058;
		}

		.st106 {
			fill: #347D55;
		}

		.st107 {
			fill: #257649;
		}

		.st108 {
			fill: #2F7C51;
		}

		.st109 {
			fill: #468963;
		}

		.st110 {
			fill: #29794C;
		}

		.st111 {
			fill: #40825F;
		}

		.st112 {
			fill: #448662;
		}

		.st113 {
			fill: #3E865E;
		}

		.st114 {
			fill: #478664;
		}

		.st115 {
			fill: #13673A;
		}

		.st116 {
			fill: #307A51;
		}

		.st117 {
			fill: #347A55;
		}

		.st118 {
			fill: #267048;
		}

		.st119 {
			fill: #3C7D5B;
		}

		.st120 {
			fill: #367855;
		}

		.st121 {
			fill: #377A57;
		}

		.st122 {
			fill: #347854;
		}

		.st123 {
			fill: #2B744D;
		}

		.st124 {
			fill: #2D744E;
		}

		.st125 {
			fill: #478A65;
		}

		.st126 {
			fill: #418660;
		}

		.st127 {
			fill: #28764B;
		}

		.st128 {
			fill: #458864;
		}

		.st129 {
			fill: #3A835A;
		}

		.st130 {
			fill: #26774A;
		}

		.st131 {
			fill: #217446;
		}

		.st132 {
			fill: #4F906C;
		}
	</style>
	<g>
		<path d="M2152.2,1569.4c9,22.6,17.9,45.1,26.8,67.6c6.8,17,13.2,34.1,20.4,50.9c9.7,22.6-5.4,42.6-28.1,42.9
		c-22.6,0.2-45.2,2.4-67.9,3.8c-6.1,0.4-6.4,0.5-5.7,7.3c2.3,22.9,4.8,45.7,7.2,68.6c0.3,2.6,0.7,5.3,0.8,7.9
		c0.5,16.4-10.6,28.9-26.9,30.1c-19.9,1.4-39.9,2.6-59.9,3.8c-64.2,3.9-128.4,7.8-192.6,11.7c-33.9,2.1-67.8,4.2-101.8,6.1
		c-4.9,0.3-8.8,1.5-12.6,4.7c-9.7,8.1-19.7,15.8-30.5,24.4c3.5,2.1,6.5,3.9,9.4,5.6c31.6,18.7,62.2,38.7,89.1,64
		c18.5,17.5,33,37.5,38.7,62.8c7.5,33.6,0.3,63.4-23.8,88.5c-4.6,4.9-9.9,9.2-16,11.8c-6,2.6-8.1,6.3-8.8,12.7
		c-4.5,38.5-34.5,68.3-73,74c-24.6,3.6-47.7-1.1-69.9-11.5c-31.1-14.5-57.9-35.5-83.4-58c-42.3-37.5-80.3-78.9-115.4-123.1
		c-4.8-6-8.8-7.7-16.6-6c-47.3,10.4-95.3,15.2-143.8,14.8c-25-0.2-50,0-75-0.2c-28.4-0.3-56.6-2.8-84.5-7.7
		c-6.5-1.1-10.2,0.8-14.2,5.8c-37.1,45.5-76.9,88.6-121.9,126.6c-21.2,17.9-43.4,34.3-68.4,46.5c-22.9,11.2-46.8,16.7-72.6,13
		c-39-5.7-68.9-35.5-73.6-74.6c-0.6-5.2-1.9-8.7-7.3-11.6c-24.4-12.9-37.6-34.2-42.4-60.8c-6.2-34.7,5.4-64.3,27.8-90.3
		c11.1-12.9,24.1-23.9,37.6-34.4c12.6-9.8,25.9-18.8,39.3-27.4c2.8-1.8,6-3,8.3-6.3c-113.7-78.9-197.7-182.1-251.5-310.3
		c-16.4,7.5-32.4,14.7-48.9,20.7c-44.8,16.2-90.3,29.9-137.4,37.7c-21,3.5-41.9,3.1-61.9-5.1c-19.4-8-34-20.8-39.9-41.8
		c-3.2-11.5-2.8-23.1,0.9-34.4c1.3-4,1.1-6.7-1.9-9.7c-3.1-3-6.1-6.7-7-10.8c-1.7-8.3-7.9-9.4-14.5-10.8
		c-48.8-10.2-95.6-25.9-139.4-50.1c-30-16.6-57.2-36.7-79.4-63.1c-25.6-30.3-40.8-64.6-40-104.9c0.7-32,12-60.5,30.5-86.2
		c16.8-23.3,37.8-42.1,61.5-58c5.1-3.4,7.8-7.1,8.3-13.5c1.1-13.6,3.4-27.1,5-40.6c0.6-4.9,1.2-10,0.9-14.9
		c-0.6-11.9,1.9-23.1,6.1-34.1c12.6-32.6,25.5-65.1,37.6-97.8c9.7-26.1,28.1-42.7,54.2-50.4c55.5-16.4,111.2-32.2,166.9-47.9
		c20-5.6,40.1-5.3,60.1,0.6c28.4,8.3,56.9,16.2,86,24.5c1.6-3.7,0.9-7.3,0.9-10.7c0.1-64.3-0.8-128.7,0.2-193
		c2-119.6,33.1-231.4,93-335c1.8-3.1,4.5-5.9,4.7-10.1c-15.7-5.3-31.2-11.2-45.8-19.2c-48.1-26.1-84.2-63.5-106.7-113.7
		c-21.5-48.1-19.8-95,6.5-140.8c33.3-58,83.6-88.6,150.4-89.1C713.6,0.1,782,42.8,827.6,123.2c2.6,4.6,5,9.3,7.3,13.8
		c3.4,0.5,5.3-1.8,7.5-3.1c74.7-47,155.4-78.5,242.1-94.7c38.1-7.1,76.5-11.1,115.2-11.2c30.7-0.1,61.3-0.5,92,0.3
		c130.4,3.5,250,41.7,359.2,112.7c2.7,1.8,5.5,3.6,8.3,5.4c3.1-2.3,3.7-5.8,5.1-8.7c24.1-49.8,58.6-89.7,108.9-114.2
		c43.4-21.2,89.5-28.7,137.1-20.1c60.8,11,102,47.3,127.3,102.9c17.8,39,17,78.2,0.9,117.3c-27.1,66.1-75.7,109.8-141.9,135
		c-8,3-16.1,5.5-25.1,8.5c15.5,12.2,29.7,24.3,42.4,37.9c47.4,50.7,76.2,110.4,85.4,179.2c8.7,65.4-1.7,128.1-31.3,187.3
		c-2.7,5.5-4.1,10.9-4.1,17.1c0.1,164.3,0.1,328.6,0.1,493c0,12.1-1.3,10.6,10.5,11.2c16,0.8,31.9,1.9,47.9,2.6
		c14.6,0.7,24.2,7.8,29.2,21.5c3.6,10,8.1,19.7,11.7,29.7c1.7,4.7,3.9,5.9,8.8,5.2c22.1-3.2,44.4-4.1,66.8-3.3
		c13.4,0.5,26.6,2.2,39.4,6.1c29.8,9.2,51.3,27.8,61.3,57.9c4.9,14.6,4.5,29.6-1.3,44.1c-1.9,4.8-2.3,9.2-0.8,14.4
		c4.9,17.3,1.6,33.8-6.9,49.2c-14.5,26.3-37.7,40.5-66.6,46.2C2160.3,1567.3,2156.3,1567.5,2152.2,1569.4z" />
		<path class="st0" d="M1749.5,311c-20-3.3-40.1-6.5-60.5-7c-72.7-1.9-139.1,17.5-198,60.1c-75.3,54.5-119.7,128.5-132.6,220.5
		c-7.6,54.4-1,107.6,18.8,159.1c1,2.7,3,5.3,2.3,8.9c-37.5,3.1-75.7-4.4-114.1,7.3c40.9-101.6,37.8-200.4-16.3-295.4
		c-35.4-62.2-87.2-107.3-153.1-135.2c-130.4-55.2-283.5-20.2-376.3,92.6c-90.4,109.9-98.2,266.9-18.2,385.4
		c44.4,65.8,105.1,109.8,181.6,131.1c76,21.2,150.2,14.3,223.3-18c-1.7,6.9-3.4,12.5-4.4,18.3c-7.9,44.4,13.7,84.9,55.1,103.6
		c14.7,6.7,30.2,10.3,46.4,11c8.8,0.4,8.2,0.5,8.2,8.5c0,16,0.1,32,0,48c-0.3,43.5,29.3,84,73.6,95.7c8.7,2.3,17.6,3.3,26.7,3.3
		c27.3-0.1,54.7-0.6,82,0.1c50.2,1.2,100.6-37.8,101.4-100.3c0.2-15.3,0-30.7,0-46c0-9,0.1-8.9,8.6-10.4
		c24.3-4.1,46.1-13.4,63.4-31.4c20.9-21.7,29.8-47.6,25.2-77.7c-0.1-0.9,0-1.9,0-3.8c119.1,28.3,223.8,1.2,314.6-82.3
		c0,149.7,0,298.2,0,447.2c-3.3-0.7-3.7-4-4.9-6.3c-19.5-36.4-39.1-72.7-58.3-109.3c-8.7-16.6-21.1-28.1-39.6-32.3
		c-3.1-0.7-5.3-2.5-7.8-4.3c-14.9-11-31.3-14.2-49.2-9.5c-21.9,5.7-43.7,11.7-65.6,17.6c-4.9,1.3-8.5,2-12.4-3.7
		c-8.1-11.6-22-14.1-35.7-7.6c-18.9,9-37.6,18.5-56.5,27.8c-41.2,20.3-82.4,40.6-123.6,61c-4.9,2.4-9.8,3.7-15.3,3.7
		c-37,0-74,0.1-111,0.4c-6.5,0.1-12.3-1.3-18.2-4.2c-58.2-28.8-116.4-57.4-174.7-86.1c-6.6-3.2-13.2-6.6-20.8-6.1
		c-16.9,1.3-28.5,15.6-26.1,32.5c0.8,5.8,2.4,11.5,3.9,18.5c-13.9-3.6-26.6-6.9-39.4-10.3c-35.4-9.4-70.9-18.3-106-28.6
		c-28.1-8.2-56.8,4.2-69.9,30c-13.4,26.4-27.8,52.4-41.7,78.5c-1.5,2.8-3.2,5.6-5.8,10.2c-0.8-7.7-0.5-13.5-2-19.2
		c-6.5-25.3-27.5-42.4-53.5-43c-9.7-0.2-20.1,2-28.7-1c-8.3-2.8-14.7-11-22-16.8c-2.1-1.7-4-3.7-6.4-4.7
		c-12.7-5.7-17.3-15.6-17.6-29.2c-0.3-17.6-4.8-35-4-52.7c0.4-8.8-2.3-17.1-5.5-25.2c-12.5-32.6-25.3-65.1-37.3-97.9
		c-9.9-26.9-29-43.2-55.6-51.7c-5.4-1.7-10.9-3.1-16.3-4.6c-3.3-0.9-5-2.8-4.7-6.5c0.2-2.3,0-4.7,0-7c0-66-0.6-132,0.1-198
		c1.9-171.1,62.5-318.6,181.3-441.5c85.4-88.5,188.7-146.7,308.3-175.5c46.2-11.1,93-16.8,140.5-17c27-0.1,54-0.6,81,0.1
		c144.5,4.1,272.9,51.9,385.4,142.4c30.2,24.3,58,51,82.6,81C1754.4,312.2,1752,311.7,1749.5,311z" />
		<path class="st1" d="M1678.6,893.6c-148.4-0.4-267.6-120.4-266.1-269.6c1.5-148.6,123-264.1,267.2-263.5
		c147.5,0.6,267.1,120.9,265.8,268.1C1944.2,777.9,1823.4,893.7,1678.6,893.6z" />
		<path class="st1" d="M970.1,893.6c-146.8,0.4-266.4-118.9-266.7-266C703,480.5,821.6,361.2,969,360.5
		c145.9-0.7,266,118.7,267.4,263.5C1237.8,768.2,1121.9,893.1,970.1,893.6z" />
		<path class="st2" d="M400.3,1216.4c-28.3,0-56.6-0.2-84.9,0.1c-14.2,0.1-26.4-3.6-37.9-12.4c-33.6-25.7-67.8-50.6-101.7-75.8
		c-1.9-1.4-3.8-2.8-5.5-4.3c-7.2-6.2-8.5-10.3-5-19.4c12.8-33.6,25.8-67.1,38.7-100.6c3.3-8.7,10.2-12.7,18.6-15.1
		c20.8-6,41.5-12,62.3-17.9c31.3-8.9,62.8-17.5,94-26.9c14.2-4.3,27.8-4.4,42.1-0.2c49.8,14.5,99.8,28.5,149.6,42.7
		c3.2,0.9,6.4,1.8,9.6,2.8c9.2,2.8,15,8.4,18.5,17.8c11.8,32.2,24.4,64,36.7,96c4.4,11.5,3.5,14.7-6.4,22.1
		c-36.5,27.3-73.2,54.5-109.7,81.9c-9.3,7-19.8,9.1-31,9.1C458.9,1216.4,429.6,1216.4,400.3,1216.4z" />
		<path class="st2" d="M156.3,1186.1c4.2,0.6,6.6,3.5,9.5,5.7c28.1,20.8,56.2,41.6,84.2,62.5c16,11.9,34.1,18.2,53.9,18.3
		c64.3,0.3,128.6,0.3,192.9,0c20.5-0.1,39.1-6.8,55.7-19.3c28.2-21.2,56.6-42.2,84.9-63.2c1.6-1.2,2.9-2.8,5.7-3
		c3.8,7.7,2.8,16.5,3.9,24.8c2.8,20.8,4.6,41.7,7.3,62.4c0.7,5.4-1.1,8.5-4.9,11.9c-36.4,32.7-72.8,65.5-108.9,98.5
		c-8.9,8.1-18.8,11.9-30.7,11.9c-73-0.1-145.9-0.1-218.9,0c-11.5,0-21.2-3.6-29.9-11.5c-35.9-32.8-72.1-65.3-108.3-97.8
		c-6-5.3-8.6-10.7-7.4-19.2c3.5-24,6-48.2,8.9-72.3C154.8,1192.7,155.6,1189.4,156.3,1186.1z" />
		<path class="st1" d="M2007.7,1440.7c4.2,38,8.3,76.1,12.5,114.1c4.4,40,8.8,80.1,13.2,120.1c4.1,37.4,8.1,74.8,12.1,112.2
		c0.7,6.5,0.6,6.7-6.1,7.1c-22.9,1.5-45.9,2.8-68.8,4.2c-52.8,3.2-105.7,6.5-158.5,9.7c-9.5,0.6-19,0.9-28.9,1.3
		c0.7-4.1,3.4-5.7,5.2-7.9c72.5-81.8,123.5-175.3,151.9-281c1.7-6.2,4.2-10.6,10.4-13.1c5.9-2.4,10.9-6.6,14.8-11.7
		c13.3-17.4,27.3-34.5,39-53.1c0.3-0.8,0.8-1.5,1.4-2.1l0,0C2006.6,1439.7,2007.2,1439.8,2007.7,1440.7z" />
		<path class="st1" d="M86.4,1265.6c0.3,17.6,3.9,33.2,13.3,47.4c3.7,5.6,8.1,10.5,13.1,15c37.1,33.5,74.4,66.8,111.3,100.5
		c18.1,16.6,39.3,24.7,63.6,24.7c75.3,0.2,150.6,0.2,226,0c24.3-0.1,45.4-8.5,63.5-25c37.5-34.1,75.2-67.9,112.8-101.8
		c18.4-16.6,24.1-33.5,20.5-62.4c2.9-0.7,3.9,1.8,5.2,3.4c15.2,17.5,26.2,37,28.1,60.5c1.6,20-4.3,38.2-14.7,55
		c-10.7,17.2-24.8,31.2-40.8,43.5c-34.6,26.5-73.8,43.7-115.2,56c-69,20.5-139.6,27.2-211.4,22.9c-53.8-3.2-106.4-12.5-157.2-30.6
		c-30.9-11-60.2-25.1-86.8-44.5c-15.7-11.4-29.9-24.5-41.3-40.4c-26.1-36.5-26.2-74.6-0.2-111.2C79.3,1274.1,83,1269.9,86.4,1265.6z
		" />
		<path class="st0" d="M1814.4,290.2c4.1-2.6,7.7-4.9,11.3-7.2c12.7-8.2,24.4-17.5,33.4-29.8c14.7-20.3,15.2-42.3,1.4-63.3
		c-5.7-8.7-12.5-16.4-20.9-22.6c-16.2-11.9-33.8-11.8-49.8,0.2c-8.4,6.3-14.9,14.3-20.8,22.8c-6.5,9.3-11.8,19.3-17.4,29.3
		c-3.1,0-4.4-2.6-6.3-4.2c-11.1-9.6-22-19.4-33.1-29c-2.6-2.2-5-3.9-3.2-8.2c20.8-52.2,54-92.4,108.6-111.4
		c27.1-9.4,55.2-12.9,83.7-7.3c43.8,8.7,71.3,36.2,87.2,77c6.7,17.2,7.1,34.2,2.2,51.8c-9.3,33.2-28,60.2-53.8,82.4
		c-28.2,24.3-61.2,38.4-97.7,44.9c-2.8,0.5-5.1,0.9-7.1-1.8C1826.3,306,1820.5,298.3,1814.4,290.2z" />
		<path class="st0" d="M743.5,209.3c-3.9-3.2-5.3-7.4-7.6-10.9c-6.8-10.7-14.1-21-24-29.2c-17.4-14.3-36-14.5-53.7-0.6
		c-9,7.1-16.4,15.7-21.9,25.7c-10.2,18.5-9.8,36.9,1.4,54.9c6.4,10.3,15.1,18.6,24.7,25.9c3.4,2.6,6.9,5.1,11.1,8.2
		c-7.1,9.3-14.1,18.4-21,27.6c-2.1,2.8-4.6,2.1-7.2,1.6c-64.1-11.4-124.7-69-138-131.3c-2.8-12.9-2.6-25.7,1.7-38.4
		c13.6-40.4,38.6-69.6,80.7-81.3c24.9-6.9,50.1-5.4,75.1,0.4c52.9,12.2,89.5,44.9,114.6,91.7c2.5,4.7,4.5,9.7,6.9,14.4
		c1.5,2.9,1,4.8-1.6,6.8C770.5,185.6,757,197.4,743.5,209.3z" />
		<path class="st3" d="M1639.8,2014.8c21.2,20.3,40.4,42.4,57,66.7c8.5,12.4,13.5,25.9,16.6,40.3c0.8,3.9,1,8,0.8,11.9
		c-0.5,15.8-10.6,26.9-26.3,28.9c-9.7,1.2-19.2,0.2-28.5-3.3c-13.2-5-25.2-12.1-36.7-20c-31.5-21.6-58.9-47.8-85.4-75
		c-15.8-16.2-31-33.1-45.6-50.3c-8.6-10.1-7.9-12.9,4.4-17.3c39.5-14.2,77.8-31,114.4-51.7c1.7-1,3.7-1.7,5.2-3
		c8.3-7.5,15.8-5.5,24.9-0.3c30.4,17.3,60.5,35.1,87.6,57.4c10,8.3,19.7,17,27.2,27.8c7.1,10.2,10.4,21.5,8.9,34
		c-0.8,6.1-3.1,11.5-6.7,16.4c-2.4,3.2-4.2,4.1-7.7,0.7c-31.1-29.7-68.1-49.5-107.7-65.2C1639.6,2011.6,1639.1,2012.6,1639.8,2014.8
		z" />
		<path class="st3" d="M885.9,2012.5c-39.3,15.6-76,35.4-107.2,64.5c-4.6,4.3-5.2,4.3-8.9-0.9c-7.3-10.3-7.8-21.7-4.8-33.5
		c2.8-10.6,9.1-19.2,16.5-27c9.7-10.2,20.5-19,31.7-27.4c18.2-13.6,37.4-25.5,56.9-37c4.5-2.7,8-3,12.8-0.4
		c47.3,25.5,96.9,45.7,148.7,60c1.6,0.4,3.2,0.8,4.4,3.1c-5.2,6-10.6,12.4-16.1,18.5c-29.6,33.1-60.5,64.8-95.4,92.4
		c-15.2,12-31,23.1-48.6,31.3c-10.7,5-21.9,7.8-33.9,6.7c-17.7-1.7-28.9-13.3-28.4-31c0.5-15.5,4.9-30.1,13.1-43.4
		c14.9-23.9,32.8-45.3,52.7-65.1c2.8-2.8,5.7-5.6,8.5-8.4C888.9,2012.6,888.4,2011.6,885.9,2012.5z" />
		<path class="st1" d="M1353.1,1664.4c-32.5-83.9-64.3-166-96.2-248.7c19.6-7.1,38.6-13.2,56.9-20.9c22.2-9.4,44.9-12.3,69-12.2
		c22.7,0,44.3,2.3,64.9,12c2.4,1.1,4.9,1.9,8.6,3.2C1422,1486.2,1387.9,1574.4,1353.1,1664.4z" />
		<path class="st3" d="M1482.7,996.9c-11.2,0.2-21.6-1.9-31.7-5.5c-14.4-5.1-28.8-10.3-43.2-15.5c-40.4-14.6-80.9-13.5-121.4-0.2
		c-14.8,4.9-29.4,10.7-44.1,15.8c-19.1,6.7-38.5,7.9-57.7,0.8c-15.3-5.7-26.2-15.9-27.5-33.3c-0.7-9.6,2.4-18.4,7.5-26.5
		c10-15.7,24.1-26.5,41.1-33.5c6.5-2.7,13.2-4.6,19.7-7.2c4.1-1.7,7.2-1.4,10.9,1.5c20.6,16.5,44.4,23.5,70.5,23.4
		c27-0.1,54,0,80.9,0c25.8,0,49.3-7,69.7-23.1c3.1-2.4,5.8-4.1,9.9-2.4c9.5,4,19.5,6.6,28.7,11.4c14.8,7.7,27.1,18.1,35.1,33
		c12.4,23.3,4.7,45.2-19.5,55.9C1502.2,995.5,1492.4,997.1,1482.7,996.9z" />
		<path class="st4"
			d="M1137.6,1568.8c-12-17.6-22-36.5-32.7-54.8c-8.4-14.3-17.5-28.3-24.7-43.3c17.5-7.3,36.3-10.6,54.1-16.8
		c10.6-3.7,22.3-4.6,31.8-11.3c13.1,2.5,24.6-3.4,36.9-7.1c5.5,10.6,8.8,21.7,13.1,32.5c7.8,19.7,15.4,39.5,23,59.3
		c1.2,3.1,2,6.3,3,9.4c2.2,6.4-2.6,8.5-6.9,9.7c-29.3,8.1-58.2,17.8-87.8,25.2C1143.5,1572.5,1140.2,1572,1137.6,1568.8z" />
		<path class="st3" d="M2097.3,1463.2c24.6,20.9,52.1,30.4,84.7,25.3c-2,9.9-8.6,14.2-15.6,18.1c-6.5,3.6-13.9,4.5-21.1,5.5
		c-21.9,2.9-43.8,2-65.7,0.1c-5.1-0.4-7.2-2.4-7.7-7.9c-2.8-28.8-6.2-57.5-9.3-86.3c-0.8-7.4-0.8-7.8,6.9-8.6
		c26.1-3,52.2-6.3,78.6-2.8c6,0.8,11.8,1.9,17.5,3.9c6.5,2.3,12,6,15.9,11.5c5.8,8.1,8,13.8-3,20.4c-7.1,4.3-13.9,9.1-21.2,13.1
		c-12.9,7.1-26.2,10.8-41.2,8C2110.1,1462.3,2103.8,1463.2,2097.3,1463.2z" />
		<path class="st5" d="M1482,1490.6c4.8-15.9,11.6-31.1,17.4-46.6c2.6-6.8,5.2-13.7,8-20.4c2.7-6.6,2.8-6.6,9.2-4.3
		c18.4,6.7,36.8,13.4,55.2,20.2c4.4,1.6,8.6,3.3,13.4,3.5c15.1,0.7,25.5-6.6,30-20.9c0.8-2.5,0.3-5.4,2.5-7.4
		c5.6-0.6,9,3.1,12.7,6.3c-6.7,14.5-15.5,27.8-23.6,41.6c-10.2,17.5-19.8,35.3-31.1,52.2c-0.6,0.8-1.4,1.3-1.8,2.2l0.1-0.1
		c-3.1,4.4-7.3,4.1-11.6,2.8c-23.6-7.1-47.4-13.3-70.9-20.7C1487.7,1497.6,1482.2,1496.9,1482,1490.6z" />
		<path class="st1" d="M1339.4,1087.6c0,19.3-0.1,38.7,0.1,58c0.1,5.1-1.4,7.2-6.8,6.9c-7.3-0.4-14.7,0.1-22-0.2
		c-24.2-0.9-41.9-18.7-42.4-42.9c-0.4-20.3-0.1-40.7-0.2-61c0-3.2,0.1-5.9,3.8-7.1c19.2-6.3,37.6-15.3,58-18c1-0.1,2-0.2,3-0.4
		c4.6-0.9,6.8,0.5,6.5,5.7c-0.3,7.7-0.1,15.3-0.1,23C1339.4,1063.6,1339.4,1075.6,1339.4,1087.6z" />
		<path class="st6" d="M971.5,1284.7c-9.5-13.3-16.6-27.9-25.2-41.7c-4.7-7.6-9.1-15.5-13.6-23.3c-1.1-1.9-2.7-3.7-2-7.2
		c11.8,3.1,23.2,6,34.7,9.1c43,11.5,85.9,23.1,128.9,34.7c14,3.8,14,3.7,15.9,18.3c-9.4,6.2-20.5,7.2-30.9,10.4
		c-27,8.1-54.1,16.1-81.3,23.6c-4.1,1.1-8.2,3.3-12.4,0.3l0.1,0c-0.5-0.8-1.1-1.5-1.7-2.2c-0.4-0.3-0.5-0.8-0.4-1.3
		c-0.2-1.2-0.9-2-1.8-2.8l0,0c-1.1-1.1-0.7-3-2.2-4l0.1,0.1c-1-1.2-0.6-3.2-2.2-4.1l0.2,0.1c-0.4-0.9-1.2-1.5-1.8-2.3l0-0.1
		c-1.2-1-0.8-2.9-2.2-3.9l0.1,0.1C972.9,1287.6,973.2,1285.6,971.5,1284.7z" />
		<path class="st1" d="M1368.5,1024.6c4.9-0.9,9.3,0.9,13.6,2.4c16.9,5.9,33.7,12.3,50.7,18.1c4.7,1.6,5.7,4.3,5.7,8.8
		c-0.2,18.6,0.1,37.3-0.2,55.9c-0.4,23.7-17.7,41.3-41.5,42.6c-7.6,0.4-15.3-0.2-22.9,0.2c-4.9,0.2-6.5-1.4-6.2-6.2
		c0.3-6,0.1-12,0.1-18c0-31.3,0-62.6,0-93.8C1367.7,1031.1,1366.9,1027.8,1368.5,1024.6z" />
		<path class="st7" d="M1118.2,1306.3c6.4,21.1,11.8,42.5,15.9,64.2c1.6,1.7,0.2,4.3,1.7,6.1c0.3,0.6,0.4,1.3,0.3,1.9
		c0.8,4.4-2.5,6-5.6,6.9c-27.4,8.5-55,16.4-82.7,23.9c-1.3,0.4-2.6,0-3.8-0.6l0,0c-1.1-1.1-0.7-3.1-2.2-4l0.1,0.1
		c-1-1.2-0.6-3.2-2.2-4.1l0.2,0.1c-0.4-0.9-1.2-1.5-1.8-2.3l0,0c-1.2-1-0.8-3-2.2-3.9l0.1,0.1c-1-1.2-0.7-3.2-2.4-4
		c-10.2-15.5-19.6-31.5-28-48c32.6-8.9,65-18.5,97.4-27.9C1108.8,1313.1,1113.9,1310.7,1118.2,1306.3z" />
		<path class="st8" d="M1648,1292.6c2.1-15.8,7.4-31,10.7-46.5c1.2-5.8,2.9-11.6,4.4-17.4c0.8-2.9,1.7-5.3,5.4-6.2
		c29.9-7.7,59.7-15.7,89.6-23.5c0.2-0.1,0.6,0.2,1,0.4c1.6,2.1-0.3,3.7-1.2,5.2c-20.6,35.3-41.2,70.6-61.9,105.9
		c-0.5,0.8-1.3,1.5-2,2.2c-3,2.3-6.3,1.8-9.5,0.9c-10.2-2.8-20.4-5.5-30.4-9C1648,1302.4,1645.1,1299,1648,1292.6z" />
		<path class="st9" d="M1043.9,1408.7c19.9-7,40.3-12.3,60.5-18.1c8.5-2.5,17-5.2,25.5-7.6c2.7-0.8,5-1.7,6.1-4.5
		c4.3,11.7,6.6,23.9,9.4,36c2.2,9.3,5.6,17.4,12.5,23.9c0.9,1.4,2.9,1,3.9,2.3l0.1,0c1.2,1.1,2.9,0.8,4.1,1.8c0,0,0,0,0,0
		c1.9,3.6-0.6,4.7-3.2,5.6c-8.8,2.8-17.6,5.6-26.4,8.1c-14.5,4.2-29.2,8.2-43.6,12.6c-4.2,1.3-8.3,2.1-12.6,1.8c0,0,0-0.1,0-0.1
		c-1.2-1-0.8-2.9-2.2-3.9l0,0.1c-1.1-1.2-0.7-3.1-2.2-4l0.1,0.1c-0.5-0.8-1.1-1.5-1.7-2.2c-0.4-0.4-0.5-0.8-0.4-1.3
		c-0.2-1.2-1-2-1.8-2.7C1061.8,1441.1,1052.5,1425.2,1043.9,1408.7z" />
		<path class="st10" d="M1586,1300.7c-3.2,16.2-6.2,32.5-12.1,48c-2.4,1.9-4.3,0.7-6.2-0.9c-1.7-2.2-1.8-4.9-2.6-7.4
		c-0.1-0.4-0.2-0.8-0.4-1.2c-0.2-0.8-0.4-1.6-0.5-2.3c-0.1-0.7,0-1.5,0-2.2c0.1-0.6,0.2-1.3,0.4-1.9c-1-1.4-2.5-0.1-3.6-0.7
		c-3.4-0.9-6.5-2.4-9.3-4.4c-1.4-1.5-2.7-1.2-4.1,0.2c-11.2,6.7-11.2,6.7-14.8,18.7c-1,2-3.4,2.3-4.8,3.8c1.9-2,3.9-1.4,6-0.5
		c3.7,4.4,8.7,8.2,7.1,15.1c-0.4,0.9-1.1,1.6-2,2.1c-22.5-8.1-44.9-16.2-67.4-24.3c-15.6-5.6-15.6-5.5-9.6-20.9
		c3.3-8.7,6.7-17.3,10-26c1.3-3.5,3.3-6.2,6.9-8c14-6.8,28-13.8,42.4-19.7c5.6,1.9,12,1.4,16.7,5.8c1.6,2.3,2.1,5,1.1,7.6
		c-0.8,2.1-4.1,3.5,1,5.3c4.4,1.6,5.8,7,7.8,11.1c4.7-2.6,9.5-2.4,14.3-0.5c0.6,0.2,1,0.8,1.5,0.7c2.3-8.3,6.7-14.2,16-14.7
		c3.9,1.1,8.2,1.8,7.9,7.3c-0.1,1.3-0.2,2.5-0.4,3.8C1586.2,1296.4,1587.7,1299,1586,1300.7z" />
		<path class="st11" d="M1838.2,1300.5c8.2,12.9,15.2,26.4,21.7,40.2c2.7,4.1,0.4,6.9-2.7,9.3c-23.1,18.5-46.5,36.6-70.1,54.5
		c-2.1,1.6-4.4,3.2-7.3,2.1l0,0c-0.6-0.9-1.4-1.5-2.4-1.9c-8.1-3.4-14.6-9.2-21.6-14.4c-0.7-0.6-1.3-1.1-2-1.7l0,0
		c-0.7-0.7-1.3-1.4-2.1-1.9l0.1,0.1c-0.9-1.4-2.9-1-3.9-2.2l-0.1,0c-0.7-0.6-1.3-1.3-2.1-1.9l0.1,0.1c-0.9-1.3-2.9-0.9-3.8-2.2
		l-0.1-0.1c-0.7-0.6-1.4-1.2-2.1-1.8l0,0c-2.5-8.2,4.5-11.1,9-14.6c19.3-15.2,38.6-30.3,58.1-45.2c6.8-5.2,13.3-11,20.4-15.8
		C1830.7,1300.9,1833.8,1297.8,1838.2,1300.5z" />
		<path class="st12" d="M1246.1,1270.6c13.2,4.7,25.1,12.1,37.7,17.9c3.5,1.6,4.7,4.6,5.7,7.7c4.1,11.9,7.9,23.9,12.1,35.8
		c1.8,4.9,0.3,7-4.4,8.6c-24.4,8.6-48.7,17.5-73,26.4c-0.4-0.2-0.8-0.4-1.2-0.6c-1.3-1.4-2.1-3-2.4-4.8c0.4-5.8,4.7-8.6,8.7-11.7
		c0.4-0.8,2.5,0.3,1.9-1c-0.4-0.9-2-1.5-2.6-2.6c-1.2-3.4-1.6-6.9-1.7-10.5c1.6-4.3-2.1-2.8-3.9-3.5c-1.2-0.5-0.1,0.6-0.9-0.3
		c-7.9-9.7-14.9-0.4-22,1.4c-3.9,1-0.4,6.8-3,9.6c-0.8,1.8-1.8,3.6-3.6,4.6c-2.1,0.9-4,0.6-5.7-1c-3.4-11.1-6.7-22.2-8.1-33.8
		c-1.6-1.8,0-4.5-1.8-6.2c-0.2-0.6-0.2-1.2-0.2-1.8c-1.6-1.8,0-4.5-1.8-6.2c-0.2-0.6-0.2-1.2-0.1-1.8c-1.8-8.6,2.2-13.3,10.1-15.5
		c3.7-0.7-0.5,5.7,3.9,4.4c4,2.8,6.4,6.8,8.6,10.9c0.4,0.7-0.6,1.5-0.1,2c0.3,0.3,1.1-0.2,1.4-0.8c0.7-0.4,1.4-0.7,2.2-0.9
		c3.3-0.6,6.5-0.6,9.8-0.1c0.8,0.2,1.5,0.5,2.1,0.8c0.3,0.5,1.1,1.1,1.3,0.9c0.5-0.5-0.2-1.3,0.1-2c2.2-4,4.6-7.7,8.1-10.6
		c3.6-3-1.7-5-1-7.6c-0.3-1.9-0.2-3.7,1.1-5.3C1231.3,1273.6,1238.3,1268.3,1246.1,1270.6z" />
		<path class="st13" d="M1838.2,1300.5c-7.5,0.8-12.1,6.6-17.6,10.7c-17.2,12.9-33.9,26.3-50.8,39.5c-8.1,6.3-16.1,12.6-24,19.2
		c-2.7,2.3-5.9,4.6-5.9,8.8c-14.1-7.8-13.9-7.7-5.9-21.2c19.7-33.4,39.1-67,58.9-100.4c3.6-6.1,6-13.2,12.2-18.1
		c4.2,4.5,6.2,9.9,8.7,14.8C1822,1269.4,1831.8,1284.1,1838.2,1300.5z" />
		<path class="st3" d="M542,1552.6c-23.3,12.3-48.2,20.8-73.1,28.9c-31.3,10.1-63,18.9-95.6,24.2c-9.6,1.6-19.2,1.9-28.6-1.2
		c-9.3-3-10.4-5.6-5-13.4c6.6-9.6,15.1-17.7,22.7-26.5c2.4-2.8,5.5-1.9,8.4-1.9c14,0.1,28,0.3,41.9,0.3c39.7-0.2,79-4.3,118-11.8
		c2.3-0.4,4.6-0.6,6.9-0.8C539.6,1549.9,542.2,1548.6,542,1552.6z" />
		<path class="st14"
			d="M1290,1660.6c8.3,18.9,15.9,38,22.1,57.7c2.1,5.4-1.2,8.6-5.4,9.9c-20.1,6.4-40.3,12.9-61,17.5
		c-2,0.4-3.9,0.2-5.6-1.1c-11.2-18.4-22.9-36.5-32.3-55.9c20.8-7.8,42.6-12.4,63.7-19.1C1278.1,1667.5,1285,1666,1290,1660.6z" />
		<path class="st15" d="M1118.2,1306.3c0.2,5.1-2,7.6-7.1,9c-27,7.6-53.9,15.5-80.8,23.3c-5.7,1.6-11.6,2.8-17.1,4.8
		c-2.9,1-5.1,0.1-7.6-0.6c-7.4-10.8-14.3-22-19.7-33.9c11.8-3.2,23.7-6.3,35.5-9.7c27.1-7.8,54.1-15.8,81.2-23.6
		c2.5-0.7,5.2-0.7,7.9-1C1114.1,1284.8,1116.5,1295.5,1118.2,1306.3z" />
		<path class="st16" d="M1290,1660.6c0.1,3.9-0.8,6.8-5.4,8.1c-23.4,6.5-46.8,13.3-70.1,20.1c-2.3,0.7-4.5,1-6.7,0c0,0,0.1,0,0.1,0
		c-0.5-0.7-1.1-1.4-1.7-2.1c-8.6-13.7-17.2-27.4-24.3-42c1.3-4.1,4.8-5.2,8.3-6.3c27.2-8.4,54.6-15.7,81.8-24
		c4.5,8.2,7.5,17,10,25.9c1,1.3,0.6,3.1,1.8,4.3c0.3,0.5,0.4,1,0.3,1.5c0.8,1.4,0.5,3.3,1.9,4.5l0-0.1c1,1.1,0.7,2.9,1.8,4
		c0.3,0.5,0.4,1.1,0.3,1.7C1289.1,1657.6,1288.7,1659.5,1290,1660.6L1290,1660.6z" />
		<path class="st11" d="M952.1,1366.6c0.3,0.2,0.6,0.3,0.8,0.6c4,7.4,9.8,13.8,12.1,22.1c-8,6.2-16.2,12.2-24.9,17.3
		c-1,1.2-3,0.7-3.9,2.2l0.1-0.1c-0.9,0.5-1.5,1.2-2.1,2l0,0c-5.1,1-7.9-3-11.1-5.4c-20.6-15.6-40.7-31.7-61.2-47.4
		c-3.1-2.3-6.8-4.5-5.9-9.4l0,0.1c1.4-1,1-2.9,2.1-4.1l0,0.1c1.4-1,1-2.9,2.1-4.1c3.1-9.4,8.7-17.6,13.9-25.9
		c4.9-6.4,8.9-1.4,12.6,1.4C908.3,1332.8,929.8,1350.1,952.1,1366.6z" />
		<path class="st17"
			d="M1137.6,1568.8c5,2.7,9.7,0,14.4-1.2c27.3-6.8,53.8-16.5,81.1-23.1c4.2-1,8.6-2.3,8.9-7.9
		c6.2,13.6,11.8,27.5,16.1,41.8c0.8,5-3.2,6.3-6.5,7.3c-27.2,8.8-54.7,16.2-82.2,24.1c-3.9,1.1-7.2,0.5-9.6-3.1l0.1,0.1
		c-0.5-0.7-1.1-1.4-1.6-2.1c-0.4-0.4-0.5-0.9-0.5-1.5c-0.3-1-1.1-1.8-1.8-2.6C1149.2,1590.4,1142.8,1579.9,1137.6,1568.8z" />
		<path class="st18" d="M1648,1292.6c-0.6,4.9,1.1,7.8,6.2,9.3c13.2,3.8,26.1,8.6,39.7,10.8c-8.1,16.8-18.5,32.2-27.7,48.4
		c-10.3,18.2-21.1,36.1-31.7,54.2c-1.2,2-2.1,4.2-4,5.6c-5.8,1-8.5-4.1-12.7-6.3c2-14.8,6.7-28.9,10.1-43.4
		c5.9-24.7,12.1-49.4,18.1-74.2C1646.4,1295.4,1646.7,1293.8,1648,1292.6z" />
		<path class="st19" d="M1159.8,1606.7c2.7,1.2,5.2,1.9,8.5,0.9c26.3-7.9,52.7-15.3,78.9-23.2c3.9-1.2,8.8-1.2,10.8-6
		c5.8,11.6,10.3,23.6,14,36c-3.4,6.2-10.2,5.9-15.5,7.5c-22.1,6.7-44.4,12.6-66.5,19c-2.8,0.8-5.4,2.5-8.1,3.7c0,0,0,0,0,0
		c-1.1-1.2-0.7-3.1-2.3-4C1172.1,1629.9,1165.5,1618.6,1159.8,1606.7z" />
		<path class="st14" d="M1417.9,1656.4c4-15.2,11.2-29.3,16.4-44.1c0.9-2.7,1.3-5.8,3.7-7.9c4.5,4.2,9.9,6.2,15.8,8
		c15,4.5,30,8.7,45,13.1c3.5,1,7.3,1.5,9.3,5.1c-6.4,13.2-14.2,25.6-22.1,38c-0.6,0.8-1.4,1.3-1.8,2.2l0.1-0.1
		c-1.5,0.9-1.1,2.8-2.1,4l0.1-0.1c-1.4,1-1,2.9-2.1,4l0,0c-2.3,0.9-4.5,0.8-6.8,0.1c-16-5.2-32.3-9.3-48.3-14.4
		C1421.3,1663.2,1417.2,1661.8,1417.9,1656.4z" />
		<path class="st20"
			d="M1417.9,1656.4c2.2,4.3,6.3,5.1,10.5,6.3c17.2,5.2,34.9,9.1,51.6,15.9c-9.2,17.8-19.5,35-30.2,52
		c-2.7,2.1-5.7,1.4-8.5,0.6c-13.3-3.7-26.7-7.3-39.8-11.6c-3-1-7.9-1.4-5.4-7C1402.4,1693.6,1409.4,1674.7,1417.9,1656.4z" />
		<path class="st17" d="M1482,1490.6c6.4,6,14.8,7,22.7,9.3c20,5.8,40.1,11.4,60.1,17.4c3.5,1.1,6.4,0.9,9.5-0.6
		c-4.2,10-9.7,19.2-16,27.9c-1.4,0.9-1.1,2.9-2.2,3.9l0,0c-4,3-8.2,1.8-12.3,0.7c-22-5.9-43.7-12.7-65.6-19c-3.9-1.1-8.7-2-8.2-8
		C1472.9,1511.4,1476.7,1500.7,1482,1490.6z" />
		<path class="st21" d="M1240.1,1744.6c21.5-4.9,42.4-12.2,63.7-17.9c4.8-1.3,7.6-3.6,8.3-8.5c6.6,12.9,11.4,26.6,15.8,40.4
		c2.1,5.8-2.2,7.7-6.2,9c-17.2,5.7-34.7,10.2-52.1,15.3c-3,0.9-5.9,0.7-7.9-2.2l0.1,0.1c-0.4-0.9-1.3-1.4-1.8-2.2
		C1252.8,1767.7,1246.1,1756.4,1240.1,1744.6z" />
		<path class="st22" d="M1396,1712.7c0.2,2.9,2.1,3.5,4.6,4.1c16.4,4.5,32.8,9.2,49.2,13.8c-9.8,18.9-21.1,36.9-31.9,55.1
		c-3.2,5.3-5.2,11.5-10.9,16.9c-2.6-6.5-4.9-12.1-7.1-17.8c-4.6-11.7-9.1-23.5-13.8-35.2c-1.8-4.5-2.3-8.7,0.1-13.3
		C1389.9,1728.7,1391.6,1720.1,1396,1712.7z" />
		<path class="st23" d="M2131.7,1676c-12.1,0.8-24.3,1.6-36.5,2.5c-4.2,0.3-4.8-2.1-5.2-5.5c-1.9-18.5-3.9-37.1-6-55.6
		c-1.1-10.3-2.3-20.5-3.3-30.8c-0.6-5.5-0.9-11.1-1.3-16.7c11.5-0.3,11.5-0.3,15.2,8.9c11.5,28.7,23,57.4,34.3,86.2
		C2130.2,1668.3,2132.6,1671.4,2131.7,1676z" />
		<path class="st24" d="M855.8,1348.5c2.8,5.7,8.5,8.3,13.1,11.9c21.6,16.9,43.4,33.5,65.1,50.3c-6.6,6.5-14.6,10.9-22.2,15.9
		c-0.9,1.3-2.9,0.8-3.8,2.2l0.1,0c-4.6,1.1-7.5-2.1-10.6-4.5c-16.9-13-33.8-25.9-50.4-39.3c-3.2-2.6-7.7-4.8-5.2-10.4l0,0.1
		c1.4-1,0.9-2.9,2.1-4.1C846.3,1362.3,851.2,1355.5,855.8,1348.5z" />
		<path class="st25" d="M1261.8,1780.7c1.9,0.6,3.6,1,5.8,0.3c17.7-5.3,35.4-10.5,53.1-15.7c3.6-1,7.2-1.9,7.3-6.7
		c5.3,12.3,11.1,24.4,14.2,37.5c2,5.1-1.2,7.7-5.1,9c-15.3,5-30.9,9.3-46.5,13.4c-3,0.8-5.9,0-8.4-1.9
		C1274.7,1805,1267.2,1793.5,1261.8,1780.7z" />
		<path class="st26"
			d="M1540.3,1575c-3.9,10.1-9.9,19-16,27.8c-3.4,2.6-7,1.5-10.5,0.6c-18.8-5.4-37.8-10.2-56.4-16.5
		c-4-1.4-9.7-1.7-9.4-8.3c3.2-10.4,6.6-20.7,11.8-30.4c22.8,9.1,46.8,14.2,70.1,21.7C1533.6,1571.1,1537.8,1571.3,1540.3,1575z" />
		<path class="st19" d="M1540.3,1575c-17-3.3-33.2-9.3-49.8-13.9c-7.7-2.1-15.3-4.4-23-6.4c-3.7-1-7.2-1.8-7.8-6.4
		c2.4-9,5.4-17.7,10-25.9c1.2,3.2,4,4,7,4.9c24.1,6.9,48.2,14,72.3,20.8c2.2,0.6,4.6,0.4,6.9,0.6c-3.9,8.5-8.5,16.5-14,24
		c-0.6,0.8-1.5,1.2-1.8,2.2L1540.3,1575z" />
		<path class="st27" d="M1447.9,1578.6c0.9,1.9,2.2,3.3,4.2,3.9c23.9,7.3,47.7,15,72.1,20.3c-2.2,6.7-6.2,12.3-10.3,17.9
		c-0.7,0.8-1.5,1.5-1.8,2.5c0,0.6-0.1,1.1-0.4,1.5c-0.6,0.7-1.2,1.4-1.7,2.1l0.1-0.1c-1.4,1-1,2.9-2.1,4c0,0,0,0,0,0
		c-20.2-5.7-40.3-11.4-60.5-17.3c-4.6-1.3-10.2-1.9-9.6-8.9C1440.4,1595.5,1443.4,1586.7,1447.9,1578.6z" />
		<path class="st28" d="M1282.2,1816.6c8.2,1.1,15.3-3.1,22.9-4.8c9.6-2.1,18.9-5.2,28.3-8c4-1.2,8.7-1.8,8.8-7.6
		c6.1,11.5,10.5,23.6,14,36.1c2,4.4-0.5,7.5-4,8.7c-15,5.1-29.9,10.5-45.6,12.9c-1,0.1-1.9-0.6-2.7-1.1l0.1,0
		c-0.6-0.7-1.2-1.4-1.8-2.1C1295,1839.6,1288,1828.5,1282.2,1816.6z" />
		<path class="st29" d="M952.1,1366.6c-3.6,0.4-6.1-1.4-8.8-3.5c-20.2-15.8-40.6-31.3-60.7-47.1c-3-2.4-5.4-3.3-8.7-1.4
		c5.7-15.3,15.4-28.3,22.4-44.6c13,22.2,25,42.5,36.8,62.9C939.5,1344,946.8,1354.8,952.1,1366.6z" />
		<path class="st30"
			d="M841.9,1374.6c0.7,7.7,8,9.6,12.6,13.2c17.8,13.7,34.9,28.4,53.5,41c-6.6,6.3-14.2,11.3-22.1,15.9
		c-5.1,3-8.9-0.2-12.5-2.9c-14-10.5-27.8-21.5-41.6-32.3c-2.8-2.2-6.3-4.3-3.8-8.9C831,1391,836.6,1382.9,841.9,1374.6z" />
		<path class="st31" d="M1899.8,1402c12.7-12.2,27-22.6,40.6-33.7c3.8-3.1,6.9-7,11.4-8.9c2.8,2,1.8,4.5,1.8,6.7
		c0.1,15,0,29.9,0,44.9c0,3.6,0.5,7.4-3.3,9.8c-0.9,0.5-1.7,1.1-2.1,2.2l0.2,0c-3.8,2.5-7.6,1.2-11.4,0.2c-11.4-3-22.8-6.3-34-10.1
		c-3.6-1.2-9.2-1.6-6.8-8.2l0.1-0.1C1897.1,1403.5,1899.3,1403.8,1899.8,1402z" />
		<path class="st32" d="M1303.8,1852.8c14.6-4.1,29.1-8.2,43.7-12.4c4.2-1.2,8.3-2.7,8.7-8.1c6.2,11.4,10.5,23.6,14,36.1
		c0.8,4.1-2.5,5.3-5.2,6.1c-12.7,4-25.3,8.3-38.3,11.3c-1.7,0.4-3.3-0.1-4.7-1.2l0,0c-1.2-1-0.8-2.9-2.1-3.9l0,0.1
		c-1.1-1.2-0.7-3.1-2.3-4C1312.2,1869.2,1307,1861.6,1303.8,1852.8z" />
		<path class="st33"
			d="M1246.1,1270.6c-5.1,1.4-10.3,2.4-15.3,4.3c-3.2,1.2-4.9-0.6-7.1-2c0,0-0.5-0.8-0.5-0.8c0,0-0.1-1-0.1-0.9
		c0,0,0.3-0.9,0.3-0.9c0.2-0.5,0.5-0.9,0.8-1.3c0,0,0.1-0.7,0-0.7c-0.1,0-0.7,0.3-0.7,0.3c-1.1,0.9-2.4,1.3-3.8,1.4
		c-5.7-1.9-11.4-3.9-12.8-8.6c-1.7,5.7-7.7,6.9-13.2,8.6c-0.6-0.1-1.1-0.3-1.5-0.7c-0.7,1.1,0.9,1.8,0.7,2.8
		c-0.3,3.7-0.1,7.5-2.5,10.8c-0.9,0.5-1.8,0.5-2.6-0.2c-7.3,2-10.8,7.1-11.9,14.2c-5.6-13.9-7.5-28.8-11.6-43.1
		c-2.4-8.2-4.1-16.6-6-24.5c1.1-1.6,2.1-1.2,3-0.8c27.2,13.3,54.5,26.5,81.7,39.9C1244.1,1268.8,1245,1269.8,1246.1,1270.6z" />
		<path class="st34" d="M1588.2,1290.9c-2.5-2.7-5.3-4.8-8.8-6c-5.3,2.2-6.4-1.4-8.2-5.3c-1.5-3.3,1.1-8.1-3.6-10.2
		c-3.7-1.2-7.2-2.8-9.9-5.6c-1.1-1.5-2.2-1.5-3.4,0c-3,2.7-6.6,4-10.2,5.5c-0.8,0.9-5.8-3.6-2.9,2.4c0.7,1.4-0.7,3-2.8,3
		c-3.6-0.3-6.8-2.5-10.5-2.2c-2.9,0.2-4.9-1.6-6-4.3c15.1-9.1,31.3-16,46.9-24c11.2-5.7,22.5-11.2,34-16.9
		C1603.4,1234.4,1593.6,1276.8,1588.2,1290.9z" />
		<path class="st35" d="M827.9,1400.6c0.1,2.1,0.8,3.8,2.5,5.2c14.9,11.5,29.8,23.1,44.8,34.4c3,2.3,6.1,5.4,10.7,4.5
		c-4,4.5-8.9,6.4-14.9,6c-3.6-0.2-7.2,0-10.9,0.1c-8.9,2.4-16.5,0.8-23.3-5.9c-5.1-5-11.5-8.7-17.1-13.3c-2.7-2.2-6.2-4.3-3.7-8.8
		C819.9,1415.2,822.7,1407.2,827.9,1400.6z" />
		<path class="st36" d="M1322.1,1884.6c12.9-3.8,25.8-7.5,38.7-11.3c3.4-1,7.1-1.6,9.4-4.9c6.1,9.6,8.3,20.9,13,31.2
		c1.5,3.2,0.1,5.2-3.5,5.2c-14.3,0-28.6,0-43,0c-2.7,0-4.3-1.4-5.5-3.6C1328.2,1895.6,1324.3,1890.6,1322.1,1884.6z" />
		<path class="st37" d="M1350.6,1298.8c20.3,0,39.2,0,58.6,0c-0.7,8.8-5.2,15.8-7.9,23.4c-1.2,3.2-4.3,3.9-7.4,3.9
		c-9.6,0-19.2,0-28.9,0c-3.3,0-5.8-0.9-6.9-4.4C1355.8,1314.6,1353.4,1307.4,1350.6,1298.8z" />
		<path class="st38" d="M1779.9,1406.7c19.5-13.6,37.8-28.8,56.5-43.5c6.8-5.3,13.8-10.2,20.3-15.8c2.3-2,3.4-3.8,3.2-6.7
		c0.8,1,1.8,1.9,2.4,3.1c5.5,9.8,5.5,9.8-3.4,17.1c-17.6,14.4-35.3,28.7-53,43.1c-2.6,2.1-4.9,4.5-7.2,6.8
		c-5.8,5.7-5.8,5.7-12.8,0.9C1783.7,1410.3,1781.1,1409.3,1779.9,1406.7z" />
		<path class="st39" d="M1896.1,1404.8c0,3.3,2.6,4.6,5.1,5.2c15.8,3.9,31,10.1,47.1,12.9c-2.2,5.5-6.1,9.6-10,13.8
		c-0.9,0.5-1.7,1.1-2.2,2.1l0.2,0c-3.4,2.4-7,1.4-10.5,0.4c-13.4-3.9-26.7-7.8-40-11.7c-3.6-1.1-8-1.9-8.1-7.2l0.2,0.1
		c1.1-0.4,1.6-1.3,2.1-2.3C1884.3,1412.6,1890.3,1408.9,1896.1,1404.8z" />
		<path class="st40"
			d="M1877.6,1420.4c5.1,5.4,12.4,5.6,19,7.4c13.3,3.6,26.1,8.9,39.8,11.2c-2.1,5.5-6.1,9.6-10,13.8
		c-2.5,3.5-5.7,2.2-9,1.4c-15.8-3.9-31.2-9-46.8-13.7c-3.8-1.1-8.8-1.9-8.5-7.8C1866.6,1427.9,1871.5,1423.3,1877.6,1420.4z" />
		<path class="st41" d="M816,1422.7c0,3,2,4.5,4.2,6.2c8.1,6.2,16.9,11.5,24,18.9c4.6,4.8,10.6,2.1,16,2.9c-1.2,1.2-2.8,1.7-4.5,1.8
		c-18.1,1.5-36.2,3.1-54.3,4.6c-0.9,0.1-1.8-0.1-2.9-0.2c0.1-1.2-0.2-2.4,0.2-3.1C805.1,1443.8,809,1432.4,816,1422.7z" />
		<path class="st42"
			d="M1862,1432.7c3.6,5.9,10.3,5.7,15.7,7.5c14.1,4.7,28.6,8.5,42.8,12.9c2.2,0.7,3.9,0.2,5.8-0.3
		c-0.9,3.1-2.1,5.4-6.1,5c-25.4-2.6-50.8-5.2-76.1-7.7c-0.2,0-0.5-0.4-1.3-1.2C1848.4,1442.4,1854.8,1437.1,1862,1432.7z" />
		<path class="st43" d="M1187.9,1346.6c1.8,0,3.7,0,5.5,0c-2,3.8,1.8,2.3,2.9,3.2c3.1,2.1,4.7,5.3,6.6,8.4c1.1,1.6-0.1,6.5,4.4,2.7
		c3.8-1,7.6-1.1,11.4,0.1c2.2,1.2,3.5,3.4,5,5.3c0,0,0.5,0.6,0.5,0.6c-7.7,2.7-15.5,5.3-23.1,8.2c-4.3,1.7-6.6,1.5-7.5-3.8
		C1192.2,1363.1,1188.7,1355.2,1187.9,1346.6z" />
		<path class="st44" d="M1573.9,1350.6c-0.4,7.3-3.3,14.1-4.8,21.3c-0.8,3.9-3,5.5-7.3,3.7c-7.3-3-14.9-5.6-22.3-8.3
		c0.2-0.3,0.4-0.5,0.6-0.8c1.4-3.3,2.3-7,7.2-6.5c4.1,0.4,8.2,0.3,11.6,3.1c-1.1-4.8,2.2-7.7,4.7-11c0.8-1.1,1.8-1.9,3-2.5
		C1569.2,1349,1571.6,1349.4,1573.9,1350.6z" />
		<path class="st45" d="M542,1552.6c-0.9-1.9-2.9-1.6-4.5-2.3c2.3-2.1,5.3-1.7,8.1-2.2c2.1-0.6,2.7,0.4,2.2,2.3
		C545.9,1551.1,544.3,1552.9,542,1552.6z" />
		<path class="st46" d="M1573.9,1350.6c-2.5,0.2-5.1,0.5-7.6,0.7c-1.6-2.3-0.2-3.5,1.7-4.6c2,0.7,4,1.4,6,2
		C1574.1,1349.3,1574.1,1349.9,1573.9,1350.6z" />
		<path class="st47"
			d="M547.8,1550.4c-0.7-0.8-1.5-1.5-2.2-2.3c2.1-1.7,4.3-2.3,6.8-0.8C551.3,1549.3,549.7,1550,547.8,1550.4z" />
		<path class="st48" d="M1749.5,311c1.7-0.6,3.8-0.6,4.8-2.7c1.5,0.7,3.3,1.8,2.8,3.5c-0.6,2.1-2.7,1-4.1,0.8
		C1751.8,312.3,1750.6,311.5,1749.5,311z" />
		<path class="st49" d="M885.9,2012.5c0.2-0.2,0.4-0.5,0.7-0.7c1.6-1.2,3.9-2.4,4.9-0.6c0.9,1.6-1.4,3-3.2,3.6
		C887.4,2014.1,886.7,2013.3,885.9,2012.5z" />
		<path class="st49" d="M1639.8,2014.8c-1.8-0.6-4.2-2.2-3.2-3.6c1.6-2.1,3.9-0.4,5.5,1.3C1641.3,2013.3,1640.6,2014.1,1639.8,2014.8
		z" />
		<path class="st9" d="M1135.8,1376.6c-2.2-1.6-1.7-3.9-1.7-6.1C1135.9,1372.2,1136,1374.3,1135.8,1376.6z" />
		<path class="st33" d="M1178,1306.7c2.4,1.6,1.9,3.9,1.8,6.2C1177.8,1311.2,1178,1308.9,1178,1306.7z" />
		<path class="st34" d="M1586,1300.7c0-2.2-0.4-4.5,1.8-6C1588,1296.9,1588.1,1299.1,1586,1300.7z" />
		<path class="st33" d="M1176.1,1298.7c2.4,1.5,1.9,3.9,1.8,6.2C1175.8,1303.2,1176,1300.9,1176.1,1298.7z" />
		<path class="st9" d="M1039.7,1400.8c2,0.7,2.3,2.3,2.2,4.1C1040.3,1403.9,1039.8,1402.5,1039.7,1400.8z" />
		<path class="st39" d="M1899.8,1402c-0.4,2-1.9,2.5-3.6,2.7C1896.9,1403.1,1898.3,1402.5,1899.8,1402z" />
		<path class="st9" d="M1041.8,1404.7c1.8,0.8,2.2,2.3,2.2,4C1042.4,1407.8,1041.9,1406.4,1041.8,1404.7z" />
		<path class="st24" d="M859.9,1340.5c0,1.7-0.3,3.3-2.1,4.1C857.9,1342.9,858.4,1341.5,859.9,1340.5z" />
		<path class="st24" d="M857.9,1344.5c0,1.7-0.3,3.3-2.1,4.1C855.9,1346.9,856.3,1345.4,857.9,1344.5z" />
		<path class="st24" d="M936.1,1408.8c0.7-1.8,2.2-2.1,3.9-2.2C939.2,1408.2,937.7,1408.7,936.1,1408.8z" />
		<path class="st36" d="M1319.9,1880.7c1.7,0.8,2,2.3,2.1,3.9C1320.5,1883.7,1320,1882.3,1319.9,1880.7z" />
		<path class="st36" d="M1317.7,1876.7c2,0.7,2.3,2.2,2.3,4C1318.4,1879.8,1317.9,1878.3,1317.7,1876.7z" />
		<path class="st30" d="M908,1428.8c0.7-1.7,2.2-2.1,3.8-2.2C911.1,1428.2,909.6,1428.6,908,1428.8z" />
		<path class="st20" d="M1480,1678.6c0-1.7,0.4-3.2,2.1-4C1482,1676.3,1481.5,1677.8,1480,1678.6z" />
		<path class="st50"
			d="M2007.7,1440.7l-0.9,0.1l-0.9-0.2c0-1.1-0.4-2.8,1.4-2.5C2008,1438.2,2008.2,1439.7,2007.7,1440.7z" />
		<path class="st4" d="M1161.9,1440.7c-1.7-0.1-3.1-0.5-3.9-2.3C1159.6,1438.7,1161,1439.3,1161.9,1440.7z" />
		<path class="st4" d="M1166.1,1442.6c-1.7,0-3.2-0.3-4.1-1.8C1163.6,1440.7,1165.1,1441.2,1166.1,1442.6z" />
		<path class="st20" d="M1482.1,1674.8c-0.1-1.7,0.3-3.3,2.1-4C1484.1,1672.4,1483.7,1673.9,1482.1,1674.8z" />
		<path class="st30" d="M843.9,1370.5c0,1.7-0.3,3.3-2.1,4.1C841.9,1372.9,842.4,1371.5,843.9,1370.5z" />
		<path class="st9" d="M1035.8,1394.7c1.7,0.8,2.1,2.2,2.2,3.9C1036.5,1397.7,1036,1396.3,1035.8,1394.7z" />
		<path class="st14" d="M1290,1660.6c-1.8-1-2-2.6-1.9-4.4C1289.6,1657.4,1290,1658.9,1290,1660.6z" />
		<path class="st14" d="M1287.8,1654.6c-1.6-0.9-1.8-2.4-1.8-4C1287.5,1651.5,1287.9,1652.9,1287.8,1654.6z" />
		<path class="st4" d="M1075.8,1462.7c1.8,0.7,2.2,2.3,2.2,4C1076.4,1465.9,1075.9,1464.4,1075.8,1462.7z" />
		<path class="st4" d="M1077.9,1466.7c1.7,0.8,2.1,2.2,2.2,3.9C1078.5,1469.7,1078,1468.3,1077.9,1466.7z" />
		<path class="st9" d="M1033.5,1390.8c2.1,0.6,2.4,2.2,2.4,4C1034.3,1393.9,1033.8,1392.4,1033.5,1390.8z" />
		<path class="st14" d="M1286.1,1650.6c-1.9-1-2.1-2.6-1.9-4.5C1285.7,1647.3,1286.1,1648.9,1286.1,1650.6z" />
		<path class="st15" d="M979.8,1298.7c1.8,0.8,2.1,2.3,2.2,4C980.5,1301.8,979.9,1300.4,979.8,1298.7z" />
		<path class="st14" d="M1283.9,1644.6c-1.7-1-1.9-2.5-1.8-4.3C1283.6,1641.4,1284,1642.9,1283.9,1644.6z" />
		<path class="st16" d="M1179.6,1640.7c2,0.6,2.3,2.2,2.3,4C1180.4,1643.8,1179.9,1642.3,1179.6,1640.7z" />
		<path class="st19" d="M1556,1548.6c0.1-1.7,0.5-3.2,2.2-3.9C1558,1546.3,1557.5,1547.8,1556,1548.6z" />
		<path class="st13" d="M1748.1,1384.6c1.7,0.1,3.1,0.5,3.9,2.2C1750.3,1386.7,1748.9,1386.2,1748.1,1384.6z" />
		<path class="st15" d="M977.7,1294.8c2,0.7,2.3,2.3,2.2,4.1C978.3,1297.9,977.8,1296.5,977.7,1294.8z" />
		<path class="st14" d="M1508,1630.7c0-1.7,0.4-3.2,2.1-4C1510,1628.3,1509.5,1629.8,1508,1630.7z" />
		<path class="st13" d="M1742.2,1380.6c1.6,0.1,3.1,0.5,3.8,2.2C1744.3,1382.6,1742.9,1382.2,1742.2,1380.6z" />
		<path class="st15" d="M971.5,1284.7c2,0.6,2.4,2.2,2.4,4C972.3,1287.9,971.8,1286.4,971.5,1284.7z" />
		<path class="st15" d="M973.9,1288.7c1.7,0.8,2.1,2.2,2.2,3.9C974.6,1291.7,974,1290.3,973.9,1288.7z" />
		<path class="st15" d="M976.1,1292.6c0.6,0.8,1.2,1.5,1.8,2.3C976.7,1294.6,976.2,1293.7,976.1,1292.6z" />
		<path class="st19" d="M1156.1,1600.6c1,0.5,1.6,1.4,1.8,2.6C1157.2,1602.3,1156.6,1601.5,1156.1,1600.6z" />
		<path class="st19" d="M1158.3,1604.7c0.5,0.7,1.1,1.4,1.6,2.1C1158.9,1606.4,1158.4,1605.8,1158.3,1604.7z" />
		<path class="st26" d="M1540.1,1574.9c0.6-0.7,1.2-1.5,1.8-2.2C1541.8,1573.7,1541.2,1574.5,1540.1,1574.9z" />
		<path class="st13" d="M1739.9,1378.7c0.7,0.6,1.4,1.2,2.1,1.8C1741.3,1379.9,1740.6,1379.3,1739.9,1378.7z" />
		<path class="st14" d="M1512.2,1623.2c0.1-1.2,0.7-2,1.8-2.5C1513.3,1621.5,1512.8,1622.3,1512.2,1623.2z" />
		<path class="st14" d="M1510.1,1626.8c0.6-0.7,1.1-1.4,1.7-2.1C1511.6,1625.8,1511.1,1626.4,1510.1,1626.8z" />
		<path class="st13" d="M1745.9,1382.7c0.7,0.6,1.4,1.3,2.1,1.9C1747.3,1383.9,1746.6,1383.3,1745.9,1382.7z" />
		<path class="st13" d="M1751.8,1386.7c0.7,0.6,1.4,1.3,2.1,1.9C1753.3,1388,1752.6,1387.4,1751.8,1386.7z" />
		<path class="st13" d="M1754,1388.7c0.7,0.6,1.3,1.2,2,1.7C1755.3,1389.8,1754.6,1389.2,1754,1388.7z" />
		<path class="st17" d="M1574.1,1516.9c0.6-0.7,1.2-1.5,1.8-2.2C1575.8,1515.7,1575.2,1516.5,1574.1,1516.9z" />
		<path class="st4" d="M1074.2,1460.7c0.6,0.7,1.1,1.4,1.7,2.2C1074.8,1462.5,1074.3,1461.8,1074.2,1460.7z" />
		<path class="st4" d="M1072,1456.6c1.1,0.6,1.7,1.5,1.8,2.7C1073.2,1458.5,1072.6,1457.6,1072,1456.6z" />
		<path class="st9" d="M1038,1398.6c0.6,0.8,1.2,1.5,1.8,2.3C1038.7,1400.6,1038.2,1399.7,1038,1398.6z" />
		<path class="st20" d="M1484.1,1670.8c0.6-0.7,1.2-1.5,1.8-2.2C1485.7,1669.7,1485.2,1670.5,1484.1,1670.8z" />
		<path class="st50" d="M2006,1440.6c0.3,1.2-0.3,1.9-1.4,2.1C2004.3,1441.6,2004.8,1440.8,2006,1440.6z" />
		<path class="st40" d="M1936.1,1438.9c0.3-1.1,1-1.9,2.2-2.1C1937.9,1437.8,1937.3,1438.6,1936.1,1438.9z" />
		<path class="st14" d="M1206.2,1686.7c0.6,0.7,1.1,1.4,1.7,2.1C1206.9,1688.5,1206.3,1687.8,1206.2,1686.7z" />
		<path class="st25" d="M1260.1,1778.6c0.6,0.7,1.2,1.5,1.8,2.2C1260.8,1780.5,1260.3,1779.7,1260.1,1778.6z" />
		<path class="st32" d="M1302.1,1850.7c0.6,0.7,1.2,1.4,1.8,2.1C1302.9,1852.5,1302.3,1851.7,1302.1,1850.7z" />
		<path class="st39" d="M1948.2,1422.9c0.3-1.2,1-1.9,2.1-2.2C1950,1421.8,1949.3,1422.6,1948.2,1422.9z" />
		<path class="st15" d="M982,1302.7c1.1,0.6,1.7,1.5,1.8,2.8C983.2,1304.5,982.6,1303.6,982,1302.7z" />
		<path class="st40" d="M1879.9,1418.2c-0.2,1.2-0.9,1.9-2.1,2.3C1878,1419.3,1878.8,1418.7,1879.9,1418.2z" />
		<path class="st15" d="M984.2,1306.7c0.6,0.7,1.1,1.4,1.7,2.2C984.8,1308.5,984.3,1307.8,984.2,1306.7z" />
		<path class="st24" d="M934,1410.7c0.7-0.7,1.4-1.3,2.1-2C935.4,1409.4,934.7,1410.1,934,1410.7z" />
		<path class="st38" d="M1777.5,1404.8c1.2,0.2,2,0.8,2.4,1.9C1779.1,1406.1,1778.3,1405.4,1777.5,1404.8z" />
		<path d="M1674.4,626.8c1.4,45.8-35.8,93.1-93,93.4c-51,0.3-93.2-41.8-92.9-92.8c0.3-58.5,49-93.6,93.3-93.4
		C1631.2,534.2,1675.2,575.3,1674.4,626.8z" />
		<path d="M870.5,534.3c51.4,0.1,92.6,41.6,92.4,93c-0.2,51.6-42.3,93.4-93.8,93c-51-0.4-93.3-42.6-92.5-93.4
		C777.6,566.8,827.6,532.3,870.5,534.3z" />
		<path class="st1" d="M293.1,1040.1c-2-5.2-6.2-7.2-10.6-8.8c-5.9-2.2-11.9-4.3-17.8-6.6c-2.6-1-4.8-2.7-4.4-5.9
		c0.4-3.2,3-4,5.7-4.8c5.3-1.5,9.8,0.4,14.2,2.9c4.6,2.7,9,5.7,13.7,8.2c6.8,3.8,13.2,4.3,20.6,0.2c20.6-11.6,43.2-17,66.7-18.8
		c10.6-0.8,13.5-4.5,11.3-14.7c-0.2-1-0.3-2-0.7-2.9c-1.3-3.9-2.6-7.9,1.7-10.8c4.2-2.8,8.9-2.6,13.4-0.8c2.9,1.2,4.7,3.7,4,7.2
		c-0.5,2.6-1.1,5.2-1.6,7.8c-1.9,10.1,0.6,13.4,10.6,14.3c16.3,1.5,32.2,4.8,47.7,10.3c6.6,2.4,13.2,4.8,19,8.7
		c6.6,4.5,13.3,3.8,19.8,0.6c5.4-2.7,10.4-6,15.5-9.1c4.2-2.6,8.6-3.4,13.4-2.7c2.8,0.4,5.3,1.3,6.1,4.3c0.8,3.2-1.4,5-3.8,6.2
		c-2.7,1.3-5.5,2.4-8.3,3.5c-4,1.5-8.2,2.8-12.2,4.5c-9.4,4.1-9.9,6.5-3.4,14c10.2,11.8,16.5,25,14.6,41c-0.4,3.6,0.8,5.4,4,7
		c4.6,2.4,9.6,2.7,14.5,3.2c4.6,0.5,9.3,0.5,14,0.6c3.4,0.1,6.6,0.7,9.7,2c2.2,0.9,4.7,2.2,4.6,4.7c-0.1,3.1-3.2,4.1-5.7,4.7
		c-3.9,0.9-7.9,0.4-11.9-0.5c-6.5-1.5-12.9-3.2-19.5-4.2c-7.6-1.2-13.7,0.3-18.7,7.6c-10.7,15.5-26.5,25-43.5,32.3
		c-9.4,4.1-10,7.4-2.4,14.9c2.6,2.6,5.5,4.8,8.2,7.3c2.1,1.9,3.4,4.2,2.3,7.1c-1.1,2.8-3.7,3.7-6.4,4c-5.7,0.7-10.6-0.6-13.8-5.9
		c-2.2-3.7-4.3-7.6-6.9-11c-3.9-5-8.7-7.4-15.6-6.1c-25.8,4.9-51.7,4.9-77.5,0.1c-8.2-1.5-13.4,1.5-17.9,7.4
		c-2.2,2.9-3.6,6.4-5.7,9.4c-3.7,5.4-9.8,7.6-15.7,5.8c-5.3-1.6-6.7-5.7-3.1-9.8c3.3-3.7,7.4-6.8,10.7-10.5c5.5-6.1,4.7-9.2-3-12.4
		c-18.8-7.8-35.5-18.3-47.1-35.6c-3.8-5.6-9.9-5.1-15.2-4.5c-7.2,0.8-14.3,2.9-21.5,4.4c-4.6,0.9-9.2,1.5-13.8-0.3
		c-1.9-0.8-3.6-1.9-3.7-4.3c0-2.2,1.3-3.6,3.1-4.7c3-1.9,6.3-1.9,9.6-2.1c7.3-0.6,14.6-1,21.9-1.8c9.2-1.1,11.5-3.6,11-12.5
		c-0.6-12.2,3.2-23,10.3-32.6C286.7,1047.8,289.8,1044.3,293.1,1040.1z" />
		<path class="st51" d="M1568,1346.7c-0.6,1.5-1.1,3-1.7,4.6c-0.3,2.4-1.6,4.4-3.5,5.7c-3.3,2.3-2.8,5.3-1.1,11.2
		c-4.2-5.2-7.7-5.8-11.9-5.9c-4.3-0.1-7.5,0.1-9.6,4.2c1.6-6.7-4.5-10.1-6.4-15.3c-0.6-1.5-3.1-2.3-1.8-4.6c0.3-2.3,0-4.9,1-6.7
		c2-3.8,0.8-6.7-2-10.1c7.1,4.3,11.4-2.3,16.9-3.2c1.4-1.1,2.9-1.1,4.3,0c3.4,1.2,7,2.2,9.7,4.8c1.6,0.6,3.6-0.3,4.9,1.4
		c-0.4,0.6-0.7,1.2-1.1,1.8c-0.5,0.7-0.5,1.5,0.1,2.1c0.4,0.6,0.5,1.2,0.3,1.9c-0.4,0.5-1,0.8-1.6,0.9c0.1,0-0.4,0.3-0.4,0.3
		s0.4-0.3,0.5-0.3c0.7-0.1,1.1-0.4,1.5-0.9C1568.5,1340.8,1567.7,1343.9,1568,1346.7z" />
		<path class="st51" d="M1568.4,1268.4c2-0.2,3-2.7,5.9-2c-4.7,5.5-0.7,10.9,0.1,16.3c0.3,2.2,3.2,1.8,5,2.2
		c-4.1,2.1-7.8,4.4-10.9,8.2c-2.4,2.9-2.4,5.6-2.1,9c-6.8-4.8-14.5-4.8-20.8-0.3c0.1-7.5-4.9-13.8-13.3-16.2c6.6-1.5,5.7-6.5,6-10.9
		c4.6-3.5-1.4-5.8-1.5-8.7c3-0.5,4.4,2,6.6,2.3c2.5-1.3,3.8,1,5.6,1.7c1.5,0.7,3.1,0.5,4.6,0c1.7-0.4,3.2,0.3,4.8,0.8
		c1.6,0.5,3.1,0.3,4.5-0.6C1564.7,1269.4,1566,1267.2,1568.4,1268.4z" />
		<path class="st52" d="M1513.7,1304.7c0.9,1.7,0.8,3.6,0.6,5.4c0.3,1.1,1,1.8,1.9,2.4c0.6-0.1,1.2,0,1.8,0.4
		c0.6,0.4,0.8,0.9,0.6,1.3c-0.2,0.4-0.4,0.7-0.6,0.7c-6.8,1-8.3,7.2-11.6,11.7c-0.8,0.9-1.7,0.9-2.6,0.2c-4.6-0.1-9.1-0.1-13.7-0.2
		c-0.9,0.9-1.9,0.8-2.7-0.1c-3.3-4.5-4.6-11.1-11.8-11.8c-0.7-0.1-1.8-1.3-0.3-1.9c6.4-2.6,2.8-9.8,6.4-13.6
		c-0.7-1.1-0.6-2.2,0.4-3.1c5.5-2.6,12.7-2.9,14.6-10.9c2,2.5,1.4,6.7,5.3,7.4c0.6,0.6,0.9,1.3,0.7,2.1c-0.5,1.4-1.4,2.7-1.9,4.1
		c-0.1,0.6-0.2,1.3-0.1,2c0,0,0.2,1,0.2,0.9c0.2,0.2-0.1,0.8,0.5,0.7c0.1-0.7,0.4-1.2,0.9-1.8c0.4-0.6,0.8-1.1,1.3-1.6
		c0.6-0.9,1.2-1.7,2-2.5c0.9-0.8,2-0.9,3-0.3c1.1-0.2,2.2-0.3,3.3-0.5c0.9,0.9,1,1.9,0.3,3l-0.1-0.2c-1.6,1.3-1.9,3.6-3.3,5
		c-1.1,1.2-2.2,2.3-3.6,3.1c-0.5,0.4-1.1,0.3-1.7,0.3c0.4,0.4,1,0.5,1.6,0.2c1.4-0.1,2.9,0.1,4.3-0.4
		C1510.8,1306,1511.6,1304.2,1513.7,1304.7z" />
		<path class="st53" d="M1513.7,1304.7c-2.2,1.2-1,5.1-4.2,5.6c-1.2-2.5-1.9-5-1.4-7.8c0.8-1.9,2.2-3.2,4.1-3.8
		C1512.6,1300.7,1513.1,1302.7,1513.7,1304.7z" />
		<path class="st54" d="M1566.8,1332.8c-1.8,0-3.7,0.4-4.9-1.4c1.5-0.6,2.9-1.3,4.4-1.9c1.1-0.4,2.7-1.1,2.9,0.9
		C1569.2,1331.8,1568.3,1332.7,1566.8,1332.8z" />
		<path class="st53" d="M1508.5,1296.4c-0.9,0.8-1.8,1.7-2.7,2.5c-2.6,0.3-3.8-1-4.1-3.4c0.1-0.9,0.2-1.8,0.2-2.7
		C1504.8,1292.8,1506.9,1294.1,1508.5,1296.4z" />
		<path class="st55" d="M1552.1,1326.5c-1.4,0-2.9,0-4.3,0c0-0.6,0-1.3,0.2-1.9c0.3-1.4-0.3-3.6,2-3.6c2.3,0,1.8,2.1,2,3.6
		C1552.1,1325.3,1552.1,1325.9,1552.1,1326.5z" />
		<path class="st56" d="M1531.9,1346.5c0.6,1.5,1.2,3.1,1.8,4.6c-2.3-0.2-4.6-0.4-6.9-0.6C1527.2,1347.2,1530.3,1347.8,1531.9,1346.5
		z" />
		<path class="st57" d="M1503.7,1326.8c0.9-0.1,1.7-0.1,2.6-0.2c1.4,1.1,2.9,2.9,0.8,3.8C1504.7,1331.4,1504.2,1328.7,1503.7,1326.8z
		" />
		<path class="st58" d="M1482.1,1296.2c-0.1,1-0.3,2-0.4,3.1c-0.5-0.4-1.1-0.7-1.5-1.2c-0.9-1.1-3.5-2.1-1.6-3.8
		C1479.8,1293.1,1481.4,1294.5,1482.1,1296.2z" />
		<path class="st59"
			d="M1512.2,1298.9c-0.1-1-0.2-2-0.3-3c0.6-1.7,2.6-2.8,3.3-1.6C1516.9,1297,1513.7,1297.6,1512.2,1298.9z" />
		<path class="st60" d="M1487.3,1326.5c0.9,0,1.8,0.1,2.7,0.1c-0.2,0.6-0.4,1.2-0.7,1.8c-0.6,1-1.4,2.8-2.6,2
		C1484.9,1329.2,1485.9,1327.7,1487.3,1326.5z" />
		<path class="st61"
			d="M1517.9,1314.9c-0.1-0.7-0.1-1.3,0-2c1.6-0.3,2.3,0.5,1.9,1.9C1519.4,1315.9,1518.6,1316,1517.9,1314.9z" />
		<path class="st61" d="M1516.1,1312.6c-1.4-0.2-1.9-1.1-1.9-2.4C1514.9,1311,1515.5,1311.8,1516.1,1312.6z" />
		<path class="st54" d="M1565.8,1336.7c-1.3-0.6-1.5-1.3-0.1-2.1C1565.7,1335.3,1565.8,1336,1565.8,1336.7z" />
		<path class="st62" d="M1220.1,1362.6c-4.8,0-9.5-0.1-14.3-0.1c-3.9,1.2-2-3.1-3.7-3.9c-3.1-1.8-4.8-4.7-6.2-7.8
		c-1.6-2.9-1-5.9-0.2-8.8c1.3-6.9,1.3-6.9-2.4-13.3c5,2.9,8.4,2.1,12.1,0c3.5-1.9,7.1-3.1,7.5-8.2c0.3,7.7,7.8,6.8,11.1,10.5
		c1.4,1.3,5.4-0.1,4.2,4c1.8,3.4,2.7,7.1,2.2,11c0.5,1.6,0.8,3.2-0.5,4.7c-1.2,4.7-7.2,6.6-7.3,12
		C1221.8,1363.5,1221,1363.5,1220.1,1362.6z" />
		<path class="st63" d="M1189.6,1281.9c-0.7-3.9,0.6-7.3,2.1-10.8c-0.6-1.2-0.5-2.4,0.4-3.4c5.7-2.1,12.8-2.1,14.8-11.2
		c2.4,8.2,8.8,9.5,15,11.2c0.7,0.4,1.2,1,1.4,1.8c-0.2,1.2-0.1,2.4,0.6,3.4l-0.1,0c0.2,1.8,0.3,3.6,0.5,5.4c1,2.9,1.4,5.7-0.2,8.5
		c-1.2,4.7-6.5,6.9-7.4,11.8c-0.8,0.9-1.7,0.9-2.6,0.1l0-0.1c-1.6-1.3-4.2-0.7-5.3-2.8c-1.2-2.2-2.4-2-3.5,0.1
		c-1.1,2.1-3.7,1.4-5.2,2.8l0.1,0.1c-0.9,0.9-1.7,0.9-2.5-0.1c-1.2-4.8-6.4-6.9-7.7-11.7C1188.7,1285.3,1188.8,1283.6,1189.6,1281.9
		z" />
		<path class="st62" d="M1284,1314.6c-2.7,3.3-5.5,6.7-8.2,10c-1.5,2.1-4.1,0.3-5.8,1.7c-2,0.7-4,0.8-6,0.2c-0.5-0.4-0.7-0.8-0.5-1.2
		c0.2-0.4,0.3-0.6,0.5-0.6c0.7-0.7,1.4-1.4,1.8-2.3c-0.9-0.5-0.4,0.5-0.8,0.7c-0.2,0.7-0.6,1.2-1.1,1.6c-1.1,1.2-2.8,0.7-3.9,1.7
		c-0.6,0.4-1.2,0.7-1.7,1.1c-1.8-1-0.5-3.9-2.9-4.5c-4.7-1.9-4.9-9.8-13.1-7.8c6.7-5,8.7-12.9,5.6-21.5c5.9,5.5,9.2-1.5,13.9-1.1
		c2.1-0.6,3.6-3,6.2-1.8l0,0.1c0.8,0.6,1.5,1.4,2.6,1.6c3.2,0,5.5,1.7,7.6,3.9c1.6,1.1,2.9,2.4,3.5,4.3c0.5,0.4,0.7,1,0.6,1.7
		c0.9,1.8,1.1,3.5-0.7,4.8c-1,0.7-2.2-1.1-3.1,0.3c0.6,0.3,1.2,0.5,1.9,0.5c2,0,2.7,1.5,3.7,2.7c0.4,0.3,0.6,0.8,0.4,1.3
		C1285.2,1312.9,1285.1,1313.8,1284,1314.6z" />
		<path class="st64" d="M1210,1294.6c1.4,1.3,2.7,2.6,4.1,3.9c-4.7,0-9.4,0-14.1,0.1c1.4-1.3,2.7-2.7,4.1-4
		C1206,1293,1208,1293,1210,1294.6z" />
		<path class="st65" d="M1267.9,1290.7c-2,0.8-3.8,2.4-6.2,1.8c0.8-0.9,1.9-1.8,2.4-2.9c0.7-1.5,0.1-4.6,2.7-4
		C1268.6,1286.1,1267.8,1288.9,1267.9,1290.7z" />
		<path class="st66"
			d="M1228.2,1334.9c-1.4-1.3-2.8-2.6-4.2-4c2.6,0.5,4.8-1,7.3-2.4C1232.5,1332.4,1229.4,1333.2,1228.2,1334.9z" />
		<path class="st52"
			d="M1281.6,1300.6c-1.7-0.9-3-2.3-3.5-4.3c2-0.7,4-1.4,7.1-2.5C1283.7,1296.7,1282.6,1298.6,1281.6,1300.6z" />
		<path class="st67"
			d="M1224,1286.8c0.1-2.8,0.1-5.7,0.2-8.5c0.9,3.3,2.3,6.2,6.1,7.5C1227.9,1287.6,1225.9,1286.5,1224,1286.8z" />
		<path class="st68" d="M1195.7,1342c0.1,2.9,0.2,5.9,0.2,8.8c-0.3,0-0.6,0-0.9-0.1c-1.5-0.6-4,1.5-4.5-1.2c-0.2-0.7,1.9-1.9,3-2.9
		C1194.2,1345.1,1194.9,1343.5,1195.7,1342z" />
		<path class="st69" d="M1270,1326.3c1.5-2,3.8-1.5,5.8-1.7c0.3,0.9,0.6,1.9,0.9,2.8c0.3,0.9,1,1.9,0.1,2.6c-1.4,1.1-2.4,0.3-3-1.1
		C1273.1,1327.1,1271.5,1326.8,1270,1326.3z" />
		<path class="st69" d="M1255.3,1323c2.4,0.6,2.8,2.5,2.9,4.5c0.1,1.4-0.1,2.9-1.6,3c-1.9,0.1-1.7-1.4-1.2-2.7
		C1256.2,1326.1,1255.8,1324.5,1255.3,1323z" />
		<path class="st70" d="M1189.6,1281.9c0.1,1.7,0.2,3.4,0.3,5.1c-0.9,0.1-1.9,0.1-2.8,0.2c-1.2,0.1-2.6,0.8-2.9-1.1
		c-0.2-1.2,0.9-1.4,1.8-1.7c0.9-0.2,1.7-0.7,1.9-1.7C1188.4,1282.4,1189,1282.1,1189.6,1281.9z" />
		<path class="st71" d="M1280.3,1306.6c1.5-1.1,1.5-2.7,1.8-4.3c2.4,2.4,2,5.4,1.8,8.4c-1.2-0.7-2.5-1.3-3.7-2
		c-0.5-0.5-0.7-1-0.5-1.4C1279.9,1306.8,1280.1,1306.6,1280.3,1306.6z" />
		<path class="st72"
			d="M1229.9,1350.6c0.2-1.6,0.3-3.1,0.5-4.7c1.8,1.1,3.6,2.2,5.9,3.6C1234,1351.5,1231.8,1350.3,1229.9,1350.6z" />
		<path class="st71"
			d="M1284,1314.6c0.1-0.9,0.2-1.8,0.4-2.7c1.7,0.5,3.8,0,4.9,2.1C1287.7,1315.7,1285.8,1314.8,1284,1314.6z" />
		<path class="st73"
			d="M1220.1,1362.6c0.9,0,1.7,0,2.6,0c1.9,0.8,1.4,2.4,1.1,3.8C1221.4,1366.3,1220.3,1364.8,1220.1,1362.6z" />
		<path class="st74" d="M1197.5,1298.6c0.8,0,1.7,0.1,2.5,0.1c-0.2,0.6-0.3,1.3-0.6,1.8c-0.6,1.1-1.5,2.7-2.7,1.8
		C1194.9,1301,1196.1,1299.6,1197.5,1298.6z" />
		<path class="st75"
			d="M1214,1298.6c0.9,0,1.7,0,2.6-0.1c1.5,1,2.5,3,0.7,3.6C1215.1,1303,1214.6,1300.3,1214,1298.6z" />
		<path class="st69"
			d="M1260,1326.4c0.9-1.6,2.5-1.7,4-1.7l0,0c0,0.6,0,1.3,0.1,1.9C1262.7,1326.5,1261.3,1326.4,1260,1326.4z" />
		<path class="st65" d="M1270.5,1292.4c-1.3,0.1-2.1-0.4-2.6-1.6C1268.8,1291.3,1269.6,1291.9,1270.5,1292.4z" />
		<path class="st76" d="M1192.1,1267.7c-0.1,1.1-0.3,2.3-0.4,3.4c-0.8-0.6-1.5-1.3-2.3-1.9c-1.1-0.9-2.2-2.3-0.9-3.2
		C1190,1264.7,1191.3,1266.1,1192.1,1267.7z" />
		<path class="st77" d="M1222.3,1271.1c-0.2-1.2-0.3-2.3-0.5-3.5c0.7-1.7,2.3-2.3,3.9-2.9c1.5,1.2,1.4,2.5,0.4,4l-0.1,0.1
		c-0.7,0.6-1.4,1.2-2,1.9l0,0l-0.7,0.6L1222.3,1271.1z" />
		<path class="st12" d="M1226.1,1268.7c-0.1-1.3-0.3-2.6-0.4-4C1228,1265.8,1228.1,1267.1,1226.1,1268.7z" />
		<path class="st12" d="M1222.3,1271.1c0.5-0.2,1.1-0.3,1.7-0.4c-0.1,0.7-0.1,1.5-0.2,2.2C1223.3,1272.3,1222.8,1271.7,1222.3,1271.1
		z" />
		<path class="st12" d="M1224,1270.7c0.1-1.2,0.9-1.7,2-1.9C1225.4,1269.4,1224.7,1270,1224,1270.7z" />
		<path class="st78" d="M1548.1,1272.6c-1.5-1.4-3.1-2.8-4.6-4.3c2.5-3.6,6.8-4,10.4-5.8c1.4-1.1,2.7-1.1,4,0.1
		c3.6,1.8,7.9,2.2,10.5,5.7c-1.5,1.4-3,2.8-4.5,4.1c-2.1-2.1-4.2-1.3-6.2,0.1c-1.1-0.7-2.2-1.3-3.3-2
		C1551.9,1270.2,1549.9,1271.1,1548.1,1272.6z" />
		<path class="st79" d="M1557.9,1262.7c-1.3,0-2.7-0.1-4-0.1c0-0.7,0-1.3,0.1-2c0-1.3,0-3.2,1.3-3.3c2.2-0.3,2.3,1.8,2.4,3.4
		C1557.7,1261.4,1557.8,1262,1557.9,1262.7z" />
		<path class="st80" d="M1202.1,1358.6c2.2,0.4,2,3,3.7,3.9c-0.5,1.5-1,3.5-2.6,3.4c-2.5-0.2-1-2.3-1-3.6
		C1202.2,1361.1,1202.1,1359.8,1202.1,1358.6z" />
		<path class="st1" d="M1580.3,627.4c-0.1,17.8-13.9,31.4-31.8,31.4c-17.6,0-31.8-14.1-31.9-31.6c-0.1-17.6,15.2-32.7,32.6-32.2
		C1566.8,595.5,1580.5,609.7,1580.3,627.4z" />
		<path class="st1" d="M868.6,626.7c0.2,18-13.2,31.9-31,32.1C819.4,659,805,645,805.1,627c0.1-17.4,14.5-31.9,31.7-32
		C854.2,594.9,868.4,609.1,868.6,626.7z" />
		<path class="st81"
			d="M329.7,1039.4c12.8-8.5,25.8-12,39-14.7c4.9-1,9.8-1.5,14.8-2.1c2.9-0.3,4.3,1.1,3.9,4.1
		c-0.8,7.6-1.2,15.2-2.3,22.8c-1.1,7.9-5.8,10.6-13.6,7.7c-6.8-2.5-13.5-5.6-20.2-8.5C344.8,1045.9,338.1,1043,329.7,1039.4z" />
		<path class="st81" d="M496.8,1103.9c-10.3,15.2-23.2,23-37.3,29.2c-2.7,1.2-4.3,0.3-5.8-1.8c-5.5-8-11.2-15.8-16.4-23.9
		c-2.7-4.1-1.4-6.8,3.3-8.2c0.9-0.3,2-0.5,2.9-0.4C460.6,1100.4,477.7,1102.1,496.8,1103.9z" />
		<path class="st81" d="M298.1,1080.6c0.7-9.1,5-17.9,11.5-25.8c2.3-2.8,4.8-3,7.8-1.3c10.8,5.8,21.6,11.6,32.5,17.4
		c2.1,1.1,4.4,2.2,4.2,5c-0.2,3.2-2.9,4.2-5.6,4.7c-11.4,2-22.8,4-34.3,6c-2.9,0.5-5.9,1.1-8.8,1.6
		C298.6,1089.2,297.9,1088.5,298.1,1080.6z" />
		<path class="st81"
			d="M305.2,1105.1c10-3.4,19.1-2.2,27.9-3.9c6.5-1.3,13.2-1.5,19.8-2.1c2.6-0.3,5.3-0.5,7.9,0.5
		c3.7,1.5,5.4,4.2,3,7.8c-5.5,8.3-11.3,16.4-16.9,24.6c-1.3,1.9-2.9,2.3-5.1,1.4C327.6,1127.1,314.8,1119.3,305.2,1105.1z" />
		<path class="st82" d="M471.9,1039.2c-15.5,6.6-28.5,12.4-41.8,17.6c-9,3.5-13.3,0.6-14.1-8.8c-0.6-6.6-1.2-13.3-1.9-19.9
		c-0.4-3.5,0.4-5.9,4.7-5.4C436.6,1024.9,453.8,1029.2,471.9,1039.2z" />
		<path class="st82" d="M432.7,1141.2c-22.5,4.3-42.5,4.6-63.8-0.1c8.2-10.3,16.2-19,24.9-27.1c3.7-3.4,9.9-3.1,13.7,0.7
		C415.7,1122.8,423.4,1131.4,432.7,1141.2z" />
		<path class="st81" d="M502.4,1077.9c0.5,10.6-0.2,11.3-7.5,10c-13.1-2.3-26.1-4.6-39.2-7c-1.9-0.3-4-0.6-5.7-1.4
		c-4.1-1.9-4.5-5.1-0.5-7.4c11.5-6.6,23.3-12.7,35-19.1c3-1.6,5-0.4,6.9,1.9C497.6,1062.6,502,1070.9,502.4,1077.9z" />
		<path class="st83" d="M400.2,1073.2c5.1-0.8,9.6,0.7,13.6,4.2c4.9,4.3,4.1,10.5-1.9,13.1c-7.3,3.2-14.5,3.2-22.1,0.4
		c-3.8-1.4-4.9-4.1-5.9-7.3c-1.2-3.8,2-5.1,4.1-7C391.7,1073.6,395.7,1072.6,400.2,1073.2z" />
		<path class="st84" d="M1542.9,1341.8c-0.2,2.4-1.8,2.8-3.4,3c-1.8,0.2-3.3,0-3.3-2.4c0-1.8,0.6-3.6,2.4-3.8
		C1540.7,1338.4,1541.9,1340.4,1542.9,1341.8z" />
		<path class="st85" d="M1558.2,1334.4c-0.8,2.2-2.4,3.6-4.5,3.3c-2.1-0.3-1.7-2.5-1.7-4c0-1.8,0.8-3.4,3.1-2.4
		C1556.4,1332,1558.3,1332.3,1558.2,1334.4z" />
		<path class="st86" d="M1549.6,1352c2.8,1,3.8,2.8,3.6,4.8c-0.2,2.2-2.4,1.9-3.9,1.8c-1.2-0.1-2.9-0.2-2.6-2.2
		C1547,1354.3,1548.2,1352.9,1549.6,1352z" />
		<path class="st87" d="M1548.2,1334.4c-0.3,1.7-0.2,3.7-2.6,3.1c-1.9-0.5-4-1.7-3.6-3.9c0.3-1.4,2.3-2.4,4-2.5
		C1548.5,1330.9,1547.9,1333.1,1548.2,1334.4z" />
		<path class="st88" d="M1541.3,1354.6c-1.6-0.6-2.8-1.8-3.1-3.4c-0.4-2.3,1.5-2.4,3.1-2.6c1.8-0.2,3.2,0.4,2.8,2.6
		C1543.9,1352.8,1543.3,1354.3,1541.3,1354.6z" />
		<path class="st89" d="M1561.9,1349.7c-0.2,2.6-1,4-2.6,4.6c-2.1,0.7-2.8-0.9-3.2-2.5c-0.5-1.7-0.4-3.2,2-3.3
		C1559.7,1348.5,1561,1349,1561.9,1349.7z" />
		<path class="st90" d="M1564.1,1340.6c-0.2,2.3,0,4.8-3.6,4.1c-1.3-0.3-2.9-0.8-2.6-2.2c0.5-3.1,2.6-4.2,5.6-3.7
		c0.7,0.2,1.1,0.5,1,1C1564.4,1340.4,1564.3,1340.6,1564.1,1340.6z" />
		<path class="st91" d="M1551.8,1344.2c0.2,1.2-0.5,1.7-1.5,2c-1.2,0.3-1.7-0.6-2-1.5c-0.4-1.3,0.6-1.6,1.5-1.9
		C1551,1342.5,1551.5,1343.2,1551.8,1344.2z" />
		<path class="st92" d="M1564.1,1340.6c-0.5-0.5-0.7-1.1-0.6-1.8c0.9-0.1,1.8-0.2,2.6-0.3c0,0,0-0.1,0-0.1
		C1565.4,1339.2,1564.8,1339.9,1564.1,1340.6z" />
		<path class="st93"
			d="M1548.1,1272.6c-1-2.8,0.5-4.1,2.8-4.9c2.9-1.1,2.9,1.3,3.5,3C1553.7,1276,1550.8,1273.9,1548.1,1272.6z" />
		<path class="st94" d="M1559,1292.3c0.4,2.5-1.5,2.5-3,2.5c-1.5,0-3.6,0.3-3.4-2.2c0.1-1.7,1.1-3.5,2.6-3.9
		C1557.7,1288,1558.2,1290.4,1559,1292.3z" />
		<path class="st95"
			d="M1557.6,1272.7c0.9-1.7-1.1-5.1,2.3-5c2.5,0,4.9,1.4,3.9,4.9C1561.8,1272.8,1559.7,1276.3,1557.6,1272.7z" />
		<path class="st96" d="M1548.2,1278.2c0.1,2.2-1.6,2.5-3.2,2.7c-2,0.3-3-0.8-2.8-2.7c0.1-1.7,0.9-3.5,2.8-3.3
		C1546.4,1275.2,1547.6,1276.6,1548.2,1278.2z" />
		<path class="st97" d="M1550.2,1286.1c-0.3,2.3-0.5,4.1-2.4,4.5c-1.9,0.4-2.9-1.1-3.5-2.6c-0.7-2,0.5-2.8,2.3-3.2
		C1548.3,1284.5,1549.5,1285.1,1550.2,1286.1z" />
		<path class="st98" d="M1564,1290.8c-1.8-0.3-2.2-2-2.3-3.6c-0.2-2.2,1.3-2.7,3.1-2.4c1.7,0.3,3.4,0.8,2.8,3
		C1567.2,1289.4,1566.1,1290.7,1564,1290.8z" />
		<path class="st99" d="M1566.6,1275.1c2-0.1,2.7,1.3,3,2.9c0.4,1.9-0.4,3.1-2.4,3c-1.5-0.1-3.4-0.2-3.4-2.4
		C1563.7,1276.8,1565.3,1276,1566.6,1275.1z" />
		<path class="st100" d="M1554.5,1282.1c0.1,0-0.7-0.4-0.4-1.6c0.3-0.9,0.7-1.8,1.9-1.5c1,0.3,1.8,0.8,1.5,2
		C1557.4,1282,1556.8,1282.7,1554.5,1282.1z" />
		<path class="st101" d="M1489.6,1307.2c-0.8,1.8-2.5,2-4,2.1c-2,0.2-2.9-1.1-2.4-3.1c0.4-1.4,0.3-3.7,2.7-3.1
		C1487.8,1303.7,1489.2,1305.1,1489.6,1307.2z" />
		<path class="st102" d="M1491.2,1315.5c-1,1.3-0.4,4.2-3.3,3.5c-1.6-0.4-3-1.8-3-3.5c0.1-2.6,2.4-2.6,4.3-2.6
		C1490.8,1312.9,1491.5,1313.9,1491.2,1315.5z" />
		<path class="st103" d="M1508.9,1315.2c-0.5,1.8-1.3,3.4-2.9,3.9c-2.8,0.9-2.8-1.9-3.5-3.4c-0.6-1.4-0.1-2.6,1.6-2.7
		C1506.2,1312.8,1508,1313.2,1508.9,1315.2z" />
		<path class="st104" d="M1501.8,1295.5c1.4,1.1,2.7,2.3,4.1,3.4c-0.7,0.8-1.3,1.6-2,2.4c-0.8,0.3-1.4,0.7-1.9,1.4l0,0
		c-0.7,0.5-1.3,0.5-2.1,0.1l-0.1-0.1c-0.6-0.9-1.4-1.7-1.6-2.9C1498.8,1297.8,1498.6,1295.3,1501.8,1295.5z" />
		<path class="st105" d="M1508,1302.5c3.2,2.1,2.9,4.8,1.4,7.8c-1.7-0.6-3.5-1.2-5.2-1.7c-0.5-0.3-0.7-0.7-0.7-1.2
		c0-0.5,0.1-0.7,0.2-0.7C1505.1,1305.3,1506.6,1303.9,1508,1302.5z" />
		<path class="st106" d="M1491.9,1302c-1-1-3.2-1.2-3-3.2c0.2-2.4,2.5-3.1,4.3-2.8c1.9,0.4,1.6,2.4,1.4,4
		C1494.3,1301.6,1493.6,1302.3,1491.9,1302z" />
		<path class="st107" d="M1499.7,1320.3c0.2,1.7-0.7,2.4-2.2,2.4c-1.5,0-3.6,0.4-3.5-2.1c0-1.8,1-3.6,2.7-3.7
		C1498.4,1316.8,1499.2,1318.8,1499.7,1320.3z" />
		<path class="st108" d="M1496.1,1307.5c1.5-0.4,1.9,0.5,2,1.4c0.1,0.5-0.4,1.4-0.6,1.4c-0.8-0.1-1.6-0.4-2.4-0.6
		C1495.5,1308.9,1495.9,1308.1,1496.1,1307.5z" />
		<path class="st53" d="M1503.7,1306.7c0.1,0.6,0.3,1.3,0.5,1.9c-0.4-0.4-0.8-0.8-1.1-1.2C1503.1,1307.3,1503.5,1306.9,1503.7,1306.7
		z" />
		<path class="st53" d="M1498.2,1299.8c0.5,1,1.1,1.9,1.6,2.9C1498.7,1302,1498.2,1301,1498.2,1299.8z" />
		<path class="st53" d="M1502,1302.7c0.6-0.5,1.3-0.9,1.9-1.4C1503.3,1301.7,1502.6,1302.2,1502,1302.7z" />
		<path class="st53" d="M1499.9,1302.8c0.7,0,1.4-0.1,2.1-0.1C1501.4,1304,1500.7,1304.1,1499.9,1302.8z" />
		<path class="st109" d="M1201.8,1338.6c2,1,3.9,2,3.4,4.3c-0.4,1.9-2.5,2-4,2c-2,0-3-1.2-2.2-3.2
		C1199.5,1340.3,1199.6,1338.3,1201.8,1338.6z" />
		<path class="st110" d="M1221.2,1333.6c-1,2.7-2.6,4.1-4.5,3.9c-1.7-0.2-2.1-2.3-2-3.9c0-1.9,1.1-3.1,3.1-2.2
		C1219.1,1332,1220.2,1332.9,1221.2,1333.6z" />
		<path class="st111" d="M1215.9,1355.8c0.3,2.5-1.4,2.7-3.1,2.7c-1.7,0-3.4-0.3-3-2.7c0.2-1.7,1-3.5,2.6-3.7
		C1214.9,1351.8,1215.3,1354.2,1215.9,1355.8z" />
		<path class="st112" d="M1204.5,1354.8c-2.2-0.5-3.6-2-3.8-4.1c-0.1-2.4,2.2-2,3.6-2.2c1.3-0.2,3,0,2.9,1.6
		C1207.2,1352,1206.7,1354,1204.5,1354.8z" />
		<path class="st113" d="M1210.7,1334.5c-0.3,1.6-0.3,3.7-2.6,3.1c-1.8-0.5-4-1.7-3.5-3.9c0.2-1.1,2.4-2.1,3.9-2.4
		C1210.8,1330.9,1210.4,1333.1,1210.7,1334.5z" />
		<path class="st114" d="M1222.1,1354.6c-2.6,0.3-2.9-1.7-3.5-3c-1-2.1,0.2-3.1,2.2-3.2c1.5,0,3.7-0.4,4.1,1.6
		C1225.3,1352.2,1223.6,1353.6,1222.1,1354.6z" />
		<path class="st115" d="M1223.7,1339c1.7-0.1,2.1,1,2.3,2.3c0.3,1.7,0.3,3.4-2.1,3.3c-1.6-0.1-3.6-0.2-3.5-2.4
		C1220.6,1340.5,1222.2,1339.5,1223.7,1339z" />
		<path class="st116" d="M1214.2,1344.7c-0.3,0.9-0.8,1.9-1.8,1.2c-0.6-0.4-0.8-1.5-1.2-2.2c0.5-0.3,1.1-0.7,1.6-0.7
		C1213.8,1342.9,1214.3,1343.6,1214.2,1344.7z" />
		<path class="st117" d="M1201.5,1286.5c-0.4,2-0.9,4.4-2.7,4.7c-1.9,0.3-3.3-1.7-3.8-3.6c-0.6-2.4,1.3-2.6,2.8-2.7
		C1199.3,1284.7,1201.1,1284.3,1201.5,1286.5z" />
		<path class="st118" d="M1215.5,1284.8c1.9,0.2,3.8,0.5,3.3,2.7c-0.3,1.5-1.5,3.1-3.3,3.2c-2.1,0.1-2.4-2-2.8-3.3
		C1212.2,1285.1,1214,1284.8,1215.5,1284.8z" />
		<path class="st119" d="M1215.2,1270.1c-0.1,2.5-2,3.3-3.8,3.9c-1.6,0.5-2.1-1-2.3-2.3c-0.3-1.6-0.6-3.6,1.3-4.1
		C1212.4,1267.1,1214,1268.4,1215.2,1270.1z" />
		<path class="st120" d="M1204.9,1270.3c-0.3,1.5-0.2,3.8-2.1,3.8c-1.7-0.1-3.9-1.1-4-3.4c-0.1-2,1.9-2.4,3.3-2.9
		C1204.5,1266.8,1204.7,1268.6,1204.9,1270.3z" />
		<path class="st121" d="M1199.5,1279c-0.7,2-2.6,2-4.1,2c-2.3,0-2.4-1.7-2-3.5c0.3-1.2,0.5-2.9,2.3-2.5
		C1197.7,1275.5,1199.3,1276.7,1199.5,1279z" />
		<path class="st122" d="M1218,1281.1c-1.2-0.6-3.6,0.1-3.5-2.3c0.1-2.2,1.9-3.6,4-3.7c1.5-0.1,1.8,1.6,2.1,2.9
		C1221,1279.9,1220.3,1281,1218,1281.1z" />
		<path class="st123"
			d="M1210,1294.6c-2,0-4,0-5.9,0c-0.4-2.9,0.4-5.7,3.4-5.6C1209.7,1289.1,1210.5,1292,1210,1294.6z" />
		<path class="st124" d="M1208.2,1280.3c0.3,1.2-0.4,1.8-1.3,2.1c-0.3,0.1-1-0.7-1.2-1.2c-0.3-1,0.4-1.7,1.3-2.1
		C1207.2,1279,1207.8,1279.9,1208.2,1280.3z" />
		<path class="st125" d="M1280.3,1306.6c0,0.7-0.1,1.4-0.1,2.1c-0.7,0.9-1.6,1.3-2.6,0.9c-1.6-0.7-4.4,0-4.3-2.9
		c0.1-1.7,1.7-3,3.2-3.5C1279.4,1302.3,1279.6,1304.9,1280.3,1306.6z" />
		<path class="st126" d="M1259.3,1307.5c-2.5,1.4-4.8,3.6-6.9,1.1c-1.2-1.4-0.5-4.2,1.4-5C1257.3,1302.1,1257.6,1305.7,1259.3,1307.5
		z" />
		<path class="st127" d="M1274,1299.4c-0.9,1.3-2.1,2.7-3.8,2.6c-2.9-0.3-2-2.8-1.9-4.5c0.1-1.8,1.3-1.8,2.8-1.3
		C1272.6,1296.7,1274,1297.4,1274,1299.4z" />
		<path class="st128" d="M1262,1302.4c-2-0.7-4-1.3-4-3.7c0-2,2-2.4,3.5-2.8c2.5-0.6,2.5,1.4,2.5,2.9
		C1264.1,1300.3,1264.3,1302.2,1262,1302.4z" />
		<path class="st129" d="M1263.9,1323c-2.5-2.4-0.3-4.1,1.1-5.8c0.6-0.7,1.9-0.9,2.6,0.1c1.1,1.8,3.6,3.5,0.5,5.7
		C1266.6,1323.7,1265.3,1323.8,1263.9,1323z" />
		<path class="st130" d="M1277.9,1315.4c-0.3,1.8-1.5,3.2-3.1,3.4c-1.8,0.2-2.7-1.6-2.8-3.3c-0.1-1.4,0.4-2.6,2.2-2.5
		C1275.9,1313.1,1277.4,1313.4,1277.9,1315.4z" />
		<path class="st131" d="M1258,1313c0.9,0,2.1,0.4,2.1,2.1c0,1.7-0.3,3.5-2.4,3.8c-1.9,0.2-3.2-1.4-3.4-2.9
		C1254,1313.9,1255.7,1313.3,1258,1313z" />
		<path class="st132" d="M1267.8,1308.7c0.4,1.3-0.5,1.7-1.5,1.9c-1.1,0.2-1.8-0.4-2-1.4c-0.2-1.1,0.5-1.7,1.5-2
		C1267.1,1306.9,1267.4,1307.8,1267.8,1308.7z" />
		<path class="st69"
			d="M1263.9,1323c1.4,0,2.7,0,4.1,0.1c-1,1.4-2.5,1.6-4,1.6c0,0,0,0,0,0C1264,1324.1,1263.9,1323.6,1263.9,1323z" />
	</g>
</svg>