<svg width="359" height="988" viewBox="0 0 359 988" fill="none" xmlns="http://www.w3.org/2000/svg">
<rect y="248.514" width="840" height="797" rx="30" transform="rotate(-21.9885 0 248.514)" fill="url(#paint0_linear)"/>
<g opacity="0.8">
<path opacity="0.8" d="M140.807 233.052L106.565 246.885L113.229 263.38L147.47 249.547L140.807 233.052Z" fill="white"/>
<path opacity="0.8" d="M166.37 287.361L163.61 280.527C160.429 272.655 151.232 268.95 143.073 272.247L87.8118 294.571L85.9952 290.074L65.7637 298.247L73.6296 317.718L143.67 289.423L146.139 295.534L166.37 287.361Z" fill="white"/>
<path opacity="0.6" d="M83.8189 284.687L80.5452 276.584L107.638 265.639L100.974 249.144L53.6501 268.262L63.5874 292.86L83.8189 284.687Z" fill="white"/>
<path opacity="0.6" d="M148.281 300.837L152.169 310.462L125.076 321.407L131.74 337.901L165.119 324.417C168.767 323.01 171.707 320.214 173.297 316.643C174.887 313.071 174.996 309.015 173.6 305.363L168.476 292.679L148.281 300.837Z" fill="white"/>
<path opacity="0.8" d="M97.2091 322.505L100.738 331.239L119.486 323.665L126.149 340.16L102.042 349.899C98.4406 351.42 94.3832 351.451 90.7588 349.986C87.1344 348.521 84.2387 345.679 82.7064 342.082L77.9419 330.288L97.2091 322.505Z" fill="white"/>
</g>
<rect x="63" y="118.829" width="840" height="797" rx="30" transform="rotate(-16.9456 63 118.829)" fill="url(#paint1_linear)"/>
<g opacity="0.8">
<path opacity="0.8" d="M201.176 111.027L166.014 122.316L171.452 139.255L206.614 127.965L201.176 111.027Z" fill="white"/>
<path opacity="0.8" d="M222.696 167.06L220.443 160.043C217.848 151.959 208.946 147.591 200.567 150.282L143.821 168.502L142.338 163.884L121.563 170.555L127.983 190.549L199.906 167.456L201.921 173.731L222.696 167.06Z" fill="white"/>
<path opacity="0.6" d="M140.562 158.353L137.89 150.031L165.711 141.099L160.272 124.16L111.676 139.764L119.786 165.024L140.562 158.353Z" fill="white"/>
<path opacity="0.6" d="M203.669 179.178L206.842 189.061L179.021 197.993L184.46 214.932L218.736 203.926C222.477 202.79 225.615 200.217 227.461 196.771C229.308 193.326 229.713 189.288 228.589 185.544L224.407 172.519L203.669 179.178Z" fill="white"/>
<path opacity="0.8" d="M151.148 197.049L154.028 206.018L173.28 199.836L178.719 216.775L153.963 224.723C150.261 225.977 146.212 225.711 142.704 223.985C139.197 222.258 136.517 219.211 135.252 215.512L131.363 203.401L151.148 197.049Z" fill="white"/>
</g>
<defs>
<linearGradient id="paint0_linear" x1="-196.585" y1="314.71" x2="420" y2="1045.51" gradientUnits="userSpaceOnUse">
<stop stop-color="#3C494F"/>
<stop offset="0.226744" stop-color="#00B39F"/>
<stop offset="0.715361" stop-color="#00D3A9"/>
</linearGradient>
<linearGradient id="paint1_linear" x1="908.542" y1="188.677" x2="57.9413" y2="241.111" gradientUnits="userSpaceOnUse">
<stop offset="0.419934" stop-color="#00B39F"/>
<stop offset="0.775241" stop-color="#477E96"/>
<stop offset="0.96875" stop-color="#3C494F"/>
</linearGradient>
</defs>
</svg>
