<svg width="391.1" height="600" xmlns="http://www.w3.org/2000/svg" style="background-color:#e6e6e6;">
 <style type="text/css">.st0{fill:#D3002D;}</style>

 <g>
  <title>O'Reilly</title>
  <g id="svg_12">
   <polygon id="svg_1" points="201.23086547851562,264.61175537109375 201.23086547851562,256.4837341308594 170.69656372070312,256.4837341308594 170.69656372070312,305.4840393066406 201.23086547851562,305.4840393066406 201.23086547851562,297.35601806640625 178.03587341308594,297.35601806640625 178.03587341308594,285.0478820800781 200.05380249023438,285.0478820800781 200.05380249023438,276.9198913574219 178.03587341308594,276.9198913574219 178.03587341308594,264.61175537109375 " class="st0"/>
   <polygon id="svg_2" points="223.80270385742188,305.4840393066406 223.80270385742188,256.4837341308594 231.1420135498047,256.4837341308594 231.1420135498047,297.35601806640625 252.25982666015625,297.35601806640625 252.25982666015625,305.4840393066406 " class="st0"/>
   <polygon id="svg_3" points="258.2143859863281,305.4840393066406 258.2143859863281,256.4837341308594 265.4844665527344,256.4837341308594 265.4844665527344,297.35601806640625 286.602294921875,297.35601806640625 286.602294921875,305.4840393066406 " class="st0"/>
   <rect id="svg_4" height="49.0003" width="7.33931" class="st0" y="256.48374" x="208.84713"/>
   <path id="svg_5" d="m79.43983,268.94669c-2.83879,3.1738 -4.56976,7.50873 -4.56976,12.30813c0,4.7994 1.73097,9.13434 4.56976,12.30813c2.83879,3.1738 6.71616,5.10904 11.00897,5.10904c4.29281,0 8.17018,-1.93524 11.00897,-5.10904c2.76955,-3.2512 4.50052,-7.50873 4.50052,-12.30813c0,-4.7994 -1.73097,-9.13434 -4.56976,-12.30813c-2.83879,-3.1738 -6.71616,-5.10904 -11.00897,-5.10904c-4.29281,0 -8.10094,1.93524 -10.93973,5.10904m-11.83983,12.30813c0,-14.08855 10.24734,-25.54518 22.8488,-25.54518c12.60146,0 22.8488,11.45663 22.8488,25.54518c0,14.08855 -10.24734,25.54518 -22.8488,25.54518c-12.6707,-0.07741 -22.8488,-11.45663 -22.8488,-25.54518" class="st0"/>
   <path id="svg_6" d="m135.86944,276.91988l0,-12.30813l14.74786,0c3.04651,0 5.46986,2.70934 5.46986,6.11536c0,3.40602 -2.42336,6.11536 -5.46986,6.11536l-14.74786,0l0,0.07741zm18.34828,7.58614c5.26215,-1.78042 9.13952,-7.1991 9.13952,-13.70151c0,-7.89578 -5.74682,-14.32078 -12.80918,-14.32078l-22.01794,0l0,49.0003l7.33931,0l0,-20.43614l10.1781,0l11.00897,20.43614l8.51637,0l-11.35516,-20.97801z" class="st0"/>
   <path id="svg_7" d="m123.33722,261.67018c0,3.32861 -2.42336,6.03795 -5.40063,6.03795c-2.97727,0 -5.40063,-2.70934 -5.40063,-6.03795c0,-3.32861 2.42336,-6.03795 5.40063,-6.03795c3.04651,0.07741 5.40063,2.70934 5.40063,6.03795" class="st0"/>
   <polygon id="svg_8" points="319.14453125,256.4837341308594 310.2819519042969,256.4837341308594 299.0652770996094,274.67498779296875 287.77935791015625,256.4837341308594 278.9167785644531,256.4837341308594 295.3956298828125,283.1126403808594 295.3956298828125,305.4840393066406 302.66571044921875,305.4840393066406 302.66571044921875,283.1900634765625 " class="st0"/>
   <g id="svg_9">
    <path id="svg_10" d="m327.79938,266.54699c-2.4926,0 -4.56976,-2.24488 -4.56976,-5.10904c0,-2.78675 2.00792,-5.10904 4.56976,-5.10904c2.4926,0 4.56976,2.24488 4.56976,5.10904c0,2.78675 -2.00792,5.10904 -4.56976,5.10904m0,-11.14699c-2.97727,0 -5.40063,2.70934 -5.40063,6.03795c0,3.32861 2.42336,6.03795 5.40063,6.03795c2.97727,0 5.40063,-2.70934 5.40063,-6.03795c0,-3.32861 -2.42336,-6.03795 -5.40063,-6.03795" class="st0"/>
    <path id="svg_11" d="m326.48384,259.34789l2.1464,0c0.41543,0 0.69239,0.30964 0.69239,0.7741c0,0.46446 -0.27696,0.7741 -0.69239,0.7741l-2.1464,0l0,-1.54819zm3.73889,0.7741c0,-1.00633 -0.69239,-1.78042 -1.59249,-1.78042l-3.04651,0l0,6.19277l0.9001,0l0,-2.55452l1.52325,0l1.10782,2.55452l1.03858,0l-1.10782,-2.63193c0.69239,-0.23223 1.17706,-0.92892 1.17706,-1.78042" class="st0"/>
   </g>
  </g>
 </g>
</svg>