<svg xmlns="http://www.w3.org/2000/svg" width="391.1" height="600" style="background-color:#e6e6e6"><style type="text/css">.st0{fill:#d3002d}</style><g><title>O&apos;Reilly</title><g id="svg_12"><polygon id="svg_1" points="201.231 264.612 201.231 256.484 170.697 256.484 170.697 305.484 201.231 305.484 201.231 297.356 178.036 297.356 178.036 285.048 200.054 285.048 200.054 276.92 178.036 276.92 178.036 264.612" class="st0"/><polygon id="svg_2" points="223.803 305.484 223.803 256.484 231.142 256.484 231.142 297.356 252.26 297.356 252.26 305.484" class="st0"/><polygon id="svg_3" points="258.214 305.484 258.214 256.484 265.484 256.484 265.484 297.356 286.602 297.356 286.602 305.484" class="st0"/><rect id="svg_4" width="7.339" height="49" x="208.847" y="256.484" class="st0"/><path id="svg_5" d="m79.43983,268.94669c-2.83879,3.1738 -4.56976,7.50873 -4.56976,12.30813c0,4.7994 1.73097,9.13434 4.56976,12.30813c2.83879,3.1738 6.71616,5.10904 11.00897,5.10904c4.29281,0 8.17018,-1.93524 11.00897,-5.10904c2.76955,-3.2512 4.50052,-7.50873 4.50052,-12.30813c0,-4.7994 -1.73097,-9.13434 -4.56976,-12.30813c-2.83879,-3.1738 -6.71616,-5.10904 -11.00897,-5.10904c-4.29281,0 -8.10094,1.93524 -10.93973,5.10904m-11.83983,12.30813c0,-14.08855 10.24734,-25.54518 22.8488,-25.54518c12.60146,0 22.8488,11.45663 22.8488,25.54518c0,14.08855 -10.24734,25.54518 -22.8488,25.54518c-12.6707,-0.07741 -22.8488,-11.45663 -22.8488,-25.54518" class="st0"/><path id="svg_6" d="m135.86944,276.91988l0,-12.30813l14.74786,0c3.04651,0 5.46986,2.70934 5.46986,6.11536c0,3.40602 -2.42336,6.11536 -5.46986,6.11536l-14.74786,0l0,0.07741zm18.34828,7.58614c5.26215,-1.78042 9.13952,-7.1991 9.13952,-13.70151c0,-7.89578 -5.74682,-14.32078 -12.80918,-14.32078l-22.01794,0l0,49.0003l7.33931,0l0,-20.43614l10.1781,0l11.00897,20.43614l8.51637,0l-11.35516,-20.97801z" class="st0"/><path id="svg_7" d="m123.33722,261.67018c0,3.32861 -2.42336,6.03795 -5.40063,6.03795c-2.97727,0 -5.40063,-2.70934 -5.40063,-6.03795c0,-3.32861 2.42336,-6.03795 5.40063,-6.03795c3.04651,0.07741 5.40063,2.70934 5.40063,6.03795" class="st0"/><polygon id="svg_8" points="319.145 256.484 310.282 256.484 299.065 274.675 287.779 256.484 278.917 256.484 295.396 283.113 295.396 305.484 302.666 305.484 302.666 283.19" class="st0"/><g id="svg_9"><path id="svg_10" d="m327.79938,266.54699c-2.4926,0 -4.56976,-2.24488 -4.56976,-5.10904c0,-2.78675 2.00792,-5.10904 4.56976,-5.10904c2.4926,0 4.56976,2.24488 4.56976,5.10904c0,2.78675 -2.00792,5.10904 -4.56976,5.10904m0,-11.14699c-2.97727,0 -5.40063,2.70934 -5.40063,6.03795c0,3.32861 2.42336,6.03795 5.40063,6.03795c2.97727,0 5.40063,-2.70934 5.40063,-6.03795c0,-3.32861 -2.42336,-6.03795 -5.40063,-6.03795" class="st0"/><path id="svg_11" d="m326.48384,259.34789l2.1464,0c0.41543,0 0.69239,0.30964 0.69239,0.7741c0,0.46446 -0.27696,0.7741 -0.69239,0.7741l-2.1464,0l0,-1.54819zm3.73889,0.7741c0,-1.00633 -0.69239,-1.78042 -1.59249,-1.78042l-3.04651,0l0,6.19277l0.9001,0l0,-2.55452l1.52325,0l1.10782,2.55452l1.03858,0l-1.10782,-2.63193c0.69239,-0.23223 1.17706,-0.92892 1.17706,-1.78042" class="st0"/></g></g></g></svg>