<svg width="200" height="220" viewBox="0 0 200 220" fill="none" xmlns="http://www.w3.org/2000/svg">
<rect width="200" height="220" rx="15" fill="#1E2117"/>
<path d="M0 15C0 6.71573 6.71573 0 15 0H185C193.284 0 200 6.71573 200 15V110H0V15Z" fill="#00B39F"/>
<path d="M52.9697 147.581C52.9697 148.712 52.5596 149.594 51.7393 150.227C50.9189 150.859 49.8057 151.176 48.3994 151.176C46.876 151.176 45.7041 150.979 44.8838 150.587V149.146C45.4111 149.368 45.9854 149.544 46.6064 149.673C47.2275 149.802 47.8428 149.866 48.4521 149.866C49.4482 149.866 50.1982 149.679 50.7021 149.304C51.2061 148.923 51.458 148.396 51.458 147.722C51.458 147.276 51.3672 146.913 51.1855 146.632C51.0098 146.345 50.7109 146.081 50.2891 145.841C49.873 145.601 49.2373 145.328 48.3818 145.023C47.1865 144.596 46.3311 144.089 45.8154 143.503C45.3057 142.917 45.0508 142.152 45.0508 141.209C45.0508 140.219 45.4229 139.431 46.167 138.845C46.9111 138.259 47.8955 137.966 49.1201 137.966C50.3975 137.966 51.5723 138.2 52.6445 138.669L52.1787 139.97C51.1182 139.524 50.0869 139.302 49.085 139.302C48.2939 139.302 47.6758 139.472 47.2305 139.812C46.7852 140.151 46.5625 140.623 46.5625 141.227C46.5625 141.672 46.6445 142.038 46.8086 142.325C46.9727 142.606 47.248 142.867 47.6348 143.107C48.0273 143.342 48.625 143.603 49.4277 143.89C50.7754 144.37 51.7012 144.886 52.2051 145.437C52.7148 145.987 52.9697 146.702 52.9697 147.581ZM56.749 141.367V147.616C56.749 148.401 56.9277 148.987 57.2852 149.374C57.6426 149.761 58.2021 149.954 58.9639 149.954C59.9717 149.954 60.707 149.679 61.1699 149.128C61.6387 148.577 61.873 147.678 61.873 146.43V141.367H63.332V151H62.1279L61.917 149.708H61.8379C61.5391 150.183 61.123 150.546 60.5898 150.798C60.0625 151.05 59.459 151.176 58.7793 151.176C57.6074 151.176 56.7285 150.897 56.1426 150.341C55.5625 149.784 55.2725 148.894 55.2725 147.669V141.367H56.749ZM70.917 151.176C70.29 151.176 69.7158 151.062 69.1943 150.833C68.6787 150.599 68.2451 150.241 67.8936 149.761H67.7881C67.8584 150.323 67.8936 150.856 67.8936 151.36V155.324H66.4346V141.367H67.6211L67.8232 142.686H67.8936C68.2686 142.158 68.7051 141.777 69.2031 141.543C69.7012 141.309 70.2725 141.191 70.917 141.191C72.1943 141.191 73.1787 141.628 73.8701 142.501C74.5674 143.374 74.916 144.599 74.916 146.175C74.916 147.757 74.5615 148.987 73.8525 149.866C73.1494 150.739 72.1709 151.176 70.917 151.176ZM70.7061 142.431C69.7217 142.431 69.0098 142.703 68.5703 143.248C68.1309 143.793 67.9053 144.66 67.8936 145.85V146.175C67.8936 147.528 68.1191 148.498 68.5703 149.084C69.0215 149.664 69.7451 149.954 70.7412 149.954C71.5732 149.954 72.2236 149.617 72.6924 148.943C73.167 148.27 73.4043 147.341 73.4043 146.157C73.4043 144.956 73.167 144.036 72.6924 143.397C72.2236 142.753 71.5615 142.431 70.7061 142.431ZM81.9561 151.176C81.3291 151.176 80.7549 151.062 80.2334 150.833C79.7178 150.599 79.2842 150.241 78.9326 149.761H78.8271C78.8975 150.323 78.9326 150.856 78.9326 151.36V155.324H77.4736V141.367H78.6602L78.8623 142.686H78.9326C79.3076 142.158 79.7441 141.777 80.2422 141.543C80.7402 141.309 81.3115 141.191 81.9561 141.191C83.2334 141.191 84.2178 141.628 84.9092 142.501C85.6064 143.374 85.9551 144.599 85.9551 146.175C85.9551 147.757 85.6006 148.987 84.8916 149.866C84.1885 150.739 83.21 151.176 81.9561 151.176ZM81.7451 142.431C80.7607 142.431 80.0488 142.703 79.6094 143.248C79.1699 143.793 78.9443 144.66 78.9326 145.85V146.175C78.9326 147.528 79.1582 148.498 79.6094 149.084C80.0605 149.664 80.7842 149.954 81.7803 149.954C82.6123 149.954 83.2627 149.617 83.7314 148.943C84.2061 148.27 84.4434 147.341 84.4434 146.157C84.4434 144.956 84.2061 144.036 83.7314 143.397C83.2627 142.753 82.6006 142.431 81.7451 142.431ZM96.8271 146.175C96.8271 147.745 96.4316 148.973 95.6406 149.857C94.8496 150.736 93.7568 151.176 92.3623 151.176C91.501 151.176 90.7363 150.974 90.0684 150.569C89.4004 150.165 88.8848 149.585 88.5215 148.829C88.1582 148.073 87.9766 147.188 87.9766 146.175C87.9766 144.604 88.3691 143.383 89.1543 142.51C89.9395 141.631 91.0293 141.191 92.4238 141.191C93.7715 141.191 94.8408 141.64 95.6318 142.536C96.4287 143.433 96.8271 144.646 96.8271 146.175ZM89.4883 146.175C89.4883 147.405 89.7344 148.343 90.2266 148.987C90.7188 149.632 91.4424 149.954 92.3975 149.954C93.3525 149.954 94.0762 149.635 94.5684 148.996C95.0664 148.352 95.3154 147.411 95.3154 146.175C95.3154 144.95 95.0664 144.021 94.5684 143.389C94.0762 142.75 93.3467 142.431 92.3799 142.431C91.4248 142.431 90.7041 142.744 90.2178 143.371C89.7314 143.998 89.4883 144.933 89.4883 146.175ZM103.788 141.191C104.216 141.191 104.6 141.227 104.939 141.297L104.737 142.65C104.339 142.562 103.987 142.519 103.683 142.519C102.903 142.519 102.235 142.835 101.679 143.468C101.128 144.101 100.853 144.889 100.853 145.832V151H99.3936V141.367H100.598L100.765 143.151H100.835C101.192 142.524 101.623 142.041 102.127 141.701C102.631 141.361 103.185 141.191 103.788 141.191ZM109.853 149.972C110.11 149.972 110.359 149.954 110.6 149.919C110.84 149.878 111.03 149.837 111.171 149.796V150.912C111.013 150.988 110.778 151.05 110.468 151.097C110.163 151.149 109.888 151.176 109.642 151.176C107.778 151.176 106.847 150.194 106.847 148.231V142.501H105.467V141.798L106.847 141.191L107.462 139.135H108.306V141.367H111.101V142.501H108.306V148.17C108.306 148.75 108.443 149.195 108.719 149.506C108.994 149.816 109.372 149.972 109.853 149.972ZM122.122 142.501H119.67V151H118.211V142.501H116.488V141.842L118.211 141.314V140.778C118.211 138.411 119.245 137.228 121.313 137.228C121.823 137.228 122.421 137.33 123.106 137.535L122.729 138.704C122.166 138.522 121.686 138.432 121.287 138.432C120.736 138.432 120.329 138.616 120.065 138.985C119.802 139.349 119.67 139.935 119.67 140.743V141.367H122.122V142.501ZM132.194 146.175C132.194 147.745 131.799 148.973 131.008 149.857C130.217 150.736 129.124 151.176 127.729 151.176C126.868 151.176 126.104 150.974 125.436 150.569C124.768 150.165 124.252 149.585 123.889 148.829C123.525 148.073 123.344 147.188 123.344 146.175C123.344 144.604 123.736 143.383 124.521 142.51C125.307 141.631 126.396 141.191 127.791 141.191C129.139 141.191 130.208 141.64 130.999 142.536C131.796 143.433 132.194 144.646 132.194 146.175ZM124.855 146.175C124.855 147.405 125.102 148.343 125.594 148.987C126.086 149.632 126.81 149.954 127.765 149.954C128.72 149.954 129.443 149.635 129.936 148.996C130.434 148.352 130.683 147.411 130.683 146.175C130.683 144.95 130.434 144.021 129.936 143.389C129.443 142.75 128.714 142.431 127.747 142.431C126.792 142.431 126.071 142.744 125.585 143.371C125.099 143.998 124.855 144.933 124.855 146.175ZM139.155 141.191C139.583 141.191 139.967 141.227 140.307 141.297L140.104 142.65C139.706 142.562 139.354 142.519 139.05 142.519C138.271 142.519 137.603 142.835 137.046 143.468C136.495 144.101 136.22 144.889 136.22 145.832V151H134.761V141.367H135.965L136.132 143.151H136.202C136.56 142.524 136.99 142.041 137.494 141.701C137.998 141.361 138.552 141.191 139.155 141.191ZM41.1924 172H39.4873L32.4648 161.216H32.3945C32.4883 162.481 32.5352 163.642 32.5352 164.696V172H31.1553V159.15H32.8428L39.8477 169.891H39.918C39.9062 169.732 39.8799 169.226 39.8389 168.37C39.7979 167.509 39.7832 166.894 39.7949 166.524V159.15H41.1924V172ZM52.8203 167.175C52.8203 168.745 52.4248 169.973 51.6338 170.857C50.8428 171.736 49.75 172.176 48.3555 172.176C47.4941 172.176 46.7295 171.974 46.0615 171.569C45.3936 171.165 44.8779 170.585 44.5146 169.829C44.1514 169.073 43.9697 168.188 43.9697 167.175C43.9697 165.604 44.3623 164.383 45.1475 163.51C45.9326 162.631 47.0225 162.191 48.417 162.191C49.7646 162.191 50.834 162.64 51.625 163.536C52.4219 164.433 52.8203 165.646 52.8203 167.175ZM45.4814 167.175C45.4814 168.405 45.7275 169.343 46.2197 169.987C46.7119 170.632 47.4355 170.954 48.3906 170.954C49.3457 170.954 50.0693 170.635 50.5615 169.996C51.0596 169.352 51.3086 168.411 51.3086 167.175C51.3086 165.95 51.0596 165.021 50.5615 164.389C50.0693 163.75 49.3398 163.431 48.373 163.431C47.418 163.431 46.6973 163.744 46.2109 164.371C45.7246 164.998 45.4814 165.933 45.4814 167.175ZM61.9785 172V165.769C61.9785 164.983 61.7998 164.397 61.4424 164.011C61.085 163.624 60.5254 163.431 59.7637 163.431C58.7559 163.431 58.0176 163.703 57.5488 164.248C57.0801 164.793 56.8457 165.692 56.8457 166.946V172H55.3867V162.367H56.5732L56.8105 163.686H56.8809C57.1797 163.211 57.5986 162.845 58.1377 162.587C58.6768 162.323 59.2773 162.191 59.9395 162.191C61.0996 162.191 61.9727 162.473 62.5586 163.035C63.1445 163.592 63.4375 164.485 63.4375 165.716V172H61.9785ZM65.6348 167.843V166.507H69.9502V167.843H65.6348ZM73.6855 167.069C73.9375 166.712 74.3213 166.243 74.8369 165.663L77.9482 162.367H79.6797L75.7773 166.472L79.9521 172H78.1855L74.7842 167.447L73.6855 168.396V172H72.2441V158.324H73.6855V165.575C73.6855 165.897 73.6621 166.396 73.6152 167.069H73.6855ZM83.0723 162.367V168.616C83.0723 169.401 83.251 169.987 83.6084 170.374C83.9658 170.761 84.5254 170.954 85.2871 170.954C86.2949 170.954 87.0303 170.679 87.4932 170.128C87.9619 169.577 88.1963 168.678 88.1963 167.43V162.367H89.6553V172H88.4512L88.2402 170.708H88.1611C87.8623 171.183 87.4463 171.546 86.9131 171.798C86.3857 172.05 85.7822 172.176 85.1025 172.176C83.9307 172.176 83.0518 171.897 82.4658 171.341C81.8857 170.784 81.5957 169.894 81.5957 168.669V162.367H83.0723ZM97.2402 162.209C98.5059 162.209 99.4873 162.643 100.185 163.51C100.888 164.371 101.239 165.593 101.239 167.175C101.239 168.757 100.885 169.987 100.176 170.866C99.4727 171.739 98.4941 172.176 97.2402 172.176C96.6133 172.176 96.0391 172.062 95.5176 171.833C95.002 171.599 94.5684 171.241 94.2168 170.761H94.1113L93.8037 172H92.7578V158.324H94.2168V161.646C94.2168 162.391 94.1934 163.059 94.1465 163.65H94.2168C94.8965 162.689 95.9043 162.209 97.2402 162.209ZM97.0293 163.431C96.0332 163.431 95.3154 163.718 94.876 164.292C94.4365 164.86 94.2168 165.821 94.2168 167.175C94.2168 168.528 94.4424 169.498 94.8936 170.084C95.3447 170.664 96.0684 170.954 97.0645 170.954C97.9609 170.954 98.6289 170.629 99.0684 169.979C99.5078 169.322 99.7275 168.382 99.7275 167.157C99.7275 165.903 99.5078 164.969 99.0684 164.354C98.6289 163.738 97.9492 163.431 97.0293 163.431ZM107.866 172.176C106.442 172.176 105.317 171.742 104.491 170.875C103.671 170.008 103.261 168.804 103.261 167.263C103.261 165.71 103.642 164.477 104.403 163.562C105.171 162.648 106.199 162.191 107.488 162.191C108.695 162.191 109.65 162.59 110.354 163.387C111.057 164.178 111.408 165.224 111.408 166.524V167.447H104.772C104.802 168.578 105.086 169.437 105.625 170.022C106.17 170.608 106.935 170.901 107.919 170.901C108.956 170.901 109.981 170.685 110.995 170.251V171.552C110.479 171.774 109.99 171.933 109.527 172.026C109.07 172.126 108.517 172.176 107.866 172.176ZM107.471 163.413C106.697 163.413 106.079 163.665 105.616 164.169C105.159 164.673 104.89 165.37 104.808 166.261H109.844C109.844 165.341 109.639 164.638 109.229 164.151C108.818 163.659 108.232 163.413 107.471 163.413ZM118.299 162.191C118.727 162.191 119.11 162.227 119.45 162.297L119.248 163.65C118.85 163.562 118.498 163.519 118.193 163.519C117.414 163.519 116.746 163.835 116.189 164.468C115.639 165.101 115.363 165.889 115.363 166.832V172H113.904V162.367H115.108L115.275 164.151H115.346C115.703 163.524 116.134 163.041 116.638 162.701C117.142 162.361 117.695 162.191 118.299 162.191ZM127.844 172V165.769C127.844 164.983 127.665 164.397 127.308 164.011C126.95 163.624 126.391 163.431 125.629 163.431C124.621 163.431 123.883 163.703 123.414 164.248C122.945 164.793 122.711 165.692 122.711 166.946V172H121.252V162.367H122.438L122.676 163.686H122.746C123.045 163.211 123.464 162.845 124.003 162.587C124.542 162.323 125.143 162.191 125.805 162.191C126.965 162.191 127.838 162.473 128.424 163.035C129.01 163.592 129.303 164.485 129.303 165.716V172H127.844ZM136.378 172.176C134.954 172.176 133.829 171.742 133.003 170.875C132.183 170.008 131.772 168.804 131.772 167.263C131.772 165.71 132.153 164.477 132.915 163.562C133.683 162.648 134.711 162.191 136 162.191C137.207 162.191 138.162 162.59 138.865 163.387C139.568 164.178 139.92 165.224 139.92 166.524V167.447H133.284C133.313 168.578 133.598 169.437 134.137 170.022C134.682 170.608 135.446 170.901 136.431 170.901C137.468 170.901 138.493 170.685 139.507 170.251V171.552C138.991 171.774 138.502 171.933 138.039 172.026C137.582 172.126 137.028 172.176 136.378 172.176ZM135.982 163.413C135.209 163.413 134.591 163.665 134.128 164.169C133.671 164.673 133.401 165.37 133.319 166.261H138.355C138.355 165.341 138.15 164.638 137.74 164.151C137.33 163.659 136.744 163.413 135.982 163.413ZM145.527 170.972C145.785 170.972 146.034 170.954 146.274 170.919C146.515 170.878 146.705 170.837 146.846 170.796V171.912C146.688 171.988 146.453 172.05 146.143 172.097C145.838 172.149 145.562 172.176 145.316 172.176C143.453 172.176 142.521 171.194 142.521 169.231V163.501H141.142V162.798L142.521 162.191L143.137 160.135H143.98V162.367H146.775V163.501H143.98V169.17C143.98 169.75 144.118 170.195 144.394 170.506C144.669 170.816 145.047 170.972 145.527 170.972ZM152.849 172.176C151.425 172.176 150.3 171.742 149.474 170.875C148.653 170.008 148.243 168.804 148.243 167.263C148.243 165.71 148.624 164.477 149.386 163.562C150.153 162.648 151.182 162.191 152.471 162.191C153.678 162.191 154.633 162.59 155.336 163.387C156.039 164.178 156.391 165.224 156.391 166.524V167.447H149.755C149.784 168.578 150.068 169.437 150.607 170.022C151.152 170.608 151.917 170.901 152.901 170.901C153.938 170.901 154.964 170.685 155.978 170.251V171.552C155.462 171.774 154.973 171.933 154.51 172.026C154.053 172.126 153.499 172.176 152.849 172.176ZM152.453 163.413C151.68 163.413 151.062 163.665 150.599 164.169C150.142 164.673 149.872 165.37 149.79 166.261H154.826C154.826 165.341 154.621 164.638 154.211 164.151C153.801 163.659 153.215 163.413 152.453 163.413ZM165.101 169.372C165.101 170.269 164.767 170.96 164.099 171.446C163.431 171.933 162.493 172.176 161.286 172.176C160.009 172.176 159.013 171.974 158.298 171.569V170.216C158.761 170.45 159.256 170.635 159.783 170.77C160.316 170.904 160.829 170.972 161.321 170.972C162.083 170.972 162.669 170.852 163.079 170.611C163.489 170.365 163.694 169.993 163.694 169.495C163.694 169.12 163.53 168.801 163.202 168.537C162.88 168.268 162.247 167.951 161.304 167.588C160.407 167.254 159.769 166.964 159.388 166.718C159.013 166.466 158.731 166.182 158.544 165.865C158.362 165.549 158.271 165.171 158.271 164.731C158.271 163.946 158.591 163.328 159.229 162.877C159.868 162.42 160.744 162.191 161.857 162.191C162.895 162.191 163.908 162.402 164.898 162.824L164.38 164.011C163.413 163.612 162.537 163.413 161.752 163.413C161.061 163.413 160.539 163.521 160.188 163.738C159.836 163.955 159.66 164.254 159.66 164.635C159.66 164.893 159.725 165.112 159.854 165.294C159.988 165.476 160.202 165.648 160.495 165.812C160.788 165.977 161.351 166.214 162.183 166.524C163.325 166.94 164.096 167.359 164.494 167.781C164.898 168.203 165.101 168.733 165.101 169.372ZM68.2627 193H66.7861L64.1934 184.396C64.0703 184.015 63.9326 183.534 63.7803 182.954C63.6279 182.374 63.5488 182.025 63.543 181.908C63.4141 182.682 63.209 183.528 62.9277 184.448L60.4141 193H58.9375L55.5186 180.15H57.1006L59.1309 188.087C59.4121 189.2 59.6172 190.208 59.7461 191.11C59.9043 190.038 60.1387 188.989 60.4492 187.964L62.752 180.15H64.334L66.751 188.034C67.0322 188.942 67.2695 189.968 67.4629 191.11C67.5742 190.278 67.7852 189.265 68.0957 188.069L70.1172 180.15H71.6992L68.2627 193ZM81.8066 188.175C81.8066 189.745 81.4111 190.973 80.6201 191.857C79.8291 192.736 78.7363 193.176 77.3418 193.176C76.4805 193.176 75.7158 192.974 75.0479 192.569C74.3799 192.165 73.8643 191.585 73.501 190.829C73.1377 190.073 72.9561 189.188 72.9561 188.175C72.9561 186.604 73.3486 185.383 74.1338 184.51C74.9189 183.631 76.0088 183.191 77.4033 183.191C78.751 183.191 79.8203 183.64 80.6113 184.536C81.4082 185.433 81.8066 186.646 81.8066 188.175ZM74.4678 188.175C74.4678 189.405 74.7139 190.343 75.2061 190.987C75.6982 191.632 76.4219 191.954 77.377 191.954C78.332 191.954 79.0557 191.635 79.5479 190.996C80.0459 190.352 80.2949 189.411 80.2949 188.175C80.2949 186.95 80.0459 186.021 79.5479 185.389C79.0557 184.75 78.3262 184.431 77.3594 184.431C76.4043 184.431 75.6836 184.744 75.1973 185.371C74.7109 185.998 74.4678 186.933 74.4678 188.175ZM88.7676 183.191C89.1953 183.191 89.5791 183.227 89.9189 183.297L89.7168 184.65C89.3184 184.562 88.9668 184.519 88.6621 184.519C87.8828 184.519 87.2148 184.835 86.6582 185.468C86.1074 186.101 85.832 186.889 85.832 187.832V193H84.373V183.367H85.5771L85.7441 185.151H85.8145C86.1719 184.524 86.6025 184.041 87.1064 183.701C87.6104 183.361 88.1641 183.191 88.7676 183.191ZM93.1621 188.069C93.4141 187.712 93.7979 187.243 94.3135 186.663L97.4248 183.367H99.1562L95.2539 187.472L99.4287 193H97.6621L94.2607 188.447L93.1621 189.396V193H91.7207V179.324H93.1621V186.575C93.1621 186.897 93.1387 187.396 93.0918 188.069H93.1621ZM102.637 193H101.178V179.324H102.637V193ZM114.045 188.175C114.045 189.745 113.649 190.973 112.858 191.857C112.067 192.736 110.975 193.176 109.58 193.176C108.719 193.176 107.954 192.974 107.286 192.569C106.618 192.165 106.103 191.585 105.739 190.829C105.376 190.073 105.194 189.188 105.194 188.175C105.194 186.604 105.587 185.383 106.372 184.51C107.157 183.631 108.247 183.191 109.642 183.191C110.989 183.191 112.059 183.64 112.85 184.536C113.646 185.433 114.045 186.646 114.045 188.175ZM106.706 188.175C106.706 189.405 106.952 190.343 107.444 190.987C107.937 191.632 108.66 191.954 109.615 191.954C110.57 191.954 111.294 191.635 111.786 190.996C112.284 190.352 112.533 189.411 112.533 188.175C112.533 186.95 112.284 186.021 111.786 185.389C111.294 184.75 110.564 184.431 109.598 184.431C108.643 184.431 107.922 184.744 107.436 185.371C106.949 185.998 106.706 186.933 106.706 188.175ZM122.535 193L122.245 191.629H122.175C121.694 192.232 121.214 192.643 120.733 192.859C120.259 193.07 119.664 193.176 118.949 193.176C117.994 193.176 117.244 192.93 116.699 192.438C116.16 191.945 115.891 191.245 115.891 190.337C115.891 188.392 117.446 187.372 120.558 187.278L122.192 187.226V186.628C122.192 185.872 122.028 185.315 121.7 184.958C121.378 184.595 120.859 184.413 120.145 184.413C119.342 184.413 118.434 184.659 117.42 185.151L116.972 184.035C117.446 183.777 117.965 183.575 118.527 183.429C119.096 183.282 119.664 183.209 120.232 183.209C121.381 183.209 122.23 183.464 122.781 183.974C123.338 184.483 123.616 185.301 123.616 186.426V193H122.535ZM119.239 191.972C120.147 191.972 120.859 191.723 121.375 191.225C121.896 190.727 122.157 190.029 122.157 189.133V188.263L120.698 188.324C119.538 188.365 118.7 188.547 118.185 188.869C117.675 189.186 117.42 189.681 117.42 190.354C117.42 190.882 117.578 191.283 117.895 191.559C118.217 191.834 118.665 191.972 119.239 191.972ZM133.188 191.708H133.108C132.435 192.687 131.427 193.176 130.085 193.176C128.825 193.176 127.844 192.745 127.141 191.884C126.443 191.022 126.095 189.798 126.095 188.21C126.095 186.622 126.446 185.389 127.149 184.51C127.853 183.631 128.831 183.191 130.085 183.191C131.392 183.191 132.394 183.666 133.091 184.615H133.205L133.144 183.921L133.108 183.244V179.324H134.567V193H133.381L133.188 191.708ZM130.27 191.954C131.266 191.954 131.986 191.685 132.432 191.146C132.883 190.601 133.108 189.725 133.108 188.518V188.21C133.108 186.845 132.88 185.872 132.423 185.292C131.972 184.706 131.248 184.413 130.252 184.413C129.396 184.413 128.74 184.747 128.283 185.415C127.832 186.077 127.606 187.015 127.606 188.228C127.606 189.458 127.832 190.387 128.283 191.014C128.734 191.641 129.396 191.954 130.27 191.954ZM143.884 190.372C143.884 191.269 143.55 191.96 142.882 192.446C142.214 192.933 141.276 193.176 140.069 193.176C138.792 193.176 137.796 192.974 137.081 192.569V191.216C137.544 191.45 138.039 191.635 138.566 191.77C139.1 191.904 139.612 191.972 140.104 191.972C140.866 191.972 141.452 191.852 141.862 191.611C142.272 191.365 142.478 190.993 142.478 190.495C142.478 190.12 142.313 189.801 141.985 189.537C141.663 189.268 141.03 188.951 140.087 188.588C139.19 188.254 138.552 187.964 138.171 187.718C137.796 187.466 137.515 187.182 137.327 186.865C137.146 186.549 137.055 186.171 137.055 185.731C137.055 184.946 137.374 184.328 138.013 183.877C138.651 183.42 139.527 183.191 140.641 183.191C141.678 183.191 142.691 183.402 143.682 183.824L143.163 185.011C142.196 184.612 141.32 184.413 140.535 184.413C139.844 184.413 139.322 184.521 138.971 184.738C138.619 184.955 138.443 185.254 138.443 185.635C138.443 185.893 138.508 186.112 138.637 186.294C138.771 186.476 138.985 186.648 139.278 186.812C139.571 186.977 140.134 187.214 140.966 187.524C142.108 187.94 142.879 188.359 143.277 188.781C143.682 189.203 143.884 189.733 143.884 190.372Z" fill="white"/>
<g clip-path="url(#clip0)">
<path fill-rule="evenodd" clip-rule="evenodd" d="M99.2786 43.4842C96.9762 43.4842 95.1036 41.6423 95.1036 39.3093C95.1036 37.0069 96.9455 35.1343 99.2786 35.1343C101.581 35.1343 103.454 36.9762 103.454 39.3093C103.454 41.6116 101.612 43.4842 99.2786 43.4842Z" fill="white"/>
<path fill-rule="evenodd" clip-rule="evenodd" d="M107.414 41.2435C106.339 41.2435 105.48 40.3839 105.48 39.3095C105.48 38.235 106.339 37.3755 107.414 37.3755C108.488 37.3755 109.348 38.235 109.348 39.3095C109.348 40.3839 108.488 41.2435 107.414 41.2435Z" fill="white"/>
<path fill-rule="evenodd" clip-rule="evenodd" d="M114.444 43.0545C114.198 44.0982 113.124 44.7122 112.111 44.4359C111.067 44.1903 110.453 43.1159 110.729 42.1028C110.975 41.0591 112.049 40.4451 113.062 40.7214C114.045 40.967 114.658 41.9187 114.505 42.901C114.474 42.9317 114.474 42.9931 114.444 43.0545Z" fill="white"/>
<path fill-rule="evenodd" clip-rule="evenodd" d="M113.093 38.0816C112.049 38.3271 111.005 37.6825 110.79 36.6387C110.545 35.595 111.19 34.5512 112.233 34.3364C113.277 34.0908 114.321 34.7354 114.536 35.7792C114.597 36.0248 114.597 36.3011 114.566 36.5466C114.444 37.2834 113.891 37.9281 113.093 38.0816Z" fill="white"/>
<path fill-rule="evenodd" clip-rule="evenodd" d="M119.939 42.8395C119.754 43.8833 118.741 44.5893 117.698 44.4052C116.654 44.221 115.948 43.2079 116.132 42.1642C116.316 41.1204 117.299 40.4144 118.373 40.5986C119.355 40.7828 120.061 41.673 119.969 42.6554C119.969 42.7167 119.939 42.7781 119.939 42.8395Z" fill="white"/>
<path fill-rule="evenodd" clip-rule="evenodd" d="M118.373 38.0199C117.329 38.2041 116.347 37.498 116.163 36.4236C115.978 35.3798 116.685 34.3975 117.759 34.2133C118.803 34.0291 119.785 34.7351 119.969 35.8096C120 35.9938 120 36.1473 120 36.3008C119.908 37.1296 119.263 37.8664 118.373 38.0199Z" fill="white"/>
<path fill-rule="evenodd" clip-rule="evenodd" d="M117.022 49.5013C116.5 50.4222 115.334 50.7599 114.382 50.2381C113.461 49.7162 113.124 48.5496 113.645 47.598C114.167 46.677 115.334 46.3394 116.286 46.8612C116.961 47.2296 117.329 47.9664 117.237 48.7031C117.268 48.9794 117.176 49.2557 117.022 49.5013Z" fill="white"/>
<path fill-rule="evenodd" clip-rule="evenodd" d="M116.347 31.8186C115.426 32.3405 114.259 32.0028 113.707 31.0819C113.185 30.1609 113.523 28.9944 114.444 28.4418C115.365 27.9199 116.531 28.2576 117.084 29.1786C117.299 29.5469 117.36 29.9153 117.329 30.2837C117.268 30.9284 116.899 31.4809 116.347 31.8186Z" fill="white"/>
<path d="M99.3707 58.7107C94.1827 58.7107 89.3323 56.7153 85.6792 53.0622C81.9954 49.3784 80 44.528 80 39.3707C80 34.1827 81.9954 29.3323 85.6485 25.6792C89.3323 21.9954 94.1827 20 99.3707 20C103.668 20 107.721 21.3814 111.128 23.9908L108.734 27.0606C106.032 24.9731 102.778 23.8987 99.34 23.8987C95.2264 23.8987 91.3277 25.495 88.3807 28.4114C85.4643 31.3277 83.868 35.2264 83.868 39.34C83.868 43.4843 85.4643 47.3523 88.3807 50.2993C91.297 53.2157 95.1957 54.812 99.34 54.812C102.778 54.812 106.032 53.7068 108.734 51.65L111.097 54.7506C107.721 57.3292 103.638 58.7107 99.3707 58.7107Z" fill="white"/>
</g>
<path d="M75.4 86.9834C78.634 86.9834 81.385 85.0094 82.309 82.1744C82.414 81.8804 82.225 81.6704 81.91 81.6704H80.293C80.041 81.6704 79.873 81.7964 79.747 82.0484C79.033 83.6234 77.353 84.6314 75.4 84.6314C72.25 84.6314 70.15 82.3844 70.15 79.3604C70.15 76.3364 72.25 74.0894 75.4 74.0894C77.353 74.0894 79.033 75.1184 79.747 76.6934C79.873 76.9244 80.041 77.0504 80.293 77.0504H81.91C82.225 77.0504 82.393 76.8404 82.309 76.5254C81.364 73.6904 78.613 71.7374 75.4 71.7374C70.927 71.7374 67.735 75.0974 67.735 79.3604C67.735 83.6234 70.927 86.9834 75.4 86.9834ZM89.029 86.9834C92.095 86.9834 94.573 84.5894 94.573 81.4604C94.573 78.3524 92.095 75.9374 89.029 75.9374C85.942 75.9374 83.485 78.3524 83.485 81.4604C83.485 84.5894 85.942 86.9834 89.029 86.9834ZM89.029 84.7784C87.181 84.7784 85.753 83.3714 85.753 81.4604C85.753 79.5494 87.181 78.1424 89.029 78.1424C90.877 78.1424 92.305 79.5494 92.305 81.4604C92.305 83.3714 90.877 84.7784 89.029 84.7784ZM101.853 75.9374C100.572 75.9374 99.5428 76.3784 98.8708 77.4074V76.6934C98.8708 76.3784 98.7028 76.2104 98.4088 76.2104H97.0858C96.7708 76.2104 96.6028 76.3784 96.6028 76.6934V86.2484C96.6028 86.5424 96.7708 86.7104 97.0858 86.7104H98.4088C98.7028 86.7104 98.8708 86.5424 98.8708 86.2484V80.6834C98.8708 78.7724 99.9418 78.0584 101.139 78.0584C102.231 78.0584 103.05 78.7304 103.05 80.0954V86.2484C103.05 86.5424 103.218 86.7104 103.533 86.7104H104.856C105.15 86.7104 105.318 86.5424 105.318 86.2484V79.9484C105.318 77.4284 103.806 75.9374 101.853 75.9374ZM109.651 79.1714C109.651 78.3734 110.407 77.9744 111.352 77.9744C112.108 77.9744 112.801 78.2894 112.969 79.0244C113.074 79.2974 113.2 79.4654 113.473 79.4654H114.775C115.09 79.4654 115.279 79.2974 115.237 78.9614C115.006 76.9664 113.326 75.9374 111.352 75.9374C109.189 75.9374 107.383 77.1134 107.383 79.1714C107.383 83.1614 113.221 81.6704 113.221 83.7704C113.221 84.5684 112.465 84.9464 111.352 84.9464C110.449 84.9464 109.714 84.6524 109.525 83.8964C109.42 83.6234 109.315 83.4764 109.021 83.4764H107.719C107.425 83.4764 107.236 83.6444 107.257 83.9594C107.488 85.9544 109.21 86.9834 111.352 86.9834C113.683 86.9834 115.489 85.8284 115.489 83.7704C115.489 79.7594 109.651 81.2714 109.651 79.1714ZM125.48 76.2104H124.157C123.863 76.2104 123.695 76.3784 123.695 76.6934V82.2374C123.695 84.1694 122.624 84.8624 121.427 84.8624C120.335 84.8624 119.516 84.1904 119.516 82.8464V76.6934C119.516 76.3784 119.348 76.2104 119.033 76.2104H117.71C117.416 76.2104 117.248 76.3784 117.248 76.6934V82.9724C117.248 85.4924 118.76 86.9834 120.713 86.9834C121.994 86.9834 123.002 86.5634 123.695 85.5344V86.2484C123.695 86.5424 123.863 86.7104 124.157 86.7104H125.48C125.795 86.7104 125.963 86.5424 125.963 86.2484V76.6934C125.963 76.3784 125.795 76.2104 125.48 76.2104ZM129.078 86.7104H130.401C130.695 86.7104 130.863 86.5424 130.863 86.2484V72.0734C130.863 71.7584 130.695 71.5904 130.401 71.5904H129.078C128.763 71.5904 128.595 71.7584 128.595 72.0734V86.2484C128.595 86.5424 128.763 86.7104 129.078 86.7104Z" fill="white"/>
<defs>
<clipPath id="clip0">
<rect width="40" height="38.7107" fill="white" transform="translate(80 20)"/>
</clipPath>
</defs>
</svg>
