<svg id="Layer_1" data-name="Layer 1" xmlns="http://www.w3.org/2000/svg" xmlns:xlink="http://www.w3.org/1999/xlink" viewBox="0 0 143.8 143.9"><defs><clipPath id="clip-path"><rect width="71.7" height="143.9" style="fill:none"/></clipPath></defs><title>half</title><g style="clip-path:url(#clip-path)"><path d="M0,71.8A72.23,72.23,0,0,1,72,0c39.4.1,71.9,32.6,71.8,72.1S111.1,144,71.7,143.9A72.17,72.17,0,0,1,0,71.8Zm71.9,52.1a52,52,0,1,0-52-52.1A52.07,52.07,0,0,0,71.9,123.9Z" style="fill:#00b39f"/><path d="M62.8,76.1c10.3-10.6,19.3-20,28.4-29.2a9.65,9.65,0,0,1,11.9-2.1c4.3,2.1,6.6,5.8,5.8,10.6a12.72,12.72,0,0,1-3.3,6.4c-11.5,11.8-23.2,23.4-34.9,35-4.7,4.6-10.4,4.7-15.1.1q-9-8.7-17.7-17.7c-4.3-4.5-4.2-10.6,0-14.7s10.2-4.3,14.7.1C55.9,67.9,58.8,71.6,62.8,76.1Z" style="fill:#00d3a9"/></g></svg>