<svg id="Layer_1" data-name="Layer 1" xmlns="http://www.w3.org/2000/svg" xmlns:xlink="http://www.w3.org/1999/xlink" viewBox="0 0 145 145"><defs><clipPath id="clip-path"><rect x="0.5" y="0.5" width="72" height="144" style="fill:none"/></clipPath></defs><title>half</title><g style="clip-path:url(#clip-path)"><path d="M.5,72.35C.6,32.82,33.14.5,72.8.5S145,33.12,144.9,72.65,112.06,144.6,72.5,144.5.4,111.88.5,72.35Zm72.2,52.14a52.2,52.2,0,0,0,52.22-52.24c0-28.72-23.6-51.94-52.52-51.84a52,52,0,1,0,.3,104.08Z" style="fill:#00b39f"/></g><g style="clip-path:url(#clip-path)"><path d="M63.56,76.65c10.35-10.6,19.38-20,28.52-29.22a9.72,9.72,0,0,1,12-2.1c4.32,2.1,6.63,5.81,5.83,10.61a12.75,12.75,0,0,1-3.32,6.4c-11.55,11.81-23.3,23.42-35,35-4.72,4.6-10.45,4.7-15.17.1q-9-8.72-17.77-17.71c-4.32-4.51-4.22-10.61,0-14.72s10.24-4.3,14.76.1C56.63,68.45,59.55,72.15,63.56,76.65Z" style="fill:#00d3a9"/></g></svg>