<svg width="200" height="220" viewBox="0 0 200 220" fill="none" xmlns="http://www.w3.org/2000/svg">
<rect width="200" height="220" rx="15" fill="#1E2117"/>
<path d="M0 15C0 6.71573 6.71573 0 15 0H185C193.284 0 200 6.71573 200 15V110H0V15Z" fill="#00B39F"/>
<path d="M36.1377 141.895C36.1377 143.195 35.6924 144.197 34.8018 144.9C33.917 145.598 32.6484 145.946 30.9961 145.946H29.4844V151H27.9902V138.15H31.3213C34.5322 138.15 36.1377 139.398 36.1377 141.895ZM29.4844 144.663H30.8291C32.1533 144.663 33.1113 144.449 33.7031 144.021C34.2949 143.594 34.5908 142.908 34.5908 141.965C34.5908 141.115 34.3125 140.482 33.7559 140.066C33.1992 139.65 32.332 139.442 31.1543 139.442H29.4844V144.663ZM46.9307 146.175C46.9307 147.745 46.5352 148.973 45.7441 149.857C44.9531 150.736 43.8604 151.176 42.4658 151.176C41.6045 151.176 40.8398 150.974 40.1719 150.569C39.5039 150.165 38.9883 149.585 38.625 148.829C38.2617 148.073 38.0801 147.188 38.0801 146.175C38.0801 144.604 38.4727 143.383 39.2578 142.51C40.043 141.631 41.1328 141.191 42.5273 141.191C43.875 141.191 44.9443 141.64 45.7354 142.536C46.5322 143.433 46.9307 144.646 46.9307 146.175ZM39.5918 146.175C39.5918 147.405 39.8379 148.343 40.3301 148.987C40.8223 149.632 41.5459 149.954 42.501 149.954C43.4561 149.954 44.1797 149.635 44.6719 148.996C45.1699 148.352 45.4189 147.411 45.4189 146.175C45.4189 144.95 45.1699 144.021 44.6719 143.389C44.1797 142.75 43.4502 142.431 42.4834 142.431C41.5283 142.431 40.8076 142.744 40.3213 143.371C39.835 143.998 39.5918 144.933 39.5918 146.175ZM57.3633 151L55.5967 145.349C55.4854 145.003 55.2773 144.218 54.9727 142.993H54.9023C54.668 144.019 54.4629 144.81 54.2871 145.366L52.4678 151H50.7803L48.1523 141.367H49.6816C50.3027 143.787 50.7744 145.63 51.0967 146.896C51.4248 148.161 51.6123 149.014 51.6592 149.453H51.7295C51.7939 149.119 51.8965 148.688 52.0371 148.161C52.1836 147.628 52.3096 147.206 52.415 146.896L54.1816 141.367H55.7637L57.4863 146.896C57.8145 147.903 58.0371 148.75 58.1543 149.436H58.2246C58.248 149.225 58.3096 148.899 58.4092 148.46C58.5146 148.021 59.127 145.656 60.2461 141.367H61.7578L59.0947 151H57.3633ZM67.5762 151.176C66.1523 151.176 65.0273 150.742 64.2012 149.875C63.3809 149.008 62.9707 147.804 62.9707 146.263C62.9707 144.71 63.3516 143.477 64.1133 142.562C64.8809 141.648 65.9092 141.191 67.1982 141.191C68.4053 141.191 69.3604 141.59 70.0635 142.387C70.7666 143.178 71.1182 144.224 71.1182 145.524V146.447H64.4824C64.5117 147.578 64.7959 148.437 65.335 149.022C65.8799 149.608 66.6445 149.901 67.6289 149.901C68.666 149.901 69.6914 149.685 70.7051 149.251V150.552C70.1895 150.774 69.7002 150.933 69.2373 151.026C68.7803 151.126 68.2266 151.176 67.5762 151.176ZM67.1807 142.413C66.4072 142.413 65.7891 142.665 65.3262 143.169C64.8691 143.673 64.5996 144.37 64.5176 145.261H69.5537C69.5537 144.341 69.3486 143.638 68.9385 143.151C68.5283 142.659 67.9424 142.413 67.1807 142.413ZM78.0088 141.191C78.4365 141.191 78.8203 141.227 79.1602 141.297L78.958 142.65C78.5596 142.562 78.208 142.519 77.9033 142.519C77.124 142.519 76.4561 142.835 75.8994 143.468C75.3486 144.101 75.0732 144.889 75.0732 145.832V151H73.6143V141.367H74.8184L74.9854 143.151H75.0557C75.4131 142.524 75.8438 142.041 76.3477 141.701C76.8516 141.361 77.4053 141.191 78.0088 141.191ZM85.3037 142.501H82.8516V151H81.3926V142.501H79.6699V141.842L81.3926 141.314V140.778C81.3926 138.411 82.4268 137.228 84.4951 137.228C85.0049 137.228 85.6025 137.33 86.2881 137.535L85.9102 138.704C85.3477 138.522 84.8672 138.432 84.4688 138.432C83.918 138.432 83.5107 138.616 83.2471 138.985C82.9834 139.349 82.8516 139.935 82.8516 140.743V141.367H85.3037V142.501ZM88.4326 141.367V147.616C88.4326 148.401 88.6113 148.987 88.9688 149.374C89.3262 149.761 89.8857 149.954 90.6475 149.954C91.6553 149.954 92.3906 149.679 92.8535 149.128C93.3223 148.577 93.5566 147.678 93.5566 146.43V141.367H95.0156V151H93.8115L93.6006 149.708H93.5215C93.2227 150.183 92.8066 150.546 92.2734 150.798C91.7461 151.05 91.1426 151.176 90.4629 151.176C89.291 151.176 88.4121 150.897 87.8262 150.341C87.2461 149.784 86.9561 148.894 86.9561 147.669V141.367H88.4326ZM99.5771 151H98.1182V137.324H99.5771V151ZM109.061 151H107.566V138.15H114.729V139.478H109.061V144.18H114.387V145.507H109.061V151ZM120.715 151.176C119.291 151.176 118.166 150.742 117.34 149.875C116.52 149.008 116.109 147.804 116.109 146.263C116.109 144.71 116.49 143.477 117.252 142.562C118.02 141.648 119.048 141.191 120.337 141.191C121.544 141.191 122.499 141.59 123.202 142.387C123.905 143.178 124.257 144.224 124.257 145.524V146.447H117.621C117.65 147.578 117.935 148.437 118.474 149.022C119.019 149.608 119.783 149.901 120.768 149.901C121.805 149.901 122.83 149.685 123.844 149.251V150.552C123.328 150.774 122.839 150.933 122.376 151.026C121.919 151.126 121.365 151.176 120.715 151.176ZM120.319 142.413C119.546 142.413 118.928 142.665 118.465 143.169C118.008 143.673 117.738 144.37 117.656 145.261H122.692C122.692 144.341 122.487 143.638 122.077 143.151C121.667 142.659 121.081 142.413 120.319 142.413ZM132.677 151L132.387 149.629H132.316C131.836 150.232 131.355 150.643 130.875 150.859C130.4 151.07 129.806 151.176 129.091 151.176C128.136 151.176 127.386 150.93 126.841 150.438C126.302 149.945 126.032 149.245 126.032 148.337C126.032 146.392 127.588 145.372 130.699 145.278L132.334 145.226V144.628C132.334 143.872 132.17 143.315 131.842 142.958C131.52 142.595 131.001 142.413 130.286 142.413C129.483 142.413 128.575 142.659 127.562 143.151L127.113 142.035C127.588 141.777 128.106 141.575 128.669 141.429C129.237 141.282 129.806 141.209 130.374 141.209C131.522 141.209 132.372 141.464 132.923 141.974C133.479 142.483 133.758 143.301 133.758 144.426V151H132.677ZM129.381 149.972C130.289 149.972 131.001 149.723 131.517 149.225C132.038 148.727 132.299 148.029 132.299 147.133V146.263L130.84 146.324C129.68 146.365 128.842 146.547 128.326 146.869C127.816 147.186 127.562 147.681 127.562 148.354C127.562 148.882 127.72 149.283 128.036 149.559C128.358 149.834 128.807 149.972 129.381 149.972ZM139.884 149.972C140.142 149.972 140.391 149.954 140.631 149.919C140.871 149.878 141.062 149.837 141.202 149.796V150.912C141.044 150.988 140.81 151.05 140.499 151.097C140.194 151.149 139.919 151.176 139.673 151.176C137.81 151.176 136.878 150.194 136.878 148.231V142.501H135.498V141.798L136.878 141.191L137.493 139.135H138.337V141.367H141.132V142.501H138.337V148.17C138.337 148.75 138.475 149.195 138.75 149.506C139.025 149.816 139.403 149.972 139.884 149.972ZM144.507 141.367V147.616C144.507 148.401 144.686 148.987 145.043 149.374C145.4 149.761 145.96 149.954 146.722 149.954C147.729 149.954 148.465 149.679 148.928 149.128C149.396 148.577 149.631 147.678 149.631 146.43V141.367H151.09V151H149.886L149.675 149.708H149.596C149.297 150.183 148.881 150.546 148.348 150.798C147.82 151.05 147.217 151.176 146.537 151.176C145.365 151.176 144.486 150.897 143.9 150.341C143.32 149.784 143.03 148.894 143.03 147.669V141.367H144.507ZM158.587 141.191C159.015 141.191 159.398 141.227 159.738 141.297L159.536 142.65C159.138 142.562 158.786 142.519 158.481 142.519C157.702 142.519 157.034 142.835 156.478 143.468C155.927 144.101 155.651 144.889 155.651 145.832V151H154.192V141.367H155.396L155.563 143.151H155.634C155.991 142.524 156.422 142.041 156.926 141.701C157.43 141.361 157.983 141.191 158.587 141.191ZM165.609 151.176C164.186 151.176 163.061 150.742 162.234 149.875C161.414 149.008 161.004 147.804 161.004 146.263C161.004 144.71 161.385 143.477 162.146 142.562C162.914 141.648 163.942 141.191 165.231 141.191C166.438 141.191 167.394 141.59 168.097 142.387C168.8 143.178 169.151 144.224 169.151 145.524V146.447H162.516C162.545 147.578 162.829 148.437 163.368 149.022C163.913 149.608 164.678 149.901 165.662 149.901C166.699 149.901 167.725 149.685 168.738 149.251V150.552C168.223 150.774 167.733 150.933 167.271 151.026C166.813 151.126 166.26 151.176 165.609 151.176ZM165.214 142.413C164.44 142.413 163.822 142.665 163.359 143.169C162.902 143.673 162.633 144.37 162.551 145.261H167.587C167.587 144.341 167.382 143.638 166.972 143.151C166.562 142.659 165.976 142.413 165.214 142.413ZM41.666 168.581C41.666 169.712 41.2559 170.594 40.4355 171.227C39.6152 171.859 38.502 172.176 37.0957 172.176C35.5723 172.176 34.4004 171.979 33.5801 171.587V170.146C34.1074 170.368 34.6816 170.544 35.3027 170.673C35.9238 170.802 36.5391 170.866 37.1484 170.866C38.1445 170.866 38.8945 170.679 39.3984 170.304C39.9023 169.923 40.1543 169.396 40.1543 168.722C40.1543 168.276 40.0635 167.913 39.8818 167.632C39.7061 167.345 39.4072 167.081 38.9854 166.841C38.5693 166.601 37.9336 166.328 37.0781 166.023C35.8828 165.596 35.0273 165.089 34.5117 164.503C34.002 163.917 33.7471 163.152 33.7471 162.209C33.7471 161.219 34.1191 160.431 34.8633 159.845C35.6074 159.259 36.5918 158.966 37.8164 158.966C39.0938 158.966 40.2686 159.2 41.3408 159.669L40.875 160.97C39.8145 160.524 38.7832 160.302 37.7812 160.302C36.9902 160.302 36.3721 160.472 35.9268 160.812C35.4814 161.151 35.2588 161.623 35.2588 162.227C35.2588 162.672 35.3408 163.038 35.5049 163.325C35.6689 163.606 35.9443 163.867 36.3311 164.107C36.7236 164.342 37.3213 164.603 38.124 164.89C39.4717 165.37 40.3975 165.886 40.9014 166.437C41.4111 166.987 41.666 167.702 41.666 168.581ZM48.1436 172.176C46.7197 172.176 45.5947 171.742 44.7686 170.875C43.9482 170.008 43.5381 168.804 43.5381 167.263C43.5381 165.71 43.9189 164.477 44.6807 163.562C45.4482 162.648 46.4766 162.191 47.7656 162.191C48.9727 162.191 49.9277 162.59 50.6309 163.387C51.334 164.178 51.6855 165.224 51.6855 166.524V167.447H45.0498C45.0791 168.578 45.3633 169.437 45.9023 170.022C46.4473 170.608 47.2119 170.901 48.1963 170.901C49.2334 170.901 50.2588 170.685 51.2725 170.251V171.552C50.7568 171.774 50.2676 171.933 49.8047 172.026C49.3477 172.126 48.7939 172.176 48.1436 172.176ZM47.748 163.413C46.9746 163.413 46.3564 163.665 45.8936 164.169C45.4365 164.673 45.167 165.37 45.085 166.261H50.1211C50.1211 165.341 49.916 164.638 49.5059 164.151C49.0957 163.659 48.5098 163.413 47.748 163.413ZM57.293 170.972C57.5508 170.972 57.7998 170.954 58.04 170.919C58.2803 170.878 58.4707 170.837 58.6113 170.796V171.912C58.4531 171.988 58.2188 172.05 57.9082 172.097C57.6035 172.149 57.3281 172.176 57.082 172.176C55.2188 172.176 54.2871 171.194 54.2871 169.231V163.501H52.9072V162.798L54.2871 162.191L54.9023 160.135H55.7461V162.367H58.541V163.501H55.7461V169.17C55.7461 169.75 55.8838 170.195 56.1592 170.506C56.4346 170.816 56.8125 170.972 57.293 170.972ZM62.0742 169.908L62.2061 170.11C62.0537 170.696 61.834 171.376 61.5469 172.149C61.2598 172.929 60.9609 173.652 60.6504 174.32H59.5518C59.71 173.711 59.8828 172.958 60.0703 172.062C60.2637 171.165 60.3984 170.447 60.4746 169.908H62.0742ZM77.0156 172H69.8525V159.15H77.0156V160.478H71.3467V164.617H76.6729V165.936H71.3467V170.664H77.0156V172ZM81.9727 167.069L78.624 162.367H80.2852L82.8252 166.059L85.3564 162.367H87L83.6514 167.069L87.1758 172H85.5234L82.8252 168.098L80.1006 172H78.4482L81.9727 167.069ZM92.2031 170.972C92.4609 170.972 92.71 170.954 92.9502 170.919C93.1904 170.878 93.3809 170.837 93.5215 170.796V171.912C93.3633 171.988 93.1289 172.05 92.8184 172.097C92.5137 172.149 92.2383 172.176 91.9922 172.176C90.1289 172.176 89.1973 171.194 89.1973 169.231V163.501H87.8174V162.798L89.1973 162.191L89.8125 160.135H90.6562V162.367H93.4512V163.501H90.6562V169.17C90.6562 169.75 90.7939 170.195 91.0693 170.506C91.3447 170.816 91.7227 170.972 92.2031 170.972ZM99.5244 172.176C98.1006 172.176 96.9756 171.742 96.1494 170.875C95.3291 170.008 94.9189 168.804 94.9189 167.263C94.9189 165.71 95.2998 164.477 96.0615 163.562C96.8291 162.648 97.8574 162.191 99.1465 162.191C100.354 162.191 101.309 162.59 102.012 163.387C102.715 164.178 103.066 165.224 103.066 166.524V167.447H96.4307C96.46 168.578 96.7441 169.437 97.2832 170.022C97.8281 170.608 98.5928 170.901 99.5771 170.901C100.614 170.901 101.64 170.685 102.653 170.251V171.552C102.138 171.774 101.648 171.933 101.186 172.026C100.729 172.126 100.175 172.176 99.5244 172.176ZM99.1289 163.413C98.3555 163.413 97.7373 163.665 97.2744 164.169C96.8174 164.673 96.5479 165.37 96.4658 166.261H101.502C101.502 165.341 101.297 164.638 100.887 164.151C100.477 163.659 99.8906 163.413 99.1289 163.413ZM112.154 172V165.769C112.154 164.983 111.976 164.397 111.618 164.011C111.261 163.624 110.701 163.431 109.939 163.431C108.932 163.431 108.193 163.703 107.725 164.248C107.256 164.793 107.021 165.692 107.021 166.946V172H105.562V162.367H106.749L106.986 163.686H107.057C107.355 163.211 107.774 162.845 108.313 162.587C108.853 162.323 109.453 162.191 110.115 162.191C111.275 162.191 112.148 162.473 112.734 163.035C113.32 163.592 113.613 164.485 113.613 165.716V172H112.154ZM122.833 169.372C122.833 170.269 122.499 170.96 121.831 171.446C121.163 171.933 120.226 172.176 119.019 172.176C117.741 172.176 116.745 171.974 116.03 171.569V170.216C116.493 170.45 116.988 170.635 117.516 170.77C118.049 170.904 118.562 170.972 119.054 170.972C119.815 170.972 120.401 170.852 120.812 170.611C121.222 170.365 121.427 169.993 121.427 169.495C121.427 169.12 121.263 168.801 120.935 168.537C120.612 168.268 119.979 167.951 119.036 167.588C118.14 167.254 117.501 166.964 117.12 166.718C116.745 166.466 116.464 166.182 116.276 165.865C116.095 165.549 116.004 165.171 116.004 164.731C116.004 163.946 116.323 163.328 116.962 162.877C117.601 162.42 118.477 162.191 119.59 162.191C120.627 162.191 121.641 162.402 122.631 162.824L122.112 164.011C121.146 163.612 120.27 163.413 119.484 163.413C118.793 163.413 118.271 163.521 117.92 163.738C117.568 163.955 117.393 164.254 117.393 164.635C117.393 164.893 117.457 165.112 117.586 165.294C117.721 165.476 117.935 165.648 118.228 165.812C118.521 165.977 119.083 166.214 119.915 166.524C121.058 166.94 121.828 167.359 122.227 167.781C122.631 168.203 122.833 168.733 122.833 169.372ZM126.674 172H125.215V162.367H126.674V172ZM125.092 159.757C125.092 159.423 125.174 159.18 125.338 159.027C125.502 158.869 125.707 158.79 125.953 158.79C126.188 158.79 126.39 158.869 126.56 159.027C126.729 159.186 126.814 159.429 126.814 159.757C126.814 160.085 126.729 160.331 126.56 160.495C126.39 160.653 126.188 160.732 125.953 160.732C125.707 160.732 125.502 160.653 125.338 160.495C125.174 160.331 125.092 160.085 125.092 159.757ZM134.25 162.209C135.516 162.209 136.497 162.643 137.194 163.51C137.897 164.371 138.249 165.593 138.249 167.175C138.249 168.757 137.895 169.987 137.186 170.866C136.482 171.739 135.504 172.176 134.25 172.176C133.623 172.176 133.049 172.062 132.527 171.833C132.012 171.599 131.578 171.241 131.227 170.761H131.121L130.813 172H129.768V158.324H131.227V161.646C131.227 162.391 131.203 163.059 131.156 163.65H131.227C131.906 162.689 132.914 162.209 134.25 162.209ZM134.039 163.431C133.043 163.431 132.325 163.718 131.886 164.292C131.446 164.86 131.227 165.821 131.227 167.175C131.227 168.528 131.452 169.498 131.903 170.084C132.354 170.664 133.078 170.954 134.074 170.954C134.971 170.954 135.639 170.629 136.078 169.979C136.518 169.322 136.737 168.382 136.737 167.157C136.737 165.903 136.518 164.969 136.078 164.354C135.639 163.738 134.959 163.431 134.039 163.431ZM142.266 172H140.807V162.367H142.266V172ZM140.684 159.757C140.684 159.423 140.766 159.18 140.93 159.027C141.094 158.869 141.299 158.79 141.545 158.79C141.779 158.79 141.981 158.869 142.151 159.027C142.321 159.186 142.406 159.429 142.406 159.757C142.406 160.085 142.321 160.331 142.151 160.495C141.981 160.653 141.779 160.732 141.545 160.732C141.299 160.732 141.094 160.653 140.93 160.495C140.766 160.331 140.684 160.085 140.684 159.757ZM146.818 172H145.359V158.324H146.818V172ZM151.371 172H149.912V162.367H151.371V172ZM149.789 159.757C149.789 159.423 149.871 159.18 150.035 159.027C150.199 158.869 150.404 158.79 150.65 158.79C150.885 158.79 151.087 158.869 151.257 159.027C151.427 159.186 151.512 159.429 151.512 159.757C151.512 160.085 151.427 160.331 151.257 160.495C151.087 160.653 150.885 160.732 150.65 160.732C150.404 160.732 150.199 160.653 150.035 160.495C149.871 160.331 149.789 160.085 149.789 159.757ZM157.576 170.972C157.834 170.972 158.083 170.954 158.323 170.919C158.563 170.878 158.754 170.837 158.895 170.796V171.912C158.736 171.988 158.502 172.05 158.191 172.097C157.887 172.149 157.611 172.176 157.365 172.176C155.502 172.176 154.57 171.194 154.57 169.231V163.501H153.19V162.798L154.57 162.191L155.186 160.135H156.029V162.367H158.824V163.501H156.029V169.17C156.029 169.75 156.167 170.195 156.442 170.506C156.718 170.816 157.096 170.972 157.576 170.972ZM159.299 162.367H160.863L162.973 167.86C163.436 169.114 163.723 170.02 163.834 170.576H163.904C163.98 170.277 164.139 169.768 164.379 169.047C164.625 168.32 165.422 166.094 166.77 162.367H168.334L164.194 173.336C163.784 174.42 163.304 175.188 162.753 175.639C162.208 176.096 161.537 176.324 160.74 176.324C160.295 176.324 159.855 176.274 159.422 176.175V175.006C159.744 175.076 160.104 175.111 160.503 175.111C161.505 175.111 162.22 174.549 162.647 173.424L163.184 172.053L159.299 162.367Z" fill="white"/>
<path d="M85.9412 51.9409H116.059L97.2353 57.588L85.9412 51.9409Z" fill="white"/>
<path d="M85.9412 50.0584L97.2353 48.1761V27.4702L85.9412 50.0584Z" fill="white"/>
<path d="M99.1176 48.1763L116.059 50.0587L99.1176 12.4116V48.1763Z" fill="white"/>
<path d="M82.47 72.783V86.538C82.47 86.832 82.638 87 82.932 87H84.402C84.717 87 84.885 86.832 84.885 86.538V72.783C84.885 72.468 84.717 72.3 84.402 72.3H82.932C82.638 72.3 82.47 72.468 82.47 72.783ZM89.6075 79.461C89.6075 78.663 90.3635 78.264 91.3085 78.264C92.0645 78.264 92.7575 78.579 92.9255 79.314C93.0305 79.587 93.1565 79.755 93.4295 79.755H94.7315C95.0465 79.755 95.2355 79.587 95.1935 79.251C94.9625 77.256 93.2825 76.227 91.3085 76.227C89.1455 76.227 87.3395 77.403 87.3395 79.461C87.3395 83.451 93.1775 81.96 93.1775 84.06C93.1775 84.858 92.4215 85.236 91.3085 85.236C90.4055 85.236 89.6705 84.942 89.4815 84.186C89.3765 83.913 89.2715 83.766 88.9775 83.766H87.6755C87.3815 83.766 87.1925 83.934 87.2135 84.249C87.4445 86.244 89.1665 87.273 91.3085 87.273C93.6395 87.273 95.4455 86.118 95.4455 84.06C95.4455 80.049 89.6075 81.561 89.6075 79.461ZM102.1 76.5H100.651V73.623C100.651 73.308 100.483 73.14 100.168 73.14H98.8452C98.5512 73.14 98.3832 73.308 98.3832 73.623V76.5H96.9132C96.5982 76.5 96.4302 76.668 96.4302 76.983V78.222C96.4302 78.516 96.5982 78.684 96.9132 78.684H98.3832V86.538C98.3832 86.832 98.5512 87 98.8452 87H100.168C100.483 87 100.651 86.832 100.651 86.538V78.684H102.1C102.415 78.684 102.583 78.516 102.583 78.222V76.983C102.583 76.668 102.415 76.5 102.1 76.5ZM104.749 74.82H106.072C106.366 74.82 106.534 74.652 106.534 74.358V72.783C106.534 72.468 106.366 72.3 106.072 72.3H104.749C104.434 72.3 104.266 72.468 104.266 72.783V74.358C104.266 74.652 104.434 74.82 104.749 74.82ZM104.749 87H106.072C106.366 87 106.534 86.832 106.534 86.538V76.983C106.534 76.668 106.366 76.5 106.072 76.5H104.749C104.434 76.5 104.266 76.668 104.266 76.983V86.538C104.266 86.832 104.434 87 104.749 87ZM114.144 87.273C117.21 87.273 119.688 84.879 119.688 81.75C119.688 78.642 117.21 76.227 114.144 76.227C111.057 76.227 108.6 78.642 108.6 81.75C108.6 84.879 111.057 87.273 114.144 87.273ZM114.144 85.068C112.296 85.068 110.868 83.661 110.868 81.75C110.868 79.839 112.296 78.432 114.144 78.432C115.992 78.432 117.42 79.839 117.42 81.75C117.42 83.661 115.992 85.068 114.144 85.068Z" fill="white"/>
</svg>
