<svg width="200" height="220" viewBox="0 0 200 220" fill="none" xmlns="http://www.w3.org/2000/svg">
<rect width="200" height="220" rx="15" fill="#1E2117"/>
<path d="M0 15C0 6.71573 6.71573 0 15 0H185C193.284 0 200 6.71573 200 15V110H0V15Z" fill="#00B39F"/>
<path d="M44.7217 151H43.2275V139.478H39.1582V138.15H48.791V139.478H44.7217V151ZM51.9727 151H50.5137V141.367H51.9727V151ZM50.3906 138.757C50.3906 138.423 50.4727 138.18 50.6367 138.027C50.8008 137.869 51.0059 137.79 51.252 137.79C51.4863 137.79 51.6885 137.869 51.8584 138.027C52.0283 138.186 52.1133 138.429 52.1133 138.757C52.1133 139.085 52.0283 139.331 51.8584 139.495C51.6885 139.653 51.4863 139.732 51.252 139.732C51.0059 139.732 50.8008 139.653 50.6367 139.495C50.4727 139.331 50.3906 139.085 50.3906 138.757ZM67.3447 151V144.733C67.3447 143.966 67.1807 143.392 66.8525 143.011C66.5244 142.624 66.0146 142.431 65.3232 142.431C64.415 142.431 63.7441 142.691 63.3105 143.213C62.877 143.734 62.6602 144.537 62.6602 145.621V151H61.2012V144.733C61.2012 143.966 61.0371 143.392 60.709 143.011C60.3809 142.624 59.8682 142.431 59.1709 142.431C58.2568 142.431 57.5859 142.706 57.1582 143.257C56.7363 143.802 56.5254 144.698 56.5254 145.946V151H55.0664V141.367H56.2529L56.4902 142.686H56.5605C56.8359 142.217 57.2227 141.851 57.7207 141.587C58.2246 141.323 58.7871 141.191 59.4082 141.191C60.9141 141.191 61.8984 141.736 62.3613 142.826H62.4316C62.7188 142.322 63.1348 141.924 63.6797 141.631C64.2246 141.338 64.8457 141.191 65.543 141.191C66.6328 141.191 67.4473 141.473 67.9863 142.035C68.5312 142.592 68.8037 143.485 68.8037 144.716V151H67.3447ZM75.8877 151.176C74.4639 151.176 73.3389 150.742 72.5127 149.875C71.6924 149.008 71.2822 147.804 71.2822 146.263C71.2822 144.71 71.6631 143.477 72.4248 142.562C73.1924 141.648 74.2207 141.191 75.5098 141.191C76.7168 141.191 77.6719 141.59 78.375 142.387C79.0781 143.178 79.4297 144.224 79.4297 145.524V146.447H72.7939C72.8232 147.578 73.1074 148.437 73.6465 149.022C74.1914 149.608 74.9561 149.901 75.9404 149.901C76.9775 149.901 78.0029 149.685 79.0166 149.251V150.552C78.501 150.774 78.0117 150.933 77.5488 151.026C77.0918 151.126 76.5381 151.176 75.8877 151.176ZM75.4922 142.413C74.7188 142.413 74.1006 142.665 73.6377 143.169C73.1807 143.673 72.9111 144.37 72.8291 145.261H77.8652C77.8652 144.341 77.6602 143.638 77.25 143.151C76.8398 142.659 76.2539 142.413 75.4922 142.413ZM89.7129 149.972C89.9707 149.972 90.2197 149.954 90.46 149.919C90.7002 149.878 90.8906 149.837 91.0312 149.796V150.912C90.873 150.988 90.6387 151.05 90.3281 151.097C90.0234 151.149 89.748 151.176 89.502 151.176C87.6387 151.176 86.707 150.194 86.707 148.231V142.501H85.3271V141.798L86.707 141.191L87.3223 139.135H88.166V141.367H90.9609V142.501H88.166V148.17C88.166 148.75 88.3037 149.195 88.5791 149.506C88.8545 149.816 89.2324 149.972 89.7129 149.972ZM101.279 146.175C101.279 147.745 100.884 148.973 100.093 149.857C99.3018 150.736 98.209 151.176 96.8145 151.176C95.9531 151.176 95.1885 150.974 94.5205 150.569C93.8525 150.165 93.3369 149.585 92.9736 148.829C92.6104 148.073 92.4287 147.188 92.4287 146.175C92.4287 144.604 92.8213 143.383 93.6064 142.51C94.3916 141.631 95.4814 141.191 96.876 141.191C98.2236 141.191 99.293 141.64 100.084 142.536C100.881 143.433 101.279 144.646 101.279 146.175ZM93.9404 146.175C93.9404 147.405 94.1865 148.343 94.6787 148.987C95.1709 149.632 95.8945 149.954 96.8496 149.954C97.8047 149.954 98.5283 149.635 99.0205 148.996C99.5186 148.352 99.7676 147.411 99.7676 146.175C99.7676 144.95 99.5186 144.021 99.0205 143.389C98.5283 142.75 97.7988 142.431 96.832 142.431C95.877 142.431 95.1562 142.744 94.6699 143.371C94.1836 143.998 93.9404 144.933 93.9404 146.175ZM110.631 151L106.975 141.367H108.539L110.613 147.08C111.082 148.416 111.357 149.283 111.439 149.682H111.51C111.574 149.371 111.776 148.729 112.116 147.757C112.462 146.778 113.232 144.648 114.428 141.367H115.992L112.336 151H110.631ZM123.463 151L123.173 149.629H123.103C122.622 150.232 122.142 150.643 121.661 150.859C121.187 151.07 120.592 151.176 119.877 151.176C118.922 151.176 118.172 150.93 117.627 150.438C117.088 149.945 116.818 149.245 116.818 148.337C116.818 146.392 118.374 145.372 121.485 145.278L123.12 145.226V144.628C123.12 143.872 122.956 143.315 122.628 142.958C122.306 142.595 121.787 142.413 121.072 142.413C120.27 142.413 119.361 142.659 118.348 143.151L117.899 142.035C118.374 141.777 118.893 141.575 119.455 141.429C120.023 141.282 120.592 141.209 121.16 141.209C122.309 141.209 123.158 141.464 123.709 141.974C124.266 142.483 124.544 143.301 124.544 144.426V151H123.463ZM120.167 149.972C121.075 149.972 121.787 149.723 122.303 149.225C122.824 148.727 123.085 148.029 123.085 147.133V146.263L121.626 146.324C120.466 146.365 119.628 146.547 119.112 146.869C118.603 147.186 118.348 147.681 118.348 148.354C118.348 148.882 118.506 149.283 118.822 149.559C119.145 149.834 119.593 149.972 120.167 149.972ZM129.018 151H127.559V137.324H129.018V151ZM133.482 141.367V147.616C133.482 148.401 133.661 148.987 134.019 149.374C134.376 149.761 134.936 149.954 135.697 149.954C136.705 149.954 137.44 149.679 137.903 149.128C138.372 148.577 138.606 147.678 138.606 146.43V141.367H140.065V151H138.861L138.65 149.708H138.571C138.272 150.183 137.856 150.546 137.323 150.798C136.796 151.05 136.192 151.176 135.513 151.176C134.341 151.176 133.462 150.897 132.876 150.341C132.296 149.784 132.006 148.894 132.006 147.669V141.367H133.482ZM147.237 151.176C145.813 151.176 144.688 150.742 143.862 149.875C143.042 149.008 142.632 147.804 142.632 146.263C142.632 144.71 143.013 143.477 143.774 142.562C144.542 141.648 145.57 141.191 146.859 141.191C148.066 141.191 149.021 141.59 149.725 142.387C150.428 143.178 150.779 144.224 150.779 145.524V146.447H144.144C144.173 147.578 144.457 148.437 144.996 149.022C145.541 149.608 146.306 149.901 147.29 149.901C148.327 149.901 149.353 149.685 150.366 149.251V150.552C149.851 150.774 149.361 150.933 148.898 151.026C148.441 151.126 147.888 151.176 147.237 151.176ZM146.842 142.413C146.068 142.413 145.45 142.665 144.987 143.169C144.53 143.673 144.261 144.37 144.179 145.261H149.215C149.215 144.341 149.01 143.638 148.6 143.151C148.189 142.659 147.604 142.413 146.842 142.413ZM154.805 148.908L154.937 149.11C154.784 149.696 154.564 150.376 154.277 151.149C153.99 151.929 153.691 152.652 153.381 153.32H152.282C152.44 152.711 152.613 151.958 152.801 151.062C152.994 150.165 153.129 149.447 153.205 148.908H154.805ZM48.9141 162.895C48.9141 164.195 48.4688 165.197 47.5781 165.9C46.6934 166.598 45.4248 166.946 43.7725 166.946H42.2607V172H40.7666V159.15H44.0977C47.3086 159.15 48.9141 160.398 48.9141 162.895ZM42.2607 165.663H43.6055C44.9297 165.663 45.8877 165.449 46.4795 165.021C47.0713 164.594 47.3672 163.908 47.3672 162.965C47.3672 162.115 47.0889 161.482 46.5322 161.066C45.9756 160.65 45.1084 160.442 43.9307 160.442H42.2607V165.663ZM55.4619 172.176C54.0381 172.176 52.9131 171.742 52.0869 170.875C51.2666 170.008 50.8564 168.804 50.8564 167.263C50.8564 165.71 51.2373 164.477 51.999 163.562C52.7666 162.648 53.7949 162.191 55.084 162.191C56.291 162.191 57.2461 162.59 57.9492 163.387C58.6523 164.178 59.0039 165.224 59.0039 166.524V167.447H52.3682C52.3975 168.578 52.6816 169.437 53.2207 170.022C53.7656 170.608 54.5303 170.901 55.5146 170.901C56.5518 170.901 57.5771 170.685 58.5908 170.251V171.552C58.0752 171.774 57.5859 171.933 57.123 172.026C56.666 172.126 56.1123 172.176 55.4619 172.176ZM55.0664 163.413C54.293 163.413 53.6748 163.665 53.2119 164.169C52.7549 164.673 52.4854 165.37 52.4033 166.261H57.4395C57.4395 165.341 57.2344 164.638 56.8242 164.151C56.4141 163.659 55.8281 163.413 55.0664 163.413ZM65.8945 162.191C66.3223 162.191 66.7061 162.227 67.0459 162.297L66.8438 163.65C66.4453 163.562 66.0938 163.519 65.7891 163.519C65.0098 163.519 64.3418 163.835 63.7852 164.468C63.2344 165.101 62.959 165.889 62.959 166.832V172H61.5V162.367H62.7041L62.8711 164.151H62.9414C63.2988 163.524 63.7295 163.041 64.2334 162.701C64.7373 162.361 65.291 162.191 65.8945 162.191ZM73.1895 163.501H70.7373V172H69.2783V163.501H67.5557V162.842L69.2783 162.314V161.778C69.2783 159.411 70.3125 158.228 72.3809 158.228C72.8906 158.228 73.4883 158.33 74.1738 158.535L73.7959 159.704C73.2334 159.522 72.7529 159.432 72.3545 159.432C71.8037 159.432 71.3965 159.616 71.1328 159.985C70.8691 160.349 70.7373 160.935 70.7373 161.743V162.367H73.1895V163.501ZM83.2617 167.175C83.2617 168.745 82.8662 169.973 82.0752 170.857C81.2842 171.736 80.1914 172.176 78.7969 172.176C77.9355 172.176 77.1709 171.974 76.5029 171.569C75.835 171.165 75.3193 170.585 74.9561 169.829C74.5928 169.073 74.4111 168.188 74.4111 167.175C74.4111 165.604 74.8037 164.383 75.5889 163.51C76.374 162.631 77.4639 162.191 78.8584 162.191C80.2061 162.191 81.2754 162.64 82.0664 163.536C82.8633 164.433 83.2617 165.646 83.2617 167.175ZM75.9229 167.175C75.9229 168.405 76.1689 169.343 76.6611 169.987C77.1533 170.632 77.877 170.954 78.832 170.954C79.7871 170.954 80.5107 170.635 81.0029 169.996C81.501 169.352 81.75 168.411 81.75 167.175C81.75 165.95 81.501 165.021 81.0029 164.389C80.5107 163.75 79.7812 163.431 78.8145 163.431C77.8594 163.431 77.1387 163.744 76.6523 164.371C76.166 164.998 75.9229 165.933 75.9229 167.175ZM90.2227 162.191C90.6504 162.191 91.0342 162.227 91.374 162.297L91.1719 163.65C90.7734 163.562 90.4219 163.519 90.1172 163.519C89.3379 163.519 88.6699 163.835 88.1133 164.468C87.5625 165.101 87.2871 165.889 87.2871 166.832V172H85.8281V162.367H87.0322L87.1992 164.151H87.2695C87.627 163.524 88.0576 163.041 88.5615 162.701C89.0654 162.361 89.6191 162.191 90.2227 162.191ZM105.454 172V165.733C105.454 164.966 105.29 164.392 104.962 164.011C104.634 163.624 104.124 163.431 103.433 163.431C102.524 163.431 101.854 163.691 101.42 164.213C100.986 164.734 100.77 165.537 100.77 166.621V172H99.3105V165.733C99.3105 164.966 99.1465 164.392 98.8184 164.011C98.4902 163.624 97.9775 163.431 97.2803 163.431C96.3662 163.431 95.6953 163.706 95.2676 164.257C94.8457 164.802 94.6348 165.698 94.6348 166.946V172H93.1758V162.367H94.3623L94.5996 163.686H94.6699C94.9453 163.217 95.332 162.851 95.8301 162.587C96.334 162.323 96.8965 162.191 97.5176 162.191C99.0234 162.191 100.008 162.736 100.471 163.826H100.541C100.828 163.322 101.244 162.924 101.789 162.631C102.334 162.338 102.955 162.191 103.652 162.191C104.742 162.191 105.557 162.473 106.096 163.035C106.641 163.592 106.913 164.485 106.913 165.716V172H105.454ZM115.852 172L115.562 170.629H115.491C115.011 171.232 114.53 171.643 114.05 171.859C113.575 172.07 112.98 172.176 112.266 172.176C111.311 172.176 110.561 171.93 110.016 171.438C109.477 170.945 109.207 170.245 109.207 169.337C109.207 167.392 110.763 166.372 113.874 166.278L115.509 166.226V165.628C115.509 164.872 115.345 164.315 115.017 163.958C114.694 163.595 114.176 163.413 113.461 163.413C112.658 163.413 111.75 163.659 110.736 164.151L110.288 163.035C110.763 162.777 111.281 162.575 111.844 162.429C112.412 162.282 112.98 162.209 113.549 162.209C114.697 162.209 115.547 162.464 116.098 162.974C116.654 163.483 116.933 164.301 116.933 165.426V172H115.852ZM112.556 170.972C113.464 170.972 114.176 170.723 114.691 170.225C115.213 169.727 115.474 169.029 115.474 168.133V167.263L114.015 167.324C112.854 167.365 112.017 167.547 111.501 167.869C110.991 168.186 110.736 168.681 110.736 169.354C110.736 169.882 110.895 170.283 111.211 170.559C111.533 170.834 111.981 170.972 112.556 170.972ZM126.539 172V165.769C126.539 164.983 126.36 164.397 126.003 164.011C125.646 163.624 125.086 163.431 124.324 163.431C123.316 163.431 122.578 163.703 122.109 164.248C121.641 164.793 121.406 165.692 121.406 166.946V172H119.947V162.367H121.134L121.371 163.686H121.441C121.74 163.211 122.159 162.845 122.698 162.587C123.237 162.323 123.838 162.191 124.5 162.191C125.66 162.191 126.533 162.473 127.119 163.035C127.705 163.592 127.998 164.485 127.998 165.716V172H126.539ZM134.854 172.176C133.459 172.176 132.378 171.748 131.61 170.893C130.849 170.031 130.468 168.815 130.468 167.245C130.468 165.634 130.854 164.389 131.628 163.51C132.407 162.631 133.515 162.191 134.95 162.191C135.413 162.191 135.876 162.241 136.339 162.341C136.802 162.44 137.165 162.558 137.429 162.692L136.98 163.932C136.658 163.803 136.307 163.697 135.926 163.615C135.545 163.527 135.208 163.483 134.915 163.483C132.958 163.483 131.979 164.731 131.979 167.228C131.979 168.411 132.217 169.319 132.691 169.952C133.172 170.585 133.881 170.901 134.818 170.901C135.621 170.901 136.444 170.729 137.288 170.383V171.675C136.644 172.009 135.832 172.176 134.854 172.176ZM143.651 172.176C142.228 172.176 141.103 171.742 140.276 170.875C139.456 170.008 139.046 168.804 139.046 167.263C139.046 165.71 139.427 164.477 140.188 163.562C140.956 162.648 141.984 162.191 143.273 162.191C144.48 162.191 145.436 162.59 146.139 163.387C146.842 164.178 147.193 165.224 147.193 166.524V167.447H140.558C140.587 168.578 140.871 169.437 141.41 170.022C141.955 170.608 142.72 170.901 143.704 170.901C144.741 170.901 145.767 170.685 146.78 170.251V171.552C146.265 171.774 145.775 171.933 145.312 172.026C144.855 172.126 144.302 172.176 143.651 172.176ZM143.256 163.413C142.482 163.413 141.864 163.665 141.401 164.169C140.944 164.673 140.675 165.37 140.593 166.261H145.629C145.629 165.341 145.424 164.638 145.014 164.151C144.604 163.659 144.018 163.413 143.256 163.413Z" fill="white"/>
<path d="M116.569 28.5098V43.0815L119.239 44.6359V30.0642L116.569 28.5098ZM80.7772 44.6359L83.4469 43.0815V28.5098L80.7772 30.0642V44.6359ZM93.8644 44.4924L106.151 51.6268V48.526L94.6487 41.8459L93.8644 42.3003V44.4924ZM106.857 55.764L93.8644 48.2151V51.3159L97.3342 53.3327L93.1593 55.756C92.882 55.9154 92.882 56.33 93.1593 56.4894L95.1953 57.6771L100.004 54.8871L104.813 57.6771L106.849 56.4894C107.134 56.3379 107.134 55.9234 106.857 55.764Z" fill="white"/>
<path d="M116.569 37.1988V50.1204C116.569 50.4473 116.918 50.6545 117.203 50.4871L119.033 49.4269C119.159 49.3552 119.247 49.2117 119.247 49.0602V35.6523L116.569 37.1988ZM111.325 53.8989L113.044 52.8945C113.242 52.7829 113.361 52.5677 113.361 52.3445V39.0641L110.691 40.6185V53.5402C110.691 53.859 111.039 54.0663 111.325 53.8989ZM104.813 57.6853L107.276 56.2584C107.403 56.1867 107.49 56.0432 107.49 55.8917V42.4759L104.813 44.0303V57.6853ZM92.7395 56.2504L95.2032 57.6773V44.0303L92.5335 42.4759V55.8838C92.5335 56.0352 92.6127 56.1787 92.7395 56.2504ZM86.9722 52.9025L88.6913 53.9069C88.9686 54.0663 89.325 53.867 89.325 53.5402V40.6106L86.6553 39.0561V52.3445C86.6553 52.5756 86.7742 52.7909 86.9722 52.9025ZM81.094 49.4907L82.8131 50.4951C83.0904 50.6545 83.4469 50.4552 83.4469 50.1284V37.1988L80.7772 35.6523V48.9407C80.7772 49.1639 80.896 49.3711 81.094 49.4907Z" fill="white"/>
<path d="M119.239 30.0644L116.569 28.51L111.76 31.3L108.56 29.4427L112.735 27.0194C113.012 26.8599 113.012 26.4454 112.735 26.286L111.008 25.2816C110.81 25.17 110.572 25.17 110.374 25.2816L105.882 27.8882L102.682 26.0309L106.857 23.6076C107.134 23.4482 107.134 23.0337 106.857 22.8742L105.13 21.8698C104.931 21.7582 104.694 21.7582 104.496 21.8698L100.004 24.4765L95.5122 21.8698C95.3141 21.7582 95.0765 21.7582 94.8784 21.8698L93.1514 22.8742C92.8741 23.0337 92.8741 23.4482 93.1514 23.6076L116.553 37.2068L119.223 35.6524L114.414 32.8624L119.239 30.0644ZM89.0082 25.2816L87.2891 26.286C87.0118 26.4454 87.0118 26.8599 87.2891 27.0194L110.691 40.6186L113.361 39.0641L89.6419 25.2816C89.4439 25.17 89.2062 25.17 89.0082 25.2816ZM80.7772 30.0644L85.5858 32.8544L80.7772 35.6524L83.4548 37.1988L88.2556 34.4088L91.464 36.2742L86.6553 39.0641L89.325 40.6186L94.1337 37.8206L97.3342 39.6859L92.5256 42.4759L95.2032 44.0303L100.004 41.2324L104.813 44.0303L107.482 42.4759L83.4469 28.51L80.7772 30.0644Z" fill="white"/>
<path d="M75.282 84.1094H69.885V72.2024C69.885 71.8874 69.717 71.7194 69.402 71.7194H67.932C67.638 71.7194 67.47 71.8874 67.47 72.2024V85.9574C67.47 86.2514 67.638 86.4194 67.932 86.4194H68.73H75.282C75.597 86.4194 75.765 86.2514 75.765 85.9574V84.5924C75.765 84.2774 75.597 84.1094 75.282 84.1094ZM77.8748 74.2394H79.1978C79.4918 74.2394 79.6598 74.0714 79.6598 73.7774V72.2024C79.6598 71.8874 79.4918 71.7194 79.1978 71.7194H77.8748C77.5598 71.7194 77.3918 71.8874 77.3918 72.2024V73.7774C77.3918 74.0714 77.5598 74.2394 77.8748 74.2394ZM77.8748 86.4194H79.1978C79.4918 86.4194 79.6598 86.2514 79.6598 85.9574V76.4024C79.6598 76.0874 79.4918 75.9194 79.1978 75.9194H77.8748C77.5598 75.9194 77.3918 76.0874 77.3918 76.4024V85.9574C77.3918 86.2514 77.5598 86.4194 77.8748 86.4194ZM87.5432 75.6464C86.2622 75.6464 85.2332 76.0874 84.5612 77.1164V76.4024C84.5612 76.0874 84.3932 75.9194 84.0992 75.9194H82.7762C82.4612 75.9194 82.2932 76.0874 82.2932 76.4024V85.9574C82.2932 86.2514 82.4612 86.4194 82.7762 86.4194H84.0992C84.3932 86.4194 84.5612 86.2514 84.5612 85.9574V80.3924C84.5612 78.4814 85.6322 77.7674 86.8292 77.7674C87.9212 77.7674 88.7402 78.4394 88.7402 79.8044V85.9574C88.7402 86.2514 88.9082 86.4194 89.2232 86.4194H90.5462C90.8402 86.4194 91.0082 86.2514 91.0082 85.9574V79.6574C91.0082 77.1374 89.4962 75.6464 87.5432 75.6464ZM102.061 85.8524L97.8819 81.0644L101.872 76.5074C102.124 76.1924 101.998 75.9194 101.599 75.9194H100.003C99.7509 75.9194 99.5829 76.0034 99.4359 76.1924L95.6559 80.5814V72.2024C95.6559 71.8874 95.4879 71.7194 95.1939 71.7194H93.8709C93.5559 71.7194 93.3879 71.8874 93.3879 72.2024V85.9574C93.3879 86.2514 93.5559 86.4194 93.8709 86.4194H95.1939C95.4879 86.4194 95.6559 86.2514 95.6559 85.9574V81.5684L99.6459 86.1464C99.7929 86.3354 99.9609 86.4194 100.213 86.4194H101.809C102.208 86.4194 102.334 86.1464 102.061 85.8524ZM108.228 75.6464C104.931 75.6464 102.726 78.0614 102.726 81.1694C102.726 84.3194 104.91 86.6924 108.27 86.6924C110.412 86.6924 112.134 85.6634 112.89 83.9624C113.037 83.6684 112.848 83.4584 112.491 83.4584H111.147C110.895 83.4584 110.748 83.5634 110.58 83.7524C110.118 84.3404 109.299 84.7604 108.291 84.7604C106.695 84.7604 105.414 83.8784 105.057 82.1564H111.126H112.89C113.184 82.1564 113.373 82.0094 113.394 81.7154C113.415 81.5474 113.415 81.3794 113.415 81.1904C113.415 78.1664 111.357 75.6464 108.228 75.6464ZM105.057 80.2874C105.372 78.7124 106.506 77.7254 108.207 77.7254C109.551 77.7254 110.832 78.5024 111.126 80.2874H105.057ZM120.161 75.7724C119.09 75.8774 118.166 76.4024 117.62 77.4944V76.4024C117.62 76.0874 117.452 75.9194 117.137 75.9194H115.814C115.52 75.9194 115.352 76.0874 115.352 76.4024V85.9574C115.352 86.2514 115.52 86.4194 115.814 86.4194H117.137C117.452 86.4194 117.62 86.2514 117.62 85.9574V81.0224C117.62 78.9644 118.922 78.2084 120.287 78.1664C120.518 78.1664 120.644 77.9984 120.644 77.7044V76.2134C120.644 75.9194 120.476 75.7304 120.161 75.7724ZM131.995 71.7194H130.672C130.378 71.7194 130.21 71.8874 130.21 72.2024V77.4314C129.412 76.3394 128.173 75.6464 126.514 75.6464C123.658 75.6464 121.306 78.0614 121.306 81.1694C121.306 84.2984 123.658 86.6924 126.514 86.6924C128.173 86.6924 129.412 86.0204 130.21 84.9284V85.9574C130.21 86.2514 130.378 86.4194 130.672 86.4194H131.995C132.31 86.4194 132.478 86.2514 132.478 85.9574V72.2024C132.478 71.8874 132.31 71.7194 131.995 71.7194ZM126.892 84.5294C125.002 84.5294 123.574 83.1224 123.574 81.1694C123.574 79.2164 125.002 77.8094 126.892 77.8094C128.782 77.8094 130.21 79.2164 130.21 81.1694C130.21 83.1224 128.782 84.5294 126.892 84.5294Z" fill="white"/>
</svg>
