<svg width="200" height="220" viewBox="0 0 200 220" fill="none" xmlns="http://www.w3.org/2000/svg">
<rect width="200" height="220" rx="15" fill="#1E2117"/>
<path d="M44.7217 155H43.2275V143.478H39.1582V142.15H48.791V143.478H44.7217V155ZM51.9727 155H50.5137V145.367H51.9727V155ZM50.3906 142.757C50.3906 142.423 50.4727 142.18 50.6367 142.027C50.8008 141.869 51.0059 141.79 51.252 141.79C51.4863 141.79 51.6885 141.869 51.8584 142.027C52.0283 142.186 52.1133 142.429 52.1133 142.757C52.1133 143.085 52.0283 143.331 51.8584 143.495C51.6885 143.653 51.4863 143.732 51.252 143.732C51.0059 143.732 50.8008 143.653 50.6367 143.495C50.4727 143.331 50.3906 143.085 50.3906 142.757ZM67.3447 155V148.733C67.3447 147.966 67.1807 147.392 66.8525 147.011C66.5244 146.624 66.0146 146.431 65.3232 146.431C64.415 146.431 63.7441 146.691 63.3105 147.213C62.877 147.734 62.6602 148.537 62.6602 149.621V155H61.2012V148.733C61.2012 147.966 61.0371 147.392 60.709 147.011C60.3809 146.624 59.8682 146.431 59.1709 146.431C58.2568 146.431 57.5859 146.706 57.1582 147.257C56.7363 147.802 56.5254 148.698 56.5254 149.946V155H55.0664V145.367H56.2529L56.4902 146.686H56.5605C56.8359 146.217 57.2227 145.851 57.7207 145.587C58.2246 145.323 58.7871 145.191 59.4082 145.191C60.9141 145.191 61.8984 145.736 62.3613 146.826H62.4316C62.7188 146.322 63.1348 145.924 63.6797 145.631C64.2246 145.338 64.8457 145.191 65.543 145.191C66.6328 145.191 67.4473 145.473 67.9863 146.035C68.5312 146.592 68.8037 147.485 68.8037 148.716V155H67.3447ZM75.8877 155.176C74.4639 155.176 73.3389 154.742 72.5127 153.875C71.6924 153.008 71.2822 151.804 71.2822 150.263C71.2822 148.71 71.6631 147.477 72.4248 146.562C73.1924 145.648 74.2207 145.191 75.5098 145.191C76.7168 145.191 77.6719 145.59 78.375 146.387C79.0781 147.178 79.4297 148.224 79.4297 149.524V150.447H72.7939C72.8232 151.578 73.1074 152.437 73.6465 153.022C74.1914 153.608 74.9561 153.901 75.9404 153.901C76.9775 153.901 78.0029 153.685 79.0166 153.251V154.552C78.501 154.774 78.0117 154.933 77.5488 155.026C77.0918 155.126 76.5381 155.176 75.8877 155.176ZM75.4922 146.413C74.7188 146.413 74.1006 146.665 73.6377 147.169C73.1807 147.673 72.9111 148.37 72.8291 149.261H77.8652C77.8652 148.341 77.6602 147.638 77.25 147.151C76.8398 146.659 76.2539 146.413 75.4922 146.413ZM89.7129 153.972C89.9707 153.972 90.2197 153.954 90.46 153.919C90.7002 153.878 90.8906 153.837 91.0312 153.796V154.912C90.873 154.988 90.6387 155.05 90.3281 155.097C90.0234 155.149 89.748 155.176 89.502 155.176C87.6387 155.176 86.707 154.194 86.707 152.231V146.501H85.3271V145.798L86.707 145.191L87.3223 143.135H88.166V145.367H90.9609V146.501H88.166V152.17C88.166 152.75 88.3037 153.195 88.5791 153.506C88.8545 153.816 89.2324 153.972 89.7129 153.972ZM101.279 150.175C101.279 151.745 100.884 152.973 100.093 153.857C99.3018 154.736 98.209 155.176 96.8145 155.176C95.9531 155.176 95.1885 154.974 94.5205 154.569C93.8525 154.165 93.3369 153.585 92.9736 152.829C92.6104 152.073 92.4287 151.188 92.4287 150.175C92.4287 148.604 92.8213 147.383 93.6064 146.51C94.3916 145.631 95.4814 145.191 96.876 145.191C98.2236 145.191 99.293 145.64 100.084 146.536C100.881 147.433 101.279 148.646 101.279 150.175ZM93.9404 150.175C93.9404 151.405 94.1865 152.343 94.6787 152.987C95.1709 153.632 95.8945 153.954 96.8496 153.954C97.8047 153.954 98.5283 153.635 99.0205 152.996C99.5186 152.352 99.7676 151.411 99.7676 150.175C99.7676 148.95 99.5186 148.021 99.0205 147.389C98.5283 146.75 97.7988 146.431 96.832 146.431C95.877 146.431 95.1562 146.744 94.6699 147.371C94.1836 147.998 93.9404 148.933 93.9404 150.175ZM110.631 155L106.975 145.367H108.539L110.613 151.08C111.082 152.416 111.357 153.283 111.439 153.682H111.51C111.574 153.371 111.776 152.729 112.116 151.757C112.462 150.778 113.232 148.648 114.428 145.367H115.992L112.336 155H110.631ZM123.463 155L123.173 153.629H123.103C122.622 154.232 122.142 154.643 121.661 154.859C121.187 155.07 120.592 155.176 119.877 155.176C118.922 155.176 118.172 154.93 117.627 154.438C117.088 153.945 116.818 153.245 116.818 152.337C116.818 150.392 118.374 149.372 121.485 149.278L123.12 149.226V148.628C123.12 147.872 122.956 147.315 122.628 146.958C122.306 146.595 121.787 146.413 121.072 146.413C120.27 146.413 119.361 146.659 118.348 147.151L117.899 146.035C118.374 145.777 118.893 145.575 119.455 145.429C120.023 145.282 120.592 145.209 121.16 145.209C122.309 145.209 123.158 145.464 123.709 145.974C124.266 146.483 124.544 147.301 124.544 148.426V155H123.463ZM120.167 153.972C121.075 153.972 121.787 153.723 122.303 153.225C122.824 152.727 123.085 152.029 123.085 151.133V150.263L121.626 150.324C120.466 150.365 119.628 150.547 119.112 150.869C118.603 151.186 118.348 151.681 118.348 152.354C118.348 152.882 118.506 153.283 118.822 153.559C119.145 153.834 119.593 153.972 120.167 153.972ZM129.018 155H127.559V141.324H129.018V155ZM133.482 145.367V151.616C133.482 152.401 133.661 152.987 134.019 153.374C134.376 153.761 134.936 153.954 135.697 153.954C136.705 153.954 137.44 153.679 137.903 153.128C138.372 152.577 138.606 151.678 138.606 150.43V145.367H140.065V155H138.861L138.65 153.708H138.571C138.272 154.183 137.856 154.546 137.323 154.798C136.796 155.05 136.192 155.176 135.513 155.176C134.341 155.176 133.462 154.897 132.876 154.341C132.296 153.784 132.006 152.894 132.006 151.669V145.367H133.482ZM147.237 155.176C145.813 155.176 144.688 154.742 143.862 153.875C143.042 153.008 142.632 151.804 142.632 150.263C142.632 148.71 143.013 147.477 143.774 146.562C144.542 145.648 145.57 145.191 146.859 145.191C148.066 145.191 149.021 145.59 149.725 146.387C150.428 147.178 150.779 148.224 150.779 149.524V150.447H144.144C144.173 151.578 144.457 152.437 144.996 153.022C145.541 153.608 146.306 153.901 147.29 153.901C148.327 153.901 149.353 153.685 150.366 153.251V154.552C149.851 154.774 149.361 154.933 148.898 155.026C148.441 155.126 147.888 155.176 147.237 155.176ZM146.842 146.413C146.068 146.413 145.45 146.665 144.987 147.169C144.53 147.673 144.261 148.37 144.179 149.261H149.215C149.215 148.341 149.01 147.638 148.6 147.151C148.189 146.659 147.604 146.413 146.842 146.413ZM154.805 152.908L154.937 153.11C154.784 153.696 154.564 154.376 154.277 155.149C153.99 155.929 153.691 156.652 153.381 157.32H152.282C152.44 156.711 152.613 155.958 152.801 155.062C152.994 154.165 153.129 153.447 153.205 152.908H154.805ZM48.9141 166.895C48.9141 168.195 48.4688 169.197 47.5781 169.9C46.6934 170.598 45.4248 170.946 43.7725 170.946H42.2607V176H40.7666V163.15H44.0977C47.3086 163.15 48.9141 164.398 48.9141 166.895ZM42.2607 169.663H43.6055C44.9297 169.663 45.8877 169.449 46.4795 169.021C47.0713 168.594 47.3672 167.908 47.3672 166.965C47.3672 166.115 47.0889 165.482 46.5322 165.066C45.9756 164.65 45.1084 164.442 43.9307 164.442H42.2607V169.663ZM55.4619 176.176C54.0381 176.176 52.9131 175.742 52.0869 174.875C51.2666 174.008 50.8564 172.804 50.8564 171.263C50.8564 169.71 51.2373 168.477 51.999 167.562C52.7666 166.648 53.7949 166.191 55.084 166.191C56.291 166.191 57.2461 166.59 57.9492 167.387C58.6523 168.178 59.0039 169.224 59.0039 170.524V171.447H52.3682C52.3975 172.578 52.6816 173.437 53.2207 174.022C53.7656 174.608 54.5303 174.901 55.5146 174.901C56.5518 174.901 57.5771 174.685 58.5908 174.251V175.552C58.0752 175.774 57.5859 175.933 57.123 176.026C56.666 176.126 56.1123 176.176 55.4619 176.176ZM55.0664 167.413C54.293 167.413 53.6748 167.665 53.2119 168.169C52.7549 168.673 52.4854 169.37 52.4033 170.261H57.4395C57.4395 169.341 57.2344 168.638 56.8242 168.151C56.4141 167.659 55.8281 167.413 55.0664 167.413ZM65.8945 166.191C66.3223 166.191 66.7061 166.227 67.0459 166.297L66.8438 167.65C66.4453 167.562 66.0938 167.519 65.7891 167.519C65.0098 167.519 64.3418 167.835 63.7852 168.468C63.2344 169.101 62.959 169.889 62.959 170.832V176H61.5V166.367H62.7041L62.8711 168.151H62.9414C63.2988 167.524 63.7295 167.041 64.2334 166.701C64.7373 166.361 65.291 166.191 65.8945 166.191ZM73.1895 167.501H70.7373V176H69.2783V167.501H67.5557V166.842L69.2783 166.314V165.778C69.2783 163.411 70.3125 162.228 72.3809 162.228C72.8906 162.228 73.4883 162.33 74.1738 162.535L73.7959 163.704C73.2334 163.522 72.7529 163.432 72.3545 163.432C71.8037 163.432 71.3965 163.616 71.1328 163.985C70.8691 164.349 70.7373 164.935 70.7373 165.743V166.367H73.1895V167.501ZM83.2617 171.175C83.2617 172.745 82.8662 173.973 82.0752 174.857C81.2842 175.736 80.1914 176.176 78.7969 176.176C77.9355 176.176 77.1709 175.974 76.5029 175.569C75.835 175.165 75.3193 174.585 74.9561 173.829C74.5928 173.073 74.4111 172.188 74.4111 171.175C74.4111 169.604 74.8037 168.383 75.5889 167.51C76.374 166.631 77.4639 166.191 78.8584 166.191C80.2061 166.191 81.2754 166.64 82.0664 167.536C82.8633 168.433 83.2617 169.646 83.2617 171.175ZM75.9229 171.175C75.9229 172.405 76.1689 173.343 76.6611 173.987C77.1533 174.632 77.877 174.954 78.832 174.954C79.7871 174.954 80.5107 174.635 81.0029 173.996C81.501 173.352 81.75 172.411 81.75 171.175C81.75 169.95 81.501 169.021 81.0029 168.389C80.5107 167.75 79.7812 167.431 78.8145 167.431C77.8594 167.431 77.1387 167.744 76.6523 168.371C76.166 168.998 75.9229 169.933 75.9229 171.175ZM90.2227 166.191C90.6504 166.191 91.0342 166.227 91.374 166.297L91.1719 167.65C90.7734 167.562 90.4219 167.519 90.1172 167.519C89.3379 167.519 88.6699 167.835 88.1133 168.468C87.5625 169.101 87.2871 169.889 87.2871 170.832V176H85.8281V166.367H87.0322L87.1992 168.151H87.2695C87.627 167.524 88.0576 167.041 88.5615 166.701C89.0654 166.361 89.6191 166.191 90.2227 166.191ZM105.454 176V169.733C105.454 168.966 105.29 168.392 104.962 168.011C104.634 167.624 104.124 167.431 103.433 167.431C102.524 167.431 101.854 167.691 101.42 168.213C100.986 168.734 100.77 169.537 100.77 170.621V176H99.3105V169.733C99.3105 168.966 99.1465 168.392 98.8184 168.011C98.4902 167.624 97.9775 167.431 97.2803 167.431C96.3662 167.431 95.6953 167.706 95.2676 168.257C94.8457 168.802 94.6348 169.698 94.6348 170.946V176H93.1758V166.367H94.3623L94.5996 167.686H94.6699C94.9453 167.217 95.332 166.851 95.8301 166.587C96.334 166.323 96.8965 166.191 97.5176 166.191C99.0234 166.191 100.008 166.736 100.471 167.826H100.541C100.828 167.322 101.244 166.924 101.789 166.631C102.334 166.338 102.955 166.191 103.652 166.191C104.742 166.191 105.557 166.473 106.096 167.035C106.641 167.592 106.913 168.485 106.913 169.716V176H105.454ZM115.852 176L115.562 174.629H115.491C115.011 175.232 114.53 175.643 114.05 175.859C113.575 176.07 112.98 176.176 112.266 176.176C111.311 176.176 110.561 175.93 110.016 175.438C109.477 174.945 109.207 174.245 109.207 173.337C109.207 171.392 110.763 170.372 113.874 170.278L115.509 170.226V169.628C115.509 168.872 115.345 168.315 115.017 167.958C114.694 167.595 114.176 167.413 113.461 167.413C112.658 167.413 111.75 167.659 110.736 168.151L110.288 167.035C110.763 166.777 111.281 166.575 111.844 166.429C112.412 166.282 112.98 166.209 113.549 166.209C114.697 166.209 115.547 166.464 116.098 166.974C116.654 167.483 116.933 168.301 116.933 169.426V176H115.852ZM112.556 174.972C113.464 174.972 114.176 174.723 114.691 174.225C115.213 173.727 115.474 173.029 115.474 172.133V171.263L114.015 171.324C112.854 171.365 112.017 171.547 111.501 171.869C110.991 172.186 110.736 172.681 110.736 173.354C110.736 173.882 110.895 174.283 111.211 174.559C111.533 174.834 111.981 174.972 112.556 174.972ZM126.539 176V169.769C126.539 168.983 126.36 168.397 126.003 168.011C125.646 167.624 125.086 167.431 124.324 167.431C123.316 167.431 122.578 167.703 122.109 168.248C121.641 168.793 121.406 169.692 121.406 170.946V176H119.947V166.367H121.134L121.371 167.686H121.441C121.74 167.211 122.159 166.845 122.698 166.587C123.237 166.323 123.838 166.191 124.5 166.191C125.66 166.191 126.533 166.473 127.119 167.035C127.705 167.592 127.998 168.485 127.998 169.716V176H126.539ZM134.854 176.176C133.459 176.176 132.378 175.748 131.61 174.893C130.849 174.031 130.468 172.815 130.468 171.245C130.468 169.634 130.854 168.389 131.628 167.51C132.407 166.631 133.515 166.191 134.95 166.191C135.413 166.191 135.876 166.241 136.339 166.341C136.802 166.44 137.165 166.558 137.429 166.692L136.98 167.932C136.658 167.803 136.307 167.697 135.926 167.615C135.545 167.527 135.208 167.483 134.915 167.483C132.958 167.483 131.979 168.731 131.979 171.228C131.979 172.411 132.217 173.319 132.691 173.952C133.172 174.585 133.881 174.901 134.818 174.901C135.621 174.901 136.444 174.729 137.288 174.383V175.675C136.644 176.009 135.832 176.176 134.854 176.176ZM143.651 176.176C142.228 176.176 141.103 175.742 140.276 174.875C139.456 174.008 139.046 172.804 139.046 171.263C139.046 169.71 139.427 168.477 140.188 167.562C140.956 166.648 141.984 166.191 143.273 166.191C144.48 166.191 145.436 166.59 146.139 167.387C146.842 168.178 147.193 169.224 147.193 170.524V171.447H140.558C140.587 172.578 140.871 173.437 141.41 174.022C141.955 174.608 142.72 174.901 143.704 174.901C144.741 174.901 145.767 174.685 146.78 174.251V175.552C146.265 175.774 145.775 175.933 145.312 176.026C144.855 176.126 144.302 176.176 143.651 176.176ZM143.256 167.413C142.482 167.413 141.864 167.665 141.401 168.169C140.944 168.673 140.675 169.37 140.593 170.261H145.629C145.629 169.341 145.424 168.638 145.014 168.151C144.604 167.659 144.018 167.413 143.256 167.413Z" fill="white"/>
<path d="M0 15C0 6.71573 6.71573 0 15 0H185C193.284 0 200 6.71573 200 15V110H0V15Z" fill="#00B39F"/>
<path opacity="0.8" d="M116.575 20.2459L101.039 11.2875C100.393 10.9042 99.6066 10.9042 98.9811 11.2875L83.4451 20.2459C82.7793 20.6091 82.396 21.2951 82.396 22.0416V39.9786C82.396 40.3417 82.4767 40.6847 82.6784 41.0076C82.86 41.3304 83.1223 41.5725 83.4451 41.7541L98.9811 50.7125C99.6267 51.0958 100.414 51.0958 101.039 50.7125L116.575 41.7541C117.221 41.3909 117.604 40.7049 117.604 39.9584V22.0416C117.604 21.2951 117.221 20.6091 116.575 20.2459ZM108.968 37.8802C108.968 38.9496 108.02 39.8172 106.709 39.8172C105.76 39.8172 104.651 39.4338 103.985 38.6066L95.0265 27.913V37.8398C95.0265 38.9496 94.1387 39.8373 93.029 39.8373C91.9193 39.8373 91.0315 38.9496 91.0315 37.8398V24.14C91.0315 23.0706 91.9798 22.203 93.2913 22.203C94.2396 22.203 95.3493 22.5864 96.0151 23.4136L96.6204 24.14L104.974 34.1274V24.1803C104.974 23.0706 105.861 22.1829 106.971 22.1829C108.081 22.1829 108.968 23.0706 108.968 24.1803V37.8802Z" fill="white"/>
<path d="M38.8748 64.783V74.275L32.8688 64.615C32.7428 64.405 32.5538 64.3 32.3018 64.3H31.2518C30.9578 64.3 30.7898 64.468 30.7898 64.783V78.538C30.7898 78.832 30.9578 79 31.2518 79H32.7218C33.0368 79 33.2048 78.832 33.2048 78.538V69.025L39.1898 78.706C39.3158 78.916 39.5258 79 39.7778 79H40.8068C41.1218 79 41.2898 78.832 41.2898 78.538V64.783C41.2898 64.468 41.1218 64.3 40.8068 64.3H39.3368C39.0428 64.3 38.8748 64.468 38.8748 64.783ZM57.6834 71.272H51.8034C51.4884 71.272 51.3204 71.44 51.3204 71.755V72.973C51.3204 73.267 51.4884 73.435 51.8034 73.435H55.7724C55.4784 75.892 53.3784 77.026 51.1104 77.026C48.0654 77.026 45.9024 74.779 45.9024 71.65C45.9024 68.626 48.0024 66.379 51.1104 66.379C53.0214 66.379 54.7014 67.387 55.4364 68.794C55.5624 69.025 55.7304 69.13 55.9824 69.13H57.5994C57.9354 69.13 58.1034 68.92 57.9774 68.605C57.0324 65.959 54.3024 64.027 51.1104 64.027C46.6794 64.027 43.4874 67.387 43.4874 71.65C43.4874 75.913 46.6374 79.273 50.9004 79.273C52.9794 79.273 54.7644 78.517 55.8354 77.005V78.538C55.8354 78.853 56.0034 79.021 56.3184 79.021H57.6834C57.9774 79.021 58.1454 78.853 58.1454 78.538V73.456V71.755C58.1454 71.461 57.9774 71.293 57.6834 71.293V71.272ZM60.7928 64.783V78.538C60.7928 78.832 60.9608 79 61.2548 79H62.7248C63.0398 79 63.2078 78.832 63.2078 78.538V64.783C63.2078 64.468 63.0398 64.3 62.7248 64.3H61.2548C60.9608 64.3 60.7928 64.468 60.7928 64.783ZM74.2303 64.783V74.275L68.2243 64.615C68.0983 64.405 67.9093 64.3 67.6573 64.3H66.6073C66.3133 64.3 66.1453 64.468 66.1453 64.783V78.538C66.1453 78.832 66.3133 79 66.6073 79H68.0773C68.3923 79 68.5603 78.832 68.5603 78.538V69.025L74.5453 78.706C74.6713 78.916 74.8813 79 75.1333 79H76.1623C76.4773 79 76.6453 78.832 76.6453 78.538V64.783C76.6453 64.468 76.4773 64.3 76.1623 64.3H74.6923C74.3983 64.3 74.2303 64.468 74.2303 64.783ZM89.8469 78.433L85.6469 71.44L89.5739 64.867C89.7629 64.552 89.6369 64.3 89.2589 64.3H87.5789C87.3269 64.3 87.1379 64.384 87.0119 64.615L84.3029 69.151L81.5939 64.615C81.4469 64.384 81.2789 64.3 81.0269 64.3H79.3259C78.9689 64.3 78.8219 64.552 79.0109 64.867L82.9379 71.44L78.7589 78.433C78.5699 78.769 78.6959 79 79.0739 79H80.7539C81.0059 79 81.1949 78.916 81.3209 78.685L84.3029 73.729L87.2639 78.685C87.4109 78.916 87.5789 79 87.8309 79H89.5319C89.8889 79 90.0359 78.769 89.8469 78.433ZM101.667 79.273C104.313 79.273 106.602 77.782 106.602 75.094C106.602 72.112 103.914 71.335 101.751 70.537C100.26 69.97 99.1046 69.445 99.1046 68.164C99.1046 67.072 100.008 66.379 101.352 66.379C102.654 66.379 103.557 66.967 103.746 68.143C103.788 68.437 103.935 68.584 104.229 68.584H105.699C106.014 68.584 106.182 68.416 106.161 68.101C105.93 65.371 103.746 64.027 101.352 64.027C98.9576 64.027 96.6896 65.476 96.6896 68.164C96.6896 71.188 99.2306 72.007 101.373 72.784C102.885 73.33 104.187 73.855 104.187 75.094C104.187 76.186 103.242 76.921 101.667 76.921C100.05 76.921 98.9996 76.27 98.8106 75.031C98.7686 74.716 98.6216 74.569 98.3276 74.569H96.8576C96.5426 74.569 96.3746 74.737 96.3956 75.052C96.6266 77.887 98.9576 79.273 101.667 79.273ZM113.487 68.227C110.19 68.227 107.985 70.642 107.985 73.75C107.985 76.9 110.169 79.273 113.529 79.273C115.671 79.273 117.393 78.244 118.149 76.543C118.296 76.249 118.107 76.039 117.75 76.039H116.406C116.154 76.039 116.007 76.144 115.839 76.333C115.377 76.921 114.558 77.341 113.55 77.341C111.954 77.341 110.673 76.459 110.316 74.737H116.385H118.149C118.443 74.737 118.632 74.59 118.653 74.296C118.674 74.128 118.674 73.96 118.674 73.771C118.674 70.747 116.616 68.227 113.487 68.227ZM110.316 72.868C110.631 71.293 111.765 70.306 113.466 70.306C114.81 70.306 116.091 71.083 116.385 72.868H110.316ZM125.419 68.353C124.348 68.458 123.424 68.983 122.878 70.075V68.983C122.878 68.668 122.71 68.5 122.395 68.5H121.072C120.778 68.5 120.61 68.668 120.61 68.983V78.538C120.61 78.832 120.778 79 121.072 79H122.395C122.71 79 122.878 78.832 122.878 78.538V73.603C122.878 71.545 124.18 70.789 125.545 70.747C125.776 70.747 125.902 70.579 125.902 70.285V68.794C125.902 68.5 125.734 68.311 125.419 68.353ZM135.837 68.5H134.409C134.157 68.5 133.968 68.626 133.884 68.899L131.385 76.333L128.886 68.899C128.802 68.626 128.613 68.5 128.34 68.5H126.933C126.597 68.5 126.429 68.71 126.534 69.046L130.041 78.622C130.125 78.874 130.314 79 130.566 79H131.049H132.183C132.456 79 132.624 78.874 132.729 78.622L136.215 69.046C136.341 68.71 136.173 68.5 135.837 68.5ZM138.32 66.82H139.643C139.937 66.82 140.105 66.652 140.105 66.358V64.783C140.105 64.468 139.937 64.3 139.643 64.3H138.32C138.005 64.3 137.837 64.468 137.837 64.783V66.358C137.837 66.652 138.005 66.82 138.32 66.82ZM138.32 79H139.643C139.937 79 140.105 78.832 140.105 78.538V68.983C140.105 68.668 139.937 68.5 139.643 68.5H138.32C138.005 68.5 137.837 68.668 137.837 68.983V78.538C137.837 78.832 138.005 79 138.32 79ZM152.335 75.325H150.886C150.613 75.325 150.445 75.451 150.319 75.682C149.815 76.522 148.849 77.047 147.715 77.047C145.867 77.047 144.439 75.64 144.439 73.75C144.439 71.86 145.867 70.453 147.715 70.453C148.849 70.453 149.815 70.978 150.319 71.839C150.445 72.07 150.634 72.175 150.886 72.175H152.335C152.671 72.175 152.86 71.965 152.734 71.65C152.02 69.613 150.046 68.227 147.715 68.227C144.523 68.227 142.171 70.642 142.171 73.75C142.171 76.879 144.523 79.273 147.715 79.273C150.046 79.273 152.041 77.887 152.734 75.871C152.86 75.535 152.671 75.325 152.335 75.325ZM159.609 68.227C156.312 68.227 154.107 70.642 154.107 73.75C154.107 76.9 156.291 79.273 159.651 79.273C161.793 79.273 163.515 78.244 164.271 76.543C164.418 76.249 164.229 76.039 163.872 76.039H162.528C162.276 76.039 162.129 76.144 161.961 76.333C161.499 76.921 160.68 77.341 159.672 77.341C158.076 77.341 156.795 76.459 156.438 74.737H162.507H164.271C164.565 74.737 164.754 74.59 164.775 74.296C164.796 74.128 164.796 73.96 164.796 73.771C164.796 70.747 162.738 68.227 159.609 68.227ZM156.438 72.868C156.753 71.293 157.887 70.306 159.588 70.306C160.932 70.306 162.213 71.083 162.507 72.868H156.438ZM90.017 86.3H89.24H88.064C87.812 86.3 87.623 86.405 87.518 86.657L83.465 95.792L79.391 86.657C79.286 86.405 79.118 86.3 78.845 86.3H78.362H76.892C76.598 86.3 76.43 86.468 76.43 86.783V100.538C76.43 100.832 76.598 101 76.892 101H78.362C78.677 101 78.845 100.832 78.845 100.538V90.311L82.352 98.228C82.457 98.48 82.646 98.585 82.898 98.585H84.011C84.284 98.585 84.452 98.48 84.557 98.228L88.085 90.311V100.538C88.085 100.832 88.253 101 88.547 101H90.017C90.332 101 90.5 100.832 90.5 100.538V86.783C90.5 86.468 90.332 86.3 90.017 86.3ZM98.1979 90.227C94.9009 90.227 92.6959 92.642 92.6959 95.75C92.6959 98.9 94.8799 101.273 98.2399 101.273C100.382 101.273 102.104 100.244 102.86 98.543C103.007 98.249 102.818 98.039 102.461 98.039H101.117C100.865 98.039 100.718 98.144 100.55 98.333C100.088 98.921 99.2689 99.341 98.2609 99.341C96.6649 99.341 95.3839 98.459 95.0269 96.737H101.096H102.86C103.154 96.737 103.343 96.59 103.364 96.296C103.385 96.128 103.385 95.96 103.385 95.771C103.385 92.747 101.327 90.227 98.1979 90.227ZM95.0269 94.868C95.3419 93.293 96.4759 92.306 98.1769 92.306C99.5209 92.306 100.802 93.083 101.096 94.868H95.0269ZM107.275 93.461C107.275 92.663 108.031 92.264 108.976 92.264C109.732 92.264 110.425 92.579 110.593 93.314C110.698 93.587 110.824 93.755 111.097 93.755H112.399C112.714 93.755 112.903 93.587 112.861 93.251C112.63 91.256 110.95 90.227 108.976 90.227C106.813 90.227 105.007 91.403 105.007 93.461C105.007 97.451 110.845 95.96 110.845 98.06C110.845 98.858 110.089 99.236 108.976 99.236C108.073 99.236 107.338 98.942 107.149 98.186C107.044 97.913 106.939 97.766 106.645 97.766H105.343C105.049 97.766 104.86 97.934 104.881 98.249C105.112 100.244 106.834 101.273 108.976 101.273C111.307 101.273 113.113 100.118 113.113 98.06C113.113 94.049 107.275 95.561 107.275 93.461ZM120.497 90.227C119.216 90.227 118.187 90.668 117.515 91.697V86.783C117.515 86.468 117.347 86.3 117.053 86.3H115.73C115.415 86.3 115.247 86.468 115.247 86.783V100.538C115.247 100.832 115.415 101 115.73 101H117.053C117.347 101 117.515 100.832 117.515 100.538V94.973C117.515 93.062 118.586 92.348 119.783 92.348C120.875 92.348 121.694 93.02 121.694 94.385V100.538C121.694 100.832 121.862 101 122.177 101H123.5C123.794 101 123.962 100.832 123.962 100.538V94.238C123.962 91.718 122.45 90.227 120.497 90.227Z" fill="white"/>
</svg>
