<svg xmlns="http://www.w3.org/2000/svg" width="33.075" height="33.076" viewBox="0 0 33.075 33.076"><g id="_02" data-name="2" transform="translate(-2 -2)"><path id="Path_589" fill="#52de97" d="M16.884,31.768H3.654a.551.551,0,0,1-.551-.551V6.41h26.46v4.961a.551.551,0,0,0,1.1,0V3.654A1.654,1.654,0,0,0,29.012,2H3.654A1.654,1.654,0,0,0,2,3.654V31.217a1.654,1.654,0,0,0,1.654,1.654h13.23a.551.551,0,0,0,0-1.1ZM3.654,3.1H29.012a.551.551,0,0,1,.551.551V5.308H3.1V3.654A.551.551,0,0,1,3.654,3.1Z" data-name="Path 589"/><path id="Path_590" fill="#52de97" d="M6,5H7.1V6.1H6Z" data-name="Path 590" transform="translate(-1.795 -1.346)"/><path id="Path_591" fill="#52de97" d="M10,5h1.1V6.1H10Z" data-name="Path 591" transform="translate(-3.59 -1.346)"/><path id="Path_592" fill="#52de97" d="M14,5h1.1V6.1H14Z" data-name="Path 592" transform="translate(-5.385 -1.346)"/><path id="Path_593" fill="#52de97" d="M8,14.551V34.4a.551.551,0,1,0,1.1,0V14.551a.551.551,0,1,0-1.1,0Z" data-name="Path 593" transform="translate(-2.692 -5.385)"/><path id="Path_594" fill="#52de97" d="M14.664,15.245a.551.551,0,0,0-.765-.153l-1.654,1.1a.551.551,0,0,0,0,.917l1.654,1.1a.551.551,0,1,0,.612-.917l-.967-.644L14.51,16a.551.551,0,0,0,.154-.765Z" data-name="Path 594" transform="translate(-4.487 -5.833)"/><path id="Path_595" fill="#52de97" d="M23.857,18.215l1.654-1.1a.551.551,0,0,0,0-.917l-1.654-1.1a.551.551,0,1,0-.612.917l.967.644-.966.644a.551.551,0,1,0,.612.917Z" data-name="Path 595" transform="translate(-9.423 -5.833)"/><path id="Path_596" fill="#52de97" d="M18.55,18.409a.551.551,0,0,0,.523-.377l1.1-3.307a.552.552,0,1,0-1.047-.348l-1.1,3.308a.551.551,0,0,0,.524.725Z" data-name="Path 596" transform="translate(-7.179 -5.384)"/><path id="Path_597" fill="#52de97" d="M12,25h2.2v1.1H12Z" data-name="Path 597" transform="translate(-4.487 -10.321)"/><path id="Path_598" fill="#52de97" d="M18,25h3.308v1.1H18Z" data-name="Path 598" transform="translate(-7.18 -10.321)"/><path id="Path_599" fill="#52de97" d="M16,29h7.718v1.1H16Z" data-name="Path 599" transform="translate(-6.282 -12.116)"/><path id="Path_600" fill="#52de97" d="M16,33h1.1v1.1H16Z" data-name="Path 600" transform="translate(-6.282 -13.911)"/><path id="Path_601" fill="#52de97" d="M20,33h5.513v1.1H20Z" data-name="Path 601" transform="translate(-8.077 -13.911)"/><path id="Path_602" fill="#52de97" d="M12,37h2.2v1.1H12Z" data-name="Path 602" transform="translate(-4.487 -15.706)"/><path id="Path_603" fill="#52de97" d="M18,37h3.308v1.1H18Z" data-name="Path 603" transform="translate(-7.18 -15.706)"/><path id="Path_604" fill="#52de97" d="M16,41h7.718v1.1H16Z" data-name="Path 604" transform="translate(-6.282 -17.501)"/><path id="Path_605" fill="#52de97" d="M16,45h5.513v1.1H16Z" data-name="Path 605" transform="translate(-6.282 -19.296)"/><path id="Path_606" fill="#52de97" d="M12,49h2.2v1.1H12Z" data-name="Path 606" transform="translate(-4.487 -21.091)"/><path id="Path_607" fill="#52de97" d="M18,49h3.308v1.1H18Z" data-name="Path 607" transform="translate(-7.18 -21.091)"/><path id="Path_608" fill="#52de97" d="M47.987,22H34.756a.551.551,0,0,0-.551.551V24.2H32.551a.551.551,0,0,0-.551.551V43.5a.551.551,0,0,0,.551.551h13.23a.551.551,0,0,0,.551-.551V41.846h1.654a.551.551,0,0,0,.551-.551V22.551a.551.551,0,0,0-.55-.551ZM45.23,42.948H33.1V25.308h8.82v2.756a.551.551,0,0,0,.551.551H45.23Zm-.779-15.435H43.025V26.087Zm2.985,13.23h-1.1V28.064a.556.556,0,0,0-.162-.39l-3.308-3.308a.556.556,0,0,0-.39-.162H35.308V23.1H47.435Z" data-name="Path 608" transform="translate(-13.462 -8.975)"/><path id="Path_609" fill="#52de97" d="M28,45h1.1v1.1H28Z" data-name="Path 609" transform="translate(-11.667 -19.296)"/><path id="Path_610" fill="#52de97" d="M36,32h2.205v1.1H36Z" data-name="Path 610" transform="translate(-15.257 -13.462)"/><path id="Path_611" fill="#52de97" d="M42,32h3.308v1.1H42Z" data-name="Path 611" transform="translate(-17.949 -13.462)"/><path id="Path_612" fill="#52de97" d="M40,36h7.718v1.1H40Z" data-name="Path 612" transform="translate(-17.052 -15.257)"/><path id="Path_613" fill="#52de97" d="M40,40h1.1v1.1H40Z" data-name="Path 613" transform="translate(-17.052 -17.052)"/><path id="Path_614" fill="#52de97" d="M44,40h5.513v1.1H44Z" data-name="Path 614" transform="translate(-18.847 -17.052)"/><path id="Path_615" fill="#52de97" d="M36,44h2.205v1.1H36Z" data-name="Path 615" transform="translate(-15.257 -18.847)"/><path id="Path_616" fill="#52de97" d="M42,44h3.308v1.1H42Z" data-name="Path 616" transform="translate(-17.949 -18.847)"/><path id="Path_617" fill="#52de97" d="M40,48h7.718v1.1H40Z" data-name="Path 617" transform="translate(-17.052 -20.642)"/><path id="Path_618" fill="#52de97" d="M40,52h5.513v1.1H40Z" data-name="Path 618" transform="translate(-17.052 -22.437)"/><path id="Path_619" fill="#52de97" d="M36,56h2.205v1.1H36Z" data-name="Path 619" transform="translate(-15.257 -24.232)"/><path id="Path_620" fill="#52de97" d="M42,56h3.308v1.1H42Z" data-name="Path 620" transform="translate(-17.949 -24.232)"/><path id="Path_621" fill="#52de97" d="M52,52h1.1v1.1H52Z" data-name="Path 621" transform="translate(-22.437 -22.437)"/></g></svg>