<svg xmlns="http://www.w3.org/2000/svg" width="28.128" height="33.001" viewBox="0 0 28.128 33.001"><g id="_05" data-name="5" transform="translate(-6.004 -2)"><path id="Path_665" fill="#52de97" d="M34.032,13.892c-.022-.2-.1-.618-.1-.618a.534.534,0,0,0-.524-.454h-1.44V2.541A.541.541,0,0,0,31.427,2h-5.41a.541.541,0,0,0-.541.541V12.82H23.312V5.787a1.049,1.049,0,0,0-.054-.242L21.635,2.3a.564.564,0,0,0-.968,0L19.044,5.545a1.049,1.049,0,0,0-.06.242V12.82H15.2V7.41h.541V11.2a.541.541,0,0,0,1.082,0V6.869a.541.541,0,0,0-.541-.541h-.541V3.623A1.623,1.623,0,0,0,14.115,2H13.033A1.623,1.623,0,0,0,11.41,3.623V6.869a.541.541,0,0,0,.541.541v5.41H8.889a.23.23,0,0,0-.089.014.535.535,0,0,0-.445.433,13,13,0,0,0-.192,2.015,1.481,1.481,0,0,1-.043.345L6.02,24.05a.541.541,0,0,0,.525.672h2.7v3.787a1.623,1.623,0,0,0,1.623,1.623h3.787a.541.541,0,0,1,.541.541V34.46a.541.541,0,0,0,.541.541h10.82a.541.541,0,0,0,.541-.541V29.175A3.787,3.787,0,0,1,28.685,26.1a13.03,13.03,0,0,0,5.347-12.206ZM26.558,3.082h4.328V4.164H29.263a.541.541,0,1,0,0,1.082h1.623V6.328H29.263a.541.541,0,1,0,0,1.082h1.623V8.492H29.263a.541.541,0,1,0,0,1.082h1.623v1.082H29.263a.541.541,0,1,0,0,1.082h1.623V12.82H26.558ZM20.607,7.634V12.82h-.541V7.093ZM22.23,12.82h-.541V7.634l.541-.541ZM19.941,13.9h2.414a1.623,1.623,0,1,1-2.414,0ZM21.148,3.751l.965,1.928-.965.966-.965-.966ZM18.672,13.9a2.7,2.7,0,1,0,4.953,0h4.556v2.164H26.309a.541.541,0,0,0-.515.375,4.45,4.45,0,0,1-.327.782.541.541,0,0,0,.092.642l1.327,1.327-1.528,1.529L24.03,19.4a.541.541,0,0,0-.643-.092,4.389,4.389,0,0,1-.782.327.541.541,0,0,0-.375.515v1.872H20.066V20.145a.541.541,0,0,0-.375-.515,4.389,4.389,0,0,1-.782-.327.541.541,0,0,0-.643.092l-1.327,1.327-1.526-1.529,1.327-1.327a.541.541,0,0,0,.092-.642,4.45,4.45,0,0,1-.327-.782.541.541,0,0,0-.518-.375H14.115V13.9ZM12.492,3.623a.541.541,0,0,1,.541-.541h1.082a.541.541,0,0,1,.541.541V6.328H12.492Zm.541,3.787h1.082v5.41H13.033ZM28.056,25.218a4.872,4.872,0,0,0-2.039,3.956v4.745H16.279V30.673a1.623,1.623,0,0,0-1.623-1.623H10.869a.541.541,0,0,1-.541-.541V24.181a.541.541,0,0,0-.541-.541H7.234l1.937-7.755a2.5,2.5,0,0,0,.075-.6A11.694,11.694,0,0,1,9.361,13.9h3.672v2.7a.541.541,0,0,0,.541.541H15.6c.031.078.062.153.094.226l-1.436,1.436a.541.541,0,0,0,0,.765l2.294,2.294a.541.541,0,0,0,.765,0l1.436-1.436c.074.032.149.063.227.094v2.03a.541.541,0,0,0,.541.541h3.246a.541.541,0,0,0,.541-.541v-2.03c.078-.031.153-.062.227-.094l1.436,1.436a.557.557,0,0,0,.765,0l2.294-2.294a.541.541,0,0,0,0-.765L26.6,17.374c.032-.073.063-.148.094-.226h2.03a.541.541,0,0,0,.541-.541V13.9h3.679c.005.039.012.075.017.114a11.956,11.956,0,0,1-4.9,11.2Z" data-name="Path 665"/><path id="Path_666" fill="#52de97" d="M40.541,43.554a.541.541,0,0,1-.2-1.044c.173-.069.345-.143.513-.221a.541.541,0,1,1,.456.981q-.28.13-.569.245a.541.541,0,0,1-.2.038Z" data-name="Path 666" transform="translate(-15.606 -18.469)"/><path id="Path_667" fill="#52de97" d="M45.2,34.655a.541.541,0,0,1-.333-.968,9.712,9.712,0,0,0,3.748-7.175.542.542,0,0,1,1.082.054,10.8,10.8,0,0,1-4.166,7.973.537.537,0,0,1-.331.116Z" data-name="Path 667" transform="translate(-17.746 -11.014)"/></g></svg>