<svg width="600" height="400" viewBox="0 0 600 400" fill="none" xmlns="http://www.w3.org/2000/svg">
<g clip-path="url(#clip0_1064_312)">
<rect width="600" height="400" fill="white"/>
<g filter="url(#filter0_f_1064_312)">
<path d="M3.22559 -13.6934L83.3238 21.196L550.154 56.5768L609.122 393.677V-226.961H3.22559V-13.6934Z" fill="#F0EC0D"/>
</g>
<g filter="url(#filter1_f_1064_312)">
<path d="M63.1758 -16.2898V44.2918H332.954H535.903L553.593 -46.8535L502.979 -72.5052L487.254 -131.449H432.709L332.954 -163.65L289.711 -116.168L231.235 -226.961H90.6942L155.068 -33.7548L63.1758 -16.2898Z" fill="#D84938"/>
</g>
<g filter="url(#filter2_f_1064_312)">
<path d="M6.66422 9.89404L88.2366 53.1372L43.0278 186.798L11.9416 173.915L88.2366 364.193L176.689 396.134L317.72 364.193L456.295 379.918L515.263 339.132L554.084 186.798L615.017 223.162V577.461H-11.5176L6.19388 171.533L-11.5176 164.194L6.66422 9.89404Z" fill="#22B5B1"/>
</g>
<path d="M130.35 151.94C121.62 158.24 113.25 164 104.7 169.67C104.16 170.12 103.8 170.75 103.62 171.38C100.74 181.19 98.5797 191.18 96.6897 201.17C96.4197 202.16 96.5997 203.33 97.2297 204.14C98.8497 206.48 98.2197 211.97 96.3297 214.13C95.7897 214.76 95.1597 215.3 94.3497 215.03C93.5397 214.76 93.3597 213.86 93.2697 213.14C92.9997 210.89 93.2697 208.73 93.9897 206.57C95.7897 201.35 96.6897 195.77 97.7697 190.37C99.2097 183.8 101.1 177.41 102.81 170.93C103.08 169.76 103.98 169.22 104.79 168.59C112.44 163.37 120.09 158.06 127.74 152.84C129.9 151.49 131.52 149.24 132.06 146.72C132.33 145.55 132.06 145.28 131.07 145.1C129.18 144.74 127.38 144.11 125.58 143.21C114.33 137.81 110.91 129.17 114.69 116.93C116.67 110.45 120.81 105.68 127.65 103.79C129.72 103.16 131.7 102.35 133.5 101.18C136.38 99.4703 139.62 98.3903 142.95 98.0303C143.76 97.8503 144.66 97.9403 145.38 98.3903C141.42 99.2903 137.64 99.6503 134.04 101.81C138.99 102.62 143.13 99.4703 147.72 100.64L140.52 101.99C142.68 102.8 144.84 103.79 146.91 104.87C154.92 109.55 159.33 118.37 157.98 127.1C156.63 135.83 149.61 143.12 140.61 145.1C138.81 145.46 136.92 145.55 135.03 145.46C134.04 145.28 133.05 146 132.87 146.99C132.06 149.15 132.06 151.49 132.78 153.56C136.2 163.73 140.34 173.63 145.29 183.08C146.46 185.33 146.46 185.33 148.17 183.44C152.31 178.94 155.55 173.81 158.43 168.5C159.51 166.61 160.5 164.72 161.58 162.92C162.48 161.48 162.93 159.77 163.02 158.06C163.2 154.64 164.73 151.76 166.89 149.15C167.43 148.43 168.15 147.98 169.14 148.34C170.13 148.7 170.31 149.6 170.22 150.41C169.95 153.65 169.14 156.71 166.98 159.32C166.62 159.68 166.26 160.22 165.9 160.31C163.38 160.49 162.93 162.65 162.03 164.27C158.79 170.03 155.73 175.79 151.59 180.92C150.33 182.54 148.89 184.07 147.36 185.42C146.1 186.5 145.47 186.32 144.66 184.79C139.98 175.61 135.66 166.34 132.6 156.44C132.24 155.45 131.97 154.37 131.61 153.38C130.71 153.56 130.8 154.37 130.71 154.91C127.29 166.43 125.4 178.13 124.05 190.01C123.33 195.77 122.79 201.53 122.43 207.29C122.25 208.55 122.88 209.81 123.96 210.44C134.58 218.36 145.65 225.56 156.72 232.67C157.35 233.03 157.89 233.57 158.16 234.2C161.49 242.48 166.35 249.86 170.67 257.6C173.1 261.92 175.71 266.24 177.78 270.83C178.32 272.09 178.86 272 179.76 271.28C182.46 269.03 185.79 267.59 189.3 267.32C190.2 267.23 191.28 266.96 191.73 268.04C192.18 269.12 191.37 269.84 190.65 270.38C187.23 272.81 183.18 274.07 178.95 274.07C178.23 274.16 177.51 273.71 177.24 272.99C173.37 264.26 168.15 256.34 163.56 248.06C161.13 244.01 159.06 239.78 157.35 235.46C157.08 234.83 156.63 234.2 156.09 233.84C144.84 226.73 133.59 219.62 123.24 211.34C122.97 211.16 122.7 211.07 122.43 210.98C121.89 212.15 122.07 213.32 121.98 214.4C121.62 227 120.54 239.51 118.83 251.93C117.66 260.39 115.05 268.58 113.07 276.95C111.81 282.26 110.64 287.57 109.47 292.79C109.2 294.05 109.2 294.59 110.82 294.23C113.52 293.69 116.4 293.6 119.1 294.05C120 294.14 121.08 294.5 121.17 295.58C121.26 296.66 120.27 297.02 119.46 297.29C116.4 298.37 113.07 299 109.83 299C107.94 299.09 107.22 297.83 107.76 295.49C109.11 289.64 110.37 283.79 111.81 277.94C113.7 270.02 115.77 262.1 117.39 254.18C118.65 248.42 118.56 242.57 119.19 236.72C120.9 221.78 120.72 206.75 122.52 191.81C124.05 179.21 126.03 166.61 129.54 154.37C129.9 153.83 129.99 153.2 130.35 151.94ZM137.19 129.08C137.82 129.08 138.45 129.44 138.81 129.89C142.41 132.86 146.91 134.66 151.5 134.84C153.39 134.93 154.29 134.3 155.1 132.68C156.54 129.62 156.72 126.38 156.9 123.14C157.17 119.72 153.93 117.56 154.29 114.23C150.51 107.03 141.51 102.35 133.41 102.98C131.61 103.16 130.71 104.51 129.09 104.6C125.22 104.87 121.71 106.76 119.37 109.82C115.14 115.13 113.43 122.06 114.78 128.81C115.95 135.38 120.54 139.25 126.3 142.04C134.85 146.18 145.47 144.56 151.5 138.08C152.04 137.54 152.94 137 152.67 136.19C152.4 135.56 151.41 135.92 150.69 135.83C146.46 135.74 142.32 134.21 139.08 131.42C138.27 130.97 137.37 130.34 137.19 129.08ZM169.14 151.13C168.96 150.32 169.5 149.15 168.42 148.88C167.7 148.7 167.25 149.69 166.8 150.32C165.27 152.48 164.37 155 164.1 157.7C164.01 158.42 163.92 159.23 164.73 159.59C165.54 159.95 166.08 159.23 166.44 158.69C168.06 156.44 168.96 153.83 169.14 151.13ZM120 295.85C116.49 294.41 112.98 294.59 109.47 295.49C108.93 295.58 108.39 295.94 108.48 296.66C108.57 297.29 109.11 297.83 109.74 297.92C113.43 298.19 116.94 297.47 120 295.85ZM179.4 272.9C183.18 273.17 186.6 271.82 189.75 270.02C190.2 269.75 190.92 269.39 190.74 268.76C190.47 267.95 189.66 268.22 189.03 268.31C185.34 268.67 182.01 270.29 179.4 272.9ZM96.9597 208.64C97.0497 207.47 96.8697 206.39 96.4197 205.31C96.3297 205.04 95.9697 204.68 95.6997 204.59C95.4297 204.5 95.1597 205.04 95.0697 205.31C94.4397 207.83 94.1697 210.35 94.2597 212.96C94.2597 213.41 94.6197 213.95 94.9797 213.95C95.4297 213.95 95.7897 213.68 95.9697 213.23C96.6897 211.7 97.0497 210.17 96.9597 208.64Z" fill="black"/>
<path d="M446.609 199.55C448.679 209.27 450.299 218.72 450.659 228.17C450.929 236.81 454.169 244.37 457.409 252.11C458.489 254.54 459.839 256.79 461.369 258.95C462.359 260.48 463.439 260.48 464.789 259.76C467.759 258.14 470.459 256.25 473.069 254C475.679 251.84 478.289 249.59 480.899 247.34C481.349 246.98 481.709 246.35 482.339 246.71C482.969 246.98 482.789 247.7 482.789 248.24C482.789 250.49 483.689 252.65 485.129 254.27C485.579 254.72 486.029 255.44 486.659 255.08C487.109 254.81 486.839 254 486.749 253.46C486.029 250.85 483.779 249.41 482.339 247.16C482.429 247.07 482.609 246.89 482.609 246.98C484.859 248.06 488.369 252.83 487.739 255.26C487.379 256.61 486.569 256.79 485.489 256.07C483.689 254.81 482.519 252.92 482.159 250.76C481.979 249.86 481.889 248.96 481.619 247.79C479.369 249.77 477.299 251.57 475.139 253.37C472.259 255.98 469.109 258.23 465.869 260.21C462.449 262.19 461.819 262.01 459.569 258.95C455.789 253.82 454.079 247.7 451.829 241.85C451.649 241.22 451.379 240.68 451.199 240.05C450.659 239.96 450.569 240.32 450.479 240.59C447.239 249.05 444.089 257.51 440.849 265.97C440.219 267.5 440.309 269.21 440.939 270.74C443.639 278.12 446.249 285.5 448.949 292.88C449.759 294.95 449.309 296.3 447.509 297.38C444.899 298.82 442.289 300.35 439.139 300.53C438.239 300.53 437.069 300.71 436.709 299.63C436.349 298.55 437.159 297.92 437.969 297.38C440.399 295.67 443.189 294.59 446.069 294.23C447.419 294.05 447.869 293.78 447.329 292.34C444.629 285.05 442.109 277.67 439.319 270.38C438.959 269.21 438.959 267.95 439.499 266.87C441.929 259.49 444.899 252.29 447.779 245.09C449.579 240.68 450.299 235.91 449.759 231.14C448.769 221.96 447.689 212.87 446.159 203.78C446.159 203.51 446.069 203.24 445.889 202.7C445.079 203.87 445.079 205.04 444.899 206.12C443.549 212.96 441.119 219.44 438.149 225.65C437.339 227.45 436.259 227.81 434.459 227.18C428.609 225.11 423.299 221.96 418.799 217.73C417.989 216.83 416.909 216.29 415.739 216.02C413.849 215.66 412.139 214.49 411.059 212.87C410.339 211.88 409.979 210.71 410.789 209.72C411.509 208.64 412.679 208.82 413.759 209.09C415.919 209.63 417.179 211.34 417.809 213.23C418.619 215.57 420.149 217.1 421.949 218.54C425.819 221.6 430.139 224.12 434.729 225.92C436.259 226.55 436.979 226.19 437.699 224.75C441.029 217.64 443.459 210.17 444.989 202.43C445.259 200.63 445.259 198.74 444.809 196.94C444.449 194.78 443.639 193.97 441.299 194.15C436.529 194.6 432.299 192.89 428.429 190.28C422.579 186.32 420.419 180.74 421.499 173.9C422.489 167.51 425.189 162.2 431.579 159.5C433.649 158.6 435.179 156.89 437.069 155.81C438.509 155 439.769 154.1 441.659 154.1L435.539 157.79C439.229 157.7 442.019 156.26 445.259 154.91C444.629 156.44 443.459 156.44 442.559 157.25C445.529 157.79 448.319 159.05 450.839 160.76C456.779 164.99 459.929 170.75 459.119 178.04C458.309 185.33 454.169 190.28 447.329 193.07C446.609 193.34 445.079 193.25 445.439 194.6C445.889 196.13 445.349 198.38 447.599 199.1C453.179 200.99 458.399 203.69 463.619 206.3C467.219 208.19 470.549 210.62 473.429 213.5C474.869 214.85 474.869 215.93 473.789 217.46C470.549 221.78 467.039 226.01 463.439 229.97C462.089 231.32 461.189 233.12 460.829 235.01C460.559 237.17 459.659 239.24 458.219 240.77C457.769 241.22 457.319 241.76 456.599 241.4C455.969 241.04 456.149 240.41 456.149 239.87C456.509 237.08 457.859 234.56 459.839 232.58C464.519 227.72 468.839 222.68 472.979 217.28C473.879 216.11 473.789 215.48 472.799 214.49C468.389 210.53 463.439 207.2 457.949 204.77C454.169 202.7 450.389 201.08 446.609 199.55ZM428.519 188.48C432.929 191.54 437.339 192.89 442.199 192.44C450.929 191.81 457.679 184.52 457.769 175.7C457.769 167.15 450.749 159.41 442.289 158.42C437.969 157.88 434.099 159.41 430.409 161.03C427.259 162.38 425.459 165.26 424.199 168.5C425.099 168.68 425.639 167.78 426.539 168.32C425.279 169.4 423.479 169.94 423.119 171.74C422.129 176.51 422.039 181.19 425.189 185.24C426.899 187.58 427.799 187.76 430.499 186.5C434.009 184.79 436.259 181.91 438.419 178.85C438.779 178.31 438.959 177.5 439.949 177.14C440.129 179.48 439.859 181.82 439.319 184.16C438.689 186.68 437.429 187.76 434.819 188.03C432.839 188.3 430.949 188.3 428.519 188.48ZM448.229 295.31C444.629 294.77 441.479 296.03 438.509 297.83C438.149 298.1 437.609 298.37 437.789 299C437.969 299.45 438.509 299.45 438.869 299.45C442.649 299.36 445.529 297.74 448.229 295.31ZM431.219 187.22C437.519 187.22 438.239 186.5 438.689 180.2C436.529 182.81 434.369 185.15 431.219 187.22ZM417.179 214.31C416.999 212.78 414.479 209.99 413.039 209.72C412.499 209.63 411.869 209.45 411.509 210.08C411.149 210.71 411.509 211.07 411.779 211.43C412.859 213.05 414.389 214.22 416.279 214.85C416.729 215.03 417.359 215.21 417.179 214.31ZM459.929 233.3C457.949 235.01 456.959 237.62 457.319 240.14C458.759 238.16 459.659 235.82 459.929 233.3Z" fill="black"/>
<path d="M195.419 263.54C210.179 253.37 226.739 245.9 244.109 241.58C227.009 247.07 210.629 253.91 195.419 263.54Z" fill="black"/>
<path d="M160.949 252.11C164.729 259.04 167.249 266.51 170.669 273.71C167.969 271.28 161.579 257.42 160.949 252.11Z" fill="black"/>
<path d="M211.8 249.41C220.26 244.37 229.44 240.86 238.98 238.79C229.71 241.94 220.44 244.82 211.8 249.41Z" fill="black"/>
<path d="M259.5 240.68C254.64 237.8 252.12 230.33 254.37 225.29C253.74 231.14 256.17 236.09 259.5 240.68Z" fill="black"/>
<path d="M248.699 230.42C248.609 234.83 250.409 239.15 253.649 242.12C249.239 240.5 246.899 234.65 248.699 230.42Z" fill="#00B39F"/>
<path d="M234.119 251.03C239.519 248.51 245.279 246.71 251.129 245.81C245.549 247.79 239.789 249.14 234.119 251.03Z" fill="black"/>
<path d="M241.59 221.51C246.72 219.08 252.3 217.73 257.79 216.47C252.57 218.63 247.08 220.07 241.59 221.51Z" fill="black"/>
<path d="M166.709 274.79C164.729 271.37 162.839 267.86 161.939 263.81C164.369 267.05 165.629 270.83 166.709 274.79Z" fill="black"/>
<path d="M86.5194 219.17C84.3594 216.65 84.3594 213.68 84.9894 210.62C85.4394 213.41 85.7994 216.29 86.5194 219.17Z" fill="black"/>
<path d="M89.6691 208.82C90.1191 211.61 89.7591 214.31 91.1091 216.92C88.8591 215.39 88.3191 212.24 89.6691 208.82Z" fill="black"/>
<path d="M162.03 236.81C161.67 233.93 160.32 231.23 158.16 229.25C161.31 230.33 163.02 233.66 162.03 236.81Z" fill="black"/>
<path d="M409.62 214.67C406.83 212.96 406.2 211.16 407.73 208.37C407.46 211.07 408.72 212.78 409.62 214.67Z" fill="black"/>
<path d="M434.01 229.34C436.53 229.43 438.42 228.26 440.4 226.46C438.96 229.52 435.99 230.78 434.01 229.34Z" fill="black"/>
<path d="M477.66 211.07C479.82 211.88 480.18 214.85 478.47 217.64C478.56 215.3 479.28 213.05 477.66 211.07Z" fill="black"/>
<path d="M172.92 153.29C172.92 150.95 173.1 149.06 172.47 147.08C174.18 148.25 174.36 150.68 172.92 153.29Z" fill="black"/>
<path d="M176.699 151.94V145.82H177.239C178.049 147.98 177.509 149.96 176.699 151.94Z" fill="black"/>
<path d="M480.359 244.73C482.069 242.93 483.509 242.75 485.399 244.28C483.419 243.74 481.799 243.83 480.359 244.73Z" fill="black"/>
<path d="M482.34 215.21V210.26C483.24 211.7 483.42 213.23 482.34 215.21Z" fill="black"/>
<path d="M437.249 271.28C435.719 269.84 435.809 268.22 436.979 266.6C436.349 268.22 436.889 269.75 437.249 271.28Z" fill="black"/>
<path d="M194.249 272.81C194.609 270.74 194.789 269.39 195.059 267.68C195.869 269.66 195.779 270.2 194.249 272.81Z" fill="black"/>
<path d="M145.38 123.051C145.38 121.251 147 118.821 148.17 119.001C149.34 119.181 149.61 120.171 149.61 121.251C149.61 122.961 147.99 124.941 146.64 124.851C145.56 124.761 145.38 123.951 145.38 123.051Z" fill="black"/>
<path d="M155.009 122.96C154.829 124.22 154.739 125.84 152.759 126.02C151.679 126.11 151.319 125.21 151.319 124.31C151.319 122.6 152.489 120.62 153.569 120.62C154.559 120.53 155.009 121.25 155.009 122.96Z" fill="black"/>
<path d="M428.609 174.8C428.789 173.45 428.789 171.74 430.499 171.74C431.849 171.65 432.119 173.18 432.029 174.35C431.939 175.79 431.489 177.23 429.869 177.32C428.519 177.41 428.789 175.88 428.609 174.8Z" fill="black"/>
<path d="M426.81 176.06C426.9 176.96 426.45 177.86 425.73 178.49C425.01 179.03 424.29 178.85 424.02 178.04C423.48 176.6 423.57 175.07 424.2 173.72C424.65 172.73 425.46 172.64 426.09 173.72C426.63 174.35 426.81 175.16 426.81 176.06Z" fill="black"/>
<path d="M429.6 167.06C431.58 165.98 433.02 166.07 434.46 167.24C434.73 167.42 435 167.78 434.82 168.14C434.64 168.5 434.19 168.59 433.83 168.41L433.74 168.32C432.66 167.33 431.31 167.33 429.6 167.06Z" fill="black"/>
<path d="M95.9689 204.59C95.6989 204.5 95.4289 204.59 95.1589 204.68C94.1689 205.4 93.8089 213.41 94.7089 213.86C94.7089 213.86 96.4189 215.21 97.0489 209.45C97.0489 209.45 97.4989 205.22 95.9689 204.59Z" fill="#00B39F"/>
<path d="M168.51 148.97C168.51 148.97 166.98 147.89 165 153.83C165 153.83 162.75 159.23 164.46 159.68C164.46 159.68 166.53 161.21 168.51 154.91C168.51 154.91 170.49 149.42 168.51 148.97Z" fill="#00B39F"/>
<path d="M108.479 296.57C108.479 296.57 108.209 298.91 112.889 298.01C112.889 298.01 117.749 297.56 120.089 295.94C118.289 295.22 116.309 294.86 114.419 294.86C114.509 294.86 108.209 294.59 108.479 296.57Z" fill="#00B39F"/>
<path d="M179.399 272.9C179.399 272.9 182.099 270.2 184.709 269.39C184.709 269.39 189.929 266.78 190.649 268.49C190.649 268.49 191.819 269.93 186.509 271.73C186.419 271.82 182.369 273.62 179.399 272.9Z" fill="#00B39F"/>
<path d="M411.69 209.9C411.69 209.9 410.34 210.71 413.13 212.96C413.13 212.96 415.74 215.39 417.09 214.94C417.09 214.94 418.08 214.31 415.65 211.52C415.65 211.52 413.04 208.46 411.69 209.9Z" fill="#00B39F"/>
<path d="M459.929 233.21C459.929 233.21 456.419 236.09 457.319 240.23C457.229 240.23 459.389 238.7 459.929 233.21Z" fill="#00B39F"/>
<path d="M482.789 247.61C482.789 247.61 482.609 254.54 486.569 255.17C486.569 255.17 489.269 254.45 482.789 247.61Z" fill="#00B39F"/>
<path d="M448.5 295.22C448.5 295.22 440.76 294.68 437.88 298.28C437.61 298.64 437.7 299.18 438.06 299.45C438.15 299.54 438.24 299.54 438.33 299.63C439.95 299.9 443.82 299.72 448.5 295.22Z" fill="#00B39F"/>
<path d="M282.27 213.86V224.21L291.36 218.99L282.27 213.86Z" fill="#00D3A9"/>
<path d="M282.27 226.37V236.81L291.45 231.59L282.27 226.37Z" fill="#00D3A9"/>
<path d="M280.919 224.12V213.95L271.919 218.99L280.919 224.12Z" fill="#00B39F"/>
<path d="M262.829 236.72C264.629 239.51 266.969 241.85 269.849 243.65V232.76L262.829 236.72Z" fill="#00B39F"/>
<path d="M280.919 236.72V226.46L271.919 231.59L280.919 236.72Z" fill="#00B39F"/>
<path d="M271.109 242.93L280.289 237.8L271.109 232.58V242.93Z" fill="#00D3A9"/>
<path d="M292.079 243.02V232.67L282.899 237.8L292.079 243.02Z" fill="#00B39F"/>
<path d="M301.079 235.46C302.609 232.58 303.509 229.43 303.689 226.19L294.149 231.5L301.079 235.46Z" fill="#00B39F"/>
<path d="M293.43 230.51L302.61 225.38L293.43 220.25V230.51Z" fill="#00D3A9"/>
<path d="M292.08 217.91V207.65L282.99 212.78L292.08 217.91Z" fill="#00B39F"/>
<path d="M292.08 230.42V220.07L282.99 225.29L292.08 230.42Z" fill="#00B39F"/>
<path d="M271.109 220.07V230.51L280.289 225.29L271.109 220.07Z" fill="#00D3A9"/>
<path d="M280.919 203.6C277.499 203.69 274.169 204.5 271.199 206.12L280.919 211.61V203.6Z" fill="#00B39F"/>
<path d="M271.109 207.56V218L280.289 212.78L271.109 207.56Z" fill="#00D3A9"/>
<path d="M269.849 206.93C267.059 208.64 264.629 211.07 262.829 213.86L269.849 217.82V206.93Z" fill="#00B39F"/>
<path d="M292.08 206.21C289.02 204.59 285.69 203.78 282.27 203.69V211.79L292.08 206.21Z" fill="#00D3A9"/>
<path d="M259.499 226.01C259.589 229.34 260.489 232.58 262.109 235.55L269.219 231.5L259.499 226.01Z" fill="#00D3A9"/>
<path d="M262.2 215.03C260.58 217.91 259.68 221.24 259.59 224.57L269.31 219.08L262.2 215.03Z" fill="#00D3A9"/>
<path d="M271.199 244.37C274.169 245.9 277.499 246.8 280.919 246.89V238.88L271.199 244.37Z" fill="#00B39F"/>
<path d="M300.36 213.95C298.56 211.16 296.22 208.82 293.43 207.02V217.91L300.36 213.95Z" fill="#00D3A9"/>
<path d="M293.43 243.56C296.22 241.85 298.65 239.42 300.45 236.63L293.43 232.67V243.56Z" fill="#00D3A9"/>
<path d="M303.69 224.39C303.6 221.06 302.7 217.91 301.08 214.94L294.06 218.9L303.69 224.39Z" fill="#00B39F"/>
<path d="M282.27 246.89C285.69 246.8 288.93 245.99 291.99 244.37L282.27 238.88V246.89Z" fill="#00D3A9"/>
<path d="M269.85 230.42V220.25L260.85 225.29L269.85 230.42Z" fill="#00B39F"/>
</g>
<defs>
<filter id="filter0_f_1064_312" x="-49.8456" y="-280.032" width="712.039" height="726.78" filterUnits="userSpaceOnUse" color-interpolation-filters="sRGB">
<feFlood flood-opacity="0" result="BackgroundImageFix"/>
<feBlend mode="normal" in="SourceGraphic" in2="BackgroundImageFix" result="shape"/>
<feGaussianBlur stdDeviation="26.5356" result="effect1_foregroundBlur_1064_312"/>
</filter>
<filter id="filter1_f_1064_312" x="10.1046" y="-280.032" width="596.559" height="377.395" filterUnits="userSpaceOnUse" color-interpolation-filters="sRGB">
<feFlood flood-opacity="0" result="BackgroundImageFix"/>
<feBlend mode="normal" in="SourceGraphic" in2="BackgroundImageFix" result="shape"/>
<feGaussianBlur stdDeviation="26.5356" result="effect1_foregroundBlur_1064_312"/>
</filter>
<filter id="filter2_f_1064_312" x="-64.5888" y="-43.1772" width="732.678" height="673.709" filterUnits="userSpaceOnUse" color-interpolation-filters="sRGB">
<feFlood flood-opacity="0" result="BackgroundImageFix"/>
<feBlend mode="normal" in="SourceGraphic" in2="BackgroundImageFix" result="shape"/>
<feGaussianBlur stdDeviation="26.5356" result="effect1_foregroundBlur_1064_312"/>
</filter>
<clipPath id="clip0_1064_312">
<rect width="600" height="400" fill="white"/>
</clipPath>
</defs>
</svg>
