<svg xmlns="http://www.w3.org/2000/svg" role="img" viewBox="-1.60 0.40 811.20 551.70"><defs><style>.cls-1{fill:#fff}</style></defs><path d="M57.23534 482.12478a3.48411 3.48411 0 0 1 .77607 2.36646v48.9592a3.37324 3.37324 0 0 1-.81469 2.36645 2.94749 2.94749 0 0 1-2.28887.89227 3.23273 3.23273 0 0 1-2.56067-1.319l-32.19969-43.06241v41.12269a3.37153 3.37153 0 0 1-.8147 2.36645 2.84964 2.84964 0 0 1-2.21126.89227 2.72841 2.72841 0 0 1-2.17263-.89227 3.47636 3.47636 0 0 1-.77571-2.36645v-48.9592a3.37521 3.37521 0 0 1 .81469-2.36646 2.94483 2.94483 0 0 1 2.28887-.8923 3.308 3.308 0 0 1 2.63791 1.319L52.03675 525.614v-41.1227a3.377 3.377 0 0 1 .81469-2.36646 2.84965 2.84965 0 0 1 2.21126-.8923 2.72943 2.72943 0 0 1 2.17264.89224zm44.84675 46.12705a2.58785 2.58785 0 0 1 .62085 1.7846q0 1.94019-2.71552 3.56922a23.50808 23.50808 0 0 1-5.89705 2.44409 23.8039 23.8039 0 0 1-6.0519.8147q-8.76909 0-13.8498-5.19861-5.08272-5.19755-5.082-14.35407a22.52275 22.52275 0 0 1 2.24988-10.28058 16.79654 16.79654 0 0 1 6.32371-6.94458 17.46174 17.46174 0 0 1 9.272-2.48269q7.37049 0 11.71577 4.81054 4.34491 4.81166 4.34526 13.03507a3.34269 3.34269 0 0 1-.62085 2.25024 2.57828 2.57828 0 0 1-2.01743.69812h-24.9836q.69848 13.34629 12.64706 13.34552a14.82353 14.82353 0 0 0 5.19858-.81469 33.90854 33.90854 0 0 0 4.65534-2.21125 7.37744 7.37744 0 0 1 2.71552-1.16412 1.91215 1.91215 0 0 1 1.47418.69849zm-23.00525-22.65616Q76.089 508.7 75.54662 514.36346h21.95774q-.15632-5.74126-2.87075-8.8064a9.63025 9.63025 0 0 0-7.60368-3.06494 10.53053 10.53053 0 0 0-7.95309 3.10355zm53.88597 28.63046a2.23325 2.23325 0 0 1-.96991 1.97882 4.5538 4.5538 0 0 1-2.90971.50427l-2.09466-.15521q-6.20856-.46563-9.15583-3.72442-2.94961-3.25847-2.94834-9.854v-19.475h-5.19859a2.97219 2.97219 0 0 1-2.056-.65949 2.22309 2.22309 0 0 1-.73709-1.7456 2.44156 2.44156 0 0 1 .73709-1.86222 2.86867 2.86867 0 0 1 2.056-.69845h5.19859v-8.76743a3.01175 3.01175 0 0 1 .85368-2.28888 3.22963 3.22963 0 0 1 2.32748-.81469 3.12417 3.12417 0 0 1 2.25025.81469 3.017 3.017 0 0 1 .85331 2.28888v8.76743h8.61258a2.76087 2.76087 0 0 1 1.97843.69845 2.44548 2.44548 0 0 1 .73709 1.86222 2.22666 2.22666 0 0 1-.73709 1.7456 2.85774 2.85774 0 0 1-1.97843.65949h-8.61258v19.78543q0 4.26781 1.746 6.16852a7.47772 7.47772 0 0 0 5.23722 2.13366l2.095.15521q2.71463.23288 2.71551 2.48272zm61.68351-36.31177a3.19147 3.19147 0 0 1 2.09466.7757 2.42449 2.42449 0 0 1 .93128 1.93982 3.31883 3.31883 0 0 1-.23282 1.16373l-12.87988 32.58773a3.71261 3.71261 0 0 1-1.358 1.59076 3.54886 3.54886 0 0 1-1.97843.58185 3.418 3.418 0 0 1-1.90084-.58185 3.70517 3.70517 0 0 1-1.35794-1.59076l-10.70724-27.23391-10.63 27.23391a3.18 3.18 0 0 1-1.319 1.59076 3.69121 3.69121 0 0 1-5.3538-1.59082l-12.87989-32.51013a3.16488 3.16488 0 0 1-.23245-1.08615 2.61048 2.61048 0 0 1 1.04715-2.095 3.5492 3.5492 0 0 1 2.28923-.85333 2.6947 2.6947 0 0 1 2.63791 1.86221l10.6297 28.63058 10.94041-28.39767a3.64746 3.64746 0 0 1 1.28-1.55179 3.09569 3.09569 0 0 1 1.746-.54324 3.22143 3.22143 0 0 1 1.82323.54324 3.17853 3.17853 0 0 1 1.20273 1.55179l10.94006 28.32 10.70725-28.47528a2.64463 2.64463 0 0 1 2.56068-1.86215zm17.65107 36.54464a16.02149 16.02149 0 0 1-6.28471-6.86658 25.366 25.366 0 0 1 0-20.71637 16.03361 16.03361 0 0 1 6.28471-6.86657 18.19814 18.19814 0 0 1 9.42728-2.40546 18.40992 18.40992 0 0 1 9.4659 2.40546 15.96259 15.96259 0 0 1 6.32333 6.86657 25.366 25.366 0 0 1 0 20.71637 15.95053 15.95053 0 0 1-6.32333 6.86658 18.39974 18.39974 0 0 1-9.4659 2.40546 18.1875 18.1875 0 0 1-9.42728-2.40546zm18.00086-6.47858q2.98568-3.68472 2.987-10.74621 0-6.90481-3.026-10.66861a11.56023 11.56023 0 0 0-16.332-.73758q-.38524.352-.73758.73758-3.02613 3.7645-3.026 10.66861 0 6.983 2.987 10.70721 2.98624 3.72454 8.574 3.72443 5.586 0 8.57353-3.68543zm41.54901-27.58336a2.75759 2.75759 0 0 1-.69846 1.97879 3.70777 3.70777 0 0 1-2.40509.8923l-2.32785.23246q-5.19909.46558-7.72027 3.68579a11.90817 11.90817 0 0 0-2.52167 7.56469v18.85456a2.98792 2.98792 0 0 1-.85332 2.32751 3.22031 3.22031 0 0 1-2.25024.77606 3.26338 3.26338 0 0 1-2.28887-.81469 2.94215 2.94215 0 0 1-.8923-2.28888v-32.74292a2.881 2.881 0 0 1 .93129-2.28885 3.297 3.297 0 0 1 2.24988-.8147 2.85891 2.85891 0 0 1 2.95213 2.76254q.00435.13174-.00342.26346v4.34488a11.78264 11.78264 0 0 1 4.61637-5.19821 15.62452 15.62452 0 0 1 6.86657-2.095l1.08649-.07761q3.25841-.2329 3.25876 2.63782zm37.63037 33.44144a2.82234 2.82234 0 0 1-.8147 2.017 2.63438 2.63438 0 0 1-1.97845.85369 3.27838 3.27838 0 0 1-2.095-.93127l-20.2511-17.45758v15.28528a2.94557 2.94557 0 0 1-.89194 2.28888 3.15991 3.15991 0 0 1-2.21161.81469 3.26338 3.26338 0 0 1-2.28885-.81469 2.94215 2.94215 0 0 1-.8923-2.28888v-49.26956a2.94376 2.94376 0 0 1 .8923-2.28888 3.26343 3.26343 0 0 1 2.28885-.8147 3.16006 3.16006 0 0 1 2.21161.8147 2.94715 2.94715 0 0 1 .89194 2.28888v31.50158l18.5441-16.99234a2.856 2.856 0 0 1 4.96573 1.93982 3.0933 3.0933 0 0 1-1.08613 2.32785l-15.28533 13.65558 16.75952 14.58685a3.4006 3.4006 0 0 1 1.24136 2.4831zm36.95637 1.30944a22.74435 22.74435 0 0 1-8.496-4.694 3.5608 3.5608 0 0 1-1.16373-2.71589 3.04653 3.04653 0 0 1 .62048-1.90081 1.81525 1.81525 0 0 1 1.47455-.8147 3.75631 3.75631 0 0 1 2.17227.85333 26.14919 26.14919 0 0 0 16.44907 5.58661q6.672 0 10.242-2.5603a8.44135 8.44135 0 0 0 3.56884-7.29364 5.8591 5.8591 0 0 0-1.70663-4.38391 12.33768 12.33768 0 0 0-4.50049-2.67688 68.02722 68.02722 0 0 0-7.52609-2.09467 73.2311 73.2311 0 0 1-10.43579-3.10355 16.24731 16.24731 0 0 1-6.59516-4.65533 11.95225 11.95225 0 0 1-2.52166-7.91412 14.06726 14.06726 0 0 1 2.52166-8.26352 16.32089 16.32089 0 0 1 7.06079-5.58628 25.68755 25.68755 0 0 1 10.35819-1.97879 30.04334 30.04334 0 0 1 10.12537 1.66837 21.339 21.339 0 0 1 7.87548 4.77158 3.787 3.787 0 0 1 1.24137 2.71588 3.04912 3.04912 0 0 1-.62085 1.90081 1.81747 1.81747 0 0 1-1.47418.8147 4.71719 4.71719 0 0 1-2.25025-.85367 26.416 26.416 0 0 0-7.06042-4.34491 22.06812 22.06812 0 0 0-7.83649-1.24136q-6.44137 0-10.00913 2.67691a8.822 8.822 0 0 0-3.56921 7.48746 6.87817 6.87817 0 0 0 3.14255 6.16812 31.67287 31.67287 0 0 0 9.65973 3.60818q7.05949 1.70738 11.09527 3.14219a16.63492 16.63492 0 0 1 6.71176 4.3063 10.8135 10.8135 0 0 1 2.67692 7.68127 13.42848 13.42848 0 0 1-2.5217 8.06934 16.383 16.383 0 0 1-7.0998 5.4314 26.63968 26.63968 0 0 1-10.47442 1.93982 35.44827 35.44827 0 0 1-11.1343-1.74594zm72.11889-6.94415a2.58777 2.58777 0 0 1 .62085 1.78461q0 1.94019-2.71552 3.56921a23.50738 23.50738 0 0 1-5.897 2.44409 23.80365 23.80365 0 0 1-6.05191.8147q-8.76911 0-13.84979-5.19861-5.08274-5.19744-5.082-14.35406a22.52283 22.52283 0 0 1 2.24988-10.28058 16.79663 16.79663 0 0 1 6.3237-6.94455 17.46182 17.46182 0 0 1 9.27207-2.4827q7.37049 0 11.71576 4.81055 4.3449 4.8116 4.34527 13.0351a3.34274 3.34274 0 0 1-.62085 2.25024 2.57834 2.57834 0 0 1-2.01742.69812h-24.98372q.69846 13.34628 12.647 13.34552a14.82329 14.82329 0 0 0 5.19857-.8147 33.91438 33.91438 0 0 0 4.65534-2.21124 7.37754 7.37754 0 0 1 2.71551-1.16412 1.912 1.912 0 0 1 1.47426.69842zm-23.00525-22.65619q-2.98792 3.10428-3.53021 8.76776h21.95773q-.15633-5.74127-2.87073-8.80639a9.63029 9.63029 0 0 0-7.6037-3.06494 10.53045 10.53045 0 0 0-7.95309 3.10354zm55.90268-5.1986a2.75759 2.75759 0 0 1-.69846 1.97882 3.708 3.708 0 0 1-2.40509.89231l-2.32785.23245q-5.19914.46564-7.72027 3.68579a11.90814 11.90814 0 0 0-2.5217 7.56467v18.85455a2.988 2.988 0 0 1-.8533 2.32752 3.22037 3.22037 0 0 1-2.25025.77606 3.26343 3.26343 0 0 1-2.28885-.8147 2.94212 2.94212 0 0 1-.8923-2.28888v-32.74296a2.88114 2.88114 0 0 1 .93127-2.28888 3.2969 3.2969 0 0 1 2.24988-.81469 2.85891 2.85891 0 0 1 2.95212 2.76251q.00435.13179-.00342.26349v4.34494a11.78283 11.78283 0 0 1 4.61636-5.19822 15.62458 15.62458 0 0 1 6.86661-2.095l1.08649-.0776q3.25836-.23295 3.25876 2.63782zm38.48404-2.56031a3.19145 3.19145 0 0 1 2.09466.7757 2.42458 2.42458 0 0 1 .93131 1.93982 2.46109 2.46109 0 0 1-.31043 1.24136l-15.12976 32.58774a3.62539 3.62539 0 0 1-1.39694 1.59076 3.73836 3.73836 0 0 1-2.01706.58185 3.609 3.609 0 0 1-1.93982-.58185 4.15239 4.15239 0 0 1-1.47418-1.59076l-15.05252-32.58774a2.29851 2.29851 0 0 1-.31043-1.16373 2.54047 2.54047 0 0 1 1.04752-2.01742 3.549 3.549 0 0 1 2.28885-.8533 2.80364 2.80364 0 0 1 1.51315.46563 2.97634 2.97634 0 0 1 1.12512 1.319l12.95749 29.0961 12.95712-28.94091a2.83515 2.83515 0 0 1 2.71592-1.86225zm10.86172-9.31069a3.74146 3.74146 0 0 1-1.16373-2.87109 3.65249 3.65249 0 0 1 1.16373-2.79312 4.75871 4.75871 0 0 1 6.05228 0 3.65245 3.65245 0 0 1 1.16372 2.79312 3.74142 3.74142 0 0 1-1.16372 2.87109 4.75871 4.75871 0 0 1-6.05228 0zm.73709 47.36844a2.94212 2.94212 0 0 1-.8923-2.28888v-32.74293a2.94379 2.94379 0 0 1 .8923-2.28888 3.26168 3.26168 0 0 1 2.28885-.81469 3.12416 3.12416 0 0 1 2.25025.81469 3.01619 3.01619 0 0 1 .8533 2.28888v32.74292a2.988 2.988 0 0 1-.8533 2.32752 3.22037 3.22037 0 0 1-2.25025.77606 3.26343 3.26343 0 0 1-2.28885-.8147zm24.13034-1.43556a16.07067 16.07067 0 0 1-6.28473-6.828 24.61258 24.61258 0 0 1 .07764-20.56116 16.91158 16.91158 0 0 1 6.401-6.98318 17.95891 17.95891 0 0 1 9.46625-2.4827 21.62876 21.62876 0 0 1 5.85773.8147 16.16955 16.16955 0 0 1 5.08233 2.36646 6.90514 6.90514 0 0 1 1.97846 1.82321 3.54748 3.54748 0 0 1 .58185 1.97879 2.69235 2.69235 0 0 1-.58185 1.7846 1.87736 1.87736 0 0 1-1.51313.69809 2.60966 2.60966 0 0 1-1.16375-.31042 7.25616 7.25616 0 0 1-1.04749-.62052 5.58832 5.58832 0 0 0-.58185-.388 25.07392 25.07392 0 0 0-3.84063-2.095 11.41579 11.41579 0 0 0-4.46149-.77569 10.74192 10.74192 0 0 0-8.8064 3.84063q-3.14208 3.84046-3.14215 10.66861 0 6.82837 3.14215 10.552 3.14265 3.72454 8.8064 3.72442a11.98437 11.98437 0 0 0 4.53912-.77606 20.84411 20.84411 0 0 0 3.84064-2.09467 18.54944 18.54944 0 0 1 1.6294-.93127 3.084 3.084 0 0 1 1.319-.388 1.79946 1.79946 0 0 1 1.43554.69849 2.69418 2.69418 0 0 1 .58185 1.7846 3.21706 3.21706 0 0 1-.54327 1.82325 7.591 7.591 0 0 1-2.01709 1.8236 18.455 18.455 0 0 1-5.23755 2.36646 22.00991 22.00991 0 0 1-6.16815.89227 18.03365 18.03365 0 0 1-9.34983-2.40551zm62.41986-6.20709a2.58777 2.58777 0 0 1 .62085 1.78461q0 1.94019-2.71551 3.56921a23.50719 23.50719 0 0 1-5.897 2.44409 23.8033 23.8033 0 0 1-6.05188.8147q-8.769 0-13.84979-5.19861-5.08274-5.19744-5.082-14.35406a22.52308 22.52308 0 0 1 2.24988-10.28058 16.79665 16.79665 0 0 1 6.32373-6.94455 17.4617 17.4617 0 0 1 9.272-2.4827q7.37046 0 11.71576 4.81055 4.34492 4.8116 4.34528 13.0351a3.34274 3.34274 0 0 1-.62085 2.25024 2.5783 2.5783 0 0 1-2.0174.69812H561.3927q.69846 13.34628 12.647 13.34552a14.82347 14.82347 0 0 0 5.19861-.8147 33.91827 33.91827 0 0 0 4.65534-2.21124 7.37754 7.37754 0 0 1 2.71551-1.16412 1.9123 1.9123 0 0 1 1.47421.69842zm-23.00525-22.65619q-2.98782 3.10428-3.53021 8.76776h21.95771q-.15629-5.74127-2.87073-8.80639a9.63031 9.63031 0 0 0-7.6037-3.06494 10.53056 10.53056 0 0 0-7.95307 3.10354zm102.94867-23.47091a3.37693 3.37693 0 0 1 .8147 2.36648v49.11438a3.21743 3.21743 0 0 1-.77606 2.24988 2.78826 2.78826 0 0 1-2.17224.8537 2.54909 2.54909 0 0 1-2.095-.8537 3.44 3.44 0 0 1-.69849-2.24988v-39.6485l-16.8367 32.27729a3.42985 3.42985 0 0 1-3.18115 2.25024 3.53048 3.53048 0 0 1-3.18115-2.25024l-16.91486-31.88929v39.2605a3.321 3.321 0 0 1-.73706 2.24988 2.66771 2.66771 0 0 1-2.13367.8537 2.78762 2.78762 0 0 1-2.17267-.8537 3.21381 3.21381 0 0 1-.77569-2.24988v-49.11438a3.27944 3.27944 0 0 1 .85333-2.36648 3.0715 3.0715 0 0 1 2.32782-.89231 3.49114 3.49114 0 0 1 3.10358 2.25025l19.70782 37.786 19.475-37.786a4.50317 4.50317 0 0 1 1.3576-1.746 3.01935 3.01935 0 0 1 1.746-.50427 2.94741 2.94741 0 0 1 2.28889.89233zm44.96228 46.1271a2.58777 2.58777 0 0 1 .62085 1.78461q0 1.94019-2.71551 3.56921a23.50779 23.50779 0 0 1-5.897 2.44409 23.80342 23.80342 0 0 1-6.05188.8147q-8.769 0-13.8498-5.19861-5.08272-5.19744-5.082-14.35406a22.52321 22.52321 0 0 1 2.24988-10.28058 16.79665 16.79665 0 0 1 6.32373-6.94455 17.46206 17.46206 0 0 1 9.272-2.4827q7.37054 0 11.71576 4.81055 4.345 4.8116 4.34527 13.0351a3.34274 3.34274 0 0 1-.62085 2.25024 2.57828 2.57828 0 0 1-2.01739.69812h-24.98379q.69846 13.34628 12.647 13.34552a14.82347 14.82347 0 0 0 5.19861-.8147 33.91827 33.91827 0 0 0 4.65534-2.21124 7.37754 7.37754 0 0 1 2.71551-1.16412 1.912 1.912 0 0 1 1.47427.69842zm-23.00524-22.65619q-2.98784 3.10428-3.53022 8.76776h21.95771q-.15629-5.74127-2.87073-8.80639a9.63031 9.63031 0 0 0-7.6037-3.06494 10.53053 10.53053 0 0 0-7.95306 3.10354zm39.88024 30.41504a20.64581 20.64581 0 0 1-5.70288-2.40509 7.63622 7.63622 0 0 1-1.97845-1.746 3.31305 3.31305 0 0 1-.58185-1.97845 2.42974 2.42974 0 0 1 .58185-1.668 1.92557 1.92557 0 0 1 1.51318-.65986 5.79089 5.79089 0 0 1 2.71552 1.16413 25.83782 25.83782 0 0 0 4.61633 2.21124 17.16872 17.16872 0 0 0 5.70282.8147 12.16 12.16 0 0 0 6.51758-1.47418 4.75034 4.75034 0 0 0 2.32782-4.2677 4.22611 4.22611 0 0 0-.8537-2.75415 7.05882 7.05882 0 0 0-2.94836-1.86219 41.99568 41.99568 0 0 0-6.12952-1.66839q-6.82847-1.47291-9.77631-3.95685a8.35853 8.35853 0 0 1-2.94836-6.75037 9.76712 9.76712 0 0 1 1.86218-5.8967 12.53 12.53 0 0 1 5.15961-4.03485 18.1766 18.1766 0 0 1 7.48749-1.47418 21.08335 21.08335 0 0 1 5.858.8147 17.45176 17.45176 0 0 1 5.00439 2.28885q2.63709 1.862 2.63831 3.87964a2.479 2.479 0 0 1-.62085 1.707 1.91357 1.91357 0 0 1-1.47418.69809 5.7896 5.7896 0 0 1-2.79316-1.319 24.6679 24.6679 0 0 0-4.11242-2.17264 13.03863 13.03863 0 0 0-4.81055-.7757 9.64716 9.64716 0 0 0-5.85809 1.6294 5.13228 5.13228 0 0 0-2.21124 4.34491 4.36257 4.36257 0 0 0 .81469 2.75451 6.73139 6.73139 0 0 0 2.71588 1.86219 31.6016 31.6016 0 0 0 5.47 1.59039 39.091 39.091 0 0 1 8.18555 2.56067 9.51927 9.51927 0 0 1 4.15106 3.414 9.63921 9.63921 0 0 1 1.24134 5.1206 9.28654 9.28654 0 0 1-4.11206 7.87549q-4.11375 2.98793-10.8628 2.98731a26.40216 26.40216 0 0 1-6.78882-.85352zm61.25684-34.64377q3.41364 3.76452 3.414 11.21189v21.02679a3.01587 3.01587 0 0 1-.85333 2.28888 3.1257 3.1257 0 0 1-2.25024.8147 3.23113 3.23113 0 0 1-2.32752-.8147 3.01064 3.01064 0 0 1-.8537-2.28888V512.686q.00009-5.04287-2.056-7.44885-2.05654-2.40419-6.55652-2.40509a11.06637 11.06637 0 0 0-8.30182 3.18118 11.80434 11.80434 0 0 0-3.10394 8.61221v18.93213a2.83128 2.83128 0 0 1-3.10358 3.10358 3.23123 3.23123 0 0 1-2.32745-.8147 3.01064 3.01064 0 0 1-.8537-2.28888v-49.34726a2.87719 2.87719 0 0 1 .89228-2.17227 3.17626 3.17626 0 0 1 2.28887-.85367 3.096 3.096 0 0 1 2.28888.8147 2.98783 2.98783 0 0 1 .8147 2.21124v20.32874a12.594 12.594 0 0 1 5.19861-5.19858 15.87179 15.87179 0 0 1 7.60406-1.78461q6.67197-.00004 10.0864 3.763zM623.698 232.66207a13.0133 13.0133 0 0 0-4.44671-8.52715 10.451 10.451 0 0 0-4.24019-2.64234c-.158-.361-.34753-.71168-.46919-1.08453q-2.914-8.92731-5.8125-17.85969c-.8431-2.65314-1.67811-5.30885-2.53065-7.95889q-7.13561-22.18062-14.28276-44.35747c-1.52773-4.73265-3.1076-9.44853-4.66359-14.172-.17781-.5391-.36113-1.07652-.53251-1.61766q-2.295-7.24735-4.59241-14.49395c-.29652-.92864-1.03541-1.7997-.24582-2.81591a10.10036 10.10036 0 0 0 1.20506-4.79976A14.17783 14.17783 0 0 0 572.338 97.20458a11.99924 11.99924 0 0 0-5.32041-.40867c-1.78684.66574-3.0989-.14886-4.48948-1.20589-2.99115-2.27364-6.1-4.3926-9.16055-6.57489-.17667-.154-.34247-.3232-.53168-.4599q-20.36329-14.71177-40.73163-29.41652-9.35544-6.74907-18.7377-13.461c-1.65823-1.21949-3.25767-2.53178-4.99253-3.63029-1.4935-.94564-2.56087-2.01143-2.46573-3.90377a1.96 1.96 0 0 0-.22655-.66393 1.13551 1.13551 0 0 1-.16255-.29418c-1.45737-7.17224-11.19857-12.07439-18.79066-6.941a5.49352 5.49352 0 0 0-1.86944 1.45118 1.82086 1.82086 0 0 1-1.87232.58187c-1.9286-.25459-3.87353-.38562-5.81189-.5663a.74656.74656 0 0 0-.34262-.10194 2.66728 2.66728 0 0 0-.8802-.08252l-.93717-.05509a.74513.74513 0 0 0-.3436-.10231 2.63605 2.63605 0 0 0-.87839-.08207q-.46893-.02777-.93778-.05539a.742.742 0 0 0-.34466-.10254 2.61283 2.61283 0 0 0-.8768-.08192l-.7243-.03642c-2.68586-.32388-5.36961-.66566-8.05781-.96808Q431.51022 28.767 420.1658 27.519q-8.0169-.88311-16.03688-1.73788l-.00015.00007c-3.48875-.25216-6.97139-.64639-10.4318-1.08914-3.65969-.46813-7.33373-.81974-10.9913-1.305a2.13458 2.13458 0 0 1-1.59786-.81793 9.61287 9.61287 0 0 0-3.62046-3.52253 11.626 11.626 0 0 0-6.69157-2.46347.27386.27386 0 0 1-.019-.21552h-2.39916c-.09362.33076-.37677.20683-.58957.24083a13.52159 13.52159 0 0 0-9.49047 5.7485 7.04366 7.04366 0 0 0-1.39533 2.321 2.49409 2.49409 0 0 1-1.38015 1.48617c-1.16818.54665-2.30349 1.16357-3.45256 1.75095-.1831.06892-.3736.1228-.54823.20879Q326.234 40.57387 300.95 53.03051c-3.52872 1.73909-7.04589 3.50183-10.56835 5.25369-4.93494 2.32548-9.83445 4.72306-14.67955 7.23088a42.92389 42.92389 0 0 0-4.469 2.09788c-1.42821.86871-2.70324 1.38725-4.11633.105-.03809-.03453-.1494.01172-.22663.02033a9.27813 9.27813 0 0 0-1.43712-.74131 13.62431 13.62431 0 0 0-17.13032 18.02284c.25239.53849.52549 1.06844.75256 1.61743.36174.8743 1.26007 1.42216 1.44121 2.40112a2.91359 2.91359 0 0 0-.32056.34081q-11.81943 17.34444-23.63145 34.69379-5.7176 8.40261-11.41047 16.82186c-1.27783 1.84986-2.56586 3.6927-3.83145 5.55089q-4.14339 6.08358-8.26879 12.17943c-.982 1.4217-1.98642 2.8286-2.9344 4.2726a1.72961 1.72961 0 0 1-1.4137.84453 13.64063 13.64063 0 0 0-12.04975 10.76838c-.073.30408.07624.75023-.37247.91957v3.83863c.46655.35478.34957.91949.4837 1.38838a13.31126 13.31126 0 0 0 8.127 9.25221c.63528.27537.46012.84174.46216 1.33005q.04727 11.2851.0838 22.57013c-.0136.15869-.03914.31737-.03906.476q.01655 25.87615.03725 51.7524c.00015.19957.00771.39914.01217.59864.115 5.18771.09037 10.37558.00929 15.56345a13.737 13.737 0 0 0-8.85057 10.17631c-.104.44267.10012.96869-.32577 1.33118v3.11886c.26509.05705.226.28133.25692.46722a13.6204 13.6204 0 0 0 14.09512 11.40019c.4639-.03325.62909.23109.83947.51983 1.0104 1.38709 2.00062 2.78976 3.04163 4.15351 1.77891 2.33039 3.30165 4.85046 5.23789 7.06373a4.66384 4.66384 0 0 0 .2836.51166q6.03225 8.317 12.07613 16.62561c2.25075 3.079 4.5519 6.12127 6.83031 9.18.97125 1.36118 1.927 2.73362 2.91664 4.08127q4.41974 6.01864 8.86077 12.02135c.01995.11554.00295.25821.06507.34261 3.48188 4.73069 6.95219 9.47015 10.46951 14.17439 1.04879 1.40274 2.217 2.70959 1.25607 4.6292-.45763.51076-.23819 1.14469-.28383 1.71839a14.4161 14.4161 0 0 0 18.74314 15.0069c1.53135-.92395 2.89646-.41237 4.27434.42242a26.2489 26.2489 0 0 0 2.85936 1.44589c1.95755.87974 3.76873 2.06644 5.81318 2.76142l.00008.00008c.30551.177.602.37224.91775.52836q19.64 9.70649 39.284 19.4051 8.45148 4.17116 16.9136 8.32116c3.05289 1.66269 6.17628 3.1818 9.35166 4.59527a3.91209 3.91209 0 0 1 2.06584 2.11435 5.92543 5.92543 0 0 0 .734 1.04471 15.89187 15.89187 0 0 0 11.81581 6.95816.2391.2391 0 0 1 .01745.21318h2.879c.12045-.40149.45635-.20539.69809-.2394a14.52959 14.52959 0 0 0 6.73773-2.45584 3.50986 3.50986 0 0 0 1.45632-.93407c.83032-.7237 1.64145-1.41453 2.8509-1.20967l.00665.00068c.43836.0133.87664.03816 1.315.03824 17.81383.002 35.62787-.04262 53.44132.04118a22.60483 22.60483 0 0 0 9.65483-1.66057c1.10954-.5001 2.2979-.825 3.44976-1.23136q7.21539-2.54505 14.43063-5.09092c.30491-.07964.61723-.13821.91375-.242q11.12109-3.89593 22.23756-7.80466c.68025-.23931 1.3404-.52753 2.0245-.03506a14.87841 14.87841 0 0 0 14.31313-.16541 14.45087 14.45087 0 0 0 7.79-10.65836c.06907-1.6979 1.06828-2.664 2.40747-3.62024 9.86392-7.04317 19.67026-14.16705 29.48749-21.27544 3.87082-2.80276 7.72335-5.63069 11.58419-8.4472l.00008-.00008v.00008c1.91659-1.45851 3.88517-2.84032 5.88119-4.19062 2.40739-1.62869 4.72328-3.39279 7.07892-5.098.40775-.29524.79125-.70488 1.35248-.293a12.41714 12.41714 0 0 0 7.65187 1.67025 13.08229 13.08229 0 0 0 11.47107-8.32925c2.11556-5.00613 1.31032-9.76462-2.13294-13.99385-.31934-.39219-.13594-.628-.16277-.94126a2.66632 2.66632 0 0 0 .20486-.41494q2.29306-7.72614 4.57744-15.455c.61065-1.93087 1.24639-3.85434 1.82758-5.79406q4.26489-14.23662 8.50591-28.48018c2.03146-6.21134 3.85057-12.487 5.68918-18.75682.88836-2.98276 1.76667-5.96862 2.66712-8.94775q3.68852-12.20279 7.392-24.401a1.69264 1.69264 0 0 1 1.24352-1.65143 7.94475 7.94475 0 0 0 3.19782-2.15825 12.81836 12.81836 0 0 0 4.27586-7.04265c.11864-.46556-.00348-1.02634.46715-1.37614v-3.11886c-.06503-.03552-.18208-.0643-.18757-.10745zm-64.095 128.50409a2.02612 2.02612 0 0 1-1.04531 2.27009c-1.807 1.16267-3.534 2.44374-5.27077 3.70533a32.37859 32.37859 0 0 0-4.95225 3.69792c-.056.12876-.13617.241-.20229.36287q-7.93755 5.35272-15.66531 11.00369l-.00008.00015q-4.84071 3.39018-9.68037 6.78179-8.30185 5.84511-16.59992 11.69528c-.32879.23078-.63393.77917-1.18889.19557-.62592-.65834-1.34471-1.22834-2.02314-1.83672q2.04562-3.94548 4.09117-7.891 2.56193-4.47958 4.78978-9.1344c1.44249-2.34015 2.57614-4.842 3.81309-7.28968 1.59626-2.49528 2.69886-5.25066 4.12752-7.83435.90362-1.67448 1.82523-3.33959 2.70686-5.02548 1.42194-2.71918 2.81758-5.452 4.2244-8.17909q3.99093-7.2375 7.67755-14.63459a3.9584 3.9584 0 0 0 .26162-.383c1.56815-2.96991 3.10948-5.95139 4.5729-8.977 1.47007-3.03928 3.15868-5.97292 4.75155-8.95281q.7463-1.33731 1.49274-2.67453c1.5436-2.75289 2.80148-5.66038 4.50913-8.32433a2.95468 2.95468 0 0 0 1.44007.51121 6.48246 6.48246 0 0 0 2.399.67745 2.09433 2.09433 0 0 1 2.43369 2.22627c.00665.10231.11048.19836.16912.29728a62.5445 62.5445 0 0 0 1.917 6.7236 30.35665 30.35665 0 0 0 1.25811 4.477 33.02815 33.02815 0 0 0 1.39337 4.85183 62.376 62.376 0 0 0 1.91765 6.72557 36.64969 36.64969 0 0 0 1.43115 5.05464c.56063 2.04755 1.13305 4.09193 1.67116 6.14537a2.58982 2.58982 0 0 1 .20985.82957c-.05335.06672-.10217.1367-.1559.2032a1.38607 1.38607 0 0 0-.20576.27158c-.01391.02456-.03084.047-.04489.07141a12.21752 12.21752 0 0 0-5.17215 6.75308c-.09718.08577-.18469.18-.28768.26055a8.99831 8.99831 0 0 0-.76377 5.34468zm-278.62277 26.25051a.56684.56684 0 0 0 .024-.06733 14.56752 14.56752 0 0 0-8.85254-15.91294c-.36476-.14955-.91594-.11464-.9643-.71622a25.03262 25.03262 0 0 0 .76261-4.2779 54.64227 54.64227 0 0 0 1.18768-6.5034.98479.98479 0 0 0 .10224-.46186 34.66668 34.66668 0 0 0 .85693-4.8182 21.11906 21.11906 0 0 0 .73647-4.05021 35.23234 35.23234 0 0 0 .958-5.26585.75763.75763 0 0 0 .05259-.46141c.21008-.99907 1.013-1.43342 1.99541-1.727a6.26259 6.26259 0 0 0 1.04917-.5369v-.00007c.513-.045.88586-.7794 1.56007-.08313 3.195 3.29976 6.44552 6.54587 9.69087 9.79652 2.79128 2.79581 5.6022 5.572 8.40451 8.35682 2.51039 2.74065 5.15726 5.34573 7.85189 7.90335 2.09092 2.16952 4.04817 4.46931 6.30972 6.4725q3.8403 3.83518 7.68051 7.67038l11.26847 11.29523c3.15287 3.25034 6.28563 6.52078 9.576 9.6345q4.4577 4.51846 8.91541 9.03685a3.90911 3.90911 0 0 0 .9433 1.02573 39.03012 39.03012 0 0 1 4.0756 4.24873 15.3361 15.3361 0 0 0-3.66475 5.44479 3.95991 3.95991 0 0 1-1.62536-.19979c-.1197-.01073-.23886-.01957-.35841-.028-.21529-.13013-.43179-.25768-.65637-.36884q-25.51707-12.62467-51.03928-25.23891c-3.82918-1.89189-7.67144-3.75724-11.50878-5.63265-.17312-.16157-.35849-.30718-.52579-.47638a21.14093 21.14093 0 0 0-3.648-1.914 1.50913 1.50913 0 0 1-1.0673-1.80914 1.22149 1.22149 0 0 0-.09057-.33527zm293.74695-48.92734c-.225.18642-.44962.46481-.67133.00551a1.44389 1.44389 0 0 0-.14237-.06392q-.95634-4.01078-1.91274-8.02146-.72023-3.0006-1.4403-6.00135l-1.87231-7.66833c-.22859-1.80211-.86584-3.50848-1.23589-5.27749a12.87261 12.87261 0 0 0-.37609-1.61388 3.11263 3.11263 0 0 1 .74727-3.50666 14.41184 14.41184 0 0 0 3.70442-11.20115 3.97489 3.97489 0 0 0-.06634-.98621.98978.98978 0 0 0-.11177-.46156l-.03324-.46058c-.22323-1.11287.93876-1.53408 1.20082-2.40468v-.00008c.20932-.23516.41607-.47251.62826-.70511a77.04774 77.04774 0 0 0 5.60908-6.732 70.25254 70.25254 0 0 0 5.25519-6.24814c.39673-.47373.77569-.96362 1.19312-1.41838 2.1943-2.39047 4.28674-4.86558 6.24346-7.45471 1.95105-2.06252 3.72558-4.27458 5.49905-6.48769q1.806-2.15682 3.61193-4.31364c.53486-.42944.56274-1.39443 1.48941-1.41007a3.9955 3.9955 0 0 1-.42574 1.68483 25.824 25.824 0 0 0-1.2513 4.04477c-.02056.03423-.05434.0665-.05985.103l-.00635.03816a2.78681 2.78681 0 0 0-.18083.38531Q594.37 279.51613 588.625 296.72108q-4.61379 13.83048-9.20929 27.66693c-.84959 2.36191-1.71611 4.7183-2.35019 7.151q-1.30364 3.39177-2.29276 6.88781c-.01619.02027-.02933.04233-.04558.06251zm-342.56563-32.38712a.83087.83087 0 0 0-.75446.01 12.37721 12.37721 0 0 0-5.57711-2.69969c-.02047-.04731-.04042-.09484-.0609-.14214a1.34035 1.34035 0 0 0-.52829-.46844c-2.15327-.99839-4.28583-2.03947-6.41242-3.09324a.73787.73787 0 0 0-.777-.04254l-.01081-.02781a6.31948 6.31948 0 0 0-2.35722-1.388 2.481 2.481 0 0 1-1.75345-2.84213 12.9102 12.9102 0 0 0-5.13973-11.29137 1.32976 1.32976 0 0 1-.50735-1.55992c.47539-1.77325.90294-3.55918 1.345-5.34127a3.04835 3.04835 0 0 0 .10881-1.53423c.27159-.08644.34867-.35886.41607-.60211.46375-1.67289.87022-3.36067 1.26891-5.05a.98536.98536 0 0 0-.169-.99363.54538.54538 0 0 0 .51415-.48566 47.96946 47.96946 0 0 0 1.66277-7.27532.90333.90333 0 0 0 .31843-.57332c.46141-1.67841.87348-3.36974 1.27239-5.06394a.98636.98636 0 0 0-.17327-1.00277c-.00537-.03937-.01187-.07859-.01731-.118.71849.08086.62313-.628.72544-1.01682.68758-2.6137 1.33141-5.239 1.9806-7.86277.11078-.44758.31866-.92577-.08531-1.35158l-.00031-.00046c.5697-.20932.61164-.7772.73338-1.25463 1.10485-4.33381 2.17284-8.677 3.25956-13.01542a3.40776 3.40776 0 0 0 .13277-1.30262c-.03265-.2239-.03771-.44735-.05932-.6711.17418-.61.35055-1.21934.51642-1.83158.98584-3.63717 1.69957-7.34514 2.84644-10.94052q1.469 4.06937 2.93818 8.13874c.23047.71516.4435 1.43652.69438 2.14442q2.04459 5.77 4.10469 11.5344 2.05741 5.8773 4.11483 11.75452l4.79469 13.66363c.07814.2666.144.53743.23607.799q5.23313 14.87761 10.47352 29.75258c1.32679 3.75973 2.68329 7.509 4.02709 11.26265a3.26111 3.26111 0 0 0-.18151.29116 3.3656 3.3656 0 0 0 .32372 1.25781c1.17945 3.53008 2.53806 6.99889 3.61911 10.56313a.50521.50521 0 0 0-.508.27318 2.442 2.442 0 0 1-2.77344 1.33594c-.0396-.0696-.08342-.13625-.123-.20592a34.76905 34.76905 0 0 0-4.79446-2.38964c-.64285-.26622-1.20688-.81128-1.99095-.66582-.00953.01262-.00953.02486-.01829.03741a5.48824 5.48824 0 0 0-3.54687-1.73607c-.01043.024-.00559.045-.0142.06862a3.87839 3.87839 0 0 0-2.8469-1.457c-.02319-.04594-.04715-.09159-.07035-.13761a30.92777 30.92777 0 0 0-4.56777-2.28717.3327.3327 0 0 0-.29576.02169c-.0059-.01428-.01293-.028-.01882-.04239a51.16382 51.16382 0 0 0-6.29384-3.14423zm51.352-234.00468c.11275-.12839.2292-.25375.34481-.3798.43058-.20833.862-.415 1.28917-.63022 2.07218-1.0441 4.254-1.86869 6.22751-3.11039a34.721 34.721 0 0 0 5.27167-2.45561c.44637.11289.74516-.21461 1.09148-.3801q15.13593-7.23172 30.26507-14.47771c5.26887-2.52717 10.52339-5.08434 15.7844-7.628q2.71224-1.33322 5.42447-2.66659c2.19067-1.03526 4.40009-2.03349 6.56325-3.12331.91466-.46073 1.54851-.55444 1.8538.61382.01436.05494.11917.0863.18181.12862l.678 1.153a44.44627 44.44627 0 0 0-2.34234 4.82953 51.30206 51.30206 0 0 0-2.65042 5.50291 75.23266 75.23266 0 0 0-3.35923 6.9574 67.48507 67.48507 0 0 0-3.13095 6.443 76.62343 76.62343 0 0 0-3.3578 6.956 43.263 43.263 0 0 0-2.37619 4.84918 46.8095 46.8095 0 0 0-2.408 5.01618c-.369.69967-.76889 1.38521-1.09632 2.10377a1.13242 1.13242 0 0 1-1.08642.7531 13.39869 13.39869 0 0 0-9.73734 4.923 1.13388 1.13388 0 0 1-1.41824.40723c-1.13629-.35652-2.30047-.6244-3.453-.92916l-6.95763-1.928c-2.69773-.80652-5.39182-1.62642-8.14547-2.22891a64.6593 64.6593 0 0 0-6.72972-1.87918c-.55073-.12272-1.08189-.31308-1.61879-.47471a38.135 38.135 0 0 0-5.57295-1.48028 42.91925 42.91925 0 0 0-5.51568-1.6039q-3.44446-.95428-6.88909-1.90858a.67214.67214 0 0 0-.03424-.13753c-.44871-.46965-1.14286-.44758-1.68626-.78566 1.51785-.91754 3.17374-1.44878 4.59061-2.4291zm315.20184 154.55776a13.30228 13.30228 0 0 0-.23917 14.67161 2.02042 2.02042 0 0 0 .66378 1.50264c.54657.53683.47712.95577-.02985 1.49939a3.70471 3.70471 0 0 0-1.21179 1.8544.64848.64848 0 0 0-.538.172c-1.44158 1.272-2.58022 2.82649-3.90671 4.20634a.36887.36887 0 0 0-.03884.43239c-.36733-.16315-.57673.23168-.81378.46473-1.72269 1.69322-3.23349 3.58631-4.96366 5.27318a1.85771 1.85771 0 0 0-.6637 1.21927 4.479 4.479 0 0 0-1.87624 1.6169 7.19485 7.19485 0 0 0-2.01068 2.673c-.00007.00431.00038.00869.00031.013a.41813.41813 0 0 0-.506.12279 54.8702 54.8702 0 0 0-4.02331 4.395.5746.5746 0 0 0-.04836.46435c-.00114.03038.00045.06136-.00015.09182-.45582-.21076-.7197.24173-.984.4976-1.63655 1.584-3.12763 3.30883-4.64364 5.00439-.59849.6693-1.4165 1.20944-1.68544 2.14624a.873.873 0 0 0-.76186.43459c-.85481 1.11082-1.947 2.00553-2.81689 3.08968a9.00971 9.00971 0 0 0-1.76712 2.27879c-.72333.131-1.06224.76828-1.45511 1.28236-.29343.384-.51725.31-.77645.14214.00575-.00332.00779-.00854.01368-.01179a1.37757 1.37757 0 0 0 .57272-1.12571c.2032-2.0904.3139-4.18858.51967-6.2792a1.61966 1.61966 0 0 0-.16489-1.01743 1.78659 1.78659 0 0 1 .17774-.22216 23.17038 23.17038 0 0 0 .47886-4.91137 4.05057 4.05057 0 0 1 .1194-1.56733 5.74323 5.74323 0 0 0 .1005-1.16614 4.13808 4.13808 0 0 1 .13625-1.49667 5.491 5.491 0 0 0 .09853-1.13206 3.76653 3.76653 0 0 1 .13285-1.28977 1.16374 1.16374 0 0 0-.13874-.9065c-.03544-.00612-.05788-.00143-.09076-.00536.07882-.54816.18106-1.094.23252-1.64456q1.05052-11.24236 2.08715-22.48594.75423-8.20653 1.48624-16.415.02744-.58251.05479-1.16493l.00007-.00023v.00023a3.10815 3.10815 0 0 0 .18469-1.45972q.71421-7.68148 1.42851-15.363.6106-6.71925 1.22123-13.43844.01972-.35048.03959-.70088l.00076-.00234a3.03679 3.03679 0 0 0 .1837-1.44347q.03072-.58875.06136-1.1774l.00045-.00159a3.15673 3.15673 0 0 0 .18492-1.46116c.16095-1.48677.322-2.97361.50954-4.7059.67942.94556 1.17906 1.64085 1.67864 2.33621q2.96409 4.90851 6.228 9.623 2.494 4.1707 5.27628 8.15506c1.96337 3.25261 4.03888 6.43283 6.17862 9.57163 1.6138 2.64219 3.27875 5.25127 5.04467 7.79476l.00476.05381a2.96539 2.96539 0 0 0 .56289 1.42556c.77562 1.25 1.54111 2.5082 2.40347 3.69936a1.12722 1.12722 0 0 1-.19126 1.80989 4.00393 4.00393 0 0 0-1.72074 2.57794zm-306.1586 77.35123c.02668.025.0464.05494.07361.07957.41629-.07307.57611-.41879.71289-.73964.54672-1.28222 1.19833-2.5169 1.71831-3.81022a1.49485 1.49485 0 0 0 .18634-.87778l.00869.00008a10.51372 10.51372 0 0 0 2.04914-4.05944 2.31638 2.31638 0 0 0 .358.61693q7.47179 9.67519 14.89408 19.3884a3.38674 3.38674 0 0 0 .91723.9377 42.60019 42.60019 0 0 0-4.30729.47056.93242.93242 0 0 0-.68925.41916.8942.8942 0 0 0-.3569-.14282 19.31967 19.31967 0 0 0-4.75849.65607.64244.64244 0 0 0-.093.237 4.00147 4.00147 0 0 0-3.6683.46821 1.31676 1.31676 0 0 0-.35728-.18431 27.92173 27.92173 0 0 0-4.46817.44365.65731.65731 0 0 0-.45823.22156 1.76 1.76 0 0 0-.34081-.0374c-1.66715.21854-3.38213.12914-4.98572.77138a.8894.8894 0 0 0 .04262.25579c-.042-.002-.08056-.00846-.12416-.00869a1.25586 1.25586 0 0 0-1.8204.2032l-.02516-.0334c-1.21337-.28715-1.21315-.287-.68086-1.51269a2.594 2.594 0 0 0 .36809-1.24768c.3068-.107.43995-.398.58254-.66415a16.39838 16.39838 0 0 0 1.54934-3.87188l-.00159-.01428a.677.677 0 0 0 .41826-.34761 16.67452 16.67452 0 0 0 1.74227-3.97011c-.02774-.04625-.057-.09159-.08471-.13783a4.77043 4.77043 0 0 0 1.611-3.48029c-.00309-.0103-.00899-.01884-.01209-.02904zm28.8924 21.72507c2.05881 2.62835 3.98462 5.08683 5.90983 7.54448 2.45047 3.35576 4.96525 6.66209 7.59368 9.88108 1.43644 2.083 2.99122 4.07507 4.61832 6.01161q2.06513 2.75316 4.12767 5.5082a.93377.93377 0 0 0 .84143.33521q3.39925.02958 6.79827.07322l4.74119.068c4.33525.23887 8.67474.234 13.01429.226 4.3685.28119 8.74342.22413 13.11676.25051a15.91135 15.91135 0 0 0 1.69337.09378c2.26163.10284 4.52553.10209 6.78958.1002q-.98955 2.15727-1.979 4.31447-1.14516 2.413-2.29042 4.826-.96948 2.03883-1.939 4.07765a42.64243 42.64243 0 0 0-2.17292 4.55379q-1.10425 2.27493-2.20843 4.54978-1.29739 2.76426-2.59488 5.5286-.87109 1.78968-1.74226 3.57936l.00008.00007q-.91791 1.93318-1.83574 3.86636l-2.1612 4.55243a43.9809 43.9809 0 0 0-2.17775 4.5547 38.11658 38.11658 0 0 0-2.15924 4.55953 16.32851 16.32851 0 0 0-1.40387 2.88958 29.41918 29.41918 0 0 0-1.55305 3.23992c-.60128.23811-.90838-.21378-1.26951-.54574a5.2417 5.2417 0 0 0-1.47642-1.19856 1.2382 1.2382 0 0 0-.32637-.59131c-1.89378-2.35632-4.16259-4.3518-6.26764-6.50461-.237-.24235-.48174-.5558-.91126-.40784l-.03121-.00287c.22466-.49466-.23161-.76186-.50236-1.03738q-3.09536-3.14976-6.2393-6.25154a2.31824 2.31824 0 0 0-.84325-.56516.71181.71181 0 0 0-.1729-.40118 37.75753 37.75753 0 0 0-4.27948-4.162c-.037-.01126-.07231-.02675-.10919-.03816a5.17433 5.17433 0 0 0-2.93644-2.89624c-.02577-.00174-.05-.00771-.07572-.00975a5.11594 5.11594 0 0 0-2.9978-3.06739 9.61011 9.61011 0 0 0-3.598-3.78377c-.03264-.00189-.06212-.01247-.09423-.01587q-1.45291-1.47876-2.90591-2.95745c-1.31116-1.72-3.182-2.88293-4.53762-4.55877-2.26057-2.51032-4.64613-4.89769-7.10257-7.21517-.28126-.32909-.54226-.67836-.847-.98395q-3.57528-3.58491-7.16469-7.15547a4.82138 4.82138 0 0 0-.41207-.55481c-6.89975-7.00259-13.77433-14.03043-20.73386-20.97318-1.23831-1.23536-2.17269-2.34173-1.38883-4.14656l.06816-.43367q.22443-.024.44886-.04814 2.15739-.25754 4.3147-.515v-.00008q1.31871-.23055 2.63727-.46118 1.086-.13455 2.172-.269c2.08072-.27038 4.17157-.47146 6.22622-.91806a30.469 30.469 0 0 0 4.80037-.70322 30.54116 30.54116 0 0 0 4.31666-.54362l5.03718-.71388c1.33931-.17771 2.67997-.35554 4.1755-.55395zm173.299 66.20683a15.70606 15.70606 0 0 0-1.8801 3.16223 2.30393 2.30393 0 0 1-1.59188 1.266 2.43263 2.43263 0 0 1-3.043-.83486 1.12462 1.12462 0 0 0-.685-.44735l-.00627.00045a31.17466 31.17466 0 0 0-3.2548-4.22651 57.44949 57.44949 0 0 0-3.77719-4.82386 23.96093 23.96093 0 0 0-2.44-3.09974 18.02885 18.02885 0 0 0-2.485-3.092 29.29528 29.29528 0 0 0-2.91913-3.82933q-1.5241-1.92638-3.04813-3.85276a44.28064 44.28064 0 0 0-3.41144-4.31771 25.15619 25.15619 0 0 0-2.602-3.3544 18.99079 18.99079 0 0 0-2.09561-2.6613 21.76174 21.76174 0 0 0-2.23472-2.85559c-.25867-.69959-1.08869-1.05778-1.12814-1.88833.53509-.00378.688-.47977.95018-.798q2.92668-3.55295 5.83-7.12494c1.88561-2.12357 3.70865-4.29852 5.40157-6.58033a8.39363 8.39363 0 0 0 1.49825-1.66737q4.70334-5.70842 9.389-11.4314 2.88078-3.42872 5.76066-6.85834 5.36473-6.41606 10.72032-12.84c-1.287-.57884-2.56337.0473-3.84543.0334a18.58225 18.58225 0 0 0-3.359.22693q-2.28093.1409-4.56187.28186l-3.60021.23917q-2.995.21525-5.99024.43058a20.61923 20.61923 0 0 0-3.5987.23969 15.73492 15.73492 0 0 0-3.35886.23993 13.41687 13.41687 0 0 0-3.36051.23962 45.15891 45.15891 0 0 0-5.035.27763q-3.11938.22523-6.23877.45037-2.28354.13806-4.56716.276-2.87468.218-5.74926.43587a46.87592 46.87592 0 0 0-5.05056.29108c-.2202.0139-.44146.03771-.66226.05758a1.86054 1.86054 0 0 0-.39076.034 20.59328 20.59328 0 0 1-4.04318.17909c-2.58944-.25935-3.82805.86667-4.21881 3.26689-.01269.07791-.0244.15589-.03657.23388a9.52335 9.52335 0 0 1-.84219 1.41226c-.77637.91428-.5032 1.60564.3433 2.23919a11.413 11.413 0 0 0 1.68628 2.147 9.56775 9.56775 0 0 0 1.68664 2.15069 17.10221 17.10221 0 0 0 2.1241 2.69395q.98274 1.27824 1.96541 2.55657l1.36435 1.70417a9.76707 9.76707 0 0 0 1.50272 1.918 12.87382 12.87382 0 0 0 1.68642 2.1485 18.82954 18.82954 0 0 0 2.13336 2.70512l1.95854 2.54183a25.23591 25.23591 0 0 0 2.36334 2.95971 8.51144 8.51144 0 0 0 1.45828 1.87435 18.05594 18.05594 0 0 0 2.08541 2.65118 23.15865 23.15865 0 0 0 2.4643 3.13457 11.56219 11.56219 0 0 0 1.6815 2.15463q.9832 1.29242 1.9664 2.5849c-.05955.24673-.24544.26993-.45529.26607-3.26334-.05962-6.52653-.12665-9.79017-.17a6.55777 6.55777 0 0 0-2.79823.15574q2.419 3.02213 4.838 6.04411a19.45337 19.45337 0 0 0 2.17586 2.835 16.67524 16.67524 0 0 0 2.134 2.68662 24.98617 24.98617 0 0 0 2.62948 3.382 46.54245 46.54245 0 0 0 3.33007 4.26747 48.28283 48.28283 0 0 0 3.40132 4.35225q1.45394 1.88172 2.9078 3.76351 1.17826 1.48557 2.35654 2.97128a22.44849 22.44849 0 0 0 2.38352 3.06641q1.82946 2.5922 3.89953 4.99669 1.60515 2.28954 3.42649 4.41081a.89618.89618 0 0 0-.00574.2759 1.84848 1.84848 0 0 0 .18015.43828c.65614 1.163.65569 1.16229-.65826 1.35106-1.99685.28677-4.01681.40224-5.99552.80773a6.15429 6.15429 0 0 0-.78166.33952c-4.33231.46526-8.66665.91352-12.97583 1.5714-1.86271.2171-3.72588.42967-5.588.65206q-11.59806 1.38515-23.19552 2.77541-12.48944 1.49587-24.97813 2.99765c-3.04782.36959-6.09013.78461-9.13485 1.17891h-.00033c-1.61742.16542-3.2381.30416-4.85159.50207-2.75478.33778-5.50608.7045-8.25836 1.06246-.21393-.05123-.42831-.09861-.64111-.15839a28.2788 28.2788 0 0 0-4.34341.36567c-.48718.03982-1.05279.26184-1.2906-.44237-.00854-.02508-.02562-.03687-.03514-.06045.67783-1.052.79708-2.36689 1.54065-3.388a17.877 17.877 0 0 0 1.40758-3.07511 47.49266 47.49266 0 0 0 2.37022-5.10474 31.59866 31.59866 0 0 0 1.90412-4.09782 46.58859 46.58859 0 0 0 2.20125-4.77157 28.95485 28.95485 0 0 0 1.89234-4.08535 22.77278 22.77278 0 0 0 1.67372-3.59742 58.67383 58.67383 0 0 0 2.65737-5.75477 36.89661 36.89661 0 0 0 2.13113-4.58175 45.25046 45.25046 0 0 0 1.95967-4.23626 35.3982 35.3982 0 0 0 2.13422-4.62089 41.80765 41.80765 0 0 0 2.221-4.7783h.00007q1.29072-2.65215 2.58151-5.30431 6.34974.09646 12.69955.19277 7.20179.12513 14.40366.25035 7.43552.16639 14.871.33287c.28337-.39733-.14245-.54974-.29857-.752-.88942-1.15193-1.81072-2.27916-2.72122-3.41485l-2.03388-2.59926q-.84172-1.07819-1.68354-2.15636a15.83107 15.83107 0 0 0-1.88811-2.41156 29.556 29.556 0 0 0-2.22528-2.86283q-1.2151-1.56276-2.43029-3.12559a17.5368 17.5368 0 0 0-2.3412-2.87825 9.90062 9.90062 0 0 0-1.82879-2.42893 18.11439 18.11439 0 0 0-2.268-2.85158 21.68455 21.68455 0 0 0-2.58105-3.36611c-.789-1.48919-1.7242-2.66191-3.65273-1.69072a.2238.2238 0 0 1-.11728.01632c-2.133-.21877-2.99311 1.07569-3.42535 2.87946q-1.008 2.14287-2.016 4.28568l-1.56422 3.3921q-.71989 1.55958-1.43977 3.11924-.769 1.66555-1.53793 3.33119-.95689 2.04109-1.91387 4.082a25.59667 25.59667 0 0 0-1.56363 3.38334q-.72135 1.55924-1.44271 3.1184-.50282 1.07445-1.00579 2.14889c-3.26765-.06333-6.5356-.11093-9.80226-.207-.517-.01527-1.11952.22624-1.56045-.28406q.4042-.9408.80849-1.8816a25.39024 25.39024 0 0 0 1.74173-3.59485l-.00008-.00008q.68691-1.4452 1.37365-2.89042.85386-1.79953 1.70788-3.59908a12.22368 12.22368 0 0 0 .92267-1.92891c.48264-.45582.40828-1.15435.73178-1.67954q.3651-.70085.73028-1.40176a1.57048 1.57048 0 0 0 .46995-.9798q.353-.734.70586-1.46795a7.70028 7.70028 0 0 0 1.00247-2.08367 16.01567 16.01567 0 0 0 1.40342-2.93931 21.25059 21.25059 0 0 0 1.47052-3.11183 9.79734 9.79734 0 0 0 1.16478-2.4142c1.0367-1.72344 1.03723-1.7242-.40488-2.9276-.17856-.149-.36763-.28549-.55179-.4277q-1.12294-1.31679-2.24591-2.63349a14.94609 14.94609 0 0 1-1.83679-3.73949c-.25021-1.01342-.77237-1.17173-1.70871-1.023-2.75425.43723-5.52754.75476-8.28149 1.19418-2.33281.37224-4.69336.56214-7.00834 1.048a1.51087 1.51087 0 0 0-.539.10572 57.33678 57.33678 0 0 0-6.75066.9476l-.0028.00038a44.75158 44.75158 0 0 0-5.22512.7364 33.46033 33.46033 0 0 0-5.04973.7141 31.55863 31.55863 0 0 0-5.06084.714l-.00151.00022a32.53693 32.53693 0 0 0-5.05094.70882 16.66556 16.66556 0 0 0-3.55548.50138 3.46828 3.46828 0 0 0-1.67886.24008c-.40217.05274-.8567-.18106-1.19539.21861a6.45274 6.45274 0 0 0-2.38745.27582 12.25884 12.25884 0 0 0-2.40112.27105l-3.49911.56177a1.68074 1.68074 0 0 0-.6269.10065 13.13446 13.13446 0 0 0-3.31843.46761 35.16647 35.16647 0 0 0-4.80837.65674 1.37494 1.37494 0 0 0-.47773.08638 21.00437 21.00437 0 0 0-3.82329.51453 15.68812 15.68812 0 0 0-3.11825.455c-.92622.09853-1.85387.19722-3.01775.321-2.43959-3.17674-4.721-6.18217-7.0499-9.14929-.44667-.569-.37368-.80259.26887-.978l.6813-.08479q.96529-.12672 1.93058-.25352l3.59689-.47244a38.35624 38.35624 0 0 0 4.55122-.65524 30.81644 30.81644 0 0 0 4.31991-.53229q1.92048-.24925 3.84112-.49866 1.5564-.22059 3.11281-.44109a4.352 4.352 0 0 0 1.67977-.23244c.49254.0068 1.00518.14169 1.43916-.22541a10.98138 10.98138 0 0 0 2.64657-.28141q2.75053-.36522 5.50109-.73035 1.68188-.22965 3.36369-.45914a2.47633 2.47633 0 0 0 1.44211-.21877c.49042-.00159 1.0005.135 1.44317-.20418.64466-.049 1.32249.141 1.91727-.26652a11.23813 11.23813 0 0 0 2.63024-.28512q1.80748-.24041 3.61488-.48075a40.37687 40.37687 0 0 0 4.79152-.673 35.11554 35.11554 0 0 0 4.32981-.53327c2.08359-.25095 4.17845-.42241 6.2328-.88042 2.17571-.10557 4.31485-.50524 6.46653-.80365q3.60021-.46893 7.20028-.93793 2.64377-.36216 5.28761-.72446c1.0197-.127 2.04816-.20735 3.05629-.396.77259-.14449 1.09866-.98751.60476-1.4304a10.79114 10.79114 0 0 0-1.05982-.752 9.42348 9.42348 0 0 0-1.89294-1.45412q-.80479-.61142-1.60957-1.22267l.00008-.00007a14.21336 14.21336 0 0 0-2.45131-1.90171h.00008a41.73206 41.73206 0 0 0-4.066-3.12535c-2.09719-1.771-4.28681-3.42218-6.515-5.02329-3.611-2.80556-7.21222-5.62366-10.83556-8.413-3.24626-2.499-6.5167-4.96654-9.77657-7.44791l-.00022-.00031a78.42954 78.42954 0 0 0-6.49-4.96721v.00008a32.69745 32.69745 0 0 0-4.08445-3.12445c-1.04932-.627-1.74763-1.69821-2.85309-2.25407a3.4301 3.4301 0 0 0-1.2074-.93219 11.194 11.194 0 0 0-2.1612-1.67252q-1.3246-1.02886-2.64921-2.05767-.95918-.7361-1.91833-1.47242v.00008q-1.56015-1.20015-3.12022-2.40037a29.25894 29.25894 0 0 0-3.31933-2.54319l-.00008-.00023a17.77086 17.77086 0 0 0-3.4-2.51848 17.40246 17.40246 0 0 0-2.87871-2.34075c-.31133-.26176-.53176-.65062-1.08279-.41463-.74086.31738-1.52206.54053-2.28589.8041l-2.1448.25912-1.43924.00091c-.54929.00574-1.09617-.51975-1.6478-.00748a8.20717 8.20717 0 0 0-1.031 2.13551q-.44842.96868-.8969 1.93737-.93661 1.92717-1.8733 3.85435l-2.93409 6.22025q-.69428 1.44079-1.38854 2.88173-.40715.83311-.81438 1.66617a4.39514 4.39514 0 0 0-.75415 1.66118 21.68119 21.68119 0 0 0-1.60073 3.38666 31.38941 31.38941 0 0 0-1.86218 3.844q-1.09 2.28117-2.18 4.5624-.9671 2.03781-1.9342 4.07568-.96075 2.03577-1.92143 4.07168-.52582 1.06866-1.05151 2.13747-.93921 1.919-1.87843 3.83818c-1.83415-2.345-3.657-4.699-5.518-7.02225-.21128-.2638-.27068-.9535-.92561-.59017q-.71172 1.66012-1.42345 3.32016-1.18814 2.52306-2.37611 5.04611-.95712 2.0412-1.91425 4.08233a48.341 48.341 0 0 0-2.15357 4.56036q-1.12784 2.38533-2.25559 4.77082-.93513 2.04539-1.87019 4.09086c-.37156 1.05053-.97156 1.1567-1.95339.6634a8.7515 8.7515 0 0 0-3.3374-.85284 9.00371 9.00371 0 0 0-3.60883-.06491c-1.09851.2378-1.65551-.31557-1.866-1.31524a38.81657 38.81657 0 0 0-1.75058-5.15091 2.012 2.012 0 0 0-.2737-1.1437q-5.53986-15.89187-11.10782-31.77375c-1.53891-4.3877-3.1085-8.76466-4.66412-13.14646-.99974-3.245-2.11064-6.45119-3.35787-9.60971-1.07017-3.22284-2.07279-6.46918-3.34941-9.62015-.73677-1.903-1.17347-3.91087-1.99609-5.78393.02449-.16633.04119-.33265.07239-.499a49.80005 49.80005 0 0 0-1.72556-5.35313c-.11984-.34134-.25571-.78627-.699-.79466l.00355-.00529a.85305.85305 0 0 0 .07625-.69287 48.72955 48.72955 0 0 0-1.98415-5.75212.49524.49524 0 0 0-.25345-.26078 2.42282 2.42282 0 0 0-.1268-1.0506c-.764-2.10377-1.47679-4.225-2.198-6.34358a1.20829 1.20829 0 0 0-.53856-.77433 3.57453 3.57453 0 0 0-.241-1.346c-.40979-1.20589-.75891-2.43445-1.26687-3.60422-.34088-.78491-.16964-1.2504.6739-1.54919a2.8365 2.8365 0 0 0 1.67682-1.07766.47112.47112 0 0 0 .463-.01526 4.99407 4.99407 0 0 1 2.94014-.99506 23.88913 23.88913 0 0 0 4.13122 1.92241 33.79823 33.79823 0 0 0 4.5652 2.1105 36.24716 36.24716 0 0 0 4.5847 2.14662 38.01561 38.01561 0 0 0 4.743 2.18644 21.44181 21.44181 0 0 0 3.62228 1.69178 14.84923 14.84923 0 0 0 3.094 1.42707 16.13925 16.13925 0 0 0 3.08939 1.45179 31.37081 31.37081 0 0 0 4.1356 1.92105 29.66235 29.66235 0 0 0 4.08135 1.891 27.89308 27.89308 0 0 0 4.10688 1.90805c.594.30506 1.19766.593 1.78005.91881 1.08748.60854 2.38631.8199 3.29893 1.75564q-1.43806 5.861-2.87621 11.722l-2.4173 9.84231q-.95554 3.83869-1.911 7.67725-1.102 4.35105-2.20753 8.701a1.06448 1.06448 0 0 0 .31973.96929q2.11135 2.72254 4.21857 5.44827c1.26136 1.60571 2.36569 3.33354 3.7614 4.83475q2.06886 2.95966 4.39125 5.72491 1.9326 2.62361 3.86522 5.24712c.77237-.17789.67481-.92751.94383-1.4363q.60687-1.30851 1.2139-2.617a21.40775 21.40775 0 0 0 1.69231-3.59477 10.9442 10.9442 0 0 0 1.21-2.56866 32.59927 32.59927 0 0 0 1.95641-4.13182 11.41658 11.41658 0 0 0 1.12844-2.43627 22.80569 22.80569 0 0 0 1.6849-3.58238 43.76788 43.76788 0 0 0 2.42818-5.20479 49.81816 49.81816 0 0 0 2.63418-5.58542 35.55931 35.55931 0 0 0 2.13792-4.5587c1.08264-2.24992 2.15826-4.50331 3.25412-6.74681a.89123.89123 0 0 0-.14236-1.07637 12.68079 12.68079 0 0 1-2.41791-4.87774.937.937 0 0 0-.92531-.775 17.0081 17.0081 0 0 0-2.89283-1.37093q-1.55947-.72135-3.11886-1.44279a22.8771 22.8771 0 0 0-3.33331-1.54027 10.79508 10.79508 0 0 0-2.42229-1.11755 4.46837 4.46837 0 0 0-1.6679-.76632 12.02413 12.02413 0 0 0-2.62586-1.23332l-2.18735-1.05937a8.979 8.979 0 0 0-2.39977-1.00443 7.62258 7.62258 0 0 0-1.91667-.96529 2.76558 2.76558 0 0 0-1.16123-.53969 1.36141 1.36141 0 0 1-.05924-.46527q.99782-4.15257 2.02027-8.29924a.50023.50023 0 0 1 .42106-.36876q.70378.28257 1.40765.56523a15.65172 15.65172 0 0 0 3.08077 1.4304 6.90721 6.90721 0 0 0 1.98914.9297 16.31852 16.31852 0 0 0 3.10986 1.44082 7.61644 7.61644 0 0 0 2.13763.99778 4.11332 4.11332 0 0 0 1.4709.67995q1.54189.74505 3.08379 1.49a7.662 7.662 0 0 0 2.1612.94851q.84515.4449 1.69043.8898.46791.17264.93589.34519a1.91226 1.91226 0 0 0 .95221.42785c1.43486.82715 1.43592.82791 2.35858-.52541.109-.1599.19844-.3331.297-.5001a27.35023 27.35023 0 0 1 2.90221-2.81175 15.73691 15.73691 0 0 1 4.315-1.96881c.57823-.125.60067-.57083.653-1.00028.15415-1.26415.291-2.53042.43571-3.7957q.75264-6.58041 1.506-13.16066l.71387-5.995q.25186-2.28195.50365-4.56384.15031-1.3203.30076-2.64067a16.03334 16.03334 0 0 0 .38289-2.86948q.03186-.47687.06378-.95373a2.237 2.237 0 0 0 .19035-1.2077q.03276-.48514.0656-.9702a46.5049 46.5049 0 0 0 .64027-5.02585 46.92748 46.92748 0 0 0 .54521-5.04807 18.759 18.759 0 0 0 .44343-3.59485l.45113-3.59364q.25425-2.28254.50864-4.565l.45181-3.60211a46.06 46.06 0 0 0 .54385-5.0362 49.85773 49.85773 0 0 0 .66733-5.27583q.24-2.03894.47992-4.07794a11.73486 11.73486 0 0 0 .26025-2.8812c3.0909-1.67214 6.35976-2.96644 9.524-4.483.18159-.087.29048.0201.36567.17607q-.13727 1.54734-.27446 3.0946a19.53817 19.53817 0 0 0-.48 4.07478 19.45934 19.45934 0 0 0-.4803 4.07613 2.12345 2.12345 0 0 0-.18831 1.21118l-.0272.48408a7.5306 7.5306 0 0 0-.2635 2.38616 19.45352 19.45352 0 0 0-.47978 4.07832 5.40835 5.40835 0 0 0-.25277 2.1309 20.8054 20.8054 0 0 0-.48249 4.115 37.43885 37.43885 0 0 0-.67307 5.524 22.76714 22.76714 0 0 0-.51279 4.55742q-.21616 1.3203-.43209 2.64044-.0229.71422-.04587 1.42836a5.40574 5.40574 0 0 0-.25209 2.12961h-.00008a20.4498 20.4498 0 0 0-.48075 4.07727 44.23337 44.23337 0 0 0-.70708 6.02394 2.05827 2.05827 0 0 0-.18831 1.20815l-.01337.24658a10.19742 10.19742 0 0 0-.28066 2.61792 2.04855 2.04855 0 0 0-.18884 1.215l-.03876.72664c-.45741.67035-.17124 1.42753-.25028 2.14209-.061.06068-.08055.11184-.06733.15544a2.29823 2.29823 0 0 0-.12174 1.05287l-.06211.92788a43.91815 43.91815 0 0 0-.70776 6.02695 79.75722 79.75722 0 0 0-.95932 8.15711c-.49586 2.49868-.59954 5.04807-.98183 7.5599-.13443.88314.12431 1.37017.967 1.57828l2.409 1.94493q.47674.48739.95357.97473c.307.7237.78075.32229 1.21609.18008q.484-.13751.96809-.27514a5.72305 5.72305 0 0 0 1.91145-.66824q.5994-.14951 1.19871-.29916c.33642-.11864.74229-.07308.984-.41577a2.38626 2.38626 0 0 0 1.17506-.28338l.72007-.23055 1.6778-.51007q1.44-.46281 2.87992-.92547 1.55913-.486 3.11818-.97216 1.919-.603 3.83794-1.20612a12.78722 12.78722 0 0 0 2.666-.85632 13.30519 13.30519 0 0 0 2.61324-.8075 7.08483 7.08483 0 0 0 1.94108-.62554l.00015.00023a8.92934 8.92934 0 0 0 2.3786-.7871l.00008-.00008a2.70082 2.70082 0 0 0 1.19932-.296v-.00003a7.44235 7.44235 0 0 0 1.92626-.65085q1.07592-.36045 2.15191-.721a3.57551 3.57551 0 0 0 1.682-.491q.95814-.27408 1.91629-.54823l.00008-.00008 1.92142-.65153a13.64586 13.64586 0 0 0 2.63788-.78106q1.44215-.46575 2.88437-.93135l.00015-.00016c3.61866-1.11551 7.243-2.21289 10.8546-3.35092 5.02064-1.58206 10.03161-3.19457 15.04673-4.79409l.00008.00008a19.288 19.288 0 0 0 3.63014-1.17355l.00052-.00007a9.27258 9.27258 0 0 0 2.14277-.70708v-.00008a6.26474 6.26474 0 0 0 2.43127-.72566h.00053a3.07131 3.07131 0 0 0 1.41944-.44116l.00031.00008q.83764-.26207 1.67508-.52421l.00015.00008a6.78584 6.78584 0 0 0 2.1909-.69861l.00068-.00008a8.07036 8.07036 0 0 0 2.383-.738q.34221-.12423.68448-.24839l-.00007-.00008.00015.00008q1.203-.36068 2.406-.72128a6.56445 6.56445 0 0 0 2.19378-.69839h.0003a8.23358 8.23358 0 0 0 2.35813-.73881 11.60011 11.60011 0 0 0 2.94376-.9275h.00038a21.6525 21.6525 0 0 0 3.84256-1.20325 13.40777 13.40777 0 0 0 3.10253-.97216l.00053-.00008a14.28776 14.28776 0 0 0 3.09506-.96876 3.26681 3.26681 0 0 0 1.45934-.46534.50977.50977 0 0 0 .51445-.22587h.00015a4.186 4.186 0 0 0 1.84466-.51733.90859.90859 0 0 0 .752-.22828h.00008a.89942.89942 0 0 0 .725-.22746h.00015a3.50892 3.50892 0 0 0 1.41483-.43836q.84151-.26762 1.683-.53509a1.61871 1.61871 0 0 0 .93053-.277c.93234-.14577.54075-.90778.66536-1.42949a2.955 2.955 0 0 1 .14395-.70035c.50728-1.06882.06-1.67592-.84234-2.30486-2.22392-1.54987-4.34673-3.24384-6.55025-4.82416-2.4544-1.76017-4.76084-3.72475-7.34031-5.31157-2.79346-2.27342-5.68887-4.4109-8.63929-6.475-1.93662-1.5399-3.90762-3.03347-5.96287-4.41316a33.88073 33.88073 0 0 0-4.11264-3.01662c-.78438-.28564-1.11264-1.18012-1.91848-1.437q-.94851-.63951-1.89687-1.279a15.72886 15.72886 0 0 0-3.62281-2.80185 52.913 52.913 0 0 0-4.79545-3.60422 19.84592 19.84592 0 0 0-3.35666-2.40611 10.26858 10.26858 0 0 0-2.1544-1.68083q-.60087-.45589-1.20166-.91186-1.07161-.77508-2.14307-1.55017a24.74139 24.74139 0 0 0-3.85321-2.81228c-1.42851-1.06542-2.66153-2.39856-4.31757-3.15234a8.64911 8.64911 0 0 0-2.40422-1.87314q-.96064-.72952-1.92128-1.45911a29.49662 29.49662 0 0 0-3.34087-2.46219l-2.41223-1.816q-1.89918-1.40078-3.79843-2.80148a36.28733 36.28733 0 0 0-3.85389-2.84387q-1.55413-1.18756-3.10835-2.37513c.15393-.44969.60823-.47969.94752-.6377 2.47473-1.15277 4.964-2.27425 7.44013-3.424.33355-.15483.80992-.17206.8771-.68546l-3.53062-2.44178a26.77364 26.77364 0 0 0-4.32822-3.09128 13.68908 13.68908 0 0 0-2.84984-2.22619 19.17151 19.17151 0 0 0-3.1487-2.29276 25.872 25.872 0 0 0-3.32856-2.50661 24.914 24.914 0 0 0-3.14394-2.347 32.86554 32.86554 0 0 0-3.58873-2.65578c-.10844-.31156-.62849-.32449-.6009-.80161 1.42314-.13156 2.8057-.2595 4.18834-.38736 2.9647-.11025 5.92215-.31775 8.86879-.66778a66.98805 66.98805 0 0 0 7.206-.53176c2.90719-.17713 5.81628-.32645 8.721-.53637q16.12876-1.16547 32.25488-2.3678c2.66138-.198 5.31883-.449 7.978-.67557a35.93742 35.93742 0 0 0 5.85973-.45816l-.00045-.00007.00091-.00008q1.14834-.04579 2.29661-.09166a3.92965 3.92965 0 0 0 1.68241-.169l.00091-.00022q.7149-.02495 1.42995-.04973a4.37237 4.37237 0 0 0 1.72291-.17916l.00091-.00023.66514-.03038c1.35256-.07624 2.707-.12861 4.05731-.23365 2.81659-.21914 5.63107-.46609 8.44645-.70163 3.43911-.11638 6.86831-.37043 10.28891-.74358a3.99606 3.99606 0 0 1 4.08384 1.414c.04322.05494.13987.06794.21158.1005a6.86882 6.86882 0 0 0 2.78267 1.68453 1.60037 1.60037 0 0 1 1.2968 2.01611 1.91627 1.91627 0 0 0-.09484.56872 7.115 7.115 0 0 0-.06325 1.4146l-.01829.251-.24234 4.5581a32.32457 32.32457 0 0 0-.26418 4.55923 26.34547 26.34547 0 0 0-.24446 4.55862 21.1577 21.1577 0 0 0-.26229 4.31425 19.3751 19.3751 0 0 0-.23622 4.05641.81725.81725 0 0 0-.08463.51324 24.09854 24.09854 0 0 0-.16119 3.54777 19.84053 19.84053 0 0 0-.24332 4.07871c-.43511 1.42322.03431 2.94142-.458 4.3586a5.35759 5.35759 0 0 1-.64382-.2335q-4.13376-2.10684-8.26161-4.22553c-5.09606-2.6072-10.15063-5.29646-15.32927-7.74a38.96328 38.96328 0 0 1-3.76216-1.95476c-9.51964-4.82847-19.05938-9.617-28.58189-14.43977a1.9983 1.9983 0 0 0-1.98159-.06363q-13.49031 6.256-27.02416 12.418a2.45207 2.45207 0 0 1-1.22335.426c-.06846.66279.55247.676.89584.95078q1.44363 1.09247 2.88725 2.18508c.14569.27929.43.35108.68916.46058a6.14956 6.14956 0 0 0 1.64509 1.21783 42.62222 42.62222 0 0 0 4.14724 3.08855 40.50025 40.50025 0 0 0 4.26421 3.14364 18.2259 18.2259 0 0 0 2.88536 2.15259l4.13167 3.0986a50.2196 50.2196 0 0 0 4.2807 3.13428 55.23465 55.23465 0 0 0 4.81071 3.59326 50.588 50.588 0 0 0 4.55991 3.36029 44.27993 44.27993 0 0 0 4.53074 3.3683 43.56628 43.56628 0 0 0 4.1511 3.09067 59.84313 59.84313 0 0 0 4.9357 3.65069c.74969.58595 1.48533 1.19086 2.25158 1.7542 2.36417 1.738 4.74 3.46 7.11133 5.18833a6.3217 6.3217 0 0 0 .51983.481q9.363 6.95151 18.73225 13.89457c1.74377 1.292 1.74921 1.286 3.58321.04345.35978-.24386.714-.49587 1.07071-.74418h.00015a9.86005 9.86005 0 0 1 1.28606-.54249c.99929-.27 1.47778-.83486 1.2362-1.89325q.11153-1.911.22292-3.82192l.0637-1.92521-.00015-.00015a6.68732 6.68732 0 0 0 .18521-2.15576q.01757-.72408.035-1.44809a14.76856 14.76856 0 0 0 .2131-3.11968q.11992-2.04222.23977-4.08445l.24007-3.83258q.11756-1.91719.23494-3.8344.11052-1.91583.22111-3.83152l.24053-4.07946-.00008.00008v-.00008q.12027-2.04086.2406-4.08172l.02252-.48574.02653-.96.05531-.44607c.20433-.51982.482-.55027.98274-.28912 2.84818 1.48549 5.7182 2.92926 8.58073 4.38717a4.441 4.441 0 0 0 .16663-1.72292q.14553-2.1643.29093-4.32867l.44818-5.51107.31285-4.77444-.00665-.01738a2.76653 2.76653 0 0 0 .15453-1.43713l.25934-3.3655q.12833-1.9265.2567-3.85284l-.00015-.00007h.00015l.457-5.74457q.12968-1.92354.25927-3.84709.19189-2.42591.38388-4.8519c.00325-.02531.00483-.05319.00642-.08108q.03219-.40647.06431-.813a2.89291 2.89291 0 0 1-.068.33355.92427.92427 0 0 1 .068-.33355c.10065-1.05778.20131-2.11563.31466-3.30717.26788.19172.42853.294.57506.41343q18.15942 14.80008 36.31869 29.60046c4.1483 3.37789 8.31844 6.729 12.4786 10.09235q4.45545 3.63739 8.9108 7.27464l4.78843 3.9188a37.02234 37.02234 0 0 0 3.59553 2.892c2.24939 1.99405 4.59482 3.87074 6.97486 5.705.72718.61723 1.4511 1.23839 2.18266 1.8504.61149.51159 1.42088.90166 1.79924 1.54685.44622.761-.67843 1.32067-.697 2.11548a2.11087 2.11087 0 0 1-1.8776 1.4505 3.72156 3.72156 0 0 0-1.65339.50645 40.447 40.447 0 0 0-5.03651 1.24866l-5.52633 1.43886v-.00008q-2.63538.6996-5.27084 1.39912-2.39871.61628-4.79726 1.23249v.00007q-1.797.47086-3.5941.94179a16.6555 16.6555 0 0 0-3.36482.93657 18.5033 18.5033 0 0 0-3.83848.95939 23.93782 23.93782 0 0 0-4.32074 1.16494 7.69955 7.69955 0 0 0-1.69231.34413c-.71569.3176-.96045-.0226-1.16365-.5827-.99929-4.83467-2.01045-9.66692-2.98374-14.50688-.132-.65637-.5595-.87619-1.06655-1.13q-14.299-7.15939-28.58923-14.33632c-.86705-.4729-1.70735-1.00663-2.60848-1.402-.96438-.4231-1.79281-1.1836-2.91694-1.22463l-.01292 2.12334a.48035.48035 0 0 0-.06771.36045 17.63561 17.63561 0 0 0-.19186 3.01594 12.43745 12.43745 0 0 0-.22776 3.08054 3.23977 3.23977 0 0 0-.10111.73035c-.1911 1.44582-.23146 2.90425-.32108 4.3586q-.02981.69609-.05947 1.39232a45.93994 45.93994 0 0 0-.4466 6.04237 15.55484 15.55484 0 0 0-.27121 3.55979 11.90335 11.90335 0 0 0-.22934 3.13926 3.97389 3.97389 0 0 0-.17509 1.68883l-.01776.25187c-.105 1.35044-.14939 2.70928-.33589 4.0484a1.28788 1.28788 0 0 0 1.00987 1.6512 14.18284 14.18284 0 0 1 6.29363 4.58575c1.47007 1.81209 1.46871 1.81466 3.73284 1.16675a1.52228 1.52228 0 0 0 .30959-.1732 17.48879 17.48879 0 0 0 3.614-.95017 18.116 18.116 0 0 0 3.65658-.943l.00023-.00007a19.66426 19.66426 0 0 0 3.76624-.98524 5.22706 5.22706 0 0 0 1.9042-.49 17.81341 17.81341 0 0 0 3.60074-.94776 18.566 18.566 0 0 0 3.609-.93151 11.91753 11.91753 0 0 0 2.87765-.75007 10.58063 10.58063 0 0 0 2.68064-.70073q1.64426-.38879 3.28858-.77765c.71562.00491.62683.60234.72061 1.02506.65319 2.94467 1.28742 5.89366 1.9277 8.8412q-2.27878.5103-4.55757 1.02053-.733.16027-1.46607.3207-1.66215.41249-3.32424.82511a18.3169 18.3169 0 0 0-3.35478.753q-1.08441.24439-2.16883.48884v.00002l-3.11289.70843a7.2481 7.2481 0 0 0-2.15916.50169q-.96222.23033-1.92438.46058-1.55912.35965-3.11825.71939a14.113 14.113 0 0 0-2.8753.68675c-.52262-.1039-.95539.23554-1.44536.293q-.95871.22988-1.91758.45975c-.68161-.06461-1.02219.2372-1.09911.92675-.07942.71123-.23018 1.41437-.34973 2.12115l-.00022.00068c-.28632.693-.55368 1.3948-.86645 2.07581a.78723.78723 0 0 0 .15567.96952q2.7731 3.03143 5.53237 6.07562 2.28015 2.76516 4.77777 5.33567a40.18648 40.18648 0 0 0 3.61737 4.02672 25.63267 25.63267 0 0 0 2.62072 2.93024 48.37868 48.37868 0 0 0 3.611 4.04666q2.15909 2.39881 4.318 4.79757 1.31112 1.46073 2.62216 2.92155a19.02929 19.02929 0 0 0 2.39448 2.64369 38.31544 38.31544 0 0 0 3.3785 3.79767 27.97784 27.97784 0 0 0 2.85762 3.17221 43.02245 43.02245 0 0 0 3.6151 4.038 29.131 29.131 0 0 0 3.08984 3.42309q2.177 2.47941 4.35407 4.95882a.65722.65722 0 0 0 .48113.48174 1.32154 1.32154 0 0 0-.2174-.99022q-2.71212-13.06175-5.42953-26.12236c-.63975-3.05478-1.4242-6.08137-1.98725-9.14937-.57506-3.13359-1.1901-6.25449-1.9543-9.34652-.68252-3.3958-1.37879-6.789-2.0437-10.18825-.66362-3.39278-1.53007-6.745-2.03447-10.16944q2.3918-.621 4.78366-1.24193a40.61684 40.61684 0 0 0 4.84872-1.147 15.84824 15.84824 0 0 0 3.31231-.75468 22.19677 22.19677 0 0 0 3.90822-.91043h.00038a13.63325 13.63325 0 0 0 3.06294-.69922v.00008a40.303 40.303 0 0 0 5.31618-1.23551l.00068-.00015a33.432 33.432 0 0 0 4.50618-1.01161c1.94017-.38713 3.88041-.7738 5.77577-1.35234a28.91043 28.91043 0 0 0 3.00423-.63363c.71667-.22647.977.02373 1.26936.6031a7.66443 7.66443 0 0 0 1.69171 2.40929 12.15169 12.15169 0 0 0 6.48557 4.23958 7.47009 7.47009 0 0 0 1.2677.32977c.90106.07723 1.13962.43073.98509 1.36557-.23312 1.4106-.24688 2.85739-.354 4.28885.00288.0442.00152.09015.0025.13511-.02864-.0399-.045-.08471-.07564-.12385a.786.786 0 0 0-.45574.77576 56.05984 56.05984 0 0 0-.50494 6.78308 1.90671 1.90671 0 0 0 .17509.79254 27.96337 27.96337 0 0 0-.28338 3.21619l-.03763.69589a2.16534 2.16534 0 0 0-.16851 1.20438l.00015-.00023-.00008.00023q-.04386.68905-.08758 1.378a.89535.89535 0 0 0-.0866.32191 2.953 2.953 0 0 0-.08546.94405q-.0305.58092-.06091 1.16184a.8771.8771 0 0 0-.07458.60158q-.48831 3.40538-.64663 6.84263a8.773 8.773 0 0 0-.18763.92848c-.66854 6.987-1.32 13.97565-1.9948 20.96207q-2.03044 21.01913-4.08211 42.03621c-.10473 1.07509-.24249 2.147-.37254 3.28768l-1.74052-1.67947h-.00008l.00008-.00008a53.2352 53.2352 0 0 0-3.85-4.31341 34.13536 34.13536 0 0 0-3.05123-3.39119 43.38886 43.38886 0 0 0-3.22858-3.56773 44.78807 44.78807 0 0 0-3.82487-4.3085q-1.92786-2.15772-3.85578-4.3153a34.36675 34.36675 0 0 0-3.57044-3.84656c-.95607-1.63095-2.52188-2.75417-3.57989-4.30026-.27725.04927-.26773.26516-.22738.4531q1.05958 4.93842 2.13233 9.87419v.00008c.04912.35222.08177.70776.14993 1.05627q.663 3.39028 1.339 6.77816c-.054.1964-.05614.41985-.27612.52988q-2.1915-2.39634-4.383-4.79251a10.84736 10.84736 0 0 0-1.89732-2.168 17.51518 17.51518 0 0 0-2.30757-2.65526 34.16056 34.16056 0 0 0-3.14614-3.58827 36.27119 36.27119 0 0 0-3.14062-3.59115 19.5386 19.5386 0 0 0-2.35-2.657 25.01211 25.01211 0 0 0-2.69788-3.09664 14.30915 14.30915 0 0 0-1.89838-2.16763c-.53546-.975-1.55191-1.51-2.18863-2.39243a21.43541 21.43541 0 0 0-3.13715-3.60241 24.17854 24.17854 0 0 0-3.12384-3.59054 12.71194 12.71194 0 0 0-2.14261-2.40438 7.2496 7.2496 0 0 0-1.6271-1.93291q-.75411-.83-1.50823-1.65982c-.39552-.78347-1.16766-1.23755-1.67909-1.91962a26.24742 26.24742 0 0 0-2.8812-3.35613q-1.79058-2.03791-3.581-4.07591-1.199-1.32359-2.39795-2.64717c-.94383-1.583-2.44624-2.67422-3.59206-4.07938a21.42034 21.42034 0 0 0-2.861-3.36173 20.6346 20.6346 0 0 0-2.35405-2.66032c-.76722-.915-1.58024-1.79629-2.286-2.75636-.48257-.65645-.8737-.48468-1.34365-.07065q-.36249.12717-.72491.25443-.71943.23281-1.43894.46556l-.96718.24439-1.66563.24075-.25579.00914a15.6018 15.6018 0 0 1-1.855-.02962c-.7166-.09211-.99733.22156-1.05536.868q-.31965.63567-.6393 1.27141-.04035.20379-.08062.40768a1.89413 1.89413 0 0 0-.48718 1.18911 1.506 1.506 0 0 0-.43375 1.03791 5.10854 5.10854 0 0 0-.714 1.696.79737.79737 0 0 0-.26683.65358 2.60374 2.60374 0 0 0-.51937 1.22568 5.18371 5.18371 0 0 0-.70564 1.685 7.91349 7.91349 0 0 0-.91254 2.17933 9.85482 9.85482 0 0 0-.99861 2.38662 3.64987 3.64987 0 0 0-.7036 1.683 4.9439 4.9439 0 0 0-.70322 1.67213 13.01891 13.01891 0 0 0-1.20513 2.87463 8.55262 8.55262 0 0 0-1.00655 2.39516v.00022a1.45061 1.45061 0 0 0-.41841.99113 5.44651 5.44651 0 0 0-.75831 1.83733l-.00008-.00008a17.684 17.684 0 0 0-1.42624 3.37964 11.2391 11.2391 0 0 0-1.22591 2.91324v.0003a8.13162 8.13162 0 0 0-.91013 2.17873 21.99425 21.99425 0 0 0-1.50286 3.5709 43.167 43.167 0 0 0-2.33244 5.55262 5.34333 5.34333 0 0 0-.28383.51333c-1.81178 4.29482-3.63172 8.58624-5.42416 12.88915-1.33133 3.196-2.626 6.40736-3.93687 9.61191l-.00052.00068a51.09564 51.09564 0 0 0-2.33108 5.53063l-1.53294 3.58684a14.80239 14.80239 0 0 0-1.0964 2.65073l.00016-.00008-.00008.00008a10.67747 10.67747 0 0 0-.98773 2.3987 20.839 20.839 0 0 0-1.41937 3.35538 5.81769 5.81769 0 0 0-.71047 1.68355q-.303.70276-.60559 1.40561l-.0003.00023a6.34952 6.34952 0 0 0-.87862 2.18788 13.54588 13.54588 0 0 0-1.1471 2.64535c-.68176.9566-.80712 1.81624.425 2.43936q.3558.35876.71169.71743a5.06649 5.06649 0 0 0 1.19848 1.44317q.48411.71184.96831 1.4236a2.78781 2.78781 0 0 0 .73594 1.40788c-.00113.19254.02607.36891.24846.4333a4.29286 4.29286 0 0 0 1.675.007.38034.38034 0 0 0 .23788-.20275c.00129-.01662.011-.0241.01315-.0399.00869.01308.019.02691.02872.04043l-.04194-.00045-.23781.20267a5.041 5.041 0 0 0 1.94327-.18506l.00144-.00038 1.17536-.05124a11.74271 11.74271 0 0 0 2.87258-.21332l1.21156-.04353a1.918 1.918 0 0 0 1.18775-.13836l-.0037-.00748.0037.00741c.40844.16163.79995-.02963 1.19932-.05774q.60654-.0255 1.21314-.05108a4.74984 4.74984 0 0 0 1.36836-.06929 1.55549 1.55549 0 0 0 .30779-.09325q.8373-.02709 1.6747-.05426a.27655.27655 0 0 1 .13368-.06083l-.13368.06083a6.724 6.724 0 0 0 1.55969-.08766 1.21424 1.21424 0 0 0 .37534-.10247l.69831-.02614.9708-.03945a4.38768 4.38768 0 0 0 1.72557-.15793l.01-.00249q.80637-.03119 1.61282-.0625l.25178-.02531a4.08151 4.08151 0 0 0 1.71574-.157l.00106-.00023.09929.02713.09106-.04806a21.61183 21.61183 0 0 0 2.4114-.0575c.04587-.00167.09151-.0059.13912-.01074l.00076-.00007a7.96383 7.96383 0 0 0 .841-.15627l.448-.02517a17.03888 17.03888 0 0 0 2.23639-.05932 3.15183 3.15183 0 0 0 .899-.16065q.23192-.01.46375-.0201a10.23832 10.23832 0 0 0 2.88173-.20524q.96142-.04149 1.92279-.08305a4.729 4.729 0 0 0 1.37531-.07027 1.13688 1.13688 0 0 0 .32833-.09507 15.11769 15.11769 0 0 0 3.58352-.24544q.71115-.02346 1.42231-.047l.24574-.0108a5.41067 5.41067 0 0 0 1.21413-.07111 1.39808 1.39808 0 0 0 .47554-.094l-.00166.00507 1.43085-.06915a4.93061 4.93061 0 0 0 2.18667-.18181 24.57652 24.57652 0 0 0 2.81621-.10731 2.36406 2.36406 0 0 0 .77969-.13874l.00046-.00007h-.00015l.00022-.00008a21.87239 21.87239 0 0 0 2.81312-.107 2.77664 2.77664 0 0 0 .77168-.13806 10.71574 10.71574 0 0 0 2.62-.15234 29.01281 29.01281 0 0 0 4.35006-.32161q.3448-.01281.68954-.02554a222.91235 222.91235 0 0 1 6.24346-.43693 21.465 21.465 0 0 0 4.07417-.283q.71615 0 1.43221.00008c.10383.437-.28353.61186-.489.86516q-3.93641 4.85195-7.89481 9.686c.82806-.0727 1.65551-.15431 2.48447-.21627 1.811-.13542 3.63324-.13028 5.42953-.44471a70.55335 70.55335 0 0 0 7.70461-.50154 65.37007 65.37007 0 0 0 7.1931-.487 16.81439 16.81439 0 0 0 3.81127-.26033 56.5349 56.5349 0 0 0 6.97321-.465 13.91166 13.91166 0 0 0 3.39263-.219l.00015.00007a42.40888 42.40888 0 0 0 4.99578-.3071c.24665.10043.84272-.11531.46065.5431-.35879.61836-.6832 1.25667-1.02015 1.88765q-4.80115 8.99-9.60148 17.98045c-1.55712 2.56888-2.88044 5.26245-4.23255 7.94067-1.18413 1.92876-2.21055 3.94291-3.22888 5.96152a37.10128 37.10128 0 0 0-2.34279 4.33926 13.9892 13.9892 0 0 0-1.18367 2.21636c-.10867.08509-.20963.17849-.32071.26093a15.17582 15.17582 0 0 0-2.57591 4.97961c.02736.00431.05033.0003.07708.0034-.40171.06756-.54008.4101-.714.70836q-1.38491 2.37525-2.63009 4.82666a5.53272 5.53272 0 0 0-1.05756 2.61566c.00862.006.0161.00786.02464.0136-.46481.10625-.6674.49209-.85413.86675-1.20589 2.42009-2.618 4.72993-3.81686 7.1532-.2066.41766-.5236.81529-.38358 1.3373l.01927.01065c-.52209.17638-.7299.65758-.95788 1.0834-1.27677 2.38473-2.52528 4.78442-3.829 7.15494-.21771.39582-.50834.80486-.29705 1.30738a.58343.58343 0 0 0-.4763.29962c-1.08188 1.65694-1.90261 3.45769-2.84583 5.191a.784.784 0 0 0-.04081.75551.54714.54714 0 0 0-.45974.28625c-1.04328 1.62626-1.82924 3.39452-2.78622 5.06885a.59476.59476 0 0 0-.07549.50917zM212.96758 224.6134q-1.3203 5.28256-2.64044 10.565-1.43886 5.75342-2.87765 11.50682c-.8802 2.83911-1.46841 5.75114-2.15931 8.63755a2.43585 2.43585 0 0 0-.307 1.39942c-.402-.17947-.25058-.54567-.25761-.83615-.03513-1.466-.06272-2.93236-.07209-4.39865q-.01655-7.7394-.01488-15.479-.00034-4.96733-.00318-9.93472c0-.02449-.00362-.04905-.004-.07353a2.99235 2.99235 0 0 0-.09121-1.22546c.00521-3.11228.01761-6.22464.01428-9.33692q-.01281-12.15109-.02713-24.30219c0-.41471-.26614-.99393.44517-1.15095a20.9502 20.9502 0 0 0 2.42236-1.18814 10.30128 10.30128 0 0 0 2.75137-2.24576c3.98757-4.16628 4.81041-11.26417 1.8377-15.76045q-.92991-1.28946-1.85976-2.57878a.90762.90762 0 0 0-.36756-.739c-.746-.61632-.554-1.19244-.04821-1.83687.93294-1.18851 1.7378-2.46823 2.55679-3.73563.21552-.33348.63967-.63121.4002-1.137.64519.11441.77063-.49465 1.0138-.85526 5.02563-7.45456 10.1371-14.85048 15.18743-22.288 5.74616-8.46239 11.52987-16.89924 17.2699-25.36579a51.78322 51.78322 0 0 1 3.28238-4.67023 2.98952 2.98952 0 0 1-.241.85889c-.69756 2.07248-1.42118 4.13681-2.07733 6.22237-.8137 2.58656-1.8683 5.09424-2.52278 7.73227-.91935 2.6551-1.85969 5.30318-2.75289 7.96705-1.27216 3.794-2.50964 7.59957-3.76193 11.40019a5.2968 5.2968 0 0 0-.24181.52594c-3.95538 11.73329-7.93516 23.45849-11.82963 35.212-.561 1.69314-1.03836 3.255-3.03423 3.66989a7.483 7.483 0 0 0-2.84817 1.69442 13.32328 13.32328 0 0 0-3.66181 17.06217 5.37891 5.37891 0 0 0 1.18647 1.91009 2.04937 2.04937 0 0 1 .42544 2.13468c-1.73086 6.87144-3.40226 13.75789-5.09168 20.63973zm325.3008-119.93348a1.5481 1.5481 0 0 0 .413.23327c2.61309.83078 5.27757 1.4808 7.91114 2.23957a.70485.70485 0 0 0 .654-.05494c.05486.06136.11153.12106.16632.18242a56.01977 56.01977 0 0 0 5.57824 1.67062c.589.19247 1.023.42778.98569 1.12473.02622.76753-.027 1.53755.0492 2.30569a1.44286 1.44286 0 0 0 .11425.35871c.06839.08411.13156.17207.19973.2564a13.83367 13.83367 0 0 0 8.1645 11.32122c.038.08509.08449.165.11947.25179 1.24579.75234 2.49914 1.4712 4.02883.99566l.015.022a3.20559 3.20559 0 0 0 .24627.24514 1.76748 1.76748 0 0 1 .38274.85647c-.00377.04383-.00763.08766-.00785.12982-.01225 2.611-.36189 5.211-.26464 7.8265-.31352 2.86057-.357 5.735-.43715 8.60748a.63709.63709 0 0 0-.26479.29343 27.51591 27.51591 0 0 0-.30423 6.27292c.03106.075.06915.14653.10051.22134-.4395.21045-.35758.69052-.37171 1.0781-.02539.69386-.28534 1.12421-1.00723 1.22433a.771.771 0 0 0-.54755.3037 6.24406 6.24406 0 0 1-2.67377-1.55855c-1.61222-1.35008-3.31231-2.58922-4.94591-3.91246-.34042-.27574-.65939-.61141-1.14967-.55753a1.80056 1.80056 0 0 0-.76443-.97813c-1.541-1.24541-3.07026-2.50745-4.64719-3.70533a22.50008 22.50008 0 0 0-3.82291-2.65155c-.00392-.01051-.01-.0198-.0139-.03038a2.01174 2.01174 0 0 0-.7175-.93264c-3.33249-2.64929-6.622-5.354-10.07453-7.84864-.27023-.19519-.52934-.50312-.92229-.3897-.00876-.03355-.02229-.06423-.0303-.09824-.329-.28533-.6467-.58526-.98886-.8539q-6.16839-4.84365-12.343-9.67946a.94005.94005 0 0 1-.01489-.21884c-.20191-.67368-.81869-.96695-1.3045-1.3506q-14.1253-11.1543-28.17875-22.399a26.55062 26.55062 0 0 0-4.69926-3.46246c-.05229-.00514-.10057-.02108-.15158-.02955-.63544-1.03843-1.86642-1.44226-2.57077-2.31361.57385-.0393 1.13946.45528 1.77362.22654.031.03242.06808.05554.09838.08895a34.75392 34.75392 0 0 0 6.60066 1.94357.422.422 0 0 0 .27763-.04633c.02079.02056.045.036.06567.05675a1.39628 1.39628 0 0 0 .50418.30733c2.1275.62909 4.26717 1.21549 6.4054 1.80687a1.0415 1.0415 0 0 0 .9-.118.53811.53811 0 0 0 .421.46685q2.26473.71286 4.5742 1.26733a.49448.49448 0 0 0 .37753-.07315c.03468.03809.07534.06869.10957.10746a37.692 37.692 0 0 0 5.51378 1.685 1.15816 1.15816 0 0 0 .91851-.05562c.01361-.04481.01308-.08138.02207-.12347.01428.02078.03347.036.04761.057 1.27412 1.14521 2.90507 1.22229 4.47157 1.49252a1.31514 1.31514 0 0 0 .06166-.22066c.013.01905.03038.03348.04322.05267a.98252.98252 0 0 0 .72212.557q2.61135.77975 5.24046 1.49819a.98776.98776 0 0 0 .88458-.03885c.05191.05623.10972.10565.16126.16225a19.39163 19.39163 0 0 0 4.28666 1.32339 10.8529 10.8529 0 0 0 3.43284.78612 1.08815 1.08815 0 0 0 .128-.18453c.00513.01141.0133.0204.01836.03189.77327.79964 4.5086 1.87329 5.80955 1.71218.0718.07996.14862.1547.22018.23495zm59.05129 94.63261c-.44531-.51544-.61813-1.28131-1.33586-1.54677.00718-.00476.01028-.01013.01776-.01489-.17728-.30778-.34013-.62508-.534-.922-1.95052-2.98639-3.81278-6.03135-5.911-8.91972.00952-.43882-.32108-.713-.52957-1.03443q-4.179-6.44382-8.38176-12.87215l-.00008.00007v-.00007c-.17221-.59161-.85019-.97292-.70571-1.69632a26.63289 26.63289 0 0 0 .97692-3.79351 14.35746 14.35746 0 0 0-4.88832-12.4322 1.613 1.613 0 0 1-.6133-1.42526c.0897-1.793.14161-3.58783.20819-5.38193h.00007q.18126-4.50213.36265-9.0042c.21952-.18793.20123-.543.21075-.83327a6.454 6.454 0 0 1 .21023-1.88894c.086-1.29422.143-2.59.16111-3.88714a30.87258 30.87258 0 0 0 2.12115 6.02122 1.87552 1.87552 0 0 0 .17342 1.123c.882 3.2007 1.99745 6.329 3.02191 9.48375 3.766 11.59742 7.46423 23.21675 11.24641 34.809 1.66133 5.09167 3.27052 10.20064 4.94764 15.34234-.34367-.35663-.4738-.79696-.75861-1.12658zM467.951 301.36056l-.002-.00008-.0003.00015.0003-.00037.00128-.00182zm-21.35517 1.4437c.01262-.01459.024-.03068.03642-.04549.00446.01526.00975.0309.015.0467l-.05153-.001-.00023.00015zm10.473-.71139c.00869.009.0195.01512.02879.02328h-.03786c.00224-.00899.00682-.01444.00909-.02328zm25.05883-1.745l.00189.00476-.00483-.0003zm30.44031-1.79153c-.00386.01171-.0102.02207-.01413.03378a1.27039 1.27039 0 0 0-.23547-.29985 26.40966 26.40966 0 0 0-5.252.39514c1.54844-1.62529 2.90614-3.41258 4.34273-5.132a7.26184 7.26184 0 0 0 1.80242-2.5512 2.313 2.313 0 0 0 .997-.83561c1.06791-1.28494 2.16128-2.549 3.2013-3.85737.5867-.738 1.37864-1.33919 1.53748-2.35375l.00007-.00453a18.873 18.873 0 0 0 4.19221-4.7851.25477.25477 0 0 0-.01686-.25821 2.16764 2.16764 0 0 0 1.00919-.73738c.54922-.57347 1.02083-1.21382 1.51678-1.831 1.90971-2.37634 4.03336-4.58032 5.74267-7.11807.00627-.02206.00272-.04511.00763-.06725.866 1.2473 1.99617 2.267 2.96795 3.42339a.83335.83335 0 0 0 .68343.33619 10.09238 10.09238 0 0 0 3.447 4.05868.20423.20423 0 0 0 .182.0167 6.75426 6.75426 0 0 0 3.14334 3.559c-.00514.01005-.00846.02063-.01367.03068.32085 1.44249 1.62845 2.16385 2.40528 3.27377a.69551.69551 0 0 0 .56644.30922c.638.88284.43625 1.54783-.32282 2.43052a14.134 14.134 0 0 0-3.2025 7.33894 4.502 4.502 0 0 1-.54862 2.39833c-.04912.01209-.087.0359-.13413.04995a1.30425 1.30425 0 0 0-.76322-.11463c-1.13372.128-2.27523.1667-3.406.31352a1.51511 1.51511 0 0 0-1.04614.48589l-.01209.0291a1.24761 1.24761 0 0 0-.24038-.2471c-1.54375-.33824-3.04835.14614-4.57321.22911a.9339.9339 0 0 0-.31292.18091.698.698 0 0 0-.49851-.23736 29.38728 29.38728 0 0 0-4.12057.32645.842.842 0 0 0-.55994.41055l-.0031.008a1.08862 1.08862 0 0 0-.2929-.22284 10.86758 10.86758 0 0 0-5.2029.54257.96425.96425 0 0 0-.34655-.30355 23.26341 23.26341 0 0 0-4.36979.28806c-.7549.09286-1.61341-.15855-2.25647.48837zM327.74366 140.9866a3.35117 3.35117 0 0 0-1.93111.945 2.02278 2.02278 0 0 1-.13118.22262 30.06412 30.06412 0 0 0-3.53175 1.57776c-6.47091 2.97127-12.93668 5.954-19.426 8.88458a2.02417 2.02417 0 0 0-1.25161 1.547c-.8672 3.60022-1.77445 7.19076-2.6489 10.78924-.59063 2.43044-1.15035 4.86845-1.7239 7.303.00521.011.00937.01541.01451.026a1.28249 1.28249 0 0 1-.2802.05713 1.0144 1.0144 0 0 0-.2428.40375c-.66438 2.37294-1.22508 4.77225-1.8102 7.16522a1.01618 1.01618 0 0 0 .12454.94277 1.56915 1.56915 0 0 1-.26819.15967 1.41366 1.41366 0 0 0-.26372.52609c-.8063 3.02349-1.44159 6.08877-2.22211 9.11876a1.04291 1.04291 0 0 0 .13828 1.01516 1.41137 1.41137 0 0 0 .17381.09522c-.1658.24922-.3034-.235-.40315-.00907a2.874 2.874 0 0 0-.55353 1.42564c-1.65558 6.64464-3.336 13.28308-4.98081 19.93044a14.0296 14.0296 0 0 0-.5935 3.15633.47857.47857 0 0 0 .05932.10451 28.43341 28.43341 0 0 0-5.22006-2.5982.50837.50837 0 0 0-.53274.071 31.56546 31.56546 0 0 0-4.22938-1.90632 19.45036 19.45036 0 0 0-4.31787-1.94055 10.72714 10.72714 0 0 0-3.59841-1.67931 11.31731 11.31731 0 0 0-3.09233-1.52894 21.06569 21.06569 0 0 0-3.386-1.579 18.90958 18.90958 0 0 0-3.12218-1.44967 40.68337 40.68337 0 0 0-4.781-2.21372 44.88421 44.88421 0 0 0-5.04852-2.35231 20.82886 20.82886 0 0 0-4.325-1.91168 4.03423 4.03423 0 0 0-1.517-.86c-.72824-.23818-.87106-.61451-.74456-1.40017a9.10329 9.10329 0 0 0-.17373-3.92674c.0331-.12574.06159-.25254.09514-.37821a2.50907 2.50907 0 0 1 1.01025-3.15.96182.96182 0 0 0 .34821-.581 1.34389 1.34389 0 0 0 .85927-.4401c1.20211-1.15111 2.52029-2.17443 3.68507-3.365a2.172 2.172 0 0 0 .44758-.67746.66046.66046 0 0 0 .62977-.211c1.02945-1.05672 2.27161-1.87934 3.26115-2.97792a1.069 1.069 0 0 0 .33212-.62018.99265.99265 0 0 0 .87566-.36158c1.00745-1.06557 2.22067-1.9039 3.23387-2.96062.25882-.26993.57015-.5134.60363-.92842.47931.19315.73616-.20841 1.01312-.46307 1.86543-1.71528 3.80084-3.35318 5.6399-5.09718.25882-.24544.72174-.3903.5527-.90068.546.15635.799-.30945 1.12027-.589 3.33105-2.89767 6.59061-5.8759 9.89838-8.79979a2.22078 2.22078 0 0 0 .72665-.90347c.33544-.015.54687-.2957.78324-.49852 3.43155-2.94429 6.73812-6.02983 10.15176-8.99453a1.33335 1.33335 0 0 0 .59493-1.11075l.00031-.00121c.7169.16428 1.11468-.415 1.53044-.79065 3.85163-3.47969 7.75675-6.89967 11.61231-10.3746 4.09336-3.68916 8.21529-7.3465 12.31311-11.03067 4.36464-3.92409 8.77319-7.79975 13.1327-11.73026q1.95652-1.764 3.9519-3.48778c.27975-.24226.56856-.48264.95856-.255.35222.20554.24386.5468.20683.86244-.04889.41652-.13542.84392.22715 1.17166q-.35784 3.07812-.71561 6.15632a26.19146 26.19146 0 0 0-.54174 4.79251 21.21372 21.21372 0 0 0-.4766 4.02981 41.60025 41.60025 0 0 0-.70662 6.04932 41.90913 41.90913 0 0 0-.67791 5.56737c-.05.042-.1033.07972-.15325.12188a6.13429 6.13429 0 0 0-.59418 2.85619c-.03151-.00923-.05494-.03666-.08909-.04006zm10.83986-9.9348a47.72046 47.72046 0 0 0 .54665-5.04263l.64-5.03137q.24879-2.16361.49768-4.32709a38.54118 38.54118 0 0 0 .49753-4.37568c.04987-.05017.1073-.08894.1537-.14426a2.97723 2.97723 0 0 1 2.38427-2.55218 7.01217 7.01217 0 0 0 1.892-.96075 2.19336 2.19336 0 0 1 1.42352-.3798 4.08122 4.08122 0 0 0 2.763 1.95136l.05629-.0232a5.80177 5.80177 0 0 0 3.58624 2.74518 4.0865 4.0865 0 0 0 2.82347 2.08465 3.38647 3.38647 0 0 0 2.62094 1.93027l.06053-.02259c-.1033.47327.27869.693.57234.94322.72129.6145 1.54942 1.08627 2.283 1.68679.26682.21839.54068.49595.9433.26071.01654-.00144.03377-.00114.05063-.00174-.1296.32607.14531.53138.36619.698a38.90451 38.90451 0 0 0 3.74447 2.73233 34.55857 34.55857 0 0 0-5.66492 2.40037q-8.39025 3.80765-16.74871 7.68587a63.27347 63.27347 0 0 0-5.86048 2.79868 18.27925 18.27925 0 0 0 .58231-4.90646 1.06369 1.06369 0 0 0-.23108-.13851zm53.03627-83.17394c2.27584 1.18171 4.575 2.31423 6.94668 3.29372 2.44435 1.30874 4.95036 2.488 7.50013 3.57543 3.13571 1.63684 6.33542 3.13964 9.57148 4.566 2.48614 1.31705 5.02827 2.51659 7.61242 3.628a44.07911 44.07911 0 0 0 5.54854 2.6273c2.63025 1.41286 5.3325 2.675 8.0733 3.85646a68.20107 68.20107 0 0 0 7.51539 3.5783c3.942 2.04014 7.97348 3.89356 12.00231 5.75258q-.10611 1.07125-.21227 2.14253-.13319.70923-.26645 1.41839l-6.69406.56448q-8.63373.71341-17.26747 1.42692l-14.63867 1.2108a3.09967 3.09967 0 0 0-1.4774.16685l-.00083.00023q-.6996.03343-1.39934.0668a3.18965 3.18965 0 0 0-1.4768.173l-.00181.00046-1.4004.06664a3.21382 3.21382 0 0 0-1.47642.17351l-.001.00022q-.69993.03027-1.39987.06061c-.239.00075-.47939-.01489-.71682.00468q-10.07589.83176-20.15095 1.674c-3.21633.27347-6.42882.59093-9.643.88851l-1.39813.07186a3.44045 3.44045 0 0 0-1.50022.17275l-.00113.0003q-.68883.03331-1.37758.06672a4.139 4.139 0 0 0-1.689.18907l-.00068.00023q-.71671.0348-1.43349.06952a2.93475 2.93475 0 0 0-1.44657.16987c-2.78335.1998-5.5682.38063-8.3495.60574-2.02291.16368-4.04114.38592-6.06149.582l-1.41241.06891a3.20146 3.20146 0 0 0-1.47816.1726l-.00045.00015c-.96945.208-1.44876-.277-1.81738-1.12655a7.09466 7.09466 0 0 0-1.72737-2.479c-1.25826-.94654-1.1499-2.01407-.3003-3.16767a2.64671 2.64671 0 0 0 .25239-.649q1.03726-2.18323 2.07468-4.36638c.05962-.02116.11773-.04565.17743-.06673a14.32164 14.32164 0 0 0 1.87541-3.3581.77591.77591 0 0 0 .01-.88594l-.01232-.00219c1.11861-.91368 1.38657-2.33773 2.07294-3.51037a.63817.63817 0 0 0 .08789-.64337 19.1375 19.1375 0 0 0 2.01475-3.86349.50216.50216 0 0 0-.01965-.44327 1.56025 1.56025 0 0 0 .71449-.82489c.85866-1.69956 1.563-3.47228 2.4485-5.16.14176-.27015.3062-.58111.09423-.89017a.63052.63052 0 0 0 .4763-.39794c.73579-1.63216 1.6008-3.20054 2.366-4.81781a.903.903 0 0 0 .09566-.89516 1.0903 1.0903 0 0 0 .39182-.38955c.99407-1.7975 1.883-3.64828 2.76316-5.503a.89705.89705 0 0 0 .04715-.78257.71288.71288 0 0 0 .3968-.37171c.55534-1.653 1.85441-1.71218 3.28291-1.62075a11.989 11.989 0 0 0 7.3731-2.05526 2.34025 2.34025 0 0 1 2.43733-.15037c1.20513.48831 2.2611 1.4 3.65258 1.3905.03325-.00408.06665-.00688.0999-.01089 2.70508 1.42885 5.47852 2.71492 8.27372 3.95549zM234.74388 180.37541q2.4546-7.29348 4.89875-14.59053 3.23376-9.6778 6.4524-19.36067 2.578-7.66493 5.156-15.32995c.15015-.19949.28625-.40805.44131-.60438a3.8354 3.8354 0 0 0 .56153-1.17861c1.51957-4.52061 3.0083-9.05158 4.52251-13.574a1.78161 1.78161 0 0 0 .15143-1.15949 1.20858 1.20858 0 0 0-.15-.08033c.01126-.0006.01965-.00544.03114-.00567.48952-.165.57143-.62463.72672-1.02332 1.18254-3.03528 2.103-6.16018 3.151-9.24155a1.41587 1.41587 0 0 0 .09688-1.04751c.03634-.028.0665-.06166.10337-.08909a2.85874 2.85874 0 0 0 .564-1.174c.81408-2.41745 1.62944-4.83459 2.41458-7.26141a2.09832 2.09832 0 0 1 1.42337-1.44 13.82722 13.82722 0 0 0 8.71531-8.44138c.36408-1.00579.88927-1.15413 1.81019-.84854a12.82429 12.82429 0 0 0 3.47894.80282c.03294-.007.06672-.01458.1005-.02146.12755.27786.435.33869.70065.431 1.1536.40088 2.35571.63113 3.52541.97745a1.06853 1.06853 0 0 0 .947-.07995.67646.67646 0 0 0 .02608.11985 26.82749 26.82749 0 0 0 6.63451 1.94289c.05909-.01028.122-.01693.18143-.02977.10474.29614.43111.342.6934.41818 1.60964.4673 3.23085.894 4.84646 1.34032.3643.10073.7599.24491 1.11264-.058a1.25134 1.25134 0 0 0 .05093.1939 33.13819 33.13819 0 0 0 7.05429 2.01128c.04821-.00121.09234-.0173.13987-.02154a.80068.80068 0 0 0 .48226.30658c1.811.5913 3.6581 1.05589 5.49656 1.55024a.892.892 0 0 0 .89524-.16163c.02055-.014.04194-.0266.06249-.04058a.82136.82136 0 0 0-.04224.21393 15.37784 15.37784 0 0 0 5.0019 1.51322 1.93551 1.93551 0 0 0 .5508-.11351 40.40613 40.40613 0 0 0 4.56233 1.261 1.62818 1.62818 0 0 1 1.46637 1.98589 5.46568 5.46568 0 0 0 .27355 1.38906c.18771.57975-.22821.86063-.57771 1.18028q-16.70277 15.27591-33.40145 30.55622c-4.14822 3.79941-8.27128 7.6264-12.40583 11.44077q-5.7321 5.05539-11.276 10.31649c-2.22007 1.91569-4.40092 3.87414-6.48127 5.94217a65.24954 65.24954 0 0 0-5.53675 5.08132c-2.13438 1.66412-4.02762 3.593-5.98434 5.45212q-3.34269 3.04321-6.68529 6.08643-3.24351 2.89926-6.48694 5.79852c-.97056-.15614-.67184-.75388-.47628-1.33506zM390.246 33.196a.94057.94057 0 0 0 .72469.28375 28.944 28.944 0 0 0 3.78407.2802c.36778-.03226.73586-.05607 1.10372-.08584q11.97224 1.30431 23.94506 2.59843 11.71323 1.2659 23.42735 2.52294c4.13886.44093 8.2802.857 12.42072 1.28236.19118.0727.38592.13353.57476.21454 1.53422.6603 3.20024.5081 4.79583.78385a.96513.96513 0 0 0-.136.048 1.57885 1.57885 0 0 0 .17789 1.675 1.45827 1.45827 0 0 0 .21075.20138 10.24836 10.24836 0 0 0 1.60375 4.32551c3.23258 5.07693 9.53793 7.35345 14.66776 5.29554a9.94034 9.94034 0 0 0 3.92689-2.07951 1.6641 1.6641 0 0 0 .31859.128c.21325.06363.41848.1463.62916.2162.68894.51921 1.3738 1.0441 2.07627 1.54435q6.70089 4.772 13.4129 9.52825c.27333.22421.53486.46481.82156.67028q12.93321 9.26918 25.87269 18.52943c3.728 2.66493 7.47451 5.30387 11.21271 7.95466 1.263.93537 2.53011 1.86551 3.78414 2.81289.15718.11872.59025.12763.31541.52557q-4.29243-1.10732-8.58488-2.21478a.47365.47365 0 0 0-.1095-.04708l-.00544.00106a2.8222 2.8222 0 0 0-.4237-.16965q-5.14891-1.34308-10.30054-2.67626c-2.32609-.86275-4.80664-1.146-7.15963-1.90806a2.63247 2.63247 0 0 0-.42438-.19405q-5.5682-1.45258-11.139-2.89541c-.68048-.20886-1.35241-.45287-2.04294-.62047-3.00709-.72983-5.94331-1.73856-8.99672-2.28476-2.17095-.56425-4.34666-1.1112-6.50907-1.70652a1.40028 1.40028 0 0 1-1.04932-.95108 11.53 11.53 0 0 0-3.15195-4.57721 14.19576 14.19576 0 0 0-15.18713-2.76294 5.37355 5.37355 0 0 0-1.90851.94375 1.60961 1.60961 0 0 1-1.94267.06574c-5.1831-2.52036-10.3922-4.98716-15.593-7.471a10.14187 10.14187 0 0 1-1.19312-.4438c-4.58855-2.37324-9.20944-4.67931-13.924-6.79419a2.27653 2.27653 0 0 1-.42945-.1302c-3.00187-1.5949-6.0333-3.12868-9.16032-4.46681-1.05264-.53622-2.08186-1.12632-3.16291-1.59732a65.02811 65.02811 0 0 0-6.43985-2.93191c-3.14992-1.67878-6.32167-3.31245-9.61947-4.68686a1.14944 1.14944 0 0 0-.482-.48514c-2.06115-1.25856-4.26316-2.24432-6.425-3.30762a1.71066 1.71066 0 0 0-1.07924-.12952 1.91305 1.91305 0 0 0-.80614-.67639c-1.952-1.13622-4.08377-1.90337-6.08522-2.94015a1.14971 1.14971 0 0 0-.82912-.10231 13.9243 13.9243 0 0 0-1.93-1.3197 4.10178 4.10178 0 0 1 1.88841-.089 26.39287 26.39287 0 0 0 4.39253.35584c.04724-.01617.0953-.02667.14261-.04198zM219.16252 317.99282c.00295-.03091-.00173-.05985.003-.09121.143-.5004-.20056-.81838-.44169-1.17377q-1.40747-2.07441-2.94248-4.05634c-1.25675-1.62407-2.31816-3.39928-3.7243-4.90774a7.83176 7.83176 0 0 1 .93982.36091c.46.2078.91013.52209 1.44521.30272 2.62156 1.44687 5.30258 2.77465 8.02909 4.01137 2.79151 1.59627 5.677 3.00566 8.60393 4.33283a65.38423 65.38423 0 0 0 6.24376 3.12233c2.4544 1.36738 4.93767 2.67755 7.51675 3.79805a62.10809 62.10809 0 0 0 5.76565 2.87652 26.4408 26.4408 0 0 0 3.83574 1.91851c.98615.34942.55368 1.35121.91443 1.98816.25293 5.12991 4.77513 10.96613 9.845 12.70583 1.464.33929 1.58342 1.27692 1.1202 2.48893a2.63013 2.63013 0 0 0-.08509.57347h-.00008q-.48854 2.40505-.97715 4.81011-.71523 3.47361-1.43039 6.94721-.4738 2.28627-.94753 4.57245-.72669 3.57881-1.45352 7.15751a.706.706 0 0 0-.10111-.00007 1.113 1.113 0 0 0-.3971.7203 1.54153 1.54153 0 0 1-1.31244 1.37191c-.77857.18529-1.023-.51144-1.35348-.96552-5.804-7.97725-11.64479-15.92768-17.45087-23.90334q-6.87569-9.44487-13.765-18.87977-3.347-4.6029-6.721-9.18639c-.27718-.37658-.44857-1.08668-1.15935-.89497zm218.448 112.24376a5.25061 5.25061 0 0 1-1.782.12235q-22.30848.00714-44.617.00355-3.29836 0-6.59665-.001c-.48219-.00053-1 .03853-1.29937-.43187a1.46249 1.46249 0 0 0-.187-.20864c.00045-.01518-.00272-.0244-.002-.04a13.85975 13.85975 0 0 0-.3702-3.44265c-.38093-1.81889-.383-1.81844 1.46145-2.08133q13.06855-1.67249 26.137-3.34511c1.46486-.17266 2.93123-.33332 4.39427-.52q12.76737-1.6293 25.53286-3.27241c2.84485-.36786 5.68427-.77819 8.52617-1.169.517-.02168 1.03889-.00491 1.5501-.0711q6.21507-.80433 12.42668-1.63587 5.45847-.72521 10.91558-1.4604c1.29725-.14712 2.59889-.26418 3.88994-.45377.68221-.10013 1.01395.02048 1.0506.79639a3.80086 3.80086 0 0 0 .30854 1.84912c.17864.738-.19307 1.00526-.85927 1.23966q-7.98833 2.81028-15.94929 5.698-6.71314 2.42048-13.41495 4.87283a3.75443 3.75443 0 0 1-.55541-.07526 4.90588 4.90588 0 0 0-1.2612.33015c-3.10781 1.07705-6.19432 2.2144-9.29882 3.29636zM195.64411 251.79475c-.00521.00113-.00944-.00461-.01511-.001-.07972.0507-.04375.00491.01511-.01428z" class="cls-1"/><path d="M424.97137 273.075a2.872 2.872 0 0 0 .55534-1.18232l.0003-.00022q.33756-.72.675-1.4403h.00007a9.171 9.171 0 0 0 1.17106-3.12762l-.00023.00023.00008-.00016a24.51186 24.51186 0 0 0 1.75745-4.08248q.5799-1.308 1.15941-2.61618l.00023-.00008c1.88168-4.114 3.58692-8.302 5.24832-12.50837l.00008.00007c.60544-1.88485 1.63911-3.60323 2.14873-5.52527l-.00008-.00015a29.21323 29.21323 0 0 0 2.37487-5.27115l.00015.00007c.43066-1.49515 1.41317-2.7655 1.75058-4.29867a36.31038 36.31038 0 0 0 1.85009-4.34659c.31859-1.3447 1.34237-2.41132 1.50521-3.81747a12.40546 12.40546 0 0 0 1.41838-3.36573 19.90361 19.90361 0 0 0 1.16977-2.649l-.00007-.00008q.70617-1.68155 1.41241-3.36316.73881-1.79036 1.47771-3.58072a17.31107 17.31107 0 0 0 1.19946-2.87908 14.82407 14.82407 0 0 0 1.19909-2.87969 11.9731 11.9731 0 0 0 1.2303-3.11984c.23547-.45551.44388-.92758.71191-1.363.559-.90839.349-1.47121-.39838-2.31045-1.13509-1.27465-2.16929-1.78359-3.68531-.85231a22.80806 22.80806 0 0 0-3.59621 1.15843 14.80811 14.80811 0 0 0-2.90659.87332l-.00022-.00022-2.61256.84491q-1.5563.48513-3.11266.9702l-3.129.96982q-1.33287.42041-2.66561.841l-.00015-.00016q-1.65819.52708-3.31646 1.05408l.00023.00023-.00023-.00015-3.12286.97163v.00008q-1.9189.59928-3.83787 1.19863a20.33872 20.33872 0 0 0-3.39732 1.10093l-.00045-.00023a22.75261 22.75261 0 0 0-4.04153 1.26642 10.29921 10.29921 0 0 0-2.40626.737l-.00008.00015q-1.555.48423-3.11016.96816l.00007.00015q-1.80135.58467-3.60271 1.16924a13.68759 13.68759 0 0 0-3.11591.96862l.00008.00007h-.00008q-2.03587.60687-4.072 1.21367l.00007.00016q-4.68939 1.51922-9.37886 3.0386a39.70577 39.70577 0 0 0-4.79439 1.49138q-1.31712.376-2.63425.75166l-.00007.00015q-1.79853.59157-3.59682 1.183a13.84442 13.84442 0 0 0-2.8979.93868v.00008c-.25753.0031-.52133-.01277-.70314.2264l-.00008-.00008a6.60956 6.60956 0 0 0-2.172.66846q-.8313.27816-1.66261.55625a3.74443 3.74443 0 0 0-1.45179.44062l-.00015.00016c-.254.02848-.52707-.00529-.71954.22284l-.00008-.00023a3.61409 3.61409 0 0 0-1.69314.52141v.00008a.85065.85065 0 0 0-.72461.239h-.00037a2.9168 2.9168 0 0 0-1.45338.45785l-.00037-.00015a12.55791 12.55791 0 0 0-3.11372.9662 14.30917 14.30917 0 0 0-3.10752.97443 7.38381 7.38381 0 0 0-2.14858.67375 14.9809 14.9809 0 0 0-3.14659.9878v.00008a3.47214 3.47214 0 0 0-1.40834.44131l-.00015-.00023a8.11845 8.11845 0 0 0-2.41556.76942 8.44142 8.44142 0 0 0-2.36954.73843 8.94637 8.94637 0 0 0-2.39817.739 20.283 20.283 0 0 0-3.62961 1.16123 13.048 13.048 0 0 0-3.09687.97435v.00008c-.685.186-1.36957.37367-2.05518.55745a.73288.73288 0 0 0-.62.73458 8.67235 8.67235 0 0 1-1.38649 3.87929c-.2298.36816-.37648.67617.0909 1.002 1.1666.81309 2.31135 1.65747 3.4648 2.48923v.00008a17.80566 17.80566 0 0 0 2.87334 2.15508v.00008a26.37821 26.37821 0 0 0 3.15067 2.38654q1.4409 1.0801 2.88166 2.16022a17.14006 17.14006 0 0 0 2.63356 1.9512l.00008.00015a7.60359 7.60359 0 0 0 1.89747 1.42458 8.6775 8.6775 0 0 0 1.9175 1.43864v.00007a22.86576 22.86576 0 0 0 3.14342 2.385 28.481 28.481 0 0 0 3.59356 2.68208l.00008.00015 3.38923 2.58128.00008-.00007v.00007c1.68354 1.36949 3.42029 2.6672 5.22482 3.87362a22.06616 22.06616 0 0 0 3.83643 2.87651 13.18054 13.18054 0 0 0 2.90236 2.18584l.00076.00075c2.60493 2.222 5.42439 4.1619 8.16322 6.20787h.00023q1.31734.96041 2.63485 1.92075v.00007a14.0375 14.0375 0 0 0 2.16067 1.67614l-.00007.00008q2.40436 1.79227 4.80875 3.58465 2.27413 1.68959 4.54834 3.3791 1.6989 1.27247 3.39793 2.54493 1.91834 1.444 3.83666 2.88785c1.03685.79806 2.08851 1.57791 3.10374 2.40249a1.09565 1.09565 0 0 0 1.30625.10322 8.69977 8.69977 0 0 1 4.57532-1.12277c2.83526.4101 3.475-1.37289 4.12684-3.36875a2.47283 2.47283 0 0 0 .06211-.35033 25.214 25.214 0 0 0 1.69519-4.08006 12.71088 12.71088 0 0 0 1.1941-2.86027l.00015-.00007a23.46327 23.46327 0 0 0 1.4242-3.384 32.71025 32.71025 0 0 0 1.48526-3.58646 1.91376 1.91376 0 0 0 .46685-1.1573 2.21913 2.21913 0 0 0 .418-1.24088l-.00015.00015.00008-.00015c.20059-.38744.5658-.70883.48517-1.20911z" class="cls-1"/></svg>