<svg width="508" height="264" viewBox="0 0 508 264" fill="none" xmlns="http://www.w3.org/2000/svg">
<rect x="0.5" y="116.5" width="31" height="31" rx="3.5" stroke="#D2DCDF"/>
<path d="M19.5 128.5C19.5 130.433 17.933 132 16 132C14.067 132 12.5 130.433 12.5 128.5C12.5 126.567 14.067 125 16 125C17.933 125 19.5 126.567 19.5 128.5ZM18.5 128.5C18.5 127.119 17.3807 126 16 126C14.6193 126 13.5 127.119 13.5 128.5C13.5 129.881 14.6193 131 16 131C17.3807 131 18.5 129.881 18.5 128.5ZM11.75 133C10.7835 133 9.99997 133.784 10 134.75L10 135C10 136.197 10.7613 137.209 11.8425 137.897C12.9295 138.588 14.4008 139 16 139C17.5991 139 19.0704 138.588 20.1575 137.897C21.2387 137.209 22 136.197 22 135V134.75C22 133.783 21.2165 133 20.25 133H11.75ZM11 134.75C11 134.336 11.3358 134 11.75 134H20.25C20.6642 134 21 134.336 21 134.75V135C21 135.736 20.5301 136.474 19.6206 137.053C18.7171 137.628 17.4383 138 16 138C14.5616 138 13.2829 137.628 12.3793 137.053C11.4699 136.474 11 135.736 11 135L11 134.75Z" fill="#ABBDC5"/>
<rect x="384.5" y="86.5" width="31" height="31" rx="3.5" stroke="#D2DCDF"/>
<path d="M394.832 96C394.004 96 393.332 96.6716 393.332 97.5V104.5C393.332 105.328 394.004 106 394.832 106H398.332V106.833C398.332 107.294 397.959 107.667 397.499 107.667H397.165C396.889 107.667 396.665 107.891 396.665 108.167C396.665 108.443 396.889 108.667 397.165 108.667H402.832C403.108 108.667 403.332 108.443 403.332 108.167C403.332 107.891 403.108 107.667 402.832 107.667H402.499C402.038 107.667 401.665 107.294 401.665 106.833V106H405.165C405.994 106 406.665 105.328 406.665 104.5V97.5C406.665 96.6716 405.994 96 405.165 96H394.832ZM400.665 106V106.833C400.665 107.133 400.737 107.417 400.865 107.667H399.132C399.26 107.417 399.332 107.133 399.332 106.833V106H400.665ZM394.332 97.5C394.332 97.2239 394.556 97 394.832 97H405.165C405.442 97 405.665 97.2239 405.665 97.5V102.667H394.332V97.5ZM394.332 103.667H405.665V104.5C405.665 104.776 405.442 105 405.165 105H394.832C394.556 105 394.332 104.776 394.332 104.5V103.667Z" fill="#FDFDFD"/>
<rect x="384.5" y="158.5" width="31" height="31" rx="3.5" stroke="#D2DCDF"/>
<path d="M394.832 168C394.004 168 393.332 168.672 393.332 169.5V176.5C393.332 177.328 394.004 178 394.832 178H398.332V178.833C398.332 179.294 397.959 179.667 397.499 179.667H397.165C396.889 179.667 396.665 179.891 396.665 180.167C396.665 180.443 396.889 180.667 397.165 180.667H402.832C403.108 180.667 403.332 180.443 403.332 180.167C403.332 179.891 403.108 179.667 402.832 179.667H402.499C402.038 179.667 401.665 179.294 401.665 178.833V178H405.165C405.994 178 406.665 177.328 406.665 176.5V169.5C406.665 168.672 405.994 168 405.165 168H394.832ZM400.665 178V178.833C400.665 179.133 400.737 179.417 400.865 179.667H399.132C399.26 179.417 399.332 179.133 399.332 178.833V178H400.665ZM394.332 169.5C394.332 169.224 394.556 169 394.832 169H405.165C405.442 169 405.665 169.224 405.665 169.5V174.667H394.332V169.5ZM394.332 175.667H405.665V176.5C405.665 176.776 405.442 177 405.165 177H394.832C394.556 177 394.332 176.776 394.332 176.5V175.667Z" fill="#FDFDFD"/>
<rect x="476.5" y="50.5" width="31" height="31" rx="3.5" stroke="#D2DCDF"/>
<path fill-rule="evenodd" clip-rule="evenodd" d="M483 68V64C483 63.4477 483.448 63 484 63H500C500.552 63 501 63.4477 501 64V68C501 68.5523 500.552 69 500 69H484C483.448 69 483 68.5523 483 68ZM482 68V64C482 62.8954 482.895 62 484 62H500C501.105 62 502 62.8954 502 64V68C502 69.1046 501.105 70 500 70H484C482.895 70 482 69.1046 482 68ZM497 65.5V66.5C497 66.7761 497.224 67 497.5 67H498.5C498.776 67 499 66.7761 499 66.5V65.5C499 65.2239 498.776 65 498.5 65H497.5C497.224 65 497 65.2239 497 65.5Z" fill="#FDFDFD"/>
<rect x="476.5" y="122.5" width="31" height="31" rx="3.5" stroke="#D2DCDF"/>
<mask id="path-10-inside-1_19833_23115" fill="white">
<path fill-rule="evenodd" clip-rule="evenodd" d="M495 144C498.314 144 501 141.314 501 138C501 134.686 498.314 132 495 132C493.628 132 492.364 132.46 491.354 133.235C490.931 133.083 490.475 133 490 133C488.959 133 488.012 133.397 487.3 134.049C484.87 134.389 483 136.476 483 139C483 141.761 485.239 144 488 144H495Z"/>
</mask>
<path d="M491.354 133.235L491.015 134.176L491.529 134.36L491.962 134.029L491.354 133.235ZM487.3 134.049L487.439 135.039L487.746 134.996L487.975 134.786L487.3 134.049ZM500 138C500 140.761 497.761 143 495 143V145C498.866 145 502 141.866 502 138H500ZM495 133C497.761 133 500 135.239 500 138H502C502 134.134 498.866 131 495 131V133ZM491.962 134.029C492.804 133.383 493.856 133 495 133V131C493.401 131 491.924 131.537 490.745 132.441L491.962 134.029ZM490 134C490.358 134 490.699 134.062 491.015 134.176L491.692 132.294C491.162 132.103 490.592 132 490 132V134ZM487.975 134.786C488.51 134.297 489.219 134 490 134V132C488.7 132 487.514 132.498 486.625 133.311L487.975 134.786ZM484 139C484 136.982 485.496 135.311 487.439 135.039L487.161 133.058C484.244 133.467 482 135.97 482 139H484ZM488 143C485.791 143 484 141.209 484 139H482C482 142.314 484.686 145 488 145V143ZM495 143H488V145H495V143Z" fill="#FDFDFD" mask="url(#path-10-inside-1_19833_23115)"/>
<rect x="476.5" y="194.5" width="31" height="31" rx="3.5" stroke="#D2DCDF"/>
<path fill-rule="evenodd" clip-rule="evenodd" d="M483 203V207C483 207.552 483.448 208 484 208H500C500.552 208 501 207.552 501 207V203C501 202.448 500.552 202 500 202H484C483.448 202 483 202.448 483 203ZM482 203V207C482 208.105 482.895 209 484 209H500C501.105 209 502 208.105 502 207V203C502 201.895 501.105 201 500 201H484C482.895 201 482 201.895 482 203ZM497 205.5V204.5C497 204.224 497.224 204 497.5 204H498.5C498.776 204 499 204.224 499 204.5V205.5C499 205.776 498.776 206 498.5 206H497.5C497.224 206 497 205.776 497 205.5ZM483 213V217C483 217.552 483.448 218 484 218H500C500.552 218 501 217.552 501 217V213C501 212.448 500.552 212 500 212H484C483.448 212 483 212.448 483 213ZM482 213V217C482 218.105 482.895 219 484 219H500C501.105 219 502 218.105 502 217V213C502 211.895 501.105 211 500 211H484C482.895 211 482 211.895 482 213ZM497 215.5V214.5C497 214.224 497.224 214 497.5 214H498.5C498.776 214 499 214.224 499 214.5V215.5C499 215.776 498.776 216 498.5 216H497.5C497.224 216 497 215.776 497 215.5Z" fill="#FDFDFD"/>
<mask id="path-14-inside-2_19833_23115" fill="white">
<path d="M84 4C84 1.79086 85.7909 0 88 0H120C126.627 0 132 5.37258 132 12V252C132 258.627 126.627 264 120 264H88C85.7909 264 84 262.209 84 260V4Z"/>
</mask>
<path d="M84 4C84 1.23858 86.2386 -1 89 -1H120C127.18 -1 133 4.8203 133 12H131C131 5.92487 126.075 1 120 1H88C85.7909 1 84 2.34315 84 4ZM133 252C133 259.18 127.18 265 120 265H89C86.2386 265 84 262.761 84 260C84 261.657 85.7909 263 88 263H120C126.075 263 131 258.075 131 252H133ZM84 264V0V264ZM120 -1C127.18 -1 133 4.8203 133 12V252C133 259.18 127.18 265 120 265V263C126.075 263 131 258.075 131 252V12C131 5.92487 126.075 1 120 1V-1Z" fill="#D2DCDF" mask="url(#path-14-inside-2_19833_23115)"/>
<rect x="92.5" y="8.5" width="31" height="31" rx="3.5" stroke="#D2DCDF"/>
<path d="M102.832 18C102.004 18 101.332 18.6716 101.332 19.5V26.5C101.332 27.3284 102.004 28 102.832 28H106.332V28.8333C106.332 29.2936 105.959 29.6667 105.499 29.6667H105.165C104.889 29.6667 104.665 29.8905 104.665 30.1667C104.665 30.4428 104.889 30.6667 105.165 30.6667H110.832C111.108 30.6667 111.332 30.4428 111.332 30.1667C111.332 29.8905 111.108 29.6667 110.832 29.6667H110.499C110.038 29.6667 109.665 29.2936 109.665 28.8333V28H113.165C113.994 28 114.665 27.3284 114.665 26.5V19.5C114.665 18.6716 113.994 18 113.165 18H102.832ZM108.665 28V28.8333C108.665 29.1334 108.737 29.4166 108.865 29.6667H107.132C107.26 29.4166 107.332 29.1334 107.332 28.8333V28H108.665ZM102.332 19.5C102.332 19.2239 102.556 19 102.832 19H113.165C113.442 19 113.665 19.2239 113.665 19.5V24.6667H102.332V19.5ZM102.332 25.6667H113.665V26.5C113.665 26.7761 113.442 27 113.165 27H102.832C102.556 27 102.332 26.7761 102.332 26.5V25.6667Z" fill="#FDFDFD"/>
<rect x="92.5" y="80.5" width="31" height="31" rx="3.5" stroke="#D2DCDF"/>
<path d="M102.832 90C102.004 90 101.332 90.6716 101.332 91.5V98.5C101.332 99.3284 102.004 100 102.832 100H106.332V100.833C106.332 101.294 105.959 101.667 105.499 101.667H105.165C104.889 101.667 104.665 101.891 104.665 102.167C104.665 102.443 104.889 102.667 105.165 102.667H110.832C111.108 102.667 111.332 102.443 111.332 102.167C111.332 101.891 111.108 101.667 110.832 101.667H110.499C110.038 101.667 109.665 101.294 109.665 100.833V100H113.165C113.994 100 114.665 99.3284 114.665 98.5V91.5C114.665 90.6716 113.994 90 113.165 90H102.832ZM108.665 100V100.833C108.665 101.133 108.737 101.417 108.865 101.667H107.132C107.26 101.417 107.332 101.133 107.332 100.833V100H108.665ZM102.332 91.5C102.332 91.2239 102.556 91 102.832 91H113.165C113.442 91 113.665 91.2239 113.665 91.5V96.6667H102.332V91.5ZM102.332 97.6667H113.665V98.5C113.665 98.7761 113.442 99 113.165 99H102.832C102.556 99 102.332 98.7761 102.332 98.5V97.6667Z" fill="#FDFDFD"/>
<rect x="92.5" y="152.5" width="31" height="31" rx="3.5" stroke="#D2DCDF"/>
<path d="M102.832 162C102.004 162 101.332 162.672 101.332 163.5V170.5C101.332 171.328 102.004 172 102.832 172H106.332V172.833C106.332 173.294 105.959 173.667 105.499 173.667H105.165C104.889 173.667 104.665 173.891 104.665 174.167C104.665 174.443 104.889 174.667 105.165 174.667H110.832C111.108 174.667 111.332 174.443 111.332 174.167C111.332 173.891 111.108 173.667 110.832 173.667H110.499C110.038 173.667 109.665 173.294 109.665 172.833V172H113.165C113.994 172 114.665 171.328 114.665 170.5V163.5C114.665 162.672 113.994 162 113.165 162H102.832ZM108.665 172V172.833C108.665 173.133 108.737 173.417 108.865 173.667H107.132C107.26 173.417 107.332 173.133 107.332 172.833V172H108.665ZM102.332 163.5C102.332 163.224 102.556 163 102.832 163H113.165C113.442 163 113.665 163.224 113.665 163.5V168.667H102.332V163.5ZM102.332 169.667H113.665V170.5C113.665 170.776 113.442 171 113.165 171H102.832C102.556 171 102.332 170.776 102.332 170.5V169.667Z" fill="#FDFDFD"/>
<rect x="92.5" y="224.5" width="31" height="31" rx="3.5" stroke="#D2DCDF"/>
<path d="M102.832 234C102.004 234 101.332 234.672 101.332 235.5V242.5C101.332 243.328 102.004 244 102.832 244H106.332V244.833C106.332 245.294 105.959 245.667 105.499 245.667H105.165C104.889 245.667 104.665 245.891 104.665 246.167C104.665 246.443 104.889 246.667 105.165 246.667H110.832C111.108 246.667 111.332 246.443 111.332 246.167C111.332 245.891 111.108 245.667 110.832 245.667H110.499C110.038 245.667 109.665 245.294 109.665 244.833V244H113.165C113.994 244 114.665 243.328 114.665 242.5V235.5C114.665 234.672 113.994 234 113.165 234H102.832ZM108.665 244V244.833C108.665 245.133 108.737 245.417 108.865 245.667H107.132C107.26 245.417 107.332 245.133 107.332 244.833V244H108.665ZM102.332 235.5C102.332 235.224 102.556 235 102.832 235H113.165C113.442 235 113.665 235.224 113.665 235.5V240.667H102.332V235.5ZM102.332 241.667H113.665V242.5C113.665 242.776 113.442 243 113.165 243H102.832C102.556 243 102.332 242.776 102.332 242.5V241.667Z" fill="#FDFDFD"/>
<path d="M93.0371 116.98C93.8214 120.425 91.6645 123.854 88.2183 124.639C87.7476 124.746 87.2771 124.798 86.8134 124.8C86.2306 124.802 85.659 124.723 85.1115 124.573C84.623 124.44 84.1538 124.248 83.7139 124.006C83.5795 123.932 83.4476 123.853 83.3187 123.769C82.7527 123.403 82.2441 122.947 81.8162 122.417C81.7326 122.314 81.6518 122.208 81.5747 122.098C81.1028 121.433 80.7512 120.665 80.559 119.82C80.5415 119.743 80.5254 119.665 80.5112 119.587C79.8723 116.222 82.0097 112.928 85.3778 112.161C86.2066 111.972 87.0344 111.954 87.8244 112.083C87.9771 112.108 88.1285 112.138 88.2779 112.174C88.9315 112.329 89.5531 112.587 90.121 112.932C90.2461 113.008 90.3685 113.089 90.4883 113.173C90.9142 113.474 91.3039 113.826 91.647 114.224C92.0006 114.634 92.3051 115.092 92.5484 115.592C92.726 115.957 92.8712 116.343 92.979 116.749C93.0006 116.826 93.0196 116.903 93.0371 116.98Z" fill="url(#paint0_linear_19833_23115)"/>
<path d="M91.7495 117.254C91.767 117.33 91.7823 117.408 91.7968 117.484C92.2782 120.155 90.5711 122.767 87.8982 123.375C85.225 123.984 82.5556 122.368 81.8336 119.752C81.8136 119.677 81.7941 119.601 81.7766 119.524C81.1507 116.774 82.8784 114.028 85.6281 113.403C88.3776 112.777 91.1236 114.504 91.7495 117.254Z" fill="#DA8928"/>
<path d="M91.7979 117.484C92.2794 120.155 90.5722 122.767 87.8993 123.375C87.8395 123.389 87.78 123.401 87.7204 123.412C87.1193 123.527 86.521 123.531 85.9464 123.437C85.3718 123.343 84.822 123.152 84.3188 122.877C84.1909 122.808 84.0663 122.733 83.9442 122.652C83.3909 122.286 82.9071 121.813 82.529 121.254C82.4377 121.12 82.3526 120.981 82.2747 120.838C82.0896 120.5 81.9417 120.136 81.8351 119.752C81.3536 117.08 83.0605 114.468 85.7337 113.859C86.0718 113.782 86.4101 113.741 86.7449 113.733C86.9151 113.729 87.0853 113.733 87.2537 113.746C87.9411 113.798 88.6023 113.99 89.2014 114.297C89.3307 114.364 89.4576 114.436 89.5815 114.514C90.062 114.814 90.4929 115.194 90.8528 115.64C91.2033 116.074 91.4861 116.571 91.6821 117.116C91.7249 117.236 91.7637 117.359 91.7979 117.484Z" fill="url(#paint1_linear_19833_23115)"/>
<path d="M88.102 121.06L88.2907 121.889L87.2381 122.128L87.0579 121.337C86.3014 121.462 85.5314 121.426 85.0209 121.251L85.2959 119.838C85.8547 120.017 86.5542 120.054 87.1288 119.924C87.6288 119.81 87.7842 119.665 87.7434 119.486C87.594 118.829 84.826 120.016 84.3825 118.068C84.1906 117.225 84.6413 116.377 85.8262 115.926L85.641 115.113L86.6933 114.873L86.8753 115.672C87.4396 115.598 88.0091 115.618 88.4889 115.76L88.2494 117.157C87.6748 117.013 87.1608 116.996 86.7056 117.1C86.1906 117.217 86.0604 117.404 86.1012 117.583C86.2439 118.21 89.0134 117.03 89.4518 118.955C89.6355 119.761 89.2131 120.595 88.102 121.06Z" fill="#DA8928"/>
<path d="M88.008 120.791L88.1967 121.619L87.1444 121.859L86.9642 121.068C86.2077 121.193 85.4377 121.156 84.9272 120.982L85.2022 119.569C85.761 119.748 86.4604 119.785 87.035 119.654C87.5353 119.54 87.6904 119.395 87.6496 119.216C87.5 118.559 84.7322 119.747 84.2888 117.799C84.0968 116.955 84.5475 116.107 85.7325 115.657L85.5473 114.843L86.5996 114.604L86.7813 115.402C87.3456 115.328 87.9151 115.348 88.3951 115.49L88.1556 116.887C87.5811 116.743 87.067 116.727 86.6118 116.83C86.0968 116.947 85.9667 117.134 86.0075 117.313C86.1501 117.94 88.9199 116.76 89.3581 118.686C89.5415 119.492 89.1191 120.326 88.008 120.791Z" fill="url(#paint2_linear_19833_23115)"/>
<path d="M89.9993 125.551C89.9996 125.558 89.9996 125.565 89.9996 125.573C89.9996 125.845 89.8515 126.107 89.579 126.351C89.5125 126.411 89.4383 126.47 89.3573 126.527C89.1304 126.688 88.848 126.84 88.5175 126.981C88.446 127.011 88.3718 127.041 88.2959 127.07C88.0396 127.17 87.7587 127.262 87.456 127.348C87.3835 127.368 87.3096 127.389 87.2344 127.408C86.9692 127.478 86.6886 127.543 86.3943 127.601C86.3212 127.616 86.2476 127.63 86.1726 127.644C85.903 127.694 85.6226 127.74 85.3328 127.78C85.2594 127.79 85.1858 127.8 85.1111 127.81C84.8386 127.845 84.5583 127.875 84.2713 127.901C84.1977 127.907 84.1238 127.914 84.0497 127.92C83.7753 127.942 83.4949 127.96 83.2098 127.973C83.1362 127.976 83.0623 127.979 82.9882 127.982C82.7123 127.992 82.4321 127.998 82.1484 128C82.0991 128 82.0493 128 82.0001 128C81.9757 128 81.9511 128 81.9267 128C81.6429 127.999 81.3628 127.994 81.0866 127.985C81.0122 127.982 80.9383 127.979 80.8649 127.976C80.6551 127.967 80.4473 127.955 80.2429 127.942C80.1698 127.937 80.0972 127.931 80.0251 127.926C79.9507 127.92 79.8771 127.914 79.8035 127.907C79.5165 127.883 79.2362 127.853 78.9636 127.819C78.889 127.81 78.8153 127.801 78.742 127.79C78.5682 127.767 78.3979 127.741 78.231 127.714C78.1199 127.696 78.0104 127.678 77.9022 127.658C77.8277 127.644 77.7536 127.63 77.6805 127.616C77.3867 127.559 77.1061 127.496 76.8404 127.428C76.788 127.414 76.7361 127.401 76.6845 127.387C76.6625 127.381 76.6405 127.375 76.6187 127.369C76.4987 127.336 76.3816 127.301 76.2684 127.266C76.0968 127.213 75.9335 127.157 75.7787 127.099C75.7027 127.07 75.6288 127.041 75.557 127.012C75.2737 126.895 75.0238 126.771 74.812 126.639C74.7795 126.619 74.7476 126.599 74.7172 126.578C74.6787 126.553 74.6417 126.527 74.6063 126.501C74.5676 126.473 74.5309 126.444 74.4955 126.415C74.175 126.153 74 125.869 74 125.573C74 125.552 74.001 125.531 74.0029 125.511L74.0037 123.834L74.4952 123.833L74.7169 123.832L75.5567 123.831L75.7784 123.831L76.4337 123.83L76.6182 123.829L76.8399 123.829L77.68 123.828L77.9016 123.828L78.7414 123.826L78.9631 123.826L79.8029 123.825L80.0246 123.824L80.8644 123.823L81.0861 123.823L81.9262 123.822L82.1478 123.821L82.9876 123.82L83.2093 123.82L84.0491 123.819L84.2708 123.818L85.1106 123.817L85.3323 123.817L86.1721 123.815L86.3938 123.815L87.2338 123.814L87.4555 123.813H87.5103L88.2953 123.812L88.517 123.812L89.3568 123.811L89.5785 123.81L89.9962 123.81L89.9993 125.55V125.551Z" fill="url(#paint3_linear_19833_23115)"/>
<path d="M74.7178 123.833V126.579C74.6793 126.554 74.6423 126.528 74.6069 126.502C74.5682 126.474 74.5315 126.445 74.4961 126.416V123.834L74.7178 123.833Z" fill="#DA8928"/>
<path d="M75.7803 123.831V127.099C75.7043 127.07 75.6304 127.042 75.5586 127.012V123.832L75.7803 123.831Z" fill="#DA8928"/>
<path d="M76.8389 123.829V127.428C76.7865 127.414 76.7346 127.401 76.683 127.387C76.6609 127.381 76.6389 127.375 76.6172 127.369V123.83L76.8389 123.829Z" fill="#DA8928"/>
<path d="M77.9014 123.827V127.657C77.827 127.643 77.7528 127.63 77.6797 127.615V123.827L77.9014 123.827Z" fill="#DA8928"/>
<path d="M78.9639 123.826V127.819C78.8892 127.81 78.8156 127.8 78.7422 127.79V123.826H78.9639Z" fill="#DA8928"/>
<path d="M80.0264 123.824V127.925C79.952 127.919 79.8783 127.913 79.8047 127.907V123.824L80.0264 123.824Z" fill="#DA8928"/>
<path d="M81.0889 123.823V127.985C81.0145 127.982 80.9406 127.979 80.8672 127.976V123.824L81.0889 123.823Z" fill="#DA8928"/>
<path d="M82.1514 123.821V127.999C82.1021 128 82.0523 128 82.0031 128C81.9787 128 81.9541 128 81.9297 128V123.822L82.1514 123.821Z" fill="#DA8928"/>
<path d="M83.21 123.82V127.973C83.1363 127.976 83.0624 127.979 82.9883 127.982V123.821L83.21 123.82Z" fill="#DA8928"/>
<path d="M84.2725 123.818V127.901C84.1988 127.907 84.1249 127.914 84.0508 127.92V123.819L84.2725 123.818Z" fill="#DA8928"/>
<path d="M85.335 123.816V127.779C85.2616 127.79 85.188 127.799 85.1133 127.809V123.817L85.335 123.816Z" fill="#DA8928"/>
<path d="M86.3935 123.815V127.601C86.3204 127.616 86.2468 127.63 86.1719 127.644V123.816L86.3935 123.815Z" fill="#DA8928"/>
<path d="M87.4561 123.814V127.348C87.3835 127.369 87.3096 127.389 87.2344 127.409V123.815L87.4561 123.814Z" fill="#DA8928"/>
<path d="M88.5186 123.812V126.981C88.447 127.011 88.3729 127.041 88.2969 127.071V123.813L88.5186 123.812Z" fill="#DA8928"/>
<path d="M89.581 123.811V126.351C89.5145 126.411 89.4403 126.47 89.3594 126.527V123.811H89.581Z" fill="#DA8928"/>
<path d="M89.9996 123.831C89.9996 125.063 86.4194 126.061 82.0016 126.061C81.3981 126.061 80.8101 126.043 80.2449 126.007C79.5341 125.963 78.8588 125.892 78.2333 125.799C77.675 125.715 77.1564 125.614 76.6874 125.497C76.544 125.462 76.4052 125.425 76.2715 125.387C75.6833 125.218 75.1901 125.024 74.8157 124.811C74.7423 124.769 74.6737 124.727 74.61 124.683C74.2193 124.421 74.0039 124.132 74.0039 123.83C74.0039 123.803 74.006 123.775 74.0105 123.747C74.1656 122.554 77.6841 121.6 82.0019 121.6C83.0644 121.6 84.0785 121.658 85.0058 121.762C85.185 121.783 85.3608 121.804 85.5332 121.828C86.2866 121.932 86.9726 122.068 87.569 122.229C87.7002 122.264 87.8273 122.301 87.95 122.339C88.3854 122.474 88.7628 122.624 89.0707 122.786C89.388 122.953 89.6317 123.132 89.7897 123.321C89.905 123.459 89.9744 123.602 89.9935 123.748C89.9977 123.775 89.9996 123.803 89.9996 123.831Z" fill="url(#paint4_linear_19833_23115)"/>
<path d="M88.3944 123.831C88.3944 123.858 88.3917 123.886 88.3881 123.913C88.2337 124.858 85.4287 125.614 82.0019 125.614C78.575 125.614 75.77 124.858 75.6157 123.913C75.612 123.886 75.6094 123.858 75.6094 123.831C75.6094 122.848 78.4768 122.048 82.0019 122.048C85.5267 122.048 88.3944 122.848 88.3944 123.831Z" fill="#DA8928"/>
<path d="M88.3893 123.913C88.235 124.858 85.43 125.614 82.0031 125.614C81.9264 125.614 81.8506 125.613 81.7749 125.613C81.0106 125.605 80.28 125.56 79.6058 125.484C78.9316 125.407 78.3143 125.3 77.7774 125.167C77.6408 125.134 77.5098 125.099 77.383 125.062C76.8105 124.894 76.3519 124.696 76.0461 124.477C75.972 124.424 75.907 124.37 75.8517 124.316C75.7196 124.186 75.6402 124.052 75.6172 123.912C75.7715 122.967 78.5766 122.211 82.0034 122.211C82.4368 122.211 82.8605 122.223 83.2708 122.246C83.4797 122.258 83.6856 122.272 83.8871 122.29C84.7104 122.361 85.4632 122.477 86.1081 122.628C86.2472 122.661 86.3819 122.695 86.5114 122.731C87.0137 122.87 87.4337 123.033 87.7484 123.212C88.0552 123.387 88.2623 123.578 88.3495 123.778C88.3686 123.823 88.382 123.868 88.3893 123.913Z" fill="url(#paint5_linear_19833_23115)"/>
<path d="M82.8901 124.842V125.139H81.5409V124.856C80.584 124.84 79.6561 124.768 79.082 124.669L79.8092 124.21C80.4407 124.314 81.2826 124.381 82.0194 124.381C82.6606 124.381 82.8901 124.343 82.8901 124.279C82.8901 124.044 79.1874 124.234 79.1874 123.537C79.1874 123.236 79.9719 122.982 81.5412 122.921V122.63H82.8904V122.916C83.5984 122.934 84.2873 122.985 84.8328 123.07L84.1534 123.527C83.4931 123.433 82.8713 123.388 82.2877 123.388C81.6274 123.388 81.417 123.441 81.417 123.505C81.417 123.73 85.1197 123.543 85.1197 124.231C85.1195 124.519 84.3732 124.77 82.8901 124.842Z" fill="#DA8928"/>
<path d="M82.8511 124.744V125.04H81.5019V124.757C80.5449 124.741 79.6168 124.669 79.043 124.57L79.7701 124.111C80.4016 124.215 81.2435 124.282 81.9803 124.282C82.6215 124.282 82.8511 124.245 82.8511 124.181C82.8511 123.946 79.1483 124.135 79.1483 123.439C79.1483 123.137 79.9328 122.884 81.5021 122.822V122.531H82.8513V122.817C83.5593 122.835 84.2482 122.886 84.7938 122.972L84.1146 123.428C83.4543 123.334 82.8325 123.289 82.2487 123.289C81.5883 123.289 81.3779 123.342 81.3779 123.407C81.3779 123.631 85.0807 123.444 85.0807 124.132C85.0807 124.421 84.3342 124.672 82.8511 124.744Z" fill="url(#paint6_linear_19833_23115)"/>
<path d="M89.9993 122.951C89.9996 122.959 89.9996 122.966 89.9996 122.973C89.9996 123.246 89.8515 123.508 89.579 123.752C89.5125 123.812 89.4383 123.87 89.3573 123.928C89.1304 124.088 88.848 124.24 88.5175 124.381C88.446 124.412 88.3718 124.442 88.2959 124.471C88.0396 124.57 87.7587 124.663 87.456 124.748C87.3835 124.769 87.3096 124.789 87.2344 124.809C86.9692 124.879 86.6886 124.943 86.3943 125.002C86.3212 125.016 86.2476 125.031 86.1726 125.045C85.903 125.095 85.6226 125.14 85.3328 125.18C85.2594 125.191 85.1858 125.2 85.1111 125.21C84.8386 125.245 84.5583 125.276 84.2713 125.301C84.1977 125.308 84.1238 125.314 84.0497 125.32C83.7753 125.342 83.4949 125.36 83.2098 125.373C83.1362 125.376 83.0623 125.38 82.9882 125.382C82.7123 125.392 82.4321 125.399 82.1484 125.4C82.0991 125.4 82.0493 125.401 82.0001 125.401C81.9757 125.401 81.9511 125.401 81.9267 125.4C81.6429 125.4 81.3628 125.395 81.0866 125.385C81.0122 125.382 80.9383 125.38 80.8649 125.376C80.6551 125.367 80.4473 125.356 80.2429 125.342C80.1698 125.337 80.0972 125.332 80.0251 125.326C79.9507 125.32 79.8771 125.314 79.8035 125.308C79.5165 125.283 79.2362 125.253 78.9636 125.22C78.889 125.21 78.8153 125.201 78.742 125.191C78.5682 125.167 78.3979 125.142 78.231 125.115C78.1199 125.097 78.0104 125.078 77.9022 125.058C77.8277 125.045 77.7536 125.031 77.6805 125.016C77.3867 124.959 77.1061 124.896 76.8404 124.828C76.788 124.815 76.7361 124.801 76.6845 124.787C76.6625 124.781 76.6405 124.775 76.6187 124.769C76.4987 124.736 76.3816 124.702 76.2684 124.666C76.0968 124.613 75.9335 124.557 75.7787 124.499C75.7027 124.47 75.6288 124.442 75.557 124.412C75.2737 124.296 75.0238 124.171 74.812 124.04C74.7795 124.02 74.7476 123.999 74.7172 123.979C74.6787 123.953 74.6417 123.928 74.6063 123.902C74.5676 123.873 74.5309 123.845 74.4955 123.816C74.175 123.553 74 123.27 74 122.973C74 122.952 74.001 122.932 74.0029 122.911L74.0037 121.234L74.4952 121.233L74.7169 121.233L75.5567 121.232L75.7784 121.231L76.4337 121.23L76.6182 121.23L76.8399 121.229L77.68 121.228L77.9016 121.228L78.7414 121.227L78.9631 121.226L79.8029 121.225L80.0246 121.225L80.8644 121.224L81.0861 121.223L81.9262 121.222L82.1478 121.222L82.9876 121.221L83.2093 121.22L84.0491 121.219L84.2708 121.219L85.1106 121.217L85.3323 121.217L86.1721 121.216L86.3938 121.215L87.2338 121.214L87.4555 121.214H87.5103L88.2953 121.213L88.517 121.212L89.3568 121.211L89.5785 121.211L89.9962 121.21L89.9993 122.951V122.951Z" fill="url(#paint7_linear_19833_23115)"/>
<path d="M74.7178 121.233V123.98C74.6793 123.954 74.6423 123.928 74.6069 123.902C74.5682 123.874 74.5315 123.846 74.4961 123.816V121.234L74.7178 121.233Z" fill="#DA8928"/>
<path d="M75.7803 121.231V124.5C75.7043 124.471 75.6304 124.442 75.5586 124.413V121.232L75.7803 121.231Z" fill="#DA8928"/>
<path d="M76.8389 121.229V124.828C76.7865 124.815 76.7346 124.801 76.683 124.787C76.6609 124.781 76.6389 124.775 76.6172 124.769V121.23L76.8389 121.229Z" fill="#DA8928"/>
<path d="M77.9014 121.228V125.057C77.827 125.044 77.7528 125.03 77.6797 125.016V121.228L77.9014 121.228Z" fill="#DA8928"/>
<path d="M78.9639 121.227V125.219C78.8892 125.21 78.8156 125.201 78.7422 125.19V121.227H78.9639Z" fill="#DA8928"/>
<path d="M80.0264 121.225V125.326C79.952 125.32 79.8783 125.314 79.8047 125.307V121.225L80.0264 121.225Z" fill="#DA8928"/>
<path d="M81.0889 121.224V125.385C81.0145 125.382 80.9406 125.38 80.8672 125.377V121.224L81.0889 121.224Z" fill="#DA8928"/>
<path d="M82.1514 121.222V125.4C82.1021 125.4 82.0523 125.4 82.0031 125.4C81.9787 125.4 81.9541 125.4 81.9297 125.4V121.222L82.1514 121.222Z" fill="#DA8928"/>
<path d="M83.21 121.221V125.373C83.1363 125.376 83.0624 125.38 82.9883 125.382V121.221L83.21 121.221Z" fill="#DA8928"/>
<path d="M84.2725 121.219V125.301C84.1988 125.308 84.1249 125.314 84.0508 125.32V121.219L84.2725 121.219Z" fill="#DA8928"/>
<path d="M85.335 121.217V125.18C85.2616 125.19 85.188 125.2 85.1133 125.21V121.217L85.335 121.217Z" fill="#DA8928"/>
<path d="M86.3935 121.216V125.002C86.3204 125.016 86.2468 125.031 86.1719 125.044V121.216L86.3935 121.216Z" fill="#DA8928"/>
<path d="M87.4561 121.215V124.749C87.3835 124.769 87.3096 124.79 87.2344 124.809V121.215L87.4561 121.215Z" fill="#DA8928"/>
<path d="M88.5186 121.213V124.381C88.447 124.412 88.3729 124.442 88.2969 124.471V121.213L88.5186 121.213Z" fill="#DA8928"/>
<path d="M89.581 121.211V123.752C89.5145 123.811 89.4403 123.87 89.3594 123.927V121.211H89.581Z" fill="#DA8928"/>
<path d="M89.9996 121.231C89.9996 122.463 86.4194 123.462 82.0016 123.462C81.3981 123.462 80.8101 123.443 80.2449 123.408C79.5341 123.363 78.8588 123.292 78.2333 123.199C77.675 123.116 77.1564 123.014 76.6874 122.898C76.544 122.862 76.4052 122.825 76.2715 122.787C75.6833 122.619 75.1901 122.424 74.8157 122.211C74.7423 122.169 74.6737 122.127 74.61 122.084C74.2193 121.821 74.0039 121.533 74.0039 121.231C74.0039 121.203 74.006 121.175 74.0105 121.148C74.1656 119.954 77.6841 119 82.0019 119C83.0644 119 84.0785 119.058 85.0058 119.163C85.185 119.183 85.3608 119.205 85.5332 119.229C86.2866 119.332 86.9726 119.468 87.569 119.629C87.7002 119.665 87.8273 119.702 87.95 119.74C88.3854 119.875 88.7628 120.025 89.0707 120.186C89.388 120.353 89.6317 120.533 89.7897 120.721C89.905 120.859 89.9744 121.002 89.9935 121.148C89.9977 121.176 89.9996 121.203 89.9996 121.231Z" fill="url(#paint8_linear_19833_23115)"/>
<path d="M88.3944 121.231C88.3944 121.258 88.3917 121.286 88.3881 121.313C88.2337 122.258 85.4287 123.014 82.0019 123.014C78.575 123.014 75.77 122.258 75.6157 121.313C75.612 121.286 75.6094 121.258 75.6094 121.231C75.6094 120.248 78.4768 119.448 82.0019 119.448C85.5267 119.448 88.3944 120.248 88.3944 121.231Z" fill="#DA8928"/>
<path d="M88.3893 121.313C88.235 122.258 85.43 123.014 82.0031 123.014C81.9264 123.014 81.8506 123.014 81.7749 123.013C81.0106 123.006 80.28 122.961 79.6058 122.884C78.9316 122.808 78.3143 122.7 77.7774 122.568C77.6408 122.534 77.5098 122.499 77.383 122.462C76.8105 122.295 76.3519 122.097 76.0461 121.877C75.972 121.825 75.907 121.771 75.8517 121.716C75.7196 121.587 75.6402 121.452 75.6172 121.313C75.7715 120.367 78.5766 119.611 82.0034 119.611C82.4368 119.611 82.8605 119.623 83.2708 119.647C83.4797 119.658 83.6856 119.673 83.8871 119.69C84.7104 119.761 85.4632 119.877 86.1081 120.028C86.2472 120.061 86.3819 120.095 86.5114 120.131C87.0137 120.271 87.4337 120.433 87.7484 120.613C88.0552 120.788 88.2623 120.978 88.3495 121.179C88.3686 121.223 88.382 121.268 88.3893 121.313Z" fill="url(#paint9_linear_19833_23115)"/>
<path d="M82.8901 122.243V122.539H81.5409V122.256C80.584 122.24 79.6561 122.168 79.082 122.069L79.8092 121.61C80.4407 121.714 81.2826 121.781 82.0194 121.781C82.6606 121.781 82.8901 121.744 82.8901 121.68C82.8901 121.445 79.1874 121.634 79.1874 120.938C79.1874 120.636 79.9719 120.383 81.5412 120.321V120.03H82.8904V120.316C83.5984 120.335 84.2873 120.385 84.8328 120.471L84.1534 120.927C83.4931 120.834 82.8713 120.788 82.2877 120.788C81.6274 120.788 81.417 120.842 81.417 120.906C81.417 121.13 85.1197 120.943 85.1197 121.632C85.1195 121.92 84.3732 122.171 82.8901 122.243Z" fill="#DA8928"/>
<path d="M82.8511 122.144V122.44H81.5019V122.157C80.5449 122.142 79.6168 122.069 79.043 121.971L79.7701 121.512C80.4016 121.615 81.2435 121.682 81.9803 121.682C82.6215 121.682 82.8511 121.645 82.8511 121.581C82.8511 121.346 79.1483 121.536 79.1483 120.839C79.1483 120.537 79.9328 120.284 81.5021 120.222V119.932H82.8513V120.217C83.5593 120.236 84.2482 120.287 84.7938 120.372L84.1146 120.828C83.4543 120.735 82.8325 120.69 82.2487 120.69C81.5883 120.69 81.3779 120.743 81.3779 120.807C81.3779 121.031 85.0807 120.844 85.0807 121.533C85.0807 121.821 84.3342 122.072 82.8511 122.144Z" fill="url(#paint10_linear_19833_23115)"/>
<rect x="70.668" y="115.583" width="6.66667" height="0.833333" rx="0.416667" fill="#EB0000"/>
<rect x="184.5" y="68.5" width="139" height="139" rx="7.5" stroke="#8D9FA7"/>
<g clip-path="url(#clip0_19833_23115)">
<path d="M254.359 103.656V109.389L259.33 106.513L254.359 103.656Z" fill="#00D3A9"/>
<path d="M254.359 110.587V116.348L259.376 113.481L254.359 110.587Z" fill="#00D3A9"/>
<path d="M253.643 109.349V103.704L248.734 106.518L253.643 109.349Z" fill="#00B39F"/>
<path d="M243.797 116.326C244.76 117.875 246.062 119.184 247.605 120.157V114.124L243.797 116.326Z" fill="#00B39F"/>
<path d="M253.644 116.319V110.629L248.723 113.476L253.644 116.319Z" fill="#00B39F"/>
<path d="M248.32 119.797L253.303 116.95L248.32 114.07V119.797Z" fill="#00D3A9"/>
<path d="M259.714 119.828V114.109L254.738 116.953L259.714 119.828Z" fill="#00B39F"/>
<path d="M264.586 115.663C265.437 114.076 265.918 112.317 265.993 110.519L260.812 113.483L264.586 115.663Z" fill="#00B39F"/>
<path d="M260.434 112.876L265.435 110.018L260.434 107.146V112.876Z" fill="#00D3A9"/>
<path d="M259.715 105.91V100.226L254.762 103.064L259.715 105.91Z" fill="#00B39F"/>
<path d="M259.714 112.851V107.115L254.75 109.988L259.714 112.851Z" fill="#00B39F"/>
<path d="M248.32 107.104V112.883L253.321 109.989L248.32 107.104Z" fill="#00D3A9"/>
<path d="M253.642 98C251.801 98.0518 249.997 98.5281 248.371 99.3918L253.642 102.414V98Z" fill="#00B39F"/>
<path d="M248.32 100.187V105.931L253.325 103.063L248.32 100.187Z" fill="#00D3A9"/>
<path d="M247.605 99.8379C246.062 100.811 244.76 102.121 243.797 103.668L247.605 105.865V99.8379Z" fill="#00B39F"/>
<path d="M259.684 99.422C258.044 98.54 256.221 98.0531 254.359 98V102.47L259.684 99.422Z" fill="#00D3A9"/>
<path d="M242 110.42C242.062 112.27 242.553 114.081 243.435 115.71L247.293 113.477L242 110.42Z" fill="#00D3A9"/>
<path d="M243.435 104.287C242.556 105.908 242.065 107.711 242 109.554L247.298 106.516L243.435 104.287Z" fill="#00D3A9"/>
<path d="M248.363 120.597C249.992 121.465 251.799 121.944 253.643 121.996V117.579L248.363 120.597Z" fill="#00B39F"/>
<path d="M264.218 103.688C263.261 102.145 261.967 100.838 260.434 99.8633V105.875L264.218 103.688Z" fill="#00D3A9"/>
<path d="M260.434 120.137C261.975 119.156 263.274 117.838 264.232 116.283L260.434 114.09V120.137Z" fill="#00D3A9"/>
<path d="M266.01 109.52C265.942 107.695 265.455 105.91 264.587 104.303L260.762 106.51L266.01 109.52Z" fill="#00B39F"/>
<path d="M254.359 121.997C256.2 121.945 258.003 121.469 259.629 120.605L254.359 117.553V121.997Z" fill="#00D3A9"/>
<path d="M247.602 112.832V107.165L242.68 109.986L247.602 112.832Z" fill="#00B39F"/>
</g>
<rect x="200" y="138" width="40" height="40" rx="8" fill="#ABBDC5" fill-opacity="0.2"/>
<g clip-path="url(#clip1_19833_23115)">
<path d="M228.024 150.633C229.723 152.513 230.925 154.834 231.509 157.363C232.094 159.892 232.04 162.54 231.354 165.04L217.926 160.906L228.024 150.633Z" fill="#FEB41C"/>
<path d="M221.322 148.51C223.372 149.141 225.229 150.334 226.706 151.969L217.924 160.905L215.027 148.377C217.1 147.833 219.271 147.879 221.322 148.51Z" fill="#5E7C88"/>
<path d="M215.463 150.247L217.924 160.905L208 157.843C208.505 155.993 209.461 154.316 210.771 152.983C212.081 151.65 213.699 150.706 215.463 150.247Z" fill="#4B5F6D"/>
<path d="M209.751 158.375L217.924 160.906L211.779 167.153C210.743 166.008 210.011 164.594 209.655 163.053C209.299 161.511 209.332 159.898 209.751 158.375Z" fill="#363F45"/>
<path d="M217.923 160.905L219.516 167.797C218.375 168.092 217.182 168.065 216.055 167.717C214.928 167.369 213.907 166.714 213.094 165.816L217.923 160.905Z" fill="#24221F"/>
</g>
<path d="M259.715 157.428H254.572V152.285C254.572 151.969 254.317 151.714 254.001 151.714C253.685 151.714 253.429 151.969 253.429 152.285V157.428H248.286C247.97 157.428 247.715 157.684 247.715 158C247.715 158.316 247.97 158.571 248.286 158.571H253.429V163.714C253.429 164.03 253.685 164.285 254.001 164.285C254.317 164.285 254.572 164.03 254.572 163.714V158.571H259.715C260.031 158.571 260.286 158.316 260.286 158C260.286 157.684 260.031 157.428 259.715 157.428Z" fill="#FDFDFD"/>
<rect x="268" y="138" width="40" height="40" rx="8" fill="#ABBDC5" fill-opacity="0.2"/>
<path d="M287.354 155.854C287.549 155.658 287.549 155.342 287.354 155.146C287.158 154.951 286.842 154.951 286.646 155.146L285.234 156.558L284.837 156.196C284.633 156.009 284.317 156.024 284.131 156.228C283.945 156.432 283.959 156.748 284.163 156.934L284.913 157.619C285.11 157.799 285.415 157.793 285.604 157.603L287.354 155.854ZM287.354 160.146C287.549 160.342 287.549 160.658 287.354 160.854L285.604 162.603C285.415 162.793 285.11 162.799 284.913 162.619L284.163 161.934C283.959 161.748 283.945 161.432 284.131 161.228C284.317 161.024 284.633 161.009 284.837 161.196L285.234 161.558L286.646 160.146C286.842 159.951 287.158 159.951 287.354 160.146ZM289 160.75C288.724 160.75 288.5 160.974 288.5 161.25C288.5 161.526 288.724 161.75 289 161.75H291.5C291.776 161.75 292 161.526 292 161.25C292 160.974 291.776 160.75 291.5 160.75H289ZM288.5 156.25C288.5 155.974 288.724 155.75 289 155.75H291.5C291.776 155.75 292 155.974 292 156.25C292 156.526 291.776 156.75 291.5 156.75H289C288.724 156.75 288.5 156.526 288.5 156.25ZM286.5 150C285.847 150 285.291 150.417 285.085 151H283.5C282.672 151 282 151.672 282 152.5V164.5C282 165.328 282.672 166 283.5 166H292.5C293.328 166 294 165.328 294 164.5V152.5C294 151.672 293.328 151 292.5 151H290.915C290.709 150.417 290.153 150 289.5 150H286.5ZM286 151.5C286 151.224 286.224 151 286.5 151H289.5C289.776 151 290 151.224 290 151.5C290 151.776 289.776 152 289.5 152H286.5C286.224 152 286 151.776 286 151.5ZM283.5 152H285.085C285.291 152.583 285.847 153 286.5 153H289.5C290.153 153 290.709 152.583 290.915 152H292.5C292.776 152 293 152.224 293 152.5V164.5C293 164.776 292.776 165 292.5 165H283.5C283.224 165 283 164.776 283 164.5V152.5C283 152.224 283.224 152 283.5 152Z" fill="#00B39F"/>
<g opacity="0.1" clip-path="url(#clip2_19833_23115)">
<g opacity="0.8">
<path d="M300.025 100.46V117.062H263.723V100.46H300.025Z" stroke="white"/>
<path d="M227.118 132.46V137.259H287.82C296.46 137.259 303.422 143.869 303.422 151.967V158.76H282.381V152.239H206.078V132.46H227.118Z" stroke="white"/>
<path opacity="0.6" d="M256.634 100.46V117.062H227.118V125.711H206.078V100.46H256.634Z" stroke="white"/>
<path opacity="0.6" d="M303.379 165.419V178.455C303.305 182.183 301.725 185.734 298.983 188.328C296.239 190.925 292.554 192.351 288.734 192.292H252.863V175.689H282.379V165.419H303.379Z" stroke="white"/>
<path d="M225.35 166.368V175.689H245.773V192.292H220.003C216.184 192.351 212.498 190.924 209.754 188.327C207.096 185.812 205.531 182.398 205.37 178.794L205.359 178.444V166.368H225.35Z" stroke="white"/>
</g>
</g>
<path d="M184 68H324V80C324 82.2091 322.209 84 320 84H188C185.791 84 184 82.2091 184 80V68Z" fill="#00B39F" fill-opacity="0.3"/>
<circle cx="195" cy="76" r="3" fill="#FF0000"/>
<circle cx="205" cy="76" r="3" fill="#FFFF00"/>
<circle cx="215" cy="76" r="3" fill="#008000"/>
<path d="M32 131.5C31.7239 131.5 31.5 131.724 31.5 132C31.5 132.276 31.7239 132.5 32 132.5V131.5ZM92.3536 24.3536C92.5488 24.1583 92.5488 23.8417 92.3536 23.6464L89.1716 20.4645C88.9763 20.2692 88.6597 20.2692 88.4645 20.4645C88.2692 20.6597 88.2692 20.9763 88.4645 21.1716L91.2929 24L88.4645 26.8284C88.2692 27.0237 88.2692 27.3403 88.4645 27.5355C88.6597 27.7308 88.9763 27.7308 89.1716 27.5355L92.3536 24.3536ZM32 132.5H42V131.5H32V132.5ZM62.5 112V44H61.5V112H62.5ZM82 24.5H92V23.5H82V24.5ZM62.5 44C62.5 33.2304 71.2304 24.5 82 24.5V23.5C70.6782 23.5 61.5 32.6782 61.5 44H62.5ZM42 132.5C53.3218 132.5 62.5 123.322 62.5 112H61.5C61.5 122.77 52.7696 131.5 42 131.5V132.5Z" fill="#FDFDFD"/>
<path d="M32 131.5C31.7239 131.5 31.5 131.724 31.5 132C31.5 132.276 31.7239 132.5 32 132.5V131.5ZM92.3536 240.354C92.5488 240.158 92.5488 239.842 92.3536 239.646L89.1716 236.464C88.9763 236.269 88.6597 236.269 88.4645 236.464C88.2692 236.66 88.2692 236.976 88.4645 237.172L91.2929 240L88.4645 242.828C88.2692 243.024 88.2692 243.34 88.4645 243.536C88.6597 243.731 88.9763 243.731 89.1716 243.536L92.3536 240.354ZM32 132.5H42V131.5H32V132.5ZM61.5 152V220H62.5V152H61.5ZM82 240.5H92V239.5H82V240.5ZM61.5 220C61.5 231.322 70.6782 240.5 82 240.5V239.5C71.2304 239.5 62.5 230.77 62.5 220H61.5ZM42 132.5C52.7696 132.5 61.5 141.23 61.5 152H62.5C62.5 140.678 53.3218 131.5 42 131.5V132.5Z" fill="#FDFDFD"/>
<path d="M32 131.5C31.7239 131.5 31.5 131.724 31.5 132C31.5 132.276 31.7239 132.5 32 132.5V131.5ZM108.354 111.646C108.158 111.451 107.842 111.451 107.646 111.646L104.464 114.828C104.269 115.024 104.269 115.34 104.464 115.536C104.66 115.731 104.976 115.731 105.172 115.536L108 112.707L110.828 115.536C111.024 115.731 111.34 115.731 111.536 115.536C111.731 115.34 111.731 115.024 111.536 114.828L108.354 111.646ZM32 132.5H88V131.5H32V132.5ZM88 132.5C99.3218 132.5 108.5 123.322 108.5 112H107.5C107.5 122.77 98.7696 131.5 88 131.5V132.5Z" fill="#FDFDFD"/>
<path d="M32 131.5C31.7239 131.5 31.5 131.724 31.5 132C31.5 132.276 31.7239 132.5 32 132.5V131.5ZM107.646 152.354C107.842 152.549 108.158 152.549 108.354 152.354L111.536 149.172C111.731 148.976 111.731 148.66 111.536 148.464C111.34 148.269 111.024 148.269 110.828 148.464L108 151.293L105.172 148.464C104.976 148.269 104.66 148.269 104.464 148.464C104.269 148.66 104.269 148.976 104.464 149.172L107.646 152.354ZM32 132.5H88V131.5H32V132.5ZM88 132.5C98.7696 132.5 107.5 141.23 107.5 152H108.5C108.5 140.678 99.3218 131.5 88 131.5V132.5Z" fill="#FDFDFD"/>
<path d="M133.113 138L136 140.887L138.887 138L136 135.113L133.113 138ZM182.354 138.354C182.549 138.158 182.549 137.842 182.354 137.646L179.172 134.464C178.976 134.269 178.66 134.269 178.464 134.464C178.269 134.66 178.269 134.976 178.464 135.172L181.293 138L178.464 140.828C178.269 141.024 178.269 141.34 178.464 141.536C178.66 141.731 178.976 141.731 179.172 141.536L182.354 138.354ZM136 138.5L182 138.5L182 137.5L136 137.5L136 138.5Z" fill="#FDFDFD"/>
<path d="M325.333 138C325.333 139.473 326.527 140.667 328 140.667C329.473 140.667 330.667 139.473 330.667 138C330.667 136.527 329.473 135.333 328 135.333C326.527 135.333 325.333 136.527 325.333 138ZM382.354 102.354C382.549 102.158 382.549 101.842 382.354 101.646L379.172 98.4645C378.976 98.2692 378.66 98.2692 378.464 98.4645C378.269 98.6597 378.269 98.9763 378.464 99.1716L381.293 102L378.464 104.828C378.269 105.024 378.269 105.34 378.464 105.536C378.66 105.731 378.976 105.731 379.172 105.536L382.354 102.354ZM328 138.5H347V137.5H328V138.5ZM355.5 130V110H354.5V130H355.5ZM363 102.5H382V101.5H363V102.5ZM355.5 110C355.5 105.858 358.858 102.5 363 102.5V101.5C358.306 101.5 354.5 105.306 354.5 110H355.5ZM347 138.5C351.694 138.5 355.5 134.694 355.5 130H354.5C354.5 134.142 351.142 137.5 347 137.5V138.5Z" fill="#00D3A9"/>
<path d="M325.333 138C325.333 139.473 326.527 140.667 328 140.667C329.473 140.667 330.667 139.473 330.667 138C330.667 136.527 329.473 135.333 328 135.333C326.527 135.333 325.333 136.527 325.333 138ZM382.354 173.354C382.549 173.158 382.549 172.842 382.354 172.646L379.172 169.464C378.976 169.269 378.66 169.269 378.464 169.464C378.269 169.66 378.269 169.976 378.464 170.172L381.293 173L378.464 175.828C378.269 176.024 378.269 176.34 378.464 176.536C378.66 176.731 378.976 176.731 379.172 176.536L382.354 173.354ZM328 138.5H347V137.5H328V138.5ZM354.5 146V165H355.5V146H354.5ZM363 173.5H382V172.5H363V173.5ZM354.5 165C354.5 169.694 358.306 173.5 363 173.5V172.5C358.858 172.5 355.5 169.142 355.5 165H354.5ZM347 138.5C351.142 138.5 354.5 141.858 354.5 146H355.5C355.5 141.306 351.694 137.5 347 137.5V138.5Z" fill="#00D3A9"/>
<path d="M417.333 102C417.333 103.473 418.527 104.667 420 104.667C421.473 104.667 422.667 103.473 422.667 102C422.667 100.527 421.473 99.3333 420 99.3333C418.527 99.3333 417.333 100.527 417.333 102ZM474.354 138.354C474.549 138.158 474.549 137.842 474.354 137.646L471.172 134.464C470.976 134.269 470.66 134.269 470.464 134.464C470.269 134.66 470.269 134.976 470.464 135.172L473.293 138L470.464 140.828C470.269 141.024 470.269 141.34 470.464 141.536C470.66 141.731 470.976 141.731 471.172 141.536L474.354 138.354ZM420 102.5H439V101.5H420V102.5ZM446.5 110V130H447.5V110H446.5ZM455 138.5H474V137.5H455V138.5ZM446.5 130C446.5 134.694 450.306 138.5 455 138.5V137.5C450.858 137.5 447.5 134.142 447.5 130H446.5ZM439 102.5C443.142 102.5 446.5 105.858 446.5 110H447.5C447.5 105.306 443.694 101.5 439 101.5V102.5Z" fill="#FDFDFD"/>
<path d="M417.333 174C417.333 175.473 418.527 176.667 420 176.667C421.473 176.667 422.667 175.473 422.667 174C422.667 172.527 421.473 171.333 420 171.333C418.527 171.333 417.333 172.527 417.333 174ZM474.354 138.354C474.549 138.158 474.549 137.842 474.354 137.646L471.172 134.464C470.976 134.269 470.66 134.269 470.464 134.464C470.269 134.66 470.269 134.976 470.464 135.172L473.293 138L470.464 140.828C470.269 141.024 470.269 141.34 470.464 141.536C470.66 141.731 470.976 141.731 471.172 141.536L474.354 138.354ZM420 174.5H439V173.5H420V174.5ZM447.5 166V146H446.5V166H447.5ZM455 138.5H474V137.5H455V138.5ZM447.5 146C447.5 141.858 450.858 138.5 455 138.5V137.5C450.306 137.5 446.5 141.306 446.5 146H447.5ZM439 174.5C443.694 174.5 447.5 170.694 447.5 166H446.5C446.5 170.142 443.142 173.5 439 173.5V174.5Z" fill="#FDFDFD"/>
<path d="M409.037 134.98C409.821 138.425 407.664 141.854 404.218 142.639C403.748 142.746 403.277 142.798 402.813 142.8C402.231 142.802 401.659 142.723 401.111 142.573C400.623 142.44 400.154 142.248 399.714 142.006C399.579 141.932 399.448 141.853 399.319 141.769C398.753 141.403 398.244 140.947 397.816 140.417C397.733 140.314 397.652 140.208 397.575 140.098C397.103 139.433 396.751 138.665 396.559 137.82C396.541 137.743 396.525 137.665 396.511 137.587C395.872 134.222 398.01 130.928 401.378 130.161C402.207 129.972 403.034 129.954 403.824 130.083C403.977 130.108 404.128 130.138 404.278 130.174C404.932 130.329 405.553 130.587 406.121 130.932C406.246 131.008 406.368 131.089 406.488 131.173C406.914 131.474 407.304 131.826 407.647 132.224C408.001 132.634 408.305 133.092 408.548 133.592C408.726 133.957 408.871 134.343 408.979 134.749C409.001 134.826 409.02 134.903 409.037 134.98Z" fill="url(#paint11_linear_19833_23115)"/>
<path d="M407.749 135.254C407.767 135.33 407.782 135.408 407.797 135.484C408.278 138.155 406.571 140.767 403.898 141.375C401.225 141.984 398.556 140.368 397.834 137.752C397.814 137.677 397.794 137.601 397.777 137.524C397.151 134.774 398.878 132.028 401.628 131.403C404.378 130.777 407.124 132.504 407.749 135.254Z" fill="#DA8928"/>
<path d="M407.798 135.484C408.279 138.155 406.572 140.767 403.899 141.375C403.84 141.389 403.78 141.401 403.72 141.412C403.119 141.527 402.521 141.531 401.946 141.437C401.372 141.343 400.822 141.152 400.319 140.877C400.191 140.808 400.066 140.733 399.944 140.652C399.391 140.286 398.907 139.813 398.529 139.254C398.438 139.12 398.353 138.981 398.275 138.838C398.09 138.5 397.942 138.136 397.835 137.752C397.354 135.08 399.061 132.468 401.734 131.859C402.072 131.782 402.41 131.741 402.745 131.733C402.915 131.729 403.085 131.733 403.254 131.746C403.941 131.798 404.602 131.99 405.201 132.297C405.331 132.364 405.458 132.436 405.581 132.514C406.062 132.814 406.493 133.194 406.853 133.64C407.203 134.074 407.486 134.571 407.682 135.116C407.725 135.236 407.764 135.359 407.798 135.484Z" fill="url(#paint12_linear_19833_23115)"/>
<path d="M404.102 139.06L404.291 139.889L403.238 140.128L403.058 139.337C402.301 139.462 401.531 139.426 401.021 139.251L401.296 137.838C401.855 138.017 402.554 138.054 403.129 137.924C403.629 137.81 403.784 137.665 403.743 137.486C403.594 136.829 400.826 138.016 400.383 136.068C400.191 135.225 400.641 134.377 401.826 133.926L401.641 133.113L402.693 132.873L402.875 133.672C403.44 133.598 404.009 133.618 404.489 133.76L404.249 135.157C403.675 135.013 403.161 134.996 402.706 135.1C402.191 135.217 402.06 135.404 402.101 135.583C402.244 136.21 405.013 135.03 405.452 136.955C405.635 137.761 405.213 138.595 404.102 139.06Z" fill="#DA8928"/>
<path d="M404.008 138.791L404.197 139.619L403.144 139.859L402.964 139.068C402.208 139.193 401.438 139.156 400.927 138.982L401.202 137.569C401.761 137.748 402.46 137.785 403.035 137.654C403.535 137.54 403.69 137.395 403.65 137.216C403.5 136.559 400.732 137.747 400.289 135.799C400.097 134.955 400.548 134.107 401.732 133.657L401.547 132.843L402.6 132.604L402.781 133.402C403.346 133.328 403.915 133.348 404.395 133.49L404.156 134.887C403.581 134.743 403.067 134.727 402.612 134.83C402.097 134.947 401.967 135.134 402.007 135.313C402.15 135.94 404.92 134.76 405.358 136.686C405.541 137.492 405.119 138.326 404.008 138.791Z" fill="url(#paint13_linear_19833_23115)"/>
<path d="M405.999 143.551C406 143.558 406 143.565 406 143.573C406 143.845 405.852 144.107 405.579 144.351C405.512 144.411 405.438 144.47 405.357 144.527C405.13 144.688 404.848 144.84 404.518 144.981C404.446 145.011 404.372 145.041 404.296 145.07C404.04 145.17 403.759 145.262 403.456 145.348C403.383 145.368 403.31 145.389 403.234 145.408C402.969 145.478 402.689 145.543 402.394 145.601C402.321 145.616 402.248 145.63 402.173 145.644C401.903 145.694 401.623 145.74 401.333 145.78C401.259 145.79 401.186 145.8 401.111 145.81C400.839 145.845 400.558 145.875 400.271 145.901C400.198 145.907 400.124 145.914 400.05 145.92C399.775 145.942 399.495 145.96 399.21 145.973C399.136 145.976 399.062 145.979 398.988 145.982C398.712 145.992 398.432 145.998 398.148 146C398.099 146 398.049 146 398 146C397.976 146 397.951 146 397.927 146C397.643 145.999 397.363 145.994 397.087 145.985C397.012 145.982 396.938 145.979 396.865 145.976C396.655 145.967 396.447 145.955 396.243 145.942C396.17 145.937 396.097 145.931 396.025 145.926C395.951 145.92 395.877 145.914 395.803 145.907C395.517 145.883 395.236 145.853 394.964 145.819C394.889 145.81 394.815 145.801 394.742 145.79C394.568 145.767 394.398 145.741 394.231 145.714C394.12 145.696 394.01 145.678 393.902 145.658C393.828 145.644 393.754 145.63 393.68 145.616C393.387 145.559 393.106 145.496 392.84 145.428C392.788 145.414 392.736 145.401 392.685 145.387C392.662 145.381 392.64 145.375 392.619 145.369C392.499 145.336 392.382 145.301 392.268 145.266C392.097 145.213 391.934 145.157 391.779 145.099C391.703 145.07 391.629 145.041 391.557 145.012C391.274 144.895 391.024 144.771 390.812 144.639C390.78 144.619 390.748 144.599 390.717 144.578C390.679 144.553 390.642 144.527 390.606 144.501C390.568 144.473 390.531 144.444 390.495 144.415C390.175 144.153 390 143.869 390 143.573C390 143.552 390.001 143.531 390.003 143.511L390.004 141.834L390.495 141.833L390.717 141.832L391.557 141.831L391.778 141.831L392.434 141.83L392.618 141.829L392.84 141.829L393.68 141.828L393.902 141.828L394.741 141.826L394.963 141.826L395.803 141.825L396.025 141.824L396.864 141.823L397.086 141.823L397.926 141.822L398.148 141.821L398.988 141.82L399.209 141.82L400.049 141.819L400.271 141.818L401.111 141.817L401.332 141.817L402.172 141.815L402.394 141.815L403.234 141.814L403.456 141.813H403.51L404.295 141.812L404.517 141.812L405.357 141.811L405.578 141.81L405.996 141.81L405.999 143.55V143.551Z" fill="url(#paint14_linear_19833_23115)"/>
<path d="M390.718 141.833V144.579C390.679 144.554 390.642 144.528 390.607 144.502C390.568 144.474 390.531 144.445 390.496 144.416V141.834L390.718 141.833Z" fill="#DA8928"/>
<path d="M391.78 141.831V145.099C391.704 145.07 391.63 145.042 391.559 145.012V141.832L391.78 141.831Z" fill="#DA8928"/>
<path d="M392.839 141.829V145.428C392.786 145.414 392.735 145.401 392.683 145.387C392.661 145.381 392.639 145.375 392.617 145.369V141.83L392.839 141.829Z" fill="#DA8928"/>
<path d="M393.901 141.827V145.657C393.827 145.643 393.753 145.63 393.68 145.615V141.827L393.901 141.827Z" fill="#DA8928"/>
<path d="M394.964 141.826V145.819C394.889 145.81 394.816 145.8 394.742 145.79V141.826H394.964Z" fill="#DA8928"/>
<path d="M396.026 141.824V145.925C395.952 145.919 395.878 145.913 395.805 145.907V141.824L396.026 141.824Z" fill="#DA8928"/>
<path d="M397.089 141.823V145.985C397.014 145.982 396.941 145.979 396.867 145.976V141.824L397.089 141.823Z" fill="#DA8928"/>
<path d="M398.151 141.821V145.999C398.102 146 398.052 146 398.003 146C397.979 146 397.954 146 397.93 146V141.822L398.151 141.821Z" fill="#DA8928"/>
<path d="M399.21 141.82V145.973C399.136 145.976 399.062 145.979 398.988 145.982V141.821L399.21 141.82Z" fill="#DA8928"/>
<path d="M400.272 141.818V145.901C400.199 145.907 400.125 145.914 400.051 145.92V141.819L400.272 141.818Z" fill="#DA8928"/>
<path d="M401.335 141.816V145.779C401.262 145.79 401.188 145.799 401.113 145.809V141.817L401.335 141.816Z" fill="#DA8928"/>
<path d="M402.394 141.815V145.601C402.32 145.616 402.247 145.63 402.172 145.644V141.816L402.394 141.815Z" fill="#DA8928"/>
<path d="M403.456 141.814V145.348C403.383 145.369 403.31 145.389 403.234 145.409V141.815L403.456 141.814Z" fill="#DA8928"/>
<path d="M404.519 141.812V144.981C404.447 145.011 404.373 145.041 404.297 145.071V141.813L404.519 141.812Z" fill="#DA8928"/>
<path d="M405.581 141.811V144.351C405.514 144.411 405.44 144.47 405.359 144.527V141.811H405.581Z" fill="#DA8928"/>
<path d="M406 141.831C406 143.063 402.419 144.061 398.002 144.061C397.398 144.061 396.81 144.043 396.245 144.007C395.534 143.963 394.859 143.892 394.233 143.799C393.675 143.715 393.156 143.614 392.687 143.497C392.544 143.462 392.405 143.425 392.272 143.387C391.683 143.218 391.19 143.024 390.816 142.811C390.742 142.769 390.674 142.727 390.61 142.683C390.219 142.421 390.004 142.132 390.004 141.83C390.004 141.803 390.006 141.775 390.01 141.747C390.166 140.554 393.684 139.6 398.002 139.6C399.064 139.6 400.078 139.658 401.006 139.762C401.185 139.783 401.361 139.804 401.533 139.828C402.287 139.932 402.973 140.068 403.569 140.229C403.7 140.264 403.827 140.301 403.95 140.339C404.385 140.474 404.763 140.624 405.071 140.786C405.388 140.953 405.632 141.132 405.79 141.321C405.905 141.459 405.974 141.602 405.994 141.748C405.998 141.775 406 141.803 406 141.831Z" fill="url(#paint15_linear_19833_23115)"/>
<path d="M404.394 141.831C404.394 141.858 404.392 141.886 404.388 141.913C404.234 142.858 401.429 143.614 398.002 143.614C394.575 143.614 391.77 142.858 391.616 141.913C391.612 141.886 391.609 141.858 391.609 141.831C391.609 140.848 394.477 140.048 398.002 140.048C401.527 140.048 404.394 140.848 404.394 141.831Z" fill="#DA8928"/>
<path d="M404.389 141.913C404.235 142.858 401.43 143.614 398.003 143.614C397.926 143.614 397.851 143.613 397.775 143.613C397.011 143.605 396.28 143.56 395.606 143.484C394.932 143.407 394.314 143.3 393.777 143.167C393.641 143.134 393.51 143.099 393.383 143.062C392.81 142.894 392.352 142.696 392.046 142.477C391.972 142.424 391.907 142.37 391.852 142.316C391.72 142.186 391.64 142.052 391.617 141.912C391.772 140.967 394.577 140.211 398.003 140.211C398.437 140.211 398.86 140.223 399.271 140.246C399.48 140.258 399.686 140.272 399.887 140.29C400.71 140.361 401.463 140.477 402.108 140.628C402.247 140.661 402.382 140.695 402.511 140.731C403.014 140.87 403.434 141.033 403.748 141.212C404.055 141.387 404.262 141.578 404.35 141.778C404.369 141.823 404.382 141.868 404.389 141.913Z" fill="url(#paint16_linear_19833_23115)"/>
<path d="M398.89 142.842V143.139H397.541V142.856C396.584 142.84 395.656 142.768 395.082 142.669L395.809 142.21C396.441 142.314 397.283 142.381 398.019 142.381C398.661 142.381 398.89 142.343 398.89 142.279C398.89 142.044 395.187 142.234 395.187 141.537C395.187 141.236 395.972 140.982 397.541 140.921V140.63H398.89V140.916C399.598 140.934 400.287 140.985 400.833 141.07L400.153 141.527C399.493 141.433 398.871 141.388 398.288 141.388C397.627 141.388 397.417 141.441 397.417 141.505C397.417 141.73 401.12 141.543 401.12 142.231C401.119 142.519 400.373 142.77 398.89 142.842Z" fill="#DA8928"/>
<path d="M398.851 142.744V143.04H397.502V142.757C396.545 142.741 395.617 142.669 395.043 142.57L395.77 142.111C396.402 142.215 397.243 142.282 397.98 142.282C398.622 142.282 398.851 142.245 398.851 142.181C398.851 141.946 395.148 142.135 395.148 141.439C395.148 141.137 395.933 140.884 397.502 140.822V140.531H398.851V140.817C399.559 140.835 400.248 140.886 400.794 140.972L400.115 141.428C399.454 141.334 398.832 141.289 398.249 141.289C397.588 141.289 397.378 141.342 397.378 141.407C397.378 141.631 401.081 141.444 401.081 142.132C401.081 142.421 400.334 142.672 398.851 142.744Z" fill="url(#paint17_linear_19833_23115)"/>
<path d="M405.999 140.951C406 140.959 406 140.966 406 140.973C406 141.246 405.852 141.508 405.579 141.752C405.512 141.812 405.438 141.87 405.357 141.928C405.13 142.088 404.848 142.24 404.518 142.381C404.446 142.412 404.372 142.442 404.296 142.471C404.04 142.57 403.759 142.663 403.456 142.748C403.383 142.769 403.31 142.789 403.234 142.809C402.969 142.879 402.689 142.943 402.394 143.002C402.321 143.016 402.248 143.031 402.173 143.045C401.903 143.095 401.623 143.14 401.333 143.18C401.259 143.191 401.186 143.2 401.111 143.21C400.839 143.245 400.558 143.276 400.271 143.301C400.198 143.308 400.124 143.314 400.05 143.32C399.775 143.342 399.495 143.36 399.21 143.373C399.136 143.376 399.062 143.38 398.988 143.382C398.712 143.392 398.432 143.399 398.148 143.4C398.099 143.4 398.049 143.401 398 143.401C397.976 143.401 397.951 143.401 397.927 143.4C397.643 143.4 397.363 143.395 397.087 143.385C397.012 143.382 396.938 143.38 396.865 143.376C396.655 143.367 396.447 143.356 396.243 143.342C396.17 143.337 396.097 143.332 396.025 143.326C395.951 143.32 395.877 143.314 395.803 143.308C395.517 143.283 395.236 143.253 394.964 143.22C394.889 143.21 394.815 143.201 394.742 143.191C394.568 143.167 394.398 143.142 394.231 143.115C394.12 143.097 394.01 143.078 393.902 143.058C393.828 143.045 393.754 143.031 393.68 143.016C393.387 142.959 393.106 142.896 392.84 142.828C392.788 142.815 392.736 142.801 392.685 142.787C392.662 142.781 392.64 142.775 392.619 142.769C392.499 142.736 392.382 142.702 392.268 142.666C392.097 142.613 391.934 142.557 391.779 142.499C391.703 142.47 391.629 142.442 391.557 142.412C391.274 142.296 391.024 142.171 390.812 142.04C390.78 142.02 390.748 141.999 390.717 141.979C390.679 141.953 390.642 141.928 390.606 141.902C390.568 141.873 390.531 141.845 390.495 141.816C390.175 141.553 390 141.27 390 140.973C390 140.952 390.001 140.932 390.003 140.911L390.004 139.234L390.495 139.233L390.717 139.233L391.557 139.232L391.778 139.231L392.434 139.23L392.618 139.23L392.84 139.229L393.68 139.228L393.902 139.228L394.741 139.227L394.963 139.226L395.803 139.225L396.025 139.225L396.864 139.224L397.086 139.223L397.926 139.222L398.148 139.222L398.988 139.221L399.209 139.22L400.049 139.219L400.271 139.219L401.111 139.217L401.332 139.217L402.172 139.216L402.394 139.215L403.234 139.214L403.456 139.214H403.51L404.295 139.213L404.517 139.212L405.357 139.211L405.578 139.211L405.996 139.21L405.999 140.951V140.951Z" fill="url(#paint18_linear_19833_23115)"/>
<path d="M390.718 139.233V141.98C390.679 141.954 390.642 141.928 390.607 141.902C390.568 141.874 390.531 141.846 390.496 141.816V139.234L390.718 139.233Z" fill="#DA8928"/>
<path d="M391.78 139.231V142.5C391.704 142.471 391.63 142.442 391.559 142.413V139.232L391.78 139.231Z" fill="#DA8928"/>
<path d="M392.839 139.229V142.828C392.786 142.815 392.735 142.801 392.683 142.787C392.661 142.781 392.639 142.775 392.617 142.769V139.23L392.839 139.229Z" fill="#DA8928"/>
<path d="M393.901 139.228V143.057C393.827 143.044 393.753 143.03 393.68 143.016V139.228L393.901 139.228Z" fill="#DA8928"/>
<path d="M394.964 139.227V143.219C394.889 143.21 394.816 143.201 394.742 143.19V139.227H394.964Z" fill="#DA8928"/>
<path d="M396.026 139.225V143.326C395.952 143.32 395.878 143.314 395.805 143.307V139.225L396.026 139.225Z" fill="#DA8928"/>
<path d="M397.089 139.224V143.385C397.014 143.382 396.941 143.38 396.867 143.377V139.224L397.089 139.224Z" fill="#DA8928"/>
<path d="M398.151 139.222V143.4C398.102 143.4 398.052 143.4 398.003 143.4C397.979 143.4 397.954 143.4 397.93 143.4V139.222L398.151 139.222Z" fill="#DA8928"/>
<path d="M399.21 139.221V143.373C399.136 143.376 399.062 143.38 398.988 143.382V139.221L399.21 139.221Z" fill="#DA8928"/>
<path d="M400.272 139.219V143.301C400.199 143.308 400.125 143.314 400.051 143.32V139.219L400.272 139.219Z" fill="#DA8928"/>
<path d="M401.335 139.217V143.18C401.262 143.19 401.188 143.2 401.113 143.21V139.217L401.335 139.217Z" fill="#DA8928"/>
<path d="M402.394 139.216V143.002C402.32 143.016 402.247 143.031 402.172 143.044V139.216L402.394 139.216Z" fill="#DA8928"/>
<path d="M403.456 139.215V142.749C403.383 142.769 403.31 142.79 403.234 142.809V139.215L403.456 139.215Z" fill="#DA8928"/>
<path d="M404.519 139.213V142.381C404.447 142.412 404.373 142.442 404.297 142.471V139.213L404.519 139.213Z" fill="#DA8928"/>
<path d="M405.581 139.211V141.752C405.514 141.811 405.44 141.87 405.359 141.927V139.211H405.581Z" fill="#DA8928"/>
<path d="M406 139.231C406 140.463 402.419 141.462 398.002 141.462C397.398 141.462 396.81 141.443 396.245 141.408C395.534 141.363 394.859 141.292 394.233 141.199C393.675 141.116 393.156 141.014 392.687 140.898C392.544 140.862 392.405 140.825 392.272 140.787C391.683 140.619 391.19 140.424 390.816 140.211C390.742 140.169 390.674 140.127 390.61 140.084C390.219 139.821 390.004 139.533 390.004 139.231C390.004 139.203 390.006 139.175 390.01 139.148C390.166 137.954 393.684 137 398.002 137C399.064 137 400.078 137.058 401.006 137.163C401.185 137.183 401.361 137.205 401.533 137.229C402.287 137.332 402.973 137.468 403.569 137.629C403.7 137.665 403.827 137.702 403.95 137.74C404.385 137.875 404.763 138.025 405.071 138.186C405.388 138.353 405.632 138.533 405.79 138.721C405.905 138.859 405.974 139.002 405.994 139.148C405.998 139.176 406 139.203 406 139.231Z" fill="url(#paint19_linear_19833_23115)"/>
<path d="M404.394 139.231C404.394 139.258 404.392 139.286 404.388 139.313C404.234 140.258 401.429 141.014 398.002 141.014C394.575 141.014 391.77 140.258 391.616 139.313C391.612 139.286 391.609 139.258 391.609 139.231C391.609 138.248 394.477 137.448 398.002 137.448C401.527 137.448 404.394 138.248 404.394 139.231Z" fill="#DA8928"/>
<path d="M404.389 139.313C404.235 140.258 401.43 141.014 398.003 141.014C397.926 141.014 397.851 141.014 397.775 141.013C397.011 141.006 396.28 140.961 395.606 140.884C394.932 140.808 394.314 140.7 393.777 140.568C393.641 140.534 393.51 140.499 393.383 140.462C392.81 140.295 392.352 140.097 392.046 139.877C391.972 139.825 391.907 139.771 391.852 139.716C391.72 139.587 391.64 139.452 391.617 139.313C391.772 138.367 394.577 137.611 398.003 137.611C398.437 137.611 398.86 137.623 399.271 137.647C399.48 137.658 399.686 137.673 399.887 137.69C400.71 137.761 401.463 137.877 402.108 138.028C402.247 138.061 402.382 138.095 402.511 138.131C403.014 138.271 403.434 138.433 403.748 138.613C404.055 138.788 404.262 138.978 404.35 139.179C404.369 139.223 404.382 139.268 404.389 139.313Z" fill="url(#paint20_linear_19833_23115)"/>
<path d="M398.89 140.243V140.539H397.541V140.256C396.584 140.24 395.656 140.168 395.082 140.069L395.809 139.61C396.441 139.714 397.283 139.781 398.019 139.781C398.661 139.781 398.89 139.744 398.89 139.68C398.89 139.445 395.187 139.634 395.187 138.938C395.187 138.636 395.972 138.383 397.541 138.321V138.03H398.89V138.316C399.598 138.335 400.287 138.385 400.833 138.471L400.153 138.927C399.493 138.834 398.871 138.788 398.288 138.788C397.627 138.788 397.417 138.842 397.417 138.906C397.417 139.13 401.12 138.943 401.12 139.632C401.119 139.92 400.373 140.171 398.89 140.243Z" fill="#DA8928"/>
<path d="M398.851 140.144V140.44H397.502V140.157C396.545 140.142 395.617 140.069 395.043 139.971L395.77 139.512C396.402 139.615 397.243 139.682 397.98 139.682C398.622 139.682 398.851 139.645 398.851 139.581C398.851 139.346 395.148 139.536 395.148 138.839C395.148 138.537 395.933 138.284 397.502 138.222V137.932H398.851V138.217C399.559 138.236 400.248 138.287 400.794 138.372L400.115 138.828C399.454 138.735 398.832 138.69 398.249 138.69C397.588 138.69 397.378 138.743 397.378 138.807C397.378 139.031 401.081 138.844 401.081 139.533C401.081 139.821 400.334 140.072 398.851 140.144Z" fill="url(#paint21_linear_19833_23115)"/>
<path d="M386.667 131.583C386.437 131.583 386.25 131.77 386.25 132C386.25 132.23 386.437 132.417 386.667 132.417H389.583V135.333C389.583 135.563 389.77 135.75 390 135.75C390.23 135.75 390.417 135.563 390.417 135.333V132.417H393.333C393.563 132.417 393.75 132.23 393.75 132C393.75 131.77 393.563 131.583 393.333 131.583H390.417V128.667C390.417 128.437 390.23 128.25 390 128.25C389.77 128.25 389.583 128.437 389.583 128.667V131.583H386.667Z" fill="#00B39F"/>
<defs>
<linearGradient id="paint0_linear_19833_23115" x1="79.8472" y1="122.13" x2="91.1261" y2="116.078" gradientUnits="userSpaceOnUse">
<stop stop-color="#E4A64B"/>
<stop offset="1" stop-color="#F0DB70"/>
</linearGradient>
<linearGradient id="paint1_linear_19833_23115" x1="82.5099" y1="121.236" x2="92.8462" y2="114.95" gradientUnits="userSpaceOnUse">
<stop stop-color="#F0DB70"/>
<stop offset="1" stop-color="#E4A64B"/>
</linearGradient>
<linearGradient id="paint2_linear_19833_23115" x1="84.4865" y1="120.625" x2="88.4765" y2="116.621" gradientUnits="userSpaceOnUse">
<stop stop-color="#E4A64B"/>
<stop offset="1" stop-color="#F0DB70"/>
</linearGradient>
<linearGradient id="paint3_linear_19833_23115" x1="76.3635" y1="125.905" x2="92.3639" y2="125.905" gradientUnits="userSpaceOnUse">
<stop stop-color="#E4A64B"/>
<stop offset="1" stop-color="#F0DB70"/>
</linearGradient>
<linearGradient id="paint4_linear_19833_23115" x1="69.311" y1="123.831" x2="85.3067" y2="123.831" gradientUnits="userSpaceOnUse">
<stop stop-color="#E4A64B"/>
<stop offset="0.2328" stop-color="#E8BA59"/>
<stop offset="0.5887" stop-color="#EED26A"/>
<stop offset="0.8069" stop-color="#F0DB70"/>
</linearGradient>
<linearGradient id="paint5_linear_19833_23115" x1="72.4698" y1="123.913" x2="85.2421" y2="123.913" gradientUnits="userSpaceOnUse">
<stop stop-color="#F0DB70"/>
<stop offset="1" stop-color="#E4A64B"/>
</linearGradient>
<linearGradient id="paint6_linear_19833_23115" x1="80.9262" y1="123.786" x2="86.9637" y2="123.786" gradientUnits="userSpaceOnUse">
<stop stop-color="#F0DB70"/>
<stop offset="1" stop-color="#E4A64B"/>
</linearGradient>
<linearGradient id="paint7_linear_19833_23115" x1="76.3635" y1="123.306" x2="92.3639" y2="123.306" gradientUnits="userSpaceOnUse">
<stop stop-color="#E4A64B"/>
<stop offset="1" stop-color="#F0DB70"/>
</linearGradient>
<linearGradient id="paint8_linear_19833_23115" x1="69.311" y1="121.231" x2="85.3067" y2="121.231" gradientUnits="userSpaceOnUse">
<stop stop-color="#E4A64B"/>
<stop offset="0.2328" stop-color="#E8BA59"/>
<stop offset="0.5887" stop-color="#EED26A"/>
<stop offset="0.8069" stop-color="#F0DB70"/>
</linearGradient>
<linearGradient id="paint9_linear_19833_23115" x1="72.4698" y1="121.313" x2="85.2421" y2="121.313" gradientUnits="userSpaceOnUse">
<stop stop-color="#F0DB70"/>
<stop offset="1" stop-color="#E4A64B"/>
</linearGradient>
<linearGradient id="paint10_linear_19833_23115" x1="80.9262" y1="121.186" x2="86.9637" y2="121.186" gradientUnits="userSpaceOnUse">
<stop stop-color="#F0DB70"/>
<stop offset="1" stop-color="#E4A64B"/>
</linearGradient>
<linearGradient id="paint11_linear_19833_23115" x1="395.847" y1="140.13" x2="407.126" y2="134.078" gradientUnits="userSpaceOnUse">
<stop stop-color="#E4A64B"/>
<stop offset="1" stop-color="#F0DB70"/>
</linearGradient>
<linearGradient id="paint12_linear_19833_23115" x1="398.51" y1="139.236" x2="408.846" y2="132.95" gradientUnits="userSpaceOnUse">
<stop stop-color="#F0DB70"/>
<stop offset="1" stop-color="#E4A64B"/>
</linearGradient>
<linearGradient id="paint13_linear_19833_23115" x1="400.486" y1="138.625" x2="404.477" y2="134.621" gradientUnits="userSpaceOnUse">
<stop stop-color="#E4A64B"/>
<stop offset="1" stop-color="#F0DB70"/>
</linearGradient>
<linearGradient id="paint14_linear_19833_23115" x1="392.363" y1="143.905" x2="408.364" y2="143.905" gradientUnits="userSpaceOnUse">
<stop stop-color="#E4A64B"/>
<stop offset="1" stop-color="#F0DB70"/>
</linearGradient>
<linearGradient id="paint15_linear_19833_23115" x1="385.311" y1="141.831" x2="401.307" y2="141.831" gradientUnits="userSpaceOnUse">
<stop stop-color="#E4A64B"/>
<stop offset="0.2328" stop-color="#E8BA59"/>
<stop offset="0.5887" stop-color="#EED26A"/>
<stop offset="0.8069" stop-color="#F0DB70"/>
</linearGradient>
<linearGradient id="paint16_linear_19833_23115" x1="388.47" y1="141.913" x2="401.242" y2="141.913" gradientUnits="userSpaceOnUse">
<stop stop-color="#F0DB70"/>
<stop offset="1" stop-color="#E4A64B"/>
</linearGradient>
<linearGradient id="paint17_linear_19833_23115" x1="396.926" y1="141.786" x2="402.964" y2="141.786" gradientUnits="userSpaceOnUse">
<stop stop-color="#F0DB70"/>
<stop offset="1" stop-color="#E4A64B"/>
</linearGradient>
<linearGradient id="paint18_linear_19833_23115" x1="392.363" y1="141.306" x2="408.364" y2="141.306" gradientUnits="userSpaceOnUse">
<stop stop-color="#E4A64B"/>
<stop offset="1" stop-color="#F0DB70"/>
</linearGradient>
<linearGradient id="paint19_linear_19833_23115" x1="385.311" y1="139.231" x2="401.307" y2="139.231" gradientUnits="userSpaceOnUse">
<stop stop-color="#E4A64B"/>
<stop offset="0.2328" stop-color="#E8BA59"/>
<stop offset="0.5887" stop-color="#EED26A"/>
<stop offset="0.8069" stop-color="#F0DB70"/>
</linearGradient>
<linearGradient id="paint20_linear_19833_23115" x1="388.47" y1="139.313" x2="401.242" y2="139.313" gradientUnits="userSpaceOnUse">
<stop stop-color="#F0DB70"/>
<stop offset="1" stop-color="#E4A64B"/>
</linearGradient>
<linearGradient id="paint21_linear_19833_23115" x1="396.926" y1="139.186" x2="402.964" y2="139.186" gradientUnits="userSpaceOnUse">
<stop stop-color="#F0DB70"/>
<stop offset="1" stop-color="#E4A64B"/>
</linearGradient>
<clipPath id="clip0_19833_23115">
<rect width="24" height="24" fill="white" transform="translate(242 98)"/>
</clipPath>
<clipPath id="clip1_19833_23115">
<rect width="24" height="20" fill="white" transform="translate(208 148)"/>
</clipPath>
<clipPath id="clip2_19833_23115">
<rect width="100" height="94" fill="white" transform="translate(204 99)"/>
</clipPath>
</defs>
</svg>
