<svg width="64" height="64" viewBox="0 0 64 64" fill="none" xmlns="http://www.w3.org/2000/svg">
<rect width="64" height="64" rx="32" fill="#EBC017" fill-opacity="0.2"/>
<path d="M27.577 19.0257C27.8389 18.2397 28.6884 17.815 29.4743 18.077L32 18.9189L34.5257 18.077C35.3116 17.815 36.1611 18.2397 36.423 19.0257C36.685 19.8116 36.2603 20.6611 35.4743 20.923L33.5 21.5811V23.5C33.5 24.3284 32.8284 25 32 25C31.1716 25 30.5 24.3284 30.5 23.5V21.5811L28.5257 20.923C27.7397 20.6611 27.315 19.8116 27.577 19.0257ZM32.4743 12.077C32.1664 11.9743 31.8336 11.9743 31.5257 12.077L24.0257 14.577C23.4131 14.7811 23 15.3544 23 16V26C23 26.6456 23.4131 27.2189 24.0257 27.423L30.5 29.5811V34H27C24.5147 34 22.5 36.0147 22.5 38.5V40.189C19.9122 40.8551 18 43.2042 18 46C18 49.3137 20.6863 52 24 52C27.3137 52 30 49.3137 30 46C30 43.2042 28.0878 40.8551 25.5 40.189V38.5C25.5 37.6716 26.1716 37 27 37H37C37.8284 37 38.5 37.6716 38.5 38.5V40.189C35.9122 40.8551 34 43.2042 34 46C34 49.3137 36.6863 52 40 52C43.3137 52 46 49.3137 46 46C46 43.2042 44.0878 40.8551 41.5 40.189V38.5C41.5 36.0147 39.4853 34 37 34H33.5V29.5811L39.9743 27.423C40.5869 27.2189 41 26.6456 41 26V16C41 15.3544 40.5869 14.7811 39.9743 14.577L32.4743 12.077ZM26 24.9189V17.0811L32 15.0811L38 17.0811V24.9189L32 26.9189L26 24.9189ZM24 43C25.6569 43 27 44.3431 27 46C27 47.6569 25.6569 49 24 49C22.3431 49 21 47.6569 21 46C21 44.3431 22.3431 43 24 43ZM37 46C37 44.3431 38.3431 43 40 43C41.6569 43 43 44.3431 43 46C43 47.6569 41.6569 49 40 49C38.3431 49 37 47.6569 37 46Z" fill="#EBC017"/>
</svg>
