<svg width="40" height="40" viewBox="0 0 40 40" fill="none" xmlns="http://www.w3.org/2000/svg">
<g clip-path="url(#clip0_19833_23044)">
<path d="M27.1144 6.53155C27.9907 7.62508 28.6321 8.85102 29.1228 10.1532C29.7563 11.8326 30.0455 13.5794 29.6836 15.3508C29.1982 17.7281 27.8084 19.4022 25.4845 20.2072C24.582 20.5194 23.6443 20.6456 22.712 20.2545C22.5834 20.2093 22.463 20.1435 22.3554 20.0599C22.3425 20.6144 22.1336 21.1463 21.7656 21.5611C21.8877 21.5065 22.0169 21.4696 22.1494 21.4515C22.2774 21.4279 22.4123 21.4094 22.5376 21.398C23.781 21.2954 24.978 21.0324 26.1146 20.4887C27.8671 19.6477 29.3357 18.4498 30.5835 16.9687C31.2969 16.1369 31.8941 15.2121 32.3589 14.2195C33.016 12.7557 33.4383 11.1972 33.6102 9.60166C33.7705 8.22577 33.7276 6.87619 33.59 5.51345C33.5567 5.1846 33.4148 5.04868 33.1195 4.99606C32.3606 4.86101 31.6009 4.70931 30.8543 4.52778C28.902 4.05337 26.9339 3.65086 24.978 3.19837C24.2823 3.03614 23.5839 2.88969 22.8864 2.73535C23.3981 3.2238 23.9475 3.62543 24.4794 4.05074C25.4232 4.80314 26.3538 5.57746 27.1144 6.53155Z" fill="#00B39F"/>
<path d="M5.6215 23.4634C6.21999 20.9449 7.21018 18.6342 9.25539 16.9312C11.1175 15.3799 13.2258 14.8967 15.5496 15.7035C16.7221 16.1095 17.7272 16.7663 18.2617 17.9598C18.3149 18.0653 18.3529 18.1778 18.3747 18.2939C18.739 17.9456 19.2058 17.7242 19.7058 17.6626C19.6751 17.6424 19.6436 17.6196 19.6085 17.5915C18.8952 17.0171 18.217 16.3919 17.3881 15.9692C14.442 14.467 11.347 14.2732 8.20211 15.0747C4.86703 15.9227 2.28904 17.9476 0.173723 20.6116C-0.063746 20.9107 -0.0444681 21.1036 0.15094 21.4061C1.79132 23.9597 3.41592 26.5239 5.04579 29.0845C5.26135 29.4239 5.48392 29.7571 5.7801 30.2043C5.81165 29.4493 5.65217 28.846 5.56717 28.2382C5.34372 26.6422 5.24382 25.0515 5.6215 23.4634Z" fill="#00D3A9"/>
<path d="M10.6446 5.74031C11.7776 5.55016 12.9203 5.42369 14.0673 5.36148C15.1083 5.30448 16.1248 5.50968 17.1343 5.77275C19.516 6.39625 21.6515 7.43891 23.2182 9.41286C24.7131 11.2947 25.0724 13.4064 24.2698 15.6706C23.8597 16.8281 23.1665 17.7892 21.9827 18.3101C21.9007 18.3512 21.8113 18.3754 21.7198 18.3812C22.0746 18.7593 22.2943 19.2443 22.3446 19.7606C22.3979 19.6747 22.4583 19.5935 22.5251 19.5177C23.3926 18.4855 24.1777 17.4025 24.6281 16.1099C25.2189 14.4143 25.4653 12.6178 25.3528 10.8256C25.2669 9.0733 24.8247 7.35697 24.0533 5.78152C22.9475 3.548 21.3544 1.70997 19.4091 0.16395C19.119 -0.0666812 18.9087 -0.0394965 18.6064 0.155181C16.102 1.76609 13.5819 3.3542 11.0775 4.95809C10.6884 5.20714 10.2705 5.42374 9.89453 5.77714C10.1451 5.79306 10.3968 5.7807 10.6446 5.74031Z" fill="#00D3A9"/>
<path d="M3.60371 16.1191C4.58951 14.8721 5.53151 13.5821 6.85643 12.6596C9.30998 10.9566 11.9598 9.85345 15.0057 10.2779C17.4593 10.6216 19.2329 11.9607 20.1188 14.3266C20.4991 15.343 20.6183 16.3936 20.1731 17.4432C20.1452 17.5142 20.1091 17.5816 20.0653 17.644C20.5692 17.6569 21.0554 17.8322 21.4516 18.1439C21.4415 18.1093 21.4333 18.0742 21.4271 18.0387C21.4043 17.9098 21.4034 17.7756 21.3929 17.6476C21.3149 16.6119 21.1458 15.5982 20.7742 14.6187C19.9856 12.5421 18.637 10.8944 16.973 9.46059C14.5194 7.34633 11.6277 6.43959 8.45299 6.31858C7.55219 6.28438 6.64787 6.27473 5.74532 6.39311C5.12229 6.47467 5.07497 6.48081 4.9409 7.09465C4.36198 9.74238 3.78042 12.3898 3.19624 15.037C3.04465 15.7271 2.89656 16.4172 2.72656 17.2047C3.12702 16.8425 3.33732 16.4567 3.60371 16.1191Z" fill="#00B39F"/>
<path d="M39.8538 18.6201C38.2065 16.0542 36.5775 13.4761 34.9327 10.9085C34.7145 10.5682 34.541 10.1876 34.1747 9.81055C34.2799 10.7059 34.3561 11.4855 34.4665 12.2607C34.6961 13.8777 34.6944 15.4799 34.2668 17.0706C33.5964 19.5698 32.4792 21.7902 30.3779 23.4037C29.2273 24.2912 27.8963 24.6928 26.4644 24.7112C25.4611 24.7244 24.5068 24.4341 23.6192 23.958C22.8446 23.5423 22.1856 23.0021 21.7957 22.1901C21.673 21.9331 21.6204 21.7779 21.6598 21.6736C21.2821 22.0499 20.7877 22.2865 20.2578 22.3444C20.3963 22.4328 20.5281 22.5313 20.6521 22.6391C21.3882 23.2371 22.1234 23.8361 22.9883 24.2482C25.3998 25.3944 27.9471 25.6381 30.54 25.2295C34.4508 24.6157 37.4143 22.4154 39.8451 19.3953C40.0659 19.1173 40.0387 18.9078 39.8538 18.6201Z" fill="#00D3A9"/>
<path d="M34.6684 26.0161C32.2464 28.454 29.3389 29.8158 25.8435 29.8255C23.4039 29.8325 20.8207 28.2295 19.9541 25.8793C19.5957 24.9059 19.3573 23.9185 19.7262 22.8925C19.8244 22.6207 19.891 22.4479 19.9655 22.3611C19.4354 22.3553 18.9229 22.1698 18.5117 21.835C18.5561 21.9662 18.5829 22.1027 18.5915 22.241C18.6686 22.9934 18.708 23.7563 18.9332 24.4833C20.1337 28.3584 22.7152 31.0093 26.3631 32.6159C28.694 33.6419 31.1747 33.9549 33.7238 33.6901C34.8629 33.5708 34.8691 33.5919 35.096 32.5931C35.7217 29.836 36.3508 27.079 36.9572 24.3175C37.0589 23.8528 37.2438 23.3933 37.235 22.7934C37.0922 22.9872 37.015 23.089 36.9406 23.1933C36.2334 24.172 35.5201 25.1603 34.6684 26.0161Z" fill="#00B39F"/>
<path d="M13.3002 33.9764C12.1882 32.7276 11.3926 31.2851 10.8396 29.7189C10.3139 28.222 10.0046 26.683 10.256 25.08C10.6206 22.7509 11.8018 21.0102 13.9767 20.0377C15.0282 19.565 16.142 19.3414 17.289 19.7816C17.4145 19.8232 17.5345 19.8797 17.6465 19.95C17.6563 19.4441 17.8293 18.955 18.1399 18.5557C18.047 18.5744 17.9531 18.5867 17.8586 18.5925C17.2343 18.631 16.6132 18.7101 15.9991 18.8293C13.8759 19.28 12.1146 20.3919 10.5662 21.8573C8.50087 23.8067 7.16982 26.1753 6.61251 28.9735C6.27339 30.673 6.22608 32.3777 6.35489 34.1C6.40396 34.7647 6.67911 35.0024 7.34507 35.1374C10.1272 35.703 12.891 36.3651 15.6653 36.9684C16.1376 37.0719 16.602 37.2473 17.2268 37.2666C16.772 36.9158 16.4189 36.6475 16.0648 36.3783C15.0922 35.6364 14.1178 34.8945 13.3002 33.9764Z" fill="#00B39F"/>
<path d="M29.8872 34.2064C28.8979 34.3818 27.9025 34.5028 26.9079 34.5993C26.0921 34.6782 25.264 34.7185 24.4631 34.5993C23.307 34.4357 22.1763 34.1257 21.0983 33.6768C19.4211 32.9752 17.9007 32.0466 16.7721 30.5812C15.4104 28.8125 14.9512 26.842 15.6216 24.6909C16.0019 23.4738 16.6266 22.3872 17.8587 21.7971C18.0778 21.6927 18.2285 21.6436 18.3354 21.6585C17.9657 21.2885 17.73 20.8055 17.6659 20.2861C17.6115 20.3648 17.553 20.4406 17.4907 20.5133C16.9246 21.1981 16.3445 21.8742 15.9335 22.6731C14.9425 24.6024 14.5806 26.6535 14.634 28.8116C14.6631 30.4041 14.9916 31.977 15.6023 33.4479C16.6678 35.991 18.3634 38.0614 20.5147 39.7749C20.8503 40.0432 21.0921 40.0713 21.468 39.8266C23.6342 38.4235 25.8205 37.045 27.9989 35.6586C28.7201 35.1991 29.4377 34.7361 30.1668 34.2678C30.1307 34.2322 30.0854 34.2075 30.0359 34.1967C29.9864 34.1858 29.9349 34.1892 29.8872 34.2064Z" fill="#00D3A9"/>
</g>
<defs>
<clipPath id="clip0_19833_23044">
<rect width="40" height="40" fill="white"/>
</clipPath>
</defs>
</svg>
