<svg width="128" height="128" viewBox="0 0 128 128" fill="none" xmlns="http://www.w3.org/2000/svg">
    <g clip-path="url(#clip0_22250_4893)">
        <g clip-path="url(#clip1_22250_4893)">
            <path d="M28.3058 9.04616L28.3071 9.04365C30.6498 4.48079 35.3331 1.6 40.5046 1.6H87.5913C92.7628 1.6 97.4461 4.48079 99.7888 9.04365L99.7901 9.04616L124.957 57.8507L124.963 57.8617C126.973 61.6862 126.973 66.3138 124.963 70.1383L124.957 70.1494L99.7901 118.954L99.7888 118.956C97.4461 123.519 92.7628 126.4 87.5913 126.4H40.5046C35.3331 126.4 30.6498 123.519 28.3071 118.956L28.3058 118.954L3.13882 70.1493L3.13301 70.1383C1.12285 66.3138 1.12285 61.6862 3.13301 57.8617L3.13305 57.8617L3.13878 57.8506L28.3058 9.04616Z" fill="#00B39F" fill-opacity="0.15" stroke="#00B39F" stroke-width="3.2"/>
        </g>
    </g>
    <defs>
        <clipPath id="clip0_22250_4893">
            <rect width="128" height="128" fill="white"/>
        </clipPath>
        <clipPath id="clip1_22250_4893">
            <rect width="128" height="128" fill="white"/>
        </clipPath>
    </defs>
</svg>
