<svg id="Layer_1" data-name="Layer 1" xmlns="http://www.w3.org/2000/svg" viewBox="0 0 788.61472 772.66521"><defs><style>.cls-1{fill:#bcedc4;}.cls-2{fill:#42a7b6;}.cls-3{fill:#2a2dde;}.cls-4{fill:#fff;}.cls-5{fill:#fb8143;}.cls-6{fill:#48a9a6;fill-rule:evenodd;}</style></defs><title>servicemeshinterface-stacked-color</title><g id="logo-full"><g id="_3-x-3-diags" data-name="3-x-3-diags"><g id="Path-4"><path class="cls-1" d="M380.60042,529.18509a19.93642,19.93642,0,0,1-14.14209-5.85742l-200.73047-200.731A19.99994,19.99994,0,0,1,194.012,294.31253l200.731,200.73a20,20,0,0,1-14.14258,34.14258Z"/></g><g id="Path-4-2" data-name="Path-4"><path class="cls-1" d="M179.87,328.18509A20,20,0,0,1,165.72786,294.043L366.45833,93.31253A20.00011,20.00011,0,0,1,394.743,121.59671L194.012,322.32718A19.93694,19.93694,0,0,1,179.87,328.18509Z"/></g><g id="Path-4-3" data-name="Path-4"><path class="cls-1" d="M379.87,329.18509A20,20,0,0,1,365.72786,295.043l200.73-200.73047A20.00028,20.00028,0,0,1,594.743,122.59671L394.01253,323.32718A19.93889,19.93889,0,0,1,379.87,329.18509Z"/></g><g id="Path-4-4" data-name="Path-4"><path class="cls-1" d="M379.87,527.18509a20,20,0,0,1-14.14209-34.14258l200.73-200.73A20.00028,20.00028,0,0,1,594.743,320.59671l-200.73047,200.731A19.93837,19.93837,0,0,1,379.87,527.18509Z"/></g><g id="Oval"><circle class="cls-2" cx="179.91683" cy="107.68899" r="25"/></g><g id="Oval-2" data-name="Oval"><circle class="cls-2" cx="379.91683" cy="107.68899" r="25"/></g><g id="Oval-3" data-name="Oval"><circle class="cls-2" cx="579.91683" cy="107.68899" r="25"/></g><g id="Oval-4" data-name="Oval"><circle class="cls-2" cx="179.91683" cy="307.68899" r="25"/></g><g id="Oval-5" data-name="Oval"><circle class="cls-2" cx="379.91683" cy="307.68899" r="25"/></g><g id="Oval-6" data-name="Oval"><circle class="cls-2" cx="579.91683" cy="307.68899" r="25"/></g><g id="Oval-7" data-name="Oval"><circle class="cls-2" cx="579.91683" cy="507.68899" r="25"/></g><g id="Oval-8" data-name="Oval"><circle class="cls-2" cx="179.91683" cy="507.68899" r="25"/></g><g id="Rectangle"><rect class="cls-3" x="324.91683" y="452.68899" width="110" height="110"/><path class="cls-3" d="M469.91683,597.689h-180v-180h180Zm-110-70h40v-40h-40Z"/></g><g id="Oval-9" data-name="Oval"><circle class="cls-4" cx="379.91683" cy="507.68899" r="25"/></g><g id="Oval-3-Copy"><circle class="cls-4" cx="579.91683" cy="108.68899" r="57.5"/><path class="cls-5" d="M579.91683,198.689a90,90,0,1,1,90-90A90.10217,90.10217,0,0,1,579.91683,198.689Zm0-115a25,25,0,1,0,25,25A25.02817,25.02817,0,0,0,579.91683,83.689Z"/></g></g><g id="Service-Mesh-Interfa"><path class="cls-6" d="M39.08682,749.879c-8.47,0-13.51-3.08-16.17-5.6a8.81133,8.81133,0,0,1,4.13-6.23,18.06024,18.06024,0,0,0,12.11,4.48c6.02,0,8.68-2.52,8.68-6.09,0-2.94-1.4-5.11-9.73-7.14-7.21-1.68-13.79-4.62-13.86-13.51,0-7.77,6.23-13.09,15.75-13.09,7.42,0,12.11,2.24,14.98,4.48a8.69569,8.69569,0,0,1-3.85,6.44,18.61973,18.61973,0,0,0-11.41-3.64c-4.83,0-7.7,2.31-7.7,5.25s1.4,4.55,9.1,6.44c8.75,2.17005,14.49,5.67005,14.56,13.93C55.74683,744.699,49.30683,749.879,39.08682,749.879Zm56.364-20.23a35.8447,35.8447,0,0,1-.28,4.69h-23.45c.63,5.46,3.99,8.81994,9.52,8.81994a15.54068,15.54068,0,0,0,9.8-3.43,8.1945,8.1945,0,0,1,3.43,5.39,21.22689,21.22689,0,0,1-13.79,4.69c-9.94,0-17.08-6.58-17.08-17.43,0-10.29,7.21-17.71,16.66-17.71C89.15082,714.669,95.45082,720.759,95.45082,729.649Zm-23.66-.56h15.89c0-3.92005-2.03-7.91-7.42-7.98C75.36083,721.109,72.35083,724.539,71.79082,729.089Zm47.124-14.42005a21.16506,21.16506,0,0,1,7.35,1.05005,11.39656,11.39656,0,0,1-2.1,6.86,19.885,19.885,0,0,0-5.04-.63,12.86993,12.86993,0,0,0-6.23,1.33v25.48a18.81423,18.81423,0,0,1-3.99.35,19.22559,19.22559,0,0,1-3.99-.35v-29.33A21.87208,21.87208,0,0,1,118.91483,714.669Zm39.914.77a17.14549,17.14549,0,0,1,5.04.7,124.41037,124.41037,0,0,1-12.88,32.62,17.684,17.684,0,0,1-3.78.35,18.98223,18.98223,0,0,1-3.92-.35c-6.09-10.15-9.87-20.44-13.02-32.62a21.61,21.61,0,0,1,5.46-.7,20.96878,20.96878,0,0,1,3.08.28,170.07983,170.07983,0,0,0,8.19,24.64,6.16149,6.16149,0,0,1,.35,1.05l.42-1.05a157.34,157.34,0,0,0,7.98-24.64A20.96888,20.96888,0,0,1,158.82881,715.439Zm17.164-4.83a5.04,5.04,0,1,1,5.04-5.04A5.09506,5.09506,0,0,1,175.99281,710.609Zm0,38.5a19.64873,19.64873,0,0,1-3.99-.35v-33.11a19.22154,19.22154,0,0,1,3.99-.35,18.56266,18.56266,0,0,1,3.92.35v33.11A18.16248,18.16248,0,0,1,175.99281,749.109Zm31.304.7c-10.57,0-17.64-6.44-17.64-17.5,0-10.64,7.56-17.71,17.57-17.71a17.657,17.657,0,0,1,11.2,3.78,9.56813,9.56813,0,0,1-4.27,5.67,10.34988,10.34988,0,0,0-6.86-2.59c-6.51,0-9.59,4.97-9.59,10.78,0,5.67,3.01,10.71,9.66,10.71a10.31749,10.31749,0,0,0,7.35-2.8,8.50108,8.50108,0,0,1,4.2,5.38995A17.13839,17.13839,0,0,1,207.29683,749.809Zm49.294-20.16a35.84818,35.84818,0,0,1-.28,4.69h-23.45c.63,5.46,3.99,8.81994,9.52,8.81994a15.54075,15.54075,0,0,0,9.8-3.43,8.19449,8.19449,0,0,1,3.43,5.39,21.22689,21.22689,0,0,1-13.79,4.69c-9.94,0-17.08-6.58-17.08-17.43,0-10.29,7.21-17.71,16.66-17.71C250.29082,714.669,256.59084,720.759,256.59084,729.649Zm-23.66-.56h15.89c0-3.92005-2.03-7.91-7.42-7.98C236.50084,721.109,233.49083,724.539,232.93083,729.089Zm92.848-25.55005a17.609,17.609,0,0,1,4.2.49v44.73a18.25941,18.25941,0,0,1-3.71.42,19.57039,19.57039,0,0,1-3.85-.42v-24.57l.35-6.51-1.19,3.36-10.22,23.66a21.927,21.927,0,0,1-3.5.28,22.37644,22.37644,0,0,1-3.43-.28l-10.57-23.8-1.26-3.15.28,6.44v24.57a16.59665,16.59665,0,0,1-7.42,0v-44.73a16.61959,16.61959,0,0,1,4.27-.56,18.32309,18.32309,0,0,1,3.85.35l13.86,30.31.84,2.24.7-2.24,13.02-30.31A20.30815,20.30815,0,0,1,325.77883,703.539Zm46.494,26.11005a35.84122,35.84122,0,0,1-.28,4.69h-23.45c.63,5.46,3.99,8.81994,9.52,8.81994a15.54075,15.54075,0,0,0,9.8-3.43,8.19447,8.19447,0,0,1,3.43,5.39,21.22694,21.22694,0,0,1-13.79,4.69c-9.94,0-17.08-6.58-17.08-17.43,0-10.29,7.21-17.71,16.66-17.71C365.97283,714.669,372.27281,720.759,372.27281,729.649Zm-23.66-.56h15.89c0-3.92005-2.03-7.91-7.42-7.98C352.18282,721.109,349.17284,724.539,348.61284,729.089Zm44.744,20.79c-7.42,0-11.83-2.59-13.72-4.2a8.77231,8.77231,0,0,1,3.64-5.46,16.04446,16.04446,0,0,0,10.22,3.29c4.69,0,6.37-1.75,6.37-3.99s-1.89-3.5-7.84-4.41c-5.88-.91-11.48-3.08-11.48-10.08,0-6.16,5.53-10.36005,13.93-10.36005,6.02,0,10.29,1.68,12.46,3.22a8.51248,8.51248,0,0,1-3.01,5.67,19.85,19.85,0,0,0-9.73-2.52c-4.2,0-6.02,1.33-6.02,3.43005,0,2.17,1.47,3.22,7.14,4.13,7.21,1.12,12.46,3.57,12.46,10.15C407.77681,745.679,402.45683,749.879,393.35683,749.879Zm40.474-35.28c9.94,0,14.7,6.23,14.7,13.37v20.79a19.89687,19.89687,0,0,1-4.06.35,18.98264,18.98264,0,0,1-3.92-.35v-18.41c0-4.83-1.89-8.4-7.98-8.4a15.66132,15.66132,0,0,0-7.28,1.96v24.85a18.16272,18.16272,0,0,1-3.92.35,20.32725,20.32725,0,0,1-4.06-.35v-45.92a19.22183,19.22183,0,0,1,3.99-.35,19.64512,19.64512,0,0,1,3.99.35v13.72A19.45858,19.45858,0,0,1,433.83083,714.599Zm49.168,34.58a19.99331,19.99331,0,0,1-4.06-.42v-44.87a16.20548,16.20548,0,0,1,7.91,0v44.87A17.5396,17.5396,0,0,1,482.9988,749.179Zm32.144-34.58c10.71,0,15.4,6.16,15.4,13.79v20.37a22.91918,22.91918,0,0,1-7.98,0v-18.48c0-6.09-2.94-8.4-8.05-8.4a15.24573,15.24573,0,0,0-7.35,1.82v25.06a22.52018,22.52018,0,0,1-7.91,0v-28.91A25.797,25.797,0,0,1,515.14284,714.599Zm47.824,26.04a8.3369,8.3369,0,0,1,3.36,5.53,15.12561,15.12561,0,0,1-9.94,3.57c-7.14,0-12.39-3.22-12.39-11.2v-16.03h-5.67a16.46769,16.46769,0,0,1-.28-3.29,15.97873,15.97873,0,0,1,.28-3.15h5.67v-8.82a19.22519,19.22519,0,0,1,3.99-.35,17.5218,17.5218,0,0,1,3.85.35v8.82h12.39a12.082,12.082,0,0,1,.35,3.15,13.15519,13.15519,0,0,1-.35,3.29h-12.39v14.21c0,4.9,2.31,6.16,5.6,6.16A8.60021,8.60021,0,0,0,562.96681,740.639Zm40.824-10.99a35.84308,35.84308,0,0,1-.28,4.69h-23.45c.63,5.46,3.99,8.81994,9.52,8.81994a15.54064,15.54064,0,0,0,9.8-3.43,8.19436,8.19436,0,0,1,3.43,5.39,21.22674,21.22674,0,0,1-13.79,4.69c-9.94,0-17.08-6.58-17.08-17.43,0-10.29,7.21-17.71,16.66-17.71C597.4908,714.669,603.79085,720.759,603.79085,729.649Zm-23.66-.56h15.89c0-3.92005-2.03-7.91-7.42-7.98C583.70082,721.109,580.69081,724.539,580.13082,729.089Zm47.124-14.42005a21.16477,21.16477,0,0,1,7.35,1.05005,11.39674,11.39674,0,0,1-2.1,6.86,19.88514,19.88514,0,0,0-5.04-.63,12.87,12.87,0,0,0-6.23,1.33v25.48a18.81417,18.81417,0,0,1-3.99.35,19.2255,19.2255,0,0,1-3.99-.35v-29.33A21.872,21.872,0,0,1,627.25484,714.669Zm29.694-12.46a13.56249,13.56249,0,0,1,8.75,2.8,8.16677,8.16677,0,0,1-3.43,5.53,8.42541,8.42541,0,0,0-5.11-1.68c-2.66,0-4.83,1.33-4.83,5.32v1.96h7.91a12.45958,12.45958,0,0,1,.42,3.29,11.7921,11.7921,0,0,1-.42,3.15h-7.91v26.25a23.86305,23.86305,0,0,1-3.85.35,26.36735,26.36735,0,0,1-3.99-.35v-26.32h-4.48a14.45669,14.45669,0,0,1-.35-3.15,16.9166,16.9166,0,0,1,.35-3.29h4.48v-.77C644.48885,706.339,650.50881,702.209,656.94881,702.209Zm23.674,12.46c8.75,0,15.19,3.92005,15.19,13.72v18.13a37.52379,37.52379,0,0,1-15.33,3.29c-9.8,0-14.63-4.13-14.63-10.78,0-6.86005,5.95-10.57,14-10.5a23.97746,23.97746,0,0,1,8.19,1.26V727.899c0-3.99006-2.66-6.37-7.98-6.37a16.046,16.046,0,0,0-9.24,2.94,6.688,6.688,0,0,1-3.64-5.11C669.14284,717.469,674.18282,714.669,680.62282,714.669Zm-6.72,24.01c0,3.01,2.38,5.04,7.28,5.04a23.12652,23.12652,0,0,0,6.86-1.05005V735.529a19.684,19.684,0,0,0-7.56-1.33C676.56282,734.199,673.90285,735.529,673.90285,738.679Zm48.384,11.13c-10.57,0-17.64-6.44-17.64-17.5,0-10.64,7.56-17.71,17.57-17.71a17.65693,17.65693,0,0,1,11.2,3.78,9.568,9.568,0,0,1-4.27,5.67,10.34988,10.34988,0,0,0-6.86-2.59c-6.51,0-9.59,4.97-9.59,10.78,0,5.67,3.00994,10.71,9.66,10.71a10.31743,10.31743,0,0,0,7.35-2.8,8.501,8.501,0,0,1,4.2,5.38995A17.13833,17.13833,0,0,1,722.28682,749.809Zm49.294-20.16a35.84308,35.84308,0,0,1-.28,4.69H747.85085c.63,5.46,3.99,8.81994,9.52,8.81994a15.54091,15.54091,0,0,0,9.8-3.43,8.1946,8.1946,0,0,1,3.43,5.39,21.227,21.227,0,0,1-13.79,4.69c-9.94,0-17.08-6.58-17.08-17.43,0-10.29,7.21-17.71,16.66-17.71C765.28084,714.669,771.58083,720.759,771.58083,729.649Zm-23.66-.56h15.89c0-3.92005-2.03-7.91-7.42-7.98C751.4908,721.109,748.48085,724.539,747.92085,729.089Z"/></g></g></svg>