<?xml version="1.0" encoding="UTF-8"?>
<svg id="Layer_1" data-name="Layer 1" xmlns="http://www.w3.org/2000/svg" viewBox="0 0 560.3 356.09">
  <defs>
    <style>
      .cls-1 {
        fill: #00b39f;
      }

      .cls-2 {
        fill: #00d3a9;
      }

      .cls-3 {
        fill: #3c494f;
      }
    </style>
  </defs>
  <g>
    <g>
      <polygon class="cls-2" points="78.32 134.69 78.32 152.51 93.77 143.57 78.32 134.69"/>
      <polygon class="cls-2" points="78.32 156.24 78.32 174.15 93.91 165.23 78.32 156.24"/>
      <polygon class="cls-1" points="76.1 152.39 76.1 134.84 60.84 143.58 76.1 152.39"/>
      <path class="cls-1" d="M45.5,174.09c2.99,4.81,7.04,8.89,11.84,11.91v-18.76l-11.84,6.85Z"/>
      <polygon class="cls-1" points="76.1 174.06 76.1 156.37 60.81 165.22 76.1 174.06"/>
      <polygon class="cls-2" points="59.55 184.88 75.04 176.02 59.55 167.07 59.55 184.88"/>
      <polygon class="cls-1" points="94.97 184.97 94.97 167.19 79.51 176.03 94.97 184.97"/>
      <path class="cls-1" d="M110.12,172.02c2.57-4.8,4.13-10.23,4.38-15.99l-16.12,9.22,11.75,6.78h0Z"/>
      <polygon class="cls-2" points="97.2 163.36 112.74 154.47 97.2 145.53 97.2 163.36"/>
      <polygon class="cls-1" points="94.97 141.69 94.97 124.02 79.58 132.84 94.97 141.69"/>
      <polygon class="cls-1" points="94.97 163.28 94.97 145.44 79.54 154.37 94.97 163.28"/>
      <polygon class="cls-2" points="59.55 145.41 59.55 163.37 75.1 154.37 59.55 145.41"/>
      <path class="cls-1" d="M76.1,117.1c-5.91.17-11.47,1.72-16.38,4.33l16.38,9.42v-13.75Z"/>
      <polygon class="cls-2" points="59.55 123.89 59.55 141.75 75.11 132.84 59.55 123.89"/>
      <path class="cls-1" d="M57.33,122.81c-4.79,3.02-8.85,7.1-11.84,11.92l11.84,6.83v-18.75Z"/>
      <path class="cls-2" d="M94.87,121.51c-4.95-2.66-10.57-4.24-16.55-4.42v13.9l16.55-9.49Z"/>
      <path class="cls-2" d="M39.91,155.71c.2,5.94,1.79,11.53,4.46,16.45l11.99-6.94-16.45-9.51Z"/>
      <path class="cls-2" d="M44.37,136.64c-2.65,4.9-4.24,10.46-4.46,16.37l16.46-9.44-12.01-6.93Z"/>
      <path class="cls-1" d="M59.69,187.36c4.92,2.62,10.49,4.17,16.41,4.35v-13.73l-16.41,9.38h0Z"/>
      <path class="cls-2" d="M108.96,134.77c-2.97-4.8-7-8.87-11.76-11.9v18.71l11.76-6.81Z"/>
      <path class="cls-2" d="M97.2,185.93c4.79-3.04,8.84-7.15,11.82-11.98l-11.82-6.82v18.8h0Z"/>
      <path class="cls-1" d="M114.51,152.92c-.23-5.85-1.81-11.36-4.43-16.22l-11.85,6.86,16.28,9.36h0Z"/>
      <path class="cls-2" d="M78.32,191.71c5.9-.17,11.47-1.72,16.37-4.33l-16.37-9.47v13.79Z"/>
      <polygon class="cls-1" points="57.33 163.21 57.33 145.59 42.03 154.37 57.33 163.21"/>
    </g>
    <g>
      <polygon class="cls-3" points="89.21 201.65 89.21 202.17 89.21 204.62 89.21 207.62 89.21 211.99 100.85 211.99 100.85 209.54 91.67 209.54 91.67 207.62 91.67 207.08 98.72 207.08 98.72 204.62 91.67 204.62 91.67 202.17 100.85 202.17 100.85 199.71 89.21 199.71 89.21 201.65"/>
      <polygon class="cls-3" points="44.43 201.65 44.43 202.17 44.43 204.62 44.43 207.62 44.43 211.99 56.07 211.99 56.07 209.54 46.89 209.54 46.89 207.62 46.89 207.08 53.95 207.08 53.95 204.62 46.89 204.62 46.89 202.17 56.07 202.17 56.07 199.71 44.43 199.71 44.43 201.65"/>
      <path class="cls-3" d="M72.19,208.78c0,.44-.09.86-.26,1.24-.17.39-.4.73-.7,1.02-.29.29-.64.52-1.02.69-.39.17-.81.26-1.25.26h-11.49v-2.59h11.49c.18,0,.32-.06.44-.18s.18-.27.18-.44v-1c0-.18-.06-.32-.18-.44s-.27-.18-.44-.18h-8.27c-.44,0-.86-.09-1.24-.26-.39-.17-.74-.4-1.03-.7s-.52-.64-.7-1.03c-.17-.39-.26-.8-.26-1.24v-1c0-.44.09-.86.26-1.25.17-.39.4-.73.7-1.02.29-.29.64-.52,1.03-.7.39-.17.8-.26,1.24-.26h11.5v2.6h-11.5c-.17,0-.32.06-.44.18s-.18.27-.18.44v1c0,.18.06.32.18.44s.27.18.44.18h8.27c.44,0,.86.09,1.25.26.39.17.73.4,1.02.7s.52.64.7,1.02c.17.39.26.81.26,1.25v1h0Z"/>
      <path class="cls-3" d="M87.68,211.99h-2.34v-4.83h-9.13v4.83h-2.34v-7.43h11.47v-4.85h2.34v12.28h0ZM76.2,203.4h-2.34v-3.69h2.34v3.69Z"/>
      <polygon class="cls-3" points="121.09 204.01 118.02 199.71 114.95 199.71 119.86 207.08 119.86 211.99 122.32 211.99 122.32 207.08 127.23 199.71 124.2 199.71 121.09 204.01"/>
      <path class="cls-3" d="M105.03,202.05h6.3v2.55h-5.07v2.34h1.16l4.45,5.04h3.03l-4.45-5.04h1.74c1.05,0,1.91-.85,1.91-1.91v-3.42c0-1.05-.85-1.91-1.91-1.91h-9.56v12.28h2.46l-.05-9.94h0Z"/>
      <path class="cls-3" d="M42.54,211.99h-2.6v-8.96c0-.1-.02-.19-.06-.28s-.09-.17-.15-.23-.14-.12-.23-.15c-.09-.04-.18-.06-.28-.06h-12.03v-2.6h12.03c.45,0,.88.09,1.28.26.4.18.76.41,1.06.71.3.31.54.66.71,1.06.18.4.26.83.26,1.28v8.96ZM29.79,211.99h-2.6v-9.68h2.6v9.68ZM36.16,211.99h-2.6v-8.31h2.6v8.31Z"/>
    </g>
  </g>
  <g id="Stickie_-_7" data-name="Stickie - 7">
    <path d="M259.49,139.27c-.9.54-1.34.73-1.7,1.02-17.12,13.52-36.66,22.85-56.16,32.18-4.53,2.17-9.91,3.12-14.97,3.48-7.73.55-15.54.14-23.31.05-1.75-.02-3.5-.38-5.24-.58-.08-.36-.17-.73-.25-1.09,1.2-.39,2.39-1.1,3.59-1.11,7.67-.06,15.35-.02,23.03.11,7.23.12,13.93-1.54,20.38-4.9,16.6-8.65,33.73-16.35,48.76-27.75,2.68-2.04,5.28-4.18,8.13-6.45-2.9-4.9-5.68-9.58-8.33-14.06-5.53,2.03-10.63,4.3-15.96,5.79-24.39,6.83-54.94-5.13-67.65-26.36-3.49-5.82-5.29-12.15-5.65-19-.83-15.4,2.15-29.75,10.89-42.68,5.66-8.36,12.95-14.54,22.72-17.55,4.87-1.5,9.34-3.61,13.52-6.74,6.32-4.72,14.03-6.43,21.71-6.74,9.72-.39,19.48.25,29.22.48.63.01,1.25.27,1.84,1.02-8.49.24-16.98.44-25.47.74-8.58.3-17.04,1.18-23.98,4.96,7.11.46,14.87,1.04,22.64,1.42,1.96.1,3.93-.54,5.91-.67,11.65-.75,23.28-.95,34.8,1.29,0,.25,0,.51,0,.76h-33.87c-.07.31-.14.62-.21.93,1.41.79,2.81,1.6,4.24,2.35,17.09,9,28.11,22.68,31.63,41.86,3.1,16.88-1.74,31.76-12.34,44.94-3.44,4.27-7.03,8.41-10.88,13,6.52,10.68,13.67,23.01,21.4,34.96,24.76,38.25,49.58,76.47,74.7,114.48,11.21,16.96,25.02,31.77,40.15,45.35,13.65,12.25,27.23,24.59,40.73,37,1.64,1.51,2.87,1.7,4.59.5,7.37-5.1,15-9.87,22.1-15.32,18.73-14.4,37.35-28.96,55.77-43.75,5.57-4.47,10.47-9.79,15.47-14.93,4.07-4.19,6.11-4.71,10.81-1.39,6.66,4.7,12.08,10.68,16.89,17.23.41.56.95,1.19.98,1.82.08,1.5.4,3.37-.34,4.39-.63.86-2.76,1.29-3.97.97-10.49-2.81-17.93-9.18-21.81-19.47-.23-.62-.4-1.26-.48-1.51-26.14,25.06-55.49,46.03-84.44,67.48-3.99,2.96-8.31,5.49-12.6,8.02-.76.45-2.38.28-3.14-.25-2.43-1.73-4.7-3.69-6.92-5.69-11.41-10.27-22.73-20.65-34.2-30.85-11.97-10.64-22.65-22.48-32.4-35.14-2.44-3.16-5.12-5-9.15-5.86-22.2-4.75-44.32-9.91-66.5-14.79-10.89-2.4-21.87-4.42-32.77-6.79-2.54-.55-4.15.71-5.98,1.87-19.53,12.37-39.11,24.66-58.58,37.13-10.32,6.61-20.47,13.49-30.62,20.37-1.87,1.27-3.57,1.48-5.59.75-7.11-2.55-13.65-6.14-19.32-11.11-1.66-1.45-3.06-3.48-3.88-5.53-1.51-3.78.91-7.02,4.97-7.19,4.74-.2,9.05,1.37,12.28,4.6,3.62,3.62,6.59,7.9,9.76,11.96.77.99,1.21,2.23,2.01,3.75,8.69-5.83,17.01-11.62,25.54-17.09,20.56-13.17,41.24-26.13,61.8-39.31,3.8-2.44,7.52-2.89,11.87-1.95,31.14,6.77,62.32,13.4,93.48,20.06.85.18,1.72.31,2.83.5-29.83-45.95-59.49-91.63-89.15-137.32.08-.1-.21.15-.33.46-6.67,17.81-17.32,33.4-27.45,49.28-3,4.7-5.66,9.63-8.8,14.23-.93,1.36-2.87,2.53-4.51,2.8-8.55,1.38-17.13,2.73-25.75,3.52-9.31.85-18.68,1.31-28.03,1.44-5.14.07-10.31-.73-15.42-1.48-1.83-.27-2.59.12-3.54,1.6-2.75,4.29-6.58,6.93-11.92,6.57-3.41-.23-5.56-2.02-6.4-5.32-1.29-5.07-.15-9.72,2.93-13.85,2.72-3.64,6.67-2.57,10.23-2.06,3.29.48,6.01,2.65,6.45,5.88.56,4.05,3.12,4.57,6.16,5.02,11.93,1.74,23.86,1.28,35.77-.16,9-1.09,17.98-2.33,26.98-3.42,3.21-.39,5.19-1.84,6.92-4.76,6.57-11.05,13.75-21.75,20.3-32.81,4.3-7.27,7.92-14.96,11.82-22.47.44-.84.69-1.78,1.21-3.17ZM186.3,112.17c9.71,6.56,19.53,11.19,30.91,12.21,14.44,1.3,27.91-1.37,39.49-10.23,17.68-13.53,25.45-35.48,17.71-58.84-7.92-23.9-35.68-44.88-67.15-36.36.73.44,1.39.85,2.22,1.35-.52.29-.75.52-1.02.57-1.18.2-2.36.43-3.55.51-10.61.74-18.93,5.67-25.35,13.97-9.94,12.84-13.38,27.56-12.53,43.55.64,12.06,5.93,21.75,14.9,29.54.78.68,2.41.99,3.43.71,8.13-2.29,15.75-5.77,22.2-11.28,2.86-2.44,4.97-5.75,7.52-8.57.44-.49,1.36-.56,2.05-.82.25.25.49.5.74.75-.78,1.5-1.34,3.19-2.39,4.48-4.86,6.01-11.25,10.08-18.03,13.54-3.42,1.75-7.03,3.12-11.15,4.93ZM154.08,314.81c-2.42-7.19-8.73-15.02-14.59-18.06-1.79-.93-3.92-1.4-5.94-1.61-1.31-.13-3.79.44-3.87.96-.21,1.48.07,3.52,1.01,4.58,6.16,6.95,14.13,11.01,23.38,14.13ZM132.96,206.2c-.08,4.58,2.3,7.56,6.09,7.63,4.59.09,9.03-4.24,9.11-8.89.07-4.28-4.55-8.26-9.61-8.28-3.14-.01-5.49,4.01-5.59,9.54ZM557.85,298.59c-2.4-7.24-16.69-20.96-21.91-21.2-.62,7.01,11.28,20.01,21.91,21.2Z"/>
    <path d="M156.86,104.47v99.38c-.32.12-.64.24-.96.35-.39-.89-1.06-1.76-1.12-2.67-.18-2.88-.18-5.78-.18-8.68-.02-27.14-.03-54.28-.04-81.42,0-1.28,0-2.55,0-4.01H2.82v114.51h151.36c1.26-3.54-.99-7.45,1.49-10.28.42.06.84.11,1.26.17,0,3.71.21,7.44-.16,11.12-.08.82-2.14,1.99-3.35,2.06-4.17.25-8.37.09-12.55.08-44.56-.11-89.11-.21-133.67-.32-.7,0-1.4,0-2.09-.01-4.9-.05-5.01-.05-5.01-4.96C.04,182.07.05,144.36,0,106.64c0-2.21.61-3,3-2.59,2.33.4,4.77.24,7.16.25,47.65.06,95.3.12,142.94.17,1.18,0,2.36,0,3.76,0Z"/>
    <path d="M293.72,137.19c3.01-.1,6.03-.37,9.04-.28,13.05.4,26.09,1.06,39.14,1.34,18.23.4,36.47.53,54.71.82,3.27.05,6.54.35,9.79.69-37.6,1.31-75.16.79-112.7-1.37,0-.4.01-.81.02-1.21Z"/>
    <path d="M467.35,272.86c-26.59,3.3-53.31,5.08-80.16,4.15-.02-.46-.04-.93-.06-1.39,26.74-.92,53.48-1.84,80.22-2.76Z"/>
    <path d="M504.39,113.6c-28.64-.43-57.27-.87-85.91-1.3,0-.46.01-.91.02-1.37,28.6-.21,57.2-.23,85.78,1.55l.11,1.12Z"/>
    <path d="M351.19,176.05c37.82.09,75.64-.73,113.43,1.76-37.77-.3-75.55-.6-113.32-.91-.04-.29-.07-.57-.11-.86Z"/>
    <path d="M318.5,302.34c-28.35.13-56.7.56-85.04-.61,0-.25,0-.5,0-.75h85.03c0,.45,0,.91,0,1.36Z"/>
    <path d="M463.09,347.14c23.38,1.03,46.75,2.07,70.13,3.1-23.48,1.2-46.87-.43-70.28-1.07.05-.68.11-1.36.16-2.04Z"/>
    <path d="M325.23,216.46c-10.17-17.82-20.34-35.65-30.51-53.47,13.97,15.66,21.83,34.82,30.51,53.47Z"/>
    <path d="M290.6,5.47c25.63-.31,51.27-.62,76.9-.93,0,.34,0,.68.01,1.02-25.65.54-51.29,1.07-76.94,1.61,0-.56.02-1.13.02-1.69Z"/>
    <path d="M334.16,56.42c22.86-1,45.73-2.01,68.59-3.01-22.82,2.13-45.61,5.23-68.59,3.01Z"/>
    <path d="M286.56,39.02c.94,1.19,2.08,2.28,2.79,3.6,3.57,6.66,3.36,13.88,2.46,21.01-.55,4.34-2.13,8.55-3.77,12.63.83-6.23,1.98-12.43,2.4-18.68.43-6.39-1.19-12.49-5.03-17.94.38-.21.77-.41,1.15-.62Z"/>
    <path d="M549.19,276.62c-4.15-5.2-8.67-8.72-15.47-7.31.93-2.72,3.45-3.44,7.97-2.46,5.22,1.14,7.87,4.39,7.5,9.77Z"/>
    <path d="M164.7,141.66c10.33-1.08,20.69-1.39,31.07-.84.01.28.02.55.03.83-10.35.35-20.7.7-31.05,1.05-.02-.35-.04-.69-.06-1.04Z"/>
    <path d="M523.69,295.92c-6.18,7.41-14.27,12.62-21.66,18.62-.17-.2-.35-.4-.52-.6,7.19-6.24,14.38-12.49,21.57-18.73.2.24.41.47.61.71Z"/>
    <path d="M309.61,168.1c4.16,5.32,8.48,10.53,10.97,16.92-.35.23-.7.46-1.05.69-3.65-5.6-7.3-11.21-10.94-16.81.34-.26.68-.53,1.02-.79Z"/>
    <path d="M300.83,40.52c4.29,3.05,5.27,18.2,1.34,26.52.23-4.45.82-9,.59-13.51-.22-4.44-1.28-8.84-1.93-13.01Z"/>
    <path d="M544.5,259.57c5.68-.79,10.11,4.34,9.63,10.22-2.93-3.11-6.2-6.58-9.63-10.22Z"/>
    <path d="M121.48,301.82c-3.12-4.19-2.84-8.05-1.04-11.81.89-1.86,2.21-3.75,5.38-3.34-5.66,3.71-3.74,9.54-4.34,15.15Z"/>
    <path d="M117.1,285.04v18.47c-3.38-5.55-2.95-16.33,0-18.47Z"/>
    <path d="M532.29,243.35h-21.57c0-.31,0-.62,0-.92,7.18-1.63,14.38.31,21.57.92Z"/>
    <path d="M217.37,280.06c-5.3,4.7-10.24,9.85-16.92,13.78.76-2.69,12.58-12.07,16.92-13.78Z"/>
    <path d="M360.05,214.89h31.39c0,.21,0,.42,0,.63h-31.45c.02-.21.04-.42.07-.63Z"/>
    <path d="M451.06,212.04c9.52.5,19.04,1,28.56,1.5-9.55.32-19.13,1.11-28.61-.4.01-.37.03-.74.04-1.1Z"/>
    <path d="M206.77,296.19c5.55-3.63,10.67-6.97,16.06-10.49-2.63,4.48-13.03,11.56-16.06,10.49Z"/>
    <path d="M187.47,153.71c-6.53-.61-13.07-1.21-19.6-1.82.04-.4.08-.81.12-1.21,6.69-.77,13.05,1.76,19.64,2.07l-.16.97Z"/>
    <path d="M246.42,199.34c-1.99,5.33-6.31,8.71-10.89,11.86,3.4-4.15,6.79-8.3,10.19-12.45.23.2.47.39.7.59Z"/>
    <path d="M523.82,303.88c-4.8,3.25-9.6,6.5-14.4,9.76-.2-.29-.41-.58-.61-.88,4.73-3.35,9.46-6.7,14.19-10.06.27.39.54.78.81,1.18Z"/>
    <path d="M226.05,208.6c2.98-4.2,5.82-8.19,8.75-12.32.1,4.16-4.42,10.47-8.75,12.32Z"/>
    <path d="M161.72,117.77c-.23-4.88-.47-9.77-.7-14.65.37-.02.74-.04,1.11-.05,1.65,4.81.2,9.78-.41,14.7Z"/>
    <path d="M348.25,76.7c5.51.44,11.02.87,16.52,1.31-5.56.13-11.21,1.64-16.63-.35.04-.32.07-.64.11-.96Z"/>
    <path d="M164.35,222.12c-1.35,4.79-4.99,7.81-8.83,10.68,1.5-1.88,3.1-3.69,4.45-5.67,1.25-1.83,2.24-3.84,3.35-5.78.34.25.69.51,1.03.76Z"/>
    <path d="M275.04.67c-4.72.45-9.44.9-14.16,1.35-.03-.4-.07-.79-.1-1.19,4.72-.28,9.45-.56,14.17-.83.03.22.06.45.09.67Z"/>
    <path d="M534.61,329.32c3.65.39,7.29.78,10.94,1.17-.03.29-.06.58-.08.87-3.64-.34-7.27-.68-10.91-1.02.02-.34.04-.68.06-1.03Z"/>
    <path class="cls-1" d="M154.08,314.81c-9.25-3.12-17.22-7.18-23.38-14.13-.94-1.06-1.22-3.1-1.01-4.58.07-.52,2.56-1.09,3.87-.96,2.02.21,4.15.69,5.94,1.61,5.86,3.03,12.17,10.87,14.59,18.06Z"/>
    <path class="cls-1" d="M132.96,206.2c.09-5.53,2.45-9.55,5.59-9.54,5.06.02,9.68,4,9.61,8.28-.08,4.65-4.51,8.98-9.11,8.89-3.79-.07-6.17-3.05-6.09-7.63Z"/>
    <path class="cls-1" d="M557.85,298.59c-10.63-1.19-22.53-14.2-21.91-21.2,5.21.24,19.5,13.96,21.91,21.2Z"/>
    <path d="M194.23,62.69c-1.25,2.73-2.17,5.68-3.89,8.07-.77,1.07-3.49,1.79-4.67,1.24-1.32-.61-2.68-2.85-2.65-4.35.05-2.68.74-5.54,1.91-7.95,1.02-2.11,3.21-3.87,5.89-3.09,2.79.8,2.54,3.46,3.4,6.08Z"/>
    <path d="M185.99,48.66c1.54-2.02,5.65-2.71,9.15-1.51.28.1.64.13.82.33,1.06,1.2,3.18,3.11,2.91,3.55-1.36,2.24-2.51-.36-3.85-.63-2.97-.59-5.94-1.15-9.02-1.74Z"/>
  </g>
</svg>