<?xml version="1.0" encoding="utf-8"?>
<!-- Generator: Adobe Illustrator 26.0.2, SVG Export Plug-In . SVG Version: 6.00 Build 0)  -->
<svg version="1.1" id="Layer_1" xmlns="http://www.w3.org/2000/svg" xmlns:xlink="http://www.w3.org/1999/xlink" x="0px" y="0px"
	 viewBox="0 0 251.7 236.6" style="enable-background:new 0 0 251.7 236.6;" xml:space="preserve" fill="#ffffff">
<g>
	<path d="M251.7,185.9c-37,0-73.8,0-110.7,0c0,9.7,0,19.1,0,28.9c12.5,0,25.1,0,37.7,0c0,7.4,0,14.5,0,21.9c-35.1,0-70.3,0-105.7,0
		c0-7.1,0-14.3,0-21.7c12.5,0,25,0,37.6,0c0-9.7,0-19.2,0-29c-36.8,0-73.7,0-110.7,0C0,123.8,0,62,0,0c83.8,0,167.7,0,251.7,0
		C251.7,61.8,251.7,123.6,251.7,185.9z M17,167.6c72.4,0,144.5,0,216.7,0c0-50.4,0-100.5,0-150.7c-72.3,0-144.4,0-216.7,0
		C17,67.2,17,117.3,17,167.6z"/>
	<path d="M137.7,73.8c1.6,2.6,3.1,5.1,4.7,7.4c0.5,0.7,1.6,1.1,2.5,1.2c2.3,0.2,4.6,0.2,7,0.1c0.8,0,1.9-0.5,2.3-1.1
		c1.7-2.4,3.2-4.9,4.8-7.5c2.7,1.1,5.4,2.1,7.9,3.3c0.5,0.2,0.9,1.4,0.8,2.1c-0.4,2.4-1.1,4.7-1.5,7.1c-0.1,0.8,0.3,1.8,0.8,2.4
		c1.4,1.6,3.2,2.8,4.4,4.4c1.2,1.7,2.5,1.7,4.2,1.3c2.4-0.6,4.9-1.1,7.6-1.7c1.2,3,2.5,6,3.8,9.1c-2.5,1.6-4.8,3.1-7.2,4.6
		c-1.1,0.7-1.6,1.4-1.5,2.8c0.2,2.3-0.1,4.7,0.1,7c0.1,0.8,0.6,1.9,1.2,2.3c2.3,1.6,4.7,3.1,7.4,4.8c-1.2,2.7-2.3,5.5-3.5,8.2
		c-0.2,0.4-0.9,0.5-1.3,0.7c-0.2,0.1-0.5-0.1-0.7-0.1c-2.9-0.6-6.1-2.1-8.6-1.4c-2.4,0.7-4.3,3.8-6.2,5.9c-0.5,0.5-0.7,1.6-0.5,2.4
		c0.5,2.8,1.2,5.5,1.9,8.5c-3,1.3-6,2.5-9.1,3.8c-1.5-2.3-3-4.5-4.2-6.8c-0.9-1.6-1.8-2.3-3.7-1.9c-1.7,0.3-3.5,0.4-5.2,0.1
		c-2.2-0.5-3.3,0.4-4.3,2.2c-1.1,2.1-2.6,4.1-4,6.3c-3-1.2-6-2.4-9.1-3.7c0.6-2.7,1.1-5.3,1.8-7.9c0.5-1.6,0.4-2.7-1.2-3.8
		c-1.6-1.2-3-2.7-4.2-4.3c-1-1.3-1.9-1.5-3.4-1.1c-2.6,0.7-5.3,1.2-8.1,1.8c-1.3-3-2.5-5.9-3.8-9.1c2.5-1.6,4.9-3.2,7.4-4.6
		c1.1-0.7,1.6-1.3,1.4-2.8c-0.3-2.1-0.2-4.3,0-6.5c0.2-1.5-0.2-2.3-1.5-3c-2.4-1.4-4.6-2.9-7.2-4.5c1.1-2.8,2.2-5.6,3.4-8.2
		c0.2-0.4,1.4-0.7,2-0.6c2.1,0.4,4.2,0.9,6.3,1.5c1.6,0.5,2.6,0.3,3.6-1.1c1.1-1.5,2.5-3,4-4.1c1.8-1.2,1.8-2.4,1.4-4.2
		c-0.6-2.5-2-5.5-1.1-7.4c0.8-1.7,4.2-2.1,6.5-3.1C136.3,74.4,136.9,74.1,137.7,73.8z M163.9,112.4c0-8.6-7.1-15.6-15.8-15.6
		c-8.5,0-15.7,7.2-15.7,15.8c0,8.6,7.1,15.8,15.7,15.7C157,128.3,163.9,121.3,163.9,112.4z"/>
	<path d="M74,44c2-2,3.7-3.6,5.5-5.3c1,0.7,2.2,1.6,3.3,2.4c0.7,0.5,1.3,1,2,1.5c1.2,0.7,7.7-2.5,8-3.9c0.4-2,0.7-3.9,1.1-6.2
		c1.3,0,2.5,0,3.7,0c1.1,0,2.3,0,3.5,0c0.4,2.2,0.6,4.2,1.2,6.1c0.2,0.8,1.1,1.3,1.7,2c0.2,0.2,0.5,0.1,0.7,0.3
		c3.9,3,7.1,1.4,10.1-1.5c0.2-0.2,0.6-0.3,1-0.6c1.7,1.7,3.3,3.4,5.1,5.2c-0.2,0.3-0.3,0.7-0.6,1c-3.9,3.4-3.4,7.2-1.1,11.1
		c0.4,0.7,1.4,1.2,2.3,1.4c5.8,1,5.8,1,5.6,6.8c0,0.4-0.1,0.8-0.1,1.4c-0.5,0.1-1.1,0.4-1.6,0.4c-4.2,0-6.8,1.7-7.9,6
		c-0.4,1.6-0.7,2.7,0.5,4c1.1,1.3,2,2.7,3.1,4.2c-1.8,1.6-3.6,3.2-5.6,4.9c0.1,0.1-0.2,0-0.4-0.3c-3.3-3.2-6.8-4.4-10.9-1.5
		c-0.8,0.5-1.6,1.3-1.8,2.2c-0.6,1.8-0.8,3.7-1.1,5.7c-2.4,0-4.7,0-7.3,0c-0.3-1.9-0.6-3.8-1.1-5.7c-0.3-0.8-1.2-1.5-1.8-2.2
		c-0.1-0.2-0.5-0.1-0.7-0.2c-3.7-3-6.8-1.3-9.7,1.4c-0.3,0.3-0.7,0.5-1.2,0.8c-1.6-1.7-3.3-3.4-5.1-5.4c1-1.4,2.3-3,3.3-4.7
		c0.4-0.7,0.5-1.9,0.2-2.6c-0.8-2-1.4-4.6-3-5.7c-1.6-1.2-4.3-0.9-6.7-1.3c0-2.4,0-4.7,0-7.3c1.9-0.3,3.9-0.6,5.9-1.1
		c0.8-0.2,1.5-1,2-1.7C79.2,51.1,78,47.3,74,44z M97.5,50.3c-6.4,0-11.6,5.3-11.5,11.6c0.1,6.4,5.2,11.6,11.6,11.6
		c6.4,0,11.9-5.4,11.7-11.5C109.1,55.4,103.9,50.3,97.5,50.3z"/>
	<path d="M82,136.9c-1.1-2.1-0.1-4.7-3.4-6c-3.2-1.2-4.3,1.1-6.6,1.9c-0.9-1.1-1.9-2.3-2.9-3.7c0.2-0.2,0.5-0.8,0.9-1.3
		c2.4-3.5,1-7-3.2-7.5c-2.3-0.3-2-1.6-2.1-3.1c-0.1-1.6,0.4-2.3,2.1-2.5c4-0.4,5.5-4,3.2-7.3c-0.4-0.6-0.8-1.2-1.2-1.9
		c1.2-1.1,2.2-2.1,3.4-3.2c2,0.6,3.3,3,6.5,1.7c3.2-1.3,2.1-4,3.4-6c0.7,0,1.6,0.1,2.4,0c1.7-0.2,2.3,0.4,2.5,2.1
		c0.3,2.4,2.5,4.4,4.9,4.5c0.6,0,1.3-0.6,1.9-0.9c0.8-0.5,1.5-1,2.4-1.6c0.6,0.6,1.2,1.1,1.8,1.7c0.5,0.5,1,1.1,1.6,1.6
		c-0.3,0.5-0.5,1-0.9,1.3c-2.6,2.2-1.4,4.6-0.2,6.8c0.3,0.6,1.5,1,2.3,1c2.7-0.1,3.3,1.3,2.9,3.6c-0.1,0.5-0.1,1-0.1,1.5
		c-2,1.1-4.7,0.1-6,3.4c-1.3,3.2,1,4.3,1.9,6.6c-1.1,0.9-2.4,1.8-3.8,2.9c0.1,0.1-0.3-0.1-0.6-0.4c-2.2-2.7-4.7-1.7-7-0.4
		c-0.5,0.3-0.9,1.3-1,2c-0.1,2.7-1.3,3.7-3.9,3.2C82.9,137,82.5,137,82,136.9z M89.5,117.7c0.1-3-2.2-5.4-5.3-5.4
		c-2.9,0-5.3,2.2-5.4,5c-0.1,3.1,2.1,5.5,5.1,5.6C87.1,122.9,89.5,120.8,89.5,117.7z"/>
</g>
</svg>
