<?xml version="1.0" encoding="UTF-8" standalone="no"?>
<!-- Generator: Adobe Illustrator 23.0.1, SVG Export Plug-In . SVG Version: 6.00 Build 0) -->

<svg xmlns:dc="http://purl.org/dc/elements/1.1/" xmlns:cc="http://creativecommons.org/ns#"
  xmlns:rdf="http://www.w3.org/1999/02/22-rdf-syntax-ns#" xmlns:svg="http://www.w3.org/2000/svg"
  xmlns="http://www.w3.org/2000/svg" xmlns:sodipodi="http://sodipodi.sourceforge.net/DTD/sodipodi-0.dtd"
  xmlns:inkscape="http://www.inkscape.org/namespaces/inkscape" id="Layer_1" x="0px" y="0px" viewBox="0 0 120 59.999999"
  xml:space="preserve" version="1.1" sodipodi:docname="communitybridge-ar21.svg"
  inkscape:version="0.92.4 (5da689c313, 2019-01-14)">
  <metadata id="metadata45">
    <rdf:RDF>
      <cc:Work rdf:about="">
        <dc:format>image/svg+xml</dc:format>
        <dc:type rdf:resource="http://purl.org/dc/dcmitype/StillImage" />
        <dc:title></dc:title>
      </cc:Work>
    </rdf:RDF>
  </metadata>
  <defs id="defs43"> </defs>
  <sodipodi:namedview pagecolor="#ffffff" bordercolor="#666666" borderopacity="1" objecttolerance="10"
    gridtolerance="10" guidetolerance="10" inkscape:pageopacity="0" inkscape:pageshadow="2" inkscape:window-width="1920"
    inkscape:window-height="1001" id="namedview41" showgrid="false" inkscape:zoom="2.712" inkscape:cx="32.036547"
    inkscape:cy="71.900002" inkscape:window-x="-9" inkscape:window-y="-9" inkscape:window-maximized="1"
    inkscape:current-layer="Layer_1" />
  <style type="text/css" id="style2">
    .cls-1 {
      fill: #000080;
    }
  </style>
  <g class="cls-1" id="g34" transform="matrix(0.1,0,0,0.1,16.59292,23.127372)"> </g>
  <g id="g919" transform="translate(-2.2463123)">
    <g transform="matrix(0.1,0,0,0.1,18.59292,23.127372)" id="g884" class="cls-1">
      <path inkscape:connector-curvature="0" class="cls-1" id="path4"
        d="m 187,100.1 c -16.8,0 -23.9,-13.3 -23.9,-26.5 0,-13.2 7.1,-26.5 23.9,-26.5 9.3,0 17.3,5.3 19.5,14.6 h 6.1 c -1.7,-12.5 -13.4,-19.5 -25.4,-19.5 -20.1,0 -30.1,14.8 -30.1,31.4 0,16.6 9.9,31.4 29.9,31.4 14.8,0 24.7,-9.4 26.3,-24.3 h -6.1 c -1,10.7 -8.4,19.4 -20.2,19.4 z"
        class="cls-1" />
      <path inkscape:connector-curvature="0" class="cls-1" id="path6"
        d="m 251.3,42.3 c -20,0 -29.9,14.8 -29.9,31.4 0,16.6 9.9,31.4 29.9,31.4 19.9,0 29.8,-14.8 29.8,-31.4 0.2,-16.6 -9.8,-31.4 -29.8,-31.4 z m 0,57.8 c -16.8,0 -23.9,-13.3 -23.9,-26.5 0,-13.2 7.1,-26.5 23.9,-26.5 16.6,0 23.7,13.3 23.7,26.5 0.2,13.2 -6.9,26.5 -23.7,26.5 z"
        class="cls-1" />
      <polygon class="cls-1" id="polygon8"
        points="344.9,50.8 344.9,105.1 350.8,105.1 350.8,42.3 342.1,42.3 320.1,97.4 298.2,42.3 289.4,42.3 289.4,105.1 295.3,105.1 295.3,50.8 295.6,50.8 317.3,105.1 322.9,105.1 344.6,50.8 "
        class="cls-1" />
      <polygon class="cls-1" id="polygon10"
        points="414.5,50.8 414.5,105.1 420.5,105.1 420.5,42.3 411.6,42.3 389.8,97.4 367.9,42.3 359,42.3 359,105.1 365,105.1 365,50.8 365.3,50.8 387,105.1 392.6,105.1 414.3,50.8 "
        class="cls-1" />
      <path inkscape:connector-curvature="0" class="cls-1" id="path12"
        d="m 468.8,80.5 c 0,9.2 -3.2,13.3 -13.2,13.3 -11.2,0 -13,-6.6 -13,-13.3 V 42.3 h -13.9 v 38.2 c 0,16.8 9.8,24.7 27,24.7 16.9,0 27.1,-8.1 27.1,-24.7 V 42.3 h -13.9 z"
        class="cls-1" />
      <polygon class="cls-1" id="polygon14"
        points="544.4,42.3 531.4,42.3 531.4,84.3 531.3,84.3 504.8,42.3 490.9,42.3 490.9,105 503.9,105 503.9,62.9 504.2,62.9 530.5,105 544.4,105 "
        class="cls-1" />
      <rect class="cls-1" id="rect16" height="62.700001" width="13.9" class="cls-1" y="42.299999" x="552.5" />
      <polygon class="cls-1" id="polygon18"
        points="593.6,105 607.5,105 607.5,53.9 626.6,53.9 626.6,42.3 574.6,42.3 574.6,53.9 593.6,53.9 " class="cls-1" />
      <polygon class="cls-1" id="polygon20"
        points="650.4,42.3 634.8,42.3 658.1,80.6 658.1,105.1 672.1,105.1 672.1,81 695.5,42.3 680.1,42.3 665.2,67 "
        class="cls-1" />
      <path inkscape:connector-curvature="0" class="cls-1" id="path22"
        d="m 739.8,71.8 v -0.1 c 6.6,-1.4 11,-7.5 11,-14.1 0,-11.7 -9.7,-15.4 -20.4,-15.4 H 703.6 V 105 h 26.8 c 20.6,0 22.7,-11.9 22.7,-17.8 0.1,-8.3 -5.2,-14.3 -13.3,-15.4 z M 709.7,47.3 h 20.8 c 9.6,0 14.3,4 14.3,11.7 0,5.9 -4.6,10.6 -14.3,10.6 h -20.8 z m 20.8,52.5 h -20.8 v -25 h 20.8 c 10.7,0 16.6,4 16.6,12.1 0.1,10.2 -7.7,12.9 -16.6,12.9 z"
        class="cls-1" />
      <path inkscape:connector-curvature="0" class="cls-1" id="path24"
        d="m 794.9,74.8 v -0.1 c 8.1,-1.7 12.4,-8 12.4,-16 0,-11.4 -8.9,-16.4 -19.2,-16.4 h -29 V 105 h 6.1 V 77.1 H 788 c 11.4,-0.4 12.3,9.3 12.6,18.1 0.3,2.6 0.3,7.4 1.7,9.8 h 6.7 c -2.7,-3.1 -2.7,-11.7 -3,-16.1 -0.5,-7.5 -2.8,-12.9 -11.1,-14.1 z m -7.3,-2.7 H 765 V 47.4 h 22.6 c 9.2,0 13.7,4.8 13.7,12.5 -0.1,7.7 -6.4,12.2 -13.7,12.2 z"
        class="cls-1" />
      <rect class="cls-1" id="rect26" height="62.700001" width="6.0999999" class="cls-1" y="42.299999" x="817.09998" />
      <path inkscape:connector-curvature="0" class="cls-1" id="path28"
        d="M 853.1,42.3 H 831.2 V 105 h 21.9 c 19.2,-0.4 29.2,-10.6 29.2,-31.4 0,-20.8 -9.9,-30.9 -29.2,-31.3 z m -2.9,57.5 H 837.3 V 47.3 h 12.9 c 18.2,0 26.1,7.5 26.1,26.3 0,18.8 -7.9,26.2 -26.1,26.2 z"
        class="cls-1" />
      <path inkscape:connector-curvature="0" class="cls-1" id="path30"
        d="m 920.8,78 h 21.6 c 0.3,12.8 -7.9,22.1 -21.9,22.1 -16.8,0 -23.9,-13.3 -23.9,-26.5 0,-13.2 7.1,-26.5 23.9,-26.5 12,0 19.7,8.1 20.4,15.1 h 6.1 c -2.5,-13.2 -13.2,-20 -26.5,-20 -20,0 -29.9,14.8 -29.9,31.4 0,16.6 9.9,31.4 29.9,31.4 9.2,0 17.7,-3.6 21.9,-12.3 h 0.1 l 0.8,11 h 4.4 V 73.1 H 920.9 V 78 Z"
        class="cls-1" />
      <polygon class="cls-1" id="polygon32"
        points="1000,105 1000,99.8 961.8,99.8 961.8,75 997.2,75 997.2,70 961.8,70 961.8,47.3 999.5,47.3 999.5,42.3 955.7,42.3 955.7,105 "
        class="cls-1" />
    </g>
    <path class="cls-1"
      d="m 18.436312,17.463392 c -6.92216,0 -12.5366074,5.614447 -12.5366074,12.536608 0,6.922161 5.6144474,12.536608 12.5366074,12.536608 6.922161,0 12.536608,-5.614447 12.536608,-12.536608 0,-6.92216 -5.614447,-12.536608 -12.536608,-12.536608 z M 9.073088,32.580553 c -0.6277022,0 -1.1333512,-0.505649 -1.1333512,-1.133351 0,-0.627703 0.505649,-1.133352 1.1333512,-1.133352 0.6277021,0 1.133351,0.505649 1.133351,1.133352 0,0.627702 -0.5056489,1.133351 -1.133351,1.133351 z m 3.121075,0 c -0.627702,0 -1.133351,-0.505649 -1.133351,-1.133351 0,-0.627703 0.505649,-1.133352 1.133351,-1.133352 0.627702,0 1.133351,0.505649 1.133351,1.133352 0,0.627702 -0.505649,1.133351 -1.133351,1.133351 z m 0,-2.981586 c -0.627702,0 -1.133351,-0.505649 -1.133351,-1.133351 0,-0.627702 0.505649,-1.133351 1.133351,-1.133351 0.627702,0 1.133351,0.505649 1.133351,1.133351 0,0.627702 -0.505649,1.133351 -1.133351,1.133351 z m 4.202117,1.150788 v 0.941553 0.05231 0.348723 1.935415 0.05231 0.348723 c 0,0.59283 -0.488213,1.081043 -1.081042,1.081043 -0.59283,0 -1.081043,-0.488213 -1.081043,-1.081043 v -0.348723 -0.05231 -1.935415 -0.348723 -0.05231 -0.941553 -2.319011 c 0,-0.59283 0.488213,-1.081043 1.081043,-1.081043 0.592829,0 1.081042,0.488213 1.081042,1.081043 z m -1.081042,-3.992884 c -0.627703,0 -1.133352,-0.505649 -1.133352,-1.133351 0,-0.627702 0.505649,-1.133351 1.133352,-1.133351 0.627702,0 1.133351,0.505649 1.133351,1.133351 0,0.627702 -0.505649,1.133351 -1.133351,1.133351 z m 3.121074,5.823682 c -0.627702,0 -1.133351,-0.505649 -1.133351,-1.133351 0,-0.627703 0.505649,-1.133352 1.133351,-1.133352 0.627703,0 1.133352,0.505649 1.133352,1.133352 0,0.627702 -0.505649,1.133351 -1.133352,1.133351 z m 4.202118,-1.830798 v 0.941553 0.05231 0.348723 1.935415 0.05231 0.348723 c 0,0.59283 -0.488213,1.081043 -1.081043,1.081043 -0.59283,0 -1.081043,-0.488213 -1.081043,-1.081043 v -0.348723 -0.05231 -1.935415 -0.348723 -0.05231 -0.941553 -2.319011 c 0,-0.59283 0.488213,-1.081043 1.081043,-1.081043 0.59283,0 1.081043,0.488213 1.081043,1.081043 z m -1.081043,-3.992884 c -0.627702,0 -1.133351,-0.505649 -1.133351,-1.133351 0,-0.627702 0.505649,-1.133351 1.133351,-1.133351 0.627702,0 1.133351,0.505649 1.133351,1.133351 0,0.627702 -0.505649,1.133351 -1.133351,1.133351 z m 3.103639,5.823682 c -0.627702,0 -1.133351,-0.505648 -1.133351,-1.133351 0,-0.627703 0.505649,-1.133352 1.133351,-1.133352 0.627702,0 1.133351,0.505649 1.133351,1.133352 0,0.627703 -0.505649,1.133351 -1.133351,1.133351 z m 0,-2.981586 c -0.627702,0 -1.133351,-0.505648 -1.133351,-1.133351 0,-0.627702 0.505649,-1.133351 1.133351,-1.133351 0.627702,0 1.133351,0.505649 1.133351,1.133351 0,0.627702 -0.505649,1.133351 -1.133351,1.133351 z m 3.121075,2.981586 c -0.627703,0 -1.133352,-0.505648 -1.133352,-1.133351 0,-0.627703 0.505649,-1.133352 1.133352,-1.133352 0.627702,0 1.133351,0.505649 1.133351,1.133352 0.01744,0.627703 -0.505649,1.133351 -1.133351,1.133351 z"
      id="path36" style="stroke-width:0.17436172" inkscape:connector-curvature="0" />
  </g>
</svg>