
<!-- Generator: Adobe Illustrator 26.3.1, SVG Export Plug-In . SVG Version: 6.00 Build 0)  -->
<svg version="1.1" id="Layer_1" xmlns="http://www.w3.org/2000/svg" xmlns:xlink="http://www.w3.org/1999/xlink" x="0px" y="0px"
	 viewBox="0 0 105 105" style="enable-background:new 0 0 105 105;" xml:space="preserve">
<style type="text/css">
	.st0{fill:#7497F7;}
	.st1{fill:#FFFFFF;}
	.st2{fill:#72CCB8;}
</style>
<g>
	<g>
		<path class="st0" d="M84.3,19.8C75.7,11.3,64.4,6.6,52.4,6.6c-11.9,0-23.3,4.7-31.8,13.1C12,28.3,7.3,39.7,7.3,51.9
			c0,11.9,4.8,23.3,13.2,31.7c8.5,8.5,19.8,13.2,31.9,13.2c0-20.6,0-41.3,0-61.9c6.1,0,10.9,2.5,13.5,6.6c0.6,0.7,1,1.5,1.5,2.3
			c0.7,1.3,2.4,1.8,3.7,1.2c1.6-0.7,1.8-2.3,1.3-3.5c-1-1.8-2.3-3.6-3.5-5.3c-0.5-1-0.4-2.3,0.4-3.2c1.1-1.2,3-1.2,4.1,0
			c3.9,4.4,6.5,10,7,16.1c0.1,1.4,1.4,2.6,2.8,2.6c1.7,0,3-1.4,2.8-3.1c-0.2-2.1-0.6-4.1-1.1-6c-0.4-1.4,0.3-2.9,1.7-3.4l0.1,0
			c1.5-0.6,3.2,0.3,3.6,1.9c1,3.4,1.5,7,1.5,10.7c0,5.5-1.2,11-3.4,16c-0.6,1.4-0.1,3,1.3,3.7c1.4,0.8,3.2,0.2,3.9-1.3
			c2.5-5.7,3.9-12,3.9-18.3C97.5,39.7,92.8,28.3,84.3,19.8z"/>
		<path class="st1" d="M62.3,101.8c-6.5,0-18.6-2.2-27.1-16.8l-1.9-3.3l2,0.2c-2.5-0.6-4.7-1.2-6.7-1.9c-6.3-2.2-10-5-11-8.3
			c-0.5-1.6-0.7-4.8,3.5-8c2.6-2,5.7-3,9.3-3c4.2,0,7.5,1.4,7.6,1.4l2.8,1.2l-6.4,6.2l-1-0.2c-0.4-0.1-0.8-0.1-1.2-0.1
			c-1.5,0-2.5,0.5-2.8,0.8c0.3,0.4,1.8,1.6,7.2,2.4c4.2,0.6,9.1,1.1,14.7,1.7c5.9,0.6,12.7,1.4,19.9,2.4c4.9,0.7,8.6,2,11.1,3.8
			c3.2,2.4,3.7,5.1,3.6,7c-0.2,3.6-3,7.3-7.6,10.1C73.5,100.3,67.9,101.8,62.3,101.8z M51.1,84.2c2.1,0.9,5.5,2.1,8.5,2.1
			c0.9,0,1.7-0.1,2.3-0.3c0.3-0.1,0.5-0.2,0.7-0.3c-1.4-0.4-4.2-1-9.3-1.4C52.6,84.3,51.8,84.3,51.1,84.2z"/>
		<path class="st0" d="M30.3,62.7c3.8,0,7.8,1.5,7.8,1.5l-3.3,3.2c-0.5-0.1-1.1-0.2-1.6-0.2c-6.7-0.3-10.7,4.4,2.9,7.2
			c8.9,1.3,20.9,2.2,34.6,4.1c24.5,3.4,10,21.3-8.4,21.3c-8.8,0-18.6-4.1-25.4-15.9L48,84.9c0,0,6.3,3.4,11.6,3.4c1,0,2-0.1,2.9-0.4
			c5.8-1.9,4.6-4.5-9.1-5.5c-28.8-2.1-39.7-10.2-31.3-17.1C24.8,63.3,27.7,62.7,30.3,62.7z M30.3,58.7c-4.1,0-7.6,1.1-10.6,3.4
			c-5.1,3.9-4.8,8-4.1,10.1c1.6,5.3,8.3,8.6,16.1,10.8l1.7,3c3.6,6.1,8.1,10.8,13.4,13.8c4.5,2.5,9.9,4,15.4,4c6,0,12-1.6,16.8-4.7
			c5.1-3.2,8.2-7.4,8.5-11.6c0.2-3.4-1.3-6.5-4.4-8.8c-2.8-2-6.8-3.4-12-4.2c-7.2-1-14-1.7-19.9-2.4c-5.6-0.6-9.3-1.1-13.5-1.7
			c-0.2,0-0.3-0.1-0.5-0.1l0.2-0.2l3.2-3l4.6-4.6l-5.6-2.3C39.4,60.1,34.8,58.7,30.3,58.7z"/>
		<path class="st1" d="M51.9,83.4c-1.7,0-3.2-0.8-4.1-2.2c-1-1.5-1.4-3.4-1.2-5.4c-0.5,0.7-1.4,1.2-3,1.5c-0.3,0-0.5,0.1-0.8,0.1
			c-1.9,0-3.6-1-4.6-2.6c-1.2-2-1.1-4.6,0.1-6.7c1.2-2.1,4-3.2,6.1-3.2c0.4,0,0.8,0,1.1,0.1c-0.9-0.9-1.5-1.9-1.9-2.8
			c-0.6-1.4-0.7-2.6-0.3-3.7c-0.1,0-0.2,0-0.3,0c-0.2,0-0.3,0-0.4,0c0.2,0.9,0.7,3.4-2.2,4.3c-0.4,0.1-0.7,0.2-1.1,0.2
			c-1.4,0-2.7-0.8-3.5-2.1c-1.1-1.8-0.9-4.2,0.3-6.4c1.2-2,3.7-3.3,5.3-3.3c0.2,0,0.5,0,0.6,0.1c-0.2-1.1-0.3-2.2-0.2-3.4
			c0.2-2.8,1.4-5.6,3.2-7.7c1.1-1.2,1.5-4.9,1.9-7.9c0.3-2.2,0.6-4.3,1-5.9c0.2-0.9,1-3.5,3.3-3.7c0.2,0,0.3,0,0.5,0
			c1.6,0,2.9,0.6,3.9,1.8c1.2,1.5,1.8,3.7,1.7,6.3c0.8-2.6,1.9-5.3,4.5-5.3c0.3,0,0.6,0.1,1,0.1c1.5,0.4,2.8,1.6,3.5,3.2
			c1,2.5,0.8,5.7-0.7,8.5c-1.7,3.1-4,4.8-5.9,5.6c0.5,0.3,1,0.7,1.5,1.2c3,2.8,3.9,6.3,2.5,9.9c-0.6,1.7-1.8,3-3.4,3.9
			c3.1,0.2,4.8,2.1,7,5.5c2.1,3.3,2.9,6.5,2,8.5c-0.4,1-1.3,1.7-2.3,1.9c-0.4,0.1-0.8,0.1-1.1,0.1c-1.2,0-2.1-0.4-2.7-1.2
			c-0.1,0.8-0.4,1.5-0.8,2.2c-0.7,1.2-1.7,1.9-3.1,2.2c-0.4,0.1-0.9,0.2-1.3,0.2c-0.8,0-1.4-0.2-1.8-0.4c0.4,1.7,1.2,5.3-2.6,6.6
			C53.2,83.3,52.5,83.4,51.9,83.4z M47.3,72.2c-0.1,0.1-0.1,0.5-0.1,1c0,0,0,0,0,0.1c0-0.1,0.1-0.2,0.1-0.2c0.1-0.3,0.3-0.7,0.5-1
			C47.6,72,47.4,72.1,47.3,72.2z M50.5,67.8c0.3,0.4,0.5,0.9,0.4,1.4c0.8-0.4,1.6-0.6,2.2-0.7h0c-0.3-0.1-0.7-0.2-1-0.3
			C51.6,68.1,51.1,68,50.5,67.8z M44.9,56.1c0.1,0.2,0.1,0.4,0.1,0.5c0.2-0.1,0.3-0.1,0.5-0.1C45.2,56.4,45.1,56.2,44.9,56.1z
			 M51.5,46.4c-0.2,0-0.3,0.2-0.4,0.3c0,0.1,0.1,0.2,0.1,0.3c0.1,0.1,0.1,0.1,0.2,0.1c0.2,0,0.4-0.2,0.4-0.3
			C51.9,46.6,51.7,46.4,51.5,46.4z"/>
		<path class="st0" d="M51.9,23.7c3.3,0,4.9,3.8,3.9,9.1c-1,5.5-3.9,7.6-3.9,7.6s0,0,0.1,0c0.4,0,3-0.2,5.7-5.9c1.3-2.8,1.9-8,4.4-8
			c0.2,0,0.4,0,0.6,0.1c3,0.8,4,5.6,1.8,9.6c-3.1,5.6-8.4,5.9-8.4,5.9s8.4,3.8,6.4,11c-1.2,3.2-4.7,4.4-8.2,4.4
			c-3.8,0-8-2.5-9.5-4.4c-2.3-2.9-2-8.4,1.4-12.3c2.9-3.4,1.7-16.8,5.3-17.1C51.7,23.7,51.8,23.7,51.9,23.7z M41.5,52.4
			c1.1,2,2.8,3.4,2.5,3.8c-0.3,0.4-0.6,0.7-1,0.7c-0.3,0-0.7-0.2-1-0.2c-0.2,0-0.3,0-0.5,0.2c-1.4,0.9,1.3,3.5-1.5,4.4
			c-0.2,0.1-0.4,0.1-0.7,0.1c-2.1,0-3.8-3-1.8-6.4C38.4,53.4,40.4,52.4,41.5,52.4z M46.1,57.4c0.9,0,2.3,1.3,4.5,1.8
			c1.4,0.3,2.9,0.4,3.7,0.4c1.6,0,2.6-0.3,4.8-0.5c0.3,0,0.6-0.1,0.9-0.1c2.7,0,4.2,1.4,6.3,4.8c2.4,3.9,3,7.7,0.6,8.2
			c-0.3,0.1-0.6,0.1-0.8,0.1c-2,0-2.5-1.8-3.4-5c-0.8-2.6-2-3.7-2.7-3.7c-0.2,0-0.3,0.1-0.4,0.2c-0.7,1,1.3,2,2.2,5.2
			c0.8,2.9,0.2,6-2.4,6.6c-0.3,0.1-0.7,0.1-0.9,0.1c-1.6,0-2-1.1-2.7-1.1c-1.3,0,2.1,7.3-3.6,7.6c-3.3,0-4.9-4.3-3.2-8.4
			c1.6-4.2,6.2-3.1,6.6-4.6c0.4-1.6-1.5-1.7-4.7-2.6c-4.4-1.3-6.8-5.8-5.8-7.6C45.2,58.1,45.6,57.4,46.1,57.4z M44.5,66.2
			c0.7,0,1.3,0.1,1.6,0.4c1.6,1.4,3.7,1.5,3.4,2.7c-0.4,1.4-2.3,1-3.1,1.8c-1.4,1.5,1,4.1-2.9,4.6c-0.2,0-0.4,0-0.6,0
			c-3.6,0-4.4-3.7-3.2-6.6C40.6,67.6,42.8,66.2,44.5,66.2z M51.9,20.7c-0.2,0-0.4,0-0.6,0c-1.3,0.1-2.5,0.8-3.4,2
			c-0.5,0.7-0.9,1.6-1.2,2.8c-0.5,1.8-0.8,3.9-1.1,6.1c-0.2,1.7-0.4,3.4-0.8,4.8c-0.4,1.8-0.8,2.3-0.8,2.3
			c-2.8,3.3-3.5,6.8-3.2,10.9c-1.9,0.4-4.6,1.5-5.8,3.7c-1.5,2.7-1.7,5.6-0.3,7.9c1,1.8,2.8,2.9,4.7,2.9c0.5,0,1.2-0.2,1.7-0.3
			c-1.5,0.6-3.1,2.1-4,3.6c-1.3,2.2-1.4,5.3,0,7.8c1.2,2.1,3.3,3.4,5.8,3.4c0.3,0,0.6,0,1-0.1c0.3,0,0.8-0.1,1.4-0.3
			c0.2,1.3,0.7,2.6,1.4,3.6c1.2,1.8,3.2,2.9,5.4,2.9c0.8,0,1.5-0.1,2.3-0.4c2.2-0.7,3.2-2.1,3.8-4.2c0.1-0.6,0.2-1.4,0.2-2
			c0.5,0,1.1,0,1.6-0.1c1.7-0.4,3.1-1.4,4-2.9c0.1-0.2,0.2-0.4,0.3-0.6c0.7,0.3,1.3,0.3,1.9,0.3c0.4,0,0.9-0.1,1.4-0.2
			c1.5-0.3,2.8-1.3,3.4-2.8c1.5-3.5-1-8-2.1-9.8c-1.3-2.1-3.3-4.3-5.5-5.4c0.7-0.8,1.2-1.7,1.6-2.7c1.6-4.3,0-8.2-3.2-11.1
			c1.9-1.3,4.3-3.3,5.5-5.4c1.7-3.1,2-6.9,0.8-9.7c-0.9-2.1-2.4-3.5-4.4-4.1c-0.4-0.1-0.9-0.2-1.4-0.2c-1.1,0-2.5,0.3-3.8,1.9
			c-0.3-0.9-0.8-1.7-1.3-2.3C55.7,21.6,53.9,20.7,51.9,20.7z M41.6,63.7c0.4-0.2,0.7-0.4,1-0.6c0.1,0.1,0.1,0.2,0.2,0.3
			C42.4,63.5,42,63.6,41.6,63.7z"/>
		<path class="st2" d="M53.6,47c0,1-0.9,1.9-1.9,1.9h0c-1.1,0-1.9-0.9-1.9-2c0-1,0.9-1.9,1.9-1.9h0C52.7,45,53.6,45.9,53.6,47z"/>
	</g>
</g>
</svg>
