<svg width="435" height="313" viewBox="0 0 435 313" fill="none" xmlns="http://www.w3.org/2000/svg">
<path d="M37.3445 291.5V304.5C37.3445 304.82 37.5245 305 37.8445 305H40.0445C40.3645 305 40.5445 304.82 40.5445 304.5V291.5C40.5445 291.18 40.3645 291 40.0445 291H37.8445C37.5245 291 37.3445 291.18 37.3445 291.5ZM48.45 294.72C47.17 294.72 46.31 295.22 45.85 295.92V295.5C45.85 295.18 45.67 295 45.35 295H43.35C43.03 295 42.85 295.18 42.85 295.5V304.5C42.85 304.82 43.03 305 43.35 305H45.35C45.67 305 45.85 304.82 45.85 304.5V299.16C45.85 297.98 46.41 297.48 47.31 297.48C48.07 297.48 48.65 297.92 48.65 298.92V304.5C48.65 304.82 48.83 305 49.15 305H51.15C51.47 305 51.65 304.82 51.65 304.5V298.66C51.65 296.16 50.31 294.72 48.45 294.72ZM58.4922 295H57.3922V292.3C57.3922 291.98 57.2122 291.8 56.8922 291.8H54.8922C54.5722 291.8 54.3922 291.98 54.3922 292.3V295H53.2922C52.9722 295 52.7922 295.18 52.7922 295.5V297.38C52.7922 297.7 52.9722 297.88 53.2922 297.88H54.3922V304.5C54.3922 304.82 54.5722 305 54.8922 305H56.8922C57.2122 305 57.3922 304.82 57.3922 304.5V297.88H58.4922C58.8122 297.88 58.9922 297.7 58.9922 297.38V295.5C58.9922 295.18 58.8122 295 58.4922 295ZM65.0538 294.72C61.8938 294.72 59.6938 297.02 59.6938 300C59.6938 302.98 61.8138 305.28 65.1338 305.28C67.1738 305.28 68.8138 304.38 69.5938 302.64C69.7538 302.32 69.5538 302.08 69.1937 302.08L67.2738 302.1C67.0138 302.1 66.8538 302.2 66.6538 302.36C66.2938 302.66 65.7338 302.86 65.1738 302.86C64.1138 302.86 63.1938 302.4 62.8338 301.2H67.0738H69.5138C69.8138 301.2 70.0138 301.06 70.0538 300.74C70.0738 300.5 70.0938 300.26 70.0938 300C70.0938 296.98 67.9738 294.72 65.0538 294.72ZM62.8138 298.92C63.1138 297.94 63.8938 297.38 65.0338 297.38C65.9138 297.38 66.7938 297.8 67.0938 298.92H62.8138ZM81.5163 295H79.5963C79.2763 295 79.0963 295.18 79.0963 295.5V296.02C78.4163 295.22 77.4163 294.72 76.0363 294.72C73.4163 294.72 71.2563 297.02 71.2563 299.8C71.2563 302.58 73.4163 304.88 76.0363 304.88C77.4163 304.88 78.4163 304.4 79.0963 303.6V304.5C79.0963 305.92 78.2163 306.64 76.8763 306.64C75.7763 306.64 75.1163 306.24 74.8963 305.64C74.7963 305.36 74.6563 305.2 74.3563 305.2H72.3363C72.0163 305.2 71.8163 305.38 71.8363 305.72C72.1363 308.12 74.4163 309.28 76.8763 309.28C79.3163 309.28 82.0163 307.86 82.0163 304.5V295.5C82.0163 295.18 81.8363 295 81.5163 295ZM76.6763 302.12C75.2563 302.12 74.2563 301.18 74.2563 299.8C74.2563 298.42 75.2563 297.48 76.6763 297.48C78.0963 297.48 79.0963 298.42 79.0963 299.8C79.0963 301.18 78.0963 302.12 76.6763 302.12ZM89.2972 294.84C88.2972 295 87.4972 295.58 87.2172 296.6V295.5C87.2172 295.18 87.0372 295 86.7172 295H84.7172C84.3972 295 84.2172 295.18 84.2172 295.5V304.5C84.2172 304.82 84.3972 305 84.7172 305H86.7172C87.0372 305 87.2172 304.82 87.2172 304.5V300.28C87.2172 298.68 88.2972 298.12 89.4172 298.16C89.6772 298.16 89.8172 298 89.8172 297.68V295.32C89.8172 295 89.6372 294.78 89.2972 294.84ZM95.0564 294.72C93.0164 294.72 91.1764 295.82 90.9164 297.98C90.8964 298.32 91.0964 298.5 91.4164 298.5H93.3764C93.6764 298.5 93.7764 298.34 93.8964 298.06C94.0564 297.72 94.4364 297.48 95.0564 297.48C95.8964 297.48 96.2964 297.92 96.2964 298.9V299.82C95.7564 299.4 94.9564 299.04 93.7164 299.04C91.9564 299.04 90.4164 300.08 90.4164 302.16C90.4164 304.24 91.9564 305.28 93.7164 305.28C94.9564 305.28 95.7564 304.86 96.2964 304.22V304.5C96.2964 304.82 96.4764 305 96.7964 305H98.7164C99.0364 305 99.2164 304.82 99.2164 304.5V298.7C99.2164 296 97.2564 294.72 95.0564 294.72ZM94.7764 303.16C93.8564 303.16 93.4164 302.74 93.4164 302.16C93.4164 301.58 93.8564 301.16 94.7764 301.16C95.7564 301.16 96.2964 301.54 96.2964 302.16C96.2964 302.74 95.7564 303.16 94.7764 303.16ZM106.051 295H104.951V292.3C104.951 291.98 104.771 291.8 104.451 291.8H102.451C102.131 291.8 101.951 291.98 101.951 292.3V295H100.851C100.531 295 100.351 295.18 100.351 295.5V297.38C100.351 297.7 100.531 297.88 100.851 297.88H101.951V304.5C101.951 304.82 102.131 305 102.451 305H104.451C104.771 305 104.951 304.82 104.951 304.5V297.88H106.051C106.371 297.88 106.551 297.7 106.551 297.38V295.5C106.551 295.18 106.371 295 106.051 295ZM108.448 293.8H110.448C110.768 293.8 110.948 293.62 110.948 293.3V291.5C110.948 291.18 110.768 291 110.448 291H108.448C108.128 291 107.948 291.18 107.948 291.5V293.3C107.948 293.62 108.128 293.8 108.448 293.8ZM108.448 305H110.448C110.768 305 110.948 304.82 110.948 304.5V295.5C110.948 295.18 110.768 295 110.448 295H108.448C108.128 295 107.948 295.18 107.948 295.5V304.5C107.948 304.82 108.128 305 108.448 305ZM117.943 305.28C120.883 305.28 123.243 302.98 123.243 300C123.243 297.02 120.883 294.72 117.943 294.72C115.003 294.72 112.643 297.02 112.643 300C112.643 302.98 115.003 305.28 117.943 305.28ZM117.943 302.36C116.643 302.36 115.643 301.42 115.643 300C115.643 298.58 116.643 297.64 117.943 297.64C119.243 297.64 120.243 298.58 120.243 300C120.243 301.42 119.243 302.36 117.943 302.36ZM130.54 294.72C129.26 294.72 128.4 295.22 127.94 295.92V295.5C127.94 295.18 127.76 295 127.44 295H125.44C125.12 295 124.94 295.18 124.94 295.5V304.5C124.94 304.82 125.12 305 125.44 305H127.44C127.76 305 127.94 304.82 127.94 304.5V299.16C127.94 297.98 128.5 297.48 129.4 297.48C130.16 297.48 130.74 297.92 130.74 298.92V304.5C130.74 304.82 130.92 305 131.24 305H133.24C133.56 305 133.74 304.82 133.74 304.5V298.66C133.74 296.16 132.4 294.72 130.54 294.72ZM153.582 295H151.422C151.122 295 150.942 295.12 150.862 295.42L149.382 300.9L147.702 295.42C147.622 295.14 147.422 295 147.142 295H145.582C145.222 295 145.062 295.22 145.162 295.56L145.782 297.56L144.642 301.22L143.082 295.42C143.002 295.12 142.802 295 142.522 295H140.362C140.002 295 139.842 295.22 139.942 295.56L142.822 304.58C142.902 304.86 143.122 305 143.402 305H144.062H145.322C145.602 305 145.822 304.86 145.902 304.58L146.962 301.26L148.022 304.58C148.102 304.86 148.322 305 148.602 305H148.842H150.522C150.802 305 151.022 304.86 151.102 304.58L153.982 295.56C154.082 295.22 153.922 295 153.562 295H153.582ZM155.987 293.8H157.987C158.307 293.8 158.487 293.62 158.487 293.3V291.5C158.487 291.18 158.307 291 157.987 291H155.987C155.667 291 155.487 291.18 155.487 291.5V293.3C155.487 293.62 155.667 293.8 155.987 293.8ZM155.987 305H157.987C158.307 305 158.487 304.82 158.487 304.5V295.5C158.487 295.18 158.307 295 157.987 295H155.987C155.667 295 155.487 295.18 155.487 295.5V304.5C155.487 304.82 155.667 305 155.987 305ZM165.582 295H164.482V292.3C164.482 291.98 164.302 291.8 163.982 291.8H161.982C161.662 291.8 161.482 291.98 161.482 292.3V295H160.382C160.062 295 159.882 295.18 159.882 295.5V297.38C159.882 297.7 160.062 297.88 160.382 297.88H161.482V304.5C161.482 304.82 161.662 305 161.982 305H163.982C164.302 305 164.482 304.82 164.482 304.5V297.88H165.582C165.902 297.88 166.082 297.7 166.082 297.38V295.5C166.082 295.18 165.902 295 165.582 295ZM173.079 294.72C171.799 294.72 170.939 295.22 170.479 295.92V291.5C170.479 291.18 170.299 291 169.979 291H167.979C167.659 291 167.479 291.18 167.479 291.5V304.5C167.479 304.82 167.659 305 167.979 305H169.979C170.299 305 170.479 304.82 170.479 304.5V299.16C170.479 297.98 171.039 297.48 171.939 297.48C172.699 297.48 173.279 297.92 173.279 298.92V304.5C173.279 304.82 173.459 305 173.779 305H175.779C176.099 305 176.279 304.82 176.279 304.5V298.66C176.279 296.16 174.939 294.72 173.079 294.72ZM187.361 294.72C185.321 294.72 183.481 295.82 183.221 297.98C183.201 298.32 183.401 298.5 183.721 298.5H185.681C185.981 298.5 186.081 298.34 186.201 298.06C186.361 297.72 186.741 297.48 187.361 297.48C188.201 297.48 188.601 297.92 188.601 298.9V299.82C188.061 299.4 187.261 299.04 186.021 299.04C184.261 299.04 182.721 300.08 182.721 302.16C182.721 304.24 184.261 305.28 186.021 305.28C187.261 305.28 188.061 304.86 188.601 304.22V304.5C188.601 304.82 188.781 305 189.101 305H191.021C191.341 305 191.521 304.82 191.521 304.5V298.7C191.521 296 189.561 294.72 187.361 294.72ZM187.081 303.16C186.161 303.16 185.721 302.74 185.721 302.16C185.721 301.58 186.161 301.16 187.081 301.16C188.061 301.16 188.601 301.54 188.601 302.16C188.601 302.74 188.061 303.16 187.081 303.16ZM193.955 305H195.955C196.275 305 196.455 304.82 196.455 304.5V291.1C196.455 290.78 196.275 290.6 195.955 290.6H193.955C193.635 290.6 193.455 290.78 193.455 291.1V304.5C193.455 304.82 193.635 305 193.955 305ZM199.151 305H201.151C201.471 305 201.651 304.82 201.651 304.5V291.1C201.651 290.78 201.471 290.6 201.151 290.6H199.151C198.831 290.6 198.651 290.78 198.651 291.1V304.5C198.651 304.82 198.831 305 199.151 305ZM218.146 301.2H215.946C215.666 301.2 215.506 301.32 215.346 301.56C214.986 302.04 214.366 302.32 213.646 302.32C212.346 302.32 211.346 301.38 211.346 300C211.346 298.62 212.346 297.68 213.646 297.68C214.366 297.68 214.986 297.96 215.346 298.46C215.506 298.68 215.686 298.8 215.946 298.8H218.146C218.486 298.8 218.686 298.58 218.566 298.24C217.946 296.16 215.986 294.72 213.646 294.72C210.606 294.72 208.346 297.02 208.346 300C208.346 302.98 210.606 305.28 213.646 305.28C215.986 305.28 217.946 303.84 218.566 301.76C218.686 301.42 218.486 301.2 218.146 301.2ZM220.616 305H222.616C222.936 305 223.116 304.82 223.116 304.5V291.1C223.116 290.78 222.936 290.6 222.616 290.6H220.616C220.296 290.6 220.116 290.78 220.116 291.1V304.5C220.116 304.82 220.296 305 220.616 305ZM230.111 305.28C233.051 305.28 235.411 302.98 235.411 300C235.411 297.02 233.051 294.72 230.111 294.72C227.171 294.72 224.811 297.02 224.811 300C224.811 302.98 227.171 305.28 230.111 305.28ZM230.111 302.36C228.811 302.36 227.811 301.42 227.811 300C227.811 298.58 228.811 297.64 230.111 297.64C231.411 297.64 232.411 298.58 232.411 300C232.411 301.42 231.411 302.36 230.111 302.36ZM245.148 295H243.148C242.828 295 242.648 295.18 242.648 295.5V300.84C242.648 302.02 242.088 302.52 241.188 302.52C240.428 302.52 239.848 302.08 239.848 301.08V295.5C239.848 295.18 239.668 295 239.348 295H237.348C237.028 295 236.848 295.18 236.848 295.5V301.34C236.848 303.84 238.188 305.28 240.048 305.28C241.308 305.28 242.168 304.8 242.648 304.1V304.5C242.648 304.82 242.828 305 243.148 305H245.148C245.468 305 245.648 304.82 245.648 304.5V295.5C245.648 295.18 245.468 295 245.148 295ZM257.61 291H255.61C255.29 291 255.11 291.18 255.11 291.5V295.94C254.43 295.18 253.45 294.72 252.13 294.72C249.51 294.72 247.35 297.02 247.35 300C247.35 302.98 249.51 305.28 252.13 305.28C253.45 305.28 254.43 304.84 255.11 304.08V304.5C255.11 304.82 255.29 305 255.61 305H257.61C257.93 305 258.11 304.82 258.11 304.5V291.5C258.11 291.18 257.93 291 257.61 291ZM252.73 302.44C251.35 302.44 250.35 301.5 250.35 300C250.35 298.5 251.35 297.56 252.73 297.56C254.11 297.56 255.11 298.5 255.11 300C255.11 301.5 254.11 302.44 252.73 302.44ZM270.911 294.72C269.631 294.72 268.771 295.22 268.311 295.92V295.5C268.311 295.18 268.131 295 267.811 295H265.811C265.491 295 265.311 295.18 265.311 295.5V304.5C265.311 304.82 265.491 305 265.811 305H267.811C268.131 305 268.311 304.82 268.311 304.5V299.16C268.311 297.98 268.871 297.48 269.771 297.48C270.531 297.48 271.111 297.92 271.111 298.92V304.5C271.111 304.82 271.291 305 271.611 305H273.611C273.931 305 274.111 304.82 274.111 304.5V298.66C274.111 296.16 272.771 294.72 270.911 294.72ZM280.193 294.72C278.153 294.72 276.313 295.82 276.053 297.98C276.033 298.32 276.233 298.5 276.553 298.5H278.513C278.813 298.5 278.913 298.34 279.033 298.06C279.193 297.72 279.573 297.48 280.193 297.48C281.033 297.48 281.433 297.92 281.433 298.9V299.82C280.893 299.4 280.093 299.04 278.853 299.04C277.093 299.04 275.553 300.08 275.553 302.16C275.553 304.24 277.093 305.28 278.853 305.28C280.093 305.28 280.893 304.86 281.433 304.22V304.5C281.433 304.82 281.613 305 281.933 305H283.853C284.173 305 284.353 304.82 284.353 304.5V298.7C284.353 296 282.393 294.72 280.193 294.72ZM279.913 303.16C278.993 303.16 278.553 302.74 278.553 302.16C278.553 301.58 278.993 301.16 279.913 301.16C280.893 301.16 281.433 301.54 281.433 302.16C281.433 302.74 280.893 303.16 279.913 303.16ZM291.188 295H290.088V292.3C290.088 291.98 289.908 291.8 289.588 291.8H287.588C287.268 291.8 287.088 291.98 287.088 292.3V295H285.988C285.668 295 285.488 295.18 285.488 295.5V297.38C285.488 297.7 285.668 297.88 285.988 297.88H287.088V304.5C287.088 304.82 287.268 305 287.588 305H289.588C289.908 305 290.088 304.82 290.088 304.5V297.88H291.188C291.508 297.88 291.688 297.7 291.688 297.38V295.5C291.688 295.18 291.508 295 291.188 295ZM293.584 293.8H295.584C295.904 293.8 296.084 293.62 296.084 293.3V291.5C296.084 291.18 295.904 291 295.584 291H293.584C293.264 291 293.084 291.18 293.084 291.5V293.3C293.084 293.62 293.264 293.8 293.584 293.8ZM293.584 305H295.584C295.904 305 296.084 304.82 296.084 304.5V295.5C296.084 295.18 295.904 295 295.584 295H293.584C293.264 295 293.084 295.18 293.084 295.5V304.5C293.084 304.82 293.264 305 293.584 305ZM306.78 295H304.62C304.34 295 304.14 295.14 304.06 295.42L302.28 301.16L300.5 295.42C300.42 295.14 300.22 295 299.94 295H297.8C297.44 295 297.26 295.22 297.38 295.58L300.64 304.6C300.74 304.86 300.92 305 301.2 305H301.68H303.36C303.64 305 303.82 304.86 303.92 304.6L307.18 295.58C307.3 295.22 307.14 295 306.78 295ZM313.042 294.72C309.882 294.72 307.682 297.02 307.682 300C307.682 302.98 309.802 305.28 313.122 305.28C315.162 305.28 316.802 304.38 317.582 302.64C317.742 302.32 317.542 302.08 317.182 302.08L315.262 302.1C315.002 302.1 314.842 302.2 314.642 302.36C314.282 302.66 313.722 302.86 313.162 302.86C312.102 302.86 311.182 302.4 310.822 301.2H315.062H317.502C317.802 301.2 318.002 301.06 318.042 300.74C318.062 300.5 318.082 300.26 318.082 300C318.082 296.98 315.962 294.72 313.042 294.72ZM310.802 298.92C311.102 297.94 311.882 297.38 313.022 297.38C313.902 297.38 314.782 297.8 315.082 298.92H310.802ZM328.885 294.72C326.845 294.72 325.005 295.82 324.745 297.98C324.725 298.32 324.925 298.5 325.245 298.5H327.205C327.505 298.5 327.605 298.34 327.725 298.06C327.885 297.72 328.265 297.48 328.885 297.48C329.725 297.48 330.125 297.92 330.125 298.9V299.82C329.585 299.4 328.785 299.04 327.545 299.04C325.785 299.04 324.245 300.08 324.245 302.16C324.245 304.24 325.785 305.28 327.545 305.28C328.785 305.28 329.585 304.86 330.125 304.22V304.5C330.125 304.82 330.305 305 330.625 305H332.545C332.865 305 333.045 304.82 333.045 304.5V298.7C333.045 296 331.085 294.72 328.885 294.72ZM328.605 303.16C327.685 303.16 327.245 302.74 327.245 302.16C327.245 301.58 327.685 301.16 328.605 301.16C329.585 301.16 330.125 301.54 330.125 302.16C330.125 302.74 329.585 303.16 328.605 303.16ZM340.959 294.72C339.619 294.72 338.639 295.18 337.979 295.94V295.5C337.979 295.18 337.799 295 337.479 295H335.479C335.159 295 334.979 295.18 334.979 295.5V308.5C334.979 308.82 335.159 309 335.479 309H337.479C337.799 309 337.979 308.82 337.979 308.5V304.08C338.639 304.84 339.619 305.28 340.959 305.28C343.579 305.28 345.739 302.98 345.739 300C345.739 297.02 343.579 294.72 340.959 294.72ZM340.359 302.44C338.979 302.44 337.979 301.5 337.979 300C337.979 298.5 338.979 297.56 340.359 297.56C341.739 297.56 342.739 298.5 342.739 300C342.739 301.5 341.739 302.44 340.359 302.44ZM353.42 294.72C352.08 294.72 351.1 295.18 350.44 295.94V295.5C350.44 295.18 350.26 295 349.94 295H347.94C347.62 295 347.44 295.18 347.44 295.5V308.5C347.44 308.82 347.62 309 347.94 309H349.94C350.26 309 350.44 308.82 350.44 308.5V304.08C351.1 304.84 352.08 305.28 353.42 305.28C356.04 305.28 358.2 302.98 358.2 300C358.2 297.02 356.04 294.72 353.42 294.72ZM352.82 302.44C351.44 302.44 350.44 301.5 350.44 300C350.44 298.5 351.44 297.56 352.82 297.56C354.2 297.56 355.2 298.5 355.2 300C355.2 301.5 354.2 302.44 352.82 302.44ZM360.401 305H362.401C362.721 305 362.901 304.82 362.901 304.5V291.1C362.901 290.78 362.721 290.6 362.401 290.6H360.401C360.081 290.6 359.901 290.78 359.901 291.1V304.5C359.901 304.82 360.081 305 360.401 305ZM365.596 293.8H367.596C367.916 293.8 368.096 293.62 368.096 293.3V291.5C368.096 291.18 367.916 291 367.596 291H365.596C365.276 291 365.096 291.18 365.096 291.5V293.3C365.096 293.62 365.276 293.8 365.596 293.8ZM365.596 305H367.596C367.916 305 368.096 304.82 368.096 304.5V295.5C368.096 295.18 367.916 295 367.596 295H365.596C365.276 295 365.096 295.18 365.096 295.5V304.5C365.096 304.82 365.276 305 365.596 305ZM379.591 301.2H377.391C377.111 301.2 376.951 301.32 376.791 301.56C376.431 302.04 375.811 302.32 375.091 302.32C373.791 302.32 372.791 301.38 372.791 300C372.791 298.62 373.791 297.68 375.091 297.68C375.811 297.68 376.431 297.96 376.791 298.46C376.951 298.68 377.131 298.8 377.391 298.8H379.591C379.931 298.8 380.131 298.58 380.011 298.24C379.391 296.16 377.431 294.72 375.091 294.72C372.051 294.72 369.791 297.02 369.791 300C369.791 302.98 372.051 305.28 375.091 305.28C377.431 305.28 379.391 303.84 380.011 301.76C380.131 301.42 379.931 301.2 379.591 301.2ZM385.603 294.72C383.563 294.72 381.723 295.82 381.463 297.98C381.443 298.32 381.643 298.5 381.963 298.5H383.923C384.223 298.5 384.323 298.34 384.443 298.06C384.603 297.72 384.983 297.48 385.603 297.48C386.443 297.48 386.843 297.92 386.843 298.9V299.82C386.303 299.4 385.503 299.04 384.263 299.04C382.503 299.04 380.963 300.08 380.963 302.16C380.963 304.24 382.503 305.28 384.263 305.28C385.503 305.28 386.303 304.86 386.843 304.22V304.5C386.843 304.82 387.023 305 387.343 305H389.263C389.583 305 389.763 304.82 389.763 304.5V298.7C389.763 296 387.803 294.72 385.603 294.72ZM385.323 303.16C384.403 303.16 383.963 302.74 383.963 302.16C383.963 301.58 384.403 301.16 385.323 301.16C386.303 301.16 386.843 301.54 386.843 302.16C386.843 302.74 386.303 303.16 385.323 303.16ZM396.598 295H395.498V292.3C395.498 291.98 395.318 291.8 394.998 291.8H392.998C392.678 291.8 392.498 291.98 392.498 292.3V295H391.398C391.078 295 390.898 295.18 390.898 295.5V297.38C390.898 297.7 391.078 297.88 391.398 297.88H392.498V304.5C392.498 304.82 392.678 305 392.998 305H394.998C395.318 305 395.498 304.82 395.498 304.5V297.88H396.598C396.918 297.88 397.098 297.7 397.098 297.38V295.5C397.098 295.18 396.918 295 396.598 295ZM398.995 293.8H400.995C401.315 293.8 401.495 293.62 401.495 293.3V291.5C401.495 291.18 401.315 291 400.995 291H398.995C398.675 291 398.495 291.18 398.495 291.5V293.3C398.495 293.62 398.675 293.8 398.995 293.8ZM398.995 305H400.995C401.315 305 401.495 304.82 401.495 304.5V295.5C401.495 295.18 401.315 295 400.995 295H398.995C398.675 295 398.495 295.18 398.495 295.5V304.5C398.495 304.82 398.675 305 398.995 305ZM408.49 305.28C411.43 305.28 413.79 302.98 413.79 300C413.79 297.02 411.43 294.72 408.49 294.72C405.55 294.72 403.19 297.02 403.19 300C403.19 302.98 405.55 305.28 408.49 305.28ZM408.49 302.36C407.19 302.36 406.19 301.42 406.19 300C406.19 298.58 407.19 297.64 408.49 297.64C409.79 297.64 410.79 298.58 410.79 300C410.79 301.42 409.79 302.36 408.49 302.36ZM421.087 294.72C419.807 294.72 418.947 295.22 418.487 295.92V295.5C418.487 295.18 418.307 295 417.987 295H415.987C415.667 295 415.487 295.18 415.487 295.5V304.5C415.487 304.82 415.667 305 415.987 305H417.987C418.307 305 418.487 304.82 418.487 304.5V299.16C418.487 297.98 419.047 297.48 419.947 297.48C420.707 297.48 421.287 297.92 421.287 298.92V304.5C421.287 304.82 421.467 305 421.787 305H423.787C424.107 305 424.287 304.82 424.287 304.5V298.66C424.287 296.16 422.947 294.72 421.087 294.72ZM428.929 298C428.929 297.6 429.249 297.32 429.989 297.32C430.449 297.32 430.789 297.52 430.929 297.84C431.069 298.12 431.169 298.28 431.469 298.28H433.429C433.749 298.28 433.949 298.1 433.909 297.76C433.669 295.64 431.849 294.72 429.989 294.72C427.889 294.72 425.929 295.74 425.929 298C425.929 301.88 431.149 300.56 431.149 302C431.149 302.4 430.829 302.68 429.989 302.68C429.389 302.68 429.009 302.48 428.849 302.14C428.709 301.88 428.609 301.72 428.309 301.72H426.349C426.029 301.72 425.829 301.9 425.869 302.24C426.109 304.36 427.949 305.28 429.989 305.28C432.189 305.28 434.149 304.3 434.149 302C434.149 298.1 428.929 299.48 428.929 298Z" fill="#3C494E"/>
<path d="M23 290.719C23 288.043 20.8557 285.875 18.2083 285.875C15.5609 285.875 13.4167 288.043 13.4167 290.719C13.4167 292.923 14.8721 294.781 16.8607 295.369C16.8247 296.344 16.6091 297.094 16.2018 297.603C15.2794 298.765 13.249 298.959 11.0987 299.159C9.40964 299.316 7.66068 299.486 6.22917 300.182V291.463C8.17578 290.846 9.58333 289.011 9.58333 286.844C9.58333 284.168 7.43906 282 4.79167 282C2.14427 282 0 284.168 0 286.844C0 289.011 1.40755 290.846 3.35417 291.463V303.53C1.40755 304.154 0 305.989 0 308.156C0 310.832 2.14427 313 4.79167 313C7.43906 313 9.58333 310.832 9.58333 308.156C9.58333 306.098 8.31354 304.336 6.51667 303.639C6.70234 303.325 6.98385 303.046 7.40911 302.828C8.37943 302.332 9.82891 302.198 11.3682 302.053C13.8958 301.817 16.7589 301.545 18.4479 299.425C19.2865 298.372 19.7117 297.016 19.7417 295.314C21.6344 294.66 23 292.85 23 290.719ZM4.79167 285.875C5.31875 285.875 5.75 286.311 5.75 286.844C5.75 287.377 5.31875 287.812 4.79167 287.812C4.26458 287.812 3.83333 287.377 3.83333 286.844C3.83333 286.311 4.26458 285.875 4.79167 285.875ZM4.79167 309.125C4.26458 309.125 3.83333 308.689 3.83333 308.156C3.83333 307.623 4.26458 307.188 4.79167 307.188C5.31875 307.188 5.75 307.623 5.75 308.156C5.75 308.689 5.31875 309.125 4.79167 309.125ZM18.2083 289.75C18.7354 289.75 19.1667 290.186 19.1667 290.719C19.1667 291.252 18.7354 291.688 18.2083 291.688C17.6812 291.688 17.25 291.252 17.25 290.719C17.25 290.186 17.6812 289.75 18.2083 289.75Z" fill="#00B39F"/>
<circle cx="224.905" cy="181.372" r="95.1281" stroke="url(#paint0_linear_12104_17350)"/>
<path d="M250.256 143.667H230.076V153.388H250.256V143.667Z" fill="#00B39F"/>
<path d="M252.093 176.416V172.388C252.093 167.749 248.191 163.989 243.382 163.989H210.814V161.339H198.891V172.815H240.169V176.416H252.093Z" fill="#00B39F"/>
<path d="M210.814 158.164V153.388H226.781V143.667H198.891V158.164H210.814Z" fill="#00D3A9"/>
<path d="M240.168 179.542V185.214H224.201V194.935H243.873C246.009 194.969 248.071 194.154 249.608 192.67C251.144 191.186 252.03 189.153 252.07 187.017V179.542H240.168Z" fill="#00D3A9"/>
<path d="M209.857 180.066V185.214H220.906V194.935H206.699C204.563 194.968 202.5 194.154 200.964 192.67C199.428 191.186 198.542 189.153 198.502 187.017V180.066H209.857Z" fill="#00B39F"/>
<path fill-rule="evenodd" clip-rule="evenodd" d="M280.809 82.4771C273.089 78.7812 269.827 69.5265 273.523 61.8062C275.297 58.0987 278.472 55.2482 282.348 53.8816C286.224 52.5151 290.484 52.7444 294.191 54.5193C301.911 58.2152 305.173 67.4699 301.477 75.1903C297.782 82.9106 288.528 86.1731 280.809 82.4771V82.4771Z" fill="#290B53"/>
<path d="M281.774 61.097C280.845 61.2956 280.243 61.9555 280.089 62.9358C279.974 63.6919 280.198 64.3006 280.986 65.3322L281.358 65.8191L281.242 66.1651C280.352 68.7665 280.281 69.0099 280.281 69.3431C280.281 70.0928 280.646 70.9898 281.364 71.9893C281.832 72.6493 282.44 73.2836 284.286 75.0392C285.061 75.776 286.15 76.8204 286.708 77.3586C287.265 77.8904 287.746 78.3325 287.778 78.3325C287.81 78.3325 288.335 77.8648 288.944 77.2945C289.552 76.7243 290.2 76.1284 290.373 75.9682C293.48 73.1362 294.358 72.1815 294.941 71.0026C295.249 70.3875 295.332 70.0607 295.338 69.4905C295.338 69.1317 295.268 68.869 294.819 67.6003C294.531 66.7866 294.255 65.9793 294.204 65.7935L294.108 65.4667L294.396 65.0567C295.043 64.1404 295.216 63.6022 295.088 62.9038C294.986 62.3464 294.813 61.994 294.467 61.6416C294.05 61.2315 293.608 61.0777 292.807 61.0713C292.058 61.0649 291.66 61.1803 291.206 61.5262L290.911 61.7505L290.097 61.5583C289.123 61.3212 288.963 61.2956 288.873 61.3533C288.822 61.3789 288.886 61.7249 289.059 62.4169C289.495 64.1148 290.071 66.3509 290.212 66.8635C290.449 67.7349 290.482 67.972 290.456 68.4397C290.405 69.2598 289.924 69.971 289.2 70.3106C288.867 70.4708 288.758 70.4836 287.874 70.5028C287.015 70.5221 286.868 70.5092 286.547 70.3875C285.638 70.0479 285.003 69.0163 285.106 68.0489C285.131 67.7733 285.823 64.9477 286.579 62.0132C286.663 61.6864 286.72 61.4045 286.701 61.3853C286.592 61.2764 285.676 61.4237 284.689 61.7121L284.324 61.821L284.081 61.6095C283.683 61.2571 283.261 61.1034 282.613 61.0649C282.299 61.0521 281.921 61.0649 281.774 61.097Z" fill="white"/>
<path d="M286.83 66.2228C286.754 66.2548 286.67 66.3317 286.645 66.383C286.587 66.5367 286.798 68.2667 286.888 68.3756C286.946 68.4461 287.151 68.4653 287.785 68.4653C288.567 68.4653 288.612 68.4589 288.701 68.318C288.797 68.1642 288.958 66.556 288.887 66.383C288.868 66.3253 288.778 66.2484 288.695 66.2164C288.496 66.1395 287.023 66.1459 286.83 66.2228Z" fill="white"/>
<path fill-rule="evenodd" clip-rule="evenodd" d="M225.104 26.7719C218.878 23.7913 216.248 16.3278 219.228 10.1017C220.659 7.11187 223.219 4.81304 226.345 3.71098C229.471 2.60891 232.907 2.7939 235.896 4.22522C242.122 7.2058 244.752 14.6693 241.772 20.8954C238.792 27.1215 231.329 29.7525 225.104 26.7719Z" fill="#466BB0"/>
<path d="M226.377 20.1301H235.127L229.658 21.6458L226.377 20.1301Z" fill="white"/>
<path d="M226.377 19.6249L229.658 19.1197V13.5624L226.377 19.6249Z" fill="white"/>
<path d="M230.205 19.1197L235.127 19.6249L230.205 9.52075V19.1197Z" fill="white"/>
<path fill-rule="evenodd" clip-rule="evenodd" d="M310.503 41.8385C299.546 36.5927 294.916 23.457 300.161 12.4991C302.68 7.2369 307.186 3.19095 312.687 1.25132C318.189 -0.688313 324.236 -0.362737 329.497 2.15639C340.454 7.40221 345.084 20.5379 339.839 31.4958C334.594 42.4538 321.459 47.0843 310.503 41.8385V41.8385Z" fill="#009639"/>
<path d="M325.749 19.3103L321.989 21.1932C322.086 21.4073 322.126 21.6509 322.118 21.8946C322.11 22.1235 322.054 22.345 321.957 22.5444L325.507 24.5232C325.829 24.154 326.304 23.9104 326.827 23.8734L326.989 20.0191C326.948 20.0118 326.916 20.0044 326.876 19.997C326.401 19.8936 326.014 19.6426 325.749 19.3103Z" fill="white"/>
<path d="M332.134 14.7102L320.88 8.75152C320.421 8.50047 319.849 8.50047 319.382 8.75152L308.136 14.7102C307.669 14.9538 307.387 15.4042 307.387 15.899V27.8163C307.379 28.0599 307.452 28.2962 307.581 28.503C307.709 28.7097 307.903 28.8869 308.128 29.005L319.382 34.9637C319.841 35.2148 320.413 35.2148 320.88 34.9637L332.134 29.005C332.601 28.7614 332.883 28.311 332.883 27.8163V15.899C332.883 15.4116 332.601 14.9538 332.134 14.7102ZM327.449 23.7921C328.487 23.9472 329.196 24.848 329.027 25.8005C328.858 26.753 327.875 27.4028 326.837 27.2477C325.798 27.0927 325.09 26.1919 325.259 25.2394C325.283 25.1064 325.324 24.9883 325.372 24.8702L321.749 23.0095C321.403 23.4451 320.839 23.7257 320.212 23.7257C319.584 23.7257 319.02 23.4451 318.674 23.0169L315.051 24.8702C315.14 25.0695 315.188 25.291 315.188 25.5199C315.188 25.771 315.132 26.0073 315.027 26.2214L318.714 28.2371C319.06 27.831 319.608 27.5726 320.212 27.5726C321.266 27.5726 322.119 28.3553 322.119 29.3225C322.119 30.2898 321.266 31.0725 320.212 31.0725C319.157 31.0725 318.304 30.2898 318.304 29.3225C318.304 29.0715 318.36 28.8352 318.465 28.6211L314.778 26.6053C314.431 27.0114 313.892 27.2699 313.28 27.2699C312.226 27.2699 311.372 26.4872 311.372 25.5199C311.372 24.5527 312.226 23.77 313.28 23.77C313.908 23.77 314.472 24.0506 314.818 24.4788L318.44 22.6181C318.352 22.4188 318.304 22.1973 318.304 21.9684C318.304 21.0749 319.028 20.344 319.97 20.2332V16.1205C319.455 16.0614 319.004 15.8103 318.698 15.4485L314.866 17.5012C314.963 17.708 315.019 17.9442 315.019 18.1805C315.019 19.1478 314.166 19.9305 313.111 19.9305C312.057 19.9305 311.203 19.1478 311.203 18.1805C311.203 17.2133 312.057 16.4306 313.111 16.4306C313.731 16.4306 314.278 16.6964 314.625 17.1173L318.457 15.0646C318.36 14.8579 318.304 14.6216 318.304 14.3853C318.304 13.418 319.157 12.6354 320.212 12.6354C321.266 12.6354 322.119 13.418 322.119 14.3853C322.119 15.2787 321.395 16.0097 320.453 16.1205V20.2332C320.96 20.2923 321.411 20.5359 321.709 20.883L325.396 18.8746C325.251 18.5645 325.203 18.2101 325.275 17.8483C325.476 16.8958 326.475 16.2755 327.513 16.4601C328.552 16.6447 329.228 17.5603 329.027 18.5128C328.866 19.2733 328.189 19.8271 327.392 19.9157V23.7774C327.409 23.7848 327.433 23.7921 327.449 23.7921Z" fill="white"/>
<path fill-rule="evenodd" clip-rule="evenodd" d="M223.388 70.7228C216.914 67.623 214.178 59.8609 217.277 53.3858C218.766 50.2763 221.428 47.8856 224.679 46.7394C227.93 45.5933 231.503 45.7857 234.612 47.2742C241.086 50.374 243.822 58.136 240.723 64.6112C237.623 71.0863 229.862 73.8226 223.388 70.7228V70.7228Z" fill="#326CE5"/>
<path d="M228.878 51.028C228.732 51.0354 228.589 51.0716 228.458 51.1344L222.719 53.8766C222.57 53.9475 222.44 54.0507 222.337 54.1786C222.234 54.3064 222.162 54.4556 222.125 54.615L220.709 60.7745C220.677 60.9164 220.673 61.0634 220.698 61.2068C220.724 61.3501 220.778 61.4869 220.858 61.609C220.878 61.6389 220.898 61.6678 220.921 61.6957L224.893 66.6346C224.996 66.7624 225.126 66.8656 225.275 66.9365C225.423 67.0074 225.586 67.0442 225.751 67.0441L232.121 67.0427C232.286 67.0428 232.449 67.0061 232.597 66.9353C232.746 66.8646 232.876 66.7615 232.979 66.6339L236.95 61.6942C237.053 61.5663 237.125 61.4171 237.162 61.2576C237.199 61.0982 237.199 60.9325 237.162 60.773L235.744 54.6135C235.707 54.4541 235.635 54.3049 235.532 54.1771C235.429 54.0493 235.299 53.9461 235.15 53.8751L229.411 51.1344C229.245 51.0553 229.062 51.0187 228.878 51.028V51.028Z" fill="white"/>
<path d="M228.935 53.1241C228.746 53.1242 228.592 53.295 228.592 53.5058C228.592 53.509 228.593 53.5121 228.593 53.5154C228.592 53.544 228.591 53.5785 228.592 53.6034C228.596 53.725 228.623 53.818 228.639 53.9301C228.668 54.1698 228.692 54.3685 228.677 54.5532C228.663 54.6228 228.611 54.6865 228.566 54.7308L228.557 54.8762C228.351 54.8932 228.144 54.9245 227.936 54.9716C227.045 55.1741 226.277 55.6335 225.692 56.2538C225.654 56.2279 225.588 56.1803 225.568 56.1657C225.507 56.174 225.445 56.193 225.364 56.1459C225.21 56.0425 225.07 55.8996 224.901 55.7276C224.823 55.6453 224.767 55.5669 224.675 55.4876C224.654 55.4695 224.622 55.4452 224.598 55.4266C224.526 55.3691 224.441 55.3392 224.359 55.3364C224.253 55.3327 224.152 55.374 224.085 55.4575C223.967 55.6058 224.005 55.8325 224.17 55.9639C224.171 55.9652 224.173 55.9663 224.175 55.9676C224.198 55.9859 224.225 56.0095 224.246 56.0248C224.344 56.0971 224.433 56.1341 224.531 56.1914C224.736 56.3183 224.907 56.4235 225.042 56.5504C225.094 56.6066 225.104 56.7057 225.111 56.7485L225.221 56.8469C224.631 57.7338 224.359 58.8294 224.52 59.9457L224.376 59.9876C224.338 60.0365 224.284 60.1136 224.228 60.1366C224.052 60.1922 223.853 60.2127 223.613 60.2379C223.5 60.2472 223.403 60.2416 223.283 60.2643C223.257 60.2693 223.22 60.2788 223.191 60.2856C223.19 60.2858 223.189 60.2861 223.188 60.2863C223.187 60.2867 223.185 60.2874 223.183 60.2878C222.981 60.3367 222.851 60.5228 222.893 60.7061C222.934 60.8895 223.132 61.0011 223.336 60.9572C223.337 60.9568 223.34 60.9568 223.341 60.9564C223.343 60.9559 223.345 60.9548 223.348 60.9542C223.376 60.948 223.412 60.9411 223.436 60.9344C223.554 60.9029 223.639 60.8567 223.745 60.8162C223.972 60.7347 224.16 60.6666 224.344 60.6401C224.42 60.6341 224.501 60.6873 224.541 60.7098L224.691 60.6841C225.035 61.7524 225.758 62.6158 226.672 63.1576L226.609 63.3074C226.632 63.3655 226.657 63.4442 226.64 63.5016C226.573 63.6745 226.459 63.857 226.329 64.0604C226.266 64.1544 226.202 64.2274 226.145 64.3349C226.131 64.3607 226.114 64.4002 226.101 64.4274C226.013 64.6163 226.077 64.8339 226.247 64.9155C226.418 64.9977 226.629 64.911 226.721 64.7217C226.721 64.7215 226.722 64.7213 226.722 64.721C226.722 64.7208 226.722 64.7205 226.722 64.7203C226.735 64.6934 226.753 64.6582 226.764 64.6329C226.813 64.5214 226.829 64.4259 226.863 64.318C226.954 64.0897 227.004 63.8502 227.129 63.7009C227.164 63.6601 227.219 63.6443 227.277 63.6288L227.355 63.4879C228.152 63.7939 229.045 63.876 229.936 63.6736C230.139 63.6274 230.335 63.5677 230.525 63.496C230.547 63.5348 230.588 63.6093 230.599 63.6281C230.657 63.6472 230.722 63.6571 230.774 63.7345C230.868 63.8945 230.932 64.0836 231.01 64.3122C231.044 64.42 231.061 64.5156 231.109 64.627C231.121 64.6525 231.139 64.6882 231.152 64.7151C231.244 64.905 231.456 64.992 231.627 64.9096C231.797 64.8279 231.861 64.6104 231.773 64.4215C231.76 64.3943 231.742 64.3548 231.728 64.3291C231.671 64.2215 231.607 64.1493 231.544 64.0553C231.414 63.8518 231.306 63.6828 231.239 63.5099C231.212 63.4208 231.244 63.3653 231.266 63.3074C231.253 63.2924 231.225 63.2082 231.209 63.1686C232.159 62.6076 232.86 61.7119 233.189 60.6775C233.233 60.6845 233.311 60.6982 233.336 60.7032C233.387 60.6691 233.435 60.6247 233.528 60.632C233.711 60.6585 233.9 60.7267 234.127 60.8082C234.233 60.8486 234.318 60.8956 234.435 60.9271C234.46 60.9337 234.496 60.9399 234.524 60.9461C234.526 60.9467 234.528 60.9478 234.531 60.9483C234.532 60.9487 234.534 60.9487 234.536 60.9491C234.739 60.9929 234.937 60.8815 234.979 60.6981C235.021 60.5147 234.891 60.3286 234.688 60.2797C234.659 60.273 234.617 60.2616 234.589 60.2562C234.469 60.2336 234.372 60.2392 234.259 60.2298C234.019 60.2046 233.82 60.1842 233.643 60.1285C233.571 60.1005 233.52 60.0148 233.495 59.9795L233.356 59.9391C233.428 59.4188 233.409 58.8772 233.284 58.3354C233.159 57.7885 232.937 57.2883 232.641 56.8476C232.676 56.8153 232.743 56.7558 232.762 56.7383C232.768 56.6766 232.763 56.612 232.827 56.5437C232.962 56.4169 233.132 56.3117 233.338 56.1848C233.435 56.1275 233.525 56.0905 233.623 56.0182C233.645 56.0019 233.676 55.976 233.699 55.9573C233.864 55.8259 233.902 55.5992 233.783 55.4509C233.665 55.3026 233.436 55.2886 233.271 55.42C233.248 55.4386 233.216 55.4628 233.195 55.4809C233.102 55.5603 233.046 55.6387 232.968 55.721C232.799 55.893 232.658 56.0366 232.505 56.1401C232.438 56.1788 232.341 56.1654 232.296 56.1628L232.166 56.256C231.421 55.4748 230.406 54.9754 229.314 54.8784C229.311 54.8326 229.307 54.7498 229.306 54.725C229.261 54.6822 229.207 54.6456 229.194 54.5532C229.179 54.3685 229.204 54.1698 229.233 53.9301C229.249 53.818 229.275 53.725 229.28 53.6034C229.281 53.5758 229.279 53.5357 229.279 53.5058C229.279 53.295 229.125 53.1241 228.935 53.1241H228.935ZM228.505 55.7885L228.403 57.5904L228.396 57.5941C228.389 57.7553 228.256 57.884 228.094 57.884C228.027 57.884 227.965 57.8626 227.915 57.826L227.912 57.8275L226.435 56.7801C226.889 56.3336 227.47 56.0036 228.139 55.8516C228.261 55.8238 228.384 55.8032 228.505 55.7885ZM229.366 55.7885C230.148 55.8846 230.871 56.2385 231.424 56.7808L229.956 57.8216L229.951 57.8194C229.821 57.9146 229.637 57.891 229.536 57.7636C229.494 57.7115 229.472 57.6501 229.47 57.5882L229.468 57.5875L229.366 55.7885ZM225.899 57.4531L227.248 58.6598L227.247 58.6671C227.368 58.773 227.386 58.9567 227.285 59.084C227.243 59.1362 227.187 59.1712 227.128 59.1875L227.126 59.1934L225.397 59.6925C225.309 58.8877 225.499 58.1054 225.899 57.4531ZM231.962 57.4539C232.163 57.7788 232.315 58.1416 232.405 58.535C232.494 58.9237 232.517 59.3117 232.48 59.6866L230.742 59.1861L230.74 59.1787C230.585 59.1362 230.489 58.9779 230.525 58.8191C230.54 58.754 230.575 58.699 230.621 58.6583L230.621 58.6547L231.962 57.4539H231.962ZM228.659 58.753H229.211L229.555 59.1824L229.432 59.7182L228.935 59.9567L228.438 59.7175L228.314 59.1817L228.659 58.753ZM230.431 60.2224C230.454 60.2213 230.477 60.2234 230.5 60.2276L230.503 60.2239L232.292 60.5263C232.03 61.2618 231.529 61.8989 230.86 62.3253L230.166 60.6481L230.168 60.6452C230.104 60.497 230.168 60.3232 230.315 60.2525C230.352 60.2344 230.391 60.2244 230.431 60.2224H230.431ZM227.426 60.2298C227.563 60.2317 227.685 60.3264 227.717 60.4654C227.732 60.5304 227.725 60.5949 227.7 60.6518L227.705 60.6584L227.018 62.3187C226.376 61.9065 225.864 61.2894 225.591 60.5322L227.364 60.2313L227.367 60.2349C227.387 60.2313 227.407 60.2295 227.426 60.2298V60.2298ZM228.924 60.9572C228.972 60.9554 229.02 60.9652 229.066 60.9872C229.126 61.0162 229.173 61.0618 229.202 61.1164H229.208L230.083 62.6959C229.969 62.734 229.853 62.7665 229.733 62.7936C229.065 62.9454 228.398 62.8994 227.795 62.6937L228.667 61.1172H228.668C228.721 61.0194 228.82 60.961 228.924 60.9572Z" fill="#326CE5" stroke="#326CE5" stroke-width="0.25"/>
<path fill-rule="evenodd" clip-rule="evenodd" d="M173.712 83.4231C166.691 83.4231 161 77.7319 161 70.7115C161 67.3402 162.339 64.107 164.723 61.7231C167.107 59.3392 170.34 58 173.712 58C180.732 58 186.423 63.6911 186.423 70.7115C186.423 77.7319 180.732 83.4231 173.712 83.4231Z" fill="url(#paint1_linear_12104_17350)"/>
<g clip-path="url(#clip0_12104_17350)">
<path d="M180.277 66.0172V72.1618L181.33 72.8173V66.6727L180.277 66.0172ZM166.158 72.8173L167.211 72.1618V66.0172L166.158 66.6727V72.8173ZM171.321 72.7568L176.168 75.7652V74.4577L171.63 71.6408L171.321 71.8324V72.7568ZM176.446 77.5098L171.321 74.3266V75.6341L172.69 76.4846L171.043 77.5064C170.933 77.5737 170.933 77.7485 171.043 77.8157L171.846 78.3165L173.743 77.14L175.64 78.3165L176.443 77.8157C176.555 77.7518 176.555 77.577 176.446 77.5098V77.5098Z" fill="white"/>
<path d="M180.277 69.6812V75.13C180.277 75.2678 180.415 75.3552 180.527 75.2846L181.249 74.8375C181.299 74.8073 181.333 74.7468 181.333 74.6829V69.0291L180.277 69.6812ZM178.208 76.7233L178.887 76.2997C178.965 76.2527 179.012 76.1619 179.012 76.0678V70.4677L177.958 71.1232V76.572C177.958 76.7065 178.096 76.7939 178.208 76.7233ZM175.64 78.3199L176.612 77.7182C176.662 77.688 176.696 77.6275 176.696 77.5636V71.9064L175.64 72.5619V78.3199ZM170.877 77.7149L171.849 78.3166V72.5619L170.796 71.9064V77.5603C170.796 77.6241 170.827 77.6846 170.877 77.7149ZM168.602 76.3031L169.28 76.7266C169.39 76.7939 169.53 76.7098 169.53 76.572V71.1198L168.477 70.4644V76.0678C168.477 76.1653 168.524 76.256 168.602 76.3031ZM166.283 74.8644L166.961 75.288C167.071 75.3552 167.211 75.2711 167.211 75.1333V69.6812L166.158 69.0291V74.6325C166.158 74.7266 166.205 74.814 166.283 74.8644V74.8644Z" fill="white"/>
<path d="M181.33 66.6727L180.277 66.0172L178.38 67.1937L177.118 66.4105L178.765 65.3886C178.874 65.3214 178.874 65.1466 178.765 65.0794L178.083 64.6559C178.005 64.6088 177.912 64.6088 177.833 64.6559L176.061 65.755L174.799 64.9718L176.446 63.95C176.555 63.8827 176.555 63.7079 176.446 63.6407L175.765 63.2172C175.686 63.1701 175.593 63.1701 175.515 63.2172L173.743 64.3164L171.971 63.2172C171.893 63.1701 171.799 63.1701 171.721 63.2172L171.04 63.6407C170.93 63.7079 170.93 63.8827 171.04 63.95L180.271 69.6845L181.324 69.029L179.427 67.8525L181.33 66.6727V66.6727ZM169.405 64.6559L168.727 65.0794C168.618 65.1466 168.618 65.3214 168.727 65.3886L177.958 71.1232L179.012 70.4677L169.655 64.6559C169.577 64.6088 169.483 64.6088 169.405 64.6559ZM166.158 66.6727L168.055 67.8492L166.158 69.029L167.214 69.6811L169.108 68.5046L170.374 69.2912L168.477 70.4677L169.53 71.1232L171.427 69.9433L172.69 70.7299L170.793 71.9064L171.849 72.5618L173.743 71.382L175.64 72.5618L176.693 71.9064L167.211 66.0172L166.158 66.6727Z" fill="white"/>
</g>
<path fill-rule="evenodd" clip-rule="evenodd" d="M114.104 99.6155C107.878 96.6545 105.248 89.2402 108.228 83.055C109.659 80.0848 112.219 77.8011 115.345 76.7063C118.471 75.6115 121.907 75.7953 124.896 77.2172C131.122 80.1781 133.752 87.5925 130.772 93.7776C127.792 99.9628 120.329 102.576 114.104 99.6155V99.6155Z" fill="#9D0FB0"/>
<path d="M117.207 83.8037L117.231 83.8164L119.249 84.9609C119.317 84.9994 119.394 85.0196 119.472 85.0196C119.549 85.0196 119.626 84.9994 119.694 84.9609L121.697 83.8289C121.852 83.7405 122.035 83.7169 122.207 83.7632C122.379 83.8095 122.527 83.922 122.617 84.0765C122.708 84.231 122.734 84.415 122.691 84.5889C122.648 84.7628 122.538 84.9126 122.386 85.0061L122.363 85.0196L121.207 85.6741C121.172 85.694 121.143 85.7228 121.123 85.7577C121.102 85.7926 121.092 85.8322 121.092 85.8726C121.092 85.913 121.102 85.9527 121.123 85.9875C121.143 86.0224 121.172 86.0512 121.207 86.0711L124.328 87.84C124.396 87.8786 124.472 87.8989 124.55 87.8989C124.628 87.8989 124.705 87.8786 124.773 87.84L126.703 86.746C126.858 86.6566 127.042 86.6322 127.215 86.6782C127.387 86.7241 127.535 86.8367 127.626 86.9915C127.717 87.1463 127.743 87.3308 127.7 87.5051C127.656 87.6794 127.546 87.8295 127.393 87.9227L127.37 87.9364L126.283 88.5512C126.248 88.5711 126.219 88.5999 126.199 88.6348C126.179 88.6696 126.168 88.7093 126.168 88.7496C126.168 88.79 126.179 88.8297 126.199 88.8645C126.219 88.8994 126.248 88.9282 126.283 88.948L127.375 89.5672C127.531 89.6548 127.646 89.8003 127.696 89.9724C127.745 90.1445 127.726 90.3294 127.642 90.4873C127.557 90.6451 127.414 90.7633 127.244 90.8163C127.074 90.8692 126.89 90.8528 126.731 90.7705L126.708 90.7574L124.772 89.6601C124.704 89.6216 124.627 89.6014 124.55 89.6014C124.472 89.6014 124.395 89.6216 124.327 89.6601L121.172 91.4486C121.137 91.4684 121.108 91.4972 121.087 91.532C121.067 91.5669 121.056 91.6065 121.056 91.6469C121.056 91.6873 121.067 91.7269 121.087 91.7617C121.108 91.7966 121.137 91.8254 121.172 91.8452L122.475 92.5842C122.629 92.6725 122.743 92.8179 122.792 92.9893C122.841 93.1607 122.821 93.3445 122.737 93.5015C122.653 93.6586 122.511 93.7763 122.342 93.8297C122.173 93.8831 121.99 93.8679 121.832 93.7873L121.808 93.7744L119.661 92.5569C119.593 92.5185 119.517 92.4983 119.439 92.4983C119.361 92.4983 119.284 92.5185 119.216 92.5569L117.05 93.7863C116.895 93.8748 116.712 93.8985 116.54 93.8522C116.367 93.806 116.22 93.6936 116.13 93.5393C116.039 93.3849 116.012 93.2009 116.056 93.0271C116.099 92.8532 116.208 92.7033 116.36 92.6097L116.383 92.5959L117.705 91.845C117.731 91.8304 117.753 91.8107 117.772 91.7872C117.79 91.7636 117.804 91.7367 117.812 91.7079C117.82 91.6791 117.822 91.649 117.818 91.6193C117.815 91.5897 117.805 91.561 117.791 91.5349C117.771 91.4986 117.741 91.4687 117.705 91.4484L114.578 89.6763C114.51 89.6379 114.433 89.6177 114.355 89.6177C114.277 89.6177 114.201 89.6379 114.133 89.6763L112.291 90.7181C112.136 90.8071 111.953 90.8312 111.78 90.785C111.607 90.7388 111.46 90.6261 111.369 90.4714C111.279 90.3166 111.252 90.1321 111.296 89.958C111.34 89.7838 111.45 89.6339 111.602 89.5408L111.625 89.5274L112.621 88.9639C112.656 88.9442 112.685 88.9154 112.705 88.8805C112.726 88.8456 112.736 88.8059 112.736 88.7655C112.736 88.7251 112.726 88.6854 112.705 88.6506C112.685 88.6157 112.656 88.5869 112.621 88.5671L111.627 88.0033C111.473 87.915 111.359 87.7696 111.31 87.5982C111.262 87.4269 111.281 87.243 111.365 87.086C111.449 86.929 111.591 86.8112 111.76 86.7578C111.929 86.7044 112.113 86.7197 112.271 86.8003L112.294 86.8131L114.134 87.8559C114.202 87.8944 114.278 87.9146 114.356 87.9146C114.434 87.9146 114.511 87.8944 114.578 87.8559L117.736 86.0693C117.771 86.0494 117.8 86.0206 117.82 85.9857C117.84 85.9508 117.851 85.9112 117.851 85.8708C117.851 85.8304 117.84 85.7907 117.82 85.7559C117.8 85.721 117.771 85.6922 117.736 85.6723L116.563 85.0071C116.409 84.9188 116.295 84.7734 116.247 84.602C116.198 84.4306 116.217 84.2468 116.301 84.0898C116.385 83.9327 116.527 83.815 116.696 83.7616C116.865 83.7082 117.049 83.7234 117.207 83.804V83.8037ZM119.249 86.7812L116.091 88.568C116.056 88.5878 116.027 88.6166 116.006 88.6515C115.986 88.6864 115.975 88.7261 115.975 88.7665C115.975 88.8069 115.986 88.8465 116.006 88.8814C116.027 88.9163 116.056 88.9451 116.091 88.9649L119.216 90.7365C119.284 90.775 119.36 90.7952 119.438 90.7952C119.516 90.7952 119.593 90.775 119.661 90.7365L122.816 88.948C122.851 88.9282 122.88 88.8994 122.9 88.8645C122.921 88.8297 122.931 88.79 122.931 88.7496C122.931 88.7093 122.921 88.6696 122.9 88.6348C122.88 88.5999 122.851 88.5711 122.816 88.5512L119.693 86.7812C119.625 86.7427 119.549 86.7226 119.471 86.7226C119.393 86.7226 119.316 86.7427 119.248 86.7812H119.249Z" fill="white"/>
<circle cx="132" cy="25" r="21" fill="url(#paint2_linear_12104_17350)"/>
<path d="M134.481 20.6473H129.443L126.916 25.0152L129.443 29.3528H134.481L137.028 25.0136L134.481 20.6473ZM133.823 28.1893H130.131L128.253 25.0215L130.121 21.8108H133.823L135.689 25.0215L133.823 28.1893Z" fill="white"/>
<path d="M134.481 30.0146H129.443L126.916 34.3785L129.443 38.7201H134.481L137.028 34.3785L134.481 30.0146ZM133.823 37.5544H130.131L128.253 34.3865L130.121 31.174H133.823L135.689 34.3865L133.823 37.5544Z" fill="white"/>
<path d="M134.481 11.28H129.443L126.916 15.6495L129.443 19.9855H134.481L137.028 15.6495L134.481 11.28ZM133.823 18.826H130.131L128.253 15.6495L130.121 12.4411H133.823L135.683 15.6495L133.823 18.826Z" fill="white"/>
<path d="M142.714 25.3311H137.674L135.148 29.6989L137.674 34.0365H142.714L145.26 29.6989L142.714 25.3311ZM142.047 32.8719H138.355L136.487 29.7052L138.355 26.4893H142.047L143.915 29.6989L142.047 32.8719Z" fill="white"/>
<path d="M142.714 15.9637H137.674L135.148 20.3555L137.674 24.7201H142.714L145.26 20.3555L142.714 15.9637ZM142.047 23.5514H138.355L136.487 20.3651L138.355 17.1356H142.047L143.915 20.3651L142.047 23.5514Z" fill="white"/>
<path d="M126.264 25.3311H121.251L118.736 29.6989L121.251 34.0365H126.264L128.797 29.6989L126.264 25.3311ZM125.602 32.8719H121.928L120.07 29.7052L121.928 26.4893H125.602L127.461 29.7052L125.602 32.8719Z" fill="white"/>
<path d="M126.264 15.9637H121.251L118.736 20.3555L121.251 24.7201H126.264L128.797 20.3555L126.264 15.9637ZM125.602 23.5514H121.928L120.07 20.3619L121.928 17.1324H125.602L127.461 20.3619L125.602 23.5514Z" fill="white"/>
<path fill-rule="evenodd" clip-rule="evenodd" d="M111.409 150.304C105.792 147.633 103.419 140.944 106.108 135.365C107.399 132.685 109.708 130.625 112.528 129.637C115.348 128.65 118.448 128.815 121.145 130.098C126.761 132.769 129.134 139.458 126.445 145.038C123.757 150.617 117.025 152.975 111.409 150.304V150.304Z" fill="#D62783"/>
<path fill-rule="evenodd" clip-rule="evenodd" d="M115.964 141.567C115.19 141.567 114.588 140.961 114.588 140.181C114.588 139.401 115.19 138.795 115.964 138.795C116.738 138.795 117.34 139.401 117.34 140.181C117.34 140.961 116.738 141.567 115.964 141.567" fill="white"/>
<path fill-rule="evenodd" clip-rule="evenodd" d="M118.653 140.831C118.309 140.831 118.008 140.549 118.008 140.181C118.008 139.834 118.287 139.531 118.653 139.531C118.997 139.531 119.298 139.813 119.298 140.181C119.298 140.549 118.997 140.831 118.653 140.831V140.831ZM120.975 141.437C120.889 141.783 120.545 141.978 120.201 141.891C119.857 141.805 119.663 141.458 119.749 141.112C119.835 140.766 120.179 140.57 120.523 140.657C120.845 140.743 121.061 141.046 120.996 141.393C120.996 141.393 120.996 141.415 120.975 141.436L120.975 141.437ZM120.523 139.79C120.179 139.877 119.835 139.66 119.749 139.314C119.663 138.967 119.878 138.621 120.222 138.534C120.566 138.447 120.91 138.664 120.996 139.011C121.017 139.097 121.017 139.184 120.996 139.27C120.974 139.509 120.802 139.725 120.523 139.79H120.523ZM122.802 141.35C122.737 141.696 122.414 141.934 122.07 141.87C121.726 141.805 121.49 141.48 121.554 141.133C121.619 140.787 121.941 140.548 122.285 140.613C122.608 140.678 122.845 140.981 122.823 141.306C122.802 141.328 122.802 141.328 122.802 141.35H122.802ZM122.287 139.748C121.943 139.813 121.62 139.575 121.556 139.228C121.491 138.881 121.728 138.557 122.072 138.492C122.416 138.427 122.738 138.665 122.803 139.011C122.803 139.076 122.824 139.12 122.803 139.185C122.781 139.466 122.566 139.704 122.287 139.748ZM121.835 143.581C121.663 143.884 121.276 143.993 120.975 143.819C120.674 143.646 120.566 143.256 120.739 142.953C120.91 142.65 121.298 142.542 121.599 142.715C121.814 142.845 121.943 143.083 121.921 143.321C121.9 143.408 121.878 143.495 121.835 143.581V143.581ZM121.599 137.69C121.298 137.863 120.91 137.755 120.739 137.452C120.567 137.149 120.674 136.759 120.975 136.586C121.276 136.412 121.663 136.521 121.835 136.824C121.9 136.954 121.921 137.062 121.921 137.192C121.9 137.387 121.792 137.582 121.599 137.69" fill="white"/>
<path d="M115.986 146.657C114.265 146.657 112.674 145.985 111.449 144.773C110.266 143.538 109.6 141.913 109.6 140.202C109.6 138.469 110.266 136.867 111.47 135.632C112.674 134.419 114.287 133.748 115.986 133.748C117.405 133.748 118.759 134.203 119.877 135.069L119.082 136.109C118.179 135.416 117.104 135.048 115.986 135.048C114.631 135.048 113.341 135.589 112.374 136.564C111.407 137.539 110.89 138.817 110.89 140.203C110.89 141.567 111.428 142.867 112.396 143.841C113.363 144.816 114.632 145.336 116.008 145.336C117.147 145.336 118.222 144.967 119.104 144.274L119.878 145.314C118.76 146.18 117.405 146.657 115.986 146.657L115.986 146.657Z" fill="white"/>
<path d="M334.024 130C340.606 130.001 346.008 135.41 346 141.991C345.992 148.671 340.611 154.005 333.886 154C327.311 153.995 321.995 148.581 322 141.893C322.004 135.354 327.418 129.999 334.024 130ZM330.385 134.211C330.536 134.96 330.39 135.658 330.166 136.345C330.012 136.821 329.798 137.279 329.671 137.761C329.461 138.555 329.222 139.354 329.135 140.167C329.009 141.335 329.464 142.364 330.244 143.387L326.661 142.627C326.668 142.741 326.661 142.784 326.673 142.821C327.013 143.826 327.61 144.673 328.28 145.472C328.351 145.557 328.512 145.6 328.632 145.6C332.204 145.607 335.776 145.606 339.348 145.602C339.459 145.602 339.607 145.58 339.675 145.508C340.44 144.697 341.026 143.773 341.392 142.609L337.599 143.358C337.85 142.863 338.135 142.429 338.299 141.951C338.861 140.318 338.628 138.739 337.822 137.249C337.175 136.054 336.579 134.864 336.901 133.423C336.218 134.103 335.956 134.969 335.79 135.861C335.626 136.739 335.529 137.631 335.402 138.522C335.384 138.495 335.361 138.475 335.357 138.452C335.342 138.359 335.329 138.265 335.324 138.17C335.246 136.71 334.963 135.303 334.366 133.959C334.015 133.168 333.627 132.36 333.99 131.416C333.744 131.547 333.523 131.676 333.364 131.861C332.89 132.413 332.694 133.076 332.643 133.802C332.6 134.422 332.541 135.045 332.427 135.655C332.307 136.296 332.117 136.924 331.69 137.513C331.517 136.255 331.498 135.011 330.385 134.211ZM339.596 146.703H328.392V148.665H339.596V146.703ZM330.613 149.678C330.604 151.312 332.255 152.529 334.295 152.441C335.986 152.367 337.482 151.027 337.353 149.678H330.613Z" fill="#E75225"/>
<path fill-rule="evenodd" clip-rule="evenodd" d="M332.388 103.56C325.914 100.481 323.178 92.7698 326.277 86.3372C327.766 83.2482 330.428 80.8732 333.679 79.7346C336.93 78.5959 340.503 78.7871 343.612 80.2658C350.086 83.3453 352.822 91.0562 349.723 97.4887C346.623 103.921 338.862 106.64 332.388 103.56V103.56Z" fill="#F49322"/>
<path d="M331.203 87.7791L330.795 87.091L333.201 85.8676L333.609 86.5557L331.203 87.7791ZM335.036 85.8293L334.628 85.1412L336.79 84.0325L337.197 84.7206L335.036 85.8293Z" fill="white"/>
<path d="M337.238 91.3729L335.077 90.3024L335.444 89.6142L337.605 90.6847L337.238 91.3729ZM333.609 89.576L331.447 88.5055L331.814 87.8174L333.976 88.8879L333.609 89.576Z" fill="white"/>
<path d="M338.828 91.2965L338.461 90.6083L340.663 89.6143L341.03 90.3025L338.828 91.2965ZM342.498 89.6143L342.131 88.9261L344.333 87.9321L344.7 88.6203L342.498 89.6143Z" fill="white"/>
<path d="M336.994 100.357L334.547 99.1338L334.914 98.4457L337.361 99.6691L336.994 100.357ZM333.323 98.5986L331.162 97.5281L331.529 96.84L333.69 97.9104L333.323 98.5986Z" fill="white"/>
<path d="M331.122 88.7733H330.307V91.7171H331.122V88.7733Z" fill="white"/>
<path d="M338.298 96.3811H337.482V99.4014H338.298V96.3811Z" fill="white"/>
<path d="M330.712 89.0791C330.427 89.0791 330.141 88.9644 329.938 88.7732C329.734 88.582 329.611 88.3144 329.611 88.0468C329.611 87.7792 329.734 87.5116 329.938 87.3204C330.345 86.9381 331.079 86.9381 331.487 87.3204C331.691 87.5116 331.813 87.7792 331.813 88.0468C331.813 88.3144 331.691 88.582 331.487 88.7732C331.283 88.9644 330.998 89.0791 330.712 89.0791ZM330.712 87.7792C330.631 87.7792 330.549 87.8174 330.508 87.8557C330.468 87.8939 330.427 87.9704 330.427 88.0468C330.427 88.1233 330.468 88.1997 330.508 88.238C330.631 88.3527 330.794 88.3527 330.916 88.238C330.957 88.1997 330.998 88.1233 330.998 88.0468C330.998 87.9704 330.957 87.8939 330.916 87.8557C330.876 87.8174 330.794 87.7792 330.712 87.7792Z" fill="white"/>
<path d="M330.712 97.6428C330.427 97.6428 330.141 97.5281 329.938 97.3369C329.734 97.1458 329.611 96.8782 329.611 96.6105C329.611 96.3429 329.734 96.0753 329.938 95.8841C330.345 95.5018 331.079 95.5018 331.487 95.8841C331.691 96.0753 331.813 96.3429 331.813 96.6105C331.813 96.8782 331.691 97.1458 331.487 97.3369C331.283 97.5281 330.998 97.6428 330.712 97.6428ZM330.712 96.3429C330.631 96.3429 330.549 96.3811 330.508 96.4194C330.468 96.4576 330.427 96.5341 330.427 96.6105C330.427 96.687 330.468 96.7635 330.508 96.8017C330.631 96.9164 330.794 96.9164 330.916 96.8017C330.957 96.7635 330.998 96.687 330.998 96.6105C330.998 96.5341 330.957 96.4576 330.916 96.4194C330.876 96.3811 330.794 96.3429 330.712 96.3429Z" fill="white"/>
<path d="M337.89 101.084C337.605 101.084 337.319 100.969 337.115 100.778C336.911 100.587 336.789 100.319 336.789 100.051C336.789 99.7837 336.911 99.5161 337.115 99.3249C337.564 98.9044 338.257 98.9044 338.665 99.3249C339.114 99.7455 339.114 100.395 338.665 100.778C338.42 100.969 338.176 101.084 337.89 101.084ZM337.89 99.7455C337.809 99.7455 337.727 99.7837 337.686 99.8219C337.564 99.9366 337.564 100.09 337.686 100.204C337.809 100.319 337.972 100.319 338.094 100.204C338.216 100.09 338.216 99.9366 338.094 99.8219C338.012 99.7837 337.931 99.7455 337.89 99.7455Z" fill="white"/>
<path d="M337.89 92.4816C337.605 92.4816 337.319 92.3669 337.115 92.1758C336.911 91.9846 336.789 91.717 336.789 91.4494C336.789 91.1818 336.911 90.9142 337.115 90.723C337.564 90.3025 338.257 90.3025 338.665 90.723C339.114 91.1435 339.114 91.7935 338.665 92.1758C338.42 92.4052 338.176 92.4816 337.89 92.4816ZM337.89 91.1818C337.809 91.1818 337.727 91.22 337.686 91.2582C337.564 91.3729 337.564 91.5259 337.686 91.6405C337.809 91.7552 337.972 91.7552 338.094 91.6405C338.216 91.5259 338.216 91.3729 338.094 91.2582C338.012 91.22 337.931 91.1818 337.89 91.1818Z" fill="white"/>
<path d="M344.947 97.6428C344.662 97.6428 344.376 97.5281 344.172 97.3369C343.724 96.9164 343.724 96.2665 344.172 95.8841C344.58 95.5018 345.314 95.5018 345.722 95.8841C345.926 96.0753 346.048 96.3429 346.048 96.6105C346.048 96.8782 345.926 97.1458 345.722 97.3369C345.518 97.5281 345.233 97.6428 344.947 97.6428ZM344.947 96.3429C344.866 96.3429 344.784 96.3811 344.743 96.4194C344.621 96.5341 344.621 96.687 344.743 96.8017C344.866 96.9164 345.029 96.9164 345.151 96.8017C345.273 96.687 345.273 96.5341 345.151 96.4194C345.11 96.3811 345.029 96.3429 344.947 96.3429Z" fill="white"/>
<path d="M344.947 89.0791C344.662 89.0791 344.376 88.9644 344.172 88.7732C343.724 88.3527 343.724 87.7027 344.172 87.3204C344.58 86.9381 345.314 86.9381 345.722 87.3204C346.171 87.741 346.171 88.3909 345.722 88.7732C345.518 88.9644 345.233 89.0791 344.947 89.0791ZM344.947 87.7792C344.866 87.7792 344.784 87.8174 344.743 87.8557C344.621 87.9704 344.621 88.1233 344.743 88.238C344.866 88.3527 345.029 88.3527 345.151 88.238C345.273 88.1233 345.273 87.9704 345.151 87.8557C345.11 87.8174 345.029 87.7792 344.947 87.7792Z" fill="white"/>
<path d="M337.89 85.1795C337.605 85.1795 337.319 85.0648 337.115 84.8737C336.911 84.6825 336.789 84.4149 336.789 84.1473C336.789 83.8796 336.911 83.612 337.115 83.4209C337.564 83.0003 338.257 83.0003 338.665 83.4209C339.114 83.8414 339.114 84.4913 338.665 84.8737C338.42 85.0648 338.176 85.1795 337.89 85.1795ZM337.89 83.8796C337.809 83.8796 337.727 83.9179 337.686 83.9561C337.564 84.0708 337.564 84.2237 337.686 84.3384C337.809 84.4531 337.972 84.4531 338.094 84.3384C338.216 84.2237 338.216 84.0708 338.094 83.9561C338.012 83.8796 337.931 83.8796 337.89 83.8796Z" fill="white"/>
<path d="M331.122 92.4816H330.307V95.7694H331.122V92.4816Z" fill="white"/>
<path d="M345.316 88.7732H344.5V91.717H345.316V88.7732Z" fill="white"/>
<path d="M345.316 92.4816H344.5V95.7694H345.316V92.4816Z" fill="white"/>
<path d="M342.175 86.5174L342.582 85.8292L344.907 87.0144L344.499 87.7025L342.175 86.5174ZM338.26 84.5293L338.668 83.8412L341.155 85.1028L340.747 85.791L338.26 84.5293Z" fill="white"/>
<path d="M338.3 92.1757H337.484V95.1959H338.3V92.1757Z" fill="white"/>
<path d="M338.422 99.7072L340.787 98.5602L341.154 99.2484L338.789 100.395L338.422 99.7072ZM341.97 97.9868L344.294 96.8398L344.661 97.528L342.337 98.6749L341.97 97.9868Z" fill="white"/>
<defs>
<linearGradient id="paint0_linear_12104_17350" x1="224.905" y1="85.7438" x2="224.905" y2="205.368" gradientUnits="userSpaceOnUse">
<stop stop-color="#00B39F"/>
<stop offset="1"/>
</linearGradient>
<linearGradient id="paint1_linear_12104_17350" x1="173.712" y1="58" x2="173.712" y2="83.4231" gradientUnits="userSpaceOnUse">
<stop stop-color="#2BEDA7"/>
<stop offset="0.789609" stop-color="#0DA6E5"/>
<stop offset="0.9999" stop-color="#0593F5"/>
<stop offset="1" stop-color="#018AFD"/>
</linearGradient>
<linearGradient id="paint2_linear_12104_17350" x1="132" y1="4" x2="132" y2="46" gradientUnits="userSpaceOnUse">
<stop stop-color="#795AA5"/>
<stop offset="1" stop-color="#6B91C7"/>
</linearGradient>
<clipPath id="clip0_12104_17350">
<rect width="15.779" height="15.779" fill="white" transform="translate(165.852 62.8505)"/>
</clipPath>
</defs>
</svg>
