<svg width="441" height="324" viewBox="0 0 441 324" fill="none" xmlns="http://www.w3.org/2000/svg">
<path d="M43.3445 301.5V314.5C43.3445 314.82 43.5245 315 43.8445 315H46.0445C46.3645 315 46.5445 314.82 46.5445 314.5V301.5C46.5445 301.18 46.3645 301 46.0445 301H43.8445C43.5245 301 43.3445 301.18 43.3445 301.5ZM54.45 304.72C53.17 304.72 52.31 305.22 51.85 305.92V305.5C51.85 305.18 51.67 305 51.35 305H49.35C49.03 305 48.85 305.18 48.85 305.5V314.5C48.85 314.82 49.03 315 49.35 315H51.35C51.67 315 51.85 314.82 51.85 314.5V309.16C51.85 307.98 52.41 307.48 53.31 307.48C54.07 307.48 54.65 307.92 54.65 308.92V314.5C54.65 314.82 54.83 315 55.15 315H57.15C57.47 315 57.65 314.82 57.65 314.5V308.66C57.65 306.16 56.31 304.72 54.45 304.72ZM64.4922 305H63.3922V302.3C63.3922 301.98 63.2122 301.8 62.8922 301.8H60.8922C60.5722 301.8 60.3922 301.98 60.3922 302.3V305H59.2922C58.9722 305 58.7922 305.18 58.7922 305.5V307.38C58.7922 307.7 58.9722 307.88 59.2922 307.88H60.3922V314.5C60.3922 314.82 60.5722 315 60.8922 315H62.8922C63.2122 315 63.3922 314.82 63.3922 314.5V307.88H64.4922C64.8122 307.88 64.9922 307.7 64.9922 307.38V305.5C64.9922 305.18 64.8122 305 64.4922 305ZM71.0538 304.72C67.8938 304.72 65.6938 307.02 65.6938 310C65.6938 312.98 67.8138 315.28 71.1338 315.28C73.1738 315.28 74.8138 314.38 75.5938 312.64C75.7538 312.32 75.5538 312.08 75.1937 312.08L73.2738 312.1C73.0138 312.1 72.8538 312.2 72.6538 312.36C72.2938 312.66 71.7338 312.86 71.1738 312.86C70.1138 312.86 69.1938 312.4 68.8338 311.2H73.0738H75.5138C75.8138 311.2 76.0138 311.06 76.0538 310.74C76.0738 310.5 76.0938 310.26 76.0938 310C76.0938 306.98 73.9738 304.72 71.0538 304.72ZM68.8138 308.92C69.1138 307.94 69.8938 307.38 71.0338 307.38C71.9138 307.38 72.7938 307.8 73.0938 308.92H68.8138ZM87.5163 305H85.5963C85.2763 305 85.0963 305.18 85.0963 305.5V306.02C84.4163 305.22 83.4163 304.72 82.0363 304.72C79.4163 304.72 77.2563 307.02 77.2563 309.8C77.2563 312.58 79.4163 314.88 82.0363 314.88C83.4163 314.88 84.4163 314.4 85.0963 313.6V314.5C85.0963 315.92 84.2163 316.64 82.8763 316.64C81.7763 316.64 81.1163 316.24 80.8963 315.64C80.7963 315.36 80.6563 315.2 80.3563 315.2H78.3363C78.0163 315.2 77.8163 315.38 77.8363 315.72C78.1363 318.12 80.4163 319.28 82.8763 319.28C85.3163 319.28 88.0163 317.86 88.0163 314.5V305.5C88.0163 305.18 87.8363 305 87.5163 305ZM82.6763 312.12C81.2563 312.12 80.2563 311.18 80.2563 309.8C80.2563 308.42 81.2563 307.48 82.6763 307.48C84.0963 307.48 85.0963 308.42 85.0963 309.8C85.0963 311.18 84.0963 312.12 82.6763 312.12ZM95.2972 304.84C94.2972 305 93.4972 305.58 93.2172 306.6V305.5C93.2172 305.18 93.0372 305 92.7172 305H90.7172C90.3972 305 90.2172 305.18 90.2172 305.5V314.5C90.2172 314.82 90.3972 315 90.7172 315H92.7172C93.0372 315 93.2172 314.82 93.2172 314.5V310.28C93.2172 308.68 94.2972 308.12 95.4172 308.16C95.6772 308.16 95.8172 308 95.8172 307.68V305.32C95.8172 305 95.6372 304.78 95.2972 304.84ZM101.056 304.72C99.0164 304.72 97.1764 305.82 96.9164 307.98C96.8964 308.32 97.0964 308.5 97.4164 308.5H99.3764C99.6764 308.5 99.7764 308.34 99.8964 308.06C100.056 307.72 100.436 307.48 101.056 307.48C101.896 307.48 102.296 307.92 102.296 308.9V309.82C101.756 309.4 100.956 309.04 99.7164 309.04C97.9564 309.04 96.4164 310.08 96.4164 312.16C96.4164 314.24 97.9564 315.28 99.7164 315.28C100.956 315.28 101.756 314.86 102.296 314.22V314.5C102.296 314.82 102.476 315 102.796 315H104.716C105.036 315 105.216 314.82 105.216 314.5V308.7C105.216 306 103.256 304.72 101.056 304.72ZM100.776 313.16C99.8564 313.16 99.4164 312.74 99.4164 312.16C99.4164 311.58 99.8564 311.16 100.776 311.16C101.756 311.16 102.296 311.54 102.296 312.16C102.296 312.74 101.756 313.16 100.776 313.16ZM112.051 305H110.951V302.3C110.951 301.98 110.771 301.8 110.451 301.8H108.451C108.131 301.8 107.951 301.98 107.951 302.3V305H106.851C106.531 305 106.351 305.18 106.351 305.5V307.38C106.351 307.7 106.531 307.88 106.851 307.88H107.951V314.5C107.951 314.82 108.131 315 108.451 315H110.451C110.771 315 110.951 314.82 110.951 314.5V307.88H112.051C112.371 307.88 112.551 307.7 112.551 307.38V305.5C112.551 305.18 112.371 305 112.051 305ZM114.448 303.8H116.448C116.768 303.8 116.948 303.62 116.948 303.3V301.5C116.948 301.18 116.768 301 116.448 301H114.448C114.128 301 113.948 301.18 113.948 301.5V303.3C113.948 303.62 114.128 303.8 114.448 303.8ZM114.448 315H116.448C116.768 315 116.948 314.82 116.948 314.5V305.5C116.948 305.18 116.768 305 116.448 305H114.448C114.128 305 113.948 305.18 113.948 305.5V314.5C113.948 314.82 114.128 315 114.448 315ZM123.943 315.28C126.883 315.28 129.243 312.98 129.243 310C129.243 307.02 126.883 304.72 123.943 304.72C121.003 304.72 118.643 307.02 118.643 310C118.643 312.98 121.003 315.28 123.943 315.28ZM123.943 312.36C122.643 312.36 121.643 311.42 121.643 310C121.643 308.58 122.643 307.64 123.943 307.64C125.243 307.64 126.243 308.58 126.243 310C126.243 311.42 125.243 312.36 123.943 312.36ZM136.54 304.72C135.26 304.72 134.4 305.22 133.94 305.92V305.5C133.94 305.18 133.76 305 133.44 305H131.44C131.12 305 130.94 305.18 130.94 305.5V314.5C130.94 314.82 131.12 315 131.44 315H133.44C133.76 315 133.94 314.82 133.94 314.5V309.16C133.94 307.98 134.5 307.48 135.4 307.48C136.16 307.48 136.74 307.92 136.74 308.92V314.5C136.74 314.82 136.92 315 137.24 315H139.24C139.56 315 139.74 314.82 139.74 314.5V308.66C139.74 306.16 138.4 304.72 136.54 304.72ZM159.582 305H157.422C157.122 305 156.942 305.12 156.862 305.42L155.382 310.9L153.702 305.42C153.622 305.14 153.422 305 153.142 305H151.582C151.222 305 151.062 305.22 151.162 305.56L151.782 307.56L150.642 311.22L149.082 305.42C149.002 305.12 148.802 305 148.522 305H146.362C146.002 305 145.842 305.22 145.942 305.56L148.822 314.58C148.902 314.86 149.122 315 149.402 315H150.062H151.322C151.602 315 151.822 314.86 151.902 314.58L152.962 311.26L154.022 314.58C154.102 314.86 154.322 315 154.602 315H154.842H156.522C156.802 315 157.022 314.86 157.102 314.58L159.982 305.56C160.082 305.22 159.922 305 159.562 305H159.582ZM161.987 303.8H163.987C164.307 303.8 164.487 303.62 164.487 303.3V301.5C164.487 301.18 164.307 301 163.987 301H161.987C161.667 301 161.487 301.18 161.487 301.5V303.3C161.487 303.62 161.667 303.8 161.987 303.8ZM161.987 315H163.987C164.307 315 164.487 314.82 164.487 314.5V305.5C164.487 305.18 164.307 305 163.987 305H161.987C161.667 305 161.487 305.18 161.487 305.5V314.5C161.487 314.82 161.667 315 161.987 315ZM171.582 305H170.482V302.3C170.482 301.98 170.302 301.8 169.982 301.8H167.982C167.662 301.8 167.482 301.98 167.482 302.3V305H166.382C166.062 305 165.882 305.18 165.882 305.5V307.38C165.882 307.7 166.062 307.88 166.382 307.88H167.482V314.5C167.482 314.82 167.662 315 167.982 315H169.982C170.302 315 170.482 314.82 170.482 314.5V307.88H171.582C171.902 307.88 172.082 307.7 172.082 307.38V305.5C172.082 305.18 171.902 305 171.582 305ZM179.079 304.72C177.799 304.72 176.939 305.22 176.479 305.92V301.5C176.479 301.18 176.299 301 175.979 301H173.979C173.659 301 173.479 301.18 173.479 301.5V314.5C173.479 314.82 173.659 315 173.979 315H175.979C176.299 315 176.479 314.82 176.479 314.5V309.16C176.479 307.98 177.039 307.48 177.939 307.48C178.699 307.48 179.279 307.92 179.279 308.92V314.5C179.279 314.82 179.459 315 179.779 315H181.779C182.099 315 182.279 314.82 182.279 314.5V308.66C182.279 306.16 180.939 304.72 179.079 304.72ZM193.361 304.72C191.321 304.72 189.481 305.82 189.221 307.98C189.201 308.32 189.401 308.5 189.721 308.5H191.681C191.981 308.5 192.081 308.34 192.201 308.06C192.361 307.72 192.741 307.48 193.361 307.48C194.201 307.48 194.601 307.92 194.601 308.9V309.82C194.061 309.4 193.261 309.04 192.021 309.04C190.261 309.04 188.721 310.08 188.721 312.16C188.721 314.24 190.261 315.28 192.021 315.28C193.261 315.28 194.061 314.86 194.601 314.22V314.5C194.601 314.82 194.781 315 195.101 315H197.021C197.341 315 197.521 314.82 197.521 314.5V308.7C197.521 306 195.561 304.72 193.361 304.72ZM193.081 313.16C192.161 313.16 191.721 312.74 191.721 312.16C191.721 311.58 192.161 311.16 193.081 311.16C194.061 311.16 194.601 311.54 194.601 312.16C194.601 312.74 194.061 313.16 193.081 313.16ZM199.955 315H201.955C202.275 315 202.455 314.82 202.455 314.5V301.1C202.455 300.78 202.275 300.6 201.955 300.6H199.955C199.635 300.6 199.455 300.78 199.455 301.1V314.5C199.455 314.82 199.635 315 199.955 315ZM205.151 315H207.151C207.471 315 207.651 314.82 207.651 314.5V301.1C207.651 300.78 207.471 300.6 207.151 300.6H205.151C204.831 300.6 204.651 300.78 204.651 301.1V314.5C204.651 314.82 204.831 315 205.151 315ZM224.146 311.2H221.946C221.666 311.2 221.506 311.32 221.346 311.56C220.986 312.04 220.366 312.32 219.646 312.32C218.346 312.32 217.346 311.38 217.346 310C217.346 308.62 218.346 307.68 219.646 307.68C220.366 307.68 220.986 307.96 221.346 308.46C221.506 308.68 221.686 308.8 221.946 308.8H224.146C224.486 308.8 224.686 308.58 224.566 308.24C223.946 306.16 221.986 304.72 219.646 304.72C216.606 304.72 214.346 307.02 214.346 310C214.346 312.98 216.606 315.28 219.646 315.28C221.986 315.28 223.946 313.84 224.566 311.76C224.686 311.42 224.486 311.2 224.146 311.2ZM226.616 315H228.616C228.936 315 229.116 314.82 229.116 314.5V301.1C229.116 300.78 228.936 300.6 228.616 300.6H226.616C226.296 300.6 226.116 300.78 226.116 301.1V314.5C226.116 314.82 226.296 315 226.616 315ZM236.111 315.28C239.051 315.28 241.411 312.98 241.411 310C241.411 307.02 239.051 304.72 236.111 304.72C233.171 304.72 230.811 307.02 230.811 310C230.811 312.98 233.171 315.28 236.111 315.28ZM236.111 312.36C234.811 312.36 233.811 311.42 233.811 310C233.811 308.58 234.811 307.64 236.111 307.64C237.411 307.64 238.411 308.58 238.411 310C238.411 311.42 237.411 312.36 236.111 312.36ZM251.148 305H249.148C248.828 305 248.648 305.18 248.648 305.5V310.84C248.648 312.02 248.088 312.52 247.188 312.52C246.428 312.52 245.848 312.08 245.848 311.08V305.5C245.848 305.18 245.668 305 245.348 305H243.348C243.028 305 242.848 305.18 242.848 305.5V311.34C242.848 313.84 244.188 315.28 246.048 315.28C247.308 315.28 248.168 314.8 248.648 314.1V314.5C248.648 314.82 248.828 315 249.148 315H251.148C251.468 315 251.648 314.82 251.648 314.5V305.5C251.648 305.18 251.468 305 251.148 305ZM263.61 301H261.61C261.29 301 261.11 301.18 261.11 301.5V305.94C260.43 305.18 259.45 304.72 258.13 304.72C255.51 304.72 253.35 307.02 253.35 310C253.35 312.98 255.51 315.28 258.13 315.28C259.45 315.28 260.43 314.84 261.11 314.08V314.5C261.11 314.82 261.29 315 261.61 315H263.61C263.93 315 264.11 314.82 264.11 314.5V301.5C264.11 301.18 263.93 301 263.61 301ZM258.73 312.44C257.35 312.44 256.35 311.5 256.35 310C256.35 308.5 257.35 307.56 258.73 307.56C260.11 307.56 261.11 308.5 261.11 310C261.11 311.5 260.11 312.44 258.73 312.44ZM276.911 304.72C275.631 304.72 274.771 305.22 274.311 305.92V305.5C274.311 305.18 274.131 305 273.811 305H271.811C271.491 305 271.311 305.18 271.311 305.5V314.5C271.311 314.82 271.491 315 271.811 315H273.811C274.131 315 274.311 314.82 274.311 314.5V309.16C274.311 307.98 274.871 307.48 275.771 307.48C276.531 307.48 277.111 307.92 277.111 308.92V314.5C277.111 314.82 277.291 315 277.611 315H279.611C279.931 315 280.111 314.82 280.111 314.5V308.66C280.111 306.16 278.771 304.72 276.911 304.72ZM286.193 304.72C284.153 304.72 282.313 305.82 282.053 307.98C282.033 308.32 282.233 308.5 282.553 308.5H284.513C284.813 308.5 284.913 308.34 285.033 308.06C285.193 307.72 285.573 307.48 286.193 307.48C287.033 307.48 287.433 307.92 287.433 308.9V309.82C286.893 309.4 286.093 309.04 284.853 309.04C283.093 309.04 281.553 310.08 281.553 312.16C281.553 314.24 283.093 315.28 284.853 315.28C286.093 315.28 286.893 314.86 287.433 314.22V314.5C287.433 314.82 287.613 315 287.933 315H289.853C290.173 315 290.353 314.82 290.353 314.5V308.7C290.353 306 288.393 304.72 286.193 304.72ZM285.913 313.16C284.993 313.16 284.553 312.74 284.553 312.16C284.553 311.58 284.993 311.16 285.913 311.16C286.893 311.16 287.433 311.54 287.433 312.16C287.433 312.74 286.893 313.16 285.913 313.16ZM297.188 305H296.088V302.3C296.088 301.98 295.908 301.8 295.588 301.8H293.588C293.268 301.8 293.088 301.98 293.088 302.3V305H291.988C291.668 305 291.488 305.18 291.488 305.5V307.38C291.488 307.7 291.668 307.88 291.988 307.88H293.088V314.5C293.088 314.82 293.268 315 293.588 315H295.588C295.908 315 296.088 314.82 296.088 314.5V307.88H297.188C297.508 307.88 297.688 307.7 297.688 307.38V305.5C297.688 305.18 297.508 305 297.188 305ZM299.584 303.8H301.584C301.904 303.8 302.084 303.62 302.084 303.3V301.5C302.084 301.18 301.904 301 301.584 301H299.584C299.264 301 299.084 301.18 299.084 301.5V303.3C299.084 303.62 299.264 303.8 299.584 303.8ZM299.584 315H301.584C301.904 315 302.084 314.82 302.084 314.5V305.5C302.084 305.18 301.904 305 301.584 305H299.584C299.264 305 299.084 305.18 299.084 305.5V314.5C299.084 314.82 299.264 315 299.584 315ZM312.78 305H310.62C310.34 305 310.14 305.14 310.06 305.42L308.28 311.16L306.5 305.42C306.42 305.14 306.22 305 305.94 305H303.8C303.44 305 303.26 305.22 303.38 305.58L306.64 314.6C306.74 314.86 306.92 315 307.2 315H307.68H309.36C309.64 315 309.82 314.86 309.92 314.6L313.18 305.58C313.3 305.22 313.14 305 312.78 305ZM319.042 304.72C315.882 304.72 313.682 307.02 313.682 310C313.682 312.98 315.802 315.28 319.122 315.28C321.162 315.28 322.802 314.38 323.582 312.64C323.742 312.32 323.542 312.08 323.182 312.08L321.262 312.1C321.002 312.1 320.842 312.2 320.642 312.36C320.282 312.66 319.722 312.86 319.162 312.86C318.102 312.86 317.182 312.4 316.822 311.2H321.062H323.502C323.802 311.2 324.002 311.06 324.042 310.74C324.062 310.5 324.082 310.26 324.082 310C324.082 306.98 321.962 304.72 319.042 304.72ZM316.802 308.92C317.102 307.94 317.882 307.38 319.022 307.38C319.902 307.38 320.782 307.8 321.082 308.92H316.802ZM334.885 304.72C332.845 304.72 331.005 305.82 330.745 307.98C330.725 308.32 330.925 308.5 331.245 308.5H333.205C333.505 308.5 333.605 308.34 333.725 308.06C333.885 307.72 334.265 307.48 334.885 307.48C335.725 307.48 336.125 307.92 336.125 308.9V309.82C335.585 309.4 334.785 309.04 333.545 309.04C331.785 309.04 330.245 310.08 330.245 312.16C330.245 314.24 331.785 315.28 333.545 315.28C334.785 315.28 335.585 314.86 336.125 314.22V314.5C336.125 314.82 336.305 315 336.625 315H338.545C338.865 315 339.045 314.82 339.045 314.5V308.7C339.045 306 337.085 304.72 334.885 304.72ZM334.605 313.16C333.685 313.16 333.245 312.74 333.245 312.16C333.245 311.58 333.685 311.16 334.605 311.16C335.585 311.16 336.125 311.54 336.125 312.16C336.125 312.74 335.585 313.16 334.605 313.16ZM346.959 304.72C345.619 304.72 344.639 305.18 343.979 305.94V305.5C343.979 305.18 343.799 305 343.479 305H341.479C341.159 305 340.979 305.18 340.979 305.5V318.5C340.979 318.82 341.159 319 341.479 319H343.479C343.799 319 343.979 318.82 343.979 318.5V314.08C344.639 314.84 345.619 315.28 346.959 315.28C349.579 315.28 351.739 312.98 351.739 310C351.739 307.02 349.579 304.72 346.959 304.72ZM346.359 312.44C344.979 312.44 343.979 311.5 343.979 310C343.979 308.5 344.979 307.56 346.359 307.56C347.739 307.56 348.739 308.5 348.739 310C348.739 311.5 347.739 312.44 346.359 312.44ZM359.42 304.72C358.08 304.72 357.1 305.18 356.44 305.94V305.5C356.44 305.18 356.26 305 355.94 305H353.94C353.62 305 353.44 305.18 353.44 305.5V318.5C353.44 318.82 353.62 319 353.94 319H355.94C356.26 319 356.44 318.82 356.44 318.5V314.08C357.1 314.84 358.08 315.28 359.42 315.28C362.04 315.28 364.2 312.98 364.2 310C364.2 307.02 362.04 304.72 359.42 304.72ZM358.82 312.44C357.44 312.44 356.44 311.5 356.44 310C356.44 308.5 357.44 307.56 358.82 307.56C360.2 307.56 361.2 308.5 361.2 310C361.2 311.5 360.2 312.44 358.82 312.44ZM366.401 315H368.401C368.721 315 368.901 314.82 368.901 314.5V301.1C368.901 300.78 368.721 300.6 368.401 300.6H366.401C366.081 300.6 365.901 300.78 365.901 301.1V314.5C365.901 314.82 366.081 315 366.401 315ZM371.596 303.8H373.596C373.916 303.8 374.096 303.62 374.096 303.3V301.5C374.096 301.18 373.916 301 373.596 301H371.596C371.276 301 371.096 301.18 371.096 301.5V303.3C371.096 303.62 371.276 303.8 371.596 303.8ZM371.596 315H373.596C373.916 315 374.096 314.82 374.096 314.5V305.5C374.096 305.18 373.916 305 373.596 305H371.596C371.276 305 371.096 305.18 371.096 305.5V314.5C371.096 314.82 371.276 315 371.596 315ZM385.591 311.2H383.391C383.111 311.2 382.951 311.32 382.791 311.56C382.431 312.04 381.811 312.32 381.091 312.32C379.791 312.32 378.791 311.38 378.791 310C378.791 308.62 379.791 307.68 381.091 307.68C381.811 307.68 382.431 307.96 382.791 308.46C382.951 308.68 383.131 308.8 383.391 308.8H385.591C385.931 308.8 386.131 308.58 386.011 308.24C385.391 306.16 383.431 304.72 381.091 304.72C378.051 304.72 375.791 307.02 375.791 310C375.791 312.98 378.051 315.28 381.091 315.28C383.431 315.28 385.391 313.84 386.011 311.76C386.131 311.42 385.931 311.2 385.591 311.2ZM391.603 304.72C389.563 304.72 387.723 305.82 387.463 307.98C387.443 308.32 387.643 308.5 387.963 308.5H389.923C390.223 308.5 390.323 308.34 390.443 308.06C390.603 307.72 390.983 307.48 391.603 307.48C392.443 307.48 392.843 307.92 392.843 308.9V309.82C392.303 309.4 391.503 309.04 390.263 309.04C388.503 309.04 386.963 310.08 386.963 312.16C386.963 314.24 388.503 315.28 390.263 315.28C391.503 315.28 392.303 314.86 392.843 314.22V314.5C392.843 314.82 393.023 315 393.343 315H395.263C395.583 315 395.763 314.82 395.763 314.5V308.7C395.763 306 393.803 304.72 391.603 304.72ZM391.323 313.16C390.403 313.16 389.963 312.74 389.963 312.16C389.963 311.58 390.403 311.16 391.323 311.16C392.303 311.16 392.843 311.54 392.843 312.16C392.843 312.74 392.303 313.16 391.323 313.16ZM402.598 305H401.498V302.3C401.498 301.98 401.318 301.8 400.998 301.8H398.998C398.678 301.8 398.498 301.98 398.498 302.3V305H397.398C397.078 305 396.898 305.18 396.898 305.5V307.38C396.898 307.7 397.078 307.88 397.398 307.88H398.498V314.5C398.498 314.82 398.678 315 398.998 315H400.998C401.318 315 401.498 314.82 401.498 314.5V307.88H402.598C402.918 307.88 403.098 307.7 403.098 307.38V305.5C403.098 305.18 402.918 305 402.598 305ZM404.995 303.8H406.995C407.315 303.8 407.495 303.62 407.495 303.3V301.5C407.495 301.18 407.315 301 406.995 301H404.995C404.675 301 404.495 301.18 404.495 301.5V303.3C404.495 303.62 404.675 303.8 404.995 303.8ZM404.995 315H406.995C407.315 315 407.495 314.82 407.495 314.5V305.5C407.495 305.18 407.315 305 406.995 305H404.995C404.675 305 404.495 305.18 404.495 305.5V314.5C404.495 314.82 404.675 315 404.995 315ZM414.49 315.28C417.43 315.28 419.79 312.98 419.79 310C419.79 307.02 417.43 304.72 414.49 304.72C411.55 304.72 409.19 307.02 409.19 310C409.19 312.98 411.55 315.28 414.49 315.28ZM414.49 312.36C413.19 312.36 412.19 311.42 412.19 310C412.19 308.58 413.19 307.64 414.49 307.64C415.79 307.64 416.79 308.58 416.79 310C416.79 311.42 415.79 312.36 414.49 312.36ZM427.087 304.72C425.807 304.72 424.947 305.22 424.487 305.92V305.5C424.487 305.18 424.307 305 423.987 305H421.987C421.667 305 421.487 305.18 421.487 305.5V314.5C421.487 314.82 421.667 315 421.987 315H423.987C424.307 315 424.487 314.82 424.487 314.5V309.16C424.487 307.98 425.047 307.48 425.947 307.48C426.707 307.48 427.287 307.92 427.287 308.92V314.5C427.287 314.82 427.467 315 427.787 315H429.787C430.107 315 430.287 314.82 430.287 314.5V308.66C430.287 306.16 428.947 304.72 427.087 304.72ZM434.929 308C434.929 307.6 435.249 307.32 435.989 307.32C436.449 307.32 436.789 307.52 436.929 307.84C437.069 308.12 437.169 308.28 437.469 308.28H439.429C439.749 308.28 439.949 308.1 439.909 307.76C439.669 305.64 437.849 304.72 435.989 304.72C433.889 304.72 431.929 305.74 431.929 308C431.929 311.88 437.149 310.56 437.149 312C437.149 312.4 436.829 312.68 435.989 312.68C435.389 312.68 435.009 312.48 434.849 312.14C434.709 311.88 434.609 311.72 434.309 311.72H432.349C432.029 311.72 431.829 311.9 431.869 312.24C432.109 314.36 433.949 315.28 435.989 315.28C438.189 315.28 440.149 314.3 440.149 312C440.149 308.1 434.929 309.48 434.929 308Z" fill="#3C494E"/>
<circle cx="230.905" cy="191.372" r="95.1281" stroke="url(#paint0_linear_12198_16775)"/>
<path d="M256.256 153.667H236.076V163.388H256.256V153.667Z" fill="#00B39F"/>
<path d="M258.093 186.416V182.388C258.093 177.749 254.191 173.989 249.382 173.989H216.814V171.339H204.891V182.815H246.169V186.416H258.093Z" fill="#00B39F"/>
<path d="M216.814 168.164V163.388H232.781V153.667H204.891V168.164H216.814Z" fill="#00D3A9"/>
<path d="M246.168 189.542V195.214H230.201V204.935H249.873C252.009 204.969 254.071 204.154 255.608 202.67C257.144 201.186 258.03 199.153 258.07 197.017V189.542H246.168Z" fill="#00D3A9"/>
<path d="M215.857 190.066V195.214H226.906V204.935H212.699C210.563 204.968 208.5 204.154 206.964 202.67C205.428 201.186 204.542 199.153 204.502 197.017V190.066H215.857Z" fill="#00B39F"/>
<path fill-rule="evenodd" clip-rule="evenodd" d="M324.809 124.477C317.089 120.781 313.827 111.527 317.523 103.806C319.297 100.099 322.472 97.2482 326.348 95.8816C330.224 94.5151 334.484 94.7444 338.191 96.5193C345.911 100.215 349.173 109.47 345.477 117.19C341.782 124.911 332.528 128.173 324.809 124.477Z" fill="#290B53"/>
<path d="M325.774 103.097C324.845 103.296 324.243 103.956 324.089 104.936C323.974 105.692 324.198 106.301 324.986 107.332L325.358 107.819L325.242 108.165C324.352 110.766 324.281 111.01 324.281 111.343C324.281 112.093 324.646 112.99 325.364 113.989C325.832 114.649 326.44 115.284 328.286 117.039C329.061 117.776 330.15 118.82 330.708 119.359C331.265 119.89 331.746 120.333 331.778 120.333C331.81 120.333 332.335 119.865 332.944 119.295C333.552 118.724 334.2 118.128 334.373 117.968C337.48 115.136 338.358 114.182 338.941 113.003C339.249 112.388 339.332 112.061 339.338 111.49C339.338 111.132 339.268 110.869 338.819 109.6C338.531 108.787 338.255 107.979 338.204 107.793L338.108 107.467L338.396 107.057C339.043 106.14 339.216 105.602 339.088 104.904C338.986 104.346 338.813 103.994 338.467 103.642C338.05 103.232 337.608 103.078 336.807 103.071C336.058 103.065 335.66 103.18 335.206 103.526L334.911 103.751L334.097 103.558C333.123 103.321 332.963 103.296 332.873 103.353C332.822 103.379 332.886 103.725 333.059 104.417C333.495 106.115 334.071 108.351 334.212 108.864C334.449 109.735 334.482 109.972 334.456 110.44C334.405 111.26 333.924 111.971 333.2 112.311C332.867 112.471 332.758 112.484 331.874 112.503C331.015 112.522 330.868 112.509 330.547 112.388C329.638 112.048 329.003 111.016 329.106 110.049C329.131 109.773 329.823 106.948 330.579 104.013C330.663 103.686 330.72 103.405 330.701 103.385C330.592 103.276 329.676 103.424 328.689 103.712L328.324 103.821L328.081 103.61C327.683 103.257 327.261 103.103 326.613 103.065C326.299 103.052 325.921 103.065 325.774 103.097Z" fill="white"/>
<path d="M330.83 108.223C330.754 108.255 330.67 108.332 330.645 108.383C330.587 108.537 330.798 110.267 330.888 110.376C330.946 110.446 331.151 110.465 331.785 110.465C332.567 110.465 332.612 110.459 332.701 110.318C332.797 110.164 332.958 108.556 332.887 108.383C332.868 108.325 332.778 108.248 332.695 108.216C332.496 108.139 331.023 108.146 330.83 108.223Z" fill="white"/>
<path fill-rule="evenodd" clip-rule="evenodd" d="M243.104 44.7719C236.878 41.7913 234.248 34.3278 237.228 28.1017C238.659 25.1119 241.219 22.813 244.345 21.711C247.471 20.6089 250.907 20.7939 253.896 22.2252C260.122 25.2058 262.752 32.6693 259.772 38.8954C256.792 45.1215 249.329 47.7525 243.104 44.7719Z" fill="#466BB0"/>
<path d="M244.377 38.1301H253.127L247.658 39.6458L244.377 38.1301Z" fill="white"/>
<path d="M244.377 37.6249L247.658 37.1197V31.5624L244.377 37.6249Z" fill="white"/>
<path d="M248.205 37.1197L253.127 37.6249L248.205 27.5208V37.1197Z" fill="white"/>
<path fill-rule="evenodd" clip-rule="evenodd" d="M333.503 76.8385C322.546 71.5927 317.916 58.457 323.161 47.4991C325.68 42.2369 330.186 38.191 335.687 36.2513C341.189 34.3117 347.236 34.6373 352.497 37.1564C363.454 42.4022 368.084 55.5379 362.839 66.4958C357.594 77.4538 344.459 82.0843 333.503 76.8385Z" fill="#009639"/>
<path d="M348.749 54.3103L344.989 56.1932C345.086 56.4073 345.126 56.6509 345.118 56.8946C345.11 57.1235 345.054 57.345 344.957 57.5444L348.507 59.5232C348.829 59.154 349.304 58.9104 349.827 58.8734L349.989 55.0191C349.948 55.0118 349.916 55.0044 349.876 54.997C349.401 54.8936 349.014 54.6426 348.749 54.3103Z" fill="white"/>
<path d="M355.134 49.7102L343.88 43.7515C343.421 43.5005 342.849 43.5005 342.382 43.7515L331.136 49.7102C330.669 49.9538 330.387 50.4042 330.387 50.899V62.8163C330.379 63.0599 330.452 63.2962 330.581 63.503C330.709 63.7097 330.903 63.8869 331.128 64.005L342.382 69.9637C342.841 70.2148 343.413 70.2148 343.88 69.9637L355.134 64.005C355.601 63.7614 355.883 63.311 355.883 62.8163V50.899C355.883 50.4116 355.601 49.9538 355.134 49.7102ZM350.449 58.7921C351.487 58.9472 352.196 59.848 352.027 60.8005C351.858 61.753 350.875 62.4028 349.837 62.2477C348.798 62.0927 348.09 61.1919 348.259 60.2394C348.283 60.1064 348.324 59.9883 348.372 59.8702L344.749 58.0095C344.403 58.4451 343.839 58.7257 343.212 58.7257C342.584 58.7257 342.02 58.4451 341.674 58.0169L338.051 59.8702C338.14 60.0695 338.188 60.291 338.188 60.5199C338.188 60.771 338.132 61.0073 338.027 61.2214L341.714 63.2371C342.06 62.831 342.608 62.5726 343.212 62.5726C344.266 62.5726 345.119 63.3553 345.119 64.3225C345.119 65.2898 344.266 66.0725 343.212 66.0725C342.157 66.0725 341.304 65.2898 341.304 64.3225C341.304 64.0715 341.36 63.8352 341.465 63.6211L337.778 61.6053C337.431 62.0114 336.892 62.2699 336.28 62.2699C335.226 62.2699 334.372 61.4872 334.372 60.5199C334.372 59.5527 335.226 58.77 336.28 58.77C336.908 58.77 337.472 59.0506 337.818 59.4788L341.44 57.6181C341.352 57.4188 341.304 57.1973 341.304 56.9684C341.304 56.0749 342.028 55.344 342.97 55.2332V51.1205C342.455 51.0614 342.004 50.8103 341.698 50.4485L337.866 52.5012C337.963 52.708 338.019 52.9442 338.019 53.1805C338.019 54.1478 337.166 54.9305 336.111 54.9305C335.057 54.9305 334.203 54.1478 334.203 53.1805C334.203 52.2133 335.057 51.4306 336.111 51.4306C336.731 51.4306 337.278 51.6964 337.625 52.1173L341.457 50.0646C341.36 49.8579 341.304 49.6216 341.304 49.3853C341.304 48.418 342.157 47.6354 343.212 47.6354C344.266 47.6354 345.119 48.418 345.119 49.3853C345.119 50.2787 344.395 51.0097 343.453 51.1205V55.2332C343.96 55.2923 344.411 55.5359 344.709 55.883L348.396 53.8746C348.251 53.5645 348.203 53.2101 348.275 52.8483C348.476 51.8958 349.475 51.2755 350.513 51.4601C351.552 51.6447 352.228 52.5603 352.027 53.5128C351.866 54.2733 351.189 54.8271 350.392 54.9157V58.7774C350.409 58.7848 350.433 58.7921 350.449 58.7921Z" fill="white"/>
<path fill-rule="evenodd" clip-rule="evenodd" d="M209.661 86.3298C201.195 82.2762 197.617 72.1259 201.67 63.6584C203.616 59.5921 207.098 56.4657 211.349 54.9669C215.601 53.4681 220.273 53.7197 224.339 55.6663C232.805 59.7199 236.383 69.8702 232.33 78.3377C228.277 86.8052 218.128 90.3834 209.661 86.3298Z" fill="#326CE5"/>
<path d="M216.84 60.5751C216.649 60.5847 216.462 60.632 216.29 60.7143L208.785 64.3001C208.591 64.3929 208.42 64.5279 208.286 64.695C208.151 64.8622 208.057 65.0573 208.009 65.2657L206.157 73.3205C206.114 73.5061 206.11 73.6983 206.143 73.8857C206.177 74.0732 206.248 74.2521 206.352 74.4118C206.377 74.4509 206.405 74.4887 206.434 74.5251L211.628 80.9837C211.763 81.1508 211.933 81.2857 212.127 81.3784C212.322 81.4712 212.535 81.5193 212.75 81.5193L221.08 81.5173C221.296 81.5175 221.509 81.4695 221.703 81.377C221.897 81.2844 222.068 81.1497 222.202 80.9827L227.395 74.5231C227.53 74.3559 227.624 74.1608 227.672 73.9523C227.72 73.7437 227.72 73.5271 227.672 73.3186L225.818 65.2638C225.77 65.0553 225.675 64.8603 225.541 64.6931C225.406 64.526 225.236 64.391 225.042 64.2982L217.536 60.7143C217.319 60.6108 217.08 60.563 216.84 60.5751Z" fill="white"/>
<path d="M216.914 63.3162C216.666 63.3162 216.465 63.5396 216.465 63.8153C216.465 63.8195 216.466 63.8235 216.466 63.8277C216.466 63.8652 216.464 63.9103 216.465 63.9429C216.471 64.1019 216.506 64.2236 216.527 64.37C216.564 64.6835 216.596 64.9434 216.577 65.1849C216.558 65.276 216.49 65.3593 216.431 65.4172L216.42 65.6072C216.15 65.6296 215.879 65.6705 215.608 65.732C214.442 65.9968 213.437 66.5976 212.673 67.4088C212.623 67.375 212.537 67.3127 212.511 67.2936C212.431 67.3045 212.349 67.3292 212.244 67.2677C212.043 67.1324 211.86 66.9456 211.638 66.7206C211.537 66.613 211.463 66.5105 211.343 66.4068C211.315 66.3832 211.273 66.3513 211.243 66.3271C211.149 66.2519 211.037 66.2127 210.93 66.2091C210.792 66.2043 210.659 66.2583 210.572 66.3674C210.417 66.5614 210.467 66.8579 210.682 67.0297C210.684 67.0314 210.687 67.0328 210.689 67.0345C210.719 67.0585 210.755 67.0893 210.782 67.1094C210.91 67.2039 211.027 67.2522 211.155 67.3272C211.423 67.4931 211.646 67.6307 211.823 67.7966C211.892 67.8701 211.904 67.9997 211.913 68.0557L212.057 68.1844C211.286 69.3442 210.929 70.7769 211.14 72.2367L210.952 72.2914C210.902 72.3554 210.832 72.4562 210.759 72.4863C210.528 72.5591 210.268 72.5858 209.954 72.6187C209.806 72.631 209.679 72.6237 209.523 72.6533C209.488 72.6598 209.44 72.6723 209.403 72.6811C209.402 72.6814 209.4 72.6818 209.399 72.6821C209.397 72.6825 209.394 72.6835 209.392 72.684C209.128 72.7479 208.957 72.9913 209.012 73.2311C209.067 73.4709 209.326 73.6167 209.592 73.5593C209.594 73.5589 209.597 73.5588 209.599 73.5584C209.602 73.5577 209.604 73.5562 209.607 73.5555C209.644 73.5473 209.691 73.5383 209.723 73.5296C209.877 73.4884 209.988 73.428 210.127 73.375C210.424 73.2684 210.67 73.1794 210.91 73.1447C211.01 73.1368 211.115 73.2065 211.168 73.2359L211.364 73.2023C211.814 74.5992 212.759 75.7284 213.954 76.4369L213.873 76.6327C213.902 76.7087 213.935 76.8116 213.913 76.8866C213.825 77.1127 213.676 77.3514 213.506 77.6174C213.424 77.7404 213.339 77.8357 213.265 77.9764C213.247 78.0101 213.225 78.0618 213.208 78.0973C213.092 78.3444 213.177 78.6289 213.399 78.7356C213.622 78.8431 213.899 78.7297 214.019 78.4822C214.019 78.4819 214.019 78.4816 214.02 78.4813C214.02 78.481 214.019 78.4806 214.02 78.4803C214.037 78.4452 214.061 78.3991 214.075 78.3661C214.139 78.2203 214.16 78.0953 214.205 77.9543C214.324 77.6558 214.389 77.3425 214.553 77.1473C214.597 77.0939 214.67 77.0733 214.746 77.0531L214.848 76.8688C215.89 77.2689 217.057 77.3763 218.223 77.1116C218.488 77.0512 218.745 76.9731 218.993 76.8793C219.022 76.9301 219.075 77.0276 219.089 77.0521C219.166 77.0771 219.25 77.0901 219.319 77.1913C219.441 77.4004 219.525 77.6478 219.627 77.9467C219.672 78.0877 219.694 78.2126 219.757 78.3584C219.772 78.3916 219.796 78.4384 219.813 78.4736C219.933 78.7219 220.211 78.8356 220.434 78.7279C220.656 78.6211 220.741 78.3367 220.625 78.0897C220.608 78.0541 220.584 78.0024 220.566 77.9687C220.492 77.8281 220.408 77.7336 220.326 77.6107C220.155 77.3447 220.014 77.1237 219.927 76.8976C219.891 76.781 219.933 76.7084 219.962 76.6327C219.945 76.6132 219.908 76.503 219.887 76.4513C221.13 75.7176 222.046 74.5463 222.477 73.1936C222.535 73.2028 222.636 73.2207 222.668 73.2272C222.736 73.1827 222.798 73.1245 222.92 73.1341C223.16 73.1688 223.406 73.2579 223.703 73.3645C223.841 73.4174 223.953 73.4788 224.106 73.52C224.139 73.5287 224.185 73.5368 224.222 73.5449C224.225 73.5457 224.228 73.5471 224.231 73.5478C224.233 73.5483 224.236 73.5483 224.238 73.5488C224.504 73.6061 224.763 73.4604 224.818 73.2205C224.872 72.9807 224.702 72.7373 224.437 72.6734C224.399 72.6647 224.344 72.6498 224.307 72.6427C224.151 72.6131 224.023 72.6204 223.876 72.6082C223.562 72.5752 223.302 72.5485 223.071 72.4757C222.976 72.4391 222.909 72.327 222.877 72.2809L222.695 72.2281C222.789 71.5476 222.764 70.8394 222.601 70.1309C222.437 69.4157 222.147 68.7616 221.76 68.1853C221.806 68.143 221.894 68.0652 221.919 68.0423C221.926 67.9617 221.92 67.8772 222.003 67.788C222.18 67.6221 222.403 67.4845 222.671 67.3186C222.799 67.2436 222.917 67.1952 223.045 67.1007C223.074 67.0794 223.113 67.0455 223.144 67.0211C223.359 66.8492 223.409 66.5527 223.254 66.3588C223.099 66.1649 222.799 66.1466 222.584 66.3185C222.553 66.3428 222.512 66.3744 222.484 66.3981C222.364 66.5019 222.289 66.6044 222.188 66.712C221.966 66.937 221.783 67.1247 221.582 67.2601C221.495 67.3108 221.367 67.2932 221.309 67.2898L221.139 67.4117C220.164 66.3901 218.838 65.737 217.41 65.6101C217.406 65.5503 217.4 65.4421 217.399 65.4095C217.341 65.3536 217.27 65.3058 217.252 65.1849C217.233 64.9434 217.265 64.6835 217.303 64.37C217.324 64.2236 217.359 64.1019 217.365 63.9429C217.366 63.9068 217.364 63.8543 217.364 63.8153C217.364 63.5396 217.162 63.3161 216.914 63.3162H216.914ZM216.352 66.8003L216.219 69.1566L216.209 69.1614C216.2 69.3722 216.026 69.5406 215.813 69.5406C215.726 69.5406 215.646 69.5126 215.58 69.4647L215.576 69.4667L213.644 68.097C214.238 67.5131 214.998 67.0816 215.873 66.8828C216.033 66.8465 216.193 66.8196 216.352 66.8003ZM217.478 66.8003C218.5 66.926 219.445 67.3887 220.169 68.098L218.249 69.459L218.243 69.4561C218.072 69.5806 217.832 69.5497 217.7 69.3832C217.645 69.315 217.617 69.2347 217.613 69.1538L217.611 69.1528L217.478 66.8003ZM212.944 68.9772L214.708 70.5551L214.706 70.5647C214.865 70.7031 214.889 70.9433 214.756 71.1099C214.701 71.1781 214.629 71.2238 214.55 71.2452L214.548 71.2529L212.287 71.9056C212.172 70.8531 212.42 69.8301 212.944 68.9772ZM220.873 68.9781C221.135 69.403 221.333 69.8775 221.451 70.3919C221.568 70.9002 221.597 71.4076 221.549 71.8979L219.276 71.2433L219.275 71.2337C219.071 71.1781 218.946 70.971 218.993 70.7634C219.013 70.6783 219.058 70.6063 219.119 70.5532L219.118 70.5484L220.873 68.9781H220.873ZM216.553 70.677H217.275L217.724 71.2385L217.563 71.9392L216.914 72.2511L216.264 71.9382L216.102 71.2375L216.553 70.677ZM218.87 72.5985C218.9 72.597 218.931 72.5998 218.961 72.6053L218.965 72.6005L221.304 72.9959C220.961 73.9577 220.306 74.7909 219.431 75.3484L218.523 73.1552L218.526 73.1514C218.443 72.9576 218.526 72.7303 218.718 72.6379C218.767 72.6142 218.818 72.6011 218.87 72.5985H218.87ZM214.941 72.6081C215.119 72.6107 215.28 72.7345 215.321 72.9162C215.34 73.0013 215.331 73.0856 215.299 73.16L215.306 73.1687L214.407 75.3398C213.567 74.8008 212.898 73.9938 212.54 73.0036L214.859 72.6101L214.863 72.6149C214.889 72.6101 214.915 72.6078 214.941 72.6081V72.6081ZM216.9 73.5593C216.962 73.557 217.025 73.5698 217.085 73.5987C217.164 73.6365 217.225 73.6961 217.263 73.7676H217.271L218.415 75.8331C218.266 75.8829 218.114 75.9254 217.958 75.9608C217.083 76.1593 216.212 76.0991 215.423 75.8303L216.563 73.7686H216.565C216.633 73.6407 216.763 73.5644 216.9 73.5593Z" fill="#326CE5" stroke="#326CE5" stroke-width="0.25"/>
<path fill-rule="evenodd" clip-rule="evenodd" d="M303.712 39.4231C296.691 39.4231 291 33.7319 291 26.7115C291 23.3402 292.339 20.107 294.723 17.7231C297.107 15.3392 300.34 14 303.712 14C310.732 14 316.423 19.6911 316.423 26.7115C316.423 33.7319 310.732 39.4231 303.712 39.4231Z" fill="url(#paint1_linear_12198_16775)"/>
<g clip-path="url(#clip0_12198_16775)">
<path d="M310.277 22.0172V28.1618L311.33 28.8173V22.6727L310.277 22.0172ZM296.158 28.8173L297.211 28.1618V22.0172L296.158 22.6727V28.8173ZM301.321 28.7568L306.168 31.7652V30.4577L301.63 27.6408L301.321 27.8324V28.7568ZM306.446 33.5098L301.321 30.3266V31.6341L302.69 32.4846L301.043 33.5064C300.933 33.5737 300.933 33.7485 301.043 33.8157L301.846 34.3165L303.743 33.14L305.64 34.3165L306.443 33.8157C306.555 33.7518 306.555 33.577 306.446 33.5098Z" fill="white"/>
<path d="M310.277 25.6812V31.13C310.277 31.2678 310.415 31.3552 310.527 31.2846L311.249 30.8375C311.299 30.8073 311.333 30.7468 311.333 30.6829V25.0291L310.277 25.6812ZM308.208 32.7233L308.887 32.2997C308.965 32.2527 309.012 32.1619 309.012 32.0678V26.4677L307.958 27.1232V32.572C307.958 32.7065 308.096 32.7939 308.208 32.7233ZM305.64 34.3199L306.612 33.7182C306.662 33.688 306.696 33.6275 306.696 33.5636V27.9064L305.64 28.5619V34.3199ZM300.877 33.7149L301.849 34.3166V28.5619L300.796 27.9064V33.5603C300.796 33.6241 300.827 33.6846 300.877 33.7149ZM298.602 32.3031L299.28 32.7266C299.39 32.7939 299.53 32.7098 299.53 32.572V27.1198L298.477 26.4644V32.0678C298.477 32.1653 298.524 32.256 298.602 32.3031ZM296.283 30.8644L296.961 31.288C297.071 31.3552 297.211 31.2711 297.211 31.1333V25.6812L296.158 25.0291V30.6325C296.158 30.7266 296.205 30.814 296.283 30.8644Z" fill="white"/>
<path d="M311.33 22.6727L310.277 22.0172L308.38 23.1937L307.118 22.4105L308.765 21.3886C308.874 21.3214 308.874 21.1466 308.765 21.0794L308.083 20.6559C308.005 20.6088 307.912 20.6088 307.833 20.6559L306.061 21.755L304.799 20.9718L306.446 19.95C306.555 19.8827 306.555 19.7079 306.446 19.6407L305.765 19.2172C305.686 19.1701 305.593 19.1701 305.515 19.2172L303.743 20.3164L301.971 19.2172C301.893 19.1701 301.799 19.1701 301.721 19.2172L301.04 19.6407C300.93 19.7079 300.93 19.8827 301.04 19.95L310.271 25.6845L311.324 25.029L309.427 23.8525L311.33 22.6727ZM299.405 20.6559L298.727 21.0794C298.618 21.1466 298.618 21.3214 298.727 21.3886L307.958 27.1232L309.012 26.4677L299.655 20.6559C299.577 20.6088 299.483 20.6088 299.405 20.6559ZM296.158 22.6727L298.055 23.8492L296.158 25.029L297.214 25.6811L299.108 24.5046L300.374 25.2912L298.477 26.4677L299.53 27.1232L301.427 25.9433L302.69 26.7299L300.793 27.9064L301.849 28.5618L303.743 27.382L305.64 28.5618L306.693 27.9064L297.211 22.0172L296.158 22.6727Z" fill="white"/>
</g>
<path fill-rule="evenodd" clip-rule="evenodd" d="M158.104 106.615C151.878 103.655 149.248 96.2402 152.228 90.055C153.659 87.0848 156.219 84.8011 159.345 83.7063C162.471 82.6115 165.907 82.7953 168.896 84.2172C175.122 87.1781 177.752 94.5925 174.772 100.778C171.792 106.963 164.329 109.576 158.104 106.615Z" fill="#9D0FB0"/>
<path d="M161.207 90.8037L161.231 90.8164L163.249 91.9609C163.317 91.9994 163.394 92.0196 163.472 92.0196C163.549 92.0196 163.626 91.9994 163.694 91.9609L165.697 90.8289C165.852 90.7405 166.035 90.7169 166.207 90.7632C166.379 90.8095 166.527 90.922 166.617 91.0765C166.708 91.231 166.734 91.415 166.691 91.5889C166.648 91.7628 166.538 91.9126 166.386 92.0061L166.363 92.0196L165.207 92.6741C165.172 92.694 165.143 92.7228 165.123 92.7577C165.102 92.7926 165.092 92.8322 165.092 92.8726C165.092 92.913 165.102 92.9527 165.123 92.9875C165.143 93.0224 165.172 93.0512 165.207 93.0711L168.328 94.84C168.396 94.8786 168.472 94.8989 168.55 94.8989C168.628 94.8989 168.705 94.8786 168.773 94.84L170.703 93.746C170.858 93.6566 171.042 93.6322 171.215 93.6782C171.387 93.7241 171.535 93.8367 171.626 93.9915C171.717 94.1463 171.743 94.3308 171.7 94.5051C171.656 94.6794 171.546 94.8295 171.393 94.9227L171.37 94.9364L170.283 95.5512C170.248 95.5711 170.219 95.5999 170.199 95.6348C170.179 95.6696 170.168 95.7093 170.168 95.7496C170.168 95.79 170.179 95.8297 170.199 95.8645C170.219 95.8994 170.248 95.9282 170.283 95.948L171.375 96.5672C171.531 96.6548 171.646 96.8003 171.696 96.9724C171.745 97.1445 171.726 97.3294 171.642 97.4873C171.557 97.6451 171.414 97.7633 171.244 97.8163C171.074 97.8692 170.89 97.8528 170.731 97.7705L170.708 97.7574L168.772 96.6601C168.704 96.6216 168.627 96.6014 168.55 96.6014C168.472 96.6014 168.395 96.6216 168.327 96.6601L165.172 98.4486C165.137 98.4684 165.108 98.4972 165.087 98.532C165.067 98.5669 165.056 98.6065 165.056 98.6469C165.056 98.6873 165.067 98.7269 165.087 98.7617C165.108 98.7966 165.137 98.8254 165.172 98.8452L166.475 99.5842C166.629 99.6725 166.743 99.8179 166.792 99.9893C166.841 100.161 166.821 100.345 166.737 100.502C166.653 100.659 166.511 100.776 166.342 100.83C166.173 100.883 165.99 100.868 165.832 100.787L165.808 100.774L163.661 99.5569C163.593 99.5185 163.517 99.4983 163.439 99.4983C163.361 99.4983 163.284 99.5185 163.216 99.5569L161.05 100.786C160.895 100.875 160.712 100.898 160.54 100.852C160.367 100.806 160.22 100.694 160.13 100.539C160.039 100.385 160.012 100.201 160.056 100.027C160.099 99.8532 160.208 99.7033 160.36 99.6097L160.383 99.5959L161.705 98.845C161.731 98.8304 161.753 98.8107 161.772 98.7872C161.79 98.7636 161.804 98.7367 161.812 98.7079C161.82 98.6791 161.822 98.649 161.818 98.6193C161.815 98.5897 161.805 98.561 161.791 98.5349C161.771 98.4986 161.741 98.4687 161.705 98.4484L158.578 96.6763C158.51 96.6379 158.433 96.6177 158.355 96.6177C158.277 96.6177 158.201 96.6379 158.133 96.6763L156.291 97.7181C156.136 97.8071 155.953 97.8312 155.78 97.785C155.607 97.7388 155.46 97.6261 155.369 97.4714C155.279 97.3166 155.252 97.1321 155.296 96.958C155.34 96.7838 155.45 96.6339 155.602 96.5408L155.625 96.5274L156.621 95.9639C156.656 95.9442 156.685 95.9154 156.705 95.8805C156.726 95.8456 156.736 95.8059 156.736 95.7655C156.736 95.7251 156.726 95.6854 156.705 95.6506C156.685 95.6157 156.656 95.5869 156.621 95.5671L155.627 95.0033C155.473 94.915 155.359 94.7696 155.31 94.5982C155.262 94.4269 155.281 94.243 155.365 94.086C155.449 93.929 155.591 93.8112 155.76 93.7578C155.929 93.7044 156.113 93.7197 156.271 93.8003L156.294 93.8131L158.134 94.8559C158.202 94.8944 158.278 94.9146 158.356 94.9146C158.434 94.9146 158.511 94.8944 158.578 94.8559L161.736 93.0693C161.771 93.0494 161.8 93.0206 161.82 92.9857C161.84 92.9508 161.851 92.9112 161.851 92.8708C161.851 92.8304 161.84 92.7907 161.82 92.7559C161.8 92.721 161.771 92.6922 161.736 92.6723L160.563 92.0071C160.409 91.9188 160.295 91.7734 160.247 91.602C160.198 91.4306 160.217 91.2468 160.301 91.0898C160.385 90.9327 160.527 90.815 160.696 90.7616C160.865 90.7082 161.049 90.7234 161.207 90.804V90.8037ZM163.249 93.7812L160.091 95.568C160.056 95.5878 160.027 95.6166 160.006 95.6515C159.986 95.6864 159.975 95.7261 159.975 95.7665C159.975 95.8069 159.986 95.8465 160.006 95.8814C160.027 95.9163 160.056 95.9451 160.091 95.9649L163.216 97.7365C163.284 97.775 163.36 97.7952 163.438 97.7952C163.516 97.7952 163.593 97.775 163.661 97.7365L166.816 95.948C166.851 95.9282 166.88 95.8994 166.9 95.8645C166.921 95.8297 166.931 95.79 166.931 95.7496C166.931 95.7093 166.921 95.6696 166.9 95.6348C166.88 95.5999 166.851 95.5711 166.816 95.5512L163.693 93.7812C163.625 93.7427 163.549 93.7226 163.471 93.7226C163.393 93.7226 163.316 93.7427 163.248 93.7812H163.249Z" fill="white"/>
<circle cx="163" cy="34" r="21" fill="url(#paint2_linear_12198_16775)"/>
<path d="M165.481 29.6473H160.443L157.916 34.0152L160.443 38.3528H165.481L168.028 34.0136L165.481 29.6473ZM164.823 37.1893H161.131L159.253 34.0215L161.121 30.8108H164.823L166.689 34.0215L164.823 37.1893Z" fill="white"/>
<path d="M165.481 39.0146H160.443L157.916 43.3785L160.443 47.7201H165.481L168.028 43.3785L165.481 39.0146ZM164.823 46.5544H161.131L159.253 43.3865L161.121 40.174H164.823L166.689 43.3865L164.823 46.5544Z" fill="white"/>
<path d="M165.481 20.28H160.443L157.916 24.6495L160.443 28.9855H165.481L168.028 24.6495L165.481 20.28ZM164.823 27.826H161.131L159.253 24.6495L161.121 21.4411H164.823L166.683 24.6495L164.823 27.826Z" fill="white"/>
<path d="M173.714 34.3311H168.674L166.148 38.6989L168.674 43.0365H173.714L176.26 38.6989L173.714 34.3311ZM173.047 41.8719H169.355L167.487 38.7052L169.355 35.4893H173.047L174.915 38.6989L173.047 41.8719Z" fill="white"/>
<path d="M173.714 24.9637H168.674L166.148 29.3555L168.674 33.7201H173.714L176.26 29.3555L173.714 24.9637ZM173.047 32.5514H169.355L167.487 29.3651L169.355 26.1356H173.047L174.915 29.3651L173.047 32.5514Z" fill="white"/>
<path d="M157.264 34.3311H152.251L149.736 38.6989L152.251 43.0365H157.264L159.797 38.6989L157.264 34.3311ZM156.602 41.8719H152.928L151.07 38.7052L152.928 35.4893H156.602L158.461 38.7052L156.602 41.8719Z" fill="white"/>
<path d="M157.264 24.9637H152.251L149.736 29.3555L152.251 33.7201H157.264L159.797 29.3555L157.264 24.9637ZM156.602 32.5514H152.928L151.07 29.3619L152.928 26.1324H156.602L158.461 29.3619L156.602 32.5514Z" fill="white"/>
<path fill-rule="evenodd" clip-rule="evenodd" d="M104.409 92.3042C98.7925 89.633 96.4192 82.9443 99.1078 77.3645C100.399 74.685 102.708 72.6248 105.528 71.6372C108.348 70.6495 111.448 70.8153 114.145 72.098C119.761 74.7692 122.134 81.4579 119.445 87.0377C116.757 92.6175 110.025 94.9754 104.409 92.3042Z" fill="#D62783"/>
<path fill-rule="evenodd" clip-rule="evenodd" d="M108.964 83.5671C108.19 83.5671 107.588 82.9607 107.588 82.181C107.588 81.4013 108.19 80.7948 108.964 80.7948C109.738 80.7948 110.34 81.4013 110.34 82.181C110.34 82.9607 109.738 83.5671 108.964 83.5671Z" fill="white"/>
<path fill-rule="evenodd" clip-rule="evenodd" d="M111.653 82.8307C111.309 82.8307 111.008 82.549 111.008 82.1809C111.008 81.8343 111.287 81.5311 111.653 81.5311C111.997 81.5311 112.298 81.8127 112.298 82.1809C112.298 82.549 111.997 82.8306 111.653 82.8306V82.8307ZM113.975 83.4369C113.889 83.7834 113.545 83.9781 113.201 83.8915C112.857 83.8048 112.663 83.4584 112.749 83.112C112.835 82.7655 113.179 82.5701 113.523 82.6567C113.845 82.7434 114.061 83.0465 113.996 83.3933C113.996 83.3933 113.996 83.4148 113.975 83.4364L113.975 83.4369ZM113.523 81.7903C113.179 81.8769 112.835 81.6603 112.749 81.3137C112.663 80.9673 112.878 80.6206 113.222 80.534C113.566 80.4473 113.91 80.664 113.996 81.0107C114.017 81.0973 114.017 81.1839 113.996 81.2705C113.974 81.5088 113.802 81.7253 113.523 81.7903H113.523ZM115.802 83.3496C115.737 83.6961 115.414 83.9344 115.07 83.8695C114.726 83.8045 114.49 83.4796 114.554 83.1331C114.619 82.7867 114.941 82.5483 115.285 82.6132C115.608 82.6782 115.845 82.9814 115.823 83.3063C115.802 83.3279 115.802 83.3279 115.802 83.3496H115.802ZM115.287 81.7477C114.943 81.8127 114.62 81.5745 114.556 81.2279C114.491 80.8815 114.728 80.5565 115.072 80.4915C115.416 80.4266 115.738 80.6647 115.803 81.0113C115.803 81.0763 115.824 81.1196 115.803 81.1845C115.781 81.4661 115.566 81.7044 115.287 81.7477ZM114.835 85.5813C114.663 85.8845 114.276 85.9928 113.975 85.8195C113.674 85.6462 113.566 85.2564 113.739 84.9532C113.91 84.6499 114.298 84.5416 114.599 84.7149C114.814 84.8449 114.943 85.0831 114.921 85.3214C114.9 85.408 114.878 85.4946 114.835 85.5812V85.5813ZM114.599 79.6903C114.298 79.8635 113.91 79.7552 113.739 79.4519C113.567 79.1487 113.674 78.7589 113.975 78.5856C114.276 78.4124 114.663 78.5206 114.835 78.824C114.9 78.9538 114.921 79.0621 114.921 79.192C114.9 79.387 114.792 79.5819 114.599 79.6902" fill="white"/>
<path d="M108.986 88.6568C107.265 88.6568 105.674 87.9854 104.449 86.7725C103.266 85.5378 102.6 83.913 102.6 82.2023C102.6 80.4694 103.266 78.8667 104.47 77.632C105.674 76.4195 107.287 75.748 108.986 75.748C110.405 75.748 111.759 76.2028 112.877 77.0694L112.082 78.1088C111.179 77.4162 110.104 77.048 108.986 77.048C107.631 77.048 106.341 77.5894 105.374 78.564C104.407 79.5387 103.89 80.8166 103.89 82.2026C103.89 83.5671 104.428 84.8666 105.396 85.8412C106.363 86.8158 107.632 87.3356 109.008 87.3356C110.147 87.3356 111.222 86.9674 112.104 86.2744L112.878 87.3137C111.76 88.1798 110.405 88.6565 108.986 88.6565L108.986 88.6568Z" fill="white"/>
<path d="M120.529 117C128.482 117.002 135.01 123.538 135 131.489C134.99 139.561 128.488 146.006 120.362 146C112.418 145.994 105.994 139.452 106 131.371C106.005 123.469 112.547 116.998 120.529 117ZM116.132 122.089C116.315 122.994 116.137 123.837 115.868 124.667C115.681 125.242 115.423 125.795 115.269 126.378C115.015 127.338 114.727 128.303 114.621 129.285C114.469 130.696 115.02 131.94 115.961 133.176L111.632 132.257C111.64 132.395 111.632 132.448 111.647 132.492C112.057 133.707 112.779 134.73 113.589 135.695C113.674 135.797 113.869 135.85 114.014 135.85C118.33 135.858 122.646 135.858 126.962 135.852C127.096 135.852 127.275 135.826 127.357 135.739C128.282 134.759 128.99 133.643 129.432 132.236L124.849 133.141C125.151 132.543 125.497 132.018 125.695 131.441C126.373 129.467 126.092 127.559 125.118 125.759C124.337 124.315 123.616 122.877 124.006 121.136C123.18 121.958 122.863 123.004 122.662 124.082C122.464 125.143 122.347 126.221 122.194 127.298C122.172 127.265 122.144 127.241 122.14 127.213C122.122 127.1 122.105 126.986 122.099 126.872C122.006 125.108 121.664 123.408 120.943 121.784C120.518 120.829 120.05 119.851 120.487 118.711C120.191 118.869 119.923 119.025 119.731 119.249C119.158 119.916 118.922 120.717 118.861 121.594C118.809 122.344 118.737 123.097 118.599 123.834C118.454 124.608 118.225 125.367 117.709 126.079C117.5 124.558 117.477 123.055 116.132 122.089ZM127.261 137.183H113.723V139.553H127.261V137.183ZM116.408 140.778C116.396 142.752 118.391 144.222 120.856 144.116C122.899 144.027 124.707 142.407 124.552 140.778H116.408Z" fill="#E75225"/>
<path fill-rule="evenodd" clip-rule="evenodd" d="M286.388 101.56C279.914 98.4807 277.178 90.7698 280.277 84.3372C281.766 81.2482 284.428 78.8732 287.679 77.7346C290.93 76.5959 294.503 76.7871 297.612 78.2658C304.086 81.3453 306.822 89.0562 303.723 95.4887C300.623 101.921 292.862 104.64 286.388 101.56Z" fill="#F49322"/>
<path d="M285.203 85.7791L284.795 85.091L287.201 83.8676L287.609 84.5557L285.203 85.7791ZM289.036 83.8293L288.628 83.1412L290.79 82.0325L291.197 82.7206L289.036 83.8293Z" fill="white"/>
<path d="M291.238 89.3729L289.077 88.3024L289.444 87.6142L291.605 88.6847L291.238 89.3729ZM287.609 87.576L285.447 86.5055L285.814 85.8174L287.976 86.8879L287.609 87.576Z" fill="white"/>
<path d="M292.828 89.2965L292.461 88.6083L294.663 87.6143L295.03 88.3025L292.828 89.2965ZM296.498 87.6143L296.131 86.9261L298.333 85.9321L298.7 86.6203L296.498 87.6143Z" fill="white"/>
<path d="M290.994 98.3572L288.547 97.1338L288.914 96.4457L291.361 97.6691L290.994 98.3572ZM287.323 96.5986L285.162 95.5281L285.529 94.84L287.69 95.9104L287.323 96.5986Z" fill="white"/>
<path d="M285.122 86.7733H284.307V89.7171H285.122V86.7733Z" fill="white"/>
<path d="M292.298 94.3811H291.482V97.4014H292.298V94.3811Z" fill="white"/>
<path d="M284.712 87.0791C284.427 87.0791 284.141 86.9644 283.938 86.7732C283.734 86.582 283.611 86.3144 283.611 86.0468C283.611 85.7792 283.734 85.5116 283.938 85.3204C284.345 84.9381 285.079 84.9381 285.487 85.3204C285.691 85.5116 285.813 85.7792 285.813 86.0468C285.813 86.3144 285.691 86.582 285.487 86.7732C285.283 86.9644 284.998 87.0791 284.712 87.0791ZM284.712 85.7792C284.631 85.7792 284.549 85.8174 284.508 85.8557C284.468 85.8939 284.427 85.9704 284.427 86.0468C284.427 86.1233 284.468 86.1997 284.508 86.238C284.631 86.3527 284.794 86.3527 284.916 86.238C284.957 86.1997 284.998 86.1233 284.998 86.0468C284.998 85.9704 284.957 85.8939 284.916 85.8557C284.876 85.8174 284.794 85.7792 284.712 85.7792Z" fill="white"/>
<path d="M284.712 95.6428C284.427 95.6428 284.141 95.5281 283.938 95.3369C283.734 95.1458 283.611 94.8782 283.611 94.6105C283.611 94.3429 283.734 94.0753 283.938 93.8841C284.345 93.5018 285.079 93.5018 285.487 93.8841C285.691 94.0753 285.813 94.3429 285.813 94.6105C285.813 94.8782 285.691 95.1458 285.487 95.3369C285.283 95.5281 284.998 95.6428 284.712 95.6428ZM284.712 94.3429C284.631 94.3429 284.549 94.3811 284.508 94.4194C284.468 94.4576 284.427 94.5341 284.427 94.6105C284.427 94.687 284.468 94.7635 284.508 94.8017C284.631 94.9164 284.794 94.9164 284.916 94.8017C284.957 94.7635 284.998 94.687 284.998 94.6105C284.998 94.5341 284.957 94.4576 284.916 94.4194C284.876 94.3811 284.794 94.3429 284.712 94.3429Z" fill="white"/>
<path d="M291.89 99.0836C291.605 99.0836 291.319 98.9689 291.115 98.7777C290.911 98.5866 290.789 98.3189 290.789 98.0513C290.789 97.7837 290.911 97.5161 291.115 97.3249C291.564 96.9044 292.257 96.9044 292.665 97.3249C293.114 97.7455 293.114 98.3954 292.665 98.7777C292.42 98.9689 292.176 99.0836 291.89 99.0836ZM291.89 97.7455C291.809 97.7455 291.727 97.7837 291.686 97.8219C291.564 97.9366 291.564 98.0895 291.686 98.2042C291.809 98.3189 291.972 98.3189 292.094 98.2042C292.216 98.0895 292.216 97.9366 292.094 97.8219C292.012 97.7837 291.931 97.7455 291.89 97.7455Z" fill="white"/>
<path d="M291.89 90.4816C291.605 90.4816 291.319 90.3669 291.115 90.1758C290.911 89.9846 290.789 89.717 290.789 89.4494C290.789 89.1818 290.911 88.9142 291.115 88.723C291.564 88.3025 292.257 88.3025 292.665 88.723C293.114 89.1435 293.114 89.7935 292.665 90.1758C292.42 90.4052 292.176 90.4816 291.89 90.4816ZM291.89 89.1818C291.809 89.1818 291.727 89.22 291.686 89.2582C291.564 89.3729 291.564 89.5259 291.686 89.6405C291.809 89.7552 291.972 89.7552 292.094 89.6405C292.216 89.5259 292.216 89.3729 292.094 89.2582C292.012 89.22 291.931 89.1818 291.89 89.1818Z" fill="white"/>
<path d="M298.947 95.6428C298.662 95.6428 298.376 95.5281 298.172 95.3369C297.724 94.9164 297.724 94.2665 298.172 93.8841C298.58 93.5018 299.314 93.5018 299.722 93.8841C299.926 94.0753 300.048 94.3429 300.048 94.6105C300.048 94.8782 299.926 95.1458 299.722 95.3369C299.518 95.5281 299.233 95.6428 298.947 95.6428ZM298.947 94.3429C298.866 94.3429 298.784 94.3811 298.743 94.4194C298.621 94.5341 298.621 94.687 298.743 94.8017C298.866 94.9164 299.029 94.9164 299.151 94.8017C299.273 94.687 299.273 94.5341 299.151 94.4194C299.11 94.3811 299.029 94.3429 298.947 94.3429Z" fill="white"/>
<path d="M298.947 87.0791C298.662 87.0791 298.376 86.9644 298.172 86.7732C297.724 86.3527 297.724 85.7027 298.172 85.3204C298.58 84.9381 299.314 84.9381 299.722 85.3204C300.171 85.741 300.171 86.3909 299.722 86.7732C299.518 86.9644 299.233 87.0791 298.947 87.0791ZM298.947 85.7792C298.866 85.7792 298.784 85.8174 298.743 85.8557C298.621 85.9704 298.621 86.1233 298.743 86.238C298.866 86.3527 299.029 86.3527 299.151 86.238C299.273 86.1233 299.273 85.9704 299.151 85.8557C299.11 85.8174 299.029 85.7792 298.947 85.7792Z" fill="white"/>
<path d="M291.89 83.1795C291.605 83.1795 291.319 83.0648 291.115 82.8737C290.911 82.6825 290.789 82.4149 290.789 82.1473C290.789 81.8796 290.911 81.612 291.115 81.4209C291.564 81.0003 292.257 81.0003 292.665 81.4209C293.114 81.8414 293.114 82.4913 292.665 82.8737C292.42 83.0648 292.176 83.1795 291.89 83.1795ZM291.89 81.8796C291.809 81.8796 291.727 81.9179 291.686 81.9561C291.564 82.0708 291.564 82.2237 291.686 82.3384C291.809 82.4531 291.972 82.4531 292.094 82.3384C292.216 82.2237 292.216 82.0708 292.094 81.9561C292.012 81.8796 291.931 81.8796 291.89 81.8796Z" fill="white"/>
<path d="M285.122 90.4816H284.307V93.7694H285.122V90.4816Z" fill="white"/>
<path d="M299.316 86.7732H298.5V89.717H299.316V86.7732Z" fill="white"/>
<path d="M299.316 90.4816H298.5V93.7694H299.316V90.4816Z" fill="white"/>
<path d="M296.175 84.5174L296.582 83.8292L298.907 85.0144L298.499 85.7025L296.175 84.5174ZM292.26 82.5293L292.668 81.8412L295.155 83.1028L294.747 83.791L292.26 82.5293Z" fill="white"/>
<path d="M292.3 90.1757H291.484V93.1959H292.3V90.1757Z" fill="white"/>
<path d="M292.422 97.7072L294.787 96.5602L295.154 97.2484L292.789 98.3953L292.422 97.7072ZM295.97 95.9868L298.294 94.8398L298.661 95.528L296.337 96.6749L295.97 95.9868Z" fill="white"/>
<path fill-rule="evenodd" clip-rule="evenodd" d="M19 324C16.7908 324 15 321.985 15 319.5C15 318.307 15.4214 317.162 16.1716 316.318C16.9217 315.474 17.9391 315 19 315C21.2091 315 23 317.015 23 319.5C23 321.985 21.2091 324 19 324Z" fill="white"/>
<path fill-rule="evenodd" clip-rule="evenodd" d="M4.00002 313C1.79085 313 0 311.209 0 309C0 307.939 0.421407 306.922 1.17157 306.172C1.92173 305.421 2.93915 305 4.00002 305C6.20915 305 8 306.791 8 309C8 311.209 6.20915 313 4.00002 313Z" fill="white"/>
<path fill-rule="evenodd" clip-rule="evenodd" d="M19 313C16.7908 313 15 311.209 15 309C15 307.939 15.4214 306.922 16.1716 306.172C16.9217 305.421 17.9391 305 19 305C21.2091 305 23 306.791 23 309C23 311.209 21.2091 313 19 313Z" fill="white"/>
<path d="M15 319C13.2577 319 12.3904 316.75 11.5154 314.5C10.6404 312.25 9.75773 310 8 310" stroke="#9E9E9E" stroke-width="2" stroke-miterlimit="10" stroke-linejoin="round"/>
<path d="M11 309C11.9956 309 12.4912 309 12.9912 309C13.4912 309 13.9956 309 15 309" stroke="#9E9E9E" stroke-width="2" stroke-miterlimit="10" stroke-linejoin="round"/>
<path d="M19 315C19 314.499 19 314.249 19 313.999C19 313.749 19 313.499 19 313" stroke="#9E9E9E" stroke-width="2" stroke-miterlimit="10" stroke-linejoin="round"/>
<path fill-rule="evenodd" clip-rule="evenodd" d="M19 302C16.7909 302 15 300.209 15 298C15 296.939 15.4214 295.922 16.1716 295.172C16.9217 294.421 17.9392 294 19 294C21.2091 294 23 295.791 23 298C23 300.209 21.2091 302 19 302Z" fill="white"/>
<path d="M19 305C19 304.249 19 303.873 19 303.498C19 303.123 19 302.749 19 302" stroke="#9E9E9E" stroke-width="2" stroke-miterlimit="10" stroke-linejoin="round"/>
<path d="M8 309C9.74572 309 10.6164 306.25 11.4914 303.5C12.3664 300.75 13.2457 298 15 298" stroke="#9E9E9E" stroke-width="4" stroke-miterlimit="10" stroke-linejoin="round"/>
<path d="M118.057 54.0578C115.816 52.9848 114.869 50.298 115.942 48.0566C116.457 46.9802 117.379 46.1527 118.504 45.7559C119.63 45.3592 120.866 45.4258 121.943 45.9411L122.158 45.4901L121.943 45.9411C124.184 47.014 125.131 49.7009 124.058 51.9423C122.985 54.1836 120.298 55.1307 118.057 54.0578Z" fill="#00B39F" stroke="#00B39F"/>
<path d="M348.057 160.058C345.816 158.985 344.869 156.298 345.942 154.057C346.457 152.98 347.379 152.153 348.504 151.756C349.63 151.359 350.866 151.426 351.943 151.941L352.158 151.49L351.943 151.941C354.184 153.014 355.131 155.701 354.058 157.942C352.985 160.184 350.298 161.131 348.057 160.058Z" fill="#00B39F" stroke="#00B39F"/>
<path d="M270.057 9.05778C267.816 7.98481 266.869 5.29798 267.942 3.05657C268.457 1.98022 269.379 1.15267 270.504 0.755943C271.63 0.359215 272.866 0.425806 273.943 0.941064L274.158 0.490088L273.943 0.941064C276.184 2.01404 277.131 4.70086 276.058 6.94227C274.985 9.18364 272.298 10.1307 270.057 9.05778Z" fill="#00B39F" stroke="#00B39F"/>
<path d="M113.057 175.058C110.816 173.985 109.869 171.298 110.942 169.057C111.457 167.98 112.379 167.153 113.504 166.756C114.63 166.359 115.866 166.426 116.943 166.941L117.158 166.49L116.943 166.941C119.184 168.014 120.131 170.701 119.058 172.942C117.985 175.184 115.298 176.131 113.057 175.058Z" fill="#00B39F" stroke="#00B39F"/>
<path d="M201.921 24.2543C200.676 23.6582 200.15 22.1655 200.746 20.9203C201.032 20.3223 201.544 19.8626 202.169 19.6422C202.794 19.4218 203.481 19.4588 204.079 19.745L204.292 19.2996L204.079 19.745C205.324 20.3411 205.85 21.8338 205.254 23.079C204.658 24.3242 203.166 24.8503 201.921 24.2543Z" fill="#00B39F" stroke="#00B39F"/>
<path d="M272.921 60.2543C271.676 59.6582 271.15 58.1655 271.746 56.9203C272.032 56.3223 272.544 55.8626 273.169 55.6422C273.794 55.4218 274.481 55.4588 275.079 55.745L275.292 55.2996L275.079 55.745C276.324 56.3411 276.85 57.8338 276.254 59.079C275.658 60.3242 274.166 60.8503 272.921 60.2543Z" fill="#00B39F" stroke="#00B39F"/>
<path d="M366.921 128.254C365.676 127.658 365.15 126.166 365.746 124.92C366.032 124.322 366.544 123.863 367.169 123.642C367.794 123.422 368.481 123.459 369.079 123.745L369.292 123.3L369.079 123.745C370.324 124.341 370.85 125.834 370.254 127.079C369.658 128.324 368.166 128.85 366.921 128.254Z" fill="#00B39F" stroke="#00B39F"/>
<path d="M90.9208 122.254C89.6758 121.658 89.1497 120.166 89.7457 118.92C90.0319 118.322 90.5439 117.863 91.1691 117.642C91.7942 117.422 92.4813 117.459 93.0792 117.745L93.2924 117.3L93.0792 117.745C94.3242 118.341 94.8503 119.834 94.2543 121.079C93.6583 122.324 92.1658 122.85 90.9208 122.254Z" fill="#00B39F" stroke="#00B39F"/>
<defs>
<linearGradient id="paint0_linear_12198_16775" x1="230.905" y1="95.7438" x2="230.905" y2="215.368" gradientUnits="userSpaceOnUse">
<stop stop-color="#00B39F"/>
<stop offset="1"/>
</linearGradient>
<linearGradient id="paint1_linear_12198_16775" x1="303.712" y1="14" x2="303.712" y2="39.4231" gradientUnits="userSpaceOnUse">
<stop stop-color="#2BEDA7"/>
<stop offset="0.789609" stop-color="#0DA6E5"/>
<stop offset="0.9999" stop-color="#0593F5"/>
<stop offset="1" stop-color="#018AFD"/>
</linearGradient>
<linearGradient id="paint2_linear_12198_16775" x1="163" y1="13" x2="163" y2="55" gradientUnits="userSpaceOnUse">
<stop stop-color="#795AA5"/>
<stop offset="1" stop-color="#6B91C7"/>
</linearGradient>
<clipPath id="clip0_12198_16775">
<rect width="15.779" height="15.779" fill="white" transform="translate(295.852 18.8505)"/>
</clipPath>
</defs>
</svg>
