<svg width="282" height="287" viewBox="0 0 282 287" fill="none" xmlns="http://www.w3.org/2000/svg">
<circle cx="141.905" cy="191.372" r="95.1281" stroke="url(#paint0_linear_12555_17395)"/>
<path d="M167.256 153.667H147.076V163.388H167.256V153.667Z" fill="#00B39F"/>
<path d="M169.093 186.416V182.388C169.093 177.749 165.191 173.989 160.382 173.989H127.814V171.339H115.891V182.815H157.169V186.416H169.093Z" fill="#00B39F"/>
<path d="M127.814 168.164V163.388H143.781V153.667H115.891V168.164H127.814Z" fill="#00D3A9"/>
<path d="M157.168 189.542V195.214H141.201V204.935H160.873C163.009 204.969 165.071 204.154 166.608 202.67C168.144 201.186 169.03 199.153 169.07 197.017V189.542H157.168Z" fill="#00D3A9"/>
<path d="M126.857 190.066V195.214H137.906V204.935H123.699C121.563 204.968 119.5 204.154 117.964 202.67C116.428 201.186 115.542 199.153 115.502 197.017V190.066H126.857Z" fill="#00B39F"/>
<path fill-rule="evenodd" clip-rule="evenodd" d="M235.809 124.477C228.089 120.781 224.827 111.527 228.523 103.806C230.297 100.099 233.472 97.2482 237.348 95.8816C241.224 94.5151 245.484 94.7444 249.191 96.5193C256.911 100.215 260.173 109.47 256.477 117.19C252.782 124.911 243.528 128.173 235.809 124.477V124.477Z" fill="#290B53"/>
<path d="M236.774 103.097C235.845 103.296 235.243 103.956 235.089 104.936C234.974 105.692 235.198 106.301 235.986 107.332L236.358 107.819L236.242 108.165C235.352 110.766 235.281 111.01 235.281 111.343C235.281 112.093 235.646 112.99 236.364 113.989C236.832 114.649 237.44 115.284 239.286 117.039C240.061 117.776 241.15 118.82 241.708 119.359C242.265 119.89 242.746 120.333 242.778 120.333C242.81 120.333 243.335 119.865 243.944 119.295C244.552 118.724 245.2 118.128 245.373 117.968C248.48 115.136 249.358 114.182 249.941 113.003C250.249 112.388 250.332 112.061 250.338 111.49C250.338 111.132 250.268 110.869 249.819 109.6C249.531 108.787 249.255 107.979 249.204 107.793L249.108 107.467L249.396 107.057C250.043 106.14 250.216 105.602 250.088 104.904C249.986 104.346 249.813 103.994 249.467 103.642C249.05 103.232 248.608 103.078 247.807 103.071C247.058 103.065 246.66 103.18 246.206 103.526L245.911 103.751L245.097 103.558C244.123 103.321 243.963 103.296 243.873 103.353C243.822 103.379 243.886 103.725 244.059 104.417C244.495 106.115 245.071 108.351 245.212 108.864C245.449 109.735 245.482 109.972 245.456 110.44C245.405 111.26 244.924 111.971 244.2 112.311C243.867 112.471 243.758 112.484 242.874 112.503C242.015 112.522 241.868 112.509 241.547 112.388C240.638 112.048 240.003 111.016 240.106 110.049C240.131 109.773 240.823 106.948 241.579 104.013C241.663 103.686 241.72 103.405 241.701 103.385C241.592 103.276 240.676 103.424 239.689 103.712L239.324 103.821L239.081 103.61C238.683 103.257 238.261 103.103 237.613 103.065C237.299 103.052 236.921 103.065 236.774 103.097Z" fill="white"/>
<path d="M241.83 108.223C241.754 108.255 241.67 108.332 241.645 108.383C241.587 108.537 241.798 110.267 241.888 110.376C241.946 110.446 242.151 110.465 242.785 110.465C243.567 110.465 243.612 110.459 243.701 110.318C243.797 110.164 243.958 108.556 243.887 108.383C243.868 108.325 243.778 108.248 243.695 108.216C243.496 108.139 242.023 108.146 241.83 108.223Z" fill="white"/>
<path fill-rule="evenodd" clip-rule="evenodd" d="M154.104 44.7719C147.878 41.7913 145.248 34.3278 148.228 28.1017C149.659 25.1119 152.219 22.813 155.345 21.711C158.471 20.6089 161.907 20.7939 164.896 22.2252C171.122 25.2058 173.752 32.6693 170.772 38.8954C167.792 45.1215 160.329 47.7525 154.104 44.7719Z" fill="#466BB0"/>
<path d="M155.377 38.1301H164.127L158.658 39.6458L155.377 38.1301Z" fill="white"/>
<path d="M155.377 37.6249L158.658 37.1197V31.5624L155.377 37.6249Z" fill="white"/>
<path d="M159.205 37.1197L164.127 37.6249L159.205 27.5208V37.1197Z" fill="white"/>
<path fill-rule="evenodd" clip-rule="evenodd" d="M244.503 76.8385C233.546 71.5927 228.916 58.457 234.161 47.4991C236.68 42.2369 241.186 38.191 246.687 36.2513C252.189 34.3117 258.236 34.6373 263.497 37.1564C274.454 42.4022 279.084 55.5379 273.839 66.4958C268.594 77.4538 255.459 82.0843 244.503 76.8385V76.8385Z" fill="#009639"/>
<path d="M259.749 54.3103L255.989 56.1932C256.086 56.4073 256.126 56.6509 256.118 56.8946C256.11 57.1235 256.054 57.345 255.957 57.5444L259.507 59.5232C259.829 59.154 260.304 58.9104 260.827 58.8734L260.989 55.0191C260.948 55.0118 260.916 55.0044 260.876 54.997C260.401 54.8936 260.014 54.6426 259.749 54.3103Z" fill="white"/>
<path d="M266.134 49.7102L254.88 43.7515C254.421 43.5005 253.849 43.5005 253.382 43.7515L242.136 49.7102C241.669 49.9538 241.387 50.4042 241.387 50.899V62.8163C241.379 63.0599 241.452 63.2962 241.581 63.503C241.709 63.7097 241.903 63.8869 242.128 64.005L253.382 69.9637C253.841 70.2148 254.413 70.2148 254.88 69.9637L266.134 64.005C266.601 63.7614 266.883 63.311 266.883 62.8163V50.899C266.883 50.4116 266.601 49.9538 266.134 49.7102ZM261.449 58.7921C262.487 58.9472 263.196 59.848 263.027 60.8005C262.858 61.753 261.875 62.4028 260.837 62.2477C259.798 62.0927 259.09 61.1919 259.259 60.2394C259.283 60.1064 259.324 59.9883 259.372 59.8702L255.749 58.0095C255.403 58.4451 254.839 58.7257 254.212 58.7257C253.584 58.7257 253.02 58.4451 252.674 58.0169L249.051 59.8702C249.14 60.0695 249.188 60.291 249.188 60.5199C249.188 60.771 249.132 61.0073 249.027 61.2214L252.714 63.2371C253.06 62.831 253.608 62.5726 254.212 62.5726C255.266 62.5726 256.119 63.3553 256.119 64.3225C256.119 65.2898 255.266 66.0725 254.212 66.0725C253.157 66.0725 252.304 65.2898 252.304 64.3225C252.304 64.0715 252.36 63.8352 252.465 63.6211L248.778 61.6053C248.431 62.0114 247.892 62.2699 247.28 62.2699C246.226 62.2699 245.372 61.4872 245.372 60.5199C245.372 59.5527 246.226 58.77 247.28 58.77C247.908 58.77 248.472 59.0506 248.818 59.4788L252.44 57.6181C252.352 57.4188 252.304 57.1973 252.304 56.9684C252.304 56.0749 253.028 55.344 253.97 55.2332V51.1205C253.455 51.0614 253.004 50.8103 252.698 50.4485L248.866 52.5012C248.963 52.708 249.019 52.9442 249.019 53.1805C249.019 54.1478 248.166 54.9305 247.111 54.9305C246.057 54.9305 245.203 54.1478 245.203 53.1805C245.203 52.2133 246.057 51.4306 247.111 51.4306C247.731 51.4306 248.278 51.6964 248.625 52.1173L252.457 50.0646C252.36 49.8579 252.304 49.6216 252.304 49.3853C252.304 48.418 253.157 47.6354 254.212 47.6354C255.266 47.6354 256.119 48.418 256.119 49.3853C256.119 50.2787 255.395 51.0097 254.453 51.1205V55.2332C254.96 55.2923 255.411 55.5359 255.709 55.883L259.396 53.8746C259.251 53.5645 259.203 53.2101 259.275 52.8483C259.476 51.8958 260.475 51.2755 261.513 51.4601C262.552 51.6447 263.228 52.5603 263.027 53.5128C262.866 54.2733 262.189 54.8271 261.392 54.9157V58.7774C261.409 58.7848 261.433 58.7921 261.449 58.7921Z" fill="white"/>
<path fill-rule="evenodd" clip-rule="evenodd" d="M120.661 86.3298C112.195 82.2762 108.617 72.1259 112.67 63.6584C114.616 59.5921 118.098 56.4657 122.349 54.9669C126.601 53.4681 131.273 53.7197 135.339 55.6663C143.805 59.7199 147.383 69.8702 143.33 78.3377C139.277 86.8052 129.128 90.3834 120.661 86.3298V86.3298Z" fill="#326CE5"/>
<path d="M127.84 60.5751C127.649 60.5847 127.462 60.632 127.29 60.7143L119.785 64.3001C119.591 64.3929 119.42 64.5279 119.286 64.695C119.151 64.8622 119.057 65.0573 119.009 65.2657L117.157 73.3205C117.114 73.5061 117.11 73.6983 117.143 73.8857C117.177 74.0732 117.248 74.2521 117.352 74.4118C117.377 74.4509 117.405 74.4887 117.434 74.5251L122.628 80.9837C122.763 81.1508 122.933 81.2857 123.127 81.3784C123.322 81.4712 123.535 81.5193 123.75 81.5193L132.08 81.5173C132.296 81.5175 132.509 81.4695 132.703 81.377C132.897 81.2844 133.068 81.1497 133.202 80.9827L138.395 74.5231C138.53 74.3559 138.624 74.1608 138.672 73.9523C138.72 73.7437 138.72 73.5271 138.672 73.3186L136.818 65.2638C136.77 65.0553 136.675 64.8603 136.541 64.6931C136.406 64.526 136.236 64.391 136.042 64.2982L128.536 60.7143C128.319 60.6108 128.08 60.563 127.84 60.5751V60.5751Z" fill="white"/>
<path d="M127.914 63.3162C127.666 63.3162 127.465 63.5396 127.465 63.8153C127.465 63.8195 127.466 63.8235 127.466 63.8277C127.466 63.8652 127.464 63.9103 127.465 63.9429C127.471 64.1019 127.506 64.2236 127.527 64.37C127.564 64.6835 127.596 64.9434 127.577 65.1849C127.558 65.276 127.49 65.3593 127.431 65.4172L127.42 65.6072C127.15 65.6296 126.879 65.6705 126.608 65.732C125.442 65.9968 124.437 66.5976 123.673 67.4088C123.623 67.375 123.537 67.3127 123.511 67.2936C123.431 67.3045 123.349 67.3292 123.244 67.2677C123.043 67.1324 122.86 66.9456 122.638 66.7206C122.537 66.613 122.463 66.5105 122.343 66.4068C122.315 66.3832 122.273 66.3513 122.243 66.3271C122.149 66.2519 122.037 66.2127 121.93 66.2091C121.792 66.2043 121.659 66.2583 121.572 66.3674C121.417 66.5614 121.467 66.8579 121.682 67.0297C121.684 67.0314 121.687 67.0328 121.689 67.0345C121.719 67.0585 121.755 67.0893 121.782 67.1094C121.91 67.2039 122.027 67.2522 122.155 67.3272C122.423 67.4931 122.646 67.6307 122.823 67.7966C122.892 67.8701 122.904 67.9997 122.913 68.0557L123.057 68.1844C122.286 69.3442 121.929 70.7769 122.14 72.2367L121.952 72.2914C121.902 72.3554 121.832 72.4562 121.759 72.4863C121.528 72.5591 121.268 72.5858 120.954 72.6187C120.806 72.631 120.679 72.6237 120.523 72.6533C120.488 72.6598 120.44 72.6723 120.403 72.6811C120.402 72.6814 120.4 72.6818 120.399 72.6821C120.397 72.6825 120.394 72.6835 120.392 72.684C120.128 72.7479 119.957 72.9913 120.012 73.2311C120.067 73.4709 120.326 73.6167 120.592 73.5593C120.594 73.5589 120.597 73.5588 120.599 73.5584C120.602 73.5577 120.604 73.5562 120.607 73.5555C120.644 73.5473 120.691 73.5383 120.723 73.5296C120.877 73.4884 120.988 73.428 121.127 73.375C121.424 73.2684 121.67 73.1794 121.91 73.1447C122.01 73.1368 122.115 73.2065 122.168 73.2359L122.364 73.2023C122.814 74.5992 123.759 75.7284 124.954 76.4369L124.873 76.6327C124.902 76.7087 124.935 76.8116 124.913 76.8866C124.825 77.1127 124.676 77.3514 124.506 77.6174C124.424 77.7404 124.339 77.8357 124.265 77.9764C124.247 78.0101 124.225 78.0618 124.208 78.0973C124.092 78.3444 124.177 78.6289 124.399 78.7356C124.622 78.8431 124.899 78.7297 125.019 78.4822C125.019 78.4819 125.019 78.4816 125.02 78.4813C125.02 78.481 125.019 78.4806 125.02 78.4803C125.037 78.4452 125.061 78.3991 125.075 78.3661C125.139 78.2203 125.16 78.0953 125.205 77.9543C125.324 77.6558 125.389 77.3425 125.553 77.1473C125.597 77.0939 125.67 77.0733 125.746 77.0531L125.848 76.8688C126.89 77.2689 128.057 77.3763 129.223 77.1116C129.488 77.0512 129.745 76.9731 129.993 76.8793C130.022 76.9301 130.075 77.0276 130.089 77.0521C130.166 77.0771 130.25 77.0901 130.319 77.1913C130.441 77.4004 130.525 77.6478 130.627 77.9467C130.672 78.0877 130.694 78.2126 130.757 78.3584C130.772 78.3916 130.796 78.4384 130.813 78.4736C130.933 78.7219 131.211 78.8356 131.434 78.7279C131.656 78.6211 131.741 78.3367 131.625 78.0897C131.608 78.0541 131.584 78.0024 131.566 77.9687C131.492 77.8281 131.408 77.7336 131.326 77.6107C131.155 77.3447 131.014 77.1237 130.927 76.8976C130.891 76.781 130.933 76.7084 130.962 76.6327C130.945 76.6132 130.908 76.503 130.887 76.4513C132.13 75.7176 133.046 74.5463 133.477 73.1936C133.535 73.2028 133.636 73.2207 133.668 73.2272C133.736 73.1827 133.798 73.1245 133.92 73.1341C134.16 73.1688 134.406 73.2579 134.703 73.3645C134.841 73.4174 134.953 73.4788 135.106 73.52C135.139 73.5287 135.185 73.5368 135.222 73.5449C135.225 73.5457 135.228 73.5471 135.231 73.5478C135.233 73.5483 135.236 73.5483 135.238 73.5488C135.504 73.6061 135.763 73.4604 135.818 73.2205C135.872 72.9807 135.702 72.7373 135.437 72.6734C135.399 72.6647 135.344 72.6498 135.307 72.6427C135.151 72.6131 135.023 72.6204 134.876 72.6082C134.562 72.5752 134.302 72.5485 134.071 72.4757C133.976 72.4391 133.909 72.327 133.877 72.2809L133.695 72.2281C133.789 71.5476 133.764 70.8394 133.601 70.1309C133.437 69.4157 133.147 68.7616 132.76 68.1853C132.806 68.143 132.894 68.0652 132.919 68.0423C132.926 67.9617 132.92 67.8772 133.003 67.788C133.18 67.6221 133.403 67.4845 133.671 67.3186C133.799 67.2436 133.917 67.1952 134.045 67.1007C134.074 67.0794 134.113 67.0455 134.144 67.0211C134.359 66.8492 134.409 66.5527 134.254 66.3588C134.099 66.1649 133.799 66.1466 133.584 66.3185C133.553 66.3428 133.512 66.3744 133.484 66.3981C133.364 66.5019 133.289 66.6044 133.188 66.712C132.966 66.937 132.783 67.1247 132.582 67.2601C132.495 67.3108 132.367 67.2932 132.309 67.2898L132.139 67.4117C131.164 66.3901 129.838 65.737 128.41 65.6101C128.406 65.5503 128.4 65.4421 128.399 65.4095C128.341 65.3536 128.27 65.3058 128.252 65.1849C128.233 64.9434 128.265 64.6835 128.303 64.37C128.324 64.2236 128.359 64.1019 128.365 63.9429C128.366 63.9068 128.364 63.8543 128.364 63.8153C128.364 63.5396 128.162 63.3161 127.914 63.3162H127.914ZM127.352 66.8003L127.219 69.1566L127.209 69.1614C127.2 69.3722 127.026 69.5406 126.813 69.5406C126.726 69.5406 126.646 69.5126 126.58 69.4647L126.576 69.4667L124.644 68.097C125.238 67.5131 125.998 67.0816 126.873 66.8828C127.033 66.8465 127.193 66.8196 127.352 66.8003ZM128.478 66.8003C129.5 66.926 130.445 67.3887 131.169 68.098L129.249 69.459L129.243 69.4561C129.072 69.5806 128.832 69.5497 128.7 69.3832C128.645 69.315 128.617 69.2347 128.613 69.1538L128.611 69.1528L128.478 66.8003ZM123.944 68.9772L125.708 70.5551L125.706 70.5647C125.865 70.7031 125.889 70.9433 125.756 71.1099C125.701 71.1781 125.629 71.2238 125.55 71.2452L125.548 71.2529L123.287 71.9056C123.172 70.8531 123.42 69.8301 123.944 68.9772ZM131.873 68.9781C132.135 69.403 132.333 69.8775 132.451 70.3919C132.568 70.9002 132.597 71.4076 132.549 71.8979L130.276 71.2433L130.275 71.2337C130.071 71.1781 129.946 70.971 129.993 70.7634C130.013 70.6783 130.058 70.6063 130.119 70.5532L130.118 70.5484L131.873 68.9781H131.873ZM127.553 70.677H128.275L128.724 71.2385L128.563 71.9392L127.914 72.2511L127.264 71.9382L127.102 71.2375L127.553 70.677ZM129.87 72.5985C129.9 72.597 129.931 72.5998 129.961 72.6053L129.965 72.6005L132.304 72.9959C131.961 73.9577 131.306 74.7909 130.431 75.3484L129.523 73.1552L129.526 73.1514C129.442 72.9576 129.526 72.7303 129.718 72.6379C129.767 72.6142 129.818 72.6011 129.87 72.5985H129.87ZM125.941 72.6081C126.119 72.6107 126.28 72.7345 126.321 72.9162C126.34 73.0013 126.331 73.0856 126.299 73.16L126.306 73.1687L125.407 75.3398C124.567 74.8008 123.898 73.9938 123.54 73.0036L125.859 72.6101L125.863 72.6149C125.889 72.6101 125.915 72.6078 125.941 72.6081V72.6081ZM127.9 73.5593C127.962 73.557 128.025 73.5698 128.085 73.5987C128.164 73.6365 128.225 73.6961 128.263 73.7676H128.271L129.415 75.8331C129.266 75.8829 129.114 75.9254 128.958 75.9608C128.083 76.1593 127.212 76.0991 126.423 75.8303L127.563 73.7686H127.565C127.633 73.6407 127.763 73.5644 127.9 73.5593Z" fill="#326CE5" stroke="#326CE5" stroke-width="0.25"/>
<path fill-rule="evenodd" clip-rule="evenodd" d="M214.712 39.4231C207.691 39.4231 202 33.7319 202 26.7115C202 23.3402 203.339 20.107 205.723 17.7231C208.107 15.3392 211.34 14 214.712 14C221.732 14 227.423 19.6911 227.423 26.7115C227.423 33.7319 221.732 39.4231 214.712 39.4231Z" fill="url(#paint1_linear_12555_17395)"/>
<g clip-path="url(#clip0_12555_17395)">
<path d="M221.277 22.0172V28.1618L222.33 28.8173V22.6727L221.277 22.0172ZM207.158 28.8173L208.211 28.1618V22.0172L207.158 22.6727V28.8173ZM212.321 28.7568L217.168 31.7652V30.4577L212.63 27.6408L212.321 27.8324V28.7568ZM217.446 33.5098L212.321 30.3266V31.6341L213.69 32.4846L212.043 33.5064C211.933 33.5737 211.933 33.7485 212.043 33.8157L212.846 34.3165L214.743 33.14L216.64 34.3165L217.443 33.8157C217.555 33.7518 217.555 33.577 217.446 33.5098V33.5098Z" fill="white"/>
<path d="M221.277 25.6812V31.13C221.277 31.2678 221.415 31.3552 221.527 31.2846L222.249 30.8375C222.299 30.8073 222.333 30.7468 222.333 30.6829V25.0291L221.277 25.6812ZM219.208 32.7233L219.887 32.2997C219.965 32.2527 220.012 32.1619 220.012 32.0678V26.4677L218.958 27.1232V32.572C218.958 32.7065 219.096 32.7939 219.208 32.7233ZM216.64 34.3199L217.612 33.7182C217.662 33.688 217.696 33.6275 217.696 33.5636V27.9064L216.64 28.5619V34.3199ZM211.877 33.7149L212.849 34.3166V28.5619L211.796 27.9064V33.5603C211.796 33.6241 211.827 33.6846 211.877 33.7149ZM209.602 32.3031L210.28 32.7266C210.39 32.7939 210.53 32.7098 210.53 32.572V27.1198L209.477 26.4644V32.0678C209.477 32.1653 209.524 32.256 209.602 32.3031ZM207.283 30.8644L207.961 31.288C208.071 31.3552 208.211 31.2711 208.211 31.1333V25.6812L207.158 25.0291V30.6325C207.158 30.7266 207.205 30.814 207.283 30.8644V30.8644Z" fill="white"/>
<path d="M222.33 22.6727L221.277 22.0172L219.38 23.1937L218.118 22.4105L219.765 21.3886C219.874 21.3214 219.874 21.1466 219.765 21.0794L219.083 20.6559C219.005 20.6088 218.912 20.6088 218.833 20.6559L217.061 21.755L215.799 20.9718L217.446 19.95C217.555 19.8827 217.555 19.7079 217.446 19.6407L216.765 19.2172C216.686 19.1701 216.593 19.1701 216.515 19.2172L214.743 20.3164L212.971 19.2172C212.893 19.1701 212.799 19.1701 212.721 19.2172L212.04 19.6407C211.93 19.7079 211.93 19.8827 212.04 19.95L221.271 25.6845L222.324 25.029L220.427 23.8525L222.33 22.6727V22.6727ZM210.405 20.6559L209.727 21.0794C209.618 21.1466 209.618 21.3214 209.727 21.3886L218.958 27.1232L220.012 26.4677L210.655 20.6559C210.577 20.6088 210.483 20.6088 210.405 20.6559ZM207.158 22.6727L209.055 23.8492L207.158 25.029L208.214 25.6811L210.108 24.5046L211.374 25.2912L209.477 26.4677L210.53 27.1232L212.427 25.9433L213.69 26.7299L211.793 27.9064L212.849 28.5618L214.743 27.382L216.64 28.5618L217.693 27.9064L208.211 22.0172L207.158 22.6727Z" fill="white"/>
</g>
<path fill-rule="evenodd" clip-rule="evenodd" d="M69.1038 106.615C62.8785 103.655 60.2477 96.2402 63.228 90.055C64.6591 87.0848 67.2193 84.8011 70.3452 83.7063C73.4711 82.6115 76.9067 82.7953 79.8962 84.2172C86.1216 87.1781 88.7523 94.5925 85.772 100.778C82.7918 106.963 75.3292 109.576 69.1038 106.615V106.615Z" fill="#9D0FB0"/>
<path d="M72.2068 90.8037L72.2306 90.8164L74.2491 91.9609C74.317 91.9994 74.3936 92.0196 74.4715 92.0196C74.5494 92.0196 74.626 91.9994 74.6939 91.9609L76.6966 90.8289C76.8517 90.7405 77.0351 90.7169 77.2073 90.7632C77.3795 90.8095 77.5267 90.922 77.6171 91.0765C77.7076 91.231 77.734 91.415 77.6908 91.5889C77.6475 91.7628 77.538 91.9126 77.3859 92.0061L77.3629 92.0196L76.207 92.6741C76.172 92.694 76.1429 92.7228 76.1227 92.7577C76.1025 92.7926 76.0918 92.8322 76.0918 92.8726C76.0918 92.913 76.1025 92.9527 76.1227 92.9875C76.1429 93.0224 76.172 93.0512 76.207 93.0711L79.3277 94.84C79.3955 94.8786 79.4721 94.8989 79.5501 94.8989C79.628 94.8989 79.7047 94.8786 79.7725 94.84L81.703 93.746C81.858 93.6566 82.0418 93.6322 82.2146 93.6782C82.3874 93.7241 82.5352 93.8367 82.626 93.9915C82.7168 94.1463 82.7433 94.3308 82.6998 94.5051C82.6562 94.6794 82.5461 94.8295 82.3933 94.9227L82.3701 94.9364L81.2831 95.5512C81.2481 95.5711 81.219 95.5999 81.1988 95.6348C81.1785 95.6696 81.1678 95.7093 81.1678 95.7496C81.1678 95.79 81.1785 95.8297 81.1988 95.8645C81.219 95.8994 81.2481 95.9282 81.2831 95.948L82.3751 96.5672C82.5307 96.6548 82.6458 96.8003 82.6956 96.9724C82.7455 97.1445 82.7261 97.3294 82.6416 97.4873C82.5572 97.6451 82.4144 97.7633 82.2441 97.8163C82.0738 97.8692 81.8896 97.8528 81.7312 97.7705L81.7076 97.7574L79.7718 96.6601C79.704 96.6216 79.6274 96.6014 79.5495 96.6014C79.4716 96.6014 79.395 96.6216 79.3272 96.6601L76.1717 98.4486C76.1367 98.4684 76.1076 98.4972 76.0874 98.532C76.0671 98.5669 76.0565 98.6065 76.0565 98.6469C76.0565 98.6873 76.0671 98.7269 76.0874 98.7617C76.1076 98.7966 76.1367 98.8254 76.1717 98.8452L77.4753 99.5842C77.6293 99.6725 77.7429 99.8179 77.7918 99.9893C77.8407 100.161 77.8211 100.345 77.7371 100.502C77.653 100.659 77.5113 100.776 77.3421 100.83C77.173 100.883 76.9897 100.868 76.8316 100.787L76.8079 100.774L74.6611 99.5569C74.5932 99.5185 74.5166 99.4983 74.4387 99.4983C74.3608 99.4983 74.2842 99.5185 74.2163 99.5569L72.05 100.786C71.8951 100.875 71.7117 100.898 71.5395 100.852C71.3673 100.806 71.2201 100.694 71.1296 100.539C71.039 100.385 71.0124 100.201 71.0555 100.027C71.0986 99.8532 71.2079 99.7033 71.3599 99.6097L71.3829 99.5959L72.7047 98.845C72.7306 98.8304 72.7534 98.8107 72.7718 98.7872C72.7901 98.7636 72.8037 98.7367 72.8116 98.7079C72.8196 98.6791 72.8219 98.649 72.8183 98.6193C72.8147 98.5897 72.8054 98.561 72.7908 98.5349C72.7706 98.4986 72.7408 98.4687 72.7047 98.4484L69.5776 96.6763C69.5097 96.6379 69.4331 96.6177 69.3552 96.6177C69.2772 96.6177 69.2006 96.6379 69.1327 96.6763L67.2915 97.7181C67.1364 97.8071 66.9526 97.8312 66.78 97.785C66.6075 97.7388 66.4599 97.6261 66.3693 97.4714C66.2787 97.3166 66.2523 97.1321 66.296 96.958C66.3396 96.7838 66.4497 96.6339 66.6024 96.5408L66.6252 96.5274L67.6208 95.9639C67.6559 95.9442 67.6851 95.9154 67.7054 95.8805C67.7257 95.8456 67.7364 95.8059 67.7364 95.7655C67.7364 95.7251 67.7257 95.6854 67.7054 95.6506C67.6851 95.6157 67.6559 95.5869 67.6208 95.5671L66.627 95.0033C66.473 94.915 66.3594 94.7696 66.3104 94.5982C66.2615 94.4269 66.2812 94.243 66.3652 94.086C66.4492 93.929 66.5909 93.8112 66.7601 93.7578C66.9293 93.7044 67.1125 93.7197 67.2707 93.8003L67.2945 93.8131L69.1339 94.8559C69.2017 94.8944 69.2783 94.9146 69.3562 94.9146C69.434 94.9146 69.5106 94.8944 69.5784 94.8559L72.7359 93.0693C72.7708 93.0494 72.7999 93.0206 72.8202 92.9857C72.8404 92.9508 72.8511 92.9112 72.8511 92.8708C72.8511 92.8304 72.8404 92.7907 72.8202 92.7559C72.7999 92.721 72.7708 92.6922 72.7359 92.6723L71.5631 92.0071C71.4091 91.9188 71.2955 91.7734 71.2466 91.602C71.1977 91.4306 71.2173 91.2468 71.3013 91.0898C71.3853 90.9327 71.5271 90.815 71.6962 90.7616C71.8654 90.7082 72.0486 90.7234 72.2068 90.804V90.8037ZM74.2486 93.7812L71.0906 95.568C71.0556 95.5878 71.0265 95.6166 71.0062 95.6515C70.9859 95.6864 70.9753 95.7261 70.9753 95.7665C70.9753 95.8069 70.9859 95.8465 71.0062 95.8814C71.0265 95.9163 71.0556 95.9451 71.0906 95.9649L74.216 97.7365C74.2839 97.775 74.3605 97.7952 74.4384 97.7952C74.5163 97.7952 74.5929 97.775 74.6608 97.7365L77.8159 95.948C77.8509 95.9282 77.88 95.8994 77.9003 95.8645C77.9205 95.8297 77.9312 95.79 77.9312 95.7496C77.9312 95.7093 77.9205 95.6696 77.9003 95.6348C77.88 95.5999 77.8509 95.5711 77.8159 95.5512L74.6929 93.7812C74.6251 93.7427 74.5485 93.7226 74.4707 93.7226C74.3928 93.7226 74.3163 93.7427 74.2484 93.7812H74.2486Z" fill="white"/>
<circle cx="74" cy="34" r="21" fill="url(#paint2_linear_12555_17395)"/>
<path d="M76.4814 29.6473H71.4431L68.916 34.0152L71.4431 38.3528H76.4814L79.0275 34.0136L76.4814 29.6473ZM75.8225 37.1893H72.1306L70.2528 34.0215L72.121 30.8108H75.8225L77.6892 34.0215L75.8225 37.1893Z" fill="white"/>
<path d="M76.4814 39.0146H71.4431L68.916 43.3785L71.4431 47.7201H76.4814L79.0275 43.3785L76.4814 39.0146ZM75.8225 46.5544H72.1306L70.2528 43.3865L72.121 40.174H75.8225L77.6892 43.3865L75.8225 46.5544Z" fill="white"/>
<path d="M76.4814 20.28H71.4431L68.916 24.6495L71.4431 28.9855H76.4814L79.0275 24.6495L76.4814 20.28ZM75.8225 27.826H72.1306L70.2528 24.6495L72.121 21.4411H75.8225L77.6829 24.6495L75.8225 27.826Z" fill="white"/>
<path d="M84.7138 34.3311H79.6739L77.1484 38.6989L79.6739 43.0365H84.7138L87.26 38.6989L84.7138 34.3311ZM84.047 41.8719H80.355L78.4868 38.7052L80.355 35.4893H84.047L85.9153 38.6989L84.047 41.8719Z" fill="white"/>
<path d="M84.7138 24.9637H79.6739L77.1484 29.3555L79.6739 33.7201H84.7138L87.26 29.3555L84.7138 24.9637ZM84.047 32.5514H80.355L78.4868 29.3651L80.355 26.1356H84.047L85.9153 29.3651L84.047 32.5514Z" fill="white"/>
<path d="M68.2637 34.3311H63.2507L60.7363 38.6989L63.2507 43.0365H68.2637L70.797 38.6989L68.2637 34.3311ZM67.6018 41.8719H63.9284L62.0695 38.7052L63.9284 35.4893H67.6018L69.4607 38.7052L67.6018 41.8719Z" fill="white"/>
<path d="M68.2637 24.9637H63.2507L60.7363 29.3555L63.2507 33.7201H68.2637L70.797 29.3555L68.2637 24.9637ZM67.6018 32.5514H63.9284L62.0695 29.3619L63.9284 26.1324H67.6018L69.4607 29.3619L67.6018 32.5514Z" fill="white"/>
<path fill-rule="evenodd" clip-rule="evenodd" d="M15.4085 92.3042C9.79249 89.633 7.41923 82.9443 10.1078 77.3645C11.3989 74.685 13.7084 72.6248 16.5284 71.6372C19.3484 70.6495 22.4477 70.8153 25.1446 72.098C30.7607 74.7692 33.1339 81.4579 30.4454 87.0377C27.7568 92.6175 21.0246 94.9754 15.4085 92.3042V92.3042Z" fill="#D62783"/>
<path fill-rule="evenodd" clip-rule="evenodd" d="M19.964 83.5671C19.19 83.5671 18.5879 82.9607 18.5879 82.181C18.5879 81.4013 19.19 80.7948 19.964 80.7948C20.7381 80.7948 21.3401 81.4013 21.3401 82.181C21.3401 82.9607 20.7381 83.5671 19.964 83.5671" fill="white"/>
<path fill-rule="evenodd" clip-rule="evenodd" d="M22.6528 82.8307C22.3089 82.8307 22.0078 82.549 22.0078 82.1809C22.0078 81.8343 22.2873 81.5311 22.6528 81.5311C22.9968 81.5311 23.2979 81.8127 23.2979 82.1809C23.2979 82.549 22.9968 82.8306 22.6528 82.8306V82.8307ZM24.9751 83.4369C24.8891 83.7834 24.545 83.9781 24.201 83.8915C23.857 83.8048 23.6634 83.4584 23.7494 83.112C23.8354 82.7655 24.1794 82.5701 24.5235 82.6567C24.8454 82.7434 25.0607 83.0465 24.9961 83.3933C24.9961 83.3933 24.9961 83.4148 24.9747 83.4364L24.9751 83.4369ZM24.5228 81.7903C24.1786 81.8769 23.8346 81.6603 23.7486 81.3137C23.6626 80.9673 23.8776 80.6206 24.2217 80.534C24.5656 80.4473 24.9097 80.664 24.9957 81.0107C25.0171 81.0973 25.0171 81.1839 24.9957 81.2705C24.9741 81.5088 24.8021 81.7253 24.5226 81.7903H24.5228ZM26.8015 83.3496C26.7369 83.6961 26.4143 83.9344 26.0703 83.8695C25.7264 83.8045 25.4898 83.4796 25.5544 83.1331C25.6188 82.7867 25.9414 82.5483 26.2854 82.6132C26.608 82.6782 26.8446 82.9814 26.8231 83.3063C26.8017 83.3279 26.8017 83.3279 26.8017 83.3496H26.8015ZM26.2866 81.7477C25.9426 81.8127 25.62 81.5745 25.5556 81.2279C25.4911 80.8815 25.7275 80.5565 26.0716 80.4915C26.4156 80.4266 26.7382 80.6647 26.8026 81.0113C26.8026 81.0763 26.8241 81.1196 26.8026 81.1845C26.7812 81.4661 26.5661 81.7044 26.2866 81.7477ZM25.8351 85.5813C25.6631 85.8845 25.276 85.9928 24.975 85.8195C24.674 85.6462 24.5664 85.2564 24.7385 84.9532C24.9105 84.6499 25.2976 84.5416 25.5986 84.7149C25.8136 84.8449 25.9425 85.0831 25.921 85.3214C25.8996 85.408 25.878 85.4946 25.8351 85.5812V85.5813ZM25.5986 79.6903C25.2976 79.8635 24.9105 79.7552 24.7385 79.4519C24.5666 79.1487 24.674 78.7589 24.975 78.5856C25.276 78.4124 25.663 78.5206 25.8351 78.824C25.8996 78.9538 25.921 79.0621 25.921 79.192C25.8996 79.387 25.7921 79.5819 25.5986 79.6902" fill="white"/>
<path d="M19.9855 88.6568C18.2654 88.6568 16.6743 87.9854 15.4487 86.7725C14.2662 85.5378 13.5996 83.913 13.5996 82.2023C13.5996 80.4694 14.2662 78.8667 15.4702 77.632C16.6743 76.4195 18.2869 75.748 19.9855 75.748C21.4046 75.748 22.7592 76.2028 23.8773 77.0694L23.082 78.1088C22.1789 77.4162 21.1037 77.048 19.9859 77.048C18.6314 77.048 17.3413 77.5894 16.3737 78.564C15.4066 79.5387 14.8904 80.8166 14.8904 82.2026C14.8904 83.5671 15.4279 84.8666 16.3955 85.8412C17.3631 86.8158 18.6318 87.3356 20.0078 87.3356C21.1474 87.3356 22.2225 86.9674 23.1039 86.2744L23.878 87.3137C22.76 88.1798 21.4055 88.6565 19.9863 88.6565L19.9855 88.6568Z" fill="white"/>
<path d="M31.5286 117C39.4819 117.002 46.01 123.538 46 131.489C45.9898 139.561 39.4885 146.006 31.3623 146C23.4177 145.994 16.9944 139.452 17 131.371C17.0054 123.469 23.5472 116.998 31.5286 117ZM27.1322 122.089C27.3146 122.994 27.1375 123.837 26.8678 124.667C26.6811 125.242 26.423 125.795 26.2689 126.378C26.015 127.338 25.7269 128.303 25.6212 129.285C25.4692 130.696 26.0196 131.94 26.9613 133.176L22.6324 132.257C22.64 132.395 22.6319 132.448 22.6469 132.492C23.0572 133.707 23.7792 134.73 24.5886 135.695C24.6742 135.797 24.8692 135.85 25.0136 135.85C29.3298 135.858 33.6462 135.858 37.9624 135.852C38.0964 135.852 38.275 135.826 38.3571 135.739C39.2822 134.759 39.9897 133.643 40.4319 132.236L35.8492 133.141C36.1515 132.543 36.4966 132.018 36.695 131.441C37.3734 129.467 37.0923 127.559 36.1183 125.759C35.3368 124.315 34.6159 122.877 35.0058 121.136C34.1804 121.958 33.8635 123.004 33.6623 124.082C33.4642 125.143 33.3474 126.221 33.1941 127.298C33.1723 127.265 33.144 127.241 33.1396 127.213C33.1219 127.1 33.1053 126.986 33.0993 126.872C33.0061 125.108 32.6642 123.408 31.9427 121.784C31.5179 120.829 31.0496 119.851 31.4874 118.711C31.1911 118.869 30.9233 119.025 30.7314 119.249C30.1585 119.916 29.9216 120.717 29.8606 121.594C29.8085 122.344 29.7371 123.097 29.5993 123.834C29.4544 124.608 29.2247 125.367 28.7085 126.079C28.5 124.558 28.4769 123.055 27.1322 122.089ZM38.2613 137.183H24.7234V139.553H38.2613V137.183ZM27.4077 140.778C27.3964 142.752 29.3912 144.222 31.8564 144.116C33.8994 144.027 35.7075 142.407 35.5521 140.778H27.4077Z" fill="#E75225"/>
<path fill-rule="evenodd" clip-rule="evenodd" d="M197.388 101.56C190.914 98.4807 188.178 90.7698 191.277 84.3372C192.766 81.2482 195.428 78.8732 198.679 77.7346C201.93 76.5959 205.503 76.7871 208.612 78.2658C215.086 81.3453 217.822 89.0562 214.723 95.4887C211.623 101.921 203.862 104.64 197.388 101.56V101.56Z" fill="#F49322"/>
<path d="M196.203 85.7791L195.795 85.091L198.201 83.8676L198.609 84.5557L196.203 85.7791ZM200.036 83.8293L199.628 83.1412L201.79 82.0325L202.197 82.7206L200.036 83.8293Z" fill="white"/>
<path d="M202.238 89.3729L200.077 88.3024L200.444 87.6142L202.605 88.6847L202.238 89.3729ZM198.609 87.576L196.447 86.5055L196.814 85.8174L198.976 86.8879L198.609 87.576Z" fill="white"/>
<path d="M203.828 89.2965L203.461 88.6083L205.663 87.6143L206.03 88.3025L203.828 89.2965ZM207.498 87.6143L207.131 86.9261L209.333 85.9321L209.7 86.6203L207.498 87.6143Z" fill="white"/>
<path d="M201.994 98.3572L199.547 97.1338L199.914 96.4457L202.361 97.6691L201.994 98.3572ZM198.323 96.5986L196.162 95.5281L196.529 94.84L198.69 95.9104L198.323 96.5986Z" fill="white"/>
<path d="M196.122 86.7733H195.307V89.7171H196.122V86.7733Z" fill="white"/>
<path d="M203.298 94.3811H202.482V97.4014H203.298V94.3811Z" fill="white"/>
<path d="M195.712 87.0791C195.427 87.0791 195.141 86.9644 194.938 86.7732C194.734 86.582 194.611 86.3144 194.611 86.0468C194.611 85.7792 194.734 85.5116 194.938 85.3204C195.345 84.9381 196.079 84.9381 196.487 85.3204C196.691 85.5116 196.813 85.7792 196.813 86.0468C196.813 86.3144 196.691 86.582 196.487 86.7732C196.283 86.9644 195.998 87.0791 195.712 87.0791ZM195.712 85.7792C195.631 85.7792 195.549 85.8174 195.508 85.8557C195.468 85.8939 195.427 85.9704 195.427 86.0468C195.427 86.1233 195.468 86.1997 195.508 86.238C195.631 86.3527 195.794 86.3527 195.916 86.238C195.957 86.1997 195.998 86.1233 195.998 86.0468C195.998 85.9704 195.957 85.8939 195.916 85.8557C195.876 85.8174 195.794 85.7792 195.712 85.7792Z" fill="white"/>
<path d="M195.712 95.6428C195.427 95.6428 195.141 95.5281 194.938 95.3369C194.734 95.1458 194.611 94.8782 194.611 94.6105C194.611 94.3429 194.734 94.0753 194.938 93.8841C195.345 93.5018 196.079 93.5018 196.487 93.8841C196.691 94.0753 196.813 94.3429 196.813 94.6105C196.813 94.8782 196.691 95.1458 196.487 95.3369C196.283 95.5281 195.998 95.6428 195.712 95.6428ZM195.712 94.3429C195.631 94.3429 195.549 94.3811 195.508 94.4194C195.468 94.4576 195.427 94.5341 195.427 94.6105C195.427 94.687 195.468 94.7635 195.508 94.8017C195.631 94.9164 195.794 94.9164 195.916 94.8017C195.957 94.7635 195.998 94.687 195.998 94.6105C195.998 94.5341 195.957 94.4576 195.916 94.4194C195.876 94.3811 195.794 94.3429 195.712 94.3429Z" fill="white"/>
<path d="M202.89 99.0836C202.605 99.0836 202.319 98.9689 202.115 98.7777C201.911 98.5866 201.789 98.3189 201.789 98.0513C201.789 97.7837 201.911 97.5161 202.115 97.3249C202.564 96.9044 203.257 96.9044 203.665 97.3249C204.114 97.7455 204.114 98.3954 203.665 98.7777C203.42 98.9689 203.176 99.0836 202.89 99.0836ZM202.89 97.7455C202.809 97.7455 202.727 97.7837 202.686 97.8219C202.564 97.9366 202.564 98.0895 202.686 98.2042C202.809 98.3189 202.972 98.3189 203.094 98.2042C203.216 98.0895 203.216 97.9366 203.094 97.8219C203.012 97.7837 202.931 97.7455 202.89 97.7455Z" fill="white"/>
<path d="M202.89 90.4816C202.605 90.4816 202.319 90.3669 202.115 90.1758C201.911 89.9846 201.789 89.717 201.789 89.4494C201.789 89.1818 201.911 88.9142 202.115 88.723C202.564 88.3025 203.257 88.3025 203.665 88.723C204.114 89.1435 204.114 89.7935 203.665 90.1758C203.42 90.4052 203.176 90.4816 202.89 90.4816ZM202.89 89.1818C202.809 89.1818 202.727 89.22 202.686 89.2582C202.564 89.3729 202.564 89.5259 202.686 89.6405C202.809 89.7552 202.972 89.7552 203.094 89.6405C203.216 89.5259 203.216 89.3729 203.094 89.2582C203.012 89.22 202.931 89.1818 202.89 89.1818Z" fill="white"/>
<path d="M209.947 95.6428C209.662 95.6428 209.376 95.5281 209.172 95.3369C208.724 94.9164 208.724 94.2665 209.172 93.8841C209.58 93.5018 210.314 93.5018 210.722 93.8841C210.926 94.0753 211.048 94.3429 211.048 94.6105C211.048 94.8782 210.926 95.1458 210.722 95.3369C210.518 95.5281 210.233 95.6428 209.947 95.6428ZM209.947 94.3429C209.866 94.3429 209.784 94.3811 209.743 94.4194C209.621 94.5341 209.621 94.687 209.743 94.8017C209.866 94.9164 210.029 94.9164 210.151 94.8017C210.273 94.687 210.273 94.5341 210.151 94.4194C210.11 94.3811 210.029 94.3429 209.947 94.3429Z" fill="white"/>
<path d="M209.947 87.0791C209.662 87.0791 209.376 86.9644 209.172 86.7732C208.724 86.3527 208.724 85.7027 209.172 85.3204C209.58 84.9381 210.314 84.9381 210.722 85.3204C211.171 85.741 211.171 86.3909 210.722 86.7732C210.518 86.9644 210.233 87.0791 209.947 87.0791ZM209.947 85.7792C209.866 85.7792 209.784 85.8174 209.743 85.8557C209.621 85.9704 209.621 86.1233 209.743 86.238C209.866 86.3527 210.029 86.3527 210.151 86.238C210.273 86.1233 210.273 85.9704 210.151 85.8557C210.11 85.8174 210.029 85.7792 209.947 85.7792Z" fill="white"/>
<path d="M202.89 83.1795C202.605 83.1795 202.319 83.0648 202.115 82.8737C201.911 82.6825 201.789 82.4149 201.789 82.1473C201.789 81.8796 201.911 81.612 202.115 81.4209C202.564 81.0003 203.257 81.0003 203.665 81.4209C204.114 81.8414 204.114 82.4913 203.665 82.8737C203.42 83.0648 203.176 83.1795 202.89 83.1795ZM202.89 81.8796C202.809 81.8796 202.727 81.9179 202.686 81.9561C202.564 82.0708 202.564 82.2237 202.686 82.3384C202.809 82.4531 202.972 82.4531 203.094 82.3384C203.216 82.2237 203.216 82.0708 203.094 81.9561C203.012 81.8796 202.931 81.8796 202.89 81.8796Z" fill="white"/>
<path d="M196.122 90.4816H195.307V93.7694H196.122V90.4816Z" fill="white"/>
<path d="M210.316 86.7732H209.5V89.717H210.316V86.7732Z" fill="white"/>
<path d="M210.316 90.4816H209.5V93.7694H210.316V90.4816Z" fill="white"/>
<path d="M207.175 84.5174L207.582 83.8292L209.907 85.0144L209.499 85.7025L207.175 84.5174ZM203.26 82.5293L203.668 81.8412L206.155 83.1028L205.747 83.791L203.26 82.5293Z" fill="white"/>
<path d="M203.3 90.1757H202.484V93.1959H203.3V90.1757Z" fill="white"/>
<path d="M203.422 97.7072L205.787 96.5602L206.154 97.2484L203.789 98.3953L203.422 97.7072ZM206.97 95.9868L209.294 94.8398L209.661 95.528L207.337 96.6749L206.97 95.9868Z" fill="white"/>
<path d="M29.0574 54.0578C26.8164 52.9848 25.8693 50.298 26.9422 48.0566C27.4574 46.9802 28.379 46.1527 29.5043 45.7559C30.6296 45.3592 31.8664 45.4258 32.9426 45.9411L33.1583 45.4904L32.9426 45.9411C35.1836 47.014 36.1307 49.7009 35.0578 51.9423C33.9849 54.1836 31.2985 55.1307 29.0574 54.0578Z" fill="#00B39F" stroke="#00B39F"/>
<path d="M259.057 160.058C256.816 158.985 255.869 156.298 256.942 154.057C257.457 152.98 258.379 152.153 259.504 151.756C260.63 151.359 261.866 151.426 262.943 151.941L263.158 151.49L262.943 151.941C265.184 153.014 266.131 155.701 265.058 157.942C263.985 160.184 261.298 161.131 259.057 160.058Z" fill="#00B39F" stroke="#00B39F"/>
<path d="M181.057 9.05778C178.816 7.98481 177.869 5.29798 178.942 3.05657C179.457 1.98023 180.379 1.15267 181.504 0.755943C182.63 0.359215 183.866 0.425806 184.943 0.941064L185.158 0.490428L184.943 0.941064C187.184 2.01404 188.131 4.70086 187.058 6.94227C185.985 9.18364 183.298 10.1307 181.057 9.05778Z" fill="#00B39F" stroke="#00B39F"/>
<path d="M24.0574 175.058C21.8164 173.985 20.8693 171.298 21.9422 169.057C22.4574 167.98 23.379 167.153 24.5043 166.756C25.6296 166.359 26.8664 166.426 27.9426 166.941L28.1583 166.49L27.9426 166.941C30.1836 168.014 31.1307 170.701 30.0578 172.942C28.9849 175.184 26.2985 176.131 24.0574 175.058Z" fill="#00B39F" stroke="#00B39F"/>
<path d="M111.746 20.9203C111.15 22.1655 111.676 23.6582 112.921 24.2543C114.166 24.8503 115.658 24.3242 116.254 23.079C116.85 21.8338 116.324 20.3411 115.079 19.745L115.293 19.2981L115.079 19.745C114.481 19.4588 113.794 19.4218 113.169 19.6422C112.544 19.8626 112.032 20.3223 111.746 20.9203ZM111.746 20.9203L111.295 20.7044L111.746 20.9203Z" fill="#00B39F" stroke="#00B39F"/>
<path d="M182.746 56.9203C182.15 58.1655 182.676 59.6582 183.921 60.2543C185.166 60.8503 186.658 60.3242 187.254 59.079C187.85 57.8338 187.324 56.3411 186.079 55.745L186.293 55.2981L186.079 55.745C185.481 55.4588 184.794 55.4218 184.169 55.6422C183.544 55.8626 183.032 56.3223 182.746 56.9203ZM182.746 56.9203L182.295 56.7044L182.746 56.9203Z" fill="#00B39F" stroke="#00B39F"/>
<path d="M276.746 124.92C276.15 126.166 276.676 127.658 277.921 128.254C279.166 128.85 280.658 128.324 281.254 127.079C281.85 125.834 281.324 124.341 280.079 123.745L280.293 123.298L280.079 123.745C279.481 123.459 278.794 123.422 278.169 123.642C277.544 123.863 277.032 124.322 276.746 124.92ZM276.746 124.92L276.295 124.704L276.746 124.92Z" fill="#00B39F" stroke="#00B39F"/>
<path d="M0.745706 118.92C0.149654 120.166 0.675831 121.658 1.92083 122.254C3.16581 122.85 4.65825 122.324 5.25429 121.079C5.85034 119.834 5.32418 118.341 4.07917 117.745L4.29315 117.298L4.07916 117.745C3.4813 117.459 2.79423 117.422 2.16909 117.642C1.54395 117.863 1.03194 118.322 0.745706 118.92ZM0.745706 118.92L0.29471 118.704L0.745706 118.92Z" fill="#00B39F" stroke="#00B39F"/>
<defs>
<linearGradient id="paint0_linear_12555_17395" x1="141.905" y1="95.7438" x2="141.905" y2="215.368" gradientUnits="userSpaceOnUse">
<stop stop-color="#00B39F"/>
<stop offset="1" stop-color="white"/>
</linearGradient>
<linearGradient id="paint1_linear_12555_17395" x1="214.712" y1="14" x2="214.712" y2="39.4231" gradientUnits="userSpaceOnUse">
<stop stop-color="#2BEDA7"/>
<stop offset="0.789609" stop-color="#0DA6E5"/>
<stop offset="0.9999" stop-color="#0593F5"/>
<stop offset="1" stop-color="#018AFD"/>
</linearGradient>
<linearGradient id="paint2_linear_12555_17395" x1="74" y1="13" x2="74" y2="55" gradientUnits="userSpaceOnUse">
<stop stop-color="#795AA5"/>
<stop offset="1" stop-color="#6B91C7"/>
</linearGradient>
<clipPath id="clip0_12555_17395">
<rect width="15.779" height="15.779" fill="white" transform="translate(206.852 18.8505)"/>
</clipPath>
</defs>
</svg>
