<svg width="282" height="287" viewBox="0 0 282 287" fill="none" xmlns="http://www.w3.org/2000/svg">
<path d="M215.523 13C221.83 13.0013 227.008 18.185 227 24.491C226.992 30.8928 221.836 36.0046 215.391 36C209.09 35.9955 203.996 30.8065 204 24.3975C204.004 18.1306 209.193 12.9987 215.523 13ZM212.036 17.036C212.181 17.7535 212.04 18.4227 211.826 19.0809C211.678 19.5367 211.473 19.9756 211.351 20.4376C211.15 21.1989 210.921 21.9646 210.837 22.7431C210.717 23.8627 211.153 24.8488 211.9 25.8293L208.467 25.1007C208.473 25.2101 208.467 25.2515 208.479 25.2865C208.804 26.2502 209.377 27.0621 210.019 27.8273C210.086 27.9083 210.241 27.9499 210.356 27.9501C213.779 27.9565 217.202 27.9562 220.625 27.9517C220.732 27.9515 220.873 27.9313 220.938 27.8622C221.672 27.0847 222.233 26.1993 222.584 25.0837L218.949 25.8011C219.189 25.3274 219.463 24.911 219.62 24.4534C220.158 22.8879 219.935 21.3744 219.163 19.947C218.543 18.8015 217.971 17.6609 218.28 16.2804C217.626 16.932 217.374 17.7615 217.215 18.6164C217.058 19.4584 216.965 20.3128 216.844 21.1671C216.826 21.1413 216.804 21.1223 216.8 21.1001C216.786 21.0105 216.773 20.9202 216.768 20.8296C216.694 19.4303 216.423 18.0821 215.851 16.7944C215.514 16.0364 215.143 15.2614 215.49 14.3573C215.255 14.4822 215.043 14.6064 214.89 14.7836C214.436 15.3126 214.248 15.9481 214.2 16.6437C214.158 17.2381 214.102 17.8353 213.993 18.4197C213.878 19.0339 213.695 19.6359 213.286 20.2004C213.121 18.9946 213.102 17.8021 212.036 17.036ZM220.862 29.0068H210.125V30.887H220.862V29.0068ZM212.254 31.8583C212.245 33.4238 213.827 34.5902 215.783 34.5055C217.403 34.4354 218.837 33.1505 218.714 31.8583H212.254Z" fill="#E75225"/>
<circle cx="141.905" cy="191.372" r="95.1281" stroke="url(#paint0_linear_12903_18518)"/>
<path d="M167.256 153.667H147.076V163.388H167.256V153.667Z" fill="#00B39F"/>
<path d="M169.093 186.416V182.388C169.093 177.749 165.191 173.989 160.382 173.989H127.814V171.339H115.891V182.815H157.169V186.416H169.093Z" fill="#00B39F"/>
<path d="M127.814 168.164V163.388H143.781V153.667H115.891V168.164H127.814Z" fill="#00D3A9"/>
<path d="M157.168 189.542V195.214H141.201V204.935H160.873C163.009 204.969 165.071 204.154 166.608 202.67C168.144 201.186 169.03 199.153 169.07 197.017V189.542H157.168Z" fill="#00D3A9"/>
<path d="M126.857 190.066V195.214H137.906V204.935H123.699C121.563 204.968 119.5 204.154 117.964 202.67C116.428 201.186 115.542 199.153 115.502 197.017V190.066H126.857Z" fill="#00B39F"/>
<path fill-rule="evenodd" clip-rule="evenodd" d="M244.503 76.8385C233.546 71.5927 228.916 58.457 234.161 47.4991C236.68 42.2369 241.186 38.191 246.687 36.2513C252.189 34.3117 258.236 34.6373 263.497 37.1564C274.454 42.4022 279.084 55.5379 273.839 66.4958C268.594 77.4538 255.459 82.0843 244.503 76.8385V76.8385Z" fill="#009639"/>
<path d="M259.749 54.3103L255.989 56.1932C256.086 56.4073 256.126 56.6509 256.118 56.8946C256.11 57.1235 256.054 57.345 255.957 57.5444L259.507 59.5232C259.829 59.154 260.304 58.9104 260.827 58.8734L260.989 55.0191C260.948 55.0118 260.916 55.0044 260.876 54.997C260.401 54.8936 260.014 54.6426 259.749 54.3103Z" fill="white"/>
<path d="M266.134 49.7102L254.88 43.7515C254.421 43.5005 253.849 43.5005 253.382 43.7515L242.136 49.7102C241.669 49.9538 241.387 50.4042 241.387 50.899V62.8163C241.379 63.0599 241.452 63.2962 241.581 63.503C241.709 63.7097 241.903 63.8869 242.128 64.005L253.382 69.9637C253.841 70.2148 254.413 70.2148 254.88 69.9637L266.134 64.005C266.601 63.7614 266.883 63.311 266.883 62.8163V50.899C266.883 50.4116 266.601 49.9538 266.134 49.7102ZM261.449 58.7921C262.487 58.9472 263.196 59.848 263.027 60.8005C262.858 61.753 261.875 62.4028 260.837 62.2477C259.798 62.0927 259.09 61.1919 259.259 60.2394C259.283 60.1064 259.324 59.9883 259.372 59.8702L255.749 58.0095C255.403 58.4451 254.839 58.7257 254.212 58.7257C253.584 58.7257 253.02 58.4451 252.674 58.0169L249.051 59.8702C249.14 60.0695 249.188 60.291 249.188 60.5199C249.188 60.771 249.132 61.0073 249.027 61.2214L252.714 63.2371C253.06 62.831 253.608 62.5726 254.212 62.5726C255.266 62.5726 256.119 63.3553 256.119 64.3225C256.119 65.2898 255.266 66.0725 254.212 66.0725C253.157 66.0725 252.304 65.2898 252.304 64.3225C252.304 64.0715 252.36 63.8352 252.465 63.6211L248.778 61.6053C248.431 62.0114 247.892 62.2699 247.28 62.2699C246.226 62.2699 245.372 61.4872 245.372 60.5199C245.372 59.5527 246.226 58.77 247.28 58.77C247.908 58.77 248.472 59.0506 248.818 59.4788L252.44 57.6181C252.352 57.4188 252.304 57.1973 252.304 56.9684C252.304 56.0749 253.028 55.344 253.97 55.2332V51.1205C253.455 51.0614 253.004 50.8103 252.698 50.4485L248.866 52.5012C248.963 52.708 249.019 52.9442 249.019 53.1805C249.019 54.1478 248.166 54.9305 247.111 54.9305C246.057 54.9305 245.203 54.1478 245.203 53.1805C245.203 52.2133 246.057 51.4306 247.111 51.4306C247.731 51.4306 248.278 51.6964 248.625 52.1173L252.457 50.0646C252.36 49.8579 252.304 49.6216 252.304 49.3853C252.304 48.418 253.157 47.6354 254.212 47.6354C255.266 47.6354 256.119 48.418 256.119 49.3853C256.119 50.2787 255.395 51.0097 254.453 51.1205V55.2332C254.96 55.2923 255.411 55.5359 255.709 55.883L259.396 53.8746C259.251 53.5645 259.203 53.2101 259.275 52.8483C259.476 51.8958 260.475 51.2755 261.513 51.4601C262.552 51.6447 263.228 52.5603 263.027 53.5128C262.866 54.2733 262.189 54.8271 261.392 54.9157V58.7774C261.409 58.7848 261.433 58.7921 261.449 58.7921Z" fill="white"/>
<path fill-rule="evenodd" clip-rule="evenodd" d="M120.661 86.3298C112.195 82.2762 108.617 72.1259 112.67 63.6584C114.616 59.5921 118.098 56.4657 122.349 54.9669C126.601 53.4681 131.273 53.7197 135.339 55.6663C143.805 59.7199 147.383 69.8702 143.33 78.3377C139.277 86.8052 129.128 90.3834 120.661 86.3298V86.3298Z" fill="#326CE5"/>
<path d="M127.84 60.5751C127.649 60.5847 127.462 60.632 127.29 60.7143L119.785 64.3001C119.591 64.3929 119.42 64.5279 119.286 64.695C119.151 64.8622 119.057 65.0573 119.009 65.2657L117.157 73.3205C117.114 73.5061 117.11 73.6983 117.143 73.8857C117.177 74.0732 117.248 74.2521 117.352 74.4118C117.377 74.4509 117.405 74.4887 117.434 74.5251L122.628 80.9837C122.763 81.1508 122.933 81.2857 123.127 81.3784C123.322 81.4712 123.535 81.5193 123.75 81.5193L132.08 81.5173C132.296 81.5175 132.509 81.4695 132.703 81.377C132.897 81.2844 133.068 81.1497 133.202 80.9827L138.395 74.5231C138.53 74.3559 138.624 74.1608 138.672 73.9523C138.72 73.7437 138.72 73.5271 138.672 73.3186L136.818 65.2638C136.77 65.0553 136.675 64.8603 136.541 64.6931C136.406 64.526 136.236 64.391 136.042 64.2982L128.536 60.7143C128.319 60.6108 128.08 60.563 127.84 60.5751V60.5751Z" fill="white"/>
<path d="M127.914 63.3162C127.666 63.3162 127.465 63.5396 127.465 63.8153C127.465 63.8195 127.466 63.8235 127.466 63.8277C127.466 63.8652 127.464 63.9103 127.465 63.9429C127.471 64.1019 127.506 64.2236 127.527 64.37C127.564 64.6835 127.596 64.9434 127.577 65.1849C127.558 65.276 127.49 65.3593 127.431 65.4172L127.42 65.6072C127.15 65.6296 126.879 65.6705 126.608 65.732C125.442 65.9968 124.437 66.5976 123.673 67.4088C123.623 67.375 123.537 67.3127 123.511 67.2936C123.431 67.3045 123.349 67.3292 123.244 67.2677C123.043 67.1324 122.86 66.9456 122.638 66.7206C122.537 66.613 122.463 66.5105 122.343 66.4068C122.315 66.3832 122.273 66.3513 122.243 66.3271C122.149 66.2519 122.037 66.2127 121.93 66.2091C121.792 66.2043 121.659 66.2583 121.572 66.3674C121.417 66.5614 121.467 66.8579 121.682 67.0297C121.684 67.0314 121.687 67.0328 121.689 67.0345C121.719 67.0585 121.755 67.0893 121.782 67.1094C121.91 67.2039 122.027 67.2522 122.155 67.3272C122.423 67.4931 122.646 67.6307 122.823 67.7966C122.892 67.8701 122.904 67.9997 122.913 68.0557L123.057 68.1844C122.286 69.3442 121.929 70.7769 122.14 72.2367L121.952 72.2914C121.902 72.3554 121.832 72.4562 121.759 72.4863C121.528 72.5591 121.268 72.5858 120.954 72.6187C120.806 72.631 120.679 72.6237 120.523 72.6533C120.488 72.6598 120.44 72.6723 120.403 72.6811C120.402 72.6814 120.4 72.6818 120.399 72.6821C120.397 72.6825 120.394 72.6835 120.392 72.684C120.128 72.7479 119.957 72.9913 120.012 73.2311C120.067 73.4709 120.326 73.6167 120.592 73.5593C120.594 73.5589 120.597 73.5588 120.599 73.5584C120.602 73.5577 120.604 73.5562 120.607 73.5555C120.644 73.5473 120.691 73.5383 120.723 73.5296C120.877 73.4884 120.988 73.428 121.127 73.375C121.424 73.2684 121.67 73.1794 121.91 73.1447C122.01 73.1368 122.115 73.2065 122.168 73.2359L122.364 73.2023C122.814 74.5992 123.759 75.7284 124.954 76.4369L124.873 76.6327C124.902 76.7087 124.935 76.8116 124.913 76.8866C124.825 77.1127 124.676 77.3514 124.506 77.6174C124.424 77.7404 124.339 77.8357 124.265 77.9764C124.247 78.0101 124.225 78.0618 124.208 78.0973C124.092 78.3444 124.177 78.6289 124.399 78.7356C124.622 78.8431 124.899 78.7297 125.019 78.4822C125.019 78.4819 125.019 78.4816 125.02 78.4813C125.02 78.481 125.019 78.4806 125.02 78.4803C125.037 78.4452 125.061 78.3991 125.075 78.3661C125.139 78.2203 125.16 78.0953 125.205 77.9543C125.324 77.6558 125.389 77.3425 125.553 77.1473C125.597 77.0939 125.67 77.0733 125.746 77.0531L125.848 76.8688C126.89 77.2689 128.057 77.3763 129.223 77.1116C129.488 77.0512 129.745 76.9731 129.993 76.8793C130.022 76.9301 130.075 77.0276 130.089 77.0521C130.166 77.0771 130.25 77.0901 130.319 77.1913C130.441 77.4004 130.525 77.6478 130.627 77.9467C130.672 78.0877 130.694 78.2126 130.757 78.3584C130.772 78.3916 130.796 78.4384 130.813 78.4736C130.933 78.7219 131.211 78.8356 131.434 78.7279C131.656 78.6211 131.741 78.3367 131.625 78.0897C131.608 78.0541 131.584 78.0024 131.566 77.9687C131.492 77.8281 131.408 77.7336 131.326 77.6107C131.155 77.3447 131.014 77.1237 130.927 76.8976C130.891 76.781 130.933 76.7084 130.962 76.6327C130.945 76.6132 130.908 76.503 130.887 76.4513C132.13 75.7176 133.046 74.5463 133.477 73.1936C133.535 73.2028 133.636 73.2207 133.668 73.2272C133.736 73.1827 133.798 73.1245 133.92 73.1341C134.16 73.1688 134.406 73.2579 134.703 73.3645C134.841 73.4174 134.953 73.4788 135.106 73.52C135.139 73.5287 135.185 73.5368 135.222 73.5449C135.225 73.5457 135.228 73.5471 135.231 73.5478C135.233 73.5483 135.236 73.5483 135.238 73.5488C135.504 73.6061 135.763 73.4604 135.818 73.2205C135.872 72.9807 135.702 72.7373 135.437 72.6734C135.399 72.6647 135.344 72.6498 135.307 72.6427C135.151 72.6131 135.023 72.6204 134.876 72.6082C134.562 72.5752 134.302 72.5485 134.071 72.4757C133.976 72.4391 133.909 72.327 133.877 72.2809L133.695 72.2281C133.789 71.5476 133.764 70.8394 133.601 70.1309C133.437 69.4157 133.147 68.7616 132.76 68.1853C132.806 68.143 132.894 68.0652 132.919 68.0423C132.926 67.9617 132.92 67.8772 133.003 67.788C133.18 67.6221 133.403 67.4845 133.671 67.3186C133.799 67.2436 133.917 67.1952 134.045 67.1007C134.074 67.0794 134.113 67.0455 134.144 67.0211C134.359 66.8492 134.409 66.5527 134.254 66.3588C134.099 66.1649 133.799 66.1466 133.584 66.3185C133.553 66.3428 133.512 66.3744 133.484 66.3981C133.364 66.5019 133.289 66.6044 133.188 66.712C132.966 66.937 132.783 67.1247 132.582 67.2601C132.495 67.3108 132.367 67.2932 132.309 67.2898L132.139 67.4117C131.164 66.3901 129.838 65.737 128.41 65.6101C128.406 65.5503 128.4 65.4421 128.399 65.4095C128.341 65.3536 128.27 65.3058 128.252 65.1849C128.233 64.9434 128.265 64.6835 128.303 64.37C128.324 64.2236 128.359 64.1019 128.365 63.9429C128.366 63.9068 128.364 63.8543 128.364 63.8153C128.364 63.5396 128.162 63.3161 127.914 63.3162H127.914ZM127.352 66.8003L127.219 69.1566L127.209 69.1614C127.2 69.3722 127.026 69.5406 126.813 69.5406C126.726 69.5406 126.646 69.5126 126.58 69.4647L126.576 69.4667L124.644 68.097C125.238 67.5131 125.998 67.0816 126.873 66.8828C127.033 66.8465 127.193 66.8196 127.352 66.8003ZM128.478 66.8003C129.5 66.926 130.445 67.3887 131.169 68.098L129.249 69.459L129.243 69.4561C129.072 69.5806 128.832 69.5497 128.7 69.3832C128.645 69.315 128.617 69.2347 128.613 69.1538L128.611 69.1528L128.478 66.8003ZM123.944 68.9772L125.708 70.5551L125.706 70.5647C125.865 70.7031 125.889 70.9433 125.756 71.1099C125.701 71.1781 125.629 71.2238 125.55 71.2452L125.548 71.2529L123.287 71.9056C123.172 70.8531 123.42 69.8301 123.944 68.9772ZM131.873 68.9781C132.135 69.403 132.333 69.8775 132.451 70.3919C132.568 70.9002 132.597 71.4076 132.549 71.8979L130.276 71.2433L130.275 71.2337C130.071 71.1781 129.946 70.971 129.993 70.7634C130.013 70.6783 130.058 70.6063 130.119 70.5532L130.118 70.5484L131.873 68.9781H131.873ZM127.553 70.677H128.275L128.724 71.2385L128.563 71.9392L127.914 72.2511L127.264 71.9382L127.102 71.2375L127.553 70.677ZM129.87 72.5985C129.9 72.597 129.931 72.5998 129.961 72.6053L129.965 72.6005L132.304 72.9959C131.961 73.9577 131.306 74.7909 130.431 75.3484L129.523 73.1552L129.526 73.1514C129.442 72.9576 129.526 72.7303 129.718 72.6379C129.767 72.6142 129.818 72.6011 129.87 72.5985H129.87ZM125.941 72.6081C126.119 72.6107 126.28 72.7345 126.321 72.9162C126.34 73.0013 126.331 73.0856 126.299 73.16L126.306 73.1687L125.407 75.3398C124.567 74.8008 123.898 73.9938 123.54 73.0036L125.859 72.6101L125.863 72.6149C125.889 72.6101 125.915 72.6078 125.941 72.6081V72.6081ZM127.9 73.5593C127.962 73.557 128.025 73.5698 128.085 73.5987C128.164 73.6365 128.225 73.6961 128.263 73.7676H128.271L129.415 75.8331C129.266 75.8829 129.114 75.9254 128.958 75.9608C128.083 76.1593 127.212 76.0991 126.423 75.8303L127.563 73.7686H127.565C127.633 73.6407 127.763 73.5644 127.9 73.5593Z" fill="#326CE5" stroke="#326CE5" stroke-width="0.25"/>
<path fill-rule="evenodd" clip-rule="evenodd" d="M15.4085 92.3042C9.79249 89.633 7.41923 82.9443 10.1078 77.3645C11.3989 74.685 13.7084 72.6248 16.5284 71.6372C19.3484 70.6495 22.4477 70.8153 25.1446 72.098C30.7607 74.7692 33.1339 81.4579 30.4454 87.0377C27.7568 92.6175 21.0246 94.9754 15.4085 92.3042V92.3042Z" fill="#D62783"/>
<path fill-rule="evenodd" clip-rule="evenodd" d="M19.964 83.5671C19.19 83.5671 18.5879 82.9607 18.5879 82.181C18.5879 81.4013 19.19 80.7948 19.964 80.7948C20.7381 80.7948 21.3401 81.4013 21.3401 82.181C21.3401 82.9607 20.7381 83.5671 19.964 83.5671" fill="white"/>
<path fill-rule="evenodd" clip-rule="evenodd" d="M22.6528 82.8307C22.3089 82.8307 22.0078 82.549 22.0078 82.1809C22.0078 81.8343 22.2873 81.5311 22.6528 81.5311C22.9968 81.5311 23.2979 81.8127 23.2979 82.1809C23.2979 82.549 22.9968 82.8306 22.6528 82.8306V82.8307ZM24.9751 83.4369C24.8891 83.7834 24.545 83.9781 24.201 83.8915C23.857 83.8048 23.6634 83.4584 23.7494 83.112C23.8354 82.7655 24.1794 82.5701 24.5235 82.6567C24.8454 82.7434 25.0607 83.0465 24.9961 83.3933C24.9961 83.3933 24.9961 83.4148 24.9747 83.4364L24.9751 83.4369ZM24.5228 81.7903C24.1786 81.8769 23.8346 81.6603 23.7486 81.3137C23.6626 80.9673 23.8776 80.6206 24.2217 80.534C24.5656 80.4473 24.9097 80.664 24.9957 81.0107C25.0171 81.0973 25.0171 81.1839 24.9957 81.2705C24.9741 81.5088 24.8021 81.7253 24.5226 81.7903H24.5228ZM26.8015 83.3496C26.7369 83.6961 26.4143 83.9344 26.0703 83.8695C25.7264 83.8045 25.4898 83.4796 25.5544 83.1331C25.6188 82.7867 25.9414 82.5483 26.2854 82.6132C26.608 82.6782 26.8446 82.9814 26.8231 83.3063C26.8017 83.3279 26.8017 83.3279 26.8017 83.3496H26.8015ZM26.2866 81.7477C25.9426 81.8127 25.62 81.5745 25.5556 81.2279C25.4911 80.8815 25.7275 80.5565 26.0716 80.4915C26.4156 80.4266 26.7382 80.6647 26.8026 81.0113C26.8026 81.0763 26.8241 81.1196 26.8026 81.1845C26.7812 81.4661 26.5661 81.7044 26.2866 81.7477ZM25.8351 85.5813C25.6631 85.8845 25.276 85.9928 24.975 85.8195C24.674 85.6462 24.5664 85.2564 24.7385 84.9532C24.9105 84.6499 25.2976 84.5416 25.5986 84.7149C25.8136 84.8449 25.9425 85.0831 25.921 85.3214C25.8996 85.408 25.878 85.4946 25.8351 85.5812V85.5813ZM25.5986 79.6903C25.2976 79.8635 24.9105 79.7552 24.7385 79.4519C24.5666 79.1487 24.674 78.7589 24.975 78.5856C25.276 78.4124 25.663 78.5206 25.8351 78.824C25.8996 78.9538 25.921 79.0621 25.921 79.192C25.8996 79.387 25.7921 79.5819 25.5986 79.6902" fill="white"/>
<path d="M19.9855 88.6568C18.2654 88.6568 16.6743 87.9854 15.4487 86.7725C14.2662 85.5378 13.5996 83.913 13.5996 82.2023C13.5996 80.4694 14.2662 78.8667 15.4702 77.632C16.6743 76.4195 18.2869 75.748 19.9855 75.748C21.4046 75.748 22.7592 76.2028 23.8773 77.0694L23.082 78.1088C22.1789 77.4162 21.1037 77.048 19.9859 77.048C18.6314 77.048 17.3413 77.5894 16.3737 78.564C15.4066 79.5387 14.8904 80.8166 14.8904 82.2026C14.8904 83.5671 15.4279 84.8666 16.3955 85.8412C17.3631 86.8158 18.6318 87.3356 20.0078 87.3356C21.1474 87.3356 22.2225 86.9674 23.1039 86.2744L23.878 87.3137C22.76 88.1798 21.4055 88.6565 19.9863 88.6565L19.9855 88.6568Z" fill="white"/>
<path d="M202.936 77.8391V84.7706L208.943 81.2931L202.936 77.8391Z" fill="#00D3A9"/>
<path d="M202.936 86.2192V93.1852L208.999 89.7183L202.936 86.2192Z" fill="#00D3A9"/>
<path d="M202.071 84.7233V77.8971L196.139 81.2995L202.071 84.7233Z" fill="#00B39F"/>
<path d="M190.17 93.1595C191.334 95.0316 192.907 96.6153 194.772 97.7912V90.4965L190.17 93.1595Z" fill="#00B39F"/>
<path d="M202.072 93.1508V86.2709L196.125 89.7141L202.072 93.1508Z" fill="#00B39F"/>
<path d="M195.639 97.357L201.661 93.9138L195.639 90.4319V97.357Z" fill="#00D3A9"/>
<path d="M209.41 97.3936V90.4792L203.396 93.9181L209.41 97.3936Z" fill="#00B39F"/>
<path d="M215.295 92.3577C216.323 90.4389 216.904 88.3125 216.995 86.1376L210.734 89.7226L215.295 92.3577Z" fill="#00B39F"/>
<path d="M210.275 88.9876L216.319 85.5315L210.275 82.0582V88.9876Z" fill="#00D3A9"/>
<path d="M209.41 80.5644V73.6909L203.424 77.1234L209.41 80.5644Z" fill="#00B39F"/>
<path d="M209.409 88.9576V82.0217L203.41 85.495L209.409 88.9576Z" fill="#00B39F"/>
<path d="M195.639 82.0088V88.9962L201.683 85.4971L195.639 82.0088Z" fill="#00D3A9"/>
<path d="M202.072 71C199.847 71.0626 197.667 71.6386 195.701 72.6829L202.072 76.3367V71Z" fill="#00B39F"/>
<path d="M195.639 73.6437V80.5903L201.687 77.1213L195.639 73.6437Z" fill="#00D3A9"/>
<path d="M194.772 73.2224C192.908 74.3989 191.334 75.9825 190.17 77.8542L194.772 80.5107V73.2224Z" fill="#00B39F"/>
<path d="M209.371 72.7194C207.389 71.653 205.185 71.0642 202.936 71V76.4055L209.371 72.7194Z" fill="#00D3A9"/>
<path d="M188 86.0172C188.075 88.2549 188.669 90.4445 189.734 92.4136L194.396 89.714L188 86.0172Z" fill="#00D3A9"/>
<path d="M189.734 78.6022C188.672 80.5625 188.079 82.7423 188 84.9706L194.403 81.2974L189.734 78.6022Z" fill="#00D3A9"/>
<path d="M195.689 98.3242C197.657 99.3736 199.842 99.9526 202.071 100.016V94.6747L195.689 98.3242Z" fill="#00B39F"/>
<path d="M214.849 77.8778C213.692 76.0115 212.129 74.4305 210.275 73.2524V80.5214L214.849 77.8778Z" fill="#00D3A9"/>
<path d="M210.275 97.7675C212.138 96.5811 213.708 94.988 214.866 93.1078L210.275 90.4556V97.7675Z" fill="#00D3A9"/>
<path d="M217.016 84.9297C216.934 82.723 216.346 80.5647 215.297 78.6215L210.674 81.2909L217.016 84.9297Z" fill="#00B39F"/>
<path d="M202.936 100.016C205.16 99.9534 207.339 99.3774 209.304 98.3328L202.936 94.6425V100.016Z" fill="#00D3A9"/>
<path d="M194.772 88.9339V82.0819L188.822 85.4929L194.772 88.9339Z" fill="#00B39F"/>
<path d="M29.0574 54.0578C26.8164 52.9848 25.8693 50.298 26.9422 48.0566C27.4574 46.9802 28.379 46.1527 29.5043 45.7559C30.6296 45.3592 31.8664 45.4258 32.9426 45.9411L33.1583 45.4904L32.9426 45.9411C35.1836 47.014 36.1307 49.7009 35.0578 51.9423C33.9849 54.1836 31.2985 55.1307 29.0574 54.0578Z" fill="#00B39F" stroke="#00B39F"/>
<path d="M244.057 153.058C241.816 151.985 240.869 149.298 241.942 147.057C242.457 145.98 243.379 145.153 244.504 144.756C245.63 144.359 246.866 144.426 247.943 144.941L248.158 144.49L247.943 144.941C250.184 146.014 251.131 148.701 250.058 150.942C248.985 153.184 246.298 154.131 244.057 153.058Z" fill="#00B39F" stroke="#00B39F"/>
<path d="M181.057 9.05778C178.816 7.98481 177.869 5.29798 178.942 3.05657C179.457 1.98023 180.379 1.15267 181.504 0.755943C182.63 0.359215 183.866 0.425806 184.943 0.941064L185.158 0.490428L184.943 0.941064C187.184 2.01404 188.131 4.70086 187.058 6.94227C185.985 9.18364 183.298 10.1307 181.057 9.05778Z" fill="#00B39F" stroke="#00B39F"/>
<path d="M24.0574 175.058C21.8164 173.985 20.8693 171.298 21.9422 169.057C22.4574 167.98 23.379 167.153 24.5043 166.756C25.6296 166.359 26.8664 166.426 27.9426 166.941L28.1583 166.49L27.9426 166.941C30.1836 168.014 31.1307 170.701 30.0578 172.942C28.9849 175.184 26.2985 176.131 24.0574 175.058Z" fill="#00B39F" stroke="#00B39F"/>
<path d="M111.746 20.9203C111.15 22.1655 111.676 23.6582 112.921 24.2543C114.166 24.8503 115.658 24.3242 116.254 23.079C116.85 21.8338 116.324 20.3411 115.079 19.745L115.293 19.2981L115.079 19.745C114.481 19.4588 113.794 19.4218 113.169 19.6422C112.544 19.8626 112.032 20.3223 111.746 20.9203ZM111.746 20.9203L111.295 20.7044L111.746 20.9203Z" fill="#00B39F" stroke="#00B39F"/>
<path d="M78.7457 62.9203C78.1497 64.1655 78.6758 65.6582 79.9208 66.2543C81.1658 66.8503 82.6583 66.3242 83.2543 65.079C83.8503 63.8338 83.3242 62.3411 82.0792 61.745L82.2931 61.2981L82.0792 61.745C81.4813 61.4588 80.7942 61.4218 80.1691 61.6422C79.5439 61.8626 79.0319 62.3223 78.7457 62.9203ZM78.7457 62.9203L78.2947 62.7044L78.7457 62.9203Z" fill="#00B39F" stroke="#00B39F"/>
<path d="M182.746 56.9203C182.15 58.1655 182.676 59.6582 183.921 60.2543C185.166 60.8503 186.658 60.3242 187.254 59.079C187.85 57.8338 187.324 56.3411 186.079 55.745L186.293 55.2981L186.079 55.745C185.481 55.4588 184.794 55.4218 184.169 55.6422C183.544 55.8626 183.032 56.3223 182.746 56.9203ZM182.746 56.9203L182.295 56.7044L182.746 56.9203Z" fill="#00B39F" stroke="#00B39F"/>
<path d="M276.746 124.92C276.15 126.166 276.676 127.658 277.921 128.254C279.166 128.85 280.658 128.324 281.254 127.079C281.85 125.834 281.324 124.341 280.079 123.745L280.293 123.298L280.079 123.745C279.481 123.459 278.794 123.422 278.169 123.642C277.544 123.863 277.032 124.322 276.746 124.92ZM276.746 124.92L276.295 124.704L276.746 124.92Z" fill="#00B39F" stroke="#00B39F"/>
<path d="M239.746 85.9203C239.15 87.1655 239.676 88.6582 240.921 89.2543C242.166 89.8503 243.658 89.3242 244.254 88.079C244.85 86.8338 244.324 85.3411 243.079 84.745L243.293 84.2981L243.079 84.745C242.481 84.4588 241.794 84.4218 241.169 84.6422C240.544 84.8626 240.032 85.3223 239.746 85.9203ZM239.746 85.9203L239.295 85.7044L239.746 85.9203Z" fill="#00B39F" stroke="#00B39F"/>
<path d="M38.7457 98.9203C38.1497 100.166 38.6758 101.658 39.9208 102.254C41.1658 102.85 42.6583 102.324 43.2543 101.079C43.8503 99.8338 43.3242 98.3411 42.0792 97.745L42.2931 97.2981L42.0792 97.745C41.4813 97.4588 40.7942 97.4218 40.1691 97.6422C39.5439 97.8626 39.0319 98.3223 38.7457 98.9203ZM38.7457 98.9203L38.2947 98.7044L38.7457 98.9203Z" fill="#00B39F" stroke="#00B39F"/>
<path d="M242.746 14.9203C242.15 16.1655 242.676 17.6582 243.921 18.2543C245.166 18.8503 246.658 18.3242 247.254 17.079C247.85 15.8338 247.324 14.3411 246.079 13.745L246.293 13.2981L246.079 13.745C245.481 13.4588 244.794 13.4218 244.169 13.6422C243.544 13.8626 243.032 14.3223 242.746 14.9203ZM242.746 14.9203L242.295 14.7044L242.746 14.9203Z" fill="#00B39F" stroke="#00B39F"/>
<path d="M0.745706 118.92C0.149654 120.166 0.675831 121.658 1.92083 122.254C3.16581 122.85 4.65825 122.324 5.25429 121.079C5.85034 119.834 5.32418 118.341 4.07917 117.745L4.29315 117.298L4.07916 117.745C3.4813 117.459 2.79423 117.422 2.16909 117.642C1.54395 117.863 1.03194 118.322 0.745706 118.92ZM0.745706 118.92L0.29471 118.704L0.745706 118.92Z" fill="#00B39F" stroke="#00B39F"/>
<path fill-rule="evenodd" clip-rule="evenodd" d="M41.3548 140.093V130.596L33.1289 125.845V135.342L41.3548 140.093ZM41.3548 129.558L33.1289 124.807V115.306L41.3548 120.057V129.558Z" fill="#5C4EE5"/>
<path fill-rule="evenodd" clip-rule="evenodd" d="M50.4895 124.803V115.302L42.2598 120.053V129.554L50.4895 124.803Z" fill="#4040B2"/>
<path fill-rule="evenodd" clip-rule="evenodd" d="M32.2259 124.251V114.75L24 110V119.501L32.2259 124.251Z" fill="#5C4EE5"/>
<path d="M242.981 120.148C242.981 121.323 242.199 121.948 240.934 121.948C239.67 121.948 238.975 121.207 238.975 120.148C238.975 120.148 239.67 121.129 240.934 121.129C242.199 121.129 242.981 120.148 242.981 120.148H242.981Z" fill="white"/>
<path d="M241.062 124.73C247.226 124.73 252.223 119.729 252.223 113.56C252.223 107.391 247.226 102.391 241.062 102.391C234.898 102.391 229.9 107.391 229.9 113.56C229.9 119.729 234.898 124.73 241.062 124.73Z" fill="#E2F5FC"/>
<path d="M241.06 122.906C246.099 122.906 250.183 118.818 250.183 113.776C250.183 108.734 246.099 104.646 241.06 104.646C236.022 104.646 231.938 108.734 231.938 113.776C231.938 118.818 236.022 122.906 241.06 122.906Z" fill="#CDECF6"/>
<path d="M237.649 105.778C237.72 105.778 237.79 105.765 237.855 105.737C237.921 105.71 237.98 105.671 238.03 105.621C238.08 105.571 238.12 105.511 238.147 105.446C238.174 105.38 238.188 105.31 238.188 105.24C238.188 105.169 238.174 105.099 238.147 105.033C238.12 104.968 238.08 104.909 238.03 104.859C237.98 104.808 237.921 104.769 237.855 104.742C237.79 104.715 237.72 104.701 237.649 104.701C237.506 104.701 237.369 104.757 237.268 104.859C237.167 104.96 237.11 105.097 237.11 105.24C237.11 105.382 237.167 105.52 237.268 105.621C237.369 105.722 237.506 105.778 237.649 105.778ZM233.64 119.306C233.654 119.326 233.673 119.344 233.695 119.357C233.716 119.37 233.74 119.379 233.765 119.382C233.79 119.386 233.816 119.385 233.84 119.378C233.864 119.372 233.887 119.36 233.907 119.345C233.927 119.329 233.944 119.31 233.956 119.287C233.968 119.265 233.976 119.241 233.978 119.216C233.981 119.191 233.978 119.165 233.97 119.141C233.963 119.117 233.95 119.095 233.934 119.076C230.288 114.417 232.391 108.379 236.528 106.008C236.569 105.983 236.598 105.942 236.609 105.896C236.621 105.849 236.614 105.8 236.59 105.758C236.566 105.716 236.527 105.685 236.481 105.672C236.435 105.658 236.386 105.663 236.343 105.685C232.041 108.149 229.832 114.439 233.64 119.306Z" fill="white"/>
<path d="M229.8 111.343C229.8 111.324 229.797 111.305 229.789 111.287C229.782 111.27 229.771 111.254 229.758 111.24C229.744 111.227 229.728 111.216 229.711 111.209C229.693 111.201 229.674 111.198 229.655 111.198C229.636 111.198 229.617 111.201 229.599 111.209C229.582 111.216 229.566 111.227 229.552 111.24C229.539 111.254 229.528 111.27 229.521 111.287C229.514 111.305 229.51 111.324 229.51 111.343H229.8ZM229.51 115.718C229.51 115.737 229.514 115.756 229.521 115.774C229.528 115.791 229.539 115.807 229.552 115.821C229.566 115.834 229.582 115.845 229.599 115.852C229.617 115.86 229.636 115.863 229.655 115.863C229.674 115.863 229.693 115.86 229.711 115.852C229.728 115.845 229.744 115.834 229.758 115.821C229.771 115.807 229.782 115.791 229.789 115.774C229.797 115.756 229.8 115.737 229.8 115.718H229.51ZM252.555 111.322C252.555 111.284 252.539 111.247 252.512 111.219C252.485 111.192 252.448 111.177 252.409 111.177C252.371 111.177 252.334 111.192 252.307 111.219C252.279 111.247 252.264 111.284 252.264 111.322H252.555ZM252.264 115.697C252.264 115.736 252.279 115.773 252.307 115.8C252.334 115.827 252.371 115.843 252.409 115.843C252.448 115.843 252.485 115.827 252.512 115.8C252.539 115.773 252.555 115.736 252.555 115.697H252.264ZM241.032 125.061C247.396 125.061 252.555 119.899 252.555 113.531H252.264C252.264 119.739 247.235 124.771 241.032 124.771V125.061ZM252.555 113.531C252.555 107.162 247.396 102 241.032 102V102.291C247.235 102.291 252.264 107.323 252.264 113.531H252.555ZM241.032 102C234.668 102 229.51 107.163 229.51 113.531H229.8C229.8 107.322 234.829 102.291 241.032 102.291V102ZM229.51 113.531C229.51 119.899 234.668 125.061 241.032 125.061V124.771C234.829 124.771 229.8 119.739 229.8 113.531H229.51ZM229.51 111.343V115.718H229.8V111.343H229.51ZM252.264 111.322V115.697H252.555V111.322H252.264Z" fill="#B5D2F3"/>
<path d="M229.9 111.351C229.902 111.29 229.893 111.23 229.871 111.173C229.85 111.116 229.817 111.064 229.775 111.02C229.733 110.976 229.683 110.942 229.627 110.918C229.571 110.894 229.511 110.882 229.45 110.882C229.389 110.882 229.329 110.894 229.273 110.918C229.218 110.942 229.167 110.976 229.125 111.02C229.083 111.064 229.05 111.116 229.029 111.173C229.008 111.23 228.998 111.29 229 111.351V115.77C228.998 115.83 229.008 115.891 229.029 115.948C229.05 116.005 229.083 116.056 229.125 116.1C229.167 116.144 229.218 116.179 229.273 116.203C229.329 116.227 229.389 116.239 229.45 116.239C229.511 116.239 229.571 116.227 229.627 116.203C229.683 116.179 229.733 116.144 229.775 116.1C229.817 116.056 229.85 116.005 229.871 115.948C229.893 115.891 229.902 115.83 229.9 115.77V111.351ZM253.122 111.351C253.124 111.29 253.115 111.23 253.093 111.173C253.072 111.116 253.039 111.064 252.997 111.02C252.955 110.976 252.905 110.942 252.849 110.918C252.793 110.894 252.733 110.882 252.672 110.882C252.611 110.882 252.551 110.894 252.496 110.918C252.44 110.942 252.389 110.976 252.347 111.02C252.305 111.064 252.272 111.116 252.251 111.173C252.23 111.23 252.22 111.29 252.223 111.351V115.77C252.22 115.83 252.23 115.891 252.251 115.948C252.272 116.005 252.305 116.056 252.347 116.1C252.389 116.144 252.44 116.179 252.496 116.203C252.551 116.227 252.611 116.239 252.672 116.239C252.733 116.239 252.793 116.227 252.849 116.203C252.905 116.179 252.955 116.144 252.997 116.1C253.039 116.056 253.072 116.005 253.093 115.948C253.115 115.891 253.124 115.83 253.122 115.77V111.351Z" fill="#B5D2F3"/>
<path d="M236.108 130.533C236.628 130.321 236.522 130.11 236.522 130.004L236.269 126.162L236.046 124.24L235.709 112.238C235.709 109.39 237.815 106.728 240.994 106.728C244.173 106.728 246.423 109.29 246.428 112.24C246.336 117.938 246.183 120.106 245.968 124.198C245.942 124.757 245.869 125.604 245.845 126.121C245.725 128.681 245.59 129.935 245.59 130.004C245.59 130.11 245.485 130.321 246.004 130.533C246.524 130.745 247.726 131.019 247.726 131.086C247.726 131.153 245.696 131.086 245.696 131.086C244.533 131.086 244.533 130.215 244.533 130.004C244.533 129.792 244.215 126.16 244.215 126.16L244.11 130.851C244.11 131.062 244.215 131.38 244.956 131.591C244.956 131.591 246.571 131.836 246.571 131.924C246.571 132.012 244.639 131.924 244.639 131.924C243.167 131.924 243.167 131.062 243.167 131.062L242.85 127.218C242.85 127.218 242.743 131.062 242.743 131.591C242.743 132.006 242.815 132.323 243.97 132.535C244.527 132.689 245.653 132.881 245.653 132.958C245.653 133.035 243.085 132.958 243.085 132.958C241.71 132.852 241.58 131.899 241.58 131.899L241.059 129.984L240.54 131.9C240.54 131.9 240.329 132.852 238.954 132.958C238.954 132.958 236.622 133.035 236.622 132.958C236.622 132.881 237.556 132.709 238.15 132.535C238.954 132.298 239.377 132.006 239.377 131.591C239.377 131.062 239.271 127.217 239.271 127.217L238.954 131.062C238.954 131.062 238.954 132.006 237.482 132.006C237.482 132.006 235.386 132.012 235.386 131.923C235.386 131.835 237.156 131.591 237.156 131.591C237.896 131.38 238.002 131.062 238.002 130.85L237.896 126.159C237.896 126.159 237.579 129.792 237.579 130.003C237.579 130.215 237.579 131.168 236.416 131.168C236.416 131.168 234.459 131.071 234.459 131.004C234.459 130.937 235.587 130.744 236.107 130.533L236.108 130.533Z" fill="#FE733E"/>
<path d="M236.046 124.239C236.046 124.239 235.829 124.771 235.338 125.057C234.848 125.343 234.279 125.436 233.744 125.507C233.744 125.507 234.48 125.875 235.379 125.793C235.943 125.748 236.18 125.891 236.269 126.162L236.046 124.24V124.239ZM245.968 124.198C245.968 124.198 246.285 124.729 246.776 125.016C247.267 125.302 247.835 125.396 248.37 125.466C248.37 125.466 247.635 125.835 246.735 125.753C246.171 125.707 245.934 125.85 245.846 126.121L245.968 124.198Z" fill="#FE6446"/>
<path opacity="0.3" d="M245.974 124.108L246.015 123.443C243.418 124.669 241.004 124.54 241.004 124.54C241.004 124.54 238.576 124.642 236.025 123.437L236.042 124.083C236.042 124.083 237.861 125.202 241.004 125.202C244.147 125.202 245.974 124.108 245.974 124.108Z" fill="#FE6446"/>
<path opacity="0.5" d="M238.913 110.044C239.012 110.046 239.11 110.029 239.202 109.993C239.293 109.956 239.377 109.902 239.448 109.833C239.518 109.764 239.574 109.682 239.613 109.591C239.651 109.5 239.671 109.402 239.671 109.303C239.671 109.204 239.651 109.107 239.613 109.016C239.574 108.925 239.518 108.842 239.447 108.773C239.377 108.704 239.293 108.65 239.201 108.614C239.109 108.578 239.011 108.561 238.912 108.563C238.719 108.568 238.535 108.648 238.4 108.786C238.265 108.924 238.189 109.11 238.189 109.304C238.19 109.497 238.265 109.683 238.4 109.821C238.536 109.959 238.719 110.039 238.913 110.044Z" fill="#FEA777"/>
<path d="M246.416 112.32C246.416 112.32 246.494 111.392 246.088 110.288C244.977 107.257 242.246 106.646 240.773 106.732C240.773 106.732 242.861 107.719 242.958 110.876C243.002 112.276 243.002 112.32 243.002 112.32H246.416Z" fill="#FE6B3C"/>
<path d="M242.981 120.148C242.981 121.323 242.199 121.948 240.934 121.948C239.67 121.948 238.975 121.207 238.975 120.148C238.975 120.148 239.67 121.129 240.934 121.129C242.199 121.129 242.981 120.148 242.981 120.148H242.981Z" fill="white"/>
<path d="M242.981 120.148C242.981 121.323 242.199 121.948 240.934 121.948C239.67 121.948 238.975 121.207 238.975 120.148C238.975 120.148 239.67 121.129 240.934 121.129C242.199 121.129 242.981 120.148 242.981 120.148H242.981Z" fill="white"/>
<path d="M242.981 120.148C242.981 121.323 242.508 123.175 240.934 123.175C239.361 123.175 238.975 121.207 238.975 120.148C238.975 120.148 238.975 121.948 240.934 121.948C243.077 121.948 242.981 120.148 242.981 120.148H242.981Z" fill="white"/>
<path d="M242.981 120.148C242.981 121.323 242.508 123.175 240.934 123.175C239.361 123.175 238.975 121.207 238.975 120.148C238.975 120.148 238.975 121.948 240.934 121.948C243.077 121.948 242.981 120.148 242.981 120.148H242.981Z" fill="#070909"/>
<path d="M237.218 118.347C237.643 118.347 238.063 118.263 238.455 118.101C238.847 117.938 239.203 117.7 239.503 117.4C239.803 117.1 240.041 116.744 240.203 116.352C240.365 115.96 240.448 115.539 240.448 115.115C240.448 113.33 239.002 111.883 237.218 111.883C236.794 111.883 236.374 111.967 235.982 112.129C235.59 112.292 235.234 112.53 234.934 112.83C234.634 113.13 234.396 113.486 234.234 113.879C234.072 114.271 233.988 114.691 233.988 115.115C233.988 116.9 235.435 118.347 237.218 118.347Z" fill="#FE6446"/>
<path d="M237.209 117.686C237.541 117.686 237.87 117.62 238.177 117.493C238.484 117.366 238.763 117.179 238.998 116.944C239.233 116.709 239.419 116.43 239.546 116.123C239.673 115.816 239.738 115.487 239.738 115.155C239.738 114.823 239.673 114.494 239.546 114.187C239.419 113.88 239.233 113.601 238.998 113.366C238.763 113.131 238.484 112.944 238.177 112.817C237.87 112.69 237.541 112.624 237.209 112.624C236.877 112.624 236.548 112.69 236.241 112.817C235.934 112.944 235.655 113.131 235.42 113.366C235.185 113.601 234.999 113.88 234.872 114.187C234.745 114.494 234.68 114.823 234.68 115.155C234.68 115.487 234.745 115.816 234.872 116.123C234.999 116.43 235.185 116.709 235.42 116.944C235.655 117.179 235.934 117.366 236.241 117.493C236.548 117.62 236.877 117.686 237.209 117.686Z" fill="white"/>
<path d="M237.135 115.483C237.237 115.483 237.338 115.463 237.432 115.424C237.527 115.385 237.612 115.328 237.684 115.256C237.756 115.184 237.814 115.098 237.853 115.004C237.892 114.909 237.912 114.808 237.912 114.706C237.912 114.604 237.892 114.503 237.853 114.409C237.813 114.314 237.756 114.229 237.684 114.157C237.612 114.084 237.526 114.027 237.432 113.988C237.338 113.949 237.236 113.929 237.134 113.929C236.928 113.929 236.731 114.011 236.585 114.157C236.439 114.303 236.357 114.5 236.357 114.706C236.357 114.913 236.439 115.11 236.585 115.256C236.731 115.402 236.929 115.484 237.135 115.483Z" fill="#090B0B"/>
<path d="M244.824 118.347C245.248 118.347 245.668 118.263 246.06 118.101C246.452 117.938 246.808 117.7 247.108 117.4C247.408 117.1 247.646 116.744 247.808 116.352C247.97 115.96 248.054 115.539 248.053 115.115C248.053 113.33 246.607 111.883 244.823 111.883C244.399 111.883 243.979 111.967 243.587 112.129C243.195 112.292 242.839 112.53 242.539 112.83C242.239 113.13 242.001 113.487 241.839 113.879C241.677 114.271 241.594 114.691 241.594 115.115C241.594 116.9 243.04 118.347 244.824 118.347Z" fill="#FE6446"/>
<path d="M244.693 117.682C245.026 117.681 245.355 117.616 245.662 117.489C245.969 117.361 246.247 117.175 246.482 116.94C246.717 116.705 246.904 116.426 247.031 116.119C247.158 115.812 247.223 115.483 247.223 115.151C247.223 114.818 247.158 114.489 247.031 114.182C246.904 113.875 246.717 113.596 246.482 113.361C246.247 113.126 245.969 112.94 245.662 112.813C245.355 112.685 245.026 112.62 244.693 112.62C244.361 112.62 244.032 112.685 243.725 112.813C243.418 112.94 243.139 113.126 242.905 113.361C242.67 113.596 242.483 113.875 242.356 114.182C242.229 114.489 242.164 114.818 242.164 115.151C242.164 115.483 242.229 115.812 242.356 116.119C242.483 116.426 242.67 116.705 242.905 116.94C243.139 117.175 243.418 117.361 243.725 117.489C244.032 117.616 244.361 117.681 244.693 117.682Z" fill="white"/>
<path d="M244.741 115.483C244.947 115.483 245.144 115.401 245.29 115.256C245.436 115.11 245.518 114.912 245.517 114.706C245.517 114.5 245.435 114.302 245.29 114.156C245.144 114.011 244.946 113.929 244.74 113.929C244.638 113.929 244.537 113.949 244.442 113.988C244.348 114.027 244.263 114.085 244.19 114.157C244.118 114.229 244.061 114.315 244.022 114.409C243.983 114.503 243.963 114.604 243.963 114.706C243.963 114.809 243.983 114.91 244.022 115.004C244.061 115.098 244.118 115.184 244.191 115.256C244.263 115.328 244.349 115.385 244.443 115.424C244.537 115.463 244.638 115.484 244.74 115.483H244.741Z" fill="#090B0B"/>
<path d="M146.178 31.9433L155.418 37.9399L164.822 31.9199L166 33.2966L155.418 40.1099L145 33.2966L146.178 31.9433Z" fill="#50E6FF"/>
<path d="M146.879 31.1733L155.419 21L164.134 31.185L155.419 36.6917L146.879 31.1733Z" fill="white"/>
<path d="M155.419 21V36.6917L146.879 31.1733L155.419 21Z" fill="#50E6FF"/>
<path d="M155.418 21V36.6917L164.133 31.185L155.418 21Z" fill="url(#paint1_linear_12903_18518)"/>
<path d="M155.418 29.1083L164.133 31.1849L155.418 36.6916V29.1083Z" fill="#53B1E0"/>
<path d="M155.419 36.6916L146.879 31.1733L155.419 29.1083V36.6916Z" fill="#9CEBFF"/>
<path d="M155.418 40.1099L166 33.2966L164.821 31.9199L155.418 37.9399V40.1099Z" fill="url(#paint2_linear_12903_18518)"/>
<path d="M71.7649 16.3582H66.8984V20.7841H71.7649V16.3582Z" fill="#099CEC"/>
<path d="M71.7649 21.6653H66.8984V26.04H71.7649V21.6653Z" fill="#099CEC"/>
<path d="M66.0169 16.3582H61.1504V20.7841H66.0169V16.3582Z" fill="#099CEC"/>
<path d="M77.5208 21.6653H72.6543V26.04H77.5208V21.6653Z" fill="#099CEC"/>
<path d="M71.7649 11H66.8984V15.4669H71.7649V11Z" fill="#099CEC"/>
<path d="M60.2591 16.3582H55.3926V20.7841H60.2591V16.3582Z" fill="#099CEC"/>
<path d="M66.0169 21.6653H61.1504V26.04H66.0169V21.6653Z" fill="#099CEC"/>
<path d="M92.1417 23.7143C91.0762 22.9971 88.6378 22.741 86.763 23.0996C86.5171 21.3374 85.5335 19.7904 83.7406 18.4073L82.7058 17.7208L82.0194 18.7556C80.667 20.8047 80.2982 24.1753 81.7428 26.3986C81.0973 26.7469 79.8474 27.2182 78.1774 27.1875H46.1815C45.536 30.927 46.6118 35.7832 49.419 39.1232C52.1442 42.3504 56.2423 43.9999 61.6006 43.9999C73.188 43.9999 81.7735 38.6621 85.7794 28.9599C87.3572 28.9906 90.7586 28.9701 92.5003 25.6302C92.613 25.4458 92.9818 24.6569 93.1253 24.37L92.1417 23.7143Z" fill="#099CEC"/>
<path d="M54.5208 21.6653H54.5106H49.6543V26.04H54.5208V21.6653Z" fill="#099CEC"/>
<path d="M60.2591 21.6653H55.3926V26.04H60.2591V21.6653Z" fill="#099CEC"/>
<path d="M74.7595 84C72.4342 83.9991 70.1608 84.6879 68.2271 85.9792C66.2933 87.2705 64.7859 89.1063 63.8957 91.2545C63.0054 93.4026 62.7722 95.7665 63.2257 98.0471C63.6791 100.328 64.7987 102.423 66.443 104.067C68.0872 105.711 70.1821 106.831 72.4628 107.284C74.7434 107.738 77.1074 107.505 79.2555 106.614C81.4036 105.724 83.2394 104.217 84.5307 102.283C85.822 100.349 86.5108 98.0758 86.5099 95.7505C86.5087 92.6344 85.2704 89.6463 83.067 87.4429C80.8636 85.2396 77.8755 84.0012 74.7595 84ZM74.7595 99.9278C73.9331 99.9287 73.125 99.6845 72.4374 99.226C71.7499 98.7675 71.2138 98.1154 70.8969 97.3522C70.58 96.589 70.4967 95.7489 70.6573 94.9383C70.818 94.1276 71.2155 93.3829 71.7995 92.7982C72.3836 92.2136 73.1279 91.8153 73.9384 91.6537C74.7488 91.4922 75.589 91.5746 76.3525 91.8907C77.1161 92.2067 77.7688 92.7421 78.228 93.4292C78.6872 94.1163 78.9323 94.9241 78.9323 95.7505C78.9323 96.8568 78.4934 97.918 77.712 98.7011C76.9305 99.4843 75.8703 99.9254 74.764 99.9278H74.7595Z" fill="url(#paint3_linear_12903_18518)"/>
<path d="M81.3394 100.566C80.4914 101.058 79.5545 101.378 78.5824 101.508C77.6104 101.638 76.6223 101.574 75.6749 101.32C74.7275 101.067 73.8395 100.629 73.0618 100.032C72.2841 99.4344 71.6321 98.6892 71.1431 97.8391C70.7865 97.2303 70.5908 96.5407 70.5745 95.8353C70.5581 95.1299 70.7217 94.432 71.0498 93.8073C71.3778 93.1827 71.8596 92.6518 72.4496 92.2649C73.0396 91.8779 73.7184 91.6476 74.4221 91.5956C73.0079 91.6608 71.6416 92.1281 70.4836 92.9425C69.3256 93.7569 68.4238 94.8847 67.8842 96.1935C67.3446 97.5023 67.1894 98.9379 67.4369 100.332C67.6844 101.726 68.3244 103.02 69.2816 104.063C70.2389 105.106 71.4738 105.855 72.8414 106.22C74.209 106.586 75.6526 106.555 77.0028 106.129C78.3531 105.703 79.5539 104.902 80.4644 103.817C81.3749 102.733 81.9574 101.412 82.1434 100.009C81.8888 100.213 81.6201 100.399 81.3394 100.566Z" fill="url(#paint4_linear_12903_18518)"/>
<path d="M84.0353 90.3918C83.131 88.8321 81.6914 87.6537 79.9838 87.0754C78.2762 86.4971 76.4167 86.5583 74.7508 87.2476C75.0615 87.3738 75.3618 87.5239 75.6492 87.6968C77.3515 88.6841 78.5938 90.3051 79.1047 92.2055C79.6155 94.106 79.3535 96.1314 78.3757 97.8392C78.2721 98.0298 78.1486 98.209 78.0074 98.3737C77.5815 98.9138 77.0278 99.3393 76.3963 99.6118C75.7648 99.8844 75.0754 99.9953 74.3903 99.9347C73.7052 99.8741 73.0459 99.6438 72.4721 99.2646C71.8983 98.8854 71.4279 98.3693 71.1035 97.7628C71.1143 97.7968 71.1278 97.8299 71.1439 97.8616C72.1345 99.5711 73.7636 100.817 75.6728 101.325C77.5821 101.834 79.615 101.563 81.3245 100.572C83.034 99.5819 84.28 97.9528 84.7884 96.0435C85.2968 94.1343 85.0259 92.1013 84.0353 90.3918Z" fill="url(#paint5_linear_12903_18518)"/>
<defs>
<linearGradient id="paint0_linear_12903_18518" x1="141.905" y1="95.7438" x2="141.905" y2="215.368" gradientUnits="userSpaceOnUse">
<stop stop-color="#00B39F"/>
<stop offset="1" stop-color="#121212"/>
</linearGradient>
<linearGradient id="paint1_linear_12903_18518" x1="160.458" y1="35.245" x2="155.056" y2="25.0133" gradientUnits="userSpaceOnUse">
<stop stop-color="#1988D9"/>
<stop offset="0.9" stop-color="#54AEF0"/>
</linearGradient>
<linearGradient id="paint2_linear_12903_18518" x1="158.136" y1="32.2699" x2="161.87" y2="38.7099" gradientUnits="userSpaceOnUse">
<stop offset="0.1" stop-color="#54AEF0"/>
<stop offset="0.29" stop-color="#4FABEE"/>
<stop offset="0.51" stop-color="#41A2E9"/>
<stop offset="0.74" stop-color="#2A93E0"/>
<stop offset="0.88" stop-color="#1988D9"/>
</linearGradient>
<linearGradient id="paint3_linear_12903_18518" x1="74.7595" y1="107.505" x2="74.7595" y2="84" gradientUnits="userSpaceOnUse">
<stop stop-color="#0071FF"/>
<stop offset="1" stop-color="#009BFF"/>
</linearGradient>
<linearGradient id="paint4_linear_12903_18518" x1="67.3116" y1="99.0384" x2="82.1434" y2="99.0384" gradientUnits="userSpaceOnUse">
<stop stop-color="#0050FA"/>
<stop offset="1" stop-color="#00A0FF" stop-opacity="0"/>
</linearGradient>
<linearGradient id="paint5_linear_12903_18518" x1="78.0747" y1="101.567" x2="78.0747" y2="86.6636" gradientUnits="userSpaceOnUse">
<stop stop-color="#00A0DC"/>
<stop offset="1" stop-color="#3CFAFF"/>
</linearGradient>
</defs>
</svg>
