<svg xmlns="http://www.w3.org/2000/svg" xmlns:xlink="http://www.w3.org/1999/xlink" id="Layer_1" x="0" y="0" version="1.1" viewBox="0 0 40 40" xml:space="preserve" style="enable-background:new 0 0 40 40"><style type="text/css">.st0{fill:#00b39f}</style><path d="M15,10h10.6c0.5,0,1-0.2,1.3-0.5c0.4-0.3,0.6-0.8,0.6-1.3c0-0.5-0.2-1-0.5-1.3c-0.3-0.4-0.8-0.6-1.3-0.6L25,6.3	c-0.1,0-0.3,0-0.4-0.1c-0.1-0.1-0.2-0.2-0.2-0.4c-0.1-0.3-0.2-0.5-0.3-0.7c-0.2-0.2-0.4-0.4-0.6-0.5c-0.2-0.1-0.5-0.2-0.8-0.2	c-0.3,0-0.5,0-0.8,0.1c-0.2,0.1-0.3,0-0.5,0c-0.1-0.1-0.3-0.2-0.3-0.3c-0.2-0.5-0.5-0.9-1-1.2c-0.5-0.3-1-0.4-1.6-0.4	c-0.5,0.1-1.1,0.3-1.5,0.7c-0.4,0.4-0.7,0.9-0.8,1.4c0,0.1,0,0.2-0.1,0.2c0,0.1-0.1,0.1-0.2,0.2c-0.1,0-0.1,0.1-0.2,0.1	c-0.1,0-0.2,0-0.2,0C15.4,5,15.2,5,15,5c-0.7,0-1.3,0.3-1.8,0.7c-0.5,0.5-0.7,1.1-0.7,1.8s0.3,1.3,0.7,1.8C13.7,9.7,14.3,10,15,10z" class="st0"/><path d="M27.5,11.2h-15v3.1h15V11.2z M17.5,13.8h-3.8v-1.2h3.8V13.8z M19.4,13.8h-1.2v-1.2h1.2V13.8z M21.2,13.8H20	v-1.2h1.2V13.8z" class="st0"/><path d="M27.5,15.6h-15v3.1h15V15.6z M17.5,18.1h-3.8v-1.2h3.8V18.1z M19.4,18.1h-1.2v-1.2h1.2V18.1z M21.2,18.1H20	v-1.2h1.2V18.1z" class="st0"/><path d="M6.9,25.6h10.7c0.1,0.4,0.3,0.8,0.7,1.1c0.3,0.3,0.7,0.5,1.1,0.7V30h1.2v-2.6c0.4-0.1,0.8-0.3,1.1-0.7	c0.3-0.3,0.5-0.7,0.7-1.1h10.7V30h1.2v-5c0-0.2-0.1-0.3-0.2-0.4c-0.1-0.1-0.3-0.2-0.4-0.2H22.4c-0.1-0.4-0.3-0.8-0.7-1.1	c-0.3-0.3-0.7-0.5-1.1-0.7v-3.2h-1.2v3.2c-0.4,0.1-0.8,0.3-1.1,0.7c-0.3,0.3-0.5,0.7-0.7,1.1H6.2c-0.2,0-0.3,0.1-0.4,0.2	c-0.1,0.1-0.2,0.3-0.2,0.4v5h1.2V25.6z" class="st0"/><path d="M10.6,31.9h-5l-0.8-1c-0.1-0.1-0.1-0.1-0.2-0.2c-0.1,0-0.2-0.1-0.3-0.1H1.9c-0.2,0-0.3,0.1-0.4,0.2	c-0.1,0.1-0.2,0.3-0.2,0.4v6.9c0,0.2,0.1,0.3,0.2,0.4c0.1,0.1,0.3,0.2,0.4,0.2h8.8c0.2,0,0.3-0.1,0.4-0.2c0.1-0.1,0.2-0.3,0.2-0.4	v-5.6c0-0.2-0.1-0.3-0.2-0.4C10.9,31.9,10.8,31.9,10.6,31.9z M9.4,35H8.1v-1.2h1.2V35z" class="st0"/><path d="M24.4,31.9h-5l-0.8-1c-0.1-0.1-0.1-0.1-0.2-0.2c-0.1,0-0.2-0.1-0.3-0.1h-2.5c-0.2,0-0.3,0.1-0.4,0.2	c-0.1,0.1-0.2,0.3-0.2,0.4v6.9c0,0.2,0.1,0.3,0.2,0.4c0.1,0.1,0.3,0.2,0.4,0.2h8.8c0.2,0,0.3-0.1,0.4-0.2c0.1-0.1,0.2-0.3,0.2-0.4	v-5.6c0-0.2-0.1-0.3-0.2-0.4C24.7,31.9,24.5,31.9,24.4,31.9z M23.1,35h-1.2v-1.2h1.2V35z" class="st0"/><path d="M38.1,31.9h-5l-0.8-1c-0.1-0.1-0.1-0.1-0.2-0.2s-0.2-0.1-0.3-0.1h-2.5c-0.2,0-0.3,0.1-0.4,0.2	c-0.1,0.1-0.2,0.3-0.2,0.4v6.9c0,0.2,0.1,0.3,0.2,0.4c0.1,0.1,0.3,0.2,0.4,0.2h8.8c0.2,0,0.3-0.1,0.4-0.2c0.1-0.1,0.2-0.3,0.2-0.4	v-5.6c0-0.2-0.1-0.3-0.2-0.4C38.4,31.9,38.3,31.9,38.1,31.9z M36.9,35h-1.2v-1.2h1.2V35z" class="st0"/></svg>