<svg xmlns:rdf="http://www.w3.org/1999/02/22-rdf-syntax-ns#" xmlns="http://www.w3.org/2000/svg" height="194.95547"
    width="300" viewBox="0 0 300 220" version="1.1" xmlns:cc="http://creativecommons.org/ns#"
    xmlns:dc="http://purl.org/dc/elements/1.1/">

    <metadata>

        <rdf:RDF>

            <cc:Work rdf:about="">

                <dc:format>image/svg+xml</dc:format>

                <dc:type rdf:resource="http://purl.org/dc/dcmitype/StillImage" />

                <dc:title />

            </cc:Work>

        </rdf:RDF>

    </metadata>

    <g transform="matrix(2.4760713,0,0,2.4760713,-2.9521334,-2.9521466)">

        <path
            d="m38.400442,64.214842-0.213828,0.206921c-3.446638,3.511502-7.435859,5.372563-11.546423,5.372563-8.580217,0-14.808582-6.436766-14.808582-15.318118,0-8.86532,6.228365-15.311212,14.808582-15.311212,4.110564,0,8.099785,1.868707,11.546423,5.38958l0.213828,0.213088,5.518073-6.672297-0.147484-0.181026c-4.589023-5.422875-10.095258-8.06279-16.86448-8.06279-6.792652,0-13.002027,2.286003-17.4771072,6.408651-4.8622878,4.464475-7.4294475,10.760663-7.4294475,18.216006,0,7.451645,2.5671597,13.76337,7.4294475,18.229079,4.4750802,4.141638,10.6844552,6.415063,17.4771072,6.415063,6.769222,0,12.275457-2.638436,16.86448-8.063531l0.147484-0.168447-5.518073-6.67353z"
            fill-rule="nonzero" fill="#000000" />

        <path d="m49.494547,78.212262,9.748252,0,0-47.58753-9.748252,0,0,47.58753z" fill-rule="nonzero"
            fill="#000000" />

        <path
            d="m97.427357,67.864702c-2.600701,1.583604-5.021116,2.379722-7.194656,2.379722-3.149451,0-4.572746-1.662278-4.572746-5.364917v-25.250109h9.928044v-8.961259h-9.928044v-14.807103l-9.554648,5.113356v9.693747h-8.242583v8.961259h8.242583v26.860842c0,7.318218,4.334995,12.317631,10.806043,12.447604,4.393939,0.08607,7.042733-1.222785,8.651493-2.179705l0.09421-0.07004,2.346921-9.17558-0.576619,0.352186z"
            fill-rule="nonzero" fill="#000000" />

        <path d="m105.50125,78.212262,9.75466,0,0-47.58753-9.75466,0,0,47.58753z" fill-rule="nonzero" fill="#000000" />

        <path
            d="M121.09485,22.1809c-8.92353-12.6397281-23.742961-20.1808984-38.820616-20.1808984-15.071489,0-29.893883,7.5411703-38.80261,20.1808984l-0.457003,0.650361h11.235917l0.124547-0.134906c7.647468-7.89311,17.63051-12.067303,27.899149-12.067303,10.269872,0,20.250946,4.174193,27.913206,12.067303l0.1243,0.134906h11.23247l-0.44936-0.650361z"
            fill-rule="evenodd" fill="#000000" />

    </g>

</svg>