<svg xmlns="http://www.w3.org/2000/svg" preserveAspectRatio="xMidYMid meet" viewBox="0 0 110 55">
    <style>
        .colorMode1 {
            fill: #fff
        }
    </style>
    <path d="M129.4 479.2l-118.1-59h314.8zm0-314.8L11.3 400.5l118.1-19.7zM149 7v373.8l177.1 19.7z"
        transform="matrix(.101871 0 0 .101871 12.747839 3.235182)" fill="#466bb0" />
    <path class="colorMode1"
        d="M58.497 20.33v19.017h-4.2V20.33zm6.446 15.57c.174.298.397.52.645.72.273.198.57.322.917.42s.694.124 1.066.124a3.37 3.37 0 0 0 .843-.1c.298-.075.57-.15.793-.298a1.74 1.74 0 0 0 .595-.521c.15-.223.248-.496.248-.843 0-.57-.372-.992-1.14-1.3-.744-.273-1.8-.57-3.15-.843l-1.612-.446c-.52-.174-.992-.397-1.388-.67a3.34 3.34 0 0 1-.992-1.04c-.248-.42-.372-.917-.372-1.537 0-.893.174-1.612.52-2.182s.793-1.017 1.364-1.34 1.215-.57 1.9-.694a12.75 12.75 0 0 1 2.182-.198 10.25 10.25 0 0 1 2.157.223c.694.15 1.314.372 1.884.72.545.347 1.017.793 1.364 1.34.372.57.57 1.264.645 2.107h-3.595c-.05-.72-.322-1.215-.818-1.488a3.92 3.92 0 0 0-1.76-.397c-.223 0-.446.025-.694.05s-.47.074-.67.174-.372.223-.52.397-.223.397-.223.67c0 .347.124.62.372.818.248.223.57.397.967.52a13.59 13.59 0 0 0 1.364.347l1.562.347 1.612.446a5.56 5.56 0 0 1 1.388.694c.397.298.744.645.992 1.1s.372.967.372 1.612c0 .917-.174 1.66-.545 2.28a4.52 4.52 0 0 1-1.413 1.488c-.595.372-1.264.645-2.008.793a11.73 11.73 0 0 1-2.306.223 10.33 10.33 0 0 1-2.331-.248c-.77-.15-1.438-.42-2.033-.793a4.42 4.42 0 0 1-1.463-1.488c-.372-.62-.595-1.388-.62-2.306h3.595c.05.47.124.818.298 1.116zm18.67-10.338v2.53H80.86V34.9c0 .645.1 1.066.322 1.3s.645.322 1.3.322l.62-.025.57-.074v2.926c-.322.05-.67.1-1.066.1l-1.14.025a11.64 11.64 0 0 1-1.66-.124c-.52-.074-.992-.223-1.388-.47-.397-.223-.72-.57-.942-.992s-.347-.992-.347-1.686V28.1h-2.28v-2.53h2.28v-4.116h3.744v4.116zm1.9-2.132v-3.1h3.77v3.124h-3.77zm3.793 2.132v13.76h-3.77v-13.76zm3.06 3.893c.347-.893.818-1.66 1.438-2.28s1.364-1.116 2.23-1.463 1.835-.52 2.926-.52 2.058.174 2.95.52c.868.347 1.636.843 2.256 1.463s1.1 1.388 1.438 2.28.496 1.884.496 3c0 1.1-.174 2.083-.496 2.975-.347.893-.818 1.636-1.438 2.28a6.46 6.46 0 0 1-2.256 1.463c-.868.347-1.86.496-2.95.496s-2.058-.174-2.926-.496c-.868-.347-1.612-.818-2.23-1.463-.62-.62-1.1-1.388-1.438-2.28s-.496-1.884-.496-2.975.174-2.107.496-3zm3.446 4.612c.1.52.298.992.545 1.413a2.78 2.78 0 0 0 1.017.992c.422.248.967.372 1.587.372s1.165-.124 1.612-.372a2.82 2.82 0 0 0 1.04-.992 4.4 4.4 0 0 0 .545-1.413 8.66 8.66 0 0 0 .149-1.612 8.66 8.66 0 0 0-.149-1.612c-.1-.52-.298-.992-.545-1.413a2.87 2.87 0 0 0-1.04-.992c-.445-.248-.967-.397-1.612-.397s-1.165.124-1.587.397a3 3 0 0 0-1.017.992c-.247.397-.446.868-.545 1.413a8.86 8.86 0 0 0-.149 1.612c-.025.545.05 1.1.15 1.612z" />
</svg>