<svg xmlns="http://www.w3.org/2000/svg" xmlns:xlink="http://www.w3.org/1999/xlink" id="Layer_1" x="0" y="0"
    version="1.1" viewBox="0 0 349.3 96.6" xml:space="preserve" style="enable-background:new 0 0 349.3 96.6">
    <style type="text/css">
        .st0 {
            fill: #2681d6;
            stroke: #2681d6;
            stroke-width: 3
        }

        .st1 {
            fill: #fff
        }

        .st2 {
            fill: #2681d6
        }
    </style>
    <title>ohm</title>
    <desc>Created with Sketch.</desc>
    <g id="Page-1">
        <g id="Brand-2:-ohm-open" transform="translate(-24.000000, -22.000000)">
            <g id="ohm" transform="translate(24.000000, 24.000000)">
                <path id="Shape"
                    d="M129.9,78.4c-1.2,0-2.2,1-2.2,2.2v6.6H99.3l-0.1-4.2c12.2-8.6,19.5-22.6,19.5-37.6 c0-25.3-20.5-46-45.8-46s-45.8,20.6-45.8,46c0,14.9,7.3,29,19.4,37.6c0,0,0,1.4,0,4.2H18.2v-6.6c0-1.2-1-2.2-2.2-2.2 s-2.2,1-2.2,2.2v11h37.1l0.1-9.5c0-0.9-0.6-1.7-1.4-2.1c-0.1-0.2-0.3-0.4-0.5-0.6c-11-7.8-17.6-20.5-17.6-34 C31.6,22.5,50.1,3.9,73,3.9s41.4,18.6,41.4,41.6c0,13.8-6.8,26.7-18.2,34.4c-0.2,0.1-0.4,0.3-0.5,0.5c-0.5,0.4-0.8,1-0.8,1.7 l0.1,9.5h37.1v-11C132.1,79.4,131.1,78.4,129.9,78.4z"
                    class="st0" />
                <rect id="Rectangle" width="25.9" height="9.2" x="3.7" y="75.2" class="st1" />
                <rect id="Rectangle_1_" width="25.9" height="9.2" x="116.4" y="75.2" class="st1" />
                <rect id="Rectangle_2_" width="53.6" height="10.2" y="84.5" class="st2" />
                <rect id="Rectangle_3_" width="57.3" height="10.2" x="92.3" y="84.5" class="st2" />
            </g>
        </g>
    </g>
    <g id="Page-1_1_">
        <g id="Brand-2:-ohm-open_1_" transform="translate(-22.000000, -93.000000)">
            <path id="Open-Application-Mod"
                d="M198.6,94.5c2.2,0,4,0.5,5.6,1.4s2.8,2.3,3.7,4c0.9,1.7,1.3,3.8,1.3,6.2 s-0.4,4.4-1.3,6.2c-0.9,1.7-2.1,3.1-3.7,4s-3.5,1.4-5.6,1.4c-2.2,0-4-0.5-5.6-1.4c-1.6-0.9-2.8-2.3-3.7-4 c-0.9-1.7-1.3-3.8-1.3-6.2s0.4-4.4,1.3-6.2c0.9-1.7,2.1-3.1,3.7-4C194.6,95,196.5,94.5,198.6,94.5z M198.6,97.7 c-2.1,0-3.8,0.7-5,2.2c-1.2,1.5-1.8,3.5-1.8,6.2c0,2.7,0.6,4.7,1.8,6.2c1.2,1.5,2.9,2.2,5,2.2c2.1,0,3.8-0.7,5-2.2 c1.2-1.5,1.8-3.5,1.8-6.2c0-2.7-0.6-4.7-1.8-6.2C202.4,98.4,200.7,97.7,198.6,97.7z M223.1,99.9c2.3,0,4.2,0.8,5.5,2.3 s2,3.7,2,6.5c0,2.8-0.7,4.9-2,6.5s-3.2,2.4-5.5,2.4c-1.2,0-2.3-0.3-3.3-0.8c-1-0.5-1.7-1.3-2.2-2.2v9.9h-3.6v-24.1h3.2l0.2,3.2 c0.5-1.1,1.3-1.9,2.3-2.6C220.6,100.3,221.7,99.9,223.1,99.9z M222.3,114.7c1.5,0,2.6-0.5,3.5-1.5c0.8-1,1.2-2.5,1.2-4.3 s-0.4-3.3-1.2-4.4c-0.8-1-2-1.6-3.5-1.6c-1.4,0-2.5,0.5-3.3,1.4c-0.8,0.9-1.3,2.2-1.4,3.9v1.3c0.1,1.6,0.5,2.9,1.4,3.8 C219.8,114.2,220.9,114.7,222.3,114.7z M250.5,108.3c0,0.7,0,1.3-0.1,1.9h-12.4c0.2,1.5,0.7,2.6,1.6,3.4s2,1.2,3.3,1.2 c1.1,0,2-0.2,2.8-0.6c0.7-0.4,1.2-1,1.5-1.7l3,1.3c-1.3,2.6-3.7,3.9-7.3,3.9c-2.7,0-4.8-0.8-6.3-2.3c-1.5-1.6-2.3-3.7-2.3-6.5 c0-2.8,0.7-5,2.2-6.5c1.5-1.6,3.5-2.3,6.1-2.3c2.5,0,4.4,0.8,5.8,2.3C249.8,103.7,250.5,105.8,250.5,108.3z M242.6,102.8 c-1.3,0-2.4,0.4-3.2,1.2c-0.8,0.8-1.3,1.9-1.5,3.4h9.2c-0.2-1.4-0.7-2.5-1.4-3.3C244.8,103.2,243.8,102.8,242.6,102.8z M264.1,99.9c1.9,0,3.4,0.5,4.6,1.6s1.8,2.7,1.8,4.7v11h-3.6v-9.9c0-3-1.2-4.5-3.6-4.5c-1.3,0-2.4,0.4-3.3,1.3s-1.4,2.2-1.4,4v9 H255v-17h3.2l0.2,2.8c0.6-1.1,1.3-1.9,2.3-2.4C261.7,100.2,262.8,99.9,264.1,99.9z M202,147.4h-9.5l-2.1,5.9h-3.7l8.5-22.4h4.4 l8.5,22.4h-3.8L202,147.4z M200.9,144.4l-2.6-7.2l-1-3.2h-0.1l-1,3.2l-2.7,7.3H200.9z M220.5,135.9c2.3,0,4.2,0.8,5.5,2.3 s2,3.7,2,6.5s-0.7,4.9-2,6.5c-1.3,1.6-3.2,2.4-5.5,2.4c-1.2,0-2.3-0.3-3.3-0.8s-1.7-1.3-2.2-2.2v9.9h-3.6v-24.1h3.2l0.2,3.2 c0.5-1.1,1.3-1.9,2.3-2.6C218,136.3,219.1,135.9,220.5,135.9z M219.7,150.7c1.5,0,2.6-0.5,3.5-1.5c0.8-1,1.2-2.5,1.2-4.3 s-0.4-3.3-1.2-4.4c-0.8-1-2-1.6-3.5-1.6c-1.4,0-2.5,0.5-3.3,1.4c-0.8,0.9-1.3,2.2-1.4,3.9v1.3c0.1,1.6,0.5,2.9,1.4,3.8 C217.2,150.2,218.3,150.7,219.7,150.7z M241.8,135.9c2.3,0,4.2,0.8,5.5,2.3s2,3.7,2,6.5s-0.7,4.9-2,6.5c-1.3,1.6-3.2,2.4-5.5,2.4 c-1.2,0-2.3-0.3-3.3-0.8s-1.7-1.3-2.2-2.2v9.9h-3.6v-24.1h3.2l0.2,3.2c0.5-1.1,1.3-1.9,2.3-2.6 C239.3,136.3,240.5,135.9,241.8,135.9z M241,150.7c1.5,0,2.6-0.5,3.5-1.5c0.8-1,1.2-2.5,1.2-4.3s-0.4-3.3-1.2-4.4 c-0.8-1-2-1.6-3.5-1.6c-1.4,0-2.5,0.5-3.3,1.4c-0.8,0.9-1.3,2.2-1.4,3.9v1.3c0.1,1.6,0.5,2.9,1.4,3.8 C238.5,150.2,239.6,150.7,241,150.7z M257.5,148.3c0,0.8,0.1,1.4,0.4,1.8c0.2,0.3,0.7,0.5,1.4,0.5c0.4,0,0.8,0,1.1-0.1 c0.3-0.1,0.7-0.2,1.1-0.4l-0.4,2.9c-0.8,0.4-1.7,0.6-2.8,0.6c-1.5,0-2.6-0.4-3.3-1.2c-0.7-0.8-1.1-2-1.1-3.6v-20.2h3.6V148.3z M266.4,133.4c-0.8,0-1.4-0.2-1.8-0.6c-0.4-0.4-0.6-1-0.6-1.7s0.2-1.3,0.6-1.7c0.4-0.4,1-0.6,1.8-0.6c0.8,0,1.4,0.2,1.8,0.6 c0.4,0.4,0.6,0.9,0.6,1.7s-0.2,1.3-0.6,1.7S267.2,133.4,266.4,133.4z M268.2,153.3h-3.6v-17h3.6V153.3z M281.3,135.9 c3.7,0,6.2,1.6,7.4,4.8l-3.4,1.4c-0.6-2.2-1.9-3.2-4-3.2c-1.5,0-2.7,0.5-3.5,1.6c-0.8,1-1.3,2.5-1.3,4.4s0.4,3.4,1.3,4.4 c0.8,1,2,1.5,3.5,1.5c1.2,0,2.1-0.3,2.8-0.8c0.7-0.6,1.2-1.4,1.4-2.4l3.3,1.1c-0.5,1.6-1.4,2.8-2.7,3.7c-1.3,0.9-2.9,1.3-4.8,1.3 c-2.7,0-4.8-0.8-6.3-2.3c-1.5-1.6-2.3-3.7-2.3-6.5s0.7-4.9,2.2-6.5S278.6,135.9,281.3,135.9z M307.7,150.9c0.5,0,0.9,0,1.3-0.1 l-0.2,2.4c-0.6,0.3-1.3,0.4-2.1,0.4c-1,0-1.8-0.2-2.3-0.6c-0.6-0.4-1-1-1.1-1.9c-0.5,0.8-1.3,1.4-2.3,1.9c-1,0.4-2.2,0.7-3.4,0.7 c-1.7,0-3-0.4-4-1.2c-1-0.8-1.5-1.9-1.5-3.3c0-1.3,0.6-2.5,1.7-3.4c1.1-0.9,2.8-1.6,5-2l4.3-0.7v-0.9c0-1-0.3-1.9-0.9-2.5 c-0.6-0.6-1.5-0.9-2.5-0.9c-2.2,0-3.7,1-4.4,3.1l-2.8-1.5c0.4-1.4,1.2-2.4,2.5-3.2c1.3-0.8,2.8-1.2,4.6-1.2c2.2,0,3.9,0.5,5.2,1.5 c1.3,1,1.9,2.5,1.9,4.5v7.7c0,0.4,0.1,0.7,0.3,1C306.9,150.8,307.2,150.9,307.7,150.9z M298.2,150.9c1.2,0,2.3-0.3,3.2-0.9 c0.9-0.6,1.4-1.4,1.4-2.3v-2l-3.7,0.7c-1.2,0.2-2.1,0.5-2.6,1c-0.6,0.4-0.9,1-0.9,1.6c0,0.6,0.2,1.1,0.7,1.4 C296.7,150.7,297.3,150.9,298.2,150.9z M322.7,152.2c-0.5,0.5-1.2,0.8-2,1.1c-0.8,0.3-1.6,0.4-2.5,0.4c-1.6,0-2.8-0.4-3.8-1.2 c-0.9-0.8-1.4-2-1.4-3.7v-9.7h-3.2v-2.9h3.2v-4l3.6-1v5h5.9v2.9h-5.9v9c0,0.8,0.2,1.4,0.7,1.8s1,0.6,1.8,0.6c1,0,2-0.4,2.8-1.1 L322.7,152.2z M327.8,133.4c-0.8,0-1.4-0.2-1.8-0.6s-0.6-1-0.6-1.7s0.2-1.3,0.6-1.7c0.4-0.4,1-0.6,1.8-0.6c0.8,0,1.4,0.2,1.8,0.6 c0.4,0.4,0.6,0.9,0.6,1.7s-0.2,1.3-0.6,1.7S328.6,133.4,327.8,133.4z M329.6,153.3H326v-17h3.6V153.3z M342.7,135.9 c2.7,0,4.7,0.8,6.2,2.3s2.2,3.7,2.2,6.5s-0.7,4.9-2.2,6.5s-3.6,2.3-6.2,2.3s-4.7-0.8-6.2-2.3s-2.2-3.7-2.2-6.5s0.7-4.9,2.2-6.5 S340.1,135.9,342.7,135.9z M342.7,138.8c-1.5,0-2.7,0.5-3.6,1.5s-1.2,2.5-1.2,4.4s0.4,3.4,1.2,4.4s2,1.5,3.6,1.5 c1.5,0,2.7-0.5,3.6-1.6c0.8-1,1.3-2.5,1.3-4.4s-0.4-3.4-1.3-4.4C345.5,139.3,344.3,138.8,342.7,138.8z M365,135.9 c1.9,0,3.4,0.5,4.6,1.6c1.2,1.1,1.8,2.7,1.8,4.7v11h-3.6v-9.9c0-3-1.2-4.5-3.6-4.5c-1.3,0-2.4,0.4-3.3,1.3c-0.9,0.9-1.4,2.2-1.4,4 v9h-3.6v-17h3.2l0.2,2.8c0.6-1.1,1.3-1.9,2.3-2.4S363.7,135.9,365,135.9z M212.2,189.3h-3.3v-13l0.2-6.2h0l-6.8,19.2h-3l-6.8-19.2 h0l0.3,6.2v13h-3.4v-22.4h5.4l4.5,13l1.6,5.3h0.1l1.6-5.3l4.5-13h5.3V189.3z M225.6,171.9c2.7,0,4.7,0.8,6.2,2.3s2.2,3.7,2.2,6.5 s-0.7,4.9-2.2,6.5s-3.6,2.3-6.2,2.3s-4.7-0.8-6.2-2.3s-2.2-3.7-2.2-6.5s0.7-4.9,2.2-6.5S222.9,171.9,225.6,171.9z M225.6,174.8 c-1.5,0-2.7,0.5-3.6,1.5c-0.8,1-1.2,2.5-1.2,4.4s0.4,3.4,1.2,4.4c0.8,1,2,1.5,3.6,1.5s2.7-0.5,3.6-1.6c0.8-1,1.3-2.5,1.3-4.4 s-0.4-3.4-1.3-4.4C228.3,175.3,227.1,174.8,225.6,174.8z M254.4,164.6v24.6h-3.2l-0.2-3c-0.5,1-1.3,1.8-2.3,2.4s-2.2,0.9-3.5,0.9 c-2.3,0-4.2-0.8-5.5-2.3s-2-3.7-2-6.5s0.7-4.9,2-6.5c1.3-1.6,3.2-2.4,5.5-2.4c1.2,0,2.3,0.3,3.3,0.8c1,0.6,1.7,1.3,2.2,2.3v-10.4 H254.4z M246.1,186.7c1.4,0,2.6-0.5,3.4-1.5s1.3-2.4,1.3-4.2v-0.4c0-1.8-0.4-3.2-1.3-4.2c-0.8-1-2-1.5-3.4-1.5 c-1.5,0-2.6,0.5-3.5,1.5c-0.8,1-1.2,2.5-1.2,4.3s0.4,3.3,1.2,4.4C243.5,186.2,244.6,186.7,246.1,186.7z M275.2,180.3 c0,0.7,0,1.3-0.1,1.9h-12.4c0.2,1.5,0.7,2.6,1.6,3.4c0.9,0.8,2,1.2,3.3,1.2c1.1,0,2-0.2,2.8-0.6s1.2-1,1.5-1.7l3,1.3 c-1.3,2.6-3.7,3.9-7.3,3.9c-2.7,0-4.8-0.8-6.3-2.3c-1.5-1.6-2.3-3.7-2.3-6.5c0-2.8,0.7-5,2.2-6.5s3.5-2.3,6.1-2.3 c2.5,0,4.4,0.8,5.8,2.3C274.5,175.7,275.2,177.8,275.2,180.3z M267.3,174.8c-1.3,0-2.4,0.4-3.2,1.2c-0.8,0.8-1.3,1.9-1.5,3.4h9.2 c-0.2-1.4-0.7-2.5-1.4-3.3S268.5,174.8,267.3,174.8z M283.2,184.3c0,0.8,0.1,1.4,0.4,1.8c0.2,0.3,0.7,0.5,1.4,0.5 c0.4,0,0.8,0,1.1-0.1c0.3-0.1,0.7-0.2,1.1-0.4l-0.4,2.9c-0.8,0.4-1.7,0.6-2.8,0.6c-1.5,0-2.6-0.4-3.3-1.2c-0.7-0.8-1.1-2-1.1-3.6 v-20.2h3.6V184.3z"
                class="st1" />
        </g>
    </g>
</svg>