<svg xmlns="http://www.w3.org/2000/svg" id="Layer_1" data-name="Layer 1" viewBox="0 0 447.58 447.02"><title>meshmate of the year2</title><path d="M172.63,18.64c11,2.64,22.75-1.91,33.69-9.76,2.69-1.94,6.08-3,8.56-5.1,6.38-5.51,12.21-4.62,18.46.23C249.13,16.28,267,21.58,286.89,18.57c8.78-1.33,13.7,2,17.69,9.93,4.64,9.21,9.74,18.9,17,25.87s17.36,11,26.46,15.82c3.93,2.1,5.3,4.54,5.15,8.94-.34,10-.25,20,0,30a16.91,16.91,0,0,0,2,7.49c5.22,9.47,10.86,18.71,16,28.22a7.49,7.49,0,0,1,0,6.13c-4.88,9.09-10.35,17.86-15.18,27a24.47,24.47,0,0,0-2.8,10.26c-.36,10.15-.21,20.32-.05,30.48a5.8,5.8,0,0,1-3.4,5.92c-9.31,5.17-18.55,10.47-27.67,16a16.69,16.69,0,0,0-5.46,5.47c-5.43,9-10.7,18-15.72,27.24-1.69,3.08-3.69,4.17-7.11,4-5-.27-10.05.43-15-.16-14.25-1.7-26.77,2-38.35,10.32-5.08,3.66-11,8.56-16.49,8.57s-11.47-4.81-16.5-8.51c-11.85-8.73-24.81-11.82-39.33-10.43-6.21.59-13.69,1.71-18.51-1-4.65-2.66-7.2-9.75-9.66-15.33-6-13.59-15.71-23-29.17-29-5.56-2.5-12.47-5.12-15.22-9.78-2.65-4.47-1.32-11.72-.67-17.63A55.23,55.23,0,0,0,84.16,164c-3.6-4.93-8.43-10.66-8.45-16s4.75-11.15,8.38-16c9.08-12.24,12.5-25.68,10.81-40.71-.51-4.61.12-9.33-.15-14-.18-3.13,1.08-4.74,3.71-6.2,9.17-5.1,18.27-10.31,27.22-15.76a18.15,18.15,0,0,0,5.78-5.85c5.53-9.1,10.82-18.35,16-27.64,1.28-2.3,2.67-3.35,5.43-3.23C158.57,18.81,164.24,18.64,172.63,18.64ZM222.45,249A99.44,99.44,0,0,0,322,148.56C321.74,94,276.65,50,221.37,50.28c-54.18.32-98.68,45.4-98.32,99.61C123.4,204.7,168.09,249.25,222.45,249Z" style="fill:#1e2117"/><path d="M327,446.94l-73.68-146.4c4.44-3,8.32-6.27,14.2-6.13,12.16.28,24.32,0,36.48.15,3.08,0,4.77-1,6.26-3.64q8.89-15.9,18.25-31.55a17.55,17.55,0,0,1,5.74-5.88c11.81-7.07,23.8-13.85,36-20.88,25.76,51.2,51.32,102,77.32,153.64-6.85-.51-12.88-.91-18.9-1.41-18.58-1.55-37.17-3-55.73-4.78-3.38-.32-5.06.83-6.74,3.58-11.78,19.33-23.74,38.55-35.64,57.81C329.61,443,328.59,444.51,327,446.94Z" style="fill:#00b39f"/><path d="M120.55,447,99.62,413.27c-6.13-9.91-12.37-19.75-18.31-29.77-1.7-2.87-3.53-3.73-6.81-3.43-22.21,2-44.45,3.8-66.67,5.65-2.3.19-4.61.33-7.83.55L77.36,232.56c13.1,7.61,25.92,15,38.64,22.53,1.29.77,2.1,2.51,2.92,3.93,6,10.2,12,20.33,17.65,30.73,2.06,3.81,4.5,4.95,8.65,4.83,10.32-.28,20.65-.08,31-.09,9.35,0,9.35,0,18.05,6Z" style="fill:#00d3a9"/><text transform="translate(75.56 349.24)" style="font-size:50px;fill:#fff;font-family:QanelasSoft-SemiBold,Qanelas Soft;font-weight:700"><tspan style="letter-spacing:-.009990234375em">2</tspan><tspan x="26.05" y="0">0</tspan></text><text transform="translate(315.56 349.24)" style="font-size:50px;fill:#fff;font-family:QanelasSoft-SemiBold,Qanelas Soft;font-weight:700"><tspan style="letter-spacing:-.009990234375em">2</tspan><tspan x="26.05" y="0">0</tspan></text><path d="M121.84,182.66c.14.52,0,.84-.35.85a167.16,167.16,0,0,1-17.62-.15c-.33,0-.55-.31-.67-.87l-.28-1.35c-.13-.64,0-1,.38-1,6,.5,9,.63,15,.67a76.47,76.47,0,0,1-13.52-10,1.58,1.58,0,0,1-.47-1.08l-.2-1.75c-.06-.56.05-.93.33-1.12,4.3-3,6.49-4.44,10.93-7.05-5.89-1.36-8.83-2.16-14.68-4-.31-.1-.48-.47-.49-1.11s0-.92,0-1.54.2-1.08.55-.95a151.9,151.9,0,0,0,17.09,5.16c.31.07.48.38.51.91s0,.78.06,1.29c0,.28,0,.43,0,.71,0,.51-.09.83-.37,1a133.32,133.32,0,0,0-11.8,7.66,74.53,74.53,0,0,0,14.54,10.75,1.22,1.22,0,0,1,.55.84c.12.53.19.8.32,1.33l.2.82Z" style="fill:#fff"/><path d="M121.62,197.64c2.1,5.22.69,9.56-2.9,10.37-.12,0-.25,0-.38.06-.3,0-.54-.14-.74-.51h0c-.36-.75-.54-1.12-.89-1.88a94.84,94.84,0,0,1-5.38-14.15c-2.48.74-3.33,3.92-1.8,8.05a9.58,9.58,0,0,0,4.2,5.37,1.35,1.35,0,0,1,.71.78l.55,1.2c.28.6.21,1-.19.85-2.59-.84-5.36-3.61-7-8.05-2.17-5.91-.21-11,3.83-11.11s7.76,3.52,10,9Zm-3.22,7.7c2.68-1,2.86-4.1,1.61-7.24-1.62-4-4.2-6.5-7-6.73A92.6,92.6,0,0,0,118.4,205.34Z" style="fill:#fff"/><path d="M130.31,214.51c1.87,2.92,2.2,5.68.29,6.85-.28.17-.59,0-.86-.35l-.58-.82c-.29-.41-.24-.7,0-.91,1.13-.84.54-2.54-.41-4-1.06-1.67-2.67-3.33-4.11-2.9-3.17.94,4.53,10.09-.06,11.85-2.05.79-5.14-1-7.52-5-2.21-3.7-2.24-6.88-.19-7.76.3-.13.59.07.83.52l.5.95c.26.47.2.76-.11.94-1.2.71-.67,2.69.52,4.66,1.33,2.22,3.18,3.9,4.61,3.4,3.13-1.11-4.44-10.64.31-11.9,2.13-.57,4.73,1.33,6.73,4.46Z" style="fill:#fff"/><path d="M142,229.36c2.19,2.29,2.67,5.4.15,7-2.84,1.76-4.28,2.62-7.19,4.3-.29.16-.6.08-.95-.27l-.71-.72c-.39-.4-.42-.73-.1-.91,2.91-1.6,4.35-2.42,7.2-4.1,1.84-1.09,1.52-2.92-.14-4.69s-4.39-3.24-7.23-2c-2.67,1.28-4,1.9-6.72,3.1-.3.13-.6,0-.91-.38l-.64-.82c-.34-.44-.34-.79,0-.93,6.61-2.75,9.85-4.25,16.18-7.46a.65.65,0,0,1,.84.27l.57.66c.31.36.31.67,0,.85-2.28,1.22-3.43,1.81-5.75,3a9.84,9.84,0,0,1,5.42,3.13Z" style="fill:#fff"/><path d="M171.33,245.23c.41.22.51.5.26.78-4.73,5.29-7.2,7.87-12.33,12.87-.24.23-.57.23-1,0l-1-.58c-.46-.28-.58-.59-.31-.84,4.46-4.15,6.61-6.29,10.78-10.66a93.75,93.75,0,0,1-15.29,4.31,1.15,1.15,0,0,1-1-.24l-1.15-.81c-.37-.26-.51-.54-.43-.85,1.22-4.84,1.91-7.23,3.48-11.92-4.84,3.69-7.32,5.48-12.41,8.9-.27.18-.59.12-1-.2l-.88-.77c-.41-.36-.47-.69-.15-.89,6-3.87,9-5.91,14.69-10.17a.66.66,0,0,1,.87.1c.31.25.46.38.78.62l.43.34a.7.7,0,0,1,.32.81c-1.69,5.08-2.44,7.67-3.72,12.93a92.58,92.58,0,0,0,16.42-4.7,1,1,0,0,1,.88.1l1,.55.64.34Z" style="fill:#fff"/><path d="M182.51,260.61c-1.88,2.71-2.84,4.06-4.81,6.72-.19.27-.52.31-1,.15l-.94-.36c-.5-.19-.67-.47-.44-.77s.3-.38.49-.64a10.07,10.07,0,0,1-6.41-.86c-3.23-1.43-5.5-4.34-3.51-6.49s5.79-1.61,8.82-.32c2,.86,3.65,2.17,4.14,3.62.55-.74.82-1.11,1.36-1.86,1.44-2-.15-3.44-2.25-4.29-1.92-.78-4.09-1-5.38,0a.77.77,0,0,1-.93.07l-.84-.39c-.46-.22-.6-.53-.3-.78,1.84-1.54,5.07-1.66,8.48-.3S184.22,258.16,182.51,260.61Zm-5.09,3c1-1.31-.65-3-3.18-4-3-1.25-5.12-1.15-6.14,0s-.21,2.85,2.74,4.13S176.5,264.84,177.42,263.61Z" style="fill:#fff"/><path d="M196.35,259.86c.47.11.65.36.49.68l-.3.58c-.15.28-.43.38-.86.28-1.2-.28-1.79-.42-3-.73-2.21,3.89-3.36,5.82-5.75,9.64-.17.27-.49.35-.95.21l-1-.28c-.52-.15-.7-.43-.5-.73,2.45-3.74,3.63-5.63,5.89-9.45-1.13-.31-1.7-.48-2.83-.82-.47-.15-.63-.41-.44-.72l.35-.55c.17-.28.46-.35.87-.22,1.17.35,1.75.52,2.92.84.77-1.31,1.15-2,1.89-3.29A.66.66,0,0,1,194,255l.84.21c.46.12.63.37.45.69-.7,1.3-1.05,1.95-1.77,3.24,1.12.29,1.68.42,2.81.68Z" style="fill:#fff"/><path d="M207.3,261.53c5,.68,7.75,4.07,6.56,7.52-.05.11-.1.23-.16.35a.71.71,0,0,1-.77.37h0l-1.91-.17a108.86,108.86,0,0,1-13.47-2c-.68,2.49,1.27,4.64,5.17,5.25a8.64,8.64,0,0,0,6.22-1,1.28,1.28,0,0,1,1-.23l1.21.12c.61.06.87.31.57.59-2,1.79-5.52,2.79-9.71,2.12-5.57-.88-8.34-4.8-6.43-8.36s6.43-5.22,11.76-4.5Zm4.31,6.48c.55-2.8-1.74-4.47-4.77-4.88-3.91-.53-7,.61-8.58,2.92A109,109,0,0,0,211.61,268Z" style="fill:#fff"/><path d="M225.82,269.23c1.05-4.44,6.22-6.79,10.77-7.26s9,1.32,8.74,5.73c-.28,4.61-5.52,7.59-10.64,8S224.78,273.64,225.82,269.23Zm17.09-1.33c.29-3.37-3.09-4.61-6.56-4.25s-7.34,2.27-8.06,5.65,2.7,5.05,6.49,4.73S242.61,271.41,242.91,267.9Z" style="fill:#fff"/><path d="M256.36,252.85c.44-.13.72,0,.75.37l.05.64c0,.33-.17.53-.55.64-2.62.71-4.06,2.14-4,4.5,0,.21,0,.32,0,.53,1.66-.4,2.49-.62,4.13-1.08.47-.13.76,0,.79.36l.05.64q0,.48-.6.66c-1.73.47-2.6.7-4.34,1.11.08,4.42.07,6.64-.06,11.07,0,.33-.25.54-.72.64l-1,.2c-.53.1-.83-.05-.81-.41.21-4.4.27-6.59.28-11-.88.2-1.32.29-2.21.46-.48.1-.76-.06-.75-.42s0-.38,0-.64.22-.51.64-.6c.93-.18,1.39-.28,2.31-.48v-.53c0-3.37,2.09-5.58,6-6.68Z" style="fill:#fff"/><path d="M274.68,251.82c.43-.21.74-.13.83.22s.1.38.16.62-.08.57-.48.75c-1.11.52-1.67.77-2.79,1.26.9,4.34,1.31,6.52,2,10.92,0,.31-.14.56-.59.74l-.93.37c-.51.2-.83.1-.88-.26-.62-4.37-1-6.54-1.77-10.86-1.09.45-1.64.66-2.74,1.08-.46.18-.76.07-.82-.29l-.1-.63c-.05-.31.12-.55.52-.7,1.14-.44,1.7-.66,2.82-1.12-.28-1.48-.43-2.22-.74-3.69-.06-.31.09-.54.47-.71l.8-.34c.43-.19.72-.1.8.25.33,1.43.49,2.14.8,3.58,1.06-.46,1.58-.7,2.63-1.19Z" style="fill:#fff"/><path d="M291.69,247.35c1.21,3.08,1.79,4.62,2.9,7.75.11.3,0,.58-.44.84l-.85.54c-.46.29-.8.25-.92-.1-1-3.1-1.57-4.65-2.7-7.71-.74-2-2.61-2-4.65-.83s-4,3.52-3.24,6.5c.77,2.8,1.14,4.21,1.84,7,.08.32-.1.58-.53.8l-.9.44c-.48.24-.82.17-.9-.19-1.54-6.87-2.44-10.27-4.46-17-.09-.31.05-.56.41-.75l.75-.41c.41-.22.71-.15.82.19.79,2.43,1.17,3.65,1.89,6.1a9.11,9.11,0,0,1,4.05-4.53C287.42,244.44,290.6,244.62,291.69,247.35Z" style="fill:#fff"/><path d="M309.69,235.08c.06.1.12.22.18.34a.73.73,0,0,1-.21.84h0c-.55.55-.82.82-1.38,1.36a90,90,0,0,1-10.4,8.86c1.53,2.12,4.51,2.07,7.54-.47a8.4,8.4,0,0,0,3.24-5.39,1.21,1.21,0,0,1,.44-.88c.36-.34.54-.51.89-.86s.81-.46.83,0c.13,2.67-1.39,6-4.66,8.75-4.35,3.61-9.27,3.11-10.84-.62s.1-8.14,4.15-11.72C303.31,231.86,307.74,231.94,309.69,235.08Zm-2.29,1.06c-1.85-2.23-4.65-1.54-7,.49-3,2.61-4.12,5.66-3.31,8.32A88.46,88.46,0,0,0,307.4,236.14Z" style="fill:#fff"/><path d="M319,201.41c.27-.57.61-.61.75-.09a93.86,93.86,0,0,1,2.75,14.07c2.28,2.46,3.4,3.71,5.61,6.24.22.25.19.59-.09,1s-.4.61-.67,1-.64.57-.87.29c-2.14-2.56-3.22-3.82-5.43-6.3a91.35,91.35,0,0,1-10.89-.34c-.43,0-.5-.35-.18-.79l.6-.83a.86.86,0,0,1,.78-.44,89.8,89.8,0,0,0,9.15.12,94,94,0,0,0-2.2-11.88,1.24,1.24,0,0,1,.13-.93c.23-.46.34-.69.56-1.15Z" style="fill:#fff"/><path d="M335.48,191.29a3.31,3.31,0,0,1,.3.25.89.89,0,0,1,.17,1h0c-.27.83-.4,1.24-.68,2.06a92.24,92.24,0,0,1-5.71,13.87c2.25,1.32,4.93-.13,6.62-4.13a10.27,10.27,0,0,0,.68-6.94,1.55,1.55,0,0,1,0-1.1c.18-.52.27-.78.44-1.3s.54-.88.73-.48c1.22,2.6,1.26,6.73-.57,11-2.43,5.68-7.1,7.5-10,4.63s-3.25-7.93-1.09-13.48C328.42,191.37,332.42,189.14,335.48,191.29Zm-1.61,2.23c-2.59-1.28-4.83.84-6.06,4-1.6,4.06-1.38,7.58.45,9.78A93.3,93.3,0,0,0,333.87,193.52Z" style="fill:#fff"/><path d="M338,170.07c3,1.46,4.5,2.22,7.47,3.8.29.16.4.53.31,1.11s-.12.73-.19,1.21c-.11.65-.37.93-.69.74l-.73-.4a13.73,13.73,0,0,1,.18,7.68c-.92,4.08-3.5,7.33-5.93,5.66s-2.47-6.08-1.67-9.93c.53-2.57,1.56-4.85,2.92-5.84L337.56,173c-2.23-1.14-3.37,1.16-3.87,3.85-.46,2.46-.38,5,.87,6.19a1,1,0,0,1,.21,1c-.1.42-.15.63-.26,1.05-.15.58-.44.82-.73.55-1.82-1.68-2.42-5.28-1.62-9.65S335.25,168.73,338,170.07Zm3.84,5.19c-1.46-.8-2.83,1.63-3.49,4.85-.77,3.78-.35,6.14.95,7s2.89-.48,3.7-4.21S343.17,176,341.81,175.26Z" style="fill:#fff"/><path d="M334.35,153c0-.64.21-.94.56-.82l.64.22a.69.69,0,0,1,.46.73c.08,3.62,1,7.25,4,8.49h0c2.61,1.09,3.92,1.65,6.51,2.83.3.14.43.51.38,1.12s-.07.76-.12,1.27c-.06.68-.3,1-.64.82-4.55-2.18-6.84-3.2-11.46-5.1q-.45-.19-.39-1c0-.46,0-.69.07-1.15,0-.63.26-.92.6-.79l1.22.47a13.43,13.43,0,0,1-1.8-7.07Z" style="fill:#fff"/><path d="M189.41,219.89c-4.41.91-7.36-1.5-9.64-5.5-3.71-6.51-7.47-13-11.47-19.34-2.11-3.36-2.28-6.31-.28-9.79,7.22-12.59,14.24-25.29,21.38-37.93,2.44-4.31,4-4.36,6.72-.3,3.51,5.22,3.21,10.32-.06,15.66-4.57,7.48-8.73,15.21-13.24,22.73-2,3.31-1.71,6.16.29,9.34,3.74,5.94,7.25,12,10.8,18.08C197.7,219.31,197.48,219.66,189.41,219.89Z" style="fill:#00b39f"/><path d="M265.37,176.47c-7.2,0-14.39,0-21.58,0-4.82,0-5.63-1.47-3.44-5.84,2.75-5.51,7.34-7.58,13.35-7.45,8.46.19,16.94,0,25.41.21,4.76.15,7.66-1.69,9.82-6,3.22-6.41,7-12.55,10.61-18.76,2.39-4.1,3.71-4,6.4-.17,3.52,5,4,9.55.21,14.88a110.89,110.89,0,0,0-9.54,16.6c-2.37,4.93-6,6.58-11.1,6.45-6.71-.17-13.43,0-20.14,0Z" style="fill:#00b39f"/><path d="M284.66,102.64a49.33,49.33,0,0,1-2.18,5.11Q271.76,126.41,260.92,145c-2.59,4.46-4.15,4.41-7,0-3.18-5-2.9-9.81.18-14.8,4.68-7.59,9.09-15.36,13.75-23a8,8,0,0,0,0-9.33c-4-6.51-7.78-13.17-11.55-19.82-2.38-4.21-1.73-5,3-5.65,6-.78,9.95,1.3,12.68,6.86,3,6.13,6.81,11.88,10.18,17.85C283.15,98.89,283.84,100.81,284.66,102.64Z" style="fill:#00d3a9"/><path d="M175.94,85.62c1.47-9.57,4.77-12.56,13.17-12.73,6.86-.13,13.72-.28,20.57-.54,4.38-.17,7.53,1.28,9.86,5.26,7.25,12.39,14.78,24.61,22.18,36.91.64,1.07,1.07,2.26,1.58,3.34-5.42,4.46-12.93,2.9-17.2-3.66-2.69-4.14-4.9-8.59-7.39-12.86-9.35-16-9.36-16-28.08-15.73C185.77,85.69,180.91,85.62,175.94,85.62Z" style="fill:#00b39f"/><path d="M250.35,219.58c-20.87.19-15.77,2.13-25.91-14.54-5.54-9.13-10.86-18.41-16.21-27.66-2.32-4-1.56-5.27,3-5.75,6.69-.7,10.76,2.76,13.79,8.23,4.18,7.54,8.59,14.93,12.75,22.47,1.84,3.34,4.38,4.62,8.18,4.5,7.81-.24,15.64-.23,23.46-.14,4.23.06,4.54,1.13,3.06,5-2.36,6.17-6.74,8.39-13.05,7.93C256.43,219.39,253.39,219.58,250.35,219.58Z" style="fill:#00d3a9"/><path d="M145.7,159.82c-7.66-6.11-8.62-10.52-4.54-18,3.34-6.1,6.66-12.2,9.89-18.35,2.06-3.93,4.92-6,9.6-6,14.53-.12,29.06-.58,43.6-.87a34.57,34.57,0,0,1,3.72.3c1.19,7-4,12.81-11.88,13.25-5,.28-10,0-15,0-18.81.12-18.8.14-28,16.72C150.72,151.22,148.21,155.46,145.7,159.82Z" style="fill:#00d3a9"/></svg>