<svg version="1.0" xmlns="http://www.w3.org/2000/svg"
 width="820.000000pt" height="600.000000pt" viewBox="0 0 940.000000 720.000000"
 preserveAspectRatio="xMidYMid meet">

<g transform="translate(0.000000,600.000000) scale(0.100000,-0.100000)"
fill="#00b39f" stroke="none">
<path d="M1020 5590 c-474 -6 -498 -7 -553 -28 -131 -48 -244 -151 -304 -277
-35 -74 -36 -83 -45 -228 -5 -84 -7 -1135 -6 -2337 l3 -2185 34 -66 c64 -129
167 -229 297 -293 l74 -36 3589 0 3589 0 83 42 c113 56 218 160 277 275 l42
81 0 2326 0 2326 -29 63 c-60 133 -174 247 -306 307 l-60 28 -3095 4 c-1702 2
-3318 1 -3590 -2z m6108 -1087 l2 -283 -1310 0 -1310 0 0 278 c0 153 3 282 7
285 3 4 592 6 1307 5 l1301 -3 3 -282z m-3348 -1633 l0 -1900 -1500 0 -1500 0
0 1900 0 1900 1500 0 1500 0 0 -1900z m3350 440 l0 -280 -1310 0 -1310 0 0
280 0 280 1310 0 1310 0 0 -280z m-1302 -1192 l2 -278 -660 0 -660 0 0 280 0
280 658 -2 657 -3 3 -277z"/>
<path d="M2089 4224 c-423 -91 -701 -519 -599 -919 36 -143 93 -238 237 -403
78 -89 90 -127 75 -224 -23 -154 -119 -275 -367 -464 -182 -138 -264 -223
-315 -326 -71 -145 -110 -347 -110 -570 l0 -118 1250 0 1250 0 0 126 c0 224
-42 434 -117 576 -48 93 -119 167 -274 288 -179 138 -247 200 -307 273 -67 84
-79 110 -92 205 -17 124 -12 136 94 244 156 157 224 303 233 498 7 129 -8 227
-48 332 -96 248 -310 426 -581 483 -86 19 -242 18 -329 -1z"/>
</g>
</svg>
