
<svg version="1.0" xmlns="http://www.w3.org/2000/svg"
 width="225.000000pt" height="225.000000pt" viewBox="0 0 225.000000 225.000000"
 preserveAspectRatio="xMidYMid meet">
<metadata>
Created by potrace 1.16, written by Peter Selinger 2001-2019
</metadata>
<g transform="translate(0.000000,225.000000) scale(0.100000,-0.100000)"
fill="#00b39f" stroke="none">
<path d="M945 2214 c-731 -131 -1131 -906 -810 -1570 110 -228 312 -423 544
-525 429 -189 924 -89 1246 252 400 424 400 1086 1 1507 -255 269 -633 398
-981 336z m428 -188 c273 -81 475 -253 598 -509 64 -134 82 -219 82 -387 1
-120 -3 -159 -22 -230 -107 -401 -443 -680 -851 -706 -479 -32 -911 319 -981
796 -14 101 -7 271 17 360 89 340 360 608 690 684 38 8 78 18 89 20 11 3 81 3
155 1 109 -2 152 -8 223 -29z"/>
<path d="M965 1805 c-268 -58 -488 -269 -556 -533 -24 -94 -25 -246 -3 -343 9
-39 18 -68 21 -66 2 3 -1 25 -8 48 -16 59 -16 231 0 299 7 30 33 97 57 149 39
82 56 106 137 186 142 141 280 199 472 198 107 0 184 -16 278 -58 l56 -24 27
35 c32 41 31 42 -56 75 -127 48 -298 62 -425 34z"/>
<path d="M1422 1558 c-281 -298 -298 -314 -347 -321 -44 -7 -78 -29 -109 -71
-30 -39 -30 -143 0 -182 36 -49 70 -67 131 -72 49 -3 64 0 93 20 53 36 80 83
80 140 0 59 0 58 208 426 88 155 159 282 157 282 -2 0 -98 -100 -213 -222z"/>
<path d="M1611 1574 c-27 -45 -27 -47 9 -99 46 -67 98 -181 111 -243 6 -33 9
-105 7 -172 -4 -104 -8 -124 -41 -206 -20 -50 -37 -94 -37 -97 0 -6 107 -67
118 -67 13 0 58 104 78 180 12 47 16 102 16 197 -1 120 -4 140 -32 225 -17 51
-45 117 -62 146 -34 60 -124 172 -137 172 -5 0 -18 -16 -30 -36z"/>
</g>
</svg>
