<svg width="960" height="960" viewBox="0 0 960 960" fill="none" xmlns="http://www.w3.org/2000/svg">
<path d="M960 0H0V960H960V0Z" fill="url(#paint0_linear_1_2)"/>
<g filter="url(#filter0_d_1_2)">
<path d="M177.281 700.043C177.785 688.887 180.512 677.946 185.301 667.858C190.091 657.771 196.847 648.74 205.173 641.297C227.033 618.974 258.686 618.308 258.686 618.308C302.524 616.546 323.012 643.53 323.012 643.53L393.526 573.036C378.123 558.728 366.334 540.971 359.131 521.222C356.787 543.912 346.375 565.008 329.789 580.672C329.789 580.672 303.385 608.086 264.014 608.086C246.921 608.303 230.099 612.386 214.811 620.032C197.557 629.562 183.897 644.47 175.909 662.484C166.569 681.774 163.815 703.595 168.075 724.598C172.305 742.523 181.229 758.998 193.93 772.338L202.117 764.192C193.827 755.754 187.347 745.711 183.076 734.679C178.805 723.649 176.833 711.862 177.281 700.043Z" fill="#00D3A9"/>
<path d="M453.865 607.029L451.436 604.68C429.761 599.157 409.824 588.276 393.457 573.036L322.942 643.53C322.942 643.53 349.815 664.012 348.053 707.875C348.053 707.875 347.387 739.519 325.057 761.372C317.618 769.7 308.587 776.455 298.494 781.237C288.401 786.02 277.453 788.734 266.294 789.217C254.449 789.67 242.637 787.698 231.582 783.422C220.527 779.146 210.463 772.655 202.009 764.349L193.86 772.533C207.277 785.219 223.825 794.113 241.81 798.303C262.82 802.561 284.646 799.809 303.941 790.47C321.946 782.477 336.844 768.82 346.368 751.581C354.112 736.284 358.253 719.418 358.474 702.274C358.238 663.112 385.896 636.519 385.896 636.519C398.648 623.165 414.962 613.746 432.906 609.379C439.755 607.656 446.804 606.865 453.865 607.029Z" fill="#00B39F"/>
<path d="M698.422 786.749C687.26 786.244 676.309 783.52 666.213 778.734C656.118 773.948 647.082 767.197 639.633 758.877C617.293 737.034 616.626 705.405 616.626 705.405C614.863 661.601 641.867 641.127 641.867 641.127L571.319 570.667C557.001 586.059 539.23 597.838 519.467 605.036C542.174 607.378 563.285 617.782 578.962 634.355C578.962 634.355 606.397 660.739 606.397 700.081C606.613 717.161 610.7 733.97 618.351 749.247C627.888 766.486 642.807 780.138 660.836 788.118C680.14 797.453 701.977 800.203 722.996 795.948C740.934 791.721 757.424 782.803 770.773 770.112L762.621 761.931C754.176 770.214 744.126 776.689 733.086 780.957C722.047 785.225 710.252 787.195 698.422 786.749Z" fill="#00B39F"/>
<path d="M605.753 512L603.402 514.427C597.875 536.084 586.986 556.007 571.733 572.362L642.281 642.823C642.281 642.823 662.779 615.969 706.675 617.731C706.675 617.731 738.343 618.397 760.213 640.709C768.548 648.143 775.308 657.168 780.094 667.252C784.88 677.338 787.595 688.277 788.08 699.427C788.533 711.263 786.56 723.068 782.28 734.114C778 745.16 771.504 755.217 763.191 763.665L771.383 771.807C784.079 758.4 792.978 741.865 797.172 723.893C801.433 702.899 798.679 681.089 789.333 661.809C781.333 643.819 767.667 628.931 750.415 619.414C735.106 611.677 718.227 607.539 701.071 607.318C661.877 607.553 635.265 579.917 635.265 579.917C621.901 567.174 612.475 550.873 608.105 532.942C606.38 526.099 605.588 519.054 605.753 512Z" fill="#00D3A9"/>
<path d="M258.384 166.278C269.51 166.709 280.439 169.356 290.529 174.063C300.62 178.771 309.669 185.444 317.147 193.693C339.633 215.428 340.416 247.072 340.416 247.072C342.453 290.896 315.697 311.535 315.697 311.535L387.936 383.047C403.407 368.245 422.221 357.39 442.781 351.404L446.933 347.487C440.653 347.683 434.373 347.077 428.246 345.685C409.374 341.724 392.132 332.171 378.769 318.271C378.769 318.271 350.955 291.796 350.994 252.634C350.626 235.517 346.366 218.709 338.536 203.484C328.937 186.287 313.966 172.709 295.914 164.829C276.567 155.601 254.726 152.973 233.743 157.348C215.798 161.628 199.317 170.604 185.988 183.354L194.176 191.46C202.595 183.107 212.634 176.564 223.676 172.234C234.718 167.903 246.529 165.876 258.384 166.278Z" fill="#00D3A9"/>
<path d="M388.322 383.047L316.161 311.692C316.161 311.692 295.79 338.675 251.915 337.148C251.915 337.148 220.261 336.639 198.284 314.433C189.899 307.021 183.086 298.003 178.249 287.913C173.41 277.823 170.645 266.865 170.117 255.689C169.6 243.846 171.508 232.023 175.726 220.945C179.942 209.867 186.38 199.766 194.64 191.264L186.414 183.197C173.781 196.612 164.94 213.141 160.794 231.093C156.628 252.114 159.477 273.921 168.902 293.167C176.995 311.132 190.756 325.948 208.078 335.346C223.411 342.959 240.278 346.977 257.398 347.095C296.574 346.625 323.33 374.079 323.33 374.079C337.961 387.821 347.908 405.807 351.772 425.501C355.151 423.485 358.384 421.234 361.447 418.765C368.338 405.436 377.423 393.361 388.322 383.047Z" fill="#00B39F"/>
<path d="M851.766 539.746C843.532 547.281 833.872 553.093 823.357 556.839C812.841 560.587 801.681 562.191 790.536 561.561C759.196 561.913 736.435 540.02 736.435 540.02C704.155 510.256 708.66 476.771 708.66 476.771H609.626V477.163C609.711 499.142 604.326 520.797 593.955 540.177C612.009 524.321 635.396 515.884 659.417 516.561C659.417 516.561 697.613 515.7 725.27 543.701C737.573 555.62 752.431 564.58 768.716 569.902C787.644 575.375 807.844 574.495 826.224 567.395C846.43 560.272 863.742 546.721 875.506 528.819C885.258 513.168 890.666 495.203 891.177 476.771H879.659C879.546 488.614 877.012 500.308 872.217 511.137C867.42 521.967 860.461 531.702 851.766 539.746Z" fill="#00D3A9"/>
<path d="M609.626 476.982H708.66C708.66 476.982 704.155 443.498 736.435 413.733C736.435 413.733 759.275 391.802 790.536 392.155C801.681 391.523 812.841 393.129 823.357 396.875C833.872 400.621 843.532 406.433 851.766 413.968C860.462 422.02 867.422 431.762 872.218 442.597C877.014 453.434 879.546 465.134 879.659 476.982H891.177C890.672 458.537 885.264 440.558 875.506 424.895C863.677 407.025 846.309 393.529 826.067 386.476C807.688 379.376 787.487 378.496 768.559 383.969C752.274 389.291 737.417 398.251 725.114 410.17C697.456 438.172 659.261 437.31 659.261 437.31C639.305 437.829 619.683 432.122 603.122 420.978C602.35 424.508 601.774 428.077 601.398 431.67C606.742 446.185 609.526 461.516 609.626 476.982Z" fill="#00B39F"/>
<path d="M783.445 252.733C782.941 263.887 780.214 274.829 775.425 284.917C770.635 295.005 763.88 304.034 755.553 311.477C733.693 333.801 702.04 334.466 702.04 334.466C658.203 336.229 637.714 309.245 637.714 309.245L567.199 379.74C582.604 394.047 594.392 411.805 601.595 431.553C603.939 408.863 614.351 387.767 630.937 372.102C630.937 372.102 657.341 344.688 696.712 344.688C713.805 344.473 730.627 340.388 745.916 332.743C763.168 323.214 776.83 308.305 784.817 290.29C794.158 271.002 796.91 249.181 792.652 228.177C788.421 210.253 779.498 193.776 766.796 180.437L758.608 188.582C766.899 197.022 773.378 207.065 777.649 218.095C781.92 229.126 783.892 240.913 783.445 252.733Z" fill="#00B39F"/>
<path d="M506.752 345.745L509.181 348.095C530.856 353.617 550.793 364.498 567.16 379.739L637.675 309.245C637.675 309.245 610.801 288.763 612.564 244.899C612.564 244.899 613.23 213.255 635.56 191.403C642.998 183.074 652.031 176.319 662.123 171.537C672.216 166.754 683.164 164.041 694.322 163.557C706.168 163.104 717.98 165.076 729.035 169.353C740.09 173.629 750.154 180.119 758.608 188.426L766.756 180.241C753.34 167.555 736.792 158.661 718.806 154.471C697.796 150.214 675.97 152.965 656.675 162.304C638.671 170.298 623.773 183.954 614.249 201.194C606.505 216.491 602.364 233.357 602.143 250.5C602.379 289.663 574.721 316.255 574.721 316.255C561.969 329.61 545.654 339.028 527.711 343.395C520.862 345.119 513.812 345.909 506.752 345.745Z" fill="#00D3A9"/>
<path d="M108.9 413.275C117.16 405.759 126.837 399.969 137.365 396.243C147.893 392.517 159.059 390.931 170.209 391.578C201.549 391.343 224.231 413.275 224.231 413.275C256.433 443.117 251.654 476.602 251.654 476.602L349.161 476.876V476.641C349.139 455.681 354.08 435.014 363.578 416.329C360.513 418.798 357.28 421.05 353.901 423.064C338.061 432.728 319.76 437.598 301.211 437.086C301.211 437.086 263.014 437.869 235.436 409.671C223.155 397.724 208.31 388.736 192.03 383.392C173.119 377.869 152.917 378.694 134.521 385.742C114.28 392.772 96.8918 406.222 85.0033 424.044C75.2683 439.703 69.8612 457.663 69.3334 476.092H80.8117C80.9717 464.261 83.5453 452.589 88.3751 441.787C93.2048 430.986 100.189 421.283 108.9 413.275Z" fill="#00B39F"/>
<path d="M251.85 476.641C251.85 476.641 256.276 510.125 223.957 539.811C223.957 539.811 201.079 561.664 169.818 561.273C158.669 561.869 147.513 560.233 137.005 556.46C126.496 552.687 116.848 546.853 108.626 539.302C99.942 531.233 93.0014 521.474 88.2315 510.623C83.4616 499.773 80.9632 488.062 80.8901 476.21H69.4117C69.8176 494.627 75.1178 512.604 84.7684 528.298C96.5401 546.241 113.883 559.823 134.129 566.951C152.487 574.066 172.669 574.988 191.599 569.575C207.902 564.283 222.785 555.349 235.122 543.454C262.859 515.53 301.014 516.469 301.014 516.469C324.038 515.888 346.495 523.65 364.243 538.323C354.334 519.356 349.16 498.274 349.161 476.876L251.85 476.641Z" fill="#00D3A9"/>
<g filter="url(#filter1_d_1_2)">
<path d="M698.667 335.582C746.973 335.582 786.133 296.422 786.133 248.115C786.133 199.809 746.973 160.648 698.667 160.648C650.36 160.648 611.2 199.809 611.2 248.115C611.2 296.422 650.36 335.582 698.667 335.582Z" fill="#252E31"/>
</g>
<g filter="url(#filter2_d_1_2)">
<path d="M477.867 876.029C526.173 876.029 565.333 836.869 565.333 788.562C565.333 740.256 526.173 701.096 477.867 701.096C429.56 701.096 390.4 740.256 390.4 788.562C390.4 836.869 429.56 876.029 477.867 876.029Z" fill="#252E31"/>
</g>
<path d="M452.367 817.652L445.826 810.096C448.365 809.2 450.187 806.811 450.187 804.033C450.187 800.449 447.29 797.522 443.706 797.522H438.837H436.717C436.299 797.522 436.09 797.761 436.09 798.179V817.802C436.09 818.22 436.299 818.429 436.717 818.429H438.21C438.628 818.429 438.837 818.22 438.837 817.802V810.455H442.81L449.35 818.07C449.56 818.339 449.828 818.429 450.157 818.429H452.009C452.546 818.429 452.696 818.07 452.367 817.652ZM438.837 800.121H443.706C445.737 800.121 447.439 801.853 447.439 804.033C447.439 806.184 445.737 807.916 443.706 807.916H438.837V800.121ZM460.57 803.137C455.91 803.137 452.834 806.572 452.834 810.962C452.834 815.472 455.94 818.817 460.6 818.817C463.646 818.817 466.095 817.294 467.14 814.934C467.32 814.546 467.081 814.277 466.603 814.277H465.169C464.811 814.277 464.602 814.427 464.393 814.696C463.706 815.741 462.362 816.488 460.629 816.488C458.001 816.488 455.97 814.905 455.522 812.157H465.259H467.2C467.588 812.157 467.857 811.978 467.887 811.56C467.887 811.38 467.887 811.201 467.887 811.022C467.887 806.811 465.08 803.137 460.57 803.137ZM455.522 809.887C455.91 807.289 457.792 805.556 460.57 805.556C462.81 805.556 464.87 806.96 465.259 809.887H455.522ZM479.006 803.137C476.467 803.137 474.556 804.242 473.361 806.034V804.153C473.361 803.734 473.122 803.496 472.734 803.496H471.39C470.972 803.496 470.763 803.734 470.763 804.153V823.775C470.763 824.193 470.972 824.402 471.39 824.402H472.734C473.122 824.402 473.361 824.193 473.361 823.775V815.92C474.556 817.712 476.467 818.817 479.006 818.817C483.128 818.817 486.562 815.412 486.562 810.962C486.562 806.542 483.128 803.137 479.006 803.137ZM478.648 816.308C475.661 816.308 473.361 814.009 473.361 810.962C473.361 807.916 475.661 805.616 478.648 805.616C481.664 805.616 483.964 807.916 483.964 810.962C483.964 814.009 481.664 816.308 478.648 816.308ZM496.681 818.817C501.041 818.817 504.536 815.412 504.536 810.962C504.536 806.542 501.041 803.137 496.681 803.137C492.29 803.137 488.796 806.542 488.796 810.962C488.796 815.412 492.29 818.817 496.681 818.817ZM496.681 816.278C493.694 816.278 491.394 813.979 491.394 810.962C491.394 807.946 493.694 805.646 496.681 805.646C499.637 805.646 501.937 807.946 501.937 810.962C501.937 813.979 499.637 816.278 496.681 816.278ZM509.633 807.557C509.633 806.154 511.007 805.527 512.47 805.527C513.725 805.527 514.949 806.034 515.218 807.378C515.338 807.766 515.517 807.976 515.875 807.976H517.189C517.607 807.976 517.876 807.767 517.817 807.319C517.518 804.631 515.278 803.137 512.47 803.137C509.424 803.137 507.035 804.869 507.035 807.557C507.035 813.202 515.577 810.992 515.577 814.397C515.577 815.801 514.203 816.398 512.47 816.398C510.977 816.398 509.693 815.92 509.424 814.546C509.305 814.188 509.125 813.979 508.737 813.979H507.423C507.035 813.979 506.766 814.188 506.796 814.636C507.124 817.294 509.394 818.817 512.47 818.817C515.786 818.817 518.175 817.085 518.175 814.397C518.175 808.752 509.633 810.962 509.633 807.557Z" fill="white"/>
<path d="M542.398 848.303C549.937 840.064 555.75 830.4 559.499 819.882C563.246 809.362 564.85 798.199 564.219 787.052C564.571 755.721 542.672 732.966 542.672 732.966C512.899 700.735 479.405 705.239 479.405 705.239V605.999C490.533 606.078 501.628 604.763 512.429 602.083L510 604.433C517.131 604.289 524.249 605.119 531.155 606.9C522.83 621.89 518.664 638.832 519.089 655.971C519.089 655.971 518.227 694.156 546.237 721.805C558.159 734.105 567.122 748.958 572.445 765.237C577.92 784.16 577.039 804.355 569.938 822.73C562.806 842.841 549.297 860.071 531.468 871.802C515.811 881.549 497.842 886.956 479.405 887.467V875.952C491.233 875.867 502.92 873.371 513.75 868.617C524.582 863.862 534.33 856.95 542.398 848.303Z" fill="#00D3A9"/>
<path d="M446.223 604.746L442.07 600.83C454.193 604.33 466.747 606.11 479.364 606.116V705.043C479.364 705.043 445.87 700.54 416.137 732.771C416.137 732.771 394.198 755.603 394.55 786.855C393.903 798.042 395.507 809.244 399.268 819.799C403.03 830.354 408.873 840.047 416.45 848.303C424.509 856.988 434.255 863.936 445.093 868.724C455.932 873.511 467.633 876.038 479.483 876.148V887.467C461.044 886.956 443.075 881.549 427.419 871.802C409.543 859.974 396.043 842.612 388.988 822.377C381.887 804.002 381.006 783.808 386.481 764.885C391.779 748.676 400.687 733.879 412.532 721.61C440.542 693.96 439.68 655.776 439.68 655.776C440.111 638.576 435.918 621.575 427.536 606.547C433.663 605.155 439.942 604.55 446.223 604.746Z" fill="#00B39F"/>
<g filter="url(#filter3_d_1_2)">
<path d="M794.667 564.915C842.973 564.915 882.133 525.755 882.133 477.448C882.133 429.142 842.973 389.982 794.667 389.982C746.36 389.982 707.2 429.142 707.2 477.448C707.2 525.755 746.36 564.915 794.667 564.915Z" fill="#252E31"/>
</g>
<g filter="url(#filter4_d_1_2)">
<path d="M702.933 788.267C751.24 788.267 790.4 749.106 790.4 700.8C790.4 652.493 751.24 613.333 702.933 613.333C654.627 613.333 615.467 652.493 615.467 700.8C615.467 749.106 654.627 788.267 702.933 788.267Z" fill="#252E31"/>
</g>
<g filter="url(#filter5_d_1_2)">
<path d="M263.467 789.982C311.773 789.982 350.933 750.822 350.933 702.515C350.933 654.209 311.773 615.048 263.467 615.048C215.16 615.048 176 654.209 176 702.515C176 750.822 215.16 789.982 263.467 789.982Z" fill="#252E31"/>
</g>
<g filter="url(#filter6_d_1_2)">
<path d="M166.4 563.848C214.707 563.848 253.867 524.688 253.867 476.382C253.867 428.075 214.707 388.915 166.4 388.915C118.094 388.915 78.9333 428.075 78.9333 476.382C78.9333 524.688 118.094 563.848 166.4 563.848Z" fill="#252E31"/>
</g>
<g filter="url(#filter7_d_1_2)">
<path d="M254.933 338.782C303.24 338.782 342.4 299.622 342.4 251.315C342.4 203.009 303.24 163.849 254.933 163.849C206.627 163.849 167.467 203.009 167.467 251.315C167.467 299.622 206.627 338.782 254.933 338.782Z" fill="#252E31"/>
</g>
<path d="M195.492 284.77C199.972 284.77 203.825 282.082 205.199 278.199C205.348 277.811 205.109 277.512 204.661 277.512H202.989C202.66 277.512 202.421 277.692 202.242 278.02C201.137 280.469 198.509 282.082 195.492 282.082C190.624 282.082 187.339 278.528 187.339 273.929C187.339 269.359 190.624 265.805 195.492 265.805C198.509 265.805 201.137 267.418 202.242 269.867C202.421 270.195 202.66 270.344 202.989 270.344H204.661C205.109 270.344 205.318 270.076 205.199 269.628C203.795 265.775 199.942 263.117 195.492 263.117C189.101 263.117 184.561 267.925 184.561 273.929C184.561 279.962 189.101 284.77 195.492 284.77ZM215.021 284.77C219.381 284.77 222.876 281.365 222.876 276.915C222.876 272.495 219.381 269.09 215.021 269.09C210.63 269.09 207.136 272.495 207.136 276.915C207.136 281.365 210.63 284.77 215.021 284.77ZM215.021 282.231C212.034 282.231 209.734 279.932 209.734 276.915C209.734 273.899 212.034 271.599 215.021 271.599C217.978 271.599 220.277 273.899 220.277 276.915C220.277 279.932 217.978 282.231 215.021 282.231ZM240.604 269.09C238.931 269.09 237.408 269.687 236.303 271.42C235.497 269.896 234.033 269.09 232.42 269.09C230.987 269.09 229.583 269.628 228.567 271.091V270.106C228.567 269.687 228.329 269.448 227.94 269.448H226.596C226.178 269.448 225.969 269.687 225.969 270.106V283.755C225.969 284.173 226.178 284.382 226.596 284.382H227.94C228.329 284.382 228.567 284.173 228.567 283.755V275.302C228.567 272.375 230.389 271.539 231.733 271.539C233.137 271.539 234.332 272.346 234.332 274.436V283.755C234.332 284.173 234.571 284.382 234.959 284.382H236.303C236.721 284.382 236.93 284.173 236.93 283.755V275.302C236.93 272.375 238.752 271.539 240.096 271.539C241.5 271.539 242.694 272.346 242.694 274.436V283.755C242.694 284.173 242.933 284.382 243.351 284.382H244.666C245.084 284.382 245.293 284.173 245.293 283.755V274.317C245.293 270.882 243.232 269.09 240.604 269.09ZM263.529 269.09C261.856 269.09 260.333 269.687 259.228 271.42C258.421 269.896 256.958 269.09 255.345 269.09C253.911 269.09 252.508 269.628 251.492 271.091V270.106C251.492 269.687 251.253 269.448 250.865 269.448H249.521C249.103 269.448 248.894 269.687 248.894 270.106V283.755C248.894 284.173 249.103 284.382 249.521 284.382H250.865C251.253 284.382 251.492 284.173 251.492 283.755V275.302C251.492 272.375 253.314 271.539 254.658 271.539C256.062 271.539 257.257 272.346 257.257 274.436V283.755C257.257 284.173 257.495 284.382 257.884 284.382H259.228C259.646 284.382 259.855 284.173 259.855 283.755V275.302C259.855 272.375 261.677 271.539 263.021 271.539C264.425 271.539 265.619 272.346 265.619 274.436V283.755C265.619 284.173 265.858 284.382 266.276 284.382H267.59C268.009 284.382 268.218 284.173 268.218 283.755V274.317C268.218 270.882 266.157 269.09 263.529 269.09ZM278.688 269.09C274.029 269.09 270.953 272.525 270.953 276.915C270.953 281.425 274.059 284.77 278.718 284.77C281.764 284.77 284.213 283.247 285.259 280.887C285.438 280.499 285.199 280.23 284.721 280.23H283.287C282.929 280.23 282.72 280.38 282.511 280.648C281.824 281.694 280.48 282.44 278.748 282.44C276.119 282.44 274.089 280.858 273.641 278.11H283.377H285.318C285.707 278.11 285.975 277.931 286.005 277.512C286.005 277.333 286.005 277.154 286.005 276.975C286.005 272.764 283.198 269.09 278.688 269.09ZM273.641 275.84C274.029 273.242 275.91 271.509 278.688 271.509C280.928 271.509 282.989 272.913 283.377 275.84H273.641ZM295.901 269.09C294.079 269.09 292.556 269.687 291.481 271.3V270.106C291.481 269.687 291.242 269.448 290.853 269.448H289.509C289.091 269.448 288.882 269.687 288.882 270.106V283.755C288.882 284.173 289.091 284.382 289.509 284.382H290.853C291.242 284.382 291.481 284.173 291.481 283.755V275.9C291.481 272.674 293.332 271.539 295.214 271.539C296.976 271.539 298.29 272.644 298.29 274.795V283.755C298.29 284.173 298.529 284.382 298.947 284.382H300.261C300.679 284.382 300.889 284.173 300.889 283.755V274.705C300.889 271.181 298.678 269.09 295.901 269.09ZM310.937 269.448H308.637V265.327C308.637 264.909 308.428 264.67 308.01 264.67H306.666C306.277 264.67 306.038 264.909 306.038 265.327V269.448H303.739C303.321 269.448 303.082 269.687 303.082 270.106V271.33C303.082 271.748 303.321 271.957 303.739 271.957H306.038V283.755C306.038 284.173 306.277 284.382 306.666 284.382H308.01C308.428 284.382 308.637 284.173 308.637 283.755V271.957H310.937C311.355 271.957 311.564 271.748 311.564 271.33V270.106C311.564 269.687 311.355 269.448 310.937 269.448ZM315.999 273.51C315.999 272.107 317.373 271.479 318.836 271.479C320.091 271.479 321.315 271.987 321.584 273.331C321.703 273.719 321.883 273.929 322.241 273.929H323.555C323.973 273.929 324.242 273.719 324.182 273.271C323.884 270.583 321.644 269.09 318.836 269.09C315.79 269.09 313.401 270.822 313.401 273.51C313.401 279.155 321.942 276.945 321.942 280.35C321.942 281.754 320.569 282.351 318.836 282.351C317.343 282.351 316.059 281.873 315.79 280.499C315.67 280.141 315.491 279.932 315.103 279.932H313.789C313.401 279.932 313.132 280.141 313.162 280.589C313.49 283.247 315.76 284.77 318.836 284.77C322.151 284.77 324.541 283.038 324.541 280.35C324.541 274.705 315.999 276.915 315.999 273.51Z" fill="white"/>
<path d="M750.642 508.715C754.482 508.715 757.785 506.411 758.962 503.083C759.09 502.75 758.885 502.494 758.501 502.494H757.068C756.786 502.494 756.581 502.648 756.428 502.929C755.481 505.028 753.228 506.411 750.642 506.411C746.469 506.411 743.653 503.364 743.653 499.422C743.653 495.505 746.469 492.459 750.642 492.459C753.228 492.459 755.481 493.841 756.428 495.94C756.581 496.222 756.786 496.35 757.068 496.35H758.501C758.885 496.35 759.065 496.12 758.962 495.736C757.759 492.433 754.457 490.155 750.642 490.155C745.164 490.155 741.273 494.276 741.273 499.422C741.273 504.593 745.164 508.715 750.642 508.715ZM767.38 508.715C771.118 508.715 774.113 505.796 774.113 501.982C774.113 498.193 771.118 495.275 767.38 495.275C763.617 495.275 760.622 498.193 760.622 501.982C760.622 505.796 763.617 508.715 767.38 508.715ZM767.38 506.539C764.82 506.539 762.849 504.568 762.849 501.982C762.849 499.396 764.82 497.425 767.38 497.425C769.915 497.425 771.886 499.396 771.886 501.982C771.886 504.568 769.915 506.539 767.38 506.539ZM786.211 495.582H785.059C784.726 495.582 784.522 495.787 784.522 496.145V502.878C784.522 505.643 782.935 506.59 781.322 506.59C779.811 506.59 778.685 505.643 778.685 503.825V496.145C778.685 495.787 778.48 495.582 778.122 495.582H776.995C776.637 495.582 776.458 495.787 776.458 496.145V503.902C776.458 506.897 778.352 508.715 780.733 508.715C782.269 508.715 783.6 508.203 784.522 506.82V507.844C784.522 508.203 784.701 508.382 785.059 508.382H786.211C786.544 508.382 786.749 508.203 786.749 507.844V496.145C786.749 495.787 786.544 495.582 786.211 495.582ZM796.18 495.275C794.619 495.275 793.313 495.787 792.392 497.169V496.145C792.392 495.787 792.187 495.582 791.854 495.582H790.702C790.344 495.582 790.164 495.787 790.164 496.145V507.844C790.164 508.203 790.344 508.382 790.702 508.382H791.854C792.187 508.382 792.392 508.203 792.392 507.844V501.111C792.392 498.347 793.979 497.374 795.592 497.374C797.102 497.374 798.228 498.321 798.228 500.164V507.844C798.228 508.203 798.433 508.382 798.792 508.382H799.918C800.276 508.382 800.456 508.203 800.456 507.844V500.088C800.456 497.067 798.561 495.275 796.18 495.275ZM809.069 495.582H807.098V492.049C807.098 491.691 806.919 491.486 806.56 491.486H805.408C805.075 491.486 804.87 491.691 804.87 492.049V495.582H802.899C802.541 495.582 802.336 495.787 802.336 496.145V497.195C802.336 497.553 802.541 497.732 802.899 497.732H804.87V507.844C804.87 508.203 805.075 508.382 805.408 508.382H806.56C806.919 508.382 807.098 508.203 807.098 507.844V497.732H809.069C809.427 497.732 809.606 497.553 809.606 497.195V496.145C809.606 495.787 809.427 495.582 809.069 495.582ZM817.32 495.403C815.988 495.531 814.785 496.12 814.017 497.528V496.145C814.017 495.787 813.812 495.607 813.48 495.607H812.328C811.969 495.607 811.79 495.787 811.79 496.145V507.844C811.79 508.203 811.969 508.407 812.328 508.407H813.48C813.812 508.407 814.017 508.203 814.017 507.844V501.547C814.017 498.782 815.707 497.758 817.499 497.681C817.729 497.681 817.883 497.476 817.883 497.143V495.94C817.883 495.582 817.678 495.377 817.32 495.403ZM820.577 493.278H821.729C822.062 493.278 822.267 493.099 822.267 492.74V491.025C822.267 490.667 822.062 490.462 821.729 490.462H820.577C820.219 490.462 820.04 490.667 820.04 491.025V492.74C820.04 493.099 820.219 493.278 820.577 493.278ZM820.577 508.382H821.729C822.062 508.382 822.267 508.203 822.267 507.844V496.145C822.267 495.787 822.062 495.582 821.729 495.582H820.577C820.219 495.582 820.04 495.787 820.04 496.145V507.844C820.04 508.203 820.219 508.382 820.577 508.382ZM831.553 495.275C827.56 495.275 824.923 498.219 824.923 501.982C824.923 505.848 827.585 508.715 831.579 508.715C834.19 508.715 836.289 507.409 837.185 505.387C837.339 505.054 837.134 504.824 836.724 504.824H835.496C835.188 504.824 835.009 504.952 834.83 505.182C834.241 506.078 833.089 506.718 831.604 506.718C829.352 506.718 827.611 505.361 827.227 503.006H835.572H837.236C837.569 503.006 837.8 502.852 837.825 502.494C837.825 502.34 837.825 502.187 837.825 502.033C837.825 498.424 835.419 495.275 831.553 495.275ZM827.227 501.06C827.56 498.833 829.172 497.348 831.553 497.348C833.473 497.348 835.24 498.551 835.572 501.06H827.227ZM842.133 499.064C842.133 497.86 843.311 497.323 844.565 497.323C845.641 497.323 846.69 497.758 846.921 498.91C847.023 499.243 847.177 499.422 847.484 499.422H848.61C848.969 499.422 849.199 499.243 849.148 498.859C848.892 496.555 846.972 495.275 844.565 495.275C841.954 495.275 839.906 496.76 839.906 499.064C839.906 503.902 847.228 502.008 847.228 504.926C847.228 506.129 846.05 506.641 844.565 506.641C843.285 506.641 842.185 506.232 841.954 505.054C841.852 504.747 841.698 504.568 841.365 504.568H840.239C839.906 504.568 839.676 504.747 839.701 505.131C839.983 507.409 841.929 508.715 844.565 508.715C847.407 508.715 849.455 507.23 849.455 504.926C849.455 500.088 842.133 501.982 842.133 499.064Z" fill="white"/>
<path d="M793.049 462.948H790.885V457.041C790.885 456.376 790.553 456.043 789.929 456.043H786.101C785.477 456.043 785.103 456.376 785.103 457.041V462.948H777.199L786.268 445.268C786.601 444.561 786.309 444.062 785.561 444.062H781.484C780.943 444.062 780.569 444.312 780.319 444.769L771.333 462.366C771.125 462.782 771.042 463.156 771.042 463.572V467.275C771.042 467.899 771.375 468.232 772.041 468.232H785.103V472.225C785.103 472.849 785.477 473.182 786.101 473.182H789.929C790.553 473.182 790.885 472.849 790.885 472.225V468.232H793.049C793.673 468.232 794.005 467.899 794.005 467.275V463.947C794.005 463.281 793.673 462.948 793.049 462.948ZM807.608 473.764C815.012 473.764 819.256 467.608 819.256 458.622C819.256 449.636 815.012 443.521 807.608 443.521C800.161 443.521 795.96 449.636 795.96 458.622C795.96 467.608 800.161 473.764 807.608 473.764ZM807.608 468.19C803.697 468.19 801.659 464.779 801.659 458.622C801.659 452.465 803.697 449.096 807.608 449.096C811.476 449.096 813.515 452.465 813.515 458.622C813.515 464.779 811.476 468.19 807.608 468.19Z" fill="white"/>
<path d="M97.7297 507.676C101.89 507.676 105.467 505.18 106.744 501.574C106.882 501.214 106.66 500.936 106.244 500.936H104.691C104.386 500.936 104.164 501.103 103.997 501.408C102.971 503.682 100.531 505.18 97.7297 505.18C93.2092 505.18 90.1585 501.879 90.1585 497.608C90.1585 493.365 93.2092 490.065 97.7297 490.065C100.531 490.065 102.971 491.563 103.997 493.837C104.164 494.142 104.386 494.28 104.691 494.28H106.244C106.66 494.28 106.854 494.031 106.744 493.615C105.44 490.037 101.862 487.569 97.7297 487.569C91.7948 487.569 87.5793 492.034 87.5793 497.608C87.5793 503.211 91.7948 507.676 97.7297 507.676ZM115.864 507.676C119.913 507.676 123.157 504.514 123.157 500.382C123.157 496.277 119.913 493.116 115.864 493.116C111.787 493.116 108.542 496.277 108.542 500.382C108.542 504.514 111.787 507.676 115.864 507.676ZM115.864 505.318C113.09 505.318 110.955 503.183 110.955 500.382C110.955 497.581 113.09 495.445 115.864 495.445C118.609 495.445 120.745 497.581 120.745 500.382C120.745 503.183 118.609 505.318 115.864 505.318ZM132.547 493.116C130.856 493.116 129.441 493.67 128.443 495.168V494.059C128.443 493.67 128.221 493.448 127.86 493.448H126.612C126.224 493.448 126.03 493.67 126.03 494.059V506.733C126.03 507.121 126.224 507.315 126.612 507.315H127.86C128.221 507.315 128.443 507.121 128.443 506.733V499.439C128.443 496.444 130.162 495.39 131.909 495.39C133.546 495.39 134.766 496.416 134.766 498.413V506.733C134.766 507.121 134.988 507.315 135.376 507.315H136.596C136.985 507.315 137.179 507.121 137.179 506.733V498.33C137.179 495.057 135.126 493.116 132.547 493.116ZM146.509 493.448H144.373V489.621C144.373 489.233 144.179 489.011 143.791 489.011H142.543C142.182 489.011 141.961 489.233 141.961 489.621V493.448H139.825C139.437 493.448 139.215 493.67 139.215 494.059V495.196C139.215 495.584 139.437 495.778 139.825 495.778H141.961V506.733C141.961 507.121 142.182 507.315 142.543 507.315H143.791C144.179 507.315 144.373 507.121 144.373 506.733V495.778H146.509C146.897 495.778 147.091 495.584 147.091 495.196V494.059C147.091 493.67 146.897 493.448 146.509 493.448ZM155.446 493.254C154.004 493.393 152.701 494.031 151.869 495.556V494.059C151.869 493.67 151.647 493.476 151.286 493.476H150.038C149.65 493.476 149.456 493.67 149.456 494.059V506.733C149.456 507.121 149.65 507.343 150.038 507.343H151.286C151.647 507.343 151.869 507.121 151.869 506.733V499.91C151.869 496.915 153.699 495.806 155.641 495.723C155.89 495.723 156.057 495.501 156.057 495.14V493.837C156.057 493.448 155.835 493.227 155.446 493.254ZM158.976 490.952H160.224C160.585 490.952 160.806 490.758 160.806 490.37V488.512C160.806 488.124 160.585 487.902 160.224 487.902H158.976C158.588 487.902 158.394 488.124 158.394 488.512V490.37C158.394 490.758 158.588 490.952 158.976 490.952ZM158.976 507.315H160.224C160.585 507.315 160.806 507.121 160.806 506.733V494.059C160.806 493.67 160.585 493.448 160.224 493.448H158.976C158.588 493.448 158.394 493.67 158.394 494.059V506.733C158.394 507.121 158.588 507.315 158.976 507.315ZM172.142 493.116C169.785 493.116 168.01 494.142 166.9 495.806V488.512C166.9 488.124 166.678 487.902 166.318 487.902H165.07C164.682 487.902 164.488 488.124 164.488 488.512V506.733C164.488 507.121 164.682 507.315 165.07 507.315H166.318C166.678 507.315 166.9 507.121 166.9 506.733V504.986C168.01 506.65 169.785 507.676 172.142 507.676C175.969 507.676 179.158 504.514 179.158 500.382C179.158 496.277 175.969 493.116 172.142 493.116ZM171.809 505.346C169.036 505.346 166.9 503.211 166.9 500.382C166.9 497.553 169.036 495.418 171.809 495.418C174.61 495.418 176.746 497.553 176.746 500.382C176.746 503.211 174.61 505.346 171.809 505.346ZM192.271 493.448H191.023C190.662 493.448 190.441 493.67 190.441 494.059V501.352C190.441 504.348 188.721 505.374 186.974 505.374C185.338 505.374 184.117 504.348 184.117 502.379V494.059C184.117 493.67 183.896 493.448 183.507 493.448H182.287C181.899 493.448 181.705 493.67 181.705 494.059V502.462C181.705 505.707 183.757 507.676 186.336 507.676C188 507.676 189.442 507.121 190.441 505.623V506.733C190.441 507.121 190.635 507.315 191.023 507.315H192.271C192.632 507.315 192.853 507.121 192.853 506.733V494.059C192.853 493.67 192.632 493.448 192.271 493.448ZM202.517 493.448H200.382V489.621C200.382 489.233 200.188 489.011 199.8 489.011H198.552C198.191 489.011 197.969 489.233 197.969 489.621V493.448H195.834C195.445 493.448 195.224 493.67 195.224 494.059V495.196C195.224 495.584 195.445 495.778 195.834 495.778H197.969V506.733C197.969 507.121 198.191 507.315 198.552 507.315H199.8C200.188 507.315 200.382 507.121 200.382 506.733V495.778H202.517C202.906 495.778 203.1 495.584 203.1 495.196V494.059C203.1 493.67 202.906 493.448 202.517 493.448ZM211.494 507.676C215.544 507.676 218.788 504.514 218.788 500.382C218.788 496.277 215.544 493.116 211.494 493.116C207.418 493.116 204.173 496.277 204.173 500.382C204.173 504.514 207.418 507.676 211.494 507.676ZM211.494 505.318C208.721 505.318 206.586 503.183 206.586 500.382C206.586 497.581 208.721 495.445 211.494 495.445C214.24 495.445 216.376 497.581 216.376 500.382C216.376 503.183 214.24 505.318 211.494 505.318ZM227.651 493.254C226.209 493.393 224.906 494.031 224.074 495.556V494.059C224.074 493.67 223.852 493.476 223.491 493.476H222.243C221.855 493.476 221.661 493.67 221.661 494.059V506.733C221.661 507.121 221.855 507.343 222.243 507.343H223.491C223.852 507.343 224.074 507.121 224.074 506.733V499.91C224.074 496.915 225.904 495.806 227.845 495.723C228.095 495.723 228.261 495.501 228.261 495.14V493.837C228.261 493.448 228.04 493.227 227.651 493.254ZM232.27 497.22C232.27 495.917 233.546 495.334 234.905 495.334C236.069 495.334 237.206 495.806 237.456 497.054C237.567 497.414 237.733 497.608 238.066 497.608H239.286C239.675 497.608 239.924 497.414 239.869 496.998C239.592 494.502 237.512 493.116 234.905 493.116C232.076 493.116 229.857 494.724 229.857 497.22C229.857 502.462 237.789 500.41 237.789 503.571C237.789 504.875 236.513 505.429 234.905 505.429C233.518 505.429 232.325 504.986 232.076 503.71C231.965 503.377 231.798 503.183 231.438 503.183H230.218C229.857 503.183 229.608 503.377 229.635 503.793C229.94 506.261 232.048 507.676 234.905 507.676C237.983 507.676 240.202 506.067 240.202 503.571C240.202 498.33 232.27 500.382 232.27 497.22Z" fill="white"/>
<path d="M224.9 719.599V739.221C224.9 739.639 225.109 739.848 225.527 739.848H227.021C227.439 739.848 227.648 739.639 227.648 739.221V719.599C227.648 719.181 227.439 718.942 227.021 718.942H225.527C225.109 718.942 224.9 719.181 224.9 719.599ZM234.045 728.977C234.045 727.573 235.419 726.946 236.882 726.946C238.137 726.946 239.361 727.454 239.63 728.798C239.749 729.186 239.929 729.395 240.287 729.395H241.601C242.019 729.395 242.288 729.186 242.228 728.738C241.93 726.05 239.69 724.557 236.882 724.557C233.836 724.557 231.446 726.289 231.446 728.977C231.446 734.622 239.988 732.412 239.988 735.817C239.988 737.22 238.614 737.818 236.882 737.818C235.389 737.818 234.105 737.34 233.836 735.966C233.716 735.607 233.537 735.398 233.149 735.398H231.835C231.446 735.398 231.178 735.607 231.207 736.055C231.536 738.714 233.806 740.237 236.882 740.237C240.197 740.237 242.587 738.505 242.587 735.817C242.587 730.172 234.045 732.382 234.045 728.977ZM247.665 728.977C247.665 727.573 249.039 726.946 250.502 726.946C251.757 726.946 252.981 727.454 253.25 728.798C253.37 729.186 253.549 729.395 253.907 729.395H255.221C255.639 729.395 255.908 729.186 255.849 728.738C255.55 726.05 253.31 724.557 250.502 724.557C247.456 724.557 245.067 726.289 245.067 728.977C245.067 734.622 253.609 732.412 253.609 735.817C253.609 737.22 252.235 737.818 250.502 737.818C249.009 737.818 247.725 737.34 247.456 735.966C247.337 735.607 247.157 735.398 246.769 735.398H245.455C245.067 735.398 244.798 735.607 244.828 736.055C245.156 738.714 247.426 740.237 250.502 740.237C253.818 740.237 256.207 738.505 256.207 735.817C256.207 730.172 247.665 732.382 247.665 728.977ZM270.332 724.915H268.988C268.599 724.915 268.361 725.154 268.361 725.572V733.427C268.361 736.653 266.509 737.758 264.627 737.758C262.865 737.758 261.551 736.653 261.551 734.532V725.572C261.551 725.154 261.312 724.915 260.894 724.915H259.58C259.162 724.915 258.953 725.154 258.953 725.572V734.622C258.953 738.116 261.163 740.237 263.94 740.237C265.732 740.237 267.285 739.639 268.361 738.027V739.221C268.361 739.639 268.57 739.848 268.988 739.848H270.332C270.72 739.848 270.959 739.639 270.959 739.221V725.572C270.959 725.154 270.72 724.915 270.332 724.915ZM281.813 724.557C277.154 724.557 274.078 727.991 274.078 732.382C274.078 736.892 277.184 740.237 281.843 740.237C284.89 740.237 287.339 738.714 288.384 736.354C288.563 735.966 288.324 735.697 287.846 735.697H286.413C286.054 735.697 285.845 735.846 285.636 736.115C284.949 737.16 283.605 737.907 281.873 737.907C279.245 737.907 277.214 736.324 276.766 733.577H286.502H288.444C288.832 733.577 289.101 733.397 289.131 732.979C289.131 732.8 289.131 732.621 289.131 732.442C289.131 728.23 286.323 724.557 281.813 724.557ZM276.766 731.307C277.154 728.708 279.036 726.976 281.813 726.976C284.053 726.976 286.114 728.38 286.502 731.307H276.766ZM294.157 728.977C294.157 727.573 295.531 726.946 296.994 726.946C298.249 726.946 299.473 727.454 299.742 728.798C299.861 729.186 300.041 729.395 300.399 729.395H301.713C302.131 729.395 302.4 729.186 302.34 728.738C302.042 726.05 299.802 724.557 296.994 724.557C293.948 724.557 291.558 726.289 291.558 728.977C291.558 734.622 300.1 732.412 300.1 735.817C300.1 737.22 298.726 737.818 296.994 737.818C295.501 737.818 294.217 737.34 293.948 735.966C293.828 735.607 293.649 735.398 293.261 735.398H291.947C291.558 735.398 291.29 735.607 291.319 736.055C291.648 738.714 293.918 740.237 296.994 740.237C300.309 740.237 302.699 738.505 302.699 735.817C302.699 730.172 294.157 732.382 294.157 728.977Z" fill="white"/>
<path d="M683.29 718.933H674.748H672.627C672.209 718.933 672 719.172 672 719.59V739.213C672 739.631 672.209 739.84 672.627 739.84H674.121C674.539 739.84 674.748 739.631 674.748 739.213V731.507H682.931C683.349 731.507 683.558 731.298 683.558 730.88V729.506C683.558 729.118 683.349 728.879 682.931 728.879H674.748V721.562H683.29C683.708 721.562 683.947 721.353 683.947 720.934V719.59C683.947 719.172 683.708 718.933 683.29 718.933ZM693.625 740.228C697.985 740.228 701.48 736.823 701.48 732.373C701.48 727.953 697.985 724.548 693.625 724.548C689.234 724.548 685.74 727.953 685.74 732.373C685.74 736.823 689.234 740.228 693.625 740.228ZM693.625 737.69C690.638 737.69 688.338 735.39 688.338 732.373C688.338 729.357 690.638 727.057 693.625 727.057C696.581 727.057 698.881 729.357 698.881 732.373C698.881 735.39 696.581 737.69 693.625 737.69ZM711.024 724.698C709.471 724.847 708.067 725.534 707.171 727.177V725.564C707.171 725.146 706.932 724.937 706.544 724.937H705.2C704.782 724.937 704.573 725.146 704.573 725.564V739.213C704.573 739.631 704.782 739.87 705.2 739.87H706.544C706.932 739.87 707.171 739.631 707.171 739.213V731.866C707.171 728.64 709.142 727.445 711.233 727.356C711.502 727.356 711.681 727.117 711.681 726.729V725.325C711.681 724.907 711.442 724.668 711.024 724.698ZM725.996 739.063L719.395 732.164L725.697 725.713C726.085 725.295 725.936 724.907 725.369 724.907H723.666C723.338 724.907 723.129 725.026 722.92 725.265L716.797 731.537V719.59C716.797 719.172 716.558 718.933 716.17 718.933H714.826C714.408 718.933 714.198 719.172 714.198 719.59V739.213C714.198 739.631 714.408 739.84 714.826 739.84H716.17C716.558 739.84 716.797 739.631 716.797 739.213V732.791L723.218 739.511C723.427 739.75 723.636 739.84 723.965 739.84H725.667C726.235 739.84 726.384 739.452 725.996 739.063ZM730.144 728.969C730.144 727.565 731.518 726.938 732.981 726.938C734.236 726.938 735.46 727.445 735.729 728.789C735.849 729.178 736.028 729.387 736.386 729.387H737.7C738.118 729.387 738.387 729.178 738.328 728.73C738.029 726.042 735.789 724.548 732.981 724.548C729.935 724.548 727.546 726.281 727.546 728.969C727.546 734.613 736.088 732.403 736.088 735.808C736.088 737.212 734.714 737.809 732.981 737.809C731.488 737.809 730.204 737.331 729.935 735.957C729.816 735.599 729.636 735.39 729.248 735.39H727.934C727.546 735.39 727.277 735.599 727.307 736.047C727.635 738.705 729.905 740.228 732.981 740.228C736.297 740.228 738.686 738.496 738.686 735.808C738.686 730.163 730.144 732.373 730.144 728.969Z" fill="white"/>
<path d="M679.344 289.037C682.988 289.037 686.213 286.886 686.213 283.243C686.213 279.181 682.51 278.046 679.404 276.881C677.074 275.985 675.222 275.149 675.222 273.058C675.222 271.176 676.805 270.071 678.926 270.071C681.017 270.071 682.57 271.057 682.838 272.998C682.868 273.387 683.077 273.596 683.466 273.596H684.989C685.407 273.596 685.616 273.387 685.586 272.939C685.288 269.295 682.271 267.383 678.926 267.383C675.581 267.383 672.445 269.414 672.445 273.058C672.445 277.239 675.999 278.345 679.105 279.509C681.435 280.346 683.466 281.212 683.466 283.243C683.466 285.124 681.763 286.349 679.344 286.349C676.805 286.349 675.013 285.214 674.715 283.093C674.685 282.675 674.476 282.466 674.087 282.466H672.564C672.146 282.466 671.937 282.705 671.967 283.123C672.266 287.006 675.551 289.037 679.344 289.037ZM695.53 273.715H693.23V269.594C693.23 269.175 693.021 268.936 692.603 268.936H691.259C690.87 268.936 690.631 269.175 690.631 269.594V273.715H688.332C687.914 273.715 687.675 273.954 687.675 274.372V275.597C687.675 276.015 687.914 276.224 688.332 276.224H690.631V288.021C690.631 288.439 690.87 288.648 691.259 288.648H692.603C693.021 288.648 693.23 288.439 693.23 288.021V276.224H695.53C695.948 276.224 696.157 276.015 696.157 275.597V274.372C696.157 273.954 695.948 273.715 695.53 273.715ZM704.027 273.357C700.921 273.357 698.591 275.119 698.233 277.837C698.203 278.285 698.472 278.494 698.86 278.494H700.174C700.562 278.494 700.741 278.285 700.861 277.926C701.13 276.523 702.474 275.806 704.027 275.806C705.759 275.806 707.252 276.732 707.252 279.091V281.212C706.297 280.136 704.714 279.479 702.832 279.479C700.114 279.479 697.576 281.062 697.576 284.258C697.576 287.454 700.114 289.037 702.832 289.037C704.714 289.037 706.297 288.41 707.252 287.125V288.021C707.252 288.439 707.491 288.648 707.88 288.648H709.194C709.612 288.648 709.821 288.439 709.821 288.021V279.031C709.821 275.418 707.342 273.357 704.027 273.357ZM703.579 286.857C701.249 286.857 700.174 285.751 700.174 284.258C700.174 282.765 701.249 281.66 703.579 281.66C705.729 281.66 707.252 282.675 707.252 284.258C707.252 285.751 705.729 286.857 703.579 286.857ZM719.885 273.506C718.332 273.655 716.928 274.342 716.032 275.985V274.372C716.032 273.954 715.793 273.745 715.405 273.745H714.061C713.643 273.745 713.434 273.954 713.434 274.372V288.021C713.434 288.439 713.643 288.678 714.061 288.678H715.405C715.793 288.678 716.032 288.439 716.032 288.021V280.674C716.032 277.448 718.003 276.254 720.094 276.164C720.363 276.164 720.542 275.925 720.542 275.537V274.133C720.542 273.715 720.303 273.476 719.885 273.506ZM724.859 277.777C724.859 276.373 726.233 275.746 727.696 275.746C728.95 275.746 730.175 276.254 730.444 277.598C730.563 277.986 730.742 278.195 731.101 278.195H732.415C732.833 278.195 733.102 277.986 733.042 277.538C732.744 274.85 730.504 273.357 727.696 273.357C724.65 273.357 722.26 275.089 722.26 277.777C722.26 283.422 730.802 281.212 730.802 284.616C730.802 286.02 729.428 286.618 727.696 286.618C726.203 286.618 724.918 286.14 724.65 284.766C724.53 284.407 724.351 284.198 723.963 284.198H722.649C722.26 284.198 721.992 284.407 722.021 284.855C722.35 287.514 724.62 289.037 727.696 289.037C731.011 289.037 733.401 287.304 733.401 284.616C733.401 278.972 724.859 281.182 724.859 277.777Z" fill="white"/>
<path d="M657.264 233.155L662.214 226.666C662.464 226.25 662.63 225.875 662.63 225.418V222.339C662.63 221.715 662.256 221.341 661.632 221.341H645.325C644.659 221.341 644.326 221.715 644.326 222.339V225.75C644.326 226.374 644.659 226.707 645.325 226.707H655.766L650.899 233.197C650.608 233.613 650.442 233.946 650.442 234.445V236.566C650.442 237.19 650.816 237.523 651.44 237.523H653.562C656.557 237.523 658.262 239.146 658.262 241.517C658.262 243.846 656.557 245.469 653.562 245.469C650.982 245.469 649.36 244.304 648.986 242.432C648.861 241.808 648.57 241.517 647.987 241.517H644.202C643.536 241.517 643.162 241.85 643.203 242.515C643.702 248.09 648.403 251.043 653.562 251.043C659.053 251.043 663.962 247.757 663.962 241.517C663.962 237.19 661.091 234.278 657.264 233.155ZM672.048 244.554H668.096C667.472 244.554 667.098 244.886 667.098 245.552V249.504C667.098 250.128 667.472 250.461 668.096 250.461H669.885C669.885 252.541 669.219 253.456 667.846 253.747C667.347 253.872 667.098 254.122 667.098 254.579V255.453C667.098 255.952 667.389 256.243 667.93 256.202C671.133 255.827 673.046 253.706 673.046 250.461V245.552C673.046 244.886 672.672 244.554 672.048 244.554ZM687.547 231.949H684.302L684.676 226.707H695.284C695.908 226.707 696.283 226.374 696.283 225.75V222.339C696.283 221.715 695.908 221.341 695.284 221.341H680.267C679.684 221.341 679.31 221.715 679.268 222.298L678.228 236.525C678.187 237.149 678.561 237.523 679.185 237.523H687.214C690.251 237.523 691.915 239.146 691.915 241.517C691.915 243.846 690.251 245.469 687.214 245.469C684.676 245.469 683.012 244.304 682.638 242.432C682.513 241.808 682.222 241.517 681.639 241.517H677.854C677.23 241.517 676.814 241.85 676.855 242.515C677.396 248.09 682.055 251.043 687.214 251.043C692.705 251.043 697.614 247.757 697.614 241.517C697.614 235.235 693.038 231.949 687.547 231.949ZM711.545 251.043C718.949 251.043 723.193 244.886 723.193 235.901C723.193 226.915 718.949 220.8 711.545 220.8C704.098 220.8 699.897 226.915 699.897 235.901C699.897 244.886 704.098 251.043 711.545 251.043ZM711.545 245.469C707.634 245.469 705.596 242.058 705.596 235.901C705.596 229.744 707.634 226.374 711.545 226.374C715.413 226.374 717.452 229.744 717.452 235.901C717.452 242.058 715.413 245.469 711.545 245.469ZM737.747 251.043C745.152 251.043 749.395 244.886 749.395 235.901C749.395 226.915 745.152 220.8 737.747 220.8C730.301 220.8 726.099 226.915 726.099 235.901C726.099 244.886 730.301 251.043 737.747 251.043ZM737.747 245.469C733.837 245.469 731.798 242.058 731.798 235.901C731.798 229.744 733.837 226.374 737.747 226.374C741.616 226.374 743.654 229.744 743.654 235.901C743.654 242.058 741.616 245.469 737.747 245.469ZM770.731 233.405H764.907V227.539C764.907 226.915 764.532 226.541 763.908 226.541H760.83C760.206 226.541 759.873 226.915 759.873 227.539V233.405H754.007C753.383 233.405 753.009 233.738 753.009 234.403V237.44C753.009 238.064 753.383 238.438 754.007 238.438H759.873V244.304C759.873 244.928 760.206 245.261 760.83 245.261H763.908C764.532 245.261 764.907 244.928 764.907 244.304V238.438H770.731C771.396 238.438 771.729 238.064 771.729 237.44V234.403C771.729 233.738 771.396 233.405 770.731 233.405Z" fill="white"/>
<path d="M464.162 779.891C462.815 779.883 461.516 779.657 460.263 779.214C459.018 778.771 457.902 778.05 456.913 777.053C455.925 776.056 455.141 774.735 454.561 773.09C453.99 771.445 453.704 769.425 453.704 767.031C453.713 764.832 453.964 762.867 454.459 761.137C454.962 759.398 455.677 757.924 456.606 756.714C457.544 755.504 458.665 754.583 459.969 753.952C461.273 753.313 462.734 752.994 464.354 752.994C466.101 752.994 467.643 753.335 468.981 754.016C470.319 754.69 471.393 755.606 472.203 756.765C473.021 757.924 473.516 759.224 473.686 760.664H468.227C468.014 759.752 467.567 759.036 466.885 758.516C466.203 757.996 465.359 757.737 464.354 757.737C462.649 757.737 461.354 758.478 460.467 759.961C459.589 761.444 459.142 763.46 459.125 766.008H459.304C459.696 765.232 460.224 764.572 460.889 764.026C461.562 763.472 462.325 763.05 463.177 762.761C464.038 762.462 464.946 762.313 465.9 762.313C467.452 762.313 468.832 762.68 470.043 763.413C471.253 764.137 472.207 765.134 472.906 766.404C473.605 767.674 473.954 769.127 473.954 770.763C473.954 772.536 473.541 774.113 472.714 775.494C471.896 776.874 470.75 777.957 469.275 778.741C467.81 779.516 466.105 779.9 464.162 779.891ZM464.136 775.545C464.989 775.545 465.751 775.34 466.425 774.931C467.098 774.522 467.626 773.968 468.01 773.269C468.393 772.57 468.585 771.786 468.585 770.917C468.585 770.048 468.393 769.268 468.01 768.577C467.635 767.887 467.115 767.337 466.45 766.928C465.785 766.519 465.027 766.315 464.175 766.315C463.535 766.315 462.943 766.434 462.398 766.673C461.861 766.911 461.388 767.244 460.979 767.67C460.578 768.096 460.263 768.59 460.033 769.153C459.802 769.707 459.687 770.299 459.687 770.93C459.687 771.773 459.879 772.545 460.263 773.244C460.655 773.942 461.183 774.501 461.848 774.918C462.521 775.336 463.284 775.545 464.136 775.545ZM488.145 780.109C485.946 780.1 484.054 779.559 482.469 778.485C480.892 777.411 479.677 775.856 478.825 773.819C477.981 771.782 477.564 769.332 477.572 766.468C477.572 763.613 477.994 761.18 478.838 759.168C479.69 757.157 480.905 755.627 482.481 754.579C484.067 753.522 485.954 752.994 488.145 752.994C490.335 752.994 492.219 753.522 493.795 754.579C495.381 755.636 496.599 757.17 497.452 759.181C498.304 761.184 498.726 763.613 498.717 766.468C498.717 769.34 498.291 771.795 497.439 773.832C496.595 775.869 495.385 777.424 493.808 778.498C492.231 779.572 490.344 780.109 488.145 780.109ZM488.145 775.519C489.645 775.519 490.842 774.765 491.737 773.256C492.632 771.748 493.075 769.485 493.067 766.468C493.067 764.482 492.862 762.829 492.453 761.508C492.052 760.187 491.481 759.194 490.74 758.529C490.007 757.864 489.142 757.532 488.145 757.532C486.653 757.532 485.46 758.278 484.565 759.769C483.67 761.261 483.219 763.494 483.21 766.468C483.21 768.479 483.41 770.158 483.811 771.505C484.22 772.843 484.795 773.849 485.537 774.522C486.278 775.187 487.148 775.519 488.145 775.519Z" fill="white"/>
<path d="M645.584 698.467V694.478L654.904 685.849C655.696 685.082 656.361 684.391 656.898 683.778C657.443 683.164 657.857 682.563 658.138 681.975C658.419 681.379 658.56 680.735 658.56 680.045C658.56 679.278 658.385 678.617 658.036 678.063C657.686 677.501 657.209 677.07 656.604 676.772C655.999 676.465 655.313 676.312 654.546 676.312C653.744 676.312 653.046 676.474 652.449 676.798C651.852 677.122 651.392 677.586 651.068 678.191C650.744 678.796 650.583 679.516 650.583 680.352H645.328C645.328 678.639 645.716 677.151 646.492 675.89C647.267 674.629 648.354 673.653 649.752 672.962C651.149 672.272 652.76 671.927 654.584 671.927C656.459 671.927 658.091 672.259 659.48 672.924C660.878 673.58 661.965 674.492 662.74 675.66C663.516 676.827 663.904 678.166 663.904 679.674C663.904 680.663 663.708 681.639 663.315 682.602C662.932 683.565 662.246 684.634 661.257 685.81C660.269 686.978 658.875 688.38 657.077 690.016L653.254 693.762V693.941H664.249V698.467H645.584ZM674.23 694.887L674.089 696.293C673.978 697.418 673.765 698.539 673.45 699.656C673.143 700.781 672.819 701.799 672.478 702.711C672.146 703.623 671.878 704.339 671.673 704.859H668.145C668.273 704.356 668.447 703.653 668.669 702.749C668.89 701.854 669.099 700.849 669.295 699.732C669.491 698.616 669.615 697.478 669.666 696.319L669.73 694.887H674.23ZM679.209 698.467L690.063 676.989V676.81H677.42V672.285H695.79V676.874L684.924 698.467H679.209ZM709.287 699.042C707.088 699.033 705.196 698.492 703.611 697.418C702.034 696.345 700.82 694.789 699.967 692.752C699.124 690.715 698.706 688.265 698.715 685.401C698.715 682.546 699.137 680.113 699.98 678.102C700.833 676.09 702.047 674.56 703.624 673.512C705.209 672.455 707.097 671.927 709.287 671.927C711.477 671.927 713.361 672.455 714.938 673.512C716.523 674.569 717.742 676.103 718.594 678.114C719.446 680.117 719.868 682.546 719.86 685.401C719.86 688.273 719.433 690.728 718.581 692.765C717.737 694.802 716.527 696.357 714.95 697.431C713.374 698.505 711.486 699.042 709.287 699.042ZM709.287 694.452C710.787 694.452 711.985 693.698 712.879 692.19C713.774 690.681 714.217 688.418 714.209 685.401C714.209 683.416 714.004 681.762 713.595 680.441C713.195 679.12 712.624 678.127 711.882 677.462C711.149 676.798 710.284 676.465 709.287 676.465C707.796 676.465 706.602 677.211 705.708 678.702C704.813 680.194 704.361 682.427 704.352 685.401C704.352 687.413 704.553 689.092 704.953 690.438C705.362 691.776 705.938 692.782 706.679 693.455C707.421 694.12 708.29 694.452 709.287 694.452ZM734.072 699.042C731.873 699.033 729.981 698.492 728.396 697.418C726.819 696.345 725.605 694.789 724.753 692.752C723.909 690.715 723.491 688.265 723.5 685.401C723.5 682.546 723.922 680.113 724.765 678.102C725.618 676.09 726.832 674.56 728.409 673.512C729.994 672.455 731.882 671.927 734.072 671.927C736.263 671.927 738.146 672.455 739.723 673.512C741.308 674.569 742.527 676.103 743.379 678.114C744.231 680.117 744.653 682.546 744.645 685.401C744.645 688.273 744.219 690.728 743.366 692.765C742.523 694.802 741.312 696.357 739.736 697.431C738.159 698.505 736.271 699.042 734.072 699.042ZM734.072 694.452C735.572 694.452 736.77 693.698 737.665 692.19C738.559 690.681 739.003 688.418 738.994 685.401C738.994 683.416 738.79 681.762 738.38 680.441C737.98 679.12 737.409 678.127 736.667 677.462C735.934 676.798 735.069 676.465 734.072 676.465C732.581 676.465 731.388 677.211 730.493 678.702C729.598 680.194 729.146 682.427 729.138 685.401C729.138 687.413 729.338 689.092 729.738 690.438C730.148 691.776 730.723 692.782 731.464 693.455C732.206 694.12 733.075 694.452 734.072 694.452ZM756.416 694.478V676.376H760.992V694.478H756.416ZM749.653 687.715V683.139H767.755V687.715H749.653Z" fill="white"/>
<path d="M546.833 106.364C554.372 114.603 560.186 124.267 563.934 134.785C567.681 145.305 569.285 156.467 568.654 167.615C569.006 198.946 547.107 221.7 547.107 221.7C517.335 253.932 483.84 249.427 483.84 249.427V348.668C494.969 348.589 506.063 349.904 516.864 352.583L514.435 350.234C521.566 350.378 528.684 349.548 535.591 347.766C527.265 332.777 523.099 315.835 523.524 298.695C523.524 298.695 522.662 260.511 550.672 232.862C562.594 220.562 571.557 205.709 576.88 189.429C582.355 170.507 581.474 150.311 574.373 131.937C567.242 111.826 553.732 94.5952 535.903 82.8651C520.247 73.1179 502.277 67.711 483.84 67.2V78.7147C495.668 78.8 507.355 81.296 518.186 86.0502C529.018 90.8043 538.765 97.7163 546.833 106.364Z" fill="#00D3A9"/>
<path d="M481.44 613.44C553.281 613.44 611.52 551.978 611.52 476.16C611.52 400.342 553.281 338.88 481.44 338.88C409.599 338.88 351.36 400.342 351.36 476.16C351.36 551.978 409.599 613.44 481.44 613.44Z" fill="#252E31"/>
<path opacity="0.498" fill-rule="evenodd" clip-rule="evenodd" d="M497.96 401.861C520.982 401.861 544.005 401.861 567.027 401.861C567.027 411.895 567.027 421.929 567.027 431.963C544.005 431.963 520.982 431.963 497.96 431.963C497.96 421.929 497.96 411.895 497.96 401.861Z" fill="#56CCBF"/>
<path opacity="0.999" fill-rule="evenodd" clip-rule="evenodd" d="M487.107 401.861C487.107 411.6 487.107 421.339 487.107 431.077C469.175 430.785 451.415 431.08 433.827 431.963C433.827 436.98 433.827 441.996 433.827 447.013C420.342 447.013 406.858 447.013 393.373 447.013C393.373 431.963 393.373 416.912 393.373 401.861C424.618 401.861 455.862 401.861 487.107 401.861Z" fill="#0FD3AA"/>
<path fill-rule="evenodd" clip-rule="evenodd" d="M498.947 402.747C521.312 402.747 543.675 402.747 566.04 402.747C566.04 412.19 566.04 421.634 566.04 431.077C543.675 431.077 521.312 431.077 498.947 431.077C498.947 421.634 498.947 412.19 498.947 402.747Z" fill="#00B39E"/>
<path opacity="0.667" fill-rule="evenodd" clip-rule="evenodd" d="M487.107 401.861C488.089 411.737 488.417 421.771 488.093 431.963C470.005 431.963 451.916 431.963 433.827 431.963C451.415 431.08 469.175 430.785 487.107 431.077C487.107 421.339 487.107 411.6 487.107 401.861Z" fill="#71E5CD"/>
<path opacity="0.999" fill-rule="evenodd" clip-rule="evenodd" d="M572.947 501.019C559.462 501.019 545.978 501.019 532.493 501.019C532.493 497.477 532.493 493.936 532.493 490.395C486.12 490.395 439.747 490.395 393.373 490.395C393.373 478.59 393.373 466.786 393.373 454.981C406.858 454.981 420.342 454.981 433.827 454.981C433.827 457.637 433.827 460.293 433.827 462.949C473.327 462.538 512.794 462.981 552.227 464.277C562.655 467.438 569.398 473.783 572.453 483.312C572.947 489.207 573.111 495.109 572.947 501.019Z" fill="#13B4A0"/>
<path opacity="0.082" fill-rule="evenodd" clip-rule="evenodd" d="M393.373 490.395C439.747 490.395 486.12 490.395 532.493 490.395C532.493 493.936 532.493 497.477 532.493 501.019C545.978 501.019 559.462 501.019 572.947 501.019C559.308 501.901 545.495 502.195 531.507 501.904C531.507 498.363 531.507 494.821 531.507 491.28C485.295 491.574 439.251 491.279 393.373 490.395Z" fill="#AAE5DF"/>
<path opacity="0.998" fill-rule="evenodd" clip-rule="evenodd" d="M532.493 510.757C545.978 510.757 559.462 510.757 572.947 510.757C573.112 520.206 572.947 529.65 572.453 539.088C568.798 548.862 561.398 554.912 550.253 557.237C526.247 557.68 502.238 557.828 478.227 557.68C478.227 547.941 478.227 538.203 478.227 528.464C496.315 528.464 514.405 528.464 532.493 528.464C532.493 522.562 532.493 516.66 532.493 510.757Z" fill="#0CD3AA"/>
<path opacity="0.576" fill-rule="evenodd" clip-rule="evenodd" d="M430.867 512.528C418.04 512.528 405.213 512.528 392.387 512.528C392.387 521.381 392.387 530.235 392.387 539.088C391.406 530.099 391.077 520.951 391.4 511.643C404.73 511.351 417.886 511.646 430.867 512.528Z" fill="#7ED7CC"/>
<path fill-rule="evenodd" clip-rule="evenodd" d="M430.867 512.528C430.867 517.545 430.867 522.562 430.867 527.579C443.036 527.579 455.205 527.579 467.373 527.579C467.373 537.317 467.373 547.056 467.373 556.795C449.613 556.795 431.853 556.795 414.093 556.795C402.808 554.933 395.573 549.031 392.387 539.088C392.387 530.235 392.387 521.381 392.387 512.528C405.213 512.528 418.04 512.528 430.867 512.528Z" fill="#08B39F"/>
<path opacity="0.664" fill-rule="evenodd" clip-rule="evenodd" d="M532.493 510.757C532.493 516.66 532.493 522.562 532.493 528.464C514.405 528.464 496.315 528.464 478.227 528.464C495.815 527.581 513.575 527.287 531.507 527.579C531.188 521.805 531.517 516.198 532.493 510.757Z" fill="#69E4CA"/>
<path opacity="0.416" fill-rule="evenodd" clip-rule="evenodd" d="M467.373 527.579C468.355 537.454 468.684 547.488 468.36 557.68C450.099 557.972 432.01 557.677 414.093 556.795C431.853 556.795 449.613 556.795 467.373 556.795C467.373 547.056 467.373 537.317 467.373 527.579Z" fill="#74D4C9"/>
</g>
<path d="M210.54 698.825C208.733 698.825 207.122 698.492 205.708 697.827C204.301 697.163 203.185 696.247 202.358 695.079C201.532 693.911 201.101 692.573 201.067 691.065H206.436C206.496 692.079 206.922 692.901 207.715 693.532C208.507 694.163 209.449 694.478 210.54 694.478C211.409 694.478 212.176 694.286 212.841 693.903C213.515 693.511 214.039 692.97 214.414 692.279C214.797 691.58 214.989 690.779 214.989 689.876C214.989 688.955 214.793 688.146 214.401 687.447C214.017 686.748 213.485 686.202 212.803 685.81C212.121 685.418 211.341 685.218 210.463 685.21C209.696 685.21 208.951 685.367 208.226 685.683C207.51 685.998 206.952 686.428 206.551 686.974L201.63 686.092L202.87 672.285H218.875V676.81H207.434L206.756 683.369H206.909C207.37 682.721 208.064 682.184 208.993 681.758C209.922 681.332 210.962 681.119 212.113 681.119C213.689 681.119 215.095 681.489 216.331 682.231C217.567 682.972 218.543 683.991 219.259 685.286C219.975 686.573 220.328 688.056 220.32 689.735C220.328 691.499 219.919 693.068 219.093 694.44C218.274 695.803 217.128 696.877 215.654 697.661C214.188 698.437 212.483 698.825 210.54 698.825ZM229.307 694.887L229.167 696.293C229.056 697.418 228.843 698.539 228.527 699.656C228.22 700.781 227.897 701.799 227.556 702.711C227.223 703.623 226.955 704.339 226.75 704.859H223.222C223.35 704.356 223.524 703.653 223.746 702.749C223.968 701.854 224.176 700.849 224.372 699.732C224.568 698.616 224.692 697.478 224.743 696.319L224.807 694.887H229.307ZM243.587 698.825C241.78 698.825 240.169 698.492 238.755 697.827C237.348 697.163 236.232 696.247 235.405 695.079C234.578 693.911 234.148 692.573 234.114 691.065H239.483C239.543 692.079 239.969 692.901 240.762 693.532C241.554 694.163 242.496 694.478 243.587 694.478C244.456 694.478 245.223 694.286 245.888 693.903C246.561 693.511 247.086 692.97 247.461 692.279C247.844 691.58 248.036 690.779 248.036 689.876C248.036 688.955 247.84 688.146 247.448 687.447C247.064 686.748 246.532 686.202 245.85 685.81C245.168 685.418 244.388 685.218 243.51 685.21C242.743 685.21 241.997 685.367 241.273 685.683C240.557 685.998 239.999 686.428 239.598 686.974L234.676 686.092L235.917 672.285H251.922V676.81H240.48L239.803 683.369H239.956C240.417 682.721 241.111 682.184 242.04 681.758C242.969 681.332 244.009 681.119 245.159 681.119C246.736 681.119 248.142 681.489 249.378 682.231C250.614 682.972 251.59 683.991 252.306 685.286C253.022 686.573 253.375 688.056 253.367 689.735C253.375 691.499 252.966 693.068 252.14 694.44C251.321 695.803 250.175 696.877 248.701 697.661C247.235 698.437 245.53 698.825 243.587 698.825ZM267.493 699.042C265.294 699.033 263.402 698.492 261.817 697.418C260.24 696.345 259.026 694.789 258.174 692.752C257.33 690.715 256.912 688.265 256.921 685.401C256.921 682.546 257.343 680.113 258.186 678.102C259.039 676.09 260.253 674.56 261.83 673.512C263.415 672.455 265.303 671.927 267.493 671.927C269.684 671.927 271.567 672.455 273.144 673.512C274.729 674.569 275.948 676.103 276.8 678.114C277.652 680.117 278.074 682.546 278.066 685.401C278.066 688.273 277.64 690.728 276.787 692.765C275.943 694.802 274.733 696.357 273.157 697.431C271.58 698.505 269.692 699.042 267.493 699.042ZM267.493 694.452C268.993 694.452 270.191 693.698 271.086 692.19C271.98 690.681 272.424 688.418 272.415 685.401C272.415 683.416 272.211 681.762 271.801 680.441C271.401 679.12 270.83 678.127 270.088 677.462C269.355 676.798 268.49 676.465 267.493 676.465C266.002 676.465 264.809 677.211 263.914 678.702C263.019 680.194 262.567 682.427 262.559 685.401C262.559 687.413 262.759 689.092 263.159 690.438C263.568 691.776 264.144 692.782 264.885 693.455C265.627 694.12 266.496 694.452 267.493 694.452ZM292.278 699.042C290.08 699.033 288.187 698.492 286.602 697.418C285.026 696.345 283.811 694.789 282.959 692.752C282.115 690.715 281.697 688.265 281.706 685.401C281.706 682.546 282.128 680.113 282.972 678.102C283.824 676.09 285.038 674.56 286.615 673.512C288.2 672.455 290.088 671.927 292.278 671.927C294.469 671.927 296.352 672.455 297.929 673.512C299.514 674.569 300.733 676.103 301.585 678.114C302.437 680.117 302.859 682.546 302.851 685.401C302.851 688.273 302.425 690.728 301.572 692.765C300.729 694.802 299.518 696.357 297.942 697.431C296.365 698.505 294.477 699.042 292.278 699.042ZM292.278 694.452C293.778 694.452 294.976 693.698 295.871 692.19C296.766 690.681 297.209 688.418 297.2 685.401C297.2 683.416 296.996 681.762 296.587 680.441C296.186 679.12 295.615 678.127 294.874 677.462C294.141 676.798 293.276 676.465 292.278 676.465C290.787 676.465 289.594 677.211 288.699 678.702C287.804 680.194 287.352 682.427 287.344 685.401C287.344 687.413 287.544 689.092 287.945 690.438C288.354 691.776 288.929 692.782 289.67 693.455C290.412 694.12 291.281 694.452 292.278 694.452ZM314.622 694.478V676.376H319.198V694.478H314.622ZM307.859 687.715V683.139H325.961V687.715H307.859Z" fill="white"/>
<path d="M118.208 440.818V467H112.672V446.072H112.519L106.523 449.831V444.922L113.005 440.818H118.208ZM128.995 463.42L128.854 464.827C128.743 465.952 128.53 467.072 128.215 468.189C127.908 469.314 127.584 470.332 127.243 471.244C126.911 472.156 126.642 472.872 126.438 473.392H122.909C123.037 472.889 123.212 472.186 123.433 471.283C123.655 470.388 123.864 469.382 124.06 468.266C124.256 467.149 124.379 466.011 124.431 464.852L124.495 463.42H128.995ZM133.526 462.398V458.038L144.457 440.818H148.215V446.852H145.991L139.1 457.757V457.962H154.633V462.398H133.526ZM146.093 467V461.068L146.196 459.138V440.818H151.386V467H146.093ZM168.587 467.575C166.388 467.567 164.496 467.026 162.911 465.952C161.334 464.878 160.12 463.322 159.267 461.286C158.424 459.249 158.006 456.798 158.014 453.935C158.014 451.08 158.436 448.646 159.28 446.635C160.132 444.624 161.347 443.094 162.924 442.045C164.509 440.989 166.397 440.46 168.587 440.46C170.777 440.46 172.661 440.989 174.237 442.045C175.823 443.102 177.041 444.636 177.894 446.648C178.746 448.651 179.168 451.08 179.159 453.935C179.159 456.807 178.733 459.261 177.881 461.298C177.037 463.335 175.827 464.891 174.25 465.964C172.674 467.038 170.786 467.575 168.587 467.575ZM168.587 462.986C170.087 462.986 171.284 462.232 172.179 460.723C173.074 459.214 173.517 456.952 173.509 453.935C173.509 451.949 173.304 450.295 172.895 448.974C172.495 447.653 171.924 446.661 171.182 445.996C170.449 445.331 169.584 444.999 168.587 444.999C167.095 444.999 165.902 445.744 165.007 447.236C164.112 448.727 163.661 450.96 163.652 453.935C163.652 455.946 163.852 457.625 164.253 458.972C164.662 460.31 165.237 461.315 165.979 461.989C166.72 462.653 167.59 462.986 168.587 462.986ZM193.372 467.575C191.173 467.567 189.281 467.026 187.696 465.952C186.119 464.878 184.905 463.322 184.052 461.286C183.209 459.249 182.791 456.798 182.8 453.935C182.8 451.08 183.221 448.646 184.065 446.635C184.917 444.624 186.132 443.094 187.709 442.045C189.294 440.989 191.182 440.46 193.372 440.46C195.562 440.46 197.446 440.989 199.023 442.045C200.608 443.102 201.827 444.636 202.679 446.648C203.531 448.651 203.953 451.08 203.944 453.935C203.944 456.807 203.518 459.261 202.666 461.298C201.822 463.335 200.612 464.891 199.035 465.964C197.459 467.038 195.571 467.575 193.372 467.575ZM193.372 462.986C194.872 462.986 196.069 462.232 196.964 460.723C197.859 459.214 198.302 456.952 198.294 453.935C198.294 451.949 198.089 450.295 197.68 448.974C197.28 447.653 196.709 446.661 195.967 445.996C195.234 445.331 194.369 444.999 193.372 444.999C191.881 444.999 190.687 445.744 189.792 447.236C188.898 448.727 188.446 450.96 188.437 453.935C188.437 455.946 188.638 457.625 189.038 458.972C189.447 460.31 190.023 461.315 190.764 461.989C191.506 462.653 192.375 462.986 193.372 462.986ZM215.715 463.011V444.909H220.292V463.011H215.715ZM208.953 456.249V451.672H227.055V456.249H208.953Z" fill="white"/>
<path d="M178.946 240.531V236.172L189.877 218.951H193.635V224.986H191.411L184.52 235.89V236.095H200.053V240.531H178.946ZM191.513 245.133V239.201L191.615 237.271V218.951H196.806V245.133H191.513ZM213.304 245.491C211.497 245.491 209.886 245.159 208.471 244.494C207.065 243.829 205.948 242.913 205.122 241.746C204.295 240.578 203.865 239.24 203.831 237.731H209.2C209.26 238.746 209.686 239.568 210.478 240.199C211.271 240.829 212.213 241.145 213.304 241.145C214.173 241.145 214.94 240.953 215.605 240.569C216.278 240.177 216.802 239.636 217.177 238.946C217.561 238.247 217.752 237.446 217.752 236.542C217.752 235.622 217.556 234.812 217.164 234.113C216.781 233.415 216.248 232.869 215.566 232.477C214.885 232.085 214.105 231.885 213.227 231.876C212.46 231.876 211.714 232.034 210.99 232.349C210.274 232.665 209.715 233.095 209.315 233.64L204.393 232.758L205.633 218.951H221.639V223.477H210.197L209.519 230.035H209.673C210.133 229.388 210.828 228.851 211.757 228.424C212.686 227.998 213.725 227.785 214.876 227.785C216.453 227.785 217.859 228.156 219.095 228.898C220.331 229.639 221.306 230.657 222.022 231.953C222.738 233.24 223.092 234.723 223.083 236.402C223.092 238.166 222.683 239.734 221.856 241.106C221.038 242.47 219.892 243.544 218.417 244.328C216.951 245.103 215.247 245.491 213.304 245.491ZM232.071 241.554L231.93 242.96C231.819 244.085 231.606 245.206 231.291 246.322C230.984 247.447 230.66 248.466 230.319 249.378C229.987 250.29 229.718 251.005 229.514 251.525H225.985C226.113 251.023 226.288 250.319 226.51 249.416C226.731 248.521 226.94 247.515 227.136 246.399C227.332 245.282 227.456 244.145 227.507 242.986L227.571 241.554H232.071ZM246.21 245.709C244.011 245.7 242.119 245.159 240.534 244.085C238.957 243.011 237.742 241.456 236.89 239.419C236.046 237.382 235.629 234.932 235.637 232.068C235.637 229.213 236.059 226.78 236.903 224.768C237.755 222.757 238.97 221.227 240.546 220.179C242.132 219.122 244.019 218.594 246.21 218.594C248.4 218.594 250.284 219.122 251.86 220.179C253.446 221.236 254.664 222.77 255.517 224.781C256.369 226.784 256.791 229.213 256.782 232.068C256.782 234.94 256.356 237.395 255.504 239.432C254.66 241.469 253.45 243.024 251.873 244.098C250.296 245.172 248.409 245.709 246.21 245.709ZM246.21 241.119C247.71 241.119 248.907 240.365 249.802 238.856C250.697 237.348 251.14 235.085 251.132 232.068C251.132 230.082 250.927 228.429 250.518 227.108C250.117 225.787 249.546 224.794 248.805 224.129C248.072 223.464 247.207 223.132 246.21 223.132C244.718 223.132 243.525 223.878 242.63 225.369C241.735 226.861 241.284 229.094 241.275 232.068C241.275 234.079 241.475 235.758 241.876 237.105C242.285 238.443 242.86 239.449 243.602 240.122C244.343 240.787 245.213 241.119 246.21 241.119ZM270.995 245.709C268.796 245.7 266.904 245.159 265.319 244.085C263.742 243.011 262.528 241.456 261.675 239.419C260.832 237.382 260.414 234.932 260.423 232.068C260.423 229.213 260.844 226.78 261.688 224.768C262.54 222.757 263.755 221.227 265.332 220.179C266.917 219.122 268.805 218.594 270.995 218.594C273.185 218.594 275.069 219.122 276.646 220.179C278.231 221.236 279.45 222.77 280.302 224.781C281.154 226.784 281.576 229.213 281.567 232.068C281.567 234.94 281.141 237.395 280.289 239.432C279.445 241.469 278.235 243.024 276.658 244.098C275.082 245.172 273.194 245.709 270.995 245.709ZM270.995 241.119C272.495 241.119 273.692 240.365 274.587 238.856C275.482 237.348 275.925 235.085 275.917 232.068C275.917 230.082 275.712 228.429 275.303 227.108C274.903 225.787 274.332 224.794 273.59 224.129C272.857 223.464 271.992 223.132 270.995 223.132C269.503 223.132 268.31 223.878 267.415 225.369C266.521 226.861 266.069 229.094 266.06 232.068C266.06 234.079 266.261 235.758 266.661 237.105C267.07 238.443 267.646 239.449 268.387 240.122C269.128 240.787 269.998 241.119 270.995 241.119ZM295.78 245.709C293.581 245.7 291.689 245.159 290.104 244.085C288.527 243.011 287.313 241.456 286.461 239.419C285.617 237.382 285.199 234.932 285.208 232.068C285.208 229.213 285.63 226.78 286.473 224.768C287.326 222.757 288.54 221.227 290.117 220.179C291.702 219.122 293.59 218.594 295.78 218.594C297.97 218.594 299.854 219.122 301.431 220.179C303.016 221.236 304.235 222.77 305.087 224.781C305.939 226.784 306.361 229.213 306.353 232.068C306.353 234.94 305.926 237.395 305.074 239.432C304.23 241.469 303.02 243.024 301.443 244.098C299.867 245.172 297.979 245.709 295.78 245.709ZM295.78 241.119C297.28 241.119 298.478 240.365 299.372 238.856C300.267 237.348 300.711 235.085 300.702 232.068C300.702 230.082 300.497 228.429 300.088 227.108C299.688 225.787 299.117 224.794 298.375 224.129C297.642 223.464 296.777 223.132 295.78 223.132C294.289 223.132 293.095 223.878 292.201 225.369C291.306 226.861 290.854 229.094 290.845 232.068C290.845 234.079 291.046 235.758 291.446 237.105C291.855 238.443 292.431 239.449 293.172 240.122C293.914 240.787 294.783 241.119 295.78 241.119ZM318.124 241.145V223.042H322.7V241.145H318.124ZM311.361 234.382V229.805H329.463V234.382H311.361Z" fill="white"/>
<path d="M450.17 349.921L446.018 353.837C458.14 350.337 470.694 348.557 483.311 348.55V249.623C483.311 249.623 449.817 254.127 420.084 221.895C420.084 221.895 398.146 199.063 398.498 167.811C397.85 156.625 399.454 145.423 403.215 134.867C406.978 124.312 412.82 114.62 420.397 106.364C428.456 97.6789 438.202 90.7306 449.04 85.9423C459.879 81.1551 471.58 78.6283 483.43 78.5184V67.2C464.991 67.7109 447.022 73.1178 431.366 82.865C413.491 94.6922 399.99 112.054 392.935 132.29C385.834 150.664 384.953 170.859 390.428 189.781C395.726 205.99 404.634 220.787 416.479 233.057C444.489 260.706 443.627 298.891 443.627 298.891C444.058 316.091 439.865 333.091 431.483 348.119C437.61 349.511 443.89 350.116 450.17 349.921Z" fill="#00B39F"/>
<path d="M484.907 251.733C533.213 251.733 572.373 212.573 572.373 164.267C572.373 115.96 533.213 76.8 484.907 76.8C436.6 76.8 397.44 115.96 397.44 164.267C397.44 212.573 436.6 251.733 484.907 251.733Z" fill="#252E31"/>
<path d="M448.486 354.971C448.979 351.025 456.666 352.385 458.713 353.409C461.689 354.897 466.195 356.25 469.578 356.25C475.362 356.25 478.795 355.988 483.639 353.835C485.376 353.063 488.113 354.645 488.113 351.775C488.113 350.466 488.805 347.301 486.835 347.301C484.698 347.301 485.383 350.872 483 351.136C481.351 351.32 479.19 351.323 477.603 350.852C474.745 350.005 472.909 349.507 470.217 350.852C468.557 351.682 467.587 353.97 465.672 353.622C461.772 352.913 460.238 350.158 455.517 351.207C453.57 351.64 453.191 354.366 451.682 355.539C449.932 356.9 446.761 356.25 444.651 356.25" stroke="#252E31" stroke-width="3" stroke-linecap="round"/>
<path d="M444.651 357.528C444.651 352.74 450.138 353.693 453.599 353.693C455.63 353.693 457.679 353.771 459.707 353.693C461.947 353.607 461.684 351.657 463.258 351.207C465.979 350.43 487.971 352.328 487.971 350.426C487.971 345.374 482.012 351.12 481.722 351.136C476.732 351.414 472.038 350.585 467.235 352.415C462.352 354.275 446.534 351.207 444.651 354.971" stroke="#252E31" stroke-width="3" stroke-linecap="round"/>
<path d="M449.765 351.136C451.4 350.932 451.294 349.021 452.96 348.651C454.543 348.299 456.456 348.58 458.073 348.58C461.482 348.58 464.891 348.58 468.3 348.58C472.006 348.58 485.492 350.452 486.267 345.029C486.292 344.856 484.513 346.369 484.279 346.662C483.377 347.789 481.113 347.301 479.804 347.301C475.813 347.301 472.291 346.023 468.3 346.023C465.321 346.023 451.773 349.721 457.434 351.136" stroke="#252E31" stroke-width="3" stroke-linecap="round"/>
<path d="M463.826 349.858C459.719 349.858 455.769 350.691 452.321 352.415" stroke="#252E31" stroke-width="3" stroke-linecap="round"/>
<path d="M454.878 349.858C452.852 350.111 450.39 351.816 449.765 353.693" stroke="#252E31" stroke-width="3" stroke-linecap="round"/>
<path d="M485.557 342.188C484.786 339.104 469.7 344.745 466.666 344.745C458.258 344.745 451.778 345.114 443.799 347.301C438.388 348.785 432.309 351.136 426.755 351.136" stroke="#252E31" stroke-width="3" stroke-linecap="round"/>
<path d="M481.722 346.023C478.176 346.023 466.915 347.301 468.3 347.301C474.329 347.301 479.832 346.697 485.557 346.023C488.4 345.689 489.283 342.615 484.989 343.395C482.15 343.912 478.854 343.467 475.97 343.467C470.219 343.467 465.361 344.745 459.991 344.745C454.561 344.745 451.204 347.164 446.498 348.509C439.454 350.521 440.993 353.693 448.486 353.693C451.521 353.693 463.968 349.858 458.073 349.858C452.323 349.858 447.465 351.136 442.095 351.136C437.036 351.136 437.663 351.136 442.663 351.136C446.584 351.136 448.115 349.151 451.114 348.651C453.619 348.233 456.532 346.151 458.713 346.023C460.73 345.904 465.776 347.02 467.377 345.739C470.463 343.27 477.163 342.188 481.083 342.188C483.698 342.188 488.824 340.91 488.824 340.91C488.824 340.91 483.237 340.91 480.444 340.91C475.337 340.91 468.15 339.583 463.258 340.981C460.587 341.744 459.462 343.467 456.156 343.467C454.236 343.467 449.005 342.54 447.492 343.751C445.302 345.503 439.211 349.858 436.342 349.858C430.658 349.858 428.274 356.768 424.199 358.806" stroke="#252E31" stroke-width="3" stroke-linecap="round"/>
<path d="M481.722 342.188C476.822 342.188 471.922 342.188 467.021 342.188C459.02 342.188 462.336 345.905 468.3 347.23C470.266 347.667 472.68 347.301 474.691 347.301C478.772 347.301 478.533 348.365 475.899 346.023C472.642 343.129 471.428 347.301 466.382 347.301" stroke="#252E31" stroke-width="3" stroke-linecap="round"/>
<path d="M486.835 340.91C480.638 340.91 475.181 339.632 468.939 339.632C462.516 339.632 459.598 341.844 454.167 343.396C451.444 344.174 457.946 343.467 459.352 343.467C464.276 343.467 459.733 340.91 457.434 340.91C450.668 340.91 447.099 343.041 441.385 344.674C438.523 345.491 437.702 346.475 435.064 347.941C433.475 348.823 428.82 349.513 428.033 350.497C425.72 353.388 423.283 353.693 428.673 353.693C431.194 353.693 435.841 354.695 437.266 352.415C438.153 350.995 442.364 348.226 440.816 348.864C435.413 351.089 439.64 349.372 442.663 348.509C453.658 345.367 434.382 346.023 439.538 346.023" stroke="#252E31" stroke-width="3" stroke-linecap="round"/>
<path d="M421.098 162.84V158.408L431.453 148.82C432.334 147.968 433.072 147.201 433.669 146.519C434.275 145.837 434.734 145.17 435.047 144.516C435.359 143.853 435.516 143.138 435.516 142.371C435.516 141.519 435.321 140.785 434.933 140.17C434.545 139.545 434.015 139.066 433.342 138.735C432.67 138.394 431.908 138.223 431.055 138.223C430.165 138.223 429.389 138.403 428.726 138.763C428.063 139.123 427.552 139.639 427.192 140.312C426.832 140.984 426.652 141.784 426.652 142.712H420.814C420.814 140.809 421.245 139.156 422.106 137.755C422.968 136.353 424.176 135.269 425.729 134.502C427.282 133.735 429.071 133.351 431.098 133.351C433.181 133.351 434.995 133.721 436.538 134.459C438.091 135.188 439.299 136.202 440.16 137.499C441.022 138.796 441.453 140.283 441.453 141.959C441.453 143.058 441.235 144.142 440.8 145.212C440.374 146.282 439.611 147.471 438.513 148.777C437.414 150.075 435.866 151.633 433.868 153.451L429.621 157.613V157.812H441.837V162.84H421.098ZM457.7 163.479C455.256 163.47 453.154 162.868 451.393 161.675C449.641 160.482 448.291 158.754 447.344 156.491C446.407 154.227 445.943 151.505 445.952 148.323C445.952 145.151 446.421 142.447 447.359 140.212C448.306 137.977 449.655 136.277 451.407 135.113C453.168 133.938 455.266 133.351 457.7 133.351C460.133 133.351 462.226 133.938 463.978 135.113C465.739 136.287 467.093 137.991 468.04 140.226C468.987 142.452 469.456 145.151 469.447 148.323C469.447 151.514 468.973 154.241 468.026 156.505C467.089 158.768 465.744 160.496 463.992 161.689C462.24 162.883 460.143 163.479 457.7 163.479ZM457.7 158.38C459.366 158.38 460.697 157.542 461.691 155.866C462.685 154.189 463.178 151.675 463.168 148.323C463.168 146.116 462.941 144.279 462.486 142.812C462.041 141.344 461.407 140.241 460.583 139.502C459.769 138.763 458.807 138.394 457.7 138.394C456.042 138.394 454.717 139.223 453.722 140.88C452.728 142.537 452.226 145.018 452.217 148.323C452.217 150.558 452.439 152.423 452.884 153.92C453.339 155.406 453.978 156.524 454.802 157.272C455.626 158.01 456.592 158.38 457.7 158.38ZM485.239 163.479C482.795 163.47 480.693 162.868 478.932 161.675C477.18 160.482 475.83 158.754 474.883 156.491C473.946 154.227 473.482 151.505 473.491 148.323C473.491 145.151 473.96 142.447 474.898 140.212C475.845 137.977 477.194 136.277 478.946 135.113C480.707 133.938 482.805 133.351 485.239 133.351C487.672 133.351 489.765 133.938 491.517 135.113C493.278 136.287 494.633 137.991 495.579 140.226C496.526 142.452 496.995 145.151 496.986 148.323C496.986 151.514 496.512 154.241 495.565 156.505C494.628 158.768 493.283 160.496 491.531 161.689C489.779 162.883 487.682 163.479 485.239 163.479ZM485.239 158.38C486.905 158.38 488.236 157.542 489.23 155.866C490.224 154.189 490.717 151.675 490.707 148.323C490.707 146.116 490.48 144.279 490.026 142.812C489.58 141.344 488.946 140.241 488.122 139.502C487.308 138.763 486.347 138.394 485.239 138.394C483.581 138.394 482.256 139.223 481.261 140.88C480.267 142.537 479.765 145.018 479.756 148.323C479.756 150.558 479.978 152.423 480.423 153.92C480.878 155.406 481.517 156.524 482.341 157.272C483.165 158.01 484.131 158.38 485.239 158.38ZM512.778 163.479C510.334 163.47 508.232 162.868 506.471 161.675C504.719 160.482 503.37 158.754 502.423 156.491C501.485 154.227 501.021 151.505 501.03 148.323C501.03 145.151 501.499 142.447 502.437 140.212C503.384 137.977 504.733 136.277 506.485 135.113C508.246 133.938 510.344 133.351 512.778 133.351C515.211 133.351 517.304 133.938 519.056 135.113C520.817 136.287 522.172 137.991 523.119 140.226C524.066 142.452 524.534 145.151 524.525 148.323C524.525 151.514 524.051 154.241 523.104 156.505C522.167 158.768 520.822 160.496 519.07 161.689C517.318 162.883 515.221 163.479 512.778 163.479ZM512.778 158.38C514.444 158.38 515.775 157.542 516.769 155.866C517.763 154.189 518.256 151.675 518.246 148.323C518.246 146.116 518.019 144.279 517.565 142.812C517.12 141.344 516.485 140.241 515.661 139.502C514.847 138.763 513.886 138.394 512.778 138.394C511.12 138.394 509.795 139.223 508.8 140.88C507.806 142.537 507.304 145.018 507.295 148.323C507.295 150.558 507.517 152.423 507.962 153.92C508.417 155.406 509.056 156.524 509.88 157.272C510.704 158.01 511.67 158.38 512.778 158.38ZM537.604 158.408V138.295H542.689V158.408H537.604ZM530.089 150.894V145.809H550.203V150.894H530.089Z" fill="white"/>
<path d="M419.36 176.485V194.667H417.158V176.485H419.36ZM425.586 186.464V194.667H423.49V181.03H425.515V183.161H425.692C426.012 182.468 426.497 181.912 427.148 181.492C427.799 181.066 428.64 180.853 429.669 180.853C430.593 180.853 431.401 181.042 432.093 181.421C432.786 181.794 433.324 182.362 433.709 183.125C434.094 183.883 434.286 184.842 434.286 186.002V194.667H432.191V186.144C432.191 185.073 431.913 184.238 431.356 183.64C430.8 183.037 430.036 182.735 429.066 182.735C428.397 182.735 427.799 182.88 427.272 183.17C426.752 183.46 426.34 183.883 426.038 184.439C425.737 184.996 425.586 185.67 425.586 186.464ZM444.045 181.03V182.806H436.978V181.03H444.045ZM439.038 177.763H441.133V190.76C441.133 191.352 441.219 191.796 441.39 192.092C441.568 192.382 441.793 192.577 442.065 192.678C442.343 192.773 442.636 192.82 442.944 192.82C443.175 192.82 443.364 192.808 443.512 192.785C443.66 192.755 443.779 192.731 443.867 192.714L444.293 194.596C444.151 194.649 443.953 194.702 443.699 194.755C443.444 194.815 443.122 194.844 442.731 194.844C442.139 194.844 441.559 194.717 440.991 194.462C440.429 194.208 439.961 193.82 439.588 193.299C439.221 192.779 439.038 192.122 439.038 191.329V177.763ZM452.767 194.951C451.453 194.951 450.32 194.661 449.367 194.081C448.42 193.495 447.689 192.678 447.174 191.63C446.665 190.577 446.411 189.352 446.411 187.955C446.411 186.558 446.665 185.327 447.174 184.262C447.689 183.191 448.405 182.356 449.323 181.758C450.246 181.155 451.323 180.853 452.554 180.853C453.264 180.853 453.966 180.971 454.658 181.208C455.351 181.445 455.981 181.829 456.549 182.362C457.117 182.889 457.57 183.587 457.908 184.457C458.245 185.327 458.414 186.398 458.414 187.671V188.559H447.902V186.748H456.283C456.283 185.978 456.129 185.292 455.821 184.688C455.519 184.084 455.087 183.608 454.525 183.259C453.969 182.909 453.312 182.735 452.554 182.735C451.72 182.735 450.998 182.942 450.388 183.356C449.784 183.765 449.32 184.297 448.994 184.954C448.669 185.611 448.506 186.316 448.506 187.067V188.275C448.506 189.304 448.684 190.177 449.039 190.894C449.4 191.604 449.9 192.145 450.539 192.518C451.178 192.885 451.921 193.069 452.767 193.069C453.318 193.069 453.815 192.992 454.259 192.838C454.709 192.678 455.096 192.441 455.422 192.128C455.747 191.808 455.999 191.411 456.176 190.938L458.201 191.506C457.987 192.193 457.629 192.796 457.126 193.317C456.623 193.832 456.002 194.235 455.262 194.525C454.522 194.809 453.691 194.951 452.767 194.951ZM467.105 200.064C466.093 200.064 465.223 199.934 464.495 199.674C463.767 199.419 463.16 199.082 462.675 198.662C462.196 198.247 461.814 197.803 461.53 197.33L463.199 196.158C463.388 196.407 463.628 196.691 463.918 197.01C464.208 197.336 464.604 197.617 465.108 197.854C465.617 198.096 466.282 198.218 467.105 198.218C468.206 198.218 469.114 197.951 469.831 197.419C470.547 196.886 470.905 196.052 470.905 194.915V192.145H470.727C470.573 192.394 470.354 192.702 470.07 193.069C469.792 193.43 469.39 193.752 468.863 194.036C468.342 194.314 467.638 194.454 466.75 194.454C465.649 194.454 464.661 194.193 463.785 193.672C462.915 193.151 462.225 192.394 461.716 191.4C461.213 190.405 460.962 189.198 460.962 187.777C460.962 186.381 461.207 185.164 461.698 184.129C462.19 183.087 462.873 182.282 463.749 181.714C464.625 181.14 465.637 180.853 466.785 180.853C467.673 180.853 468.378 181.001 468.898 181.297C469.425 181.587 469.828 181.918 470.106 182.291C470.39 182.658 470.609 182.96 470.763 183.196H470.976V181.03H473V195.057C473 196.229 472.734 197.182 472.201 197.916C471.674 198.656 470.964 199.197 470.07 199.541C469.182 199.89 468.194 200.064 467.105 200.064ZM467.034 192.571C467.874 192.571 468.585 192.379 469.165 191.994C469.745 191.61 470.186 191.056 470.487 190.334C470.789 189.612 470.94 188.748 470.94 187.742C470.94 186.759 470.792 185.892 470.496 185.141C470.2 184.389 469.762 183.8 469.182 183.374C468.602 182.948 467.886 182.735 467.034 182.735C466.146 182.735 465.406 182.96 464.815 183.41C464.229 183.859 463.788 184.463 463.492 185.221C463.202 185.978 463.057 186.819 463.057 187.742C463.057 188.689 463.205 189.526 463.501 190.254C463.802 190.976 464.246 191.545 464.832 191.959C465.424 192.367 466.158 192.571 467.034 192.571ZM476.835 194.667V181.03H478.859V183.09H479.001C479.25 182.415 479.7 181.868 480.351 181.448C481.002 181.027 481.736 180.817 482.552 180.817C482.706 180.817 482.899 180.82 483.13 180.826C483.36 180.832 483.535 180.841 483.653 180.853V182.983C483.582 182.966 483.42 182.939 483.165 182.903C482.916 182.862 482.653 182.841 482.375 182.841C481.712 182.841 481.12 182.98 480.599 183.259C480.084 183.531 479.676 183.91 479.374 184.395C479.078 184.874 478.93 185.422 478.93 186.037V194.667H476.835ZM490.15 194.986C489.286 194.986 488.501 194.823 487.797 194.498C487.093 194.167 486.533 193.69 486.119 193.069C485.705 192.441 485.498 191.684 485.498 190.796C485.498 190.015 485.652 189.381 485.959 188.896C486.267 188.405 486.678 188.02 487.193 187.742C487.708 187.464 488.276 187.257 488.898 187.12C489.525 186.978 490.156 186.866 490.789 186.783C491.617 186.677 492.289 186.597 492.804 186.543C493.325 186.484 493.704 186.387 493.941 186.25C494.183 186.114 494.305 185.878 494.305 185.54V185.469C494.305 184.593 494.065 183.913 493.585 183.427C493.112 182.942 492.393 182.699 491.428 182.699C490.428 182.699 489.644 182.918 489.075 183.356C488.507 183.794 488.108 184.262 487.877 184.759L485.888 184.049C486.243 183.22 486.717 182.575 487.309 182.113C487.907 181.646 488.558 181.32 489.262 181.137C489.972 180.947 490.671 180.853 491.357 180.853C491.795 180.853 492.298 180.906 492.866 181.013C493.44 181.113 493.994 181.323 494.526 181.643C495.065 181.962 495.512 182.445 495.867 183.09C496.222 183.735 496.4 184.599 496.4 185.682V194.667H494.305V192.82H494.198C494.056 193.116 493.819 193.433 493.488 193.77C493.156 194.107 492.715 194.394 492.165 194.631C491.615 194.868 490.943 194.986 490.15 194.986ZM490.469 193.104C491.298 193.104 491.996 192.941 492.564 192.616C493.139 192.29 493.571 191.87 493.861 191.355C494.157 190.84 494.305 190.299 494.305 189.731V187.813C494.216 187.919 494.02 188.017 493.719 188.106C493.423 188.189 493.079 188.263 492.689 188.328C492.304 188.387 491.928 188.44 491.561 188.488C491.2 188.529 490.907 188.565 490.682 188.594C490.138 188.665 489.629 188.781 489.155 188.94C488.688 189.094 488.309 189.328 488.019 189.642C487.735 189.95 487.593 190.37 487.593 190.902C487.593 191.63 487.862 192.181 488.401 192.554C488.945 192.921 489.635 193.104 490.469 193.104ZM506.154 181.03V182.806H499.087V181.03H506.154ZM501.147 177.763H503.242V190.76C503.242 191.352 503.328 191.796 503.5 192.092C503.677 192.382 503.902 192.577 504.174 192.678C504.453 192.773 504.746 192.82 505.053 192.82C505.284 192.82 505.474 192.808 505.622 192.785C505.77 192.755 505.888 192.731 505.977 192.714L506.403 194.596C506.261 194.649 506.062 194.702 505.808 194.755C505.553 194.815 505.231 194.844 504.84 194.844C504.248 194.844 503.668 194.717 503.1 194.462C502.538 194.208 502.07 193.82 501.698 193.299C501.331 192.779 501.147 192.122 501.147 191.329V177.763ZM509.306 194.667V181.03H511.401V194.667H509.306ZM510.371 178.758C509.963 178.758 509.611 178.618 509.315 178.34C509.025 178.062 508.88 177.728 508.88 177.337C508.88 176.946 509.025 176.612 509.315 176.334C509.611 176.056 509.963 175.917 510.371 175.917C510.78 175.917 511.129 176.056 511.419 176.334C511.715 176.612 511.863 176.946 511.863 177.337C511.863 177.728 511.715 178.062 511.419 178.34C511.129 178.618 510.78 178.758 510.371 178.758ZM520.778 194.951C519.547 194.951 518.467 194.658 517.538 194.072C516.615 193.486 515.892 192.666 515.372 191.613C514.857 190.559 514.599 189.328 514.599 187.919C514.599 186.499 514.857 185.259 515.372 184.2C515.892 183.14 516.615 182.318 517.538 181.732C518.467 181.146 519.547 180.853 520.778 180.853C522.009 180.853 523.086 181.146 524.01 181.732C524.939 182.318 525.661 183.14 526.176 184.2C526.697 185.259 526.957 186.499 526.957 187.919C526.957 189.328 526.697 190.559 526.176 191.613C525.661 192.666 524.939 193.486 524.01 194.072C523.086 194.658 522.009 194.951 520.778 194.951ZM520.778 193.069C521.713 193.069 522.483 192.829 523.086 192.35C523.69 191.87 524.137 191.24 524.427 190.459C524.717 189.677 524.862 188.831 524.862 187.919C524.862 187.008 524.717 186.159 524.427 185.372C524.137 184.584 523.69 183.948 523.086 183.463C522.483 182.977 521.713 182.735 520.778 182.735C519.843 182.735 519.074 182.977 518.47 183.463C517.866 183.948 517.419 184.584 517.129 185.372C516.839 186.159 516.694 187.008 516.694 187.919C516.694 188.831 516.839 189.677 517.129 190.459C517.419 191.24 517.866 191.87 518.47 192.35C519.074 192.829 519.843 193.069 520.778 193.069ZM532.251 186.464V194.667H530.155V181.03H532.18V183.161H532.357C532.677 182.468 533.162 181.912 533.813 181.492C534.464 181.066 535.305 180.853 536.334 180.853C537.258 180.853 538.066 181.042 538.758 181.421C539.451 181.794 539.989 182.362 540.374 183.125C540.759 183.883 540.951 184.842 540.951 186.002V194.667H538.856V186.144C538.856 185.073 538.578 184.238 538.021 183.64C537.465 183.037 536.701 182.735 535.731 182.735C535.062 182.735 534.464 182.88 533.937 183.17C533.417 183.46 533.005 183.883 532.703 184.439C532.402 184.996 532.251 185.67 532.251 186.464ZM554.439 184.084L552.556 184.617C552.438 184.303 552.264 183.998 552.033 183.702C551.808 183.401 551.5 183.152 551.109 182.957C550.719 182.761 550.219 182.664 549.609 182.664C548.775 182.664 548.079 182.856 547.523 183.241C546.972 183.62 546.697 184.102 546.697 184.688C546.697 185.209 546.886 185.62 547.265 185.922C547.644 186.224 548.236 186.475 549.041 186.677L551.065 187.174C552.284 187.47 553.193 187.922 553.791 188.532C554.388 189.136 554.687 189.914 554.687 190.867C554.687 191.648 554.462 192.347 554.012 192.962C553.569 193.578 552.947 194.063 552.148 194.418C551.349 194.773 550.42 194.951 549.36 194.951C547.97 194.951 546.818 194.649 545.907 194.045C544.996 193.441 544.418 192.56 544.176 191.4L546.164 190.902C546.354 191.636 546.712 192.187 547.239 192.554C547.771 192.921 548.467 193.104 549.325 193.104C550.302 193.104 551.077 192.897 551.651 192.483C552.231 192.062 552.521 191.559 552.521 190.973C552.521 190.5 552.355 190.103 552.024 189.784C551.692 189.458 551.183 189.216 550.497 189.056L548.224 188.523C546.975 188.227 546.058 187.769 545.472 187.147C544.892 186.52 544.602 185.736 544.602 184.794C544.602 184.025 544.818 183.344 545.25 182.753C545.688 182.161 546.283 181.696 547.034 181.359C547.792 181.021 548.65 180.853 549.609 180.853C550.958 180.853 552.018 181.149 552.787 181.74C553.563 182.332 554.113 183.114 554.439 184.084Z" fill="white"/>
<defs>
<filter id="filter0_d_1_2" x="65.3334" y="67.2001" width="829.843" height="828.267" filterUnits="userSpaceOnUse" color-interpolation-filters="sRGB">
<feFlood flood-opacity="0" result="BackgroundImageFix"/>
<feColorMatrix in="SourceAlpha" type="matrix" values="0 0 0 0 0 0 0 0 0 0 0 0 0 0 0 0 0 0 127 0" result="hardAlpha"/>
<feOffset dy="4"/>
<feGaussianBlur stdDeviation="2"/>
<feComposite in2="hardAlpha" operator="out"/>
<feColorMatrix type="matrix" values="0 0 0 0 0 0 0 0 0 0 0 0 0 0 0 0 0 0 0.25 0"/>
<feBlend mode="normal" in2="BackgroundImageFix" result="effect1_dropShadow_1_2"/>
<feBlend mode="normal" in="SourceGraphic" in2="effect1_dropShadow_1_2" result="shape"/>
</filter>
<filter id="filter1_d_1_2" x="607.2" y="160.648" width="182.933" height="182.933" filterUnits="userSpaceOnUse" color-interpolation-filters="sRGB">
<feFlood flood-opacity="0" result="BackgroundImageFix"/>
<feColorMatrix in="SourceAlpha" type="matrix" values="0 0 0 0 0 0 0 0 0 0 0 0 0 0 0 0 0 0 127 0" result="hardAlpha"/>
<feOffset dy="4"/>
<feGaussianBlur stdDeviation="2"/>
<feComposite in2="hardAlpha" operator="out"/>
<feColorMatrix type="matrix" values="0 0 0 0 0 0 0 0 0 0 0 0 0 0 0 0 0 0 0.25 0"/>
<feBlend mode="normal" in2="BackgroundImageFix" result="effect1_dropShadow_1_2"/>
<feBlend mode="normal" in="SourceGraphic" in2="effect1_dropShadow_1_2" result="shape"/>
</filter>
<filter id="filter2_d_1_2" x="386.4" y="701.096" width="182.933" height="182.933" filterUnits="userSpaceOnUse" color-interpolation-filters="sRGB">
<feFlood flood-opacity="0" result="BackgroundImageFix"/>
<feColorMatrix in="SourceAlpha" type="matrix" values="0 0 0 0 0 0 0 0 0 0 0 0 0 0 0 0 0 0 127 0" result="hardAlpha"/>
<feOffset dy="4"/>
<feGaussianBlur stdDeviation="2"/>
<feComposite in2="hardAlpha" operator="out"/>
<feColorMatrix type="matrix" values="0 0 0 0 0 0 0 0 0 0 0 0 0 0 0 0 0 0 0.25 0"/>
<feBlend mode="normal" in2="BackgroundImageFix" result="effect1_dropShadow_1_2"/>
<feBlend mode="normal" in="SourceGraphic" in2="effect1_dropShadow_1_2" result="shape"/>
</filter>
<filter id="filter3_d_1_2" x="703.2" y="389.982" width="182.933" height="182.933" filterUnits="userSpaceOnUse" color-interpolation-filters="sRGB">
<feFlood flood-opacity="0" result="BackgroundImageFix"/>
<feColorMatrix in="SourceAlpha" type="matrix" values="0 0 0 0 0 0 0 0 0 0 0 0 0 0 0 0 0 0 127 0" result="hardAlpha"/>
<feOffset dy="4"/>
<feGaussianBlur stdDeviation="2"/>
<feComposite in2="hardAlpha" operator="out"/>
<feColorMatrix type="matrix" values="0 0 0 0 0 0 0 0 0 0 0 0 0 0 0 0 0 0 0.25 0"/>
<feBlend mode="normal" in2="BackgroundImageFix" result="effect1_dropShadow_1_2"/>
<feBlend mode="normal" in="SourceGraphic" in2="effect1_dropShadow_1_2" result="shape"/>
</filter>
<filter id="filter4_d_1_2" x="611.467" y="613.333" width="182.933" height="182.933" filterUnits="userSpaceOnUse" color-interpolation-filters="sRGB">
<feFlood flood-opacity="0" result="BackgroundImageFix"/>
<feColorMatrix in="SourceAlpha" type="matrix" values="0 0 0 0 0 0 0 0 0 0 0 0 0 0 0 0 0 0 127 0" result="hardAlpha"/>
<feOffset dy="4"/>
<feGaussianBlur stdDeviation="2"/>
<feComposite in2="hardAlpha" operator="out"/>
<feColorMatrix type="matrix" values="0 0 0 0 0 0 0 0 0 0 0 0 0 0 0 0 0 0 0.25 0"/>
<feBlend mode="normal" in2="BackgroundImageFix" result="effect1_dropShadow_1_2"/>
<feBlend mode="normal" in="SourceGraphic" in2="effect1_dropShadow_1_2" result="shape"/>
</filter>
<filter id="filter5_d_1_2" x="172" y="615.048" width="182.933" height="182.933" filterUnits="userSpaceOnUse" color-interpolation-filters="sRGB">
<feFlood flood-opacity="0" result="BackgroundImageFix"/>
<feColorMatrix in="SourceAlpha" type="matrix" values="0 0 0 0 0 0 0 0 0 0 0 0 0 0 0 0 0 0 127 0" result="hardAlpha"/>
<feOffset dy="4"/>
<feGaussianBlur stdDeviation="2"/>
<feComposite in2="hardAlpha" operator="out"/>
<feColorMatrix type="matrix" values="0 0 0 0 0 0 0 0 0 0 0 0 0 0 0 0 0 0 0.25 0"/>
<feBlend mode="normal" in2="BackgroundImageFix" result="effect1_dropShadow_1_2"/>
<feBlend mode="normal" in="SourceGraphic" in2="effect1_dropShadow_1_2" result="shape"/>
</filter>
<filter id="filter6_d_1_2" x="74.9333" y="388.915" width="182.933" height="182.933" filterUnits="userSpaceOnUse" color-interpolation-filters="sRGB">
<feFlood flood-opacity="0" result="BackgroundImageFix"/>
<feColorMatrix in="SourceAlpha" type="matrix" values="0 0 0 0 0 0 0 0 0 0 0 0 0 0 0 0 0 0 127 0" result="hardAlpha"/>
<feOffset dy="4"/>
<feGaussianBlur stdDeviation="2"/>
<feComposite in2="hardAlpha" operator="out"/>
<feColorMatrix type="matrix" values="0 0 0 0 0 0 0 0 0 0 0 0 0 0 0 0 0 0 0.25 0"/>
<feBlend mode="normal" in2="BackgroundImageFix" result="effect1_dropShadow_1_2"/>
<feBlend mode="normal" in="SourceGraphic" in2="effect1_dropShadow_1_2" result="shape"/>
</filter>
<filter id="filter7_d_1_2" x="163.467" y="163.849" width="182.933" height="182.933" filterUnits="userSpaceOnUse" color-interpolation-filters="sRGB">
<feFlood flood-opacity="0" result="BackgroundImageFix"/>
<feColorMatrix in="SourceAlpha" type="matrix" values="0 0 0 0 0 0 0 0 0 0 0 0 0 0 0 0 0 0 127 0" result="hardAlpha"/>
<feOffset dy="4"/>
<feGaussianBlur stdDeviation="2"/>
<feComposite in2="hardAlpha" operator="out"/>
<feColorMatrix type="matrix" values="0 0 0 0 0 0 0 0 0 0 0 0 0 0 0 0 0 0 0.25 0"/>
<feBlend mode="normal" in2="BackgroundImageFix" result="effect1_dropShadow_1_2"/>
<feBlend mode="normal" in="SourceGraphic" in2="effect1_dropShadow_1_2" result="shape"/>
</filter>
<linearGradient id="paint0_linear_1_2" x1="480" y1="0" x2="480" y2="960" gradientUnits="userSpaceOnUse">
<stop stop-color="white"/>
<stop offset="1" stop-color="#252E31"/>
</linearGradient>
</defs>
</svg>
