<svg width="60" height="62" viewBox="0 0 60 62" fill="none" xmlns="http://www.w3.org/2000/svg">
<g clip-path="url(#clip0_28_1155)">
<path d="M34.8146 20.9917H23.6868L18.0995 30.8332L23.6605 40.5737H34.8117L40.3727 30.8332L34.8131 20.9917H34.8146ZM33.3278 37.9029H25.1414L21.0644 30.8068L25.1458 23.6361H33.3351L37.4151 30.8068L33.3322 37.9044L33.3278 37.9029Z" fill="#141A1F"/>
<path d="M21.0615 30.8313L25.1415 37.9025H33.3308L37.4371 30.8313L33.3308 23.561H25.1415L21.0615 30.8313Z" fill="#E83030"/>
<path d="M34.8146 41.9082H23.6868L18.0995 51.7233L23.6605 61.4638H34.8117L40.3727 51.7233L34.8131 41.9082H34.8146ZM33.3292 58.8941H25.1414L21.0644 51.798L25.1458 44.6272H33.3351L37.4151 51.798L33.3322 58.8955L33.3292 58.8941Z" fill="#141A1F"/>
<path d="M21.0615 51.7225L25.1415 58.8932H33.3308L37.4371 51.7225L33.3308 44.5518H25.1415L21.0615 51.7225Z" fill="#6B91C7"/>
<path d="M34.8146 0H23.6868L18.0995 9.84146L23.6868 19.5819H34.838L40.399 9.84146L34.8146 0ZM33.3292 16.9112H25.1414L21.0644 9.81512L25.1458 2.57122H33.3351L37.4151 9.74195L33.3322 16.9112H33.3292Z" fill="#141A1F"/>
<path d="M21.0615 9.83812L25.1415 16.9109H33.3308L37.4371 9.83812L33.3308 2.56934H25.1415L21.0615 9.83812Z" fill="#F9C31F"/>
<path d="M52.9156 31.5234H41.877L36.316 41.3649L41.877 51.1054H53.0282L58.5892 41.3649L52.9156 31.5234ZM51.4302 48.4771H43.2438L39.1624 41.3795L43.2438 34.2088H51.4317L55.5131 41.3795L51.4317 48.4771H51.4302Z" fill="#141A1F"/>
<path d="M39.142 41.4001L43.282 48.4977H51.4478L55.6273 41.4001L51.4478 34.1313H43.282L39.142 41.4016V41.4001Z" fill="#795AA5"/>
<path d="M52.9156 10.5317H41.877L36.316 20.2723L41.877 30.0127H53.0282L58.5892 20.2723L52.9156 10.5317ZM51.4302 27.4679H43.2438L39.1624 20.3703L43.2438 13.1995H51.4317L55.5131 20.3703L51.4317 27.4679H51.4302Z" fill="#141A1F"/>
<path d="M39.142 20.3768L43.2161 27.568H51.4478L55.6273 20.4719L51.4478 13.2017H43.2161L39.142 20.3768Z" fill="#F17423"/>
<path d="M16.6171 31.5234H5.56098L0 41.3649L5.56098 51.1054H16.7122L22.2732 41.3649L16.6171 31.5234ZM15.1317 48.461H7.04195L2.96195 41.3634L7.04195 34.1927H15.2312L19.3127 41.3634L15.1332 48.461H15.1317Z" fill="#141A1F"/>
<path d="M2.96045 41.3635L7.04191 48.4596H15.1317L19.3112 41.362L15.1317 34.0933H7.04191L2.96045 41.3635Z" fill="#97C639"/>
<path d="M16.6171 10.5317H5.56098L0 20.2723L5.56098 30.0127H16.7122L22.2732 20.2723L16.6171 10.5317ZM15.1317 27.4693H7.04195L2.96195 20.3718L7.04195 13.201H15.2312L19.3127 20.3718L15.1332 27.4693H15.1317Z" fill="#141A1F"/>
<path d="M2.96045 20.3708L7.04191 27.4684H15.1317L19.3112 20.3708L15.1317 13.1021H7.04191L2.96045 20.3708Z" fill="#C9DB70"/>
</g>
<defs>
<clipPath id="clip0_28_1155">
<rect width="60" height="61.4634" fill="white"/>
</clipPath>
</defs>
</svg>
