<svg width="50" height="50" viewBox="0 0 50 50" fill="none" xmlns="http://www.w3.org/2000/svg">
<path d="M50 25C50 38.8194 38.8194 50 25 50C11.1806 50 0 38.8194 0 25C0 11.1806 11.1806 0 25 0C38.8194 0 50 11.1806 50 25Z" fill="black"/>
<path d="M15.799 20.4862C16.5282 20.4862 17.1532 19.8959 17.1532 19.132C17.1532 18.3681 16.5629 17.7778 15.799 17.7778C15.0698 17.7778 14.4448 18.3681 14.4448 19.132C14.4448 19.8959 15.0351 20.4862 15.799 20.4862Z" fill="white"/>
<path d="M16.8754 21.0767H14.7227V28.9239H16.8754V21.0767Z" fill="white"/>
<path d="M33.2643 29.479C32.5352 29.479 31.9102 30.0693 31.9102 30.8332C31.9102 31.5623 32.5004 32.1873 33.2643 32.1873C33.9935 32.1873 34.6185 31.5971 34.6185 30.8332C34.6185 30.104 34.0282 29.479 33.2643 29.479Z" fill="white"/>
<path d="M34.3403 21.0767H32.1875V28.9239H34.3403V21.0767Z" fill="white"/>
<path d="M12.5349 26.0417L12.4655 26.1458C12.2224 26.4583 11.9447 26.6667 11.6669 26.8056C11.3544 26.9444 11.0419 27.0139 10.6947 27.0139C10.1044 27.0139 9.65299 26.8403 9.27105 26.4583C8.88911 26.1111 8.71549 25.625 8.71549 25.0694C8.71549 24.4444 8.88911 23.9583 9.27105 23.5764C9.61827 23.1944 10.1044 23.0208 10.6947 23.0208C11.0419 23.0208 11.3544 23.0903 11.6669 23.2292C12.0141 23.3681 12.2572 23.5764 12.4655 23.8889L12.5349 23.9931L13.7155 22.1875L13.646 22.1528C13.021 21.5972 12.3613 21.2153 11.6322 21.0764C11.2849 21.0069 10.903 20.9375 10.4516 20.9375C9.30577 20.9375 8.33355 21.3194 7.56966 22.1181C6.80577 22.8819 6.42383 23.8889 6.42383 25.0347C6.42383 26.1806 6.80577 27.1875 7.56966 27.9514C8.33355 28.7153 9.30577 29.0972 10.4516 29.0972C10.903 29.0972 11.3197 29.0625 11.6322 28.9583C11.9794 28.8542 12.9169 28.5764 13.6808 27.7431L13.7155 27.7083L12.5349 26.0417Z" fill="white"/>
<path d="M17.7778 21.0767V23.0211H19.8612V28.9239H22.0139V23.0211H24.0626V21.0767H17.7778Z" fill="white"/>
<path d="M29.2361 25.8336C29.7569 25.6947 30.1736 25.4516 30.4514 25.1044C30.7639 24.7224 30.9028 24.2016 30.9028 23.6113C30.9028 22.7433 30.625 22.0836 30.1042 21.7016C29.5833 21.2849 28.6806 21.1113 27.4306 21.1113H25V28.9586H27.1875V26.1808L28.8194 28.9586H31.3889L29.2361 25.8336ZM28.3681 24.5141C28.1597 24.653 27.8472 24.7224 27.4306 24.7224H27.1528V22.8474H27.4653C27.8819 22.8474 28.1944 22.9169 28.3681 23.0905C28.5417 23.2294 28.6111 23.5072 28.6111 23.8544C28.6458 24.1669 28.5764 24.3752 28.3681 24.5141Z" fill="white"/>
<path d="M38.8892 26.4586L40.5212 28.9239H43.0212L40.2434 24.7919L42.7434 21.0767H40.2434L38.8892 23.1253L37.535 21.0767H35.035L37.5698 24.7919L34.792 28.9239H37.292L38.8892 26.4586Z" fill="white"/>
<path d="M43.9932 21.0415C43.4724 21.0415 43.021 21.4582 43.021 22.0137C43.021 22.5346 43.4377 22.9859 43.9932 22.9859C44.5141 22.9859 44.9654 22.5693 44.9654 22.0137C44.9307 21.4929 44.5141 21.0415 43.9932 21.0415ZM43.9932 22.8123C43.5418 22.8123 43.1946 22.4651 43.1946 22.0137C43.1946 21.5623 43.5418 21.2151 43.9932 21.2151C44.4446 21.2151 44.7918 21.5623 44.7918 22.0137C44.7918 22.4651 44.4099 22.8123 43.9932 22.8123Z" fill="white"/>
<path d="M44.2016 22.0835C44.4099 22.0488 44.4447 21.8752 44.4447 21.771C44.4447 21.4932 44.2363 21.4585 44.0974 21.4585H43.6113V22.5349H43.7849V22.0835H44.028L44.3058 22.5002H44.5141L44.2016 22.0835ZM43.7849 21.9446V21.6321H44.0627C44.2016 21.6321 44.2711 21.6668 44.2711 21.8057C44.2711 21.9446 44.2016 21.9793 44.0627 21.9793H43.7849V21.9446Z" fill="white"/>
</svg>
