<svg width="60" height="60" viewBox="0 0 60 60" fill="none" xmlns="http://www.w3.org/2000/svg">
<path fill-rule="evenodd" clip-rule="evenodd" d="M28.9355 36.0293C25.4516 36.0293 22.7418 33.3197 22.7418 29.8358C22.7418 26.352 25.4516 23.6421 28.9355 23.6421C32.4194 23.6421 35.129 26.352 35.129 29.8358C35.129 33.3197 32.4194 36.0293 28.9355 36.0293Z" fill="#961D59"/>
<path fill-rule="evenodd" clip-rule="evenodd" d="M41.0324 32.7389C39.4844 32.7389 38.1293 31.4804 38.1293 29.8355C38.1293 28.2869 39.3871 26.932 41.0324 26.932C42.5804 26.932 43.9358 28.1903 43.9358 29.8355C43.9358 31.4804 42.5806 32.7385 41.0324 32.7385M51.4844 35.4475C51.0974 36.9955 49.5485 37.8655 48.0001 37.4785C46.4521 37.0915 45.5806 35.5435 45.968 33.9955C46.355 32.4475 47.903 31.5745 49.4519 31.9615C50.9009 32.3485 51.8699 33.703 51.5789 35.2525C51.5789 35.2525 51.5789 35.3485 51.4829 35.4451M49.4489 28.09C47.8996 28.477 46.3514 27.5093 45.9644 25.9606C45.5774 24.4126 46.5449 22.8638 48.0935 22.4765C49.6415 22.0895 51.1901 23.0575 51.5771 24.6065C51.6736 24.9935 51.6736 25.3805 51.5771 25.7675C51.4801 26.8325 50.7059 27.7996 49.448 28.09M59.705 35.0575C59.414 36.6055 57.962 37.6705 56.414 37.3805C54.866 37.09 53.801 35.6384 54.092 34.0901C54.3818 32.542 55.8335 31.477 57.3818 31.7671C58.8338 32.0575 59.8988 33.4124 59.8019 34.864C59.7059 34.9606 59.7059 34.9606 59.7059 35.0575M57.3871 27.8999C55.8391 28.1903 54.3871 27.1259 54.0971 25.5773C53.8066 24.0293 54.8711 22.5773 56.4196 22.2869C57.9676 21.9968 59.4196 23.0609 59.7098 24.6095C59.7098 24.8999 59.8066 25.0934 59.7098 25.3835C59.6131 26.6416 58.6454 27.7064 57.3871 27.8999ZM55.355 45.029C54.581 46.3838 52.8389 46.868 51.4841 46.0934C50.1293 45.3194 49.6451 43.5773 50.4196 42.2225C51.1936 40.8676 52.9358 40.3835 54.2906 41.158C55.2584 41.7385 55.8386 42.803 55.742 43.8676C55.6454 44.2546 55.5485 44.6416 55.355 45.0286M54.2906 18.7066C52.9358 19.4806 51.1936 18.9968 50.4196 17.6416C49.6456 16.2869 50.1293 14.545 51.4841 13.7708C52.8389 12.9968 54.5806 13.4804 55.355 14.8358C55.6454 15.416 55.742 15.8999 55.742 16.4804C55.6454 17.3515 55.1615 18.2225 54.2906 18.7064" fill="#D62783"/>
<path d="M29.0324 58.771C21.2905 58.771 14.1293 55.771 8.61313 50.3518C3.29053 44.8348 0.290527 37.5748 0.290527 29.9308C0.290527 22.1878 3.29053 15.0268 8.70973 9.5098C14.1293 4.0918 21.3871 1.0918 29.0324 1.0918C35.4194 1.0918 41.5163 3.1237 46.5484 6.9958L42.9691 11.6401C38.9041 8.5456 34.0651 6.90009 29.0341 6.90009C22.9375 6.90009 17.131 9.3196 12.7762 13.6741C8.42322 18.0293 6.10032 23.7391 6.10032 29.9323C6.10032 36.0293 8.51953 41.8358 12.8744 46.1905C17.2291 50.5453 22.9394 52.8679 29.1325 52.8679C34.2616 52.8679 39.1004 51.2228 43.0675 48.1258L46.5518 52.7698C41.5199 56.6398 35.4233 58.7698 29.0359 58.7698L29.0324 58.771Z" fill="#D62783"/>
</svg>
