<svg width="60" height="60" viewBox="0 0 60 60" fill="none" xmlns="http://www.w3.org/2000/svg">
<path d="M32.6371 9.91846H26.539V17.655H32.6371V9.91846Z" fill="#099CEC"/>
<path d="M32.6371 19.2124H26.539V26.8589H32.6371V19.2124Z" fill="#099CEC"/>
<path d="M25.4318 9.91846H19.3337V17.655H25.4318V9.91846Z" fill="#099CEC"/>
<path d="M39.8516 19.1997H33.7533V26.8464H39.8516V19.1997Z" fill="#099CEC"/>
<path d="M32.6371 0.560059H26.539V8.37397H32.6371V0.560059Z" fill="#099CEC"/>
<path d="M18.2264 9.91846H12.1284V17.655H18.2264V9.91846Z" fill="#099CEC"/>
<path d="M25.4318 19.1997H19.3337V26.8464H25.4318V19.1997Z" fill="#099CEC"/>
<path d="M58.1738 22.7918C56.8452 21.5429 53.7824 21.0925 51.4298 21.7106C51.1254 18.6211 49.889 15.9305 47.6381 13.5104L46.3465 12.313L45.4883 14.1152C43.7907 17.694 43.3296 23.5898 45.1472 27.4776C44.3446 28.0825 42.7666 28.9066 40.6818 28.8548H0.577906C-0.224638 35.3945 1.11306 43.8907 4.63736 49.722C8.06001 55.3733 13.1895 58.2441 19.8965 58.2441C34.4178 58.2441 45.1655 48.9116 50.1936 31.9571C52.168 32.0087 56.4302 31.9702 58.6167 26.1389C58.7551 25.8171 59.2256 24.4395 59.4007 23.9373L58.1738 22.7918Z" fill="#099CEC"/>
<path d="M11.0307 19.1997H11.0213H4.93254V26.8464H11.0307V19.1997Z" fill="#099CEC"/>
<path d="M18.2264 19.1997H12.1284V26.8464H18.2264V19.1997Z" fill="#099CEC"/>
</svg>
