<svg width="60" height="68" viewBox="0 0 60 68" fill="none" xmlns="http://www.w3.org/2000/svg">
<g clip-path="url(#clip0_8500_13881)">
<path d="M0.018659 32.9359C0.018659 27.4675 0.0287566 21.999 0.00534916 16.5307C0.0024806 15.884 0.243323 15.5074 0.778137 15.2004C4.80138 12.8902 8.81989 10.5721 12.8336 8.24585C15.7423 6.56641 18.6509 4.887 21.5595 3.20763C23.2774 2.21488 24.9857 1.20481 26.7187 0.239479C27.0025 0.0813641 27.5001 -0.0423279 27.7055 0.0990345C27.9565 0.271148 28.1127 0.738379 28.1197 1.0818C28.1542 2.80179 28.1232 4.52292 28.1229 6.24371C28.1229 8.86316 28.1086 11.4828 28.1443 14.1018C28.1552 14.9037 27.8728 15.3796 27.159 15.784C22.8906 18.202 18.653 20.6731 14.3987 23.116C13.9192 23.3914 13.7005 23.7387 13.702 24.3093C13.7173 30.0646 13.7173 35.8198 13.702 41.575C13.7005 42.144 13.9017 42.4828 14.392 42.7642C19.3417 45.6057 24.2843 48.4597 29.2198 51.3263C29.7692 51.6453 30.2199 51.6854 30.8032 51.3433C34.8219 48.9879 38.8538 46.6548 42.8987 44.344C44.7305 43.2928 44.1952 43.3517 45.8537 44.3001C49.4668 46.3654 53.0528 48.4783 56.6705 50.5353C57.6133 51.0713 57.3726 51.7905 56.6505 52.2043C49.2116 56.4667 41.7827 60.7464 34.3637 65.0432C33.1244 65.7582 31.8771 66.4605 30.6501 67.1964C30.222 67.4531 29.8615 67.4643 29.4274 67.2124C26.3232 65.4109 23.2084 63.627 20.0989 61.8339C14.2788 58.4773 8.45963 55.1191 2.64144 51.7596C1.99681 51.3876 1.36103 50.9993 0.706883 50.645C0.199034 50.3696 -0.0029132 49.9909 -0.000962578 49.3986C0.0175109 43.9111 0.00993808 38.4235 0.00993808 32.936L0.018659 32.9359Z" fill="#157CFF"/>
<path d="M59.9824 31.471C59.9824 36.3267 59.9824 41.1824 59.9824 46.0381C59.9824 46.2483 59.9894 46.4593 59.9741 46.6692C59.9243 47.3516 59.4168 47.6445 58.8143 47.3076C57.2469 46.4317 55.6861 45.5443 54.1318 44.6456C51.7994 43.3007 49.482 41.9296 47.1387 40.6044C46.5721 40.284 46.3339 39.9145 46.3376 39.2456C46.364 34.2945 46.3434 29.3433 46.362 24.3919C46.3643 23.7884 46.185 23.402 45.6478 23.0953C42.4796 21.2873 39.3272 19.4516 36.169 17.6261C34.9459 16.919 33.725 16.2082 32.4954 15.5121C32.1192 15.299 31.9758 15.0064 31.9766 14.5776C31.9847 10.0279 31.9774 5.47856 31.9825 0.928221C31.9836 0.0607691 32.5121 -0.235609 33.2633 0.198117C36.0752 1.82126 38.8855 3.44716 41.6943 5.07581C47.4974 8.43164 53.3033 11.7825 59.1122 15.1283C59.7636 15.5014 60.0043 15.9315 60.0001 16.6752C59.9715 21.6072 59.9853 26.5394 59.9853 31.4716L59.9824 31.471Z" fill="#3A52DD"/>
<path d="M26.5512 31.1131C26.7154 30.9687 26.8897 30.8341 27.0422 30.6784C29.3804 28.2909 31.7104 25.8954 34.0615 23.5206C34.2742 23.3221 34.5487 23.2031 34.8389 23.1834C35.809 23.1436 36.7818 23.1677 37.9318 23.1677C37.2936 23.8347 36.7671 24.3918 36.2336 24.9416C34.0382 27.2028 31.8402 29.4611 29.6396 31.7164C29.3334 32.0286 29.3203 32.235 29.6223 32.5704C32.4337 35.6929 35.2351 38.8244 38.0264 41.9649C38.1455 42.0982 38.25 42.2448 38.449 42.4962C37.2807 42.4962 36.2575 42.5161 35.2363 42.4778C35.0527 42.4709 34.8498 42.2491 34.7026 42.0847C32.1409 39.226 29.5836 36.3636 27.0305 33.4974C26.8822 33.3312 26.7287 33.1698 26.4589 32.8778C26.4116 33.152 26.3784 33.4285 26.3596 33.7061C26.3553 36.4012 26.3438 39.0964 26.3722 41.7912C26.3781 42.3667 26.2185 42.59 25.6301 42.5226C25.2115 42.4771 24.7892 42.4768 24.3705 42.5216C23.7959 42.5805 23.6156 42.3834 23.6202 41.7919C23.6471 38.3516 23.6331 34.9109 23.6329 31.4704C23.6329 28.9281 23.6467 26.3858 23.6215 23.8439C23.6163 23.3161 23.7714 23.1156 24.3018 23.1607C24.7399 23.2013 25.1809 23.2015 25.6191 23.1614C26.1928 23.104 26.3791 23.2999 26.3699 23.889C26.3364 26.0293 26.3541 28.1704 26.3563 30.3111C26.3563 30.5521 26.382 30.792 26.3958 31.0324L26.5512 31.1131Z" fill="#3C54DF"/>
</g>
<defs>
<clipPath id="clip0_8500_13881">
<rect width="60" height="67.395" fill="white"/>
</clipPath>
</defs>
</svg>
