<svg width="61" height="60" viewBox="0 0 61 60" fill="none" xmlns="http://www.w3.org/2000/svg">
<path fill-rule="evenodd" clip-rule="evenodd" d="M30.4992 0.399902C13.8443 0.399902 0.400024 13.8442 0.400024 30.4991C0.400024 43.7428 9.02847 54.9798 21.0682 58.9931C22.6734 59.1937 23.0748 58.3911 23.0748 57.5884V52.3712C14.647 54.1772 12.841 48.358 12.841 48.358C11.4364 44.9468 9.42979 43.9434 9.42979 43.9434C6.62053 42.1375 9.63045 42.1375 9.63045 42.1375C12.6404 42.3381 14.2457 45.1474 14.2457 45.1474C16.8543 49.7626 21.2688 48.358 23.0748 47.5553C23.2754 45.5487 24.0781 44.3448 25.0814 43.5421C18.4596 42.7395 11.4364 40.1309 11.4364 28.6932C11.4364 25.4826 12.6404 22.6733 14.4463 20.6667C14.045 19.8641 13.0417 16.8541 14.647 12.6403C14.647 12.6403 17.2556 11.8376 22.8741 15.6502C25.282 15.0482 27.8906 14.6469 30.4992 14.6469C33.1078 14.6469 35.7164 15.0482 38.1244 15.6502C43.9436 11.8376 46.3515 12.6403 46.3515 12.6403C47.9568 16.8541 46.9535 19.8641 46.5522 20.6667C48.5588 22.6733 49.5621 25.4826 49.5621 28.6932C49.5621 40.3315 42.5389 42.7395 35.9171 43.5421C36.9204 44.5454 37.9237 46.3514 37.9237 49.1606V57.3878C37.9237 58.1904 38.5257 59.1937 39.9303 58.7924C51.97 54.7792 60.3978 43.5421 60.3978 30.2985C60.5985 13.8442 47.1541 0.399902 30.4992 0.399902Z" fill="#181616"/>
</svg>
