<svg width="60" height="66" viewBox="0 0 60 66" fill="none" xmlns="http://www.w3.org/2000/svg">
<g clip-path="url(#clip0_8500_13921)">
<path fill-rule="evenodd" clip-rule="evenodd" d="M1.25 25.8408H4.95113V30.8519H9.42256V25.8408H13.1237V39.9171H9.42256V34.5493H4.95113V39.9171H1.25V25.8408ZM17.3696 39.9171V25.8408H26.1246V28.9001H21.0707V31.1898H25.5422V34.3053H21.0707V36.8953H26.1246V39.9171H17.3696ZM30.1827 39.9171V25.8408H33.8838V36.2009H38.9564V39.9171H30.1827ZM44.6866 25.8408L50.4356 31.0584L56.1657 25.8408H57.8378V39.9171H54.1179V32.6913L50.4356 36.0508L46.7344 32.71V39.9171H43.0145V25.8408H44.6866Z" fill="#0F1689"/>
<path fill-rule="evenodd" clip-rule="evenodd" d="M43.1384 48.7784C44.2012 48.0342 46.6518 49.7002 48.6118 52.4994C50.5718 55.2986 51.2992 58.1711 50.2363 58.9154C49.1735 59.6596 46.7229 57.9936 44.7629 55.1944C42.8028 52.3952 42.0755 49.5227 43.1384 48.7784Z" fill="#0F1689"/>
<path fill-rule="evenodd" clip-rule="evenodd" d="M17.8154 48.7784C16.7526 48.0342 14.302 49.7001 12.3419 52.4994C10.3819 55.2986 9.65463 58.1711 10.7175 58.9154C11.7803 59.6596 14.2309 57.9936 16.1909 55.1944C18.1509 52.3952 18.8783 49.5227 17.8154 48.7784Z" fill="#0F1689"/>
<path fill-rule="evenodd" clip-rule="evenodd" d="M30.4641 53.1616C29.1666 53.1616 28.1147 55.9318 28.1147 59.3491C28.1147 62.7664 29.1666 65.5364 30.4641 65.5364C31.7616 65.5364 32.8134 62.7664 32.8134 59.3491C32.8134 55.9318 31.7616 53.1616 30.4641 53.1616Z" fill="#0F1689"/>
<path d="M12.1236 19.5674C16.022 13.9121 22.5158 10.2095 29.8682 10.2095C37.2338 10.2095 43.738 13.9256 47.634 19.5983M48.3414 43.2185C44.5572 49.5056 37.6997 53.7065 29.8682 53.7065C22.251 53.7065 15.5552 49.7323 11.7124 43.7298" stroke="#0F1689" stroke-width="5"/>
<path fill-rule="evenodd" clip-rule="evenodd" d="M43.1384 16.8465C44.2012 17.5907 46.6518 15.9248 48.6118 13.1256C50.5718 10.3263 51.2992 7.45384 50.2363 6.70959C49.1735 5.96538 46.7229 7.63128 44.7629 10.4305C42.8028 13.2298 42.0755 16.1023 43.1384 16.8465Z" fill="#0F1689"/>
<path fill-rule="evenodd" clip-rule="evenodd" d="M17.1904 16.2215C16.1276 16.9657 13.677 15.2998 11.7169 12.5006C9.75694 9.70134 9.02963 6.82884 10.0925 6.08459C11.1553 5.34038 13.6059 7.00628 15.5659 9.80553C17.5259 12.6048 18.2533 15.4773 17.1904 16.2215Z" fill="#0F1689"/>
<path fill-rule="evenodd" clip-rule="evenodd" d="M29.9897 11.2147C28.9542 11.2147 28.1147 9.00382 28.1147 6.27653C28.1147 3.54927 28.9542 1.33838 29.9897 1.33838C31.0253 1.33838 31.8647 3.54927 31.8647 6.27653C31.8647 9.00382 31.0253 11.2147 29.9897 11.2147Z" fill="#0F1689"/>
</g>
<defs>
<clipPath id="clip0_8500_13921">
<rect width="60" height="65.625" fill="white"/>
</clipPath>
</defs>
</svg>
