<svg width="36" height="42" viewBox="0 0 36 42" fill="none" xmlns="http://www.w3.org/2000/svg">
<path d="M4.09489 0.900002C1.91989 1.365 0.509894 2.91 0.149894 5.205C-0.120106 6.975 0.404894 8.4 2.24989 10.815L3.11989 11.955L2.84989 12.765C0.764894 18.855 0.599894 19.425 0.599894 20.205C0.599894 21.96 1.45489 24.06 3.13489 26.4C4.22989 27.945 5.65489 29.43 9.97489 33.54C11.7899 35.265 14.3399 37.71 15.6449 38.97C16.9499 40.215 18.0749 41.25 18.1499 41.25C18.2249 41.25 19.4549 40.155 20.8799 38.82C22.3049 37.485 23.8199 36.09 24.2249 35.715C31.4999 29.085 33.5549 26.85 34.9199 24.09C35.6399 22.65 35.8349 21.885 35.8499 20.55C35.8499 19.71 35.6849 19.095 34.6349 16.125C33.9599 14.22 33.3149 12.33 33.1949 11.895L32.9699 11.13L33.6449 10.17C35.1599 8.025 35.5649 6.765 35.2649 5.13C35.0249 3.825 34.6199 3 33.8099 2.175C32.8349 1.215 31.7999 0.855003 29.9249 0.840004C28.1699 0.825005 27.2399 1.09501 26.1749 1.905L25.4849 2.43L23.5799 1.98C21.2999 1.425 20.9249 1.365 20.7149 1.5C20.5949 1.56001 20.7449 2.37 21.1499 3.99C22.1699 7.965 23.5199 13.2 23.8499 14.4C24.4049 16.44 24.4799 16.995 24.4199 18.09C24.2999 20.01 23.1749 21.675 21.4799 22.47C20.6999 22.845 20.4449 22.875 18.3749 22.92C16.3649 22.965 16.0199 22.935 15.2699 22.65C13.1399 21.855 11.6549 19.44 11.8949 17.175C11.9549 16.53 13.5749 9.915 15.3449 3.045C15.5399 2.28 15.6749 1.62 15.6299 1.575C15.3749 1.32 13.2299 1.665 10.9199 2.34L10.0649 2.59501L9.49489 2.1C8.56489 1.275 7.57489 0.915005 6.05989 0.825005C5.32489 0.795002 4.43989 0.825005 4.09489 0.900002Z" fill="#290B53"/>
<path d="M15.9297 12.8999C15.7497 12.9749 15.5547 13.1549 15.4947 13.2749C15.3597 13.6349 15.8547 17.6849 16.0647 17.9399C16.1997 18.1049 16.6797 18.1499 18.1647 18.1499C19.9947 18.1499 20.0997 18.1349 20.3097 17.8049C20.5347 17.4449 20.9097 13.6799 20.7447 13.2749C20.6997 13.1399 20.4897 12.9599 20.2947 12.8849C19.8297 12.7049 16.3797 12.7199 15.9297 12.8999Z" fill="#290B53"/>
</svg>
