<svg width="60" height="56" viewBox="0 0 60 56" fill="none" xmlns="http://www.w3.org/2000/svg">
<g clip-path="url(#clip0_28_1137)">
<path d="M55.2252 10.9478V33.1568L59.3363 35.5251V13.3161L55.2252 10.9478Z" fill="url(#paint0_linear_28_1137)"/>
<path d="M0.395508 35.5251L4.50663 33.1568V10.9478L0.395508 13.3161V35.5251Z" fill="url(#paint1_linear_28_1137)"/>
<path d="M20.4598 35.3015L39.2727 46.1603V41.4682L21.6663 31.2798L20.4598 31.9501V35.3015Z" fill="#2BEDA7"/>
<path d="M40.3449 52.461L20.4597 40.9766V45.7134L25.7773 48.7966L19.3872 52.5057C18.9403 52.7737 18.9403 53.3547 19.3872 53.6228L22.5152 55.4102L29.8885 51.1651L37.2616 55.4102L40.3896 53.6228C40.7918 53.3547 40.7918 52.729 40.3449 52.461Z" fill="#2BEDA7"/>
<path d="M55.2252 24.1747V43.8366C55.2252 44.3281 55.7613 44.6409 56.2082 44.4175L59.0235 42.8088C59.2022 42.6747 59.3363 42.496 59.3363 42.2279V21.8511L55.2252 24.1747Z" fill="url(#paint2_linear_28_1137)"/>
<path d="M47.2267 49.6463L49.8632 48.127C50.1759 47.9483 50.3547 47.6354 50.3547 47.2779V27.0352L46.2435 29.4035V49.0654C46.2435 49.557 46.7798 49.8697 47.2267 49.6463Z" fill="url(#paint3_linear_28_1137)"/>
<path d="M37.2169 55.4103L40.9705 53.2207C41.1492 53.0867 41.2833 52.9079 41.2833 52.6399V32.2183L37.1722 34.5866V55.4103H37.2169Z" fill="url(#paint4_linear_28_1137)"/>
<path d="M18.717 53.2207L22.4707 55.4103V34.5866L18.3596 32.2183V52.6399C18.4043 52.9079 18.5383 53.0867 18.717 53.2207Z" fill="url(#paint5_linear_28_1137)"/>
<path d="M9.86905 48.127L12.5055 49.6463C12.9524 49.9144 13.4886 49.6016 13.4886 49.0654V29.4035L9.3775 27.0352V47.2779C9.42219 47.6354 9.60093 47.9483 9.86905 48.127Z" fill="url(#paint6_linear_28_1137)"/>
<path d="M0.887055 42.8985L3.52353 44.4177C3.9704 44.6859 4.50663 44.3731 4.50663 43.8369V24.175L0.395508 21.8066V42.0494C0.395508 42.4069 0.574252 42.7197 0.887055 42.8985Z" fill="url(#paint7_linear_28_1137)"/>
<path d="M59.3363 13.3163L55.2251 10.9479L47.852 15.1931L42.9365 12.3779L49.3266 8.66896C49.7735 8.40085 49.7735 7.81993 49.3266 7.55181L46.6901 6.03249C46.3773 5.85374 46.0198 5.85374 45.7071 6.03249L38.8254 10.0095L33.9099 7.19433L40.3 3.48538C40.7469 3.21726 40.7469 2.63635 40.3 2.36823L37.6636 0.848903C37.3507 0.670157 36.9932 0.670157 36.6805 0.848903L29.7988 4.82596L22.9618 0.848903C22.6491 0.670157 22.2916 0.670157 21.9787 0.848903L19.3423 2.36823C18.8954 2.63635 18.8954 3.21726 19.3423 3.48538L55.2251 24.175L59.3363 21.8067L51.9631 17.5615L59.3363 13.3163Z" fill="#2BEDA7"/>
<path d="M12.9972 6.03234L10.3607 7.55166C9.91385 7.81978 9.91385 8.4007 10.3607 8.66882L46.2436 29.3585L50.3548 26.9902L13.9803 5.98765C13.6675 5.85359 13.31 5.85359 12.9972 6.03234Z" fill="#2BEDA7"/>
<path d="M0.395508 13.3161L7.76871 17.5613L0.395508 21.8512L4.50663 24.2195L11.8798 19.9296L16.7507 22.7896L9.4221 27.0348L13.4885 29.4031L20.8617 25.1579L25.7772 27.9732L18.404 32.2184L22.5151 34.5867L29.8437 30.3415L37.2169 34.5867L41.328 32.2184L4.50663 10.9478L0.395508 13.3161Z" fill="#2BEDA7"/>
</g>
<defs>
<linearGradient id="paint0_linear_28_1137" x1="57.2897" y1="10.962" x2="57.2897" y2="35.5211" gradientUnits="userSpaceOnUse">
<stop stop-color="#2BEDA7"/>
<stop offset="1" stop-color="#018AFD"/>
</linearGradient>
<linearGradient id="paint1_linear_28_1137" x1="2.44213" y1="10.963" x2="2.44213" y2="35.5228" gradientUnits="userSpaceOnUse">
<stop stop-color="#2BEDA7"/>
<stop offset="1" stop-color="#018AFD"/>
</linearGradient>
<linearGradient id="paint2_linear_28_1137" x1="57.2897" y1="21.8336" x2="57.2897" y2="44.5221" gradientUnits="userSpaceOnUse">
<stop stop-color="#2BEDA7"/>
<stop offset="1" stop-color="#018AFD"/>
</linearGradient>
<linearGradient id="paint3_linear_28_1137" x1="48.2849" y1="27.0334" x2="48.2849" y2="49.7218" gradientUnits="userSpaceOnUse">
<stop stop-color="#2BEDA7"/>
<stop offset="1" stop-color="#018AFD"/>
</linearGradient>
<linearGradient id="paint4_linear_28_1137" x1="39.2796" y1="32.2317" x2="39.2796" y2="55.392" gradientUnits="userSpaceOnUse">
<stop stop-color="#2BEDA7"/>
<stop offset="1" stop-color="#018AFD"/>
</linearGradient>
<linearGradient id="paint5_linear_28_1137" x1="20.4549" y1="32.2317" x2="20.4549" y2="55.3916" gradientUnits="userSpaceOnUse">
<stop stop-color="#2BEDA7"/>
<stop offset="1" stop-color="#018AFD"/>
</linearGradient>
<linearGradient id="paint6_linear_28_1137" x1="11.4496" y1="27.0329" x2="11.4496" y2="49.7218" gradientUnits="userSpaceOnUse">
<stop stop-color="#2BEDA7"/>
<stop offset="1" stop-color="#018AFD"/>
</linearGradient>
<linearGradient id="paint7_linear_28_1137" x1="2.44437" y1="21.8338" x2="2.44437" y2="44.5219" gradientUnits="userSpaceOnUse">
<stop stop-color="#2BEDA7"/>
<stop offset="1" stop-color="#018AFD"/>
</linearGradient>
<clipPath id="clip0_28_1137">
<rect width="60" height="55.8621" fill="white"/>
</clipPath>
</defs>
</svg>
