<svg width="58" height="54" viewBox="0 0 58 54" fill="none" xmlns="http://www.w3.org/2000/svg">
<path d="M53.3843 10.583V32.0517L57.3584 34.3411V12.8724L53.3843 10.583Z" fill="url(#paint0_linear_8491_15654)"/>
<path d="M0.382324 34.3411L4.35641 32.0517V10.583L0.382324 12.8724V34.3411Z" fill="url(#paint1_linear_8491_15654)"/>
<path d="M19.7778 34.125L37.9636 44.6218V40.0861L20.9441 30.2373L19.7778 30.8853V34.125Z" fill="#2BEDA7"/>
<path d="M39.0001 50.7124L19.7777 39.6108V44.1897L24.9181 47.1702L18.741 50.7556C18.309 51.0147 18.309 51.5763 18.741 51.8355L21.7647 53.5633L28.8922 49.4597L36.0196 53.5633L39.0433 51.8355C39.4321 51.5763 39.4321 50.9715 39.0001 50.7124Z" fill="#2BEDA7"/>
<path d="M53.3843 23.3688V42.3753C53.3843 42.8504 53.9026 43.1528 54.3346 42.9368L57.056 41.3817C57.2288 41.2521 57.3584 41.0794 57.3584 40.8202V21.1226L53.3843 23.3688Z" fill="url(#paint2_linear_8491_15654)"/>
<path d="M45.6525 47.9912L48.2011 46.5226C48.5034 46.3498 48.6762 46.0474 48.6762 45.7018V26.1338L44.7021 28.4232V47.4297C44.7021 47.9049 45.2205 48.2072 45.6525 47.9912Z" fill="url(#paint3_linear_8491_15654)"/>
<path d="M35.9763 53.5635L39.6048 51.4469C39.7776 51.3173 39.9072 51.1445 39.9072 50.8854V31.1445L35.9331 33.4339V53.5635H35.9763Z" fill="url(#paint4_linear_8491_15654)"/>
<path d="M18.0931 51.4469L21.7216 53.5635V33.4339L17.7476 31.1445V50.8854C17.7908 51.1445 17.9203 51.3173 18.0931 51.4469Z" fill="url(#paint5_linear_8491_15654)"/>
<path d="M9.5401 46.5226L12.0887 47.9912C12.5207 48.2504 13.039 47.948 13.039 47.4297V28.4232L9.06494 26.1338V45.7018C9.10814 46.0474 9.28092 46.3498 9.5401 46.5226Z" fill="url(#paint6_linear_8491_15654)"/>
<path d="M0.857486 41.4684L3.40608 42.937C3.83805 43.1962 4.35641 42.8938 4.35641 42.3755V23.369L0.382324 21.0796V40.6476C0.382324 40.9932 0.55511 41.2956 0.857486 41.4684Z" fill="url(#paint7_linear_8491_15654)"/>
<path d="M57.3584 12.8723L53.3843 10.5829L46.2569 14.6866L41.5053 11.9652L47.6824 8.3799C48.1144 8.12072 48.1144 7.55917 47.6824 7.29999L45.1338 5.83131C44.8314 5.65852 44.4858 5.65852 44.1835 5.83131L37.5312 9.6758L32.7796 6.95442L38.9567 3.3691C39.3887 3.10992 39.3887 2.54837 38.9567 2.28919L36.4081 0.820508C36.1057 0.647721 35.7601 0.647721 35.4578 0.820508L28.8055 4.665L22.1964 0.820508C21.8941 0.647721 21.5485 0.647721 21.2461 0.820508L18.6975 2.28919C18.2655 2.54837 18.2655 3.10992 18.6975 3.3691L53.3843 23.3691L57.3584 21.0797L50.231 16.976L57.3584 12.8723Z" fill="#2BEDA7"/>
<path d="M12.564 5.83137L10.0154 7.30005C9.58341 7.55923 9.58341 8.12079 10.0154 8.37997L44.7022 28.38L48.6763 26.0906L13.5143 5.78817C13.2119 5.65858 12.8664 5.65858 12.564 5.83137Z" fill="#2BEDA7"/>
<path d="M0.382324 12.8724L7.50975 16.9761L0.382324 21.123L4.35641 23.4124L11.4838 19.2655L16.1923 22.0301L9.10803 26.1338L13.0389 28.4232L20.1663 24.3195L24.918 27.0409L17.7905 31.1446L21.7646 33.434L28.8489 29.3303L35.9763 33.434L39.9504 31.1446L4.35641 10.583L0.382324 12.8724Z" fill="#2BEDA7"/>
<defs>
<linearGradient id="paint0_linear_8491_15654" x1="55.38" y1="10.5968" x2="55.38" y2="34.3372" gradientUnits="userSpaceOnUse">
<stop stop-color="#2BEDA7"/>
<stop offset="1" stop-color="#018AFD"/>
</linearGradient>
<linearGradient id="paint1_linear_8491_15654" x1="2.36073" y1="10.5977" x2="2.36073" y2="34.3389" gradientUnits="userSpaceOnUse">
<stop stop-color="#2BEDA7"/>
<stop offset="1" stop-color="#018AFD"/>
</linearGradient>
<linearGradient id="paint2_linear_8491_15654" x1="55.38" y1="21.1057" x2="55.38" y2="43.0379" gradientUnits="userSpaceOnUse">
<stop stop-color="#2BEDA7"/>
<stop offset="1" stop-color="#018AFD"/>
</linearGradient>
<linearGradient id="paint3_linear_8491_15654" x1="46.6754" y1="26.1321" x2="46.6754" y2="48.0642" gradientUnits="userSpaceOnUse">
<stop stop-color="#2BEDA7"/>
<stop offset="1" stop-color="#018AFD"/>
</linearGradient>
<linearGradient id="paint4_linear_8491_15654" x1="37.9703" y1="31.1575" x2="37.9703" y2="53.5458" gradientUnits="userSpaceOnUse">
<stop stop-color="#2BEDA7"/>
<stop offset="1" stop-color="#018AFD"/>
</linearGradient>
<linearGradient id="paint5_linear_8491_15654" x1="19.773" y1="31.1575" x2="19.773" y2="53.5454" gradientUnits="userSpaceOnUse">
<stop stop-color="#2BEDA7"/>
<stop offset="1" stop-color="#018AFD"/>
</linearGradient>
<linearGradient id="paint6_linear_8491_15654" x1="11.068" y1="26.1316" x2="11.068" y2="48.0642" gradientUnits="userSpaceOnUse">
<stop stop-color="#2BEDA7"/>
<stop offset="1" stop-color="#018AFD"/>
</linearGradient>
<linearGradient id="paint7_linear_8491_15654" x1="2.36289" y1="21.1059" x2="2.36289" y2="43.0377" gradientUnits="userSpaceOnUse">
<stop stop-color="#2BEDA7"/>
<stop offset="1" stop-color="#018AFD"/>
</linearGradient>
</defs>
</svg>
