<svg width="53" height="61" viewBox="0 0 53 61" fill="none" xmlns="http://www.w3.org/2000/svg">
<g clip-path="url(#clip0_28_1125)">
<path d="M0.518699 45.0009C0.789882 45.473 1.18322 45.8633 1.65737 46.1309L24.9515 59.5797L24.9523 59.579C25.908 60.1404 27.0926 60.1404 28.0483 59.579L51.3432 46.1301C52.3069 45.5835 52.899 44.5578 52.8905 43.4499V16.5522L52.8897 16.5515C52.8981 15.4432 52.3057 14.4174 51.3417 13.8706L28.0468 0.421745V0.421013C27.092 -0.140338 25.9079 -0.140338 24.9529 0.421013V0.421745L1.65883 13.8706C0.694348 14.417 0.101599 15.443 0.110066 16.5515L0.109332 16.5522V43.4499C0.104099 43.9942 0.245232 44.5299 0.517982 45.0009" fill="#009639"/>
<path d="M26.668 30.2622L12.3085 38.2742L26.668 46.8542" stroke="white" stroke-width="1.02" stroke-miterlimit="10"/>
<path d="M11.972 21.7265L26.6679 13.1465V30.2622L41.0274 21.7265V38.2742L26.6679 30.2622" stroke="white" stroke-width="1.02" stroke-miterlimit="10"/>
<path d="M11.972 25.6694C14.1496 25.6694 15.9148 23.904 15.9148 21.7265C15.9148 19.5489 14.1496 17.7837 11.972 17.7837C9.79444 17.7837 8.02917 19.5489 8.02917 21.7265C8.02917 23.904 9.79444 25.6694 11.972 25.6694Z" fill="white"/>
<path d="M41.0273 25.6694C43.2049 25.6694 44.9702 23.904 44.9702 21.7265C44.9702 19.5489 43.2049 17.7837 41.0273 17.7837C38.8498 17.7837 37.0845 19.5489 37.0845 21.7265C37.0845 23.904 38.8498 25.6694 41.0273 25.6694Z" fill="white"/>
<path d="M26.6676 17.0893C28.8451 17.0893 30.6105 15.324 30.6105 13.1465C30.6105 10.9689 28.8451 9.20361 26.6676 9.20361C24.49 9.20361 22.7248 10.9689 22.7248 13.1465C22.7248 15.324 24.49 17.0893 26.6676 17.0893Z" fill="white"/>
<path d="M26.6676 34.205C28.8451 34.205 30.6105 32.4398 30.6105 30.2621C30.6105 28.0846 28.8451 26.3193 26.6676 26.3193C24.49 26.3193 22.7248 28.0846 22.7248 30.2621C22.7248 32.4398 24.49 34.205 26.6676 34.205Z" fill="white"/>
<path d="M12.3084 42.2172C14.4861 42.2172 16.2513 40.4519 16.2513 38.2743C16.2513 36.0968 14.4861 34.3315 12.3084 34.3315C10.1309 34.3315 8.3656 36.0968 8.3656 38.2743C8.3656 40.4519 10.1309 42.2172 12.3084 42.2172Z" fill="white"/>
<path d="M26.6676 50.7968C28.8451 50.7968 30.6105 49.0316 30.6105 46.854C30.6105 44.6765 28.8451 42.9111 26.6676 42.9111C24.49 42.9111 22.7248 44.6765 22.7248 46.854C22.7248 49.0316 24.49 50.7968 26.6676 50.7968Z" fill="white"/>
<path d="M41.0273 42.2172C43.2049 42.2172 44.9702 40.4519 44.9702 38.2743C44.9702 36.0968 43.2049 34.3315 41.0273 34.3315C38.8498 34.3315 37.0845 36.0968 37.0845 38.2743C37.0845 40.4519 38.8498 42.2172 41.0273 42.2172Z" fill="white"/>
<path d="M50.0788 54.4284H50.4617V53.5759H50.7644C50.9646 53.5759 51.1082 53.5954 51.1897 53.6469C51.3236 53.7253 51.3919 53.8934 51.3919 54.1428V54.3177L51.4004 54.3827C51.4051 54.3973 51.4051 54.4031 51.4064 54.4101C51.4083 54.4206 51.409 54.4238 51.415 54.4284H51.7696L51.7567 54.4043C51.7462 54.3878 51.7404 54.3508 51.7395 54.2934C51.7345 54.2321 51.7344 54.1799 51.7344 54.1315V53.97C51.7344 53.8614 51.694 53.7507 51.6158 53.632C51.5355 53.5177 51.409 53.4498 51.2382 53.4197C51.3732 53.3972 51.4793 53.3612 51.553 53.3175C51.6978 53.2263 51.7646 53.078 51.7646 52.8883C51.7646 52.6156 51.6569 52.4291 51.4297 52.3378C51.3045 52.2863 51.1082 52.2601 50.8362 52.2601H50.0788V54.4284ZM51.1676 53.2595C51.0906 53.2925 50.9685 53.3078 50.8035 53.3078H50.4617V52.5184H50.7879C50.9993 52.5184 51.1527 52.5485 51.2479 52.6031C51.3451 52.6574 51.3919 52.7623 51.3919 52.9195C51.3919 53.0873 51.3189 53.1973 51.1676 53.2595ZM52.2792 51.9562C51.8897 51.5718 51.4239 51.3813 50.8733 51.3813C50.3344 51.3813 49.8643 51.5718 49.4839 51.9562C49.0944 52.3417 48.9059 52.8079 48.9059 53.3554C48.9059 53.902 49.0925 54.3702 49.4768 54.7538C49.8584 55.1433 50.3293 55.3364 50.8733 55.3364C51.4239 55.3364 51.8897 55.1433 52.2792 54.7538C52.6608 54.3683 52.8578 53.8981 52.8578 53.3554C52.8578 52.8041 52.6608 52.3417 52.2792 51.9562ZM52.0782 52.1524C52.4115 52.4778 52.5746 52.8837 52.5746 53.3554C52.5746 53.8224 52.4115 54.2314 52.0782 54.5642C51.75 54.8955 51.347 55.0656 50.8733 55.0656C50.4031 55.0656 50.0024 54.8955 49.6699 54.5642C49.3437 54.2314 49.1759 53.8224 49.1759 53.3554C49.1759 52.8837 49.3437 52.4778 49.6699 52.1524C50.0071 51.8137 50.4063 51.6475 50.8733 51.6475C51.345 51.6475 51.7462 51.8137 52.0782 52.1524Z" fill="#989898"/>
</g>
<defs>
<clipPath id="clip0_28_1125">
<rect width="53" height="60.42" fill="white"/>
</clipPath>
</defs>
</svg>
