<svg width="50" height="57" viewBox="0 0 50 57" fill="none" xmlns="http://www.w3.org/2000/svg">
<path d="M0.489355 42.4537C0.745188 42.8991 1.11626 43.2673 1.56357 43.5197L23.5392 56.2073L23.5399 56.2066C24.4415 56.7362 25.5591 56.7362 26.4607 56.2066L48.437 43.519C49.3461 43.0033 49.9047 42.0357 49.8967 40.9905V15.6153L49.896 15.6146C49.9039 14.5691 49.345 13.6013 48.4356 13.0855L26.4593 0.397873V0.397182C25.5585 -0.132394 24.4414 -0.132394 23.5405 0.397182V0.397873L1.56495 13.0855C0.655062 13.6009 0.0958642 14.5689 0.103852 15.6146L0.10316 15.6153V40.9905C0.0982227 41.504 0.231367 42.0093 0.488679 42.4537" fill="#009639"/>
<path d="M25.1585 28.5493L11.6118 36.1078L25.1585 44.2021" stroke="white" stroke-width="1.02" stroke-miterlimit="10"/>
<path d="M11.2944 20.4967L25.1584 12.4023V28.5492L38.7051 20.4967V36.1077L25.1584 28.5492" stroke="white" stroke-width="1.02" stroke-miterlimit="10"/>
<path d="M11.2944 24.2162C13.3487 24.2162 15.014 22.5508 15.014 20.4965C15.014 18.4422 13.3487 16.7769 11.2944 16.7769C9.24005 16.7769 7.57471 18.4422 7.57471 20.4965C7.57471 22.5508 9.24005 24.2162 11.2944 24.2162Z" fill="white"/>
<path d="M38.705 24.2162C40.7593 24.2162 42.4247 22.5508 42.4247 20.4965C42.4247 18.4422 40.7593 16.7769 38.705 16.7769C36.6507 16.7769 34.9854 18.4422 34.9854 20.4965C34.9854 22.5508 36.6507 24.2162 38.705 24.2162Z" fill="white"/>
<path d="M25.1581 16.1219C27.2124 16.1219 28.8778 14.4566 28.8778 12.4023C28.8778 10.348 27.2124 8.68262 25.1581 8.68262C23.1038 8.68262 21.4385 10.348 21.4385 12.4023C21.4385 14.4566 23.1038 16.1219 25.1581 16.1219Z" fill="white"/>
<path d="M25.1581 32.2689C27.2124 32.2689 28.8778 30.6036 28.8778 28.5492C28.8778 26.4949 27.2124 24.8296 25.1581 24.8296C23.1038 24.8296 21.4385 26.4949 21.4385 28.5492C21.4385 30.6036 23.1038 32.2689 25.1581 32.2689Z" fill="white"/>
<path d="M11.6117 39.8275C13.6661 39.8275 15.3314 38.1621 15.3314 36.1078C15.3314 34.0535 13.6661 32.3882 11.6117 32.3882C9.55744 32.3882 7.89209 34.0535 7.89209 36.1078C7.89209 38.1621 9.55744 39.8275 11.6117 39.8275Z" fill="white"/>
<path d="M25.1581 47.9217C27.2124 47.9217 28.8778 46.2564 28.8778 44.2021C28.8778 42.1478 27.2124 40.4824 25.1581 40.4824C23.1038 40.4824 21.4385 42.1478 21.4385 44.2021C21.4385 46.2564 23.1038 47.9217 25.1581 47.9217Z" fill="white"/>
<path d="M38.705 39.8275C40.7593 39.8275 42.4247 38.1621 42.4247 36.1078C42.4247 34.0535 40.7593 32.3882 38.705 32.3882C36.6507 32.3882 34.9854 34.0535 34.9854 36.1078C34.9854 38.1621 36.6507 39.8275 38.705 39.8275Z" fill="white"/>
<path d="M47.2442 51.3477H47.6054V50.5434H47.891C48.0798 50.5434 48.2153 50.5618 48.2922 50.6104C48.4185 50.6844 48.4829 50.843 48.4829 51.0782V51.2432L48.491 51.3046C48.4954 51.3183 48.4954 51.3238 48.4966 51.3304C48.4984 51.3403 48.4991 51.3433 48.5047 51.3477H48.8393L48.8271 51.3249C48.8172 51.3094 48.8117 51.2745 48.8109 51.2203C48.8061 51.1625 48.8061 51.1132 48.8061 51.0676V50.9152C48.8061 50.8128 48.7679 50.7083 48.6942 50.5964C48.6184 50.4885 48.4991 50.4245 48.3379 50.3961C48.4653 50.3748 48.5654 50.3409 48.6349 50.2997C48.7715 50.2136 48.8345 50.0737 48.8345 49.8948C48.8345 49.6375 48.7329 49.4615 48.5186 49.3754C48.4005 49.3268 48.2153 49.3021 47.9587 49.3021H47.2442V51.3477ZM48.2713 50.2449C48.1987 50.2761 48.0835 50.2905 47.9278 50.2905H47.6054V49.5458H47.9131C48.1126 49.5458 48.2573 49.5742 48.3471 49.6257C48.4388 49.6769 48.4829 49.7759 48.4829 49.9242C48.4829 50.0825 48.4141 50.1863 48.2713 50.2449ZM49.32 49.0154C48.9526 48.6528 48.5131 48.4731 47.9937 48.4731C47.4853 48.4731 47.0418 48.6528 46.6829 49.0154C46.3155 49.3791 46.1377 49.8189 46.1377 50.3354C46.1377 50.8511 46.3137 51.2928 46.6762 51.6547C47.0362 52.0221 47.4805 52.2043 47.9937 52.2043C48.5131 52.2043 48.9526 52.0221 49.32 51.6547C49.68 51.291 49.8659 50.8474 49.8659 50.3354C49.8659 49.8153 49.68 49.3791 49.32 49.0154ZM49.1304 49.2005C49.4448 49.5075 49.5987 49.8904 49.5987 50.3354C49.5987 50.776 49.4448 51.1618 49.1304 51.4758C48.8208 51.7883 48.4406 51.9488 47.9937 51.9488C47.5501 51.9488 47.1721 51.7883 46.8584 51.4758C46.5507 51.1618 46.3924 50.776 46.3924 50.3354C46.3924 49.8904 46.5507 49.5075 46.8584 49.2005C47.1765 48.881 47.5531 48.7242 47.9937 48.7242C48.4387 48.7242 48.8172 48.881 49.1304 49.2005Z" fill="#989898"/>
</svg>
