<svg width="60" height="56" viewBox="0 0 60 56" fill="none" xmlns="http://www.w3.org/2000/svg">
<g clip-path="url(#clip0_27_241)">
<path d="M60 14.0606C59.3304 12.6715 58.551 11.3324 57.6516 10.0732L48.018 13.5809C49.1372 14.7301 50.0766 16.0193 50.8461 17.3984L60 14.0606ZM17.4284 24.7135L7.7948 28.2211C7.91472 29.7701 8.18454 31.2891 8.5543 32.7881L17.7082 29.4603C17.4084 27.9014 17.2985 26.3124 17.4284 24.7135Z" fill="#C22133"/>
<path d="M38.8041 11.3325C40.8128 12.2719 42.5416 13.541 44.0107 15.04L53.6442 11.5324C50.976 7.78489 47.3384 4.65697 42.8914 2.57836C29.1206 -3.83737 12.6915 2.13865 6.26582 15.9095C4.18721 20.3665 3.41772 25.0933 3.77748 29.6803L13.4111 26.1726C13.571 24.084 14.0806 21.9954 15.01 19.9867C19.1872 11.0427 29.8601 7.15531 38.8041 11.3325Z" fill="#DB212E"/>
<path d="M49.0773 28.9308C48.9274 31.0194 48.3977 33.108 47.4584 35.1166C43.2911 44.0607 32.6183 47.9481 23.6742 43.7709C21.6656 42.8315 19.9167 41.5723 18.4577 40.0733L8.8441 43.571C11.5023 47.3185 15.1399 50.4464 19.5869 52.525C33.3578 58.9408 49.7868 52.9648 56.2025 39.1939C58.2811 34.7369 59.0506 30.0101 58.6809 25.4331L49.0773 28.9308Z" fill="#DB212E"/>
<path d="M51.4457 17.1685L42.2918 20.4962C43.9907 23.5442 44.8001 27.0519 44.5303 30.5795L54.1439 27.0818C53.8741 23.6341 52.9547 20.2664 51.4457 17.1685ZM9.1539 32.5682L0 35.896C0.83944 39.2337 2.29847 42.4016 4.30713 45.2297L13.9207 41.7321C11.4524 39.1938 9.80346 35.9859 9.1539 32.5682Z" fill="#EB2126"/>
<path d="M58.6109 11.5223C58.3111 11.0326 57.9913 10.5429 57.6516 10.0732L48.018 13.5809C48.4377 14.0106 48.8274 14.4703 49.2072 14.95L58.6109 11.5223ZM17.3884 26.6422C17.3684 26.0026 17.3784 25.3531 17.4284 24.7035L7.7948 28.2111C7.84477 28.8307 7.92472 29.4403 8.01466 30.0499L17.3884 26.6422Z" fill="#AD213B"/>
<path d="M58.6909 25.4331L49.0773 28.9308C48.9773 30.3099 48.7075 31.6989 48.2678 33.068L58.7308 29.2506C58.8008 27.9714 58.7908 26.7023 58.6909 25.4331ZM8.8441 43.571C9.58361 44.6103 10.4031 45.6097 11.2925 46.549L21.7555 42.7316C20.5363 41.9621 19.427 41.0727 18.4477 40.0733L8.8441 43.571Z" fill="#BA2133"/>
</g>
<defs>
<clipPath id="clip0_27_241">
<rect width="60" height="55.1033" fill="white"/>
</clipPath>
</defs>
</svg>
