<svg width="53" height="61" viewBox="0 0 53 61" fill="none" xmlns="http://www.w3.org/2000/svg">
<path d="M6.88516 50.5956C8.97945 50.5956 10.6772 49.5834 10.6772 48.3347C10.6772 47.086 8.97945 46.0737 6.88516 46.0737C4.79088 46.0737 3.09312 47.086 3.09312 48.3347C3.09312 49.5834 4.79088 50.5956 6.88516 50.5956Z" fill="#B6E2D6" stroke="white" stroke-width="4"/>
<path d="M46.0099 50.5952C48.1043 50.5952 49.8019 49.5829 49.8019 48.3342C49.8019 47.0855 48.1043 46.0732 46.0099 46.0732C43.9157 46.0732 42.2179 47.0855 42.2179 48.3342C42.2179 49.5829 43.9157 50.5952 46.0099 50.5952Z" fill="#B6E2D6" stroke="white" stroke-width="4"/>
<path d="M16.471 56.9096C18.5652 56.9096 20.263 55.8974 20.263 54.6486C20.263 53.4 18.5652 52.3877 16.471 52.3877C14.3766 52.3877 12.6789 53.4 12.6789 54.6486C12.6789 55.8974 14.3766 56.9096 16.471 56.9096Z" fill="#B6E2D6" stroke="white" stroke-width="4"/>
<path d="M36.4247 56.9092C38.5191 56.9092 40.2168 55.8969 40.2168 54.6481C40.2168 53.3995 38.5191 52.3872 36.4247 52.3872C34.3305 52.3872 32.6327 53.3995 32.6327 54.6481C32.6327 55.8969 34.3305 56.9092 36.4247 56.9092Z" fill="#B6E2D6" stroke="white" stroke-width="4"/>
<path d="M26.4478 52.7725C28.5422 52.7725 30.2399 51.7602 30.2399 50.5115C30.2399 49.2628 28.5422 48.2505 26.4478 48.2505C24.3536 48.2505 22.6558 49.2628 22.6558 50.5115C22.6558 51.7602 24.3536 52.7725 26.4478 52.7725Z" fill="#B6E2D6" stroke="white" stroke-width="4"/>
<path d="M16.471 47.5474C18.5652 47.5474 20.263 46.5351 20.263 45.2864C20.263 44.0377 18.5652 43.0254 16.471 43.0254C14.3766 43.0254 12.6789 44.0377 12.6789 45.2864C12.6789 46.5351 14.3766 47.5474 16.471 47.5474Z" fill="#B6E2D6" stroke="white" stroke-width="4"/>
<path d="M36.4247 47.5468C38.5191 47.5468 40.2168 46.5345 40.2168 45.2858C40.2168 44.0371 38.5191 43.0249 36.4247 43.0249C34.3305 43.0249 32.6327 44.0371 32.6327 45.2858C32.6327 46.5345 34.3305 47.5468 36.4247 47.5468Z" fill="#B6E2D6" stroke="white" stroke-width="4"/>
<path d="M0 37.9522L26.3431 55.0137L52.5579 37.8216L26.3431 20.8906L0 37.9522Z" fill="#1128A9"/>
<path d="M0 29.2095L26.3431 46.271L52.5579 29.0789L26.3431 12.1479L0 29.2095Z" fill="#87E3CB"/>
<path d="M0 29.2095L26.3431 46.271L52.5579 29.0789L26.3431 12.1479L0 29.2095Z" fill="#C8FCEE"/>
<path d="M6.74439 27.895V4.13428L22.7046 38.1151L6.74439 27.895Z" fill="#1128A9"/>
<path d="M26.3182 29.3784L39.5698 20.9016V0L26.3182 8.2414V29.3784Z" fill="#569CF5"/>
<path d="M31.6499 25.8274L42.3708 32.849V16.531L31.6499 9.40283V25.8274Z" fill="#FB8143"/>
<path d="M26.3182 29.3784L39.5698 20.9016V0L26.3182 8.2414V29.3784Z" fill="#569CF5"/>
</svg>
