<svg width="60" height="61" viewBox="0 0 60 61" fill="none" xmlns="http://www.w3.org/2000/svg">
<g clip-path="url(#clip0_29_246)">
<path fill-rule="evenodd" clip-rule="evenodd" d="M21.9987 0C18.682 0.00245138 15.9977 2.69407 16.0002 6.01079C15.9977 9.3275 18.6844 12.0191 22.0011 12.0216H28.0021V6.01324C28.0046 2.69652 25.3179 0.00490276 21.9987 0C22.0012 0 22.0012 0 21.9987 0M21.9987 16.032H6.00099C2.68427 16.0345 -0.00244468 18.7261 6.69932e-06 22.0428C-0.00489606 25.3595 2.68182 28.0511 5.99854 28.0561H21.9987C25.3154 28.0536 28.0021 25.362 27.9997 22.0453C28.0021 18.7261 25.3154 16.0345 21.9987 16.032V16.032Z" fill="#36C5F0"/>
<path fill-rule="evenodd" clip-rule="evenodd" d="M60 22.0428C60.0024 18.7261 57.3157 16.0345 53.999 16.032C50.6823 16.0345 47.9956 18.7261 47.998 22.0428V28.0561H53.999C57.3157 28.0536 60.0024 25.362 60 22.0428ZM43.9998 22.0428V6.01079C44.0023 2.69652 41.318 0.00490276 38.0013 0C34.6846 0.00245138 31.9979 2.69407 32.0003 6.01079V22.0428C31.9954 25.3595 34.6821 28.0511 37.9988 28.0561C41.3156 28.0536 44.0023 25.362 43.9998 22.0428Z" fill="#2EB67D"/>
<path fill-rule="evenodd" clip-rule="evenodd" d="M37.9988 60.12C41.3156 60.1176 44.0023 57.426 43.9998 54.1092C44.0023 50.7925 41.3156 48.1009 37.9988 48.0985H31.9979V54.1092C31.9954 57.4235 34.6821 60.1151 37.9988 60.12ZM37.9988 44.0855H53.999C57.3157 44.0831 60.0024 41.3915 60 38.0748C60.0049 34.758 57.3182 32.0664 54.0015 32.0615H38.0013C34.6846 32.064 31.9979 34.7556 32.0003 38.0723C31.9979 41.3915 34.6821 44.0831 37.9988 44.0855V44.0855Z" fill="#ECB22E"/>
<path fill-rule="evenodd" clip-rule="evenodd" d="M1.67616e-06 38.0747C-0.0024497 41.3915 2.68426 44.0831 6.00098 44.0855C9.3177 44.0831 12.0044 41.3915 12.002 38.0747V32.064H6.00098C2.68426 32.0664 -0.0024497 34.758 1.67616e-06 38.0747ZM16.0002 38.0747V54.1068C15.9953 57.4235 18.682 60.1151 21.9987 60.12C25.3154 60.1176 28.0021 57.426 27.9997 54.1092V38.0797C28.0046 34.7629 25.3179 32.0713 22.0011 32.0664C18.682 32.0664 15.9977 34.758 16.0002 38.0747C16.0002 38.0772 16.0002 38.0747 16.0002 38.0747Z" fill="#E01E5A"/>
</g>
<defs>
<clipPath id="clip0_29_246">
<rect width="60" height="60.1201" fill="white"/>
</clipPath>
</defs>
</svg>
