<svg width="50" height="49" viewBox="0 0 50 49" fill="none" xmlns="http://www.w3.org/2000/svg">
<g clip-path="url(#clip0_8491_15775)">
<path d="M32.5422 43.6202H17.3639C17.0675 43.6208 16.7748 43.5545 16.5077 43.4261C16.2405 43.2977 16.0058 43.1106 15.8211 42.8788L6.23814 30.8413C6.05065 30.6039 5.91971 30.3269 5.85527 30.0313C5.79083 29.7357 5.79458 29.4293 5.86624 29.1354L9.51805 14.3962C9.58707 14.1185 9.71576 13.8591 9.89518 13.6362C10.0746 13.4133 10.3004 13.2321 10.557 13.1053L24.1133 6.30078C24.3866 6.16524 24.6876 6.09473 24.9926 6.09473C25.2977 6.09473 25.5987 6.16524 25.872 6.30078L39.6107 13.1005C39.8709 13.2285 40.0995 13.4126 40.2799 13.6395C40.4604 13.8665 40.5883 14.1306 40.6544 14.413L44.1478 29.1498C44.2165 29.4403 44.2178 29.7426 44.1517 30.0337C44.0856 30.3248 43.9538 30.597 43.7663 30.8293L34.0706 42.8836C33.8871 43.1129 33.6546 43.2981 33.3901 43.4256C33.1256 43.5531 32.8358 43.6196 32.5422 43.6202ZM17.3927 41.5856H32.5086L42.154 29.5888L38.6821 14.9096L25.0058 8.13388L11.4855 14.9096L7.83611 29.596L17.3927 41.5856Z" fill="#218FCF"/>
<path d="M42.418 10.394L44.1383 8.97596L26.0112 0V2.26978L42.418 10.394Z" fill="#19BFD3"/>
<path d="M2.64872 31.4819L0.436523 31.9738L13.0883 47.8455L14.0792 45.8228L2.64872 31.4819Z" fill="#78BE43"/>
<path d="M23.9789 2.27946V0.00488281L6.08936 8.97604L7.7593 10.4157L23.9789 2.27946Z" fill="#19BFD3"/>
<path d="M6.55022 12.0589L4.82509 10.5713L0 29.9844L2.2194 29.4925L6.55022 12.0589Z" fill="#1E4489"/>
<path d="M47.7926 29.5021L50 29.9916L45.4005 10.5713L43.6514 12.0133L47.7926 29.5021Z" fill="#1E4489"/>
<path d="M47.3317 31.4844L35.7812 45.8517L36.7698 47.8671L49.5463 31.9762L47.3317 31.4844Z" fill="#78BE43"/>
<path d="M15.9127 46.708L14.9146 48.7427H34.9323L33.9366 46.708H15.9127Z" fill="#19BFD3"/>
</g>
<defs>
<clipPath id="clip0_8491_15775">
<rect width="50" height="48.7427" fill="white"/>
</clipPath>
</defs>
</svg>
