<svg width="60" height="60" viewBox="0 0 60 60" fill="none" xmlns="http://www.w3.org/2000/svg">
<g clip-path="url(#clip0_28_1196)">
<path d="M21.6378 0.432066L21.7246 0.506886L29.0881 7.23971C29.3357 7.46596 29.6152 7.58483 29.8995 7.58483C30.1837 7.58483 30.4632 7.46596 30.7108 7.23971L38.0166 0.580722C38.5822 0.0604764 39.2513 -0.0783968 39.8795 0.194055C40.5077 0.466506 41.0447 1.12845 41.3746 2.03711C41.7046 2.94579 41.8011 4.02835 41.6433 5.05135C41.4855 6.07434 41.0861 6.95577 40.5312 7.50551L40.4474 7.58526L36.2305 11.4355C36.103 11.5523 35.9968 11.722 35.923 11.9271C35.8491 12.1323 35.8102 12.3656 35.8102 12.6031C35.8102 12.8407 35.8491 13.074 35.923 13.2791C35.9968 13.4843 36.103 13.6539 36.2305 13.7707L47.6147 24.1766C47.8622 24.4036 48.1418 24.523 48.4261 24.523C48.7105 24.523 48.99 24.4036 49.2375 24.1766L56.2798 17.741C56.8453 17.2151 57.5159 17.0716 58.1462 17.3419C58.7766 17.6123 59.3158 18.2745 59.6471 19.1851C59.9784 20.0958 60.075 21.1813 59.9161 22.2068C59.7571 23.2322 59.3554 24.1146 58.798 24.6629L58.7136 24.7437L54.7481 28.3607C54.6205 28.4773 54.5143 28.6469 54.4405 28.8519C54.3666 29.057 54.3277 29.2902 54.3277 29.5278C54.3277 29.7652 54.3666 29.9984 54.4405 30.2035C54.5143 30.4086 54.6205 30.5781 54.7481 30.6949L58.7318 34.3374C59.2993 34.8524 59.7192 35.7084 59.9011 36.7208C60.083 37.7334 60.0122 38.8211 59.704 39.7497C59.3959 40.6784 58.875 41.3734 58.2538 41.6851C57.6325 41.9968 56.9606 41.8999 56.383 41.4157L56.2968 41.339L49.2351 34.8838C48.9876 34.6573 48.7082 34.5383 48.424 34.5383C48.1398 34.5383 47.8604 34.6573 47.6129 34.8838L36.1018 45.4049C35.9742 45.5214 35.868 45.6908 35.7942 45.8958C35.7203 46.1008 35.6813 46.3339 35.6813 46.5715C35.6813 46.8089 35.7203 47.0421 35.7942 47.2471C35.868 47.4521 35.9742 47.6215 36.1018 47.7381L40.8572 52.0855C41.4191 52.6051 41.8335 53.4603 42.0119 54.4685C42.1903 55.4768 42.1187 56.5581 41.8122 57.4818C41.5057 58.4056 40.9887 59.0984 40.3715 59.4125C39.7544 59.7266 39.0859 59.6369 38.5089 59.1629L38.4227 59.087L30.5912 51.925C30.3435 51.6989 30.0641 51.5802 29.7799 51.5802C29.4956 51.5802 29.2162 51.6989 28.9685 51.925L21.066 59.1569C20.5006 59.6775 19.8317 59.8168 19.2036 59.545C18.5754 59.273 18.0383 58.6119 17.708 57.7038C17.3777 56.7957 17.2807 55.7136 17.4379 54.6905C17.5951 53.6676 17.9939 52.7857 18.5483 52.2352L18.6321 52.1544L23.4543 47.7371C23.5487 47.6507 23.6318 47.5351 23.6987 47.3966C23.7657 47.2583 23.8151 47.0998 23.8442 46.9304C23.8734 46.7609 23.8817 46.584 23.8686 46.4094C23.8556 46.2347 23.8214 46.0661 23.7681 45.9128C23.6947 45.6992 23.586 45.523 23.4543 45.4038L12.0464 34.9792C11.7987 34.7531 11.5192 34.6344 11.235 34.6344C10.9508 34.6344 10.6713 34.7531 10.4236 34.9792L3.70674 41.1076C3.14091 41.6314 2.47063 41.7728 1.841 41.5012C1.21136 41.2294 0.673029 40.5666 0.342522 39.6561C0.012015 38.7456 -0.0840734 37.6607 0.0750558 36.6362C0.234185 35.6116 0.635729 34.7298 1.19277 34.1818L1.27594 34.103L4.90818 30.7883C5.03607 30.6722 5.14255 30.5027 5.21666 30.2976C5.29078 30.0924 5.32984 29.8589 5.32984 29.6212C5.32984 29.3835 5.29078 29.1501 5.21666 28.945C5.14255 28.7398 5.03607 28.5704 4.90818 28.4541L1.28262 25.1374C0.720713 24.6178 0.306314 23.7628 0.127885 22.7544C-0.0505439 21.7463 0.0211337 20.6648 0.327617 19.7411C0.634099 18.8175 1.15111 18.1245 1.76827 17.8104C2.38543 17.4963 3.05386 17.586 3.63085 18.06L3.71767 18.1359L10.4279 24.2702C10.6753 24.4967 10.9545 24.6157 11.2386 24.6157C11.5227 24.6157 11.802 24.4967 12.0494 24.2702L23.5678 13.7599C23.6953 13.6431 23.8015 13.4734 23.8753 13.2683C23.9492 13.0631 23.9881 12.8298 23.9881 12.5923C23.9881 12.3547 23.9492 12.1215 23.8753 11.9163C23.8015 11.7112 23.6953 11.5415 23.5678 11.4247L19.2896 7.51143C18.7277 6.99183 18.3133 6.13664 18.1349 5.12841C17.9564 4.12018 18.0281 3.03877 18.3346 2.11506C18.6411 1.19135 19.1581 0.498501 19.7752 0.184425C20.3924 -0.129651 21.0608 -0.0400739 21.6378 0.434035V0.432066ZM29.0863 17.9478L17.5661 28.4591C17.4383 28.5757 17.332 28.7452 17.2581 28.9505C17.1841 29.1556 17.1451 29.389 17.1451 29.6267C17.1451 29.8643 17.1841 30.0978 17.2581 30.3029C17.332 30.5081 17.4383 30.6777 17.5661 30.7943L28.9673 41.2159C29.2149 41.4425 29.4944 41.5615 29.7786 41.5615C30.0629 41.5615 30.3424 41.4425 30.59 41.2159L42.0999 30.6949C42.2275 30.5781 42.3336 30.4086 42.4075 30.2035C42.4814 29.9984 42.5203 29.7652 42.5203 29.5278C42.5203 29.2902 42.4814 29.057 42.4075 28.8519C42.3336 28.6469 42.2275 28.4773 42.0999 28.3607L30.7072 17.9478C30.4597 17.7217 30.1805 17.603 29.8964 17.603C29.6124 17.603 29.3331 17.7217 29.0856 17.9478H29.0863Z" fill="#9D0FB0"/>
</g>
<defs>
<clipPath id="clip0_28_1196">
<rect width="60" height="60" fill="white"/>
</clipPath>
</defs>
</svg>
