<?xml version="1.0" encoding="utf-8"?>
<!-- Generator: Adobe Illustrator 25.3.1, SVG Export Plug-In . SVG Version: 6.00 Build 0)  -->
<svg version="1.1" id="Layer_1" xmlns="http://www.w3.org/2000/svg" xmlns:xlink="http://www.w3.org/1999/xlink" x="0px" y="0px"
	 width="424.3px" height="366.2px" viewBox="0 0 424.3 366.2" style="enable-background:new 0 0 424.3 366.2;" xml:space="preserve"
	>
<style type="text/css">
	.st0{display:none;fill-rule:evenodd;clip-rule:evenodd;fill:#1E2117;}
	.st1{fill:#FFFFFF;}
	.st2{fill:none;stroke:#00D3A9;stroke-linejoin:round;stroke-miterlimit:10;}
	.st3{fill:none;stroke:#00B39F;stroke-linejoin:round;stroke-miterlimit:10;}
	.st4{fill:#CFD8DC;}
	.st5{fill:none;}
	.st6{fill:#00B39F;}
	.st7{fill:#647881;}
	.st8{fill:#00D3A9;}
	.st9{fill:#9FBFCD;}
	.st10{fill:#477E96;}
	.st11{fill-rule:evenodd;clip-rule:evenodd;fill-opacity:0;}
	.st12{opacity:0.8;fill:#FFFFFF;}
	.st13{clip-path:url(#SVGID_2_);}
</style>
<path class="st0" d="M68.6-0.7h287.8l0,0c37.7,0,68.3,82,68.3,183.1s-30.6,183.1-68.3,183.1H68.6l0,0c-37.7,0-68.3-82-68.3-183.1
	S30.9-0.7,68.6-0.7z"/>
<path class="st1" d="M188.4,279.6l-3.5-9.3h0c0,0.2,0,0.4,0,0.7c0,0.3,0,0.6,0,0.9c0,0.3,0,0.7,0,1v6.6h-1.1v-10.5h1.8l3.3,8.7h0
	l3.4-8.7h1.8v10.5h-1.2v-6.7c0-0.3,0-0.6,0-0.9c0-0.3,0-0.6,0-0.9c0-0.3,0-0.5,0-0.7h-0.1l-3.5,9.2H188.4z M199.8,271.6
	c0.7,0,1.2,0.2,1.7,0.5c0.5,0.3,0.8,0.7,1.1,1.2c0.3,0.5,0.4,1.2,0.4,1.9v0.7h-5.4c0,0.9,0.2,1.6,0.7,2.1c0.4,0.5,1.1,0.7,1.9,0.7
	c0.5,0,0.9,0,1.3-0.1c0.4-0.1,0.8-0.2,1.2-0.4v1c-0.4,0.2-0.8,0.3-1.2,0.4c-0.4,0.1-0.8,0.1-1.4,0.1c-0.8,0-1.4-0.2-2-0.5
	c-0.6-0.3-1-0.8-1.3-1.4s-0.5-1.3-0.5-2.2c0-0.8,0.1-1.6,0.4-2.2c0.3-0.6,0.7-1.1,1.2-1.4C198.5,271.8,199.1,271.6,199.8,271.6z
	 M199.8,272.6c-0.6,0-1.1,0.2-1.5,0.6c-0.4,0.4-0.6,1-0.7,1.7h4.2c0-0.5-0.1-0.9-0.2-1.2c-0.1-0.4-0.3-0.6-0.6-0.8
	C200.6,272.7,200.2,272.6,199.8,272.6z M210.1,277.4c0,0.5-0.1,0.9-0.4,1.3c-0.2,0.3-0.6,0.6-1.1,0.8c-0.5,0.2-1,0.2-1.7,0.2
	c-0.6,0-1,0-1.4-0.1c-0.4-0.1-0.7-0.2-1-0.4v-1.1c0.3,0.2,0.7,0.3,1.1,0.4c0.4,0.1,0.9,0.2,1.4,0.2c0.7,0,1.2-0.1,1.5-0.3
	c0.3-0.2,0.5-0.5,0.5-0.9c0-0.2-0.1-0.4-0.2-0.6c-0.1-0.2-0.3-0.3-0.6-0.5c-0.3-0.2-0.7-0.3-1.2-0.5c-0.5-0.2-0.9-0.4-1.3-0.6
	c-0.4-0.2-0.6-0.4-0.8-0.7c-0.2-0.3-0.3-0.6-0.3-1.1c0-0.7,0.3-1.2,0.8-1.5c0.5-0.4,1.3-0.5,2.1-0.5c0.5,0,0.9,0,1.3,0.1
	c0.4,0.1,0.8,0.2,1.2,0.4l-0.4,1c-0.3-0.1-0.7-0.3-1-0.4c-0.4-0.1-0.7-0.1-1.1-0.1c-0.6,0-1,0.1-1.3,0.3c-0.3,0.2-0.4,0.4-0.4,0.7
	c0,0.2,0.1,0.5,0.2,0.6c0.1,0.2,0.4,0.3,0.7,0.4c0.3,0.1,0.7,0.3,1.2,0.5c0.5,0.2,0.9,0.4,1.3,0.6c0.4,0.2,0.6,0.4,0.8,0.7
	C210,276.7,210.1,277,210.1,277.4z M213.2,268.4v3.3c0,0.2,0,0.4,0,0.6c0,0.2,0,0.4,0,0.5h0.1c0.2-0.3,0.4-0.5,0.6-0.7
	c0.3-0.2,0.5-0.3,0.8-0.4c0.3-0.1,0.7-0.2,1-0.2c0.6,0,1.2,0.1,1.6,0.3c0.4,0.2,0.7,0.5,1,0.9c0.2,0.4,0.3,1,0.3,1.6v5.1h-1.2v-5
	c0-0.7-0.2-1.1-0.5-1.5c-0.3-0.3-0.8-0.5-1.4-0.5c-0.6,0-1,0.1-1.4,0.3c-0.3,0.2-0.6,0.5-0.8,1c-0.1,0.4-0.2,1-0.2,1.6v4.1H212
	v-11.1H213.2z M224,271.6c0.7,0,1.2,0.2,1.7,0.5c0.5,0.3,0.8,0.7,1.1,1.2c0.3,0.5,0.4,1.2,0.4,1.9v0.7h-5.4c0,0.9,0.2,1.6,0.7,2.1
	c0.4,0.5,1.1,0.7,1.9,0.7c0.5,0,0.9,0,1.3-0.1c0.4-0.1,0.8-0.2,1.2-0.4v1c-0.4,0.2-0.8,0.3-1.2,0.4c-0.4,0.1-0.8,0.1-1.4,0.1
	c-0.8,0-1.4-0.2-2-0.5c-0.6-0.3-1-0.8-1.3-1.4c-0.3-0.6-0.5-1.3-0.5-2.2c0-0.8,0.1-1.6,0.4-2.2c0.3-0.6,0.7-1.1,1.2-1.4
	C222.7,271.8,223.3,271.6,224,271.6z M224,272.6c-0.6,0-1.1,0.2-1.5,0.6c-0.4,0.4-0.6,1-0.7,1.7h4.2c0-0.5-0.1-0.9-0.2-1.2
	c-0.1-0.4-0.3-0.6-0.6-0.8C224.8,272.7,224.4,272.6,224,272.6z M232.8,271.6c0.2,0,0.3,0,0.5,0c0.2,0,0.3,0,0.5,0.1l-0.1,1.1
	c-0.1,0-0.3-0.1-0.4-0.1c-0.2,0-0.3,0-0.4,0c-0.3,0-0.6,0.1-0.9,0.2c-0.3,0.1-0.5,0.3-0.7,0.5c-0.2,0.2-0.4,0.5-0.5,0.8
	c-0.1,0.3-0.2,0.7-0.2,1.1v4.2h-1.2v-7.8h1l0.1,1.5h0c0.2-0.3,0.3-0.6,0.6-0.8c0.2-0.2,0.5-0.4,0.8-0.6
	C232.1,271.7,232.4,271.6,232.8,271.6z M234,271.7h1.3l1.7,4.5c0.1,0.3,0.2,0.5,0.3,0.8c0.1,0.2,0.2,0.5,0.2,0.7
	c0.1,0.2,0.1,0.4,0.2,0.6h0c0.1-0.2,0.2-0.6,0.3-0.9c0.1-0.4,0.3-0.8,0.4-1.2l1.6-4.5h1.3l-3.4,9c-0.2,0.5-0.4,0.9-0.6,1.2
	c-0.2,0.4-0.5,0.6-0.9,0.8c-0.3,0.2-0.8,0.3-1.2,0.3c-0.2,0-0.4,0-0.6,0c-0.2,0-0.3,0-0.4-0.1v-1c0.1,0,0.2,0,0.4,0.1
	c0.2,0,0.3,0,0.5,0c0.3,0,0.6-0.1,0.8-0.2c0.2-0.1,0.4-0.3,0.6-0.5c0.2-0.2,0.3-0.5,0.4-0.8l0.4-1.1L234,271.7z"/>
<path class="st1" d="M189.3,286.8c1.2,0,2.1,0.2,2.7,0.7c0.6,0.5,0.9,1.2,0.9,2.1c0,0.4-0.1,0.8-0.2,1.2c-0.1,0.4-0.3,0.7-0.6,1
	c-0.3,0.3-0.7,0.5-1.2,0.7c-0.5,0.2-1.1,0.2-1.8,0.2h-1.2v3.7h-1.1v-9.5H189.3z M189.2,287.7h-1.3v3.9h1c0.6,0,1.1-0.1,1.5-0.2
	c0.4-0.1,0.7-0.3,0.9-0.6c0.2-0.3,0.3-0.7,0.3-1.2c0-0.6-0.2-1.1-0.6-1.4C190.7,287.9,190,287.7,189.2,287.7z M195.7,296.3h-1.1
	v-10.1h1.1V296.3z M200.7,289.1c0.8,0,1.5,0.2,1.9,0.6c0.4,0.4,0.6,1,0.6,1.8v4.8h-0.8l-0.2-1h-0.1c-0.2,0.3-0.4,0.5-0.6,0.7
	c-0.2,0.2-0.5,0.3-0.8,0.4c-0.3,0.1-0.6,0.1-1,0.1c-0.4,0-0.8-0.1-1.2-0.2c-0.3-0.2-0.6-0.4-0.8-0.7c-0.2-0.3-0.3-0.7-0.3-1.2
	c0-0.7,0.3-1.3,0.8-1.6c0.6-0.4,1.4-0.6,2.6-0.6l1.2-0.1v-0.4c0-0.6-0.1-1-0.4-1.3c-0.3-0.2-0.6-0.4-1.1-0.4c-0.4,0-0.7,0.1-1.1,0.2
	c-0.3,0.1-0.7,0.2-1,0.4l-0.3-0.8c0.3-0.2,0.7-0.3,1.1-0.4C199.8,289.1,200.2,289.1,200.7,289.1z M202.1,292.8l-1.1,0
	c-0.9,0-1.5,0.2-1.9,0.4c-0.4,0.2-0.5,0.6-0.5,1.1c0,0.4,0.1,0.7,0.4,0.9c0.2,0.2,0.6,0.3,1,0.3c0.6,0,1.2-0.2,1.5-0.5
	c0.4-0.4,0.6-0.9,0.6-1.6V292.8z M207.7,295.6c0.2,0,0.4,0,0.5,0s0.3-0.1,0.5-0.1v0.8c-0.1,0.1-0.3,0.1-0.5,0.1
	c-0.2,0-0.4,0.1-0.6,0.1c-0.4,0-0.7-0.1-1-0.2c-0.3-0.1-0.5-0.4-0.7-0.7c-0.2-0.3-0.3-0.8-0.3-1.3V290h-1v-0.5l1-0.4l0.4-1.5h0.7
	v1.7h2.1v0.8h-2.1v4.2c0,0.4,0.1,0.8,0.3,1C207.1,295.4,207.4,295.6,207.7,295.6z M213.4,290h-1.8v6.3h-1.1V290h-1.3v-0.5l1.3-0.4
	v-0.5c0-0.6,0.1-1.1,0.3-1.5c0.2-0.4,0.4-0.7,0.8-0.8c0.3-0.2,0.8-0.3,1.2-0.3c0.3,0,0.5,0,0.8,0.1s0.4,0.1,0.6,0.2l-0.3,0.9
	c-0.1-0.1-0.3-0.1-0.5-0.1s-0.4-0.1-0.6-0.1c-0.4,0-0.7,0.1-0.9,0.4s-0.3,0.7-0.3,1.2v0.5h1.8V290z M220.8,292.7
	c0,0.6-0.1,1.1-0.2,1.6c-0.1,0.5-0.4,0.8-0.7,1.2c-0.3,0.3-0.6,0.6-1,0.7s-0.9,0.2-1.4,0.2c-0.5,0-0.9-0.1-1.3-0.2
	c-0.4-0.2-0.7-0.4-1-0.7c-0.3-0.3-0.5-0.7-0.7-1.2c-0.2-0.5-0.2-1-0.2-1.6c0-0.8,0.1-1.4,0.4-2c0.3-0.6,0.7-1,1.1-1.3
	c0.5-0.3,1.1-0.4,1.8-0.4c0.7,0,1.2,0.1,1.7,0.4c0.5,0.3,0.9,0.7,1.1,1.3C220.7,291.3,220.8,291.9,220.8,292.7z M215.4,292.7
	c0,0.6,0.1,1.1,0.2,1.5c0.2,0.4,0.4,0.7,0.7,1c0.3,0.2,0.7,0.3,1.2,0.3c0.5,0,0.9-0.1,1.2-0.3c0.3-0.2,0.6-0.6,0.7-1
	c0.2-0.4,0.2-0.9,0.2-1.5s-0.1-1.1-0.2-1.5c-0.1-0.4-0.4-0.7-0.7-1c-0.3-0.2-0.7-0.3-1.2-0.3c-0.8,0-1.3,0.2-1.6,0.8
	C215.6,291.2,215.4,291.9,215.4,292.7z M225.9,289c0.1,0,0.3,0,0.5,0c0.2,0,0.3,0,0.4,0.1l-0.1,1c-0.1,0-0.2-0.1-0.4-0.1
	c-0.1,0-0.3,0-0.4,0c-0.3,0-0.6,0.1-0.8,0.2c-0.2,0.1-0.5,0.3-0.7,0.5c-0.2,0.2-0.3,0.5-0.5,0.8c-0.1,0.3-0.2,0.6-0.2,1v3.8h-1.1
	v-7.1h0.9l0.1,1.3h0c0.1-0.3,0.3-0.5,0.5-0.7c0.2-0.2,0.4-0.4,0.7-0.5C225.3,289.1,225.6,289,225.9,289z M235.9,289
	c0.8,0,1.4,0.2,1.8,0.6c0.4,0.4,0.6,1.1,0.6,2v4.7h-1.1v-4.6c0-0.6-0.1-1-0.4-1.3s-0.6-0.4-1.1-0.4c-0.7,0-1.2,0.2-1.5,0.6
	c-0.3,0.4-0.5,1-0.5,1.8v4h-1.1v-4.6c0-0.4-0.1-0.7-0.2-1c-0.1-0.3-0.3-0.5-0.5-0.6c-0.2-0.1-0.5-0.2-0.8-0.2
	c-0.5,0-0.8,0.1-1.1,0.3c-0.3,0.2-0.5,0.5-0.6,0.9c-0.1,0.4-0.2,0.9-0.2,1.4v3.8h-1.1v-7.1h0.9l0.2,1h0.1c0.1-0.2,0.3-0.5,0.5-0.6
	c0.2-0.2,0.5-0.3,0.7-0.4c0.3-0.1,0.6-0.1,0.9-0.1c0.5,0,1,0.1,1.4,0.3c0.4,0.2,0.6,0.5,0.8,0.9h0.1c0.2-0.4,0.6-0.7,1-0.9
	C234.9,289.1,235.4,289,235.9,289z"/>
<path class="st2" d="M140,182.5L140,182.5c0-40.1,32.5-72.6,72.6-72.6l0,0c19.2,0,37.7,7.6,51.3,21.3s21.3,32.1,21.3,51.3l0,0
	c0,40.1-32.5,72.6-72.6,72.6l0,0C172.4,255,140,222.5,140,182.5z"/>
<g>
	<path class="st3" d="M267.1,35.1L267.1,35.1c0-8.4,6.8-15.1,15.1-15.1h79.9c4,0,7.9,1.6,10.7,4.4c2.8,2.8,4.4,6.7,4.4,10.7v60.5
		c0,8.4-6.8,15.1-15.1,15.1h-79.9c-8.4,0-15.1-6.8-15.1-15.1V35.1z"/>
	<path class="st4" d="M297.3,84.3c-0.4,0-0.7,0.1-1,0.2c-0.3,0.1-0.5,0.3-0.8,0.5c-0.2,0.2-0.4,0.5-0.5,0.9
		c-0.1,0.3-0.2,0.7-0.2,1.1c0,0.6,0.1,1,0.2,1.5c0.2,0.4,0.4,0.7,0.8,1c0.4,0.2,0.8,0.3,1.3,0.3c0.3,0,0.6,0,0.8-0.1
		c0.3-0.1,0.5-0.1,0.8-0.2v0.7c-0.2,0.1-0.5,0.1-0.8,0.2c-0.3,0.1-0.6,0.1-1,0.1c-0.7,0-1.2-0.1-1.7-0.4c-0.4-0.3-0.8-0.7-1-1.2
		c-0.2-0.5-0.3-1.1-0.3-1.8c0-0.5,0.1-1,0.2-1.4c0.1-0.4,0.4-0.8,0.6-1.1c0.3-0.3,0.6-0.5,1-0.7c0.4-0.2,0.8-0.2,1.4-0.2
		c0.3,0,0.7,0,1,0.1c0.3,0.1,0.6,0.2,0.9,0.3l-0.3,0.7c-0.2-0.1-0.5-0.2-0.7-0.2C297.9,84.3,297.6,84.3,297.3,84.3z M304.5,87.9
		c0,0.4-0.1,0.8-0.2,1.1c-0.1,0.3-0.3,0.6-0.5,0.8c-0.2,0.2-0.4,0.4-0.7,0.5c-0.3,0.1-0.6,0.2-1,0.2c-0.3,0-0.6-0.1-0.9-0.2
		c-0.3-0.1-0.5-0.3-0.7-0.5c-0.2-0.2-0.4-0.5-0.5-0.8c-0.1-0.3-0.2-0.7-0.2-1.1c0-0.6,0.1-1,0.3-1.4c0.2-0.4,0.5-0.7,0.8-0.9
		c0.3-0.2,0.8-0.3,1.2-0.3c0.4,0,0.8,0.1,1.2,0.3c0.3,0.2,0.6,0.5,0.8,0.9C304.4,86.9,304.5,87.3,304.5,87.9z M300.7,87.9
		c0,0.4,0.1,0.7,0.2,1c0.1,0.3,0.3,0.5,0.5,0.7c0.2,0.2,0.5,0.2,0.9,0.2c0.3,0,0.6-0.1,0.8-0.2c0.2-0.2,0.4-0.4,0.5-0.7
		c0.1-0.3,0.2-0.7,0.2-1c0-0.4-0.1-0.8-0.2-1c-0.1-0.3-0.3-0.5-0.5-0.7c-0.2-0.2-0.5-0.2-0.8-0.2c-0.5,0-0.9,0.2-1.2,0.5
		C300.8,86.8,300.7,87.3,300.7,87.9z M306.6,90.4h-0.8v-7.1h0.8V90.4z M308.9,90.4h-0.8v-7.1h0.8V90.4z M312.4,85.3
		c0.6,0,1,0.1,1.3,0.4c0.3,0.3,0.4,0.7,0.4,1.3v3.4h-0.5l-0.2-0.7h0c-0.1,0.2-0.3,0.3-0.4,0.5c-0.1,0.1-0.3,0.2-0.5,0.3
		c-0.2,0.1-0.4,0.1-0.7,0.1c-0.3,0-0.6-0.1-0.8-0.2c-0.2-0.1-0.4-0.3-0.6-0.5c-0.1-0.2-0.2-0.5-0.2-0.8c0-0.5,0.2-0.9,0.6-1.1
		c0.4-0.3,1-0.4,1.8-0.4l0.9,0v-0.3c0-0.4-0.1-0.7-0.3-0.9c-0.2-0.2-0.4-0.3-0.8-0.3c-0.3,0-0.5,0-0.8,0.1c-0.2,0.1-0.5,0.2-0.7,0.3
		l-0.2-0.6c0.2-0.1,0.5-0.2,0.8-0.3C311.8,85.3,312.1,85.3,312.4,85.3z M313.4,87.9l-0.8,0c-0.6,0-1.1,0.1-1.3,0.3
		c-0.2,0.2-0.4,0.4-0.4,0.8c0,0.3,0.1,0.5,0.2,0.6c0.2,0.1,0.4,0.2,0.7,0.2c0.4,0,0.8-0.1,1.1-0.4c0.3-0.2,0.4-0.6,0.4-1.1V87.9z
		 M316.5,83.3v1.8c0,0.2,0,0.4,0,0.6c0,0.2,0,0.3,0,0.4h0c0.1-0.2,0.3-0.4,0.6-0.6c0.3-0.2,0.6-0.2,1-0.2c0.6,0,1.1,0.2,1.5,0.7
		c0.4,0.4,0.6,1.1,0.6,1.9c0,0.6-0.1,1-0.3,1.4c-0.2,0.4-0.4,0.7-0.7,0.9c-0.3,0.2-0.7,0.3-1.1,0.3c-0.4,0-0.7-0.1-1-0.2
		c-0.2-0.1-0.4-0.3-0.6-0.5h-0.1l-0.2,0.7h-0.5v-7.1H316.5z M317.9,85.9c-0.4,0-0.7,0.1-0.9,0.2c-0.2,0.1-0.4,0.4-0.5,0.6
		s-0.1,0.6-0.1,1.1v0c0,0.6,0.1,1.1,0.3,1.5c0.2,0.3,0.6,0.5,1.2,0.5c0.5,0,0.8-0.2,1-0.5c0.2-0.3,0.4-0.8,0.4-1.5
		c0-0.6-0.1-1.1-0.3-1.5C318.7,86.1,318.4,85.9,317.9,85.9z M325.7,87.9c0,0.4-0.1,0.8-0.2,1.1c-0.1,0.3-0.3,0.6-0.5,0.8
		s-0.4,0.4-0.7,0.5c-0.3,0.1-0.6,0.2-1,0.2c-0.3,0-0.6-0.1-0.9-0.2c-0.3-0.1-0.5-0.3-0.7-0.5s-0.4-0.5-0.5-0.8
		c-0.1-0.3-0.2-0.7-0.2-1.1c0-0.6,0.1-1,0.3-1.4c0.2-0.4,0.5-0.7,0.8-0.9c0.3-0.2,0.8-0.3,1.2-0.3c0.4,0,0.8,0.1,1.2,0.3
		c0.3,0.2,0.6,0.5,0.8,0.9C325.6,86.9,325.7,87.3,325.7,87.9z M321.9,87.9c0,0.4,0.1,0.7,0.2,1c0.1,0.3,0.3,0.5,0.5,0.7
		c0.2,0.2,0.5,0.2,0.9,0.2c0.3,0,0.6-0.1,0.8-0.2c0.2-0.2,0.4-0.4,0.5-0.7c0.1-0.3,0.2-0.7,0.2-1c0-0.4-0.1-0.8-0.2-1
		c-0.1-0.3-0.3-0.5-0.5-0.7c-0.2-0.2-0.5-0.2-0.8-0.2c-0.5,0-0.9,0.2-1.2,0.5C322,86.8,321.9,87.3,321.9,87.9z M329.3,85.3
		c0.1,0,0.2,0,0.3,0c0.1,0,0.2,0,0.3,0l-0.1,0.7c-0.1,0-0.2,0-0.3,0c-0.1,0-0.2,0-0.3,0c-0.2,0-0.4,0-0.6,0.1
		c-0.2,0.1-0.3,0.2-0.5,0.3c-0.1,0.1-0.2,0.3-0.3,0.5c-0.1,0.2-0.1,0.4-0.1,0.7v2.7H327v-5h0.6l0.1,0.9h0c0.1-0.2,0.2-0.3,0.4-0.5
		s0.3-0.3,0.5-0.4C328.8,85.3,329,85.3,329.3,85.3z M332.7,85.3c0.6,0,1,0.1,1.3,0.4c0.3,0.3,0.4,0.7,0.4,1.3v3.4h-0.5l-0.2-0.7h0
		c-0.1,0.2-0.3,0.3-0.4,0.5c-0.1,0.1-0.3,0.2-0.5,0.3c-0.2,0.1-0.4,0.1-0.7,0.1c-0.3,0-0.6-0.1-0.8-0.2c-0.2-0.1-0.4-0.3-0.6-0.5
		c-0.1-0.2-0.2-0.5-0.2-0.8c0-0.5,0.2-0.9,0.6-1.1c0.4-0.3,1-0.4,1.8-0.4l0.9,0v-0.3c0-0.4-0.1-0.7-0.3-0.9
		c-0.2-0.2-0.4-0.3-0.8-0.3c-0.3,0-0.5,0-0.8,0.1c-0.2,0.1-0.5,0.2-0.7,0.3l-0.2-0.6c0.2-0.1,0.5-0.2,0.8-0.3
		C332.1,85.3,332.4,85.3,332.7,85.3z M333.7,87.9l-0.8,0c-0.6,0-1.1,0.1-1.3,0.3c-0.2,0.2-0.4,0.4-0.4,0.8c0,0.3,0.1,0.5,0.2,0.6
		c0.2,0.1,0.4,0.2,0.7,0.2c0.4,0,0.8-0.1,1.1-0.4c0.3-0.2,0.4-0.6,0.4-1.1V87.9z M337.6,89.8c0.1,0,0.2,0,0.4,0c0.1,0,0.2,0,0.3-0.1
		v0.6c-0.1,0-0.2,0.1-0.4,0.1c-0.2,0-0.3,0-0.5,0c-0.3,0-0.5,0-0.7-0.1c-0.2-0.1-0.4-0.2-0.5-0.5c-0.1-0.2-0.2-0.5-0.2-0.9v-3h-0.7
		v-0.4l0.7-0.3l0.3-1.1h0.5v1.2h1.5V86h-1.5v2.9c0,0.3,0.1,0.5,0.2,0.7C337.2,89.8,337.4,89.8,337.6,89.8z M340.1,85.4v5h-0.8v-5
		H340.1z M339.7,83.5c0.1,0,0.2,0,0.3,0.1c0.1,0.1,0.1,0.2,0.1,0.4c0,0.2,0,0.3-0.1,0.4c-0.1,0.1-0.2,0.1-0.3,0.1
		c-0.1,0-0.2,0-0.3-0.1c-0.1-0.1-0.1-0.2-0.1-0.4c0-0.2,0-0.3,0.1-0.4C339.5,83.6,339.6,83.5,339.7,83.5z M342.8,90.4l-1.9-5h0.8
		l1.1,3c0.1,0.2,0.2,0.4,0.2,0.7c0.1,0.2,0.1,0.4,0.2,0.6h0c0-0.2,0.1-0.4,0.2-0.6s0.2-0.5,0.2-0.7l1.1-3h0.8l-1.9,5H342.8z
		 M348.3,85.3c0.4,0,0.8,0.1,1.1,0.3s0.5,0.5,0.7,0.8c0.2,0.3,0.2,0.7,0.2,1.2V88h-3.5c0,0.6,0.2,1,0.4,1.3c0.3,0.3,0.7,0.5,1.2,0.5
		c0.3,0,0.6,0,0.8-0.1c0.2-0.1,0.5-0.1,0.8-0.2v0.7c-0.2,0.1-0.5,0.2-0.8,0.2c-0.2,0.1-0.5,0.1-0.9,0.1c-0.5,0-0.9-0.1-1.3-0.3
		c-0.4-0.2-0.6-0.5-0.8-0.9c-0.2-0.4-0.3-0.8-0.3-1.4c0-0.5,0.1-1,0.3-1.4c0.2-0.4,0.4-0.7,0.8-0.9
		C347.4,85.4,347.8,85.3,348.3,85.3z M348.3,85.9c-0.4,0-0.7,0.1-1,0.4c-0.2,0.3-0.4,0.6-0.4,1.1h2.6c0-0.3,0-0.6-0.1-0.8
		c-0.1-0.2-0.2-0.4-0.4-0.5C348.8,86,348.6,85.9,348.3,85.9z"/>
	<path class="st4" d="M311,97.9h2.3v3.2c-0.3,0.1-0.7,0.2-1.1,0.3c-0.4,0.1-0.8,0.1-1.2,0.1c-0.7,0-1.3-0.1-1.8-0.4
		c-0.5-0.3-0.8-0.7-1.1-1.2c-0.2-0.5-0.4-1.1-0.4-1.8c0-0.7,0.1-1.3,0.4-1.8c0.3-0.5,0.7-0.9,1.2-1.2c0.5-0.3,1.1-0.4,1.9-0.4
		c0.4,0,0.7,0,1,0.1c0.3,0.1,0.6,0.2,0.9,0.3l-0.3,0.7c-0.2-0.1-0.5-0.2-0.8-0.3c-0.3-0.1-0.6-0.1-0.9-0.1c-0.5,0-1,0.1-1.4,0.3
		c-0.4,0.2-0.7,0.5-0.9,1c-0.2,0.4-0.3,0.9-0.3,1.5c0,0.6,0.1,1,0.3,1.5c0.2,0.4,0.5,0.7,0.8,1c0.4,0.2,0.9,0.3,1.5,0.3
		c0.3,0,0.6,0,0.8,0c0.2,0,0.4-0.1,0.6-0.1v-2H311V97.9z M315.6,96.4v5h-0.8v-5H315.6z M315.2,94.5c0.1,0,0.2,0,0.3,0.1
		c0.1,0.1,0.1,0.2,0.1,0.4c0,0.2,0,0.3-0.1,0.4c-0.1,0.1-0.2,0.1-0.3,0.1c-0.1,0-0.2,0-0.3-0.1c-0.1-0.1-0.1-0.2-0.1-0.4
		c0-0.2,0-0.3,0.1-0.4C314.9,94.6,315.1,94.5,315.2,94.5z M318.8,100.8c0.1,0,0.2,0,0.4,0c0.1,0,0.2,0,0.3-0.1v0.6
		c-0.1,0-0.2,0.1-0.4,0.1c-0.2,0-0.3,0-0.5,0c-0.3,0-0.5,0-0.7-0.1c-0.2-0.1-0.4-0.2-0.5-0.5c-0.1-0.2-0.2-0.5-0.2-0.9v-3h-0.7v-0.4
		l0.7-0.3l0.3-1.1h0.5v1.2h1.5V97H318v2.9c0,0.3,0.1,0.5,0.2,0.7C318.3,100.8,318.5,100.8,318.8,100.8z M326.4,98
		c0,0.5-0.1,1-0.2,1.4c-0.1,0.4-0.3,0.8-0.6,1.1c-0.2,0.3-0.6,0.5-1,0.7c-0.4,0.2-0.8,0.2-1.3,0.2c-0.5,0-1-0.1-1.4-0.2
		c-0.4-0.2-0.7-0.4-1-0.7c-0.2-0.3-0.4-0.7-0.6-1.1c-0.1-0.4-0.2-0.9-0.2-1.4c0-0.7,0.1-1.3,0.3-1.8c0.2-0.5,0.6-0.9,1-1.2
		c0.5-0.3,1-0.4,1.7-0.4c0.7,0,1.2,0.1,1.7,0.4s0.8,0.7,1,1.2C326.3,96.7,326.4,97.3,326.4,98z M321.1,98c0,0.6,0.1,1.1,0.2,1.5
		c0.2,0.4,0.4,0.7,0.7,1c0.3,0.2,0.8,0.3,1.3,0.3c0.5,0,0.9-0.1,1.2-0.3c0.3-0.2,0.6-0.5,0.7-1c0.2-0.4,0.2-0.9,0.2-1.5
		c0-0.9-0.2-1.5-0.5-2c-0.4-0.5-0.9-0.7-1.7-0.7c-0.5,0-0.9,0.1-1.3,0.3s-0.6,0.5-0.8,1C321.2,97,321.1,97.5,321.1,98z M330.1,96.3
		c0.6,0,1.1,0.2,1.5,0.6c0.4,0.4,0.6,1.1,0.6,1.9c0,0.6-0.1,1.1-0.3,1.4c-0.2,0.4-0.4,0.7-0.7,0.9c-0.3,0.2-0.7,0.3-1.1,0.3
		c-0.3,0-0.5,0-0.7-0.1c-0.2-0.1-0.4-0.2-0.5-0.3c-0.1-0.1-0.2-0.2-0.3-0.4h-0.1c0,0.1,0,0.3,0,0.4c0,0.2,0,0.3,0,0.4v2h-0.8v-7.2
		h0.6l0.1,0.7h0c0.1-0.2,0.2-0.3,0.3-0.4c0.1-0.1,0.3-0.2,0.5-0.3C329.6,96.3,329.8,96.3,330.1,96.3z M330,96.9
		c-0.4,0-0.6,0.1-0.8,0.2c-0.2,0.1-0.4,0.3-0.5,0.6c-0.1,0.3-0.1,0.6-0.1,1v0.1c0,0.4,0,0.8,0.1,1.1c0.1,0.3,0.2,0.5,0.5,0.7
		s0.5,0.2,0.9,0.2c0.3,0,0.6-0.1,0.8-0.2c0.2-0.2,0.4-0.4,0.5-0.7c0.1-0.3,0.2-0.6,0.2-1c0-0.6-0.1-1.1-0.3-1.4
		C330.8,97.1,330.4,96.9,330,96.9z M336.7,100c0,0.3-0.1,0.6-0.2,0.8c-0.2,0.2-0.4,0.4-0.7,0.5c-0.3,0.1-0.6,0.2-1,0.2
		c-0.4,0-0.7,0-0.9-0.1c-0.2-0.1-0.5-0.1-0.7-0.2v-0.7c0.2,0.1,0.5,0.2,0.7,0.3c0.3,0.1,0.6,0.1,0.9,0.1c0.4,0,0.7-0.1,0.9-0.2
		c0.2-0.1,0.3-0.3,0.3-0.6c0-0.1,0-0.3-0.1-0.4c-0.1-0.1-0.2-0.2-0.4-0.3c-0.2-0.1-0.4-0.2-0.8-0.3c-0.3-0.1-0.6-0.2-0.8-0.4
		c-0.2-0.1-0.4-0.3-0.5-0.4c-0.1-0.2-0.2-0.4-0.2-0.7c0-0.4,0.2-0.8,0.5-1c0.3-0.2,0.8-0.3,1.4-0.3c0.3,0,0.6,0,0.8,0.1
		c0.3,0.1,0.5,0.1,0.8,0.2l-0.3,0.6c-0.2-0.1-0.4-0.2-0.7-0.2c-0.2-0.1-0.5-0.1-0.7-0.1c-0.3,0-0.6,0.1-0.8,0.2
		c-0.2,0.1-0.3,0.3-0.3,0.5c0,0.2,0,0.3,0.1,0.4c0.1,0.1,0.2,0.2,0.4,0.3c0.2,0.1,0.4,0.2,0.8,0.3c0.3,0.1,0.6,0.2,0.8,0.4
		c0.2,0.1,0.4,0.3,0.5,0.5C336.6,99.5,336.7,99.7,336.7,100z"/>
	<g>
		<g>
			<path class="st5" d="M322.5,32.9c-1-1-2.6-1-3.6,0l-3.6,3.6l4.6,4.6c1.1-0.4,2.3-0.1,3.1,0.7c0.9,0.9,1.1,2.1,0.7,3.2l4.4,4.4
				c1.1-0.4,2.3-0.1,3.2,0.7c1.2,1.2,1.2,3.1,0,4.3c-1.2,1.2-3.1,1.2-4.3,0c-0.9-0.9-1.1-2.2-0.7-3.3l-4.1-4.1v10.9
				c0.3,0.1,0.6,0.3,0.8,0.6c1.2,1.2,1.2,3.1,0,4.3c-1.2,1.2-3.1,1.2-4.3,0c-1.2-1.2-1.2-3.1,0-4.3c0.3-0.3,0.6-0.5,1-0.7v-11
				c-0.4-0.1-0.7-0.4-1-0.7c-0.9-0.9-1.1-2.2-0.7-3.4l-4.5-4.5l-12,12c-1,1-1,2.6,0,3.6L319,71.4c1,1,2.6,1,3.6,0L340,54
				c1-1,1-2.6,0-3.6L322.5,32.9z"/>
			<path class="st1" d="M318.7,46.2c0.3,0.3,0.6,0.5,1,0.7v11c-0.4,0.1-0.7,0.4-1,0.7c-1.2,1.2-1.2,3.1,0,4.3c1.2,1.2,3.1,1.2,4.3,0
				c1.2-1.2,1.2-3.1,0-4.3c-0.2-0.2-0.5-0.4-0.8-0.6V47.1l4.1,4.1c-0.5,1.1-0.2,2.4,0.7,3.3c1.2,1.2,3.1,1.2,4.3,0
				c1.2-1.2,1.2-3.1,0-4.3c-0.9-0.9-2.1-1.1-3.2-0.7l-4.4-4.4c0.4-1.1,0.1-2.3-0.7-3.2c-0.9-0.9-2.1-1.1-3.1-0.7l-4.6-4.6l-1.8,1.8
				l4.5,4.5C317.5,44,317.8,45.3,318.7,46.2z"/>
		</g>
		<path class="st6" d="M340,50.4l-17.5-17.5c-1-1-2.6-1-3.6,0l-3.6,3.6l4.6,4.6c1.1-0.4,2.3-0.1,3.1,0.7c0.9,0.9,1.1,2.1,0.7,3.2
			l4.4,4.4c1.1-0.4,2.3-0.1,3.2,0.7c1.2,1.2,1.2,3.1,0,4.3c-1.2,1.2-3.1,1.2-4.3,0c-0.9-0.9-1.1-2.2-0.7-3.3l-4.1-4.1v10.9
			c0.3,0.1,0.6,0.3,0.8,0.6c1.2,1.2,1.2,3.1,0,4.3c-1.2,1.2-3.1,1.2-4.3,0c-1.2-1.2-1.2-3.1,0-4.3c0.3-0.3,0.6-0.5,1-0.7v-11
			c-0.4-0.1-0.7-0.4-1-0.7c-0.9-0.9-1.1-2.2-0.7-3.4l-4.5-4.5l-12,12c-1,1-1,2.6,0,3.6L319,71.4c1,1,2.6,1,3.6,0L340,54
			C341,53,341,51.4,340,50.4"/>
	</g>
</g>
<g>
	<path class="st3" d="M47.1,35.1L47.1,35.1c0-8.4,6.8-15.1,15.1-15.1h79.9c4,0,7.9,1.6,10.7,4.4c2.8,2.8,4.4,6.7,4.4,10.7v60.5
		c0,8.4-6.8,15.1-15.1,15.1H62.2c-8.4,0-15.1-6.8-15.1-15.1V35.1z"/>
	<path class="st4" d="M74.8,78.5c0.9,0,1.5,0.2,1.9,0.5c0.4,0.3,0.6,0.8,0.6,1.4c0,0.3,0,0.6-0.1,0.8c-0.1,0.2-0.2,0.5-0.5,0.7
		c-0.2,0.2-0.5,0.3-0.8,0.5c-0.3,0.1-0.7,0.2-1.2,0.2h-0.8v2.6h-0.8v-6.7H74.8z M74.7,79.2h-0.9v2.7h0.7c0.4,0,0.8,0,1.1-0.1
		c0.3-0.1,0.5-0.2,0.6-0.4c0.1-0.2,0.2-0.5,0.2-0.8c0-0.4-0.1-0.8-0.4-1C75.8,79.3,75.4,79.2,74.7,79.2z M80.5,80.1
		c0.4,0,0.8,0.1,1.1,0.3c0.3,0.2,0.5,0.5,0.7,0.8c0.2,0.3,0.2,0.7,0.2,1.2v0.5h-3.5c0,0.6,0.2,1,0.4,1.3c0.3,0.3,0.7,0.5,1.2,0.5
		c0.3,0,0.6,0,0.8-0.1c0.2-0.1,0.5-0.1,0.8-0.2V85c-0.2,0.1-0.5,0.2-0.8,0.2c-0.2,0.1-0.5,0.1-0.9,0.1c-0.5,0-0.9-0.1-1.3-0.3
		c-0.4-0.2-0.6-0.5-0.8-0.9c-0.2-0.4-0.3-0.8-0.3-1.4c0-0.5,0.1-1,0.3-1.4c0.2-0.4,0.4-0.7,0.8-0.9C79.7,80.2,80.1,80.1,80.5,80.1z
		 M80.5,80.7c-0.4,0-0.7,0.1-1,0.4c-0.2,0.3-0.4,0.6-0.4,1.1h2.6c0-0.3,0-0.6-0.1-0.8c-0.1-0.2-0.2-0.4-0.4-0.5
		C81,80.8,80.8,80.7,80.5,80.7z M86.1,80.1c0.1,0,0.2,0,0.3,0c0.1,0,0.2,0,0.3,0l-0.1,0.7c-0.1,0-0.2,0-0.3,0c-0.1,0-0.2,0-0.3,0
		c-0.2,0-0.4,0-0.6,0.1c-0.2,0.1-0.3,0.2-0.5,0.3c-0.1,0.1-0.2,0.3-0.3,0.5c-0.1,0.2-0.1,0.4-0.1,0.7v2.7h-0.8v-5h0.6l0.1,0.9h0
		c0.1-0.2,0.2-0.3,0.4-0.5c0.1-0.2,0.3-0.3,0.5-0.4C85.6,80.2,85.8,80.1,86.1,80.1z M89.8,80.8h-1.2v4.4h-0.8v-4.4H87v-0.4l0.9-0.2
		v-0.3c0-0.4,0.1-0.8,0.2-1c0.1-0.3,0.3-0.5,0.5-0.6c0.2-0.1,0.5-0.2,0.9-0.2c0.2,0,0.4,0,0.5,0.1c0.2,0,0.3,0.1,0.4,0.1l-0.2,0.6
		c-0.1,0-0.2-0.1-0.3-0.1c-0.1,0-0.3,0-0.4,0c-0.3,0-0.5,0.1-0.6,0.3c-0.1,0.2-0.2,0.5-0.2,0.9v0.4h1.2V80.8z M95.1,82.7
		c0,0.4-0.1,0.8-0.2,1.1c-0.1,0.3-0.3,0.6-0.5,0.8c-0.2,0.2-0.4,0.4-0.7,0.5c-0.3,0.1-0.6,0.2-1,0.2c-0.3,0-0.6-0.1-0.9-0.2
		c-0.3-0.1-0.5-0.3-0.7-0.5c-0.2-0.2-0.4-0.5-0.5-0.8c-0.1-0.3-0.2-0.7-0.2-1.1c0-0.6,0.1-1,0.3-1.4c0.2-0.4,0.5-0.7,0.8-0.9
		c0.3-0.2,0.8-0.3,1.2-0.3c0.4,0,0.8,0.1,1.2,0.3c0.3,0.2,0.6,0.5,0.8,0.9C95,81.7,95.1,82.1,95.1,82.7z M91.3,82.7
		c0,0.4,0.1,0.7,0.2,1c0.1,0.3,0.3,0.5,0.5,0.7c0.2,0.2,0.5,0.2,0.9,0.2c0.3,0,0.6-0.1,0.8-0.2c0.2-0.2,0.4-0.4,0.5-0.7
		c0.1-0.3,0.2-0.7,0.2-1c0-0.4-0.1-0.8-0.2-1c-0.1-0.3-0.3-0.5-0.5-0.7c-0.2-0.2-0.5-0.3-0.8-0.2c-0.5,0-0.9,0.2-1.2,0.5
		C91.4,81.6,91.3,82.1,91.3,82.7z M98.6,80.1c0.1,0,0.2,0,0.3,0c0.1,0,0.2,0,0.3,0l-0.1,0.7c-0.1,0-0.2,0-0.3,0c-0.1,0-0.2,0-0.3,0
		c-0.2,0-0.4,0-0.6,0.1c-0.2,0.1-0.3,0.2-0.5,0.3c-0.1,0.1-0.2,0.3-0.3,0.5c-0.1,0.2-0.1,0.4-0.1,0.7v2.7h-0.8v-5H97l0.1,0.9h0
		c0.1-0.2,0.2-0.3,0.4-0.5c0.1-0.2,0.3-0.3,0.5-0.4C98.2,80.2,98.4,80.1,98.6,80.1z M105.6,80.1c0.6,0,1,0.1,1.2,0.4
		c0.3,0.3,0.4,0.7,0.4,1.4v3.3h-0.8V82c0-0.4-0.1-0.7-0.3-0.9c-0.2-0.2-0.4-0.3-0.8-0.3c-0.5,0-0.8,0.1-1,0.4
		c-0.2,0.3-0.3,0.7-0.3,1.2v2.8h-0.8V82c0-0.3,0-0.5-0.1-0.7c-0.1-0.2-0.2-0.3-0.3-0.4c-0.2-0.1-0.3-0.1-0.6-0.1
		c-0.3,0-0.6,0.1-0.8,0.2c-0.2,0.1-0.3,0.3-0.4,0.6c-0.1,0.3-0.1,0.6-0.1,1v2.6h-0.8v-5h0.6l0.1,0.7h0c0.1-0.2,0.2-0.3,0.4-0.4
		c0.2-0.1,0.3-0.2,0.5-0.3c0.2-0.1,0.4-0.1,0.6-0.1c0.4,0,0.7,0.1,1,0.2c0.3,0.1,0.4,0.3,0.6,0.6h0c0.2-0.3,0.4-0.5,0.7-0.6
		C105,80.2,105.3,80.1,105.6,80.1z M110.7,80.1c0.6,0,1,0.1,1.3,0.4c0.3,0.3,0.4,0.7,0.4,1.3v3.4h-0.5l-0.2-0.7h0
		c-0.1,0.2-0.3,0.3-0.4,0.5c-0.1,0.1-0.3,0.2-0.5,0.3c-0.2,0.1-0.4,0.1-0.7,0.1c-0.3,0-0.6-0.1-0.8-0.2c-0.2-0.1-0.4-0.3-0.6-0.5
		c-0.1-0.2-0.2-0.5-0.2-0.8c0-0.5,0.2-0.9,0.6-1.1c0.4-0.3,1-0.4,1.8-0.4l0.9,0v-0.3c0-0.4-0.1-0.7-0.3-0.9
		c-0.2-0.2-0.4-0.3-0.8-0.3c-0.3,0-0.5,0-0.8,0.1c-0.2,0.1-0.5,0.2-0.7,0.3l-0.2-0.6c0.2-0.1,0.5-0.2,0.8-0.3
		C110.1,80.2,110.4,80.1,110.7,80.1z M111.7,82.7l-0.8,0c-0.6,0-1.1,0.1-1.3,0.3c-0.2,0.2-0.4,0.4-0.4,0.8c0,0.3,0.1,0.5,0.2,0.6
		c0.2,0.1,0.4,0.2,0.7,0.2c0.4,0,0.8-0.1,1.1-0.4c0.3-0.3,0.4-0.6,0.4-1.1V82.7z M116.4,80.1c0.6,0,1,0.1,1.3,0.4
		c0.3,0.3,0.5,0.7,0.5,1.4v3.2h-0.7V82c0-0.4-0.1-0.7-0.3-0.9c-0.2-0.2-0.5-0.3-0.9-0.3c-0.6,0-0.9,0.2-1.2,0.5
		c-0.2,0.3-0.3,0.8-0.3,1.4v2.6H114v-5h0.6l0.1,0.7h0c0.1-0.2,0.2-0.3,0.4-0.4c0.2-0.1,0.3-0.2,0.5-0.3
		C115.9,80.1,116.2,80.1,116.4,80.1z M121.7,85.3c-0.4,0-0.8-0.1-1.2-0.3c-0.3-0.2-0.6-0.5-0.8-0.8c-0.2-0.4-0.3-0.9-0.3-1.4
		c0-0.6,0.1-1.1,0.3-1.5c0.2-0.4,0.5-0.7,0.8-0.8c0.4-0.2,0.8-0.3,1.2-0.3c0.2,0,0.5,0,0.7,0.1c0.2,0,0.4,0.1,0.6,0.2l-0.2,0.6
		c-0.2-0.1-0.3-0.1-0.5-0.2c-0.2-0.1-0.4-0.1-0.6-0.1c-0.3,0-0.6,0.1-0.9,0.2c-0.2,0.1-0.4,0.4-0.5,0.7c-0.1,0.3-0.2,0.6-0.2,1
		c0,0.4,0.1,0.8,0.2,1c0.1,0.3,0.3,0.5,0.5,0.7c0.2,0.1,0.5,0.2,0.8,0.2c0.3,0,0.5,0,0.7-0.1c0.2-0.1,0.4-0.1,0.6-0.2V85
		c-0.2,0.1-0.4,0.1-0.6,0.2C122.3,85.3,122,85.3,121.7,85.3z M126.1,80.1c0.4,0,0.8,0.1,1.1,0.3c0.3,0.2,0.5,0.5,0.7,0.8
		c0.2,0.3,0.3,0.7,0.2,1.2v0.5h-3.5c0,0.6,0.2,1,0.4,1.3c0.3,0.3,0.7,0.5,1.2,0.5c0.3,0,0.6,0,0.8-0.1c0.3-0.1,0.5-0.1,0.8-0.2V85
		c-0.2,0.1-0.5,0.2-0.8,0.2c-0.2,0.1-0.5,0.1-0.9,0.1c-0.5,0-0.9-0.1-1.3-0.3c-0.4-0.2-0.6-0.5-0.8-0.9c-0.2-0.4-0.3-0.8-0.3-1.4
		c0-0.5,0.1-1,0.3-1.4c0.2-0.4,0.4-0.7,0.8-0.9C125.3,80.2,125.7,80.1,126.1,80.1z M126.1,80.7c-0.4,0-0.7,0.1-1,0.4
		c-0.2,0.3-0.4,0.6-0.4,1.1h2.6c0-0.3,0-0.6-0.1-0.8c-0.1-0.2-0.2-0.4-0.4-0.5C126.6,80.8,126.4,80.7,126.1,80.7z"/>
	<path class="st4" d="M75.4,96.2l-2.2-5.9h0c0,0.1,0,0.3,0,0.5c0,0.2,0,0.4,0,0.6c0,0.2,0,0.4,0,0.6v4.2h-0.7v-6.7h1.2l2.1,5.5h0
		l2.1-5.5H79v6.7h-0.8v-4.3c0-0.2,0-0.4,0-0.6c0-0.2,0-0.4,0-0.6c0-0.2,0-0.3,0-0.5h0L76,96.2H75.4z M82.6,91.1c0.6,0,1,0.1,1.3,0.4
		c0.3,0.3,0.4,0.7,0.4,1.3v3.4h-0.5l-0.2-0.7h0c-0.1,0.2-0.3,0.3-0.4,0.5c-0.1,0.1-0.3,0.2-0.5,0.3c-0.2,0.1-0.4,0.1-0.7,0.1
		c-0.3,0-0.6-0.1-0.8-0.2c-0.2-0.1-0.4-0.3-0.6-0.5c-0.1-0.2-0.2-0.5-0.2-0.8c0-0.5,0.2-0.9,0.6-1.1c0.4-0.3,1-0.4,1.8-0.4l0.9,0
		v-0.3c0-0.4-0.1-0.7-0.3-0.9c-0.2-0.2-0.4-0.3-0.8-0.3c-0.3,0-0.5,0-0.8,0.1c-0.2,0.1-0.5,0.2-0.7,0.3l-0.2-0.6
		c0.2-0.1,0.5-0.2,0.8-0.3C82,91.2,82.3,91.1,82.6,91.1z M83.6,93.7l-0.8,0c-0.6,0-1.1,0.1-1.3,0.3c-0.2,0.2-0.4,0.4-0.4,0.8
		c0,0.3,0.1,0.5,0.2,0.6c0.2,0.1,0.4,0.2,0.7,0.2c0.4,0,0.8-0.1,1.1-0.4c0.3-0.3,0.4-0.6,0.4-1.1V93.7z M88.3,91.1
		c0.6,0,1,0.1,1.3,0.4c0.3,0.3,0.5,0.7,0.5,1.4v3.2h-0.7V93c0-0.4-0.1-0.7-0.3-0.9c-0.2-0.2-0.5-0.3-0.9-0.3c-0.6,0-0.9,0.2-1.2,0.5
		c-0.2,0.3-0.3,0.8-0.3,1.4v2.6h-0.8v-5h0.6l0.1,0.7h0c0.1-0.2,0.2-0.3,0.4-0.4c0.2-0.1,0.3-0.2,0.5-0.3
		C87.9,91.1,88.1,91.1,88.3,91.1z M93.5,91.1c0.6,0,1,0.1,1.3,0.4c0.3,0.3,0.4,0.7,0.4,1.3v3.4h-0.5l-0.2-0.7h0
		c-0.1,0.2-0.3,0.3-0.4,0.5c-0.1,0.1-0.3,0.2-0.5,0.3c-0.2,0.1-0.4,0.1-0.7,0.1c-0.3,0-0.6-0.1-0.8-0.2c-0.2-0.1-0.4-0.3-0.6-0.5
		c-0.1-0.2-0.2-0.5-0.2-0.8c0-0.5,0.2-0.9,0.6-1.1c0.4-0.3,1-0.4,1.8-0.4l0.9,0v-0.3c0-0.4-0.1-0.7-0.3-0.9
		c-0.2-0.2-0.4-0.3-0.8-0.3c-0.3,0-0.5,0-0.8,0.1c-0.2,0.1-0.5,0.2-0.7,0.3l-0.2-0.6c0.2-0.1,0.5-0.2,0.8-0.3
		C92.9,91.2,93.2,91.1,93.5,91.1z M94.5,93.7l-0.8,0c-0.6,0-1.1,0.1-1.3,0.3c-0.2,0.2-0.4,0.4-0.4,0.8c0,0.3,0.1,0.5,0.2,0.6
		c0.2,0.1,0.4,0.2,0.7,0.2c0.4,0,0.8-0.1,1.1-0.4c0.3-0.3,0.4-0.6,0.4-1.1V93.7z M98.2,98.4c-0.7,0-1.2-0.1-1.5-0.4
		c-0.4-0.2-0.5-0.6-0.5-1c0-0.3,0.1-0.6,0.3-0.8c0.2-0.2,0.5-0.4,0.8-0.4c-0.1-0.1-0.2-0.2-0.3-0.3c-0.1-0.1-0.1-0.3-0.1-0.4
		c0-0.2,0-0.3,0.1-0.5c0.1-0.1,0.3-0.3,0.5-0.4c-0.3-0.1-0.5-0.3-0.6-0.5c-0.2-0.3-0.2-0.6-0.2-0.9c0-0.4,0.1-0.7,0.2-0.9
		c0.2-0.3,0.4-0.4,0.7-0.6c0.3-0.1,0.6-0.2,1-0.2c0.1,0,0.2,0,0.3,0c0.1,0,0.2,0,0.3,0c0.1,0,0.2,0,0.2,0h1.7v0.5l-0.9,0.1
		c0.1,0.1,0.2,0.3,0.2,0.4c0.1,0.2,0.1,0.3,0.1,0.5c0,0.5-0.2,0.9-0.5,1.2c-0.3,0.3-0.8,0.4-1.4,0.4c-0.1,0-0.3,0-0.4,0
		c-0.1,0.1-0.3,0.2-0.3,0.3c-0.1,0.1-0.1,0.2-0.1,0.3c0,0.1,0,0.2,0.1,0.2c0.1,0.1,0.2,0.1,0.3,0.1c0.1,0,0.2,0,0.4,0h0.9
		c0.5,0,1,0.1,1.2,0.3c0.3,0.2,0.4,0.6,0.4,1c0,0.6-0.2,1-0.7,1.3C99.7,98.3,99.1,98.4,98.2,98.4z M98.3,97.8c0.4,0,0.7,0,1-0.1
		c0.3-0.1,0.5-0.2,0.6-0.4c0.1-0.2,0.2-0.3,0.2-0.5c0-0.2,0-0.3-0.1-0.5c-0.1-0.1-0.2-0.2-0.4-0.2c-0.2,0-0.4-0.1-0.6-0.1H98
		c-0.2,0-0.4,0-0.6,0.1c-0.2,0.1-0.3,0.2-0.4,0.3c-0.1,0.1-0.1,0.3-0.1,0.5c0,0.3,0.1,0.5,0.3,0.6C97.5,97.8,97.8,97.8,98.3,97.8z
		 M98.4,93.8c0.4,0,0.6-0.1,0.8-0.3c0.2-0.2,0.3-0.5,0.3-0.8c0-0.4-0.1-0.7-0.3-0.8c-0.2-0.2-0.5-0.3-0.8-0.3
		c-0.4,0-0.6,0.1-0.8,0.3c-0.2,0.2-0.3,0.5-0.3,0.8c0,0.3,0.1,0.6,0.3,0.8C97.8,93.8,98.1,93.8,98.4,93.8z M103.8,91.1
		c0.4,0,0.8,0.1,1.1,0.3c0.3,0.2,0.5,0.5,0.7,0.8c0.2,0.3,0.2,0.7,0.2,1.2v0.5h-3.5c0,0.6,0.2,1,0.4,1.3c0.3,0.3,0.7,0.5,1.2,0.5
		c0.3,0,0.6,0,0.8-0.1c0.2-0.1,0.5-0.1,0.8-0.2V96c-0.2,0.1-0.5,0.2-0.8,0.2c-0.2,0.1-0.5,0.1-0.9,0.1c-0.5,0-0.9-0.1-1.3-0.3
		c-0.4-0.2-0.6-0.5-0.8-0.9c-0.2-0.4-0.3-0.8-0.3-1.4c0-0.5,0.1-1,0.3-1.4c0.2-0.4,0.4-0.7,0.8-0.9C103,91.2,103.4,91.1,103.8,91.1z
		 M103.8,91.7c-0.4,0-0.7,0.1-1,0.4c-0.2,0.3-0.4,0.6-0.4,1.1h2.6c0-0.3,0-0.6-0.1-0.8c-0.1-0.2-0.2-0.4-0.4-0.5
		C104.3,91.8,104.1,91.7,103.8,91.7z M112.6,91.1c0.6,0,1,0.1,1.2,0.4c0.3,0.3,0.4,0.7,0.4,1.4v3.3h-0.8V93c0-0.4-0.1-0.7-0.3-0.9
		c-0.2-0.2-0.4-0.3-0.8-0.3c-0.5,0-0.8,0.1-1,0.4c-0.2,0.3-0.3,0.7-0.3,1.2v2.8h-0.8V93c0-0.3,0-0.5-0.1-0.7
		c-0.1-0.2-0.2-0.3-0.3-0.4c-0.2-0.1-0.3-0.1-0.6-0.1c-0.3,0-0.6,0.1-0.8,0.2c-0.2,0.1-0.3,0.3-0.4,0.6c-0.1,0.3-0.1,0.6-0.1,1v2.6
		h-0.8v-5h0.6l0.1,0.7h0c0.1-0.2,0.2-0.3,0.4-0.4c0.2-0.1,0.3-0.2,0.5-0.3c0.2-0.1,0.4-0.1,0.6-0.1c0.4,0,0.7,0.1,1,0.2
		c0.3,0.1,0.4,0.3,0.6,0.6h0c0.2-0.3,0.4-0.5,0.7-0.6C111.9,91.2,112.2,91.1,112.6,91.1z M117.7,91.1c0.4,0,0.8,0.1,1.1,0.3
		c0.3,0.2,0.5,0.5,0.7,0.8c0.2,0.3,0.2,0.7,0.2,1.2v0.5h-3.5c0,0.6,0.2,1,0.4,1.3c0.3,0.3,0.7,0.5,1.2,0.5c0.3,0,0.6,0,0.8-0.1
		c0.2-0.1,0.5-0.1,0.8-0.2V96c-0.2,0.1-0.5,0.2-0.8,0.2c-0.2,0.1-0.5,0.1-0.9,0.1c-0.5,0-0.9-0.1-1.3-0.3c-0.4-0.2-0.6-0.5-0.8-0.9
		c-0.2-0.4-0.3-0.8-0.3-1.4c0-0.5,0.1-1,0.3-1.4c0.2-0.4,0.4-0.7,0.8-0.9C116.9,91.2,117.2,91.1,117.7,91.1z M117.7,91.7
		c-0.4,0-0.7,0.1-1,0.4c-0.2,0.3-0.4,0.6-0.4,1.1h2.6c0-0.3,0-0.6-0.1-0.8c-0.1-0.2-0.2-0.4-0.4-0.5C118.2,91.8,118,91.7,117.7,91.7
		z M123.4,91.1c0.6,0,1,0.1,1.3,0.4c0.3,0.3,0.5,0.7,0.5,1.4v3.2h-0.7V93c0-0.4-0.1-0.7-0.3-0.9c-0.2-0.2-0.5-0.3-0.9-0.3
		c-0.6,0-0.9,0.2-1.2,0.5c-0.2,0.3-0.3,0.8-0.3,1.4v2.6H121v-5h0.6l0.1,0.7h0c0.1-0.2,0.2-0.3,0.4-0.4c0.2-0.1,0.3-0.2,0.5-0.3
		C122.9,91.1,123.1,91.1,123.4,91.1z M128.3,95.7c0.1,0,0.2,0,0.4,0c0.1,0,0.2,0,0.3-0.1v0.6c-0.1,0-0.2,0.1-0.4,0.1
		c-0.2,0-0.3,0-0.5,0c-0.3,0-0.5,0-0.7-0.1c-0.2-0.1-0.4-0.3-0.5-0.5c-0.1-0.2-0.2-0.5-0.2-0.9v-3h-0.7v-0.4l0.7-0.3l0.3-1.1h0.5
		v1.2h1.5v0.6h-1.5v2.9c0,0.3,0.1,0.5,0.2,0.7C127.9,95.6,128.1,95.7,128.3,95.7z"/>
	<g>
		<g id="Gauge">
			<path class="st7" d="M81.7,46.3c1.5-0.8,3.1-1.5,4.7-2.1l-0.4-2c-1.7,0.8-3.4,1.8-5,2.8L81.7,46.3z"/>
			<path class="st6" d="M112.2,43.1l4.1-4.6c-2.6-0.6-5.3-0.9-8-1l-2.4,4.4C108.1,42.1,110.2,42.5,112.2,43.1z"/>
			<path class="st7" d="M80.8,46.8l-0.6-1.2c-1.2,0.8-2.4,1.8-3.6,2.7l0.6,0.7C78.4,48.2,79.6,47.5,80.8,46.8z"/>
			<path class="st8" d="M120.1,46.3l6.1-4.3c-2.8-1.4-5.8-2.5-8.8-3.2l-4.2,4.7C115.7,44.2,118,45.1,120.1,46.3z"/>
			<path class="st9" d="M76.4,49.7L75.8,49c-1.1,0.9-2.1,1.9-3.1,2.9l0.4,0.4C74.2,51.3,75.3,50.5,76.4,49.7z"/>
			<path class="st8" d="M127.3,42.5l-6.2,4.4c2.7,1.5,5.2,3.3,7.5,5.3l8-3.1C133.8,46.5,130.7,44.3,127.3,42.5z"/>
			<path class="st9" d="M72,52.7c-1.6,1.7-3,3.5-4.3,5.4c1.4-1.8,3-3.5,4.7-5.1L72,52.7z"/>
			<path class="st10" d="M93.6,39.2l-0.2,3c1.6-0.3,3.1-0.5,4.7-0.6l1-3.6C97.4,38.3,95.5,38.7,93.6,39.2z"/>
			<path class="st6" d="M99.3,41.5c0.5,0,1.1,0,1.6,0c1.3,0,2.6,0.1,3.9,0.2l2.3-4.3c-2.3,0-4.5,0.1-6.8,0.4L99.3,41.5z"/>
			<path class="st10" d="M87.4,43.8c1.6-0.6,3.3-1,5-1.4l0.2-2.8c-1.9,0.6-3.8,1.3-5.6,2.2L87.4,43.8z"/>
		</g>
		<g id="Needle">
			<path class="st1" d="M98.4,61.1C96.7,61,95.2,62.3,95,64s1.2,3.3,2.9,3.4c1.7,0.1,3.3-1.2,3.4-2.9c0,0,0,0,0,0
				C101.5,62.8,100.2,61.3,98.4,61.1z M98.1,65.6c-0.7-0.1-1.2-0.7-1.2-1.4c0.1-0.7,0.7-1.2,1.4-1.2c0.7,0.1,1.2,0.7,1.2,1.4
				c0,0,0,0,0,0C99.4,65.1,98.8,65.6,98.1,65.6L98.1,65.6z"/>
			<path class="st1" d="M108.2,47.5c-0.4,0.3-0.7,0.6-1.1,0.8l-1.4,2.2l-2.8,4.4l-2.8,4.4l-0.7,1.1L99,61c-0.1,0.1-0.1,0.2-0.2,0.3
				c-0.1,0.1-0.1,0.2-0.2,0.3c-0.1,0.4-0.2,0.9-0.3,1.4c0,0,0,0.1,0,0.1c0.4,0.1,0.7,0.3,0.9,0.6c0,0,0.1-0.1,0.1-0.1
				c0.4-0.3,0.7-0.6,1.1-0.8c0.1-0.1,0.1-0.2,0.2-0.3c0-0.1,0.1-0.2,0.2-0.3l0.3-0.6l0.7-1.1l2.8-4.4l2.8-4.4l1.4-2.2
				c0.1-0.4,0.2-0.9,0.3-1.4c0.1-0.5,0.1-0.9,0.2-1.4C108.9,46.9,108.5,47.2,108.2,47.5z"/>
		</g>
	</g>
</g>
<g>
	<polygon class="st8" points="214.5,148.1 214.5,179.1 241.4,163.5 	"/>
	<polygon class="st8" points="214.5,185.7 214.5,216.9 241.7,201.3 	"/>
	<polygon class="st6" points="210.6,178.9 210.6,148.3 184,163.6 	"/>
	<path class="st6" d="M157.2,216.8c5.2,8.4,12.3,15.5,20.7,20.8v-32.7C177.9,204.8,157.2,216.8,157.2,216.8z"/>
	<polygon class="st6" points="210.6,216.8 210.6,185.9 183.9,201.3 	"/>
	<polygon class="st8" points="181.7,235.6 208.8,220.2 181.7,204.5 	"/>
	<polygon class="st6" points="243.5,235.8 243.5,204.8 216.5,220.2 	"/>
	<path class="st6" d="M269.9,213.2c4.5-8.4,7.2-17.8,7.6-27.9l-28.1,16.1L269.9,213.2L269.9,213.2z"/>
	<polygon class="st8" points="247.4,198.1 274.5,182.6 247.4,167 	"/>
	<polygon class="st6" points="243.5,160.3 243.5,129.4 216.7,144.8 	"/>
	<polygon class="st6" points="243.5,197.9 243.5,166.8 216.6,182.4 	"/>
	<polygon class="st6" points="212.5,247.6 212.5,247.6 212.5,247.6 	"/>
	<polygon class="st8" points="181.7,166.8 181.7,198.1 208.8,182.4 	"/>
	<path class="st6" d="M210.6,117.4c-10.3,0.3-20,3-28.6,7.6l28.6,16.4V117.4z"/>
	<polygon class="st8" points="181.7,129.2 181.7,160.4 208.9,144.8 	"/>
	<path class="st6" d="M177.8,127.3c-8.4,5.3-15.4,12.4-20.7,20.8l20.7,11.9V127.3z"/>
	<path class="st8" d="M243.3,125.1c-8.6-4.6-18.4-7.4-28.9-7.7v24.3C214.5,141.6,243.3,125.1,243.3,125.1z"/>
	<path class="st8" d="M147.5,184.7c0.4,10.4,3.1,20.1,7.8,28.7l20.9-12.1L147.5,184.7z"/>
	<path class="st8" d="M155.2,151.5c-4.6,8.5-7.4,18.2-7.8,28.6l28.7-16.5L155.2,151.5z"/>
	<path class="st6" d="M182,240c8.6,4.6,18.3,7.3,28.6,7.6v-23.9L182,240L182,240z"/>
	<path class="st8" d="M267.9,148.2c-5.2-8.4-12.2-15.5-20.5-20.8v32.6C247.4,160.1,267.9,148.2,267.9,148.2z"/>
	<path class="st8" d="M247.4,237.5c8.4-5.3,15.4-12.5,20.6-20.9l-20.6-11.9V237.5L247.4,237.5z"/>
	<path class="st6" d="M277.6,179.9c-0.4-10.2-3.1-19.8-7.7-28.3l-20.7,12L277.6,179.9L277.6,179.9z"/>
	<path class="st8" d="M214.5,247.5c10.3-0.3,20-3,28.6-7.5l-28.6-16.5C214.5,223.5,214.5,247.5,214.5,247.5z"/>
	<polygon class="st6" points="177.8,197.8 177.8,167.1 151.1,182.4 	"/>
</g>
<g>
	<path class="st3" d="M47.1,270.6L47.1,270.6c0-8.4,6.8-15.1,15.1-15.1h79.9c4,0,7.9,1.6,10.7,4.4c2.8,2.8,4.4,6.7,4.4,10.7v60.5
		c0,8.4-6.8,15.1-15.1,15.1H62.2c-8.4,0-15.1-6.8-15.1-15.1V270.6z"/>
	<path class="st4" d="M84,325.1l-2.2-5.9h0c0,0.1,0,0.3,0,0.5c0,0.2,0,0.4,0,0.6c0,0.2,0,0.4,0,0.6v4.2h-0.7v-6.7h1.2l2.1,5.5h0
		l2.1-5.5h1.1v6.7h-0.8v-4.3c0-0.2,0-0.4,0-0.6c0-0.2,0-0.4,0-0.6c0-0.2,0-0.3,0-0.5h0l-2.3,5.9H84z M91.3,320
		c0.4,0,0.8,0.1,1.1,0.3s0.5,0.5,0.7,0.8c0.2,0.3,0.2,0.7,0.2,1.2v0.5h-3.5c0,0.6,0.2,1,0.4,1.3s0.7,0.5,1.2,0.5
		c0.3,0,0.6,0,0.8-0.1c0.2-0.1,0.5-0.1,0.8-0.2v0.7c-0.2,0.1-0.5,0.2-0.8,0.2s-0.5,0.1-0.9,0.1c-0.5,0-0.9-0.1-1.3-0.3
		c-0.4-0.2-0.6-0.5-0.8-0.9c-0.2-0.4-0.3-0.8-0.3-1.4s0.1-1,0.3-1.4c0.2-0.4,0.4-0.7,0.8-0.9C90.5,320.1,90.8,320,91.3,320z
		 M91.3,320.6c-0.4,0-0.7,0.1-1,0.4c-0.2,0.3-0.4,0.6-0.4,1.1h2.6c0-0.3,0-0.6-0.1-0.8c-0.1-0.2-0.2-0.4-0.4-0.5
		C91.8,320.7,91.6,320.6,91.3,320.6z M97.8,323.7c0,0.3-0.1,0.6-0.2,0.8c-0.2,0.2-0.4,0.4-0.7,0.5c-0.3,0.1-0.6,0.2-1,0.2
		c-0.4,0-0.7,0-0.9-0.1c-0.2-0.1-0.5-0.1-0.7-0.2v-0.7c0.2,0.1,0.5,0.2,0.7,0.3c0.3,0.1,0.6,0.1,0.9,0.1c0.4,0,0.7-0.1,0.9-0.2
		c0.2-0.1,0.3-0.3,0.3-0.6c0-0.1,0-0.3-0.1-0.4c-0.1-0.1-0.2-0.2-0.4-0.3c-0.2-0.1-0.4-0.2-0.8-0.3c-0.3-0.1-0.6-0.2-0.8-0.4
		c-0.2-0.1-0.4-0.3-0.5-0.4c-0.1-0.2-0.2-0.4-0.2-0.7c0-0.4,0.2-0.8,0.5-1c0.3-0.2,0.8-0.3,1.4-0.3c0.3,0,0.6,0,0.8,0.1
		c0.3,0.1,0.5,0.1,0.8,0.2l-0.3,0.6c-0.2-0.1-0.4-0.2-0.7-0.2c-0.2-0.1-0.5-0.1-0.7-0.1c-0.3,0-0.6,0.1-0.8,0.2
		c-0.2,0.1-0.3,0.3-0.3,0.5c0,0.2,0,0.3,0.1,0.4c0.1,0.1,0.2,0.2,0.4,0.3c0.2,0.1,0.4,0.2,0.8,0.3c0.3,0.1,0.6,0.2,0.8,0.4
		c0.2,0.1,0.4,0.3,0.5,0.5C97.8,323.2,97.8,323.4,97.8,323.7z M99.8,318v2.1c0,0.1,0,0.2,0,0.4c0,0.1,0,0.2,0,0.3h0
		c0.1-0.2,0.2-0.3,0.4-0.4c0.2-0.1,0.3-0.2,0.5-0.3c0.2-0.1,0.4-0.1,0.6-0.1c0.4,0,0.7,0.1,1,0.2c0.3,0.1,0.5,0.3,0.6,0.6
		c0.1,0.3,0.2,0.6,0.2,1v3.2h-0.7v-3.2c0-0.4-0.1-0.7-0.3-0.9c-0.2-0.2-0.5-0.3-0.9-0.3c-0.4,0-0.7,0.1-0.9,0.2
		c-0.2,0.1-0.4,0.4-0.5,0.6c-0.1,0.3-0.1,0.6-0.1,1v2.6h-0.8V318H99.8z M107.8,325.1l-2.2-5.9h0c0,0.1,0,0.3,0,0.5s0,0.4,0,0.6
		c0,0.2,0,0.4,0,0.6v4.2h-0.7v-6.7h1.2l2.1,5.5h0l2.1-5.5h1.1v6.7h-0.8v-4.3c0-0.2,0-0.4,0-0.6c0-0.2,0-0.4,0-0.6s0-0.3,0-0.5h0
		l-2.3,5.9H107.8z M115,320c0.6,0,1,0.1,1.3,0.4c0.3,0.3,0.4,0.7,0.4,1.3v3.4h-0.5l-0.2-0.7h0c-0.1,0.2-0.3,0.3-0.4,0.5
		c-0.1,0.1-0.3,0.2-0.5,0.3c-0.2,0.1-0.4,0.1-0.7,0.1c-0.3,0-0.6-0.1-0.8-0.2c-0.2-0.1-0.4-0.3-0.6-0.5c-0.1-0.2-0.2-0.5-0.2-0.8
		c0-0.5,0.2-0.9,0.6-1.1c0.4-0.3,1-0.4,1.8-0.4l0.9,0v-0.3c0-0.4-0.1-0.7-0.3-0.9c-0.2-0.2-0.4-0.3-0.8-0.3c-0.3,0-0.5,0-0.8,0.1
		c-0.2,0.1-0.5,0.2-0.7,0.3l-0.2-0.6c0.2-0.1,0.5-0.2,0.8-0.3C114.4,320,114.7,320,115,320z M116,322.6l-0.8,0
		c-0.6,0-1.1,0.1-1.3,0.3c-0.3,0.2-0.4,0.4-0.4,0.8c0,0.3,0.1,0.5,0.2,0.6c0.2,0.1,0.4,0.2,0.7,0.2c0.4,0,0.8-0.1,1.1-0.4
		c0.3-0.2,0.4-0.6,0.4-1.1V322.6z M120.7,320c0.6,0,1.1,0.2,1.5,0.6c0.4,0.4,0.6,1.1,0.6,1.9c0,0.6-0.1,1.1-0.3,1.4
		c-0.2,0.4-0.4,0.7-0.7,0.9c-0.3,0.2-0.7,0.3-1.1,0.3c-0.3,0-0.5,0-0.7-0.1c-0.2-0.1-0.4-0.2-0.5-0.3c-0.1-0.1-0.2-0.2-0.3-0.4H119
		c0,0.1,0,0.3,0,0.4c0,0.2,0,0.3,0,0.4v2h-0.8v-7.2h0.6l0.1,0.7h0c0.1-0.2,0.2-0.3,0.3-0.4c0.1-0.1,0.3-0.2,0.5-0.3
		C120.2,320,120.4,320,120.7,320z M120.6,320.6c-0.4,0-0.6,0.1-0.8,0.2c-0.2,0.1-0.4,0.3-0.5,0.6c-0.1,0.3-0.1,0.6-0.1,1v0.1
		c0,0.4,0,0.8,0.1,1.1c0.1,0.3,0.2,0.5,0.5,0.7s0.5,0.2,0.9,0.2c0.3,0,0.6-0.1,0.8-0.2c0.2-0.2,0.4-0.4,0.5-0.7
		c0.1-0.3,0.2-0.6,0.2-1c0-0.6-0.1-1.1-0.3-1.4C121.4,320.8,121,320.6,120.6,320.6z"/>
	<path class="st4" d="M70.6,331.9c0,0.6-0.1,1.2-0.4,1.6c-0.2,0.4-0.6,0.8-1,1c-0.4,0.2-1,0.3-1.6,0.3h-1.5v-5.7h1.7
		c0.6,0,1.1,0.1,1.5,0.3c0.4,0.2,0.7,0.5,1,0.9C70.5,330.8,70.6,331.3,70.6,331.9z M69.9,331.9c0-0.5-0.1-0.9-0.3-1.3
		c-0.2-0.3-0.4-0.6-0.8-0.7c-0.3-0.2-0.7-0.2-1.2-0.2h-1v4.6h0.8c0.8,0,1.4-0.2,1.8-0.6C69.7,333.3,69.9,332.7,69.9,331.9z
		 M73.5,330.4c0.4,0,0.7,0.1,0.9,0.2c0.3,0.2,0.5,0.4,0.6,0.7c0.1,0.3,0.2,0.6,0.2,1v0.4h-3c0,0.5,0.1,0.9,0.4,1.1
		c0.2,0.3,0.6,0.4,1,0.4c0.3,0,0.5,0,0.7-0.1c0.2-0.1,0.4-0.1,0.7-0.2v0.6c-0.2,0.1-0.4,0.2-0.7,0.2c-0.2,0.1-0.5,0.1-0.8,0.1
		c-0.4,0-0.8-0.1-1.1-0.2c-0.3-0.2-0.5-0.4-0.7-0.7c-0.2-0.3-0.3-0.7-0.2-1.2c0-0.5,0.1-0.9,0.2-1.2c0.2-0.3,0.4-0.6,0.7-0.8
		C72.7,330.5,73.1,330.4,73.5,330.4z M73.5,331c-0.3,0-0.6,0.1-0.8,0.3c-0.2,0.2-0.3,0.5-0.4,0.9h2.3c0-0.2,0-0.5-0.1-0.7
		c-0.1-0.2-0.2-0.3-0.3-0.5C73.9,331,73.7,331,73.5,331z M79.1,333.6c0,0.3-0.1,0.5-0.2,0.7c-0.1,0.2-0.3,0.3-0.6,0.4
		c-0.3,0.1-0.6,0.1-0.9,0.1c-0.3,0-0.5,0-0.8-0.1c-0.2,0-0.4-0.1-0.6-0.2V334c0.2,0.1,0.4,0.2,0.6,0.2c0.2,0.1,0.5,0.1,0.7,0.1
		c0.4,0,0.6-0.1,0.8-0.2c0.2-0.1,0.2-0.3,0.2-0.5c0-0.1,0-0.2-0.1-0.3c-0.1-0.1-0.2-0.2-0.3-0.3c-0.2-0.1-0.4-0.2-0.6-0.3
		c-0.3-0.1-0.5-0.2-0.7-0.3c-0.2-0.1-0.4-0.2-0.5-0.4c-0.1-0.1-0.2-0.3-0.2-0.6c0-0.4,0.1-0.6,0.4-0.8c0.3-0.2,0.7-0.3,1.2-0.3
		c0.3,0,0.5,0,0.7,0.1c0.2,0.1,0.4,0.1,0.6,0.2l-0.2,0.5c-0.2-0.1-0.4-0.1-0.6-0.2c-0.2-0.1-0.4-0.1-0.6-0.1c-0.3,0-0.5,0.1-0.7,0.2
		c-0.2,0.1-0.2,0.2-0.2,0.4c0,0.1,0,0.2,0.1,0.3c0.1,0.1,0.2,0.2,0.4,0.2c0.2,0.1,0.4,0.2,0.7,0.3c0.3,0.1,0.5,0.2,0.7,0.3
		c0.2,0.1,0.3,0.2,0.5,0.4C79,333.2,79.1,333.4,79.1,333.6z M80.8,330.5v4.3h-0.6v-4.3H80.8z M80.4,328.9c0.1,0,0.2,0,0.3,0.1
		c0.1,0.1,0.1,0.2,0.1,0.3c0,0.1,0,0.2-0.1,0.3c-0.1,0.1-0.2,0.1-0.3,0.1c-0.1,0-0.2,0-0.3-0.1c-0.1-0.1-0.1-0.2-0.1-0.3
		c0-0.1,0-0.3,0.1-0.3C80.2,328.9,80.3,328.9,80.4,328.9z M83.3,336.7c-0.6,0-1-0.1-1.3-0.3c-0.3-0.2-0.5-0.5-0.5-0.9
		c0-0.3,0.1-0.5,0.2-0.7c0.2-0.2,0.4-0.3,0.7-0.4c-0.1-0.1-0.2-0.1-0.3-0.2c-0.1-0.1-0.1-0.2-0.1-0.4c0-0.2,0-0.3,0.1-0.4
		c0.1-0.1,0.2-0.2,0.4-0.3c-0.2-0.1-0.4-0.2-0.6-0.5c-0.1-0.2-0.2-0.5-0.2-0.8c0-0.3,0.1-0.6,0.2-0.8c0.1-0.2,0.3-0.4,0.6-0.5
		c0.2-0.1,0.5-0.2,0.9-0.2c0.1,0,0.2,0,0.2,0c0.1,0,0.1,0,0.2,0c0.1,0,0.1,0,0.2,0h1.5v0.4l-0.8,0.1c0.1,0.1,0.2,0.2,0.2,0.4
		c0.1,0.1,0.1,0.3,0.1,0.5c0,0.4-0.1,0.8-0.4,1c-0.3,0.2-0.7,0.4-1.2,0.4c-0.1,0-0.3,0-0.4,0c-0.1,0.1-0.2,0.1-0.3,0.2
		c-0.1,0.1-0.1,0.2-0.1,0.3c0,0.1,0,0.2,0.1,0.2c0.1,0,0.1,0.1,0.2,0.1c0.1,0,0.2,0,0.4,0h0.8c0.5,0,0.8,0.1,1.1,0.3
		c0.2,0.2,0.4,0.5,0.4,0.9c0,0.5-0.2,0.8-0.6,1.1C84.6,336.6,84.1,336.7,83.3,336.7z M83.4,336.2c0.4,0,0.6,0,0.9-0.1
		c0.2-0.1,0.4-0.2,0.5-0.3c0.1-0.1,0.2-0.3,0.2-0.5c0-0.2,0-0.3-0.1-0.4c-0.1-0.1-0.2-0.1-0.3-0.2c-0.1,0-0.3,0-0.5,0h-0.8
		c-0.2,0-0.4,0-0.5,0.1c-0.1,0.1-0.3,0.2-0.3,0.3c-0.1,0.1-0.1,0.3-0.1,0.4c0,0.2,0.1,0.4,0.3,0.5C82.7,336.2,83,336.2,83.4,336.2z
		 M83.5,332.8c0.3,0,0.5-0.1,0.7-0.2c0.2-0.2,0.2-0.4,0.2-0.7c0-0.3-0.1-0.6-0.2-0.7c-0.2-0.2-0.4-0.2-0.7-0.2
		c-0.3,0-0.5,0.1-0.7,0.2c-0.2,0.2-0.2,0.4-0.2,0.7c0,0.3,0.1,0.5,0.2,0.7C83,332.7,83.2,332.8,83.5,332.8z M88.5,330.4
		c0.5,0,0.9,0.1,1.1,0.4c0.3,0.2,0.4,0.6,0.4,1.2v2.8h-0.6V332c0-0.4-0.1-0.6-0.2-0.8c-0.2-0.2-0.4-0.3-0.7-0.3
		c-0.5,0-0.8,0.1-1,0.4c-0.2,0.3-0.3,0.6-0.3,1.2v2.2h-0.6v-4.3H87l0.1,0.6h0c0.1-0.1,0.2-0.3,0.3-0.4c0.1-0.1,0.3-0.2,0.5-0.2
		C88.1,330.5,88.3,330.4,88.5,330.4z M93,330.4c0.4,0,0.7,0.1,0.9,0.2c0.3,0.2,0.5,0.4,0.6,0.7c0.1,0.3,0.2,0.6,0.2,1v0.4h-3
		c0,0.5,0.1,0.9,0.4,1.1c0.2,0.3,0.6,0.4,1,0.4c0.3,0,0.5,0,0.7-0.1c0.2-0.1,0.4-0.1,0.7-0.2v0.6c-0.2,0.1-0.4,0.2-0.7,0.2
		c-0.2,0.1-0.5,0.1-0.8,0.1c-0.4,0-0.8-0.1-1.1-0.2c-0.3-0.2-0.5-0.4-0.7-0.7c-0.2-0.3-0.3-0.7-0.2-1.2c0-0.5,0.1-0.9,0.2-1.2
		c0.2-0.3,0.4-0.6,0.7-0.8C92.3,330.5,92.7,330.4,93,330.4z M93,331c-0.3,0-0.6,0.1-0.8,0.3c-0.2,0.2-0.3,0.5-0.4,0.9h2.3
		c0-0.2,0-0.5-0.1-0.7c-0.1-0.2-0.2-0.3-0.3-0.5C93.5,331,93.3,331,93,331z M97.8,330.4c0.1,0,0.2,0,0.3,0c0.1,0,0.2,0,0.2,0
		l-0.1,0.6c-0.1,0-0.1,0-0.2,0c-0.1,0-0.2,0-0.2,0c-0.2,0-0.3,0-0.5,0.1c-0.1,0.1-0.3,0.2-0.4,0.3c-0.1,0.1-0.2,0.3-0.3,0.5
		c-0.1,0.2-0.1,0.4-0.1,0.6v2.3h-0.7v-4.3h0.5l0.1,0.8h0c0.1-0.2,0.2-0.3,0.3-0.4c0.1-0.1,0.3-0.2,0.4-0.3
		C97.4,330.5,97.6,330.4,97.8,330.4z M99.9,333.9L99.9,333.9c0,0.3-0.1,0.5-0.1,0.7c-0.1,0.2-0.2,0.4-0.2,0.7
		c-0.1,0.2-0.2,0.4-0.2,0.6h-0.5c0.1-0.2,0.1-0.4,0.2-0.7c0.1-0.2,0.1-0.5,0.1-0.7c0-0.2,0.1-0.4,0.1-0.6H99.9z M107.4,329.1l-2,5.7
		h-0.7l-2-5.7h0.7l1.3,3.8c0.1,0.2,0.1,0.3,0.1,0.4c0.1,0.1,0.1,0.3,0.1,0.4c0,0.1,0.1,0.2,0.1,0.4c0-0.1,0-0.2,0.1-0.4
		c0-0.1,0.1-0.3,0.1-0.4c0-0.1,0.1-0.3,0.1-0.5l1.3-3.8H107.4z M108.7,330.5v4.3h-0.6v-4.3H108.7z M108.4,328.9c0.1,0,0.2,0,0.3,0.1
		c0.1,0.1,0.1,0.2,0.1,0.3c0,0.1,0,0.2-0.1,0.3c-0.1,0.1-0.2,0.1-0.3,0.1c-0.1,0-0.2,0-0.3-0.1c-0.1-0.1-0.1-0.2-0.1-0.3
		c0-0.1,0-0.3,0.1-0.3C108.2,328.9,108.3,328.9,108.4,328.9z M112.9,333.6c0,0.3-0.1,0.5-0.2,0.7c-0.1,0.2-0.3,0.3-0.6,0.4
		c-0.3,0.1-0.6,0.1-0.9,0.1c-0.3,0-0.5,0-0.8-0.1c-0.2,0-0.4-0.1-0.6-0.2V334c0.2,0.1,0.4,0.2,0.6,0.2c0.2,0.1,0.5,0.1,0.7,0.1
		c0.4,0,0.6-0.1,0.8-0.2c0.2-0.1,0.2-0.3,0.2-0.5c0-0.1,0-0.2-0.1-0.3c-0.1-0.1-0.2-0.2-0.3-0.3c-0.2-0.1-0.4-0.2-0.6-0.3
		c-0.3-0.1-0.5-0.2-0.7-0.3c-0.2-0.1-0.4-0.2-0.5-0.4c-0.1-0.1-0.2-0.3-0.2-0.6c0-0.4,0.1-0.6,0.4-0.8c0.3-0.2,0.7-0.3,1.2-0.3
		c0.3,0,0.5,0,0.7,0.1c0.2,0.1,0.4,0.1,0.6,0.2l-0.2,0.5c-0.2-0.1-0.4-0.1-0.6-0.2c-0.2-0.1-0.4-0.1-0.6-0.1c-0.3,0-0.5,0.1-0.7,0.2
		c-0.2,0.1-0.2,0.2-0.2,0.4c0,0.1,0,0.2,0.1,0.3c0.1,0.1,0.2,0.2,0.4,0.2c0.2,0.1,0.4,0.2,0.7,0.3c0.3,0.1,0.5,0.2,0.7,0.3
		c0.2,0.1,0.3,0.2,0.5,0.4C112.8,333.2,112.9,333.4,112.9,333.6z M117.4,330.5v4.3h-0.5l-0.1-0.6h0c-0.1,0.2-0.2,0.3-0.4,0.4
		c-0.1,0.1-0.3,0.2-0.5,0.2c-0.2,0.1-0.3,0.1-0.5,0.1c-0.3,0-0.6-0.1-0.9-0.2c-0.2-0.1-0.4-0.3-0.5-0.5c-0.1-0.2-0.2-0.5-0.2-0.9
		v-2.8h0.7v2.8c0,0.4,0.1,0.6,0.2,0.8c0.2,0.2,0.4,0.2,0.8,0.2c0.3,0,0.6-0.1,0.8-0.2c0.2-0.1,0.3-0.3,0.4-0.5
		c0.1-0.2,0.1-0.5,0.1-0.9v-2.2H117.4z M120.4,330.4c0.5,0,0.9,0.1,1.1,0.3c0.2,0.2,0.4,0.6,0.4,1.1v2.9h-0.5l-0.1-0.6h0
		c-0.1,0.2-0.3,0.3-0.4,0.4c-0.1,0.1-0.3,0.2-0.5,0.2c-0.2,0.1-0.4,0.1-0.6,0.1c-0.3,0-0.5,0-0.7-0.1c-0.2-0.1-0.4-0.2-0.5-0.4
		c-0.1-0.2-0.2-0.4-0.2-0.7c0-0.4,0.2-0.8,0.5-1c0.3-0.2,0.9-0.4,1.5-0.4l0.7,0V332c0-0.4-0.1-0.6-0.2-0.8c-0.2-0.1-0.4-0.2-0.7-0.2
		c-0.2,0-0.4,0-0.6,0.1c-0.2,0.1-0.4,0.1-0.6,0.2l-0.2-0.5c0.2-0.1,0.4-0.2,0.7-0.2C119.9,330.5,120.1,330.4,120.4,330.4z
		 M121.3,332.7l-0.7,0c-0.5,0-0.9,0.1-1.1,0.3c-0.2,0.1-0.3,0.4-0.3,0.6c0,0.2,0.1,0.4,0.2,0.5c0.1,0.1,0.3,0.2,0.6,0.2
		c0.4,0,0.7-0.1,0.9-0.3c0.2-0.2,0.4-0.5,0.4-1V332.7z M123.9,334.8h-0.7v-6.1h0.7V334.8z M125.9,330.5v4.3h-0.6v-4.3H125.9z
		 M125.6,328.9c0.1,0,0.2,0,0.3,0.1c0.1,0.1,0.1,0.2,0.1,0.3c0,0.1,0,0.2-0.1,0.3c-0.1,0.1-0.2,0.1-0.3,0.1c-0.1,0-0.2,0-0.3-0.1
		c-0.1-0.1-0.1-0.2-0.1-0.3c0-0.1,0-0.3,0.1-0.3C125.4,328.9,125.5,328.9,125.6,328.9z M130,334.8h-3.1v-0.4l2.3-3.3h-2.2v-0.5h2.9
		v0.5l-2.3,3.3h2.4V334.8z M132.7,330.4c0.4,0,0.7,0.1,0.9,0.2c0.3,0.2,0.5,0.4,0.6,0.7c0.1,0.3,0.2,0.6,0.2,1v0.4h-3
		c0,0.5,0.1,0.9,0.4,1.1c0.2,0.3,0.6,0.4,1,0.4c0.3,0,0.5,0,0.7-0.1c0.2-0.1,0.4-0.1,0.7-0.2v0.6c-0.2,0.1-0.4,0.2-0.7,0.2
		c-0.2,0.1-0.5,0.1-0.8,0.1c-0.4,0-0.8-0.1-1.1-0.2c-0.3-0.2-0.5-0.4-0.7-0.7c-0.2-0.3-0.3-0.7-0.2-1.2c0-0.5,0.1-0.9,0.2-1.2
		c0.2-0.3,0.4-0.6,0.7-0.8C132,330.5,132.3,330.4,132.7,330.4z M132.7,331c-0.3,0-0.6,0.1-0.8,0.3c-0.2,0.2-0.3,0.5-0.4,0.9h2.3
		c0-0.2,0-0.5-0.1-0.7c-0.1-0.2-0.2-0.3-0.3-0.5C133.1,331,132.9,331,132.7,331z M137.5,330.4c0.1,0,0.2,0,0.3,0c0.1,0,0.2,0,0.2,0
		l-0.1,0.6c-0.1,0-0.1,0-0.2,0c-0.1,0-0.2,0-0.2,0c-0.2,0-0.3,0-0.5,0.1c-0.1,0.1-0.3,0.2-0.4,0.3c-0.1,0.1-0.2,0.3-0.3,0.5
		c-0.1,0.2-0.1,0.4-0.1,0.6v2.3h-0.7v-4.3h0.5l0.1,0.8h0c0.1-0.2,0.2-0.3,0.3-0.4c0.1-0.1,0.3-0.2,0.4-0.3
		C137.1,330.5,137.3,330.4,137.5,330.4z"/>
	<g>
		<polygon class="st8" points="104.5,300.4 104.5,301.9 109.7,301.1 		"/>
		<polygon class="st8" points="104.5,302.2 104.5,303.8 109.7,303 		"/>
		<polygon class="st6" points="103.8,301.9 103.8,300.4 98.7,301.1 		"/>
		<path class="st6" d="M93.6,303.7c1,0.4,2.4,0.8,4,1v-1.6L93.6,303.7z"/>
		<polygon class="st6" points="103.8,303.7 103.8,302.2 98.7,303 		"/>
		<polygon class="st8" points="98.3,304.7 103.4,303.9 98.3,303.1 		"/>
		<polygon class="st6" points="110.1,304.7 110.1,303.2 104.9,303.9 		"/>
		<path class="st6" d="M115.2,303.6c0.9-0.4,1.4-0.9,1.5-1.4l-5.4,0.8L115.2,303.6z"/>
		<polygon class="st8" points="110.8,302.8 116,302.1 110.8,301.3 		"/>
		<polygon class="st6" points="110.1,301 110.1,299.4 105,300.2 		"/>
		<polygon class="st6" points="110.1,302.8 110.1,301.3 104.9,302.1 		"/>
		<polygon class="st6" points="104.2,305.3 104.2,305.3 104.2,305.3 		"/>
		<polygon class="st8" points="98.3,301.3 98.3,302.8 103.5,302.1 		"/>
		<path class="st6" d="M103.8,298.8c-1.8,0-3.7,0.1-5.5,0.4l5.5,0.8V298.8z"/>
		<polygon class="st8" points="98.3,299.4 98.3,301 103.5,300.2 		"/>
		<path class="st6" d="M97.5,299.3c-1.6,0.3-3,0.6-3.9,1l4,0.6L97.5,299.3z"/>
		<path class="st8" d="M110.1,299.2c-1.8-0.2-3.7-0.4-5.5-0.4v1.2L110.1,299.2z"/>
		<path class="st8" d="M91.7,302.2c0.1,0.5,0.6,1,1.5,1.4l4-0.6L91.7,302.2z"/>
		<path class="st8" d="M93.2,300.5c-0.9,0.4-1.4,0.9-1.5,1.4l5.5-0.8L93.2,300.5z"/>
		<path class="st6" d="M98.3,304.9c1.8,0.2,3.6,0.4,5.5,0.4v-1.2L98.3,304.9z"/>
		<path class="st8" d="M114.8,300.4c-1-0.4-2.3-0.8-3.9-1v1.6L114.8,300.4z"/>
		<path class="st8" d="M110.8,304.8c1.6-0.3,3-0.6,3.9-1l-3.9-0.6V304.8z"/>
		<path class="st6" d="M116.6,301.9c-0.1-0.5-0.6-1-1.5-1.4l-4,0.6L116.6,301.9z"/>
		<path class="st8" d="M104.5,305.3c1.8,0,3.7-0.1,5.5-0.4l-5.5-0.8V305.3z"/>
		<polygon class="st6" points="97.5,302.8 97.5,301.3 92.4,302.1 		"/>
		<path class="st8" d="M104.1,296c-1-1.9-2-3.6-2.9-5.3c-1.8-3.7-3.6-7.4-5.3-11.2c-0.8-1.9-1.4-3.9-1.1-6c0.4-3.6,3.2-7,6.8-7.9
			c5.1-1.3,9.8,1.3,11.5,6.2c0.7,2.1,0.4,4.2-0.3,6.3c-1.5,4.2-3.5,8.2-5.5,12.2c-0.9,1.7-1.8,3.3-2.7,5
			C104.5,295.5,104.3,295.6,104.1,296z M104.2,281.4c3.7,0,6.8-3.2,6.8-6.8c0-3.7-3.2-6.8-7-6.8c-3.5,0-6.7,3.2-6.7,6.7
			C97.4,278.4,100.4,281.5,104.2,281.4z"/>
	</g>
</g>
<g>
	<path class="st3" d="M304.1,152.2L304.1,152.2c0-8.4,6.8-15.1,15.1-15.1h79.9c4,0,7.9,1.6,10.7,4.4c2.8,2.8,4.4,6.7,4.4,10.7v60.5
		c0,8.4-6.8,15.1-15.1,15.1h-79.9c-8.4,0-15.1-6.8-15.1-15.1V152.2z"/>
	<path class="st4" d="M325.1,200.2c0.9,0,1.5,0.2,1.9,0.5c0.4,0.3,0.6,0.8,0.6,1.4c0,0.3,0,0.6-0.1,0.8c-0.1,0.2-0.2,0.5-0.5,0.7
		c-0.2,0.2-0.5,0.3-0.8,0.5c-0.3,0.1-0.7,0.2-1.2,0.2h-0.8v2.6h-0.8v-6.7H325.1z M325,200.9h-0.9v2.7h0.7c0.4,0,0.8,0,1.1-0.1
		c0.3-0.1,0.5-0.2,0.6-0.4c0.1-0.2,0.2-0.5,0.2-0.8c0-0.4-0.1-0.8-0.4-1S325.6,200.9,325,200.9z M333.1,204.4c0,0.4-0.1,0.8-0.2,1.1
		c-0.1,0.3-0.3,0.6-0.5,0.8c-0.2,0.2-0.4,0.4-0.7,0.5c-0.3,0.1-0.6,0.2-1,0.2c-0.3,0-0.6-0.1-0.9-0.2c-0.3-0.1-0.5-0.3-0.7-0.5
		c-0.2-0.2-0.4-0.5-0.5-0.8c-0.1-0.3-0.2-0.7-0.2-1.1c0-0.6,0.1-1,0.3-1.4c0.2-0.4,0.5-0.7,0.8-0.9c0.3-0.2,0.8-0.3,1.2-0.3
		c0.4,0,0.8,0.1,1.2,0.3c0.3,0.2,0.6,0.5,0.8,0.9C333,203.3,333.1,203.8,333.1,204.4z M329.3,204.4c0,0.4,0.1,0.7,0.2,1
		c0.1,0.3,0.3,0.5,0.5,0.7c0.2,0.2,0.5,0.2,0.9,0.2c0.3,0,0.6-0.1,0.8-0.2c0.2-0.2,0.4-0.4,0.5-0.7c0.1-0.3,0.2-0.7,0.2-1
		c0-0.4-0.1-0.8-0.2-1c-0.1-0.3-0.3-0.5-0.5-0.7c-0.2-0.2-0.5-0.2-0.8-0.2c-0.5,0-0.9,0.2-1.2,0.5
		C329.4,203.3,329.3,203.7,329.3,204.4z M335.2,206.9h-0.8v-7.1h0.8V206.9z M337.5,201.9v5h-0.8v-5H337.5z M337.2,200
		c0.1,0,0.2,0,0.3,0.1c0.1,0.1,0.1,0.2,0.1,0.4c0,0.2,0,0.3-0.1,0.4c-0.1,0.1-0.2,0.1-0.3,0.1c-0.1,0-0.2,0-0.3-0.1
		c-0.1-0.1-0.1-0.2-0.1-0.4c0-0.2,0-0.3,0.1-0.4C336.9,200,337,200,337.2,200z M341.1,206.9c-0.4,0-0.8-0.1-1.2-0.3
		s-0.6-0.5-0.8-0.8c-0.2-0.4-0.3-0.9-0.3-1.4c0-0.6,0.1-1.1,0.3-1.5c0.2-0.4,0.5-0.7,0.8-0.8c0.4-0.2,0.8-0.3,1.2-0.3
		c0.2,0,0.5,0,0.7,0.1c0.2,0,0.4,0.1,0.6,0.2l-0.2,0.6c-0.2-0.1-0.3-0.1-0.5-0.2c-0.2-0.1-0.4-0.1-0.6-0.1c-0.3,0-0.6,0.1-0.9,0.2
		c-0.2,0.1-0.4,0.4-0.5,0.7c-0.1,0.3-0.2,0.6-0.2,1c0,0.4,0.1,0.8,0.2,1c0.1,0.3,0.3,0.5,0.5,0.7c0.2,0.1,0.5,0.2,0.8,0.2
		c0.3,0,0.5,0,0.7-0.1c0.2-0.1,0.4-0.1,0.6-0.2v0.7c-0.2,0.1-0.4,0.1-0.6,0.2C341.7,206.9,341.4,206.9,341.1,206.9z M342.8,201.9
		h0.8l1.1,2.9c0.1,0.2,0.1,0.3,0.2,0.5c0.1,0.2,0.1,0.3,0.2,0.5c0,0.1,0.1,0.3,0.1,0.4h0c0-0.1,0.1-0.3,0.2-0.6
		c0.1-0.2,0.2-0.5,0.3-0.8l1-2.9h0.8l-2.2,5.7c-0.1,0.3-0.2,0.6-0.4,0.8c-0.1,0.2-0.3,0.4-0.5,0.5s-0.5,0.2-0.8,0.2
		c-0.1,0-0.3,0-0.4,0c-0.1,0-0.2,0-0.3-0.1v-0.6c0.1,0,0.1,0,0.2,0c0.1,0,0.2,0,0.3,0c0.2,0,0.3,0,0.5-0.1c0.1-0.1,0.3-0.2,0.4-0.3
		c0.1-0.1,0.2-0.3,0.3-0.5l0.3-0.7L342.8,201.9z M349.1,205.8L349.1,205.8c0,0.3-0.1,0.6-0.1,0.8s-0.2,0.5-0.3,0.8
		c-0.1,0.3-0.2,0.5-0.3,0.7h-0.6c0.1-0.2,0.1-0.5,0.2-0.8c0.1-0.3,0.1-0.5,0.2-0.8c0.1-0.3,0.1-0.5,0.1-0.7H349.1z M360.8,200.2
		l-1.8,6.7h-0.8l-1.3-4.5c0-0.1-0.1-0.2-0.1-0.4c0-0.1-0.1-0.3-0.1-0.4c0-0.1-0.1-0.2-0.1-0.3c0-0.1,0-0.2,0-0.2c0,0,0,0.1,0,0.2
		c0,0.1,0,0.2-0.1,0.3c0,0.1,0,0.2-0.1,0.4c0,0.1-0.1,0.2-0.1,0.4l-1.3,4.5h-0.8l-1.8-6.7h0.8l1.1,4.2c0,0.1,0.1,0.3,0.1,0.4
		c0,0.1,0.1,0.3,0.1,0.4c0,0.1,0.1,0.2,0.1,0.4c0,0.1,0.1,0.2,0.1,0.3c0-0.1,0-0.2,0.1-0.4c0-0.1,0-0.3,0.1-0.4
		c0-0.1,0.1-0.3,0.1-0.4c0-0.1,0.1-0.3,0.1-0.4l1.2-4.1h0.8l1.2,4.2c0,0.1,0.1,0.3,0.1,0.4c0,0.1,0.1,0.3,0.1,0.4
		c0,0.1,0.1,0.2,0.1,0.4c0,0.1,0,0.2,0.1,0.3c0-0.1,0-0.3,0.1-0.5c0-0.2,0.1-0.3,0.1-0.5c0-0.2,0.1-0.4,0.1-0.6l1.1-4.2H360.8z
		 M366,204.4c0,0.4-0.1,0.8-0.2,1.1c-0.1,0.3-0.3,0.6-0.5,0.8c-0.2,0.2-0.4,0.4-0.7,0.5c-0.3,0.1-0.6,0.2-1,0.2
		c-0.3,0-0.6-0.1-0.9-0.2c-0.3-0.1-0.5-0.3-0.7-0.5c-0.2-0.2-0.4-0.5-0.5-0.8c-0.1-0.3-0.2-0.7-0.2-1.1c0-0.6,0.1-1,0.3-1.4
		c0.2-0.4,0.5-0.7,0.8-0.9c0.3-0.2,0.8-0.3,1.2-0.3c0.4,0,0.8,0.1,1.2,0.3c0.3,0.2,0.6,0.5,0.8,0.9C365.9,203.3,366,203.8,366,204.4
		z M362.2,204.4c0,0.4,0.1,0.7,0.2,1c0.1,0.3,0.3,0.5,0.5,0.7c0.2,0.2,0.5,0.2,0.9,0.2c0.3,0,0.6-0.1,0.8-0.2
		c0.2-0.2,0.4-0.4,0.5-0.7c0.1-0.3,0.2-0.7,0.2-1c0-0.4-0.1-0.8-0.2-1c-0.1-0.3-0.3-0.5-0.5-0.7c-0.2-0.2-0.5-0.2-0.8-0.2
		c-0.5,0-0.9,0.2-1.2,0.5C362.4,203.3,362.2,203.7,362.2,204.4z M369.6,201.8c0.1,0,0.2,0,0.3,0c0.1,0,0.2,0,0.3,0l-0.1,0.7
		c-0.1,0-0.2,0-0.3,0c-0.1,0-0.2,0-0.3,0c-0.2,0-0.4,0-0.6,0.1c-0.2,0.1-0.3,0.2-0.5,0.3c-0.1,0.1-0.2,0.3-0.3,0.5
		c-0.1,0.2-0.1,0.4-0.1,0.7v2.7h-0.8v-5h0.6l0.1,0.9h0c0.1-0.2,0.2-0.3,0.4-0.5c0.1-0.2,0.3-0.3,0.5-0.4
		C369.2,201.8,369.4,201.8,369.6,201.8z M371.9,199.8v3.7c0,0.1,0,0.3,0,0.5c0,0.2,0,0.3,0,0.5h0c0.1-0.1,0.2-0.2,0.3-0.3
		c0.1-0.2,0.2-0.3,0.3-0.4l1.7-1.8h0.9l-2,2.1l2.2,2.9h-0.9l-1.8-2.4l-0.6,0.5v1.8h-0.8v-7.1H371.9z M378.3,202.4H377v4.4h-0.8v-4.4
		h-0.9v-0.4l0.9-0.2v-0.3c0-0.4,0.1-0.8,0.2-1c0.1-0.3,0.3-0.5,0.5-0.6c0.2-0.1,0.5-0.2,0.9-0.2c0.2,0,0.4,0,0.5,0.1
		c0.2,0,0.3,0.1,0.4,0.1l-0.2,0.6c-0.1,0-0.2-0.1-0.3-0.1c-0.1,0-0.3,0-0.4,0c-0.3,0-0.5,0.1-0.6,0.3c-0.1,0.2-0.2,0.5-0.2,0.9v0.4
		h1.2V202.4z M380,206.9h-0.8v-7.1h0.8V206.9z M385.9,204.4c0,0.4-0.1,0.8-0.2,1.1c-0.1,0.3-0.3,0.6-0.5,0.8
		c-0.2,0.2-0.4,0.4-0.7,0.5c-0.3,0.1-0.6,0.2-1,0.2c-0.3,0-0.6-0.1-0.9-0.2c-0.3-0.1-0.5-0.3-0.7-0.5c-0.2-0.2-0.4-0.5-0.5-0.8
		c-0.1-0.3-0.2-0.7-0.2-1.1c0-0.6,0.1-1,0.3-1.4c0.2-0.4,0.5-0.7,0.8-0.9c0.3-0.2,0.8-0.3,1.2-0.3c0.4,0,0.8,0.1,1.2,0.3
		c0.3,0.2,0.6,0.5,0.8,0.9C385.8,203.3,385.9,203.8,385.9,204.4z M382.1,204.4c0,0.4,0.1,0.7,0.2,1c0.1,0.3,0.3,0.5,0.5,0.7
		c0.2,0.2,0.5,0.2,0.9,0.2c0.3,0,0.6-0.1,0.8-0.2c0.2-0.2,0.4-0.4,0.5-0.7c0.1-0.3,0.2-0.7,0.2-1c0-0.4-0.1-0.8-0.2-1
		c-0.1-0.3-0.3-0.5-0.5-0.7c-0.2-0.2-0.5-0.2-0.8-0.2c-0.5,0-0.9,0.2-1.2,0.5C382.2,203.3,382.1,203.7,382.1,204.4z M391.2,206.8
		l-0.9-2.9c0-0.1-0.1-0.2-0.1-0.4c0-0.1-0.1-0.2-0.1-0.3c0-0.1-0.1-0.2-0.1-0.3c0-0.1,0-0.2-0.1-0.2h0c0,0.1,0,0.2,0,0.2
		c0,0.1,0,0.2-0.1,0.3c0,0.1-0.1,0.2-0.1,0.4c0,0.1-0.1,0.2-0.1,0.4l-0.9,2.9h-0.9l-1.4-5h0.8l0.7,2.8c0.1,0.2,0.1,0.4,0.1,0.5
		c0,0.2,0.1,0.3,0.1,0.5s0.1,0.3,0.1,0.4h0c0-0.1,0-0.2,0.1-0.3c0-0.1,0-0.2,0.1-0.3c0-0.1,0.1-0.2,0.1-0.4c0-0.1,0.1-0.2,0.1-0.3
		l0.9-2.9h0.8l0.9,2.9c0.1,0.1,0.1,0.3,0.1,0.5c0,0.2,0.1,0.3,0.1,0.5c0,0.1,0.1,0.3,0.1,0.4h0c0-0.1,0-0.2,0.1-0.4
		c0-0.2,0.1-0.3,0.1-0.5c0-0.2,0.1-0.4,0.1-0.6l0.7-2.8h0.8l-1.4,5H391.2z M395.3,205.8L395.3,205.8c0,0.3-0.1,0.6-0.1,0.8
		c-0.1,0.2-0.2,0.5-0.3,0.8c-0.1,0.3-0.2,0.5-0.3,0.7H394c0.1-0.2,0.1-0.5,0.2-0.8c0.1-0.3,0.1-0.5,0.2-0.8c0.1-0.3,0.1-0.5,0.1-0.7
		H395.3z"/>
	<path class="st11" d="M304.1,152.2L304.1,152.2c0-8.4,6.8-15.1,15.1-15.1h79.9c4,0,7.9,1.6,10.7,4.4c2.8,2.8,4.4,6.7,4.4,10.7v60.5
		c0,8.4-6.8,15.1-15.1,15.1h-79.9c-8.4,0-15.1-6.8-15.1-15.1V152.2z"/>
	<path class="st11" d="M312.8,197.9h92.8v13.6h-92.8V197.9z"/>
	<path class="st4" d="M336.7,214.4h2.3v3.2c-0.3,0.1-0.7,0.2-1.1,0.3c-0.4,0.1-0.8,0.1-1.2,0.1c-0.7,0-1.3-0.1-1.8-0.4
		c-0.5-0.3-0.8-0.7-1.1-1.2c-0.2-0.5-0.4-1.1-0.4-1.8c0-0.7,0.1-1.3,0.4-1.8c0.3-0.5,0.7-0.9,1.2-1.2c0.5-0.3,1.1-0.4,1.9-0.4
		c0.4,0,0.7,0,1,0.1c0.3,0.1,0.6,0.2,0.9,0.3l-0.3,0.7c-0.2-0.1-0.5-0.2-0.8-0.3c-0.3-0.1-0.6-0.1-0.9-0.1c-0.5,0-1,0.1-1.4,0.3
		c-0.4,0.2-0.7,0.5-0.9,1c-0.2,0.4-0.3,0.9-0.3,1.5c0,0.6,0.1,1,0.3,1.5c0.2,0.4,0.5,0.7,0.8,1c0.4,0.2,0.9,0.3,1.5,0.3
		c0.3,0,0.6,0,0.8,0c0.2,0,0.4-0.1,0.6-0.1v-2h-1.6V214.4z M344.9,215.4c0,0.4-0.1,0.8-0.2,1.1c-0.1,0.3-0.3,0.6-0.5,0.8
		c-0.2,0.2-0.4,0.4-0.7,0.5c-0.3,0.1-0.6,0.2-1,0.2c-0.3,0-0.6-0.1-0.9-0.2c-0.3-0.1-0.5-0.3-0.7-0.5c-0.2-0.2-0.4-0.5-0.5-0.8
		c-0.1-0.3-0.2-0.7-0.2-1.1c0-0.6,0.1-1,0.3-1.4c0.2-0.4,0.5-0.7,0.8-0.9c0.3-0.2,0.8-0.3,1.2-0.3c0.4,0,0.8,0.1,1.2,0.3
		c0.3,0.2,0.6,0.5,0.8,0.9C344.8,214.3,344.9,214.8,344.9,215.4z M341.1,215.4c0,0.4,0.1,0.7,0.2,1c0.1,0.3,0.3,0.5,0.5,0.7
		c0.2,0.2,0.5,0.2,0.9,0.2c0.3,0,0.6-0.1,0.8-0.2c0.2-0.2,0.4-0.4,0.5-0.7c0.1-0.3,0.2-0.7,0.2-1c0-0.4-0.1-0.8-0.2-1
		c-0.1-0.3-0.3-0.5-0.5-0.7c-0.2-0.2-0.5-0.2-0.8-0.2c-0.5,0-0.9,0.2-1.2,0.5C341.2,214.3,341.1,214.7,341.1,215.4z M347.3,217.9
		l-1.9-5h0.8l1.1,3c0.1,0.2,0.2,0.4,0.2,0.7c0.1,0.2,0.1,0.4,0.2,0.6h0c0-0.2,0.1-0.4,0.2-0.6c0.1-0.2,0.2-0.5,0.2-0.7l1.1-3h0.8
		l-1.9,5H347.3z M352.8,212.8c0.4,0,0.8,0.1,1.1,0.3c0.3,0.2,0.5,0.5,0.7,0.8c0.2,0.3,0.2,0.7,0.2,1.2v0.5h-3.5c0,0.6,0.2,1,0.4,1.3
		c0.3,0.3,0.7,0.5,1.2,0.5c0.3,0,0.6,0,0.8-0.1c0.2-0.1,0.5-0.1,0.8-0.2v0.7c-0.2,0.1-0.5,0.2-0.8,0.2c-0.2,0.1-0.5,0.1-0.9,0.1
		c-0.5,0-0.9-0.1-1.3-0.3c-0.4-0.2-0.6-0.5-0.8-0.9c-0.2-0.4-0.3-0.8-0.3-1.4c0-0.5,0.1-1,0.3-1.4c0.2-0.4,0.4-0.7,0.8-0.9
		C351.9,212.9,352.3,212.8,352.8,212.8z M352.8,213.4c-0.4,0-0.7,0.1-1,0.4c-0.2,0.3-0.4,0.6-0.4,1.1h2.6c0-0.3,0-0.6-0.1-0.8
		c-0.1-0.2-0.2-0.4-0.4-0.5C353.3,213.5,353,213.4,352.8,213.4z M358.4,212.8c0.1,0,0.2,0,0.3,0c0.1,0,0.2,0,0.3,0l-0.1,0.7
		c-0.1,0-0.2,0-0.3,0c-0.1,0-0.2,0-0.3,0c-0.2,0-0.4,0-0.6,0.1c-0.2,0.1-0.3,0.2-0.5,0.3c-0.1,0.1-0.2,0.3-0.3,0.5
		c-0.1,0.2-0.1,0.4-0.1,0.7v2.7h-0.8v-5h0.6l0.1,0.9h0c0.1-0.2,0.2-0.3,0.4-0.5s0.3-0.3,0.5-0.4
		C357.9,212.8,358.1,212.8,358.4,212.8z M362.3,212.8c0.6,0,1,0.1,1.3,0.4c0.3,0.3,0.5,0.7,0.5,1.4v3.2h-0.7v-3.2
		c0-0.4-0.1-0.7-0.3-0.9c-0.2-0.2-0.5-0.3-0.9-0.3c-0.6,0-0.9,0.2-1.2,0.5c-0.2,0.3-0.3,0.8-0.3,1.4v2.6h-0.8v-5h0.6l0.1,0.7h0
		c0.1-0.2,0.2-0.3,0.4-0.4c0.2-0.1,0.3-0.2,0.5-0.3C361.8,212.8,362,212.8,362.3,212.8z M367.5,212.8c0.6,0,1,0.1,1.3,0.4
		c0.3,0.3,0.4,0.7,0.4,1.3v3.4h-0.5l-0.2-0.7h0c-0.1,0.2-0.3,0.3-0.4,0.5c-0.1,0.1-0.3,0.2-0.5,0.3c-0.2,0.1-0.4,0.1-0.7,0.1
		c-0.3,0-0.6-0.1-0.8-0.2c-0.2-0.1-0.4-0.3-0.6-0.5c-0.1-0.2-0.2-0.5-0.2-0.8c0-0.5,0.2-0.9,0.6-1.1c0.4-0.3,1-0.4,1.8-0.4l0.9,0
		v-0.3c0-0.4-0.1-0.7-0.3-0.9c-0.2-0.2-0.4-0.3-0.8-0.3c-0.3,0-0.5,0-0.8,0.1c-0.2,0.1-0.5,0.2-0.7,0.3l-0.2-0.6
		c0.2-0.1,0.5-0.2,0.8-0.3C366.9,212.8,367.2,212.8,367.5,212.8z M368.5,215.4l-0.8,0c-0.6,0-1.1,0.1-1.3,0.3
		c-0.2,0.2-0.4,0.4-0.4,0.8c0,0.3,0.1,0.5,0.2,0.6c0.2,0.1,0.4,0.2,0.7,0.2c0.4,0,0.8-0.1,1.1-0.4c0.3-0.2,0.4-0.6,0.4-1.1V215.4z
		 M373.2,212.8c0.6,0,1,0.1,1.3,0.4c0.3,0.3,0.5,0.7,0.5,1.4v3.2h-0.7v-3.2c0-0.4-0.1-0.7-0.3-0.9c-0.2-0.2-0.5-0.3-0.9-0.3
		c-0.6,0-0.9,0.2-1.2,0.5c-0.2,0.3-0.3,0.8-0.3,1.4v2.6h-0.8v-5h0.6l0.1,0.7h0c0.1-0.2,0.2-0.3,0.4-0.4c0.2-0.1,0.3-0.2,0.5-0.3
		C372.7,212.8,372.9,212.8,373.2,212.8z M378.5,217.9c-0.4,0-0.8-0.1-1.2-0.3s-0.6-0.5-0.8-0.8c-0.2-0.4-0.3-0.9-0.3-1.4
		c0-0.6,0.1-1.1,0.3-1.5c0.2-0.4,0.5-0.7,0.8-0.8c0.4-0.2,0.8-0.3,1.2-0.3c0.2,0,0.5,0,0.7,0.1c0.2,0,0.4,0.1,0.6,0.2l-0.2,0.6
		c-0.2-0.1-0.3-0.1-0.5-0.2c-0.2-0.1-0.4-0.1-0.6-0.1c-0.3,0-0.6,0.1-0.9,0.2c-0.2,0.1-0.4,0.4-0.5,0.7c-0.1,0.3-0.2,0.6-0.2,1
		c0,0.4,0.1,0.8,0.2,1c0.1,0.3,0.3,0.5,0.5,0.7c0.2,0.1,0.5,0.2,0.8,0.2c0.3,0,0.5,0,0.7-0.1c0.2-0.1,0.4-0.1,0.6-0.2v0.7
		c-0.2,0.1-0.4,0.1-0.6,0.2C379,217.9,378.8,217.9,378.5,217.9z M382.9,212.8c0.4,0,0.8,0.1,1.1,0.3c0.3,0.2,0.5,0.5,0.7,0.8
		c0.2,0.3,0.2,0.7,0.2,1.2v0.5h-3.5c0,0.6,0.2,1,0.4,1.3c0.3,0.3,0.7,0.5,1.2,0.5c0.3,0,0.6,0,0.8-0.1c0.2-0.1,0.5-0.1,0.8-0.2v0.7
		c-0.2,0.1-0.5,0.2-0.8,0.2c-0.2,0.1-0.5,0.1-0.9,0.1c-0.5,0-0.9-0.1-1.3-0.3c-0.4-0.2-0.6-0.5-0.8-0.9c-0.2-0.4-0.3-0.8-0.3-1.4
		c0-0.5,0.1-1,0.3-1.4c0.2-0.4,0.4-0.7,0.8-0.9C382.1,212.9,382.5,212.8,382.9,212.8z M382.9,213.4c-0.4,0-0.7,0.1-1,0.4
		c-0.2,0.3-0.4,0.6-0.4,1.1h2.6c0-0.3,0-0.6-0.1-0.8c-0.1-0.2-0.2-0.4-0.4-0.5C383.4,213.5,383.2,213.4,382.9,213.4z"/>
	<g>
		<path class="st6" d="M346.7,167.1c0-3.2,2.6-5.8,5.8-5.8c3.2,0,5.8,2.6,5.8,5.8c0,3.2-2.6,5.8-5.8,5.8
			C349.3,172.9,346.7,170.3,346.7,167.1z M352.5,171.3c2.3,0,4.2-1.9,4.2-4.2c0-2.3-1.9-4.2-4.2-4.2c-2.3,0-4.1,1.9-4.1,4.2
			C348.3,169.5,350.2,171.3,352.5,171.3z"/>
		<path class="st6" d="M352.5,158.7c-3.2,0-5.8-2.6-5.8-5.7c0-3.2,2.6-5.8,5.7-5.8c3.2,0,5.8,2.6,5.8,5.7
			C358.2,156.1,355.7,158.7,352.5,158.7z M348.3,152.9c0,2.3,1.9,4.2,4.2,4.2c2.3,0,4.2-1.9,4.2-4.2c0-2.3-1.9-4.1-4.2-4.1
			C350.1,148.7,348.3,150.6,348.3,152.9z"/>
		<path class="st12" d="M352.4,175.6c3.2,0,5.8,2.6,5.8,5.8c0,3.2-2.6,5.8-5.8,5.8c-3.2,0-5.8-2.6-5.8-5.8
			C346.7,178.2,349.3,175.6,352.4,175.6z M352.5,185.6c2.3,0,4.2-1.9,4.2-4.2c0-2.3-1.9-4.1-4.2-4.2c-2.3,0-4.2,1.9-4.2,4.2
			C348.3,183.7,350.2,185.6,352.5,185.6z"/>
		<path class="st6" d="M368.4,152.3c-2,0-4,0-5.9,0c-0.6,0-1-0.3-1-0.8c0-0.5,0.3-0.9,0.7-0.9c0.1,0,0.2,0,0.4,0c3.9,0,7.8,0,11.7,0
			c0.2,0,0.4,0,0.5,0c0.4,0.1,0.6,0.4,0.6,0.8c0,0.4-0.3,0.7-0.7,0.8c-0.2,0-0.3,0-0.5,0C372.3,152.3,370.4,152.3,368.4,152.3z"/>
		<path class="st12" d="M368.4,180.8c-2,0-4,0-6,0c-0.6,0-1-0.3-1-0.8c0-0.5,0.3-0.9,0.8-0.9c0.1,0,0.2,0,0.4,0c3.9,0,7.8,0,11.7,0
			c0.1,0,0.3,0,0.4,0c0.4,0.1,0.7,0.4,0.7,0.9c0,0.4-0.3,0.8-0.7,0.8c-0.1,0-0.3,0-0.4,0C372.3,180.8,370.4,180.8,368.4,180.8z"/>
		<path class="st6" d="M368.4,164.8c2,0,4,0,6.1,0c0.7,0,1.2,0.7,0.8,1.3c-0.2,0.3-0.5,0.4-0.9,0.4c-3,0-6.1,0-9.1,0
			c-0.9,0-1.9,0-2.8,0c-0.6,0-1-0.3-1-0.9c0-0.5,0.4-0.9,1-0.9C364.4,164.8,366.4,164.8,368.4,164.8z"/>
		<path class="st8" d="M367.6,153.5c1.7,0,3.4,0,5.2,0c0.5,0,0.9,0.2,1,0.6c0.1,0.5-0.2,1-0.7,1.1c-0.1,0-0.2,0-0.3,0
			c-3.5,0-7,0-10.5,0c-0.8,0-1.2-0.7-0.9-1.3c0.2-0.4,0.5-0.5,0.9-0.5C364.2,153.5,365.9,153.5,367.6,153.5z"/>
		<path class="st1" d="M367.6,183.8c-1.7,0-3.5,0-5.2,0c-0.7,0-1.2-0.6-0.9-1.2c0.2-0.4,0.5-0.5,1-0.5c1.8,0,3.5,0,5.3,0
			c1.7,0,3.4,0,5.1,0c0.6,0,1,0.3,1,0.8c0.1,0.6-0.3,1-1,1C371.1,183.8,369.3,183.8,367.6,183.8z"/>
		<path class="st8" d="M367.6,169.5c-1.8,0-3.5,0-5.3,0c-0.7,0-1.1-0.6-0.9-1.2c0.2-0.4,0.5-0.5,0.9-0.5c1.1,0,2.1,0,3.2,0
			c2.4,0,4.9,0,7.3,0c0.5,0,0.9,0.2,1,0.7c0.1,0.6-0.3,1-0.9,1C371.1,169.5,369.4,169.5,367.6,169.5z"/>
		<path class="st1" d="M351.7,167.5c-0.3-0.4-0.6-0.7-0.8-0.9c-0.4-0.4-0.8-0.3-1.2,0c-0.3,0.3-0.3,0.8,0,1.2c0.5,0.5,0.9,1,1.4,1.4
			c0.4,0.4,0.8,0.4,1.2,0c0.9-0.9,1.9-1.9,2.8-2.8c0.1-0.1,0.2-0.3,0.3-0.5c0.1-0.4-0.1-0.7-0.5-0.8c-0.3-0.2-0.7-0.1-1,0.2
			C353.3,165.9,352.6,166.6,351.7,167.5z"/>
		<path class="st8" d="M351.7,167.5c0.8-0.9,1.5-1.6,2.3-2.3c0.3-0.3,0.6-0.3,1-0.2c0.3,0.2,0.5,0.5,0.5,0.8c0,0.2-0.1,0.4-0.3,0.5
			c-0.9,0.9-1.9,1.9-2.8,2.8c-0.4,0.4-0.8,0.4-1.2,0c-0.5-0.5-1-0.9-1.4-1.4c-0.3-0.4-0.3-0.9,0-1.2c0.3-0.3,0.8-0.3,1.2,0
			C351.2,166.8,351.4,167.1,351.7,167.5z"/>
		<path class="st8" d="M351.7,153.2c0.8-0.8,1.5-1.5,2.2-2.2c0.5-0.5,0.9-0.5,1.3-0.1c0.4,0.4,0.3,0.9-0.1,1.3
			c-0.9,0.9-1.8,1.8-2.7,2.7c-0.5,0.5-0.9,0.5-1.4,0c-0.4-0.4-0.9-0.9-1.3-1.3c-0.4-0.4-0.4-0.9,0-1.2c0.4-0.3,0.8-0.3,1.2,0.1
			C351.2,152.6,351.4,152.9,351.7,153.2z"/>
		<path class="st1" d="M352.5,182.5c-0.4,0.5-0.7,0.8-1.1,1.2c-0.4,0.4-0.9,0.4-1.3,0c-0.4-0.4-0.3-0.8,0-1.2c0.3-0.3,0.7-0.7,1-1
			c0,0,0,0,0-0.1c-0.3-0.3-0.7-0.7-1-1c-0.4-0.4-0.5-0.9-0.1-1.3c0.4-0.4,0.9-0.4,1.3,0.1c0.3,0.3,0.6,0.7,1,1.1
			c0.3-0.4,0.6-0.7,0.9-1c0.6-0.6,1-0.6,1.4-0.2c0.4,0.4,0.3,0.9-0.2,1.4c-0.3,0.3-0.6,0.5-1,0.9c0.5,0.4,0.8,0.7,1.2,1.1
			c0.4,0.4,0.4,0.9,0.1,1.3c-0.4,0.4-0.9,0.4-1.3-0.1C353.2,183.3,352.9,183,352.5,182.5z"/>
	</g>
</g>
<g>
	<path class="st4" d="M44.2,201c-0.4,0-0.7,0.1-1,0.2c-0.3,0.1-0.5,0.3-0.8,0.5c-0.2,0.2-0.4,0.5-0.5,0.9c-0.1,0.3-0.2,0.7-0.2,1.1
		c0,0.6,0.1,1,0.2,1.5c0.2,0.4,0.4,0.7,0.8,1c0.4,0.2,0.8,0.3,1.3,0.3c0.3,0,0.6,0,0.8-0.1c0.3-0.1,0.5-0.1,0.8-0.2v0.7
		c-0.2,0.1-0.5,0.1-0.8,0.2c-0.3,0.1-0.6,0.1-1,0.1c-0.7,0-1.2-0.1-1.7-0.4c-0.4-0.3-0.8-0.7-1-1.2c-0.2-0.5-0.3-1.1-0.3-1.8
		c0-0.5,0.1-1,0.2-1.4c0.1-0.4,0.4-0.8,0.6-1.1c0.3-0.3,0.6-0.5,1-0.7c0.4-0.2,0.8-0.2,1.4-0.2c0.3,0,0.7,0,1,0.1
		c0.3,0.1,0.6,0.2,0.9,0.3l-0.3,0.7c-0.2-0.1-0.5-0.2-0.7-0.2S44.5,201,44.2,201z M47.9,207h-0.8v-7.1h0.8V207z M53.8,204.5
		c0,0.4-0.1,0.8-0.2,1.1s-0.3,0.6-0.5,0.8s-0.4,0.4-0.7,0.5c-0.3,0.1-0.6,0.2-1,0.2c-0.3,0-0.6-0.1-0.9-0.2
		c-0.3-0.1-0.5-0.3-0.7-0.5s-0.4-0.5-0.5-0.8s-0.2-0.7-0.2-1.1c0-0.6,0.1-1,0.3-1.4s0.5-0.7,0.8-0.9s0.8-0.3,1.2-0.3
		c0.4,0,0.8,0.1,1.2,0.3c0.3,0.2,0.6,0.5,0.8,0.9C53.7,203.5,53.8,204,53.8,204.5z M50,204.5c0,0.4,0.1,0.7,0.2,1
		c0.1,0.3,0.3,0.5,0.5,0.7c0.2,0.2,0.5,0.2,0.9,0.2c0.3,0,0.6-0.1,0.8-0.2c0.2-0.2,0.4-0.4,0.5-0.7c0.1-0.3,0.2-0.7,0.2-1
		c0-0.4-0.1-0.8-0.2-1c-0.1-0.3-0.3-0.5-0.5-0.7c-0.2-0.2-0.5-0.2-0.8-0.2c-0.5,0-0.9,0.2-1.2,0.5C50.1,203.4,50,203.9,50,204.5z
		 M59.3,202v5h-0.6l-0.1-0.7h0c-0.1,0.2-0.2,0.3-0.4,0.4s-0.4,0.2-0.6,0.3c-0.2,0.1-0.4,0.1-0.6,0.1c-0.4,0-0.7-0.1-1-0.2
		c-0.3-0.1-0.5-0.3-0.6-0.6c-0.1-0.3-0.2-0.6-0.2-1V202h0.8v3.2c0,0.4,0.1,0.7,0.3,0.9c0.2,0.2,0.5,0.3,0.9,0.3
		c0.4,0,0.7-0.1,0.9-0.2c0.2-0.1,0.4-0.4,0.5-0.6c0.1-0.3,0.2-0.6,0.2-1V202H59.3z M62.6,207.1c-0.6,0-1.1-0.2-1.5-0.6
		c-0.4-0.4-0.5-1.1-0.5-1.9s0.2-1.5,0.6-1.9c0.4-0.4,0.9-0.7,1.5-0.7c0.3,0,0.5,0,0.7,0.1c0.2,0.1,0.4,0.2,0.5,0.3
		c0.1,0.1,0.3,0.2,0.4,0.4h0c0-0.1,0-0.2,0-0.4s0-0.3,0-0.4v-2H65v7.1h-0.6l-0.1-0.7h0c-0.1,0.1-0.2,0.3-0.4,0.4
		c-0.1,0.1-0.3,0.2-0.5,0.3S62.9,207.1,62.6,207.1z M62.7,206.5c0.5,0,0.9-0.2,1.1-0.5c0.2-0.3,0.3-0.8,0.3-1.4v-0.1
		c0-0.6-0.1-1.1-0.3-1.5c-0.2-0.3-0.6-0.5-1.2-0.5c-0.5,0-0.8,0.2-1,0.5c-0.2,0.4-0.3,0.8-0.3,1.5c0,0.6,0.1,1.1,0.3,1.4
		C61.9,206.3,62.3,206.5,62.7,206.5z M74.3,207h-0.9l-3.6-5.6h0c0,0.1,0,0.3,0,0.5c0,0.2,0,0.4,0,0.6c0,0.2,0,0.4,0,0.6v3.8h-0.7
		v-6.7H70l3.6,5.6h0c0-0.1,0-0.3,0-0.5c0-0.2,0-0.4,0-0.6c0-0.2,0-0.4,0-0.6v-3.9h0.7V207z M77.9,202c0.6,0,1,0.1,1.3,0.4
		c0.3,0.3,0.4,0.7,0.4,1.3v3.4h-0.5l-0.2-0.7h0c-0.1,0.2-0.3,0.3-0.4,0.5c-0.1,0.1-0.3,0.2-0.5,0.3c-0.2,0.1-0.4,0.1-0.7,0.1
		c-0.3,0-0.6-0.1-0.8-0.2c-0.2-0.1-0.4-0.3-0.6-0.5c-0.1-0.2-0.2-0.5-0.2-0.8c0-0.5,0.2-0.9,0.6-1.1c0.4-0.3,1-0.4,1.8-0.4l0.9,0
		v-0.3c0-0.4-0.1-0.7-0.3-0.9s-0.4-0.3-0.8-0.3c-0.3,0-0.5,0-0.8,0.1c-0.2,0.1-0.5,0.2-0.7,0.3l-0.2-0.6c0.2-0.1,0.5-0.2,0.8-0.3
		C77.2,202,77.6,202,77.9,202z M78.9,204.6l-0.8,0c-0.6,0-1.1,0.1-1.3,0.3c-0.2,0.2-0.4,0.4-0.4,0.8c0,0.3,0.1,0.5,0.2,0.6
		c0.2,0.1,0.4,0.2,0.7,0.2c0.4,0,0.8-0.1,1.1-0.4c0.3-0.2,0.4-0.6,0.4-1.1V204.6z M82.8,206.5c0.1,0,0.2,0,0.4,0
		c0.1,0,0.2,0,0.3-0.1v0.6c-0.1,0-0.2,0.1-0.4,0.1c-0.2,0-0.3,0-0.5,0c-0.3,0-0.5,0-0.7-0.1c-0.2-0.1-0.4-0.2-0.5-0.5
		c-0.1-0.2-0.2-0.5-0.2-0.9v-3h-0.7v-0.4l0.7-0.3l0.3-1.1H82v1.2h1.5v0.6H82v2.9c0,0.3,0.1,0.5,0.2,0.7
		C82.4,206.4,82.6,206.5,82.8,206.5z M85.3,202v5h-0.8v-5H85.3z M84.9,200.2c0.1,0,0.2,0,0.3,0.1c0.1,0.1,0.1,0.2,0.1,0.4
		c0,0.2,0,0.3-0.1,0.4c-0.1,0.1-0.2,0.1-0.3,0.1c-0.1,0-0.2,0-0.3-0.1c-0.1-0.1-0.1-0.2-0.1-0.4c0-0.2,0-0.3,0.1-0.4
		C84.7,200.2,84.8,200.2,84.9,200.2z M88,207l-1.9-5h0.8l1.1,3c0.1,0.2,0.2,0.4,0.2,0.7c0.1,0.2,0.1,0.4,0.2,0.6h0
		c0-0.2,0.1-0.4,0.2-0.6s0.2-0.5,0.2-0.7l1.1-3h0.8l-1.9,5H88z M93.4,202c0.4,0,0.8,0.1,1.1,0.3c0.3,0.2,0.5,0.5,0.7,0.8
		c0.2,0.3,0.2,0.7,0.2,1.2v0.5H92c0,0.6,0.2,1,0.4,1.3s0.7,0.5,1.2,0.5c0.3,0,0.6,0,0.8-0.1c0.2-0.1,0.5-0.1,0.8-0.2v0.7
		c-0.2,0.1-0.5,0.2-0.8,0.2s-0.5,0.1-0.9,0.1c-0.5,0-0.9-0.1-1.3-0.3c-0.4-0.2-0.6-0.5-0.8-0.9c-0.2-0.4-0.3-0.8-0.3-1.4
		s0.1-1,0.3-1.4c0.2-0.4,0.4-0.7,0.8-0.9C92.6,202.1,93,202,93.4,202z M93.4,202.6c-0.4,0-0.7,0.1-1,0.4c-0.2,0.3-0.4,0.6-0.4,1.1
		h2.6c0-0.3,0-0.6-0.1-0.8c-0.1-0.2-0.2-0.4-0.4-0.5C94,202.6,93.7,202.6,93.4,202.6z"/>
	<path class="st4" d="M55.7,212c-0.4,0-0.7,0.1-1,0.2c-0.3,0.1-0.5,0.3-0.8,0.5c-0.2,0.2-0.4,0.5-0.5,0.9c-0.1,0.3-0.2,0.7-0.2,1.1
		c0,0.6,0.1,1,0.2,1.5c0.2,0.4,0.4,0.7,0.8,1c0.4,0.2,0.8,0.3,1.3,0.3c0.3,0,0.6,0,0.8-0.1c0.3-0.1,0.5-0.1,0.8-0.2v0.7
		c-0.2,0.1-0.5,0.1-0.8,0.2c-0.3,0.1-0.6,0.1-1,0.1c-0.7,0-1.2-0.1-1.7-0.4c-0.4-0.3-0.8-0.7-1-1.2c-0.2-0.5-0.3-1.1-0.3-1.8
		c0-0.5,0.1-1,0.2-1.4s0.4-0.8,0.6-1.1c0.3-0.3,0.6-0.5,1-0.7c0.4-0.2,0.8-0.2,1.4-0.2c0.3,0,0.7,0,1,0.1c0.3,0.1,0.6,0.2,0.9,0.3
		l-0.3,0.7c-0.2-0.1-0.5-0.2-0.7-0.2S56,212,55.7,212z M60.5,213c0.6,0,1,0.1,1.3,0.4c0.3,0.3,0.4,0.7,0.4,1.3v3.4h-0.5l-0.2-0.7h0
		c-0.1,0.2-0.3,0.3-0.4,0.5c-0.1,0.1-0.3,0.2-0.5,0.3c-0.2,0.1-0.4,0.1-0.7,0.1c-0.3,0-0.6-0.1-0.8-0.2c-0.2-0.1-0.4-0.3-0.6-0.5
		c-0.1-0.2-0.2-0.5-0.2-0.8c0-0.5,0.2-0.9,0.6-1.1c0.4-0.3,1-0.4,1.8-0.4l0.9,0v-0.3c0-0.4-0.1-0.7-0.3-0.9s-0.4-0.3-0.8-0.3
		c-0.3,0-0.5,0-0.8,0.1c-0.2,0.1-0.5,0.2-0.7,0.3l-0.2-0.6c0.2-0.1,0.5-0.2,0.8-0.3C59.8,213,60.2,213,60.5,213z M61.5,215.6l-0.8,0
		c-0.6,0-1.1,0.1-1.3,0.3c-0.2,0.2-0.4,0.4-0.4,0.8c0,0.3,0.1,0.5,0.2,0.6c0.2,0.1,0.4,0.2,0.7,0.2c0.4,0,0.8-0.1,1.1-0.4
		c0.3-0.2,0.4-0.6,0.4-1.1V215.6z M65.4,217.5c0.1,0,0.2,0,0.4,0c0.1,0,0.2,0,0.3-0.1v0.6c-0.1,0-0.2,0.1-0.4,0.1
		c-0.2,0-0.3,0-0.5,0c-0.3,0-0.5,0-0.7-0.1c-0.2-0.1-0.4-0.2-0.5-0.5c-0.1-0.2-0.2-0.5-0.2-0.9v-3h-0.7v-0.4l0.7-0.3l0.3-1.1h0.5
		v1.2h1.5v0.6h-1.5v2.9c0,0.3,0.1,0.5,0.2,0.7C65,217.4,65.2,217.5,65.4,217.5z M69,213c0.6,0,1,0.1,1.3,0.4
		c0.3,0.3,0.4,0.7,0.4,1.3v3.4h-0.5l-0.2-0.7h0c-0.1,0.2-0.3,0.3-0.4,0.5c-0.1,0.1-0.3,0.2-0.5,0.3c-0.2,0.1-0.4,0.1-0.7,0.1
		c-0.3,0-0.6-0.1-0.8-0.2c-0.2-0.1-0.4-0.3-0.6-0.5c-0.1-0.2-0.2-0.5-0.2-0.8c0-0.5,0.2-0.9,0.6-1.1c0.4-0.3,1-0.4,1.8-0.4l0.9,0
		v-0.3c0-0.4-0.1-0.7-0.3-0.9s-0.4-0.3-0.8-0.3c-0.3,0-0.5,0-0.8,0.1c-0.2,0.1-0.5,0.2-0.7,0.3l-0.2-0.6c0.2-0.1,0.5-0.2,0.8-0.3
		S68.7,213,69,213z M70,215.6l-0.8,0c-0.6,0-1.1,0.1-1.3,0.3c-0.2,0.2-0.4,0.4-0.4,0.8c0,0.3,0.1,0.5,0.2,0.6
		c0.2,0.1,0.4,0.2,0.7,0.2c0.4,0,0.8-0.1,1.1-0.4c0.3-0.2,0.4-0.6,0.4-1.1V215.6z M73.1,218h-0.8v-7.1h0.8V218z M78.9,215.5
		c0,0.4-0.1,0.8-0.2,1.1c-0.1,0.3-0.3,0.6-0.5,0.8c-0.2,0.2-0.4,0.4-0.7,0.5c-0.3,0.1-0.6,0.2-1,0.2c-0.3,0-0.6-0.1-0.9-0.2
		c-0.3-0.1-0.5-0.3-0.7-0.5c-0.2-0.2-0.4-0.5-0.5-0.8c-0.1-0.3-0.2-0.7-0.2-1.1c0-0.6,0.1-1,0.3-1.4s0.5-0.7,0.8-0.9
		s0.8-0.3,1.2-0.3c0.4,0,0.8,0.1,1.2,0.3c0.3,0.2,0.6,0.5,0.8,0.9C78.9,214.5,78.9,215,78.9,215.5z M75.1,215.5c0,0.4,0.1,0.7,0.2,1
		c0.1,0.3,0.3,0.5,0.5,0.7c0.2,0.2,0.5,0.2,0.9,0.2c0.3,0,0.6-0.1,0.8-0.2c0.2-0.2,0.4-0.4,0.5-0.7c0.1-0.3,0.2-0.7,0.2-1
		c0-0.4-0.1-0.8-0.2-1c-0.1-0.3-0.3-0.5-0.5-0.7c-0.2-0.2-0.5-0.2-0.8-0.2c-0.5,0-0.9,0.2-1.2,0.5C75.3,214.4,75.1,214.9,75.1,215.5
		z M81.6,220.3c-0.7,0-1.2-0.1-1.5-0.4c-0.4-0.2-0.5-0.6-0.5-1c0-0.3,0.1-0.6,0.3-0.8c0.2-0.2,0.5-0.4,0.8-0.4
		c-0.1-0.1-0.2-0.2-0.3-0.3s-0.1-0.3-0.1-0.4c0-0.2,0-0.3,0.1-0.5c0.1-0.1,0.3-0.3,0.5-0.4c-0.3-0.1-0.5-0.3-0.6-0.5
		c-0.2-0.3-0.2-0.6-0.2-0.9c0-0.4,0.1-0.7,0.2-0.9c0.2-0.2,0.4-0.4,0.7-0.6s0.6-0.2,1-0.2c0.1,0,0.2,0,0.3,0c0.1,0,0.2,0,0.3,0
		c0.1,0,0.2,0,0.2,0h1.7v0.5l-0.9,0.1c0.1,0.1,0.2,0.3,0.2,0.4s0.1,0.3,0.1,0.5c0,0.5-0.2,0.9-0.5,1.2c-0.3,0.3-0.8,0.4-1.4,0.4
		c-0.1,0-0.3,0-0.4,0c-0.1,0.1-0.3,0.2-0.3,0.3c-0.1,0.1-0.1,0.2-0.1,0.3c0,0.1,0,0.2,0.1,0.2c0.1,0.1,0.2,0.1,0.3,0.1
		c0.1,0,0.2,0,0.4,0h0.9c0.5,0,1,0.1,1.2,0.3c0.3,0.2,0.4,0.6,0.4,1c0,0.6-0.2,1-0.7,1.3C83.2,220.1,82.5,220.3,81.6,220.3z
		 M81.7,219.7c0.4,0,0.7,0,1-0.1c0.3-0.1,0.5-0.2,0.6-0.4c0.1-0.2,0.2-0.3,0.2-0.5c0-0.2,0-0.3-0.1-0.5c-0.1-0.1-0.2-0.2-0.4-0.2
		c-0.2,0-0.4-0.1-0.6-0.1h-0.9c-0.2,0-0.4,0-0.6,0.1c-0.2,0.1-0.3,0.2-0.4,0.3s-0.1,0.3-0.1,0.5c0,0.3,0.1,0.5,0.3,0.6
		C80.9,219.6,81.3,219.7,81.7,219.7z M81.9,215.7c0.4,0,0.6-0.1,0.8-0.3c0.2-0.2,0.3-0.5,0.3-0.8c0-0.4-0.1-0.7-0.3-0.8
		s-0.5-0.3-0.8-0.3c-0.4,0-0.6,0.1-0.8,0.3c-0.2,0.2-0.3,0.5-0.3,0.8c0,0.3,0.1,0.6,0.3,0.8C81.3,215.6,81.5,215.7,81.9,215.7z"/>
	<path class="st2" d="M13.1,152.2L13.1,152.2c0-8.4,6.8-15.1,15.1-15.1h79.9c4,0,7.9,1.6,10.7,4.4c2.8,2.8,4.4,6.7,4.4,10.7v60.5
		c0,8.4-6.8,15.1-15.1,15.1H28.3c-8.4,0-15.1-6.8-15.1-15.1V152.2z"/>
	<path class="st11" d="M32.2,198.1h72v26.3h-72V198.1z"/>
	<g>
		<g>
			<g>
				<defs>
					<rect id="SVGID_1_" x="45.7" y="149.8" width="45" height="40"/>
				</defs>
				<clipPath id="SVGID_2_">
					<use xlink:href="#SVGID_1_"  style="overflow:visible;"/>
				</clipPath>
				<g class="st13">
					<path class="st6" d="M68.2,189.8c-6.2,0-12.5,0-19,0c-1.8,0-3-1-3.5-2.5c0-0.2,0-0.8,0-1c0-6.5,0-12.8,0-19.2
						c0-0.5,0-1,0.2-1.5c1.5-5,3.2-9.8,4.8-14.8c0.2-1,0.5-1,1.5-1c10.5,0,21.2,0,32,0c1,0,1,0,1.2,1c1.5,4.5,3,9,4.5,13.5
						c0.2,0.5,0.2,0.8,0.5,1.2c0,0.5,0.2,1,0.2,1.5c0,6.5,0,13,0,19.2c0,2-1.5,3.5-3.5,3.5C81,189.8,74.7,189.8,68.2,189.8z
						 M74.7,163.6c4.5,0,8.8,0,13.3,0c0-0.2,0-0.2,0-0.5c-1.2-3.8-2.5-7.5-3.8-11.2c-0.2-0.5-0.5-0.5-0.8-0.5c-10.2,0-20.3,0-30.5,0
						c-0.5,0-0.8,0.2-0.8,0.5c-1.2,3.8-2.2,7.5-3.5,11c0,0.2,0,0.2-0.2,0.5c4.5,0,9,0,13.5,0c0.2,1.8,0.8,2.2,2.2,2.2
						c2.8,0,5.5,0,8.2,0C74,165.8,74.5,165.3,74.7,163.6z M62,177.8c0.2-0.5,0.2-1,0.5-1.5c0.2-1-0.2-2-1.2-2.2s-1.7,0.2-2.2,1.2
						c-0.2,1.2-0.8,2.5-1,3.8s0.5,2.2,1.8,2.2c5.8,0,11.5,0,17.2,0c1.2,0,2-1,1.8-2c-0.5-1.5-1-2.8-1.5-4.2c-0.2-0.8-1-1-1.8-1
						s-1.2,0.5-1.5,1.2c0,0.5,0,0.8,0,1.2s0.2,1,0.5,1.2C70.5,177.8,66.2,177.8,62,177.8z"/>
					<path class="st8" d="M68,160.1c5.2,0,10.5,0,15.5,0c0.2,0,0.5,0,0.8,0.2s0.5,0.5,0.2,0.8c0,0.5-0.2,0.8-0.8,0.8
						c-0.8,0-1.8,0-2.5,0c-9.5,0-19.2,0-28.8,0h-0.2c-0.5,0-1-0.2-1-0.8s0.2-0.8,1-0.8c2.5,0,5.2,0,7.8,0
						C62.7,160.1,65.5,160.1,68,160.1z"/>
					<path class="st8" d="M68,156.8c4.8,0,9.8,0,14.5,0c0.2,0,0.5,0,0.8,0c0.5,0,0.8,0.2,0.8,0.8s-0.2,0.8-0.8,0.8
						c-0.2,0-0.2,0-0.5,0c-9.8,0-19.5,0-29.5,0c-0.2,0-0.5,0-0.8,0c0-0.2-0.3-0.5-0.3-0.8s0.2-0.5,0.8-0.8c0.2,0,0.5,0,0.5,0
						C58.2,156.8,63.2,156.8,68,156.8z"/>
					<path class="st8" d="M68,154.8c-4.5,0-9,0-13.5,0c-0.2,0-0.2,0-0.5,0c-0.2,0-0.5-0.2-0.5-0.8s0.2-0.8,0.8-0.8
						c0.2,0,0.2,0,0.5,0c9,0,18,0,27,0c0.2,0,0.2,0,0.5,0c0.5,0,0.8,0.2,0.8,0.8s-0.2,0.8-0.8,0.8c-0.2,0-0.2,0-0.5,0
						C77,154.8,72.5,154.8,68,154.8z"/>
				</g>
			</g>
		</g>
		<path class="st1" d="M59.7,181.3c5.8,0,11.5,0,17.2,0c1.2,0,2-1,1.8-2c-0.5-1.5-1-2.8-1.5-4.2c-0.2-0.8-1-1-1.8-1
			s-1.2,0.5-1.5,1.2c0,0.5,0,0.8,0,1.2s0.2,1,0.5,1.2c-4.2,0-8.5,0-12.8,0c0.2-0.5,0.2-1,0.5-1.5c0.2-1-0.2-2-1.2-2.2
			s-1.8,0.3-2.2,1.2c-0.2,1.2-0.8,2.5-1,3.8S58.5,181.3,59.7,181.3z"/>
	</g>
</g>
<g>
	<path class="st3" d="M267.1,270.6L267.1,270.6c0-8.4,6.8-15.1,15.1-15.1h79.9c4,0,7.9,1.6,10.7,4.4s4.4,6.7,4.4,10.7v60.5
		c0,8.4-6.8,15.1-15.1,15.1h-79.9c-8.4,0-15.1-6.8-15.1-15.1V270.6z"/>
	<path class="st4" d="M306.3,326.6h-0.9l-3.6-5.6h0c0,0.1,0,0.3,0,0.5c0,0.2,0,0.4,0,0.6c0,0.2,0,0.4,0,0.6v3.8h-0.7v-6.7h0.9
		l3.6,5.6h0c0-0.1,0-0.3,0-0.5c0-0.2,0-0.4,0-0.6c0-0.2,0-0.4,0-0.6v-3.9h0.7V326.6z M308.8,321.6v5H308v-5H308.8z M308.4,319.7
		c0.1,0,0.2,0,0.3,0.1c0.1,0.1,0.1,0.2,0.1,0.4c0,0.2,0,0.3-0.1,0.4c-0.1,0.1-0.2,0.1-0.3,0.1c-0.1,0-0.2,0-0.3-0.1
		c-0.1-0.1-0.1-0.2-0.1-0.4c0-0.2,0-0.3,0.1-0.4C308.2,319.8,308.3,319.7,308.4,319.7z M311.8,328.8c-0.7,0-1.2-0.1-1.5-0.4
		c-0.4-0.2-0.5-0.6-0.5-1c0-0.3,0.1-0.6,0.3-0.8s0.5-0.4,0.8-0.4c-0.1-0.1-0.2-0.2-0.3-0.3s-0.1-0.3-0.1-0.4c0-0.2,0-0.3,0.1-0.5
		c0.1-0.1,0.3-0.3,0.5-0.4c-0.3-0.1-0.5-0.3-0.6-0.5c-0.2-0.3-0.2-0.6-0.2-0.9c0-0.4,0.1-0.7,0.2-0.9c0.2-0.2,0.4-0.4,0.7-0.6
		c0.3-0.1,0.6-0.2,1-0.2c0.1,0,0.2,0,0.3,0c0.1,0,0.2,0,0.3,0c0.1,0,0.2,0,0.2,0h1.7v0.5l-0.9,0.1c0.1,0.1,0.2,0.3,0.2,0.4
		c0.1,0.2,0.1,0.3,0.1,0.5c0,0.5-0.2,0.9-0.5,1.2c-0.3,0.3-0.8,0.4-1.4,0.4c-0.1,0-0.3,0-0.4,0c-0.1,0.1-0.3,0.2-0.3,0.3
		c-0.1,0.1-0.1,0.2-0.1,0.3c0,0.1,0,0.2,0.1,0.2c0.1,0.1,0.2,0.1,0.3,0.1c0.1,0,0.2,0,0.4,0h0.9c0.5,0,1,0.1,1.2,0.3
		c0.3,0.2,0.4,0.6,0.4,1c0,0.6-0.2,1-0.7,1.3C313.3,328.7,312.6,328.8,311.8,328.8z M311.8,328.3c0.4,0,0.7,0,1-0.1
		c0.3-0.1,0.5-0.2,0.6-0.4s0.2-0.3,0.2-0.5c0-0.2,0-0.3-0.1-0.5c-0.1-0.1-0.2-0.2-0.4-0.2c-0.2,0-0.4-0.1-0.6-0.1h-0.9
		c-0.2,0-0.4,0-0.6,0.1c-0.2,0.1-0.3,0.2-0.4,0.3c-0.1,0.1-0.1,0.3-0.1,0.5c0,0.3,0.1,0.5,0.3,0.6
		C311.1,328.2,311.4,328.3,311.8,328.3z M312,324.3c0.4,0,0.6-0.1,0.8-0.3c0.2-0.2,0.3-0.5,0.3-0.8c0-0.4-0.1-0.7-0.3-0.8
		s-0.5-0.3-0.8-0.3s-0.6,0.1-0.8,0.3c-0.2,0.2-0.3,0.5-0.3,0.8c0,0.3,0.1,0.6,0.3,0.8C311.4,324.2,311.7,324.3,312,324.3z
		 M316.2,319.5v2.1c0,0.1,0,0.2,0,0.4c0,0.1,0,0.2,0,0.3h0c0.1-0.2,0.2-0.3,0.4-0.4c0.2-0.1,0.3-0.2,0.5-0.3
		c0.2-0.1,0.4-0.1,0.6-0.1c0.4,0,0.7,0.1,1,0.2c0.3,0.1,0.5,0.3,0.6,0.6c0.1,0.3,0.2,0.6,0.2,1v3.2h-0.7v-3.2c0-0.4-0.1-0.7-0.3-0.9
		c-0.2-0.2-0.5-0.3-0.9-0.3c-0.4,0-0.7,0.1-0.9,0.2c-0.2,0.1-0.4,0.4-0.5,0.6c-0.1,0.3-0.1,0.6-0.1,1v2.6h-0.8v-7.1H316.2z
		 M322.8,326.1c0.1,0,0.2,0,0.4,0c0.1,0,0.2,0,0.3-0.1v0.6c-0.1,0-0.2,0.1-0.4,0.1c-0.2,0-0.3,0-0.5,0c-0.3,0-0.5,0-0.7-0.1
		c-0.2-0.1-0.4-0.2-0.5-0.5c-0.1-0.2-0.2-0.5-0.2-0.9v-3h-0.7v-0.4l0.7-0.3l0.3-1.1h0.5v1.2h1.5v0.6H322v2.9c0,0.3,0.1,0.5,0.2,0.7
		S322.5,326.1,322.8,326.1z M325.2,319.5v2.1c0,0.1,0,0.2,0,0.4c0,0.1,0,0.2,0,0.3h0c0.1-0.2,0.2-0.3,0.4-0.4
		c0.2-0.1,0.3-0.2,0.5-0.3c0.2-0.1,0.4-0.1,0.6-0.1c0.4,0,0.7,0.1,1,0.2c0.3,0.1,0.5,0.3,0.6,0.6c0.1,0.3,0.2,0.6,0.2,1v3.2h-0.7
		v-3.2c0-0.4-0.1-0.7-0.3-0.9c-0.2-0.2-0.5-0.3-0.9-0.3c-0.4,0-0.7,0.1-0.9,0.2c-0.2,0.1-0.4,0.4-0.5,0.6c-0.1,0.3-0.1,0.6-0.1,1
		v2.6h-0.8v-7.1H325.2z M332.1,321.5c0.6,0,1,0.1,1.3,0.4c0.3,0.3,0.4,0.7,0.4,1.3v3.4h-0.5l-0.2-0.7h0c-0.1,0.2-0.3,0.3-0.4,0.5
		c-0.1,0.1-0.3,0.2-0.5,0.3c-0.2,0.1-0.4,0.1-0.7,0.1c-0.3,0-0.6-0.1-0.8-0.2c-0.2-0.1-0.4-0.3-0.6-0.5c-0.1-0.2-0.2-0.5-0.2-0.8
		c0-0.5,0.2-0.9,0.6-1.1c0.4-0.3,1-0.4,1.8-0.4l0.9,0v-0.3c0-0.4-0.1-0.7-0.3-0.9c-0.2-0.2-0.4-0.3-0.8-0.3c-0.3,0-0.5,0-0.8,0.1
		c-0.2,0.1-0.5,0.2-0.7,0.3l-0.2-0.6c0.2-0.1,0.5-0.2,0.8-0.3C331.5,321.6,331.8,321.5,332.1,321.5z M333.1,324.1l-0.8,0
		c-0.6,0-1.1,0.1-1.3,0.3c-0.2,0.2-0.4,0.4-0.4,0.8c0,0.3,0.1,0.5,0.2,0.6c0.2,0.1,0.4,0.2,0.7,0.2c0.4,0,0.8-0.1,1.1-0.4
		c0.3-0.2,0.4-0.6,0.4-1.1V324.1z M339.5,326.6l-0.9-2.9c0-0.1-0.1-0.2-0.1-0.4c0-0.1-0.1-0.2-0.1-0.3c0-0.1-0.1-0.2-0.1-0.3
		s0-0.2-0.1-0.2h0c0,0.1,0,0.2,0,0.2s0,0.2-0.1,0.3c0,0.1-0.1,0.2-0.1,0.4c0,0.1-0.1,0.2-0.1,0.4l-0.9,2.9h-0.9l-1.4-5h0.8l0.7,2.8
		c0.1,0.2,0.1,0.4,0.1,0.5c0,0.2,0.1,0.3,0.1,0.5s0.1,0.3,0.1,0.4h0c0-0.1,0-0.2,0.1-0.3c0-0.1,0-0.2,0.1-0.3c0-0.1,0.1-0.2,0.1-0.4
		c0-0.1,0.1-0.2,0.1-0.3l0.9-2.9h0.8l0.9,2.9c0.1,0.1,0.1,0.3,0.1,0.5s0.1,0.3,0.1,0.5c0,0.1,0.1,0.3,0.1,0.4h0c0-0.1,0-0.2,0.1-0.4
		c0-0.2,0.1-0.3,0.1-0.5c0-0.2,0.1-0.4,0.1-0.6l0.7-2.8h0.8l-1.4,5H339.5z M343.4,319.5v3.7c0,0.1,0,0.3,0,0.5c0,0.2,0,0.3,0,0.5h0
		c0.1-0.1,0.2-0.2,0.3-0.3c0.1-0.2,0.2-0.3,0.3-0.4l1.7-1.8h0.9l-2,2.1l2.2,2.9h-0.9l-1.8-2.4l-0.6,0.5v1.8h-0.8v-7.1H343.4z"/>
	<path class="st4" d="M282.6,333.4c0,0.6-0.1,1.2-0.4,1.6c-0.2,0.4-0.6,0.8-1,1c-0.4,0.2-1,0.3-1.6,0.3h-1.5v-5.7h1.7
		c0.6,0,1.1,0.1,1.5,0.3c0.4,0.2,0.8,0.5,1,0.9C282.5,332.3,282.6,332.8,282.6,333.4z M281.9,333.4c0-0.5-0.1-0.9-0.3-1.3
		c-0.2-0.3-0.4-0.6-0.8-0.7c-0.3-0.2-0.7-0.2-1.2-0.2h-1v4.6h0.8c0.8,0,1.4-0.2,1.8-0.6C281.7,334.8,281.9,334.2,281.9,333.4z
		 M284.4,332v4.3h-0.6V332H284.4z M284.1,330.4c0.1,0,0.2,0,0.3,0.1c0.1,0.1,0.1,0.2,0.1,0.3c0,0.1,0,0.2-0.1,0.3
		c-0.1,0.1-0.2,0.1-0.3,0.1c-0.1,0-0.2,0-0.3-0.1c-0.1-0.1-0.1-0.2-0.1-0.3c0-0.1,0-0.3,0.1-0.3C283.9,330.5,284,330.4,284.1,330.4z
		 M288.6,335.1c0,0.3-0.1,0.5-0.2,0.7c-0.1,0.2-0.3,0.3-0.6,0.4c-0.2,0.1-0.6,0.1-0.9,0.1c-0.3,0-0.5,0-0.8-0.1
		c-0.2,0-0.4-0.1-0.6-0.2v-0.6c0.2,0.1,0.4,0.2,0.6,0.2c0.2,0.1,0.5,0.1,0.7,0.1c0.4,0,0.6-0.1,0.8-0.2c0.2-0.1,0.2-0.3,0.2-0.5
		c0-0.1,0-0.2-0.1-0.3c-0.1-0.1-0.2-0.2-0.3-0.3s-0.4-0.2-0.6-0.3c-0.3-0.1-0.5-0.2-0.7-0.3c-0.2-0.1-0.4-0.2-0.5-0.4
		c-0.1-0.1-0.2-0.3-0.2-0.6c0-0.4,0.1-0.6,0.4-0.8c0.3-0.2,0.7-0.3,1.2-0.3c0.3,0,0.5,0,0.7,0.1c0.2,0.1,0.4,0.1,0.6,0.2l-0.2,0.5
		c-0.2-0.1-0.4-0.1-0.6-0.2c-0.2-0.1-0.4-0.1-0.6-0.1c-0.3,0-0.5,0.1-0.7,0.2c-0.2,0.1-0.2,0.2-0.2,0.4c0,0.1,0,0.2,0.1,0.3
		c0.1,0.1,0.2,0.2,0.4,0.2c0.2,0.1,0.4,0.2,0.7,0.3c0.3,0.1,0.5,0.2,0.7,0.3c0.2,0.1,0.3,0.2,0.5,0.4
		C288.5,334.7,288.6,334.9,288.6,335.1z M291,335.9c0.1,0,0.2,0,0.3,0c0.1,0,0.2,0,0.3-0.1v0.5c-0.1,0-0.2,0.1-0.3,0.1
		c-0.1,0-0.3,0-0.4,0c-0.2,0-0.4,0-0.6-0.1c-0.2-0.1-0.3-0.2-0.5-0.4c-0.1-0.2-0.2-0.5-0.2-0.8v-2.5h-0.6v-0.3l0.6-0.2l0.3-0.9h0.4
		v1h1.2v0.5h-1.2v2.5c0,0.3,0.1,0.5,0.2,0.6S290.8,335.9,291,335.9z M294.4,332c0.1,0,0.2,0,0.3,0s0.2,0,0.2,0l-0.1,0.6
		c-0.1,0-0.1,0-0.2,0c-0.1,0-0.2,0-0.2,0c-0.2,0-0.3,0-0.5,0.1c-0.1,0.1-0.3,0.2-0.4,0.3c-0.1,0.1-0.2,0.3-0.3,0.5
		c-0.1,0.2-0.1,0.4-0.1,0.6v2.3h-0.7V332h0.5l0.1,0.8h0c0.1-0.2,0.2-0.3,0.3-0.4c0.1-0.1,0.3-0.2,0.4-0.3
		C294,332,294.2,332,294.4,332z M296.4,332v4.3h-0.6V332H296.4z M296.1,330.4c0.1,0,0.2,0,0.3,0.1c0.1,0.1,0.1,0.2,0.1,0.3
		c0,0.1,0,0.2-0.1,0.3c-0.1,0.1-0.2,0.1-0.3,0.1c-0.1,0-0.2,0-0.3-0.1c-0.1-0.1-0.1-0.2-0.1-0.3c0-0.1,0-0.3,0.1-0.3
		C295.9,330.5,296,330.4,296.1,330.4z M298.4,330.2v1.5c0,0.2,0,0.3,0,0.5c0,0.2,0,0.3,0,0.4h0c0.1-0.2,0.3-0.3,0.5-0.5
		s0.5-0.2,0.8-0.2c0.5,0,1,0.2,1.3,0.6c0.3,0.4,0.5,0.9,0.5,1.7c0,0.5-0.1,0.9-0.2,1.2c-0.1,0.3-0.4,0.6-0.6,0.8
		c-0.3,0.2-0.6,0.2-0.9,0.2c-0.3,0-0.6-0.1-0.8-0.2s-0.4-0.3-0.5-0.5h-0.1l-0.1,0.6h-0.5v-6.1H298.4z M299.7,332.5
		c-0.3,0-0.5,0.1-0.7,0.2c-0.2,0.1-0.3,0.3-0.4,0.5c-0.1,0.2-0.1,0.5-0.1,0.9v0c0,0.5,0.1,1,0.3,1.2c0.2,0.3,0.5,0.4,1,0.4
		c0.4,0,0.7-0.1,0.9-0.4c0.2-0.3,0.3-0.7,0.3-1.2c0-0.6-0.1-1-0.3-1.2C300.4,332.6,300.1,332.5,299.7,332.5z M306.2,332v4.3h-0.5
		l-0.1-0.6h0c-0.1,0.2-0.2,0.3-0.4,0.4c-0.1,0.1-0.3,0.2-0.5,0.2c-0.2,0.1-0.3,0.1-0.5,0.1c-0.3,0-0.6-0.1-0.9-0.2
		c-0.2-0.1-0.4-0.3-0.5-0.5c-0.1-0.2-0.2-0.5-0.2-0.9V332h0.7v2.8c0,0.4,0.1,0.6,0.2,0.8c0.2,0.2,0.4,0.2,0.8,0.2
		c0.3,0,0.6-0.1,0.8-0.2c0.2-0.1,0.3-0.3,0.4-0.5c0.1-0.2,0.1-0.5,0.1-0.9V332H306.2z M309,335.9c0.1,0,0.2,0,0.3,0
		c0.1,0,0.2,0,0.3-0.1v0.5c-0.1,0-0.2,0.1-0.3,0.1c-0.1,0-0.3,0-0.4,0c-0.2,0-0.4,0-0.6-0.1c-0.2-0.1-0.3-0.2-0.5-0.4
		c-0.1-0.2-0.2-0.5-0.2-0.8v-2.5H307v-0.3l0.6-0.2l0.3-0.9h0.4v1h1.2v0.5h-1.2v2.5c0,0.3,0.1,0.5,0.2,0.6S308.8,335.9,309,335.9z
		 M312.1,332c0.4,0,0.7,0.1,0.9,0.2c0.3,0.2,0.5,0.4,0.6,0.7c0.1,0.3,0.2,0.6,0.2,1v0.4h-3c0,0.5,0.1,0.9,0.4,1.1
		c0.2,0.3,0.6,0.4,1,0.4c0.3,0,0.5,0,0.7-0.1c0.2-0.1,0.4-0.1,0.7-0.2v0.6c-0.2,0.1-0.4,0.2-0.7,0.2c-0.2,0.1-0.5,0.1-0.8,0.1
		c-0.4,0-0.8-0.1-1.1-0.2c-0.3-0.2-0.5-0.4-0.7-0.7c-0.2-0.3-0.2-0.7-0.2-1.2c0-0.5,0.1-0.9,0.2-1.2c0.2-0.3,0.4-0.6,0.7-0.8
		C311.4,332,311.7,332,312.1,332z M312.1,332.5c-0.3,0-0.6,0.1-0.8,0.3c-0.2,0.2-0.3,0.5-0.4,0.9h2.3c0-0.2,0-0.5-0.1-0.7
		c-0.1-0.2-0.2-0.3-0.3-0.5C312.5,332.5,312.3,332.5,312.1,332.5z M316.4,336.4c-0.5,0-1-0.2-1.3-0.5c-0.3-0.4-0.5-0.9-0.5-1.7
		c0-0.7,0.2-1.3,0.5-1.7c0.3-0.4,0.8-0.6,1.3-0.6c0.2,0,0.4,0,0.6,0.1c0.2,0.1,0.3,0.1,0.4,0.2s0.2,0.2,0.3,0.3h0c0-0.1,0-0.2,0-0.3
		c0-0.1,0-0.3,0-0.3v-1.7h0.6v6.1h-0.5l-0.1-0.6h0c-0.1,0.1-0.2,0.2-0.3,0.3s-0.3,0.2-0.4,0.2C316.9,336.4,316.7,336.4,316.4,336.4z
		 M316.5,335.8c0.5,0,0.8-0.1,1-0.4s0.3-0.6,0.3-1.2v-0.1c0-0.6-0.1-1-0.3-1.3c-0.2-0.3-0.5-0.4-1-0.4c-0.4,0-0.7,0.2-0.9,0.5
		c-0.2,0.3-0.3,0.7-0.3,1.2c0,0.5,0.1,0.9,0.3,1.2C315.8,335.7,316.1,335.8,316.5,335.8z M323.5,330.6c0.7,0,1.3,0.1,1.6,0.4
		s0.5,0.7,0.5,1.2c0,0.2,0,0.5-0.1,0.7c-0.1,0.2-0.2,0.4-0.4,0.6c-0.2,0.2-0.4,0.3-0.7,0.4c-0.3,0.1-0.6,0.1-1,0.1h-0.7v2.2H322
		v-5.7H323.5z M323.4,331.2h-0.8v2.3h0.6c0.4,0,0.7,0,0.9-0.1c0.2-0.1,0.4-0.2,0.6-0.4s0.2-0.4,0.2-0.7c0-0.4-0.1-0.7-0.4-0.8
		C324.3,331.3,323.9,331.2,323.4,331.2z M328.3,332c0.4,0,0.7,0.1,0.9,0.2c0.3,0.2,0.5,0.4,0.6,0.7c0.1,0.3,0.2,0.6,0.2,1v0.4h-3
		c0,0.5,0.1,0.9,0.4,1.1c0.2,0.3,0.6,0.4,1,0.4c0.3,0,0.5,0,0.7-0.1c0.2-0.1,0.4-0.1,0.7-0.2v0.6c-0.2,0.1-0.4,0.2-0.7,0.2
		c-0.2,0.1-0.5,0.1-0.8,0.1c-0.4,0-0.8-0.1-1.1-0.2c-0.3-0.2-0.5-0.4-0.7-0.7c-0.2-0.3-0.2-0.7-0.2-1.2c0-0.5,0.1-0.9,0.2-1.2
		c0.2-0.3,0.4-0.6,0.7-0.8C327.6,332,328,332,328.3,332z M328.3,332.5c-0.3,0-0.6,0.1-0.8,0.3c-0.2,0.2-0.3,0.5-0.4,0.9h2.3
		c0-0.2,0-0.5-0.1-0.7c-0.1-0.2-0.2-0.3-0.3-0.5C328.8,332.5,328.6,332.5,328.3,332.5z M333.1,332c0.1,0,0.2,0,0.3,0s0.2,0,0.2,0
		l-0.1,0.6c-0.1,0-0.1,0-0.2,0c-0.1,0-0.2,0-0.2,0c-0.2,0-0.3,0-0.5,0.1c-0.1,0.1-0.3,0.2-0.4,0.3c-0.1,0.1-0.2,0.3-0.3,0.5
		c-0.1,0.2-0.1,0.4-0.1,0.6v2.3h-0.7V332h0.5l0.1,0.8h0c0.1-0.2,0.2-0.3,0.3-0.4c0.1-0.1,0.3-0.2,0.4-0.3
		C332.8,332,332.9,332,333.1,332z M336.4,332.5h-1.1v3.8h-0.7v-3.8h-0.8v-0.3l0.8-0.2v-0.3c0-0.4,0.1-0.6,0.2-0.9
		c0.1-0.2,0.3-0.4,0.5-0.5c0.2-0.1,0.5-0.2,0.8-0.2c0.2,0,0.3,0,0.4,0c0.1,0,0.3,0.1,0.4,0.1l-0.2,0.5c-0.1,0-0.2-0.1-0.3-0.1
		c-0.1,0-0.2,0-0.3,0c-0.2,0-0.4,0.1-0.5,0.2c-0.1,0.2-0.2,0.4-0.2,0.8v0.3h1.1V332.5z M340.8,334.2c0,0.4,0,0.7-0.1,1
		c-0.1,0.3-0.2,0.5-0.4,0.7c-0.2,0.2-0.4,0.3-0.6,0.4c-0.2,0.1-0.5,0.1-0.8,0.1c-0.3,0-0.5,0-0.8-0.1c-0.2-0.1-0.4-0.2-0.6-0.4
		c-0.2-0.2-0.3-0.4-0.4-0.7c-0.1-0.3-0.1-0.6-0.1-1c0-0.5,0.1-0.9,0.2-1.2c0.2-0.3,0.4-0.6,0.7-0.8c0.3-0.2,0.7-0.3,1.1-0.3
		c0.4,0,0.7,0.1,1,0.3c0.3,0.2,0.5,0.4,0.7,0.8C340.8,333.3,340.8,333.7,340.8,334.2z M337.6,334.2c0,0.3,0,0.6,0.1,0.9
		c0.1,0.2,0.2,0.4,0.4,0.6c0.2,0.1,0.4,0.2,0.7,0.2c0.3,0,0.5-0.1,0.7-0.2c0.2-0.1,0.3-0.3,0.4-0.6c0.1-0.3,0.1-0.6,0.1-0.9
		c0-0.3,0-0.6-0.1-0.9c-0.1-0.2-0.2-0.4-0.4-0.6c-0.2-0.1-0.4-0.2-0.7-0.2c-0.4,0-0.8,0.1-1,0.4
		C337.7,333.2,337.6,333.6,337.6,334.2z M343.9,332c0.1,0,0.2,0,0.3,0s0.2,0,0.2,0l-0.1,0.6c-0.1,0-0.1,0-0.2,0c-0.1,0-0.2,0-0.2,0
		c-0.2,0-0.3,0-0.5,0.1c-0.1,0.1-0.3,0.2-0.4,0.3c-0.1,0.1-0.2,0.3-0.3,0.5c-0.1,0.2-0.1,0.4-0.1,0.6v2.3H342V332h0.5l0.1,0.8h0
		c0.1-0.2,0.2-0.3,0.3-0.4c0.1-0.1,0.3-0.2,0.4-0.3C343.5,332,343.7,332,343.9,332z M349.9,332c0.5,0,0.8,0.1,1.1,0.4
		c0.2,0.2,0.4,0.6,0.4,1.2v2.8h-0.6v-2.8c0-0.3-0.1-0.6-0.2-0.8c-0.1-0.2-0.4-0.3-0.7-0.3c-0.4,0-0.7,0.1-0.9,0.4s-0.3,0.6-0.3,1.1
		v2.4H348v-2.8c0-0.2,0-0.4-0.1-0.6c-0.1-0.2-0.2-0.3-0.3-0.3c-0.1-0.1-0.3-0.1-0.5-0.1c-0.3,0-0.5,0.1-0.7,0.2
		c-0.2,0.1-0.3,0.3-0.4,0.5c-0.1,0.2-0.1,0.5-0.1,0.8v2.3h-0.6V332h0.5l0.1,0.6h0c0.1-0.2,0.2-0.3,0.3-0.4c0.1-0.1,0.3-0.2,0.4-0.2
		c0.2-0.1,0.3-0.1,0.5-0.1c0.3,0,0.6,0.1,0.8,0.2c0.2,0.1,0.4,0.3,0.5,0.5h0c0.1-0.2,0.3-0.4,0.6-0.5C349.3,332,349.6,332,349.9,332
		z M354.2,332c0.5,0,0.9,0.1,1.1,0.3s0.4,0.6,0.4,1.1v2.9h-0.5l-0.1-0.6h0c-0.1,0.2-0.3,0.3-0.4,0.4c-0.1,0.1-0.3,0.2-0.5,0.2
		c-0.2,0.1-0.4,0.1-0.6,0.1c-0.3,0-0.5,0-0.7-0.1c-0.2-0.1-0.4-0.2-0.5-0.4c-0.1-0.2-0.2-0.4-0.2-0.7c0-0.4,0.2-0.8,0.5-1
		c0.3-0.2,0.9-0.4,1.5-0.4l0.7,0v-0.3c0-0.4-0.1-0.6-0.2-0.8s-0.4-0.2-0.7-0.2c-0.2,0-0.4,0-0.6,0.1c-0.2,0.1-0.4,0.1-0.6,0.2
		l-0.2-0.5c0.2-0.1,0.4-0.2,0.7-0.2S354,332,354.2,332z M355.1,334.2l-0.7,0c-0.5,0-0.9,0.1-1.1,0.3c-0.2,0.1-0.3,0.4-0.3,0.6
		c0,0.2,0.1,0.4,0.2,0.5c0.1,0.1,0.3,0.2,0.6,0.2c0.4,0,0.7-0.1,0.9-0.3c0.2-0.2,0.4-0.5,0.4-1V334.2z M359.1,332
		c0.5,0,0.9,0.1,1.1,0.4c0.3,0.2,0.4,0.6,0.4,1.2v2.8H360v-2.8c0-0.4-0.1-0.6-0.2-0.8c-0.2-0.2-0.4-0.3-0.7-0.3
		c-0.5,0-0.8,0.1-1,0.4c-0.2,0.3-0.3,0.6-0.3,1.2v2.2h-0.6V332h0.5l0.1,0.6h0c0.1-0.1,0.2-0.3,0.3-0.4c0.1-0.1,0.3-0.2,0.5-0.2
		C358.7,332,358.9,332,359.1,332z M363.7,336.4c-0.4,0-0.7-0.1-1-0.2c-0.3-0.2-0.5-0.4-0.7-0.7c-0.2-0.3-0.2-0.7-0.2-1.2
		c0-0.5,0.1-0.9,0.2-1.3c0.2-0.3,0.4-0.6,0.7-0.7c0.3-0.2,0.7-0.2,1-0.2c0.2,0,0.4,0,0.6,0.1c0.2,0,0.4,0.1,0.5,0.2l-0.2,0.5
		c-0.1-0.1-0.3-0.1-0.5-0.1c-0.2,0-0.3-0.1-0.5-0.1c-0.3,0-0.6,0.1-0.8,0.2c-0.2,0.1-0.3,0.3-0.4,0.6c-0.1,0.2-0.1,0.5-0.1,0.9
		c0,0.3,0,0.6,0.1,0.9c0.1,0.2,0.2,0.4,0.4,0.6c0.2,0.1,0.4,0.2,0.7,0.2c0.2,0,0.4,0,0.6-0.1c0.2-0.1,0.4-0.1,0.5-0.2v0.6
		c-0.1,0.1-0.3,0.1-0.5,0.2C364.2,336.4,364,336.4,363.7,336.4z M367.5,332c0.4,0,0.7,0.1,0.9,0.2c0.3,0.2,0.5,0.4,0.6,0.7
		c0.1,0.3,0.2,0.6,0.2,1v0.4h-3c0,0.5,0.1,0.9,0.4,1.1c0.2,0.3,0.6,0.4,1,0.4c0.3,0,0.5,0,0.7-0.1c0.2-0.1,0.4-0.1,0.7-0.2v0.6
		c-0.2,0.1-0.4,0.2-0.7,0.2c-0.2,0.1-0.5,0.1-0.8,0.1c-0.4,0-0.8-0.1-1.1-0.2c-0.3-0.2-0.5-0.4-0.7-0.7c-0.2-0.3-0.2-0.7-0.2-1.2
		c0-0.5,0.1-0.9,0.2-1.2c0.2-0.3,0.4-0.6,0.7-0.8C366.8,332,367.1,332,367.5,332z M367.5,332.5c-0.3,0-0.6,0.1-0.8,0.3
		c-0.2,0.2-0.3,0.5-0.4,0.9h2.3c0-0.2,0-0.5-0.1-0.7c-0.1-0.2-0.2-0.3-0.3-0.5C367.9,332.5,367.7,332.5,367.5,332.5z"/>
	<g>
		<polygon class="st8" points="326.3,287.5 324.5,287.8 322.8,287.5 322,287.4 321.4,293.7 320,307.1 324.5,299.2 329,307.1 
			327.6,293.7 327,287.4 		"/>
		<path class="st6" d="M349.4,292.6L349.4,292.6l-22.5-22.7c-0.7-1-1.5-1.9-2.4-2.8l0,0l0,0l0,0c-0.8,0.9-1.6,1.8-2.4,2.8
			l-22.2,22.4l10-1.8l0,0l0.1,0l0,0l0,0l0,0l3.1-0.5l3.2-0.6l1.5-2l3.6,6.4l0.6-6.3l0.8,0.1l1.7,0.3l1.8-0.3l0.7-0.1l0.6,6.3
			l3.6-6.4l1.5,2l3.2,0.6l3.2,0.6l0.1,0l0,0l9.8,1.8L349.4,292.6z M327.5,287.2C327.5,287.2,327.6,287.2,327.5,287.2
			C327.6,287.2,327.5,287.2,327.5,287.2z"/>
		<line class="st5" x1="310" y1="290.5" x2="310" y2="290.4"/>
		<path class="st6" d="M331.6,294.3L331.6,294.3C331.6,294.3,331.6,294.3,331.6,294.3L331.6,294.3z"/>
		<path class="st6" d="M317.7,294L317.7,294C317.7,294,317.7,294.1,317.7,294L317.7,294L317.7,294L317.7,294L317.7,294L317.7,294z"
			/>
		<path class="st5" d="M317.7,294L317.7,294"/>
		<path class="st5" d="M327.6,287.3C327.6,287.2,327.5,287.2,327.6,287.3"/>
		<polygon class="st8" points="349.4,292.6 349.4,292.6 349.1,292.3 339.2,290.5 339.2,290.5 349.5,300.9 349.5,293.8 		"/>
		<polygon class="st8" points="299.9,292.3 299.9,292.3 299.6,292.6 299.5,293.8 299.5,301 309.9,290.5 309.9,290.5 		"/>
	</g>
</g>
</svg>
