<svg width="1940" height="1100" viewBox="0 0 1940 1100" fill="none" xmlns="http://www.w3.org/2000/svg">
<g clip-path="url(#clip0_1079_116)">
<rect x="10" y="10" width="1920" height="1080" rx="10" fill="#121212"/>
<path d="M1930.14 0.288574L1931.61 1088.54L5.5812 1091.14L4.11065 2.89121L1930.14 0.288574Z" fill="url(#paint0_linear_1079_116)"/>
<path d="M1626.88 66.085H1618.63V106.737H1657.73V98.6094H1626.88V66.085Z" fill="white"/>
<path d="M1678.38 66.085L1661.88 106.737H1671.29L1682.5 78.2832L1690.49 98.6094H1676.79L1673.71 106.737H1703.13L1686.62 66.085H1678.38Z" fill="white"/>
<path d="M1714.77 80.3163L1704.46 66.085H1694.15L1710.64 90.4772V106.737H1718.89V90.4772L1735.39 66.085H1725.21L1714.77 80.3163Z" fill="white"/>
<path d="M1738.95 72.4875V74.2171V82.345V92.2631V106.737H1778.05V98.6094H1747.2V92.2631V90.4772H1770.9V82.345H1747.2V74.2171H1778.05V66.085H1738.95V72.4875Z" fill="white"/>
<path d="M1791.45 73.8357H1812.61V82.293H1793.74L1793.82 90.048H1799.48L1814.43 106.742H1824.61L1809.66 90.048H1815.52C1816.36 90.0486 1817.19 89.8858 1817.97 89.5688C1818.75 89.2519 1819.45 88.7871 1820.05 88.201C1820.64 87.6148 1821.11 86.9188 1821.44 86.1528C1821.76 85.3868 1821.92 84.5657 1821.92 83.7365V72.4008C1821.92 70.7258 1821.25 69.1193 1820.05 67.9348C1818.85 66.7504 1817.22 66.085 1815.52 66.085H1783.41V106.737H1791.66L1791.45 73.8357Z" fill="white"/>
<path d="M1870.89 66.2583H1854.65V73.97H1870.89V66.2583Z" fill="#00B39F"/>
<path d="M1872.37 92.2372V89.0424C1872.37 85.3621 1869.23 82.3797 1865.33 82.3797H1839.14V80.2773H1829.55V89.3805H1862.77V92.2285L1872.37 92.2372Z" fill="#00B39F"/>
<path d="M1839.14 77.7587V73.97H1852V66.2583H1829.55V77.7587H1839.14Z" fill="#00D3A9"/>
<path d="M1862.77 94.7168V99.2034H1849.92V106.915H1865.75C1867.47 106.942 1869.13 106.296 1870.37 105.118C1871.61 103.941 1872.32 102.328 1872.35 100.634V94.7168H1862.77Z" fill="#00D3A9"/>
<path d="M1838.39 95.1328V99.2032H1847.28V106.915H1835.85C1834.13 106.942 1832.47 106.295 1831.23 105.118C1829.99 103.941 1829.28 102.328 1829.25 100.634V95.1328H1838.39Z" fill="#00B39F"/>
<g filter="url(#filter0_d_1079_116)">
<path d="M707.24 373.8C710.062 373.8 711.39 375.46 710.56 378.282L679.85 486.68C679.186 489.004 677.526 490 675.368 490H657.108C654.784 490 653.29 489.004 652.626 486.68L638.516 436.88L624.24 486.68C623.576 489.004 622.082 490 619.924 490H601.498C599.34 490 597.68 489.004 597.182 486.68L566.306 378.282C565.476 375.46 566.804 373.8 569.626 373.8H585.23C587.554 373.8 589.048 375.128 589.546 377.286L611.956 460.95L628.556 401.854L621.75 378.282C621.086 375.46 622.248 373.8 625.07 373.8H638.35C640.674 373.8 642.168 375.128 642.666 377.286L664.91 460.95L687.32 377.286C687.818 375.128 689.312 373.8 691.636 373.8H707.24ZM762.703 404.842C778.141 404.842 789.761 416.628 789.761 437.046V486.182C789.761 488.672 788.267 490 785.777 490H772.165C769.675 490 768.347 488.672 768.347 486.182V438.706C768.347 429.078 762.703 424.596 755.067 424.596C746.767 424.596 740.127 429.576 740.127 442.026V486.182C740.127 488.672 738.799 490 736.143 490H722.697C720.207 490 718.713 488.672 718.713 486.182V377.784C718.713 375.294 720.207 373.8 722.697 373.8H736.143C738.799 373.8 740.127 375.294 740.127 377.784V415.632C744.775 408.66 752.411 404.842 762.703 404.842ZM840.429 404.842C858.689 404.842 874.127 415.798 874.127 437.378V486.182C874.127 488.672 872.799 490.166 870.143 490.166H857.195C854.705 490.166 853.211 488.672 853.211 486.182V482.862C848.397 488.672 841.259 492.324 830.801 492.324C816.027 492.324 802.747 483.692 802.747 466.262C802.747 448.832 816.027 440.034 830.801 440.034C841.259 440.034 848.397 443.188 853.211 447.504V438.54C853.211 428.746 848.231 424.596 840.429 424.596C834.121 424.596 829.473 427.252 828.145 431.734C827.149 434.058 826.319 435.22 823.995 435.22H810.715C808.225 435.22 806.565 433.892 806.731 431.236C808.889 414.138 823.331 404.842 840.429 404.842ZM837.939 476.554C847.401 476.554 853.211 472.238 853.211 466.262C853.211 459.788 847.401 455.97 837.939 455.97C828.643 455.97 824.161 460.286 824.161 466.262C824.161 472.238 828.643 476.554 837.939 476.554ZM930.532 407C933.188 407 934.516 408.494 934.516 410.984V423.766C934.516 426.256 933.188 427.584 930.532 427.584H920.24V486.182C920.24 488.672 918.912 490 916.256 490H902.81C900.32 490 898.826 488.672 898.826 486.182V427.584H888.534C885.878 427.584 884.55 426.256 884.55 423.766V410.984C884.55 408.494 885.878 407 888.534 407H898.826V384.424C898.826 381.934 900.32 380.44 902.81 380.44H916.256C918.912 380.44 920.24 381.934 920.24 384.424V407H930.532ZM1038.93 373.8C1070.96 373.8 1095.03 399.364 1095.03 431.9C1095.03 464.602 1070.96 490 1038.93 490H997.095H993.443C990.953 490 989.625 488.672 989.625 486.182V377.784C989.625 375.294 990.953 373.8 993.443 373.8H1012.37H1038.93ZM1038.93 468.088C1059.18 468.088 1072.96 453.48 1072.96 431.9C1072.96 410.486 1059.18 395.712 1038.93 395.712H1012.37V468.088H1038.93ZM1150.69 492.324C1126.29 492.324 1106.7 473.234 1106.7 448.5C1106.7 423.932 1126.29 404.842 1150.69 404.842C1174.93 404.842 1194.52 423.932 1194.52 448.5C1194.52 473.234 1174.93 492.324 1150.69 492.324ZM1150.69 471.408C1163.31 471.408 1173.1 461.946 1173.1 448.5C1173.1 435.054 1163.31 425.592 1150.69 425.592C1137.91 425.592 1128.12 435.054 1128.12 448.5C1128.12 461.946 1137.91 471.408 1150.69 471.408ZM1249.25 404.842C1273.82 404.842 1290.75 424.098 1290.75 448.666C1290.75 450.492 1290.59 452.152 1290.42 453.812C1290.26 456.302 1288.6 457.464 1286.27 457.464H1269.17H1227.51C1230.5 469.25 1239.46 474.562 1250.08 474.562C1256.39 474.562 1261.87 472.072 1265.19 468.586C1266.68 467.092 1268.01 466.262 1270 466.262H1283.28C1286.27 466.262 1287.77 468.088 1286.6 470.578C1280.3 484.522 1266.68 492.324 1249.75 492.324C1222.69 492.324 1205.26 473.4 1205.26 448.5C1205.26 423.932 1223.19 404.842 1249.25 404.842ZM1227.51 440.532H1269.34C1266.85 428.746 1258.05 424.098 1249.09 424.098C1237.8 424.098 1230 430.24 1227.51 440.532ZM1324.15 431.236C1324.15 445.678 1368.97 433.892 1368.97 465.93C1368.97 483.692 1353.7 492.324 1335.27 492.324C1318.34 492.324 1303.9 484.356 1302.07 467.756C1301.74 465.1 1303.4 463.606 1305.89 463.606H1319.17C1321.49 463.606 1322.32 464.934 1323.32 467.092C1324.81 471.408 1329.29 473.4 1335.27 473.4C1343.24 473.4 1347.55 470.744 1347.55 465.93C1347.55 451.654 1302.73 463.108 1302.73 431.236C1302.73 413.64 1318.01 404.842 1335.27 404.842C1350.87 404.842 1364.98 412.644 1366.98 429.41C1367.31 432.066 1365.65 433.56 1363.16 433.56H1349.88C1347.55 433.56 1346.56 432.232 1345.56 429.908C1344.4 425.758 1340.25 423.6 1335.27 423.6C1328.46 423.6 1324.15 426.422 1324.15 431.236ZM535.792 674.088C538.448 674.088 539.776 675.582 539.776 678.072V692.182C539.776 694.672 538.448 696 535.792 696H485.494H477.692C475.202 696 473.874 694.672 473.874 692.182V583.784C473.874 581.294 475.202 579.8 477.692 579.8H492.632C495.288 579.8 496.616 581.294 496.616 583.784V674.088H535.792ZM585.349 610.842C603.609 610.842 619.047 621.798 619.047 643.378V692.182C619.047 694.672 617.719 696.166 615.063 696.166H602.115C599.625 696.166 598.131 694.672 598.131 692.182V688.862C593.317 694.672 586.179 698.324 575.721 698.324C560.947 698.324 547.667 689.692 547.667 672.262C547.667 654.832 560.947 646.034 575.721 646.034C586.179 646.034 593.317 649.188 598.131 653.504V644.54C598.131 634.746 593.151 630.596 585.349 630.596C579.041 630.596 574.393 633.252 573.065 637.734C572.069 640.058 571.239 641.22 568.915 641.22H555.635C553.145 641.22 551.485 639.892 551.651 637.236C553.809 620.138 568.251 610.842 585.349 610.842ZM582.859 682.554C592.321 682.554 598.131 678.238 598.131 672.262C598.131 665.788 592.321 661.97 582.859 661.97C573.563 661.97 569.081 666.286 569.081 672.262C569.081 678.238 573.563 682.554 582.859 682.554ZM683.795 616.32C684.459 614.162 685.953 613 688.111 613H702.885C705.707 613 707.035 614.66 706.039 617.482L669.519 726.046C668.855 728.37 667.029 729.2 664.871 729.2H650.263C647.441 729.2 645.947 727.706 646.943 724.884L657.069 694.838L627.189 617.648C626.193 614.992 627.355 613 630.343 613H644.951C647.109 613 648.603 614.162 649.267 616.154L667.859 665.29L683.795 616.32ZM755.388 610.842C779.956 610.842 796.888 630.098 796.888 654.666C796.888 656.492 796.722 658.152 796.556 659.812C796.39 662.302 794.73 663.464 792.406 663.464H775.308H733.642C736.63 675.25 745.594 680.562 756.218 680.562C762.526 680.562 768.004 678.072 771.324 674.586C772.818 673.092 774.146 672.262 776.138 672.262H789.418C792.406 672.262 793.9 674.088 792.738 676.578C786.43 690.522 772.818 698.324 755.886 698.324C728.828 698.324 711.398 679.4 711.398 654.5C711.398 629.932 729.326 610.842 755.388 610.842ZM733.642 646.532H775.474C772.984 634.746 764.186 630.098 755.222 630.098C743.934 630.098 736.132 636.24 733.642 646.532ZM851.53 611.838C854.186 611.34 855.514 613 855.514 615.49V631.26C855.514 633.75 854.518 635.078 852.526 635.078C842.4 635.078 832.772 640.39 832.772 655.164V692.182C832.772 694.672 831.444 696 828.954 696H815.342C812.852 696 811.358 694.672 811.358 692.182V616.984C811.358 614.494 812.852 613 815.342 613H828.954C831.444 613 832.772 614.494 832.772 616.984V625.616C836.424 617.15 843.23 612.834 851.53 611.838ZM905.134 622.13C927.046 622.13 945.306 635.244 945.306 660.31C945.306 685.21 925.718 698.324 903.806 698.324C883.222 698.324 864.63 686.538 862.472 664.294C862.306 661.638 863.966 660.31 866.456 660.31H881.562C883.886 660.31 885.048 661.472 885.546 663.962C887.04 671.432 893.68 676.08 903.806 676.08C915.924 676.08 922.564 669.606 922.564 660.31C922.564 650.848 915.924 644.374 903.806 644.374H871.768C869.278 644.374 867.784 642.88 867.95 640.39L872.1 583.618C872.266 581.294 873.76 579.8 876.084 579.8H936.01C938.5 579.8 939.994 581.294 939.994 583.784V597.396C939.994 599.886 938.5 601.214 936.01 601.214H893.68L892.186 622.13H905.134ZM1112.24 579.8C1114.73 579.8 1116.22 581.294 1116.22 583.784V692.182C1116.22 694.672 1114.73 696 1112.24 696H1097.3C1094.81 696 1093.31 694.672 1093.31 692.182V617.98L1068.91 674.42C1068.08 676.578 1066.59 677.408 1064.26 677.408H1054.3C1052.15 677.408 1050.49 676.578 1049.66 674.42L1025.25 617.98V692.182C1025.25 694.672 1023.93 696 1021.27 696H1006.33C1003.84 696 1002.51 694.672 1002.51 692.182V583.784C1002.51 581.294 1003.84 579.8 1006.33 579.8H1021.27H1025.25C1027.41 579.8 1028.91 580.796 1029.74 582.788L1059.28 650.848L1088.83 582.788C1089.66 580.796 1091.16 579.8 1093.31 579.8H1104.77H1112.24ZM1176.39 610.842C1200.95 610.842 1217.89 630.098 1217.89 654.666C1217.89 656.492 1217.72 658.152 1217.55 659.812C1217.39 662.302 1215.73 663.464 1213.4 663.464H1196.31H1154.64C1157.63 675.25 1166.59 680.562 1177.22 680.562C1183.52 680.562 1189 678.072 1192.32 674.586C1193.82 673.092 1195.14 672.262 1197.14 672.262H1210.42C1213.4 672.262 1214.9 674.088 1213.74 676.578C1207.43 690.522 1193.82 698.324 1176.88 698.324C1149.83 698.324 1132.4 679.4 1132.4 654.5C1132.4 629.932 1150.32 610.842 1176.39 610.842ZM1154.64 646.532H1196.47C1193.98 634.746 1185.18 630.098 1176.22 630.098C1164.93 630.098 1157.13 636.24 1154.64 646.532ZM1265.72 610.842C1283.98 610.842 1299.42 621.798 1299.42 643.378V692.182C1299.42 694.672 1298.09 696.166 1295.44 696.166H1282.49C1280 696.166 1278.5 694.672 1278.5 692.182V688.862C1273.69 694.672 1266.55 698.324 1256.09 698.324C1241.32 698.324 1228.04 689.692 1228.04 672.262C1228.04 654.832 1241.32 646.034 1256.09 646.034C1266.55 646.034 1273.69 649.188 1278.5 653.504V644.54C1278.5 634.746 1273.52 630.596 1265.72 630.596C1259.41 630.596 1254.77 633.252 1253.44 637.734C1252.44 640.058 1251.61 641.22 1249.29 641.22H1236.01C1233.52 641.22 1231.86 639.892 1232.02 637.236C1234.18 620.138 1248.62 610.842 1265.72 610.842ZM1263.23 682.554C1272.69 682.554 1278.5 678.238 1278.5 672.262C1278.5 665.788 1272.69 661.97 1263.23 661.97C1253.94 661.97 1249.45 666.286 1249.45 672.262C1249.45 678.238 1253.94 682.554 1263.23 682.554ZM1360.81 610.842C1376.24 610.842 1387.86 622.628 1387.86 643.046V692.182C1387.86 694.672 1386.37 696 1383.88 696H1370.27C1367.78 696 1366.45 694.672 1366.45 692.182V644.706C1366.45 635.078 1360.81 630.596 1353.17 630.596C1344.87 630.596 1338.23 635.576 1338.23 648.026V692.182C1338.23 694.672 1336.9 696 1334.25 696H1320.8C1318.31 696 1316.82 694.672 1316.82 692.182V616.984C1316.82 614.494 1318.31 613 1320.8 613H1334.25C1336.9 613 1338.23 614.494 1338.23 616.984V621.632C1342.88 614.66 1350.51 610.842 1360.81 610.842ZM1421.52 656.99C1419.03 656.99 1417.37 655.496 1417.87 653.006C1421.02 634.248 1445.26 627.276 1445.26 612.004C1445.26 604.202 1439.78 599.886 1430.32 599.886C1421.52 599.886 1415.05 603.704 1413.55 611.34C1413.05 613.83 1411.73 614.992 1409.4 614.992H1394.46C1391.81 614.992 1390.31 613.664 1390.48 611.008C1392.47 588.266 1410.56 577.642 1430.98 577.642C1449.74 577.642 1468.17 588.93 1468.17 610.178C1468.17 632.92 1444.93 640.888 1440.94 653.67C1440.11 655.828 1439.12 656.99 1436.79 656.99H1421.52ZM1421.02 696C1418.37 696 1417.04 694.672 1417.04 692.182V676.412C1417.04 673.756 1418.37 672.428 1421.02 672.428H1436.79C1439.28 672.428 1440.61 673.756 1440.61 676.412V692.182C1440.61 694.672 1439.28 696 1436.79 696H1421.02Z" fill="white"/>
</g>
<path d="M1061 697L1075 774.5L1091.5 740.5L1130 734.5L1061 697Z" fill="#00B39F" stroke="white" stroke-width="6"/>
<g opacity="0.5" clip-path="url(#clip1_1079_116)">
<path d="M61.4575 947.032V1042.33L144.096 994.52L61.4575 947.032Z" fill="#00D3A9"/>
<path d="M61.4575 1062.25V1158.03L144.865 1110.36L61.4575 1062.25Z" fill="#00D3A9"/>
<path d="M49.5718 1041.68V947.83L-32.0317 994.609L49.5718 1041.68Z" fill="#00B39F"/>
<path d="M49.5718 1157.55V1062.96L-32.2388 1110.3L49.5718 1157.55Z" fill="#00B39F"/>
<path d="M231.495 1146.65C245.638 1120.27 253.633 1091.03 254.883 1061.13L168.755 1110.42L231.495 1146.65Z" fill="#00B39F"/>
<path d="M162.426 1100.31L245.567 1052.8L162.426 1005.04V1100.31Z" fill="#00D3A9"/>
<path d="M150.512 984.503V889.998L68.1694 937.191L150.512 984.503Z" fill="#00B39F"/>
<path d="M150.512 1099.9V1004.54L67.9917 1052.29L150.512 1099.9Z" fill="#00B39F"/>
<path d="M-38.9204 1004.36V1100.43L44.2206 1052.32L-38.9204 1004.36Z" fill="#00D3A9"/>
<path d="M49.5721 853C18.9669 853.861 -11.0252 861.78 -38.063 876.139L49.5721 926.376V853Z" fill="#00B39F"/>
<path d="M-38.9204 889.348V984.858L44.2797 937.162L-38.9204 889.348Z" fill="#00D3A9"/>
<path d="M149.98 876.641C122.717 861.978 92.4043 853.883 61.4575 853V927.321L149.98 876.641Z" fill="#00D3A9"/>
<path d="M225.344 947.564C209.425 921.905 187.919 900.167 162.426 883.97V983.912L225.344 947.564Z" fill="#00D3A9"/>
<path d="M255.148 1044.52C254.015 1014.18 245.922 984.507 231.495 957.789L167.897 994.491L255.148 1044.52Z" fill="#00B39F"/>
</g>
<path d="M157.138 263.929C131.488 374.975 43.8708 373.747 10 367.909V10H604C570.132 113.98 482.724 170.895 386.585 177.097C268.208 171.989 184.442 145.721 157.138 263.929Z" fill="url(#paint1_linear_1079_116)"/>
<g filter="url(#filter1_d_1079_116)">
<path d="M123.945 206.09C104.082 291.842 36.2299 290.893 10 286.385V10H470C443.772 90.2955 376.082 134.247 301.631 139.036C209.959 135.092 145.09 114.807 123.945 206.09Z" fill="url(#paint2_linear_1079_116)"/>
</g>
<path d="M1782.86 836.071C1808.51 725.025 1896.13 726.253 1930 732.091V1090H1336C1369.87 986.02 1457.28 929.105 1553.42 922.903C1671.79 928.011 1755.56 954.279 1782.86 836.071Z" fill="url(#paint3_linear_1079_116)"/>
<g filter="url(#filter2_d_1079_116)">
<path d="M1816.05 893.91C1835.92 808.158 1903.77 809.107 1930 813.615V1090H1470C1496.23 1009.7 1563.92 965.753 1638.37 960.964C1730.04 964.908 1794.91 985.193 1816.05 893.91Z" fill="url(#paint4_linear_1079_116)"/>
</g>
</g>
<rect x="5" y="5" width="1930" height="1090" rx="15" stroke="#EEEEEE" stroke-width="10"/>
<defs>
<filter id="filter0_d_1079_116" x="469.874" y="373.8" width="1002.29" height="363.4" filterUnits="userSpaceOnUse" color-interpolation-filters="sRGB">
<feFlood flood-opacity="0" result="BackgroundImageFix"/>
<feColorMatrix in="SourceAlpha" type="matrix" values="0 0 0 0 0 0 0 0 0 0 0 0 0 0 0 0 0 0 127 0" result="hardAlpha"/>
<feOffset dy="4"/>
<feGaussianBlur stdDeviation="2"/>
<feComposite in2="hardAlpha" operator="out"/>
<feColorMatrix type="matrix" values="0 0 0 0 0 0 0 0 0 0 0 0 0 0 0 0 0 0 0.25 0"/>
<feBlend mode="normal" in2="BackgroundImageFix" result="effect1_dropShadow_1079_116"/>
<feBlend mode="normal" in="SourceGraphic" in2="effect1_dropShadow_1079_116" result="shape"/>
</filter>
<filter id="filter1_d_1079_116" x="-10" y="0" width="480" height="298" filterUnits="userSpaceOnUse" color-interpolation-filters="sRGB">
<feFlood flood-opacity="0" result="BackgroundImageFix"/>
<feColorMatrix in="SourceAlpha" type="matrix" values="0 0 0 0 0 0 0 0 0 0 0 0 0 0 0 0 0 0 127 0" result="hardAlpha"/>
<feOffset dx="-10"/>
<feGaussianBlur stdDeviation="5"/>
<feComposite in2="hardAlpha" operator="out"/>
<feColorMatrix type="matrix" values="0 0 0 0 0 0 0 0 0 0 0 0 0 0 0 0 0 0 0.25 0"/>
<feBlend mode="normal" in2="BackgroundImageFix" result="effect1_dropShadow_1079_116"/>
<feBlend mode="normal" in="SourceGraphic" in2="effect1_dropShadow_1079_116" result="shape"/>
</filter>
<filter id="filter2_d_1079_116" x="1450" y="802" width="480" height="298" filterUnits="userSpaceOnUse" color-interpolation-filters="sRGB">
<feFlood flood-opacity="0" result="BackgroundImageFix"/>
<feColorMatrix in="SourceAlpha" type="matrix" values="0 0 0 0 0 0 0 0 0 0 0 0 0 0 0 0 0 0 127 0" result="hardAlpha"/>
<feOffset dx="-10"/>
<feGaussianBlur stdDeviation="5"/>
<feComposite in2="hardAlpha" operator="out"/>
<feColorMatrix type="matrix" values="0 0 0 0 0 0 0 0 0 0 0 0 0 0 0 0 0 0 0.25 0"/>
<feBlend mode="normal" in2="BackgroundImageFix" result="effect1_dropShadow_1079_116"/>
<feBlend mode="normal" in="SourceGraphic" in2="effect1_dropShadow_1079_116" result="shape"/>
</filter>
<linearGradient id="paint0_linear_1079_116" x1="969.985" y1="1.58603" x2="971.337" y2="1089.84" gradientUnits="userSpaceOnUse">
<stop stop-color="#121212" stop-opacity="0.16"/>
<stop offset="0.520833" stop-color="#00B39F" stop-opacity="0.3"/>
<stop offset="1" stop-color="#121212" stop-opacity="0.16"/>
</linearGradient>
<linearGradient id="paint1_linear_1079_116" x1="530.795" y1="118.26" x2="10.3504" y2="114.988" gradientUnits="userSpaceOnUse">
<stop stop-color="#003A34"/>
<stop offset="1" stop-color="#00B39F"/>
</linearGradient>
<linearGradient id="paint2_linear_1079_116" x1="486.5" y1="69.5" x2="16.9146" y2="68.9549" gradientUnits="userSpaceOnUse">
<stop/>
<stop offset="1" stop-color="#004A42"/>
</linearGradient>
<linearGradient id="paint3_linear_1079_116" x1="1409.2" y1="981.74" x2="1929.65" y2="985.012" gradientUnits="userSpaceOnUse">
<stop stop-color="#003A34"/>
<stop offset="1" stop-color="#00B39F"/>
</linearGradient>
<linearGradient id="paint4_linear_1079_116" x1="1453.5" y1="1030.5" x2="1923.09" y2="1031.05" gradientUnits="userSpaceOnUse">
<stop/>
<stop offset="1" stop-color="#004A42"/>
</linearGradient>
<clipPath id="clip0_1079_116">
<rect x="10" y="10" width="1920" height="1080" rx="10" fill="white"/>
</clipPath>
<clipPath id="clip1_1079_116">
<rect width="399" height="399" fill="white" transform="translate(-144 853)"/>
</clipPath>
</defs>
</svg>
