<svg xmlns="http://www.w3.org/2000/svg" xmlns:xlink="http://www.w3.org/1999/xlink" id="Layer_1" x="0" y="0" enable-background="new 0 0 360 260.987" version="1.1" viewBox="0 0 360 260.987" xml:space="preserve"><style type="text/css">.st0{fill:#231f20}.st1{fill:#446ca9}.st2{fill:#76c4d5}</style><g id="XMLID_94_"><g><path id="XMLID_633_" d="M24.8231773,216.3385773c3.471859,0,6.3101063-1.3733521,8.5142212-4.1210785 l4.5283966,4.6646881c-3.5930672,4.0461731-7.8275471,6.0682068-12.7029228,6.0682068 c-4.8758945,0-8.8913689-1.5392914-12.0459013-4.6189117c-3.1555729-3.0796204-4.7328386-6.9665985-4.7328386-11.6614685 c0-4.6943359,1.6079578-8.611496,4.8233547-11.7519836c3.2153969-3.1394501,7.1476364-4.7094269,11.7972431-4.7094269 c5.1921806,0,9.539547,1.9772949,13.042099,5.9324341l-4.3926239,4.9814911 c-2.2342892-2.7773743-5.0116711-4.1663361-8.3326702-4.1663361c-2.6572132,0-4.9289551,0.8682251-6.8157444,2.6036377 c-1.88731,1.736969-2.8304443,4.0758209-2.8304443,7.0196686s0.8900738,5.3061066,2.6723003,7.0872955 C20.128315,215.4485016,22.2871704,216.3385773,24.8231773,216.3385773z" class="st0"/><path id="XMLID_631_" d="M43.4361687,222.5883331v-31.6550903h7.0644035v25.3600769h13.4957161v6.2950134H43.4361687z" class="st0"/><path id="XMLID_628_" d="M94.9267273,218.2180786c-3.2003098,3.1248779-7.1403503,4.6865387-11.8196106,4.6865387 c-4.6802979,0-8.6203461-1.5616608-11.820137-4.6865387c-3.2003098-3.1248779-4.799942-7.0113373-4.799942-11.6609497 c0-4.6490784,1.5996323-8.5365906,4.799942-11.6614685c3.199791-3.1248779,7.1398392-4.6870575,11.820137-4.6870575 c4.6792603,0,8.6193008,1.5621796,11.8196106,4.6870575c3.199791,3.1248779,4.8004684,7.0123901,4.8004684,11.6614685 C99.7271957,211.2067413,98.1265182,215.0932007,94.9267273,218.2180786z M92.5264969,206.5794983 c0-2.8226471-0.9056778-5.2306824-2.717041-7.2230682c-1.8113556-1.9929047-4.0383606-2.9891052-6.6799698-2.9891052 c-2.642128,0-4.8680954,0.9962006-6.679451,2.9891052c-1.811882,1.9923859-2.7175598,4.4004211-2.7175598,7.2230682 c0,2.8231659,0.9056778,5.2233887,2.7175598,7.2006989c1.8113556,1.977829,4.037323,2.966217,6.679451,2.966217 c2.6416092,0,4.8686142-0.9883881,6.6799698-2.966217C91.6208191,211.802887,92.5264969,209.4026642,92.5264969,206.5794983z" class="st0"/><path id="XMLID_626_" d="M114.0822906,214.4143219c1.1772308,1.464386,2.7622986,2.1963196,4.7541656,2.1963196 c1.9934235,0,3.5707016-0.7319336,4.7338791-2.1963196c1.1611023-1.4643707,1.7437363-3.4645691,1.7437363-6.0005798v-17.4804993 h7.0644073v17.7067871c0,4.5897827-1.2693024,8.1141815-3.8037567,10.5742493 c-2.5365219,2.4610901-5.7826157,3.6903381-9.738266,3.6903381c-3.9546051,0-7.2074585-1.2370453-9.7585526-3.7127075 c-2.5516129-2.4751434-3.8266373-5.9927826-3.8266373-10.5518799v-17.7067871h7.0649261v17.4804993 C112.3161926,210.9497528,112.904541,212.9499512,114.0822906,214.4143219z" class="st0"/><path id="XMLID_623_" d="M163.8967438,195.0766907c3.0182343,2.7622986,4.5289154,6.604538,4.5289154,11.5256958 s-1.4721832,8.8159485-4.4155121,11.6838379c-2.9433289,2.8684235-7.4347839,4.3021088-13.4733429,4.3021088h-10.82341 v-31.6550903h11.1865082C156.5451965,190.9332428,160.8774719,192.3143921,163.8967438,195.0766907z M158.7113342,213.8930817 c1.7353973-1.6303253,2.6041412-3.9998627,2.6041412-7.1096649c0-3.1092682-0.8687439-5.5022278-2.6041412-7.1778107 c-1.7364502-1.6755829-4.3999176-2.5136261-7.9924622-2.5136261h-3.940033v19.2465973h4.483139 C154.4924469,216.3385773,156.974884,215.523407,158.7113342,213.8930817z" class="st0"/><path id="XMLID_621_" d="M208.6397095,190.9332428h7.0654449v31.6550903h-7.0654449l-15.0797424-19.8354797 v19.8354797h-7.0654449v-31.6550903h6.6118164l15.533371,20.3785706V190.9332428z" class="st0"/><path id="XMLID_618_" d="M246.0456848,222.5883331l-2.9433289-6.8381195h-13.2694397l-2.9433289,6.8381195h-7.5180206 l13.6772766-31.6550903h6.8375702l13.6772919,31.6550903H246.0456848z M236.4905243,200.3526306l-3.9858246,9.1930847h7.9258728 L236.4905243,200.3526306z" class="st0"/><path id="XMLID_616_" d="M268.327179,197.0467072v25.541626h-7.0654602v-25.541626h-8.9662781v-6.1134644h24.9980164 v6.1134644H268.327179z" class="st0"/><path id="XMLID_614_" d="M282.4549255,190.9332428h7.0654602v31.6550903h-7.0654602V190.9332428z" class="st0"/><path id="XMLID_612_" d="M308.9927368,211.0855255l8.0611267-20.1522827h7.6543274l-12.7263489,31.6550903h-5.9771729 l-12.7263184-31.6550903h7.6543274L308.9927368,211.0855255z" class="st0"/><path id="XMLID_610_" d="M351.2897034,190.9332428v6.2945099h-15.7591553v6.5213013h14.1745911v6.0229492h-14.1745911 v6.5665741h16.2575073v6.2497559h-23.322937v-31.6550903H351.2897034z" class="st0"/><path id="XMLID_608_" d="M16.7235622,249.5475159c1.9460926,0,3.5368843-0.7699127,4.7723751-2.3097229 l2.5386086,2.614563c-2.0142403,2.2680969-4.3874226,3.4011078-7.1205883,3.4011078s-4.9840975-0.8625031-6.7522802-2.5895844 c-1.7687016-1.7260437-2.6530528-3.9046631-2.6530528-6.5358734c0-2.6322479,0.9009976-4.8275146,2.7035136-6.5878906 c1.802515-1.7603912,4.0066299-2.6405792,6.6128645-2.6405792c2.9105549,0,5.347723,1.1090851,7.3109818,3.3262024 l-2.4621372,2.7924652c-1.2526569-1.5574951-2.8096352-2.3357239-4.6709328-2.3357239 c-1.4893522,0-2.7633381,0.4869232-3.8203974,1.4597015c-1.0580997,0.9738312-1.5866299,2.2847443-1.5866299,3.934845 s0.4988775,2.9745331,1.4976749,3.97229C14.0918379,249.048111,15.3018379,249.5475159,16.7235622,249.5475159z" class="st0"/><path id="XMLID_605_" d="M41.7023201,250.6004181c-1.7936745,1.7520447-4.0024719,2.6280823-6.625351,2.6280823 c-2.6234016,0-4.8321991-0.8760376-6.6258717-2.6280823c-1.7936707-1.7510223-2.6905079-3.9296417-2.6905079-6.5358734 c0-2.6062469,0.8968372-4.7859039,2.6905079-6.5369263c1.7936726-1.7520447,4.00247-2.6280823,6.6258717-2.6280823 c2.622879,0,4.8316765,0.8760376,6.625351,2.6280823c1.7936707,1.7510223,2.6910286,3.9306793,2.6910286,6.5369263 C44.3933487,246.6707764,43.4959908,248.8493958,41.7023201,250.6004181z M40.3570633,244.0770264 c0-1.5824738-0.5077209-2.9318848-1.5231628-4.0492859c-1.0154419-1.1163635-2.2634201-1.6750641-3.7444458-1.6750641 c-1.4810295,0-2.7290039,0.5587006-3.7444477,1.6750641c-1.0154438,1.1174011-1.522644,2.4668121-1.522644,4.0492859 s0.5072002,2.9277191,1.522644,4.0357666c1.0154438,1.1090698,2.2634182,1.6625671,3.7444477,1.6625671 c1.4810257,0,2.7290039-0.5534973,3.7444458-1.6625671C39.8493423,247.0047455,40.3570633,245.6595001,40.3570633,244.0770264z" class="st0"/><path id="XMLID_603_" d="M63.6352654,241.8807068l-4.797863,9.6976929h-2.3612175l-4.772377-9.6976929v11.1698761 h-3.9598122v-17.7442474h5.3560486l4.5694923,9.7476349l4.594986-9.7476349h5.330555v17.7442474h-3.9598122V241.8807068z" class="st0"/><path id="XMLID_600_" d="M84.1844635,236.8929749c1.2438126,1.0581055,1.8659821,2.6821899,1.8659821,4.8743286 c0,2.1911163-0.6388168,3.7943878-1.9164429,4.8098297c-1.2781448,1.0154419-3.2284012,1.5231628-5.8512802,1.5231628h-2.3612213 v4.9502869h-3.9598083v-17.7442474h6.27005C80.9560623,235.3063354,82.9406509,235.8348694,84.1844635,236.8929749z M81.2780685,243.8741455c0.4733887-0.5337372,0.7106018-1.3119659,0.7106018-2.3357239 c0-1.0237732-0.3089981-1.7520599-0.9264832-2.182785c-0.6180115-0.431778-1.5783081-0.6481781-2.881424-0.6481781h-2.2592621 v5.9657288h2.6655426C79.9073257,244.6731873,80.8041611,244.4068298,81.2780685,243.8741455z" class="st0"/><path id="XMLID_598_" d="M93.8431396,248.4686127c0.660141,0.8208771,1.5486526,1.2308044,2.665535,1.2308044 s2.001236-0.4099274,2.6530533-1.2308044c0.6512985-0.8208923,0.9769516-1.9424591,0.9769516-3.3636627v-9.7986145h3.9603271 v9.9255524c0,2.572937-0.7106018,4.5486755-2.1323242,5.9272308c-1.4217224,1.3795776-3.2408829,2.0693817-5.4580078,2.0693817 c-2.2171173,0-4.0404434-0.6939545-5.4704895-2.0818634c-1.4300461-1.3879242-2.1448135-3.3594971-2.1448135-5.9147491v-9.9255524 h3.959816v9.7986145C92.8531876,246.5261536,93.1835175,247.6477203,93.8431396,248.4686127z" class="st0"/><path id="XMLID_596_" d="M115.7251053,238.7334595v14.3171234h-3.9603348v-14.3171234h-5.0262375v-3.427124 h14.0133286v3.427124H115.7251053z" class="st0"/><path id="XMLID_594_" d="M123.6452484,235.3063354h3.9608536v17.7442474h-3.9608536V235.3063354z" class="st0"/><path id="XMLID_592_" d="M144.3848419,235.3063354h3.9598083v17.7442474h-3.9598083l-8.4533539-11.1188965v11.1188965 h-3.9608612v-17.7442474h3.7070007l8.7072144,11.4237366V235.3063354z" class="st0"/><path id="XMLID_590_" d="M164.2359161,244.0135651h3.984787v6.2955322 c-1.760376,1.9632568-4.1970215,2.9443665-7.3109741,2.9443665c-2.6062469,0-4.7931976-0.8625031-6.5618896-2.5895844 c-1.7687073-1.7260437-2.6530609-3.9046631-2.6530609-6.5358734c0-2.6322479,0.9020386-4.8275146,2.7040405-6.5878906 c1.8019867-1.7603912,3.9764557-2.6405792,6.5244293-2.6405792c2.5458832,0,4.7588501,0.8385773,6.6378326,2.5136414 l-2.0558624,2.9703827c-0.7959137-0.6939545-1.5283661-1.1715088-2.1963043-1.4347382 c-0.6689911-0.2621765-1.3920746-0.3932648-2.1703033-0.3932648c-1.5065155,0-2.7758179,0.5118713-3.8079071,1.5356445 c-1.0320892,1.0248108-1.5481415,2.3731842-1.5481415,4.0492859c0,1.6750641,0.4942017,3.0171967,1.4846802,4.0232849 c0.9904633,1.0071106,2.1702881,1.5106812,3.5415649,1.5106812c1.370224,0,2.5125885-0.2621918,3.4271088-0.7865601V244.0135651z" class="st0"/><path id="XMLID_588_" d="M190.6363983,235.3063354v3.4781036h-8.2244568v3.8328857h7.8186951v3.4781036h-7.8186951 v6.9551544h-3.9608612v-17.7442474H190.6363983z" class="st0"/><path id="XMLID_585_" d="M208.9133453,250.6004181c-1.7936859,1.7520447-4.0024719,2.6280823-6.625351,2.6280823 c-2.6239319,0-4.8316803-0.8760376-6.625351-2.6280823c-1.7947235-1.7510223-2.6915588-3.9296417-2.6915588-6.5358734 c0-2.6062469,0.8968353-4.7859039,2.6915588-6.5369263c1.7936707-1.7520447,4.0014191-2.6280823,6.625351-2.6280823 c2.622879,0,4.831665,0.8760376,6.625351,2.6280823c1.7936707,1.7510223,2.690506,3.9306793,2.690506,6.5369263 C211.6038513,246.6707764,210.707016,248.8493958,208.9133453,250.6004181z M207.5680847,244.0770264 c0-1.5824738-0.5077209-2.9318848-1.5231628-4.0492859c-1.0154419-1.1163635-2.2639465-1.6750641-3.7444458-1.6750641 c-1.4805145,0-2.7290039,0.5587006-3.7444458,1.6750641c-1.0154419,1.1174011-1.5231628,2.4668121-1.5231628,4.0492859 s0.5077209,2.9277191,1.5231628,4.0357666c1.0154419,1.1090698,2.2639313,1.6625671,3.7444458,1.6625671 c1.4804993,0,2.7290039-0.5534973,3.7444458-1.6625671C207.0603638,247.0047455,207.5680847,245.6595001,207.5680847,244.0770264z" class="st0"/><path id="XMLID_583_" d="M219.6514435,248.4686127c0.6606598,0.8208771,1.5491791,1.2308044,2.6655426,1.2308044 c1.1174011,0,2.0007019-0.4099274,2.6530457-1.2308044c0.6513062-0.8208923,0.976944-1.9424591,0.976944-3.3636627v-9.7986145 h3.9608612v9.9255524c0,2.572937-0.7116547,4.5486755-2.1328583,5.9272308 c-1.4212036,1.3795776-3.2408752,2.0693817-5.4579926,2.0693817c-2.2171326,0-4.0409698-0.6939545-5.4705048-2.0818634 c-1.4305573-1.3879242-2.1453247-3.3594971-2.1453247-5.9147491v-9.9255524h3.9608459v9.7986145 C218.6620026,246.5261536,218.9918213,247.6477203,219.6514435,248.4686127z" class="st0"/><path id="XMLID_581_" d="M246.4327087,235.3063354h3.9598083v17.7442474h-3.9598083l-8.4533539-11.1188965v11.1188965 h-3.9608459v-17.7442474h3.7069855l8.7072144,11.4237366V235.3063354z" class="st0"/><path id="XMLID_578_" d="M268.3146667,237.62854c1.6917114,1.5491791,2.5386353,3.7028351,2.5386353,6.460968 c0,2.7591705-0.8250732,4.9419708-2.4751587,6.549408c-1.6500854,1.6084747-4.1679077,2.4116669-7.5523682,2.4116669h-6.0676727 v-17.7442474h6.2705536C264.1936035,235.3063354,266.6219177,236.0804138,268.3146667,237.62854z M265.4077759,248.1762543 c0.9727783-0.9134827,1.4596863-2.2420959,1.4596863-3.984787c0-1.7437286-0.486908-3.0848236-1.4596863-4.0243073 c-0.9738464-0.9384613-2.4668274-1.4087219-4.4810791-1.4087219h-2.2077332v10.7890778h2.5125732 C263.0429077,249.5475159,264.4339294,249.0907745,265.4077759,248.1762543z" class="st0"/><path id="XMLID_575_" d="M286.4147339,253.0505829l-1.6500854-3.8328705h-7.4378967l-1.650116,3.8328705h-4.2136536 l7.6667786-17.7442474h3.8328857l7.6657715,17.7442474H286.4147339z M281.0586853,240.586441l-2.2337646,5.1531677h4.4425659 L281.0586853,240.586441z" class="st0"/><path id="XMLID_573_" d="M298.9049072,238.7334595v14.3171234h-3.9608459v-14.3171234h-5.0262451v-3.427124 h14.0133362v3.427124H298.9049072z" class="st0"/><path id="XMLID_571_" d="M306.8234863,235.3063354h3.9608459v17.7442474h-3.9608459V235.3063354z" class="st0"/><path id="XMLID_568_" d="M330.0767212,250.6004181c-1.7936707,1.7520447-4.0024719,2.6280823-6.6253662,2.6280823 c-2.6239014,0-4.831665-0.8760376-6.6253357-2.6280823c-1.7947083-1.7510223-2.6915588-3.9296417-2.6915588-6.5358734 c0-2.6062469,0.8968506-4.7859039,2.6915588-6.5369263c1.7936707-1.7520447,4.0014343-2.6280823,6.6253357-2.6280823 c2.6228943,0,4.8316956,0.8760376,6.6253662,2.6280823c1.7936707,1.7510223,2.6904907,3.9306793,2.6904907,6.5369263 C332.7672119,246.6707764,331.8703918,248.8493958,330.0767212,250.6004181z M328.7314758,244.0770264 c0-1.5824738-0.5077209-2.9318848-1.5231628-4.0492859c-1.0154724-1.1163635-2.2639465-1.6750641-3.7444458-1.6750641 c-1.4805298,0-2.7290039,0.5587006-3.7444763,1.6750641c-1.0154419,1.1174011-1.5231628,2.4668121-1.5231628,4.0492859 s0.5077209,2.9277191,1.5231628,4.0357666c1.0154724,1.1090698,2.2639465,1.6625671,3.7444763,1.6625671 c1.4804993,0,2.7289734-0.5534973,3.7444458-1.6625671C328.2237549,247.0047455,328.7314758,245.6595001,328.7314758,244.0770264z" class="st0"/><path id="XMLID_566_" d="M348.5315552,235.3063354h3.9598083v17.7442474h-3.9598083l-8.4533386-11.1188965v11.1188965 h-3.9608765v-17.7442474h3.7070007l8.7072144,11.4237366V235.3063354z" class="st0"/></g></g><g id="XMLID_83_"><g id="XMLID_89_"><polygon id="XMLID_93_" points="124.386 109.88 102.135 109.88 102.135 161.791 154.044 161.791 154.044 139.542 124.386 139.542" class="st1"/><polygon id="XMLID_92_" points="235.617 110.046 235.617 139.542 206.119 139.542 205.956 139.378 205.956 161.791 257.865 161.791 257.865 109.88 235.451 109.88" class="st1"/><polygon id="XMLID_91_" points="102.135 57.978 124.552 57.978 124.386 57.807 124.386 28.317 124.386 28.31 153.881 28.31 154.044 28.476 154.044 6.063 102.135 6.063" class="st1"/><polygon id="XMLID_90_" points="205.956 6.063 205.956 28.31 235.617 28.31 235.617 57.978 257.865 57.978 257.865 6.063" class="st1"/></g><g id="XMLID_84_"><polygon id="XMLID_88_" points="203.209 57.978 173.543 28.31 205.956 28.31 205.956 6.063 154.044 6.063 154.044 28.476 183.544 57.978" class="st2"/><polygon id="XMLID_87_" points="176.456 109.88 156.794 109.88 181.372 134.461 186.457 139.542 176.295 139.542 154.044 139.542 154.044 161.791 205.956 161.791 205.956 139.378 191.204 124.627" class="st2"/><polygon id="XMLID_86_" points="235.617 57.978 235.617 80.223 235.617 90.384 230.534 85.3 205.956 60.724 205.956 80.388 220.702 95.132 235.451 109.88 257.865 109.88 257.865 57.978" class="st2"/><polygon id="XMLID_85_" points="154.044 87.465 124.552 57.978 102.135 57.978 102.135 109.88 124.386 109.88 124.386 77.471 154.044 107.129" class="st2"/></g></g></svg>