<?xml version="1.0" encoding="utf-8"?>
<!-- Generator: Adobe Illustrator 22.0.1, SVG Export Plug-In . SVG Version: 6.00 Build 0)  -->
<svg version="1.1" id="Layer_1" xmlns="http://www.w3.org/2000/svg" xmlns:xlink="http://www.w3.org/1999/xlink" x="0px" y="0px"
	 viewBox="0 0 24 24" style="enable-background:new 0 0 24 24;" xml:space="preserve">
<style type="text/css">
	.st0{fill:#FFFFFF;}
</style>
<path class="st0" d="M20,12.8c-0.1,0.1-1.1,1.5-1.4,1.9c-0.4,0.5-0.8,0.9-1.1,1.2l-6.5,4.8c-0.3,0.2-0.8,0.2-1-0.1c0,0,0,0,0,0
	c-0.2-0.3-0.2-0.8,0.1-1l3.9-2.9l0.1-0.1l0,0l0.5-0.4l0.2-0.1l0,0l0.1-0.1l0,0l0,0c0.2-0.2,0.3-0.5,0.1-0.7
	c-0.2-0.2-0.5-0.3-0.7-0.1l0,0l-0.3,0.3l0,0l-0.2,0.2l-0.1,0.1l-4.1,3l-1.3,1c-0.3,0.2-0.8,0.2-1-0.2c-0.2-0.3-0.2-0.8,0.2-1l2.7-2
	l1.8-1.3L12,15l0.2-0.1l0.2-0.1l0,0c0.1,0,0.1-0.1,0.2-0.1c0.2-0.2,0.3-0.5,0.1-0.7s-0.5-0.3-0.7-0.1l-0.1,0.1
	c-0.1,0.1-0.2,0.1-0.4,0.3l-4.7,3.5l-1.2,0.9c-0.3,0.2-0.8,0.2-1-0.1c0,0,0,0,0,0c-0.2-0.3-0.2-0.8,0.2-1l0.9-0.6
	c0.2-0.1,0.3-0.1,0.5-0.3l4.4-3.3l0.8-0.6c0,0,0,0,0.1-0.1c0,0,0.1-0.1,0.1-0.1c0,0,0-0.1,0-0.1c0,0,0-0.1,0-0.1c0,0,0-0.1,0-0.1
	c0,0,0-0.1,0-0.1c0,0,0-0.1,0-0.1c0,0,0-0.1,0-0.1l0,0v0c0,0-0.1,0-0.1-0.1c0,0,0,0-0.1-0.1c0,0-0.1,0-0.1,0c0,0-0.1,0-0.1,0
	c0,0-0.1,0-0.1,0c0,0-0.1,0-0.1,0c0,0-0.1,0-0.1,0c0,0-0.1,0-0.1,0l-5.5,4.1c-0.3,0-0.5-0.1-0.7-0.3c-0.2-0.3-0.2-0.8,0.2-1l5.2-4
	c0.4-0.3,0.8-0.5,1.2-0.7c0.4-0.2,0.9-0.4,1.4-0.6c0.4-0.1,0.7-0.2,1-0.1c0.9,0.1,1.8,0.1,2.7,0.2l0.5,0.1c1,0.1,1.9-0.6,2-1.6l0,0
	c0.1-1.1-0.6-2.1-1.7-2.2c0,0-0.1,0-0.1,0c-0.5,0-1-0.1-1.4-0.1c-0.3,0-0.6-0.1-0.9-0.1c0.4,0,1-0.1,1.7-0.1c0.2,0,0.2,0,0.4,0
	c0.5,0,1-0.1,1.4-0.1l0.6-0.1l0.1,0l4,5.4C21.5,11,20.8,11.7,20,12.8 M19.8,15.5c-0.2,0.2-0.4,0.3-0.7,0.3l-0.1,0
	c0.1-0.1,0.2-0.3,0.3-0.4c0.1-0.1,0.3-0.4,0.5-0.6C20,15,20,15.3,19.8,15.5 M19.6,18.4c-0.2,0.3-0.7,0.4-1,0.2c0,0,0,0,0,0l-1.5-1.1
	l0,0l1-0.7c0.1,0,0.1-0.1,0.2-0.2c0.1,0.1,0.3,0.2,0.4,0.2l0.8,0.6C19.8,17.6,19.9,18.1,19.6,18.4 M16.9,19.5
	c-0.2,0.3-0.7,0.4-1,0.2c0,0,0,0,0,0L15,19l1.2-0.9l0.5,0.4C17.1,18.7,17.1,19.2,16.9,19.5 M14.1,20.5c-0.2,0.3-0.7,0.4-1,0.2
	c0,0,0,0,0,0l-0.2-0.1l1.2-0.9C14.3,19.9,14.3,20.3,14.1,20.5 M1.7,10.3l4-5.4c0,0,0,0,0.1,0L6.4,5C7,5,7.6,5.1,8.2,5.1
	c1.1,0.1,1.9,0.1,2.2,0.1c0.3,0,0.8,0.1,1.5,0.4l0.3,0.1c1.1,0.4,1.3,0.4,1.6,0.5c0.3,0,0.6,0.1,1,0.1c0.5,0.1,1,0.1,1.5,0.1
	c0.5,0,0.9,0.5,0.9,1.1l0,0c-0.1,0.4-0.4,0.7-0.8,0.7c-0.6-0.1-1.2-0.1-1.9-0.2c-0.4,0-0.9-0.1-1.3-0.1l-0.1,0c-0.4,0-0.9,0-1.3,0.2
	c-0.5,0.2-1.1,0.4-1.6,0.7C9.8,9.1,9.4,9.4,9,9.7l-4.6,3.5C3.3,11.8,2.6,11,1.7,10.3 M23.9,10.8l-5.6-7.5c-0.2-0.2-0.5-0.3-0.7-0.1
	c0,0,0,0,0,0c-0.2,0.2-0.3,0.5-0.1,0.7l0.1,0.1l0,0c-0.5,0-1,0.1-1.4,0.1c-0.2,0-0.2,0-0.4,0c-1.1,0.1-1.8,0.1-2.2,0.1
	c-0.4,0-0.9,0.1-1.5,0.3c-0.6-0.2-1.1-0.3-1.5-0.3c-0.4,0-1.1-0.1-2.2-0.1c-0.2,0-0.2,0-0.4,0C7.4,4,7,4,6.5,3.9l0,0l0.1-0.1
	c0.2-0.2,0.1-0.6-0.1-0.7C6.2,2.9,5.8,3,5.7,3.2l-5.6,7.5C-0.1,11,0,11.3,0.2,11.5c0.2,0.2,0.6,0.1,0.7-0.1l0.1-0.2
	c0.8,0.6,1.4,1.3,2.4,2.7c-0.6,0.6-0.7,1.6-0.1,2.3c0.1,0.2,0.3,0.3,0.5,0.4c-0.8,0.6-0.9,1.7-0.3,2.5C4.1,19.8,5.2,20,6,19.4
	c0.2,1,1.1,1.6,2.1,1.4c0.3-0.1,0.5-0.2,0.7-0.3l0,0c0.1,0.2,0.1,0.5,0.3,0.7c0.6,0.8,1.7,1,2.5,0.4c0,0,0,0,0,0l0.4-0.3l0.5,0.3
	c0.8,0.6,1.9,0.4,2.5-0.4c0.2-0.2,0.3-0.4,0.3-0.7l0,0c0.8,0.6,1.9,0.4,2.5-0.4c0,0,0,0,0,0c0.2-0.2,0.3-0.4,0.3-0.7
	c0.8,0.5,1.9,0.4,2.4-0.4c0.6-0.8,0.4-1.8-0.3-2.4c0.8-0.5,1.1-1.6,0.5-2.5c-0.1-0.1-0.1-0.2-0.2-0.3c0.1-0.1,0.2-0.3,0.3-0.4
	c0.8-1,1.4-1.7,2.1-2.2l0.1,0.2c0.2,0.2,0.5,0.3,0.7,0.1c0,0,0,0,0,0C24,11.3,24.1,11,23.9,10.8"/>
</svg>
