<svg xmlns="http://www.w3.org/2000/svg" width="24" height="24" viewBox="0 0 24 24"><path fill-rule="evenodd" d="M19.986 12.802c-.105.142-1.128 1.54-1.413 1.9-.429.542-.788.918-1.142 1.18l-6.49 4.803a.731.731 0 0 1-1.027-.15.734.734 0 0 1 .15-1.018l3.914-2.898.071-.052.01-.008.515-.38.174-.13.035-.024.101-.076.017-.012-.003-.003a.52.52 0 0 0 .096-.715.52.52 0 0 0-.71-.118l-.004-.003-.344.255-.012.01-.245.18-.146.108-4.089 3.026-1.324.979a.73.73 0 1 1-.864-1.177l2.67-1.976 1.792-1.327.25-.183.198-.147.198-.147.026-.02c.057-.042.101-.073.166-.123a.52.52 0 1 0-.62-.838l-.145.106c-.079.059-.18.135-.417.309l-4.74 3.508-1.25.924a.723.723 0 0 1-1.018-.155.73.73 0 0 1 .15-1.02l.851-.63c.167-.06.33-.137.48-.251l4.398-3.341.828-.63c.025-.02.042-.048.063-.071.024-.027.054-.051.071-.08.016-.028.021-.062.033-.092.011-.033.028-.062.033-.097.004-.033-.003-.066-.005-.1 0-.033.003-.067-.007-.1-.007-.033-.028-.063-.044-.094-.014-.031-.02-.062-.042-.09l-.002-.002v-.003c-.022-.03-.052-.045-.079-.07-.025-.021-.046-.048-.075-.065-.03-.018-.064-.022-.096-.035-.032-.01-.06-.025-.093-.03-.034-.006-.067.003-.1.005-.034 0-.067-.003-.099.004-.035.009-.063.03-.096.045-.029.014-.062.02-.089.04L4.9 15.81a.699.699 0 0 1-.693-.273.752.752 0 0 1 .151-1.04l5.225-3.97a10.99 10.99 0 0 1 1.19-.74 7.225 7.225 0 0 1 1.36-.58c.363-.107.687-.154.957-.137a75.497 75.497 0 0 1 2.678.225l.534.054c.974.1 1.85-.595 1.973-1.565l.006-.048a1.982 1.982 0 0 0-1.842-2.245 32.272 32.272 0 0 1-1.448-.113 11.098 11.098 0 0 1-.885-.12c.422-.023.977-.062 1.668-.12.204-.015.204-.015.405-.032.472-.04.956-.08 1.428-.122l.62-.055.063-.001 4.01 5.418c-.8.618-1.499 1.377-2.313 2.457m-.187 2.734a.701.701 0 0 1-.689.277l-.062-.047c.112-.13.225-.267.343-.416.097-.121.271-.353.462-.611a.743.743 0 0 1-.054.797m-.16 2.874a.728.728 0 0 1-1.025.15l-1.477-1.091-.048-.036.962-.712c.066-.048.13-.104.194-.157.127.087.26.152.398.202l.842.622c.321.237.392.7.153 1.022m-2.727 1.097a.728.728 0 0 1-1.02.153l-.906-.67 1.228-.908.545.404c.32.235.39.7.153 1.02m-2.82 1.03a.721.721 0 0 1-1.014.158l-.197-.146 1.194-.883a.717.717 0 0 1 .016.87M1.707 10.34l4.016-5.43c.02.005.035.017.054.019l.621.055a229.062 229.062 0 0 0 1.833.155c1.08.087 1.864.14 2.25.146.317.005.79.125 1.486.366l.338.12c1.15.41 1.254.447 1.604.513.26.049.59.092.973.132a27.383 27.383 0 0 0 1.493.116c.55.04.94.513.87 1.074l-.006.049a.76.76 0 0 1-.828.658 91.811 91.811 0 0 0-1.87-.18 69.391 69.391 0 0 0-1.307-.1l-.076-.003c-.407-.027-.85.036-1.323.176a8.345 8.345 0 0 0-1.557.662 12.609 12.609 0 0 0-1.322.825l-4.634 3.52c-1.063-1.437-1.72-2.184-2.615-2.873m22.188.413l-5.573-7.533a.527.527 0 0 0-.736-.118.532.532 0 0 0-.103.738l.074.1-.043.005c-.469.042-.952.083-1.422.122-.2.015-.2.015-.403.033-1.055.085-1.828.136-2.182.14-.4.007-.876.12-1.505.325-.632-.205-1.104-.318-1.504-.324-.354-.005-1.128-.056-2.182-.141-.204-.018-.204-.018-.404-.033-.469-.04-.952-.08-1.422-.122l-.049-.005.075-.1a.532.532 0 0 0-.102-.738.528.528 0 0 0-.737.118L.103 10.752a.531.531 0 0 0 .104.737c.231.17.56.12.735-.118l.145-.194c.797.617 1.408 1.317 2.421 2.69a1.79 1.79 0 0 0-.14 2.29c.134.183.298.327.478.44a1.768 1.768 0 0 0 2.105 2.84 1.77 1.77 0 0 0 2.789 1.058l.031-.023c.051.24.15.476.303.684a1.774 1.774 0 0 0 2.487.368l.441-.326.454.335a1.766 1.766 0 0 0 2.78-1.06l.033.027a1.771 1.771 0 0 0 2.48-.374c.156-.211.255-.447.303-.69a1.771 1.771 0 0 0 2.425-.405 1.775 1.775 0 0 0-.317-2.432 1.782 1.782 0 0 0 .338-2.731 98.5 98.5 0 0 1 .321-.438c.758-1.003 1.395-1.696 2.1-2.245l.138.186a.526.526 0 0 0 .736.118.53.53 0 0 0 .102-.737"/></svg>