<svg xmlns="http://www.w3.org/2000/svg" width="24" height="24" viewBox="0 0 24 24"><path fill-rule="evenodd" d="M18.373 19.699l-2.85-2.85c.51-.372.958-.82 1.329-1.33l2.85 2.851c-.4.483-.846.929-1.329 1.329m-11.937.604l2.922-2.922A5.975 5.975 0 0 0 12 18c.949 0 1.844-.227 2.642-.619l2.922 2.922A9.935 9.935 0 0 1 12 22a9.935 9.935 0 0 1-5.564-1.697M4.298 18.37l2.85-2.851a6.01 6.01 0 0 0 1.329 1.33l-2.85 2.85c-.483-.4-.929-.846-1.329-1.329M3.696 6.435l2.923 2.924A5.97 5.97 0 0 0 6 12c0 .947.226 1.84.617 2.637L3.693 17.56A9.945 9.945 0 0 1 2 12c0-2.058.626-3.973 1.696-5.565m1.935-2.137l2.849 2.85c-.51.37-.958.819-1.329 1.328l-2.85-2.849c.401-.484.846-.929 1.33-1.329m11.929-.605l-2.923 2.924a5.955 5.955 0 0 0-5.274 0L6.44 3.693A9.945 9.945 0 0 1 12 2c2.056 0 3.969.625 5.56 1.693m2.139 1.934l-2.85 2.849a6.006 6.006 0 0 0-1.33-1.328l2.85-2.85c.484.4.929.845 1.33 1.329m-2.318 3.732l2.923-2.924A9.946 9.946 0 0 1 22 12a9.945 9.945 0 0 1-1.693 5.56l-2.923-2.923c.39-.797.616-1.69.616-2.637a5.97 5.97 0 0 0-.619-2.641M12 17c-2.757 0-5-2.243-5-5s2.243-5 5-5 5 2.243 5 5-2.243 5-5 5m0-16C5.925 1 1 5.925 1 12s4.925 11 11 11 11-4.925 11-11S18.075 1 12 1"/></svg>