<svg width="28" height="28" viewBox="0 0 28 28" xmlns="http://www.w3.org/2000/svg"><defs><linearGradient x1="0%" y1="50%" x2="100%" y2="50%" id="a"><stop stop-color="#134AFF" offset="0%"/><stop stop-color="#8768FF" offset="100%"/></linearGradient></defs><g fill="none"><path d="M5.128 0h17.744c1.783 0 2.43.186 3.082.534.652.349 1.163.86 1.512 1.512.348.652.534 1.299.534 3.082v17.744c0 1.783-.186 2.43-.534 3.082a3.635 3.635 0 0 1-1.512 1.512c-.652.348-1.299.534-3.082.534H5.128c-1.783 0-2.43-.186-3.082-.534a3.635 3.635 0 0 1-1.512-1.512C.186 25.302 0 24.655 0 22.872V5.128c0-1.783.186-2.43.534-3.082A3.635 3.635 0 0 1 2.046.534C2.698.186 3.345 0 5.128 0Z" fill="url(#a)"/><path d="M11.531 19.262c-1.07 0-1.92-.242-2.551-.726-.631-.485-.958-1.18-.98-2.088h1.97c.081.791.598 1.186 1.55 1.186.354 0 .655-.071.902-.215a.708.708 0 0 0 .37-.656.647.647 0 0 0-.232-.506 1.455 1.455 0 0 0-.469-.285c-.16-.054-.46-.14-.903-.256a.233.233 0 0 1-.045-.018.336.336 0 0 0-.033-.01.17.17 0 0 0-.044-.006c-.34-.085-.618-.16-.836-.227a5.075 5.075 0 0 1-.742-.302 2.443 2.443 0 0 1-.658-.448 2.011 2.011 0 0 1-.415-.645 2.28 2.28 0 0 1-.172-.9c0-.853.29-1.493.868-1.919.58-.426 1.339-.64 2.276-.64.9 0 1.637.219 2.209.652.572.434.876 1.07.914 1.907h-1.916c-.038-.318-.167-.563-.388-.739-.222-.174-.516-.261-.885-.261-.34 0-.615.071-.825.215-.21.143-.316.331-.316.564 0 .263.125.455.376.574.252.12.724.263 1.419.425.434.108.792.215 1.072.32.28.104.566.254.859.447.29.194.509.444.653.75.143.305.216.673.216 1.099 0 .845-.305 1.507-.914 1.987-.61.481-1.385.721-2.33.721m5.237-11.217-1.985.844 4.22 10.374L21 18.449z" fill="#FFF"/></g></svg>