<svg width="34" height="34" viewBox="0 0 34 34" fill="none" xmlns="http://www.w3.org/2000/svg">
<path d="M16.9997 0.333374L17.466 0.339781C26.4506 0.586979 33.6663 7.95597 33.6663 17C33.6663 26.1834 26.1997 33.6667 16.9997 33.6667C7.81634 33.6667 0.333008 26.1834 0.333008 17C0.333008 7.80004 7.81634 0.333374 16.9997 0.333374ZM20.2997 10.3334C19.7997 9.83337 19.0163 9.83337 18.533 10.3334L12.7163 16.1167C12.483 16.35 12.3497 16.6667 12.3497 17C12.3497 17.3334 12.483 17.65 12.7163 17.8834L18.533 23.6667C18.7663 23.9167 19.083 24.0334 19.3997 24.0334C19.733 24.0334 20.0497 23.9167 20.2997 23.6667C20.783 23.1667 20.783 22.3834 20.283 21.9L15.3663 17L20.283 12.1C20.783 11.6167 20.783 10.8167 20.2997 10.3334Z" fill="#200E32"/>
</svg>
