<svg xmlns="http://www.w3.org/2000/svg" xmlns:xlink="http://www.w3.org/1999/xlink" id="Layer_1" x="0" y="0" version="1.1" viewBox="0 0 1049.2 925.9" xml:space="preserve" style="enable-background:new 0 0 1049.2 925.9"><style type="text/css">.st0{fill:none}.st1{fill:#477e96}.st2{fill:#62accd}.st3{fill:#3c494e}.st4{fill:#00b39f}.st5{stroke:#00d3a9;stroke-width:22.1}.st5,.st6,.st7{fill:#00d3a9}.st6{display:none}.st7{stroke:#00d3a9}.st8{fill:#3c494f}.st9{fill:#00d3a9;stroke:#00d3a9;stroke-miterlimit:10}</style><g><polygon points="262.2 641.5 262.2 546.5 131.1 622.3 131.1 924.4 262.2 924.4 262.2 818.6 251.7 812.6 251.7 798.3 262.2 792.3 262.2 667.8 251.9 661.8 251.9 647.5"/></g><g><polygon points="0 819.5 10.3 813.5 10.3 799.2 0 793.2" class="st0"/><path d="M0,546.6v94.8l10.3,6.1v14.4L0,668v256.6h131.1V622.4L0,546.6z M10.3,813.5l-10.3,6v-26.3l10.3,6V813.5z" class="st1"/></g><path d="M262.2,546.5l-131.1-75.7L0,546.5l0,0l0,0l131.1,75.7L262.2,546.5L262.2,546.5L262.2,546.5z M131.1,868.8v14.4	L10.3,813.5v-14.4L131.1,868.8z" class="st2"/><path d="M131.1,895.1L0,819.3l10.3-6l120.8,69.8V895.1z" class="st3"/><path d="M131.1,895.2l131.1-75.8l-10.3-6l-120.6,69.8L131.1,895.2z" class="st3"/><path d="M131.1,717.3v14.4L10.3,661.9v-14.4L131.1,717.3z" class="st2"/><path d="M393.3,319.4v399.8l131,74.1l0.1-398.2L393.3,319.4z M403.6,586.2l-10.3,6v-26.3l10.3,6V586.2z M403.6,434.7	l-10.3,6v-26.3l10.3,6V434.7z" class="st1"/><g><polygon points="1038.4 193.3 1048.7 188 1048.7 92.3 917.6 168 917.6 567.8 1048.7 492.1 1048.7 364.4 1038.4 359.1 1038.4 344.8 1048.7 339.5 1048.7 212.9 1038.4 207.6"/></g><path d="M131.1,743.7L0,667.9l10.3-6l120.8,69.8V743.7z" class="st3"/><path d="M131.1,717.3v14.4l120.8-69.8v-14.4L131.1,717.3z" class="st2"/><path d="M131.1,743.7l131.1-75.8l-10.3-6l-120.6,69.8L131.1,743.7z" class="st3"/><path d="M653.9,319.4l-129.5-75.7l-131.1,75.7l131.1,75.7L653.9,319.4L653.9,319.4L653.9,319.4z M524.4,641.7l0,14.4	l-120.7-69.8v-14.4L524.4,641.7z" class="st2"/><path d="M524.4,668l-131.1-75.8l10.3-6l120.8,69.9L524.4,668z" class="st3"/><g><polygon points="786.5 92.3 786.5 187.3 796.8 193.3 796.8 207.6 786.5 213.6 786.5 338.8 796.8 344.8 796.8 359.2 786.5 365.2 786.5 492.1 917.6 567.8 917.6 168" class="st1"/></g><path d="M918.3,274.9h-0.7V351" class="st3"/><g><polygon points="262.1 698.3 262.1 793.3 272.4 799.3 272.4 813.6 262.1 819.6 262.1 924.3 393.2 924.3 393.2 774" class="st1"/></g><path d="M1048.7,92.3L917.6,16.6L786.5,92.3l0,0l0,0L917.6,168L1048.7,92.3L1048.7,92.3L1048.7,92.3z M917.6,414.6V429	l-120.8-69.8v-14.4L917.6,414.6z" class="st2"/><path d="M917.6,441l-131.1-75.8l10.3-6L917.6,429L917.6,441z" class="st3"/><g><polygon points="393.4 774 393.4 924.3 524.5 924.3 524.5 819.6 514.2 813.6 514.2 799.3 524.5 793.3 524.5 698.3"/></g><path d="M917.6,414.6V429l120.8-69.8v-14.4L917.6,414.6z" class="st2"/><path d="M917.6,440.9l131.1-76.5l-10.3-5.3l-120.6,69.8L917.6,440.9z" class="st3"/><path d="M917.6,263.1v14.4l-120.8-69.8v-14.4L917.6,263.1z" class="st2"/><path d="M917.6,289.4l-131.1-75.8l10.3-6l120.8,69.9V289.4z" class="st3"/><path d="M917.6,263.1v14.4l120.8-69.8v-14.4L917.6,263.1z" class="st2"/><path d="M917.6,289.4l131.1-76.5l-10.3-5.3l-120.8,69.9V289.4z" class="st3"/><g><polygon points="916.7 566.4 916.7 471.2 785.6 546.9 785.6 925.2 822.8 925.2 916.7 871 916.7 744.1 906.3 738 906.3 723.7 916.7 717.6 916.7 592.3 906.1 586.5 906.1 572.2"/></g><path d="M524.4,698.3l-131.1-75.7l-131.1,75.7l0,0l0,0L393.3,774L524.4,698.3L524.4,698.3L524.4,698.3z M393.2,869.1	v14.4l-120.8-69.8v-14.4L393.2,869.1z" class="st2"/><path d="M393.2,895.4l-131.1-75.8l10.3-6l120.7,69.9L393.2,895.4z" class="st3"/><path d="M393.2,869.1v14.4L514,813.7v-14.4L393.2,869.1z" class="st2"/><path d="M655.4,471.3v399.8l93.9,54.2h37.2V547L655.4,471.3z M665.8,738.1l-10.4,6v-26.4l10.4,6.1V738.1z M665.8,586.6	l-10.4,6l0-26.4l10.4,6.1V586.6z" class="st1"/><path d="M393.2,895.4l131.1-75.8l-10.3-6l-120.6,69.9L393.2,895.4z" class="st3"/><path d="M786.5,641.5v14.4l119.5-69.4v-14.3L786.5,641.5z" class="st2"/><path d="M916.7,471.2l-131.1-75.7l-131.1,75.7l0,0l0,0l131.1,75.7L916.7,471.2L916.7,471.2L916.7,471.2z" class="st2"/><path d="M786.5,793.5v14.4l-120.8-69.8v-14.4L786.5,793.5z" class="st2"/><path d="M786.5,819.8L655.4,744l10.3-6l120.8,69.9V819.8z" class="st3"/><path d="M786.5,793.5v14.4l119.8-69.8v-14.4L786.5,793.5z" class="st2"/><path d="M786.5,819.8l130.2-75.7l-10.4-6.1l-119.8,69.9V819.8z" class="st3"/><path d="M786.5,641.5v14.4l-120.7-69.4v-14.4L786.5,641.5z" class="st2"/><path d="M786.5,667.8l-131.1-75.1l10.4-6.1l120.7,69.4V667.8z" class="st3"/><path d="M786.5,667.8l130.2-75.4l-10.7-5.8l-119.5,69.4V667.8z" class="st3"/><path d="M655.4,925.5L655.4,925.5H524.3v-75.7L655.4,925.5z" class="st1"/><path d="M655.4,925.5L655.4,925.5h131.1v-75.7L655.4,925.5z"/><path d="M786.5,849.8l-131.1-75.7l-131.1,75.7l0,0l0,0l131.1,75.7L786.5,849.8L786.5,849.8L786.5,849.8z" class="st2"/><path d="M1048.7,546.9l-131.1,75.7l0,0l0,0l131.1,75.7V546.9z" class="st2"/><g><polygon points="928 737.9 928 723.6 917.7 717.6 917.7 717.7 927.9 723.6 927.9 737.9 917.7 743.8 917.7 743.9" class="st0"/><polygon points="917.6 622.6 917.6 717.6 917.7 717.7 917.7 717.6 928 723.6 928 737.9 917.7 743.9 917.7 743.8 917.6 743.9 917.6 869.1 927.9 875.1 927.9 889.5 917.6 895.5 917.6 925.5 1048.7 925.5 1048.7 698.3" class="st1"/><polygon points="917.6 869.1 917.6 895.5 927.9 889.5 927.9 875.1" class="st0"/></g><path d="M1048.7,793.4v14.4L927.9,738v-14.4L1048.7,793.4z" class="st2"/><path d="M1048.7,819.7l-131.1-75.8l10.3-6l120.6,69.8L1048.7,819.7z" class="st3"/><path d="M917.6,74.2v55.2l-64.2-37.1V37.1L917.6,74.2z" class="st1"/><path d="M917.6,74.2l-64.2-37.1L918,0l63.9,37.1L917.6,74.2z" class="st4"/><path d="M917.6,74.2v55.2l64.2-37.1V37.1L917.6,74.2z" class="st3"/><path d="M524.4,301.3v55.2l-64.2-37.1v-55.2L524.4,301.3z" class="st1"/><path d="M97.1,537.5L897.4,76.4" class="st5"/><path d="M524.4,301.3l-64.2-37.1l64.6-37.1l63.9,37.1L524.4,301.3z" class="st4"/><path d="M524.4,301.3v55.2l64.2-37.1v-55.2L524.4,301.3z" class="st3"/><polygon points="393.2 682.1 393.2 737.3 457.4 700.2 457.4 645" class="st3"/><g><polygon points="653.9 414.5 653.9 319.2 524.4 395.2 524.3 794.5 653.8 717.9 653.9 592 643.9 586.7 643.9 572.2 653.9 566.2 653.9 440.8 643.7 434.8 643.7 420.5"/></g><path d="M131.1,528.4v55.2l-64.3-37.1v-55.2L131.1,528.4z" class="st1"/><path d="M131.1,528.4l-64.2-37.1l64.6-37.1l63.9,37.1L131.1,528.4z" class="st4"/><path d="M131.1,528.4v55.2l64.2-37.1v-55.2L131.1,528.4z" class="st3"/><path d="M786.5,455v55.2l-64.2-37.1v-55.2L786.5,455z" class="st1"/><path d="M148,528.4l538,312.3" class="st5"/><path d="M353.8,681.6l11,19.1l684-394v-25.5L353.8,681.6z" class="st6"/><path d="M786.5,455v55.2l64.2-37.1v-55.2L786.5,455z" class="st3"/><path d="M1048.7,604.5v55.2l-64.2-37.1v-55.2L1048.7,604.5z" class="st1"/><path d="M524.4,490.2l0,14.4l-120.8-69.8v-14.4L524.4,490.2z" class="st2"/><path d="M524.4,516.4l-131.1-75.7l10.3-6l120.8,69.9L524.4,516.4z" class="st3"/><path d="M1031.7,591.6L616,831.1l11,19.1l419-241.4C1041.5,602.9,1036.9,597,1031.7,591.6" class="st7"/><path d="M396.7,672.7l405.6-235.3" class="st5"/><path d="M524.4,656.1L643.9,586l10,5.4L524.4,668V656.1z" class="st3"/><path d="M643.7,420.4l0,14.4l-119.3,69.8l0-14.4L643.7,420.4z" class="st2"/><path d="M655.4,831.6v55.2l-64.2-37.1v-55.2L655.4,831.6z" class="st1"/><path d="M409,680.8" class="st5"/><path d="M523.3,314.4" class="st5"/><path d="M655.4,831.6v55.2l64.2-37.1v-55.2L655.4,831.6z" class="st8"/><path d="M393.2,682.1v55.2L329,700.2V645L393.2,682.1z" class="st1"/><path d="M547.9,292.3l-11.1,19.1l513,297.8v-25.6L547.9,292.3z" class="st7"/><path d="M524.4,301.3v27.6l64.2-37.1v-27.6L524.4,301.3z" class="st3"/><path d="M917.6,74.2v27.6l-64.2-37.1V37.1L917.6,74.2z M524.4,301.3v27.6l-64.2-37.1v-27.6L524.4,301.3z" class="st1"/><path d="M961,76.7l-22.1,12.7l109.8,63.7v-25.6L961,76.7z" class="st9"/><path d="M940.1,64.6L961,76.7l20.9-12.1V37l-64.2,37.1v27.6L939,89.4l-9.9-5.8L940.1,64.6z" class="st3"/><path d="M940.1,64.6L929,83.7l9.9,5.8L961,76.8L940.1,64.6z" class="st3"/><path d="M1015.1,925.5l-87.2-50.4v14.4l62.2,35.9L1015.1,925.5z" class="st2"/><path d="M928,889.5l-10.3,6l51.9,30h20.5L928,889.5z" class="st3"/><path d="M677.9,822l-11.1,19.1L812,925.4h44L677.9,822z" class="st7"/><path d="M655.4,831.6v27.6l64.2-37.1v-27.6L655.4,831.6z" class="st3"/><path d="M131.1,868.8v14.3l121-69.8v-14.4L131.1,868.8z" class="st2"/><path d="M131.1,895.1l131.1-75.8l-10.3-6l-120.8,69.9V895.1z" class="st3"/><path d="M524.4,516.4l129.5-75.8l-10.2-6l-119.4,70L524.4,516.4z" class="st3"/><path d="M524.4,641.8v14.3l119.5-69.8v-14.4L524.4,641.8z" class="st2"/><polygon points="393.2 682.1 393.2 709.7 457.4 672.6 457.4 645" class="st8"/><path d="M131.1,528.4V556l64.2-37.1v-27.6L131.1,528.4z" class="st3"/><path d="M396.7,659.7l21.6,4.5l115.9-342.7l-22.6,0.1L396.7,659.7z" class="st7"/><path d="M393.2,682.1L329,645l64.6-37.1l63.9,37.1L393.2,682.1z" class="st4"/><path d="M907.8,97.6L774.5,469.4l21.6,4.5L931.1,94" class="st7"/><path d="M786.5,455v27.6l-64.2-37.1v-27.6L786.5,455z" class="st1"/><polygon points="786.5 455 786.5 482.6 850.7 445.5 850.7 417.9" class="st3"/><polygon points="656 804.1 677.6 808.6 796.2 472.9 772.9 476.5" class="st7"/><path d="M907.8,97.3l117.5,477.4l22-2L931.1,93.6" class="st7"/><path d="M1048.7,604.5l-64.2-37.1l64.6-37.1L1048.7,604.5z M786.5,455l-64.2-37.1l64.6-37.1l63.9,37.1L786.5,455z" class="st4"/><path d="M514,339.6l119.4,475.8l20.5-8.1L531.5,323.8" class="st7"/><path d="M655.4,831.6l-64.2-37.1l64.6-37.1l63.9,37.1L655.4,831.6z" class="st4"/><path d="M1048.7,604.5v27.6L984.5,595v-27.6L1048.7,604.5z" class="st1"/><path d="M984.5,584.4L195,510l-15.2,20l814.4,76" class="st7"/></svg>