<svg xmlns="http://www.w3.org/2000/svg" width="650" height="192" fill="none" viewBox="0 0 650 192"><path fill="#F9D2CF" d="M313.619 87.1827H348.955V0H313.619V87.1827Z"/><path fill="#ADCAF9" d="M591.809 87.1827H627.145V0H591.809V87.1827Z"/><path fill="#A8DAB5" d="M0 87.1827H35.336V0H0V87.1827Z"/><path fill="#FABB04" d="M131.493 87.1827V0C114.275 0 100.317 13.9573 100.317 31.176V56.0067C100.317 73.2253 114.275 87.1827 131.493 87.1827Z"/><path fill="#FCE192" d="M131.493 87.1827H171.003V0H131.493V87.1827Z"/><path fill="#ADCAF9" d="M192.392 0L242.727 87.1827V0H192.392Z"/><path fill="#4285F4" d="M293.063 0H242.728V87.1827L293.063 0Z"/><path fill="#34A852" d="M35.3361 0C59.4107 0 78.9267 19.516 78.9267 43.5907C78.9267 67.6667 59.4107 87.1827 35.3361 87.1827V0Z"/><path stroke="#0D642C" stroke-linecap="square" stroke-miterlimit="3" stroke-width="1.251" d="M35.336 70.5373C50.2174 70.5373 62.2814 58.4733 62.2814 43.5907C62.2814 28.7093 50.2174 16.6453 35.336 16.6453H17.668V37.2693"/><path fill="#FABB04" d="M525.828 65.388C507.772 65.388 493.133 50.7507 493.133 32.6933C493.133 14.6373 507.772 0 525.828 0V65.388Z"/><path fill="#EA4335" d="M378.023 21.796H348.956V0H378.023V21.796Z"/><path fill="#4285F4" d="M591.809 21.796H569.595V0H591.809V21.796Z"/><path fill="#4285F4" d="M649.36 21.796H627.145V0H649.36V21.796Z"/><path fill="#EA4335" d="M370.752 65.388H348.956V43.592H370.752V65.388Z"/><path fill="#FABB04" d="M554.888 21.796H525.828V0H554.888V21.796Z"/><path fill="#FCE192" d="M525.828 21.796V65.388H496.767V87.184H525.828C543.884 87.184 558.521 72.5467 558.521 54.4907C558.521 36.4333 543.884 21.796 525.828 21.796Z"/><path stroke="#E27400" stroke-linecap="square" stroke-miterlimit="3" stroke-width="1.251" d="M510.584 48.272C506.541 44.316 504.031 38.7974 504.031 32.6934C504.031 20.656 513.789 10.8973 525.828 10.8973H542.173"/><path stroke="#164EA6" stroke-linecap="square" stroke-miterlimit="3" stroke-width="1.251" d="M580.703 11.1067H638.253"/><path fill="#34A852" d="M429.98 87.1827V0C412.761 0 398.804 13.9573 398.804 31.176V56.0067C398.804 73.2253 412.761 87.1827 429.98 87.1827Z"/><path fill="#A8DAB5" d="M429.98 87.1827H469.489V0H429.98V87.1827Z"/><path stroke="#0D642C" stroke-linecap="square" stroke-miterlimit="3" stroke-width="1.251" d="M420.257 30.424L414.629 30.3867"/><path stroke="#0D642C" stroke-linecap="square" stroke-miterlimit="3" stroke-width="1.251" d="M469.491 30.4786H430.789"/><path stroke="#0D642C" stroke-linecap="square" stroke-miterlimit="3" stroke-width="1.251" d="M469.491 56.704H457.935"/><path stroke="#0D642C" stroke-linecap="square" stroke-miterlimit="3" stroke-width="1.251" d="M447.393 56.704H438.608"/><path stroke="#164EA6" stroke-linecap="square" stroke-miterlimit="3" stroke-width="1.251" d="M248.268 51.4427C248.268 48.3827 245.788 45.9014 242.728 45.9014C239.668 45.9014 237.187 48.3827 237.187 51.4427C237.187 54.5027 239.668 56.9827 242.728 56.9827C245.788 56.9827 248.268 54.5027 248.268 51.4427Z"/><path stroke="#164EA6" stroke-linecap="square" stroke-miterlimit="3" stroke-width="1.251" d="M256.571 17.8707C256.571 14.8107 259.051 12.3293 262.111 12.3293C265.171 12.3293 267.652 14.8107 267.652 17.8707C267.652 20.9307 265.171 23.4107 262.111 23.4107C259.051 23.4107 256.571 20.9307 256.571 17.8707Z"/><path stroke="#164EA6" stroke-linecap="square" stroke-miterlimit="3" stroke-width="1.251" d="M259.34 22.6693L245.467 46.6973"/><path stroke="#164EA6" stroke-linecap="square" stroke-miterlimit="3" stroke-width="1.251" d="M228.885 17.8707C228.885 14.8107 226.405 12.3293 223.345 12.3293C220.285 12.3293 217.804 14.8107 217.804 17.8707C217.804 20.9307 220.285 23.4107 223.345 23.4107C226.405 23.4107 228.885 20.9307 228.885 17.8707Z"/><path stroke="#164EA6" stroke-linecap="square" stroke-miterlimit="3" stroke-width="1.251" d="M226.115 22.6693L239.988 46.6973"/><path stroke="#0D642C" stroke-linecap="square" stroke-miterlimit="3" stroke-width="1.251" d="M17.668 49.9134L11.3467 43.5907L17.668 37.2693L23.9907 43.5907L17.668 49.9134Z"/><path stroke="#0D642C" stroke-linecap="square" stroke-miterlimit="3" stroke-width="1.251" d="M457.935 56.704L452.664 51.4333L447.393 56.704L452.664 61.9747L457.935 56.704Z"/><path stroke="#0D642C" stroke-linecap="square" stroke-miterlimit="3" stroke-width="1.251" d="M430.901 30.4787L425.631 25.208L420.361 30.4787L425.631 35.7493L430.901 30.4787Z"/><path stroke="#164EA6" stroke-linecap="square" stroke-miterlimit="3" stroke-width="1.251" d="M604.208 29.5453C604.208 26.6347 606.568 24.2747 609.479 24.2747C612.388 24.2747 614.748 26.6347 614.748 29.5453C614.748 32.456 612.388 34.816 609.479 34.816C606.568 34.816 604.208 32.456 604.208 29.5453Z"/><path stroke="#164EA6" stroke-linecap="square" stroke-miterlimit="3" stroke-width="1.251" d="M604.208 49.748C604.208 46.8373 606.568 44.4773 609.479 44.4773C612.388 44.4773 614.748 46.8373 614.748 49.748C614.748 52.6586 612.388 55.0186 609.479 55.0186C606.568 55.0186 604.208 52.6586 604.208 49.748Z"/><path stroke="#164EA6" stroke-linecap="square" stroke-miterlimit="3" stroke-width="1.251" d="M604.208 69.952C604.208 67.0413 606.568 64.6813 609.479 64.6813C612.388 64.6813 614.748 67.0413 614.748 69.952C614.748 72.8627 612.388 75.2227 609.479 75.2227C606.568 75.2227 604.208 72.8627 604.208 69.952Z"/><path stroke="#E27400" stroke-linecap="square" stroke-miterlimit="3" stroke-width="1.251" d="M515.523 76.2854H525.828C537.864 76.2854 547.624 66.5267 547.624 54.4893C547.624 42.452 537.864 32.6934 525.828 32.6934"/><path stroke="#A40E0E" stroke-linecap="square" stroke-miterlimit="3" stroke-width="1.251" d="M353.743 54.4133H331.287V76.8693"/><path stroke="#A40E0E" stroke-linecap="square" stroke-miterlimit="3" stroke-width="1.245" d="M363.443 10.8893H331.288V43.044"/><path stroke="#E27400" stroke-linecap="square" stroke-miterlimit="3" stroke-width="1.251" d="M171.003 30.4786H131.336"/><path stroke="#E27400" stroke-linecap="square" stroke-miterlimit="3" stroke-width="1.251" d="M171.003 43.5907H131.336"/><path stroke="#E27400" stroke-linecap="square" stroke-miterlimit="3" stroke-width="1.251" d="M171.003 56.704H131.336"/><path stroke="#000" stroke-linecap="square" stroke-miterlimit="3" stroke-width="1.147" d="M438.647 125.7C450.684 125.7 460.443 135.459 460.443 147.496V169.292C460.443 181.329 450.684 191.088 438.647 191.088H422.3"/><path stroke="#000" stroke-linecap="square" stroke-miterlimit="3" stroke-width="1.147" d="M290.529 125.7C302.567 125.7 312.325 135.459 312.325 147.496V169.292C312.325 181.329 302.567 191.088 290.529 191.088C278.492 191.088 268.733 181.329 268.733 169.292V147.496C268.733 135.459 278.492 125.7 290.529 125.7Z"/><path stroke="#000" stroke-linecap="square" stroke-miterlimit="3" stroke-width="1.147" d="M365.153 125.909V191.087"/><path stroke="#000" stroke-linecap="square" stroke-miterlimit="3" stroke-width="1.147" d="M224.24 191.088H191.819V180.189"/><path stroke="#000" stroke-linecap="square" stroke-miterlimit="3" stroke-width="1.147" d="M191.819 180.189C191.819 171.761 198.652 164.929 207.08 164.929C217.912 164.929 226.695 156.147 226.695 145.315C226.695 134.481 217.912 125.7 207.08 125.7H191.819"/><path stroke="#000" stroke-linecap="square" stroke-miterlimit="3" stroke-width="1.147" d="M438.647 125.7C426.609 125.7 416.851 135.459 416.851 147.496C416.851 159.533 426.609 169.292 438.647 169.292C450.684 169.292 460.443 159.533 460.443 147.496"/></svg>