<svg xmlns="http://www.w3.org/2000/svg" viewBox="0 0 152 152.05"><defs><style>.cls-1,.cls-2,.cls-3,.cls-4,.cls-5{fill:#fff}.cls-2{opacity:.8}.cls-2,.cls-3,.cls-4{isolation:isolate}.cls-3,.cls-4,.cls-5{opacity:.6}</style></defs><g id="Layer_2" data-name="Layer 2"><g id="Layer_1-2" data-name="Layer 1"><g id="Layer_2-2" data-name="Layer 2"><g id="Layer_1-2-2" data-name="Layer 1-2"><path d="M64,0H87a15.83,15.83,0,0,0,2.58,1q46.14,10,59.94,55.08C150.42,59,151.18,62,152,65V88a51.35,51.35,0,0,0-1.81,5c-7.51,29-25.73,47.76-54.31,56.53-2.94.91-5.92,1.68-8.88,2.52H64a31.85,31.85,0,0,0-4-1.56Q13.38,138.61,1.55,92A34.08,34.08,0,0,0,0,88V64a34.08,34.08,0,0,0,1.55-4Q13.42,13.39,60,1.56A31.85,31.85,0,0,0,64,0ZM50.28,84.5c0,5.81-.08,11.62,0,17.43.1,5.14,2.71,8.15,6.78,8.15s6.76-3,6.79-8.13q.15-17,0-33.87c0-5.07-2.71-8.14-6.77-8.15s-6.69,3-6.8,8.13C50.2,73.54,50.28,79,50.28,84.5Zm51.44.85c0-5.64.07-11.29,0-16.93-.08-5.44-2.72-8.59-6.94-8.49-4,.09-6.61,3.18-6.64,8.29q-.11,16.69,0,33.38c0,5.42,2.71,8.57,6.94,8.48,4-.09,6.55-3.11,6.64-8.29C101.8,96.31,101.72,90.83,101.72,85.35ZM44.89,67a7.09,7.09,0,0,0-6.73-6.72,6.73,6.73,0,0,0,0,13.46A7.07,7.07,0,0,0,44.89,67Zm75.61.31a7,7,0,0,0-6.4-7,7.1,7.1,0,0,0-7,6.47,7.11,7.11,0,0,0,6.49,7,6.69,6.69,0,0,0,6.91-6.46v0ZM44.89,85.12a7.09,7.09,0,0,0-6.61-6.84,6.73,6.73,0,1,0-.21,13.46h0A7.09,7.09,0,0,0,44.89,85.12Zm75.61.12a7,7,0,0,0-6.47-7,6.74,6.74,0,1,0,6.47,7Zm18.95.4c-.1-4.15-3.11-7.3-6.6-7.35a7,7,0,0,0-6.8,6.68c0,3.68,3.54,7.16,7.2,6.72S139.38,89.25,139.45,85.64Zm-126.8-.45a6.91,6.91,0,0,0,6.79,6.56,6.73,6.73,0,0,0-.36-13.45A6.84,6.84,0,0,0,12.65,85.19ZM75.9,91.76a6.85,6.85,0,0,0,6.85-6.57,6.75,6.75,0,1,0-6.93,6.57ZM94.74,42.85a6.89,6.89,0,0,0-6.56,6.71A7,7,0,0,0,95.5,56c3.87-.27,6.1-2.38,6.15-6.31A6.77,6.77,0,0,0,95,42.85ZM57.19,56.05a6.44,6.44,0,0,0,6.65-6.22v-.36a6.74,6.74,0,1,0-13.48,0A6.94,6.94,0,0,0,57.19,56.05Z" class="cls-1"/><path d="M50.28,84.5c0-5.48-.08-11,0-16.44.11-5.11,2.74-8.14,6.8-8.13s6.74,3.08,6.77,8.15Q64,85,63.87,102c0,5.09-2.72,8.14-6.79,8.13s-6.68-3-6.78-8.15C50.2,96.12,50.28,90.31,50.28,84.5Z" class="cls-2"/><path d="M101.72,85.35c0,5.48.08,11,0,16.44-.09,5.18-2.6,8.2-6.64,8.29-4.23.09-6.91-3.06-6.94-8.48q-.09-16.69,0-33.38c0-5.11,2.62-8.2,6.64-8.29,4.22-.1,6.86,3,6.94,8.49C101.79,74.06,101.72,79.71,101.72,85.35Z" class="cls-2"/><path d="M44.89,67a7.07,7.07,0,0,1-6.71,6.74,6.73,6.73,0,0,1,0-13.46A7.08,7.08,0,0,1,44.89,67Z" class="cls-3"/><path d="M120.5,67.29a6.69,6.69,0,0,1-6.9,6.44,7.11,7.11,0,0,1-6.49-7,7.1,7.1,0,0,1,7-6.47A7,7,0,0,1,120.5,67.29Z" class="cls-3"/><path d="M44.89,85.12a7.09,7.09,0,0,1-6.82,6.62,6.73,6.73,0,1,1,.21-13.46h0A7.09,7.09,0,0,1,44.89,85.12Z" class="cls-3"/><path d="M120.5,85.24a6.7,6.7,0,1,1-6.5-7h0A7,7,0,0,1,120.5,85.24Z" class="cls-3"/><path d="M139.45,85.64c-.07,3.61-2.48,5.6-6.2,6s-7.22-3-7.2-6.72a7,7,0,0,1,6.8-6.68C136.34,78.34,139.35,81.49,139.45,85.64Z" class="cls-3"/><path d="M12.65,85.19a6.84,6.84,0,0,1,6.43-6.89,6.73,6.73,0,0,1,.36,13.45A6.91,6.91,0,0,1,12.65,85.19Z" class="cls-3"/><path d="M75.9,91.76a6.75,6.75,0,1,1,6.85-6.65v.08A6.85,6.85,0,0,1,75.9,91.76Z" class="cls-4"/><path d="M94.74,42.85a6.77,6.77,0,0,1,6.91,6.63v.24c-.05,3.93-2.28,6-6.15,6.31a7,7,0,0,1-7.32-6.47A6.89,6.89,0,0,1,94.74,42.85Z" class="cls-3"/><path d="M57.19,56.05a6.94,6.94,0,0,1-6.83-6.56,6.74,6.74,0,0,1,13.48,0,6.44,6.44,0,0,1-6.32,6.56Z" class="cls-5"/></g></g></g></g></svg>